0, 0, Header, 1, 3, 192
1, 0, Start_track
1, 0, Time_signature, 4, 2, 24, 8
1, 0, Tempo, 500000
1, 120040, End_track
2, 0, Start_track
2, 0, Text_t, "random instrument: random person i dunno whatev"
2, 0, Title_t, "Track 1"
2, 0, Note_on_c, 1, 40, 127
2, 0, Note_on_c, 1, 48, 127
2, 0, Note_on_c, 1, 56, 127
2, 0, Note_on_c, 1, 60, 127
2, 40, Note_off_c, 1, 40, 0
2, 40, Note_off_c, 1, 48, 0
2, 40, Note_on_c, 1, 55, 127
2, 40, Note_off_c, 1, 56, 0
2, 40, Note_off_c, 1, 60, 0
2, 40, Note_on_c, 1, 72, 127
2, 40, Note_on_c, 1, 75, 127
2, 40, Note_on_c, 1, 79, 127
2, 40, Note_on_c, 1, 84, 127
2, 80, Note_off_c, 1, 55, 0
2, 80, Note_off_c, 1, 72, 0
2, 80, Note_off_c, 1, 75, 0
2, 80, Note_off_c, 1, 79, 0
2, 80, Note_off_c, 1, 84, 0
2, 120, Note_on_c, 1, 40, 127
2, 120, Note_on_c, 1, 48, 127
2, 120, Note_on_c, 1, 56, 127
2, 120, Note_on_c, 1, 60, 127
2, 160, Note_off_c, 1, 40, 0
2, 160, Note_on_c, 1, 41, 127
2, 160, Note_off_c, 1, 48, 0
2, 160, Note_on_c, 1, 50, 127
2, 160, Note_on_c, 1, 53, 127
2, 160, Note_off_c, 1, 56, 0
2, 160, Note_off_c, 1, 60, 0
2, 160, Note_on_c, 1, 81, 127
2, 160, Note_on_c, 1, 86, 127
2, 200, Note_on_c, 1, 35, 127
2, 200, Note_on_c, 1, 39, 127
2, 200, Note_off_c, 1, 41, 0
2, 200, Note_on_c, 1, 47, 127
2, 200, Note_off_c, 1, 53, 0
2, 200, Note_off_c, 1, 81, 0
2, 200, Note_off_c, 1, 86, 0
2, 240, Note_on_c, 1, 34, 127
2, 240, Note_off_c, 1, 35, 0
2, 240, Note_on_c, 1, 46, 127
2, 240, Note_off_c, 1, 47, 0
2, 240, Note_off_c, 1, 50, 0
2, 240, Note_on_c, 1, 73, 127
2, 240, Note_on_c, 1, 75, 127
2, 360, Note_on_c, 1, 80, 127
2, 400, Note_off_c, 1, 34, 0
2, 400, Note_on_c, 1, 35, 127
2, 400, Note_off_c, 1, 39, 0
2, 400, Note_on_c, 1, 40, 127
2, 400, Note_off_c, 1, 46, 0
2, 400, Note_on_c, 1, 47, 127
2, 400, Note_on_c, 1, 62, 127
2, 400, Note_off_c, 1, 73, 0
2, 400, Note_off_c, 1, 75, 0
2, 400, Note_off_c, 1, 80, 0
2, 480, Note_off_c, 1, 35, 0
2, 480, Note_off_c, 1, 40, 0
2, 480, Note_off_c, 1, 47, 0
2, 480, Note_off_c, 1, 62, 0
2, 480, Note_on_c, 1, 76, 127
2, 520, Note_on_c, 1, 48, 127
2, 520, Note_on_c, 1, 55, 127
2, 520, Note_on_c, 1, 60, 127
2, 520, Note_on_c, 1, 64, 127
2, 520, Note_on_c, 1, 72, 127
2, 680, Note_off_c, 1, 48, 0
2, 680, Note_off_c, 1, 55, 0
2, 680, Note_off_c, 1, 60, 0
2, 680, Note_off_c, 1, 64, 0
2, 680, Note_off_c, 1, 72, 0
2, 680, Note_off_c, 1, 76, 0
2, 720, Note_on_c, 1, 38, 127
2, 720, Note_on_c, 1, 62, 127
2, 720, Note_on_c, 1, 65, 127
2, 720, Note_on_c, 1, 70, 127
2, 760, Note_off_c, 1, 38, 0
2, 800, Note_off_c, 1, 70, 0
2, 840, Note_on_c, 1, 47, 127
2, 840, Note_off_c, 1, 62, 0
2, 840, Note_on_c, 1, 63, 127
2, 840, Note_off_c, 1, 65, 0
2, 840, Note_on_c, 1, 66, 127
2, 840, Note_on_c, 1, 71, 127
2, 960, Note_off_c, 1, 47, 0
2, 960, Note_off_c, 1, 63, 0
2, 960, Note_off_c, 1, 66, 0
2, 960, Note_off_c, 1, 71, 0
2, 1000, Note_on_c, 1, 48, 127
2, 1000, Note_on_c, 1, 60, 127
2, 1000, Note_on_c, 1, 65, 127
2, 1000, Note_on_c, 1, 69, 127
2, 1520, Note_on_c, 1, 39, 127
2, 1520, Note_on_c, 1, 45, 127
2, 1520, Note_off_c, 1, 48, 0
2, 1520, Note_off_c, 1, 65, 0
2, 1520, Note_on_c, 1, 66, 127
2, 1560, Note_off_c, 1, 39, 0
2, 1560, Note_off_c, 1, 45, 0
2, 1560, Note_off_c, 1, 60, 0
2, 1560, Note_off_c, 1, 66, 0
2, 1560, Note_off_c, 1, 69, 0
2, 1600, Note_on_c, 1, 41, 127
2, 1600, Note_on_c, 1, 60, 127
2, 1600, Note_on_c, 1, 65, 127
2, 1600, Note_on_c, 1, 69, 127
2, 1920, Note_off_c, 1, 41, 0
2, 1920, Note_off_c, 1, 60, 0
2, 1920, Note_off_c, 1, 65, 0
2, 1920, Note_off_c, 1, 69, 0
2, 1960, Note_on_c, 1, 41, 127
2, 1960, Note_on_c, 1, 60, 127
2, 1960, Note_on_c, 1, 65, 127
2, 1960, Note_on_c, 1, 69, 127
2, 2000, Note_off_c, 1, 41, 0
2, 2040, Note_on_c, 1, 41, 127
2, 2840, Note_off_c, 1, 41, 0
2, 2840, Note_off_c, 1, 60, 0
2, 2840, Note_off_c, 1, 65, 0
2, 2840, Note_off_c, 1, 69, 0
2, 2880, Note_on_c, 1, 41, 127
2, 2880, Note_on_c, 1, 65, 127
2, 3240, Note_off_c, 1, 41, 0
2, 3280, Note_on_c, 1, 56, 127
2, 3840, Note_off_c, 1, 56, 0
2, 4000, Note_off_c, 1, 65, 0
2, 4040, Note_on_c, 1, 65, 127
2, 4080, Note_off_c, 1, 65, 0
2, 4120, Note_on_c, 1, 65, 127
2, 4120, Note_on_c, 1, 71, 127
2, 4120, Note_on_c, 1, 77, 127
2, 4120, Note_on_c, 1, 86, 127
2, 4160, Note_on_c, 1, 56, 127
2, 4160, Note_off_c, 1, 71, 0
2, 4160, Note_off_c, 1, 77, 0
2, 4160, Note_on_c, 1, 84, 127
2, 4160, Note_off_c, 1, 86, 0
2, 4400, Note_off_c, 1, 56, 0
2, 4400, Note_on_c, 1, 63, 127
2, 4400, Note_off_c, 1, 65, 0
2, 4400, Note_on_c, 1, 79, 127
2, 4400, Note_off_c, 1, 84, 0
2, 4400, Note_on_c, 1, 87, 127
2, 4440, Note_on_c, 1, 56, 127
2, 4440, Note_off_c, 1, 63, 0
2, 4440, Note_on_c, 1, 65, 127
2, 4440, Note_off_c, 1, 79, 0
2, 4440, Note_on_c, 1, 83, 127
2, 4440, Note_off_c, 1, 87, 0
2, 4480, Note_off_c, 1, 56, 0
2, 4480, Note_off_c, 1, 83, 0
2, 4520, Note_on_c, 1, 75, 127
2, 4520, Note_on_c, 1, 81, 127
2, 4520, Note_on_c, 1, 84, 127
2, 4920, Note_on_c, 1, 69, 127
2, 4920, Note_on_c, 1, 74, 127
2, 4920, Note_off_c, 1, 75, 0
2, 4920, Note_off_c, 1, 84, 0
2, 5280, Note_off_c, 1, 65, 0
2, 5280, Note_off_c, 1, 69, 0
2, 5280, Note_off_c, 1, 74, 0
2, 5280, Note_off_c, 1, 81, 0
2, 5320, Note_on_c, 1, 40, 127
2, 5320, Note_on_c, 1, 73, 127
2, 5320, Note_on_c, 1, 79, 127
2, 5320, Note_on_c, 1, 82, 127
2, 5320, Note_on_c, 1, 85, 127
2, 5360, Note_off_c, 1, 40, 0
2, 5360, Note_on_c, 1, 53, 127
2, 5360, Note_on_c, 1, 69, 127
2, 5360, Note_off_c, 1, 73, 0
2, 5360, Note_on_c, 1, 75, 127
2, 5360, Note_off_c, 1, 82, 0
2, 5360, Note_off_c, 1, 85, 0
2, 5400, Note_on_c, 1, 40, 127
2, 5400, Note_off_c, 1, 53, 0
2, 5400, Note_off_c, 1, 69, 0
2, 5400, Note_on_c, 1, 73, 127
2, 5400, Note_off_c, 1, 75, 0
2, 5400, Note_on_c, 1, 82, 127
2, 5400, Note_on_c, 1, 85, 127
2, 5440, Note_off_c, 1, 40, 0
2, 5440, Note_on_c, 1, 60, 127
2, 5440, Note_off_c, 1, 73, 0
2, 5440, Note_off_c, 1, 79, 0
2, 5440, Note_off_c, 1, 82, 0
2, 5440, Note_off_c, 1, 85, 0
2, 5720, Note_on_c, 1, 65, 127
2, 5720, Note_on_c, 1, 77, 127
2, 5720, Note_on_c, 1, 81, 127
2, 6080, Note_off_c, 1, 60, 0
2, 6080, Note_off_c, 1, 65, 0
2, 6080, Note_off_c, 1, 77, 0
2, 6080, Note_off_c, 1, 81, 0
2, 6120, Note_on_c, 1, 60, 127
2, 6160, Note_on_c, 1, 65, 127
2, 6160, Note_on_c, 1, 77, 127
2, 6160, Note_on_c, 1, 81, 127
2, 6520, Note_off_c, 1, 65, 0
2, 6520, Note_off_c, 1, 77, 0
2, 6520, Note_off_c, 1, 81, 0
2, 6560, Note_on_c, 1, 76, 127
2, 6560, Note_on_c, 1, 79, 127
2, 6720, Note_off_c, 1, 60, 0
2, 6720, Note_off_c, 1, 76, 0
2, 6720, Note_off_c, 1, 79, 0
2, 6760, Note_on_c, 1, 65, 127
2, 6760, Note_on_c, 1, 77, 127
2, 6760, Note_on_c, 1, 81, 127
2, 6920, Note_off_c, 1, 65, 0
2, 6920, Note_off_c, 1, 77, 0
2, 6920, Note_off_c, 1, 81, 0
2, 7000, Note_on_c, 1, 61, 127
2, 7000, Note_on_c, 1, 76, 127
2, 7000, Note_on_c, 1, 81, 127
2, 7200, Note_off_c, 1, 61, 0
2, 7200, Note_off_c, 1, 76, 0
2, 7200, Note_off_c, 1, 81, 0
2, 7240, Note_on_c, 1, 60, 127
2, 7240, Note_on_c, 1, 67, 127
2, 7240, Note_on_c, 1, 76, 127
2, 7240, Note_on_c, 1, 79, 127
2, 7400, Note_off_c, 1, 60, 0
2, 7400, Note_off_c, 1, 67, 0
2, 7400, Note_off_c, 1, 76, 0
2, 7400, Note_off_c, 1, 79, 0
2, 7520, Note_on_c, 1, 67, 127
2, 7920, Note_on_c, 1, 69, 127
2, 8080, Note_off_c, 1, 67, 0
2, 8080, Note_off_c, 1, 69, 0
2, 8120, Note_on_c, 1, 67, 127
2, 8120, Note_on_c, 1, 69, 127
2, 8280, Note_off_c, 1, 67, 0
2, 8280, Note_off_c, 1, 69, 0
2, 8320, Note_on_c, 1, 46, 127
2, 8320, Note_on_c, 1, 58, 127
2, 8320, Note_on_c, 1, 60, 127
2, 8320, Note_on_c, 1, 64, 127
2, 8320, Note_on_c, 1, 67, 127
2, 8360, Note_on_c, 1, 45, 127
2, 8360, Note_off_c, 1, 46, 0
2, 8360, Note_on_c, 1, 50, 127
2, 8360, Note_off_c, 1, 58, 0
2, 8360, Note_off_c, 1, 60, 0
2, 8360, Note_on_c, 1, 62, 127
2, 8360, Note_off_c, 1, 64, 0
2, 8360, Note_off_c, 1, 67, 0
2, 8360, Note_on_c, 1, 81, 127
2, 8360, Note_on_c, 1, 90, 127
2, 8360, Note_on_c, 1, 93, 127
2, 8400, Note_off_c, 1, 45, 0
2, 8400, Note_on_c, 1, 48, 127
2, 8400, Note_off_c, 1, 50, 0
2, 8400, Note_off_c, 1, 62, 0
2, 8400, Note_on_c, 1, 64, 127
2, 8400, Note_on_c, 1, 69, 127
2, 8400, Note_on_c, 1, 73, 127
2, 8400, Note_off_c, 1, 81, 0
2, 8400, Note_off_c, 1, 90, 0
2, 8400, Note_off_c, 1, 93, 0
2, 8440, Note_off_c, 1, 48, 0
2, 8440, Note_off_c, 1, 64, 0
2, 8440, Note_off_c, 1, 69, 0
2, 8440, Note_off_c, 1, 73, 0
2, 8440, Note_on_c, 1, 81, 127
2, 8440, Note_on_c, 1, 84, 127
2, 8440, Note_on_c, 1, 88, 127
2, 8480, Note_on_c, 1, 57, 127
2, 8480, Note_on_c, 1, 61, 127
2, 8480, Note_on_c, 1, 64, 127
2, 8480, Note_on_c, 1, 67, 127
2, 8480, Note_on_c, 1, 69, 127
2, 8480, Note_on_c, 1, 80, 127
2, 8480, Note_off_c, 1, 81, 0
2, 8480, Note_off_c, 1, 84, 0
2, 8480, Note_off_c, 1, 88, 0
2, 8520, Note_on_c, 1, 54, 127
2, 8520, Note_off_c, 1, 61, 0
2, 8520, Note_on_c, 1, 62, 127
2, 8520, Note_off_c, 1, 64, 0
2, 8520, Note_on_c, 1, 66, 127
2, 8520, Note_off_c, 1, 67, 0
2, 8520, Note_off_c, 1, 69, 0
2, 8520, Note_on_c, 1, 74, 127
2, 8520, Note_on_c, 1, 78, 127
2, 8520, Note_off_c, 1, 80, 0
2, 8560, Note_off_c, 1, 54, 0
2, 8560, Note_off_c, 1, 57, 0
2, 8560, Note_off_c, 1, 62, 0
2, 8560, Note_off_c, 1, 66, 0
2, 8560, Note_off_c, 1, 74, 0
2, 8560, Note_off_c, 1, 78, 0
2, 8600, Note_on_c, 1, 91, 127
2, 8600, Note_on_c, 1, 93, 127
2, 8640, Note_off_c, 1, 91, 0
2, 8640, Note_off_c, 1, 93, 0
2, 8680, Note_on_c, 1, 91, 127
2, 8680, Note_on_c, 1, 93, 127
2, 8720, Note_on_c, 1, 35, 127
2, 8720, Note_on_c, 1, 67, 127
2, 8720, Note_on_c, 1, 76, 127
2, 8720, Note_on_c, 1, 79, 127
2, 8720, Note_off_c, 1, 91, 0
2, 8720, Note_off_c, 1, 93, 0
2, 8760, Note_off_c, 1, 35, 0
2, 8760, Note_on_c, 1, 39, 127
2, 8760, Note_on_c, 1, 48, 127
2, 8760, Note_on_c, 1, 51, 127
2, 8760, Note_off_c, 1, 67, 0
2, 8760, Note_off_c, 1, 76, 0
2, 8760, Note_off_c, 1, 79, 0
2, 9040, Note_off_c, 1, 39, 0
2, 9040, Note_off_c, 1, 48, 0
2, 9040, Note_off_c, 1, 51, 0
2, 9160, Note_on_c, 1, 31, 127
2, 9160, Note_on_c, 1, 43, 127
2, 9560, Note_on_c, 1, 50, 127
2, 9800, Note_off_c, 1, 50, 0
2, 9800, Note_on_c, 1, 57, 127
2, 9840, Note_on_c, 1, 50, 127
2, 9840, Note_off_c, 1, 57, 0
2, 9920, Note_off_c, 1, 50, 0
2, 9960, Note_on_c, 1, 59, 127
2, 10120, Note_off_c, 1, 31, 0
2, 10120, Note_off_c, 1, 43, 0
2, 10120, Note_off_c, 1, 59, 0
2, 10160, Note_on_c, 1, 55, 127
2, 10200, Note_on_c, 1, 53, 127
2, 10200, Note_off_c, 1, 55, 0
2, 10240, Note_off_c, 1, 53, 0
2, 10240, Note_on_c, 1, 57, 127
2, 10280, Note_off_c, 1, 57, 0
2, 10360, Note_on_c, 1, 62, 127
2, 10400, Note_on_c, 1, 60, 127
2, 10400, Note_off_c, 1, 62, 0
2, 10560, Note_off_c, 1, 60, 0
2, 10600, Note_on_c, 1, 65, 127
2, 10760, Note_off_c, 1, 65, 0
2, 10800, Note_on_c, 1, 69, 127
2, 11000, Note_off_c, 1, 69, 0
2, 11040, Note_on_c, 1, 63, 127
2, 11200, Note_off_c, 1, 63, 0
2, 11240, Note_on_c, 1, 62, 127
2, 11360, Note_off_c, 1, 62, 0
2, 11400, Note_on_c, 1, 70, 127
2, 11600, Note_off_c, 1, 70, 0
2, 11640, Note_on_c, 1, 67, 127
2, 11760, Note_off_c, 1, 67, 0
2, 11800, Note_on_c, 1, 67, 127
2, 11960, Note_off_c, 1, 67, 0
2, 12000, Note_on_c, 1, 74, 127
2, 12160, Note_off_c, 1, 74, 0
2, 12200, Note_on_c, 1, 47, 127
2, 12200, Note_on_c, 1, 55, 127
2, 12200, Note_on_c, 1, 67, 127
2, 12200, Note_on_c, 1, 79, 127
2, 12440, Note_off_c, 1, 47, 0
2, 12440, Note_off_c, 1, 55, 0
2, 12440, Note_off_c, 1, 67, 0
2, 12440, Note_off_c, 1, 79, 0
2, 12480, Note_on_c, 1, 45, 127
2, 12480, Note_on_c, 1, 48, 127
2, 12480, Note_on_c, 1, 57, 127
2, 12480, Note_on_c, 1, 60, 127
2, 12480, Note_on_c, 1, 64, 127
2, 12520, Note_off_c, 1, 45, 0
2, 12520, Note_on_c, 1, 47, 127
2, 12520, Note_off_c, 1, 48, 0
2, 12520, Note_on_c, 1, 55, 127
2, 12520, Note_off_c, 1, 57, 0
2, 12520, Note_off_c, 1, 60, 0
2, 12520, Note_off_c, 1, 64, 0
2, 12520, Note_on_c, 1, 67, 127
2, 12520, Note_on_c, 1, 79, 127
2, 13000, Note_off_c, 1, 47, 0
2, 13000, Note_off_c, 1, 55, 0
2, 13000, Note_off_c, 1, 67, 0
2, 13000, Note_off_c, 1, 79, 0
2, 13040, Note_on_c, 1, 48, 127
2, 13040, Note_on_c, 1, 77, 127
2, 13040, Note_on_c, 1, 83, 127
2, 13040, Note_on_c, 1, 91, 127
2, 13080, Note_off_c, 1, 48, 0
2, 13080, Note_on_c, 1, 55, 127
2, 13080, Note_on_c, 1, 58, 127
2, 13080, Note_on_c, 1, 61, 127
2, 13080, Note_on_c, 1, 63, 127
2, 13080, Note_on_c, 1, 67, 127
2, 13080, Note_on_c, 1, 70, 127
2, 13080, Note_off_c, 1, 83, 0
2, 13080, Note_off_c, 1, 91, 0
2, 13120, Note_on_c, 1, 36, 127
2, 13120, Note_off_c, 1, 55, 0
2, 13120, Note_off_c, 1, 58, 0
2, 13120, Note_on_c, 1, 59, 127
2, 13120, Note_off_c, 1, 61, 0
2, 13120, Note_on_c, 1, 62, 127
2, 13120, Note_off_c, 1, 63, 0
2, 13120, Note_on_c, 1, 65, 127
2, 13120, Note_off_c, 1, 70, 0
2, 13120, Note_on_c, 1, 71, 127
2, 13120, Note_on_c, 1, 74, 127
2, 13120, Note_off_c, 1, 77, 0
2, 13120, Note_on_c, 1, 83, 127
2, 13160, Note_off_c, 1, 36, 0
2, 13160, Note_on_c, 1, 55, 127
2, 13160, Note_off_c, 1, 59, 0
2, 13160, Note_on_c, 1, 60, 127
2, 13160, Note_off_c, 1, 62, 0
2, 13160, Note_on_c, 1, 63, 127
2, 13160, Note_off_c, 1, 65, 0
2, 13160, Note_off_c, 1, 67, 0
2, 13160, Note_off_c, 1, 71, 0
2, 13160, Note_off_c, 1, 83, 0
2, 13200, Note_on_c, 1, 53, 127
2, 13200, Note_off_c, 1, 55, 0
2, 13200, Note_off_c, 1, 60, 0
2, 13200, Note_on_c, 1, 62, 127
2, 13200, Note_off_c, 1, 63, 0
2, 13200, Note_on_c, 1, 70, 127
2, 13200, Note_off_c, 1, 74, 0
2, 13200, Note_on_c, 1, 82, 127
2, 13240, Note_on_c, 1, 48, 127
2, 13240, Note_off_c, 1, 53, 0
2, 13240, Note_off_c, 1, 62, 0
2, 13240, Note_off_c, 1, 70, 0
2, 13240, Note_on_c, 1, 77, 127
2, 13240, Note_off_c, 1, 82, 0
2, 13240, Note_on_c, 1, 83, 127
2, 13240, Note_on_c, 1, 91, 127
2, 13280, Note_off_c, 1, 48, 0
2, 13280, Note_on_c, 1, 61, 127
2, 13280, Note_on_c, 1, 67, 127
2, 13280, Note_on_c, 1, 70, 127
2, 13280, Note_on_c, 1, 73, 127
2, 13280, Note_off_c, 1, 77, 0
2, 13280, Note_on_c, 1, 79, 127
2, 13280, Note_on_c, 1, 82, 127
2, 13280, Note_off_c, 1, 83, 0
2, 13280, Note_off_c, 1, 91, 0
2, 13320, Note_off_c, 1, 61, 0
2, 13320, Note_on_c, 1, 62, 127
2, 13320, Note_off_c, 1, 67, 0
2, 13320, Note_off_c, 1, 70, 0
2, 13320, Note_on_c, 1, 72, 127
2, 13320, Note_off_c, 1, 73, 0
2, 13320, Note_on_c, 1, 76, 127
2, 13320, Note_off_c, 1, 79, 0
2, 13320, Note_off_c, 1, 82, 0
2, 13320, Note_on_c, 1, 88, 127
2, 13360, Note_on_c, 1, 36, 127
2, 13360, Note_on_c, 1, 46, 127
2, 13360, Note_off_c, 1, 72, 0
2, 13360, Note_off_c, 1, 76, 0
2, 13360, Note_off_c, 1, 88, 0
2, 13400, Note_off_c, 1, 36, 0
2, 13400, Note_on_c, 1, 43, 127
2, 13400, Note_off_c, 1, 46, 0
2, 13400, Note_off_c, 1, 62, 0
2, 13440, Note_off_c, 1, 43, 0
2, 13440, Note_on_c, 1, 48, 127
2, 13440, Note_on_c, 1, 77, 127
2, 13440, Note_on_c, 1, 83, 127
2, 13440, Note_on_c, 1, 91, 127
2, 13520, Note_off_c, 1, 48, 0
2, 13520, Note_on_c, 1, 62, 127
2, 13560, Note_on_c, 1, 36, 127
2, 13560, Note_on_c, 1, 48, 127
2, 13560, Note_off_c, 1, 62, 0
2, 13560, Note_on_c, 1, 67, 127
2, 13560, Note_on_c, 1, 72, 127
2, 13560, Note_on_c, 1, 76, 127
2, 13560, Note_off_c, 1, 77, 0
2, 13560, Note_off_c, 1, 83, 0
2, 13560, Note_on_c, 1, 84, 127
2, 13560, Note_off_c, 1, 91, 0
2, 13600, Note_off_c, 1, 36, 0
2, 13600, Note_on_c, 1, 43, 127
2, 13600, Note_off_c, 1, 48, 0
2, 13600, Note_off_c, 1, 67, 0
2, 13600, Note_off_c, 1, 72, 0
2, 13600, Note_off_c, 1, 76, 0
2, 13600, Note_off_c, 1, 84, 0
2, 13640, Note_off_c, 1, 43, 0
2, 13640, Note_on_c, 1, 51, 127
2, 13640, Note_on_c, 1, 55, 127
2, 13640, Note_on_c, 1, 63, 127
2, 13640, Note_on_c, 1, 70, 127
2, 13640, Note_on_c, 1, 75, 127
2, 14560, Note_off_c, 1, 51, 0
2, 14560, Note_off_c, 1, 55, 0
2, 14560, Note_off_c, 1, 63, 0
2, 14560, Note_off_c, 1, 70, 0
2, 14560, Note_off_c, 1, 75, 0
2, 14640, Note_on_c, 1, 36, 127
2, 14640, Note_on_c, 1, 69, 127
2, 14640, Note_on_c, 1, 72, 127
2, 14800, Note_off_c, 1, 36, 0
2, 14800, Note_on_c, 1, 48, 127
2, 15000, Note_off_c, 1, 69, 0
2, 15040, Note_off_c, 1, 48, 0
2, 15040, Note_on_c, 1, 55, 127
2, 15040, Note_on_c, 1, 79, 127
2, 15200, Note_off_c, 1, 55, 0
2, 15200, Note_off_c, 1, 79, 0
2, 15240, Note_on_c, 1, 51, 127
2, 15240, Note_on_c, 1, 63, 127
2, 15400, Note_off_c, 1, 51, 0
2, 15400, Note_off_c, 1, 63, 0
2, 15440, Note_on_c, 1, 53, 127
2, 15440, Note_on_c, 1, 62, 127
2, 15600, Note_off_c, 1, 62, 0
2, 15600, Note_off_c, 1, 72, 0
2, 15640, Note_on_c, 1, 60, 127
2, 15640, Note_on_c, 1, 69, 127
2, 15640, Note_on_c, 1, 70, 127
2, 15800, Note_off_c, 1, 53, 0
2, 15800, Note_off_c, 1, 60, 0
2, 15800, Note_off_c, 1, 69, 0
2, 15800, Note_off_c, 1, 70, 0
2, 15840, Note_on_c, 1, 58, 127
2, 15840, Note_on_c, 1, 60, 127
2, 15840, Note_on_c, 1, 67, 127
2, 15840, Note_on_c, 1, 72, 127
2, 15880, Note_off_c, 1, 72, 0
2, 16040, Note_on_c, 1, 72, 127
2, 16160, Note_off_c, 1, 72, 0
2, 16200, Note_off_c, 1, 58, 0
2, 16200, Note_off_c, 1, 60, 0
2, 16240, Note_on_c, 1, 58, 127
2, 16240, Note_on_c, 1, 60, 127
2, 16240, Note_on_c, 1, 72, 127
2, 16360, Note_off_c, 1, 72, 0
2, 16400, Note_on_c, 1, 72, 127
2, 16560, Note_off_c, 1, 58, 0
2, 16560, Note_off_c, 1, 72, 0
2, 16600, Note_on_c, 1, 58, 127
2, 16760, Note_off_c, 1, 58, 0
2, 16760, Note_off_c, 1, 60, 0
2, 16760, Note_off_c, 1, 67, 0
2, 16800, Note_on_c, 1, 67, 127
2, 16840, Note_on_c, 1, 60, 127
2, 17000, Note_off_c, 1, 60, 0
2, 17000, Note_off_c, 1, 67, 0
2, 17040, Note_on_c, 1, 48, 127
2, 17040, Note_on_c, 1, 67, 127
2, 17040, Note_on_c, 1, 70, 127
2, 17200, Note_off_c, 1, 48, 0
2, 17400, Note_off_c, 1, 67, 0
2, 17400, Note_off_c, 1, 70, 0
2, 17440, Note_on_c, 1, 60, 127
2, 17440, Note_on_c, 1, 62, 127
2, 17440, Note_on_c, 1, 65, 127
2, 17440, Note_on_c, 1, 67, 127
2, 17600, Note_off_c, 1, 67, 0
2, 17640, Note_on_c, 1, 67, 127
2, 17760, Note_off_c, 1, 67, 0
2, 17800, Note_on_c, 1, 45, 127
2, 17800, Note_on_c, 1, 49, 127
2, 17800, Note_on_c, 1, 52, 127
2, 17800, Note_on_c, 1, 55, 127
2, 17800, Note_off_c, 1, 60, 0
2, 17800, Note_off_c, 1, 62, 0
2, 17800, Note_off_c, 1, 65, 0
2, 17840, Note_off_c, 1, 45, 0
2, 17840, Note_off_c, 1, 49, 0
2, 17840, Note_off_c, 1, 52, 0
2, 17840, Note_on_c, 1, 58, 127
2, 17840, Note_on_c, 1, 62, 127
2, 17840, Note_on_c, 1, 65, 127
2, 17840, Note_on_c, 1, 67, 127
2, 17960, Note_off_c, 1, 58, 0
2, 18160, Note_off_c, 1, 55, 0
2, 18160, Note_off_c, 1, 62, 0
2, 18160, Note_off_c, 1, 65, 0
2, 18200, Note_on_c, 1, 48, 127
2, 18360, Note_off_c, 1, 48, 0
2, 18360, Note_off_c, 1, 67, 0
2, 18400, Note_on_c, 1, 72, 127
2, 18600, Note_on_c, 1, 40, 127
2, 18600, Note_on_c, 1, 67, 127
2, 18760, Note_off_c, 1, 40, 0
2, 18760, Note_on_c, 1, 52, 127
2, 18760, Note_off_c, 1, 67, 0
2, 18800, Note_on_c, 1, 67, 127
2, 18920, Note_off_c, 1, 52, 0
2, 18920, Note_off_c, 1, 67, 0
2, 18920, Note_off_c, 1, 72, 0
2, 18960, Note_on_c, 1, 52, 127
2, 18960, Note_on_c, 1, 67, 127
2, 18960, Note_on_c, 1, 72, 127
2, 19000, Note_off_c, 1, 52, 0
2, 19000, Note_off_c, 1, 67, 0
2, 19040, Note_on_c, 1, 58, 127
2, 19040, Note_on_c, 1, 64, 127
2, 19200, Note_off_c, 1, 58, 0
2, 19400, Note_off_c, 1, 64, 0
2, 19400, Note_off_c, 1, 72, 0
2, 19440, Note_on_c, 1, 53, 127
2, 19440, Note_on_c, 1, 66, 127
2, 19440, Note_on_c, 1, 69, 127
2, 19440, Note_on_c, 1, 72, 127
2, 19440, Note_on_c, 1, 74, 127
2, 19640, Note_on_c, 1, 73, 127
2, 19640, Note_off_c, 1, 74, 0
2, 19800, Note_off_c, 1, 53, 0
2, 19800, Note_off_c, 1, 66, 0
2, 19800, Note_on_c, 1, 68, 127
2, 19800, Note_off_c, 1, 69, 0
2, 19800, Note_off_c, 1, 73, 0
2, 19840, Note_on_c, 1, 48, 127
2, 19840, Note_off_c, 1, 68, 0
2, 19840, Note_on_c, 1, 75, 127
2, 19840, Note_on_c, 1, 79, 127
2, 20200, Note_off_c, 1, 48, 0
2, 20200, Note_off_c, 1, 72, 0
2, 20200, Note_off_c, 1, 75, 0
2, 20200, Note_off_c, 1, 79, 0
2, 20240, Note_on_c, 1, 61, 127
2, 20240, Note_on_c, 1, 63, 127
2, 20240, Note_on_c, 1, 70, 127
2, 20240, Note_on_c, 1, 79, 127
2, 20600, Note_off_c, 1, 61, 0
2, 20600, Note_off_c, 1, 79, 0
2, 20640, Note_on_c, 1, 61, 127
2, 20640, Note_on_c, 1, 82, 127
2, 20800, Note_off_c, 1, 82, 0
2, 20840, Note_on_c, 1, 82, 127
2, 21000, Note_off_c, 1, 61, 0
2, 21000, Note_off_c, 1, 63, 0
2, 21000, Note_off_c, 1, 82, 0
2, 21040, Note_off_c, 1, 70, 0
2, 21080, Note_on_c, 1, 58, 127
2, 21080, Note_on_c, 1, 62, 127
2, 21080, Note_on_c, 1, 65, 127
2, 21080, Note_on_c, 1, 71, 127
2, 21440, Note_off_c, 1, 58, 0
2, 21440, Note_off_c, 1, 62, 0
2, 21440, Note_off_c, 1, 65, 0
2, 21440, Note_off_c, 1, 71, 0
2, 21480, Note_on_c, 1, 55, 127
2, 21480, Note_on_c, 1, 62, 127
2, 21480, Note_on_c, 1, 65, 127
2, 21480, Note_on_c, 1, 71, 127
2, 21640, Note_off_c, 1, 71, 0
2, 21680, Note_off_c, 1, 55, 0
2, 21680, Note_on_c, 1, 60, 127
2, 21680, Note_off_c, 1, 65, 0
2, 21680, Note_on_c, 1, 69, 127
2, 21680, Note_on_c, 1, 79, 127
2, 21760, Note_on_c, 1, 78, 127
2, 21760, Note_off_c, 1, 79, 0
2, 21800, Note_off_c, 1, 78, 0
2, 21800, Note_on_c, 1, 81, 127
2, 21840, Note_off_c, 1, 60, 0
2, 21840, Note_off_c, 1, 62, 0
2, 21840, Note_off_c, 1, 69, 0
2, 21840, Note_off_c, 1, 81, 0
2, 21880, Note_on_c, 1, 60, 127
2, 21880, Note_on_c, 1, 62, 127
2, 21880, Note_on_c, 1, 69, 127
2, 21880, Note_on_c, 1, 78, 127
2, 22640, Note_off_c, 1, 60, 0
2, 22640, Note_off_c, 1, 78, 0
2, 22680, Note_on_c, 1, 54, 127
2, 22680, Note_on_c, 1, 78, 127
2, 22840, Note_off_c, 1, 78, 0
2, 23040, Note_off_c, 1, 54, 0
2, 23040, Note_off_c, 1, 69, 0
2, 23080, Note_on_c, 1, 74, 127
2, 23160, Note_off_c, 1, 62, 0
2, 23160, Note_off_c, 1, 74, 0
2, 23200, Note_on_c, 1, 62, 127
2, 23200, Note_on_c, 1, 74, 127
2, 23280, Note_off_c, 1, 74, 0
2, 23320, Note_on_c, 1, 69, 127
2, 23480, Note_off_c, 1, 69, 0
2, 23520, Note_on_c, 1, 74, 127
2, 23680, Note_off_c, 1, 74, 0
2, 23720, Note_on_c, 1, 72, 127
2, 23880, Note_off_c, 1, 62, 0
2, 23880, Note_off_c, 1, 72, 0
2, 23920, Note_on_c, 1, 67, 127
2, 23920, Note_on_c, 1, 71, 127
2, 24080, Note_off_c, 1, 67, 0
2, 24080, Note_off_c, 1, 71, 0
2, 24120, Note_on_c, 1, 38, 127
2, 24120, Note_on_c, 1, 45, 127
2, 24120, Note_on_c, 1, 50, 127
2, 24120, Note_on_c, 1, 89, 127
2, 24680, Note_off_c, 1, 38, 0
2, 24680, Note_off_c, 1, 45, 0
2, 24680, Note_off_c, 1, 50, 0
2, 24680, Note_off_c, 1, 89, 0
2, 25120, Note_on_c, 1, 50, 127
2, 25120, Note_on_c, 1, 62, 127
2, 25120, Note_on_c, 1, 66, 127
2, 25120, Note_on_c, 1, 69, 127
2, 25120, Note_on_c, 1, 74, 127
2, 25320, Note_off_c, 1, 50, 0
2, 25320, Note_off_c, 1, 62, 0
2, 25320, Note_off_c, 1, 66, 0
2, 25320, Note_off_c, 1, 69, 0
2, 25320, Note_off_c, 1, 74, 0
2, 25360, Note_on_c, 1, 50, 127
2, 25360, Note_on_c, 1, 62, 127
2, 25360, Note_on_c, 1, 66, 127
2, 25360, Note_on_c, 1, 69, 127
2, 25360, Note_on_c, 1, 74, 127
2, 26320, Note_off_c, 1, 50, 0
2, 26320, Note_off_c, 1, 62, 0
2, 26320, Note_off_c, 1, 66, 0
2, 26320, Note_off_c, 1, 69, 0
2, 26320, Note_off_c, 1, 74, 0
2, 26360, Note_on_c, 1, 38, 127
2, 26360, Note_on_c, 1, 50, 127
2, 26360, Note_on_c, 1, 71, 127
2, 26360, Note_on_c, 1, 77, 127
2, 26360, Note_on_c, 1, 83, 127
2, 26920, Note_off_c, 1, 38, 0
2, 26920, Note_off_c, 1, 50, 0
2, 26920, Note_off_c, 1, 71, 0
2, 26920, Note_on_c, 1, 72, 127
2, 26920, Note_on_c, 1, 74, 127
2, 26920, Note_off_c, 1, 77, 0
2, 26920, Note_off_c, 1, 83, 0
2, 26920, Note_on_c, 1, 84, 127
2, 26960, Note_on_c, 1, 49, 127
2, 26960, Note_on_c, 1, 61, 127
2, 26960, Note_on_c, 1, 70, 127
2, 26960, Note_off_c, 1, 72, 0
2, 26960, Note_on_c, 1, 73, 127
2, 26960, Note_off_c, 1, 74, 0
2, 26960, Note_on_c, 1, 77, 127
2, 26960, Note_on_c, 1, 82, 127
2, 26960, Note_off_c, 1, 84, 0
2, 27120, Note_off_c, 1, 49, 0
2, 27120, Note_off_c, 1, 61, 0
2, 27120, Note_off_c, 1, 70, 0
2, 27120, Note_off_c, 1, 73, 0
2, 27120, Note_off_c, 1, 77, 0
2, 27120, Note_off_c, 1, 82, 0
2, 27160, Note_on_c, 1, 48, 127
2, 27160, Note_on_c, 1, 55, 127
2, 27160, Note_on_c, 1, 67, 127
2, 27160, Note_on_c, 1, 71, 127
2, 27160, Note_on_c, 1, 74, 127
2, 27160, Note_on_c, 1, 79, 127
2, 27440, Note_off_c, 1, 48, 0
2, 27440, Note_off_c, 1, 55, 0
2, 27440, Note_off_c, 1, 67, 0
2, 27440, Note_off_c, 1, 71, 0
2, 27440, Note_off_c, 1, 74, 0
2, 27440, Note_off_c, 1, 79, 0
2, 27480, Note_on_c, 1, 48, 127
2, 27480, Note_on_c, 1, 55, 127
2, 27480, Note_on_c, 1, 67, 127
2, 27480, Note_on_c, 1, 71, 127
2, 27480, Note_on_c, 1, 74, 127
2, 27480, Note_on_c, 1, 79, 127
2, 28360, Note_off_c, 1, 48, 0
2, 28360, Note_off_c, 1, 55, 0
2, 28360, Note_off_c, 1, 67, 0
2, 28360, Note_off_c, 1, 71, 0
2, 28360, Note_off_c, 1, 74, 0
2, 28360, Note_off_c, 1, 79, 0
2, 28400, Note_on_c, 1, 48, 127
2, 28400, Note_on_c, 1, 54, 127
2, 28400, Note_on_c, 1, 62, 127
2, 28400, Note_on_c, 1, 74, 127
2, 28760, Note_off_c, 1, 48, 0
2, 28760, Note_off_c, 1, 54, 0
2, 28760, Note_off_c, 1, 62, 0
2, 28760, Note_off_c, 1, 74, 0
2, 28800, Note_on_c, 1, 56, 127
2, 28800, Note_on_c, 1, 66, 127
2, 28800, Note_on_c, 1, 68, 127
2, 28800, Note_on_c, 1, 83, 127
2, 28800, Note_on_c, 1, 87, 127
2, 29080, Note_on_c, 1, 78, 127
2, 29080, Note_off_c, 1, 83, 0
2, 29080, Note_on_c, 1, 85, 127
2, 29080, Note_off_c, 1, 87, 0
2, 29120, Note_off_c, 1, 78, 0
2, 29120, Note_off_c, 1, 85, 0
2, 29200, Note_on_c, 1, 78, 127
2, 29200, Note_on_c, 1, 85, 127
2, 29560, Note_off_c, 1, 56, 0
2, 29560, Note_off_c, 1, 66, 0
2, 29560, Note_off_c, 1, 68, 0
2, 29560, Note_off_c, 1, 78, 0
2, 29560, Note_off_c, 1, 85, 0
2, 29640, Note_on_c, 1, 44, 127
2, 29640, Note_on_c, 1, 46, 127
2, 29640, Note_on_c, 1, 65, 127
2, 29640, Note_on_c, 1, 77, 127
2, 30440, Note_on_c, 1, 62, 127
2, 30440, Note_off_c, 1, 65, 0
2, 30440, Note_on_c, 1, 74, 127
2, 30440, Note_off_c, 1, 77, 0
2, 30600, Note_off_c, 1, 44, 0
2, 30600, Note_on_c, 1, 45, 127
2, 30600, Note_off_c, 1, 46, 0
2, 30600, Note_on_c, 1, 52, 127
2, 30600, Note_on_c, 1, 59, 127
2, 30600, Note_off_c, 1, 74, 0
2, 30640, Note_on_c, 1, 44, 127
2, 30640, Note_off_c, 1, 45, 0
2, 30640, Note_on_c, 1, 46, 127
2, 30640, Note_off_c, 1, 52, 0
2, 30640, Note_off_c, 1, 59, 0
2, 30640, Note_on_c, 1, 74, 127
2, 31000, Note_off_c, 1, 62, 0
2, 31000, Note_off_c, 1, 74, 0
2, 31040, Note_on_c, 1, 58, 127
2, 31040, Note_on_c, 1, 70, 127
2, 31080, Note_off_c, 1, 58, 0
2, 31080, Note_off_c, 1, 70, 0
2, 31600, Note_off_c, 1, 44, 0
2, 31600, Note_off_c, 1, 46, 0
2, 31640, Note_on_c, 1, 51, 127
2, 31640, Note_on_c, 1, 55, 127
2, 31640, Note_on_c, 1, 75, 127
2, 31640, Note_on_c, 1, 87, 127
2, 31720, Note_off_c, 1, 51, 0
2, 31720, Note_off_c, 1, 55, 0
2, 31720, Note_off_c, 1, 75, 0
2, 31720, Note_off_c, 1, 87, 0
2, 31760, Note_on_c, 1, 51, 127
2, 31760, Note_on_c, 1, 55, 127
2, 31760, Note_on_c, 1, 75, 127
2, 31760, Note_on_c, 1, 87, 127
2, 32040, Note_off_c, 1, 55, 0
2, 32080, Note_on_c, 1, 60, 127
2, 32440, Note_off_c, 1, 60, 0
2, 32480, Note_on_c, 1, 42, 127
2, 32480, Note_on_c, 1, 60, 127
2, 32480, Note_on_c, 1, 72, 127
2, 32480, Note_off_c, 1, 75, 0
2, 32480, Note_off_c, 1, 87, 0
2, 33240, Note_off_c, 1, 42, 0
2, 33240, Note_off_c, 1, 60, 0
2, 33240, Note_off_c, 1, 72, 0
2, 33280, Note_on_c, 1, 60, 127
2, 33280, Note_on_c, 1, 69, 127
2, 33280, Note_on_c, 1, 75, 127
2, 33920, Note_off_c, 1, 51, 0
2, 33920, Note_off_c, 1, 60, 0
2, 33920, Note_off_c, 1, 69, 0
2, 33920, Note_off_c, 1, 75, 0
2, 33960, Note_on_c, 1, 51, 127
2, 33960, Note_on_c, 1, 60, 127
2, 33960, Note_on_c, 1, 69, 127
2, 33960, Note_on_c, 1, 75, 127
2, 34120, Note_off_c, 1, 51, 0
2, 34120, Note_off_c, 1, 60, 0
2, 34120, Note_off_c, 1, 69, 0
2, 34120, Note_off_c, 1, 75, 0
2, 34160, Note_on_c, 1, 51, 127
2, 34160, Note_on_c, 1, 60, 127
2, 34160, Note_on_c, 1, 69, 127
2, 34160, Note_on_c, 1, 75, 127
2, 35760, Note_on_c, 1, 68, 127
2, 35760, Note_off_c, 1, 69, 0
2, 35760, Note_on_c, 1, 72, 127
2, 35760, Note_off_c, 1, 75, 0
2, 36080, Note_off_c, 1, 51, 0
2, 36080, Note_off_c, 1, 60, 0
2, 36080, Note_off_c, 1, 68, 0
2, 36080, Note_off_c, 1, 72, 0
2, 36120, Note_on_c, 1, 51, 127
2, 36120, Note_on_c, 1, 60, 127
2, 36120, Note_on_c, 1, 68, 127
2, 36120, Note_on_c, 1, 72, 127
2, 36160, Note_off_c, 1, 51, 0
2, 36160, Note_off_c, 1, 60, 0
2, 36160, Note_off_c, 1, 68, 0
2, 36160, Note_off_c, 1, 72, 0
2, 36200, Note_on_c, 1, 39, 127
2, 36200, Note_on_c, 1, 51, 127
2, 36200, Note_on_c, 1, 63, 127
2, 36200, Note_on_c, 1, 75, 127
2, 37360, Note_off_c, 1, 39, 0
2, 37360, Note_off_c, 1, 51, 0
2, 37360, Note_off_c, 1, 63, 0
2, 37360, Note_off_c, 1, 75, 0
2, 38240, Note_on_c, 1, 52, 127
2, 38240, Note_on_c, 1, 59, 127
2, 38640, Note_on_c, 1, 56, 127
2, 39000, Note_off_c, 1, 52, 0
2, 39000, Note_off_c, 1, 56, 0
2, 39000, Note_off_c, 1, 59, 0
2, 39040, Note_on_c, 1, 63, 127
2, 39280, Note_off_c, 1, 63, 0
2, 39320, Note_on_c, 1, 64, 127
2, 39400, Note_off_c, 1, 64, 0
2, 39440, Note_on_c, 1, 57, 127
2, 39440, Note_on_c, 1, 61, 127
2, 39440, Note_on_c, 1, 69, 127
2, 40240, Note_off_c, 1, 57, 0
2, 40240, Note_off_c, 1, 61, 0
2, 40240, Note_off_c, 1, 69, 0
2, 40280, Note_on_c, 1, 57, 127
2, 40280, Note_on_c, 1, 61, 127
2, 40280, Note_on_c, 1, 69, 127
2, 40440, Note_off_c, 1, 69, 0
2, 40640, Note_off_c, 1, 57, 0
2, 40640, Note_off_c, 1, 61, 0
2, 40680, Note_on_c, 1, 64, 127
2, 41040, Note_off_c, 1, 64, 0
2, 41080, Note_on_c, 1, 69, 127
2, 41240, Note_off_c, 1, 69, 0
2, 41280, Note_on_c, 1, 64, 127
2, 41440, Note_off_c, 1, 64, 0
2, 41480, Note_on_c, 1, 69, 127
2, 41640, Note_off_c, 1, 69, 0
2, 41680, Note_on_c, 1, 73, 127
2, 41840, Note_off_c, 1, 73, 0
2, 41880, Note_on_c, 1, 76, 127
2, 42040, Note_off_c, 1, 76, 0
2, 42080, Note_on_c, 1, 78, 127
2, 42240, Note_off_c, 1, 78, 0
2, 42320, Note_on_c, 1, 71, 127
2, 42320, Note_on_c, 1, 76, 127
2, 42320, Note_on_c, 1, 80, 127
2, 43080, Note_off_c, 1, 71, 0
2, 43080, Note_off_c, 1, 76, 0
2, 43080, Note_off_c, 1, 80, 0
2, 43120, Note_on_c, 1, 67, 127
2, 43120, Note_on_c, 1, 69, 127
2, 43120, Note_on_c, 1, 73, 127
2, 43120, Note_on_c, 1, 78, 127
2, 43400, Note_on_c, 1, 76, 127
2, 43400, Note_off_c, 1, 78, 0
2, 43440, Note_off_c, 1, 76, 0
2, 43440, Note_on_c, 1, 78, 127
2, 43840, Note_off_c, 1, 67, 0
2, 43840, Note_off_c, 1, 69, 0
2, 43840, Note_off_c, 1, 73, 0
2, 43840, Note_on_c, 1, 74, 127
2, 43840, Note_on_c, 1, 81, 127
2, 43840, Note_on_c, 1, 84, 127
2, 43880, Note_off_c, 1, 74, 0
2, 43880, Note_off_c, 1, 78, 0
2, 43880, Note_off_c, 1, 81, 0
2, 43880, Note_off_c, 1, 84, 0
2, 43920, Note_on_c, 1, 62, 127
2, 43920, Note_on_c, 1, 66, 127
2, 43920, Note_on_c, 1, 74, 127
2, 44080, Note_off_c, 1, 62, 0
2, 44080, Note_off_c, 1, 66, 0
2, 44080, Note_off_c, 1, 74, 0
2, 44320, Note_on_c, 1, 73, 127
2, 44400, Note_off_c, 1, 73, 0
2, 44440, Note_on_c, 1, 73, 127
2, 44520, Note_off_c, 1, 73, 0
2, 44560, Note_on_c, 1, 45, 127
2, 44720, Note_off_c, 1, 45, 0
2, 44760, Note_on_c, 1, 50, 127
2, 44920, Note_off_c, 1, 50, 0
2, 45560, Note_on_c, 1, 62, 127
2, 45560, Note_on_c, 1, 66, 127
2, 45560, Note_on_c, 1, 79, 127
2, 45600, Note_on_c, 1, 78, 127
2, 45600, Note_off_c, 1, 79, 0
2, 45720, Note_off_c, 1, 78, 0
2, 45760, Note_on_c, 1, 80, 127
2, 45920, Note_off_c, 1, 80, 0
2, 45960, Note_on_c, 1, 78, 127
2, 46120, Note_off_c, 1, 62, 0
2, 46120, Note_off_c, 1, 66, 0
2, 46320, Note_off_c, 1, 78, 0
2, 46800, Note_on_c, 1, 62, 127
2, 46800, Note_on_c, 1, 66, 127
2, 46800, Note_on_c, 1, 69, 127
2, 46800, Note_on_c, 1, 78, 127
2, 47160, Note_off_c, 1, 69, 0
2, 47360, Note_off_c, 1, 62, 0
2, 47360, Note_off_c, 1, 66, 0
2, 47360, Note_off_c, 1, 78, 0
2, 48000, Note_on_c, 1, 57, 127
2, 48000, Note_on_c, 1, 66, 127
2, 48000, Note_on_c, 1, 74, 127
2, 48160, Note_off_c, 1, 57, 0
2, 48160, Note_off_c, 1, 66, 0
2, 48160, Note_off_c, 1, 74, 0
2, 48600, Note_on_c, 1, 55, 127
2, 48600, Note_on_c, 1, 67, 127
2, 48600, Note_on_c, 1, 76, 127
2, 48760, Note_off_c, 1, 55, 0
2, 48760, Note_off_c, 1, 67, 0
2, 48760, Note_off_c, 1, 76, 0
2, 48800, Note_on_c, 1, 55, 127
2, 48800, Note_on_c, 1, 67, 127
2, 48800, Note_on_c, 1, 76, 127
2, 49200, Note_off_c, 1, 55, 0
2, 49200, Note_off_c, 1, 67, 0
2, 49200, Note_off_c, 1, 76, 0
2, 49240, Note_on_c, 1, 41, 127
2, 49240, Note_on_c, 1, 46, 127
2, 49240, Note_on_c, 1, 53, 127
2, 49240, Note_on_c, 1, 87, 127
2, 49800, Note_off_c, 1, 41, 0
2, 49800, Note_off_c, 1, 46, 0
2, 49800, Note_off_c, 1, 53, 0
2, 49800, Note_off_c, 1, 87, 0
2, 49840, Note_on_c, 1, 47, 127
2, 49840, Note_on_c, 1, 54, 127
2, 49840, Note_on_c, 1, 57, 127
2, 49840, Note_on_c, 1, 60, 127
2, 49840, Note_on_c, 1, 69, 127
2, 49880, Note_off_c, 1, 54, 0
2, 49880, Note_off_c, 1, 57, 0
2, 49880, Note_off_c, 1, 60, 0
2, 49880, Note_off_c, 1, 69, 0
2, 49880, Note_on_c, 1, 72, 127
2, 50000, Note_off_c, 1, 47, 0
2, 50000, Note_on_c, 1, 71, 127
2, 50000, Note_off_c, 1, 72, 0
2, 50040, Note_on_c, 1, 59, 127
2, 50040, Note_on_c, 1, 62, 127
2, 50040, Note_on_c, 1, 73, 127
2, 50040, Note_on_c, 1, 83, 127
2, 50080, Note_on_c, 1, 57, 127
2, 50080, Note_off_c, 1, 59, 0
2, 50080, Note_on_c, 1, 60, 127
2, 50080, Note_on_c, 1, 66, 127
2, 50080, Note_off_c, 1, 73, 0
2, 50080, Note_off_c, 1, 83, 0
2, 50120, Note_off_c, 1, 57, 0
2, 50120, Note_on_c, 1, 59, 127
2, 50120, Note_off_c, 1, 60, 0
2, 50120, Note_off_c, 1, 62, 0
2, 50120, Note_off_c, 1, 66, 0
2, 50120, Note_on_c, 1, 67, 127
2, 50120, Note_off_c, 1, 71, 0
2, 50120, Note_on_c, 1, 72, 127
2, 50120, Note_on_c, 1, 76, 127
2, 50160, Note_on_c, 1, 52, 127
2, 50160, Note_off_c, 1, 59, 0
2, 50160, Note_on_c, 1, 66, 127
2, 50160, Note_off_c, 1, 67, 0
2, 50160, Note_on_c, 1, 69, 127
2, 50160, Note_off_c, 1, 72, 0
2, 50160, Note_on_c, 1, 73, 127
2, 50160, Note_off_c, 1, 76, 0
2, 50160, Note_on_c, 1, 77, 127
2, 50200, Note_off_c, 1, 52, 0
2, 50200, Note_on_c, 1, 55, 127
2, 50200, Note_on_c, 1, 59, 127
2, 50200, Note_off_c, 1, 66, 0
2, 50200, Note_on_c, 1, 67, 127
2, 50200, Note_off_c, 1, 69, 0
2, 50200, Note_on_c, 1, 71, 127
2, 50200, Note_off_c, 1, 73, 0
2, 50200, Note_off_c, 1, 77, 0
2, 50200, Note_on_c, 1, 79, 127
2, 50240, Note_on_c, 1, 32, 127
2, 50240, Note_on_c, 1, 36, 127
2, 50240, Note_on_c, 1, 41, 127
2, 50240, Note_on_c, 1, 53, 127
2, 50240, Note_off_c, 1, 55, 0
2, 50240, Note_on_c, 1, 56, 127
2, 50240, Note_off_c, 1, 59, 0
2, 50240, Note_off_c, 1, 67, 0
2, 50240, Note_off_c, 1, 71, 0
2, 50240, Note_off_c, 1, 79, 0
2, 50280, Note_off_c, 1, 32, 0
2, 50280, Note_off_c, 1, 36, 0
2, 50280, Note_off_c, 1, 41, 0
2, 50280, Note_off_c, 1, 53, 0
2, 50280, Note_off_c, 1, 56, 0
2, 50280, Note_on_c, 1, 59, 127
2, 50280, Note_on_c, 1, 64, 127
2, 50280, Note_on_c, 1, 74, 127
2, 50280, Note_on_c, 1, 86, 127
2, 50320, Note_on_c, 1, 43, 127
2, 50320, Note_off_c, 1, 59, 0
2, 50320, Note_on_c, 1, 63, 127
2, 50320, Note_off_c, 1, 64, 0
2, 50320, Note_on_c, 1, 70, 127
2, 50320, Note_on_c, 1, 73, 127
2, 50320, Note_off_c, 1, 74, 0
2, 50320, Note_on_c, 1, 76, 127
2, 50320, Note_off_c, 1, 86, 0
2, 50360, Note_off_c, 1, 43, 0
2, 50360, Note_on_c, 1, 55, 127
2, 50360, Note_on_c, 1, 67, 127
2, 50360, Note_off_c, 1, 70, 0
2, 50360, Note_off_c, 1, 73, 0
2, 50360, Note_off_c, 1, 76, 0
2, 50360, Note_on_c, 1, 83, 127
2, 50400, Note_off_c, 1, 55, 0
2, 50400, Note_off_c, 1, 63, 0
2, 50400, Note_off_c, 1, 67, 0
2, 50400, Note_off_c, 1, 83, 0
2, 50440, Note_on_c, 1, 54, 127
2, 50440, Note_on_c, 1, 61, 127
2, 50440, Note_on_c, 1, 64, 127
2, 50440, Note_on_c, 1, 66, 127
2, 50800, Note_off_c, 1, 54, 0
2, 50800, Note_off_c, 1, 61, 0
2, 50800, Note_off_c, 1, 64, 0
2, 50800, Note_off_c, 1, 66, 0
2, 50880, Note_on_c, 1, 47, 127
2, 50880, Note_on_c, 1, 62, 127
2, 50880, Note_on_c, 1, 71, 127
2, 51240, Note_off_c, 1, 47, 0
2, 51240, Note_off_c, 1, 62, 0
2, 51240, Note_off_c, 1, 71, 0
2, 51680, Note_on_c, 1, 44, 127
2, 51680, Note_on_c, 1, 56, 127
2, 51680, Note_on_c, 1, 63, 127
2, 51680, Note_on_c, 1, 66, 127
2, 51680, Note_on_c, 1, 72, 127
2, 52040, Note_off_c, 1, 44, 0
2, 52040, Note_off_c, 1, 63, 0
2, 52040, Note_off_c, 1, 66, 0
2, 52080, Note_on_c, 1, 49, 127
2, 52080, Note_on_c, 1, 65, 127
2, 52240, Note_off_c, 1, 49, 0
2, 52240, Note_off_c, 1, 56, 0
2, 52240, Note_off_c, 1, 65, 0
2, 52240, Note_off_c, 1, 72, 0
2, 52480, Note_on_c, 1, 53, 127
2, 52480, Note_on_c, 1, 59, 127
2, 52480, Note_on_c, 1, 68, 127
2, 52480, Note_on_c, 1, 73, 127
2, 52840, Note_off_c, 1, 53, 0
2, 52840, Note_off_c, 1, 59, 0
2, 52840, Note_off_c, 1, 68, 0
2, 52840, Note_off_c, 1, 73, 0
2, 53320, Note_on_c, 1, 50, 127
2, 53320, Note_on_c, 1, 57, 127
2, 53320, Note_on_c, 1, 62, 127
2, 53320, Note_on_c, 1, 66, 127
2, 53320, Note_on_c, 1, 71, 127
2, 53520, Note_on_c, 1, 52, 127
2, 53520, Note_on_c, 1, 55, 127
2, 53680, Note_off_c, 1, 50, 0
2, 53680, Note_off_c, 1, 57, 0
2, 53680, Note_off_c, 1, 66, 0
2, 53680, Note_on_c, 1, 67, 127
2, 53680, Note_off_c, 1, 71, 0
2, 53720, Note_on_c, 1, 71, 127
2, 54480, Note_on_c, 1, 48, 127
2, 54480, Note_off_c, 1, 52, 0
2, 54480, Note_on_c, 1, 54, 127
2, 54480, Note_off_c, 1, 55, 0
2, 54480, Note_on_c, 1, 57, 127
2, 54480, Note_on_c, 1, 60, 127
2, 54480, Note_off_c, 1, 62, 0
2, 54480, Note_on_c, 1, 66, 127
2, 54480, Note_off_c, 1, 67, 0
2, 54480, Note_on_c, 1, 69, 127
2, 54480, Note_off_c, 1, 71, 0
2, 54920, Note_off_c, 1, 48, 0
2, 54920, Note_off_c, 1, 54, 0
2, 54920, Note_off_c, 1, 57, 0
2, 54920, Note_off_c, 1, 60, 0
2, 54920, Note_off_c, 1, 66, 0
2, 54920, Note_off_c, 1, 69, 0
2, 54960, Note_on_c, 1, 48, 127
2, 54960, Note_on_c, 1, 54, 127
2, 54960, Note_on_c, 1, 57, 127
2, 54960, Note_on_c, 1, 60, 127
2, 54960, Note_on_c, 1, 66, 127
2, 54960, Note_on_c, 1, 69, 127
2, 56520, Note_off_c, 1, 48, 0
2, 56520, Note_off_c, 1, 54, 0
2, 56520, Note_off_c, 1, 57, 0
2, 56520, Note_off_c, 1, 60, 0
2, 56520, Note_off_c, 1, 66, 0
2, 56520, Note_off_c, 1, 69, 0
2, 57960, Note_on_c, 1, 53, 127
2, 57960, Note_on_c, 1, 65, 127
2, 58720, Note_off_c, 1, 53, 0
2, 58720, Note_off_c, 1, 65, 0
2, 58760, Note_on_c, 1, 53, 127
2, 58760, Note_on_c, 1, 65, 127
2, 59560, Note_off_c, 1, 53, 0
2, 59560, Note_off_c, 1, 65, 0
2, 59600, Note_on_c, 1, 53, 127
2, 59600, Note_on_c, 1, 65, 127
2, 60760, Note_off_c, 1, 53, 0
2, 60760, Note_off_c, 1, 65, 0
2, 60800, Note_on_c, 1, 49, 127
2, 60800, Note_on_c, 1, 61, 127
2, 61280, Note_off_c, 1, 49, 0
2, 61280, Note_off_c, 1, 61, 0
2, 61320, Note_on_c, 1, 46, 127
2, 61320, Note_on_c, 1, 58, 127
2, 61760, Note_off_c, 1, 46, 0
2, 61760, Note_off_c, 1, 58, 0
2, 61800, Note_on_c, 1, 46, 127
2, 61800, Note_on_c, 1, 58, 127
2, 61920, Note_off_c, 1, 46, 0
2, 61920, Note_off_c, 1, 58, 0
2, 61960, Note_on_c, 1, 46, 127
2, 61960, Note_on_c, 1, 58, 127
2, 62520, Note_off_c, 1, 46, 0
2, 62520, Note_off_c, 1, 58, 0
2, 62560, Note_on_c, 1, 46, 127
2, 62560, Note_on_c, 1, 58, 127
2, 63120, Note_off_c, 1, 46, 0
2, 63120, Note_off_c, 1, 58, 0
2, 63160, Note_on_c, 1, 55, 127
2, 63160, Note_on_c, 1, 67, 127
2, 63720, Note_off_c, 1, 55, 0
2, 63720, Note_off_c, 1, 67, 0
2, 63760, Note_on_c, 1, 52, 127
2, 63760, Note_on_c, 1, 64, 127
2, 64280, Note_off_c, 1, 52, 0
2, 64280, Note_off_c, 1, 64, 0
2, 64320, Note_on_c, 1, 52, 127
2, 64320, Note_on_c, 1, 64, 127
2, 64360, Note_off_c, 1, 52, 0
2, 64360, Note_off_c, 1, 64, 0
2, 64400, Note_on_c, 1, 53, 127
2, 64400, Note_on_c, 1, 65, 127
2, 64960, Note_off_c, 1, 53, 0
2, 64960, Note_off_c, 1, 65, 0
2, 65000, Note_on_c, 1, 53, 127
2, 65000, Note_on_c, 1, 65, 127
2, 65560, Note_off_c, 1, 53, 0
2, 65560, Note_off_c, 1, 65, 0
2, 65600, Note_on_c, 1, 42, 127
2, 65600, Note_on_c, 1, 54, 127
2, 65600, Note_on_c, 1, 66, 127
2, 66400, Note_off_c, 1, 42, 0
2, 66400, Note_off_c, 1, 54, 0
2, 66400, Note_off_c, 1, 66, 0
2, 66440, Note_on_c, 1, 42, 127
2, 66440, Note_on_c, 1, 54, 127
2, 66440, Note_on_c, 1, 66, 127
2, 66800, Note_off_c, 1, 42, 0
2, 66800, Note_off_c, 1, 54, 0
2, 66800, Note_off_c, 1, 66, 0
2, 66840, Note_on_c, 1, 35, 127
2, 66840, Note_on_c, 1, 47, 127
2, 66840, Note_on_c, 1, 56, 127
2, 66840, Note_on_c, 1, 63, 127
2, 66840, Note_on_c, 1, 68, 127
2, 67960, Note_off_c, 1, 35, 0
2, 67960, Note_off_c, 1, 47, 0
2, 67960, Note_off_c, 1, 56, 0
2, 67960, Note_off_c, 1, 63, 0
2, 67960, Note_off_c, 1, 68, 0
2, 68000, Note_on_c, 1, 37, 127
2, 68000, Note_on_c, 1, 49, 127
2, 68000, Note_on_c, 1, 53, 127
2, 68000, Note_on_c, 1, 56, 127
2, 68000, Note_on_c, 1, 61, 127
2, 68520, Note_off_c, 1, 37, 0
2, 68520, Note_off_c, 1, 49, 0
2, 68520, Note_off_c, 1, 53, 0
2, 68520, Note_off_c, 1, 56, 0
2, 68520, Note_off_c, 1, 61, 0
2, 68560, Note_on_c, 1, 37, 127
2, 68560, Note_on_c, 1, 49, 127
2, 68560, Note_on_c, 1, 53, 127
2, 68560, Note_on_c, 1, 56, 127
2, 68560, Note_on_c, 1, 61, 127
2, 69200, Note_off_c, 1, 37, 0
2, 69200, Note_off_c, 1, 49, 0
2, 69200, Note_off_c, 1, 53, 0
2, 69200, Note_off_c, 1, 56, 0
2, 69200, Note_off_c, 1, 61, 0
2, 69280, Note_on_c, 1, 49, 127
2, 69280, Note_on_c, 1, 54, 127
2, 69280, Note_on_c, 1, 59, 127
2, 69280, Note_on_c, 1, 61, 127
2, 69280, Note_on_c, 1, 65, 127
2, 69280, Note_on_c, 1, 68, 127
2, 70440, Note_off_c, 1, 49, 0
2, 70440, Note_off_c, 1, 54, 0
2, 70440, Note_off_c, 1, 59, 0
2, 70440, Note_off_c, 1, 61, 0
2, 70440, Note_off_c, 1, 65, 0
2, 70440, Note_off_c, 1, 68, 0
2, 70520, Note_on_c, 1, 49, 127
2, 70520, Note_on_c, 1, 58, 127
2, 70520, Note_on_c, 1, 66, 127
2, 70520, Note_on_c, 1, 78, 127
2, 71680, Note_off_c, 1, 49, 0
2, 71680, Note_off_c, 1, 58, 0
2, 71680, Note_off_c, 1, 66, 0
2, 71680, Note_off_c, 1, 78, 0
2, 71720, Note_on_c, 1, 49, 127
2, 71720, Note_on_c, 1, 59, 127
2, 71720, Note_on_c, 1, 68, 127
2, 71720, Note_on_c, 1, 77, 127
2, 72440, Note_off_c, 1, 49, 0
2, 72440, Note_off_c, 1, 59, 0
2, 72440, Note_off_c, 1, 68, 0
2, 72440, Note_off_c, 1, 77, 0
2, 72480, Note_on_c, 1, 49, 127
2, 72480, Note_on_c, 1, 59, 127
2, 72480, Note_on_c, 1, 68, 127
2, 72480, Note_on_c, 1, 77, 127
2, 72920, Note_off_c, 1, 49, 0
2, 72920, Note_off_c, 1, 59, 0
2, 72920, Note_off_c, 1, 68, 0
2, 72920, Note_off_c, 1, 77, 0
2, 72960, Note_on_c, 1, 49, 127
2, 72960, Note_on_c, 1, 59, 127
2, 72960, Note_on_c, 1, 68, 127
2, 72960, Note_on_c, 1, 77, 127
2, 74120, Note_off_c, 1, 49, 0
2, 74120, Note_off_c, 1, 59, 0
2, 74120, Note_off_c, 1, 68, 0
2, 74120, Note_off_c, 1, 77, 0
2, 74160, Note_on_c, 1, 42, 127
2, 74160, Note_on_c, 1, 54, 127
2, 74160, Note_on_c, 1, 63, 127
2, 74160, Note_on_c, 1, 69, 127
2, 74160, Note_on_c, 1, 73, 127
2, 74160, Note_on_c, 1, 75, 127
2, 74560, Note_off_c, 1, 42, 0
2, 74560, Note_off_c, 1, 54, 0
2, 74560, Note_off_c, 1, 63, 0
2, 74560, Note_off_c, 1, 69, 0
2, 74560, Note_off_c, 1, 73, 0
2, 74560, Note_off_c, 1, 75, 0
2, 74600, Note_on_c, 1, 42, 127
2, 74600, Note_on_c, 1, 54, 127
2, 74600, Note_on_c, 1, 63, 127
2, 74600, Note_on_c, 1, 69, 127
2, 74600, Note_on_c, 1, 73, 127
2, 74600, Note_on_c, 1, 75, 127
2, 74720, Note_off_c, 1, 42, 0
2, 74720, Note_off_c, 1, 54, 0
2, 74720, Note_on_c, 1, 55, 127
2, 74720, Note_on_c, 1, 58, 127
2, 74720, Note_on_c, 1, 62, 127
2, 74720, Note_off_c, 1, 63, 0
2, 74720, Note_on_c, 1, 67, 127
2, 74720, Note_off_c, 1, 69, 0
2, 74720, Note_on_c, 1, 70, 127
2, 74720, Note_off_c, 1, 73, 0
2, 74720, Note_off_c, 1, 75, 0
2, 74760, Note_on_c, 1, 42, 127
2, 74760, Note_on_c, 1, 54, 127
2, 74760, Note_off_c, 1, 55, 0
2, 74760, Note_off_c, 1, 58, 0
2, 74760, Note_off_c, 1, 62, 0
2, 74760, Note_on_c, 1, 63, 127
2, 74760, Note_off_c, 1, 67, 0
2, 74760, Note_on_c, 1, 69, 127
2, 74760, Note_off_c, 1, 70, 0
2, 74760, Note_on_c, 1, 73, 127
2, 74760, Note_on_c, 1, 75, 127
2, 75360, Note_off_c, 1, 42, 0
2, 75360, Note_off_c, 1, 54, 0
2, 75360, Note_off_c, 1, 63, 0
2, 75360, Note_off_c, 1, 69, 0
2, 75360, Note_off_c, 1, 73, 0
2, 75360, Note_off_c, 1, 75, 0
2, 75400, Note_on_c, 1, 42, 127
2, 75400, Note_on_c, 1, 54, 127
2, 75400, Note_on_c, 1, 57, 127
2, 75400, Note_on_c, 1, 61, 127
2, 75400, Note_on_c, 1, 66, 127
2, 76480, Note_off_c, 1, 57, 0
2, 76480, Note_off_c, 1, 61, 0
2, 76480, Note_off_c, 1, 66, 0
2, 76520, Note_off_c, 1, 42, 0
2, 76520, Note_off_c, 1, 54, 0
2, 76640, Note_on_c, 1, 44, 127
2, 76640, Note_on_c, 1, 49, 127
2, 76640, Note_on_c, 1, 59, 127
2, 76640, Note_on_c, 1, 71, 127
2, 77200, Note_off_c, 1, 59, 0
2, 77200, Note_off_c, 1, 71, 0
2, 77240, Note_off_c, 1, 44, 0
2, 77240, Note_on_c, 1, 61, 127
2, 77240, Note_on_c, 1, 68, 127
2, 77240, Note_on_c, 1, 73, 127
2, 77240, Note_on_c, 1, 77, 127
2, 77760, Note_off_c, 1, 49, 0
2, 77760, Note_off_c, 1, 61, 0
2, 77760, Note_off_c, 1, 68, 0
2, 77760, Note_off_c, 1, 73, 0
2, 77760, Note_off_c, 1, 77, 0
2, 77840, Note_on_c, 1, 48, 127
2, 77840, Note_on_c, 1, 60, 127
2, 77840, Note_on_c, 1, 62, 127
2, 77840, Note_on_c, 1, 69, 127
2, 77840, Note_on_c, 1, 74, 127
2, 78400, Note_off_c, 1, 48, 0
2, 78400, Note_off_c, 1, 60, 0
2, 78400, Note_off_c, 1, 62, 0
2, 78400, Note_off_c, 1, 69, 0
2, 78400, Note_off_c, 1, 74, 0
2, 78440, Note_on_c, 1, 64, 127
2, 78440, Note_on_c, 1, 71, 127
2, 78440, Note_on_c, 1, 83, 127
2, 78440, Note_on_c, 1, 90, 127
2, 78480, Note_on_c, 1, 41, 127
2, 78480, Note_on_c, 1, 49, 127
2, 78480, Note_on_c, 1, 53, 127
2, 78480, Note_off_c, 1, 64, 0
2, 78480, Note_off_c, 1, 71, 0
2, 78480, Note_on_c, 1, 77, 127
2, 78480, Note_off_c, 1, 83, 0
2, 78480, Note_on_c, 1, 89, 127
2, 78480, Note_off_c, 1, 90, 0
2, 78520, Note_off_c, 1, 41, 0
2, 78520, Note_off_c, 1, 49, 0
2, 78520, Note_off_c, 1, 53, 0
2, 78520, Note_on_c, 1, 57, 127
2, 78520, Note_on_c, 1, 61, 127
2, 78520, Note_on_c, 1, 66, 127
2, 78520, Note_on_c, 1, 68, 127
2, 78520, Note_off_c, 1, 77, 0
2, 78520, Note_on_c, 1, 80, 127
2, 78520, Note_on_c, 1, 81, 127
2, 78520, Note_off_c, 1, 89, 0
2, 78560, Note_off_c, 1, 57, 0
2, 78560, Note_off_c, 1, 61, 0
2, 78560, Note_off_c, 1, 66, 0
2, 78560, Note_off_c, 1, 68, 0
2, 78560, Note_off_c, 1, 80, 0
2, 78560, Note_off_c, 1, 81, 0
2, 78600, Note_on_c, 1, 49, 127
2, 78600, Note_on_c, 1, 53, 127
2, 78600, Note_on_c, 1, 59, 127
2, 78600, Note_on_c, 1, 68, 127
2, 78600, Note_on_c, 1, 73, 127
2, 78640, Note_off_c, 1, 49, 0
2, 78640, Note_off_c, 1, 53, 0
2, 78640, Note_off_c, 1, 59, 0
2, 78640, Note_on_c, 1, 63, 127
2, 78640, Note_on_c, 1, 65, 127
2, 78640, Note_off_c, 1, 68, 0
2, 78640, Note_on_c, 1, 69, 127
2, 78640, Note_off_c, 1, 73, 0
2, 78640, Note_on_c, 1, 87, 127
2, 78680, Note_off_c, 1, 63, 0
2, 78680, Note_off_c, 1, 65, 0
2, 78680, Note_off_c, 1, 69, 0
2, 78680, Note_on_c, 1, 75, 127
2, 79040, Note_off_c, 1, 75, 0
2, 79040, Note_off_c, 1, 87, 0
2, 79080, Note_on_c, 1, 54, 127
2, 79080, Note_on_c, 1, 66, 127
2, 79080, Note_on_c, 1, 73, 127
2, 79080, Note_on_c, 1, 85, 127
2, 79640, Note_off_c, 1, 54, 0
2, 79640, Note_off_c, 1, 66, 0
2, 79640, Note_off_c, 1, 73, 0
2, 79640, Note_off_c, 1, 85, 0
2, 79680, Note_on_c, 1, 51, 127
2, 79680, Note_on_c, 1, 53, 127
2, 79680, Note_on_c, 1, 60, 127
2, 79680, Note_on_c, 1, 64, 127
2, 79720, Note_off_c, 1, 51, 0
2, 79720, Note_off_c, 1, 53, 0
2, 79720, Note_on_c, 1, 58, 127
2, 79720, Note_off_c, 1, 60, 0
2, 79720, Note_on_c, 1, 62, 127
2, 79720, Note_off_c, 1, 64, 0
2, 79720, Note_on_c, 1, 67, 127
2, 79720, Note_on_c, 1, 70, 127
2, 79720, Note_on_c, 1, 74, 127
2, 79720, Note_on_c, 1, 79, 127
2, 79720, Note_on_c, 1, 82, 127
2, 79760, Note_on_c, 1, 57, 127
2, 79760, Note_off_c, 1, 58, 0
2, 79760, Note_on_c, 1, 64, 127
2, 79760, Note_off_c, 1, 67, 0
2, 79760, Note_on_c, 1, 69, 127
2, 79760, Note_off_c, 1, 70, 0
2, 79760, Note_off_c, 1, 74, 0
2, 79760, Note_off_c, 1, 79, 0
2, 79760, Note_on_c, 1, 81, 127
2, 79760, Note_off_c, 1, 82, 0
2, 79800, Note_off_c, 1, 57, 0
2, 79800, Note_on_c, 1, 58, 127
2, 79800, Note_off_c, 1, 64, 0
2, 79800, Note_on_c, 1, 67, 127
2, 79800, Note_off_c, 1, 69, 0
2, 79800, Note_on_c, 1, 70, 127
2, 79800, Note_on_c, 1, 74, 127
2, 79800, Note_on_c, 1, 79, 127
2, 79800, Note_off_c, 1, 81, 0
2, 79800, Note_on_c, 1, 82, 127
2, 80240, Note_off_c, 1, 58, 0
2, 80240, Note_off_c, 1, 62, 0
2, 80240, Note_off_c, 1, 67, 0
2, 80240, Note_off_c, 1, 70, 0
2, 80240, Note_off_c, 1, 74, 0
2, 80240, Note_off_c, 1, 79, 0
2, 80240, Note_off_c, 1, 82, 0
2, 80280, Note_on_c, 1, 39, 127
2, 80280, Note_on_c, 1, 51, 127
2, 80280, Note_on_c, 1, 79, 127
2, 80280, Note_on_c, 1, 87, 127
2, 80280, Note_on_c, 1, 91, 127
2, 80320, Note_off_c, 1, 79, 0
2, 80320, Note_off_c, 1, 87, 0
2, 80320, Note_off_c, 1, 91, 0
2, 80680, Note_off_c, 1, 39, 0
2, 80680, Note_off_c, 1, 51, 0
2, 80720, Note_on_c, 1, 39, 127
2, 80720, Note_on_c, 1, 51, 127
2, 80880, Note_off_c, 1, 39, 0
2, 80880, Note_off_c, 1, 51, 0
2, 80920, Note_on_c, 1, 75, 127
2, 80920, Note_on_c, 1, 87, 127
2, 81480, Note_off_c, 1, 75, 0
2, 81480, Note_off_c, 1, 87, 0
2, 81520, Note_on_c, 1, 53, 127
2, 81520, Note_on_c, 1, 58, 127
2, 81520, Note_on_c, 1, 61, 127
2, 81520, Note_on_c, 1, 65, 127
2, 81520, Note_on_c, 1, 73, 127
2, 81520, Note_on_c, 1, 85, 127
2, 82640, Note_on_c, 1, 38, 127
2, 82640, Note_on_c, 1, 50, 127
2, 82640, Note_off_c, 1, 53, 0
2, 82640, Note_off_c, 1, 58, 0
2, 82640, Note_off_c, 1, 61, 0
2, 82640, Note_on_c, 1, 62, 127
2, 82640, Note_off_c, 1, 65, 0
2, 82640, Note_off_c, 1, 73, 0
2, 82640, Note_on_c, 1, 74, 127
2, 82640, Note_off_c, 1, 85, 0
2, 82680, Note_off_c, 1, 38, 0
2, 82680, Note_off_c, 1, 50, 0
2, 82680, Note_off_c, 1, 62, 0
2, 82680, Note_off_c, 1, 74, 0
2, 82760, Note_on_c, 1, 42, 127
2, 82760, Note_on_c, 1, 54, 127
2, 82760, Note_on_c, 1, 66, 127
2, 82760, Note_on_c, 1, 78, 127
2, 82960, Note_off_c, 1, 42, 0
2, 82960, Note_off_c, 1, 54, 0
2, 82960, Note_off_c, 1, 66, 0
2, 82960, Note_off_c, 1, 78, 0
2, 83360, Note_on_c, 1, 73, 127
2, 83360, Note_on_c, 1, 85, 127
2, 83920, Note_off_c, 1, 73, 0
2, 83920, Note_off_c, 1, 85, 0
2, 83960, Note_on_c, 1, 53, 127
2, 83960, Note_on_c, 1, 56, 127
2, 83960, Note_on_c, 1, 60, 127
2, 83960, Note_on_c, 1, 65, 127
2, 83960, Note_on_c, 1, 72, 127
2, 83960, Note_on_c, 1, 84, 127
2, 84760, Note_off_c, 1, 53, 0
2, 84760, Note_off_c, 1, 56, 0
2, 84760, Note_off_c, 1, 60, 0
2, 84760, Note_off_c, 1, 65, 0
2, 84760, Note_off_c, 1, 72, 0
2, 84760, Note_off_c, 1, 84, 0
2, 84800, Note_on_c, 1, 53, 127
2, 84800, Note_on_c, 1, 56, 127
2, 84800, Note_on_c, 1, 60, 127
2, 84800, Note_on_c, 1, 65, 127
2, 84800, Note_on_c, 1, 72, 127
2, 84800, Note_on_c, 1, 84, 127
2, 85160, Note_off_c, 1, 53, 0
2, 85160, Note_off_c, 1, 56, 0
2, 85160, Note_off_c, 1, 60, 0
2, 85160, Note_off_c, 1, 65, 0
2, 85160, Note_off_c, 1, 72, 0
2, 85160, Note_off_c, 1, 84, 0
2, 85200, Note_on_c, 1, 41, 127
2, 85200, Note_on_c, 1, 53, 127
2, 85200, Note_on_c, 1, 65, 127
2, 85200, Note_on_c, 1, 77, 127
2, 85400, Note_off_c, 1, 41, 0
2, 85400, Note_off_c, 1, 53, 0
2, 85400, Note_off_c, 1, 65, 0
2, 85400, Note_off_c, 1, 77, 0
2, 85800, Note_on_c, 1, 75, 127
2, 85800, Note_on_c, 1, 87, 127
2, 86360, Note_off_c, 1, 75, 0
2, 86360, Note_off_c, 1, 87, 0
2, 86400, Note_on_c, 1, 53, 127
2, 86400, Note_on_c, 1, 58, 127
2, 86400, Note_on_c, 1, 61, 127
2, 86400, Note_on_c, 1, 65, 127
2, 86400, Note_on_c, 1, 73, 127
2, 86400, Note_on_c, 1, 85, 127
2, 86800, Note_off_c, 1, 53, 0
2, 86800, Note_off_c, 1, 58, 0
2, 86800, Note_off_c, 1, 61, 0
2, 86800, Note_off_c, 1, 65, 0
2, 86800, Note_off_c, 1, 73, 0
2, 86800, Note_off_c, 1, 85, 0
2, 86840, Note_on_c, 1, 53, 127
2, 86840, Note_on_c, 1, 58, 127
2, 86840, Note_on_c, 1, 61, 127
2, 86840, Note_on_c, 1, 65, 127
2, 86840, Note_on_c, 1, 73, 127
2, 86840, Note_on_c, 1, 85, 127
2, 87600, Note_off_c, 1, 53, 0
2, 87600, Note_off_c, 1, 58, 0
2, 87600, Note_off_c, 1, 61, 0
2, 87600, Note_off_c, 1, 65, 0
2, 87600, Note_off_c, 1, 73, 0
2, 87600, Note_off_c, 1, 85, 0
2, 87640, Note_on_c, 1, 56, 127
2, 87640, Note_on_c, 1, 68, 127
2, 87640, Note_on_c, 1, 75, 127
2, 87640, Note_on_c, 1, 87, 127
2, 87720, Note_off_c, 1, 75, 0
2, 87720, Note_off_c, 1, 87, 0
2, 87800, Note_off_c, 1, 56, 0
2, 87800, Note_off_c, 1, 68, 0
2, 88240, Note_on_c, 1, 56, 127
2, 88240, Note_on_c, 1, 68, 127
2, 88760, Note_off_c, 1, 56, 0
2, 88760, Note_off_c, 1, 68, 0
2, 88880, Note_on_c, 1, 53, 127
2, 88880, Note_on_c, 1, 65, 127
2, 89960, Note_on_c, 1, 52, 127
2, 89960, Note_off_c, 1, 53, 0
2, 89960, Note_on_c, 1, 64, 127
2, 89960, Note_off_c, 1, 65, 0
2, 90000, Note_off_c, 1, 52, 0
2, 90000, Note_on_c, 1, 53, 127
2, 90000, Note_off_c, 1, 64, 0
2, 90000, Note_on_c, 1, 65, 127
2, 90040, Note_off_c, 1, 53, 0
2, 90040, Note_off_c, 1, 65, 0
2, 90080, Note_on_c, 1, 54, 127
2, 90080, Note_on_c, 1, 66, 127
2, 90880, Note_off_c, 1, 54, 0
2, 90880, Note_off_c, 1, 66, 0
2, 90920, Note_on_c, 1, 54, 127
2, 90920, Note_on_c, 1, 66, 127
2, 91280, Note_off_c, 1, 54, 0
2, 91280, Note_off_c, 1, 66, 0
2, 92520, Note_on_c, 1, 46, 127
2, 92520, Note_on_c, 1, 58, 127
2, 92920, Note_off_c, 1, 46, 0
2, 92920, Note_off_c, 1, 58, 0
2, 92960, Note_on_c, 1, 46, 127
2, 92960, Note_on_c, 1, 58, 127
2, 93720, Note_off_c, 1, 46, 0
2, 93720, Note_off_c, 1, 58, 0
2, 93760, Note_on_c, 1, 54, 127
2, 93760, Note_on_c, 1, 66, 127
2, 94920, Note_off_c, 1, 54, 0
2, 94920, Note_off_c, 1, 66, 0
2, 95000, Note_on_c, 1, 54, 127
2, 95000, Note_on_c, 1, 66, 127
2, 95560, Note_off_c, 1, 54, 0
2, 95560, Note_off_c, 1, 66, 0
2, 95600, Note_on_c, 1, 54, 127
2, 95600, Note_on_c, 1, 66, 127
2, 96120, Note_off_c, 1, 54, 0
2, 96160, Note_off_c, 1, 66, 0
2, 96200, Note_on_c, 1, 53, 127
2, 96200, Note_on_c, 1, 65, 127
2, 97000, Note_off_c, 1, 53, 0
2, 97000, Note_off_c, 1, 65, 0
2, 97040, Note_on_c, 1, 53, 127
2, 97040, Note_on_c, 1, 65, 127
2, 97400, Note_off_c, 1, 53, 0
2, 97400, Note_off_c, 1, 65, 0
2, 97440, Note_on_c, 1, 51, 127
2, 97440, Note_on_c, 1, 63, 127
2, 98600, Note_off_c, 1, 51, 0
2, 98600, Note_off_c, 1, 63, 0
2, 98640, Note_on_c, 1, 52, 127
2, 98640, Note_on_c, 1, 64, 127
2, 99040, Note_off_c, 1, 52, 0
2, 99040, Note_off_c, 1, 64, 0
2, 99080, Note_on_c, 1, 52, 127
2, 99080, Note_on_c, 1, 64, 127
2, 99240, Note_off_c, 1, 52, 0
2, 99240, Note_off_c, 1, 64, 0
2, 99880, Note_on_c, 1, 41, 127
2, 99880, Note_on_c, 1, 53, 127
2, 99880, Note_on_c, 1, 65, 127
2, 101040, Note_off_c, 1, 41, 0
2, 101040, Note_off_c, 1, 53, 0
2, 101040, Note_off_c, 1, 65, 0
2, 101120, Note_on_c, 1, 33, 127
2, 101120, Note_on_c, 1, 57, 127
2, 101120, Note_on_c, 1, 69, 127
2, 102200, Note_off_c, 1, 33, 0
2, 102200, Note_on_c, 1, 37, 127
2, 102200, Note_off_c, 1, 57, 0
2, 102200, Note_on_c, 1, 61, 127
2, 102200, Note_off_c, 1, 69, 0
2, 102240, Note_off_c, 1, 37, 0
2, 102240, Note_on_c, 1, 57, 127
2, 102240, Note_off_c, 1, 61, 0
2, 102240, Note_on_c, 1, 69, 127
2, 102280, Note_off_c, 1, 57, 0
2, 102280, Note_off_c, 1, 69, 0
2, 102320, Note_on_c, 1, 44, 127
2, 102320, Note_on_c, 1, 56, 127
2, 102320, Note_on_c, 1, 60, 127
2, 102320, Note_on_c, 1, 63, 127
2, 102320, Note_on_c, 1, 68, 127
2, 103120, Note_off_c, 1, 44, 0
2, 103120, Note_off_c, 1, 56, 0
2, 103120, Note_off_c, 1, 60, 0
2, 103120, Note_off_c, 1, 63, 0
2, 103120, Note_off_c, 1, 68, 0
2, 103160, Note_on_c, 1, 44, 127
2, 103160, Note_on_c, 1, 56, 127
2, 103160, Note_on_c, 1, 60, 127
2, 103160, Note_on_c, 1, 63, 127
2, 103160, Note_on_c, 1, 68, 127
2, 103520, Note_off_c, 1, 44, 0
2, 103520, Note_off_c, 1, 56, 0
2, 103520, Note_off_c, 1, 60, 0
2, 103520, Note_off_c, 1, 63, 0
2, 103520, Note_off_c, 1, 68, 0
2, 103560, Note_on_c, 1, 44, 127
2, 103560, Note_on_c, 1, 56, 127
2, 103560, Note_on_c, 1, 60, 127
2, 103560, Note_on_c, 1, 63, 127
2, 103560, Note_on_c, 1, 68, 127
2, 104720, Note_off_c, 1, 44, 0
2, 104720, Note_off_c, 1, 56, 0
2, 104720, Note_off_c, 1, 60, 0
2, 104720, Note_off_c, 1, 63, 0
2, 104720, Note_off_c, 1, 68, 0
2, 104760, Note_on_c, 1, 49, 127
2, 104760, Note_on_c, 1, 61, 127
2, 104760, Note_on_c, 1, 65, 127
2, 104760, Note_on_c, 1, 68, 127
2, 104760, Note_on_c, 1, 73, 127
2, 105160, Note_off_c, 1, 49, 0
2, 105160, Note_off_c, 1, 61, 0
2, 105160, Note_off_c, 1, 65, 0
2, 105160, Note_off_c, 1, 68, 0
2, 105160, Note_off_c, 1, 73, 0
2, 105200, Note_on_c, 1, 49, 127
2, 105200, Note_on_c, 1, 61, 127
2, 105200, Note_on_c, 1, 65, 127
2, 105200, Note_on_c, 1, 68, 127
2, 105200, Note_on_c, 1, 73, 127
2, 107120, Note_off_c, 1, 49, 0
2, 107120, Note_off_c, 1, 61, 0
2, 107120, Note_off_c, 1, 65, 0
2, 107120, Note_off_c, 1, 68, 0
2, 107120, Note_off_c, 1, 73, 0
2, 107240, Note_on_c, 1, 67, 127
2, 107240, Note_on_c, 1, 70, 127
2, 107240, Note_on_c, 1, 73, 127
2, 107240, Note_on_c, 1, 82, 127
2, 107240, Note_on_c, 1, 94, 127
2, 108360, Note_off_c, 1, 67, 0
2, 108360, Note_off_c, 1, 70, 0
2, 108360, Note_off_c, 1, 73, 0
2, 108360, Note_off_c, 1, 82, 0
2, 108360, Note_off_c, 1, 94, 0
2, 108440, Note_on_c, 1, 38, 127
2, 108440, Note_on_c, 1, 50, 127
2, 108440, Note_on_c, 1, 60, 127
2, 108440, Note_on_c, 1, 66, 127
2, 108440, Note_on_c, 1, 69, 127
2, 109240, Note_off_c, 1, 38, 0
2, 109240, Note_off_c, 1, 50, 0
2, 109240, Note_off_c, 1, 60, 0
2, 109240, Note_off_c, 1, 66, 0
2, 109240, Note_off_c, 1, 69, 0
2, 109280, Note_on_c, 1, 38, 127
2, 109280, Note_on_c, 1, 50, 127
2, 109280, Note_on_c, 1, 60, 127
2, 109280, Note_on_c, 1, 66, 127
2, 109280, Note_on_c, 1, 69, 127
2, 109640, Note_off_c, 1, 38, 0
2, 109640, Note_off_c, 1, 50, 0
2, 109640, Note_off_c, 1, 60, 0
2, 109640, Note_off_c, 1, 66, 0
2, 109640, Note_off_c, 1, 69, 0
2, 109680, Note_on_c, 1, 38, 127
2, 109680, Note_on_c, 1, 50, 127
2, 109680, Note_on_c, 1, 60, 127
2, 109680, Note_on_c, 1, 66, 127
2, 109680, Note_on_c, 1, 69, 127
2, 110840, Note_off_c, 1, 38, 0
2, 110840, Note_off_c, 1, 50, 0
2, 110840, Note_off_c, 1, 60, 0
2, 110840, Note_off_c, 1, 66, 0
2, 110840, Note_off_c, 1, 69, 0
2, 110880, Note_on_c, 1, 43, 127
2, 110880, Note_on_c, 1, 50, 127
2, 110880, Note_on_c, 1, 59, 127
2, 110880, Note_on_c, 1, 67, 127
2, 111280, Note_off_c, 1, 43, 0
2, 111280, Note_off_c, 1, 50, 0
2, 111280, Note_off_c, 1, 59, 0
2, 111280, Note_off_c, 1, 67, 0
2, 111320, Note_on_c, 1, 43, 127
2, 111320, Note_on_c, 1, 50, 127
2, 111320, Note_on_c, 1, 59, 127
2, 111320, Note_on_c, 1, 67, 127
2, 111920, Note_off_c, 1, 43, 0
2, 111920, Note_off_c, 1, 50, 0
2, 111920, Note_off_c, 1, 59, 0
2, 111920, Note_off_c, 1, 67, 0
2, 112120, Note_on_c, 1, 43, 127
2, 112120, Note_on_c, 1, 50, 127
2, 112120, Note_on_c, 1, 59, 127
2, 112120, Note_on_c, 1, 67, 127
2, 113200, Note_off_c, 1, 43, 0
2, 113200, Note_off_c, 1, 50, 0
2, 113200, Note_off_c, 1, 59, 0
2, 113200, Note_off_c, 1, 67, 0
2, 113360, Note_on_c, 1, 43, 127
2, 113360, Note_on_c, 1, 50, 127
2, 113360, Note_on_c, 1, 59, 127
2, 113360, Note_on_c, 1, 67, 127
2, 114360, Note_off_c, 1, 43, 0
2, 114360, Note_off_c, 1, 50, 0
2, 114360, Note_off_c, 1, 59, 0
2, 114360, Note_off_c, 1, 67, 0
2, 114560, Note_on_c, 1, 43, 127
2, 114560, Note_on_c, 1, 50, 127
2, 114560, Note_on_c, 1, 59, 127
2, 114560, Note_on_c, 1, 67, 127
2, 114960, Note_off_c, 1, 67, 0
2, 114960, Note_on_c, 1, 71, 127
2, 115000, Note_on_c, 1, 67, 127
2, 115000, Note_off_c, 1, 71, 0
2, 115080, Note_off_c, 1, 43, 0
2, 115080, Note_off_c, 1, 50, 0
2, 115080, Note_off_c, 1, 59, 0
2, 115080, Note_off_c, 1, 67, 0
2, 115160, Note_on_c, 1, 43, 127
2, 115160, Note_on_c, 1, 50, 127
2, 115160, Note_on_c, 1, 59, 127
2, 115160, Note_on_c, 1, 67, 127
2, 115360, Note_off_c, 1, 43, 0
2, 115360, Note_off_c, 1, 50, 0
2, 115360, Note_off_c, 1, 59, 0
2, 115360, Note_off_c, 1, 67, 0
2, 115400, Note_on_c, 1, 43, 127
2, 115400, Note_on_c, 1, 50, 127
2, 115400, Note_on_c, 1, 59, 127
2, 115400, Note_on_c, 1, 67, 127
2, 115720, Note_off_c, 1, 43, 0
2, 115720, Note_off_c, 1, 50, 0
2, 115720, Note_off_c, 1, 59, 0
2, 115720, Note_off_c, 1, 67, 0
2, 115800, Note_on_c, 1, 38, 127
2, 115800, Note_on_c, 1, 50, 127
2, 115800, Note_on_c, 1, 57, 127
2, 115800, Note_on_c, 1, 62, 127
2, 115800, Note_on_c, 1, 66, 127
2, 116920, Note_off_c, 1, 38, 0
2, 116920, Note_off_c, 1, 50, 0
2, 116920, Note_off_c, 1, 57, 0
2, 116920, Note_off_c, 1, 62, 0
2, 116920, Note_off_c, 1, 66, 0
2, 117000, Note_on_c, 1, 38, 127
2, 117000, Note_on_c, 1, 50, 127
2, 117000, Note_on_c, 1, 57, 127
2, 117000, Note_on_c, 1, 62, 127
2, 117000, Note_on_c, 1, 66, 127
2, 117400, Note_off_c, 1, 38, 0
2, 117400, Note_off_c, 1, 50, 0
2, 117400, Note_off_c, 1, 57, 0
2, 117400, Note_off_c, 1, 62, 0
2, 117400, Note_off_c, 1, 66, 0
2, 117440, Note_on_c, 1, 38, 127
2, 117440, Note_on_c, 1, 50, 127
2, 117440, Note_on_c, 1, 57, 127
2, 117440, Note_on_c, 1, 62, 127
2, 117440, Note_on_c, 1, 66, 127
2, 117560, Note_off_c, 1, 38, 0
2, 117560, Note_off_c, 1, 50, 0
2, 117560, Note_off_c, 1, 57, 0
2, 117560, Note_off_c, 1, 62, 0
2, 117560, Note_off_c, 1, 66, 0
2, 117640, Note_on_c, 1, 38, 127
2, 117640, Note_on_c, 1, 50, 127
2, 117640, Note_on_c, 1, 57, 127
2, 117640, Note_on_c, 1, 62, 127
2, 117640, Note_on_c, 1, 66, 127
2, 118160, Note_off_c, 1, 38, 0
2, 118160, Note_off_c, 1, 50, 0
2, 118160, Note_off_c, 1, 57, 0
2, 118160, Note_off_c, 1, 62, 0
2, 118160, Note_off_c, 1, 66, 0
2, 118240, Note_on_c, 1, 38, 127
2, 118240, Note_on_c, 1, 50, 127
2, 118240, Note_on_c, 1, 57, 127
2, 118240, Note_on_c, 1, 62, 127
2, 118240, Note_on_c, 1, 66, 127
2, 119240, Note_off_c, 1, 66, 0
2, 119280, Note_on_c, 1, 66, 127
2, 119320, Note_off_c, 1, 50, 0
2, 119320, Note_off_c, 1, 57, 0
2, 119320, Note_off_c, 1, 62, 0
2, 119320, Note_off_c, 1, 66, 0
2, 119360, Note_off_c, 1, 38, 0
2, 119480, Note_on_c, 1, 38, 127
2, 119480, Note_on_c, 1, 50, 127
2, 119480, Note_on_c, 1, 57, 127
2, 119480, Note_on_c, 1, 62, 127
2, 119480, Note_on_c, 1, 66, 127
2, 120000, Note_off_c, 1, 38, 0
2, 120000, Note_off_c, 1, 50, 0
2, 120000, Note_off_c, 1, 57, 0
2, 120000, Note_off_c, 1, 62, 0
2, 120000, Note_off_c, 1, 66, 0
2, 120040, End_track
3, 0, Start_track
3, 0, Title_t, "MIDI"
3, 1536, End_track
0, 0, End_of_file
