0, 0, Header, 1, 3, 192
1, 0, Start_track
1, 0, Time_signature, 4, 2, 24, 8
1, 0, Tempo, 500000
1, 120040, End_track
2, 0, Start_track
2, 0, Text_t, "random instrument: random person i dunno whatev"
2, 0, Title_t, "Track 1"
2, 0, Note_on_c, 1, 40, 127
2, 0, Note_on_c, 1, 48, 127
2, 0, Note_on_c, 1, 56, 127
2, 0, Note_on_c, 1, 60, 127
2, 160, Note_off_c, 1, 40, 0
2, 160, Note_off_c, 1, 48, 0
2, 160, Note_off_c, 1, 56, 0
2, 160, Note_off_c, 1, 60, 0
2, 16920, Note_on_c, 1, 57, 127
2, 16920, Note_on_c, 1, 73, 127
2, 17080, Note_off_c, 1, 57, 0
2, 17080, Note_off_c, 1, 73, 0
2, 17120, Note_on_c, 1, 64, 127
2, 17280, Note_off_c, 1, 64, 0
2, 17320, Note_on_c, 1, 57, 127
2, 17320, Note_on_c, 1, 73, 127
2, 17440, Note_off_c, 1, 57, 0
2, 17440, Note_off_c, 1, 73, 0
2, 17480, Note_on_c, 1, 61, 127
2, 17480, Note_on_c, 1, 76, 127
2, 17640, Note_off_c, 1, 61, 0
2, 17640, Note_off_c, 1, 76, 0
2, 17680, Note_on_c, 1, 62, 127
2, 17680, Note_on_c, 1, 78, 127
2, 17840, Note_off_c, 1, 62, 0
2, 17840, Note_off_c, 1, 78, 0
2, 17880, Note_on_c, 1, 61, 127
2, 17880, Note_on_c, 1, 76, 127
2, 18000, Note_off_c, 1, 61, 0
2, 18000, Note_off_c, 1, 76, 0
2, 18040, Note_on_c, 1, 64, 127
2, 18040, Note_on_c, 1, 73, 127
2, 18200, Note_off_c, 1, 64, 0
2, 18200, Note_off_c, 1, 73, 0
2, 18240, Note_on_c, 1, 62, 127
2, 18240, Note_on_c, 1, 78, 127
2, 18360, Note_off_c, 1, 62, 0
2, 18360, Note_off_c, 1, 78, 0
2, 18400, Note_on_c, 1, 61, 127
2, 18400, Note_on_c, 1, 76, 127
2, 18560, Note_off_c, 1, 61, 0
2, 18600, Note_on_c, 1, 64, 127
2, 18720, Note_off_c, 1, 64, 0
2, 18720, Note_off_c, 1, 76, 0
2, 18760, Note_on_c, 1, 68, 127
2, 18760, Note_on_c, 1, 76, 127
2, 18840, Note_off_c, 1, 68, 0
2, 18840, Note_off_c, 1, 76, 0
2, 18880, Note_on_c, 1, 68, 127
2, 18880, Note_on_c, 1, 76, 127
2, 18920, Note_off_c, 1, 68, 0
2, 18960, Note_on_c, 1, 64, 127
2, 19120, Note_off_c, 1, 64, 0
2, 19120, Note_off_c, 1, 76, 0
2, 19160, Note_on_c, 1, 52, 127
2, 19160, Note_on_c, 1, 73, 127
2, 19280, Note_off_c, 1, 52, 0
2, 19320, Note_on_c, 1, 64, 127
2, 19480, Note_off_c, 1, 64, 0
2, 19480, Note_off_c, 1, 73, 0
2, 19520, Note_on_c, 1, 61, 127
2, 19520, Note_on_c, 1, 76, 127
2, 19640, Note_off_c, 1, 61, 0
2, 19640, Note_off_c, 1, 76, 0
2, 19680, Note_on_c, 1, 64, 127
2, 19680, Note_on_c, 1, 75, 127
2, 19840, Note_off_c, 1, 64, 0
2, 19840, Note_off_c, 1, 75, 0
2, 19880, Note_on_c, 1, 57, 127
2, 19880, Note_on_c, 1, 73, 127
2, 20000, Note_off_c, 1, 57, 0
2, 20040, Note_on_c, 1, 64, 127
2, 20200, Note_off_c, 1, 64, 0
2, 20200, Note_off_c, 1, 73, 0
2, 20240, Note_on_c, 1, 61, 127
2, 20240, Note_on_c, 1, 76, 127
2, 20360, Note_off_c, 1, 61, 0
2, 20400, Note_on_c, 1, 64, 127
2, 20560, Note_off_c, 1, 64, 0
2, 20600, Note_on_c, 1, 61, 127
2, 20720, Note_off_c, 1, 61, 0
2, 20760, Note_on_c, 1, 64, 127
2, 20920, Note_off_c, 1, 64, 0
2, 20920, Note_off_c, 1, 76, 0
2, 21000, Note_on_c, 1, 61, 127
2, 21120, Note_off_c, 1, 61, 0
2, 21160, Note_on_c, 1, 64, 127
2, 21280, Note_off_c, 1, 64, 0
2, 21320, Note_on_c, 1, 59, 127
2, 21320, Note_on_c, 1, 76, 127
2, 21480, Note_off_c, 1, 59, 0
2, 21520, Note_on_c, 1, 64, 127
2, 21680, Note_off_c, 1, 64, 0
2, 21720, Note_on_c, 1, 56, 127
2, 21840, Note_off_c, 1, 56, 0
2, 21880, Note_on_c, 1, 61, 127
2, 22040, Note_off_c, 1, 61, 0
2, 22040, Note_off_c, 1, 76, 0
2, 22080, Note_on_c, 1, 64, 127
2, 22080, Note_on_c, 1, 73, 127
2, 22200, Note_off_c, 1, 64, 0
2, 22240, Note_on_c, 1, 57, 127
2, 22400, Note_off_c, 1, 57, 0
2, 22400, Note_off_c, 1, 73, 0
2, 22440, Note_on_c, 1, 64, 127
2, 22440, Note_on_c, 1, 69, 127
2, 22560, Note_off_c, 1, 64, 0
2, 22560, Note_off_c, 1, 69, 0
2, 22600, Note_on_c, 1, 57, 127
2, 22760, Note_off_c, 1, 57, 0
2, 22800, Note_on_c, 1, 52, 127
2, 22800, Note_on_c, 1, 73, 127
2, 22920, Note_off_c, 1, 52, 0
2, 22960, Note_on_c, 1, 57, 127
2, 23040, Note_off_c, 1, 57, 0
2, 23040, Note_off_c, 1, 73, 0
2, 23080, Note_on_c, 1, 57, 127
2, 23080, Note_on_c, 1, 73, 127
2, 23160, Note_off_c, 1, 57, 0
2, 23160, Note_off_c, 1, 73, 0
2, 23200, Note_on_c, 1, 64, 127
2, 23200, Note_on_c, 1, 76, 127
2, 23320, Note_off_c, 1, 64, 0
2, 23320, Note_off_c, 1, 76, 0
2, 23360, Note_on_c, 1, 57, 127
2, 23520, Note_off_c, 1, 57, 0
2, 23560, Note_on_c, 1, 64, 127
2, 23680, Note_off_c, 1, 64, 0
2, 23720, Note_on_c, 1, 61, 127
2, 23880, Note_off_c, 1, 61, 0
2, 23920, Note_on_c, 1, 64, 127
2, 24040, Note_off_c, 1, 64, 0
2, 24080, Note_on_c, 1, 57, 127
2, 24080, Note_on_c, 1, 73, 127
2, 24240, Note_off_c, 1, 57, 0
2, 24240, Note_off_c, 1, 73, 0
2, 24280, Note_on_c, 1, 64, 127
2, 24280, Note_on_c, 1, 76, 127
2, 24400, Note_off_c, 1, 64, 0
2, 24400, Note_off_c, 1, 76, 0
2, 24440, Note_on_c, 1, 57, 127
2, 24440, Note_on_c, 1, 73, 127
2, 24600, Note_off_c, 1, 57, 0
2, 24600, Note_off_c, 1, 73, 0
2, 24640, Note_on_c, 1, 64, 127
2, 24760, Note_off_c, 1, 64, 0
2, 24800, Note_on_c, 1, 57, 127
2, 24800, Note_on_c, 1, 76, 127
2, 24960, Note_off_c, 1, 57, 0
2, 24960, Note_off_c, 1, 76, 0
2, 25040, Note_on_c, 1, 64, 127
2, 25040, Note_on_c, 1, 76, 127
2, 25160, Note_off_c, 1, 64, 0
2, 25160, Note_off_c, 1, 76, 0
2, 25200, Note_on_c, 1, 55, 127
2, 25360, Note_off_c, 1, 55, 0
2, 25400, Note_on_c, 1, 61, 127
2, 25520, Note_off_c, 1, 61, 0
2, 25560, Note_on_c, 1, 52, 127
2, 25560, Note_on_c, 1, 76, 127
2, 25720, Note_off_c, 1, 52, 0
2, 25720, Note_off_c, 1, 76, 0
2, 25760, Note_on_c, 1, 59, 127
2, 25760, Note_on_c, 1, 74, 127
2, 25880, Note_off_c, 1, 59, 0
2, 25880, Note_off_c, 1, 74, 0
2, 25920, Note_on_c, 1, 64, 127
2, 26080, Note_off_c, 1, 64, 0
2, 26120, Note_on_c, 1, 68, 127
2, 26240, Note_off_c, 1, 68, 0
2, 26280, Note_on_c, 1, 64, 127
2, 26440, Note_off_c, 1, 64, 0
2, 26480, Note_on_c, 1, 61, 127
2, 26600, Note_off_c, 1, 61, 0
2, 26640, Note_on_c, 1, 64, 127
2, 26800, Note_off_c, 1, 64, 0
2, 26840, Note_on_c, 1, 68, 127
2, 27000, Note_off_c, 1, 68, 0
2, 27080, Note_on_c, 1, 80, 127
2, 27200, Note_off_c, 1, 80, 0
2, 27240, Note_on_c, 1, 76, 127
2, 27400, Note_off_c, 1, 76, 0
2, 27440, Note_on_c, 1, 80, 127
2, 27600, Note_off_c, 1, 80, 0
2, 27640, Note_on_c, 1, 78, 127
2, 27760, Note_off_c, 1, 78, 0
2, 27800, Note_on_c, 1, 52, 127
2, 27800, Note_on_c, 1, 80, 127
2, 27960, Note_off_c, 1, 52, 0
2, 27960, Note_off_c, 1, 80, 0
2, 28000, Note_on_c, 1, 57, 127
2, 28000, Note_on_c, 1, 73, 127
2, 28120, Note_off_c, 1, 57, 0
2, 28120, Note_off_c, 1, 73, 0
2, 28160, Note_on_c, 1, 64, 127
2, 28160, Note_on_c, 1, 80, 127
2, 28320, Note_off_c, 1, 64, 0
2, 28320, Note_off_c, 1, 80, 0
2, 28360, Note_on_c, 1, 69, 127
2, 28480, Note_off_c, 1, 69, 0
2, 28520, Note_on_c, 1, 80, 127
2, 28680, Note_off_c, 1, 80, 0
2, 28720, Note_on_c, 1, 81, 127
2, 28840, Note_off_c, 1, 81, 0
2, 28880, Note_on_c, 1, 52, 127
2, 28880, Note_on_c, 1, 80, 127
2, 29040, Note_off_c, 1, 52, 0
2, 29040, Note_off_c, 1, 80, 0
2, 29080, Note_on_c, 1, 62, 127
2, 29080, Note_on_c, 1, 78, 127
2, 29120, Note_off_c, 1, 62, 0
2, 29120, Note_off_c, 1, 78, 0
2, 29160, Note_on_c, 1, 62, 127
2, 29160, Note_on_c, 1, 78, 127
2, 29240, Note_off_c, 1, 62, 0
2, 29240, Note_off_c, 1, 78, 0
2, 29280, Note_on_c, 1, 59, 127
2, 29440, Note_off_c, 1, 59, 0
2, 29480, Note_on_c, 1, 68, 127
2, 29600, Note_off_c, 1, 68, 0
2, 29640, Note_on_c, 1, 45, 127
2, 29640, Note_on_c, 1, 76, 127
2, 29800, Note_off_c, 1, 45, 0
2, 29800, Note_off_c, 1, 76, 0
2, 29840, Note_on_c, 1, 68, 127
2, 29960, Note_off_c, 1, 68, 0
2, 30000, Note_on_c, 1, 57, 127
2, 30000, Note_on_c, 1, 81, 127
2, 30160, Note_off_c, 1, 57, 0
2, 30160, Note_off_c, 1, 81, 0
2, 30200, Note_on_c, 1, 68, 127
2, 30320, Note_off_c, 1, 68, 0
2, 30360, Note_on_c, 1, 81, 127
2, 30520, Note_off_c, 1, 81, 0
2, 30560, Note_on_c, 1, 73, 127
2, 30680, Note_off_c, 1, 73, 0
2, 30720, Note_on_c, 1, 54, 127
2, 30720, Note_on_c, 1, 81, 127
2, 30880, Note_off_c, 1, 54, 0
2, 30880, Note_off_c, 1, 81, 0
2, 30920, Note_on_c, 1, 66, 127
2, 31040, Note_off_c, 1, 66, 0
2, 31080, Note_on_c, 1, 59, 127
2, 31080, Note_on_c, 1, 81, 127
2, 31240, Note_off_c, 1, 59, 0
2, 31240, Note_off_c, 1, 81, 0
2, 31320, Note_on_c, 1, 66, 127
2, 31440, Note_off_c, 1, 66, 0
2, 31480, Note_on_c, 1, 61, 127
2, 31480, Note_on_c, 1, 81, 127
2, 31600, Note_off_c, 1, 61, 0
2, 31600, Note_off_c, 1, 81, 0
2, 31640, Note_on_c, 1, 66, 127
2, 31800, Note_off_c, 1, 66, 0
2, 31840, Note_on_c, 1, 56, 127
2, 31840, Note_on_c, 1, 78, 127
2, 31960, Note_off_c, 1, 56, 0
2, 31960, Note_off_c, 1, 78, 0
2, 32000, Note_on_c, 1, 64, 127
2, 32000, Note_on_c, 1, 76, 127
2, 32160, Note_off_c, 1, 64, 0
2, 32160, Note_off_c, 1, 76, 0
2, 32200, Note_on_c, 1, 68, 127
2, 32320, Note_off_c, 1, 68, 0
2, 32360, Note_on_c, 1, 78, 127
2, 32520, Note_off_c, 1, 78, 0
2, 32560, Note_on_c, 1, 45, 127
2, 32560, Note_on_c, 1, 76, 127
2, 32680, Note_off_c, 1, 76, 0
2, 32720, Note_on_c, 1, 78, 127
2, 32880, Note_off_c, 1, 45, 0
2, 32880, Note_off_c, 1, 78, 0
2, 32920, Note_on_c, 1, 76, 127
2, 33040, Note_off_c, 1, 76, 0
2, 33080, Note_on_c, 1, 74, 127
2, 33240, Note_off_c, 1, 74, 0
2, 33280, Note_on_c, 1, 45, 127
2, 33280, Note_on_c, 1, 76, 127
2, 33400, Note_off_c, 1, 45, 0
2, 33400, Note_off_c, 1, 76, 0
2, 33440, Note_on_c, 1, 45, 127
2, 33480, Note_on_c, 1, 80, 127
2, 33640, Note_off_c, 1, 45, 0
2, 33640, Note_off_c, 1, 80, 0
2, 33680, Note_on_c, 1, 57, 127
2, 33680, Note_on_c, 1, 79, 127
2, 33800, Note_off_c, 1, 57, 0
2, 33800, Note_off_c, 1, 79, 0
2, 33840, Note_on_c, 1, 62, 127
2, 33840, Note_on_c, 1, 78, 127
2, 34000, Note_off_c, 1, 62, 0
2, 34000, Note_off_c, 1, 78, 0
2, 34040, Note_on_c, 1, 65, 127
2, 34160, Note_off_c, 1, 65, 0
2, 34200, Note_on_c, 1, 62, 127
2, 34360, Note_off_c, 1, 62, 0
2, 34400, Note_on_c, 1, 57, 127
2, 34400, Note_on_c, 1, 77, 127
2, 34520, Note_off_c, 1, 57, 0
2, 34560, Note_on_c, 1, 62, 127
2, 34720, Note_off_c, 1, 62, 0
2, 34760, Note_on_c, 1, 65, 127
2, 34760, Note_on_c, 1, 76, 127
2, 34760, Note_off_c, 1, 77, 0
2, 34880, Note_off_c, 1, 65, 0
2, 34920, Note_on_c, 1, 69, 127
2, 35080, Note_off_c, 1, 69, 0
2, 35080, Note_off_c, 1, 76, 0
2, 35120, Note_on_c, 1, 56, 127
2, 35120, Note_on_c, 1, 77, 127
2, 35240, Note_off_c, 1, 56, 0
2, 35280, Note_on_c, 1, 65, 127
2, 35440, Note_off_c, 1, 65, 0
2, 35480, Note_off_c, 1, 77, 0
2, 35520, Note_on_c, 1, 62, 127
2, 35520, Note_on_c, 1, 77, 127
2, 35640, Note_off_c, 1, 62, 0
2, 35680, Note_on_c, 1, 65, 127
2, 35840, Note_off_c, 1, 65, 0
2, 35840, Note_off_c, 1, 77, 0
2, 35880, Note_on_c, 1, 51, 127
2, 36000, Note_off_c, 1, 51, 0
2, 36040, Note_on_c, 1, 57, 127
2, 36200, Note_off_c, 1, 57, 0
2, 36240, Note_on_c, 1, 65, 127
2, 36360, Note_off_c, 1, 65, 0
2, 36400, Note_on_c, 1, 74, 127
2, 36560, Note_off_c, 1, 74, 0
2, 36600, Note_on_c, 1, 59, 127
2, 36600, Note_on_c, 1, 74, 127
2, 36920, Note_off_c, 1, 59, 0
2, 36920, Note_off_c, 1, 74, 0
2, 36960, Note_on_c, 1, 79, 127
2, 37120, Note_off_c, 1, 79, 0
2, 37160, Note_on_c, 1, 80, 127
2, 37280, Note_off_c, 1, 80, 0
2, 37320, Note_on_c, 1, 48, 127
2, 37320, Note_on_c, 1, 76, 127
2, 37480, Note_off_c, 1, 48, 0
2, 37520, Note_on_c, 1, 60, 127
2, 37640, Note_off_c, 1, 60, 0
2, 37640, Note_off_c, 1, 76, 0
2, 37680, Note_on_c, 1, 76, 127
2, 37720, Note_on_c, 1, 57, 127
2, 37880, Note_off_c, 1, 57, 0
2, 37920, Note_on_c, 1, 60, 127
2, 38040, Note_off_c, 1, 60, 0
2, 38080, Note_on_c, 1, 64, 127
2, 38240, Note_off_c, 1, 64, 0
2, 38280, Note_on_c, 1, 67, 127
2, 38400, Note_off_c, 1, 67, 0
2, 38400, Note_off_c, 1, 76, 0
2, 38440, Note_on_c, 1, 77, 127
2, 38640, Note_on_c, 1, 50, 127
2, 38760, Note_off_c, 1, 50, 0
2, 38800, Note_on_c, 1, 59, 127
2, 38960, Note_off_c, 1, 59, 0
2, 39000, Note_on_c, 1, 55, 127
2, 39120, Note_off_c, 1, 55, 0
2, 39160, Note_on_c, 1, 59, 127
2, 39320, Note_off_c, 1, 59, 0
2, 39320, Note_off_c, 1, 77, 0
2, 39360, Note_on_c, 1, 48, 127
2, 39360, Note_on_c, 1, 76, 127
2, 39480, Note_off_c, 1, 48, 0
2, 39520, Note_on_c, 1, 55, 127
2, 39680, Note_off_c, 1, 55, 0
2, 39720, Note_off_c, 1, 76, 0
2, 39760, Note_on_c, 1, 60, 127
2, 39760, Note_on_c, 1, 76, 127
2, 39880, Note_off_c, 1, 60, 0
2, 39920, Note_on_c, 1, 64, 127
2, 40080, Note_off_c, 1, 64, 0
2, 40080, Note_off_c, 1, 76, 0
2, 40120, Note_on_c, 1, 60, 127
2, 40800, Note_off_c, 1, 60, 0
2, 40840, Note_on_c, 1, 68, 127
2, 41160, Note_off_c, 1, 68, 0
2, 41200, Note_on_c, 1, 74, 127
2, 41520, Note_off_c, 1, 74, 0
2, 41560, Note_on_c, 1, 72, 127
2, 41760, Note_off_c, 1, 72, 0
2, 41800, Note_on_c, 1, 72, 127
2, 41960, Note_on_c, 1, 52, 127
2, 42280, Note_off_c, 1, 52, 0
2, 42280, Note_off_c, 1, 72, 0
2, 42320, Note_on_c, 1, 60, 127
2, 42320, Note_on_c, 1, 76, 127
2, 42640, Note_off_c, 1, 60, 0
2, 42640, Note_off_c, 1, 76, 0
2, 42680, Note_on_c, 1, 64, 127
2, 42680, Note_on_c, 1, 79, 127
2, 43000, Note_off_c, 1, 64, 0
2, 43000, Note_off_c, 1, 79, 0
2, 43040, Note_on_c, 1, 55, 127
2, 43040, Note_on_c, 1, 59, 127
2, 43040, Note_on_c, 1, 79, 127
2, 43720, Note_off_c, 1, 79, 0
2, 43760, Note_off_c, 1, 55, 0
2, 43760, Note_off_c, 1, 59, 0
2, 43800, Note_on_c, 1, 55, 127
2, 43800, Note_on_c, 1, 59, 127
2, 43800, Note_on_c, 1, 74, 127
2, 43920, Note_off_c, 1, 74, 0
2, 44120, Note_off_c, 1, 55, 0
2, 44120, Note_off_c, 1, 59, 0
2, 44160, Note_on_c, 1, 72, 127
2, 44480, Note_off_c, 1, 72, 0
2, 44520, Note_on_c, 1, 74, 127
2, 44840, Note_off_c, 1, 74, 0
2, 44880, Note_on_c, 1, 72, 127
2, 45200, Note_off_c, 1, 72, 0
2, 45240, Note_on_c, 1, 71, 127
2, 45560, Note_off_c, 1, 71, 0
2, 45600, Note_on_c, 1, 67, 127
2, 45800, Note_off_c, 1, 67, 0
2, 45840, Note_on_c, 1, 67, 127
2, 45960, Note_off_c, 1, 67, 0
2, 46000, Note_on_c, 1, 72, 127
2, 46320, Note_off_c, 1, 72, 0
2, 46360, Note_on_c, 1, 76, 127
2, 46680, Note_off_c, 1, 76, 0
2, 46720, Note_on_c, 1, 79, 127
2, 47040, Note_off_c, 1, 79, 0
2, 47080, Note_on_c, 1, 78, 127
2, 47400, Note_off_c, 1, 78, 0
2, 47440, Note_on_c, 1, 79, 127
2, 47760, Note_off_c, 1, 79, 0
2, 47800, Note_on_c, 1, 83, 127
2, 47960, Note_off_c, 1, 83, 0
2, 48000, Note_on_c, 1, 83, 127
2, 48160, Note_off_c, 1, 83, 0
2, 48200, Note_on_c, 1, 84, 127
2, 48520, Note_off_c, 1, 84, 0
2, 48560, Note_on_c, 1, 83, 127
2, 48920, Note_off_c, 1, 83, 0
2, 48920, Note_on_c, 1, 84, 127
2, 49080, Note_off_c, 1, 84, 0
2, 67200, Note_on_c, 1, 52, 127
2, 67560, Note_off_c, 1, 52, 0
2, 67600, Note_on_c, 1, 57, 127
2, 67960, Note_off_c, 1, 57, 0
2, 68000, Note_on_c, 1, 52, 127
2, 68320, Note_off_c, 1, 52, 0
2, 68360, Note_on_c, 1, 45, 127
2, 68680, Note_off_c, 1, 45, 0
2, 68720, Note_on_c, 1, 40, 127
2, 69040, Note_off_c, 1, 40, 0
2, 69120, Note_on_c, 1, 46, 127
2, 69480, Note_off_c, 1, 46, 0
2, 69520, Note_on_c, 1, 45, 127
2, 69840, Note_off_c, 1, 45, 0
2, 69880, Note_on_c, 1, 45, 127
2, 70200, Note_off_c, 1, 45, 0
2, 70240, Note_on_c, 1, 48, 127
2, 70600, Note_off_c, 1, 48, 0
2, 70640, Note_on_c, 1, 52, 127
2, 70960, Note_off_c, 1, 52, 0
2, 71000, Note_on_c, 1, 57, 127
2, 71200, Note_off_c, 1, 57, 0
2, 71240, Note_on_c, 1, 57, 127
2, 71360, Note_off_c, 1, 57, 0
2, 71400, Note_on_c, 1, 57, 127
2, 71720, Note_off_c, 1, 57, 0
2, 71760, Note_on_c, 1, 60, 127
2, 72120, Note_off_c, 1, 60, 0
2, 72160, Note_on_c, 1, 64, 127
2, 72480, Note_off_c, 1, 64, 0
2, 72520, Note_on_c, 1, 60, 127
2, 72840, Note_off_c, 1, 60, 0
2, 72880, Note_on_c, 1, 64, 127
2, 73200, Note_off_c, 1, 64, 0
2, 73240, Note_on_c, 1, 60, 127
2, 73480, Note_off_c, 1, 60, 0
2, 73520, Note_on_c, 1, 60, 127
2, 73640, Note_off_c, 1, 60, 0
2, 73680, Note_on_c, 1, 57, 127
2, 74000, Note_off_c, 1, 57, 0
2, 74040, Note_on_c, 1, 52, 127
2, 74400, Note_off_c, 1, 52, 0
2, 74440, Note_on_c, 1, 57, 127
2, 74760, Note_off_c, 1, 57, 0
2, 74800, Note_on_c, 1, 52, 127
2, 75120, Note_off_c, 1, 52, 0
2, 75160, Note_on_c, 1, 54, 127
2, 75520, Note_off_c, 1, 54, 0
2, 75600, Note_on_c, 1, 52, 127
2, 75920, Note_off_c, 1, 52, 0
2, 75960, Note_on_c, 1, 45, 127
2, 76280, Note_off_c, 1, 45, 0
2, 76320, Note_on_c, 1, 49, 127
2, 76680, Note_off_c, 1, 49, 0
2, 76720, Note_on_c, 1, 40, 127
2, 77040, Note_off_c, 1, 40, 0
2, 77080, Note_on_c, 1, 45, 127
2, 77400, Note_off_c, 1, 45, 0
2, 77440, Note_on_c, 1, 52, 127
2, 77640, Note_off_c, 1, 52, 0
2, 77680, Note_on_c, 1, 52, 127
2, 77800, Note_off_c, 1, 52, 0
2, 77840, Note_on_c, 1, 57, 127
2, 78160, Note_off_c, 1, 57, 0
2, 78200, Note_on_c, 1, 57, 127
2, 78520, Note_off_c, 1, 57, 0
2, 78560, Note_on_c, 1, 61, 127
2, 78880, Note_off_c, 1, 61, 0
2, 78920, Note_on_c, 1, 64, 127
2, 79240, Note_off_c, 1, 64, 0
2, 79280, Note_on_c, 1, 69, 127
2, 79600, Note_off_c, 1, 69, 0
2, 79640, Note_on_c, 1, 40, 127
2, 79880, Note_off_c, 1, 40, 0
2, 79920, Note_on_c, 1, 40, 127
2, 80000, Note_off_c, 1, 40, 0
2, 93920, Note_on_c, 1, 62, 127
2, 93920, Note_on_c, 1, 74, 127
2, 94240, Note_off_c, 1, 62, 0
2, 94240, Note_off_c, 1, 74, 0
2, 94280, Note_on_c, 1, 62, 127
2, 94280, Note_on_c, 1, 74, 127
2, 94600, Note_off_c, 1, 62, 0
2, 94600, Note_off_c, 1, 74, 0
2, 94640, Note_on_c, 1, 67, 127
2, 94640, Note_on_c, 1, 79, 127
2, 95520, Note_off_c, 1, 67, 0
2, 95520, Note_off_c, 1, 79, 0
2, 95560, Note_on_c, 1, 66, 127
2, 95560, Note_on_c, 1, 78, 127
2, 96280, Note_off_c, 1, 66, 0
2, 96280, Note_off_c, 1, 78, 0
2, 96320, Note_on_c, 1, 66, 127
2, 96320, Note_on_c, 1, 78, 127
2, 98360, Note_off_c, 1, 66, 0
2, 98360, Note_off_c, 1, 78, 0
2, 98440, Note_on_c, 1, 64, 127
2, 98440, Note_on_c, 1, 76, 127
2, 98760, Note_off_c, 1, 64, 0
2, 98760, Note_off_c, 1, 76, 0
2, 98800, Note_on_c, 1, 61, 127
2, 98800, Note_on_c, 1, 73, 127
2, 99120, Note_off_c, 1, 61, 0
2, 99120, Note_off_c, 1, 73, 0
2, 99160, Note_on_c, 1, 62, 127
2, 99160, Note_on_c, 1, 74, 127
2, 99520, Note_off_c, 1, 62, 0
2, 99520, Note_off_c, 1, 74, 0
2, 99560, Note_on_c, 1, 57, 127
2, 99560, Note_on_c, 1, 69, 127
2, 100240, Note_on_c, 1, 56, 127
2, 100240, Note_off_c, 1, 57, 0
2, 100240, Note_on_c, 1, 68, 127
2, 100240, Note_off_c, 1, 69, 0
2, 100280, Note_off_c, 1, 56, 0
2, 100280, Note_off_c, 1, 68, 0
2, 100320, Note_on_c, 1, 56, 127
2, 100320, Note_on_c, 1, 68, 127
2, 100640, Note_off_c, 1, 56, 0
2, 100640, Note_off_c, 1, 68, 0
2, 100680, Note_on_c, 1, 57, 127
2, 100680, Note_on_c, 1, 69, 127
2, 100800, Note_off_c, 1, 57, 0
2, 100800, Note_off_c, 1, 69, 0
2, 100840, Note_on_c, 1, 57, 127
2, 100840, Note_on_c, 1, 69, 127
2, 101040, Note_off_c, 1, 57, 0
2, 101040, Note_off_c, 1, 69, 0
2, 101080, Note_on_c, 1, 66, 127
2, 101080, Note_on_c, 1, 78, 127
2, 101400, Note_off_c, 1, 66, 0
2, 101400, Note_off_c, 1, 78, 0
2, 101440, Note_on_c, 1, 64, 127
2, 101440, Note_on_c, 1, 76, 127
2, 101760, Note_off_c, 1, 64, 0
2, 101760, Note_off_c, 1, 76, 0
2, 101800, Note_on_c, 1, 62, 127
2, 101800, Note_on_c, 1, 74, 127
2, 102120, Note_off_c, 1, 62, 0
2, 102120, Note_off_c, 1, 74, 0
2, 102160, Note_on_c, 1, 66, 127
2, 102160, Note_on_c, 1, 78, 127
2, 102480, Note_off_c, 1, 66, 0
2, 102480, Note_off_c, 1, 78, 0
2, 102520, Note_on_c, 1, 62, 127
2, 102520, Note_on_c, 1, 74, 127
2, 102880, Note_off_c, 1, 62, 0
2, 102880, Note_off_c, 1, 74, 0
2, 102920, Note_on_c, 1, 54, 127
2, 102920, Note_on_c, 1, 66, 127
2, 103040, Note_off_c, 1, 54, 0
2, 103040, Note_off_c, 1, 66, 0
2, 103080, Note_on_c, 1, 54, 127
2, 103080, Note_on_c, 1, 66, 127
2, 103280, Note_off_c, 1, 54, 0
2, 103280, Note_off_c, 1, 66, 0
2, 103320, Note_on_c, 1, 50, 127
2, 103320, Note_on_c, 1, 62, 127
2, 103640, Note_off_c, 1, 50, 0
2, 103640, Note_off_c, 1, 62, 0
2, 103680, Note_on_c, 1, 54, 127
2, 103680, Note_on_c, 1, 66, 127
2, 104000, Note_off_c, 1, 54, 0
2, 104000, Note_off_c, 1, 66, 0
2, 104040, Note_on_c, 1, 55, 127
2, 104040, Note_on_c, 1, 67, 127
2, 104360, Note_off_c, 1, 55, 0
2, 104360, Note_off_c, 1, 67, 0
2, 104400, Note_on_c, 1, 54, 127
2, 104400, Note_on_c, 1, 66, 127
2, 104720, Note_off_c, 1, 54, 0
2, 104720, Note_off_c, 1, 66, 0
2, 104760, Note_on_c, 1, 55, 127
2, 104760, Note_on_c, 1, 67, 127
2, 105080, Note_off_c, 1, 55, 0
2, 105080, Note_off_c, 1, 67, 0
2, 105120, Note_on_c, 1, 51, 127
2, 105120, Note_on_c, 1, 63, 127
2, 105320, Note_off_c, 1, 51, 0
2, 105320, Note_off_c, 1, 63, 0
2, 105360, Note_on_c, 1, 51, 127
2, 105360, Note_on_c, 1, 63, 127
2, 105480, Note_off_c, 1, 51, 0
2, 105480, Note_off_c, 1, 63, 0
2, 105520, Note_on_c, 1, 50, 127
2, 105520, Note_on_c, 1, 62, 127
2, 105840, Note_off_c, 1, 50, 0
2, 105840, Note_off_c, 1, 62, 0
2, 105880, Note_on_c, 1, 49, 127
2, 105880, Note_on_c, 1, 61, 127
2, 106200, Note_off_c, 1, 49, 0
2, 106200, Note_off_c, 1, 61, 0
2, 106240, Note_on_c, 1, 50, 127
2, 106240, Note_on_c, 1, 62, 127
2, 106560, Note_off_c, 1, 50, 0
2, 106560, Note_off_c, 1, 62, 0
2, 106600, Note_on_c, 1, 50, 127
2, 106600, Note_on_c, 1, 62, 127
2, 106920, Note_off_c, 1, 50, 0
2, 106920, Note_off_c, 1, 62, 0
2, 106960, Note_on_c, 1, 54, 127
2, 106960, Note_on_c, 1, 66, 127
2, 107280, Note_off_c, 1, 54, 0
2, 107280, Note_off_c, 1, 66, 0
2, 107360, Note_on_c, 1, 55, 127
2, 107360, Note_on_c, 1, 67, 127
2, 108080, Note_off_c, 1, 55, 0
2, 108080, Note_off_c, 1, 67, 0
2, 108120, Note_on_c, 1, 52, 127
2, 108120, Note_on_c, 1, 64, 127
2, 108440, Note_off_c, 1, 52, 0
2, 108440, Note_off_c, 1, 64, 0
2, 108480, Note_on_c, 1, 50, 127
2, 108480, Note_on_c, 1, 62, 127
2, 108800, Note_off_c, 1, 50, 0
2, 108800, Note_off_c, 1, 62, 0
2, 108840, Note_on_c, 1, 47, 127
2, 108840, Note_on_c, 1, 59, 127
2, 109160, Note_off_c, 1, 47, 0
2, 109160, Note_off_c, 1, 59, 0
2, 109200, Note_on_c, 1, 55, 127
2, 109200, Note_on_c, 1, 67, 127
2, 109320, Note_off_c, 1, 55, 0
2, 109320, Note_off_c, 1, 67, 0
2, 109360, Note_on_c, 1, 55, 127
2, 109360, Note_on_c, 1, 67, 127
2, 109560, Note_off_c, 1, 55, 0
2, 109560, Note_off_c, 1, 67, 0
2, 109600, Note_on_c, 1, 52, 127
2, 109600, Note_on_c, 1, 64, 127
2, 110160, Note_off_c, 1, 52, 0
2, 110160, Note_off_c, 1, 64, 0
2, 110200, Note_on_c, 1, 50, 127
2, 110200, Note_on_c, 1, 62, 127
2, 110320, Note_off_c, 1, 50, 0
2, 110320, Note_off_c, 1, 62, 0
2, 110360, Note_on_c, 1, 48, 127
2, 110360, Note_on_c, 1, 60, 127
2, 110600, Note_off_c, 1, 48, 0
2, 110600, Note_off_c, 1, 60, 0
2, 110640, Note_on_c, 1, 47, 127
2, 110640, Note_on_c, 1, 59, 127
2, 110720, Note_off_c, 1, 47, 0
2, 110720, Note_off_c, 1, 59, 0
2, 110760, Note_on_c, 1, 48, 127
2, 110760, Note_on_c, 1, 60, 127
2, 111080, Note_off_c, 1, 48, 0
2, 111080, Note_off_c, 1, 60, 0
2, 111120, Note_on_c, 1, 47, 127
2, 111120, Note_on_c, 1, 59, 127
2, 111440, Note_off_c, 1, 47, 0
2, 111440, Note_off_c, 1, 59, 0
2, 111520, Note_on_c, 1, 52, 127
2, 111520, Note_on_c, 1, 64, 127
2, 111840, Note_off_c, 1, 52, 0
2, 111840, Note_off_c, 1, 64, 0
2, 111880, Note_on_c, 1, 50, 127
2, 111880, Note_on_c, 1, 62, 127
2, 112200, Note_off_c, 1, 50, 0
2, 112200, Note_off_c, 1, 62, 0
2, 112240, Note_on_c, 1, 48, 127
2, 112240, Note_on_c, 1, 60, 127
2, 112600, Note_off_c, 1, 48, 0
2, 112600, Note_off_c, 1, 60, 0
2, 112640, Note_on_c, 1, 47, 127
2, 112640, Note_on_c, 1, 59, 127
2, 112960, Note_off_c, 1, 47, 0
2, 112960, Note_off_c, 1, 59, 0
2, 113000, Note_on_c, 1, 52, 127
2, 113000, Note_on_c, 1, 64, 127
2, 113320, Note_off_c, 1, 52, 0
2, 113320, Note_off_c, 1, 64, 0
2, 113360, Note_on_c, 1, 55, 127
2, 113360, Note_on_c, 1, 67, 127
2, 113600, Note_off_c, 1, 55, 0
2, 113600, Note_off_c, 1, 67, 0
2, 113640, Note_on_c, 1, 53, 127
2, 113640, Note_on_c, 1, 65, 127
2, 113680, Note_off_c, 1, 53, 0
2, 113680, Note_off_c, 1, 65, 0
2, 113760, Note_on_c, 1, 57, 127
2, 113760, Note_on_c, 1, 69, 127
2, 114080, Note_off_c, 1, 57, 0
2, 114080, Note_off_c, 1, 69, 0
2, 114120, Note_on_c, 1, 67, 127
2, 114120, Note_on_c, 1, 79, 127
2, 114440, Note_off_c, 1, 67, 0
2, 114440, Note_off_c, 1, 79, 0
2, 114480, Note_on_c, 1, 66, 127
2, 114480, Note_on_c, 1, 78, 127
2, 114840, Note_off_c, 1, 66, 0
2, 114840, Note_off_c, 1, 78, 0
2, 114880, Note_on_c, 1, 67, 127
2, 114880, Note_on_c, 1, 79, 127
2, 115200, Note_off_c, 1, 67, 0
2, 115200, Note_off_c, 1, 79, 0
2, 115240, Note_on_c, 1, 64, 127
2, 115240, Note_on_c, 1, 76, 127
2, 115960, Note_off_c, 1, 64, 0
2, 115960, Note_off_c, 1, 76, 0
2, 116040, Note_on_c, 1, 62, 127
2, 116040, Note_on_c, 1, 74, 127
2, 116360, Note_off_c, 1, 62, 0
2, 116360, Note_off_c, 1, 74, 0
2, 116400, Note_on_c, 1, 59, 127
2, 116400, Note_on_c, 1, 71, 127
2, 117120, Note_off_c, 1, 59, 0
2, 117120, Note_off_c, 1, 71, 0
2, 117160, Note_on_c, 1, 55, 127
2, 117160, Note_on_c, 1, 67, 127
2, 117480, Note_off_c, 1, 55, 0
2, 117480, Note_off_c, 1, 67, 0
2, 117520, Note_on_c, 1, 54, 127
2, 117520, Note_on_c, 1, 66, 127
2, 117840, Note_off_c, 1, 54, 0
2, 117840, Note_off_c, 1, 66, 0
2, 117880, Note_on_c, 1, 55, 127
2, 117880, Note_on_c, 1, 67, 127
2, 118120, Note_off_c, 1, 55, 0
2, 118120, Note_off_c, 1, 67, 0
2, 118160, Note_on_c, 1, 55, 127
2, 118160, Note_on_c, 1, 67, 127
2, 118240, Note_off_c, 1, 55, 0
2, 118240, Note_off_c, 1, 67, 0
2, 118280, Note_on_c, 1, 54, 127
2, 118280, Note_on_c, 1, 66, 127
2, 118600, Note_off_c, 1, 54, 0
2, 118600, Note_off_c, 1, 66, 0
2, 118640, Note_on_c, 1, 55, 127
2, 118640, Note_on_c, 1, 67, 127
2, 118960, Note_off_c, 1, 55, 0
2, 118960, Note_off_c, 1, 67, 0
2, 119000, Note_on_c, 1, 50, 127
2, 119000, Note_on_c, 1, 62, 127
2, 119320, Note_off_c, 1, 50, 0
2, 119320, Note_off_c, 1, 62, 0
2, 119360, Note_on_c, 1, 47, 127
2, 119360, Note_on_c, 1, 59, 127
2, 119600, Note_off_c, 1, 47, 0
2, 119600, Note_off_c, 1, 59, 0
2, 119640, Note_on_c, 1, 49, 127
2, 119640, Note_on_c, 1, 61, 127
2, 119680, Note_off_c, 1, 49, 0
2, 119680, Note_off_c, 1, 61, 0
2, 119720, Note_on_c, 1, 54, 127
2, 119720, Note_on_c, 1, 66, 127
2, 120000, Note_off_c, 1, 54, 0
2, 120000, Note_off_c, 1, 66, 0
2, 120040, End_track
3, 0, Start_track
3, 0, Title_t, "MIDI"
3, 1536, End_track
0, 0, End_of_file
