0, 0, Header, 1, 3, 192
1, 0, Start_track
1, 0, Time_signature, 4, 2, 24, 8
1, 0, Tempo, 500000
1, 120040, End_track
2, 0, Start_track
2, 0, Text_t, "random instrument: random person i dunno whatev"
2, 0, Title_t, "Track 1"
2, 0, Note_on_c, 1, 40, 127
2, 0, Note_on_c, 1, 48, 127
2, 0, Note_on_c, 1, 56, 127
2, 0, Note_on_c, 1, 60, 127
2, 160, Note_off_c, 1, 40, 0
2, 160, Note_off_c, 1, 48, 0
2, 160, Note_off_c, 1, 56, 0
2, 160, Note_off_c, 1, 60, 0
2, 200, Note_on_c, 1, 35, 127
2, 200, Note_on_c, 1, 39, 127
2, 200, Note_on_c, 1, 47, 127
2, 200, Note_on_c, 1, 50, 127
2, 240, Note_off_c, 1, 35, 0
2, 240, Note_off_c, 1, 39, 0
2, 240, Note_off_c, 1, 47, 0
2, 240, Note_off_c, 1, 50, 0
2, 520, Note_on_c, 1, 42, 127
2, 520, Note_on_c, 1, 46, 127
2, 520, Note_on_c, 1, 49, 127
2, 520, Note_on_c, 1, 54, 127
2, 520, Note_on_c, 1, 66, 127
2, 520, Note_on_c, 1, 70, 127
2, 520, Note_on_c, 1, 73, 127
2, 520, Note_on_c, 1, 78, 127
2, 560, Note_off_c, 1, 42, 0
2, 560, Note_off_c, 1, 46, 0
2, 560, Note_off_c, 1, 49, 0
2, 560, Note_off_c, 1, 54, 0
2, 560, Note_off_c, 1, 66, 0
2, 560, Note_off_c, 1, 70, 0
2, 560, Note_off_c, 1, 73, 0
2, 560, Note_off_c, 1, 78, 0
2, 1440, Note_on_c, 1, 44, 127
2, 1440, Note_on_c, 1, 56, 127
2, 1440, Note_on_c, 1, 72, 127
2, 1440, Note_on_c, 1, 80, 127
2, 2000, Note_off_c, 1, 44, 0
2, 2000, Note_off_c, 1, 56, 0
2, 2000, Note_off_c, 1, 72, 0
2, 2000, Note_off_c, 1, 80, 0
2, 2040, Note_on_c, 1, 44, 127
2, 2040, Note_on_c, 1, 56, 127
2, 2040, Note_on_c, 1, 72, 127
2, 2040, Note_on_c, 1, 80, 127
2, 2560, Note_off_c, 1, 72, 0
2, 2560, Note_off_c, 1, 80, 0
2, 2600, Note_on_c, 1, 72, 127
2, 2600, Note_on_c, 1, 80, 127
2, 2800, Note_off_c, 1, 44, 0
2, 2800, Note_off_c, 1, 56, 0
2, 2800, Note_off_c, 1, 72, 0
2, 2800, Note_off_c, 1, 80, 0
2, 2840, Note_on_c, 1, 44, 127
2, 2840, Note_on_c, 1, 56, 127
2, 2840, Note_on_c, 1, 72, 127
2, 2840, Note_on_c, 1, 80, 127
2, 3000, Note_off_c, 1, 72, 0
2, 3000, Note_off_c, 1, 80, 0
2, 3760, Note_off_c, 1, 44, 0
2, 3760, Note_off_c, 1, 56, 0
2, 3800, Note_on_c, 1, 44, 127
2, 3800, Note_on_c, 1, 56, 127
2, 4880, Note_off_c, 1, 44, 0
2, 4880, Note_off_c, 1, 56, 0
2, 13400, Note_on_c, 1, 37, 127
2, 13400, Note_on_c, 1, 49, 127
2, 15120, Note_off_c, 1, 37, 0
2, 15120, Note_off_c, 1, 49, 0
2, 18240, Note_on_c, 1, 40, 127
2, 18240, Note_on_c, 1, 52, 127
2, 18240, Note_on_c, 1, 64, 127
2, 18760, Note_off_c, 1, 40, 0
2, 18760, Note_off_c, 1, 52, 0
2, 18760, Note_off_c, 1, 64, 0
2, 19840, Note_on_c, 1, 36, 127
2, 19840, Note_on_c, 1, 48, 127
2, 21600, Note_off_c, 1, 48, 0
2, 21600, Note_on_c, 1, 55, 127
2, 21600, Note_on_c, 1, 60, 127
2, 22160, Note_off_c, 1, 36, 0
2, 22160, Note_off_c, 1, 55, 0
2, 22160, Note_off_c, 1, 60, 0
2, 22200, Note_on_c, 1, 36, 127
2, 22200, Note_on_c, 1, 55, 127
2, 22200, Note_on_c, 1, 60, 127
2, 22800, Note_on_c, 1, 48, 127
2, 22800, Note_off_c, 1, 60, 0
2, 22800, Note_on_c, 1, 64, 127
2, 23520, Note_off_c, 1, 36, 0
2, 23520, Note_off_c, 1, 48, 0
2, 23520, Note_off_c, 1, 55, 0
2, 23520, Note_off_c, 1, 64, 0
2, 30640, Note_on_c, 1, 43, 127
2, 31480, Note_off_c, 1, 43, 0
2, 34840, Note_on_c, 1, 45, 127
2, 34840, Note_on_c, 1, 57, 127
2, 34840, Note_on_c, 1, 73, 127
2, 34840, Note_on_c, 1, 79, 127
2, 35880, Note_off_c, 1, 45, 0
2, 35880, Note_off_c, 1, 57, 0
2, 35880, Note_off_c, 1, 73, 0
2, 35880, Note_off_c, 1, 79, 0
2, 36040, Note_on_c, 1, 45, 127
2, 36240, Note_off_c, 1, 45, 0
2, 36800, Note_on_c, 1, 45, 127
2, 36800, Note_on_c, 1, 49, 127
2, 37000, Note_off_c, 1, 45, 0
2, 37000, Note_off_c, 1, 49, 0
2, 37040, Note_on_c, 1, 45, 127
2, 37040, Note_on_c, 1, 49, 127
2, 37360, Note_off_c, 1, 49, 0
2, 37400, Note_off_c, 1, 45, 0
2, 37440, Note_on_c, 1, 45, 127
2, 39280, Note_off_c, 1, 45, 0
2, 39320, Note_on_c, 1, 37, 127
2, 39520, Note_off_c, 1, 37, 0
2, 39560, Note_on_c, 1, 37, 127
2, 39720, Note_off_c, 1, 37, 0
2, 39760, Note_on_c, 1, 44, 127
2, 40080, Note_off_c, 1, 44, 0
2, 40120, Note_on_c, 1, 49, 127
2, 40480, Note_off_c, 1, 49, 0
2, 40520, Note_on_c, 1, 45, 127
2, 40840, Note_off_c, 1, 45, 0
2, 40880, Note_on_c, 1, 49, 127
2, 41240, Note_off_c, 1, 49, 0
2, 41280, Note_on_c, 1, 64, 127
2, 41640, Note_off_c, 1, 64, 0
2, 41720, Note_on_c, 1, 64, 127
2, 42040, Note_off_c, 1, 64, 0
2, 42080, Note_on_c, 1, 62, 127
2, 42440, Note_off_c, 1, 62, 0
2, 42480, Note_on_c, 1, 61, 127
2, 43200, Note_off_c, 1, 61, 0
2, 43240, Note_on_c, 1, 57, 127
2, 43600, Note_off_c, 1, 57, 0
2, 43680, Note_on_c, 1, 57, 127
2, 44000, Note_off_c, 1, 57, 0
2, 44040, Note_on_c, 1, 50, 127
2, 44400, Note_off_c, 1, 50, 0
2, 44440, Note_on_c, 1, 62, 127
2, 44760, Note_off_c, 1, 62, 0
2, 44800, Note_on_c, 1, 57, 127
2, 45120, Note_off_c, 1, 57, 0
2, 45200, Note_on_c, 1, 58, 127
2, 45520, Note_off_c, 1, 58, 0
2, 45560, Note_on_c, 1, 52, 127
2, 45640, Note_off_c, 1, 52, 0
2, 45680, Note_on_c, 1, 52, 127
2, 45960, Note_off_c, 1, 52, 0
2, 46000, Note_on_c, 1, 45, 127
2, 46320, Note_off_c, 1, 45, 0
2, 46360, Note_on_c, 1, 49, 127
2, 46720, Note_off_c, 1, 49, 0
2, 46760, Note_on_c, 1, 57, 127
2, 47080, Note_off_c, 1, 57, 0
2, 47120, Note_on_c, 1, 53, 127
2, 47480, Note_off_c, 1, 53, 0
2, 47520, Note_on_c, 1, 45, 127
2, 47640, Note_off_c, 1, 45, 0
2, 47680, Note_on_c, 1, 45, 127
2, 47880, Note_off_c, 1, 45, 0
2, 47920, Note_on_c, 1, 50, 127
2, 48240, Note_off_c, 1, 50, 0
2, 48280, Note_on_c, 1, 57, 127
2, 48640, Note_off_c, 1, 57, 0
2, 48680, Note_on_c, 1, 58, 127
2, 49000, Note_off_c, 1, 58, 0
2, 49040, Note_on_c, 1, 60, 127
2, 49400, Note_off_c, 1, 60, 0
2, 49440, Note_on_c, 1, 62, 127
2, 49760, Note_off_c, 1, 62, 0
2, 49840, Note_on_c, 1, 65, 127
2, 50200, Note_off_c, 1, 65, 0
2, 50240, Note_on_c, 1, 57, 127
2, 50560, Note_off_c, 1, 57, 0
2, 50600, Note_on_c, 1, 60, 127
2, 50920, Note_off_c, 1, 60, 0
2, 50960, Note_on_c, 1, 65, 127
2, 51320, Note_off_c, 1, 65, 0
2, 51360, Note_on_c, 1, 60, 127
2, 51360, Note_on_c, 1, 72, 127
2, 51680, Note_off_c, 1, 60, 0
2, 51680, Note_off_c, 1, 72, 0
2, 51720, Note_on_c, 1, 58, 127
2, 51720, Note_on_c, 1, 70, 127
2, 51920, Note_off_c, 1, 58, 0
2, 51920, Note_off_c, 1, 70, 0
2, 51960, Note_on_c, 1, 58, 127
2, 51960, Note_on_c, 1, 70, 127
2, 52080, Note_off_c, 1, 58, 0
2, 52080, Note_off_c, 1, 70, 0
2, 52120, Note_on_c, 1, 62, 127
2, 52120, Note_on_c, 1, 74, 127
2, 52440, Note_off_c, 1, 62, 0
2, 52440, Note_off_c, 1, 74, 0
2, 52480, Note_on_c, 1, 64, 127
2, 52480, Note_on_c, 1, 76, 127
2, 53200, Note_off_c, 1, 64, 0
2, 53200, Note_off_c, 1, 76, 0
2, 53240, Note_on_c, 1, 62, 127
2, 53240, Note_on_c, 1, 74, 127
2, 53560, Note_off_c, 1, 62, 0
2, 53560, Note_off_c, 1, 74, 0
2, 53600, Note_on_c, 1, 64, 127
2, 53600, Note_on_c, 1, 76, 127
2, 53960, Note_off_c, 1, 64, 0
2, 53960, Note_off_c, 1, 76, 0
2, 54040, Note_on_c, 1, 65, 127
2, 54040, Note_on_c, 1, 77, 127
2, 54360, Note_off_c, 1, 65, 0
2, 54360, Note_off_c, 1, 77, 0
2, 54400, Note_on_c, 1, 64, 127
2, 54400, Note_on_c, 1, 76, 127
2, 54760, Note_off_c, 1, 64, 0
2, 54760, Note_off_c, 1, 76, 0
2, 54800, Note_on_c, 1, 65, 127
2, 54800, Note_on_c, 1, 77, 127
2, 55120, Note_off_c, 1, 65, 0
2, 55120, Note_off_c, 1, 77, 0
2, 55160, Note_on_c, 1, 64, 127
2, 55160, Note_on_c, 1, 76, 127
2, 55480, Note_off_c, 1, 64, 0
2, 55480, Note_off_c, 1, 76, 0
2, 55520, Note_on_c, 1, 65, 127
2, 55520, Note_on_c, 1, 77, 127
2, 55880, Note_off_c, 1, 65, 0
2, 55880, Note_off_c, 1, 77, 0
2, 55920, Note_on_c, 1, 64, 127
2, 55920, Note_on_c, 1, 76, 127
2, 56120, Note_off_c, 1, 64, 0
2, 56120, Note_off_c, 1, 76, 0
2, 56160, Note_on_c, 1, 64, 127
2, 56160, Note_on_c, 1, 76, 127
2, 56280, Note_off_c, 1, 64, 0
2, 56280, Note_off_c, 1, 76, 0
2, 56320, Note_on_c, 1, 65, 127
2, 56320, Note_on_c, 1, 77, 127
2, 56640, Note_off_c, 1, 65, 0
2, 56640, Note_off_c, 1, 77, 0
2, 56680, Note_on_c, 1, 64, 127
2, 56680, Note_on_c, 1, 76, 127
2, 57400, Note_off_c, 1, 64, 0
2, 57400, Note_off_c, 1, 76, 0
2, 57440, Note_on_c, 1, 60, 127
2, 57440, Note_on_c, 1, 72, 127
2, 57760, Note_off_c, 1, 60, 0
2, 57760, Note_off_c, 1, 72, 0
2, 57800, Note_on_c, 1, 64, 127
2, 57800, Note_on_c, 1, 76, 127
2, 58160, Note_off_c, 1, 64, 0
2, 58160, Note_off_c, 1, 76, 0
2, 58240, Note_on_c, 1, 62, 127
2, 58240, Note_on_c, 1, 74, 127
2, 58560, Note_off_c, 1, 62, 0
2, 58560, Note_off_c, 1, 74, 0
2, 58600, Note_on_c, 1, 64, 127
2, 58600, Note_on_c, 1, 76, 127
2, 58920, Note_off_c, 1, 64, 0
2, 58920, Note_off_c, 1, 76, 0
2, 58960, Note_on_c, 1, 65, 127
2, 58960, Note_on_c, 1, 77, 127
2, 59280, Note_off_c, 1, 65, 0
2, 59280, Note_off_c, 1, 77, 0
2, 59320, Note_on_c, 1, 64, 127
2, 59320, Note_on_c, 1, 76, 127
2, 59680, Note_off_c, 1, 64, 0
2, 59680, Note_off_c, 1, 76, 0
2, 59720, Note_on_c, 1, 64, 127
2, 59720, Note_on_c, 1, 76, 127
2, 60040, Note_off_c, 1, 64, 0
2, 60040, Note_off_c, 1, 76, 0
2, 60080, Note_on_c, 1, 62, 127
2, 60080, Note_on_c, 1, 74, 127
2, 60280, Note_off_c, 1, 62, 0
2, 60280, Note_off_c, 1, 74, 0
2, 60320, Note_on_c, 1, 62, 127
2, 60320, Note_on_c, 1, 74, 127
2, 60800, Note_off_c, 1, 62, 0
2, 60800, Note_off_c, 1, 74, 0
2, 60840, Note_on_c, 1, 57, 127
2, 60840, Note_on_c, 1, 69, 127
2, 61200, Note_off_c, 1, 57, 0
2, 61200, Note_off_c, 1, 69, 0
2, 61240, Note_on_c, 1, 57, 127
2, 61240, Note_on_c, 1, 69, 127
2, 61560, Note_off_c, 1, 57, 0
2, 61560, Note_off_c, 1, 69, 0
2, 61600, Note_on_c, 1, 52, 127
2, 61600, Note_on_c, 1, 64, 127
2, 61920, Note_off_c, 1, 52, 0
2, 61920, Note_off_c, 1, 64, 0
2, 61960, Note_on_c, 1, 50, 127
2, 61960, Note_on_c, 1, 62, 127
2, 62280, Note_off_c, 1, 50, 0
2, 62280, Note_off_c, 1, 62, 0
2, 62320, Note_on_c, 1, 52, 127
2, 62320, Note_on_c, 1, 64, 127
2, 62400, Note_off_c, 1, 52, 0
2, 62400, Note_off_c, 1, 64, 0
2, 62440, Note_on_c, 1, 52, 127
2, 62440, Note_on_c, 1, 64, 127
2, 62680, Note_off_c, 1, 52, 0
2, 62680, Note_off_c, 1, 64, 0
2, 62720, Note_on_c, 1, 53, 127
2, 62720, Note_on_c, 1, 65, 127
2, 63040, Note_off_c, 1, 53, 0
2, 63040, Note_off_c, 1, 65, 0
2, 63120, Note_on_c, 1, 50, 127
2, 63120, Note_on_c, 1, 62, 127
2, 63440, Note_off_c, 1, 50, 0
2, 63440, Note_off_c, 1, 62, 0
2, 63480, Note_on_c, 1, 53, 127
2, 63480, Note_on_c, 1, 65, 127
2, 63800, Note_off_c, 1, 53, 0
2, 63800, Note_off_c, 1, 65, 0
2, 63840, Note_on_c, 1, 55, 127
2, 63840, Note_on_c, 1, 67, 127
2, 64160, Note_off_c, 1, 55, 0
2, 64160, Note_off_c, 1, 67, 0
2, 64200, Note_on_c, 1, 51, 127
2, 64200, Note_on_c, 1, 63, 127
2, 64520, Note_off_c, 1, 51, 0
2, 64520, Note_off_c, 1, 63, 0
2, 64600, Note_on_c, 1, 48, 127
2, 64600, Note_on_c, 1, 60, 127
2, 64920, Note_off_c, 1, 48, 0
2, 64920, Note_off_c, 1, 60, 0
2, 64960, Note_on_c, 1, 50, 127
2, 64960, Note_on_c, 1, 62, 127
2, 65280, Note_off_c, 1, 50, 0
2, 65280, Note_off_c, 1, 62, 0
2, 65320, Note_on_c, 1, 46, 127
2, 65320, Note_on_c, 1, 58, 127
2, 65680, Note_off_c, 1, 46, 0
2, 65680, Note_off_c, 1, 58, 0
2, 65720, Note_on_c, 1, 52, 127
2, 65720, Note_on_c, 1, 64, 127
2, 66040, Note_off_c, 1, 52, 0
2, 66040, Note_off_c, 1, 64, 0
2, 66080, Note_on_c, 1, 53, 127
2, 66080, Note_on_c, 1, 65, 127
2, 66400, Note_off_c, 1, 53, 0
2, 66400, Note_off_c, 1, 65, 0
2, 66440, Note_on_c, 1, 54, 127
2, 66440, Note_on_c, 1, 66, 127
2, 66640, Note_off_c, 1, 54, 0
2, 66640, Note_off_c, 1, 66, 0
2, 66680, Note_on_c, 1, 54, 127
2, 66680, Note_on_c, 1, 66, 127
2, 66800, Note_off_c, 1, 54, 0
2, 66800, Note_off_c, 1, 66, 0
2, 66840, Note_on_c, 1, 53, 127
2, 66840, Note_on_c, 1, 65, 127
2, 67160, Note_off_c, 1, 53, 0
2, 67160, Note_off_c, 1, 65, 0
2, 67200, Note_on_c, 1, 50, 127
2, 67200, Note_on_c, 1, 62, 127
2, 67520, Note_off_c, 1, 50, 0
2, 67520, Note_off_c, 1, 62, 0
2, 67600, Note_on_c, 1, 50, 127
2, 67600, Note_on_c, 1, 62, 127
2, 67920, Note_off_c, 1, 50, 0
2, 67920, Note_off_c, 1, 62, 0
2, 67960, Note_on_c, 1, 46, 127
2, 67960, Note_on_c, 1, 58, 127
2, 68280, Note_off_c, 1, 46, 0
2, 68280, Note_off_c, 1, 58, 0
2, 68320, Note_on_c, 1, 50, 127
2, 68320, Note_on_c, 1, 62, 127
2, 68560, Note_off_c, 1, 50, 0
2, 68560, Note_off_c, 1, 62, 0
2, 68760, Note_on_c, 1, 48, 127
2, 68760, Note_on_c, 1, 60, 127
2, 68960, Note_off_c, 1, 48, 0
2, 68960, Note_off_c, 1, 60, 0
2, 69040, Note_on_c, 1, 46, 127
2, 69040, Note_on_c, 1, 58, 127
2, 69080, Note_off_c, 1, 46, 0
2, 69080, Note_off_c, 1, 58, 0
2, 69120, Note_on_c, 1, 55, 127
2, 69120, Note_on_c, 1, 67, 127
2, 69440, Note_off_c, 1, 55, 0
2, 69440, Note_off_c, 1, 67, 0
2, 69480, Note_on_c, 1, 53, 127
2, 69480, Note_on_c, 1, 65, 127
2, 69800, Note_off_c, 1, 53, 0
2, 69800, Note_off_c, 1, 65, 0
2, 69840, Note_on_c, 1, 55, 127
2, 69840, Note_on_c, 1, 67, 127
2, 70200, Note_off_c, 1, 55, 0
2, 70200, Note_off_c, 1, 67, 0
2, 70240, Note_on_c, 1, 53, 127
2, 70240, Note_on_c, 1, 65, 127
2, 70560, Note_off_c, 1, 53, 0
2, 70560, Note_off_c, 1, 65, 0
2, 70600, Note_on_c, 1, 55, 127
2, 70600, Note_on_c, 1, 67, 127
2, 70840, Note_off_c, 1, 55, 0
2, 70840, Note_off_c, 1, 67, 0
2, 70880, Note_on_c, 1, 55, 127
2, 70880, Note_on_c, 1, 67, 127
2, 71280, Note_off_c, 1, 55, 0
2, 71280, Note_off_c, 1, 67, 0
2, 71360, Note_on_c, 1, 52, 127
2, 71360, Note_on_c, 1, 64, 127
2, 71680, Note_off_c, 1, 52, 0
2, 71680, Note_off_c, 1, 64, 0
2, 71720, Note_on_c, 1, 55, 127
2, 71720, Note_on_c, 1, 67, 127
2, 72040, Note_off_c, 1, 55, 0
2, 72040, Note_off_c, 1, 67, 0
2, 72080, Note_on_c, 1, 48, 127
2, 72080, Note_on_c, 1, 60, 127
2, 72360, Note_off_c, 1, 48, 0
2, 72360, Note_off_c, 1, 60, 0
2, 72440, Note_on_c, 1, 48, 127
2, 72440, Note_on_c, 1, 60, 127
2, 72760, Note_off_c, 1, 48, 0
2, 72760, Note_off_c, 1, 60, 0
2, 72800, Note_on_c, 1, 48, 127
2, 72800, Note_on_c, 1, 60, 127
2, 73000, Note_off_c, 1, 48, 0
2, 73000, Note_off_c, 1, 60, 0
2, 73040, Note_on_c, 1, 48, 127
2, 73040, Note_on_c, 1, 60, 127
2, 73160, Note_off_c, 1, 48, 0
2, 73160, Note_off_c, 1, 60, 0
2, 73200, Note_on_c, 1, 48, 127
2, 73200, Note_on_c, 1, 60, 127
2, 73440, Note_off_c, 1, 48, 0
2, 73440, Note_off_c, 1, 60, 0
2, 73560, Note_on_c, 1, 67, 127
2, 73560, Note_on_c, 1, 79, 127
2, 73880, Note_off_c, 1, 67, 0
2, 73880, Note_off_c, 1, 79, 0
2, 73920, Note_on_c, 1, 65, 127
2, 73920, Note_on_c, 1, 77, 127
2, 74240, Note_off_c, 1, 65, 0
2, 74240, Note_off_c, 1, 77, 0
2, 74280, Note_on_c, 1, 65, 127
2, 74280, Note_on_c, 1, 77, 127
2, 74600, Note_off_c, 1, 65, 0
2, 74600, Note_off_c, 1, 77, 0
2, 74640, Note_on_c, 1, 65, 127
2, 74640, Note_on_c, 1, 77, 127
2, 74960, Note_off_c, 1, 65, 0
2, 74960, Note_off_c, 1, 77, 0
2, 75000, Note_on_c, 1, 64, 127
2, 75000, Note_on_c, 1, 76, 127
2, 75200, Note_off_c, 1, 64, 0
2, 75200, Note_off_c, 1, 76, 0
2, 75240, Note_on_c, 1, 64, 127
2, 75240, Note_on_c, 1, 76, 127
2, 75360, Note_off_c, 1, 64, 0
2, 75360, Note_off_c, 1, 76, 0
2, 75400, Note_on_c, 1, 65, 127
2, 75400, Note_on_c, 1, 77, 127
2, 76120, Note_off_c, 1, 65, 0
2, 76120, Note_off_c, 1, 77, 0
2, 76160, Note_on_c, 1, 60, 127
2, 76160, Note_on_c, 1, 72, 127
2, 76480, Note_off_c, 1, 60, 0
2, 76480, Note_off_c, 1, 72, 0
2, 76520, Note_on_c, 1, 63, 127
2, 76520, Note_on_c, 1, 75, 127
2, 76840, Note_off_c, 1, 63, 0
2, 76840, Note_off_c, 1, 75, 0
2, 76880, Note_on_c, 1, 60, 127
2, 76880, Note_on_c, 1, 72, 127
2, 77200, Note_off_c, 1, 60, 0
2, 77200, Note_off_c, 1, 72, 0
2, 77280, Note_on_c, 1, 55, 127
2, 77280, Note_on_c, 1, 67, 127
2, 77600, Note_off_c, 1, 55, 0
2, 77600, Note_off_c, 1, 67, 0
2, 77640, Note_on_c, 1, 60, 127
2, 77640, Note_on_c, 1, 72, 127
2, 77960, Note_off_c, 1, 60, 0
2, 77960, Note_off_c, 1, 72, 0
2, 78000, Note_on_c, 1, 58, 127
2, 78000, Note_on_c, 1, 70, 127
2, 78320, Note_off_c, 1, 58, 0
2, 78320, Note_off_c, 1, 70, 0
2, 78360, Note_on_c, 1, 55, 127
2, 78360, Note_on_c, 1, 67, 127
2, 78680, Note_off_c, 1, 55, 0
2, 78680, Note_off_c, 1, 67, 0
2, 78720, Note_on_c, 1, 55, 127
2, 78720, Note_on_c, 1, 67, 127
2, 79040, Note_off_c, 1, 55, 0
2, 79040, Note_off_c, 1, 67, 0
2, 79080, Note_on_c, 1, 55, 127
2, 79080, Note_on_c, 1, 67, 127
2, 79280, Note_off_c, 1, 55, 0
2, 79280, Note_off_c, 1, 67, 0
2, 79320, Note_on_c, 1, 55, 127
2, 79320, Note_on_c, 1, 67, 127
2, 79440, Note_off_c, 1, 55, 0
2, 79440, Note_off_c, 1, 67, 0
2, 79480, Note_on_c, 1, 53, 127
2, 79480, Note_on_c, 1, 65, 127
2, 79800, Note_off_c, 1, 53, 0
2, 79800, Note_off_c, 1, 65, 0
2, 79840, Note_on_c, 1, 55, 127
2, 79840, Note_on_c, 1, 67, 127
2, 80160, Note_off_c, 1, 55, 0
2, 80160, Note_off_c, 1, 67, 0
2, 80200, Note_on_c, 1, 53, 127
2, 80200, Note_on_c, 1, 65, 127
2, 80520, Note_off_c, 1, 53, 0
2, 80520, Note_off_c, 1, 65, 0
2, 80560, Note_on_c, 1, 51, 127
2, 80560, Note_on_c, 1, 63, 127
2, 80880, Note_off_c, 1, 51, 0
2, 80880, Note_off_c, 1, 63, 0
2, 80920, Note_on_c, 1, 53, 127
2, 80920, Note_on_c, 1, 65, 127
2, 81040, Note_off_c, 1, 53, 0
2, 81040, Note_off_c, 1, 65, 0
2, 81280, Note_on_c, 1, 55, 127
2, 81280, Note_on_c, 1, 67, 127
2, 81320, Note_off_c, 1, 55, 0
2, 81320, Note_off_c, 1, 67, 0
2, 81360, Note_on_c, 1, 55, 127
2, 81360, Note_on_c, 1, 67, 127
2, 81480, Note_off_c, 1, 55, 0
2, 81480, Note_off_c, 1, 67, 0
2, 81680, Note_on_c, 1, 56, 127
2, 81680, Note_on_c, 1, 68, 127
2, 82000, Note_off_c, 1, 56, 0
2, 82000, Note_off_c, 1, 68, 0
2, 82040, Note_on_c, 1, 58, 127
2, 82040, Note_on_c, 1, 70, 127
2, 82720, Note_off_c, 1, 58, 0
2, 82720, Note_off_c, 1, 70, 0
2, 82760, Note_on_c, 1, 56, 127
2, 82760, Note_on_c, 1, 68, 127
2, 83120, Note_off_c, 1, 56, 0
2, 83120, Note_off_c, 1, 68, 0
2, 83160, Note_on_c, 1, 57, 127
2, 83160, Note_on_c, 1, 69, 127
2, 83520, Note_off_c, 1, 57, 0
2, 83520, Note_off_c, 1, 69, 0
2, 83600, Note_on_c, 1, 56, 127
2, 83600, Note_on_c, 1, 68, 127
2, 83920, Note_off_c, 1, 56, 0
2, 83920, Note_off_c, 1, 68, 0
2, 83960, Note_on_c, 1, 53, 127
2, 83960, Note_on_c, 1, 65, 127
2, 84280, Note_off_c, 1, 53, 0
2, 84280, Note_off_c, 1, 65, 0
2, 84320, Note_on_c, 1, 56, 127
2, 84320, Note_on_c, 1, 68, 127
2, 84640, Note_off_c, 1, 56, 0
2, 84640, Note_off_c, 1, 68, 0
2, 84680, Note_on_c, 1, 57, 127
2, 84680, Note_on_c, 1, 69, 127
2, 85360, Note_off_c, 1, 57, 0
2, 85360, Note_off_c, 1, 69, 0
2, 85400, Note_on_c, 1, 57, 127
2, 85400, Note_on_c, 1, 69, 127
2, 85680, Note_off_c, 1, 57, 0
2, 85680, Note_off_c, 1, 69, 0
2, 85720, Note_on_c, 1, 57, 127
2, 85720, Note_on_c, 1, 69, 127
2, 86120, Note_off_c, 1, 57, 0
2, 86120, Note_off_c, 1, 69, 0
2, 86160, Note_on_c, 1, 62, 127
2, 86160, Note_on_c, 1, 74, 127
2, 86520, Note_off_c, 1, 62, 0
2, 86520, Note_off_c, 1, 74, 0
2, 86560, Note_on_c, 1, 57, 127
2, 86560, Note_on_c, 1, 69, 127
2, 86880, Note_off_c, 1, 57, 0
2, 86880, Note_off_c, 1, 69, 0
2, 86920, Note_on_c, 1, 58, 127
2, 86920, Note_on_c, 1, 70, 127
2, 87240, Note_off_c, 1, 58, 0
2, 87240, Note_off_c, 1, 70, 0
2, 87280, Note_on_c, 1, 52, 127
2, 87280, Note_on_c, 1, 64, 127
2, 87600, Note_off_c, 1, 52, 0
2, 87600, Note_off_c, 1, 64, 0
2, 87640, Note_on_c, 1, 53, 127
2, 87640, Note_on_c, 1, 65, 127
2, 87840, Note_off_c, 1, 53, 0
2, 87840, Note_off_c, 1, 65, 0
2, 87880, Note_on_c, 1, 53, 127
2, 87880, Note_on_c, 1, 65, 127
2, 88000, Note_off_c, 1, 53, 0
2, 88000, Note_off_c, 1, 65, 0
2, 88040, Note_on_c, 1, 50, 127
2, 88040, Note_on_c, 1, 62, 127
2, 88360, Note_off_c, 1, 50, 0
2, 88360, Note_off_c, 1, 62, 0
2, 88400, Note_on_c, 1, 53, 127
2, 88400, Note_on_c, 1, 65, 127
2, 88720, Note_off_c, 1, 53, 0
2, 88720, Note_off_c, 1, 65, 0
2, 88760, Note_on_c, 1, 57, 127
2, 88760, Note_on_c, 1, 69, 127
2, 89080, Note_off_c, 1, 57, 0
2, 89080, Note_off_c, 1, 69, 0
2, 89120, Note_on_c, 1, 58, 127
2, 89120, Note_on_c, 1, 70, 127
2, 89440, Note_off_c, 1, 58, 0
2, 89440, Note_off_c, 1, 70, 0
2, 89480, Note_on_c, 1, 59, 127
2, 89480, Note_on_c, 1, 71, 127
2, 89800, Note_off_c, 1, 59, 0
2, 89800, Note_off_c, 1, 71, 0
2, 89880, Note_on_c, 1, 56, 127
2, 89880, Note_on_c, 1, 68, 127
2, 90200, Note_off_c, 1, 56, 0
2, 90200, Note_off_c, 1, 68, 0
2, 90240, Note_on_c, 1, 57, 127
2, 90240, Note_on_c, 1, 69, 127
2, 90920, Note_off_c, 1, 57, 0
2, 90920, Note_off_c, 1, 69, 0
2, 90960, Note_on_c, 1, 57, 127
2, 90960, Note_on_c, 1, 69, 127
2, 91320, Note_off_c, 1, 57, 0
2, 91320, Note_off_c, 1, 69, 0
2, 91360, Note_on_c, 1, 53, 127
2, 91360, Note_on_c, 1, 65, 127
2, 91680, Note_off_c, 1, 53, 0
2, 91680, Note_off_c, 1, 65, 0
2, 91720, Note_on_c, 1, 55, 127
2, 91720, Note_on_c, 1, 67, 127
2, 91960, Note_off_c, 1, 55, 0
2, 91960, Note_off_c, 1, 67, 0
2, 92000, Note_on_c, 1, 55, 127
2, 92000, Note_on_c, 1, 67, 127
2, 92080, Note_off_c, 1, 55, 0
2, 92080, Note_off_c, 1, 67, 0
2, 92120, Note_on_c, 1, 58, 127
2, 92120, Note_on_c, 1, 70, 127
2, 92440, Note_off_c, 1, 58, 0
2, 92440, Note_off_c, 1, 70, 0
2, 92480, Note_on_c, 1, 52, 127
2, 92480, Note_on_c, 1, 64, 127
2, 92800, Note_off_c, 1, 52, 0
2, 92800, Note_off_c, 1, 64, 0
2, 92840, Note_on_c, 1, 48, 127
2, 92840, Note_on_c, 1, 60, 127
2, 93160, Note_off_c, 1, 48, 0
2, 93160, Note_off_c, 1, 60, 0
2, 93200, Note_on_c, 1, 45, 127
2, 93200, Note_on_c, 1, 57, 127
2, 93520, Note_off_c, 1, 45, 0
2, 93520, Note_off_c, 1, 57, 0
2, 93560, Note_on_c, 1, 43, 127
2, 93560, Note_on_c, 1, 55, 127
2, 93840, Note_off_c, 1, 43, 0
2, 93840, Note_off_c, 1, 55, 0
2, 93920, Note_on_c, 1, 45, 127
2, 93920, Note_on_c, 1, 57, 127
2, 94120, Note_off_c, 1, 45, 0
2, 94120, Note_off_c, 1, 57, 0
2, 94160, Note_on_c, 1, 45, 127
2, 94160, Note_on_c, 1, 57, 127
2, 94280, Note_off_c, 1, 45, 0
2, 94280, Note_off_c, 1, 57, 0
2, 94320, Note_on_c, 1, 43, 127
2, 94320, Note_on_c, 1, 55, 127
2, 95000, Note_off_c, 1, 43, 0
2, 95000, Note_off_c, 1, 55, 0
2, 95040, Note_on_c, 1, 58, 127
2, 95360, Note_off_c, 1, 58, 0
2, 95400, Note_on_c, 1, 57, 127
2, 95720, Note_off_c, 1, 57, 0
2, 95760, Note_on_c, 1, 55, 127
2, 96120, Note_off_c, 1, 55, 0
2, 96200, Note_on_c, 1, 52, 127
2, 96520, Note_off_c, 1, 52, 0
2, 96560, Note_on_c, 1, 48, 127
2, 96880, Note_off_c, 1, 48, 0
2, 96920, Note_on_c, 1, 41, 127
2, 97240, Note_off_c, 1, 41, 0
2, 97280, Note_on_c, 1, 45, 127
2, 97600, Note_off_c, 1, 45, 0
2, 97640, Note_on_c, 1, 48, 127
2, 98000, Note_off_c, 1, 48, 0
2, 98040, Note_on_c, 1, 41, 127
2, 98160, Note_off_c, 1, 41, 0
2, 98200, Note_on_c, 1, 41, 127
2, 98400, Note_off_c, 1, 41, 0
2, 98440, Note_on_c, 1, 48, 127
2, 98760, Note_off_c, 1, 48, 0
2, 98800, Note_on_c, 1, 53, 127
2, 99120, Note_off_c, 1, 53, 0
2, 99160, Note_on_c, 1, 48, 127
2, 99520, Note_off_c, 1, 48, 0
2, 99560, Note_on_c, 1, 52, 127
2, 99880, Note_off_c, 1, 52, 0
2, 99920, Note_on_c, 1, 57, 127
2, 100200, Note_off_c, 1, 57, 0
2, 100240, Note_on_c, 1, 57, 127
2, 100280, Note_off_c, 1, 57, 0
2, 100320, Note_on_c, 1, 53, 127
2, 100680, Note_off_c, 1, 53, 0
2, 100720, Note_on_c, 1, 41, 127
2, 101760, Note_off_c, 1, 41, 0
2, 101800, Note_on_c, 1, 48, 127
2, 102120, Note_off_c, 1, 48, 0
2, 102160, Note_on_c, 1, 45, 127
2, 102400, Note_off_c, 1, 45, 0
2, 102440, Note_on_c, 1, 45, 127
2, 102560, Note_off_c, 1, 45, 0
2, 102600, Note_on_c, 1, 48, 127
2, 102920, Note_off_c, 1, 48, 0
2, 102960, Note_on_c, 1, 53, 127
2, 103280, Note_off_c, 1, 53, 0
2, 103320, Note_on_c, 1, 50, 127
2, 103680, Note_off_c, 1, 50, 0
2, 103720, Note_on_c, 1, 36, 127
2, 104040, Note_off_c, 1, 36, 0
2, 104080, Note_on_c, 1, 36, 127
2, 104400, Note_off_c, 1, 36, 0
2, 104440, Note_on_c, 1, 36, 127
2, 104760, Note_off_c, 1, 36, 0
2, 104800, Note_on_c, 1, 36, 127
2, 105200, Note_off_c, 1, 36, 0
2, 105240, Note_on_c, 1, 36, 127
2, 105560, Note_off_c, 1, 36, 0
2, 105600, Note_on_c, 1, 36, 127
2, 105920, Note_off_c, 1, 36, 0
2, 105960, Note_on_c, 1, 34, 127
2, 106280, Note_off_c, 1, 34, 0
2, 106320, Note_on_c, 1, 36, 127
2, 106640, Note_off_c, 1, 36, 0
2, 106680, Note_on_c, 1, 41, 127
2, 106920, Note_off_c, 1, 41, 0
2, 106960, Note_on_c, 1, 41, 127
2, 107080, Note_off_c, 1, 41, 0
2, 107120, Note_on_c, 1, 48, 127
2, 107440, Note_off_c, 1, 48, 0
2, 107480, Note_on_c, 1, 53, 127
2, 107800, Note_off_c, 1, 53, 0
2, 107840, Note_on_c, 1, 57, 127
2, 108160, Note_off_c, 1, 57, 0
2, 108200, Note_on_c, 1, 53, 127
2, 108520, Note_off_c, 1, 53, 0
2, 108560, Note_on_c, 1, 46, 127
2, 108880, Note_off_c, 1, 46, 0
2, 108920, Note_on_c, 1, 41, 127
2, 109120, Note_off_c, 1, 41, 0
2, 109160, Note_on_c, 1, 41, 127
2, 109280, Note_off_c, 1, 41, 0
2, 109320, Note_on_c, 1, 39, 127
2, 109640, Note_off_c, 1, 39, 0
2, 109720, Note_on_c, 1, 34, 127
2, 110040, Note_off_c, 1, 34, 0
2, 110080, Note_on_c, 1, 34, 127
2, 110400, Note_off_c, 1, 34, 0
2, 110440, Note_on_c, 1, 35, 127
2, 110760, Note_off_c, 1, 35, 0
2, 110800, Note_on_c, 1, 34, 127
2, 111160, Note_off_c, 1, 34, 0
2, 111240, Note_on_c, 1, 34, 127
2, 111560, Note_off_c, 1, 34, 0
2, 111600, Note_on_c, 1, 34, 127
2, 111920, Note_off_c, 1, 34, 0
2, 111960, Note_on_c, 1, 34, 127
2, 112280, Note_off_c, 1, 34, 0
2, 112320, Note_on_c, 1, 34, 127
2, 112640, Note_off_c, 1, 34, 0
2, 112680, Note_on_c, 1, 34, 127
2, 113000, Note_off_c, 1, 34, 0
2, 115800, Note_on_c, 1, 61, 127
2, 115840, Note_on_c, 1, 60, 127
2, 115840, Note_off_c, 1, 61, 0
2, 116120, Note_off_c, 1, 60, 0
2, 116160, Note_on_c, 1, 61, 127
2, 116880, Note_on_c, 1, 60, 127
2, 116880, Note_off_c, 1, 61, 0
2, 117560, Note_off_c, 1, 60, 0
2, 117600, Note_on_c, 1, 57, 127
2, 117680, Note_off_c, 1, 57, 0
2, 117720, Note_on_c, 1, 57, 127
2, 118360, Note_off_c, 1, 57, 0
2, 118400, Note_on_c, 1, 60, 127
2, 118720, Note_off_c, 1, 60, 0
2, 118760, Note_on_c, 1, 61, 127
2, 119080, Note_off_c, 1, 61, 0
2, 119120, Note_on_c, 1, 60, 127
2, 119440, Note_off_c, 1, 60, 0
2, 119440, Note_on_c, 1, 61, 127
2, 119480, Note_off_c, 1, 61, 0
2, 119520, Note_on_c, 1, 58, 127
2, 119840, Note_off_c, 1, 58, 0
2, 119920, Note_on_c, 1, 51, 127
2, 120000, Note_off_c, 1, 51, 0
2, 120040, End_track
3, 0, Start_track
3, 0, Title_t, "MIDI"
3, 1536, End_track
0, 0, End_of_file
