0, 0, Header, 1, 3, 192
1, 0, Start_track
1, 0, Time_signature, 4, 2, 24, 8
1, 0, Tempo, 500000
1, 120040, End_track
2, 0, Start_track
2, 0, Text_t, "random instrument: random person i dunno whatev"
2, 0, Title_t, "Track 1"
2, 0, Note_on_c, 1, 40, 127
2, 0, Note_on_c, 1, 48, 127
2, 0, Note_on_c, 1, 56, 127
2, 0, Note_on_c, 1, 60, 127
2, 40, Note_off_c, 1, 40, 0
2, 40, Note_off_c, 1, 48, 0
2, 40, Note_on_c, 1, 55, 127
2, 40, Note_off_c, 1, 56, 0
2, 40, Note_off_c, 1, 60, 0
2, 40, Note_on_c, 1, 72, 127
2, 40, Note_on_c, 1, 75, 127
2, 40, Note_on_c, 1, 79, 127
2, 40, Note_on_c, 1, 84, 127
2, 80, Note_off_c, 1, 55, 0
2, 80, Note_off_c, 1, 72, 0
2, 80, Note_off_c, 1, 75, 0
2, 80, Note_off_c, 1, 79, 0
2, 80, Note_off_c, 1, 84, 0
2, 120, Note_on_c, 1, 40, 127
2, 120, Note_on_c, 1, 48, 127
2, 120, Note_on_c, 1, 56, 127
2, 120, Note_on_c, 1, 60, 127
2, 160, Note_off_c, 1, 40, 0
2, 160, Note_on_c, 1, 41, 127
2, 160, Note_off_c, 1, 48, 0
2, 160, Note_on_c, 1, 50, 127
2, 160, Note_on_c, 1, 53, 127
2, 160, Note_off_c, 1, 56, 0
2, 160, Note_off_c, 1, 60, 0
2, 160, Note_on_c, 1, 81, 127
2, 160, Note_on_c, 1, 86, 127
2, 200, Note_on_c, 1, 35, 127
2, 200, Note_on_c, 1, 39, 127
2, 200, Note_off_c, 1, 41, 0
2, 200, Note_on_c, 1, 47, 127
2, 200, Note_off_c, 1, 53, 0
2, 200, Note_off_c, 1, 81, 0
2, 200, Note_off_c, 1, 86, 0
2, 240, Note_off_c, 1, 35, 0
2, 240, Note_off_c, 1, 39, 0
2, 240, Note_off_c, 1, 47, 0
2, 240, Note_off_c, 1, 50, 0
2, 240, Note_on_c, 1, 64, 127
2, 240, Note_on_c, 1, 78, 127
2, 240, Note_on_c, 1, 81, 127
2, 240, Note_on_c, 1, 83, 127
2, 240, Note_on_c, 1, 90, 127
2, 280, Note_off_c, 1, 64, 0
2, 280, Note_on_c, 1, 76, 127
2, 280, Note_off_c, 1, 78, 0
2, 280, Note_on_c, 1, 80, 127
2, 280, Note_off_c, 1, 81, 0
2, 280, Note_on_c, 1, 89, 127
2, 280, Note_off_c, 1, 90, 0
2, 320, Note_on_c, 1, 64, 127
2, 320, Note_off_c, 1, 76, 0
2, 320, Note_off_c, 1, 80, 0
2, 320, Note_on_c, 1, 81, 127
2, 320, Note_off_c, 1, 89, 0
2, 320, Note_on_c, 1, 90, 127
2, 360, Note_on_c, 1, 52, 127
2, 360, Note_on_c, 1, 59, 127
2, 360, Note_on_c, 1, 62, 127
2, 360, Note_off_c, 1, 64, 0
2, 360, Note_on_c, 1, 80, 127
2, 360, Note_off_c, 1, 81, 0
2, 360, Note_off_c, 1, 83, 0
2, 360, Note_off_c, 1, 90, 0
2, 360, Note_on_c, 1, 91, 127
2, 400, Note_off_c, 1, 52, 0
2, 400, Note_off_c, 1, 59, 0
2, 400, Note_off_c, 1, 62, 0
2, 400, Note_on_c, 1, 64, 127
2, 400, Note_off_c, 1, 80, 0
2, 400, Note_on_c, 1, 85, 127
2, 400, Note_on_c, 1, 88, 127
2, 400, Note_off_c, 1, 91, 0
2, 400, Note_on_c, 1, 92, 127
2, 440, Note_on_c, 1, 38, 127
2, 440, Note_on_c, 1, 45, 127
2, 440, Note_on_c, 1, 47, 127
2, 440, Note_on_c, 1, 56, 127
2, 440, Note_off_c, 1, 64, 0
2, 440, Note_on_c, 1, 68, 127
2, 440, Note_off_c, 1, 85, 0
2, 440, Note_off_c, 1, 88, 0
2, 440, Note_off_c, 1, 92, 0
2, 480, Note_on_c, 1, 32, 127
2, 480, Note_on_c, 1, 37, 127
2, 480, Note_off_c, 1, 38, 0
2, 480, Note_off_c, 1, 47, 0
2, 480, Note_on_c, 1, 48, 127
2, 480, Note_on_c, 1, 54, 127
2, 480, Note_off_c, 1, 56, 0
2, 480, Note_off_c, 1, 68, 0
2, 520, Note_off_c, 1, 32, 0
2, 520, Note_off_c, 1, 37, 0
2, 520, Note_on_c, 1, 43, 127
2, 520, Note_off_c, 1, 45, 0
2, 520, Note_on_c, 1, 46, 127
2, 520, Note_off_c, 1, 48, 0
2, 520, Note_on_c, 1, 51, 127
2, 520, Note_off_c, 1, 54, 0
2, 520, Note_on_c, 1, 55, 127
2, 560, Note_off_c, 1, 43, 0
2, 560, Note_off_c, 1, 46, 0
2, 560, Note_off_c, 1, 51, 0
2, 560, Note_on_c, 1, 53, 127
2, 560, Note_off_c, 1, 55, 0
2, 560, Note_on_c, 1, 85, 127
2, 560, Note_on_c, 1, 92, 127
2, 560, Note_on_c, 1, 95, 127
2, 560, Note_on_c, 1, 97, 127
2, 600, Note_on_c, 1, 44, 127
2, 600, Note_on_c, 1, 52, 127
2, 600, Note_off_c, 1, 53, 0
2, 600, Note_on_c, 1, 72, 127
2, 600, Note_on_c, 1, 76, 127
2, 600, Note_off_c, 1, 85, 0
2, 600, Note_off_c, 1, 92, 0
2, 600, Note_off_c, 1, 95, 0
2, 600, Note_off_c, 1, 97, 0
2, 640, Note_on_c, 1, 35, 127
2, 640, Note_on_c, 1, 39, 127
2, 640, Note_on_c, 1, 42, 127
2, 640, Note_off_c, 1, 44, 0
2, 640, Note_on_c, 1, 47, 127
2, 640, Note_off_c, 1, 52, 0
2, 640, Note_on_c, 1, 54, 127
2, 640, Note_on_c, 1, 57, 127
2, 640, Note_on_c, 1, 63, 127
2, 640, Note_off_c, 1, 72, 0
2, 640, Note_off_c, 1, 76, 0
2, 680, Note_off_c, 1, 35, 0
2, 680, Note_off_c, 1, 39, 0
2, 680, Note_on_c, 1, 41, 127
2, 680, Note_off_c, 1, 42, 0
2, 680, Note_off_c, 1, 54, 0
2, 680, Note_off_c, 1, 57, 0
2, 680, Note_off_c, 1, 63, 0
2, 720, Note_off_c, 1, 47, 0
2, 720, Note_on_c, 1, 51, 127
2, 720, Note_on_c, 1, 53, 127
2, 720, Note_on_c, 1, 72, 127
2, 760, Note_off_c, 1, 41, 0
2, 760, Note_off_c, 1, 51, 0
2, 760, Note_on_c, 1, 52, 127
2, 760, Note_off_c, 1, 53, 0
2, 760, Note_on_c, 1, 56, 127
2, 760, Note_on_c, 1, 62, 127
2, 760, Note_off_c, 1, 72, 0
2, 760, Note_on_c, 1, 78, 127
2, 800, Note_off_c, 1, 52, 0
2, 800, Note_off_c, 1, 56, 0
2, 800, Note_off_c, 1, 62, 0
2, 800, Note_on_c, 1, 77, 127
2, 800, Note_off_c, 1, 78, 0
2, 800, Note_on_c, 1, 85, 127
2, 800, Note_on_c, 1, 94, 127
2, 840, Note_on_c, 1, 53, 127
2, 840, Note_on_c, 1, 59, 127
2, 840, Note_on_c, 1, 63, 127
2, 840, Note_on_c, 1, 68, 127
2, 840, Note_off_c, 1, 77, 0
2, 840, Note_on_c, 1, 80, 127
2, 840, Note_on_c, 1, 83, 127
2, 840, Note_off_c, 1, 85, 0
2, 840, Note_off_c, 1, 94, 0
2, 880, Note_off_c, 1, 59, 0
2, 880, Note_on_c, 1, 60, 127
2, 880, Note_off_c, 1, 68, 0
2, 880, Note_on_c, 1, 70, 127
2, 880, Note_off_c, 1, 80, 0
2, 880, Note_off_c, 1, 83, 0
2, 880, Note_on_c, 1, 99, 127
2, 920, Note_on_c, 1, 47, 127
2, 920, Note_on_c, 1, 52, 127
2, 920, Note_off_c, 1, 53, 0
2, 920, Note_on_c, 1, 55, 127
2, 920, Note_on_c, 1, 59, 127
2, 920, Note_off_c, 1, 60, 0
2, 920, Note_off_c, 1, 63, 0
2, 920, Note_off_c, 1, 70, 0
2, 920, Note_on_c, 1, 88, 127
2, 920, Note_off_c, 1, 99, 0
2, 960, Note_off_c, 1, 47, 0
2, 960, Note_off_c, 1, 52, 0
2, 960, Note_on_c, 1, 58, 127
2, 960, Note_off_c, 1, 59, 0
2, 960, Note_on_c, 1, 61, 127
2, 960, Note_on_c, 1, 64, 127
2, 960, Note_on_c, 1, 70, 127
2, 960, Note_on_c, 1, 73, 127
2, 960, Note_on_c, 1, 76, 127
2, 960, Note_on_c, 1, 82, 127
2, 960, Note_off_c, 1, 88, 0
2, 1000, Note_on_c, 1, 37, 127
2, 1000, Note_on_c, 1, 49, 127
2, 1000, Note_on_c, 1, 54, 127
2, 1000, Note_off_c, 1, 55, 0
2, 1000, Note_off_c, 1, 61, 0
2, 1000, Note_off_c, 1, 64, 0
2, 1000, Note_on_c, 1, 66, 127
2, 1000, Note_off_c, 1, 70, 0
2, 1000, Note_off_c, 1, 73, 0
2, 1000, Note_off_c, 1, 76, 0
2, 1000, Note_off_c, 1, 82, 0
2, 1040, Note_off_c, 1, 37, 0
2, 1040, Note_off_c, 1, 49, 0
2, 1040, Note_off_c, 1, 54, 0
2, 1040, Note_off_c, 1, 58, 0
2, 1040, Note_on_c, 1, 71, 127
2, 1040, Note_on_c, 1, 74, 127
2, 1040, Note_on_c, 1, 85, 127
2, 1080, Note_on_c, 1, 54, 127
2, 1080, Note_on_c, 1, 59, 127
2, 1080, Note_on_c, 1, 62, 127
2, 1080, Note_on_c, 1, 65, 127
2, 1080, Note_off_c, 1, 66, 0
2, 1080, Note_off_c, 1, 71, 0
2, 1080, Note_off_c, 1, 74, 0
2, 1080, Note_off_c, 1, 85, 0
2, 1080, Note_on_c, 1, 101, 127
2, 1080, Note_on_c, 1, 102, 127
2, 1120, Note_off_c, 1, 54, 0
2, 1120, Note_off_c, 1, 59, 0
2, 1120, Note_off_c, 1, 62, 0
2, 1120, Note_off_c, 1, 65, 0
2, 1120, Note_on_c, 1, 79, 127
2, 1120, Note_on_c, 1, 83, 127
2, 1120, Note_on_c, 1, 93, 127
2, 1120, Note_on_c, 1, 98, 127
2, 1120, Note_off_c, 1, 101, 0
2, 1160, Note_on_c, 1, 54, 127
2, 1160, Note_on_c, 1, 60, 127
2, 1160, Note_on_c, 1, 66, 127
2, 1160, Note_on_c, 1, 75, 127
2, 1160, Note_off_c, 1, 79, 0
2, 1160, Note_off_c, 1, 83, 0
2, 1160, Note_on_c, 1, 84, 127
2, 1160, Note_off_c, 1, 93, 0
2, 1160, Note_off_c, 1, 98, 0
2, 1160, Note_off_c, 1, 102, 0
2, 1200, Note_on_c, 1, 46, 127
2, 1200, Note_off_c, 1, 54, 0
2, 1200, Note_off_c, 1, 60, 0
2, 1200, Note_on_c, 1, 65, 127
2, 1200, Note_off_c, 1, 66, 0
2, 1200, Note_on_c, 1, 70, 127
2, 1200, Note_on_c, 1, 77, 127
2, 1200, Note_off_c, 1, 84, 0
2, 1240, Note_off_c, 1, 46, 0
2, 1240, Note_off_c, 1, 70, 0
2, 1240, Note_on_c, 1, 72, 127
2, 1240, Note_off_c, 1, 75, 0
2, 1240, Note_off_c, 1, 77, 0
2, 1240, Note_on_c, 1, 86, 127
2, 1240, Note_on_c, 1, 89, 127
2, 1280, Note_on_c, 1, 39, 127
2, 1280, Note_on_c, 1, 46, 127
2, 1280, Note_on_c, 1, 49, 127
2, 1280, Note_on_c, 1, 51, 127
2, 1280, Note_off_c, 1, 65, 0
2, 1280, Note_on_c, 1, 67, 127
2, 1280, Note_off_c, 1, 72, 0
2, 1280, Note_off_c, 1, 86, 0
2, 1280, Note_off_c, 1, 89, 0
2, 1320, Note_off_c, 1, 39, 0
2, 1320, Note_off_c, 1, 46, 0
2, 1320, Note_off_c, 1, 49, 0
2, 1320, Note_off_c, 1, 51, 0
2, 1320, Note_on_c, 1, 62, 127
2, 1320, Note_on_c, 1, 66, 127
2, 1320, Note_off_c, 1, 67, 0
2, 1320, Note_on_c, 1, 68, 127
2, 1320, Note_on_c, 1, 85, 127
2, 1360, Note_on_c, 1, 43, 127
2, 1360, Note_on_c, 1, 46, 127
2, 1360, Note_on_c, 1, 51, 127
2, 1360, Note_on_c, 1, 58, 127
2, 1360, Note_off_c, 1, 62, 0
2, 1360, Note_off_c, 1, 66, 0
2, 1360, Note_on_c, 1, 67, 127
2, 1360, Note_off_c, 1, 68, 0
2, 1360, Note_off_c, 1, 85, 0
2, 1400, Note_off_c, 1, 43, 0
2, 1400, Note_off_c, 1, 46, 0
2, 1400, Note_off_c, 1, 51, 0
2, 1400, Note_on_c, 1, 56, 127
2, 1400, Note_off_c, 1, 58, 0
2, 1400, Note_on_c, 1, 59, 127
2, 1400, Note_on_c, 1, 61, 127
2, 1400, Note_on_c, 1, 65, 127
2, 1400, Note_off_c, 1, 67, 0
2, 1400, Note_on_c, 1, 77, 127
2, 1400, Note_on_c, 1, 89, 127
2, 1440, Note_off_c, 1, 56, 0
2, 1440, Note_off_c, 1, 59, 0
2, 1440, Note_off_c, 1, 61, 0
2, 1440, Note_off_c, 1, 65, 0
2, 1440, Note_on_c, 1, 68, 127
2, 1440, Note_on_c, 1, 72, 127
2, 1440, Note_on_c, 1, 75, 127
2, 1440, Note_off_c, 1, 77, 0
2, 1440, Note_on_c, 1, 78, 127
2, 1440, Note_off_c, 1, 89, 0
2, 1440, Note_on_c, 1, 93, 127
2, 1480, Note_on_c, 1, 27, 127
2, 1480, Note_on_c, 1, 39, 127
2, 1480, Note_on_c, 1, 55, 127
2, 1480, Note_on_c, 1, 58, 127
2, 1480, Note_on_c, 1, 63, 127
2, 1480, Note_off_c, 1, 68, 0
2, 1480, Note_off_c, 1, 72, 0
2, 1480, Note_off_c, 1, 78, 0
2, 1480, Note_on_c, 1, 79, 127
2, 1480, Note_on_c, 1, 82, 127
2, 1480, Note_on_c, 1, 87, 127
2, 1480, Note_off_c, 1, 93, 0
2, 1520, Note_off_c, 1, 27, 0
2, 1520, Note_on_c, 1, 45, 127
2, 1520, Note_off_c, 1, 55, 0
2, 1520, Note_off_c, 1, 58, 0
2, 1520, Note_on_c, 1, 60, 127
2, 1520, Note_off_c, 1, 63, 0
2, 1520, Note_on_c, 1, 66, 127
2, 1520, Note_on_c, 1, 69, 127
2, 1520, Note_off_c, 1, 75, 0
2, 1520, Note_off_c, 1, 79, 0
2, 1520, Note_off_c, 1, 82, 0
2, 1520, Note_off_c, 1, 87, 0
2, 1560, Note_on_c, 1, 35, 127
2, 1560, Note_off_c, 1, 39, 0
2, 1560, Note_on_c, 1, 42, 127
2, 1560, Note_off_c, 1, 45, 0
2, 1560, Note_on_c, 1, 47, 127
2, 1560, Note_on_c, 1, 59, 127
2, 1560, Note_off_c, 1, 60, 0
2, 1560, Note_on_c, 1, 62, 127
2, 1560, Note_off_c, 1, 69, 0
2, 1560, Note_on_c, 1, 71, 127
2, 1560, Note_on_c, 1, 73, 127
2, 1560, Note_on_c, 1, 74, 127
2, 1560, Note_on_c, 1, 85, 127
2, 1560, Note_on_c, 1, 86, 127
2, 1600, Note_off_c, 1, 35, 0
2, 1600, Note_off_c, 1, 42, 0
2, 1600, Note_off_c, 1, 47, 0
2, 1600, Note_off_c, 1, 59, 0
2, 1600, Note_off_c, 1, 62, 0
2, 1600, Note_off_c, 1, 66, 0
2, 1600, Note_on_c, 1, 70, 127
2, 1600, Note_off_c, 1, 71, 0
2, 1600, Note_off_c, 1, 73, 0
2, 1600, Note_off_c, 1, 74, 0
2, 1600, Note_off_c, 1, 85, 0
2, 1600, Note_off_c, 1, 86, 0
2, 1600, Note_on_c, 1, 90, 127
2, 1600, Note_on_c, 1, 93, 127
2, 1640, Note_on_c, 1, 46, 127
2, 1640, Note_on_c, 1, 53, 127
2, 1640, Note_on_c, 1, 60, 127
2, 1640, Note_on_c, 1, 63, 127
2, 1640, Note_off_c, 1, 70, 0
2, 1640, Note_on_c, 1, 75, 127
2, 1640, Note_off_c, 1, 90, 0
2, 1640, Note_off_c, 1, 93, 0
2, 1680, Note_on_c, 1, 36, 127
2, 1680, Note_on_c, 1, 43, 127
2, 1680, Note_off_c, 1, 46, 0
2, 1680, Note_on_c, 1, 48, 127
2, 1680, Note_on_c, 1, 52, 127
2, 1680, Note_off_c, 1, 53, 0
2, 1680, Note_off_c, 1, 63, 0
2, 1680, Note_off_c, 1, 75, 0
2, 1680, Note_on_c, 1, 87, 127
2, 1720, Note_off_c, 1, 36, 0
2, 1720, Note_off_c, 1, 43, 0
2, 1720, Note_on_c, 1, 45, 127
2, 1720, Note_off_c, 1, 48, 0
2, 1720, Note_on_c, 1, 55, 127
2, 1720, Note_off_c, 1, 60, 0
2, 1720, Note_on_c, 1, 61, 127
2, 1720, Note_on_c, 1, 66, 127
2, 1720, Note_on_c, 1, 67, 127
2, 1720, Note_on_c, 1, 70, 127
2, 1720, Note_on_c, 1, 71, 127
2, 1720, Note_off_c, 1, 87, 0
2, 1760, Note_off_c, 1, 45, 0
2, 1760, Note_off_c, 1, 52, 0
2, 1760, Note_on_c, 1, 54, 127
2, 1760, Note_off_c, 1, 55, 0
2, 1760, Note_on_c, 1, 65, 127
2, 1760, Note_off_c, 1, 66, 0
2, 1760, Note_off_c, 1, 67, 0
2, 1760, Note_off_c, 1, 70, 0
2, 1760, Note_off_c, 1, 71, 0
2, 1760, Note_on_c, 1, 77, 127
2, 1760, Note_on_c, 1, 85, 127
2, 1800, Note_off_c, 1, 54, 0
2, 1800, Note_on_c, 1, 58, 127
2, 1800, Note_off_c, 1, 61, 0
2, 1800, Note_on_c, 1, 63, 127
2, 1800, Note_off_c, 1, 65, 0
2, 1800, Note_on_c, 1, 67, 127
2, 1800, Note_off_c, 1, 77, 0
2, 1800, Note_off_c, 1, 85, 0
2, 1800, Note_on_c, 1, 98, 127
2, 1840, Note_off_c, 1, 58, 0
2, 1840, Note_off_c, 1, 67, 0
2, 1840, Note_on_c, 1, 72, 127
2, 1840, Note_on_c, 1, 91, 127
2, 1840, Note_off_c, 1, 98, 0
2, 1880, Note_off_c, 1, 63, 0
2, 1880, Note_off_c, 1, 72, 0
2, 1880, Note_off_c, 1, 91, 0
2, 1920, Note_on_c, 1, 49, 127
2, 1920, Note_on_c, 1, 52, 127
2, 1920, Note_on_c, 1, 55, 127
2, 1920, Note_on_c, 1, 58, 127
2, 1920, Note_on_c, 1, 88, 127
2, 1960, Note_on_c, 1, 28, 127
2, 1960, Note_on_c, 1, 40, 127
2, 1960, Note_off_c, 1, 49, 0
2, 1960, Note_off_c, 1, 52, 0
2, 1960, Note_off_c, 1, 55, 0
2, 1960, Note_off_c, 1, 58, 0
2, 1960, Note_on_c, 1, 69, 127
2, 1960, Note_off_c, 1, 88, 0
2, 2000, Note_off_c, 1, 28, 0
2, 2000, Note_off_c, 1, 40, 0
2, 2000, Note_on_c, 1, 62, 127
2, 2000, Note_off_c, 1, 69, 0
2, 2000, Note_on_c, 1, 70, 127
2, 2000, Note_on_c, 1, 91, 127
2, 2040, Note_off_c, 1, 62, 0
2, 2040, Note_on_c, 1, 68, 127
2, 2040, Note_off_c, 1, 70, 0
2, 2040, Note_on_c, 1, 73, 127
2, 2040, Note_on_c, 1, 76, 127
2, 2040, Note_on_c, 1, 80, 127
2, 2040, Note_on_c, 1, 87, 127
2, 2040, Note_off_c, 1, 91, 0
2, 2080, Note_off_c, 1, 68, 0
2, 2080, Note_on_c, 1, 70, 127
2, 2080, Note_off_c, 1, 73, 0
2, 2080, Note_off_c, 1, 76, 0
2, 2080, Note_off_c, 1, 80, 0
2, 2080, Note_off_c, 1, 87, 0
2, 2080, Note_on_c, 1, 96, 127
2, 2120, Note_on_c, 1, 56, 127
2, 2120, Note_on_c, 1, 59, 127
2, 2120, Note_on_c, 1, 68, 127
2, 2120, Note_off_c, 1, 70, 0
2, 2120, Note_on_c, 1, 76, 127
2, 2120, Note_on_c, 1, 82, 127
2, 2120, Note_off_c, 1, 96, 0
2, 2160, Note_off_c, 1, 56, 0
2, 2160, Note_on_c, 1, 57, 127
2, 2160, Note_off_c, 1, 59, 0
2, 2160, Note_on_c, 1, 66, 127
2, 2160, Note_off_c, 1, 68, 0
2, 2160, Note_on_c, 1, 69, 127
2, 2160, Note_off_c, 1, 76, 0
2, 2160, Note_off_c, 1, 82, 0
2, 2160, Note_on_c, 1, 88, 127
2, 2160, Note_on_c, 1, 90, 127
2, 2200, Note_on_c, 1, 53, 127
2, 2200, Note_off_c, 1, 57, 0
2, 2200, Note_off_c, 1, 66, 0
2, 2200, Note_off_c, 1, 69, 0
2, 2200, Note_on_c, 1, 84, 127
2, 2200, Note_off_c, 1, 88, 0
2, 2200, Note_off_c, 1, 90, 0
2, 2200, Note_on_c, 1, 93, 127
2, 2200, Note_on_c, 1, 96, 127
2, 2240, Note_off_c, 1, 53, 0
2, 2240, Note_on_c, 1, 61, 127
2, 2240, Note_on_c, 1, 75, 127
2, 2240, Note_on_c, 1, 80, 127
2, 2240, Note_off_c, 1, 84, 0
2, 2240, Note_off_c, 1, 93, 0
2, 2240, Note_off_c, 1, 96, 0
2, 2280, Note_on_c, 1, 60, 127
2, 2280, Note_off_c, 1, 61, 0
2, 2280, Note_on_c, 1, 68, 127
2, 2280, Note_off_c, 1, 75, 0
2, 2280, Note_on_c, 1, 87, 127
2, 2320, Note_off_c, 1, 60, 0
2, 2320, Note_on_c, 1, 64, 127
2, 2320, Note_on_c, 1, 67, 127
2, 2320, Note_off_c, 1, 68, 0
2, 2320, Note_on_c, 1, 70, 127
2, 2320, Note_on_c, 1, 76, 127
2, 2320, Note_off_c, 1, 80, 0
2, 2320, Note_off_c, 1, 87, 0
2, 2320, Note_on_c, 1, 91, 127
2, 2320, Note_on_c, 1, 95, 127
2, 2360, Note_on_c, 1, 57, 127
2, 2360, Note_on_c, 1, 62, 127
2, 2360, Note_off_c, 1, 64, 0
2, 2360, Note_on_c, 1, 65, 127
2, 2360, Note_off_c, 1, 67, 0
2, 2360, Note_off_c, 1, 76, 0
2, 2360, Note_on_c, 1, 86, 127
2, 2360, Note_off_c, 1, 95, 0
2, 2400, Note_on_c, 1, 56, 127
2, 2400, Note_off_c, 1, 57, 0
2, 2400, Note_off_c, 1, 62, 0
2, 2400, Note_off_c, 1, 65, 0
2, 2400, Note_on_c, 1, 68, 127
2, 2400, Note_off_c, 1, 70, 0
2, 2400, Note_on_c, 1, 77, 127
2, 2400, Note_off_c, 1, 91, 0
2, 2440, Note_off_c, 1, 56, 0
2, 2440, Note_on_c, 1, 64, 127
2, 2440, Note_on_c, 1, 67, 127
2, 2440, Note_off_c, 1, 68, 0
2, 2440, Note_on_c, 1, 70, 127
2, 2440, Note_on_c, 1, 72, 127
2, 2440, Note_off_c, 1, 77, 0
2, 2440, Note_on_c, 1, 82, 127
2, 2440, Note_off_c, 1, 86, 0
2, 2480, Note_on_c, 1, 57, 127
2, 2480, Note_off_c, 1, 64, 0
2, 2480, Note_off_c, 1, 67, 0
2, 2480, Note_off_c, 1, 70, 0
2, 2480, Note_off_c, 1, 72, 0
2, 2480, Note_on_c, 1, 81, 127
2, 2480, Note_off_c, 1, 82, 0
2, 2480, Note_on_c, 1, 89, 127
2, 2520, Note_on_c, 1, 35, 127
2, 2520, Note_on_c, 1, 42, 127
2, 2520, Note_on_c, 1, 54, 127
2, 2520, Note_off_c, 1, 57, 0
2, 2520, Note_on_c, 1, 74, 127
2, 2520, Note_on_c, 1, 77, 127
2, 2520, Note_off_c, 1, 81, 0
2, 2520, Note_on_c, 1, 83, 127
2, 2520, Note_off_c, 1, 89, 0
2, 2560, Note_off_c, 1, 35, 0
2, 2560, Note_off_c, 1, 42, 0
2, 2560, Note_off_c, 1, 54, 0
2, 2560, Note_on_c, 1, 60, 127
2, 2560, Note_on_c, 1, 62, 127
2, 2560, Note_on_c, 1, 65, 127
2, 2560, Note_on_c, 1, 82, 127
2, 2560, Note_off_c, 1, 83, 0
2, 2560, Note_on_c, 1, 86, 127
2, 2600, Note_on_c, 1, 41, 127
2, 2600, Note_on_c, 1, 45, 127
2, 2600, Note_on_c, 1, 50, 127
2, 2600, Note_on_c, 1, 53, 127
2, 2600, Note_off_c, 1, 60, 0
2, 2600, Note_off_c, 1, 62, 0
2, 2600, Note_off_c, 1, 65, 0
2, 2600, Note_off_c, 1, 74, 0
2, 2600, Note_off_c, 1, 77, 0
2, 2600, Note_off_c, 1, 82, 0
2, 2640, Note_off_c, 1, 41, 0
2, 2640, Note_off_c, 1, 45, 0
2, 2640, Note_off_c, 1, 50, 0
2, 2640, Note_off_c, 1, 53, 0
2, 2640, Note_on_c, 1, 59, 127
2, 2640, Note_on_c, 1, 68, 127
2, 2640, Note_on_c, 1, 71, 127
2, 2640, Note_on_c, 1, 83, 127
2, 2640, Note_off_c, 1, 86, 0
2, 2640, Note_on_c, 1, 88, 127
2, 2680, Note_off_c, 1, 83, 0
2, 2680, Note_off_c, 1, 88, 0
2, 2680, Note_on_c, 1, 92, 127
2, 2720, Note_on_c, 1, 50, 127
2, 2720, Note_on_c, 1, 56, 127
2, 2720, Note_on_c, 1, 58, 127
2, 2720, Note_off_c, 1, 59, 0
2, 2720, Note_off_c, 1, 68, 0
2, 2720, Note_off_c, 1, 71, 0
2, 2720, Note_on_c, 1, 82, 127
2, 2720, Note_on_c, 1, 85, 127
2, 2720, Note_off_c, 1, 92, 0
2, 2720, Note_on_c, 1, 94, 127
2, 2760, Note_off_c, 1, 50, 0
2, 2760, Note_off_c, 1, 56, 0
2, 2760, Note_off_c, 1, 58, 0
2, 2760, Note_on_c, 1, 80, 127
2, 2760, Note_off_c, 1, 82, 0
2, 2760, Note_on_c, 1, 87, 127
2, 2760, Note_off_c, 1, 94, 0
2, 2800, Note_on_c, 1, 37, 127
2, 2800, Note_on_c, 1, 41, 127
2, 2800, Note_off_c, 1, 80, 0
2, 2800, Note_off_c, 1, 85, 0
2, 2800, Note_off_c, 1, 87, 0
2, 2800, Note_on_c, 1, 89, 127
2, 2800, Note_on_c, 1, 97, 127
2, 2800, Note_on_c, 1, 101, 127
2, 2840, Note_off_c, 1, 37, 0
2, 2840, Note_off_c, 1, 41, 0
2, 2840, Note_on_c, 1, 59, 127
2, 2840, Note_on_c, 1, 68, 127
2, 2840, Note_on_c, 1, 71, 127
2, 2840, Note_off_c, 1, 89, 0
2, 2840, Note_on_c, 1, 90, 127
2, 2840, Note_on_c, 1, 92, 127
2, 2840, Note_off_c, 1, 97, 0
2, 2840, Note_off_c, 1, 101, 0
2, 2880, Note_off_c, 1, 59, 0
2, 2880, Note_on_c, 1, 65, 127
2, 2880, Note_off_c, 1, 68, 0
2, 2880, Note_off_c, 1, 71, 0
2, 2880, Note_on_c, 1, 74, 127
2, 2880, Note_on_c, 1, 86, 127
2, 2880, Note_on_c, 1, 89, 127
2, 2880, Note_off_c, 1, 90, 0
2, 2880, Note_off_c, 1, 92, 0
2, 2920, Note_on_c, 1, 38, 127
2, 2920, Note_on_c, 1, 46, 127
2, 2920, Note_on_c, 1, 54, 127
2, 2920, Note_off_c, 1, 65, 0
2, 2920, Note_on_c, 1, 66, 127
2, 2920, Note_off_c, 1, 74, 0
2, 2920, Note_off_c, 1, 86, 0
2, 2920, Note_off_c, 1, 89, 0
2, 2960, Note_on_c, 1, 27, 127
2, 2960, Note_off_c, 1, 38, 0
2, 2960, Note_on_c, 1, 40, 127
2, 2960, Note_off_c, 1, 46, 0
2, 2960, Note_off_c, 1, 54, 0
2, 2960, Note_off_c, 1, 66, 0
2, 2960, Note_on_c, 1, 80, 127
2, 2960, Note_on_c, 1, 85, 127
2, 3000, Note_off_c, 1, 27, 0
2, 3000, Note_off_c, 1, 40, 0
2, 3000, Note_on_c, 1, 75, 127
2, 3000, Note_off_c, 1, 80, 0
2, 3000, Note_on_c, 1, 82, 127
2, 3000, Note_off_c, 1, 85, 0
2, 3000, Note_on_c, 1, 99, 127
2, 3000, Note_on_c, 1, 104, 127
2, 3040, Note_on_c, 1, 29, 127
2, 3040, Note_on_c, 1, 36, 127
2, 3040, Note_off_c, 1, 75, 0
2, 3040, Note_off_c, 1, 82, 0
2, 3040, Note_off_c, 1, 99, 0
2, 3040, Note_off_c, 1, 104, 0
2, 3080, Note_off_c, 1, 29, 0
2, 3080, Note_off_c, 1, 36, 0
2, 3080, Note_on_c, 1, 96, 127
2, 3080, Note_on_c, 1, 97, 127
2, 3080, Note_on_c, 1, 101, 127
2, 3080, Note_on_c, 1, 102, 127
2, 3120, Note_on_c, 1, 39, 127
2, 3120, Note_off_c, 1, 96, 0
2, 3120, Note_off_c, 1, 97, 0
2, 3120, Note_off_c, 1, 101, 0
2, 3120, Note_off_c, 1, 102, 0
2, 3120, Note_on_c, 1, 103, 127
2, 3160, Note_off_c, 1, 39, 0
2, 3160, Note_on_c, 1, 58, 127
2, 3160, Note_on_c, 1, 66, 127
2, 3160, Note_on_c, 1, 70, 127
2, 3160, Note_on_c, 1, 82, 127
2, 3160, Note_on_c, 1, 85, 127
2, 3160, Note_on_c, 1, 90, 127
2, 3160, Note_on_c, 1, 94, 127
2, 3160, Note_off_c, 1, 103, 0
2, 3200, Note_on_c, 1, 39, 127
2, 3200, Note_on_c, 1, 45, 127
2, 3200, Note_off_c, 1, 58, 0
2, 3200, Note_on_c, 1, 59, 127
2, 3200, Note_off_c, 1, 66, 0
2, 3200, Note_off_c, 1, 70, 0
2, 3200, Note_off_c, 1, 82, 0
2, 3200, Note_off_c, 1, 85, 0
2, 3200, Note_off_c, 1, 90, 0
2, 3200, Note_off_c, 1, 94, 0
2, 3240, Note_off_c, 1, 39, 0
2, 3240, Note_off_c, 1, 45, 0
2, 3240, Note_off_c, 1, 59, 0
2, 3240, Note_on_c, 1, 78, 127
2, 3240, Note_on_c, 1, 90, 127
2, 3240, Note_on_c, 1, 94, 127
2, 3240, Note_on_c, 1, 96, 127
2, 3280, Note_on_c, 1, 52, 127
2, 3280, Note_on_c, 1, 74, 127
2, 3280, Note_off_c, 1, 78, 0
2, 3280, Note_on_c, 1, 84, 127
2, 3280, Note_off_c, 1, 90, 0
2, 3280, Note_off_c, 1, 94, 0
2, 3280, Note_off_c, 1, 96, 0
2, 3320, Note_on_c, 1, 51, 127
2, 3320, Note_off_c, 1, 52, 0
2, 3320, Note_on_c, 1, 67, 127
2, 3320, Note_on_c, 1, 70, 127
2, 3320, Note_off_c, 1, 74, 0
2, 3320, Note_on_c, 1, 80, 127
2, 3320, Note_off_c, 1, 84, 0
2, 3360, Note_off_c, 1, 51, 0
2, 3360, Note_on_c, 1, 52, 127
2, 3360, Note_off_c, 1, 67, 0
2, 3360, Note_off_c, 1, 70, 0
2, 3360, Note_off_c, 1, 80, 0
2, 3360, Note_on_c, 1, 84, 127
2, 3360, Note_on_c, 1, 88, 127
2, 3400, Note_on_c, 1, 46, 127
2, 3400, Note_off_c, 1, 52, 0
2, 3400, Note_on_c, 1, 55, 127
2, 3400, Note_on_c, 1, 71, 127
2, 3400, Note_on_c, 1, 73, 127
2, 3400, Note_on_c, 1, 75, 127
2, 3400, Note_on_c, 1, 76, 127
2, 3400, Note_off_c, 1, 84, 0
2, 3400, Note_off_c, 1, 88, 0
2, 3440, Note_off_c, 1, 46, 0
2, 3440, Note_on_c, 1, 50, 127
2, 3440, Note_on_c, 1, 62, 127
2, 3440, Note_on_c, 1, 65, 127
2, 3440, Note_off_c, 1, 71, 0
2, 3440, Note_off_c, 1, 73, 0
2, 3440, Note_off_c, 1, 75, 0
2, 3440, Note_off_c, 1, 76, 0
2, 3440, Note_on_c, 1, 77, 127
2, 3480, Note_off_c, 1, 50, 0
2, 3480, Note_on_c, 1, 53, 127
2, 3480, Note_off_c, 1, 55, 0
2, 3480, Note_off_c, 1, 62, 0
2, 3480, Note_off_c, 1, 65, 0
2, 3480, Note_on_c, 1, 74, 127
2, 3480, Note_on_c, 1, 84, 127
2, 3520, Note_on_c, 1, 52, 127
2, 3520, Note_off_c, 1, 53, 0
2, 3520, Note_on_c, 1, 54, 127
2, 3520, Note_on_c, 1, 61, 127
2, 3520, Note_off_c, 1, 74, 0
2, 3520, Note_off_c, 1, 77, 0
2, 3520, Note_on_c, 1, 83, 127
2, 3520, Note_off_c, 1, 84, 0
2, 3560, Note_on_c, 1, 48, 127
2, 3560, Note_off_c, 1, 54, 0
2, 3560, Note_off_c, 1, 61, 0
2, 3560, Note_on_c, 1, 67, 127
2, 3560, Note_on_c, 1, 73, 127
2, 3560, Note_off_c, 1, 83, 0
2, 3600, Note_off_c, 1, 48, 0
2, 3600, Note_off_c, 1, 52, 0
2, 3600, Note_on_c, 1, 60, 127
2, 3600, Note_off_c, 1, 67, 0
2, 3600, Note_off_c, 1, 73, 0
2, 3600, Note_on_c, 1, 88, 127
2, 3600, Note_on_c, 1, 95, 127
2, 3640, Note_on_c, 1, 54, 127
2, 3640, Note_on_c, 1, 66, 127
2, 3640, Note_on_c, 1, 78, 127
2, 3640, Note_on_c, 1, 86, 127
2, 3640, Note_off_c, 1, 88, 0
2, 3640, Note_off_c, 1, 95, 0
2, 3680, Note_on_c, 1, 44, 127
2, 3680, Note_off_c, 1, 54, 0
2, 3680, Note_on_c, 1, 56, 127
2, 3680, Note_on_c, 1, 57, 127
2, 3680, Note_off_c, 1, 60, 0
2, 3680, Note_off_c, 1, 66, 0
2, 3680, Note_on_c, 1, 74, 127
2, 3680, Note_off_c, 1, 78, 0
2, 3680, Note_on_c, 1, 80, 127
2, 3680, Note_off_c, 1, 86, 0
2, 3720, Note_off_c, 1, 44, 0
2, 3720, Note_off_c, 1, 56, 0
2, 3720, Note_off_c, 1, 57, 0
2, 3720, Note_on_c, 1, 65, 127
2, 3720, Note_on_c, 1, 70, 127
2, 3720, Note_on_c, 1, 73, 127
2, 3720, Note_off_c, 1, 74, 0
2, 3720, Note_off_c, 1, 80, 0
2, 3720, Note_on_c, 1, 85, 127
2, 3720, Note_on_c, 1, 94, 127
2, 3720, Note_on_c, 1, 97, 127
2, 3760, Note_on_c, 1, 53, 127
2, 3760, Note_on_c, 1, 56, 127
2, 3760, Note_on_c, 1, 60, 127
2, 3760, Note_off_c, 1, 70, 0
2, 3760, Note_off_c, 1, 73, 0
2, 3760, Note_on_c, 1, 84, 127
2, 3760, Note_off_c, 1, 85, 0
2, 3760, Note_off_c, 1, 94, 0
2, 3760, Note_off_c, 1, 97, 0
2, 3800, Note_off_c, 1, 53, 0
2, 3800, Note_off_c, 1, 56, 0
2, 3800, Note_off_c, 1, 60, 0
2, 3800, Note_off_c, 1, 65, 0
2, 3800, Note_on_c, 1, 71, 127
2, 3800, Note_on_c, 1, 78, 127
2, 3800, Note_on_c, 1, 81, 127
2, 3800, Note_on_c, 1, 83, 127
2, 3800, Note_off_c, 1, 84, 0
2, 3800, Note_on_c, 1, 85, 127
2, 3840, Note_on_c, 1, 42, 127
2, 3840, Note_on_c, 1, 70, 127
2, 3840, Note_off_c, 1, 71, 0
2, 3840, Note_on_c, 1, 73, 127
2, 3840, Note_off_c, 1, 78, 0
2, 3840, Note_on_c, 1, 80, 127
2, 3840, Note_off_c, 1, 81, 0
2, 3840, Note_off_c, 1, 83, 0
2, 3840, Note_off_c, 1, 85, 0
2, 3880, Note_off_c, 1, 42, 0
2, 3880, Note_on_c, 1, 65, 127
2, 3880, Note_on_c, 1, 69, 127
2, 3880, Note_off_c, 1, 70, 0
2, 3880, Note_on_c, 1, 72, 127
2, 3880, Note_off_c, 1, 73, 0
2, 3880, Note_on_c, 1, 75, 127
2, 3880, Note_off_c, 1, 80, 0
2, 3880, Note_on_c, 1, 95, 127
2, 3920, Note_off_c, 1, 65, 0
2, 3920, Note_off_c, 1, 69, 0
2, 3920, Note_off_c, 1, 72, 0
2, 3920, Note_on_c, 1, 82, 127
2, 3920, Note_off_c, 1, 95, 0
2, 3920, Note_on_c, 1, 99, 127
2, 3920, Note_on_c, 1, 104, 127
2, 3960, Note_on_c, 1, 49, 127
2, 3960, Note_on_c, 1, 53, 127
2, 3960, Note_on_c, 1, 58, 127
2, 3960, Note_on_c, 1, 61, 127
2, 3960, Note_off_c, 1, 75, 0
2, 3960, Note_off_c, 1, 82, 0
2, 3960, Note_on_c, 1, 97, 127
2, 3960, Note_off_c, 1, 99, 0
2, 3960, Note_off_c, 1, 104, 0
2, 4000, Note_off_c, 1, 49, 0
2, 4000, Note_off_c, 1, 53, 0
2, 4000, Note_off_c, 1, 58, 0
2, 4000, Note_off_c, 1, 61, 0
2, 4000, Note_off_c, 1, 97, 0
2, 4040, Note_on_c, 1, 49, 127
2, 4040, Note_on_c, 1, 53, 127
2, 4040, Note_on_c, 1, 61, 127
2, 4040, Note_on_c, 1, 65, 127
2, 4040, Note_on_c, 1, 69, 127
2, 4080, Note_off_c, 1, 49, 0
2, 4080, Note_off_c, 1, 53, 0
2, 4080, Note_on_c, 1, 59, 127
2, 4080, Note_off_c, 1, 61, 0
2, 4080, Note_off_c, 1, 65, 0
2, 4080, Note_off_c, 1, 69, 0
2, 4080, Note_on_c, 1, 83, 127
2, 4080, Note_on_c, 1, 88, 127
2, 4120, Note_off_c, 1, 59, 0
2, 4120, Note_on_c, 1, 65, 127
2, 4120, Note_on_c, 1, 71, 127
2, 4120, Note_on_c, 1, 77, 127
2, 4120, Note_off_c, 1, 83, 0
2, 4120, Note_on_c, 1, 86, 127
2, 4120, Note_off_c, 1, 88, 0
2, 4160, Note_on_c, 1, 39, 127
2, 4160, Note_on_c, 1, 46, 127
2, 4160, Note_on_c, 1, 49, 127
2, 4160, Note_on_c, 1, 61, 127
2, 4160, Note_off_c, 1, 65, 0
2, 4160, Note_off_c, 1, 71, 0
2, 4160, Note_off_c, 1, 77, 0
2, 4160, Note_off_c, 1, 86, 0
2, 4200, Note_off_c, 1, 39, 0
2, 4200, Note_on_c, 1, 42, 127
2, 4200, Note_on_c, 1, 54, 127
2, 4200, Note_off_c, 1, 61, 0
2, 4200, Note_on_c, 1, 73, 127
2, 4240, Note_off_c, 1, 42, 0
2, 4240, Note_on_c, 1, 43, 127
2, 4240, Note_off_c, 1, 46, 0
2, 4240, Note_on_c, 1, 52, 127
2, 4240, Note_off_c, 1, 54, 0
2, 4240, Note_on_c, 1, 70, 127
2, 4240, Note_off_c, 1, 73, 0
2, 4280, Note_off_c, 1, 43, 0
2, 4280, Note_off_c, 1, 49, 0
2, 4280, Note_off_c, 1, 52, 0
2, 4280, Note_on_c, 1, 62, 127
2, 4280, Note_off_c, 1, 70, 0
2, 4280, Note_on_c, 1, 77, 127
2, 4280, Note_on_c, 1, 82, 127
2, 4280, Note_on_c, 1, 83, 127
2, 4320, Note_on_c, 1, 47, 127
2, 4320, Note_on_c, 1, 54, 127
2, 4320, Note_on_c, 1, 57, 127
2, 4320, Note_on_c, 1, 60, 127
2, 4320, Note_off_c, 1, 62, 0
2, 4320, Note_off_c, 1, 77, 0
2, 4320, Note_off_c, 1, 82, 0
2, 4320, Note_off_c, 1, 83, 0
2, 4320, Note_on_c, 1, 84, 127
2, 4360, Note_off_c, 1, 47, 0
2, 4360, Note_off_c, 1, 54, 0
2, 4360, Note_off_c, 1, 57, 0
2, 4360, Note_off_c, 1, 60, 0
2, 4360, Note_on_c, 1, 76, 127
2, 4360, Note_on_c, 1, 77, 127
2, 4360, Note_on_c, 1, 82, 127
2, 4400, Note_on_c, 1, 57, 127
2, 4400, Note_on_c, 1, 60, 127
2, 4400, Note_off_c, 1, 76, 0
2, 4400, Note_off_c, 1, 77, 0
2, 4400, Note_off_c, 1, 82, 0
2, 4400, Note_on_c, 1, 86, 127
2, 4440, Note_off_c, 1, 57, 0
2, 4440, Note_off_c, 1, 60, 0
2, 4440, Note_off_c, 1, 84, 0
2, 4440, Note_off_c, 1, 86, 0
2, 4440, Note_on_c, 1, 99, 127
2, 4440, Note_on_c, 1, 103, 127
2, 4480, Note_on_c, 1, 65, 127
2, 4480, Note_on_c, 1, 70, 127
2, 4480, Note_on_c, 1, 74, 127
2, 4480, Note_on_c, 1, 94, 127
2, 4480, Note_on_c, 1, 96, 127
2, 4480, Note_off_c, 1, 99, 0
2, 4480, Note_off_c, 1, 103, 0
2, 4520, Note_on_c, 1, 48, 127
2, 4520, Note_on_c, 1, 51, 127
2, 4520, Note_on_c, 1, 54, 127
2, 4520, Note_on_c, 1, 60, 127
2, 4520, Note_off_c, 1, 65, 0
2, 4520, Note_off_c, 1, 70, 0
2, 4520, Note_on_c, 1, 72, 127
2, 4520, Note_off_c, 1, 74, 0
2, 4520, Note_on_c, 1, 75, 127
2, 4520, Note_on_c, 1, 78, 127
2, 4520, Note_on_c, 1, 84, 127
2, 4520, Note_off_c, 1, 94, 0
2, 4520, Note_off_c, 1, 96, 0
2, 4560, Note_on_c, 1, 32, 127
2, 4560, Note_on_c, 1, 37, 127
2, 4560, Note_on_c, 1, 39, 127
2, 4560, Note_off_c, 1, 48, 0
2, 4560, Note_off_c, 1, 51, 0
2, 4560, Note_off_c, 1, 54, 0
2, 4560, Note_off_c, 1, 60, 0
2, 4560, Note_on_c, 1, 71, 127
2, 4560, Note_off_c, 1, 72, 0
2, 4560, Note_off_c, 1, 75, 0
2, 4560, Note_off_c, 1, 78, 0
2, 4560, Note_on_c, 1, 79, 127
2, 4560, Note_off_c, 1, 84, 0
2, 4600, Note_off_c, 1, 32, 0
2, 4600, Note_off_c, 1, 37, 0
2, 4600, Note_off_c, 1, 39, 0
2, 4600, Note_on_c, 1, 69, 127
2, 4600, Note_off_c, 1, 71, 0
2, 4600, Note_off_c, 1, 79, 0
2, 4600, Note_on_c, 1, 101, 127
2, 4640, Note_on_c, 1, 58, 127
2, 4640, Note_on_c, 1, 64, 127
2, 4640, Note_off_c, 1, 69, 0
2, 4640, Note_on_c, 1, 85, 127
2, 4640, Note_on_c, 1, 93, 127
2, 4640, Note_off_c, 1, 101, 0
2, 4680, Note_on_c, 1, 50, 127
2, 4680, Note_on_c, 1, 54, 127
2, 4680, Note_off_c, 1, 58, 0
2, 4680, Note_off_c, 1, 64, 0
2, 4680, Note_on_c, 1, 71, 127
2, 4680, Note_on_c, 1, 73, 127
2, 4680, Note_on_c, 1, 74, 127
2, 4680, Note_off_c, 1, 85, 0
2, 4680, Note_off_c, 1, 93, 0
2, 4720, Note_off_c, 1, 50, 0
2, 4720, Note_off_c, 1, 54, 0
2, 4720, Note_on_c, 1, 58, 127
2, 4720, Note_on_c, 1, 61, 127
2, 4720, Note_on_c, 1, 65, 127
2, 4720, Note_off_c, 1, 71, 0
2, 4720, Note_off_c, 1, 73, 0
2, 4720, Note_off_c, 1, 74, 0
2, 4720, Note_on_c, 1, 89, 127
2, 4720, Note_on_c, 1, 96, 127
2, 4760, Note_on_c, 1, 49, 127
2, 4760, Note_on_c, 1, 57, 127
2, 4760, Note_off_c, 1, 58, 0
2, 4760, Note_off_c, 1, 65, 0
2, 4760, Note_on_c, 1, 81, 127
2, 4760, Note_on_c, 1, 93, 127
2, 4760, Note_off_c, 1, 96, 0
2, 4800, Note_on_c, 1, 48, 127
2, 4800, Note_off_c, 1, 49, 0
2, 4800, Note_off_c, 1, 57, 0
2, 4800, Note_on_c, 1, 60, 127
2, 4800, Note_off_c, 1, 61, 0
2, 4800, Note_off_c, 1, 81, 0
2, 4800, Note_on_c, 1, 86, 127
2, 4800, Note_off_c, 1, 89, 0
2, 4800, Note_off_c, 1, 93, 0
2, 4800, Note_on_c, 1, 94, 127
2, 4800, Note_on_c, 1, 98, 127
2, 4840, Note_on_c, 1, 47, 127
2, 4840, Note_off_c, 1, 48, 0
2, 4840, Note_on_c, 1, 54, 127
2, 4840, Note_on_c, 1, 56, 127
2, 4840, Note_on_c, 1, 59, 127
2, 4840, Note_off_c, 1, 60, 0
2, 4840, Note_on_c, 1, 66, 127
2, 4840, Note_on_c, 1, 78, 127
2, 4840, Note_off_c, 1, 86, 0
2, 4840, Note_on_c, 1, 90, 127
2, 4840, Note_off_c, 1, 94, 0
2, 4840, Note_off_c, 1, 98, 0
2, 4880, Note_on_c, 1, 34, 127
2, 4880, Note_on_c, 1, 46, 127
2, 4880, Note_off_c, 1, 47, 0
2, 4880, Note_off_c, 1, 54, 0
2, 4880, Note_off_c, 1, 56, 0
2, 4880, Note_off_c, 1, 59, 0
2, 4880, Note_off_c, 1, 66, 0
2, 4880, Note_on_c, 1, 70, 127
2, 4880, Note_on_c, 1, 77, 127
2, 4880, Note_off_c, 1, 78, 0
2, 4880, Note_on_c, 1, 79, 127
2, 4880, Note_on_c, 1, 82, 127
2, 4880, Note_off_c, 1, 90, 0
2, 4920, Note_off_c, 1, 34, 0
2, 4920, Note_off_c, 1, 46, 0
2, 4920, Note_off_c, 1, 70, 0
2, 4920, Note_off_c, 1, 77, 0
2, 4920, Note_off_c, 1, 79, 0
2, 4920, Note_off_c, 1, 82, 0
2, 4960, Note_on_c, 1, 38, 127
2, 4960, Note_on_c, 1, 45, 127
2, 4960, Note_on_c, 1, 50, 127
2, 4960, Note_on_c, 1, 74, 127
2, 4960, Note_on_c, 1, 81, 127
2, 4960, Note_on_c, 1, 86, 127
2, 5000, Note_off_c, 1, 38, 0
2, 5000, Note_off_c, 1, 45, 0
2, 5000, Note_on_c, 1, 46, 127
2, 5000, Note_on_c, 1, 53, 127
2, 5000, Note_on_c, 1, 55, 127
2, 5000, Note_off_c, 1, 74, 0
2, 5000, Note_off_c, 1, 86, 0
2, 5040, Note_off_c, 1, 46, 0
2, 5040, Note_off_c, 1, 50, 0
2, 5040, Note_off_c, 1, 53, 0
2, 5040, Note_off_c, 1, 55, 0
2, 5040, Note_off_c, 1, 81, 0
2, 5240, Note_on_c, 1, 43, 127
2, 5240, Note_on_c, 1, 50, 127
2, 5240, Note_on_c, 1, 60, 127
2, 5240, Note_on_c, 1, 62, 127
2, 5240, Note_on_c, 1, 69, 127
2, 5440, Note_off_c, 1, 43, 0
2, 5440, Note_off_c, 1, 50, 0
2, 5440, Note_off_c, 1, 60, 0
2, 5440, Note_off_c, 1, 62, 0
2, 5440, Note_off_c, 1, 69, 0
2, 5720, Note_on_c, 1, 44, 127
2, 5720, Note_on_c, 1, 56, 127
2, 5720, Note_on_c, 1, 65, 127
2, 5720, Note_on_c, 1, 68, 127
2, 5720, Note_on_c, 1, 73, 127
2, 5960, Note_off_c, 1, 44, 0
2, 5960, Note_off_c, 1, 56, 0
2, 5960, Note_off_c, 1, 65, 0
2, 5960, Note_off_c, 1, 68, 0
2, 5960, Note_off_c, 1, 73, 0
2, 6040, Note_on_c, 1, 67, 127
2, 6040, Note_on_c, 1, 71, 127
2, 6040, Note_on_c, 1, 73, 127
2, 6040, Note_on_c, 1, 76, 127
2, 6040, Note_on_c, 1, 79, 127
2, 6040, Note_on_c, 1, 83, 127
2, 6040, Note_on_c, 1, 88, 127
2, 6040, Note_on_c, 1, 95, 127
2, 6240, Note_off_c, 1, 67, 0
2, 6240, Note_off_c, 1, 71, 0
2, 6240, Note_off_c, 1, 73, 0
2, 6240, Note_off_c, 1, 76, 0
2, 6240, Note_off_c, 1, 79, 0
2, 6240, Note_off_c, 1, 83, 0
2, 6240, Note_off_c, 1, 88, 0
2, 6240, Note_off_c, 1, 95, 0
2, 6280, Note_on_c, 1, 67, 127
2, 6280, Note_on_c, 1, 71, 127
2, 6280, Note_on_c, 1, 73, 127
2, 6280, Note_on_c, 1, 76, 127
2, 6280, Note_on_c, 1, 79, 127
2, 6280, Note_on_c, 1, 83, 127
2, 6280, Note_on_c, 1, 88, 127
2, 6280, Note_on_c, 1, 95, 127
2, 6520, Note_off_c, 1, 67, 0
2, 6520, Note_off_c, 1, 71, 0
2, 6520, Note_off_c, 1, 73, 0
2, 6520, Note_off_c, 1, 76, 0
2, 6520, Note_off_c, 1, 79, 0
2, 6520, Note_off_c, 1, 83, 0
2, 6520, Note_off_c, 1, 88, 0
2, 6520, Note_off_c, 1, 95, 0
2, 6640, Note_on_c, 1, 47, 127
2, 6720, Note_off_c, 1, 47, 0
2, 6760, Note_on_c, 1, 49, 127
2, 6760, Note_on_c, 1, 52, 127
2, 6760, Note_on_c, 1, 57, 127
2, 6760, Note_on_c, 1, 61, 127
2, 6760, Note_on_c, 1, 63, 127
2, 7000, Note_off_c, 1, 52, 0
2, 7000, Note_off_c, 1, 57, 0
2, 7000, Note_off_c, 1, 61, 0
2, 7000, Note_off_c, 1, 63, 0
2, 7040, Note_on_c, 1, 52, 127
2, 7040, Note_on_c, 1, 57, 127
2, 7040, Note_on_c, 1, 61, 127
2, 7040, Note_on_c, 1, 63, 127
2, 7200, Note_off_c, 1, 63, 0
2, 7240, Note_on_c, 1, 64, 127
2, 7360, Note_off_c, 1, 64, 0
2, 7400, Note_on_c, 1, 69, 127
2, 7560, Note_off_c, 1, 69, 0
2, 7600, Note_on_c, 1, 41, 127
2, 7600, Note_off_c, 1, 52, 0
2, 7600, Note_on_c, 1, 56, 127
2, 7600, Note_off_c, 1, 57, 0
2, 7600, Note_off_c, 1, 61, 0
2, 7600, Note_on_c, 1, 68, 127
2, 7600, Note_on_c, 1, 73, 127
2, 7720, Note_off_c, 1, 41, 0
2, 7720, Note_off_c, 1, 49, 0
2, 7720, Note_off_c, 1, 56, 0
2, 7720, Note_off_c, 1, 68, 0
2, 7720, Note_off_c, 1, 73, 0
2, 7760, Note_on_c, 1, 35, 127
2, 7760, Note_on_c, 1, 56, 127
2, 7760, Note_on_c, 1, 59, 127
2, 7760, Note_on_c, 1, 62, 127
2, 7760, Note_on_c, 1, 64, 127
2, 7840, Note_off_c, 1, 35, 0
2, 7880, Note_on_c, 1, 40, 127
2, 8000, Note_off_c, 1, 40, 0
2, 8000, Note_on_c, 1, 47, 127
2, 8000, Note_off_c, 1, 56, 0
2, 8000, Note_off_c, 1, 59, 0
2, 8000, Note_off_c, 1, 62, 0
2, 8000, Note_off_c, 1, 64, 0
2, 8000, Note_on_c, 1, 67, 127
2, 8000, Note_on_c, 1, 74, 127
2, 8000, Note_on_c, 1, 78, 127
2, 8040, Note_off_c, 1, 47, 0
2, 8040, Note_on_c, 1, 51, 127
2, 8040, Note_on_c, 1, 54, 127
2, 8040, Note_on_c, 1, 57, 127
2, 8040, Note_off_c, 1, 67, 0
2, 8040, Note_off_c, 1, 74, 0
2, 8080, Note_off_c, 1, 51, 0
2, 8080, Note_on_c, 1, 53, 127
2, 8080, Note_off_c, 1, 54, 0
2, 8080, Note_off_c, 1, 57, 0
2, 8080, Note_on_c, 1, 74, 127
2, 8080, Note_off_c, 1, 78, 0
2, 8080, Note_on_c, 1, 81, 127
2, 8080, Note_on_c, 1, 83, 127
2, 8120, Note_on_c, 1, 43, 127
2, 8120, Note_off_c, 1, 53, 0
2, 8120, Note_off_c, 1, 74, 0
2, 8120, Note_on_c, 1, 78, 127
2, 8120, Note_off_c, 1, 81, 0
2, 8120, Note_off_c, 1, 83, 0
2, 8160, Note_on_c, 1, 33, 127
2, 8160, Note_off_c, 1, 43, 0
2, 8160, Note_on_c, 1, 57, 127
2, 8160, Note_on_c, 1, 60, 127
2, 8160, Note_on_c, 1, 64, 127
2, 8160, Note_on_c, 1, 69, 127
2, 8160, Note_off_c, 1, 78, 0
2, 8360, Note_off_c, 1, 33, 0
2, 8360, Note_off_c, 1, 57, 0
2, 8360, Note_off_c, 1, 60, 0
2, 8360, Note_off_c, 1, 64, 0
2, 8360, Note_off_c, 1, 69, 0
2, 8400, Note_on_c, 1, 33, 127
2, 8400, Note_on_c, 1, 57, 127
2, 8400, Note_on_c, 1, 60, 127
2, 8400, Note_on_c, 1, 64, 127
2, 8400, Note_on_c, 1, 69, 127
2, 8480, Note_off_c, 1, 33, 0
2, 8480, Note_off_c, 1, 57, 0
2, 8480, Note_off_c, 1, 60, 0
2, 8480, Note_off_c, 1, 64, 0
2, 8480, Note_off_c, 1, 69, 0
2, 8520, Note_on_c, 1, 45, 127
2, 8520, Note_on_c, 1, 48, 127
2, 8520, Note_on_c, 1, 57, 127
2, 8520, Note_on_c, 1, 69, 127
2, 8680, Note_off_c, 1, 69, 0
2, 8720, Note_on_c, 1, 34, 127
2, 8720, Note_on_c, 1, 40, 127
2, 8720, Note_off_c, 1, 45, 0
2, 8720, Note_on_c, 1, 46, 127
2, 8720, Note_off_c, 1, 48, 0
2, 8720, Note_off_c, 1, 57, 0
2, 8760, Note_on_c, 1, 29, 127
2, 8760, Note_off_c, 1, 34, 0
2, 8760, Note_off_c, 1, 40, 0
2, 8760, Note_on_c, 1, 41, 127
2, 8760, Note_off_c, 1, 46, 0
2, 8760, Note_on_c, 1, 79, 127
2, 8760, Note_on_c, 1, 91, 127
2, 8800, Note_off_c, 1, 29, 0
2, 8800, Note_on_c, 1, 34, 127
2, 8800, Note_on_c, 1, 40, 127
2, 8800, Note_off_c, 1, 41, 0
2, 8800, Note_on_c, 1, 46, 127
2, 8800, Note_off_c, 1, 79, 0
2, 8800, Note_off_c, 1, 91, 0
2, 8840, Note_off_c, 1, 34, 0
2, 8840, Note_off_c, 1, 40, 0
2, 8840, Note_off_c, 1, 46, 0
2, 8880, Note_on_c, 1, 41, 127
2, 8880, Note_on_c, 1, 53, 127
2, 8880, Note_on_c, 1, 70, 127
2, 8880, Note_on_c, 1, 74, 127
2, 8880, Note_on_c, 1, 77, 127
2, 8880, Note_on_c, 1, 82, 127
2, 9040, Note_off_c, 1, 41, 0
2, 9040, Note_off_c, 1, 53, 0
2, 9040, Note_off_c, 1, 70, 0
2, 9040, Note_off_c, 1, 74, 0
2, 9040, Note_off_c, 1, 77, 0
2, 9040, Note_off_c, 1, 82, 0
2, 9240, Note_on_c, 1, 43, 127
2, 9240, Note_on_c, 1, 47, 127
2, 9240, Note_on_c, 1, 53, 127
2, 9240, Note_on_c, 1, 76, 127
2, 9240, Note_on_c, 1, 88, 127
2, 9280, Note_on_c, 1, 40, 127
2, 9280, Note_off_c, 1, 43, 0
2, 9280, Note_on_c, 1, 50, 127
2, 9280, Note_on_c, 1, 52, 127
2, 9280, Note_off_c, 1, 53, 0
2, 9280, Note_on_c, 1, 74, 127
2, 9280, Note_off_c, 1, 76, 0
2, 9280, Note_off_c, 1, 88, 0
2, 9320, Note_off_c, 1, 40, 0
2, 9320, Note_off_c, 1, 47, 0
2, 9320, Note_off_c, 1, 50, 0
2, 9320, Note_off_c, 1, 52, 0
2, 9320, Note_off_c, 1, 74, 0
2, 9560, Note_on_c, 1, 39, 127
2, 9560, Note_on_c, 1, 51, 127
2, 9560, Note_on_c, 1, 81, 127
2, 9560, Note_on_c, 1, 93, 127
2, 9800, Note_on_c, 1, 32, 127
2, 9800, Note_off_c, 1, 39, 0
2, 9800, Note_on_c, 1, 44, 127
2, 9800, Note_on_c, 1, 47, 127
2, 9800, Note_off_c, 1, 51, 0
2, 9800, Note_on_c, 1, 53, 127
2, 9800, Note_on_c, 1, 61, 127
2, 9800, Note_off_c, 1, 81, 0
2, 9800, Note_off_c, 1, 93, 0
2, 9840, Note_off_c, 1, 32, 0
2, 9840, Note_on_c, 1, 39, 127
2, 9840, Note_off_c, 1, 44, 0
2, 9840, Note_off_c, 1, 47, 0
2, 9840, Note_on_c, 1, 51, 127
2, 9840, Note_off_c, 1, 53, 0
2, 9840, Note_off_c, 1, 61, 0
2, 9840, Note_on_c, 1, 81, 127
2, 9840, Note_on_c, 1, 93, 127
2, 9880, Note_off_c, 1, 39, 0
2, 9880, Note_off_c, 1, 51, 0
2, 9880, Note_off_c, 1, 81, 0
2, 9880, Note_off_c, 1, 93, 0
2, 9920, Note_on_c, 1, 45, 127
2, 9920, Note_on_c, 1, 53, 127
2, 9920, Note_on_c, 1, 67, 127
2, 9920, Note_on_c, 1, 72, 127
2, 10040, Note_on_c, 1, 41, 127
2, 10040, Note_off_c, 1, 45, 0
2, 10040, Note_off_c, 1, 53, 0
2, 10040, Note_on_c, 1, 63, 127
2, 10040, Note_on_c, 1, 65, 127
2, 10040, Note_off_c, 1, 67, 0
2, 10040, Note_off_c, 1, 72, 0
2, 10080, Note_off_c, 1, 41, 0
2, 10080, Note_on_c, 1, 45, 127
2, 10080, Note_on_c, 1, 53, 127
2, 10080, Note_off_c, 1, 65, 0
2, 10080, Note_on_c, 1, 72, 127
2, 10200, Note_off_c, 1, 45, 0
2, 10200, Note_on_c, 1, 48, 127
2, 10200, Note_off_c, 1, 53, 0
2, 10200, Note_on_c, 1, 58, 127
2, 10200, Note_off_c, 1, 72, 0
2, 10240, Note_off_c, 1, 48, 0
2, 10240, Note_off_c, 1, 58, 0
2, 10240, Note_off_c, 1, 63, 0
2, 10280, Note_on_c, 1, 61, 127
2, 10280, Note_on_c, 1, 70, 127
2, 10280, Note_on_c, 1, 82, 127
2, 10280, Note_on_c, 1, 85, 127
2, 10320, Note_off_c, 1, 61, 0
2, 10320, Note_off_c, 1, 70, 0
2, 10320, Note_off_c, 1, 82, 0
2, 10320, Note_off_c, 1, 85, 0
2, 10360, Note_on_c, 1, 61, 127
2, 10360, Note_on_c, 1, 70, 127
2, 10360, Note_on_c, 1, 82, 127
2, 10360, Note_on_c, 1, 85, 127
2, 10440, Note_off_c, 1, 61, 0
2, 10440, Note_off_c, 1, 70, 0
2, 10440, Note_off_c, 1, 82, 0
2, 10440, Note_off_c, 1, 85, 0
2, 10440, Note_on_c, 1, 89, 127
2, 10440, Note_on_c, 1, 94, 127
2, 10480, Note_on_c, 1, 41, 127
2, 10480, Note_on_c, 1, 70, 127
2, 10480, Note_on_c, 1, 80, 127
2, 10480, Note_on_c, 1, 82, 127
2, 10480, Note_off_c, 1, 89, 0
2, 10480, Note_off_c, 1, 94, 0
2, 10520, Note_off_c, 1, 41, 0
2, 10520, Note_on_c, 1, 56, 127
2, 10520, Note_on_c, 1, 75, 127
2, 10520, Note_on_c, 1, 79, 127
2, 10520, Note_off_c, 1, 80, 0
2, 10520, Note_off_c, 1, 82, 0
2, 10560, Note_off_c, 1, 56, 0
2, 10560, Note_on_c, 1, 60, 127
2, 10560, Note_off_c, 1, 70, 0
2, 10560, Note_off_c, 1, 75, 0
2, 10560, Note_on_c, 1, 78, 127
2, 10560, Note_off_c, 1, 79, 0
2, 10560, Note_on_c, 1, 87, 127
2, 10560, Note_on_c, 1, 92, 127
2, 10600, Note_off_c, 1, 60, 0
2, 10600, Note_off_c, 1, 78, 0
2, 10600, Note_off_c, 1, 87, 0
2, 10600, Note_off_c, 1, 92, 0
2, 10640, Note_on_c, 1, 58, 127
2, 10640, Note_on_c, 1, 63, 127
2, 10640, Note_on_c, 1, 67, 127
2, 10640, Note_on_c, 1, 70, 127
2, 10640, Note_on_c, 1, 74, 127
2, 10640, Note_on_c, 1, 79, 127
2, 10800, Note_on_c, 1, 38, 127
2, 10800, Note_on_c, 1, 41, 127
2, 10800, Note_on_c, 1, 45, 127
2, 10800, Note_on_c, 1, 50, 127
2, 10800, Note_off_c, 1, 58, 0
2, 10800, Note_on_c, 1, 62, 127
2, 10800, Note_off_c, 1, 63, 0
2, 10800, Note_off_c, 1, 67, 0
2, 10800, Note_off_c, 1, 70, 0
2, 10800, Note_off_c, 1, 74, 0
2, 10800, Note_off_c, 1, 79, 0
2, 10840, Note_off_c, 1, 38, 0
2, 10840, Note_off_c, 1, 41, 0
2, 10840, Note_off_c, 1, 45, 0
2, 10840, Note_on_c, 1, 47, 127
2, 10840, Note_on_c, 1, 54, 127
2, 10840, Note_on_c, 1, 59, 127
2, 10840, Note_off_c, 1, 62, 0
2, 10840, Note_on_c, 1, 78, 127
2, 10880, Note_off_c, 1, 47, 0
2, 10880, Note_off_c, 1, 50, 0
2, 10880, Note_off_c, 1, 54, 0
2, 10880, Note_off_c, 1, 59, 0
2, 10880, Note_off_c, 1, 78, 0
2, 10920, Note_on_c, 1, 57, 127
2, 10920, Note_on_c, 1, 64, 127
2, 10920, Note_on_c, 1, 67, 127
2, 10920, Note_on_c, 1, 73, 127
2, 10920, Note_on_c, 1, 100, 127
2, 10960, Note_off_c, 1, 57, 0
2, 10960, Note_off_c, 1, 64, 0
2, 10960, Note_off_c, 1, 67, 0
2, 10960, Note_off_c, 1, 73, 0
2, 10960, Note_off_c, 1, 100, 0
2, 11000, Note_on_c, 1, 33, 127
2, 11000, Note_on_c, 1, 45, 127
2, 11000, Note_on_c, 1, 73, 127
2, 11000, Note_on_c, 1, 81, 127
2, 11000, Note_on_c, 1, 85, 127
2, 11040, Note_off_c, 1, 33, 0
2, 11040, Note_off_c, 1, 45, 0
2, 11040, Note_off_c, 1, 73, 0
2, 11040, Note_off_c, 1, 81, 0
2, 11040, Note_off_c, 1, 85, 0
2, 11920, Note_on_c, 1, 50, 127
2, 11920, Note_on_c, 1, 55, 127
2, 11920, Note_on_c, 1, 69, 127
2, 11920, Note_on_c, 1, 72, 127
2, 11960, Note_off_c, 1, 55, 0
2, 11960, Note_off_c, 1, 69, 0
2, 11960, Note_off_c, 1, 72, 0
2, 11960, Note_on_c, 1, 88, 127
2, 11960, Note_on_c, 1, 93, 127
2, 12000, Note_on_c, 1, 49, 127
2, 12000, Note_off_c, 1, 50, 0
2, 12000, Note_on_c, 1, 52, 127
2, 12000, Note_on_c, 1, 55, 127
2, 12000, Note_on_c, 1, 64, 127
2, 12000, Note_on_c, 1, 67, 127
2, 12000, Note_on_c, 1, 70, 127
2, 12000, Note_off_c, 1, 88, 0
2, 12000, Note_off_c, 1, 93, 0
2, 12040, Note_off_c, 1, 49, 0
2, 12040, Note_off_c, 1, 52, 0
2, 12040, Note_off_c, 1, 55, 0
2, 12040, Note_off_c, 1, 64, 0
2, 12040, Note_off_c, 1, 67, 0
2, 12040, Note_off_c, 1, 70, 0
2, 12080, Note_on_c, 1, 40, 127
2, 12080, Note_on_c, 1, 79, 127
2, 12080, Note_on_c, 1, 83, 127
2, 12080, Note_on_c, 1, 91, 127
2, 12120, Note_on_c, 1, 34, 127
2, 12120, Note_off_c, 1, 40, 0
2, 12120, Note_on_c, 1, 41, 127
2, 12120, Note_on_c, 1, 70, 127
2, 12120, Note_on_c, 1, 74, 127
2, 12120, Note_on_c, 1, 77, 127
2, 12120, Note_off_c, 1, 79, 0
2, 12120, Note_off_c, 1, 83, 0
2, 12120, Note_off_c, 1, 91, 0
2, 12160, Note_off_c, 1, 34, 0
2, 12160, Note_off_c, 1, 41, 0
2, 12160, Note_on_c, 1, 60, 127
2, 12160, Note_on_c, 1, 62, 127
2, 12160, Note_on_c, 1, 65, 127
2, 12160, Note_on_c, 1, 67, 127
2, 12160, Note_off_c, 1, 70, 0
2, 12160, Note_on_c, 1, 71, 127
2, 12160, Note_off_c, 1, 74, 0
2, 12160, Note_on_c, 1, 86, 127
2, 12200, Note_off_c, 1, 60, 0
2, 12200, Note_off_c, 1, 62, 0
2, 12200, Note_off_c, 1, 65, 0
2, 12200, Note_off_c, 1, 67, 0
2, 12200, Note_off_c, 1, 71, 0
2, 12200, Note_off_c, 1, 77, 0
2, 12200, Note_off_c, 1, 86, 0
2, 12280, Note_on_c, 1, 49, 127
2, 12280, Note_on_c, 1, 59, 127
2, 12280, Note_on_c, 1, 67, 127
2, 12280, Note_on_c, 1, 71, 127
2, 12320, Note_on_c, 1, 39, 127
2, 12320, Note_off_c, 1, 49, 0
2, 12320, Note_off_c, 1, 59, 0
2, 12320, Note_on_c, 1, 70, 127
2, 12320, Note_off_c, 1, 71, 0
2, 12320, Note_on_c, 1, 75, 127
2, 12320, Note_on_c, 1, 79, 127
2, 12320, Note_on_c, 1, 87, 127
2, 12360, Note_off_c, 1, 39, 0
2, 12360, Note_off_c, 1, 67, 0
2, 12360, Note_off_c, 1, 70, 0
2, 12360, Note_off_c, 1, 75, 0
2, 12360, Note_off_c, 1, 79, 0
2, 12360, Note_off_c, 1, 87, 0
2, 12440, Note_on_c, 1, 48, 127
2, 12440, Note_on_c, 1, 52, 127
2, 12440, Note_on_c, 1, 55, 127
2, 12440, Note_on_c, 1, 60, 127
2, 12440, Note_on_c, 1, 88, 127
2, 12440, Note_on_c, 1, 91, 127
2, 12440, Note_on_c, 1, 96, 127
2, 12440, Note_on_c, 1, 100, 127
2, 12600, Note_off_c, 1, 48, 0
2, 12600, Note_off_c, 1, 52, 0
2, 12600, Note_off_c, 1, 55, 0
2, 12600, Note_off_c, 1, 60, 0
2, 12600, Note_off_c, 1, 88, 0
2, 12600, Note_off_c, 1, 91, 0
2, 12600, Note_off_c, 1, 96, 0
2, 12600, Note_off_c, 1, 100, 0
2, 12800, Note_on_c, 1, 31, 127
2, 12800, Note_on_c, 1, 50, 127
2, 12800, Note_on_c, 1, 75, 127
2, 12800, Note_on_c, 1, 80, 127
2, 12800, Note_on_c, 1, 84, 127
2, 12920, Note_off_c, 1, 31, 0
2, 12920, Note_off_c, 1, 50, 0
2, 12920, Note_off_c, 1, 75, 0
2, 12920, Note_off_c, 1, 80, 0
2, 12920, Note_off_c, 1, 84, 0
2, 12960, Note_on_c, 1, 31, 127
2, 12960, Note_on_c, 1, 50, 127
2, 12960, Note_on_c, 1, 75, 127
2, 12960, Note_on_c, 1, 80, 127
2, 12960, Note_on_c, 1, 84, 127
2, 13000, Note_off_c, 1, 31, 0
2, 13000, Note_off_c, 1, 50, 0
2, 13000, Note_off_c, 1, 75, 0
2, 13000, Note_off_c, 1, 80, 0
2, 13000, Note_off_c, 1, 84, 0
2, 13040, Note_on_c, 1, 48, 127
2, 13040, Note_on_c, 1, 77, 127
2, 13040, Note_on_c, 1, 83, 127
2, 13040, Note_on_c, 1, 91, 127
2, 13080, Note_off_c, 1, 48, 0
2, 13080, Note_on_c, 1, 51, 127
2, 13080, Note_off_c, 1, 77, 0
2, 13080, Note_on_c, 1, 87, 127
2, 13080, Note_off_c, 1, 91, 0
2, 13080, Note_on_c, 1, 95, 127
2, 13120, Note_on_c, 1, 36, 127
2, 13120, Note_off_c, 1, 51, 0
2, 13120, Note_on_c, 1, 59, 127
2, 13120, Note_on_c, 1, 62, 127
2, 13120, Note_on_c, 1, 65, 127
2, 13120, Note_on_c, 1, 67, 127
2, 13120, Note_on_c, 1, 71, 127
2, 13120, Note_on_c, 1, 74, 127
2, 13120, Note_off_c, 1, 87, 0
2, 13120, Note_off_c, 1, 95, 0
2, 13160, Note_off_c, 1, 36, 0
2, 13160, Note_off_c, 1, 59, 0
2, 13160, Note_off_c, 1, 62, 0
2, 13160, Note_off_c, 1, 65, 0
2, 13160, Note_off_c, 1, 67, 0
2, 13160, Note_off_c, 1, 71, 0
2, 13160, Note_off_c, 1, 74, 0
2, 13160, Note_off_c, 1, 83, 0
2, 13200, Note_on_c, 1, 31, 127
2, 13200, Note_on_c, 1, 83, 127
2, 13200, Note_on_c, 1, 86, 127
2, 13200, Note_on_c, 1, 89, 127
2, 13200, Note_on_c, 1, 95, 127
2, 13240, Note_off_c, 1, 31, 0
2, 13240, Note_off_c, 1, 83, 0
2, 13240, Note_off_c, 1, 86, 0
2, 13240, Note_off_c, 1, 89, 0
2, 13240, Note_off_c, 1, 95, 0
2, 13280, Note_on_c, 1, 43, 127
2, 13360, Note_off_c, 1, 43, 0
2, 13400, Note_on_c, 1, 43, 127
2, 13520, Note_off_c, 1, 43, 0
2, 13560, Note_on_c, 1, 43, 127
2, 13680, Note_off_c, 1, 43, 0
2, 13720, Note_on_c, 1, 43, 127
2, 13840, Note_off_c, 1, 43, 0
2, 13880, Note_on_c, 1, 38, 127
2, 13880, Note_on_c, 1, 50, 127
2, 13880, Note_on_c, 1, 55, 127
2, 13880, Note_on_c, 1, 67, 127
2, 14040, Note_off_c, 1, 38, 0
2, 14040, Note_off_c, 1, 50, 0
2, 14040, Note_off_c, 1, 55, 0
2, 14040, Note_off_c, 1, 67, 0
2, 14080, Note_on_c, 1, 31, 127
2, 14080, Note_on_c, 1, 55, 127
2, 14080, Note_on_c, 1, 67, 127
2, 14200, Note_off_c, 1, 31, 0
2, 14200, Note_off_c, 1, 55, 0
2, 14200, Note_off_c, 1, 67, 0
2, 14240, Note_on_c, 1, 38, 127
2, 14240, Note_on_c, 1, 50, 127
2, 14360, Note_off_c, 1, 38, 0
2, 14360, Note_off_c, 1, 50, 0
2, 14400, Note_on_c, 1, 36, 127
2, 14560, Note_off_c, 1, 36, 0
2, 14560, Note_on_c, 1, 54, 127
2, 14560, Note_on_c, 1, 60, 127
2, 14560, Note_on_c, 1, 69, 127
2, 14560, Note_on_c, 1, 72, 127
2, 14680, Note_off_c, 1, 54, 0
2, 14680, Note_off_c, 1, 60, 0
2, 14680, Note_off_c, 1, 69, 0
2, 14680, Note_off_c, 1, 72, 0
2, 14720, Note_on_c, 1, 48, 127
2, 14720, Note_on_c, 1, 55, 127
2, 14720, Note_on_c, 1, 60, 127
2, 14720, Note_on_c, 1, 64, 127
2, 14720, Note_on_c, 1, 72, 127
2, 15040, Note_off_c, 1, 48, 0
2, 15040, Note_off_c, 1, 55, 0
2, 15040, Note_off_c, 1, 60, 0
2, 15040, Note_off_c, 1, 64, 0
2, 15040, Note_off_c, 1, 72, 0
2, 15080, Note_on_c, 1, 48, 127
2, 15080, Note_on_c, 1, 60, 127
2, 15080, Note_on_c, 1, 64, 127
2, 15080, Note_on_c, 1, 67, 127
2, 15200, Note_off_c, 1, 48, 0
2, 15200, Note_off_c, 1, 60, 0
2, 15200, Note_off_c, 1, 64, 0
2, 15200, Note_off_c, 1, 67, 0
2, 15400, Note_on_c, 1, 32, 127
2, 15400, Note_on_c, 1, 44, 127
2, 15400, Note_on_c, 1, 49, 127
2, 15400, Note_on_c, 1, 56, 127
2, 15400, Note_on_c, 1, 58, 127
2, 15600, Note_off_c, 1, 32, 0
2, 15600, Note_off_c, 1, 44, 0
2, 15600, Note_off_c, 1, 49, 0
2, 15600, Note_off_c, 1, 58, 0
2, 15880, Note_off_c, 1, 56, 0
2, 15920, Note_on_c, 1, 51, 127
2, 16040, Note_off_c, 1, 51, 0
2, 16080, Note_on_c, 1, 57, 127
2, 16080, Note_on_c, 1, 60, 127
2, 16080, Note_on_c, 1, 63, 127
2, 16080, Note_on_c, 1, 72, 127
2, 16080, Note_on_c, 1, 78, 127
2, 16080, Note_on_c, 1, 83, 127
2, 16200, Note_off_c, 1, 63, 0
2, 16200, Note_off_c, 1, 72, 0
2, 16200, Note_off_c, 1, 78, 0
2, 16200, Note_off_c, 1, 83, 0
2, 16320, Note_on_c, 1, 74, 127
2, 16360, Note_off_c, 1, 74, 0
2, 16400, Note_on_c, 1, 38, 127
2, 16400, Note_on_c, 1, 62, 127
2, 16400, Note_on_c, 1, 66, 127
2, 16560, Note_off_c, 1, 57, 0
2, 16560, Note_off_c, 1, 60, 0
2, 16560, Note_off_c, 1, 62, 0
2, 16560, Note_off_c, 1, 66, 0
2, 16600, Note_off_c, 1, 38, 0
2, 16600, Note_on_c, 1, 47, 127
2, 16600, Note_on_c, 1, 56, 127
2, 16600, Note_on_c, 1, 65, 127
2, 16600, Note_on_c, 1, 74, 127
2, 16760, Note_off_c, 1, 47, 0
2, 16760, Note_off_c, 1, 56, 0
2, 16760, Note_off_c, 1, 65, 0
2, 16760, Note_off_c, 1, 74, 0
2, 16800, Note_on_c, 1, 37, 127
2, 16800, Note_on_c, 1, 42, 127
2, 16800, Note_on_c, 1, 49, 127
2, 17440, Note_off_c, 1, 37, 0
2, 17440, Note_off_c, 1, 42, 0
2, 17440, Note_off_c, 1, 49, 0
2, 17480, Note_on_c, 1, 52, 127
2, 17480, Note_on_c, 1, 64, 127
2, 17480, Note_on_c, 1, 66, 127
2, 17480, Note_on_c, 1, 68, 127
2, 17520, Note_off_c, 1, 52, 0
2, 17520, Note_off_c, 1, 64, 0
2, 17520, Note_off_c, 1, 66, 0
2, 17520, Note_off_c, 1, 68, 0
2, 17560, Note_on_c, 1, 47, 127
2, 17560, Note_on_c, 1, 52, 127
2, 17560, Note_on_c, 1, 60, 127
2, 17560, Note_on_c, 1, 66, 127
2, 17600, Note_off_c, 1, 47, 0
2, 17600, Note_off_c, 1, 52, 0
2, 17600, Note_on_c, 1, 56, 127
2, 17600, Note_off_c, 1, 60, 0
2, 17600, Note_on_c, 1, 62, 127
2, 17600, Note_on_c, 1, 64, 127
2, 17600, Note_off_c, 1, 66, 0
2, 17600, Note_on_c, 1, 68, 127
2, 17600, Note_on_c, 1, 71, 127
2, 17600, Note_on_c, 1, 75, 127
2, 17640, Note_on_c, 1, 47, 127
2, 17640, Note_on_c, 1, 53, 127
2, 17640, Note_off_c, 1, 56, 0
2, 17640, Note_off_c, 1, 64, 0
2, 17640, Note_off_c, 1, 71, 0
2, 17640, Note_off_c, 1, 75, 0
2, 17680, Note_on_c, 1, 50, 127
2, 17680, Note_off_c, 1, 53, 0
2, 17680, Note_on_c, 1, 55, 127
2, 17680, Note_on_c, 1, 67, 127
2, 17680, Note_off_c, 1, 68, 0
2, 17720, Note_on_c, 1, 38, 127
2, 17720, Note_on_c, 1, 42, 127
2, 17720, Note_off_c, 1, 55, 0
2, 17720, Note_off_c, 1, 62, 0
2, 17720, Note_off_c, 1, 67, 0
2, 17720, Note_on_c, 1, 71, 127
2, 17720, Note_on_c, 1, 83, 127
2, 17760, Note_on_c, 1, 28, 127
2, 17760, Note_off_c, 1, 38, 0
2, 17760, Note_on_c, 1, 40, 127
2, 17760, Note_off_c, 1, 42, 0
2, 17760, Note_off_c, 1, 47, 0
2, 17760, Note_off_c, 1, 50, 0
2, 17760, Note_on_c, 1, 56, 127
2, 17760, Note_on_c, 1, 64, 127
2, 17760, Note_off_c, 1, 83, 0
2, 17800, Note_off_c, 1, 28, 0
2, 17800, Note_off_c, 1, 40, 0
2, 17800, Note_on_c, 1, 45, 127
2, 17800, Note_on_c, 1, 49, 127
2, 17800, Note_on_c, 1, 52, 127
2, 17800, Note_on_c, 1, 55, 127
2, 17800, Note_off_c, 1, 56, 0
2, 17800, Note_off_c, 1, 64, 0
2, 17800, Note_off_c, 1, 71, 0
2, 17840, Note_off_c, 1, 45, 0
2, 17840, Note_off_c, 1, 49, 0
2, 17840, Note_on_c, 1, 51, 127
2, 17840, Note_off_c, 1, 52, 0
2, 17840, Note_off_c, 1, 55, 0
2, 17840, Note_on_c, 1, 63, 127
2, 17840, Note_on_c, 1, 67, 127
2, 17840, Note_on_c, 1, 79, 127
2, 17840, Note_on_c, 1, 82, 127
2, 18160, Note_on_c, 1, 39, 127
2, 18160, Note_off_c, 1, 63, 0
2, 18160, Note_off_c, 1, 67, 0
2, 18160, Note_off_c, 1, 79, 0
2, 18160, Note_off_c, 1, 82, 0
2, 18200, Note_off_c, 1, 39, 0
2, 18200, Note_on_c, 1, 48, 127
2, 18200, Note_off_c, 1, 51, 0
2, 18200, Note_on_c, 1, 55, 127
2, 18200, Note_on_c, 1, 62, 127
2, 18200, Note_on_c, 1, 96, 127
2, 18240, Note_off_c, 1, 48, 0
2, 18240, Note_on_c, 1, 53, 127
2, 18240, Note_off_c, 1, 55, 0
2, 18240, Note_off_c, 1, 62, 0
2, 18240, Note_on_c, 1, 65, 127
2, 18240, Note_on_c, 1, 82, 127
2, 18240, Note_on_c, 1, 89, 127
2, 18240, Note_on_c, 1, 94, 127
2, 18240, Note_off_c, 1, 96, 0
2, 18320, Note_off_c, 1, 53, 0
2, 18320, Note_off_c, 1, 65, 0
2, 18360, Note_on_c, 1, 61, 127
2, 18360, Note_on_c, 1, 67, 127
2, 18360, Note_on_c, 1, 81, 127
2, 18360, Note_off_c, 1, 82, 0
2, 18360, Note_on_c, 1, 88, 127
2, 18360, Note_off_c, 1, 89, 0
2, 18360, Note_off_c, 1, 94, 0
2, 18520, Note_off_c, 1, 61, 0
2, 18520, Note_off_c, 1, 67, 0
2, 18520, Note_off_c, 1, 81, 0
2, 18520, Note_off_c, 1, 88, 0
2, 18560, Note_on_c, 1, 55, 127
2, 18560, Note_on_c, 1, 86, 127
2, 18560, Note_on_c, 1, 98, 127
2, 18680, Note_off_c, 1, 55, 0
2, 18680, Note_off_c, 1, 86, 0
2, 18680, Note_off_c, 1, 98, 0
2, 18720, Note_on_c, 1, 68, 127
2, 18720, Note_on_c, 1, 83, 127
2, 18720, Note_on_c, 1, 89, 127
2, 18760, Note_on_c, 1, 42, 127
2, 18760, Note_on_c, 1, 54, 127
2, 18760, Note_on_c, 1, 61, 127
2, 18760, Note_off_c, 1, 68, 0
2, 18760, Note_on_c, 1, 76, 127
2, 18760, Note_off_c, 1, 83, 0
2, 18760, Note_on_c, 1, 88, 127
2, 18760, Note_off_c, 1, 89, 0
2, 18800, Note_off_c, 1, 42, 0
2, 18800, Note_off_c, 1, 54, 0
2, 18800, Note_off_c, 1, 61, 0
2, 18800, Note_on_c, 1, 68, 127
2, 18800, Note_off_c, 1, 76, 0
2, 18800, Note_on_c, 1, 83, 127
2, 18800, Note_off_c, 1, 88, 0
2, 18800, Note_on_c, 1, 89, 127
2, 18840, Note_off_c, 1, 68, 0
2, 18840, Note_off_c, 1, 83, 0
2, 18840, Note_off_c, 1, 89, 0
2, 18880, Note_on_c, 1, 51, 127
2, 18880, Note_on_c, 1, 58, 127
2, 18880, Note_on_c, 1, 72, 127
2, 18880, Note_on_c, 1, 84, 127
2, 18920, Note_on_c, 1, 28, 127
2, 18920, Note_on_c, 1, 40, 127
2, 18920, Note_off_c, 1, 51, 0
2, 18920, Note_off_c, 1, 58, 0
2, 18920, Note_off_c, 1, 72, 0
2, 18920, Note_off_c, 1, 84, 0
2, 18920, Note_on_c, 1, 104, 127
2, 19200, Note_off_c, 1, 28, 0
2, 19200, Note_off_c, 1, 40, 0
2, 19200, Note_off_c, 1, 104, 0
2, 19400, Note_on_c, 1, 30, 127
2, 19400, Note_on_c, 1, 35, 127
2, 19400, Note_on_c, 1, 37, 127
2, 19400, Note_on_c, 1, 72, 127
2, 19440, Note_off_c, 1, 30, 0
2, 19440, Note_off_c, 1, 35, 0
2, 19440, Note_off_c, 1, 37, 0
2, 19440, Note_on_c, 1, 64, 127
2, 19440, Note_on_c, 1, 67, 127
2, 19440, Note_off_c, 1, 72, 0
2, 19440, Note_on_c, 1, 83, 127
2, 19440, Note_on_c, 1, 88, 127
2, 19480, Note_on_c, 1, 50, 127
2, 19480, Note_on_c, 1, 53, 127
2, 19480, Note_on_c, 1, 56, 127
2, 19480, Note_on_c, 1, 59, 127
2, 19480, Note_off_c, 1, 64, 0
2, 19480, Note_off_c, 1, 67, 0
2, 19480, Note_on_c, 1, 72, 127
2, 19480, Note_off_c, 1, 83, 0
2, 19480, Note_on_c, 1, 84, 127
2, 19480, Note_off_c, 1, 88, 0
2, 19520, Note_on_c, 1, 44, 127
2, 19520, Note_off_c, 1, 50, 0
2, 19520, Note_off_c, 1, 53, 0
2, 19520, Note_off_c, 1, 56, 0
2, 19520, Note_off_c, 1, 59, 0
2, 19520, Note_on_c, 1, 69, 127
2, 19520, Note_off_c, 1, 72, 0
2, 19520, Note_on_c, 1, 73, 127
2, 19520, Note_on_c, 1, 78, 127
2, 19520, Note_off_c, 1, 84, 0
2, 19560, Note_on_c, 1, 37, 127
2, 19560, Note_off_c, 1, 44, 0
2, 19560, Note_on_c, 1, 49, 127
2, 19560, Note_off_c, 1, 69, 0
2, 19560, Note_off_c, 1, 73, 0
2, 19560, Note_off_c, 1, 78, 0
2, 19560, Note_on_c, 1, 87, 127
2, 19560, Note_on_c, 1, 91, 127
2, 19560, Note_on_c, 1, 99, 127
2, 19600, Note_off_c, 1, 37, 0
2, 19600, Note_off_c, 1, 49, 0
2, 19600, Note_off_c, 1, 87, 0
2, 19600, Note_off_c, 1, 91, 0
2, 19600, Note_off_c, 1, 99, 0
2, 19640, Note_on_c, 1, 45, 127
2, 19640, Note_on_c, 1, 62, 127
2, 19640, Note_on_c, 1, 66, 127
2, 19640, Note_on_c, 1, 71, 127
2, 19680, Note_on_c, 1, 37, 127
2, 19680, Note_off_c, 1, 45, 0
2, 19680, Note_on_c, 1, 49, 127
2, 19680, Note_off_c, 1, 62, 0
2, 19680, Note_off_c, 1, 66, 0
2, 19680, Note_off_c, 1, 71, 0
2, 19680, Note_on_c, 1, 87, 127
2, 19680, Note_on_c, 1, 91, 127
2, 19680, Note_on_c, 1, 99, 127
2, 19720, Note_off_c, 1, 37, 0
2, 19720, Note_off_c, 1, 49, 0
2, 19720, Note_off_c, 1, 87, 0
2, 19720, Note_off_c, 1, 91, 0
2, 19720, Note_off_c, 1, 99, 0
2, 19760, Note_on_c, 1, 49, 127
2, 19760, Note_on_c, 1, 93, 127
2, 19760, Note_on_c, 1, 97, 127
2, 19840, Note_off_c, 1, 49, 0
2, 19840, Note_off_c, 1, 93, 0
2, 19840, Note_off_c, 1, 97, 0
2, 19920, Note_on_c, 1, 36, 127
2, 19920, Note_on_c, 1, 43, 127
2, 19920, Note_on_c, 1, 48, 127
2, 19920, Note_on_c, 1, 55, 127
2, 19920, Note_on_c, 1, 60, 127
2, 19920, Note_on_c, 1, 63, 127
2, 20040, Note_off_c, 1, 36, 0
2, 20040, Note_off_c, 1, 43, 0
2, 20040, Note_off_c, 1, 48, 0
2, 20040, Note_off_c, 1, 55, 0
2, 20040, Note_off_c, 1, 60, 0
2, 20040, Note_off_c, 1, 63, 0
2, 20080, Note_on_c, 1, 36, 127
2, 20080, Note_on_c, 1, 43, 127
2, 20080, Note_on_c, 1, 48, 127
2, 20080, Note_on_c, 1, 55, 127
2, 20080, Note_on_c, 1, 60, 127
2, 20080, Note_on_c, 1, 63, 127
2, 20240, Note_off_c, 1, 36, 0
2, 20240, Note_off_c, 1, 43, 0
2, 20240, Note_off_c, 1, 48, 0
2, 20240, Note_off_c, 1, 55, 0
2, 20240, Note_off_c, 1, 60, 0
2, 20240, Note_off_c, 1, 63, 0
2, 20280, Note_on_c, 1, 35, 127
2, 20280, Note_on_c, 1, 42, 127
2, 20280, Note_on_c, 1, 47, 127
2, 20280, Note_on_c, 1, 59, 127
2, 20280, Note_on_c, 1, 62, 127
2, 20280, Note_on_c, 1, 71, 127
2, 20400, Note_off_c, 1, 35, 0
2, 20400, Note_off_c, 1, 42, 0
2, 20400, Note_off_c, 1, 47, 0
2, 20400, Note_on_c, 1, 57, 127
2, 20400, Note_off_c, 1, 59, 0
2, 20400, Note_off_c, 1, 62, 0
2, 20400, Note_on_c, 1, 66, 127
2, 20400, Note_off_c, 1, 71, 0
2, 20440, Note_on_c, 1, 41, 127
2, 20440, Note_on_c, 1, 45, 127
2, 20440, Note_on_c, 1, 48, 127
2, 20440, Note_on_c, 1, 51, 127
2, 20440, Note_off_c, 1, 57, 0
2, 20440, Note_off_c, 1, 66, 0
2, 20440, Note_on_c, 1, 85, 127
2, 20440, Note_on_c, 1, 88, 127
2, 20480, Note_off_c, 1, 41, 0
2, 20480, Note_off_c, 1, 45, 0
2, 20480, Note_off_c, 1, 48, 0
2, 20480, Note_off_c, 1, 51, 0
2, 20480, Note_on_c, 1, 52, 127
2, 20480, Note_on_c, 1, 55, 127
2, 20480, Note_on_c, 1, 57, 127
2, 20480, Note_on_c, 1, 61, 127
2, 20480, Note_on_c, 1, 86, 127
2, 20480, Note_off_c, 1, 88, 0
2, 20520, Note_on_c, 1, 39, 127
2, 20520, Note_on_c, 1, 43, 127
2, 20520, Note_on_c, 1, 46, 127
2, 20520, Note_on_c, 1, 51, 127
2, 20520, Note_off_c, 1, 52, 0
2, 20520, Note_off_c, 1, 55, 0
2, 20520, Note_off_c, 1, 57, 0
2, 20520, Note_off_c, 1, 61, 0
2, 20520, Note_off_c, 1, 85, 0
2, 20520, Note_off_c, 1, 86, 0
2, 20520, Note_on_c, 1, 94, 127
2, 20560, Note_off_c, 1, 39, 0
2, 20560, Note_off_c, 1, 43, 0
2, 20560, Note_off_c, 1, 46, 0
2, 20560, Note_off_c, 1, 51, 0
2, 20560, Note_on_c, 1, 61, 127
2, 20560, Note_on_c, 1, 78, 127
2, 20560, Note_on_c, 1, 82, 127
2, 20560, Note_on_c, 1, 85, 127
2, 20560, Note_on_c, 1, 90, 127
2, 20560, Note_off_c, 1, 94, 0
2, 20600, Note_on_c, 1, 48, 127
2, 20600, Note_on_c, 1, 55, 127
2, 20600, Note_on_c, 1, 58, 127
2, 20600, Note_off_c, 1, 61, 0
2, 20600, Note_on_c, 1, 64, 127
2, 20600, Note_on_c, 1, 76, 127
2, 20600, Note_off_c, 1, 78, 0
2, 20600, Note_on_c, 1, 79, 127
2, 20600, Note_off_c, 1, 82, 0
2, 20600, Note_off_c, 1, 90, 0
2, 20640, Note_on_c, 1, 29, 127
2, 20640, Note_on_c, 1, 41, 127
2, 20640, Note_off_c, 1, 48, 0
2, 20640, Note_off_c, 1, 55, 0
2, 20640, Note_off_c, 1, 58, 0
2, 20640, Note_off_c, 1, 64, 0
2, 20640, Note_off_c, 1, 76, 0
2, 20640, Note_off_c, 1, 79, 0
2, 20640, Note_on_c, 1, 81, 127
2, 20640, Note_off_c, 1, 85, 0
2, 20640, Note_on_c, 1, 89, 127
2, 20640, Note_on_c, 1, 93, 127
2, 20680, Note_off_c, 1, 29, 0
2, 20680, Note_off_c, 1, 41, 0
2, 20680, Note_on_c, 1, 48, 127
2, 20680, Note_on_c, 1, 55, 127
2, 20680, Note_on_c, 1, 58, 127
2, 20680, Note_on_c, 1, 64, 127
2, 20680, Note_on_c, 1, 76, 127
2, 20680, Note_on_c, 1, 79, 127
2, 20680, Note_off_c, 1, 81, 0
2, 20680, Note_on_c, 1, 85, 127
2, 20680, Note_off_c, 1, 89, 0
2, 20680, Note_off_c, 1, 93, 0
2, 20720, Note_off_c, 1, 48, 0
2, 20720, Note_off_c, 1, 55, 0
2, 20720, Note_off_c, 1, 58, 0
2, 20720, Note_off_c, 1, 64, 0
2, 20720, Note_off_c, 1, 76, 0
2, 20720, Note_off_c, 1, 79, 0
2, 20720, Note_off_c, 1, 85, 0
2, 20800, Note_on_c, 1, 44, 127
2, 20800, Note_on_c, 1, 48, 127
2, 20800, Note_on_c, 1, 51, 127
2, 20800, Note_on_c, 1, 54, 127
2, 20800, Note_on_c, 1, 56, 127
2, 20800, Note_on_c, 1, 60, 127
2, 20920, Note_off_c, 1, 44, 0
2, 20920, Note_off_c, 1, 48, 0
2, 20920, Note_off_c, 1, 51, 0
2, 20920, Note_off_c, 1, 54, 0
2, 20920, Note_off_c, 1, 56, 0
2, 20920, Note_off_c, 1, 60, 0
2, 20920, Note_on_c, 1, 95, 127
2, 20920, Note_on_c, 1, 97, 127
2, 20960, Note_on_c, 1, 47, 127
2, 20960, Note_on_c, 1, 55, 127
2, 20960, Note_on_c, 1, 58, 127
2, 20960, Note_on_c, 1, 63, 127
2, 20960, Note_off_c, 1, 95, 0
2, 20960, Note_off_c, 1, 97, 0
2, 21080, Note_off_c, 1, 47, 0
2, 21080, Note_off_c, 1, 55, 0
2, 21080, Note_off_c, 1, 58, 0
2, 21080, Note_off_c, 1, 63, 0
2, 21120, Note_on_c, 1, 76, 127
2, 21120, Note_on_c, 1, 83, 127
2, 21120, Note_on_c, 1, 90, 127
2, 21160, Note_off_c, 1, 76, 0
2, 21160, Note_off_c, 1, 83, 0
2, 21160, Note_off_c, 1, 90, 0
2, 21200, Note_on_c, 1, 44, 127
2, 21240, Note_off_c, 1, 44, 0
2, 21280, Note_on_c, 1, 44, 127
2, 21320, Note_off_c, 1, 44, 0
2, 21320, Note_on_c, 1, 57, 127
2, 21320, Note_on_c, 1, 60, 127
2, 21320, Note_on_c, 1, 63, 127
2, 21320, Note_on_c, 1, 65, 127
2, 21320, Note_on_c, 1, 76, 127
2, 21360, Note_on_c, 1, 54, 127
2, 21360, Note_off_c, 1, 57, 0
2, 21360, Note_on_c, 1, 59, 127
2, 21360, Note_off_c, 1, 60, 0
2, 21360, Note_on_c, 1, 62, 127
2, 21360, Note_off_c, 1, 63, 0
2, 21360, Note_off_c, 1, 76, 0
2, 21360, Note_on_c, 1, 95, 127
2, 21400, Note_off_c, 1, 54, 0
2, 21400, Note_on_c, 1, 57, 127
2, 21400, Note_off_c, 1, 59, 0
2, 21400, Note_on_c, 1, 60, 127
2, 21400, Note_off_c, 1, 62, 0
2, 21400, Note_on_c, 1, 63, 127
2, 21400, Note_on_c, 1, 76, 127
2, 21400, Note_off_c, 1, 95, 0
2, 21600, Note_off_c, 1, 57, 0
2, 21600, Note_off_c, 1, 60, 0
2, 21600, Note_off_c, 1, 63, 0
2, 21600, Note_off_c, 1, 65, 0
2, 21600, Note_off_c, 1, 76, 0
2, 21640, Note_on_c, 1, 49, 127
2, 21680, Note_off_c, 1, 49, 0
2, 21760, Note_on_c, 1, 49, 127
2, 21800, Note_off_c, 1, 49, 0
2, 21840, Note_on_c, 1, 44, 127
2, 21840, Note_on_c, 1, 51, 127
2, 21840, Note_on_c, 1, 56, 127
2, 21840, Note_on_c, 1, 63, 127
2, 21840, Note_on_c, 1, 68, 127
2, 21840, Note_on_c, 1, 75, 127
2, 21880, Note_off_c, 1, 44, 0
2, 21880, Note_off_c, 1, 51, 0
2, 21880, Note_off_c, 1, 56, 0
2, 21880, Note_off_c, 1, 63, 0
2, 21880, Note_off_c, 1, 68, 0
2, 21880, Note_off_c, 1, 75, 0
2, 21920, Note_on_c, 1, 31, 127
2, 21920, Note_on_c, 1, 43, 127
2, 21920, Note_on_c, 1, 71, 127
2, 21960, Note_off_c, 1, 31, 0
2, 21960, Note_off_c, 1, 43, 0
2, 21960, Note_on_c, 1, 44, 127
2, 21960, Note_off_c, 1, 71, 0
2, 22000, Note_on_c, 1, 40, 127
2, 22000, Note_off_c, 1, 44, 0
2, 22000, Note_on_c, 1, 47, 127
2, 22000, Note_on_c, 1, 56, 127
2, 22000, Note_on_c, 1, 64, 127
2, 22000, Note_on_c, 1, 68, 127
2, 22160, Note_off_c, 1, 64, 0
2, 22160, Note_off_c, 1, 68, 0
2, 22200, Note_on_c, 1, 64, 127
2, 22200, Note_on_c, 1, 68, 127
2, 22320, Note_off_c, 1, 40, 0
2, 22320, Note_off_c, 1, 47, 0
2, 22320, Note_off_c, 1, 56, 0
2, 22320, Note_off_c, 1, 68, 0
2, 22360, Note_on_c, 1, 48, 127
2, 22360, Note_on_c, 1, 53, 127
2, 22360, Note_on_c, 1, 60, 127
2, 22360, Note_off_c, 1, 64, 0
2, 22360, Note_on_c, 1, 65, 127
2, 22360, Note_on_c, 1, 72, 127
2, 22480, Note_off_c, 1, 48, 0
2, 22480, Note_off_c, 1, 72, 0
2, 22520, Note_on_c, 1, 44, 127
2, 22520, Note_off_c, 1, 65, 0
2, 22640, Note_off_c, 1, 60, 0
2, 22680, Note_off_c, 1, 44, 0
2, 22680, Note_off_c, 1, 53, 0
2, 22680, Note_on_c, 1, 55, 127
2, 22680, Note_on_c, 1, 62, 127
2, 22680, Note_on_c, 1, 90, 127
2, 22720, Note_on_c, 1, 43, 127
2, 22720, Note_on_c, 1, 50, 127
2, 22720, Note_off_c, 1, 55, 0
2, 22720, Note_on_c, 1, 60, 127
2, 22720, Note_off_c, 1, 62, 0
2, 22720, Note_on_c, 1, 64, 127
2, 22720, Note_on_c, 1, 86, 127
2, 22720, Note_off_c, 1, 90, 0
2, 22760, Note_on_c, 1, 41, 127
2, 22760, Note_off_c, 1, 43, 0
2, 22760, Note_on_c, 1, 49, 127
2, 22760, Note_off_c, 1, 50, 0
2, 22760, Note_on_c, 1, 59, 127
2, 22760, Note_off_c, 1, 60, 0
2, 22760, Note_off_c, 1, 64, 0
2, 22760, Note_on_c, 1, 68, 127
2, 22760, Note_off_c, 1, 86, 0
2, 22800, Note_off_c, 1, 41, 0
2, 22800, Note_off_c, 1, 49, 0
2, 22800, Note_off_c, 1, 59, 0
2, 22800, Note_on_c, 1, 61, 127
2, 22800, Note_on_c, 1, 64, 127
2, 22800, Note_off_c, 1, 68, 0
2, 22800, Note_on_c, 1, 73, 127
2, 22800, Note_on_c, 1, 81, 127
2, 22800, Note_on_c, 1, 85, 127
2, 22840, Note_on_c, 1, 36, 127
2, 22840, Note_on_c, 1, 43, 127
2, 22840, Note_on_c, 1, 53, 127
2, 22840, Note_on_c, 1, 55, 127
2, 22840, Note_on_c, 1, 59, 127
2, 22840, Note_off_c, 1, 61, 0
2, 22840, Note_off_c, 1, 64, 0
2, 22840, Note_off_c, 1, 73, 0
2, 22840, Note_off_c, 1, 81, 0
2, 22840, Note_off_c, 1, 85, 0
2, 22880, Note_off_c, 1, 36, 0
2, 22880, Note_off_c, 1, 43, 0
2, 22880, Note_on_c, 1, 49, 127
2, 22880, Note_on_c, 1, 52, 127
2, 22880, Note_off_c, 1, 53, 0
2, 22880, Note_off_c, 1, 55, 0
2, 22880, Note_on_c, 1, 56, 127
2, 22880, Note_off_c, 1, 59, 0
2, 22880, Note_on_c, 1, 69, 127
2, 22880, Note_on_c, 1, 76, 127
2, 22880, Note_on_c, 1, 79, 127
2, 22880, Note_on_c, 1, 81, 127
2, 22920, Note_on_c, 1, 43, 127
2, 22920, Note_off_c, 1, 49, 0
2, 22920, Note_off_c, 1, 52, 0
2, 22920, Note_off_c, 1, 56, 0
2, 22920, Note_on_c, 1, 59, 127
2, 22920, Note_on_c, 1, 67, 127
2, 22920, Note_off_c, 1, 69, 0
2, 22920, Note_on_c, 1, 71, 127
2, 22920, Note_on_c, 1, 74, 127
2, 22920, Note_off_c, 1, 76, 0
2, 22920, Note_off_c, 1, 79, 0
2, 22920, Note_off_c, 1, 81, 0
2, 22960, Note_off_c, 1, 43, 0
2, 22960, Note_on_c, 1, 49, 127
2, 22960, Note_off_c, 1, 67, 0
2, 22960, Note_off_c, 1, 71, 0
2, 22960, Note_off_c, 1, 74, 0
2, 23000, Note_off_c, 1, 49, 0
2, 23000, Note_off_c, 1, 59, 0
2, 23040, Note_on_c, 1, 46, 127
2, 23040, Note_on_c, 1, 49, 127
2, 23040, Note_on_c, 1, 58, 127
2, 23320, Note_off_c, 1, 49, 0
2, 23320, Note_off_c, 1, 58, 0
2, 23360, Note_on_c, 1, 56, 127
2, 23680, Note_off_c, 1, 46, 0
2, 23680, Note_off_c, 1, 56, 0
2, 23720, Note_on_c, 1, 51, 127
2, 23920, Note_on_c, 1, 58, 127
2, 23960, Note_off_c, 1, 51, 0
2, 23960, Note_off_c, 1, 58, 0
2, 24000, Note_on_c, 1, 51, 127
2, 24000, Note_on_c, 1, 58, 127
2, 24040, Note_off_c, 1, 58, 0
2, 24080, Note_on_c, 1, 58, 127
2, 24400, Note_off_c, 1, 51, 0
2, 24720, Note_off_c, 1, 58, 0
2, 24760, Note_on_c, 1, 51, 127
2, 25080, Note_off_c, 1, 51, 0
2, 25120, Note_on_c, 1, 58, 127
2, 25120, Note_on_c, 1, 62, 127
2, 25400, Note_off_c, 1, 62, 0
2, 25440, Note_on_c, 1, 65, 127
2, 25760, Note_off_c, 1, 58, 0
2, 25760, Note_off_c, 1, 65, 0
2, 25800, Note_on_c, 1, 51, 127
2, 26120, Note_off_c, 1, 51, 0
2, 26200, Note_on_c, 1, 39, 127
2, 26520, Note_off_c, 1, 39, 0
2, 26560, Note_on_c, 1, 39, 127
2, 26840, Note_off_c, 1, 39, 0
2, 26920, Note_on_c, 1, 58, 127
2, 27200, Note_off_c, 1, 58, 0
2, 27240, Note_on_c, 1, 59, 127
2, 27560, Note_off_c, 1, 59, 0
2, 27600, Note_on_c, 1, 60, 127
2, 27920, Note_off_c, 1, 60, 0
2, 27960, Note_on_c, 1, 65, 127
2, 28240, Note_off_c, 1, 65, 0
2, 28280, Note_on_c, 1, 42, 127
2, 28280, Note_on_c, 1, 93, 127
2, 28280, Note_on_c, 1, 95, 127
2, 28320, Note_off_c, 1, 42, 0
2, 28320, Note_off_c, 1, 93, 0
2, 28320, Note_off_c, 1, 95, 0
2, 28360, Note_on_c, 1, 49, 127
2, 28360, Note_on_c, 1, 54, 127
2, 28360, Note_on_c, 1, 56, 127
2, 28360, Note_on_c, 1, 60, 127
2, 28360, Note_on_c, 1, 84, 127
2, 28400, Note_on_c, 1, 37, 127
2, 28400, Note_off_c, 1, 49, 0
2, 28400, Note_on_c, 1, 53, 127
2, 28400, Note_off_c, 1, 54, 0
2, 28400, Note_off_c, 1, 56, 0
2, 28400, Note_off_c, 1, 60, 0
2, 28400, Note_on_c, 1, 61, 127
2, 28400, Note_on_c, 1, 69, 127
2, 28400, Note_off_c, 1, 84, 0
2, 28440, Note_off_c, 1, 37, 0
2, 28440, Note_on_c, 1, 44, 127
2, 28440, Note_on_c, 1, 51, 127
2, 28440, Note_off_c, 1, 53, 0
2, 28440, Note_on_c, 1, 63, 127
2, 28440, Note_on_c, 1, 68, 127
2, 28440, Note_off_c, 1, 69, 0
2, 28480, Note_off_c, 1, 44, 0
2, 28480, Note_off_c, 1, 51, 0
2, 28480, Note_on_c, 1, 57, 127
2, 28480, Note_off_c, 1, 61, 0
2, 28480, Note_off_c, 1, 63, 0
2, 28480, Note_off_c, 1, 68, 0
2, 28480, Note_on_c, 1, 76, 127
2, 28480, Note_on_c, 1, 79, 127
2, 28480, Note_on_c, 1, 85, 127
2, 28480, Note_on_c, 1, 88, 127
2, 28520, Note_on_c, 1, 43, 127
2, 28520, Note_on_c, 1, 46, 127
2, 28520, Note_on_c, 1, 51, 127
2, 28520, Note_off_c, 1, 57, 0
2, 28520, Note_on_c, 1, 70, 127
2, 28520, Note_on_c, 1, 75, 127
2, 28520, Note_off_c, 1, 76, 0
2, 28520, Note_off_c, 1, 79, 0
2, 28520, Note_off_c, 1, 85, 0
2, 28520, Note_off_c, 1, 88, 0
2, 28560, Note_off_c, 1, 43, 0
2, 28560, Note_off_c, 1, 46, 0
2, 28560, Note_on_c, 1, 49, 127
2, 28560, Note_off_c, 1, 51, 0
2, 28560, Note_on_c, 1, 52, 127
2, 28560, Note_on_c, 1, 56, 127
2, 28560, Note_on_c, 1, 61, 127
2, 28560, Note_on_c, 1, 68, 127
2, 28560, Note_off_c, 1, 70, 0
2, 28560, Note_off_c, 1, 75, 0
2, 28600, Note_off_c, 1, 49, 0
2, 28600, Note_on_c, 1, 50, 127
2, 28600, Note_off_c, 1, 52, 0
2, 28600, Note_on_c, 1, 60, 127
2, 28600, Note_off_c, 1, 61, 0
2, 28600, Note_on_c, 1, 66, 127
2, 28600, Note_off_c, 1, 68, 0
2, 28640, Note_off_c, 1, 50, 0
2, 28640, Note_off_c, 1, 56, 0
2, 28640, Note_off_c, 1, 60, 0
2, 28640, Note_off_c, 1, 66, 0
2, 28680, Note_on_c, 1, 61, 127
2, 28680, Note_on_c, 1, 79, 127
2, 28680, Note_on_c, 1, 85, 127
2, 28680, Note_on_c, 1, 88, 127
2, 28680, Note_on_c, 1, 91, 127
2, 28960, Note_on_c, 1, 46, 127
2, 28960, Note_off_c, 1, 61, 0
2, 28960, Note_off_c, 1, 79, 0
2, 28960, Note_off_c, 1, 85, 0
2, 28960, Note_off_c, 1, 88, 0
2, 28960, Note_off_c, 1, 91, 0
2, 29000, Note_off_c, 1, 46, 0
2, 29000, Note_on_c, 1, 51, 127
2, 29000, Note_on_c, 1, 55, 127
2, 29000, Note_on_c, 1, 58, 127
2, 29000, Note_on_c, 1, 61, 127
2, 29000, Note_on_c, 1, 63, 127
2, 29000, Note_on_c, 1, 67, 127
2, 29040, Note_off_c, 1, 51, 0
2, 29040, Note_off_c, 1, 55, 0
2, 29040, Note_off_c, 1, 58, 0
2, 29040, Note_off_c, 1, 61, 0
2, 29040, Note_off_c, 1, 63, 0
2, 29040, Note_on_c, 1, 64, 127
2, 29040, Note_off_c, 1, 67, 0
2, 29040, Note_on_c, 1, 79, 127
2, 29040, Note_on_c, 1, 85, 127
2, 29040, Note_on_c, 1, 88, 127
2, 29040, Note_on_c, 1, 91, 127
2, 29080, Note_off_c, 1, 64, 0
2, 29080, Note_on_c, 1, 74, 127
2, 29080, Note_off_c, 1, 79, 0
2, 29080, Note_on_c, 1, 80, 127
2, 29080, Note_on_c, 1, 83, 127
2, 29080, Note_off_c, 1, 85, 0
2, 29080, Note_off_c, 1, 88, 0
2, 29080, Note_off_c, 1, 91, 0
2, 29080, Note_on_c, 1, 95, 127
2, 29120, Note_on_c, 1, 45, 127
2, 29120, Note_on_c, 1, 49, 127
2, 29120, Note_on_c, 1, 52, 127
2, 29120, Note_on_c, 1, 54, 127
2, 29120, Note_on_c, 1, 66, 127
2, 29120, Note_off_c, 1, 74, 0
2, 29120, Note_off_c, 1, 80, 0
2, 29120, Note_off_c, 1, 83, 0
2, 29120, Note_off_c, 1, 95, 0
2, 29160, Note_on_c, 1, 29, 127
2, 29160, Note_on_c, 1, 36, 127
2, 29160, Note_off_c, 1, 45, 0
2, 29160, Note_off_c, 1, 49, 0
2, 29160, Note_on_c, 1, 51, 127
2, 29160, Note_off_c, 1, 52, 0
2, 29160, Note_off_c, 1, 54, 0
2, 29160, Note_on_c, 1, 57, 127
2, 29160, Note_off_c, 1, 66, 0
2, 29200, Note_off_c, 1, 29, 0
2, 29200, Note_off_c, 1, 36, 0
2, 29200, Note_off_c, 1, 51, 0
2, 29200, Note_on_c, 1, 62, 127
2, 29200, Note_on_c, 1, 86, 127
2, 29200, Note_on_c, 1, 93, 127
2, 29240, Note_on_c, 1, 34, 127
2, 29240, Note_off_c, 1, 57, 0
2, 29240, Note_off_c, 1, 62, 0
2, 29240, Note_on_c, 1, 85, 127
2, 29240, Note_off_c, 1, 86, 0
2, 29240, Note_on_c, 1, 89, 127
2, 29240, Note_off_c, 1, 93, 0
2, 29280, Note_off_c, 1, 34, 0
2, 29280, Note_on_c, 1, 60, 127
2, 29280, Note_on_c, 1, 63, 127
2, 29280, Note_on_c, 1, 68, 127
2, 29280, Note_on_c, 1, 74, 127
2, 29280, Note_off_c, 1, 85, 0
2, 29280, Note_on_c, 1, 86, 127
2, 29280, Note_off_c, 1, 89, 0
2, 29320, Note_off_c, 1, 60, 0
2, 29320, Note_off_c, 1, 63, 0
2, 29320, Note_off_c, 1, 68, 0
2, 29320, Note_off_c, 1, 74, 0
2, 29320, Note_off_c, 1, 86, 0
2, 29360, Note_on_c, 1, 47, 127
2, 29360, Note_on_c, 1, 52, 127
2, 29360, Note_on_c, 1, 56, 127
2, 29360, Note_on_c, 1, 68, 127
2, 29360, Note_on_c, 1, 80, 127
2, 29480, Note_off_c, 1, 47, 0
2, 29480, Note_off_c, 1, 52, 0
2, 29480, Note_off_c, 1, 56, 0
2, 29480, Note_off_c, 1, 68, 0
2, 29480, Note_off_c, 1, 80, 0
2, 29520, Note_on_c, 1, 60, 127
2, 29520, Note_on_c, 1, 67, 127
2, 29520, Note_on_c, 1, 72, 127
2, 29520, Note_on_c, 1, 75, 127
2, 29520, Note_on_c, 1, 79, 127
2, 29520, Note_on_c, 1, 87, 127
2, 29640, Note_off_c, 1, 60, 0
2, 29640, Note_off_c, 1, 67, 0
2, 29640, Note_off_c, 1, 72, 0
2, 29640, Note_off_c, 1, 75, 0
2, 29640, Note_off_c, 1, 79, 0
2, 29640, Note_off_c, 1, 87, 0
2, 29680, Note_on_c, 1, 60, 127
2, 29680, Note_on_c, 1, 67, 127
2, 29680, Note_on_c, 1, 72, 127
2, 29680, Note_on_c, 1, 75, 127
2, 29680, Note_on_c, 1, 79, 127
2, 29680, Note_on_c, 1, 87, 127
2, 29960, Note_off_c, 1, 60, 0
2, 29960, Note_off_c, 1, 67, 0
2, 29960, Note_off_c, 1, 72, 0
2, 29960, Note_off_c, 1, 75, 0
2, 29960, Note_off_c, 1, 79, 0
2, 29960, Note_off_c, 1, 87, 0
2, 30040, Note_on_c, 1, 60, 127
2, 30040, Note_on_c, 1, 67, 127
2, 30040, Note_on_c, 1, 72, 127
2, 30040, Note_on_c, 1, 75, 127
2, 30040, Note_on_c, 1, 79, 127
2, 30040, Note_on_c, 1, 87, 127
2, 30320, Note_off_c, 1, 60, 0
2, 30320, Note_off_c, 1, 67, 0
2, 30320, Note_off_c, 1, 72, 0
2, 30320, Note_off_c, 1, 75, 0
2, 30320, Note_off_c, 1, 79, 0
2, 30320, Note_off_c, 1, 87, 0
2, 30360, Note_on_c, 1, 56, 127
2, 30360, Note_on_c, 1, 59, 127
2, 30360, Note_on_c, 1, 64, 127
2, 30360, Note_on_c, 1, 68, 127
2, 30360, Note_on_c, 1, 88, 127
2, 30360, Note_on_c, 1, 95, 127
2, 30360, Note_on_c, 1, 100, 127
2, 30400, Note_on_c, 1, 42, 127
2, 30400, Note_off_c, 1, 56, 0
2, 30400, Note_off_c, 1, 59, 0
2, 30400, Note_off_c, 1, 64, 0
2, 30400, Note_off_c, 1, 68, 0
2, 30400, Note_on_c, 1, 78, 127
2, 30400, Note_on_c, 1, 81, 127
2, 30400, Note_on_c, 1, 87, 127
2, 30400, Note_off_c, 1, 88, 0
2, 30400, Note_on_c, 1, 90, 127
2, 30400, Note_off_c, 1, 95, 0
2, 30400, Note_off_c, 1, 100, 0
2, 30440, Note_off_c, 1, 42, 0
2, 30440, Note_off_c, 1, 78, 0
2, 30440, Note_off_c, 1, 81, 0
2, 30440, Note_off_c, 1, 87, 0
2, 30440, Note_off_c, 1, 90, 0
2, 30480, Note_on_c, 1, 88, 127
2, 30480, Note_on_c, 1, 95, 127
2, 30480, Note_on_c, 1, 100, 127
2, 30720, Note_off_c, 1, 88, 0
2, 30720, Note_off_c, 1, 95, 0
2, 30720, Note_off_c, 1, 100, 0
2, 30760, Note_on_c, 1, 44, 127
2, 30760, Note_on_c, 1, 56, 127
2, 30760, Note_on_c, 1, 78, 127
2, 30760, Note_on_c, 1, 80, 127
2, 30760, Note_on_c, 1, 84, 127
2, 30760, Note_on_c, 1, 87, 127
2, 31040, Note_off_c, 1, 44, 0
2, 31040, Note_off_c, 1, 56, 0
2, 31040, Note_off_c, 1, 78, 0
2, 31040, Note_off_c, 1, 80, 0
2, 31040, Note_off_c, 1, 84, 0
2, 31040, Note_off_c, 1, 87, 0
2, 31080, Note_on_c, 1, 44, 127
2, 31080, Note_on_c, 1, 56, 127
2, 31080, Note_on_c, 1, 78, 127
2, 31080, Note_on_c, 1, 80, 127
2, 31080, Note_on_c, 1, 84, 127
2, 31080, Note_on_c, 1, 87, 127
2, 31360, Note_off_c, 1, 44, 0
2, 31360, Note_off_c, 1, 56, 0
2, 31360, Note_off_c, 1, 78, 0
2, 31360, Note_off_c, 1, 80, 0
2, 31360, Note_off_c, 1, 84, 0
2, 31360, Note_off_c, 1, 87, 0
2, 31440, Note_on_c, 1, 44, 127
2, 31440, Note_on_c, 1, 56, 127
2, 31440, Note_on_c, 1, 78, 127
2, 31440, Note_on_c, 1, 80, 127
2, 31440, Note_on_c, 1, 84, 127
2, 31440, Note_on_c, 1, 87, 127
2, 31720, Note_off_c, 1, 44, 0
2, 31720, Note_off_c, 1, 56, 0
2, 31720, Note_off_c, 1, 78, 0
2, 31720, Note_off_c, 1, 80, 0
2, 31720, Note_off_c, 1, 84, 0
2, 31720, Note_off_c, 1, 87, 0
2, 31760, Note_on_c, 1, 42, 127
2, 31760, Note_on_c, 1, 45, 127
2, 31760, Note_on_c, 1, 47, 127
2, 31760, Note_on_c, 1, 59, 127
2, 31760, Note_on_c, 1, 69, 127
2, 31760, Note_on_c, 1, 71, 127
2, 32040, Note_off_c, 1, 42, 0
2, 32040, Note_off_c, 1, 45, 0
2, 32040, Note_off_c, 1, 47, 0
2, 32040, Note_on_c, 1, 56, 127
2, 32040, Note_off_c, 1, 59, 0
2, 32040, Note_on_c, 1, 68, 127
2, 32040, Note_off_c, 1, 69, 0
2, 32040, Note_off_c, 1, 71, 0
2, 32040, Note_on_c, 1, 78, 127
2, 32040, Note_on_c, 1, 80, 127
2, 32040, Note_on_c, 1, 84, 127
2, 32040, Note_on_c, 1, 87, 127
2, 32080, Note_off_c, 1, 56, 0
2, 32080, Note_off_c, 1, 68, 0
2, 32080, Note_off_c, 1, 78, 0
2, 32080, Note_off_c, 1, 80, 0
2, 32080, Note_off_c, 1, 84, 0
2, 32080, Note_off_c, 1, 87, 0
2, 32120, Note_on_c, 1, 49, 127
2, 32120, Note_on_c, 1, 54, 127
2, 32120, Note_on_c, 1, 56, 127
2, 32120, Note_on_c, 1, 60, 127
2, 32120, Note_on_c, 1, 85, 127
2, 32160, Note_on_c, 1, 34, 127
2, 32160, Note_on_c, 1, 46, 127
2, 32160, Note_off_c, 1, 49, 0
2, 32160, Note_off_c, 1, 54, 0
2, 32160, Note_off_c, 1, 56, 0
2, 32160, Note_off_c, 1, 60, 0
2, 32160, Note_on_c, 1, 65, 127
2, 32160, Note_on_c, 1, 70, 127
2, 32160, Note_on_c, 1, 73, 127
2, 32160, Note_off_c, 1, 85, 0
2, 32200, Note_off_c, 1, 34, 0
2, 32200, Note_off_c, 1, 46, 0
2, 32200, Note_on_c, 1, 59, 127
2, 32200, Note_off_c, 1, 65, 0
2, 32200, Note_on_c, 1, 68, 127
2, 32200, Note_off_c, 1, 70, 0
2, 32200, Note_off_c, 1, 73, 0
2, 32200, Note_on_c, 1, 83, 127
2, 32200, Note_on_c, 1, 95, 127
2, 32240, Note_on_c, 1, 51, 127
2, 32240, Note_off_c, 1, 59, 0
2, 32240, Note_on_c, 1, 63, 127
2, 32240, Note_on_c, 1, 73, 127
2, 32240, Note_on_c, 1, 77, 127
2, 32240, Note_on_c, 1, 80, 127
2, 32240, Note_off_c, 1, 83, 0
2, 32240, Note_off_c, 1, 95, 0
2, 32280, Note_off_c, 1, 51, 0
2, 32280, Note_on_c, 1, 59, 127
2, 32280, Note_off_c, 1, 63, 0
2, 32280, Note_off_c, 1, 68, 0
2, 32280, Note_off_c, 1, 73, 0
2, 32280, Note_on_c, 1, 86, 127
2, 32280, Note_on_c, 1, 89, 127
2, 32360, Note_off_c, 1, 59, 0
2, 32360, Note_off_c, 1, 77, 0
2, 32360, Note_off_c, 1, 80, 0
2, 32360, Note_off_c, 1, 86, 0
2, 32360, Note_off_c, 1, 89, 0
2, 32400, Note_on_c, 1, 59, 127
2, 32400, Note_on_c, 1, 77, 127
2, 32400, Note_on_c, 1, 80, 127
2, 32400, Note_on_c, 1, 86, 127
2, 32400, Note_on_c, 1, 89, 127
2, 32440, Note_off_c, 1, 59, 0
2, 32440, Note_off_c, 1, 77, 0
2, 32440, Note_off_c, 1, 80, 0
2, 32440, Note_off_c, 1, 86, 0
2, 32440, Note_off_c, 1, 89, 0
2, 32480, Note_on_c, 1, 45, 127
2, 32480, Note_on_c, 1, 50, 127
2, 32480, Note_on_c, 1, 53, 127
2, 32480, Note_on_c, 1, 69, 127
2, 32480, Note_on_c, 1, 74, 127
2, 32480, Note_on_c, 1, 77, 127
2, 32480, Note_on_c, 1, 81, 127
2, 32800, Note_off_c, 1, 45, 0
2, 32840, Note_on_c, 1, 45, 127
2, 33120, Note_off_c, 1, 45, 0
2, 33120, Note_off_c, 1, 50, 0
2, 33120, Note_off_c, 1, 53, 0
2, 33120, Note_off_c, 1, 69, 0
2, 33120, Note_off_c, 1, 74, 0
2, 33120, Note_off_c, 1, 77, 0
2, 33120, Note_off_c, 1, 81, 0
2, 33160, Note_on_c, 1, 45, 127
2, 33160, Note_on_c, 1, 52, 127
2, 33160, Note_on_c, 1, 55, 127
2, 33160, Note_on_c, 1, 67, 127
2, 33160, Note_on_c, 1, 69, 127
2, 33160, Note_on_c, 1, 76, 127
2, 33160, Note_on_c, 1, 79, 127
2, 33800, Note_off_c, 1, 45, 0
2, 33840, Note_on_c, 1, 45, 127
2, 34160, Note_off_c, 1, 45, 0
2, 34160, Note_off_c, 1, 52, 0
2, 34160, Note_off_c, 1, 55, 0
2, 34160, Note_off_c, 1, 67, 0
2, 34160, Note_off_c, 1, 69, 0
2, 34160, Note_off_c, 1, 76, 0
2, 34160, Note_off_c, 1, 79, 0
2, 34200, Note_on_c, 1, 48, 127
2, 34200, Note_on_c, 1, 60, 127
2, 34200, Note_on_c, 1, 68, 127
2, 34200, Note_on_c, 1, 77, 127
2, 34200, Note_on_c, 1, 80, 127
2, 34440, Note_off_c, 1, 48, 0
2, 34440, Note_off_c, 1, 60, 0
2, 34440, Note_off_c, 1, 68, 0
2, 34440, Note_off_c, 1, 77, 0
2, 34440, Note_off_c, 1, 80, 0
2, 34480, Note_on_c, 1, 48, 127
2, 34480, Note_on_c, 1, 60, 127
2, 34480, Note_on_c, 1, 68, 127
2, 34480, Note_on_c, 1, 77, 127
2, 34480, Note_on_c, 1, 80, 127
2, 34520, Note_on_c, 1, 33, 127
2, 34520, Note_on_c, 1, 45, 127
2, 34520, Note_off_c, 1, 48, 0
2, 34520, Note_on_c, 1, 53, 127
2, 34520, Note_on_c, 1, 63, 127
2, 34520, Note_on_c, 1, 65, 127
2, 34520, Note_off_c, 1, 68, 0
2, 34520, Note_off_c, 1, 77, 0
2, 34520, Note_off_c, 1, 80, 0
2, 34560, Note_off_c, 1, 33, 0
2, 34560, Note_on_c, 1, 44, 127
2, 34560, Note_off_c, 1, 45, 0
2, 34560, Note_on_c, 1, 48, 127
2, 34560, Note_off_c, 1, 53, 0
2, 34560, Note_off_c, 1, 60, 0
2, 34560, Note_off_c, 1, 63, 0
2, 34560, Note_off_c, 1, 65, 0
2, 34560, Note_on_c, 1, 72, 127
2, 34560, Note_on_c, 1, 74, 127
2, 34560, Note_on_c, 1, 84, 127
2, 34600, Note_off_c, 1, 48, 0
2, 34600, Note_on_c, 1, 56, 127
2, 34600, Note_on_c, 1, 70, 127
2, 34600, Note_off_c, 1, 72, 0
2, 34600, Note_on_c, 1, 73, 127
2, 34600, Note_off_c, 1, 74, 0
2, 34600, Note_on_c, 1, 77, 127
2, 34600, Note_off_c, 1, 84, 0
2, 34640, Note_off_c, 1, 44, 0
2, 34640, Note_off_c, 1, 56, 0
2, 34640, Note_on_c, 1, 64, 127
2, 34640, Note_on_c, 1, 69, 127
2, 34640, Note_off_c, 1, 70, 0
2, 34640, Note_on_c, 1, 72, 127
2, 34640, Note_off_c, 1, 73, 0
2, 34640, Note_on_c, 1, 84, 127
2, 34680, Note_on_c, 1, 44, 127
2, 34680, Note_on_c, 1, 48, 127
2, 34680, Note_off_c, 1, 64, 0
2, 34680, Note_off_c, 1, 69, 0
2, 34680, Note_on_c, 1, 74, 127
2, 34680, Note_off_c, 1, 77, 0
2, 34720, Note_off_c, 1, 48, 0
2, 34720, Note_on_c, 1, 56, 127
2, 34720, Note_on_c, 1, 70, 127
2, 34720, Note_off_c, 1, 72, 0
2, 34720, Note_on_c, 1, 73, 127
2, 34720, Note_off_c, 1, 74, 0
2, 34720, Note_on_c, 1, 77, 127
2, 34720, Note_off_c, 1, 84, 0
2, 34880, Note_off_c, 1, 44, 0
2, 34880, Note_off_c, 1, 56, 0
2, 34880, Note_off_c, 1, 70, 0
2, 34880, Note_off_c, 1, 73, 0
2, 34880, Note_off_c, 1, 77, 0
2, 34920, Note_on_c, 1, 43, 127
2, 34920, Note_on_c, 1, 55, 127
2, 34920, Note_on_c, 1, 65, 127
2, 34920, Note_on_c, 1, 71, 127
2, 34920, Note_on_c, 1, 74, 127
2, 35560, Note_off_c, 1, 43, 0
2, 35560, Note_off_c, 1, 55, 0
2, 35560, Note_off_c, 1, 65, 0
2, 35560, Note_off_c, 1, 71, 0
2, 35560, Note_off_c, 1, 74, 0
2, 35600, Note_on_c, 1, 43, 127
2, 35600, Note_on_c, 1, 55, 127
2, 35600, Note_on_c, 1, 62, 127
2, 35600, Note_on_c, 1, 67, 127
2, 35600, Note_on_c, 1, 71, 127
2, 35880, Note_off_c, 1, 43, 0
2, 35880, Note_off_c, 1, 55, 0
2, 35880, Note_off_c, 1, 62, 0
2, 35880, Note_off_c, 1, 67, 0
2, 35880, Note_off_c, 1, 71, 0
2, 35920, Note_on_c, 1, 37, 127
2, 35920, Note_on_c, 1, 41, 127
2, 35920, Note_on_c, 1, 49, 127
2, 36240, Note_off_c, 1, 37, 0
2, 36240, Note_off_c, 1, 41, 0
2, 36240, Note_off_c, 1, 49, 0
2, 36280, Note_on_c, 1, 36, 127
2, 36280, Note_on_c, 1, 39, 127
2, 36280, Note_on_c, 1, 48, 127
2, 36280, Note_on_c, 1, 68, 127
2, 36600, Note_off_c, 1, 36, 0
2, 36600, Note_off_c, 1, 39, 0
2, 36600, Note_off_c, 1, 48, 0
2, 36600, Note_off_c, 1, 68, 0
2, 36680, Note_on_c, 1, 32, 127
2, 36680, Note_on_c, 1, 36, 127
2, 36680, Note_on_c, 1, 44, 127
2, 36680, Note_on_c, 1, 68, 127
2, 36960, Note_off_c, 1, 32, 0
2, 36960, Note_off_c, 1, 36, 0
2, 36960, Note_off_c, 1, 44, 0
2, 36960, Note_off_c, 1, 68, 0
2, 37000, Note_on_c, 1, 43, 127
2, 37000, Note_on_c, 1, 71, 127
2, 37000, Note_on_c, 1, 77, 127
2, 37000, Note_on_c, 1, 83, 127
2, 37640, Note_off_c, 1, 43, 0
2, 37680, Note_on_c, 1, 47, 127
2, 37680, Note_on_c, 1, 68, 127
2, 37680, Note_off_c, 1, 71, 0
2, 37680, Note_off_c, 1, 77, 0
2, 37680, Note_on_c, 1, 80, 127
2, 37680, Note_off_c, 1, 83, 0
2, 38000, Note_off_c, 1, 47, 0
2, 38000, Note_on_c, 1, 72, 127
2, 38000, Note_off_c, 1, 80, 0
2, 38040, Note_on_c, 1, 32, 127
2, 38040, Note_on_c, 1, 44, 127
2, 38040, Note_on_c, 1, 63, 127
2, 38040, Note_off_c, 1, 72, 0
2, 38040, Note_on_c, 1, 73, 127
2, 38360, Note_off_c, 1, 32, 0
2, 38360, Note_off_c, 1, 44, 0
2, 38360, Note_off_c, 1, 63, 0
2, 38360, Note_off_c, 1, 68, 0
2, 38360, Note_off_c, 1, 73, 0
2, 38400, Note_on_c, 1, 36, 127
2, 38400, Note_on_c, 1, 48, 127
2, 38400, Note_on_c, 1, 66, 127
2, 38400, Note_on_c, 1, 69, 127
2, 38400, Note_on_c, 1, 74, 127
2, 38400, Note_on_c, 1, 76, 127
2, 38680, Note_off_c, 1, 36, 0
2, 38680, Note_off_c, 1, 48, 0
2, 38680, Note_off_c, 1, 66, 0
2, 38680, Note_off_c, 1, 69, 0
2, 38680, Note_off_c, 1, 74, 0
2, 38680, Note_off_c, 1, 76, 0
2, 38760, Note_on_c, 1, 37, 127
2, 38760, Note_on_c, 1, 88, 127
2, 38760, Note_on_c, 1, 92, 127
2, 38760, Note_on_c, 1, 95, 127
2, 38760, Note_on_c, 1, 100, 127
2, 39040, Note_off_c, 1, 37, 0
2, 39040, Note_off_c, 1, 88, 0
2, 39040, Note_off_c, 1, 92, 0
2, 39040, Note_off_c, 1, 95, 0
2, 39040, Note_off_c, 1, 100, 0
2, 39120, Note_on_c, 1, 55, 127
2, 39120, Note_on_c, 1, 65, 127
2, 39120, Note_on_c, 1, 72, 127
2, 39120, Note_on_c, 1, 81, 127
2, 39120, Note_on_c, 1, 84, 127
2, 39400, Note_off_c, 1, 55, 0
2, 39400, Note_off_c, 1, 65, 0
2, 39400, Note_off_c, 1, 72, 0
2, 39400, Note_off_c, 1, 81, 0
2, 39400, Note_off_c, 1, 84, 0
2, 39440, Note_on_c, 1, 48, 127
2, 39440, Note_on_c, 1, 60, 127
2, 39440, Note_on_c, 1, 72, 127
2, 39440, Note_on_c, 1, 75, 127
2, 39440, Note_on_c, 1, 84, 127
2, 39560, Note_off_c, 1, 48, 0
2, 39560, Note_on_c, 1, 51, 127
2, 39560, Note_off_c, 1, 60, 0
2, 39560, Note_on_c, 1, 63, 127
2, 39560, Note_on_c, 1, 70, 127
2, 39560, Note_off_c, 1, 72, 0
2, 39560, Note_on_c, 1, 79, 127
2, 39560, Note_off_c, 1, 84, 0
2, 39600, Note_on_c, 1, 48, 127
2, 39600, Note_off_c, 1, 51, 0
2, 39600, Note_on_c, 1, 60, 127
2, 39600, Note_off_c, 1, 63, 0
2, 39600, Note_off_c, 1, 70, 0
2, 39600, Note_on_c, 1, 72, 127
2, 39600, Note_off_c, 1, 79, 0
2, 39600, Note_on_c, 1, 84, 127
2, 39720, Note_off_c, 1, 48, 0
2, 39720, Note_off_c, 1, 60, 0
2, 39720, Note_off_c, 1, 72, 0
2, 39720, Note_off_c, 1, 75, 0
2, 39720, Note_off_c, 1, 84, 0
2, 39800, Note_on_c, 1, 54, 127
2, 39800, Note_on_c, 1, 59, 127
2, 39800, Note_on_c, 1, 63, 127
2, 39800, Note_on_c, 1, 66, 127
2, 39800, Note_on_c, 1, 71, 127
2, 39800, Note_on_c, 1, 75, 127
2, 39800, Note_on_c, 1, 78, 127
2, 39800, Note_on_c, 1, 83, 127
2, 40080, Note_off_c, 1, 54, 0
2, 40080, Note_off_c, 1, 59, 0
2, 40080, Note_off_c, 1, 63, 0
2, 40080, Note_off_c, 1, 66, 0
2, 40080, Note_off_c, 1, 71, 0
2, 40080, Note_off_c, 1, 83, 0
2, 40080, Note_on_c, 1, 84, 127
2, 40080, Note_on_c, 1, 87, 127
2, 40120, Note_off_c, 1, 75, 0
2, 40120, Note_off_c, 1, 78, 0
2, 40120, Note_off_c, 1, 84, 0
2, 40120, Note_off_c, 1, 87, 0
2, 40160, Note_on_c, 1, 39, 127
2, 40160, Note_on_c, 1, 51, 127
2, 40160, Note_on_c, 1, 66, 127
2, 40160, Note_on_c, 1, 71, 127
2, 40160, Note_on_c, 1, 81, 127
2, 40440, Note_off_c, 1, 39, 0
2, 40440, Note_off_c, 1, 51, 0
2, 40440, Note_off_c, 1, 66, 0
2, 40440, Note_off_c, 1, 71, 0
2, 40440, Note_off_c, 1, 81, 0
2, 40480, Note_on_c, 1, 54, 127
2, 40480, Note_on_c, 1, 59, 127
2, 40480, Note_on_c, 1, 61, 127
2, 40480, Note_on_c, 1, 64, 127
2, 40480, Note_on_c, 1, 68, 127
2, 40480, Note_on_c, 1, 73, 127
2, 40480, Note_on_c, 1, 80, 127
2, 40760, Note_off_c, 1, 54, 0
2, 40760, Note_off_c, 1, 59, 0
2, 40760, Note_off_c, 1, 61, 0
2, 40760, Note_off_c, 1, 64, 0
2, 40760, Note_off_c, 1, 68, 0
2, 40760, Note_off_c, 1, 73, 0
2, 40760, Note_off_c, 1, 80, 0
2, 40800, Note_on_c, 1, 54, 127
2, 40800, Note_on_c, 1, 59, 127
2, 40800, Note_on_c, 1, 61, 127
2, 40800, Note_on_c, 1, 64, 127
2, 40800, Note_on_c, 1, 68, 127
2, 40800, Note_on_c, 1, 73, 127
2, 40800, Note_on_c, 1, 80, 127
2, 40840, Note_off_c, 1, 54, 0
2, 40840, Note_off_c, 1, 59, 0
2, 40840, Note_off_c, 1, 61, 0
2, 40840, Note_off_c, 1, 64, 0
2, 40840, Note_off_c, 1, 68, 0
2, 40840, Note_off_c, 1, 73, 0
2, 40840, Note_off_c, 1, 80, 0
2, 40880, Note_on_c, 1, 35, 127
2, 40880, Note_on_c, 1, 47, 127
2, 40880, Note_on_c, 1, 54, 127
2, 40880, Note_on_c, 1, 59, 127
2, 40880, Note_on_c, 1, 63, 127
2, 40880, Note_on_c, 1, 78, 127
2, 40920, Note_off_c, 1, 35, 0
2, 40920, Note_off_c, 1, 47, 0
2, 40920, Note_on_c, 1, 52, 127
2, 40920, Note_on_c, 1, 57, 127
2, 40920, Note_off_c, 1, 78, 0
2, 40920, Note_on_c, 1, 87, 127
2, 40960, Note_on_c, 1, 35, 127
2, 40960, Note_on_c, 1, 47, 127
2, 40960, Note_off_c, 1, 52, 0
2, 40960, Note_off_c, 1, 57, 0
2, 40960, Note_on_c, 1, 78, 127
2, 40960, Note_off_c, 1, 87, 0
2, 41000, Note_off_c, 1, 35, 0
2, 41000, Note_off_c, 1, 47, 0
2, 41000, Note_off_c, 1, 54, 0
2, 41000, Note_off_c, 1, 59, 0
2, 41000, Note_off_c, 1, 63, 0
2, 41000, Note_on_c, 1, 68, 127
2, 41000, Note_on_c, 1, 77, 127
2, 41000, Note_off_c, 1, 78, 0
2, 41000, Note_on_c, 1, 80, 127
2, 41000, Note_on_c, 1, 83, 127
2, 41040, Note_on_c, 1, 42, 127
2, 41040, Note_on_c, 1, 46, 127
2, 41040, Note_on_c, 1, 54, 127
2, 41040, Note_off_c, 1, 68, 0
2, 41040, Note_on_c, 1, 74, 127
2, 41040, Note_off_c, 1, 77, 0
2, 41040, Note_off_c, 1, 80, 0
2, 41040, Note_off_c, 1, 83, 0
2, 41040, Note_on_c, 1, 86, 127
2, 41160, Note_off_c, 1, 42, 0
2, 41160, Note_off_c, 1, 46, 0
2, 41160, Note_off_c, 1, 54, 0
2, 41160, Note_off_c, 1, 74, 0
2, 41160, Note_off_c, 1, 86, 0
2, 41240, Note_on_c, 1, 52, 127
2, 41240, Note_on_c, 1, 60, 127
2, 41240, Note_on_c, 1, 64, 127
2, 41240, Note_on_c, 1, 67, 127
2, 41240, Note_on_c, 1, 76, 127
2, 41520, Note_off_c, 1, 52, 0
2, 41520, Note_off_c, 1, 60, 0
2, 41520, Note_off_c, 1, 64, 0
2, 41520, Note_off_c, 1, 67, 0
2, 41520, Note_off_c, 1, 76, 0
2, 41560, Note_on_c, 1, 33, 127
2, 41560, Note_on_c, 1, 45, 127
2, 41560, Note_on_c, 1, 75, 127
2, 41560, Note_on_c, 1, 79, 127
2, 41560, Note_on_c, 1, 85, 127
2, 41560, Note_on_c, 1, 87, 127
2, 41840, Note_off_c, 1, 75, 0
2, 41840, Note_off_c, 1, 79, 0
2, 41840, Note_off_c, 1, 85, 0
2, 41840, Note_off_c, 1, 87, 0
2, 41880, Note_off_c, 1, 33, 0
2, 41880, Note_off_c, 1, 45, 0
2, 41920, Note_on_c, 1, 61, 127
2, 41920, Note_on_c, 1, 68, 127
2, 41920, Note_on_c, 1, 71, 127
2, 41920, Note_on_c, 1, 73, 127
2, 41920, Note_on_c, 1, 77, 127
2, 41920, Note_on_c, 1, 85, 127
2, 42160, Note_off_c, 1, 61, 0
2, 42160, Note_off_c, 1, 68, 0
2, 42160, Note_off_c, 1, 71, 0
2, 42160, Note_off_c, 1, 73, 0
2, 42160, Note_off_c, 1, 77, 0
2, 42160, Note_off_c, 1, 85, 0
2, 42240, Note_on_c, 1, 39, 127
2, 42240, Note_on_c, 1, 49, 127
2, 42240, Note_on_c, 1, 55, 127
2, 42240, Note_on_c, 1, 64, 127
2, 42280, Note_on_c, 1, 34, 127
2, 42280, Note_off_c, 1, 39, 0
2, 42280, Note_on_c, 1, 46, 127
2, 42280, Note_off_c, 1, 49, 0
2, 42280, Note_off_c, 1, 55, 0
2, 42280, Note_on_c, 1, 56, 127
2, 42280, Note_off_c, 1, 64, 0
2, 42280, Note_on_c, 1, 75, 127
2, 42320, Note_off_c, 1, 34, 0
2, 42320, Note_on_c, 1, 40, 127
2, 42320, Note_off_c, 1, 46, 0
2, 42320, Note_on_c, 1, 55, 127
2, 42320, Note_off_c, 1, 56, 0
2, 42320, Note_on_c, 1, 60, 127
2, 42320, Note_on_c, 1, 69, 127
2, 42320, Note_off_c, 1, 75, 0
2, 42360, Note_off_c, 1, 40, 0
2, 42360, Note_on_c, 1, 53, 127
2, 42360, Note_off_c, 1, 55, 0
2, 42360, Note_on_c, 1, 58, 127
2, 42360, Note_off_c, 1, 60, 0
2, 42360, Note_on_c, 1, 62, 127
2, 42360, Note_on_c, 1, 68, 127
2, 42360, Note_off_c, 1, 69, 0
2, 42360, Note_on_c, 1, 80, 127
2, 42400, Note_on_c, 1, 26, 127
2, 42400, Note_on_c, 1, 38, 127
2, 42400, Note_off_c, 1, 53, 0
2, 42400, Note_off_c, 1, 58, 0
2, 42400, Note_off_c, 1, 62, 0
2, 42400, Note_off_c, 1, 68, 0
2, 42400, Note_off_c, 1, 80, 0
2, 42400, Note_on_c, 1, 86, 127
2, 42440, Note_off_c, 1, 26, 0
2, 42440, Note_off_c, 1, 38, 0
2, 42440, Note_on_c, 1, 40, 127
2, 42440, Note_on_c, 1, 44, 127
2, 42440, Note_on_c, 1, 47, 127
2, 42440, Note_on_c, 1, 52, 127
2, 42440, Note_on_c, 1, 64, 127
2, 42440, Note_on_c, 1, 68, 127
2, 42440, Note_on_c, 1, 71, 127
2, 42440, Note_on_c, 1, 76, 127
2, 42440, Note_on_c, 1, 80, 127
2, 42440, Note_on_c, 1, 83, 127
2, 42440, Note_off_c, 1, 86, 0
2, 42440, Note_on_c, 1, 88, 127
2, 42440, Note_on_c, 1, 95, 127
2, 42480, Note_off_c, 1, 40, 0
2, 42480, Note_off_c, 1, 44, 0
2, 42480, Note_off_c, 1, 47, 0
2, 42480, Note_on_c, 1, 49, 127
2, 42480, Note_off_c, 1, 52, 0
2, 42480, Note_on_c, 1, 55, 127
2, 42480, Note_on_c, 1, 58, 127
2, 42480, Note_on_c, 1, 63, 127
2, 42480, Note_off_c, 1, 64, 0
2, 42480, Note_on_c, 1, 67, 127
2, 42480, Note_off_c, 1, 68, 0
2, 42480, Note_on_c, 1, 70, 127
2, 42480, Note_off_c, 1, 71, 0
2, 42480, Note_on_c, 1, 73, 127
2, 42480, Note_off_c, 1, 76, 0
2, 42480, Note_off_c, 1, 80, 0
2, 42480, Note_off_c, 1, 83, 0
2, 42480, Note_off_c, 1, 88, 0
2, 42480, Note_off_c, 1, 95, 0
2, 42520, Note_off_c, 1, 49, 0
2, 42520, Note_off_c, 1, 55, 0
2, 42520, Note_off_c, 1, 58, 0
2, 42520, Note_off_c, 1, 63, 0
2, 42520, Note_off_c, 1, 67, 0
2, 42520, Note_off_c, 1, 70, 0
2, 42520, Note_off_c, 1, 73, 0
2, 42600, Note_on_c, 1, 41, 127
2, 42600, Note_on_c, 1, 68, 127
2, 42600, Note_on_c, 1, 72, 127
2, 42600, Note_on_c, 1, 77, 127
2, 42600, Note_on_c, 1, 80, 127
2, 42880, Note_off_c, 1, 41, 0
2, 42880, Note_off_c, 1, 68, 0
2, 42880, Note_off_c, 1, 72, 0
2, 42880, Note_off_c, 1, 77, 0
2, 42880, Note_off_c, 1, 80, 0
2, 43000, Note_on_c, 1, 38, 127
2, 43000, Note_on_c, 1, 45, 127
2, 43000, Note_on_c, 1, 74, 127
2, 43000, Note_on_c, 1, 78, 127
2, 43000, Note_on_c, 1, 86, 127
2, 43640, Note_off_c, 1, 38, 0
2, 43640, Note_off_c, 1, 45, 0
2, 43640, Note_off_c, 1, 74, 0
2, 43640, Note_off_c, 1, 78, 0
2, 43640, Note_off_c, 1, 86, 0
2, 43680, Note_on_c, 1, 68, 127
2, 43680, Note_on_c, 1, 70, 127
2, 43680, Note_on_c, 1, 72, 127
2, 43680, Note_on_c, 1, 75, 127
2, 43680, Note_on_c, 1, 82, 127
2, 43960, Note_off_c, 1, 68, 0
2, 43960, Note_off_c, 1, 70, 0
2, 43960, Note_off_c, 1, 72, 0
2, 43960, Note_off_c, 1, 75, 0
2, 43960, Note_on_c, 1, 80, 127
2, 43960, Note_off_c, 1, 82, 0
2, 44000, Note_off_c, 1, 80, 0
2, 44040, Note_on_c, 1, 71, 127
2, 44040, Note_on_c, 1, 76, 127
2, 44040, Note_on_c, 1, 80, 127
2, 44040, Note_on_c, 1, 88, 127
2, 44320, Note_off_c, 1, 71, 0
2, 44320, Note_off_c, 1, 76, 0
2, 44320, Note_off_c, 1, 80, 0
2, 44320, Note_off_c, 1, 88, 0
2, 44360, Note_on_c, 1, 57, 127
2, 44360, Note_on_c, 1, 85, 127
2, 44360, Note_on_c, 1, 93, 127
2, 44640, Note_off_c, 1, 57, 0
2, 44640, Note_off_c, 1, 85, 0
2, 44640, Note_off_c, 1, 93, 0
2, 44720, Note_on_c, 1, 64, 127
2, 44720, Note_on_c, 1, 71, 127
2, 44720, Note_on_c, 1, 76, 127
2, 44720, Note_on_c, 1, 80, 127
2, 44720, Note_on_c, 1, 88, 127
2, 44960, Note_off_c, 1, 64, 0
2, 44960, Note_off_c, 1, 71, 0
2, 44960, Note_off_c, 1, 76, 0
2, 44960, Note_off_c, 1, 80, 0
2, 44960, Note_off_c, 1, 88, 0
2, 45000, Note_on_c, 1, 64, 127
2, 45000, Note_on_c, 1, 71, 127
2, 45000, Note_on_c, 1, 76, 127
2, 45000, Note_on_c, 1, 80, 127
2, 45000, Note_on_c, 1, 88, 127
2, 45560, Note_on_c, 1, 57, 127
2, 45560, Note_on_c, 1, 61, 127
2, 45560, Note_on_c, 1, 69, 127
2, 45560, Note_off_c, 1, 71, 0
2, 45560, Note_off_c, 1, 76, 0
2, 45560, Note_off_c, 1, 80, 0
2, 45560, Note_off_c, 1, 88, 0
2, 45560, Note_on_c, 1, 102, 127
2, 45560, Note_on_c, 1, 103, 127
2, 45600, Note_off_c, 1, 57, 0
2, 45600, Note_off_c, 1, 61, 0
2, 45600, Note_off_c, 1, 69, 0
2, 45600, Note_on_c, 1, 71, 127
2, 45600, Note_on_c, 1, 76, 127
2, 45600, Note_on_c, 1, 80, 127
2, 45600, Note_on_c, 1, 88, 127
2, 45600, Note_off_c, 1, 102, 0
2, 45600, Note_off_c, 1, 103, 0
2, 45720, Note_on_c, 1, 41, 127
2, 45720, Note_off_c, 1, 64, 0
2, 45720, Note_off_c, 1, 71, 0
2, 45720, Note_on_c, 1, 72, 127
2, 45720, Note_off_c, 1, 76, 0
2, 45720, Note_on_c, 1, 84, 127
2, 45720, Note_off_c, 1, 88, 0
2, 45760, Note_off_c, 1, 41, 0
2, 45760, Note_off_c, 1, 72, 0
2, 45760, Note_off_c, 1, 80, 0
2, 45760, Note_off_c, 1, 84, 0
2, 46480, Note_on_c, 1, 52, 127
2, 46480, Note_on_c, 1, 57, 127
2, 46480, Note_on_c, 1, 60, 127
2, 46480, Note_on_c, 1, 64, 127
2, 46800, Note_off_c, 1, 52, 0
2, 46800, Note_off_c, 1, 57, 0
2, 46800, Note_off_c, 1, 60, 0
2, 46800, Note_off_c, 1, 64, 0
2, 46840, Note_on_c, 1, 65, 127
2, 46840, Note_on_c, 1, 69, 127
2, 46840, Note_on_c, 1, 71, 127
2, 46960, Note_off_c, 1, 65, 0
2, 46960, Note_off_c, 1, 69, 0
2, 46960, Note_off_c, 1, 71, 0
2, 47000, Note_on_c, 1, 64, 127
2, 47000, Note_on_c, 1, 69, 127
2, 47040, Note_off_c, 1, 64, 0
2, 47040, Note_off_c, 1, 69, 0
2, 47080, Note_on_c, 1, 64, 127
2, 47080, Note_on_c, 1, 69, 127
2, 47160, Note_off_c, 1, 64, 0
2, 47160, Note_off_c, 1, 69, 0
2, 47200, Note_on_c, 1, 60, 127
2, 47200, Note_on_c, 1, 64, 127
2, 47200, Note_on_c, 1, 69, 127
2, 47400, Note_on_c, 1, 48, 127
2, 47520, Note_off_c, 1, 48, 0
2, 47520, Note_off_c, 1, 60, 0
2, 47520, Note_off_c, 1, 64, 0
2, 47520, Note_off_c, 1, 69, 0
2, 47560, Note_on_c, 1, 48, 127
2, 47560, Note_on_c, 1, 60, 127
2, 47560, Note_on_c, 1, 65, 127
2, 47560, Note_on_c, 1, 69, 127
2, 47680, Note_on_c, 1, 47, 127
2, 47680, Note_off_c, 1, 48, 0
2, 47680, Note_on_c, 1, 57, 127
2, 47680, Note_off_c, 1, 60, 0
2, 47680, Note_on_c, 1, 62, 127
2, 47680, Note_off_c, 1, 65, 0
2, 47680, Note_on_c, 1, 68, 127
2, 47680, Note_off_c, 1, 69, 0
2, 47680, Note_on_c, 1, 71, 127
2, 47720, Note_off_c, 1, 47, 0
2, 47720, Note_on_c, 1, 49, 127
2, 47720, Note_on_c, 1, 55, 127
2, 47720, Note_off_c, 1, 57, 0
2, 47720, Note_on_c, 1, 59, 127
2, 47720, Note_off_c, 1, 62, 0
2, 47720, Note_on_c, 1, 67, 127
2, 47720, Note_off_c, 1, 68, 0
2, 47720, Note_off_c, 1, 71, 0
2, 47760, Note_on_c, 1, 48, 127
2, 47760, Note_off_c, 1, 49, 0
2, 47760, Note_off_c, 1, 55, 0
2, 47760, Note_off_c, 1, 59, 0
2, 47760, Note_on_c, 1, 60, 127
2, 47760, Note_on_c, 1, 63, 127
2, 47760, Note_off_c, 1, 67, 0
2, 47760, Note_on_c, 1, 69, 127
2, 47840, Note_off_c, 1, 48, 0
2, 47840, Note_off_c, 1, 60, 0
2, 47840, Note_off_c, 1, 63, 0
2, 47840, Note_off_c, 1, 69, 0
2, 47920, Note_on_c, 1, 48, 127
2, 47920, Note_on_c, 1, 60, 127
2, 47920, Note_on_c, 1, 64, 127
2, 47920, Note_on_c, 1, 67, 127
2, 48200, Note_off_c, 1, 48, 0
2, 48200, Note_off_c, 1, 60, 0
2, 48200, Note_off_c, 1, 64, 0
2, 48200, Note_off_c, 1, 67, 0
2, 48240, Note_on_c, 1, 50, 127
2, 48240, Note_on_c, 1, 57, 127
2, 48240, Note_on_c, 1, 65, 127
2, 48520, Note_off_c, 1, 50, 0
2, 48520, Note_off_c, 1, 57, 0
2, 48520, Note_off_c, 1, 65, 0
2, 48600, Note_on_c, 1, 48, 127
2, 48600, Note_on_c, 1, 52, 127
2, 48600, Note_on_c, 1, 60, 127
2, 48600, Note_on_c, 1, 64, 127
2, 48920, Note_off_c, 1, 48, 0
2, 48920, Note_off_c, 1, 52, 0
2, 48920, Note_off_c, 1, 60, 0
2, 48920, Note_off_c, 1, 64, 0
2, 48960, Note_on_c, 1, 32, 127
2, 48960, Note_on_c, 1, 44, 127
2, 48960, Note_on_c, 1, 52, 127
2, 48960, Note_on_c, 1, 59, 127
2, 48960, Note_on_c, 1, 62, 127
2, 48960, Note_on_c, 1, 64, 127
2, 49200, Note_off_c, 1, 32, 0
2, 49200, Note_off_c, 1, 44, 0
2, 49200, Note_off_c, 1, 52, 0
2, 49200, Note_off_c, 1, 59, 0
2, 49200, Note_off_c, 1, 62, 0
2, 49200, Note_off_c, 1, 64, 0
2, 49240, Note_on_c, 1, 32, 127
2, 49240, Note_on_c, 1, 44, 127
2, 49240, Note_on_c, 1, 52, 127
2, 49240, Note_on_c, 1, 59, 127
2, 49240, Note_on_c, 1, 62, 127
2, 49240, Note_on_c, 1, 64, 127
2, 49280, Note_off_c, 1, 32, 0
2, 49280, Note_off_c, 1, 44, 0
2, 49280, Note_off_c, 1, 52, 0
2, 49280, Note_off_c, 1, 59, 0
2, 49280, Note_off_c, 1, 62, 0
2, 49280, Note_off_c, 1, 64, 0
2, 49320, Note_on_c, 1, 38, 127
2, 49320, Note_on_c, 1, 46, 127
2, 49320, Note_on_c, 1, 58, 127
2, 49320, Note_on_c, 1, 65, 127
2, 49320, Note_on_c, 1, 68, 127
2, 49320, Note_on_c, 1, 70, 127
2, 49640, Note_off_c, 1, 38, 0
2, 49640, Note_off_c, 1, 46, 0
2, 49640, Note_off_c, 1, 58, 0
2, 49640, Note_off_c, 1, 65, 0
2, 49640, Note_off_c, 1, 68, 0
2, 49640, Note_off_c, 1, 70, 0
2, 49680, Note_on_c, 1, 38, 127
2, 49680, Note_on_c, 1, 46, 127
2, 49680, Note_on_c, 1, 58, 127
2, 49680, Note_on_c, 1, 65, 127
2, 49680, Note_on_c, 1, 68, 127
2, 49680, Note_on_c, 1, 70, 127
2, 49960, Note_off_c, 1, 38, 0
2, 49960, Note_off_c, 1, 46, 0
2, 49960, Note_off_c, 1, 58, 0
2, 49960, Note_off_c, 1, 65, 0
2, 49960, Note_off_c, 1, 68, 0
2, 49960, Note_off_c, 1, 70, 0
2, 50040, Note_on_c, 1, 38, 127
2, 50040, Note_on_c, 1, 47, 127
2, 50040, Note_on_c, 1, 58, 127
2, 50040, Note_on_c, 1, 65, 127
2, 50040, Note_on_c, 1, 68, 127
2, 50040, Note_on_c, 1, 70, 127
2, 50320, Note_off_c, 1, 38, 0
2, 50320, Note_off_c, 1, 47, 0
2, 50320, Note_off_c, 1, 58, 0
2, 50320, Note_off_c, 1, 65, 0
2, 50320, Note_off_c, 1, 68, 0
2, 50320, Note_off_c, 1, 70, 0
2, 50360, Note_on_c, 1, 38, 127
2, 50360, Note_on_c, 1, 47, 127
2, 50360, Note_on_c, 1, 58, 127
2, 50360, Note_on_c, 1, 65, 127
2, 50360, Note_on_c, 1, 68, 127
2, 50360, Note_on_c, 1, 70, 127
2, 50640, Note_off_c, 1, 47, 0
2, 50680, Note_off_c, 1, 38, 0
2, 50680, Note_off_c, 1, 58, 0
2, 50680, Note_off_c, 1, 65, 0
2, 50680, Note_off_c, 1, 68, 0
2, 50680, Note_off_c, 1, 70, 0
2, 50720, Note_on_c, 1, 38, 127
2, 50720, Note_on_c, 1, 47, 127
2, 50720, Note_on_c, 1, 58, 127
2, 50720, Note_on_c, 1, 65, 127
2, 50720, Note_on_c, 1, 68, 127
2, 50720, Note_on_c, 1, 70, 127
2, 51200, Note_off_c, 1, 47, 0
2, 51240, Note_on_c, 1, 47, 127
2, 51360, Note_off_c, 1, 38, 0
2, 51360, Note_off_c, 1, 47, 0
2, 51360, Note_off_c, 1, 58, 0
2, 51360, Note_off_c, 1, 65, 0
2, 51360, Note_off_c, 1, 68, 0
2, 51360, Note_off_c, 1, 70, 0
2, 51400, Note_on_c, 1, 38, 127
2, 51400, Note_on_c, 1, 47, 127
2, 51400, Note_on_c, 1, 58, 127
2, 51400, Note_on_c, 1, 65, 127
2, 51400, Note_on_c, 1, 68, 127
2, 51400, Note_on_c, 1, 70, 127
2, 51440, Note_off_c, 1, 47, 0
2, 51480, Note_on_c, 1, 46, 127
2, 51760, Note_off_c, 1, 38, 0
2, 51760, Note_off_c, 1, 46, 0
2, 51760, Note_off_c, 1, 58, 0
2, 51760, Note_off_c, 1, 65, 0
2, 51760, Note_off_c, 1, 68, 0
2, 51760, Note_off_c, 1, 70, 0
2, 51800, Note_on_c, 1, 38, 127
2, 51800, Note_on_c, 1, 47, 127
2, 51800, Note_on_c, 1, 58, 127
2, 51800, Note_on_c, 1, 65, 127
2, 51800, Note_on_c, 1, 68, 127
2, 51800, Note_on_c, 1, 70, 127
2, 52080, Note_off_c, 1, 47, 0
2, 52120, Note_off_c, 1, 38, 0
2, 52120, Note_off_c, 1, 58, 0
2, 52120, Note_off_c, 1, 65, 0
2, 52120, Note_off_c, 1, 68, 0
2, 52120, Note_off_c, 1, 70, 0
2, 52160, Note_on_c, 1, 38, 127
2, 52160, Note_on_c, 1, 47, 127
2, 52160, Note_on_c, 1, 58, 127
2, 52160, Note_on_c, 1, 65, 127
2, 52160, Note_on_c, 1, 68, 127
2, 52160, Note_on_c, 1, 70, 127
2, 52440, Note_off_c, 1, 47, 0
2, 52480, Note_off_c, 1, 38, 0
2, 52480, Note_off_c, 1, 58, 0
2, 52480, Note_off_c, 1, 65, 0
2, 52480, Note_off_c, 1, 68, 0
2, 52480, Note_off_c, 1, 70, 0
2, 52520, Note_on_c, 1, 60, 127
2, 52520, Note_on_c, 1, 65, 127
2, 52520, Note_on_c, 1, 74, 127
2, 52520, Note_on_c, 1, 86, 127
2, 52640, Note_on_c, 1, 48, 127
2, 52640, Note_on_c, 1, 50, 127
2, 52640, Note_on_c, 1, 53, 127
2, 52640, Note_on_c, 1, 55, 127
2, 52640, Note_off_c, 1, 60, 0
2, 52640, Note_off_c, 1, 65, 0
2, 52640, Note_off_c, 1, 74, 0
2, 52640, Note_on_c, 1, 77, 127
2, 52640, Note_off_c, 1, 86, 0
2, 52680, Note_on_c, 1, 39, 127
2, 52680, Note_on_c, 1, 43, 127
2, 52680, Note_off_c, 1, 48, 0
2, 52680, Note_off_c, 1, 50, 0
2, 52680, Note_on_c, 1, 51, 127
2, 52680, Note_off_c, 1, 53, 0
2, 52680, Note_off_c, 1, 55, 0
2, 52680, Note_on_c, 1, 68, 127
2, 52680, Note_off_c, 1, 77, 0
2, 52680, Note_on_c, 1, 80, 127
2, 52840, Note_off_c, 1, 39, 0
2, 52840, Note_off_c, 1, 43, 0
2, 52840, Note_off_c, 1, 51, 0
2, 52840, Note_off_c, 1, 68, 0
2, 52840, Note_off_c, 1, 80, 0
2, 52880, Note_on_c, 1, 36, 127
2, 52880, Note_on_c, 1, 43, 127
2, 52880, Note_on_c, 1, 48, 127
2, 52880, Note_on_c, 1, 67, 127
2, 52880, Note_on_c, 1, 79, 127
2, 53160, Note_off_c, 1, 36, 0
2, 53160, Note_off_c, 1, 43, 0
2, 53160, Note_off_c, 1, 48, 0
2, 53160, Note_off_c, 1, 67, 0
2, 53160, Note_off_c, 1, 79, 0
2, 53200, Note_on_c, 1, 36, 127
2, 53200, Note_on_c, 1, 43, 127
2, 53200, Note_on_c, 1, 48, 127
2, 53200, Note_on_c, 1, 67, 127
2, 53200, Note_on_c, 1, 79, 127
2, 53360, Note_on_c, 1, 31, 127
2, 53360, Note_off_c, 1, 36, 0
2, 53360, Note_off_c, 1, 48, 0
2, 53360, Note_on_c, 1, 50, 127
2, 53360, Note_on_c, 1, 62, 127
2, 53360, Note_off_c, 1, 67, 0
2, 53360, Note_on_c, 1, 71, 127
2, 53360, Note_off_c, 1, 79, 0
2, 53360, Note_on_c, 1, 83, 127
2, 53400, Note_off_c, 1, 31, 0
2, 53400, Note_off_c, 1, 43, 0
2, 53400, Note_off_c, 1, 50, 0
2, 53400, Note_off_c, 1, 62, 0
2, 53400, Note_off_c, 1, 71, 0
2, 53400, Note_off_c, 1, 83, 0
2, 53440, Note_on_c, 1, 36, 127
2, 53440, Note_on_c, 1, 43, 127
2, 53440, Note_on_c, 1, 48, 127
2, 53440, Note_on_c, 1, 67, 127
2, 53440, Note_on_c, 1, 79, 127
2, 53560, Note_off_c, 1, 36, 0
2, 53560, Note_off_c, 1, 43, 0
2, 53560, Note_off_c, 1, 48, 0
2, 53560, Note_off_c, 1, 67, 0
2, 53560, Note_off_c, 1, 79, 0
2, 53600, Note_on_c, 1, 36, 127
2, 53600, Note_on_c, 1, 43, 127
2, 53600, Note_on_c, 1, 48, 127
2, 53600, Note_on_c, 1, 67, 127
2, 53600, Note_on_c, 1, 79, 127
2, 53880, Note_off_c, 1, 36, 0
2, 53880, Note_off_c, 1, 43, 0
2, 53880, Note_off_c, 1, 48, 0
2, 53880, Note_off_c, 1, 67, 0
2, 53880, Note_off_c, 1, 79, 0
2, 53960, Note_on_c, 1, 36, 127
2, 53960, Note_on_c, 1, 43, 127
2, 53960, Note_on_c, 1, 48, 127
2, 53960, Note_on_c, 1, 67, 127
2, 53960, Note_on_c, 1, 79, 127
2, 54240, Note_off_c, 1, 36, 0
2, 54240, Note_off_c, 1, 43, 0
2, 54240, Note_off_c, 1, 48, 0
2, 54240, Note_off_c, 1, 67, 0
2, 54240, Note_off_c, 1, 79, 0
2, 54280, Note_on_c, 1, 36, 127
2, 54280, Note_on_c, 1, 43, 127
2, 54280, Note_on_c, 1, 48, 127
2, 54280, Note_on_c, 1, 67, 127
2, 54280, Note_on_c, 1, 79, 127
2, 54600, Note_off_c, 1, 36, 0
2, 54600, Note_off_c, 1, 43, 0
2, 54600, Note_off_c, 1, 48, 0
2, 54600, Note_off_c, 1, 67, 0
2, 54600, Note_off_c, 1, 79, 0
2, 54640, Note_on_c, 1, 36, 127
2, 54640, Note_on_c, 1, 43, 127
2, 54640, Note_on_c, 1, 48, 127
2, 54640, Note_on_c, 1, 67, 127
2, 54640, Note_on_c, 1, 79, 127
2, 54960, Note_off_c, 1, 36, 0
2, 54960, Note_off_c, 1, 43, 0
2, 54960, Note_off_c, 1, 48, 0
2, 54960, Note_off_c, 1, 67, 0
2, 54960, Note_off_c, 1, 79, 0
2, 55000, Note_on_c, 1, 38, 127
2, 55000, Note_on_c, 1, 41, 127
2, 55000, Note_on_c, 1, 46, 127
2, 55000, Note_on_c, 1, 50, 127
2, 55000, Note_on_c, 1, 62, 127
2, 55000, Note_on_c, 1, 65, 127
2, 55000, Note_on_c, 1, 70, 127
2, 55000, Note_on_c, 1, 74, 127
2, 55360, Note_off_c, 1, 38, 0
2, 55360, Note_off_c, 1, 41, 0
2, 55360, Note_off_c, 1, 46, 0
2, 55360, Note_off_c, 1, 50, 0
2, 55360, Note_off_c, 1, 62, 0
2, 55360, Note_off_c, 1, 65, 0
2, 55360, Note_off_c, 1, 70, 0
2, 55360, Note_off_c, 1, 74, 0
2, 55400, Note_on_c, 1, 38, 127
2, 55400, Note_on_c, 1, 41, 127
2, 55400, Note_on_c, 1, 46, 127
2, 55400, Note_on_c, 1, 50, 127
2, 55400, Note_on_c, 1, 62, 127
2, 55400, Note_on_c, 1, 65, 127
2, 55400, Note_on_c, 1, 70, 127
2, 55400, Note_on_c, 1, 74, 127
2, 55520, Note_off_c, 1, 38, 0
2, 55520, Note_off_c, 1, 41, 0
2, 55520, Note_off_c, 1, 46, 0
2, 55520, Note_off_c, 1, 50, 0
2, 55520, Note_off_c, 1, 62, 0
2, 55520, Note_off_c, 1, 65, 0
2, 55520, Note_off_c, 1, 70, 0
2, 55520, Note_off_c, 1, 74, 0
2, 55560, Note_on_c, 1, 38, 127
2, 55560, Note_on_c, 1, 41, 127
2, 55560, Note_on_c, 1, 46, 127
2, 55560, Note_on_c, 1, 50, 127
2, 55560, Note_on_c, 1, 62, 127
2, 55560, Note_on_c, 1, 65, 127
2, 55560, Note_on_c, 1, 70, 127
2, 55560, Note_on_c, 1, 74, 127
2, 55680, Note_off_c, 1, 38, 0
2, 55680, Note_off_c, 1, 41, 0
2, 55680, Note_off_c, 1, 46, 0
2, 55680, Note_off_c, 1, 50, 0
2, 55680, Note_off_c, 1, 62, 0
2, 55680, Note_off_c, 1, 65, 0
2, 55680, Note_off_c, 1, 70, 0
2, 55680, Note_off_c, 1, 74, 0
2, 55920, Note_on_c, 1, 48, 127
2, 55920, Note_on_c, 1, 55, 127
2, 55920, Note_on_c, 1, 60, 127
2, 55920, Note_on_c, 1, 75, 127
2, 55920, Note_on_c, 1, 79, 127
2, 55920, Note_on_c, 1, 84, 127
2, 55920, Note_on_c, 1, 87, 127
2, 56400, Note_off_c, 1, 48, 0
2, 56400, Note_off_c, 1, 55, 0
2, 56400, Note_off_c, 1, 60, 0
2, 56400, Note_off_c, 1, 75, 0
2, 56400, Note_off_c, 1, 79, 0
2, 56400, Note_off_c, 1, 84, 0
2, 56400, Note_off_c, 1, 87, 0
2, 56440, Note_on_c, 1, 48, 127
2, 56440, Note_on_c, 1, 55, 127
2, 56440, Note_on_c, 1, 60, 127
2, 56440, Note_on_c, 1, 75, 127
2, 56440, Note_on_c, 1, 79, 127
2, 56440, Note_on_c, 1, 84, 127
2, 56440, Note_on_c, 1, 87, 127
2, 56720, Note_off_c, 1, 48, 0
2, 56720, Note_off_c, 1, 55, 0
2, 56720, Note_off_c, 1, 60, 0
2, 56720, Note_off_c, 1, 75, 0
2, 56720, Note_off_c, 1, 79, 0
2, 56720, Note_off_c, 1, 84, 0
2, 56720, Note_off_c, 1, 87, 0
2, 56760, Note_on_c, 1, 48, 127
2, 56760, Note_on_c, 1, 55, 127
2, 56760, Note_on_c, 1, 60, 127
2, 56760, Note_on_c, 1, 75, 127
2, 56760, Note_on_c, 1, 79, 127
2, 56760, Note_on_c, 1, 84, 127
2, 56760, Note_on_c, 1, 87, 127
2, 57240, Note_off_c, 1, 48, 0
2, 57240, Note_off_c, 1, 55, 0
2, 57240, Note_off_c, 1, 60, 0
2, 57240, Note_off_c, 1, 75, 0
2, 57240, Note_off_c, 1, 79, 0
2, 57240, Note_off_c, 1, 84, 0
2, 57240, Note_off_c, 1, 87, 0
2, 57280, Note_on_c, 1, 48, 127
2, 57280, Note_on_c, 1, 55, 127
2, 57280, Note_on_c, 1, 60, 127
2, 57280, Note_on_c, 1, 75, 127
2, 57280, Note_on_c, 1, 79, 127
2, 57280, Note_on_c, 1, 84, 127
2, 57280, Note_on_c, 1, 87, 127
2, 57480, Note_off_c, 1, 48, 0
2, 57480, Note_off_c, 1, 55, 0
2, 57480, Note_off_c, 1, 60, 0
2, 57480, Note_off_c, 1, 75, 0
2, 57480, Note_off_c, 1, 79, 0
2, 57480, Note_off_c, 1, 84, 0
2, 57480, Note_off_c, 1, 87, 0
2, 57520, Note_on_c, 1, 48, 127
2, 57520, Note_on_c, 1, 55, 127
2, 57520, Note_on_c, 1, 60, 127
2, 57520, Note_on_c, 1, 75, 127
2, 57520, Note_on_c, 1, 79, 127
2, 57520, Note_on_c, 1, 84, 127
2, 57520, Note_on_c, 1, 87, 127
2, 57800, Note_off_c, 1, 48, 0
2, 57800, Note_off_c, 1, 55, 0
2, 57800, Note_off_c, 1, 60, 0
2, 57800, Note_off_c, 1, 75, 0
2, 57800, Note_off_c, 1, 79, 0
2, 57800, Note_off_c, 1, 84, 0
2, 57800, Note_off_c, 1, 87, 0
2, 57840, Note_on_c, 1, 48, 127
2, 57840, Note_on_c, 1, 55, 127
2, 57840, Note_on_c, 1, 60, 127
2, 57840, Note_on_c, 1, 75, 127
2, 57840, Note_on_c, 1, 79, 127
2, 57840, Note_on_c, 1, 84, 127
2, 57840, Note_on_c, 1, 87, 127
2, 58320, Note_off_c, 1, 48, 0
2, 58320, Note_off_c, 1, 55, 0
2, 58320, Note_off_c, 1, 60, 0
2, 58320, Note_off_c, 1, 75, 0
2, 58320, Note_off_c, 1, 79, 0
2, 58320, Note_off_c, 1, 84, 0
2, 58320, Note_off_c, 1, 87, 0
2, 58360, Note_on_c, 1, 48, 127
2, 58360, Note_on_c, 1, 55, 127
2, 58360, Note_on_c, 1, 60, 127
2, 58360, Note_on_c, 1, 75, 127
2, 58360, Note_on_c, 1, 79, 127
2, 58360, Note_on_c, 1, 84, 127
2, 58360, Note_on_c, 1, 87, 127
2, 58840, Note_off_c, 1, 48, 0
2, 58840, Note_off_c, 1, 55, 0
2, 58840, Note_off_c, 1, 60, 0
2, 58840, Note_off_c, 1, 75, 0
2, 58840, Note_off_c, 1, 79, 0
2, 58840, Note_off_c, 1, 84, 0
2, 58840, Note_off_c, 1, 87, 0
2, 58880, Note_on_c, 1, 48, 127
2, 58880, Note_on_c, 1, 55, 127
2, 58880, Note_on_c, 1, 60, 127
2, 58880, Note_on_c, 1, 75, 127
2, 58880, Note_on_c, 1, 79, 127
2, 58880, Note_on_c, 1, 84, 127
2, 58880, Note_on_c, 1, 87, 127
2, 59360, Note_off_c, 1, 48, 0
2, 59360, Note_off_c, 1, 55, 0
2, 59360, Note_off_c, 1, 60, 0
2, 59360, Note_off_c, 1, 75, 0
2, 59360, Note_off_c, 1, 79, 0
2, 59360, Note_off_c, 1, 84, 0
2, 59360, Note_off_c, 1, 87, 0
2, 59400, Note_on_c, 1, 48, 127
2, 59400, Note_on_c, 1, 55, 127
2, 59400, Note_on_c, 1, 60, 127
2, 59400, Note_on_c, 1, 75, 127
2, 59400, Note_on_c, 1, 79, 127
2, 59400, Note_on_c, 1, 84, 127
2, 59400, Note_on_c, 1, 87, 127
2, 59600, Note_off_c, 1, 48, 0
2, 59600, Note_off_c, 1, 55, 0
2, 59600, Note_off_c, 1, 60, 0
2, 59600, Note_off_c, 1, 75, 0
2, 59600, Note_off_c, 1, 79, 0
2, 59600, Note_off_c, 1, 84, 0
2, 59600, Note_off_c, 1, 87, 0
2, 59640, Note_on_c, 1, 48, 127
2, 59640, Note_on_c, 1, 55, 127
2, 59640, Note_on_c, 1, 60, 127
2, 59640, Note_on_c, 1, 75, 127
2, 59640, Note_on_c, 1, 79, 127
2, 59640, Note_on_c, 1, 84, 127
2, 59640, Note_on_c, 1, 87, 127
2, 59920, Note_off_c, 1, 48, 0
2, 59920, Note_off_c, 1, 55, 0
2, 59920, Note_off_c, 1, 60, 0
2, 59920, Note_off_c, 1, 75, 0
2, 59920, Note_off_c, 1, 79, 0
2, 59920, Note_off_c, 1, 84, 0
2, 59920, Note_off_c, 1, 87, 0
2, 59960, Note_on_c, 1, 48, 127
2, 59960, Note_on_c, 1, 55, 127
2, 59960, Note_on_c, 1, 60, 127
2, 59960, Note_on_c, 1, 75, 127
2, 59960, Note_on_c, 1, 79, 127
2, 59960, Note_on_c, 1, 84, 127
2, 59960, Note_on_c, 1, 87, 127
2, 60440, Note_off_c, 1, 48, 0
2, 60440, Note_off_c, 1, 55, 0
2, 60440, Note_off_c, 1, 60, 0
2, 60440, Note_off_c, 1, 75, 0
2, 60440, Note_off_c, 1, 79, 0
2, 60440, Note_off_c, 1, 84, 0
2, 60440, Note_off_c, 1, 87, 0
2, 60480, Note_on_c, 1, 48, 127
2, 60480, Note_on_c, 1, 55, 127
2, 60480, Note_on_c, 1, 60, 127
2, 60480, Note_on_c, 1, 75, 127
2, 60480, Note_on_c, 1, 79, 127
2, 60480, Note_on_c, 1, 84, 127
2, 60480, Note_on_c, 1, 87, 127
2, 60960, Note_off_c, 1, 48, 0
2, 60960, Note_off_c, 1, 55, 0
2, 60960, Note_off_c, 1, 60, 0
2, 60960, Note_off_c, 1, 75, 0
2, 60960, Note_off_c, 1, 79, 0
2, 60960, Note_off_c, 1, 84, 0
2, 60960, Note_off_c, 1, 87, 0
2, 61000, Note_on_c, 1, 48, 127
2, 61000, Note_on_c, 1, 55, 127
2, 61000, Note_on_c, 1, 60, 127
2, 61000, Note_on_c, 1, 75, 127
2, 61000, Note_on_c, 1, 79, 127
2, 61000, Note_on_c, 1, 84, 127
2, 61000, Note_on_c, 1, 87, 127
2, 61480, Note_off_c, 1, 48, 0
2, 61480, Note_off_c, 1, 55, 0
2, 61480, Note_off_c, 1, 60, 0
2, 61480, Note_off_c, 1, 75, 0
2, 61480, Note_off_c, 1, 79, 0
2, 61480, Note_off_c, 1, 84, 0
2, 61480, Note_off_c, 1, 87, 0
2, 61520, Note_on_c, 1, 41, 127
2, 61520, Note_on_c, 1, 53, 127
2, 61520, Note_on_c, 1, 65, 127
2, 61520, Note_on_c, 1, 68, 127
2, 61520, Note_on_c, 1, 73, 127
2, 61520, Note_on_c, 1, 77, 127
2, 61680, Note_off_c, 1, 41, 0
2, 61680, Note_off_c, 1, 53, 0
2, 61680, Note_off_c, 1, 65, 0
2, 61680, Note_off_c, 1, 68, 0
2, 61680, Note_off_c, 1, 73, 0
2, 61680, Note_off_c, 1, 77, 0
2, 61760, Note_on_c, 1, 44, 127
2, 61760, Note_on_c, 1, 56, 127
2, 61760, Note_on_c, 1, 63, 127
2, 61760, Note_on_c, 1, 68, 127
2, 61760, Note_on_c, 1, 72, 127
2, 61760, Note_on_c, 1, 75, 127
2, 61880, Note_off_c, 1, 44, 0
2, 61880, Note_off_c, 1, 56, 0
2, 61880, Note_off_c, 1, 63, 0
2, 61880, Note_off_c, 1, 68, 0
2, 61880, Note_off_c, 1, 72, 0
2, 61880, Note_off_c, 1, 75, 0
2, 61920, Note_on_c, 1, 40, 127
2, 61920, Note_on_c, 1, 52, 127
2, 61920, Note_on_c, 1, 64, 127
2, 61920, Note_on_c, 1, 72, 127
2, 62040, Note_off_c, 1, 40, 0
2, 62040, Note_off_c, 1, 52, 0
2, 62040, Note_off_c, 1, 64, 0
2, 62040, Note_off_c, 1, 72, 0
2, 62080, Note_on_c, 1, 35, 127
2, 62080, Note_on_c, 1, 47, 127
2, 62080, Note_on_c, 1, 68, 127
2, 62080, Note_on_c, 1, 75, 127
2, 62080, Note_on_c, 1, 80, 127
2, 62240, Note_off_c, 1, 35, 0
2, 62240, Note_off_c, 1, 47, 0
2, 62240, Note_off_c, 1, 68, 0
2, 62240, Note_off_c, 1, 75, 0
2, 62240, Note_off_c, 1, 80, 0
2, 62280, Note_on_c, 1, 35, 127
2, 62280, Note_on_c, 1, 47, 127
2, 62280, Note_on_c, 1, 68, 127
2, 62280, Note_on_c, 1, 75, 127
2, 62280, Note_on_c, 1, 80, 127
2, 62400, Note_off_c, 1, 35, 0
2, 62400, Note_off_c, 1, 47, 0
2, 62400, Note_off_c, 1, 68, 0
2, 62400, Note_off_c, 1, 75, 0
2, 62400, Note_off_c, 1, 80, 0
2, 62440, Note_on_c, 1, 35, 127
2, 62440, Note_on_c, 1, 47, 127
2, 62440, Note_on_c, 1, 68, 127
2, 62440, Note_on_c, 1, 75, 127
2, 62440, Note_on_c, 1, 80, 127
2, 62560, Note_off_c, 1, 35, 0
2, 62560, Note_off_c, 1, 47, 0
2, 62560, Note_off_c, 1, 68, 0
2, 62560, Note_off_c, 1, 75, 0
2, 62560, Note_off_c, 1, 80, 0
2, 62600, Note_on_c, 1, 35, 127
2, 62600, Note_on_c, 1, 47, 127
2, 62600, Note_on_c, 1, 68, 127
2, 62600, Note_on_c, 1, 75, 127
2, 62600, Note_on_c, 1, 80, 127
2, 62760, Note_off_c, 1, 35, 0
2, 62760, Note_off_c, 1, 47, 0
2, 62760, Note_off_c, 1, 68, 0
2, 62760, Note_off_c, 1, 75, 0
2, 62760, Note_off_c, 1, 80, 0
2, 62800, Note_on_c, 1, 47, 127
2, 62800, Note_on_c, 1, 59, 127
2, 62800, Note_on_c, 1, 67, 127
2, 62800, Note_on_c, 1, 74, 127
2, 62800, Note_on_c, 1, 79, 127
2, 62920, Note_off_c, 1, 47, 0
2, 62920, Note_off_c, 1, 59, 0
2, 62920, Note_off_c, 1, 67, 0
2, 62920, Note_off_c, 1, 74, 0
2, 62920, Note_off_c, 1, 79, 0
2, 62960, Note_on_c, 1, 36, 127
2, 62960, Note_on_c, 1, 48, 127
2, 62960, Note_on_c, 1, 79, 127
2, 62960, Note_on_c, 1, 84, 127
2, 62960, Note_on_c, 1, 89, 127
2, 62960, Note_on_c, 1, 91, 127
2, 63080, Note_off_c, 1, 36, 0
2, 63080, Note_off_c, 1, 48, 0
2, 63080, Note_off_c, 1, 79, 0
2, 63080, Note_off_c, 1, 84, 0
2, 63080, Note_off_c, 1, 89, 0
2, 63080, Note_off_c, 1, 91, 0
2, 63120, Note_on_c, 1, 57, 127
2, 63120, Note_on_c, 1, 64, 127
2, 63120, Note_on_c, 1, 67, 127
2, 63120, Note_on_c, 1, 81, 127
2, 63120, Note_on_c, 1, 93, 127
2, 63240, Note_off_c, 1, 57, 0
2, 63240, Note_off_c, 1, 64, 0
2, 63240, Note_off_c, 1, 67, 0
2, 63280, Note_off_c, 1, 81, 0
2, 63280, Note_off_c, 1, 93, 0
2, 63320, Note_on_c, 1, 49, 127
2, 63320, Note_on_c, 1, 54, 127
2, 63320, Note_on_c, 1, 58, 127
2, 63320, Note_on_c, 1, 61, 127
2, 63320, Note_on_c, 1, 78, 127
2, 63320, Note_on_c, 1, 82, 127
2, 63440, Note_off_c, 1, 54, 0
2, 63440, Note_off_c, 1, 58, 0
2, 63440, Note_off_c, 1, 61, 0
2, 63440, Note_off_c, 1, 78, 0
2, 63440, Note_off_c, 1, 82, 0
2, 63480, Note_on_c, 1, 41, 127
2, 63480, Note_off_c, 1, 49, 0
2, 63480, Note_on_c, 1, 69, 127
2, 63480, Note_on_c, 1, 75, 127
2, 63480, Note_on_c, 1, 77, 127
2, 63480, Note_on_c, 1, 81, 127
2, 63680, Note_off_c, 1, 41, 0
2, 63680, Note_on_c, 1, 55, 127
2, 63680, Note_on_c, 1, 57, 127
2, 63680, Note_on_c, 1, 64, 127
2, 63680, Note_off_c, 1, 69, 0
2, 63680, Note_off_c, 1, 75, 0
2, 63680, Note_off_c, 1, 77, 0
2, 63680, Note_off_c, 1, 81, 0
2, 63680, Note_on_c, 1, 83, 127
2, 63720, Note_off_c, 1, 55, 0
2, 63720, Note_off_c, 1, 57, 0
2, 63720, Note_off_c, 1, 64, 0
2, 63720, Note_off_c, 1, 83, 0
2, 63760, Note_on_c, 1, 63, 127
2, 63760, Note_on_c, 1, 69, 127
2, 63760, Note_on_c, 1, 78, 127
2, 63760, Note_on_c, 1, 86, 127
2, 63800, Note_off_c, 1, 63, 0
2, 63800, Note_off_c, 1, 69, 0
2, 63800, Note_off_c, 1, 78, 0
2, 63800, Note_off_c, 1, 86, 0
2, 63840, Note_on_c, 1, 39, 127
2, 63840, Note_on_c, 1, 51, 127
2, 63840, Note_on_c, 1, 70, 127
2, 63840, Note_on_c, 1, 75, 127
2, 63840, Note_on_c, 1, 79, 127
2, 64000, Note_off_c, 1, 39, 0
2, 64000, Note_off_c, 1, 51, 0
2, 64000, Note_off_c, 1, 70, 0
2, 64000, Note_off_c, 1, 75, 0
2, 64000, Note_off_c, 1, 79, 0
2, 64040, Note_on_c, 1, 43, 127
2, 64040, Note_on_c, 1, 55, 127
2, 64040, Note_on_c, 1, 58, 127
2, 64040, Note_on_c, 1, 63, 127
2, 64040, Note_on_c, 1, 70, 127
2, 64160, Note_off_c, 1, 43, 0
2, 64160, Note_off_c, 1, 55, 0
2, 64160, Note_off_c, 1, 58, 0
2, 64160, Note_off_c, 1, 63, 0
2, 64160, Note_off_c, 1, 70, 0
2, 64200, Note_on_c, 1, 43, 127
2, 64200, Note_on_c, 1, 55, 127
2, 64200, Note_on_c, 1, 58, 127
2, 64200, Note_on_c, 1, 63, 127
2, 64200, Note_on_c, 1, 70, 127
2, 64320, Note_off_c, 1, 43, 0
2, 64320, Note_off_c, 1, 55, 0
2, 64320, Note_off_c, 1, 58, 0
2, 64320, Note_off_c, 1, 63, 0
2, 64320, Note_off_c, 1, 70, 0
2, 64400, Note_on_c, 1, 59, 127
2, 64400, Note_on_c, 1, 70, 127
2, 64400, Note_on_c, 1, 73, 127
2, 64400, Note_on_c, 1, 78, 127
2, 64520, Note_off_c, 1, 59, 0
2, 64520, Note_off_c, 1, 70, 0
2, 64520, Note_off_c, 1, 73, 0
2, 64520, Note_off_c, 1, 78, 0
2, 64560, Note_on_c, 1, 59, 127
2, 64560, Note_on_c, 1, 70, 127
2, 64560, Note_on_c, 1, 73, 127
2, 64560, Note_on_c, 1, 78, 127
2, 64680, Note_off_c, 1, 59, 0
2, 64680, Note_off_c, 1, 70, 0
2, 64680, Note_off_c, 1, 73, 0
2, 64680, Note_off_c, 1, 78, 0
2, 64720, Note_on_c, 1, 59, 127
2, 64720, Note_on_c, 1, 70, 127
2, 64720, Note_on_c, 1, 73, 127
2, 64720, Note_on_c, 1, 78, 127
2, 64880, Note_off_c, 1, 59, 0
2, 64880, Note_off_c, 1, 70, 0
2, 64880, Note_off_c, 1, 73, 0
2, 64880, Note_off_c, 1, 78, 0
2, 64920, Note_on_c, 1, 59, 127
2, 64920, Note_on_c, 1, 68, 127
2, 64920, Note_on_c, 1, 71, 127
2, 64920, Note_on_c, 1, 76, 127
2, 65040, Note_off_c, 1, 59, 0
2, 65040, Note_off_c, 1, 68, 0
2, 65040, Note_off_c, 1, 71, 0
2, 65040, Note_off_c, 1, 76, 0
2, 65080, Note_on_c, 1, 56, 127
2, 65080, Note_on_c, 1, 65, 127
2, 65080, Note_on_c, 1, 71, 127
2, 65080, Note_on_c, 1, 73, 127
2, 65240, Note_off_c, 1, 56, 0
2, 65240, Note_off_c, 1, 65, 0
2, 65240, Note_off_c, 1, 71, 0
2, 65240, Note_off_c, 1, 73, 0
2, 65280, Note_on_c, 1, 48, 127
2, 65280, Note_on_c, 1, 50, 127
2, 65280, Note_on_c, 1, 65, 127
2, 65280, Note_on_c, 1, 71, 127
2, 65400, Note_off_c, 1, 48, 0
2, 65400, Note_off_c, 1, 50, 0
2, 65400, Note_off_c, 1, 65, 0
2, 65400, Note_off_c, 1, 71, 0
2, 65440, Note_on_c, 1, 52, 127
2, 65440, Note_on_c, 1, 62, 127
2, 65440, Note_on_c, 1, 68, 127
2, 65440, Note_on_c, 1, 71, 127
2, 65560, Note_off_c, 1, 52, 0
2, 65560, Note_off_c, 1, 62, 0
2, 65560, Note_off_c, 1, 68, 0
2, 65560, Note_off_c, 1, 71, 0
2, 65640, Note_on_c, 1, 54, 127
2, 65640, Note_on_c, 1, 63, 127
2, 65640, Note_on_c, 1, 84, 127
2, 65640, Note_on_c, 1, 87, 127
2, 65680, Note_on_c, 1, 50, 127
2, 65680, Note_off_c, 1, 54, 0
2, 65680, Note_on_c, 1, 62, 127
2, 65680, Note_off_c, 1, 63, 0
2, 65680, Note_on_c, 1, 70, 127
2, 65680, Note_on_c, 1, 79, 127
2, 65680, Note_off_c, 1, 84, 0
2, 65680, Note_off_c, 1, 87, 0
2, 65720, Note_on_c, 1, 48, 127
2, 65720, Note_off_c, 1, 50, 0
2, 65720, Note_on_c, 1, 51, 127
2, 65720, Note_on_c, 1, 60, 127
2, 65720, Note_off_c, 1, 62, 0
2, 65720, Note_on_c, 1, 68, 127
2, 65720, Note_off_c, 1, 70, 0
2, 65720, Note_on_c, 1, 78, 127
2, 65720, Note_off_c, 1, 79, 0
2, 65720, Note_on_c, 1, 80, 127
2, 65760, Note_off_c, 1, 48, 0
2, 65760, Note_off_c, 1, 51, 0
2, 65760, Note_off_c, 1, 60, 0
2, 65760, Note_off_c, 1, 68, 0
2, 65760, Note_off_c, 1, 78, 0
2, 65760, Note_off_c, 1, 80, 0
2, 66000, Note_on_c, 1, 39, 127
2, 66000, Note_on_c, 1, 48, 127
2, 66000, Note_on_c, 1, 51, 127
2, 66000, Note_on_c, 1, 81, 127
2, 66000, Note_on_c, 1, 93, 127
2, 66040, Note_off_c, 1, 39, 0
2, 66040, Note_off_c, 1, 48, 0
2, 66040, Note_off_c, 1, 51, 0
2, 66040, Note_on_c, 1, 55, 127
2, 66040, Note_on_c, 1, 60, 127
2, 66040, Note_on_c, 1, 63, 127
2, 66040, Note_on_c, 1, 72, 127
2, 66040, Note_on_c, 1, 75, 127
2, 66040, Note_on_c, 1, 78, 127
2, 66040, Note_on_c, 1, 84, 127
2, 66040, Note_off_c, 1, 93, 0
2, 66080, Note_on_c, 1, 45, 127
2, 66080, Note_off_c, 1, 55, 0
2, 66080, Note_on_c, 1, 57, 127
2, 66080, Note_off_c, 1, 60, 0
2, 66080, Note_on_c, 1, 67, 127
2, 66080, Note_on_c, 1, 69, 127
2, 66080, Note_off_c, 1, 72, 0
2, 66080, Note_off_c, 1, 75, 0
2, 66080, Note_off_c, 1, 78, 0
2, 66080, Note_off_c, 1, 81, 0
2, 66080, Note_off_c, 1, 84, 0
2, 66120, Note_off_c, 1, 45, 0
2, 66120, Note_off_c, 1, 57, 0
2, 66120, Note_off_c, 1, 63, 0
2, 66120, Note_off_c, 1, 67, 0
2, 66120, Note_off_c, 1, 69, 0
2, 66200, Note_on_c, 1, 60, 127
2, 66200, Note_on_c, 1, 69, 127
2, 66200, Note_on_c, 1, 72, 127
2, 66200, Note_on_c, 1, 78, 127
2, 66200, Note_on_c, 1, 81, 127
2, 66200, Note_on_c, 1, 90, 127
2, 66280, Note_off_c, 1, 60, 0
2, 66280, Note_off_c, 1, 69, 0
2, 66280, Note_off_c, 1, 72, 0
2, 66280, Note_off_c, 1, 78, 0
2, 66280, Note_off_c, 1, 81, 0
2, 66280, Note_off_c, 1, 90, 0
2, 66360, Note_on_c, 1, 34, 127
2, 66360, Note_on_c, 1, 46, 127
2, 66360, Note_on_c, 1, 65, 127
2, 66360, Note_on_c, 1, 75, 127
2, 66360, Note_on_c, 1, 78, 127
2, 66480, Note_off_c, 1, 34, 0
2, 66480, Note_off_c, 1, 46, 0
2, 66480, Note_off_c, 1, 65, 0
2, 66480, Note_off_c, 1, 75, 0
2, 66480, Note_off_c, 1, 78, 0
2, 66560, Note_on_c, 1, 92, 127
2, 66560, Note_on_c, 1, 101, 127
2, 66600, Note_off_c, 1, 92, 0
2, 66600, Note_off_c, 1, 101, 0
2, 66720, Note_on_c, 1, 92, 127
2, 66720, Note_on_c, 1, 101, 127
2, 66800, Note_off_c, 1, 92, 0
2, 66800, Note_off_c, 1, 101, 0
2, 66880, Note_on_c, 1, 92, 127
2, 66880, Note_on_c, 1, 101, 127
2, 67000, Note_off_c, 1, 92, 0
2, 67000, Note_off_c, 1, 101, 0
2, 67080, Note_on_c, 1, 92, 127
2, 67080, Note_on_c, 1, 101, 127
2, 67160, Note_off_c, 1, 92, 0
2, 67160, Note_off_c, 1, 101, 0
2, 67240, Note_on_c, 1, 92, 127
2, 67240, Note_on_c, 1, 101, 127
2, 67320, Note_off_c, 1, 92, 0
2, 67320, Note_off_c, 1, 101, 0
2, 67400, Note_on_c, 1, 92, 127
2, 67400, Note_on_c, 1, 101, 127
2, 67520, Note_off_c, 1, 92, 0
2, 67520, Note_off_c, 1, 101, 0
2, 67600, Note_on_c, 1, 92, 127
2, 67600, Note_on_c, 1, 101, 127
2, 67680, Note_off_c, 1, 92, 0
2, 67680, Note_off_c, 1, 101, 0
2, 67760, Note_on_c, 1, 56, 127
2, 67760, Note_on_c, 1, 68, 127
2, 67760, Note_on_c, 1, 73, 127
2, 67760, Note_on_c, 1, 76, 127
2, 67760, Note_on_c, 1, 80, 127
2, 67760, Note_on_c, 1, 85, 127
2, 67800, Note_off_c, 1, 56, 0
2, 67800, Note_on_c, 1, 65, 127
2, 67800, Note_off_c, 1, 68, 0
2, 67800, Note_off_c, 1, 73, 0
2, 67800, Note_off_c, 1, 85, 0
2, 67800, Note_on_c, 1, 88, 127
2, 67840, Note_off_c, 1, 65, 0
2, 67840, Note_off_c, 1, 76, 0
2, 67840, Note_off_c, 1, 80, 0
2, 67840, Note_off_c, 1, 88, 0
2, 67880, Note_on_c, 1, 56, 127
2, 67880, Note_on_c, 1, 59, 127
2, 67880, Note_on_c, 1, 71, 127
2, 67880, Note_on_c, 1, 76, 127
2, 67880, Note_on_c, 1, 83, 127
2, 67920, Note_off_c, 1, 56, 0
2, 67920, Note_off_c, 1, 59, 0
2, 67920, Note_off_c, 1, 71, 0
2, 67920, Note_off_c, 1, 76, 0
2, 67920, Note_off_c, 1, 83, 0
2, 68160, Note_on_c, 1, 40, 127
2, 68160, Note_on_c, 1, 47, 127
2, 68160, Note_on_c, 1, 56, 127
2, 68160, Note_on_c, 1, 70, 127
2, 68160, Note_on_c, 1, 82, 127
2, 68640, Note_off_c, 1, 40, 0
2, 68640, Note_off_c, 1, 47, 0
2, 68640, Note_off_c, 1, 56, 0
2, 68640, Note_off_c, 1, 70, 0
2, 68640, Note_off_c, 1, 82, 0
2, 68680, Note_on_c, 1, 49, 127
2, 68680, Note_on_c, 1, 56, 127
2, 68680, Note_on_c, 1, 58, 127
2, 68680, Note_on_c, 1, 61, 127
2, 68680, Note_on_c, 1, 65, 127
2, 68680, Note_on_c, 1, 67, 127
2, 68680, Note_on_c, 1, 77, 127
2, 68800, Note_off_c, 1, 49, 0
2, 68800, Note_off_c, 1, 56, 0
2, 68800, Note_off_c, 1, 58, 0
2, 68800, Note_off_c, 1, 61, 0
2, 68800, Note_off_c, 1, 65, 0
2, 68800, Note_off_c, 1, 67, 0
2, 68800, Note_off_c, 1, 77, 0
2, 69040, Note_on_c, 1, 40, 127
2, 69040, Note_on_c, 1, 53, 127
2, 69040, Note_on_c, 1, 56, 127
2, 69040, Note_on_c, 1, 61, 127
2, 69480, Note_off_c, 1, 40, 0
2, 69480, Note_off_c, 1, 53, 0
2, 69480, Note_off_c, 1, 56, 0
2, 69480, Note_off_c, 1, 61, 0
2, 69520, Note_on_c, 1, 35, 127
2, 69520, Note_on_c, 1, 66, 127
2, 69520, Note_on_c, 1, 69, 127
2, 69520, Note_on_c, 1, 71, 127
2, 69520, Note_on_c, 1, 75, 127
2, 69560, Note_off_c, 1, 35, 0
2, 69560, Note_on_c, 1, 44, 127
2, 69560, Note_on_c, 1, 49, 127
2, 69560, Note_on_c, 1, 65, 127
2, 69560, Note_off_c, 1, 66, 0
2, 69560, Note_on_c, 1, 68, 127
2, 69560, Note_off_c, 1, 69, 0
2, 69560, Note_off_c, 1, 71, 0
2, 69560, Note_on_c, 1, 72, 127
2, 69560, Note_off_c, 1, 75, 0
2, 69600, Note_off_c, 1, 44, 0
2, 69600, Note_off_c, 1, 49, 0
2, 69600, Note_on_c, 1, 61, 127
2, 69600, Note_off_c, 1, 65, 0
2, 69600, Note_off_c, 1, 68, 0
2, 69600, Note_on_c, 1, 69, 127
2, 69600, Note_off_c, 1, 72, 0
2, 69600, Note_on_c, 1, 73, 127
2, 69600, Note_on_c, 1, 77, 127
2, 69600, Note_on_c, 1, 85, 127
2, 69640, Note_on_c, 1, 53, 127
2, 69640, Note_on_c, 1, 60, 127
2, 69640, Note_off_c, 1, 61, 0
2, 69640, Note_on_c, 1, 65, 127
2, 69640, Note_off_c, 1, 73, 0
2, 69640, Note_on_c, 1, 74, 127
2, 69640, Note_off_c, 1, 85, 0
2, 69680, Note_off_c, 1, 53, 0
2, 69680, Note_off_c, 1, 60, 0
2, 69680, Note_off_c, 1, 65, 0
2, 69680, Note_off_c, 1, 69, 0
2, 69680, Note_off_c, 1, 74, 0
2, 69680, Note_off_c, 1, 77, 0
2, 70120, Note_on_c, 1, 46, 127
2, 70120, Note_on_c, 1, 49, 127
2, 70120, Note_on_c, 1, 65, 127
2, 70120, Note_on_c, 1, 73, 127
2, 70760, Note_off_c, 1, 46, 0
2, 70760, Note_off_c, 1, 49, 0
2, 70760, Note_off_c, 1, 65, 0
2, 70760, Note_off_c, 1, 73, 0
2, 70800, Note_on_c, 1, 46, 127
2, 70800, Note_on_c, 1, 53, 127
2, 70800, Note_on_c, 1, 61, 127
2, 70800, Note_on_c, 1, 73, 127
2, 70920, Note_off_c, 1, 73, 0
2, 71120, Note_off_c, 1, 46, 0
2, 71120, Note_off_c, 1, 53, 0
2, 71120, Note_off_c, 1, 61, 0
2, 71160, Note_on_c, 1, 44, 127
2, 71160, Note_on_c, 1, 54, 127
2, 71160, Note_on_c, 1, 60, 127
2, 71160, Note_on_c, 1, 65, 127
2, 71800, Note_off_c, 1, 44, 0
2, 71800, Note_off_c, 1, 54, 0
2, 71800, Note_off_c, 1, 60, 0
2, 71800, Note_off_c, 1, 65, 0
2, 71840, Note_on_c, 1, 45, 127
2, 71840, Note_on_c, 1, 51, 127
2, 71840, Note_on_c, 1, 60, 127
2, 71840, Note_on_c, 1, 65, 127
2, 72040, Note_off_c, 1, 45, 0
2, 72040, Note_off_c, 1, 51, 0
2, 72040, Note_off_c, 1, 60, 0
2, 72040, Note_off_c, 1, 65, 0
2, 72080, Note_on_c, 1, 45, 127
2, 72080, Note_on_c, 1, 51, 127
2, 72080, Note_on_c, 1, 60, 127
2, 72080, Note_on_c, 1, 65, 127
2, 72200, Note_off_c, 1, 45, 0
2, 72200, Note_off_c, 1, 51, 0
2, 72200, Note_off_c, 1, 60, 0
2, 72200, Note_off_c, 1, 65, 0
2, 72240, Note_on_c, 1, 34, 127
2, 72240, Note_on_c, 1, 58, 127
2, 72240, Note_on_c, 1, 61, 127
2, 72240, Note_on_c, 1, 66, 127
2, 72720, Note_off_c, 1, 34, 0
2, 72760, Note_on_c, 1, 34, 127
2, 72880, Note_off_c, 1, 34, 0
2, 72920, Note_on_c, 1, 33, 127
2, 73080, Note_off_c, 1, 33, 0
2, 73120, Note_on_c, 1, 34, 127
2, 73240, Note_off_c, 1, 34, 0
2, 73280, Note_on_c, 1, 34, 127
2, 73400, Note_off_c, 1, 34, 0
2, 73440, Note_on_c, 1, 34, 127
2, 73600, Note_off_c, 1, 34, 0
2, 73640, Note_on_c, 1, 33, 127
2, 73760, Note_off_c, 1, 33, 0
2, 73760, Note_off_c, 1, 58, 0
2, 73760, Note_off_c, 1, 61, 0
2, 73760, Note_off_c, 1, 66, 0
2, 73800, Note_on_c, 1, 34, 127
2, 73800, Note_on_c, 1, 58, 127
2, 73800, Note_on_c, 1, 61, 127
2, 73800, Note_on_c, 1, 66, 127
2, 73920, Note_off_c, 1, 34, 0
2, 73960, Note_on_c, 1, 34, 127
2, 74080, Note_off_c, 1, 34, 0
2, 74080, Note_off_c, 1, 58, 0
2, 74080, Note_off_c, 1, 61, 0
2, 74080, Note_off_c, 1, 66, 0
2, 74120, Note_on_c, 1, 34, 127
2, 74120, Note_on_c, 1, 58, 127
2, 74120, Note_on_c, 1, 61, 127
2, 74120, Note_on_c, 1, 66, 127
2, 74160, Note_off_c, 1, 34, 0
2, 74200, Note_on_c, 1, 33, 127
2, 74320, Note_off_c, 1, 33, 0
2, 74320, Note_off_c, 1, 58, 0
2, 74320, Note_off_c, 1, 61, 0
2, 74320, Note_off_c, 1, 66, 0
2, 74360, Note_on_c, 1, 34, 127
2, 74360, Note_on_c, 1, 58, 127
2, 74360, Note_on_c, 1, 61, 127
2, 74360, Note_on_c, 1, 66, 127
2, 74480, Note_off_c, 1, 34, 0
2, 74520, Note_on_c, 1, 33, 127
2, 74840, Note_off_c, 1, 33, 0
2, 74880, Note_on_c, 1, 30, 127
2, 75000, Note_off_c, 1, 30, 0
2, 75000, Note_on_c, 1, 54, 127
2, 75040, Note_on_c, 1, 42, 127
2, 75040, Note_off_c, 1, 54, 0
2, 75240, Note_on_c, 1, 49, 127
2, 75320, Note_off_c, 1, 49, 0
2, 75360, Note_off_c, 1, 42, 0
2, 75360, Note_off_c, 1, 58, 0
2, 75360, Note_off_c, 1, 61, 0
2, 75360, Note_off_c, 1, 66, 0
2, 75400, Note_on_c, 1, 42, 127
2, 75400, Note_on_c, 1, 54, 127
2, 75400, Note_on_c, 1, 57, 127
2, 75400, Note_on_c, 1, 61, 127
2, 75400, Note_on_c, 1, 66, 127
2, 76120, Note_off_c, 1, 42, 0
2, 76120, Note_off_c, 1, 54, 0
2, 76120, Note_off_c, 1, 57, 0
2, 76120, Note_off_c, 1, 61, 0
2, 76120, Note_off_c, 1, 66, 0
2, 76160, Note_on_c, 1, 42, 127
2, 76160, Note_on_c, 1, 54, 127
2, 76160, Note_on_c, 1, 57, 127
2, 76160, Note_on_c, 1, 61, 127
2, 76160, Note_on_c, 1, 66, 127
2, 76400, Note_off_c, 1, 42, 0
2, 76400, Note_off_c, 1, 54, 0
2, 76400, Note_off_c, 1, 57, 0
2, 76400, Note_off_c, 1, 61, 0
2, 76400, Note_off_c, 1, 66, 0
2, 76440, Note_on_c, 1, 72, 127
2, 76440, Note_on_c, 1, 84, 127
2, 76440, Note_on_c, 1, 89, 127
2, 76440, Note_on_c, 1, 93, 127
2, 76440, Note_on_c, 1, 96, 127
2, 76560, Note_off_c, 1, 84, 0
2, 76560, Note_off_c, 1, 89, 0
2, 76560, Note_off_c, 1, 93, 0
2, 76560, Note_off_c, 1, 96, 0
2, 76800, Note_on_c, 1, 37, 127
2, 76800, Note_on_c, 1, 42, 127
2, 76800, Note_on_c, 1, 49, 127
2, 76800, Note_on_c, 1, 64, 127
2, 76800, Note_off_c, 1, 72, 0
2, 77280, Note_off_c, 1, 37, 0
2, 77280, Note_off_c, 1, 42, 0
2, 77280, Note_off_c, 1, 49, 0
2, 77280, Note_on_c, 1, 59, 127
2, 77280, Note_off_c, 1, 64, 0
2, 77280, Note_on_c, 1, 65, 127
2, 77280, Note_on_c, 1, 68, 127
2, 77320, Note_on_c, 1, 44, 127
2, 77320, Note_on_c, 1, 49, 127
2, 77320, Note_off_c, 1, 59, 0
2, 77320, Note_on_c, 1, 71, 127
2, 77320, Note_on_c, 1, 73, 127
2, 77440, Note_off_c, 1, 44, 0
2, 77440, Note_off_c, 1, 49, 0
2, 77440, Note_off_c, 1, 65, 0
2, 77440, Note_off_c, 1, 68, 0
2, 77440, Note_off_c, 1, 71, 0
2, 77440, Note_off_c, 1, 73, 0
2, 77480, Note_on_c, 1, 40, 127
2, 77480, Note_on_c, 1, 47, 127
2, 77480, Note_on_c, 1, 52, 127
2, 77480, Note_on_c, 1, 56, 127
2, 77480, Note_on_c, 1, 62, 127
2, 77480, Note_on_c, 1, 64, 127
2, 77480, Note_on_c, 1, 68, 127
2, 77800, Note_off_c, 1, 40, 0
2, 77800, Note_off_c, 1, 47, 0
2, 77800, Note_off_c, 1, 52, 0
2, 77800, Note_off_c, 1, 56, 0
2, 77800, Note_off_c, 1, 62, 0
2, 77800, Note_off_c, 1, 64, 0
2, 77800, Note_off_c, 1, 68, 0
2, 77840, Note_on_c, 1, 39, 127
2, 77840, Note_on_c, 1, 44, 127
2, 77840, Note_on_c, 1, 56, 127
2, 77840, Note_on_c, 1, 77, 127
2, 77840, Note_on_c, 1, 80, 127
2, 77840, Note_on_c, 1, 87, 127
2, 77840, Note_on_c, 1, 89, 127
2, 78120, Note_off_c, 1, 39, 0
2, 78120, Note_off_c, 1, 44, 0
2, 78120, Note_off_c, 1, 56, 0
2, 78120, Note_off_c, 1, 77, 0
2, 78120, Note_off_c, 1, 80, 0
2, 78120, Note_off_c, 1, 87, 0
2, 78120, Note_off_c, 1, 89, 0
2, 78240, Note_on_c, 1, 48, 127
2, 78240, Note_on_c, 1, 57, 127
2, 78240, Note_on_c, 1, 67, 127
2, 78240, Note_on_c, 1, 72, 127
2, 78240, Note_on_c, 1, 79, 127
2, 78520, Note_off_c, 1, 57, 0
2, 78520, Note_on_c, 1, 60, 127
2, 78520, Note_off_c, 1, 67, 0
2, 78520, Note_off_c, 1, 72, 0
2, 78520, Note_on_c, 1, 76, 127
2, 78520, Note_off_c, 1, 79, 0
2, 78560, Note_on_c, 1, 57, 127
2, 78560, Note_off_c, 1, 60, 0
2, 78560, Note_on_c, 1, 67, 127
2, 78560, Note_on_c, 1, 72, 127
2, 78560, Note_off_c, 1, 76, 0
2, 78560, Note_on_c, 1, 79, 127
2, 78880, Note_off_c, 1, 48, 0
2, 78880, Note_off_c, 1, 57, 0
2, 78880, Note_on_c, 1, 60, 127
2, 78880, Note_off_c, 1, 67, 0
2, 78880, Note_off_c, 1, 72, 0
2, 78880, Note_off_c, 1, 79, 0
2, 78920, Note_on_c, 1, 48, 127
2, 78920, Note_off_c, 1, 60, 0
2, 78920, Note_on_c, 1, 72, 127
2, 78920, Note_on_c, 1, 76, 127
2, 78920, Note_on_c, 1, 81, 127
2, 79240, Note_off_c, 1, 48, 0
2, 79240, Note_off_c, 1, 72, 0
2, 79240, Note_off_c, 1, 76, 0
2, 79240, Note_off_c, 1, 81, 0
2, 79280, Note_on_c, 1, 52, 127
2, 79280, Note_on_c, 1, 63, 127
2, 79280, Note_on_c, 1, 66, 127
2, 79280, Note_on_c, 1, 72, 127
2, 79920, Note_off_c, 1, 52, 0
2, 79920, Note_off_c, 1, 63, 0
2, 79920, Note_off_c, 1, 66, 0
2, 79920, Note_off_c, 1, 72, 0
2, 79960, Note_on_c, 1, 52, 127
2, 79960, Note_on_c, 1, 62, 127
2, 79960, Note_on_c, 1, 65, 127
2, 79960, Note_on_c, 1, 68, 127
2, 79960, Note_on_c, 1, 72, 127
2, 80200, Note_off_c, 1, 52, 0
2, 80200, Note_off_c, 1, 62, 0
2, 80200, Note_off_c, 1, 65, 0
2, 80200, Note_off_c, 1, 68, 0
2, 80200, Note_off_c, 1, 72, 0
2, 80240, Note_on_c, 1, 52, 127
2, 80240, Note_on_c, 1, 62, 127
2, 80240, Note_on_c, 1, 65, 127
2, 80240, Note_on_c, 1, 68, 127
2, 80240, Note_on_c, 1, 72, 127
2, 80280, Note_off_c, 1, 72, 0
2, 80640, Note_off_c, 1, 52, 0
2, 80640, Note_off_c, 1, 62, 0
2, 80640, Note_off_c, 1, 65, 0
2, 80640, Note_off_c, 1, 68, 0
2, 80680, Note_on_c, 1, 36, 127
2, 80680, Note_on_c, 1, 43, 127
2, 80680, Note_on_c, 1, 48, 127
2, 80680, Note_on_c, 1, 52, 127
2, 80680, Note_on_c, 1, 60, 127
2, 81320, Note_off_c, 1, 36, 0
2, 81320, Note_off_c, 1, 43, 0
2, 81320, Note_off_c, 1, 48, 0
2, 81320, Note_off_c, 1, 52, 0
2, 81320, Note_off_c, 1, 60, 0
2, 81360, Note_on_c, 1, 43, 127
2, 81360, Note_on_c, 1, 51, 127
2, 81360, Note_on_c, 1, 73, 127
2, 81360, Note_on_c, 1, 82, 127
2, 81440, Note_off_c, 1, 73, 0
2, 81520, Note_on_c, 1, 72, 127
2, 81680, Note_off_c, 1, 43, 0
2, 81680, Note_off_c, 1, 51, 0
2, 81680, Note_off_c, 1, 72, 0
2, 81680, Note_off_c, 1, 82, 0
2, 81720, Note_on_c, 1, 48, 127
2, 81720, Note_on_c, 1, 55, 127
2, 81720, Note_on_c, 1, 60, 127
2, 81720, Note_on_c, 1, 63, 127
2, 81720, Note_on_c, 1, 67, 127
2, 81720, Note_on_c, 1, 72, 127
2, 82200, Note_off_c, 1, 48, 0
2, 82200, Note_off_c, 1, 55, 0
2, 82200, Note_off_c, 1, 60, 0
2, 82200, Note_off_c, 1, 63, 0
2, 82200, Note_off_c, 1, 67, 0
2, 82200, Note_off_c, 1, 72, 0
2, 82280, Note_on_c, 1, 72, 127
2, 82400, Note_off_c, 1, 72, 0
2, 82440, Note_on_c, 1, 67, 127
2, 82600, Note_off_c, 1, 67, 0
2, 82640, Note_on_c, 1, 60, 127
2, 82640, Note_on_c, 1, 62, 127
2, 82760, Note_off_c, 1, 60, 0
2, 82760, Note_off_c, 1, 62, 0
2, 82800, Note_on_c, 1, 50, 127
2, 82800, Note_on_c, 1, 54, 127
2, 82800, Note_on_c, 1, 60, 127
2, 82800, Note_on_c, 1, 62, 127
2, 83120, Note_off_c, 1, 50, 0
2, 83120, Note_off_c, 1, 54, 0
2, 83120, Note_off_c, 1, 60, 0
2, 83120, Note_off_c, 1, 62, 0
2, 83160, Note_on_c, 1, 43, 127
2, 83160, Note_on_c, 1, 50, 127
2, 83160, Note_on_c, 1, 58, 127
2, 83160, Note_on_c, 1, 62, 127
2, 83160, Note_on_c, 1, 67, 127
2, 83480, Note_off_c, 1, 50, 0
2, 84000, Note_off_c, 1, 62, 0
2, 84000, Note_off_c, 1, 67, 0
2, 84040, Note_on_c, 1, 67, 127
2, 84160, Note_off_c, 1, 43, 0
2, 84160, Note_off_c, 1, 58, 0
2, 84160, Note_off_c, 1, 67, 0
2, 84200, Note_on_c, 1, 43, 127
2, 84200, Note_on_c, 1, 55, 127
2, 84200, Note_on_c, 1, 58, 127
2, 84400, Note_off_c, 1, 43, 0
2, 84400, Note_off_c, 1, 55, 0
2, 84400, Note_off_c, 1, 58, 0
2, 84440, Note_on_c, 1, 43, 127
2, 84440, Note_on_c, 1, 55, 127
2, 84440, Note_on_c, 1, 58, 127
2, 84560, Note_off_c, 1, 43, 0
2, 84560, Note_off_c, 1, 55, 0
2, 84560, Note_off_c, 1, 58, 0
2, 84600, Note_on_c, 1, 51, 127
2, 84600, Note_on_c, 1, 60, 127
2, 84600, Note_on_c, 1, 62, 127
2, 84640, Note_on_c, 1, 50, 127
2, 84640, Note_off_c, 1, 51, 0
2, 84880, Note_off_c, 1, 50, 0
2, 84880, Note_off_c, 1, 60, 0
2, 84880, Note_off_c, 1, 62, 0
2, 84920, Note_on_c, 1, 43, 127
2, 84920, Note_on_c, 1, 55, 127
2, 84920, Note_on_c, 1, 59, 127
2, 84920, Note_on_c, 1, 62, 127
2, 85160, Note_off_c, 1, 55, 0
2, 85240, Note_off_c, 1, 43, 0
2, 85240, Note_off_c, 1, 59, 0
2, 85240, Note_off_c, 1, 62, 0
2, 85280, Note_on_c, 1, 33, 127
2, 85280, Note_on_c, 1, 45, 127
2, 85280, Note_on_c, 1, 57, 127
2, 85280, Note_on_c, 1, 61, 127
2, 85280, Note_on_c, 1, 64, 127
2, 85560, Note_off_c, 1, 33, 0
2, 85560, Note_off_c, 1, 45, 0
2, 85560, Note_off_c, 1, 57, 0
2, 85560, Note_off_c, 1, 61, 0
2, 85560, Note_off_c, 1, 64, 0
2, 85600, Note_on_c, 1, 40, 127
2, 85600, Note_on_c, 1, 52, 127
2, 85600, Note_on_c, 1, 56, 127
2, 85600, Note_on_c, 1, 59, 127
2, 85600, Note_on_c, 1, 64, 127
2, 86280, Note_off_c, 1, 56, 0
2, 86280, Note_off_c, 1, 64, 0
2, 86320, Note_off_c, 1, 40, 0
2, 86320, Note_off_c, 1, 52, 0
2, 86320, Note_off_c, 1, 59, 0
2, 86360, Note_on_c, 1, 40, 127
2, 86360, Note_on_c, 1, 52, 127
2, 86360, Note_on_c, 1, 56, 127
2, 86360, Note_on_c, 1, 59, 127
2, 86360, Note_on_c, 1, 64, 127
2, 87000, Note_off_c, 1, 40, 0
2, 87000, Note_off_c, 1, 52, 0
2, 87000, Note_off_c, 1, 56, 0
2, 87000, Note_off_c, 1, 59, 0
2, 87000, Note_off_c, 1, 64, 0
2, 87040, Note_on_c, 1, 36, 127
2, 87040, Note_on_c, 1, 48, 127
2, 87040, Note_on_c, 1, 57, 127
2, 87040, Note_on_c, 1, 63, 127
2, 87040, Note_on_c, 1, 68, 127
2, 87360, Note_off_c, 1, 36, 0
2, 87360, Note_off_c, 1, 48, 0
2, 87360, Note_on_c, 1, 60, 127
2, 87360, Note_off_c, 1, 63, 0
2, 87360, Note_on_c, 1, 64, 127
2, 87360, Note_off_c, 1, 68, 0
2, 87360, Note_on_c, 1, 71, 127
2, 87400, Note_on_c, 1, 48, 127
2, 87400, Note_on_c, 1, 55, 127
2, 87400, Note_off_c, 1, 57, 0
2, 87400, Note_on_c, 1, 58, 127
2, 87400, Note_off_c, 1, 60, 0
2, 87400, Note_off_c, 1, 71, 0
2, 87400, Note_on_c, 1, 72, 127
2, 87400, Note_on_c, 1, 76, 127
2, 87440, Note_off_c, 1, 48, 0
2, 87440, Note_on_c, 1, 52, 127
2, 87440, Note_off_c, 1, 55, 0
2, 87440, Note_on_c, 1, 57, 127
2, 87440, Note_off_c, 1, 58, 0
2, 87440, Note_on_c, 1, 61, 127
2, 87440, Note_off_c, 1, 72, 0
2, 87440, Note_off_c, 1, 76, 0
2, 87440, Note_on_c, 1, 85, 127
2, 87480, Note_on_c, 1, 48, 127
2, 87480, Note_off_c, 1, 52, 0
2, 87480, Note_on_c, 1, 55, 127
2, 87480, Note_off_c, 1, 57, 0
2, 87480, Note_on_c, 1, 58, 127
2, 87480, Note_off_c, 1, 61, 0
2, 87480, Note_on_c, 1, 72, 127
2, 87480, Note_on_c, 1, 76, 127
2, 87480, Note_off_c, 1, 85, 0
2, 87560, Note_off_c, 1, 48, 0
2, 87560, Note_on_c, 1, 49, 127
2, 87560, Note_off_c, 1, 58, 0
2, 87560, Note_on_c, 1, 69, 127
2, 87560, Note_off_c, 1, 72, 0
2, 87560, Note_on_c, 1, 73, 127
2, 87560, Note_off_c, 1, 76, 0
2, 87600, Note_on_c, 1, 29, 127
2, 87600, Note_on_c, 1, 41, 127
2, 87600, Note_off_c, 1, 49, 0
2, 87600, Note_off_c, 1, 55, 0
2, 87600, Note_on_c, 1, 60, 127
2, 87600, Note_off_c, 1, 64, 0
2, 87600, Note_on_c, 1, 65, 127
2, 87600, Note_off_c, 1, 73, 0
2, 87600, Note_on_c, 1, 77, 127
2, 87640, Note_off_c, 1, 29, 0
2, 87640, Note_on_c, 1, 37, 127
2, 87640, Note_off_c, 1, 41, 0
2, 87640, Note_off_c, 1, 60, 0
2, 87640, Note_off_c, 1, 65, 0
2, 87640, Note_off_c, 1, 69, 0
2, 87640, Note_off_c, 1, 77, 0
2, 87640, Note_on_c, 1, 80, 127
2, 87640, Note_on_c, 1, 85, 127
2, 87640, Note_on_c, 1, 88, 127
2, 87640, Note_on_c, 1, 92, 127
2, 87680, Note_off_c, 1, 37, 0
2, 87680, Note_off_c, 1, 80, 0
2, 87680, Note_off_c, 1, 85, 0
2, 87680, Note_off_c, 1, 88, 0
2, 87680, Note_off_c, 1, 92, 0
2, 87720, Note_on_c, 1, 64, 127
2, 87720, Note_on_c, 1, 67, 127
2, 87720, Note_on_c, 1, 69, 127
2, 87720, Note_on_c, 1, 74, 127
2, 88040, Note_on_c, 1, 52, 127
2, 88040, Note_off_c, 1, 69, 0
2, 88040, Note_off_c, 1, 74, 0
2, 88080, Note_on_c, 1, 41, 127
2, 88080, Note_on_c, 1, 48, 127
2, 88080, Note_off_c, 1, 52, 0
2, 88080, Note_off_c, 1, 64, 0
2, 88080, Note_off_c, 1, 67, 0
2, 88080, Note_on_c, 1, 70, 127
2, 88080, Note_on_c, 1, 72, 127
2, 88320, Note_off_c, 1, 41, 0
2, 88320, Note_off_c, 1, 48, 0
2, 88320, Note_off_c, 1, 70, 0
2, 88320, Note_off_c, 1, 72, 0
2, 88360, Note_on_c, 1, 41, 127
2, 88360, Note_on_c, 1, 48, 127
2, 88360, Note_on_c, 1, 70, 127
2, 88360, Note_on_c, 1, 72, 127
2, 88400, Note_off_c, 1, 41, 0
2, 88400, Note_off_c, 1, 48, 0
2, 88400, Note_off_c, 1, 70, 0
2, 88400, Note_off_c, 1, 72, 0
2, 88440, Note_on_c, 1, 41, 127
2, 88440, Note_on_c, 1, 48, 127
2, 88440, Note_on_c, 1, 70, 127
2, 88440, Note_on_c, 1, 72, 127
2, 88760, Note_off_c, 1, 41, 0
2, 88760, Note_off_c, 1, 48, 0
2, 88760, Note_off_c, 1, 70, 0
2, 88760, Note_off_c, 1, 72, 0
2, 88800, Note_on_c, 1, 36, 127
2, 88800, Note_on_c, 1, 55, 127
2, 88800, Note_on_c, 1, 60, 127
2, 88800, Note_on_c, 1, 64, 127
2, 89120, Note_off_c, 1, 36, 0
2, 89160, Note_on_c, 1, 36, 127
2, 89440, Note_on_c, 1, 48, 127
2, 89440, Note_off_c, 1, 64, 0
2, 89480, Note_off_c, 1, 36, 0
2, 89480, Note_on_c, 1, 53, 127
2, 89480, Note_off_c, 1, 55, 0
2, 89480, Note_off_c, 1, 60, 0
2, 89480, Note_on_c, 1, 62, 127
2, 89640, Note_on_c, 1, 55, 127
2, 89640, Note_off_c, 1, 62, 0
2, 89680, Note_off_c, 1, 48, 0
2, 89680, Note_off_c, 1, 55, 0
2, 89680, Note_on_c, 1, 58, 127
2, 89680, Note_on_c, 1, 61, 127
2, 89680, Note_on_c, 1, 67, 127
2, 89720, Note_on_c, 1, 39, 127
2, 89720, Note_on_c, 1, 48, 127
2, 89720, Note_on_c, 1, 51, 127
2, 89720, Note_off_c, 1, 53, 0
2, 89720, Note_off_c, 1, 58, 0
2, 89720, Note_off_c, 1, 61, 0
2, 89720, Note_off_c, 1, 67, 0
2, 89720, Note_on_c, 1, 79, 127
2, 89720, Note_on_c, 1, 84, 127
2, 89760, Note_off_c, 1, 39, 0
2, 89760, Note_off_c, 1, 48, 0
2, 89760, Note_off_c, 1, 51, 0
2, 89760, Note_off_c, 1, 79, 0
2, 89760, Note_off_c, 1, 84, 0
2, 89840, Note_on_c, 1, 48, 127
2, 89840, Note_on_c, 1, 60, 127
2, 89840, Note_on_c, 1, 64, 127
2, 89840, Note_on_c, 1, 69, 127
2, 90120, Note_off_c, 1, 60, 0
2, 90120, Note_off_c, 1, 69, 0
2, 90160, Note_on_c, 1, 65, 127
2, 90280, Note_off_c, 1, 48, 0
2, 90280, Note_on_c, 1, 60, 127
2, 90280, Note_on_c, 1, 63, 127
2, 90280, Note_off_c, 1, 64, 0
2, 90280, Note_off_c, 1, 65, 0
2, 90280, Note_on_c, 1, 66, 127
2, 90280, Note_on_c, 1, 74, 127
2, 90280, Note_on_c, 1, 78, 127
2, 90320, Note_on_c, 1, 48, 127
2, 90320, Note_off_c, 1, 60, 0
2, 90320, Note_off_c, 1, 63, 0
2, 90320, Note_on_c, 1, 64, 127
2, 90320, Note_on_c, 1, 65, 127
2, 90320, Note_off_c, 1, 66, 0
2, 90320, Note_off_c, 1, 74, 0
2, 90320, Note_off_c, 1, 78, 0
2, 90360, Note_off_c, 1, 48, 0
2, 90360, Note_off_c, 1, 64, 0
2, 90360, Note_off_c, 1, 65, 0
2, 90400, Note_on_c, 1, 48, 127
2, 90400, Note_on_c, 1, 64, 127
2, 90400, Note_on_c, 1, 65, 127
2, 90480, Note_off_c, 1, 65, 0
2, 90560, Note_on_c, 1, 43, 127
2, 90560, Note_on_c, 1, 58, 127
2, 90560, Note_on_c, 1, 60, 127
2, 90840, Note_off_c, 1, 43, 0
2, 90840, Note_off_c, 1, 58, 0
2, 90840, Note_off_c, 1, 60, 0
2, 90840, Note_off_c, 1, 64, 0
2, 90880, Note_on_c, 1, 41, 127
2, 90880, Note_on_c, 1, 57, 127
2, 90880, Note_on_c, 1, 60, 127
2, 90880, Note_on_c, 1, 65, 127
2, 91200, Note_off_c, 1, 41, 0
2, 91200, Note_off_c, 1, 48, 0
2, 91200, Note_off_c, 1, 57, 0
2, 91200, Note_off_c, 1, 60, 0
2, 91200, Note_off_c, 1, 65, 0
2, 91240, Note_on_c, 1, 40, 127
2, 91360, Note_off_c, 1, 40, 0
2, 91400, Note_on_c, 1, 41, 127
2, 91560, Note_off_c, 1, 41, 0
2, 91600, Note_on_c, 1, 40, 127
2, 91600, Note_on_c, 1, 67, 127
2, 91720, Note_off_c, 1, 67, 0
2, 91760, Note_on_c, 1, 67, 127
2, 91880, Note_off_c, 1, 40, 0
2, 91880, Note_off_c, 1, 67, 0
2, 91920, Note_on_c, 1, 36, 127
2, 91920, Note_on_c, 1, 60, 127
2, 92200, Note_off_c, 1, 36, 0
2, 92200, Note_on_c, 1, 45, 127
2, 92200, Note_on_c, 1, 52, 127
2, 92200, Note_off_c, 1, 60, 0
2, 92200, Note_on_c, 1, 83, 127
2, 92200, Note_on_c, 1, 91, 127
2, 92200, Note_on_c, 1, 95, 127
2, 92240, Note_off_c, 1, 45, 0
2, 92240, Note_off_c, 1, 52, 0
2, 92240, Note_off_c, 1, 83, 0
2, 92240, Note_off_c, 1, 91, 0
2, 92240, Note_off_c, 1, 95, 0
2, 92280, Note_on_c, 1, 70, 127
2, 92280, Note_on_c, 1, 73, 127
2, 92280, Note_on_c, 1, 87, 127
2, 92280, Note_on_c, 1, 94, 127
2, 92320, Note_on_c, 1, 68, 127
2, 92320, Note_off_c, 1, 70, 0
2, 92320, Note_off_c, 1, 73, 0
2, 92320, Note_on_c, 1, 75, 127
2, 92320, Note_on_c, 1, 80, 127
2, 92320, Note_on_c, 1, 82, 127
2, 92320, Note_off_c, 1, 87, 0
2, 92320, Note_off_c, 1, 94, 0
2, 92360, Note_off_c, 1, 68, 0
2, 92360, Note_on_c, 1, 69, 127
2, 92360, Note_on_c, 1, 78, 127
2, 92360, Note_off_c, 1, 80, 0
2, 92360, Note_off_c, 1, 82, 0
2, 92360, Note_on_c, 1, 87, 127
2, 92360, Note_on_c, 1, 90, 127
2, 92400, Note_off_c, 1, 69, 0
2, 92400, Note_off_c, 1, 75, 0
2, 92400, Note_off_c, 1, 78, 0
2, 92400, Note_off_c, 1, 87, 0
2, 92400, Note_off_c, 1, 90, 0
2, 92440, Note_on_c, 1, 42, 127
2, 92440, Note_on_c, 1, 51, 127
2, 92440, Note_on_c, 1, 63, 127
2, 92440, Note_on_c, 1, 66, 127
2, 92440, Note_on_c, 1, 69, 127
2, 92440, Note_on_c, 1, 72, 127
2, 92480, Note_off_c, 1, 42, 0
2, 92480, Note_on_c, 1, 45, 127
2, 92480, Note_on_c, 1, 49, 127
2, 92480, Note_off_c, 1, 51, 0
2, 92480, Note_on_c, 1, 53, 127
2, 92480, Note_on_c, 1, 59, 127
2, 92480, Note_off_c, 1, 63, 0
2, 92480, Note_on_c, 1, 65, 127
2, 92480, Note_off_c, 1, 66, 0
2, 92480, Note_off_c, 1, 69, 0
2, 92480, Note_off_c, 1, 72, 0
2, 92600, Note_off_c, 1, 45, 0
2, 92600, Note_off_c, 1, 53, 0
2, 92600, Note_off_c, 1, 59, 0
2, 92600, Note_off_c, 1, 65, 0
2, 92640, Note_on_c, 1, 45, 127
2, 92640, Note_off_c, 1, 49, 0
2, 92640, Note_on_c, 1, 67, 127
2, 92640, Note_on_c, 1, 78, 127
2, 92960, Note_off_c, 1, 67, 0
2, 92960, Note_off_c, 1, 78, 0
2, 93000, Note_on_c, 1, 67, 127
2, 93000, Note_on_c, 1, 78, 127
2, 93280, Note_off_c, 1, 78, 0
2, 93360, Note_on_c, 1, 78, 127
2, 93480, Note_off_c, 1, 78, 0
2, 93520, Note_on_c, 1, 78, 127
2, 93640, Note_off_c, 1, 67, 0
2, 93640, Note_off_c, 1, 78, 0
2, 93680, Note_on_c, 1, 67, 127
2, 93680, Note_on_c, 1, 78, 127
2, 93960, Note_off_c, 1, 67, 0
2, 93960, Note_off_c, 1, 78, 0
2, 94040, Note_on_c, 1, 57, 127
2, 94040, Note_on_c, 1, 65, 127
2, 94040, Note_on_c, 1, 72, 127
2, 94160, Note_off_c, 1, 57, 0
2, 94160, Note_off_c, 1, 65, 0
2, 94160, Note_off_c, 1, 72, 0
2, 94200, Note_on_c, 1, 57, 127
2, 94200, Note_on_c, 1, 65, 127
2, 94200, Note_on_c, 1, 72, 127
2, 94320, Note_off_c, 1, 57, 0
2, 94320, Note_off_c, 1, 65, 0
2, 94320, Note_off_c, 1, 72, 0
2, 94360, Note_off_c, 1, 45, 0
2, 94440, Note_on_c, 1, 45, 127
2, 94440, Note_on_c, 1, 57, 127
2, 94440, Note_on_c, 1, 65, 127
2, 94440, Note_on_c, 1, 72, 127
2, 94680, Note_off_c, 1, 57, 0
2, 94680, Note_off_c, 1, 65, 0
2, 94680, Note_off_c, 1, 72, 0
2, 94760, Note_on_c, 1, 41, 127
2, 94760, Note_off_c, 1, 45, 0
2, 94760, Note_on_c, 1, 53, 127
2, 94760, Note_on_c, 1, 65, 127
2, 94760, Note_on_c, 1, 69, 127
2, 95040, Note_off_c, 1, 41, 0
2, 95040, Note_off_c, 1, 53, 0
2, 95040, Note_on_c, 1, 58, 127
2, 95040, Note_off_c, 1, 65, 0
2, 95040, Note_off_c, 1, 69, 0
2, 95080, Note_on_c, 1, 46, 127
2, 95080, Note_off_c, 1, 58, 0
2, 95120, Note_on_c, 1, 36, 127
2, 95120, Note_off_c, 1, 46, 0
2, 95120, Note_on_c, 1, 48, 127
2, 95120, Note_on_c, 1, 65, 127
2, 95120, Note_on_c, 1, 69, 127
2, 95120, Note_on_c, 1, 77, 127
2, 95240, Note_off_c, 1, 36, 0
2, 95240, Note_on_c, 1, 41, 127
2, 95240, Note_off_c, 1, 48, 0
2, 95240, Note_on_c, 1, 53, 127
2, 95240, Note_on_c, 1, 60, 127
2, 95240, Note_off_c, 1, 69, 0
2, 95240, Note_off_c, 1, 77, 0
2, 95280, Note_on_c, 1, 70, 127
2, 95400, Note_off_c, 1, 70, 0
2, 95440, Note_off_c, 1, 41, 0
2, 95440, Note_off_c, 1, 53, 0
2, 95440, Note_off_c, 1, 60, 0
2, 95440, Note_off_c, 1, 65, 0
2, 95480, Note_on_c, 1, 36, 127
2, 95480, Note_on_c, 1, 48, 127
2, 95480, Note_on_c, 1, 60, 127
2, 95480, Note_on_c, 1, 64, 127
2, 95480, Note_on_c, 1, 67, 127
2, 95760, Note_off_c, 1, 36, 0
2, 95760, Note_off_c, 1, 48, 0
2, 95760, Note_off_c, 1, 60, 0
2, 95760, Note_off_c, 1, 64, 0
2, 95760, Note_off_c, 1, 67, 0
2, 95800, Note_on_c, 1, 41, 127
2, 95800, Note_on_c, 1, 53, 127
2, 95800, Note_on_c, 1, 60, 127
2, 95800, Note_on_c, 1, 65, 127
2, 95800, Note_on_c, 1, 69, 127
2, 96080, Note_off_c, 1, 53, 0
2, 96080, Note_off_c, 1, 60, 0
2, 96080, Note_off_c, 1, 65, 0
2, 96080, Note_off_c, 1, 69, 0
2, 96120, Note_off_c, 1, 41, 0
2, 96160, Note_on_c, 1, 36, 127
2, 96160, Note_on_c, 1, 48, 127
2, 96160, Note_on_c, 1, 57, 127
2, 96160, Note_on_c, 1, 65, 127
2, 96160, Note_on_c, 1, 69, 127
2, 96480, Note_off_c, 1, 36, 0
2, 96480, Note_off_c, 1, 48, 0
2, 96480, Note_off_c, 1, 57, 0
2, 96480, Note_off_c, 1, 65, 0
2, 96480, Note_off_c, 1, 69, 0
2, 96560, Note_on_c, 1, 36, 127
2, 96560, Note_on_c, 1, 48, 127
2, 96560, Note_on_c, 1, 60, 127
2, 96560, Note_on_c, 1, 65, 127
2, 96560, Note_on_c, 1, 69, 127
2, 96680, Note_off_c, 1, 60, 0
2, 96720, Note_on_c, 1, 60, 127
2, 96840, Note_off_c, 1, 36, 0
2, 96840, Note_off_c, 1, 48, 0
2, 96840, Note_off_c, 1, 60, 0
2, 96840, Note_off_c, 1, 65, 0
2, 96840, Note_off_c, 1, 69, 0
2, 96880, Note_on_c, 1, 36, 127
2, 96880, Note_on_c, 1, 48, 127
2, 96880, Note_on_c, 1, 58, 127
2, 96880, Note_on_c, 1, 60, 127
2, 96880, Note_on_c, 1, 67, 127
2, 97160, Note_off_c, 1, 36, 0
2, 97160, Note_off_c, 1, 48, 0
2, 97160, Note_off_c, 1, 58, 0
2, 97160, Note_off_c, 1, 60, 0
2, 97200, Note_off_c, 1, 67, 0
2, 97240, Note_on_c, 1, 36, 127
2, 97240, Note_on_c, 1, 48, 127
2, 97240, Note_on_c, 1, 55, 127
2, 97240, Note_on_c, 1, 60, 127
2, 97240, Note_on_c, 1, 63, 127
2, 97520, Note_off_c, 1, 36, 0
2, 97520, Note_off_c, 1, 48, 0
2, 97520, Note_off_c, 1, 55, 0
2, 97520, Note_off_c, 1, 60, 0
2, 97520, Note_off_c, 1, 63, 0
2, 97600, Note_on_c, 1, 36, 127
2, 97600, Note_on_c, 1, 48, 127
2, 97600, Note_on_c, 1, 55, 127
2, 97600, Note_on_c, 1, 60, 127
2, 97600, Note_on_c, 1, 63, 127
2, 97880, Note_off_c, 1, 36, 0
2, 97880, Note_off_c, 1, 48, 0
2, 97880, Note_off_c, 1, 55, 0
2, 97880, Note_off_c, 1, 60, 0
2, 97880, Note_off_c, 1, 63, 0
2, 97960, Note_on_c, 1, 48, 127
2, 97960, Note_on_c, 1, 60, 127
2, 97960, Note_on_c, 1, 77, 127
2, 97960, Note_on_c, 1, 80, 127
2, 97960, Note_on_c, 1, 89, 127
2, 98240, Note_off_c, 1, 60, 0
2, 98240, Note_off_c, 1, 77, 0
2, 98240, Note_off_c, 1, 80, 0
2, 98240, Note_off_c, 1, 89, 0
2, 98280, Note_off_c, 1, 48, 0
2, 98320, Note_on_c, 1, 49, 127
2, 98320, Note_on_c, 1, 53, 127
2, 98320, Note_on_c, 1, 56, 127
2, 98320, Note_on_c, 1, 61, 127
2, 98320, Note_on_c, 1, 65, 127
2, 98320, Note_on_c, 1, 68, 127
2, 98320, Note_on_c, 1, 73, 127
2, 98440, Note_off_c, 1, 49, 0
2, 98440, Note_off_c, 1, 53, 0
2, 98440, Note_off_c, 1, 56, 0
2, 98440, Note_off_c, 1, 61, 0
2, 98440, Note_off_c, 1, 65, 0
2, 98440, Note_off_c, 1, 68, 0
2, 98440, Note_off_c, 1, 73, 0
2, 98480, Note_on_c, 1, 49, 127
2, 98480, Note_on_c, 1, 53, 127
2, 98480, Note_on_c, 1, 56, 127
2, 98480, Note_on_c, 1, 61, 127
2, 98480, Note_on_c, 1, 65, 127
2, 98480, Note_on_c, 1, 68, 127
2, 98480, Note_on_c, 1, 73, 127
2, 99000, Note_off_c, 1, 49, 0
2, 99000, Note_off_c, 1, 53, 0
2, 99000, Note_off_c, 1, 56, 0
2, 99000, Note_off_c, 1, 61, 0
2, 99000, Note_off_c, 1, 65, 0
2, 99000, Note_off_c, 1, 68, 0
2, 99000, Note_off_c, 1, 73, 0
2, 99040, Note_on_c, 1, 38, 127
2, 99040, Note_on_c, 1, 53, 127
2, 99040, Note_on_c, 1, 89, 127
2, 99040, Note_on_c, 1, 92, 127
2, 99080, Note_off_c, 1, 38, 0
2, 99080, Note_off_c, 1, 53, 0
2, 99080, Note_on_c, 1, 64, 127
2, 99080, Note_on_c, 1, 67, 127
2, 99080, Note_on_c, 1, 71, 127
2, 99080, Note_on_c, 1, 74, 127
2, 99080, Note_on_c, 1, 75, 127
2, 99080, Note_off_c, 1, 89, 0
2, 99080, Note_off_c, 1, 92, 0
2, 99120, Note_on_c, 1, 52, 127
2, 99120, Note_off_c, 1, 64, 0
2, 99120, Note_on_c, 1, 66, 127
2, 99120, Note_off_c, 1, 67, 0
2, 99120, Note_on_c, 1, 69, 127
2, 99120, Note_off_c, 1, 71, 0
2, 99120, Note_on_c, 1, 73, 127
2, 99120, Note_off_c, 1, 74, 0
2, 99120, Note_off_c, 1, 75, 0
2, 99120, Note_on_c, 1, 76, 127
2, 99160, Note_on_c, 1, 47, 127
2, 99160, Note_off_c, 1, 52, 0
2, 99160, Note_off_c, 1, 66, 0
2, 99160, Note_off_c, 1, 69, 0
2, 99160, Note_off_c, 1, 73, 0
2, 99160, Note_off_c, 1, 76, 0
2, 99160, Note_on_c, 1, 81, 127
2, 99160, Note_on_c, 1, 87, 127
2, 99200, Note_off_c, 1, 47, 0
2, 99200, Note_on_c, 1, 49, 127
2, 99200, Note_on_c, 1, 53, 127
2, 99200, Note_on_c, 1, 56, 127
2, 99200, Note_on_c, 1, 61, 127
2, 99200, Note_on_c, 1, 80, 127
2, 99200, Note_off_c, 1, 81, 0
2, 99200, Note_on_c, 1, 85, 127
2, 99200, Note_off_c, 1, 87, 0
2, 99200, Note_on_c, 1, 89, 127
2, 99200, Note_on_c, 1, 92, 127
2, 99240, Note_on_c, 1, 38, 127
2, 99240, Note_off_c, 1, 49, 0
2, 99240, Note_on_c, 1, 50, 127
2, 99240, Note_off_c, 1, 53, 0
2, 99240, Note_off_c, 1, 56, 0
2, 99240, Note_on_c, 1, 60, 127
2, 99240, Note_off_c, 1, 61, 0
2, 99240, Note_on_c, 1, 66, 127
2, 99240, Note_on_c, 1, 69, 127
2, 99240, Note_on_c, 1, 74, 127
2, 99240, Note_off_c, 1, 80, 0
2, 99240, Note_off_c, 1, 85, 0
2, 99240, Note_off_c, 1, 89, 0
2, 99240, Note_off_c, 1, 92, 0
2, 99280, Note_off_c, 1, 38, 0
2, 99280, Note_off_c, 1, 50, 0
2, 99280, Note_on_c, 1, 53, 127
2, 99280, Note_on_c, 1, 56, 127
2, 99280, Note_off_c, 1, 66, 0
2, 99280, Note_off_c, 1, 69, 0
2, 99280, Note_on_c, 1, 72, 127
2, 99280, Note_off_c, 1, 74, 0
2, 99280, Note_on_c, 1, 79, 127
2, 99280, Note_on_c, 1, 82, 127
2, 99280, Note_on_c, 1, 84, 127
2, 99320, Note_on_c, 1, 40, 127
2, 99320, Note_off_c, 1, 53, 0
2, 99320, Note_on_c, 1, 55, 127
2, 99320, Note_off_c, 1, 56, 0
2, 99320, Note_off_c, 1, 60, 0
2, 99320, Note_off_c, 1, 72, 0
2, 99320, Note_off_c, 1, 79, 0
2, 99320, Note_off_c, 1, 82, 0
2, 99320, Note_off_c, 1, 84, 0
2, 99360, Note_off_c, 1, 40, 0
2, 99360, Note_off_c, 1, 55, 0
2, 99400, Note_on_c, 1, 61, 127
2, 99400, Note_on_c, 1, 67, 127
2, 99400, Note_on_c, 1, 82, 127
2, 99400, Note_on_c, 1, 84, 127
2, 99680, Note_off_c, 1, 61, 0
2, 99680, Note_off_c, 1, 67, 0
2, 99680, Note_off_c, 1, 82, 0
2, 99680, Note_off_c, 1, 84, 0
2, 99720, Note_on_c, 1, 49, 127
2, 99720, Note_on_c, 1, 61, 127
2, 99720, Note_on_c, 1, 66, 127
2, 99720, Note_on_c, 1, 68, 127
2, 100000, Note_off_c, 1, 49, 0
2, 100000, Note_off_c, 1, 61, 0
2, 100000, Note_on_c, 1, 65, 127
2, 100000, Note_off_c, 1, 66, 0
2, 100040, Note_off_c, 1, 65, 0
2, 100040, Note_off_c, 1, 68, 0
2, 100080, Note_on_c, 1, 49, 127
2, 100080, Note_on_c, 1, 59, 127
2, 100080, Note_on_c, 1, 66, 127
2, 100080, Note_on_c, 1, 77, 127
2, 100360, Note_off_c, 1, 49, 0
2, 100360, Note_off_c, 1, 59, 0
2, 100360, Note_off_c, 1, 66, 0
2, 100360, Note_off_c, 1, 77, 0
2, 100360, Note_on_c, 1, 92, 127
2, 100360, Note_on_c, 1, 95, 127
2, 100400, Note_off_c, 1, 92, 0
2, 100400, Note_off_c, 1, 95, 0
2, 100480, Note_on_c, 1, 36, 127
2, 100480, Note_on_c, 1, 48, 127
2, 100480, Note_on_c, 1, 69, 127
2, 100480, Note_on_c, 1, 72, 127
2, 100480, Note_on_c, 1, 77, 127
2, 100760, Note_off_c, 1, 36, 0
2, 100760, Note_off_c, 1, 48, 0
2, 100760, Note_off_c, 1, 69, 0
2, 100760, Note_off_c, 1, 72, 0
2, 100760, Note_off_c, 1, 77, 0
2, 100800, Note_on_c, 1, 36, 127
2, 100800, Note_on_c, 1, 48, 127
2, 100800, Note_on_c, 1, 69, 127
2, 100800, Note_on_c, 1, 72, 127
2, 100800, Note_on_c, 1, 77, 127
2, 100960, Note_off_c, 1, 36, 0
2, 100960, Note_off_c, 1, 48, 0
2, 101000, Note_on_c, 1, 33, 127
2, 101000, Note_on_c, 1, 45, 127
2, 101000, Note_off_c, 1, 69, 0
2, 101000, Note_off_c, 1, 72, 0
2, 101000, Note_off_c, 1, 77, 0
2, 101000, Note_on_c, 1, 78, 127
2, 101000, Note_on_c, 1, 84, 127
2, 101000, Note_on_c, 1, 90, 127
2, 101120, Note_off_c, 1, 33, 0
2, 101120, Note_off_c, 1, 45, 0
2, 101120, Note_off_c, 1, 78, 0
2, 101120, Note_off_c, 1, 84, 0
2, 101120, Note_off_c, 1, 90, 0
2, 101160, Note_on_c, 1, 33, 127
2, 101160, Note_on_c, 1, 45, 127
2, 101160, Note_on_c, 1, 78, 127
2, 101160, Note_on_c, 1, 84, 127
2, 101160, Note_on_c, 1, 90, 127
2, 101280, Note_off_c, 1, 33, 0
2, 101280, Note_off_c, 1, 45, 0
2, 101320, Note_on_c, 1, 45, 127
2, 101320, Note_on_c, 1, 57, 127
2, 101440, Note_off_c, 1, 45, 0
2, 101440, Note_off_c, 1, 57, 0
2, 101480, Note_on_c, 1, 45, 127
2, 101480, Note_on_c, 1, 57, 127
2, 101600, Note_off_c, 1, 45, 0
2, 101600, Note_off_c, 1, 57, 0
2, 101680, Note_on_c, 1, 45, 127
2, 101680, Note_on_c, 1, 57, 127
2, 101800, Note_off_c, 1, 45, 0
2, 101800, Note_off_c, 1, 57, 0
2, 101800, Note_off_c, 1, 78, 0
2, 101800, Note_off_c, 1, 84, 0
2, 101800, Note_off_c, 1, 90, 0
2, 101840, Note_on_c, 1, 45, 127
2, 101840, Note_on_c, 1, 57, 127
2, 101840, Note_on_c, 1, 78, 127
2, 101840, Note_on_c, 1, 84, 127
2, 101840, Note_on_c, 1, 90, 127
2, 102120, Note_off_c, 1, 45, 0
2, 102120, Note_off_c, 1, 57, 0
2, 102200, Note_on_c, 1, 45, 127
2, 102200, Note_on_c, 1, 57, 127
2, 102480, Note_off_c, 1, 45, 0
2, 102480, Note_off_c, 1, 57, 0
2, 102520, Note_off_c, 1, 78, 0
2, 102520, Note_off_c, 1, 84, 0
2, 102520, Note_off_c, 1, 90, 0
2, 102600, Note_on_c, 1, 44, 127
2, 102600, Note_on_c, 1, 56, 127
2, 102600, Note_on_c, 1, 74, 127
2, 102600, Note_on_c, 1, 80, 127
2, 102600, Note_on_c, 1, 82, 127
2, 102640, Note_on_c, 1, 43, 127
2, 102640, Note_off_c, 1, 44, 0
2, 102640, Note_on_c, 1, 55, 127
2, 102640, Note_off_c, 1, 56, 0
2, 102640, Note_off_c, 1, 82, 0
2, 102640, Note_on_c, 1, 84, 127
2, 102840, Note_off_c, 1, 43, 0
2, 102840, Note_off_c, 1, 55, 0
2, 102840, Note_off_c, 1, 74, 0
2, 102840, Note_off_c, 1, 80, 0
2, 102840, Note_off_c, 1, 84, 0
2, 102920, Note_on_c, 1, 47, 127
2, 102920, Note_on_c, 1, 55, 127
2, 102920, Note_on_c, 1, 67, 127
2, 102920, Note_on_c, 1, 74, 127
2, 102920, Note_on_c, 1, 77, 127
2, 103200, Note_off_c, 1, 47, 0
2, 103200, Note_off_c, 1, 55, 0
2, 103200, Note_off_c, 1, 67, 0
2, 103200, Note_off_c, 1, 74, 0
2, 103200, Note_off_c, 1, 77, 0
2, 103280, Note_on_c, 1, 43, 127
2, 103280, Note_on_c, 1, 80, 127
2, 103280, Note_on_c, 1, 84, 127
2, 103280, Note_on_c, 1, 91, 127
2, 103320, Note_off_c, 1, 43, 0
2, 103320, Note_on_c, 1, 56, 127
2, 103320, Note_on_c, 1, 59, 127
2, 103320, Note_on_c, 1, 64, 127
2, 103320, Note_on_c, 1, 76, 127
2, 103320, Note_off_c, 1, 80, 0
2, 103320, Note_on_c, 1, 83, 127
2, 103320, Note_off_c, 1, 84, 0
2, 103320, Note_on_c, 1, 88, 127
2, 103320, Note_off_c, 1, 91, 0
2, 103360, Note_on_c, 1, 40, 127
2, 103360, Note_off_c, 1, 56, 0
2, 103360, Note_off_c, 1, 59, 0
2, 103360, Note_off_c, 1, 64, 0
2, 103360, Note_on_c, 1, 69, 127
2, 103360, Note_on_c, 1, 73, 127
2, 103360, Note_on_c, 1, 75, 127
2, 103360, Note_off_c, 1, 76, 0
2, 103360, Note_on_c, 1, 78, 127
2, 103360, Note_off_c, 1, 83, 0
2, 103360, Note_off_c, 1, 88, 0
2, 103400, Note_off_c, 1, 40, 0
2, 103400, Note_on_c, 1, 44, 127
2, 103400, Note_off_c, 1, 69, 0
2, 103400, Note_off_c, 1, 73, 0
2, 103400, Note_off_c, 1, 75, 0
2, 103400, Note_on_c, 1, 77, 127
2, 103400, Note_off_c, 1, 78, 0
2, 103400, Note_on_c, 1, 80, 127
2, 103400, Note_on_c, 1, 89, 127
2, 103440, Note_on_c, 1, 48, 127
2, 103440, Note_on_c, 1, 60, 127
2, 103440, Note_on_c, 1, 68, 127
2, 103440, Note_on_c, 1, 72, 127
2, 103440, Note_off_c, 1, 77, 0
2, 103440, Note_off_c, 1, 80, 0
2, 103440, Note_off_c, 1, 89, 0
2, 103560, Note_off_c, 1, 44, 0
2, 103560, Note_off_c, 1, 48, 0
2, 103560, Note_off_c, 1, 60, 0
2, 103560, Note_off_c, 1, 68, 0
2, 103560, Note_off_c, 1, 72, 0
2, 103640, Note_on_c, 1, 35, 127
2, 103640, Note_on_c, 1, 39, 127
2, 103640, Note_on_c, 1, 47, 127
2, 103640, Note_on_c, 1, 68, 127
2, 103640, Note_on_c, 1, 80, 127
2, 103920, Note_off_c, 1, 35, 0
2, 103920, Note_off_c, 1, 39, 0
2, 103920, Note_off_c, 1, 47, 0
2, 103920, Note_off_c, 1, 68, 0
2, 103920, Note_off_c, 1, 80, 0
2, 103960, Note_on_c, 1, 35, 127
2, 103960, Note_on_c, 1, 39, 127
2, 103960, Note_on_c, 1, 47, 127
2, 103960, Note_on_c, 1, 68, 127
2, 103960, Note_on_c, 1, 80, 127
2, 104240, Note_off_c, 1, 35, 0
2, 104240, Note_off_c, 1, 39, 0
2, 104240, Note_off_c, 1, 47, 0
2, 104240, Note_off_c, 1, 68, 0
2, 104240, Note_off_c, 1, 80, 0
2, 104320, Note_on_c, 1, 35, 127
2, 104320, Note_on_c, 1, 39, 127
2, 104320, Note_on_c, 1, 47, 127
2, 104320, Note_on_c, 1, 68, 127
2, 104320, Note_on_c, 1, 80, 127
2, 104600, Note_off_c, 1, 35, 0
2, 104600, Note_off_c, 1, 39, 0
2, 104600, Note_off_c, 1, 47, 0
2, 104600, Note_off_c, 1, 68, 0
2, 104600, Note_off_c, 1, 80, 0
2, 104720, Note_on_c, 1, 46, 127
2, 104720, Note_on_c, 1, 51, 127
2, 104720, Note_on_c, 1, 66, 127
2, 104720, Note_on_c, 1, 70, 127
2, 105000, Note_off_c, 1, 46, 0
2, 105000, Note_off_c, 1, 51, 0
2, 105000, Note_off_c, 1, 66, 0
2, 105000, Note_off_c, 1, 70, 0
2, 105040, Note_on_c, 1, 34, 127
2, 105040, Note_on_c, 1, 61, 127
2, 105040, Note_on_c, 1, 68, 127
2, 105040, Note_on_c, 1, 73, 127
2, 105040, Note_on_c, 1, 79, 127
2, 105120, Note_on_c, 1, 60, 127
2, 105120, Note_off_c, 1, 61, 0
2, 105200, Note_off_c, 1, 60, 0
2, 105240, Note_on_c, 1, 60, 127
2, 105320, Note_off_c, 1, 34, 0
2, 105320, Note_off_c, 1, 60, 0
2, 105320, Note_off_c, 1, 68, 0
2, 105320, Note_off_c, 1, 73, 0
2, 105320, Note_off_c, 1, 79, 0
2, 105400, Note_on_c, 1, 46, 127
2, 105400, Note_on_c, 1, 53, 127
2, 105400, Note_on_c, 1, 61, 127
2, 105400, Note_on_c, 1, 73, 127
2, 105520, Note_off_c, 1, 73, 0
2, 105560, Note_on_c, 1, 73, 127
2, 105680, Note_off_c, 1, 73, 0
2, 105720, Note_on_c, 1, 44, 127
2, 105720, Note_off_c, 1, 46, 0
2, 105720, Note_on_c, 1, 59, 127
2, 105720, Note_off_c, 1, 61, 0
2, 105720, Note_on_c, 1, 63, 127
2, 105760, Note_on_c, 1, 41, 127
2, 105760, Note_off_c, 1, 44, 0
2, 105760, Note_off_c, 1, 59, 0
2, 105760, Note_off_c, 1, 63, 0
2, 105760, Note_on_c, 1, 68, 127
2, 105760, Note_on_c, 1, 72, 127
2, 105760, Note_on_c, 1, 74, 127
2, 106040, Note_off_c, 1, 41, 0
2, 106040, Note_off_c, 1, 53, 0
2, 106040, Note_off_c, 1, 68, 0
2, 106040, Note_off_c, 1, 72, 0
2, 106040, Note_off_c, 1, 74, 0
2, 106120, Note_on_c, 1, 27, 127
2, 106120, Note_on_c, 1, 34, 127
2, 106120, Note_on_c, 1, 39, 127
2, 106120, Note_on_c, 1, 70, 127
2, 106120, Note_on_c, 1, 82, 127
2, 106400, Note_off_c, 1, 27, 0
2, 106400, Note_off_c, 1, 34, 0
2, 106400, Note_off_c, 1, 39, 0
2, 106400, Note_off_c, 1, 70, 0
2, 106400, Note_off_c, 1, 82, 0
2, 106440, Note_on_c, 1, 27, 127
2, 106440, Note_on_c, 1, 34, 127
2, 106440, Note_on_c, 1, 39, 127
2, 106440, Note_on_c, 1, 70, 127
2, 106440, Note_on_c, 1, 82, 127
2, 106760, Note_off_c, 1, 27, 0
2, 106760, Note_off_c, 1, 34, 0
2, 106760, Note_off_c, 1, 39, 0
2, 106760, Note_off_c, 1, 70, 0
2, 106760, Note_off_c, 1, 82, 0
2, 106840, Note_on_c, 1, 39, 127
2, 106840, Note_on_c, 1, 43, 127
2, 106840, Note_on_c, 1, 51, 127
2, 107160, Note_off_c, 1, 39, 0
2, 107160, Note_off_c, 1, 43, 0
2, 107160, Note_off_c, 1, 51, 0
2, 107200, Note_on_c, 1, 37, 127
2, 107200, Note_on_c, 1, 41, 127
2, 107200, Note_on_c, 1, 49, 127
2, 107200, Note_on_c, 1, 65, 127
2, 107480, Note_off_c, 1, 37, 0
2, 107480, Note_off_c, 1, 41, 0
2, 107480, Note_off_c, 1, 49, 0
2, 107520, Note_on_c, 1, 37, 127
2, 107520, Note_on_c, 1, 41, 127
2, 107520, Note_on_c, 1, 49, 127
2, 107800, Note_off_c, 1, 37, 0
2, 107800, Note_off_c, 1, 41, 0
2, 107800, Note_off_c, 1, 49, 0
2, 107880, Note_on_c, 1, 41, 127
2, 107880, Note_on_c, 1, 44, 127
2, 107880, Note_on_c, 1, 53, 127
2, 108200, Note_off_c, 1, 41, 0
2, 108200, Note_off_c, 1, 44, 0
2, 108200, Note_off_c, 1, 53, 0
2, 108200, Note_off_c, 1, 65, 0
2, 108240, Note_on_c, 1, 32, 127
2, 108240, Note_on_c, 1, 36, 127
2, 108240, Note_on_c, 1, 44, 127
2, 108240, Note_on_c, 1, 68, 127
2, 108520, Note_off_c, 1, 32, 0
2, 108520, Note_off_c, 1, 36, 0
2, 108520, Note_off_c, 1, 44, 0
2, 108520, Note_on_c, 1, 66, 127
2, 108520, Note_off_c, 1, 68, 0
2, 108560, Note_off_c, 1, 66, 0
2, 108600, Note_on_c, 1, 36, 127
2, 108600, Note_on_c, 1, 39, 127
2, 108600, Note_on_c, 1, 48, 127
2, 108880, Note_off_c, 1, 36, 0
2, 108880, Note_off_c, 1, 39, 0
2, 108880, Note_off_c, 1, 48, 0
2, 108920, Note_on_c, 1, 36, 127
2, 108920, Note_on_c, 1, 39, 127
2, 108920, Note_on_c, 1, 48, 127
2, 108960, Note_off_c, 1, 36, 0
2, 108960, Note_off_c, 1, 39, 0
2, 108960, Note_off_c, 1, 48, 0
2, 109000, Note_on_c, 1, 37, 127
2, 109000, Note_on_c, 1, 41, 127
2, 109000, Note_on_c, 1, 49, 127
2, 109000, Note_on_c, 1, 65, 127
2, 109280, Note_off_c, 1, 37, 0
2, 109280, Note_off_c, 1, 41, 0
2, 109280, Note_off_c, 1, 49, 0
2, 109320, Note_on_c, 1, 41, 127
2, 109320, Note_on_c, 1, 44, 127
2, 109320, Note_on_c, 1, 53, 127
2, 109640, Note_off_c, 1, 41, 0
2, 109640, Note_off_c, 1, 44, 0
2, 109640, Note_off_c, 1, 53, 0
2, 109640, Note_off_c, 1, 65, 0
2, 109680, Note_on_c, 1, 40, 127
2, 109680, Note_on_c, 1, 54, 127
2, 109680, Note_on_c, 1, 69, 127
2, 109720, Note_off_c, 1, 40, 0
2, 109720, Note_on_c, 1, 47, 127
2, 109720, Note_on_c, 1, 51, 127
2, 109720, Note_on_c, 1, 59, 127
2, 109720, Note_off_c, 1, 69, 0
2, 109720, Note_on_c, 1, 79, 127
2, 109760, Note_on_c, 1, 40, 127
2, 109760, Note_off_c, 1, 47, 0
2, 109760, Note_off_c, 1, 51, 0
2, 109760, Note_off_c, 1, 59, 0
2, 109760, Note_on_c, 1, 61, 127
2, 109760, Note_on_c, 1, 69, 127
2, 109760, Note_on_c, 1, 73, 127
2, 109760, Note_off_c, 1, 79, 0
2, 109800, Note_off_c, 1, 40, 0
2, 109800, Note_off_c, 1, 54, 0
2, 109800, Note_off_c, 1, 61, 0
2, 109800, Note_on_c, 1, 63, 127
2, 109800, Note_on_c, 1, 67, 127
2, 109800, Note_off_c, 1, 69, 0
2, 109800, Note_off_c, 1, 73, 0
2, 109800, Note_on_c, 1, 75, 127
2, 109800, Note_on_c, 1, 94, 127
2, 109800, Note_on_c, 1, 99, 127
2, 109840, Note_on_c, 1, 60, 127
2, 109840, Note_off_c, 1, 63, 0
2, 109840, Note_off_c, 1, 67, 0
2, 109840, Note_on_c, 1, 74, 127
2, 109840, Note_off_c, 1, 75, 0
2, 109840, Note_on_c, 1, 78, 127
2, 109840, Note_on_c, 1, 81, 127
2, 109840, Note_on_c, 1, 86, 127
2, 109840, Note_off_c, 1, 94, 0
2, 109840, Note_off_c, 1, 99, 0
2, 109880, Note_on_c, 1, 50, 127
2, 109880, Note_on_c, 1, 52, 127
2, 109880, Note_on_c, 1, 57, 127
2, 109880, Note_off_c, 1, 60, 0
2, 109880, Note_on_c, 1, 61, 127
2, 109880, Note_on_c, 1, 69, 127
2, 109880, Note_off_c, 1, 74, 0
2, 109880, Note_off_c, 1, 78, 0
2, 109880, Note_off_c, 1, 81, 0
2, 109880, Note_off_c, 1, 86, 0
2, 109960, Note_on_c, 1, 37, 127
2, 109960, Note_on_c, 1, 47, 127
2, 109960, Note_off_c, 1, 50, 0
2, 109960, Note_off_c, 1, 52, 0
2, 109960, Note_off_c, 1, 57, 0
2, 109960, Note_off_c, 1, 61, 0
2, 109960, Note_off_c, 1, 69, 0
2, 110000, Note_off_c, 1, 37, 0
2, 110000, Note_off_c, 1, 47, 0
2, 110040, Note_on_c, 1, 48, 127
2, 110040, Note_on_c, 1, 58, 127
2, 110040, Note_on_c, 1, 64, 127
2, 110040, Note_on_c, 1, 74, 127
2, 110320, Note_off_c, 1, 48, 0
2, 110320, Note_off_c, 1, 58, 0
2, 110320, Note_off_c, 1, 64, 0
2, 110320, Note_off_c, 1, 74, 0
2, 110400, Note_on_c, 1, 41, 127
2, 110400, Note_on_c, 1, 57, 127
2, 110400, Note_on_c, 1, 65, 127
2, 110640, Note_off_c, 1, 57, 0
2, 110640, Note_off_c, 1, 65, 0
2, 110680, Note_off_c, 1, 41, 0
2, 110760, Note_on_c, 1, 29, 127
2, 110760, Note_on_c, 1, 57, 127
2, 110760, Note_on_c, 1, 60, 127
2, 110760, Note_on_c, 1, 69, 127
2, 110800, Note_off_c, 1, 29, 0
2, 110800, Note_on_c, 1, 41, 127
2, 110840, Note_on_c, 1, 29, 127
2, 110840, Note_off_c, 1, 41, 0
2, 110880, Note_off_c, 1, 29, 0
2, 110880, Note_on_c, 1, 41, 127
2, 110920, Note_on_c, 1, 29, 127
2, 110920, Note_off_c, 1, 41, 0
2, 110960, Note_off_c, 1, 29, 0
2, 110960, Note_on_c, 1, 41, 127
2, 111000, Note_off_c, 1, 41, 0
2, 111000, Note_off_c, 1, 57, 0
2, 111000, Note_off_c, 1, 60, 0
2, 111000, Note_off_c, 1, 69, 0
2, 111040, Note_on_c, 1, 29, 127
2, 111040, Note_on_c, 1, 57, 127
2, 111040, Note_on_c, 1, 60, 127
2, 111040, Note_on_c, 1, 69, 127
2, 111080, Note_off_c, 1, 29, 0
2, 111080, Note_on_c, 1, 65, 127
2, 111120, Note_on_c, 1, 48, 127
2, 111120, Note_off_c, 1, 69, 0
2, 111280, Note_off_c, 1, 48, 0
2, 111320, Note_on_c, 1, 48, 127
2, 111440, Note_off_c, 1, 48, 0
2, 111480, Note_on_c, 1, 48, 127
2, 111760, Note_on_c, 1, 38, 127
2, 111760, Note_off_c, 1, 48, 0
2, 111760, Note_on_c, 1, 50, 127
2, 111760, Note_off_c, 1, 65, 0
2, 111800, Note_off_c, 1, 38, 0
2, 111800, Note_off_c, 1, 50, 0
2, 111800, Note_off_c, 1, 57, 0
2, 111800, Note_off_c, 1, 60, 0
2, 111840, Note_on_c, 1, 40, 127
2, 111840, Note_on_c, 1, 48, 127
2, 111840, Note_on_c, 1, 52, 127
2, 111840, Note_on_c, 1, 67, 127
2, 111840, Note_on_c, 1, 70, 127
2, 111880, Note_off_c, 1, 67, 0
2, 111880, Note_on_c, 1, 72, 127
2, 112120, Note_off_c, 1, 70, 0
2, 112120, Note_off_c, 1, 72, 0
2, 112200, Note_off_c, 1, 40, 0
2, 112200, Note_off_c, 1, 48, 0
2, 112200, Note_off_c, 1, 52, 0
2, 112200, Note_on_c, 1, 53, 127
2, 112200, Note_on_c, 1, 57, 127
2, 112200, Note_on_c, 1, 64, 127
2, 112200, Note_on_c, 1, 73, 127
2, 112440, Note_off_c, 1, 64, 0
2, 112440, Note_off_c, 1, 73, 0
2, 112480, Note_off_c, 1, 53, 0
2, 112480, Note_off_c, 1, 57, 0
2, 112520, Note_on_c, 1, 48, 127
2, 112520, Note_on_c, 1, 57, 127
2, 112520, Note_on_c, 1, 72, 127
2, 112720, Note_on_c, 1, 66, 127
2, 112840, Note_off_c, 1, 57, 0
2, 112840, Note_off_c, 1, 66, 0
2, 112840, Note_off_c, 1, 72, 0
2, 112880, Note_on_c, 1, 58, 127
2, 112880, Note_on_c, 1, 67, 127
2, 113080, Note_off_c, 1, 48, 0
2, 113080, Note_off_c, 1, 58, 0
2, 113080, Note_off_c, 1, 67, 0
2, 113120, Note_on_c, 1, 48, 127
2, 113120, Note_on_c, 1, 58, 127
2, 113120, Note_on_c, 1, 67, 127
2, 113240, Note_off_c, 1, 48, 0
2, 113240, Note_off_c, 1, 58, 0
2, 113240, Note_off_c, 1, 67, 0
2, 113280, Note_on_c, 1, 48, 127
2, 113280, Note_on_c, 1, 58, 127
2, 113280, Note_on_c, 1, 64, 127
2, 113280, Note_on_c, 1, 72, 127
2, 113600, Note_off_c, 1, 48, 0
2, 113600, Note_off_c, 1, 58, 0
2, 113600, Note_off_c, 1, 64, 0
2, 113600, Note_off_c, 1, 72, 0
2, 113640, Note_on_c, 1, 41, 127
2, 113640, Note_on_c, 1, 53, 127
2, 113640, Note_on_c, 1, 68, 127
2, 113640, Note_on_c, 1, 72, 127
2, 113920, Note_off_c, 1, 41, 0
2, 113920, Note_off_c, 1, 53, 0
2, 113920, Note_off_c, 1, 68, 0
2, 113920, Note_off_c, 1, 72, 0
2, 113960, Note_on_c, 1, 41, 127
2, 113960, Note_on_c, 1, 53, 127
2, 113960, Note_on_c, 1, 68, 127
2, 113960, Note_on_c, 1, 72, 127
2, 114280, Note_off_c, 1, 41, 0
2, 114280, Note_off_c, 1, 53, 0
2, 114280, Note_off_c, 1, 68, 0
2, 114280, Note_off_c, 1, 72, 0
2, 114320, Note_on_c, 1, 41, 127
2, 114320, Note_on_c, 1, 53, 127
2, 114320, Note_on_c, 1, 68, 127
2, 114320, Note_on_c, 1, 72, 127
2, 114600, Note_off_c, 1, 41, 0
2, 114600, Note_off_c, 1, 53, 0
2, 114600, Note_off_c, 1, 68, 0
2, 114600, Note_off_c, 1, 72, 0
2, 114680, Note_on_c, 1, 41, 127
2, 114680, Note_on_c, 1, 53, 127
2, 114680, Note_on_c, 1, 68, 127
2, 114680, Note_on_c, 1, 72, 127
2, 114960, Note_off_c, 1, 41, 0
2, 114960, Note_off_c, 1, 53, 0
2, 114960, Note_off_c, 1, 68, 0
2, 114960, Note_off_c, 1, 72, 0
2, 115000, Note_on_c, 1, 41, 127
2, 115000, Note_on_c, 1, 53, 127
2, 115000, Note_on_c, 1, 68, 127
2, 115000, Note_on_c, 1, 72, 127
2, 115200, Note_off_c, 1, 41, 0
2, 115200, Note_off_c, 1, 53, 0
2, 115200, Note_off_c, 1, 68, 0
2, 115200, Note_on_c, 1, 70, 127
2, 115200, Note_off_c, 1, 72, 0
2, 115200, Note_on_c, 1, 74, 127
2, 115200, Note_on_c, 1, 79, 127
2, 115200, Note_on_c, 1, 82, 127
2, 115200, Note_on_c, 1, 86, 127
2, 115200, Note_on_c, 1, 91, 127
2, 115240, Note_off_c, 1, 70, 0
2, 115240, Note_off_c, 1, 74, 0
2, 115240, Note_off_c, 1, 79, 0
2, 115240, Note_off_c, 1, 82, 0
2, 115240, Note_off_c, 1, 86, 0
2, 115240, Note_off_c, 1, 91, 0
2, 115280, Note_on_c, 1, 70, 127
2, 115280, Note_on_c, 1, 74, 127
2, 115280, Note_on_c, 1, 79, 127
2, 115280, Note_on_c, 1, 82, 127
2, 115280, Note_on_c, 1, 86, 127
2, 115280, Note_on_c, 1, 91, 127
2, 115320, Note_off_c, 1, 70, 0
2, 115320, Note_off_c, 1, 74, 0
2, 115320, Note_off_c, 1, 79, 0
2, 115320, Note_off_c, 1, 82, 0
2, 115320, Note_off_c, 1, 86, 0
2, 115320, Note_off_c, 1, 91, 0
2, 115400, Note_on_c, 1, 42, 127
2, 115400, Note_on_c, 1, 48, 127
2, 115400, Note_on_c, 1, 54, 127
2, 115400, Note_on_c, 1, 81, 127
2, 115400, Note_on_c, 1, 87, 127
2, 115400, Note_on_c, 1, 93, 127
2, 115680, Note_off_c, 1, 42, 0
2, 115680, Note_off_c, 1, 48, 0
2, 115680, Note_off_c, 1, 54, 0
2, 115680, Note_off_c, 1, 81, 0
2, 115680, Note_off_c, 1, 87, 0
2, 115680, Note_off_c, 1, 93, 0
2, 115760, Note_on_c, 1, 59, 127
2, 115760, Note_on_c, 1, 67, 127
2, 115760, Note_on_c, 1, 75, 127
2, 115760, Note_on_c, 1, 86, 127
2, 116400, Note_off_c, 1, 59, 0
2, 116400, Note_off_c, 1, 67, 0
2, 116400, Note_off_c, 1, 75, 0
2, 116400, Note_off_c, 1, 86, 0
2, 116440, Note_on_c, 1, 48, 127
2, 116440, Note_on_c, 1, 55, 127
2, 116440, Note_on_c, 1, 72, 127
2, 116440, Note_on_c, 1, 76, 127
2, 116440, Note_on_c, 1, 82, 127
2, 116440, Note_on_c, 1, 84, 127
2, 116520, Note_on_c, 1, 45, 127
2, 116520, Note_off_c, 1, 48, 0
2, 116520, Note_on_c, 1, 52, 127
2, 116520, Note_off_c, 1, 55, 0
2, 116520, Note_on_c, 1, 61, 127
2, 116520, Note_off_c, 1, 72, 0
2, 116520, Note_off_c, 1, 76, 0
2, 116520, Note_on_c, 1, 79, 127
2, 116520, Note_on_c, 1, 81, 127
2, 116520, Note_off_c, 1, 82, 0
2, 116520, Note_off_c, 1, 84, 0
2, 116520, Note_on_c, 1, 93, 127
2, 116560, Note_on_c, 1, 33, 127
2, 116560, Note_on_c, 1, 40, 127
2, 116560, Note_off_c, 1, 45, 0
2, 116560, Note_off_c, 1, 52, 0
2, 116560, Note_off_c, 1, 61, 0
2, 116560, Note_on_c, 1, 64, 127
2, 116560, Note_on_c, 1, 66, 127
2, 116560, Note_on_c, 1, 69, 127
2, 116560, Note_on_c, 1, 72, 127
2, 116560, Note_off_c, 1, 79, 0
2, 116560, Note_off_c, 1, 81, 0
2, 116560, Note_off_c, 1, 93, 0
2, 116600, Note_off_c, 1, 33, 0
2, 116600, Note_off_c, 1, 40, 0
2, 116600, Note_on_c, 1, 48, 127
2, 116600, Note_on_c, 1, 57, 127
2, 116600, Note_off_c, 1, 64, 0
2, 116600, Note_off_c, 1, 66, 0
2, 116600, Note_off_c, 1, 69, 0
2, 116600, Note_on_c, 1, 76, 127
2, 116600, Note_on_c, 1, 82, 127
2, 116600, Note_on_c, 1, 84, 127
2, 116720, Note_off_c, 1, 48, 0
2, 116720, Note_off_c, 1, 57, 0
2, 116720, Note_off_c, 1, 72, 0
2, 116720, Note_off_c, 1, 76, 0
2, 116720, Note_off_c, 1, 82, 0
2, 116720, Note_off_c, 1, 84, 0
2, 116800, Note_on_c, 1, 32, 127
2, 116800, Note_on_c, 1, 44, 127
2, 116800, Note_on_c, 1, 65, 127
2, 116800, Note_on_c, 1, 77, 127
2, 116920, Note_off_c, 1, 77, 0
2, 116960, Note_off_c, 1, 65, 0
2, 116960, Note_on_c, 1, 71, 127
2, 116960, Note_on_c, 1, 83, 127
2, 117080, Note_off_c, 1, 32, 0
2, 117080, Note_off_c, 1, 44, 0
2, 117080, Note_off_c, 1, 71, 0
2, 117080, Note_off_c, 1, 83, 0
2, 117120, Note_on_c, 1, 48, 127
2, 117120, Note_on_c, 1, 60, 127
2, 117120, Note_on_c, 1, 76, 127
2, 117120, Note_on_c, 1, 88, 127
2, 117440, Note_off_c, 1, 48, 0
2, 117440, Note_off_c, 1, 60, 0
2, 117440, Note_off_c, 1, 76, 0
2, 117440, Note_off_c, 1, 88, 0
2, 117520, Note_on_c, 1, 41, 127
2, 117520, Note_on_c, 1, 53, 127
2, 117520, Note_on_c, 1, 69, 127
2, 117520, Note_on_c, 1, 72, 127
2, 117520, Note_on_c, 1, 81, 127
2, 117800, Note_off_c, 1, 41, 0
2, 117800, Note_off_c, 1, 53, 0
2, 117800, Note_off_c, 1, 69, 0
2, 117800, Note_off_c, 1, 72, 0
2, 117800, Note_off_c, 1, 81, 0
2, 117880, Note_on_c, 1, 36, 127
2, 117880, Note_on_c, 1, 48, 127
2, 117880, Note_on_c, 1, 68, 127
2, 117880, Note_on_c, 1, 72, 127
2, 117880, Note_on_c, 1, 75, 127
2, 117880, Note_on_c, 1, 80, 127
2, 118160, Note_off_c, 1, 36, 0
2, 118160, Note_off_c, 1, 48, 0
2, 118160, Note_off_c, 1, 68, 0
2, 118160, Note_off_c, 1, 72, 0
2, 118160, Note_off_c, 1, 75, 0
2, 118160, Note_off_c, 1, 80, 0
2, 118200, Note_on_c, 1, 55, 127
2, 118200, Note_on_c, 1, 67, 127
2, 118200, Note_on_c, 1, 73, 127
2, 118200, Note_on_c, 1, 82, 127
2, 118200, Note_on_c, 1, 85, 127
2, 118480, Note_off_c, 1, 55, 0
2, 118480, Note_off_c, 1, 67, 0
2, 118480, Note_off_c, 1, 73, 0
2, 118480, Note_off_c, 1, 82, 0
2, 118480, Note_off_c, 1, 85, 0
2, 118560, Note_on_c, 1, 61, 127
2, 118560, Note_on_c, 1, 70, 127
2, 118560, Note_on_c, 1, 77, 127
2, 118560, Note_on_c, 1, 82, 127
2, 118560, Note_on_c, 1, 89, 127
2, 118840, Note_off_c, 1, 61, 0
2, 118840, Note_off_c, 1, 70, 0
2, 118840, Note_off_c, 1, 77, 0
2, 118840, Note_off_c, 1, 82, 0
2, 118840, Note_off_c, 1, 89, 0
2, 118920, Note_on_c, 1, 61, 127
2, 118920, Note_on_c, 1, 70, 127
2, 118920, Note_on_c, 1, 77, 127
2, 118920, Note_on_c, 1, 89, 127
2, 119200, Note_off_c, 1, 61, 0
2, 119200, Note_off_c, 1, 70, 0
2, 119200, Note_off_c, 1, 77, 0
2, 119200, Note_off_c, 1, 89, 0
2, 119280, Note_on_c, 1, 61, 127
2, 119280, Note_on_c, 1, 70, 127
2, 119280, Note_on_c, 1, 77, 127
2, 119280, Note_on_c, 1, 89, 127
2, 119560, Note_off_c, 1, 61, 0
2, 119560, Note_off_c, 1, 70, 0
2, 119560, Note_off_c, 1, 77, 0
2, 119560, Note_off_c, 1, 89, 0
2, 119680, Note_on_c, 1, 61, 127
2, 119680, Note_on_c, 1, 70, 127
2, 119680, Note_on_c, 1, 77, 127
2, 119680, Note_on_c, 1, 89, 127
2, 119800, Note_off_c, 1, 61, 0
2, 119800, Note_off_c, 1, 70, 0
2, 119800, Note_on_c, 1, 72, 127
2, 119800, Note_on_c, 1, 93, 127
2, 119840, Note_on_c, 1, 61, 127
2, 119840, Note_on_c, 1, 70, 127
2, 119840, Note_off_c, 1, 72, 0
2, 119840, Note_off_c, 1, 93, 0
2, 119960, Note_off_c, 1, 61, 0
2, 119960, Note_off_c, 1, 70, 0
2, 119960, Note_off_c, 1, 77, 0
2, 119960, Note_off_c, 1, 89, 0
2, 120040, End_track
3, 0, Start_track
3, 0, Title_t, "MIDI"
3, 1536, End_track
0, 0, End_of_file
