0, 0, Header, 1, 3, 192
1, 0, Start_track
1, 0, Time_signature, 4, 2, 24, 8
1, 0, Tempo, 500000
1, 120040, End_track
2, 0, Start_track
2, 0, Text_t, "random instrument: random person i dunno whatev"
2, 0, Title_t, "Track 1"
2, 0, Note_on_c, 1, 40, 127
2, 0, Note_on_c, 1, 48, 127
2, 0, Note_on_c, 1, 56, 127
2, 0, Note_on_c, 1, 60, 127
2, 160, Note_off_c, 1, 40, 0
2, 160, Note_off_c, 1, 48, 0
2, 160, Note_off_c, 1, 56, 0
2, 160, Note_off_c, 1, 60, 0
2, 5240, Note_on_c, 1, 43, 127
2, 5240, Note_on_c, 1, 50, 127
2, 5240, Note_on_c, 1, 60, 127
2, 5240, Note_on_c, 1, 62, 127
2, 5240, Note_on_c, 1, 69, 127
2, 5480, Note_off_c, 1, 43, 0
2, 5480, Note_off_c, 1, 50, 0
2, 5480, Note_off_c, 1, 60, 0
2, 5480, Note_off_c, 1, 62, 0
2, 5480, Note_off_c, 1, 69, 0
2, 14680, Note_on_c, 1, 56, 127
2, 14680, Note_on_c, 1, 71, 127
2, 14680, Note_on_c, 1, 83, 127
2, 15240, Note_off_c, 1, 56, 0
2, 15240, Note_off_c, 1, 71, 0
2, 15240, Note_off_c, 1, 83, 0
2, 15280, Note_on_c, 1, 57, 127
2, 15280, Note_on_c, 1, 66, 127
2, 15280, Note_on_c, 1, 69, 127
2, 15280, Note_on_c, 1, 78, 127
2, 15960, Note_off_c, 1, 66, 0
2, 16000, Note_on_c, 1, 66, 127
2, 16000, Note_on_c, 1, 76, 127
2, 16000, Note_off_c, 1, 78, 0
2, 16080, Note_on_c, 1, 60, 127
2, 16080, Note_on_c, 1, 63, 127
2, 16080, Note_off_c, 1, 66, 0
2, 16080, Note_off_c, 1, 69, 0
2, 16080, Note_on_c, 1, 72, 127
2, 16080, Note_off_c, 1, 76, 0
2, 16080, Note_on_c, 1, 78, 127
2, 16080, Note_on_c, 1, 83, 127
2, 16120, Note_off_c, 1, 57, 0
2, 16120, Note_off_c, 1, 60, 0
2, 16120, Note_off_c, 1, 63, 0
2, 16120, Note_off_c, 1, 72, 0
2, 16120, Note_off_c, 1, 78, 0
2, 16120, Note_off_c, 1, 83, 0
2, 16160, Note_on_c, 1, 57, 127
2, 16160, Note_on_c, 1, 69, 127
2, 16960, Note_off_c, 1, 57, 0
2, 16960, Note_off_c, 1, 69, 0
2, 17000, Note_on_c, 1, 57, 127
2, 17000, Note_on_c, 1, 69, 127
2, 17680, Note_off_c, 1, 57, 0
2, 17680, Note_off_c, 1, 69, 0
2, 17720, Note_on_c, 1, 74, 127
2, 17720, Note_on_c, 1, 78, 127
2, 18480, Note_on_c, 1, 57, 127
2, 18840, Note_off_c, 1, 57, 0
2, 18880, Note_on_c, 1, 66, 127
2, 19200, Note_off_c, 1, 66, 0
2, 19200, Note_off_c, 1, 74, 0
2, 19200, Note_off_c, 1, 78, 0
2, 19240, Note_on_c, 1, 74, 127
2, 19240, Note_on_c, 1, 78, 127
2, 19680, Note_on_c, 1, 57, 127
2, 20000, Note_off_c, 1, 57, 0
2, 20040, Note_on_c, 1, 66, 127
2, 20360, Note_off_c, 1, 66, 0
2, 20400, Note_on_c, 1, 69, 127
2, 20760, Note_off_c, 1, 69, 0
2, 20800, Note_on_c, 1, 57, 127
2, 21120, Note_off_c, 1, 57, 0
2, 21160, Note_on_c, 1, 54, 127
2, 21400, Note_off_c, 1, 54, 0
2, 21400, Note_off_c, 1, 74, 0
2, 21400, Note_off_c, 1, 78, 0
2, 21440, Note_on_c, 1, 54, 127
2, 21440, Note_on_c, 1, 74, 127
2, 21440, Note_on_c, 1, 78, 127
2, 21520, Note_off_c, 1, 54, 0
2, 21560, Note_on_c, 1, 45, 127
2, 21880, Note_off_c, 1, 45, 0
2, 21920, Note_on_c, 1, 38, 127
2, 22280, Note_off_c, 1, 38, 0
2, 22680, Note_on_c, 1, 57, 127
2, 23000, Note_off_c, 1, 57, 0
2, 23040, Note_on_c, 1, 54, 127
2, 23360, Note_off_c, 1, 54, 0
2, 23400, Note_on_c, 1, 59, 127
2, 23720, Note_off_c, 1, 59, 0
2, 23720, Note_off_c, 1, 74, 0
2, 23720, Note_off_c, 1, 78, 0
2, 23760, Note_on_c, 1, 59, 127
2, 23760, Note_on_c, 1, 74, 127
2, 23760, Note_on_c, 1, 78, 127
2, 23800, Note_off_c, 1, 59, 0
2, 23800, Note_off_c, 1, 78, 0
2, 23840, Note_on_c, 1, 64, 127
2, 23840, Note_on_c, 1, 71, 127
2, 24160, Note_off_c, 1, 64, 0
2, 24200, Note_on_c, 1, 62, 127
2, 24560, Note_off_c, 1, 62, 0
2, 24920, Note_off_c, 1, 71, 0
2, 24920, Note_off_c, 1, 74, 0
2, 24960, Note_on_c, 1, 69, 127
2, 24960, Note_on_c, 1, 73, 127
2, 25680, Note_off_c, 1, 69, 0
2, 25680, Note_off_c, 1, 73, 0
2, 25720, Note_on_c, 1, 69, 127
2, 25720, Note_on_c, 1, 73, 127
2, 26000, Note_off_c, 1, 69, 0
2, 26000, Note_off_c, 1, 73, 0
2, 26040, Note_on_c, 1, 69, 127
2, 26040, Note_on_c, 1, 73, 127
2, 26120, Note_on_c, 1, 57, 127
2, 26840, Note_off_c, 1, 57, 0
2, 26840, Note_off_c, 1, 69, 0
2, 26840, Note_off_c, 1, 73, 0
2, 30680, Note_on_c, 1, 41, 127
2, 30680, Note_on_c, 1, 53, 127
2, 30680, Note_on_c, 1, 65, 127
2, 31400, Note_off_c, 1, 41, 0
2, 31400, Note_off_c, 1, 53, 0
2, 31400, Note_off_c, 1, 65, 0
2, 31440, Note_on_c, 1, 34, 127
2, 31440, Note_on_c, 1, 46, 127
2, 31440, Note_on_c, 1, 58, 127
2, 31440, Note_on_c, 1, 70, 127
2, 32200, Note_off_c, 1, 34, 0
2, 32200, Note_off_c, 1, 46, 0
2, 32200, Note_off_c, 1, 58, 0
2, 32200, Note_off_c, 1, 70, 0
2, 32240, Note_on_c, 1, 31, 127
2, 32240, Note_on_c, 1, 43, 127
2, 32240, Note_on_c, 1, 55, 127
2, 32240, Note_on_c, 1, 67, 127
2, 32840, Note_off_c, 1, 31, 0
2, 32840, Note_off_c, 1, 43, 0
2, 32840, Note_off_c, 1, 55, 0
2, 32840, Note_off_c, 1, 67, 0
2, 32880, Note_on_c, 1, 31, 127
2, 32880, Note_on_c, 1, 43, 127
2, 32880, Note_on_c, 1, 55, 127
2, 32880, Note_on_c, 1, 67, 127
2, 33040, Note_off_c, 1, 31, 0
2, 33040, Note_off_c, 1, 43, 0
2, 33040, Note_off_c, 1, 55, 0
2, 33040, Note_off_c, 1, 67, 0
2, 36800, Note_on_c, 1, 45, 127
2, 36800, Note_on_c, 1, 49, 127
2, 37160, Note_off_c, 1, 49, 0
2, 37520, Note_off_c, 1, 45, 0
2, 37560, Note_on_c, 1, 47, 127
2, 37560, Note_on_c, 1, 51, 127
2, 37560, Note_on_c, 1, 54, 127
2, 37560, Note_on_c, 1, 59, 127
2, 38320, Note_off_c, 1, 47, 0
2, 38320, Note_off_c, 1, 51, 0
2, 38320, Note_off_c, 1, 54, 0
2, 38320, Note_off_c, 1, 59, 0
2, 38360, Note_on_c, 1, 47, 127
2, 38360, Note_on_c, 1, 51, 127
2, 38360, Note_on_c, 1, 54, 127
2, 38360, Note_on_c, 1, 59, 127
2, 38680, Note_off_c, 1, 47, 0
2, 38680, Note_off_c, 1, 51, 0
2, 38680, Note_off_c, 1, 54, 0
2, 38680, Note_off_c, 1, 59, 0
2, 38720, Note_on_c, 1, 47, 127
2, 38720, Note_on_c, 1, 63, 127
2, 38720, Note_on_c, 1, 66, 127
2, 39240, Note_off_c, 1, 47, 0
2, 39280, Note_on_c, 1, 59, 127
2, 39800, Note_off_c, 1, 59, 0
2, 39800, Note_off_c, 1, 63, 0
2, 39800, Note_off_c, 1, 66, 0
2, 39840, Note_on_c, 1, 40, 127
2, 39840, Note_on_c, 1, 52, 127
2, 39840, Note_on_c, 1, 63, 127
2, 39840, Note_on_c, 1, 66, 127
2, 39840, Note_on_c, 1, 69, 127
2, 40440, Note_off_c, 1, 40, 0
2, 40440, Note_off_c, 1, 52, 0
2, 40440, Note_off_c, 1, 63, 0
2, 40440, Note_off_c, 1, 66, 0
2, 40440, Note_off_c, 1, 69, 0
2, 40480, Note_on_c, 1, 40, 127
2, 40480, Note_on_c, 1, 52, 127
2, 40480, Note_on_c, 1, 63, 127
2, 40480, Note_on_c, 1, 66, 127
2, 40480, Note_on_c, 1, 69, 127
2, 41360, Note_off_c, 1, 40, 0
2, 41360, Note_off_c, 1, 52, 0
2, 41360, Note_off_c, 1, 63, 0
2, 41360, Note_off_c, 1, 66, 0
2, 41360, Note_off_c, 1, 69, 0
2, 41400, Note_on_c, 1, 40, 127
2, 41720, Note_off_c, 1, 40, 0
2, 41760, Note_on_c, 1, 37, 127
2, 42080, Note_off_c, 1, 37, 0
2, 51360, Note_on_c, 1, 60, 127
2, 51360, Note_on_c, 1, 72, 127
2, 51680, Note_off_c, 1, 60, 0
2, 51680, Note_off_c, 1, 72, 0
2, 51720, Note_on_c, 1, 58, 127
2, 51720, Note_on_c, 1, 70, 127
2, 52040, Note_off_c, 1, 58, 0
2, 52040, Note_off_c, 1, 70, 0
2, 52080, Note_on_c, 1, 55, 127
2, 52080, Note_on_c, 1, 67, 127
2, 52760, Note_off_c, 1, 55, 0
2, 52760, Note_off_c, 1, 67, 0
2, 52800, Note_on_c, 1, 53, 127
2, 52800, Note_on_c, 1, 65, 127
2, 53120, Note_off_c, 1, 53, 0
2, 53120, Note_off_c, 1, 65, 0
2, 53160, Note_on_c, 1, 55, 127
2, 53160, Note_on_c, 1, 67, 127
2, 53480, Note_off_c, 1, 55, 0
2, 53480, Note_off_c, 1, 67, 0
2, 53520, Note_on_c, 1, 52, 127
2, 53520, Note_on_c, 1, 64, 127
2, 53840, Note_off_c, 1, 52, 0
2, 53840, Note_off_c, 1, 64, 0
2, 53880, Note_on_c, 1, 53, 127
2, 53880, Note_on_c, 1, 65, 127
2, 54000, Note_off_c, 1, 53, 0
2, 54000, Note_off_c, 1, 65, 0
2, 54040, Note_on_c, 1, 53, 127
2, 54040, Note_on_c, 1, 65, 127
2, 54200, Note_off_c, 1, 53, 0
2, 54200, Note_off_c, 1, 65, 0
2, 54240, Note_on_c, 1, 52, 127
2, 54240, Note_on_c, 1, 64, 127
2, 54560, Note_off_c, 1, 52, 0
2, 54560, Note_off_c, 1, 64, 0
2, 54600, Note_on_c, 1, 51, 127
2, 54600, Note_on_c, 1, 63, 127
2, 54920, Note_off_c, 1, 51, 0
2, 54920, Note_off_c, 1, 63, 0
2, 54960, Note_on_c, 1, 50, 127
2, 54960, Note_on_c, 1, 62, 127
2, 55280, Note_off_c, 1, 50, 0
2, 55280, Note_off_c, 1, 62, 0
2, 55320, Note_on_c, 1, 53, 127
2, 55320, Note_on_c, 1, 65, 127
2, 55640, Note_off_c, 1, 53, 0
2, 55640, Note_off_c, 1, 65, 0
2, 55680, Note_on_c, 1, 51, 127
2, 55680, Note_on_c, 1, 63, 127
2, 56000, Note_off_c, 1, 51, 0
2, 56000, Note_off_c, 1, 63, 0
2, 56040, Note_on_c, 1, 48, 127
2, 56040, Note_on_c, 1, 60, 127
2, 56160, Note_off_c, 1, 48, 0
2, 56160, Note_off_c, 1, 60, 0
2, 56200, Note_on_c, 1, 48, 127
2, 56200, Note_on_c, 1, 60, 127
2, 56400, Note_off_c, 1, 48, 0
2, 56400, Note_off_c, 1, 60, 0
2, 56440, Note_on_c, 1, 50, 127
2, 56440, Note_on_c, 1, 62, 127
2, 56760, Note_off_c, 1, 50, 0
2, 56760, Note_off_c, 1, 62, 0
2, 56800, Note_on_c, 1, 48, 127
2, 56800, Note_on_c, 1, 60, 127
2, 57120, Note_off_c, 1, 48, 0
2, 57120, Note_off_c, 1, 60, 0
2, 57160, Note_on_c, 1, 50, 127
2, 57160, Note_on_c, 1, 62, 127
2, 57480, Note_off_c, 1, 50, 0
2, 57480, Note_off_c, 1, 62, 0
2, 57520, Note_on_c, 1, 48, 127
2, 57520, Note_on_c, 1, 60, 127
2, 57840, Note_off_c, 1, 48, 0
2, 57840, Note_off_c, 1, 60, 0
2, 57880, Note_on_c, 1, 43, 127
2, 57880, Note_on_c, 1, 55, 127
2, 58440, Note_off_c, 1, 43, 0
2, 58440, Note_off_c, 1, 55, 0
2, 58480, Note_on_c, 1, 43, 127
2, 58480, Note_on_c, 1, 55, 127
2, 58600, Note_off_c, 1, 43, 0
2, 58600, Note_off_c, 1, 55, 0
2, 58640, Note_on_c, 1, 41, 127
2, 58640, Note_on_c, 1, 53, 127
2, 58920, Note_off_c, 1, 41, 0
2, 58920, Note_off_c, 1, 53, 0
2, 59000, Note_on_c, 1, 41, 127
2, 59000, Note_on_c, 1, 53, 127
2, 59280, Note_off_c, 1, 41, 0
2, 59280, Note_off_c, 1, 53, 0
2, 59360, Note_on_c, 1, 41, 127
2, 59360, Note_on_c, 1, 53, 127
2, 59680, Note_off_c, 1, 41, 0
2, 59680, Note_off_c, 1, 53, 0
2, 59720, Note_on_c, 1, 57, 127
2, 59720, Note_on_c, 1, 60, 127
2, 60040, Note_off_c, 1, 57, 0
2, 60040, Note_off_c, 1, 60, 0
2, 60120, Note_on_c, 1, 43, 127
2, 60120, Note_on_c, 1, 50, 127
2, 60120, Note_on_c, 1, 53, 127
2, 60120, Note_on_c, 1, 59, 127
2, 60600, Note_off_c, 1, 43, 0
2, 60600, Note_off_c, 1, 50, 0
2, 60600, Note_off_c, 1, 53, 0
2, 60600, Note_off_c, 1, 59, 0
2, 60640, Note_on_c, 1, 43, 127
2, 60640, Note_on_c, 1, 50, 127
2, 60640, Note_on_c, 1, 53, 127
2, 60640, Note_on_c, 1, 59, 127
2, 60840, Note_off_c, 1, 43, 0
2, 60840, Note_off_c, 1, 50, 0
2, 60840, Note_off_c, 1, 53, 0
2, 60840, Note_off_c, 1, 59, 0
2, 67200, Note_on_c, 1, 52, 127
2, 67880, Note_off_c, 1, 52, 0
2, 67920, Note_on_c, 1, 49, 127
2, 68240, Note_off_c, 1, 49, 0
2, 68280, Note_on_c, 1, 52, 127
2, 68640, Note_off_c, 1, 52, 0
2, 68680, Note_on_c, 1, 57, 127
2, 69000, Note_off_c, 1, 57, 0
2, 69040, Note_on_c, 1, 52, 127
2, 69360, Note_off_c, 1, 52, 0
2, 69440, Note_on_c, 1, 51, 127
2, 69760, Note_off_c, 1, 51, 0
2, 69800, Note_on_c, 1, 54, 127
2, 70160, Note_off_c, 1, 54, 0
2, 72720, Note_on_c, 1, 69, 127
2, 72720, Note_on_c, 1, 81, 127
2, 73040, Note_off_c, 1, 69, 0
2, 73040, Note_off_c, 1, 81, 0
2, 73080, Note_on_c, 1, 68, 127
2, 73080, Note_on_c, 1, 80, 127
2, 73400, Note_off_c, 1, 68, 0
2, 73400, Note_off_c, 1, 80, 0
2, 73440, Note_on_c, 1, 64, 127
2, 73440, Note_on_c, 1, 76, 127
2, 73760, Note_off_c, 1, 64, 0
2, 73760, Note_off_c, 1, 76, 0
2, 73800, Note_on_c, 1, 61, 127
2, 73800, Note_on_c, 1, 73, 127
2, 74120, Note_off_c, 1, 61, 0
2, 74120, Note_off_c, 1, 73, 0
2, 74160, Note_on_c, 1, 64, 127
2, 74160, Note_on_c, 1, 76, 127
2, 74480, Note_off_c, 1, 64, 0
2, 74480, Note_off_c, 1, 76, 0
2, 74520, Note_on_c, 1, 61, 127
2, 74520, Note_on_c, 1, 73, 127
2, 74840, Note_off_c, 1, 61, 0
2, 74840, Note_off_c, 1, 73, 0
2, 74920, Note_on_c, 1, 62, 127
2, 74920, Note_on_c, 1, 74, 127
2, 75240, Note_off_c, 1, 62, 0
2, 75240, Note_off_c, 1, 74, 0
2, 75280, Note_on_c, 1, 68, 127
2, 75280, Note_on_c, 1, 80, 127
2, 75640, Note_off_c, 1, 68, 0
2, 75640, Note_off_c, 1, 80, 0
2, 75680, Note_on_c, 1, 65, 127
2, 75680, Note_on_c, 1, 77, 127
2, 76360, Note_off_c, 1, 65, 0
2, 76360, Note_off_c, 1, 77, 0
2, 76400, Note_on_c, 1, 61, 127
2, 76400, Note_on_c, 1, 73, 127
2, 76720, Note_off_c, 1, 61, 0
2, 76720, Note_off_c, 1, 73, 0
2, 76760, Note_on_c, 1, 60, 127
2, 76760, Note_on_c, 1, 72, 127
2, 77080, Note_off_c, 1, 60, 0
2, 77080, Note_off_c, 1, 72, 0
2, 77160, Note_on_c, 1, 57, 127
2, 77160, Note_on_c, 1, 69, 127
2, 77480, Note_off_c, 1, 57, 0
2, 77480, Note_off_c, 1, 69, 0
2, 77520, Note_on_c, 1, 59, 127
2, 77520, Note_on_c, 1, 71, 127
2, 77840, Note_off_c, 1, 59, 0
2, 77840, Note_off_c, 1, 71, 0
2, 77880, Note_on_c, 1, 57, 127
2, 77880, Note_on_c, 1, 69, 127
2, 78200, Note_off_c, 1, 57, 0
2, 78200, Note_off_c, 1, 69, 0
2, 78240, Note_on_c, 1, 53, 127
2, 78240, Note_on_c, 1, 65, 127
2, 78560, Note_off_c, 1, 53, 0
2, 78560, Note_off_c, 1, 65, 0
2, 78600, Note_on_c, 1, 55, 127
2, 78600, Note_on_c, 1, 67, 127
2, 78920, Note_off_c, 1, 55, 0
2, 78920, Note_off_c, 1, 67, 0
2, 78960, Note_on_c, 1, 57, 127
2, 78960, Note_on_c, 1, 69, 127
2, 79280, Note_off_c, 1, 57, 0
2, 79280, Note_off_c, 1, 69, 0
2, 79360, Note_on_c, 1, 53, 127
2, 79360, Note_on_c, 1, 65, 127
2, 79680, Note_off_c, 1, 53, 0
2, 79680, Note_off_c, 1, 65, 0
2, 79720, Note_on_c, 1, 55, 127
2, 79720, Note_on_c, 1, 67, 127
2, 80040, Note_off_c, 1, 55, 0
2, 80040, Note_off_c, 1, 67, 0
2, 80080, Note_on_c, 1, 50, 127
2, 80080, Note_on_c, 1, 62, 127
2, 80400, Note_off_c, 1, 50, 0
2, 80400, Note_off_c, 1, 62, 0
2, 80440, Note_on_c, 1, 49, 127
2, 80440, Note_on_c, 1, 61, 127
2, 80760, Note_off_c, 1, 49, 0
2, 80760, Note_off_c, 1, 61, 0
2, 80800, Note_on_c, 1, 50, 127
2, 80800, Note_on_c, 1, 62, 127
2, 81120, Note_off_c, 1, 50, 0
2, 81120, Note_off_c, 1, 62, 0
2, 81160, Note_on_c, 1, 49, 127
2, 81160, Note_on_c, 1, 61, 127
2, 81480, Note_off_c, 1, 49, 0
2, 81480, Note_off_c, 1, 61, 0
2, 81560, Note_on_c, 1, 50, 127
2, 81560, Note_on_c, 1, 62, 127
2, 81880, Note_off_c, 1, 50, 0
2, 81880, Note_off_c, 1, 62, 0
2, 81920, Note_on_c, 1, 49, 127
2, 81920, Note_on_c, 1, 61, 127
2, 82240, Note_off_c, 1, 49, 0
2, 82240, Note_off_c, 1, 61, 0
2, 82280, Note_on_c, 1, 50, 127
2, 82280, Note_on_c, 1, 62, 127
2, 82600, Note_off_c, 1, 50, 0
2, 82600, Note_off_c, 1, 62, 0
2, 82640, Note_on_c, 1, 53, 127
2, 82640, Note_on_c, 1, 65, 127
2, 82960, Note_off_c, 1, 53, 0
2, 82960, Note_off_c, 1, 65, 0
2, 83000, Note_on_c, 1, 50, 127
2, 83000, Note_on_c, 1, 62, 127
2, 83320, Note_off_c, 1, 50, 0
2, 83320, Note_off_c, 1, 62, 0
2, 83360, Note_on_c, 1, 49, 127
2, 83360, Note_on_c, 1, 61, 127
2, 83680, Note_off_c, 1, 49, 0
2, 83680, Note_off_c, 1, 61, 0
2, 83760, Note_on_c, 1, 45, 127
2, 83760, Note_on_c, 1, 57, 127
2, 84080, Note_off_c, 1, 45, 0
2, 84080, Note_off_c, 1, 57, 0
2, 84120, Note_on_c, 1, 53, 127
2, 84120, Note_on_c, 1, 65, 127
2, 84440, Note_off_c, 1, 53, 0
2, 84440, Note_off_c, 1, 65, 0
2, 84480, Note_on_c, 1, 57, 127
2, 84480, Note_on_c, 1, 69, 127
2, 84800, Note_off_c, 1, 57, 0
2, 84800, Note_off_c, 1, 69, 0
2, 84840, Note_on_c, 1, 53, 127
2, 84840, Note_on_c, 1, 65, 127
2, 85160, Note_off_c, 1, 53, 0
2, 85160, Note_off_c, 1, 65, 0
2, 85200, Note_on_c, 1, 52, 127
2, 85200, Note_on_c, 1, 64, 127
2, 85520, Note_off_c, 1, 52, 0
2, 85520, Note_off_c, 1, 64, 0
2, 85560, Note_on_c, 1, 53, 127
2, 85560, Note_on_c, 1, 65, 127
2, 85960, Note_off_c, 1, 53, 0
2, 85960, Note_off_c, 1, 65, 0
2, 86000, Note_on_c, 1, 53, 127
2, 86000, Note_on_c, 1, 65, 127
2, 86280, Note_off_c, 1, 53, 0
2, 86280, Note_off_c, 1, 65, 0
2, 86320, Note_on_c, 1, 52, 127
2, 86320, Note_on_c, 1, 64, 127
2, 86640, Note_off_c, 1, 52, 0
2, 86640, Note_off_c, 1, 64, 0
2, 86680, Note_on_c, 1, 49, 127
2, 86680, Note_on_c, 1, 61, 127
2, 87000, Note_off_c, 1, 49, 0
2, 87000, Note_off_c, 1, 61, 0
2, 87040, Note_on_c, 1, 50, 127
2, 87040, Note_on_c, 1, 62, 127
2, 87360, Note_off_c, 1, 50, 0
2, 87360, Note_off_c, 1, 62, 0
2, 87400, Note_on_c, 1, 49, 127
2, 87400, Note_on_c, 1, 61, 127
2, 87720, Note_off_c, 1, 49, 0
2, 87720, Note_off_c, 1, 61, 0
2, 87760, Note_on_c, 1, 50, 127
2, 87760, Note_on_c, 1, 62, 127
2, 88080, Note_off_c, 1, 50, 0
2, 88080, Note_off_c, 1, 62, 0
2, 88160, Note_on_c, 1, 50, 127
2, 88160, Note_on_c, 1, 62, 127
2, 88480, Note_off_c, 1, 50, 0
2, 88480, Note_off_c, 1, 62, 0
2, 88520, Note_on_c, 1, 46, 127
2, 88520, Note_on_c, 1, 58, 127
2, 88840, Note_off_c, 1, 46, 0
2, 88840, Note_off_c, 1, 58, 0
2, 88880, Note_on_c, 1, 53, 127
2, 88880, Note_on_c, 1, 65, 127
2, 89200, Note_off_c, 1, 53, 0
2, 89200, Note_off_c, 1, 65, 0
2, 89240, Note_on_c, 1, 50, 127
2, 89240, Note_on_c, 1, 62, 127
2, 89560, Note_off_c, 1, 50, 0
2, 89560, Note_off_c, 1, 62, 0
2, 89600, Note_on_c, 1, 51, 127
2, 89600, Note_on_c, 1, 63, 127
2, 89920, Note_off_c, 1, 51, 0
2, 89920, Note_off_c, 1, 63, 0
2, 89960, Note_on_c, 1, 52, 127
2, 89960, Note_on_c, 1, 64, 127
2, 90080, Note_off_c, 1, 52, 0
2, 90080, Note_off_c, 1, 64, 0
2, 90120, Note_on_c, 1, 52, 127
2, 90120, Note_on_c, 1, 64, 127
2, 90320, Note_off_c, 1, 52, 0
2, 90320, Note_off_c, 1, 64, 0
2, 90360, Note_on_c, 1, 53, 127
2, 90360, Note_on_c, 1, 65, 127
2, 90680, Note_off_c, 1, 53, 0
2, 90680, Note_off_c, 1, 65, 0
2, 90720, Note_on_c, 1, 50, 127
2, 90720, Note_on_c, 1, 62, 127
2, 91040, Note_off_c, 1, 50, 0
2, 91040, Note_off_c, 1, 62, 0
2, 91080, Note_on_c, 1, 53, 127
2, 91080, Note_on_c, 1, 65, 127
2, 91400, Note_off_c, 1, 53, 0
2, 91400, Note_off_c, 1, 65, 0
2, 91440, Note_on_c, 1, 58, 127
2, 91440, Note_on_c, 1, 70, 127
2, 91760, Note_off_c, 1, 58, 0
2, 91760, Note_off_c, 1, 70, 0
2, 91800, Note_on_c, 1, 57, 127
2, 91800, Note_on_c, 1, 69, 127
2, 92120, Note_off_c, 1, 57, 0
2, 92120, Note_off_c, 1, 69, 0
2, 92200, Note_on_c, 1, 52, 127
2, 92200, Note_on_c, 1, 64, 127
2, 92520, Note_off_c, 1, 52, 0
2, 92520, Note_off_c, 1, 64, 0
2, 92560, Note_on_c, 1, 53, 127
2, 92560, Note_on_c, 1, 65, 127
2, 92880, Note_off_c, 1, 53, 0
2, 92880, Note_off_c, 1, 65, 0
2, 92920, Note_on_c, 1, 50, 127
2, 92920, Note_on_c, 1, 62, 127
2, 93400, Note_off_c, 1, 50, 0
2, 93400, Note_off_c, 1, 62, 0
2, 96600, Note_on_c, 1, 68, 127
2, 97120, Note_off_c, 1, 68, 0
2, 97160, Note_on_c, 1, 68, 127
2, 97320, Note_off_c, 1, 68, 0
2, 98080, Note_on_c, 1, 67, 127
2, 98800, Note_off_c, 1, 67, 0
2, 98840, Note_on_c, 1, 63, 127
2, 99520, Note_off_c, 1, 63, 0
2, 99560, Note_on_c, 1, 67, 127
2, 99880, Note_off_c, 1, 67, 0
2, 99960, Note_on_c, 1, 63, 127
2, 100280, Note_off_c, 1, 63, 0
2, 100320, Note_on_c, 1, 67, 127
2, 100640, Note_off_c, 1, 67, 0
2, 100680, Note_on_c, 1, 63, 127
2, 101000, Note_off_c, 1, 63, 0
2, 101040, Note_on_c, 1, 72, 127
2, 101360, Note_off_c, 1, 72, 0
2, 101400, Note_on_c, 1, 70, 127
2, 102080, Note_off_c, 1, 70, 0
2, 102120, Note_on_c, 1, 70, 127
2, 102160, Note_off_c, 1, 70, 0
2, 102200, Note_on_c, 1, 68, 127
2, 102520, Note_off_c, 1, 68, 0
2, 102560, Note_on_c, 1, 39, 127
2, 102560, Note_on_c, 1, 67, 127
2, 103280, Note_off_c, 1, 39, 0
2, 103280, Note_off_c, 1, 67, 0
2, 103320, Note_on_c, 1, 51, 127
2, 103320, Note_on_c, 1, 57, 127
2, 103320, Note_on_c, 1, 60, 127
2, 104000, Note_off_c, 1, 57, 0
2, 104040, Note_on_c, 1, 53, 127
2, 104160, Note_off_c, 1, 51, 0
2, 104160, Note_off_c, 1, 53, 0
2, 104160, Note_off_c, 1, 60, 0
2, 104200, Note_on_c, 1, 51, 127
2, 104200, Note_on_c, 1, 53, 127
2, 104200, Note_on_c, 1, 60, 127
2, 104440, Note_off_c, 1, 53, 0
2, 104480, Note_on_c, 1, 57, 127
2, 105160, Note_off_c, 1, 51, 0
2, 105160, Note_off_c, 1, 57, 0
2, 105160, Note_off_c, 1, 60, 0
2, 105200, Note_on_c, 1, 53, 127
2, 105200, Note_on_c, 1, 75, 127
2, 106440, Note_off_c, 1, 53, 0
2, 106440, Note_off_c, 1, 75, 0
2, 106480, Note_on_c, 1, 53, 127
2, 106480, Note_on_c, 1, 75, 127
2, 108360, Note_on_c, 1, 74, 127
2, 108360, Note_off_c, 1, 75, 0
2, 108560, Note_off_c, 1, 53, 0
2, 108560, Note_off_c, 1, 74, 0
2, 108600, Note_on_c, 1, 53, 127
2, 108600, Note_on_c, 1, 74, 127
2, 108760, Note_off_c, 1, 53, 0
2, 108960, Note_on_c, 1, 72, 127
2, 108960, Note_off_c, 1, 74, 0
2, 109520, Note_on_c, 1, 70, 127
2, 109520, Note_off_c, 1, 72, 0
2, 109840, Note_off_c, 1, 70, 0
2, 109880, Note_on_c, 1, 65, 127
2, 110600, Note_off_c, 1, 65, 0
2, 110640, Note_on_c, 1, 62, 127
2, 110760, Note_off_c, 1, 62, 0
2, 110800, Note_on_c, 1, 62, 127
2, 111400, Note_off_c, 1, 62, 0
2, 111440, Note_on_c, 1, 61, 127
2, 111760, Note_off_c, 1, 61, 0
2, 111800, Note_on_c, 1, 65, 127
2, 112120, Note_off_c, 1, 65, 0
2, 112160, Note_on_c, 1, 63, 127
2, 112520, Note_on_c, 1, 62, 127
2, 112520, Note_off_c, 1, 63, 0
2, 112880, Note_off_c, 1, 62, 0
2, 112960, Note_on_c, 1, 58, 127
2, 113640, Note_off_c, 1, 58, 0
2, 113680, Note_on_c, 1, 53, 127
2, 114400, Note_off_c, 1, 53, 0
2, 114440, Note_on_c, 1, 46, 127
2, 114760, Note_off_c, 1, 46, 0
2, 114800, Note_on_c, 1, 51, 127
2, 115160, Note_off_c, 1, 51, 0
2, 115240, Note_on_c, 1, 58, 127
2, 115560, Note_off_c, 1, 58, 0
2, 115600, Note_on_c, 1, 51, 127
2, 115920, Note_off_c, 1, 51, 0
2, 115960, Note_on_c, 1, 53, 127
2, 116320, Note_off_c, 1, 53, 0
2, 116360, Note_on_c, 1, 46, 127
2, 116680, Note_off_c, 1, 46, 0
2, 116720, Note_on_c, 1, 53, 127
2, 117040, Note_off_c, 1, 53, 0
2, 117080, Note_on_c, 1, 58, 127
2, 117400, Note_off_c, 1, 58, 0
2, 117440, Note_on_c, 1, 58, 127
2, 117480, Note_off_c, 1, 58, 0
2, 117520, Note_on_c, 1, 63, 127
2, 117840, Note_off_c, 1, 63, 0
2, 117880, Note_on_c, 1, 53, 127
2, 118200, Note_off_c, 1, 53, 0
2, 118240, Note_on_c, 1, 58, 127
2, 118560, Note_off_c, 1, 58, 0
2, 118640, Note_on_c, 1, 58, 127
2, 118960, Note_off_c, 1, 58, 0
2, 119000, Note_on_c, 1, 53, 127
2, 119360, Note_off_c, 1, 53, 0
2, 119400, Note_on_c, 1, 58, 127
2, 119640, Note_off_c, 1, 58, 0
2, 119680, Note_on_c, 1, 58, 127
2, 119760, Note_off_c, 1, 58, 0
2, 119800, Note_on_c, 1, 53, 127
2, 120000, Note_off_c, 1, 53, 0
2, 120040, End_track
3, 0, Start_track
3, 0, Title_t, "MIDI"
3, 1536, End_track
0, 0, End_of_file
