0, 0, Header, 1, 3, 192
1, 0, Start_track
1, 0, Time_signature, 4, 2, 24, 8
1, 0, Tempo, 500000
1, 120040, End_track
2, 0, Start_track
2, 0, Text_t, "random instrument: random person i dunno whatev"
2, 0, Title_t, "Track 1"
2, 0, Note_on_c, 1, 40, 127
2, 0, Note_on_c, 1, 48, 127
2, 0, Note_on_c, 1, 56, 127
2, 0, Note_on_c, 1, 60, 127
2, 40, Note_off_c, 1, 40, 0
2, 40, Note_off_c, 1, 48, 0
2, 40, Note_on_c, 1, 55, 127
2, 40, Note_off_c, 1, 56, 0
2, 40, Note_off_c, 1, 60, 0
2, 40, Note_on_c, 1, 72, 127
2, 40, Note_on_c, 1, 75, 127
2, 40, Note_on_c, 1, 79, 127
2, 40, Note_on_c, 1, 84, 127
2, 80, Note_off_c, 1, 55, 0
2, 80, Note_off_c, 1, 72, 0
2, 80, Note_off_c, 1, 75, 0
2, 80, Note_off_c, 1, 79, 0
2, 80, Note_off_c, 1, 84, 0
2, 120, Note_on_c, 1, 40, 127
2, 120, Note_on_c, 1, 48, 127
2, 120, Note_on_c, 1, 56, 127
2, 120, Note_on_c, 1, 60, 127
2, 160, Note_off_c, 1, 40, 0
2, 160, Note_on_c, 1, 41, 127
2, 160, Note_off_c, 1, 48, 0
2, 160, Note_on_c, 1, 50, 127
2, 160, Note_on_c, 1, 53, 127
2, 160, Note_off_c, 1, 56, 0
2, 160, Note_off_c, 1, 60, 0
2, 160, Note_on_c, 1, 81, 127
2, 160, Note_on_c, 1, 86, 127
2, 200, Note_on_c, 1, 35, 127
2, 200, Note_on_c, 1, 39, 127
2, 200, Note_off_c, 1, 41, 0
2, 200, Note_on_c, 1, 47, 127
2, 200, Note_off_c, 1, 53, 0
2, 200, Note_off_c, 1, 81, 0
2, 200, Note_off_c, 1, 86, 0
2, 240, Note_on_c, 1, 34, 127
2, 240, Note_off_c, 1, 35, 0
2, 240, Note_on_c, 1, 46, 127
2, 240, Note_off_c, 1, 47, 0
2, 240, Note_off_c, 1, 50, 0
2, 240, Note_on_c, 1, 73, 127
2, 240, Note_on_c, 1, 75, 127
2, 280, Note_off_c, 1, 34, 0
2, 280, Note_off_c, 1, 39, 0
2, 280, Note_off_c, 1, 46, 0
2, 280, Note_off_c, 1, 73, 0
2, 280, Note_off_c, 1, 75, 0
2, 280, Note_on_c, 1, 76, 127
2, 280, Note_on_c, 1, 80, 127
2, 280, Note_on_c, 1, 83, 127
2, 280, Note_on_c, 1, 89, 127
2, 320, Note_on_c, 1, 34, 127
2, 320, Note_on_c, 1, 39, 127
2, 320, Note_on_c, 1, 46, 127
2, 320, Note_on_c, 1, 73, 127
2, 320, Note_on_c, 1, 75, 127
2, 320, Note_off_c, 1, 76, 0
2, 320, Note_off_c, 1, 80, 0
2, 320, Note_off_c, 1, 83, 0
2, 320, Note_off_c, 1, 89, 0
2, 360, Note_off_c, 1, 34, 0
2, 360, Note_off_c, 1, 39, 0
2, 360, Note_on_c, 1, 42, 127
2, 360, Note_off_c, 1, 46, 0
2, 360, Note_on_c, 1, 49, 127
2, 360, Note_on_c, 1, 56, 127
2, 360, Note_off_c, 1, 73, 0
2, 360, Note_off_c, 1, 75, 0
2, 400, Note_off_c, 1, 42, 0
2, 400, Note_off_c, 1, 49, 0
2, 400, Note_off_c, 1, 56, 0
2, 400, Note_on_c, 1, 64, 127
2, 400, Note_on_c, 1, 85, 127
2, 400, Note_on_c, 1, 88, 127
2, 400, Note_on_c, 1, 92, 127
2, 440, Note_on_c, 1, 52, 127
2, 440, Note_on_c, 1, 56, 127
2, 440, Note_on_c, 1, 62, 127
2, 440, Note_on_c, 1, 71, 127
2, 440, Note_on_c, 1, 74, 127
2, 440, Note_off_c, 1, 85, 0
2, 440, Note_off_c, 1, 88, 0
2, 440, Note_off_c, 1, 92, 0
2, 480, Note_off_c, 1, 52, 0
2, 480, Note_off_c, 1, 56, 0
2, 480, Note_off_c, 1, 62, 0
2, 480, Note_off_c, 1, 71, 0
2, 480, Note_off_c, 1, 74, 0
2, 520, Note_on_c, 1, 32, 127
2, 520, Note_on_c, 1, 44, 127
2, 520, Note_on_c, 1, 52, 127
2, 520, Note_on_c, 1, 61, 127
2, 520, Note_off_c, 1, 64, 0
2, 600, Note_off_c, 1, 52, 0
2, 640, Note_on_c, 1, 52, 127
2, 760, Note_off_c, 1, 52, 0
2, 800, Note_on_c, 1, 58, 127
2, 880, Note_off_c, 1, 58, 0
2, 880, Note_off_c, 1, 61, 0
2, 920, Note_on_c, 1, 61, 127
2, 1040, Note_off_c, 1, 61, 0
2, 1080, Note_on_c, 1, 54, 127
2, 1240, Note_off_c, 1, 32, 0
2, 1240, Note_off_c, 1, 44, 0
2, 1240, Note_off_c, 1, 54, 0
2, 1240, Note_on_c, 1, 61, 127
2, 1240, Note_on_c, 1, 67, 127
2, 1280, Note_on_c, 1, 31, 127
2, 1280, Note_on_c, 1, 43, 127
2, 1280, Note_on_c, 1, 58, 127
2, 1280, Note_on_c, 1, 64, 127
2, 1280, Note_off_c, 1, 67, 0
2, 1640, Note_off_c, 1, 31, 0
2, 1640, Note_on_c, 1, 34, 127
2, 1640, Note_off_c, 1, 43, 0
2, 1640, Note_on_c, 1, 46, 127
2, 1640, Note_off_c, 1, 58, 0
2, 1640, Note_off_c, 1, 61, 0
2, 1640, Note_off_c, 1, 64, 0
2, 1680, Note_off_c, 1, 34, 0
2, 1680, Note_on_c, 1, 35, 127
2, 1680, Note_on_c, 1, 42, 127
2, 1680, Note_off_c, 1, 46, 0
2, 1680, Note_on_c, 1, 47, 127
2, 1680, Note_on_c, 1, 62, 127
2, 1680, Note_on_c, 1, 66, 127
2, 1680, Note_on_c, 1, 71, 127
2, 1680, Note_on_c, 1, 74, 127
2, 1880, Note_off_c, 1, 35, 0
2, 1880, Note_off_c, 1, 42, 0
2, 1880, Note_off_c, 1, 47, 0
2, 1880, Note_off_c, 1, 62, 0
2, 1880, Note_off_c, 1, 66, 0
2, 1880, Note_off_c, 1, 71, 0
2, 1880, Note_off_c, 1, 74, 0
2, 1920, Note_on_c, 1, 35, 127
2, 1920, Note_on_c, 1, 42, 127
2, 1920, Note_on_c, 1, 47, 127
2, 1920, Note_on_c, 1, 62, 127
2, 1920, Note_on_c, 1, 66, 127
2, 1920, Note_on_c, 1, 71, 127
2, 1920, Note_on_c, 1, 74, 127
2, 2280, Note_off_c, 1, 35, 0
2, 2280, Note_off_c, 1, 42, 0
2, 2280, Note_off_c, 1, 47, 0
2, 2280, Note_off_c, 1, 62, 0
2, 2280, Note_off_c, 1, 66, 0
2, 2280, Note_off_c, 1, 71, 0
2, 2280, Note_off_c, 1, 74, 0
2, 2320, Note_on_c, 1, 68, 127
2, 2480, Note_off_c, 1, 68, 0
2, 2520, Note_on_c, 1, 35, 127
2, 2520, Note_on_c, 1, 47, 127
2, 2520, Note_on_c, 1, 59, 127
2, 2520, Note_on_c, 1, 63, 127
2, 3320, Note_off_c, 1, 35, 0
2, 3320, Note_off_c, 1, 47, 0
2, 3320, Note_on_c, 1, 54, 127
2, 3720, Note_on_c, 1, 47, 127
2, 3720, Note_off_c, 1, 54, 0
2, 3720, Note_off_c, 1, 59, 0
2, 3720, Note_off_c, 1, 63, 0
2, 3760, Note_on_c, 1, 40, 127
2, 3760, Note_on_c, 1, 73, 127
2, 3840, Note_off_c, 1, 73, 0
2, 3880, Note_on_c, 1, 61, 127
2, 3920, Note_off_c, 1, 40, 0
2, 3920, Note_off_c, 1, 47, 0
2, 3920, Note_off_c, 1, 61, 0
2, 3960, Note_on_c, 1, 40, 127
2, 3960, Note_on_c, 1, 47, 127
2, 4000, Note_on_c, 1, 60, 127
2, 4080, Note_off_c, 1, 60, 0
2, 4120, Note_on_c, 1, 68, 127
2, 4160, Note_off_c, 1, 68, 0
2, 4200, Note_on_c, 1, 68, 127
2, 4280, Note_off_c, 1, 47, 0
2, 4320, Note_on_c, 1, 39, 127
2, 4320, Note_off_c, 1, 40, 0
2, 4320, Note_on_c, 1, 44, 127
2, 4320, Note_on_c, 1, 51, 127
2, 4320, Note_on_c, 1, 60, 127
2, 4320, Note_on_c, 1, 67, 127
2, 4320, Note_off_c, 1, 68, 0
2, 4360, Note_off_c, 1, 60, 0
2, 4360, Note_off_c, 1, 67, 0
2, 4400, Note_on_c, 1, 60, 127
2, 4400, Note_on_c, 1, 67, 127
2, 4480, Note_off_c, 1, 60, 0
2, 4480, Note_off_c, 1, 67, 0
2, 4520, Note_off_c, 1, 39, 0
2, 4520, Note_off_c, 1, 44, 0
2, 4520, Note_off_c, 1, 51, 0
2, 4520, Note_on_c, 1, 52, 127
2, 4520, Note_on_c, 1, 54, 127
2, 4520, Note_on_c, 1, 59, 127
2, 4520, Note_on_c, 1, 78, 127
2, 4520, Note_on_c, 1, 83, 127
2, 4520, Note_on_c, 1, 90, 127
2, 4560, Note_off_c, 1, 52, 0
2, 4560, Note_off_c, 1, 54, 0
2, 4560, Note_off_c, 1, 59, 0
2, 4560, Note_off_c, 1, 78, 0
2, 4560, Note_off_c, 1, 83, 0
2, 4560, Note_off_c, 1, 90, 0
2, 4600, Note_on_c, 1, 47, 127
2, 4600, Note_on_c, 1, 54, 127
2, 4600, Note_on_c, 1, 57, 127
2, 4600, Note_on_c, 1, 66, 127
2, 4680, Note_off_c, 1, 66, 0
2, 4720, Note_on_c, 1, 66, 127
2, 4760, Note_off_c, 1, 66, 0
2, 4800, Note_on_c, 1, 66, 127
2, 4880, Note_off_c, 1, 66, 0
2, 4920, Note_on_c, 1, 66, 127
2, 4960, Note_off_c, 1, 47, 0
2, 4960, Note_off_c, 1, 54, 0
2, 4960, Note_off_c, 1, 57, 0
2, 4960, Note_off_c, 1, 66, 0
2, 5000, Note_on_c, 1, 35, 127
2, 5000, Note_on_c, 1, 47, 127
2, 5000, Note_on_c, 1, 61, 127
2, 5080, Note_off_c, 1, 61, 0
2, 5120, Note_on_c, 1, 52, 127
2, 5160, Note_off_c, 1, 35, 0
2, 5160, Note_off_c, 1, 47, 0
2, 5160, Note_off_c, 1, 52, 0
2, 5160, Note_on_c, 1, 54, 127
2, 5200, Note_on_c, 1, 33, 127
2, 5200, Note_on_c, 1, 45, 127
2, 5200, Note_on_c, 1, 48, 127
2, 5200, Note_off_c, 1, 54, 0
2, 5360, Note_off_c, 1, 33, 0
2, 5360, Note_off_c, 1, 45, 0
2, 5360, Note_off_c, 1, 48, 0
2, 5400, Note_on_c, 1, 33, 127
2, 5400, Note_on_c, 1, 45, 127
2, 5400, Note_on_c, 1, 52, 127
2, 5400, Note_on_c, 1, 56, 127
2, 5400, Note_on_c, 1, 59, 127
2, 5480, Note_off_c, 1, 56, 0
2, 5480, Note_off_c, 1, 59, 0
2, 5520, Note_on_c, 1, 56, 127
2, 5520, Note_on_c, 1, 59, 127
2, 5560, Note_off_c, 1, 56, 0
2, 5560, Note_off_c, 1, 59, 0
2, 5600, Note_on_c, 1, 56, 127
2, 5600, Note_on_c, 1, 59, 127
2, 5680, Note_off_c, 1, 56, 0
2, 5680, Note_off_c, 1, 59, 0
2, 5720, Note_on_c, 1, 57, 127
2, 5720, Note_on_c, 1, 61, 127
2, 5760, Note_off_c, 1, 33, 0
2, 5760, Note_off_c, 1, 45, 0
2, 5760, Note_off_c, 1, 52, 0
2, 5760, Note_off_c, 1, 57, 0
2, 5760, Note_off_c, 1, 61, 0
2, 5800, Note_on_c, 1, 35, 127
2, 5800, Note_on_c, 1, 47, 127
2, 5800, Note_on_c, 1, 59, 127
2, 5880, Note_off_c, 1, 59, 0
2, 5920, Note_on_c, 1, 57, 127
2, 5960, Note_off_c, 1, 35, 0
2, 5960, Note_off_c, 1, 47, 0
2, 5960, Note_off_c, 1, 57, 0
2, 6000, Note_on_c, 1, 35, 127
2, 6000, Note_on_c, 1, 47, 127
2, 6000, Note_on_c, 1, 57, 127
2, 6000, Note_on_c, 1, 63, 127
2, 6000, Note_on_c, 1, 66, 127
2, 6080, Note_off_c, 1, 35, 0
2, 6080, Note_on_c, 1, 40, 127
2, 6080, Note_off_c, 1, 57, 0
2, 6080, Note_off_c, 1, 63, 0
2, 6080, Note_off_c, 1, 66, 0
2, 6120, Note_off_c, 1, 40, 0
2, 6120, Note_off_c, 1, 47, 0
2, 6160, Note_on_c, 1, 40, 127
2, 6160, Note_on_c, 1, 47, 127
2, 6160, Note_on_c, 1, 59, 127
2, 6200, Note_off_c, 1, 40, 0
2, 6200, Note_on_c, 1, 42, 127
2, 6200, Note_off_c, 1, 47, 0
2, 6200, Note_on_c, 1, 52, 127
2, 6200, Note_on_c, 1, 64, 127
2, 6240, Note_on_c, 1, 40, 127
2, 6240, Note_off_c, 1, 42, 0
2, 6240, Note_on_c, 1, 51, 127
2, 6240, Note_off_c, 1, 52, 0
2, 6240, Note_off_c, 1, 64, 0
2, 6240, Note_on_c, 1, 66, 127
2, 6240, Note_on_c, 1, 68, 127
2, 6280, Note_on_c, 1, 35, 127
2, 6280, Note_off_c, 1, 40, 0
2, 6280, Note_on_c, 1, 47, 127
2, 6280, Note_off_c, 1, 51, 0
2, 6280, Note_on_c, 1, 52, 127
2, 6280, Note_off_c, 1, 59, 0
2, 6280, Note_off_c, 1, 66, 0
2, 6280, Note_off_c, 1, 68, 0
2, 6320, Note_off_c, 1, 35, 0
2, 6320, Note_on_c, 1, 37, 127
2, 6320, Note_on_c, 1, 45, 127
2, 6320, Note_off_c, 1, 47, 0
2, 6320, Note_off_c, 1, 52, 0
2, 6320, Note_on_c, 1, 82, 127
2, 6360, Note_off_c, 1, 37, 0
2, 6360, Note_on_c, 1, 40, 127
2, 6360, Note_off_c, 1, 45, 0
2, 6360, Note_on_c, 1, 51, 127
2, 6360, Note_on_c, 1, 59, 127
2, 6360, Note_on_c, 1, 66, 127
2, 6360, Note_on_c, 1, 68, 127
2, 6360, Note_off_c, 1, 82, 0
2, 6400, Note_off_c, 1, 40, 0
2, 6400, Note_on_c, 1, 45, 127
2, 6400, Note_off_c, 1, 51, 0
2, 6400, Note_off_c, 1, 59, 0
2, 6400, Note_off_c, 1, 66, 0
2, 6400, Note_off_c, 1, 68, 0
2, 6440, Note_on_c, 1, 39, 127
2, 6440, Note_off_c, 1, 45, 0
2, 6440, Note_on_c, 1, 55, 127
2, 6440, Note_on_c, 1, 66, 127
2, 6800, Note_off_c, 1, 39, 0
2, 6800, Note_off_c, 1, 55, 0
2, 6800, Note_off_c, 1, 66, 0
2, 6840, Note_on_c, 1, 52, 127
2, 6840, Note_on_c, 1, 63, 127
2, 6880, Note_on_c, 1, 51, 127
2, 6880, Note_off_c, 1, 52, 0
2, 6880, Note_on_c, 1, 59, 127
2, 6880, Note_off_c, 1, 63, 0
2, 6880, Note_on_c, 1, 85, 127
2, 6920, Note_off_c, 1, 51, 0
2, 6920, Note_off_c, 1, 59, 0
2, 6920, Note_on_c, 1, 75, 127
2, 6920, Note_on_c, 1, 78, 127
2, 6920, Note_on_c, 1, 82, 127
2, 6920, Note_off_c, 1, 85, 0
2, 6920, Note_on_c, 1, 87, 127
2, 6920, Note_on_c, 1, 90, 127
2, 6960, Note_on_c, 1, 45, 127
2, 6960, Note_on_c, 1, 47, 127
2, 6960, Note_on_c, 1, 52, 127
2, 6960, Note_on_c, 1, 56, 127
2, 6960, Note_on_c, 1, 72, 127
2, 6960, Note_off_c, 1, 75, 0
2, 6960, Note_off_c, 1, 78, 0
2, 6960, Note_off_c, 1, 82, 0
2, 6960, Note_off_c, 1, 87, 0
2, 6960, Note_off_c, 1, 90, 0
2, 7000, Note_off_c, 1, 45, 0
2, 7000, Note_off_c, 1, 47, 0
2, 7000, Note_on_c, 1, 51, 127
2, 7000, Note_off_c, 1, 52, 0
2, 7000, Note_on_c, 1, 54, 127
2, 7000, Note_off_c, 1, 56, 0
2, 7000, Note_on_c, 1, 59, 127
2, 7000, Note_off_c, 1, 72, 0
2, 7040, Note_on_c, 1, 48, 127
2, 7040, Note_off_c, 1, 51, 0
2, 7040, Note_off_c, 1, 59, 0
2, 7040, Note_on_c, 1, 60, 127
2, 7040, Note_on_c, 1, 62, 127
2, 7040, Note_on_c, 1, 66, 127
2, 7040, Note_on_c, 1, 69, 127
2, 7080, Note_on_c, 1, 42, 127
2, 7080, Note_off_c, 1, 48, 0
2, 7080, Note_on_c, 1, 52, 127
2, 7080, Note_off_c, 1, 54, 0
2, 7080, Note_off_c, 1, 60, 0
2, 7080, Note_off_c, 1, 62, 0
2, 7080, Note_on_c, 1, 64, 127
2, 7080, Note_off_c, 1, 66, 0
2, 7080, Note_on_c, 1, 67, 127
2, 7080, Note_off_c, 1, 69, 0
2, 7080, Note_on_c, 1, 71, 127
2, 7080, Note_on_c, 1, 76, 127
2, 7120, Note_off_c, 1, 42, 0
2, 7120, Note_on_c, 1, 48, 127
2, 7120, Note_off_c, 1, 52, 0
2, 7120, Note_on_c, 1, 54, 127
2, 7120, Note_on_c, 1, 60, 127
2, 7120, Note_on_c, 1, 62, 127
2, 7120, Note_off_c, 1, 64, 0
2, 7120, Note_on_c, 1, 66, 127
2, 7120, Note_off_c, 1, 67, 0
2, 7120, Note_on_c, 1, 69, 127
2, 7120, Note_off_c, 1, 71, 0
2, 7120, Note_off_c, 1, 76, 0
2, 7200, Note_off_c, 1, 48, 0
2, 7200, Note_off_c, 1, 54, 0
2, 7200, Note_off_c, 1, 60, 0
2, 7200, Note_off_c, 1, 62, 0
2, 7200, Note_off_c, 1, 66, 0
2, 7200, Note_off_c, 1, 69, 0
2, 7200, Note_on_c, 1, 81, 127
2, 7240, Note_on_c, 1, 45, 127
2, 7240, Note_on_c, 1, 49, 127
2, 7240, Note_on_c, 1, 54, 127
2, 7240, Note_on_c, 1, 73, 127
2, 7240, Note_off_c, 1, 81, 0
2, 7600, Note_off_c, 1, 45, 0
2, 7600, Note_off_c, 1, 49, 0
2, 7600, Note_off_c, 1, 54, 0
2, 7600, Note_off_c, 1, 73, 0
2, 7640, Note_on_c, 1, 48, 127
2, 7640, Note_on_c, 1, 60, 127
2, 7640, Note_on_c, 1, 83, 127
2, 7640, Note_on_c, 1, 86, 127
2, 7640, Note_on_c, 1, 91, 127
2, 7640, Note_on_c, 1, 95, 127
2, 7680, Note_on_c, 1, 41, 127
2, 7680, Note_off_c, 1, 48, 0
2, 7680, Note_on_c, 1, 53, 127
2, 7680, Note_off_c, 1, 60, 0
2, 7680, Note_on_c, 1, 69, 127
2, 7680, Note_on_c, 1, 73, 127
2, 7680, Note_on_c, 1, 77, 127
2, 7680, Note_off_c, 1, 83, 0
2, 7680, Note_off_c, 1, 86, 0
2, 7680, Note_off_c, 1, 91, 0
2, 7680, Note_off_c, 1, 95, 0
2, 7720, Note_off_c, 1, 41, 0
2, 7720, Note_off_c, 1, 53, 0
2, 7720, Note_on_c, 1, 60, 127
2, 7720, Note_on_c, 1, 62, 127
2, 7720, Note_on_c, 1, 66, 127
2, 7720, Note_off_c, 1, 73, 0
2, 7720, Note_off_c, 1, 77, 0
2, 7720, Note_on_c, 1, 86, 127
2, 7720, Note_on_c, 1, 90, 127
2, 7720, Note_on_c, 1, 93, 127
2, 7720, Note_on_c, 1, 98, 127
2, 7760, Note_on_c, 1, 35, 127
2, 7760, Note_on_c, 1, 56, 127
2, 7760, Note_on_c, 1, 59, 127
2, 7760, Note_off_c, 1, 60, 0
2, 7760, Note_on_c, 1, 64, 127
2, 7760, Note_off_c, 1, 66, 0
2, 7760, Note_off_c, 1, 69, 0
2, 7760, Note_off_c, 1, 86, 0
2, 7760, Note_off_c, 1, 90, 0
2, 7760, Note_off_c, 1, 93, 0
2, 7760, Note_off_c, 1, 98, 0
2, 7800, Note_off_c, 1, 35, 0
2, 7800, Note_on_c, 1, 36, 127
2, 7800, Note_on_c, 1, 48, 127
2, 7800, Note_off_c, 1, 56, 0
2, 7800, Note_off_c, 1, 59, 0
2, 7800, Note_off_c, 1, 62, 0
2, 7800, Note_off_c, 1, 64, 0
2, 7800, Note_on_c, 1, 84, 127
2, 7800, Note_on_c, 1, 89, 127
2, 7800, Note_on_c, 1, 92, 127
2, 7800, Note_on_c, 1, 96, 127
2, 7840, Note_off_c, 1, 36, 0
2, 7840, Note_off_c, 1, 48, 0
2, 7840, Note_on_c, 1, 60, 127
2, 7840, Note_on_c, 1, 62, 127
2, 7840, Note_on_c, 1, 66, 127
2, 7840, Note_on_c, 1, 69, 127
2, 7840, Note_off_c, 1, 84, 0
2, 7840, Note_on_c, 1, 86, 127
2, 7840, Note_off_c, 1, 89, 0
2, 7840, Note_on_c, 1, 90, 127
2, 7840, Note_off_c, 1, 92, 0
2, 7840, Note_on_c, 1, 93, 127
2, 7840, Note_off_c, 1, 96, 0
2, 7840, Note_on_c, 1, 98, 127
2, 8000, Note_off_c, 1, 60, 0
2, 8000, Note_off_c, 1, 62, 0
2, 8000, Note_off_c, 1, 66, 0
2, 8000, Note_off_c, 1, 69, 0
2, 8000, Note_off_c, 1, 86, 0
2, 8000, Note_off_c, 1, 90, 0
2, 8000, Note_off_c, 1, 93, 0
2, 8000, Note_off_c, 1, 98, 0
2, 8040, Note_on_c, 1, 35, 127
2, 8040, Note_on_c, 1, 47, 127
2, 8040, Note_on_c, 1, 86, 127
2, 8040, Note_on_c, 1, 90, 127
2, 8040, Note_on_c, 1, 93, 127
2, 8040, Note_on_c, 1, 98, 127
2, 8200, Note_off_c, 1, 35, 0
2, 8200, Note_off_c, 1, 47, 0
2, 8240, Note_off_c, 1, 86, 0
2, 8240, Note_off_c, 1, 90, 0
2, 8240, Note_off_c, 1, 93, 0
2, 8240, Note_off_c, 1, 98, 0
2, 8280, Note_on_c, 1, 34, 127
2, 8280, Note_on_c, 1, 42, 127
2, 8280, Note_on_c, 1, 46, 127
2, 8280, Note_on_c, 1, 54, 127
2, 8280, Note_on_c, 1, 61, 127
2, 8280, Note_on_c, 1, 64, 127
2, 8400, Note_off_c, 1, 34, 0
2, 8400, Note_off_c, 1, 42, 0
2, 8400, Note_off_c, 1, 46, 0
2, 8400, Note_on_c, 1, 48, 127
2, 8400, Note_off_c, 1, 54, 0
2, 8400, Note_off_c, 1, 61, 0
2, 8400, Note_on_c, 1, 69, 127
2, 8400, Note_on_c, 1, 73, 127
2, 8440, Note_off_c, 1, 48, 0
2, 8440, Note_off_c, 1, 64, 0
2, 8440, Note_off_c, 1, 69, 0
2, 8440, Note_off_c, 1, 73, 0
2, 8480, Note_on_c, 1, 33, 127
2, 8480, Note_on_c, 1, 45, 127
2, 8480, Note_on_c, 1, 69, 127
2, 8480, Note_on_c, 1, 74, 127
2, 8480, Note_on_c, 1, 78, 127
2, 8480, Note_on_c, 1, 81, 127
2, 8560, Note_off_c, 1, 33, 0
2, 8560, Note_off_c, 1, 45, 0
2, 8600, Note_on_c, 1, 44, 127
2, 8640, Note_off_c, 1, 44, 0
2, 8640, Note_off_c, 1, 69, 0
2, 8640, Note_off_c, 1, 74, 0
2, 8640, Note_off_c, 1, 78, 0
2, 8640, Note_off_c, 1, 81, 0
2, 8680, Note_on_c, 1, 35, 127
2, 8680, Note_on_c, 1, 47, 127
2, 8680, Note_on_c, 1, 71, 127
2, 8680, Note_on_c, 1, 74, 127
2, 8680, Note_on_c, 1, 79, 127
2, 8680, Note_on_c, 1, 83, 127
2, 8760, Note_off_c, 1, 71, 0
2, 8760, Note_off_c, 1, 74, 0
2, 8760, Note_off_c, 1, 79, 0
2, 8760, Note_off_c, 1, 83, 0
2, 8800, Note_on_c, 1, 74, 127
2, 8800, Note_on_c, 1, 86, 127
2, 8840, Note_off_c, 1, 35, 0
2, 8840, Note_off_c, 1, 47, 0
2, 8840, Note_off_c, 1, 74, 0
2, 8840, Note_off_c, 1, 86, 0
2, 8880, Note_on_c, 1, 35, 127
2, 8880, Note_on_c, 1, 47, 127
2, 8880, Note_on_c, 1, 71, 127
2, 8880, Note_on_c, 1, 74, 127
2, 8880, Note_on_c, 1, 79, 127
2, 8880, Note_on_c, 1, 83, 127
2, 8960, Note_off_c, 1, 71, 0
2, 8960, Note_off_c, 1, 74, 0
2, 8960, Note_off_c, 1, 79, 0
2, 8960, Note_off_c, 1, 83, 0
2, 9000, Note_on_c, 1, 74, 127
2, 9000, Note_on_c, 1, 86, 127
2, 9040, Note_off_c, 1, 35, 0
2, 9040, Note_off_c, 1, 47, 0
2, 9040, Note_off_c, 1, 74, 0
2, 9040, Note_off_c, 1, 86, 0
2, 9080, Note_on_c, 1, 37, 127
2, 9080, Note_on_c, 1, 49, 127
2, 9080, Note_on_c, 1, 64, 127
2, 9080, Note_on_c, 1, 69, 127
2, 9080, Note_on_c, 1, 73, 127
2, 9080, Note_on_c, 1, 76, 127
2, 9160, Note_off_c, 1, 64, 0
2, 9160, Note_off_c, 1, 69, 0
2, 9160, Note_off_c, 1, 73, 0
2, 9160, Note_off_c, 1, 76, 0
2, 9200, Note_off_c, 1, 37, 0
2, 9200, Note_on_c, 1, 40, 127
2, 9200, Note_on_c, 1, 47, 127
2, 9200, Note_off_c, 1, 49, 0
2, 9200, Note_on_c, 1, 52, 127
2, 9200, Note_on_c, 1, 76, 127
2, 9200, Note_on_c, 1, 79, 127
2, 9200, Note_on_c, 1, 83, 127
2, 9240, Note_off_c, 1, 40, 0
2, 9240, Note_off_c, 1, 47, 0
2, 9240, Note_off_c, 1, 52, 0
2, 9240, Note_off_c, 1, 76, 0
2, 9240, Note_off_c, 1, 79, 0
2, 9240, Note_off_c, 1, 83, 0
2, 9280, Note_on_c, 1, 33, 127
2, 9280, Note_on_c, 1, 45, 127
2, 9280, Note_on_c, 1, 69, 127
2, 9280, Note_on_c, 1, 72, 127
2, 9360, Note_off_c, 1, 69, 0
2, 9400, Note_on_c, 1, 69, 127
2, 9440, Note_off_c, 1, 69, 0
2, 9480, Note_on_c, 1, 61, 127
2, 9480, Note_on_c, 1, 67, 127
2, 9480, Note_off_c, 1, 72, 0
2, 9480, Note_on_c, 1, 73, 127
2, 9560, Note_off_c, 1, 61, 0
2, 9560, Note_off_c, 1, 67, 0
2, 9560, Note_on_c, 1, 72, 127
2, 9560, Note_off_c, 1, 73, 0
2, 9600, Note_off_c, 1, 33, 0
2, 9600, Note_on_c, 1, 34, 127
2, 9600, Note_off_c, 1, 45, 0
2, 9600, Note_on_c, 1, 46, 127
2, 9600, Note_on_c, 1, 69, 127
2, 9600, Note_off_c, 1, 72, 0
2, 9600, Note_on_c, 1, 74, 127
2, 9600, Note_on_c, 1, 81, 127
2, 9640, Note_off_c, 1, 34, 0
2, 9640, Note_off_c, 1, 46, 0
2, 9640, Note_off_c, 1, 69, 0
2, 9640, Note_off_c, 1, 74, 0
2, 9640, Note_off_c, 1, 81, 0
2, 9680, Note_on_c, 1, 35, 127
2, 9680, Note_on_c, 1, 47, 127
2, 9680, Note_on_c, 1, 59, 127
2, 9680, Note_on_c, 1, 63, 127
2, 9680, Note_on_c, 1, 68, 127
2, 10040, Note_off_c, 1, 35, 0
2, 10040, Note_off_c, 1, 47, 0
2, 10040, Note_off_c, 1, 59, 0
2, 10040, Note_off_c, 1, 63, 0
2, 10040, Note_off_c, 1, 68, 0
2, 10080, Note_on_c, 1, 39, 127
2, 10080, Note_on_c, 1, 51, 127
2, 10080, Note_on_c, 1, 55, 127
2, 10080, Note_on_c, 1, 63, 127
2, 10080, Note_on_c, 1, 67, 127
2, 10400, Note_off_c, 1, 39, 0
2, 10400, Note_off_c, 1, 51, 0
2, 10400, Note_off_c, 1, 55, 0
2, 10400, Note_off_c, 1, 63, 0
2, 10400, Note_off_c, 1, 67, 0
2, 10440, Note_on_c, 1, 39, 127
2, 10440, Note_on_c, 1, 51, 127
2, 10440, Note_on_c, 1, 55, 127
2, 10440, Note_on_c, 1, 63, 127
2, 10440, Note_on_c, 1, 67, 127
2, 10480, Note_off_c, 1, 39, 0
2, 10480, Note_off_c, 1, 51, 0
2, 10480, Note_off_c, 1, 55, 0
2, 10480, Note_off_c, 1, 63, 0
2, 10480, Note_off_c, 1, 67, 0
2, 10520, Note_on_c, 1, 39, 127
2, 10520, Note_on_c, 1, 51, 127
2, 10520, Note_on_c, 1, 55, 127
2, 10520, Note_on_c, 1, 63, 127
2, 10520, Note_on_c, 1, 67, 127
2, 10880, Note_off_c, 1, 39, 0
2, 10880, Note_off_c, 1, 51, 0
2, 10880, Note_off_c, 1, 55, 0
2, 10880, Note_on_c, 1, 58, 127
2, 10880, Note_off_c, 1, 63, 0
2, 10880, Note_off_c, 1, 67, 0
2, 10920, Note_on_c, 1, 34, 127
2, 10920, Note_on_c, 1, 46, 127
2, 10920, Note_on_c, 1, 55, 127
2, 10920, Note_off_c, 1, 58, 0
2, 10920, Note_on_c, 1, 63, 127
2, 10920, Note_on_c, 1, 67, 127
2, 11160, Note_off_c, 1, 34, 0
2, 11160, Note_off_c, 1, 46, 0
2, 11160, Note_off_c, 1, 55, 0
2, 11160, Note_off_c, 1, 63, 0
2, 11160, Note_off_c, 1, 67, 0
2, 11200, Note_on_c, 1, 34, 127
2, 11200, Note_on_c, 1, 46, 127
2, 11200, Note_on_c, 1, 55, 127
2, 11200, Note_on_c, 1, 63, 127
2, 11200, Note_on_c, 1, 67, 127
2, 11280, Note_off_c, 1, 34, 0
2, 11280, Note_off_c, 1, 46, 0
2, 11280, Note_off_c, 1, 55, 0
2, 11280, Note_off_c, 1, 63, 0
2, 11280, Note_off_c, 1, 67, 0
2, 11320, Note_on_c, 1, 41, 127
2, 11320, Note_on_c, 1, 53, 127
2, 11320, Note_on_c, 1, 57, 127
2, 11320, Note_on_c, 1, 62, 127
2, 11320, Note_on_c, 1, 68, 127
2, 11400, Note_off_c, 1, 57, 0
2, 11400, Note_on_c, 1, 58, 127
2, 11480, Note_off_c, 1, 58, 0
2, 11520, Note_on_c, 1, 60, 127
2, 11640, Note_off_c, 1, 41, 0
2, 11640, Note_off_c, 1, 53, 0
2, 11640, Note_off_c, 1, 60, 0
2, 11640, Note_off_c, 1, 62, 0
2, 11640, Note_off_c, 1, 68, 0
2, 11680, Note_on_c, 1, 41, 127
2, 11680, Note_on_c, 1, 53, 127
2, 11680, Note_on_c, 1, 60, 127
2, 11680, Note_on_c, 1, 62, 127
2, 11680, Note_on_c, 1, 68, 127
2, 12040, Note_off_c, 1, 41, 0
2, 12040, Note_off_c, 1, 53, 0
2, 12040, Note_off_c, 1, 60, 0
2, 12040, Note_off_c, 1, 62, 0
2, 12040, Note_off_c, 1, 68, 0
2, 12080, Note_on_c, 1, 47, 127
2, 12080, Note_on_c, 1, 59, 127
2, 12080, Note_on_c, 1, 67, 127
2, 12080, Note_on_c, 1, 76, 127
2, 12080, Note_on_c, 1, 79, 127
2, 12240, Note_off_c, 1, 47, 0
2, 12240, Note_off_c, 1, 59, 0
2, 12240, Note_off_c, 1, 67, 0
2, 12240, Note_off_c, 1, 76, 0
2, 12240, Note_off_c, 1, 79, 0
2, 12280, Note_on_c, 1, 49, 127
2, 12280, Note_on_c, 1, 59, 127
2, 12280, Note_on_c, 1, 67, 127
2, 12280, Note_on_c, 1, 71, 127
2, 12320, Note_off_c, 1, 49, 0
2, 12320, Note_off_c, 1, 59, 0
2, 12320, Note_off_c, 1, 67, 0
2, 12320, Note_off_c, 1, 71, 0
2, 12360, Note_on_c, 1, 34, 127
2, 12360, Note_on_c, 1, 37, 127
2, 12360, Note_on_c, 1, 41, 127
2, 12360, Note_on_c, 1, 46, 127
2, 12360, Note_on_c, 1, 82, 127
2, 12360, Note_on_c, 1, 85, 127
2, 12360, Note_on_c, 1, 89, 127
2, 12360, Note_on_c, 1, 94, 127
2, 12440, Note_off_c, 1, 34, 0
2, 12440, Note_off_c, 1, 37, 0
2, 12440, Note_off_c, 1, 41, 0
2, 12440, Note_off_c, 1, 46, 0
2, 12440, Note_off_c, 1, 82, 0
2, 12440, Note_off_c, 1, 85, 0
2, 12440, Note_off_c, 1, 89, 0
2, 12440, Note_off_c, 1, 94, 0
2, 12520, Note_on_c, 1, 34, 127
2, 12520, Note_on_c, 1, 37, 127
2, 12520, Note_on_c, 1, 41, 127
2, 12520, Note_on_c, 1, 46, 127
2, 12520, Note_on_c, 1, 82, 127
2, 12520, Note_on_c, 1, 85, 127
2, 12520, Note_on_c, 1, 89, 127
2, 12520, Note_on_c, 1, 94, 127
2, 12880, Note_off_c, 1, 34, 0
2, 12880, Note_off_c, 1, 37, 0
2, 12880, Note_off_c, 1, 41, 0
2, 12880, Note_off_c, 1, 46, 0
2, 12880, Note_off_c, 1, 82, 0
2, 12880, Note_off_c, 1, 85, 0
2, 12880, Note_off_c, 1, 89, 0
2, 12880, Note_off_c, 1, 94, 0
2, 12920, Note_on_c, 1, 52, 127
2, 12920, Note_on_c, 1, 56, 127
2, 12920, Note_on_c, 1, 59, 127
2, 12920, Note_on_c, 1, 62, 127
2, 12920, Note_on_c, 1, 68, 127
2, 12920, Note_on_c, 1, 71, 127
2, 12920, Note_on_c, 1, 76, 127
2, 12960, Note_off_c, 1, 52, 0
2, 12960, Note_off_c, 1, 56, 0
2, 12960, Note_off_c, 1, 59, 0
2, 12960, Note_off_c, 1, 62, 0
2, 12960, Note_off_c, 1, 68, 0
2, 12960, Note_off_c, 1, 71, 0
2, 12960, Note_off_c, 1, 76, 0
2, 13000, Note_on_c, 1, 57, 127
2, 13000, Note_on_c, 1, 64, 127
2, 13000, Note_on_c, 1, 69, 127
2, 13000, Note_on_c, 1, 87, 127
2, 13040, Note_off_c, 1, 57, 0
2, 13040, Note_off_c, 1, 64, 0
2, 13040, Note_off_c, 1, 69, 0
2, 13040, Note_off_c, 1, 87, 0
2, 13080, Note_on_c, 1, 38, 127
2, 13080, Note_on_c, 1, 45, 127
2, 13080, Note_on_c, 1, 60, 127
2, 13080, Note_on_c, 1, 72, 127
2, 13360, Note_off_c, 1, 38, 0
2, 13360, Note_off_c, 1, 45, 0
2, 13360, Note_off_c, 1, 60, 0
2, 13360, Note_off_c, 1, 72, 0
2, 13400, Note_on_c, 1, 52, 127
2, 13400, Note_on_c, 1, 57, 127
2, 13400, Note_on_c, 1, 60, 127
2, 13400, Note_on_c, 1, 65, 127
2, 13400, Note_on_c, 1, 68, 127
2, 13440, Note_on_c, 1, 40, 127
2, 13440, Note_off_c, 1, 52, 0
2, 13440, Note_off_c, 1, 57, 0
2, 13440, Note_off_c, 1, 60, 0
2, 13440, Note_off_c, 1, 65, 0
2, 13440, Note_off_c, 1, 68, 0
2, 13440, Note_on_c, 1, 90, 127
2, 13440, Note_on_c, 1, 92, 127
2, 13440, Note_on_c, 1, 95, 127
2, 13440, Note_on_c, 1, 98, 127
2, 13440, Note_on_c, 1, 102, 127
2, 13480, Note_off_c, 1, 40, 0
2, 13480, Note_on_c, 1, 52, 127
2, 13480, Note_on_c, 1, 57, 127
2, 13480, Note_on_c, 1, 60, 127
2, 13480, Note_on_c, 1, 65, 127
2, 13480, Note_on_c, 1, 68, 127
2, 13480, Note_off_c, 1, 90, 0
2, 13480, Note_off_c, 1, 92, 0
2, 13480, Note_off_c, 1, 95, 0
2, 13480, Note_off_c, 1, 98, 0
2, 13480, Note_off_c, 1, 102, 0
2, 13560, Note_off_c, 1, 52, 0
2, 13560, Note_off_c, 1, 57, 0
2, 13560, Note_off_c, 1, 60, 0
2, 13560, Note_off_c, 1, 65, 0
2, 13560, Note_off_c, 1, 68, 0
2, 13600, Note_on_c, 1, 62, 127
2, 13600, Note_on_c, 1, 69, 127
2, 13600, Note_on_c, 1, 72, 127
2, 13600, Note_on_c, 1, 74, 127
2, 13600, Note_on_c, 1, 78, 127
2, 13600, Note_on_c, 1, 84, 127
2, 13600, Note_on_c, 1, 90, 127
2, 13960, Note_off_c, 1, 62, 0
2, 13960, Note_off_c, 1, 69, 0
2, 13960, Note_off_c, 1, 72, 0
2, 13960, Note_off_c, 1, 74, 0
2, 13960, Note_off_c, 1, 78, 0
2, 13960, Note_off_c, 1, 84, 0
2, 13960, Note_off_c, 1, 90, 0
2, 14000, Note_on_c, 1, 45, 127
2, 14000, Note_on_c, 1, 53, 127
2, 14000, Note_on_c, 1, 57, 127
2, 14000, Note_on_c, 1, 65, 127
2, 14000, Note_on_c, 1, 69, 127
2, 14000, Note_on_c, 1, 74, 127
2, 14000, Note_on_c, 1, 77, 127
2, 14360, Note_off_c, 1, 45, 0
2, 14360, Note_off_c, 1, 53, 0
2, 14360, Note_off_c, 1, 57, 0
2, 14360, Note_off_c, 1, 65, 0
2, 14360, Note_off_c, 1, 69, 0
2, 14360, Note_off_c, 1, 74, 0
2, 14360, Note_off_c, 1, 77, 0
2, 14440, Note_on_c, 1, 48, 127
2, 14440, Note_on_c, 1, 52, 127
2, 14440, Note_on_c, 1, 65, 127
2, 14440, Note_on_c, 1, 77, 127
2, 14480, Note_on_c, 1, 37, 127
2, 14480, Note_on_c, 1, 42, 127
2, 14480, Note_on_c, 1, 45, 127
2, 14480, Note_off_c, 1, 48, 0
2, 14480, Note_on_c, 1, 49, 127
2, 14480, Note_off_c, 1, 52, 0
2, 14480, Note_off_c, 1, 65, 0
2, 14480, Note_off_c, 1, 77, 0
2, 14480, Note_on_c, 1, 85, 127
2, 14480, Note_on_c, 1, 90, 127
2, 14480, Note_on_c, 1, 93, 127
2, 14480, Note_on_c, 1, 97, 127
2, 14600, Note_off_c, 1, 37, 0
2, 14600, Note_off_c, 1, 42, 0
2, 14600, Note_on_c, 1, 43, 127
2, 14600, Note_off_c, 1, 45, 0
2, 14600, Note_off_c, 1, 49, 0
2, 14600, Note_on_c, 1, 50, 127
2, 14600, Note_on_c, 1, 55, 127
2, 14600, Note_on_c, 1, 70, 127
2, 14600, Note_off_c, 1, 85, 0
2, 14600, Note_off_c, 1, 90, 0
2, 14600, Note_off_c, 1, 93, 0
2, 14600, Note_off_c, 1, 97, 0
2, 14640, Note_on_c, 1, 42, 127
2, 14640, Note_off_c, 1, 43, 0
2, 14640, Note_on_c, 1, 45, 127
2, 14640, Note_off_c, 1, 50, 0
2, 14640, Note_on_c, 1, 54, 127
2, 14640, Note_off_c, 1, 55, 0
2, 14640, Note_on_c, 1, 74, 127
2, 14680, Note_on_c, 1, 36, 127
2, 14680, Note_off_c, 1, 42, 0
2, 14680, Note_off_c, 1, 54, 0
2, 14680, Note_off_c, 1, 70, 0
2, 14680, Note_off_c, 1, 74, 0
2, 14680, Note_on_c, 1, 77, 127
2, 14720, Note_off_c, 1, 36, 0
2, 14720, Note_on_c, 1, 38, 127
2, 14720, Note_off_c, 1, 45, 0
2, 14720, Note_on_c, 1, 81, 127
2, 14720, Note_on_c, 1, 89, 127
2, 14760, Note_off_c, 1, 38, 0
2, 14760, Note_off_c, 1, 77, 0
2, 14760, Note_off_c, 1, 81, 0
2, 14760, Note_off_c, 1, 89, 0
2, 14800, Note_on_c, 1, 76, 127
2, 14800, Note_on_c, 1, 78, 127
2, 14800, Note_on_c, 1, 82, 127
2, 14840, Note_on_c, 1, 45, 127
2, 14840, Note_on_c, 1, 48, 127
2, 14840, Note_on_c, 1, 57, 127
2, 14840, Note_on_c, 1, 65, 127
2, 14840, Note_on_c, 1, 72, 127
2, 14840, Note_off_c, 1, 76, 0
2, 14840, Note_on_c, 1, 77, 127
2, 14840, Note_off_c, 1, 78, 0
2, 14840, Note_off_c, 1, 82, 0
2, 14880, Note_on_c, 1, 40, 127
2, 14880, Note_off_c, 1, 45, 0
2, 14880, Note_off_c, 1, 48, 0
2, 14880, Note_on_c, 1, 52, 127
2, 14880, Note_on_c, 1, 55, 127
2, 14880, Note_off_c, 1, 57, 0
2, 14880, Note_on_c, 1, 60, 127
2, 14880, Note_off_c, 1, 65, 0
2, 14880, Note_on_c, 1, 66, 127
2, 14880, Note_off_c, 1, 72, 0
2, 14880, Note_off_c, 1, 77, 0
2, 14920, Note_off_c, 1, 40, 0
2, 14920, Note_on_c, 1, 45, 127
2, 14920, Note_on_c, 1, 48, 127
2, 14920, Note_off_c, 1, 52, 0
2, 14920, Note_off_c, 1, 55, 0
2, 14920, Note_on_c, 1, 57, 127
2, 14920, Note_off_c, 1, 60, 0
2, 14920, Note_on_c, 1, 65, 127
2, 14920, Note_off_c, 1, 66, 0
2, 14920, Note_on_c, 1, 72, 127
2, 14920, Note_on_c, 1, 77, 127
2, 15000, Note_off_c, 1, 45, 0
2, 15000, Note_off_c, 1, 48, 0
2, 15000, Note_off_c, 1, 57, 0
2, 15000, Note_off_c, 1, 65, 0
2, 15000, Note_off_c, 1, 72, 0
2, 15000, Note_off_c, 1, 77, 0
2, 15040, Note_on_c, 1, 45, 127
2, 15040, Note_on_c, 1, 48, 127
2, 15040, Note_on_c, 1, 57, 127
2, 15040, Note_on_c, 1, 65, 127
2, 15040, Note_on_c, 1, 72, 127
2, 15040, Note_on_c, 1, 77, 127
2, 15200, Note_off_c, 1, 45, 0
2, 15200, Note_off_c, 1, 48, 0
2, 15200, Note_off_c, 1, 57, 0
2, 15200, Note_off_c, 1, 65, 0
2, 15200, Note_off_c, 1, 72, 0
2, 15200, Note_off_c, 1, 77, 0
2, 15240, Note_on_c, 1, 45, 127
2, 15240, Note_on_c, 1, 48, 127
2, 15240, Note_on_c, 1, 57, 127
2, 15240, Note_on_c, 1, 65, 127
2, 15240, Note_on_c, 1, 72, 127
2, 15240, Note_on_c, 1, 77, 127
2, 15400, Note_off_c, 1, 45, 0
2, 15400, Note_off_c, 1, 48, 0
2, 15400, Note_off_c, 1, 57, 0
2, 15400, Note_off_c, 1, 65, 0
2, 15400, Note_off_c, 1, 72, 0
2, 15400, Note_off_c, 1, 77, 0
2, 15440, Note_on_c, 1, 45, 127
2, 15440, Note_on_c, 1, 48, 127
2, 15440, Note_on_c, 1, 57, 127
2, 15440, Note_on_c, 1, 65, 127
2, 15440, Note_on_c, 1, 72, 127
2, 15440, Note_on_c, 1, 77, 127
2, 15600, Note_off_c, 1, 45, 0
2, 15600, Note_off_c, 1, 48, 0
2, 15600, Note_off_c, 1, 57, 0
2, 15600, Note_off_c, 1, 65, 0
2, 15600, Note_off_c, 1, 72, 0
2, 15600, Note_off_c, 1, 77, 0
2, 15640, Note_on_c, 1, 45, 127
2, 15640, Note_on_c, 1, 48, 127
2, 15640, Note_on_c, 1, 57, 127
2, 15640, Note_on_c, 1, 65, 127
2, 15640, Note_on_c, 1, 72, 127
2, 15640, Note_on_c, 1, 77, 127
2, 15800, Note_off_c, 1, 45, 0
2, 15800, Note_off_c, 1, 48, 0
2, 15800, Note_off_c, 1, 57, 0
2, 15800, Note_off_c, 1, 65, 0
2, 15800, Note_off_c, 1, 72, 0
2, 15800, Note_off_c, 1, 77, 0
2, 15840, Note_on_c, 1, 45, 127
2, 15840, Note_on_c, 1, 48, 127
2, 15840, Note_on_c, 1, 57, 127
2, 15840, Note_on_c, 1, 65, 127
2, 15840, Note_on_c, 1, 72, 127
2, 15840, Note_on_c, 1, 77, 127
2, 16000, Note_off_c, 1, 45, 0
2, 16000, Note_off_c, 1, 48, 0
2, 16000, Note_off_c, 1, 57, 0
2, 16000, Note_off_c, 1, 65, 0
2, 16000, Note_off_c, 1, 72, 0
2, 16000, Note_off_c, 1, 77, 0
2, 16040, Note_on_c, 1, 45, 127
2, 16040, Note_on_c, 1, 48, 127
2, 16040, Note_on_c, 1, 57, 127
2, 16040, Note_on_c, 1, 65, 127
2, 16040, Note_on_c, 1, 72, 127
2, 16040, Note_on_c, 1, 77, 127
2, 16200, Note_off_c, 1, 45, 0
2, 16200, Note_off_c, 1, 48, 0
2, 16200, Note_off_c, 1, 57, 0
2, 16200, Note_off_c, 1, 65, 0
2, 16200, Note_off_c, 1, 72, 0
2, 16200, Note_off_c, 1, 77, 0
2, 16240, Note_on_c, 1, 45, 127
2, 16240, Note_on_c, 1, 48, 127
2, 16240, Note_on_c, 1, 57, 127
2, 16240, Note_on_c, 1, 65, 127
2, 16240, Note_on_c, 1, 72, 127
2, 16240, Note_on_c, 1, 77, 127
2, 16400, Note_off_c, 1, 45, 0
2, 16400, Note_off_c, 1, 48, 0
2, 16400, Note_off_c, 1, 57, 0
2, 16400, Note_off_c, 1, 65, 0
2, 16400, Note_off_c, 1, 72, 0
2, 16400, Note_off_c, 1, 77, 0
2, 16480, Note_on_c, 1, 48, 127
2, 16480, Note_on_c, 1, 60, 127
2, 16480, Note_on_c, 1, 67, 127
2, 16480, Note_on_c, 1, 72, 127
2, 16480, Note_on_c, 1, 79, 127
2, 16640, Note_off_c, 1, 48, 0
2, 16640, Note_off_c, 1, 60, 0
2, 16640, Note_off_c, 1, 67, 0
2, 16640, Note_off_c, 1, 72, 0
2, 16640, Note_off_c, 1, 79, 0
2, 16680, Note_on_c, 1, 45, 127
2, 16680, Note_on_c, 1, 57, 127
2, 16680, Note_on_c, 1, 73, 127
2, 16680, Note_on_c, 1, 76, 127
2, 16800, Note_off_c, 1, 45, 0
2, 16800, Note_off_c, 1, 57, 0
2, 16800, Note_off_c, 1, 73, 0
2, 16800, Note_off_c, 1, 76, 0
2, 16880, Note_on_c, 1, 44, 127
2, 16880, Note_on_c, 1, 51, 127
2, 16880, Note_on_c, 1, 56, 127
2, 16880, Note_on_c, 1, 75, 127
2, 16880, Note_on_c, 1, 83, 127
2, 16880, Note_on_c, 1, 87, 127
2, 17200, Note_off_c, 1, 44, 0
2, 17200, Note_off_c, 1, 51, 0
2, 17200, Note_off_c, 1, 56, 0
2, 17200, Note_off_c, 1, 75, 0
2, 17200, Note_off_c, 1, 83, 0
2, 17200, Note_off_c, 1, 87, 0
2, 17240, Note_on_c, 1, 44, 127
2, 17240, Note_on_c, 1, 51, 127
2, 17240, Note_on_c, 1, 56, 127
2, 17240, Note_on_c, 1, 75, 127
2, 17240, Note_on_c, 1, 83, 127
2, 17240, Note_on_c, 1, 87, 127
2, 17800, Note_off_c, 1, 44, 0
2, 17800, Note_off_c, 1, 51, 0
2, 17800, Note_off_c, 1, 56, 0
2, 17800, Note_off_c, 1, 75, 0
2, 17800, Note_off_c, 1, 83, 0
2, 17800, Note_off_c, 1, 87, 0
2, 17840, Note_on_c, 1, 58, 127
2, 17840, Note_on_c, 1, 62, 127
2, 17840, Note_on_c, 1, 64, 127
2, 17840, Note_on_c, 1, 67, 127
2, 17840, Note_on_c, 1, 74, 127
2, 17840, Note_on_c, 1, 86, 127
2, 18000, Note_off_c, 1, 58, 0
2, 18000, Note_off_c, 1, 62, 0
2, 18000, Note_off_c, 1, 64, 0
2, 18000, Note_off_c, 1, 67, 0
2, 18000, Note_off_c, 1, 74, 0
2, 18000, Note_off_c, 1, 86, 0
2, 18040, Note_on_c, 1, 57, 127
2, 18040, Note_on_c, 1, 62, 127
2, 18040, Note_on_c, 1, 68, 127
2, 18040, Note_on_c, 1, 76, 127
2, 18040, Note_on_c, 1, 88, 127
2, 18200, Note_off_c, 1, 57, 0
2, 18200, Note_off_c, 1, 62, 0
2, 18200, Note_off_c, 1, 68, 0
2, 18200, Note_off_c, 1, 76, 0
2, 18200, Note_off_c, 1, 88, 0
2, 18240, Note_on_c, 1, 57, 127
2, 18240, Note_on_c, 1, 62, 127
2, 18240, Note_on_c, 1, 68, 127
2, 18240, Note_on_c, 1, 76, 127
2, 18240, Note_on_c, 1, 88, 127
2, 18400, Note_off_c, 1, 57, 0
2, 18400, Note_off_c, 1, 62, 0
2, 18400, Note_off_c, 1, 68, 0
2, 18400, Note_off_c, 1, 76, 0
2, 18400, Note_off_c, 1, 88, 0
2, 18480, Note_on_c, 1, 57, 127
2, 18480, Note_on_c, 1, 74, 127
2, 18480, Note_on_c, 1, 77, 127
2, 18480, Note_on_c, 1, 86, 127
2, 18640, Note_off_c, 1, 74, 0
2, 18640, Note_off_c, 1, 77, 0
2, 18640, Note_off_c, 1, 86, 0
2, 18680, Note_on_c, 1, 50, 127
2, 18680, Note_off_c, 1, 57, 0
2, 18680, Note_on_c, 1, 59, 127
2, 18680, Note_on_c, 1, 62, 127
2, 18680, Note_on_c, 1, 67, 127
2, 18680, Note_on_c, 1, 74, 127
2, 18840, Note_off_c, 1, 50, 0
2, 18840, Note_off_c, 1, 59, 0
2, 18840, Note_off_c, 1, 62, 0
2, 18840, Note_off_c, 1, 67, 0
2, 18840, Note_off_c, 1, 74, 0
2, 18880, Note_on_c, 1, 35, 127
2, 18880, Note_on_c, 1, 75, 127
2, 18880, Note_on_c, 1, 78, 127
2, 18880, Note_on_c, 1, 81, 127
2, 18880, Note_on_c, 1, 87, 127
2, 19400, Note_on_c, 1, 30, 127
2, 19400, Note_on_c, 1, 37, 127
2, 19400, Note_on_c, 1, 72, 127
2, 19400, Note_off_c, 1, 75, 0
2, 19400, Note_off_c, 1, 78, 0
2, 19400, Note_off_c, 1, 81, 0
2, 19400, Note_off_c, 1, 87, 0
2, 19440, Note_off_c, 1, 30, 0
2, 19440, Note_off_c, 1, 35, 0
2, 19440, Note_off_c, 1, 37, 0
2, 19440, Note_off_c, 1, 72, 0
2, 19480, Note_on_c, 1, 45, 127
2, 19480, Note_on_c, 1, 57, 127
2, 19480, Note_on_c, 1, 71, 127
2, 19480, Note_on_c, 1, 78, 127
2, 19480, Note_on_c, 1, 81, 127
2, 19840, Note_off_c, 1, 45, 0
2, 19840, Note_off_c, 1, 57, 0
2, 19840, Note_on_c, 1, 60, 127
2, 19840, Note_on_c, 1, 62, 127
2, 19840, Note_on_c, 1, 69, 127
2, 19840, Note_off_c, 1, 71, 0
2, 19840, Note_off_c, 1, 78, 0
2, 19840, Note_off_c, 1, 81, 0
2, 19840, Note_on_c, 1, 82, 127
2, 19880, Note_on_c, 1, 29, 127
2, 19880, Note_on_c, 1, 41, 127
2, 19880, Note_on_c, 1, 57, 127
2, 19880, Note_off_c, 1, 60, 0
2, 19880, Note_off_c, 1, 62, 0
2, 19880, Note_on_c, 1, 65, 127
2, 19880, Note_off_c, 1, 69, 0
2, 19880, Note_on_c, 1, 77, 127
2, 19880, Note_off_c, 1, 82, 0
2, 19920, Note_off_c, 1, 29, 0
2, 19920, Note_off_c, 1, 41, 0
2, 19920, Note_on_c, 1, 46, 127
2, 19920, Note_on_c, 1, 54, 127
2, 19920, Note_off_c, 1, 57, 0
2, 19920, Note_on_c, 1, 73, 127
2, 19960, Note_on_c, 1, 34, 127
2, 19960, Note_on_c, 1, 53, 127
2, 19960, Note_off_c, 1, 54, 0
2, 19960, Note_on_c, 1, 57, 127
2, 19960, Note_off_c, 1, 65, 0
2, 19960, Note_off_c, 1, 73, 0
2, 19960, Note_off_c, 1, 77, 0
2, 20000, Note_off_c, 1, 34, 0
2, 20000, Note_off_c, 1, 53, 0
2, 20000, Note_on_c, 1, 54, 127
2, 20000, Note_off_c, 1, 57, 0
2, 20000, Note_on_c, 1, 65, 127
2, 20000, Note_on_c, 1, 73, 127
2, 20000, Note_on_c, 1, 77, 127
2, 20040, Note_off_c, 1, 46, 0
2, 20040, Note_off_c, 1, 54, 0
2, 20040, Note_off_c, 1, 65, 0
2, 20040, Note_off_c, 1, 73, 0
2, 20040, Note_off_c, 1, 77, 0
2, 20080, Note_on_c, 1, 37, 127
2, 20080, Note_on_c, 1, 40, 127
2, 20080, Note_on_c, 1, 44, 127
2, 20080, Note_on_c, 1, 49, 127
2, 20080, Note_on_c, 1, 52, 127
2, 20080, Note_on_c, 1, 56, 127
2, 20080, Note_on_c, 1, 61, 127
2, 20520, Note_off_c, 1, 37, 0
2, 20520, Note_off_c, 1, 40, 0
2, 20520, Note_off_c, 1, 44, 0
2, 20520, Note_off_c, 1, 49, 0
2, 20520, Note_off_c, 1, 52, 0
2, 20520, Note_off_c, 1, 56, 0
2, 20520, Note_off_c, 1, 61, 0
2, 20600, Note_on_c, 1, 37, 127
2, 20600, Note_on_c, 1, 40, 127
2, 20600, Note_on_c, 1, 44, 127
2, 20600, Note_on_c, 1, 49, 127
2, 20600, Note_on_c, 1, 52, 127
2, 20600, Note_on_c, 1, 56, 127
2, 20600, Note_on_c, 1, 61, 127
2, 21520, Note_off_c, 1, 37, 0
2, 21520, Note_off_c, 1, 40, 0
2, 21520, Note_off_c, 1, 44, 0
2, 21520, Note_off_c, 1, 49, 0
2, 21520, Note_off_c, 1, 52, 0
2, 21520, Note_off_c, 1, 56, 0
2, 21520, Note_off_c, 1, 61, 0
2, 21560, Note_on_c, 1, 47, 127
2, 21560, Note_on_c, 1, 54, 127
2, 21560, Note_on_c, 1, 59, 127
2, 21560, Note_on_c, 1, 63, 127
2, 21560, Note_on_c, 1, 66, 127
2, 21560, Note_on_c, 1, 71, 127
2, 21560, Note_on_c, 1, 75, 127
2, 21880, Note_off_c, 1, 47, 0
2, 21880, Note_off_c, 1, 54, 0
2, 21880, Note_off_c, 1, 59, 0
2, 21880, Note_off_c, 1, 63, 0
2, 21880, Note_off_c, 1, 66, 0
2, 21880, Note_off_c, 1, 71, 0
2, 21880, Note_off_c, 1, 75, 0
2, 21920, Note_on_c, 1, 31, 127
2, 21920, Note_on_c, 1, 43, 127
2, 21920, Note_on_c, 1, 71, 127
2, 22080, Note_off_c, 1, 71, 0
2, 22080, Note_on_c, 1, 74, 127
2, 22120, Note_on_c, 1, 72, 127
2, 22120, Note_off_c, 1, 74, 0
2, 22160, Note_off_c, 1, 72, 0
2, 22160, Note_on_c, 1, 74, 127
2, 22320, Note_off_c, 1, 74, 0
2, 22320, Note_on_c, 1, 79, 127
2, 22360, Note_off_c, 1, 79, 0
2, 22360, Note_on_c, 1, 81, 127
2, 22480, Note_off_c, 1, 81, 0
2, 22520, Note_on_c, 1, 71, 127
2, 22680, Note_off_c, 1, 71, 0
2, 22720, Note_on_c, 1, 79, 127
2, 22880, Note_off_c, 1, 79, 0
2, 22920, Note_off_c, 1, 31, 0
2, 22920, Note_off_c, 1, 43, 0
2, 22960, Note_on_c, 1, 31, 127
2, 22960, Note_on_c, 1, 43, 127
2, 22960, Note_on_c, 1, 79, 127
2, 23320, Note_off_c, 1, 31, 0
2, 23320, Note_off_c, 1, 43, 0
2, 23320, Note_off_c, 1, 79, 0
2, 23360, Note_on_c, 1, 48, 127
2, 23360, Note_on_c, 1, 53, 127
2, 23360, Note_on_c, 1, 60, 127
2, 23360, Note_on_c, 1, 65, 127
2, 23360, Note_on_c, 1, 69, 127
2, 24120, Note_off_c, 1, 48, 0
2, 24120, Note_off_c, 1, 53, 0
2, 24120, Note_off_c, 1, 60, 0
2, 24120, Note_off_c, 1, 65, 0
2, 24120, Note_off_c, 1, 69, 0
2, 24160, Note_on_c, 1, 48, 127
2, 24160, Note_on_c, 1, 53, 127
2, 24160, Note_on_c, 1, 60, 127
2, 24160, Note_on_c, 1, 65, 127
2, 24160, Note_on_c, 1, 69, 127
2, 24520, Note_on_c, 1, 34, 127
2, 24520, Note_off_c, 1, 48, 0
2, 24520, Note_on_c, 1, 50, 127
2, 24520, Note_off_c, 1, 53, 0
2, 24520, Note_off_c, 1, 60, 0
2, 24520, Note_off_c, 1, 65, 0
2, 24520, Note_off_c, 1, 69, 0
2, 24560, Note_off_c, 1, 34, 0
2, 24560, Note_on_c, 1, 48, 127
2, 24560, Note_off_c, 1, 50, 0
2, 24560, Note_on_c, 1, 53, 127
2, 24560, Note_on_c, 1, 60, 127
2, 24560, Note_on_c, 1, 65, 127
2, 24560, Note_on_c, 1, 69, 127
2, 24600, Note_off_c, 1, 69, 0
2, 24640, Note_on_c, 1, 69, 127
2, 24720, Note_off_c, 1, 69, 0
2, 24760, Note_on_c, 1, 69, 127
2, 24920, Note_off_c, 1, 48, 0
2, 24920, Note_off_c, 1, 53, 0
2, 24920, Note_off_c, 1, 60, 0
2, 24920, Note_off_c, 1, 65, 0
2, 24920, Note_off_c, 1, 69, 0
2, 24960, Note_on_c, 1, 48, 127
2, 24960, Note_on_c, 1, 53, 127
2, 24960, Note_on_c, 1, 60, 127
2, 24960, Note_on_c, 1, 65, 127
2, 24960, Note_on_c, 1, 69, 127
2, 25240, Note_off_c, 1, 48, 0
2, 25240, Note_off_c, 1, 53, 0
2, 25240, Note_off_c, 1, 60, 0
2, 25240, Note_off_c, 1, 65, 0
2, 25240, Note_off_c, 1, 69, 0
2, 25280, Note_on_c, 1, 48, 127
2, 25280, Note_on_c, 1, 53, 127
2, 25280, Note_on_c, 1, 60, 127
2, 25280, Note_on_c, 1, 65, 127
2, 25280, Note_on_c, 1, 69, 127
2, 25760, Note_off_c, 1, 48, 0
2, 25760, Note_off_c, 1, 53, 0
2, 25760, Note_off_c, 1, 60, 0
2, 25760, Note_off_c, 1, 65, 0
2, 25760, Note_off_c, 1, 69, 0
2, 25800, Note_on_c, 1, 47, 127
2, 25800, Note_on_c, 1, 59, 127
2, 25800, Note_on_c, 1, 63, 127
2, 25800, Note_on_c, 1, 68, 127
2, 26160, Note_off_c, 1, 47, 0
2, 26160, Note_off_c, 1, 59, 0
2, 26160, Note_off_c, 1, 63, 0
2, 26160, Note_off_c, 1, 68, 0
2, 26200, Note_on_c, 1, 47, 127
2, 26200, Note_on_c, 1, 59, 127
2, 26200, Note_on_c, 1, 63, 127
2, 26200, Note_on_c, 1, 68, 127
2, 26560, Note_off_c, 1, 47, 0
2, 26560, Note_off_c, 1, 59, 0
2, 26560, Note_off_c, 1, 63, 0
2, 26560, Note_off_c, 1, 68, 0
2, 26600, Note_on_c, 1, 39, 127
2, 26600, Note_on_c, 1, 48, 127
2, 26600, Note_on_c, 1, 63, 127
2, 26960, Note_off_c, 1, 39, 0
2, 26960, Note_off_c, 1, 48, 0
2, 27000, Note_on_c, 1, 48, 127
2, 27000, Note_on_c, 1, 51, 127
2, 27320, Note_off_c, 1, 48, 0
2, 27320, Note_off_c, 1, 51, 0
2, 27320, Note_off_c, 1, 63, 0
2, 27360, Note_on_c, 1, 48, 127
2, 27360, Note_on_c, 1, 51, 127
2, 27360, Note_on_c, 1, 63, 127
2, 27520, Note_off_c, 1, 48, 0
2, 27520, Note_off_c, 1, 51, 0
2, 27520, Note_off_c, 1, 63, 0
2, 27560, Note_on_c, 1, 48, 127
2, 27560, Note_on_c, 1, 51, 127
2, 27560, Note_on_c, 1, 63, 127
2, 27720, Note_on_c, 1, 29, 127
2, 27720, Note_off_c, 1, 48, 0
2, 27720, Note_off_c, 1, 51, 0
2, 27720, Note_on_c, 1, 54, 127
2, 27720, Note_off_c, 1, 63, 0
2, 27760, Note_off_c, 1, 29, 0
2, 27760, Note_off_c, 1, 54, 0
2, 27800, Note_on_c, 1, 49, 127
2, 27800, Note_on_c, 1, 51, 127
2, 27800, Note_on_c, 1, 65, 127
2, 28920, Note_off_c, 1, 49, 0
2, 28920, Note_off_c, 1, 51, 0
2, 28920, Note_off_c, 1, 65, 0
2, 28960, Note_on_c, 1, 49, 127
2, 28960, Note_on_c, 1, 56, 127
2, 28960, Note_on_c, 1, 61, 127
2, 28960, Note_on_c, 1, 65, 127
2, 29320, Note_off_c, 1, 56, 0
2, 29320, Note_off_c, 1, 61, 0
2, 29320, Note_off_c, 1, 65, 0
2, 29360, Note_on_c, 1, 56, 127
2, 29360, Note_on_c, 1, 61, 127
2, 29360, Note_on_c, 1, 65, 127
2, 29600, Note_off_c, 1, 49, 0
2, 29600, Note_off_c, 1, 56, 0
2, 29600, Note_off_c, 1, 61, 0
2, 29600, Note_off_c, 1, 65, 0
2, 29640, Note_on_c, 1, 49, 127
2, 29640, Note_on_c, 1, 56, 127
2, 29640, Note_on_c, 1, 61, 127
2, 29640, Note_on_c, 1, 65, 127
2, 29760, Note_off_c, 1, 49, 0
2, 29760, Note_off_c, 1, 56, 0
2, 29760, Note_off_c, 1, 61, 0
2, 29760, Note_off_c, 1, 65, 0
2, 29800, Note_on_c, 1, 49, 127
2, 29800, Note_on_c, 1, 56, 127
2, 29800, Note_on_c, 1, 61, 127
2, 29800, Note_on_c, 1, 65, 127
2, 30160, Note_off_c, 1, 49, 0
2, 30160, Note_off_c, 1, 56, 0
2, 30160, Note_off_c, 1, 61, 0
2, 30160, Note_off_c, 1, 65, 0
2, 30200, Note_on_c, 1, 51, 127
2, 30200, Note_on_c, 1, 56, 127
2, 30200, Note_on_c, 1, 60, 127
2, 30200, Note_on_c, 1, 66, 127
2, 30560, Note_off_c, 1, 51, 0
2, 30560, Note_off_c, 1, 56, 0
2, 30560, Note_off_c, 1, 60, 0
2, 30560, Note_off_c, 1, 66, 0
2, 30600, Note_on_c, 1, 49, 127
2, 30600, Note_on_c, 1, 56, 127
2, 30600, Note_on_c, 1, 61, 127
2, 30600, Note_on_c, 1, 65, 127
2, 30960, Note_off_c, 1, 49, 0
2, 30960, Note_off_c, 1, 56, 0
2, 30960, Note_off_c, 1, 61, 0
2, 30960, Note_off_c, 1, 65, 0
2, 31000, Note_on_c, 1, 51, 127
2, 31000, Note_on_c, 1, 56, 127
2, 31000, Note_on_c, 1, 60, 127
2, 31000, Note_on_c, 1, 66, 127
2, 31360, Note_off_c, 1, 51, 0
2, 31360, Note_off_c, 1, 56, 0
2, 31360, Note_off_c, 1, 60, 0
2, 31360, Note_off_c, 1, 66, 0
2, 31400, Note_on_c, 1, 49, 127
2, 31400, Note_on_c, 1, 56, 127
2, 31400, Note_on_c, 1, 61, 127
2, 31400, Note_on_c, 1, 65, 127
2, 31600, Note_off_c, 1, 49, 0
2, 31600, Note_off_c, 1, 56, 0
2, 31600, Note_off_c, 1, 61, 0
2, 31600, Note_off_c, 1, 65, 0
2, 31640, Note_on_c, 1, 49, 127
2, 31640, Note_on_c, 1, 56, 127
2, 31640, Note_on_c, 1, 61, 127
2, 31640, Note_on_c, 1, 65, 127
2, 31800, Note_off_c, 1, 56, 0
2, 31800, Note_off_c, 1, 61, 0
2, 31800, Note_off_c, 1, 65, 0
2, 31840, Note_on_c, 1, 56, 127
2, 31840, Note_on_c, 1, 65, 127
2, 31840, Note_on_c, 1, 68, 127
2, 32200, Note_off_c, 1, 49, 0
2, 32200, Note_off_c, 1, 56, 0
2, 32200, Note_off_c, 1, 65, 0
2, 32200, Note_off_c, 1, 68, 0
2, 32240, Note_on_c, 1, 42, 127
2, 32240, Note_on_c, 1, 49, 127
2, 32240, Note_on_c, 1, 58, 127
2, 32240, Note_on_c, 1, 61, 127
2, 32600, Note_off_c, 1, 42, 0
2, 32600, Note_off_c, 1, 49, 0
2, 32600, Note_off_c, 1, 58, 0
2, 32600, Note_off_c, 1, 61, 0
2, 32640, Note_on_c, 1, 42, 127
2, 32640, Note_on_c, 1, 49, 127
2, 32640, Note_on_c, 1, 54, 127
2, 32640, Note_on_c, 1, 58, 127
2, 32640, Note_on_c, 1, 61, 127
2, 32640, Note_on_c, 1, 70, 127
2, 32920, Note_on_c, 1, 41, 127
2, 32920, Note_off_c, 1, 42, 0
2, 32920, Note_on_c, 1, 53, 127
2, 32920, Note_off_c, 1, 54, 0
2, 32920, Note_on_c, 1, 56, 127
2, 32920, Note_off_c, 1, 58, 0
2, 32920, Note_on_c, 1, 68, 127
2, 32920, Note_off_c, 1, 70, 0
2, 32960, Note_off_c, 1, 41, 0
2, 32960, Note_on_c, 1, 42, 127
2, 32960, Note_off_c, 1, 53, 0
2, 32960, Note_on_c, 1, 54, 127
2, 32960, Note_off_c, 1, 56, 0
2, 32960, Note_on_c, 1, 58, 127
2, 32960, Note_off_c, 1, 68, 0
2, 32960, Note_on_c, 1, 70, 127
2, 33000, Note_off_c, 1, 42, 0
2, 33000, Note_off_c, 1, 49, 0
2, 33000, Note_off_c, 1, 54, 0
2, 33000, Note_off_c, 1, 58, 0
2, 33000, Note_off_c, 1, 61, 0
2, 33000, Note_off_c, 1, 70, 0
2, 33040, Note_on_c, 1, 51, 127
2, 33040, Note_on_c, 1, 55, 127
2, 33040, Note_on_c, 1, 58, 127
2, 33040, Note_on_c, 1, 67, 127
2, 33400, Note_off_c, 1, 55, 0
2, 33400, Note_off_c, 1, 58, 0
2, 33440, Note_on_c, 1, 55, 127
2, 33440, Note_on_c, 1, 58, 127
2, 33440, Note_off_c, 1, 67, 0
2, 33440, Note_on_c, 1, 68, 127
2, 33600, Note_off_c, 1, 51, 0
2, 33600, Note_off_c, 1, 55, 0
2, 33600, Note_off_c, 1, 58, 0
2, 33600, Note_off_c, 1, 68, 0
2, 33640, Note_on_c, 1, 51, 127
2, 33640, Note_on_c, 1, 55, 127
2, 33640, Note_on_c, 1, 58, 127
2, 33640, Note_on_c, 1, 68, 127
2, 33800, Note_on_c, 1, 67, 127
2, 33800, Note_off_c, 1, 68, 0
2, 33840, Note_off_c, 1, 51, 0
2, 33840, Note_off_c, 1, 55, 0
2, 33840, Note_off_c, 1, 58, 0
2, 33840, Note_off_c, 1, 67, 0
2, 33880, Note_on_c, 1, 49, 127
2, 33880, Note_on_c, 1, 55, 127
2, 33880, Note_on_c, 1, 58, 127
2, 33880, Note_on_c, 1, 65, 127
2, 34200, Note_off_c, 1, 65, 0
2, 34200, Note_on_c, 1, 67, 127
2, 34240, Note_on_c, 1, 48, 127
2, 34240, Note_off_c, 1, 49, 0
2, 34240, Note_on_c, 1, 54, 127
2, 34240, Note_off_c, 1, 55, 0
2, 34240, Note_off_c, 1, 58, 0
2, 34240, Note_off_c, 1, 67, 0
2, 34240, Note_on_c, 1, 70, 127
2, 34280, Note_off_c, 1, 48, 0
2, 34280, Note_on_c, 1, 49, 127
2, 34280, Note_off_c, 1, 54, 0
2, 34280, Note_on_c, 1, 55, 127
2, 34280, Note_on_c, 1, 58, 127
2, 34280, Note_on_c, 1, 67, 127
2, 34280, Note_off_c, 1, 70, 0
2, 34640, Note_off_c, 1, 49, 0
2, 34640, Note_on_c, 1, 53, 127
2, 34640, Note_off_c, 1, 55, 0
2, 34640, Note_off_c, 1, 58, 0
2, 34640, Note_off_c, 1, 67, 0
2, 34680, Note_on_c, 1, 49, 127
2, 34680, Note_off_c, 1, 53, 0
2, 34680, Note_on_c, 1, 55, 127
2, 34680, Note_on_c, 1, 58, 127
2, 34680, Note_on_c, 1, 67, 127
2, 35040, Note_off_c, 1, 49, 0
2, 35040, Note_off_c, 1, 55, 0
2, 35040, Note_off_c, 1, 58, 0
2, 35040, Note_off_c, 1, 67, 0
2, 35080, Note_on_c, 1, 48, 127
2, 35080, Note_on_c, 1, 50, 127
2, 35080, Note_on_c, 1, 54, 127
2, 35080, Note_on_c, 1, 60, 127
2, 35080, Note_on_c, 1, 72, 127
2, 35080, Note_on_c, 1, 74, 127
2, 35080, Note_on_c, 1, 78, 127
2, 35080, Note_on_c, 1, 84, 127
2, 35440, Note_off_c, 1, 48, 0
2, 35440, Note_off_c, 1, 50, 0
2, 35440, Note_off_c, 1, 54, 0
2, 35440, Note_off_c, 1, 60, 0
2, 35440, Note_off_c, 1, 72, 0
2, 35440, Note_off_c, 1, 74, 0
2, 35440, Note_off_c, 1, 78, 0
2, 35440, Note_off_c, 1, 84, 0
2, 35480, Note_on_c, 1, 48, 127
2, 35480, Note_on_c, 1, 63, 127
2, 35480, Note_on_c, 1, 66, 127
2, 35480, Note_on_c, 1, 70, 127
2, 35680, Note_off_c, 1, 48, 0
2, 35680, Note_off_c, 1, 63, 0
2, 35680, Note_off_c, 1, 66, 0
2, 35680, Note_off_c, 1, 70, 0
2, 35720, Note_on_c, 1, 48, 127
2, 35720, Note_on_c, 1, 63, 127
2, 35720, Note_on_c, 1, 66, 127
2, 35720, Note_on_c, 1, 70, 127
2, 35880, Note_off_c, 1, 48, 0
2, 35880, Note_off_c, 1, 63, 0
2, 35880, Note_off_c, 1, 66, 0
2, 35880, Note_off_c, 1, 70, 0
2, 35920, Note_on_c, 1, 44, 127
2, 35920, Note_on_c, 1, 60, 127
2, 35920, Note_on_c, 1, 63, 127
2, 35920, Note_on_c, 1, 66, 127
2, 36680, Note_off_c, 1, 44, 0
2, 36680, Note_off_c, 1, 60, 0
2, 36680, Note_off_c, 1, 63, 0
2, 36680, Note_off_c, 1, 66, 0
2, 36720, Note_on_c, 1, 44, 127
2, 36720, Note_on_c, 1, 60, 127
2, 36720, Note_on_c, 1, 63, 127
2, 36720, Note_on_c, 1, 66, 127
2, 37800, Note_off_c, 1, 44, 0
2, 37800, Note_off_c, 1, 60, 0
2, 37800, Note_off_c, 1, 63, 0
2, 37800, Note_off_c, 1, 66, 0
2, 37840, Note_on_c, 1, 44, 127
2, 37840, Note_on_c, 1, 60, 127
2, 37840, Note_on_c, 1, 63, 127
2, 37840, Note_on_c, 1, 66, 127
2, 37920, Note_off_c, 1, 44, 0
2, 37920, Note_off_c, 1, 60, 0
2, 37920, Note_off_c, 1, 63, 0
2, 37920, Note_off_c, 1, 66, 0
2, 37960, Note_on_c, 1, 49, 127
2, 37960, Note_on_c, 1, 56, 127
2, 37960, Note_on_c, 1, 61, 127
2, 37960, Note_on_c, 1, 65, 127
2, 38320, Note_off_c, 1, 49, 0
2, 38320, Note_off_c, 1, 56, 0
2, 38320, Note_off_c, 1, 61, 0
2, 38320, Note_off_c, 1, 65, 0
2, 38360, Note_on_c, 1, 48, 127
2, 38360, Note_on_c, 1, 56, 127
2, 38360, Note_on_c, 1, 63, 127
2, 38720, Note_off_c, 1, 56, 0
2, 38760, Note_on_c, 1, 51, 127
2, 39120, Note_off_c, 1, 51, 0
2, 39160, Note_on_c, 1, 56, 127
2, 39920, Note_off_c, 1, 48, 0
2, 39920, Note_off_c, 1, 56, 0
2, 39920, Note_off_c, 1, 63, 0
2, 39960, Note_on_c, 1, 29, 127
2, 39960, Note_on_c, 1, 53, 127
2, 39960, Note_on_c, 1, 56, 127
2, 39960, Note_on_c, 1, 63, 127
2, 39960, Note_on_c, 1, 75, 127
2, 40000, Note_off_c, 1, 29, 0
2, 40000, Note_off_c, 1, 53, 0
2, 40000, Note_off_c, 1, 56, 0
2, 40000, Note_off_c, 1, 63, 0
2, 40000, Note_off_c, 1, 75, 0
2, 40040, Note_on_c, 1, 44, 127
2, 40040, Note_on_c, 1, 56, 127
2, 40040, Note_on_c, 1, 79, 127
2, 40040, Note_on_c, 1, 82, 127
2, 40040, Note_on_c, 1, 85, 127
2, 40040, Note_on_c, 1, 88, 127
2, 40040, Note_on_c, 1, 91, 127
2, 40080, Note_on_c, 1, 32, 127
2, 40080, Note_on_c, 1, 36, 127
2, 40080, Note_on_c, 1, 39, 127
2, 40080, Note_off_c, 1, 56, 0
2, 40080, Note_on_c, 1, 60, 127
2, 40080, Note_on_c, 1, 63, 127
2, 40080, Note_on_c, 1, 68, 127
2, 40080, Note_off_c, 1, 79, 0
2, 40080, Note_off_c, 1, 82, 0
2, 40080, Note_off_c, 1, 85, 0
2, 40080, Note_off_c, 1, 88, 0
2, 40080, Note_off_c, 1, 91, 0
2, 40160, Note_off_c, 1, 32, 0
2, 40160, Note_off_c, 1, 36, 0
2, 40160, Note_off_c, 1, 39, 0
2, 40160, Note_off_c, 1, 44, 0
2, 40160, Note_on_c, 1, 54, 127
2, 40160, Note_on_c, 1, 56, 127
2, 40160, Note_off_c, 1, 60, 0
2, 40160, Note_on_c, 1, 61, 127
2, 40160, Note_off_c, 1, 63, 0
2, 40160, Note_on_c, 1, 66, 127
2, 40160, Note_off_c, 1, 68, 0
2, 40200, Note_on_c, 1, 40, 127
2, 40200, Note_on_c, 1, 47, 127
2, 40200, Note_off_c, 1, 54, 0
2, 40200, Note_on_c, 1, 55, 127
2, 40200, Note_off_c, 1, 56, 0
2, 40200, Note_off_c, 1, 61, 0
2, 40200, Note_off_c, 1, 66, 0
2, 40200, Note_on_c, 1, 67, 127
2, 40200, Note_on_c, 1, 70, 127
2, 40200, Note_on_c, 1, 79, 127
2, 40240, Note_on_c, 1, 36, 127
2, 40240, Note_off_c, 1, 40, 0
2, 40240, Note_on_c, 1, 44, 127
2, 40240, Note_off_c, 1, 47, 0
2, 40240, Note_off_c, 1, 55, 0
2, 40240, Note_off_c, 1, 70, 0
2, 40240, Note_off_c, 1, 79, 0
2, 40280, Note_off_c, 1, 36, 0
2, 40280, Note_off_c, 1, 44, 0
2, 40280, Note_on_c, 1, 54, 127
2, 40280, Note_on_c, 1, 56, 127
2, 40280, Note_on_c, 1, 61, 127
2, 40280, Note_on_c, 1, 66, 127
2, 40280, Note_off_c, 1, 67, 0
2, 40320, Note_off_c, 1, 54, 0
2, 40320, Note_off_c, 1, 56, 0
2, 40320, Note_off_c, 1, 61, 0
2, 40320, Note_off_c, 1, 66, 0
2, 40320, Note_on_c, 1, 76, 127
2, 40320, Note_on_c, 1, 79, 127
2, 40320, Note_on_c, 1, 83, 127
2, 40320, Note_on_c, 1, 86, 127
2, 40320, Note_on_c, 1, 91, 127
2, 40360, Note_on_c, 1, 44, 127
2, 40360, Note_off_c, 1, 76, 0
2, 40360, Note_off_c, 1, 79, 0
2, 40360, Note_off_c, 1, 83, 0
2, 40360, Note_off_c, 1, 86, 0
2, 40360, Note_off_c, 1, 91, 0
2, 40400, Note_on_c, 1, 38, 127
2, 40400, Note_off_c, 1, 44, 0
2, 40400, Note_on_c, 1, 55, 127
2, 40400, Note_on_c, 1, 59, 127
2, 40400, Note_on_c, 1, 64, 127
2, 40400, Note_on_c, 1, 67, 127
2, 40760, Note_off_c, 1, 38, 0
2, 40760, Note_off_c, 1, 55, 0
2, 40760, Note_off_c, 1, 59, 0
2, 40760, Note_off_c, 1, 64, 0
2, 40760, Note_off_c, 1, 67, 0
2, 40800, Note_on_c, 1, 42, 127
2, 40800, Note_on_c, 1, 49, 127
2, 40800, Note_on_c, 1, 58, 127
2, 40800, Note_on_c, 1, 61, 127
2, 40800, Note_on_c, 1, 66, 127
2, 41160, Note_off_c, 1, 42, 0
2, 41160, Note_off_c, 1, 49, 0
2, 41160, Note_off_c, 1, 58, 0
2, 41160, Note_off_c, 1, 61, 0
2, 41160, Note_off_c, 1, 66, 0
2, 41200, Note_on_c, 1, 37, 127
2, 41200, Note_on_c, 1, 49, 127
2, 41200, Note_on_c, 1, 68, 127
2, 41200, Note_on_c, 1, 73, 127
2, 41200, Note_on_c, 1, 77, 127
2, 41200, Note_on_c, 1, 80, 127
2, 41560, Note_off_c, 1, 37, 0
2, 41560, Note_off_c, 1, 49, 0
2, 41560, Note_off_c, 1, 68, 0
2, 41560, Note_off_c, 1, 73, 0
2, 41560, Note_off_c, 1, 77, 0
2, 41560, Note_off_c, 1, 80, 0
2, 41600, Note_on_c, 1, 53, 127
2, 41600, Note_on_c, 1, 63, 127
2, 41600, Note_on_c, 1, 66, 127
2, 41600, Note_on_c, 1, 69, 127
2, 41600, Note_on_c, 1, 72, 127
2, 41600, Note_on_c, 1, 75, 127
2, 41600, Note_on_c, 1, 78, 127
2, 42040, Note_off_c, 1, 53, 0
2, 42040, Note_off_c, 1, 63, 0
2, 42040, Note_off_c, 1, 66, 0
2, 42040, Note_off_c, 1, 69, 0
2, 42040, Note_off_c, 1, 72, 0
2, 42040, Note_off_c, 1, 75, 0
2, 42040, Note_off_c, 1, 78, 0
2, 42080, Note_on_c, 1, 53, 127
2, 42080, Note_on_c, 1, 63, 127
2, 42080, Note_on_c, 1, 66, 127
2, 42080, Note_on_c, 1, 69, 127
2, 42080, Note_on_c, 1, 72, 127
2, 42080, Note_on_c, 1, 75, 127
2, 42080, Note_on_c, 1, 78, 127
2, 42400, Note_off_c, 1, 53, 0
2, 42400, Note_off_c, 1, 63, 0
2, 42400, Note_off_c, 1, 66, 0
2, 42400, Note_off_c, 1, 69, 0
2, 42400, Note_off_c, 1, 72, 0
2, 42400, Note_off_c, 1, 75, 0
2, 42400, Note_off_c, 1, 78, 0
2, 42440, Note_on_c, 1, 53, 127
2, 42440, Note_on_c, 1, 63, 127
2, 42440, Note_on_c, 1, 66, 127
2, 42440, Note_on_c, 1, 69, 127
2, 42440, Note_on_c, 1, 72, 127
2, 42440, Note_on_c, 1, 75, 127
2, 42440, Note_on_c, 1, 78, 127
2, 43200, Note_off_c, 1, 53, 0
2, 43200, Note_off_c, 1, 63, 0
2, 43200, Note_off_c, 1, 66, 0
2, 43200, Note_off_c, 1, 69, 0
2, 43200, Note_off_c, 1, 72, 0
2, 43200, Note_off_c, 1, 75, 0
2, 43200, Note_off_c, 1, 78, 0
2, 43240, Note_on_c, 1, 53, 127
2, 43240, Note_on_c, 1, 63, 127
2, 43240, Note_on_c, 1, 66, 127
2, 43240, Note_on_c, 1, 69, 127
2, 43240, Note_on_c, 1, 72, 127
2, 43240, Note_on_c, 1, 75, 127
2, 43240, Note_on_c, 1, 78, 127
2, 44000, Note_off_c, 1, 53, 0
2, 44000, Note_off_c, 1, 63, 0
2, 44000, Note_off_c, 1, 66, 0
2, 44000, Note_off_c, 1, 69, 0
2, 44000, Note_off_c, 1, 72, 0
2, 44000, Note_off_c, 1, 75, 0
2, 44000, Note_off_c, 1, 78, 0
2, 44080, Note_on_c, 1, 45, 127
2, 44080, Note_on_c, 1, 49, 127
2, 44080, Note_on_c, 1, 61, 127
2, 44080, Note_on_c, 1, 66, 127
2, 44080, Note_on_c, 1, 73, 127
2, 44480, Note_off_c, 1, 49, 0
2, 44480, Note_on_c, 1, 50, 127
2, 44840, Note_on_c, 1, 49, 127
2, 44840, Note_off_c, 1, 50, 0
2, 45200, Note_off_c, 1, 45, 0
2, 45200, Note_off_c, 1, 49, 0
2, 45200, Note_off_c, 1, 61, 0
2, 45200, Note_off_c, 1, 66, 0
2, 45200, Note_off_c, 1, 73, 0
2, 45240, Note_on_c, 1, 32, 127
2, 45240, Note_on_c, 1, 36, 127
2, 45240, Note_on_c, 1, 39, 127
2, 45240, Note_on_c, 1, 44, 127
2, 45240, Note_on_c, 1, 56, 127
2, 45240, Note_on_c, 1, 60, 127
2, 45240, Note_on_c, 1, 63, 127
2, 45240, Note_on_c, 1, 68, 127
2, 46000, Note_off_c, 1, 32, 0
2, 46000, Note_off_c, 1, 36, 0
2, 46000, Note_off_c, 1, 39, 0
2, 46000, Note_off_c, 1, 44, 0
2, 46000, Note_off_c, 1, 56, 0
2, 46000, Note_off_c, 1, 60, 0
2, 46000, Note_off_c, 1, 63, 0
2, 46000, Note_off_c, 1, 68, 0
2, 46040, Note_on_c, 1, 32, 127
2, 46040, Note_on_c, 1, 36, 127
2, 46040, Note_on_c, 1, 39, 127
2, 46040, Note_on_c, 1, 44, 127
2, 46040, Note_on_c, 1, 56, 127
2, 46040, Note_on_c, 1, 60, 127
2, 46040, Note_on_c, 1, 63, 127
2, 46040, Note_on_c, 1, 68, 127
2, 47880, Note_off_c, 1, 68, 0
2, 47920, Note_on_c, 1, 68, 127
2, 48520, Note_off_c, 1, 32, 0
2, 48520, Note_off_c, 1, 36, 0
2, 48520, Note_off_c, 1, 39, 0
2, 48520, Note_off_c, 1, 44, 0
2, 48520, Note_off_c, 1, 56, 0
2, 48520, Note_off_c, 1, 60, 0
2, 48520, Note_off_c, 1, 63, 0
2, 48520, Note_off_c, 1, 68, 0
2, 48560, Note_on_c, 1, 32, 127
2, 48560, Note_on_c, 1, 36, 127
2, 48560, Note_on_c, 1, 39, 127
2, 48560, Note_on_c, 1, 44, 127
2, 48560, Note_on_c, 1, 56, 127
2, 48560, Note_on_c, 1, 60, 127
2, 48560, Note_on_c, 1, 63, 127
2, 48560, Note_on_c, 1, 68, 127
2, 51000, Note_off_c, 1, 68, 0
2, 51040, Note_off_c, 1, 32, 0
2, 51040, Note_off_c, 1, 36, 0
2, 51040, Note_off_c, 1, 39, 0
2, 51040, Note_off_c, 1, 44, 0
2, 51040, Note_off_c, 1, 56, 0
2, 51040, Note_off_c, 1, 60, 0
2, 51040, Note_off_c, 1, 63, 0
2, 51080, Note_on_c, 1, 32, 127
2, 51080, Note_on_c, 1, 36, 127
2, 51080, Note_on_c, 1, 39, 127
2, 51080, Note_on_c, 1, 44, 127
2, 51080, Note_on_c, 1, 56, 127
2, 51080, Note_on_c, 1, 60, 127
2, 51080, Note_on_c, 1, 63, 127
2, 51080, Note_on_c, 1, 68, 127
2, 53480, Note_off_c, 1, 32, 0
2, 53480, Note_off_c, 1, 36, 0
2, 53480, Note_off_c, 1, 39, 0
2, 53480, Note_off_c, 1, 44, 0
2, 53480, Note_off_c, 1, 56, 0
2, 53480, Note_off_c, 1, 60, 0
2, 53480, Note_off_c, 1, 63, 0
2, 53480, Note_off_c, 1, 68, 0
2, 53520, Note_on_c, 1, 32, 127
2, 53520, Note_on_c, 1, 36, 127
2, 53520, Note_on_c, 1, 39, 127
2, 53520, Note_on_c, 1, 44, 127
2, 53520, Note_on_c, 1, 56, 127
2, 53520, Note_on_c, 1, 60, 127
2, 53520, Note_on_c, 1, 63, 127
2, 53520, Note_on_c, 1, 68, 127
2, 55360, Note_off_c, 1, 68, 0
2, 55400, Note_on_c, 1, 68, 127
2, 55520, Note_off_c, 1, 68, 0
2, 55560, Note_on_c, 1, 68, 127
2, 55760, Note_off_c, 1, 32, 0
2, 55760, Note_off_c, 1, 36, 0
2, 55760, Note_off_c, 1, 39, 0
2, 55760, Note_off_c, 1, 44, 0
2, 55760, Note_off_c, 1, 56, 0
2, 55760, Note_off_c, 1, 60, 0
2, 55760, Note_off_c, 1, 63, 0
2, 55760, Note_off_c, 1, 68, 0
2, 55800, Note_on_c, 1, 32, 127
2, 55800, Note_on_c, 1, 36, 127
2, 55800, Note_on_c, 1, 39, 127
2, 55800, Note_on_c, 1, 44, 127
2, 55800, Note_on_c, 1, 56, 127
2, 55800, Note_on_c, 1, 60, 127
2, 55800, Note_on_c, 1, 63, 127
2, 55800, Note_on_c, 1, 68, 127
2, 58000, Note_off_c, 1, 32, 0
2, 58000, Note_off_c, 1, 36, 0
2, 58000, Note_off_c, 1, 39, 0
2, 58000, Note_off_c, 1, 44, 0
2, 58000, Note_off_c, 1, 56, 0
2, 58000, Note_off_c, 1, 60, 0
2, 58000, Note_off_c, 1, 63, 0
2, 58000, Note_off_c, 1, 68, 0
2, 58040, Note_on_c, 1, 32, 127
2, 58040, Note_on_c, 1, 36, 127
2, 58040, Note_on_c, 1, 39, 127
2, 58040, Note_on_c, 1, 44, 127
2, 58040, Note_on_c, 1, 56, 127
2, 58040, Note_on_c, 1, 60, 127
2, 58040, Note_on_c, 1, 63, 127
2, 58040, Note_on_c, 1, 68, 127
2, 60560, Note_off_c, 1, 32, 0
2, 60560, Note_off_c, 1, 36, 0
2, 60560, Note_off_c, 1, 39, 0
2, 60560, Note_off_c, 1, 44, 0
2, 60560, Note_off_c, 1, 56, 0
2, 60560, Note_off_c, 1, 60, 0
2, 60560, Note_off_c, 1, 63, 0
2, 60560, Note_off_c, 1, 68, 0
2, 60600, Note_on_c, 1, 32, 127
2, 60600, Note_on_c, 1, 36, 127
2, 60600, Note_on_c, 1, 39, 127
2, 60600, Note_on_c, 1, 44, 127
2, 60600, Note_on_c, 1, 56, 127
2, 60600, Note_on_c, 1, 60, 127
2, 60600, Note_on_c, 1, 63, 127
2, 60600, Note_on_c, 1, 68, 127
2, 63280, Note_off_c, 1, 32, 0
2, 63280, Note_off_c, 1, 36, 0
2, 63280, Note_off_c, 1, 39, 0
2, 63280, Note_off_c, 1, 44, 0
2, 63280, Note_off_c, 1, 56, 0
2, 63280, Note_off_c, 1, 60, 0
2, 63280, Note_off_c, 1, 63, 0
2, 63280, Note_off_c, 1, 68, 0
2, 63320, Note_on_c, 1, 32, 127
2, 63320, Note_on_c, 1, 36, 127
2, 63320, Note_on_c, 1, 39, 127
2, 63320, Note_on_c, 1, 44, 127
2, 63320, Note_on_c, 1, 56, 127
2, 63320, Note_on_c, 1, 60, 127
2, 63320, Note_on_c, 1, 63, 127
2, 63320, Note_on_c, 1, 68, 127
2, 65040, Note_off_c, 1, 32, 0
2, 65040, Note_off_c, 1, 36, 0
2, 65040, Note_off_c, 1, 39, 0
2, 65040, Note_off_c, 1, 44, 0
2, 65040, Note_off_c, 1, 56, 0
2, 65040, Note_off_c, 1, 60, 0
2, 65040, Note_off_c, 1, 63, 0
2, 65040, Note_off_c, 1, 68, 0
2, 65640, Note_on_c, 1, 54, 127
2, 65640, Note_on_c, 1, 63, 127
2, 65640, Note_on_c, 1, 84, 127
2, 65640, Note_on_c, 1, 87, 127
2, 65680, Note_off_c, 1, 54, 0
2, 65680, Note_on_c, 1, 57, 127
2, 65680, Note_off_c, 1, 63, 0
2, 65680, Note_on_c, 1, 67, 127
2, 65680, Note_on_c, 1, 69, 127
2, 65680, Note_on_c, 1, 74, 127
2, 65680, Note_off_c, 1, 84, 0
2, 65680, Note_off_c, 1, 87, 0
2, 65720, Note_on_c, 1, 52, 127
2, 65720, Note_on_c, 1, 60, 127
2, 65720, Note_on_c, 1, 64, 127
2, 65720, Note_off_c, 1, 67, 0
2, 65720, Note_off_c, 1, 69, 0
2, 65720, Note_on_c, 1, 71, 127
2, 65760, Note_off_c, 1, 57, 0
2, 65760, Note_off_c, 1, 60, 0
2, 65760, Note_on_c, 1, 63, 127
2, 65760, Note_off_c, 1, 64, 0
2, 65760, Note_on_c, 1, 69, 127
2, 65760, Note_off_c, 1, 71, 0
2, 65760, Note_on_c, 1, 72, 127
2, 65760, Note_off_c, 1, 74, 0
2, 65760, Note_on_c, 1, 78, 127
2, 65800, Note_on_c, 1, 44, 127
2, 65800, Note_off_c, 1, 52, 0
2, 65800, Note_off_c, 1, 63, 0
2, 65800, Note_off_c, 1, 69, 0
2, 65800, Note_off_c, 1, 72, 0
2, 65800, Note_off_c, 1, 78, 0
2, 65800, Note_on_c, 1, 83, 127
2, 65800, Note_on_c, 1, 86, 127
2, 65840, Note_off_c, 1, 44, 0
2, 65840, Note_on_c, 1, 49, 127
2, 65840, Note_on_c, 1, 56, 127
2, 65840, Note_on_c, 1, 63, 127
2, 65840, Note_on_c, 1, 71, 127
2, 65840, Note_on_c, 1, 80, 127
2, 65840, Note_off_c, 1, 83, 0
2, 65840, Note_off_c, 1, 86, 0
2, 65880, Note_on_c, 1, 38, 127
2, 65880, Note_on_c, 1, 45, 127
2, 65880, Note_off_c, 1, 49, 0
2, 65880, Note_off_c, 1, 56, 0
2, 65880, Note_on_c, 1, 57, 127
2, 65880, Note_on_c, 1, 62, 127
2, 65880, Note_off_c, 1, 63, 0
2, 65880, Note_on_c, 1, 66, 127
2, 65880, Note_off_c, 1, 71, 0
2, 65880, Note_off_c, 1, 80, 0
2, 65920, Note_off_c, 1, 38, 0
2, 65920, Note_off_c, 1, 45, 0
2, 65920, Note_on_c, 1, 49, 127
2, 65920, Note_on_c, 1, 56, 127
2, 65920, Note_off_c, 1, 57, 0
2, 65920, Note_off_c, 1, 62, 0
2, 65920, Note_on_c, 1, 63, 127
2, 65920, Note_off_c, 1, 66, 0
2, 65920, Note_on_c, 1, 71, 127
2, 65920, Note_on_c, 1, 80, 127
2, 65960, Note_off_c, 1, 49, 0
2, 65960, Note_on_c, 1, 51, 127
2, 65960, Note_on_c, 1, 55, 127
2, 65960, Note_off_c, 1, 56, 0
2, 65960, Note_on_c, 1, 60, 127
2, 65960, Note_off_c, 1, 63, 0
2, 65960, Note_on_c, 1, 67, 127
2, 65960, Note_off_c, 1, 71, 0
2, 65960, Note_on_c, 1, 72, 127
2, 65960, Note_on_c, 1, 79, 127
2, 65960, Note_off_c, 1, 80, 0
2, 66000, Note_on_c, 1, 34, 127
2, 66000, Note_on_c, 1, 38, 127
2, 66000, Note_on_c, 1, 42, 127
2, 66000, Note_off_c, 1, 51, 0
2, 66000, Note_on_c, 1, 54, 127
2, 66000, Note_off_c, 1, 55, 0
2, 66000, Note_on_c, 1, 58, 127
2, 66000, Note_off_c, 1, 60, 0
2, 66000, Note_off_c, 1, 67, 0
2, 66000, Note_off_c, 1, 72, 0
2, 66000, Note_off_c, 1, 79, 0
2, 66040, Note_off_c, 1, 34, 0
2, 66040, Note_off_c, 1, 38, 0
2, 66040, Note_off_c, 1, 42, 0
2, 66040, Note_off_c, 1, 54, 0
2, 66040, Note_off_c, 1, 58, 0
2, 66040, Note_on_c, 1, 60, 127
2, 66040, Note_on_c, 1, 68, 127
2, 66040, Note_on_c, 1, 84, 127
2, 66040, Note_on_c, 1, 87, 127
2, 66080, Note_on_c, 1, 45, 127
2, 66080, Note_on_c, 1, 49, 127
2, 66080, Note_on_c, 1, 52, 127
2, 66080, Note_on_c, 1, 57, 127
2, 66080, Note_off_c, 1, 60, 0
2, 66080, Note_off_c, 1, 68, 0
2, 66080, Note_on_c, 1, 79, 127
2, 66080, Note_off_c, 1, 84, 0
2, 66080, Note_on_c, 1, 85, 127
2, 66080, Note_off_c, 1, 87, 0
2, 66080, Note_on_c, 1, 88, 127
2, 66080, Note_on_c, 1, 91, 127
2, 66120, Note_off_c, 1, 45, 0
2, 66120, Note_off_c, 1, 49, 0
2, 66120, Note_off_c, 1, 52, 0
2, 66120, Note_off_c, 1, 57, 0
2, 66120, Note_off_c, 1, 79, 0
2, 66120, Note_off_c, 1, 85, 0
2, 66120, Note_off_c, 1, 88, 0
2, 66120, Note_on_c, 1, 97, 127
2, 66160, Note_on_c, 1, 36, 127
2, 66160, Note_on_c, 1, 37, 127
2, 66160, Note_on_c, 1, 48, 127
2, 66160, Note_on_c, 1, 49, 127
2, 66160, Note_off_c, 1, 91, 0
2, 66160, Note_off_c, 1, 97, 0
2, 66200, Note_off_c, 1, 36, 0
2, 66200, Note_off_c, 1, 37, 0
2, 66200, Note_off_c, 1, 48, 0
2, 66200, Note_off_c, 1, 49, 0
2, 66240, Note_on_c, 1, 39, 127
2, 66240, Note_on_c, 1, 51, 127
2, 67120, Note_on_c, 1, 32, 127
2, 67120, Note_off_c, 1, 39, 0
2, 67120, Note_on_c, 1, 44, 127
2, 67120, Note_off_c, 1, 51, 0
2, 67200, Note_off_c, 1, 32, 0
2, 67200, Note_off_c, 1, 44, 0
2, 67200, Note_on_c, 1, 52, 127
2, 67240, Note_off_c, 1, 52, 0
2, 67280, Note_on_c, 1, 51, 127
2, 67320, Note_off_c, 1, 51, 0
2, 67360, Note_on_c, 1, 51, 127
2, 67400, Note_off_c, 1, 51, 0
2, 67440, Note_on_c, 1, 49, 127
2, 67480, Note_off_c, 1, 49, 0
2, 67520, Note_on_c, 1, 49, 127
2, 67560, Note_off_c, 1, 49, 0
2, 67600, Note_on_c, 1, 49, 127
2, 67640, Note_off_c, 1, 49, 0
2, 67720, Note_on_c, 1, 49, 127
2, 67760, Note_off_c, 1, 49, 0
2, 67800, Note_on_c, 1, 51, 127
2, 67880, Note_off_c, 1, 51, 0
2, 67920, Note_on_c, 1, 49, 127
2, 67960, Note_off_c, 1, 49, 0
2, 68000, Note_on_c, 1, 51, 127
2, 68120, Note_on_c, 1, 63, 127
2, 68160, Note_off_c, 1, 63, 0
2, 68400, Note_on_c, 1, 63, 127
2, 68440, Note_off_c, 1, 63, 0
2, 69160, Note_off_c, 1, 51, 0
2, 70400, Note_on_c, 1, 68, 127
2, 70680, Note_off_c, 1, 68, 0
2, 70800, Note_on_c, 1, 68, 127
2, 70800, Note_on_c, 1, 70, 127
2, 71120, Note_off_c, 1, 68, 0
2, 71120, Note_off_c, 1, 70, 0
2, 71200, Note_on_c, 1, 68, 127
2, 71520, Note_off_c, 1, 68, 0
2, 71640, Note_on_c, 1, 33, 127
2, 71640, Note_on_c, 1, 45, 127
2, 71640, Note_on_c, 1, 60, 127
2, 71640, Note_on_c, 1, 67, 127
2, 71640, Note_on_c, 1, 72, 127
2, 72360, Note_off_c, 1, 33, 0
2, 72360, Note_off_c, 1, 45, 0
2, 72360, Note_off_c, 1, 60, 0
2, 72360, Note_off_c, 1, 67, 0
2, 72360, Note_off_c, 1, 72, 0
2, 72440, Note_on_c, 1, 34, 127
2, 72440, Note_on_c, 1, 46, 127
2, 72440, Note_on_c, 1, 62, 127
2, 72440, Note_on_c, 1, 67, 127
2, 72440, Note_on_c, 1, 74, 127
2, 73200, Note_off_c, 1, 34, 0
2, 73200, Note_off_c, 1, 46, 0
2, 73200, Note_off_c, 1, 62, 0
2, 73200, Note_off_c, 1, 67, 0
2, 73200, Note_off_c, 1, 74, 0
2, 74720, Note_on_c, 1, 55, 127
2, 74720, Note_on_c, 1, 58, 127
2, 74720, Note_on_c, 1, 62, 127
2, 74720, Note_on_c, 1, 67, 127
2, 74720, Note_on_c, 1, 70, 127
2, 75040, Note_off_c, 1, 55, 0
2, 75040, Note_off_c, 1, 58, 0
2, 75040, Note_off_c, 1, 62, 0
2, 75040, Note_off_c, 1, 67, 0
2, 75040, Note_off_c, 1, 70, 0
2, 75080, Note_on_c, 1, 55, 127
2, 75080, Note_on_c, 1, 58, 127
2, 75080, Note_on_c, 1, 62, 127
2, 75080, Note_on_c, 1, 67, 127
2, 75080, Note_on_c, 1, 70, 127
2, 75880, Note_off_c, 1, 55, 0
2, 75880, Note_off_c, 1, 58, 0
2, 75880, Note_off_c, 1, 62, 0
2, 75880, Note_off_c, 1, 67, 0
2, 75880, Note_off_c, 1, 70, 0
2, 75960, Note_on_c, 1, 55, 127
2, 76120, Note_off_c, 1, 55, 0
2, 78120, Note_on_c, 1, 34, 127
2, 78120, Note_on_c, 1, 46, 127
2, 78120, Note_on_c, 1, 58, 127
2, 79320, Note_off_c, 1, 34, 0
2, 79320, Note_off_c, 1, 46, 0
2, 79320, Note_off_c, 1, 58, 0
2, 79360, Note_on_c, 1, 62, 127
2, 79720, Note_off_c, 1, 62, 0
2, 79760, Note_on_c, 1, 62, 127
2, 79960, Note_off_c, 1, 62, 0
2, 80000, Note_on_c, 1, 61, 127
2, 80600, Note_off_c, 1, 61, 0
2, 80600, Note_on_c, 1, 62, 127
2, 80960, Note_off_c, 1, 62, 0
2, 81000, Note_on_c, 1, 62, 127
2, 81480, Note_off_c, 1, 62, 0
2, 81560, Note_on_c, 1, 64, 127
2, 82960, Note_off_c, 1, 64, 0
2, 83000, Note_on_c, 1, 62, 127
2, 83560, Note_off_c, 1, 62, 0
2, 83640, Note_on_c, 1, 61, 127
2, 83840, Note_off_c, 1, 61, 0
2, 83840, Note_on_c, 1, 64, 127
2, 84840, Note_off_c, 1, 64, 0
2, 84880, Note_on_c, 1, 65, 127
2, 85680, Note_off_c, 1, 65, 0
2, 85720, Note_on_c, 1, 65, 127
2, 87360, Note_on_c, 1, 64, 127
2, 87360, Note_off_c, 1, 65, 0
2, 87480, Note_off_c, 1, 64, 0
2, 87480, Note_on_c, 1, 65, 127
2, 87520, Note_on_c, 1, 64, 127
2, 87520, Note_off_c, 1, 65, 0
2, 87960, Note_off_c, 1, 64, 0
2, 88000, Note_on_c, 1, 64, 127
2, 88160, Note_off_c, 1, 64, 0
2, 88240, Note_on_c, 1, 67, 127
2, 88800, Note_off_c, 1, 67, 0
2, 88840, Note_on_c, 1, 69, 127
2, 89400, Note_off_c, 1, 69, 0
2, 89440, Note_on_c, 1, 65, 127
2, 89800, Note_off_c, 1, 65, 0
2, 89840, Note_on_c, 1, 63, 127
2, 90040, Note_off_c, 1, 63, 0
2, 90080, Note_on_c, 1, 63, 127
2, 90680, Note_on_c, 1, 60, 127
2, 90680, Note_off_c, 1, 63, 0
2, 91080, Note_on_c, 1, 58, 127
2, 91080, Note_off_c, 1, 60, 0
2, 91320, Note_off_c, 1, 58, 0
2, 91360, Note_on_c, 1, 56, 127
2, 91920, Note_off_c, 1, 56, 0
2, 92000, Note_on_c, 1, 57, 127
2, 92760, Note_off_c, 1, 57, 0
2, 92800, Note_on_c, 1, 58, 127
2, 93400, Note_off_c, 1, 58, 0
2, 93640, Note_on_c, 1, 65, 127
2, 93840, Note_off_c, 1, 65, 0
2, 93920, Note_on_c, 1, 65, 127
2, 94000, Note_off_c, 1, 65, 0
2, 94040, Note_on_c, 1, 65, 127
2, 94440, Note_off_c, 1, 65, 0
2, 94960, Note_on_c, 1, 66, 127
2, 94960, Note_on_c, 1, 73, 127
2, 94960, Note_on_c, 1, 76, 127
2, 94960, Note_on_c, 1, 78, 127
2, 94960, Note_on_c, 1, 82, 127
2, 94960, Note_on_c, 1, 90, 127
2, 95520, Note_off_c, 1, 66, 0
2, 95520, Note_off_c, 1, 73, 0
2, 95520, Note_off_c, 1, 76, 0
2, 95520, Note_off_c, 1, 78, 0
2, 95520, Note_off_c, 1, 82, 0
2, 95520, Note_off_c, 1, 90, 0
2, 96200, Note_on_c, 1, 61, 127
2, 96200, Note_on_c, 1, 71, 127
2, 96200, Note_on_c, 1, 73, 127
2, 96200, Note_on_c, 1, 77, 127
2, 96200, Note_on_c, 1, 80, 127
2, 97280, Note_on_c, 1, 33, 127
2, 97280, Note_on_c, 1, 40, 127
2, 97280, Note_on_c, 1, 45, 127
2, 97280, Note_on_c, 1, 57, 127
2, 97280, Note_on_c, 1, 60, 127
2, 97280, Note_off_c, 1, 61, 0
2, 97280, Note_on_c, 1, 64, 127
2, 97280, Note_on_c, 1, 69, 127
2, 97280, Note_off_c, 1, 71, 0
2, 97280, Note_off_c, 1, 73, 0
2, 97280, Note_off_c, 1, 77, 0
2, 97280, Note_off_c, 1, 80, 0
2, 97320, Note_off_c, 1, 33, 0
2, 97320, Note_off_c, 1, 40, 0
2, 97320, Note_off_c, 1, 45, 0
2, 97320, Note_on_c, 1, 47, 127
2, 97320, Note_on_c, 1, 54, 127
2, 97320, Note_off_c, 1, 57, 0
2, 97320, Note_off_c, 1, 60, 0
2, 97320, Note_on_c, 1, 63, 127
2, 97320, Note_off_c, 1, 64, 0
2, 97320, Note_off_c, 1, 69, 0
2, 97320, Note_on_c, 1, 75, 127
2, 97360, Note_off_c, 1, 47, 0
2, 97360, Note_off_c, 1, 54, 0
2, 97360, Note_off_c, 1, 63, 0
2, 97360, Note_off_c, 1, 75, 0
2, 97400, Note_on_c, 1, 67, 127
2, 97400, Note_on_c, 1, 74, 127
2, 97400, Note_on_c, 1, 79, 127
2, 97400, Note_on_c, 1, 83, 127
2, 97400, Note_on_c, 1, 86, 127
2, 97400, Note_on_c, 1, 91, 127
2, 97400, Note_on_c, 1, 95, 127
2, 98160, Note_off_c, 1, 67, 0
2, 98160, Note_off_c, 1, 74, 0
2, 98160, Note_off_c, 1, 79, 0
2, 98160, Note_off_c, 1, 83, 0
2, 98160, Note_off_c, 1, 86, 0
2, 98160, Note_off_c, 1, 91, 0
2, 98160, Note_off_c, 1, 95, 0
2, 99080, Note_on_c, 1, 83, 127
2, 99080, Note_on_c, 1, 86, 127
2, 99440, Note_off_c, 1, 83, 0
2, 99440, Note_off_c, 1, 86, 0
2, 99480, Note_on_c, 1, 82, 127
2, 99480, Note_on_c, 1, 85, 127
2, 99840, Note_off_c, 1, 82, 0
2, 99840, Note_off_c, 1, 85, 0
2, 99880, Note_on_c, 1, 79, 127
2, 99880, Note_on_c, 1, 83, 127
2, 100240, Note_off_c, 1, 83, 0
2, 100280, Note_on_c, 1, 67, 127
2, 100280, Note_on_c, 1, 71, 127
2, 100280, Note_on_c, 1, 83, 127
2, 100640, Note_off_c, 1, 67, 0
2, 100640, Note_off_c, 1, 71, 0
2, 100640, Note_off_c, 1, 79, 0
2, 100640, Note_off_c, 1, 83, 0
2, 100720, Note_on_c, 1, 66, 127
2, 100720, Note_on_c, 1, 73, 127
2, 100720, Note_on_c, 1, 82, 127
2, 100720, Note_on_c, 1, 90, 127
2, 101480, Note_off_c, 1, 66, 0
2, 101480, Note_off_c, 1, 73, 0
2, 101480, Note_off_c, 1, 82, 0
2, 101480, Note_off_c, 1, 90, 0
2, 101520, Note_on_c, 1, 76, 127
2, 101520, Note_on_c, 1, 83, 127
2, 101560, Note_on_c, 1, 79, 127
2, 101560, Note_on_c, 1, 84, 127
2, 101600, Note_off_c, 1, 79, 0
2, 101600, Note_off_c, 1, 84, 0
2, 101680, Note_off_c, 1, 76, 0
2, 101680, Note_on_c, 1, 79, 127
2, 101680, Note_off_c, 1, 83, 0
2, 101680, Note_on_c, 1, 84, 127
2, 101720, Note_on_c, 1, 76, 127
2, 101720, Note_off_c, 1, 79, 0
2, 101720, Note_on_c, 1, 83, 127
2, 101720, Note_off_c, 1, 84, 0
2, 101880, Note_off_c, 1, 83, 0
2, 101920, Note_on_c, 1, 82, 127
2, 102320, Note_off_c, 1, 76, 0
2, 102320, Note_off_c, 1, 82, 0
2, 102360, Note_on_c, 1, 79, 127
2, 102360, Note_on_c, 1, 83, 127
2, 102720, Note_off_c, 1, 79, 0
2, 102720, Note_off_c, 1, 83, 0
2, 102760, Note_on_c, 1, 38, 127
2, 102760, Note_on_c, 1, 47, 127
2, 102760, Note_on_c, 1, 68, 127
2, 102760, Note_on_c, 1, 80, 127
2, 102800, Note_off_c, 1, 38, 0
2, 102800, Note_on_c, 1, 40, 127
2, 102800, Note_off_c, 1, 47, 0
2, 102800, Note_on_c, 1, 48, 127
2, 102800, Note_off_c, 1, 68, 0
2, 102800, Note_off_c, 1, 80, 0
2, 102800, Note_on_c, 1, 81, 127
2, 102840, Note_off_c, 1, 40, 0
2, 102840, Note_off_c, 1, 48, 0
2, 102840, Note_off_c, 1, 81, 0
2, 102880, Note_on_c, 1, 40, 127
2, 102880, Note_on_c, 1, 47, 127
2, 102880, Note_on_c, 1, 50, 127
2, 102880, Note_on_c, 1, 52, 127
2, 102920, Note_off_c, 1, 40, 0
2, 102920, Note_off_c, 1, 47, 0
2, 102920, Note_off_c, 1, 50, 0
2, 102920, Note_off_c, 1, 52, 0
2, 102920, Note_on_c, 1, 71, 127
2, 102920, Note_on_c, 1, 75, 127
2, 102920, Note_on_c, 1, 79, 127
2, 102920, Note_on_c, 1, 86, 127
2, 102960, Note_on_c, 1, 64, 127
2, 102960, Note_on_c, 1, 68, 127
2, 102960, Note_off_c, 1, 71, 0
2, 102960, Note_off_c, 1, 86, 0
2, 103000, Note_on_c, 1, 51, 127
2, 103000, Note_on_c, 1, 58, 127
2, 103000, Note_on_c, 1, 63, 127
2, 103000, Note_off_c, 1, 64, 0
2, 103000, Note_off_c, 1, 68, 0
2, 103000, Note_off_c, 1, 75, 0
2, 103000, Note_on_c, 1, 77, 127
2, 103000, Note_off_c, 1, 79, 0
2, 103000, Note_on_c, 1, 89, 127
2, 103040, Note_on_c, 1, 32, 127
2, 103040, Note_on_c, 1, 36, 127
2, 103040, Note_on_c, 1, 39, 127
2, 103040, Note_on_c, 1, 44, 127
2, 103040, Note_on_c, 1, 48, 127
2, 103040, Note_on_c, 1, 54, 127
2, 103040, Note_off_c, 1, 58, 0
2, 103040, Note_on_c, 1, 60, 127
2, 103040, Note_off_c, 1, 63, 0
2, 103040, Note_off_c, 1, 77, 0
2, 103040, Note_off_c, 1, 89, 0
2, 103080, Note_off_c, 1, 32, 0
2, 103080, Note_off_c, 1, 36, 0
2, 103080, Note_on_c, 1, 38, 127
2, 103080, Note_off_c, 1, 39, 0
2, 103080, Note_off_c, 1, 44, 0
2, 103080, Note_off_c, 1, 48, 0
2, 103080, Note_off_c, 1, 51, 0
2, 103080, Note_off_c, 1, 54, 0
2, 103080, Note_on_c, 1, 59, 127
2, 103080, Note_off_c, 1, 60, 0
2, 103080, Note_on_c, 1, 67, 127
2, 103080, Note_on_c, 1, 79, 127
2, 103120, Note_off_c, 1, 38, 0
2, 103120, Note_on_c, 1, 40, 127
2, 103120, Note_on_c, 1, 52, 127
2, 103120, Note_off_c, 1, 59, 0
2, 103120, Note_off_c, 1, 67, 0
2, 103120, Note_off_c, 1, 79, 0
2, 103120, Note_on_c, 1, 80, 127
2, 103120, Note_on_c, 1, 83, 127
2, 103120, Note_on_c, 1, 88, 127
2, 103160, Note_off_c, 1, 40, 0
2, 103160, Note_off_c, 1, 52, 0
2, 103160, Note_off_c, 1, 80, 0
2, 103160, Note_off_c, 1, 83, 0
2, 103160, Note_off_c, 1, 88, 0
2, 103200, Note_on_c, 1, 71, 127
2, 103200, Note_on_c, 1, 74, 127
2, 103560, Note_off_c, 1, 71, 0
2, 103560, Note_off_c, 1, 74, 0
2, 103600, Note_on_c, 1, 74, 127
2, 103600, Note_on_c, 1, 78, 127
2, 103600, Note_on_c, 1, 83, 127
2, 103960, Note_off_c, 1, 74, 0
2, 103960, Note_off_c, 1, 78, 0
2, 103960, Note_off_c, 1, 83, 0
2, 104000, Note_on_c, 1, 79, 127
2, 104000, Note_on_c, 1, 88, 127
2, 104360, Note_off_c, 1, 79, 0
2, 104360, Note_off_c, 1, 88, 0
2, 104400, Note_on_c, 1, 54, 127
2, 104400, Note_on_c, 1, 73, 127
2, 104400, Note_on_c, 1, 82, 127
2, 104400, Note_on_c, 1, 85, 127
2, 104760, Note_off_c, 1, 82, 0
2, 104760, Note_off_c, 1, 85, 0
2, 104800, Note_on_c, 1, 80, 127
2, 104800, Note_on_c, 1, 83, 127
2, 104960, Note_off_c, 1, 54, 0
2, 104960, Note_off_c, 1, 73, 0
2, 104960, Note_off_c, 1, 80, 0
2, 104960, Note_off_c, 1, 83, 0
2, 105000, Note_on_c, 1, 73, 127
2, 105000, Note_on_c, 1, 80, 127
2, 105000, Note_on_c, 1, 83, 127
2, 105200, Note_off_c, 1, 73, 0
2, 105200, Note_off_c, 1, 80, 0
2, 105200, Note_off_c, 1, 83, 0
2, 105240, Note_on_c, 1, 55, 127
2, 105240, Note_on_c, 1, 57, 127
2, 105240, Note_on_c, 1, 60, 127
2, 105240, Note_on_c, 1, 64, 127
2, 105240, Note_on_c, 1, 71, 127
2, 105280, Note_off_c, 1, 57, 0
2, 105280, Note_on_c, 1, 59, 127
2, 105280, Note_off_c, 1, 60, 0
2, 105280, Note_on_c, 1, 62, 127
2, 105280, Note_off_c, 1, 64, 0
2, 105280, Note_on_c, 1, 69, 127
2, 105280, Note_off_c, 1, 71, 0
2, 105280, Note_on_c, 1, 79, 127
2, 105320, Note_on_c, 1, 57, 127
2, 105320, Note_off_c, 1, 59, 0
2, 105320, Note_on_c, 1, 60, 127
2, 105320, Note_off_c, 1, 62, 0
2, 105320, Note_on_c, 1, 64, 127
2, 105320, Note_off_c, 1, 69, 0
2, 105320, Note_on_c, 1, 71, 127
2, 105320, Note_off_c, 1, 79, 0
2, 105360, Note_off_c, 1, 55, 0
2, 105360, Note_off_c, 1, 57, 0
2, 105360, Note_off_c, 1, 60, 0
2, 105360, Note_on_c, 1, 63, 127
2, 105360, Note_off_c, 1, 64, 0
2, 105360, Note_on_c, 1, 67, 127
2, 105360, Note_off_c, 1, 71, 0
2, 105360, Note_on_c, 1, 72, 127
2, 105360, Note_on_c, 1, 83, 127
2, 105400, Note_on_c, 1, 54, 127
2, 105400, Note_on_c, 1, 57, 127
2, 105400, Note_on_c, 1, 59, 127
2, 105400, Note_off_c, 1, 67, 0
2, 105400, Note_off_c, 1, 72, 0
2, 105400, Note_on_c, 1, 80, 127
2, 105400, Note_off_c, 1, 83, 0
2, 105440, Note_on_c, 1, 45, 127
2, 105440, Note_off_c, 1, 54, 0
2, 105440, Note_off_c, 1, 57, 0
2, 105440, Note_on_c, 1, 62, 127
2, 105440, Note_off_c, 1, 63, 0
2, 105440, Note_on_c, 1, 71, 127
2, 105440, Note_off_c, 1, 80, 0
2, 105600, Note_off_c, 1, 45, 0
2, 105600, Note_off_c, 1, 59, 0
2, 105600, Note_off_c, 1, 62, 0
2, 105600, Note_off_c, 1, 71, 0
2, 105640, Note_on_c, 1, 73, 127
2, 105640, Note_on_c, 1, 76, 127
2, 105640, Note_on_c, 1, 78, 127
2, 106040, Note_on_c, 1, 47, 127
2, 106040, Note_on_c, 1, 54, 127
2, 106040, Note_off_c, 1, 73, 0
2, 106040, Note_on_c, 1, 75, 127
2, 106040, Note_off_c, 1, 76, 0
2, 106040, Note_on_c, 1, 87, 127
2, 106400, Note_off_c, 1, 47, 0
2, 106400, Note_off_c, 1, 54, 0
2, 106400, Note_off_c, 1, 75, 0
2, 106400, Note_off_c, 1, 78, 0
2, 106400, Note_off_c, 1, 87, 0
2, 106440, Note_on_c, 1, 53, 127
2, 106440, Note_on_c, 1, 83, 127
2, 106800, Note_off_c, 1, 53, 0
2, 106840, Note_on_c, 1, 61, 127
2, 107120, Note_off_c, 1, 61, 0
2, 107120, Note_off_c, 1, 83, 0
2, 107160, Note_on_c, 1, 61, 127
2, 107160, Note_on_c, 1, 83, 127
2, 107200, Note_off_c, 1, 83, 0
2, 107240, Note_off_c, 1, 61, 0
2, 107280, Note_on_c, 1, 42, 127
2, 107280, Note_on_c, 1, 83, 127
2, 107640, Note_off_c, 1, 42, 0
2, 107680, Note_on_c, 1, 42, 127
2, 108000, Note_off_c, 1, 42, 0
2, 108080, Note_on_c, 1, 59, 127
2, 108440, Note_off_c, 1, 59, 0
2, 108480, Note_on_c, 1, 43, 127
2, 108480, Note_on_c, 1, 49, 127
2, 108480, Note_on_c, 1, 59, 127
2, 108480, Note_on_c, 1, 61, 127
2, 108480, Note_off_c, 1, 83, 0
2, 108840, Note_off_c, 1, 43, 0
2, 108880, Note_on_c, 1, 56, 127
2, 108880, Note_off_c, 1, 59, 0
2, 108880, Note_off_c, 1, 61, 0
2, 108880, Note_on_c, 1, 65, 127
2, 108880, Note_on_c, 1, 71, 127
2, 109120, Note_off_c, 1, 49, 0
2, 109120, Note_off_c, 1, 56, 0
2, 109120, Note_off_c, 1, 65, 0
2, 109120, Note_off_c, 1, 71, 0
2, 109160, Note_on_c, 1, 49, 127
2, 109160, Note_on_c, 1, 56, 127
2, 109160, Note_on_c, 1, 65, 127
2, 109160, Note_on_c, 1, 71, 127
2, 109280, Note_off_c, 1, 49, 0
2, 109280, Note_off_c, 1, 56, 0
2, 109280, Note_off_c, 1, 65, 0
2, 109280, Note_off_c, 1, 71, 0
2, 109320, Note_on_c, 1, 42, 127
2, 109320, Note_on_c, 1, 58, 127
2, 109320, Note_on_c, 1, 61, 127
2, 109680, Note_off_c, 1, 58, 0
2, 109680, Note_off_c, 1, 61, 0
2, 109720, Note_on_c, 1, 58, 127
2, 109720, Note_on_c, 1, 61, 127
2, 110080, Note_off_c, 1, 42, 0
2, 110080, Note_off_c, 1, 58, 0
2, 110080, Note_off_c, 1, 61, 0
2, 110120, Note_on_c, 1, 47, 127
2, 110120, Note_on_c, 1, 66, 127
2, 110320, Note_off_c, 1, 66, 0
2, 110320, Note_on_c, 1, 87, 127
2, 110360, Note_off_c, 1, 87, 0
2, 110400, Note_on_c, 1, 66, 127
2, 110480, Note_off_c, 1, 47, 0
2, 110480, Note_off_c, 1, 66, 0
2, 110520, Note_on_c, 1, 48, 127
2, 110520, Note_on_c, 1, 51, 127
2, 110520, Note_on_c, 1, 55, 127
2, 110520, Note_on_c, 1, 57, 127
2, 110520, Note_on_c, 1, 67, 127
2, 110520, Note_on_c, 1, 79, 127
2, 110880, Note_off_c, 1, 48, 0
2, 110880, Note_off_c, 1, 51, 0
2, 110880, Note_off_c, 1, 55, 0
2, 110880, Note_off_c, 1, 57, 0
2, 110880, Note_off_c, 1, 67, 0
2, 110880, Note_off_c, 1, 79, 0
2, 110920, Note_on_c, 1, 52, 127
2, 110920, Note_on_c, 1, 59, 127
2, 110920, Note_on_c, 1, 61, 127
2, 110920, Note_on_c, 1, 69, 127
2, 111080, Note_off_c, 1, 52, 0
2, 111080, Note_off_c, 1, 59, 0
2, 111080, Note_off_c, 1, 61, 0
2, 111080, Note_off_c, 1, 69, 0
2, 111120, Note_on_c, 1, 52, 127
2, 111120, Note_on_c, 1, 59, 127
2, 111120, Note_on_c, 1, 61, 127
2, 111120, Note_on_c, 1, 69, 127
2, 111320, Note_off_c, 1, 52, 0
2, 111320, Note_off_c, 1, 59, 0
2, 111320, Note_off_c, 1, 61, 0
2, 111320, Note_on_c, 1, 66, 127
2, 111320, Note_off_c, 1, 69, 0
2, 111360, Note_on_c, 1, 54, 127
2, 111360, Note_on_c, 1, 62, 127
2, 111720, Note_off_c, 1, 54, 0
2, 111720, Note_off_c, 1, 66, 0
2, 111760, Note_on_c, 1, 38, 127
2, 111760, Note_on_c, 1, 50, 127
2, 111760, Note_on_c, 1, 57, 127
2, 111760, Note_on_c, 1, 60, 127
2, 111760, Note_off_c, 1, 62, 0
2, 112120, Note_off_c, 1, 57, 0
2, 112120, Note_off_c, 1, 60, 0
2, 112160, Note_on_c, 1, 54, 127
2, 112520, Note_off_c, 1, 38, 0
2, 112520, Note_off_c, 1, 50, 0
2, 112520, Note_off_c, 1, 54, 0
2, 112520, Note_on_c, 1, 62, 127
2, 112560, Note_on_c, 1, 38, 127
2, 112560, Note_on_c, 1, 57, 127
2, 112560, Note_on_c, 1, 60, 127
2, 112920, Note_off_c, 1, 38, 0
2, 112920, Note_off_c, 1, 57, 0
2, 112920, Note_off_c, 1, 60, 0
2, 112920, Note_off_c, 1, 62, 0
2, 112960, Note_on_c, 1, 54, 127
2, 112960, Note_on_c, 1, 62, 127
2, 113240, Note_off_c, 1, 54, 0
2, 113240, Note_off_c, 1, 62, 0
2, 113280, Note_on_c, 1, 54, 127
2, 113280, Note_on_c, 1, 62, 127
2, 113360, Note_off_c, 1, 54, 0
2, 113360, Note_off_c, 1, 62, 0
2, 113400, Note_on_c, 1, 58, 127
2, 113400, Note_on_c, 1, 61, 127
2, 113760, Note_off_c, 1, 58, 0
2, 113760, Note_off_c, 1, 61, 0
2, 113800, Note_on_c, 1, 54, 127
2, 113800, Note_on_c, 1, 57, 127
2, 113800, Note_on_c, 1, 62, 127
2, 114160, Note_off_c, 1, 62, 0
2, 114200, Note_on_c, 1, 62, 127
2, 114560, Note_off_c, 1, 54, 0
2, 114560, Note_off_c, 1, 57, 0
2, 114560, Note_off_c, 1, 62, 0
2, 114600, Note_on_c, 1, 54, 127
2, 114600, Note_on_c, 1, 57, 127
2, 114600, Note_on_c, 1, 63, 127
2, 114960, Note_off_c, 1, 57, 0
2, 115000, Note_on_c, 1, 57, 127
2, 115360, Note_off_c, 1, 54, 0
2, 115360, Note_off_c, 1, 57, 0
2, 115360, Note_off_c, 1, 63, 0
2, 115440, Note_on_c, 1, 54, 127
2, 115440, Note_on_c, 1, 57, 127
2, 115440, Note_on_c, 1, 63, 127
2, 115800, Note_off_c, 1, 54, 0
2, 115800, Note_off_c, 1, 57, 0
2, 115800, Note_on_c, 1, 61, 127
2, 115800, Note_off_c, 1, 63, 0
2, 115840, Note_on_c, 1, 53, 127
2, 115840, Note_on_c, 1, 59, 127
2, 116200, Note_off_c, 1, 53, 0
2, 116200, Note_off_c, 1, 59, 0
2, 116240, Note_on_c, 1, 53, 127
2, 116240, Note_on_c, 1, 59, 127
2, 116600, Note_off_c, 1, 53, 0
2, 116600, Note_on_c, 1, 54, 127
2, 116600, Note_off_c, 1, 59, 0
2, 116600, Note_off_c, 1, 61, 0
2, 116640, Note_on_c, 1, 58, 127
2, 116640, Note_on_c, 1, 61, 127
2, 117000, Note_off_c, 1, 54, 0
2, 117000, Note_off_c, 1, 58, 0
2, 117000, Note_off_c, 1, 61, 0
2, 117040, Note_on_c, 1, 47, 127
2, 117400, Note_off_c, 1, 47, 0
2, 117480, Note_on_c, 1, 37, 127
2, 117840, Note_off_c, 1, 37, 0
2, 117880, Note_on_c, 1, 54, 127
2, 117880, Note_on_c, 1, 60, 127
2, 118240, Note_off_c, 1, 60, 0
2, 118280, Note_on_c, 1, 45, 127
2, 118640, Note_off_c, 1, 45, 0
2, 118640, Note_off_c, 1, 54, 0
2, 118680, Note_on_c, 1, 45, 127
2, 118680, Note_on_c, 1, 71, 127
2, 119040, Note_off_c, 1, 45, 0
2, 119040, Note_off_c, 1, 71, 0
2, 119040, Note_on_c, 1, 74, 127
2, 119080, Note_on_c, 1, 54, 127
2, 119440, Note_off_c, 1, 54, 0
2, 119480, Note_off_c, 1, 74, 0
2, 119520, Note_on_c, 1, 65, 127
2, 119520, Note_on_c, 1, 74, 127
2, 119840, Note_off_c, 1, 74, 0
2, 119880, Note_off_c, 1, 65, 0
2, 119920, Note_on_c, 1, 55, 127
2, 119920, Note_on_c, 1, 83, 127
2, 120000, Note_off_c, 1, 55, 0
2, 120000, Note_off_c, 1, 83, 0
2, 120040, End_track
3, 0, Start_track
3, 0, Title_t, "MIDI"
3, 1536, End_track
0, 0, End_of_file
