0, 0, Header, 1, 3, 192
1, 0, Start_track
1, 0, Time_signature, 4, 2, 24, 8
1, 0, Tempo, 500000
1, 120040, End_track
2, 0, Start_track
2, 0, Text_t, "random instrument: random person i dunno whatev"
2, 0, Title_t, "Track 1"
2, 0, Note_on_c, 1, 40, 127
2, 0, Note_on_c, 1, 48, 127
2, 0, Note_on_c, 1, 56, 127
2, 0, Note_on_c, 1, 60, 127
2, 40, Note_off_c, 1, 40, 0
2, 40, Note_off_c, 1, 48, 0
2, 40, Note_on_c, 1, 55, 127
2, 40, Note_off_c, 1, 56, 0
2, 40, Note_off_c, 1, 60, 0
2, 40, Note_on_c, 1, 72, 127
2, 40, Note_on_c, 1, 75, 127
2, 40, Note_on_c, 1, 79, 127
2, 40, Note_on_c, 1, 84, 127
2, 80, Note_off_c, 1, 55, 0
2, 80, Note_off_c, 1, 72, 0
2, 80, Note_off_c, 1, 75, 0
2, 80, Note_off_c, 1, 79, 0
2, 80, Note_off_c, 1, 84, 0
2, 120, Note_on_c, 1, 40, 127
2, 120, Note_on_c, 1, 48, 127
2, 120, Note_on_c, 1, 56, 127
2, 120, Note_on_c, 1, 60, 127
2, 200, Note_on_c, 1, 35, 127
2, 200, Note_on_c, 1, 39, 127
2, 200, Note_off_c, 1, 40, 0
2, 200, Note_on_c, 1, 47, 127
2, 200, Note_off_c, 1, 48, 0
2, 200, Note_on_c, 1, 50, 127
2, 200, Note_off_c, 1, 56, 0
2, 200, Note_off_c, 1, 60, 0
2, 240, Note_on_c, 1, 34, 127
2, 240, Note_off_c, 1, 35, 0
2, 240, Note_on_c, 1, 46, 127
2, 240, Note_off_c, 1, 47, 0
2, 240, Note_off_c, 1, 50, 0
2, 240, Note_on_c, 1, 73, 127
2, 240, Note_on_c, 1, 75, 127
2, 360, Note_on_c, 1, 80, 127
2, 400, Note_off_c, 1, 34, 0
2, 400, Note_on_c, 1, 35, 127
2, 400, Note_off_c, 1, 39, 0
2, 400, Note_on_c, 1, 40, 127
2, 400, Note_off_c, 1, 46, 0
2, 400, Note_on_c, 1, 47, 127
2, 400, Note_on_c, 1, 62, 127
2, 400, Note_off_c, 1, 73, 0
2, 400, Note_off_c, 1, 75, 0
2, 400, Note_off_c, 1, 80, 0
2, 440, Note_off_c, 1, 35, 0
2, 440, Note_off_c, 1, 40, 0
2, 440, Note_off_c, 1, 47, 0
2, 440, Note_off_c, 1, 62, 0
2, 440, Note_on_c, 1, 79, 127
2, 480, Note_on_c, 1, 76, 127
2, 480, Note_off_c, 1, 79, 0
2, 520, Note_off_c, 1, 76, 0
2, 560, Note_on_c, 1, 72, 127
2, 640, Note_off_c, 1, 72, 0
2, 680, Note_on_c, 1, 70, 127
2, 840, Note_off_c, 1, 70, 0
2, 880, Note_on_c, 1, 67, 127
2, 1000, Note_off_c, 1, 67, 0
2, 1040, Note_on_c, 1, 69, 127
2, 1160, Note_off_c, 1, 69, 0
2, 1200, Note_on_c, 1, 70, 127
2, 1360, Note_off_c, 1, 70, 0
2, 1400, Note_on_c, 1, 64, 127
2, 1520, Note_off_c, 1, 64, 0
2, 1560, Note_on_c, 1, 69, 127
2, 1720, Note_off_c, 1, 69, 0
2, 1760, Note_on_c, 1, 70, 127
2, 1880, Note_off_c, 1, 70, 0
2, 1920, Note_on_c, 1, 72, 127
2, 2040, Note_off_c, 1, 72, 0
2, 2080, Note_on_c, 1, 72, 127
2, 2120, Note_off_c, 1, 72, 0
2, 2160, Note_on_c, 1, 74, 127
2, 2280, Note_off_c, 1, 74, 0
2, 2320, Note_on_c, 1, 72, 127
2, 2480, Note_off_c, 1, 72, 0
2, 2520, Note_on_c, 1, 81, 127
2, 2640, Note_off_c, 1, 81, 0
2, 2680, Note_on_c, 1, 82, 127
2, 2840, Note_off_c, 1, 82, 0
2, 2880, Note_on_c, 1, 81, 127
2, 3000, Note_off_c, 1, 81, 0
2, 3040, Note_on_c, 1, 79, 127
2, 3160, Note_off_c, 1, 79, 0
2, 3200, Note_on_c, 1, 77, 127
2, 3360, Note_off_c, 1, 77, 0
2, 3400, Note_on_c, 1, 76, 127
2, 3560, Note_off_c, 1, 76, 0
2, 3600, Note_on_c, 1, 74, 127
2, 3720, Note_off_c, 1, 74, 0
2, 3760, Note_on_c, 1, 72, 127
2, 3920, Note_off_c, 1, 72, 0
2, 3960, Note_on_c, 1, 71, 127
2, 4080, Note_off_c, 1, 71, 0
2, 4120, Note_on_c, 1, 72, 127
2, 4240, Note_off_c, 1, 72, 0
2, 4280, Note_on_c, 1, 72, 127
2, 4320, Note_off_c, 1, 72, 0
2, 4360, Note_on_c, 1, 71, 127
2, 4480, Note_off_c, 1, 71, 0
2, 4520, Note_on_c, 1, 70, 127
2, 4680, Note_off_c, 1, 70, 0
2, 4720, Note_on_c, 1, 69, 127
2, 4840, Note_off_c, 1, 69, 0
2, 4880, Note_on_c, 1, 63, 127
2, 5040, Note_off_c, 1, 63, 0
2, 5080, Note_on_c, 1, 62, 127
2, 5560, Note_off_c, 1, 62, 0
2, 5600, Note_on_c, 1, 37, 127
2, 5600, Note_on_c, 1, 49, 127
2, 5600, Note_on_c, 1, 56, 127
2, 5760, Note_off_c, 1, 56, 0
2, 5760, Note_on_c, 1, 61, 127
2, 6280, Note_off_c, 1, 61, 0
2, 6320, Note_off_c, 1, 37, 0
2, 6320, Note_off_c, 1, 49, 0
2, 6360, Note_on_c, 1, 37, 127
2, 6360, Note_on_c, 1, 49, 127
2, 6360, Note_on_c, 1, 61, 127
2, 7040, Note_off_c, 1, 37, 0
2, 7040, Note_off_c, 1, 49, 0
2, 7040, Note_off_c, 1, 61, 0
2, 7080, Note_on_c, 1, 46, 127
2, 7080, Note_on_c, 1, 58, 127
2, 7080, Note_on_c, 1, 70, 127
2, 8160, Note_off_c, 1, 46, 0
2, 8160, Note_off_c, 1, 58, 0
2, 8160, Note_off_c, 1, 70, 0
2, 8240, Note_on_c, 1, 49, 127
2, 8240, Note_on_c, 1, 61, 127
2, 8240, Note_on_c, 1, 73, 127
2, 10120, Note_off_c, 1, 49, 0
2, 10120, Note_off_c, 1, 61, 0
2, 10120, Note_off_c, 1, 73, 0
2, 10160, Note_on_c, 1, 41, 127
2, 10160, Note_on_c, 1, 53, 127
2, 10160, Note_on_c, 1, 65, 127
2, 10280, Note_off_c, 1, 41, 0
2, 10320, Note_off_c, 1, 53, 0
2, 10320, Note_off_c, 1, 65, 0
2, 10360, Note_on_c, 1, 41, 127
2, 10360, Note_on_c, 1, 53, 127
2, 10360, Note_on_c, 1, 65, 127
2, 10560, Note_off_c, 1, 41, 0
2, 10560, Note_off_c, 1, 53, 0
2, 10560, Note_off_c, 1, 65, 0
2, 10600, Note_on_c, 1, 41, 127
2, 10600, Note_on_c, 1, 53, 127
2, 10600, Note_on_c, 1, 65, 127
2, 11720, Note_off_c, 1, 41, 0
2, 11720, Note_off_c, 1, 53, 0
2, 11720, Note_off_c, 1, 65, 0
2, 11760, Note_on_c, 1, 58, 127
2, 11760, Note_on_c, 1, 65, 127
2, 11760, Note_on_c, 1, 74, 127
2, 12160, Note_on_c, 1, 80, 127
2, 12440, Note_off_c, 1, 58, 0
2, 12440, Note_off_c, 1, 65, 0
2, 12440, Note_off_c, 1, 74, 0
2, 12440, Note_off_c, 1, 80, 0
2, 12480, Note_on_c, 1, 58, 127
2, 12480, Note_on_c, 1, 65, 127
2, 12480, Note_on_c, 1, 74, 127
2, 12480, Note_on_c, 1, 80, 127
2, 13200, Note_off_c, 1, 74, 0
2, 13200, Note_off_c, 1, 80, 0
2, 13240, Note_on_c, 1, 82, 127
2, 13320, Note_off_c, 1, 58, 0
2, 13320, Note_off_c, 1, 65, 0
2, 13320, Note_off_c, 1, 82, 0
2, 13360, Note_on_c, 1, 36, 127
2, 13360, Note_on_c, 1, 46, 127
2, 13360, Note_on_c, 1, 62, 127
2, 13720, Note_off_c, 1, 36, 0
2, 13720, Note_off_c, 1, 46, 0
2, 13720, Note_on_c, 1, 55, 127
2, 13720, Note_off_c, 1, 62, 0
2, 13720, Note_on_c, 1, 64, 127
2, 13720, Note_on_c, 1, 71, 127
2, 13760, Note_on_c, 1, 52, 127
2, 13760, Note_off_c, 1, 55, 0
2, 13760, Note_on_c, 1, 56, 127
2, 13760, Note_on_c, 1, 62, 127
2, 14120, Note_off_c, 1, 52, 0
2, 14120, Note_off_c, 1, 56, 0
2, 14120, Note_off_c, 1, 62, 0
2, 14120, Note_off_c, 1, 64, 0
2, 14120, Note_off_c, 1, 71, 0
2, 14160, Note_on_c, 1, 61, 127
2, 14160, Note_on_c, 1, 64, 127
2, 14160, Note_on_c, 1, 67, 127
2, 14160, Note_on_c, 1, 69, 127
2, 14360, Note_off_c, 1, 61, 0
2, 14360, Note_off_c, 1, 64, 0
2, 14360, Note_off_c, 1, 67, 0
2, 14360, Note_off_c, 1, 69, 0
2, 14400, Note_on_c, 1, 61, 127
2, 14400, Note_on_c, 1, 64, 127
2, 14400, Note_on_c, 1, 67, 127
2, 14400, Note_on_c, 1, 69, 127
2, 14760, Note_off_c, 1, 61, 0
2, 14760, Note_off_c, 1, 64, 0
2, 14760, Note_off_c, 1, 67, 0
2, 14760, Note_off_c, 1, 69, 0
2, 14800, Note_on_c, 1, 61, 127
2, 14800, Note_on_c, 1, 64, 127
2, 14800, Note_on_c, 1, 67, 127
2, 14800, Note_on_c, 1, 69, 127
2, 15040, Note_off_c, 1, 61, 0
2, 15040, Note_off_c, 1, 64, 0
2, 15040, Note_off_c, 1, 67, 0
2, 15040, Note_off_c, 1, 69, 0
2, 15080, Note_on_c, 1, 50, 127
2, 15080, Note_on_c, 1, 60, 127
2, 15080, Note_on_c, 1, 64, 127
2, 15080, Note_on_c, 1, 69, 127
2, 15640, Note_off_c, 1, 50, 0
2, 15640, Note_off_c, 1, 60, 0
2, 15640, Note_off_c, 1, 64, 0
2, 15640, Note_off_c, 1, 69, 0
2, 15680, Note_on_c, 1, 55, 127
2, 15680, Note_on_c, 1, 59, 127
2, 15680, Note_on_c, 1, 62, 127
2, 16160, Note_off_c, 1, 55, 0
2, 16160, Note_off_c, 1, 59, 0
2, 16160, Note_off_c, 1, 62, 0
2, 16200, Note_on_c, 1, 55, 127
2, 16200, Note_on_c, 1, 59, 127
2, 16200, Note_on_c, 1, 62, 127
2, 16280, Note_on_c, 1, 67, 127
2, 16480, Note_off_c, 1, 55, 0
2, 16480, Note_off_c, 1, 59, 0
2, 16480, Note_off_c, 1, 62, 0
2, 16480, Note_on_c, 1, 63, 127
2, 16520, Note_on_c, 1, 75, 127
2, 17000, Note_off_c, 1, 63, 0
2, 17000, Note_off_c, 1, 67, 0
2, 17000, Note_off_c, 1, 75, 0
2, 17040, Note_on_c, 1, 44, 127
2, 17400, Note_off_c, 1, 44, 0
2, 18240, Note_on_c, 1, 40, 127
2, 18240, Note_on_c, 1, 52, 127
2, 18240, Note_on_c, 1, 64, 127
2, 19440, Note_off_c, 1, 40, 0
2, 19440, Note_off_c, 1, 52, 0
2, 19440, Note_off_c, 1, 64, 0
2, 19480, Note_on_c, 1, 36, 127
2, 19480, Note_on_c, 1, 48, 127
2, 19480, Note_on_c, 1, 60, 127
2, 20280, Note_off_c, 1, 36, 0
2, 20280, Note_off_c, 1, 48, 0
2, 20280, Note_off_c, 1, 60, 0
2, 20360, Note_on_c, 1, 36, 127
2, 20360, Note_on_c, 1, 48, 127
2, 20360, Note_on_c, 1, 60, 127
2, 21160, Note_off_c, 1, 36, 0
2, 21160, Note_off_c, 1, 48, 0
2, 21160, Note_off_c, 1, 60, 0
2, 21200, Note_on_c, 1, 62, 127
2, 21200, Note_on_c, 1, 71, 127
2, 22280, Note_off_c, 1, 62, 0
2, 22280, Note_off_c, 1, 71, 0
2, 22360, Note_on_c, 1, 64, 127
2, 22360, Note_on_c, 1, 72, 127
2, 23640, Note_off_c, 1, 64, 0
2, 23640, Note_off_c, 1, 72, 0
2, 23680, Note_on_c, 1, 56, 127
2, 23680, Note_on_c, 1, 64, 127
2, 23680, Note_on_c, 1, 71, 127
2, 24640, Note_off_c, 1, 56, 0
2, 24640, Note_off_c, 1, 64, 0
2, 24640, Note_off_c, 1, 71, 0
2, 24680, Note_on_c, 1, 56, 127
2, 24680, Note_on_c, 1, 64, 127
2, 24680, Note_on_c, 1, 71, 127
2, 26120, Note_off_c, 1, 56, 0
2, 26120, Note_off_c, 1, 64, 0
2, 26120, Note_off_c, 1, 71, 0
2, 26160, Note_on_c, 1, 54, 127
2, 26160, Note_on_c, 1, 57, 127
2, 26160, Note_on_c, 1, 71, 127
2, 26560, Note_off_c, 1, 54, 0
2, 26560, Note_off_c, 1, 57, 0
2, 26560, Note_off_c, 1, 71, 0
2, 26600, Note_on_c, 1, 54, 127
2, 26600, Note_on_c, 1, 57, 127
2, 26600, Note_on_c, 1, 71, 127
2, 26920, Note_off_c, 1, 71, 0
2, 26960, Note_off_c, 1, 54, 0
2, 26960, Note_on_c, 1, 55, 127
2, 26960, Note_off_c, 1, 57, 0
2, 26960, Note_on_c, 1, 59, 127
2, 26960, Note_on_c, 1, 74, 127
2, 27800, Note_off_c, 1, 74, 0
2, 27840, Note_on_c, 1, 73, 127
2, 28200, Note_off_c, 1, 73, 0
2, 28200, Note_on_c, 1, 75, 127
2, 28240, Note_on_c, 1, 73, 127
2, 28240, Note_off_c, 1, 75, 0
2, 28360, Note_off_c, 1, 55, 0
2, 28360, Note_off_c, 1, 59, 0
2, 28360, Note_off_c, 1, 73, 0
2, 28400, Note_on_c, 1, 55, 127
2, 28400, Note_on_c, 1, 59, 127
2, 28400, Note_on_c, 1, 73, 127
2, 28440, Note_off_c, 1, 73, 0
2, 28480, Note_on_c, 1, 50, 127
2, 28480, Note_off_c, 1, 55, 0
2, 28480, Note_on_c, 1, 57, 127
2, 28480, Note_off_c, 1, 59, 0
2, 28480, Note_on_c, 1, 74, 127
2, 28880, Note_on_c, 1, 66, 127
2, 29040, Note_off_c, 1, 57, 0
2, 29040, Note_off_c, 1, 66, 0
2, 29080, Note_on_c, 1, 60, 127
2, 29280, Note_off_c, 1, 60, 0
2, 29280, Note_on_c, 1, 62, 127
2, 29560, Note_off_c, 1, 74, 0
2, 29600, Note_on_c, 1, 74, 127
2, 29640, Note_off_c, 1, 50, 0
2, 29640, Note_off_c, 1, 62, 0
2, 29640, Note_off_c, 1, 74, 0
2, 29680, Note_on_c, 1, 57, 127
2, 29680, Note_on_c, 1, 72, 127
2, 30280, Note_on_c, 1, 62, 127
2, 30440, Note_off_c, 1, 57, 0
2, 30440, Note_off_c, 1, 62, 0
2, 30440, Note_off_c, 1, 72, 0
2, 30480, Note_on_c, 1, 57, 127
2, 30480, Note_on_c, 1, 62, 127
2, 30480, Note_on_c, 1, 72, 127
2, 31480, Note_off_c, 1, 57, 0
2, 31480, Note_off_c, 1, 62, 0
2, 31480, Note_off_c, 1, 72, 0
2, 31520, Note_on_c, 1, 43, 127
2, 31520, Note_on_c, 1, 59, 127
2, 31520, Note_on_c, 1, 67, 127
2, 32600, Note_off_c, 1, 43, 0
2, 32600, Note_off_c, 1, 59, 0
2, 32600, Note_off_c, 1, 67, 0
2, 32640, Note_on_c, 1, 43, 127
2, 32640, Note_on_c, 1, 59, 127
2, 32640, Note_on_c, 1, 67, 127
2, 32720, Note_off_c, 1, 43, 0
2, 32720, Note_off_c, 1, 59, 0
2, 32720, Note_off_c, 1, 67, 0
2, 34840, Note_on_c, 1, 45, 127
2, 34840, Note_on_c, 1, 57, 127
2, 34840, Note_on_c, 1, 73, 127
2, 34840, Note_on_c, 1, 79, 127
2, 35880, Note_off_c, 1, 45, 0
2, 35880, Note_off_c, 1, 57, 0
2, 35880, Note_off_c, 1, 73, 0
2, 35880, Note_off_c, 1, 79, 0
2, 36040, Note_on_c, 1, 45, 127
2, 36040, Note_on_c, 1, 57, 127
2, 36040, Note_on_c, 1, 73, 127
2, 36040, Note_on_c, 1, 79, 127
2, 37120, Note_off_c, 1, 45, 0
2, 37120, Note_off_c, 1, 57, 0
2, 37120, Note_off_c, 1, 73, 0
2, 37120, Note_off_c, 1, 79, 0
2, 37280, Note_on_c, 1, 45, 127
2, 37280, Note_on_c, 1, 57, 127
2, 37280, Note_on_c, 1, 73, 127
2, 37280, Note_on_c, 1, 79, 127
2, 38360, Note_off_c, 1, 45, 0
2, 38360, Note_off_c, 1, 57, 0
2, 38360, Note_off_c, 1, 73, 0
2, 38360, Note_off_c, 1, 79, 0
2, 38480, Note_on_c, 1, 45, 127
2, 38480, Note_on_c, 1, 57, 127
2, 38480, Note_on_c, 1, 73, 127
2, 38480, Note_on_c, 1, 79, 127
2, 39080, Note_on_c, 1, 67, 127
2, 39280, Note_off_c, 1, 45, 0
2, 39280, Note_off_c, 1, 57, 0
2, 39280, Note_off_c, 1, 67, 0
2, 39280, Note_off_c, 1, 73, 0
2, 39280, Note_off_c, 1, 79, 0
2, 39320, Note_on_c, 1, 45, 127
2, 39320, Note_on_c, 1, 57, 127
2, 39320, Note_on_c, 1, 67, 127
2, 39320, Note_on_c, 1, 73, 127
2, 39320, Note_on_c, 1, 79, 127
2, 39600, Note_off_c, 1, 45, 0
2, 39600, Note_off_c, 1, 57, 0
2, 39600, Note_off_c, 1, 67, 0
2, 39600, Note_off_c, 1, 73, 0
2, 39600, Note_off_c, 1, 79, 0
2, 39720, Note_on_c, 1, 44, 127
2, 39720, Note_on_c, 1, 56, 127
2, 39720, Note_on_c, 1, 68, 127
2, 39720, Note_on_c, 1, 76, 127
2, 40800, Note_off_c, 1, 44, 0
2, 40800, Note_off_c, 1, 56, 0
2, 40800, Note_off_c, 1, 68, 0
2, 40800, Note_off_c, 1, 76, 0
2, 40920, Note_on_c, 1, 52, 127
2, 40920, Note_on_c, 1, 54, 127
2, 40920, Note_on_c, 1, 57, 127
2, 40920, Note_on_c, 1, 59, 127
2, 40920, Note_on_c, 1, 63, 127
2, 40920, Note_on_c, 1, 87, 127
2, 40960, Note_on_c, 1, 50, 127
2, 40960, Note_off_c, 1, 54, 0
2, 40960, Note_on_c, 1, 56, 127
2, 40960, Note_off_c, 1, 57, 0
2, 40960, Note_off_c, 1, 59, 0
2, 40960, Note_off_c, 1, 63, 0
2, 40960, Note_off_c, 1, 87, 0
2, 41000, Note_off_c, 1, 50, 0
2, 41000, Note_on_c, 1, 51, 127
2, 41000, Note_off_c, 1, 52, 0
2, 41000, Note_on_c, 1, 55, 127
2, 41000, Note_off_c, 1, 56, 0
2, 41000, Note_on_c, 1, 61, 127
2, 41000, Note_on_c, 1, 64, 127
2, 41000, Note_on_c, 1, 71, 127
2, 41000, Note_on_c, 1, 76, 127
2, 41040, Note_off_c, 1, 51, 0
2, 41040, Note_off_c, 1, 55, 0
2, 41040, Note_off_c, 1, 61, 0
2, 41040, Note_off_c, 1, 64, 0
2, 41040, Note_off_c, 1, 71, 0
2, 41040, Note_on_c, 1, 75, 127
2, 41040, Note_off_c, 1, 76, 0
2, 41040, Note_on_c, 1, 80, 127
2, 41040, Note_on_c, 1, 83, 127
2, 41040, Note_on_c, 1, 95, 127
2, 41080, Note_on_c, 1, 43, 127
2, 41080, Note_on_c, 1, 72, 127
2, 41080, Note_off_c, 1, 75, 0
2, 41080, Note_on_c, 1, 79, 127
2, 41080, Note_off_c, 1, 80, 0
2, 41080, Note_off_c, 1, 83, 0
2, 41080, Note_off_c, 1, 95, 0
2, 41120, Note_off_c, 1, 43, 0
2, 41120, Note_on_c, 1, 55, 127
2, 41120, Note_on_c, 1, 58, 127
2, 41120, Note_on_c, 1, 62, 127
2, 41120, Note_on_c, 1, 67, 127
2, 41120, Note_off_c, 1, 72, 0
2, 41120, Note_off_c, 1, 79, 0
2, 41120, Note_on_c, 1, 82, 127
2, 41120, Note_on_c, 1, 86, 127
2, 41120, Note_on_c, 1, 91, 127
2, 41120, Note_on_c, 1, 94, 127
2, 41160, Note_off_c, 1, 55, 0
2, 41160, Note_off_c, 1, 58, 0
2, 41160, Note_off_c, 1, 62, 0
2, 41160, Note_off_c, 1, 67, 0
2, 41160, Note_off_c, 1, 82, 0
2, 41160, Note_off_c, 1, 86, 0
2, 41160, Note_off_c, 1, 91, 0
2, 41160, Note_off_c, 1, 94, 0
2, 41560, Note_on_c, 1, 33, 127
2, 41560, Note_on_c, 1, 45, 127
2, 41560, Note_on_c, 1, 75, 127
2, 41560, Note_on_c, 1, 79, 127
2, 41560, Note_on_c, 1, 85, 127
2, 41560, Note_on_c, 1, 87, 127
2, 42120, Note_off_c, 1, 33, 0
2, 42120, Note_off_c, 1, 45, 0
2, 42120, Note_off_c, 1, 75, 0
2, 42120, Note_off_c, 1, 79, 0
2, 42120, Note_off_c, 1, 85, 0
2, 42120, Note_off_c, 1, 87, 0
2, 42160, Note_on_c, 1, 33, 127
2, 42160, Note_on_c, 1, 45, 127
2, 42160, Note_on_c, 1, 75, 127
2, 42160, Note_on_c, 1, 79, 127
2, 42160, Note_on_c, 1, 85, 127
2, 42160, Note_on_c, 1, 87, 127
2, 42720, Note_off_c, 1, 33, 0
2, 42720, Note_off_c, 1, 45, 0
2, 42720, Note_off_c, 1, 75, 0
2, 42720, Note_off_c, 1, 79, 0
2, 42720, Note_off_c, 1, 85, 0
2, 42720, Note_off_c, 1, 87, 0
2, 42760, Note_on_c, 1, 32, 127
2, 42760, Note_on_c, 1, 44, 127
2, 42760, Note_on_c, 1, 80, 127
2, 42760, Note_on_c, 1, 84, 127
2, 42760, Note_on_c, 1, 87, 127
2, 42760, Note_on_c, 1, 92, 127
2, 43360, Note_off_c, 1, 32, 0
2, 43360, Note_off_c, 1, 44, 0
2, 43360, Note_off_c, 1, 80, 0
2, 43360, Note_off_c, 1, 84, 0
2, 43360, Note_off_c, 1, 87, 0
2, 43360, Note_off_c, 1, 92, 0
2, 43400, Note_on_c, 1, 32, 127
2, 43400, Note_on_c, 1, 44, 127
2, 43400, Note_on_c, 1, 80, 127
2, 43400, Note_on_c, 1, 84, 127
2, 43400, Note_on_c, 1, 87, 127
2, 43400, Note_on_c, 1, 92, 127
2, 43960, Note_off_c, 1, 32, 0
2, 43960, Note_off_c, 1, 44, 0
2, 43960, Note_off_c, 1, 80, 0
2, 43960, Note_off_c, 1, 84, 0
2, 43960, Note_off_c, 1, 87, 0
2, 43960, Note_off_c, 1, 92, 0
2, 44000, Note_on_c, 1, 39, 127
2, 44000, Note_on_c, 1, 51, 127
2, 44000, Note_on_c, 1, 56, 127
2, 44000, Note_on_c, 1, 60, 127
2, 44000, Note_on_c, 1, 63, 127
2, 44560, Note_off_c, 1, 39, 0
2, 44560, Note_off_c, 1, 51, 0
2, 44560, Note_off_c, 1, 56, 0
2, 44560, Note_off_c, 1, 60, 0
2, 44560, Note_off_c, 1, 63, 0
2, 45200, Note_on_c, 1, 63, 127
2, 45200, Note_on_c, 1, 75, 127
2, 45400, Note_off_c, 1, 63, 0
2, 45400, Note_off_c, 1, 75, 0
2, 45440, Note_on_c, 1, 63, 127
2, 45440, Note_on_c, 1, 75, 127
2, 46360, Note_off_c, 1, 63, 0
2, 46360, Note_off_c, 1, 75, 0
2, 46440, Note_on_c, 1, 41, 127
2, 46440, Note_on_c, 1, 65, 127
2, 46440, Note_on_c, 1, 77, 127
2, 46680, Note_off_c, 1, 41, 0
2, 46720, Note_on_c, 1, 41, 127
2, 47240, Note_off_c, 1, 41, 0
2, 47240, Note_off_c, 1, 65, 0
2, 47240, Note_off_c, 1, 77, 0
2, 47280, Note_on_c, 1, 41, 127
2, 47280, Note_on_c, 1, 65, 127
2, 47280, Note_on_c, 1, 77, 127
2, 47640, Note_off_c, 1, 41, 0
2, 47640, Note_off_c, 1, 65, 0
2, 47640, Note_off_c, 1, 77, 0
2, 47680, Note_on_c, 1, 47, 127
2, 47680, Note_on_c, 1, 57, 127
2, 47680, Note_on_c, 1, 62, 127
2, 47680, Note_on_c, 1, 68, 127
2, 47680, Note_on_c, 1, 71, 127
2, 48080, Note_on_c, 1, 45, 127
2, 48080, Note_off_c, 1, 47, 0
2, 48080, Note_on_c, 1, 60, 127
2, 48080, Note_off_c, 1, 62, 0
2, 48080, Note_off_c, 1, 68, 0
2, 48080, Note_on_c, 1, 69, 127
2, 48080, Note_off_c, 1, 71, 0
2, 48080, Note_on_c, 1, 72, 127
2, 48240, Note_on_c, 1, 41, 127
2, 48240, Note_off_c, 1, 45, 0
2, 48240, Note_on_c, 1, 53, 127
2, 48240, Note_off_c, 1, 57, 0
2, 48240, Note_off_c, 1, 60, 0
2, 48240, Note_off_c, 1, 69, 0
2, 48240, Note_off_c, 1, 72, 0
2, 48280, Note_on_c, 1, 48, 127
2, 48280, Note_off_c, 1, 53, 0
2, 48280, Note_on_c, 1, 57, 127
2, 48280, Note_on_c, 1, 69, 127
2, 48800, Note_off_c, 1, 41, 0
2, 48800, Note_off_c, 1, 48, 0
2, 48800, Note_off_c, 1, 57, 0
2, 48800, Note_off_c, 1, 69, 0
2, 48880, Note_on_c, 1, 41, 127
2, 48880, Note_on_c, 1, 48, 127
2, 48880, Note_on_c, 1, 57, 127
2, 48880, Note_on_c, 1, 67, 127
2, 49280, Note_off_c, 1, 41, 0
2, 49280, Note_off_c, 1, 48, 0
2, 49280, Note_off_c, 1, 57, 0
2, 49280, Note_off_c, 1, 67, 0
2, 49320, Note_on_c, 1, 41, 127
2, 49320, Note_on_c, 1, 48, 127
2, 49320, Note_on_c, 1, 57, 127
2, 49320, Note_on_c, 1, 67, 127
2, 50000, Note_off_c, 1, 41, 0
2, 50000, Note_off_c, 1, 48, 0
2, 50000, Note_off_c, 1, 57, 0
2, 50000, Note_off_c, 1, 67, 0
2, 50120, Note_on_c, 1, 31, 127
2, 50120, Note_on_c, 1, 43, 127
2, 50120, Note_on_c, 1, 67, 127
2, 50120, Note_on_c, 1, 71, 127
2, 50120, Note_on_c, 1, 74, 127
2, 50120, Note_on_c, 1, 77, 127
2, 50120, Note_on_c, 1, 79, 127
2, 51280, Note_off_c, 1, 31, 0
2, 51280, Note_off_c, 1, 43, 0
2, 51280, Note_off_c, 1, 67, 0
2, 51280, Note_off_c, 1, 71, 0
2, 51280, Note_off_c, 1, 74, 0
2, 51280, Note_off_c, 1, 77, 0
2, 51280, Note_off_c, 1, 79, 0
2, 51360, Note_on_c, 1, 52, 127
2, 51360, Note_on_c, 1, 57, 127
2, 51360, Note_on_c, 1, 60, 127
2, 51360, Note_on_c, 1, 72, 127
2, 51360, Note_on_c, 1, 84, 127
2, 52520, Note_off_c, 1, 52, 0
2, 52520, Note_off_c, 1, 57, 0
2, 52520, Note_off_c, 1, 60, 0
2, 52520, Note_off_c, 1, 72, 0
2, 52520, Note_off_c, 1, 84, 0
2, 52560, Note_on_c, 1, 50, 127
2, 52560, Note_on_c, 1, 54, 127
2, 52560, Note_on_c, 1, 62, 127
2, 52560, Note_on_c, 1, 69, 127
2, 52560, Note_on_c, 1, 74, 127
2, 53120, Note_off_c, 1, 54, 0
2, 53160, Note_on_c, 1, 57, 127
2, 53360, Note_off_c, 1, 50, 0
2, 53360, Note_off_c, 1, 57, 0
2, 53360, Note_off_c, 1, 62, 0
2, 53360, Note_off_c, 1, 69, 0
2, 53360, Note_off_c, 1, 74, 0
2, 53400, Note_on_c, 1, 50, 127
2, 53400, Note_on_c, 1, 57, 127
2, 53400, Note_on_c, 1, 62, 127
2, 53400, Note_on_c, 1, 69, 127
2, 53400, Note_on_c, 1, 74, 127
2, 53760, Note_off_c, 1, 50, 0
2, 53760, Note_off_c, 1, 57, 0
2, 53760, Note_off_c, 1, 62, 0
2, 53760, Note_off_c, 1, 69, 0
2, 53760, Note_off_c, 1, 74, 0
2, 53800, Note_on_c, 1, 50, 127
2, 53800, Note_on_c, 1, 55, 127
2, 53800, Note_on_c, 1, 64, 127
2, 53800, Note_on_c, 1, 69, 127
2, 53800, Note_on_c, 1, 76, 127
2, 54360, Note_off_c, 1, 55, 0
2, 54360, Note_off_c, 1, 64, 0
2, 54360, Note_off_c, 1, 69, 0
2, 54360, Note_off_c, 1, 76, 0
2, 54400, Note_on_c, 1, 54, 127
2, 54400, Note_on_c, 1, 62, 127
2, 54400, Note_on_c, 1, 69, 127
2, 54400, Note_on_c, 1, 74, 127
2, 54960, Note_off_c, 1, 50, 0
2, 54960, Note_off_c, 1, 54, 0
2, 54960, Note_off_c, 1, 62, 0
2, 54960, Note_off_c, 1, 69, 0
2, 54960, Note_off_c, 1, 74, 0
2, 55000, Note_on_c, 1, 50, 127
2, 55000, Note_on_c, 1, 54, 127
2, 55000, Note_on_c, 1, 62, 127
2, 55000, Note_on_c, 1, 69, 127
2, 55000, Note_on_c, 1, 74, 127
2, 55400, Note_off_c, 1, 50, 0
2, 55400, Note_off_c, 1, 54, 0
2, 55400, Note_off_c, 1, 62, 0
2, 55400, Note_off_c, 1, 69, 0
2, 55400, Note_off_c, 1, 74, 0
2, 55440, Note_on_c, 1, 50, 127
2, 55440, Note_on_c, 1, 54, 127
2, 55440, Note_on_c, 1, 62, 127
2, 55440, Note_on_c, 1, 69, 127
2, 55440, Note_on_c, 1, 74, 127
2, 55600, Note_off_c, 1, 54, 0
2, 55600, Note_off_c, 1, 62, 0
2, 55600, Note_off_c, 1, 69, 0
2, 55600, Note_off_c, 1, 74, 0
2, 56200, Note_off_c, 1, 50, 0
2, 56240, Note_on_c, 1, 50, 127
2, 56240, Note_on_c, 1, 60, 127
2, 56240, Note_on_c, 1, 62, 127
2, 56240, Note_on_c, 1, 66, 127
2, 56240, Note_on_c, 1, 69, 127
2, 56800, Note_off_c, 1, 69, 0
2, 56840, Note_on_c, 1, 71, 127
2, 57400, Note_off_c, 1, 50, 0
2, 57400, Note_off_c, 1, 60, 0
2, 57400, Note_off_c, 1, 62, 0
2, 57400, Note_off_c, 1, 66, 0
2, 57400, Note_off_c, 1, 71, 0
2, 57480, Note_on_c, 1, 55, 127
2, 57480, Note_on_c, 1, 60, 127
2, 57480, Note_on_c, 1, 62, 127
2, 57480, Note_on_c, 1, 66, 127
2, 57480, Note_on_c, 1, 69, 127
2, 59480, Note_off_c, 1, 55, 0
2, 59480, Note_off_c, 1, 60, 0
2, 59480, Note_off_c, 1, 62, 0
2, 59480, Note_off_c, 1, 66, 0
2, 59480, Note_off_c, 1, 69, 0
2, 59520, Note_on_c, 1, 55, 127
2, 59520, Note_on_c, 1, 60, 127
2, 59520, Note_on_c, 1, 62, 127
2, 59520, Note_on_c, 1, 66, 127
2, 59520, Note_on_c, 1, 69, 127
2, 59880, Note_off_c, 1, 55, 0
2, 59880, Note_off_c, 1, 60, 0
2, 59880, Note_off_c, 1, 62, 0
2, 59880, Note_off_c, 1, 66, 0
2, 59880, Note_off_c, 1, 69, 0
2, 59920, Note_on_c, 1, 36, 127
2, 59920, Note_on_c, 1, 48, 127
2, 59920, Note_on_c, 1, 60, 127
2, 60120, Note_off_c, 1, 36, 0
2, 60120, Note_off_c, 1, 48, 0
2, 60120, Note_off_c, 1, 60, 0
2, 61120, Note_on_c, 1, 42, 127
2, 61120, Note_on_c, 1, 54, 127
2, 61120, Note_on_c, 1, 63, 127
2, 61120, Note_on_c, 1, 69, 127
2, 61120, Note_on_c, 1, 73, 127
2, 61120, Note_on_c, 1, 75, 127
2, 61520, Note_off_c, 1, 42, 0
2, 61520, Note_off_c, 1, 54, 0
2, 61520, Note_off_c, 1, 63, 0
2, 61520, Note_off_c, 1, 69, 0
2, 61520, Note_off_c, 1, 73, 0
2, 61520, Note_off_c, 1, 75, 0
2, 61560, Note_on_c, 1, 42, 127
2, 61560, Note_on_c, 1, 54, 127
2, 61560, Note_on_c, 1, 63, 127
2, 61560, Note_on_c, 1, 69, 127
2, 61560, Note_on_c, 1, 73, 127
2, 61560, Note_on_c, 1, 75, 127
2, 62240, Note_off_c, 1, 42, 0
2, 62240, Note_off_c, 1, 54, 0
2, 62240, Note_off_c, 1, 63, 0
2, 62240, Note_off_c, 1, 69, 0
2, 62240, Note_off_c, 1, 73, 0
2, 62240, Note_off_c, 1, 75, 0
2, 62360, Note_on_c, 1, 42, 127
2, 62360, Note_on_c, 1, 54, 127
2, 62360, Note_on_c, 1, 63, 127
2, 62360, Note_on_c, 1, 69, 127
2, 62360, Note_on_c, 1, 73, 127
2, 62360, Note_on_c, 1, 75, 127
2, 63440, Note_off_c, 1, 42, 0
2, 63440, Note_off_c, 1, 54, 0
2, 63440, Note_off_c, 1, 63, 0
2, 63440, Note_off_c, 1, 69, 0
2, 63440, Note_off_c, 1, 73, 0
2, 63440, Note_off_c, 1, 75, 0
2, 63600, Note_on_c, 1, 42, 127
2, 63600, Note_on_c, 1, 54, 127
2, 63600, Note_on_c, 1, 63, 127
2, 63600, Note_on_c, 1, 69, 127
2, 63600, Note_on_c, 1, 73, 127
2, 63600, Note_on_c, 1, 75, 127
2, 64680, Note_off_c, 1, 42, 0
2, 64680, Note_off_c, 1, 54, 0
2, 64680, Note_off_c, 1, 63, 0
2, 64680, Note_off_c, 1, 69, 0
2, 64680, Note_off_c, 1, 73, 0
2, 64680, Note_off_c, 1, 75, 0
2, 64800, Note_on_c, 1, 42, 127
2, 64800, Note_on_c, 1, 54, 127
2, 64800, Note_on_c, 1, 63, 127
2, 64800, Note_on_c, 1, 69, 127
2, 64800, Note_on_c, 1, 73, 127
2, 64800, Note_on_c, 1, 75, 127
2, 65600, Note_off_c, 1, 42, 0
2, 65600, Note_off_c, 1, 54, 0
2, 65600, Note_off_c, 1, 63, 0
2, 65600, Note_off_c, 1, 69, 0
2, 65600, Note_off_c, 1, 73, 0
2, 65600, Note_off_c, 1, 75, 0
2, 65640, Note_on_c, 1, 42, 127
2, 65640, Note_on_c, 1, 54, 127
2, 65640, Note_on_c, 1, 63, 127
2, 65640, Note_on_c, 1, 69, 127
2, 65640, Note_on_c, 1, 73, 127
2, 65640, Note_on_c, 1, 75, 127
2, 65920, Note_off_c, 1, 42, 0
2, 65920, Note_off_c, 1, 54, 0
2, 65920, Note_off_c, 1, 63, 0
2, 65920, Note_off_c, 1, 69, 0
2, 65920, Note_off_c, 1, 73, 0
2, 65920, Note_off_c, 1, 75, 0
2, 66040, Note_on_c, 1, 55, 127
2, 66040, Note_on_c, 1, 62, 127
2, 66040, Note_on_c, 1, 71, 127
2, 66040, Note_on_c, 1, 74, 127
2, 66040, Note_on_c, 1, 79, 127
2, 67120, Note_off_c, 1, 55, 0
2, 67120, Note_off_c, 1, 62, 0
2, 67120, Note_off_c, 1, 71, 0
2, 67120, Note_off_c, 1, 74, 0
2, 67120, Note_off_c, 1, 79, 0
2, 67240, Note_on_c, 1, 67, 127
2, 67240, Note_on_c, 1, 71, 127
2, 67240, Note_on_c, 1, 74, 127
2, 67240, Note_on_c, 1, 79, 127
2, 67240, Note_on_c, 1, 83, 127
2, 67640, Note_off_c, 1, 67, 0
2, 67640, Note_off_c, 1, 71, 0
2, 67640, Note_off_c, 1, 74, 0
2, 67640, Note_off_c, 1, 79, 0
2, 67640, Note_off_c, 1, 83, 0
2, 67680, Note_on_c, 1, 67, 127
2, 67680, Note_on_c, 1, 71, 127
2, 67680, Note_on_c, 1, 74, 127
2, 67680, Note_on_c, 1, 79, 127
2, 67680, Note_on_c, 1, 83, 127
2, 67800, Note_off_c, 1, 67, 0
2, 67800, Note_off_c, 1, 71, 0
2, 67800, Note_off_c, 1, 74, 0
2, 67800, Note_off_c, 1, 79, 0
2, 67800, Note_off_c, 1, 83, 0
2, 67880, Note_on_c, 1, 67, 127
2, 67880, Note_on_c, 1, 71, 127
2, 67880, Note_on_c, 1, 74, 127
2, 67880, Note_on_c, 1, 79, 127
2, 67880, Note_on_c, 1, 83, 127
2, 68400, Note_off_c, 1, 67, 0
2, 68400, Note_off_c, 1, 71, 0
2, 68400, Note_off_c, 1, 74, 0
2, 68400, Note_off_c, 1, 79, 0
2, 68400, Note_off_c, 1, 83, 0
2, 68480, Note_on_c, 1, 67, 127
2, 68480, Note_on_c, 1, 71, 127
2, 68480, Note_on_c, 1, 74, 127
2, 68480, Note_on_c, 1, 79, 127
2, 68480, Note_on_c, 1, 83, 127
2, 69000, Note_off_c, 1, 67, 0
2, 69000, Note_off_c, 1, 71, 0
2, 69000, Note_off_c, 1, 74, 0
2, 69000, Note_off_c, 1, 79, 0
2, 69000, Note_off_c, 1, 83, 0
2, 69080, Note_on_c, 1, 79, 127
2, 69080, Note_on_c, 1, 83, 127
2, 69080, Note_on_c, 1, 86, 127
2, 69080, Note_on_c, 1, 91, 127
2, 69080, Note_on_c, 1, 95, 127
2, 69600, Note_off_c, 1, 79, 0
2, 69600, Note_off_c, 1, 83, 0
2, 69600, Note_off_c, 1, 86, 0
2, 69600, Note_off_c, 1, 91, 0
2, 69600, Note_off_c, 1, 95, 0
2, 69720, Note_on_c, 1, 79, 127
2, 69720, Note_on_c, 1, 83, 127
2, 69720, Note_on_c, 1, 86, 127
2, 69720, Note_on_c, 1, 91, 127
2, 69720, Note_on_c, 1, 95, 127
2, 70200, Note_off_c, 1, 79, 0
2, 70200, Note_off_c, 1, 83, 0
2, 70200, Note_off_c, 1, 86, 0
2, 70200, Note_off_c, 1, 91, 0
2, 70200, Note_off_c, 1, 95, 0
2, 70920, Note_on_c, 1, 48, 127
2, 70920, Note_on_c, 1, 51, 127
2, 70920, Note_on_c, 1, 60, 127
2, 70920, Note_on_c, 1, 63, 127
2, 70920, Note_on_c, 1, 70, 127
2, 71720, Note_off_c, 1, 48, 0
2, 71720, Note_off_c, 1, 51, 0
2, 71720, Note_off_c, 1, 60, 0
2, 71720, Note_off_c, 1, 63, 0
2, 71720, Note_off_c, 1, 70, 0
2, 71760, Note_on_c, 1, 48, 127
2, 71760, Note_on_c, 1, 51, 127
2, 71760, Note_on_c, 1, 60, 127
2, 71760, Note_on_c, 1, 63, 127
2, 71760, Note_on_c, 1, 70, 127
2, 72080, Note_off_c, 1, 48, 0
2, 72080, Note_off_c, 1, 51, 0
2, 72080, Note_off_c, 1, 60, 0
2, 72080, Note_off_c, 1, 63, 0
2, 72080, Note_off_c, 1, 70, 0
2, 72160, Note_on_c, 1, 48, 127
2, 72160, Note_on_c, 1, 51, 127
2, 72160, Note_on_c, 1, 60, 127
2, 72160, Note_on_c, 1, 63, 127
2, 72160, Note_on_c, 1, 70, 127
2, 73240, Note_off_c, 1, 48, 0
2, 73240, Note_off_c, 1, 51, 0
2, 73240, Note_off_c, 1, 60, 0
2, 73240, Note_off_c, 1, 63, 0
2, 73240, Note_off_c, 1, 70, 0
2, 73360, Note_on_c, 1, 44, 127
2, 73360, Note_on_c, 1, 55, 127
2, 73360, Note_on_c, 1, 63, 127
2, 73360, Note_on_c, 1, 70, 127
2, 73360, Note_on_c, 1, 73, 127
2, 73600, Note_off_c, 1, 44, 0
2, 73600, Note_off_c, 1, 55, 0
2, 73600, Note_off_c, 1, 63, 0
2, 73600, Note_off_c, 1, 70, 0
2, 73600, Note_off_c, 1, 73, 0
2, 74600, Note_on_c, 1, 43, 127
2, 74600, Note_on_c, 1, 50, 127
2, 74600, Note_on_c, 1, 55, 127
2, 74600, Note_on_c, 1, 59, 127
2, 74600, Note_on_c, 1, 95, 127
2, 74960, Note_off_c, 1, 43, 0
2, 74960, Note_on_c, 1, 48, 127
2, 74960, Note_off_c, 1, 50, 0
2, 74960, Note_off_c, 1, 55, 0
2, 74960, Note_off_c, 1, 59, 0
2, 74960, Note_off_c, 1, 95, 0
2, 74960, Note_on_c, 1, 103, 127
2, 75000, Note_on_c, 1, 43, 127
2, 75000, Note_off_c, 1, 48, 0
2, 75000, Note_on_c, 1, 50, 127
2, 75000, Note_on_c, 1, 55, 127
2, 75000, Note_on_c, 1, 59, 127
2, 75000, Note_on_c, 1, 95, 127
2, 75000, Note_off_c, 1, 103, 0
2, 75120, Note_off_c, 1, 43, 0
2, 75120, Note_off_c, 1, 50, 0
2, 75120, Note_off_c, 1, 55, 0
2, 75120, Note_off_c, 1, 59, 0
2, 75120, Note_off_c, 1, 95, 0
2, 75840, Note_on_c, 1, 50, 127
2, 75840, Note_on_c, 1, 61, 127
2, 75840, Note_on_c, 1, 64, 127
2, 75840, Note_on_c, 1, 66, 127
2, 75840, Note_on_c, 1, 68, 127
2, 75840, Note_on_c, 1, 78, 127
2, 77000, Note_off_c, 1, 50, 0
2, 77000, Note_off_c, 1, 61, 0
2, 77000, Note_off_c, 1, 64, 0
2, 77000, Note_off_c, 1, 66, 0
2, 77000, Note_off_c, 1, 68, 0
2, 77000, Note_off_c, 1, 78, 0
2, 77040, Note_on_c, 1, 58, 127
2, 77040, Note_on_c, 1, 67, 127
2, 77040, Note_on_c, 1, 70, 127
2, 77040, Note_on_c, 1, 76, 127
2, 77040, Note_on_c, 1, 79, 127
2, 77040, Note_on_c, 1, 88, 127
2, 77760, Note_off_c, 1, 58, 0
2, 77760, Note_off_c, 1, 67, 0
2, 77760, Note_off_c, 1, 70, 0
2, 77760, Note_off_c, 1, 76, 0
2, 77760, Note_off_c, 1, 79, 0
2, 77760, Note_off_c, 1, 88, 0
2, 77800, Note_on_c, 1, 58, 127
2, 77800, Note_on_c, 1, 67, 127
2, 77800, Note_on_c, 1, 70, 127
2, 77800, Note_on_c, 1, 76, 127
2, 77800, Note_on_c, 1, 79, 127
2, 77800, Note_on_c, 1, 88, 127
2, 78200, Note_off_c, 1, 58, 0
2, 78200, Note_off_c, 1, 67, 0
2, 78200, Note_off_c, 1, 70, 0
2, 78200, Note_off_c, 1, 76, 0
2, 78200, Note_off_c, 1, 79, 0
2, 78200, Note_off_c, 1, 88, 0
2, 78280, Note_on_c, 1, 38, 127
2, 78280, Note_on_c, 1, 42, 127
2, 78280, Note_on_c, 1, 45, 127
2, 78280, Note_on_c, 1, 50, 127
2, 78280, Note_on_c, 1, 86, 127
2, 78280, Note_on_c, 1, 90, 127
2, 78280, Note_on_c, 1, 98, 127
2, 78800, Note_off_c, 1, 38, 0
2, 78800, Note_off_c, 1, 42, 0
2, 78800, Note_off_c, 1, 45, 0
2, 78800, Note_off_c, 1, 50, 0
2, 78800, Note_off_c, 1, 86, 0
2, 78800, Note_off_c, 1, 90, 0
2, 78800, Note_off_c, 1, 98, 0
2, 78880, Note_on_c, 1, 31, 127
2, 78880, Note_on_c, 1, 37, 127
2, 78880, Note_on_c, 1, 40, 127
2, 78880, Note_on_c, 1, 43, 127
2, 78880, Note_on_c, 1, 82, 127
2, 78880, Note_on_c, 1, 85, 127
2, 78880, Note_on_c, 1, 88, 127
2, 78880, Note_on_c, 1, 94, 127
2, 79200, Note_off_c, 1, 31, 0
2, 79200, Note_off_c, 1, 37, 0
2, 79200, Note_on_c, 1, 38, 127
2, 79200, Note_off_c, 1, 40, 0
2, 79200, Note_on_c, 1, 42, 127
2, 79200, Note_off_c, 1, 43, 0
2, 79200, Note_on_c, 1, 45, 127
2, 79200, Note_on_c, 1, 50, 127
2, 79200, Note_off_c, 1, 82, 0
2, 79200, Note_off_c, 1, 85, 0
2, 79200, Note_on_c, 1, 86, 127
2, 79200, Note_off_c, 1, 88, 0
2, 79200, Note_on_c, 1, 90, 127
2, 79200, Note_off_c, 1, 94, 0
2, 79200, Note_on_c, 1, 98, 127
2, 79240, Note_on_c, 1, 31, 127
2, 79240, Note_on_c, 1, 37, 127
2, 79240, Note_off_c, 1, 38, 0
2, 79240, Note_on_c, 1, 40, 127
2, 79240, Note_off_c, 1, 42, 0
2, 79240, Note_on_c, 1, 43, 127
2, 79240, Note_off_c, 1, 45, 0
2, 79240, Note_off_c, 1, 50, 0
2, 79240, Note_on_c, 1, 82, 127
2, 79240, Note_on_c, 1, 85, 127
2, 79240, Note_off_c, 1, 86, 0
2, 79240, Note_on_c, 1, 88, 127
2, 79240, Note_off_c, 1, 90, 0
2, 79240, Note_on_c, 1, 94, 127
2, 79240, Note_off_c, 1, 98, 0
2, 79360, Note_off_c, 1, 31, 0
2, 79360, Note_off_c, 1, 37, 0
2, 79360, Note_on_c, 1, 38, 127
2, 79360, Note_off_c, 1, 40, 0
2, 79360, Note_on_c, 1, 42, 127
2, 79360, Note_off_c, 1, 43, 0
2, 79360, Note_on_c, 1, 45, 127
2, 79360, Note_on_c, 1, 50, 127
2, 79360, Note_off_c, 1, 82, 0
2, 79360, Note_off_c, 1, 85, 0
2, 79360, Note_on_c, 1, 86, 127
2, 79360, Note_off_c, 1, 88, 0
2, 79360, Note_on_c, 1, 90, 127
2, 79360, Note_off_c, 1, 94, 0
2, 79360, Note_on_c, 1, 98, 127
2, 79400, Note_off_c, 1, 38, 0
2, 79400, Note_off_c, 1, 42, 0
2, 79400, Note_off_c, 1, 45, 0
2, 79400, Note_off_c, 1, 50, 0
2, 79400, Note_off_c, 1, 86, 0
2, 79400, Note_off_c, 1, 90, 0
2, 79400, Note_off_c, 1, 98, 0
2, 79480, Note_on_c, 1, 31, 127
2, 79480, Note_on_c, 1, 37, 127
2, 79480, Note_on_c, 1, 40, 127
2, 79480, Note_on_c, 1, 43, 127
2, 79480, Note_on_c, 1, 82, 127
2, 79480, Note_on_c, 1, 85, 127
2, 79480, Note_on_c, 1, 88, 127
2, 79480, Note_on_c, 1, 94, 127
2, 79680, Note_off_c, 1, 31, 0
2, 79680, Note_off_c, 1, 37, 0
2, 79680, Note_off_c, 1, 40, 0
2, 79680, Note_off_c, 1, 43, 0
2, 79680, Note_off_c, 1, 82, 0
2, 79680, Note_off_c, 1, 85, 0
2, 79680, Note_off_c, 1, 88, 0
2, 79680, Note_off_c, 1, 94, 0
2, 79720, Note_on_c, 1, 31, 127
2, 79720, Note_on_c, 1, 37, 127
2, 79720, Note_on_c, 1, 40, 127
2, 79720, Note_on_c, 1, 43, 127
2, 79720, Note_on_c, 1, 82, 127
2, 79720, Note_on_c, 1, 85, 127
2, 79720, Note_on_c, 1, 88, 127
2, 79720, Note_on_c, 1, 94, 127
2, 80040, Note_off_c, 1, 31, 0
2, 80040, Note_off_c, 1, 37, 0
2, 80040, Note_off_c, 1, 40, 0
2, 80040, Note_off_c, 1, 43, 0
2, 80040, Note_off_c, 1, 82, 0
2, 80040, Note_off_c, 1, 85, 0
2, 80040, Note_off_c, 1, 88, 0
2, 80040, Note_off_c, 1, 94, 0
2, 80120, Note_on_c, 1, 52, 127
2, 80120, Note_on_c, 1, 57, 127
2, 80120, Note_on_c, 1, 60, 127
2, 80120, Note_on_c, 1, 64, 127
2, 80120, Note_on_c, 1, 84, 127
2, 80120, Note_on_c, 1, 88, 127
2, 80120, Note_on_c, 1, 93, 127
2, 80120, Note_on_c, 1, 96, 127
2, 80680, Note_off_c, 1, 52, 0
2, 80680, Note_off_c, 1, 57, 0
2, 80680, Note_off_c, 1, 60, 0
2, 80680, Note_off_c, 1, 64, 0
2, 80680, Note_off_c, 1, 84, 0
2, 80680, Note_off_c, 1, 88, 0
2, 80680, Note_off_c, 1, 93, 0
2, 80680, Note_off_c, 1, 96, 0
2, 80720, Note_on_c, 1, 57, 127
2, 80720, Note_on_c, 1, 62, 127
2, 80720, Note_on_c, 1, 65, 127
2, 80720, Note_on_c, 1, 77, 127
2, 80720, Note_on_c, 1, 89, 127
2, 81280, Note_off_c, 1, 57, 0
2, 81280, Note_off_c, 1, 62, 0
2, 81280, Note_off_c, 1, 65, 0
2, 81280, Note_off_c, 1, 77, 0
2, 81280, Note_off_c, 1, 89, 0
2, 81320, Note_on_c, 1, 35, 127
2, 81320, Note_on_c, 1, 47, 127
2, 81320, Note_on_c, 1, 87, 127
2, 81320, Note_on_c, 1, 95, 127
2, 81320, Note_on_c, 1, 99, 127
2, 81440, Note_off_c, 1, 35, 0
2, 81440, Note_off_c, 1, 47, 0
2, 81480, Note_off_c, 1, 87, 0
2, 81480, Note_off_c, 1, 95, 0
2, 81480, Note_off_c, 1, 99, 0
2, 82560, Note_on_c, 1, 47, 127
2, 82560, Note_on_c, 1, 59, 127
2, 82960, Note_off_c, 1, 47, 0
2, 82960, Note_off_c, 1, 59, 0
2, 83000, Note_on_c, 1, 50, 127
2, 83000, Note_on_c, 1, 62, 127
2, 83400, Note_off_c, 1, 50, 0
2, 83400, Note_off_c, 1, 62, 0
2, 83440, Note_on_c, 1, 50, 127
2, 83440, Note_on_c, 1, 62, 127
2, 83840, Note_off_c, 1, 50, 0
2, 83840, Note_off_c, 1, 62, 0
2, 83880, Note_on_c, 1, 50, 127
2, 83880, Note_on_c, 1, 62, 127
2, 84640, Note_off_c, 1, 50, 0
2, 84640, Note_off_c, 1, 62, 0
2, 84680, Note_on_c, 1, 50, 127
2, 84680, Note_on_c, 1, 76, 127
2, 84680, Note_on_c, 1, 79, 127
2, 84680, Note_on_c, 1, 84, 127
2, 84680, Note_on_c, 1, 88, 127
2, 84720, Note_off_c, 1, 50, 0
2, 85480, Note_on_c, 1, 36, 127
2, 85480, Note_on_c, 1, 44, 127
2, 85480, Note_on_c, 1, 48, 127
2, 85480, Note_on_c, 1, 66, 127
2, 85480, Note_on_c, 1, 68, 127
2, 85480, Note_off_c, 1, 76, 0
2, 85480, Note_off_c, 1, 79, 0
2, 85480, Note_off_c, 1, 84, 0
2, 85480, Note_off_c, 1, 88, 0
2, 85520, Note_off_c, 1, 36, 0
2, 85520, Note_off_c, 1, 44, 0
2, 85520, Note_off_c, 1, 48, 0
2, 85520, Note_off_c, 1, 66, 0
2, 85520, Note_off_c, 1, 68, 0
2, 85520, Note_on_c, 1, 76, 127
2, 85520, Note_on_c, 1, 79, 127
2, 85520, Note_on_c, 1, 84, 127
2, 85520, Note_on_c, 1, 88, 127
2, 85880, Note_off_c, 1, 76, 0
2, 85880, Note_off_c, 1, 79, 0
2, 85880, Note_off_c, 1, 84, 0
2, 85880, Note_off_c, 1, 88, 0
2, 85920, Note_on_c, 1, 76, 127
2, 85920, Note_on_c, 1, 79, 127
2, 85920, Note_on_c, 1, 84, 127
2, 85920, Note_on_c, 1, 88, 127
2, 87080, Note_off_c, 1, 76, 0
2, 87080, Note_off_c, 1, 79, 0
2, 87080, Note_off_c, 1, 84, 0
2, 87080, Note_off_c, 1, 88, 0
2, 87120, Note_on_c, 1, 51, 127
2, 87120, Note_on_c, 1, 55, 127
2, 87120, Note_on_c, 1, 58, 127
2, 87120, Note_on_c, 1, 63, 127
2, 87120, Note_on_c, 1, 75, 127
2, 87120, Note_on_c, 1, 87, 127
2, 87920, Note_off_c, 1, 51, 0
2, 87920, Note_off_c, 1, 55, 0
2, 87920, Note_off_c, 1, 58, 0
2, 87920, Note_off_c, 1, 63, 0
2, 87920, Note_off_c, 1, 75, 0
2, 87920, Note_off_c, 1, 87, 0
2, 87960, Note_on_c, 1, 51, 127
2, 87960, Note_on_c, 1, 55, 127
2, 87960, Note_on_c, 1, 58, 127
2, 87960, Note_on_c, 1, 63, 127
2, 87960, Note_on_c, 1, 75, 127
2, 87960, Note_on_c, 1, 87, 127
2, 89960, Note_off_c, 1, 51, 0
2, 89960, Note_off_c, 1, 55, 0
2, 89960, Note_off_c, 1, 58, 0
2, 89960, Note_off_c, 1, 63, 0
2, 89960, Note_off_c, 1, 75, 0
2, 89960, Note_off_c, 1, 87, 0
2, 90000, Note_on_c, 1, 51, 127
2, 90000, Note_on_c, 1, 55, 127
2, 90000, Note_on_c, 1, 58, 127
2, 90000, Note_on_c, 1, 63, 127
2, 90000, Note_on_c, 1, 75, 127
2, 90000, Note_on_c, 1, 87, 127
2, 91960, Note_off_c, 1, 51, 0
2, 91960, Note_off_c, 1, 55, 0
2, 91960, Note_off_c, 1, 58, 0
2, 91960, Note_off_c, 1, 63, 0
2, 91960, Note_off_c, 1, 75, 0
2, 91960, Note_off_c, 1, 87, 0
2, 92040, Note_on_c, 1, 52, 127
2, 92040, Note_on_c, 1, 57, 127
2, 92040, Note_on_c, 1, 60, 127
2, 92040, Note_on_c, 1, 63, 127
2, 92040, Note_on_c, 1, 66, 127
2, 92040, Note_on_c, 1, 69, 127
2, 92040, Note_on_c, 1, 72, 127
2, 93200, Note_off_c, 1, 52, 0
2, 93200, Note_off_c, 1, 57, 0
2, 93200, Note_off_c, 1, 60, 0
2, 93200, Note_off_c, 1, 63, 0
2, 93200, Note_off_c, 1, 66, 0
2, 93200, Note_off_c, 1, 69, 0
2, 93200, Note_off_c, 1, 72, 0
2, 93240, Note_on_c, 1, 52, 127
2, 93240, Note_on_c, 1, 57, 127
2, 93240, Note_on_c, 1, 60, 127
2, 93240, Note_on_c, 1, 63, 127
2, 93240, Note_on_c, 1, 66, 127
2, 93240, Note_on_c, 1, 69, 127
2, 93240, Note_on_c, 1, 72, 127
2, 94040, Note_off_c, 1, 52, 0
2, 94040, Note_off_c, 1, 57, 0
2, 94040, Note_off_c, 1, 60, 0
2, 94040, Note_off_c, 1, 63, 0
2, 94040, Note_off_c, 1, 66, 0
2, 94040, Note_off_c, 1, 69, 0
2, 94040, Note_off_c, 1, 72, 0
2, 94080, Note_on_c, 1, 52, 127
2, 94080, Note_on_c, 1, 57, 127
2, 94080, Note_on_c, 1, 60, 127
2, 94080, Note_on_c, 1, 63, 127
2, 94080, Note_on_c, 1, 66, 127
2, 94080, Note_on_c, 1, 69, 127
2, 94080, Note_on_c, 1, 72, 127
2, 95640, Note_off_c, 1, 52, 0
2, 95640, Note_off_c, 1, 57, 0
2, 95640, Note_off_c, 1, 60, 0
2, 95640, Note_off_c, 1, 63, 0
2, 95640, Note_off_c, 1, 66, 0
2, 95640, Note_off_c, 1, 69, 0
2, 95640, Note_off_c, 1, 72, 0
2, 95680, Note_on_c, 1, 41, 127
2, 95680, Note_on_c, 1, 48, 127
2, 95680, Note_on_c, 1, 77, 127
2, 95680, Note_on_c, 1, 81, 127
2, 95680, Note_on_c, 1, 89, 127
2, 96080, Note_off_c, 1, 41, 0
2, 96080, Note_off_c, 1, 48, 0
2, 96080, Note_off_c, 1, 77, 0
2, 96080, Note_off_c, 1, 81, 0
2, 96080, Note_off_c, 1, 89, 0
2, 96120, Note_on_c, 1, 41, 127
2, 96120, Note_on_c, 1, 48, 127
2, 96120, Note_on_c, 1, 77, 127
2, 96120, Note_on_c, 1, 81, 127
2, 96120, Note_on_c, 1, 89, 127
2, 98120, Note_off_c, 1, 41, 0
2, 98120, Note_off_c, 1, 48, 0
2, 98120, Note_off_c, 1, 77, 0
2, 98120, Note_off_c, 1, 81, 0
2, 98120, Note_off_c, 1, 89, 0
2, 98160, Note_on_c, 1, 41, 127
2, 98160, Note_on_c, 1, 48, 127
2, 98160, Note_on_c, 1, 77, 127
2, 98160, Note_on_c, 1, 81, 127
2, 98160, Note_on_c, 1, 89, 127
2, 99320, Note_off_c, 1, 41, 0
2, 99320, Note_off_c, 1, 48, 0
2, 99320, Note_off_c, 1, 77, 0
2, 99320, Note_off_c, 1, 81, 0
2, 99320, Note_off_c, 1, 89, 0
2, 99360, Note_on_c, 1, 38, 127
2, 99360, Note_on_c, 1, 45, 127
2, 99360, Note_on_c, 1, 57, 127
2, 99360, Note_on_c, 1, 62, 127
2, 99360, Note_on_c, 1, 69, 127
2, 100160, Note_off_c, 1, 38, 0
2, 100160, Note_off_c, 1, 45, 0
2, 100160, Note_off_c, 1, 57, 0
2, 100160, Note_off_c, 1, 62, 0
2, 100160, Note_off_c, 1, 69, 0
2, 100200, Note_on_c, 1, 38, 127
2, 100200, Note_on_c, 1, 45, 127
2, 100200, Note_on_c, 1, 57, 127
2, 100200, Note_on_c, 1, 62, 127
2, 100200, Note_on_c, 1, 69, 127
2, 100560, Note_off_c, 1, 38, 0
2, 100560, Note_off_c, 1, 45, 0
2, 100560, Note_off_c, 1, 57, 0
2, 100560, Note_off_c, 1, 62, 0
2, 100560, Note_off_c, 1, 69, 0
2, 100600, Note_on_c, 1, 50, 127
2, 100600, Note_on_c, 1, 57, 127
2, 100600, Note_on_c, 1, 62, 127
2, 100600, Note_on_c, 1, 69, 127
2, 100600, Note_on_c, 1, 78, 127
2, 101160, Note_off_c, 1, 69, 0
2, 101200, Note_on_c, 1, 69, 127
2, 101760, Note_off_c, 1, 50, 0
2, 101760, Note_off_c, 1, 57, 0
2, 101760, Note_off_c, 1, 62, 0
2, 101760, Note_off_c, 1, 69, 0
2, 101760, Note_off_c, 1, 78, 0
2, 101800, Note_on_c, 1, 50, 127
2, 101800, Note_on_c, 1, 57, 127
2, 101800, Note_on_c, 1, 62, 127
2, 101800, Note_on_c, 1, 69, 127
2, 101800, Note_on_c, 1, 79, 127
2, 102200, Note_off_c, 1, 50, 0
2, 102200, Note_off_c, 1, 57, 0
2, 102200, Note_off_c, 1, 62, 0
2, 102200, Note_off_c, 1, 69, 0
2, 102200, Note_off_c, 1, 79, 0
2, 102240, Note_on_c, 1, 50, 127
2, 102240, Note_on_c, 1, 57, 127
2, 102240, Note_on_c, 1, 62, 127
2, 102240, Note_on_c, 1, 69, 127
2, 102240, Note_on_c, 1, 79, 127
2, 103000, Note_off_c, 1, 57, 0
2, 103000, Note_off_c, 1, 62, 0
2, 103000, Note_off_c, 1, 69, 0
2, 103000, Note_off_c, 1, 79, 0
2, 103040, Note_on_c, 1, 59, 127
2, 103040, Note_on_c, 1, 67, 127
2, 103040, Note_on_c, 1, 74, 127
2, 103040, Note_on_c, 1, 78, 127
2, 104160, Note_off_c, 1, 50, 0
2, 104160, Note_off_c, 1, 59, 0
2, 104160, Note_off_c, 1, 67, 0
2, 104160, Note_off_c, 1, 74, 0
2, 104160, Note_off_c, 1, 78, 0
2, 104200, Note_on_c, 1, 50, 127
2, 104200, Note_on_c, 1, 59, 127
2, 104200, Note_on_c, 1, 67, 127
2, 104200, Note_on_c, 1, 74, 127
2, 104200, Note_on_c, 1, 78, 127
2, 104240, Note_off_c, 1, 50, 0
2, 104240, Note_off_c, 1, 59, 0
2, 104240, Note_off_c, 1, 67, 0
2, 104240, Note_off_c, 1, 74, 0
2, 104240, Note_off_c, 1, 78, 0
2, 104280, Note_on_c, 1, 59, 127
2, 104840, Note_off_c, 1, 59, 0
2, 104880, Note_on_c, 1, 62, 127
2, 104880, Note_on_c, 1, 91, 127
2, 105440, Note_off_c, 1, 91, 0
2, 105480, Note_on_c, 1, 69, 127
2, 105480, Note_on_c, 1, 81, 127
2, 106040, Note_off_c, 1, 69, 0
2, 106080, Note_off_c, 1, 62, 0
2, 106080, Note_off_c, 1, 81, 0
2, 106120, Note_on_c, 1, 62, 127
2, 106120, Note_on_c, 1, 66, 127
2, 106120, Note_on_c, 1, 81, 127
2, 106680, Note_off_c, 1, 62, 0
2, 106680, Note_off_c, 1, 66, 0
2, 106680, Note_off_c, 1, 81, 0
2, 106720, Note_on_c, 1, 67, 127
2, 106720, Note_on_c, 1, 79, 127
2, 107320, Note_on_c, 1, 59, 127
2, 107880, Note_off_c, 1, 59, 0
2, 107920, Note_on_c, 1, 59, 127
2, 108120, Note_off_c, 1, 59, 0
2, 108120, Note_off_c, 1, 67, 0
2, 108120, Note_off_c, 1, 79, 0
2, 108160, Note_on_c, 1, 59, 127
2, 108160, Note_on_c, 1, 67, 127
2, 108160, Note_on_c, 1, 79, 127
2, 108480, Note_off_c, 1, 59, 0
2, 108520, Note_off_c, 1, 67, 0
2, 108520, Note_off_c, 1, 79, 0
2, 108560, Note_on_c, 1, 78, 127
2, 109160, Note_on_c, 1, 59, 127
2, 109160, Note_on_c, 1, 62, 127
2, 109160, Note_on_c, 1, 71, 127
2, 109720, Note_off_c, 1, 78, 0
2, 109760, Note_on_c, 1, 76, 127
2, 110320, Note_off_c, 1, 59, 0
2, 110320, Note_off_c, 1, 62, 0
2, 110320, Note_off_c, 1, 71, 0
2, 110320, Note_off_c, 1, 76, 0
2, 110400, Note_on_c, 1, 57, 127
2, 110400, Note_on_c, 1, 66, 127
2, 110400, Note_on_c, 1, 69, 127
2, 110400, Note_on_c, 1, 74, 127
2, 110400, Note_on_c, 1, 81, 127
2, 110960, Note_off_c, 1, 57, 0
2, 110960, Note_off_c, 1, 66, 0
2, 110960, Note_off_c, 1, 69, 0
2, 110960, Note_off_c, 1, 74, 0
2, 111000, Note_on_c, 1, 64, 127
2, 111000, Note_on_c, 1, 69, 127
2, 111000, Note_on_c, 1, 73, 127
2, 111000, Note_on_c, 1, 76, 127
2, 111000, Note_off_c, 1, 81, 0
2, 111560, Note_off_c, 1, 64, 0
2, 111560, Note_off_c, 1, 69, 0
2, 111560, Note_off_c, 1, 73, 0
2, 111560, Note_off_c, 1, 76, 0
2, 111600, Note_on_c, 1, 58, 127
2, 111600, Note_on_c, 1, 64, 127
2, 111600, Note_on_c, 1, 67, 127
2, 111600, Note_on_c, 1, 76, 127
2, 111600, Note_on_c, 1, 85, 127
2, 111600, Note_on_c, 1, 88, 127
2, 112160, Note_off_c, 1, 58, 0
2, 112160, Note_off_c, 1, 64, 0
2, 112160, Note_off_c, 1, 67, 0
2, 112160, Note_off_c, 1, 76, 0
2, 112160, Note_on_c, 1, 84, 127
2, 112160, Note_off_c, 1, 85, 0
2, 112160, Note_off_c, 1, 88, 0
2, 112200, Note_on_c, 1, 64, 127
2, 112200, Note_on_c, 1, 68, 127
2, 112200, Note_on_c, 1, 71, 127
2, 112200, Note_on_c, 1, 74, 127
2, 112200, Note_off_c, 1, 84, 0
2, 112200, Note_on_c, 1, 86, 127
2, 112600, Note_off_c, 1, 64, 0
2, 112600, Note_off_c, 1, 68, 0
2, 112600, Note_off_c, 1, 71, 0
2, 112600, Note_off_c, 1, 74, 0
2, 112600, Note_off_c, 1, 86, 0
2, 112640, Note_on_c, 1, 64, 127
2, 112640, Note_on_c, 1, 68, 127
2, 112640, Note_on_c, 1, 71, 127
2, 112640, Note_on_c, 1, 74, 127
2, 112640, Note_on_c, 1, 86, 127
2, 112800, Note_off_c, 1, 64, 0
2, 112800, Note_on_c, 1, 66, 127
2, 112800, Note_off_c, 1, 68, 0
2, 112800, Note_on_c, 1, 69, 127
2, 112800, Note_off_c, 1, 71, 0
2, 112800, Note_on_c, 1, 72, 127
2, 112800, Note_off_c, 1, 74, 0
2, 112800, Note_on_c, 1, 75, 127
2, 112800, Note_off_c, 1, 86, 0
2, 112840, Note_on_c, 1, 64, 127
2, 112840, Note_off_c, 1, 66, 0
2, 112840, Note_on_c, 1, 68, 127
2, 112840, Note_off_c, 1, 69, 0
2, 112840, Note_on_c, 1, 71, 127
2, 112840, Note_off_c, 1, 72, 0
2, 112840, Note_on_c, 1, 74, 127
2, 112840, Note_off_c, 1, 75, 0
2, 112840, Note_on_c, 1, 86, 127
2, 113400, Note_off_c, 1, 64, 0
2, 113400, Note_off_c, 1, 68, 0
2, 113400, Note_off_c, 1, 71, 0
2, 113400, Note_off_c, 1, 74, 0
2, 113400, Note_off_c, 1, 86, 0
2, 113440, Note_on_c, 1, 83, 127
2, 114040, Note_on_c, 1, 59, 127
2, 114040, Note_on_c, 1, 63, 127
2, 114040, Note_on_c, 1, 66, 127
2, 114040, Note_off_c, 1, 83, 0
2, 114040, Note_on_c, 1, 95, 127
2, 114280, Note_off_c, 1, 95, 0
2, 114320, Note_on_c, 1, 95, 127
2, 114600, Note_off_c, 1, 59, 0
2, 114600, Note_off_c, 1, 63, 0
2, 114600, Note_off_c, 1, 66, 0
2, 114600, Note_off_c, 1, 95, 0
2, 114680, Note_on_c, 1, 90, 127
2, 115280, Note_on_c, 1, 39, 127
2, 115280, Note_on_c, 1, 51, 127
2, 115840, Note_off_c, 1, 90, 0
2, 115880, Note_on_c, 1, 90, 127
2, 116440, Note_off_c, 1, 39, 0
2, 116440, Note_off_c, 1, 51, 0
2, 116440, Note_off_c, 1, 90, 0
2, 116480, Note_on_c, 1, 39, 127
2, 116480, Note_on_c, 1, 51, 127
2, 116480, Note_on_c, 1, 83, 127
2, 116680, Note_off_c, 1, 39, 0
2, 116680, Note_off_c, 1, 51, 0
2, 116680, Note_off_c, 1, 83, 0
2, 116720, Note_on_c, 1, 39, 127
2, 116720, Note_on_c, 1, 51, 127
2, 116720, Note_on_c, 1, 83, 127
2, 117080, Note_off_c, 1, 39, 0
2, 117080, Note_off_c, 1, 51, 0
2, 117080, Note_off_c, 1, 83, 0
2, 117120, Note_on_c, 1, 39, 127
2, 117120, Note_on_c, 1, 51, 127
2, 117120, Note_on_c, 1, 80, 127
2, 117680, Note_off_c, 1, 39, 0
2, 117680, Note_off_c, 1, 51, 0
2, 117680, Note_off_c, 1, 80, 0
2, 117720, Note_on_c, 1, 76, 127
2, 118320, Note_on_c, 1, 42, 127
2, 118320, Note_on_c, 1, 54, 127
2, 118320, Note_on_c, 1, 69, 127
2, 118320, Note_on_c, 1, 72, 127
2, 118320, Note_off_c, 1, 76, 0
2, 118320, Note_on_c, 1, 78, 127
2, 118640, Note_off_c, 1, 42, 0
2, 118640, Note_off_c, 1, 54, 0
2, 118640, Note_off_c, 1, 69, 0
2, 118640, Note_off_c, 1, 72, 0
2, 118640, Note_off_c, 1, 78, 0
2, 118680, Note_on_c, 1, 42, 127
2, 118680, Note_on_c, 1, 54, 127
2, 118680, Note_on_c, 1, 69, 127
2, 118680, Note_on_c, 1, 72, 127
2, 118680, Note_on_c, 1, 78, 127
2, 118760, Note_on_c, 1, 34, 127
2, 118760, Note_off_c, 1, 42, 0
2, 118760, Note_on_c, 1, 46, 127
2, 118760, Note_off_c, 1, 54, 0
2, 118760, Note_off_c, 1, 69, 0
2, 118760, Note_off_c, 1, 72, 0
2, 118760, Note_off_c, 1, 78, 0
2, 118760, Note_on_c, 1, 79, 127
2, 118760, Note_on_c, 1, 91, 127
2, 118800, Note_off_c, 1, 34, 0
2, 118800, Note_on_c, 1, 39, 127
2, 118800, Note_off_c, 1, 46, 0
2, 118800, Note_on_c, 1, 51, 127
2, 118800, Note_on_c, 1, 64, 127
2, 118800, Note_on_c, 1, 67, 127
2, 118800, Note_on_c, 1, 70, 127
2, 118800, Note_on_c, 1, 73, 127
2, 118800, Note_off_c, 1, 79, 0
2, 118800, Note_off_c, 1, 91, 0
2, 118920, Note_off_c, 1, 39, 0
2, 118920, Note_off_c, 1, 51, 0
2, 118920, Note_off_c, 1, 64, 0
2, 118920, Note_off_c, 1, 67, 0
2, 118920, Note_off_c, 1, 70, 0
2, 118920, Note_off_c, 1, 73, 0
2, 118960, Note_on_c, 1, 79, 127
2, 119200, Note_off_c, 1, 79, 0
2, 119240, Note_on_c, 1, 80, 127
2, 119520, Note_off_c, 1, 80, 0
2, 119560, Note_on_c, 1, 34, 127
2, 119560, Note_on_c, 1, 55, 127
2, 119560, Note_on_c, 1, 58, 127
2, 119560, Note_on_c, 1, 63, 127
2, 119560, Note_on_c, 1, 67, 127
2, 119560, Note_on_c, 1, 70, 127
2, 119560, Note_on_c, 1, 75, 127
2, 119560, Note_on_c, 1, 79, 127
2, 120000, Note_off_c, 1, 34, 0
2, 120000, Note_off_c, 1, 55, 0
2, 120000, Note_off_c, 1, 58, 0
2, 120000, Note_off_c, 1, 63, 0
2, 120000, Note_off_c, 1, 67, 0
2, 120000, Note_off_c, 1, 70, 0
2, 120000, Note_off_c, 1, 75, 0
2, 120000, Note_off_c, 1, 79, 0
2, 120040, End_track
3, 0, Start_track
3, 0, Title_t, "MIDI"
3, 1536, End_track
0, 0, End_of_file
