0, 0, Header, 1, 3, 192
1, 0, Start_track
1, 0, Time_signature, 4, 2, 24, 8
1, 0, Tempo, 500000
1, 120040, End_track
2, 0, Start_track
2, 0, Text_t, "random instrument: random person i dunno whatev"
2, 0, Title_t, "Track 1"
2, 0, Note_on_c, 1, 40, 127
2, 0, Note_on_c, 1, 48, 127
2, 0, Note_on_c, 1, 56, 127
2, 0, Note_on_c, 1, 60, 127
2, 40, Note_off_c, 1, 40, 0
2, 40, Note_off_c, 1, 48, 0
2, 40, Note_on_c, 1, 55, 127
2, 40, Note_off_c, 1, 56, 0
2, 40, Note_off_c, 1, 60, 0
2, 40, Note_on_c, 1, 72, 127
2, 40, Note_on_c, 1, 75, 127
2, 40, Note_on_c, 1, 79, 127
2, 40, Note_on_c, 1, 84, 127
2, 80, Note_off_c, 1, 55, 0
2, 80, Note_off_c, 1, 72, 0
2, 80, Note_off_c, 1, 75, 0
2, 80, Note_off_c, 1, 79, 0
2, 80, Note_off_c, 1, 84, 0
2, 120, Note_on_c, 1, 40, 127
2, 120, Note_on_c, 1, 48, 127
2, 120, Note_on_c, 1, 56, 127
2, 120, Note_on_c, 1, 60, 127
2, 160, Note_off_c, 1, 40, 0
2, 160, Note_on_c, 1, 41, 127
2, 160, Note_off_c, 1, 48, 0
2, 160, Note_on_c, 1, 50, 127
2, 160, Note_on_c, 1, 53, 127
2, 160, Note_off_c, 1, 56, 0
2, 160, Note_off_c, 1, 60, 0
2, 160, Note_on_c, 1, 81, 127
2, 160, Note_on_c, 1, 86, 127
2, 200, Note_on_c, 1, 35, 127
2, 200, Note_on_c, 1, 39, 127
2, 200, Note_off_c, 1, 41, 0
2, 200, Note_on_c, 1, 47, 127
2, 200, Note_off_c, 1, 53, 0
2, 200, Note_off_c, 1, 81, 0
2, 200, Note_off_c, 1, 86, 0
2, 240, Note_off_c, 1, 35, 0
2, 240, Note_off_c, 1, 39, 0
2, 240, Note_off_c, 1, 47, 0
2, 240, Note_off_c, 1, 50, 0
2, 240, Note_on_c, 1, 64, 127
2, 240, Note_on_c, 1, 78, 127
2, 240, Note_on_c, 1, 81, 127
2, 240, Note_on_c, 1, 83, 127
2, 240, Note_on_c, 1, 90, 127
2, 280, Note_off_c, 1, 64, 0
2, 280, Note_on_c, 1, 76, 127
2, 280, Note_off_c, 1, 78, 0
2, 280, Note_on_c, 1, 80, 127
2, 280, Note_off_c, 1, 81, 0
2, 280, Note_on_c, 1, 89, 127
2, 280, Note_off_c, 1, 90, 0
2, 320, Note_on_c, 1, 64, 127
2, 320, Note_off_c, 1, 76, 0
2, 320, Note_off_c, 1, 80, 0
2, 320, Note_on_c, 1, 81, 127
2, 320, Note_off_c, 1, 89, 0
2, 320, Note_on_c, 1, 90, 127
2, 360, Note_on_c, 1, 52, 127
2, 360, Note_on_c, 1, 59, 127
2, 360, Note_on_c, 1, 62, 127
2, 360, Note_off_c, 1, 64, 0
2, 360, Note_on_c, 1, 80, 127
2, 360, Note_off_c, 1, 81, 0
2, 360, Note_off_c, 1, 83, 0
2, 360, Note_off_c, 1, 90, 0
2, 360, Note_on_c, 1, 91, 127
2, 400, Note_off_c, 1, 52, 0
2, 400, Note_off_c, 1, 59, 0
2, 400, Note_off_c, 1, 62, 0
2, 400, Note_on_c, 1, 64, 127
2, 400, Note_off_c, 1, 80, 0
2, 400, Note_on_c, 1, 85, 127
2, 400, Note_on_c, 1, 88, 127
2, 400, Note_off_c, 1, 91, 0
2, 400, Note_on_c, 1, 92, 127
2, 440, Note_on_c, 1, 38, 127
2, 440, Note_on_c, 1, 45, 127
2, 440, Note_on_c, 1, 47, 127
2, 440, Note_on_c, 1, 56, 127
2, 440, Note_off_c, 1, 64, 0
2, 440, Note_on_c, 1, 68, 127
2, 440, Note_off_c, 1, 85, 0
2, 440, Note_off_c, 1, 88, 0
2, 440, Note_off_c, 1, 92, 0
2, 480, Note_on_c, 1, 32, 127
2, 480, Note_on_c, 1, 37, 127
2, 480, Note_off_c, 1, 38, 0
2, 480, Note_off_c, 1, 47, 0
2, 480, Note_on_c, 1, 48, 127
2, 480, Note_on_c, 1, 54, 127
2, 480, Note_off_c, 1, 56, 0
2, 480, Note_off_c, 1, 68, 0
2, 520, Note_off_c, 1, 32, 0
2, 520, Note_off_c, 1, 37, 0
2, 520, Note_on_c, 1, 43, 127
2, 520, Note_off_c, 1, 45, 0
2, 520, Note_on_c, 1, 46, 127
2, 520, Note_off_c, 1, 48, 0
2, 520, Note_on_c, 1, 51, 127
2, 520, Note_off_c, 1, 54, 0
2, 520, Note_on_c, 1, 55, 127
2, 560, Note_off_c, 1, 43, 0
2, 560, Note_off_c, 1, 46, 0
2, 560, Note_off_c, 1, 51, 0
2, 560, Note_on_c, 1, 53, 127
2, 560, Note_off_c, 1, 55, 0
2, 560, Note_on_c, 1, 85, 127
2, 560, Note_on_c, 1, 92, 127
2, 560, Note_on_c, 1, 95, 127
2, 560, Note_on_c, 1, 97, 127
2, 600, Note_on_c, 1, 44, 127
2, 600, Note_on_c, 1, 52, 127
2, 600, Note_off_c, 1, 53, 0
2, 600, Note_on_c, 1, 72, 127
2, 600, Note_on_c, 1, 76, 127
2, 600, Note_off_c, 1, 85, 0
2, 600, Note_off_c, 1, 92, 0
2, 600, Note_off_c, 1, 95, 0
2, 600, Note_off_c, 1, 97, 0
2, 640, Note_on_c, 1, 35, 127
2, 640, Note_on_c, 1, 39, 127
2, 640, Note_on_c, 1, 42, 127
2, 640, Note_off_c, 1, 44, 0
2, 640, Note_on_c, 1, 47, 127
2, 640, Note_off_c, 1, 52, 0
2, 640, Note_on_c, 1, 54, 127
2, 640, Note_on_c, 1, 57, 127
2, 640, Note_on_c, 1, 63, 127
2, 640, Note_off_c, 1, 72, 0
2, 640, Note_off_c, 1, 76, 0
2, 680, Note_off_c, 1, 35, 0
2, 680, Note_off_c, 1, 39, 0
2, 680, Note_on_c, 1, 41, 127
2, 680, Note_off_c, 1, 42, 0
2, 680, Note_off_c, 1, 54, 0
2, 680, Note_off_c, 1, 57, 0
2, 680, Note_off_c, 1, 63, 0
2, 720, Note_off_c, 1, 47, 0
2, 720, Note_on_c, 1, 51, 127
2, 720, Note_on_c, 1, 53, 127
2, 720, Note_on_c, 1, 72, 127
2, 760, Note_off_c, 1, 41, 0
2, 760, Note_off_c, 1, 51, 0
2, 760, Note_on_c, 1, 52, 127
2, 760, Note_off_c, 1, 53, 0
2, 760, Note_on_c, 1, 56, 127
2, 760, Note_on_c, 1, 62, 127
2, 760, Note_off_c, 1, 72, 0
2, 760, Note_on_c, 1, 78, 127
2, 800, Note_off_c, 1, 52, 0
2, 800, Note_off_c, 1, 56, 0
2, 800, Note_off_c, 1, 62, 0
2, 800, Note_on_c, 1, 73, 127
2, 800, Note_on_c, 1, 81, 127
2, 800, Note_on_c, 1, 93, 127
2, 840, Note_on_c, 1, 53, 127
2, 840, Note_on_c, 1, 59, 127
2, 840, Note_on_c, 1, 63, 127
2, 840, Note_on_c, 1, 68, 127
2, 840, Note_off_c, 1, 73, 0
2, 840, Note_off_c, 1, 78, 0
2, 840, Note_on_c, 1, 80, 127
2, 840, Note_off_c, 1, 81, 0
2, 840, Note_on_c, 1, 83, 127
2, 840, Note_off_c, 1, 93, 0
2, 880, Note_off_c, 1, 59, 0
2, 880, Note_on_c, 1, 60, 127
2, 880, Note_off_c, 1, 68, 0
2, 880, Note_on_c, 1, 70, 127
2, 880, Note_off_c, 1, 80, 0
2, 880, Note_off_c, 1, 83, 0
2, 880, Note_on_c, 1, 99, 127
2, 920, Note_on_c, 1, 47, 127
2, 920, Note_on_c, 1, 52, 127
2, 920, Note_off_c, 1, 53, 0
2, 920, Note_on_c, 1, 55, 127
2, 920, Note_on_c, 1, 59, 127
2, 920, Note_off_c, 1, 60, 0
2, 920, Note_off_c, 1, 63, 0
2, 920, Note_off_c, 1, 70, 0
2, 920, Note_on_c, 1, 88, 127
2, 920, Note_off_c, 1, 99, 0
2, 960, Note_on_c, 1, 28, 127
2, 960, Note_on_c, 1, 40, 127
2, 960, Note_off_c, 1, 52, 0
2, 960, Note_off_c, 1, 55, 0
2, 960, Note_off_c, 1, 59, 0
2, 960, Note_on_c, 1, 66, 127
2, 960, Note_on_c, 1, 67, 127
2, 960, Note_on_c, 1, 71, 127
2, 960, Note_on_c, 1, 76, 127
2, 960, Note_on_c, 1, 78, 127
2, 960, Note_on_c, 1, 79, 127
2, 960, Note_on_c, 1, 83, 127
2, 960, Note_off_c, 1, 88, 0
2, 960, Note_on_c, 1, 90, 127
2, 960, Note_on_c, 1, 91, 127
2, 1000, Note_off_c, 1, 28, 0
2, 1000, Note_on_c, 1, 37, 127
2, 1000, Note_off_c, 1, 40, 0
2, 1000, Note_off_c, 1, 47, 0
2, 1000, Note_on_c, 1, 49, 127
2, 1000, Note_on_c, 1, 54, 127
2, 1000, Note_on_c, 1, 58, 127
2, 1000, Note_off_c, 1, 67, 0
2, 1000, Note_off_c, 1, 71, 0
2, 1000, Note_off_c, 1, 76, 0
2, 1000, Note_off_c, 1, 78, 0
2, 1000, Note_off_c, 1, 79, 0
2, 1000, Note_off_c, 1, 83, 0
2, 1000, Note_off_c, 1, 90, 0
2, 1000, Note_off_c, 1, 91, 0
2, 1040, Note_off_c, 1, 37, 0
2, 1040, Note_on_c, 1, 40, 127
2, 1040, Note_off_c, 1, 49, 0
2, 1040, Note_on_c, 1, 52, 127
2, 1040, Note_off_c, 1, 54, 0
2, 1040, Note_off_c, 1, 58, 0
2, 1040, Note_on_c, 1, 59, 127
2, 1040, Note_on_c, 1, 62, 127
2, 1040, Note_off_c, 1, 66, 0
2, 1040, Note_on_c, 1, 68, 127
2, 1040, Note_on_c, 1, 94, 127
2, 1080, Note_off_c, 1, 40, 0
2, 1080, Note_off_c, 1, 52, 0
2, 1080, Note_on_c, 1, 54, 127
2, 1080, Note_on_c, 1, 65, 127
2, 1080, Note_off_c, 1, 68, 0
2, 1080, Note_off_c, 1, 94, 0
2, 1080, Note_on_c, 1, 101, 127
2, 1080, Note_on_c, 1, 102, 127
2, 1120, Note_off_c, 1, 54, 0
2, 1120, Note_on_c, 1, 56, 127
2, 1120, Note_on_c, 1, 61, 127
2, 1120, Note_off_c, 1, 62, 0
2, 1120, Note_off_c, 1, 65, 0
2, 1120, Note_on_c, 1, 68, 127
2, 1120, Note_off_c, 1, 101, 0
2, 1120, Note_off_c, 1, 102, 0
2, 1160, Note_on_c, 1, 39, 127
2, 1160, Note_on_c, 1, 41, 127
2, 1160, Note_on_c, 1, 44, 127
2, 1160, Note_on_c, 1, 51, 127
2, 1160, Note_off_c, 1, 56, 0
2, 1160, Note_off_c, 1, 59, 0
2, 1160, Note_off_c, 1, 61, 0
2, 1160, Note_off_c, 1, 68, 0
2, 1160, Note_on_c, 1, 75, 127
2, 1200, Note_on_c, 1, 35, 127
2, 1200, Note_off_c, 1, 39, 0
2, 1200, Note_off_c, 1, 41, 0
2, 1200, Note_on_c, 1, 42, 127
2, 1200, Note_off_c, 1, 44, 0
2, 1200, Note_on_c, 1, 47, 127
2, 1200, Note_off_c, 1, 51, 0
2, 1200, Note_on_c, 1, 63, 127
2, 1200, Note_on_c, 1, 71, 127
2, 1240, Note_off_c, 1, 35, 0
2, 1240, Note_off_c, 1, 42, 0
2, 1240, Note_off_c, 1, 47, 0
2, 1240, Note_on_c, 1, 56, 127
2, 1240, Note_on_c, 1, 59, 127
2, 1240, Note_on_c, 1, 61, 127
2, 1240, Note_off_c, 1, 63, 0
2, 1240, Note_on_c, 1, 66, 127
2, 1240, Note_off_c, 1, 71, 0
2, 1240, Note_off_c, 1, 75, 0
2, 1320, Note_on_c, 1, 35, 127
2, 1320, Note_on_c, 1, 47, 127
2, 1320, Note_on_c, 1, 54, 127
2, 1320, Note_off_c, 1, 56, 0
2, 1320, Note_off_c, 1, 61, 0
2, 1320, Note_on_c, 1, 62, 127
2, 1320, Note_off_c, 1, 66, 0
2, 1360, Note_off_c, 1, 35, 0
2, 1360, Note_on_c, 1, 43, 127
2, 1360, Note_on_c, 1, 46, 127
2, 1360, Note_off_c, 1, 47, 0
2, 1360, Note_on_c, 1, 51, 127
2, 1360, Note_off_c, 1, 54, 0
2, 1360, Note_on_c, 1, 58, 127
2, 1360, Note_off_c, 1, 59, 0
2, 1360, Note_off_c, 1, 62, 0
2, 1360, Note_on_c, 1, 67, 127
2, 1400, Note_off_c, 1, 43, 0
2, 1400, Note_off_c, 1, 46, 0
2, 1400, Note_off_c, 1, 51, 0
2, 1400, Note_on_c, 1, 52, 127
2, 1400, Note_on_c, 1, 55, 127
2, 1400, Note_on_c, 1, 57, 127
2, 1400, Note_off_c, 1, 58, 0
2, 1400, Note_off_c, 1, 67, 0
2, 1440, Note_on_c, 1, 51, 127
2, 1440, Note_off_c, 1, 52, 0
2, 1440, Note_off_c, 1, 55, 0
2, 1440, Note_on_c, 1, 56, 127
2, 1440, Note_off_c, 1, 57, 0
2, 1440, Note_on_c, 1, 65, 127
2, 1440, Note_on_c, 1, 70, 127
2, 1440, Note_on_c, 1, 74, 127
2, 1480, Note_off_c, 1, 51, 0
2, 1480, Note_on_c, 1, 52, 127
2, 1480, Note_on_c, 1, 55, 127
2, 1480, Note_off_c, 1, 56, 0
2, 1480, Note_on_c, 1, 57, 127
2, 1480, Note_off_c, 1, 65, 0
2, 1480, Note_off_c, 1, 70, 0
2, 1480, Note_off_c, 1, 74, 0
2, 1520, Note_on_c, 1, 45, 127
2, 1520, Note_on_c, 1, 49, 127
2, 1520, Note_off_c, 1, 52, 0
2, 1520, Note_off_c, 1, 55, 0
2, 1520, Note_on_c, 1, 88, 127
2, 1520, Note_on_c, 1, 97, 127
2, 1520, Note_on_c, 1, 105, 127
2, 1560, Note_on_c, 1, 35, 127
2, 1560, Note_off_c, 1, 45, 0
2, 1560, Note_off_c, 1, 49, 0
2, 1560, Note_off_c, 1, 57, 0
2, 1560, Note_on_c, 1, 76, 127
2, 1560, Note_on_c, 1, 83, 127
2, 1560, Note_on_c, 1, 86, 127
2, 1560, Note_off_c, 1, 97, 0
2, 1560, Note_off_c, 1, 105, 0
2, 1600, Note_off_c, 1, 35, 0
2, 1600, Note_on_c, 1, 49, 127
2, 1600, Note_on_c, 1, 52, 127
2, 1600, Note_on_c, 1, 55, 127
2, 1600, Note_on_c, 1, 61, 127
2, 1600, Note_off_c, 1, 76, 0
2, 1600, Note_off_c, 1, 83, 0
2, 1600, Note_off_c, 1, 86, 0
2, 1600, Note_off_c, 1, 88, 0
2, 1640, Note_off_c, 1, 49, 0
2, 1640, Note_on_c, 1, 50, 127
2, 1640, Note_off_c, 1, 55, 0
2, 1640, Note_off_c, 1, 61, 0
2, 1640, Note_on_c, 1, 64, 127
2, 1680, Note_on_c, 1, 36, 127
2, 1680, Note_on_c, 1, 43, 127
2, 1680, Note_on_c, 1, 48, 127
2, 1680, Note_off_c, 1, 50, 0
2, 1680, Note_on_c, 1, 60, 127
2, 1680, Note_off_c, 1, 64, 0
2, 1680, Note_on_c, 1, 87, 127
2, 1720, Note_off_c, 1, 36, 0
2, 1720, Note_off_c, 1, 43, 0
2, 1720, Note_on_c, 1, 45, 127
2, 1720, Note_off_c, 1, 48, 0
2, 1720, Note_on_c, 1, 55, 127
2, 1720, Note_off_c, 1, 60, 0
2, 1720, Note_on_c, 1, 61, 127
2, 1720, Note_on_c, 1, 66, 127
2, 1720, Note_on_c, 1, 67, 127
2, 1720, Note_on_c, 1, 70, 127
2, 1720, Note_on_c, 1, 71, 127
2, 1720, Note_off_c, 1, 87, 0
2, 1760, Note_on_c, 1, 33, 127
2, 1760, Note_off_c, 1, 45, 0
2, 1760, Note_off_c, 1, 52, 0
2, 1760, Note_on_c, 1, 58, 127
2, 1760, Note_off_c, 1, 61, 0
2, 1760, Note_off_c, 1, 66, 0
2, 1760, Note_off_c, 1, 67, 0
2, 1760, Note_off_c, 1, 70, 0
2, 1760, Note_off_c, 1, 71, 0
2, 1800, Note_off_c, 1, 33, 0
2, 1800, Note_off_c, 1, 58, 0
2, 1800, Note_on_c, 1, 60, 127
2, 1800, Note_on_c, 1, 78, 127
2, 1800, Note_on_c, 1, 81, 127
2, 1800, Note_on_c, 1, 87, 127
2, 1840, Note_off_c, 1, 55, 0
2, 1840, Note_off_c, 1, 60, 0
2, 1840, Note_on_c, 1, 63, 127
2, 1840, Note_on_c, 1, 72, 127
2, 1840, Note_off_c, 1, 78, 0
2, 1840, Note_off_c, 1, 81, 0
2, 1840, Note_off_c, 1, 87, 0
2, 1840, Note_on_c, 1, 91, 127
2, 1880, Note_on_c, 1, 60, 127
2, 1880, Note_off_c, 1, 63, 0
2, 1880, Note_on_c, 1, 67, 127
2, 1880, Note_on_c, 1, 70, 127
2, 1880, Note_off_c, 1, 72, 0
2, 1880, Note_on_c, 1, 77, 127
2, 1880, Note_on_c, 1, 89, 127
2, 1880, Note_off_c, 1, 91, 0
2, 1920, Note_off_c, 1, 60, 0
2, 1920, Note_off_c, 1, 67, 0
2, 1920, Note_off_c, 1, 70, 0
2, 1920, Note_off_c, 1, 77, 0
2, 1920, Note_off_c, 1, 89, 0
2, 1960, Note_on_c, 1, 46, 127
2, 1960, Note_on_c, 1, 50, 127
2, 1960, Note_on_c, 1, 55, 127
2, 1960, Note_on_c, 1, 58, 127
2, 1960, Note_on_c, 1, 82, 127
2, 1960, Note_on_c, 1, 86, 127
2, 1960, Note_on_c, 1, 91, 127
2, 2000, Note_off_c, 1, 46, 0
2, 2000, Note_off_c, 1, 50, 0
2, 2000, Note_off_c, 1, 55, 0
2, 2000, Note_off_c, 1, 58, 0
2, 2000, Note_on_c, 1, 62, 127
2, 2000, Note_on_c, 1, 70, 127
2, 2000, Note_off_c, 1, 82, 0
2, 2000, Note_off_c, 1, 86, 0
2, 2040, Note_on_c, 1, 46, 127
2, 2040, Note_on_c, 1, 53, 127
2, 2040, Note_on_c, 1, 58, 127
2, 2040, Note_on_c, 1, 65, 127
2, 2040, Note_off_c, 1, 70, 0
2, 2040, Note_on_c, 1, 77, 127
2, 2040, Note_on_c, 1, 89, 127
2, 2040, Note_off_c, 1, 91, 0
2, 2080, Note_off_c, 1, 46, 0
2, 2080, Note_off_c, 1, 53, 0
2, 2080, Note_off_c, 1, 58, 0
2, 2080, Note_off_c, 1, 62, 0
2, 2080, Note_off_c, 1, 65, 0
2, 2080, Note_off_c, 1, 77, 0
2, 2080, Note_on_c, 1, 82, 127
2, 2080, Note_off_c, 1, 89, 0
2, 2080, Note_on_c, 1, 94, 127
2, 2080, Note_on_c, 1, 96, 127
2, 2080, Note_on_c, 1, 98, 127
2, 2120, Note_on_c, 1, 67, 127
2, 2120, Note_on_c, 1, 76, 127
2, 2120, Note_on_c, 1, 88, 127
2, 2120, Note_off_c, 1, 94, 0
2, 2120, Note_off_c, 1, 98, 0
2, 2160, Note_on_c, 1, 50, 127
2, 2160, Note_on_c, 1, 55, 127
2, 2160, Note_on_c, 1, 57, 127
2, 2160, Note_on_c, 1, 61, 127
2, 2160, Note_off_c, 1, 67, 0
2, 2160, Note_off_c, 1, 76, 0
2, 2160, Note_off_c, 1, 82, 0
2, 2160, Note_on_c, 1, 83, 127
2, 2160, Note_off_c, 1, 88, 0
2, 2160, Note_off_c, 1, 96, 0
2, 2200, Note_off_c, 1, 50, 0
2, 2200, Note_on_c, 1, 53, 127
2, 2200, Note_off_c, 1, 55, 0
2, 2200, Note_off_c, 1, 57, 0
2, 2200, Note_off_c, 1, 61, 0
2, 2200, Note_off_c, 1, 83, 0
2, 2200, Note_on_c, 1, 84, 127
2, 2200, Note_on_c, 1, 93, 127
2, 2200, Note_on_c, 1, 96, 127
2, 2240, Note_off_c, 1, 53, 0
2, 2240, Note_on_c, 1, 61, 127
2, 2240, Note_on_c, 1, 75, 127
2, 2240, Note_on_c, 1, 80, 127
2, 2240, Note_off_c, 1, 84, 0
2, 2240, Note_off_c, 1, 93, 0
2, 2240, Note_off_c, 1, 96, 0
2, 2280, Note_on_c, 1, 51, 127
2, 2280, Note_on_c, 1, 57, 127
2, 2280, Note_on_c, 1, 65, 127
2, 2280, Note_off_c, 1, 75, 0
2, 2280, Note_off_c, 1, 80, 0
2, 2320, Note_on_c, 1, 32, 127
2, 2320, Note_on_c, 1, 35, 127
2, 2320, Note_on_c, 1, 44, 127
2, 2320, Note_off_c, 1, 51, 0
2, 2320, Note_off_c, 1, 57, 0
2, 2320, Note_off_c, 1, 61, 0
2, 2320, Note_off_c, 1, 65, 0
2, 2320, Note_on_c, 1, 82, 127
2, 2360, Note_off_c, 1, 32, 0
2, 2360, Note_off_c, 1, 35, 0
2, 2360, Note_off_c, 1, 44, 0
2, 2360, Note_on_c, 1, 51, 127
2, 2360, Note_on_c, 1, 55, 127
2, 2360, Note_on_c, 1, 63, 127
2, 2360, Note_on_c, 1, 66, 127
2, 2360, Note_on_c, 1, 67, 127
2, 2360, Note_on_c, 1, 78, 127
2, 2360, Note_off_c, 1, 82, 0
2, 2400, Note_on_c, 1, 39, 127
2, 2400, Note_on_c, 1, 41, 127
2, 2400, Note_on_c, 1, 48, 127
2, 2400, Note_off_c, 1, 51, 0
2, 2400, Note_off_c, 1, 55, 0
2, 2400, Note_off_c, 1, 63, 0
2, 2400, Note_off_c, 1, 66, 0
2, 2400, Note_off_c, 1, 67, 0
2, 2400, Note_on_c, 1, 75, 127
2, 2400, Note_off_c, 1, 78, 0
2, 2400, Note_on_c, 1, 87, 127
2, 2440, Note_off_c, 1, 39, 0
2, 2440, Note_off_c, 1, 41, 0
2, 2440, Note_off_c, 1, 48, 0
2, 2440, Note_on_c, 1, 57, 127
2, 2440, Note_on_c, 1, 59, 127
2, 2440, Note_off_c, 1, 75, 0
2, 2440, Note_on_c, 1, 79, 127
2, 2440, Note_off_c, 1, 87, 0
2, 2480, Note_on_c, 1, 48, 127
2, 2480, Note_on_c, 1, 51, 127
2, 2480, Note_on_c, 1, 56, 127
2, 2480, Note_off_c, 1, 57, 0
2, 2480, Note_off_c, 1, 59, 0
2, 2480, Note_off_c, 1, 79, 0
2, 2480, Note_on_c, 1, 92, 127
2, 2520, Note_on_c, 1, 35, 127
2, 2520, Note_on_c, 1, 42, 127
2, 2520, Note_off_c, 1, 48, 0
2, 2520, Note_off_c, 1, 51, 0
2, 2520, Note_on_c, 1, 54, 127
2, 2520, Note_off_c, 1, 56, 0
2, 2520, Note_on_c, 1, 74, 127
2, 2520, Note_on_c, 1, 77, 127
2, 2520, Note_on_c, 1, 83, 127
2, 2520, Note_off_c, 1, 92, 0
2, 2560, Note_off_c, 1, 35, 0
2, 2560, Note_off_c, 1, 42, 0
2, 2560, Note_off_c, 1, 54, 0
2, 2560, Note_on_c, 1, 65, 127
2, 2560, Note_off_c, 1, 74, 0
2, 2560, Note_on_c, 1, 75, 127
2, 2560, Note_off_c, 1, 77, 0
2, 2560, Note_on_c, 1, 78, 127
2, 2560, Note_on_c, 1, 82, 127
2, 2560, Note_off_c, 1, 83, 0
2, 2560, Note_on_c, 1, 87, 127
2, 2600, Note_on_c, 1, 41, 127
2, 2600, Note_on_c, 1, 45, 127
2, 2600, Note_on_c, 1, 50, 127
2, 2600, Note_on_c, 1, 53, 127
2, 2600, Note_off_c, 1, 65, 0
2, 2600, Note_off_c, 1, 75, 0
2, 2600, Note_off_c, 1, 78, 0
2, 2600, Note_off_c, 1, 82, 0
2, 2600, Note_on_c, 1, 86, 127
2, 2600, Note_off_c, 1, 87, 0
2, 2640, Note_off_c, 1, 41, 0
2, 2640, Note_off_c, 1, 45, 0
2, 2640, Note_off_c, 1, 50, 0
2, 2640, Note_off_c, 1, 53, 0
2, 2640, Note_on_c, 1, 58, 127
2, 2640, Note_on_c, 1, 61, 127
2, 2640, Note_on_c, 1, 64, 127
2, 2640, Note_on_c, 1, 65, 127
2, 2640, Note_on_c, 1, 67, 127
2, 2640, Note_off_c, 1, 86, 0
2, 2680, Note_on_c, 1, 40, 127
2, 2680, Note_on_c, 1, 47, 127
2, 2680, Note_on_c, 1, 52, 127
2, 2680, Note_off_c, 1, 58, 0
2, 2680, Note_off_c, 1, 61, 0
2, 2680, Note_off_c, 1, 64, 0
2, 2680, Note_off_c, 1, 65, 0
2, 2680, Note_off_c, 1, 67, 0
2, 2680, Note_on_c, 1, 76, 127
2, 2680, Note_on_c, 1, 79, 127
2, 2680, Note_on_c, 1, 88, 127
2, 2720, Note_off_c, 1, 40, 0
2, 2720, Note_off_c, 1, 47, 0
2, 2720, Note_on_c, 1, 50, 127
2, 2720, Note_off_c, 1, 52, 0
2, 2720, Note_on_c, 1, 56, 127
2, 2720, Note_on_c, 1, 58, 127
2, 2720, Note_off_c, 1, 76, 0
2, 2720, Note_off_c, 1, 79, 0
2, 2720, Note_on_c, 1, 82, 127
2, 2720, Note_on_c, 1, 85, 127
2, 2720, Note_off_c, 1, 88, 0
2, 2720, Note_on_c, 1, 94, 127
2, 2760, Note_off_c, 1, 50, 0
2, 2760, Note_off_c, 1, 58, 0
2, 2760, Note_on_c, 1, 63, 127
2, 2760, Note_on_c, 1, 66, 127
2, 2760, Note_on_c, 1, 68, 127
2, 2760, Note_on_c, 1, 72, 127
2, 2760, Note_on_c, 1, 75, 127
2, 2760, Note_on_c, 1, 80, 127
2, 2760, Note_off_c, 1, 82, 0
2, 2760, Note_off_c, 1, 85, 0
2, 2760, Note_off_c, 1, 94, 0
2, 2800, Note_on_c, 1, 37, 127
2, 2800, Note_on_c, 1, 41, 127
2, 2800, Note_off_c, 1, 56, 0
2, 2800, Note_off_c, 1, 63, 0
2, 2800, Note_off_c, 1, 66, 0
2, 2800, Note_off_c, 1, 68, 0
2, 2800, Note_off_c, 1, 72, 0
2, 2800, Note_off_c, 1, 75, 0
2, 2800, Note_off_c, 1, 80, 0
2, 2800, Note_on_c, 1, 89, 127
2, 2800, Note_on_c, 1, 97, 127
2, 2800, Note_on_c, 1, 101, 127
2, 2840, Note_off_c, 1, 37, 0
2, 2840, Note_on_c, 1, 38, 127
2, 2840, Note_off_c, 1, 41, 0
2, 2840, Note_on_c, 1, 54, 127
2, 2840, Note_on_c, 1, 74, 127
2, 2840, Note_on_c, 1, 78, 127
2, 2840, Note_on_c, 1, 81, 127
2, 2840, Note_off_c, 1, 89, 0
2, 2840, Note_off_c, 1, 97, 0
2, 2840, Note_off_c, 1, 101, 0
2, 2880, Note_off_c, 1, 38, 0
2, 2880, Note_off_c, 1, 54, 0
2, 2880, Note_on_c, 1, 65, 127
2, 2880, Note_off_c, 1, 78, 0
2, 2880, Note_off_c, 1, 81, 0
2, 2880, Note_on_c, 1, 86, 127
2, 2880, Note_on_c, 1, 89, 127
2, 2920, Note_on_c, 1, 63, 127
2, 2920, Note_off_c, 1, 65, 0
2, 2920, Note_on_c, 1, 67, 127
2, 2920, Note_off_c, 1, 74, 0
2, 2920, Note_on_c, 1, 82, 127
2, 2920, Note_on_c, 1, 85, 127
2, 2920, Note_off_c, 1, 86, 0
2, 2920, Note_off_c, 1, 89, 0
2, 2960, Note_on_c, 1, 35, 127
2, 2960, Note_on_c, 1, 40, 127
2, 2960, Note_on_c, 1, 50, 127
2, 2960, Note_off_c, 1, 63, 0
2, 2960, Note_off_c, 1, 67, 0
2, 2960, Note_on_c, 1, 76, 127
2, 2960, Note_off_c, 1, 82, 0
2, 2960, Note_off_c, 1, 85, 0
2, 3000, Note_off_c, 1, 35, 0
2, 3000, Note_off_c, 1, 40, 0
2, 3000, Note_off_c, 1, 50, 0
2, 3000, Note_on_c, 1, 75, 127
2, 3000, Note_off_c, 1, 76, 0
2, 3000, Note_on_c, 1, 82, 127
2, 3000, Note_on_c, 1, 99, 127
2, 3000, Note_on_c, 1, 104, 127
2, 3040, Note_on_c, 1, 43, 127
2, 3040, Note_on_c, 1, 61, 127
2, 3040, Note_on_c, 1, 67, 127
2, 3040, Note_on_c, 1, 70, 127
2, 3040, Note_off_c, 1, 75, 0
2, 3040, Note_off_c, 1, 82, 0
2, 3040, Note_off_c, 1, 99, 0
2, 3040, Note_off_c, 1, 104, 0
2, 3080, Note_off_c, 1, 43, 0
2, 3080, Note_off_c, 1, 61, 0
2, 3080, Note_on_c, 1, 64, 127
2, 3080, Note_off_c, 1, 67, 0
2, 3080, Note_off_c, 1, 70, 0
2, 3080, Note_on_c, 1, 72, 127
2, 3080, Note_on_c, 1, 81, 127
2, 3080, Note_on_c, 1, 91, 127
2, 3120, Note_on_c, 1, 39, 127
2, 3120, Note_off_c, 1, 64, 0
2, 3120, Note_off_c, 1, 72, 0
2, 3120, Note_off_c, 1, 81, 0
2, 3120, Note_off_c, 1, 91, 0
2, 3120, Note_on_c, 1, 103, 127
2, 3160, Note_off_c, 1, 39, 0
2, 3160, Note_on_c, 1, 58, 127
2, 3160, Note_on_c, 1, 66, 127
2, 3160, Note_on_c, 1, 70, 127
2, 3160, Note_on_c, 1, 82, 127
2, 3160, Note_on_c, 1, 85, 127
2, 3160, Note_on_c, 1, 90, 127
2, 3160, Note_on_c, 1, 94, 127
2, 3160, Note_off_c, 1, 103, 0
2, 3200, Note_on_c, 1, 31, 127
2, 3200, Note_on_c, 1, 39, 127
2, 3200, Note_off_c, 1, 58, 0
2, 3200, Note_off_c, 1, 66, 0
2, 3200, Note_off_c, 1, 70, 0
2, 3200, Note_off_c, 1, 82, 0
2, 3200, Note_off_c, 1, 85, 0
2, 3200, Note_off_c, 1, 90, 0
2, 3200, Note_off_c, 1, 94, 0
2, 3240, Note_off_c, 1, 31, 0
2, 3240, Note_off_c, 1, 39, 0
2, 3240, Note_on_c, 1, 76, 127
2, 3240, Note_on_c, 1, 77, 127
2, 3240, Note_on_c, 1, 84, 127
2, 3240, Note_on_c, 1, 87, 127
2, 3280, Note_on_c, 1, 52, 127
2, 3280, Note_on_c, 1, 74, 127
2, 3280, Note_off_c, 1, 76, 0
2, 3280, Note_off_c, 1, 77, 0
2, 3280, Note_off_c, 1, 87, 0
2, 3320, Note_on_c, 1, 46, 127
2, 3320, Note_off_c, 1, 52, 0
2, 3320, Note_on_c, 1, 58, 127
2, 3320, Note_off_c, 1, 74, 0
2, 3320, Note_off_c, 1, 84, 0
2, 3320, Note_on_c, 1, 89, 127
2, 3320, Note_on_c, 1, 101, 127
2, 3360, Note_off_c, 1, 46, 0
2, 3360, Note_on_c, 1, 52, 127
2, 3360, Note_on_c, 1, 55, 127
2, 3360, Note_on_c, 1, 60, 127
2, 3360, Note_on_c, 1, 64, 127
2, 3360, Note_on_c, 1, 86, 127
2, 3360, Note_off_c, 1, 89, 0
2, 3360, Note_off_c, 1, 101, 0
2, 3400, Note_on_c, 1, 34, 127
2, 3400, Note_off_c, 1, 52, 0
2, 3400, Note_off_c, 1, 55, 0
2, 3400, Note_off_c, 1, 58, 0
2, 3400, Note_off_c, 1, 60, 0
2, 3400, Note_off_c, 1, 64, 0
2, 3400, Note_off_c, 1, 86, 0
2, 3440, Note_off_c, 1, 34, 0
2, 3440, Note_on_c, 1, 55, 127
2, 3440, Note_on_c, 1, 67, 127
2, 3440, Note_on_c, 1, 73, 127
2, 3440, Note_on_c, 1, 77, 127
2, 3440, Note_on_c, 1, 80, 127
2, 3440, Note_on_c, 1, 85, 127
2, 3480, Note_on_c, 1, 53, 127
2, 3480, Note_off_c, 1, 55, 0
2, 3480, Note_off_c, 1, 67, 0
2, 3480, Note_off_c, 1, 73, 0
2, 3480, Note_on_c, 1, 74, 127
2, 3480, Note_off_c, 1, 80, 0
2, 3480, Note_on_c, 1, 84, 127
2, 3480, Note_off_c, 1, 85, 0
2, 3520, Note_off_c, 1, 53, 0
2, 3520, Note_on_c, 1, 57, 127
2, 3520, Note_on_c, 1, 60, 127
2, 3520, Note_on_c, 1, 65, 127
2, 3520, Note_on_c, 1, 69, 127
2, 3520, Note_off_c, 1, 74, 0
2, 3520, Note_off_c, 1, 77, 0
2, 3520, Note_on_c, 1, 81, 127
2, 3520, Note_off_c, 1, 84, 0
2, 3520, Note_on_c, 1, 86, 127
2, 3560, Note_on_c, 1, 48, 127
2, 3560, Note_on_c, 1, 52, 127
2, 3560, Note_off_c, 1, 57, 0
2, 3560, Note_off_c, 1, 60, 0
2, 3560, Note_off_c, 1, 65, 0
2, 3560, Note_on_c, 1, 67, 127
2, 3560, Note_off_c, 1, 69, 0
2, 3560, Note_on_c, 1, 73, 127
2, 3560, Note_off_c, 1, 81, 0
2, 3560, Note_off_c, 1, 86, 0
2, 3600, Note_off_c, 1, 48, 0
2, 3600, Note_off_c, 1, 52, 0
2, 3600, Note_on_c, 1, 60, 127
2, 3600, Note_off_c, 1, 67, 0
2, 3600, Note_off_c, 1, 73, 0
2, 3600, Note_on_c, 1, 88, 127
2, 3600, Note_on_c, 1, 95, 127
2, 3640, Note_off_c, 1, 60, 0
2, 3640, Note_on_c, 1, 65, 127
2, 3640, Note_on_c, 1, 74, 127
2, 3640, Note_on_c, 1, 76, 127
2, 3640, Note_on_c, 1, 77, 127
2, 3640, Note_on_c, 1, 79, 127
2, 3640, Note_on_c, 1, 81, 127
2, 3640, Note_off_c, 1, 88, 0
2, 3640, Note_off_c, 1, 95, 0
2, 3680, Note_on_c, 1, 24, 127
2, 3680, Note_on_c, 1, 28, 127
2, 3680, Note_on_c, 1, 31, 127
2, 3680, Note_on_c, 1, 36, 127
2, 3680, Note_on_c, 1, 48, 127
2, 3680, Note_on_c, 1, 60, 127
2, 3680, Note_off_c, 1, 65, 0
2, 3680, Note_off_c, 1, 74, 0
2, 3680, Note_off_c, 1, 76, 0
2, 3680, Note_off_c, 1, 77, 0
2, 3680, Note_off_c, 1, 79, 0
2, 3680, Note_off_c, 1, 81, 0
2, 3720, Note_off_c, 1, 24, 0
2, 3720, Note_off_c, 1, 28, 0
2, 3720, Note_on_c, 1, 34, 127
2, 3720, Note_off_c, 1, 36, 0
2, 3720, Note_on_c, 1, 38, 127
2, 3720, Note_on_c, 1, 43, 127
2, 3720, Note_off_c, 1, 48, 0
2, 3720, Note_on_c, 1, 58, 127
2, 3720, Note_off_c, 1, 60, 0
2, 3720, Note_on_c, 1, 62, 127
2, 3720, Note_on_c, 1, 70, 127
2, 3760, Note_off_c, 1, 31, 0
2, 3760, Note_off_c, 1, 34, 0
2, 3760, Note_off_c, 1, 38, 0
2, 3760, Note_off_c, 1, 43, 0
2, 3760, Note_on_c, 1, 53, 127
2, 3760, Note_on_c, 1, 56, 127
2, 3760, Note_off_c, 1, 58, 0
2, 3760, Note_on_c, 1, 60, 127
2, 3760, Note_off_c, 1, 62, 0
2, 3760, Note_on_c, 1, 65, 127
2, 3760, Note_off_c, 1, 70, 0
2, 3760, Note_on_c, 1, 84, 127
2, 3800, Note_on_c, 1, 24, 127
2, 3800, Note_on_c, 1, 28, 127
2, 3800, Note_on_c, 1, 31, 127
2, 3800, Note_on_c, 1, 36, 127
2, 3800, Note_on_c, 1, 48, 127
2, 3800, Note_off_c, 1, 53, 0
2, 3800, Note_off_c, 1, 56, 0
2, 3800, Note_off_c, 1, 65, 0
2, 3800, Note_off_c, 1, 84, 0
2, 3840, Note_off_c, 1, 24, 0
2, 3840, Note_off_c, 1, 28, 0
2, 3840, Note_off_c, 1, 31, 0
2, 3840, Note_off_c, 1, 36, 0
2, 3840, Note_off_c, 1, 48, 0
2, 3840, Note_off_c, 1, 60, 0
2, 3840, Note_on_c, 1, 84, 127
2, 3840, Note_on_c, 1, 96, 127
2, 3880, Note_on_c, 1, 60, 127
2, 3880, Note_on_c, 1, 65, 127
2, 3880, Note_on_c, 1, 69, 127
2, 3880, Note_on_c, 1, 72, 127
2, 3880, Note_on_c, 1, 77, 127
2, 3880, Note_on_c, 1, 81, 127
2, 3880, Note_off_c, 1, 96, 0
2, 4040, Note_off_c, 1, 60, 0
2, 4040, Note_off_c, 1, 65, 0
2, 4040, Note_off_c, 1, 69, 0
2, 4040, Note_off_c, 1, 72, 0
2, 4040, Note_off_c, 1, 77, 0
2, 4040, Note_off_c, 1, 81, 0
2, 4040, Note_off_c, 1, 84, 0
2, 4080, Note_on_c, 1, 60, 127
2, 4080, Note_on_c, 1, 65, 127
2, 4080, Note_on_c, 1, 69, 127
2, 4080, Note_on_c, 1, 72, 127
2, 4080, Note_on_c, 1, 77, 127
2, 4080, Note_on_c, 1, 81, 127
2, 4080, Note_on_c, 1, 84, 127
2, 4320, Note_off_c, 1, 60, 0
2, 4320, Note_off_c, 1, 65, 0
2, 4320, Note_off_c, 1, 69, 0
2, 4320, Note_off_c, 1, 72, 0
2, 4320, Note_off_c, 1, 77, 0
2, 4320, Note_off_c, 1, 81, 0
2, 4320, Note_off_c, 1, 84, 0
2, 4360, Note_on_c, 1, 76, 127
2, 4360, Note_on_c, 1, 77, 127
2, 4360, Note_on_c, 1, 82, 127
2, 4360, Note_on_c, 1, 84, 127
2, 4400, Note_on_c, 1, 57, 127
2, 4400, Note_on_c, 1, 60, 127
2, 4400, Note_off_c, 1, 76, 0
2, 4400, Note_off_c, 1, 77, 0
2, 4400, Note_off_c, 1, 82, 0
2, 4400, Note_on_c, 1, 86, 127
2, 4440, Note_off_c, 1, 57, 0
2, 4440, Note_off_c, 1, 60, 0
2, 4440, Note_on_c, 1, 76, 127
2, 4440, Note_on_c, 1, 77, 127
2, 4440, Note_on_c, 1, 82, 127
2, 4440, Note_off_c, 1, 86, 0
2, 4520, Note_on_c, 1, 57, 127
2, 4520, Note_on_c, 1, 60, 127
2, 4520, Note_on_c, 1, 65, 127
2, 4520, Note_on_c, 1, 69, 127
2, 4520, Note_on_c, 1, 72, 127
2, 4520, Note_off_c, 1, 76, 0
2, 4520, Note_on_c, 1, 81, 127
2, 4520, Note_off_c, 1, 82, 0
2, 4560, Note_off_c, 1, 57, 0
2, 4560, Note_off_c, 1, 60, 0
2, 4560, Note_off_c, 1, 65, 0
2, 4560, Note_off_c, 1, 69, 0
2, 4560, Note_off_c, 1, 72, 0
2, 4560, Note_on_c, 1, 76, 127
2, 4560, Note_off_c, 1, 81, 0
2, 4560, Note_on_c, 1, 82, 127
2, 4600, Note_on_c, 1, 69, 127
2, 4600, Note_off_c, 1, 76, 0
2, 4600, Note_off_c, 1, 77, 0
2, 4600, Note_off_c, 1, 82, 0
2, 4600, Note_off_c, 1, 84, 0
2, 4600, Note_on_c, 1, 101, 127
2, 4640, Note_on_c, 1, 29, 127
2, 4640, Note_on_c, 1, 41, 127
2, 4640, Note_on_c, 1, 60, 127
2, 4640, Note_on_c, 1, 65, 127
2, 4640, Note_on_c, 1, 68, 127
2, 4640, Note_off_c, 1, 69, 0
2, 4640, Note_off_c, 1, 101, 0
2, 4680, Note_off_c, 1, 29, 0
2, 4680, Note_off_c, 1, 41, 0
2, 4680, Note_off_c, 1, 60, 0
2, 4680, Note_off_c, 1, 65, 0
2, 4680, Note_off_c, 1, 68, 0
2, 4680, Note_on_c, 1, 101, 127
2, 4680, Note_on_c, 1, 102, 127
2, 4720, Note_on_c, 1, 58, 127
2, 4720, Note_on_c, 1, 61, 127
2, 4720, Note_on_c, 1, 65, 127
2, 4720, Note_on_c, 1, 89, 127
2, 4720, Note_on_c, 1, 96, 127
2, 4720, Note_off_c, 1, 101, 0
2, 4720, Note_off_c, 1, 102, 0
2, 4760, Note_on_c, 1, 41, 127
2, 4760, Note_on_c, 1, 48, 127
2, 4760, Note_on_c, 1, 53, 127
2, 4760, Note_on_c, 1, 57, 127
2, 4760, Note_off_c, 1, 58, 0
2, 4760, Note_off_c, 1, 61, 0
2, 4760, Note_off_c, 1, 65, 0
2, 4760, Note_on_c, 1, 84, 127
2, 4760, Note_on_c, 1, 93, 127
2, 4760, Note_off_c, 1, 96, 0
2, 4800, Note_off_c, 1, 41, 0
2, 4800, Note_off_c, 1, 53, 0
2, 4800, Note_off_c, 1, 57, 0
2, 4800, Note_on_c, 1, 60, 127
2, 4800, Note_off_c, 1, 84, 0
2, 4800, Note_on_c, 1, 86, 127
2, 4800, Note_off_c, 1, 89, 0
2, 4800, Note_off_c, 1, 93, 0
2, 4800, Note_on_c, 1, 94, 127
2, 4800, Note_on_c, 1, 98, 127
2, 4840, Note_off_c, 1, 48, 0
2, 4840, Note_on_c, 1, 58, 127
2, 4840, Note_off_c, 1, 60, 0
2, 4840, Note_on_c, 1, 61, 127
2, 4840, Note_on_c, 1, 65, 127
2, 4840, Note_off_c, 1, 86, 0
2, 4840, Note_on_c, 1, 89, 127
2, 4840, Note_off_c, 1, 94, 0
2, 4840, Note_on_c, 1, 96, 127
2, 4840, Note_off_c, 1, 98, 0
2, 4880, Note_on_c, 1, 52, 127
2, 4880, Note_on_c, 1, 55, 127
2, 4880, Note_off_c, 1, 61, 0
2, 4880, Note_off_c, 1, 65, 0
2, 4880, Note_on_c, 1, 72, 127
2, 4880, Note_off_c, 1, 89, 0
2, 4880, Note_off_c, 1, 96, 0
2, 4920, Note_off_c, 1, 52, 0
2, 4920, Note_off_c, 1, 55, 0
2, 4920, Note_off_c, 1, 58, 0
2, 4920, Note_off_c, 1, 72, 0
2, 4920, Note_on_c, 1, 80, 127
2, 4920, Note_on_c, 1, 86, 127
2, 4920, Note_on_c, 1, 95, 127
2, 4920, Note_on_c, 1, 96, 127
2, 4960, Note_on_c, 1, 61, 127
2, 4960, Note_on_c, 1, 67, 127
2, 4960, Note_on_c, 1, 71, 127
2, 4960, Note_off_c, 1, 80, 0
2, 4960, Note_on_c, 1, 83, 127
2, 4960, Note_on_c, 1, 91, 127
2, 4960, Note_off_c, 1, 96, 0
2, 5000, Note_on_c, 1, 46, 127
2, 5000, Note_on_c, 1, 50, 127
2, 5000, Note_on_c, 1, 53, 127
2, 5000, Note_on_c, 1, 55, 127
2, 5000, Note_off_c, 1, 61, 0
2, 5000, Note_off_c, 1, 67, 0
2, 5000, Note_off_c, 1, 71, 0
2, 5000, Note_on_c, 1, 81, 127
2, 5000, Note_off_c, 1, 83, 0
2, 5000, Note_off_c, 1, 86, 0
2, 5000, Note_off_c, 1, 91, 0
2, 5000, Note_off_c, 1, 95, 0
2, 5040, Note_off_c, 1, 46, 0
2, 5040, Note_off_c, 1, 50, 0
2, 5040, Note_off_c, 1, 53, 0
2, 5040, Note_off_c, 1, 55, 0
2, 5040, Note_off_c, 1, 81, 0
2, 5080, Note_on_c, 1, 70, 127
2, 5080, Note_on_c, 1, 72, 127
2, 5080, Note_on_c, 1, 75, 127
2, 5080, Note_on_c, 1, 82, 127
2, 5160, Note_on_c, 1, 40, 127
2, 5160, Note_on_c, 1, 65, 127
2, 5160, Note_off_c, 1, 70, 0
2, 5160, Note_on_c, 1, 71, 127
2, 5160, Note_off_c, 1, 72, 0
2, 5160, Note_on_c, 1, 74, 127
2, 5160, Note_off_c, 1, 75, 0
2, 5160, Note_off_c, 1, 82, 0
2, 5200, Note_off_c, 1, 40, 0
2, 5200, Note_on_c, 1, 41, 127
2, 5200, Note_on_c, 1, 55, 127
2, 5200, Note_on_c, 1, 57, 127
2, 5200, Note_on_c, 1, 63, 127
2, 5200, Note_off_c, 1, 65, 0
2, 5200, Note_off_c, 1, 71, 0
2, 5200, Note_off_c, 1, 74, 0
2, 5240, Note_off_c, 1, 41, 0
2, 5240, Note_on_c, 1, 43, 127
2, 5240, Note_on_c, 1, 50, 127
2, 5240, Note_off_c, 1, 55, 0
2, 5240, Note_off_c, 1, 57, 0
2, 5240, Note_on_c, 1, 60, 127
2, 5240, Note_on_c, 1, 62, 127
2, 5240, Note_off_c, 1, 63, 0
2, 5240, Note_on_c, 1, 69, 127
2, 5280, Note_off_c, 1, 43, 0
2, 5280, Note_off_c, 1, 50, 0
2, 5280, Note_off_c, 1, 60, 0
2, 5280, Note_off_c, 1, 62, 0
2, 5280, Note_off_c, 1, 69, 0
2, 5280, Note_on_c, 1, 72, 127
2, 5280, Note_on_c, 1, 75, 127
2, 5280, Note_on_c, 1, 79, 127
2, 5280, Note_on_c, 1, 86, 127
2, 5320, Note_on_c, 1, 40, 127
2, 5320, Note_off_c, 1, 72, 0
2, 5320, Note_on_c, 1, 73, 127
2, 5320, Note_off_c, 1, 75, 0
2, 5320, Note_on_c, 1, 82, 127
2, 5320, Note_on_c, 1, 85, 127
2, 5320, Note_off_c, 1, 86, 0
2, 5360, Note_off_c, 1, 40, 0
2, 5360, Note_off_c, 1, 73, 0
2, 5360, Note_on_c, 1, 74, 127
2, 5360, Note_off_c, 1, 79, 0
2, 5360, Note_off_c, 1, 82, 0
2, 5360, Note_on_c, 1, 83, 127
2, 5360, Note_off_c, 1, 85, 0
2, 5360, Note_on_c, 1, 89, 127
2, 5400, Note_on_c, 1, 59, 127
2, 5400, Note_on_c, 1, 69, 127
2, 5400, Note_off_c, 1, 74, 0
2, 5400, Note_on_c, 1, 75, 127
2, 5400, Note_on_c, 1, 79, 127
2, 5400, Note_off_c, 1, 83, 0
2, 5400, Note_off_c, 1, 89, 0
2, 5440, Note_off_c, 1, 59, 0
2, 5440, Note_off_c, 1, 69, 0
2, 5440, Note_off_c, 1, 75, 0
2, 5440, Note_off_c, 1, 79, 0
2, 5440, Note_on_c, 1, 81, 127
2, 5440, Note_on_c, 1, 84, 127
2, 5480, Note_on_c, 1, 41, 127
2, 5480, Note_on_c, 1, 53, 127
2, 5480, Note_on_c, 1, 62, 127
2, 5480, Note_on_c, 1, 67, 127
2, 5480, Note_on_c, 1, 71, 127
2, 5480, Note_on_c, 1, 74, 127
2, 5480, Note_off_c, 1, 81, 0
2, 5480, Note_off_c, 1, 84, 0
2, 5520, Note_on_c, 1, 40, 127
2, 5520, Note_off_c, 1, 41, 0
2, 5520, Note_off_c, 1, 53, 0
2, 5520, Note_off_c, 1, 62, 0
2, 5520, Note_off_c, 1, 67, 0
2, 5520, Note_off_c, 1, 71, 0
2, 5520, Note_off_c, 1, 74, 0
2, 5520, Note_on_c, 1, 84, 127
2, 5520, Note_on_c, 1, 91, 127
2, 5520, Note_on_c, 1, 96, 127
2, 5560, Note_on_c, 1, 35, 127
2, 5560, Note_off_c, 1, 40, 0
2, 5560, Note_on_c, 1, 67, 127
2, 5560, Note_on_c, 1, 74, 127
2, 5560, Note_on_c, 1, 77, 127
2, 5560, Note_on_c, 1, 79, 127
2, 5560, Note_off_c, 1, 84, 0
2, 5560, Note_off_c, 1, 91, 0
2, 5560, Note_off_c, 1, 96, 0
2, 5600, Note_on_c, 1, 33, 127
2, 5600, Note_off_c, 1, 35, 0
2, 5600, Note_on_c, 1, 45, 127
2, 5600, Note_on_c, 1, 57, 127
2, 5600, Note_off_c, 1, 67, 0
2, 5600, Note_on_c, 1, 72, 127
2, 5600, Note_off_c, 1, 74, 0
2, 5600, Note_on_c, 1, 75, 127
2, 5600, Note_off_c, 1, 77, 0
2, 5600, Note_on_c, 1, 84, 127
2, 5600, Note_on_c, 1, 87, 127
2, 5600, Note_on_c, 1, 91, 127
2, 5600, Note_on_c, 1, 96, 127
2, 5640, Note_off_c, 1, 33, 0
2, 5640, Note_off_c, 1, 45, 0
2, 5640, Note_off_c, 1, 57, 0
2, 5640, Note_on_c, 1, 60, 127
2, 5640, Note_on_c, 1, 65, 127
2, 5640, Note_on_c, 1, 69, 127
2, 5640, Note_off_c, 1, 72, 0
2, 5640, Note_off_c, 1, 75, 0
2, 5640, Note_off_c, 1, 79, 0
2, 5640, Note_on_c, 1, 81, 127
2, 5640, Note_off_c, 1, 84, 0
2, 5640, Note_off_c, 1, 87, 0
2, 5640, Note_on_c, 1, 89, 127
2, 5640, Note_off_c, 1, 91, 0
2, 5640, Note_on_c, 1, 93, 127
2, 5640, Note_off_c, 1, 96, 0
2, 5680, Note_off_c, 1, 60, 0
2, 5680, Note_off_c, 1, 65, 0
2, 5680, Note_on_c, 1, 67, 127
2, 5680, Note_off_c, 1, 69, 0
2, 5680, Note_on_c, 1, 79, 127
2, 5680, Note_off_c, 1, 81, 0
2, 5680, Note_on_c, 1, 86, 127
2, 5680, Note_off_c, 1, 89, 0
2, 5680, Note_off_c, 1, 93, 0
2, 5680, Note_on_c, 1, 94, 127
2, 5720, Note_on_c, 1, 41, 127
2, 5720, Note_on_c, 1, 48, 127
2, 5720, Note_on_c, 1, 57, 127
2, 5720, Note_on_c, 1, 65, 127
2, 5720, Note_off_c, 1, 67, 0
2, 5720, Note_on_c, 1, 76, 127
2, 5720, Note_off_c, 1, 79, 0
2, 5720, Note_off_c, 1, 86, 0
2, 5720, Note_off_c, 1, 94, 0
2, 5760, Note_on_c, 1, 28, 127
2, 5760, Note_on_c, 1, 40, 127
2, 5760, Note_off_c, 1, 41, 0
2, 5760, Note_off_c, 1, 48, 0
2, 5760, Note_off_c, 1, 57, 0
2, 5760, Note_off_c, 1, 65, 0
2, 5760, Note_on_c, 1, 68, 127
2, 5760, Note_on_c, 1, 73, 127
2, 5760, Note_off_c, 1, 76, 0
2, 5800, Note_off_c, 1, 28, 0
2, 5800, Note_off_c, 1, 40, 0
2, 5800, Note_on_c, 1, 52, 127
2, 5800, Note_on_c, 1, 55, 127
2, 5800, Note_on_c, 1, 58, 127
2, 5800, Note_on_c, 1, 61, 127
2, 5800, Note_off_c, 1, 68, 0
2, 5800, Note_on_c, 1, 70, 127
2, 5800, Note_off_c, 1, 73, 0
2, 5840, Note_on_c, 1, 43, 127
2, 5840, Note_on_c, 1, 50, 127
2, 5840, Note_off_c, 1, 52, 0
2, 5840, Note_off_c, 1, 55, 0
2, 5840, Note_on_c, 1, 57, 127
2, 5840, Note_off_c, 1, 58, 0
2, 5840, Note_on_c, 1, 60, 127
2, 5840, Note_off_c, 1, 61, 0
2, 5840, Note_on_c, 1, 66, 127
2, 5840, Note_off_c, 1, 70, 0
2, 5880, Note_on_c, 1, 35, 127
2, 5880, Note_off_c, 1, 43, 0
2, 5880, Note_off_c, 1, 50, 0
2, 5880, Note_off_c, 1, 57, 0
2, 5880, Note_off_c, 1, 60, 0
2, 5880, Note_off_c, 1, 66, 0
2, 5880, Note_on_c, 1, 83, 127
2, 5880, Note_on_c, 1, 91, 127
2, 5880, Note_on_c, 1, 95, 127
2, 5920, Note_off_c, 1, 35, 0
2, 5920, Note_on_c, 1, 64, 127
2, 5920, Note_on_c, 1, 68, 127
2, 5920, Note_on_c, 1, 70, 127
2, 5920, Note_on_c, 1, 73, 127
2, 5920, Note_on_c, 1, 76, 127
2, 5920, Note_off_c, 1, 83, 0
2, 5920, Note_off_c, 1, 91, 0
2, 5920, Note_off_c, 1, 95, 0
2, 5960, Note_on_c, 1, 36, 127
2, 5960, Note_on_c, 1, 62, 127
2, 5960, Note_off_c, 1, 64, 0
2, 5960, Note_off_c, 1, 68, 0
2, 5960, Note_off_c, 1, 73, 0
2, 5960, Note_on_c, 1, 75, 127
2, 5960, Note_off_c, 1, 76, 0
2, 6000, Note_off_c, 1, 36, 0
2, 6000, Note_on_c, 1, 50, 127
2, 6000, Note_on_c, 1, 59, 127
2, 6000, Note_on_c, 1, 66, 127
2, 6000, Note_on_c, 1, 71, 127
2, 6000, Note_off_c, 1, 75, 0
2, 6000, Note_on_c, 1, 82, 127
2, 6000, Note_on_c, 1, 94, 127
2, 6040, Note_off_c, 1, 50, 0
2, 6040, Note_off_c, 1, 59, 0
2, 6040, Note_off_c, 1, 62, 0
2, 6040, Note_off_c, 1, 66, 0
2, 6040, Note_on_c, 1, 67, 127
2, 6040, Note_off_c, 1, 70, 0
2, 6040, Note_on_c, 1, 73, 127
2, 6040, Note_on_c, 1, 76, 127
2, 6040, Note_on_c, 1, 79, 127
2, 6040, Note_off_c, 1, 82, 0
2, 6040, Note_on_c, 1, 83, 127
2, 6040, Note_on_c, 1, 88, 127
2, 6040, Note_off_c, 1, 94, 0
2, 6040, Note_on_c, 1, 95, 127
2, 6080, Note_off_c, 1, 67, 0
2, 6080, Note_off_c, 1, 71, 0
2, 6080, Note_off_c, 1, 73, 0
2, 6080, Note_off_c, 1, 76, 0
2, 6080, Note_off_c, 1, 79, 0
2, 6080, Note_off_c, 1, 83, 0
2, 6080, Note_off_c, 1, 88, 0
2, 6080, Note_off_c, 1, 95, 0
2, 6120, Note_on_c, 1, 47, 127
2, 6120, Note_on_c, 1, 56, 127
2, 6120, Note_on_c, 1, 64, 127
2, 6120, Note_on_c, 1, 70, 127
2, 6160, Note_off_c, 1, 47, 0
2, 6160, Note_on_c, 1, 50, 127
2, 6160, Note_on_c, 1, 62, 127
2, 6160, Note_off_c, 1, 64, 0
2, 6160, Note_off_c, 1, 70, 0
2, 6160, Note_on_c, 1, 77, 127
2, 6160, Note_on_c, 1, 80, 127
2, 6200, Note_on_c, 1, 42, 127
2, 6200, Note_off_c, 1, 50, 0
2, 6200, Note_on_c, 1, 52, 127
2, 6200, Note_off_c, 1, 56, 0
2, 6200, Note_on_c, 1, 59, 127
2, 6200, Note_off_c, 1, 62, 0
2, 6200, Note_on_c, 1, 64, 127
2, 6200, Note_off_c, 1, 77, 0
2, 6200, Note_off_c, 1, 80, 0
2, 6240, Note_off_c, 1, 42, 0
2, 6240, Note_off_c, 1, 52, 0
2, 6240, Note_off_c, 1, 59, 0
2, 6240, Note_off_c, 1, 64, 0
2, 6240, Note_on_c, 1, 67, 127
2, 6240, Note_on_c, 1, 70, 127
2, 6240, Note_on_c, 1, 84, 127
2, 6240, Note_on_c, 1, 87, 127
2, 6240, Note_on_c, 1, 93, 127
2, 6280, Note_on_c, 1, 55, 127
2, 6280, Note_on_c, 1, 61, 127
2, 6280, Note_on_c, 1, 64, 127
2, 6280, Note_off_c, 1, 67, 0
2, 6280, Note_on_c, 1, 69, 127
2, 6280, Note_off_c, 1, 70, 0
2, 6280, Note_off_c, 1, 84, 0
2, 6280, Note_on_c, 1, 85, 127
2, 6280, Note_off_c, 1, 87, 0
2, 6280, Note_off_c, 1, 93, 0
2, 6320, Note_off_c, 1, 55, 0
2, 6320, Note_off_c, 1, 61, 0
2, 6320, Note_off_c, 1, 64, 0
2, 6320, Note_off_c, 1, 69, 0
2, 6320, Note_off_c, 1, 85, 0
2, 6320, Note_on_c, 1, 87, 127
2, 6320, Note_on_c, 1, 88, 127
2, 6320, Note_on_c, 1, 93, 127
2, 6360, Note_on_c, 1, 72, 127
2, 6360, Note_off_c, 1, 87, 0
2, 6360, Note_off_c, 1, 88, 0
2, 6360, Note_off_c, 1, 93, 0
2, 6360, Note_on_c, 1, 101, 127
2, 6400, Note_off_c, 1, 72, 0
2, 6400, Note_on_c, 1, 94, 127
2, 6400, Note_on_c, 1, 95, 127
2, 6400, Note_on_c, 1, 99, 127
2, 6400, Note_on_c, 1, 100, 127
2, 6400, Note_off_c, 1, 101, 0
2, 6440, Note_on_c, 1, 72, 127
2, 6440, Note_on_c, 1, 75, 127
2, 6440, Note_off_c, 1, 94, 0
2, 6440, Note_off_c, 1, 95, 0
2, 6440, Note_off_c, 1, 99, 0
2, 6440, Note_off_c, 1, 100, 0
2, 6480, Note_on_c, 1, 25, 127
2, 6480, Note_on_c, 1, 37, 127
2, 6480, Note_off_c, 1, 72, 0
2, 6480, Note_off_c, 1, 75, 0
2, 6480, Note_on_c, 1, 76, 127
2, 6480, Note_on_c, 1, 83, 127
2, 6520, Note_off_c, 1, 25, 0
2, 6520, Note_on_c, 1, 31, 127
2, 6520, Note_on_c, 1, 36, 127
2, 6520, Note_off_c, 1, 37, 0
2, 6520, Note_on_c, 1, 38, 127
2, 6520, Note_on_c, 1, 55, 127
2, 6520, Note_on_c, 1, 60, 127
2, 6520, Note_on_c, 1, 64, 127
2, 6520, Note_off_c, 1, 76, 0
2, 6520, Note_off_c, 1, 83, 0
2, 6560, Note_on_c, 1, 25, 127
2, 6560, Note_off_c, 1, 31, 0
2, 6560, Note_off_c, 1, 36, 0
2, 6560, Note_on_c, 1, 37, 127
2, 6560, Note_off_c, 1, 38, 0
2, 6560, Note_off_c, 1, 55, 0
2, 6560, Note_off_c, 1, 60, 0
2, 6560, Note_off_c, 1, 64, 0
2, 6560, Note_on_c, 1, 80, 127
2, 6560, Note_on_c, 1, 85, 127
2, 6560, Note_on_c, 1, 89, 127
2, 6560, Note_on_c, 1, 92, 127
2, 6600, Note_off_c, 1, 25, 0
2, 6600, Note_off_c, 1, 37, 0
2, 6600, Note_on_c, 1, 63, 127
2, 6600, Note_on_c, 1, 67, 127
2, 6600, Note_on_c, 1, 70, 127
2, 6600, Note_on_c, 1, 79, 127
2, 6600, Note_off_c, 1, 80, 0
2, 6600, Note_off_c, 1, 85, 0
2, 6600, Note_off_c, 1, 89, 0
2, 6600, Note_on_c, 1, 91, 127
2, 6600, Note_off_c, 1, 92, 0
2, 6640, Note_on_c, 1, 56, 127
2, 6640, Note_on_c, 1, 61, 127
2, 6640, Note_off_c, 1, 63, 0
2, 6640, Note_on_c, 1, 64, 127
2, 6640, Note_off_c, 1, 70, 0
2, 6640, Note_off_c, 1, 79, 0
2, 6640, Note_on_c, 1, 82, 127
2, 6640, Note_off_c, 1, 91, 0
2, 6640, Note_on_c, 1, 94, 127
2, 6680, Note_on_c, 1, 29, 127
2, 6680, Note_on_c, 1, 41, 127
2, 6680, Note_off_c, 1, 56, 0
2, 6680, Note_off_c, 1, 61, 0
2, 6680, Note_off_c, 1, 64, 0
2, 6680, Note_off_c, 1, 67, 0
2, 6680, Note_off_c, 1, 82, 0
2, 6720, Note_off_c, 1, 29, 0
2, 6720, Note_off_c, 1, 41, 0
2, 6720, Note_on_c, 1, 65, 127
2, 6720, Note_on_c, 1, 74, 127
2, 6720, Note_on_c, 1, 84, 127
2, 6720, Note_on_c, 1, 93, 127
2, 6720, Note_off_c, 1, 94, 0
2, 6760, Note_on_c, 1, 49, 127
2, 6760, Note_on_c, 1, 52, 127
2, 6760, Note_on_c, 1, 57, 127
2, 6760, Note_on_c, 1, 61, 127
2, 6760, Note_on_c, 1, 63, 127
2, 6760, Note_off_c, 1, 65, 0
2, 6760, Note_off_c, 1, 74, 0
2, 6760, Note_off_c, 1, 84, 0
2, 6760, Note_off_c, 1, 93, 0
2, 6800, Note_on_c, 1, 41, 127
2, 6800, Note_on_c, 1, 47, 127
2, 6800, Note_off_c, 1, 49, 0
2, 6800, Note_off_c, 1, 52, 0
2, 6800, Note_off_c, 1, 57, 0
2, 6800, Note_off_c, 1, 61, 0
2, 6800, Note_off_c, 1, 63, 0
2, 6840, Note_off_c, 1, 41, 0
2, 6840, Note_off_c, 1, 47, 0
2, 6840, Note_on_c, 1, 63, 127
2, 6840, Note_on_c, 1, 75, 127
2, 6840, Note_on_c, 1, 94, 127
2, 6840, Note_on_c, 1, 104, 127
2, 6880, Note_on_c, 1, 51, 127
2, 6880, Note_on_c, 1, 59, 127
2, 6880, Note_off_c, 1, 63, 0
2, 6880, Note_off_c, 1, 75, 0
2, 6880, Note_on_c, 1, 85, 127
2, 6880, Note_off_c, 1, 94, 0
2, 6880, Note_off_c, 1, 104, 0
2, 6920, Note_off_c, 1, 51, 0
2, 6920, Note_off_c, 1, 59, 0
2, 6920, Note_on_c, 1, 75, 127
2, 6920, Note_on_c, 1, 78, 127
2, 6920, Note_on_c, 1, 82, 127
2, 6920, Note_off_c, 1, 85, 0
2, 6920, Note_on_c, 1, 87, 127
2, 6920, Note_on_c, 1, 90, 127
2, 6960, Note_on_c, 1, 45, 127
2, 6960, Note_on_c, 1, 47, 127
2, 6960, Note_on_c, 1, 52, 127
2, 6960, Note_on_c, 1, 56, 127
2, 6960, Note_on_c, 1, 72, 127
2, 6960, Note_off_c, 1, 75, 0
2, 6960, Note_off_c, 1, 78, 0
2, 6960, Note_off_c, 1, 82, 0
2, 6960, Note_off_c, 1, 87, 0
2, 6960, Note_off_c, 1, 90, 0
2, 7000, Note_off_c, 1, 45, 0
2, 7000, Note_off_c, 1, 47, 0
2, 7000, Note_off_c, 1, 52, 0
2, 7000, Note_off_c, 1, 56, 0
2, 7000, Note_off_c, 1, 72, 0
2, 7000, Note_on_c, 1, 75, 127
2, 7000, Note_on_c, 1, 78, 127
2, 7000, Note_on_c, 1, 82, 127
2, 7000, Note_on_c, 1, 87, 127
2, 7000, Note_on_c, 1, 90, 127
2, 7080, Note_on_c, 1, 58, 127
2, 7080, Note_on_c, 1, 61, 127
2, 7080, Note_on_c, 1, 68, 127
2, 7080, Note_off_c, 1, 78, 0
2, 7080, Note_off_c, 1, 82, 0
2, 7080, Note_off_c, 1, 87, 0
2, 7080, Note_off_c, 1, 90, 0
2, 7120, Note_off_c, 1, 61, 0
2, 7120, Note_on_c, 1, 64, 127
2, 7120, Note_on_c, 1, 66, 127
2, 7120, Note_off_c, 1, 68, 0
2, 7120, Note_off_c, 1, 75, 0
2, 7120, Note_on_c, 1, 76, 127
2, 7120, Note_on_c, 1, 78, 127
2, 7120, Note_on_c, 1, 82, 127
2, 7120, Note_on_c, 1, 87, 127
2, 7160, Note_on_c, 1, 30, 127
2, 7160, Note_on_c, 1, 38, 127
2, 7160, Note_on_c, 1, 50, 127
2, 7160, Note_on_c, 1, 54, 127
2, 7160, Note_on_c, 1, 57, 127
2, 7160, Note_off_c, 1, 58, 0
2, 7160, Note_on_c, 1, 62, 127
2, 7160, Note_off_c, 1, 64, 0
2, 7160, Note_off_c, 1, 66, 0
2, 7160, Note_on_c, 1, 69, 127
2, 7160, Note_on_c, 1, 74, 127
2, 7160, Note_off_c, 1, 76, 0
2, 7160, Note_on_c, 1, 81, 127
2, 7160, Note_off_c, 1, 82, 0
2, 7160, Note_on_c, 1, 86, 127
2, 7160, Note_off_c, 1, 87, 0
2, 7160, Note_on_c, 1, 90, 127
2, 7200, Note_off_c, 1, 30, 0
2, 7200, Note_off_c, 1, 38, 0
2, 7200, Note_off_c, 1, 50, 0
2, 7200, Note_off_c, 1, 54, 0
2, 7200, Note_off_c, 1, 57, 0
2, 7200, Note_off_c, 1, 62, 0
2, 7200, Note_off_c, 1, 69, 0
2, 7200, Note_off_c, 1, 74, 0
2, 7200, Note_off_c, 1, 78, 0
2, 7200, Note_off_c, 1, 81, 0
2, 7200, Note_off_c, 1, 86, 0
2, 7200, Note_off_c, 1, 90, 0
2, 7240, Note_on_c, 1, 92, 127
2, 7280, Note_off_c, 1, 92, 0
2, 7280, Note_on_c, 1, 96, 127
2, 7320, Note_on_c, 1, 62, 127
2, 7320, Note_on_c, 1, 65, 127
2, 7320, Note_on_c, 1, 69, 127
2, 7320, Note_on_c, 1, 74, 127
2, 7320, Note_on_c, 1, 81, 127
2, 7320, Note_on_c, 1, 86, 127
2, 7320, Note_off_c, 1, 96, 0
2, 7360, Note_off_c, 1, 62, 0
2, 7360, Note_off_c, 1, 65, 0
2, 7360, Note_off_c, 1, 74, 0
2, 7360, Note_off_c, 1, 81, 0
2, 7360, Note_off_c, 1, 86, 0
2, 7360, Note_on_c, 1, 93, 127
2, 7360, Note_on_c, 1, 96, 127
2, 7400, Note_on_c, 1, 53, 127
2, 7400, Note_on_c, 1, 60, 127
2, 7400, Note_on_c, 1, 63, 127
2, 7400, Note_on_c, 1, 67, 127
2, 7400, Note_off_c, 1, 69, 0
2, 7400, Note_off_c, 1, 93, 0
2, 7440, Note_off_c, 1, 53, 0
2, 7440, Note_off_c, 1, 60, 0
2, 7440, Note_off_c, 1, 63, 0
2, 7440, Note_off_c, 1, 67, 0
2, 7440, Note_on_c, 1, 69, 127
2, 7440, Note_on_c, 1, 93, 127
2, 7520, Note_on_c, 1, 48, 127
2, 7520, Note_on_c, 1, 57, 127
2, 7520, Note_off_c, 1, 69, 0
2, 7520, Note_on_c, 1, 74, 127
2, 7520, Note_on_c, 1, 82, 127
2, 7520, Note_on_c, 1, 86, 127
2, 7520, Note_off_c, 1, 93, 0
2, 7520, Note_off_c, 1, 96, 0
2, 7560, Note_on_c, 1, 44, 127
2, 7560, Note_off_c, 1, 48, 0
2, 7560, Note_on_c, 1, 55, 127
2, 7560, Note_off_c, 1, 57, 0
2, 7560, Note_on_c, 1, 61, 127
2, 7560, Note_on_c, 1, 67, 127
2, 7560, Note_on_c, 1, 70, 127
2, 7560, Note_on_c, 1, 73, 127
2, 7560, Note_off_c, 1, 74, 0
2, 7560, Note_off_c, 1, 82, 0
2, 7560, Note_off_c, 1, 86, 0
2, 7600, Note_off_c, 1, 44, 0
2, 7600, Note_off_c, 1, 55, 0
2, 7600, Note_off_c, 1, 61, 0
2, 7600, Note_off_c, 1, 67, 0
2, 7600, Note_on_c, 1, 69, 127
2, 7600, Note_off_c, 1, 70, 0
2, 7600, Note_off_c, 1, 73, 0
2, 7600, Note_on_c, 1, 93, 127
2, 7600, Note_on_c, 1, 96, 127
2, 7640, Note_on_c, 1, 59, 127
2, 7640, Note_on_c, 1, 62, 127
2, 7640, Note_on_c, 1, 65, 127
2, 7640, Note_on_c, 1, 68, 127
2, 7640, Note_off_c, 1, 69, 0
2, 7640, Note_on_c, 1, 82, 127
2, 7640, Note_on_c, 1, 83, 127
2, 7640, Note_off_c, 1, 93, 0
2, 7640, Note_off_c, 1, 96, 0
2, 7680, Note_on_c, 1, 38, 127
2, 7680, Note_on_c, 1, 41, 127
2, 7680, Note_on_c, 1, 46, 127
2, 7680, Note_on_c, 1, 50, 127
2, 7680, Note_off_c, 1, 59, 0
2, 7680, Note_off_c, 1, 62, 0
2, 7680, Note_off_c, 1, 68, 0
2, 7680, Note_off_c, 1, 82, 0
2, 7680, Note_off_c, 1, 83, 0
2, 7720, Note_off_c, 1, 38, 0
2, 7720, Note_off_c, 1, 41, 0
2, 7720, Note_on_c, 1, 42, 127
2, 7720, Note_off_c, 1, 46, 0
2, 7720, Note_off_c, 1, 50, 0
2, 7720, Note_on_c, 1, 54, 127
2, 7720, Note_on_c, 1, 56, 127
2, 7720, Note_on_c, 1, 61, 127
2, 7720, Note_on_c, 1, 64, 127
2, 7720, Note_off_c, 1, 65, 0
2, 7760, Note_off_c, 1, 42, 0
2, 7760, Note_off_c, 1, 54, 0
2, 7760, Note_off_c, 1, 56, 0
2, 7760, Note_off_c, 1, 61, 0
2, 7760, Note_off_c, 1, 64, 0
2, 7760, Note_on_c, 1, 67, 127
2, 7760, Note_on_c, 1, 70, 127
2, 7760, Note_on_c, 1, 75, 127
2, 7760, Note_on_c, 1, 79, 127
2, 7760, Note_on_c, 1, 94, 127
2, 7800, Note_on_c, 1, 36, 127
2, 7800, Note_on_c, 1, 48, 127
2, 7800, Note_off_c, 1, 67, 0
2, 7800, Note_off_c, 1, 70, 0
2, 7800, Note_off_c, 1, 75, 0
2, 7800, Note_off_c, 1, 79, 0
2, 7800, Note_on_c, 1, 84, 127
2, 7800, Note_on_c, 1, 89, 127
2, 7800, Note_on_c, 1, 92, 127
2, 7800, Note_off_c, 1, 94, 0
2, 7800, Note_on_c, 1, 96, 127
2, 7840, Note_on_c, 1, 31, 127
2, 7840, Note_off_c, 1, 36, 0
2, 7840, Note_off_c, 1, 48, 0
2, 7840, Note_on_c, 1, 50, 127
2, 7840, Note_on_c, 1, 55, 127
2, 7840, Note_on_c, 1, 58, 127
2, 7840, Note_off_c, 1, 84, 0
2, 7840, Note_off_c, 1, 89, 0
2, 7840, Note_off_c, 1, 92, 0
2, 7840, Note_off_c, 1, 96, 0
2, 7880, Note_off_c, 1, 31, 0
2, 7880, Note_off_c, 1, 50, 0
2, 7880, Note_off_c, 1, 55, 0
2, 7880, Note_off_c, 1, 58, 0
2, 7880, Note_on_c, 1, 62, 127
2, 7880, Note_on_c, 1, 79, 127
2, 7880, Note_on_c, 1, 86, 127
2, 7880, Note_on_c, 1, 88, 127
2, 7920, Note_on_c, 1, 41, 127
2, 7920, Note_off_c, 1, 62, 0
2, 7920, Note_on_c, 1, 72, 127
2, 7920, Note_on_c, 1, 76, 127
2, 7920, Note_off_c, 1, 79, 0
2, 7920, Note_off_c, 1, 86, 0
2, 7920, Note_off_c, 1, 88, 0
2, 7960, Note_off_c, 1, 41, 0
2, 7960, Note_off_c, 1, 72, 0
2, 7960, Note_off_c, 1, 76, 0
2, 7960, Note_on_c, 1, 77, 127
2, 7960, Note_on_c, 1, 84, 127
2, 7960, Note_on_c, 1, 89, 127
2, 7960, Note_on_c, 1, 93, 127
2, 8080, Note_off_c, 1, 77, 0
2, 8080, Note_off_c, 1, 84, 0
2, 8080, Note_off_c, 1, 89, 0
2, 8080, Note_off_c, 1, 93, 0
2, 8120, Note_on_c, 1, 77, 127
2, 8120, Note_on_c, 1, 84, 127
2, 8120, Note_on_c, 1, 89, 127
2, 8120, Note_on_c, 1, 93, 127
2, 8160, Note_off_c, 1, 77, 0
2, 8160, Note_off_c, 1, 84, 0
2, 8200, Note_on_c, 1, 77, 127
2, 8200, Note_on_c, 1, 84, 127
2, 8840, Note_off_c, 1, 77, 0
2, 8840, Note_off_c, 1, 84, 0
2, 9040, Note_off_c, 1, 89, 0
2, 9040, Note_on_c, 1, 91, 127
2, 9040, Note_off_c, 1, 93, 0
2, 9040, Note_on_c, 1, 95, 127
2, 9080, Note_on_c, 1, 64, 127
2, 9080, Note_on_c, 1, 67, 127
2, 9080, Note_on_c, 1, 71, 127
2, 9080, Note_off_c, 1, 95, 0
2, 9480, Note_on_c, 1, 60, 127
2, 9480, Note_on_c, 1, 62, 127
2, 9480, Note_off_c, 1, 64, 0
2, 9480, Note_off_c, 1, 67, 0
2, 9480, Note_off_c, 1, 71, 0
2, 9480, Note_off_c, 1, 91, 0
2, 9520, Note_on_c, 1, 58, 127
2, 9520, Note_off_c, 1, 60, 0
2, 9520, Note_off_c, 1, 62, 0
2, 9520, Note_on_c, 1, 67, 127
2, 9520, Note_on_c, 1, 70, 127
2, 9520, Note_on_c, 1, 76, 127
2, 9520, Note_on_c, 1, 85, 127
2, 9880, Note_on_c, 1, 55, 127
2, 9880, Note_off_c, 1, 58, 0
2, 9880, Note_on_c, 1, 65, 127
2, 9880, Note_off_c, 1, 70, 0
2, 9880, Note_off_c, 1, 76, 0
2, 9880, Note_off_c, 1, 85, 0
2, 9920, Note_on_c, 1, 45, 127
2, 9920, Note_on_c, 1, 53, 127
2, 9920, Note_off_c, 1, 55, 0
2, 9920, Note_off_c, 1, 65, 0
2, 9920, Note_on_c, 1, 72, 127
2, 9960, Note_off_c, 1, 45, 0
2, 9960, Note_on_c, 1, 46, 127
2, 9960, Note_on_c, 1, 58, 127
2, 9960, Note_on_c, 1, 62, 127
2, 9960, Note_on_c, 1, 65, 127
2, 9960, Note_off_c, 1, 67, 0
2, 9960, Note_off_c, 1, 72, 0
2, 9960, Note_on_c, 1, 77, 127
2, 9960, Note_on_c, 1, 89, 127
2, 10000, Note_off_c, 1, 46, 0
2, 10000, Note_off_c, 1, 53, 0
2, 10000, Note_off_c, 1, 58, 0
2, 10000, Note_off_c, 1, 62, 0
2, 10000, Note_off_c, 1, 65, 0
2, 10000, Note_off_c, 1, 77, 0
2, 10000, Note_off_c, 1, 89, 0
2, 10040, Note_on_c, 1, 41, 127
2, 10040, Note_on_c, 1, 49, 127
2, 10040, Note_on_c, 1, 56, 127
2, 10040, Note_on_c, 1, 61, 127
2, 10040, Note_on_c, 1, 65, 127
2, 10080, Note_on_c, 1, 40, 127
2, 10080, Note_off_c, 1, 41, 0
2, 10080, Note_off_c, 1, 56, 0
2, 10080, Note_on_c, 1, 64, 127
2, 10080, Note_off_c, 1, 65, 0
2, 10080, Note_on_c, 1, 67, 127
2, 10120, Note_on_c, 1, 38, 127
2, 10120, Note_off_c, 1, 40, 0
2, 10120, Note_off_c, 1, 49, 0
2, 10120, Note_off_c, 1, 61, 0
2, 10120, Note_off_c, 1, 64, 0
2, 10120, Note_off_c, 1, 67, 0
2, 10120, Note_on_c, 1, 77, 127
2, 10120, Note_on_c, 1, 83, 127
2, 10120, Note_on_c, 1, 86, 127
2, 10120, Note_on_c, 1, 89, 127
2, 10160, Note_off_c, 1, 38, 0
2, 10160, Note_on_c, 1, 50, 127
2, 10160, Note_on_c, 1, 53, 127
2, 10160, Note_on_c, 1, 56, 127
2, 10160, Note_on_c, 1, 65, 127
2, 10160, Note_on_c, 1, 69, 127
2, 10160, Note_off_c, 1, 83, 0
2, 10160, Note_off_c, 1, 86, 0
2, 10160, Note_off_c, 1, 89, 0
2, 10200, Note_off_c, 1, 50, 0
2, 10200, Note_off_c, 1, 53, 0
2, 10200, Note_on_c, 1, 55, 127
2, 10200, Note_off_c, 1, 56, 0
2, 10200, Note_on_c, 1, 60, 127
2, 10200, Note_off_c, 1, 65, 0
2, 10200, Note_on_c, 1, 67, 127
2, 10200, Note_off_c, 1, 69, 0
2, 10200, Note_on_c, 1, 72, 127
2, 10200, Note_on_c, 1, 75, 127
2, 10200, Note_off_c, 1, 77, 0
2, 10240, Note_on_c, 1, 36, 127
2, 10240, Note_on_c, 1, 48, 127
2, 10240, Note_off_c, 1, 55, 0
2, 10240, Note_off_c, 1, 60, 0
2, 10240, Note_off_c, 1, 67, 0
2, 10240, Note_on_c, 1, 68, 127
2, 10240, Note_off_c, 1, 75, 0
2, 10240, Note_on_c, 1, 76, 127
2, 10240, Note_on_c, 1, 80, 127
2, 10280, Note_off_c, 1, 36, 0
2, 10280, Note_off_c, 1, 48, 0
2, 10280, Note_on_c, 1, 53, 127
2, 10280, Note_on_c, 1, 65, 127
2, 10280, Note_off_c, 1, 68, 0
2, 10280, Note_off_c, 1, 72, 0
2, 10280, Note_off_c, 1, 76, 0
2, 10280, Note_off_c, 1, 80, 0
2, 10320, Note_off_c, 1, 53, 0
2, 10320, Note_on_c, 1, 59, 127
2, 10320, Note_on_c, 1, 62, 127
2, 10320, Note_on_c, 1, 68, 127
2, 10320, Note_on_c, 1, 104, 127
2, 10360, Note_off_c, 1, 59, 0
2, 10360, Note_off_c, 1, 68, 0
2, 10360, Note_on_c, 1, 70, 127
2, 10360, Note_on_c, 1, 74, 127
2, 10360, Note_on_c, 1, 86, 127
2, 10360, Note_on_c, 1, 89, 127
2, 10360, Note_on_c, 1, 94, 127
2, 10360, Note_on_c, 1, 98, 127
2, 10360, Note_off_c, 1, 104, 0
2, 10400, Note_on_c, 1, 57, 127
2, 10400, Note_off_c, 1, 62, 0
2, 10400, Note_off_c, 1, 65, 0
2, 10400, Note_off_c, 1, 70, 0
2, 10400, Note_off_c, 1, 74, 0
2, 10400, Note_on_c, 1, 81, 127
2, 10400, Note_on_c, 1, 85, 127
2, 10400, Note_off_c, 1, 86, 0
2, 10400, Note_on_c, 1, 88, 127
2, 10400, Note_off_c, 1, 89, 0
2, 10400, Note_on_c, 1, 91, 127
2, 10400, Note_on_c, 1, 93, 127
2, 10400, Note_off_c, 1, 94, 0
2, 10400, Note_off_c, 1, 98, 0
2, 10440, Note_on_c, 1, 43, 127
2, 10440, Note_on_c, 1, 51, 127
2, 10440, Note_on_c, 1, 53, 127
2, 10440, Note_on_c, 1, 60, 127
2, 10440, Note_on_c, 1, 65, 127
2, 10440, Note_off_c, 1, 81, 0
2, 10440, Note_off_c, 1, 85, 0
2, 10440, Note_off_c, 1, 88, 0
2, 10440, Note_off_c, 1, 91, 0
2, 10440, Note_off_c, 1, 93, 0
2, 10480, Note_off_c, 1, 43, 0
2, 10480, Note_on_c, 1, 48, 127
2, 10480, Note_off_c, 1, 51, 0
2, 10480, Note_off_c, 1, 53, 0
2, 10480, Note_off_c, 1, 57, 0
2, 10480, Note_off_c, 1, 60, 0
2, 10480, Note_off_c, 1, 65, 0
2, 10480, Note_on_c, 1, 85, 127
2, 10480, Note_on_c, 1, 92, 127
2, 10520, Note_on_c, 1, 41, 127
2, 10520, Note_on_c, 1, 44, 127
2, 10520, Note_on_c, 1, 47, 127
2, 10520, Note_off_c, 1, 48, 0
2, 10520, Note_on_c, 1, 59, 127
2, 10520, Note_on_c, 1, 68, 127
2, 10520, Note_on_c, 1, 70, 127
2, 10520, Note_off_c, 1, 85, 0
2, 10520, Note_off_c, 1, 92, 0
2, 10560, Note_off_c, 1, 41, 0
2, 10560, Note_off_c, 1, 44, 0
2, 10560, Note_off_c, 1, 47, 0
2, 10560, Note_on_c, 1, 57, 127
2, 10560, Note_off_c, 1, 59, 0
2, 10560, Note_on_c, 1, 66, 127
2, 10560, Note_off_c, 1, 68, 0
2, 10560, Note_off_c, 1, 70, 0
2, 10560, Note_on_c, 1, 72, 127
2, 10560, Note_on_c, 1, 75, 127
2, 10560, Note_on_c, 1, 78, 127
2, 10600, Note_on_c, 1, 41, 127
2, 10600, Note_on_c, 1, 53, 127
2, 10600, Note_off_c, 1, 57, 0
2, 10600, Note_on_c, 1, 60, 127
2, 10600, Note_off_c, 1, 66, 0
2, 10600, Note_on_c, 1, 70, 127
2, 10600, Note_off_c, 1, 75, 0
2, 10600, Note_off_c, 1, 78, 0
2, 10640, Note_on_c, 1, 34, 127
2, 10640, Note_on_c, 1, 38, 127
2, 10640, Note_off_c, 1, 41, 0
2, 10640, Note_on_c, 1, 45, 127
2, 10640, Note_off_c, 1, 53, 0
2, 10640, Note_on_c, 1, 57, 127
2, 10640, Note_on_c, 1, 58, 127
2, 10640, Note_off_c, 1, 60, 0
2, 10640, Note_off_c, 1, 70, 0
2, 10640, Note_off_c, 1, 72, 0
2, 10680, Note_off_c, 1, 34, 0
2, 10680, Note_off_c, 1, 38, 0
2, 10680, Note_off_c, 1, 45, 0
2, 10680, Note_off_c, 1, 57, 0
2, 10680, Note_off_c, 1, 58, 0
2, 10720, Note_on_c, 1, 38, 127
2, 10720, Note_on_c, 1, 48, 127
2, 10720, Note_on_c, 1, 57, 127
2, 10720, Note_on_c, 1, 69, 127
2, 10760, Note_off_c, 1, 38, 0
2, 10760, Note_on_c, 1, 43, 127
2, 10760, Note_on_c, 1, 45, 127
2, 10760, Note_off_c, 1, 48, 0
2, 10760, Note_on_c, 1, 50, 127
2, 10760, Note_on_c, 1, 54, 127
2, 10760, Note_off_c, 1, 57, 0
2, 10760, Note_off_c, 1, 69, 0
2, 10760, Note_on_c, 1, 81, 127
2, 10800, Note_off_c, 1, 43, 0
2, 10800, Note_off_c, 1, 45, 0
2, 10800, Note_on_c, 1, 46, 127
2, 10800, Note_off_c, 1, 50, 0
2, 10800, Note_on_c, 1, 52, 127
2, 10800, Note_off_c, 1, 54, 0
2, 10800, Note_on_c, 1, 56, 127
2, 10800, Note_off_c, 1, 81, 0
2, 10840, Note_on_c, 1, 38, 127
2, 10840, Note_off_c, 1, 46, 0
2, 10840, Note_on_c, 1, 50, 127
2, 10840, Note_off_c, 1, 52, 0
2, 10840, Note_off_c, 1, 56, 0
2, 10840, Note_on_c, 1, 78, 127
2, 10840, Note_on_c, 1, 81, 127
2, 10840, Note_on_c, 1, 85, 127
2, 10840, Note_on_c, 1, 90, 127
2, 10880, Note_off_c, 1, 38, 0
2, 10880, Note_on_c, 1, 45, 127
2, 10880, Note_off_c, 1, 50, 0
2, 10880, Note_on_c, 1, 53, 127
2, 10880, Note_on_c, 1, 64, 127
2, 10880, Note_on_c, 1, 76, 127
2, 10880, Note_off_c, 1, 78, 0
2, 10880, Note_off_c, 1, 81, 0
2, 10880, Note_off_c, 1, 85, 0
2, 10880, Note_off_c, 1, 90, 0
2, 10920, Note_on_c, 1, 40, 127
2, 10920, Note_off_c, 1, 45, 0
2, 10920, Note_off_c, 1, 53, 0
2, 10920, Note_on_c, 1, 55, 127
2, 10920, Note_off_c, 1, 64, 0
2, 10920, Note_on_c, 1, 67, 127
2, 10920, Note_on_c, 1, 74, 127
2, 10920, Note_off_c, 1, 76, 0
2, 10960, Note_off_c, 1, 40, 0
2, 10960, Note_on_c, 1, 44, 127
2, 10960, Note_on_c, 1, 52, 127
2, 10960, Note_off_c, 1, 55, 0
2, 10960, Note_on_c, 1, 56, 127
2, 10960, Note_off_c, 1, 67, 0
2, 10960, Note_off_c, 1, 74, 0
2, 10960, Note_on_c, 1, 78, 127
2, 11000, Note_off_c, 1, 44, 0
2, 11000, Note_off_c, 1, 52, 0
2, 11000, Note_on_c, 1, 55, 127
2, 11000, Note_off_c, 1, 56, 0
2, 11000, Note_on_c, 1, 65, 127
2, 11000, Note_on_c, 1, 67, 127
2, 11000, Note_on_c, 1, 73, 127
2, 11000, Note_on_c, 1, 77, 127
2, 11000, Note_off_c, 1, 78, 0
2, 11040, Note_off_c, 1, 55, 0
2, 11040, Note_off_c, 1, 65, 0
2, 11040, Note_off_c, 1, 67, 0
2, 11040, Note_off_c, 1, 73, 0
2, 11040, Note_off_c, 1, 77, 0
2, 11080, Note_on_c, 1, 45, 127
2, 11080, Note_on_c, 1, 52, 127
2, 11080, Note_on_c, 1, 73, 127
2, 11080, Note_on_c, 1, 81, 127
2, 11840, Note_off_c, 1, 45, 0
2, 11840, Note_off_c, 1, 52, 0
2, 11840, Note_off_c, 1, 73, 0
2, 11840, Note_off_c, 1, 81, 0
2, 12800, Note_on_c, 1, 51, 127
2, 12800, Note_on_c, 1, 57, 127
2, 12800, Note_on_c, 1, 60, 127
2, 12800, Note_on_c, 1, 65, 127
2, 13560, Note_off_c, 1, 51, 0
2, 13560, Note_off_c, 1, 57, 0
2, 13560, Note_off_c, 1, 60, 0
2, 13560, Note_off_c, 1, 65, 0
2, 13600, Note_on_c, 1, 54, 127
2, 13600, Note_on_c, 1, 56, 127
2, 13600, Note_on_c, 1, 60, 127
2, 13600, Note_on_c, 1, 63, 127
2, 13600, Note_on_c, 1, 68, 127
2, 13600, Note_on_c, 1, 75, 127
2, 13960, Note_off_c, 1, 54, 0
2, 13960, Note_off_c, 1, 56, 0
2, 13960, Note_off_c, 1, 60, 0
2, 13960, Note_off_c, 1, 63, 0
2, 13960, Note_off_c, 1, 68, 0
2, 13960, Note_off_c, 1, 75, 0
2, 14000, Note_on_c, 1, 46, 127
2, 14000, Note_on_c, 1, 53, 127
2, 14000, Note_on_c, 1, 58, 127
2, 14000, Note_on_c, 1, 70, 127
2, 14320, Note_off_c, 1, 46, 0
2, 14320, Note_off_c, 1, 53, 0
2, 14320, Note_off_c, 1, 58, 0
2, 14320, Note_off_c, 1, 70, 0
2, 14360, Note_on_c, 1, 46, 127
2, 14360, Note_on_c, 1, 53, 127
2, 14360, Note_on_c, 1, 62, 127
2, 14360, Note_on_c, 1, 70, 127
2, 14760, Note_off_c, 1, 46, 0
2, 14760, Note_off_c, 1, 53, 0
2, 14760, Note_off_c, 1, 62, 0
2, 14760, Note_off_c, 1, 70, 0
2, 14800, Note_on_c, 1, 46, 127
2, 14800, Note_on_c, 1, 53, 127
2, 14800, Note_on_c, 1, 62, 127
2, 14800, Note_on_c, 1, 70, 127
2, 15120, Note_off_c, 1, 46, 0
2, 15120, Note_off_c, 1, 53, 0
2, 15120, Note_off_c, 1, 62, 0
2, 15120, Note_off_c, 1, 70, 0
2, 15160, Note_on_c, 1, 44, 127
2, 15160, Note_on_c, 1, 51, 127
2, 15160, Note_on_c, 1, 59, 127
2, 15160, Note_on_c, 1, 63, 127
2, 15640, Note_on_c, 1, 68, 127
2, 15680, Note_off_c, 1, 68, 0
2, 15760, Note_off_c, 1, 63, 0
2, 15760, Note_on_c, 1, 75, 127
2, 15880, Note_off_c, 1, 75, 0
2, 15920, Note_on_c, 1, 71, 127
2, 16240, Note_off_c, 1, 71, 0
2, 16280, Note_on_c, 1, 37, 127
2, 16280, Note_off_c, 1, 44, 0
2, 16280, Note_on_c, 1, 49, 127
2, 16280, Note_off_c, 1, 51, 0
2, 16280, Note_on_c, 1, 65, 127
2, 16280, Note_on_c, 1, 73, 127
2, 16640, Note_off_c, 1, 37, 0
2, 16640, Note_off_c, 1, 49, 0
2, 16640, Note_on_c, 1, 54, 127
2, 16640, Note_off_c, 1, 59, 0
2, 16640, Note_off_c, 1, 65, 0
2, 16640, Note_off_c, 1, 73, 0
2, 16680, Note_on_c, 1, 52, 127
2, 16680, Note_off_c, 1, 54, 0
2, 16680, Note_on_c, 1, 56, 127
2, 16680, Note_on_c, 1, 58, 127
2, 16720, Note_off_c, 1, 52, 0
2, 16760, Note_on_c, 1, 52, 127
2, 16840, Note_off_c, 1, 52, 0
2, 16880, Note_on_c, 1, 52, 127
2, 16920, Note_off_c, 1, 52, 0
2, 16960, Note_off_c, 1, 56, 0
2, 16960, Note_off_c, 1, 58, 0
2, 17000, Note_on_c, 1, 52, 127
2, 17000, Note_on_c, 1, 56, 127
2, 17000, Note_on_c, 1, 58, 127
2, 17040, Note_off_c, 1, 52, 0
2, 17080, Note_off_c, 1, 58, 0
2, 17080, Note_on_c, 1, 63, 127
2, 17080, Note_on_c, 1, 80, 127
2, 17080, Note_on_c, 1, 84, 127
2, 17440, Note_off_c, 1, 56, 0
2, 17440, Note_off_c, 1, 63, 0
2, 17440, Note_off_c, 1, 80, 0
2, 17440, Note_off_c, 1, 84, 0
2, 17480, Note_on_c, 1, 52, 127
2, 17480, Note_on_c, 1, 64, 127
2, 17480, Note_on_c, 1, 66, 127
2, 17480, Note_on_c, 1, 68, 127
2, 17520, Note_on_c, 1, 51, 127
2, 17520, Note_off_c, 1, 52, 0
2, 17520, Note_on_c, 1, 60, 127
2, 17520, Note_on_c, 1, 63, 127
2, 17520, Note_off_c, 1, 64, 0
2, 17520, Note_on_c, 1, 65, 127
2, 17520, Note_off_c, 1, 66, 0
2, 17520, Note_on_c, 1, 72, 127
2, 17520, Note_on_c, 1, 77, 127
2, 17680, Note_off_c, 1, 51, 0
2, 17680, Note_on_c, 1, 59, 127
2, 17680, Note_off_c, 1, 60, 0
2, 17680, Note_off_c, 1, 65, 0
2, 17680, Note_off_c, 1, 72, 0
2, 17680, Note_off_c, 1, 77, 0
2, 17680, Note_on_c, 1, 79, 127
2, 17720, Note_on_c, 1, 51, 127
2, 17720, Note_off_c, 1, 59, 0
2, 17720, Note_on_c, 1, 60, 127
2, 17720, Note_on_c, 1, 65, 127
2, 17720, Note_on_c, 1, 72, 127
2, 17720, Note_on_c, 1, 77, 127
2, 17720, Note_off_c, 1, 79, 0
2, 17800, Note_off_c, 1, 65, 0
2, 17840, Note_off_c, 1, 60, 0
2, 17840, Note_on_c, 1, 67, 127
2, 17840, Note_off_c, 1, 68, 0
2, 17840, Note_off_c, 1, 72, 0
2, 17840, Note_off_c, 1, 77, 0
2, 17840, Note_on_c, 1, 79, 127
2, 17840, Note_on_c, 1, 82, 127
2, 18200, Note_off_c, 1, 51, 0
2, 18200, Note_off_c, 1, 63, 0
2, 18200, Note_off_c, 1, 67, 0
2, 18200, Note_off_c, 1, 79, 0
2, 18200, Note_off_c, 1, 82, 0
2, 18240, Note_on_c, 1, 35, 127
2, 18240, Note_on_c, 1, 47, 127
2, 18240, Note_on_c, 1, 56, 127
2, 18600, Note_off_c, 1, 56, 0
2, 18640, Note_on_c, 1, 58, 127
2, 18760, Note_off_c, 1, 58, 0
2, 18760, Note_on_c, 1, 59, 127
2, 18840, Note_off_c, 1, 59, 0
2, 18880, Note_on_c, 1, 51, 127
2, 19000, Note_off_c, 1, 51, 0
2, 19040, Note_off_c, 1, 35, 0
2, 19040, Note_off_c, 1, 47, 0
2, 19080, Note_on_c, 1, 35, 127
2, 19080, Note_on_c, 1, 47, 127
2, 19080, Note_on_c, 1, 69, 127
2, 19080, Note_on_c, 1, 78, 127
2, 19120, Note_on_c, 1, 54, 127
2, 19120, Note_on_c, 1, 57, 127
2, 19120, Note_on_c, 1, 63, 127
2, 19120, Note_off_c, 1, 69, 0
2, 19120, Note_off_c, 1, 78, 0
2, 19400, Note_on_c, 1, 30, 127
2, 19400, Note_on_c, 1, 37, 127
2, 19400, Note_off_c, 1, 47, 0
2, 19400, Note_off_c, 1, 54, 0
2, 19400, Note_off_c, 1, 57, 0
2, 19400, Note_off_c, 1, 63, 0
2, 19400, Note_on_c, 1, 72, 127
2, 19440, Note_off_c, 1, 30, 0
2, 19440, Note_off_c, 1, 37, 0
2, 19440, Note_on_c, 1, 47, 127
2, 19440, Note_off_c, 1, 72, 0
2, 19480, Note_on_c, 1, 33, 127
2, 19480, Note_off_c, 1, 35, 0
2, 19480, Note_on_c, 1, 45, 127
2, 19480, Note_off_c, 1, 47, 0
2, 19480, Note_on_c, 1, 49, 127
2, 19480, Note_on_c, 1, 55, 127
2, 19840, Note_off_c, 1, 33, 0
2, 19840, Note_on_c, 1, 36, 127
2, 19840, Note_off_c, 1, 45, 0
2, 19840, Note_on_c, 1, 48, 127
2, 19840, Note_off_c, 1, 49, 0
2, 19840, Note_off_c, 1, 55, 0
2, 19880, Note_on_c, 1, 63, 127
2, 19880, Note_on_c, 1, 65, 127
2, 20200, Note_off_c, 1, 36, 0
2, 20200, Note_off_c, 1, 48, 0
2, 20240, Note_on_c, 1, 34, 127
2, 20240, Note_on_c, 1, 46, 127
2, 20240, Note_off_c, 1, 63, 0
2, 20240, Note_off_c, 1, 65, 0
2, 20240, Note_on_c, 1, 66, 127
2, 20480, Note_on_c, 1, 54, 127
2, 20640, Note_off_c, 1, 54, 0
2, 20680, Note_on_c, 1, 54, 127
2, 20840, Note_off_c, 1, 54, 0
2, 20880, Note_off_c, 1, 34, 0
2, 20880, Note_off_c, 1, 46, 0
2, 20880, Note_off_c, 1, 66, 0
2, 20920, Note_on_c, 1, 34, 127
2, 20920, Note_on_c, 1, 46, 127
2, 20920, Note_on_c, 1, 54, 127
2, 20920, Note_on_c, 1, 66, 127
2, 21040, Note_off_c, 1, 34, 0
2, 21040, Note_off_c, 1, 46, 0
2, 21040, Note_off_c, 1, 54, 0
2, 21040, Note_off_c, 1, 66, 0
2, 21080, Note_on_c, 1, 36, 127
2, 21080, Note_on_c, 1, 48, 127
2, 21080, Note_on_c, 1, 67, 127
2, 21080, Note_on_c, 1, 71, 127
2, 22160, Note_off_c, 1, 36, 0
2, 22160, Note_off_c, 1, 48, 0
2, 22160, Note_off_c, 1, 67, 0
2, 22160, Note_off_c, 1, 71, 0
2, 22240, Note_on_c, 1, 35, 127
2, 22240, Note_on_c, 1, 47, 127
2, 22240, Note_on_c, 1, 56, 127
2, 22240, Note_on_c, 1, 68, 127
2, 22600, Note_off_c, 1, 56, 0
2, 22640, Note_on_c, 1, 63, 127
2, 22880, Note_off_c, 1, 35, 0
2, 22880, Note_off_c, 1, 47, 0
2, 22880, Note_off_c, 1, 63, 0
2, 22880, Note_off_c, 1, 68, 0
2, 22920, Note_on_c, 1, 35, 127
2, 22920, Note_on_c, 1, 47, 127
2, 22920, Note_on_c, 1, 63, 127
2, 22920, Note_on_c, 1, 68, 127
2, 23480, Note_on_c, 1, 59, 127
2, 23480, Note_off_c, 1, 68, 0
2, 23800, Note_on_c, 1, 66, 127
2, 23840, Note_off_c, 1, 35, 0
2, 23840, Note_off_c, 1, 47, 0
2, 23840, Note_off_c, 1, 66, 0
2, 23840, Note_on_c, 1, 78, 127
2, 23880, Note_on_c, 1, 49, 127
2, 23880, Note_off_c, 1, 59, 0
2, 23880, Note_off_c, 1, 63, 0
2, 23880, Note_on_c, 1, 76, 127
2, 23880, Note_off_c, 1, 78, 0
2, 23880, Note_on_c, 1, 85, 127
2, 23880, Note_on_c, 1, 88, 127
2, 23920, Note_off_c, 1, 49, 0
2, 23920, Note_on_c, 1, 52, 127
2, 23920, Note_on_c, 1, 55, 127
2, 23920, Note_on_c, 1, 64, 127
2, 23920, Note_off_c, 1, 76, 0
2, 23920, Note_on_c, 1, 82, 127
2, 23920, Note_off_c, 1, 85, 0
2, 23920, Note_on_c, 1, 87, 127
2, 23920, Note_off_c, 1, 88, 0
2, 23960, Note_off_c, 1, 52, 0
2, 23960, Note_on_c, 1, 54, 127
2, 23960, Note_off_c, 1, 55, 0
2, 23960, Note_off_c, 1, 64, 0
2, 23960, Note_on_c, 1, 76, 127
2, 23960, Note_on_c, 1, 80, 127
2, 23960, Note_off_c, 1, 82, 0
2, 23960, Note_on_c, 1, 86, 127
2, 23960, Note_off_c, 1, 87, 0
2, 23960, Note_on_c, 1, 88, 127
2, 24000, Note_off_c, 1, 54, 0
2, 24000, Note_on_c, 1, 56, 127
2, 24000, Note_off_c, 1, 76, 0
2, 24000, Note_on_c, 1, 85, 127
2, 24000, Note_off_c, 1, 86, 0
2, 24000, Note_off_c, 1, 88, 0
2, 24000, Note_on_c, 1, 92, 127
2, 24040, Note_on_c, 1, 40, 127
2, 24040, Note_on_c, 1, 52, 127
2, 24040, Note_off_c, 1, 56, 0
2, 24040, Note_on_c, 1, 71, 127
2, 24040, Note_on_c, 1, 74, 127
2, 24040, Note_off_c, 1, 80, 0
2, 24040, Note_off_c, 1, 85, 0
2, 24040, Note_off_c, 1, 92, 0
2, 24080, Note_on_c, 1, 33, 127
2, 24080, Note_off_c, 1, 40, 0
2, 24080, Note_on_c, 1, 45, 127
2, 24080, Note_off_c, 1, 52, 0
2, 24080, Note_on_c, 1, 64, 127
2, 24080, Note_on_c, 1, 66, 127
2, 24080, Note_on_c, 1, 69, 127
2, 24080, Note_off_c, 1, 71, 0
2, 24080, Note_on_c, 1, 73, 127
2, 24080, Note_off_c, 1, 74, 0
2, 24440, Note_off_c, 1, 33, 0
2, 24440, Note_off_c, 1, 45, 0
2, 24440, Note_on_c, 1, 47, 127
2, 24440, Note_on_c, 1, 52, 127
2, 24440, Note_on_c, 1, 56, 127
2, 24440, Note_on_c, 1, 59, 127
2, 24440, Note_off_c, 1, 64, 0
2, 24440, Note_off_c, 1, 66, 0
2, 24440, Note_off_c, 1, 69, 0
2, 24440, Note_off_c, 1, 73, 0
2, 24480, Note_off_c, 1, 47, 0
2, 24480, Note_off_c, 1, 52, 0
2, 24480, Note_on_c, 1, 54, 127
2, 24480, Note_off_c, 1, 56, 0
2, 24480, Note_off_c, 1, 59, 0
2, 24480, Note_on_c, 1, 61, 127
2, 24480, Note_on_c, 1, 64, 127
2, 24480, Note_on_c, 1, 70, 127
2, 24480, Note_on_c, 1, 76, 127
2, 24600, Note_off_c, 1, 54, 0
2, 24600, Note_off_c, 1, 61, 0
2, 24600, Note_off_c, 1, 64, 0
2, 24600, Note_off_c, 1, 70, 0
2, 24600, Note_off_c, 1, 76, 0
2, 24640, Note_on_c, 1, 57, 127
2, 24640, Note_on_c, 1, 60, 127
2, 24640, Note_on_c, 1, 66, 127
2, 24640, Note_on_c, 1, 77, 127
2, 24640, Note_on_c, 1, 84, 127
2, 24640, Note_on_c, 1, 87, 127
2, 24640, Note_on_c, 1, 89, 127
2, 24680, Note_off_c, 1, 77, 0
2, 24680, Note_off_c, 1, 84, 0
2, 24680, Note_off_c, 1, 87, 0
2, 24680, Note_off_c, 1, 89, 0
2, 24720, Note_on_c, 1, 75, 127
2, 24720, Note_on_c, 1, 87, 127
2, 24800, Note_off_c, 1, 75, 0
2, 24800, Note_off_c, 1, 87, 0
2, 24840, Note_on_c, 1, 75, 127
2, 24840, Note_on_c, 1, 87, 127
2, 24880, Note_off_c, 1, 75, 0
2, 24880, Note_off_c, 1, 87, 0
2, 24920, Note_on_c, 1, 75, 127
2, 24920, Note_on_c, 1, 87, 127
2, 25000, Note_off_c, 1, 57, 0
2, 25000, Note_off_c, 1, 60, 0
2, 25000, Note_off_c, 1, 66, 0
2, 25000, Note_off_c, 1, 75, 0
2, 25000, Note_off_c, 1, 87, 0
2, 25040, Note_on_c, 1, 57, 127
2, 25040, Note_on_c, 1, 60, 127
2, 25040, Note_on_c, 1, 66, 127
2, 25080, Note_on_c, 1, 75, 127
2, 25080, Note_on_c, 1, 87, 127
2, 25120, Note_off_c, 1, 75, 0
2, 25120, Note_off_c, 1, 87, 0
2, 25160, Note_on_c, 1, 75, 127
2, 25160, Note_on_c, 1, 87, 127
2, 25200, Note_off_c, 1, 75, 0
2, 25200, Note_off_c, 1, 87, 0
2, 25240, Note_on_c, 1, 75, 127
2, 25240, Note_on_c, 1, 87, 127
2, 25320, Note_off_c, 1, 75, 0
2, 25320, Note_off_c, 1, 87, 0
2, 25360, Note_on_c, 1, 48, 127
2, 25360, Note_on_c, 1, 56, 127
2, 25360, Note_off_c, 1, 57, 0
2, 25360, Note_off_c, 1, 60, 0
2, 25360, Note_on_c, 1, 64, 127
2, 25360, Note_off_c, 1, 66, 0
2, 25360, Note_on_c, 1, 92, 127
2, 25360, Note_on_c, 1, 100, 127
2, 25360, Note_on_c, 1, 104, 127
2, 25400, Note_off_c, 1, 48, 0
2, 25400, Note_off_c, 1, 56, 0
2, 25400, Note_off_c, 1, 64, 0
2, 25400, Note_off_c, 1, 92, 0
2, 25400, Note_off_c, 1, 100, 0
2, 25400, Note_off_c, 1, 104, 0
2, 25440, Note_on_c, 1, 51, 127
2, 25440, Note_on_c, 1, 66, 127
2, 25440, Note_on_c, 1, 78, 127
2, 25440, Note_on_c, 1, 90, 127
2, 26160, Note_off_c, 1, 51, 0
2, 26160, Note_off_c, 1, 66, 0
2, 26160, Note_off_c, 1, 78, 0
2, 26160, Note_off_c, 1, 90, 0
2, 26200, Note_on_c, 1, 51, 127
2, 26200, Note_on_c, 1, 66, 127
2, 26200, Note_on_c, 1, 78, 127
2, 26200, Note_on_c, 1, 90, 127
2, 26560, Note_off_c, 1, 51, 0
2, 26560, Note_off_c, 1, 66, 0
2, 26560, Note_off_c, 1, 78, 0
2, 26560, Note_off_c, 1, 90, 0
2, 26600, Note_on_c, 1, 50, 127
2, 26600, Note_on_c, 1, 53, 127
2, 26600, Note_on_c, 1, 70, 127
2, 26600, Note_on_c, 1, 82, 127
2, 27320, Note_off_c, 1, 50, 0
2, 27320, Note_off_c, 1, 53, 0
2, 27320, Note_off_c, 1, 70, 0
2, 27320, Note_off_c, 1, 82, 0
2, 27360, Note_on_c, 1, 32, 127
2, 27360, Note_on_c, 1, 44, 127
2, 27360, Note_on_c, 1, 55, 127
2, 27360, Note_on_c, 1, 67, 127
2, 27400, Note_off_c, 1, 32, 0
2, 27400, Note_off_c, 1, 44, 0
2, 27400, Note_off_c, 1, 55, 0
2, 27400, Note_on_c, 1, 59, 127
2, 27400, Note_on_c, 1, 61, 127
2, 27400, Note_on_c, 1, 64, 127
2, 27400, Note_on_c, 1, 71, 127
2, 27400, Note_on_c, 1, 78, 127
2, 27400, Note_on_c, 1, 85, 127
2, 27400, Note_on_c, 1, 90, 127
2, 27440, Note_on_c, 1, 32, 127
2, 27440, Note_on_c, 1, 52, 127
2, 27440, Note_on_c, 1, 56, 127
2, 27440, Note_off_c, 1, 59, 0
2, 27440, Note_off_c, 1, 67, 0
2, 27440, Note_off_c, 1, 71, 0
2, 27440, Note_off_c, 1, 78, 0
2, 27440, Note_off_c, 1, 85, 0
2, 27440, Note_off_c, 1, 90, 0
2, 27480, Note_off_c, 1, 32, 0
2, 27480, Note_on_c, 1, 33, 127
2, 27480, Note_on_c, 1, 45, 127
2, 27480, Note_off_c, 1, 56, 0
2, 27480, Note_off_c, 1, 61, 0
2, 27480, Note_off_c, 1, 64, 0
2, 27480, Note_on_c, 1, 72, 127
2, 27520, Note_off_c, 1, 33, 0
2, 27520, Note_off_c, 1, 45, 0
2, 27520, Note_off_c, 1, 52, 0
2, 27520, Note_on_c, 1, 53, 127
2, 27520, Note_on_c, 1, 56, 127
2, 27520, Note_on_c, 1, 70, 127
2, 27520, Note_off_c, 1, 72, 0
2, 27520, Note_on_c, 1, 80, 127
2, 27560, Note_on_c, 1, 33, 127
2, 27560, Note_on_c, 1, 40, 127
2, 27560, Note_on_c, 1, 45, 127
2, 27560, Note_off_c, 1, 53, 0
2, 27560, Note_off_c, 1, 56, 0
2, 27560, Note_on_c, 1, 64, 127
2, 27560, Note_off_c, 1, 70, 0
2, 27560, Note_off_c, 1, 80, 0
2, 27600, Note_off_c, 1, 33, 0
2, 27600, Note_on_c, 1, 36, 127
2, 27600, Note_off_c, 1, 40, 0
2, 27600, Note_off_c, 1, 45, 0
2, 27600, Note_on_c, 1, 48, 127
2, 27600, Note_on_c, 1, 60, 127
2, 27600, Note_on_c, 1, 63, 127
2, 27600, Note_off_c, 1, 64, 0
2, 27600, Note_on_c, 1, 69, 127
2, 27640, Note_off_c, 1, 36, 0
2, 27640, Note_on_c, 1, 44, 127
2, 27640, Note_off_c, 1, 48, 0
2, 27640, Note_on_c, 1, 51, 127
2, 27640, Note_on_c, 1, 52, 127
2, 27640, Note_off_c, 1, 63, 0
2, 27640, Note_off_c, 1, 69, 0
2, 27640, Note_on_c, 1, 84, 127
2, 27680, Note_off_c, 1, 44, 0
2, 27680, Note_on_c, 1, 49, 127
2, 27680, Note_off_c, 1, 51, 0
2, 27680, Note_off_c, 1, 52, 0
2, 27680, Note_off_c, 1, 60, 0
2, 27680, Note_on_c, 1, 61, 127
2, 27680, Note_off_c, 1, 84, 0
2, 27680, Note_on_c, 1, 87, 127
2, 27680, Note_on_c, 1, 89, 127
2, 27720, Note_on_c, 1, 29, 127
2, 27720, Note_off_c, 1, 49, 0
2, 27720, Note_on_c, 1, 54, 127
2, 27720, Note_off_c, 1, 61, 0
2, 27720, Note_off_c, 1, 87, 0
2, 27720, Note_off_c, 1, 89, 0
2, 27760, Note_off_c, 1, 29, 0
2, 27760, Note_on_c, 1, 49, 127
2, 27760, Note_off_c, 1, 54, 0
2, 27760, Note_on_c, 1, 75, 127
2, 27760, Note_on_c, 1, 82, 127
2, 27800, Note_off_c, 1, 49, 0
2, 27800, Note_off_c, 1, 75, 0
2, 27800, Note_off_c, 1, 82, 0
2, 27840, Note_on_c, 1, 49, 127
2, 27840, Note_on_c, 1, 75, 127
2, 27840, Note_on_c, 1, 82, 127
2, 28120, Note_on_c, 1, 46, 127
2, 28120, Note_off_c, 1, 49, 0
2, 28120, Note_on_c, 1, 63, 127
2, 28120, Note_on_c, 1, 67, 127
2, 28120, Note_on_c, 1, 70, 127
2, 28120, Note_off_c, 1, 75, 0
2, 28120, Note_off_c, 1, 82, 0
2, 28160, Note_off_c, 1, 46, 0
2, 28160, Note_on_c, 1, 51, 127
2, 28160, Note_off_c, 1, 63, 0
2, 28160, Note_off_c, 1, 70, 0
2, 28160, Note_on_c, 1, 73, 127
2, 28160, Note_on_c, 1, 75, 127
2, 28480, Note_off_c, 1, 51, 0
2, 28480, Note_off_c, 1, 67, 0
2, 28480, Note_off_c, 1, 73, 0
2, 28480, Note_off_c, 1, 75, 0
2, 28520, Note_on_c, 1, 44, 127
2, 28840, Note_on_c, 1, 43, 127
2, 28840, Note_off_c, 1, 44, 0
2, 28880, Note_off_c, 1, 43, 0
2, 28920, Note_on_c, 1, 50, 127
2, 28920, Note_on_c, 1, 55, 127
2, 28920, Note_on_c, 1, 58, 127
2, 28920, Note_on_c, 1, 67, 127
2, 28920, Note_on_c, 1, 70, 127
2, 28920, Note_on_c, 1, 79, 127
2, 28960, Note_off_c, 1, 50, 0
2, 28960, Note_off_c, 1, 55, 0
2, 28960, Note_on_c, 1, 61, 127
2, 28960, Note_on_c, 1, 73, 127
2, 28960, Note_on_c, 1, 76, 127
2, 29000, Note_on_c, 1, 51, 127
2, 29000, Note_on_c, 1, 55, 127
2, 29000, Note_on_c, 1, 63, 127
2, 29000, Note_off_c, 1, 70, 0
2, 29000, Note_off_c, 1, 73, 0
2, 29000, Note_off_c, 1, 76, 0
2, 29000, Note_off_c, 1, 79, 0
2, 29040, Note_on_c, 1, 41, 127
2, 29040, Note_on_c, 1, 48, 127
2, 29040, Note_off_c, 1, 51, 0
2, 29040, Note_off_c, 1, 55, 0
2, 29040, Note_off_c, 1, 61, 0
2, 29040, Note_off_c, 1, 63, 0
2, 29080, Note_off_c, 1, 41, 0
2, 29080, Note_on_c, 1, 45, 127
2, 29080, Note_off_c, 1, 48, 0
2, 29080, Note_on_c, 1, 54, 127
2, 29080, Note_off_c, 1, 58, 0
2, 29080, Note_on_c, 1, 60, 127
2, 29080, Note_on_c, 1, 64, 127
2, 29080, Note_off_c, 1, 67, 0
2, 29080, Note_on_c, 1, 100, 127
2, 29080, Note_on_c, 1, 102, 127
2, 29120, Note_off_c, 1, 45, 0
2, 29120, Note_off_c, 1, 54, 0
2, 29120, Note_on_c, 1, 56, 127
2, 29120, Note_off_c, 1, 60, 0
2, 29120, Note_off_c, 1, 64, 0
2, 29120, Note_on_c, 1, 74, 127
2, 29120, Note_on_c, 1, 78, 127
2, 29120, Note_on_c, 1, 82, 127
2, 29120, Note_off_c, 1, 100, 0
2, 29120, Note_off_c, 1, 102, 0
2, 29160, Note_on_c, 1, 29, 127
2, 29160, Note_on_c, 1, 36, 127
2, 29160, Note_on_c, 1, 51, 127
2, 29160, Note_off_c, 1, 56, 0
2, 29160, Note_on_c, 1, 57, 127
2, 29160, Note_off_c, 1, 74, 0
2, 29160, Note_off_c, 1, 78, 0
2, 29160, Note_off_c, 1, 82, 0
2, 29200, Note_off_c, 1, 29, 0
2, 29200, Note_off_c, 1, 36, 0
2, 29200, Note_off_c, 1, 51, 0
2, 29200, Note_on_c, 1, 56, 127
2, 29200, Note_off_c, 1, 57, 0
2, 29200, Note_on_c, 1, 74, 127
2, 29200, Note_on_c, 1, 78, 127
2, 29200, Note_on_c, 1, 82, 127
2, 29240, Note_on_c, 1, 41, 127
2, 29240, Note_on_c, 1, 53, 127
2, 29240, Note_off_c, 1, 56, 0
2, 29240, Note_off_c, 1, 74, 0
2, 29240, Note_off_c, 1, 78, 0
2, 29240, Note_on_c, 1, 81, 127
2, 29240, Note_off_c, 1, 82, 0
2, 29240, Note_on_c, 1, 84, 127
2, 29240, Note_on_c, 1, 87, 127
2, 29240, Note_on_c, 1, 93, 127
2, 29280, Note_on_c, 1, 39, 127
2, 29280, Note_off_c, 1, 41, 0
2, 29280, Note_on_c, 1, 43, 127
2, 29280, Note_on_c, 1, 51, 127
2, 29280, Note_off_c, 1, 53, 0
2, 29280, Note_off_c, 1, 81, 0
2, 29280, Note_off_c, 1, 84, 0
2, 29280, Note_off_c, 1, 87, 0
2, 29280, Note_off_c, 1, 93, 0
2, 29640, Note_off_c, 1, 39, 0
2, 29640, Note_off_c, 1, 43, 0
2, 29640, Note_off_c, 1, 51, 0
2, 29680, Note_on_c, 1, 38, 127
2, 29680, Note_on_c, 1, 50, 127
2, 29680, Note_on_c, 1, 70, 127
2, 29680, Note_on_c, 1, 82, 127
2, 30000, Note_off_c, 1, 38, 0
2, 30000, Note_off_c, 1, 50, 0
2, 30000, Note_off_c, 1, 70, 0
2, 30000, Note_off_c, 1, 82, 0
2, 30040, Note_on_c, 1, 38, 127
2, 30040, Note_on_c, 1, 50, 127
2, 30040, Note_on_c, 1, 70, 127
2, 30040, Note_on_c, 1, 82, 127
2, 30080, Note_off_c, 1, 38, 0
2, 30080, Note_off_c, 1, 50, 0
2, 30080, Note_off_c, 1, 70, 0
2, 30080, Note_off_c, 1, 82, 0
2, 30120, Note_on_c, 1, 37, 127
2, 30120, Note_on_c, 1, 49, 127
2, 30120, Note_on_c, 1, 65, 127
2, 30120, Note_on_c, 1, 68, 127
2, 30120, Note_on_c, 1, 77, 127
2, 30440, Note_off_c, 1, 37, 0
2, 30440, Note_off_c, 1, 49, 0
2, 30440, Note_off_c, 1, 65, 0
2, 30440, Note_off_c, 1, 68, 0
2, 30440, Note_off_c, 1, 77, 0
2, 30480, Note_on_c, 1, 36, 127
2, 30480, Note_on_c, 1, 48, 127
2, 30480, Note_on_c, 1, 68, 127
2, 30480, Note_on_c, 1, 72, 127
2, 30480, Note_on_c, 1, 75, 127
2, 30480, Note_on_c, 1, 80, 127
2, 30840, Note_off_c, 1, 36, 0
2, 30840, Note_off_c, 1, 48, 0
2, 30840, Note_off_c, 1, 68, 0
2, 30840, Note_off_c, 1, 72, 0
2, 30840, Note_off_c, 1, 75, 0
2, 30840, Note_off_c, 1, 80, 0
2, 30880, Note_on_c, 1, 34, 127
2, 30880, Note_on_c, 1, 46, 127
2, 30880, Note_on_c, 1, 70, 127
2, 30880, Note_on_c, 1, 73, 127
2, 30880, Note_on_c, 1, 78, 127
2, 30880, Note_on_c, 1, 82, 127
2, 31120, Note_off_c, 1, 70, 0
2, 31120, Note_off_c, 1, 78, 0
2, 31120, Note_off_c, 1, 82, 0
2, 31120, Note_on_c, 1, 85, 127
2, 31200, Note_off_c, 1, 34, 0
2, 31200, Note_off_c, 1, 46, 0
2, 31200, Note_off_c, 1, 73, 0
2, 31200, Note_off_c, 1, 85, 0
2, 31240, Note_on_c, 1, 32, 127
2, 31240, Note_on_c, 1, 44, 127
2, 31240, Note_on_c, 1, 68, 127
2, 31240, Note_on_c, 1, 80, 127
2, 31600, Note_off_c, 1, 32, 0
2, 31600, Note_off_c, 1, 44, 0
2, 31600, Note_off_c, 1, 68, 0
2, 31600, Note_off_c, 1, 80, 0
2, 31640, Note_on_c, 1, 50, 127
2, 31640, Note_on_c, 1, 62, 127
2, 31640, Note_on_c, 1, 74, 127
2, 31640, Note_on_c, 1, 83, 127
2, 31960, Note_off_c, 1, 50, 0
2, 31960, Note_off_c, 1, 62, 0
2, 31960, Note_off_c, 1, 74, 0
2, 31960, Note_off_c, 1, 83, 0
2, 32000, Note_on_c, 1, 40, 127
2, 32000, Note_on_c, 1, 47, 127
2, 32000, Note_on_c, 1, 52, 127
2, 32000, Note_on_c, 1, 88, 127
2, 32000, Note_on_c, 1, 92, 127
2, 32000, Note_on_c, 1, 100, 127
2, 32080, Note_off_c, 1, 40, 0
2, 32080, Note_off_c, 1, 47, 0
2, 32080, Note_off_c, 1, 52, 0
2, 32080, Note_off_c, 1, 88, 0
2, 32080, Note_off_c, 1, 92, 0
2, 32080, Note_off_c, 1, 100, 0
2, 32120, Note_on_c, 1, 40, 127
2, 32120, Note_on_c, 1, 47, 127
2, 32120, Note_on_c, 1, 52, 127
2, 32120, Note_on_c, 1, 88, 127
2, 32120, Note_on_c, 1, 92, 127
2, 32120, Note_on_c, 1, 100, 127
2, 32400, Note_off_c, 1, 40, 0
2, 32400, Note_off_c, 1, 47, 0
2, 32400, Note_off_c, 1, 52, 0
2, 32400, Note_off_c, 1, 88, 0
2, 32400, Note_off_c, 1, 92, 0
2, 32400, Note_off_c, 1, 100, 0
2, 32440, Note_on_c, 1, 41, 127
2, 32440, Note_on_c, 1, 53, 127
2, 32440, Note_on_c, 1, 87, 127
2, 32440, Note_on_c, 1, 93, 127
2, 32440, Note_on_c, 1, 99, 127
2, 32760, Note_off_c, 1, 41, 0
2, 32760, Note_off_c, 1, 53, 0
2, 32760, Note_off_c, 1, 87, 0
2, 32760, Note_off_c, 1, 93, 0
2, 32760, Note_off_c, 1, 99, 0
2, 32800, Note_on_c, 1, 37, 127
2, 32800, Note_on_c, 1, 49, 127
2, 32800, Note_on_c, 1, 69, 127
2, 32800, Note_on_c, 1, 73, 127
2, 32800, Note_on_c, 1, 76, 127
2, 33120, Note_off_c, 1, 37, 0
2, 33120, Note_off_c, 1, 49, 0
2, 33120, Note_off_c, 1, 69, 0
2, 33120, Note_off_c, 1, 73, 0
2, 33120, Note_off_c, 1, 76, 0
2, 33160, Note_on_c, 1, 37, 127
2, 33160, Note_on_c, 1, 49, 127
2, 33160, Note_on_c, 1, 69, 127
2, 33160, Note_on_c, 1, 73, 127
2, 33160, Note_on_c, 1, 76, 127
2, 33480, Note_off_c, 1, 37, 0
2, 33480, Note_off_c, 1, 49, 0
2, 33480, Note_off_c, 1, 69, 0
2, 33480, Note_off_c, 1, 73, 0
2, 33480, Note_off_c, 1, 76, 0
2, 33520, Note_on_c, 1, 40, 127
2, 33520, Note_on_c, 1, 52, 127
2, 33520, Note_on_c, 1, 76, 127
2, 33520, Note_on_c, 1, 81, 127
2, 33520, Note_on_c, 1, 85, 127
2, 33840, Note_off_c, 1, 40, 0
2, 33840, Note_off_c, 1, 52, 0
2, 33840, Note_off_c, 1, 76, 0
2, 33840, Note_off_c, 1, 81, 0
2, 33840, Note_off_c, 1, 85, 0
2, 33880, Note_on_c, 1, 36, 127
2, 33880, Note_on_c, 1, 40, 127
2, 33880, Note_on_c, 1, 48, 127
2, 33880, Note_on_c, 1, 79, 127
2, 33880, Note_on_c, 1, 84, 127
2, 33880, Note_on_c, 1, 88, 127
2, 33880, Note_on_c, 1, 91, 127
2, 34240, Note_off_c, 1, 40, 0
2, 34240, Note_off_c, 1, 48, 0
2, 34240, Note_off_c, 1, 79, 0
2, 34240, Note_off_c, 1, 84, 0
2, 34240, Note_off_c, 1, 88, 0
2, 34240, Note_off_c, 1, 91, 0
2, 34280, Note_off_c, 1, 36, 0
2, 34320, Note_on_c, 1, 36, 127
2, 34320, Note_on_c, 1, 40, 127
2, 34320, Note_on_c, 1, 48, 127
2, 34320, Note_on_c, 1, 76, 127
2, 34320, Note_on_c, 1, 88, 127
2, 34640, Note_off_c, 1, 36, 0
2, 34640, Note_off_c, 1, 40, 0
2, 34640, Note_off_c, 1, 48, 0
2, 34640, Note_off_c, 1, 76, 0
2, 34640, Note_off_c, 1, 88, 0
2, 34680, Note_on_c, 1, 40, 127
2, 34680, Note_on_c, 1, 43, 127
2, 34680, Note_on_c, 1, 52, 127
2, 34680, Note_on_c, 1, 76, 127
2, 34680, Note_on_c, 1, 88, 127
2, 35000, Note_off_c, 1, 40, 0
2, 35000, Note_off_c, 1, 43, 0
2, 35000, Note_off_c, 1, 52, 0
2, 35000, Note_off_c, 1, 76, 0
2, 35000, Note_off_c, 1, 88, 0
2, 35040, Note_on_c, 1, 27, 127
2, 35040, Note_on_c, 1, 39, 127
2, 35040, Note_on_c, 1, 57, 127
2, 35040, Note_on_c, 1, 59, 127
2, 35040, Note_on_c, 1, 63, 127
2, 35040, Note_on_c, 1, 66, 127
2, 35040, Note_on_c, 1, 71, 127
2, 35120, Note_off_c, 1, 27, 0
2, 35120, Note_on_c, 1, 36, 127
2, 35120, Note_off_c, 1, 39, 0
2, 35120, Note_on_c, 1, 48, 127
2, 35240, Note_on_c, 1, 27, 127
2, 35240, Note_off_c, 1, 36, 0
2, 35240, Note_on_c, 1, 39, 127
2, 35240, Note_off_c, 1, 48, 0
2, 35280, Note_off_c, 1, 27, 0
2, 35280, Note_off_c, 1, 39, 0
2, 35400, Note_off_c, 1, 57, 0
2, 35400, Note_off_c, 1, 59, 0
2, 35400, Note_off_c, 1, 63, 0
2, 35400, Note_off_c, 1, 66, 0
2, 35400, Note_off_c, 1, 71, 0
2, 35440, Note_on_c, 1, 51, 127
2, 35440, Note_on_c, 1, 58, 127
2, 35440, Note_on_c, 1, 61, 127
2, 35440, Note_on_c, 1, 63, 127
2, 35440, Note_on_c, 1, 72, 127
2, 35760, Note_off_c, 1, 51, 0
2, 35760, Note_off_c, 1, 58, 0
2, 35760, Note_off_c, 1, 61, 0
2, 35760, Note_off_c, 1, 63, 0
2, 35760, Note_off_c, 1, 72, 0
2, 35800, Note_on_c, 1, 51, 127
2, 35800, Note_on_c, 1, 58, 127
2, 35800, Note_on_c, 1, 61, 127
2, 35800, Note_on_c, 1, 63, 127
2, 35800, Note_on_c, 1, 72, 127
2, 35840, Note_on_c, 1, 70, 127
2, 35840, Note_off_c, 1, 72, 0
2, 35880, Note_off_c, 1, 70, 0
2, 35880, Note_on_c, 1, 72, 127
2, 36120, Note_off_c, 1, 51, 0
2, 36120, Note_off_c, 1, 58, 0
2, 36120, Note_off_c, 1, 61, 0
2, 36120, Note_off_c, 1, 63, 0
2, 36120, Note_off_c, 1, 72, 0
2, 36160, Note_on_c, 1, 51, 127
2, 36160, Note_on_c, 1, 58, 127
2, 36160, Note_on_c, 1, 61, 127
2, 36160, Note_on_c, 1, 63, 127
2, 36160, Note_on_c, 1, 73, 127
2, 36440, Note_off_c, 1, 51, 0
2, 36440, Note_off_c, 1, 58, 0
2, 36440, Note_off_c, 1, 61, 0
2, 36440, Note_off_c, 1, 63, 0
2, 36440, Note_off_c, 1, 73, 0
2, 36480, Note_on_c, 1, 51, 127
2, 36480, Note_on_c, 1, 58, 127
2, 36480, Note_on_c, 1, 61, 127
2, 36480, Note_on_c, 1, 63, 127
2, 36480, Note_on_c, 1, 73, 127
2, 36520, Note_off_c, 1, 51, 0
2, 36520, Note_off_c, 1, 58, 0
2, 36520, Note_off_c, 1, 61, 0
2, 36520, Note_off_c, 1, 63, 0
2, 36520, Note_off_c, 1, 73, 0
2, 36560, Note_on_c, 1, 44, 127
2, 36560, Note_on_c, 1, 56, 127
2, 36560, Note_on_c, 1, 71, 127
2, 36560, Note_on_c, 1, 74, 127
2, 36560, Note_on_c, 1, 77, 127
2, 36880, Note_off_c, 1, 44, 0
2, 36880, Note_off_c, 1, 56, 0
2, 36880, Note_off_c, 1, 71, 0
2, 36880, Note_off_c, 1, 74, 0
2, 36880, Note_off_c, 1, 77, 0
2, 36920, Note_on_c, 1, 44, 127
2, 36920, Note_on_c, 1, 56, 127
2, 36920, Note_on_c, 1, 71, 127
2, 36920, Note_on_c, 1, 74, 127
2, 36920, Note_on_c, 1, 77, 127
2, 37240, Note_off_c, 1, 44, 0
2, 37240, Note_off_c, 1, 56, 0
2, 37240, Note_off_c, 1, 71, 0
2, 37240, Note_off_c, 1, 74, 0
2, 37240, Note_off_c, 1, 77, 0
2, 37280, Note_on_c, 1, 40, 127
2, 37280, Note_on_c, 1, 52, 127
2, 37280, Note_on_c, 1, 71, 127
2, 37280, Note_on_c, 1, 76, 127
2, 37280, Note_on_c, 1, 80, 127
2, 37800, Note_on_c, 1, 59, 127
2, 37800, Note_on_c, 1, 64, 127
2, 37800, Note_on_c, 1, 68, 127
2, 37800, Note_off_c, 1, 71, 0
2, 37800, Note_off_c, 1, 76, 0
2, 37800, Note_off_c, 1, 80, 0
2, 37920, Note_off_c, 1, 40, 0
2, 37920, Note_off_c, 1, 52, 0
2, 37920, Note_off_c, 1, 59, 0
2, 37920, Note_off_c, 1, 64, 0
2, 37920, Note_off_c, 1, 68, 0
2, 38000, Note_on_c, 1, 48, 127
2, 38000, Note_on_c, 1, 55, 127
2, 38000, Note_on_c, 1, 58, 127
2, 38000, Note_on_c, 1, 70, 127
2, 38000, Note_on_c, 1, 74, 127
2, 38000, Note_on_c, 1, 77, 127
2, 38040, Note_on_c, 1, 32, 127
2, 38040, Note_on_c, 1, 44, 127
2, 38040, Note_off_c, 1, 48, 0
2, 38040, Note_off_c, 1, 55, 0
2, 38040, Note_off_c, 1, 58, 0
2, 38040, Note_on_c, 1, 63, 127
2, 38040, Note_on_c, 1, 68, 127
2, 38040, Note_off_c, 1, 70, 0
2, 38040, Note_on_c, 1, 73, 127
2, 38040, Note_off_c, 1, 74, 0
2, 38040, Note_off_c, 1, 77, 0
2, 38080, Note_off_c, 1, 32, 0
2, 38080, Note_on_c, 1, 35, 127
2, 38080, Note_off_c, 1, 44, 0
2, 38080, Note_off_c, 1, 63, 0
2, 38080, Note_off_c, 1, 68, 0
2, 38080, Note_on_c, 1, 72, 127
2, 38080, Note_off_c, 1, 73, 0
2, 38120, Note_off_c, 1, 35, 0
2, 38120, Note_on_c, 1, 46, 127
2, 38120, Note_on_c, 1, 48, 127
2, 38120, Note_on_c, 1, 63, 127
2, 38120, Note_on_c, 1, 69, 127
2, 38120, Note_off_c, 1, 72, 0
2, 38160, Note_off_c, 1, 46, 0
2, 38160, Note_off_c, 1, 48, 0
2, 38160, Note_on_c, 1, 49, 127
2, 38160, Note_on_c, 1, 54, 127
2, 38160, Note_on_c, 1, 56, 127
2, 38160, Note_on_c, 1, 60, 127
2, 38160, Note_off_c, 1, 63, 0
2, 38160, Note_off_c, 1, 69, 0
2, 38160, Note_on_c, 1, 80, 127
2, 38200, Note_on_c, 1, 44, 127
2, 38200, Note_on_c, 1, 46, 127
2, 38200, Note_off_c, 1, 49, 0
2, 38200, Note_off_c, 1, 54, 0
2, 38200, Note_off_c, 1, 56, 0
2, 38200, Note_on_c, 1, 58, 127
2, 38200, Note_off_c, 1, 60, 0
2, 38200, Note_on_c, 1, 70, 127
2, 38200, Note_off_c, 1, 80, 0
2, 38240, Note_on_c, 1, 33, 127
2, 38240, Note_off_c, 1, 44, 0
2, 38240, Note_on_c, 1, 45, 127
2, 38240, Note_off_c, 1, 46, 0
2, 38240, Note_on_c, 1, 55, 127
2, 38240, Note_off_c, 1, 58, 0
2, 38240, Note_on_c, 1, 61, 127
2, 38240, Note_on_c, 1, 67, 127
2, 38240, Note_off_c, 1, 70, 0
2, 38280, Note_off_c, 1, 33, 0
2, 38280, Note_off_c, 1, 45, 0
2, 38280, Note_on_c, 1, 49, 127
2, 38280, Note_off_c, 1, 55, 0
2, 38280, Note_on_c, 1, 56, 127
2, 38280, Note_off_c, 1, 61, 0
2, 38280, Note_on_c, 1, 62, 127
2, 38280, Note_on_c, 1, 65, 127
2, 38280, Note_off_c, 1, 67, 0
2, 38280, Note_on_c, 1, 68, 127
2, 38280, Note_on_c, 1, 74, 127
2, 38320, Note_on_c, 1, 47, 127
2, 38320, Note_off_c, 1, 49, 0
2, 38320, Note_on_c, 1, 51, 127
2, 38320, Note_off_c, 1, 56, 0
2, 38320, Note_on_c, 1, 57, 127
2, 38320, Note_on_c, 1, 59, 127
2, 38320, Note_off_c, 1, 62, 0
2, 38320, Note_off_c, 1, 65, 0
2, 38320, Note_off_c, 1, 74, 0
2, 38360, Note_off_c, 1, 47, 0
2, 38360, Note_off_c, 1, 51, 0
2, 38360, Note_off_c, 1, 57, 0
2, 38360, Note_off_c, 1, 59, 0
2, 38360, Note_off_c, 1, 68, 0
2, 38400, Note_on_c, 1, 35, 127
2, 38400, Note_on_c, 1, 47, 127
2, 38400, Note_on_c, 1, 81, 127
2, 38400, Note_on_c, 1, 87, 127
2, 38400, Note_on_c, 1, 90, 127
2, 38400, Note_on_c, 1, 95, 127
2, 38440, Note_off_c, 1, 35, 0
2, 38440, Note_on_c, 1, 36, 127
2, 38440, Note_off_c, 1, 47, 0
2, 38440, Note_on_c, 1, 48, 127
2, 38440, Note_on_c, 1, 53, 127
2, 38440, Note_on_c, 1, 55, 127
2, 38440, Note_on_c, 1, 65, 127
2, 38440, Note_on_c, 1, 67, 127
2, 38440, Note_off_c, 1, 81, 0
2, 38440, Note_off_c, 1, 87, 0
2, 38440, Note_off_c, 1, 90, 0
2, 38440, Note_off_c, 1, 95, 0
2, 38480, Note_off_c, 1, 36, 0
2, 38480, Note_off_c, 1, 48, 0
2, 38480, Note_off_c, 1, 53, 0
2, 38480, Note_off_c, 1, 55, 0
2, 38480, Note_off_c, 1, 65, 0
2, 38480, Note_off_c, 1, 67, 0
2, 38520, Note_on_c, 1, 35, 127
2, 38520, Note_on_c, 1, 47, 127
2, 38520, Note_on_c, 1, 81, 127
2, 38520, Note_on_c, 1, 87, 127
2, 38520, Note_on_c, 1, 90, 127
2, 38520, Note_on_c, 1, 95, 127
2, 38640, Note_off_c, 1, 35, 0
2, 38640, Note_on_c, 1, 42, 127
2, 38640, Note_on_c, 1, 51, 127
2, 38640, Note_on_c, 1, 54, 127
2, 38640, Note_on_c, 1, 69, 127
2, 38640, Note_off_c, 1, 87, 0
2, 38640, Note_off_c, 1, 90, 0
2, 38640, Note_off_c, 1, 95, 0
2, 38680, Note_on_c, 1, 35, 127
2, 38680, Note_off_c, 1, 42, 0
2, 38680, Note_off_c, 1, 51, 0
2, 38680, Note_off_c, 1, 54, 0
2, 38680, Note_off_c, 1, 69, 0
2, 38680, Note_on_c, 1, 87, 127
2, 38680, Note_on_c, 1, 90, 127
2, 38680, Note_on_c, 1, 95, 127
2, 38760, Note_off_c, 1, 35, 0
2, 38760, Note_off_c, 1, 47, 0
2, 38760, Note_off_c, 1, 81, 0
2, 38760, Note_off_c, 1, 87, 0
2, 38760, Note_off_c, 1, 90, 0
2, 38760, Note_off_c, 1, 95, 0
2, 38800, Note_on_c, 1, 40, 127
2, 38800, Note_on_c, 1, 47, 127
2, 38800, Note_on_c, 1, 68, 127
2, 38800, Note_on_c, 1, 71, 127
2, 38800, Note_on_c, 1, 73, 127
2, 38920, Note_off_c, 1, 68, 0
2, 38920, Note_off_c, 1, 71, 0
2, 38920, Note_off_c, 1, 73, 0
2, 39000, Note_on_c, 1, 68, 127
2, 39000, Note_on_c, 1, 71, 127
2, 39000, Note_on_c, 1, 73, 127
2, 39080, Note_off_c, 1, 68, 0
2, 39080, Note_off_c, 1, 71, 0
2, 39080, Note_off_c, 1, 73, 0
2, 39120, Note_off_c, 1, 40, 0
2, 39120, Note_off_c, 1, 47, 0
2, 39160, Note_on_c, 1, 40, 127
2, 39160, Note_on_c, 1, 47, 127
2, 39160, Note_on_c, 1, 68, 127
2, 39160, Note_on_c, 1, 76, 127
2, 39480, Note_off_c, 1, 68, 0
2, 39480, Note_off_c, 1, 76, 0
2, 39520, Note_on_c, 1, 38, 127
2, 39520, Note_off_c, 1, 40, 0
2, 39520, Note_off_c, 1, 47, 0
2, 39520, Note_on_c, 1, 50, 127
2, 39520, Note_on_c, 1, 64, 127
2, 39520, Note_on_c, 1, 68, 127
2, 39520, Note_on_c, 1, 71, 127
2, 39840, Note_off_c, 1, 38, 0
2, 39840, Note_off_c, 1, 50, 0
2, 39840, Note_off_c, 1, 64, 0
2, 39840, Note_off_c, 1, 68, 0
2, 39840, Note_off_c, 1, 71, 0
2, 39880, Note_on_c, 1, 38, 127
2, 39880, Note_on_c, 1, 50, 127
2, 39880, Note_on_c, 1, 64, 127
2, 39880, Note_on_c, 1, 68, 127
2, 39880, Note_on_c, 1, 71, 127
2, 40200, Note_off_c, 1, 38, 0
2, 40200, Note_off_c, 1, 50, 0
2, 40200, Note_off_c, 1, 64, 0
2, 40200, Note_off_c, 1, 68, 0
2, 40200, Note_off_c, 1, 71, 0
2, 40240, Note_on_c, 1, 36, 127
2, 40240, Note_on_c, 1, 48, 127
2, 40240, Note_on_c, 1, 56, 127
2, 40240, Note_on_c, 1, 68, 127
2, 40240, Note_on_c, 1, 80, 127
2, 40240, Note_on_c, 1, 88, 127
2, 40240, Note_on_c, 1, 92, 127
2, 40640, Note_off_c, 1, 36, 0
2, 40640, Note_off_c, 1, 48, 0
2, 40640, Note_off_c, 1, 56, 0
2, 40640, Note_off_c, 1, 68, 0
2, 40640, Note_off_c, 1, 80, 0
2, 40640, Note_off_c, 1, 88, 0
2, 40640, Note_off_c, 1, 92, 0
2, 40680, Note_on_c, 1, 36, 127
2, 40680, Note_on_c, 1, 48, 127
2, 40680, Note_on_c, 1, 56, 127
2, 40680, Note_on_c, 1, 68, 127
2, 40680, Note_on_c, 1, 80, 127
2, 40680, Note_on_c, 1, 88, 127
2, 40680, Note_on_c, 1, 92, 127
2, 40960, Note_off_c, 1, 36, 0
2, 40960, Note_off_c, 1, 48, 0
2, 40960, Note_off_c, 1, 56, 0
2, 40960, Note_off_c, 1, 68, 0
2, 40960, Note_off_c, 1, 80, 0
2, 40960, Note_off_c, 1, 88, 0
2, 40960, Note_off_c, 1, 92, 0
2, 41000, Note_on_c, 1, 46, 127
2, 41000, Note_on_c, 1, 51, 127
2, 41000, Note_on_c, 1, 55, 127
2, 41000, Note_on_c, 1, 63, 127
2, 41000, Note_on_c, 1, 67, 127
2, 41280, Note_off_c, 1, 51, 0
2, 41280, Note_off_c, 1, 55, 0
2, 41280, Note_on_c, 1, 56, 127
2, 41280, Note_off_c, 1, 63, 0
2, 41280, Note_off_c, 1, 67, 0
2, 41280, Note_on_c, 1, 86, 127
2, 41320, Note_off_c, 1, 46, 0
2, 41320, Note_on_c, 1, 49, 127
2, 41320, Note_on_c, 1, 53, 127
2, 41320, Note_on_c, 1, 61, 127
2, 41320, Note_on_c, 1, 75, 127
2, 41320, Note_off_c, 1, 86, 0
2, 41360, Note_on_c, 1, 46, 127
2, 41360, Note_off_c, 1, 49, 0
2, 41360, Note_on_c, 1, 51, 127
2, 41360, Note_off_c, 1, 53, 0
2, 41360, Note_on_c, 1, 55, 127
2, 41360, Note_off_c, 1, 56, 0
2, 41360, Note_off_c, 1, 61, 0
2, 41360, Note_on_c, 1, 63, 127
2, 41360, Note_on_c, 1, 67, 127
2, 41360, Note_off_c, 1, 75, 0
2, 41520, Note_off_c, 1, 63, 0
2, 41520, Note_off_c, 1, 67, 0
2, 41560, Note_on_c, 1, 49, 127
2, 41560, Note_off_c, 1, 51, 0
2, 41560, Note_on_c, 1, 61, 127
2, 41560, Note_on_c, 1, 67, 127
2, 41680, Note_off_c, 1, 46, 0
2, 41680, Note_off_c, 1, 49, 0
2, 41680, Note_off_c, 1, 55, 0
2, 41680, Note_off_c, 1, 61, 0
2, 41680, Note_off_c, 1, 67, 0
2, 41720, Note_on_c, 1, 30, 127
2, 41720, Note_on_c, 1, 59, 127
2, 41720, Note_on_c, 1, 62, 127
2, 41720, Note_on_c, 1, 66, 127
2, 41880, Note_off_c, 1, 30, 0
2, 41880, Note_on_c, 1, 43, 127
2, 41880, Note_on_c, 1, 51, 127
2, 41880, Note_off_c, 1, 59, 0
2, 41880, Note_off_c, 1, 62, 0
2, 41880, Note_off_c, 1, 66, 0
2, 41920, Note_off_c, 1, 43, 0
2, 41920, Note_on_c, 1, 45, 127
2, 41920, Note_on_c, 1, 48, 127
2, 41920, Note_on_c, 1, 57, 127
2, 41920, Note_on_c, 1, 66, 127
2, 41920, Note_on_c, 1, 69, 127
2, 41960, Note_off_c, 1, 45, 0
2, 41960, Note_off_c, 1, 48, 0
2, 41960, Note_off_c, 1, 51, 0
2, 41960, Note_off_c, 1, 57, 0
2, 41960, Note_on_c, 1, 58, 127
2, 41960, Note_off_c, 1, 66, 0
2, 41960, Note_on_c, 1, 67, 127
2, 41960, Note_off_c, 1, 69, 0
2, 41960, Note_on_c, 1, 72, 127
2, 41960, Note_on_c, 1, 76, 127
2, 41960, Note_on_c, 1, 79, 127
2, 42040, Note_off_c, 1, 58, 0
2, 42040, Note_off_c, 1, 67, 0
2, 42040, Note_off_c, 1, 72, 0
2, 42040, Note_off_c, 1, 76, 0
2, 42040, Note_off_c, 1, 79, 0
2, 42080, Note_on_c, 1, 36, 127
2, 42080, Note_on_c, 1, 78, 127
2, 42080, Note_on_c, 1, 80, 127
2, 42080, Note_on_c, 1, 87, 127
2, 42080, Note_on_c, 1, 90, 127
2, 42200, Note_off_c, 1, 36, 0
2, 42240, Note_on_c, 1, 36, 127
2, 42320, Note_off_c, 1, 36, 0
2, 42360, Note_on_c, 1, 36, 127
2, 42400, Note_off_c, 1, 36, 0
2, 42400, Note_off_c, 1, 78, 0
2, 42400, Note_off_c, 1, 80, 0
2, 42400, Note_off_c, 1, 87, 0
2, 42400, Note_off_c, 1, 90, 0
2, 42440, Note_on_c, 1, 40, 127
2, 42440, Note_on_c, 1, 44, 127
2, 42440, Note_on_c, 1, 47, 127
2, 42440, Note_on_c, 1, 52, 127
2, 42440, Note_on_c, 1, 64, 127
2, 42440, Note_on_c, 1, 68, 127
2, 42440, Note_on_c, 1, 71, 127
2, 42440, Note_on_c, 1, 76, 127
2, 42440, Note_on_c, 1, 80, 127
2, 42440, Note_on_c, 1, 83, 127
2, 42440, Note_on_c, 1, 88, 127
2, 42440, Note_on_c, 1, 95, 127
2, 42480, Note_off_c, 1, 95, 0
2, 42480, Note_on_c, 1, 104, 127
2, 42520, Note_on_c, 1, 35, 127
2, 42520, Note_off_c, 1, 40, 0
2, 42520, Note_off_c, 1, 44, 0
2, 42520, Note_off_c, 1, 47, 0
2, 42520, Note_off_c, 1, 52, 0
2, 42520, Note_off_c, 1, 68, 0
2, 42520, Note_on_c, 1, 69, 127
2, 42520, Note_off_c, 1, 71, 0
2, 42520, Note_on_c, 1, 73, 127
2, 42520, Note_off_c, 1, 76, 0
2, 42520, Note_off_c, 1, 80, 0
2, 42520, Note_off_c, 1, 83, 0
2, 42520, Note_off_c, 1, 88, 0
2, 42520, Note_off_c, 1, 104, 0
2, 42560, Note_off_c, 1, 35, 0
2, 42560, Note_on_c, 1, 40, 127
2, 42560, Note_on_c, 1, 44, 127
2, 42560, Note_on_c, 1, 47, 127
2, 42560, Note_on_c, 1, 52, 127
2, 42560, Note_on_c, 1, 68, 127
2, 42560, Note_off_c, 1, 69, 0
2, 42560, Note_on_c, 1, 71, 127
2, 42560, Note_off_c, 1, 73, 0
2, 42560, Note_on_c, 1, 76, 127
2, 42560, Note_on_c, 1, 80, 127
2, 42560, Note_on_c, 1, 83, 127
2, 42560, Note_on_c, 1, 88, 127
2, 42600, Note_off_c, 1, 40, 0
2, 42600, Note_on_c, 1, 42, 127
2, 42600, Note_off_c, 1, 44, 0
2, 42600, Note_off_c, 1, 47, 0
2, 42600, Note_off_c, 1, 52, 0
2, 42600, Note_on_c, 1, 54, 127
2, 42600, Note_off_c, 1, 64, 0
2, 42600, Note_off_c, 1, 68, 0
2, 42600, Note_on_c, 1, 69, 127
2, 42600, Note_off_c, 1, 71, 0
2, 42600, Note_on_c, 1, 73, 127
2, 42600, Note_off_c, 1, 80, 0
2, 42600, Note_off_c, 1, 83, 0
2, 42600, Note_off_c, 1, 88, 0
2, 42640, Note_on_c, 1, 40, 127
2, 42640, Note_off_c, 1, 42, 0
2, 42640, Note_on_c, 1, 44, 127
2, 42640, Note_on_c, 1, 47, 127
2, 42640, Note_on_c, 1, 52, 127
2, 42640, Note_off_c, 1, 54, 0
2, 42640, Note_on_c, 1, 64, 127
2, 42640, Note_on_c, 1, 68, 127
2, 42640, Note_off_c, 1, 69, 0
2, 42640, Note_on_c, 1, 71, 127
2, 42640, Note_off_c, 1, 73, 0
2, 42640, Note_on_c, 1, 80, 127
2, 42640, Note_on_c, 1, 83, 127
2, 42640, Note_on_c, 1, 88, 127
2, 42680, Note_off_c, 1, 40, 0
2, 42680, Note_off_c, 1, 44, 0
2, 42680, Note_off_c, 1, 47, 0
2, 42680, Note_off_c, 1, 52, 0
2, 42680, Note_off_c, 1, 64, 0
2, 42680, Note_off_c, 1, 68, 0
2, 42680, Note_off_c, 1, 71, 0
2, 42680, Note_off_c, 1, 76, 0
2, 42680, Note_off_c, 1, 80, 0
2, 42680, Note_off_c, 1, 83, 0
2, 42680, Note_off_c, 1, 88, 0
2, 42720, Note_on_c, 1, 42, 127
2, 42720, Note_on_c, 1, 54, 127
2, 42720, Note_on_c, 1, 69, 127
2, 42720, Note_on_c, 1, 73, 127
2, 42720, Note_on_c, 1, 76, 127
2, 42760, Note_off_c, 1, 42, 0
2, 42760, Note_off_c, 1, 54, 0
2, 42760, Note_off_c, 1, 69, 0
2, 42760, Note_off_c, 1, 73, 0
2, 42760, Note_off_c, 1, 76, 0
2, 42800, Note_on_c, 1, 37, 127
2, 42800, Note_on_c, 1, 40, 127
2, 42800, Note_on_c, 1, 49, 127
2, 42800, Note_on_c, 1, 64, 127
2, 43120, Note_off_c, 1, 37, 0
2, 43120, Note_off_c, 1, 40, 0
2, 43120, Note_off_c, 1, 49, 0
2, 43120, Note_off_c, 1, 64, 0
2, 43160, Note_on_c, 1, 28, 127
2, 43160, Note_on_c, 1, 32, 127
2, 43160, Note_on_c, 1, 40, 127
2, 43160, Note_on_c, 1, 64, 127
2, 43480, Note_off_c, 1, 28, 0
2, 43480, Note_off_c, 1, 32, 0
2, 43480, Note_off_c, 1, 40, 0
2, 43480, Note_off_c, 1, 64, 0
2, 43520, Note_on_c, 1, 28, 127
2, 43520, Note_on_c, 1, 32, 127
2, 43520, Note_on_c, 1, 40, 127
2, 43520, Note_on_c, 1, 64, 127
2, 44200, Note_off_c, 1, 28, 0
2, 44200, Note_off_c, 1, 32, 0
2, 44200, Note_off_c, 1, 40, 0
2, 44200, Note_off_c, 1, 64, 0
2, 44240, Note_on_c, 1, 32, 127
2, 44240, Note_on_c, 1, 35, 127
2, 44240, Note_on_c, 1, 44, 127
2, 44560, Note_off_c, 1, 32, 0
2, 44560, Note_off_c, 1, 35, 0
2, 44560, Note_off_c, 1, 44, 0
2, 44600, Note_on_c, 1, 35, 127
2, 44600, Note_on_c, 1, 57, 127
2, 44600, Note_on_c, 1, 68, 127
2, 44600, Note_on_c, 1, 71, 127
2, 44720, Note_off_c, 1, 35, 0
2, 44720, Note_off_c, 1, 57, 0
2, 44720, Note_off_c, 1, 68, 0
2, 44720, Note_off_c, 1, 71, 0
2, 44760, Note_on_c, 1, 35, 127
2, 44760, Note_on_c, 1, 57, 127
2, 44760, Note_on_c, 1, 68, 127
2, 44760, Note_on_c, 1, 71, 127
2, 44800, Note_off_c, 1, 57, 0
2, 44800, Note_on_c, 1, 64, 127
2, 44880, Note_off_c, 1, 35, 0
2, 44880, Note_off_c, 1, 64, 0
2, 44880, Note_off_c, 1, 68, 0
2, 44880, Note_off_c, 1, 71, 0
2, 44920, Note_on_c, 1, 64, 127
2, 44920, Note_on_c, 1, 68, 127
2, 44920, Note_on_c, 1, 73, 127
2, 44960, Note_off_c, 1, 64, 0
2, 44960, Note_off_c, 1, 68, 0
2, 44960, Note_off_c, 1, 73, 0
2, 45000, Note_on_c, 1, 64, 127
2, 45000, Note_on_c, 1, 68, 127
2, 45000, Note_on_c, 1, 73, 127
2, 45240, Note_off_c, 1, 64, 0
2, 45240, Note_off_c, 1, 68, 0
2, 45240, Note_off_c, 1, 73, 0
2, 45280, Note_on_c, 1, 64, 127
2, 45280, Note_on_c, 1, 68, 127
2, 45280, Note_on_c, 1, 73, 127
2, 45320, Note_off_c, 1, 64, 0
2, 45320, Note_off_c, 1, 68, 0
2, 45320, Note_off_c, 1, 73, 0
2, 45360, Note_on_c, 1, 64, 127
2, 45360, Note_on_c, 1, 68, 127
2, 45360, Note_on_c, 1, 73, 127
2, 45440, Note_off_c, 1, 73, 0
2, 45440, Note_on_c, 1, 74, 127
2, 45480, Note_on_c, 1, 73, 127
2, 45480, Note_off_c, 1, 74, 0
2, 45560, Note_on_c, 1, 49, 127
2, 45600, Note_off_c, 1, 49, 0
2, 45600, Note_off_c, 1, 64, 0
2, 45600, Note_off_c, 1, 68, 0
2, 45600, Note_off_c, 1, 73, 0
2, 45640, Note_on_c, 1, 49, 127
2, 45640, Note_on_c, 1, 64, 127
2, 45640, Note_on_c, 1, 68, 127
2, 45640, Note_on_c, 1, 73, 127
2, 45680, Note_off_c, 1, 49, 0
2, 45680, Note_off_c, 1, 64, 0
2, 45680, Note_off_c, 1, 68, 0
2, 45680, Note_off_c, 1, 73, 0
2, 45720, Note_on_c, 1, 49, 127
2, 45720, Note_on_c, 1, 64, 127
2, 45720, Note_on_c, 1, 68, 127
2, 45720, Note_on_c, 1, 73, 127
2, 45960, Note_off_c, 1, 49, 0
2, 45960, Note_off_c, 1, 64, 0
2, 45960, Note_off_c, 1, 68, 0
2, 45960, Note_off_c, 1, 73, 0
2, 46000, Note_on_c, 1, 63, 127
2, 46000, Note_on_c, 1, 66, 127
2, 46000, Note_on_c, 1, 73, 127
2, 46040, Note_off_c, 1, 63, 0
2, 46040, Note_off_c, 1, 66, 0
2, 46040, Note_off_c, 1, 73, 0
2, 46080, Note_on_c, 1, 47, 127
2, 46080, Note_on_c, 1, 63, 127
2, 46080, Note_on_c, 1, 66, 127
2, 46080, Note_on_c, 1, 71, 127
2, 46320, Note_off_c, 1, 47, 0
2, 46320, Note_off_c, 1, 63, 0
2, 46320, Note_off_c, 1, 66, 0
2, 46320, Note_off_c, 1, 71, 0
2, 46440, Note_on_c, 1, 49, 127
2, 46440, Note_on_c, 1, 58, 127
2, 46440, Note_on_c, 1, 66, 127
2, 46840, Note_off_c, 1, 49, 0
2, 46840, Note_off_c, 1, 58, 0
2, 46840, Note_off_c, 1, 66, 0
2, 46880, Note_on_c, 1, 49, 127
2, 46880, Note_on_c, 1, 58, 127
2, 46880, Note_on_c, 1, 66, 127
2, 47160, Note_off_c, 1, 58, 0
2, 47160, Note_off_c, 1, 66, 0
2, 47200, Note_on_c, 1, 56, 127
2, 47200, Note_on_c, 1, 65, 127
2, 47360, Note_on_c, 1, 68, 127
2, 47400, Note_off_c, 1, 68, 0
2, 47520, Note_off_c, 1, 49, 0
2, 47520, Note_off_c, 1, 56, 0
2, 47520, Note_off_c, 1, 65, 0
2, 47560, Note_on_c, 1, 48, 127
2, 47560, Note_on_c, 1, 60, 127
2, 47560, Note_on_c, 1, 65, 127
2, 47560, Note_on_c, 1, 69, 127
2, 47680, Note_on_c, 1, 47, 127
2, 47680, Note_off_c, 1, 48, 0
2, 47680, Note_on_c, 1, 57, 127
2, 47680, Note_off_c, 1, 60, 0
2, 47680, Note_on_c, 1, 62, 127
2, 47680, Note_off_c, 1, 65, 0
2, 47680, Note_on_c, 1, 68, 127
2, 47680, Note_off_c, 1, 69, 0
2, 47680, Note_on_c, 1, 71, 127
2, 47720, Note_off_c, 1, 47, 0
2, 47720, Note_on_c, 1, 48, 127
2, 47720, Note_off_c, 1, 57, 0
2, 47720, Note_on_c, 1, 60, 127
2, 47720, Note_off_c, 1, 62, 0
2, 47720, Note_on_c, 1, 65, 127
2, 47720, Note_off_c, 1, 68, 0
2, 47720, Note_on_c, 1, 69, 127
2, 47720, Note_off_c, 1, 71, 0
2, 47880, Note_off_c, 1, 60, 0
2, 47880, Note_off_c, 1, 65, 0
2, 47880, Note_off_c, 1, 69, 0
2, 47920, Note_on_c, 1, 57, 127
2, 47920, Note_on_c, 1, 65, 127
2, 47920, Note_on_c, 1, 69, 127
2, 47920, Note_on_c, 1, 72, 127
2, 48160, Note_off_c, 1, 57, 0
2, 48160, Note_off_c, 1, 65, 0
2, 48160, Note_off_c, 1, 69, 0
2, 48160, Note_off_c, 1, 72, 0
2, 48200, Note_on_c, 1, 41, 127
2, 48200, Note_off_c, 1, 48, 0
2, 48200, Note_on_c, 1, 65, 127
2, 48200, Note_on_c, 1, 72, 127
2, 48240, Note_off_c, 1, 41, 0
2, 48240, Note_off_c, 1, 65, 0
2, 48240, Note_off_c, 1, 72, 0
2, 48280, Note_on_c, 1, 45, 127
2, 48280, Note_on_c, 1, 52, 127
2, 48280, Note_on_c, 1, 73, 127
2, 48600, Note_off_c, 1, 45, 0
2, 48600, Note_off_c, 1, 73, 0
2, 48640, Note_on_c, 1, 50, 127
2, 48640, Note_off_c, 1, 52, 0
2, 48640, Note_on_c, 1, 56, 127
2, 48640, Note_on_c, 1, 65, 127
2, 48640, Note_on_c, 1, 70, 127
2, 48880, Note_off_c, 1, 50, 0
2, 48880, Note_off_c, 1, 56, 0
2, 48880, Note_off_c, 1, 65, 0
2, 48880, Note_off_c, 1, 70, 0
2, 48920, Note_on_c, 1, 50, 127
2, 48920, Note_on_c, 1, 56, 127
2, 48920, Note_on_c, 1, 65, 127
2, 48920, Note_on_c, 1, 70, 127
2, 48960, Note_on_c, 1, 53, 127
2, 48960, Note_off_c, 1, 56, 0
2, 48960, Note_on_c, 1, 58, 127
2, 49000, Note_off_c, 1, 50, 0
2, 49000, Note_off_c, 1, 53, 0
2, 49000, Note_off_c, 1, 58, 0
2, 49000, Note_off_c, 1, 65, 0
2, 49000, Note_off_c, 1, 70, 0
2, 49040, Note_on_c, 1, 48, 127
2, 49040, Note_on_c, 1, 55, 127
2, 49040, Note_on_c, 1, 62, 127
2, 49040, Note_on_c, 1, 65, 127
2, 49040, Note_on_c, 1, 71, 127
2, 49040, Note_on_c, 1, 79, 127
2, 49040, Note_on_c, 1, 86, 127
2, 49080, Note_on_c, 1, 39, 127
2, 49080, Note_on_c, 1, 46, 127
2, 49080, Note_off_c, 1, 48, 0
2, 49080, Note_off_c, 1, 55, 0
2, 49080, Note_on_c, 1, 60, 127
2, 49080, Note_off_c, 1, 62, 0
2, 49080, Note_off_c, 1, 65, 0
2, 49080, Note_on_c, 1, 67, 127
2, 49080, Note_off_c, 1, 71, 0
2, 49080, Note_on_c, 1, 72, 127
2, 49080, Note_off_c, 1, 79, 0
2, 49080, Note_off_c, 1, 86, 0
2, 49120, Note_off_c, 1, 39, 0
2, 49120, Note_on_c, 1, 41, 127
2, 49120, Note_off_c, 1, 46, 0
2, 49120, Note_off_c, 1, 60, 0
2, 49120, Note_off_c, 1, 67, 0
2, 49120, Note_on_c, 1, 69, 127
2, 49120, Note_off_c, 1, 72, 0
2, 49120, Note_on_c, 1, 93, 127
2, 49120, Note_on_c, 1, 96, 127
2, 49160, Note_off_c, 1, 41, 0
2, 49160, Note_on_c, 1, 46, 127
2, 49160, Note_on_c, 1, 58, 127
2, 49160, Note_off_c, 1, 69, 0
2, 49160, Note_on_c, 1, 88, 127
2, 49160, Note_off_c, 1, 93, 0
2, 49160, Note_on_c, 1, 94, 127
2, 49160, Note_off_c, 1, 96, 0
2, 49160, Note_on_c, 1, 97, 127
2, 49160, Note_on_c, 1, 100, 127
2, 49200, Note_on_c, 1, 39, 127
2, 49200, Note_off_c, 1, 46, 0
2, 49200, Note_on_c, 1, 49, 127
2, 49200, Note_on_c, 1, 51, 127
2, 49200, Note_off_c, 1, 58, 0
2, 49200, Note_on_c, 1, 70, 127
2, 49200, Note_on_c, 1, 73, 127
2, 49200, Note_on_c, 1, 75, 127
2, 49200, Note_off_c, 1, 88, 0
2, 49200, Note_off_c, 1, 94, 0
2, 49200, Note_off_c, 1, 97, 0
2, 49200, Note_off_c, 1, 100, 0
2, 49240, Note_off_c, 1, 39, 0
2, 49240, Note_on_c, 1, 41, 127
2, 49240, Note_on_c, 1, 46, 127
2, 49240, Note_off_c, 1, 49, 0
2, 49240, Note_off_c, 1, 51, 0
2, 49240, Note_on_c, 1, 53, 127
2, 49240, Note_off_c, 1, 70, 0
2, 49240, Note_off_c, 1, 73, 0
2, 49240, Note_off_c, 1, 75, 0
2, 49240, Note_on_c, 1, 87, 127
2, 49280, Note_off_c, 1, 41, 0
2, 49280, Note_off_c, 1, 46, 0
2, 49280, Note_on_c, 1, 52, 127
2, 49280, Note_off_c, 1, 53, 0
2, 49280, Note_on_c, 1, 56, 127
2, 49280, Note_on_c, 1, 59, 127
2, 49280, Note_on_c, 1, 61, 127
2, 49280, Note_on_c, 1, 80, 127
2, 49280, Note_off_c, 1, 87, 0
2, 49320, Note_off_c, 1, 52, 0
2, 49320, Note_off_c, 1, 56, 0
2, 49320, Note_off_c, 1, 59, 0
2, 49320, Note_off_c, 1, 61, 0
2, 49320, Note_on_c, 1, 77, 127
2, 49320, Note_off_c, 1, 80, 0
2, 49320, Note_on_c, 1, 85, 127
2, 49320, Note_on_c, 1, 89, 127
2, 49320, Note_on_c, 1, 97, 127
2, 49360, Note_off_c, 1, 77, 0
2, 49360, Note_off_c, 1, 85, 0
2, 49360, Note_off_c, 1, 89, 0
2, 49360, Note_off_c, 1, 97, 0
2, 49400, Note_on_c, 1, 40, 127
2, 49400, Note_on_c, 1, 86, 127
2, 49400, Note_on_c, 1, 92, 127
2, 49400, Note_on_c, 1, 95, 127
2, 49400, Note_on_c, 1, 98, 127
2, 50000, Note_off_c, 1, 40, 0
2, 50040, Note_on_c, 1, 40, 127
2, 50080, Note_off_c, 1, 40, 0
2, 50080, Note_off_c, 1, 86, 0
2, 50080, Note_off_c, 1, 92, 0
2, 50080, Note_off_c, 1, 95, 0
2, 50080, Note_off_c, 1, 98, 0
2, 50120, Note_on_c, 1, 31, 127
2, 50120, Note_on_c, 1, 43, 127
2, 50120, Note_on_c, 1, 67, 127
2, 50120, Note_on_c, 1, 71, 127
2, 50120, Note_on_c, 1, 74, 127
2, 50120, Note_on_c, 1, 77, 127
2, 50120, Note_on_c, 1, 79, 127
2, 50760, Note_off_c, 1, 31, 0
2, 50760, Note_off_c, 1, 43, 0
2, 50760, Note_off_c, 1, 67, 0
2, 50760, Note_off_c, 1, 71, 0
2, 50760, Note_off_c, 1, 74, 0
2, 50760, Note_off_c, 1, 77, 0
2, 50760, Note_off_c, 1, 79, 0
2, 50800, Note_on_c, 1, 58, 127
2, 50800, Note_on_c, 1, 62, 127
2, 50800, Note_on_c, 1, 77, 127
2, 50800, Note_on_c, 1, 89, 127
2, 51000, Note_off_c, 1, 58, 0
2, 51000, Note_off_c, 1, 62, 0
2, 51000, Note_off_c, 1, 77, 0
2, 51000, Note_off_c, 1, 89, 0
2, 51040, Note_on_c, 1, 58, 127
2, 51040, Note_on_c, 1, 62, 127
2, 51040, Note_on_c, 1, 77, 127
2, 51040, Note_on_c, 1, 89, 127
2, 51160, Note_off_c, 1, 58, 0
2, 51160, Note_off_c, 1, 62, 0
2, 51160, Note_off_c, 1, 77, 0
2, 51160, Note_off_c, 1, 89, 0
2, 51200, Note_on_c, 1, 67, 127
2, 51200, Note_on_c, 1, 71, 127
2, 51200, Note_on_c, 1, 74, 127
2, 51200, Note_on_c, 1, 80, 127
2, 51200, Note_on_c, 1, 85, 127
2, 51240, Note_on_c, 1, 60, 127
2, 51240, Note_off_c, 1, 67, 0
2, 51240, Note_off_c, 1, 74, 0
2, 51240, Note_on_c, 1, 79, 127
2, 51240, Note_off_c, 1, 80, 0
2, 51240, Note_on_c, 1, 83, 127
2, 51240, Note_off_c, 1, 85, 0
2, 51360, Note_on_c, 1, 44, 127
2, 51360, Note_on_c, 1, 49, 127
2, 51360, Note_on_c, 1, 53, 127
2, 51360, Note_on_c, 1, 59, 127
2, 51360, Note_off_c, 1, 60, 0
2, 51360, Note_on_c, 1, 61, 127
2, 51360, Note_on_c, 1, 65, 127
2, 51360, Note_off_c, 1, 71, 0
2, 51360, Note_on_c, 1, 73, 127
2, 51360, Note_off_c, 1, 79, 0
2, 51360, Note_off_c, 1, 83, 0
2, 51400, Note_off_c, 1, 44, 0
2, 51400, Note_off_c, 1, 49, 0
2, 51400, Note_off_c, 1, 53, 0
2, 51400, Note_off_c, 1, 59, 0
2, 51400, Note_on_c, 1, 60, 127
2, 51400, Note_off_c, 1, 61, 0
2, 51400, Note_off_c, 1, 65, 0
2, 51400, Note_on_c, 1, 71, 127
2, 51400, Note_off_c, 1, 73, 0
2, 51400, Note_on_c, 1, 79, 127
2, 51400, Note_on_c, 1, 83, 127
2, 51520, Note_off_c, 1, 60, 0
2, 51520, Note_off_c, 1, 71, 0
2, 51520, Note_off_c, 1, 79, 0
2, 51520, Note_off_c, 1, 83, 0
2, 51560, Note_on_c, 1, 49, 127
2, 51560, Note_on_c, 1, 56, 127
2, 51560, Note_on_c, 1, 63, 127
2, 51560, Note_on_c, 1, 68, 127
2, 51560, Note_on_c, 1, 71, 127
2, 51880, Note_off_c, 1, 49, 0
2, 51880, Note_off_c, 1, 56, 0
2, 51880, Note_off_c, 1, 63, 0
2, 51880, Note_off_c, 1, 68, 0
2, 51880, Note_off_c, 1, 71, 0
2, 51920, Note_on_c, 1, 46, 127
2, 51920, Note_on_c, 1, 62, 127
2, 51920, Note_on_c, 1, 76, 127
2, 51920, Note_on_c, 1, 79, 127
2, 52240, Note_off_c, 1, 46, 0
2, 52240, Note_off_c, 1, 62, 0
2, 52240, Note_off_c, 1, 76, 0
2, 52240, Note_off_c, 1, 79, 0
2, 52280, Note_on_c, 1, 48, 127
2, 52280, Note_on_c, 1, 51, 127
2, 52280, Note_on_c, 1, 89, 127
2, 52320, Note_off_c, 1, 48, 0
2, 52320, Note_off_c, 1, 51, 0
2, 52320, Note_on_c, 1, 61, 127
2, 52320, Note_on_c, 1, 63, 127
2, 52320, Note_off_c, 1, 89, 0
2, 52320, Note_on_c, 1, 91, 127
2, 52360, Note_on_c, 1, 46, 127
2, 52360, Note_on_c, 1, 57, 127
2, 52360, Note_off_c, 1, 61, 0
2, 52360, Note_on_c, 1, 70, 127
2, 52360, Note_off_c, 1, 91, 0
2, 52400, Note_off_c, 1, 46, 0
2, 52400, Note_on_c, 1, 53, 127
2, 52400, Note_off_c, 1, 57, 0
2, 52400, Note_on_c, 1, 58, 127
2, 52400, Note_on_c, 1, 62, 127
2, 52400, Note_off_c, 1, 63, 0
2, 52400, Note_off_c, 1, 70, 0
2, 52400, Note_on_c, 1, 82, 127
2, 52400, Note_on_c, 1, 86, 127
2, 52400, Note_on_c, 1, 89, 127
2, 52400, Note_on_c, 1, 94, 127
2, 52440, Note_off_c, 1, 53, 0
2, 52440, Note_off_c, 1, 58, 0
2, 52440, Note_off_c, 1, 62, 0
2, 52440, Note_on_c, 1, 72, 127
2, 52440, Note_on_c, 1, 75, 127
2, 52440, Note_on_c, 1, 78, 127
2, 52440, Note_on_c, 1, 81, 127
2, 52440, Note_off_c, 1, 82, 0
2, 52440, Note_on_c, 1, 83, 127
2, 52440, Note_off_c, 1, 86, 0
2, 52440, Note_off_c, 1, 89, 0
2, 52440, Note_off_c, 1, 94, 0
2, 52480, Note_on_c, 1, 69, 127
2, 52480, Note_on_c, 1, 71, 127
2, 52480, Note_off_c, 1, 72, 0
2, 52480, Note_off_c, 1, 75, 0
2, 52480, Note_on_c, 1, 76, 127
2, 52480, Note_off_c, 1, 78, 0
2, 52480, Note_off_c, 1, 81, 0
2, 52480, Note_off_c, 1, 83, 0
2, 52480, Note_on_c, 1, 86, 127
2, 52480, Note_on_c, 1, 88, 127
2, 52480, Note_on_c, 1, 92, 127
2, 52520, Note_on_c, 1, 51, 127
2, 52520, Note_on_c, 1, 55, 127
2, 52520, Note_on_c, 1, 58, 127
2, 52520, Note_on_c, 1, 63, 127
2, 52520, Note_on_c, 1, 67, 127
2, 52520, Note_off_c, 1, 69, 0
2, 52520, Note_on_c, 1, 70, 127
2, 52520, Note_off_c, 1, 71, 0
2, 52520, Note_on_c, 1, 73, 127
2, 52520, Note_off_c, 1, 76, 0
2, 52520, Note_on_c, 1, 79, 127
2, 52520, Note_off_c, 1, 86, 0
2, 52520, Note_off_c, 1, 88, 0
2, 52520, Note_off_c, 1, 92, 0
2, 52560, Note_off_c, 1, 51, 0
2, 52560, Note_off_c, 1, 55, 0
2, 52560, Note_off_c, 1, 58, 0
2, 52560, Note_off_c, 1, 63, 0
2, 52560, Note_off_c, 1, 67, 0
2, 52560, Note_on_c, 1, 69, 127
2, 52560, Note_off_c, 1, 70, 0
2, 52560, Note_on_c, 1, 72, 127
2, 52560, Note_off_c, 1, 73, 0
2, 52560, Note_on_c, 1, 77, 127
2, 52560, Note_off_c, 1, 79, 0
2, 52560, Note_on_c, 1, 89, 127
2, 52600, Note_off_c, 1, 69, 0
2, 52600, Note_off_c, 1, 72, 0
2, 52600, Note_off_c, 1, 77, 0
2, 52600, Note_off_c, 1, 89, 0
2, 52640, Note_on_c, 1, 48, 127
2, 52640, Note_on_c, 1, 50, 127
2, 52640, Note_on_c, 1, 53, 127
2, 52640, Note_on_c, 1, 55, 127
2, 52640, Note_on_c, 1, 77, 127
2, 52680, Note_off_c, 1, 48, 0
2, 52680, Note_off_c, 1, 50, 0
2, 52680, Note_off_c, 1, 53, 0
2, 52680, Note_off_c, 1, 55, 0
2, 52680, Note_on_c, 1, 61, 127
2, 52680, Note_on_c, 1, 65, 127
2, 52680, Note_on_c, 1, 68, 127
2, 52680, Note_on_c, 1, 73, 127
2, 52680, Note_off_c, 1, 77, 0
2, 52680, Note_on_c, 1, 87, 127
2, 52720, Note_on_c, 1, 52, 127
2, 52720, Note_on_c, 1, 56, 127
2, 52720, Note_on_c, 1, 59, 127
2, 52720, Note_off_c, 1, 61, 0
2, 52720, Note_on_c, 1, 62, 127
2, 52720, Note_off_c, 1, 65, 0
2, 52720, Note_off_c, 1, 68, 0
2, 52720, Note_off_c, 1, 73, 0
2, 52720, Note_on_c, 1, 80, 127
2, 52720, Note_off_c, 1, 87, 0
2, 52760, Note_on_c, 1, 48, 127
2, 52760, Note_on_c, 1, 50, 127
2, 52760, Note_off_c, 1, 52, 0
2, 52760, Note_on_c, 1, 53, 127
2, 52760, Note_on_c, 1, 55, 127
2, 52760, Note_off_c, 1, 56, 0
2, 52760, Note_off_c, 1, 59, 0
2, 52760, Note_off_c, 1, 62, 0
2, 52760, Note_on_c, 1, 77, 127
2, 52760, Note_off_c, 1, 80, 0
2, 52800, Note_on_c, 1, 36, 127
2, 52800, Note_on_c, 1, 43, 127
2, 52800, Note_off_c, 1, 48, 0
2, 52800, Note_off_c, 1, 50, 0
2, 52800, Note_on_c, 1, 51, 127
2, 52800, Note_off_c, 1, 53, 0
2, 52800, Note_off_c, 1, 55, 0
2, 52800, Note_off_c, 1, 77, 0
2, 52840, Note_off_c, 1, 36, 0
2, 52840, Note_off_c, 1, 43, 0
2, 52840, Note_off_c, 1, 51, 0
2, 52840, Note_on_c, 1, 63, 127
2, 52840, Note_on_c, 1, 77, 127
2, 52840, Note_on_c, 1, 80, 127
2, 52840, Note_on_c, 1, 82, 127
2, 52840, Note_on_c, 1, 89, 127
2, 52880, Note_on_c, 1, 49, 127
2, 52880, Note_on_c, 1, 51, 127
2, 52880, Note_on_c, 1, 54, 127
2, 52880, Note_on_c, 1, 56, 127
2, 52880, Note_off_c, 1, 63, 0
2, 52880, Note_off_c, 1, 77, 0
2, 52880, Note_off_c, 1, 82, 0
2, 52880, Note_off_c, 1, 89, 0
2, 52920, Note_off_c, 1, 49, 0
2, 52920, Note_off_c, 1, 51, 0
2, 52920, Note_off_c, 1, 54, 0
2, 52920, Note_off_c, 1, 56, 0
2, 52920, Note_on_c, 1, 58, 127
2, 52920, Note_off_c, 1, 80, 0
2, 52920, Note_on_c, 1, 81, 127
2, 52920, Note_on_c, 1, 84, 127
2, 52920, Note_on_c, 1, 87, 127
2, 52920, Note_on_c, 1, 93, 127
2, 52960, Note_off_c, 1, 58, 0
2, 52960, Note_off_c, 1, 81, 0
2, 52960, Note_off_c, 1, 84, 0
2, 52960, Note_off_c, 1, 87, 0
2, 52960, Note_off_c, 1, 93, 0
2, 53000, Note_on_c, 1, 33, 127
2, 53000, Note_on_c, 1, 42, 127
2, 53000, Note_on_c, 1, 45, 127
2, 53000, Note_on_c, 1, 62, 127
2, 53000, Note_on_c, 1, 74, 127
2, 53120, Note_off_c, 1, 33, 0
2, 53120, Note_off_c, 1, 42, 0
2, 53120, Note_off_c, 1, 45, 0
2, 53120, Note_off_c, 1, 62, 0
2, 53120, Note_off_c, 1, 74, 0
2, 53160, Note_on_c, 1, 33, 127
2, 53160, Note_on_c, 1, 42, 127
2, 53160, Note_on_c, 1, 45, 127
2, 53160, Note_on_c, 1, 62, 127
2, 53160, Note_on_c, 1, 74, 127
2, 53280, Note_off_c, 1, 33, 0
2, 53280, Note_on_c, 1, 38, 127
2, 53280, Note_off_c, 1, 42, 0
2, 53280, Note_off_c, 1, 62, 0
2, 53280, Note_on_c, 1, 66, 127
2, 53320, Note_off_c, 1, 38, 0
2, 53320, Note_off_c, 1, 45, 0
2, 53320, Note_off_c, 1, 66, 0
2, 53320, Note_off_c, 1, 74, 0
2, 53360, Note_on_c, 1, 31, 127
2, 53360, Note_on_c, 1, 43, 127
2, 53360, Note_on_c, 1, 50, 127
2, 53360, Note_on_c, 1, 62, 127
2, 53360, Note_on_c, 1, 71, 127
2, 53360, Note_on_c, 1, 83, 127
2, 53400, Note_off_c, 1, 83, 0
2, 53440, Note_off_c, 1, 31, 0
2, 53440, Note_off_c, 1, 50, 0
2, 53440, Note_on_c, 1, 53, 127
2, 53440, Note_on_c, 1, 58, 127
2, 53440, Note_off_c, 1, 62, 0
2, 53440, Note_on_c, 1, 65, 127
2, 53440, Note_off_c, 1, 71, 0
2, 53480, Note_on_c, 1, 31, 127
2, 53480, Note_on_c, 1, 50, 127
2, 53480, Note_off_c, 1, 53, 0
2, 53480, Note_off_c, 1, 58, 0
2, 53480, Note_on_c, 1, 62, 127
2, 53480, Note_off_c, 1, 65, 0
2, 53480, Note_on_c, 1, 71, 127
2, 53520, Note_on_c, 1, 81, 127
2, 53560, Note_on_c, 1, 79, 127
2, 53560, Note_off_c, 1, 81, 0
2, 53680, Note_off_c, 1, 31, 0
2, 53680, Note_off_c, 1, 43, 0
2, 53680, Note_off_c, 1, 50, 0
2, 53680, Note_off_c, 1, 62, 0
2, 53680, Note_off_c, 1, 71, 0
2, 53680, Note_off_c, 1, 79, 0
2, 53720, Note_on_c, 1, 33, 127
2, 53720, Note_on_c, 1, 45, 127
2, 53720, Note_on_c, 1, 57, 127
2, 53720, Note_on_c, 1, 72, 127
2, 53720, Note_on_c, 1, 75, 127
2, 53720, Note_on_c, 1, 79, 127
2, 53720, Note_on_c, 1, 84, 127
2, 53720, Note_on_c, 1, 87, 127
2, 53720, Note_on_c, 1, 91, 127
2, 53720, Note_on_c, 1, 96, 127
2, 54040, Note_off_c, 1, 33, 0
2, 54040, Note_off_c, 1, 45, 0
2, 54040, Note_off_c, 1, 57, 0
2, 54040, Note_off_c, 1, 72, 0
2, 54040, Note_off_c, 1, 75, 0
2, 54040, Note_off_c, 1, 79, 0
2, 54040, Note_off_c, 1, 84, 0
2, 54040, Note_off_c, 1, 87, 0
2, 54040, Note_off_c, 1, 91, 0
2, 54040, Note_off_c, 1, 96, 0
2, 54080, Note_on_c, 1, 33, 127
2, 54080, Note_on_c, 1, 45, 127
2, 54080, Note_on_c, 1, 57, 127
2, 54080, Note_on_c, 1, 72, 127
2, 54080, Note_on_c, 1, 75, 127
2, 54080, Note_on_c, 1, 79, 127
2, 54080, Note_on_c, 1, 84, 127
2, 54080, Note_on_c, 1, 87, 127
2, 54080, Note_on_c, 1, 91, 127
2, 54080, Note_on_c, 1, 96, 127
2, 54400, Note_off_c, 1, 33, 0
2, 54400, Note_off_c, 1, 45, 0
2, 54400, Note_off_c, 1, 57, 0
2, 54400, Note_off_c, 1, 72, 0
2, 54400, Note_off_c, 1, 75, 0
2, 54400, Note_off_c, 1, 79, 0
2, 54400, Note_off_c, 1, 84, 0
2, 54400, Note_off_c, 1, 87, 0
2, 54400, Note_off_c, 1, 91, 0
2, 54400, Note_off_c, 1, 96, 0
2, 54440, Note_on_c, 1, 43, 127
2, 54440, Note_on_c, 1, 50, 127
2, 54440, Note_on_c, 1, 55, 127
2, 54440, Note_on_c, 1, 58, 127
2, 54440, Note_on_c, 1, 67, 127
2, 54760, Note_off_c, 1, 43, 0
2, 54760, Note_off_c, 1, 50, 0
2, 54760, Note_off_c, 1, 55, 0
2, 54760, Note_off_c, 1, 58, 0
2, 54760, Note_off_c, 1, 67, 0
2, 54800, Note_on_c, 1, 46, 127
2, 54800, Note_on_c, 1, 50, 127
2, 54800, Note_on_c, 1, 53, 127
2, 54800, Note_on_c, 1, 58, 127
2, 54800, Note_on_c, 1, 65, 127
2, 54800, Note_on_c, 1, 70, 127
2, 54800, Note_on_c, 1, 74, 127
2, 54800, Note_on_c, 1, 77, 127
2, 55080, Note_off_c, 1, 46, 0
2, 55080, Note_off_c, 1, 50, 0
2, 55080, Note_off_c, 1, 53, 0
2, 55080, Note_off_c, 1, 58, 0
2, 55080, Note_off_c, 1, 65, 0
2, 55080, Note_off_c, 1, 70, 0
2, 55080, Note_off_c, 1, 74, 0
2, 55080, Note_off_c, 1, 77, 0
2, 55160, Note_on_c, 1, 47, 127
2, 55160, Note_on_c, 1, 54, 127
2, 55160, Note_on_c, 1, 63, 127
2, 55160, Note_on_c, 1, 66, 127
2, 55160, Note_on_c, 1, 73, 127
2, 55160, Note_on_c, 1, 78, 127
2, 55400, Note_off_c, 1, 47, 0
2, 55400, Note_off_c, 1, 54, 0
2, 55400, Note_off_c, 1, 63, 0
2, 55400, Note_off_c, 1, 66, 0
2, 55400, Note_off_c, 1, 73, 0
2, 55400, Note_off_c, 1, 78, 0
2, 55440, Note_on_c, 1, 47, 127
2, 55440, Note_on_c, 1, 54, 127
2, 55440, Note_on_c, 1, 63, 127
2, 55440, Note_on_c, 1, 66, 127
2, 55440, Note_on_c, 1, 73, 127
2, 55440, Note_on_c, 1, 78, 127
2, 55480, Note_off_c, 1, 47, 0
2, 55480, Note_off_c, 1, 54, 0
2, 55480, Note_off_c, 1, 63, 0
2, 55480, Note_off_c, 1, 66, 0
2, 55480, Note_off_c, 1, 73, 0
2, 55480, Note_off_c, 1, 78, 0
2, 55520, Note_on_c, 1, 50, 127
2, 55520, Note_on_c, 1, 56, 127
2, 55520, Note_on_c, 1, 66, 127
2, 55520, Note_on_c, 1, 72, 127
2, 55840, Note_off_c, 1, 50, 0
2, 55840, Note_off_c, 1, 56, 0
2, 55840, Note_off_c, 1, 66, 0
2, 55840, Note_off_c, 1, 72, 0
2, 55880, Note_on_c, 1, 46, 127
2, 55880, Note_on_c, 1, 58, 127
2, 55880, Note_on_c, 1, 77, 127
2, 55880, Note_on_c, 1, 86, 127
2, 55880, Note_on_c, 1, 89, 127
2, 56160, Note_off_c, 1, 46, 0
2, 56160, Note_off_c, 1, 58, 0
2, 56160, Note_off_c, 1, 77, 0
2, 56160, Note_off_c, 1, 86, 0
2, 56160, Note_off_c, 1, 89, 0
2, 56240, Note_on_c, 1, 50, 127
2, 56240, Note_on_c, 1, 60, 127
2, 56240, Note_on_c, 1, 62, 127
2, 56240, Note_on_c, 1, 66, 127
2, 56240, Note_on_c, 1, 69, 127
2, 56520, Note_off_c, 1, 50, 0
2, 56520, Note_off_c, 1, 60, 0
2, 56520, Note_off_c, 1, 62, 0
2, 56520, Note_off_c, 1, 66, 0
2, 56520, Note_off_c, 1, 69, 0
2, 56600, Note_on_c, 1, 31, 127
2, 56600, Note_on_c, 1, 43, 127
2, 56600, Note_on_c, 1, 53, 127
2, 56600, Note_on_c, 1, 55, 127
2, 56600, Note_on_c, 1, 59, 127
2, 56600, Note_on_c, 1, 62, 127
2, 56880, Note_off_c, 1, 31, 0
2, 56880, Note_off_c, 1, 43, 0
2, 56880, Note_off_c, 1, 53, 0
2, 56880, Note_off_c, 1, 55, 0
2, 56880, Note_off_c, 1, 59, 0
2, 56880, Note_off_c, 1, 62, 0
2, 56920, Note_on_c, 1, 31, 127
2, 56920, Note_on_c, 1, 43, 127
2, 56920, Note_on_c, 1, 53, 127
2, 56920, Note_on_c, 1, 55, 127
2, 56920, Note_on_c, 1, 59, 127
2, 56920, Note_on_c, 1, 62, 127
2, 57200, Note_off_c, 1, 31, 0
2, 57200, Note_off_c, 1, 43, 0
2, 57200, Note_off_c, 1, 53, 0
2, 57200, Note_off_c, 1, 55, 0
2, 57200, Note_off_c, 1, 59, 0
2, 57200, Note_off_c, 1, 62, 0
2, 57280, Note_on_c, 1, 41, 127
2, 57280, Note_on_c, 1, 44, 127
2, 57280, Note_on_c, 1, 48, 127
2, 57280, Note_on_c, 1, 53, 127
2, 57280, Note_on_c, 1, 56, 127
2, 57280, Note_on_c, 1, 60, 127
2, 57280, Note_on_c, 1, 65, 127
2, 57560, Note_off_c, 1, 41, 0
2, 57560, Note_off_c, 1, 44, 0
2, 57560, Note_off_c, 1, 48, 0
2, 57560, Note_off_c, 1, 53, 0
2, 57560, Note_off_c, 1, 56, 0
2, 57560, Note_off_c, 1, 60, 0
2, 57560, Note_off_c, 1, 65, 0
2, 57600, Note_on_c, 1, 41, 127
2, 57600, Note_on_c, 1, 44, 127
2, 57600, Note_on_c, 1, 48, 127
2, 57600, Note_on_c, 1, 53, 127
2, 57600, Note_on_c, 1, 56, 127
2, 57600, Note_on_c, 1, 60, 127
2, 57600, Note_on_c, 1, 65, 127
2, 58000, Note_off_c, 1, 41, 0
2, 58000, Note_off_c, 1, 44, 0
2, 58000, Note_off_c, 1, 48, 0
2, 58000, Note_off_c, 1, 53, 0
2, 58000, Note_off_c, 1, 56, 0
2, 58000, Note_off_c, 1, 60, 0
2, 58000, Note_off_c, 1, 65, 0
2, 58040, Note_on_c, 1, 47, 127
2, 58040, Note_on_c, 1, 59, 127
2, 58040, Note_on_c, 1, 62, 127
2, 58040, Note_on_c, 1, 65, 127
2, 58040, Note_on_c, 1, 68, 127
2, 58040, Note_on_c, 1, 74, 127
2, 58360, Note_off_c, 1, 47, 0
2, 58360, Note_off_c, 1, 59, 0
2, 58360, Note_off_c, 1, 62, 0
2, 58360, Note_off_c, 1, 65, 0
2, 58360, Note_off_c, 1, 68, 0
2, 58360, Note_off_c, 1, 74, 0
2, 58400, Note_on_c, 1, 37, 127
2, 58400, Note_on_c, 1, 40, 127
2, 58400, Note_on_c, 1, 49, 127
2, 58720, Note_off_c, 1, 37, 0
2, 58720, Note_off_c, 1, 40, 0
2, 58720, Note_off_c, 1, 49, 0
2, 58760, Note_on_c, 1, 48, 127
2, 58760, Note_on_c, 1, 55, 127
2, 58760, Note_on_c, 1, 60, 127
2, 58760, Note_on_c, 1, 76, 127
2, 58760, Note_on_c, 1, 79, 127
2, 58760, Note_on_c, 1, 88, 127
2, 59080, Note_off_c, 1, 48, 0
2, 59080, Note_off_c, 1, 55, 0
2, 59080, Note_off_c, 1, 60, 0
2, 59080, Note_off_c, 1, 76, 0
2, 59080, Note_off_c, 1, 79, 0
2, 59080, Note_off_c, 1, 88, 0
2, 59120, Note_on_c, 1, 58, 127
2, 59120, Note_on_c, 1, 65, 127
2, 59120, Note_on_c, 1, 72, 127
2, 59120, Note_on_c, 1, 84, 127
2, 59400, Note_off_c, 1, 58, 0
2, 59400, Note_off_c, 1, 65, 0
2, 59400, Note_off_c, 1, 72, 0
2, 59400, Note_off_c, 1, 84, 0
2, 59440, Note_on_c, 1, 74, 127
2, 59440, Note_on_c, 1, 83, 127
2, 59440, Note_on_c, 1, 85, 127
2, 59480, Note_on_c, 1, 47, 127
2, 59480, Note_on_c, 1, 54, 127
2, 59480, Note_on_c, 1, 57, 127
2, 59480, Note_on_c, 1, 67, 127
2, 59480, Note_on_c, 1, 72, 127
2, 59480, Note_off_c, 1, 74, 0
2, 59480, Note_on_c, 1, 76, 127
2, 59480, Note_on_c, 1, 79, 127
2, 59480, Note_off_c, 1, 83, 0
2, 59480, Note_off_c, 1, 85, 0
2, 59520, Note_off_c, 1, 47, 0
2, 59520, Note_off_c, 1, 54, 0
2, 59520, Note_off_c, 1, 57, 0
2, 59520, Note_off_c, 1, 67, 0
2, 59520, Note_off_c, 1, 72, 0
2, 59520, Note_on_c, 1, 74, 127
2, 59520, Note_off_c, 1, 76, 0
2, 59520, Note_off_c, 1, 79, 0
2, 59520, Note_on_c, 1, 83, 127
2, 59520, Note_on_c, 1, 85, 127
2, 59560, Note_off_c, 1, 74, 0
2, 59560, Note_off_c, 1, 83, 0
2, 59560, Note_off_c, 1, 85, 0
2, 59600, Note_on_c, 1, 74, 127
2, 59600, Note_on_c, 1, 83, 127
2, 59600, Note_on_c, 1, 85, 127
2, 59760, Note_off_c, 1, 74, 0
2, 59760, Note_off_c, 1, 83, 0
2, 59840, Note_on_c, 1, 45, 127
2, 59840, Note_on_c, 1, 57, 127
2, 59840, Note_on_c, 1, 73, 127
2, 59840, Note_on_c, 1, 76, 127
2, 60120, Note_off_c, 1, 45, 0
2, 60120, Note_off_c, 1, 57, 0
2, 60120, Note_off_c, 1, 73, 0
2, 60120, Note_off_c, 1, 76, 0
2, 60120, Note_off_c, 1, 85, 0
2, 60200, Note_on_c, 1, 47, 127
2, 60200, Note_on_c, 1, 59, 127
2, 60200, Note_on_c, 1, 68, 127
2, 60200, Note_on_c, 1, 74, 127
2, 60200, Note_on_c, 1, 78, 127
2, 60840, Note_off_c, 1, 47, 0
2, 60840, Note_off_c, 1, 59, 0
2, 60840, Note_off_c, 1, 68, 0
2, 60840, Note_off_c, 1, 74, 0
2, 60840, Note_off_c, 1, 78, 0
2, 60880, Note_on_c, 1, 42, 127
2, 60880, Note_on_c, 1, 54, 127
2, 60880, Note_on_c, 1, 69, 127
2, 60880, Note_on_c, 1, 73, 127
2, 60880, Note_on_c, 1, 81, 127
2, 61160, Note_off_c, 1, 42, 0
2, 61160, Note_off_c, 1, 54, 0
2, 61160, Note_off_c, 1, 69, 0
2, 61160, Note_off_c, 1, 73, 0
2, 61160, Note_off_c, 1, 81, 0
2, 61240, Note_on_c, 1, 47, 127
2, 61240, Note_on_c, 1, 59, 127
2, 61240, Note_on_c, 1, 69, 127
2, 61240, Note_on_c, 1, 74, 127
2, 61240, Note_on_c, 1, 78, 127
2, 61520, Note_off_c, 1, 47, 0
2, 61520, Note_off_c, 1, 59, 0
2, 61520, Note_off_c, 1, 69, 0
2, 61520, Note_off_c, 1, 74, 0
2, 61520, Note_off_c, 1, 78, 0
2, 61640, Note_on_c, 1, 41, 127
2, 61640, Note_on_c, 1, 53, 127
2, 61640, Note_on_c, 1, 65, 127
2, 61640, Note_on_c, 1, 74, 127
2, 61640, Note_on_c, 1, 77, 127
2, 62320, Note_off_c, 1, 41, 0
2, 62320, Note_off_c, 1, 53, 0
2, 62320, Note_off_c, 1, 65, 0
2, 62320, Note_off_c, 1, 74, 0
2, 62320, Note_off_c, 1, 77, 0
2, 62360, Note_on_c, 1, 41, 127
2, 62360, Note_on_c, 1, 53, 127
2, 62360, Note_on_c, 1, 69, 127
2, 62360, Note_on_c, 1, 72, 127
2, 62360, Note_on_c, 1, 75, 127
2, 62360, Note_on_c, 1, 81, 127
2, 62520, Note_off_c, 1, 41, 0
2, 62520, Note_on_c, 1, 60, 127
2, 62520, Note_on_c, 1, 64, 127
2, 62520, Note_on_c, 1, 65, 127
2, 62520, Note_off_c, 1, 69, 0
2, 62520, Note_off_c, 1, 75, 0
2, 62520, Note_on_c, 1, 76, 127
2, 62520, Note_on_c, 1, 77, 127
2, 62520, Note_off_c, 1, 81, 0
2, 62640, Note_off_c, 1, 53, 0
2, 62640, Note_off_c, 1, 60, 0
2, 62640, Note_off_c, 1, 64, 0
2, 62640, Note_off_c, 1, 65, 0
2, 62640, Note_off_c, 1, 72, 0
2, 62640, Note_off_c, 1, 76, 0
2, 62640, Note_off_c, 1, 77, 0
2, 62680, Note_on_c, 1, 53, 127
2, 62680, Note_on_c, 1, 58, 127
2, 62680, Note_on_c, 1, 62, 127
2, 62680, Note_on_c, 1, 65, 127
2, 62680, Note_on_c, 1, 70, 127
2, 62680, Note_on_c, 1, 74, 127
2, 62680, Note_on_c, 1, 77, 127
2, 62960, Note_off_c, 1, 53, 0
2, 62960, Note_off_c, 1, 58, 0
2, 62960, Note_off_c, 1, 62, 0
2, 62960, Note_off_c, 1, 65, 0
2, 62960, Note_off_c, 1, 70, 0
2, 62960, Note_off_c, 1, 74, 0
2, 62960, Note_off_c, 1, 77, 0
2, 63040, Note_on_c, 1, 53, 127
2, 63040, Note_on_c, 1, 58, 127
2, 63040, Note_on_c, 1, 62, 127
2, 63040, Note_on_c, 1, 65, 127
2, 63040, Note_on_c, 1, 70, 127
2, 63040, Note_on_c, 1, 74, 127
2, 63040, Note_on_c, 1, 77, 127
2, 63320, Note_off_c, 1, 53, 0
2, 63320, Note_off_c, 1, 58, 0
2, 63320, Note_off_c, 1, 62, 0
2, 63320, Note_off_c, 1, 65, 0
2, 63320, Note_off_c, 1, 70, 0
2, 63320, Note_off_c, 1, 74, 0
2, 63360, Note_off_c, 1, 77, 0
2, 63400, Note_on_c, 1, 55, 127
2, 63400, Note_on_c, 1, 72, 127
2, 63400, Note_on_c, 1, 75, 127
2, 63400, Note_on_c, 1, 78, 127
2, 63400, Note_on_c, 1, 82, 127
2, 63600, Note_off_c, 1, 55, 0
2, 63600, Note_off_c, 1, 72, 0
2, 63600, Note_off_c, 1, 75, 0
2, 63600, Note_off_c, 1, 78, 0
2, 63600, Note_off_c, 1, 82, 0
2, 63640, Note_on_c, 1, 55, 127
2, 63640, Note_on_c, 1, 72, 127
2, 63640, Note_on_c, 1, 75, 127
2, 63640, Note_on_c, 1, 78, 127
2, 63640, Note_on_c, 1, 82, 127
2, 63720, Note_off_c, 1, 55, 0
2, 63720, Note_off_c, 1, 72, 0
2, 63720, Note_off_c, 1, 75, 0
2, 63720, Note_off_c, 1, 78, 0
2, 63720, Note_off_c, 1, 82, 0
2, 63800, Note_on_c, 1, 48, 127
2, 63800, Note_on_c, 1, 60, 127
2, 63800, Note_on_c, 1, 65, 127
2, 63800, Note_on_c, 1, 68, 127
2, 63800, Note_on_c, 1, 72, 127
2, 64080, Note_off_c, 1, 48, 0
2, 64080, Note_off_c, 1, 60, 0
2, 64080, Note_off_c, 1, 65, 0
2, 64080, Note_off_c, 1, 68, 0
2, 64080, Note_off_c, 1, 72, 0
2, 64160, Note_on_c, 1, 48, 127
2, 64160, Note_on_c, 1, 60, 127
2, 64160, Note_on_c, 1, 65, 127
2, 64160, Note_on_c, 1, 68, 127
2, 64160, Note_on_c, 1, 72, 127
2, 64440, Note_off_c, 1, 48, 0
2, 64440, Note_on_c, 1, 49, 127
2, 64440, Note_on_c, 1, 57, 127
2, 64440, Note_off_c, 1, 60, 0
2, 64440, Note_off_c, 1, 65, 0
2, 64440, Note_off_c, 1, 68, 0
2, 64440, Note_on_c, 1, 69, 127
2, 64440, Note_off_c, 1, 72, 0
2, 64480, Note_off_c, 1, 49, 0
2, 64480, Note_off_c, 1, 57, 0
2, 64480, Note_off_c, 1, 69, 0
2, 64520, Note_on_c, 1, 46, 127
2, 64520, Note_on_c, 1, 53, 127
2, 64520, Note_on_c, 1, 61, 127
2, 64520, Note_on_c, 1, 70, 127
2, 64520, Note_on_c, 1, 77, 127
2, 64520, Note_on_c, 1, 85, 127
2, 64720, Note_on_c, 1, 42, 127
2, 64720, Note_on_c, 1, 45, 127
2, 64720, Note_off_c, 1, 46, 0
2, 64720, Note_on_c, 1, 57, 127
2, 64720, Note_off_c, 1, 61, 0
2, 64720, Note_on_c, 1, 65, 127
2, 64720, Note_off_c, 1, 70, 0
2, 64720, Note_off_c, 1, 77, 0
2, 64720, Note_off_c, 1, 85, 0
2, 64760, Note_off_c, 1, 42, 0
2, 64760, Note_off_c, 1, 45, 0
2, 64760, Note_off_c, 1, 53, 0
2, 64760, Note_off_c, 1, 57, 0
2, 64760, Note_off_c, 1, 65, 0
2, 64760, Note_on_c, 1, 77, 127
2, 64760, Note_on_c, 1, 80, 127
2, 64760, Note_on_c, 1, 87, 127
2, 64800, Note_off_c, 1, 80, 0
2, 64800, Note_off_c, 1, 87, 0
2, 64840, Note_off_c, 1, 77, 0
2, 64880, Note_on_c, 1, 45, 127
2, 64880, Note_on_c, 1, 48, 127
2, 64880, Note_on_c, 1, 53, 127
2, 64880, Note_on_c, 1, 69, 127
2, 65160, Note_off_c, 1, 45, 0
2, 65160, Note_off_c, 1, 48, 0
2, 65160, Note_off_c, 1, 53, 0
2, 65160, Note_off_c, 1, 69, 0
2, 65240, Note_on_c, 1, 31, 127
2, 65240, Note_on_c, 1, 36, 127
2, 65240, Note_on_c, 1, 38, 127
2, 65240, Note_on_c, 1, 65, 127
2, 65280, Note_off_c, 1, 31, 0
2, 65280, Note_off_c, 1, 36, 0
2, 65280, Note_off_c, 1, 38, 0
2, 65280, Note_on_c, 1, 48, 127
2, 65280, Note_on_c, 1, 50, 127
2, 65280, Note_on_c, 1, 71, 127
2, 65320, Note_off_c, 1, 48, 0
2, 65320, Note_off_c, 1, 50, 0
2, 65320, Note_on_c, 1, 59, 127
2, 65320, Note_on_c, 1, 64, 127
2, 65320, Note_off_c, 1, 65, 0
2, 65320, Note_off_c, 1, 71, 0
2, 65320, Note_on_c, 1, 92, 127
2, 65320, Note_on_c, 1, 95, 127
2, 65360, Note_on_c, 1, 48, 127
2, 65360, Note_on_c, 1, 56, 127
2, 65360, Note_off_c, 1, 64, 0
2, 65360, Note_on_c, 1, 74, 127
2, 65360, Note_off_c, 1, 92, 0
2, 65360, Note_off_c, 1, 95, 0
2, 65400, Note_off_c, 1, 48, 0
2, 65400, Note_off_c, 1, 56, 0
2, 65400, Note_on_c, 1, 64, 127
2, 65400, Note_on_c, 1, 66, 127
2, 65400, Note_on_c, 1, 69, 127
2, 65400, Note_off_c, 1, 74, 0
2, 65400, Note_on_c, 1, 82, 127
2, 65480, Note_off_c, 1, 59, 0
2, 65480, Note_off_c, 1, 64, 0
2, 65480, Note_off_c, 1, 66, 0
2, 65480, Note_off_c, 1, 69, 0
2, 65480, Note_off_c, 1, 82, 0
2, 65520, Note_on_c, 1, 59, 127
2, 65520, Note_on_c, 1, 64, 127
2, 65520, Note_on_c, 1, 66, 127
2, 65520, Note_on_c, 1, 69, 127
2, 65520, Note_on_c, 1, 82, 127
2, 65560, Note_off_c, 1, 59, 0
2, 65560, Note_off_c, 1, 64, 0
2, 65560, Note_off_c, 1, 66, 0
2, 65560, Note_off_c, 1, 69, 0
2, 65560, Note_on_c, 1, 81, 127
2, 65560, Note_off_c, 1, 82, 0
2, 65600, Note_on_c, 1, 41, 127
2, 65600, Note_on_c, 1, 70, 127
2, 65600, Note_on_c, 1, 74, 127
2, 65600, Note_on_c, 1, 77, 127
2, 65600, Note_off_c, 1, 81, 0
2, 65920, Note_off_c, 1, 41, 0
2, 65920, Note_off_c, 1, 70, 0
2, 65920, Note_off_c, 1, 74, 0
2, 65920, Note_off_c, 1, 77, 0
2, 65960, Note_on_c, 1, 36, 127
2, 65960, Note_on_c, 1, 59, 127
2, 65960, Note_on_c, 1, 62, 127
2, 65960, Note_on_c, 1, 65, 127
2, 65960, Note_on_c, 1, 68, 127
2, 66200, Note_off_c, 1, 59, 0
2, 66200, Note_off_c, 1, 62, 0
2, 66200, Note_off_c, 1, 65, 0
2, 66200, Note_off_c, 1, 68, 0
2, 66280, Note_off_c, 1, 36, 0
2, 66320, Note_on_c, 1, 36, 127
2, 66320, Note_on_c, 1, 59, 127
2, 66320, Note_on_c, 1, 62, 127
2, 66320, Note_on_c, 1, 65, 127
2, 66320, Note_on_c, 1, 68, 127
2, 66560, Note_off_c, 1, 59, 0
2, 66560, Note_off_c, 1, 62, 0
2, 66560, Note_off_c, 1, 65, 0
2, 66560, Note_off_c, 1, 68, 0
2, 66640, Note_off_c, 1, 36, 0
2, 66680, Note_on_c, 1, 36, 127
2, 66680, Note_on_c, 1, 59, 127
2, 66680, Note_on_c, 1, 62, 127
2, 66680, Note_on_c, 1, 65, 127
2, 66680, Note_on_c, 1, 68, 127
2, 66960, Note_off_c, 1, 59, 0
2, 66960, Note_off_c, 1, 62, 0
2, 66960, Note_off_c, 1, 65, 0
2, 66960, Note_off_c, 1, 68, 0
2, 67040, Note_on_c, 1, 59, 127
2, 67040, Note_on_c, 1, 62, 127
2, 67040, Note_on_c, 1, 65, 127
2, 67040, Note_on_c, 1, 68, 127
2, 67280, Note_off_c, 1, 59, 0
2, 67280, Note_off_c, 1, 62, 0
2, 67280, Note_off_c, 1, 65, 0
2, 67280, Note_off_c, 1, 68, 0
2, 67360, Note_off_c, 1, 36, 0
2, 67440, Note_on_c, 1, 29, 127
2, 67440, Note_on_c, 1, 57, 127
2, 67440, Note_on_c, 1, 60, 127
2, 67440, Note_on_c, 1, 65, 127
2, 67560, Note_off_c, 1, 29, 0
2, 67560, Note_on_c, 1, 41, 127
2, 67600, Note_on_c, 1, 29, 127
2, 67600, Note_off_c, 1, 41, 0
2, 67640, Note_off_c, 1, 29, 0
2, 67640, Note_on_c, 1, 41, 127
2, 67680, Note_on_c, 1, 51, 127
2, 67680, Note_off_c, 1, 57, 0
2, 67680, Note_off_c, 1, 60, 0
2, 67680, Note_on_c, 1, 63, 127
2, 67680, Note_off_c, 1, 65, 0
2, 67720, Note_off_c, 1, 41, 0
2, 67720, Note_off_c, 1, 51, 0
2, 67720, Note_off_c, 1, 63, 0
2, 67760, Note_on_c, 1, 41, 127
2, 68120, Note_on_c, 1, 57, 127
2, 68120, Note_on_c, 1, 63, 127
2, 68120, Note_on_c, 1, 65, 127
2, 68120, Note_on_c, 1, 72, 127
2, 68400, Note_off_c, 1, 57, 0
2, 68400, Note_off_c, 1, 63, 0
2, 68400, Note_off_c, 1, 65, 0
2, 68400, Note_off_c, 1, 72, 0
2, 68480, Note_on_c, 1, 57, 127
2, 68480, Note_on_c, 1, 63, 127
2, 68480, Note_on_c, 1, 65, 127
2, 68640, Note_on_c, 1, 74, 127
2, 68680, Note_off_c, 1, 74, 0
2, 68760, Note_off_c, 1, 41, 0
2, 68760, Note_on_c, 1, 43, 127
2, 68760, Note_off_c, 1, 57, 0
2, 68760, Note_off_c, 1, 63, 0
2, 68760, Note_on_c, 1, 71, 127
2, 68760, Note_on_c, 1, 74, 127
2, 68800, Note_off_c, 1, 43, 0
2, 68800, Note_off_c, 1, 65, 0
2, 68800, Note_off_c, 1, 71, 0
2, 68800, Note_off_c, 1, 74, 0
2, 68840, Note_on_c, 1, 41, 127
2, 68840, Note_on_c, 1, 47, 127
2, 68840, Note_on_c, 1, 57, 127
2, 68840, Note_on_c, 1, 59, 127
2, 69120, Note_off_c, 1, 41, 0
2, 69120, Note_on_c, 1, 43, 127
2, 69120, Note_off_c, 1, 47, 0
2, 69120, Note_on_c, 1, 55, 127
2, 69120, Note_off_c, 1, 57, 0
2, 69120, Note_off_c, 1, 59, 0
2, 69120, Note_on_c, 1, 70, 127
2, 69120, Note_on_c, 1, 79, 127
2, 69160, Note_off_c, 1, 43, 0
2, 69160, Note_off_c, 1, 55, 0
2, 69160, Note_off_c, 1, 70, 0
2, 69160, Note_off_c, 1, 79, 0
2, 69200, Note_on_c, 1, 40, 127
2, 69200, Note_on_c, 1, 44, 127
2, 69200, Note_on_c, 1, 56, 127
2, 69520, Note_off_c, 1, 40, 0
2, 69520, Note_off_c, 1, 44, 0
2, 69520, Note_off_c, 1, 56, 0
2, 69600, Note_on_c, 1, 41, 127
2, 69600, Note_on_c, 1, 48, 127
2, 69600, Note_on_c, 1, 53, 127
2, 69600, Note_on_c, 1, 68, 127
2, 69600, Note_on_c, 1, 72, 127
2, 69600, Note_on_c, 1, 74, 127
2, 69600, Note_on_c, 1, 80, 127
2, 69640, Note_off_c, 1, 41, 0
2, 69640, Note_on_c, 1, 47, 127
2, 69640, Note_off_c, 1, 48, 0
2, 69640, Note_off_c, 1, 53, 0
2, 69640, Note_on_c, 1, 54, 127
2, 69640, Note_on_c, 1, 57, 127
2, 69640, Note_on_c, 1, 61, 127
2, 69640, Note_on_c, 1, 66, 127
2, 69640, Note_off_c, 1, 68, 0
2, 69640, Note_off_c, 1, 72, 0
2, 69640, Note_off_c, 1, 74, 0
2, 69640, Note_off_c, 1, 80, 0
2, 69680, Note_off_c, 1, 47, 0
2, 69680, Note_off_c, 1, 54, 0
2, 69680, Note_off_c, 1, 57, 0
2, 69680, Note_off_c, 1, 61, 0
2, 69680, Note_off_c, 1, 66, 0
2, 69680, Note_on_c, 1, 67, 127
2, 69680, Note_on_c, 1, 71, 127
2, 69680, Note_on_c, 1, 76, 127
2, 69680, Note_on_c, 1, 78, 127
2, 69720, Note_on_c, 1, 47, 127
2, 69720, Note_on_c, 1, 56, 127
2, 69720, Note_on_c, 1, 59, 127
2, 69720, Note_on_c, 1, 64, 127
2, 69720, Note_off_c, 1, 67, 0
2, 69720, Note_on_c, 1, 68, 127
2, 69720, Note_off_c, 1, 71, 0
2, 69720, Note_off_c, 1, 76, 0
2, 69720, Note_off_c, 1, 78, 0
2, 69760, Note_off_c, 1, 59, 0
2, 69760, Note_on_c, 1, 71, 127
2, 69800, Note_off_c, 1, 47, 0
2, 69800, Note_off_c, 1, 56, 0
2, 69800, Note_on_c, 1, 59, 127
2, 69800, Note_on_c, 1, 67, 127
2, 69800, Note_off_c, 1, 68, 0
2, 69800, Note_off_c, 1, 71, 0
2, 69800, Note_on_c, 1, 72, 127
2, 69800, Note_on_c, 1, 79, 127
2, 69800, Note_on_c, 1, 88, 127
2, 69880, Note_off_c, 1, 59, 0
2, 69880, Note_off_c, 1, 64, 0
2, 69880, Note_off_c, 1, 67, 0
2, 69880, Note_off_c, 1, 72, 0
2, 69880, Note_off_c, 1, 79, 0
2, 69880, Note_off_c, 1, 88, 0
2, 69960, Note_on_c, 1, 32, 127
2, 69960, Note_on_c, 1, 44, 127
2, 69960, Note_on_c, 1, 58, 127
2, 69960, Note_on_c, 1, 62, 127
2, 69960, Note_on_c, 1, 70, 127
2, 70000, Note_off_c, 1, 32, 0
2, 70000, Note_off_c, 1, 44, 0
2, 70000, Note_off_c, 1, 58, 0
2, 70000, Note_off_c, 1, 62, 0
2, 70000, Note_on_c, 1, 63, 127
2, 70000, Note_on_c, 1, 65, 127
2, 70000, Note_off_c, 1, 70, 0
2, 70000, Note_on_c, 1, 86, 127
2, 70040, Note_on_c, 1, 60, 127
2, 70040, Note_off_c, 1, 63, 0
2, 70040, Note_off_c, 1, 65, 0
2, 70040, Note_on_c, 1, 77, 127
2, 70040, Note_on_c, 1, 80, 127
2, 70040, Note_on_c, 1, 83, 127
2, 70040, Note_off_c, 1, 86, 0
2, 70040, Note_on_c, 1, 89, 127
2, 70080, Note_off_c, 1, 60, 0
2, 70080, Note_on_c, 1, 62, 127
2, 70080, Note_on_c, 1, 65, 127
2, 70080, Note_on_c, 1, 68, 127
2, 70080, Note_on_c, 1, 72, 127
2, 70080, Note_on_c, 1, 74, 127
2, 70080, Note_off_c, 1, 83, 0
2, 70080, Note_on_c, 1, 84, 127
2, 70080, Note_off_c, 1, 89, 0
2, 70120, Note_on_c, 1, 55, 127
2, 70120, Note_off_c, 1, 62, 0
2, 70120, Note_on_c, 1, 64, 127
2, 70120, Note_off_c, 1, 65, 0
2, 70120, Note_on_c, 1, 67, 127
2, 70120, Note_off_c, 1, 68, 0
2, 70120, Note_off_c, 1, 72, 0
2, 70120, Note_off_c, 1, 74, 0
2, 70120, Note_off_c, 1, 77, 0
2, 70120, Note_off_c, 1, 80, 0
2, 70120, Note_off_c, 1, 84, 0
2, 70120, Note_on_c, 1, 88, 127
2, 70160, Note_on_c, 1, 51, 127
2, 70160, Note_on_c, 1, 54, 127
2, 70160, Note_off_c, 1, 55, 0
2, 70160, Note_on_c, 1, 58, 127
2, 70160, Note_off_c, 1, 64, 0
2, 70160, Note_off_c, 1, 67, 0
2, 70160, Note_on_c, 1, 70, 127
2, 70160, Note_on_c, 1, 75, 127
2, 70160, Note_on_c, 1, 78, 127
2, 70160, Note_on_c, 1, 82, 127
2, 70160, Note_off_c, 1, 88, 0
2, 70200, Note_off_c, 1, 51, 0
2, 70200, Note_off_c, 1, 54, 0
2, 70200, Note_off_c, 1, 58, 0
2, 70200, Note_off_c, 1, 70, 0
2, 70200, Note_off_c, 1, 75, 0
2, 70200, Note_off_c, 1, 78, 0
2, 70200, Note_off_c, 1, 82, 0
2, 70320, Note_on_c, 1, 58, 127
2, 70320, Note_on_c, 1, 65, 127
2, 70320, Note_on_c, 1, 68, 127
2, 70320, Note_on_c, 1, 70, 127
2, 70320, Note_on_c, 1, 79, 127
2, 70320, Note_on_c, 1, 86, 127
2, 70320, Note_on_c, 1, 91, 127
2, 70360, Note_on_c, 1, 37, 127
2, 70360, Note_on_c, 1, 49, 127
2, 70360, Note_on_c, 1, 56, 127
2, 70360, Note_off_c, 1, 58, 0
2, 70360, Note_off_c, 1, 65, 0
2, 70360, Note_on_c, 1, 66, 127
2, 70360, Note_off_c, 1, 68, 0
2, 70360, Note_off_c, 1, 70, 0
2, 70360, Note_off_c, 1, 79, 0
2, 70360, Note_off_c, 1, 86, 0
2, 70360, Note_off_c, 1, 91, 0
2, 70400, Note_off_c, 1, 37, 0
2, 70400, Note_on_c, 1, 40, 127
2, 70400, Note_on_c, 1, 46, 127
2, 70400, Note_off_c, 1, 49, 0
2, 70400, Note_on_c, 1, 55, 127
2, 70400, Note_off_c, 1, 56, 0
2, 70400, Note_on_c, 1, 60, 127
2, 70400, Note_off_c, 1, 66, 0
2, 70440, Note_off_c, 1, 40, 0
2, 70440, Note_off_c, 1, 46, 0
2, 70440, Note_on_c, 1, 50, 127
2, 70440, Note_on_c, 1, 52, 127
2, 70440, Note_on_c, 1, 57, 127
2, 70440, Note_off_c, 1, 60, 0
2, 70440, Note_on_c, 1, 61, 127
2, 70440, Note_on_c, 1, 81, 127
2, 70480, Note_off_c, 1, 52, 0
2, 70480, Note_off_c, 1, 55, 0
2, 70480, Note_off_c, 1, 57, 0
2, 70480, Note_off_c, 1, 61, 0
2, 70480, Note_on_c, 1, 62, 127
2, 70480, Note_on_c, 1, 71, 127
2, 70480, Note_on_c, 1, 74, 127
2, 70480, Note_on_c, 1, 80, 127
2, 70480, Note_off_c, 1, 81, 0
2, 70520, Note_on_c, 1, 43, 127
2, 70520, Note_on_c, 1, 46, 127
2, 70520, Note_off_c, 1, 62, 0
2, 70520, Note_off_c, 1, 71, 0
2, 70520, Note_off_c, 1, 74, 0
2, 70520, Note_off_c, 1, 80, 0
2, 70560, Note_off_c, 1, 43, 0
2, 70560, Note_off_c, 1, 46, 0
2, 70560, Note_off_c, 1, 50, 0
2, 71400, Note_on_c, 1, 31, 127
2, 71720, Note_off_c, 1, 31, 0
2, 72880, Note_on_c, 1, 41, 127
2, 72880, Note_on_c, 1, 48, 127
2, 72880, Note_on_c, 1, 60, 127
2, 72880, Note_on_c, 1, 68, 127
2, 72880, Note_on_c, 1, 72, 127
2, 74640, Note_off_c, 1, 41, 0
2, 74640, Note_off_c, 1, 48, 0
2, 74640, Note_off_c, 1, 60, 0
2, 74640, Note_off_c, 1, 68, 0
2, 74640, Note_off_c, 1, 72, 0
2, 74720, Note_on_c, 1, 55, 127
2, 74720, Note_on_c, 1, 58, 127
2, 74720, Note_on_c, 1, 62, 127
2, 74720, Note_on_c, 1, 67, 127
2, 74720, Note_on_c, 1, 70, 127
2, 75720, Note_off_c, 1, 58, 0
2, 75720, Note_off_c, 1, 70, 0
2, 75760, Note_on_c, 1, 58, 127
2, 75760, Note_off_c, 1, 67, 0
2, 75760, Note_on_c, 1, 74, 127
2, 76080, Note_off_c, 1, 74, 0
2, 76120, Note_off_c, 1, 55, 0
2, 76120, Note_off_c, 1, 62, 0
2, 76120, Note_on_c, 1, 64, 127
2, 76120, Note_on_c, 1, 72, 127
2, 76120, Note_on_c, 1, 81, 127
2, 76160, Note_off_c, 1, 81, 0
2, 76200, Note_on_c, 1, 47, 127
2, 76200, Note_on_c, 1, 56, 127
2, 76200, Note_off_c, 1, 58, 0
2, 76200, Note_on_c, 1, 59, 127
2, 76200, Note_off_c, 1, 64, 0
2, 76200, Note_on_c, 1, 66, 127
2, 76200, Note_on_c, 1, 71, 127
2, 76200, Note_off_c, 1, 72, 0
2, 76200, Note_on_c, 1, 78, 127
2, 76240, Note_off_c, 1, 47, 0
2, 76240, Note_off_c, 1, 56, 0
2, 76240, Note_on_c, 1, 58, 127
2, 76240, Note_off_c, 1, 59, 0
2, 76240, Note_on_c, 1, 64, 127
2, 76240, Note_off_c, 1, 66, 0
2, 76240, Note_off_c, 1, 71, 0
2, 76240, Note_on_c, 1, 72, 127
2, 76240, Note_off_c, 1, 78, 0
2, 76280, Note_on_c, 1, 43, 127
2, 76280, Note_on_c, 1, 50, 127
2, 76280, Note_off_c, 1, 64, 0
2, 76280, Note_off_c, 1, 72, 0
2, 76280, Note_on_c, 1, 82, 127
2, 76280, Note_on_c, 1, 86, 127
2, 76320, Note_off_c, 1, 43, 0
2, 76320, Note_off_c, 1, 50, 0
2, 76320, Note_on_c, 1, 64, 127
2, 76320, Note_on_c, 1, 72, 127
2, 76320, Note_off_c, 1, 82, 0
2, 76320, Note_off_c, 1, 86, 0
2, 76360, Note_on_c, 1, 81, 127
2, 76400, Note_off_c, 1, 64, 0
2, 76400, Note_off_c, 1, 81, 0
2, 76440, Note_off_c, 1, 58, 0
2, 76440, Note_on_c, 1, 84, 127
2, 76440, Note_on_c, 1, 89, 127
2, 76440, Note_on_c, 1, 93, 127
2, 76440, Note_on_c, 1, 96, 127
2, 76480, Note_on_c, 1, 34, 127
2, 76480, Note_on_c, 1, 41, 127
2, 76480, Note_on_c, 1, 46, 127
2, 76480, Note_off_c, 1, 72, 0
2, 76480, Note_off_c, 1, 84, 0
2, 76480, Note_on_c, 1, 85, 127
2, 76480, Note_off_c, 1, 89, 0
2, 76480, Note_on_c, 1, 90, 127
2, 76480, Note_off_c, 1, 93, 0
2, 76480, Note_off_c, 1, 96, 0
2, 76520, Note_off_c, 1, 34, 0
2, 76520, Note_off_c, 1, 41, 0
2, 76520, Note_on_c, 1, 61, 127
2, 76520, Note_on_c, 1, 67, 127
2, 76520, Note_on_c, 1, 72, 127
2, 76520, Note_off_c, 1, 85, 0
2, 76520, Note_off_c, 1, 90, 0
2, 76560, Note_on_c, 1, 34, 127
2, 76560, Note_on_c, 1, 41, 127
2, 76560, Note_off_c, 1, 61, 0
2, 76560, Note_off_c, 1, 67, 0
2, 76560, Note_off_c, 1, 72, 0
2, 76560, Note_on_c, 1, 85, 127
2, 76560, Note_on_c, 1, 90, 127
2, 76600, Note_off_c, 1, 34, 0
2, 76600, Note_off_c, 1, 41, 0
2, 76600, Note_off_c, 1, 46, 0
2, 76600, Note_on_c, 1, 50, 127
2, 76600, Note_on_c, 1, 54, 127
2, 76600, Note_on_c, 1, 57, 127
2, 76600, Note_on_c, 1, 74, 127
2, 76600, Note_on_c, 1, 78, 127
2, 76600, Note_off_c, 1, 85, 0
2, 76600, Note_off_c, 1, 90, 0
2, 76640, Note_on_c, 1, 42, 127
2, 76640, Note_off_c, 1, 54, 0
2, 76640, Note_off_c, 1, 57, 0
2, 76640, Note_off_c, 1, 74, 0
2, 76640, Note_off_c, 1, 78, 0
2, 76640, Note_on_c, 1, 81, 127
2, 76680, Note_off_c, 1, 42, 0
2, 76680, Note_off_c, 1, 50, 0
2, 76680, Note_on_c, 1, 60, 127
2, 76680, Note_on_c, 1, 62, 127
2, 76680, Note_on_c, 1, 69, 127
2, 76680, Note_off_c, 1, 81, 0
2, 76680, Note_on_c, 1, 84, 127
2, 76720, Note_on_c, 1, 44, 127
2, 76720, Note_on_c, 1, 50, 127
2, 76720, Note_off_c, 1, 60, 0
2, 76720, Note_off_c, 1, 62, 0
2, 76720, Note_on_c, 1, 68, 127
2, 76720, Note_off_c, 1, 69, 0
2, 76720, Note_on_c, 1, 72, 127
2, 76720, Note_off_c, 1, 84, 0
2, 76760, Note_off_c, 1, 44, 0
2, 76760, Note_off_c, 1, 50, 0
2, 76760, Note_off_c, 1, 68, 0
2, 76800, Note_on_c, 1, 38, 127
2, 76800, Note_on_c, 1, 50, 127
2, 76800, Note_on_c, 1, 70, 127
2, 76800, Note_off_c, 1, 72, 0
2, 76800, Note_on_c, 1, 74, 127
2, 76960, Note_off_c, 1, 38, 0
2, 76960, Note_off_c, 1, 50, 0
2, 76960, Note_off_c, 1, 70, 0
2, 76960, Note_off_c, 1, 74, 0
2, 77000, Note_on_c, 1, 38, 127
2, 77000, Note_on_c, 1, 50, 127
2, 77000, Note_on_c, 1, 70, 127
2, 77000, Note_on_c, 1, 74, 127
2, 77160, Note_off_c, 1, 38, 0
2, 77160, Note_off_c, 1, 50, 0
2, 77160, Note_on_c, 1, 57, 127
2, 77160, Note_on_c, 1, 59, 127
2, 77160, Note_off_c, 1, 70, 0
2, 77160, Note_off_c, 1, 74, 0
2, 77160, Note_on_c, 1, 78, 127
2, 77200, Note_on_c, 1, 39, 127
2, 77200, Note_on_c, 1, 51, 127
2, 77200, Note_off_c, 1, 57, 0
2, 77200, Note_off_c, 1, 59, 0
2, 77200, Note_on_c, 1, 68, 127
2, 77200, Note_on_c, 1, 71, 127
2, 77200, Note_on_c, 1, 77, 127
2, 77200, Note_off_c, 1, 78, 0
2, 77200, Note_on_c, 1, 80, 127
2, 77520, Note_off_c, 1, 39, 0
2, 77520, Note_off_c, 1, 51, 0
2, 77520, Note_off_c, 1, 68, 0
2, 77520, Note_off_c, 1, 71, 0
2, 77520, Note_off_c, 1, 77, 0
2, 77520, Note_off_c, 1, 80, 0
2, 77560, Note_on_c, 1, 39, 127
2, 77560, Note_on_c, 1, 51, 127
2, 77560, Note_on_c, 1, 68, 127
2, 77560, Note_on_c, 1, 71, 127
2, 77560, Note_on_c, 1, 77, 127
2, 77560, Note_on_c, 1, 80, 127
2, 77880, Note_off_c, 1, 39, 0
2, 77880, Note_off_c, 1, 51, 0
2, 77880, Note_off_c, 1, 68, 0
2, 77880, Note_off_c, 1, 71, 0
2, 77880, Note_off_c, 1, 77, 0
2, 77880, Note_off_c, 1, 80, 0
2, 77920, Note_on_c, 1, 38, 127
2, 77920, Note_on_c, 1, 50, 127
2, 77920, Note_on_c, 1, 58, 127
2, 77920, Note_on_c, 1, 62, 127
2, 77920, Note_on_c, 1, 67, 127
2, 77920, Note_on_c, 1, 70, 127
2, 78240, Note_off_c, 1, 58, 0
2, 78240, Note_off_c, 1, 62, 0
2, 78240, Note_off_c, 1, 67, 0
2, 78240, Note_off_c, 1, 70, 0
2, 78280, Note_off_c, 1, 38, 0
2, 78280, Note_on_c, 1, 48, 127
2, 78280, Note_off_c, 1, 50, 0
2, 78280, Note_on_c, 1, 55, 127
2, 78280, Note_on_c, 1, 57, 127
2, 78280, Note_on_c, 1, 63, 127
2, 78280, Note_on_c, 1, 69, 127
2, 78280, Note_on_c, 1, 75, 127
2, 78280, Note_on_c, 1, 79, 127
2, 78280, Note_on_c, 1, 81, 127
2, 78360, Note_on_c, 1, 67, 127
2, 78360, Note_off_c, 1, 69, 0
2, 78360, Note_off_c, 1, 75, 0
2, 78360, Note_off_c, 1, 81, 0
2, 78400, Note_off_c, 1, 67, 0
2, 78400, Note_off_c, 1, 79, 0
2, 78440, Note_off_c, 1, 48, 0
2, 78440, Note_off_c, 1, 55, 0
2, 78440, Note_off_c, 1, 57, 0
2, 78440, Note_off_c, 1, 63, 0
2, 78440, Note_on_c, 1, 64, 127
2, 78440, Note_on_c, 1, 71, 127
2, 78440, Note_on_c, 1, 83, 127
2, 78440, Note_on_c, 1, 90, 127
2, 78480, Note_on_c, 1, 48, 127
2, 78480, Note_on_c, 1, 55, 127
2, 78480, Note_on_c, 1, 57, 127
2, 78480, Note_on_c, 1, 63, 127
2, 78480, Note_off_c, 1, 64, 0
2, 78480, Note_on_c, 1, 67, 127
2, 78480, Note_off_c, 1, 71, 0
2, 78480, Note_on_c, 1, 79, 127
2, 78480, Note_off_c, 1, 83, 0
2, 78480, Note_off_c, 1, 90, 0
2, 78600, Note_off_c, 1, 48, 0
2, 78600, Note_off_c, 1, 55, 0
2, 78600, Note_off_c, 1, 57, 0
2, 78600, Note_off_c, 1, 63, 0
2, 78600, Note_off_c, 1, 67, 0
2, 78600, Note_off_c, 1, 79, 0
2, 78640, Note_on_c, 1, 55, 127
2, 78640, Note_on_c, 1, 59, 127
2, 78640, Note_on_c, 1, 62, 127
2, 78640, Note_on_c, 1, 65, 127
2, 78640, Note_on_c, 1, 67, 127
2, 78640, Note_on_c, 1, 91, 127
2, 78720, Note_off_c, 1, 91, 0
2, 78720, Note_on_c, 1, 92, 127
2, 78800, Note_on_c, 1, 91, 127
2, 78800, Note_off_c, 1, 92, 0
2, 78840, Note_off_c, 1, 91, 0
2, 78840, Note_on_c, 1, 92, 127
2, 78920, Note_on_c, 1, 91, 127
2, 78920, Note_off_c, 1, 92, 0
2, 78960, Note_off_c, 1, 55, 0
2, 78960, Note_off_c, 1, 59, 0
2, 78960, Note_off_c, 1, 62, 0
2, 78960, Note_off_c, 1, 65, 0
2, 78960, Note_off_c, 1, 67, 0
2, 78960, Note_off_c, 1, 91, 0
2, 79040, Note_on_c, 1, 45, 127
2, 79040, Note_on_c, 1, 66, 127
2, 79040, Note_on_c, 1, 69, 127
2, 79040, Note_on_c, 1, 81, 127
2, 79320, Note_off_c, 1, 45, 0
2, 79320, Note_off_c, 1, 66, 0
2, 79320, Note_off_c, 1, 69, 0
2, 79320, Note_off_c, 1, 81, 0
2, 79360, Note_on_c, 1, 27, 127
2, 79360, Note_on_c, 1, 30, 127
2, 79360, Note_on_c, 1, 34, 127
2, 79360, Note_on_c, 1, 39, 127
2, 79360, Note_on_c, 1, 51, 127
2, 79360, Note_on_c, 1, 54, 127
2, 79360, Note_on_c, 1, 58, 127
2, 79360, Note_on_c, 1, 63, 127
2, 79680, Note_off_c, 1, 27, 0
2, 79680, Note_off_c, 1, 30, 0
2, 79680, Note_off_c, 1, 34, 0
2, 79680, Note_off_c, 1, 39, 0
2, 79680, Note_off_c, 1, 51, 0
2, 79680, Note_off_c, 1, 54, 0
2, 79680, Note_off_c, 1, 58, 0
2, 79680, Note_off_c, 1, 63, 0
2, 79720, Note_on_c, 1, 27, 127
2, 79720, Note_on_c, 1, 30, 127
2, 79720, Note_on_c, 1, 34, 127
2, 79720, Note_on_c, 1, 39, 127
2, 79720, Note_on_c, 1, 51, 127
2, 79720, Note_on_c, 1, 54, 127
2, 79720, Note_on_c, 1, 58, 127
2, 79720, Note_on_c, 1, 63, 127
2, 80040, Note_off_c, 1, 27, 0
2, 80040, Note_off_c, 1, 30, 0
2, 80040, Note_off_c, 1, 34, 0
2, 80040, Note_off_c, 1, 39, 0
2, 80040, Note_off_c, 1, 51, 0
2, 80040, Note_off_c, 1, 54, 0
2, 80040, Note_off_c, 1, 58, 0
2, 80040, Note_off_c, 1, 63, 0
2, 80080, Note_on_c, 1, 27, 127
2, 80080, Note_on_c, 1, 30, 127
2, 80080, Note_on_c, 1, 34, 127
2, 80080, Note_on_c, 1, 39, 127
2, 80080, Note_on_c, 1, 51, 127
2, 80080, Note_on_c, 1, 54, 127
2, 80080, Note_on_c, 1, 58, 127
2, 80080, Note_on_c, 1, 63, 127
2, 80400, Note_off_c, 1, 27, 0
2, 80400, Note_off_c, 1, 30, 0
2, 80400, Note_off_c, 1, 34, 0
2, 80400, Note_off_c, 1, 39, 0
2, 80400, Note_off_c, 1, 51, 0
2, 80400, Note_off_c, 1, 54, 0
2, 80400, Note_off_c, 1, 58, 0
2, 80400, Note_off_c, 1, 63, 0
2, 80440, Note_on_c, 1, 66, 127
2, 80440, Note_on_c, 1, 73, 127
2, 80440, Note_on_c, 1, 78, 127
2, 80440, Note_on_c, 1, 81, 127
2, 80440, Note_on_c, 1, 85, 127
2, 80440, Note_on_c, 1, 93, 127
2, 80720, Note_on_c, 1, 34, 127
2, 80720, Note_on_c, 1, 53, 127
2, 80720, Note_on_c, 1, 61, 127
2, 80720, Note_off_c, 1, 66, 0
2, 80720, Note_off_c, 1, 73, 0
2, 80720, Note_off_c, 1, 78, 0
2, 80720, Note_off_c, 1, 81, 0
2, 80720, Note_off_c, 1, 85, 0
2, 80720, Note_off_c, 1, 93, 0
2, 80760, Note_off_c, 1, 34, 0
2, 80760, Note_off_c, 1, 53, 0
2, 80760, Note_off_c, 1, 61, 0
2, 80800, Note_on_c, 1, 55, 127
2, 80800, Note_on_c, 1, 57, 127
2, 80800, Note_on_c, 1, 64, 127
2, 80800, Note_on_c, 1, 73, 127
2, 81040, Note_off_c, 1, 55, 0
2, 81040, Note_off_c, 1, 57, 0
2, 81040, Note_off_c, 1, 64, 0
2, 81040, Note_off_c, 1, 73, 0
2, 81080, Note_on_c, 1, 55, 127
2, 81080, Note_on_c, 1, 57, 127
2, 81080, Note_on_c, 1, 64, 127
2, 81080, Note_on_c, 1, 73, 127
2, 81120, Note_off_c, 1, 55, 0
2, 81120, Note_off_c, 1, 57, 0
2, 81120, Note_off_c, 1, 64, 0
2, 81120, Note_off_c, 1, 73, 0
2, 81160, Note_on_c, 1, 64, 127
2, 81160, Note_on_c, 1, 73, 127
2, 81160, Note_on_c, 1, 75, 127
2, 81160, Note_on_c, 1, 76, 127
2, 81160, Note_on_c, 1, 78, 127
2, 81160, Note_on_c, 1, 80, 127
2, 81200, Note_on_c, 1, 44, 127
2, 81200, Note_on_c, 1, 56, 127
2, 81200, Note_on_c, 1, 60, 127
2, 81200, Note_on_c, 1, 63, 127
2, 81200, Note_off_c, 1, 64, 0
2, 81200, Note_on_c, 1, 68, 127
2, 81200, Note_on_c, 1, 72, 127
2, 81200, Note_off_c, 1, 73, 0
2, 81200, Note_off_c, 1, 76, 0
2, 81200, Note_off_c, 1, 78, 0
2, 81240, Note_off_c, 1, 44, 0
2, 81240, Note_on_c, 1, 48, 127
2, 81240, Note_on_c, 1, 51, 127
2, 81240, Note_off_c, 1, 56, 0
2, 81240, Note_on_c, 1, 67, 127
2, 81240, Note_off_c, 1, 68, 0
2, 81240, Note_off_c, 1, 72, 0
2, 81240, Note_off_c, 1, 75, 0
2, 81240, Note_off_c, 1, 80, 0
2, 81280, Note_off_c, 1, 48, 0
2, 81280, Note_off_c, 1, 51, 0
2, 81280, Note_on_c, 1, 56, 127
2, 81280, Note_on_c, 1, 59, 127
2, 81280, Note_off_c, 1, 60, 0
2, 81280, Note_off_c, 1, 63, 0
2, 81280, Note_on_c, 1, 64, 127
2, 81280, Note_off_c, 1, 67, 0
2, 81280, Note_on_c, 1, 82, 127
2, 81320, Note_off_c, 1, 56, 0
2, 81320, Note_off_c, 1, 59, 0
2, 81320, Note_off_c, 1, 64, 0
2, 81320, Note_on_c, 1, 65, 127
2, 81320, Note_on_c, 1, 71, 127
2, 81320, Note_off_c, 1, 82, 0
2, 81320, Note_on_c, 1, 83, 127
2, 81320, Note_on_c, 1, 92, 127
2, 81360, Note_on_c, 1, 43, 127
2, 81360, Note_on_c, 1, 51, 127
2, 81360, Note_off_c, 1, 65, 0
2, 81360, Note_off_c, 1, 71, 0
2, 81360, Note_on_c, 1, 73, 127
2, 81360, Note_on_c, 1, 82, 127
2, 81360, Note_off_c, 1, 83, 0
2, 81360, Note_off_c, 1, 92, 0
2, 81400, Note_off_c, 1, 43, 0
2, 81400, Note_off_c, 1, 51, 0
2, 81400, Note_on_c, 1, 59, 127
2, 81400, Note_on_c, 1, 66, 127
2, 81400, Note_on_c, 1, 69, 127
2, 81400, Note_on_c, 1, 72, 127
2, 81400, Note_off_c, 1, 73, 0
2, 81400, Note_on_c, 1, 78, 127
2, 81400, Note_off_c, 1, 82, 0
2, 81440, Note_on_c, 1, 43, 127
2, 81440, Note_on_c, 1, 51, 127
2, 81440, Note_off_c, 1, 59, 0
2, 81440, Note_off_c, 1, 66, 0
2, 81440, Note_off_c, 1, 69, 0
2, 81440, Note_off_c, 1, 72, 0
2, 81440, Note_off_c, 1, 78, 0
2, 81440, Note_on_c, 1, 82, 127
2, 81480, Note_off_c, 1, 43, 0
2, 81480, Note_off_c, 1, 51, 0
2, 81480, Note_off_c, 1, 82, 0
2, 81520, Note_on_c, 1, 57, 127
2, 81520, Note_on_c, 1, 61, 127
2, 81520, Note_on_c, 1, 66, 127
2, 81520, Note_on_c, 1, 91, 127
2, 81840, Note_off_c, 1, 57, 0
2, 81840, Note_off_c, 1, 66, 0
2, 81840, Note_off_c, 1, 91, 0
2, 81880, Note_on_c, 1, 95, 127
2, 82200, Note_off_c, 1, 61, 0
2, 82200, Note_off_c, 1, 95, 0
2, 82240, Note_on_c, 1, 49, 127
2, 82240, Note_on_c, 1, 56, 127
2, 82240, Note_on_c, 1, 59, 127
2, 82240, Note_on_c, 1, 62, 127
2, 82240, Note_on_c, 1, 66, 127
2, 82280, Note_off_c, 1, 49, 0
2, 82280, Note_off_c, 1, 56, 0
2, 82280, Note_off_c, 1, 59, 0
2, 82280, Note_off_c, 1, 62, 0
2, 82280, Note_on_c, 1, 88, 127
2, 82280, Note_on_c, 1, 100, 127
2, 82320, Note_on_c, 1, 49, 127
2, 82320, Note_on_c, 1, 56, 127
2, 82320, Note_on_c, 1, 59, 127
2, 82320, Note_on_c, 1, 62, 127
2, 82320, Note_off_c, 1, 88, 0
2, 82320, Note_off_c, 1, 100, 0
2, 82360, Note_off_c, 1, 49, 0
2, 82360, Note_off_c, 1, 56, 0
2, 82360, Note_on_c, 1, 57, 127
2, 82360, Note_off_c, 1, 59, 0
2, 82360, Note_on_c, 1, 61, 127
2, 82360, Note_off_c, 1, 62, 0
2, 82360, Note_on_c, 1, 63, 127
2, 82360, Note_off_c, 1, 66, 0
2, 82360, Note_on_c, 1, 73, 127
2, 82400, Note_on_c, 1, 49, 127
2, 82400, Note_on_c, 1, 56, 127
2, 82400, Note_off_c, 1, 57, 0
2, 82400, Note_on_c, 1, 59, 127
2, 82400, Note_off_c, 1, 61, 0
2, 82400, Note_on_c, 1, 62, 127
2, 82400, Note_off_c, 1, 63, 0
2, 82400, Note_on_c, 1, 66, 127
2, 82400, Note_off_c, 1, 73, 0
2, 82520, Note_off_c, 1, 49, 0
2, 82520, Note_on_c, 1, 51, 127
2, 82520, Note_on_c, 1, 54, 127
2, 82520, Note_off_c, 1, 56, 0
2, 82520, Note_on_c, 1, 58, 127
2, 82520, Note_off_c, 1, 59, 0
2, 82520, Note_off_c, 1, 62, 0
2, 82520, Note_off_c, 1, 66, 0
2, 82520, Note_on_c, 1, 70, 127
2, 82520, Note_on_c, 1, 75, 127
2, 82520, Note_on_c, 1, 78, 127
2, 82520, Note_on_c, 1, 82, 127
2, 82560, Note_off_c, 1, 51, 0
2, 82560, Note_off_c, 1, 54, 0
2, 82560, Note_off_c, 1, 58, 0
2, 82560, Note_off_c, 1, 70, 0
2, 82560, Note_off_c, 1, 75, 0
2, 82560, Note_off_c, 1, 78, 0
2, 82560, Note_off_c, 1, 82, 0
2, 82600, Note_on_c, 1, 66, 127
2, 82600, Note_on_c, 1, 70, 127
2, 82600, Note_on_c, 1, 73, 127
2, 82600, Note_on_c, 1, 76, 127
2, 82600, Note_on_c, 1, 82, 127
2, 82600, Note_on_c, 1, 85, 127
2, 82600, Note_on_c, 1, 90, 127
2, 82720, Note_off_c, 1, 82, 0
2, 82720, Note_off_c, 1, 85, 0
2, 82720, Note_off_c, 1, 90, 0
2, 82760, Note_on_c, 1, 82, 127
2, 82760, Note_on_c, 1, 85, 127
2, 82760, Note_on_c, 1, 90, 127
2, 82920, Note_off_c, 1, 66, 0
2, 82920, Note_off_c, 1, 70, 0
2, 82920, Note_off_c, 1, 73, 0
2, 82920, Note_off_c, 1, 76, 0
2, 82920, Note_off_c, 1, 82, 0
2, 82920, Note_off_c, 1, 85, 0
2, 82920, Note_off_c, 1, 90, 0
2, 83000, Note_on_c, 1, 34, 127
2, 83000, Note_on_c, 1, 57, 127
2, 83000, Note_on_c, 1, 60, 127
2, 83000, Note_on_c, 1, 65, 127
2, 83000, Note_on_c, 1, 69, 127
2, 83000, Note_on_c, 1, 72, 127
2, 83000, Note_on_c, 1, 77, 127
2, 83280, Note_off_c, 1, 34, 0
2, 83280, Note_off_c, 1, 57, 0
2, 83280, Note_off_c, 1, 60, 0
2, 83280, Note_off_c, 1, 65, 0
2, 83280, Note_off_c, 1, 69, 0
2, 83280, Note_off_c, 1, 72, 0
2, 83280, Note_off_c, 1, 77, 0
2, 83320, Note_on_c, 1, 34, 127
2, 83320, Note_on_c, 1, 57, 127
2, 83320, Note_on_c, 1, 60, 127
2, 83320, Note_on_c, 1, 65, 127
2, 83320, Note_on_c, 1, 69, 127
2, 83320, Note_on_c, 1, 72, 127
2, 83320, Note_on_c, 1, 77, 127
2, 83520, Note_on_c, 1, 32, 127
2, 83520, Note_off_c, 1, 34, 0
2, 83520, Note_on_c, 1, 44, 127
2, 83520, Note_off_c, 1, 57, 0
2, 83520, Note_on_c, 1, 59, 127
2, 83520, Note_off_c, 1, 60, 0
2, 83520, Note_on_c, 1, 63, 127
2, 83520, Note_off_c, 1, 65, 0
2, 83520, Note_off_c, 1, 69, 0
2, 83520, Note_on_c, 1, 71, 127
2, 83520, Note_off_c, 1, 72, 0
2, 83520, Note_off_c, 1, 77, 0
2, 83640, Note_off_c, 1, 32, 0
2, 83640, Note_off_c, 1, 44, 0
2, 83640, Note_off_c, 1, 59, 0
2, 83640, Note_off_c, 1, 63, 0
2, 83640, Note_off_c, 1, 71, 0
2, 83680, Note_on_c, 1, 32, 127
2, 83680, Note_on_c, 1, 44, 127
2, 83680, Note_on_c, 1, 59, 127
2, 83680, Note_on_c, 1, 68, 127
2, 83840, Note_off_c, 1, 59, 0
2, 83840, Note_on_c, 1, 63, 127
2, 83840, Note_off_c, 1, 68, 0
2, 83880, Note_on_c, 1, 59, 127
2, 83880, Note_off_c, 1, 63, 0
2, 83880, Note_on_c, 1, 68, 127
2, 84000, Note_off_c, 1, 32, 0
2, 84000, Note_off_c, 1, 44, 0
2, 84000, Note_off_c, 1, 59, 0
2, 84000, Note_off_c, 1, 68, 0
2, 84040, Note_on_c, 1, 35, 127
2, 84040, Note_on_c, 1, 47, 127
2, 84040, Note_on_c, 1, 55, 127
2, 84040, Note_on_c, 1, 62, 127
2, 84040, Note_on_c, 1, 65, 127
2, 85000, Note_off_c, 1, 35, 0
2, 85000, Note_off_c, 1, 47, 0
2, 85000, Note_off_c, 1, 55, 0
2, 85000, Note_off_c, 1, 62, 0
2, 85000, Note_off_c, 1, 65, 0
2, 85040, Note_on_c, 1, 35, 127
2, 85040, Note_on_c, 1, 47, 127
2, 85040, Note_on_c, 1, 55, 127
2, 85040, Note_on_c, 1, 62, 127
2, 85040, Note_on_c, 1, 65, 127
2, 85080, Note_off_c, 1, 35, 0
2, 85080, Note_off_c, 1, 47, 0
2, 85080, Note_off_c, 1, 55, 0
2, 85080, Note_off_c, 1, 62, 0
2, 85080, Note_off_c, 1, 65, 0
2, 85120, Note_on_c, 1, 50, 127
2, 85120, Note_on_c, 1, 57, 127
2, 85120, Note_on_c, 1, 65, 127
2, 85120, Note_on_c, 1, 69, 127
2, 85120, Note_on_c, 1, 74, 127
2, 85800, Note_off_c, 1, 50, 0
2, 85800, Note_off_c, 1, 57, 0
2, 85800, Note_off_c, 1, 65, 0
2, 85800, Note_off_c, 1, 69, 0
2, 85800, Note_off_c, 1, 74, 0
2, 85840, Note_on_c, 1, 51, 127
2, 85840, Note_on_c, 1, 58, 127
2, 85840, Note_on_c, 1, 67, 127
2, 85840, Note_on_c, 1, 75, 127
2, 86160, Note_off_c, 1, 75, 0
2, 86200, Note_on_c, 1, 86, 127
2, 86440, Note_off_c, 1, 86, 0
2, 86480, Note_on_c, 1, 72, 127
2, 86520, Note_off_c, 1, 51, 0
2, 86520, Note_off_c, 1, 58, 0
2, 86520, Note_off_c, 1, 67, 0
2, 86520, Note_off_c, 1, 72, 0
2, 86560, Note_on_c, 1, 31, 127
2, 86560, Note_on_c, 1, 43, 127
2, 86560, Note_on_c, 1, 58, 127
2, 86560, Note_on_c, 1, 62, 127
2, 86560, Note_on_c, 1, 67, 127
2, 87120, Note_off_c, 1, 31, 0
2, 87120, Note_off_c, 1, 43, 0
2, 87120, Note_off_c, 1, 58, 0
2, 87120, Note_off_c, 1, 62, 0
2, 87120, Note_off_c, 1, 67, 0
2, 87160, Note_on_c, 1, 31, 127
2, 87160, Note_on_c, 1, 43, 127
2, 87160, Note_on_c, 1, 58, 127
2, 87160, Note_on_c, 1, 62, 127
2, 87160, Note_on_c, 1, 67, 127
2, 87280, Note_on_c, 1, 55, 127
2, 87960, Note_off_c, 1, 31, 0
2, 87960, Note_off_c, 1, 43, 0
2, 87960, Note_off_c, 1, 55, 0
2, 87960, Note_off_c, 1, 58, 0
2, 87960, Note_off_c, 1, 62, 0
2, 87960, Note_off_c, 1, 67, 0
2, 88000, Note_on_c, 1, 43, 127
2, 88000, Note_on_c, 1, 47, 127
2, 88000, Note_on_c, 1, 55, 127
2, 88000, Note_on_c, 1, 62, 127
2, 88280, Note_off_c, 1, 62, 0
2, 88280, Note_on_c, 1, 63, 127
2, 88320, Note_on_c, 1, 62, 127
2, 88320, Note_off_c, 1, 63, 0
2, 88680, Note_off_c, 1, 43, 0
2, 88680, Note_off_c, 1, 55, 0
2, 88680, Note_off_c, 1, 62, 0
2, 88720, Note_on_c, 1, 43, 127
2, 88720, Note_on_c, 1, 55, 127
2, 88720, Note_on_c, 1, 62, 127
2, 89120, Note_off_c, 1, 43, 0
2, 89120, Note_off_c, 1, 47, 0
2, 89120, Note_off_c, 1, 55, 0
2, 89120, Note_off_c, 1, 62, 0
2, 89160, Note_on_c, 1, 43, 127
2, 89160, Note_on_c, 1, 47, 127
2, 89160, Note_on_c, 1, 55, 127
2, 89160, Note_on_c, 1, 62, 127
2, 89400, Note_off_c, 1, 43, 0
2, 89400, Note_off_c, 1, 47, 0
2, 89400, Note_off_c, 1, 55, 0
2, 89400, Note_off_c, 1, 62, 0
2, 89440, Note_on_c, 1, 38, 127
2, 89440, Note_on_c, 1, 42, 127
2, 89440, Note_on_c, 1, 50, 127
2, 89440, Note_on_c, 1, 78, 127
2, 89440, Note_on_c, 1, 90, 127
2, 89760, Note_off_c, 1, 38, 0
2, 89760, Note_off_c, 1, 42, 0
2, 89760, Note_off_c, 1, 50, 0
2, 89760, Note_off_c, 1, 78, 0
2, 89760, Note_off_c, 1, 90, 0
2, 89800, Note_on_c, 1, 38, 127
2, 89800, Note_on_c, 1, 42, 127
2, 89800, Note_on_c, 1, 50, 127
2, 89800, Note_on_c, 1, 78, 127
2, 89800, Note_on_c, 1, 90, 127
2, 90120, Note_off_c, 1, 38, 0
2, 90120, Note_off_c, 1, 42, 0
2, 90120, Note_off_c, 1, 50, 0
2, 90120, Note_off_c, 1, 78, 0
2, 90120, Note_off_c, 1, 90, 0
2, 90160, Note_on_c, 1, 43, 127
2, 90160, Note_on_c, 1, 50, 127
2, 90160, Note_on_c, 1, 62, 127
2, 90160, Note_on_c, 1, 71, 127
2, 90160, Note_on_c, 1, 74, 127
2, 90800, Note_off_c, 1, 43, 0
2, 90800, Note_off_c, 1, 50, 0
2, 90800, Note_on_c, 1, 55, 127
2, 90800, Note_off_c, 1, 62, 0
2, 90800, Note_on_c, 1, 67, 127
2, 90800, Note_off_c, 1, 71, 0
2, 90800, Note_off_c, 1, 74, 0
2, 90840, Note_on_c, 1, 48, 127
2, 90840, Note_off_c, 1, 55, 0
2, 90840, Note_on_c, 1, 60, 127
2, 90840, Note_off_c, 1, 67, 0
2, 90840, Note_on_c, 1, 75, 127
2, 90840, Note_on_c, 1, 79, 127
2, 90840, Note_on_c, 1, 87, 127
2, 91080, Note_off_c, 1, 48, 0
2, 91080, Note_off_c, 1, 60, 0
2, 91080, Note_off_c, 1, 75, 0
2, 91080, Note_off_c, 1, 79, 0
2, 91080, Note_off_c, 1, 87, 0
2, 91120, Note_on_c, 1, 48, 127
2, 91120, Note_on_c, 1, 60, 127
2, 91120, Note_on_c, 1, 75, 127
2, 91120, Note_on_c, 1, 79, 127
2, 91120, Note_on_c, 1, 87, 127
2, 91360, Note_off_c, 1, 48, 0
2, 91360, Note_on_c, 1, 50, 127
2, 91360, Note_on_c, 1, 59, 127
2, 91360, Note_off_c, 1, 60, 0
2, 91360, Note_on_c, 1, 66, 127
2, 91360, Note_on_c, 1, 69, 127
2, 91360, Note_off_c, 1, 75, 0
2, 91360, Note_off_c, 1, 79, 0
2, 91360, Note_on_c, 1, 81, 127
2, 91360, Note_off_c, 1, 87, 0
2, 91400, Note_on_c, 1, 48, 127
2, 91400, Note_off_c, 1, 50, 0
2, 91400, Note_off_c, 1, 59, 0
2, 91400, Note_on_c, 1, 60, 127
2, 91400, Note_off_c, 1, 66, 0
2, 91400, Note_off_c, 1, 69, 0
2, 91400, Note_on_c, 1, 75, 127
2, 91400, Note_on_c, 1, 79, 127
2, 91400, Note_off_c, 1, 81, 0
2, 91400, Note_on_c, 1, 87, 127
2, 91520, Note_off_c, 1, 48, 0
2, 91520, Note_off_c, 1, 60, 0
2, 91520, Note_off_c, 1, 75, 0
2, 91520, Note_off_c, 1, 79, 0
2, 91520, Note_off_c, 1, 87, 0
2, 91600, Note_on_c, 1, 35, 127
2, 91600, Note_on_c, 1, 45, 127
2, 91600, Note_on_c, 1, 47, 127
2, 91600, Note_on_c, 1, 76, 127
2, 91600, Note_on_c, 1, 79, 127
2, 91600, Note_on_c, 1, 88, 127
2, 92640, Note_off_c, 1, 35, 0
2, 92640, Note_on_c, 1, 44, 127
2, 92640, Note_off_c, 1, 45, 0
2, 92640, Note_off_c, 1, 47, 0
2, 92640, Note_on_c, 1, 63, 127
2, 92640, Note_on_c, 1, 68, 127
2, 92640, Note_on_c, 1, 73, 127
2, 92640, Note_on_c, 1, 75, 127
2, 92640, Note_off_c, 1, 76, 0
2, 92640, Note_off_c, 1, 79, 0
2, 92640, Note_off_c, 1, 88, 0
2, 92680, Note_off_c, 1, 44, 0
2, 92680, Note_on_c, 1, 53, 127
2, 92680, Note_on_c, 1, 57, 127
2, 92680, Note_on_c, 1, 60, 127
2, 92680, Note_off_c, 1, 63, 0
2, 92680, Note_off_c, 1, 68, 0
2, 92680, Note_off_c, 1, 75, 0
2, 92720, Note_on_c, 1, 41, 127
2, 92720, Note_on_c, 1, 51, 127
2, 92720, Note_off_c, 1, 53, 0
2, 92720, Note_on_c, 1, 63, 127
2, 92720, Note_off_c, 1, 73, 0
2, 92760, Note_off_c, 1, 41, 0
2, 92760, Note_on_c, 1, 48, 127
2, 92760, Note_off_c, 1, 51, 0
2, 92760, Note_on_c, 1, 56, 127
2, 92760, Note_off_c, 1, 57, 0
2, 92760, Note_off_c, 1, 60, 0
2, 92760, Note_off_c, 1, 63, 0
2, 92760, Note_on_c, 1, 90, 127
2, 92800, Note_off_c, 1, 48, 0
2, 92800, Note_on_c, 1, 53, 127
2, 92800, Note_off_c, 1, 56, 0
2, 92800, Note_on_c, 1, 58, 127
2, 92800, Note_on_c, 1, 60, 127
2, 92800, Note_on_c, 1, 64, 127
2, 92800, Note_on_c, 1, 84, 127
2, 92800, Note_off_c, 1, 90, 0
2, 92840, Note_on_c, 1, 44, 127
2, 92840, Note_on_c, 1, 51, 127
2, 92840, Note_off_c, 1, 53, 0
2, 92840, Note_off_c, 1, 58, 0
2, 92840, Note_off_c, 1, 64, 0
2, 92840, Note_on_c, 1, 80, 127
2, 92840, Note_off_c, 1, 84, 0
2, 92840, Note_on_c, 1, 92, 127
2, 92880, Note_on_c, 1, 35, 127
2, 92880, Note_off_c, 1, 44, 0
2, 92880, Note_on_c, 1, 47, 127
2, 92880, Note_off_c, 1, 51, 0
2, 92880, Note_on_c, 1, 52, 127
2, 92880, Note_on_c, 1, 56, 127
2, 92880, Note_off_c, 1, 60, 0
2, 92880, Note_on_c, 1, 61, 127
2, 92880, Note_off_c, 1, 80, 0
2, 92880, Note_off_c, 1, 92, 0
2, 92920, Note_off_c, 1, 35, 0
2, 92920, Note_off_c, 1, 47, 0
2, 92920, Note_off_c, 1, 52, 0
2, 92920, Note_off_c, 1, 56, 0
2, 92920, Note_off_c, 1, 61, 0
2, 92960, Note_on_c, 1, 40, 127
2, 92960, Note_on_c, 1, 41, 127
2, 92960, Note_on_c, 1, 93, 127
2, 92960, Note_on_c, 1, 101, 127
2, 93000, Note_off_c, 1, 40, 0
2, 93000, Note_off_c, 1, 41, 0
2, 93000, Note_off_c, 1, 93, 0
2, 93000, Note_off_c, 1, 101, 0
2, 93040, Note_on_c, 1, 49, 127
2, 93040, Note_on_c, 1, 53, 127
2, 93040, Note_on_c, 1, 56, 127
2, 93040, Note_on_c, 1, 61, 127
2, 93040, Note_on_c, 1, 73, 127
2, 93040, Note_on_c, 1, 77, 127
2, 93040, Note_on_c, 1, 80, 127
2, 93040, Note_on_c, 1, 85, 127
2, 93840, Note_off_c, 1, 49, 0
2, 93840, Note_off_c, 1, 53, 0
2, 93840, Note_off_c, 1, 56, 0
2, 93840, Note_off_c, 1, 61, 0
2, 93840, Note_off_c, 1, 73, 0
2, 93840, Note_off_c, 1, 77, 0
2, 93840, Note_off_c, 1, 80, 0
2, 93840, Note_off_c, 1, 85, 0
2, 94400, Note_on_c, 1, 57, 127
2, 94400, Note_on_c, 1, 64, 127
2, 94400, Note_on_c, 1, 69, 127
2, 94400, Note_on_c, 1, 72, 127
2, 94400, Note_on_c, 1, 78, 127
2, 94440, Note_off_c, 1, 57, 0
2, 94440, Note_off_c, 1, 64, 0
2, 94440, Note_on_c, 1, 67, 127
2, 94440, Note_off_c, 1, 69, 0
2, 94440, Note_off_c, 1, 72, 0
2, 94440, Note_on_c, 1, 73, 127
2, 94440, Note_on_c, 1, 76, 127
2, 94440, Note_off_c, 1, 78, 0
2, 94440, Note_on_c, 1, 80, 127
2, 94480, Note_off_c, 1, 67, 0
2, 94480, Note_off_c, 1, 73, 0
2, 94480, Note_off_c, 1, 76, 0
2, 94480, Note_off_c, 1, 80, 0
2, 94600, Note_on_c, 1, 45, 127
2, 94600, Note_on_c, 1, 57, 127
2, 94600, Note_on_c, 1, 85, 127
2, 94600, Note_on_c, 1, 88, 127
2, 94600, Note_on_c, 1, 97, 127
2, 94640, Note_off_c, 1, 45, 0
2, 94640, Note_off_c, 1, 57, 0
2, 94640, Note_off_c, 1, 85, 0
2, 94640, Note_off_c, 1, 88, 0
2, 94640, Note_off_c, 1, 97, 0
2, 94760, Note_on_c, 1, 47, 127
2, 94760, Note_on_c, 1, 63, 127
2, 94760, Note_on_c, 1, 66, 127
2, 94760, Note_on_c, 1, 71, 127
2, 94760, Note_on_c, 1, 83, 127
2, 94880, Note_off_c, 1, 47, 0
2, 94880, Note_off_c, 1, 63, 0
2, 94880, Note_off_c, 1, 66, 0
2, 94880, Note_off_c, 1, 71, 0
2, 94880, Note_off_c, 1, 83, 0
2, 94920, Note_on_c, 1, 47, 127
2, 94920, Note_on_c, 1, 63, 127
2, 94920, Note_on_c, 1, 66, 127
2, 94920, Note_on_c, 1, 71, 127
2, 94920, Note_on_c, 1, 83, 127
2, 95080, Note_off_c, 1, 63, 0
2, 95080, Note_off_c, 1, 66, 0
2, 95080, Note_off_c, 1, 71, 0
2, 95080, Note_off_c, 1, 83, 0
2, 95160, Note_on_c, 1, 63, 127
2, 95160, Note_on_c, 1, 66, 127
2, 95160, Note_on_c, 1, 71, 127
2, 95160, Note_on_c, 1, 83, 127
2, 95400, Note_off_c, 1, 63, 0
2, 95400, Note_off_c, 1, 66, 0
2, 95400, Note_off_c, 1, 71, 0
2, 95400, Note_off_c, 1, 83, 0
2, 95440, Note_off_c, 1, 47, 0
2, 95440, Note_on_c, 1, 49, 127
2, 95480, Note_off_c, 1, 49, 0
2, 95520, Note_on_c, 1, 47, 127
2, 95520, Note_on_c, 1, 59, 127
2, 95520, Note_on_c, 1, 66, 127
2, 95520, Note_on_c, 1, 71, 127
2, 95520, Note_on_c, 1, 74, 127
2, 95800, Note_off_c, 1, 47, 0
2, 95800, Note_off_c, 1, 59, 0
2, 95800, Note_off_c, 1, 66, 0
2, 95800, Note_off_c, 1, 71, 0
2, 95800, Note_off_c, 1, 74, 0
2, 95880, Note_on_c, 1, 47, 127
2, 95880, Note_on_c, 1, 59, 127
2, 95880, Note_on_c, 1, 66, 127
2, 95880, Note_on_c, 1, 71, 127
2, 95880, Note_on_c, 1, 74, 127
2, 96160, Note_off_c, 1, 47, 0
2, 96160, Note_off_c, 1, 59, 0
2, 96160, Note_off_c, 1, 66, 0
2, 96160, Note_off_c, 1, 71, 0
2, 96160, Note_off_c, 1, 74, 0
2, 96240, Note_on_c, 1, 52, 127
2, 96240, Note_on_c, 1, 59, 127
2, 96240, Note_on_c, 1, 64, 127
2, 96240, Note_on_c, 1, 68, 127
2, 96520, Note_off_c, 1, 52, 0
2, 96520, Note_off_c, 1, 59, 0
2, 96520, Note_off_c, 1, 64, 0
2, 96520, Note_off_c, 1, 68, 0
2, 96600, Note_on_c, 1, 51, 127
2, 96600, Note_on_c, 1, 64, 127
2, 96600, Note_on_c, 1, 68, 127
2, 96600, Note_on_c, 1, 72, 127
2, 96840, Note_off_c, 1, 51, 0
2, 96840, Note_off_c, 1, 64, 0
2, 96840, Note_off_c, 1, 68, 0
2, 96840, Note_off_c, 1, 72, 0
2, 96880, Note_on_c, 1, 51, 127
2, 96880, Note_on_c, 1, 64, 127
2, 96880, Note_on_c, 1, 68, 127
2, 96880, Note_on_c, 1, 72, 127
2, 96920, Note_off_c, 1, 51, 0
2, 96920, Note_off_c, 1, 64, 0
2, 96920, Note_off_c, 1, 68, 0
2, 96920, Note_off_c, 1, 72, 0
2, 96960, Note_on_c, 1, 47, 127
2, 96960, Note_on_c, 1, 63, 127
2, 96960, Note_on_c, 1, 69, 127
2, 96960, Note_on_c, 1, 71, 127
2, 97280, Note_on_c, 1, 45, 127
2, 97280, Note_off_c, 1, 47, 0
2, 97280, Note_off_c, 1, 63, 0
2, 97280, Note_off_c, 1, 69, 0
2, 97280, Note_off_c, 1, 71, 0
2, 97320, Note_off_c, 1, 45, 0
2, 97320, Note_on_c, 1, 47, 127
2, 97320, Note_on_c, 1, 54, 127
2, 97320, Note_on_c, 1, 63, 127
2, 97320, Note_on_c, 1, 75, 127
2, 97600, Note_off_c, 1, 47, 0
2, 97600, Note_off_c, 1, 54, 0
2, 97600, Note_off_c, 1, 63, 0
2, 97600, Note_off_c, 1, 75, 0
2, 97680, Note_on_c, 1, 49, 127
2, 97680, Note_on_c, 1, 52, 127
2, 97680, Note_on_c, 1, 54, 127
2, 97680, Note_on_c, 1, 61, 127
2, 97680, Note_on_c, 1, 73, 127
2, 97800, Note_off_c, 1, 54, 0
2, 97800, Note_off_c, 1, 61, 0
2, 97800, Note_on_c, 1, 64, 127
2, 97800, Note_off_c, 1, 73, 0
2, 97800, Note_on_c, 1, 76, 127
2, 97840, Note_on_c, 1, 54, 127
2, 97840, Note_on_c, 1, 61, 127
2, 97840, Note_off_c, 1, 64, 0
2, 97840, Note_on_c, 1, 73, 127
2, 97840, Note_off_c, 1, 76, 0
2, 97960, Note_off_c, 1, 49, 0
2, 97960, Note_off_c, 1, 52, 0
2, 97960, Note_off_c, 1, 54, 0
2, 97960, Note_off_c, 1, 61, 0
2, 97960, Note_off_c, 1, 73, 0
2, 98000, Note_on_c, 1, 49, 127
2, 98000, Note_on_c, 1, 52, 127
2, 98000, Note_on_c, 1, 54, 127
2, 98000, Note_on_c, 1, 61, 127
2, 98000, Note_on_c, 1, 73, 127
2, 98160, Note_off_c, 1, 54, 0
2, 98160, Note_off_c, 1, 61, 0
2, 98160, Note_on_c, 1, 64, 127
2, 98160, Note_off_c, 1, 73, 0
2, 98160, Note_on_c, 1, 76, 127
2, 98320, Note_off_c, 1, 49, 0
2, 98320, Note_off_c, 1, 52, 0
2, 98320, Note_off_c, 1, 64, 0
2, 98320, Note_off_c, 1, 76, 0
2, 98360, Note_on_c, 1, 38, 127
2, 98360, Note_on_c, 1, 47, 127
2, 98360, Note_on_c, 1, 50, 127
2, 98360, Note_on_c, 1, 66, 127
2, 98360, Note_on_c, 1, 74, 127
2, 98360, Note_on_c, 1, 78, 127
2, 98640, Note_off_c, 1, 38, 0
2, 98640, Note_off_c, 1, 47, 0
2, 98640, Note_off_c, 1, 50, 0
2, 98640, Note_off_c, 1, 66, 0
2, 98640, Note_off_c, 1, 74, 0
2, 98640, Note_off_c, 1, 78, 0
2, 98720, Note_on_c, 1, 54, 127
2, 98720, Note_on_c, 1, 57, 127
2, 98720, Note_on_c, 1, 62, 127
2, 98720, Note_on_c, 1, 66, 127
2, 98840, Note_off_c, 1, 54, 0
2, 98840, Note_off_c, 1, 57, 0
2, 98840, Note_off_c, 1, 62, 0
2, 98840, Note_off_c, 1, 66, 0
2, 98920, Note_on_c, 1, 57, 127
2, 98920, Note_on_c, 1, 62, 127
2, 98920, Note_on_c, 1, 66, 127
2, 98920, Note_on_c, 1, 69, 127
2, 99040, Note_off_c, 1, 57, 0
2, 99040, Note_off_c, 1, 62, 0
2, 99040, Note_off_c, 1, 66, 0
2, 99040, Note_off_c, 1, 69, 0
2, 99080, Note_on_c, 1, 52, 127
2, 99080, Note_on_c, 1, 61, 127
2, 99080, Note_on_c, 1, 64, 127
2, 99080, Note_on_c, 1, 69, 127
2, 99080, Note_on_c, 1, 73, 127
2, 99080, Note_on_c, 1, 81, 127
2, 99400, Note_off_c, 1, 52, 0
2, 99400, Note_off_c, 1, 61, 0
2, 99400, Note_off_c, 1, 64, 0
2, 99400, Note_off_c, 1, 69, 0
2, 99400, Note_off_c, 1, 73, 0
2, 99400, Note_off_c, 1, 81, 0
2, 99440, Note_on_c, 1, 52, 127
2, 99440, Note_on_c, 1, 61, 127
2, 99440, Note_on_c, 1, 64, 127
2, 99440, Note_on_c, 1, 69, 127
2, 99440, Note_on_c, 1, 73, 127
2, 99440, Note_on_c, 1, 81, 127
2, 99560, Note_on_c, 1, 34, 127
2, 99560, Note_on_c, 1, 46, 127
2, 99560, Note_off_c, 1, 52, 0
2, 99560, Note_on_c, 1, 55, 127
2, 99560, Note_off_c, 1, 61, 0
2, 99560, Note_on_c, 1, 62, 127
2, 99560, Note_off_c, 1, 64, 0
2, 99560, Note_off_c, 1, 69, 0
2, 99560, Note_off_c, 1, 73, 0
2, 99560, Note_off_c, 1, 81, 0
2, 99600, Note_off_c, 1, 34, 0
2, 99600, Note_off_c, 1, 46, 0
2, 99600, Note_on_c, 1, 52, 127
2, 99600, Note_off_c, 1, 55, 0
2, 99600, Note_on_c, 1, 61, 127
2, 99600, Note_off_c, 1, 62, 0
2, 99600, Note_on_c, 1, 64, 127
2, 99600, Note_on_c, 1, 69, 127
2, 99600, Note_on_c, 1, 73, 127
2, 99600, Note_on_c, 1, 81, 127
2, 99720, Note_on_c, 1, 49, 127
2, 99720, Note_off_c, 1, 52, 0
2, 99720, Note_off_c, 1, 64, 0
2, 99720, Note_on_c, 1, 66, 127
2, 99720, Note_on_c, 1, 68, 127
2, 99720, Note_off_c, 1, 69, 0
2, 99720, Note_off_c, 1, 73, 0
2, 99720, Note_off_c, 1, 81, 0
2, 99760, Note_off_c, 1, 49, 0
2, 99760, Note_off_c, 1, 61, 0
2, 99760, Note_off_c, 1, 66, 0
2, 99760, Note_off_c, 1, 68, 0
2, 99800, Note_on_c, 1, 52, 127
2, 99800, Note_on_c, 1, 61, 127
2, 99800, Note_on_c, 1, 64, 127
2, 99800, Note_on_c, 1, 69, 127
2, 99800, Note_on_c, 1, 73, 127
2, 99800, Note_on_c, 1, 81, 127
2, 100080, Note_off_c, 1, 52, 0
2, 100080, Note_off_c, 1, 61, 0
2, 100080, Note_off_c, 1, 64, 0
2, 100080, Note_off_c, 1, 69, 0
2, 100080, Note_off_c, 1, 73, 0
2, 100080, Note_off_c, 1, 81, 0
2, 100160, Note_on_c, 1, 52, 127
2, 100160, Note_on_c, 1, 61, 127
2, 100160, Note_on_c, 1, 64, 127
2, 100160, Note_on_c, 1, 69, 127
2, 100160, Note_on_c, 1, 73, 127
2, 100160, Note_on_c, 1, 81, 127
2, 100280, Note_on_c, 1, 38, 127
2, 100280, Note_on_c, 1, 50, 127
2, 100280, Note_off_c, 1, 52, 0
2, 100280, Note_off_c, 1, 61, 0
2, 100280, Note_off_c, 1, 64, 0
2, 100280, Note_on_c, 1, 66, 127
2, 100280, Note_off_c, 1, 73, 0
2, 100280, Note_on_c, 1, 78, 127
2, 100280, Note_off_c, 1, 81, 0
2, 100320, Note_off_c, 1, 38, 0
2, 100320, Note_off_c, 1, 50, 0
2, 100320, Note_on_c, 1, 52, 127
2, 100320, Note_on_c, 1, 61, 127
2, 100320, Note_on_c, 1, 64, 127
2, 100320, Note_off_c, 1, 66, 0
2, 100320, Note_on_c, 1, 73, 127
2, 100320, Note_off_c, 1, 78, 0
2, 100320, Note_on_c, 1, 81, 127
2, 100440, Note_off_c, 1, 52, 0
2, 100440, Note_off_c, 1, 61, 0
2, 100440, Note_off_c, 1, 64, 0
2, 100440, Note_off_c, 1, 69, 0
2, 100440, Note_off_c, 1, 73, 0
2, 100440, Note_off_c, 1, 81, 0
2, 100480, Note_on_c, 1, 52, 127
2, 100480, Note_on_c, 1, 61, 127
2, 100480, Note_on_c, 1, 64, 127
2, 100480, Note_on_c, 1, 69, 127
2, 100480, Note_on_c, 1, 73, 127
2, 100480, Note_on_c, 1, 81, 127
2, 100800, Note_off_c, 1, 52, 0
2, 100800, Note_off_c, 1, 61, 0
2, 100800, Note_off_c, 1, 64, 0
2, 100800, Note_off_c, 1, 69, 0
2, 100800, Note_off_c, 1, 73, 0
2, 100800, Note_off_c, 1, 81, 0
2, 100840, Note_on_c, 1, 52, 127
2, 100840, Note_on_c, 1, 61, 127
2, 100840, Note_on_c, 1, 64, 127
2, 100840, Note_on_c, 1, 69, 127
2, 100840, Note_on_c, 1, 73, 127
2, 100840, Note_on_c, 1, 81, 127
2, 100960, Note_off_c, 1, 52, 0
2, 100960, Note_off_c, 1, 61, 0
2, 100960, Note_off_c, 1, 64, 0
2, 100960, Note_off_c, 1, 69, 0
2, 100960, Note_off_c, 1, 73, 0
2, 100960, Note_off_c, 1, 81, 0
2, 101000, Note_on_c, 1, 52, 127
2, 101000, Note_on_c, 1, 61, 127
2, 101000, Note_on_c, 1, 64, 127
2, 101000, Note_on_c, 1, 69, 127
2, 101000, Note_on_c, 1, 73, 127
2, 101000, Note_on_c, 1, 81, 127
2, 101160, Note_off_c, 1, 52, 0
2, 101160, Note_off_c, 1, 61, 0
2, 101160, Note_off_c, 1, 64, 0
2, 101160, Note_off_c, 1, 69, 0
2, 101160, Note_off_c, 1, 73, 0
2, 101160, Note_off_c, 1, 81, 0
2, 101240, Note_on_c, 1, 52, 127
2, 101240, Note_on_c, 1, 61, 127
2, 101240, Note_on_c, 1, 64, 127
2, 101240, Note_on_c, 1, 69, 127
2, 101240, Note_on_c, 1, 73, 127
2, 101240, Note_on_c, 1, 81, 127
2, 101360, Note_on_c, 1, 45, 127
2, 101360, Note_off_c, 1, 52, 0
2, 101360, Note_on_c, 1, 54, 127
2, 101360, Note_off_c, 1, 61, 0
2, 101360, Note_off_c, 1, 64, 0
2, 101360, Note_off_c, 1, 69, 0
2, 101360, Note_off_c, 1, 73, 0
2, 101360, Note_on_c, 1, 74, 127
2, 101360, Note_off_c, 1, 81, 0
2, 101400, Note_off_c, 1, 45, 0
2, 101400, Note_on_c, 1, 52, 127
2, 101400, Note_off_c, 1, 54, 0
2, 101400, Note_on_c, 1, 61, 127
2, 101400, Note_on_c, 1, 64, 127
2, 101400, Note_on_c, 1, 69, 127
2, 101400, Note_on_c, 1, 73, 127
2, 101400, Note_off_c, 1, 74, 0
2, 101400, Note_on_c, 1, 81, 127
2, 101520, Note_off_c, 1, 52, 0
2, 101520, Note_off_c, 1, 61, 0
2, 101520, Note_off_c, 1, 64, 0
2, 101520, Note_off_c, 1, 69, 0
2, 101520, Note_off_c, 1, 73, 0
2, 101520, Note_off_c, 1, 81, 0
2, 101600, Note_on_c, 1, 52, 127
2, 101600, Note_on_c, 1, 61, 127
2, 101600, Note_on_c, 1, 64, 127
2, 101600, Note_on_c, 1, 69, 127
2, 101600, Note_on_c, 1, 73, 127
2, 101600, Note_on_c, 1, 81, 127
2, 101880, Note_off_c, 1, 52, 0
2, 101880, Note_off_c, 1, 61, 0
2, 101880, Note_off_c, 1, 64, 0
2, 101880, Note_off_c, 1, 69, 0
2, 101880, Note_off_c, 1, 73, 0
2, 101880, Note_off_c, 1, 81, 0
2, 101920, Note_on_c, 1, 52, 127
2, 101920, Note_on_c, 1, 61, 127
2, 101920, Note_on_c, 1, 64, 127
2, 101920, Note_on_c, 1, 69, 127
2, 101920, Note_on_c, 1, 73, 127
2, 101920, Note_on_c, 1, 81, 127
2, 102080, Note_off_c, 1, 52, 0
2, 102080, Note_off_c, 1, 61, 0
2, 102080, Note_off_c, 1, 64, 0
2, 102080, Note_off_c, 1, 69, 0
2, 102080, Note_off_c, 1, 73, 0
2, 102080, Note_off_c, 1, 81, 0
2, 102120, Note_on_c, 1, 52, 127
2, 102120, Note_on_c, 1, 61, 127
2, 102120, Note_on_c, 1, 64, 127
2, 102120, Note_on_c, 1, 69, 127
2, 102120, Note_on_c, 1, 73, 127
2, 102120, Note_on_c, 1, 81, 127
2, 102240, Note_off_c, 1, 52, 0
2, 102240, Note_off_c, 1, 61, 0
2, 102240, Note_off_c, 1, 64, 0
2, 102240, Note_off_c, 1, 69, 0
2, 102240, Note_off_c, 1, 73, 0
2, 102240, Note_off_c, 1, 81, 0
2, 102280, Note_on_c, 1, 52, 127
2, 102280, Note_on_c, 1, 61, 127
2, 102280, Note_on_c, 1, 64, 127
2, 102280, Note_on_c, 1, 69, 127
2, 102280, Note_on_c, 1, 73, 127
2, 102280, Note_on_c, 1, 81, 127
2, 102400, Note_off_c, 1, 52, 0
2, 102400, Note_off_c, 1, 61, 0
2, 102400, Note_off_c, 1, 64, 0
2, 102400, Note_off_c, 1, 69, 0
2, 102400, Note_off_c, 1, 73, 0
2, 102400, Note_off_c, 1, 81, 0
2, 102480, Note_on_c, 1, 52, 127
2, 102480, Note_on_c, 1, 61, 127
2, 102480, Note_on_c, 1, 64, 127
2, 102480, Note_on_c, 1, 69, 127
2, 102480, Note_on_c, 1, 73, 127
2, 102480, Note_on_c, 1, 81, 127
2, 102600, Note_off_c, 1, 52, 0
2, 102600, Note_off_c, 1, 61, 0
2, 102600, Note_off_c, 1, 64, 0
2, 102600, Note_off_c, 1, 69, 0
2, 102600, Note_off_c, 1, 73, 0
2, 102600, Note_off_c, 1, 81, 0
2, 102640, Note_on_c, 1, 52, 127
2, 102640, Note_on_c, 1, 61, 127
2, 102640, Note_on_c, 1, 64, 127
2, 102640, Note_on_c, 1, 69, 127
2, 102640, Note_on_c, 1, 73, 127
2, 102640, Note_on_c, 1, 81, 127
2, 102760, Note_on_c, 1, 38, 127
2, 102760, Note_on_c, 1, 47, 127
2, 102760, Note_off_c, 1, 52, 0
2, 102760, Note_off_c, 1, 61, 0
2, 102760, Note_off_c, 1, 64, 0
2, 102760, Note_on_c, 1, 68, 127
2, 102760, Note_off_c, 1, 69, 0
2, 102760, Note_off_c, 1, 73, 0
2, 102760, Note_on_c, 1, 80, 127
2, 102760, Note_off_c, 1, 81, 0
2, 102800, Note_off_c, 1, 38, 0
2, 102800, Note_off_c, 1, 47, 0
2, 102800, Note_off_c, 1, 68, 0
2, 102800, Note_off_c, 1, 80, 0
2, 102840, Note_on_c, 1, 52, 127
2, 102840, Note_on_c, 1, 61, 127
2, 102840, Note_on_c, 1, 64, 127
2, 102840, Note_on_c, 1, 69, 127
2, 102840, Note_on_c, 1, 73, 127
2, 102840, Note_on_c, 1, 81, 127
2, 102960, Note_off_c, 1, 52, 0
2, 102960, Note_off_c, 1, 61, 0
2, 102960, Note_off_c, 1, 64, 0
2, 102960, Note_off_c, 1, 69, 0
2, 102960, Note_off_c, 1, 73, 0
2, 102960, Note_off_c, 1, 81, 0
2, 103000, Note_on_c, 1, 52, 127
2, 103000, Note_on_c, 1, 61, 127
2, 103000, Note_on_c, 1, 64, 127
2, 103000, Note_on_c, 1, 69, 127
2, 103000, Note_on_c, 1, 73, 127
2, 103000, Note_on_c, 1, 81, 127
2, 103120, Note_off_c, 1, 52, 0
2, 103120, Note_off_c, 1, 61, 0
2, 103120, Note_off_c, 1, 64, 0
2, 103120, Note_off_c, 1, 69, 0
2, 103120, Note_off_c, 1, 73, 0
2, 103120, Note_off_c, 1, 81, 0
2, 103240, Note_on_c, 1, 52, 127
2, 103240, Note_on_c, 1, 61, 127
2, 103240, Note_on_c, 1, 64, 127
2, 103240, Note_on_c, 1, 69, 127
2, 103240, Note_on_c, 1, 73, 127
2, 103240, Note_on_c, 1, 81, 127
2, 103360, Note_off_c, 1, 52, 0
2, 103360, Note_off_c, 1, 61, 0
2, 103360, Note_off_c, 1, 64, 0
2, 103360, Note_off_c, 1, 69, 0
2, 103360, Note_off_c, 1, 73, 0
2, 103360, Note_off_c, 1, 81, 0
2, 103400, Note_on_c, 1, 52, 127
2, 103400, Note_on_c, 1, 57, 127
2, 103400, Note_on_c, 1, 64, 127
2, 103400, Note_on_c, 1, 67, 127
2, 103400, Note_on_c, 1, 69, 127
2, 103400, Note_on_c, 1, 79, 127
2, 103520, Note_off_c, 1, 52, 0
2, 103520, Note_off_c, 1, 57, 0
2, 103520, Note_off_c, 1, 64, 0
2, 103520, Note_off_c, 1, 67, 0
2, 103520, Note_off_c, 1, 69, 0
2, 103520, Note_off_c, 1, 79, 0
2, 103600, Note_on_c, 1, 52, 127
2, 103600, Note_on_c, 1, 57, 127
2, 103600, Note_on_c, 1, 64, 127
2, 103600, Note_on_c, 1, 67, 127
2, 103600, Note_on_c, 1, 69, 127
2, 103600, Note_on_c, 1, 79, 127
2, 103720, Note_off_c, 1, 52, 0
2, 103720, Note_off_c, 1, 57, 0
2, 103720, Note_off_c, 1, 64, 0
2, 103720, Note_off_c, 1, 67, 0
2, 103720, Note_off_c, 1, 69, 0
2, 103720, Note_off_c, 1, 79, 0
2, 103760, Note_on_c, 1, 54, 127
2, 103760, Note_on_c, 1, 57, 127
2, 103760, Note_on_c, 1, 66, 127
2, 103760, Note_on_c, 1, 69, 127
2, 103760, Note_on_c, 1, 81, 127
2, 103880, Note_off_c, 1, 54, 0
2, 103880, Note_off_c, 1, 57, 0
2, 103880, Note_off_c, 1, 66, 0
2, 103880, Note_off_c, 1, 69, 0
2, 103880, Note_off_c, 1, 81, 0
2, 103920, Note_on_c, 1, 54, 127
2, 103920, Note_on_c, 1, 57, 127
2, 103920, Note_on_c, 1, 66, 127
2, 103920, Note_on_c, 1, 69, 127
2, 103920, Note_on_c, 1, 81, 127
2, 104080, Note_off_c, 1, 54, 0
2, 104080, Note_off_c, 1, 57, 0
2, 104080, Note_off_c, 1, 66, 0
2, 104080, Note_off_c, 1, 69, 0
2, 104080, Note_off_c, 1, 81, 0
2, 104120, Note_on_c, 1, 47, 127
2, 104120, Note_on_c, 1, 59, 127
2, 104120, Note_on_c, 1, 62, 127
2, 104120, Note_on_c, 1, 66, 127
2, 104120, Note_on_c, 1, 74, 127
2, 104240, Note_off_c, 1, 47, 0
2, 104240, Note_off_c, 1, 59, 0
2, 104240, Note_off_c, 1, 62, 0
2, 104240, Note_off_c, 1, 66, 0
2, 104240, Note_off_c, 1, 74, 0
2, 104280, Note_on_c, 1, 49, 127
2, 104280, Note_on_c, 1, 56, 127
2, 104280, Note_on_c, 1, 68, 127
2, 104280, Note_on_c, 1, 73, 127
2, 104280, Note_on_c, 1, 76, 127
2, 104280, Note_on_c, 1, 80, 127
2, 104440, Note_off_c, 1, 49, 0
2, 104440, Note_off_c, 1, 56, 0
2, 104440, Note_off_c, 1, 68, 0
2, 104440, Note_off_c, 1, 73, 0
2, 104440, Note_off_c, 1, 76, 0
2, 104440, Note_off_c, 1, 80, 0
2, 104480, Note_on_c, 1, 57, 127
2, 104480, Note_on_c, 1, 66, 127
2, 104480, Note_on_c, 1, 85, 127
2, 104600, Note_off_c, 1, 57, 0
2, 104600, Note_off_c, 1, 66, 0
2, 104600, Note_off_c, 1, 85, 0
2, 104640, Note_on_c, 1, 62, 127
2, 104640, Note_on_c, 1, 66, 127
2, 104640, Note_on_c, 1, 71, 127
2, 104640, Note_on_c, 1, 85, 127
2, 104800, Note_off_c, 1, 62, 0
2, 104800, Note_off_c, 1, 66, 0
2, 104800, Note_off_c, 1, 71, 0
2, 104800, Note_off_c, 1, 85, 0
2, 104840, Note_on_c, 1, 49, 127
2, 104840, Note_on_c, 1, 55, 127
2, 104840, Note_on_c, 1, 61, 127
2, 104840, Note_on_c, 1, 64, 127
2, 104880, Note_off_c, 1, 55, 0
2, 104880, Note_on_c, 1, 59, 127
2, 104880, Note_off_c, 1, 61, 0
2, 104880, Note_off_c, 1, 64, 0
2, 104880, Note_on_c, 1, 68, 127
2, 104880, Note_on_c, 1, 73, 127
2, 104880, Note_on_c, 1, 77, 127
2, 104920, Note_off_c, 1, 49, 0
2, 104920, Note_on_c, 1, 53, 127
2, 104920, Note_on_c, 1, 57, 127
2, 104920, Note_off_c, 1, 59, 0
2, 104920, Note_on_c, 1, 64, 127
2, 104920, Note_off_c, 1, 68, 0
2, 104920, Note_off_c, 1, 77, 0
2, 104960, Note_off_c, 1, 53, 0
2, 104960, Note_off_c, 1, 57, 0
2, 104960, Note_off_c, 1, 64, 0
2, 104960, Note_off_c, 1, 73, 0
2, 105000, Note_on_c, 1, 47, 127
2, 105000, Note_on_c, 1, 59, 127
2, 105000, Note_on_c, 1, 62, 127
2, 105000, Note_on_c, 1, 66, 127
2, 105120, Note_off_c, 1, 47, 0
2, 105120, Note_off_c, 1, 59, 0
2, 105120, Note_off_c, 1, 62, 0
2, 105120, Note_off_c, 1, 66, 0
2, 105240, Note_on_c, 1, 54, 127
2, 105240, Note_on_c, 1, 59, 127
2, 105240, Note_on_c, 1, 62, 127
2, 105240, Note_on_c, 1, 66, 127
2, 105360, Note_off_c, 1, 54, 0
2, 105360, Note_off_c, 1, 59, 0
2, 105360, Note_off_c, 1, 62, 0
2, 105360, Note_off_c, 1, 66, 0
2, 105400, Note_on_c, 1, 57, 127
2, 105400, Note_on_c, 1, 64, 127
2, 105400, Note_on_c, 1, 68, 127
2, 105400, Note_on_c, 1, 71, 127
2, 105520, Note_off_c, 1, 57, 0
2, 105520, Note_off_c, 1, 64, 0
2, 105520, Note_off_c, 1, 68, 0
2, 105520, Note_off_c, 1, 71, 0
2, 105560, Note_on_c, 1, 59, 127
2, 105560, Note_on_c, 1, 64, 127
2, 105560, Note_on_c, 1, 68, 127
2, 105560, Note_on_c, 1, 71, 127
2, 105680, Note_off_c, 1, 59, 0
2, 105680, Note_off_c, 1, 64, 0
2, 105680, Note_off_c, 1, 68, 0
2, 105680, Note_off_c, 1, 71, 0
2, 105760, Note_on_c, 1, 39, 127
2, 105760, Note_on_c, 1, 60, 127
2, 105760, Note_on_c, 1, 80, 127
2, 105760, Note_on_c, 1, 84, 127
2, 105800, Note_on_c, 1, 31, 127
2, 105800, Note_on_c, 1, 36, 127
2, 105800, Note_on_c, 1, 38, 127
2, 105800, Note_off_c, 1, 39, 0
2, 105800, Note_off_c, 1, 60, 0
2, 105800, Note_on_c, 1, 71, 127
2, 105800, Note_on_c, 1, 77, 127
2, 105800, Note_off_c, 1, 84, 0
2, 105840, Note_off_c, 1, 31, 0
2, 105840, Note_off_c, 1, 36, 0
2, 105840, Note_off_c, 1, 38, 0
2, 105840, Note_on_c, 1, 46, 127
2, 105840, Note_on_c, 1, 53, 127
2, 105840, Note_on_c, 1, 56, 127
2, 105840, Note_on_c, 1, 62, 127
2, 105840, Note_on_c, 1, 65, 127
2, 105840, Note_off_c, 1, 77, 0
2, 105840, Note_off_c, 1, 80, 0
2, 105880, Note_off_c, 1, 46, 0
2, 105880, Note_off_c, 1, 53, 0
2, 105880, Note_off_c, 1, 56, 0
2, 105880, Note_off_c, 1, 62, 0
2, 105880, Note_off_c, 1, 65, 0
2, 105880, Note_off_c, 1, 71, 0
2, 105920, Note_on_c, 1, 45, 127
2, 105920, Note_on_c, 1, 47, 127
2, 105920, Note_on_c, 1, 57, 127
2, 105920, Note_on_c, 1, 63, 127
2, 105920, Note_on_c, 1, 66, 127
2, 105920, Note_on_c, 1, 71, 127
2, 105920, Note_on_c, 1, 75, 127
2, 106040, Note_off_c, 1, 45, 0
2, 106040, Note_off_c, 1, 47, 0
2, 106040, Note_off_c, 1, 57, 0
2, 106040, Note_off_c, 1, 63, 0
2, 106040, Note_off_c, 1, 66, 0
2, 106040, Note_off_c, 1, 71, 0
2, 106040, Note_off_c, 1, 75, 0
2, 106080, Note_on_c, 1, 45, 127
2, 106080, Note_on_c, 1, 57, 127
2, 106080, Note_on_c, 1, 63, 127
2, 106080, Note_on_c, 1, 66, 127
2, 106080, Note_on_c, 1, 75, 127
2, 106240, Note_off_c, 1, 45, 0
2, 106240, Note_off_c, 1, 57, 0
2, 106240, Note_off_c, 1, 63, 0
2, 106240, Note_off_c, 1, 66, 0
2, 106240, Note_off_c, 1, 75, 0
2, 106280, Note_on_c, 1, 45, 127
2, 106280, Note_on_c, 1, 57, 127
2, 106280, Note_on_c, 1, 63, 127
2, 106280, Note_on_c, 1, 66, 127
2, 106280, Note_on_c, 1, 75, 127
2, 106400, Note_off_c, 1, 45, 0
2, 106400, Note_off_c, 1, 57, 0
2, 106400, Note_off_c, 1, 63, 0
2, 106400, Note_off_c, 1, 66, 0
2, 106400, Note_off_c, 1, 75, 0
2, 106440, Note_on_c, 1, 45, 127
2, 106440, Note_on_c, 1, 57, 127
2, 106440, Note_on_c, 1, 63, 127
2, 106440, Note_on_c, 1, 66, 127
2, 106440, Note_on_c, 1, 75, 127
2, 106560, Note_off_c, 1, 45, 0
2, 106560, Note_off_c, 1, 57, 0
2, 106560, Note_off_c, 1, 63, 0
2, 106560, Note_off_c, 1, 66, 0
2, 106560, Note_off_c, 1, 75, 0
2, 106600, Note_on_c, 1, 45, 127
2, 106600, Note_on_c, 1, 47, 127
2, 106600, Note_on_c, 1, 57, 127
2, 106600, Note_on_c, 1, 63, 127
2, 106600, Note_on_c, 1, 66, 127
2, 106600, Note_on_c, 1, 71, 127
2, 106600, Note_on_c, 1, 75, 127
2, 106760, Note_off_c, 1, 45, 0
2, 106760, Note_off_c, 1, 47, 0
2, 106760, Note_off_c, 1, 57, 0
2, 106760, Note_off_c, 1, 63, 0
2, 106760, Note_off_c, 1, 66, 0
2, 106760, Note_off_c, 1, 71, 0
2, 106760, Note_off_c, 1, 75, 0
2, 106800, Note_on_c, 1, 45, 127
2, 106800, Note_on_c, 1, 47, 127
2, 106800, Note_on_c, 1, 57, 127
2, 106800, Note_on_c, 1, 63, 127
2, 106800, Note_on_c, 1, 66, 127
2, 106800, Note_on_c, 1, 71, 127
2, 106800, Note_on_c, 1, 75, 127
2, 106920, Note_off_c, 1, 45, 0
2, 106920, Note_off_c, 1, 47, 0
2, 106920, Note_off_c, 1, 57, 0
2, 106920, Note_off_c, 1, 63, 0
2, 106920, Note_off_c, 1, 66, 0
2, 106920, Note_off_c, 1, 71, 0
2, 106920, Note_off_c, 1, 75, 0
2, 106960, Note_on_c, 1, 35, 127
2, 106960, Note_on_c, 1, 52, 127
2, 106960, Note_on_c, 1, 64, 127
2, 107080, Note_off_c, 1, 35, 0
2, 107080, Note_off_c, 1, 52, 0
2, 107080, Note_on_c, 1, 57, 127
2, 107080, Note_on_c, 1, 73, 127
2, 107120, Note_off_c, 1, 57, 0
2, 107120, Note_off_c, 1, 64, 0
2, 107120, Note_off_c, 1, 73, 0
2, 107160, Note_on_c, 1, 54, 127
2, 107160, Note_on_c, 1, 58, 127
2, 107160, Note_on_c, 1, 61, 127
2, 107160, Note_on_c, 1, 66, 127
2, 107160, Note_on_c, 1, 82, 127
2, 107160, Note_on_c, 1, 85, 127
2, 107160, Note_on_c, 1, 90, 127
2, 107160, Note_on_c, 1, 94, 127
2, 107280, Note_off_c, 1, 54, 0
2, 107280, Note_off_c, 1, 58, 0
2, 107280, Note_off_c, 1, 61, 0
2, 107280, Note_off_c, 1, 66, 0
2, 107280, Note_off_c, 1, 82, 0
2, 107280, Note_off_c, 1, 85, 0
2, 107280, Note_off_c, 1, 90, 0
2, 107280, Note_off_c, 1, 94, 0
2, 107360, Note_on_c, 1, 54, 127
2, 107360, Note_on_c, 1, 58, 127
2, 107360, Note_on_c, 1, 61, 127
2, 107360, Note_on_c, 1, 66, 127
2, 107360, Note_on_c, 1, 82, 127
2, 107360, Note_on_c, 1, 85, 127
2, 107360, Note_on_c, 1, 90, 127
2, 107360, Note_on_c, 1, 94, 127
2, 107480, Note_off_c, 1, 54, 0
2, 107480, Note_off_c, 1, 58, 0
2, 107480, Note_off_c, 1, 61, 0
2, 107480, Note_off_c, 1, 66, 0
2, 107480, Note_off_c, 1, 82, 0
2, 107480, Note_off_c, 1, 85, 0
2, 107480, Note_off_c, 1, 90, 0
2, 107480, Note_off_c, 1, 94, 0
2, 107520, Note_on_c, 1, 36, 127
2, 107520, Note_on_c, 1, 39, 127
2, 107520, Note_on_c, 1, 44, 127
2, 107520, Note_on_c, 1, 60, 127
2, 107520, Note_on_c, 1, 72, 127
2, 107560, Note_on_c, 1, 32, 127
2, 107560, Note_off_c, 1, 36, 0
2, 107560, Note_off_c, 1, 39, 0
2, 107560, Note_off_c, 1, 44, 0
2, 107680, Note_off_c, 1, 32, 0
2, 107680, Note_off_c, 1, 60, 0
2, 107680, Note_off_c, 1, 72, 0
2, 107720, Note_on_c, 1, 30, 127
2, 107720, Note_on_c, 1, 42, 127
2, 107720, Note_on_c, 1, 60, 127
2, 107720, Note_on_c, 1, 72, 127
2, 107840, Note_off_c, 1, 30, 0
2, 107840, Note_off_c, 1, 42, 0
2, 107840, Note_off_c, 1, 60, 0
2, 107840, Note_off_c, 1, 72, 0
2, 107880, Note_on_c, 1, 25, 127
2, 107880, Note_on_c, 1, 37, 127
2, 107880, Note_on_c, 1, 49, 127
2, 107880, Note_on_c, 1, 61, 127
2, 108000, Note_off_c, 1, 25, 0
2, 108000, Note_off_c, 1, 37, 0
2, 108000, Note_off_c, 1, 49, 0
2, 108000, Note_on_c, 1, 55, 127
2, 108000, Note_off_c, 1, 61, 0
2, 108040, Note_off_c, 1, 55, 0
2, 108080, Note_on_c, 1, 35, 127
2, 108080, Note_on_c, 1, 47, 127
2, 108080, Note_on_c, 1, 79, 127
2, 108080, Note_on_c, 1, 83, 127
2, 108080, Note_on_c, 1, 88, 127
2, 108080, Note_on_c, 1, 91, 127
2, 108120, Note_off_c, 1, 35, 0
2, 108120, Note_off_c, 1, 47, 0
2, 108200, Note_off_c, 1, 79, 0
2, 108200, Note_off_c, 1, 83, 0
2, 108200, Note_off_c, 1, 88, 0
2, 108200, Note_off_c, 1, 91, 0
2, 108240, Note_on_c, 1, 48, 127
2, 108240, Note_on_c, 1, 60, 127
2, 108240, Note_on_c, 1, 67, 127
2, 108240, Note_on_c, 1, 72, 127
2, 108240, Note_on_c, 1, 76, 127
2, 108240, Note_on_c, 1, 79, 127
2, 108360, Note_off_c, 1, 48, 0
2, 108360, Note_off_c, 1, 60, 0
2, 108360, Note_off_c, 1, 67, 0
2, 108360, Note_off_c, 1, 72, 0
2, 108360, Note_off_c, 1, 76, 0
2, 108360, Note_off_c, 1, 79, 0
2, 108400, Note_on_c, 1, 34, 127
2, 108400, Note_on_c, 1, 46, 127
2, 108400, Note_on_c, 1, 67, 127
2, 108400, Note_on_c, 1, 74, 127
2, 108400, Note_on_c, 1, 77, 127
2, 108400, Note_on_c, 1, 79, 127
2, 108560, Note_off_c, 1, 34, 0
2, 108560, Note_off_c, 1, 46, 0
2, 108560, Note_off_c, 1, 67, 0
2, 108560, Note_off_c, 1, 74, 0
2, 108560, Note_off_c, 1, 77, 0
2, 108560, Note_off_c, 1, 79, 0
2, 108600, Note_on_c, 1, 41, 127
2, 108600, Note_on_c, 1, 48, 127
2, 108600, Note_on_c, 1, 53, 127
2, 108600, Note_on_c, 1, 69, 127
2, 108600, Note_on_c, 1, 72, 127
2, 108600, Note_on_c, 1, 77, 127
2, 108600, Note_on_c, 1, 81, 127
2, 108720, Note_off_c, 1, 41, 0
2, 108720, Note_off_c, 1, 48, 0
2, 108720, Note_off_c, 1, 53, 0
2, 108720, Note_off_c, 1, 69, 0
2, 108720, Note_off_c, 1, 72, 0
2, 108720, Note_off_c, 1, 77, 0
2, 108720, Note_off_c, 1, 81, 0
2, 108760, Note_on_c, 1, 69, 127
2, 108760, Note_on_c, 1, 84, 127
2, 108760, Note_on_c, 1, 96, 127
2, 108800, Note_off_c, 1, 69, 0
2, 108800, Note_off_c, 1, 84, 0
2, 108800, Note_off_c, 1, 96, 0
2, 108840, Note_on_c, 1, 69, 127
2, 108840, Note_on_c, 1, 84, 127
2, 108840, Note_on_c, 1, 96, 127
2, 108880, Note_off_c, 1, 69, 0
2, 108880, Note_off_c, 1, 84, 0
2, 108880, Note_off_c, 1, 96, 0
2, 108960, Note_on_c, 1, 69, 127
2, 108960, Note_on_c, 1, 84, 127
2, 108960, Note_on_c, 1, 96, 127
2, 109080, Note_off_c, 1, 69, 0
2, 109080, Note_off_c, 1, 84, 0
2, 109080, Note_off_c, 1, 96, 0
2, 109120, Note_on_c, 1, 69, 127
2, 109120, Note_on_c, 1, 78, 127
2, 109120, Note_on_c, 1, 81, 127
2, 109120, Note_on_c, 1, 93, 127
2, 109240, Note_off_c, 1, 69, 0
2, 109240, Note_off_c, 1, 78, 0
2, 109240, Note_off_c, 1, 81, 0
2, 109240, Note_off_c, 1, 93, 0
2, 109360, Note_on_c, 1, 69, 127
2, 109360, Note_on_c, 1, 78, 127
2, 109360, Note_on_c, 1, 81, 127
2, 109360, Note_on_c, 1, 93, 127
2, 109480, Note_off_c, 1, 69, 0
2, 109480, Note_off_c, 1, 78, 0
2, 109520, Note_on_c, 1, 69, 127
2, 109520, Note_on_c, 1, 78, 127
2, 109640, Note_off_c, 1, 69, 0
2, 109640, Note_off_c, 1, 78, 0
2, 109640, Note_off_c, 1, 81, 0
2, 109640, Note_off_c, 1, 93, 0
2, 109680, Note_on_c, 1, 40, 127
2, 109680, Note_on_c, 1, 54, 127
2, 109680, Note_on_c, 1, 69, 127
2, 109720, Note_off_c, 1, 40, 0
2, 109720, Note_on_c, 1, 47, 127
2, 109720, Note_on_c, 1, 51, 127
2, 109720, Note_on_c, 1, 59, 127
2, 109720, Note_off_c, 1, 69, 0
2, 109720, Note_on_c, 1, 79, 127
2, 109760, Note_on_c, 1, 40, 127
2, 109760, Note_off_c, 1, 47, 0
2, 109760, Note_off_c, 1, 51, 0
2, 109760, Note_off_c, 1, 59, 0
2, 109760, Note_on_c, 1, 61, 127
2, 109760, Note_on_c, 1, 69, 127
2, 109760, Note_on_c, 1, 73, 127
2, 109760, Note_off_c, 1, 79, 0
2, 109800, Note_off_c, 1, 40, 0
2, 109800, Note_off_c, 1, 54, 0
2, 109800, Note_off_c, 1, 61, 0
2, 109800, Note_off_c, 1, 69, 0
2, 109800, Note_off_c, 1, 73, 0
2, 109880, Note_on_c, 1, 57, 127
2, 109880, Note_on_c, 1, 62, 127
2, 109880, Note_on_c, 1, 64, 127
2, 109880, Note_on_c, 1, 67, 127
2, 109880, Note_on_c, 1, 71, 127
2, 109880, Note_on_c, 1, 76, 127
2, 109880, Note_on_c, 1, 83, 127
2, 110000, Note_off_c, 1, 57, 0
2, 110000, Note_off_c, 1, 62, 0
2, 110000, Note_off_c, 1, 64, 0
2, 110000, Note_off_c, 1, 67, 0
2, 110000, Note_off_c, 1, 71, 0
2, 110000, Note_off_c, 1, 76, 0
2, 110000, Note_off_c, 1, 83, 0
2, 110040, Note_on_c, 1, 57, 127
2, 110040, Note_on_c, 1, 62, 127
2, 110040, Note_on_c, 1, 64, 127
2, 110040, Note_on_c, 1, 67, 127
2, 110040, Note_on_c, 1, 71, 127
2, 110040, Note_on_c, 1, 76, 127
2, 110040, Note_on_c, 1, 83, 127
2, 110160, Note_off_c, 1, 57, 0
2, 110160, Note_off_c, 1, 62, 0
2, 110160, Note_off_c, 1, 64, 0
2, 110160, Note_off_c, 1, 67, 0
2, 110160, Note_off_c, 1, 71, 0
2, 110160, Note_off_c, 1, 76, 0
2, 110160, Note_off_c, 1, 83, 0
2, 110200, Note_on_c, 1, 57, 127
2, 110200, Note_on_c, 1, 62, 127
2, 110200, Note_on_c, 1, 64, 127
2, 110200, Note_on_c, 1, 67, 127
2, 110200, Note_on_c, 1, 71, 127
2, 110200, Note_on_c, 1, 76, 127
2, 110200, Note_on_c, 1, 83, 127
2, 110360, Note_off_c, 1, 57, 0
2, 110360, Note_off_c, 1, 62, 0
2, 110360, Note_off_c, 1, 64, 0
2, 110360, Note_off_c, 1, 67, 0
2, 110360, Note_off_c, 1, 71, 0
2, 110360, Note_off_c, 1, 76, 0
2, 110360, Note_off_c, 1, 83, 0
2, 110400, Note_on_c, 1, 57, 127
2, 110400, Note_on_c, 1, 62, 127
2, 110400, Note_on_c, 1, 64, 127
2, 110400, Note_on_c, 1, 67, 127
2, 110400, Note_on_c, 1, 71, 127
2, 110400, Note_on_c, 1, 76, 127
2, 110400, Note_on_c, 1, 83, 127
2, 110520, Note_off_c, 1, 57, 0
2, 110520, Note_off_c, 1, 62, 0
2, 110520, Note_off_c, 1, 64, 0
2, 110520, Note_off_c, 1, 67, 0
2, 110520, Note_off_c, 1, 71, 0
2, 110520, Note_off_c, 1, 76, 0
2, 110520, Note_off_c, 1, 83, 0
2, 110560, Note_on_c, 1, 57, 127
2, 110560, Note_on_c, 1, 62, 127
2, 110560, Note_on_c, 1, 64, 127
2, 110560, Note_on_c, 1, 67, 127
2, 110560, Note_on_c, 1, 71, 127
2, 110560, Note_on_c, 1, 76, 127
2, 110560, Note_on_c, 1, 83, 127
2, 110720, Note_off_c, 1, 57, 0
2, 110720, Note_off_c, 1, 62, 0
2, 110720, Note_off_c, 1, 64, 0
2, 110720, Note_off_c, 1, 67, 0
2, 110720, Note_off_c, 1, 71, 0
2, 110720, Note_off_c, 1, 76, 0
2, 110720, Note_off_c, 1, 83, 0
2, 110760, Note_on_c, 1, 33, 127
2, 110760, Note_on_c, 1, 45, 127
2, 110880, Note_off_c, 1, 33, 0
2, 110880, Note_off_c, 1, 45, 0
2, 110920, Note_on_c, 1, 52, 127
2, 110920, Note_on_c, 1, 59, 127
2, 110920, Note_on_c, 1, 61, 127
2, 110920, Note_on_c, 1, 69, 127
2, 111040, Note_off_c, 1, 52, 0
2, 111040, Note_off_c, 1, 59, 0
2, 111040, Note_off_c, 1, 61, 0
2, 111040, Note_off_c, 1, 69, 0
2, 111120, Note_on_c, 1, 56, 127
2, 111120, Note_on_c, 1, 60, 127
2, 111120, Note_on_c, 1, 62, 127
2, 111120, Note_on_c, 1, 65, 127
2, 111120, Note_on_c, 1, 72, 127
2, 111200, Note_off_c, 1, 56, 0
2, 111200, Note_off_c, 1, 60, 0
2, 111200, Note_off_c, 1, 62, 0
2, 111200, Note_off_c, 1, 65, 0
2, 111200, Note_off_c, 1, 72, 0
2, 111280, Note_on_c, 1, 56, 127
2, 111280, Note_on_c, 1, 60, 127
2, 111280, Note_on_c, 1, 62, 127
2, 111280, Note_on_c, 1, 65, 127
2, 111280, Note_on_c, 1, 72, 127
2, 111360, Note_on_c, 1, 75, 127
2, 111400, Note_off_c, 1, 56, 0
2, 111400, Note_off_c, 1, 60, 0
2, 111400, Note_off_c, 1, 62, 0
2, 111400, Note_off_c, 1, 65, 0
2, 111400, Note_off_c, 1, 72, 0
2, 111400, Note_off_c, 1, 75, 0
2, 111520, Note_on_c, 1, 60, 127
2, 111520, Note_on_c, 1, 63, 127
2, 111520, Note_on_c, 1, 67, 127
2, 111520, Note_on_c, 1, 75, 127
2, 111520, Note_on_c, 1, 87, 127
2, 111640, Note_off_c, 1, 60, 0
2, 111640, Note_off_c, 1, 63, 0
2, 111640, Note_off_c, 1, 67, 0
2, 111640, Note_off_c, 1, 75, 0
2, 111640, Note_off_c, 1, 87, 0
2, 111680, Note_on_c, 1, 39, 127
2, 111680, Note_on_c, 1, 79, 127
2, 111680, Note_on_c, 1, 91, 127
2, 111800, Note_off_c, 1, 39, 0
2, 111800, Note_off_c, 1, 79, 0
2, 111800, Note_off_c, 1, 91, 0
2, 111840, Note_on_c, 1, 39, 127
2, 111840, Note_on_c, 1, 79, 127
2, 111840, Note_on_c, 1, 91, 127
2, 111880, Note_off_c, 1, 39, 0
2, 111920, Note_on_c, 1, 39, 127
2, 111960, Note_off_c, 1, 39, 0
2, 111960, Note_on_c, 1, 43, 127
2, 112000, Note_off_c, 1, 43, 0
2, 112000, Note_off_c, 1, 79, 0
2, 112000, Note_off_c, 1, 91, 0
2, 112040, Note_on_c, 1, 48, 127
2, 112040, Note_on_c, 1, 79, 127
2, 112040, Note_on_c, 1, 91, 127
2, 112160, Note_off_c, 1, 48, 0
2, 112160, Note_off_c, 1, 79, 0
2, 112160, Note_off_c, 1, 91, 0
2, 112200, Note_on_c, 1, 68, 127
2, 112200, Note_on_c, 1, 80, 127
2, 112200, Note_on_c, 1, 89, 127
2, 112320, Note_off_c, 1, 68, 0
2, 112320, Note_off_c, 1, 80, 0
2, 112320, Note_off_c, 1, 89, 0
2, 112360, Note_on_c, 1, 46, 127
2, 112360, Note_on_c, 1, 51, 127
2, 112360, Note_on_c, 1, 69, 127
2, 112400, Note_on_c, 1, 37, 127
2, 112400, Note_off_c, 1, 46, 0
2, 112400, Note_on_c, 1, 49, 127
2, 112400, Note_off_c, 1, 51, 0
2, 112400, Note_on_c, 1, 66, 127
2, 112400, Note_on_c, 1, 68, 127
2, 112400, Note_off_c, 1, 69, 0
2, 112400, Note_on_c, 1, 71, 127
2, 112400, Note_on_c, 1, 75, 127
2, 112440, Note_off_c, 1, 37, 0
2, 112440, Note_on_c, 1, 43, 127
2, 112440, Note_off_c, 1, 49, 0
2, 112440, Note_on_c, 1, 50, 127
2, 112440, Note_on_c, 1, 53, 127
2, 112440, Note_on_c, 1, 62, 127
2, 112440, Note_on_c, 1, 65, 127
2, 112440, Note_off_c, 1, 66, 0
2, 112440, Note_on_c, 1, 67, 127
2, 112440, Note_off_c, 1, 68, 0
2, 112440, Note_off_c, 1, 71, 0
2, 112440, Note_off_c, 1, 75, 0
2, 112480, Note_off_c, 1, 43, 0
2, 112480, Note_off_c, 1, 50, 0
2, 112480, Note_off_c, 1, 53, 0
2, 112480, Note_on_c, 1, 56, 127
2, 112480, Note_off_c, 1, 62, 0
2, 112480, Note_on_c, 1, 63, 127
2, 112480, Note_off_c, 1, 65, 0
2, 112480, Note_off_c, 1, 67, 0
2, 112480, Note_on_c, 1, 82, 127
2, 112480, Note_on_c, 1, 85, 127
2, 112520, Note_off_c, 1, 56, 0
2, 112520, Note_off_c, 1, 63, 0
2, 112520, Note_off_c, 1, 82, 0
2, 112520, Note_off_c, 1, 85, 0
2, 112560, Note_on_c, 1, 83, 127
2, 112560, Note_on_c, 1, 86, 127
2, 112560, Note_on_c, 1, 90, 127
2, 112560, Note_on_c, 1, 95, 127
2, 112680, Note_off_c, 1, 83, 0
2, 112680, Note_off_c, 1, 86, 0
2, 112680, Note_off_c, 1, 90, 0
2, 112680, Note_off_c, 1, 95, 0
2, 112720, Note_on_c, 1, 60, 127
2, 112720, Note_on_c, 1, 64, 127
2, 112720, Note_on_c, 1, 79, 127
2, 112720, Note_on_c, 1, 91, 127
2, 112840, Note_off_c, 1, 60, 0
2, 112840, Note_off_c, 1, 64, 0
2, 112840, Note_off_c, 1, 79, 0
2, 112840, Note_off_c, 1, 91, 0
2, 112920, Note_on_c, 1, 61, 127
2, 112920, Note_on_c, 1, 64, 127
2, 112920, Note_on_c, 1, 73, 127
2, 112920, Note_on_c, 1, 88, 127
2, 112920, Note_on_c, 1, 92, 127
2, 113000, Note_off_c, 1, 61, 0
2, 113000, Note_off_c, 1, 64, 0
2, 113000, Note_off_c, 1, 73, 0
2, 113000, Note_off_c, 1, 88, 0
2, 113000, Note_off_c, 1, 92, 0
2, 113080, Note_on_c, 1, 52, 127
2, 113080, Note_on_c, 1, 60, 127
2, 113080, Note_on_c, 1, 64, 127
2, 113080, Note_on_c, 1, 67, 127
2, 113080, Note_on_c, 1, 72, 127
2, 113080, Note_on_c, 1, 79, 127
2, 113200, Note_off_c, 1, 52, 0
2, 113200, Note_off_c, 1, 60, 0
2, 113200, Note_off_c, 1, 64, 0
2, 113200, Note_off_c, 1, 67, 0
2, 113200, Note_off_c, 1, 72, 0
2, 113200, Note_off_c, 1, 79, 0
2, 113240, Note_on_c, 1, 47, 127
2, 113240, Note_on_c, 1, 55, 127
2, 113240, Note_on_c, 1, 59, 127
2, 113240, Note_on_c, 1, 62, 127
2, 113240, Note_on_c, 1, 67, 127
2, 113240, Note_on_c, 1, 74, 127
2, 113400, Note_off_c, 1, 47, 0
2, 113400, Note_off_c, 1, 55, 0
2, 113400, Note_off_c, 1, 59, 0
2, 113400, Note_off_c, 1, 62, 0
2, 113400, Note_off_c, 1, 67, 0
2, 113400, Note_off_c, 1, 74, 0
2, 113440, Note_on_c, 1, 48, 127
2, 113440, Note_on_c, 1, 55, 127
2, 113440, Note_on_c, 1, 60, 127
2, 113440, Note_on_c, 1, 64, 127
2, 113440, Note_on_c, 1, 67, 127
2, 113440, Note_on_c, 1, 76, 127
2, 113560, Note_off_c, 1, 48, 0
2, 113560, Note_off_c, 1, 55, 0
2, 113560, Note_off_c, 1, 60, 0
2, 113560, Note_off_c, 1, 64, 0
2, 113560, Note_off_c, 1, 67, 0
2, 113560, Note_off_c, 1, 76, 0
2, 113640, Note_on_c, 1, 43, 127
2, 113640, Note_on_c, 1, 50, 127
2, 113640, Note_on_c, 1, 55, 127
2, 113640, Note_on_c, 1, 59, 127
2, 113640, Note_on_c, 1, 67, 127
2, 113640, Note_on_c, 1, 71, 127
2, 113760, Note_off_c, 1, 43, 0
2, 113760, Note_off_c, 1, 50, 0
2, 113760, Note_off_c, 1, 55, 0
2, 113760, Note_off_c, 1, 59, 0
2, 113760, Note_off_c, 1, 67, 0
2, 113760, Note_off_c, 1, 71, 0
2, 113800, Note_on_c, 1, 43, 127
2, 113800, Note_on_c, 1, 50, 127
2, 113800, Note_on_c, 1, 55, 127
2, 113800, Note_on_c, 1, 59, 127
2, 113800, Note_on_c, 1, 67, 127
2, 113800, Note_on_c, 1, 71, 127
2, 113960, Note_off_c, 1, 43, 0
2, 113960, Note_off_c, 1, 50, 0
2, 113960, Note_off_c, 1, 55, 0
2, 113960, Note_off_c, 1, 59, 0
2, 113960, Note_off_c, 1, 67, 0
2, 113960, Note_off_c, 1, 71, 0
2, 114000, Note_on_c, 1, 59, 127
2, 114000, Note_on_c, 1, 65, 127
2, 114000, Note_on_c, 1, 69, 127
2, 114000, Note_on_c, 1, 71, 127
2, 114000, Note_on_c, 1, 75, 127
2, 114000, Note_on_c, 1, 81, 127
2, 114120, Note_off_c, 1, 59, 0
2, 114120, Note_off_c, 1, 65, 0
2, 114120, Note_off_c, 1, 69, 0
2, 114120, Note_off_c, 1, 71, 0
2, 114120, Note_off_c, 1, 75, 0
2, 114120, Note_off_c, 1, 81, 0
2, 114160, Note_on_c, 1, 61, 127
2, 114160, Note_on_c, 1, 66, 127
2, 114160, Note_on_c, 1, 70, 127
2, 114160, Note_on_c, 1, 73, 127
2, 114160, Note_on_c, 1, 78, 127
2, 114160, Note_on_c, 1, 82, 127
2, 114320, Note_off_c, 1, 61, 0
2, 114320, Note_off_c, 1, 66, 0
2, 114320, Note_off_c, 1, 70, 0
2, 114320, Note_off_c, 1, 73, 0
2, 114320, Note_off_c, 1, 78, 0
2, 114320, Note_off_c, 1, 82, 0
2, 114360, Note_on_c, 1, 47, 127
2, 114360, Note_on_c, 1, 63, 127
2, 114360, Note_on_c, 1, 64, 127
2, 114360, Note_on_c, 1, 66, 127
2, 114400, Note_off_c, 1, 47, 0
2, 114400, Note_on_c, 1, 50, 127
2, 114400, Note_on_c, 1, 62, 127
2, 114400, Note_off_c, 1, 63, 0
2, 114400, Note_off_c, 1, 64, 0
2, 114400, Note_off_c, 1, 66, 0
2, 114400, Note_on_c, 1, 69, 127
2, 114400, Note_on_c, 1, 76, 127
2, 114400, Note_on_c, 1, 81, 127
2, 114440, Note_on_c, 1, 47, 127
2, 114440, Note_off_c, 1, 50, 0
2, 114440, Note_on_c, 1, 53, 127
2, 114440, Note_off_c, 1, 62, 0
2, 114440, Note_on_c, 1, 65, 127
2, 114440, Note_on_c, 1, 75, 127
2, 114440, Note_off_c, 1, 76, 0
2, 114440, Note_off_c, 1, 81, 0
2, 114480, Note_off_c, 1, 47, 0
2, 114480, Note_off_c, 1, 53, 0
2, 114480, Note_off_c, 1, 65, 0
2, 114480, Note_off_c, 1, 69, 0
2, 114480, Note_off_c, 1, 75, 0
2, 114520, Note_on_c, 1, 36, 127
2, 114520, Note_on_c, 1, 48, 127
2, 114520, Note_on_c, 1, 80, 127
2, 114520, Note_on_c, 1, 92, 127
2, 114640, Note_off_c, 1, 36, 0
2, 114640, Note_off_c, 1, 48, 0
2, 114640, Note_off_c, 1, 80, 0
2, 114640, Note_off_c, 1, 92, 0
2, 114680, Note_on_c, 1, 43, 127
2, 114680, Note_on_c, 1, 54, 127
2, 114680, Note_on_c, 1, 62, 127
2, 114680, Note_on_c, 1, 71, 127
2, 114840, Note_off_c, 1, 43, 0
2, 114840, Note_off_c, 1, 54, 0
2, 114840, Note_off_c, 1, 62, 0
2, 114840, Note_off_c, 1, 71, 0
2, 114880, Note_on_c, 1, 59, 127
2, 114880, Note_on_c, 1, 66, 127
2, 114880, Note_on_c, 1, 75, 127
2, 114880, Note_on_c, 1, 78, 127
2, 114880, Note_on_c, 1, 83, 127
2, 115000, Note_off_c, 1, 59, 0
2, 115000, Note_off_c, 1, 66, 0
2, 115000, Note_off_c, 1, 75, 0
2, 115000, Note_off_c, 1, 78, 0
2, 115000, Note_off_c, 1, 83, 0
2, 115040, Note_on_c, 1, 49, 127
2, 115040, Note_on_c, 1, 55, 127
2, 115040, Note_on_c, 1, 57, 127
2, 115040, Note_on_c, 1, 76, 127
2, 115040, Note_on_c, 1, 88, 127
2, 115200, Note_off_c, 1, 76, 0
2, 115200, Note_off_c, 1, 88, 0
2, 115240, Note_on_c, 1, 69, 127
2, 115240, Note_on_c, 1, 81, 127
2, 115280, Note_off_c, 1, 49, 0
2, 115280, Note_on_c, 1, 50, 127
2, 115280, Note_off_c, 1, 55, 0
2, 115280, Note_off_c, 1, 57, 0
2, 115280, Note_on_c, 1, 59, 127
2, 115280, Note_on_c, 1, 74, 127
2, 115280, Note_on_c, 1, 78, 127
2, 115280, Note_off_c, 1, 81, 0
2, 115320, Note_on_c, 1, 49, 127
2, 115320, Note_off_c, 1, 50, 0
2, 115320, Note_on_c, 1, 55, 127
2, 115320, Note_on_c, 1, 57, 127
2, 115320, Note_off_c, 1, 59, 0
2, 115320, Note_off_c, 1, 74, 0
2, 115320, Note_off_c, 1, 78, 0
2, 115320, Note_on_c, 1, 81, 127
2, 115360, Note_off_c, 1, 49, 0
2, 115360, Note_off_c, 1, 55, 0
2, 115360, Note_off_c, 1, 57, 0
2, 115400, Note_on_c, 1, 50, 127
2, 115400, Note_on_c, 1, 54, 127
2, 115520, Note_off_c, 1, 50, 0
2, 115520, Note_off_c, 1, 54, 0
2, 115520, Note_off_c, 1, 69, 0
2, 115520, Note_off_c, 1, 81, 0
2, 115560, Note_on_c, 1, 64, 127
2, 115560, Note_on_c, 1, 68, 127
2, 115560, Note_on_c, 1, 71, 127
2, 115560, Note_on_c, 1, 76, 127
2, 115560, Note_on_c, 1, 83, 127
2, 115680, Note_off_c, 1, 64, 0
2, 115680, Note_off_c, 1, 68, 0
2, 115680, Note_off_c, 1, 71, 0
2, 115680, Note_off_c, 1, 76, 0
2, 115680, Note_off_c, 1, 83, 0
2, 115720, Note_on_c, 1, 64, 127
2, 115720, Note_on_c, 1, 68, 127
2, 115720, Note_on_c, 1, 71, 127
2, 115720, Note_on_c, 1, 76, 127
2, 115720, Note_on_c, 1, 83, 127
2, 115760, Note_off_c, 1, 64, 0
2, 115760, Note_off_c, 1, 68, 0
2, 115760, Note_off_c, 1, 76, 0
2, 115800, Note_on_c, 1, 54, 127
2, 115800, Note_on_c, 1, 60, 127
2, 115800, Note_on_c, 1, 64, 127
2, 115800, Note_off_c, 1, 71, 0
2, 115800, Note_off_c, 1, 83, 0
2, 115800, Note_on_c, 1, 100, 127
2, 115800, Note_on_c, 1, 102, 127
2, 115920, Note_off_c, 1, 54, 0
2, 115920, Note_off_c, 1, 60, 0
2, 115920, Note_off_c, 1, 64, 0
2, 115920, Note_off_c, 1, 100, 0
2, 115920, Note_off_c, 1, 102, 0
2, 115960, Note_on_c, 1, 41, 127
2, 115960, Note_on_c, 1, 47, 127
2, 115960, Note_on_c, 1, 53, 127
2, 115960, Note_on_c, 1, 80, 127
2, 115960, Note_on_c, 1, 87, 127
2, 115960, Note_on_c, 1, 92, 127
2, 116080, Note_off_c, 1, 41, 0
2, 116080, Note_off_c, 1, 47, 0
2, 116080, Note_off_c, 1, 53, 0
2, 116080, Note_off_c, 1, 80, 0
2, 116080, Note_off_c, 1, 87, 0
2, 116080, Note_off_c, 1, 92, 0
2, 116120, Note_on_c, 1, 50, 127
2, 116120, Note_on_c, 1, 57, 127
2, 116120, Note_on_c, 1, 65, 127
2, 116120, Note_on_c, 1, 74, 127
2, 116120, Note_on_c, 1, 76, 127
2, 116120, Note_on_c, 1, 86, 127
2, 116120, Note_on_c, 1, 88, 127
2, 116160, Note_off_c, 1, 50, 0
2, 116160, Note_off_c, 1, 57, 0
2, 116160, Note_on_c, 1, 62, 127
2, 116160, Note_on_c, 1, 69, 127
2, 116160, Note_off_c, 1, 76, 0
2, 116160, Note_on_c, 1, 77, 127
2, 116160, Note_on_c, 1, 81, 127
2, 116160, Note_off_c, 1, 86, 0
2, 116160, Note_off_c, 1, 88, 0
2, 116200, Note_on_c, 1, 42, 127
2, 116200, Note_on_c, 1, 52, 127
2, 116200, Note_on_c, 1, 54, 127
2, 116200, Note_off_c, 1, 62, 0
2, 116200, Note_off_c, 1, 65, 0
2, 116200, Note_off_c, 1, 69, 0
2, 116200, Note_on_c, 1, 71, 127
2, 116200, Note_off_c, 1, 74, 0
2, 116200, Note_off_c, 1, 77, 0
2, 116200, Note_off_c, 1, 81, 0
2, 116200, Note_on_c, 1, 83, 127
2, 116240, Note_on_c, 1, 38, 127
2, 116240, Note_off_c, 1, 42, 0
2, 116240, Note_on_c, 1, 46, 127
2, 116240, Note_off_c, 1, 52, 0
2, 116240, Note_off_c, 1, 54, 0
2, 116240, Note_on_c, 1, 62, 127
2, 116240, Note_off_c, 1, 71, 0
2, 116240, Note_on_c, 1, 74, 127
2, 116240, Note_off_c, 1, 83, 0
2, 116280, Note_off_c, 1, 38, 0
2, 116280, Note_off_c, 1, 46, 0
2, 116280, Note_off_c, 1, 62, 0
2, 116280, Note_off_c, 1, 74, 0
2, 116320, Note_on_c, 1, 59, 127
2, 116320, Note_on_c, 1, 61, 127
2, 116320, Note_on_c, 1, 65, 127
2, 116320, Note_on_c, 1, 68, 127
2, 116320, Note_on_c, 1, 73, 127
2, 116320, Note_on_c, 1, 80, 127
2, 116440, Note_off_c, 1, 68, 0
2, 116440, Note_off_c, 1, 73, 0
2, 116440, Note_off_c, 1, 80, 0
2, 116480, Note_on_c, 1, 53, 127
2, 116480, Note_off_c, 1, 59, 0
2, 116480, Note_on_c, 1, 60, 127
2, 116480, Note_off_c, 1, 61, 0
2, 116480, Note_off_c, 1, 65, 0
2, 116480, Note_on_c, 1, 69, 127
2, 116480, Note_on_c, 1, 74, 127
2, 116480, Note_on_c, 1, 77, 127
2, 116600, Note_off_c, 1, 53, 0
2, 116600, Note_off_c, 1, 60, 0
2, 116600, Note_off_c, 1, 69, 0
2, 116600, Note_off_c, 1, 74, 0
2, 116600, Note_off_c, 1, 77, 0
2, 116640, Note_on_c, 1, 38, 127
2, 116640, Note_on_c, 1, 45, 127
2, 116640, Note_on_c, 1, 52, 127
2, 116640, Note_on_c, 1, 57, 127
2, 116800, Note_off_c, 1, 38, 0
2, 116800, Note_off_c, 1, 45, 0
2, 116800, Note_off_c, 1, 52, 0
2, 116800, Note_off_c, 1, 57, 0
2, 116840, Note_on_c, 1, 81, 127
2, 116840, Note_on_c, 1, 84, 127
2, 116840, Note_on_c, 1, 87, 127
2, 116840, Note_on_c, 1, 89, 127
2, 116960, Note_off_c, 1, 81, 0
2, 116960, Note_off_c, 1, 84, 0
2, 116960, Note_off_c, 1, 87, 0
2, 116960, Note_off_c, 1, 89, 0
2, 117000, Note_on_c, 1, 81, 127
2, 117000, Note_on_c, 1, 84, 127
2, 117000, Note_on_c, 1, 87, 127
2, 117000, Note_on_c, 1, 89, 127
2, 117160, Note_off_c, 1, 81, 0
2, 117160, Note_off_c, 1, 84, 0
2, 117160, Note_off_c, 1, 87, 0
2, 117160, Note_off_c, 1, 89, 0
2, 117200, Note_on_c, 1, 81, 127
2, 117200, Note_on_c, 1, 84, 127
2, 117200, Note_on_c, 1, 87, 127
2, 117200, Note_on_c, 1, 89, 127
2, 117320, Note_off_c, 1, 81, 0
2, 117320, Note_off_c, 1, 84, 0
2, 117320, Note_off_c, 1, 87, 0
2, 117320, Note_off_c, 1, 89, 0
2, 117360, Note_on_c, 1, 81, 127
2, 117360, Note_on_c, 1, 84, 127
2, 117360, Note_on_c, 1, 87, 127
2, 117360, Note_on_c, 1, 89, 127
2, 117480, Note_off_c, 1, 81, 0
2, 117480, Note_off_c, 1, 84, 0
2, 117480, Note_off_c, 1, 87, 0
2, 117480, Note_off_c, 1, 89, 0
2, 117520, Note_on_c, 1, 81, 127
2, 117520, Note_on_c, 1, 84, 127
2, 117520, Note_on_c, 1, 87, 127
2, 117520, Note_on_c, 1, 89, 127
2, 117720, Note_off_c, 1, 81, 0
2, 117720, Note_off_c, 1, 84, 0
2, 117720, Note_off_c, 1, 87, 0
2, 117720, Note_off_c, 1, 89, 0
2, 117760, Note_on_c, 1, 81, 127
2, 117760, Note_on_c, 1, 84, 127
2, 117760, Note_on_c, 1, 87, 127
2, 117760, Note_on_c, 1, 89, 127
2, 118040, Note_off_c, 1, 81, 0
2, 118040, Note_off_c, 1, 84, 0
2, 118040, Note_off_c, 1, 87, 0
2, 118040, Note_off_c, 1, 89, 0
2, 118080, Note_on_c, 1, 81, 127
2, 118080, Note_on_c, 1, 84, 127
2, 118080, Note_on_c, 1, 87, 127
2, 118080, Note_on_c, 1, 89, 127
2, 118760, Note_off_c, 1, 81, 0
2, 118760, Note_off_c, 1, 84, 0
2, 118760, Note_off_c, 1, 87, 0
2, 118760, Note_off_c, 1, 89, 0
2, 118960, Note_on_c, 1, 47, 127
2, 118960, Note_on_c, 1, 51, 127
2, 118960, Note_on_c, 1, 54, 127
2, 118960, Note_on_c, 1, 59, 127
2, 119440, Note_off_c, 1, 47, 0
2, 119440, Note_off_c, 1, 51, 0
2, 119440, Note_off_c, 1, 54, 0
2, 119440, Note_off_c, 1, 59, 0
2, 119880, Note_on_c, 1, 57, 127
2, 119880, Note_on_c, 1, 59, 127
2, 119880, Note_on_c, 1, 63, 127
2, 119880, Note_on_c, 1, 66, 127
2, 119880, Note_on_c, 1, 71, 127
2, 119880, Note_on_c, 1, 78, 127
2, 119880, Note_on_c, 1, 83, 127
2, 120000, Note_off_c, 1, 57, 0
2, 120000, Note_off_c, 1, 59, 0
2, 120000, Note_off_c, 1, 63, 0
2, 120000, Note_off_c, 1, 66, 0
2, 120000, Note_off_c, 1, 71, 0
2, 120000, Note_off_c, 1, 78, 0
2, 120000, Note_off_c, 1, 83, 0
2, 120040, End_track
3, 0, Start_track
3, 0, Title_t, "MIDI"
3, 1536, End_track
0, 0, End_of_file
