0, 0, Header, 1, 3, 192
1, 0, Start_track
1, 0, Time_signature, 4, 2, 24, 8
1, 0, Tempo, 500000
1, 120040, End_track
2, 0, Start_track
2, 0, Text_t, "random instrument: random person i dunno whatev"
2, 0, Title_t, "Track 1"
2, 0, Note_on_c, 1, 40, 127
2, 0, Note_on_c, 1, 48, 127
2, 0, Note_on_c, 1, 56, 127
2, 0, Note_on_c, 1, 60, 127
2, 40, Note_off_c, 1, 40, 0
2, 40, Note_off_c, 1, 48, 0
2, 40, Note_on_c, 1, 55, 127
2, 40, Note_off_c, 1, 56, 0
2, 40, Note_off_c, 1, 60, 0
2, 40, Note_on_c, 1, 72, 127
2, 40, Note_on_c, 1, 75, 127
2, 40, Note_on_c, 1, 79, 127
2, 40, Note_on_c, 1, 84, 127
2, 80, Note_off_c, 1, 55, 0
2, 80, Note_off_c, 1, 72, 0
2, 80, Note_off_c, 1, 75, 0
2, 80, Note_off_c, 1, 79, 0
2, 80, Note_off_c, 1, 84, 0
2, 120, Note_on_c, 1, 40, 127
2, 120, Note_on_c, 1, 48, 127
2, 120, Note_on_c, 1, 56, 127
2, 120, Note_on_c, 1, 60, 127
2, 160, Note_off_c, 1, 40, 0
2, 160, Note_on_c, 1, 41, 127
2, 160, Note_off_c, 1, 48, 0
2, 160, Note_on_c, 1, 50, 127
2, 160, Note_on_c, 1, 53, 127
2, 160, Note_off_c, 1, 56, 0
2, 160, Note_off_c, 1, 60, 0
2, 160, Note_on_c, 1, 81, 127
2, 160, Note_on_c, 1, 86, 127
2, 200, Note_on_c, 1, 35, 127
2, 200, Note_on_c, 1, 39, 127
2, 200, Note_off_c, 1, 41, 0
2, 200, Note_on_c, 1, 47, 127
2, 200, Note_off_c, 1, 53, 0
2, 200, Note_off_c, 1, 81, 0
2, 200, Note_off_c, 1, 86, 0
2, 240, Note_on_c, 1, 34, 127
2, 240, Note_off_c, 1, 35, 0
2, 240, Note_on_c, 1, 46, 127
2, 240, Note_off_c, 1, 47, 0
2, 240, Note_off_c, 1, 50, 0
2, 240, Note_on_c, 1, 73, 127
2, 240, Note_on_c, 1, 75, 127
2, 280, Note_off_c, 1, 34, 0
2, 280, Note_off_c, 1, 39, 0
2, 280, Note_off_c, 1, 46, 0
2, 280, Note_off_c, 1, 73, 0
2, 280, Note_off_c, 1, 75, 0
2, 280, Note_on_c, 1, 76, 127
2, 280, Note_on_c, 1, 80, 127
2, 280, Note_on_c, 1, 83, 127
2, 280, Note_on_c, 1, 89, 127
2, 320, Note_on_c, 1, 34, 127
2, 320, Note_on_c, 1, 39, 127
2, 320, Note_on_c, 1, 46, 127
2, 320, Note_on_c, 1, 73, 127
2, 320, Note_on_c, 1, 75, 127
2, 320, Note_off_c, 1, 76, 0
2, 320, Note_off_c, 1, 80, 0
2, 320, Note_off_c, 1, 83, 0
2, 320, Note_off_c, 1, 89, 0
2, 360, Note_off_c, 1, 34, 0
2, 360, Note_off_c, 1, 39, 0
2, 360, Note_off_c, 1, 46, 0
2, 360, Note_on_c, 1, 51, 127
2, 360, Note_on_c, 1, 59, 127
2, 360, Note_on_c, 1, 66, 127
2, 360, Note_on_c, 1, 69, 127
2, 360, Note_off_c, 1, 73, 0
2, 360, Note_on_c, 1, 85, 127
2, 400, Note_on_c, 1, 35, 127
2, 400, Note_on_c, 1, 40, 127
2, 400, Note_on_c, 1, 47, 127
2, 400, Note_off_c, 1, 51, 0
2, 400, Note_off_c, 1, 59, 0
2, 400, Note_on_c, 1, 62, 127
2, 400, Note_off_c, 1, 66, 0
2, 400, Note_off_c, 1, 69, 0
2, 400, Note_off_c, 1, 75, 0
2, 400, Note_off_c, 1, 85, 0
2, 440, Note_off_c, 1, 35, 0
2, 440, Note_off_c, 1, 40, 0
2, 440, Note_off_c, 1, 47, 0
2, 440, Note_on_c, 1, 73, 127
2, 440, Note_on_c, 1, 82, 127
2, 440, Note_on_c, 1, 89, 127
2, 480, Note_on_c, 1, 38, 127
2, 480, Note_on_c, 1, 50, 127
2, 480, Note_on_c, 1, 57, 127
2, 480, Note_on_c, 1, 66, 127
2, 480, Note_off_c, 1, 73, 0
2, 480, Note_off_c, 1, 82, 0
2, 520, Note_on_c, 1, 34, 127
2, 520, Note_off_c, 1, 38, 0
2, 520, Note_on_c, 1, 46, 127
2, 520, Note_off_c, 1, 50, 0
2, 520, Note_off_c, 1, 57, 0
2, 520, Note_off_c, 1, 62, 0
2, 520, Note_off_c, 1, 66, 0
2, 520, Note_on_c, 1, 80, 127
2, 520, Note_on_c, 1, 83, 127
2, 520, Note_off_c, 1, 89, 0
2, 560, Note_off_c, 1, 34, 0
2, 560, Note_off_c, 1, 46, 0
2, 560, Note_on_c, 1, 63, 127
2, 560, Note_on_c, 1, 67, 127
2, 560, Note_on_c, 1, 68, 127
2, 560, Note_on_c, 1, 75, 127
2, 560, Note_on_c, 1, 79, 127
2, 560, Note_off_c, 1, 80, 0
2, 560, Note_off_c, 1, 83, 0
2, 600, Note_on_c, 1, 42, 127
2, 600, Note_on_c, 1, 45, 127
2, 600, Note_on_c, 1, 48, 127
2, 600, Note_on_c, 1, 54, 127
2, 600, Note_off_c, 1, 63, 0
2, 600, Note_off_c, 1, 67, 0
2, 600, Note_off_c, 1, 68, 0
2, 600, Note_on_c, 1, 78, 127
2, 600, Note_off_c, 1, 79, 0
2, 640, Note_off_c, 1, 42, 0
2, 640, Note_off_c, 1, 45, 0
2, 640, Note_off_c, 1, 48, 0
2, 640, Note_off_c, 1, 54, 0
2, 640, Note_on_c, 1, 57, 127
2, 640, Note_on_c, 1, 64, 127
2, 640, Note_on_c, 1, 67, 127
2, 640, Note_on_c, 1, 70, 127
2, 640, Note_on_c, 1, 73, 127
2, 640, Note_off_c, 1, 75, 0
2, 640, Note_off_c, 1, 78, 0
2, 640, Note_on_c, 1, 82, 127
2, 680, Note_on_c, 1, 48, 127
2, 680, Note_off_c, 1, 57, 0
2, 680, Note_off_c, 1, 64, 0
2, 680, Note_off_c, 1, 67, 0
2, 680, Note_on_c, 1, 68, 127
2, 680, Note_off_c, 1, 70, 0
2, 680, Note_off_c, 1, 73, 0
2, 680, Note_on_c, 1, 75, 127
2, 680, Note_on_c, 1, 78, 127
2, 720, Note_on_c, 1, 28, 127
2, 720, Note_off_c, 1, 48, 0
2, 720, Note_on_c, 1, 51, 127
2, 720, Note_on_c, 1, 53, 127
2, 720, Note_on_c, 1, 57, 127
2, 720, Note_on_c, 1, 60, 127
2, 720, Note_off_c, 1, 68, 0
2, 720, Note_off_c, 1, 75, 0
2, 720, Note_off_c, 1, 78, 0
2, 720, Note_off_c, 1, 82, 0
2, 760, Note_off_c, 1, 28, 0
2, 760, Note_off_c, 1, 51, 0
2, 760, Note_off_c, 1, 53, 0
2, 760, Note_off_c, 1, 57, 0
2, 760, Note_off_c, 1, 60, 0
2, 760, Note_on_c, 1, 71, 127
2, 760, Note_on_c, 1, 74, 127
2, 760, Note_on_c, 1, 78, 127
2, 760, Note_on_c, 1, 85, 127
2, 800, Note_on_c, 1, 55, 127
2, 800, Note_on_c, 1, 59, 127
2, 800, Note_on_c, 1, 67, 127
2, 800, Note_off_c, 1, 71, 0
2, 800, Note_off_c, 1, 74, 0
2, 800, Note_off_c, 1, 78, 0
2, 800, Note_off_c, 1, 85, 0
2, 800, Note_on_c, 1, 88, 127
2, 800, Note_on_c, 1, 93, 127
2, 840, Note_on_c, 1, 53, 127
2, 840, Note_off_c, 1, 55, 0
2, 840, Note_on_c, 1, 63, 127
2, 840, Note_off_c, 1, 67, 0
2, 840, Note_on_c, 1, 68, 127
2, 840, Note_on_c, 1, 80, 127
2, 840, Note_on_c, 1, 83, 127
2, 840, Note_off_c, 1, 88, 0
2, 840, Note_off_c, 1, 93, 0
2, 880, Note_on_c, 1, 34, 127
2, 880, Note_off_c, 1, 53, 0
2, 880, Note_off_c, 1, 59, 0
2, 880, Note_on_c, 1, 60, 127
2, 880, Note_on_c, 1, 62, 127
2, 880, Note_off_c, 1, 63, 0
2, 880, Note_on_c, 1, 67, 127
2, 880, Note_off_c, 1, 68, 0
2, 880, Note_off_c, 1, 80, 0
2, 880, Note_off_c, 1, 83, 0
2, 920, Note_off_c, 1, 34, 0
2, 920, Note_on_c, 1, 47, 127
2, 920, Note_on_c, 1, 52, 127
2, 920, Note_on_c, 1, 55, 127
2, 920, Note_on_c, 1, 59, 127
2, 920, Note_off_c, 1, 60, 0
2, 920, Note_off_c, 1, 62, 0
2, 920, Note_off_c, 1, 67, 0
2, 920, Note_on_c, 1, 88, 127
2, 960, Note_on_c, 1, 28, 127
2, 960, Note_on_c, 1, 40, 127
2, 960, Note_off_c, 1, 52, 0
2, 960, Note_off_c, 1, 55, 0
2, 960, Note_off_c, 1, 59, 0
2, 960, Note_on_c, 1, 66, 127
2, 960, Note_on_c, 1, 67, 127
2, 960, Note_on_c, 1, 71, 127
2, 960, Note_on_c, 1, 76, 127
2, 960, Note_on_c, 1, 78, 127
2, 960, Note_on_c, 1, 79, 127
2, 960, Note_on_c, 1, 83, 127
2, 960, Note_off_c, 1, 88, 0
2, 960, Note_on_c, 1, 90, 127
2, 960, Note_on_c, 1, 91, 127
2, 1000, Note_off_c, 1, 28, 0
2, 1000, Note_on_c, 1, 37, 127
2, 1000, Note_off_c, 1, 40, 0
2, 1000, Note_off_c, 1, 47, 0
2, 1000, Note_on_c, 1, 49, 127
2, 1000, Note_on_c, 1, 54, 127
2, 1000, Note_on_c, 1, 58, 127
2, 1000, Note_off_c, 1, 67, 0
2, 1000, Note_off_c, 1, 71, 0
2, 1000, Note_off_c, 1, 76, 0
2, 1000, Note_off_c, 1, 78, 0
2, 1000, Note_off_c, 1, 79, 0
2, 1000, Note_off_c, 1, 83, 0
2, 1000, Note_off_c, 1, 90, 0
2, 1000, Note_off_c, 1, 91, 0
2, 1040, Note_off_c, 1, 37, 0
2, 1040, Note_off_c, 1, 49, 0
2, 1040, Note_off_c, 1, 54, 0
2, 1040, Note_off_c, 1, 58, 0
2, 1040, Note_on_c, 1, 61, 127
2, 1040, Note_off_c, 1, 66, 0
2, 1040, Note_on_c, 1, 88, 127
2, 1040, Note_on_c, 1, 92, 127
2, 1040, Note_on_c, 1, 100, 127
2, 1080, Note_on_c, 1, 54, 127
2, 1080, Note_on_c, 1, 59, 127
2, 1080, Note_off_c, 1, 61, 0
2, 1080, Note_on_c, 1, 62, 127
2, 1080, Note_on_c, 1, 65, 127
2, 1080, Note_off_c, 1, 88, 0
2, 1080, Note_off_c, 1, 92, 0
2, 1080, Note_off_c, 1, 100, 0
2, 1080, Note_on_c, 1, 101, 127
2, 1080, Note_on_c, 1, 102, 127
2, 1120, Note_off_c, 1, 54, 0
2, 1120, Note_on_c, 1, 56, 127
2, 1120, Note_on_c, 1, 61, 127
2, 1120, Note_off_c, 1, 62, 0
2, 1120, Note_off_c, 1, 65, 0
2, 1120, Note_on_c, 1, 68, 127
2, 1120, Note_off_c, 1, 101, 0
2, 1120, Note_off_c, 1, 102, 0
2, 1160, Note_on_c, 1, 54, 127
2, 1160, Note_off_c, 1, 56, 0
2, 1160, Note_off_c, 1, 59, 0
2, 1160, Note_on_c, 1, 60, 127
2, 1160, Note_off_c, 1, 61, 0
2, 1160, Note_on_c, 1, 66, 127
2, 1160, Note_off_c, 1, 68, 0
2, 1160, Note_on_c, 1, 75, 127
2, 1160, Note_on_c, 1, 84, 127
2, 1200, Note_on_c, 1, 37, 127
2, 1200, Note_on_c, 1, 46, 127
2, 1200, Note_on_c, 1, 52, 127
2, 1200, Note_off_c, 1, 54, 0
2, 1200, Note_off_c, 1, 60, 0
2, 1200, Note_on_c, 1, 64, 127
2, 1200, Note_off_c, 1, 66, 0
2, 1200, Note_off_c, 1, 75, 0
2, 1200, Note_off_c, 1, 84, 0
2, 1240, Note_off_c, 1, 37, 0
2, 1240, Note_off_c, 1, 46, 0
2, 1240, Note_off_c, 1, 52, 0
2, 1240, Note_off_c, 1, 64, 0
2, 1240, Note_on_c, 1, 65, 127
2, 1240, Note_on_c, 1, 72, 127
2, 1240, Note_on_c, 1, 86, 127
2, 1240, Note_on_c, 1, 89, 127
2, 1280, Note_on_c, 1, 35, 127
2, 1280, Note_off_c, 1, 65, 0
2, 1280, Note_off_c, 1, 72, 0
2, 1280, Note_on_c, 1, 74, 127
2, 1280, Note_on_c, 1, 79, 127
2, 1280, Note_off_c, 1, 89, 0
2, 1320, Note_off_c, 1, 35, 0
2, 1320, Note_on_c, 1, 57, 127
2, 1320, Note_on_c, 1, 65, 127
2, 1320, Note_on_c, 1, 72, 127
2, 1320, Note_off_c, 1, 74, 0
2, 1320, Note_on_c, 1, 77, 127
2, 1320, Note_off_c, 1, 79, 0
2, 1320, Note_off_c, 1, 86, 0
2, 1320, Note_on_c, 1, 89, 127
2, 1360, Note_on_c, 1, 43, 127
2, 1360, Note_on_c, 1, 46, 127
2, 1360, Note_on_c, 1, 51, 127
2, 1360, Note_off_c, 1, 57, 0
2, 1360, Note_on_c, 1, 58, 127
2, 1360, Note_off_c, 1, 65, 0
2, 1360, Note_on_c, 1, 67, 127
2, 1360, Note_off_c, 1, 72, 0
2, 1360, Note_off_c, 1, 77, 0
2, 1360, Note_off_c, 1, 89, 0
2, 1400, Note_off_c, 1, 43, 0
2, 1400, Note_off_c, 1, 46, 0
2, 1400, Note_off_c, 1, 51, 0
2, 1400, Note_on_c, 1, 66, 127
2, 1400, Note_off_c, 1, 67, 0
2, 1400, Note_on_c, 1, 70, 127
2, 1400, Note_on_c, 1, 73, 127
2, 1400, Note_on_c, 1, 75, 127
2, 1400, Note_on_c, 1, 85, 127
2, 1440, Note_on_c, 1, 51, 127
2, 1440, Note_on_c, 1, 56, 127
2, 1440, Note_off_c, 1, 58, 0
2, 1440, Note_on_c, 1, 65, 127
2, 1440, Note_off_c, 1, 66, 0
2, 1440, Note_off_c, 1, 73, 0
2, 1440, Note_on_c, 1, 74, 127
2, 1440, Note_off_c, 1, 75, 0
2, 1440, Note_off_c, 1, 85, 0
2, 1480, Note_on_c, 1, 41, 127
2, 1480, Note_off_c, 1, 51, 0
2, 1480, Note_on_c, 1, 53, 127
2, 1480, Note_off_c, 1, 56, 0
2, 1480, Note_on_c, 1, 58, 127
2, 1480, Note_on_c, 1, 62, 127
2, 1480, Note_on_c, 1, 77, 127
2, 1520, Note_off_c, 1, 41, 0
2, 1520, Note_off_c, 1, 53, 0
2, 1520, Note_off_c, 1, 58, 0
2, 1520, Note_off_c, 1, 62, 0
2, 1520, Note_off_c, 1, 65, 0
2, 1520, Note_on_c, 1, 69, 127
2, 1520, Note_off_c, 1, 70, 0
2, 1520, Note_off_c, 1, 74, 0
2, 1520, Note_off_c, 1, 77, 0
2, 1520, Note_on_c, 1, 85, 127
2, 1520, Note_on_c, 1, 93, 127
2, 1520, Note_on_c, 1, 95, 127
2, 1520, Note_on_c, 1, 100, 127
2, 1560, Note_on_c, 1, 45, 127
2, 1560, Note_on_c, 1, 52, 127
2, 1560, Note_on_c, 1, 57, 127
2, 1560, Note_on_c, 1, 61, 127
2, 1560, Note_on_c, 1, 73, 127
2, 1560, Note_on_c, 1, 76, 127
2, 1560, Note_on_c, 1, 81, 127
2, 1560, Note_off_c, 1, 85, 0
2, 1560, Note_off_c, 1, 93, 0
2, 1560, Note_off_c, 1, 95, 0
2, 1560, Note_off_c, 1, 100, 0
2, 1600, Note_on_c, 1, 42, 127
2, 1600, Note_off_c, 1, 45, 0
2, 1600, Note_on_c, 1, 49, 127
2, 1600, Note_off_c, 1, 52, 0
2, 1600, Note_on_c, 1, 54, 127
2, 1600, Note_off_c, 1, 57, 0
2, 1600, Note_off_c, 1, 61, 0
2, 1600, Note_off_c, 1, 69, 0
2, 1600, Note_off_c, 1, 73, 0
2, 1600, Note_off_c, 1, 76, 0
2, 1600, Note_off_c, 1, 81, 0
2, 1600, Note_on_c, 1, 82, 127
2, 1600, Note_on_c, 1, 90, 127
2, 1600, Note_on_c, 1, 94, 127
2, 1640, Note_off_c, 1, 42, 0
2, 1640, Note_on_c, 1, 46, 127
2, 1640, Note_off_c, 1, 49, 0
2, 1640, Note_on_c, 1, 53, 127
2, 1640, Note_off_c, 1, 54, 0
2, 1640, Note_on_c, 1, 60, 127
2, 1640, Note_on_c, 1, 63, 127
2, 1640, Note_on_c, 1, 75, 127
2, 1640, Note_off_c, 1, 82, 0
2, 1640, Note_off_c, 1, 90, 0
2, 1640, Note_off_c, 1, 94, 0
2, 1680, Note_on_c, 1, 36, 127
2, 1680, Note_on_c, 1, 43, 127
2, 1680, Note_off_c, 1, 46, 0
2, 1680, Note_on_c, 1, 48, 127
2, 1680, Note_on_c, 1, 52, 127
2, 1680, Note_off_c, 1, 53, 0
2, 1680, Note_off_c, 1, 63, 0
2, 1680, Note_off_c, 1, 75, 0
2, 1680, Note_on_c, 1, 87, 127
2, 1720, Note_off_c, 1, 36, 0
2, 1720, Note_off_c, 1, 43, 0
2, 1720, Note_on_c, 1, 45, 127
2, 1720, Note_off_c, 1, 48, 0
2, 1720, Note_on_c, 1, 55, 127
2, 1720, Note_off_c, 1, 60, 0
2, 1720, Note_on_c, 1, 61, 127
2, 1720, Note_on_c, 1, 66, 127
2, 1720, Note_on_c, 1, 67, 127
2, 1720, Note_on_c, 1, 70, 127
2, 1720, Note_on_c, 1, 71, 127
2, 1720, Note_off_c, 1, 87, 0
2, 1760, Note_off_c, 1, 45, 0
2, 1760, Note_off_c, 1, 52, 0
2, 1760, Note_on_c, 1, 54, 127
2, 1760, Note_off_c, 1, 55, 0
2, 1760, Note_on_c, 1, 65, 127
2, 1760, Note_off_c, 1, 66, 0
2, 1760, Note_off_c, 1, 67, 0
2, 1760, Note_off_c, 1, 70, 0
2, 1760, Note_off_c, 1, 71, 0
2, 1760, Note_on_c, 1, 77, 127
2, 1760, Note_on_c, 1, 85, 127
2, 1800, Note_off_c, 1, 54, 0
2, 1800, Note_on_c, 1, 58, 127
2, 1800, Note_off_c, 1, 61, 0
2, 1800, Note_on_c, 1, 63, 127
2, 1800, Note_off_c, 1, 65, 0
2, 1800, Note_on_c, 1, 67, 127
2, 1800, Note_off_c, 1, 77, 0
2, 1800, Note_off_c, 1, 85, 0
2, 1800, Note_on_c, 1, 98, 127
2, 1840, Note_off_c, 1, 58, 0
2, 1840, Note_off_c, 1, 67, 0
2, 1840, Note_on_c, 1, 72, 127
2, 1840, Note_on_c, 1, 91, 127
2, 1840, Note_off_c, 1, 98, 0
2, 1880, Note_on_c, 1, 60, 127
2, 1880, Note_off_c, 1, 63, 0
2, 1880, Note_on_c, 1, 67, 127
2, 1880, Note_on_c, 1, 70, 127
2, 1880, Note_off_c, 1, 72, 0
2, 1880, Note_on_c, 1, 77, 127
2, 1880, Note_on_c, 1, 89, 127
2, 1880, Note_off_c, 1, 91, 0
2, 1920, Note_off_c, 1, 60, 0
2, 1920, Note_off_c, 1, 67, 0
2, 1920, Note_off_c, 1, 70, 0
2, 1920, Note_off_c, 1, 77, 0
2, 1920, Note_off_c, 1, 89, 0
2, 1960, Note_on_c, 1, 28, 127
2, 1960, Note_on_c, 1, 40, 127
2, 1960, Note_on_c, 1, 69, 127
2, 2000, Note_off_c, 1, 28, 0
2, 2000, Note_off_c, 1, 40, 0
2, 2000, Note_on_c, 1, 62, 127
2, 2000, Note_off_c, 1, 69, 0
2, 2000, Note_on_c, 1, 70, 127
2, 2000, Note_on_c, 1, 91, 127
2, 2040, Note_on_c, 1, 46, 127
2, 2040, Note_on_c, 1, 53, 127
2, 2040, Note_on_c, 1, 58, 127
2, 2040, Note_on_c, 1, 65, 127
2, 2040, Note_off_c, 1, 70, 0
2, 2040, Note_on_c, 1, 77, 127
2, 2040, Note_on_c, 1, 89, 127
2, 2040, Note_off_c, 1, 91, 0
2, 2080, Note_off_c, 1, 46, 0
2, 2080, Note_off_c, 1, 53, 0
2, 2080, Note_off_c, 1, 58, 0
2, 2080, Note_off_c, 1, 62, 0
2, 2080, Note_off_c, 1, 65, 0
2, 2080, Note_on_c, 1, 70, 127
2, 2080, Note_off_c, 1, 77, 0
2, 2080, Note_off_c, 1, 89, 0
2, 2080, Note_on_c, 1, 96, 127
2, 2120, Note_on_c, 1, 56, 127
2, 2120, Note_on_c, 1, 59, 127
2, 2120, Note_on_c, 1, 68, 127
2, 2120, Note_off_c, 1, 70, 0
2, 2120, Note_on_c, 1, 76, 127
2, 2120, Note_on_c, 1, 82, 127
2, 2120, Note_off_c, 1, 96, 0
2, 2160, Note_off_c, 1, 56, 0
2, 2160, Note_off_c, 1, 59, 0
2, 2160, Note_off_c, 1, 68, 0
2, 2160, Note_off_c, 1, 76, 0
2, 2160, Note_on_c, 1, 77, 127
2, 2160, Note_off_c, 1, 82, 0
2, 2160, Note_on_c, 1, 92, 127
2, 2160, Note_on_c, 1, 95, 127
2, 2200, Note_on_c, 1, 53, 127
2, 2200, Note_off_c, 1, 77, 0
2, 2200, Note_on_c, 1, 84, 127
2, 2200, Note_off_c, 1, 92, 0
2, 2200, Note_on_c, 1, 93, 127
2, 2200, Note_off_c, 1, 95, 0
2, 2200, Note_on_c, 1, 96, 127
2, 2240, Note_off_c, 1, 53, 0
2, 2240, Note_on_c, 1, 61, 127
2, 2240, Note_on_c, 1, 75, 127
2, 2240, Note_on_c, 1, 80, 127
2, 2240, Note_off_c, 1, 84, 0
2, 2240, Note_off_c, 1, 93, 0
2, 2240, Note_off_c, 1, 96, 0
2, 2280, Note_on_c, 1, 60, 127
2, 2280, Note_off_c, 1, 61, 0
2, 2280, Note_on_c, 1, 68, 127
2, 2280, Note_off_c, 1, 75, 0
2, 2280, Note_on_c, 1, 87, 127
2, 2320, Note_off_c, 1, 60, 0
2, 2320, Note_on_c, 1, 64, 127
2, 2320, Note_on_c, 1, 67, 127
2, 2320, Note_off_c, 1, 68, 0
2, 2320, Note_on_c, 1, 70, 127
2, 2320, Note_on_c, 1, 76, 127
2, 2320, Note_off_c, 1, 80, 0
2, 2320, Note_off_c, 1, 87, 0
2, 2320, Note_on_c, 1, 91, 127
2, 2320, Note_on_c, 1, 95, 127
2, 2360, Note_on_c, 1, 51, 127
2, 2360, Note_on_c, 1, 55, 127
2, 2360, Note_on_c, 1, 63, 127
2, 2360, Note_off_c, 1, 64, 0
2, 2360, Note_on_c, 1, 66, 127
2, 2360, Note_off_c, 1, 70, 0
2, 2360, Note_off_c, 1, 76, 0
2, 2360, Note_on_c, 1, 78, 127
2, 2360, Note_off_c, 1, 91, 0
2, 2360, Note_off_c, 1, 95, 0
2, 2400, Note_on_c, 1, 39, 127
2, 2400, Note_on_c, 1, 41, 127
2, 2400, Note_on_c, 1, 48, 127
2, 2400, Note_off_c, 1, 51, 0
2, 2400, Note_off_c, 1, 55, 0
2, 2400, Note_off_c, 1, 63, 0
2, 2400, Note_off_c, 1, 66, 0
2, 2400, Note_off_c, 1, 67, 0
2, 2400, Note_on_c, 1, 75, 127
2, 2400, Note_off_c, 1, 78, 0
2, 2400, Note_on_c, 1, 87, 127
2, 2440, Note_off_c, 1, 39, 0
2, 2440, Note_off_c, 1, 41, 0
2, 2440, Note_off_c, 1, 48, 0
2, 2440, Note_on_c, 1, 54, 127
2, 2440, Note_on_c, 1, 57, 127
2, 2440, Note_on_c, 1, 66, 127
2, 2440, Note_off_c, 1, 75, 0
2, 2440, Note_on_c, 1, 84, 127
2, 2480, Note_off_c, 1, 54, 0
2, 2480, Note_off_c, 1, 66, 0
2, 2480, Note_on_c, 1, 81, 127
2, 2480, Note_off_c, 1, 84, 0
2, 2480, Note_off_c, 1, 87, 0
2, 2480, Note_on_c, 1, 89, 127
2, 2520, Note_on_c, 1, 35, 127
2, 2520, Note_on_c, 1, 42, 127
2, 2520, Note_on_c, 1, 54, 127
2, 2520, Note_off_c, 1, 57, 0
2, 2520, Note_on_c, 1, 74, 127
2, 2520, Note_on_c, 1, 77, 127
2, 2520, Note_off_c, 1, 81, 0
2, 2520, Note_on_c, 1, 83, 127
2, 2520, Note_off_c, 1, 89, 0
2, 2560, Note_off_c, 1, 35, 0
2, 2560, Note_off_c, 1, 42, 0
2, 2560, Note_off_c, 1, 54, 0
2, 2560, Note_on_c, 1, 65, 127
2, 2560, Note_off_c, 1, 74, 0
2, 2560, Note_on_c, 1, 75, 127
2, 2560, Note_off_c, 1, 77, 0
2, 2560, Note_on_c, 1, 78, 127
2, 2560, Note_on_c, 1, 82, 127
2, 2560, Note_off_c, 1, 83, 0
2, 2560, Note_on_c, 1, 87, 127
2, 2600, Note_on_c, 1, 41, 127
2, 2600, Note_on_c, 1, 45, 127
2, 2600, Note_on_c, 1, 50, 127
2, 2600, Note_on_c, 1, 53, 127
2, 2600, Note_off_c, 1, 65, 0
2, 2600, Note_off_c, 1, 75, 0
2, 2600, Note_off_c, 1, 78, 0
2, 2600, Note_off_c, 1, 82, 0
2, 2600, Note_on_c, 1, 86, 127
2, 2600, Note_off_c, 1, 87, 0
2, 2640, Note_off_c, 1, 41, 0
2, 2640, Note_off_c, 1, 45, 0
2, 2640, Note_off_c, 1, 50, 0
2, 2640, Note_off_c, 1, 53, 0
2, 2640, Note_on_c, 1, 54, 127
2, 2640, Note_on_c, 1, 60, 127
2, 2640, Note_on_c, 1, 66, 127
2, 2640, Note_on_c, 1, 75, 127
2, 2640, Note_on_c, 1, 84, 127
2, 2640, Note_off_c, 1, 86, 0
2, 2680, Note_on_c, 1, 39, 127
2, 2680, Note_on_c, 1, 53, 127
2, 2680, Note_off_c, 1, 54, 0
2, 2680, Note_off_c, 1, 60, 0
2, 2680, Note_off_c, 1, 66, 0
2, 2680, Note_on_c, 1, 74, 127
2, 2680, Note_off_c, 1, 75, 0
2, 2680, Note_on_c, 1, 80, 127
2, 2680, Note_off_c, 1, 84, 0
2, 2680, Note_on_c, 1, 86, 127
2, 2720, Note_off_c, 1, 39, 0
2, 2720, Note_on_c, 1, 52, 127
2, 2720, Note_off_c, 1, 53, 0
2, 2720, Note_on_c, 1, 57, 127
2, 2720, Note_on_c, 1, 61, 127
2, 2720, Note_on_c, 1, 64, 127
2, 2720, Note_on_c, 1, 69, 127
2, 2720, Note_on_c, 1, 73, 127
2, 2720, Note_off_c, 1, 74, 0
2, 2720, Note_on_c, 1, 76, 127
2, 2720, Note_off_c, 1, 80, 0
2, 2720, Note_on_c, 1, 81, 127
2, 2720, Note_off_c, 1, 86, 0
2, 2760, Note_off_c, 1, 52, 0
2, 2760, Note_on_c, 1, 56, 127
2, 2760, Note_off_c, 1, 57, 0
2, 2760, Note_off_c, 1, 61, 0
2, 2760, Note_on_c, 1, 62, 127
2, 2760, Note_off_c, 1, 64, 0
2, 2760, Note_on_c, 1, 68, 127
2, 2760, Note_off_c, 1, 69, 0
2, 2760, Note_off_c, 1, 73, 0
2, 2760, Note_off_c, 1, 76, 0
2, 2760, Note_on_c, 1, 80, 127
2, 2760, Note_off_c, 1, 81, 0
2, 2760, Note_on_c, 1, 88, 127
2, 2800, Note_on_c, 1, 38, 127
2, 2800, Note_on_c, 1, 50, 127
2, 2800, Note_on_c, 1, 53, 127
2, 2800, Note_off_c, 1, 56, 0
2, 2800, Note_on_c, 1, 57, 127
2, 2800, Note_on_c, 1, 60, 127
2, 2800, Note_off_c, 1, 62, 0
2, 2800, Note_off_c, 1, 68, 0
2, 2800, Note_off_c, 1, 80, 0
2, 2800, Note_on_c, 1, 84, 127
2, 2800, Note_off_c, 1, 88, 0
2, 2800, Note_on_c, 1, 89, 127
2, 2800, Note_on_c, 1, 93, 127
2, 2840, Note_off_c, 1, 38, 0
2, 2840, Note_off_c, 1, 53, 0
2, 2840, Note_off_c, 1, 57, 0
2, 2840, Note_on_c, 1, 59, 127
2, 2840, Note_off_c, 1, 84, 0
2, 2840, Note_off_c, 1, 89, 0
2, 2840, Note_off_c, 1, 93, 0
2, 2880, Note_off_c, 1, 50, 0
2, 2880, Note_off_c, 1, 59, 0
2, 2880, Note_off_c, 1, 60, 0
2, 2880, Note_on_c, 1, 65, 127
2, 2880, Note_on_c, 1, 74, 127
2, 2880, Note_on_c, 1, 86, 127
2, 2880, Note_on_c, 1, 89, 127
2, 2920, Note_on_c, 1, 62, 127
2, 2920, Note_off_c, 1, 65, 0
2, 2920, Note_on_c, 1, 70, 127
2, 2920, Note_off_c, 1, 74, 0
2, 2920, Note_on_c, 1, 77, 127
2, 2920, Note_on_c, 1, 80, 127
2, 2920, Note_off_c, 1, 86, 0
2, 2960, Note_on_c, 1, 27, 127
2, 2960, Note_on_c, 1, 40, 127
2, 2960, Note_off_c, 1, 62, 0
2, 2960, Note_off_c, 1, 70, 0
2, 2960, Note_off_c, 1, 77, 0
2, 2960, Note_on_c, 1, 85, 127
2, 2960, Note_off_c, 1, 89, 0
2, 3000, Note_off_c, 1, 27, 0
2, 3000, Note_off_c, 1, 40, 0
2, 3000, Note_on_c, 1, 75, 127
2, 3000, Note_off_c, 1, 80, 0
2, 3000, Note_on_c, 1, 82, 127
2, 3000, Note_off_c, 1, 85, 0
2, 3000, Note_on_c, 1, 99, 127
2, 3000, Note_on_c, 1, 104, 127
2, 3040, Note_off_c, 1, 75, 0
2, 3040, Note_on_c, 1, 79, 127
2, 3040, Note_off_c, 1, 82, 0
2, 3040, Note_on_c, 1, 86, 127
2, 3040, Note_on_c, 1, 91, 127
2, 3040, Note_on_c, 1, 98, 127
2, 3040, Note_off_c, 1, 99, 0
2, 3040, Note_off_c, 1, 104, 0
2, 3080, Note_off_c, 1, 79, 0
2, 3080, Note_off_c, 1, 86, 0
2, 3080, Note_off_c, 1, 91, 0
2, 3080, Note_on_c, 1, 96, 127
2, 3080, Note_on_c, 1, 97, 127
2, 3080, Note_off_c, 1, 98, 0
2, 3080, Note_on_c, 1, 101, 127
2, 3080, Note_on_c, 1, 102, 127
2, 3120, Note_on_c, 1, 39, 127
2, 3120, Note_off_c, 1, 96, 0
2, 3120, Note_off_c, 1, 97, 0
2, 3120, Note_off_c, 1, 101, 0
2, 3120, Note_off_c, 1, 102, 0
2, 3120, Note_on_c, 1, 103, 127
2, 3160, Note_off_c, 1, 39, 0
2, 3160, Note_on_c, 1, 58, 127
2, 3160, Note_on_c, 1, 66, 127
2, 3160, Note_on_c, 1, 70, 127
2, 3160, Note_on_c, 1, 82, 127
2, 3160, Note_on_c, 1, 85, 127
2, 3160, Note_on_c, 1, 90, 127
2, 3160, Note_on_c, 1, 94, 127
2, 3160, Note_off_c, 1, 103, 0
2, 3200, Note_on_c, 1, 37, 127
2, 3200, Note_on_c, 1, 44, 127
2, 3200, Note_on_c, 1, 53, 127
2, 3200, Note_off_c, 1, 58, 0
2, 3200, Note_on_c, 1, 65, 127
2, 3200, Note_off_c, 1, 66, 0
2, 3200, Note_off_c, 1, 70, 0
2, 3200, Note_on_c, 1, 77, 127
2, 3200, Note_off_c, 1, 82, 0
2, 3200, Note_off_c, 1, 85, 0
2, 3200, Note_off_c, 1, 90, 0
2, 3200, Note_off_c, 1, 94, 0
2, 3240, Note_on_c, 1, 33, 127
2, 3240, Note_on_c, 1, 40, 127
2, 3240, Note_off_c, 1, 44, 0
2, 3240, Note_on_c, 1, 45, 127
2, 3240, Note_off_c, 1, 53, 0
2, 3240, Note_on_c, 1, 64, 127
2, 3240, Note_off_c, 1, 65, 0
2, 3240, Note_off_c, 1, 77, 0
2, 3280, Note_off_c, 1, 33, 0
2, 3280, Note_off_c, 1, 37, 0
2, 3280, Note_off_c, 1, 40, 0
2, 3280, Note_off_c, 1, 45, 0
2, 3280, Note_on_c, 1, 52, 127
2, 3280, Note_off_c, 1, 64, 0
2, 3280, Note_on_c, 1, 74, 127
2, 3280, Note_on_c, 1, 84, 127
2, 3320, Note_on_c, 1, 51, 127
2, 3320, Note_off_c, 1, 52, 0
2, 3320, Note_on_c, 1, 67, 127
2, 3320, Note_on_c, 1, 70, 127
2, 3320, Note_off_c, 1, 74, 0
2, 3320, Note_on_c, 1, 80, 127
2, 3320, Note_off_c, 1, 84, 0
2, 3360, Note_off_c, 1, 51, 0
2, 3360, Note_on_c, 1, 59, 127
2, 3360, Note_off_c, 1, 67, 0
2, 3360, Note_off_c, 1, 70, 0
2, 3360, Note_off_c, 1, 80, 0
2, 3360, Note_on_c, 1, 85, 127
2, 3400, Note_off_c, 1, 59, 0
2, 3400, Note_on_c, 1, 67, 127
2, 3400, Note_on_c, 1, 69, 127
2, 3400, Note_on_c, 1, 76, 127
2, 3400, Note_on_c, 1, 82, 127
2, 3400, Note_off_c, 1, 85, 0
2, 3520, Note_on_c, 1, 57, 127
2, 3520, Note_on_c, 1, 60, 127
2, 3520, Note_on_c, 1, 65, 127
2, 3520, Note_off_c, 1, 67, 0
2, 3520, Note_off_c, 1, 76, 0
2, 3520, Note_on_c, 1, 81, 127
2, 3520, Note_off_c, 1, 82, 0
2, 3520, Note_on_c, 1, 86, 127
2, 3560, Note_off_c, 1, 57, 0
2, 3560, Note_off_c, 1, 60, 0
2, 3560, Note_off_c, 1, 65, 0
2, 3560, Note_on_c, 1, 67, 127
2, 3560, Note_on_c, 1, 76, 127
2, 3560, Note_off_c, 1, 81, 0
2, 3560, Note_on_c, 1, 82, 127
2, 3560, Note_off_c, 1, 86, 0
2, 3720, Note_on_c, 1, 61, 127
2, 3720, Note_off_c, 1, 69, 0
2, 3720, Note_on_c, 1, 70, 127
2, 3720, Note_off_c, 1, 82, 0
2, 3760, Note_on_c, 1, 53, 127
2, 3760, Note_on_c, 1, 56, 127
2, 3760, Note_on_c, 1, 60, 127
2, 3760, Note_off_c, 1, 61, 0
2, 3760, Note_on_c, 1, 65, 127
2, 3760, Note_off_c, 1, 67, 0
2, 3760, Note_off_c, 1, 70, 0
2, 3760, Note_off_c, 1, 76, 0
2, 3760, Note_on_c, 1, 84, 127
2, 3840, Note_off_c, 1, 84, 0
2, 3880, Note_off_c, 1, 56, 0
2, 3880, Note_off_c, 1, 65, 0
2, 3880, Note_on_c, 1, 69, 127
2, 3880, Note_on_c, 1, 78, 127
2, 3920, Note_on_c, 1, 56, 127
2, 3920, Note_on_c, 1, 65, 127
2, 3920, Note_off_c, 1, 69, 0
2, 3920, Note_off_c, 1, 78, 0
2, 3920, Note_on_c, 1, 82, 127
2, 3960, Note_off_c, 1, 82, 0
2, 4000, Note_off_c, 1, 53, 0
2, 4000, Note_off_c, 1, 56, 0
2, 4000, Note_off_c, 1, 60, 0
2, 4000, Note_off_c, 1, 65, 0
2, 4040, Note_on_c, 1, 53, 127
2, 4040, Note_on_c, 1, 58, 127
2, 4040, Note_on_c, 1, 62, 127
2, 4040, Note_on_c, 1, 75, 127
2, 4040, Note_on_c, 1, 77, 127
2, 4080, Note_off_c, 1, 53, 0
2, 4080, Note_on_c, 1, 56, 127
2, 4080, Note_off_c, 1, 58, 0
2, 4080, Note_off_c, 1, 62, 0
2, 4080, Note_on_c, 1, 68, 127
2, 4080, Note_off_c, 1, 75, 0
2, 4080, Note_off_c, 1, 77, 0
2, 4080, Note_on_c, 1, 90, 127
2, 4080, Note_on_c, 1, 103, 127
2, 4120, Note_off_c, 1, 56, 0
2, 4120, Note_on_c, 1, 65, 127
2, 4120, Note_off_c, 1, 68, 0
2, 4120, Note_on_c, 1, 71, 127
2, 4120, Note_on_c, 1, 77, 127
2, 4120, Note_on_c, 1, 86, 127
2, 4120, Note_off_c, 1, 90, 0
2, 4120, Note_off_c, 1, 103, 0
2, 4160, Note_off_c, 1, 65, 0
2, 4160, Note_off_c, 1, 71, 0
2, 4160, Note_off_c, 1, 77, 0
2, 4160, Note_off_c, 1, 86, 0
2, 4160, Note_on_c, 1, 87, 127
2, 4160, Note_on_c, 1, 91, 127
2, 4200, Note_on_c, 1, 63, 127
2, 4200, Note_on_c, 1, 66, 127
2, 4200, Note_on_c, 1, 71, 127
2, 4200, Note_on_c, 1, 77, 127
2, 4200, Note_off_c, 1, 87, 0
2, 4200, Note_off_c, 1, 91, 0
2, 4240, Note_on_c, 1, 62, 127
2, 4240, Note_off_c, 1, 63, 0
2, 4240, Note_off_c, 1, 77, 0
2, 4240, Note_on_c, 1, 90, 127
2, 4280, Note_off_c, 1, 62, 0
2, 4280, Note_off_c, 1, 66, 0
2, 4280, Note_off_c, 1, 71, 0
2, 4280, Note_on_c, 1, 80, 127
2, 4280, Note_on_c, 1, 88, 127
2, 4280, Note_off_c, 1, 90, 0
2, 4280, Note_on_c, 1, 100, 127
2, 4320, Note_on_c, 1, 42, 127
2, 4320, Note_on_c, 1, 69, 127
2, 4320, Note_on_c, 1, 72, 127
2, 4320, Note_on_c, 1, 76, 127
2, 4320, Note_off_c, 1, 80, 0
2, 4320, Note_off_c, 1, 88, 0
2, 4320, Note_off_c, 1, 100, 0
2, 4360, Note_off_c, 1, 42, 0
2, 4360, Note_on_c, 1, 43, 127
2, 4360, Note_on_c, 1, 50, 127
2, 4360, Note_on_c, 1, 55, 127
2, 4360, Note_off_c, 1, 69, 0
2, 4360, Note_on_c, 1, 71, 127
2, 4360, Note_off_c, 1, 72, 0
2, 4360, Note_off_c, 1, 76, 0
2, 4400, Note_off_c, 1, 43, 0
2, 4400, Note_off_c, 1, 50, 0
2, 4400, Note_off_c, 1, 55, 0
2, 4400, Note_on_c, 1, 57, 127
2, 4400, Note_on_c, 1, 60, 127
2, 4400, Note_off_c, 1, 71, 0
2, 4400, Note_on_c, 1, 84, 127
2, 4400, Note_on_c, 1, 86, 127
2, 4440, Note_off_c, 1, 57, 0
2, 4440, Note_on_c, 1, 58, 127
2, 4440, Note_off_c, 1, 60, 0
2, 4440, Note_on_c, 1, 63, 127
2, 4440, Note_on_c, 1, 67, 127
2, 4440, Note_on_c, 1, 75, 127
2, 4440, Note_off_c, 1, 84, 0
2, 4440, Note_off_c, 1, 86, 0
2, 4440, Note_on_c, 1, 87, 127
2, 4480, Note_off_c, 1, 58, 0
2, 4480, Note_off_c, 1, 63, 0
2, 4480, Note_on_c, 1, 65, 127
2, 4480, Note_off_c, 1, 67, 0
2, 4480, Note_on_c, 1, 70, 127
2, 4480, Note_on_c, 1, 74, 127
2, 4480, Note_off_c, 1, 75, 0
2, 4480, Note_off_c, 1, 87, 0
2, 4480, Note_on_c, 1, 94, 127
2, 4480, Note_on_c, 1, 96, 127
2, 4520, Note_on_c, 1, 50, 127
2, 4520, Note_on_c, 1, 54, 127
2, 4520, Note_on_c, 1, 59, 127
2, 4520, Note_on_c, 1, 62, 127
2, 4520, Note_off_c, 1, 65, 0
2, 4520, Note_off_c, 1, 70, 0
2, 4520, Note_off_c, 1, 74, 0
2, 4520, Note_on_c, 1, 86, 127
2, 4520, Note_off_c, 1, 94, 0
2, 4520, Note_off_c, 1, 96, 0
2, 4560, Note_off_c, 1, 50, 0
2, 4560, Note_off_c, 1, 54, 0
2, 4560, Note_off_c, 1, 59, 0
2, 4560, Note_on_c, 1, 69, 127
2, 4560, Note_on_c, 1, 71, 127
2, 4560, Note_on_c, 1, 78, 127
2, 4560, Note_off_c, 1, 86, 0
2, 4560, Note_on_c, 1, 90, 127
2, 4600, Note_off_c, 1, 62, 0
2, 4600, Note_off_c, 1, 69, 0
2, 4600, Note_off_c, 1, 78, 0
2, 4600, Note_off_c, 1, 90, 0
2, 4600, Note_on_c, 1, 95, 127
2, 4640, Note_on_c, 1, 52, 127
2, 4640, Note_on_c, 1, 64, 127
2, 4640, Note_off_c, 1, 71, 0
2, 4640, Note_on_c, 1, 74, 127
2, 4640, Note_on_c, 1, 80, 127
2, 4640, Note_on_c, 1, 86, 127
2, 4640, Note_off_c, 1, 95, 0
2, 4680, Note_on_c, 1, 50, 127
2, 4680, Note_off_c, 1, 52, 0
2, 4680, Note_on_c, 1, 54, 127
2, 4680, Note_off_c, 1, 64, 0
2, 4680, Note_on_c, 1, 71, 127
2, 4680, Note_on_c, 1, 73, 127
2, 4680, Note_off_c, 1, 80, 0
2, 4680, Note_off_c, 1, 86, 0
2, 4720, Note_on_c, 1, 49, 127
2, 4720, Note_off_c, 1, 50, 0
2, 4720, Note_off_c, 1, 54, 0
2, 4720, Note_on_c, 1, 61, 127
2, 4720, Note_off_c, 1, 71, 0
2, 4720, Note_off_c, 1, 74, 0
2, 4720, Note_on_c, 1, 76, 127
2, 4720, Note_on_c, 1, 80, 127
2, 4720, Note_on_c, 1, 85, 127
2, 4760, Note_on_c, 1, 47, 127
2, 4760, Note_on_c, 1, 56, 127
2, 4760, Note_off_c, 1, 61, 0
2, 4760, Note_off_c, 1, 73, 0
2, 4760, Note_off_c, 1, 76, 0
2, 4760, Note_off_c, 1, 80, 0
2, 4760, Note_off_c, 1, 85, 0
2, 4760, Note_on_c, 1, 101, 127
2, 4800, Note_off_c, 1, 47, 0
2, 4800, Note_on_c, 1, 48, 127
2, 4800, Note_off_c, 1, 49, 0
2, 4800, Note_off_c, 1, 56, 0
2, 4800, Note_on_c, 1, 60, 127
2, 4800, Note_on_c, 1, 86, 127
2, 4800, Note_on_c, 1, 94, 127
2, 4800, Note_on_c, 1, 98, 127
2, 4800, Note_off_c, 1, 101, 0
2, 4840, Note_on_c, 1, 47, 127
2, 4840, Note_off_c, 1, 48, 0
2, 4840, Note_on_c, 1, 54, 127
2, 4840, Note_on_c, 1, 56, 127
2, 4840, Note_on_c, 1, 59, 127
2, 4840, Note_off_c, 1, 60, 0
2, 4840, Note_on_c, 1, 66, 127
2, 4840, Note_on_c, 1, 78, 127
2, 4840, Note_off_c, 1, 86, 0
2, 4840, Note_on_c, 1, 90, 127
2, 4840, Note_off_c, 1, 94, 0
2, 4840, Note_off_c, 1, 98, 0
2, 4880, Note_on_c, 1, 34, 127
2, 4880, Note_on_c, 1, 46, 127
2, 4880, Note_off_c, 1, 47, 0
2, 4880, Note_off_c, 1, 54, 0
2, 4880, Note_off_c, 1, 56, 0
2, 4880, Note_off_c, 1, 59, 0
2, 4880, Note_off_c, 1, 66, 0
2, 4880, Note_on_c, 1, 70, 127
2, 4880, Note_on_c, 1, 77, 127
2, 4880, Note_off_c, 1, 78, 0
2, 4880, Note_on_c, 1, 79, 127
2, 4880, Note_on_c, 1, 82, 127
2, 4880, Note_off_c, 1, 90, 0
2, 4920, Note_off_c, 1, 34, 0
2, 4920, Note_off_c, 1, 46, 0
2, 4920, Note_off_c, 1, 70, 0
2, 4920, Note_off_c, 1, 77, 0
2, 4920, Note_off_c, 1, 79, 0
2, 4920, Note_on_c, 1, 80, 127
2, 4920, Note_off_c, 1, 82, 0
2, 4920, Note_on_c, 1, 86, 127
2, 4920, Note_on_c, 1, 95, 127
2, 4920, Note_on_c, 1, 96, 127
2, 4960, Note_on_c, 1, 50, 127
2, 4960, Note_on_c, 1, 57, 127
2, 4960, Note_on_c, 1, 71, 127
2, 4960, Note_on_c, 1, 77, 127
2, 4960, Note_off_c, 1, 80, 0
2, 4960, Note_off_c, 1, 86, 0
2, 4960, Note_off_c, 1, 95, 0
2, 4960, Note_off_c, 1, 96, 0
2, 5000, Note_off_c, 1, 50, 0
2, 5000, Note_off_c, 1, 57, 0
2, 5000, Note_off_c, 1, 71, 0
2, 5000, Note_off_c, 1, 77, 0
2, 5080, Note_on_c, 1, 70, 127
2, 5080, Note_on_c, 1, 72, 127
2, 5080, Note_on_c, 1, 75, 127
2, 5080, Note_on_c, 1, 82, 127
2, 5160, Note_on_c, 1, 48, 127
2, 5160, Note_on_c, 1, 56, 127
2, 5160, Note_on_c, 1, 66, 127
2, 5160, Note_off_c, 1, 70, 0
2, 5160, Note_off_c, 1, 72, 0
2, 5160, Note_off_c, 1, 75, 0
2, 5160, Note_off_c, 1, 82, 0
2, 5160, Note_on_c, 1, 90, 127
2, 5200, Note_off_c, 1, 48, 0
2, 5200, Note_on_c, 1, 55, 127
2, 5200, Note_off_c, 1, 56, 0
2, 5200, Note_off_c, 1, 66, 0
2, 5200, Note_on_c, 1, 79, 127
2, 5200, Note_on_c, 1, 82, 127
2, 5200, Note_on_c, 1, 88, 127
2, 5200, Note_off_c, 1, 90, 0
2, 5200, Note_on_c, 1, 91, 127
2, 5240, Note_on_c, 1, 43, 127
2, 5240, Note_on_c, 1, 50, 127
2, 5240, Note_off_c, 1, 55, 0
2, 5240, Note_on_c, 1, 60, 127
2, 5240, Note_on_c, 1, 62, 127
2, 5240, Note_on_c, 1, 69, 127
2, 5240, Note_off_c, 1, 79, 0
2, 5240, Note_off_c, 1, 82, 0
2, 5240, Note_off_c, 1, 88, 0
2, 5240, Note_off_c, 1, 91, 0
2, 5280, Note_on_c, 1, 37, 127
2, 5280, Note_off_c, 1, 43, 0
2, 5280, Note_off_c, 1, 50, 0
2, 5280, Note_on_c, 1, 53, 127
2, 5280, Note_on_c, 1, 56, 127
2, 5280, Note_on_c, 1, 59, 127
2, 5280, Note_off_c, 1, 60, 0
2, 5280, Note_off_c, 1, 62, 0
2, 5280, Note_off_c, 1, 69, 0
2, 5320, Note_off_c, 1, 37, 0
2, 5320, Note_on_c, 1, 40, 127
2, 5320, Note_off_c, 1, 53, 0
2, 5320, Note_off_c, 1, 56, 0
2, 5320, Note_off_c, 1, 59, 0
2, 5320, Note_on_c, 1, 73, 127
2, 5320, Note_on_c, 1, 79, 127
2, 5320, Note_on_c, 1, 82, 127
2, 5320, Note_on_c, 1, 85, 127
2, 5360, Note_off_c, 1, 40, 0
2, 5360, Note_off_c, 1, 73, 0
2, 5360, Note_on_c, 1, 74, 127
2, 5360, Note_off_c, 1, 79, 0
2, 5360, Note_off_c, 1, 82, 0
2, 5360, Note_on_c, 1, 83, 127
2, 5360, Note_off_c, 1, 85, 0
2, 5360, Note_on_c, 1, 89, 127
2, 5400, Note_on_c, 1, 56, 127
2, 5400, Note_on_c, 1, 64, 127
2, 5400, Note_on_c, 1, 69, 127
2, 5400, Note_on_c, 1, 72, 127
2, 5400, Note_off_c, 1, 74, 0
2, 5400, Note_on_c, 1, 76, 127
2, 5400, Note_off_c, 1, 83, 0
2, 5400, Note_off_c, 1, 89, 0
2, 5440, Note_on_c, 1, 52, 127
2, 5440, Note_off_c, 1, 56, 0
2, 5440, Note_off_c, 1, 64, 0
2, 5440, Note_off_c, 1, 69, 0
2, 5440, Note_off_c, 1, 72, 0
2, 5440, Note_on_c, 1, 73, 127
2, 5440, Note_on_c, 1, 85, 127
2, 5480, Note_on_c, 1, 41, 127
2, 5480, Note_off_c, 1, 52, 0
2, 5480, Note_on_c, 1, 53, 127
2, 5480, Note_on_c, 1, 62, 127
2, 5480, Note_on_c, 1, 67, 127
2, 5480, Note_on_c, 1, 71, 127
2, 5480, Note_off_c, 1, 73, 0
2, 5480, Note_on_c, 1, 74, 127
2, 5480, Note_off_c, 1, 76, 0
2, 5480, Note_off_c, 1, 85, 0
2, 5520, Note_off_c, 1, 41, 0
2, 5520, Note_off_c, 1, 53, 0
2, 5520, Note_off_c, 1, 62, 0
2, 5520, Note_off_c, 1, 67, 0
2, 5520, Note_off_c, 1, 71, 0
2, 5520, Note_on_c, 1, 73, 127
2, 5520, Note_off_c, 1, 74, 0
2, 5520, Note_on_c, 1, 77, 127
2, 5520, Note_on_c, 1, 82, 127
2, 5520, Note_on_c, 1, 89, 127
2, 5560, Note_on_c, 1, 48, 127
2, 5560, Note_off_c, 1, 73, 0
2, 5560, Note_off_c, 1, 82, 0
2, 5560, Note_on_c, 1, 84, 127
2, 5600, Note_on_c, 1, 45, 127
2, 5600, Note_off_c, 1, 48, 0
2, 5600, Note_on_c, 1, 49, 127
2, 5600, Note_on_c, 1, 57, 127
2, 5600, Note_off_c, 1, 77, 0
2, 5600, Note_off_c, 1, 84, 0
2, 5600, Note_on_c, 1, 88, 127
2, 5600, Note_off_c, 1, 89, 0
2, 5600, Note_on_c, 1, 97, 127
2, 5600, Note_on_c, 1, 100, 127
2, 5640, Note_on_c, 1, 40, 127
2, 5640, Note_off_c, 1, 45, 0
2, 5640, Note_off_c, 1, 49, 0
2, 5640, Note_on_c, 1, 52, 127
2, 5640, Note_off_c, 1, 57, 0
2, 5640, Note_on_c, 1, 60, 127
2, 5640, Note_on_c, 1, 73, 127
2, 5640, Note_on_c, 1, 76, 127
2, 5640, Note_off_c, 1, 88, 0
2, 5640, Note_off_c, 1, 97, 0
2, 5640, Note_off_c, 1, 100, 0
2, 5680, Note_off_c, 1, 40, 0
2, 5680, Note_off_c, 1, 52, 0
2, 5680, Note_off_c, 1, 60, 0
2, 5680, Note_on_c, 1, 69, 127
2, 5680, Note_off_c, 1, 73, 0
2, 5680, Note_off_c, 1, 76, 0
2, 5680, Note_on_c, 1, 77, 127
2, 5680, Note_on_c, 1, 81, 127
2, 5680, Note_on_c, 1, 89, 127
2, 5720, Note_off_c, 1, 69, 0
2, 5720, Note_on_c, 1, 73, 127
2, 5720, Note_off_c, 1, 81, 0
2, 5720, Note_on_c, 1, 82, 127
2, 5800, Note_off_c, 1, 73, 0
2, 5800, Note_off_c, 1, 77, 0
2, 5800, Note_off_c, 1, 82, 0
2, 5800, Note_off_c, 1, 89, 0
2, 5840, Note_on_c, 1, 65, 127
2, 5840, Note_on_c, 1, 70, 127
2, 5840, Note_on_c, 1, 78, 127
2, 5840, Note_on_c, 1, 85, 127
2, 5840, Note_on_c, 1, 90, 127
2, 5880, Note_off_c, 1, 65, 0
2, 5880, Note_on_c, 1, 66, 127
2, 6040, Note_off_c, 1, 66, 0
2, 6040, Note_on_c, 1, 67, 127
2, 6040, Note_off_c, 1, 70, 0
2, 6040, Note_on_c, 1, 71, 127
2, 6040, Note_on_c, 1, 73, 127
2, 6040, Note_on_c, 1, 76, 127
2, 6040, Note_off_c, 1, 78, 0
2, 6040, Note_on_c, 1, 79, 127
2, 6040, Note_on_c, 1, 83, 127
2, 6040, Note_off_c, 1, 85, 0
2, 6040, Note_on_c, 1, 88, 127
2, 6040, Note_off_c, 1, 90, 0
2, 6040, Note_on_c, 1, 95, 127
2, 6080, Note_off_c, 1, 67, 0
2, 6080, Note_off_c, 1, 71, 0
2, 6080, Note_off_c, 1, 73, 0
2, 6080, Note_off_c, 1, 76, 0
2, 6080, Note_off_c, 1, 79, 0
2, 6080, Note_off_c, 1, 83, 0
2, 6080, Note_off_c, 1, 88, 0
2, 6080, Note_off_c, 1, 95, 0
2, 6120, Note_on_c, 1, 66, 127
2, 6120, Note_on_c, 1, 70, 127
2, 6120, Note_on_c, 1, 78, 127
2, 6120, Note_on_c, 1, 85, 127
2, 6120, Note_on_c, 1, 90, 127
2, 6320, Note_on_c, 1, 65, 127
2, 6320, Note_off_c, 1, 66, 0
2, 6360, Note_off_c, 1, 65, 0
2, 6360, Note_on_c, 1, 66, 127
2, 6400, Note_off_c, 1, 66, 0
2, 6400, Note_off_c, 1, 70, 0
2, 6400, Note_on_c, 1, 73, 127
2, 6400, Note_off_c, 1, 78, 0
2, 6400, Note_off_c, 1, 85, 0
2, 6400, Note_off_c, 1, 90, 0
2, 6440, Note_on_c, 1, 72, 127
2, 6440, Note_off_c, 1, 73, 0
2, 6440, Note_on_c, 1, 75, 127
2, 6480, Note_off_c, 1, 72, 0
2, 6480, Note_off_c, 1, 75, 0
2, 6560, Note_on_c, 1, 82, 127
2, 6560, Note_on_c, 1, 85, 127
2, 6640, Note_off_c, 1, 82, 0
2, 6640, Note_off_c, 1, 85, 0
2, 6680, Note_on_c, 1, 82, 127
2, 6680, Note_on_c, 1, 85, 127
2, 6720, Note_off_c, 1, 82, 0
2, 6720, Note_off_c, 1, 85, 0
2, 6760, Note_on_c, 1, 49, 127
2, 6760, Note_on_c, 1, 52, 127
2, 6760, Note_on_c, 1, 57, 127
2, 6760, Note_on_c, 1, 61, 127
2, 6760, Note_on_c, 1, 63, 127
2, 7080, Note_off_c, 1, 52, 0
2, 7080, Note_off_c, 1, 57, 0
2, 7080, Note_off_c, 1, 61, 0
2, 7080, Note_off_c, 1, 63, 0
2, 7120, Note_on_c, 1, 52, 127
2, 7120, Note_on_c, 1, 57, 127
2, 7120, Note_on_c, 1, 61, 127
2, 7120, Note_on_c, 1, 64, 127
2, 7200, Note_off_c, 1, 49, 0
2, 7200, Note_off_c, 1, 52, 0
2, 7200, Note_off_c, 1, 57, 0
2, 7200, Note_off_c, 1, 61, 0
2, 7200, Note_off_c, 1, 64, 0
2, 7240, Note_on_c, 1, 49, 127
2, 7240, Note_on_c, 1, 52, 127
2, 7240, Note_on_c, 1, 57, 127
2, 7240, Note_on_c, 1, 61, 127
2, 7240, Note_on_c, 1, 64, 127
2, 7360, Note_off_c, 1, 64, 0
2, 7400, Note_on_c, 1, 69, 127
2, 7640, Note_off_c, 1, 49, 0
2, 7640, Note_off_c, 1, 52, 0
2, 7640, Note_off_c, 1, 57, 0
2, 7640, Note_off_c, 1, 61, 0
2, 7640, Note_on_c, 1, 76, 127
2, 7640, Note_on_c, 1, 88, 127
2, 7680, Note_on_c, 1, 49, 127
2, 7680, Note_on_c, 1, 52, 127
2, 7680, Note_on_c, 1, 57, 127
2, 7680, Note_on_c, 1, 61, 127
2, 7680, Note_off_c, 1, 76, 0
2, 7680, Note_off_c, 1, 88, 0
2, 8000, Note_off_c, 1, 49, 0
2, 8000, Note_off_c, 1, 52, 0
2, 8000, Note_off_c, 1, 57, 0
2, 8000, Note_off_c, 1, 61, 0
2, 8000, Note_on_c, 1, 66, 127
2, 8000, Note_off_c, 1, 69, 0
2, 8000, Note_on_c, 1, 76, 127
2, 8000, Note_on_c, 1, 79, 127
2, 8000, Note_on_c, 1, 83, 127
2, 8040, Note_on_c, 1, 49, 127
2, 8040, Note_on_c, 1, 52, 127
2, 8040, Note_on_c, 1, 57, 127
2, 8040, Note_on_c, 1, 61, 127
2, 8040, Note_off_c, 1, 66, 0
2, 8040, Note_on_c, 1, 69, 127
2, 8040, Note_off_c, 1, 76, 0
2, 8040, Note_off_c, 1, 79, 0
2, 8040, Note_off_c, 1, 83, 0
2, 8080, Note_off_c, 1, 49, 0
2, 8080, Note_off_c, 1, 52, 0
2, 8080, Note_off_c, 1, 57, 0
2, 8080, Note_off_c, 1, 61, 0
2, 8080, Note_off_c, 1, 69, 0
2, 8360, Note_on_c, 1, 29, 127
2, 8360, Note_on_c, 1, 36, 127
2, 8360, Note_on_c, 1, 41, 127
2, 8360, Note_on_c, 1, 53, 127
2, 8360, Note_on_c, 1, 57, 127
2, 8360, Note_on_c, 1, 60, 127
2, 8360, Note_on_c, 1, 65, 127
2, 8400, Note_off_c, 1, 29, 0
2, 8400, Note_off_c, 1, 36, 0
2, 8400, Note_off_c, 1, 41, 0
2, 8400, Note_on_c, 1, 48, 127
2, 8400, Note_off_c, 1, 53, 0
2, 8400, Note_off_c, 1, 57, 0
2, 8400, Note_off_c, 1, 60, 0
2, 8400, Note_on_c, 1, 64, 127
2, 8400, Note_off_c, 1, 65, 0
2, 8400, Note_on_c, 1, 69, 127
2, 8400, Note_on_c, 1, 73, 127
2, 8440, Note_on_c, 1, 29, 127
2, 8440, Note_on_c, 1, 36, 127
2, 8440, Note_on_c, 1, 41, 127
2, 8440, Note_off_c, 1, 48, 0
2, 8440, Note_on_c, 1, 53, 127
2, 8440, Note_on_c, 1, 57, 127
2, 8440, Note_on_c, 1, 60, 127
2, 8440, Note_off_c, 1, 64, 0
2, 8440, Note_on_c, 1, 65, 127
2, 8440, Note_off_c, 1, 69, 0
2, 8440, Note_off_c, 1, 73, 0
2, 10040, Note_off_c, 1, 29, 0
2, 10040, Note_off_c, 1, 36, 0
2, 10040, Note_off_c, 1, 41, 0
2, 10040, Note_off_c, 1, 53, 0
2, 10040, Note_off_c, 1, 57, 0
2, 10040, Note_off_c, 1, 60, 0
2, 10040, Note_off_c, 1, 65, 0
2, 10080, Note_on_c, 1, 29, 127
2, 10080, Note_on_c, 1, 36, 127
2, 10080, Note_on_c, 1, 41, 127
2, 10080, Note_on_c, 1, 53, 127
2, 10080, Note_on_c, 1, 57, 127
2, 10080, Note_on_c, 1, 60, 127
2, 10080, Note_on_c, 1, 65, 127
2, 10120, Note_off_c, 1, 29, 0
2, 10120, Note_off_c, 1, 36, 0
2, 10120, Note_off_c, 1, 41, 0
2, 10120, Note_off_c, 1, 53, 0
2, 10120, Note_off_c, 1, 57, 0
2, 10120, Note_off_c, 1, 60, 0
2, 10120, Note_off_c, 1, 65, 0
2, 10960, Note_on_c, 1, 49, 127
2, 11040, Note_off_c, 1, 49, 0
2, 11040, Note_on_c, 1, 53, 127
2, 11160, Note_on_c, 1, 44, 127
2, 11160, Note_off_c, 1, 53, 0
2, 11160, Note_on_c, 1, 72, 127
2, 11160, Note_on_c, 1, 75, 127
2, 11320, Note_off_c, 1, 72, 0
2, 11360, Note_on_c, 1, 72, 127
2, 11760, Note_off_c, 1, 72, 0
2, 11760, Note_off_c, 1, 75, 0
2, 11840, Note_on_c, 1, 60, 127
2, 11960, Note_on_c, 1, 63, 127
2, 12440, Note_off_c, 1, 60, 0
2, 12440, Note_off_c, 1, 63, 0
2, 12480, Note_on_c, 1, 60, 127
2, 12480, Note_on_c, 1, 63, 127
2, 12800, Note_off_c, 1, 44, 0
2, 12800, Note_on_c, 1, 51, 127
2, 12800, Note_on_c, 1, 57, 127
2, 12800, Note_off_c, 1, 63, 0
2, 12800, Note_on_c, 1, 65, 127
2, 12840, Note_off_c, 1, 51, 0
2, 12840, Note_off_c, 1, 57, 0
2, 12840, Note_off_c, 1, 60, 0
2, 12840, Note_off_c, 1, 65, 0
2, 12880, Note_on_c, 1, 44, 127
2, 13280, Note_on_c, 1, 53, 127
2, 13280, Note_on_c, 1, 61, 127
2, 13280, Note_on_c, 1, 68, 127
2, 15240, Note_off_c, 1, 44, 0
2, 15240, Note_off_c, 1, 53, 0
2, 15240, Note_off_c, 1, 61, 0
2, 15240, Note_off_c, 1, 68, 0
2, 16080, Note_on_c, 1, 57, 127
2, 16080, Note_on_c, 1, 60, 127
2, 16080, Note_on_c, 1, 63, 127
2, 16080, Note_on_c, 1, 72, 127
2, 16080, Note_on_c, 1, 78, 127
2, 16080, Note_on_c, 1, 83, 127
2, 16120, Note_on_c, 1, 45, 127
2, 16120, Note_off_c, 1, 60, 0
2, 16120, Note_on_c, 1, 61, 127
2, 16120, Note_off_c, 1, 63, 0
2, 16120, Note_on_c, 1, 67, 127
2, 16120, Note_off_c, 1, 72, 0
2, 16120, Note_off_c, 1, 78, 0
2, 16120, Note_off_c, 1, 83, 0
2, 16240, Note_off_c, 1, 45, 0
2, 16240, Note_off_c, 1, 57, 0
2, 16240, Note_off_c, 1, 61, 0
2, 16240, Note_off_c, 1, 67, 0
2, 16480, Note_on_c, 1, 53, 127
2, 16480, Note_on_c, 1, 60, 127
2, 16480, Note_on_c, 1, 65, 127
2, 16480, Note_on_c, 1, 69, 127
2, 18120, Note_off_c, 1, 53, 0
2, 18120, Note_off_c, 1, 60, 0
2, 18120, Note_off_c, 1, 65, 0
2, 18120, Note_off_c, 1, 69, 0
2, 18160, Note_on_c, 1, 53, 127
2, 18160, Note_on_c, 1, 60, 127
2, 18160, Note_on_c, 1, 65, 127
2, 18160, Note_on_c, 1, 69, 127
2, 18600, Note_off_c, 1, 53, 0
2, 18600, Note_off_c, 1, 60, 0
2, 18600, Note_off_c, 1, 65, 0
2, 18600, Note_off_c, 1, 69, 0
2, 18640, Note_on_c, 1, 44, 127
2, 18640, Note_on_c, 1, 51, 127
2, 18640, Note_on_c, 1, 61, 127
2, 18640, Note_on_c, 1, 68, 127
2, 19400, Note_on_c, 1, 30, 127
2, 19400, Note_on_c, 1, 35, 127
2, 19400, Note_on_c, 1, 37, 127
2, 19400, Note_off_c, 1, 44, 0
2, 19400, Note_off_c, 1, 51, 0
2, 19400, Note_off_c, 1, 61, 0
2, 19400, Note_off_c, 1, 68, 0
2, 19400, Note_on_c, 1, 72, 127
2, 19440, Note_off_c, 1, 30, 0
2, 19440, Note_off_c, 1, 35, 0
2, 19440, Note_off_c, 1, 37, 0
2, 19440, Note_on_c, 1, 44, 127
2, 19440, Note_on_c, 1, 51, 127
2, 19440, Note_on_c, 1, 61, 127
2, 19440, Note_on_c, 1, 68, 127
2, 19440, Note_off_c, 1, 72, 0
2, 19800, Note_off_c, 1, 44, 0
2, 19800, Note_off_c, 1, 51, 0
2, 19800, Note_off_c, 1, 61, 0
2, 19800, Note_off_c, 1, 68, 0
2, 19840, Note_on_c, 1, 36, 127
2, 19840, Note_on_c, 1, 48, 127
2, 20440, Note_off_c, 1, 36, 0
2, 20440, Note_off_c, 1, 48, 0
2, 20440, Note_on_c, 1, 55, 127
2, 20440, Note_on_c, 1, 60, 127
2, 20440, Note_on_c, 1, 63, 127
2, 20480, Note_off_c, 1, 55, 0
2, 20480, Note_off_c, 1, 60, 0
2, 20480, Note_off_c, 1, 63, 0
2, 20520, Note_on_c, 1, 55, 127
2, 20520, Note_on_c, 1, 60, 127
2, 20520, Note_on_c, 1, 63, 127
2, 20760, Note_off_c, 1, 55, 0
2, 20760, Note_off_c, 1, 60, 0
2, 20760, Note_off_c, 1, 63, 0
2, 20800, Note_on_c, 1, 42, 127
2, 20800, Note_on_c, 1, 54, 127
2, 21200, Note_on_c, 1, 69, 127
2, 21520, Note_off_c, 1, 42, 0
2, 21520, Note_off_c, 1, 54, 0
2, 21520, Note_off_c, 1, 69, 0
2, 21560, Note_on_c, 1, 42, 127
2, 21560, Note_on_c, 1, 54, 127
2, 21560, Note_on_c, 1, 70, 127
2, 21560, Note_on_c, 1, 75, 127
2, 21560, Note_on_c, 1, 82, 127
2, 22640, Note_off_c, 1, 42, 0
2, 22640, Note_off_c, 1, 54, 0
2, 22640, Note_off_c, 1, 70, 0
2, 22640, Note_off_c, 1, 75, 0
2, 22640, Note_off_c, 1, 82, 0
2, 22680, Note_on_c, 1, 42, 127
2, 22680, Note_on_c, 1, 54, 127
2, 22680, Note_on_c, 1, 70, 127
2, 22680, Note_on_c, 1, 75, 127
2, 22680, Note_on_c, 1, 82, 127
2, 22720, Note_off_c, 1, 42, 0
2, 22720, Note_off_c, 1, 54, 0
2, 22720, Note_off_c, 1, 70, 0
2, 22720, Note_off_c, 1, 75, 0
2, 22720, Note_off_c, 1, 82, 0
2, 22760, Note_on_c, 1, 39, 127
2, 22760, Note_on_c, 1, 86, 127
2, 22760, Note_on_c, 1, 94, 127
2, 22800, Note_off_c, 1, 39, 0
2, 22800, Note_on_c, 1, 48, 127
2, 22800, Note_on_c, 1, 60, 127
2, 22800, Note_on_c, 1, 67, 127
2, 22800, Note_on_c, 1, 70, 127
2, 22800, Note_on_c, 1, 76, 127
2, 22800, Note_off_c, 1, 86, 0
2, 22800, Note_off_c, 1, 94, 0
2, 22840, Note_on_c, 1, 36, 127
2, 22840, Note_off_c, 1, 48, 0
2, 22840, Note_off_c, 1, 60, 0
2, 22840, Note_off_c, 1, 70, 0
2, 22840, Note_on_c, 1, 75, 127
2, 22840, Note_off_c, 1, 76, 0
2, 22880, Note_off_c, 1, 36, 0
2, 22880, Note_on_c, 1, 48, 127
2, 22880, Note_on_c, 1, 60, 127
2, 22880, Note_on_c, 1, 70, 127
2, 22880, Note_off_c, 1, 75, 0
2, 22880, Note_on_c, 1, 76, 127
2, 22920, Note_on_c, 1, 44, 127
2, 22920, Note_off_c, 1, 48, 0
2, 22920, Note_off_c, 1, 60, 0
2, 22920, Note_off_c, 1, 67, 0
2, 22920, Note_on_c, 1, 72, 127
2, 22920, Note_off_c, 1, 76, 0
2, 22960, Note_off_c, 1, 44, 0
2, 22960, Note_on_c, 1, 46, 127
2, 22960, Note_on_c, 1, 69, 127
2, 22960, Note_off_c, 1, 70, 0
2, 22960, Note_off_c, 1, 72, 0
2, 22960, Note_on_c, 1, 73, 127
2, 22960, Note_on_c, 1, 77, 127
2, 23120, Note_off_c, 1, 46, 0
2, 23160, Note_on_c, 1, 58, 127
2, 23160, Note_on_c, 1, 65, 127
2, 23160, Note_on_c, 1, 68, 127
2, 23160, Note_off_c, 1, 69, 0
2, 23160, Note_on_c, 1, 72, 127
2, 23160, Note_off_c, 1, 73, 0
2, 23160, Note_on_c, 1, 75, 127
2, 23160, Note_off_c, 1, 77, 0
2, 23880, Note_off_c, 1, 58, 0
2, 23880, Note_off_c, 1, 68, 0
2, 23880, Note_off_c, 1, 72, 0
2, 23880, Note_off_c, 1, 75, 0
2, 23920, Note_on_c, 1, 46, 127
2, 23920, Note_on_c, 1, 53, 127
2, 23920, Note_on_c, 1, 72, 127
2, 24840, Note_off_c, 1, 46, 0
2, 24840, Note_off_c, 1, 53, 0
2, 24840, Note_off_c, 1, 65, 0
2, 24840, Note_off_c, 1, 72, 0
2, 24880, Note_on_c, 1, 46, 127
2, 24880, Note_on_c, 1, 53, 127
2, 24880, Note_on_c, 1, 65, 127
2, 24880, Note_on_c, 1, 72, 127
2, 25520, Note_off_c, 1, 46, 0
2, 25520, Note_off_c, 1, 53, 0
2, 25520, Note_off_c, 1, 65, 0
2, 25520, Note_off_c, 1, 72, 0
2, 25560, Note_on_c, 1, 46, 127
2, 25560, Note_on_c, 1, 61, 127
2, 25560, Note_on_c, 1, 70, 127
2, 25560, Note_on_c, 1, 73, 127
2, 26680, Note_off_c, 1, 46, 0
2, 26680, Note_on_c, 1, 53, 127
2, 26680, Note_on_c, 1, 58, 127
2, 26680, Note_off_c, 1, 61, 0
2, 26680, Note_on_c, 1, 64, 127
2, 26680, Note_off_c, 1, 70, 0
2, 26680, Note_off_c, 1, 73, 0
2, 26720, Note_off_c, 1, 53, 0
2, 26720, Note_off_c, 1, 58, 0
2, 26720, Note_off_c, 1, 64, 0
2, 26760, Note_on_c, 1, 46, 127
2, 26760, Note_on_c, 1, 58, 127
2, 26760, Note_on_c, 1, 61, 127
2, 26760, Note_on_c, 1, 70, 127
2, 26760, Note_on_c, 1, 73, 127
2, 27040, Note_off_c, 1, 46, 0
2, 27040, Note_off_c, 1, 58, 0
2, 27040, Note_off_c, 1, 61, 0
2, 27040, Note_off_c, 1, 70, 0
2, 27040, Note_off_c, 1, 73, 0
2, 27080, Note_on_c, 1, 46, 127
2, 27080, Note_on_c, 1, 58, 127
2, 27080, Note_on_c, 1, 61, 127
2, 27080, Note_on_c, 1, 70, 127
2, 27080, Note_on_c, 1, 73, 127
2, 27560, Note_off_c, 1, 61, 0
2, 27560, Note_off_c, 1, 70, 0
2, 27560, Note_off_c, 1, 73, 0
2, 27600, Note_on_c, 1, 65, 127
2, 27600, Note_on_c, 1, 70, 127
2, 27600, Note_on_c, 1, 74, 127
2, 27960, Note_off_c, 1, 65, 0
2, 27960, Note_off_c, 1, 70, 0
2, 27960, Note_off_c, 1, 74, 0
2, 28000, Note_on_c, 1, 63, 127
2, 28000, Note_on_c, 1, 72, 127
2, 28360, Note_off_c, 1, 46, 0
2, 28360, Note_off_c, 1, 58, 0
2, 28360, Note_off_c, 1, 63, 0
2, 28360, Note_off_c, 1, 72, 0
2, 28400, Note_on_c, 1, 48, 127
2, 28400, Note_on_c, 1, 54, 127
2, 28400, Note_on_c, 1, 62, 127
2, 28400, Note_on_c, 1, 74, 127
2, 29120, Note_off_c, 1, 48, 0
2, 29120, Note_off_c, 1, 54, 0
2, 29120, Note_off_c, 1, 62, 0
2, 29120, Note_off_c, 1, 74, 0
2, 29160, Note_on_c, 1, 48, 127
2, 29160, Note_on_c, 1, 54, 127
2, 29160, Note_on_c, 1, 62, 127
2, 29160, Note_on_c, 1, 74, 127
2, 29200, Note_off_c, 1, 48, 0
2, 29200, Note_off_c, 1, 54, 0
2, 29200, Note_off_c, 1, 62, 0
2, 29200, Note_off_c, 1, 74, 0
2, 29240, Note_on_c, 1, 40, 127
2, 29240, Note_on_c, 1, 52, 127
2, 29240, Note_on_c, 1, 58, 127
2, 29240, Note_on_c, 1, 70, 127
2, 29600, Note_off_c, 1, 58, 0
2, 29640, Note_on_c, 1, 64, 127
2, 30000, Note_off_c, 1, 64, 0
2, 30040, Note_on_c, 1, 67, 127
2, 30400, Note_off_c, 1, 40, 0
2, 30400, Note_off_c, 1, 52, 0
2, 30400, Note_off_c, 1, 67, 0
2, 30400, Note_off_c, 1, 70, 0
2, 30440, Note_on_c, 1, 37, 127
2, 30440, Note_on_c, 1, 49, 127
2, 30440, Note_on_c, 1, 55, 127
2, 30440, Note_on_c, 1, 58, 127
2, 30440, Note_on_c, 1, 61, 127
2, 30440, Note_on_c, 1, 64, 127
2, 31320, Note_off_c, 1, 37, 0
2, 31320, Note_off_c, 1, 49, 0
2, 31320, Note_off_c, 1, 55, 0
2, 31320, Note_off_c, 1, 58, 0
2, 31320, Note_off_c, 1, 61, 0
2, 31320, Note_off_c, 1, 64, 0
2, 31360, Note_on_c, 1, 37, 127
2, 31360, Note_on_c, 1, 49, 127
2, 31360, Note_on_c, 1, 55, 127
2, 31360, Note_on_c, 1, 58, 127
2, 31360, Note_on_c, 1, 61, 127
2, 31360, Note_on_c, 1, 64, 127
2, 32000, Note_off_c, 1, 37, 0
2, 32000, Note_off_c, 1, 49, 0
2, 32000, Note_off_c, 1, 55, 0
2, 32000, Note_off_c, 1, 58, 0
2, 32000, Note_off_c, 1, 61, 0
2, 32000, Note_off_c, 1, 64, 0
2, 32040, Note_on_c, 1, 50, 127
2, 32040, Note_on_c, 1, 58, 127
2, 32040, Note_on_c, 1, 77, 127
2, 33240, Note_off_c, 1, 77, 0
2, 33280, Note_on_c, 1, 77, 127
2, 33440, Note_off_c, 1, 50, 0
2, 33440, Note_off_c, 1, 58, 0
2, 33440, Note_off_c, 1, 77, 0
2, 33480, Note_on_c, 1, 50, 127
2, 33480, Note_on_c, 1, 58, 127
2, 33480, Note_on_c, 1, 77, 127
2, 33600, Note_on_c, 1, 55, 127
2, 33600, Note_off_c, 1, 58, 0
2, 33600, Note_off_c, 1, 77, 0
2, 33600, Note_on_c, 1, 79, 127
2, 33640, Note_off_c, 1, 55, 0
2, 33640, Note_on_c, 1, 58, 127
2, 33640, Note_on_c, 1, 77, 127
2, 33640, Note_off_c, 1, 79, 0
2, 34040, Note_off_c, 1, 77, 0
2, 34080, Note_on_c, 1, 65, 127
2, 34840, Note_on_c, 1, 45, 127
2, 34840, Note_off_c, 1, 50, 0
2, 34840, Note_on_c, 1, 57, 127
2, 34840, Note_off_c, 1, 58, 0
2, 34840, Note_off_c, 1, 65, 0
2, 34840, Note_on_c, 1, 73, 127
2, 34840, Note_on_c, 1, 79, 127
2, 34880, Note_on_c, 1, 52, 127
2, 34880, Note_off_c, 1, 57, 0
2, 34880, Note_on_c, 1, 61, 127
2, 34880, Note_on_c, 1, 64, 127
2, 34880, Note_off_c, 1, 73, 0
2, 34880, Note_off_c, 1, 79, 0
2, 35080, Note_off_c, 1, 45, 0
2, 35080, Note_on_c, 1, 48, 127
2, 35080, Note_on_c, 1, 50, 127
2, 35080, Note_off_c, 1, 52, 0
2, 35080, Note_on_c, 1, 54, 127
2, 35080, Note_on_c, 1, 60, 127
2, 35080, Note_off_c, 1, 61, 0
2, 35080, Note_off_c, 1, 64, 0
2, 35080, Note_on_c, 1, 72, 127
2, 35080, Note_on_c, 1, 74, 127
2, 35080, Note_on_c, 1, 78, 127
2, 35080, Note_on_c, 1, 84, 127
2, 35120, Note_on_c, 1, 34, 127
2, 35120, Note_on_c, 1, 41, 127
2, 35120, Note_off_c, 1, 48, 0
2, 35120, Note_off_c, 1, 50, 0
2, 35120, Note_off_c, 1, 54, 0
2, 35120, Note_off_c, 1, 60, 0
2, 35120, Note_off_c, 1, 72, 0
2, 35120, Note_off_c, 1, 74, 0
2, 35120, Note_on_c, 1, 77, 127
2, 35120, Note_off_c, 1, 78, 0
2, 35120, Note_off_c, 1, 84, 0
2, 35120, Note_on_c, 1, 86, 127
2, 35120, Note_on_c, 1, 89, 127
2, 35160, Note_off_c, 1, 34, 0
2, 35160, Note_off_c, 1, 41, 0
2, 35160, Note_on_c, 1, 45, 127
2, 35160, Note_on_c, 1, 57, 127
2, 35160, Note_on_c, 1, 60, 127
2, 35160, Note_on_c, 1, 66, 127
2, 35160, Note_on_c, 1, 69, 127
2, 35160, Note_on_c, 1, 75, 127
2, 35160, Note_off_c, 1, 77, 0
2, 35160, Note_on_c, 1, 78, 127
2, 35160, Note_off_c, 1, 86, 0
2, 35160, Note_on_c, 1, 87, 127
2, 35160, Note_off_c, 1, 89, 0
2, 35200, Note_off_c, 1, 45, 0
2, 35200, Note_on_c, 1, 47, 127
2, 35200, Note_off_c, 1, 57, 0
2, 35200, Note_off_c, 1, 60, 0
2, 35200, Note_off_c, 1, 66, 0
2, 35200, Note_off_c, 1, 69, 0
2, 35200, Note_on_c, 1, 74, 127
2, 35200, Note_off_c, 1, 75, 0
2, 35200, Note_on_c, 1, 77, 127
2, 35200, Note_off_c, 1, 78, 0
2, 35200, Note_on_c, 1, 79, 127
2, 35200, Note_off_c, 1, 87, 0
2, 35240, Note_on_c, 1, 34, 127
2, 35240, Note_on_c, 1, 41, 127
2, 35240, Note_off_c, 1, 47, 0
2, 35240, Note_off_c, 1, 74, 0
2, 35240, Note_off_c, 1, 79, 0
2, 35240, Note_on_c, 1, 86, 127
2, 35240, Note_on_c, 1, 89, 127
2, 35280, Note_off_c, 1, 34, 0
2, 35280, Note_off_c, 1, 41, 0
2, 35280, Note_on_c, 1, 47, 127
2, 35280, Note_on_c, 1, 62, 127
2, 35280, Note_on_c, 1, 65, 127
2, 35280, Note_off_c, 1, 77, 0
2, 35280, Note_off_c, 1, 86, 0
2, 35280, Note_off_c, 1, 89, 0
2, 35480, Note_off_c, 1, 47, 0
2, 35480, Note_off_c, 1, 62, 0
2, 35480, Note_off_c, 1, 65, 0
2, 35520, Note_on_c, 1, 47, 127
2, 35520, Note_on_c, 1, 62, 127
2, 35520, Note_on_c, 1, 65, 127
2, 35640, Note_off_c, 1, 47, 0
2, 35640, Note_on_c, 1, 59, 127
2, 35640, Note_off_c, 1, 62, 0
2, 35640, Note_off_c, 1, 65, 0
2, 35680, Note_on_c, 1, 48, 127
2, 35680, Note_on_c, 1, 55, 127
2, 35680, Note_off_c, 1, 59, 0
2, 35680, Note_on_c, 1, 64, 127
2, 36840, Note_off_c, 1, 55, 0
2, 36880, Note_off_c, 1, 48, 0
2, 36880, Note_on_c, 1, 52, 127
2, 36880, Note_on_c, 1, 67, 127
2, 37240, Note_off_c, 1, 52, 0
2, 37280, Note_on_c, 1, 52, 127
2, 37280, Note_on_c, 1, 60, 127
2, 37280, Note_off_c, 1, 67, 0
2, 37640, Note_off_c, 1, 52, 0
2, 37640, Note_off_c, 1, 60, 0
2, 37640, Note_off_c, 1, 64, 0
2, 37680, Note_on_c, 1, 52, 127
2, 37680, Note_on_c, 1, 60, 127
2, 37680, Note_on_c, 1, 64, 127
2, 38800, Note_off_c, 1, 52, 0
2, 38800, Note_off_c, 1, 60, 0
2, 38800, Note_off_c, 1, 64, 0
2, 38840, Note_on_c, 1, 28, 127
2, 38840, Note_on_c, 1, 40, 127
2, 38840, Note_on_c, 1, 44, 127
2, 38840, Note_on_c, 1, 47, 127
2, 38840, Note_on_c, 1, 52, 127
2, 38840, Note_on_c, 1, 56, 127
2, 38840, Note_on_c, 1, 68, 127
2, 38840, Note_on_c, 1, 71, 127
2, 38840, Note_on_c, 1, 76, 127
2, 38840, Note_on_c, 1, 80, 127
2, 39560, Note_off_c, 1, 68, 0
2, 39560, Note_off_c, 1, 76, 0
2, 39560, Note_off_c, 1, 80, 0
2, 39560, Note_on_c, 1, 83, 127
2, 39600, Note_off_c, 1, 28, 0
2, 39600, Note_off_c, 1, 40, 0
2, 39600, Note_off_c, 1, 44, 0
2, 39600, Note_off_c, 1, 47, 0
2, 39600, Note_off_c, 1, 52, 0
2, 39600, Note_off_c, 1, 56, 0
2, 39600, Note_off_c, 1, 71, 0
2, 39600, Note_off_c, 1, 83, 0
2, 39640, Note_on_c, 1, 48, 127
2, 39640, Note_on_c, 1, 58, 127
2, 39640, Note_on_c, 1, 67, 127
2, 39640, Note_on_c, 1, 76, 127
2, 39920, Note_off_c, 1, 48, 0
2, 39920, Note_off_c, 1, 58, 0
2, 39920, Note_off_c, 1, 67, 0
2, 39920, Note_off_c, 1, 76, 0
2, 39960, Note_on_c, 1, 48, 127
2, 39960, Note_on_c, 1, 58, 127
2, 39960, Note_on_c, 1, 67, 127
2, 39960, Note_on_c, 1, 76, 127
2, 40400, Note_off_c, 1, 48, 0
2, 40400, Note_off_c, 1, 58, 0
2, 40400, Note_on_c, 1, 65, 127
2, 40400, Note_on_c, 1, 74, 127
2, 40400, Note_off_c, 1, 76, 0
2, 40440, Note_on_c, 1, 50, 127
2, 40440, Note_on_c, 1, 57, 127
2, 40440, Note_on_c, 1, 60, 127
2, 40440, Note_on_c, 1, 64, 127
2, 40440, Note_off_c, 1, 65, 0
2, 40560, Note_off_c, 1, 50, 0
2, 40560, Note_off_c, 1, 57, 0
2, 40560, Note_off_c, 1, 60, 0
2, 40560, Note_on_c, 1, 61, 127
2, 40560, Note_on_c, 1, 70, 127
2, 40560, Note_off_c, 1, 74, 0
2, 40560, Note_on_c, 1, 76, 127
2, 40560, Note_on_c, 1, 84, 127
2, 40600, Note_on_c, 1, 50, 127
2, 40600, Note_on_c, 1, 57, 127
2, 40600, Note_on_c, 1, 60, 127
2, 40600, Note_off_c, 1, 61, 0
2, 40600, Note_off_c, 1, 64, 0
2, 40600, Note_off_c, 1, 67, 0
2, 40600, Note_off_c, 1, 70, 0
2, 40600, Note_on_c, 1, 74, 127
2, 40600, Note_off_c, 1, 76, 0
2, 40600, Note_off_c, 1, 84, 0
2, 40640, Note_off_c, 1, 50, 0
2, 40640, Note_on_c, 1, 51, 127
2, 40640, Note_on_c, 1, 56, 127
2, 40640, Note_off_c, 1, 57, 0
2, 40760, Note_on_c, 1, 39, 127
2, 40760, Note_off_c, 1, 51, 0
2, 40760, Note_on_c, 1, 53, 127
2, 40760, Note_off_c, 1, 56, 0
2, 40760, Note_off_c, 1, 60, 0
2, 40760, Note_off_c, 1, 74, 0
2, 40760, Note_on_c, 1, 80, 127
2, 40800, Note_off_c, 1, 39, 0
2, 40800, Note_on_c, 1, 50, 127
2, 40800, Note_off_c, 1, 53, 0
2, 40800, Note_on_c, 1, 55, 127
2, 40800, Note_on_c, 1, 59, 127
2, 40800, Note_on_c, 1, 74, 127
2, 40800, Note_off_c, 1, 80, 0
2, 40840, Note_off_c, 1, 50, 0
2, 40840, Note_off_c, 1, 55, 0
2, 40840, Note_off_c, 1, 59, 0
2, 40840, Note_on_c, 1, 62, 127
2, 40840, Note_on_c, 1, 69, 127
2, 40840, Note_on_c, 1, 91, 127
2, 40880, Note_off_c, 1, 62, 0
2, 40880, Note_off_c, 1, 69, 0
2, 40880, Note_off_c, 1, 74, 0
2, 40880, Note_on_c, 1, 79, 127
2, 40880, Note_on_c, 1, 81, 127
2, 40880, Note_on_c, 1, 82, 127
2, 40880, Note_off_c, 1, 91, 0
2, 40920, Note_on_c, 1, 50, 127
2, 40920, Note_on_c, 1, 55, 127
2, 40920, Note_on_c, 1, 77, 127
2, 40920, Note_off_c, 1, 81, 0
2, 40920, Note_off_c, 1, 82, 0
2, 40920, Note_on_c, 1, 83, 127
2, 40960, Note_off_c, 1, 50, 0
2, 40960, Note_off_c, 1, 55, 0
2, 40960, Note_on_c, 1, 59, 127
2, 40960, Note_on_c, 1, 67, 127
2, 40960, Note_on_c, 1, 71, 127
2, 40960, Note_on_c, 1, 75, 127
2, 40960, Note_off_c, 1, 77, 0
2, 40960, Note_off_c, 1, 83, 0
2, 40960, Note_on_c, 1, 87, 127
2, 41000, Note_off_c, 1, 59, 0
2, 41000, Note_off_c, 1, 67, 0
2, 41000, Note_off_c, 1, 71, 0
2, 41000, Note_off_c, 1, 75, 0
2, 41000, Note_on_c, 1, 81, 127
2, 41000, Note_on_c, 1, 82, 127
2, 41000, Note_off_c, 1, 87, 0
2, 41040, Note_on_c, 1, 55, 127
2, 41040, Note_on_c, 1, 59, 127
2, 41040, Note_on_c, 1, 67, 127
2, 41040, Note_on_c, 1, 75, 127
2, 41040, Note_off_c, 1, 79, 0
2, 41040, Note_off_c, 1, 81, 0
2, 41040, Note_off_c, 1, 82, 0
2, 41040, Note_on_c, 1, 83, 127
2, 41040, Note_on_c, 1, 87, 127
2, 41080, Note_on_c, 1, 36, 127
2, 41080, Note_on_c, 1, 43, 127
2, 41080, Note_on_c, 1, 50, 127
2, 41080, Note_off_c, 1, 55, 0
2, 41080, Note_off_c, 1, 67, 0
2, 41080, Note_off_c, 1, 75, 0
2, 41080, Note_off_c, 1, 83, 0
2, 41080, Note_off_c, 1, 87, 0
2, 41120, Note_off_c, 1, 36, 0
2, 41120, Note_off_c, 1, 43, 0
2, 41120, Note_off_c, 1, 50, 0
2, 41120, Note_off_c, 1, 59, 0
2, 41120, Note_on_c, 1, 68, 127
2, 41120, Note_on_c, 1, 72, 127
2, 41120, Note_on_c, 1, 86, 127
2, 41160, Note_off_c, 1, 68, 0
2, 41160, Note_off_c, 1, 72, 0
2, 41160, Note_off_c, 1, 86, 0
2, 41200, Note_on_c, 1, 55, 127
2, 41200, Note_on_c, 1, 62, 127
2, 41200, Note_on_c, 1, 69, 127
2, 41200, Note_on_c, 1, 71, 127
2, 41200, Note_on_c, 1, 77, 127
2, 41560, Note_off_c, 1, 55, 0
2, 41560, Note_off_c, 1, 62, 0
2, 41560, Note_off_c, 1, 69, 0
2, 41560, Note_off_c, 1, 71, 0
2, 41560, Note_off_c, 1, 77, 0
2, 41600, Note_on_c, 1, 40, 127
2, 41600, Note_on_c, 1, 72, 127
2, 41600, Note_on_c, 1, 79, 127
2, 41600, Note_on_c, 1, 84, 127
2, 41960, Note_off_c, 1, 40, 0
2, 41960, Note_on_c, 1, 55, 127
2, 41960, Note_on_c, 1, 67, 127
2, 41960, Note_on_c, 1, 71, 127
2, 41960, Note_off_c, 1, 72, 0
2, 41960, Note_off_c, 1, 84, 0
2, 42000, Note_off_c, 1, 55, 0
2, 42000, Note_off_c, 1, 67, 0
2, 42000, Note_off_c, 1, 71, 0
2, 42000, Note_off_c, 1, 79, 0
2, 42040, Note_on_c, 1, 50, 127
2, 42040, Note_on_c, 1, 53, 127
2, 42040, Note_on_c, 1, 55, 127
2, 42040, Note_on_c, 1, 67, 127
2, 42360, Note_off_c, 1, 50, 0
2, 42360, Note_off_c, 1, 53, 0
2, 42360, Note_off_c, 1, 55, 0
2, 42400, Note_on_c, 1, 48, 127
2, 42400, Note_on_c, 1, 55, 127
2, 42400, Note_on_c, 1, 64, 127
2, 42400, Note_on_c, 1, 74, 127
2, 43120, Note_off_c, 1, 48, 0
2, 43120, Note_off_c, 1, 55, 0
2, 43120, Note_off_c, 1, 64, 0
2, 43120, Note_off_c, 1, 67, 0
2, 43120, Note_off_c, 1, 74, 0
2, 43160, Note_on_c, 1, 62, 127
2, 43160, Note_on_c, 1, 65, 127
2, 43160, Note_on_c, 1, 71, 127
2, 43160, Note_on_c, 1, 81, 127
2, 43520, Note_on_c, 1, 80, 127
2, 43520, Note_off_c, 1, 81, 0
2, 44000, Note_off_c, 1, 62, 0
2, 44000, Note_off_c, 1, 65, 0
2, 44000, Note_off_c, 1, 71, 0
2, 44000, Note_off_c, 1, 80, 0
2, 44040, Note_on_c, 1, 62, 127
2, 44040, Note_on_c, 1, 65, 127
2, 44040, Note_on_c, 1, 71, 127
2, 44040, Note_on_c, 1, 80, 127
2, 44320, Note_off_c, 1, 62, 0
2, 44320, Note_off_c, 1, 65, 0
2, 44320, Note_off_c, 1, 71, 0
2, 44320, Note_off_c, 1, 80, 0
2, 44360, Note_on_c, 1, 60, 127
2, 44360, Note_on_c, 1, 62, 127
2, 44360, Note_on_c, 1, 69, 127
2, 44360, Note_on_c, 1, 77, 127
2, 44680, Note_off_c, 1, 60, 0
2, 44680, Note_off_c, 1, 69, 0
2, 44720, Note_on_c, 1, 60, 127
2, 44720, Note_on_c, 1, 69, 127
2, 45080, Note_off_c, 1, 60, 0
2, 45080, Note_off_c, 1, 62, 0
2, 45080, Note_off_c, 1, 69, 0
2, 45120, Note_on_c, 1, 53, 127
2, 45120, Note_on_c, 1, 57, 127
2, 45120, Note_on_c, 1, 64, 127
2, 45120, Note_on_c, 1, 69, 127
2, 45120, Note_on_c, 1, 76, 127
2, 45120, Note_off_c, 1, 77, 0
2, 45320, Note_off_c, 1, 53, 0
2, 45320, Note_off_c, 1, 57, 0
2, 45360, Note_on_c, 1, 53, 127
2, 45360, Note_on_c, 1, 57, 127
2, 45440, Note_off_c, 1, 53, 0
2, 45440, Note_off_c, 1, 57, 0
2, 45480, Note_on_c, 1, 53, 127
2, 45480, Note_on_c, 1, 57, 127
2, 45840, Note_off_c, 1, 53, 0
2, 45840, Note_off_c, 1, 76, 0
2, 45880, Note_on_c, 1, 53, 127
2, 45880, Note_on_c, 1, 60, 127
2, 45880, Note_on_c, 1, 63, 127
2, 45880, Note_off_c, 1, 64, 0
2, 46040, Note_off_c, 1, 53, 0
2, 46040, Note_off_c, 1, 57, 0
2, 46040, Note_off_c, 1, 60, 0
2, 46040, Note_off_c, 1, 63, 0
2, 46040, Note_off_c, 1, 69, 0
2, 46080, Note_on_c, 1, 53, 127
2, 46080, Note_on_c, 1, 57, 127
2, 46080, Note_on_c, 1, 60, 127
2, 46080, Note_on_c, 1, 63, 127
2, 46080, Note_on_c, 1, 69, 127
2, 46240, Note_off_c, 1, 53, 0
2, 46240, Note_off_c, 1, 57, 0
2, 46240, Note_off_c, 1, 60, 0
2, 46240, Note_off_c, 1, 63, 0
2, 46240, Note_on_c, 1, 76, 127
2, 46280, Note_on_c, 1, 57, 127
2, 46280, Note_on_c, 1, 60, 127
2, 46280, Note_on_c, 1, 63, 127
2, 46280, Note_off_c, 1, 69, 0
2, 46280, Note_on_c, 1, 72, 127
2, 46280, Note_on_c, 1, 74, 127
2, 46280, Note_off_c, 1, 76, 0
2, 46320, Note_off_c, 1, 60, 0
2, 46320, Note_off_c, 1, 63, 0
2, 46320, Note_on_c, 1, 66, 127
2, 46320, Note_off_c, 1, 72, 0
2, 46320, Note_off_c, 1, 74, 0
2, 46320, Note_on_c, 1, 90, 127
2, 46320, Note_on_c, 1, 93, 127
2, 46360, Note_on_c, 1, 60, 127
2, 46360, Note_on_c, 1, 63, 127
2, 46360, Note_off_c, 1, 66, 0
2, 46360, Note_on_c, 1, 72, 127
2, 46360, Note_on_c, 1, 74, 127
2, 46360, Note_off_c, 1, 90, 0
2, 46360, Note_off_c, 1, 93, 0
2, 46520, Note_off_c, 1, 72, 0
2, 46520, Note_off_c, 1, 74, 0
2, 46560, Note_on_c, 1, 72, 127
2, 46560, Note_on_c, 1, 74, 127
2, 46640, Note_off_c, 1, 72, 0
2, 46640, Note_off_c, 1, 74, 0
2, 46680, Note_on_c, 1, 50, 127
2, 46680, Note_off_c, 1, 57, 0
2, 46680, Note_on_c, 1, 58, 127
2, 46680, Note_off_c, 1, 63, 0
2, 46680, Note_on_c, 1, 64, 127
2, 46680, Note_on_c, 1, 67, 127
2, 46680, Note_on_c, 1, 72, 127
2, 46880, Note_off_c, 1, 50, 0
2, 46960, Note_on_c, 1, 48, 127
2, 47040, Note_off_c, 1, 48, 0
2, 47040, Note_off_c, 1, 58, 0
2, 47040, Note_off_c, 1, 60, 0
2, 47040, Note_off_c, 1, 64, 0
2, 47040, Note_off_c, 1, 67, 0
2, 47040, Note_on_c, 1, 69, 127
2, 47080, Note_on_c, 1, 36, 127
2, 47080, Note_on_c, 1, 62, 127
2, 47080, Note_off_c, 1, 69, 0
2, 47080, Note_on_c, 1, 71, 127
2, 47080, Note_off_c, 1, 72, 0
2, 47440, Note_off_c, 1, 36, 0
2, 47440, Note_off_c, 1, 62, 0
2, 47440, Note_off_c, 1, 71, 0
2, 47480, Note_on_c, 1, 60, 127
2, 47480, Note_on_c, 1, 67, 127
2, 47480, Note_on_c, 1, 69, 127
2, 47480, Note_on_c, 1, 78, 127
2, 47800, Note_on_c, 1, 55, 127
2, 47800, Note_off_c, 1, 60, 0
2, 47800, Note_on_c, 1, 61, 127
2, 47800, Note_off_c, 1, 67, 0
2, 47800, Note_off_c, 1, 69, 0
2, 47800, Note_on_c, 1, 70, 127
2, 47800, Note_off_c, 1, 78, 0
2, 47800, Note_on_c, 1, 79, 127
2, 47800, Note_on_c, 1, 82, 127
2, 47840, Note_off_c, 1, 55, 0
2, 47840, Note_on_c, 1, 60, 127
2, 47840, Note_off_c, 1, 61, 0
2, 47840, Note_on_c, 1, 67, 127
2, 47840, Note_on_c, 1, 69, 127
2, 47840, Note_off_c, 1, 70, 0
2, 47840, Note_off_c, 1, 79, 0
2, 47840, Note_off_c, 1, 82, 0
2, 47880, Note_on_c, 1, 78, 127
2, 48040, Note_off_c, 1, 78, 0
2, 48080, Note_off_c, 1, 60, 0
2, 48080, Note_off_c, 1, 67, 0
2, 48080, Note_off_c, 1, 69, 0
2, 48120, Note_on_c, 1, 60, 127
2, 48120, Note_on_c, 1, 67, 127
2, 48120, Note_on_c, 1, 69, 127
2, 48120, Note_on_c, 1, 78, 127
2, 48240, Note_off_c, 1, 78, 0
2, 48280, Note_on_c, 1, 43, 127
2, 48280, Note_off_c, 1, 67, 0
2, 48280, Note_on_c, 1, 68, 127
2, 48280, Note_off_c, 1, 69, 0
2, 48280, Note_on_c, 1, 77, 127
2, 48600, Note_off_c, 1, 43, 0
2, 48600, Note_on_c, 1, 55, 127
2, 48600, Note_on_c, 1, 59, 127
2, 48600, Note_off_c, 1, 60, 0
2, 48600, Note_off_c, 1, 68, 0
2, 48600, Note_off_c, 1, 77, 0
2, 48640, Note_off_c, 1, 55, 0
2, 48640, Note_off_c, 1, 59, 0
2, 48680, Note_on_c, 1, 52, 127
2, 48680, Note_on_c, 1, 55, 127
2, 48680, Note_on_c, 1, 83, 127
2, 49040, Note_on_c, 1, 79, 127
2, 49040, Note_off_c, 1, 83, 0
2, 49400, Note_off_c, 1, 52, 0
2, 49400, Note_off_c, 1, 55, 0
2, 49400, Note_off_c, 1, 79, 0
2, 49440, Note_on_c, 1, 60, 127
2, 49440, Note_on_c, 1, 64, 127
2, 49440, Note_on_c, 1, 67, 127
2, 49440, Note_on_c, 1, 82, 127
2, 49600, Note_off_c, 1, 82, 0
2, 49640, Note_on_c, 1, 82, 127
2, 49800, Note_off_c, 1, 64, 0
2, 49800, Note_off_c, 1, 67, 0
2, 49800, Note_off_c, 1, 82, 0
2, 49840, Note_on_c, 1, 64, 127
2, 49840, Note_on_c, 1, 67, 127
2, 49840, Note_on_c, 1, 83, 127
2, 50200, Note_off_c, 1, 64, 0
2, 50200, Note_off_c, 1, 67, 0
2, 50200, Note_off_c, 1, 83, 0
2, 50240, Note_off_c, 1, 60, 0
2, 50280, Note_on_c, 1, 60, 127
2, 50280, Note_on_c, 1, 64, 127
2, 50280, Note_on_c, 1, 69, 127
2, 50280, Note_on_c, 1, 86, 127
2, 50640, Note_off_c, 1, 60, 0
2, 50640, Note_off_c, 1, 64, 0
2, 50640, Note_off_c, 1, 69, 0
2, 50640, Note_off_c, 1, 86, 0
2, 50680, Note_on_c, 1, 50, 127
2, 50680, Note_on_c, 1, 74, 127
2, 50680, Note_on_c, 1, 85, 127
2, 50680, Note_on_c, 1, 86, 127
2, 50720, Note_off_c, 1, 50, 0
2, 50720, Note_on_c, 1, 70, 127
2, 50720, Note_off_c, 1, 74, 0
2, 50720, Note_on_c, 1, 80, 127
2, 50720, Note_off_c, 1, 85, 0
2, 50720, Note_off_c, 1, 86, 0
2, 50720, Note_on_c, 1, 92, 127
2, 50760, Note_on_c, 1, 55, 127
2, 50760, Note_on_c, 1, 57, 127
2, 50760, Note_on_c, 1, 62, 127
2, 50760, Note_off_c, 1, 70, 0
2, 50760, Note_off_c, 1, 80, 0
2, 50760, Note_on_c, 1, 81, 127
2, 50760, Note_on_c, 1, 86, 127
2, 50760, Note_off_c, 1, 92, 0
2, 50800, Note_off_c, 1, 55, 0
2, 50800, Note_on_c, 1, 66, 127
2, 50800, Note_off_c, 1, 81, 0
2, 50800, Note_off_c, 1, 86, 0
2, 50800, Note_on_c, 1, 96, 127
2, 50840, Note_on_c, 1, 52, 127
2, 50840, Note_on_c, 1, 56, 127
2, 50840, Note_off_c, 1, 57, 0
2, 50840, Note_on_c, 1, 59, 127
2, 50840, Note_off_c, 1, 62, 0
2, 50840, Note_on_c, 1, 64, 127
2, 50840, Note_off_c, 1, 66, 0
2, 50840, Note_on_c, 1, 68, 127
2, 50840, Note_on_c, 1, 71, 127
2, 50840, Note_on_c, 1, 74, 127
2, 50840, Note_on_c, 1, 80, 127
2, 50840, Note_off_c, 1, 96, 0
2, 50880, Note_off_c, 1, 52, 0
2, 50880, Note_off_c, 1, 56, 0
2, 50880, Note_on_c, 1, 58, 127
2, 50880, Note_off_c, 1, 59, 0
2, 50880, Note_off_c, 1, 64, 0
2, 50880, Note_off_c, 1, 68, 0
2, 50880, Note_off_c, 1, 71, 0
2, 50880, Note_off_c, 1, 74, 0
2, 50880, Note_on_c, 1, 75, 127
2, 50880, Note_off_c, 1, 80, 0
2, 50880, Note_on_c, 1, 82, 127
2, 50880, Note_on_c, 1, 86, 127
2, 50920, Note_on_c, 1, 46, 127
2, 50920, Note_on_c, 1, 51, 127
2, 50920, Note_off_c, 1, 58, 0
2, 50920, Note_on_c, 1, 61, 127
2, 50920, Note_on_c, 1, 66, 127
2, 50920, Note_on_c, 1, 73, 127
2, 50920, Note_off_c, 1, 75, 0
2, 50920, Note_off_c, 1, 82, 0
2, 50920, Note_off_c, 1, 86, 0
2, 50960, Note_on_c, 1, 45, 127
2, 50960, Note_off_c, 1, 46, 0
2, 50960, Note_off_c, 1, 51, 0
2, 50960, Note_off_c, 1, 61, 0
2, 50960, Note_on_c, 1, 64, 127
2, 50960, Note_off_c, 1, 66, 0
2, 50960, Note_on_c, 1, 67, 127
2, 50960, Note_on_c, 1, 71, 127
2, 50960, Note_off_c, 1, 73, 0
2, 50960, Note_on_c, 1, 74, 127
2, 51000, Note_on_c, 1, 33, 127
2, 51000, Note_off_c, 1, 64, 0
2, 51000, Note_on_c, 1, 66, 127
2, 51000, Note_off_c, 1, 67, 0
2, 51000, Note_off_c, 1, 71, 0
2, 51000, Note_on_c, 1, 72, 127
2, 51000, Note_off_c, 1, 74, 0
2, 51000, Note_on_c, 1, 76, 127
2, 51040, Note_off_c, 1, 33, 0
2, 51040, Note_off_c, 1, 45, 0
2, 51040, Note_off_c, 1, 66, 0
2, 51040, Note_off_c, 1, 72, 0
2, 51040, Note_off_c, 1, 76, 0
2, 51040, Note_on_c, 1, 86, 127
2, 51080, Note_on_c, 1, 63, 127
2, 51080, Note_on_c, 1, 69, 127
2, 51080, Note_on_c, 1, 78, 127
2, 51080, Note_on_c, 1, 84, 127
2, 51080, Note_off_c, 1, 86, 0
2, 51800, Note_off_c, 1, 69, 0
2, 51800, Note_off_c, 1, 78, 0
2, 51840, Note_on_c, 1, 56, 127
2, 51840, Note_on_c, 1, 60, 127
2, 51840, Note_off_c, 1, 63, 0
2, 51840, Note_on_c, 1, 72, 127
2, 51840, Note_on_c, 1, 75, 127
2, 51880, Note_off_c, 1, 56, 0
2, 51880, Note_off_c, 1, 60, 0
2, 51880, Note_on_c, 1, 63, 127
2, 52360, Note_off_c, 1, 63, 0
2, 52360, Note_off_c, 1, 72, 0
2, 52360, Note_off_c, 1, 75, 0
2, 52360, Note_off_c, 1, 84, 0
2, 52400, Note_on_c, 1, 63, 127
2, 52400, Note_on_c, 1, 72, 127
2, 52400, Note_on_c, 1, 75, 127
2, 52400, Note_on_c, 1, 84, 127
2, 52640, Note_off_c, 1, 72, 0
2, 52640, Note_off_c, 1, 75, 0
2, 52640, Note_off_c, 1, 84, 0
2, 52680, Note_on_c, 1, 58, 127
2, 52680, Note_off_c, 1, 63, 0
2, 52680, Note_on_c, 1, 66, 127
2, 52680, Note_on_c, 1, 70, 127
2, 52680, Note_on_c, 1, 78, 127
2, 53000, Note_off_c, 1, 66, 0
2, 53000, Note_off_c, 1, 70, 0
2, 53040, Note_on_c, 1, 47, 127
2, 53040, Note_off_c, 1, 58, 0
2, 53040, Note_on_c, 1, 60, 127
2, 53040, Note_off_c, 1, 78, 0
2, 53040, Note_on_c, 1, 84, 127
2, 53120, Note_off_c, 1, 47, 0
2, 53120, Note_on_c, 1, 72, 127
2, 53120, Note_on_c, 1, 76, 127
2, 53160, Note_on_c, 1, 47, 127
2, 53160, Note_off_c, 1, 72, 0
2, 53160, Note_off_c, 1, 76, 0
2, 53200, Note_off_c, 1, 47, 0
2, 53200, Note_on_c, 1, 72, 127
2, 53200, Note_on_c, 1, 76, 127
2, 53760, Note_off_c, 1, 72, 0
2, 53760, Note_off_c, 1, 76, 0
2, 53760, Note_off_c, 1, 84, 0
2, 53800, Note_off_c, 1, 60, 0
2, 53800, Note_on_c, 1, 65, 127
2, 53800, Note_on_c, 1, 79, 127
2, 53800, Note_on_c, 1, 82, 127
2, 54160, Note_off_c, 1, 65, 0
2, 54160, Note_off_c, 1, 79, 0
2, 54160, Note_off_c, 1, 82, 0
2, 54200, Note_on_c, 1, 41, 127
2, 54200, Note_on_c, 1, 77, 127
2, 54200, Note_on_c, 1, 81, 127
2, 54400, Note_off_c, 1, 41, 0
2, 54400, Note_off_c, 1, 77, 0
2, 54400, Note_off_c, 1, 81, 0
2, 54440, Note_on_c, 1, 41, 127
2, 54440, Note_on_c, 1, 77, 127
2, 54440, Note_on_c, 1, 81, 127
2, 54600, Note_off_c, 1, 41, 0
2, 54640, Note_on_c, 1, 41, 127
2, 55000, Note_off_c, 1, 41, 0
2, 55040, Note_on_c, 1, 41, 127
2, 55400, Note_off_c, 1, 41, 0
2, 55400, Note_off_c, 1, 77, 0
2, 55400, Note_off_c, 1, 81, 0
2, 55440, Note_on_c, 1, 41, 127
2, 55440, Note_on_c, 1, 77, 127
2, 55440, Note_on_c, 1, 81, 127
2, 56200, Note_off_c, 1, 41, 0
2, 56200, Note_on_c, 1, 53, 127
2, 56480, Note_off_c, 1, 53, 0
2, 56480, Note_off_c, 1, 77, 0
2, 56480, Note_off_c, 1, 81, 0
2, 56520, Note_on_c, 1, 53, 127
2, 56520, Note_on_c, 1, 77, 127
2, 56520, Note_on_c, 1, 81, 127
2, 56560, Note_on_c, 1, 60, 127
2, 56600, Note_off_c, 1, 60, 0
2, 57320, Note_on_c, 1, 72, 127
2, 57320, Note_off_c, 1, 77, 0
2, 57320, Note_on_c, 1, 79, 127
2, 57320, Note_off_c, 1, 81, 0
2, 57400, Note_off_c, 1, 53, 0
2, 57400, Note_off_c, 1, 72, 0
2, 57400, Note_off_c, 1, 79, 0
2, 57440, Note_on_c, 1, 62, 127
2, 57440, Note_on_c, 1, 77, 127
2, 57440, Note_on_c, 1, 80, 127
2, 57760, Note_off_c, 1, 62, 0
2, 57800, Note_on_c, 1, 53, 127
2, 58160, Note_off_c, 1, 53, 0
2, 58200, Note_on_c, 1, 27, 127
2, 58200, Note_on_c, 1, 66, 127
2, 58200, Note_on_c, 1, 72, 127
2, 58200, Note_off_c, 1, 77, 0
2, 58200, Note_off_c, 1, 80, 0
2, 58560, Note_off_c, 1, 27, 0
2, 58560, Note_off_c, 1, 66, 0
2, 58560, Note_off_c, 1, 72, 0
2, 58560, Note_on_c, 1, 84, 127
2, 58560, Note_on_c, 1, 87, 127
2, 58600, Note_off_c, 1, 84, 0
2, 58600, Note_off_c, 1, 87, 0
2, 58640, Note_on_c, 1, 27, 127
2, 58640, Note_on_c, 1, 66, 127
2, 58640, Note_on_c, 1, 72, 127
2, 59000, Note_off_c, 1, 27, 0
2, 59000, Note_off_c, 1, 66, 0
2, 59000, Note_off_c, 1, 72, 0
2, 59040, Note_on_c, 1, 65, 127
2, 59040, Note_on_c, 1, 73, 127
2, 59040, Note_on_c, 1, 82, 127
2, 59200, Note_off_c, 1, 82, 0
2, 59240, Note_on_c, 1, 82, 127
2, 59360, Note_off_c, 1, 82, 0
2, 59400, Note_on_c, 1, 46, 127
2, 59400, Note_off_c, 1, 65, 0
2, 59400, Note_off_c, 1, 73, 0
2, 59400, Note_on_c, 1, 74, 127
2, 59400, Note_on_c, 1, 86, 127
2, 59400, Note_on_c, 1, 87, 127
2, 59440, Note_off_c, 1, 46, 0
2, 59440, Note_on_c, 1, 83, 127
2, 59440, Note_on_c, 1, 85, 127
2, 59440, Note_off_c, 1, 86, 0
2, 59440, Note_off_c, 1, 87, 0
2, 59480, Note_on_c, 1, 72, 127
2, 59480, Note_on_c, 1, 73, 127
2, 59480, Note_off_c, 1, 74, 0
2, 59480, Note_off_c, 1, 83, 0
2, 59480, Note_off_c, 1, 85, 0
2, 59480, Note_on_c, 1, 96, 127
2, 59520, Note_on_c, 1, 51, 127
2, 59520, Note_on_c, 1, 58, 127
2, 59520, Note_off_c, 1, 72, 0
2, 59520, Note_on_c, 1, 76, 127
2, 59520, Note_off_c, 1, 96, 0
2, 59560, Note_off_c, 1, 51, 0
2, 59560, Note_on_c, 1, 54, 127
2, 59560, Note_off_c, 1, 58, 0
2, 59560, Note_on_c, 1, 59, 127
2, 59560, Note_on_c, 1, 68, 127
2, 59560, Note_off_c, 1, 73, 0
2, 59560, Note_off_c, 1, 76, 0
2, 59560, Note_on_c, 1, 85, 127
2, 59600, Note_on_c, 1, 34, 127
2, 59600, Note_on_c, 1, 46, 127
2, 59600, Note_off_c, 1, 54, 0
2, 59600, Note_off_c, 1, 59, 0
2, 59600, Note_on_c, 1, 62, 127
2, 59600, Note_on_c, 1, 65, 127
2, 59600, Note_off_c, 1, 85, 0
2, 59640, Note_off_c, 1, 34, 0
2, 59640, Note_on_c, 1, 42, 127
2, 59640, Note_off_c, 1, 46, 0
2, 59640, Note_on_c, 1, 55, 127
2, 59640, Note_off_c, 1, 62, 0
2, 59640, Note_off_c, 1, 65, 0
2, 59640, Note_off_c, 1, 68, 0
2, 59640, Note_on_c, 1, 76, 127
2, 59640, Note_on_c, 1, 81, 127
2, 59680, Note_off_c, 1, 42, 0
2, 59680, Note_on_c, 1, 51, 127
2, 59680, Note_off_c, 1, 55, 0
2, 59680, Note_on_c, 1, 63, 127
2, 59680, Note_on_c, 1, 72, 127
2, 59680, Note_off_c, 1, 76, 0
2, 59680, Note_on_c, 1, 79, 127
2, 59680, Note_off_c, 1, 81, 0
2, 59680, Note_on_c, 1, 84, 127
2, 59720, Note_off_c, 1, 51, 0
2, 59720, Note_off_c, 1, 63, 0
2, 59720, Note_on_c, 1, 68, 127
2, 59720, Note_off_c, 1, 72, 0
2, 59720, Note_off_c, 1, 79, 0
2, 59720, Note_on_c, 1, 81, 127
2, 59720, Note_on_c, 1, 83, 127
2, 59720, Note_off_c, 1, 84, 0
2, 59760, Note_off_c, 1, 68, 0
2, 59760, Note_off_c, 1, 83, 0
2, 59760, Note_on_c, 1, 85, 127
2, 59800, Note_on_c, 1, 37, 127
2, 59800, Note_on_c, 1, 66, 127
2, 59800, Note_off_c, 1, 81, 0
2, 59800, Note_on_c, 1, 82, 127
2, 59800, Note_off_c, 1, 85, 0
2, 59840, Note_off_c, 1, 37, 0
2, 59840, Note_on_c, 1, 41, 127
2, 59840, Note_off_c, 1, 66, 0
2, 59840, Note_on_c, 1, 78, 127
2, 59880, Note_on_c, 1, 37, 127
2, 59880, Note_off_c, 1, 41, 0
2, 59880, Note_on_c, 1, 66, 127
2, 59880, Note_off_c, 1, 78, 0
2, 59960, Note_off_c, 1, 37, 0
2, 59960, Note_on_c, 1, 53, 127
2, 59960, Note_off_c, 1, 66, 0
2, 59960, Note_on_c, 1, 78, 127
2, 60000, Note_on_c, 1, 44, 127
2, 60000, Note_on_c, 1, 48, 127
2, 60000, Note_off_c, 1, 53, 0
2, 60000, Note_on_c, 1, 54, 127
2, 60000, Note_on_c, 1, 56, 127
2, 60000, Note_off_c, 1, 78, 0
2, 60000, Note_off_c, 1, 82, 0
2, 60040, Note_off_c, 1, 44, 0
2, 60040, Note_off_c, 1, 48, 0
2, 60040, Note_off_c, 1, 56, 0
2, 60040, Note_on_c, 1, 57, 127
2, 60040, Note_on_c, 1, 84, 127
2, 60040, Note_on_c, 1, 87, 127
2, 60080, Note_on_c, 1, 44, 127
2, 60080, Note_on_c, 1, 48, 127
2, 60080, Note_on_c, 1, 56, 127
2, 60080, Note_off_c, 1, 57, 0
2, 60080, Note_off_c, 1, 84, 0
2, 60080, Note_off_c, 1, 87, 0
2, 60160, Note_off_c, 1, 44, 0
2, 60160, Note_off_c, 1, 48, 0
2, 60160, Note_off_c, 1, 54, 0
2, 60160, Note_off_c, 1, 56, 0
2, 60200, Note_on_c, 1, 64, 127
2, 60200, Note_on_c, 1, 72, 127
2, 60200, Note_on_c, 1, 91, 127
2, 60560, Note_off_c, 1, 64, 0
2, 60560, Note_on_c, 1, 67, 127
2, 60560, Note_off_c, 1, 72, 0
2, 60560, Note_off_c, 1, 91, 0
2, 60560, Note_on_c, 1, 94, 127
2, 60600, Note_off_c, 1, 67, 0
2, 60600, Note_off_c, 1, 94, 0
2, 60640, Note_on_c, 1, 62, 127
2, 60640, Note_on_c, 1, 67, 127
2, 60640, Note_on_c, 1, 84, 127
2, 60640, Note_on_c, 1, 89, 127
2, 61000, Note_off_c, 1, 62, 0
2, 61000, Note_off_c, 1, 67, 0
2, 61000, Note_off_c, 1, 84, 0
2, 61000, Note_off_c, 1, 89, 0
2, 61040, Note_on_c, 1, 62, 127
2, 61040, Note_on_c, 1, 67, 127
2, 61040, Note_on_c, 1, 84, 127
2, 61040, Note_on_c, 1, 89, 127
2, 61400, Note_off_c, 1, 62, 0
2, 61400, Note_off_c, 1, 67, 0
2, 61400, Note_off_c, 1, 84, 0
2, 61400, Note_on_c, 1, 85, 127
2, 61400, Note_on_c, 1, 87, 127
2, 61400, Note_off_c, 1, 89, 0
2, 61440, Note_on_c, 1, 60, 127
2, 61440, Note_on_c, 1, 72, 127
2, 61440, Note_on_c, 1, 77, 127
2, 61440, Note_on_c, 1, 79, 127
2, 61440, Note_off_c, 1, 85, 0
2, 61440, Note_off_c, 1, 87, 0
2, 61480, Note_off_c, 1, 60, 0
2, 61480, Note_off_c, 1, 72, 0
2, 61480, Note_on_c, 1, 75, 127
2, 61480, Note_off_c, 1, 79, 0
2, 61480, Note_on_c, 1, 85, 127
2, 61520, Note_on_c, 1, 41, 127
2, 61520, Note_on_c, 1, 53, 127
2, 61520, Note_on_c, 1, 65, 127
2, 61520, Note_on_c, 1, 68, 127
2, 61520, Note_on_c, 1, 73, 127
2, 61520, Note_off_c, 1, 75, 0
2, 61520, Note_off_c, 1, 85, 0
2, 61560, Note_on_c, 1, 38, 127
2, 61560, Note_off_c, 1, 41, 0
2, 61560, Note_on_c, 1, 50, 127
2, 61560, Note_off_c, 1, 53, 0
2, 61560, Note_off_c, 1, 65, 0
2, 61560, Note_off_c, 1, 68, 0
2, 61560, Note_off_c, 1, 73, 0
2, 61560, Note_on_c, 1, 79, 127
2, 61600, Note_off_c, 1, 38, 0
2, 61600, Note_off_c, 1, 50, 0
2, 61600, Note_off_c, 1, 77, 0
2, 61600, Note_on_c, 1, 78, 127
2, 61600, Note_off_c, 1, 79, 0
2, 61600, Note_on_c, 1, 82, 127
2, 61600, Note_on_c, 1, 87, 127
2, 61640, Note_on_c, 1, 69, 127
2, 61640, Note_on_c, 1, 72, 127
2, 61640, Note_on_c, 1, 76, 127
2, 61640, Note_off_c, 1, 78, 0
2, 61640, Note_on_c, 1, 79, 127
2, 61640, Note_off_c, 1, 82, 0
2, 61640, Note_off_c, 1, 87, 0
2, 61800, Note_off_c, 1, 76, 0
2, 61800, Note_off_c, 1, 79, 0
2, 61840, Note_on_c, 1, 76, 127
2, 61840, Note_on_c, 1, 79, 127
2, 62200, Note_off_c, 1, 69, 0
2, 62200, Note_off_c, 1, 72, 0
2, 62200, Note_off_c, 1, 76, 0
2, 62200, Note_off_c, 1, 79, 0
2, 62240, Note_on_c, 1, 58, 127
2, 62240, Note_on_c, 1, 63, 127
2, 62240, Note_on_c, 1, 82, 127
2, 62240, Note_on_c, 1, 89, 127
2, 62240, Note_on_c, 1, 94, 127
2, 62560, Note_off_c, 1, 58, 0
2, 62560, Note_on_c, 1, 61, 127
2, 62560, Note_off_c, 1, 63, 0
2, 62560, Note_on_c, 1, 67, 127
2, 62600, Note_off_c, 1, 61, 0
2, 62600, Note_off_c, 1, 67, 0
2, 62600, Note_on_c, 1, 75, 127
2, 62600, Note_on_c, 1, 79, 127
2, 62600, Note_off_c, 1, 82, 0
2, 62600, Note_on_c, 1, 87, 127
2, 62600, Note_off_c, 1, 89, 0
2, 62600, Note_off_c, 1, 94, 0
2, 62640, Note_off_c, 1, 75, 0
2, 62640, Note_off_c, 1, 79, 0
2, 62640, Note_off_c, 1, 87, 0
2, 62680, Note_on_c, 1, 52, 127
2, 62680, Note_on_c, 1, 55, 127
2, 62680, Note_on_c, 1, 60, 127
2, 62680, Note_on_c, 1, 64, 127
2, 62680, Note_on_c, 1, 72, 127
2, 63040, Note_off_c, 1, 52, 0
2, 63040, Note_off_c, 1, 55, 0
2, 63040, Note_off_c, 1, 60, 0
2, 63040, Note_off_c, 1, 64, 0
2, 63040, Note_off_c, 1, 72, 0
2, 63080, Note_on_c, 1, 69, 127
2, 63080, Note_on_c, 1, 77, 127
2, 63080, Note_on_c, 1, 84, 127
2, 63400, Note_off_c, 1, 69, 0
2, 63400, Note_off_c, 1, 77, 0
2, 63400, Note_off_c, 1, 84, 0
2, 63440, Note_on_c, 1, 53, 127
2, 63440, Note_on_c, 1, 60, 127
2, 63440, Note_on_c, 1, 72, 127
2, 63440, Note_on_c, 1, 81, 127
2, 64200, Note_off_c, 1, 60, 0
2, 64200, Note_off_c, 1, 72, 0
2, 64200, Note_off_c, 1, 81, 0
2, 64240, Note_on_c, 1, 49, 127
2, 64240, Note_off_c, 1, 53, 0
2, 64240, Note_on_c, 1, 55, 127
2, 64240, Note_on_c, 1, 61, 127
2, 64240, Note_on_c, 1, 63, 127
2, 64240, Note_on_c, 1, 67, 127
2, 64240, Note_on_c, 1, 70, 127
2, 64600, Note_on_c, 1, 48, 127
2, 64600, Note_off_c, 1, 49, 0
2, 64600, Note_on_c, 1, 51, 127
2, 64600, Note_on_c, 1, 60, 127
2, 64600, Note_off_c, 1, 61, 0
2, 64600, Note_off_c, 1, 63, 0
2, 64600, Note_off_c, 1, 67, 0
2, 64600, Note_off_c, 1, 70, 0
2, 64600, Note_on_c, 1, 79, 127
2, 64640, Note_off_c, 1, 48, 0
2, 64640, Note_off_c, 1, 51, 0
2, 64640, Note_off_c, 1, 55, 0
2, 64640, Note_off_c, 1, 60, 0
2, 64640, Note_off_c, 1, 79, 0
2, 64680, Note_on_c, 1, 42, 127
2, 64680, Note_on_c, 1, 50, 127
2, 64680, Note_on_c, 1, 57, 127
2, 64680, Note_on_c, 1, 61, 127
2, 65000, Note_off_c, 1, 42, 0
2, 65000, Note_off_c, 1, 57, 0
2, 65000, Note_off_c, 1, 61, 0
2, 65040, Note_off_c, 1, 50, 0
2, 65080, Note_on_c, 1, 30, 127
2, 65080, Note_on_c, 1, 37, 127
2, 65080, Note_on_c, 1, 46, 127
2, 65080, Note_on_c, 1, 70, 127
2, 65080, Note_on_c, 1, 78, 127
2, 65080, Note_on_c, 1, 85, 127
2, 66640, Note_off_c, 1, 30, 0
2, 66640, Note_off_c, 1, 37, 0
2, 66640, Note_off_c, 1, 46, 0
2, 66640, Note_off_c, 1, 70, 0
2, 66640, Note_off_c, 1, 78, 0
2, 66640, Note_off_c, 1, 85, 0
2, 66680, Note_on_c, 1, 30, 127
2, 66680, Note_on_c, 1, 37, 127
2, 66680, Note_on_c, 1, 46, 127
2, 66680, Note_on_c, 1, 70, 127
2, 66680, Note_on_c, 1, 78, 127
2, 66680, Note_on_c, 1, 85, 127
2, 68640, Note_off_c, 1, 30, 0
2, 68640, Note_off_c, 1, 37, 0
2, 68640, Note_off_c, 1, 46, 0
2, 68640, Note_off_c, 1, 70, 0
2, 68640, Note_off_c, 1, 78, 0
2, 68640, Note_off_c, 1, 85, 0
2, 68680, Note_on_c, 1, 30, 127
2, 68680, Note_on_c, 1, 37, 127
2, 68680, Note_on_c, 1, 46, 127
2, 68680, Note_on_c, 1, 70, 127
2, 68680, Note_on_c, 1, 78, 127
2, 68680, Note_on_c, 1, 85, 127
2, 69880, Note_off_c, 1, 30, 0
2, 69880, Note_off_c, 1, 37, 0
2, 69880, Note_off_c, 1, 46, 0
2, 69880, Note_off_c, 1, 70, 0
2, 69880, Note_off_c, 1, 78, 0
2, 69880, Note_off_c, 1, 85, 0
2, 71480, Note_on_c, 1, 58, 127
2, 71480, Note_on_c, 1, 63, 127
2, 71480, Note_on_c, 1, 67, 127
2, 71640, Note_on_c, 1, 33, 127
2, 71640, Note_on_c, 1, 45, 127
2, 71640, Note_off_c, 1, 58, 0
2, 71640, Note_on_c, 1, 60, 127
2, 71640, Note_off_c, 1, 63, 0
2, 71640, Note_on_c, 1, 72, 127
2, 71680, Note_off_c, 1, 33, 0
2, 71680, Note_off_c, 1, 45, 0
2, 71680, Note_on_c, 1, 50, 127
2, 71680, Note_off_c, 1, 60, 0
2, 71680, Note_on_c, 1, 62, 127
2, 71680, Note_off_c, 1, 67, 0
2, 71680, Note_on_c, 1, 69, 127
2, 71680, Note_off_c, 1, 72, 0
2, 71680, Note_on_c, 1, 74, 127
2, 71680, Note_on_c, 1, 81, 127
2, 71720, Note_on_c, 1, 33, 127
2, 71720, Note_on_c, 1, 45, 127
2, 71720, Note_off_c, 1, 50, 0
2, 71720, Note_on_c, 1, 60, 127
2, 71720, Note_off_c, 1, 62, 0
2, 71720, Note_on_c, 1, 67, 127
2, 71720, Note_off_c, 1, 69, 0
2, 71720, Note_on_c, 1, 72, 127
2, 71720, Note_off_c, 1, 74, 0
2, 71720, Note_off_c, 1, 81, 0
2, 72000, Note_off_c, 1, 33, 0
2, 72000, Note_off_c, 1, 45, 0
2, 72000, Note_on_c, 1, 51, 127
2, 72000, Note_on_c, 1, 58, 127
2, 72000, Note_off_c, 1, 60, 0
2, 72000, Note_on_c, 1, 63, 127
2, 72000, Note_off_c, 1, 67, 0
2, 72000, Note_on_c, 1, 70, 127
2, 72000, Note_off_c, 1, 72, 0
2, 72040, Note_off_c, 1, 51, 0
2, 72040, Note_on_c, 1, 53, 127
2, 72040, Note_off_c, 1, 58, 0
2, 72040, Note_on_c, 1, 60, 127
2, 72040, Note_off_c, 1, 63, 0
2, 72040, Note_on_c, 1, 65, 127
2, 72040, Note_on_c, 1, 69, 127
2, 72040, Note_off_c, 1, 70, 0
2, 72040, Note_on_c, 1, 82, 127
2, 72080, Note_on_c, 1, 40, 127
2, 72080, Note_on_c, 1, 52, 127
2, 72080, Note_off_c, 1, 53, 0
2, 72080, Note_off_c, 1, 60, 0
2, 72080, Note_off_c, 1, 65, 0
2, 72080, Note_off_c, 1, 69, 0
2, 72080, Note_on_c, 1, 72, 127
2, 72080, Note_on_c, 1, 79, 127
2, 72080, Note_off_c, 1, 82, 0
2, 72080, Note_on_c, 1, 83, 127
2, 72120, Note_off_c, 1, 40, 0
2, 72120, Note_off_c, 1, 52, 0
2, 72120, Note_on_c, 1, 53, 127
2, 72120, Note_on_c, 1, 60, 127
2, 72120, Note_on_c, 1, 65, 127
2, 72120, Note_on_c, 1, 69, 127
2, 72120, Note_off_c, 1, 72, 0
2, 72120, Note_off_c, 1, 79, 0
2, 72120, Note_on_c, 1, 82, 127
2, 72120, Note_off_c, 1, 83, 0
2, 72160, Note_on_c, 1, 81, 127
2, 72160, Note_off_c, 1, 82, 0
2, 72200, Note_off_c, 1, 53, 0
2, 72200, Note_off_c, 1, 60, 0
2, 72200, Note_off_c, 1, 65, 0
2, 72200, Note_off_c, 1, 69, 0
2, 72200, Note_off_c, 1, 81, 0
2, 72200, Note_on_c, 1, 82, 127
2, 72240, Note_on_c, 1, 60, 127
2, 72240, Note_on_c, 1, 65, 127
2, 72240, Note_on_c, 1, 68, 127
2, 72240, Note_on_c, 1, 72, 127
2, 72240, Note_on_c, 1, 80, 127
2, 72240, Note_off_c, 1, 82, 0
2, 72400, Note_off_c, 1, 60, 0
2, 72400, Note_off_c, 1, 65, 0
2, 72440, Note_on_c, 1, 63, 127
2, 72440, Note_off_c, 1, 80, 0
2, 72440, Note_on_c, 1, 87, 127
2, 72560, Note_off_c, 1, 87, 0
2, 72600, Note_off_c, 1, 63, 0
2, 72600, Note_off_c, 1, 68, 0
2, 72600, Note_off_c, 1, 72, 0
2, 72640, Note_on_c, 1, 48, 127
2, 72640, Note_on_c, 1, 60, 127
2, 72640, Note_on_c, 1, 89, 127
2, 72960, Note_off_c, 1, 89, 0
2, 73000, Note_on_c, 1, 89, 127
2, 73280, Note_off_c, 1, 48, 0
2, 73280, Note_off_c, 1, 60, 0
2, 73280, Note_off_c, 1, 89, 0
2, 73320, Note_on_c, 1, 48, 127
2, 73320, Note_on_c, 1, 60, 127
2, 73320, Note_on_c, 1, 89, 127
2, 73400, Note_off_c, 1, 89, 0
2, 73440, Note_on_c, 1, 89, 127
2, 73600, Note_on_c, 1, 86, 127
2, 73600, Note_off_c, 1, 89, 0
2, 73640, Note_off_c, 1, 86, 0
2, 73640, Note_on_c, 1, 87, 127
2, 73760, Note_off_c, 1, 87, 0
2, 73800, Note_on_c, 1, 82, 127
2, 74160, Note_on_c, 1, 79, 127
2, 74160, Note_off_c, 1, 82, 0
2, 74240, Note_on_c, 1, 77, 127
2, 74240, Note_off_c, 1, 79, 0
2, 74280, Note_off_c, 1, 77, 0
2, 74280, Note_on_c, 1, 79, 127
2, 74560, Note_off_c, 1, 48, 0
2, 74560, Note_off_c, 1, 79, 0
2, 74600, Note_on_c, 1, 48, 127
2, 74600, Note_on_c, 1, 68, 127
2, 74720, Note_off_c, 1, 48, 0
2, 74720, Note_on_c, 1, 55, 127
2, 74720, Note_on_c, 1, 58, 127
2, 74720, Note_off_c, 1, 60, 0
2, 74720, Note_on_c, 1, 62, 127
2, 74720, Note_on_c, 1, 67, 127
2, 74720, Note_off_c, 1, 68, 0
2, 74720, Note_on_c, 1, 70, 127
2, 74760, Note_on_c, 1, 48, 127
2, 74760, Note_off_c, 1, 55, 0
2, 74760, Note_off_c, 1, 58, 0
2, 74760, Note_on_c, 1, 60, 127
2, 74760, Note_off_c, 1, 62, 0
2, 74760, Note_off_c, 1, 67, 0
2, 74760, Note_on_c, 1, 68, 127
2, 74760, Note_off_c, 1, 70, 0
2, 74920, Note_off_c, 1, 68, 0
2, 74920, Note_on_c, 1, 72, 127
2, 74960, Note_off_c, 1, 72, 0
2, 75000, Note_on_c, 1, 68, 127
2, 75120, Note_off_c, 1, 68, 0
2, 75160, Note_on_c, 1, 68, 127
2, 75320, Note_off_c, 1, 68, 0
2, 75360, Note_on_c, 1, 67, 127
2, 75520, Note_off_c, 1, 67, 0
2, 75560, Note_off_c, 1, 48, 0
2, 75560, Note_off_c, 1, 60, 0
2, 75600, Note_on_c, 1, 48, 127
2, 75600, Note_on_c, 1, 60, 127
2, 75600, Note_on_c, 1, 66, 127
2, 75760, Note_off_c, 1, 66, 0
2, 75800, Note_on_c, 1, 67, 127
2, 75960, Note_off_c, 1, 67, 0
2, 76000, Note_on_c, 1, 67, 127
2, 76120, Note_off_c, 1, 48, 0
2, 76120, Note_off_c, 1, 60, 0
2, 76120, Note_off_c, 1, 67, 0
2, 76160, Note_on_c, 1, 41, 127
2, 76160, Note_on_c, 1, 53, 127
2, 76160, Note_on_c, 1, 65, 127
2, 76520, Note_off_c, 1, 65, 0
2, 76560, Note_on_c, 1, 68, 127
2, 76880, Note_off_c, 1, 41, 0
2, 76880, Note_off_c, 1, 53, 0
2, 76880, Note_off_c, 1, 68, 0
2, 76920, Note_on_c, 1, 41, 127
2, 76920, Note_on_c, 1, 53, 127
2, 76920, Note_on_c, 1, 65, 127
2, 77280, Note_off_c, 1, 41, 0
2, 77280, Note_off_c, 1, 65, 0
2, 77320, Note_on_c, 1, 34, 127
2, 77320, Note_off_c, 1, 53, 0
2, 77320, Note_on_c, 1, 58, 127
2, 77560, Note_off_c, 1, 34, 0
2, 77560, Note_off_c, 1, 58, 0
2, 77600, Note_on_c, 1, 34, 127
2, 77600, Note_on_c, 1, 58, 127
2, 77680, Note_off_c, 1, 58, 0
2, 77680, Note_on_c, 1, 65, 127
2, 77720, Note_off_c, 1, 34, 0
2, 77720, Note_off_c, 1, 65, 0
2, 77760, Note_on_c, 1, 34, 127
2, 77760, Note_on_c, 1, 58, 127
2, 78120, Note_on_c, 1, 46, 127
2, 78160, Note_off_c, 1, 46, 0
2, 78440, Note_off_c, 1, 34, 0
2, 78440, Note_off_c, 1, 58, 0
2, 78440, Note_on_c, 1, 64, 127
2, 78440, Note_on_c, 1, 71, 127
2, 78440, Note_on_c, 1, 83, 127
2, 78440, Note_on_c, 1, 90, 127
2, 78480, Note_off_c, 1, 64, 0
2, 78480, Note_off_c, 1, 71, 0
2, 78480, Note_off_c, 1, 83, 0
2, 78480, Note_off_c, 1, 90, 0
2, 78520, Note_on_c, 1, 53, 127
2, 79240, Note_off_c, 1, 53, 0
2, 79280, Note_on_c, 1, 46, 127
2, 79440, Note_off_c, 1, 46, 0
2, 79480, Note_on_c, 1, 53, 127
2, 79600, Note_off_c, 1, 53, 0
2, 79640, Note_on_c, 1, 53, 127
2, 79680, Note_off_c, 1, 53, 0
2, 79720, Note_on_c, 1, 58, 127
2, 80080, Note_off_c, 1, 58, 0
2, 80120, Note_on_c, 1, 39, 127
2, 80120, Note_on_c, 1, 58, 127
2, 80120, Note_on_c, 1, 66, 127
2, 80880, Note_off_c, 1, 39, 0
2, 80880, Note_off_c, 1, 58, 0
2, 80880, Note_off_c, 1, 66, 0
2, 80920, Note_on_c, 1, 64, 127
2, 80920, Note_on_c, 1, 68, 127
2, 80920, Note_on_c, 1, 71, 127
2, 80920, Note_on_c, 1, 75, 127
2, 81640, Note_off_c, 1, 75, 0
2, 81680, Note_on_c, 1, 73, 127
2, 81800, Note_off_c, 1, 64, 0
2, 81800, Note_off_c, 1, 68, 0
2, 81800, Note_off_c, 1, 71, 0
2, 81800, Note_off_c, 1, 73, 0
2, 81840, Note_on_c, 1, 64, 127
2, 81840, Note_on_c, 1, 68, 127
2, 81840, Note_on_c, 1, 71, 127
2, 81840, Note_on_c, 1, 73, 127
2, 82080, Note_off_c, 1, 64, 0
2, 82080, Note_off_c, 1, 68, 0
2, 82080, Note_off_c, 1, 71, 0
2, 82080, Note_off_c, 1, 73, 0
2, 82120, Note_on_c, 1, 53, 127
2, 82120, Note_on_c, 1, 58, 127
2, 82120, Note_on_c, 1, 62, 127
2, 82120, Note_on_c, 1, 68, 127
2, 82840, Note_off_c, 1, 53, 0
2, 82840, Note_off_c, 1, 58, 0
2, 82840, Note_off_c, 1, 62, 0
2, 82840, Note_off_c, 1, 68, 0
2, 82880, Note_on_c, 1, 51, 127
2, 82880, Note_on_c, 1, 58, 127
2, 82880, Note_on_c, 1, 63, 127
2, 82880, Note_on_c, 1, 67, 127
2, 83640, Note_off_c, 1, 58, 0
2, 83680, Note_on_c, 1, 58, 127
2, 83880, Note_off_c, 1, 51, 0
2, 83880, Note_off_c, 1, 58, 0
2, 83880, Note_off_c, 1, 63, 0
2, 83880, Note_off_c, 1, 67, 0
2, 83920, Note_on_c, 1, 51, 127
2, 83920, Note_on_c, 1, 58, 127
2, 83920, Note_on_c, 1, 63, 127
2, 83920, Note_on_c, 1, 67, 127
2, 84440, Note_off_c, 1, 51, 0
2, 84440, Note_off_c, 1, 58, 0
2, 84440, Note_off_c, 1, 63, 0
2, 84440, Note_off_c, 1, 67, 0
2, 84480, Note_on_c, 1, 46, 127
2, 84480, Note_on_c, 1, 55, 127
2, 84480, Note_on_c, 1, 58, 127
2, 84480, Note_on_c, 1, 63, 127
2, 84480, Note_on_c, 1, 70, 127
2, 85880, Note_off_c, 1, 46, 0
2, 85880, Note_off_c, 1, 55, 0
2, 85880, Note_off_c, 1, 58, 0
2, 85880, Note_off_c, 1, 63, 0
2, 85880, Note_off_c, 1, 70, 0
2, 85920, Note_on_c, 1, 46, 127
2, 85920, Note_on_c, 1, 55, 127
2, 85920, Note_on_c, 1, 58, 127
2, 85920, Note_on_c, 1, 63, 127
2, 85920, Note_on_c, 1, 70, 127
2, 86040, Note_off_c, 1, 46, 0
2, 86040, Note_off_c, 1, 55, 0
2, 86040, Note_off_c, 1, 58, 0
2, 86040, Note_off_c, 1, 70, 0
2, 86080, Note_on_c, 1, 45, 127
2, 86080, Note_on_c, 1, 48, 127
2, 86080, Note_on_c, 1, 54, 127
2, 86080, Note_off_c, 1, 63, 0
2, 86080, Note_on_c, 1, 71, 127
2, 86120, Note_off_c, 1, 45, 0
2, 86120, Note_off_c, 1, 48, 0
2, 86120, Note_on_c, 1, 52, 127
2, 86120, Note_off_c, 1, 54, 0
2, 86120, Note_on_c, 1, 61, 127
2, 86120, Note_on_c, 1, 64, 127
2, 86120, Note_on_c, 1, 70, 127
2, 86120, Note_off_c, 1, 71, 0
2, 86120, Note_on_c, 1, 80, 127
2, 86160, Note_on_c, 1, 49, 127
2, 86160, Note_on_c, 1, 54, 127
2, 86160, Note_off_c, 1, 61, 0
2, 86160, Note_off_c, 1, 64, 0
2, 86160, Note_on_c, 1, 66, 127
2, 86160, Note_off_c, 1, 70, 0
2, 86160, Note_off_c, 1, 80, 0
2, 86200, Note_on_c, 1, 46, 127
2, 86200, Note_off_c, 1, 49, 0
2, 86200, Note_on_c, 1, 50, 127
2, 86200, Note_off_c, 1, 52, 0
2, 86200, Note_on_c, 1, 53, 127
2, 86200, Note_off_c, 1, 54, 0
2, 86200, Note_on_c, 1, 56, 127
2, 86200, Note_on_c, 1, 59, 127
2, 86200, Note_off_c, 1, 66, 0
2, 86200, Note_on_c, 1, 71, 127
2, 86240, Note_on_c, 1, 41, 127
2, 86240, Note_off_c, 1, 46, 0
2, 86240, Note_on_c, 1, 47, 127
2, 86240, Note_off_c, 1, 56, 0
2, 86280, Note_off_c, 1, 41, 0
2, 86280, Note_off_c, 1, 47, 0
2, 86280, Note_off_c, 1, 50, 0
2, 86280, Note_off_c, 1, 53, 0
2, 86280, Note_off_c, 1, 59, 0
2, 86280, Note_on_c, 1, 62, 127
2, 86280, Note_on_c, 1, 65, 127
2, 86280, Note_on_c, 1, 68, 127
2, 86280, Note_on_c, 1, 77, 127
2, 86280, Note_on_c, 1, 80, 127
2, 86320, Note_on_c, 1, 54, 127
2, 86320, Note_off_c, 1, 62, 0
2, 86320, Note_off_c, 1, 65, 0
2, 86320, Note_on_c, 1, 66, 127
2, 86320, Note_off_c, 1, 68, 0
2, 86320, Note_off_c, 1, 71, 0
2, 86320, Note_off_c, 1, 77, 0
2, 86320, Note_off_c, 1, 80, 0
2, 86320, Note_on_c, 1, 85, 127
2, 86320, Note_on_c, 1, 90, 127
2, 86320, Note_on_c, 1, 93, 127
2, 86320, Note_on_c, 1, 97, 127
2, 86360, Note_off_c, 1, 54, 0
2, 86360, Note_on_c, 1, 62, 127
2, 86360, Note_on_c, 1, 65, 127
2, 86360, Note_off_c, 1, 66, 0
2, 86360, Note_on_c, 1, 68, 127
2, 86360, Note_on_c, 1, 71, 127
2, 86360, Note_on_c, 1, 77, 127
2, 86360, Note_on_c, 1, 80, 127
2, 86360, Note_off_c, 1, 85, 0
2, 86360, Note_off_c, 1, 90, 0
2, 86360, Note_off_c, 1, 93, 0
2, 86360, Note_off_c, 1, 97, 0
2, 86640, Note_on_c, 1, 45, 127
2, 86640, Note_on_c, 1, 55, 127
2, 86640, Note_on_c, 1, 60, 127
2, 86640, Note_off_c, 1, 62, 0
2, 86640, Note_off_c, 1, 65, 0
2, 86640, Note_off_c, 1, 68, 0
2, 86640, Note_on_c, 1, 69, 127
2, 86640, Note_off_c, 1, 71, 0
2, 86640, Note_off_c, 1, 77, 0
2, 86640, Note_off_c, 1, 80, 0
2, 86680, Note_off_c, 1, 45, 0
2, 86680, Note_on_c, 1, 50, 127
2, 86680, Note_off_c, 1, 55, 0
2, 86680, Note_on_c, 1, 57, 127
2, 86680, Note_on_c, 1, 67, 127
2, 86680, Note_off_c, 1, 69, 0
2, 86680, Note_on_c, 1, 86, 127
2, 86720, Note_on_c, 1, 48, 127
2, 86720, Note_on_c, 1, 54, 127
2, 86720, Note_off_c, 1, 60, 0
2, 86720, Note_off_c, 1, 67, 0
2, 86720, Note_on_c, 1, 74, 127
2, 86720, Note_off_c, 1, 86, 0
2, 86760, Note_off_c, 1, 48, 0
2, 86760, Note_off_c, 1, 50, 0
2, 86760, Note_off_c, 1, 54, 0
2, 86760, Note_off_c, 1, 57, 0
2, 86760, Note_on_c, 1, 72, 127
2, 86760, Note_off_c, 1, 74, 0
2, 86760, Note_on_c, 1, 75, 127
2, 86760, Note_on_c, 1, 80, 127
2, 86760, Note_on_c, 1, 87, 127
2, 86760, Note_on_c, 1, 91, 127
2, 86760, Note_on_c, 1, 101, 127
2, 86800, Note_off_c, 1, 72, 0
2, 86800, Note_off_c, 1, 75, 0
2, 86800, Note_off_c, 1, 80, 0
2, 86800, Note_off_c, 1, 87, 0
2, 86800, Note_off_c, 1, 91, 0
2, 86800, Note_off_c, 1, 101, 0
2, 86840, Note_on_c, 1, 45, 127
2, 86840, Note_on_c, 1, 69, 127
2, 86840, Note_on_c, 1, 72, 127
2, 86840, Note_on_c, 1, 74, 127
2, 86840, Note_on_c, 1, 78, 127
2, 86960, Note_on_c, 1, 54, 127
2, 86960, Note_on_c, 1, 66, 127
2, 86960, Note_off_c, 1, 72, 0
2, 86960, Note_off_c, 1, 74, 0
2, 86960, Note_off_c, 1, 78, 0
2, 87000, Note_off_c, 1, 54, 0
2, 87000, Note_off_c, 1, 66, 0
2, 87000, Note_off_c, 1, 69, 0
2, 87240, Note_on_c, 1, 53, 127
2, 87240, Note_on_c, 1, 61, 127
2, 87240, Note_on_c, 1, 73, 127
2, 87840, Note_off_c, 1, 45, 0
2, 87840, Note_off_c, 1, 53, 0
2, 87840, Note_off_c, 1, 61, 0
2, 87840, Note_off_c, 1, 73, 0
2, 87880, Note_on_c, 1, 45, 127
2, 87880, Note_on_c, 1, 53, 127
2, 87880, Note_on_c, 1, 61, 127
2, 87880, Note_on_c, 1, 73, 127
2, 88400, Note_off_c, 1, 45, 0
2, 88400, Note_off_c, 1, 53, 0
2, 88400, Note_off_c, 1, 61, 0
2, 88400, Note_off_c, 1, 73, 0
2, 88440, Note_on_c, 1, 37, 127
2, 88440, Note_on_c, 1, 68, 127
2, 88440, Note_on_c, 1, 71, 127
2, 88440, Note_on_c, 1, 73, 127
2, 88480, Note_on_c, 1, 59, 127
2, 88480, Note_on_c, 1, 65, 127
2, 88480, Note_off_c, 1, 68, 0
2, 88480, Note_off_c, 1, 71, 0
2, 88480, Note_off_c, 1, 73, 0
2, 88560, Note_off_c, 1, 59, 0
2, 88560, Note_off_c, 1, 65, 0
2, 88600, Note_on_c, 1, 59, 127
2, 88600, Note_on_c, 1, 65, 127
2, 88680, Note_off_c, 1, 59, 0
2, 88680, Note_off_c, 1, 65, 0
2, 88720, Note_on_c, 1, 59, 127
2, 88720, Note_on_c, 1, 65, 127
2, 89000, Note_off_c, 1, 59, 0
2, 89000, Note_off_c, 1, 65, 0
2, 89040, Note_on_c, 1, 59, 127
2, 89040, Note_on_c, 1, 65, 127
2, 89120, Note_off_c, 1, 59, 0
2, 89120, Note_off_c, 1, 65, 0
2, 89160, Note_off_c, 1, 37, 0
2, 89160, Note_on_c, 1, 49, 127
2, 89160, Note_on_c, 1, 56, 127
2, 89160, Note_on_c, 1, 59, 127
2, 89160, Note_on_c, 1, 75, 127
2, 89200, Note_off_c, 1, 75, 0
2, 89240, Note_on_c, 1, 43, 127
2, 89240, Note_on_c, 1, 45, 127
2, 89240, Note_off_c, 1, 49, 0
2, 89240, Note_off_c, 1, 56, 0
2, 89240, Note_off_c, 1, 59, 0
2, 89240, Note_on_c, 1, 61, 127
2, 89240, Note_on_c, 1, 73, 127
2, 89280, Note_off_c, 1, 43, 0
2, 89280, Note_off_c, 1, 45, 0
2, 89280, Note_on_c, 1, 49, 127
2, 89280, Note_on_c, 1, 56, 127
2, 89280, Note_on_c, 1, 59, 127
2, 89280, Note_off_c, 1, 61, 0
2, 89280, Note_off_c, 1, 73, 0
2, 89320, Note_on_c, 1, 83, 127
2, 89400, Note_off_c, 1, 83, 0
2, 89440, Note_off_c, 1, 49, 0
2, 89440, Note_off_c, 1, 56, 0
2, 89440, Note_off_c, 1, 59, 0
2, 89440, Note_on_c, 1, 64, 127
2, 89440, Note_on_c, 1, 68, 127
2, 89440, Note_on_c, 1, 72, 127
2, 89440, Note_on_c, 1, 80, 127
2, 89440, Note_on_c, 1, 84, 127
2, 89480, Note_off_c, 1, 64, 0
2, 89480, Note_off_c, 1, 72, 0
2, 89480, Note_on_c, 1, 87, 127
2, 89480, Note_on_c, 1, 92, 127
2, 89520, Note_on_c, 1, 42, 127
2, 89520, Note_on_c, 1, 49, 127
2, 89520, Note_on_c, 1, 54, 127
2, 89520, Note_off_c, 1, 68, 0
2, 89520, Note_on_c, 1, 73, 127
2, 89520, Note_off_c, 1, 80, 0
2, 89520, Note_off_c, 1, 84, 0
2, 89520, Note_on_c, 1, 85, 127
2, 89520, Note_off_c, 1, 87, 0
2, 89520, Note_off_c, 1, 92, 0
2, 89560, Note_off_c, 1, 42, 0
2, 89560, Note_on_c, 1, 57, 127
2, 89560, Note_off_c, 1, 73, 0
2, 89560, Note_off_c, 1, 85, 0
2, 89600, Note_off_c, 1, 49, 0
2, 89600, Note_off_c, 1, 54, 0
2, 89600, Note_off_c, 1, 57, 0
2, 89600, Note_on_c, 1, 71, 127
2, 89600, Note_on_c, 1, 83, 127
2, 89600, Note_on_c, 1, 86, 127
2, 89600, Note_on_c, 1, 90, 127
2, 89600, Note_on_c, 1, 95, 127
2, 89640, Note_on_c, 1, 49, 127
2, 89640, Note_on_c, 1, 52, 127
2, 89640, Note_off_c, 1, 71, 0
2, 89640, Note_on_c, 1, 73, 127
2, 89640, Note_on_c, 1, 76, 127
2, 89640, Note_off_c, 1, 83, 0
2, 89640, Note_off_c, 1, 86, 0
2, 89640, Note_off_c, 1, 90, 0
2, 89640, Note_off_c, 1, 95, 0
2, 89680, Note_off_c, 1, 49, 0
2, 89680, Note_on_c, 1, 51, 127
2, 89680, Note_off_c, 1, 52, 0
2, 89680, Note_on_c, 1, 60, 127
2, 89680, Note_on_c, 1, 66, 127
2, 89680, Note_on_c, 1, 72, 127
2, 89680, Note_off_c, 1, 73, 0
2, 89680, Note_off_c, 1, 76, 0
2, 89680, Note_on_c, 1, 78, 127
2, 89720, Note_on_c, 1, 39, 127
2, 89720, Note_on_c, 1, 48, 127
2, 89720, Note_off_c, 1, 60, 0
2, 89720, Note_off_c, 1, 66, 0
2, 89720, Note_off_c, 1, 72, 0
2, 89720, Note_off_c, 1, 78, 0
2, 89720, Note_on_c, 1, 79, 127
2, 89720, Note_on_c, 1, 84, 127
2, 89760, Note_off_c, 1, 39, 0
2, 89760, Note_off_c, 1, 48, 0
2, 89760, Note_off_c, 1, 51, 0
2, 89760, Note_off_c, 1, 79, 0
2, 89760, Note_off_c, 1, 84, 0
2, 89840, Note_on_c, 1, 50, 127
2, 89840, Note_on_c, 1, 56, 127
2, 89840, Note_on_c, 1, 58, 127
2, 89840, Note_on_c, 1, 68, 127
2, 89840, Note_on_c, 1, 80, 127
2, 89920, Note_off_c, 1, 50, 0
2, 89920, Note_on_c, 1, 55, 127
2, 89920, Note_off_c, 1, 56, 0
2, 89920, Note_off_c, 1, 68, 0
2, 89920, Note_on_c, 1, 70, 127
2, 89920, Note_on_c, 1, 73, 127
2, 89920, Note_off_c, 1, 80, 0
2, 89920, Note_on_c, 1, 82, 127
2, 89960, Note_off_c, 1, 55, 0
2, 89960, Note_off_c, 1, 58, 0
2, 89960, Note_off_c, 1, 70, 0
2, 89960, Note_off_c, 1, 73, 0
2, 89960, Note_off_c, 1, 82, 0
2, 90000, Note_on_c, 1, 47, 127
2, 90000, Note_on_c, 1, 51, 127
2, 90000, Note_on_c, 1, 56, 127
2, 90000, Note_on_c, 1, 75, 127
2, 90000, Note_on_c, 1, 87, 127
2, 90040, Note_off_c, 1, 47, 0
2, 90040, Note_off_c, 1, 51, 0
2, 90040, Note_on_c, 1, 58, 127
2, 90040, Note_on_c, 1, 65, 127
2, 90040, Note_off_c, 1, 75, 0
2, 90040, Note_on_c, 1, 80, 127
2, 90040, Note_off_c, 1, 87, 0
2, 90120, Note_on_c, 1, 78, 127
2, 90120, Note_off_c, 1, 80, 0
2, 90160, Note_off_c, 1, 56, 0
2, 90160, Note_off_c, 1, 58, 0
2, 90160, Note_off_c, 1, 65, 0
2, 90160, Note_off_c, 1, 78, 0
2, 90200, Note_on_c, 1, 61, 127
2, 90200, Note_on_c, 1, 71, 127
2, 90200, Note_on_c, 1, 76, 127
2, 90200, Note_on_c, 1, 83, 127
2, 90240, Note_on_c, 1, 50, 127
2, 90240, Note_on_c, 1, 55, 127
2, 90240, Note_off_c, 1, 61, 0
2, 90240, Note_on_c, 1, 65, 127
2, 90240, Note_on_c, 1, 67, 127
2, 90240, Note_off_c, 1, 76, 0
2, 90240, Note_off_c, 1, 83, 0
2, 90280, Note_off_c, 1, 50, 0
2, 90280, Note_off_c, 1, 55, 0
2, 90280, Note_on_c, 1, 60, 127
2, 90280, Note_on_c, 1, 63, 127
2, 90280, Note_off_c, 1, 65, 0
2, 90280, Note_on_c, 1, 66, 127
2, 90280, Note_off_c, 1, 67, 0
2, 90280, Note_off_c, 1, 71, 0
2, 90280, Note_on_c, 1, 74, 127
2, 90280, Note_on_c, 1, 78, 127
2, 90320, Note_off_c, 1, 60, 0
2, 90320, Note_off_c, 1, 63, 0
2, 90320, Note_off_c, 1, 66, 0
2, 90320, Note_off_c, 1, 74, 0
2, 90320, Note_off_c, 1, 78, 0
2, 90360, Note_on_c, 1, 46, 127
2, 90360, Note_on_c, 1, 81, 127
2, 90360, Note_on_c, 1, 82, 127
2, 90400, Note_on_c, 1, 42, 127
2, 90400, Note_off_c, 1, 46, 0
2, 90400, Note_on_c, 1, 49, 127
2, 90400, Note_off_c, 1, 81, 0
2, 90400, Note_off_c, 1, 82, 0
2, 90400, Note_on_c, 1, 85, 127
2, 90440, Note_off_c, 1, 42, 0
2, 90440, Note_off_c, 1, 49, 0
2, 90440, Note_on_c, 1, 55, 127
2, 90440, Note_on_c, 1, 60, 127
2, 90440, Note_on_c, 1, 63, 127
2, 90440, Note_on_c, 1, 68, 127
2, 90440, Note_on_c, 1, 72, 127
2, 90440, Note_on_c, 1, 79, 127
2, 90440, Note_off_c, 1, 85, 0
2, 90480, Note_off_c, 1, 55, 0
2, 90480, Note_off_c, 1, 60, 0
2, 90480, Note_off_c, 1, 63, 0
2, 90480, Note_off_c, 1, 68, 0
2, 90480, Note_off_c, 1, 72, 0
2, 90480, Note_off_c, 1, 79, 0
2, 90520, Note_on_c, 1, 46, 127
2, 90680, Note_on_c, 1, 57, 127
2, 90720, Note_off_c, 1, 57, 0
2, 90880, Note_off_c, 1, 46, 0
2, 90880, Note_on_c, 1, 50, 127
2, 90880, Note_on_c, 1, 55, 127
2, 90880, Note_on_c, 1, 59, 127
2, 90880, Note_on_c, 1, 63, 127
2, 90880, Note_on_c, 1, 64, 127
2, 90920, Note_off_c, 1, 50, 0
2, 90920, Note_off_c, 1, 55, 0
2, 90920, Note_on_c, 1, 56, 127
2, 90920, Note_off_c, 1, 59, 0
2, 90920, Note_on_c, 1, 60, 127
2, 90920, Note_on_c, 1, 61, 127
2, 90920, Note_off_c, 1, 63, 0
2, 90920, Note_off_c, 1, 64, 0
2, 90960, Note_on_c, 1, 47, 127
2, 90960, Note_off_c, 1, 56, 0
2, 90960, Note_off_c, 1, 60, 0
2, 90960, Note_off_c, 1, 61, 0
2, 90960, Note_on_c, 1, 80, 127
2, 90960, Note_on_c, 1, 83, 127
2, 90960, Note_on_c, 1, 87, 127
2, 90960, Note_on_c, 1, 92, 127
2, 91000, Note_off_c, 1, 47, 0
2, 91000, Note_off_c, 1, 80, 0
2, 91000, Note_off_c, 1, 83, 0
2, 91000, Note_off_c, 1, 87, 0
2, 91000, Note_off_c, 1, 92, 0
2, 91040, Note_on_c, 1, 39, 127
2, 91040, Note_on_c, 1, 72, 127
2, 91040, Note_on_c, 1, 78, 127
2, 91040, Note_on_c, 1, 80, 127
2, 91040, Note_on_c, 1, 84, 127
2, 91200, Note_off_c, 1, 39, 0
2, 91200, Note_on_c, 1, 46, 127
2, 91200, Note_off_c, 1, 72, 0
2, 91200, Note_off_c, 1, 78, 0
2, 91200, Note_off_c, 1, 80, 0
2, 91200, Note_off_c, 1, 84, 0
2, 91240, Note_on_c, 1, 44, 127
2, 91240, Note_off_c, 1, 46, 0
2, 91240, Note_on_c, 1, 50, 127
2, 91240, Note_on_c, 1, 54, 127
2, 91240, Note_on_c, 1, 66, 127
2, 91600, Note_on_c, 1, 53, 127
2, 91600, Note_off_c, 1, 54, 0
2, 91600, Note_on_c, 1, 65, 127
2, 91600, Note_off_c, 1, 66, 0
2, 91640, Note_off_c, 1, 44, 0
2, 91640, Note_off_c, 1, 50, 0
2, 91640, Note_off_c, 1, 53, 0
2, 91640, Note_off_c, 1, 65, 0
2, 91680, Note_on_c, 1, 44, 127
2, 91680, Note_on_c, 1, 51, 127
2, 91680, Note_on_c, 1, 60, 127
2, 91720, Note_on_c, 1, 63, 127
2, 91920, Note_off_c, 1, 60, 0
2, 91920, Note_off_c, 1, 63, 0
2, 91960, Note_on_c, 1, 60, 127
2, 92040, Note_off_c, 1, 44, 0
2, 92040, Note_off_c, 1, 51, 0
2, 92040, Note_off_c, 1, 60, 0
2, 92080, Note_on_c, 1, 44, 127
2, 92080, Note_on_c, 1, 51, 127
2, 92080, Note_on_c, 1, 60, 127
2, 93320, Note_off_c, 1, 44, 0
2, 93320, Note_off_c, 1, 60, 0
2, 93360, Note_on_c, 1, 48, 127
2, 93360, Note_off_c, 1, 51, 0
2, 93360, Note_on_c, 1, 60, 127
2, 93360, Note_on_c, 1, 63, 127
2, 93360, Note_on_c, 1, 70, 127
2, 94080, Note_off_c, 1, 48, 0
2, 94080, Note_off_c, 1, 60, 0
2, 94080, Note_off_c, 1, 63, 0
2, 94080, Note_off_c, 1, 70, 0
2, 94120, Note_on_c, 1, 48, 127
2, 94120, Note_on_c, 1, 60, 127
2, 94120, Note_on_c, 1, 63, 127
2, 94120, Note_on_c, 1, 70, 127
2, 94480, Note_off_c, 1, 48, 0
2, 94480, Note_off_c, 1, 60, 0
2, 94480, Note_off_c, 1, 63, 0
2, 94480, Note_off_c, 1, 70, 0
2, 94520, Note_on_c, 1, 44, 127
2, 94520, Note_on_c, 1, 63, 127
2, 94520, Note_on_c, 1, 68, 127
2, 94520, Note_on_c, 1, 72, 127
2, 95600, Note_on_c, 1, 35, 127
2, 95600, Note_on_c, 1, 41, 127
2, 95600, Note_on_c, 1, 50, 127
2, 95600, Note_on_c, 1, 53, 127
2, 95600, Note_on_c, 1, 59, 127
2, 95600, Note_off_c, 1, 63, 0
2, 95600, Note_off_c, 1, 68, 0
2, 95600, Note_off_c, 1, 72, 0
2, 95640, Note_off_c, 1, 35, 0
2, 95640, Note_off_c, 1, 41, 0
2, 95640, Note_off_c, 1, 50, 0
2, 95640, Note_off_c, 1, 53, 0
2, 95640, Note_off_c, 1, 59, 0
2, 95680, Note_on_c, 1, 43, 127
2, 95680, Note_off_c, 1, 44, 0
2, 95680, Note_on_c, 1, 63, 127
2, 95680, Note_on_c, 1, 70, 127
2, 95680, Note_on_c, 1, 73, 127
2, 96000, Note_off_c, 1, 43, 0
2, 96000, Note_off_c, 1, 63, 0
2, 96000, Note_off_c, 1, 70, 0
2, 96000, Note_off_c, 1, 73, 0
2, 96040, Note_on_c, 1, 43, 127
2, 96040, Note_on_c, 1, 63, 127
2, 96040, Note_on_c, 1, 70, 127
2, 96040, Note_on_c, 1, 73, 127
2, 96400, Note_on_c, 1, 67, 127
2, 96400, Note_off_c, 1, 73, 0
2, 96440, Note_off_c, 1, 43, 0
2, 96440, Note_on_c, 1, 46, 127
2, 96440, Note_off_c, 1, 63, 0
2, 96440, Note_off_c, 1, 67, 0
2, 96440, Note_off_c, 1, 70, 0
2, 96480, Note_on_c, 1, 45, 127
2, 96480, Note_off_c, 1, 46, 0
2, 96480, Note_on_c, 1, 65, 127
2, 96480, Note_on_c, 1, 72, 127
2, 96480, Note_on_c, 1, 76, 127
2, 96480, Note_on_c, 1, 79, 127
2, 97080, Note_off_c, 1, 45, 0
2, 97080, Note_on_c, 1, 54, 127
2, 97080, Note_off_c, 1, 65, 0
2, 97080, Note_off_c, 1, 72, 0
2, 97080, Note_off_c, 1, 76, 0
2, 97080, Note_off_c, 1, 79, 0
2, 97080, Note_on_c, 1, 80, 127
2, 97080, Note_on_c, 1, 83, 127
2, 97080, Note_on_c, 1, 86, 127
2, 97080, Note_on_c, 1, 92, 127
2, 97120, Note_on_c, 1, 45, 127
2, 97120, Note_off_c, 1, 54, 0
2, 97120, Note_on_c, 1, 65, 127
2, 97120, Note_on_c, 1, 72, 127
2, 97120, Note_on_c, 1, 76, 127
2, 97120, Note_on_c, 1, 79, 127
2, 97120, Note_off_c, 1, 80, 0
2, 97120, Note_off_c, 1, 83, 0
2, 97120, Note_off_c, 1, 86, 0
2, 97120, Note_off_c, 1, 92, 0
2, 97200, Note_off_c, 1, 45, 0
2, 97200, Note_off_c, 1, 65, 0
2, 97200, Note_off_c, 1, 72, 0
2, 97200, Note_off_c, 1, 76, 0
2, 97200, Note_off_c, 1, 79, 0
2, 97240, Note_on_c, 1, 40, 127
2, 97240, Note_on_c, 1, 52, 127
2, 97240, Note_on_c, 1, 71, 127
2, 97240, Note_on_c, 1, 76, 127
2, 97240, Note_on_c, 1, 83, 127
2, 98080, Note_off_c, 1, 40, 0
2, 98080, Note_off_c, 1, 52, 0
2, 98080, Note_off_c, 1, 71, 0
2, 98080, Note_off_c, 1, 76, 0
2, 98080, Note_off_c, 1, 83, 0
2, 98120, Note_on_c, 1, 40, 127
2, 98120, Note_on_c, 1, 52, 127
2, 98120, Note_on_c, 1, 71, 127
2, 98120, Note_on_c, 1, 76, 127
2, 98120, Note_on_c, 1, 83, 127
2, 98360, Note_off_c, 1, 40, 0
2, 98360, Note_off_c, 1, 52, 0
2, 98360, Note_off_c, 1, 71, 0
2, 98360, Note_off_c, 1, 76, 0
2, 98360, Note_off_c, 1, 83, 0
2, 98400, Note_on_c, 1, 37, 127
2, 98400, Note_on_c, 1, 49, 127
2, 98400, Note_on_c, 1, 69, 127
2, 98400, Note_on_c, 1, 76, 127
2, 98400, Note_on_c, 1, 81, 127
2, 99440, Note_off_c, 1, 37, 0
2, 99440, Note_off_c, 1, 49, 0
2, 99440, Note_off_c, 1, 69, 0
2, 99440, Note_off_c, 1, 76, 0
2, 99440, Note_off_c, 1, 81, 0
2, 99480, Note_on_c, 1, 50, 127
2, 99480, Note_on_c, 1, 62, 127
2, 99480, Note_on_c, 1, 79, 127
2, 99480, Note_on_c, 1, 83, 127
2, 99480, Note_on_c, 1, 86, 127
2, 99800, Note_off_c, 1, 50, 0
2, 99800, Note_off_c, 1, 62, 0
2, 99800, Note_off_c, 1, 79, 0
2, 99800, Note_off_c, 1, 83, 0
2, 99800, Note_off_c, 1, 86, 0
2, 99840, Note_on_c, 1, 35, 127
2, 99840, Note_on_c, 1, 47, 127
2, 99840, Note_on_c, 1, 77, 127
2, 99840, Note_on_c, 1, 81, 127
2, 99840, Note_on_c, 1, 87, 127
2, 99840, Note_on_c, 1, 89, 127
2, 100000, Note_on_c, 1, 34, 127
2, 100000, Note_off_c, 1, 35, 0
2, 100000, Note_on_c, 1, 46, 127
2, 100000, Note_off_c, 1, 47, 0
2, 100000, Note_off_c, 1, 77, 0
2, 100000, Note_off_c, 1, 81, 0
2, 100000, Note_off_c, 1, 87, 0
2, 100000, Note_off_c, 1, 89, 0
2, 100040, Note_off_c, 1, 34, 0
2, 100040, Note_on_c, 1, 35, 127
2, 100040, Note_off_c, 1, 46, 0
2, 100040, Note_on_c, 1, 47, 127
2, 100040, Note_on_c, 1, 77, 127
2, 100040, Note_on_c, 1, 81, 127
2, 100040, Note_on_c, 1, 87, 127
2, 100040, Note_on_c, 1, 89, 127
2, 100160, Note_off_c, 1, 35, 0
2, 100160, Note_off_c, 1, 47, 0
2, 100160, Note_off_c, 1, 77, 0
2, 100160, Note_off_c, 1, 81, 0
2, 100160, Note_off_c, 1, 87, 0
2, 100160, Note_off_c, 1, 89, 0
2, 100240, Note_on_c, 1, 57, 127
2, 100240, Note_on_c, 1, 69, 127
2, 100240, Note_on_c, 1, 77, 127
2, 100240, Note_on_c, 1, 84, 127
2, 100240, Note_on_c, 1, 89, 127
2, 101280, Note_off_c, 1, 57, 0
2, 101280, Note_off_c, 1, 69, 0
2, 101280, Note_off_c, 1, 77, 0
2, 101280, Note_off_c, 1, 84, 0
2, 101280, Note_off_c, 1, 89, 0
2, 101320, Note_on_c, 1, 24, 127
2, 101320, Note_on_c, 1, 36, 127
2, 101320, Note_on_c, 1, 52, 127
2, 101320, Note_on_c, 1, 55, 127
2, 101320, Note_on_c, 1, 60, 127
2, 101640, Note_off_c, 1, 52, 0
2, 101640, Note_off_c, 1, 55, 0
2, 101680, Note_on_c, 1, 48, 127
2, 101880, Note_off_c, 1, 48, 0
2, 101880, Note_on_c, 1, 52, 127
2, 101880, Note_on_c, 1, 55, 127
2, 102000, Note_off_c, 1, 24, 0
2, 102000, Note_off_c, 1, 36, 0
2, 102000, Note_off_c, 1, 52, 0
2, 102000, Note_off_c, 1, 55, 0
2, 102000, Note_off_c, 1, 60, 0
2, 102040, Note_on_c, 1, 46, 127
2, 102040, Note_on_c, 1, 53, 127
2, 102040, Note_on_c, 1, 57, 127
2, 102040, Note_on_c, 1, 65, 127
2, 102040, Note_on_c, 1, 75, 127
2, 102120, Note_on_c, 1, 63, 127
2, 102120, Note_off_c, 1, 65, 0
2, 102160, Note_off_c, 1, 63, 0
2, 102160, Note_on_c, 1, 65, 127
2, 102240, Note_on_c, 1, 63, 127
2, 102240, Note_off_c, 1, 65, 0
2, 102280, Note_off_c, 1, 63, 0
2, 102320, Note_on_c, 1, 65, 127
2, 102360, Note_off_c, 1, 65, 0
2, 102400, Note_on_c, 1, 65, 127
2, 102480, Note_off_c, 1, 46, 0
2, 102480, Note_off_c, 1, 53, 0
2, 102480, Note_off_c, 1, 57, 0
2, 102480, Note_off_c, 1, 65, 0
2, 102480, Note_off_c, 1, 75, 0
2, 102520, Note_on_c, 1, 46, 127
2, 102520, Note_on_c, 1, 53, 127
2, 102520, Note_on_c, 1, 57, 127
2, 102520, Note_on_c, 1, 63, 127
2, 102520, Note_on_c, 1, 75, 127
2, 102560, Note_off_c, 1, 63, 0
2, 102560, Note_on_c, 1, 65, 127
2, 102600, Note_on_c, 1, 63, 127
2, 102600, Note_off_c, 1, 65, 0
2, 102640, Note_off_c, 1, 63, 0
2, 102800, Note_on_c, 1, 65, 127
2, 102960, Note_off_c, 1, 65, 0
2, 103000, Note_on_c, 1, 65, 127
2, 103120, Note_off_c, 1, 65, 0
2, 103160, Note_on_c, 1, 65, 127
2, 103400, Note_off_c, 1, 65, 0
2, 103440, Note_on_c, 1, 63, 127
2, 103480, Note_off_c, 1, 63, 0
2, 103800, Note_on_c, 1, 63, 127
2, 103840, Note_off_c, 1, 63, 0
2, 103880, Note_on_c, 1, 41, 127
2, 103880, Note_off_c, 1, 46, 0
2, 103880, Note_off_c, 1, 53, 0
2, 103880, Note_on_c, 1, 61, 127
2, 103880, Note_on_c, 1, 73, 127
2, 103880, Note_off_c, 1, 75, 0
2, 104040, Note_off_c, 1, 41, 0
2, 104040, Note_on_c, 1, 55, 127
2, 104040, Note_off_c, 1, 57, 0
2, 104040, Note_on_c, 1, 58, 127
2, 104040, Note_off_c, 1, 61, 0
2, 104040, Note_on_c, 1, 65, 127
2, 104040, Note_on_c, 1, 67, 127
2, 104040, Note_on_c, 1, 70, 127
2, 104040, Note_off_c, 1, 73, 0
2, 104040, Note_on_c, 1, 77, 127
2, 104080, Note_on_c, 1, 41, 127
2, 104080, Note_off_c, 1, 55, 0
2, 104080, Note_on_c, 1, 57, 127
2, 104080, Note_off_c, 1, 58, 0
2, 104080, Note_on_c, 1, 61, 127
2, 104080, Note_off_c, 1, 65, 0
2, 104080, Note_off_c, 1, 67, 0
2, 104080, Note_off_c, 1, 70, 0
2, 104080, Note_on_c, 1, 73, 127
2, 104080, Note_off_c, 1, 77, 0
2, 104120, Note_off_c, 1, 41, 0
2, 104120, Note_off_c, 1, 57, 0
2, 104120, Note_off_c, 1, 61, 0
2, 104120, Note_off_c, 1, 73, 0
2, 104160, Note_on_c, 1, 45, 127
2, 104160, Note_on_c, 1, 48, 127
2, 104160, Note_on_c, 1, 52, 127
2, 104160, Note_on_c, 1, 57, 127
2, 104160, Note_on_c, 1, 72, 127
2, 104160, Note_on_c, 1, 76, 127
2, 104200, Note_off_c, 1, 45, 0
2, 104200, Note_off_c, 1, 48, 0
2, 104200, Note_off_c, 1, 52, 0
2, 104200, Note_off_c, 1, 57, 0
2, 104200, Note_off_c, 1, 72, 0
2, 104200, Note_off_c, 1, 76, 0
2, 104240, Note_on_c, 1, 45, 127
2, 104240, Note_on_c, 1, 48, 127
2, 104240, Note_on_c, 1, 52, 127
2, 104240, Note_on_c, 1, 57, 127
2, 104240, Note_on_c, 1, 72, 127
2, 104240, Note_on_c, 1, 76, 127
2, 104640, Note_off_c, 1, 45, 0
2, 104640, Note_off_c, 1, 48, 0
2, 104640, Note_off_c, 1, 52, 0
2, 104640, Note_off_c, 1, 57, 0
2, 104640, Note_off_c, 1, 72, 0
2, 104640, Note_off_c, 1, 76, 0
2, 104680, Note_on_c, 1, 45, 127
2, 104680, Note_on_c, 1, 48, 127
2, 104680, Note_on_c, 1, 52, 127
2, 104680, Note_on_c, 1, 57, 127
2, 104680, Note_on_c, 1, 72, 127
2, 104680, Note_on_c, 1, 76, 127
2, 104960, Note_off_c, 1, 45, 0
2, 104960, Note_off_c, 1, 48, 0
2, 104960, Note_off_c, 1, 52, 0
2, 104960, Note_off_c, 1, 57, 0
2, 104960, Note_off_c, 1, 72, 0
2, 104960, Note_off_c, 1, 76, 0
2, 105000, Note_on_c, 1, 72, 127
2, 105000, Note_on_c, 1, 80, 127
2, 105000, Note_on_c, 1, 83, 127
2, 105000, Note_on_c, 1, 89, 127
2, 105000, Note_on_c, 1, 98, 127
2, 105040, Note_off_c, 1, 98, 0
2, 105120, Note_on_c, 1, 98, 127
2, 105160, Note_off_c, 1, 98, 0
2, 105240, Note_on_c, 1, 98, 127
2, 105280, Note_off_c, 1, 98, 0
2, 105320, Note_off_c, 1, 72, 0
2, 105320, Note_off_c, 1, 80, 0
2, 105320, Note_off_c, 1, 83, 0
2, 105320, Note_off_c, 1, 89, 0
2, 105360, Note_on_c, 1, 72, 127
2, 105360, Note_on_c, 1, 80, 127
2, 105360, Note_on_c, 1, 83, 127
2, 105360, Note_on_c, 1, 89, 127
2, 105360, Note_on_c, 1, 98, 127
2, 105480, Note_off_c, 1, 98, 0
2, 105520, Note_on_c, 1, 98, 127
2, 105680, Note_off_c, 1, 72, 0
2, 105680, Note_off_c, 1, 80, 0
2, 105680, Note_off_c, 1, 83, 0
2, 105680, Note_off_c, 1, 89, 0
2, 105680, Note_off_c, 1, 98, 0
2, 105720, Note_on_c, 1, 55, 127
2, 105720, Note_on_c, 1, 66, 127
2, 105720, Note_on_c, 1, 69, 127
2, 105720, Note_on_c, 1, 71, 127
2, 106040, Note_on_c, 1, 47, 127
2, 106040, Note_on_c, 1, 54, 127
2, 106040, Note_off_c, 1, 55, 0
2, 106040, Note_off_c, 1, 66, 0
2, 106040, Note_off_c, 1, 69, 0
2, 106040, Note_off_c, 1, 71, 0
2, 106040, Note_on_c, 1, 75, 127
2, 106040, Note_on_c, 1, 78, 127
2, 106040, Note_on_c, 1, 87, 127
2, 106080, Note_off_c, 1, 47, 0
2, 106080, Note_off_c, 1, 54, 0
2, 106080, Note_on_c, 1, 55, 127
2, 106080, Note_on_c, 1, 66, 127
2, 106080, Note_on_c, 1, 69, 127
2, 106080, Note_on_c, 1, 71, 127
2, 106080, Note_off_c, 1, 75, 0
2, 106080, Note_off_c, 1, 78, 0
2, 106080, Note_off_c, 1, 87, 0
2, 106400, Note_on_c, 1, 64, 127
2, 106400, Note_off_c, 1, 66, 0
2, 106400, Note_off_c, 1, 69, 0
2, 106400, Note_off_c, 1, 71, 0
2, 106440, Note_off_c, 1, 64, 0
2, 106440, Note_on_c, 1, 66, 127
2, 106440, Note_on_c, 1, 69, 127
2, 106440, Note_on_c, 1, 71, 127
2, 106760, Note_off_c, 1, 55, 0
2, 106760, Note_off_c, 1, 66, 0
2, 106760, Note_off_c, 1, 69, 0
2, 106760, Note_off_c, 1, 71, 0
2, 106800, Note_on_c, 1, 55, 127
2, 106800, Note_on_c, 1, 66, 127
2, 106800, Note_on_c, 1, 69, 127
2, 106840, Note_on_c, 1, 71, 127
2, 107160, Note_off_c, 1, 66, 0
2, 107160, Note_off_c, 1, 69, 0
2, 107160, Note_off_c, 1, 71, 0
2, 107200, Note_on_c, 1, 66, 127
2, 107200, Note_on_c, 1, 69, 127
2, 107200, Note_on_c, 1, 71, 127
2, 107520, Note_off_c, 1, 66, 0
2, 107520, Note_off_c, 1, 69, 0
2, 107520, Note_off_c, 1, 71, 0
2, 107560, Note_on_c, 1, 66, 127
2, 107560, Note_on_c, 1, 69, 127
2, 107560, Note_on_c, 1, 71, 127
2, 107880, Note_off_c, 1, 66, 0
2, 107880, Note_off_c, 1, 69, 0
2, 107880, Note_off_c, 1, 71, 0
2, 107920, Note_on_c, 1, 64, 127
2, 107920, Note_on_c, 1, 67, 127
2, 107920, Note_on_c, 1, 72, 127
2, 108240, Note_off_c, 1, 64, 0
2, 108240, Note_off_c, 1, 67, 0
2, 108240, Note_off_c, 1, 72, 0
2, 108280, Note_on_c, 1, 53, 127
2, 108280, Note_off_c, 1, 55, 0
2, 108280, Note_on_c, 1, 63, 127
2, 108280, Note_on_c, 1, 70, 127
2, 108280, Note_on_c, 1, 73, 127
2, 108600, Note_off_c, 1, 53, 0
2, 108600, Note_on_c, 1, 60, 127
2, 108600, Note_off_c, 1, 63, 0
2, 108600, Note_off_c, 1, 70, 0
2, 108600, Note_off_c, 1, 73, 0
2, 108640, Note_on_c, 1, 45, 127
2, 108640, Note_on_c, 1, 57, 127
2, 108640, Note_off_c, 1, 60, 0
2, 108640, Note_on_c, 1, 72, 127
2, 108640, Note_on_c, 1, 74, 127
2, 108640, Note_on_c, 1, 78, 127
2, 108840, Note_off_c, 1, 45, 0
2, 108840, Note_off_c, 1, 57, 0
2, 108840, Note_off_c, 1, 72, 0
2, 108840, Note_off_c, 1, 74, 0
2, 108840, Note_off_c, 1, 78, 0
2, 108880, Note_on_c, 1, 45, 127
2, 108880, Note_on_c, 1, 57, 127
2, 108880, Note_on_c, 1, 72, 127
2, 108880, Note_on_c, 1, 74, 127
2, 108880, Note_on_c, 1, 78, 127
2, 109000, Note_off_c, 1, 57, 0
2, 109000, Note_off_c, 1, 72, 0
2, 109000, Note_off_c, 1, 74, 0
2, 109000, Note_off_c, 1, 78, 0
2, 109040, Note_on_c, 1, 43, 127
2, 109040, Note_off_c, 1, 45, 0
2, 109040, Note_on_c, 1, 49, 127
2, 109040, Note_on_c, 1, 61, 127
2, 109040, Note_on_c, 1, 67, 127
2, 109040, Note_on_c, 1, 71, 127
2, 109360, Note_off_c, 1, 49, 0
2, 109360, Note_off_c, 1, 61, 0
2, 109360, Note_off_c, 1, 67, 0
2, 109360, Note_off_c, 1, 71, 0
2, 109400, Note_on_c, 1, 50, 127
2, 109400, Note_on_c, 1, 62, 127
2, 109400, Note_on_c, 1, 67, 127
2, 109400, Note_on_c, 1, 71, 127
2, 109720, Note_off_c, 1, 43, 0
2, 109720, Note_off_c, 1, 67, 0
2, 109720, Note_off_c, 1, 71, 0
2, 109760, Note_on_c, 1, 54, 127
2, 109760, Note_on_c, 1, 60, 127
2, 109760, Note_on_c, 1, 69, 127
2, 110000, Note_off_c, 1, 69, 0
2, 110040, Note_off_c, 1, 50, 0
2, 110040, Note_off_c, 1, 60, 0
2, 110040, Note_on_c, 1, 61, 127
2, 110040, Note_off_c, 1, 62, 0
2, 110040, Note_on_c, 1, 64, 127
2, 110040, Note_on_c, 1, 72, 127
2, 110080, Note_off_c, 1, 54, 0
2, 110080, Note_off_c, 1, 61, 0
2, 110080, Note_off_c, 1, 64, 0
2, 110080, Note_off_c, 1, 72, 0
2, 110120, Note_on_c, 1, 50, 127
2, 110120, Note_on_c, 1, 54, 127
2, 110120, Note_on_c, 1, 62, 127
2, 110120, Note_on_c, 1, 69, 127
2, 110440, Note_off_c, 1, 50, 0
2, 110440, Note_off_c, 1, 54, 0
2, 110440, Note_off_c, 1, 69, 0
2, 110480, Note_on_c, 1, 58, 127
2, 110480, Note_off_c, 1, 62, 0
2, 110480, Note_on_c, 1, 64, 127
2, 110480, Note_on_c, 1, 79, 127
2, 110480, Note_on_c, 1, 81, 127
2, 110800, Note_off_c, 1, 58, 0
2, 110800, Note_off_c, 1, 64, 0
2, 110800, Note_off_c, 1, 79, 0
2, 110800, Note_off_c, 1, 81, 0
2, 110880, Note_on_c, 1, 59, 127
2, 110880, Note_on_c, 1, 62, 127
2, 110880, Note_on_c, 1, 71, 127
2, 110880, Note_on_c, 1, 74, 127
2, 110880, Note_on_c, 1, 83, 127
2, 110880, Note_on_c, 1, 86, 127
2, 111000, Note_on_c, 1, 57, 127
2, 111000, Note_off_c, 1, 59, 0
2, 111000, Note_on_c, 1, 60, 127
2, 111000, Note_off_c, 1, 62, 0
2, 111000, Note_on_c, 1, 69, 127
2, 111000, Note_off_c, 1, 71, 0
2, 111000, Note_on_c, 1, 72, 127
2, 111000, Note_off_c, 1, 74, 0
2, 111000, Note_on_c, 1, 81, 127
2, 111000, Note_off_c, 1, 83, 0
2, 111000, Note_on_c, 1, 84, 127
2, 111000, Note_off_c, 1, 86, 0
2, 111040, Note_off_c, 1, 57, 0
2, 111040, Note_on_c, 1, 59, 127
2, 111040, Note_off_c, 1, 60, 0
2, 111040, Note_on_c, 1, 62, 127
2, 111040, Note_off_c, 1, 69, 0
2, 111040, Note_on_c, 1, 71, 127
2, 111040, Note_off_c, 1, 72, 0
2, 111040, Note_on_c, 1, 74, 127
2, 111040, Note_off_c, 1, 81, 0
2, 111040, Note_on_c, 1, 83, 127
2, 111040, Note_off_c, 1, 84, 0
2, 111040, Note_on_c, 1, 86, 127
2, 111160, Note_off_c, 1, 59, 0
2, 111160, Note_off_c, 1, 62, 0
2, 111160, Note_off_c, 1, 71, 0
2, 111160, Note_off_c, 1, 74, 0
2, 111160, Note_off_c, 1, 83, 0
2, 111160, Note_off_c, 1, 86, 0
2, 111200, Note_on_c, 1, 49, 127
2, 111200, Note_on_c, 1, 61, 127
2, 111200, Note_on_c, 1, 64, 127
2, 111200, Note_on_c, 1, 70, 127
2, 111520, Note_off_c, 1, 49, 0
2, 111520, Note_off_c, 1, 61, 0
2, 111520, Note_off_c, 1, 64, 0
2, 111520, Note_off_c, 1, 70, 0
2, 111560, Note_on_c, 1, 50, 127
2, 111560, Note_on_c, 1, 62, 127
2, 111560, Note_on_c, 1, 66, 127
2, 111560, Note_on_c, 1, 71, 127
2, 111880, Note_off_c, 1, 50, 0
2, 111880, Note_off_c, 1, 62, 0
2, 111880, Note_off_c, 1, 66, 0
2, 111880, Note_off_c, 1, 71, 0
2, 111920, Note_on_c, 1, 38, 127
2, 111920, Note_on_c, 1, 60, 127
2, 111920, Note_on_c, 1, 66, 127
2, 111920, Note_on_c, 1, 69, 127
2, 112240, Note_off_c, 1, 38, 0
2, 112240, Note_off_c, 1, 60, 0
2, 112240, Note_off_c, 1, 66, 0
2, 112240, Note_off_c, 1, 69, 0
2, 112280, Note_on_c, 1, 43, 127
2, 112280, Note_on_c, 1, 50, 127
2, 112280, Note_on_c, 1, 59, 127
2, 112280, Note_on_c, 1, 62, 127
2, 112280, Note_on_c, 1, 67, 127
2, 112600, Note_off_c, 1, 59, 0
2, 112600, Note_off_c, 1, 62, 0
2, 112600, Note_off_c, 1, 67, 0
2, 112640, Note_off_c, 1, 43, 0
2, 112640, Note_off_c, 1, 50, 0
2, 112640, Note_on_c, 1, 55, 127
2, 112640, Note_on_c, 1, 59, 127
2, 112640, Note_on_c, 1, 62, 127
2, 112640, Note_on_c, 1, 67, 127
2, 112640, Note_on_c, 1, 71, 127
2, 112640, Note_on_c, 1, 74, 127
2, 112640, Note_on_c, 1, 79, 127
2, 112920, Note_off_c, 1, 55, 0
2, 112920, Note_off_c, 1, 59, 0
2, 112920, Note_off_c, 1, 62, 0
2, 112920, Note_off_c, 1, 67, 0
2, 112920, Note_off_c, 1, 71, 0
2, 112920, Note_off_c, 1, 74, 0
2, 112920, Note_off_c, 1, 79, 0
2, 112960, Note_on_c, 1, 55, 127
2, 112960, Note_on_c, 1, 59, 127
2, 112960, Note_on_c, 1, 62, 127
2, 112960, Note_on_c, 1, 67, 127
2, 112960, Note_on_c, 1, 71, 127
2, 112960, Note_on_c, 1, 74, 127
2, 112960, Note_on_c, 1, 79, 127
2, 113000, Note_off_c, 1, 55, 0
2, 113000, Note_off_c, 1, 59, 0
2, 113000, Note_off_c, 1, 62, 0
2, 113000, Note_off_c, 1, 67, 0
2, 113000, Note_off_c, 1, 71, 0
2, 113000, Note_off_c, 1, 74, 0
2, 113000, Note_off_c, 1, 79, 0
2, 113040, Note_on_c, 1, 45, 127
2, 113040, Note_on_c, 1, 49, 127
2, 113040, Note_on_c, 1, 52, 127
2, 113040, Note_on_c, 1, 57, 127
2, 113360, Note_off_c, 1, 45, 0
2, 113360, Note_off_c, 1, 49, 0
2, 113360, Note_off_c, 1, 52, 0
2, 113360, Note_off_c, 1, 57, 0
2, 113360, Note_on_c, 1, 64, 127
2, 113400, Note_on_c, 1, 59, 127
2, 113400, Note_off_c, 1, 64, 0
2, 113400, Note_on_c, 1, 69, 127
2, 113400, Note_on_c, 1, 71, 127
2, 113400, Note_on_c, 1, 77, 127
2, 113400, Note_on_c, 1, 81, 127
2, 113720, Note_off_c, 1, 59, 0
2, 113720, Note_off_c, 1, 69, 0
2, 113720, Note_off_c, 1, 71, 0
2, 113720, Note_off_c, 1, 77, 0
2, 113720, Note_off_c, 1, 81, 0
2, 113760, Note_on_c, 1, 59, 127
2, 113760, Note_on_c, 1, 69, 127
2, 113760, Note_on_c, 1, 71, 127
2, 113760, Note_on_c, 1, 77, 127
2, 113760, Note_on_c, 1, 81, 127
2, 114080, Note_on_c, 1, 40, 127
2, 114080, Note_off_c, 1, 69, 0
2, 114080, Note_off_c, 1, 71, 0
2, 114080, Note_off_c, 1, 77, 0
2, 114080, Note_off_c, 1, 81, 0
2, 114120, Note_off_c, 1, 40, 0
2, 114120, Note_on_c, 1, 69, 127
2, 114120, Note_on_c, 1, 71, 127
2, 114120, Note_on_c, 1, 77, 127
2, 114120, Note_on_c, 1, 81, 127
2, 114440, Note_off_c, 1, 59, 0
2, 114440, Note_off_c, 1, 69, 0
2, 114440, Note_off_c, 1, 71, 0
2, 114440, Note_off_c, 1, 77, 0
2, 114440, Note_off_c, 1, 81, 0
2, 114480, Note_on_c, 1, 69, 127
2, 114480, Note_on_c, 1, 79, 127
2, 114480, Note_on_c, 1, 84, 127
2, 114480, Note_on_c, 1, 86, 127
2, 114480, Note_on_c, 1, 91, 127
2, 114560, Note_on_c, 1, 46, 127
2, 114560, Note_on_c, 1, 53, 127
2, 114560, Note_on_c, 1, 60, 127
2, 114560, Note_on_c, 1, 62, 127
2, 114560, Note_on_c, 1, 65, 127
2, 114560, Note_off_c, 1, 69, 0
2, 114560, Note_on_c, 1, 72, 127
2, 114560, Note_off_c, 1, 79, 0
2, 114560, Note_off_c, 1, 84, 0
2, 114560, Note_off_c, 1, 86, 0
2, 114560, Note_off_c, 1, 91, 0
2, 114600, Note_off_c, 1, 46, 0
2, 114600, Note_off_c, 1, 53, 0
2, 114600, Note_off_c, 1, 60, 0
2, 114600, Note_off_c, 1, 62, 0
2, 114600, Note_off_c, 1, 65, 0
2, 114600, Note_on_c, 1, 69, 127
2, 114600, Note_off_c, 1, 72, 0
2, 114600, Note_on_c, 1, 79, 127
2, 114600, Note_on_c, 1, 84, 127
2, 114600, Note_on_c, 1, 86, 127
2, 114600, Note_on_c, 1, 91, 127
2, 114720, Note_on_c, 1, 58, 127
2, 114720, Note_on_c, 1, 62, 127
2, 114720, Note_on_c, 1, 67, 127
2, 114720, Note_off_c, 1, 69, 0
2, 114720, Note_on_c, 1, 70, 127
2, 114720, Note_on_c, 1, 74, 127
2, 114720, Note_off_c, 1, 79, 0
2, 114720, Note_off_c, 1, 84, 0
2, 114720, Note_off_c, 1, 91, 0
2, 114760, Note_on_c, 1, 49, 127
2, 114760, Note_on_c, 1, 54, 127
2, 114760, Note_off_c, 1, 58, 0
2, 114760, Note_off_c, 1, 62, 0
2, 114760, Note_off_c, 1, 67, 0
2, 114760, Note_off_c, 1, 70, 0
2, 114760, Note_off_c, 1, 74, 0
2, 114760, Note_off_c, 1, 86, 0
2, 114760, Note_on_c, 1, 93, 127
2, 114800, Note_off_c, 1, 49, 0
2, 114800, Note_on_c, 1, 52, 127
2, 114800, Note_off_c, 1, 54, 0
2, 114800, Note_on_c, 1, 55, 127
2, 114800, Note_on_c, 1, 58, 127
2, 114800, Note_on_c, 1, 60, 127
2, 114800, Note_on_c, 1, 82, 127
2, 114800, Note_on_c, 1, 86, 127
2, 114800, Note_off_c, 1, 93, 0
2, 114840, Note_off_c, 1, 52, 0
2, 114840, Note_off_c, 1, 55, 0
2, 114840, Note_off_c, 1, 58, 0
2, 114840, Note_off_c, 1, 60, 0
2, 114840, Note_on_c, 1, 61, 127
2, 114840, Note_on_c, 1, 73, 127
2, 114840, Note_off_c, 1, 82, 0
2, 114840, Note_on_c, 1, 85, 127
2, 114840, Note_off_c, 1, 86, 0
2, 114840, Note_on_c, 1, 88, 127
2, 114840, Note_on_c, 1, 93, 127
2, 114840, Note_on_c, 1, 97, 127
2, 114960, Note_off_c, 1, 61, 0
2, 114960, Note_off_c, 1, 73, 0
2, 114960, Note_off_c, 1, 85, 0
2, 114960, Note_off_c, 1, 88, 0
2, 114960, Note_off_c, 1, 93, 0
2, 114960, Note_off_c, 1, 97, 0
2, 115000, Note_on_c, 1, 61, 127
2, 115000, Note_on_c, 1, 73, 127
2, 115000, Note_on_c, 1, 85, 127
2, 115000, Note_on_c, 1, 88, 127
2, 115000, Note_on_c, 1, 93, 127
2, 115000, Note_on_c, 1, 97, 127
2, 115160, Note_off_c, 1, 61, 0
2, 115160, Note_off_c, 1, 73, 0
2, 115160, Note_off_c, 1, 85, 0
2, 115160, Note_off_c, 1, 88, 0
2, 115160, Note_off_c, 1, 93, 0
2, 115160, Note_off_c, 1, 97, 0
2, 115200, Note_on_c, 1, 70, 127
2, 115200, Note_on_c, 1, 74, 127
2, 115200, Note_on_c, 1, 79, 127
2, 115200, Note_on_c, 1, 82, 127
2, 115200, Note_on_c, 1, 86, 127
2, 115200, Note_on_c, 1, 91, 127
2, 115440, Note_on_c, 1, 40, 127
2, 115440, Note_on_c, 1, 52, 127
2, 115440, Note_on_c, 1, 68, 127
2, 115440, Note_off_c, 1, 70, 0
2, 115440, Note_off_c, 1, 74, 0
2, 115440, Note_off_c, 1, 79, 0
2, 115440, Note_off_c, 1, 82, 0
2, 115440, Note_off_c, 1, 86, 0
2, 115440, Note_off_c, 1, 91, 0
2, 115480, Note_off_c, 1, 40, 0
2, 115480, Note_off_c, 1, 52, 0
2, 115480, Note_on_c, 1, 57, 127
2, 115480, Note_on_c, 1, 61, 127
2, 115480, Note_on_c, 1, 64, 127
2, 115480, Note_off_c, 1, 68, 0
2, 115480, Note_on_c, 1, 72, 127
2, 115520, Note_off_c, 1, 57, 0
2, 115520, Note_off_c, 1, 61, 0
2, 115520, Note_on_c, 1, 69, 127
2, 115520, Note_off_c, 1, 72, 0
2, 115520, Note_on_c, 1, 73, 127
2, 115560, Note_on_c, 1, 68, 127
2, 115560, Note_off_c, 1, 69, 0
2, 115560, Note_on_c, 1, 71, 127
2, 115560, Note_off_c, 1, 73, 0
2, 115560, Note_on_c, 1, 76, 127
2, 115560, Note_on_c, 1, 83, 127
2, 115600, Note_off_c, 1, 76, 0
2, 115640, Note_on_c, 1, 76, 127
2, 115880, Note_off_c, 1, 64, 0
2, 115880, Note_off_c, 1, 68, 0
2, 115880, Note_off_c, 1, 71, 0
2, 115880, Note_off_c, 1, 76, 0
2, 115880, Note_off_c, 1, 83, 0
2, 115920, Note_on_c, 1, 65, 127
2, 115920, Note_on_c, 1, 69, 127
2, 115920, Note_on_c, 1, 72, 127
2, 115920, Note_on_c, 1, 81, 127
2, 116240, Note_off_c, 1, 65, 0
2, 116240, Note_off_c, 1, 69, 0
2, 116240, Note_off_c, 1, 72, 0
2, 116240, Note_off_c, 1, 81, 0
2, 116280, Note_on_c, 1, 64, 127
2, 116280, Note_on_c, 1, 71, 127
2, 116280, Note_on_c, 1, 81, 127
2, 116320, Note_on_c, 1, 80, 127
2, 116320, Note_off_c, 1, 81, 0
2, 116360, Note_off_c, 1, 80, 0
2, 116360, Note_on_c, 1, 81, 127
2, 116400, Note_on_c, 1, 80, 127
2, 116400, Note_off_c, 1, 81, 0
2, 116600, Note_off_c, 1, 64, 0
2, 116600, Note_off_c, 1, 80, 0
2, 116640, Note_on_c, 1, 59, 127
2, 116640, Note_on_c, 1, 78, 127
2, 116960, Note_off_c, 1, 59, 0
2, 116960, Note_off_c, 1, 71, 0
2, 116960, Note_off_c, 1, 78, 0
2, 117040, Note_on_c, 1, 64, 127
2, 117040, Note_on_c, 1, 68, 127
2, 117040, Note_on_c, 1, 76, 127
2, 117720, Note_off_c, 1, 64, 0
2, 117720, Note_off_c, 1, 68, 0
2, 117720, Note_off_c, 1, 76, 0
2, 117760, Note_on_c, 1, 47, 127
2, 118040, Note_off_c, 1, 47, 0
2, 118120, Note_on_c, 1, 40, 127
2, 118400, Note_off_c, 1, 40, 0
2, 118480, Note_on_c, 1, 47, 127
2, 118800, Note_off_c, 1, 47, 0
2, 118840, Note_on_c, 1, 45, 127
2, 118840, Note_on_c, 1, 66, 127
2, 118840, Note_on_c, 1, 74, 127
2, 118840, Note_on_c, 1, 78, 127
2, 119000, Note_off_c, 1, 45, 0
2, 119040, Note_off_c, 1, 66, 0
2, 119040, Note_off_c, 1, 74, 0
2, 119040, Note_off_c, 1, 78, 0
2, 119080, Note_on_c, 1, 45, 127
2, 119080, Note_on_c, 1, 66, 127
2, 119080, Note_on_c, 1, 74, 127
2, 119080, Note_on_c, 1, 78, 127
2, 119200, Note_off_c, 1, 45, 0
2, 119240, Note_on_c, 1, 45, 127
2, 119360, Note_off_c, 1, 66, 0
2, 119360, Note_off_c, 1, 74, 0
2, 119360, Note_off_c, 1, 78, 0
2, 119400, Note_on_c, 1, 58, 127
2, 119400, Note_on_c, 1, 67, 127
2, 119400, Note_on_c, 1, 76, 127
2, 119520, Note_off_c, 1, 67, 0
2, 119520, Note_off_c, 1, 76, 0
2, 119560, Note_on_c, 1, 34, 127
2, 119560, Note_off_c, 1, 45, 0
2, 119560, Note_on_c, 1, 55, 127
2, 119560, Note_on_c, 1, 63, 127
2, 119560, Note_on_c, 1, 67, 127
2, 119560, Note_on_c, 1, 70, 127
2, 119560, Note_on_c, 1, 75, 127
2, 119560, Note_on_c, 1, 79, 127
2, 119600, Note_off_c, 1, 34, 0
2, 119600, Note_on_c, 1, 35, 127
2, 119600, Note_off_c, 1, 55, 0
2, 119600, Note_off_c, 1, 58, 0
2, 119600, Note_off_c, 1, 63, 0
2, 119600, Note_off_c, 1, 70, 0
2, 119600, Note_on_c, 1, 74, 127
2, 119600, Note_off_c, 1, 75, 0
2, 119600, Note_off_c, 1, 79, 0
2, 119640, Note_on_c, 1, 34, 127
2, 119640, Note_off_c, 1, 35, 0
2, 119640, Note_on_c, 1, 55, 127
2, 119640, Note_on_c, 1, 58, 127
2, 119640, Note_on_c, 1, 63, 127
2, 119640, Note_on_c, 1, 70, 127
2, 119640, Note_off_c, 1, 74, 0
2, 119640, Note_on_c, 1, 75, 127
2, 119640, Note_on_c, 1, 79, 127
2, 119880, Note_off_c, 1, 34, 0
2, 119880, Note_off_c, 1, 55, 0
2, 119880, Note_off_c, 1, 58, 0
2, 119880, Note_off_c, 1, 63, 0
2, 119880, Note_off_c, 1, 67, 0
2, 119880, Note_off_c, 1, 70, 0
2, 119880, Note_off_c, 1, 75, 0
2, 119880, Note_off_c, 1, 79, 0
2, 119920, Note_on_c, 1, 55, 127
2, 119920, Note_on_c, 1, 83, 127
2, 120000, Note_off_c, 1, 55, 0
2, 120000, Note_off_c, 1, 83, 0
2, 120040, End_track
3, 0, Start_track
3, 0, Title_t, "MIDI"
3, 1536, End_track
0, 0, End_of_file
