0, 0, Header, 1, 3, 192
1, 0, Start_track
1, 0, Time_signature, 4, 2, 24, 8
1, 0, Tempo, 500000
1, 120040, End_track
2, 0, Start_track
2, 0, Text_t, "random instrument: random person i dunno whatev"
2, 0, Title_t, "Track 1"
2, 0, Note_on_c, 1, 40, 127
2, 0, Note_on_c, 1, 48, 127
2, 0, Note_on_c, 1, 56, 127
2, 0, Note_on_c, 1, 60, 127
2, 40, Note_off_c, 1, 40, 0
2, 40, Note_off_c, 1, 48, 0
2, 40, Note_on_c, 1, 55, 127
2, 40, Note_off_c, 1, 56, 0
2, 40, Note_off_c, 1, 60, 0
2, 40, Note_on_c, 1, 72, 127
2, 40, Note_on_c, 1, 75, 127
2, 40, Note_on_c, 1, 79, 127
2, 40, Note_on_c, 1, 84, 127
2, 80, Note_off_c, 1, 55, 0
2, 80, Note_off_c, 1, 72, 0
2, 80, Note_off_c, 1, 75, 0
2, 80, Note_off_c, 1, 79, 0
2, 80, Note_off_c, 1, 84, 0
2, 120, Note_on_c, 1, 40, 127
2, 120, Note_on_c, 1, 48, 127
2, 120, Note_on_c, 1, 56, 127
2, 120, Note_on_c, 1, 60, 127
2, 200, Note_on_c, 1, 35, 127
2, 200, Note_on_c, 1, 39, 127
2, 200, Note_off_c, 1, 40, 0
2, 200, Note_on_c, 1, 47, 127
2, 200, Note_off_c, 1, 48, 0
2, 200, Note_on_c, 1, 50, 127
2, 200, Note_off_c, 1, 56, 0
2, 200, Note_off_c, 1, 60, 0
2, 240, Note_on_c, 1, 34, 127
2, 240, Note_off_c, 1, 35, 0
2, 240, Note_on_c, 1, 46, 127
2, 240, Note_off_c, 1, 47, 0
2, 240, Note_off_c, 1, 50, 0
2, 240, Note_on_c, 1, 73, 127
2, 240, Note_on_c, 1, 75, 127
2, 360, Note_on_c, 1, 80, 127
2, 400, Note_off_c, 1, 34, 0
2, 400, Note_on_c, 1, 35, 127
2, 400, Note_off_c, 1, 39, 0
2, 400, Note_on_c, 1, 40, 127
2, 400, Note_off_c, 1, 46, 0
2, 400, Note_on_c, 1, 47, 127
2, 400, Note_on_c, 1, 62, 127
2, 400, Note_off_c, 1, 73, 0
2, 400, Note_off_c, 1, 75, 0
2, 400, Note_off_c, 1, 80, 0
2, 440, Note_off_c, 1, 35, 0
2, 440, Note_off_c, 1, 40, 0
2, 440, Note_off_c, 1, 47, 0
2, 440, Note_off_c, 1, 62, 0
2, 440, Note_on_c, 1, 79, 127
2, 480, Note_on_c, 1, 76, 127
2, 480, Note_off_c, 1, 79, 0
2, 520, Note_off_c, 1, 76, 0
2, 560, Note_on_c, 1, 72, 127
2, 640, Note_off_c, 1, 72, 0
2, 680, Note_on_c, 1, 70, 127
2, 840, Note_off_c, 1, 70, 0
2, 880, Note_on_c, 1, 67, 127
2, 1000, Note_off_c, 1, 67, 0
2, 1040, Note_on_c, 1, 69, 127
2, 1160, Note_off_c, 1, 69, 0
2, 1200, Note_on_c, 1, 70, 127
2, 1360, Note_off_c, 1, 70, 0
2, 1400, Note_on_c, 1, 64, 127
2, 1520, Note_off_c, 1, 64, 0
2, 1560, Note_on_c, 1, 69, 127
2, 1720, Note_off_c, 1, 69, 0
2, 1760, Note_on_c, 1, 70, 127
2, 1880, Note_off_c, 1, 70, 0
2, 1920, Note_on_c, 1, 72, 127
2, 2040, Note_off_c, 1, 72, 0
2, 2080, Note_on_c, 1, 72, 127
2, 2120, Note_off_c, 1, 72, 0
2, 2160, Note_on_c, 1, 74, 127
2, 2280, Note_off_c, 1, 74, 0
2, 2320, Note_on_c, 1, 72, 127
2, 2480, Note_off_c, 1, 72, 0
2, 2520, Note_on_c, 1, 81, 127
2, 2640, Note_off_c, 1, 81, 0
2, 2680, Note_on_c, 1, 82, 127
2, 2840, Note_off_c, 1, 82, 0
2, 2880, Note_on_c, 1, 81, 127
2, 3000, Note_off_c, 1, 81, 0
2, 3040, Note_on_c, 1, 79, 127
2, 3160, Note_off_c, 1, 79, 0
2, 3200, Note_on_c, 1, 77, 127
2, 3360, Note_off_c, 1, 77, 0
2, 3400, Note_on_c, 1, 76, 127
2, 3560, Note_off_c, 1, 76, 0
2, 3600, Note_on_c, 1, 74, 127
2, 3720, Note_off_c, 1, 74, 0
2, 3760, Note_on_c, 1, 72, 127
2, 3920, Note_off_c, 1, 72, 0
2, 3960, Note_on_c, 1, 71, 127
2, 4080, Note_off_c, 1, 71, 0
2, 4120, Note_on_c, 1, 72, 127
2, 4240, Note_off_c, 1, 72, 0
2, 4280, Note_on_c, 1, 72, 127
2, 4320, Note_off_c, 1, 72, 0
2, 4360, Note_on_c, 1, 71, 127
2, 4480, Note_off_c, 1, 71, 0
2, 4520, Note_on_c, 1, 70, 127
2, 4680, Note_off_c, 1, 70, 0
2, 4720, Note_on_c, 1, 69, 127
2, 4840, Note_off_c, 1, 69, 0
2, 4880, Note_on_c, 1, 63, 127
2, 5040, Note_off_c, 1, 63, 0
2, 5080, Note_on_c, 1, 62, 127
2, 5560, Note_off_c, 1, 62, 0
2, 5600, Note_on_c, 1, 37, 127
2, 5600, Note_on_c, 1, 49, 127
2, 5600, Note_on_c, 1, 56, 127
2, 5760, Note_off_c, 1, 56, 0
2, 5760, Note_on_c, 1, 61, 127
2, 6280, Note_off_c, 1, 61, 0
2, 6320, Note_off_c, 1, 37, 0
2, 6320, Note_off_c, 1, 49, 0
2, 6360, Note_on_c, 1, 37, 127
2, 6360, Note_on_c, 1, 49, 127
2, 6360, Note_on_c, 1, 61, 127
2, 7040, Note_off_c, 1, 37, 0
2, 7040, Note_off_c, 1, 49, 0
2, 7040, Note_off_c, 1, 61, 0
2, 7080, Note_on_c, 1, 46, 127
2, 7080, Note_on_c, 1, 58, 127
2, 7080, Note_on_c, 1, 70, 127
2, 8160, Note_off_c, 1, 46, 0
2, 8160, Note_off_c, 1, 58, 0
2, 8160, Note_off_c, 1, 70, 0
2, 8240, Note_on_c, 1, 49, 127
2, 8240, Note_on_c, 1, 61, 127
2, 8240, Note_on_c, 1, 73, 127
2, 10040, Note_on_c, 1, 42, 127
2, 10040, Note_off_c, 1, 61, 0
2, 10040, Note_off_c, 1, 73, 0
2, 10080, Note_off_c, 1, 42, 0
2, 10080, Note_off_c, 1, 49, 0
2, 10160, Note_on_c, 1, 49, 127
2, 10160, Note_on_c, 1, 61, 127
2, 10160, Note_on_c, 1, 73, 127
2, 10160, Note_on_c, 1, 85, 127
2, 10360, Note_off_c, 1, 49, 0
2, 10360, Note_off_c, 1, 61, 0
2, 10360, Note_off_c, 1, 73, 0
2, 10360, Note_off_c, 1, 85, 0
2, 10400, Note_on_c, 1, 49, 127
2, 10400, Note_on_c, 1, 61, 127
2, 10400, Note_on_c, 1, 73, 127
2, 10400, Note_on_c, 1, 85, 127
2, 10720, Note_off_c, 1, 49, 0
2, 10720, Note_off_c, 1, 61, 0
2, 10720, Note_off_c, 1, 73, 0
2, 10720, Note_off_c, 1, 85, 0
2, 10760, Note_on_c, 1, 42, 127
2, 10760, Note_on_c, 1, 54, 127
2, 10760, Note_on_c, 1, 66, 127
2, 10760, Note_on_c, 1, 78, 127
2, 11280, Note_off_c, 1, 42, 0
2, 11280, Note_off_c, 1, 54, 0
2, 11280, Note_off_c, 1, 66, 0
2, 11280, Note_off_c, 1, 78, 0
2, 11320, Note_on_c, 1, 39, 127
2, 11320, Note_on_c, 1, 51, 127
2, 11320, Note_on_c, 1, 63, 127
2, 11320, Note_on_c, 1, 75, 127
2, 12080, Note_off_c, 1, 39, 0
2, 12080, Note_off_c, 1, 51, 0
2, 12080, Note_off_c, 1, 63, 0
2, 12080, Note_off_c, 1, 75, 0
2, 12120, Note_on_c, 1, 42, 127
2, 12120, Note_on_c, 1, 54, 127
2, 12120, Note_on_c, 1, 66, 127
2, 12120, Note_on_c, 1, 78, 127
2, 12440, Note_off_c, 1, 42, 0
2, 12440, Note_off_c, 1, 54, 0
2, 12440, Note_off_c, 1, 66, 0
2, 12440, Note_off_c, 1, 78, 0
2, 12480, Note_on_c, 1, 42, 127
2, 12480, Note_on_c, 1, 54, 127
2, 12480, Note_on_c, 1, 66, 127
2, 12480, Note_on_c, 1, 78, 127
2, 13240, Note_off_c, 1, 42, 0
2, 13240, Note_off_c, 1, 54, 0
2, 13240, Note_off_c, 1, 66, 0
2, 13240, Note_off_c, 1, 78, 0
2, 13360, Note_on_c, 1, 54, 127
2, 13360, Note_on_c, 1, 78, 127
2, 13560, Note_off_c, 1, 54, 0
2, 13560, Note_off_c, 1, 78, 0
2, 13880, Note_on_c, 1, 54, 127
2, 13880, Note_on_c, 1, 78, 127
2, 14080, Note_off_c, 1, 54, 0
2, 14080, Note_off_c, 1, 78, 0
2, 14400, Note_on_c, 1, 44, 127
2, 14400, Note_on_c, 1, 56, 127
2, 14400, Note_on_c, 1, 68, 127
2, 14400, Note_on_c, 1, 80, 127
2, 14600, Note_off_c, 1, 44, 0
2, 14600, Note_off_c, 1, 56, 0
2, 14600, Note_off_c, 1, 68, 0
2, 14600, Note_off_c, 1, 80, 0
2, 14640, Note_on_c, 1, 44, 127
2, 14640, Note_on_c, 1, 56, 127
2, 14640, Note_on_c, 1, 68, 127
2, 14640, Note_on_c, 1, 80, 127
2, 14680, Note_off_c, 1, 44, 0
2, 14680, Note_off_c, 1, 56, 0
2, 14680, Note_off_c, 1, 68, 0
2, 14680, Note_off_c, 1, 80, 0
2, 14720, Note_on_c, 1, 49, 127
2, 14720, Note_on_c, 1, 73, 127
2, 14920, Note_off_c, 1, 49, 0
2, 14920, Note_off_c, 1, 73, 0
2, 16080, Note_on_c, 1, 57, 127
2, 16080, Note_on_c, 1, 60, 127
2, 16080, Note_on_c, 1, 63, 127
2, 16080, Note_on_c, 1, 72, 127
2, 16080, Note_on_c, 1, 78, 127
2, 16080, Note_on_c, 1, 83, 127
2, 16280, Note_off_c, 1, 57, 0
2, 16280, Note_off_c, 1, 60, 0
2, 16280, Note_off_c, 1, 63, 0
2, 16280, Note_off_c, 1, 72, 0
2, 16280, Note_off_c, 1, 78, 0
2, 16280, Note_off_c, 1, 83, 0
2, 16320, Note_on_c, 1, 57, 127
2, 16320, Note_on_c, 1, 60, 127
2, 16320, Note_on_c, 1, 63, 127
2, 16320, Note_on_c, 1, 72, 127
2, 16320, Note_on_c, 1, 78, 127
2, 16320, Note_on_c, 1, 84, 127
2, 16360, Note_off_c, 1, 57, 0
2, 16360, Note_off_c, 1, 60, 0
2, 16360, Note_off_c, 1, 63, 0
2, 16360, Note_off_c, 1, 72, 0
2, 16360, Note_off_c, 1, 78, 0
2, 16360, Note_off_c, 1, 84, 0
2, 16400, Note_on_c, 1, 38, 127
2, 16400, Note_on_c, 1, 57, 127
2, 16400, Note_on_c, 1, 60, 127
2, 16400, Note_on_c, 1, 62, 127
2, 16400, Note_on_c, 1, 66, 127
2, 16440, Note_off_c, 1, 38, 0
2, 16440, Note_off_c, 1, 57, 0
2, 16440, Note_off_c, 1, 60, 0
2, 16440, Note_off_c, 1, 62, 0
2, 16440, Note_off_c, 1, 66, 0
2, 16520, Note_on_c, 1, 38, 127
2, 16520, Note_on_c, 1, 57, 127
2, 16520, Note_on_c, 1, 60, 127
2, 16520, Note_on_c, 1, 62, 127
2, 16520, Note_on_c, 1, 66, 127
2, 16560, Note_off_c, 1, 38, 0
2, 16560, Note_off_c, 1, 57, 0
2, 16560, Note_off_c, 1, 60, 0
2, 16560, Note_off_c, 1, 62, 0
2, 16560, Note_off_c, 1, 66, 0
2, 16680, Note_on_c, 1, 38, 127
2, 16680, Note_on_c, 1, 57, 127
2, 16680, Note_on_c, 1, 60, 127
2, 16680, Note_on_c, 1, 62, 127
2, 16680, Note_on_c, 1, 66, 127
2, 16920, Note_off_c, 1, 38, 0
2, 16920, Note_off_c, 1, 57, 0
2, 16920, Note_off_c, 1, 60, 0
2, 16920, Note_off_c, 1, 62, 0
2, 16920, Note_off_c, 1, 66, 0
2, 16960, Note_on_c, 1, 50, 127
2, 16960, Note_on_c, 1, 54, 127
2, 16960, Note_on_c, 1, 59, 127
2, 16960, Note_on_c, 1, 62, 127
2, 16960, Note_on_c, 1, 74, 127
2, 16960, Note_on_c, 1, 78, 127
2, 16960, Note_on_c, 1, 83, 127
2, 16960, Note_on_c, 1, 86, 127
2, 17200, Note_off_c, 1, 50, 0
2, 17200, Note_off_c, 1, 54, 0
2, 17200, Note_off_c, 1, 59, 0
2, 17200, Note_off_c, 1, 62, 0
2, 17200, Note_off_c, 1, 74, 0
2, 17200, Note_off_c, 1, 78, 0
2, 17200, Note_off_c, 1, 83, 0
2, 17200, Note_off_c, 1, 86, 0
2, 17240, Note_on_c, 1, 52, 127
2, 17240, Note_on_c, 1, 59, 127
2, 17240, Note_on_c, 1, 64, 127
2, 17240, Note_on_c, 1, 71, 127
2, 17240, Note_on_c, 1, 76, 127
2, 17240, Note_on_c, 1, 81, 127
2, 17240, Note_on_c, 1, 83, 127
2, 17480, Note_off_c, 1, 52, 0
2, 17480, Note_off_c, 1, 59, 0
2, 17480, Note_off_c, 1, 64, 0
2, 17480, Note_off_c, 1, 71, 0
2, 17480, Note_off_c, 1, 76, 0
2, 17480, Note_off_c, 1, 81, 0
2, 17480, Note_off_c, 1, 83, 0
2, 17520, Note_on_c, 1, 52, 127
2, 17520, Note_on_c, 1, 59, 127
2, 17520, Note_on_c, 1, 64, 127
2, 17520, Note_on_c, 1, 71, 127
2, 17520, Note_on_c, 1, 76, 127
2, 17520, Note_on_c, 1, 81, 127
2, 17520, Note_on_c, 1, 83, 127
2, 17760, Note_off_c, 1, 52, 0
2, 17760, Note_off_c, 1, 59, 0
2, 17760, Note_off_c, 1, 64, 0
2, 17760, Note_off_c, 1, 71, 0
2, 17760, Note_off_c, 1, 76, 0
2, 17760, Note_off_c, 1, 81, 0
2, 17760, Note_off_c, 1, 83, 0
2, 17800, Note_on_c, 1, 52, 127
2, 17800, Note_on_c, 1, 59, 127
2, 17800, Note_on_c, 1, 64, 127
2, 17800, Note_on_c, 1, 71, 127
2, 17800, Note_on_c, 1, 76, 127
2, 17800, Note_on_c, 1, 81, 127
2, 17800, Note_on_c, 1, 83, 127
2, 18040, Note_off_c, 1, 52, 0
2, 18040, Note_off_c, 1, 59, 0
2, 18040, Note_off_c, 1, 64, 0
2, 18040, Note_off_c, 1, 71, 0
2, 18040, Note_off_c, 1, 76, 0
2, 18040, Note_off_c, 1, 81, 0
2, 18040, Note_off_c, 1, 83, 0
2, 18080, Note_on_c, 1, 52, 127
2, 18080, Note_on_c, 1, 59, 127
2, 18080, Note_on_c, 1, 64, 127
2, 18080, Note_on_c, 1, 71, 127
2, 18080, Note_on_c, 1, 76, 127
2, 18080, Note_on_c, 1, 81, 127
2, 18080, Note_on_c, 1, 83, 127
2, 18280, Note_off_c, 1, 52, 0
2, 18280, Note_off_c, 1, 59, 0
2, 18280, Note_off_c, 1, 64, 0
2, 18280, Note_off_c, 1, 71, 0
2, 18280, Note_off_c, 1, 76, 0
2, 18280, Note_off_c, 1, 81, 0
2, 18280, Note_off_c, 1, 83, 0
2, 18320, Note_on_c, 1, 52, 127
2, 18320, Note_on_c, 1, 59, 127
2, 18320, Note_on_c, 1, 64, 127
2, 18320, Note_on_c, 1, 71, 127
2, 18320, Note_on_c, 1, 76, 127
2, 18320, Note_on_c, 1, 81, 127
2, 18320, Note_on_c, 1, 83, 127
2, 18360, Note_off_c, 1, 52, 0
2, 18360, Note_off_c, 1, 59, 0
2, 18360, Note_off_c, 1, 64, 0
2, 18360, Note_off_c, 1, 71, 0
2, 18360, Note_off_c, 1, 76, 0
2, 18360, Note_off_c, 1, 81, 0
2, 18360, Note_off_c, 1, 83, 0
2, 18400, Note_on_c, 1, 52, 127
2, 18400, Note_on_c, 1, 59, 127
2, 18400, Note_on_c, 1, 64, 127
2, 18400, Note_on_c, 1, 71, 127
2, 18400, Note_on_c, 1, 76, 127
2, 18400, Note_on_c, 1, 81, 127
2, 18400, Note_on_c, 1, 83, 127
2, 18640, Note_off_c, 1, 52, 0
2, 18640, Note_off_c, 1, 59, 0
2, 18640, Note_off_c, 1, 64, 0
2, 18640, Note_off_c, 1, 71, 0
2, 18640, Note_off_c, 1, 76, 0
2, 18640, Note_off_c, 1, 81, 0
2, 18640, Note_off_c, 1, 83, 0
2, 18680, Note_on_c, 1, 40, 127
2, 18680, Note_on_c, 1, 52, 127
2, 18680, Note_on_c, 1, 76, 127
2, 18680, Note_on_c, 1, 80, 127
2, 18680, Note_on_c, 1, 83, 127
2, 18680, Note_on_c, 1, 88, 127
2, 18920, Note_off_c, 1, 40, 0
2, 18920, Note_off_c, 1, 52, 0
2, 18920, Note_off_c, 1, 76, 0
2, 18920, Note_off_c, 1, 80, 0
2, 18920, Note_off_c, 1, 83, 0
2, 18920, Note_off_c, 1, 88, 0
2, 18960, Note_on_c, 1, 45, 127
2, 18960, Note_on_c, 1, 52, 127
2, 18960, Note_on_c, 1, 64, 127
2, 18960, Note_on_c, 1, 69, 127
2, 18960, Note_on_c, 1, 73, 127
2, 19480, Note_off_c, 1, 45, 0
2, 19480, Note_off_c, 1, 52, 0
2, 19480, Note_off_c, 1, 64, 0
2, 19480, Note_off_c, 1, 69, 0
2, 19480, Note_off_c, 1, 73, 0
2, 19520, Note_on_c, 1, 52, 127
2, 19520, Note_on_c, 1, 64, 127
2, 19760, Note_off_c, 1, 52, 0
2, 19760, Note_off_c, 1, 64, 0
2, 19800, Note_on_c, 1, 57, 127
2, 19800, Note_on_c, 1, 69, 127
2, 20040, Note_off_c, 1, 57, 0
2, 20040, Note_off_c, 1, 69, 0
2, 20080, Note_on_c, 1, 64, 127
2, 20080, Note_on_c, 1, 76, 127
2, 20320, Note_off_c, 1, 64, 0
2, 20320, Note_off_c, 1, 76, 0
2, 20360, Note_on_c, 1, 65, 127
2, 20360, Note_on_c, 1, 77, 127
2, 20520, Note_off_c, 1, 65, 0
2, 20520, Note_off_c, 1, 77, 0
2, 20600, Note_on_c, 1, 64, 127
2, 20600, Note_on_c, 1, 76, 127
2, 20920, Note_off_c, 1, 64, 0
2, 20920, Note_off_c, 1, 76, 0
2, 20960, Note_on_c, 1, 64, 127
2, 20960, Note_on_c, 1, 76, 127
2, 21200, Note_off_c, 1, 64, 0
2, 21200, Note_off_c, 1, 76, 0
2, 21240, Note_on_c, 1, 65, 127
2, 21240, Note_on_c, 1, 77, 127
2, 21280, Note_off_c, 1, 65, 0
2, 21280, Note_off_c, 1, 77, 0
2, 21320, Note_on_c, 1, 64, 127
2, 21320, Note_on_c, 1, 76, 127
2, 21360, Note_off_c, 1, 64, 0
2, 21360, Note_off_c, 1, 76, 0
2, 21400, Note_on_c, 1, 62, 127
2, 21400, Note_on_c, 1, 74, 127
2, 21440, Note_off_c, 1, 62, 0
2, 21440, Note_on_c, 1, 65, 127
2, 21440, Note_off_c, 1, 74, 0
2, 21440, Note_on_c, 1, 77, 127
2, 21880, Note_off_c, 1, 65, 0
2, 21880, Note_off_c, 1, 77, 0
2, 21920, Note_on_c, 1, 31, 127
2, 21920, Note_on_c, 1, 43, 127
2, 21920, Note_on_c, 1, 71, 127
2, 22080, Note_off_c, 1, 71, 0
2, 22080, Note_on_c, 1, 74, 127
2, 22120, Note_on_c, 1, 71, 127
2, 22120, Note_off_c, 1, 74, 0
2, 22160, Note_off_c, 1, 71, 0
2, 22720, Note_off_c, 1, 31, 0
2, 22720, Note_off_c, 1, 43, 0
2, 22760, Note_on_c, 1, 31, 127
2, 22760, Note_on_c, 1, 43, 127
2, 22800, Note_off_c, 1, 31, 0
2, 22800, Note_off_c, 1, 43, 0
2, 22840, Note_on_c, 1, 31, 127
2, 22840, Note_on_c, 1, 43, 127
2, 23120, Note_on_c, 1, 65, 127
2, 23120, Note_on_c, 1, 74, 127
2, 23280, Note_off_c, 1, 65, 0
2, 23280, Note_off_c, 1, 74, 0
2, 23320, Note_on_c, 1, 59, 127
2, 23320, Note_on_c, 1, 62, 127
2, 23480, Note_off_c, 1, 59, 0
2, 23880, Note_off_c, 1, 31, 0
2, 23880, Note_off_c, 1, 43, 0
2, 23880, Note_off_c, 1, 62, 0
2, 23920, Note_on_c, 1, 31, 127
2, 23920, Note_on_c, 1, 43, 127
2, 24480, Note_on_c, 1, 67, 127
2, 24920, Note_off_c, 1, 31, 0
2, 24920, Note_off_c, 1, 43, 0
2, 24920, Note_off_c, 1, 67, 0
2, 24960, Note_on_c, 1, 31, 127
2, 24960, Note_on_c, 1, 43, 127
2, 24960, Note_on_c, 1, 67, 127
2, 25080, Note_off_c, 1, 67, 0
2, 25120, Note_on_c, 1, 63, 127
2, 25120, Note_on_c, 1, 72, 127
2, 25160, Note_off_c, 1, 63, 0
2, 25160, Note_on_c, 1, 65, 127
2, 25160, Note_off_c, 1, 72, 0
2, 25160, Note_on_c, 1, 74, 127
2, 25320, Note_off_c, 1, 65, 0
2, 25320, Note_off_c, 1, 74, 0
2, 25400, Note_on_c, 1, 63, 127
2, 25400, Note_on_c, 1, 72, 127
2, 25440, Note_off_c, 1, 63, 0
2, 25440, Note_on_c, 1, 65, 127
2, 25440, Note_off_c, 1, 72, 0
2, 25440, Note_on_c, 1, 74, 127
2, 25520, Note_off_c, 1, 65, 0
2, 25520, Note_off_c, 1, 74, 0
2, 25880, Note_on_c, 1, 55, 127
2, 25920, Note_off_c, 1, 55, 0
2, 26040, Note_on_c, 1, 55, 127
2, 26080, Note_off_c, 1, 55, 0
2, 26120, Note_off_c, 1, 31, 0
2, 26120, Note_off_c, 1, 43, 0
2, 26200, Note_on_c, 1, 31, 127
2, 26200, Note_on_c, 1, 67, 127
2, 26200, Note_on_c, 1, 79, 127
2, 26360, Note_off_c, 1, 31, 0
2, 26360, Note_on_c, 1, 38, 127
2, 26360, Note_on_c, 1, 50, 127
2, 26360, Note_off_c, 1, 67, 0
2, 26360, Note_on_c, 1, 71, 127
2, 26360, Note_on_c, 1, 77, 127
2, 26360, Note_off_c, 1, 79, 0
2, 26360, Note_on_c, 1, 83, 127
2, 26400, Note_on_c, 1, 31, 127
2, 26400, Note_off_c, 1, 38, 0
2, 26400, Note_off_c, 1, 50, 0
2, 26400, Note_on_c, 1, 67, 127
2, 26400, Note_off_c, 1, 71, 0
2, 26400, Note_off_c, 1, 77, 0
2, 26400, Note_on_c, 1, 79, 127
2, 26400, Note_off_c, 1, 83, 0
2, 26760, Note_off_c, 1, 31, 0
2, 26760, Note_off_c, 1, 67, 0
2, 26760, Note_off_c, 1, 79, 0
2, 26800, Note_on_c, 1, 43, 127
2, 26800, Note_on_c, 1, 69, 127
2, 26800, Note_on_c, 1, 81, 127
2, 27360, Note_off_c, 1, 69, 0
2, 27360, Note_on_c, 1, 72, 127
2, 27360, Note_off_c, 1, 81, 0
2, 27400, Note_off_c, 1, 43, 0
2, 27400, Note_on_c, 1, 50, 127
2, 27400, Note_on_c, 1, 54, 127
2, 27400, Note_off_c, 1, 72, 0
2, 27400, Note_on_c, 1, 74, 127
2, 27400, Note_on_c, 1, 86, 127
2, 27960, Note_off_c, 1, 54, 0
2, 27960, Note_off_c, 1, 74, 0
2, 27960, Note_off_c, 1, 86, 0
2, 28000, Note_off_c, 1, 50, 0
2, 28000, Note_on_c, 1, 52, 127
2, 28000, Note_on_c, 1, 71, 127
2, 28000, Note_on_c, 1, 76, 127
2, 28000, Note_on_c, 1, 79, 127
2, 28000, Note_on_c, 1, 83, 127
2, 28160, Note_off_c, 1, 52, 0
2, 28160, Note_off_c, 1, 71, 0
2, 28160, Note_off_c, 1, 76, 0
2, 28160, Note_off_c, 1, 79, 0
2, 28160, Note_off_c, 1, 83, 0
2, 28200, Note_on_c, 1, 52, 127
2, 28200, Note_on_c, 1, 71, 127
2, 28200, Note_on_c, 1, 76, 127
2, 28200, Note_on_c, 1, 79, 127
2, 28200, Note_on_c, 1, 83, 127
2, 28400, Note_off_c, 1, 52, 0
2, 28600, Note_off_c, 1, 71, 0
2, 28640, Note_on_c, 1, 71, 127
2, 29000, Note_off_c, 1, 71, 0
2, 29200, Note_off_c, 1, 76, 0
2, 29240, Note_on_c, 1, 71, 127
2, 29240, Note_on_c, 1, 76, 127
2, 29400, Note_off_c, 1, 71, 0
2, 29520, Note_on_c, 1, 71, 127
2, 29640, Note_off_c, 1, 71, 0
2, 29840, Note_off_c, 1, 76, 0
2, 29880, Note_on_c, 1, 76, 127
2, 30440, Note_off_c, 1, 76, 0
2, 30440, Note_off_c, 1, 79, 0
2, 30440, Note_off_c, 1, 83, 0
2, 30520, Note_on_c, 1, 59, 127
2, 30520, Note_on_c, 1, 67, 127
2, 30520, Note_on_c, 1, 76, 127
2, 30520, Note_on_c, 1, 79, 127
2, 30880, Note_off_c, 1, 76, 0
2, 30960, Note_on_c, 1, 76, 127
2, 31080, Note_off_c, 1, 59, 0
2, 31080, Note_off_c, 1, 67, 0
2, 31080, Note_off_c, 1, 76, 0
2, 31080, Note_off_c, 1, 79, 0
2, 31120, Note_on_c, 1, 62, 127
2, 31120, Note_on_c, 1, 66, 127
2, 31120, Note_on_c, 1, 71, 127
2, 31120, Note_on_c, 1, 74, 127
2, 31120, Note_on_c, 1, 81, 127
2, 31160, Note_on_c, 1, 42, 127
2, 31160, Note_on_c, 1, 49, 127
2, 31160, Note_on_c, 1, 57, 127
2, 31160, Note_on_c, 1, 61, 127
2, 31160, Note_off_c, 1, 62, 0
2, 31160, Note_on_c, 1, 65, 127
2, 31160, Note_off_c, 1, 66, 0
2, 31160, Note_off_c, 1, 71, 0
2, 31160, Note_off_c, 1, 74, 0
2, 31160, Note_off_c, 1, 81, 0
2, 31720, Note_off_c, 1, 42, 0
2, 31720, Note_off_c, 1, 49, 0
2, 31720, Note_off_c, 1, 57, 0
2, 31720, Note_off_c, 1, 61, 0
2, 31720, Note_off_c, 1, 65, 0
2, 31760, Note_on_c, 1, 36, 127
2, 31760, Note_on_c, 1, 48, 127
2, 31760, Note_on_c, 1, 72, 127
2, 31760, Note_on_c, 1, 76, 127
2, 31760, Note_on_c, 1, 84, 127
2, 32560, Note_off_c, 1, 36, 0
2, 32560, Note_off_c, 1, 48, 0
2, 32560, Note_off_c, 1, 72, 0
2, 32560, Note_off_c, 1, 76, 0
2, 32560, Note_off_c, 1, 84, 0
2, 32600, Note_on_c, 1, 36, 127
2, 32600, Note_on_c, 1, 48, 127
2, 32600, Note_on_c, 1, 72, 127
2, 32600, Note_on_c, 1, 76, 127
2, 32600, Note_on_c, 1, 84, 127
2, 32960, Note_off_c, 1, 36, 0
2, 32960, Note_off_c, 1, 48, 0
2, 32960, Note_off_c, 1, 72, 0
2, 32960, Note_off_c, 1, 76, 0
2, 32960, Note_off_c, 1, 84, 0
2, 33000, Note_on_c, 1, 71, 127
2, 33000, Note_on_c, 1, 83, 127
2, 33560, Note_off_c, 1, 71, 0
2, 33560, Note_off_c, 1, 83, 0
2, 33600, Note_on_c, 1, 32, 127
2, 33600, Note_on_c, 1, 44, 127
2, 33600, Note_on_c, 1, 68, 127
2, 33600, Note_on_c, 1, 72, 127
2, 33600, Note_on_c, 1, 75, 127
2, 33600, Note_on_c, 1, 80, 127
2, 34600, Note_off_c, 1, 32, 0
2, 34600, Note_off_c, 1, 44, 0
2, 34600, Note_off_c, 1, 68, 0
2, 34600, Note_off_c, 1, 72, 0
2, 34600, Note_off_c, 1, 75, 0
2, 34600, Note_off_c, 1, 80, 0
2, 34640, Note_on_c, 1, 32, 127
2, 34640, Note_on_c, 1, 44, 127
2, 34640, Note_on_c, 1, 68, 127
2, 34640, Note_on_c, 1, 72, 127
2, 34640, Note_on_c, 1, 75, 127
2, 34640, Note_on_c, 1, 80, 127
2, 34800, Note_off_c, 1, 32, 0
2, 34800, Note_off_c, 1, 44, 0
2, 34800, Note_off_c, 1, 68, 0
2, 34800, Note_off_c, 1, 72, 0
2, 34800, Note_off_c, 1, 75, 0
2, 34800, Note_off_c, 1, 80, 0
2, 34840, Note_on_c, 1, 45, 127
2, 34840, Note_on_c, 1, 57, 127
2, 34840, Note_on_c, 1, 73, 127
2, 34840, Note_on_c, 1, 79, 127
2, 35880, Note_off_c, 1, 45, 0
2, 35880, Note_off_c, 1, 57, 0
2, 35880, Note_off_c, 1, 73, 0
2, 35880, Note_off_c, 1, 79, 0
2, 35920, Note_on_c, 1, 72, 127
2, 35960, Note_on_c, 1, 58, 127
2, 35960, Note_on_c, 1, 60, 127
2, 35960, Note_on_c, 1, 63, 127
2, 35960, Note_on_c, 1, 67, 127
2, 36000, Note_off_c, 1, 58, 0
2, 36000, Note_off_c, 1, 60, 0
2, 36000, Note_off_c, 1, 63, 0
2, 36000, Note_off_c, 1, 67, 0
2, 36000, Note_off_c, 1, 72, 0
2, 36040, Note_on_c, 1, 56, 127
2, 36040, Note_on_c, 1, 61, 127
2, 36040, Note_on_c, 1, 64, 127
2, 36040, Note_on_c, 1, 68, 127
2, 36040, Note_on_c, 1, 76, 127
2, 36040, Note_on_c, 1, 80, 127
2, 36040, Note_on_c, 1, 85, 127
2, 36040, Note_on_c, 1, 88, 127
2, 36080, Note_off_c, 1, 56, 0
2, 36080, Note_off_c, 1, 61, 0
2, 36080, Note_off_c, 1, 64, 0
2, 36080, Note_off_c, 1, 68, 0
2, 36160, Note_on_c, 1, 56, 127
2, 36160, Note_on_c, 1, 61, 127
2, 36160, Note_on_c, 1, 64, 127
2, 36160, Note_on_c, 1, 68, 127
2, 36200, Note_off_c, 1, 56, 0
2, 36200, Note_off_c, 1, 61, 0
2, 36200, Note_off_c, 1, 64, 0
2, 36200, Note_off_c, 1, 68, 0
2, 36280, Note_on_c, 1, 56, 127
2, 36280, Note_on_c, 1, 61, 127
2, 36280, Note_on_c, 1, 64, 127
2, 36280, Note_on_c, 1, 68, 127
2, 36320, Note_off_c, 1, 56, 0
2, 36320, Note_off_c, 1, 61, 0
2, 36320, Note_off_c, 1, 64, 0
2, 36320, Note_off_c, 1, 68, 0
2, 36360, Note_on_c, 1, 56, 127
2, 36360, Note_on_c, 1, 61, 127
2, 36360, Note_on_c, 1, 64, 127
2, 36360, Note_on_c, 1, 68, 127
2, 36400, Note_off_c, 1, 56, 0
2, 36400, Note_off_c, 1, 61, 0
2, 36400, Note_off_c, 1, 64, 0
2, 36400, Note_off_c, 1, 68, 0
2, 36440, Note_on_c, 1, 56, 127
2, 36440, Note_on_c, 1, 61, 127
2, 36440, Note_on_c, 1, 64, 127
2, 36440, Note_on_c, 1, 68, 127
2, 36520, Note_off_c, 1, 56, 0
2, 36520, Note_off_c, 1, 61, 0
2, 36520, Note_off_c, 1, 64, 0
2, 36520, Note_off_c, 1, 68, 0
2, 36560, Note_on_c, 1, 56, 127
2, 36560, Note_on_c, 1, 61, 127
2, 36560, Note_on_c, 1, 64, 127
2, 36560, Note_on_c, 1, 68, 127
2, 36600, Note_off_c, 1, 56, 0
2, 36600, Note_off_c, 1, 61, 0
2, 36600, Note_off_c, 1, 64, 0
2, 36600, Note_off_c, 1, 68, 0
2, 36640, Note_off_c, 1, 76, 0
2, 36640, Note_off_c, 1, 80, 0
2, 36640, Note_off_c, 1, 85, 0
2, 36640, Note_off_c, 1, 88, 0
2, 36720, Note_on_c, 1, 39, 127
2, 36720, Note_on_c, 1, 51, 127
2, 36720, Note_on_c, 1, 70, 127
2, 36720, Note_on_c, 1, 73, 127
2, 36720, Note_on_c, 1, 78, 127
2, 36720, Note_on_c, 1, 82, 127
2, 36760, Note_off_c, 1, 39, 0
2, 36760, Note_off_c, 1, 51, 0
2, 36840, Note_on_c, 1, 49, 127
2, 36880, Note_off_c, 1, 49, 0
2, 36920, Note_on_c, 1, 49, 127
2, 36960, Note_off_c, 1, 49, 0
2, 36960, Note_off_c, 1, 70, 0
2, 36960, Note_off_c, 1, 73, 0
2, 36960, Note_off_c, 1, 78, 0
2, 36960, Note_off_c, 1, 82, 0
2, 37000, Note_on_c, 1, 43, 127
2, 37000, Note_on_c, 1, 71, 127
2, 37000, Note_on_c, 1, 77, 127
2, 37000, Note_on_c, 1, 83, 127
2, 37040, Note_off_c, 1, 43, 0
2, 37200, Note_on_c, 1, 43, 127
2, 37240, Note_off_c, 1, 43, 0
2, 37240, Note_off_c, 1, 71, 0
2, 37240, Note_off_c, 1, 77, 0
2, 37240, Note_off_c, 1, 83, 0
2, 37280, Note_on_c, 1, 62, 127
2, 37280, Note_on_c, 1, 71, 127
2, 37280, Note_on_c, 1, 77, 127
2, 37280, Note_on_c, 1, 83, 127
2, 37520, Note_off_c, 1, 62, 0
2, 37520, Note_off_c, 1, 71, 0
2, 37520, Note_off_c, 1, 77, 0
2, 37520, Note_off_c, 1, 83, 0
2, 37560, Note_on_c, 1, 53, 127
2, 37560, Note_on_c, 1, 59, 127
2, 37560, Note_on_c, 1, 83, 127
2, 37560, Note_on_c, 1, 86, 127
2, 37560, Note_on_c, 1, 88, 127
2, 37600, Note_off_c, 1, 53, 0
2, 37600, Note_off_c, 1, 59, 0
2, 37600, Note_on_c, 1, 79, 127
2, 37600, Note_off_c, 1, 83, 0
2, 37600, Note_off_c, 1, 86, 0
2, 37600, Note_on_c, 1, 98, 127
2, 37640, Note_on_c, 1, 53, 127
2, 37640, Note_on_c, 1, 59, 127
2, 37640, Note_off_c, 1, 79, 0
2, 37640, Note_on_c, 1, 83, 127
2, 37640, Note_on_c, 1, 86, 127
2, 37640, Note_off_c, 1, 98, 0
2, 37680, Note_off_c, 1, 59, 0
2, 37680, Note_on_c, 1, 60, 127
2, 37680, Note_on_c, 1, 63, 127
2, 37680, Note_on_c, 1, 65, 127
2, 37680, Note_off_c, 1, 83, 0
2, 37680, Note_off_c, 1, 86, 0
2, 37680, Note_on_c, 1, 87, 127
2, 37680, Note_off_c, 1, 88, 0
2, 37720, Note_on_c, 1, 59, 127
2, 37720, Note_off_c, 1, 60, 0
2, 37720, Note_off_c, 1, 63, 0
2, 37720, Note_off_c, 1, 65, 0
2, 37720, Note_on_c, 1, 83, 127
2, 37720, Note_on_c, 1, 86, 127
2, 37720, Note_off_c, 1, 87, 0
2, 37720, Note_on_c, 1, 88, 127
2, 37760, Note_on_c, 1, 65, 127
2, 37760, Note_off_c, 1, 88, 0
2, 37800, Note_off_c, 1, 53, 0
2, 37800, Note_off_c, 1, 59, 0
2, 37800, Note_on_c, 1, 62, 127
2, 37800, Note_off_c, 1, 65, 0
2, 37800, Note_on_c, 1, 74, 127
2, 37800, Note_off_c, 1, 83, 0
2, 37800, Note_off_c, 1, 86, 0
2, 37800, Note_on_c, 1, 94, 127
2, 37840, Note_on_c, 1, 53, 127
2, 37840, Note_on_c, 1, 59, 127
2, 37840, Note_off_c, 1, 62, 0
2, 37840, Note_on_c, 1, 65, 127
2, 37840, Note_off_c, 1, 74, 0
2, 37840, Note_on_c, 1, 83, 127
2, 37840, Note_on_c, 1, 88, 127
2, 37840, Note_off_c, 1, 94, 0
2, 37880, Note_off_c, 1, 53, 0
2, 37880, Note_off_c, 1, 59, 0
2, 37880, Note_on_c, 1, 62, 127
2, 37880, Note_off_c, 1, 65, 0
2, 37880, Note_on_c, 1, 74, 127
2, 37880, Note_off_c, 1, 83, 0
2, 37880, Note_off_c, 1, 88, 0
2, 37880, Note_on_c, 1, 94, 127
2, 37920, Note_off_c, 1, 62, 0
2, 37920, Note_off_c, 1, 74, 0
2, 37920, Note_on_c, 1, 82, 127
2, 37920, Note_on_c, 1, 86, 127
2, 37920, Note_off_c, 1, 94, 0
2, 37960, Note_on_c, 1, 68, 127
2, 37960, Note_off_c, 1, 82, 0
2, 37960, Note_off_c, 1, 86, 0
2, 37960, Note_on_c, 1, 90, 127
2, 37960, Note_on_c, 1, 92, 127
2, 37960, Note_on_c, 1, 95, 127
2, 37960, Note_on_c, 1, 98, 127
2, 37960, Note_on_c, 1, 102, 127
2, 38000, Note_on_c, 1, 46, 127
2, 38000, Note_on_c, 1, 66, 127
2, 38000, Note_off_c, 1, 68, 0
2, 38000, Note_on_c, 1, 82, 127
2, 38000, Note_on_c, 1, 87, 127
2, 38000, Note_off_c, 1, 92, 0
2, 38000, Note_off_c, 1, 95, 0
2, 38000, Note_off_c, 1, 98, 0
2, 38000, Note_off_c, 1, 102, 0
2, 38040, Note_off_c, 1, 46, 0
2, 38040, Note_off_c, 1, 66, 0
2, 38040, Note_off_c, 1, 82, 0
2, 38040, Note_off_c, 1, 87, 0
2, 38040, Note_off_c, 1, 90, 0
2, 38080, Note_on_c, 1, 68, 127
2, 38080, Note_on_c, 1, 90, 127
2, 38080, Note_on_c, 1, 92, 127
2, 38080, Note_on_c, 1, 95, 127
2, 38080, Note_on_c, 1, 98, 127
2, 38080, Note_on_c, 1, 102, 127
2, 38320, Note_off_c, 1, 68, 0
2, 38320, Note_off_c, 1, 90, 0
2, 38320, Note_off_c, 1, 92, 0
2, 38320, Note_off_c, 1, 95, 0
2, 38320, Note_off_c, 1, 98, 0
2, 38320, Note_off_c, 1, 102, 0
2, 38360, Note_on_c, 1, 49, 127
2, 38360, Note_on_c, 1, 61, 127
2, 38360, Note_on_c, 1, 70, 127
2, 38360, Note_on_c, 1, 73, 127
2, 38360, Note_on_c, 1, 77, 127
2, 38360, Note_on_c, 1, 82, 127
2, 38600, Note_off_c, 1, 49, 0
2, 38600, Note_off_c, 1, 61, 0
2, 38600, Note_off_c, 1, 70, 0
2, 38600, Note_off_c, 1, 73, 0
2, 38600, Note_off_c, 1, 77, 0
2, 38600, Note_off_c, 1, 82, 0
2, 38640, Note_on_c, 1, 36, 127
2, 38640, Note_on_c, 1, 48, 127
2, 38640, Note_on_c, 1, 76, 127
2, 38640, Note_on_c, 1, 79, 127
2, 38640, Note_on_c, 1, 84, 127
2, 38640, Note_on_c, 1, 88, 127
2, 38720, Note_off_c, 1, 36, 0
2, 38720, Note_off_c, 1, 48, 0
2, 38720, Note_off_c, 1, 76, 0
2, 38720, Note_off_c, 1, 79, 0
2, 38720, Note_off_c, 1, 84, 0
2, 38720, Note_off_c, 1, 88, 0
2, 38760, Note_on_c, 1, 36, 127
2, 38760, Note_on_c, 1, 48, 127
2, 38760, Note_on_c, 1, 76, 127
2, 38760, Note_on_c, 1, 79, 127
2, 38760, Note_on_c, 1, 84, 127
2, 38760, Note_on_c, 1, 88, 127
2, 38880, Note_off_c, 1, 36, 0
2, 38880, Note_off_c, 1, 48, 0
2, 38880, Note_off_c, 1, 76, 0
2, 38880, Note_off_c, 1, 79, 0
2, 38880, Note_off_c, 1, 84, 0
2, 38880, Note_off_c, 1, 88, 0
2, 38920, Note_on_c, 1, 36, 127
2, 38920, Note_on_c, 1, 48, 127
2, 38920, Note_on_c, 1, 76, 127
2, 38920, Note_on_c, 1, 79, 127
2, 38920, Note_on_c, 1, 84, 127
2, 38920, Note_on_c, 1, 88, 127
2, 39440, Note_off_c, 1, 36, 0
2, 39440, Note_off_c, 1, 48, 0
2, 39440, Note_off_c, 1, 76, 0
2, 39440, Note_off_c, 1, 79, 0
2, 39440, Note_off_c, 1, 84, 0
2, 39440, Note_off_c, 1, 88, 0
2, 39480, Note_on_c, 1, 36, 127
2, 39480, Note_on_c, 1, 48, 127
2, 39480, Note_on_c, 1, 64, 127
2, 39480, Note_on_c, 1, 72, 127
2, 39480, Note_on_c, 1, 76, 127
2, 39720, Note_off_c, 1, 36, 0
2, 39720, Note_off_c, 1, 48, 0
2, 39720, Note_off_c, 1, 64, 0
2, 39720, Note_off_c, 1, 72, 0
2, 39720, Note_off_c, 1, 76, 0
2, 39760, Note_on_c, 1, 36, 127
2, 39760, Note_on_c, 1, 48, 127
2, 39760, Note_on_c, 1, 64, 127
2, 39760, Note_on_c, 1, 72, 127
2, 39760, Note_on_c, 1, 76, 127
2, 40000, Note_off_c, 1, 36, 0
2, 40000, Note_off_c, 1, 48, 0
2, 40000, Note_off_c, 1, 64, 0
2, 40000, Note_off_c, 1, 72, 0
2, 40000, Note_off_c, 1, 76, 0
2, 40040, Note_on_c, 1, 36, 127
2, 40040, Note_on_c, 1, 48, 127
2, 40040, Note_on_c, 1, 64, 127
2, 40040, Note_on_c, 1, 72, 127
2, 40040, Note_on_c, 1, 76, 127
2, 40600, Note_off_c, 1, 36, 0
2, 40600, Note_off_c, 1, 48, 0
2, 40600, Note_off_c, 1, 64, 0
2, 40600, Note_off_c, 1, 72, 0
2, 40600, Note_off_c, 1, 76, 0
2, 40640, Note_on_c, 1, 62, 127
2, 40640, Note_on_c, 1, 65, 127
2, 40640, Note_on_c, 1, 70, 127
2, 40640, Note_on_c, 1, 82, 127
2, 40640, Note_on_c, 1, 89, 127
2, 40680, Note_on_c, 1, 47, 127
2, 40680, Note_on_c, 1, 54, 127
2, 40680, Note_on_c, 1, 57, 127
2, 40680, Note_on_c, 1, 59, 127
2, 40680, Note_off_c, 1, 62, 0
2, 40680, Note_on_c, 1, 63, 127
2, 40680, Note_off_c, 1, 65, 0
2, 40680, Note_on_c, 1, 69, 127
2, 40680, Note_off_c, 1, 70, 0
2, 40680, Note_off_c, 1, 82, 0
2, 40680, Note_off_c, 1, 89, 0
2, 40720, Note_off_c, 1, 47, 0
2, 40720, Note_off_c, 1, 54, 0
2, 40720, Note_off_c, 1, 57, 0
2, 40720, Note_off_c, 1, 59, 0
2, 40720, Note_off_c, 1, 63, 0
2, 40720, Note_off_c, 1, 69, 0
2, 40760, Note_on_c, 1, 62, 127
2, 40760, Note_on_c, 1, 65, 127
2, 40760, Note_on_c, 1, 70, 127
2, 40760, Note_on_c, 1, 82, 127
2, 40760, Note_on_c, 1, 89, 127
2, 40800, Note_on_c, 1, 57, 127
2, 40800, Note_off_c, 1, 62, 0
2, 40800, Note_off_c, 1, 65, 0
2, 40800, Note_off_c, 1, 70, 0
2, 40800, Note_on_c, 1, 76, 127
2, 40800, Note_on_c, 1, 81, 127
2, 40800, Note_off_c, 1, 82, 0
2, 40800, Note_on_c, 1, 83, 127
2, 40800, Note_on_c, 1, 88, 127
2, 40800, Note_off_c, 1, 89, 0
2, 40840, Note_off_c, 1, 57, 0
2, 40840, Note_off_c, 1, 76, 0
2, 40840, Note_off_c, 1, 81, 0
2, 40840, Note_off_c, 1, 83, 0
2, 40840, Note_off_c, 1, 88, 0
2, 40880, Note_on_c, 1, 35, 127
2, 40880, Note_on_c, 1, 47, 127
2, 40880, Note_on_c, 1, 54, 127
2, 40880, Note_on_c, 1, 59, 127
2, 40880, Note_on_c, 1, 63, 127
2, 40880, Note_on_c, 1, 78, 127
2, 40920, Note_off_c, 1, 35, 0
2, 40920, Note_off_c, 1, 47, 0
2, 40920, Note_on_c, 1, 52, 127
2, 40920, Note_on_c, 1, 57, 127
2, 40920, Note_off_c, 1, 78, 0
2, 40920, Note_on_c, 1, 87, 127
2, 40960, Note_off_c, 1, 52, 0
2, 40960, Note_off_c, 1, 54, 0
2, 40960, Note_on_c, 1, 55, 127
2, 40960, Note_off_c, 1, 57, 0
2, 40960, Note_off_c, 1, 59, 0
2, 40960, Note_off_c, 1, 63, 0
2, 40960, Note_on_c, 1, 68, 127
2, 40960, Note_on_c, 1, 75, 127
2, 40960, Note_on_c, 1, 78, 127
2, 40960, Note_on_c, 1, 80, 127
2, 40960, Note_off_c, 1, 87, 0
2, 41000, Note_on_c, 1, 52, 127
2, 41000, Note_off_c, 1, 55, 0
2, 41000, Note_off_c, 1, 68, 0
2, 41000, Note_off_c, 1, 75, 0
2, 41000, Note_on_c, 1, 76, 127
2, 41000, Note_off_c, 1, 78, 0
2, 41000, Note_on_c, 1, 85, 127
2, 41040, Note_off_c, 1, 52, 0
2, 41040, Note_on_c, 1, 75, 127
2, 41040, Note_off_c, 1, 76, 0
2, 41040, Note_on_c, 1, 83, 127
2, 41040, Note_off_c, 1, 85, 0
2, 41040, Note_on_c, 1, 95, 127
2, 41080, Note_off_c, 1, 75, 0
2, 41080, Note_off_c, 1, 80, 0
2, 41080, Note_off_c, 1, 83, 0
2, 41080, Note_off_c, 1, 95, 0
2, 41120, Note_on_c, 1, 36, 127
2, 41120, Note_on_c, 1, 48, 127
2, 41120, Note_on_c, 1, 54, 127
2, 41120, Note_on_c, 1, 65, 127
2, 41160, Note_off_c, 1, 36, 0
2, 41160, Note_on_c, 1, 38, 127
2, 41160, Note_off_c, 1, 48, 0
2, 41160, Note_on_c, 1, 49, 127
2, 41160, Note_on_c, 1, 61, 127
2, 41160, Note_off_c, 1, 65, 0
2, 41160, Note_on_c, 1, 66, 127
2, 41360, Note_off_c, 1, 38, 0
2, 41360, Note_off_c, 1, 49, 0
2, 41360, Note_off_c, 1, 54, 0
2, 41360, Note_off_c, 1, 61, 0
2, 41360, Note_off_c, 1, 66, 0
2, 41400, Note_on_c, 1, 38, 127
2, 41400, Note_on_c, 1, 47, 127
2, 41400, Note_on_c, 1, 54, 127
2, 41400, Note_on_c, 1, 59, 127
2, 41400, Note_on_c, 1, 66, 127
2, 41920, Note_off_c, 1, 38, 0
2, 41920, Note_off_c, 1, 47, 0
2, 41920, Note_off_c, 1, 54, 0
2, 41920, Note_off_c, 1, 59, 0
2, 41920, Note_off_c, 1, 66, 0
2, 41960, Note_on_c, 1, 38, 127
2, 41960, Note_on_c, 1, 47, 127
2, 41960, Note_on_c, 1, 54, 127
2, 41960, Note_on_c, 1, 59, 127
2, 41960, Note_on_c, 1, 66, 127
2, 42520, Note_off_c, 1, 38, 0
2, 42520, Note_off_c, 1, 47, 0
2, 42520, Note_off_c, 1, 54, 0
2, 42520, Note_off_c, 1, 59, 0
2, 42520, Note_off_c, 1, 66, 0
2, 42560, Note_on_c, 1, 38, 127
2, 42560, Note_on_c, 1, 47, 127
2, 42560, Note_on_c, 1, 54, 127
2, 42560, Note_on_c, 1, 59, 127
2, 42560, Note_on_c, 1, 66, 127
2, 42760, Note_off_c, 1, 38, 0
2, 42760, Note_off_c, 1, 47, 0
2, 42760, Note_off_c, 1, 54, 0
2, 42760, Note_off_c, 1, 59, 0
2, 42760, Note_off_c, 1, 66, 0
2, 42800, Note_on_c, 1, 38, 127
2, 42800, Note_on_c, 1, 47, 127
2, 42800, Note_on_c, 1, 54, 127
2, 42800, Note_on_c, 1, 59, 127
2, 42800, Note_on_c, 1, 66, 127
2, 43120, Note_off_c, 1, 38, 0
2, 43120, Note_off_c, 1, 47, 0
2, 43120, Note_off_c, 1, 54, 0
2, 43120, Note_off_c, 1, 59, 0
2, 43120, Note_off_c, 1, 66, 0
2, 43160, Note_on_c, 1, 38, 127
2, 43160, Note_on_c, 1, 47, 127
2, 43160, Note_on_c, 1, 54, 127
2, 43160, Note_on_c, 1, 59, 127
2, 43160, Note_on_c, 1, 66, 127
2, 43720, Note_off_c, 1, 38, 0
2, 43720, Note_off_c, 1, 47, 0
2, 43720, Note_off_c, 1, 54, 0
2, 43720, Note_off_c, 1, 59, 0
2, 43720, Note_off_c, 1, 66, 0
2, 43760, Note_on_c, 1, 38, 127
2, 43760, Note_on_c, 1, 47, 127
2, 43760, Note_on_c, 1, 54, 127
2, 43760, Note_on_c, 1, 59, 127
2, 43760, Note_on_c, 1, 66, 127
2, 44320, Note_off_c, 1, 38, 0
2, 44320, Note_off_c, 1, 47, 0
2, 44320, Note_off_c, 1, 54, 0
2, 44320, Note_off_c, 1, 59, 0
2, 44320, Note_off_c, 1, 66, 0
2, 44360, Note_on_c, 1, 38, 127
2, 44360, Note_on_c, 1, 47, 127
2, 44360, Note_on_c, 1, 54, 127
2, 44360, Note_on_c, 1, 59, 127
2, 44360, Note_on_c, 1, 66, 127
2, 44680, Note_off_c, 1, 38, 0
2, 44680, Note_off_c, 1, 47, 0
2, 44680, Note_off_c, 1, 54, 0
2, 44680, Note_off_c, 1, 59, 0
2, 44680, Note_off_c, 1, 66, 0
2, 44720, Note_on_c, 1, 38, 127
2, 44720, Note_on_c, 1, 47, 127
2, 44720, Note_on_c, 1, 54, 127
2, 44720, Note_on_c, 1, 59, 127
2, 44720, Note_on_c, 1, 66, 127
2, 44960, Note_off_c, 1, 38, 0
2, 44960, Note_off_c, 1, 47, 0
2, 44960, Note_off_c, 1, 54, 0
2, 44960, Note_off_c, 1, 59, 0
2, 44960, Note_off_c, 1, 66, 0
2, 45000, Note_on_c, 1, 38, 127
2, 45000, Note_on_c, 1, 47, 127
2, 45000, Note_on_c, 1, 54, 127
2, 45000, Note_on_c, 1, 59, 127
2, 45000, Note_on_c, 1, 66, 127
2, 46240, Note_off_c, 1, 38, 0
2, 46240, Note_off_c, 1, 47, 0
2, 46240, Note_off_c, 1, 54, 0
2, 46240, Note_off_c, 1, 59, 0
2, 46240, Note_off_c, 1, 66, 0
2, 46280, Note_on_c, 1, 38, 127
2, 46280, Note_on_c, 1, 47, 127
2, 46280, Note_on_c, 1, 54, 127
2, 46280, Note_on_c, 1, 59, 127
2, 46280, Note_on_c, 1, 66, 127
2, 46680, Note_off_c, 1, 38, 0
2, 46680, Note_off_c, 1, 47, 0
2, 46680, Note_off_c, 1, 54, 0
2, 46680, Note_off_c, 1, 59, 0
2, 46680, Note_off_c, 1, 66, 0
2, 46720, Note_on_c, 1, 38, 127
2, 46720, Note_on_c, 1, 47, 127
2, 46720, Note_on_c, 1, 54, 127
2, 46720, Note_on_c, 1, 59, 127
2, 46720, Note_on_c, 1, 66, 127
2, 47480, Note_off_c, 1, 38, 0
2, 47480, Note_off_c, 1, 47, 0
2, 47480, Note_off_c, 1, 54, 0
2, 47480, Note_off_c, 1, 59, 0
2, 47480, Note_off_c, 1, 66, 0
2, 47520, Note_on_c, 1, 48, 127
2, 47520, Note_on_c, 1, 60, 127
2, 47520, Note_on_c, 1, 78, 127
2, 47520, Note_on_c, 1, 81, 127
2, 47520, Note_on_c, 1, 87, 127
2, 47520, Note_on_c, 1, 90, 127
2, 48280, Note_off_c, 1, 48, 0
2, 48280, Note_off_c, 1, 60, 0
2, 48280, Note_off_c, 1, 78, 0
2, 48280, Note_off_c, 1, 81, 0
2, 48280, Note_off_c, 1, 87, 0
2, 48280, Note_off_c, 1, 90, 0
2, 48320, Note_on_c, 1, 42, 127
2, 48320, Note_on_c, 1, 54, 127
2, 48320, Note_on_c, 1, 64, 127
2, 48320, Note_on_c, 1, 67, 127
2, 48320, Note_on_c, 1, 76, 127
2, 48360, Note_on_c, 1, 40, 127
2, 48360, Note_off_c, 1, 42, 0
2, 48360, Note_on_c, 1, 52, 127
2, 48360, Note_off_c, 1, 54, 0
2, 48400, Note_on_c, 1, 45, 127
2, 48400, Note_on_c, 1, 49, 127
2, 48400, Note_off_c, 1, 67, 0
2, 48440, Note_off_c, 1, 40, 0
2, 48440, Note_on_c, 1, 42, 127
2, 48440, Note_off_c, 1, 45, 0
2, 48440, Note_off_c, 1, 49, 0
2, 48440, Note_off_c, 1, 52, 0
2, 48440, Note_on_c, 1, 54, 127
2, 48440, Note_on_c, 1, 67, 127
2, 48480, Note_off_c, 1, 42, 0
2, 48480, Note_off_c, 1, 54, 0
2, 48480, Note_on_c, 1, 55, 127
2, 48480, Note_on_c, 1, 59, 127
2, 48480, Note_off_c, 1, 67, 0
2, 48480, Note_on_c, 1, 71, 127
2, 48480, Note_off_c, 1, 76, 0
2, 48480, Note_on_c, 1, 79, 127
2, 48480, Note_on_c, 1, 83, 127
2, 48520, Note_on_c, 1, 40, 127
2, 48520, Note_on_c, 1, 52, 127
2, 48520, Note_off_c, 1, 55, 0
2, 48520, Note_off_c, 1, 59, 0
2, 48520, Note_on_c, 1, 67, 127
2, 48520, Note_off_c, 1, 71, 0
2, 48520, Note_on_c, 1, 76, 127
2, 48520, Note_off_c, 1, 79, 0
2, 48520, Note_off_c, 1, 83, 0
2, 48560, Note_off_c, 1, 40, 0
2, 48560, Note_off_c, 1, 52, 0
2, 48600, Note_on_c, 1, 40, 127
2, 48600, Note_on_c, 1, 47, 127
2, 48600, Note_off_c, 1, 64, 0
2, 48600, Note_off_c, 1, 67, 0
2, 48600, Note_off_c, 1, 76, 0
2, 48600, Note_on_c, 1, 83, 127
2, 48680, Note_off_c, 1, 40, 0
2, 48680, Note_off_c, 1, 47, 0
2, 48680, Note_off_c, 1, 83, 0
2, 48720, Note_on_c, 1, 50, 127
2, 48720, Note_on_c, 1, 57, 127
2, 48720, Note_on_c, 1, 60, 127
2, 48720, Note_on_c, 1, 64, 127
2, 48760, Note_on_c, 1, 38, 127
2, 48760, Note_off_c, 1, 50, 0
2, 48760, Note_off_c, 1, 57, 0
2, 48760, Note_on_c, 1, 58, 127
2, 48760, Note_off_c, 1, 60, 0
2, 48760, Note_off_c, 1, 64, 0
2, 48760, Note_on_c, 1, 65, 127
2, 48800, Note_on_c, 1, 35, 127
2, 48800, Note_off_c, 1, 38, 0
2, 48800, Note_on_c, 1, 47, 127
2, 48800, Note_on_c, 1, 49, 127
2, 48800, Note_on_c, 1, 52, 127
2, 48800, Note_off_c, 1, 58, 0
2, 48800, Note_on_c, 1, 59, 127
2, 48800, Note_off_c, 1, 65, 0
2, 48840, Note_on_c, 1, 33, 127
2, 48840, Note_off_c, 1, 35, 0
2, 48840, Note_off_c, 1, 47, 0
2, 48840, Note_off_c, 1, 49, 0
2, 48840, Note_off_c, 1, 52, 0
2, 48840, Note_on_c, 1, 57, 127
2, 48880, Note_off_c, 1, 33, 0
2, 48880, Note_on_c, 1, 49, 127
2, 48880, Note_on_c, 1, 54, 127
2, 48880, Note_off_c, 1, 57, 0
2, 48880, Note_off_c, 1, 59, 0
2, 48880, Note_on_c, 1, 61, 127
2, 48880, Note_on_c, 1, 64, 127
2, 48880, Note_on_c, 1, 66, 127
2, 48880, Note_on_c, 1, 71, 127
2, 48920, Note_off_c, 1, 49, 0
2, 48920, Note_off_c, 1, 54, 0
2, 48920, Note_off_c, 1, 61, 0
2, 48920, Note_off_c, 1, 64, 0
2, 48920, Note_off_c, 1, 66, 0
2, 48920, Note_off_c, 1, 71, 0
2, 48960, Note_on_c, 1, 36, 127
2, 48960, Note_on_c, 1, 48, 127
2, 49200, Note_off_c, 1, 36, 0
2, 49200, Note_off_c, 1, 48, 0
2, 49240, Note_on_c, 1, 41, 127
2, 49240, Note_on_c, 1, 46, 127
2, 49240, Note_on_c, 1, 53, 127
2, 49240, Note_on_c, 1, 87, 127
2, 49640, Note_off_c, 1, 41, 0
2, 49640, Note_off_c, 1, 46, 0
2, 49640, Note_off_c, 1, 53, 0
2, 49640, Note_on_c, 1, 55, 127
2, 49640, Note_on_c, 1, 67, 127
2, 49640, Note_on_c, 1, 70, 127
2, 49640, Note_on_c, 1, 74, 127
2, 49640, Note_on_c, 1, 77, 127
2, 49640, Note_off_c, 1, 87, 0
2, 49680, Note_off_c, 1, 55, 0
2, 49680, Note_off_c, 1, 67, 0
2, 49680, Note_off_c, 1, 70, 0
2, 49680, Note_off_c, 1, 74, 0
2, 49680, Note_off_c, 1, 77, 0
2, 49720, Note_on_c, 1, 41, 127
2, 49720, Note_on_c, 1, 53, 127
2, 49720, Note_on_c, 1, 60, 127
2, 49720, Note_on_c, 1, 69, 127
2, 49960, Note_off_c, 1, 41, 0
2, 49960, Note_off_c, 1, 53, 0
2, 49960, Note_off_c, 1, 60, 0
2, 49960, Note_off_c, 1, 69, 0
2, 50000, Note_on_c, 1, 41, 127
2, 50000, Note_on_c, 1, 53, 127
2, 50000, Note_on_c, 1, 60, 127
2, 50000, Note_on_c, 1, 69, 127
2, 50280, Note_off_c, 1, 41, 0
2, 50280, Note_off_c, 1, 53, 0
2, 50280, Note_off_c, 1, 60, 0
2, 50280, Note_off_c, 1, 69, 0
2, 50320, Note_on_c, 1, 36, 127
2, 50320, Note_on_c, 1, 48, 127
2, 50320, Note_on_c, 1, 62, 127
2, 50320, Note_on_c, 1, 66, 127
2, 50320, Note_on_c, 1, 69, 127
2, 50320, Note_on_c, 1, 74, 127
2, 50600, Note_off_c, 1, 36, 0
2, 50600, Note_off_c, 1, 48, 0
2, 50600, Note_off_c, 1, 62, 0
2, 50600, Note_off_c, 1, 66, 0
2, 50600, Note_off_c, 1, 69, 0
2, 50600, Note_off_c, 1, 74, 0
2, 50640, Note_on_c, 1, 36, 127
2, 50640, Note_on_c, 1, 48, 127
2, 50640, Note_on_c, 1, 62, 127
2, 50640, Note_on_c, 1, 66, 127
2, 50640, Note_on_c, 1, 69, 127
2, 50640, Note_on_c, 1, 74, 127
2, 50920, Note_off_c, 1, 36, 0
2, 50920, Note_off_c, 1, 48, 0
2, 50920, Note_off_c, 1, 62, 0
2, 50920, Note_off_c, 1, 66, 0
2, 50920, Note_off_c, 1, 69, 0
2, 50920, Note_off_c, 1, 74, 0
2, 50960, Note_on_c, 1, 38, 127
2, 50960, Note_on_c, 1, 50, 127
2, 50960, Note_on_c, 1, 65, 127
2, 50960, Note_on_c, 1, 69, 127
2, 50960, Note_on_c, 1, 74, 127
2, 51200, Note_off_c, 1, 38, 0
2, 51200, Note_off_c, 1, 50, 0
2, 51200, Note_off_c, 1, 65, 0
2, 51200, Note_off_c, 1, 69, 0
2, 51200, Note_off_c, 1, 74, 0
2, 51240, Note_on_c, 1, 36, 127
2, 51240, Note_on_c, 1, 48, 127
2, 51240, Note_on_c, 1, 64, 127
2, 51240, Note_on_c, 1, 67, 127
2, 51240, Note_on_c, 1, 72, 127
2, 51480, Note_off_c, 1, 36, 0
2, 51480, Note_off_c, 1, 48, 0
2, 51480, Note_off_c, 1, 64, 0
2, 51480, Note_off_c, 1, 67, 0
2, 51480, Note_off_c, 1, 72, 0
2, 51520, Note_on_c, 1, 55, 127
2, 51520, Note_on_c, 1, 65, 127
2, 51520, Note_on_c, 1, 70, 127
2, 51520, Note_on_c, 1, 74, 127
2, 51760, Note_off_c, 1, 55, 0
2, 51760, Note_off_c, 1, 65, 0
2, 51760, Note_off_c, 1, 70, 0
2, 51760, Note_off_c, 1, 74, 0
2, 51800, Note_on_c, 1, 51, 127
2, 51800, Note_on_c, 1, 66, 127
2, 51800, Note_on_c, 1, 69, 127
2, 51800, Note_on_c, 1, 71, 127
2, 52040, Note_off_c, 1, 51, 0
2, 52040, Note_off_c, 1, 66, 0
2, 52040, Note_off_c, 1, 69, 0
2, 52040, Note_off_c, 1, 71, 0
2, 52080, Note_on_c, 1, 56, 127
2, 52080, Note_on_c, 1, 62, 127
2, 52080, Note_on_c, 1, 65, 127
2, 52080, Note_on_c, 1, 71, 127
2, 52360, Note_off_c, 1, 56, 0
2, 52360, Note_off_c, 1, 62, 0
2, 52360, Note_off_c, 1, 65, 0
2, 52360, Note_off_c, 1, 71, 0
2, 52400, Note_on_c, 1, 55, 127
2, 52400, Note_on_c, 1, 62, 127
2, 52400, Note_on_c, 1, 65, 127
2, 52400, Note_on_c, 1, 71, 127
2, 52600, Note_off_c, 1, 55, 0
2, 52600, Note_off_c, 1, 62, 0
2, 52600, Note_off_c, 1, 65, 0
2, 52600, Note_off_c, 1, 71, 0
2, 52640, Note_on_c, 1, 55, 127
2, 52640, Note_on_c, 1, 62, 127
2, 52640, Note_on_c, 1, 65, 127
2, 52640, Note_on_c, 1, 71, 127
2, 52680, Note_off_c, 1, 55, 0
2, 52680, Note_off_c, 1, 62, 0
2, 52680, Note_off_c, 1, 65, 0
2, 52680, Note_off_c, 1, 71, 0
2, 52720, Note_on_c, 1, 48, 127
2, 52720, Note_on_c, 1, 60, 127
2, 52720, Note_on_c, 1, 64, 127
2, 52720, Note_on_c, 1, 72, 127
2, 53240, Note_off_c, 1, 48, 0
2, 53240, Note_off_c, 1, 60, 0
2, 53240, Note_off_c, 1, 64, 0
2, 53240, Note_off_c, 1, 72, 0
2, 54920, Note_on_c, 1, 65, 127
2, 54920, Note_on_c, 1, 72, 127
2, 54920, Note_on_c, 1, 81, 127
2, 54920, Note_on_c, 1, 89, 127
2, 55640, Note_off_c, 1, 65, 0
2, 55640, Note_off_c, 1, 72, 0
2, 55640, Note_off_c, 1, 81, 0
2, 55640, Note_off_c, 1, 89, 0
2, 55680, Note_on_c, 1, 65, 127
2, 55680, Note_on_c, 1, 72, 127
2, 55680, Note_on_c, 1, 81, 127
2, 55680, Note_on_c, 1, 89, 127
2, 56040, Note_off_c, 1, 65, 0
2, 56040, Note_off_c, 1, 72, 0
2, 56040, Note_off_c, 1, 81, 0
2, 56040, Note_off_c, 1, 89, 0
2, 59120, Note_on_c, 1, 34, 127
2, 59120, Note_on_c, 1, 46, 127
2, 59120, Note_on_c, 1, 58, 127
2, 59120, Note_on_c, 1, 61, 127
2, 59120, Note_on_c, 1, 67, 127
2, 59480, Note_off_c, 1, 34, 0
2, 59480, Note_on_c, 1, 44, 127
2, 59480, Note_off_c, 1, 46, 0
2, 59480, Note_off_c, 1, 58, 0
2, 59480, Note_on_c, 1, 60, 127
2, 59480, Note_off_c, 1, 61, 0
2, 59480, Note_on_c, 1, 63, 127
2, 59480, Note_off_c, 1, 67, 0
2, 59480, Note_on_c, 1, 70, 127
2, 59520, Note_off_c, 1, 44, 0
2, 59520, Note_off_c, 1, 60, 0
2, 59520, Note_off_c, 1, 63, 0
2, 59520, Note_off_c, 1, 70, 0
2, 59520, Note_on_c, 1, 79, 127
2, 59560, Note_off_c, 1, 79, 0
2, 59600, Note_on_c, 1, 72, 127
2, 59600, Note_on_c, 1, 74, 127
2, 59600, Note_on_c, 1, 79, 127
2, 59600, Note_on_c, 1, 89, 127
2, 59600, Note_on_c, 1, 91, 127
2, 59600, Note_on_c, 1, 95, 127
2, 59840, Note_off_c, 1, 72, 0
2, 59840, Note_off_c, 1, 74, 0
2, 59840, Note_off_c, 1, 79, 0
2, 59840, Note_on_c, 1, 80, 127
2, 59840, Note_off_c, 1, 89, 0
2, 59840, Note_off_c, 1, 91, 0
2, 59840, Note_off_c, 1, 95, 0
2, 59880, Note_on_c, 1, 72, 127
2, 59880, Note_on_c, 1, 74, 127
2, 59880, Note_on_c, 1, 79, 127
2, 59880, Note_off_c, 1, 80, 0
2, 59880, Note_on_c, 1, 89, 127
2, 59880, Note_on_c, 1, 91, 127
2, 59880, Note_on_c, 1, 95, 127
2, 60160, Note_off_c, 1, 72, 0
2, 60160, Note_off_c, 1, 74, 0
2, 60160, Note_off_c, 1, 79, 0
2, 60160, Note_off_c, 1, 89, 0
2, 60160, Note_off_c, 1, 91, 0
2, 60160, Note_off_c, 1, 95, 0
2, 60200, Note_on_c, 1, 36, 127
2, 60200, Note_on_c, 1, 43, 127
2, 60200, Note_on_c, 1, 48, 127
2, 60200, Note_on_c, 1, 51, 127
2, 60200, Note_on_c, 1, 60, 127
2, 60200, Note_on_c, 1, 63, 127
2, 60440, Note_off_c, 1, 36, 0
2, 60440, Note_off_c, 1, 43, 0
2, 60440, Note_off_c, 1, 48, 0
2, 60440, Note_off_c, 1, 51, 0
2, 60440, Note_off_c, 1, 60, 0
2, 60440, Note_off_c, 1, 63, 0
2, 60480, Note_on_c, 1, 36, 127
2, 60480, Note_on_c, 1, 43, 127
2, 60480, Note_on_c, 1, 48, 127
2, 60480, Note_on_c, 1, 51, 127
2, 60480, Note_on_c, 1, 60, 127
2, 60480, Note_on_c, 1, 63, 127
2, 60720, Note_off_c, 1, 36, 0
2, 60720, Note_off_c, 1, 43, 0
2, 60720, Note_off_c, 1, 48, 0
2, 60720, Note_off_c, 1, 51, 0
2, 60720, Note_off_c, 1, 60, 0
2, 60720, Note_off_c, 1, 63, 0
2, 60760, Note_on_c, 1, 58, 127
2, 60760, Note_on_c, 1, 61, 127
2, 60760, Note_on_c, 1, 63, 127
2, 60760, Note_on_c, 1, 67, 127
2, 60760, Note_on_c, 1, 70, 127
2, 60760, Note_on_c, 1, 75, 127
2, 60760, Note_on_c, 1, 82, 127
2, 61000, Note_off_c, 1, 58, 0
2, 61000, Note_off_c, 1, 61, 0
2, 61000, Note_off_c, 1, 63, 0
2, 61000, Note_off_c, 1, 67, 0
2, 61000, Note_off_c, 1, 70, 0
2, 61000, Note_off_c, 1, 75, 0
2, 61000, Note_off_c, 1, 82, 0
2, 61080, Note_on_c, 1, 51, 127
2, 61080, Note_on_c, 1, 63, 127
2, 61080, Note_on_c, 1, 78, 127
2, 61080, Note_on_c, 1, 84, 127
2, 61280, Note_off_c, 1, 51, 0
2, 61280, Note_off_c, 1, 63, 0
2, 61280, Note_off_c, 1, 78, 0
2, 61280, Note_off_c, 1, 84, 0
2, 61320, Note_on_c, 1, 41, 127
2, 61320, Note_on_c, 1, 47, 127
2, 61320, Note_on_c, 1, 53, 127
2, 61320, Note_on_c, 1, 80, 127
2, 61320, Note_on_c, 1, 86, 127
2, 61320, Note_on_c, 1, 92, 127
2, 61480, Note_off_c, 1, 41, 0
2, 61480, Note_off_c, 1, 47, 0
2, 61480, Note_off_c, 1, 53, 0
2, 61480, Note_off_c, 1, 80, 0
2, 61480, Note_off_c, 1, 86, 0
2, 61480, Note_off_c, 1, 92, 0
2, 61520, Note_on_c, 1, 41, 127
2, 61520, Note_on_c, 1, 47, 127
2, 61520, Note_on_c, 1, 53, 127
2, 61520, Note_on_c, 1, 80, 127
2, 61520, Note_on_c, 1, 86, 127
2, 61520, Note_on_c, 1, 92, 127
2, 61600, Note_off_c, 1, 41, 0
2, 61600, Note_off_c, 1, 47, 0
2, 61600, Note_off_c, 1, 53, 0
2, 61600, Note_off_c, 1, 80, 0
2, 61600, Note_off_c, 1, 86, 0
2, 61600, Note_off_c, 1, 92, 0
2, 61640, Note_on_c, 1, 41, 127
2, 61640, Note_on_c, 1, 53, 127
2, 61640, Note_on_c, 1, 65, 127
2, 61640, Note_on_c, 1, 74, 127
2, 61640, Note_on_c, 1, 77, 127
2, 61920, Note_off_c, 1, 41, 0
2, 61920, Note_off_c, 1, 53, 0
2, 61920, Note_off_c, 1, 65, 0
2, 61920, Note_off_c, 1, 74, 0
2, 61920, Note_off_c, 1, 77, 0
2, 61960, Note_on_c, 1, 53, 127
2, 61960, Note_on_c, 1, 60, 127
2, 61960, Note_on_c, 1, 64, 127
2, 61960, Note_on_c, 1, 65, 127
2, 61960, Note_on_c, 1, 72, 127
2, 61960, Note_on_c, 1, 76, 127
2, 61960, Note_on_c, 1, 77, 127
2, 62240, Note_on_c, 1, 58, 127
2, 62240, Note_off_c, 1, 60, 0
2, 62240, Note_on_c, 1, 62, 127
2, 62240, Note_off_c, 1, 64, 0
2, 62240, Note_on_c, 1, 70, 127
2, 62240, Note_off_c, 1, 72, 0
2, 62240, Note_on_c, 1, 74, 127
2, 62240, Note_off_c, 1, 76, 0
2, 62480, Note_off_c, 1, 53, 0
2, 62480, Note_off_c, 1, 58, 0
2, 62480, Note_off_c, 1, 62, 0
2, 62480, Note_off_c, 1, 65, 0
2, 62480, Note_off_c, 1, 70, 0
2, 62480, Note_off_c, 1, 74, 0
2, 62480, Note_off_c, 1, 77, 0
2, 62520, Note_on_c, 1, 51, 127
2, 62520, Note_on_c, 1, 59, 127
2, 62520, Note_on_c, 1, 63, 127
2, 62520, Note_on_c, 1, 66, 127
2, 62520, Note_on_c, 1, 71, 127
2, 62520, Note_on_c, 1, 75, 127
2, 62800, Note_off_c, 1, 51, 0
2, 62800, Note_off_c, 1, 59, 0
2, 62800, Note_off_c, 1, 63, 0
2, 62800, Note_off_c, 1, 66, 0
2, 62800, Note_off_c, 1, 71, 0
2, 62800, Note_off_c, 1, 75, 0
2, 62840, Note_on_c, 1, 47, 127
2, 62840, Note_on_c, 1, 59, 127
2, 62840, Note_on_c, 1, 69, 127
2, 62840, Note_on_c, 1, 71, 127
2, 62840, Note_on_c, 1, 81, 127
2, 63040, Note_off_c, 1, 47, 0
2, 63040, Note_off_c, 1, 59, 0
2, 63040, Note_off_c, 1, 69, 0
2, 63040, Note_off_c, 1, 71, 0
2, 63040, Note_off_c, 1, 81, 0
2, 63120, Note_on_c, 1, 52, 127
2, 63120, Note_on_c, 1, 59, 127
2, 63120, Note_on_c, 1, 68, 127
2, 63120, Note_on_c, 1, 76, 127
2, 63120, Note_on_c, 1, 80, 127
2, 63560, Note_off_c, 1, 52, 0
2, 63560, Note_off_c, 1, 59, 0
2, 63560, Note_off_c, 1, 68, 0
2, 63560, Note_off_c, 1, 76, 0
2, 63560, Note_off_c, 1, 80, 0
2, 63600, Note_on_c, 1, 52, 127
2, 63600, Note_on_c, 1, 59, 127
2, 63600, Note_on_c, 1, 68, 127
2, 63600, Note_on_c, 1, 76, 127
2, 63600, Note_on_c, 1, 80, 127
2, 63680, Note_off_c, 1, 52, 0
2, 63680, Note_off_c, 1, 59, 0
2, 63680, Note_off_c, 1, 68, 0
2, 63680, Note_off_c, 1, 76, 0
2, 63680, Note_off_c, 1, 80, 0
2, 63720, Note_on_c, 1, 52, 127
2, 63720, Note_on_c, 1, 59, 127
2, 63720, Note_on_c, 1, 68, 127
2, 63720, Note_on_c, 1, 76, 127
2, 63720, Note_on_c, 1, 80, 127
2, 64240, Note_off_c, 1, 52, 0
2, 64240, Note_off_c, 1, 59, 0
2, 64240, Note_off_c, 1, 68, 0
2, 64240, Note_off_c, 1, 76, 0
2, 64240, Note_off_c, 1, 80, 0
2, 64280, Note_on_c, 1, 39, 127
2, 64280, Note_on_c, 1, 51, 127
2, 64280, Note_on_c, 1, 59, 127
2, 64280, Note_on_c, 1, 66, 127
2, 64280, Note_on_c, 1, 69, 127
2, 64280, Note_on_c, 1, 71, 127
2, 64520, Note_off_c, 1, 39, 0
2, 64520, Note_off_c, 1, 51, 0
2, 64520, Note_off_c, 1, 59, 0
2, 64520, Note_off_c, 1, 66, 0
2, 64520, Note_off_c, 1, 69, 0
2, 64520, Note_off_c, 1, 71, 0
2, 64560, Note_on_c, 1, 33, 127
2, 64560, Note_on_c, 1, 40, 127
2, 64560, Note_on_c, 1, 45, 127
2, 64560, Note_on_c, 1, 52, 127
2, 64840, Note_off_c, 1, 33, 0
2, 64840, Note_off_c, 1, 40, 0
2, 64840, Note_off_c, 1, 45, 0
2, 64840, Note_off_c, 1, 52, 0
2, 64880, Note_on_c, 1, 36, 127
2, 64880, Note_on_c, 1, 40, 127
2, 64880, Note_on_c, 1, 48, 127
2, 64880, Note_on_c, 1, 53, 127
2, 65120, Note_off_c, 1, 36, 0
2, 65120, Note_off_c, 1, 40, 0
2, 65120, Note_off_c, 1, 48, 0
2, 65120, Note_off_c, 1, 53, 0
2, 65160, Note_on_c, 1, 33, 127
2, 65160, Note_on_c, 1, 40, 127
2, 65160, Note_on_c, 1, 45, 127
2, 65160, Note_on_c, 1, 52, 127
2, 65440, Note_off_c, 1, 33, 0
2, 65440, Note_off_c, 1, 40, 0
2, 65440, Note_off_c, 1, 45, 0
2, 65440, Note_off_c, 1, 52, 0
2, 65480, Note_on_c, 1, 36, 127
2, 65480, Note_on_c, 1, 40, 127
2, 65480, Note_on_c, 1, 48, 127
2, 65480, Note_on_c, 1, 57, 127
2, 65680, Note_off_c, 1, 36, 0
2, 65680, Note_off_c, 1, 40, 0
2, 65680, Note_off_c, 1, 48, 0
2, 65680, Note_off_c, 1, 57, 0
2, 65720, Note_on_c, 1, 36, 127
2, 65720, Note_on_c, 1, 40, 127
2, 65720, Note_on_c, 1, 48, 127
2, 65720, Note_on_c, 1, 57, 127
2, 65760, Note_on_c, 1, 34, 127
2, 65760, Note_off_c, 1, 36, 0
2, 65760, Note_on_c, 1, 38, 127
2, 65760, Note_off_c, 1, 40, 0
2, 65760, Note_on_c, 1, 46, 127
2, 65760, Note_off_c, 1, 48, 0
2, 65760, Note_off_c, 1, 57, 0
2, 65760, Note_on_c, 1, 62, 127
2, 66040, Note_off_c, 1, 34, 0
2, 66040, Note_off_c, 1, 38, 0
2, 66040, Note_off_c, 1, 46, 0
2, 66040, Note_off_c, 1, 62, 0
2, 66080, Note_on_c, 1, 38, 127
2, 66080, Note_on_c, 1, 41, 127
2, 66080, Note_on_c, 1, 50, 127
2, 66080, Note_on_c, 1, 62, 127
2, 66640, Note_off_c, 1, 38, 0
2, 66640, Note_off_c, 1, 41, 0
2, 66640, Note_off_c, 1, 50, 0
2, 66640, Note_off_c, 1, 62, 0
2, 66680, Note_on_c, 1, 45, 127
2, 66680, Note_on_c, 1, 60, 127
2, 66680, Note_on_c, 1, 64, 127
2, 66680, Note_on_c, 1, 69, 127
2, 66680, Note_on_c, 1, 72, 127
2, 66880, Note_on_c, 1, 35, 127
2, 66880, Note_off_c, 1, 45, 0
2, 66880, Note_on_c, 1, 59, 127
2, 66880, Note_off_c, 1, 60, 0
2, 66880, Note_on_c, 1, 61, 127
2, 66880, Note_off_c, 1, 64, 0
2, 66880, Note_off_c, 1, 69, 0
2, 66880, Note_off_c, 1, 72, 0
2, 66920, Note_off_c, 1, 35, 0
2, 66920, Note_on_c, 1, 38, 127
2, 66920, Note_off_c, 1, 59, 0
2, 66920, Note_off_c, 1, 61, 0
2, 66960, Note_on_c, 1, 36, 127
2, 66960, Note_off_c, 1, 38, 0
2, 66960, Note_on_c, 1, 50, 127
2, 66960, Note_on_c, 1, 55, 127
2, 66960, Note_on_c, 1, 58, 127
2, 67240, Note_off_c, 1, 36, 0
2, 67240, Note_off_c, 1, 50, 0
2, 67240, Note_off_c, 1, 55, 0
2, 67240, Note_off_c, 1, 58, 0
2, 67280, Note_on_c, 1, 64, 127
2, 67280, Note_on_c, 1, 67, 127
2, 67280, Note_on_c, 1, 71, 127
2, 67280, Note_on_c, 1, 76, 127
2, 67280, Note_on_c, 1, 79, 127
2, 67280, Note_on_c, 1, 83, 127
2, 67480, Note_off_c, 1, 64, 0
2, 67480, Note_off_c, 1, 67, 0
2, 67480, Note_off_c, 1, 71, 0
2, 67480, Note_off_c, 1, 76, 0
2, 67480, Note_off_c, 1, 79, 0
2, 67480, Note_off_c, 1, 83, 0
2, 67520, Note_on_c, 1, 57, 127
2, 67520, Note_on_c, 1, 60, 127
2, 67520, Note_on_c, 1, 64, 127
2, 67520, Note_on_c, 1, 69, 127
2, 67520, Note_on_c, 1, 72, 127
2, 67520, Note_on_c, 1, 76, 127
2, 67520, Note_on_c, 1, 81, 127
2, 67520, Note_on_c, 1, 84, 127
2, 67800, Note_off_c, 1, 57, 0
2, 67800, Note_off_c, 1, 60, 0
2, 67800, Note_off_c, 1, 64, 0
2, 67800, Note_off_c, 1, 69, 0
2, 67800, Note_off_c, 1, 72, 0
2, 67800, Note_off_c, 1, 76, 0
2, 67800, Note_off_c, 1, 81, 0
2, 67800, Note_off_c, 1, 84, 0
2, 67880, Note_on_c, 1, 36, 127
2, 67880, Note_on_c, 1, 48, 127
2, 67880, Note_on_c, 1, 65, 127
2, 67880, Note_on_c, 1, 67, 127
2, 67880, Note_on_c, 1, 70, 127
2, 67880, Note_on_c, 1, 74, 127
2, 68120, Note_off_c, 1, 36, 0
2, 68120, Note_off_c, 1, 48, 0
2, 68120, Note_off_c, 1, 65, 0
2, 68120, Note_off_c, 1, 67, 0
2, 68120, Note_off_c, 1, 70, 0
2, 68120, Note_off_c, 1, 74, 0
2, 68160, Note_on_c, 1, 34, 127
2, 68160, Note_on_c, 1, 46, 127
2, 68160, Note_on_c, 1, 65, 127
2, 68160, Note_on_c, 1, 67, 127
2, 68160, Note_on_c, 1, 70, 127
2, 68160, Note_on_c, 1, 74, 127
2, 68400, Note_off_c, 1, 34, 0
2, 68400, Note_off_c, 1, 46, 0
2, 68400, Note_off_c, 1, 65, 0
2, 68400, Note_off_c, 1, 67, 0
2, 68400, Note_off_c, 1, 70, 0
2, 68400, Note_off_c, 1, 74, 0
2, 68440, Note_on_c, 1, 36, 127
2, 68440, Note_on_c, 1, 48, 127
2, 68440, Note_on_c, 1, 58, 127
2, 68440, Note_on_c, 1, 60, 127
2, 68440, Note_on_c, 1, 64, 127
2, 68440, Note_on_c, 1, 67, 127
2, 68680, Note_off_c, 1, 36, 0
2, 68680, Note_off_c, 1, 48, 0
2, 68680, Note_off_c, 1, 58, 0
2, 68680, Note_off_c, 1, 60, 0
2, 68680, Note_off_c, 1, 64, 0
2, 68680, Note_off_c, 1, 67, 0
2, 68720, Note_on_c, 1, 36, 127
2, 68720, Note_on_c, 1, 48, 127
2, 68720, Note_on_c, 1, 55, 127
2, 68720, Note_on_c, 1, 60, 127
2, 68720, Note_on_c, 1, 63, 127
2, 68960, Note_off_c, 1, 36, 0
2, 68960, Note_off_c, 1, 48, 0
2, 68960, Note_off_c, 1, 55, 0
2, 68960, Note_off_c, 1, 60, 0
2, 68960, Note_off_c, 1, 63, 0
2, 69040, Note_on_c, 1, 39, 127
2, 69040, Note_on_c, 1, 46, 127
2, 69040, Note_on_c, 1, 51, 127
2, 69040, Note_on_c, 1, 54, 127
2, 69040, Note_on_c, 1, 58, 127
2, 69040, Note_on_c, 1, 63, 127
2, 69040, Note_on_c, 1, 66, 127
2, 69280, Note_off_c, 1, 39, 0
2, 69280, Note_off_c, 1, 46, 0
2, 69280, Note_off_c, 1, 51, 0
2, 69280, Note_off_c, 1, 54, 0
2, 69280, Note_off_c, 1, 58, 0
2, 69280, Note_off_c, 1, 63, 0
2, 69280, Note_off_c, 1, 66, 0
2, 69320, Note_on_c, 1, 39, 127
2, 69320, Note_on_c, 1, 46, 127
2, 69320, Note_on_c, 1, 51, 127
2, 69320, Note_on_c, 1, 54, 127
2, 69320, Note_on_c, 1, 58, 127
2, 69320, Note_on_c, 1, 63, 127
2, 69320, Note_on_c, 1, 66, 127
2, 69560, Note_off_c, 1, 39, 0
2, 69560, Note_off_c, 1, 51, 0
2, 69560, Note_off_c, 1, 63, 0
2, 69560, Note_off_c, 1, 66, 0
2, 69600, Note_on_c, 1, 39, 127
2, 69600, Note_on_c, 1, 51, 127
2, 69600, Note_on_c, 1, 63, 127
2, 69600, Note_on_c, 1, 66, 127
2, 69880, Note_off_c, 1, 39, 0
2, 69880, Note_off_c, 1, 46, 0
2, 69880, Note_off_c, 1, 51, 0
2, 69880, Note_off_c, 1, 54, 0
2, 69880, Note_off_c, 1, 58, 0
2, 69880, Note_off_c, 1, 63, 0
2, 69880, Note_off_c, 1, 66, 0
2, 70000, Note_on_c, 1, 30, 127
2, 70000, Note_on_c, 1, 42, 127
2, 70000, Note_on_c, 1, 49, 127
2, 70000, Note_on_c, 1, 54, 127
2, 70000, Note_on_c, 1, 58, 127
2, 70000, Note_on_c, 1, 61, 127
2, 70000, Note_on_c, 1, 66, 127
2, 70200, Note_off_c, 1, 30, 0
2, 70200, Note_off_c, 1, 42, 0
2, 70200, Note_off_c, 1, 49, 0
2, 70200, Note_off_c, 1, 54, 0
2, 70200, Note_off_c, 1, 58, 0
2, 70200, Note_off_c, 1, 61, 0
2, 70200, Note_off_c, 1, 66, 0
2, 70240, Note_on_c, 1, 30, 127
2, 70240, Note_on_c, 1, 42, 127
2, 70240, Note_on_c, 1, 49, 127
2, 70240, Note_on_c, 1, 54, 127
2, 70240, Note_on_c, 1, 58, 127
2, 70240, Note_on_c, 1, 61, 127
2, 70240, Note_on_c, 1, 66, 127
2, 72160, Note_off_c, 1, 30, 0
2, 72160, Note_off_c, 1, 42, 0
2, 72160, Note_off_c, 1, 49, 0
2, 72160, Note_off_c, 1, 54, 0
2, 72160, Note_off_c, 1, 58, 0
2, 72160, Note_off_c, 1, 61, 0
2, 72160, Note_off_c, 1, 66, 0
2, 72200, Note_on_c, 1, 30, 127
2, 72200, Note_on_c, 1, 42, 127
2, 72200, Note_on_c, 1, 49, 127
2, 72200, Note_on_c, 1, 54, 127
2, 72200, Note_on_c, 1, 58, 127
2, 72200, Note_on_c, 1, 61, 127
2, 72200, Note_on_c, 1, 66, 127
2, 74320, Note_off_c, 1, 30, 0
2, 74320, Note_off_c, 1, 42, 0
2, 74320, Note_off_c, 1, 49, 0
2, 74320, Note_off_c, 1, 54, 0
2, 74320, Note_off_c, 1, 58, 0
2, 74320, Note_off_c, 1, 61, 0
2, 74320, Note_off_c, 1, 66, 0
2, 74360, Note_on_c, 1, 30, 127
2, 74360, Note_on_c, 1, 42, 127
2, 74360, Note_on_c, 1, 49, 127
2, 74360, Note_on_c, 1, 54, 127
2, 74360, Note_on_c, 1, 58, 127
2, 74360, Note_on_c, 1, 61, 127
2, 74360, Note_on_c, 1, 66, 127
2, 76520, Note_off_c, 1, 30, 0
2, 76520, Note_off_c, 1, 42, 0
2, 76520, Note_off_c, 1, 49, 0
2, 76520, Note_off_c, 1, 54, 0
2, 76520, Note_off_c, 1, 58, 0
2, 76520, Note_off_c, 1, 61, 0
2, 76520, Note_off_c, 1, 66, 0
2, 76560, Note_on_c, 1, 30, 127
2, 76560, Note_on_c, 1, 42, 127
2, 76560, Note_on_c, 1, 49, 127
2, 76560, Note_on_c, 1, 54, 127
2, 76560, Note_on_c, 1, 58, 127
2, 76560, Note_on_c, 1, 61, 127
2, 76560, Note_on_c, 1, 66, 127
2, 78880, Note_off_c, 1, 30, 0
2, 78880, Note_off_c, 1, 42, 0
2, 78880, Note_off_c, 1, 49, 0
2, 78880, Note_off_c, 1, 54, 0
2, 78880, Note_off_c, 1, 58, 0
2, 78880, Note_off_c, 1, 61, 0
2, 78880, Note_off_c, 1, 66, 0
2, 78920, Note_on_c, 1, 30, 127
2, 78920, Note_on_c, 1, 42, 127
2, 78920, Note_on_c, 1, 49, 127
2, 78920, Note_on_c, 1, 54, 127
2, 78920, Note_on_c, 1, 58, 127
2, 78920, Note_on_c, 1, 61, 127
2, 78920, Note_on_c, 1, 66, 127
2, 81040, Note_off_c, 1, 30, 0
2, 81040, Note_off_c, 1, 42, 0
2, 81040, Note_off_c, 1, 49, 0
2, 81040, Note_off_c, 1, 54, 0
2, 81040, Note_off_c, 1, 58, 0
2, 81040, Note_off_c, 1, 61, 0
2, 81040, Note_off_c, 1, 66, 0
2, 81080, Note_on_c, 1, 30, 127
2, 81080, Note_on_c, 1, 42, 127
2, 81080, Note_on_c, 1, 49, 127
2, 81080, Note_on_c, 1, 54, 127
2, 81080, Note_on_c, 1, 58, 127
2, 81080, Note_on_c, 1, 61, 127
2, 81080, Note_on_c, 1, 66, 127
2, 83280, Note_off_c, 1, 30, 0
2, 83280, Note_off_c, 1, 42, 0
2, 83280, Note_off_c, 1, 49, 0
2, 83280, Note_off_c, 1, 54, 0
2, 83280, Note_off_c, 1, 58, 0
2, 83280, Note_off_c, 1, 61, 0
2, 83280, Note_off_c, 1, 66, 0
2, 83320, Note_on_c, 1, 30, 127
2, 83320, Note_on_c, 1, 42, 127
2, 83320, Note_on_c, 1, 49, 127
2, 83320, Note_on_c, 1, 54, 127
2, 83320, Note_on_c, 1, 58, 127
2, 83320, Note_on_c, 1, 61, 127
2, 83320, Note_on_c, 1, 66, 127
2, 85480, Note_off_c, 1, 30, 0
2, 85480, Note_off_c, 1, 42, 0
2, 85480, Note_off_c, 1, 49, 0
2, 85480, Note_off_c, 1, 54, 0
2, 85480, Note_off_c, 1, 58, 0
2, 85480, Note_off_c, 1, 61, 0
2, 85480, Note_off_c, 1, 66, 0
2, 85520, Note_on_c, 1, 30, 127
2, 85520, Note_on_c, 1, 42, 127
2, 85520, Note_on_c, 1, 49, 127
2, 85520, Note_on_c, 1, 54, 127
2, 85520, Note_on_c, 1, 58, 127
2, 85520, Note_on_c, 1, 61, 127
2, 85520, Note_on_c, 1, 66, 127
2, 87520, Note_off_c, 1, 30, 0
2, 87520, Note_off_c, 1, 42, 0
2, 87520, Note_off_c, 1, 49, 0
2, 87520, Note_off_c, 1, 54, 0
2, 87520, Note_off_c, 1, 58, 0
2, 87520, Note_off_c, 1, 61, 0
2, 87520, Note_off_c, 1, 66, 0
2, 87560, Note_on_c, 1, 30, 127
2, 87560, Note_on_c, 1, 42, 127
2, 87560, Note_on_c, 1, 49, 127
2, 87560, Note_on_c, 1, 54, 127
2, 87560, Note_on_c, 1, 58, 127
2, 87560, Note_on_c, 1, 61, 127
2, 87560, Note_on_c, 1, 66, 127
2, 89560, Note_off_c, 1, 30, 0
2, 89560, Note_off_c, 1, 42, 0
2, 89560, Note_off_c, 1, 49, 0
2, 89560, Note_off_c, 1, 54, 0
2, 89560, Note_off_c, 1, 58, 0
2, 89560, Note_off_c, 1, 61, 0
2, 89560, Note_off_c, 1, 66, 0
2, 89600, Note_on_c, 1, 30, 127
2, 89600, Note_on_c, 1, 42, 127
2, 89600, Note_on_c, 1, 49, 127
2, 89600, Note_on_c, 1, 54, 127
2, 89600, Note_on_c, 1, 58, 127
2, 89600, Note_on_c, 1, 61, 127
2, 89600, Note_on_c, 1, 66, 127
2, 91320, Note_off_c, 1, 30, 0
2, 91320, Note_off_c, 1, 42, 0
2, 91320, Note_off_c, 1, 49, 0
2, 91320, Note_off_c, 1, 54, 0
2, 91320, Note_off_c, 1, 58, 0
2, 91320, Note_off_c, 1, 61, 0
2, 91320, Note_off_c, 1, 66, 0
2, 92680, Note_on_c, 1, 54, 127
2, 93200, Note_off_c, 1, 54, 0
2, 93240, Note_on_c, 1, 47, 127
2, 93480, Note_off_c, 1, 47, 0
2, 93520, Note_on_c, 1, 47, 127
2, 93720, Note_off_c, 1, 47, 0
2, 93760, Note_on_c, 1, 54, 127
2, 94000, Note_off_c, 1, 54, 0
2, 94040, Note_on_c, 1, 51, 127
2, 94280, Note_off_c, 1, 51, 0
2, 94320, Note_on_c, 1, 54, 127
2, 94560, Note_off_c, 1, 54, 0
2, 94600, Note_on_c, 1, 47, 127
2, 94840, Note_off_c, 1, 47, 0
2, 94880, Note_on_c, 1, 46, 127
2, 95120, Note_off_c, 1, 46, 0
2, 95200, Note_on_c, 1, 52, 127
2, 95440, Note_off_c, 1, 52, 0
2, 95480, Note_on_c, 1, 47, 127
2, 95720, Note_off_c, 1, 47, 0
2, 95760, Note_on_c, 1, 49, 127
2, 95960, Note_off_c, 1, 49, 0
2, 96000, Note_on_c, 1, 53, 127
2, 96240, Note_off_c, 1, 53, 0
2, 96280, Note_on_c, 1, 52, 127
2, 96520, Note_off_c, 1, 52, 0
2, 96560, Note_on_c, 1, 61, 127
2, 96800, Note_off_c, 1, 61, 0
2, 96840, Note_on_c, 1, 69, 127
2, 97080, Note_off_c, 1, 69, 0
2, 97120, Note_on_c, 1, 69, 127
2, 97120, Note_on_c, 1, 85, 127
2, 97360, Note_off_c, 1, 69, 0
2, 97360, Note_off_c, 1, 85, 0
2, 97440, Note_on_c, 1, 61, 127
2, 97680, Note_off_c, 1, 61, 0
2, 97720, Note_on_c, 1, 68, 127
2, 97720, Note_on_c, 1, 83, 127
2, 97920, Note_off_c, 1, 83, 0
2, 97960, Note_on_c, 1, 92, 127
2, 98120, Note_off_c, 1, 92, 0
2, 98160, Note_on_c, 1, 92, 127
2, 98200, Note_off_c, 1, 68, 0
2, 98200, Note_off_c, 1, 92, 0
2, 98240, Note_on_c, 1, 66, 127
2, 98240, Note_on_c, 1, 94, 127
2, 98480, Note_off_c, 1, 66, 0
2, 98520, Note_on_c, 1, 70, 127
2, 98760, Note_off_c, 1, 70, 0
2, 98800, Note_on_c, 1, 59, 127
2, 98800, Note_on_c, 1, 63, 127
2, 98800, Note_on_c, 1, 68, 127
2, 98800, Note_off_c, 1, 94, 0
2, 98800, Note_on_c, 1, 96, 127
2, 98880, Note_off_c, 1, 96, 0
2, 99280, Note_off_c, 1, 59, 0
2, 99280, Note_off_c, 1, 63, 0
2, 99280, Note_off_c, 1, 68, 0
2, 99320, Note_on_c, 1, 54, 127
2, 99520, Note_off_c, 1, 54, 0
2, 99640, Note_on_c, 1, 51, 127
2, 99840, Note_off_c, 1, 51, 0
2, 99880, Note_on_c, 1, 59, 127
2, 100120, Note_off_c, 1, 59, 0
2, 100160, Note_on_c, 1, 58, 127
2, 100400, Note_off_c, 1, 58, 0
2, 100440, Note_on_c, 1, 59, 127
2, 100680, Note_off_c, 1, 59, 0
2, 100720, Note_on_c, 1, 58, 127
2, 100960, Note_off_c, 1, 58, 0
2, 101000, Note_on_c, 1, 52, 127
2, 101000, Note_on_c, 1, 70, 127
2, 101240, Note_off_c, 1, 52, 0
2, 101280, Note_on_c, 1, 58, 127
2, 101480, Note_off_c, 1, 58, 0
2, 101480, Note_off_c, 1, 70, 0
2, 101520, Note_on_c, 1, 51, 127
2, 101520, Note_on_c, 1, 79, 127
2, 101720, Note_off_c, 1, 51, 0
2, 101720, Note_off_c, 1, 79, 0
2, 101760, Note_on_c, 1, 51, 127
2, 101760, Note_on_c, 1, 79, 127
2, 101800, Note_off_c, 1, 51, 0
2, 101840, Note_on_c, 1, 58, 127
2, 102080, Note_off_c, 1, 58, 0
2, 102080, Note_off_c, 1, 79, 0
2, 102120, Note_on_c, 1, 39, 127
2, 102120, Note_on_c, 1, 80, 127
2, 102320, Note_off_c, 1, 39, 0
2, 102360, Note_on_c, 1, 51, 127
2, 102600, Note_off_c, 1, 51, 0
2, 102640, Note_on_c, 1, 47, 127
2, 102880, Note_off_c, 1, 47, 0
2, 102920, Note_on_c, 1, 51, 127
2, 103120, Note_off_c, 1, 51, 0
2, 103160, Note_on_c, 1, 52, 127
2, 103400, Note_off_c, 1, 52, 0
2, 103400, Note_off_c, 1, 80, 0
2, 103440, Note_on_c, 1, 45, 127
2, 103440, Note_on_c, 1, 78, 127
2, 103680, Note_off_c, 1, 45, 0
2, 103720, Note_on_c, 1, 54, 127
2, 103920, Note_off_c, 1, 54, 0
2, 103920, Note_off_c, 1, 78, 0
2, 103960, Note_on_c, 1, 54, 127
2, 103960, Note_on_c, 1, 78, 127
2, 104000, Note_off_c, 1, 54, 0
2, 104040, Note_on_c, 1, 60, 127
2, 104240, Note_off_c, 1, 60, 0
2, 104280, Note_on_c, 1, 51, 127
2, 104520, Note_off_c, 1, 51, 0
2, 104560, Note_on_c, 1, 60, 127
2, 104800, Note_off_c, 1, 60, 0
2, 104800, Note_off_c, 1, 78, 0
2, 104840, Note_on_c, 1, 54, 127
2, 104840, Note_on_c, 1, 76, 127
2, 104840, Note_on_c, 1, 78, 127
2, 104880, Note_off_c, 1, 78, 0
2, 105040, Note_off_c, 1, 54, 0
2, 105080, Note_on_c, 1, 54, 127
2, 105320, Note_off_c, 1, 54, 0
2, 105320, Note_off_c, 1, 76, 0
2, 105360, Note_on_c, 1, 47, 127
2, 105360, Note_on_c, 1, 75, 127
2, 105600, Note_off_c, 1, 47, 0
2, 105640, Note_on_c, 1, 46, 127
2, 105840, Note_off_c, 1, 46, 0
2, 105840, Note_off_c, 1, 75, 0
2, 105880, Note_on_c, 1, 46, 127
2, 105880, Note_on_c, 1, 86, 127
2, 105880, Note_on_c, 1, 91, 127
2, 105960, Note_off_c, 1, 46, 0
2, 105960, Note_off_c, 1, 86, 0
2, 105960, Note_off_c, 1, 91, 0
2, 106000, Note_on_c, 1, 41, 127
2, 106000, Note_on_c, 1, 45, 127
2, 106000, Note_on_c, 1, 61, 127
2, 106000, Note_on_c, 1, 64, 127
2, 106000, Note_on_c, 1, 67, 127
2, 106000, Note_on_c, 1, 69, 127
2, 106040, Note_off_c, 1, 41, 0
2, 106040, Note_off_c, 1, 45, 0
2, 106040, Note_on_c, 1, 46, 127
2, 106040, Note_off_c, 1, 61, 0
2, 106040, Note_off_c, 1, 64, 0
2, 106040, Note_off_c, 1, 67, 0
2, 106040, Note_off_c, 1, 69, 0
2, 106040, Note_on_c, 1, 86, 127
2, 106080, Note_off_c, 1, 46, 0
2, 106080, Note_on_c, 1, 47, 127
2, 106080, Note_on_c, 1, 57, 127
2, 106080, Note_off_c, 1, 86, 0
2, 106080, Note_on_c, 1, 87, 127
2, 106120, Note_on_c, 1, 46, 127
2, 106120, Note_off_c, 1, 47, 0
2, 106120, Note_off_c, 1, 57, 0
2, 106120, Note_on_c, 1, 80, 127
2, 106120, Note_off_c, 1, 87, 0
2, 106160, Note_off_c, 1, 80, 0
2, 106160, Note_on_c, 1, 86, 127
2, 106440, Note_off_c, 1, 46, 0
2, 106440, Note_off_c, 1, 86, 0
2, 106480, Note_on_c, 1, 60, 127
2, 106480, Note_on_c, 1, 68, 127
2, 106480, Note_on_c, 1, 72, 127
2, 106480, Note_on_c, 1, 80, 127
2, 106480, Note_on_c, 1, 84, 127
2, 106720, Note_off_c, 1, 60, 0
2, 106720, Note_off_c, 1, 68, 0
2, 106720, Note_off_c, 1, 72, 0
2, 106720, Note_off_c, 1, 80, 0
2, 106720, Note_off_c, 1, 84, 0
2, 106760, Note_on_c, 1, 48, 127
2, 106760, Note_on_c, 1, 53, 127
2, 106760, Note_on_c, 1, 56, 127
2, 106760, Note_on_c, 1, 59, 127
2, 106760, Note_on_c, 1, 62, 127
2, 106760, Note_on_c, 1, 65, 127
2, 106760, Note_on_c, 1, 68, 127
2, 106760, Note_on_c, 1, 71, 127
2, 106760, Note_on_c, 1, 74, 127
2, 106800, Note_on_c, 1, 37, 127
2, 106800, Note_off_c, 1, 53, 0
2, 106800, Note_off_c, 1, 56, 0
2, 106800, Note_off_c, 1, 59, 0
2, 106800, Note_off_c, 1, 62, 0
2, 106800, Note_on_c, 1, 63, 127
2, 106800, Note_off_c, 1, 65, 0
2, 106800, Note_off_c, 1, 68, 0
2, 106800, Note_off_c, 1, 71, 0
2, 106800, Note_off_c, 1, 74, 0
2, 106800, Note_on_c, 1, 78, 127
2, 106960, Note_off_c, 1, 37, 0
2, 106960, Note_off_c, 1, 48, 0
2, 106960, Note_off_c, 1, 63, 0
2, 106960, Note_off_c, 1, 78, 0
2, 107000, Note_on_c, 1, 53, 127
2, 107000, Note_on_c, 1, 68, 127
2, 107000, Note_on_c, 1, 80, 127
2, 107240, Note_off_c, 1, 53, 0
2, 107240, Note_off_c, 1, 68, 0
2, 107240, Note_off_c, 1, 80, 0
2, 107280, Note_on_c, 1, 49, 127
2, 107280, Note_on_c, 1, 77, 127
2, 107480, Note_off_c, 1, 49, 0
2, 107480, Note_off_c, 1, 77, 0
2, 107520, Note_on_c, 1, 53, 127
2, 107520, Note_on_c, 1, 70, 127
2, 107520, Note_on_c, 1, 73, 127
2, 107760, Note_off_c, 1, 53, 0
2, 107760, Note_off_c, 1, 70, 0
2, 107760, Note_off_c, 1, 73, 0
2, 107800, Note_on_c, 1, 32, 127
2, 107800, Note_on_c, 1, 66, 127
2, 107800, Note_on_c, 1, 72, 127
2, 107960, Note_off_c, 1, 32, 0
2, 107960, Note_off_c, 1, 66, 0
2, 107960, Note_off_c, 1, 72, 0
2, 108000, Note_on_c, 1, 32, 127
2, 108000, Note_on_c, 1, 66, 127
2, 108000, Note_on_c, 1, 72, 127
2, 108080, Note_off_c, 1, 32, 0
2, 108080, Note_off_c, 1, 72, 0
2, 108120, Note_on_c, 1, 37, 127
2, 108120, Note_on_c, 1, 65, 127
2, 108120, Note_off_c, 1, 66, 0
2, 108120, Note_on_c, 1, 73, 127
2, 108360, Note_off_c, 1, 37, 0
2, 108400, Note_on_c, 1, 56, 127
2, 108600, Note_off_c, 1, 56, 0
2, 108600, Note_off_c, 1, 65, 0
2, 108600, Note_off_c, 1, 73, 0
2, 108640, Note_on_c, 1, 55, 127
2, 108880, Note_off_c, 1, 55, 0
2, 108920, Note_on_c, 1, 37, 127
2, 108920, Note_on_c, 1, 68, 127
2, 109160, Note_off_c, 1, 37, 0
2, 109200, Note_on_c, 1, 44, 127
2, 109400, Note_off_c, 1, 44, 0
2, 109440, Note_on_c, 1, 53, 127
2, 109680, Note_off_c, 1, 53, 0
2, 109680, Note_off_c, 1, 68, 0
2, 109720, Note_on_c, 1, 59, 127
2, 109720, Note_on_c, 1, 77, 127
2, 109960, Note_off_c, 1, 59, 0
2, 110000, Note_off_c, 1, 77, 0
2, 110040, Note_on_c, 1, 56, 127
2, 110040, Note_on_c, 1, 77, 127
2, 110240, Note_off_c, 1, 56, 0
2, 110280, Note_on_c, 1, 61, 127
2, 110520, Note_off_c, 1, 61, 0
2, 110520, Note_off_c, 1, 77, 0
2, 110560, Note_on_c, 1, 54, 127
2, 110560, Note_on_c, 1, 63, 127
2, 110560, Note_on_c, 1, 70, 127
2, 110800, Note_off_c, 1, 54, 0
2, 110800, Note_off_c, 1, 70, 0
2, 110840, Note_on_c, 1, 68, 127
2, 110840, Note_on_c, 1, 73, 127
2, 110840, Note_on_c, 1, 79, 127
2, 111040, Note_off_c, 1, 68, 0
2, 111040, Note_off_c, 1, 73, 0
2, 111040, Note_off_c, 1, 79, 0
2, 111080, Note_on_c, 1, 56, 127
2, 111080, Note_on_c, 1, 59, 127
2, 111080, Note_off_c, 1, 63, 0
2, 111080, Note_on_c, 1, 71, 127
2, 111320, Note_off_c, 1, 56, 0
2, 111320, Note_off_c, 1, 59, 0
2, 111320, Note_off_c, 1, 71, 0
2, 111360, Note_on_c, 1, 56, 127
2, 111360, Note_on_c, 1, 64, 127
2, 111360, Note_on_c, 1, 71, 127
2, 111600, Note_off_c, 1, 56, 0
2, 111600, Note_off_c, 1, 64, 0
2, 111600, Note_off_c, 1, 71, 0
2, 111640, Note_on_c, 1, 39, 127
2, 111640, Note_on_c, 1, 63, 127
2, 111640, Note_on_c, 1, 67, 127
2, 111840, Note_off_c, 1, 39, 0
2, 111840, Note_off_c, 1, 63, 0
2, 111880, Note_on_c, 1, 51, 127
2, 111880, Note_on_c, 1, 58, 127
2, 112120, Note_off_c, 1, 51, 0
2, 112160, Note_off_c, 1, 58, 0
2, 112160, Note_off_c, 1, 67, 0
2, 112200, Note_on_c, 1, 51, 127
2, 112200, Note_on_c, 1, 59, 127
2, 112200, Note_on_c, 1, 67, 127
2, 112440, Note_off_c, 1, 51, 0
2, 112440, Note_off_c, 1, 59, 0
2, 112440, Note_off_c, 1, 67, 0
2, 112480, Note_on_c, 1, 56, 127
2, 112480, Note_on_c, 1, 59, 127
2, 112480, Note_on_c, 1, 71, 127
2, 112680, Note_off_c, 1, 56, 0
2, 112680, Note_off_c, 1, 59, 0
2, 112680, Note_off_c, 1, 71, 0
2, 112720, Note_on_c, 1, 54, 127
2, 112720, Note_on_c, 1, 63, 127
2, 112720, Note_on_c, 1, 68, 127
2, 112960, Note_off_c, 1, 68, 0
2, 113000, Note_on_c, 1, 66, 127
2, 113200, Note_off_c, 1, 54, 0
2, 113200, Note_off_c, 1, 63, 0
2, 113200, Note_off_c, 1, 66, 0
2, 113240, Note_on_c, 1, 49, 127
2, 113240, Note_on_c, 1, 70, 127
2, 113480, Note_off_c, 1, 49, 0
2, 113520, Note_on_c, 1, 54, 127
2, 113520, Note_on_c, 1, 58, 127
2, 113760, Note_off_c, 1, 54, 0
2, 113760, Note_off_c, 1, 58, 0
2, 113800, Note_on_c, 1, 54, 127
2, 114000, Note_off_c, 1, 54, 0
2, 114000, Note_off_c, 1, 70, 0
2, 114040, Note_on_c, 1, 58, 127
2, 114040, Note_on_c, 1, 66, 127
2, 114200, Note_off_c, 1, 58, 0
2, 114200, Note_off_c, 1, 66, 0
2, 114240, Note_on_c, 1, 58, 127
2, 114240, Note_on_c, 1, 66, 127
2, 114320, Note_off_c, 1, 58, 0
2, 114320, Note_off_c, 1, 66, 0
2, 114360, Note_on_c, 1, 59, 127
2, 114360, Note_on_c, 1, 63, 127
2, 114360, Note_on_c, 1, 68, 127
2, 114560, Note_off_c, 1, 59, 0
2, 114560, Note_off_c, 1, 63, 0
2, 114600, Note_on_c, 1, 59, 127
2, 114600, Note_on_c, 1, 63, 127
2, 114840, Note_off_c, 1, 59, 0
2, 114840, Note_off_c, 1, 63, 0
2, 114840, Note_off_c, 1, 68, 0
2, 114880, Note_on_c, 1, 54, 127
2, 114880, Note_on_c, 1, 70, 127
2, 115120, Note_off_c, 1, 54, 0
2, 115120, Note_off_c, 1, 70, 0
2, 115160, Note_on_c, 1, 53, 127
2, 115160, Note_on_c, 1, 68, 127
2, 115400, Note_off_c, 1, 53, 0
2, 115400, Note_off_c, 1, 68, 0
2, 115440, Note_on_c, 1, 40, 127
2, 115440, Note_on_c, 1, 52, 127
2, 115440, Note_on_c, 1, 68, 127
2, 115640, Note_off_c, 1, 40, 0
2, 115640, Note_off_c, 1, 52, 0
2, 115640, Note_on_c, 1, 64, 127
2, 115640, Note_off_c, 1, 68, 0
2, 115680, Note_on_c, 1, 54, 127
2, 115920, Note_off_c, 1, 54, 0
2, 115960, Note_on_c, 1, 58, 127
2, 116200, Note_off_c, 1, 58, 0
2, 116240, Note_off_c, 1, 64, 0
2, 116280, Note_on_c, 1, 58, 127
2, 116280, Note_on_c, 1, 64, 127
2, 116480, Note_off_c, 1, 58, 0
2, 116480, Note_off_c, 1, 64, 0
2, 116520, Note_on_c, 1, 56, 127
2, 116520, Note_on_c, 1, 59, 127
2, 116760, Note_off_c, 1, 56, 0
2, 116760, Note_off_c, 1, 59, 0
2, 116800, Note_on_c, 1, 59, 127
2, 116800, Note_on_c, 1, 66, 127
2, 117040, Note_off_c, 1, 59, 0
2, 117040, Note_off_c, 1, 66, 0
2, 117080, Note_on_c, 1, 51, 127
2, 117080, Note_on_c, 1, 58, 127
2, 117080, Note_on_c, 1, 61, 127
2, 117080, Note_on_c, 1, 63, 127
2, 117280, Note_off_c, 1, 58, 0
2, 117280, Note_off_c, 1, 61, 0
2, 117280, Note_off_c, 1, 63, 0
2, 117360, Note_on_c, 1, 58, 127
2, 117560, Note_off_c, 1, 58, 0
2, 117600, Note_on_c, 1, 57, 127
2, 117840, Note_off_c, 1, 51, 0
2, 117840, Note_off_c, 1, 57, 0
2, 117880, Note_on_c, 1, 54, 127
2, 117880, Note_on_c, 1, 60, 127
2, 118120, Note_off_c, 1, 54, 0
2, 118120, Note_off_c, 1, 60, 0
2, 118160, Note_on_c, 1, 63, 127
2, 118400, Note_off_c, 1, 63, 0
2, 118480, Note_on_c, 1, 63, 127
2, 118680, Note_off_c, 1, 63, 0
2, 118720, Note_on_c, 1, 44, 127
2, 118720, Note_on_c, 1, 63, 127
2, 118920, Note_off_c, 1, 44, 0
2, 119000, Note_on_c, 1, 44, 127
2, 119200, Note_off_c, 1, 44, 0
2, 119240, Note_on_c, 1, 51, 127
2, 119440, Note_off_c, 1, 51, 0
2, 119520, Note_on_c, 1, 44, 127
2, 119760, Note_off_c, 1, 44, 0
2, 119800, Note_on_c, 1, 51, 127
2, 120000, Note_off_c, 1, 51, 0
2, 120000, Note_off_c, 1, 63, 0
2, 120040, End_track
3, 0, Start_track
3, 0, Title_t, "MIDI"
3, 1536, End_track
0, 0, End_of_file
