0, 0, Header, 1, 3, 192
1, 0, Start_track
1, 0, Time_signature, 4, 2, 24, 8
1, 0, Tempo, 500000
1, 120040, End_track
2, 0, Start_track
2, 0, Text_t, "random instrument: random person i dunno whatev"
2, 0, Title_t, "Track 1"
2, 0, Note_on_c, 1, 40, 127
2, 0, Note_on_c, 1, 48, 127
2, 0, Note_on_c, 1, 56, 127
2, 0, Note_on_c, 1, 60, 127
2, 160, Note_off_c, 1, 40, 0
2, 160, Note_off_c, 1, 48, 0
2, 160, Note_off_c, 1, 56, 0
2, 160, Note_off_c, 1, 60, 0
2, 14960, Note_on_c, 1, 35, 127
2, 15040, Note_off_c, 1, 35, 0
2, 15080, Note_on_c, 1, 35, 127
2, 15120, Note_off_c, 1, 35, 0
2, 15160, Note_on_c, 1, 40, 127
2, 15200, Note_off_c, 1, 40, 0
2, 15560, Note_on_c, 1, 52, 127
2, 15560, Note_on_c, 1, 55, 127
2, 15560, Note_on_c, 1, 59, 127
2, 15560, Note_on_c, 1, 64, 127
2, 16960, Note_off_c, 1, 52, 0
2, 16960, Note_off_c, 1, 55, 0
2, 16960, Note_off_c, 1, 59, 0
2, 16960, Note_off_c, 1, 64, 0
2, 17000, Note_on_c, 1, 52, 127
2, 17000, Note_on_c, 1, 55, 127
2, 17000, Note_on_c, 1, 59, 127
2, 17000, Note_on_c, 1, 64, 127
2, 19760, Note_off_c, 1, 52, 0
2, 19760, Note_off_c, 1, 55, 0
2, 19760, Note_off_c, 1, 59, 0
2, 19760, Note_off_c, 1, 64, 0
2, 19800, Note_on_c, 1, 52, 127
2, 19800, Note_on_c, 1, 55, 127
2, 19800, Note_on_c, 1, 59, 127
2, 19800, Note_on_c, 1, 64, 127
2, 20520, Note_off_c, 1, 52, 0
2, 20520, Note_off_c, 1, 55, 0
2, 20520, Note_off_c, 1, 59, 0
2, 20520, Note_off_c, 1, 64, 0
2, 32600, Note_on_c, 1, 57, 127
2, 32600, Note_on_c, 1, 73, 127
2, 32960, Note_off_c, 1, 57, 0
2, 32960, Note_off_c, 1, 73, 0
2, 33040, Note_on_c, 1, 60, 127
2, 33040, Note_on_c, 1, 69, 127
2, 34560, Note_off_c, 1, 60, 0
2, 34560, Note_off_c, 1, 69, 0
2, 36800, Note_on_c, 1, 45, 127
2, 36800, Note_on_c, 1, 49, 127
2, 37160, Note_off_c, 1, 49, 0
2, 37520, Note_off_c, 1, 45, 0
2, 37560, Note_on_c, 1, 47, 127
2, 37560, Note_on_c, 1, 51, 127
2, 37560, Note_on_c, 1, 54, 127
2, 37560, Note_on_c, 1, 59, 127
2, 38320, Note_off_c, 1, 47, 0
2, 38320, Note_off_c, 1, 51, 0
2, 38320, Note_off_c, 1, 54, 0
2, 38320, Note_off_c, 1, 59, 0
2, 38360, Note_on_c, 1, 47, 127
2, 38360, Note_on_c, 1, 51, 127
2, 38360, Note_on_c, 1, 54, 127
2, 38360, Note_on_c, 1, 59, 127
2, 38680, Note_off_c, 1, 47, 0
2, 38680, Note_off_c, 1, 51, 0
2, 38680, Note_off_c, 1, 54, 0
2, 38680, Note_off_c, 1, 59, 0
2, 38720, Note_on_c, 1, 47, 127
2, 38720, Note_on_c, 1, 63, 127
2, 38720, Note_on_c, 1, 66, 127
2, 39240, Note_off_c, 1, 63, 0
2, 39240, Note_off_c, 1, 66, 0
2, 39280, Note_on_c, 1, 59, 127
2, 39840, Note_off_c, 1, 47, 0
2, 39840, Note_off_c, 1, 59, 0
2, 39880, Note_on_c, 1, 40, 127
2, 40480, Note_off_c, 1, 40, 0
2, 40520, Note_on_c, 1, 40, 127
2, 40640, Note_off_c, 1, 40, 0
2, 40680, Note_on_c, 1, 47, 127
2, 41000, Note_off_c, 1, 47, 0
2, 41080, Note_on_c, 1, 47, 127
2, 41400, Note_off_c, 1, 47, 0
2, 41440, Note_on_c, 1, 52, 127
2, 41800, Note_off_c, 1, 52, 0
2, 41840, Note_on_c, 1, 47, 127
2, 42160, Note_off_c, 1, 47, 0
2, 42200, Note_on_c, 1, 54, 127
2, 42560, Note_off_c, 1, 54, 0
2, 42600, Note_on_c, 1, 59, 127
2, 42920, Note_off_c, 1, 59, 0
2, 42960, Note_on_c, 1, 59, 127
2, 43000, Note_off_c, 1, 59, 0
2, 43040, Note_on_c, 1, 57, 127
2, 43400, Note_off_c, 1, 57, 0
2, 43440, Note_on_c, 1, 59, 127
2, 43760, Note_off_c, 1, 59, 0
2, 43800, Note_on_c, 1, 64, 127
2, 44160, Note_off_c, 1, 64, 0
2, 44200, Note_on_c, 1, 62, 127
2, 44520, Note_off_c, 1, 62, 0
2, 44560, Note_on_c, 1, 59, 127
2, 44960, Note_off_c, 1, 59, 0
2, 45000, Note_on_c, 1, 59, 127
2, 45320, Note_off_c, 1, 59, 0
2, 45360, Note_on_c, 1, 54, 127
2, 46080, Note_off_c, 1, 54, 0
2, 46120, Note_on_c, 1, 59, 127
2, 46480, Note_off_c, 1, 59, 0
2, 46520, Note_on_c, 1, 62, 127
2, 46840, Note_off_c, 1, 62, 0
2, 46880, Note_on_c, 1, 59, 127
2, 47080, Note_off_c, 1, 59, 0
2, 47120, Note_on_c, 1, 59, 127
2, 47280, Note_off_c, 1, 59, 0
2, 47320, Note_on_c, 1, 59, 127
2, 47640, Note_off_c, 1, 59, 0
2, 47680, Note_on_c, 1, 57, 127
2, 48040, Note_off_c, 1, 57, 0
2, 48080, Note_on_c, 1, 50, 127
2, 48400, Note_off_c, 1, 50, 0
2, 48440, Note_on_c, 1, 59, 127
2, 48760, Note_off_c, 1, 59, 0
2, 48840, Note_on_c, 1, 62, 127
2, 49160, Note_off_c, 1, 62, 0
2, 49200, Note_on_c, 1, 60, 127
2, 49440, Note_off_c, 1, 60, 0
2, 49480, Note_on_c, 1, 60, 127
2, 49600, Note_off_c, 1, 60, 0
2, 49640, Note_on_c, 1, 59, 127
2, 49960, Note_off_c, 1, 59, 0
2, 50000, Note_on_c, 1, 57, 127
2, 50360, Note_off_c, 1, 57, 0
2, 50400, Note_on_c, 1, 59, 127
2, 50720, Note_off_c, 1, 59, 0
2, 50760, Note_on_c, 1, 57, 127
2, 51120, Note_off_c, 1, 57, 0
2, 51160, Note_on_c, 1, 50, 127
2, 51480, Note_off_c, 1, 50, 0
2, 51520, Note_on_c, 1, 54, 127
2, 51880, Note_off_c, 1, 54, 0
2, 51960, Note_on_c, 1, 50, 127
2, 52280, Note_off_c, 1, 50, 0
2, 52320, Note_on_c, 1, 52, 127
2, 52680, Note_off_c, 1, 52, 0
2, 52720, Note_on_c, 1, 55, 127
2, 53440, Note_off_c, 1, 55, 0
2, 53480, Note_on_c, 1, 59, 127
2, 53800, Note_off_c, 1, 59, 0
2, 53840, Note_on_c, 1, 60, 127
2, 54120, Note_off_c, 1, 60, 0
2, 54160, Note_on_c, 1, 60, 127
2, 54240, Note_off_c, 1, 60, 0
2, 54280, Note_on_c, 1, 59, 127
2, 54600, Note_off_c, 1, 59, 0
2, 54640, Note_on_c, 1, 64, 127
2, 55000, Note_off_c, 1, 64, 0
2, 55040, Note_on_c, 1, 66, 127
2, 55360, Note_off_c, 1, 66, 0
2, 55400, Note_on_c, 1, 64, 127
2, 56120, Note_off_c, 1, 64, 0
2, 56200, Note_on_c, 1, 66, 127
2, 56520, Note_off_c, 1, 66, 0
2, 56560, Note_on_c, 1, 64, 127
2, 56880, Note_off_c, 1, 64, 0
2, 56920, Note_on_c, 1, 66, 127
2, 57280, Note_off_c, 1, 66, 0
2, 57320, Note_on_c, 1, 67, 127
2, 57640, Note_off_c, 1, 67, 0
2, 57680, Note_on_c, 1, 69, 127
2, 58000, Note_off_c, 1, 69, 0
2, 58040, Note_on_c, 1, 71, 127
2, 58280, Note_off_c, 1, 71, 0
2, 58320, Note_on_c, 1, 71, 127
2, 58440, Note_off_c, 1, 71, 0
2, 58480, Note_on_c, 1, 74, 127
2, 58800, Note_off_c, 1, 74, 0
2, 58840, Note_on_c, 1, 73, 127
2, 59200, Note_off_c, 1, 73, 0
2, 59240, Note_on_c, 1, 57, 127
2, 59240, Note_on_c, 1, 73, 127
2, 59560, Note_off_c, 1, 57, 0
2, 59560, Note_off_c, 1, 73, 0
2, 59600, Note_on_c, 1, 62, 127
2, 59600, Note_on_c, 1, 71, 127
2, 59920, Note_off_c, 1, 62, 0
2, 59920, Note_off_c, 1, 71, 0
2, 59960, Note_on_c, 1, 64, 127
2, 59960, Note_on_c, 1, 79, 127
2, 60320, Note_off_c, 1, 64, 0
2, 60320, Note_off_c, 1, 79, 0
2, 60400, Note_on_c, 1, 53, 127
2, 60400, Note_on_c, 1, 57, 127
2, 60400, Note_on_c, 1, 62, 127
2, 60400, Note_on_c, 1, 81, 127
2, 60720, Note_off_c, 1, 81, 0
2, 60760, Note_on_c, 1, 81, 127
2, 60920, Note_off_c, 1, 81, 0
2, 60960, Note_on_c, 1, 81, 127
2, 61080, Note_off_c, 1, 53, 0
2, 61080, Note_off_c, 1, 57, 0
2, 61080, Note_off_c, 1, 62, 0
2, 61080, Note_on_c, 1, 74, 127
2, 61080, Note_off_c, 1, 81, 0
2, 61280, Note_off_c, 1, 74, 0
2, 61320, Note_on_c, 1, 73, 127
2, 61480, Note_off_c, 1, 73, 0
2, 61520, Note_on_c, 1, 71, 127
2, 61840, Note_off_c, 1, 71, 0
2, 61880, Note_on_c, 1, 45, 127
2, 61880, Note_on_c, 1, 69, 127
2, 62240, Note_off_c, 1, 45, 0
2, 62280, Note_off_c, 1, 69, 0
2, 62320, Note_on_c, 1, 52, 127
2, 62320, Note_on_c, 1, 61, 127
2, 62320, Note_on_c, 1, 69, 127
2, 63040, Note_off_c, 1, 52, 0
2, 63040, Note_off_c, 1, 61, 0
2, 63040, Note_off_c, 1, 69, 0
2, 63080, Note_on_c, 1, 45, 127
2, 63080, Note_on_c, 1, 61, 127
2, 63080, Note_on_c, 1, 69, 127
2, 63400, Note_off_c, 1, 45, 0
2, 63440, Note_on_c, 1, 52, 127
2, 63800, Note_off_c, 1, 52, 0
2, 63840, Note_on_c, 1, 44, 127
2, 64160, Note_off_c, 1, 44, 0
2, 64200, Note_on_c, 1, 52, 127
2, 64280, Note_off_c, 1, 52, 0
2, 64280, Note_off_c, 1, 61, 0
2, 64280, Note_off_c, 1, 69, 0
2, 64320, Note_on_c, 1, 52, 127
2, 64320, Note_on_c, 1, 61, 127
2, 64320, Note_on_c, 1, 69, 127
2, 64600, Note_off_c, 1, 52, 0
2, 64640, Note_on_c, 1, 44, 127
2, 64960, Note_off_c, 1, 44, 0
2, 64960, Note_on_c, 1, 52, 127
2, 65360, Note_off_c, 1, 52, 0
2, 65400, Note_on_c, 1, 44, 127
2, 65720, Note_off_c, 1, 44, 0
2, 65760, Note_on_c, 1, 52, 127
2, 66120, Note_off_c, 1, 52, 0
2, 66160, Note_on_c, 1, 44, 127
2, 66360, Note_off_c, 1, 44, 0
2, 66360, Note_off_c, 1, 61, 0
2, 66360, Note_off_c, 1, 69, 0
2, 66400, Note_on_c, 1, 44, 127
2, 66400, Note_on_c, 1, 61, 127
2, 66400, Note_on_c, 1, 69, 127
2, 66520, Note_off_c, 1, 44, 0
2, 66560, Note_on_c, 1, 52, 127
2, 66920, Note_off_c, 1, 52, 0
2, 66960, Note_on_c, 1, 44, 127
2, 67280, Note_off_c, 1, 44, 0
2, 67320, Note_on_c, 1, 52, 127
2, 68040, Note_off_c, 1, 61, 0
2, 68040, Note_off_c, 1, 69, 0
2, 68080, Note_on_c, 1, 62, 127
2, 68080, Note_on_c, 1, 68, 127
2, 68080, Note_on_c, 1, 71, 127
2, 68480, Note_off_c, 1, 52, 0
2, 68480, Note_off_c, 1, 62, 0
2, 68480, Note_off_c, 1, 68, 0
2, 68480, Note_off_c, 1, 71, 0
2, 68520, Note_on_c, 1, 52, 127
2, 68520, Note_on_c, 1, 62, 127
2, 68520, Note_on_c, 1, 68, 127
2, 68520, Note_on_c, 1, 71, 127
2, 68840, Note_off_c, 1, 52, 0
2, 68840, Note_off_c, 1, 62, 0
2, 68840, Note_off_c, 1, 68, 0
2, 68840, Note_off_c, 1, 71, 0
2, 68880, Note_on_c, 1, 57, 127
2, 68880, Note_on_c, 1, 61, 127
2, 68880, Note_on_c, 1, 69, 127
2, 69600, Note_off_c, 1, 57, 0
2, 69600, Note_off_c, 1, 61, 0
2, 69600, Note_off_c, 1, 69, 0
2, 69640, Note_on_c, 1, 61, 127
2, 69640, Note_on_c, 1, 69, 127
2, 70200, Note_off_c, 1, 61, 0
2, 70200, Note_off_c, 1, 69, 0
2, 70400, Note_on_c, 1, 68, 127
2, 70680, Note_off_c, 1, 68, 0
2, 70800, Note_on_c, 1, 62, 127
2, 70800, Note_on_c, 1, 71, 127
2, 71120, Note_off_c, 1, 62, 0
2, 71120, Note_off_c, 1, 71, 0
2, 71160, Note_on_c, 1, 61, 127
2, 71160, Note_on_c, 1, 69, 127
2, 71520, Note_off_c, 1, 61, 0
2, 71520, Note_off_c, 1, 69, 0
2, 71560, Note_on_c, 1, 64, 127
2, 71560, Note_on_c, 1, 73, 127
2, 71880, Note_off_c, 1, 64, 0
2, 71880, Note_off_c, 1, 73, 0
2, 71920, Note_on_c, 1, 62, 127
2, 71920, Note_on_c, 1, 71, 127
2, 72240, Note_off_c, 1, 62, 0
2, 72240, Note_off_c, 1, 71, 0
2, 72280, Note_on_c, 1, 61, 127
2, 72280, Note_on_c, 1, 69, 127
2, 72600, Note_off_c, 1, 61, 0
2, 72600, Note_off_c, 1, 69, 0
2, 72680, Note_on_c, 1, 62, 127
2, 72680, Note_on_c, 1, 71, 127
2, 72920, Note_off_c, 1, 62, 0
2, 72920, Note_off_c, 1, 71, 0
2, 72960, Note_on_c, 1, 62, 127
2, 72960, Note_on_c, 1, 71, 127
2, 73040, Note_off_c, 1, 62, 0
2, 73040, Note_off_c, 1, 71, 0
2, 73080, Note_on_c, 1, 61, 127
2, 73080, Note_on_c, 1, 69, 127
2, 73400, Note_off_c, 1, 61, 0
2, 73400, Note_off_c, 1, 69, 0
2, 73440, Note_on_c, 1, 62, 127
2, 73440, Note_on_c, 1, 70, 127
2, 73760, Note_off_c, 1, 62, 0
2, 73760, Note_off_c, 1, 70, 0
2, 74720, Note_on_c, 1, 55, 127
2, 74720, Note_on_c, 1, 58, 127
2, 74720, Note_on_c, 1, 62, 127
2, 74720, Note_on_c, 1, 67, 127
2, 74720, Note_on_c, 1, 70, 127
2, 75040, Note_off_c, 1, 55, 0
2, 75040, Note_off_c, 1, 58, 0
2, 75040, Note_off_c, 1, 62, 0
2, 75040, Note_off_c, 1, 67, 0
2, 75040, Note_off_c, 1, 70, 0
2, 75080, Note_on_c, 1, 55, 127
2, 75080, Note_on_c, 1, 58, 127
2, 75080, Note_on_c, 1, 62, 127
2, 75080, Note_on_c, 1, 67, 127
2, 75080, Note_on_c, 1, 70, 127
2, 75880, Note_off_c, 1, 55, 0
2, 75880, Note_off_c, 1, 58, 0
2, 75880, Note_off_c, 1, 62, 0
2, 75880, Note_off_c, 1, 67, 0
2, 75880, Note_off_c, 1, 70, 0
2, 76680, Note_on_c, 1, 54, 127
2, 76680, Note_on_c, 1, 56, 127
2, 76680, Note_on_c, 1, 63, 127
2, 76680, Note_on_c, 1, 68, 127
2, 76680, Note_on_c, 1, 72, 127
2, 77000, Note_off_c, 1, 54, 0
2, 77000, Note_off_c, 1, 56, 0
2, 77000, Note_off_c, 1, 63, 0
2, 77000, Note_off_c, 1, 68, 0
2, 77000, Note_off_c, 1, 72, 0
2, 77080, Note_on_c, 1, 54, 127
2, 77080, Note_on_c, 1, 56, 127
2, 77080, Note_on_c, 1, 63, 127
2, 77080, Note_on_c, 1, 68, 127
2, 77080, Note_on_c, 1, 72, 127
2, 77400, Note_off_c, 1, 54, 0
2, 77400, Note_off_c, 1, 56, 0
2, 77400, Note_off_c, 1, 63, 0
2, 77400, Note_off_c, 1, 68, 0
2, 77400, Note_off_c, 1, 72, 0
2, 77440, Note_on_c, 1, 49, 127
2, 77440, Note_on_c, 1, 56, 127
2, 77440, Note_on_c, 1, 65, 127
2, 77440, Note_on_c, 1, 73, 127
2, 78160, Note_off_c, 1, 49, 0
2, 78160, Note_off_c, 1, 56, 0
2, 78160, Note_off_c, 1, 65, 0
2, 78160, Note_off_c, 1, 73, 0
2, 78600, Note_on_c, 1, 49, 127
2, 78600, Note_on_c, 1, 56, 127
2, 78600, Note_on_c, 1, 65, 127
2, 78600, Note_on_c, 1, 73, 127
2, 79280, Note_off_c, 1, 49, 0
2, 79280, Note_off_c, 1, 56, 0
2, 79280, Note_off_c, 1, 65, 0
2, 79280, Note_off_c, 1, 73, 0
2, 79320, Note_on_c, 1, 49, 127
2, 79320, Note_on_c, 1, 56, 127
2, 79320, Note_on_c, 1, 65, 127
2, 79320, Note_on_c, 1, 73, 127
2, 80880, Note_off_c, 1, 49, 0
2, 80880, Note_off_c, 1, 56, 0
2, 80880, Note_off_c, 1, 65, 0
2, 80880, Note_off_c, 1, 73, 0
2, 82480, Note_on_c, 1, 49, 127
2, 82480, Note_on_c, 1, 56, 127
2, 82480, Note_on_c, 1, 61, 127
2, 82480, Note_on_c, 1, 65, 127
2, 84720, Note_off_c, 1, 49, 0
2, 84720, Note_off_c, 1, 56, 0
2, 84720, Note_off_c, 1, 61, 0
2, 84720, Note_off_c, 1, 65, 0
2, 84800, Note_on_c, 1, 51, 127
2, 84800, Note_on_c, 1, 60, 127
2, 84800, Note_on_c, 1, 68, 127
2, 85880, Note_off_c, 1, 60, 0
2, 85920, Note_on_c, 1, 61, 127
2, 86440, Note_off_c, 1, 68, 0
2, 86480, Note_on_c, 1, 56, 127
2, 86480, Note_off_c, 1, 61, 0
2, 86480, Note_on_c, 1, 63, 127
2, 86480, Note_on_c, 1, 72, 127
2, 86880, Note_off_c, 1, 51, 0
2, 86880, Note_off_c, 1, 56, 0
2, 86880, Note_off_c, 1, 63, 0
2, 86880, Note_off_c, 1, 72, 0
2, 86920, Note_on_c, 1, 51, 127
2, 86920, Note_on_c, 1, 56, 127
2, 86920, Note_on_c, 1, 63, 127
2, 86920, Note_on_c, 1, 72, 127
2, 87040, Note_off_c, 1, 51, 0
2, 87040, Note_off_c, 1, 56, 0
2, 87040, Note_off_c, 1, 63, 0
2, 87040, Note_off_c, 1, 72, 0
2, 87080, Note_on_c, 1, 51, 127
2, 87080, Note_on_c, 1, 55, 127
2, 87080, Note_on_c, 1, 63, 127
2, 87080, Note_on_c, 1, 70, 127
2, 87800, Note_off_c, 1, 51, 0
2, 87800, Note_off_c, 1, 55, 0
2, 87800, Note_off_c, 1, 63, 0
2, 87800, Note_off_c, 1, 70, 0
2, 100240, Note_on_c, 1, 56, 127
2, 100240, Note_on_c, 1, 68, 127
2, 101320, Note_off_c, 1, 56, 0
2, 101320, Note_off_c, 1, 68, 0
2, 101360, Note_on_c, 1, 55, 127
2, 101360, Note_on_c, 1, 67, 127
2, 102920, Note_on_c, 1, 54, 127
2, 102920, Note_off_c, 1, 55, 0
2, 102920, Note_on_c, 1, 66, 127
2, 102920, Note_off_c, 1, 67, 0
2, 103040, Note_off_c, 1, 54, 0
2, 103040, Note_off_c, 1, 66, 0
2, 103080, Note_on_c, 1, 54, 127
2, 103080, Note_on_c, 1, 66, 127
2, 104840, Note_off_c, 1, 54, 0
2, 104840, Note_off_c, 1, 66, 0
2, 104880, Note_on_c, 1, 58, 127
2, 104880, Note_on_c, 1, 70, 127
2, 105520, Note_off_c, 1, 58, 0
2, 105520, Note_off_c, 1, 70, 0
2, 105560, Note_on_c, 1, 58, 127
2, 105560, Note_on_c, 1, 70, 127
2, 106360, Note_off_c, 1, 58, 0
2, 106360, Note_off_c, 1, 70, 0
2, 106400, Note_on_c, 1, 66, 127
2, 106400, Note_on_c, 1, 78, 127
2, 106760, Note_off_c, 1, 66, 0
2, 106760, Note_off_c, 1, 78, 0
2, 106800, Note_on_c, 1, 67, 127
2, 106800, Note_on_c, 1, 79, 127
2, 108080, Note_off_c, 1, 67, 0
2, 108080, Note_off_c, 1, 79, 0
2, 108120, Note_on_c, 1, 67, 127
2, 108120, Note_on_c, 1, 79, 127
2, 108680, Note_off_c, 1, 67, 0
2, 108680, Note_off_c, 1, 79, 0
2, 108720, Note_on_c, 1, 66, 127
2, 108720, Note_on_c, 1, 78, 127
2, 109800, Note_off_c, 1, 66, 0
2, 109800, Note_off_c, 1, 78, 0
2, 109840, Note_on_c, 1, 66, 127
2, 109840, Note_on_c, 1, 78, 127
2, 110160, Note_off_c, 1, 66, 0
2, 110160, Note_off_c, 1, 78, 0
2, 110240, Note_on_c, 1, 65, 127
2, 110240, Note_on_c, 1, 77, 127
2, 110960, Note_off_c, 1, 65, 0
2, 110960, Note_off_c, 1, 77, 0
2, 111000, Note_on_c, 1, 66, 127
2, 111000, Note_on_c, 1, 78, 127
2, 112280, Note_off_c, 1, 66, 0
2, 112280, Note_off_c, 1, 78, 0
2, 112360, Note_on_c, 1, 64, 127
2, 112360, Note_on_c, 1, 76, 127
2, 112680, Note_off_c, 1, 64, 0
2, 112680, Note_off_c, 1, 76, 0
2, 112720, Note_on_c, 1, 61, 127
2, 112720, Note_on_c, 1, 73, 127
2, 113080, Note_off_c, 1, 61, 0
2, 113080, Note_off_c, 1, 73, 0
2, 113120, Note_on_c, 1, 55, 127
2, 113120, Note_on_c, 1, 67, 127
2, 113440, Note_off_c, 1, 55, 0
2, 113440, Note_off_c, 1, 67, 0
2, 113480, Note_on_c, 1, 57, 127
2, 113480, Note_on_c, 1, 69, 127
2, 114200, Note_off_c, 1, 57, 0
2, 114200, Note_off_c, 1, 69, 0
2, 114240, Note_on_c, 1, 53, 127
2, 114240, Note_on_c, 1, 65, 127
2, 114440, Note_off_c, 1, 53, 0
2, 114440, Note_off_c, 1, 65, 0
2, 114480, Note_on_c, 1, 53, 127
2, 114480, Note_on_c, 1, 65, 127
2, 115360, Note_off_c, 1, 53, 0
2, 115360, Note_off_c, 1, 65, 0
2, 115400, Note_on_c, 1, 54, 127
2, 115400, Note_on_c, 1, 66, 127
2, 116120, Note_off_c, 1, 54, 0
2, 116120, Note_off_c, 1, 66, 0
2, 116160, Note_on_c, 1, 53, 127
2, 116160, Note_on_c, 1, 65, 127
2, 116520, Note_off_c, 1, 53, 0
2, 116520, Note_off_c, 1, 65, 0
2, 116560, Note_on_c, 1, 53, 127
2, 116560, Note_on_c, 1, 65, 127
2, 117280, Note_off_c, 1, 53, 0
2, 117280, Note_off_c, 1, 65, 0
2, 117320, Note_on_c, 1, 54, 127
2, 117320, Note_on_c, 1, 66, 127
2, 118040, Note_off_c, 1, 54, 0
2, 118040, Note_off_c, 1, 66, 0
2, 118080, Note_on_c, 1, 51, 127
2, 118080, Note_on_c, 1, 63, 127
2, 118440, Note_off_c, 1, 51, 0
2, 118440, Note_off_c, 1, 63, 0
2, 118480, Note_on_c, 1, 49, 127
2, 118480, Note_on_c, 1, 61, 127
2, 118640, Note_off_c, 1, 49, 0
2, 118640, Note_off_c, 1, 61, 0
2, 118680, Note_on_c, 1, 49, 127
2, 118680, Note_on_c, 1, 61, 127
2, 118840, Note_off_c, 1, 49, 0
2, 118840, Note_off_c, 1, 61, 0
2, 118880, Note_on_c, 1, 46, 127
2, 118880, Note_on_c, 1, 58, 127
2, 119240, Note_off_c, 1, 46, 0
2, 119240, Note_off_c, 1, 58, 0
2, 119280, Note_on_c, 1, 50, 127
2, 119280, Note_on_c, 1, 62, 127
2, 119600, Note_off_c, 1, 50, 0
2, 119600, Note_off_c, 1, 62, 0
2, 119640, Note_on_c, 1, 49, 127
2, 119640, Note_on_c, 1, 61, 127
2, 119960, Note_off_c, 1, 49, 0
2, 119960, Note_off_c, 1, 61, 0
2, 120040, End_track
3, 0, Start_track
3, 0, Title_t, "MIDI"
3, 1536, End_track
0, 0, End_of_file
