0, 0, Header, 1, 3, 192
1, 0, Start_track
1, 0, Time_signature, 4, 2, 24, 8
1, 0, Tempo, 500000
1, 120040, End_track
2, 0, Start_track
2, 0, Text_t, "random instrument: random person i dunno whatev"
2, 0, Title_t, "Track 1"
2, 0, Note_on_c, 1, 40, 127
2, 0, Note_on_c, 1, 48, 127
2, 0, Note_on_c, 1, 56, 127
2, 0, Note_on_c, 1, 60, 127
2, 40, Note_off_c, 1, 40, 0
2, 40, Note_off_c, 1, 48, 0
2, 40, Note_on_c, 1, 55, 127
2, 40, Note_off_c, 1, 56, 0
2, 40, Note_off_c, 1, 60, 0
2, 40, Note_on_c, 1, 72, 127
2, 40, Note_on_c, 1, 75, 127
2, 40, Note_on_c, 1, 79, 127
2, 40, Note_on_c, 1, 84, 127
2, 80, Note_off_c, 1, 55, 0
2, 80, Note_off_c, 1, 72, 0
2, 80, Note_off_c, 1, 75, 0
2, 80, Note_off_c, 1, 79, 0
2, 80, Note_off_c, 1, 84, 0
2, 120, Note_on_c, 1, 40, 127
2, 120, Note_on_c, 1, 48, 127
2, 120, Note_on_c, 1, 56, 127
2, 120, Note_on_c, 1, 60, 127
2, 160, Note_off_c, 1, 40, 0
2, 160, Note_on_c, 1, 41, 127
2, 160, Note_off_c, 1, 48, 0
2, 160, Note_on_c, 1, 50, 127
2, 160, Note_on_c, 1, 53, 127
2, 160, Note_off_c, 1, 56, 0
2, 160, Note_off_c, 1, 60, 0
2, 160, Note_on_c, 1, 81, 127
2, 160, Note_on_c, 1, 86, 127
2, 200, Note_on_c, 1, 35, 127
2, 200, Note_on_c, 1, 39, 127
2, 200, Note_off_c, 1, 41, 0
2, 200, Note_on_c, 1, 47, 127
2, 200, Note_off_c, 1, 53, 0
2, 200, Note_off_c, 1, 81, 0
2, 200, Note_off_c, 1, 86, 0
2, 240, Note_on_c, 1, 34, 127
2, 240, Note_off_c, 1, 35, 0
2, 240, Note_on_c, 1, 46, 127
2, 240, Note_off_c, 1, 47, 0
2, 240, Note_off_c, 1, 50, 0
2, 240, Note_on_c, 1, 73, 127
2, 240, Note_on_c, 1, 75, 127
2, 280, Note_off_c, 1, 34, 0
2, 280, Note_off_c, 1, 39, 0
2, 280, Note_off_c, 1, 46, 0
2, 280, Note_off_c, 1, 73, 0
2, 280, Note_off_c, 1, 75, 0
2, 280, Note_on_c, 1, 76, 127
2, 280, Note_on_c, 1, 80, 127
2, 280, Note_on_c, 1, 83, 127
2, 280, Note_on_c, 1, 89, 127
2, 320, Note_on_c, 1, 34, 127
2, 320, Note_on_c, 1, 39, 127
2, 320, Note_on_c, 1, 46, 127
2, 320, Note_on_c, 1, 73, 127
2, 320, Note_on_c, 1, 75, 127
2, 320, Note_off_c, 1, 76, 0
2, 320, Note_off_c, 1, 80, 0
2, 320, Note_off_c, 1, 83, 0
2, 320, Note_off_c, 1, 89, 0
2, 360, Note_off_c, 1, 34, 0
2, 360, Note_off_c, 1, 39, 0
2, 360, Note_on_c, 1, 42, 127
2, 360, Note_off_c, 1, 46, 0
2, 360, Note_on_c, 1, 49, 127
2, 360, Note_on_c, 1, 56, 127
2, 360, Note_off_c, 1, 73, 0
2, 360, Note_off_c, 1, 75, 0
2, 400, Note_off_c, 1, 42, 0
2, 400, Note_off_c, 1, 49, 0
2, 400, Note_off_c, 1, 56, 0
2, 400, Note_on_c, 1, 64, 127
2, 400, Note_on_c, 1, 85, 127
2, 400, Note_on_c, 1, 88, 127
2, 400, Note_on_c, 1, 92, 127
2, 440, Note_on_c, 1, 52, 127
2, 440, Note_on_c, 1, 56, 127
2, 440, Note_on_c, 1, 62, 127
2, 440, Note_on_c, 1, 71, 127
2, 440, Note_on_c, 1, 74, 127
2, 440, Note_off_c, 1, 85, 0
2, 440, Note_off_c, 1, 88, 0
2, 440, Note_off_c, 1, 92, 0
2, 480, Note_off_c, 1, 52, 0
2, 480, Note_off_c, 1, 56, 0
2, 480, Note_off_c, 1, 62, 0
2, 480, Note_off_c, 1, 71, 0
2, 480, Note_off_c, 1, 74, 0
2, 520, Note_on_c, 1, 32, 127
2, 520, Note_on_c, 1, 44, 127
2, 520, Note_on_c, 1, 52, 127
2, 520, Note_on_c, 1, 61, 127
2, 520, Note_off_c, 1, 64, 0
2, 600, Note_off_c, 1, 52, 0
2, 640, Note_on_c, 1, 52, 127
2, 760, Note_off_c, 1, 52, 0
2, 800, Note_on_c, 1, 58, 127
2, 880, Note_off_c, 1, 58, 0
2, 880, Note_off_c, 1, 61, 0
2, 920, Note_on_c, 1, 61, 127
2, 1040, Note_off_c, 1, 61, 0
2, 1080, Note_on_c, 1, 54, 127
2, 1240, Note_off_c, 1, 32, 0
2, 1240, Note_off_c, 1, 44, 0
2, 1240, Note_off_c, 1, 54, 0
2, 1240, Note_on_c, 1, 61, 127
2, 1240, Note_on_c, 1, 67, 127
2, 1280, Note_on_c, 1, 31, 127
2, 1280, Note_on_c, 1, 43, 127
2, 1280, Note_on_c, 1, 58, 127
2, 1280, Note_on_c, 1, 64, 127
2, 1280, Note_off_c, 1, 67, 0
2, 1640, Note_off_c, 1, 31, 0
2, 1640, Note_on_c, 1, 34, 127
2, 1640, Note_off_c, 1, 43, 0
2, 1640, Note_on_c, 1, 46, 127
2, 1640, Note_off_c, 1, 58, 0
2, 1640, Note_off_c, 1, 61, 0
2, 1640, Note_off_c, 1, 64, 0
2, 1680, Note_off_c, 1, 34, 0
2, 1680, Note_on_c, 1, 35, 127
2, 1680, Note_on_c, 1, 42, 127
2, 1680, Note_off_c, 1, 46, 0
2, 1680, Note_on_c, 1, 47, 127
2, 1680, Note_on_c, 1, 62, 127
2, 1680, Note_on_c, 1, 66, 127
2, 1680, Note_on_c, 1, 71, 127
2, 1680, Note_on_c, 1, 74, 127
2, 1880, Note_off_c, 1, 35, 0
2, 1880, Note_off_c, 1, 42, 0
2, 1880, Note_off_c, 1, 47, 0
2, 1880, Note_off_c, 1, 62, 0
2, 1880, Note_off_c, 1, 66, 0
2, 1880, Note_off_c, 1, 71, 0
2, 1880, Note_off_c, 1, 74, 0
2, 1920, Note_on_c, 1, 35, 127
2, 1920, Note_on_c, 1, 42, 127
2, 1920, Note_on_c, 1, 47, 127
2, 1920, Note_on_c, 1, 62, 127
2, 1920, Note_on_c, 1, 66, 127
2, 1920, Note_on_c, 1, 71, 127
2, 1920, Note_on_c, 1, 74, 127
2, 2280, Note_off_c, 1, 35, 0
2, 2280, Note_off_c, 1, 42, 0
2, 2280, Note_off_c, 1, 47, 0
2, 2280, Note_off_c, 1, 62, 0
2, 2280, Note_off_c, 1, 66, 0
2, 2280, Note_off_c, 1, 71, 0
2, 2280, Note_off_c, 1, 74, 0
2, 2320, Note_on_c, 1, 68, 127
2, 2480, Note_off_c, 1, 68, 0
2, 2520, Note_on_c, 1, 35, 127
2, 2520, Note_on_c, 1, 47, 127
2, 2520, Note_on_c, 1, 59, 127
2, 2520, Note_on_c, 1, 63, 127
2, 3320, Note_off_c, 1, 35, 0
2, 3320, Note_off_c, 1, 47, 0
2, 3320, Note_on_c, 1, 54, 127
2, 3720, Note_on_c, 1, 47, 127
2, 3720, Note_off_c, 1, 54, 0
2, 3720, Note_off_c, 1, 59, 0
2, 3720, Note_off_c, 1, 63, 0
2, 3760, Note_on_c, 1, 40, 127
2, 3760, Note_on_c, 1, 73, 127
2, 3840, Note_off_c, 1, 73, 0
2, 3880, Note_on_c, 1, 61, 127
2, 3920, Note_off_c, 1, 40, 0
2, 3920, Note_off_c, 1, 47, 0
2, 3920, Note_off_c, 1, 61, 0
2, 3960, Note_on_c, 1, 40, 127
2, 3960, Note_on_c, 1, 47, 127
2, 4000, Note_on_c, 1, 60, 127
2, 4080, Note_off_c, 1, 60, 0
2, 4120, Note_on_c, 1, 68, 127
2, 4160, Note_off_c, 1, 68, 0
2, 4200, Note_on_c, 1, 68, 127
2, 4280, Note_off_c, 1, 47, 0
2, 4320, Note_on_c, 1, 39, 127
2, 4320, Note_off_c, 1, 40, 0
2, 4320, Note_on_c, 1, 44, 127
2, 4320, Note_on_c, 1, 51, 127
2, 4320, Note_on_c, 1, 60, 127
2, 4320, Note_on_c, 1, 67, 127
2, 4320, Note_off_c, 1, 68, 0
2, 4360, Note_off_c, 1, 60, 0
2, 4360, Note_off_c, 1, 67, 0
2, 4400, Note_on_c, 1, 60, 127
2, 4400, Note_on_c, 1, 67, 127
2, 4480, Note_off_c, 1, 60, 0
2, 4480, Note_off_c, 1, 67, 0
2, 4520, Note_off_c, 1, 39, 0
2, 4520, Note_off_c, 1, 44, 0
2, 4520, Note_off_c, 1, 51, 0
2, 4520, Note_on_c, 1, 52, 127
2, 4520, Note_on_c, 1, 54, 127
2, 4520, Note_on_c, 1, 59, 127
2, 4520, Note_on_c, 1, 78, 127
2, 4520, Note_on_c, 1, 83, 127
2, 4520, Note_on_c, 1, 90, 127
2, 4560, Note_off_c, 1, 52, 0
2, 4560, Note_off_c, 1, 54, 0
2, 4560, Note_off_c, 1, 59, 0
2, 4560, Note_off_c, 1, 78, 0
2, 4560, Note_off_c, 1, 83, 0
2, 4560, Note_off_c, 1, 90, 0
2, 4600, Note_on_c, 1, 47, 127
2, 4600, Note_on_c, 1, 54, 127
2, 4600, Note_on_c, 1, 57, 127
2, 4600, Note_on_c, 1, 66, 127
2, 4680, Note_off_c, 1, 66, 0
2, 4720, Note_on_c, 1, 66, 127
2, 4760, Note_off_c, 1, 66, 0
2, 4800, Note_on_c, 1, 66, 127
2, 4880, Note_off_c, 1, 66, 0
2, 4920, Note_on_c, 1, 66, 127
2, 4960, Note_off_c, 1, 47, 0
2, 4960, Note_off_c, 1, 54, 0
2, 4960, Note_off_c, 1, 57, 0
2, 4960, Note_off_c, 1, 66, 0
2, 5000, Note_on_c, 1, 35, 127
2, 5000, Note_on_c, 1, 47, 127
2, 5000, Note_on_c, 1, 61, 127
2, 5080, Note_off_c, 1, 61, 0
2, 5120, Note_on_c, 1, 52, 127
2, 5160, Note_off_c, 1, 35, 0
2, 5160, Note_off_c, 1, 47, 0
2, 5160, Note_off_c, 1, 52, 0
2, 5160, Note_on_c, 1, 54, 127
2, 5200, Note_on_c, 1, 33, 127
2, 5200, Note_on_c, 1, 45, 127
2, 5200, Note_on_c, 1, 48, 127
2, 5200, Note_off_c, 1, 54, 0
2, 5360, Note_off_c, 1, 33, 0
2, 5360, Note_off_c, 1, 45, 0
2, 5360, Note_off_c, 1, 48, 0
2, 5400, Note_on_c, 1, 33, 127
2, 5400, Note_on_c, 1, 45, 127
2, 5400, Note_on_c, 1, 52, 127
2, 5400, Note_on_c, 1, 56, 127
2, 5400, Note_on_c, 1, 59, 127
2, 5480, Note_off_c, 1, 56, 0
2, 5480, Note_off_c, 1, 59, 0
2, 5520, Note_on_c, 1, 56, 127
2, 5520, Note_on_c, 1, 59, 127
2, 5560, Note_off_c, 1, 56, 0
2, 5560, Note_off_c, 1, 59, 0
2, 5600, Note_on_c, 1, 56, 127
2, 5600, Note_on_c, 1, 59, 127
2, 5680, Note_off_c, 1, 56, 0
2, 5680, Note_off_c, 1, 59, 0
2, 5720, Note_on_c, 1, 57, 127
2, 5720, Note_on_c, 1, 61, 127
2, 5760, Note_off_c, 1, 33, 0
2, 5760, Note_off_c, 1, 45, 0
2, 5760, Note_off_c, 1, 52, 0
2, 5760, Note_off_c, 1, 57, 0
2, 5760, Note_off_c, 1, 61, 0
2, 5800, Note_on_c, 1, 35, 127
2, 5800, Note_on_c, 1, 47, 127
2, 5800, Note_on_c, 1, 59, 127
2, 5880, Note_off_c, 1, 59, 0
2, 5920, Note_on_c, 1, 57, 127
2, 5960, Note_off_c, 1, 35, 0
2, 5960, Note_off_c, 1, 47, 0
2, 5960, Note_off_c, 1, 57, 0
2, 6000, Note_on_c, 1, 35, 127
2, 6000, Note_on_c, 1, 47, 127
2, 6000, Note_on_c, 1, 57, 127
2, 6000, Note_on_c, 1, 63, 127
2, 6000, Note_on_c, 1, 66, 127
2, 6080, Note_off_c, 1, 35, 0
2, 6080, Note_on_c, 1, 40, 127
2, 6080, Note_off_c, 1, 57, 0
2, 6080, Note_off_c, 1, 63, 0
2, 6080, Note_off_c, 1, 66, 0
2, 6120, Note_off_c, 1, 40, 0
2, 6120, Note_off_c, 1, 47, 0
2, 6160, Note_on_c, 1, 40, 127
2, 6160, Note_on_c, 1, 47, 127
2, 6160, Note_on_c, 1, 59, 127
2, 6200, Note_off_c, 1, 40, 0
2, 6200, Note_on_c, 1, 42, 127
2, 6200, Note_off_c, 1, 47, 0
2, 6200, Note_on_c, 1, 52, 127
2, 6200, Note_on_c, 1, 64, 127
2, 6240, Note_on_c, 1, 40, 127
2, 6240, Note_off_c, 1, 42, 0
2, 6240, Note_on_c, 1, 51, 127
2, 6240, Note_off_c, 1, 52, 0
2, 6240, Note_off_c, 1, 64, 0
2, 6240, Note_on_c, 1, 66, 127
2, 6240, Note_on_c, 1, 68, 127
2, 6280, Note_on_c, 1, 32, 127
2, 6280, Note_off_c, 1, 40, 0
2, 6280, Note_off_c, 1, 51, 0
2, 6280, Note_off_c, 1, 59, 0
2, 6280, Note_off_c, 1, 66, 0
2, 6280, Note_off_c, 1, 68, 0
2, 6280, Note_on_c, 1, 72, 127
2, 6280, Note_on_c, 1, 73, 127
2, 6320, Note_off_c, 1, 32, 0
2, 6320, Note_on_c, 1, 37, 127
2, 6320, Note_on_c, 1, 45, 127
2, 6320, Note_off_c, 1, 72, 0
2, 6320, Note_off_c, 1, 73, 0
2, 6320, Note_on_c, 1, 82, 127
2, 6360, Note_off_c, 1, 37, 0
2, 6360, Note_on_c, 1, 40, 127
2, 6360, Note_off_c, 1, 45, 0
2, 6360, Note_on_c, 1, 51, 127
2, 6360, Note_on_c, 1, 59, 127
2, 6360, Note_on_c, 1, 66, 127
2, 6360, Note_on_c, 1, 68, 127
2, 6360, Note_off_c, 1, 82, 0
2, 6400, Note_off_c, 1, 40, 0
2, 6400, Note_on_c, 1, 42, 127
2, 6400, Note_off_c, 1, 51, 0
2, 6400, Note_off_c, 1, 59, 0
2, 6400, Note_off_c, 1, 66, 0
2, 6400, Note_off_c, 1, 68, 0
2, 6440, Note_on_c, 1, 39, 127
2, 6440, Note_off_c, 1, 42, 0
2, 6440, Note_on_c, 1, 55, 127
2, 6440, Note_on_c, 1, 66, 127
2, 6800, Note_off_c, 1, 39, 0
2, 6800, Note_off_c, 1, 55, 0
2, 6800, Note_off_c, 1, 66, 0
2, 6840, Note_on_c, 1, 52, 127
2, 6840, Note_on_c, 1, 63, 127
2, 6880, Note_on_c, 1, 51, 127
2, 6880, Note_off_c, 1, 52, 0
2, 6880, Note_on_c, 1, 59, 127
2, 6880, Note_off_c, 1, 63, 0
2, 6880, Note_on_c, 1, 85, 127
2, 6920, Note_off_c, 1, 51, 0
2, 6920, Note_off_c, 1, 59, 0
2, 6920, Note_on_c, 1, 75, 127
2, 6920, Note_on_c, 1, 78, 127
2, 6920, Note_on_c, 1, 82, 127
2, 6920, Note_off_c, 1, 85, 0
2, 6920, Note_on_c, 1, 87, 127
2, 6920, Note_on_c, 1, 90, 127
2, 6960, Note_on_c, 1, 45, 127
2, 6960, Note_on_c, 1, 47, 127
2, 6960, Note_on_c, 1, 52, 127
2, 6960, Note_on_c, 1, 56, 127
2, 6960, Note_on_c, 1, 72, 127
2, 6960, Note_off_c, 1, 75, 0
2, 6960, Note_off_c, 1, 78, 0
2, 6960, Note_off_c, 1, 82, 0
2, 6960, Note_off_c, 1, 87, 0
2, 6960, Note_off_c, 1, 90, 0
2, 7000, Note_off_c, 1, 45, 0
2, 7000, Note_off_c, 1, 47, 0
2, 7000, Note_on_c, 1, 51, 127
2, 7000, Note_off_c, 1, 52, 0
2, 7000, Note_on_c, 1, 54, 127
2, 7000, Note_off_c, 1, 56, 0
2, 7000, Note_on_c, 1, 59, 127
2, 7000, Note_off_c, 1, 72, 0
2, 7040, Note_on_c, 1, 48, 127
2, 7040, Note_off_c, 1, 51, 0
2, 7040, Note_off_c, 1, 59, 0
2, 7040, Note_on_c, 1, 60, 127
2, 7040, Note_on_c, 1, 62, 127
2, 7040, Note_on_c, 1, 66, 127
2, 7040, Note_on_c, 1, 69, 127
2, 7080, Note_on_c, 1, 42, 127
2, 7080, Note_off_c, 1, 48, 0
2, 7080, Note_on_c, 1, 52, 127
2, 7080, Note_off_c, 1, 54, 0
2, 7080, Note_off_c, 1, 60, 0
2, 7080, Note_off_c, 1, 62, 0
2, 7080, Note_on_c, 1, 64, 127
2, 7080, Note_off_c, 1, 66, 0
2, 7080, Note_on_c, 1, 67, 127
2, 7080, Note_off_c, 1, 69, 0
2, 7080, Note_on_c, 1, 71, 127
2, 7080, Note_on_c, 1, 76, 127
2, 7120, Note_off_c, 1, 42, 0
2, 7120, Note_on_c, 1, 48, 127
2, 7120, Note_off_c, 1, 52, 0
2, 7120, Note_on_c, 1, 54, 127
2, 7120, Note_on_c, 1, 60, 127
2, 7120, Note_on_c, 1, 62, 127
2, 7120, Note_off_c, 1, 64, 0
2, 7120, Note_on_c, 1, 66, 127
2, 7120, Note_off_c, 1, 67, 0
2, 7120, Note_on_c, 1, 69, 127
2, 7120, Note_off_c, 1, 71, 0
2, 7120, Note_off_c, 1, 76, 0
2, 7200, Note_off_c, 1, 48, 0
2, 7200, Note_off_c, 1, 54, 0
2, 7200, Note_off_c, 1, 60, 0
2, 7200, Note_off_c, 1, 62, 0
2, 7200, Note_off_c, 1, 66, 0
2, 7200, Note_off_c, 1, 69, 0
2, 7240, Note_on_c, 1, 45, 127
2, 7240, Note_on_c, 1, 49, 127
2, 7240, Note_on_c, 1, 54, 127
2, 7240, Note_on_c, 1, 73, 127
2, 7600, Note_off_c, 1, 45, 0
2, 7600, Note_off_c, 1, 49, 0
2, 7600, Note_off_c, 1, 54, 0
2, 7600, Note_off_c, 1, 73, 0
2, 7640, Note_on_c, 1, 40, 127
2, 7640, Note_on_c, 1, 50, 127
2, 7640, Note_on_c, 1, 59, 127
2, 8000, Note_off_c, 1, 50, 0
2, 8040, Note_on_c, 1, 50, 127
2, 8160, Note_off_c, 1, 40, 0
2, 8160, Note_on_c, 1, 44, 127
2, 8160, Note_off_c, 1, 50, 0
2, 8160, Note_on_c, 1, 52, 127
2, 8200, Note_off_c, 1, 44, 0
2, 8200, Note_off_c, 1, 52, 0
2, 8200, Note_off_c, 1, 59, 0
2, 8240, Note_on_c, 1, 40, 127
2, 8280, Note_on_c, 1, 59, 127
2, 8400, Note_off_c, 1, 40, 0
2, 8400, Note_on_c, 1, 48, 127
2, 8400, Note_off_c, 1, 59, 0
2, 8400, Note_on_c, 1, 64, 127
2, 8400, Note_on_c, 1, 69, 127
2, 8400, Note_on_c, 1, 73, 127
2, 8440, Note_off_c, 1, 48, 0
2, 8440, Note_off_c, 1, 64, 0
2, 8440, Note_off_c, 1, 69, 0
2, 8440, Note_off_c, 1, 73, 0
2, 8440, Note_on_c, 1, 81, 127
2, 8440, Note_on_c, 1, 84, 127
2, 8440, Note_on_c, 1, 88, 127
2, 8480, Note_on_c, 1, 64, 127
2, 8480, Note_on_c, 1, 69, 127
2, 8480, Note_on_c, 1, 72, 127
2, 8480, Note_on_c, 1, 77, 127
2, 8480, Note_off_c, 1, 81, 0
2, 8480, Note_off_c, 1, 88, 0
2, 8640, Note_off_c, 1, 64, 0
2, 8640, Note_off_c, 1, 69, 0
2, 8640, Note_off_c, 1, 72, 0
2, 8640, Note_off_c, 1, 77, 0
2, 8640, Note_off_c, 1, 84, 0
2, 8680, Note_on_c, 1, 41, 127
2, 8680, Note_on_c, 1, 48, 127
2, 8680, Note_on_c, 1, 63, 127
2, 8680, Note_on_c, 1, 69, 127
2, 8680, Note_on_c, 1, 72, 127
2, 8680, Note_on_c, 1, 81, 127
2, 8680, Note_on_c, 1, 84, 127
2, 9440, Note_off_c, 1, 41, 0
2, 9440, Note_off_c, 1, 48, 0
2, 9440, Note_off_c, 1, 63, 0
2, 9440, Note_off_c, 1, 69, 0
2, 9440, Note_off_c, 1, 72, 0
2, 9440, Note_off_c, 1, 81, 0
2, 9440, Note_off_c, 1, 84, 0
2, 9480, Note_on_c, 1, 37, 127
2, 9480, Note_on_c, 1, 41, 127
2, 9480, Note_on_c, 1, 46, 127
2, 9480, Note_on_c, 1, 65, 127
2, 10240, Note_off_c, 1, 37, 0
2, 10240, Note_off_c, 1, 41, 0
2, 10240, Note_off_c, 1, 46, 0
2, 10240, Note_off_c, 1, 65, 0
2, 10320, Note_on_c, 1, 59, 127
2, 10320, Note_on_c, 1, 62, 127
2, 10320, Note_on_c, 1, 65, 127
2, 10320, Note_on_c, 1, 68, 127
2, 10320, Note_on_c, 1, 104, 127
2, 10360, Note_on_c, 1, 57, 127
2, 10360, Note_off_c, 1, 59, 0
2, 10360, Note_on_c, 1, 60, 127
2, 10360, Note_off_c, 1, 65, 0
2, 10360, Note_on_c, 1, 66, 127
2, 10360, Note_off_c, 1, 68, 0
2, 10360, Note_on_c, 1, 96, 127
2, 10360, Note_off_c, 1, 104, 0
2, 10400, Note_on_c, 1, 34, 127
2, 10400, Note_off_c, 1, 57, 0
2, 10400, Note_off_c, 1, 60, 0
2, 10400, Note_off_c, 1, 62, 0
2, 10400, Note_on_c, 1, 63, 127
2, 10400, Note_off_c, 1, 66, 0
2, 10400, Note_on_c, 1, 67, 127
2, 10400, Note_on_c, 1, 70, 127
2, 10400, Note_off_c, 1, 96, 0
2, 10440, Note_off_c, 1, 34, 0
2, 10440, Note_on_c, 1, 43, 127
2, 10440, Note_on_c, 1, 51, 127
2, 10440, Note_on_c, 1, 53, 127
2, 10440, Note_on_c, 1, 57, 127
2, 10440, Note_on_c, 1, 60, 127
2, 10440, Note_off_c, 1, 63, 0
2, 10440, Note_on_c, 1, 65, 127
2, 10440, Note_off_c, 1, 67, 0
2, 10440, Note_off_c, 1, 70, 0
2, 10480, Note_on_c, 1, 36, 127
2, 10480, Note_off_c, 1, 43, 0
2, 10480, Note_off_c, 1, 53, 0
2, 10480, Note_off_c, 1, 57, 0
2, 10480, Note_off_c, 1, 60, 0
2, 10480, Note_off_c, 1, 65, 0
2, 10480, Note_on_c, 1, 67, 127
2, 10480, Note_on_c, 1, 75, 127
2, 10480, Note_on_c, 1, 79, 127
2, 10520, Note_on_c, 1, 45, 127
2, 10520, Note_on_c, 1, 48, 127
2, 10520, Note_off_c, 1, 51, 0
2, 10520, Note_on_c, 1, 66, 127
2, 10520, Note_off_c, 1, 67, 0
2, 10520, Note_on_c, 1, 69, 127
2, 10520, Note_off_c, 1, 75, 0
2, 10520, Note_off_c, 1, 79, 0
2, 10560, Note_off_c, 1, 36, 0
2, 10560, Note_off_c, 1, 45, 0
2, 10560, Note_off_c, 1, 48, 0
2, 10560, Note_on_c, 1, 56, 127
2, 10560, Note_on_c, 1, 61, 127
2, 10560, Note_on_c, 1, 65, 127
2, 10560, Note_off_c, 1, 66, 0
2, 10560, Note_on_c, 1, 68, 127
2, 10560, Note_off_c, 1, 69, 0
2, 10560, Note_on_c, 1, 80, 127
2, 10560, Note_on_c, 1, 85, 127
2, 10560, Note_on_c, 1, 92, 127
2, 10600, Note_on_c, 1, 34, 127
2, 10600, Note_on_c, 1, 37, 127
2, 10600, Note_on_c, 1, 41, 127
2, 10600, Note_on_c, 1, 46, 127
2, 10600, Note_off_c, 1, 56, 0
2, 10600, Note_off_c, 1, 61, 0
2, 10600, Note_off_c, 1, 65, 0
2, 10600, Note_off_c, 1, 68, 0
2, 10600, Note_off_c, 1, 80, 0
2, 10600, Note_on_c, 1, 82, 127
2, 10600, Note_on_c, 1, 89, 127
2, 10600, Note_off_c, 1, 92, 0
2, 10600, Note_on_c, 1, 94, 127
2, 10640, Note_off_c, 1, 34, 0
2, 10640, Note_off_c, 1, 37, 0
2, 10640, Note_off_c, 1, 41, 0
2, 10640, Note_off_c, 1, 46, 0
2, 10640, Note_on_c, 1, 53, 127
2, 10640, Note_on_c, 1, 57, 127
2, 10640, Note_on_c, 1, 64, 127
2, 10640, Note_on_c, 1, 77, 127
2, 10640, Note_off_c, 1, 82, 0
2, 10640, Note_off_c, 1, 85, 0
2, 10640, Note_off_c, 1, 89, 0
2, 10640, Note_off_c, 1, 94, 0
2, 10680, Note_off_c, 1, 53, 0
2, 10680, Note_off_c, 1, 57, 0
2, 10680, Note_off_c, 1, 64, 0
2, 10680, Note_off_c, 1, 77, 0
2, 11120, Note_on_c, 1, 53, 127
2, 11120, Note_on_c, 1, 58, 127
2, 11120, Note_on_c, 1, 62, 127
2, 11360, Note_off_c, 1, 53, 0
2, 11360, Note_off_c, 1, 58, 0
2, 11360, Note_off_c, 1, 62, 0
2, 11520, Note_on_c, 1, 53, 127
2, 11520, Note_on_c, 1, 58, 127
2, 11520, Note_on_c, 1, 62, 127
2, 11520, Note_on_c, 1, 74, 127
2, 11520, Note_on_c, 1, 77, 127
2, 11520, Note_on_c, 1, 82, 127
2, 11520, Note_on_c, 1, 86, 127
2, 11720, Note_off_c, 1, 86, 0
2, 11720, Note_on_c, 1, 87, 127
2, 11760, Note_off_c, 1, 53, 0
2, 11760, Note_off_c, 1, 58, 0
2, 11760, Note_off_c, 1, 62, 0
2, 11760, Note_off_c, 1, 74, 0
2, 11760, Note_off_c, 1, 77, 0
2, 11760, Note_off_c, 1, 82, 0
2, 11760, Note_off_c, 1, 87, 0
2, 11800, Note_on_c, 1, 53, 127
2, 11800, Note_on_c, 1, 58, 127
2, 11800, Note_on_c, 1, 62, 127
2, 11800, Note_on_c, 1, 74, 127
2, 11800, Note_on_c, 1, 77, 127
2, 11800, Note_on_c, 1, 82, 127
2, 11800, Note_on_c, 1, 86, 127
2, 11840, Note_off_c, 1, 53, 0
2, 11840, Note_off_c, 1, 58, 0
2, 11840, Note_off_c, 1, 62, 0
2, 11840, Note_off_c, 1, 74, 0
2, 11840, Note_off_c, 1, 77, 0
2, 11840, Note_off_c, 1, 82, 0
2, 11840, Note_off_c, 1, 86, 0
2, 11920, Note_on_c, 1, 53, 127
2, 11920, Note_on_c, 1, 58, 127
2, 11920, Note_on_c, 1, 62, 127
2, 11920, Note_on_c, 1, 74, 127
2, 11920, Note_on_c, 1, 77, 127
2, 11920, Note_on_c, 1, 82, 127
2, 11920, Note_on_c, 1, 86, 127
2, 12040, Note_off_c, 1, 53, 0
2, 12040, Note_off_c, 1, 58, 0
2, 12040, Note_off_c, 1, 62, 0
2, 12040, Note_off_c, 1, 74, 0
2, 12040, Note_off_c, 1, 77, 0
2, 12040, Note_off_c, 1, 82, 0
2, 12040, Note_off_c, 1, 86, 0
2, 12280, Note_on_c, 1, 49, 127
2, 12280, Note_on_c, 1, 59, 127
2, 12280, Note_on_c, 1, 67, 127
2, 12280, Note_on_c, 1, 71, 127
2, 12320, Note_on_c, 1, 39, 127
2, 12320, Note_off_c, 1, 49, 0
2, 12320, Note_off_c, 1, 59, 0
2, 12320, Note_on_c, 1, 70, 127
2, 12320, Note_off_c, 1, 71, 0
2, 12320, Note_on_c, 1, 75, 127
2, 12320, Note_on_c, 1, 79, 127
2, 12320, Note_on_c, 1, 87, 127
2, 12360, Note_off_c, 1, 39, 0
2, 12360, Note_off_c, 1, 67, 0
2, 12360, Note_off_c, 1, 70, 0
2, 12360, Note_off_c, 1, 75, 0
2, 12360, Note_off_c, 1, 79, 0
2, 12360, Note_off_c, 1, 87, 0
2, 12400, Note_on_c, 1, 49, 127
2, 12400, Note_on_c, 1, 52, 127
2, 12400, Note_on_c, 1, 55, 127
2, 12400, Note_on_c, 1, 82, 127
2, 12440, Note_on_c, 1, 48, 127
2, 12440, Note_off_c, 1, 49, 0
2, 12440, Note_on_c, 1, 60, 127
2, 12440, Note_off_c, 1, 82, 0
2, 12440, Note_on_c, 1, 88, 127
2, 12440, Note_on_c, 1, 91, 127
2, 12440, Note_on_c, 1, 96, 127
2, 12440, Note_on_c, 1, 100, 127
2, 12480, Note_on_c, 1, 45, 127
2, 12480, Note_off_c, 1, 52, 0
2, 12480, Note_off_c, 1, 55, 0
2, 12480, Note_on_c, 1, 57, 127
2, 12480, Note_on_c, 1, 64, 127
2, 12480, Note_off_c, 1, 88, 0
2, 12480, Note_off_c, 1, 91, 0
2, 12480, Note_off_c, 1, 96, 0
2, 12480, Note_off_c, 1, 100, 0
2, 12520, Note_off_c, 1, 45, 0
2, 12520, Note_off_c, 1, 48, 0
2, 12520, Note_off_c, 1, 57, 0
2, 12520, Note_off_c, 1, 60, 0
2, 12520, Note_off_c, 1, 64, 0
2, 12720, Note_on_c, 1, 29, 127
2, 12720, Note_on_c, 1, 41, 127
2, 12720, Note_on_c, 1, 63, 127
2, 12720, Note_on_c, 1, 65, 127
2, 12720, Note_on_c, 1, 69, 127
2, 12720, Note_on_c, 1, 72, 127
2, 13000, Note_off_c, 1, 29, 0
2, 13000, Note_off_c, 1, 41, 0
2, 13000, Note_off_c, 1, 63, 0
2, 13000, Note_off_c, 1, 65, 0
2, 13000, Note_off_c, 1, 69, 0
2, 13000, Note_off_c, 1, 72, 0
2, 13120, Note_on_c, 1, 45, 127
2, 13120, Note_on_c, 1, 57, 127
2, 13120, Note_on_c, 1, 61, 127
2, 13120, Note_on_c, 1, 64, 127
2, 13120, Note_on_c, 1, 69, 127
2, 13200, Note_off_c, 1, 57, 0
2, 13240, Note_on_c, 1, 57, 127
2, 13840, Note_off_c, 1, 45, 0
2, 13840, Note_off_c, 1, 57, 0
2, 13840, Note_off_c, 1, 61, 0
2, 13840, Note_off_c, 1, 64, 0
2, 13840, Note_off_c, 1, 69, 0
2, 13880, Note_on_c, 1, 38, 127
2, 13880, Note_on_c, 1, 50, 127
2, 13880, Note_on_c, 1, 55, 127
2, 13880, Note_on_c, 1, 67, 127
2, 14120, Note_off_c, 1, 38, 0
2, 14120, Note_off_c, 1, 50, 0
2, 14120, Note_off_c, 1, 55, 0
2, 14120, Note_off_c, 1, 67, 0
2, 14240, Note_on_c, 1, 38, 127
2, 14240, Note_on_c, 1, 50, 127
2, 14280, Note_off_c, 1, 38, 0
2, 14280, Note_on_c, 1, 57, 127
2, 14280, Note_on_c, 1, 62, 127
2, 14280, Note_on_c, 1, 66, 127
2, 14280, Note_on_c, 1, 72, 127
2, 14280, Note_on_c, 1, 78, 127
2, 14440, Note_off_c, 1, 50, 0
2, 14440, Note_off_c, 1, 57, 0
2, 14440, Note_off_c, 1, 62, 0
2, 14440, Note_off_c, 1, 66, 0
2, 14440, Note_off_c, 1, 72, 0
2, 14440, Note_off_c, 1, 78, 0
2, 14480, Note_on_c, 1, 50, 127
2, 14480, Note_on_c, 1, 57, 127
2, 14480, Note_on_c, 1, 62, 127
2, 14480, Note_on_c, 1, 66, 127
2, 14480, Note_on_c, 1, 72, 127
2, 14480, Note_on_c, 1, 78, 127
2, 14560, Note_off_c, 1, 50, 0
2, 14560, Note_off_c, 1, 57, 0
2, 14560, Note_off_c, 1, 62, 0
2, 14560, Note_off_c, 1, 66, 0
2, 14560, Note_off_c, 1, 72, 0
2, 14560, Note_off_c, 1, 78, 0
2, 14600, Note_on_c, 1, 38, 127
2, 14600, Note_on_c, 1, 66, 127
2, 14600, Note_on_c, 1, 72, 127
2, 14680, Note_off_c, 1, 38, 0
2, 14680, Note_off_c, 1, 66, 0
2, 14680, Note_off_c, 1, 72, 0
2, 14720, Note_on_c, 1, 38, 127
2, 14720, Note_on_c, 1, 66, 127
2, 14720, Note_on_c, 1, 72, 127
2, 15000, Note_off_c, 1, 38, 0
2, 15000, Note_off_c, 1, 66, 0
2, 15000, Note_off_c, 1, 72, 0
2, 15040, Note_on_c, 1, 54, 127
2, 15040, Note_on_c, 1, 62, 127
2, 15040, Note_on_c, 1, 78, 127
2, 15120, Note_off_c, 1, 54, 0
2, 15120, Note_off_c, 1, 62, 0
2, 15160, Note_off_c, 1, 78, 0
2, 15200, Note_on_c, 1, 78, 127
2, 15240, Note_off_c, 1, 78, 0
2, 15280, Note_on_c, 1, 54, 127
2, 15280, Note_on_c, 1, 62, 127
2, 15280, Note_on_c, 1, 81, 127
2, 15320, Note_off_c, 1, 54, 0
2, 15320, Note_off_c, 1, 62, 0
2, 15320, Note_off_c, 1, 81, 0
2, 15400, Note_on_c, 1, 84, 127
2, 15440, Note_on_c, 1, 50, 127
2, 15440, Note_on_c, 1, 57, 127
2, 15440, Note_on_c, 1, 78, 127
2, 15440, Note_off_c, 1, 84, 0
2, 15640, Note_off_c, 1, 50, 0
2, 15640, Note_off_c, 1, 57, 0
2, 15640, Note_off_c, 1, 78, 0
2, 15760, Note_on_c, 1, 43, 127
2, 15760, Note_on_c, 1, 50, 127
2, 15760, Note_on_c, 1, 79, 127
2, 16000, Note_off_c, 1, 43, 0
2, 16000, Note_off_c, 1, 50, 0
2, 16000, Note_off_c, 1, 79, 0
2, 16080, Note_on_c, 1, 57, 127
2, 16080, Note_on_c, 1, 60, 127
2, 16080, Note_on_c, 1, 63, 127
2, 16080, Note_on_c, 1, 72, 127
2, 16080, Note_on_c, 1, 78, 127
2, 16080, Note_on_c, 1, 83, 127
2, 16120, Note_off_c, 1, 57, 0
2, 16120, Note_off_c, 1, 60, 0
2, 16120, Note_off_c, 1, 63, 0
2, 16120, Note_off_c, 1, 72, 0
2, 16120, Note_off_c, 1, 78, 0
2, 16120, Note_off_c, 1, 83, 0
2, 16160, Note_on_c, 1, 51, 127
2, 16160, Note_on_c, 1, 55, 127
2, 16160, Note_on_c, 1, 58, 127
2, 16160, Note_on_c, 1, 63, 127
2, 16160, Note_on_c, 1, 73, 127
2, 16160, Note_on_c, 1, 75, 127
2, 16400, Note_off_c, 1, 51, 0
2, 16400, Note_off_c, 1, 55, 0
2, 16400, Note_off_c, 1, 58, 0
2, 16400, Note_off_c, 1, 63, 0
2, 16400, Note_off_c, 1, 73, 0
2, 16400, Note_off_c, 1, 75, 0
2, 16480, Note_on_c, 1, 51, 127
2, 16480, Note_on_c, 1, 53, 127
2, 16480, Note_on_c, 1, 56, 127
2, 16480, Note_on_c, 1, 58, 127
2, 16480, Note_on_c, 1, 62, 127
2, 16480, Note_on_c, 1, 68, 127
2, 16520, Note_off_c, 1, 51, 0
2, 16520, Note_off_c, 1, 53, 0
2, 16520, Note_off_c, 1, 56, 0
2, 16520, Note_off_c, 1, 58, 0
2, 16520, Note_off_c, 1, 62, 0
2, 16520, Note_off_c, 1, 68, 0
2, 16560, Note_on_c, 1, 42, 127
2, 16560, Note_on_c, 1, 54, 127
2, 16560, Note_on_c, 1, 63, 127
2, 16560, Note_on_c, 1, 68, 127
2, 16560, Note_on_c, 1, 72, 127
2, 16680, Note_on_c, 1, 35, 127
2, 16680, Note_off_c, 1, 42, 0
2, 16680, Note_on_c, 1, 52, 127
2, 16680, Note_on_c, 1, 59, 127
2, 16680, Note_off_c, 1, 63, 0
2, 16680, Note_off_c, 1, 68, 0
2, 16680, Note_off_c, 1, 72, 0
2, 16720, Note_off_c, 1, 35, 0
2, 16720, Note_on_c, 1, 42, 127
2, 16720, Note_off_c, 1, 52, 0
2, 16720, Note_off_c, 1, 59, 0
2, 16720, Note_on_c, 1, 63, 127
2, 16720, Note_on_c, 1, 68, 127
2, 16720, Note_on_c, 1, 72, 127
2, 16760, Note_off_c, 1, 42, 0
2, 16760, Note_off_c, 1, 54, 0
2, 16760, Note_off_c, 1, 63, 0
2, 16760, Note_off_c, 1, 68, 0
2, 16760, Note_off_c, 1, 72, 0
2, 16800, Note_on_c, 1, 42, 127
2, 16800, Note_on_c, 1, 54, 127
2, 16800, Note_on_c, 1, 57, 127
2, 16800, Note_on_c, 1, 64, 127
2, 16840, Note_off_c, 1, 42, 0
2, 16840, Note_off_c, 1, 54, 0
2, 16840, Note_off_c, 1, 57, 0
2, 16840, Note_off_c, 1, 64, 0
2, 16920, Note_on_c, 1, 38, 127
2, 16920, Note_on_c, 1, 50, 127
2, 16920, Note_on_c, 1, 74, 127
2, 16920, Note_on_c, 1, 78, 127
2, 16920, Note_on_c, 1, 81, 127
2, 16920, Note_on_c, 1, 86, 127
2, 17160, Note_off_c, 1, 38, 0
2, 17160, Note_off_c, 1, 50, 0
2, 17160, Note_off_c, 1, 74, 0
2, 17160, Note_off_c, 1, 78, 0
2, 17160, Note_off_c, 1, 81, 0
2, 17160, Note_off_c, 1, 86, 0
2, 17200, Note_on_c, 1, 29, 127
2, 17200, Note_on_c, 1, 40, 127
2, 17200, Note_on_c, 1, 41, 127
2, 17200, Note_on_c, 1, 48, 127
2, 17200, Note_on_c, 1, 52, 127
2, 17200, Note_on_c, 1, 53, 127
2, 17200, Note_on_c, 1, 60, 127
2, 17200, Note_on_c, 1, 69, 127
2, 17200, Note_on_c, 1, 72, 127
2, 17240, Note_off_c, 1, 29, 0
2, 17240, Note_off_c, 1, 40, 0
2, 17240, Note_off_c, 1, 41, 0
2, 17240, Note_off_c, 1, 48, 0
2, 17240, Note_off_c, 1, 52, 0
2, 17240, Note_off_c, 1, 53, 0
2, 17240, Note_off_c, 1, 60, 0
2, 17240, Note_off_c, 1, 69, 0
2, 17240, Note_off_c, 1, 72, 0
2, 17280, Note_on_c, 1, 29, 127
2, 17280, Note_on_c, 1, 40, 127
2, 17280, Note_on_c, 1, 41, 127
2, 17280, Note_on_c, 1, 48, 127
2, 17280, Note_on_c, 1, 52, 127
2, 17280, Note_on_c, 1, 53, 127
2, 17280, Note_on_c, 1, 60, 127
2, 17280, Note_on_c, 1, 69, 127
2, 17280, Note_on_c, 1, 72, 127
2, 17520, Note_off_c, 1, 29, 0
2, 17520, Note_off_c, 1, 40, 0
2, 17520, Note_off_c, 1, 41, 0
2, 17520, Note_off_c, 1, 48, 0
2, 17520, Note_off_c, 1, 52, 0
2, 17520, Note_off_c, 1, 53, 0
2, 17520, Note_off_c, 1, 60, 0
2, 17520, Note_off_c, 1, 69, 0
2, 17520, Note_off_c, 1, 72, 0
2, 17560, Note_on_c, 1, 57, 127
2, 17560, Note_on_c, 1, 60, 127
2, 17560, Note_on_c, 1, 65, 127
2, 17560, Note_on_c, 1, 69, 127
2, 17560, Note_on_c, 1, 91, 127
2, 17600, Note_off_c, 1, 57, 0
2, 17600, Note_off_c, 1, 60, 0
2, 17600, Note_off_c, 1, 65, 0
2, 17600, Note_off_c, 1, 69, 0
2, 17600, Note_off_c, 1, 91, 0
2, 17640, Note_on_c, 1, 41, 127
2, 17640, Note_on_c, 1, 53, 127
2, 17640, Note_on_c, 1, 69, 127
2, 17640, Note_on_c, 1, 72, 127
2, 17640, Note_on_c, 1, 81, 127
2, 17840, Note_off_c, 1, 41, 0
2, 17840, Note_off_c, 1, 53, 0
2, 17840, Note_off_c, 1, 69, 0
2, 17840, Note_off_c, 1, 72, 0
2, 17840, Note_off_c, 1, 81, 0
2, 17880, Note_on_c, 1, 53, 127
2, 17880, Note_on_c, 1, 60, 127
2, 17880, Note_on_c, 1, 69, 127
2, 17880, Note_on_c, 1, 72, 127
2, 17880, Note_on_c, 1, 77, 127
2, 17960, Note_off_c, 1, 53, 0
2, 17960, Note_off_c, 1, 60, 0
2, 17960, Note_off_c, 1, 69, 0
2, 17960, Note_off_c, 1, 72, 0
2, 17960, Note_off_c, 1, 77, 0
2, 18000, Note_on_c, 1, 53, 127
2, 18000, Note_on_c, 1, 57, 127
2, 18000, Note_on_c, 1, 60, 127
2, 18000, Note_on_c, 1, 65, 127
2, 18000, Note_on_c, 1, 84, 127
2, 18200, Note_off_c, 1, 53, 0
2, 18200, Note_off_c, 1, 57, 0
2, 18200, Note_off_c, 1, 60, 0
2, 18200, Note_off_c, 1, 65, 0
2, 18200, Note_off_c, 1, 84, 0
2, 18240, Note_on_c, 1, 40, 127
2, 18240, Note_on_c, 1, 52, 127
2, 18240, Note_on_c, 1, 64, 127
2, 18280, Note_off_c, 1, 40, 0
2, 18280, Note_off_c, 1, 52, 0
2, 18280, Note_off_c, 1, 64, 0
2, 18400, Note_on_c, 1, 55, 127
2, 18400, Note_on_c, 1, 62, 127
2, 18400, Note_on_c, 1, 71, 127
2, 18400, Note_on_c, 1, 79, 127
2, 18400, Note_on_c, 1, 83, 127
2, 18440, Note_off_c, 1, 55, 0
2, 18440, Note_off_c, 1, 62, 0
2, 18440, Note_off_c, 1, 71, 0
2, 18440, Note_off_c, 1, 79, 0
2, 18440, Note_off_c, 1, 83, 0
2, 18560, Note_on_c, 1, 36, 127
2, 18560, Note_on_c, 1, 48, 127
2, 18560, Note_on_c, 1, 72, 127
2, 18560, Note_on_c, 1, 76, 127
2, 18560, Note_on_c, 1, 84, 127
2, 18880, Note_off_c, 1, 36, 0
2, 18880, Note_off_c, 1, 48, 0
2, 18880, Note_off_c, 1, 72, 0
2, 18880, Note_off_c, 1, 76, 0
2, 18880, Note_off_c, 1, 84, 0
2, 18920, Note_on_c, 1, 39, 127
2, 18920, Note_on_c, 1, 43, 127
2, 18920, Note_on_c, 1, 46, 127
2, 18920, Note_on_c, 1, 51, 127
2, 18920, Note_on_c, 1, 87, 127
2, 18920, Note_on_c, 1, 91, 127
2, 18920, Note_on_c, 1, 94, 127
2, 18920, Note_on_c, 1, 99, 127
2, 19160, Note_off_c, 1, 39, 0
2, 19160, Note_off_c, 1, 43, 0
2, 19160, Note_off_c, 1, 46, 0
2, 19160, Note_off_c, 1, 51, 0
2, 19160, Note_off_c, 1, 87, 0
2, 19160, Note_off_c, 1, 91, 0
2, 19160, Note_off_c, 1, 94, 0
2, 19160, Note_off_c, 1, 99, 0
2, 19200, Note_on_c, 1, 60, 127
2, 19200, Note_on_c, 1, 65, 127
2, 19200, Note_on_c, 1, 69, 127
2, 19200, Note_on_c, 1, 72, 127
2, 19200, Note_on_c, 1, 77, 127
2, 19200, Note_on_c, 1, 81, 127
2, 19240, Note_off_c, 1, 60, 0
2, 19240, Note_off_c, 1, 65, 0
2, 19240, Note_off_c, 1, 69, 0
2, 19240, Note_off_c, 1, 72, 0
2, 19240, Note_off_c, 1, 77, 0
2, 19240, Note_off_c, 1, 81, 0
2, 19280, Note_on_c, 1, 38, 127
2, 19280, Note_on_c, 1, 50, 127
2, 19280, Note_on_c, 1, 57, 127
2, 19280, Note_on_c, 1, 62, 127
2, 19280, Note_on_c, 1, 65, 127
2, 19520, Note_off_c, 1, 38, 0
2, 19520, Note_off_c, 1, 50, 0
2, 19520, Note_off_c, 1, 57, 0
2, 19520, Note_off_c, 1, 62, 0
2, 19520, Note_off_c, 1, 65, 0
2, 19640, Note_on_c, 1, 31, 127
2, 19640, Note_on_c, 1, 35, 127
2, 19640, Note_on_c, 1, 38, 127
2, 19640, Note_on_c, 1, 43, 127
2, 19640, Note_on_c, 1, 55, 127
2, 19640, Note_on_c, 1, 59, 127
2, 19640, Note_on_c, 1, 62, 127
2, 19640, Note_on_c, 1, 67, 127
2, 19680, Note_off_c, 1, 55, 0
2, 19680, Note_off_c, 1, 59, 0
2, 19680, Note_off_c, 1, 62, 0
2, 19680, Note_off_c, 1, 67, 0
2, 19720, Note_on_c, 1, 55, 127
2, 19720, Note_on_c, 1, 59, 127
2, 19720, Note_on_c, 1, 62, 127
2, 19720, Note_on_c, 1, 67, 127
2, 19800, Note_off_c, 1, 31, 0
2, 19800, Note_off_c, 1, 35, 0
2, 19800, Note_off_c, 1, 38, 0
2, 19800, Note_off_c, 1, 43, 0
2, 19800, Note_off_c, 1, 55, 0
2, 19800, Note_off_c, 1, 59, 0
2, 19800, Note_off_c, 1, 62, 0
2, 19800, Note_off_c, 1, 67, 0
2, 19840, Note_on_c, 1, 31, 127
2, 19840, Note_on_c, 1, 35, 127
2, 19840, Note_on_c, 1, 38, 127
2, 19840, Note_on_c, 1, 43, 127
2, 19840, Note_on_c, 1, 55, 127
2, 19840, Note_on_c, 1, 59, 127
2, 19840, Note_on_c, 1, 62, 127
2, 19840, Note_on_c, 1, 67, 127
2, 19960, Note_off_c, 1, 31, 0
2, 19960, Note_off_c, 1, 35, 0
2, 19960, Note_off_c, 1, 38, 0
2, 19960, Note_off_c, 1, 43, 0
2, 19960, Note_off_c, 1, 55, 0
2, 19960, Note_off_c, 1, 59, 0
2, 19960, Note_off_c, 1, 62, 0
2, 19960, Note_off_c, 1, 67, 0
2, 20000, Note_on_c, 1, 31, 127
2, 20000, Note_on_c, 1, 35, 127
2, 20000, Note_on_c, 1, 38, 127
2, 20000, Note_on_c, 1, 43, 127
2, 20000, Note_on_c, 1, 55, 127
2, 20000, Note_on_c, 1, 59, 127
2, 20000, Note_on_c, 1, 62, 127
2, 20000, Note_on_c, 1, 67, 127
2, 20160, Note_off_c, 1, 31, 0
2, 20160, Note_off_c, 1, 35, 0
2, 20160, Note_off_c, 1, 38, 0
2, 20160, Note_off_c, 1, 43, 0
2, 20160, Note_off_c, 1, 55, 0
2, 20160, Note_off_c, 1, 59, 0
2, 20160, Note_off_c, 1, 62, 0
2, 20160, Note_off_c, 1, 67, 0
2, 20200, Note_on_c, 1, 29, 127
2, 20200, Note_on_c, 1, 47, 127
2, 20240, Note_off_c, 1, 29, 0
2, 20240, Note_off_c, 1, 47, 0
2, 20240, Note_on_c, 1, 76, 127
2, 20240, Note_on_c, 1, 80, 127
2, 20240, Note_on_c, 1, 83, 127
2, 20240, Note_on_c, 1, 92, 127
2, 20280, Note_on_c, 1, 42, 127
2, 20280, Note_on_c, 1, 50, 127
2, 20280, Note_on_c, 1, 57, 127
2, 20280, Note_off_c, 1, 76, 0
2, 20280, Note_off_c, 1, 80, 0
2, 20280, Note_off_c, 1, 83, 0
2, 20280, Note_on_c, 1, 86, 127
2, 20280, Note_off_c, 1, 92, 0
2, 20320, Note_off_c, 1, 42, 0
2, 20320, Note_off_c, 1, 50, 0
2, 20320, Note_off_c, 1, 57, 0
2, 20320, Note_off_c, 1, 86, 0
2, 20360, Note_on_c, 1, 57, 127
2, 20360, Note_on_c, 1, 63, 127
2, 20360, Note_on_c, 1, 69, 127
2, 20360, Note_on_c, 1, 80, 127
2, 20360, Note_on_c, 1, 92, 127
2, 20400, Note_off_c, 1, 57, 0
2, 20400, Note_off_c, 1, 63, 0
2, 20400, Note_off_c, 1, 69, 0
2, 20400, Note_off_c, 1, 80, 0
2, 20400, Note_on_c, 1, 83, 127
2, 20400, Note_on_c, 1, 89, 127
2, 20400, Note_off_c, 1, 92, 0
2, 20400, Note_on_c, 1, 95, 127
2, 20440, Note_on_c, 1, 49, 127
2, 20440, Note_on_c, 1, 56, 127
2, 20440, Note_on_c, 1, 58, 127
2, 20440, Note_on_c, 1, 68, 127
2, 20440, Note_on_c, 1, 70, 127
2, 20440, Note_on_c, 1, 77, 127
2, 20440, Note_on_c, 1, 80, 127
2, 20440, Note_off_c, 1, 83, 0
2, 20440, Note_off_c, 1, 89, 0
2, 20440, Note_off_c, 1, 95, 0
2, 20480, Note_off_c, 1, 49, 0
2, 20480, Note_off_c, 1, 56, 0
2, 20480, Note_off_c, 1, 58, 0
2, 20480, Note_off_c, 1, 68, 0
2, 20480, Note_off_c, 1, 70, 0
2, 20480, Note_off_c, 1, 77, 0
2, 20480, Note_off_c, 1, 80, 0
2, 20560, Note_on_c, 1, 50, 127
2, 20560, Note_on_c, 1, 55, 127
2, 20560, Note_on_c, 1, 74, 127
2, 20560, Note_on_c, 1, 77, 127
2, 20560, Note_on_c, 1, 86, 127
2, 20600, Note_off_c, 1, 50, 0
2, 20600, Note_off_c, 1, 55, 0
2, 20600, Note_off_c, 1, 74, 0
2, 20600, Note_off_c, 1, 77, 0
2, 20600, Note_off_c, 1, 86, 0
2, 20680, Note_on_c, 1, 36, 127
2, 20680, Note_on_c, 1, 48, 127
2, 20680, Note_on_c, 1, 75, 127
2, 20680, Note_on_c, 1, 84, 127
2, 20680, Note_on_c, 1, 87, 127
2, 20720, Note_off_c, 1, 36, 0
2, 20720, Note_off_c, 1, 48, 0
2, 20720, Note_off_c, 1, 75, 0
2, 20720, Note_off_c, 1, 84, 0
2, 20720, Note_off_c, 1, 87, 0
2, 20760, Note_on_c, 1, 51, 127
2, 20760, Note_on_c, 1, 55, 127
2, 20760, Note_on_c, 1, 72, 127
2, 20760, Note_on_c, 1, 75, 127
2, 20760, Note_on_c, 1, 84, 127
2, 20800, Note_off_c, 1, 51, 0
2, 20800, Note_off_c, 1, 55, 0
2, 20800, Note_off_c, 1, 72, 0
2, 20800, Note_off_c, 1, 75, 0
2, 20800, Note_off_c, 1, 84, 0
2, 20920, Note_on_c, 1, 36, 127
2, 20920, Note_on_c, 1, 43, 127
2, 20920, Note_on_c, 1, 48, 127
2, 20920, Note_on_c, 1, 79, 127
2, 20920, Note_on_c, 1, 88, 127
2, 20960, Note_off_c, 1, 36, 0
2, 20960, Note_off_c, 1, 43, 0
2, 20960, Note_off_c, 1, 48, 0
2, 20960, Note_off_c, 1, 79, 0
2, 20960, Note_off_c, 1, 88, 0
2, 21120, Note_on_c, 1, 41, 127
2, 21120, Note_on_c, 1, 53, 127
2, 21120, Note_on_c, 1, 86, 127
2, 21120, Note_on_c, 1, 92, 127
2, 21120, Note_on_c, 1, 95, 127
2, 21120, Note_on_c, 1, 98, 127
2, 21160, Note_off_c, 1, 41, 0
2, 21160, Note_off_c, 1, 53, 0
2, 21160, Note_off_c, 1, 86, 0
2, 21160, Note_off_c, 1, 92, 0
2, 21160, Note_off_c, 1, 95, 0
2, 21160, Note_off_c, 1, 98, 0
2, 21280, Note_on_c, 1, 41, 127
2, 21280, Note_on_c, 1, 53, 127
2, 21280, Note_on_c, 1, 86, 127
2, 21280, Note_on_c, 1, 92, 127
2, 21280, Note_on_c, 1, 95, 127
2, 21280, Note_on_c, 1, 98, 127
2, 21320, Note_off_c, 1, 41, 0
2, 21320, Note_off_c, 1, 53, 0
2, 21320, Note_off_c, 1, 86, 0
2, 21320, Note_off_c, 1, 92, 0
2, 21320, Note_off_c, 1, 95, 0
2, 21320, Note_off_c, 1, 98, 0
2, 21440, Note_on_c, 1, 74, 127
2, 21440, Note_on_c, 1, 78, 127
2, 21440, Note_on_c, 1, 86, 127
2, 21440, Note_on_c, 1, 90, 127
2, 21520, Note_off_c, 1, 74, 0
2, 21520, Note_off_c, 1, 78, 0
2, 21520, Note_off_c, 1, 86, 0
2, 21520, Note_off_c, 1, 90, 0
2, 21640, Note_on_c, 1, 44, 127
2, 21640, Note_on_c, 1, 56, 127
2, 21640, Note_on_c, 1, 71, 127
2, 21640, Note_on_c, 1, 74, 127
2, 21640, Note_on_c, 1, 83, 127
2, 21680, Note_off_c, 1, 44, 0
2, 21680, Note_off_c, 1, 56, 0
2, 21680, Note_off_c, 1, 71, 0
2, 21680, Note_off_c, 1, 74, 0
2, 21680, Note_off_c, 1, 83, 0
2, 21720, Note_on_c, 1, 74, 127
2, 21720, Note_on_c, 1, 77, 127
2, 21720, Note_on_c, 1, 86, 127
2, 21760, Note_off_c, 1, 74, 0
2, 21760, Note_off_c, 1, 77, 0
2, 21760, Note_off_c, 1, 86, 0
2, 21800, Note_on_c, 1, 48, 127
2, 21800, Note_on_c, 1, 60, 127
2, 21800, Note_on_c, 1, 72, 127
2, 21800, Note_on_c, 1, 75, 127
2, 21800, Note_on_c, 1, 84, 127
2, 21840, Note_off_c, 1, 48, 0
2, 21840, Note_off_c, 1, 60, 0
2, 21840, Note_off_c, 1, 72, 0
2, 21840, Note_off_c, 1, 75, 0
2, 21840, Note_off_c, 1, 84, 0
2, 21960, Note_on_c, 1, 43, 127
2, 21960, Note_on_c, 1, 55, 127
2, 21960, Note_on_c, 1, 71, 127
2, 21960, Note_on_c, 1, 74, 127
2, 21960, Note_on_c, 1, 83, 127
2, 22040, Note_off_c, 1, 43, 0
2, 22040, Note_off_c, 1, 55, 0
2, 22040, Note_off_c, 1, 71, 0
2, 22040, Note_off_c, 1, 74, 0
2, 22040, Note_off_c, 1, 83, 0
2, 22160, Note_on_c, 1, 43, 127
2, 22160, Note_on_c, 1, 55, 127
2, 22160, Note_on_c, 1, 71, 127
2, 22160, Note_on_c, 1, 74, 127
2, 22160, Note_on_c, 1, 83, 127
2, 22200, Note_off_c, 1, 43, 0
2, 22200, Note_off_c, 1, 55, 0
2, 22200, Note_off_c, 1, 71, 0
2, 22200, Note_off_c, 1, 74, 0
2, 22200, Note_off_c, 1, 83, 0
2, 22320, Note_on_c, 1, 48, 127
2, 22320, Note_on_c, 1, 60, 127
2, 22320, Note_on_c, 1, 72, 127
2, 22320, Note_on_c, 1, 75, 127
2, 22320, Note_on_c, 1, 84, 127
2, 22400, Note_off_c, 1, 48, 0
2, 22400, Note_off_c, 1, 60, 0
2, 22400, Note_off_c, 1, 72, 0
2, 22400, Note_off_c, 1, 75, 0
2, 22400, Note_off_c, 1, 84, 0
2, 22520, Note_on_c, 1, 31, 127
2, 22520, Note_on_c, 1, 43, 127
2, 22520, Note_on_c, 1, 55, 127
2, 22520, Note_on_c, 1, 58, 127
2, 22560, Note_off_c, 1, 31, 0
2, 22560, Note_off_c, 1, 43, 0
2, 22560, Note_off_c, 1, 55, 0
2, 22560, Note_off_c, 1, 58, 0
2, 22720, Note_on_c, 1, 31, 127
2, 22720, Note_on_c, 1, 43, 127
2, 22720, Note_on_c, 1, 55, 127
2, 22720, Note_on_c, 1, 58, 127
2, 22760, Note_off_c, 1, 31, 0
2, 22760, Note_off_c, 1, 43, 0
2, 22760, Note_off_c, 1, 55, 0
2, 22760, Note_on_c, 1, 57, 127
2, 22760, Note_off_c, 1, 58, 0
2, 22760, Note_on_c, 1, 66, 127
2, 22760, Note_on_c, 1, 69, 127
2, 22760, Note_on_c, 1, 74, 127
2, 22760, Note_on_c, 1, 78, 127
2, 22840, Note_on_c, 1, 36, 127
2, 22840, Note_on_c, 1, 43, 127
2, 22840, Note_on_c, 1, 53, 127
2, 22840, Note_on_c, 1, 55, 127
2, 22840, Note_off_c, 1, 57, 0
2, 22840, Note_on_c, 1, 59, 127
2, 22840, Note_off_c, 1, 66, 0
2, 22840, Note_off_c, 1, 69, 0
2, 22840, Note_off_c, 1, 74, 0
2, 22840, Note_off_c, 1, 78, 0
2, 22880, Note_off_c, 1, 36, 0
2, 22880, Note_off_c, 1, 43, 0
2, 22880, Note_off_c, 1, 53, 0
2, 22880, Note_off_c, 1, 55, 0
2, 22880, Note_on_c, 1, 57, 127
2, 22880, Note_off_c, 1, 59, 0
2, 22880, Note_on_c, 1, 66, 127
2, 22880, Note_on_c, 1, 69, 127
2, 22880, Note_on_c, 1, 74, 127
2, 22880, Note_on_c, 1, 78, 127
2, 23040, Note_off_c, 1, 66, 0
2, 23040, Note_off_c, 1, 69, 0
2, 23040, Note_off_c, 1, 74, 0
2, 23040, Note_off_c, 1, 78, 0
2, 23080, Note_off_c, 1, 57, 0
2, 23080, Note_on_c, 1, 65, 127
2, 23080, Note_on_c, 1, 74, 127
2, 23080, Note_on_c, 1, 77, 127
2, 23080, Note_on_c, 1, 86, 127
2, 23080, Note_on_c, 1, 89, 127
2, 23200, Note_on_c, 1, 47, 127
2, 23200, Note_on_c, 1, 57, 127
2, 23200, Note_on_c, 1, 63, 127
2, 23200, Note_off_c, 1, 65, 0
2, 23200, Note_on_c, 1, 68, 127
2, 23200, Note_off_c, 1, 74, 0
2, 23200, Note_off_c, 1, 77, 0
2, 23200, Note_off_c, 1, 86, 0
2, 23200, Note_off_c, 1, 89, 0
2, 23240, Note_off_c, 1, 47, 0
2, 23240, Note_off_c, 1, 57, 0
2, 23240, Note_off_c, 1, 63, 0
2, 23240, Note_off_c, 1, 68, 0
2, 23440, Note_on_c, 1, 59, 127
2, 23440, Note_on_c, 1, 62, 127
2, 23440, Note_on_c, 1, 64, 127
2, 23440, Note_on_c, 1, 76, 127
2, 23440, Note_on_c, 1, 84, 127
2, 23480, Note_off_c, 1, 64, 0
2, 23480, Note_off_c, 1, 76, 0
2, 23480, Note_off_c, 1, 84, 0
2, 23520, Note_on_c, 1, 83, 127
2, 23560, Note_on_c, 1, 43, 127
2, 23560, Note_on_c, 1, 48, 127
2, 23560, Note_on_c, 1, 51, 127
2, 23560, Note_off_c, 1, 59, 0
2, 23560, Note_on_c, 1, 74, 127
2, 23560, Note_off_c, 1, 83, 0
2, 23600, Note_off_c, 1, 43, 0
2, 23600, Note_off_c, 1, 48, 0
2, 23600, Note_off_c, 1, 51, 0
2, 23600, Note_off_c, 1, 62, 0
2, 23600, Note_off_c, 1, 74, 0
2, 23600, Note_on_c, 1, 78, 127
2, 23600, Note_on_c, 1, 79, 127
2, 23640, Note_on_c, 1, 41, 127
2, 23640, Note_on_c, 1, 50, 127
2, 23640, Note_on_c, 1, 56, 127
2, 23640, Note_on_c, 1, 59, 127
2, 23640, Note_off_c, 1, 78, 0
2, 23640, Note_off_c, 1, 79, 0
2, 23680, Note_off_c, 1, 41, 0
2, 23680, Note_off_c, 1, 50, 0
2, 23680, Note_off_c, 1, 56, 0
2, 23680, Note_on_c, 1, 62, 127
2, 23720, Note_on_c, 1, 54, 127
2, 23720, Note_on_c, 1, 57, 127
2, 23720, Note_off_c, 1, 59, 0
2, 23720, Note_off_c, 1, 62, 0
2, 23720, Note_on_c, 1, 64, 127
2, 23720, Note_on_c, 1, 66, 127
2, 23720, Note_on_c, 1, 69, 127
2, 23720, Note_on_c, 1, 76, 127
2, 23760, Note_off_c, 1, 54, 0
2, 23760, Note_off_c, 1, 57, 0
2, 23760, Note_off_c, 1, 64, 0
2, 23760, Note_off_c, 1, 66, 0
2, 23760, Note_off_c, 1, 69, 0
2, 23760, Note_off_c, 1, 76, 0
2, 23800, Note_on_c, 1, 56, 127
2, 23800, Note_on_c, 1, 64, 127
2, 23800, Note_on_c, 1, 68, 127
2, 23800, Note_on_c, 1, 71, 127
2, 23800, Note_on_c, 1, 76, 127
2, 23920, Note_off_c, 1, 56, 0
2, 23920, Note_off_c, 1, 64, 0
2, 23920, Note_off_c, 1, 68, 0
2, 23920, Note_off_c, 1, 71, 0
2, 23920, Note_off_c, 1, 76, 0
2, 23960, Note_on_c, 1, 55, 127
2, 23960, Note_on_c, 1, 59, 127
2, 23960, Note_on_c, 1, 64, 127
2, 23960, Note_on_c, 1, 67, 127
2, 23960, Note_on_c, 1, 71, 127
2, 23960, Note_on_c, 1, 76, 127
2, 24120, Note_off_c, 1, 55, 0
2, 24120, Note_off_c, 1, 59, 0
2, 24120, Note_off_c, 1, 64, 0
2, 24120, Note_off_c, 1, 67, 0
2, 24120, Note_off_c, 1, 71, 0
2, 24120, Note_off_c, 1, 76, 0
2, 24160, Note_on_c, 1, 33, 127
2, 24160, Note_on_c, 1, 45, 127
2, 24160, Note_on_c, 1, 69, 127
2, 24160, Note_on_c, 1, 72, 127
2, 24160, Note_on_c, 1, 76, 127
2, 24280, Note_off_c, 1, 33, 0
2, 24280, Note_off_c, 1, 45, 0
2, 24280, Note_off_c, 1, 69, 0
2, 24280, Note_off_c, 1, 72, 0
2, 24280, Note_off_c, 1, 76, 0
2, 24320, Note_on_c, 1, 45, 127
2, 24320, Note_on_c, 1, 64, 127
2, 24320, Note_on_c, 1, 72, 127
2, 24320, Note_on_c, 1, 76, 127
2, 24480, Note_off_c, 1, 45, 0
2, 24480, Note_off_c, 1, 64, 0
2, 24480, Note_off_c, 1, 72, 0
2, 24480, Note_off_c, 1, 76, 0
2, 24520, Note_on_c, 1, 52, 127
2, 24520, Note_on_c, 1, 55, 127
2, 24520, Note_on_c, 1, 62, 127
2, 24520, Note_on_c, 1, 74, 127
2, 24640, Note_off_c, 1, 52, 0
2, 24640, Note_off_c, 1, 55, 0
2, 24640, Note_off_c, 1, 62, 0
2, 24640, Note_off_c, 1, 74, 0
2, 24720, Note_on_c, 1, 49, 127
2, 24720, Note_on_c, 1, 55, 127
2, 24720, Note_on_c, 1, 57, 127
2, 24720, Note_on_c, 1, 75, 127
2, 24800, Note_off_c, 1, 75, 0
2, 24840, Note_on_c, 1, 75, 127
2, 24880, Note_off_c, 1, 75, 0
2, 24920, Note_on_c, 1, 78, 127
2, 24960, Note_off_c, 1, 78, 0
2, 25000, Note_on_c, 1, 78, 127
2, 25040, Note_off_c, 1, 78, 0
2, 25080, Note_on_c, 1, 76, 127
2, 25160, Note_off_c, 1, 76, 0
2, 25200, Note_on_c, 1, 76, 127
2, 25240, Note_off_c, 1, 49, 0
2, 25240, Note_off_c, 1, 55, 0
2, 25240, Note_off_c, 1, 57, 0
2, 25240, Note_off_c, 1, 76, 0
2, 25280, Note_on_c, 1, 49, 127
2, 25280, Note_on_c, 1, 55, 127
2, 25280, Note_on_c, 1, 57, 127
2, 25400, Note_off_c, 1, 49, 0
2, 25400, Note_off_c, 1, 55, 0
2, 25400, Note_off_c, 1, 57, 0
2, 25440, Note_on_c, 1, 55, 127
2, 25440, Note_on_c, 1, 57, 127
2, 25440, Note_on_c, 1, 64, 127
2, 25440, Note_on_c, 1, 69, 127
2, 25680, Note_off_c, 1, 55, 0
2, 25680, Note_off_c, 1, 57, 0
2, 25680, Note_off_c, 1, 64, 0
2, 25680, Note_off_c, 1, 69, 0
2, 25720, Note_on_c, 1, 62, 127
2, 25720, Note_on_c, 1, 69, 127
2, 25720, Note_on_c, 1, 81, 127
2, 25720, Note_on_c, 1, 85, 127
2, 25760, Note_off_c, 1, 62, 0
2, 25760, Note_off_c, 1, 69, 0
2, 25760, Note_off_c, 1, 81, 0
2, 25760, Note_off_c, 1, 85, 0
2, 25800, Note_on_c, 1, 52, 127
2, 25800, Note_on_c, 1, 56, 127
2, 25800, Note_on_c, 1, 59, 127
2, 25800, Note_on_c, 1, 64, 127
2, 25800, Note_on_c, 1, 90, 127
2, 25840, Note_off_c, 1, 52, 0
2, 25840, Note_off_c, 1, 56, 0
2, 25840, Note_off_c, 1, 59, 0
2, 25840, Note_off_c, 1, 64, 0
2, 25840, Note_off_c, 1, 90, 0
2, 25880, Note_on_c, 1, 45, 127
2, 25880, Note_on_c, 1, 52, 127
2, 25880, Note_on_c, 1, 57, 127
2, 25880, Note_on_c, 1, 81, 127
2, 25920, Note_off_c, 1, 81, 0
2, 25960, Note_on_c, 1, 76, 127
2, 26040, Note_off_c, 1, 76, 0
2, 26080, Note_on_c, 1, 71, 127
2, 26120, Note_off_c, 1, 45, 0
2, 26120, Note_off_c, 1, 52, 0
2, 26120, Note_off_c, 1, 57, 0
2, 26120, Note_off_c, 1, 71, 0
2, 26160, Note_on_c, 1, 73, 127
2, 26200, Note_off_c, 1, 73, 0
2, 26240, Note_on_c, 1, 73, 127
2, 26280, Note_on_c, 1, 64, 127
2, 26280, Note_off_c, 1, 73, 0
2, 26320, Note_off_c, 1, 64, 0
2, 26360, Note_on_c, 1, 38, 127
2, 26360, Note_on_c, 1, 50, 127
2, 26360, Note_on_c, 1, 71, 127
2, 26360, Note_on_c, 1, 77, 127
2, 26360, Note_on_c, 1, 83, 127
2, 26400, Note_off_c, 1, 38, 0
2, 26400, Note_off_c, 1, 50, 0
2, 26400, Note_on_c, 1, 56, 127
2, 26400, Note_on_c, 1, 63, 127
2, 26400, Note_off_c, 1, 71, 0
2, 26400, Note_on_c, 1, 72, 127
2, 26400, Note_off_c, 1, 77, 0
2, 26400, Note_off_c, 1, 83, 0
2, 26400, Note_on_c, 1, 84, 127
2, 26400, Note_on_c, 1, 87, 127
2, 26400, Note_on_c, 1, 92, 127
2, 26400, Note_on_c, 1, 96, 127
2, 26440, Note_off_c, 1, 56, 0
2, 26440, Note_off_c, 1, 63, 0
2, 26440, Note_on_c, 1, 69, 127
2, 26440, Note_on_c, 1, 71, 127
2, 26440, Note_off_c, 1, 72, 0
2, 26440, Note_on_c, 1, 74, 127
2, 26440, Note_off_c, 1, 84, 0
2, 26440, Note_on_c, 1, 85, 127
2, 26440, Note_off_c, 1, 87, 0
2, 26440, Note_off_c, 1, 92, 0
2, 26440, Note_off_c, 1, 96, 0
2, 26480, Note_on_c, 1, 55, 127
2, 26480, Note_on_c, 1, 62, 127
2, 26480, Note_on_c, 1, 65, 127
2, 26480, Note_off_c, 1, 69, 0
2, 26480, Note_off_c, 1, 71, 0
2, 26480, Note_on_c, 1, 77, 127
2, 26480, Note_off_c, 1, 85, 0
2, 26520, Note_off_c, 1, 55, 0
2, 26520, Note_off_c, 1, 62, 0
2, 26520, Note_off_c, 1, 65, 0
2, 26520, Note_on_c, 1, 69, 127
2, 26520, Note_on_c, 1, 71, 127
2, 26520, Note_off_c, 1, 77, 0
2, 26520, Note_on_c, 1, 85, 127
2, 26600, Note_off_c, 1, 69, 0
2, 26600, Note_off_c, 1, 71, 0
2, 26600, Note_off_c, 1, 74, 0
2, 26600, Note_on_c, 1, 83, 127
2, 26600, Note_off_c, 1, 85, 0
2, 26640, Note_on_c, 1, 47, 127
2, 26640, Note_on_c, 1, 59, 127
2, 26640, Note_off_c, 1, 83, 0
2, 26640, Note_on_c, 1, 93, 127
2, 26680, Note_off_c, 1, 93, 0
2, 26720, Note_on_c, 1, 42, 127
2, 26720, Note_off_c, 1, 47, 0
2, 26720, Note_on_c, 1, 54, 127
2, 26720, Note_off_c, 1, 59, 0
2, 26720, Note_on_c, 1, 75, 127
2, 26720, Note_on_c, 1, 78, 127
2, 26720, Note_on_c, 1, 83, 127
2, 26720, Note_on_c, 1, 87, 127
2, 26840, Note_off_c, 1, 42, 0
2, 26840, Note_off_c, 1, 54, 0
2, 26840, Note_off_c, 1, 75, 0
2, 26840, Note_off_c, 1, 78, 0
2, 26840, Note_off_c, 1, 83, 0
2, 26840, Note_off_c, 1, 87, 0
2, 26880, Note_on_c, 1, 42, 127
2, 26880, Note_on_c, 1, 54, 127
2, 26880, Note_on_c, 1, 75, 127
2, 26880, Note_on_c, 1, 78, 127
2, 26880, Note_on_c, 1, 83, 127
2, 26880, Note_on_c, 1, 87, 127
2, 27320, Note_off_c, 1, 42, 0
2, 27320, Note_off_c, 1, 54, 0
2, 27320, Note_on_c, 1, 59, 127
2, 27320, Note_off_c, 1, 75, 0
2, 27320, Note_off_c, 1, 83, 0
2, 27320, Note_on_c, 1, 86, 127
2, 27320, Note_off_c, 1, 87, 0
2, 27360, Note_on_c, 1, 43, 127
2, 27360, Note_off_c, 1, 59, 0
2, 27360, Note_on_c, 1, 72, 127
2, 27360, Note_off_c, 1, 78, 0
2, 27360, Note_off_c, 1, 86, 0
2, 27400, Note_on_c, 1, 56, 127
2, 27400, Note_on_c, 1, 70, 127
2, 27400, Note_off_c, 1, 72, 0
2, 27440, Note_off_c, 1, 43, 0
2, 27440, Note_off_c, 1, 56, 0
2, 27440, Note_off_c, 1, 70, 0
2, 27440, Note_on_c, 1, 84, 127
2, 27440, Note_on_c, 1, 87, 127
2, 27480, Note_off_c, 1, 84, 0
2, 27480, Note_on_c, 1, 91, 127
2, 27520, Note_off_c, 1, 87, 0
2, 27520, Note_on_c, 1, 90, 127
2, 27560, Note_off_c, 1, 90, 0
2, 27560, Note_off_c, 1, 91, 0
2, 27600, Note_on_c, 1, 91, 127
2, 27680, Note_off_c, 1, 91, 0
2, 27720, Note_on_c, 1, 29, 127
2, 27720, Note_on_c, 1, 54, 127
2, 27760, Note_off_c, 1, 29, 0
2, 27760, Note_on_c, 1, 36, 127
2, 27760, Note_on_c, 1, 48, 127
2, 27760, Note_off_c, 1, 54, 0
2, 27800, Note_off_c, 1, 36, 0
2, 27800, Note_on_c, 1, 60, 127
2, 27800, Note_on_c, 1, 86, 127
2, 27800, Note_on_c, 1, 94, 127
2, 27800, Note_on_c, 1, 98, 127
2, 27840, Note_off_c, 1, 60, 0
2, 27840, Note_off_c, 1, 86, 0
2, 27840, Note_off_c, 1, 94, 0
2, 27840, Note_off_c, 1, 98, 0
2, 27880, Note_off_c, 1, 48, 0
2, 27880, Note_on_c, 1, 49, 127
2, 27880, Note_on_c, 1, 50, 127
2, 27920, Note_off_c, 1, 49, 0
2, 28000, Note_off_c, 1, 50, 0
2, 28000, Note_on_c, 1, 63, 127
2, 28000, Note_on_c, 1, 69, 127
2, 28000, Note_on_c, 1, 72, 127
2, 28000, Note_on_c, 1, 81, 127
2, 28000, Note_on_c, 1, 89, 127
2, 28000, Note_on_c, 1, 93, 127
2, 28040, Note_off_c, 1, 63, 0
2, 28040, Note_off_c, 1, 69, 0
2, 28040, Note_off_c, 1, 72, 0
2, 28040, Note_off_c, 1, 81, 0
2, 28040, Note_off_c, 1, 89, 0
2, 28040, Note_off_c, 1, 93, 0
2, 28080, Note_on_c, 1, 55, 127
2, 28080, Note_on_c, 1, 100, 127
2, 28120, Note_on_c, 1, 98, 127
2, 28120, Note_off_c, 1, 100, 0
2, 28160, Note_off_c, 1, 98, 0
2, 28200, Note_off_c, 1, 55, 0
2, 28200, Note_on_c, 1, 98, 127
2, 28200, Note_on_c, 1, 100, 127
2, 28240, Note_on_c, 1, 37, 127
2, 28240, Note_on_c, 1, 41, 127
2, 28240, Note_on_c, 1, 44, 127
2, 28240, Note_on_c, 1, 47, 127
2, 28240, Note_on_c, 1, 49, 127
2, 28240, Note_on_c, 1, 78, 127
2, 28240, Note_on_c, 1, 80, 127
2, 28240, Note_off_c, 1, 98, 0
2, 28240, Note_off_c, 1, 100, 0
2, 28280, Note_off_c, 1, 37, 0
2, 28280, Note_off_c, 1, 41, 0
2, 28280, Note_on_c, 1, 42, 127
2, 28280, Note_off_c, 1, 44, 0
2, 28280, Note_off_c, 1, 47, 0
2, 28280, Note_off_c, 1, 49, 0
2, 28280, Note_off_c, 1, 78, 0
2, 28280, Note_off_c, 1, 80, 0
2, 28280, Note_on_c, 1, 93, 127
2, 28280, Note_on_c, 1, 95, 127
2, 28320, Note_on_c, 1, 31, 127
2, 28320, Note_off_c, 1, 42, 0
2, 28320, Note_on_c, 1, 45, 127
2, 28320, Note_on_c, 1, 61, 127
2, 28320, Note_off_c, 1, 93, 0
2, 28320, Note_off_c, 1, 95, 0
2, 28360, Note_off_c, 1, 31, 0
2, 28360, Note_off_c, 1, 45, 0
2, 28360, Note_on_c, 1, 49, 127
2, 28360, Note_on_c, 1, 54, 127
2, 28360, Note_on_c, 1, 56, 127
2, 28360, Note_on_c, 1, 60, 127
2, 28360, Note_off_c, 1, 61, 0
2, 28360, Note_on_c, 1, 84, 127
2, 28400, Note_off_c, 1, 49, 0
2, 28400, Note_off_c, 1, 54, 0
2, 28400, Note_off_c, 1, 56, 0
2, 28400, Note_off_c, 1, 60, 0
2, 28400, Note_on_c, 1, 75, 127
2, 28400, Note_on_c, 1, 82, 127
2, 28400, Note_off_c, 1, 84, 0
2, 28400, Note_on_c, 1, 99, 127
2, 28400, Note_on_c, 1, 104, 127
2, 28440, Note_on_c, 1, 50, 127
2, 28440, Note_on_c, 1, 74, 127
2, 28440, Note_off_c, 1, 75, 0
2, 28440, Note_on_c, 1, 79, 127
2, 28440, Note_off_c, 1, 99, 0
2, 28440, Note_off_c, 1, 104, 0
2, 28480, Note_on_c, 1, 43, 127
2, 28480, Note_on_c, 1, 67, 127
2, 28480, Note_off_c, 1, 74, 0
2, 28480, Note_on_c, 1, 76, 127
2, 28480, Note_off_c, 1, 79, 0
2, 28480, Note_off_c, 1, 82, 0
2, 28520, Note_off_c, 1, 43, 0
2, 28520, Note_off_c, 1, 50, 0
2, 28520, Note_on_c, 1, 60, 127
2, 28520, Note_off_c, 1, 76, 0
2, 28520, Note_on_c, 1, 95, 127
2, 28520, Note_on_c, 1, 96, 127
2, 28560, Note_off_c, 1, 60, 0
2, 28560, Note_off_c, 1, 67, 0
2, 28560, Note_off_c, 1, 95, 0
2, 28560, Note_off_c, 1, 96, 0
2, 28600, Note_on_c, 1, 31, 127
2, 28640, Note_off_c, 1, 31, 0
2, 28640, Note_on_c, 1, 55, 127
2, 28680, Note_on_c, 1, 48, 127
2, 28680, Note_off_c, 1, 55, 0
2, 28680, Note_on_c, 1, 76, 127
2, 28680, Note_on_c, 1, 82, 127
2, 28680, Note_on_c, 1, 84, 127
2, 28680, Note_on_c, 1, 88, 127
2, 28720, Note_off_c, 1, 48, 0
2, 28720, Note_on_c, 1, 58, 127
2, 28720, Note_off_c, 1, 76, 0
2, 28720, Note_off_c, 1, 82, 0
2, 28720, Note_off_c, 1, 84, 0
2, 28720, Note_off_c, 1, 88, 0
2, 28760, Note_off_c, 1, 58, 0
2, 28760, Note_on_c, 1, 64, 127
2, 28760, Note_on_c, 1, 72, 127
2, 28760, Note_on_c, 1, 79, 127
2, 28760, Note_on_c, 1, 91, 127
2, 28800, Note_off_c, 1, 64, 0
2, 28800, Note_off_c, 1, 72, 0
2, 28800, Note_off_c, 1, 79, 0
2, 28800, Note_off_c, 1, 91, 0
2, 28840, Note_on_c, 1, 43, 127
2, 28880, Note_off_c, 1, 43, 0
2, 28880, Note_on_c, 1, 60, 127
2, 28920, Note_off_c, 1, 60, 0
2, 29000, Note_on_c, 1, 48, 127
2, 29040, Note_off_c, 1, 48, 0
2, 29040, Note_on_c, 1, 57, 127
2, 29080, Note_off_c, 1, 57, 0
2, 29080, Note_on_c, 1, 60, 127
2, 29080, Note_on_c, 1, 67, 127
2, 29080, Note_on_c, 1, 86, 127
2, 29080, Note_on_c, 1, 88, 127
2, 29120, Note_off_c, 1, 60, 0
2, 29120, Note_off_c, 1, 67, 0
2, 29120, Note_off_c, 1, 86, 0
2, 29120, Note_on_c, 1, 87, 127
2, 29120, Note_off_c, 1, 88, 0
2, 29160, Note_on_c, 1, 29, 127
2, 29160, Note_on_c, 1, 36, 127
2, 29160, Note_on_c, 1, 51, 127
2, 29160, Note_on_c, 1, 57, 127
2, 29160, Note_off_c, 1, 87, 0
2, 29200, Note_off_c, 1, 29, 0
2, 29200, Note_off_c, 1, 36, 0
2, 29200, Note_off_c, 1, 51, 0
2, 29200, Note_off_c, 1, 57, 0
2, 29200, Note_on_c, 1, 96, 127
2, 29200, Note_on_c, 1, 98, 127
2, 29240, Note_on_c, 1, 34, 127
2, 29240, Note_on_c, 1, 85, 127
2, 29240, Note_on_c, 1, 89, 127
2, 29240, Note_off_c, 1, 96, 0
2, 29240, Note_off_c, 1, 98, 0
2, 29280, Note_off_c, 1, 34, 0
2, 29280, Note_on_c, 1, 69, 127
2, 29280, Note_off_c, 1, 85, 0
2, 29280, Note_off_c, 1, 89, 0
2, 29280, Note_on_c, 1, 93, 127
2, 29280, Note_on_c, 1, 96, 127
2, 29320, Note_off_c, 1, 69, 0
2, 29320, Note_on_c, 1, 72, 127
2, 29320, Note_on_c, 1, 75, 127
2, 29320, Note_on_c, 1, 79, 127
2, 29320, Note_on_c, 1, 84, 127
2, 29320, Note_on_c, 1, 86, 127
2, 29320, Note_off_c, 1, 93, 0
2, 29320, Note_off_c, 1, 96, 0
2, 29360, Note_on_c, 1, 48, 127
2, 29360, Note_off_c, 1, 72, 0
2, 29360, Note_off_c, 1, 75, 0
2, 29360, Note_off_c, 1, 79, 0
2, 29360, Note_off_c, 1, 84, 0
2, 29360, Note_off_c, 1, 86, 0
2, 29360, Note_on_c, 1, 88, 127
2, 29360, Note_on_c, 1, 91, 127
2, 29400, Note_off_c, 1, 48, 0
2, 29400, Note_on_c, 1, 53, 127
2, 29400, Note_on_c, 1, 63, 127
2, 29400, Note_on_c, 1, 65, 127
2, 29400, Note_on_c, 1, 69, 127
2, 29400, Note_on_c, 1, 72, 127
2, 29400, Note_on_c, 1, 77, 127
2, 29400, Note_off_c, 1, 88, 0
2, 29400, Note_off_c, 1, 91, 0
2, 29440, Note_off_c, 1, 53, 0
2, 29440, Note_off_c, 1, 63, 0
2, 29440, Note_off_c, 1, 65, 0
2, 29440, Note_off_c, 1, 69, 0
2, 29440, Note_off_c, 1, 72, 0
2, 29440, Note_off_c, 1, 77, 0
2, 29440, Note_on_c, 1, 89, 127
2, 29440, Note_on_c, 1, 90, 127
2, 29440, Note_on_c, 1, 92, 127
2, 29480, Note_off_c, 1, 89, 0
2, 29480, Note_off_c, 1, 90, 0
2, 29480, Note_off_c, 1, 92, 0
2, 29520, Note_on_c, 1, 48, 127
2, 29640, Note_off_c, 1, 48, 0
2, 29680, Note_on_c, 1, 52, 127
2, 29680, Note_on_c, 1, 84, 127
2, 29680, Note_on_c, 1, 96, 127
2, 29760, Note_off_c, 1, 52, 0
2, 29800, Note_on_c, 1, 60, 127
2, 29840, Note_on_c, 1, 57, 127
2, 29840, Note_off_c, 1, 60, 0
2, 29880, Note_off_c, 1, 57, 0
2, 29880, Note_on_c, 1, 60, 127
2, 29920, Note_off_c, 1, 60, 0
2, 29960, Note_on_c, 1, 60, 127
2, 29960, Note_off_c, 1, 84, 0
2, 29960, Note_off_c, 1, 96, 0
2, 30000, Note_on_c, 1, 37, 127
2, 30000, Note_on_c, 1, 49, 127
2, 30000, Note_off_c, 1, 60, 0
2, 30000, Note_on_c, 1, 77, 127
2, 30000, Note_on_c, 1, 89, 127
2, 30040, Note_off_c, 1, 37, 0
2, 30040, Note_off_c, 1, 49, 0
2, 30040, Note_on_c, 1, 55, 127
2, 30040, Note_off_c, 1, 77, 0
2, 30040, Note_on_c, 1, 80, 127
2, 30040, Note_off_c, 1, 89, 0
2, 30040, Note_on_c, 1, 92, 127
2, 30120, Note_off_c, 1, 55, 0
2, 30160, Note_on_c, 1, 63, 127
2, 30160, Note_off_c, 1, 80, 0
2, 30160, Note_off_c, 1, 92, 0
2, 30200, Note_on_c, 1, 55, 127
2, 30200, Note_off_c, 1, 63, 0
2, 30200, Note_on_c, 1, 84, 127
2, 30200, Note_on_c, 1, 96, 127
2, 30240, Note_off_c, 1, 55, 0
2, 30280, Note_on_c, 1, 45, 127
2, 30320, Note_off_c, 1, 45, 0
2, 30320, Note_on_c, 1, 52, 127
2, 30320, Note_off_c, 1, 84, 0
2, 30320, Note_off_c, 1, 96, 0
2, 30360, Note_on_c, 1, 41, 127
2, 30360, Note_off_c, 1, 52, 0
2, 30360, Note_on_c, 1, 84, 127
2, 30360, Note_on_c, 1, 96, 127
2, 30400, Note_off_c, 1, 41, 0
2, 30400, Note_on_c, 1, 72, 127
2, 30400, Note_off_c, 1, 96, 0
2, 30440, Note_on_c, 1, 43, 127
2, 30440, Note_off_c, 1, 72, 0
2, 30440, Note_on_c, 1, 96, 127
2, 30480, Note_off_c, 1, 43, 0
2, 30480, Note_on_c, 1, 48, 127
2, 30480, Note_off_c, 1, 84, 0
2, 30480, Note_off_c, 1, 96, 0
2, 30520, Note_off_c, 1, 48, 0
2, 30520, Note_on_c, 1, 57, 127
2, 30520, Note_on_c, 1, 84, 127
2, 30520, Note_on_c, 1, 96, 127
2, 30600, Note_off_c, 1, 57, 0
2, 30640, Note_on_c, 1, 53, 127
2, 30680, Note_off_c, 1, 53, 0
2, 30720, Note_on_c, 1, 57, 127
2, 30760, Note_on_c, 1, 53, 127
2, 30760, Note_off_c, 1, 57, 0
2, 30760, Note_off_c, 1, 84, 0
2, 30760, Note_off_c, 1, 96, 0
2, 30800, Note_on_c, 1, 72, 127
2, 30800, Note_on_c, 1, 84, 127
2, 30840, Note_on_c, 1, 48, 127
2, 30840, Note_off_c, 1, 53, 0
2, 30880, Note_on_c, 1, 45, 127
2, 30880, Note_off_c, 1, 48, 0
2, 30920, Note_off_c, 1, 45, 0
2, 30960, Note_on_c, 1, 45, 127
2, 31000, Note_off_c, 1, 45, 0
2, 31000, Note_on_c, 1, 48, 127
2, 31040, Note_off_c, 1, 48, 0
2, 31040, Note_off_c, 1, 72, 0
2, 31040, Note_off_c, 1, 84, 0
2, 31080, Note_on_c, 1, 72, 127
2, 31080, Note_on_c, 1, 84, 127
2, 31120, Note_on_c, 1, 45, 127
2, 31160, Note_off_c, 1, 45, 0
2, 31200, Note_on_c, 1, 45, 127
2, 31240, Note_off_c, 1, 45, 0
2, 31240, Note_on_c, 1, 48, 127
2, 31240, Note_off_c, 1, 72, 0
2, 31240, Note_off_c, 1, 84, 0
2, 31280, Note_on_c, 1, 69, 127
2, 31280, Note_on_c, 1, 81, 127
2, 31360, Note_off_c, 1, 48, 0
2, 31360, Note_off_c, 1, 69, 0
2, 31360, Note_off_c, 1, 81, 0
2, 31400, Note_on_c, 1, 43, 127
2, 31400, Note_on_c, 1, 69, 127
2, 31400, Note_on_c, 1, 81, 127
2, 31440, Note_off_c, 1, 43, 0
2, 31440, Note_on_c, 1, 53, 127
2, 31440, Note_off_c, 1, 69, 0
2, 31440, Note_off_c, 1, 81, 0
2, 31480, Note_on_c, 1, 50, 127
2, 31480, Note_off_c, 1, 53, 0
2, 31480, Note_on_c, 1, 70, 127
2, 31480, Note_on_c, 1, 82, 127
2, 31520, Note_off_c, 1, 50, 0
2, 31560, Note_on_c, 1, 58, 127
2, 31560, Note_off_c, 1, 70, 0
2, 31560, Note_off_c, 1, 82, 0
2, 31600, Note_off_c, 1, 58, 0
2, 31640, Note_on_c, 1, 46, 127
2, 31640, Note_on_c, 1, 63, 127
2, 31640, Note_on_c, 1, 75, 127
2, 31680, Note_off_c, 1, 63, 0
2, 31680, Note_off_c, 1, 75, 0
2, 31720, Note_off_c, 1, 46, 0
2, 31720, Note_on_c, 1, 53, 127
2, 31720, Note_on_c, 1, 65, 127
2, 31720, Note_on_c, 1, 73, 127
2, 31760, Note_off_c, 1, 65, 0
2, 31760, Note_off_c, 1, 73, 0
2, 31800, Note_on_c, 1, 62, 127
2, 31800, Note_on_c, 1, 74, 127
2, 31840, Note_off_c, 1, 53, 0
2, 31880, Note_on_c, 1, 55, 127
2, 31880, Note_off_c, 1, 62, 0
2, 31880, Note_off_c, 1, 74, 0
2, 31920, Note_off_c, 1, 55, 0
2, 31920, Note_on_c, 1, 62, 127
2, 31920, Note_on_c, 1, 67, 127
2, 31920, Note_on_c, 1, 70, 127
2, 31920, Note_on_c, 1, 74, 127
2, 31960, Note_off_c, 1, 62, 0
2, 31960, Note_off_c, 1, 67, 0
2, 31960, Note_off_c, 1, 70, 0
2, 31960, Note_off_c, 1, 74, 0
2, 32000, Note_on_c, 1, 55, 127
2, 32000, Note_on_c, 1, 75, 127
2, 32000, Note_on_c, 1, 79, 127
2, 32040, Note_on_c, 1, 50, 127
2, 32040, Note_off_c, 1, 55, 0
2, 32040, Note_on_c, 1, 58, 127
2, 32040, Note_off_c, 1, 75, 0
2, 32040, Note_on_c, 1, 77, 127
2, 32040, Note_off_c, 1, 79, 0
2, 32080, Note_off_c, 1, 50, 0
2, 32080, Note_off_c, 1, 58, 0
2, 32080, Note_on_c, 1, 70, 127
2, 32080, Note_on_c, 1, 82, 127
2, 32120, Note_on_c, 1, 58, 127
2, 32120, Note_off_c, 1, 70, 0
2, 32120, Note_off_c, 1, 77, 0
2, 32120, Note_off_c, 1, 82, 0
2, 32160, Note_off_c, 1, 58, 0
2, 32160, Note_on_c, 1, 70, 127
2, 32160, Note_on_c, 1, 74, 127
2, 32160, Note_on_c, 1, 77, 127
2, 32200, Note_off_c, 1, 70, 0
2, 32240, Note_on_c, 1, 58, 127
2, 32240, Note_on_c, 1, 62, 127
2, 32240, Note_off_c, 1, 74, 0
2, 32280, Note_off_c, 1, 58, 0
2, 32280, Note_off_c, 1, 62, 0
2, 32280, Note_on_c, 1, 70, 127
2, 32280, Note_off_c, 1, 77, 0
2, 32320, Note_on_c, 1, 55, 127
2, 32320, Note_on_c, 1, 68, 127
2, 32360, Note_on_c, 1, 51, 127
2, 32360, Note_off_c, 1, 55, 0
2, 32360, Note_on_c, 1, 65, 127
2, 32360, Note_off_c, 1, 70, 0
2, 32360, Note_on_c, 1, 77, 127
2, 32440, Note_off_c, 1, 51, 0
2, 32440, Note_on_c, 1, 53, 127
2, 32440, Note_off_c, 1, 77, 0
2, 32480, Note_on_c, 1, 42, 127
2, 32480, Note_on_c, 1, 51, 127
2, 32480, Note_off_c, 1, 53, 0
2, 32480, Note_on_c, 1, 60, 127
2, 32480, Note_off_c, 1, 65, 0
2, 32480, Note_off_c, 1, 68, 0
2, 32480, Note_on_c, 1, 72, 127
2, 32520, Note_off_c, 1, 42, 0
2, 32520, Note_off_c, 1, 51, 0
2, 32520, Note_on_c, 1, 56, 127
2, 32520, Note_on_c, 1, 59, 127
2, 32520, Note_off_c, 1, 60, 0
2, 32520, Note_on_c, 1, 63, 127
2, 32520, Note_off_c, 1, 72, 0
2, 32520, Note_on_c, 1, 75, 127
2, 32520, Note_on_c, 1, 80, 127
2, 32560, Note_on_c, 1, 51, 127
2, 32560, Note_off_c, 1, 56, 0
2, 32560, Note_off_c, 1, 59, 0
2, 32560, Note_off_c, 1, 63, 0
2, 32560, Note_off_c, 1, 75, 0
2, 32560, Note_off_c, 1, 80, 0
2, 32600, Note_off_c, 1, 51, 0
2, 32600, Note_on_c, 1, 53, 127
2, 32600, Note_on_c, 1, 65, 127
2, 32600, Note_on_c, 1, 77, 127
2, 32640, Note_off_c, 1, 53, 0
2, 32640, Note_off_c, 1, 65, 0
2, 32640, Note_off_c, 1, 77, 0
2, 32680, Note_on_c, 1, 53, 127
2, 32680, Note_on_c, 1, 60, 127
2, 32680, Note_on_c, 1, 67, 127
2, 32680, Note_on_c, 1, 79, 127
2, 32720, Note_off_c, 1, 60, 0
2, 32720, Note_on_c, 1, 63, 127
2, 32720, Note_off_c, 1, 67, 0
2, 32720, Note_on_c, 1, 69, 127
2, 32720, Note_off_c, 1, 79, 0
2, 32760, Note_off_c, 1, 53, 0
2, 32760, Note_on_c, 1, 61, 127
2, 32760, Note_off_c, 1, 63, 0
2, 32760, Note_off_c, 1, 69, 0
2, 32760, Note_on_c, 1, 70, 127
2, 32760, Note_on_c, 1, 81, 127
2, 32800, Note_on_c, 1, 53, 127
2, 32800, Note_on_c, 1, 60, 127
2, 32800, Note_off_c, 1, 61, 0
2, 32800, Note_on_c, 1, 67, 127
2, 32800, Note_off_c, 1, 70, 0
2, 32800, Note_on_c, 1, 79, 127
2, 32800, Note_off_c, 1, 81, 0
2, 32840, Note_on_c, 1, 31, 127
2, 32840, Note_on_c, 1, 43, 127
2, 32840, Note_off_c, 1, 53, 0
2, 32840, Note_off_c, 1, 60, 0
2, 32840, Note_off_c, 1, 67, 0
2, 32840, Note_on_c, 1, 70, 127
2, 32840, Note_on_c, 1, 75, 127
2, 32840, Note_off_c, 1, 79, 0
2, 32840, Note_on_c, 1, 87, 127
2, 32880, Note_off_c, 1, 31, 0
2, 32880, Note_off_c, 1, 43, 0
2, 32880, Note_on_c, 1, 63, 127
2, 32880, Note_off_c, 1, 75, 0
2, 32880, Note_on_c, 1, 80, 127
2, 32880, Note_off_c, 1, 87, 0
2, 32920, Note_on_c, 1, 53, 127
2, 32920, Note_off_c, 1, 63, 0
2, 32920, Note_on_c, 1, 67, 127
2, 32920, Note_on_c, 1, 69, 127
2, 32920, Note_off_c, 1, 70, 0
2, 32920, Note_on_c, 1, 75, 127
2, 32920, Note_off_c, 1, 80, 0
2, 32960, Note_on_c, 1, 42, 127
2, 32960, Note_off_c, 1, 53, 0
2, 32960, Note_off_c, 1, 67, 0
2, 32960, Note_off_c, 1, 69, 0
2, 32960, Note_on_c, 1, 71, 127
2, 32960, Note_off_c, 1, 75, 0
2, 32960, Note_on_c, 1, 78, 127
2, 33000, Note_off_c, 1, 42, 0
2, 33000, Note_off_c, 1, 71, 0
2, 33000, Note_off_c, 1, 78, 0
2, 33040, Note_on_c, 1, 58, 127
2, 33040, Note_on_c, 1, 69, 127
2, 33040, Note_on_c, 1, 77, 127
2, 33080, Note_off_c, 1, 58, 0
2, 33080, Note_on_c, 1, 63, 127
2, 33080, Note_off_c, 1, 77, 0
2, 33120, Note_on_c, 1, 53, 127
2, 33120, Note_on_c, 1, 65, 127
2, 33120, Note_off_c, 1, 69, 0
2, 33120, Note_on_c, 1, 72, 127
2, 33160, Note_off_c, 1, 53, 0
2, 33160, Note_off_c, 1, 63, 0
2, 33160, Note_off_c, 1, 65, 0
2, 33160, Note_off_c, 1, 72, 0
2, 33240, Note_on_c, 1, 53, 127
2, 33240, Note_on_c, 1, 63, 127
2, 33240, Note_on_c, 1, 75, 127
2, 33560, Note_off_c, 1, 53, 0
2, 33560, Note_off_c, 1, 63, 0
2, 33600, Note_on_c, 1, 53, 127
2, 33600, Note_on_c, 1, 69, 127
2, 33640, Note_off_c, 1, 53, 0
2, 33640, Note_off_c, 1, 69, 0
2, 33640, Note_off_c, 1, 75, 0
2, 33680, Note_on_c, 1, 57, 127
2, 33680, Note_on_c, 1, 65, 127
2, 33680, Note_on_c, 1, 77, 127
2, 33720, Note_off_c, 1, 57, 0
2, 33720, Note_off_c, 1, 65, 0
2, 33720, Note_off_c, 1, 77, 0
2, 33760, Note_on_c, 1, 55, 127
2, 33760, Note_on_c, 1, 58, 127
2, 33760, Note_on_c, 1, 62, 127
2, 33760, Note_on_c, 1, 77, 127
2, 33840, Note_off_c, 1, 55, 0
2, 33840, Note_off_c, 1, 58, 0
2, 33840, Note_on_c, 1, 60, 127
2, 33840, Note_off_c, 1, 62, 0
2, 33840, Note_on_c, 1, 74, 127
2, 33840, Note_off_c, 1, 77, 0
2, 33880, Note_on_c, 1, 55, 127
2, 33880, Note_on_c, 1, 58, 127
2, 33880, Note_off_c, 1, 60, 0
2, 33880, Note_on_c, 1, 62, 127
2, 33880, Note_off_c, 1, 74, 0
2, 33880, Note_on_c, 1, 76, 127
2, 34000, Note_off_c, 1, 55, 0
2, 34000, Note_off_c, 1, 58, 0
2, 34000, Note_on_c, 1, 74, 127
2, 34000, Note_off_c, 1, 76, 0
2, 34040, Note_on_c, 1, 54, 127
2, 34040, Note_on_c, 1, 57, 127
2, 34040, Note_on_c, 1, 60, 127
2, 34080, Note_on_c, 1, 43, 127
2, 34080, Note_off_c, 1, 54, 0
2, 34080, Note_on_c, 1, 55, 127
2, 34080, Note_off_c, 1, 57, 0
2, 34080, Note_on_c, 1, 58, 127
2, 34080, Note_off_c, 1, 60, 0
2, 34080, Note_off_c, 1, 74, 0
2, 34120, Note_off_c, 1, 43, 0
2, 34120, Note_off_c, 1, 55, 0
2, 34120, Note_off_c, 1, 58, 0
2, 34120, Note_off_c, 1, 62, 0
2, 34160, Note_on_c, 1, 46, 127
2, 34160, Note_on_c, 1, 58, 127
2, 34160, Note_on_c, 1, 62, 127
2, 34160, Note_on_c, 1, 65, 127
2, 34160, Note_on_c, 1, 70, 127
2, 34360, Note_off_c, 1, 46, 0
2, 34360, Note_off_c, 1, 62, 0
2, 34360, Note_off_c, 1, 65, 0
2, 34360, Note_off_c, 1, 70, 0
2, 34400, Note_on_c, 1, 51, 127
2, 34400, Note_on_c, 1, 62, 127
2, 34440, Note_off_c, 1, 62, 0
2, 34480, Note_off_c, 1, 51, 0
2, 34480, Note_off_c, 1, 58, 0
2, 34520, Note_on_c, 1, 33, 127
2, 34520, Note_on_c, 1, 45, 127
2, 34520, Note_on_c, 1, 53, 127
2, 34520, Note_on_c, 1, 60, 127
2, 34520, Note_on_c, 1, 63, 127
2, 34520, Note_on_c, 1, 65, 127
2, 34560, Note_off_c, 1, 33, 0
2, 34560, Note_off_c, 1, 45, 0
2, 34560, Note_on_c, 1, 50, 127
2, 34560, Note_off_c, 1, 53, 0
2, 34560, Note_on_c, 1, 55, 127
2, 34560, Note_off_c, 1, 65, 0
2, 34600, Note_off_c, 1, 50, 0
2, 34600, Note_off_c, 1, 55, 0
2, 34600, Note_on_c, 1, 62, 127
2, 34600, Note_off_c, 1, 63, 0
2, 34600, Note_on_c, 1, 69, 127
2, 34600, Note_on_c, 1, 74, 127
2, 34600, Note_on_c, 1, 88, 127
2, 34640, Note_on_c, 1, 33, 127
2, 34640, Note_on_c, 1, 45, 127
2, 34640, Note_on_c, 1, 53, 127
2, 34640, Note_off_c, 1, 62, 0
2, 34640, Note_on_c, 1, 63, 127
2, 34640, Note_on_c, 1, 65, 127
2, 34640, Note_off_c, 1, 69, 0
2, 34640, Note_off_c, 1, 74, 0
2, 34640, Note_off_c, 1, 88, 0
2, 34680, Note_off_c, 1, 33, 0
2, 34680, Note_off_c, 1, 45, 0
2, 34680, Note_on_c, 1, 52, 127
2, 34680, Note_off_c, 1, 53, 0
2, 34680, Note_off_c, 1, 63, 0
2, 34680, Note_off_c, 1, 65, 0
2, 34680, Note_on_c, 1, 67, 127
2, 34680, Note_on_c, 1, 72, 127
2, 34680, Note_on_c, 1, 82, 127
2, 34680, Note_on_c, 1, 91, 127
2, 34680, Note_on_c, 1, 94, 127
2, 34720, Note_off_c, 1, 52, 0
2, 34720, Note_off_c, 1, 60, 0
2, 34720, Note_off_c, 1, 72, 0
2, 34720, Note_on_c, 1, 79, 127
2, 34720, Note_off_c, 1, 94, 0
2, 34760, Note_on_c, 1, 57, 127
2, 34760, Note_on_c, 1, 63, 127
2, 34760, Note_on_c, 1, 65, 127
2, 34760, Note_off_c, 1, 67, 0
2, 34760, Note_on_c, 1, 75, 127
2, 34760, Note_on_c, 1, 77, 127
2, 34760, Note_off_c, 1, 79, 0
2, 34760, Note_on_c, 1, 81, 127
2, 34760, Note_off_c, 1, 82, 0
2, 34760, Note_on_c, 1, 86, 127
2, 34760, Note_off_c, 1, 91, 0
2, 34800, Note_off_c, 1, 75, 0
2, 34800, Note_off_c, 1, 77, 0
2, 34800, Note_off_c, 1, 81, 0
2, 34800, Note_off_c, 1, 86, 0
2, 34840, Note_on_c, 1, 41, 127
2, 34840, Note_on_c, 1, 48, 127
2, 34840, Note_on_c, 1, 53, 127
2, 34840, Note_off_c, 1, 65, 0
2, 34960, Note_off_c, 1, 41, 0
2, 34960, Note_off_c, 1, 48, 0
2, 34960, Note_off_c, 1, 53, 0
2, 34960, Note_off_c, 1, 57, 0
2, 34960, Note_off_c, 1, 63, 0
2, 35000, Note_on_c, 1, 51, 127
2, 35000, Note_on_c, 1, 55, 127
2, 35000, Note_on_c, 1, 72, 127
2, 35080, Note_off_c, 1, 72, 0
2, 35080, Note_on_c, 1, 74, 127
2, 35120, Note_on_c, 1, 72, 127
2, 35120, Note_off_c, 1, 74, 0
2, 35160, Note_off_c, 1, 72, 0
2, 35160, Note_on_c, 1, 74, 127
2, 35200, Note_off_c, 1, 74, 0
2, 35240, Note_on_c, 1, 67, 127
2, 35280, Note_off_c, 1, 67, 0
2, 35280, Note_on_c, 1, 74, 127
2, 35320, Note_off_c, 1, 51, 0
2, 35320, Note_off_c, 1, 55, 0
2, 35320, Note_off_c, 1, 74, 0
2, 35400, Note_on_c, 1, 44, 127
2, 35400, Note_on_c, 1, 72, 127
2, 35400, Note_on_c, 1, 75, 127
2, 35400, Note_on_c, 1, 80, 127
2, 35680, Note_off_c, 1, 72, 0
2, 35680, Note_off_c, 1, 75, 0
2, 35680, Note_off_c, 1, 80, 0
2, 35720, Note_off_c, 1, 44, 0
2, 35720, Note_on_c, 1, 51, 127
2, 35720, Note_on_c, 1, 56, 127
2, 35720, Note_on_c, 1, 60, 127
2, 35720, Note_on_c, 1, 68, 127
2, 35720, Note_on_c, 1, 75, 127
2, 35880, Note_off_c, 1, 51, 0
2, 35880, Note_off_c, 1, 56, 0
2, 35880, Note_off_c, 1, 60, 0
2, 35880, Note_off_c, 1, 68, 0
2, 35880, Note_off_c, 1, 75, 0
2, 35920, Note_on_c, 1, 72, 127
2, 36080, Note_on_c, 1, 56, 127
2, 36080, Note_on_c, 1, 60, 127
2, 36080, Note_on_c, 1, 66, 127
2, 36400, Note_off_c, 1, 56, 0
2, 36400, Note_off_c, 1, 60, 0
2, 36400, Note_off_c, 1, 66, 0
2, 36400, Note_off_c, 1, 72, 0
2, 36440, Note_on_c, 1, 60, 127
2, 36440, Note_on_c, 1, 63, 127
2, 36440, Note_on_c, 1, 68, 127
2, 36440, Note_on_c, 1, 75, 127
2, 36560, Note_off_c, 1, 60, 0
2, 36560, Note_off_c, 1, 63, 0
2, 36560, Note_off_c, 1, 68, 0
2, 36560, Note_off_c, 1, 75, 0
2, 36600, Note_on_c, 1, 61, 127
2, 36600, Note_on_c, 1, 68, 127
2, 36600, Note_on_c, 1, 77, 127
2, 36600, Note_on_c, 1, 84, 127
2, 36920, Note_off_c, 1, 61, 0
2, 36920, Note_off_c, 1, 68, 0
2, 36920, Note_off_c, 1, 77, 0
2, 36920, Note_off_c, 1, 84, 0
2, 36960, Note_on_c, 1, 32, 127
2, 36960, Note_on_c, 1, 38, 127
2, 36960, Note_on_c, 1, 44, 127
2, 36960, Note_on_c, 1, 71, 127
2, 37000, Note_off_c, 1, 32, 0
2, 37000, Note_off_c, 1, 38, 0
2, 37000, Note_on_c, 1, 43, 127
2, 37000, Note_off_c, 1, 44, 0
2, 37000, Note_on_c, 1, 77, 127
2, 37000, Note_on_c, 1, 83, 127
2, 37040, Note_on_c, 1, 31, 127
2, 37040, Note_on_c, 1, 36, 127
2, 37040, Note_on_c, 1, 39, 127
2, 37040, Note_on_c, 1, 55, 127
2, 37040, Note_on_c, 1, 60, 127
2, 37040, Note_on_c, 1, 63, 127
2, 37040, Note_on_c, 1, 67, 127
2, 37040, Note_off_c, 1, 71, 0
2, 37040, Note_off_c, 1, 77, 0
2, 37040, Note_off_c, 1, 83, 0
2, 37080, Note_off_c, 1, 31, 0
2, 37080, Note_off_c, 1, 36, 0
2, 37080, Note_off_c, 1, 39, 0
2, 37080, Note_off_c, 1, 43, 0
2, 37080, Note_off_c, 1, 55, 0
2, 37080, Note_off_c, 1, 60, 0
2, 37080, Note_off_c, 1, 63, 0
2, 37080, Note_off_c, 1, 67, 0
2, 37120, Note_on_c, 1, 46, 127
2, 37120, Note_on_c, 1, 77, 127
2, 37120, Note_on_c, 1, 79, 127
2, 37120, Note_on_c, 1, 89, 127
2, 37160, Note_off_c, 1, 46, 0
2, 37160, Note_on_c, 1, 49, 127
2, 37160, Note_on_c, 1, 66, 127
2, 37160, Note_on_c, 1, 69, 127
2, 37160, Note_off_c, 1, 77, 0
2, 37160, Note_on_c, 1, 78, 127
2, 37160, Note_off_c, 1, 79, 0
2, 37160, Note_off_c, 1, 89, 0
2, 37200, Note_off_c, 1, 49, 0
2, 37200, Note_off_c, 1, 66, 0
2, 37200, Note_on_c, 1, 76, 127
2, 37200, Note_off_c, 1, 78, 0
2, 37200, Note_on_c, 1, 88, 127
2, 37200, Note_on_c, 1, 91, 127
2, 37240, Note_off_c, 1, 69, 0
2, 37240, Note_off_c, 1, 76, 0
2, 37240, Note_off_c, 1, 88, 0
2, 37240, Note_off_c, 1, 91, 0
2, 37280, Note_on_c, 1, 45, 127
2, 37280, Note_on_c, 1, 81, 127
2, 37280, Note_on_c, 1, 86, 127
2, 37280, Note_on_c, 1, 90, 127
2, 37280, Note_on_c, 1, 93, 127
2, 37360, Note_off_c, 1, 45, 0
2, 37400, Note_on_c, 1, 57, 127
2, 37400, Note_on_c, 1, 63, 127
2, 37400, Note_on_c, 1, 65, 127
2, 37400, Note_on_c, 1, 72, 127
2, 37400, Note_on_c, 1, 75, 127
2, 37400, Note_on_c, 1, 77, 127
2, 37400, Note_on_c, 1, 84, 127
2, 37400, Note_off_c, 1, 86, 0
2, 37400, Note_off_c, 1, 90, 0
2, 37400, Note_off_c, 1, 93, 0
2, 37440, Note_off_c, 1, 57, 0
2, 37440, Note_off_c, 1, 63, 0
2, 37440, Note_off_c, 1, 65, 0
2, 37440, Note_off_c, 1, 72, 0
2, 37440, Note_off_c, 1, 75, 0
2, 37440, Note_off_c, 1, 77, 0
2, 37440, Note_off_c, 1, 84, 0
2, 37440, Note_on_c, 1, 86, 127
2, 37440, Note_on_c, 1, 90, 127
2, 37440, Note_on_c, 1, 93, 127
2, 37480, Note_on_c, 1, 33, 127
2, 37480, Note_on_c, 1, 36, 127
2, 37480, Note_on_c, 1, 45, 127
2, 37480, Note_on_c, 1, 77, 127
2, 37480, Note_off_c, 1, 81, 0
2, 37480, Note_off_c, 1, 86, 0
2, 37480, Note_on_c, 1, 89, 127
2, 37480, Note_off_c, 1, 90, 0
2, 37480, Note_off_c, 1, 93, 0
2, 37520, Note_off_c, 1, 33, 0
2, 37520, Note_off_c, 1, 36, 0
2, 37520, Note_off_c, 1, 45, 0
2, 37520, Note_off_c, 1, 77, 0
2, 37520, Note_on_c, 1, 81, 127
2, 37520, Note_on_c, 1, 86, 127
2, 37520, Note_off_c, 1, 89, 0
2, 37520, Note_on_c, 1, 90, 127
2, 37520, Note_on_c, 1, 93, 127
2, 37560, Note_on_c, 1, 53, 127
2, 37560, Note_on_c, 1, 59, 127
2, 37560, Note_off_c, 1, 81, 0
2, 37560, Note_on_c, 1, 83, 127
2, 37560, Note_on_c, 1, 88, 127
2, 37560, Note_off_c, 1, 90, 0
2, 37560, Note_off_c, 1, 93, 0
2, 37600, Note_off_c, 1, 53, 0
2, 37600, Note_off_c, 1, 59, 0
2, 37600, Note_off_c, 1, 83, 0
2, 37600, Note_off_c, 1, 86, 0
2, 37600, Note_off_c, 1, 88, 0
2, 37640, Note_on_c, 1, 77, 127
2, 37640, Note_on_c, 1, 89, 127
2, 37680, Note_on_c, 1, 48, 127
2, 37680, Note_on_c, 1, 53, 127
2, 37680, Note_on_c, 1, 57, 127
2, 37680, Note_on_c, 1, 60, 127
2, 37680, Note_on_c, 1, 81, 127
2, 37680, Note_on_c, 1, 84, 127
2, 37840, Note_off_c, 1, 48, 0
2, 37840, Note_off_c, 1, 53, 0
2, 37840, Note_off_c, 1, 57, 0
2, 37840, Note_off_c, 1, 60, 0
2, 37840, Note_off_c, 1, 77, 0
2, 37840, Note_off_c, 1, 81, 0
2, 37840, Note_off_c, 1, 84, 0
2, 37840, Note_off_c, 1, 89, 0
2, 37840, Note_on_c, 1, 93, 127
2, 37840, Note_on_c, 1, 95, 127
2, 37840, Note_on_c, 1, 98, 127
2, 37840, Note_on_c, 1, 101, 127
2, 37840, Note_on_c, 1, 105, 127
2, 37880, Note_on_c, 1, 48, 127
2, 37880, Note_on_c, 1, 53, 127
2, 37880, Note_on_c, 1, 57, 127
2, 37880, Note_on_c, 1, 60, 127
2, 37880, Note_on_c, 1, 77, 127
2, 37880, Note_on_c, 1, 81, 127
2, 37880, Note_on_c, 1, 84, 127
2, 37880, Note_on_c, 1, 89, 127
2, 37880, Note_off_c, 1, 93, 0
2, 37880, Note_off_c, 1, 95, 0
2, 37880, Note_off_c, 1, 98, 0
2, 37880, Note_off_c, 1, 101, 0
2, 37880, Note_off_c, 1, 105, 0
2, 38000, Note_off_c, 1, 48, 0
2, 38000, Note_off_c, 1, 53, 0
2, 38000, Note_off_c, 1, 57, 0
2, 38000, Note_off_c, 1, 60, 0
2, 38000, Note_off_c, 1, 77, 0
2, 38000, Note_off_c, 1, 81, 0
2, 38000, Note_off_c, 1, 84, 0
2, 38000, Note_off_c, 1, 89, 0
2, 38040, Note_on_c, 1, 52, 127
2, 38040, Note_on_c, 1, 54, 127
2, 38040, Note_on_c, 1, 57, 127
2, 38040, Note_on_c, 1, 64, 127
2, 38040, Note_on_c, 1, 76, 127
2, 38040, Note_on_c, 1, 88, 127
2, 38080, Note_on_c, 1, 51, 127
2, 38080, Note_off_c, 1, 52, 0
2, 38080, Note_off_c, 1, 54, 0
2, 38080, Note_on_c, 1, 56, 127
2, 38080, Note_off_c, 1, 57, 0
2, 38080, Note_on_c, 1, 58, 127
2, 38080, Note_on_c, 1, 62, 127
2, 38080, Note_off_c, 1, 64, 0
2, 38080, Note_off_c, 1, 76, 0
2, 38080, Note_on_c, 1, 82, 127
2, 38080, Note_off_c, 1, 88, 0
2, 38120, Note_off_c, 1, 51, 0
2, 38120, Note_on_c, 1, 52, 127
2, 38120, Note_on_c, 1, 54, 127
2, 38120, Note_off_c, 1, 56, 0
2, 38120, Note_on_c, 1, 57, 127
2, 38120, Note_off_c, 1, 58, 0
2, 38120, Note_off_c, 1, 62, 0
2, 38120, Note_on_c, 1, 64, 127
2, 38120, Note_on_c, 1, 76, 127
2, 38120, Note_off_c, 1, 82, 0
2, 38120, Note_on_c, 1, 88, 127
2, 38360, Note_off_c, 1, 52, 0
2, 38360, Note_off_c, 1, 54, 0
2, 38360, Note_off_c, 1, 57, 0
2, 38360, Note_off_c, 1, 64, 0
2, 38360, Note_off_c, 1, 76, 0
2, 38360, Note_off_c, 1, 88, 0
2, 38400, Note_on_c, 1, 54, 127
2, 38400, Note_on_c, 1, 61, 127
2, 38400, Note_on_c, 1, 64, 127
2, 38400, Note_on_c, 1, 70, 127
2, 38400, Note_on_c, 1, 73, 127
2, 38400, Note_on_c, 1, 77, 127
2, 38400, Note_on_c, 1, 85, 127
2, 38440, Note_on_c, 1, 48, 127
2, 38440, Note_off_c, 1, 54, 0
2, 38440, Note_on_c, 1, 60, 127
2, 38440, Note_off_c, 1, 61, 0
2, 38440, Note_off_c, 1, 64, 0
2, 38440, Note_on_c, 1, 65, 127
2, 38440, Note_off_c, 1, 73, 0
2, 38440, Note_off_c, 1, 77, 0
2, 38440, Note_off_c, 1, 85, 0
2, 38480, Note_off_c, 1, 48, 0
2, 38480, Note_on_c, 1, 54, 127
2, 38480, Note_off_c, 1, 60, 0
2, 38480, Note_on_c, 1, 61, 127
2, 38480, Note_on_c, 1, 64, 127
2, 38480, Note_off_c, 1, 65, 0
2, 38480, Note_on_c, 1, 73, 127
2, 38480, Note_on_c, 1, 77, 127
2, 38480, Note_on_c, 1, 85, 127
2, 38520, Note_off_c, 1, 54, 0
2, 38520, Note_off_c, 1, 61, 0
2, 38520, Note_off_c, 1, 64, 0
2, 38520, Note_off_c, 1, 70, 0
2, 38520, Note_off_c, 1, 73, 0
2, 38520, Note_off_c, 1, 77, 0
2, 38520, Note_on_c, 1, 78, 127
2, 38520, Note_off_c, 1, 85, 0
2, 38520, Note_on_c, 1, 87, 127
2, 38520, Note_on_c, 1, 90, 127
2, 38560, Note_on_c, 1, 62, 127
2, 38560, Note_on_c, 1, 69, 127
2, 38560, Note_off_c, 1, 87, 0
2, 38560, Note_on_c, 1, 93, 127
2, 38600, Note_on_c, 1, 61, 127
2, 38600, Note_off_c, 1, 62, 0
2, 38600, Note_on_c, 1, 65, 127
2, 38600, Note_off_c, 1, 69, 0
2, 38600, Note_off_c, 1, 78, 0
2, 38600, Note_off_c, 1, 90, 0
2, 38600, Note_off_c, 1, 93, 0
2, 38600, Note_on_c, 1, 98, 127
2, 38600, Note_on_c, 1, 99, 127
2, 38640, Note_on_c, 1, 33, 127
2, 38640, Note_off_c, 1, 61, 0
2, 38640, Note_off_c, 1, 65, 0
2, 38640, Note_on_c, 1, 73, 127
2, 38640, Note_on_c, 1, 76, 127
2, 38640, Note_on_c, 1, 85, 127
2, 38640, Note_off_c, 1, 98, 0
2, 38640, Note_off_c, 1, 99, 0
2, 38680, Note_off_c, 1, 33, 0
2, 38680, Note_on_c, 1, 35, 127
2, 38680, Note_on_c, 1, 38, 127
2, 38680, Note_on_c, 1, 47, 127
2, 38680, Note_off_c, 1, 73, 0
2, 38680, Note_on_c, 1, 79, 127
2, 38680, Note_on_c, 1, 86, 127
2, 38720, Note_off_c, 1, 35, 0
2, 38720, Note_off_c, 1, 38, 0
2, 38720, Note_off_c, 1, 47, 0
2, 38720, Note_off_c, 1, 76, 0
2, 38720, Note_off_c, 1, 79, 0
2, 38720, Note_off_c, 1, 85, 0
2, 38720, Note_off_c, 1, 86, 0
2, 38760, Note_on_c, 1, 37, 127
2, 38760, Note_on_c, 1, 88, 127
2, 38760, Note_on_c, 1, 92, 127
2, 38760, Note_on_c, 1, 95, 127
2, 38760, Note_on_c, 1, 100, 127
2, 38800, Note_off_c, 1, 37, 0
2, 38840, Note_on_c, 1, 61, 127
2, 38840, Note_on_c, 1, 81, 127
2, 38840, Note_on_c, 1, 85, 127
2, 38840, Note_off_c, 1, 92, 0
2, 38840, Note_on_c, 1, 93, 127
2, 38840, Note_off_c, 1, 95, 0
2, 38840, Note_off_c, 1, 100, 0
2, 38880, Note_off_c, 1, 61, 0
2, 38880, Note_off_c, 1, 81, 0
2, 38880, Note_off_c, 1, 85, 0
2, 38880, Note_on_c, 1, 92, 127
2, 38880, Note_off_c, 1, 93, 0
2, 38880, Note_on_c, 1, 95, 127
2, 38880, Note_on_c, 1, 100, 127
2, 38920, Note_on_c, 1, 64, 127
2, 38920, Note_on_c, 1, 68, 127
2, 38920, Note_on_c, 1, 71, 127
2, 38920, Note_on_c, 1, 76, 127
2, 38920, Note_off_c, 1, 88, 0
2, 38920, Note_off_c, 1, 95, 0
2, 38920, Note_off_c, 1, 100, 0
2, 38960, Note_off_c, 1, 64, 0
2, 38960, Note_off_c, 1, 68, 0
2, 38960, Note_off_c, 1, 71, 0
2, 38960, Note_off_c, 1, 76, 0
2, 38960, Note_on_c, 1, 88, 127
2, 38960, Note_on_c, 1, 95, 127
2, 38960, Note_on_c, 1, 100, 127
2, 39000, Note_on_c, 1, 47, 127
2, 39000, Note_on_c, 1, 52, 127
2, 39000, Note_on_c, 1, 55, 127
2, 39000, Note_on_c, 1, 59, 127
2, 39000, Note_on_c, 1, 71, 127
2, 39000, Note_on_c, 1, 83, 127
2, 39000, Note_off_c, 1, 88, 0
2, 39000, Note_off_c, 1, 92, 0
2, 39000, Note_off_c, 1, 95, 0
2, 39000, Note_off_c, 1, 100, 0
2, 39040, Note_off_c, 1, 47, 0
2, 39040, Note_off_c, 1, 52, 0
2, 39040, Note_off_c, 1, 55, 0
2, 39040, Note_off_c, 1, 59, 0
2, 39040, Note_off_c, 1, 71, 0
2, 39040, Note_off_c, 1, 83, 0
2, 39080, Note_on_c, 1, 52, 127
2, 39080, Note_on_c, 1, 76, 127
2, 39080, Note_on_c, 1, 80, 127
2, 39080, Note_on_c, 1, 83, 127
2, 39320, Note_off_c, 1, 52, 0
2, 39360, Note_on_c, 1, 52, 127
2, 39400, Note_off_c, 1, 52, 0
2, 39400, Note_off_c, 1, 76, 0
2, 39400, Note_off_c, 1, 80, 0
2, 39400, Note_off_c, 1, 83, 0
2, 39440, Note_on_c, 1, 38, 127
2, 39440, Note_on_c, 1, 74, 127
2, 39440, Note_on_c, 1, 78, 127
2, 39440, Note_on_c, 1, 81, 127
2, 39640, Note_off_c, 1, 38, 0
2, 39640, Note_off_c, 1, 74, 0
2, 39640, Note_off_c, 1, 78, 0
2, 39640, Note_off_c, 1, 81, 0
2, 39680, Note_on_c, 1, 38, 127
2, 39680, Note_on_c, 1, 74, 127
2, 39680, Note_on_c, 1, 78, 127
2, 39680, Note_on_c, 1, 81, 127
2, 39720, Note_off_c, 1, 38, 0
2, 39760, Note_on_c, 1, 38, 127
2, 39800, Note_off_c, 1, 38, 0
2, 39800, Note_on_c, 1, 64, 127
2, 39800, Note_off_c, 1, 74, 0
2, 39800, Note_off_c, 1, 78, 0
2, 39800, Note_off_c, 1, 81, 0
2, 39840, Note_on_c, 1, 87, 127
2, 39840, Note_on_c, 1, 88, 127
2, 39840, Note_on_c, 1, 92, 127
2, 39960, Note_on_c, 1, 46, 127
2, 39960, Note_on_c, 1, 50, 127
2, 39960, Note_on_c, 1, 62, 127
2, 39960, Note_off_c, 1, 64, 0
2, 39960, Note_on_c, 1, 65, 127
2, 39960, Note_off_c, 1, 87, 0
2, 39960, Note_off_c, 1, 88, 0
2, 39960, Note_off_c, 1, 92, 0
2, 40000, Note_off_c, 1, 46, 0
2, 40000, Note_off_c, 1, 50, 0
2, 40000, Note_off_c, 1, 62, 0
2, 40000, Note_on_c, 1, 64, 127
2, 40000, Note_off_c, 1, 65, 0
2, 40000, Note_on_c, 1, 87, 127
2, 40000, Note_on_c, 1, 88, 127
2, 40000, Note_on_c, 1, 92, 127
2, 40040, Note_on_c, 1, 85, 127
2, 40040, Note_off_c, 1, 87, 0
2, 40040, Note_off_c, 1, 88, 0
2, 40040, Note_off_c, 1, 92, 0
2, 40080, Note_on_c, 1, 60, 127
2, 40080, Note_on_c, 1, 63, 127
2, 40080, Note_off_c, 1, 64, 0
2, 40080, Note_on_c, 1, 68, 127
2, 40080, Note_on_c, 1, 84, 127
2, 40080, Note_off_c, 1, 85, 0
2, 40080, Note_on_c, 1, 87, 127
2, 40080, Note_on_c, 1, 92, 127
2, 40160, Note_off_c, 1, 60, 0
2, 40160, Note_off_c, 1, 63, 0
2, 40160, Note_off_c, 1, 68, 0
2, 40160, Note_off_c, 1, 84, 0
2, 40160, Note_off_c, 1, 87, 0
2, 40160, Note_off_c, 1, 92, 0
2, 40200, Note_on_c, 1, 60, 127
2, 40200, Note_on_c, 1, 63, 127
2, 40200, Note_on_c, 1, 68, 127
2, 40200, Note_on_c, 1, 84, 127
2, 40200, Note_on_c, 1, 87, 127
2, 40200, Note_on_c, 1, 92, 127
2, 40520, Note_off_c, 1, 60, 0
2, 40520, Note_off_c, 1, 63, 0
2, 40520, Note_off_c, 1, 68, 0
2, 40520, Note_off_c, 1, 84, 0
2, 40520, Note_off_c, 1, 87, 0
2, 40520, Note_off_c, 1, 92, 0
2, 40560, Note_on_c, 1, 60, 127
2, 40560, Note_on_c, 1, 63, 127
2, 40560, Note_on_c, 1, 68, 127
2, 40560, Note_on_c, 1, 80, 127
2, 40560, Note_on_c, 1, 92, 127
2, 40840, Note_off_c, 1, 60, 0
2, 40840, Note_off_c, 1, 63, 0
2, 40840, Note_off_c, 1, 68, 0
2, 40840, Note_off_c, 1, 80, 0
2, 40880, Note_on_c, 1, 50, 127
2, 40880, Note_on_c, 1, 52, 127
2, 40880, Note_on_c, 1, 59, 127
2, 40920, Note_off_c, 1, 50, 0
2, 40920, Note_on_c, 1, 54, 127
2, 40920, Note_on_c, 1, 57, 127
2, 40920, Note_on_c, 1, 63, 127
2, 40920, Note_on_c, 1, 87, 127
2, 40920, Note_off_c, 1, 92, 0
2, 40960, Note_on_c, 1, 50, 127
2, 40960, Note_off_c, 1, 54, 0
2, 40960, Note_off_c, 1, 57, 0
2, 40960, Note_off_c, 1, 63, 0
2, 40960, Note_off_c, 1, 87, 0
2, 40960, Note_on_c, 1, 92, 127
2, 41000, Note_on_c, 1, 90, 127
2, 41000, Note_off_c, 1, 92, 0
2, 41040, Note_on_c, 1, 46, 127
2, 41040, Note_off_c, 1, 52, 0
2, 41040, Note_on_c, 1, 55, 127
2, 41040, Note_off_c, 1, 59, 0
2, 41040, Note_off_c, 1, 90, 0
2, 41040, Note_on_c, 1, 91, 127
2, 41080, Note_off_c, 1, 46, 0
2, 41080, Note_off_c, 1, 50, 0
2, 41080, Note_off_c, 1, 55, 0
2, 41080, Note_on_c, 1, 57, 127
2, 41080, Note_on_c, 1, 62, 127
2, 41080, Note_on_c, 1, 75, 127
2, 41080, Note_on_c, 1, 82, 127
2, 41080, Note_on_c, 1, 87, 127
2, 41080, Note_off_c, 1, 91, 0
2, 41120, Note_on_c, 1, 36, 127
2, 41120, Note_on_c, 1, 48, 127
2, 41120, Note_on_c, 1, 54, 127
2, 41120, Note_off_c, 1, 57, 0
2, 41120, Note_off_c, 1, 62, 0
2, 41120, Note_on_c, 1, 65, 127
2, 41120, Note_off_c, 1, 75, 0
2, 41120, Note_off_c, 1, 82, 0
2, 41120, Note_off_c, 1, 87, 0
2, 41160, Note_off_c, 1, 36, 0
2, 41160, Note_off_c, 1, 48, 0
2, 41160, Note_on_c, 1, 50, 127
2, 41160, Note_on_c, 1, 52, 127
2, 41160, Note_off_c, 1, 54, 0
2, 41160, Note_on_c, 1, 59, 127
2, 41160, Note_off_c, 1, 65, 0
2, 41160, Note_on_c, 1, 90, 127
2, 41200, Note_off_c, 1, 50, 0
2, 41200, Note_off_c, 1, 52, 0
2, 41200, Note_off_c, 1, 59, 0
2, 41200, Note_off_c, 1, 90, 0
2, 41240, Note_on_c, 1, 48, 127
2, 41240, Note_on_c, 1, 50, 127
2, 41240, Note_on_c, 1, 57, 127
2, 41280, Note_on_c, 1, 46, 127
2, 41280, Note_off_c, 1, 48, 0
2, 41280, Note_off_c, 1, 50, 0
2, 41280, Note_on_c, 1, 56, 127
2, 41280, Note_off_c, 1, 57, 0
2, 41280, Note_on_c, 1, 86, 127
2, 41320, Note_on_c, 1, 45, 127
2, 41320, Note_off_c, 1, 46, 0
2, 41320, Note_on_c, 1, 50, 127
2, 41320, Note_on_c, 1, 53, 127
2, 41320, Note_off_c, 1, 56, 0
2, 41320, Note_on_c, 1, 59, 127
2, 41320, Note_on_c, 1, 65, 127
2, 41320, Note_off_c, 1, 86, 0
2, 41360, Note_on_c, 1, 36, 127
2, 41360, Note_on_c, 1, 40, 127
2, 41360, Note_on_c, 1, 43, 127
2, 41360, Note_off_c, 1, 45, 0
2, 41360, Note_on_c, 1, 48, 127
2, 41360, Note_off_c, 1, 50, 0
2, 41360, Note_off_c, 1, 53, 0
2, 41360, Note_off_c, 1, 59, 0
2, 41360, Note_on_c, 1, 60, 127
2, 41360, Note_on_c, 1, 64, 127
2, 41360, Note_off_c, 1, 65, 0
2, 41360, Note_on_c, 1, 67, 127
2, 41360, Note_on_c, 1, 72, 127
2, 41360, Note_on_c, 1, 76, 127
2, 41360, Note_on_c, 1, 79, 127
2, 41360, Note_on_c, 1, 84, 127
2, 41400, Note_off_c, 1, 36, 0
2, 41400, Note_off_c, 1, 40, 0
2, 41400, Note_off_c, 1, 43, 0
2, 41400, Note_on_c, 1, 46, 127
2, 41400, Note_off_c, 1, 48, 0
2, 41400, Note_on_c, 1, 56, 127
2, 41400, Note_off_c, 1, 60, 0
2, 41400, Note_off_c, 1, 64, 0
2, 41400, Note_off_c, 1, 67, 0
2, 41400, Note_off_c, 1, 72, 0
2, 41400, Note_off_c, 1, 76, 0
2, 41400, Note_off_c, 1, 79, 0
2, 41400, Note_off_c, 1, 84, 0
2, 41400, Note_on_c, 1, 86, 127
2, 41440, Note_on_c, 1, 42, 127
2, 41440, Note_off_c, 1, 46, 0
2, 41440, Note_off_c, 1, 56, 0
2, 41440, Note_on_c, 1, 74, 127
2, 41440, Note_on_c, 1, 81, 127
2, 41440, Note_on_c, 1, 84, 127
2, 41440, Note_off_c, 1, 86, 0
2, 41480, Note_off_c, 1, 42, 0
2, 41480, Note_on_c, 1, 46, 127
2, 41480, Note_on_c, 1, 55, 127
2, 41480, Note_on_c, 1, 62, 127
2, 41480, Note_on_c, 1, 65, 127
2, 41480, Note_on_c, 1, 73, 127
2, 41480, Note_off_c, 1, 74, 0
2, 41480, Note_off_c, 1, 81, 0
2, 41480, Note_off_c, 1, 84, 0
2, 41520, Note_off_c, 1, 46, 0
2, 41520, Note_off_c, 1, 55, 0
2, 41520, Note_off_c, 1, 62, 0
2, 41520, Note_on_c, 1, 67, 127
2, 41520, Note_off_c, 1, 73, 0
2, 41520, Note_on_c, 1, 86, 127
2, 41560, Note_off_c, 1, 65, 0
2, 41560, Note_off_c, 1, 67, 0
2, 41560, Note_on_c, 1, 69, 127
2, 41560, Note_off_c, 1, 86, 0
2, 41600, Note_off_c, 1, 69, 0
2, 41640, Note_on_c, 1, 46, 127
2, 41640, Note_on_c, 1, 74, 127
2, 41640, Note_on_c, 1, 76, 127
2, 41760, Note_on_c, 1, 67, 127
2, 41760, Note_off_c, 1, 74, 0
2, 41760, Note_off_c, 1, 76, 0
2, 41800, Note_on_c, 1, 34, 127
2, 41800, Note_on_c, 1, 36, 127
2, 41800, Note_on_c, 1, 41, 127
2, 41800, Note_on_c, 1, 48, 127
2, 41800, Note_on_c, 1, 58, 127
2, 41800, Note_on_c, 1, 61, 127
2, 41800, Note_on_c, 1, 65, 127
2, 41800, Note_off_c, 1, 67, 0
2, 41800, Note_on_c, 1, 70, 127
2, 41840, Note_off_c, 1, 34, 0
2, 41840, Note_off_c, 1, 36, 0
2, 41840, Note_off_c, 1, 41, 0
2, 41840, Note_off_c, 1, 46, 0
2, 41840, Note_on_c, 1, 54, 127
2, 41840, Note_off_c, 1, 61, 0
2, 41840, Note_off_c, 1, 70, 0
2, 41880, Note_on_c, 1, 32, 127
2, 41880, Note_on_c, 1, 50, 127
2, 41880, Note_on_c, 1, 56, 127
2, 41880, Note_off_c, 1, 58, 0
2, 41880, Note_off_c, 1, 65, 0
2, 41920, Note_off_c, 1, 32, 0
2, 41920, Note_off_c, 1, 48, 0
2, 41920, Note_on_c, 1, 49, 127
2, 41920, Note_off_c, 1, 50, 0
2, 41920, Note_off_c, 1, 54, 0
2, 41920, Note_on_c, 1, 55, 127
2, 41920, Note_off_c, 1, 56, 0
2, 41920, Note_on_c, 1, 57, 127
2, 41920, Note_on_c, 1, 81, 127
2, 41920, Note_on_c, 1, 93, 127
2, 41960, Note_off_c, 1, 49, 0
2, 41960, Note_off_c, 1, 55, 0
2, 41960, Note_off_c, 1, 57, 0
2, 41960, Note_on_c, 1, 65, 127
2, 41960, Note_off_c, 1, 81, 0
2, 41960, Note_off_c, 1, 93, 0
2, 42000, Note_on_c, 1, 48, 127
2, 42000, Note_on_c, 1, 50, 127
2, 42000, Note_on_c, 1, 54, 127
2, 42000, Note_off_c, 1, 65, 0
2, 42000, Note_on_c, 1, 70, 127
2, 42160, Note_on_c, 1, 69, 127
2, 42160, Note_off_c, 1, 70, 0
2, 42320, Note_off_c, 1, 48, 0
2, 42320, Note_off_c, 1, 50, 0
2, 42320, Note_off_c, 1, 54, 0
2, 42320, Note_off_c, 1, 69, 0
2, 42360, Note_on_c, 1, 57, 127
2, 42360, Note_on_c, 1, 60, 127
2, 42360, Note_on_c, 1, 63, 127
2, 42360, Note_on_c, 1, 65, 127
2, 42360, Note_on_c, 1, 69, 127
2, 42360, Note_on_c, 1, 72, 127
2, 42360, Note_on_c, 1, 77, 127
2, 42640, Note_off_c, 1, 57, 0
2, 42640, Note_off_c, 1, 60, 0
2, 42640, Note_off_c, 1, 63, 0
2, 42640, Note_off_c, 1, 65, 0
2, 42640, Note_off_c, 1, 69, 0
2, 42640, Note_off_c, 1, 72, 0
2, 42680, Note_on_c, 1, 48, 127
2, 42680, Note_on_c, 1, 55, 127
2, 42680, Note_on_c, 1, 58, 127
2, 42680, Note_off_c, 1, 77, 0
2, 42680, Note_on_c, 1, 89, 127
2, 42720, Note_on_c, 1, 43, 127
2, 42720, Note_off_c, 1, 48, 0
2, 42720, Note_on_c, 1, 51, 127
2, 42720, Note_off_c, 1, 58, 0
2, 42720, Note_on_c, 1, 75, 127
2, 42720, Note_on_c, 1, 82, 127
2, 42720, Note_on_c, 1, 87, 127
2, 42720, Note_off_c, 1, 89, 0
2, 42760, Note_off_c, 1, 43, 0
2, 42760, Note_off_c, 1, 51, 0
2, 42760, Note_off_c, 1, 55, 0
2, 42760, Note_on_c, 1, 62, 127
2, 42760, Note_on_c, 1, 67, 127
2, 42760, Note_on_c, 1, 69, 127
2, 42760, Note_on_c, 1, 72, 127
2, 42760, Note_off_c, 1, 75, 0
2, 42760, Note_off_c, 1, 87, 0
2, 42800, Note_on_c, 1, 47, 127
2, 42800, Note_on_c, 1, 57, 127
2, 42800, Note_off_c, 1, 62, 0
2, 42800, Note_off_c, 1, 67, 0
2, 42800, Note_off_c, 1, 69, 0
2, 42800, Note_off_c, 1, 72, 0
2, 42800, Note_off_c, 1, 82, 0
2, 42800, Note_on_c, 1, 87, 127
2, 42840, Note_off_c, 1, 47, 0
2, 42840, Note_on_c, 1, 48, 127
2, 42840, Note_on_c, 1, 75, 127
2, 42840, Note_on_c, 1, 81, 127
2, 42880, Note_off_c, 1, 48, 0
2, 42880, Note_off_c, 1, 57, 0
2, 42880, Note_on_c, 1, 66, 127
2, 42880, Note_on_c, 1, 73, 127
2, 42880, Note_on_c, 1, 85, 127
2, 42880, Note_off_c, 1, 87, 0
2, 42920, Note_on_c, 1, 36, 127
2, 42920, Note_on_c, 1, 45, 127
2, 42920, Note_on_c, 1, 48, 127
2, 42920, Note_off_c, 1, 66, 0
2, 42920, Note_on_c, 1, 70, 127
2, 42920, Note_off_c, 1, 73, 0
2, 42920, Note_off_c, 1, 75, 0
2, 42920, Note_off_c, 1, 81, 0
2, 42920, Note_on_c, 1, 82, 127
2, 42920, Note_off_c, 1, 85, 0
2, 42960, Note_off_c, 1, 36, 0
2, 42960, Note_on_c, 1, 41, 127
2, 42960, Note_off_c, 1, 45, 0
2, 42960, Note_off_c, 1, 48, 0
2, 42960, Note_on_c, 1, 51, 127
2, 42960, Note_on_c, 1, 56, 127
2, 42960, Note_on_c, 1, 59, 127
2, 42960, Note_on_c, 1, 63, 127
2, 42960, Note_on_c, 1, 68, 127
2, 42960, Note_off_c, 1, 70, 0
2, 42960, Note_on_c, 1, 71, 127
2, 42960, Note_off_c, 1, 82, 0
2, 43000, Note_off_c, 1, 41, 0
2, 43000, Note_off_c, 1, 51, 0
2, 43000, Note_off_c, 1, 56, 0
2, 43000, Note_off_c, 1, 59, 0
2, 43000, Note_off_c, 1, 63, 0
2, 43000, Note_off_c, 1, 68, 0
2, 43000, Note_off_c, 1, 71, 0
2, 43040, Note_on_c, 1, 59, 127
2, 43040, Note_on_c, 1, 65, 127
2, 43040, Note_on_c, 1, 87, 127
2, 43080, Note_on_c, 1, 43, 127
2, 43080, Note_on_c, 1, 48, 127
2, 43080, Note_on_c, 1, 55, 127
2, 43080, Note_off_c, 1, 59, 0
2, 43080, Note_off_c, 1, 65, 0
2, 43080, Note_on_c, 1, 77, 127
2, 43080, Note_off_c, 1, 87, 0
2, 43080, Note_on_c, 1, 89, 127
2, 43120, Note_off_c, 1, 43, 0
2, 43120, Note_off_c, 1, 48, 0
2, 43120, Note_off_c, 1, 55, 0
2, 43120, Note_off_c, 1, 77, 0
2, 43120, Note_on_c, 1, 87, 127
2, 43120, Note_off_c, 1, 89, 0
2, 43120, Note_on_c, 1, 90, 127
2, 43120, Note_on_c, 1, 95, 127
2, 43120, Note_on_c, 1, 99, 127
2, 43160, Note_off_c, 1, 87, 0
2, 43160, Note_off_c, 1, 90, 0
2, 43160, Note_off_c, 1, 95, 0
2, 43160, Note_off_c, 1, 99, 0
2, 43200, Note_on_c, 1, 60, 127
2, 43200, Note_on_c, 1, 72, 127
2, 43200, Note_on_c, 1, 79, 127
2, 43200, Note_on_c, 1, 88, 127
2, 43200, Note_on_c, 1, 91, 127
2, 43240, Note_off_c, 1, 60, 0
2, 43240, Note_off_c, 1, 72, 0
2, 43240, Note_off_c, 1, 79, 0
2, 43240, Note_off_c, 1, 88, 0
2, 43240, Note_off_c, 1, 91, 0
2, 43280, Note_on_c, 1, 60, 127
2, 43280, Note_on_c, 1, 72, 127
2, 43280, Note_on_c, 1, 79, 127
2, 43280, Note_on_c, 1, 88, 127
2, 43280, Note_on_c, 1, 91, 127
2, 43320, Note_off_c, 1, 60, 0
2, 43320, Note_off_c, 1, 72, 0
2, 43320, Note_off_c, 1, 79, 0
2, 43320, Note_off_c, 1, 88, 0
2, 43320, Note_off_c, 1, 91, 0
2, 43360, Note_on_c, 1, 60, 127
2, 43360, Note_on_c, 1, 72, 127
2, 43360, Note_on_c, 1, 79, 127
2, 43360, Note_on_c, 1, 88, 127
2, 43360, Note_on_c, 1, 91, 127
2, 43400, Note_off_c, 1, 60, 0
2, 43400, Note_off_c, 1, 72, 0
2, 43400, Note_off_c, 1, 79, 0
2, 43400, Note_off_c, 1, 88, 0
2, 43400, Note_off_c, 1, 91, 0
2, 43480, Note_on_c, 1, 60, 127
2, 43480, Note_on_c, 1, 72, 127
2, 43480, Note_on_c, 1, 79, 127
2, 43480, Note_on_c, 1, 88, 127
2, 43480, Note_on_c, 1, 91, 127
2, 43520, Note_off_c, 1, 60, 0
2, 43520, Note_off_c, 1, 72, 0
2, 43520, Note_off_c, 1, 79, 0
2, 43520, Note_off_c, 1, 88, 0
2, 43520, Note_off_c, 1, 91, 0
2, 43560, Note_on_c, 1, 60, 127
2, 43560, Note_on_c, 1, 72, 127
2, 43560, Note_on_c, 1, 79, 127
2, 43560, Note_on_c, 1, 88, 127
2, 43560, Note_on_c, 1, 91, 127
2, 43600, Note_off_c, 1, 60, 0
2, 43600, Note_off_c, 1, 72, 0
2, 43600, Note_off_c, 1, 79, 0
2, 43600, Note_off_c, 1, 88, 0
2, 43600, Note_off_c, 1, 91, 0
2, 43720, Note_on_c, 1, 60, 127
2, 43720, Note_on_c, 1, 72, 127
2, 43720, Note_on_c, 1, 79, 127
2, 43720, Note_on_c, 1, 88, 127
2, 43720, Note_on_c, 1, 91, 127
2, 43760, Note_off_c, 1, 60, 0
2, 43760, Note_off_c, 1, 72, 0
2, 43760, Note_off_c, 1, 79, 0
2, 43760, Note_off_c, 1, 88, 0
2, 43760, Note_off_c, 1, 91, 0
2, 43840, Note_on_c, 1, 60, 127
2, 43840, Note_on_c, 1, 72, 127
2, 43840, Note_on_c, 1, 79, 127
2, 43840, Note_on_c, 1, 88, 127
2, 43840, Note_on_c, 1, 91, 127
2, 43880, Note_off_c, 1, 60, 0
2, 43880, Note_off_c, 1, 72, 0
2, 43880, Note_off_c, 1, 79, 0
2, 43880, Note_off_c, 1, 88, 0
2, 43880, Note_off_c, 1, 91, 0
2, 43920, Note_on_c, 1, 60, 127
2, 43920, Note_on_c, 1, 72, 127
2, 43920, Note_on_c, 1, 79, 127
2, 43920, Note_on_c, 1, 88, 127
2, 43920, Note_on_c, 1, 91, 127
2, 43960, Note_off_c, 1, 60, 0
2, 43960, Note_off_c, 1, 72, 0
2, 43960, Note_off_c, 1, 79, 0
2, 43960, Note_off_c, 1, 88, 0
2, 43960, Note_off_c, 1, 91, 0
2, 44040, Note_on_c, 1, 60, 127
2, 44040, Note_on_c, 1, 72, 127
2, 44040, Note_on_c, 1, 79, 127
2, 44040, Note_on_c, 1, 88, 127
2, 44040, Note_on_c, 1, 91, 127
2, 44080, Note_off_c, 1, 60, 0
2, 44080, Note_off_c, 1, 72, 0
2, 44080, Note_off_c, 1, 79, 0
2, 44080, Note_off_c, 1, 88, 0
2, 44080, Note_off_c, 1, 91, 0
2, 44120, Note_on_c, 1, 60, 127
2, 44120, Note_on_c, 1, 72, 127
2, 44120, Note_on_c, 1, 79, 127
2, 44120, Note_on_c, 1, 88, 127
2, 44120, Note_on_c, 1, 91, 127
2, 44160, Note_off_c, 1, 60, 0
2, 44160, Note_off_c, 1, 72, 0
2, 44160, Note_off_c, 1, 79, 0
2, 44160, Note_off_c, 1, 88, 0
2, 44160, Note_off_c, 1, 91, 0
2, 44200, Note_on_c, 1, 60, 127
2, 44200, Note_on_c, 1, 72, 127
2, 44200, Note_on_c, 1, 79, 127
2, 44200, Note_on_c, 1, 88, 127
2, 44200, Note_on_c, 1, 91, 127
2, 44240, Note_off_c, 1, 60, 0
2, 44240, Note_off_c, 1, 72, 0
2, 44240, Note_off_c, 1, 79, 0
2, 44240, Note_off_c, 1, 88, 0
2, 44240, Note_off_c, 1, 91, 0
2, 44280, Note_on_c, 1, 60, 127
2, 44280, Note_on_c, 1, 72, 127
2, 44280, Note_on_c, 1, 79, 127
2, 44280, Note_on_c, 1, 88, 127
2, 44280, Note_on_c, 1, 91, 127
2, 44320, Note_off_c, 1, 60, 0
2, 44320, Note_off_c, 1, 72, 0
2, 44320, Note_off_c, 1, 79, 0
2, 44320, Note_off_c, 1, 88, 0
2, 44320, Note_off_c, 1, 91, 0
2, 44360, Note_on_c, 1, 60, 127
2, 44360, Note_on_c, 1, 72, 127
2, 44360, Note_on_c, 1, 79, 127
2, 44360, Note_on_c, 1, 88, 127
2, 44360, Note_on_c, 1, 91, 127
2, 44400, Note_off_c, 1, 60, 0
2, 44400, Note_off_c, 1, 72, 0
2, 44400, Note_off_c, 1, 79, 0
2, 44400, Note_off_c, 1, 88, 0
2, 44400, Note_off_c, 1, 91, 0
2, 44440, Note_on_c, 1, 60, 127
2, 44440, Note_on_c, 1, 72, 127
2, 44440, Note_on_c, 1, 79, 127
2, 44440, Note_on_c, 1, 88, 127
2, 44440, Note_on_c, 1, 91, 127
2, 44520, Note_off_c, 1, 60, 0
2, 44520, Note_off_c, 1, 72, 0
2, 44520, Note_off_c, 1, 79, 0
2, 44520, Note_off_c, 1, 88, 0
2, 44520, Note_off_c, 1, 91, 0
2, 44560, Note_on_c, 1, 60, 127
2, 44560, Note_on_c, 1, 72, 127
2, 44560, Note_on_c, 1, 79, 127
2, 44560, Note_on_c, 1, 88, 127
2, 44560, Note_on_c, 1, 91, 127
2, 44600, Note_off_c, 1, 60, 0
2, 44600, Note_off_c, 1, 72, 0
2, 44600, Note_off_c, 1, 79, 0
2, 44600, Note_off_c, 1, 88, 0
2, 44600, Note_off_c, 1, 91, 0
2, 44640, Note_on_c, 1, 41, 127
2, 44640, Note_on_c, 1, 53, 127
2, 44640, Note_on_c, 1, 85, 127
2, 44640, Note_on_c, 1, 89, 127
2, 44640, Note_on_c, 1, 97, 127
2, 44680, Note_off_c, 1, 41, 0
2, 44680, Note_off_c, 1, 53, 0
2, 44680, Note_off_c, 1, 85, 0
2, 44680, Note_off_c, 1, 89, 0
2, 44680, Note_off_c, 1, 97, 0
2, 44720, Note_on_c, 1, 33, 127
2, 44720, Note_on_c, 1, 45, 127
2, 44720, Note_on_c, 1, 91, 127
2, 44720, Note_on_c, 1, 96, 127
2, 44720, Note_on_c, 1, 100, 127
2, 44720, Note_on_c, 1, 103, 127
2, 44760, Note_off_c, 1, 33, 0
2, 44760, Note_off_c, 1, 45, 0
2, 44760, Note_off_c, 1, 91, 0
2, 44760, Note_off_c, 1, 96, 0
2, 44760, Note_off_c, 1, 100, 0
2, 44760, Note_off_c, 1, 103, 0
2, 44800, Note_on_c, 1, 61, 127
2, 44800, Note_on_c, 1, 73, 127
2, 44800, Note_on_c, 1, 76, 127
2, 44800, Note_on_c, 1, 83, 127
2, 44840, Note_off_c, 1, 61, 0
2, 44840, Note_off_c, 1, 73, 0
2, 44840, Note_off_c, 1, 76, 0
2, 44840, Note_off_c, 1, 83, 0
2, 44880, Note_on_c, 1, 62, 127
2, 44880, Note_on_c, 1, 63, 127
2, 44880, Note_on_c, 1, 66, 127
2, 44880, Note_on_c, 1, 74, 127
2, 44880, Note_on_c, 1, 78, 127
2, 44880, Note_on_c, 1, 87, 127
2, 44880, Note_on_c, 1, 90, 127
2, 44920, Note_on_c, 1, 59, 127
2, 44920, Note_off_c, 1, 62, 0
2, 44920, Note_off_c, 1, 63, 0
2, 44920, Note_on_c, 1, 69, 127
2, 44920, Note_off_c, 1, 74, 0
2, 44920, Note_on_c, 1, 81, 127
2, 44920, Note_off_c, 1, 90, 0
2, 44960, Note_off_c, 1, 59, 0
2, 44960, Note_off_c, 1, 66, 0
2, 44960, Note_off_c, 1, 69, 0
2, 44960, Note_off_c, 1, 78, 0
2, 44960, Note_off_c, 1, 81, 0
2, 44960, Note_off_c, 1, 87, 0
2, 45000, Note_on_c, 1, 38, 127
2, 45000, Note_on_c, 1, 50, 127
2, 45000, Note_on_c, 1, 88, 127
2, 45000, Note_on_c, 1, 92, 127
2, 45000, Note_on_c, 1, 100, 127
2, 45040, Note_off_c, 1, 38, 0
2, 45040, Note_off_c, 1, 50, 0
2, 45040, Note_off_c, 1, 88, 0
2, 45040, Note_off_c, 1, 92, 0
2, 45040, Note_off_c, 1, 100, 0
2, 45080, Note_on_c, 1, 38, 127
2, 45080, Note_on_c, 1, 50, 127
2, 45080, Note_on_c, 1, 88, 127
2, 45080, Note_on_c, 1, 92, 127
2, 45080, Note_on_c, 1, 100, 127
2, 45120, Note_off_c, 1, 38, 0
2, 45120, Note_off_c, 1, 50, 0
2, 45120, Note_off_c, 1, 88, 0
2, 45120, Note_off_c, 1, 92, 0
2, 45120, Note_off_c, 1, 100, 0
2, 45160, Note_on_c, 1, 38, 127
2, 45160, Note_on_c, 1, 50, 127
2, 45160, Note_on_c, 1, 88, 127
2, 45160, Note_on_c, 1, 92, 127
2, 45160, Note_on_c, 1, 100, 127
2, 45200, Note_off_c, 1, 38, 0
2, 45200, Note_off_c, 1, 50, 0
2, 45200, Note_off_c, 1, 88, 0
2, 45200, Note_off_c, 1, 92, 0
2, 45200, Note_off_c, 1, 100, 0
2, 45240, Note_on_c, 1, 38, 127
2, 45240, Note_on_c, 1, 50, 127
2, 45240, Note_on_c, 1, 88, 127
2, 45240, Note_on_c, 1, 92, 127
2, 45240, Note_on_c, 1, 100, 127
2, 45280, Note_off_c, 1, 38, 0
2, 45280, Note_off_c, 1, 50, 0
2, 45280, Note_off_c, 1, 88, 0
2, 45280, Note_off_c, 1, 92, 0
2, 45280, Note_off_c, 1, 100, 0
2, 45320, Note_on_c, 1, 37, 127
2, 45320, Note_on_c, 1, 49, 127
2, 45320, Note_on_c, 1, 89, 127
2, 45320, Note_on_c, 1, 93, 127
2, 45320, Note_on_c, 1, 101, 127
2, 45360, Note_off_c, 1, 37, 0
2, 45360, Note_off_c, 1, 49, 0
2, 45360, Note_off_c, 1, 89, 0
2, 45360, Note_off_c, 1, 93, 0
2, 45360, Note_off_c, 1, 101, 0
2, 45400, Note_on_c, 1, 37, 127
2, 45400, Note_on_c, 1, 49, 127
2, 45400, Note_on_c, 1, 89, 127
2, 45400, Note_on_c, 1, 93, 127
2, 45400, Note_on_c, 1, 101, 127
2, 45440, Note_off_c, 1, 37, 0
2, 45440, Note_off_c, 1, 49, 0
2, 45440, Note_off_c, 1, 89, 0
2, 45440, Note_off_c, 1, 93, 0
2, 45440, Note_off_c, 1, 101, 0
2, 45480, Note_on_c, 1, 36, 127
2, 45480, Note_on_c, 1, 48, 127
2, 45480, Note_on_c, 1, 90, 127
2, 45480, Note_on_c, 1, 94, 127
2, 45480, Note_on_c, 1, 102, 127
2, 45560, Note_off_c, 1, 36, 0
2, 45560, Note_off_c, 1, 48, 0
2, 45560, Note_off_c, 1, 90, 0
2, 45560, Note_off_c, 1, 94, 0
2, 45560, Note_off_c, 1, 102, 0
2, 45600, Note_on_c, 1, 37, 127
2, 45600, Note_on_c, 1, 49, 127
2, 45600, Note_on_c, 1, 89, 127
2, 45600, Note_on_c, 1, 93, 127
2, 45600, Note_on_c, 1, 101, 127
2, 45640, Note_off_c, 1, 37, 0
2, 45640, Note_off_c, 1, 49, 0
2, 45640, Note_off_c, 1, 89, 0
2, 45640, Note_off_c, 1, 93, 0
2, 45640, Note_off_c, 1, 101, 0
2, 45680, Note_on_c, 1, 37, 127
2, 45680, Note_on_c, 1, 49, 127
2, 45680, Note_on_c, 1, 89, 127
2, 45680, Note_on_c, 1, 93, 127
2, 45680, Note_on_c, 1, 101, 127
2, 45720, Note_off_c, 1, 37, 0
2, 45720, Note_off_c, 1, 49, 0
2, 45720, Note_off_c, 1, 89, 0
2, 45720, Note_off_c, 1, 93, 0
2, 45720, Note_off_c, 1, 101, 0
2, 45760, Note_on_c, 1, 37, 127
2, 45760, Note_on_c, 1, 49, 127
2, 45760, Note_on_c, 1, 89, 127
2, 45760, Note_on_c, 1, 93, 127
2, 45760, Note_on_c, 1, 101, 127
2, 45800, Note_off_c, 1, 37, 0
2, 45800, Note_off_c, 1, 49, 0
2, 45800, Note_off_c, 1, 89, 0
2, 45800, Note_off_c, 1, 93, 0
2, 45800, Note_off_c, 1, 101, 0
2, 45840, Note_on_c, 1, 51, 127
2, 45840, Note_on_c, 1, 61, 127
2, 45840, Note_on_c, 1, 63, 127
2, 45840, Note_on_c, 1, 91, 127
2, 45880, Note_off_c, 1, 51, 0
2, 45880, Note_off_c, 1, 61, 0
2, 45880, Note_off_c, 1, 63, 0
2, 45880, Note_off_c, 1, 91, 0
2, 45960, Note_on_c, 1, 51, 127
2, 45960, Note_on_c, 1, 63, 127
2, 45960, Note_on_c, 1, 67, 127
2, 45960, Note_on_c, 1, 77, 127
2, 46000, Note_off_c, 1, 51, 0
2, 46000, Note_off_c, 1, 63, 0
2, 46000, Note_off_c, 1, 67, 0
2, 46000, Note_off_c, 1, 77, 0
2, 46080, Note_on_c, 1, 62, 127
2, 46080, Note_on_c, 1, 68, 127
2, 46080, Note_on_c, 1, 82, 127
2, 46080, Note_on_c, 1, 89, 127
2, 46120, Note_off_c, 1, 62, 0
2, 46120, Note_on_c, 1, 65, 127
2, 46120, Note_off_c, 1, 68, 0
2, 46120, Note_on_c, 1, 74, 127
2, 46120, Note_on_c, 1, 79, 127
2, 46120, Note_off_c, 1, 82, 0
2, 46120, Note_on_c, 1, 83, 127
2, 46120, Note_off_c, 1, 89, 0
2, 46160, Note_on_c, 1, 62, 127
2, 46160, Note_off_c, 1, 65, 0
2, 46160, Note_on_c, 1, 68, 127
2, 46160, Note_off_c, 1, 74, 0
2, 46160, Note_off_c, 1, 79, 0
2, 46160, Note_on_c, 1, 82, 127
2, 46160, Note_off_c, 1, 83, 0
2, 46160, Note_on_c, 1, 89, 127
2, 46200, Note_off_c, 1, 62, 0
2, 46200, Note_off_c, 1, 68, 0
2, 46200, Note_off_c, 1, 82, 0
2, 46200, Note_off_c, 1, 89, 0
2, 46240, Note_on_c, 1, 50, 127
2, 46240, Note_on_c, 1, 62, 127
2, 46240, Note_on_c, 1, 77, 127
2, 46240, Note_on_c, 1, 80, 127
2, 46240, Note_on_c, 1, 82, 127
2, 46280, Note_off_c, 1, 50, 0
2, 46280, Note_off_c, 1, 62, 0
2, 46280, Note_off_c, 1, 77, 0
2, 46280, Note_off_c, 1, 80, 0
2, 46280, Note_off_c, 1, 82, 0
2, 46320, Note_on_c, 1, 57, 127
2, 46320, Note_on_c, 1, 66, 127
2, 46320, Note_on_c, 1, 90, 127
2, 46320, Note_on_c, 1, 93, 127
2, 46360, Note_off_c, 1, 57, 0
2, 46360, Note_off_c, 1, 66, 0
2, 46360, Note_off_c, 1, 90, 0
2, 46360, Note_off_c, 1, 93, 0
2, 46400, Note_on_c, 1, 53, 127
2, 46400, Note_on_c, 1, 55, 127
2, 46400, Note_on_c, 1, 58, 127
2, 46400, Note_on_c, 1, 62, 127
2, 46400, Note_on_c, 1, 86, 127
2, 46440, Note_off_c, 1, 53, 0
2, 46440, Note_off_c, 1, 55, 0
2, 46440, Note_off_c, 1, 58, 0
2, 46440, Note_off_c, 1, 62, 0
2, 46440, Note_off_c, 1, 86, 0
2, 46480, Note_on_c, 1, 53, 127
2, 46480, Note_on_c, 1, 55, 127
2, 46480, Note_on_c, 1, 58, 127
2, 46480, Note_on_c, 1, 62, 127
2, 46480, Note_on_c, 1, 67, 127
2, 46520, Note_off_c, 1, 53, 0
2, 46520, Note_off_c, 1, 55, 0
2, 46520, Note_off_c, 1, 58, 0
2, 46520, Note_off_c, 1, 62, 0
2, 46520, Note_off_c, 1, 67, 0
2, 46600, Note_on_c, 1, 49, 127
2, 46600, Note_on_c, 1, 56, 127
2, 46600, Note_on_c, 1, 61, 127
2, 46600, Note_on_c, 1, 80, 127
2, 46600, Note_on_c, 1, 88, 127
2, 46600, Note_on_c, 1, 92, 127
2, 46640, Note_off_c, 1, 49, 0
2, 46640, Note_off_c, 1, 56, 0
2, 46640, Note_off_c, 1, 61, 0
2, 46640, Note_off_c, 1, 80, 0
2, 46640, Note_off_c, 1, 88, 0
2, 46640, Note_off_c, 1, 92, 0
2, 46680, Note_on_c, 1, 39, 127
2, 46680, Note_on_c, 1, 51, 127
2, 46680, Note_on_c, 1, 83, 127
2, 46680, Note_on_c, 1, 87, 127
2, 46680, Note_on_c, 1, 95, 127
2, 46720, Note_off_c, 1, 39, 0
2, 46720, Note_off_c, 1, 51, 0
2, 46720, Note_off_c, 1, 83, 0
2, 46720, Note_off_c, 1, 87, 0
2, 46720, Note_off_c, 1, 95, 0
2, 46760, Note_on_c, 1, 37, 127
2, 46760, Note_on_c, 1, 49, 127
2, 46760, Note_on_c, 1, 85, 127
2, 46760, Note_on_c, 1, 89, 127
2, 46760, Note_on_c, 1, 97, 127
2, 46800, Note_off_c, 1, 37, 0
2, 46800, Note_off_c, 1, 49, 0
2, 46800, Note_off_c, 1, 85, 0
2, 46800, Note_off_c, 1, 89, 0
2, 46800, Note_off_c, 1, 97, 0
2, 46840, Note_on_c, 1, 37, 127
2, 46840, Note_on_c, 1, 49, 127
2, 46840, Note_on_c, 1, 85, 127
2, 46840, Note_on_c, 1, 89, 127
2, 46840, Note_on_c, 1, 97, 127
2, 46920, Note_off_c, 1, 37, 0
2, 46920, Note_off_c, 1, 49, 0
2, 46920, Note_off_c, 1, 85, 0
2, 46920, Note_on_c, 1, 87, 127
2, 46920, Note_off_c, 1, 89, 0
2, 46920, Note_off_c, 1, 97, 0
2, 46960, Note_on_c, 1, 53, 127
2, 46960, Note_on_c, 1, 57, 127
2, 46960, Note_on_c, 1, 60, 127
2, 46960, Note_on_c, 1, 72, 127
2, 46960, Note_on_c, 1, 81, 127
2, 46960, Note_on_c, 1, 84, 127
2, 46960, Note_off_c, 1, 87, 0
2, 47000, Note_off_c, 1, 57, 0
2, 47000, Note_off_c, 1, 60, 0
2, 47000, Note_off_c, 1, 72, 0
2, 47000, Note_on_c, 1, 77, 127
2, 47000, Note_off_c, 1, 81, 0
2, 47000, Note_off_c, 1, 84, 0
2, 47040, Note_on_c, 1, 57, 127
2, 47040, Note_on_c, 1, 60, 127
2, 47040, Note_on_c, 1, 72, 127
2, 47040, Note_off_c, 1, 77, 0
2, 47040, Note_on_c, 1, 81, 127
2, 47040, Note_on_c, 1, 84, 127
2, 47080, Note_off_c, 1, 53, 0
2, 47080, Note_off_c, 1, 57, 0
2, 47080, Note_off_c, 1, 60, 0
2, 47080, Note_off_c, 1, 72, 0
2, 47080, Note_off_c, 1, 81, 0
2, 47080, Note_off_c, 1, 84, 0
2, 47120, Note_on_c, 1, 64, 127
2, 47120, Note_on_c, 1, 67, 127
2, 47120, Note_on_c, 1, 88, 127
2, 47120, Note_on_c, 1, 91, 127
2, 47160, Note_off_c, 1, 64, 0
2, 47160, Note_off_c, 1, 67, 0
2, 47200, Note_on_c, 1, 48, 127
2, 47200, Note_on_c, 1, 60, 127
2, 47200, Note_on_c, 1, 82, 127
2, 47200, Note_on_c, 1, 96, 127
2, 47240, Note_off_c, 1, 48, 0
2, 47240, Note_off_c, 1, 60, 0
2, 47240, Note_off_c, 1, 82, 0
2, 47240, Note_off_c, 1, 91, 0
2, 47240, Note_off_c, 1, 96, 0
2, 47280, Note_on_c, 1, 41, 127
2, 47280, Note_off_c, 1, 88, 0
2, 47280, Note_on_c, 1, 91, 127
2, 47320, Note_off_c, 1, 41, 0
2, 47360, Note_on_c, 1, 67, 127
2, 47360, Note_on_c, 1, 71, 127
2, 47360, Note_on_c, 1, 75, 127
2, 47360, Note_on_c, 1, 79, 127
2, 47360, Note_off_c, 1, 91, 0
2, 47400, Note_off_c, 1, 67, 0
2, 47400, Note_off_c, 1, 71, 0
2, 47400, Note_off_c, 1, 75, 0
2, 47400, Note_off_c, 1, 79, 0
2, 47400, Note_on_c, 1, 91, 127
2, 47400, Note_on_c, 1, 93, 127
2, 47440, Note_on_c, 1, 57, 127
2, 47440, Note_on_c, 1, 81, 127
2, 47440, Note_on_c, 1, 86, 127
2, 47440, Note_on_c, 1, 90, 127
2, 47440, Note_off_c, 1, 91, 0
2, 47480, Note_off_c, 1, 81, 0
2, 47480, Note_off_c, 1, 86, 0
2, 47480, Note_off_c, 1, 90, 0
2, 47480, Note_off_c, 1, 93, 0
2, 47480, Note_on_c, 1, 99, 127
2, 47520, Note_on_c, 1, 48, 127
2, 47520, Note_off_c, 1, 57, 0
2, 47520, Note_on_c, 1, 60, 127
2, 47520, Note_on_c, 1, 78, 127
2, 47520, Note_on_c, 1, 81, 127
2, 47520, Note_on_c, 1, 87, 127
2, 47520, Note_on_c, 1, 90, 127
2, 47520, Note_off_c, 1, 99, 0
2, 47560, Note_on_c, 1, 45, 127
2, 47560, Note_off_c, 1, 48, 0
2, 47560, Note_off_c, 1, 60, 0
2, 47560, Note_off_c, 1, 78, 0
2, 47560, Note_off_c, 1, 81, 0
2, 47560, Note_off_c, 1, 87, 0
2, 47560, Note_off_c, 1, 90, 0
2, 47560, Note_on_c, 1, 91, 127
2, 47600, Note_off_c, 1, 45, 0
2, 47600, Note_on_c, 1, 89, 127
2, 47600, Note_off_c, 1, 91, 0
2, 47640, Note_off_c, 1, 89, 0
2, 47680, Note_on_c, 1, 47, 127
2, 47680, Note_on_c, 1, 57, 127
2, 47680, Note_on_c, 1, 62, 127
2, 47680, Note_on_c, 1, 68, 127
2, 47680, Note_on_c, 1, 71, 127
2, 47720, Note_off_c, 1, 47, 0
2, 47720, Note_on_c, 1, 49, 127
2, 47720, Note_on_c, 1, 55, 127
2, 47720, Note_off_c, 1, 57, 0
2, 47720, Note_on_c, 1, 59, 127
2, 47720, Note_off_c, 1, 62, 0
2, 47720, Note_on_c, 1, 67, 127
2, 47720, Note_off_c, 1, 68, 0
2, 47720, Note_off_c, 1, 71, 0
2, 47760, Note_off_c, 1, 49, 0
2, 47760, Note_off_c, 1, 55, 0
2, 47760, Note_off_c, 1, 59, 0
2, 47760, Note_off_c, 1, 67, 0
2, 47800, Note_on_c, 1, 55, 127
2, 47800, Note_on_c, 1, 61, 127
2, 47800, Note_on_c, 1, 70, 127
2, 47800, Note_on_c, 1, 79, 127
2, 47800, Note_on_c, 1, 82, 127
2, 47840, Note_on_c, 1, 52, 127
2, 47840, Note_off_c, 1, 55, 0
2, 47840, Note_on_c, 1, 60, 127
2, 47840, Note_off_c, 1, 61, 0
2, 47840, Note_on_c, 1, 67, 127
2, 47840, Note_off_c, 1, 70, 0
2, 47840, Note_on_c, 1, 71, 127
2, 47840, Note_off_c, 1, 79, 0
2, 47840, Note_off_c, 1, 82, 0
2, 47880, Note_off_c, 1, 60, 0
2, 47880, Note_on_c, 1, 66, 127
2, 47880, Note_off_c, 1, 67, 0
2, 47880, Note_off_c, 1, 71, 0
2, 47880, Note_on_c, 1, 73, 127
2, 47880, Note_on_c, 1, 82, 127
2, 47880, Note_on_c, 1, 85, 127
2, 47920, Note_off_c, 1, 52, 0
2, 47920, Note_off_c, 1, 66, 0
2, 47920, Note_off_c, 1, 73, 0
2, 47920, Note_off_c, 1, 82, 0
2, 47920, Note_off_c, 1, 85, 0
2, 47960, Note_on_c, 1, 50, 127
2, 47960, Note_on_c, 1, 53, 127
2, 47960, Note_on_c, 1, 59, 127
2, 47960, Note_on_c, 1, 65, 127
2, 47960, Note_on_c, 1, 71, 127
2, 48120, Note_off_c, 1, 50, 0
2, 48120, Note_off_c, 1, 59, 0
2, 48120, Note_off_c, 1, 65, 0
2, 48120, Note_off_c, 1, 71, 0
2, 48160, Note_off_c, 1, 53, 0
2, 48200, Note_on_c, 1, 50, 127
2, 48200, Note_on_c, 1, 53, 127
2, 48200, Note_on_c, 1, 59, 127
2, 48200, Note_on_c, 1, 65, 127
2, 48200, Note_on_c, 1, 71, 127
2, 48440, Note_off_c, 1, 50, 0
2, 48440, Note_off_c, 1, 59, 0
2, 48440, Note_off_c, 1, 65, 0
2, 48440, Note_off_c, 1, 71, 0
2, 48480, Note_on_c, 1, 49, 127
2, 48480, Note_off_c, 1, 53, 0
2, 48480, Note_on_c, 1, 56, 127
2, 48480, Note_on_c, 1, 61, 127
2, 48480, Note_on_c, 1, 66, 127
2, 48480, Note_on_c, 1, 70, 127
2, 48480, Note_on_c, 1, 73, 127
2, 48760, Note_off_c, 1, 49, 0
2, 48760, Note_off_c, 1, 56, 0
2, 48760, Note_off_c, 1, 61, 0
2, 48760, Note_off_c, 1, 66, 0
2, 48760, Note_off_c, 1, 70, 0
2, 48760, Note_off_c, 1, 73, 0
2, 48800, Note_on_c, 1, 55, 127
2, 48800, Note_on_c, 1, 62, 127
2, 48800, Note_on_c, 1, 70, 127
2, 48800, Note_on_c, 1, 79, 127
2, 49040, Note_off_c, 1, 55, 0
2, 49040, Note_off_c, 1, 62, 0
2, 49040, Note_off_c, 1, 70, 0
2, 49040, Note_off_c, 1, 79, 0
2, 49080, Note_on_c, 1, 57, 127
2, 49080, Note_on_c, 1, 60, 127
2, 49080, Note_on_c, 1, 69, 127
2, 49080, Note_on_c, 1, 72, 127
2, 49120, Note_off_c, 1, 57, 0
2, 49120, Note_off_c, 1, 60, 0
2, 49120, Note_off_c, 1, 69, 0
2, 49120, Note_off_c, 1, 72, 0
2, 49160, Note_on_c, 1, 59, 127
2, 49160, Note_on_c, 1, 62, 127
2, 49160, Note_on_c, 1, 71, 127
2, 49160, Note_on_c, 1, 74, 127
2, 49280, Note_off_c, 1, 59, 0
2, 49280, Note_off_c, 1, 62, 0
2, 49280, Note_off_c, 1, 71, 0
2, 49280, Note_off_c, 1, 74, 0
2, 49320, Note_on_c, 1, 45, 127
2, 49320, Note_on_c, 1, 57, 127
2, 49320, Note_on_c, 1, 69, 127
2, 49360, Note_off_c, 1, 57, 0
2, 49360, Note_off_c, 1, 69, 0
2, 49480, Note_on_c, 1, 33, 127
2, 49480, Note_on_c, 1, 40, 127
2, 49480, Note_on_c, 1, 43, 127
2, 49480, Note_on_c, 1, 49, 127
2, 49480, Note_on_c, 1, 57, 127
2, 49480, Note_on_c, 1, 61, 127
2, 49640, Note_off_c, 1, 33, 0
2, 49640, Note_off_c, 1, 40, 0
2, 49640, Note_off_c, 1, 43, 0
2, 49640, Note_off_c, 1, 49, 0
2, 49640, Note_off_c, 1, 57, 0
2, 49640, Note_off_c, 1, 61, 0
2, 49680, Note_off_c, 1, 45, 0
2, 49680, Note_on_c, 1, 48, 127
2, 49680, Note_on_c, 1, 65, 127
2, 49680, Note_on_c, 1, 70, 127
2, 49680, Note_on_c, 1, 74, 127
2, 49680, Note_on_c, 1, 81, 127
2, 49800, Note_off_c, 1, 65, 0
2, 49800, Note_off_c, 1, 70, 0
2, 49800, Note_off_c, 1, 74, 0
2, 49800, Note_off_c, 1, 81, 0
2, 49840, Note_on_c, 1, 65, 127
2, 49840, Note_on_c, 1, 70, 127
2, 49840, Note_on_c, 1, 74, 127
2, 49840, Note_on_c, 1, 81, 127
2, 49960, Note_off_c, 1, 48, 0
2, 49960, Note_on_c, 1, 50, 127
2, 49960, Note_off_c, 1, 65, 0
2, 49960, Note_off_c, 1, 70, 0
2, 49960, Note_off_c, 1, 74, 0
2, 49960, Note_off_c, 1, 81, 0
2, 50000, Note_on_c, 1, 48, 127
2, 50000, Note_off_c, 1, 50, 0
2, 50000, Note_on_c, 1, 65, 127
2, 50000, Note_on_c, 1, 70, 127
2, 50000, Note_on_c, 1, 74, 127
2, 50000, Note_on_c, 1, 81, 127
2, 50120, Note_off_c, 1, 65, 0
2, 50120, Note_off_c, 1, 70, 0
2, 50120, Note_off_c, 1, 74, 0
2, 50120, Note_off_c, 1, 81, 0
2, 50160, Note_on_c, 1, 65, 127
2, 50160, Note_on_c, 1, 70, 127
2, 50160, Note_on_c, 1, 74, 127
2, 50160, Note_on_c, 1, 81, 127
2, 50320, Note_off_c, 1, 65, 0
2, 50320, Note_off_c, 1, 70, 0
2, 50320, Note_off_c, 1, 74, 0
2, 50320, Note_off_c, 1, 81, 0
2, 50360, Note_off_c, 1, 48, 0
2, 50400, Note_on_c, 1, 48, 127
2, 50400, Note_on_c, 1, 58, 127
2, 50400, Note_on_c, 1, 67, 127
2, 50400, Note_on_c, 1, 75, 127
2, 50440, Note_off_c, 1, 58, 0
2, 50440, Note_off_c, 1, 67, 0
2, 50440, Note_off_c, 1, 75, 0
2, 50480, Note_on_c, 1, 36, 127
2, 50480, Note_off_c, 1, 48, 0
2, 50480, Note_on_c, 1, 72, 127
2, 50480, Note_on_c, 1, 75, 127
2, 50480, Note_on_c, 1, 79, 127
2, 50480, Note_on_c, 1, 84, 127
2, 50640, Note_off_c, 1, 36, 0
2, 50640, Note_on_c, 1, 48, 127
2, 50680, Note_on_c, 1, 36, 127
2, 50680, Note_off_c, 1, 48, 0
2, 50720, Note_off_c, 1, 36, 0
2, 50720, Note_on_c, 1, 48, 127
2, 50720, Note_off_c, 1, 72, 0
2, 50720, Note_off_c, 1, 75, 0
2, 50720, Note_off_c, 1, 79, 0
2, 50720, Note_off_c, 1, 84, 0
2, 50760, Note_off_c, 1, 48, 0
2, 50760, Note_on_c, 1, 58, 127
2, 50760, Note_on_c, 1, 64, 127
2, 50760, Note_on_c, 1, 84, 127
2, 50760, Note_on_c, 1, 88, 127
2, 50760, Note_on_c, 1, 93, 127
2, 51000, Note_off_c, 1, 58, 0
2, 51000, Note_off_c, 1, 64, 0
2, 51000, Note_off_c, 1, 84, 0
2, 51000, Note_off_c, 1, 88, 0
2, 51000, Note_off_c, 1, 93, 0
2, 51040, Note_on_c, 1, 44, 127
2, 51040, Note_on_c, 1, 45, 127
2, 51040, Note_on_c, 1, 52, 127
2, 51040, Note_on_c, 1, 67, 127
2, 51080, Note_off_c, 1, 44, 0
2, 51080, Note_off_c, 1, 45, 0
2, 51080, Note_off_c, 1, 52, 0
2, 51080, Note_off_c, 1, 67, 0
2, 51120, Note_on_c, 1, 31, 127
2, 51120, Note_on_c, 1, 38, 127
2, 51120, Note_on_c, 1, 62, 127
2, 51120, Note_on_c, 1, 70, 127
2, 51160, Note_off_c, 1, 62, 0
2, 51160, Note_off_c, 1, 70, 0
2, 51200, Note_off_c, 1, 31, 0
2, 51200, Note_off_c, 1, 38, 0
2, 51200, Note_on_c, 1, 67, 127
2, 51200, Note_on_c, 1, 71, 127
2, 51200, Note_on_c, 1, 74, 127
2, 51200, Note_on_c, 1, 80, 127
2, 51200, Note_on_c, 1, 85, 127
2, 51240, Note_on_c, 1, 39, 127
2, 51240, Note_on_c, 1, 54, 127
2, 51240, Note_on_c, 1, 56, 127
2, 51240, Note_on_c, 1, 60, 127
2, 51240, Note_off_c, 1, 67, 0
2, 51240, Note_off_c, 1, 71, 0
2, 51240, Note_off_c, 1, 74, 0
2, 51240, Note_off_c, 1, 80, 0
2, 51240, Note_off_c, 1, 85, 0
2, 51280, Note_off_c, 1, 39, 0
2, 51280, Note_on_c, 1, 43, 127
2, 51280, Note_on_c, 1, 48, 127
2, 51280, Note_on_c, 1, 52, 127
2, 51280, Note_off_c, 1, 54, 0
2, 51280, Note_on_c, 1, 55, 127
2, 51280, Note_off_c, 1, 56, 0
2, 51280, Note_off_c, 1, 60, 0
2, 51280, Note_on_c, 1, 64, 127
2, 51320, Note_on_c, 1, 46, 127
2, 51320, Note_off_c, 1, 48, 0
2, 51320, Note_on_c, 1, 50, 127
2, 51320, Note_off_c, 1, 52, 0
2, 51320, Note_off_c, 1, 55, 0
2, 51320, Note_off_c, 1, 64, 0
2, 51320, Note_on_c, 1, 67, 127
2, 51320, Note_on_c, 1, 70, 127
2, 51320, Note_on_c, 1, 74, 127
2, 51360, Note_off_c, 1, 43, 0
2, 51360, Note_on_c, 1, 44, 127
2, 51360, Note_off_c, 1, 46, 0
2, 51360, Note_on_c, 1, 49, 127
2, 51360, Note_off_c, 1, 50, 0
2, 51360, Note_on_c, 1, 53, 127
2, 51360, Note_on_c, 1, 59, 127
2, 51360, Note_on_c, 1, 61, 127
2, 51360, Note_on_c, 1, 65, 127
2, 51360, Note_off_c, 1, 67, 0
2, 51360, Note_off_c, 1, 70, 0
2, 51360, Note_on_c, 1, 73, 127
2, 51360, Note_off_c, 1, 74, 0
2, 51400, Note_off_c, 1, 44, 0
2, 51400, Note_off_c, 1, 49, 0
2, 51400, Note_off_c, 1, 53, 0
2, 51400, Note_off_c, 1, 59, 0
2, 51400, Note_off_c, 1, 61, 0
2, 51400, Note_off_c, 1, 65, 0
2, 51400, Note_off_c, 1, 73, 0
2, 51400, Note_on_c, 1, 98, 127
2, 51400, Note_on_c, 1, 99, 127
2, 51400, Note_on_c, 1, 101, 127
2, 51400, Note_on_c, 1, 103, 127
2, 51400, Note_on_c, 1, 104, 127
2, 51440, Note_off_c, 1, 98, 0
2, 51440, Note_off_c, 1, 99, 0
2, 51440, Note_off_c, 1, 101, 0
2, 51440, Note_off_c, 1, 103, 0
2, 51440, Note_off_c, 1, 104, 0
2, 51480, Note_on_c, 1, 35, 127
2, 51480, Note_on_c, 1, 42, 127
2, 51480, Note_on_c, 1, 62, 127
2, 51480, Note_on_c, 1, 66, 127
2, 51480, Note_on_c, 1, 69, 127
2, 51560, Note_off_c, 1, 69, 0
2, 51560, Note_on_c, 1, 71, 127
2, 52360, Note_off_c, 1, 35, 0
2, 52360, Note_off_c, 1, 42, 0
2, 52360, Note_off_c, 1, 62, 0
2, 52360, Note_off_c, 1, 66, 0
2, 52360, Note_off_c, 1, 71, 0
2, 52400, Note_on_c, 1, 35, 127
2, 52400, Note_on_c, 1, 42, 127
2, 52400, Note_on_c, 1, 62, 127
2, 52400, Note_on_c, 1, 66, 127
2, 52400, Note_on_c, 1, 71, 127
2, 52440, Note_off_c, 1, 35, 0
2, 52440, Note_off_c, 1, 42, 0
2, 52440, Note_off_c, 1, 62, 0
2, 52440, Note_off_c, 1, 66, 0
2, 52440, Note_off_c, 1, 71, 0
2, 52480, Note_on_c, 1, 50, 127
2, 52480, Note_on_c, 1, 54, 127
2, 52480, Note_on_c, 1, 62, 127
2, 52480, Note_on_c, 1, 85, 127
2, 52520, Note_off_c, 1, 50, 0
2, 52520, Note_off_c, 1, 54, 0
2, 52520, Note_on_c, 1, 60, 127
2, 52520, Note_off_c, 1, 62, 0
2, 52520, Note_on_c, 1, 65, 127
2, 52520, Note_on_c, 1, 74, 127
2, 52520, Note_off_c, 1, 85, 0
2, 52520, Note_on_c, 1, 86, 127
2, 52560, Note_on_c, 1, 37, 127
2, 52560, Note_on_c, 1, 48, 127
2, 52560, Note_off_c, 1, 60, 0
2, 52560, Note_on_c, 1, 61, 127
2, 52560, Note_off_c, 1, 65, 0
2, 52560, Note_off_c, 1, 74, 0
2, 52560, Note_off_c, 1, 86, 0
2, 52600, Note_off_c, 1, 37, 0
2, 52600, Note_off_c, 1, 48, 0
2, 52600, Note_on_c, 1, 52, 127
2, 52600, Note_on_c, 1, 59, 127
2, 52600, Note_off_c, 1, 61, 0
2, 52600, Note_on_c, 1, 62, 127
2, 52600, Note_on_c, 1, 69, 127
2, 52600, Note_on_c, 1, 90, 127
2, 52640, Note_on_c, 1, 48, 127
2, 52640, Note_on_c, 1, 50, 127
2, 52640, Note_off_c, 1, 52, 0
2, 52640, Note_on_c, 1, 53, 127
2, 52640, Note_on_c, 1, 55, 127
2, 52640, Note_off_c, 1, 59, 0
2, 52640, Note_off_c, 1, 62, 0
2, 52640, Note_off_c, 1, 69, 0
2, 52640, Note_on_c, 1, 77, 127
2, 52640, Note_off_c, 1, 90, 0
2, 52680, Note_off_c, 1, 48, 0
2, 52680, Note_off_c, 1, 50, 0
2, 52680, Note_off_c, 1, 53, 0
2, 52680, Note_off_c, 1, 55, 0
2, 52680, Note_on_c, 1, 58, 127
2, 52680, Note_on_c, 1, 66, 127
2, 52680, Note_on_c, 1, 70, 127
2, 52680, Note_on_c, 1, 75, 127
2, 52680, Note_off_c, 1, 77, 0
2, 52680, Note_on_c, 1, 78, 127
2, 52680, Note_on_c, 1, 82, 127
2, 52720, Note_off_c, 1, 58, 0
2, 52720, Note_off_c, 1, 66, 0
2, 52720, Note_off_c, 1, 70, 0
2, 52720, Note_off_c, 1, 75, 0
2, 52720, Note_off_c, 1, 78, 0
2, 52720, Note_off_c, 1, 82, 0
2, 52760, Note_on_c, 1, 45, 127
2, 52760, Note_on_c, 1, 55, 127
2, 52760, Note_on_c, 1, 60, 127
2, 52760, Note_on_c, 1, 66, 127
2, 53000, Note_off_c, 1, 45, 0
2, 53000, Note_off_c, 1, 55, 0
2, 53000, Note_off_c, 1, 60, 0
2, 53000, Note_off_c, 1, 66, 0
2, 53040, Note_on_c, 1, 77, 127
2, 53040, Note_on_c, 1, 80, 127
2, 53040, Note_on_c, 1, 83, 127
2, 53040, Note_on_c, 1, 86, 127
2, 53320, Note_off_c, 1, 77, 0
2, 53320, Note_off_c, 1, 80, 0
2, 53320, Note_off_c, 1, 83, 0
2, 53320, Note_off_c, 1, 86, 0
2, 53360, Note_on_c, 1, 31, 127
2, 53360, Note_on_c, 1, 43, 127
2, 53360, Note_on_c, 1, 50, 127
2, 53360, Note_on_c, 1, 62, 127
2, 53360, Note_on_c, 1, 71, 127
2, 53360, Note_on_c, 1, 83, 127
2, 53400, Note_off_c, 1, 31, 0
2, 53400, Note_off_c, 1, 43, 0
2, 53400, Note_off_c, 1, 50, 0
2, 53400, Note_on_c, 1, 57, 127
2, 53400, Note_on_c, 1, 66, 127
2, 53400, Note_on_c, 1, 69, 127
2, 53400, Note_off_c, 1, 71, 0
2, 53400, Note_on_c, 1, 78, 127
2, 53400, Note_on_c, 1, 81, 127
2, 53400, Note_off_c, 1, 83, 0
2, 53400, Note_on_c, 1, 90, 127
2, 53440, Note_on_c, 1, 43, 127
2, 53440, Note_on_c, 1, 53, 127
2, 53440, Note_off_c, 1, 57, 0
2, 53440, Note_on_c, 1, 58, 127
2, 53440, Note_off_c, 1, 62, 0
2, 53440, Note_on_c, 1, 65, 127
2, 53440, Note_off_c, 1, 66, 0
2, 53440, Note_off_c, 1, 69, 0
2, 53440, Note_off_c, 1, 78, 0
2, 53440, Note_off_c, 1, 81, 0
2, 53440, Note_off_c, 1, 90, 0
2, 53480, Note_off_c, 1, 43, 0
2, 53480, Note_off_c, 1, 53, 0
2, 53480, Note_off_c, 1, 58, 0
2, 53480, Note_off_c, 1, 65, 0
2, 53480, Note_on_c, 1, 67, 127
2, 53480, Note_on_c, 1, 76, 127
2, 53480, Note_on_c, 1, 79, 127
2, 53480, Note_on_c, 1, 85, 127
2, 53480, Note_on_c, 1, 88, 127
2, 53520, Note_on_c, 1, 66, 127
2, 53520, Note_off_c, 1, 67, 0
2, 53520, Note_on_c, 1, 74, 127
2, 53520, Note_off_c, 1, 76, 0
2, 53520, Note_on_c, 1, 78, 127
2, 53520, Note_off_c, 1, 79, 0
2, 53520, Note_off_c, 1, 85, 0
2, 53520, Note_on_c, 1, 86, 127
2, 53520, Note_off_c, 1, 88, 0
2, 53520, Note_on_c, 1, 90, 127
2, 53560, Note_on_c, 1, 31, 127
2, 53560, Note_on_c, 1, 43, 127
2, 53560, Note_on_c, 1, 50, 127
2, 53560, Note_on_c, 1, 62, 127
2, 53560, Note_off_c, 1, 66, 0
2, 53560, Note_on_c, 1, 71, 127
2, 53560, Note_off_c, 1, 74, 0
2, 53560, Note_off_c, 1, 78, 0
2, 53560, Note_on_c, 1, 79, 127
2, 53560, Note_off_c, 1, 86, 0
2, 53560, Note_off_c, 1, 90, 0
2, 53600, Note_off_c, 1, 31, 0
2, 53600, Note_off_c, 1, 43, 0
2, 53600, Note_off_c, 1, 50, 0
2, 53600, Note_off_c, 1, 62, 0
2, 53600, Note_off_c, 1, 71, 0
2, 53600, Note_off_c, 1, 79, 0
2, 53640, Note_on_c, 1, 57, 127
2, 53640, Note_on_c, 1, 60, 127
2, 53640, Note_on_c, 1, 64, 127
2, 53640, Note_on_c, 1, 69, 127
2, 53640, Note_on_c, 1, 72, 127
2, 53640, Note_on_c, 1, 76, 127
2, 53640, Note_on_c, 1, 81, 127
2, 53640, Note_on_c, 1, 84, 127
2, 53920, Note_off_c, 1, 57, 0
2, 53920, Note_off_c, 1, 60, 0
2, 53920, Note_off_c, 1, 64, 0
2, 53920, Note_off_c, 1, 69, 0
2, 53960, Note_on_c, 1, 48, 127
2, 53960, Note_on_c, 1, 55, 127
2, 53960, Note_on_c, 1, 60, 127
2, 53960, Note_on_c, 1, 67, 127
2, 53960, Note_off_c, 1, 72, 0
2, 53960, Note_off_c, 1, 76, 0
2, 53960, Note_on_c, 1, 77, 127
2, 53960, Note_off_c, 1, 81, 0
2, 53960, Note_off_c, 1, 84, 0
2, 54200, Note_off_c, 1, 67, 0
2, 54240, Note_on_c, 1, 67, 127
2, 54360, Note_off_c, 1, 48, 0
2, 54360, Note_off_c, 1, 55, 0
2, 54360, Note_off_c, 1, 60, 0
2, 54360, Note_off_c, 1, 67, 0
2, 54360, Note_off_c, 1, 77, 0
2, 54400, Note_on_c, 1, 48, 127
2, 54400, Note_on_c, 1, 55, 127
2, 54400, Note_on_c, 1, 60, 127
2, 54440, Note_on_c, 1, 72, 127
2, 54440, Note_on_c, 1, 76, 127
2, 54520, Note_off_c, 1, 72, 0
2, 54640, Note_on_c, 1, 67, 127
2, 54680, Note_off_c, 1, 67, 0
2, 54680, Note_off_c, 1, 76, 0
2, 54720, Note_on_c, 1, 64, 127
2, 54720, Note_on_c, 1, 76, 127
2, 55000, Note_off_c, 1, 48, 0
2, 55000, Note_off_c, 1, 55, 0
2, 55000, Note_off_c, 1, 60, 0
2, 55000, Note_off_c, 1, 64, 0
2, 55000, Note_off_c, 1, 76, 0
2, 55040, Note_on_c, 1, 48, 127
2, 55040, Note_on_c, 1, 55, 127
2, 55040, Note_on_c, 1, 60, 127
2, 55040, Note_on_c, 1, 64, 127
2, 55040, Note_on_c, 1, 76, 127
2, 55640, Note_off_c, 1, 48, 0
2, 55640, Note_off_c, 1, 55, 0
2, 55640, Note_off_c, 1, 60, 0
2, 55640, Note_off_c, 1, 64, 0
2, 55640, Note_off_c, 1, 76, 0
2, 55680, Note_on_c, 1, 48, 127
2, 55680, Note_on_c, 1, 57, 127
2, 55680, Note_on_c, 1, 66, 127
2, 55680, Note_on_c, 1, 72, 127
2, 56320, Note_off_c, 1, 48, 0
2, 56320, Note_off_c, 1, 57, 0
2, 56320, Note_off_c, 1, 66, 0
2, 56320, Note_on_c, 1, 67, 127
2, 56320, Note_off_c, 1, 72, 0
2, 56360, Note_off_c, 1, 67, 0
2, 56400, Note_on_c, 1, 43, 127
2, 56400, Note_on_c, 1, 59, 127
2, 56400, Note_on_c, 1, 67, 127
2, 56400, Note_on_c, 1, 74, 127
2, 57000, Note_off_c, 1, 67, 0
2, 57040, Note_on_c, 1, 67, 127
2, 57680, Note_off_c, 1, 59, 0
2, 57680, Note_off_c, 1, 67, 0
2, 57720, Note_on_c, 1, 48, 127
2, 57720, Note_on_c, 1, 69, 127
2, 57760, Note_off_c, 1, 48, 0
2, 57760, Note_off_c, 1, 69, 0
2, 58080, Note_on_c, 1, 50, 127
2, 58080, Note_on_c, 1, 62, 127
2, 58320, Note_off_c, 1, 50, 0
2, 58320, Note_off_c, 1, 62, 0
2, 58360, Note_off_c, 1, 43, 0
2, 58360, Note_off_c, 1, 74, 0
2, 58400, Note_on_c, 1, 43, 127
2, 58400, Note_on_c, 1, 59, 127
2, 58400, Note_on_c, 1, 74, 127
2, 58720, Note_off_c, 1, 43, 0
2, 58720, Note_off_c, 1, 59, 0
2, 58720, Note_off_c, 1, 74, 0
2, 58760, Note_on_c, 1, 48, 127
2, 58760, Note_on_c, 1, 60, 127
2, 58760, Note_on_c, 1, 64, 127
2, 58760, Note_on_c, 1, 67, 127
2, 58760, Note_on_c, 1, 72, 127
2, 59400, Note_off_c, 1, 48, 0
2, 59400, Note_off_c, 1, 60, 0
2, 59400, Note_off_c, 1, 64, 0
2, 59400, Note_off_c, 1, 67, 0
2, 59400, Note_off_c, 1, 72, 0
2, 59440, Note_on_c, 1, 48, 127
2, 59440, Note_on_c, 1, 67, 127
2, 59440, Note_on_c, 1, 77, 127
2, 59520, Note_off_c, 1, 67, 0
2, 59520, Note_off_c, 1, 77, 0
2, 59520, Note_on_c, 1, 79, 127
2, 59560, Note_on_c, 1, 67, 127
2, 59560, Note_on_c, 1, 75, 127
2, 59560, Note_off_c, 1, 79, 0
2, 59600, Note_off_c, 1, 75, 0
2, 59600, Note_on_c, 1, 77, 127
2, 59640, Note_off_c, 1, 77, 0
2, 59680, Note_on_c, 1, 77, 127
2, 59760, Note_off_c, 1, 77, 0
2, 59800, Note_on_c, 1, 77, 127
2, 59880, Note_off_c, 1, 77, 0
2, 59920, Note_on_c, 1, 77, 127
2, 60000, Note_off_c, 1, 77, 0
2, 60040, Note_on_c, 1, 76, 127
2, 60120, Note_off_c, 1, 48, 0
2, 60120, Note_off_c, 1, 67, 0
2, 60120, Note_off_c, 1, 76, 0
2, 60160, Note_on_c, 1, 48, 127
2, 60160, Note_on_c, 1, 69, 127
2, 60160, Note_on_c, 1, 75, 127
2, 60520, Note_off_c, 1, 48, 0
2, 60520, Note_off_c, 1, 69, 0
2, 60520, Note_off_c, 1, 75, 0
2, 60560, Note_on_c, 1, 48, 127
2, 60560, Note_on_c, 1, 69, 127
2, 60560, Note_on_c, 1, 75, 127
2, 60840, Note_off_c, 1, 48, 0
2, 60880, Note_on_c, 1, 48, 127
2, 61200, Note_off_c, 1, 48, 0
2, 61240, Note_on_c, 1, 53, 127
2, 61240, Note_on_c, 1, 67, 127
2, 61240, Note_off_c, 1, 69, 0
2, 61520, Note_off_c, 1, 53, 0
2, 61560, Note_on_c, 1, 48, 127
2, 61880, Note_off_c, 1, 48, 0
2, 61880, Note_off_c, 1, 67, 0
2, 61880, Note_off_c, 1, 75, 0
2, 61920, Note_on_c, 1, 40, 127
2, 61920, Note_on_c, 1, 52, 127
2, 61920, Note_on_c, 1, 64, 127
2, 61920, Note_on_c, 1, 72, 127
2, 62240, Note_off_c, 1, 40, 0
2, 62240, Note_off_c, 1, 52, 0
2, 62240, Note_on_c, 1, 69, 127
2, 62280, Note_on_c, 1, 40, 127
2, 62280, Note_on_c, 1, 52, 127
2, 62280, Note_off_c, 1, 64, 0
2, 62280, Note_on_c, 1, 67, 127
2, 62280, Note_off_c, 1, 69, 0
2, 62560, Note_off_c, 1, 40, 0
2, 62560, Note_off_c, 1, 52, 0
2, 62560, Note_off_c, 1, 67, 0
2, 62600, Note_on_c, 1, 43, 127
2, 62600, Note_on_c, 1, 55, 127
2, 62600, Note_on_c, 1, 62, 127
2, 62600, Note_on_c, 1, 71, 127
2, 62600, Note_off_c, 1, 72, 0
2, 62600, Note_on_c, 1, 74, 127
2, 62840, Note_off_c, 1, 43, 0
2, 62840, Note_off_c, 1, 55, 0
2, 62840, Note_off_c, 1, 62, 0
2, 62840, Note_off_c, 1, 71, 0
2, 62840, Note_off_c, 1, 74, 0
2, 62880, Note_on_c, 1, 43, 127
2, 62880, Note_on_c, 1, 55, 127
2, 62880, Note_on_c, 1, 62, 127
2, 62880, Note_on_c, 1, 71, 127
2, 62880, Note_on_c, 1, 74, 127
2, 63640, Note_off_c, 1, 43, 0
2, 63640, Note_off_c, 1, 55, 0
2, 63640, Note_off_c, 1, 62, 0
2, 63640, Note_off_c, 1, 71, 0
2, 63640, Note_off_c, 1, 74, 0
2, 63680, Note_on_c, 1, 55, 127
2, 63680, Note_on_c, 1, 57, 127
2, 63680, Note_on_c, 1, 64, 127
2, 63680, Note_on_c, 1, 83, 127
2, 63720, Note_on_c, 1, 50, 127
2, 63720, Note_off_c, 1, 55, 0
2, 63720, Note_on_c, 1, 60, 127
2, 63720, Note_on_c, 1, 63, 127
2, 63720, Note_off_c, 1, 64, 0
2, 63720, Note_on_c, 1, 67, 127
2, 63720, Note_off_c, 1, 83, 0
2, 63760, Note_on_c, 1, 38, 127
2, 63760, Note_off_c, 1, 50, 0
2, 63760, Note_off_c, 1, 57, 0
2, 63760, Note_off_c, 1, 60, 0
2, 63760, Note_off_c, 1, 63, 0
2, 63760, Note_on_c, 1, 93, 127
2, 63800, Note_off_c, 1, 38, 0
2, 63800, Note_on_c, 1, 58, 127
2, 63800, Note_on_c, 1, 60, 127
2, 63800, Note_on_c, 1, 83, 127
2, 63800, Note_off_c, 1, 93, 0
2, 63840, Note_on_c, 1, 33, 127
2, 63840, Note_off_c, 1, 58, 0
2, 63840, Note_off_c, 1, 60, 0
2, 63840, Note_on_c, 1, 65, 127
2, 63840, Note_off_c, 1, 67, 0
2, 63840, Note_on_c, 1, 72, 127
2, 63840, Note_off_c, 1, 83, 0
2, 63880, Note_off_c, 1, 33, 0
2, 63880, Note_on_c, 1, 45, 127
2, 63880, Note_on_c, 1, 64, 127
2, 63880, Note_off_c, 1, 65, 0
2, 63880, Note_on_c, 1, 69, 127
2, 63880, Note_off_c, 1, 72, 0
2, 63880, Note_on_c, 1, 73, 127
2, 63880, Note_on_c, 1, 79, 127
2, 63880, Note_on_c, 1, 81, 127
2, 63920, Note_off_c, 1, 45, 0
2, 63920, Note_off_c, 1, 64, 0
2, 63920, Note_on_c, 1, 72, 127
2, 63920, Note_off_c, 1, 73, 0
2, 63920, Note_on_c, 1, 77, 127
2, 63920, Note_off_c, 1, 79, 0
2, 63920, Note_on_c, 1, 84, 127
2, 63920, Note_on_c, 1, 89, 127
2, 63920, Note_on_c, 1, 96, 127
2, 63960, Note_on_c, 1, 44, 127
2, 63960, Note_on_c, 1, 47, 127
2, 63960, Note_off_c, 1, 69, 0
2, 63960, Note_off_c, 1, 72, 0
2, 63960, Note_on_c, 1, 74, 127
2, 63960, Note_off_c, 1, 77, 0
2, 63960, Note_off_c, 1, 81, 0
2, 63960, Note_off_c, 1, 84, 0
2, 63960, Note_off_c, 1, 89, 0
2, 63960, Note_off_c, 1, 96, 0
2, 64000, Note_off_c, 1, 44, 0
2, 64000, Note_off_c, 1, 47, 0
2, 64000, Note_off_c, 1, 74, 0
2, 64040, Note_on_c, 1, 38, 127
2, 64040, Note_on_c, 1, 47, 127
2, 64040, Note_on_c, 1, 74, 127
2, 64040, Note_on_c, 1, 83, 127
2, 64360, Note_off_c, 1, 38, 0
2, 64360, Note_off_c, 1, 47, 0
2, 64360, Note_off_c, 1, 74, 0
2, 64360, Note_off_c, 1, 83, 0
2, 64360, Note_on_c, 1, 86, 127
2, 64400, Note_on_c, 1, 52, 127
2, 64400, Note_on_c, 1, 62, 127
2, 64400, Note_on_c, 1, 76, 127
2, 64400, Note_on_c, 1, 83, 127
2, 64440, Note_on_c, 1, 50, 127
2, 64440, Note_off_c, 1, 52, 0
2, 64440, Note_on_c, 1, 54, 127
2, 64440, Note_off_c, 1, 62, 0
2, 64440, Note_on_c, 1, 67, 127
2, 64440, Note_on_c, 1, 73, 127
2, 64440, Note_off_c, 1, 76, 0
2, 64440, Note_off_c, 1, 83, 0
2, 64440, Note_off_c, 1, 86, 0
2, 64480, Note_off_c, 1, 50, 0
2, 64480, Note_off_c, 1, 54, 0
2, 64480, Note_on_c, 1, 61, 127
2, 64480, Note_on_c, 1, 64, 127
2, 64480, Note_off_c, 1, 67, 0
2, 64480, Note_on_c, 1, 79, 127
2, 64480, Note_on_c, 1, 82, 127
2, 64480, Note_on_c, 1, 85, 127
2, 64520, Note_on_c, 1, 43, 127
2, 64520, Note_on_c, 1, 50, 127
2, 64520, Note_on_c, 1, 53, 127
2, 64520, Note_on_c, 1, 55, 127
2, 64520, Note_off_c, 1, 61, 0
2, 64520, Note_off_c, 1, 64, 0
2, 64520, Note_on_c, 1, 72, 127
2, 64520, Note_off_c, 1, 73, 0
2, 64520, Note_on_c, 1, 76, 127
2, 64520, Note_off_c, 1, 79, 0
2, 64520, Note_off_c, 1, 82, 0
2, 64520, Note_on_c, 1, 84, 127
2, 64520, Note_off_c, 1, 85, 0
2, 64560, Note_off_c, 1, 43, 0
2, 64560, Note_on_c, 1, 46, 127
2, 64560, Note_off_c, 1, 53, 0
2, 64560, Note_off_c, 1, 72, 0
2, 64560, Note_off_c, 1, 76, 0
2, 64560, Note_off_c, 1, 84, 0
2, 64560, Note_on_c, 1, 93, 127
2, 64600, Note_on_c, 1, 38, 127
2, 64600, Note_off_c, 1, 46, 0
2, 64600, Note_off_c, 1, 50, 0
2, 64600, Note_on_c, 1, 52, 127
2, 64600, Note_off_c, 1, 55, 0
2, 64600, Note_on_c, 1, 67, 127
2, 64600, Note_on_c, 1, 81, 127
2, 64600, Note_off_c, 1, 93, 0
2, 64640, Note_off_c, 1, 38, 0
2, 64640, Note_on_c, 1, 48, 127
2, 64640, Note_off_c, 1, 52, 0
2, 64640, Note_on_c, 1, 53, 127
2, 64640, Note_on_c, 1, 64, 127
2, 64640, Note_off_c, 1, 67, 0
2, 64640, Note_on_c, 1, 72, 127
2, 64640, Note_on_c, 1, 76, 127
2, 64640, Note_off_c, 1, 81, 0
2, 64680, Note_off_c, 1, 48, 0
2, 64680, Note_off_c, 1, 53, 0
2, 64680, Note_on_c, 1, 60, 127
2, 64680, Note_off_c, 1, 64, 0
2, 64680, Note_off_c, 1, 72, 0
2, 64680, Note_on_c, 1, 74, 127
2, 64680, Note_off_c, 1, 76, 0
2, 64680, Note_on_c, 1, 81, 127
2, 64680, Note_on_c, 1, 84, 127
2, 64680, Note_on_c, 1, 86, 127
2, 64720, Note_off_c, 1, 60, 0
2, 64720, Note_off_c, 1, 74, 0
2, 64720, Note_off_c, 1, 81, 0
2, 64720, Note_off_c, 1, 84, 0
2, 64720, Note_off_c, 1, 86, 0
2, 64800, Note_on_c, 1, 66, 127
2, 64800, Note_on_c, 1, 74, 127
2, 64800, Note_on_c, 1, 86, 127
2, 65080, Note_off_c, 1, 66, 0
2, 65080, Note_off_c, 1, 74, 0
2, 65080, Note_off_c, 1, 86, 0
2, 65120, Note_on_c, 1, 55, 127
2, 65120, Note_on_c, 1, 59, 127
2, 65120, Note_on_c, 1, 71, 127
2, 65120, Note_on_c, 1, 83, 127
2, 65440, Note_off_c, 1, 55, 0
2, 65440, Note_off_c, 1, 59, 0
2, 65440, Note_off_c, 1, 71, 0
2, 65440, Note_off_c, 1, 83, 0
2, 65480, Note_on_c, 1, 53, 127
2, 65480, Note_on_c, 1, 61, 127
2, 65480, Note_on_c, 1, 64, 127
2, 65480, Note_on_c, 1, 70, 127
2, 65480, Note_on_c, 1, 73, 127
2, 65480, Note_on_c, 1, 76, 127
2, 65480, Note_on_c, 1, 79, 127
2, 66720, Note_off_c, 1, 53, 0
2, 66720, Note_off_c, 1, 61, 0
2, 66720, Note_off_c, 1, 64, 0
2, 66720, Note_off_c, 1, 70, 0
2, 66720, Note_off_c, 1, 73, 0
2, 66720, Note_off_c, 1, 76, 0
2, 66720, Note_off_c, 1, 79, 0
2, 66760, Note_on_c, 1, 53, 127
2, 66760, Note_on_c, 1, 61, 127
2, 66760, Note_on_c, 1, 64, 127
2, 66760, Note_on_c, 1, 70, 127
2, 66760, Note_on_c, 1, 73, 127
2, 66760, Note_on_c, 1, 76, 127
2, 66760, Note_on_c, 1, 79, 127
2, 68760, Note_off_c, 1, 53, 0
2, 68760, Note_off_c, 1, 61, 0
2, 68760, Note_off_c, 1, 64, 0
2, 68760, Note_off_c, 1, 70, 0
2, 68760, Note_off_c, 1, 73, 0
2, 68760, Note_off_c, 1, 76, 0
2, 68760, Note_off_c, 1, 79, 0
2, 68800, Note_on_c, 1, 53, 127
2, 68800, Note_on_c, 1, 61, 127
2, 68800, Note_on_c, 1, 64, 127
2, 68800, Note_on_c, 1, 70, 127
2, 68800, Note_on_c, 1, 73, 127
2, 68800, Note_on_c, 1, 76, 127
2, 68800, Note_on_c, 1, 79, 127
2, 70200, Note_off_c, 1, 53, 0
2, 70200, Note_off_c, 1, 61, 0
2, 70200, Note_off_c, 1, 64, 0
2, 70200, Note_off_c, 1, 70, 0
2, 70200, Note_off_c, 1, 73, 0
2, 70200, Note_off_c, 1, 76, 0
2, 70200, Note_off_c, 1, 79, 0
2, 71480, Note_on_c, 1, 58, 127
2, 71480, Note_on_c, 1, 63, 127
2, 71480, Note_on_c, 1, 67, 127
2, 71640, Note_on_c, 1, 33, 127
2, 71640, Note_on_c, 1, 45, 127
2, 71640, Note_off_c, 1, 58, 0
2, 71640, Note_on_c, 1, 60, 127
2, 71640, Note_off_c, 1, 63, 0
2, 71640, Note_on_c, 1, 72, 127
2, 71960, Note_off_c, 1, 33, 0
2, 71960, Note_off_c, 1, 45, 0
2, 71960, Note_off_c, 1, 60, 0
2, 71960, Note_off_c, 1, 67, 0
2, 71960, Note_off_c, 1, 72, 0
2, 72000, Note_on_c, 1, 51, 127
2, 72000, Note_on_c, 1, 58, 127
2, 72000, Note_on_c, 1, 63, 127
2, 72000, Note_on_c, 1, 70, 127
2, 72320, Note_off_c, 1, 51, 0
2, 72320, Note_off_c, 1, 58, 0
2, 72320, Note_off_c, 1, 63, 0
2, 72320, Note_off_c, 1, 70, 0
2, 72400, Note_on_c, 1, 51, 127
2, 72400, Note_on_c, 1, 58, 127
2, 72400, Note_on_c, 1, 63, 127
2, 72400, Note_on_c, 1, 70, 127
2, 72720, Note_on_c, 1, 67, 127
2, 72720, Note_off_c, 1, 70, 0
2, 72720, Note_on_c, 1, 75, 127
2, 73080, Note_off_c, 1, 75, 0
2, 73120, Note_off_c, 1, 67, 0
2, 73120, Note_on_c, 1, 68, 127
2, 73120, Note_on_c, 1, 77, 127
2, 73440, Note_off_c, 1, 51, 0
2, 73440, Note_off_c, 1, 58, 0
2, 73440, Note_off_c, 1, 63, 0
2, 73440, Note_off_c, 1, 68, 0
2, 73440, Note_off_c, 1, 77, 0
2, 73480, Note_on_c, 1, 51, 127
2, 73480, Note_on_c, 1, 58, 127
2, 73480, Note_on_c, 1, 63, 127
2, 73480, Note_on_c, 1, 67, 127
2, 73480, Note_on_c, 1, 75, 127
2, 73720, Note_off_c, 1, 51, 0
2, 73720, Note_off_c, 1, 58, 0
2, 73720, Note_off_c, 1, 63, 0
2, 73720, Note_off_c, 1, 67, 0
2, 73720, Note_off_c, 1, 75, 0
2, 73760, Note_on_c, 1, 51, 127
2, 73760, Note_on_c, 1, 58, 127
2, 73760, Note_on_c, 1, 63, 127
2, 73760, Note_on_c, 1, 67, 127
2, 73760, Note_on_c, 1, 75, 127
2, 74560, Note_on_c, 1, 45, 127
2, 74560, Note_on_c, 1, 49, 127
2, 74560, Note_off_c, 1, 51, 0
2, 74560, Note_on_c, 1, 52, 127
2, 74560, Note_on_c, 1, 57, 127
2, 74560, Note_off_c, 1, 58, 0
2, 74560, Note_off_c, 1, 63, 0
2, 74560, Note_off_c, 1, 67, 0
2, 74560, Note_on_c, 1, 74, 127
2, 74560, Note_off_c, 1, 75, 0
2, 74600, Note_on_c, 1, 43, 127
2, 74600, Note_off_c, 1, 45, 0
2, 74600, Note_off_c, 1, 49, 0
2, 74600, Note_on_c, 1, 50, 127
2, 74600, Note_off_c, 1, 52, 0
2, 74600, Note_on_c, 1, 55, 127
2, 74600, Note_off_c, 1, 57, 0
2, 74600, Note_on_c, 1, 59, 127
2, 74600, Note_off_c, 1, 74, 0
2, 74600, Note_on_c, 1, 95, 127
2, 74640, Note_off_c, 1, 43, 0
2, 74640, Note_off_c, 1, 50, 0
2, 74640, Note_off_c, 1, 55, 0
2, 74640, Note_off_c, 1, 59, 0
2, 74640, Note_off_c, 1, 95, 0
2, 74680, Note_on_c, 1, 42, 127
2, 74680, Note_on_c, 1, 46, 127
2, 74680, Note_on_c, 1, 51, 127
2, 74680, Note_on_c, 1, 63, 127
2, 74680, Note_on_c, 1, 66, 127
2, 74680, Note_on_c, 1, 70, 127
2, 74720, Note_off_c, 1, 42, 0
2, 74720, Note_off_c, 1, 46, 0
2, 74720, Note_off_c, 1, 51, 0
2, 74720, Note_on_c, 1, 55, 127
2, 74720, Note_on_c, 1, 58, 127
2, 74720, Note_on_c, 1, 62, 127
2, 74720, Note_off_c, 1, 63, 0
2, 74720, Note_off_c, 1, 66, 0
2, 74720, Note_on_c, 1, 67, 127
2, 74760, Note_off_c, 1, 55, 0
2, 74760, Note_on_c, 1, 57, 127
2, 74760, Note_off_c, 1, 58, 0
2, 74760, Note_on_c, 1, 60, 127
2, 74760, Note_off_c, 1, 62, 0
2, 74760, Note_on_c, 1, 63, 127
2, 74760, Note_on_c, 1, 65, 127
2, 74760, Note_off_c, 1, 67, 0
2, 74760, Note_off_c, 1, 70, 0
2, 74760, Note_on_c, 1, 72, 127
2, 74800, Note_off_c, 1, 57, 0
2, 74800, Note_off_c, 1, 60, 0
2, 74800, Note_off_c, 1, 63, 0
2, 74800, Note_on_c, 1, 64, 127
2, 74800, Note_off_c, 1, 65, 0
2, 74800, Note_off_c, 1, 72, 0
2, 74800, Note_on_c, 1, 86, 127
2, 74800, Note_on_c, 1, 87, 127
2, 74800, Note_on_c, 1, 89, 127
2, 74800, Note_on_c, 1, 90, 127
2, 74840, Note_on_c, 1, 38, 127
2, 74840, Note_on_c, 1, 42, 127
2, 74840, Note_off_c, 1, 64, 0
2, 74840, Note_on_c, 1, 69, 127
2, 74840, Note_off_c, 1, 86, 0
2, 74840, Note_off_c, 1, 87, 0
2, 74840, Note_off_c, 1, 89, 0
2, 74840, Note_off_c, 1, 90, 0
2, 74880, Note_off_c, 1, 38, 0
2, 74880, Note_on_c, 1, 46, 127
2, 74880, Note_on_c, 1, 51, 127
2, 74880, Note_on_c, 1, 63, 127
2, 74880, Note_on_c, 1, 66, 127
2, 74880, Note_off_c, 1, 69, 0
2, 74880, Note_on_c, 1, 70, 127
2, 74920, Note_on_c, 1, 28, 127
2, 74920, Note_on_c, 1, 39, 127
2, 74920, Note_on_c, 1, 40, 127
2, 74920, Note_off_c, 1, 42, 0
2, 74920, Note_off_c, 1, 46, 0
2, 74920, Note_on_c, 1, 47, 127
2, 74920, Note_on_c, 1, 52, 127
2, 74920, Note_on_c, 1, 59, 127
2, 74920, Note_off_c, 1, 63, 0
2, 74920, Note_off_c, 1, 66, 0
2, 74920, Note_on_c, 1, 68, 127
2, 74920, Note_off_c, 1, 70, 0
2, 74920, Note_on_c, 1, 71, 127
2, 74960, Note_off_c, 1, 28, 0
2, 74960, Note_on_c, 1, 38, 127
2, 74960, Note_off_c, 1, 39, 0
2, 74960, Note_off_c, 1, 40, 0
2, 74960, Note_on_c, 1, 42, 127
2, 74960, Note_off_c, 1, 47, 0
2, 74960, Note_off_c, 1, 51, 0
2, 74960, Note_off_c, 1, 52, 0
2, 74960, Note_off_c, 1, 59, 0
2, 74960, Note_off_c, 1, 68, 0
2, 74960, Note_on_c, 1, 69, 127
2, 74960, Note_off_c, 1, 71, 0
2, 75040, Note_off_c, 1, 38, 0
2, 75040, Note_off_c, 1, 42, 0
2, 75040, Note_on_c, 1, 52, 127
2, 75040, Note_on_c, 1, 56, 127
2, 75040, Note_on_c, 1, 63, 127
2, 75040, Note_off_c, 1, 69, 0
2, 75080, Note_on_c, 1, 50, 127
2, 75080, Note_off_c, 1, 52, 0
2, 75080, Note_off_c, 1, 63, 0
2, 75080, Note_on_c, 1, 65, 127
2, 75080, Note_on_c, 1, 68, 127
2, 75080, Note_on_c, 1, 70, 127
2, 75200, Note_off_c, 1, 50, 0
2, 75200, Note_off_c, 1, 56, 0
2, 75200, Note_off_c, 1, 65, 0
2, 75200, Note_off_c, 1, 68, 0
2, 75200, Note_off_c, 1, 70, 0
2, 75240, Note_on_c, 1, 44, 127
2, 75240, Note_on_c, 1, 48, 127
2, 75240, Note_on_c, 1, 56, 127
2, 75240, Note_on_c, 1, 63, 127
2, 75760, Note_off_c, 1, 56, 0
2, 75760, Note_off_c, 1, 63, 0
2, 75800, Note_on_c, 1, 31, 127
2, 75800, Note_on_c, 1, 35, 127
2, 75800, Note_on_c, 1, 40, 127
2, 75800, Note_off_c, 1, 44, 0
2, 75800, Note_off_c, 1, 48, 0
2, 75800, Note_on_c, 1, 52, 127
2, 75960, Note_off_c, 1, 31, 0
2, 75960, Note_off_c, 1, 35, 0
2, 75960, Note_off_c, 1, 40, 0
2, 75960, Note_off_c, 1, 52, 0
2, 76000, Note_on_c, 1, 31, 127
2, 76000, Note_on_c, 1, 35, 127
2, 76000, Note_on_c, 1, 40, 127
2, 76000, Note_on_c, 1, 52, 127
2, 76120, Note_off_c, 1, 31, 0
2, 76120, Note_off_c, 1, 35, 0
2, 76120, Note_off_c, 1, 40, 0
2, 76120, Note_off_c, 1, 52, 0
2, 76120, Note_on_c, 1, 58, 127
2, 76120, Note_on_c, 1, 64, 127
2, 76120, Note_on_c, 1, 72, 127
2, 76120, Note_on_c, 1, 81, 127
2, 76160, Note_on_c, 1, 31, 127
2, 76160, Note_on_c, 1, 35, 127
2, 76160, Note_on_c, 1, 40, 127
2, 76160, Note_on_c, 1, 52, 127
2, 76160, Note_off_c, 1, 58, 0
2, 76160, Note_off_c, 1, 64, 0
2, 76160, Note_off_c, 1, 72, 0
2, 76160, Note_off_c, 1, 81, 0
2, 76360, Note_off_c, 1, 31, 0
2, 76360, Note_off_c, 1, 35, 0
2, 76360, Note_off_c, 1, 40, 0
2, 76360, Note_off_c, 1, 52, 0
2, 76400, Note_on_c, 1, 39, 127
2, 76400, Note_on_c, 1, 51, 127
2, 76400, Note_on_c, 1, 66, 127
2, 76400, Note_on_c, 1, 70, 127
2, 76400, Note_on_c, 1, 73, 127
2, 76800, Note_off_c, 1, 66, 0
2, 76800, Note_on_c, 1, 67, 127
2, 77440, Note_off_c, 1, 39, 0
2, 77440, Note_off_c, 1, 51, 0
2, 77440, Note_off_c, 1, 67, 0
2, 77440, Note_off_c, 1, 70, 0
2, 77440, Note_off_c, 1, 73, 0
2, 77480, Note_on_c, 1, 32, 127
2, 77480, Note_on_c, 1, 44, 127
2, 77480, Note_on_c, 1, 70, 127
2, 77480, Note_on_c, 1, 73, 127
2, 77640, Note_off_c, 1, 70, 0
2, 77680, Note_on_c, 1, 68, 127
2, 78040, Note_off_c, 1, 32, 0
2, 78040, Note_off_c, 1, 44, 0
2, 78040, Note_off_c, 1, 68, 0
2, 78040, Note_off_c, 1, 73, 0
2, 78080, Note_on_c, 1, 32, 127
2, 78080, Note_on_c, 1, 44, 127
2, 78080, Note_on_c, 1, 68, 127
2, 78080, Note_on_c, 1, 73, 127
2, 78200, Note_off_c, 1, 32, 0
2, 78200, Note_off_c, 1, 44, 0
2, 78200, Note_off_c, 1, 68, 0
2, 78200, Note_off_c, 1, 73, 0
2, 78240, Note_on_c, 1, 44, 127
2, 78240, Note_on_c, 1, 56, 127
2, 78240, Note_on_c, 1, 63, 127
2, 78240, Note_on_c, 1, 72, 127
2, 78960, Note_off_c, 1, 44, 0
2, 78960, Note_off_c, 1, 56, 0
2, 78960, Note_off_c, 1, 63, 0
2, 78960, Note_off_c, 1, 72, 0
2, 79000, Note_on_c, 1, 49, 127
2, 79000, Note_on_c, 1, 56, 127
2, 79000, Note_on_c, 1, 65, 127
2, 79000, Note_on_c, 1, 73, 127
2, 80040, Note_off_c, 1, 49, 0
2, 80040, Note_off_c, 1, 56, 0
2, 80040, Note_off_c, 1, 65, 0
2, 80040, Note_off_c, 1, 73, 0
2, 80080, Note_on_c, 1, 49, 127
2, 80080, Note_on_c, 1, 56, 127
2, 80080, Note_on_c, 1, 65, 127
2, 80080, Note_on_c, 1, 73, 127
2, 81240, Note_off_c, 1, 49, 0
2, 81240, Note_off_c, 1, 56, 0
2, 81240, Note_off_c, 1, 65, 0
2, 81240, Note_off_c, 1, 73, 0
2, 81280, Note_on_c, 1, 30, 127
2, 81280, Note_on_c, 1, 42, 127
2, 81280, Note_on_c, 1, 66, 127
2, 81280, Note_on_c, 1, 70, 127
2, 82000, Note_off_c, 1, 30, 0
2, 82000, Note_off_c, 1, 42, 0
2, 82000, Note_off_c, 1, 66, 0
2, 82000, Note_off_c, 1, 70, 0
2, 82040, Note_on_c, 1, 30, 127
2, 82040, Note_on_c, 1, 42, 127
2, 82040, Note_on_c, 1, 66, 127
2, 82040, Note_on_c, 1, 70, 127
2, 82800, Note_on_c, 1, 61, 127
2, 82800, Note_on_c, 1, 73, 127
2, 82880, Note_off_c, 1, 61, 0
2, 82880, Note_off_c, 1, 73, 0
2, 82920, Note_on_c, 1, 61, 127
2, 82920, Note_on_c, 1, 73, 127
2, 83000, Note_off_c, 1, 61, 0
2, 83000, Note_off_c, 1, 73, 0
2, 83160, Note_off_c, 1, 30, 0
2, 83160, Note_off_c, 1, 42, 0
2, 83160, Note_off_c, 1, 66, 0
2, 83160, Note_off_c, 1, 70, 0
2, 83200, Note_on_c, 1, 49, 127
2, 83200, Note_on_c, 1, 52, 127
2, 83200, Note_on_c, 1, 58, 127
2, 83200, Note_on_c, 1, 66, 127
2, 83840, Note_off_c, 1, 49, 0
2, 83840, Note_off_c, 1, 52, 0
2, 83840, Note_off_c, 1, 58, 0
2, 83840, Note_off_c, 1, 66, 0
2, 83880, Note_on_c, 1, 49, 127
2, 83880, Note_on_c, 1, 52, 127
2, 83880, Note_on_c, 1, 58, 127
2, 83880, Note_on_c, 1, 66, 127
2, 86120, Note_off_c, 1, 49, 0
2, 86120, Note_off_c, 1, 52, 0
2, 86120, Note_off_c, 1, 58, 0
2, 86120, Note_off_c, 1, 66, 0
2, 86240, Note_on_c, 1, 41, 127
2, 86240, Note_on_c, 1, 47, 127
2, 86240, Note_on_c, 1, 50, 127
2, 86240, Note_on_c, 1, 53, 127
2, 86240, Note_on_c, 1, 59, 127
2, 86240, Note_on_c, 1, 71, 127
2, 86280, Note_off_c, 1, 41, 0
2, 86280, Note_off_c, 1, 47, 0
2, 86280, Note_off_c, 1, 50, 0
2, 86280, Note_off_c, 1, 53, 0
2, 86280, Note_on_c, 1, 64, 127
2, 86280, Note_off_c, 1, 71, 0
2, 86280, Note_on_c, 1, 74, 127
2, 86280, Note_on_c, 1, 78, 127
2, 86320, Note_on_c, 1, 52, 127
2, 86320, Note_off_c, 1, 59, 0
2, 86320, Note_on_c, 1, 62, 127
2, 86320, Note_off_c, 1, 64, 0
2, 86320, Note_on_c, 1, 77, 127
2, 86320, Note_off_c, 1, 78, 0
2, 86360, Note_off_c, 1, 52, 0
2, 86360, Note_on_c, 1, 59, 127
2, 86360, Note_off_c, 1, 62, 0
2, 86360, Note_on_c, 1, 64, 127
2, 86360, Note_off_c, 1, 77, 0
2, 86360, Note_on_c, 1, 78, 127
2, 86400, Note_on_c, 1, 45, 127
2, 86400, Note_on_c, 1, 52, 127
2, 86400, Note_off_c, 1, 59, 0
2, 86400, Note_on_c, 1, 62, 127
2, 86400, Note_off_c, 1, 64, 0
2, 86400, Note_on_c, 1, 69, 127
2, 86400, Note_off_c, 1, 74, 0
2, 86400, Note_on_c, 1, 76, 127
2, 86400, Note_off_c, 1, 78, 0
2, 86440, Note_off_c, 1, 45, 0
2, 86440, Note_off_c, 1, 52, 0
2, 86440, Note_on_c, 1, 59, 127
2, 86440, Note_off_c, 1, 62, 0
2, 86440, Note_on_c, 1, 65, 127
2, 86440, Note_off_c, 1, 69, 0
2, 86440, Note_on_c, 1, 71, 127
2, 86440, Note_off_c, 1, 76, 0
2, 86440, Note_on_c, 1, 77, 127
2, 86440, Note_on_c, 1, 79, 127
2, 86440, Note_on_c, 1, 83, 127
2, 86480, Note_on_c, 1, 37, 127
2, 86480, Note_off_c, 1, 59, 0
2, 86480, Note_on_c, 1, 62, 127
2, 86480, Note_off_c, 1, 65, 0
2, 86480, Note_on_c, 1, 66, 127
2, 86480, Note_on_c, 1, 69, 127
2, 86480, Note_off_c, 1, 71, 0
2, 86480, Note_off_c, 1, 77, 0
2, 86480, Note_off_c, 1, 79, 0
2, 86480, Note_off_c, 1, 83, 0
2, 86520, Note_off_c, 1, 37, 0
2, 86520, Note_on_c, 1, 44, 127
2, 86520, Note_on_c, 1, 56, 127
2, 86520, Note_off_c, 1, 62, 0
2, 86520, Note_off_c, 1, 66, 0
2, 86520, Note_off_c, 1, 69, 0
2, 86520, Note_on_c, 1, 73, 127
2, 86520, Note_on_c, 1, 80, 127
2, 86520, Note_on_c, 1, 83, 127
2, 86520, Note_on_c, 1, 85, 127
2, 86560, Note_on_c, 1, 51, 127
2, 86560, Note_on_c, 1, 60, 127
2, 86560, Note_on_c, 1, 66, 127
2, 86560, Note_on_c, 1, 72, 127
2, 86560, Note_off_c, 1, 73, 0
2, 86560, Note_off_c, 1, 83, 0
2, 86560, Note_off_c, 1, 85, 0
2, 86600, Note_on_c, 1, 35, 127
2, 86600, Note_off_c, 1, 44, 0
2, 86600, Note_on_c, 1, 54, 127
2, 86600, Note_off_c, 1, 56, 0
2, 86600, Note_on_c, 1, 59, 127
2, 86600, Note_off_c, 1, 60, 0
2, 86600, Note_on_c, 1, 63, 127
2, 86600, Note_off_c, 1, 66, 0
2, 86600, Note_off_c, 1, 72, 0
2, 86600, Note_off_c, 1, 80, 0
2, 86640, Note_off_c, 1, 35, 0
2, 86640, Note_on_c, 1, 37, 127
2, 86640, Note_on_c, 1, 49, 127
2, 86640, Note_off_c, 1, 51, 0
2, 86640, Note_off_c, 1, 54, 0
2, 86640, Note_off_c, 1, 59, 0
2, 86640, Note_off_c, 1, 63, 0
2, 86640, Note_on_c, 1, 64, 127
2, 86640, Note_on_c, 1, 70, 127
2, 86640, Note_on_c, 1, 73, 127
2, 86640, Note_on_c, 1, 76, 127
2, 86760, Note_off_c, 1, 37, 0
2, 86760, Note_off_c, 1, 49, 0
2, 86760, Note_on_c, 1, 55, 127
2, 86760, Note_off_c, 1, 64, 0
2, 86760, Note_on_c, 1, 67, 127
2, 86760, Note_off_c, 1, 70, 0
2, 86760, Note_off_c, 1, 73, 0
2, 86760, Note_off_c, 1, 76, 0
2, 86760, Note_on_c, 1, 79, 127
2, 86760, Note_on_c, 1, 86, 127
2, 86800, Note_off_c, 1, 55, 0
2, 86800, Note_on_c, 1, 56, 127
2, 86800, Note_on_c, 1, 63, 127
2, 86800, Note_on_c, 1, 66, 127
2, 86800, Note_off_c, 1, 67, 0
2, 86800, Note_on_c, 1, 68, 127
2, 86800, Note_on_c, 1, 72, 127
2, 86800, Note_on_c, 1, 75, 127
2, 86800, Note_off_c, 1, 79, 0
2, 86800, Note_on_c, 1, 80, 127
2, 86800, Note_off_c, 1, 86, 0
2, 87320, Note_off_c, 1, 56, 0
2, 87320, Note_off_c, 1, 63, 0
2, 87320, Note_off_c, 1, 66, 0
2, 87320, Note_off_c, 1, 68, 0
2, 87320, Note_off_c, 1, 72, 0
2, 87320, Note_off_c, 1, 75, 0
2, 87320, Note_off_c, 1, 80, 0
2, 87360, Note_on_c, 1, 40, 127
2, 87360, Note_on_c, 1, 52, 127
2, 87360, Note_on_c, 1, 68, 127
2, 87360, Note_on_c, 1, 73, 127
2, 87360, Note_on_c, 1, 76, 127
2, 88200, Note_off_c, 1, 40, 0
2, 88200, Note_off_c, 1, 52, 0
2, 88200, Note_off_c, 1, 68, 0
2, 88200, Note_off_c, 1, 73, 0
2, 88200, Note_off_c, 1, 76, 0
2, 88240, Note_on_c, 1, 40, 127
2, 88240, Note_on_c, 1, 52, 127
2, 88240, Note_on_c, 1, 68, 127
2, 88240, Note_on_c, 1, 73, 127
2, 88240, Note_on_c, 1, 76, 127
2, 88880, Note_off_c, 1, 40, 0
2, 88880, Note_off_c, 1, 52, 0
2, 88880, Note_off_c, 1, 68, 0
2, 88880, Note_off_c, 1, 73, 0
2, 88880, Note_off_c, 1, 76, 0
2, 88920, Note_on_c, 1, 40, 127
2, 88920, Note_on_c, 1, 52, 127
2, 88920, Note_on_c, 1, 68, 127
2, 88920, Note_on_c, 1, 73, 127
2, 88920, Note_on_c, 1, 76, 127
2, 89640, Note_off_c, 1, 40, 0
2, 89640, Note_off_c, 1, 52, 0
2, 89640, Note_off_c, 1, 68, 0
2, 89640, Note_off_c, 1, 73, 0
2, 89640, Note_off_c, 1, 76, 0
2, 89680, Note_on_c, 1, 54, 127
2, 89680, Note_on_c, 1, 56, 127
2, 89680, Note_on_c, 1, 59, 127
2, 89680, Note_on_c, 1, 66, 127
2, 89680, Note_on_c, 1, 80, 127
2, 89680, Note_on_c, 1, 90, 127
2, 89680, Note_on_c, 1, 92, 127
2, 90080, Note_off_c, 1, 54, 0
2, 90080, Note_off_c, 1, 56, 0
2, 90080, Note_off_c, 1, 59, 0
2, 90080, Note_off_c, 1, 66, 0
2, 90080, Note_off_c, 1, 80, 0
2, 90080, Note_off_c, 1, 90, 0
2, 90080, Note_off_c, 1, 92, 0
2, 90120, Note_on_c, 1, 54, 127
2, 90120, Note_on_c, 1, 56, 127
2, 90120, Note_on_c, 1, 59, 127
2, 90120, Note_on_c, 1, 66, 127
2, 90120, Note_on_c, 1, 80, 127
2, 90120, Note_on_c, 1, 90, 127
2, 90120, Note_on_c, 1, 92, 127
2, 90280, Note_off_c, 1, 54, 0
2, 90280, Note_off_c, 1, 56, 0
2, 90280, Note_off_c, 1, 59, 0
2, 90280, Note_on_c, 1, 60, 127
2, 90280, Note_on_c, 1, 63, 127
2, 90280, Note_on_c, 1, 74, 127
2, 90280, Note_on_c, 1, 78, 127
2, 90280, Note_off_c, 1, 80, 0
2, 90280, Note_off_c, 1, 90, 0
2, 90280, Note_off_c, 1, 92, 0
2, 90320, Note_on_c, 1, 49, 127
2, 90320, Note_on_c, 1, 54, 127
2, 90320, Note_off_c, 1, 60, 0
2, 90320, Note_off_c, 1, 63, 0
2, 90320, Note_on_c, 1, 65, 127
2, 90320, Note_off_c, 1, 66, 0
2, 90320, Note_on_c, 1, 73, 127
2, 90320, Note_off_c, 1, 74, 0
2, 90320, Note_on_c, 1, 77, 127
2, 90320, Note_off_c, 1, 78, 0
2, 90840, Note_off_c, 1, 49, 0
2, 90840, Note_off_c, 1, 54, 0
2, 90840, Note_off_c, 1, 65, 0
2, 90840, Note_off_c, 1, 73, 0
2, 90840, Note_off_c, 1, 77, 0
2, 90880, Note_on_c, 1, 37, 127
2, 90880, Note_on_c, 1, 49, 127
2, 90880, Note_on_c, 1, 77, 127
2, 90880, Note_on_c, 1, 85, 127
2, 90880, Note_on_c, 1, 89, 127
2, 91320, Note_off_c, 1, 37, 0
2, 91320, Note_off_c, 1, 49, 0
2, 91320, Note_off_c, 1, 77, 0
2, 91320, Note_off_c, 1, 85, 0
2, 91320, Note_off_c, 1, 89, 0
2, 91680, Note_on_c, 1, 41, 127
2, 91680, Note_on_c, 1, 52, 127
2, 91680, Note_on_c, 1, 60, 127
2, 91680, Note_on_c, 1, 67, 127
2, 91680, Note_on_c, 1, 70, 127
2, 91920, Note_off_c, 1, 41, 0
2, 91920, Note_off_c, 1, 52, 0
2, 91920, Note_off_c, 1, 60, 0
2, 91920, Note_off_c, 1, 67, 0
2, 91920, Note_off_c, 1, 70, 0
2, 91960, Note_on_c, 1, 41, 127
2, 91960, Note_on_c, 1, 52, 127
2, 91960, Note_on_c, 1, 60, 127
2, 91960, Note_on_c, 1, 67, 127
2, 91960, Note_on_c, 1, 70, 127
2, 92040, Note_off_c, 1, 41, 0
2, 92040, Note_off_c, 1, 52, 0
2, 92040, Note_off_c, 1, 60, 0
2, 92040, Note_off_c, 1, 67, 0
2, 92040, Note_off_c, 1, 70, 0
2, 92120, Note_on_c, 1, 42, 127
2, 92120, Note_on_c, 1, 54, 127
2, 92120, Note_on_c, 1, 61, 127
2, 92120, Note_on_c, 1, 66, 127
2, 92120, Note_on_c, 1, 69, 127
2, 92760, Note_off_c, 1, 61, 0
2, 92760, Note_off_c, 1, 66, 0
2, 92760, Note_off_c, 1, 69, 0
2, 92920, Note_on_c, 1, 41, 127
2, 92920, Note_off_c, 1, 42, 0
2, 92920, Note_on_c, 1, 53, 127
2, 92920, Note_off_c, 1, 54, 0
2, 92920, Note_on_c, 1, 73, 127
2, 92920, Note_on_c, 1, 85, 127
2, 93240, Note_off_c, 1, 73, 0
2, 93240, Note_off_c, 1, 85, 0
2, 93280, Note_on_c, 1, 73, 127
2, 93280, Note_on_c, 1, 85, 127
2, 93640, Note_off_c, 1, 73, 0
2, 93640, Note_off_c, 1, 85, 0
2, 93680, Note_on_c, 1, 72, 127
2, 93680, Note_on_c, 1, 84, 127
2, 94000, Note_off_c, 1, 41, 0
2, 94000, Note_off_c, 1, 53, 0
2, 94000, Note_off_c, 1, 72, 0
2, 94000, Note_off_c, 1, 84, 0
2, 94040, Note_on_c, 1, 41, 127
2, 94040, Note_on_c, 1, 53, 127
2, 94040, Note_on_c, 1, 72, 127
2, 94040, Note_on_c, 1, 84, 127
2, 94080, Note_off_c, 1, 72, 0
2, 94080, Note_off_c, 1, 84, 0
2, 94120, Note_on_c, 1, 68, 127
2, 94120, Note_on_c, 1, 71, 127
2, 94120, Note_on_c, 1, 74, 127
2, 94880, Note_off_c, 1, 68, 0
2, 94880, Note_off_c, 1, 71, 0
2, 94880, Note_off_c, 1, 74, 0
2, 94920, Note_on_c, 1, 68, 127
2, 94920, Note_on_c, 1, 71, 127
2, 94920, Note_on_c, 1, 74, 127
2, 96040, Note_off_c, 1, 41, 0
2, 96040, Note_off_c, 1, 53, 0
2, 96040, Note_off_c, 1, 68, 0
2, 96040, Note_off_c, 1, 71, 0
2, 96040, Note_off_c, 1, 74, 0
2, 96080, Note_on_c, 1, 42, 127
2, 96080, Note_on_c, 1, 54, 127
2, 96080, Note_on_c, 1, 62, 127
2, 96080, Note_on_c, 1, 71, 127
2, 96080, Note_on_c, 1, 74, 127
2, 96480, Note_off_c, 1, 42, 0
2, 96480, Note_off_c, 1, 54, 0
2, 96480, Note_off_c, 1, 62, 0
2, 96480, Note_off_c, 1, 71, 0
2, 96480, Note_off_c, 1, 74, 0
2, 96520, Note_on_c, 1, 42, 127
2, 96520, Note_on_c, 1, 54, 127
2, 96520, Note_on_c, 1, 62, 127
2, 96520, Note_on_c, 1, 71, 127
2, 96520, Note_on_c, 1, 74, 127
2, 97640, Note_off_c, 1, 42, 0
2, 97640, Note_off_c, 1, 54, 0
2, 97640, Note_off_c, 1, 62, 0
2, 97640, Note_on_c, 1, 64, 127
2, 97640, Note_on_c, 1, 66, 127
2, 97640, Note_off_c, 1, 71, 0
2, 97640, Note_off_c, 1, 74, 0
2, 97640, Note_on_c, 1, 76, 127
2, 97640, Note_on_c, 1, 78, 127
2, 97680, Note_on_c, 1, 54, 127
2, 97680, Note_on_c, 1, 62, 127
2, 97680, Note_off_c, 1, 66, 0
2, 97680, Note_off_c, 1, 76, 0
2, 97680, Note_off_c, 1, 78, 0
2, 98080, Note_on_c, 1, 52, 127
2, 98080, Note_off_c, 1, 54, 0
2, 98280, Note_off_c, 1, 52, 0
2, 98280, Note_off_c, 1, 62, 0
2, 98280, Note_off_c, 1, 64, 0
2, 98320, Note_on_c, 1, 41, 127
2, 98320, Note_on_c, 1, 53, 127
2, 98320, Note_on_c, 1, 74, 127
2, 98320, Note_on_c, 1, 86, 127
2, 98720, Note_off_c, 1, 41, 0
2, 98720, Note_off_c, 1, 53, 0
2, 98720, Note_off_c, 1, 74, 0
2, 98720, Note_off_c, 1, 86, 0
2, 98760, Note_on_c, 1, 41, 127
2, 98760, Note_on_c, 1, 53, 127
2, 98760, Note_on_c, 1, 74, 127
2, 98760, Note_on_c, 1, 86, 127
2, 99520, Note_off_c, 1, 41, 0
2, 99520, Note_off_c, 1, 53, 0
2, 99520, Note_off_c, 1, 74, 0
2, 99520, Note_off_c, 1, 86, 0
2, 99560, Note_on_c, 1, 34, 127
2, 99560, Note_on_c, 1, 46, 127
2, 99560, Note_on_c, 1, 55, 127
2, 99560, Note_on_c, 1, 62, 127
2, 99600, Note_off_c, 1, 34, 0
2, 99600, Note_on_c, 1, 45, 127
2, 99600, Note_off_c, 1, 46, 0
2, 99600, Note_off_c, 1, 55, 0
2, 99600, Note_on_c, 1, 57, 127
2, 99600, Note_off_c, 1, 62, 0
2, 99600, Note_on_c, 1, 89, 127
2, 99600, Note_on_c, 1, 98, 127
2, 99640, Note_on_c, 1, 38, 127
2, 99640, Note_off_c, 1, 45, 0
2, 99640, Note_off_c, 1, 57, 0
2, 99640, Note_off_c, 1, 89, 0
2, 99640, Note_on_c, 1, 90, 127
2, 99640, Note_on_c, 1, 93, 127
2, 99640, Note_on_c, 1, 96, 127
2, 99640, Note_off_c, 1, 98, 0
2, 99640, Note_on_c, 1, 102, 127
2, 99680, Note_off_c, 1, 38, 0
2, 99680, Note_on_c, 1, 64, 127
2, 99680, Note_on_c, 1, 68, 127
2, 99680, Note_on_c, 1, 74, 127
2, 99680, Note_on_c, 1, 81, 127
2, 99680, Note_off_c, 1, 90, 0
2, 99680, Note_off_c, 1, 93, 0
2, 99680, Note_off_c, 1, 96, 0
2, 99680, Note_off_c, 1, 102, 0
2, 99720, Note_on_c, 1, 34, 127
2, 99720, Note_on_c, 1, 46, 127
2, 99720, Note_on_c, 1, 66, 127
2, 99720, Note_off_c, 1, 68, 0
2, 99720, Note_on_c, 1, 73, 127
2, 99720, Note_off_c, 1, 74, 0
2, 99720, Note_off_c, 1, 81, 0
2, 99760, Note_on_c, 1, 32, 127
2, 99760, Note_off_c, 1, 34, 0
2, 99760, Note_on_c, 1, 39, 127
2, 99760, Note_on_c, 1, 44, 127
2, 99760, Note_off_c, 1, 46, 0
2, 99760, Note_off_c, 1, 64, 0
2, 99760, Note_off_c, 1, 66, 0
2, 99760, Note_off_c, 1, 73, 0
2, 99760, Note_on_c, 1, 75, 127
2, 99760, Note_on_c, 1, 83, 127
2, 100720, Note_off_c, 1, 32, 0
2, 100720, Note_off_c, 1, 39, 0
2, 100720, Note_off_c, 1, 44, 0
2, 100720, Note_off_c, 1, 75, 0
2, 100720, Note_off_c, 1, 83, 0
2, 100760, Note_on_c, 1, 62, 127
2, 100760, Note_on_c, 1, 65, 127
2, 100760, Note_on_c, 1, 72, 127
2, 100760, Note_on_c, 1, 77, 127
2, 100760, Note_on_c, 1, 82, 127
2, 100760, Note_on_c, 1, 86, 127
2, 100760, Note_on_c, 1, 89, 127
2, 100960, Note_off_c, 1, 62, 0
2, 100960, Note_off_c, 1, 65, 0
2, 100960, Note_off_c, 1, 72, 0
2, 100960, Note_off_c, 1, 77, 0
2, 100960, Note_off_c, 1, 82, 0
2, 100960, Note_off_c, 1, 86, 0
2, 100960, Note_off_c, 1, 89, 0
2, 101000, Note_on_c, 1, 62, 127
2, 101000, Note_on_c, 1, 65, 127
2, 101000, Note_on_c, 1, 72, 127
2, 101000, Note_on_c, 1, 77, 127
2, 101000, Note_on_c, 1, 82, 127
2, 101000, Note_on_c, 1, 86, 127
2, 101000, Note_on_c, 1, 89, 127
2, 101560, Note_off_c, 1, 62, 0
2, 101560, Note_off_c, 1, 65, 0
2, 101560, Note_off_c, 1, 72, 0
2, 101600, Note_on_c, 1, 50, 127
2, 101600, Note_on_c, 1, 57, 127
2, 101600, Note_on_c, 1, 67, 127
2, 101600, Note_on_c, 1, 69, 127
2, 101600, Note_on_c, 1, 75, 127
2, 101600, Note_off_c, 1, 77, 0
2, 101600, Note_on_c, 1, 79, 127
2, 101600, Note_off_c, 1, 82, 0
2, 101600, Note_off_c, 1, 86, 0
2, 101600, Note_off_c, 1, 89, 0
2, 102360, Note_off_c, 1, 50, 0
2, 102360, Note_off_c, 1, 57, 0
2, 102360, Note_off_c, 1, 67, 0
2, 102360, Note_off_c, 1, 69, 0
2, 102360, Note_off_c, 1, 75, 0
2, 102360, Note_off_c, 1, 79, 0
2, 102400, Note_on_c, 1, 43, 127
2, 102400, Note_on_c, 1, 59, 127
2, 102400, Note_on_c, 1, 66, 127
2, 102400, Note_on_c, 1, 69, 127
2, 102440, Note_off_c, 1, 43, 0
2, 102440, Note_on_c, 1, 55, 127
2, 102440, Note_on_c, 1, 58, 127
2, 102440, Note_off_c, 1, 59, 0
2, 102440, Note_off_c, 1, 66, 0
2, 102440, Note_off_c, 1, 69, 0
2, 102440, Note_on_c, 1, 73, 127
2, 102440, Note_on_c, 1, 79, 127
2, 102440, Note_on_c, 1, 85, 127
2, 102480, Note_on_c, 1, 44, 127
2, 102480, Note_off_c, 1, 55, 0
2, 102480, Note_on_c, 1, 56, 127
2, 102480, Note_off_c, 1, 58, 0
2, 102480, Note_on_c, 1, 71, 127
2, 102480, Note_off_c, 1, 73, 0
2, 102480, Note_on_c, 1, 75, 127
2, 102480, Note_on_c, 1, 77, 127
2, 102480, Note_off_c, 1, 79, 0
2, 102480, Note_on_c, 1, 83, 127
2, 102480, Note_off_c, 1, 85, 0
2, 102520, Note_off_c, 1, 44, 0
2, 102520, Note_off_c, 1, 56, 0
2, 102520, Note_on_c, 1, 68, 127
2, 102520, Note_off_c, 1, 75, 0
2, 102520, Note_on_c, 1, 80, 127
2, 102520, Note_off_c, 1, 83, 0
2, 102520, Note_on_c, 1, 89, 127
2, 102560, Note_on_c, 1, 66, 127
2, 102560, Note_off_c, 1, 68, 0
2, 102560, Note_off_c, 1, 71, 0
2, 102560, Note_off_c, 1, 77, 0
2, 102560, Note_on_c, 1, 78, 127
2, 102560, Note_off_c, 1, 80, 0
2, 102560, Note_on_c, 1, 85, 127
2, 102560, Note_off_c, 1, 89, 0
2, 102560, Note_on_c, 1, 90, 127
2, 102560, Note_on_c, 1, 94, 127
2, 102600, Note_on_c, 1, 41, 127
2, 102600, Note_on_c, 1, 50, 127
2, 102600, Note_on_c, 1, 57, 127
2, 102600, Note_on_c, 1, 62, 127
2, 102600, Note_off_c, 1, 66, 0
2, 102600, Note_on_c, 1, 69, 127
2, 102600, Note_on_c, 1, 74, 127
2, 102600, Note_off_c, 1, 78, 0
2, 102600, Note_off_c, 1, 85, 0
2, 102600, Note_off_c, 1, 90, 0
2, 102600, Note_off_c, 1, 94, 0
2, 102760, Note_on_c, 1, 38, 127
2, 102760, Note_off_c, 1, 41, 0
2, 102760, Note_on_c, 1, 47, 127
2, 102760, Note_off_c, 1, 50, 0
2, 102760, Note_off_c, 1, 57, 0
2, 102760, Note_off_c, 1, 62, 0
2, 102760, Note_on_c, 1, 68, 127
2, 102760, Note_off_c, 1, 69, 0
2, 102760, Note_off_c, 1, 74, 0
2, 102760, Note_on_c, 1, 80, 127
2, 102800, Note_off_c, 1, 38, 0
2, 102800, Note_on_c, 1, 39, 127
2, 102800, Note_off_c, 1, 47, 0
2, 102800, Note_on_c, 1, 51, 127
2, 102800, Note_on_c, 1, 58, 127
2, 102800, Note_on_c, 1, 61, 127
2, 102800, Note_off_c, 1, 80, 0
2, 102800, Note_on_c, 1, 93, 127
2, 102880, Note_on_c, 1, 85, 127
2, 102880, Note_on_c, 1, 88, 127
2, 102880, Note_off_c, 1, 93, 0
2, 102960, Note_off_c, 1, 85, 0
2, 102960, Note_off_c, 1, 88, 0
2, 103040, Note_on_c, 1, 93, 127
2, 103080, Note_off_c, 1, 93, 0
2, 103120, Note_off_c, 1, 39, 0
2, 103120, Note_off_c, 1, 51, 0
2, 103120, Note_off_c, 1, 58, 0
2, 103120, Note_off_c, 1, 61, 0
2, 103120, Note_off_c, 1, 68, 0
2, 103160, Note_on_c, 1, 39, 127
2, 103160, Note_on_c, 1, 51, 127
2, 103160, Note_on_c, 1, 58, 127
2, 103160, Note_on_c, 1, 61, 127
2, 103160, Note_on_c, 1, 68, 127
2, 104000, Note_off_c, 1, 39, 0
2, 104000, Note_off_c, 1, 51, 0
2, 104000, Note_off_c, 1, 58, 0
2, 104000, Note_off_c, 1, 61, 0
2, 104000, Note_off_c, 1, 68, 0
2, 104040, Note_on_c, 1, 48, 127
2, 104040, Note_on_c, 1, 51, 127
2, 104040, Note_on_c, 1, 75, 127
2, 104040, Note_on_c, 1, 80, 127
2, 104560, Note_on_c, 1, 43, 127
2, 104560, Note_off_c, 1, 48, 0
2, 104560, Note_on_c, 1, 73, 127
2, 104560, Note_off_c, 1, 80, 0
2, 104560, Note_on_c, 1, 82, 127
2, 104600, Note_off_c, 1, 43, 0
2, 104600, Note_off_c, 1, 51, 0
2, 104600, Note_on_c, 1, 69, 127
2, 104600, Note_on_c, 1, 72, 127
2, 104600, Note_off_c, 1, 73, 0
2, 104600, Note_on_c, 1, 77, 127
2, 104600, Note_off_c, 1, 82, 0
2, 104600, Note_on_c, 1, 84, 127
2, 104640, Note_on_c, 1, 37, 127
2, 104640, Note_on_c, 1, 53, 127
2, 104640, Note_off_c, 1, 69, 0
2, 104640, Note_off_c, 1, 72, 0
2, 104640, Note_off_c, 1, 75, 0
2, 104640, Note_off_c, 1, 77, 0
2, 104640, Note_off_c, 1, 84, 0
2, 104640, Note_on_c, 1, 89, 127
2, 104640, Note_on_c, 1, 92, 127
2, 104680, Note_off_c, 1, 37, 0
2, 104680, Note_on_c, 1, 46, 127
2, 104680, Note_on_c, 1, 57, 127
2, 104680, Note_on_c, 1, 62, 127
2, 104680, Note_on_c, 1, 74, 127
2, 104680, Note_on_c, 1, 86, 127
2, 104680, Note_off_c, 1, 89, 0
2, 104680, Note_off_c, 1, 92, 0
2, 104720, Note_off_c, 1, 46, 0
2, 104720, Note_off_c, 1, 53, 0
2, 104720, Note_off_c, 1, 62, 0
2, 104720, Note_off_c, 1, 74, 0
2, 104720, Note_on_c, 1, 81, 127
2, 104720, Note_on_c, 1, 84, 127
2, 104720, Note_off_c, 1, 86, 0
2, 104720, Note_on_c, 1, 90, 127
2, 104720, Note_on_c, 1, 93, 127
2, 104760, Note_on_c, 1, 56, 127
2, 104760, Note_off_c, 1, 57, 0
2, 104760, Note_on_c, 1, 62, 127
2, 104760, Note_on_c, 1, 68, 127
2, 104760, Note_on_c, 1, 73, 127
2, 104760, Note_off_c, 1, 81, 0
2, 104760, Note_off_c, 1, 84, 0
2, 104760, Note_off_c, 1, 90, 0
2, 104760, Note_off_c, 1, 93, 0
2, 104800, Note_on_c, 1, 54, 127
2, 104800, Note_off_c, 1, 56, 0
2, 104800, Note_off_c, 1, 62, 0
2, 104800, Note_on_c, 1, 66, 127
2, 104800, Note_off_c, 1, 68, 0
2, 104800, Note_off_c, 1, 73, 0
2, 104840, Note_on_c, 1, 49, 127
2, 104840, Note_off_c, 1, 54, 0
2, 104840, Note_on_c, 1, 55, 127
2, 104840, Note_on_c, 1, 61, 127
2, 104840, Note_on_c, 1, 64, 127
2, 104840, Note_off_c, 1, 66, 0
2, 104880, Note_off_c, 1, 55, 0
2, 104880, Note_on_c, 1, 59, 127
2, 104880, Note_off_c, 1, 61, 0
2, 104880, Note_off_c, 1, 64, 0
2, 104880, Note_on_c, 1, 68, 127
2, 104880, Note_on_c, 1, 73, 127
2, 104880, Note_on_c, 1, 77, 127
2, 104920, Note_off_c, 1, 49, 0
2, 104920, Note_on_c, 1, 53, 127
2, 104920, Note_on_c, 1, 57, 127
2, 104920, Note_off_c, 1, 59, 0
2, 104920, Note_on_c, 1, 64, 127
2, 104920, Note_off_c, 1, 68, 0
2, 104920, Note_off_c, 1, 77, 0
2, 104960, Note_on_c, 1, 35, 127
2, 104960, Note_on_c, 1, 40, 127
2, 104960, Note_on_c, 1, 47, 127
2, 104960, Note_off_c, 1, 53, 0
2, 104960, Note_off_c, 1, 57, 0
2, 104960, Note_on_c, 1, 59, 127
2, 104960, Note_off_c, 1, 64, 0
2, 104960, Note_on_c, 1, 68, 127
2, 104960, Note_on_c, 1, 71, 127
2, 104960, Note_off_c, 1, 73, 0
2, 104960, Note_on_c, 1, 83, 127
2, 104960, Note_on_c, 1, 88, 127
2, 104960, Note_on_c, 1, 92, 127
2, 105000, Note_off_c, 1, 35, 0
2, 105000, Note_off_c, 1, 40, 0
2, 105000, Note_on_c, 1, 45, 127
2, 105000, Note_off_c, 1, 47, 0
2, 105000, Note_on_c, 1, 55, 127
2, 105000, Note_off_c, 1, 59, 0
2, 105000, Note_on_c, 1, 65, 127
2, 105000, Note_off_c, 1, 68, 0
2, 105000, Note_off_c, 1, 71, 0
2, 105000, Note_off_c, 1, 83, 0
2, 105000, Note_off_c, 1, 88, 0
2, 105000, Note_off_c, 1, 92, 0
2, 105040, Note_off_c, 1, 45, 0
2, 105040, Note_off_c, 1, 55, 0
2, 105040, Note_off_c, 1, 65, 0
2, 105080, Note_on_c, 1, 47, 127
2, 105080, Note_on_c, 1, 55, 127
2, 105080, Note_on_c, 1, 61, 127
2, 105120, Note_on_c, 1, 64, 127
2, 105160, Note_on_c, 1, 45, 127
2, 105160, Note_off_c, 1, 47, 0
2, 105160, Note_off_c, 1, 64, 0
2, 105160, Note_on_c, 1, 66, 127
2, 105200, Note_off_c, 1, 45, 0
2, 105200, Note_on_c, 1, 47, 127
2, 105200, Note_off_c, 1, 66, 0
2, 105240, Note_on_c, 1, 45, 127
2, 105240, Note_off_c, 1, 47, 0
2, 105240, Note_on_c, 1, 64, 127
2, 105640, Note_off_c, 1, 45, 0
2, 105640, Note_off_c, 1, 55, 0
2, 105640, Note_off_c, 1, 61, 0
2, 105640, Note_off_c, 1, 64, 0
2, 107080, Note_on_c, 1, 57, 127
2, 107080, Note_on_c, 1, 64, 127
2, 107080, Note_on_c, 1, 73, 127
2, 108200, Note_off_c, 1, 57, 0
2, 108200, Note_off_c, 1, 64, 0
2, 108200, Note_off_c, 1, 73, 0
2, 108240, Note_on_c, 1, 57, 127
2, 108240, Note_on_c, 1, 64, 127
2, 108240, Note_on_c, 1, 73, 127
2, 108280, Note_off_c, 1, 57, 0
2, 108280, Note_off_c, 1, 64, 0
2, 108280, Note_off_c, 1, 73, 0
2, 108320, Note_on_c, 1, 57, 127
2, 108320, Note_on_c, 1, 66, 127
2, 108320, Note_on_c, 1, 73, 127
2, 109080, Note_off_c, 1, 57, 0
2, 109080, Note_off_c, 1, 73, 0
2, 109120, Note_on_c, 1, 57, 127
2, 109120, Note_on_c, 1, 73, 127
2, 109880, Note_off_c, 1, 57, 0
2, 109880, Note_off_c, 1, 66, 0
2, 109880, Note_off_c, 1, 73, 0
2, 109920, Note_on_c, 1, 57, 127
2, 109920, Note_on_c, 1, 64, 127
2, 109920, Note_on_c, 1, 73, 127
2, 110640, Note_off_c, 1, 64, 0
2, 110640, Note_off_c, 1, 73, 0
2, 110640, Note_on_c, 1, 74, 127
2, 110680, Note_off_c, 1, 57, 0
2, 110680, Note_off_c, 1, 74, 0
2, 110720, Note_on_c, 1, 57, 127
2, 110720, Note_on_c, 1, 64, 127
2, 110720, Note_on_c, 1, 73, 127
2, 111080, Note_off_c, 1, 57, 0
2, 111080, Note_off_c, 1, 64, 0
2, 111080, Note_off_c, 1, 73, 0
2, 111120, Note_on_c, 1, 52, 127
2, 111120, Note_on_c, 1, 57, 127
2, 111120, Note_on_c, 1, 67, 127
2, 111120, Note_on_c, 1, 73, 127
2, 112240, Note_off_c, 1, 52, 0
2, 112240, Note_off_c, 1, 57, 0
2, 112240, Note_off_c, 1, 67, 0
2, 112240, Note_off_c, 1, 73, 0
2, 112280, Note_on_c, 1, 50, 127
2, 112280, Note_on_c, 1, 57, 127
2, 112280, Note_on_c, 1, 66, 127
2, 112280, Note_on_c, 1, 74, 127
2, 112880, Note_off_c, 1, 50, 0
2, 112880, Note_off_c, 1, 57, 0
2, 112880, Note_off_c, 1, 66, 0
2, 112880, Note_off_c, 1, 74, 0
2, 112920, Note_on_c, 1, 50, 127
2, 112920, Note_on_c, 1, 57, 127
2, 112920, Note_on_c, 1, 66, 127
2, 112920, Note_on_c, 1, 74, 127
2, 113840, Note_off_c, 1, 50, 0
2, 113840, Note_off_c, 1, 57, 0
2, 113840, Note_off_c, 1, 66, 0
2, 113840, Note_off_c, 1, 74, 0
2, 113880, Note_on_c, 1, 52, 127
2, 113880, Note_on_c, 1, 57, 127
2, 113880, Note_on_c, 1, 67, 127
2, 113880, Note_on_c, 1, 73, 127
2, 115000, Note_off_c, 1, 52, 0
2, 115000, Note_off_c, 1, 57, 0
2, 115000, Note_off_c, 1, 67, 0
2, 115000, Note_off_c, 1, 73, 0
2, 115080, Note_on_c, 1, 50, 127
2, 115080, Note_on_c, 1, 57, 127
2, 115080, Note_on_c, 1, 62, 127
2, 115080, Note_on_c, 1, 66, 127
2, 115080, Note_on_c, 1, 74, 127
2, 116240, Note_off_c, 1, 50, 0
2, 116240, Note_off_c, 1, 57, 0
2, 116240, Note_off_c, 1, 62, 0
2, 116240, Note_off_c, 1, 66, 0
2, 116240, Note_off_c, 1, 74, 0
2, 116280, Note_on_c, 1, 50, 127
2, 116280, Note_on_c, 1, 57, 127
2, 116280, Note_on_c, 1, 62, 127
2, 116280, Note_on_c, 1, 66, 127
2, 116280, Note_on_c, 1, 69, 127
2, 117040, Note_off_c, 1, 50, 0
2, 117040, Note_off_c, 1, 57, 0
2, 117040, Note_off_c, 1, 62, 0
2, 117040, Note_off_c, 1, 66, 0
2, 117040, Note_off_c, 1, 69, 0
2, 117080, Note_on_c, 1, 41, 127
2, 117080, Note_on_c, 1, 63, 127
2, 117080, Note_on_c, 1, 65, 127
2, 117080, Note_on_c, 1, 67, 127
2, 117080, Note_on_c, 1, 69, 127
2, 117120, Note_off_c, 1, 41, 0
2, 117120, Note_off_c, 1, 63, 0
2, 117120, Note_off_c, 1, 65, 0
2, 117120, Note_off_c, 1, 67, 0
2, 117120, Note_off_c, 1, 69, 0
2, 117160, Note_on_c, 1, 55, 127
2, 117160, Note_on_c, 1, 69, 127
2, 117160, Note_on_c, 1, 75, 127
2, 117160, Note_on_c, 1, 77, 127
2, 117160, Note_on_c, 1, 81, 127
2, 117200, Note_off_c, 1, 55, 0
2, 117200, Note_off_c, 1, 69, 0
2, 117200, Note_on_c, 1, 70, 127
2, 117200, Note_on_c, 1, 74, 127
2, 117200, Note_off_c, 1, 75, 0
2, 117200, Note_off_c, 1, 77, 0
2, 117200, Note_on_c, 1, 80, 127
2, 117200, Note_off_c, 1, 81, 0
2, 117200, Note_on_c, 1, 86, 127
2, 117240, Note_on_c, 1, 46, 127
2, 117240, Note_on_c, 1, 63, 127
2, 117240, Note_on_c, 1, 69, 127
2, 117240, Note_off_c, 1, 70, 0
2, 117240, Note_off_c, 1, 74, 0
2, 117240, Note_off_c, 1, 80, 0
2, 117240, Note_on_c, 1, 81, 127
2, 117240, Note_off_c, 1, 86, 0
2, 117280, Note_off_c, 1, 46, 0
2, 117280, Note_on_c, 1, 51, 127
2, 117280, Note_on_c, 1, 53, 127
2, 117280, Note_on_c, 1, 65, 127
2, 117280, Note_off_c, 1, 69, 0
2, 117280, Note_on_c, 1, 77, 127
2, 117280, Note_off_c, 1, 81, 0
2, 117320, Note_off_c, 1, 51, 0
2, 117320, Note_off_c, 1, 53, 0
2, 117320, Note_on_c, 1, 62, 127
2, 117320, Note_off_c, 1, 65, 0
2, 117320, Note_on_c, 1, 70, 127
2, 117320, Note_on_c, 1, 74, 127
2, 117320, Note_off_c, 1, 77, 0
2, 117320, Note_on_c, 1, 82, 127
2, 117360, Note_off_c, 1, 62, 0
2, 117360, Note_off_c, 1, 63, 0
2, 117360, Note_off_c, 1, 70, 0
2, 117360, Note_on_c, 1, 72, 127
2, 117360, Note_off_c, 1, 74, 0
2, 117360, Note_off_c, 1, 82, 0
2, 117360, Note_on_c, 1, 88, 127
2, 117360, Note_on_c, 1, 100, 127
2, 117400, Note_on_c, 1, 50, 127
2, 117400, Note_on_c, 1, 58, 127
2, 117400, Note_on_c, 1, 64, 127
2, 117400, Note_on_c, 1, 67, 127
2, 117400, Note_off_c, 1, 72, 0
2, 117400, Note_off_c, 1, 88, 0
2, 117400, Note_off_c, 1, 100, 0
2, 117440, Note_on_c, 1, 48, 127
2, 117440, Note_off_c, 1, 50, 0
2, 117440, Note_off_c, 1, 58, 0
2, 117440, Note_off_c, 1, 67, 0
2, 117440, Note_on_c, 1, 79, 127
2, 117440, Note_on_c, 1, 93, 127
2, 117480, Note_off_c, 1, 48, 0
2, 117480, Note_off_c, 1, 64, 0
2, 117480, Note_on_c, 1, 70, 127
2, 117480, Note_on_c, 1, 77, 127
2, 117480, Note_off_c, 1, 79, 0
2, 117480, Note_on_c, 1, 80, 127
2, 117480, Note_on_c, 1, 84, 127
2, 117480, Note_off_c, 1, 93, 0
2, 117520, Note_on_c, 1, 53, 127
2, 117520, Note_on_c, 1, 60, 127
2, 117520, Note_on_c, 1, 63, 127
2, 117520, Note_on_c, 1, 69, 127
2, 117520, Note_off_c, 1, 70, 0
2, 117520, Note_on_c, 1, 75, 127
2, 117520, Note_off_c, 1, 77, 0
2, 117520, Note_off_c, 1, 80, 0
2, 117520, Note_on_c, 1, 81, 127
2, 117520, Note_off_c, 1, 84, 0
2, 117880, Note_off_c, 1, 53, 0
2, 117880, Note_off_c, 1, 60, 0
2, 117880, Note_off_c, 1, 63, 0
2, 117880, Note_off_c, 1, 69, 0
2, 117880, Note_off_c, 1, 75, 0
2, 117880, Note_off_c, 1, 81, 0
2, 117920, Note_on_c, 1, 47, 127
2, 117920, Note_on_c, 1, 74, 127
2, 117920, Note_on_c, 1, 80, 127
2, 118680, Note_on_c, 1, 45, 127
2, 118680, Note_off_c, 1, 47, 0
2, 118680, Note_on_c, 1, 71, 127
2, 118680, Note_off_c, 1, 74, 0
2, 118680, Note_off_c, 1, 80, 0
2, 118720, Note_on_c, 1, 58, 127
2, 118720, Note_on_c, 1, 67, 127
2, 118720, Note_off_c, 1, 71, 0
2, 118720, Note_on_c, 1, 76, 127
2, 118840, Note_off_c, 1, 67, 0
2, 118840, Note_on_c, 1, 69, 127
2, 118840, Note_off_c, 1, 76, 0
2, 118840, Note_on_c, 1, 77, 127
2, 118880, Note_off_c, 1, 69, 0
2, 118880, Note_off_c, 1, 77, 0
2, 118920, Note_on_c, 1, 69, 127
2, 118920, Note_on_c, 1, 77, 127
2, 119080, Note_off_c, 1, 45, 0
2, 119080, Note_off_c, 1, 58, 0
2, 119080, Note_off_c, 1, 69, 0
2, 119080, Note_off_c, 1, 77, 0
2, 119160, Note_on_c, 1, 50, 127
2, 119160, Note_on_c, 1, 58, 127
2, 119160, Note_on_c, 1, 67, 127
2, 119160, Note_on_c, 1, 76, 127
2, 119920, Note_off_c, 1, 58, 0
2, 119920, Note_off_c, 1, 67, 0
2, 119920, Note_off_c, 1, 76, 0
2, 119960, Note_on_c, 1, 58, 127
2, 119960, Note_on_c, 1, 67, 127
2, 119960, Note_on_c, 1, 76, 127
2, 120000, Note_off_c, 1, 50, 0
2, 120000, Note_off_c, 1, 58, 0
2, 120000, Note_off_c, 1, 67, 0
2, 120000, Note_off_c, 1, 76, 0
2, 120040, End_track
3, 0, Start_track
3, 0, Title_t, "MIDI"
3, 1536, End_track
0, 0, End_of_file
