0, 0, Header, 1, 3, 192
1, 0, Start_track
1, 0, Time_signature, 4, 2, 24, 8
1, 0, Tempo, 500000
1, 120040, End_track
2, 0, Start_track
2, 0, Text_t, "random instrument: random person i dunno whatev"
2, 0, Title_t, "Track 1"
2, 0, Note_on_c, 1, 40, 127
2, 0, Note_on_c, 1, 48, 127
2, 0, Note_on_c, 1, 56, 127
2, 0, Note_on_c, 1, 60, 127
2, 40, Note_off_c, 1, 40, 0
2, 40, Note_off_c, 1, 48, 0
2, 40, Note_on_c, 1, 55, 127
2, 40, Note_off_c, 1, 56, 0
2, 40, Note_off_c, 1, 60, 0
2, 40, Note_on_c, 1, 72, 127
2, 40, Note_on_c, 1, 75, 127
2, 40, Note_on_c, 1, 79, 127
2, 40, Note_on_c, 1, 84, 127
2, 80, Note_off_c, 1, 55, 0
2, 80, Note_off_c, 1, 72, 0
2, 80, Note_off_c, 1, 75, 0
2, 80, Note_off_c, 1, 79, 0
2, 80, Note_off_c, 1, 84, 0
2, 120, Note_on_c, 1, 40, 127
2, 120, Note_on_c, 1, 48, 127
2, 120, Note_on_c, 1, 56, 127
2, 120, Note_on_c, 1, 60, 127
2, 160, Note_off_c, 1, 40, 0
2, 160, Note_on_c, 1, 41, 127
2, 160, Note_off_c, 1, 48, 0
2, 160, Note_on_c, 1, 50, 127
2, 160, Note_on_c, 1, 53, 127
2, 160, Note_off_c, 1, 56, 0
2, 160, Note_off_c, 1, 60, 0
2, 160, Note_on_c, 1, 81, 127
2, 160, Note_on_c, 1, 86, 127
2, 200, Note_on_c, 1, 35, 127
2, 200, Note_on_c, 1, 39, 127
2, 200, Note_off_c, 1, 41, 0
2, 200, Note_on_c, 1, 47, 127
2, 200, Note_off_c, 1, 53, 0
2, 200, Note_off_c, 1, 81, 0
2, 200, Note_off_c, 1, 86, 0
2, 240, Note_on_c, 1, 34, 127
2, 240, Note_off_c, 1, 35, 0
2, 240, Note_on_c, 1, 46, 127
2, 240, Note_off_c, 1, 47, 0
2, 240, Note_off_c, 1, 50, 0
2, 240, Note_on_c, 1, 73, 127
2, 240, Note_on_c, 1, 75, 127
2, 280, Note_off_c, 1, 34, 0
2, 280, Note_off_c, 1, 39, 0
2, 280, Note_off_c, 1, 46, 0
2, 280, Note_off_c, 1, 73, 0
2, 280, Note_off_c, 1, 75, 0
2, 280, Note_on_c, 1, 76, 127
2, 280, Note_on_c, 1, 80, 127
2, 280, Note_on_c, 1, 83, 127
2, 280, Note_on_c, 1, 89, 127
2, 320, Note_on_c, 1, 34, 127
2, 320, Note_on_c, 1, 39, 127
2, 320, Note_on_c, 1, 46, 127
2, 320, Note_on_c, 1, 73, 127
2, 320, Note_on_c, 1, 75, 127
2, 320, Note_off_c, 1, 76, 0
2, 320, Note_off_c, 1, 80, 0
2, 320, Note_off_c, 1, 83, 0
2, 320, Note_off_c, 1, 89, 0
2, 360, Note_off_c, 1, 34, 0
2, 360, Note_off_c, 1, 39, 0
2, 360, Note_off_c, 1, 46, 0
2, 360, Note_on_c, 1, 51, 127
2, 360, Note_on_c, 1, 59, 127
2, 360, Note_on_c, 1, 66, 127
2, 360, Note_on_c, 1, 69, 127
2, 360, Note_off_c, 1, 73, 0
2, 360, Note_on_c, 1, 85, 127
2, 400, Note_on_c, 1, 35, 127
2, 400, Note_on_c, 1, 40, 127
2, 400, Note_on_c, 1, 47, 127
2, 400, Note_off_c, 1, 51, 0
2, 400, Note_off_c, 1, 59, 0
2, 400, Note_on_c, 1, 62, 127
2, 400, Note_off_c, 1, 66, 0
2, 400, Note_off_c, 1, 69, 0
2, 400, Note_off_c, 1, 75, 0
2, 400, Note_off_c, 1, 85, 0
2, 440, Note_off_c, 1, 35, 0
2, 440, Note_off_c, 1, 40, 0
2, 440, Note_off_c, 1, 47, 0
2, 440, Note_on_c, 1, 73, 127
2, 440, Note_on_c, 1, 82, 127
2, 440, Note_on_c, 1, 89, 127
2, 480, Note_on_c, 1, 38, 127
2, 480, Note_on_c, 1, 50, 127
2, 480, Note_on_c, 1, 57, 127
2, 480, Note_on_c, 1, 66, 127
2, 480, Note_off_c, 1, 73, 0
2, 480, Note_off_c, 1, 82, 0
2, 520, Note_on_c, 1, 34, 127
2, 520, Note_off_c, 1, 38, 0
2, 520, Note_on_c, 1, 46, 127
2, 520, Note_off_c, 1, 50, 0
2, 520, Note_off_c, 1, 57, 0
2, 520, Note_off_c, 1, 62, 0
2, 520, Note_off_c, 1, 66, 0
2, 520, Note_on_c, 1, 80, 127
2, 520, Note_on_c, 1, 83, 127
2, 520, Note_off_c, 1, 89, 0
2, 560, Note_off_c, 1, 34, 0
2, 560, Note_off_c, 1, 46, 0
2, 560, Note_on_c, 1, 63, 127
2, 560, Note_on_c, 1, 67, 127
2, 560, Note_on_c, 1, 68, 127
2, 560, Note_on_c, 1, 75, 127
2, 560, Note_on_c, 1, 79, 127
2, 560, Note_off_c, 1, 80, 0
2, 560, Note_off_c, 1, 83, 0
2, 600, Note_on_c, 1, 42, 127
2, 600, Note_on_c, 1, 45, 127
2, 600, Note_on_c, 1, 48, 127
2, 600, Note_on_c, 1, 54, 127
2, 600, Note_off_c, 1, 63, 0
2, 600, Note_off_c, 1, 67, 0
2, 600, Note_off_c, 1, 68, 0
2, 600, Note_on_c, 1, 78, 127
2, 600, Note_off_c, 1, 79, 0
2, 640, Note_off_c, 1, 42, 0
2, 640, Note_off_c, 1, 45, 0
2, 640, Note_off_c, 1, 48, 0
2, 640, Note_off_c, 1, 54, 0
2, 640, Note_on_c, 1, 57, 127
2, 640, Note_on_c, 1, 64, 127
2, 640, Note_on_c, 1, 67, 127
2, 640, Note_on_c, 1, 70, 127
2, 640, Note_on_c, 1, 73, 127
2, 640, Note_off_c, 1, 75, 0
2, 640, Note_off_c, 1, 78, 0
2, 640, Note_on_c, 1, 82, 127
2, 680, Note_on_c, 1, 48, 127
2, 680, Note_off_c, 1, 57, 0
2, 680, Note_off_c, 1, 64, 0
2, 680, Note_off_c, 1, 67, 0
2, 680, Note_on_c, 1, 68, 127
2, 680, Note_off_c, 1, 70, 0
2, 680, Note_off_c, 1, 73, 0
2, 680, Note_on_c, 1, 75, 127
2, 680, Note_on_c, 1, 78, 127
2, 720, Note_on_c, 1, 28, 127
2, 720, Note_off_c, 1, 48, 0
2, 720, Note_on_c, 1, 51, 127
2, 720, Note_on_c, 1, 53, 127
2, 720, Note_on_c, 1, 57, 127
2, 720, Note_on_c, 1, 60, 127
2, 720, Note_off_c, 1, 68, 0
2, 720, Note_off_c, 1, 75, 0
2, 720, Note_off_c, 1, 78, 0
2, 720, Note_off_c, 1, 82, 0
2, 760, Note_off_c, 1, 28, 0
2, 760, Note_off_c, 1, 51, 0
2, 760, Note_off_c, 1, 53, 0
2, 760, Note_off_c, 1, 57, 0
2, 760, Note_off_c, 1, 60, 0
2, 760, Note_on_c, 1, 71, 127
2, 760, Note_on_c, 1, 74, 127
2, 760, Note_on_c, 1, 78, 127
2, 760, Note_on_c, 1, 85, 127
2, 800, Note_on_c, 1, 55, 127
2, 800, Note_on_c, 1, 59, 127
2, 800, Note_on_c, 1, 67, 127
2, 800, Note_off_c, 1, 71, 0
2, 800, Note_off_c, 1, 74, 0
2, 800, Note_off_c, 1, 78, 0
2, 800, Note_off_c, 1, 85, 0
2, 800, Note_on_c, 1, 88, 127
2, 800, Note_on_c, 1, 93, 127
2, 840, Note_on_c, 1, 53, 127
2, 840, Note_off_c, 1, 55, 0
2, 840, Note_on_c, 1, 63, 127
2, 840, Note_off_c, 1, 67, 0
2, 840, Note_on_c, 1, 68, 127
2, 840, Note_on_c, 1, 80, 127
2, 840, Note_on_c, 1, 83, 127
2, 840, Note_off_c, 1, 88, 0
2, 840, Note_off_c, 1, 93, 0
2, 880, Note_on_c, 1, 34, 127
2, 880, Note_off_c, 1, 53, 0
2, 880, Note_off_c, 1, 59, 0
2, 880, Note_on_c, 1, 60, 127
2, 880, Note_on_c, 1, 62, 127
2, 880, Note_off_c, 1, 63, 0
2, 880, Note_on_c, 1, 67, 127
2, 880, Note_off_c, 1, 68, 0
2, 880, Note_off_c, 1, 80, 0
2, 880, Note_off_c, 1, 83, 0
2, 920, Note_off_c, 1, 34, 0
2, 920, Note_on_c, 1, 47, 127
2, 920, Note_on_c, 1, 52, 127
2, 920, Note_on_c, 1, 55, 127
2, 920, Note_on_c, 1, 59, 127
2, 920, Note_off_c, 1, 60, 0
2, 920, Note_off_c, 1, 62, 0
2, 920, Note_off_c, 1, 67, 0
2, 920, Note_on_c, 1, 88, 127
2, 960, Note_on_c, 1, 28, 127
2, 960, Note_on_c, 1, 40, 127
2, 960, Note_off_c, 1, 52, 0
2, 960, Note_off_c, 1, 55, 0
2, 960, Note_off_c, 1, 59, 0
2, 960, Note_on_c, 1, 66, 127
2, 960, Note_on_c, 1, 67, 127
2, 960, Note_on_c, 1, 71, 127
2, 960, Note_on_c, 1, 76, 127
2, 960, Note_on_c, 1, 78, 127
2, 960, Note_on_c, 1, 79, 127
2, 960, Note_on_c, 1, 83, 127
2, 960, Note_off_c, 1, 88, 0
2, 960, Note_on_c, 1, 90, 127
2, 960, Note_on_c, 1, 91, 127
2, 1000, Note_off_c, 1, 28, 0
2, 1000, Note_on_c, 1, 37, 127
2, 1000, Note_off_c, 1, 40, 0
2, 1000, Note_off_c, 1, 47, 0
2, 1000, Note_on_c, 1, 49, 127
2, 1000, Note_on_c, 1, 54, 127
2, 1000, Note_on_c, 1, 58, 127
2, 1000, Note_off_c, 1, 67, 0
2, 1000, Note_off_c, 1, 71, 0
2, 1000, Note_off_c, 1, 76, 0
2, 1000, Note_off_c, 1, 78, 0
2, 1000, Note_off_c, 1, 79, 0
2, 1000, Note_off_c, 1, 83, 0
2, 1000, Note_off_c, 1, 90, 0
2, 1000, Note_off_c, 1, 91, 0
2, 1040, Note_off_c, 1, 37, 0
2, 1040, Note_off_c, 1, 49, 0
2, 1040, Note_off_c, 1, 54, 0
2, 1040, Note_off_c, 1, 58, 0
2, 1040, Note_on_c, 1, 61, 127
2, 1040, Note_off_c, 1, 66, 0
2, 1040, Note_on_c, 1, 88, 127
2, 1040, Note_on_c, 1, 92, 127
2, 1040, Note_on_c, 1, 100, 127
2, 1080, Note_on_c, 1, 54, 127
2, 1080, Note_on_c, 1, 59, 127
2, 1080, Note_off_c, 1, 61, 0
2, 1080, Note_on_c, 1, 62, 127
2, 1080, Note_on_c, 1, 65, 127
2, 1080, Note_off_c, 1, 88, 0
2, 1080, Note_off_c, 1, 92, 0
2, 1080, Note_off_c, 1, 100, 0
2, 1080, Note_on_c, 1, 101, 127
2, 1080, Note_on_c, 1, 102, 127
2, 1120, Note_off_c, 1, 54, 0
2, 1120, Note_on_c, 1, 56, 127
2, 1120, Note_on_c, 1, 61, 127
2, 1120, Note_off_c, 1, 62, 0
2, 1120, Note_off_c, 1, 65, 0
2, 1120, Note_on_c, 1, 68, 127
2, 1120, Note_off_c, 1, 101, 0
2, 1120, Note_off_c, 1, 102, 0
2, 1160, Note_on_c, 1, 54, 127
2, 1160, Note_off_c, 1, 56, 0
2, 1160, Note_off_c, 1, 59, 0
2, 1160, Note_on_c, 1, 60, 127
2, 1160, Note_off_c, 1, 61, 0
2, 1160, Note_on_c, 1, 66, 127
2, 1160, Note_off_c, 1, 68, 0
2, 1160, Note_on_c, 1, 75, 127
2, 1160, Note_on_c, 1, 84, 127
2, 1200, Note_on_c, 1, 37, 127
2, 1200, Note_on_c, 1, 46, 127
2, 1200, Note_on_c, 1, 52, 127
2, 1200, Note_off_c, 1, 54, 0
2, 1200, Note_off_c, 1, 60, 0
2, 1200, Note_on_c, 1, 64, 127
2, 1200, Note_off_c, 1, 66, 0
2, 1200, Note_off_c, 1, 75, 0
2, 1200, Note_off_c, 1, 84, 0
2, 1240, Note_off_c, 1, 37, 0
2, 1240, Note_off_c, 1, 46, 0
2, 1240, Note_off_c, 1, 52, 0
2, 1240, Note_off_c, 1, 64, 0
2, 1240, Note_on_c, 1, 65, 127
2, 1240, Note_on_c, 1, 72, 127
2, 1240, Note_on_c, 1, 86, 127
2, 1240, Note_on_c, 1, 89, 127
2, 1280, Note_on_c, 1, 35, 127
2, 1280, Note_off_c, 1, 65, 0
2, 1280, Note_off_c, 1, 72, 0
2, 1280, Note_on_c, 1, 74, 127
2, 1280, Note_on_c, 1, 79, 127
2, 1280, Note_off_c, 1, 89, 0
2, 1320, Note_off_c, 1, 35, 0
2, 1320, Note_on_c, 1, 57, 127
2, 1320, Note_on_c, 1, 65, 127
2, 1320, Note_on_c, 1, 72, 127
2, 1320, Note_off_c, 1, 74, 0
2, 1320, Note_on_c, 1, 77, 127
2, 1320, Note_off_c, 1, 79, 0
2, 1320, Note_off_c, 1, 86, 0
2, 1320, Note_on_c, 1, 89, 127
2, 1360, Note_on_c, 1, 43, 127
2, 1360, Note_on_c, 1, 46, 127
2, 1360, Note_on_c, 1, 51, 127
2, 1360, Note_off_c, 1, 57, 0
2, 1360, Note_on_c, 1, 58, 127
2, 1360, Note_off_c, 1, 65, 0
2, 1360, Note_on_c, 1, 67, 127
2, 1360, Note_off_c, 1, 72, 0
2, 1360, Note_off_c, 1, 77, 0
2, 1360, Note_off_c, 1, 89, 0
2, 1400, Note_off_c, 1, 43, 0
2, 1400, Note_off_c, 1, 46, 0
2, 1400, Note_off_c, 1, 51, 0
2, 1400, Note_on_c, 1, 66, 127
2, 1400, Note_off_c, 1, 67, 0
2, 1400, Note_on_c, 1, 70, 127
2, 1400, Note_on_c, 1, 73, 127
2, 1400, Note_on_c, 1, 75, 127
2, 1400, Note_on_c, 1, 85, 127
2, 1440, Note_on_c, 1, 51, 127
2, 1440, Note_on_c, 1, 56, 127
2, 1440, Note_off_c, 1, 58, 0
2, 1440, Note_on_c, 1, 65, 127
2, 1440, Note_off_c, 1, 66, 0
2, 1440, Note_off_c, 1, 73, 0
2, 1440, Note_on_c, 1, 74, 127
2, 1440, Note_off_c, 1, 75, 0
2, 1440, Note_off_c, 1, 85, 0
2, 1480, Note_on_c, 1, 41, 127
2, 1480, Note_off_c, 1, 51, 0
2, 1480, Note_on_c, 1, 53, 127
2, 1480, Note_off_c, 1, 56, 0
2, 1480, Note_on_c, 1, 58, 127
2, 1480, Note_on_c, 1, 62, 127
2, 1480, Note_on_c, 1, 77, 127
2, 1520, Note_off_c, 1, 41, 0
2, 1520, Note_off_c, 1, 53, 0
2, 1520, Note_off_c, 1, 58, 0
2, 1520, Note_off_c, 1, 62, 0
2, 1520, Note_off_c, 1, 65, 0
2, 1520, Note_on_c, 1, 69, 127
2, 1520, Note_off_c, 1, 70, 0
2, 1520, Note_off_c, 1, 74, 0
2, 1520, Note_off_c, 1, 77, 0
2, 1520, Note_on_c, 1, 85, 127
2, 1520, Note_on_c, 1, 93, 127
2, 1520, Note_on_c, 1, 95, 127
2, 1520, Note_on_c, 1, 100, 127
2, 1560, Note_on_c, 1, 45, 127
2, 1560, Note_on_c, 1, 52, 127
2, 1560, Note_on_c, 1, 57, 127
2, 1560, Note_on_c, 1, 61, 127
2, 1560, Note_on_c, 1, 73, 127
2, 1560, Note_on_c, 1, 76, 127
2, 1560, Note_on_c, 1, 81, 127
2, 1560, Note_off_c, 1, 85, 0
2, 1560, Note_off_c, 1, 93, 0
2, 1560, Note_off_c, 1, 95, 0
2, 1560, Note_off_c, 1, 100, 0
2, 1600, Note_on_c, 1, 42, 127
2, 1600, Note_off_c, 1, 45, 0
2, 1600, Note_on_c, 1, 49, 127
2, 1600, Note_off_c, 1, 52, 0
2, 1600, Note_on_c, 1, 54, 127
2, 1600, Note_off_c, 1, 57, 0
2, 1600, Note_off_c, 1, 61, 0
2, 1600, Note_off_c, 1, 69, 0
2, 1600, Note_off_c, 1, 73, 0
2, 1600, Note_off_c, 1, 76, 0
2, 1600, Note_off_c, 1, 81, 0
2, 1600, Note_on_c, 1, 82, 127
2, 1600, Note_on_c, 1, 90, 127
2, 1600, Note_on_c, 1, 94, 127
2, 1640, Note_off_c, 1, 42, 0
2, 1640, Note_on_c, 1, 46, 127
2, 1640, Note_off_c, 1, 49, 0
2, 1640, Note_on_c, 1, 53, 127
2, 1640, Note_off_c, 1, 54, 0
2, 1640, Note_on_c, 1, 60, 127
2, 1640, Note_on_c, 1, 63, 127
2, 1640, Note_on_c, 1, 75, 127
2, 1640, Note_off_c, 1, 82, 0
2, 1640, Note_off_c, 1, 90, 0
2, 1640, Note_off_c, 1, 94, 0
2, 1680, Note_on_c, 1, 36, 127
2, 1680, Note_on_c, 1, 43, 127
2, 1680, Note_off_c, 1, 46, 0
2, 1680, Note_on_c, 1, 48, 127
2, 1680, Note_on_c, 1, 52, 127
2, 1680, Note_off_c, 1, 53, 0
2, 1680, Note_off_c, 1, 63, 0
2, 1680, Note_off_c, 1, 75, 0
2, 1680, Note_on_c, 1, 87, 127
2, 1720, Note_off_c, 1, 36, 0
2, 1720, Note_off_c, 1, 43, 0
2, 1720, Note_on_c, 1, 45, 127
2, 1720, Note_off_c, 1, 48, 0
2, 1720, Note_on_c, 1, 55, 127
2, 1720, Note_off_c, 1, 60, 0
2, 1720, Note_on_c, 1, 61, 127
2, 1720, Note_on_c, 1, 66, 127
2, 1720, Note_on_c, 1, 67, 127
2, 1720, Note_on_c, 1, 70, 127
2, 1720, Note_on_c, 1, 71, 127
2, 1720, Note_off_c, 1, 87, 0
2, 1760, Note_off_c, 1, 45, 0
2, 1760, Note_off_c, 1, 52, 0
2, 1760, Note_on_c, 1, 54, 127
2, 1760, Note_off_c, 1, 55, 0
2, 1760, Note_on_c, 1, 65, 127
2, 1760, Note_off_c, 1, 66, 0
2, 1760, Note_off_c, 1, 67, 0
2, 1760, Note_off_c, 1, 70, 0
2, 1760, Note_off_c, 1, 71, 0
2, 1760, Note_on_c, 1, 77, 127
2, 1760, Note_on_c, 1, 85, 127
2, 1800, Note_off_c, 1, 54, 0
2, 1800, Note_on_c, 1, 58, 127
2, 1800, Note_off_c, 1, 61, 0
2, 1800, Note_on_c, 1, 63, 127
2, 1800, Note_off_c, 1, 65, 0
2, 1800, Note_on_c, 1, 67, 127
2, 1800, Note_off_c, 1, 77, 0
2, 1800, Note_off_c, 1, 85, 0
2, 1800, Note_on_c, 1, 98, 127
2, 1840, Note_off_c, 1, 58, 0
2, 1840, Note_off_c, 1, 67, 0
2, 1840, Note_on_c, 1, 72, 127
2, 1840, Note_on_c, 1, 91, 127
2, 1840, Note_off_c, 1, 98, 0
2, 1880, Note_on_c, 1, 60, 127
2, 1880, Note_off_c, 1, 63, 0
2, 1880, Note_on_c, 1, 67, 127
2, 1880, Note_on_c, 1, 70, 127
2, 1880, Note_off_c, 1, 72, 0
2, 1880, Note_on_c, 1, 77, 127
2, 1880, Note_on_c, 1, 89, 127
2, 1880, Note_off_c, 1, 91, 0
2, 1920, Note_off_c, 1, 60, 0
2, 1920, Note_off_c, 1, 67, 0
2, 1920, Note_off_c, 1, 70, 0
2, 1920, Note_off_c, 1, 77, 0
2, 1920, Note_off_c, 1, 89, 0
2, 1960, Note_on_c, 1, 28, 127
2, 1960, Note_on_c, 1, 40, 127
2, 1960, Note_on_c, 1, 69, 127
2, 2000, Note_off_c, 1, 28, 0
2, 2000, Note_off_c, 1, 40, 0
2, 2000, Note_on_c, 1, 62, 127
2, 2000, Note_off_c, 1, 69, 0
2, 2000, Note_on_c, 1, 70, 127
2, 2000, Note_on_c, 1, 91, 127
2, 2040, Note_on_c, 1, 46, 127
2, 2040, Note_on_c, 1, 53, 127
2, 2040, Note_on_c, 1, 58, 127
2, 2040, Note_on_c, 1, 65, 127
2, 2040, Note_off_c, 1, 70, 0
2, 2040, Note_on_c, 1, 77, 127
2, 2040, Note_on_c, 1, 89, 127
2, 2040, Note_off_c, 1, 91, 0
2, 2080, Note_off_c, 1, 46, 0
2, 2080, Note_off_c, 1, 53, 0
2, 2080, Note_off_c, 1, 58, 0
2, 2080, Note_off_c, 1, 62, 0
2, 2080, Note_off_c, 1, 65, 0
2, 2080, Note_on_c, 1, 70, 127
2, 2080, Note_off_c, 1, 77, 0
2, 2080, Note_off_c, 1, 89, 0
2, 2080, Note_on_c, 1, 96, 127
2, 2120, Note_on_c, 1, 56, 127
2, 2120, Note_on_c, 1, 59, 127
2, 2120, Note_on_c, 1, 68, 127
2, 2120, Note_off_c, 1, 70, 0
2, 2120, Note_on_c, 1, 76, 127
2, 2120, Note_on_c, 1, 82, 127
2, 2120, Note_off_c, 1, 96, 0
2, 2160, Note_off_c, 1, 56, 0
2, 2160, Note_off_c, 1, 59, 0
2, 2160, Note_off_c, 1, 68, 0
2, 2160, Note_off_c, 1, 76, 0
2, 2160, Note_on_c, 1, 77, 127
2, 2160, Note_off_c, 1, 82, 0
2, 2160, Note_on_c, 1, 92, 127
2, 2160, Note_on_c, 1, 95, 127
2, 2200, Note_on_c, 1, 53, 127
2, 2200, Note_off_c, 1, 77, 0
2, 2200, Note_on_c, 1, 84, 127
2, 2200, Note_off_c, 1, 92, 0
2, 2200, Note_on_c, 1, 93, 127
2, 2200, Note_off_c, 1, 95, 0
2, 2200, Note_on_c, 1, 96, 127
2, 2240, Note_off_c, 1, 53, 0
2, 2240, Note_on_c, 1, 61, 127
2, 2240, Note_on_c, 1, 75, 127
2, 2240, Note_on_c, 1, 80, 127
2, 2240, Note_off_c, 1, 84, 0
2, 2240, Note_off_c, 1, 93, 0
2, 2240, Note_off_c, 1, 96, 0
2, 2280, Note_on_c, 1, 60, 127
2, 2280, Note_off_c, 1, 61, 0
2, 2280, Note_on_c, 1, 68, 127
2, 2280, Note_off_c, 1, 75, 0
2, 2280, Note_on_c, 1, 87, 127
2, 2320, Note_off_c, 1, 60, 0
2, 2320, Note_on_c, 1, 64, 127
2, 2320, Note_on_c, 1, 67, 127
2, 2320, Note_off_c, 1, 68, 0
2, 2320, Note_on_c, 1, 70, 127
2, 2320, Note_on_c, 1, 76, 127
2, 2320, Note_off_c, 1, 80, 0
2, 2320, Note_off_c, 1, 87, 0
2, 2320, Note_on_c, 1, 91, 127
2, 2320, Note_on_c, 1, 95, 127
2, 2360, Note_on_c, 1, 51, 127
2, 2360, Note_on_c, 1, 55, 127
2, 2360, Note_on_c, 1, 63, 127
2, 2360, Note_off_c, 1, 64, 0
2, 2360, Note_on_c, 1, 66, 127
2, 2360, Note_off_c, 1, 70, 0
2, 2360, Note_off_c, 1, 76, 0
2, 2360, Note_on_c, 1, 78, 127
2, 2360, Note_off_c, 1, 91, 0
2, 2360, Note_off_c, 1, 95, 0
2, 2400, Note_on_c, 1, 39, 127
2, 2400, Note_on_c, 1, 41, 127
2, 2400, Note_on_c, 1, 48, 127
2, 2400, Note_off_c, 1, 51, 0
2, 2400, Note_off_c, 1, 55, 0
2, 2400, Note_off_c, 1, 63, 0
2, 2400, Note_off_c, 1, 66, 0
2, 2400, Note_off_c, 1, 67, 0
2, 2400, Note_on_c, 1, 75, 127
2, 2400, Note_off_c, 1, 78, 0
2, 2400, Note_on_c, 1, 87, 127
2, 2440, Note_off_c, 1, 39, 0
2, 2440, Note_off_c, 1, 41, 0
2, 2440, Note_off_c, 1, 48, 0
2, 2440, Note_on_c, 1, 54, 127
2, 2440, Note_on_c, 1, 57, 127
2, 2440, Note_on_c, 1, 66, 127
2, 2440, Note_off_c, 1, 75, 0
2, 2440, Note_on_c, 1, 84, 127
2, 2480, Note_off_c, 1, 54, 0
2, 2480, Note_off_c, 1, 66, 0
2, 2480, Note_on_c, 1, 81, 127
2, 2480, Note_off_c, 1, 84, 0
2, 2480, Note_off_c, 1, 87, 0
2, 2480, Note_on_c, 1, 89, 127
2, 2520, Note_on_c, 1, 35, 127
2, 2520, Note_on_c, 1, 42, 127
2, 2520, Note_on_c, 1, 54, 127
2, 2520, Note_off_c, 1, 57, 0
2, 2520, Note_on_c, 1, 74, 127
2, 2520, Note_on_c, 1, 77, 127
2, 2520, Note_off_c, 1, 81, 0
2, 2520, Note_on_c, 1, 83, 127
2, 2520, Note_off_c, 1, 89, 0
2, 2560, Note_off_c, 1, 35, 0
2, 2560, Note_off_c, 1, 42, 0
2, 2560, Note_off_c, 1, 54, 0
2, 2560, Note_on_c, 1, 65, 127
2, 2560, Note_off_c, 1, 74, 0
2, 2560, Note_on_c, 1, 75, 127
2, 2560, Note_off_c, 1, 77, 0
2, 2560, Note_on_c, 1, 78, 127
2, 2560, Note_on_c, 1, 82, 127
2, 2560, Note_off_c, 1, 83, 0
2, 2560, Note_on_c, 1, 87, 127
2, 2600, Note_on_c, 1, 41, 127
2, 2600, Note_on_c, 1, 45, 127
2, 2600, Note_on_c, 1, 50, 127
2, 2600, Note_on_c, 1, 53, 127
2, 2600, Note_off_c, 1, 65, 0
2, 2600, Note_off_c, 1, 75, 0
2, 2600, Note_off_c, 1, 78, 0
2, 2600, Note_off_c, 1, 82, 0
2, 2600, Note_on_c, 1, 86, 127
2, 2600, Note_off_c, 1, 87, 0
2, 2640, Note_off_c, 1, 41, 0
2, 2640, Note_off_c, 1, 45, 0
2, 2640, Note_off_c, 1, 50, 0
2, 2640, Note_off_c, 1, 53, 0
2, 2640, Note_on_c, 1, 54, 127
2, 2640, Note_on_c, 1, 60, 127
2, 2640, Note_on_c, 1, 66, 127
2, 2640, Note_on_c, 1, 75, 127
2, 2640, Note_on_c, 1, 84, 127
2, 2640, Note_off_c, 1, 86, 0
2, 2680, Note_on_c, 1, 39, 127
2, 2680, Note_on_c, 1, 53, 127
2, 2680, Note_off_c, 1, 54, 0
2, 2680, Note_off_c, 1, 60, 0
2, 2680, Note_off_c, 1, 66, 0
2, 2680, Note_on_c, 1, 74, 127
2, 2680, Note_off_c, 1, 75, 0
2, 2680, Note_on_c, 1, 80, 127
2, 2680, Note_off_c, 1, 84, 0
2, 2680, Note_on_c, 1, 86, 127
2, 2720, Note_off_c, 1, 39, 0
2, 2720, Note_on_c, 1, 52, 127
2, 2720, Note_off_c, 1, 53, 0
2, 2720, Note_on_c, 1, 57, 127
2, 2720, Note_on_c, 1, 61, 127
2, 2720, Note_on_c, 1, 64, 127
2, 2720, Note_on_c, 1, 69, 127
2, 2720, Note_on_c, 1, 73, 127
2, 2720, Note_off_c, 1, 74, 0
2, 2720, Note_on_c, 1, 76, 127
2, 2720, Note_off_c, 1, 80, 0
2, 2720, Note_on_c, 1, 81, 127
2, 2720, Note_off_c, 1, 86, 0
2, 2760, Note_off_c, 1, 52, 0
2, 2760, Note_on_c, 1, 56, 127
2, 2760, Note_off_c, 1, 57, 0
2, 2760, Note_off_c, 1, 61, 0
2, 2760, Note_on_c, 1, 62, 127
2, 2760, Note_off_c, 1, 64, 0
2, 2760, Note_on_c, 1, 68, 127
2, 2760, Note_off_c, 1, 69, 0
2, 2760, Note_off_c, 1, 73, 0
2, 2760, Note_off_c, 1, 76, 0
2, 2760, Note_on_c, 1, 80, 127
2, 2760, Note_off_c, 1, 81, 0
2, 2760, Note_on_c, 1, 88, 127
2, 2800, Note_on_c, 1, 38, 127
2, 2800, Note_on_c, 1, 50, 127
2, 2800, Note_on_c, 1, 53, 127
2, 2800, Note_off_c, 1, 56, 0
2, 2800, Note_on_c, 1, 57, 127
2, 2800, Note_on_c, 1, 60, 127
2, 2800, Note_off_c, 1, 62, 0
2, 2800, Note_off_c, 1, 68, 0
2, 2800, Note_off_c, 1, 80, 0
2, 2800, Note_on_c, 1, 84, 127
2, 2800, Note_off_c, 1, 88, 0
2, 2800, Note_on_c, 1, 89, 127
2, 2800, Note_on_c, 1, 93, 127
2, 2840, Note_off_c, 1, 38, 0
2, 2840, Note_off_c, 1, 53, 0
2, 2840, Note_off_c, 1, 57, 0
2, 2840, Note_on_c, 1, 59, 127
2, 2840, Note_off_c, 1, 84, 0
2, 2840, Note_off_c, 1, 89, 0
2, 2840, Note_off_c, 1, 93, 0
2, 2880, Note_off_c, 1, 50, 0
2, 2880, Note_off_c, 1, 59, 0
2, 2880, Note_off_c, 1, 60, 0
2, 2880, Note_on_c, 1, 65, 127
2, 2880, Note_on_c, 1, 74, 127
2, 2880, Note_on_c, 1, 86, 127
2, 2880, Note_on_c, 1, 89, 127
2, 2920, Note_on_c, 1, 62, 127
2, 2920, Note_off_c, 1, 65, 0
2, 2920, Note_on_c, 1, 70, 127
2, 2920, Note_off_c, 1, 74, 0
2, 2920, Note_on_c, 1, 77, 127
2, 2920, Note_on_c, 1, 80, 127
2, 2920, Note_off_c, 1, 86, 0
2, 2960, Note_on_c, 1, 27, 127
2, 2960, Note_on_c, 1, 40, 127
2, 2960, Note_off_c, 1, 62, 0
2, 2960, Note_off_c, 1, 70, 0
2, 2960, Note_off_c, 1, 77, 0
2, 2960, Note_on_c, 1, 85, 127
2, 2960, Note_off_c, 1, 89, 0
2, 3000, Note_off_c, 1, 27, 0
2, 3000, Note_off_c, 1, 40, 0
2, 3000, Note_on_c, 1, 75, 127
2, 3000, Note_off_c, 1, 80, 0
2, 3000, Note_on_c, 1, 82, 127
2, 3000, Note_off_c, 1, 85, 0
2, 3000, Note_on_c, 1, 99, 127
2, 3000, Note_on_c, 1, 104, 127
2, 3040, Note_off_c, 1, 75, 0
2, 3040, Note_on_c, 1, 79, 127
2, 3040, Note_off_c, 1, 82, 0
2, 3040, Note_on_c, 1, 86, 127
2, 3040, Note_on_c, 1, 91, 127
2, 3040, Note_on_c, 1, 98, 127
2, 3040, Note_off_c, 1, 99, 0
2, 3040, Note_off_c, 1, 104, 0
2, 3080, Note_off_c, 1, 79, 0
2, 3080, Note_off_c, 1, 86, 0
2, 3080, Note_off_c, 1, 91, 0
2, 3080, Note_on_c, 1, 96, 127
2, 3080, Note_on_c, 1, 97, 127
2, 3080, Note_off_c, 1, 98, 0
2, 3080, Note_on_c, 1, 101, 127
2, 3080, Note_on_c, 1, 102, 127
2, 3120, Note_on_c, 1, 39, 127
2, 3120, Note_off_c, 1, 96, 0
2, 3120, Note_off_c, 1, 97, 0
2, 3120, Note_off_c, 1, 101, 0
2, 3120, Note_off_c, 1, 102, 0
2, 3120, Note_on_c, 1, 103, 127
2, 3160, Note_off_c, 1, 39, 0
2, 3160, Note_on_c, 1, 58, 127
2, 3160, Note_on_c, 1, 66, 127
2, 3160, Note_on_c, 1, 70, 127
2, 3160, Note_on_c, 1, 82, 127
2, 3160, Note_on_c, 1, 85, 127
2, 3160, Note_on_c, 1, 90, 127
2, 3160, Note_on_c, 1, 94, 127
2, 3160, Note_off_c, 1, 103, 0
2, 3200, Note_on_c, 1, 37, 127
2, 3200, Note_on_c, 1, 44, 127
2, 3200, Note_on_c, 1, 53, 127
2, 3200, Note_off_c, 1, 58, 0
2, 3200, Note_on_c, 1, 65, 127
2, 3200, Note_off_c, 1, 66, 0
2, 3200, Note_off_c, 1, 70, 0
2, 3200, Note_on_c, 1, 77, 127
2, 3200, Note_off_c, 1, 82, 0
2, 3200, Note_off_c, 1, 85, 0
2, 3200, Note_off_c, 1, 90, 0
2, 3200, Note_off_c, 1, 94, 0
2, 3240, Note_on_c, 1, 33, 127
2, 3240, Note_on_c, 1, 40, 127
2, 3240, Note_off_c, 1, 44, 0
2, 3240, Note_on_c, 1, 45, 127
2, 3240, Note_off_c, 1, 53, 0
2, 3240, Note_on_c, 1, 64, 127
2, 3240, Note_off_c, 1, 65, 0
2, 3240, Note_off_c, 1, 77, 0
2, 3280, Note_off_c, 1, 33, 0
2, 3280, Note_off_c, 1, 37, 0
2, 3280, Note_off_c, 1, 40, 0
2, 3280, Note_off_c, 1, 45, 0
2, 3280, Note_on_c, 1, 52, 127
2, 3280, Note_off_c, 1, 64, 0
2, 3280, Note_on_c, 1, 74, 127
2, 3280, Note_on_c, 1, 84, 127
2, 3320, Note_on_c, 1, 51, 127
2, 3320, Note_off_c, 1, 52, 0
2, 3320, Note_on_c, 1, 67, 127
2, 3320, Note_on_c, 1, 70, 127
2, 3320, Note_off_c, 1, 74, 0
2, 3320, Note_on_c, 1, 80, 127
2, 3320, Note_off_c, 1, 84, 0
2, 3360, Note_off_c, 1, 51, 0
2, 3360, Note_on_c, 1, 59, 127
2, 3360, Note_off_c, 1, 67, 0
2, 3360, Note_off_c, 1, 70, 0
2, 3360, Note_off_c, 1, 80, 0
2, 3360, Note_on_c, 1, 85, 127
2, 3400, Note_off_c, 1, 59, 0
2, 3400, Note_on_c, 1, 67, 127
2, 3400, Note_on_c, 1, 69, 127
2, 3400, Note_on_c, 1, 76, 127
2, 3400, Note_on_c, 1, 82, 127
2, 3400, Note_off_c, 1, 85, 0
2, 3520, Note_on_c, 1, 57, 127
2, 3520, Note_on_c, 1, 60, 127
2, 3520, Note_on_c, 1, 65, 127
2, 3520, Note_off_c, 1, 67, 0
2, 3520, Note_off_c, 1, 76, 0
2, 3520, Note_on_c, 1, 81, 127
2, 3520, Note_off_c, 1, 82, 0
2, 3520, Note_on_c, 1, 86, 127
2, 3560, Note_off_c, 1, 57, 0
2, 3560, Note_off_c, 1, 60, 0
2, 3560, Note_off_c, 1, 65, 0
2, 3560, Note_on_c, 1, 67, 127
2, 3560, Note_on_c, 1, 76, 127
2, 3560, Note_off_c, 1, 81, 0
2, 3560, Note_on_c, 1, 82, 127
2, 3560, Note_off_c, 1, 86, 0
2, 3720, Note_on_c, 1, 61, 127
2, 3720, Note_off_c, 1, 69, 0
2, 3720, Note_on_c, 1, 70, 127
2, 3720, Note_off_c, 1, 82, 0
2, 3760, Note_on_c, 1, 53, 127
2, 3760, Note_on_c, 1, 56, 127
2, 3760, Note_on_c, 1, 60, 127
2, 3760, Note_off_c, 1, 61, 0
2, 3760, Note_on_c, 1, 65, 127
2, 3760, Note_off_c, 1, 67, 0
2, 3760, Note_off_c, 1, 70, 0
2, 3760, Note_off_c, 1, 76, 0
2, 3760, Note_on_c, 1, 84, 127
2, 3840, Note_off_c, 1, 84, 0
2, 3880, Note_off_c, 1, 56, 0
2, 3880, Note_off_c, 1, 65, 0
2, 3880, Note_on_c, 1, 69, 127
2, 3880, Note_on_c, 1, 78, 127
2, 3920, Note_on_c, 1, 56, 127
2, 3920, Note_on_c, 1, 65, 127
2, 3920, Note_off_c, 1, 69, 0
2, 3920, Note_off_c, 1, 78, 0
2, 3920, Note_on_c, 1, 82, 127
2, 3960, Note_off_c, 1, 82, 0
2, 4000, Note_off_c, 1, 53, 0
2, 4000, Note_off_c, 1, 56, 0
2, 4000, Note_off_c, 1, 60, 0
2, 4000, Note_off_c, 1, 65, 0
2, 4040, Note_on_c, 1, 53, 127
2, 4040, Note_on_c, 1, 58, 127
2, 4040, Note_on_c, 1, 62, 127
2, 4040, Note_on_c, 1, 75, 127
2, 4040, Note_on_c, 1, 77, 127
2, 4080, Note_off_c, 1, 53, 0
2, 4080, Note_on_c, 1, 56, 127
2, 4080, Note_off_c, 1, 58, 0
2, 4080, Note_off_c, 1, 62, 0
2, 4080, Note_on_c, 1, 68, 127
2, 4080, Note_off_c, 1, 75, 0
2, 4080, Note_off_c, 1, 77, 0
2, 4080, Note_on_c, 1, 90, 127
2, 4080, Note_on_c, 1, 103, 127
2, 4120, Note_off_c, 1, 56, 0
2, 4120, Note_on_c, 1, 65, 127
2, 4120, Note_off_c, 1, 68, 0
2, 4120, Note_on_c, 1, 71, 127
2, 4120, Note_on_c, 1, 77, 127
2, 4120, Note_on_c, 1, 86, 127
2, 4120, Note_off_c, 1, 90, 0
2, 4120, Note_off_c, 1, 103, 0
2, 4160, Note_off_c, 1, 65, 0
2, 4160, Note_off_c, 1, 71, 0
2, 4160, Note_off_c, 1, 77, 0
2, 4160, Note_off_c, 1, 86, 0
2, 4160, Note_on_c, 1, 87, 127
2, 4160, Note_on_c, 1, 91, 127
2, 4200, Note_on_c, 1, 53, 127
2, 4200, Note_on_c, 1, 57, 127
2, 4200, Note_on_c, 1, 63, 127
2, 4200, Note_on_c, 1, 84, 127
2, 4200, Note_off_c, 1, 87, 0
2, 4200, Note_off_c, 1, 91, 0
2, 4400, Note_off_c, 1, 57, 0
2, 4400, Note_on_c, 1, 60, 127
2, 4400, Note_off_c, 1, 84, 0
2, 4400, Note_on_c, 1, 87, 127
2, 4440, Note_off_c, 1, 53, 0
2, 4440, Note_on_c, 1, 58, 127
2, 4440, Note_off_c, 1, 60, 0
2, 4440, Note_off_c, 1, 63, 0
2, 4440, Note_on_c, 1, 79, 127
2, 4440, Note_on_c, 1, 86, 127
2, 4440, Note_off_c, 1, 87, 0
2, 4480, Note_on_c, 1, 53, 127
2, 4480, Note_on_c, 1, 57, 127
2, 4480, Note_off_c, 1, 58, 0
2, 4480, Note_on_c, 1, 63, 127
2, 4480, Note_off_c, 1, 79, 0
2, 4480, Note_on_c, 1, 84, 127
2, 4480, Note_off_c, 1, 86, 0
2, 4520, Note_off_c, 1, 57, 0
2, 4520, Note_on_c, 1, 58, 127
2, 4520, Note_on_c, 1, 62, 127
2, 4520, Note_off_c, 1, 63, 0
2, 4520, Note_off_c, 1, 84, 0
2, 4520, Note_on_c, 1, 87, 127
2, 4560, Note_on_c, 1, 57, 127
2, 4560, Note_off_c, 1, 58, 0
2, 4560, Note_off_c, 1, 62, 0
2, 4560, Note_on_c, 1, 63, 127
2, 4560, Note_on_c, 1, 74, 127
2, 4560, Note_off_c, 1, 87, 0
2, 4640, Note_off_c, 1, 74, 0
2, 4680, Note_on_c, 1, 74, 127
2, 4800, Note_on_c, 1, 72, 127
2, 4800, Note_off_c, 1, 74, 0
2, 4920, Note_off_c, 1, 53, 0
2, 4920, Note_off_c, 1, 57, 0
2, 4920, Note_off_c, 1, 63, 0
2, 4920, Note_off_c, 1, 72, 0
2, 4960, Note_on_c, 1, 46, 127
2, 4960, Note_on_c, 1, 70, 127
2, 5520, Note_on_c, 1, 50, 127
2, 5520, Note_on_c, 1, 65, 127
2, 6080, Note_off_c, 1, 65, 0
2, 6080, Note_off_c, 1, 70, 0
2, 6120, Note_off_c, 1, 46, 0
2, 6120, Note_off_c, 1, 50, 0
2, 6160, Note_on_c, 1, 32, 127
2, 6160, Note_on_c, 1, 52, 127
2, 6160, Note_on_c, 1, 57, 127
2, 6160, Note_on_c, 1, 61, 127
2, 6160, Note_on_c, 1, 64, 127
2, 6320, Note_off_c, 1, 32, 0
2, 6320, Note_off_c, 1, 52, 0
2, 6320, Note_off_c, 1, 57, 0
2, 6320, Note_off_c, 1, 61, 0
2, 6320, Note_on_c, 1, 62, 127
2, 6320, Note_off_c, 1, 64, 0
2, 6360, Note_on_c, 1, 38, 127
2, 6360, Note_on_c, 1, 57, 127
2, 6360, Note_off_c, 1, 62, 0
2, 6360, Note_on_c, 1, 65, 127
2, 6720, Note_off_c, 1, 57, 0
2, 6760, Note_off_c, 1, 38, 0
2, 6760, Note_on_c, 1, 49, 127
2, 6760, Note_on_c, 1, 52, 127
2, 6760, Note_on_c, 1, 57, 127
2, 6760, Note_on_c, 1, 61, 127
2, 6760, Note_on_c, 1, 63, 127
2, 6760, Note_off_c, 1, 65, 0
2, 7080, Note_off_c, 1, 63, 0
2, 7120, Note_on_c, 1, 64, 127
2, 7360, Note_off_c, 1, 64, 0
2, 7400, Note_on_c, 1, 69, 127
2, 7640, Note_off_c, 1, 49, 0
2, 7640, Note_off_c, 1, 52, 0
2, 7640, Note_off_c, 1, 57, 0
2, 7640, Note_off_c, 1, 61, 0
2, 7640, Note_on_c, 1, 76, 127
2, 7640, Note_on_c, 1, 88, 127
2, 7680, Note_on_c, 1, 41, 127
2, 7680, Note_on_c, 1, 53, 127
2, 7680, Note_on_c, 1, 73, 127
2, 7680, Note_off_c, 1, 76, 0
2, 7680, Note_on_c, 1, 77, 127
2, 7680, Note_off_c, 1, 88, 0
2, 7720, Note_off_c, 1, 41, 0
2, 7720, Note_on_c, 1, 48, 127
2, 7720, Note_off_c, 1, 53, 0
2, 7720, Note_on_c, 1, 62, 127
2, 7720, Note_off_c, 1, 69, 0
2, 7720, Note_on_c, 1, 70, 127
2, 7720, Note_off_c, 1, 73, 0
2, 7720, Note_off_c, 1, 77, 0
2, 7720, Note_on_c, 1, 79, 127
2, 7760, Note_on_c, 1, 35, 127
2, 7760, Note_off_c, 1, 48, 0
2, 7760, Note_on_c, 1, 56, 127
2, 7760, Note_on_c, 1, 59, 127
2, 7760, Note_on_c, 1, 64, 127
2, 7760, Note_off_c, 1, 70, 0
2, 7760, Note_off_c, 1, 79, 0
2, 7800, Note_off_c, 1, 35, 0
2, 7800, Note_off_c, 1, 56, 0
2, 7800, Note_off_c, 1, 59, 0
2, 7800, Note_off_c, 1, 62, 0
2, 7800, Note_off_c, 1, 64, 0
2, 7800, Note_on_c, 1, 80, 127
2, 7800, Note_on_c, 1, 96, 127
2, 7840, Note_on_c, 1, 46, 127
2, 7840, Note_on_c, 1, 53, 127
2, 7840, Note_on_c, 1, 58, 127
2, 7840, Note_on_c, 1, 70, 127
2, 7840, Note_on_c, 1, 75, 127
2, 7840, Note_off_c, 1, 80, 0
2, 7840, Note_off_c, 1, 96, 0
2, 7880, Note_off_c, 1, 46, 0
2, 7880, Note_off_c, 1, 53, 0
2, 7880, Note_off_c, 1, 58, 0
2, 7880, Note_off_c, 1, 70, 0
2, 7880, Note_off_c, 1, 75, 0
2, 7920, Note_on_c, 1, 40, 127
2, 7920, Note_on_c, 1, 52, 127
2, 7920, Note_on_c, 1, 62, 127
2, 7920, Note_on_c, 1, 71, 127
2, 8120, Note_off_c, 1, 62, 0
2, 8160, Note_off_c, 1, 40, 0
2, 8160, Note_off_c, 1, 52, 0
2, 8160, Note_off_c, 1, 71, 0
2, 8200, Note_on_c, 1, 40, 127
2, 8200, Note_on_c, 1, 52, 127
2, 8200, Note_on_c, 1, 62, 127
2, 8200, Note_on_c, 1, 71, 127
2, 8320, Note_off_c, 1, 62, 0
2, 8360, Note_on_c, 1, 64, 127
2, 8520, Note_off_c, 1, 64, 0
2, 8560, Note_on_c, 1, 67, 127
2, 8680, Note_off_c, 1, 40, 0
2, 8680, Note_off_c, 1, 52, 0
2, 8680, Note_off_c, 1, 67, 0
2, 8680, Note_off_c, 1, 71, 0
2, 8720, Note_on_c, 1, 40, 127
2, 8720, Note_on_c, 1, 67, 127
2, 8720, Note_on_c, 1, 71, 127
2, 8840, Note_off_c, 1, 40, 0
2, 9040, Note_on_c, 1, 40, 127
2, 9120, Note_off_c, 1, 40, 0
2, 9160, Note_on_c, 1, 40, 127
2, 9240, Note_off_c, 1, 40, 0
2, 9320, Note_on_c, 1, 52, 127
2, 9360, Note_off_c, 1, 52, 0
2, 9440, Note_on_c, 1, 55, 127
2, 9480, Note_off_c, 1, 55, 0
2, 9520, Note_on_c, 1, 58, 127
2, 9520, Note_on_c, 1, 70, 127
2, 9520, Note_off_c, 1, 71, 0
2, 9520, Note_on_c, 1, 76, 127
2, 9520, Note_on_c, 1, 85, 127
2, 9880, Note_off_c, 1, 58, 0
2, 9880, Note_off_c, 1, 67, 0
2, 9880, Note_off_c, 1, 70, 0
2, 9880, Note_off_c, 1, 76, 0
2, 9880, Note_off_c, 1, 85, 0
2, 9920, Note_on_c, 1, 43, 127
2, 9920, Note_on_c, 1, 50, 127
2, 9920, Note_on_c, 1, 58, 127
2, 9920, Note_on_c, 1, 67, 127
2, 9920, Note_on_c, 1, 74, 127
2, 9920, Note_on_c, 1, 79, 127
2, 10080, Note_off_c, 1, 43, 0
2, 10080, Note_off_c, 1, 50, 0
2, 10080, Note_on_c, 1, 55, 127
2, 10080, Note_off_c, 1, 58, 0
2, 10080, Note_off_c, 1, 67, 0
2, 10080, Note_on_c, 1, 71, 127
2, 10080, Note_off_c, 1, 79, 0
2, 10120, Note_on_c, 1, 67, 127
2, 10120, Note_off_c, 1, 71, 0
2, 10160, Note_off_c, 1, 55, 0
2, 10160, Note_off_c, 1, 67, 0
2, 10160, Note_off_c, 1, 74, 0
2, 10200, Note_on_c, 1, 55, 127
2, 10200, Note_on_c, 1, 67, 127
2, 10200, Note_on_c, 1, 70, 127
2, 10200, Note_on_c, 1, 74, 127
2, 10240, Note_off_c, 1, 67, 0
2, 10920, Note_on_c, 1, 50, 127
2, 10920, Note_off_c, 1, 55, 0
2, 10920, Note_on_c, 1, 65, 127
2, 10920, Note_off_c, 1, 70, 0
2, 10920, Note_off_c, 1, 74, 0
2, 10920, Note_on_c, 1, 76, 127
2, 11120, Note_off_c, 1, 76, 0
2, 11160, Note_on_c, 1, 56, 127
2, 11160, Note_on_c, 1, 59, 127
2, 11960, Note_off_c, 1, 50, 0
2, 11960, Note_off_c, 1, 56, 0
2, 11960, Note_on_c, 1, 67, 127
2, 12000, Note_off_c, 1, 59, 0
2, 12000, Note_off_c, 1, 65, 0
2, 12000, Note_off_c, 1, 67, 0
2, 12040, Note_on_c, 1, 47, 127
2, 12040, Note_on_c, 1, 67, 127
2, 12200, Note_on_c, 1, 55, 127
2, 12200, Note_on_c, 1, 79, 127
2, 12480, Note_on_c, 1, 45, 127
2, 12480, Note_off_c, 1, 47, 0
2, 12480, Note_on_c, 1, 48, 127
2, 12480, Note_off_c, 1, 55, 0
2, 12480, Note_on_c, 1, 57, 127
2, 12480, Note_on_c, 1, 60, 127
2, 12480, Note_on_c, 1, 64, 127
2, 12480, Note_off_c, 1, 67, 0
2, 12480, Note_off_c, 1, 79, 0
2, 12520, Note_off_c, 1, 45, 0
2, 12520, Note_on_c, 1, 47, 127
2, 12520, Note_off_c, 1, 48, 0
2, 12520, Note_on_c, 1, 55, 127
2, 12520, Note_off_c, 1, 57, 0
2, 12520, Note_off_c, 1, 60, 0
2, 12520, Note_off_c, 1, 64, 0
2, 12520, Note_on_c, 1, 67, 127
2, 12520, Note_on_c, 1, 79, 127
2, 13320, Note_off_c, 1, 47, 0
2, 13320, Note_off_c, 1, 55, 0
2, 13320, Note_off_c, 1, 67, 0
2, 13320, Note_off_c, 1, 79, 0
2, 13360, Note_on_c, 1, 36, 127
2, 13360, Note_on_c, 1, 46, 127
2, 13360, Note_on_c, 1, 62, 127
2, 13520, Note_off_c, 1, 36, 0
2, 13520, Note_off_c, 1, 46, 0
2, 13520, Note_on_c, 1, 58, 127
2, 13520, Note_off_c, 1, 62, 0
2, 13520, Note_on_c, 1, 63, 127
2, 13520, Note_on_c, 1, 81, 127
2, 13520, Note_on_c, 1, 86, 127
2, 13560, Note_on_c, 1, 36, 127
2, 13560, Note_on_c, 1, 46, 127
2, 13560, Note_off_c, 1, 58, 0
2, 13560, Note_on_c, 1, 62, 127
2, 13560, Note_off_c, 1, 63, 0
2, 13560, Note_off_c, 1, 81, 0
2, 13560, Note_off_c, 1, 86, 0
2, 13680, Note_off_c, 1, 46, 0
2, 13680, Note_on_c, 1, 50, 127
2, 13720, Note_off_c, 1, 36, 0
2, 13720, Note_on_c, 1, 43, 127
2, 13720, Note_off_c, 1, 50, 0
2, 13720, Note_on_c, 1, 59, 127
2, 13720, Note_off_c, 1, 62, 0
2, 13720, Note_on_c, 1, 70, 127
2, 13760, Note_on_c, 1, 40, 127
2, 13760, Note_off_c, 1, 43, 0
2, 13760, Note_on_c, 1, 45, 127
2, 13760, Note_on_c, 1, 52, 127
2, 13760, Note_off_c, 1, 59, 0
2, 13760, Note_off_c, 1, 70, 0
2, 13760, Note_on_c, 1, 84, 127
2, 14040, Note_off_c, 1, 40, 0
2, 14040, Note_off_c, 1, 45, 0
2, 14040, Note_off_c, 1, 52, 0
2, 14040, Note_off_c, 1, 84, 0
2, 14080, Note_on_c, 1, 40, 127
2, 14080, Note_on_c, 1, 45, 127
2, 14080, Note_on_c, 1, 52, 127
2, 14080, Note_on_c, 1, 84, 127
2, 14120, Note_off_c, 1, 40, 0
2, 14120, Note_off_c, 1, 45, 0
2, 14120, Note_off_c, 1, 52, 0
2, 14120, Note_off_c, 1, 84, 0
2, 14160, Note_on_c, 1, 35, 127
2, 14160, Note_on_c, 1, 47, 127
2, 14160, Note_on_c, 1, 81, 127
2, 14160, Note_on_c, 1, 87, 127
2, 14160, Note_on_c, 1, 90, 127
2, 14160, Note_on_c, 1, 93, 127
2, 14520, Note_off_c, 1, 35, 0
2, 14520, Note_off_c, 1, 47, 0
2, 14560, Note_on_c, 1, 47, 127
2, 14560, Note_on_c, 1, 59, 127
2, 14800, Note_off_c, 1, 47, 0
2, 14800, Note_off_c, 1, 59, 0
2, 14840, Note_on_c, 1, 47, 127
2, 14840, Note_on_c, 1, 59, 127
2, 14920, Note_off_c, 1, 47, 0
2, 14920, Note_off_c, 1, 59, 0
2, 14960, Note_on_c, 1, 38, 127
2, 14960, Note_on_c, 1, 45, 127
2, 14960, Note_off_c, 1, 81, 0
2, 14960, Note_on_c, 1, 84, 127
2, 14960, Note_off_c, 1, 87, 0
2, 14960, Note_off_c, 1, 90, 0
2, 14960, Note_off_c, 1, 93, 0
2, 15280, Note_off_c, 1, 38, 0
2, 15280, Note_off_c, 1, 45, 0
2, 15280, Note_off_c, 1, 84, 0
2, 15320, Note_on_c, 1, 50, 127
2, 15320, Note_on_c, 1, 57, 127
2, 15320, Note_on_c, 1, 62, 127
2, 15320, Note_on_c, 1, 67, 127
2, 15320, Note_on_c, 1, 69, 127
2, 15320, Note_on_c, 1, 74, 127
2, 15320, Note_on_c, 1, 79, 127
2, 16000, Note_off_c, 1, 50, 0
2, 16000, Note_off_c, 1, 57, 0
2, 16000, Note_off_c, 1, 62, 0
2, 16000, Note_off_c, 1, 67, 0
2, 16000, Note_off_c, 1, 69, 0
2, 16000, Note_off_c, 1, 74, 0
2, 16000, Note_off_c, 1, 79, 0
2, 16040, Note_on_c, 1, 44, 127
2, 16040, Note_on_c, 1, 54, 127
2, 16040, Note_on_c, 1, 60, 127
2, 16040, Note_on_c, 1, 64, 127
2, 16160, Note_off_c, 1, 44, 0
2, 16160, Note_off_c, 1, 54, 0
2, 16160, Note_off_c, 1, 60, 0
2, 16160, Note_off_c, 1, 64, 0
2, 16200, Note_on_c, 1, 44, 127
2, 16200, Note_on_c, 1, 54, 127
2, 16200, Note_on_c, 1, 60, 127
2, 16200, Note_on_c, 1, 64, 127
2, 16400, Note_off_c, 1, 44, 0
2, 16400, Note_off_c, 1, 54, 0
2, 16400, Note_off_c, 1, 60, 0
2, 16400, Note_off_c, 1, 64, 0
2, 16440, Note_on_c, 1, 39, 127
2, 16440, Note_on_c, 1, 61, 127
2, 16440, Note_on_c, 1, 67, 127
2, 16440, Note_on_c, 1, 69, 127
2, 16440, Note_on_c, 1, 73, 127
2, 16480, Note_off_c, 1, 39, 0
2, 16480, Note_on_c, 1, 42, 127
2, 16480, Note_on_c, 1, 49, 127
2, 16480, Note_on_c, 1, 54, 127
2, 16480, Note_on_c, 1, 58, 127
2, 16480, Note_off_c, 1, 67, 0
2, 16480, Note_off_c, 1, 69, 0
2, 16480, Note_off_c, 1, 73, 0
2, 16480, Note_on_c, 1, 78, 127
2, 16480, Note_on_c, 1, 90, 127
2, 16520, Note_off_c, 1, 42, 0
2, 16520, Note_off_c, 1, 49, 0
2, 16520, Note_off_c, 1, 54, 0
2, 16520, Note_off_c, 1, 58, 0
2, 16520, Note_off_c, 1, 61, 0
2, 16520, Note_off_c, 1, 78, 0
2, 16520, Note_on_c, 1, 79, 127
2, 16520, Note_on_c, 1, 81, 127
2, 16520, Note_on_c, 1, 86, 127
2, 16520, Note_off_c, 1, 90, 0
2, 16560, Note_on_c, 1, 41, 127
2, 16560, Note_on_c, 1, 51, 127
2, 16560, Note_on_c, 1, 60, 127
2, 16560, Note_on_c, 1, 68, 127
2, 16560, Note_off_c, 1, 79, 0
2, 16560, Note_off_c, 1, 81, 0
2, 16560, Note_off_c, 1, 86, 0
2, 16600, Note_on_c, 1, 37, 127
2, 16600, Note_off_c, 1, 41, 0
2, 16600, Note_on_c, 1, 48, 127
2, 16600, Note_off_c, 1, 51, 0
2, 16600, Note_off_c, 1, 60, 0
2, 16600, Note_off_c, 1, 68, 0
2, 16640, Note_off_c, 1, 37, 0
2, 16640, Note_off_c, 1, 48, 0
2, 16640, Note_on_c, 1, 55, 127
2, 16640, Note_on_c, 1, 62, 127
2, 16640, Note_on_c, 1, 65, 127
2, 16640, Note_on_c, 1, 74, 127
2, 16640, Note_on_c, 1, 77, 127
2, 16640, Note_on_c, 1, 83, 127
2, 16680, Note_off_c, 1, 65, 0
2, 16680, Note_on_c, 1, 67, 127
2, 16680, Note_off_c, 1, 74, 0
2, 16680, Note_off_c, 1, 77, 0
2, 16680, Note_off_c, 1, 83, 0
2, 16680, Note_on_c, 1, 94, 127
2, 16720, Note_on_c, 1, 34, 127
2, 16720, Note_on_c, 1, 41, 127
2, 16720, Note_on_c, 1, 46, 127
2, 16720, Note_off_c, 1, 55, 0
2, 16720, Note_off_c, 1, 62, 0
2, 16720, Note_off_c, 1, 67, 0
2, 16720, Note_on_c, 1, 85, 127
2, 16720, Note_on_c, 1, 88, 127
2, 16720, Note_off_c, 1, 94, 0
2, 16760, Note_off_c, 1, 34, 0
2, 16760, Note_off_c, 1, 41, 0
2, 16760, Note_off_c, 1, 46, 0
2, 16760, Note_off_c, 1, 85, 0
2, 16760, Note_off_c, 1, 88, 0
2, 16800, Note_on_c, 1, 56, 127
2, 16800, Note_on_c, 1, 59, 127
2, 16800, Note_on_c, 1, 83, 127
2, 16800, Note_on_c, 1, 85, 127
2, 16840, Note_on_c, 1, 39, 127
2, 16840, Note_on_c, 1, 42, 127
2, 16840, Note_on_c, 1, 47, 127
2, 16840, Note_on_c, 1, 51, 127
2, 16840, Note_off_c, 1, 56, 0
2, 16840, Note_off_c, 1, 59, 0
2, 16840, Note_off_c, 1, 83, 0
2, 16840, Note_off_c, 1, 85, 0
2, 16880, Note_off_c, 1, 39, 0
2, 16880, Note_off_c, 1, 42, 0
2, 16880, Note_off_c, 1, 47, 0
2, 16880, Note_off_c, 1, 51, 0
2, 16880, Note_on_c, 1, 62, 127
2, 16880, Note_on_c, 1, 91, 127
2, 16880, Note_on_c, 1, 103, 127
2, 16920, Note_on_c, 1, 47, 127
2, 16920, Note_on_c, 1, 49, 127
2, 16920, Note_on_c, 1, 52, 127
2, 16920, Note_on_c, 1, 54, 127
2, 16920, Note_on_c, 1, 58, 127
2, 16920, Note_off_c, 1, 62, 0
2, 16920, Note_on_c, 1, 64, 127
2, 16920, Note_off_c, 1, 91, 0
2, 16920, Note_off_c, 1, 103, 0
2, 16960, Note_off_c, 1, 47, 0
2, 16960, Note_off_c, 1, 49, 0
2, 16960, Note_off_c, 1, 52, 0
2, 16960, Note_off_c, 1, 54, 0
2, 16960, Note_on_c, 1, 63, 127
2, 16960, Note_off_c, 1, 64, 0
2, 16960, Note_on_c, 1, 65, 127
2, 16960, Note_on_c, 1, 73, 127
2, 17000, Note_on_c, 1, 29, 127
2, 17000, Note_on_c, 1, 41, 127
2, 17000, Note_on_c, 1, 48, 127
2, 17000, Note_on_c, 1, 57, 127
2, 17000, Note_off_c, 1, 58, 0
2, 17000, Note_on_c, 1, 60, 127
2, 17000, Note_off_c, 1, 63, 0
2, 17000, Note_on_c, 1, 69, 127
2, 17000, Note_off_c, 1, 73, 0
2, 17120, Note_off_c, 1, 29, 0
2, 17120, Note_off_c, 1, 41, 0
2, 17120, Note_off_c, 1, 48, 0
2, 17120, Note_off_c, 1, 57, 0
2, 17120, Note_off_c, 1, 60, 0
2, 17120, Note_off_c, 1, 65, 0
2, 17120, Note_off_c, 1, 69, 0
2, 17160, Note_on_c, 1, 33, 127
2, 17160, Note_on_c, 1, 43, 127
2, 17160, Note_on_c, 1, 63, 127
2, 17160, Note_on_c, 1, 72, 127
2, 17200, Note_off_c, 1, 63, 0
2, 17200, Note_off_c, 1, 72, 0
2, 17360, Note_on_c, 1, 63, 127
2, 17360, Note_on_c, 1, 72, 127
2, 17400, Note_off_c, 1, 63, 0
2, 17400, Note_off_c, 1, 72, 0
2, 17440, Note_on_c, 1, 63, 127
2, 17440, Note_on_c, 1, 72, 127
2, 17480, Note_off_c, 1, 33, 0
2, 17480, Note_off_c, 1, 43, 0
2, 17480, Note_on_c, 1, 52, 127
2, 17480, Note_off_c, 1, 63, 0
2, 17480, Note_on_c, 1, 64, 127
2, 17480, Note_on_c, 1, 66, 127
2, 17480, Note_on_c, 1, 68, 127
2, 17480, Note_off_c, 1, 72, 0
2, 17520, Note_on_c, 1, 44, 127
2, 17520, Note_on_c, 1, 56, 127
2, 17520, Note_off_c, 1, 64, 0
2, 17520, Note_off_c, 1, 66, 0
2, 17520, Note_off_c, 1, 68, 0
2, 17520, Note_on_c, 1, 76, 127
2, 17560, Note_off_c, 1, 44, 0
2, 17560, Note_off_c, 1, 52, 0
2, 17560, Note_off_c, 1, 56, 0
2, 17560, Note_on_c, 1, 62, 127
2, 17560, Note_on_c, 1, 72, 127
2, 17560, Note_on_c, 1, 75, 127
2, 17560, Note_off_c, 1, 76, 0
2, 17560, Note_on_c, 1, 82, 127
2, 17880, Note_off_c, 1, 62, 0
2, 17880, Note_off_c, 1, 72, 0
2, 17880, Note_off_c, 1, 75, 0
2, 17880, Note_off_c, 1, 82, 0
2, 17920, Note_on_c, 1, 63, 127
2, 17920, Note_on_c, 1, 69, 127
2, 17920, Note_on_c, 1, 71, 127
2, 17920, Note_on_c, 1, 75, 127
2, 17920, Note_on_c, 1, 83, 127
2, 17960, Note_on_c, 1, 46, 127
2, 17960, Note_on_c, 1, 51, 127
2, 17960, Note_on_c, 1, 55, 127
2, 17960, Note_on_c, 1, 58, 127
2, 17960, Note_off_c, 1, 63, 0
2, 17960, Note_off_c, 1, 69, 0
2, 17960, Note_off_c, 1, 71, 0
2, 17960, Note_off_c, 1, 75, 0
2, 17960, Note_on_c, 1, 82, 127
2, 17960, Note_off_c, 1, 83, 0
2, 17960, Note_on_c, 1, 87, 127
2, 17960, Note_on_c, 1, 91, 127
2, 17960, Note_on_c, 1, 94, 127
2, 18000, Note_off_c, 1, 46, 0
2, 18000, Note_off_c, 1, 51, 0
2, 18000, Note_off_c, 1, 55, 0
2, 18000, Note_off_c, 1, 58, 0
2, 18000, Note_on_c, 1, 68, 127
2, 18000, Note_on_c, 1, 76, 127
2, 18000, Note_on_c, 1, 79, 127
2, 18000, Note_off_c, 1, 82, 0
2, 18000, Note_on_c, 1, 85, 127
2, 18000, Note_off_c, 1, 87, 0
2, 18000, Note_off_c, 1, 91, 0
2, 18000, Note_off_c, 1, 94, 0
2, 18000, Note_on_c, 1, 95, 127
2, 18040, Note_on_c, 1, 57, 127
2, 18040, Note_on_c, 1, 62, 127
2, 18040, Note_off_c, 1, 79, 0
2, 18040, Note_off_c, 1, 85, 0
2, 18040, Note_on_c, 1, 88, 127
2, 18040, Note_off_c, 1, 95, 0
2, 18080, Note_on_c, 1, 52, 127
2, 18080, Note_on_c, 1, 55, 127
2, 18080, Note_off_c, 1, 57, 0
2, 18080, Note_off_c, 1, 62, 0
2, 18080, Note_off_c, 1, 68, 0
2, 18080, Note_on_c, 1, 79, 127
2, 18080, Note_off_c, 1, 88, 0
2, 18120, Note_off_c, 1, 55, 0
2, 18120, Note_on_c, 1, 60, 127
2, 18120, Note_on_c, 1, 64, 127
2, 18120, Note_on_c, 1, 71, 127
2, 18120, Note_off_c, 1, 76, 0
2, 18120, Note_off_c, 1, 79, 0
2, 18160, Note_off_c, 1, 52, 0
2, 18160, Note_off_c, 1, 60, 0
2, 18160, Note_off_c, 1, 64, 0
2, 18160, Note_off_c, 1, 71, 0
2, 18200, Note_on_c, 1, 52, 127
2, 18200, Note_on_c, 1, 60, 127
2, 18200, Note_on_c, 1, 64, 127
2, 18200, Note_on_c, 1, 71, 127
2, 18280, Note_on_c, 1, 69, 127
2, 18280, Note_off_c, 1, 71, 0
2, 18640, Note_off_c, 1, 52, 0
2, 18640, Note_off_c, 1, 60, 0
2, 18640, Note_off_c, 1, 64, 0
2, 18640, Note_off_c, 1, 69, 0
2, 18680, Note_on_c, 1, 62, 127
2, 18680, Note_on_c, 1, 65, 127
2, 18680, Note_on_c, 1, 73, 127
2, 18680, Note_on_c, 1, 78, 127
2, 18680, Note_on_c, 1, 85, 127
2, 19000, Note_off_c, 1, 62, 0
2, 19000, Note_off_c, 1, 65, 0
2, 19000, Note_off_c, 1, 73, 0
2, 19000, Note_off_c, 1, 85, 0
2, 19040, Note_on_c, 1, 54, 127
2, 19040, Note_on_c, 1, 71, 127
2, 19040, Note_on_c, 1, 86, 127
2, 19200, Note_off_c, 1, 54, 0
2, 19240, Note_on_c, 1, 54, 127
2, 19320, Note_on_c, 1, 59, 127
2, 19320, Note_on_c, 1, 62, 127
2, 19320, Note_off_c, 1, 71, 0
2, 19320, Note_on_c, 1, 74, 127
2, 19320, Note_off_c, 1, 78, 0
2, 19360, Note_off_c, 1, 54, 0
2, 19360, Note_off_c, 1, 59, 0
2, 19360, Note_off_c, 1, 62, 0
2, 19360, Note_off_c, 1, 74, 0
2, 19360, Note_off_c, 1, 86, 0
2, 19400, Note_on_c, 1, 30, 127
2, 19400, Note_on_c, 1, 35, 127
2, 19400, Note_on_c, 1, 37, 127
2, 19400, Note_on_c, 1, 72, 127
2, 19440, Note_off_c, 1, 30, 0
2, 19440, Note_off_c, 1, 35, 0
2, 19440, Note_off_c, 1, 37, 0
2, 19440, Note_on_c, 1, 64, 127
2, 19440, Note_on_c, 1, 67, 127
2, 19440, Note_off_c, 1, 72, 0
2, 19440, Note_on_c, 1, 83, 127
2, 19440, Note_on_c, 1, 88, 127
2, 19480, Note_off_c, 1, 64, 0
2, 19480, Note_on_c, 1, 66, 127
2, 19480, Note_off_c, 1, 67, 0
2, 19480, Note_on_c, 1, 68, 127
2, 19480, Note_on_c, 1, 71, 127
2, 19480, Note_on_c, 1, 74, 127
2, 19480, Note_on_c, 1, 82, 127
2, 19480, Note_off_c, 1, 83, 0
2, 19480, Note_off_c, 1, 88, 0
2, 19520, Note_on_c, 1, 46, 127
2, 19520, Note_on_c, 1, 52, 127
2, 19520, Note_on_c, 1, 58, 127
2, 19520, Note_off_c, 1, 66, 0
2, 19520, Note_off_c, 1, 68, 0
2, 19520, Note_off_c, 1, 71, 0
2, 19520, Note_on_c, 1, 73, 127
2, 19520, Note_off_c, 1, 74, 0
2, 19520, Note_off_c, 1, 82, 0
2, 19520, Note_on_c, 1, 85, 127
2, 19560, Note_off_c, 1, 46, 0
2, 19560, Note_off_c, 1, 52, 0
2, 19560, Note_off_c, 1, 58, 0
2, 19560, Note_off_c, 1, 73, 0
2, 19560, Note_on_c, 1, 83, 127
2, 19560, Note_off_c, 1, 85, 0
2, 19560, Note_on_c, 1, 90, 127
2, 19560, Note_on_c, 1, 95, 127
2, 19600, Note_on_c, 1, 37, 127
2, 19600, Note_on_c, 1, 44, 127
2, 19600, Note_on_c, 1, 49, 127
2, 19600, Note_on_c, 1, 53, 127
2, 19600, Note_on_c, 1, 61, 127
2, 19600, Note_off_c, 1, 83, 0
2, 19600, Note_off_c, 1, 90, 0
2, 19600, Note_on_c, 1, 92, 127
2, 19600, Note_off_c, 1, 95, 0
2, 19640, Note_off_c, 1, 37, 0
2, 19640, Note_off_c, 1, 44, 0
2, 19640, Note_on_c, 1, 45, 127
2, 19640, Note_off_c, 1, 49, 0
2, 19640, Note_off_c, 1, 53, 0
2, 19640, Note_off_c, 1, 61, 0
2, 19640, Note_on_c, 1, 62, 127
2, 19640, Note_on_c, 1, 66, 127
2, 19640, Note_on_c, 1, 71, 127
2, 19640, Note_off_c, 1, 92, 0
2, 19680, Note_off_c, 1, 45, 0
2, 19680, Note_on_c, 1, 52, 127
2, 19680, Note_on_c, 1, 57, 127
2, 19680, Note_on_c, 1, 61, 127
2, 19680, Note_off_c, 1, 62, 0
2, 19680, Note_off_c, 1, 66, 0
2, 19680, Note_on_c, 1, 67, 127
2, 19680, Note_off_c, 1, 71, 0
2, 19680, Note_on_c, 1, 79, 127
2, 19720, Note_off_c, 1, 52, 0
2, 19720, Note_off_c, 1, 57, 0
2, 19720, Note_off_c, 1, 61, 0
2, 19720, Note_off_c, 1, 67, 0
2, 19720, Note_off_c, 1, 79, 0
2, 19760, Note_on_c, 1, 40, 127
2, 19760, Note_on_c, 1, 52, 127
2, 19760, Note_on_c, 1, 73, 127
2, 19760, Note_on_c, 1, 76, 127
2, 19760, Note_on_c, 1, 80, 127
2, 19760, Note_on_c, 1, 85, 127
2, 19920, Note_off_c, 1, 40, 0
2, 19920, Note_off_c, 1, 52, 0
2, 19960, Note_on_c, 1, 40, 127
2, 19960, Note_on_c, 1, 52, 127
2, 20080, Note_off_c, 1, 40, 0
2, 20080, Note_off_c, 1, 52, 0
2, 20120, Note_on_c, 1, 40, 127
2, 20120, Note_on_c, 1, 52, 127
2, 20240, Note_off_c, 1, 40, 0
2, 20240, Note_off_c, 1, 52, 0
2, 20240, Note_off_c, 1, 73, 0
2, 20240, Note_off_c, 1, 76, 0
2, 20240, Note_off_c, 1, 80, 0
2, 20240, Note_off_c, 1, 85, 0
2, 20280, Note_on_c, 1, 40, 127
2, 20280, Note_on_c, 1, 52, 127
2, 20280, Note_on_c, 1, 73, 127
2, 20280, Note_on_c, 1, 76, 127
2, 20280, Note_on_c, 1, 80, 127
2, 20280, Note_on_c, 1, 85, 127
2, 20320, Note_off_c, 1, 40, 0
2, 20320, Note_off_c, 1, 52, 0
2, 20360, Note_on_c, 1, 40, 127
2, 20360, Note_on_c, 1, 52, 127
2, 20480, Note_off_c, 1, 40, 0
2, 20480, Note_off_c, 1, 52, 0
2, 20480, Note_off_c, 1, 73, 0
2, 20480, Note_off_c, 1, 76, 0
2, 20480, Note_off_c, 1, 80, 0
2, 20480, Note_off_c, 1, 85, 0
2, 20520, Note_on_c, 1, 40, 127
2, 20520, Note_on_c, 1, 52, 127
2, 20520, Note_on_c, 1, 55, 127
2, 20520, Note_on_c, 1, 60, 127
2, 20520, Note_on_c, 1, 64, 127
2, 20520, Note_on_c, 1, 67, 127
2, 20840, Note_off_c, 1, 40, 0
2, 20840, Note_off_c, 1, 52, 0
2, 20840, Note_off_c, 1, 55, 0
2, 20840, Note_off_c, 1, 60, 0
2, 20840, Note_off_c, 1, 64, 0
2, 20840, Note_off_c, 1, 67, 0
2, 20880, Note_on_c, 1, 47, 127
2, 20880, Note_on_c, 1, 60, 127
2, 20880, Note_on_c, 1, 64, 127
2, 20880, Note_on_c, 1, 71, 127
2, 21200, Note_off_c, 1, 47, 0
2, 21200, Note_off_c, 1, 60, 0
2, 21200, Note_off_c, 1, 64, 0
2, 21200, Note_off_c, 1, 71, 0
2, 21240, Note_on_c, 1, 38, 127
2, 21240, Note_on_c, 1, 50, 127
2, 21240, Note_on_c, 1, 68, 127
2, 21240, Note_on_c, 1, 71, 127
2, 21240, Note_on_c, 1, 77, 127
2, 21920, Note_off_c, 1, 68, 0
2, 21920, Note_off_c, 1, 71, 0
2, 21960, Note_on_c, 1, 71, 127
2, 21960, Note_on_c, 1, 76, 127
2, 21960, Note_off_c, 1, 77, 0
2, 21960, Note_on_c, 1, 79, 127
2, 22120, Note_off_c, 1, 71, 0
2, 22120, Note_off_c, 1, 76, 0
2, 22120, Note_off_c, 1, 79, 0
2, 22160, Note_off_c, 1, 38, 0
2, 22160, Note_off_c, 1, 50, 0
2, 22160, Note_on_c, 1, 55, 127
2, 22160, Note_on_c, 1, 64, 127
2, 22160, Note_on_c, 1, 72, 127
2, 22160, Note_on_c, 1, 81, 127
2, 22160, Note_on_c, 1, 84, 127
2, 22360, Note_off_c, 1, 55, 0
2, 22360, Note_off_c, 1, 64, 0
2, 22360, Note_off_c, 1, 72, 0
2, 22360, Note_off_c, 1, 81, 0
2, 22360, Note_off_c, 1, 84, 0
2, 22400, Note_on_c, 1, 55, 127
2, 22400, Note_on_c, 1, 64, 127
2, 22400, Note_on_c, 1, 72, 127
2, 22400, Note_on_c, 1, 81, 127
2, 22400, Note_on_c, 1, 84, 127
2, 22520, Note_off_c, 1, 81, 0
2, 22560, Note_on_c, 1, 43, 127
2, 22560, Note_on_c, 1, 48, 127
2, 22560, Note_on_c, 1, 52, 127
2, 22560, Note_off_c, 1, 55, 0
2, 22560, Note_on_c, 1, 76, 127
2, 22560, Note_off_c, 1, 84, 0
2, 22720, Note_off_c, 1, 48, 0
2, 22720, Note_off_c, 1, 52, 0
2, 22720, Note_off_c, 1, 64, 0
2, 22720, Note_off_c, 1, 72, 0
2, 22720, Note_off_c, 1, 76, 0
2, 22760, Note_on_c, 1, 48, 127
2, 22760, Note_on_c, 1, 52, 127
2, 22760, Note_on_c, 1, 64, 127
2, 22760, Note_on_c, 1, 72, 127
2, 22760, Note_on_c, 1, 76, 127
2, 23280, Note_off_c, 1, 48, 0
2, 23280, Note_off_c, 1, 52, 0
2, 23280, Note_off_c, 1, 64, 0
2, 23280, Note_off_c, 1, 72, 0
2, 23280, Note_off_c, 1, 76, 0
2, 23320, Note_on_c, 1, 51, 127
2, 23320, Note_on_c, 1, 60, 127
2, 23320, Note_on_c, 1, 71, 127
2, 23440, Note_off_c, 1, 43, 0
2, 23440, Note_off_c, 1, 51, 0
2, 23440, Note_off_c, 1, 60, 0
2, 23440, Note_off_c, 1, 71, 0
2, 23480, Note_on_c, 1, 59, 127
2, 23480, Note_on_c, 1, 81, 127
2, 23480, Note_on_c, 1, 86, 127
2, 23480, Note_on_c, 1, 89, 127
2, 23480, Note_on_c, 1, 93, 127
2, 24200, Note_off_c, 1, 59, 0
2, 24200, Note_off_c, 1, 81, 0
2, 24200, Note_off_c, 1, 86, 0
2, 24200, Note_off_c, 1, 89, 0
2, 24200, Note_off_c, 1, 93, 0
2, 24280, Note_on_c, 1, 32, 127
2, 24280, Note_on_c, 1, 36, 127
2, 24280, Note_on_c, 1, 44, 127
2, 24280, Note_on_c, 1, 68, 127
2, 24960, Note_off_c, 1, 32, 0
2, 24960, Note_off_c, 1, 36, 0
2, 24960, Note_off_c, 1, 44, 0
2, 24960, Note_off_c, 1, 68, 0
2, 25000, Note_on_c, 1, 32, 127
2, 25000, Note_on_c, 1, 36, 127
2, 25000, Note_on_c, 1, 44, 127
2, 25000, Note_on_c, 1, 72, 127
2, 25320, Note_off_c, 1, 32, 0
2, 25320, Note_off_c, 1, 36, 0
2, 25320, Note_off_c, 1, 44, 0
2, 25320, Note_off_c, 1, 72, 0
2, 25360, Note_on_c, 1, 32, 127
2, 25360, Note_on_c, 1, 36, 127
2, 25360, Note_on_c, 1, 44, 127
2, 25360, Note_on_c, 1, 72, 127
2, 25680, Note_off_c, 1, 32, 0
2, 25680, Note_off_c, 1, 36, 0
2, 25680, Note_off_c, 1, 44, 0
2, 25680, Note_off_c, 1, 72, 0
2, 25720, Note_on_c, 1, 36, 127
2, 25720, Note_on_c, 1, 39, 127
2, 25720, Note_on_c, 1, 48, 127
2, 25720, Note_on_c, 1, 72, 127
2, 26040, Note_off_c, 1, 36, 0
2, 26040, Note_off_c, 1, 39, 0
2, 26040, Note_off_c, 1, 48, 0
2, 26040, Note_off_c, 1, 72, 0
2, 26080, Note_on_c, 1, 45, 127
2, 26080, Note_on_c, 1, 57, 127
2, 26080, Note_on_c, 1, 65, 127
2, 26080, Note_on_c, 1, 72, 127
2, 26080, Note_on_c, 1, 77, 127
2, 26280, Note_off_c, 1, 45, 0
2, 26280, Note_off_c, 1, 57, 0
2, 26280, Note_off_c, 1, 65, 0
2, 26280, Note_off_c, 1, 72, 0
2, 26280, Note_off_c, 1, 77, 0
2, 26320, Note_on_c, 1, 45, 127
2, 26320, Note_on_c, 1, 57, 127
2, 26320, Note_on_c, 1, 65, 127
2, 26320, Note_on_c, 1, 72, 127
2, 26320, Note_on_c, 1, 77, 127
2, 26440, Note_off_c, 1, 45, 0
2, 26440, Note_off_c, 1, 57, 0
2, 26440, Note_off_c, 1, 65, 0
2, 26440, Note_off_c, 1, 72, 0
2, 26440, Note_off_c, 1, 77, 0
2, 26480, Note_on_c, 1, 55, 127
2, 26480, Note_on_c, 1, 62, 127
2, 26480, Note_on_c, 1, 65, 127
2, 26480, Note_on_c, 1, 74, 127
2, 26480, Note_on_c, 1, 77, 127
2, 26680, Note_on_c, 1, 60, 127
2, 26680, Note_off_c, 1, 62, 0
2, 26680, Note_on_c, 1, 64, 127
2, 26680, Note_off_c, 1, 65, 0
2, 26680, Note_on_c, 1, 72, 127
2, 26680, Note_off_c, 1, 74, 0
2, 26680, Note_on_c, 1, 76, 127
2, 26680, Note_off_c, 1, 77, 0
2, 26720, Note_off_c, 1, 60, 0
2, 26720, Note_on_c, 1, 62, 127
2, 26720, Note_off_c, 1, 64, 0
2, 26720, Note_on_c, 1, 65, 127
2, 26720, Note_off_c, 1, 72, 0
2, 26720, Note_on_c, 1, 74, 127
2, 26720, Note_off_c, 1, 76, 0
2, 26720, Note_on_c, 1, 77, 127
2, 26800, Note_off_c, 1, 62, 0
2, 26800, Note_off_c, 1, 65, 0
2, 26800, Note_off_c, 1, 74, 0
2, 26800, Note_off_c, 1, 77, 0
2, 26840, Note_on_c, 1, 60, 127
2, 26840, Note_on_c, 1, 64, 127
2, 26840, Note_on_c, 1, 74, 127
2, 27160, Note_off_c, 1, 55, 0
2, 27160, Note_off_c, 1, 60, 0
2, 27160, Note_off_c, 1, 64, 0
2, 27160, Note_off_c, 1, 74, 0
2, 27200, Note_on_c, 1, 55, 127
2, 27200, Note_on_c, 1, 60, 127
2, 27200, Note_on_c, 1, 64, 127
2, 27200, Note_on_c, 1, 74, 127
2, 27520, Note_off_c, 1, 55, 0
2, 27520, Note_off_c, 1, 60, 0
2, 27520, Note_off_c, 1, 64, 0
2, 27520, Note_off_c, 1, 74, 0
2, 27560, Note_on_c, 1, 48, 127
2, 27560, Note_on_c, 1, 55, 127
2, 27560, Note_on_c, 1, 60, 127
2, 27560, Note_on_c, 1, 64, 127
2, 27560, Note_on_c, 1, 76, 127
2, 28240, Note_off_c, 1, 48, 0
2, 28240, Note_off_c, 1, 55, 0
2, 28240, Note_off_c, 1, 60, 0
2, 28240, Note_off_c, 1, 64, 0
2, 28240, Note_off_c, 1, 76, 0
2, 28280, Note_on_c, 1, 37, 127
2, 28280, Note_on_c, 1, 58, 127
2, 28280, Note_on_c, 1, 65, 127
2, 28280, Note_on_c, 1, 68, 127
2, 28360, Note_off_c, 1, 37, 0
2, 28360, Note_off_c, 1, 58, 0
2, 28360, Note_off_c, 1, 65, 0
2, 28360, Note_off_c, 1, 68, 0
2, 28400, Note_on_c, 1, 37, 127
2, 28400, Note_on_c, 1, 58, 127
2, 28400, Note_on_c, 1, 65, 127
2, 28400, Note_on_c, 1, 68, 127
2, 28640, Note_off_c, 1, 37, 0
2, 28680, Note_on_c, 1, 48, 127
2, 28680, Note_off_c, 1, 58, 0
2, 28680, Note_off_c, 1, 65, 0
2, 28680, Note_off_c, 1, 68, 0
2, 28680, Note_on_c, 1, 76, 127
2, 28680, Note_on_c, 1, 82, 127
2, 28680, Note_on_c, 1, 84, 127
2, 28680, Note_on_c, 1, 88, 127
2, 28720, Note_off_c, 1, 48, 0
2, 28720, Note_on_c, 1, 65, 127
2, 28720, Note_off_c, 1, 76, 0
2, 28720, Note_on_c, 1, 77, 127
2, 28720, Note_off_c, 1, 82, 0
2, 28720, Note_on_c, 1, 87, 127
2, 28720, Note_off_c, 1, 88, 0
2, 28720, Note_on_c, 1, 89, 127
2, 28840, Note_on_c, 1, 32, 127
2, 28840, Note_on_c, 1, 44, 127
2, 28840, Note_on_c, 1, 63, 127
2, 28840, Note_on_c, 1, 68, 127
2, 28840, Note_on_c, 1, 72, 127
2, 28840, Note_off_c, 1, 77, 0
2, 28840, Note_off_c, 1, 84, 0
2, 28840, Note_off_c, 1, 87, 0
2, 28840, Note_off_c, 1, 89, 0
2, 28880, Note_on_c, 1, 31, 127
2, 28880, Note_off_c, 1, 32, 0
2, 28880, Note_on_c, 1, 43, 127
2, 28880, Note_off_c, 1, 44, 0
2, 28880, Note_on_c, 1, 53, 127
2, 28880, Note_on_c, 1, 59, 127
2, 28880, Note_on_c, 1, 61, 127
2, 28880, Note_off_c, 1, 63, 0
2, 28880, Note_off_c, 1, 65, 0
2, 28880, Note_on_c, 1, 67, 127
2, 28880, Note_off_c, 1, 68, 0
2, 28880, Note_off_c, 1, 72, 0
2, 29000, Note_off_c, 1, 31, 0
2, 29000, Note_off_c, 1, 43, 0
2, 29000, Note_off_c, 1, 53, 0
2, 29000, Note_off_c, 1, 59, 0
2, 29000, Note_off_c, 1, 61, 0
2, 29000, Note_off_c, 1, 67, 0
2, 29040, Note_on_c, 1, 41, 127
2, 29040, Note_on_c, 1, 48, 127
2, 29040, Note_on_c, 1, 58, 127
2, 29040, Note_on_c, 1, 67, 127
2, 29400, Note_off_c, 1, 58, 0
2, 29400, Note_off_c, 1, 67, 0
2, 29440, Note_on_c, 1, 26, 127
2, 29440, Note_on_c, 1, 38, 127
2, 29440, Note_off_c, 1, 41, 0
2, 29440, Note_off_c, 1, 48, 0
2, 29440, Note_on_c, 1, 78, 127
2, 29480, Note_off_c, 1, 26, 0
2, 29480, Note_off_c, 1, 38, 0
2, 29480, Note_on_c, 1, 47, 127
2, 29480, Note_on_c, 1, 52, 127
2, 29480, Note_on_c, 1, 55, 127
2, 29480, Note_on_c, 1, 59, 127
2, 29480, Note_on_c, 1, 64, 127
2, 29480, Note_on_c, 1, 71, 127
2, 29480, Note_off_c, 1, 78, 0
2, 29520, Note_on_c, 1, 26, 127
2, 29520, Note_on_c, 1, 38, 127
2, 29520, Note_off_c, 1, 47, 0
2, 29520, Note_off_c, 1, 52, 0
2, 29520, Note_off_c, 1, 55, 0
2, 29520, Note_off_c, 1, 59, 0
2, 29520, Note_off_c, 1, 64, 0
2, 29520, Note_off_c, 1, 71, 0
2, 29520, Note_on_c, 1, 78, 127
2, 29560, Note_off_c, 1, 26, 0
2, 29560, Note_on_c, 1, 31, 127
2, 29560, Note_off_c, 1, 38, 0
2, 29560, Note_on_c, 1, 43, 127
2, 29560, Note_on_c, 1, 51, 127
2, 29560, Note_off_c, 1, 78, 0
2, 29600, Note_on_c, 1, 26, 127
2, 29600, Note_off_c, 1, 31, 0
2, 29600, Note_on_c, 1, 38, 127
2, 29600, Note_off_c, 1, 43, 0
2, 29600, Note_off_c, 1, 51, 0
2, 29600, Note_on_c, 1, 78, 127
2, 29720, Note_off_c, 1, 78, 0
2, 29720, Note_on_c, 1, 81, 127
2, 29760, Note_off_c, 1, 26, 0
2, 29760, Note_off_c, 1, 38, 0
2, 29760, Note_on_c, 1, 60, 127
2, 29760, Note_off_c, 1, 81, 0
2, 29800, Note_on_c, 1, 44, 127
2, 29800, Note_on_c, 1, 56, 127
2, 29800, Note_off_c, 1, 60, 0
2, 29800, Note_on_c, 1, 63, 127
2, 29800, Note_on_c, 1, 76, 127
2, 30120, Note_off_c, 1, 44, 0
2, 30120, Note_off_c, 1, 56, 0
2, 30120, Note_off_c, 1, 63, 0
2, 30120, Note_off_c, 1, 76, 0
2, 30160, Note_on_c, 1, 55, 127
2, 30160, Note_on_c, 1, 62, 127
2, 30160, Note_on_c, 1, 71, 127
2, 30160, Note_on_c, 1, 78, 127
2, 30160, Note_on_c, 1, 86, 127
2, 30400, Note_off_c, 1, 55, 0
2, 30400, Note_off_c, 1, 62, 0
2, 30400, Note_off_c, 1, 71, 0
2, 30400, Note_off_c, 1, 78, 0
2, 30400, Note_off_c, 1, 86, 0
2, 30440, Note_on_c, 1, 55, 127
2, 30440, Note_on_c, 1, 62, 127
2, 30440, Note_on_c, 1, 71, 127
2, 30440, Note_on_c, 1, 78, 127
2, 30440, Note_on_c, 1, 86, 127
2, 30480, Note_on_c, 1, 31, 127
2, 30480, Note_on_c, 1, 43, 127
2, 30480, Note_on_c, 1, 48, 127
2, 30480, Note_on_c, 1, 52, 127
2, 30480, Note_on_c, 1, 58, 127
2, 30480, Note_on_c, 1, 60, 127
2, 30480, Note_off_c, 1, 62, 0
2, 30480, Note_on_c, 1, 64, 127
2, 30480, Note_on_c, 1, 70, 127
2, 30480, Note_off_c, 1, 71, 0
2, 30480, Note_on_c, 1, 72, 127
2, 30480, Note_off_c, 1, 78, 0
2, 30480, Note_off_c, 1, 86, 0
2, 30520, Note_off_c, 1, 31, 0
2, 30520, Note_off_c, 1, 43, 0
2, 30520, Note_off_c, 1, 48, 0
2, 30520, Note_off_c, 1, 52, 0
2, 30520, Note_off_c, 1, 55, 0
2, 30520, Note_off_c, 1, 58, 0
2, 30520, Note_off_c, 1, 60, 0
2, 30520, Note_off_c, 1, 64, 0
2, 30520, Note_off_c, 1, 70, 0
2, 30520, Note_off_c, 1, 72, 0
2, 30560, Note_on_c, 1, 31, 127
2, 30560, Note_on_c, 1, 43, 127
2, 30560, Note_on_c, 1, 74, 127
2, 30560, Note_on_c, 1, 79, 127
2, 30560, Note_on_c, 1, 83, 127
2, 30560, Note_on_c, 1, 86, 127
2, 30880, Note_off_c, 1, 31, 0
2, 30880, Note_off_c, 1, 43, 0
2, 30880, Note_off_c, 1, 74, 0
2, 30880, Note_off_c, 1, 79, 0
2, 30880, Note_off_c, 1, 83, 0
2, 30880, Note_off_c, 1, 86, 0
2, 30920, Note_on_c, 1, 56, 127
2, 30920, Note_on_c, 1, 60, 127
2, 30920, Note_on_c, 1, 63, 127
2, 30920, Note_on_c, 1, 80, 127
2, 30920, Note_on_c, 1, 92, 127
2, 31240, Note_off_c, 1, 56, 0
2, 31240, Note_off_c, 1, 60, 0
2, 31240, Note_off_c, 1, 63, 0
2, 31240, Note_off_c, 1, 80, 0
2, 31240, Note_off_c, 1, 92, 0
2, 31280, Note_on_c, 1, 44, 127
2, 31280, Note_on_c, 1, 50, 127
2, 31280, Note_on_c, 1, 54, 127
2, 31280, Note_on_c, 1, 69, 127
2, 31280, Note_on_c, 1, 74, 127
2, 31280, Note_on_c, 1, 78, 127
2, 31280, Note_on_c, 1, 81, 127
2, 31600, Note_off_c, 1, 44, 0
2, 31600, Note_off_c, 1, 50, 0
2, 31600, Note_off_c, 1, 54, 0
2, 31600, Note_off_c, 1, 69, 0
2, 31600, Note_off_c, 1, 74, 0
2, 31600, Note_off_c, 1, 78, 0
2, 31600, Note_off_c, 1, 81, 0
2, 31640, Note_on_c, 1, 44, 127
2, 31640, Note_on_c, 1, 50, 127
2, 31640, Note_on_c, 1, 54, 127
2, 31640, Note_on_c, 1, 69, 127
2, 31640, Note_on_c, 1, 74, 127
2, 31640, Note_on_c, 1, 78, 127
2, 31640, Note_on_c, 1, 81, 127
2, 31920, Note_off_c, 1, 44, 0
2, 31960, Note_off_c, 1, 50, 0
2, 31960, Note_off_c, 1, 54, 0
2, 31960, Note_off_c, 1, 69, 0
2, 31960, Note_off_c, 1, 74, 0
2, 31960, Note_off_c, 1, 78, 0
2, 31960, Note_off_c, 1, 81, 0
2, 32000, Note_on_c, 1, 44, 127
2, 32000, Note_on_c, 1, 50, 127
2, 32000, Note_on_c, 1, 54, 127
2, 32000, Note_on_c, 1, 69, 127
2, 32000, Note_on_c, 1, 74, 127
2, 32000, Note_on_c, 1, 78, 127
2, 32000, Note_on_c, 1, 81, 127
2, 32320, Note_off_c, 1, 44, 0
2, 32360, Note_on_c, 1, 44, 127
2, 32480, Note_off_c, 1, 44, 0
2, 32480, Note_off_c, 1, 50, 0
2, 32480, Note_off_c, 1, 54, 0
2, 32480, Note_off_c, 1, 69, 0
2, 32480, Note_off_c, 1, 74, 0
2, 32480, Note_off_c, 1, 78, 0
2, 32480, Note_off_c, 1, 81, 0
2, 32520, Note_on_c, 1, 44, 127
2, 32520, Note_on_c, 1, 50, 127
2, 32520, Note_on_c, 1, 54, 127
2, 32520, Note_on_c, 1, 69, 127
2, 32520, Note_on_c, 1, 74, 127
2, 32520, Note_on_c, 1, 78, 127
2, 32520, Note_on_c, 1, 81, 127
2, 32680, Note_off_c, 1, 44, 0
2, 32760, Note_on_c, 1, 44, 127
2, 33080, Note_off_c, 1, 44, 0
2, 33080, Note_off_c, 1, 50, 0
2, 33080, Note_off_c, 1, 54, 0
2, 33080, Note_off_c, 1, 69, 0
2, 33080, Note_off_c, 1, 74, 0
2, 33080, Note_off_c, 1, 78, 0
2, 33080, Note_off_c, 1, 81, 0
2, 33120, Note_on_c, 1, 44, 127
2, 33120, Note_on_c, 1, 50, 127
2, 33120, Note_on_c, 1, 54, 127
2, 33120, Note_on_c, 1, 69, 127
2, 33120, Note_on_c, 1, 74, 127
2, 33120, Note_on_c, 1, 78, 127
2, 33120, Note_on_c, 1, 81, 127
2, 33440, Note_off_c, 1, 44, 0
2, 33480, Note_on_c, 1, 44, 127
2, 33760, Note_off_c, 1, 44, 0
2, 33800, Note_off_c, 1, 50, 0
2, 33800, Note_off_c, 1, 54, 0
2, 33800, Note_off_c, 1, 69, 0
2, 33800, Note_off_c, 1, 74, 0
2, 33800, Note_off_c, 1, 78, 0
2, 33800, Note_off_c, 1, 81, 0
2, 33840, Note_on_c, 1, 67, 127
2, 33840, Note_on_c, 1, 70, 127
2, 33840, Note_on_c, 1, 73, 127
2, 33840, Note_on_c, 1, 75, 127
2, 33840, Note_on_c, 1, 83, 127
2, 34160, Note_off_c, 1, 67, 0
2, 34160, Note_off_c, 1, 70, 0
2, 34160, Note_off_c, 1, 73, 0
2, 34160, Note_off_c, 1, 75, 0
2, 34160, Note_off_c, 1, 83, 0
2, 34200, Note_on_c, 1, 35, 127
2, 34200, Note_on_c, 1, 47, 127
2, 34200, Note_on_c, 1, 83, 127
2, 34200, Note_on_c, 1, 88, 127
2, 34200, Note_on_c, 1, 95, 127
2, 34240, Note_off_c, 1, 35, 0
2, 34240, Note_on_c, 1, 42, 127
2, 34240, Note_off_c, 1, 47, 0
2, 34240, Note_on_c, 1, 53, 127
2, 34240, Note_on_c, 1, 58, 127
2, 34240, Note_on_c, 1, 61, 127
2, 34240, Note_on_c, 1, 68, 127
2, 34240, Note_on_c, 1, 73, 127
2, 34240, Note_off_c, 1, 83, 0
2, 34240, Note_off_c, 1, 88, 0
2, 34240, Note_off_c, 1, 95, 0
2, 34280, Note_off_c, 1, 42, 0
2, 34280, Note_on_c, 1, 47, 127
2, 34280, Note_off_c, 1, 53, 0
2, 34280, Note_on_c, 1, 56, 127
2, 34280, Note_off_c, 1, 58, 0
2, 34280, Note_on_c, 1, 59, 127
2, 34280, Note_off_c, 1, 61, 0
2, 34280, Note_on_c, 1, 64, 127
2, 34280, Note_off_c, 1, 68, 0
2, 34280, Note_on_c, 1, 71, 127
2, 34280, Note_off_c, 1, 73, 0
2, 34400, Note_on_c, 1, 40, 127
2, 34400, Note_off_c, 1, 47, 0
2, 34400, Note_on_c, 1, 55, 127
2, 34400, Note_off_c, 1, 56, 0
2, 34400, Note_off_c, 1, 59, 0
2, 34400, Note_off_c, 1, 64, 0
2, 34400, Note_on_c, 1, 79, 127
2, 34440, Note_off_c, 1, 40, 0
2, 34440, Note_off_c, 1, 55, 0
2, 34440, Note_off_c, 1, 71, 0
2, 34440, Note_off_c, 1, 79, 0
2, 34480, Note_on_c, 1, 47, 127
2, 34480, Note_on_c, 1, 56, 127
2, 34480, Note_on_c, 1, 59, 127
2, 34520, Note_on_c, 1, 33, 127
2, 34520, Note_on_c, 1, 42, 127
2, 34520, Note_on_c, 1, 45, 127
2, 34520, Note_off_c, 1, 47, 0
2, 34520, Note_on_c, 1, 54, 127
2, 34520, Note_off_c, 1, 56, 0
2, 34520, Note_off_c, 1, 59, 0
2, 34520, Note_on_c, 1, 60, 127
2, 34520, Note_on_c, 1, 63, 127
2, 34560, Note_off_c, 1, 33, 0
2, 34560, Note_off_c, 1, 42, 0
2, 34560, Note_on_c, 1, 44, 127
2, 34560, Note_off_c, 1, 45, 0
2, 34560, Note_on_c, 1, 48, 127
2, 34560, Note_off_c, 1, 54, 0
2, 34560, Note_off_c, 1, 60, 0
2, 34560, Note_off_c, 1, 63, 0
2, 34560, Note_on_c, 1, 72, 127
2, 34560, Note_on_c, 1, 74, 127
2, 34560, Note_on_c, 1, 84, 127
2, 34600, Note_on_c, 1, 32, 127
2, 34600, Note_on_c, 1, 37, 127
2, 34600, Note_off_c, 1, 48, 0
2, 34600, Note_on_c, 1, 61, 127
2, 34600, Note_off_c, 1, 72, 0
2, 34600, Note_off_c, 1, 74, 0
2, 34600, Note_off_c, 1, 84, 0
2, 34640, Note_off_c, 1, 32, 0
2, 34640, Note_off_c, 1, 37, 0
2, 34640, Note_off_c, 1, 44, 0
2, 34640, Note_off_c, 1, 61, 0
2, 34640, Note_on_c, 1, 64, 127
2, 34640, Note_on_c, 1, 69, 127
2, 34640, Note_on_c, 1, 72, 127
2, 34640, Note_on_c, 1, 77, 127
2, 34640, Note_on_c, 1, 84, 127
2, 34680, Note_on_c, 1, 46, 127
2, 34680, Note_on_c, 1, 48, 127
2, 34680, Note_on_c, 1, 51, 127
2, 34680, Note_on_c, 1, 58, 127
2, 34680, Note_off_c, 1, 64, 0
2, 34680, Note_off_c, 1, 69, 0
2, 34680, Note_off_c, 1, 72, 0
2, 34680, Note_off_c, 1, 77, 0
2, 34680, Note_off_c, 1, 84, 0
2, 34720, Note_on_c, 1, 31, 127
2, 34720, Note_off_c, 1, 46, 0
2, 34720, Note_off_c, 1, 48, 0
2, 34720, Note_on_c, 1, 50, 127
2, 34720, Note_off_c, 1, 51, 0
2, 34720, Note_off_c, 1, 58, 0
2, 34720, Note_on_c, 1, 77, 127
2, 34720, Note_on_c, 1, 80, 127
2, 34720, Note_on_c, 1, 86, 127
2, 34760, Note_off_c, 1, 31, 0
2, 34760, Note_off_c, 1, 50, 0
2, 34760, Note_off_c, 1, 77, 0
2, 34760, Note_off_c, 1, 80, 0
2, 34760, Note_off_c, 1, 86, 0
2, 34800, Note_on_c, 1, 48, 127
2, 34800, Note_on_c, 1, 53, 127
2, 34800, Note_on_c, 1, 55, 127
2, 34800, Note_on_c, 1, 59, 127
2, 34800, Note_on_c, 1, 81, 127
2, 34840, Note_on_c, 1, 34, 127
2, 34840, Note_on_c, 1, 46, 127
2, 34840, Note_off_c, 1, 48, 0
2, 34840, Note_off_c, 1, 53, 0
2, 34840, Note_off_c, 1, 55, 0
2, 34840, Note_off_c, 1, 59, 0
2, 34840, Note_on_c, 1, 74, 127
2, 34840, Note_on_c, 1, 77, 127
2, 34840, Note_off_c, 1, 81, 0
2, 34840, Note_on_c, 1, 82, 127
2, 34880, Note_off_c, 1, 34, 0
2, 34880, Note_off_c, 1, 46, 0
2, 34880, Note_on_c, 1, 55, 127
2, 34880, Note_on_c, 1, 59, 127
2, 34880, Note_on_c, 1, 61, 127
2, 34880, Note_on_c, 1, 64, 127
2, 34880, Note_on_c, 1, 67, 127
2, 34880, Note_on_c, 1, 71, 127
2, 34880, Note_on_c, 1, 73, 127
2, 34880, Note_off_c, 1, 74, 0
2, 34880, Note_on_c, 1, 76, 127
2, 34880, Note_off_c, 1, 77, 0
2, 34880, Note_off_c, 1, 82, 0
2, 34880, Note_on_c, 1, 83, 127
2, 34920, Note_off_c, 1, 55, 0
2, 34920, Note_off_c, 1, 59, 0
2, 34920, Note_off_c, 1, 61, 0
2, 34920, Note_off_c, 1, 64, 0
2, 34920, Note_off_c, 1, 67, 0
2, 34920, Note_off_c, 1, 71, 0
2, 34920, Note_off_c, 1, 73, 0
2, 34920, Note_off_c, 1, 76, 0
2, 34920, Note_off_c, 1, 83, 0
2, 34960, Note_on_c, 1, 61, 127
2, 34960, Note_on_c, 1, 70, 127
2, 34960, Note_on_c, 1, 75, 127
2, 34960, Note_on_c, 1, 85, 127
2, 35000, Note_on_c, 1, 41, 127
2, 35000, Note_on_c, 1, 48, 127
2, 35000, Note_off_c, 1, 61, 0
2, 35000, Note_on_c, 1, 74, 127
2, 35000, Note_off_c, 1, 75, 0
2, 35000, Note_off_c, 1, 85, 0
2, 35040, Note_on_c, 1, 38, 127
2, 35040, Note_off_c, 1, 41, 0
2, 35040, Note_off_c, 1, 48, 0
2, 35040, Note_on_c, 1, 50, 127
2, 35040, Note_off_c, 1, 70, 0
2, 35040, Note_off_c, 1, 74, 0
2, 35040, Note_on_c, 1, 81, 127
2, 35040, Note_on_c, 1, 86, 127
2, 35040, Note_on_c, 1, 89, 127
2, 35040, Note_on_c, 1, 93, 127
2, 35080, Note_off_c, 1, 38, 0
2, 35080, Note_on_c, 1, 42, 127
2, 35080, Note_off_c, 1, 50, 0
2, 35080, Note_on_c, 1, 54, 127
2, 35080, Note_off_c, 1, 81, 0
2, 35080, Note_off_c, 1, 86, 0
2, 35080, Note_off_c, 1, 89, 0
2, 35080, Note_on_c, 1, 90, 127
2, 35080, Note_off_c, 1, 93, 0
2, 35080, Note_on_c, 1, 94, 127
2, 35080, Note_on_c, 1, 97, 127
2, 35120, Note_off_c, 1, 42, 0
2, 35120, Note_on_c, 1, 46, 127
2, 35120, Note_off_c, 1, 54, 0
2, 35120, Note_on_c, 1, 85, 127
2, 35120, Note_off_c, 1, 90, 0
2, 35160, Note_on_c, 1, 40, 127
2, 35160, Note_off_c, 1, 46, 0
2, 35160, Note_on_c, 1, 52, 127
2, 35160, Note_on_c, 1, 72, 127
2, 35160, Note_on_c, 1, 79, 127
2, 35160, Note_on_c, 1, 83, 127
2, 35160, Note_off_c, 1, 85, 0
2, 35160, Note_off_c, 1, 94, 0
2, 35160, Note_off_c, 1, 97, 0
2, 35200, Note_on_c, 1, 48, 127
2, 35200, Note_off_c, 1, 52, 0
2, 35200, Note_on_c, 1, 56, 127
2, 35200, Note_on_c, 1, 68, 127
2, 35200, Note_off_c, 1, 72, 0
2, 35200, Note_off_c, 1, 79, 0
2, 35200, Note_off_c, 1, 83, 0
2, 35240, Note_off_c, 1, 48, 0
2, 35240, Note_on_c, 1, 52, 127
2, 35240, Note_off_c, 1, 56, 0
2, 35240, Note_off_c, 1, 68, 0
2, 35240, Note_on_c, 1, 72, 127
2, 35240, Note_on_c, 1, 79, 127
2, 35240, Note_on_c, 1, 83, 127
2, 35280, Note_off_c, 1, 40, 0
2, 35280, Note_off_c, 1, 52, 0
2, 35280, Note_off_c, 1, 72, 0
2, 35280, Note_off_c, 1, 79, 0
2, 35280, Note_off_c, 1, 83, 0
2, 35320, Note_on_c, 1, 48, 127
2, 35320, Note_on_c, 1, 53, 127
2, 35320, Note_on_c, 1, 60, 127
2, 35320, Note_on_c, 1, 79, 127
2, 35320, Note_on_c, 1, 89, 127
2, 35320, Note_on_c, 1, 91, 127
2, 35640, Note_off_c, 1, 48, 0
2, 35640, Note_off_c, 1, 53, 0
2, 35640, Note_on_c, 1, 59, 127
2, 35640, Note_off_c, 1, 60, 0
2, 35640, Note_off_c, 1, 79, 0
2, 35640, Note_off_c, 1, 89, 0
2, 35640, Note_off_c, 1, 91, 0
2, 35680, Note_on_c, 1, 36, 127
2, 35680, Note_on_c, 1, 53, 127
2, 35680, Note_on_c, 1, 57, 127
2, 35720, Note_off_c, 1, 36, 0
2, 35720, Note_on_c, 1, 44, 127
2, 35720, Note_on_c, 1, 48, 127
2, 35720, Note_on_c, 1, 49, 127
2, 35720, Note_off_c, 1, 53, 0
2, 35720, Note_on_c, 1, 56, 127
2, 35720, Note_off_c, 1, 57, 0
2, 35720, Note_off_c, 1, 59, 0
2, 35720, Note_on_c, 1, 63, 127
2, 35760, Note_on_c, 1, 35, 127
2, 35760, Note_on_c, 1, 38, 127
2, 35760, Note_on_c, 1, 42, 127
2, 35760, Note_off_c, 1, 44, 0
2, 35760, Note_on_c, 1, 47, 127
2, 35760, Note_off_c, 1, 48, 0
2, 35760, Note_off_c, 1, 49, 0
2, 35760, Note_off_c, 1, 56, 0
2, 35760, Note_off_c, 1, 63, 0
2, 35760, Note_on_c, 1, 83, 127
2, 35760, Note_on_c, 1, 86, 127
2, 35760, Note_on_c, 1, 90, 127
2, 35760, Note_on_c, 1, 95, 127
2, 35800, Note_off_c, 1, 35, 0
2, 35800, Note_off_c, 1, 38, 0
2, 35800, Note_off_c, 1, 42, 0
2, 35800, Note_off_c, 1, 47, 0
2, 35800, Note_on_c, 1, 59, 127
2, 35800, Note_off_c, 1, 83, 0
2, 35800, Note_off_c, 1, 86, 0
2, 35800, Note_on_c, 1, 93, 127
2, 35800, Note_off_c, 1, 95, 0
2, 35840, Note_on_c, 1, 47, 127
2, 35840, Note_on_c, 1, 55, 127
2, 35840, Note_off_c, 1, 59, 0
2, 35840, Note_on_c, 1, 64, 127
2, 35840, Note_on_c, 1, 71, 127
2, 35840, Note_off_c, 1, 90, 0
2, 35840, Note_off_c, 1, 93, 0
2, 35880, Note_on_c, 1, 34, 127
2, 35880, Note_on_c, 1, 46, 127
2, 35880, Note_off_c, 1, 47, 0
2, 35880, Note_on_c, 1, 52, 127
2, 35880, Note_off_c, 1, 55, 0
2, 35880, Note_off_c, 1, 71, 0
2, 35880, Note_on_c, 1, 74, 127
2, 35880, Note_on_c, 1, 82, 127
2, 35880, Note_on_c, 1, 86, 127
2, 35920, Note_off_c, 1, 34, 0
2, 35920, Note_on_c, 1, 35, 127
2, 35920, Note_off_c, 1, 46, 0
2, 35920, Note_off_c, 1, 52, 0
2, 35920, Note_off_c, 1, 64, 0
2, 35920, Note_off_c, 1, 74, 0
2, 35920, Note_off_c, 1, 82, 0
2, 35920, Note_off_c, 1, 86, 0
2, 35960, Note_off_c, 1, 35, 0
2, 35960, Note_on_c, 1, 58, 127
2, 35960, Note_on_c, 1, 60, 127
2, 35960, Note_on_c, 1, 63, 127
2, 35960, Note_on_c, 1, 67, 127
2, 35960, Note_on_c, 1, 72, 127
2, 36000, Note_off_c, 1, 58, 0
2, 36000, Note_off_c, 1, 60, 0
2, 36000, Note_off_c, 1, 63, 0
2, 36000, Note_off_c, 1, 67, 0
2, 36000, Note_off_c, 1, 72, 0
2, 36040, Note_on_c, 1, 37, 127
2, 36040, Note_on_c, 1, 49, 127
2, 36040, Note_on_c, 1, 73, 127
2, 36040, Note_on_c, 1, 81, 127
2, 36080, Note_off_c, 1, 37, 0
2, 36080, Note_off_c, 1, 49, 0
2, 36080, Note_off_c, 1, 73, 0
2, 36080, Note_on_c, 1, 74, 127
2, 36080, Note_on_c, 1, 80, 127
2, 36080, Note_off_c, 1, 81, 0
2, 36080, Note_on_c, 1, 100, 127
2, 36120, Note_on_c, 1, 37, 127
2, 36120, Note_on_c, 1, 44, 127
2, 36120, Note_off_c, 1, 74, 0
2, 36120, Note_on_c, 1, 89, 127
2, 36120, Note_on_c, 1, 92, 127
2, 36120, Note_off_c, 1, 100, 0
2, 36160, Note_off_c, 1, 37, 0
2, 36160, Note_off_c, 1, 44, 0
2, 36160, Note_on_c, 1, 61, 127
2, 36160, Note_on_c, 1, 62, 127
2, 36160, Note_on_c, 1, 67, 127
2, 36160, Note_on_c, 1, 70, 127
2, 36160, Note_on_c, 1, 71, 127
2, 36160, Note_on_c, 1, 73, 127
2, 36160, Note_on_c, 1, 74, 127
2, 36160, Note_off_c, 1, 80, 0
2, 36160, Note_off_c, 1, 89, 0
2, 36160, Note_off_c, 1, 92, 0
2, 36200, Note_on_c, 1, 58, 127
2, 36200, Note_off_c, 1, 62, 0
2, 36200, Note_on_c, 1, 66, 127
2, 36200, Note_off_c, 1, 67, 0
2, 36200, Note_off_c, 1, 70, 0
2, 36200, Note_off_c, 1, 71, 0
2, 36200, Note_off_c, 1, 73, 0
2, 36200, Note_off_c, 1, 74, 0
2, 36200, Note_on_c, 1, 76, 127
2, 36200, Note_on_c, 1, 88, 127
2, 36240, Note_on_c, 1, 37, 127
2, 36240, Note_on_c, 1, 49, 127
2, 36240, Note_off_c, 1, 58, 0
2, 36240, Note_on_c, 1, 59, 127
2, 36240, Note_off_c, 1, 61, 0
2, 36240, Note_off_c, 1, 66, 0
2, 36240, Note_on_c, 1, 71, 127
2, 36240, Note_off_c, 1, 76, 0
2, 36240, Note_on_c, 1, 81, 127
2, 36240, Note_off_c, 1, 88, 0
2, 36240, Note_on_c, 1, 93, 127
2, 36280, Note_off_c, 1, 37, 0
2, 36280, Note_on_c, 1, 47, 127
2, 36280, Note_off_c, 1, 49, 0
2, 36280, Note_on_c, 1, 51, 127
2, 36280, Note_on_c, 1, 54, 127
2, 36280, Note_on_c, 1, 57, 127
2, 36280, Note_off_c, 1, 59, 0
2, 36280, Note_off_c, 1, 71, 0
2, 36280, Note_off_c, 1, 81, 0
2, 36280, Note_on_c, 1, 83, 127
2, 36280, Note_off_c, 1, 93, 0
2, 36320, Note_off_c, 1, 47, 0
2, 36320, Note_off_c, 1, 51, 0
2, 36320, Note_off_c, 1, 54, 0
2, 36320, Note_off_c, 1, 57, 0
2, 36320, Note_on_c, 1, 58, 127
2, 36320, Note_on_c, 1, 61, 127
2, 36320, Note_on_c, 1, 66, 127
2, 36320, Note_on_c, 1, 76, 127
2, 36320, Note_off_c, 1, 83, 0
2, 36320, Note_on_c, 1, 88, 127
2, 36360, Note_off_c, 1, 58, 0
2, 36360, Note_off_c, 1, 61, 0
2, 36360, Note_off_c, 1, 66, 0
2, 36360, Note_on_c, 1, 74, 127
2, 36360, Note_off_c, 1, 76, 0
2, 36360, Note_on_c, 1, 81, 127
2, 36360, Note_off_c, 1, 88, 0
2, 36360, Note_on_c, 1, 93, 127
2, 36400, Note_on_c, 1, 28, 127
2, 36400, Note_on_c, 1, 40, 127
2, 36400, Note_on_c, 1, 59, 127
2, 36400, Note_on_c, 1, 64, 127
2, 36400, Note_on_c, 1, 66, 127
2, 36400, Note_on_c, 1, 71, 127
2, 36400, Note_off_c, 1, 74, 0
2, 36400, Note_off_c, 1, 81, 0
2, 36400, Note_on_c, 1, 88, 127
2, 36400, Note_on_c, 1, 90, 127
2, 36400, Note_off_c, 1, 93, 0
2, 36520, Note_off_c, 1, 28, 0
2, 36520, Note_off_c, 1, 40, 0
2, 36520, Note_off_c, 1, 59, 0
2, 36520, Note_off_c, 1, 64, 0
2, 36520, Note_off_c, 1, 66, 0
2, 36520, Note_off_c, 1, 71, 0
2, 36520, Note_off_c, 1, 88, 0
2, 36520, Note_off_c, 1, 90, 0
2, 36560, Note_on_c, 1, 28, 127
2, 36560, Note_on_c, 1, 40, 127
2, 36560, Note_on_c, 1, 59, 127
2, 36560, Note_on_c, 1, 64, 127
2, 36560, Note_on_c, 1, 66, 127
2, 36560, Note_on_c, 1, 71, 127
2, 36560, Note_on_c, 1, 81, 127
2, 36560, Note_on_c, 1, 95, 127
2, 36640, Note_off_c, 1, 81, 0
2, 36640, Note_on_c, 1, 88, 127
2, 36640, Note_on_c, 1, 90, 127
2, 36640, Note_off_c, 1, 95, 0
2, 36680, Note_on_c, 1, 81, 127
2, 36680, Note_off_c, 1, 88, 0
2, 36680, Note_off_c, 1, 90, 0
2, 36680, Note_on_c, 1, 95, 127
2, 36760, Note_off_c, 1, 59, 0
2, 36760, Note_off_c, 1, 64, 0
2, 36760, Note_off_c, 1, 66, 0
2, 36760, Note_off_c, 1, 71, 0
2, 36760, Note_off_c, 1, 81, 0
2, 36760, Note_off_c, 1, 95, 0
2, 36800, Note_on_c, 1, 59, 127
2, 36800, Note_on_c, 1, 64, 127
2, 36800, Note_on_c, 1, 66, 127
2, 36800, Note_on_c, 1, 71, 127
2, 36800, Note_on_c, 1, 88, 127
2, 36800, Note_on_c, 1, 90, 127
2, 37120, Note_off_c, 1, 28, 0
2, 37120, Note_off_c, 1, 40, 0
2, 37120, Note_off_c, 1, 59, 0
2, 37120, Note_off_c, 1, 64, 0
2, 37120, Note_off_c, 1, 66, 0
2, 37120, Note_off_c, 1, 71, 0
2, 37120, Note_off_c, 1, 88, 0
2, 37120, Note_off_c, 1, 90, 0
2, 37160, Note_on_c, 1, 29, 127
2, 37160, Note_on_c, 1, 41, 127
2, 37160, Note_on_c, 1, 73, 127
2, 37160, Note_on_c, 1, 77, 127
2, 37160, Note_on_c, 1, 85, 127
2, 37480, Note_off_c, 1, 29, 0
2, 37480, Note_off_c, 1, 41, 0
2, 37480, Note_off_c, 1, 73, 0
2, 37480, Note_off_c, 1, 77, 0
2, 37480, Note_off_c, 1, 85, 0
2, 37520, Note_on_c, 1, 70, 127
2, 37520, Note_on_c, 1, 73, 127
2, 37520, Note_on_c, 1, 78, 127
2, 37520, Note_on_c, 1, 85, 127
2, 37840, Note_off_c, 1, 70, 0
2, 37840, Note_off_c, 1, 73, 0
2, 37840, Note_off_c, 1, 78, 0
2, 37840, Note_off_c, 1, 85, 0
2, 37880, Note_on_c, 1, 48, 127
2, 37880, Note_on_c, 1, 53, 127
2, 37880, Note_on_c, 1, 63, 127
2, 37880, Note_on_c, 1, 90, 127
2, 37920, Note_on_c, 1, 76, 127
2, 37920, Note_off_c, 1, 90, 0
2, 37960, Note_off_c, 1, 48, 0
2, 37960, Note_off_c, 1, 53, 0
2, 37960, Note_off_c, 1, 63, 0
2, 37960, Note_on_c, 1, 68, 127
2, 37960, Note_off_c, 1, 76, 0
2, 37960, Note_on_c, 1, 90, 127
2, 37960, Note_on_c, 1, 92, 127
2, 37960, Note_on_c, 1, 95, 127
2, 37960, Note_on_c, 1, 98, 127
2, 37960, Note_on_c, 1, 102, 127
2, 38000, Note_on_c, 1, 48, 127
2, 38000, Note_on_c, 1, 53, 127
2, 38000, Note_on_c, 1, 63, 127
2, 38000, Note_off_c, 1, 68, 0
2, 38000, Note_off_c, 1, 90, 0
2, 38000, Note_off_c, 1, 92, 0
2, 38000, Note_off_c, 1, 95, 0
2, 38000, Note_off_c, 1, 98, 0
2, 38000, Note_off_c, 1, 102, 0
2, 38040, Note_on_c, 1, 32, 127
2, 38040, Note_on_c, 1, 44, 127
2, 38040, Note_off_c, 1, 48, 0
2, 38040, Note_off_c, 1, 53, 0
2, 38040, Note_on_c, 1, 68, 127
2, 38040, Note_on_c, 1, 73, 127
2, 38200, Note_off_c, 1, 32, 0
2, 38200, Note_off_c, 1, 44, 0
2, 38200, Note_off_c, 1, 63, 0
2, 38200, Note_off_c, 1, 68, 0
2, 38200, Note_off_c, 1, 73, 0
2, 38240, Note_on_c, 1, 33, 127
2, 38240, Note_on_c, 1, 45, 127
2, 38240, Note_on_c, 1, 55, 127
2, 38240, Note_on_c, 1, 61, 127
2, 38240, Note_on_c, 1, 67, 127
2, 38520, Note_off_c, 1, 33, 0
2, 38520, Note_off_c, 1, 45, 0
2, 38520, Note_off_c, 1, 55, 0
2, 38520, Note_off_c, 1, 61, 0
2, 38520, Note_off_c, 1, 67, 0
2, 38560, Note_on_c, 1, 31, 127
2, 38560, Note_on_c, 1, 43, 127
2, 38600, Note_off_c, 1, 31, 0
2, 38600, Note_on_c, 1, 37, 127
2, 38600, Note_off_c, 1, 43, 0
2, 38600, Note_on_c, 1, 49, 127
2, 38600, Note_on_c, 1, 56, 127
2, 38600, Note_on_c, 1, 61, 127
2, 38600, Note_on_c, 1, 65, 127
2, 39280, Note_off_c, 1, 37, 0
2, 39280, Note_off_c, 1, 49, 0
2, 39280, Note_off_c, 1, 56, 0
2, 39280, Note_off_c, 1, 61, 0
2, 39280, Note_off_c, 1, 65, 0
2, 39320, Note_on_c, 1, 53, 127
2, 39320, Note_on_c, 1, 57, 127
2, 39320, Note_on_c, 1, 62, 127
2, 39320, Note_on_c, 1, 65, 127
2, 39320, Note_on_c, 1, 81, 127
2, 39320, Note_on_c, 1, 86, 127
2, 39360, Note_on_c, 1, 39, 127
2, 39360, Note_on_c, 1, 51, 127
2, 39360, Note_off_c, 1, 53, 0
2, 39360, Note_off_c, 1, 57, 0
2, 39360, Note_off_c, 1, 62, 0
2, 39360, Note_off_c, 1, 65, 0
2, 39360, Note_on_c, 1, 79, 127
2, 39360, Note_off_c, 1, 81, 0
2, 39360, Note_on_c, 1, 85, 127
2, 39360, Note_off_c, 1, 86, 0
2, 39360, Note_on_c, 1, 91, 127
2, 39400, Note_off_c, 1, 39, 0
2, 39400, Note_off_c, 1, 51, 0
2, 39400, Note_on_c, 1, 62, 127
2, 39400, Note_off_c, 1, 79, 0
2, 39400, Note_off_c, 1, 85, 0
2, 39400, Note_on_c, 1, 103, 127
2, 39440, Note_on_c, 1, 36, 127
2, 39440, Note_on_c, 1, 48, 127
2, 39440, Note_off_c, 1, 62, 0
2, 39440, Note_on_c, 1, 70, 127
2, 39440, Note_on_c, 1, 77, 127
2, 39440, Note_on_c, 1, 81, 127
2, 39440, Note_off_c, 1, 91, 0
2, 39440, Note_off_c, 1, 103, 0
2, 39480, Note_off_c, 1, 36, 0
2, 39480, Note_on_c, 1, 46, 127
2, 39480, Note_off_c, 1, 48, 0
2, 39480, Note_on_c, 1, 58, 127
2, 39480, Note_off_c, 1, 70, 0
2, 39480, Note_off_c, 1, 77, 0
2, 39480, Note_on_c, 1, 79, 127
2, 39480, Note_off_c, 1, 81, 0
2, 39480, Note_on_c, 1, 85, 127
2, 39480, Note_on_c, 1, 87, 127
2, 39480, Note_on_c, 1, 91, 127
2, 39520, Note_on_c, 1, 39, 127
2, 39520, Note_off_c, 1, 46, 0
2, 39520, Note_on_c, 1, 51, 127
2, 39520, Note_off_c, 1, 58, 0
2, 39520, Note_off_c, 1, 87, 0
2, 39640, Note_off_c, 1, 39, 0
2, 39640, Note_off_c, 1, 51, 0
2, 39640, Note_off_c, 1, 79, 0
2, 39640, Note_off_c, 1, 85, 0
2, 39640, Note_off_c, 1, 91, 0
2, 39680, Note_on_c, 1, 35, 127
2, 39680, Note_on_c, 1, 39, 127
2, 39680, Note_on_c, 1, 44, 127
2, 39680, Note_on_c, 1, 56, 127
2, 39680, Note_on_c, 1, 63, 127
2, 40000, Note_off_c, 1, 35, 0
2, 40000, Note_off_c, 1, 39, 0
2, 40000, Note_off_c, 1, 44, 0
2, 40000, Note_off_c, 1, 56, 0
2, 40000, Note_off_c, 1, 63, 0
2, 40040, Note_on_c, 1, 41, 127
2, 40040, Note_on_c, 1, 44, 127
2, 40040, Note_on_c, 1, 53, 127
2, 40040, Note_on_c, 1, 56, 127
2, 40360, Note_off_c, 1, 41, 0
2, 40360, Note_off_c, 1, 44, 0
2, 40360, Note_off_c, 1, 53, 0
2, 40360, Note_off_c, 1, 56, 0
2, 40400, Note_on_c, 1, 36, 127
2, 40400, Note_on_c, 1, 43, 127
2, 40400, Note_on_c, 1, 48, 127
2, 40400, Note_on_c, 1, 55, 127
2, 40600, Note_off_c, 1, 36, 0
2, 40600, Note_off_c, 1, 43, 0
2, 40600, Note_off_c, 1, 48, 0
2, 40600, Note_off_c, 1, 55, 0
2, 40640, Note_on_c, 1, 36, 127
2, 40640, Note_on_c, 1, 43, 127
2, 40640, Note_on_c, 1, 48, 127
2, 40640, Note_on_c, 1, 55, 127
2, 40760, Note_off_c, 1, 36, 0
2, 40760, Note_off_c, 1, 43, 0
2, 40760, Note_off_c, 1, 48, 0
2, 40760, Note_off_c, 1, 55, 0
2, 40800, Note_on_c, 1, 52, 127
2, 40800, Note_on_c, 1, 55, 127
2, 40800, Note_on_c, 1, 60, 127
2, 40800, Note_on_c, 1, 64, 127
2, 40800, Note_on_c, 1, 78, 127
2, 40840, Note_on_c, 1, 33, 127
2, 40840, Note_on_c, 1, 49, 127
2, 40840, Note_on_c, 1, 57, 127
2, 40840, Note_off_c, 1, 60, 0
2, 40840, Note_off_c, 1, 64, 0
2, 40840, Note_off_c, 1, 78, 0
2, 40920, Note_off_c, 1, 33, 0
2, 40920, Note_off_c, 1, 49, 0
2, 40920, Note_off_c, 1, 52, 0
2, 40920, Note_off_c, 1, 55, 0
2, 40920, Note_off_c, 1, 57, 0
2, 40920, Note_on_c, 1, 70, 127
2, 40920, Note_on_c, 1, 79, 127
2, 40920, Note_on_c, 1, 82, 127
2, 40920, Note_on_c, 1, 87, 127
2, 40960, Note_on_c, 1, 33, 127
2, 40960, Note_on_c, 1, 49, 127
2, 40960, Note_on_c, 1, 52, 127
2, 40960, Note_on_c, 1, 55, 127
2, 40960, Note_on_c, 1, 57, 127
2, 40960, Note_off_c, 1, 70, 0
2, 40960, Note_off_c, 1, 79, 0
2, 40960, Note_off_c, 1, 82, 0
2, 40960, Note_off_c, 1, 87, 0
2, 41120, Note_off_c, 1, 33, 0
2, 41120, Note_off_c, 1, 49, 0
2, 41120, Note_off_c, 1, 52, 0
2, 41120, Note_off_c, 1, 55, 0
2, 41120, Note_off_c, 1, 57, 0
2, 41160, Note_on_c, 1, 38, 127
2, 41160, Note_on_c, 1, 49, 127
2, 41160, Note_on_c, 1, 54, 127
2, 41160, Note_on_c, 1, 61, 127
2, 41160, Note_on_c, 1, 66, 127
2, 41480, Note_off_c, 1, 38, 0
2, 41480, Note_off_c, 1, 49, 0
2, 41480, Note_off_c, 1, 54, 0
2, 41480, Note_off_c, 1, 61, 0
2, 41480, Note_off_c, 1, 66, 0
2, 41520, Note_on_c, 1, 37, 127
2, 41520, Note_on_c, 1, 42, 127
2, 41520, Note_on_c, 1, 49, 127
2, 41520, Note_on_c, 1, 61, 127
2, 41840, Note_off_c, 1, 37, 0
2, 41840, Note_off_c, 1, 42, 0
2, 41840, Note_off_c, 1, 49, 0
2, 41840, Note_off_c, 1, 61, 0
2, 41880, Note_on_c, 1, 37, 127
2, 41880, Note_on_c, 1, 42, 127
2, 41880, Note_on_c, 1, 49, 127
2, 41880, Note_on_c, 1, 61, 127
2, 42200, Note_off_c, 1, 37, 0
2, 42200, Note_off_c, 1, 42, 0
2, 42200, Note_off_c, 1, 49, 0
2, 42200, Note_off_c, 1, 61, 0
2, 42240, Note_on_c, 1, 34, 127
2, 42240, Note_on_c, 1, 41, 127
2, 42240, Note_on_c, 1, 49, 127
2, 42240, Note_on_c, 1, 53, 127
2, 42240, Note_on_c, 1, 58, 127
2, 42680, Note_off_c, 1, 34, 0
2, 42680, Note_off_c, 1, 41, 0
2, 42680, Note_off_c, 1, 49, 0
2, 42680, Note_off_c, 1, 53, 0
2, 42680, Note_off_c, 1, 58, 0
2, 42720, Note_on_c, 1, 34, 127
2, 42720, Note_on_c, 1, 41, 127
2, 42720, Note_on_c, 1, 49, 127
2, 42720, Note_on_c, 1, 53, 127
2, 42720, Note_on_c, 1, 58, 127
2, 43320, Note_off_c, 1, 34, 0
2, 43320, Note_off_c, 1, 41, 0
2, 43320, Note_off_c, 1, 49, 0
2, 43320, Note_off_c, 1, 53, 0
2, 43320, Note_off_c, 1, 58, 0
2, 43360, Note_on_c, 1, 66, 127
2, 43360, Note_on_c, 1, 69, 127
2, 43360, Note_on_c, 1, 74, 127
2, 43360, Note_on_c, 1, 86, 127
2, 43360, Note_on_c, 1, 93, 127
2, 43360, Note_on_c, 1, 98, 127
2, 44000, Note_on_c, 1, 48, 127
2, 44000, Note_on_c, 1, 52, 127
2, 44000, Note_on_c, 1, 60, 127
2, 44000, Note_off_c, 1, 66, 0
2, 44000, Note_on_c, 1, 67, 127
2, 44000, Note_off_c, 1, 69, 0
2, 44000, Note_on_c, 1, 70, 127
2, 44000, Note_off_c, 1, 74, 0
2, 44000, Note_off_c, 1, 86, 0
2, 44000, Note_off_c, 1, 93, 0
2, 44000, Note_off_c, 1, 98, 0
2, 44040, Note_off_c, 1, 48, 0
2, 44040, Note_off_c, 1, 52, 0
2, 44040, Note_off_c, 1, 60, 0
2, 44040, Note_off_c, 1, 67, 0
2, 44040, Note_off_c, 1, 70, 0
2, 44080, Note_on_c, 1, 45, 127
2, 44080, Note_on_c, 1, 49, 127
2, 44080, Note_on_c, 1, 61, 127
2, 44080, Note_on_c, 1, 66, 127
2, 44080, Note_on_c, 1, 73, 127
2, 44680, Note_off_c, 1, 45, 0
2, 44680, Note_off_c, 1, 49, 0
2, 44680, Note_off_c, 1, 61, 0
2, 44680, Note_off_c, 1, 66, 0
2, 44680, Note_off_c, 1, 73, 0
2, 44720, Note_on_c, 1, 45, 127
2, 44720, Note_on_c, 1, 49, 127
2, 44720, Note_on_c, 1, 61, 127
2, 44720, Note_on_c, 1, 66, 127
2, 44720, Note_on_c, 1, 73, 127
2, 45120, Note_off_c, 1, 45, 0
2, 45120, Note_off_c, 1, 49, 0
2, 45120, Note_off_c, 1, 61, 0
2, 45120, Note_off_c, 1, 66, 0
2, 45120, Note_off_c, 1, 73, 0
2, 45200, Note_on_c, 1, 42, 127
2, 45200, Note_on_c, 1, 51, 127
2, 45200, Note_on_c, 1, 59, 127
2, 45200, Note_on_c, 1, 63, 127
2, 45840, Note_off_c, 1, 42, 0
2, 45840, Note_off_c, 1, 51, 0
2, 45840, Note_off_c, 1, 59, 0
2, 45840, Note_off_c, 1, 63, 0
2, 45920, Note_on_c, 1, 42, 127
2, 45920, Note_on_c, 1, 51, 127
2, 45920, Note_on_c, 1, 59, 127
2, 45920, Note_on_c, 1, 63, 127
2, 46200, Note_off_c, 1, 42, 0
2, 46200, Note_off_c, 1, 51, 0
2, 46200, Note_off_c, 1, 59, 0
2, 46200, Note_off_c, 1, 63, 0
2, 46280, Note_on_c, 1, 42, 127
2, 46280, Note_on_c, 1, 51, 127
2, 46280, Note_on_c, 1, 59, 127
2, 46280, Note_on_c, 1, 63, 127
2, 46640, Note_off_c, 1, 42, 0
2, 46640, Note_off_c, 1, 51, 0
2, 46640, Note_off_c, 1, 59, 0
2, 46640, Note_off_c, 1, 63, 0
2, 46680, Note_on_c, 1, 42, 127
2, 46680, Note_on_c, 1, 51, 127
2, 46680, Note_on_c, 1, 59, 127
2, 46680, Note_on_c, 1, 63, 127
2, 46960, Note_off_c, 1, 42, 0
2, 46960, Note_off_c, 1, 51, 0
2, 46960, Note_off_c, 1, 59, 0
2, 46960, Note_off_c, 1, 63, 0
2, 47000, Note_on_c, 1, 42, 127
2, 47000, Note_on_c, 1, 51, 127
2, 47000, Note_on_c, 1, 59, 127
2, 47000, Note_on_c, 1, 63, 127
2, 47280, Note_off_c, 1, 42, 0
2, 47280, Note_off_c, 1, 51, 0
2, 47280, Note_off_c, 1, 59, 0
2, 47280, Note_off_c, 1, 63, 0
2, 47360, Note_on_c, 1, 42, 127
2, 47360, Note_on_c, 1, 51, 127
2, 47360, Note_on_c, 1, 59, 127
2, 47360, Note_on_c, 1, 63, 127
2, 47640, Note_off_c, 1, 42, 0
2, 47640, Note_off_c, 1, 51, 0
2, 47640, Note_off_c, 1, 59, 0
2, 47640, Note_off_c, 1, 63, 0
2, 47680, Note_on_c, 1, 47, 127
2, 47680, Note_on_c, 1, 57, 127
2, 47680, Note_on_c, 1, 62, 127
2, 47680, Note_on_c, 1, 68, 127
2, 47680, Note_on_c, 1, 71, 127
2, 47720, Note_off_c, 1, 47, 0
2, 47720, Note_on_c, 1, 49, 127
2, 47720, Note_on_c, 1, 55, 127
2, 47720, Note_off_c, 1, 57, 0
2, 47720, Note_on_c, 1, 59, 127
2, 47720, Note_off_c, 1, 62, 0
2, 47720, Note_on_c, 1, 67, 127
2, 47720, Note_off_c, 1, 68, 0
2, 47720, Note_off_c, 1, 71, 0
2, 47760, Note_off_c, 1, 59, 0
2, 47760, Note_on_c, 1, 65, 127
2, 47760, Note_off_c, 1, 67, 0
2, 47760, Note_on_c, 1, 77, 127
2, 47800, Note_off_c, 1, 49, 0
2, 47800, Note_on_c, 1, 61, 127
2, 47800, Note_off_c, 1, 65, 0
2, 47800, Note_on_c, 1, 70, 127
2, 47800, Note_off_c, 1, 77, 0
2, 47800, Note_on_c, 1, 79, 127
2, 47800, Note_on_c, 1, 82, 127
2, 47840, Note_on_c, 1, 53, 127
2, 47840, Note_off_c, 1, 55, 0
2, 47840, Note_on_c, 1, 57, 127
2, 47840, Note_on_c, 1, 60, 127
2, 47840, Note_off_c, 1, 61, 0
2, 47840, Note_on_c, 1, 65, 127
2, 47840, Note_on_c, 1, 69, 127
2, 47840, Note_off_c, 1, 70, 0
2, 47840, Note_on_c, 1, 72, 127
2, 47840, Note_on_c, 1, 75, 127
2, 47840, Note_off_c, 1, 79, 0
2, 47840, Note_on_c, 1, 81, 127
2, 47840, Note_off_c, 1, 82, 0
2, 47880, Note_on_c, 1, 47, 127
2, 47880, Note_off_c, 1, 53, 0
2, 47880, Note_on_c, 1, 56, 127
2, 47880, Note_off_c, 1, 57, 0
2, 47880, Note_off_c, 1, 60, 0
2, 47880, Note_off_c, 1, 65, 0
2, 47880, Note_on_c, 1, 66, 127
2, 47880, Note_off_c, 1, 69, 0
2, 47880, Note_off_c, 1, 72, 0
2, 47880, Note_on_c, 1, 74, 127
2, 47880, Note_off_c, 1, 75, 0
2, 47880, Note_off_c, 1, 81, 0
2, 47920, Note_on_c, 1, 34, 127
2, 47920, Note_on_c, 1, 41, 127
2, 47920, Note_on_c, 1, 46, 127
2, 47920, Note_off_c, 1, 47, 0
2, 47920, Note_off_c, 1, 56, 0
2, 47920, Note_off_c, 1, 66, 0
2, 47920, Note_off_c, 1, 74, 0
2, 47920, Note_on_c, 1, 85, 127
2, 47920, Note_on_c, 1, 90, 127
2, 47960, Note_off_c, 1, 34, 0
2, 47960, Note_off_c, 1, 41, 0
2, 47960, Note_off_c, 1, 46, 0
2, 47960, Note_on_c, 1, 50, 127
2, 47960, Note_on_c, 1, 53, 127
2, 47960, Note_on_c, 1, 59, 127
2, 47960, Note_on_c, 1, 65, 127
2, 47960, Note_on_c, 1, 71, 127
2, 47960, Note_off_c, 1, 85, 0
2, 47960, Note_off_c, 1, 90, 0
2, 48000, Note_off_c, 1, 50, 0
2, 48000, Note_off_c, 1, 53, 0
2, 48000, Note_off_c, 1, 59, 0
2, 48000, Note_off_c, 1, 65, 0
2, 48000, Note_off_c, 1, 71, 0
2, 48040, Note_on_c, 1, 34, 127
2, 48040, Note_on_c, 1, 41, 127
2, 48040, Note_on_c, 1, 46, 127
2, 48040, Note_on_c, 1, 85, 127
2, 48040, Note_on_c, 1, 90, 127
2, 48360, Note_off_c, 1, 34, 0
2, 48360, Note_off_c, 1, 41, 0
2, 48360, Note_off_c, 1, 46, 0
2, 48360, Note_off_c, 1, 85, 0
2, 48360, Note_off_c, 1, 90, 0
2, 48400, Note_on_c, 1, 47, 127
2, 48400, Note_on_c, 1, 52, 127
2, 48400, Note_on_c, 1, 63, 127
2, 48400, Note_on_c, 1, 69, 127
2, 48520, Note_off_c, 1, 47, 0
2, 48520, Note_off_c, 1, 52, 0
2, 48520, Note_off_c, 1, 63, 0
2, 48520, Note_off_c, 1, 69, 0
2, 48560, Note_on_c, 1, 47, 127
2, 48560, Note_on_c, 1, 52, 127
2, 48560, Note_on_c, 1, 63, 127
2, 48560, Note_on_c, 1, 69, 127
2, 48720, Note_off_c, 1, 47, 0
2, 48720, Note_off_c, 1, 52, 0
2, 48720, Note_off_c, 1, 63, 0
2, 48720, Note_off_c, 1, 69, 0
2, 48800, Note_on_c, 1, 55, 127
2, 48800, Note_on_c, 1, 62, 127
2, 48800, Note_on_c, 1, 65, 127
2, 48800, Note_on_c, 1, 67, 127
2, 48800, Note_on_c, 1, 69, 127
2, 49080, Note_off_c, 1, 55, 0
2, 49080, Note_off_c, 1, 62, 0
2, 49080, Note_off_c, 1, 65, 0
2, 49080, Note_off_c, 1, 67, 0
2, 49080, Note_off_c, 1, 69, 0
2, 49160, Note_on_c, 1, 55, 127
2, 49160, Note_on_c, 1, 62, 127
2, 49160, Note_on_c, 1, 65, 127
2, 49160, Note_on_c, 1, 67, 127
2, 49160, Note_on_c, 1, 69, 127
2, 49320, Note_off_c, 1, 69, 0
2, 49320, Note_on_c, 1, 71, 127
2, 49360, Note_on_c, 1, 69, 127
2, 49360, Note_off_c, 1, 71, 0
2, 49400, Note_off_c, 1, 69, 0
2, 49400, Note_on_c, 1, 71, 127
2, 49440, Note_off_c, 1, 55, 0
2, 49440, Note_off_c, 1, 62, 0
2, 49440, Note_off_c, 1, 65, 0
2, 49440, Note_off_c, 1, 67, 0
2, 49440, Note_off_c, 1, 71, 0
2, 49520, Note_on_c, 1, 55, 127
2, 49520, Note_on_c, 1, 62, 127
2, 49520, Note_on_c, 1, 65, 127
2, 49520, Note_on_c, 1, 67, 127
2, 49800, Note_off_c, 1, 55, 0
2, 49800, Note_off_c, 1, 62, 0
2, 49800, Note_off_c, 1, 65, 0
2, 49800, Note_off_c, 1, 67, 0
2, 49880, Note_on_c, 1, 54, 127
2, 49880, Note_on_c, 1, 64, 127
2, 49880, Note_on_c, 1, 72, 127
2, 49880, Note_on_c, 1, 79, 127
2, 49920, Note_on_c, 1, 51, 127
2, 49920, Note_off_c, 1, 54, 0
2, 49920, Note_on_c, 1, 56, 127
2, 49920, Note_on_c, 1, 60, 127
2, 49920, Note_off_c, 1, 64, 0
2, 49920, Note_off_c, 1, 72, 0
2, 49920, Note_on_c, 1, 74, 127
2, 49920, Note_off_c, 1, 79, 0
2, 49960, Note_off_c, 1, 51, 0
2, 49960, Note_on_c, 1, 55, 127
2, 49960, Note_off_c, 1, 56, 0
2, 49960, Note_off_c, 1, 60, 0
2, 49960, Note_on_c, 1, 64, 127
2, 49960, Note_on_c, 1, 72, 127
2, 49960, Note_off_c, 1, 74, 0
2, 49960, Note_on_c, 1, 82, 127
2, 50000, Note_off_c, 1, 55, 0
2, 50000, Note_on_c, 1, 56, 127
2, 50000, Note_on_c, 1, 59, 127
2, 50000, Note_on_c, 1, 62, 127
2, 50000, Note_off_c, 1, 64, 0
2, 50000, Note_off_c, 1, 72, 0
2, 50040, Note_on_c, 1, 53, 127
2, 50040, Note_off_c, 1, 56, 0
2, 50040, Note_off_c, 1, 59, 0
2, 50040, Note_on_c, 1, 60, 127
2, 50040, Note_off_c, 1, 62, 0
2, 50040, Note_on_c, 1, 68, 127
2, 50160, Note_off_c, 1, 53, 0
2, 50160, Note_off_c, 1, 60, 0
2, 50160, Note_off_c, 1, 68, 0
2, 50160, Note_off_c, 1, 82, 0
2, 50160, Note_on_c, 1, 91, 127
2, 50200, Note_off_c, 1, 91, 0
2, 50240, Note_on_c, 1, 54, 127
2, 50240, Note_on_c, 1, 60, 127
2, 50240, Note_on_c, 1, 62, 127
2, 50240, Note_on_c, 1, 66, 127
2, 50240, Note_on_c, 1, 78, 127
2, 50240, Note_on_c, 1, 81, 127
2, 50240, Note_on_c, 1, 90, 127
2, 50480, Note_off_c, 1, 54, 0
2, 50480, Note_off_c, 1, 60, 0
2, 50480, Note_off_c, 1, 62, 0
2, 50480, Note_off_c, 1, 66, 0
2, 50480, Note_off_c, 1, 78, 0
2, 50480, Note_off_c, 1, 81, 0
2, 50480, Note_off_c, 1, 90, 0
2, 50520, Note_on_c, 1, 54, 127
2, 50520, Note_on_c, 1, 60, 127
2, 50520, Note_on_c, 1, 62, 127
2, 50520, Note_on_c, 1, 66, 127
2, 50520, Note_on_c, 1, 78, 127
2, 50520, Note_on_c, 1, 81, 127
2, 50520, Note_on_c, 1, 90, 127
2, 50560, Note_off_c, 1, 54, 0
2, 50560, Note_off_c, 1, 60, 0
2, 50560, Note_off_c, 1, 62, 0
2, 50560, Note_off_c, 1, 66, 0
2, 50560, Note_off_c, 1, 78, 0
2, 50560, Note_off_c, 1, 81, 0
2, 50560, Note_off_c, 1, 90, 0
2, 50600, Note_on_c, 1, 41, 127
2, 50600, Note_on_c, 1, 49, 127
2, 50600, Note_on_c, 1, 53, 127
2, 50600, Note_on_c, 1, 57, 127
2, 50600, Note_on_c, 1, 61, 127
2, 50600, Note_on_c, 1, 65, 127
2, 50920, Note_off_c, 1, 41, 0
2, 50920, Note_off_c, 1, 49, 0
2, 50920, Note_off_c, 1, 53, 0
2, 50920, Note_off_c, 1, 57, 0
2, 50920, Note_off_c, 1, 61, 0
2, 50920, Note_off_c, 1, 65, 0
2, 50960, Note_on_c, 1, 57, 127
2, 50960, Note_on_c, 1, 60, 127
2, 50960, Note_on_c, 1, 63, 127
2, 50960, Note_on_c, 1, 66, 127
2, 50960, Note_on_c, 1, 75, 127
2, 50960, Note_on_c, 1, 78, 127
2, 50960, Note_on_c, 1, 87, 127
2, 51000, Note_on_c, 1, 37, 127
2, 51000, Note_on_c, 1, 44, 127
2, 51000, Note_on_c, 1, 49, 127
2, 51000, Note_off_c, 1, 57, 0
2, 51000, Note_off_c, 1, 60, 0
2, 51000, Note_off_c, 1, 63, 0
2, 51000, Note_off_c, 1, 66, 0
2, 51000, Note_off_c, 1, 75, 0
2, 51000, Note_on_c, 1, 76, 127
2, 51000, Note_off_c, 1, 78, 0
2, 51000, Note_on_c, 1, 80, 127
2, 51000, Note_on_c, 1, 85, 127
2, 51000, Note_off_c, 1, 87, 0
2, 51000, Note_on_c, 1, 88, 127
2, 51240, Note_off_c, 1, 37, 0
2, 51240, Note_off_c, 1, 44, 0
2, 51240, Note_off_c, 1, 49, 0
2, 51240, Note_off_c, 1, 76, 0
2, 51240, Note_off_c, 1, 80, 0
2, 51240, Note_off_c, 1, 85, 0
2, 51240, Note_off_c, 1, 88, 0
2, 51320, Note_on_c, 1, 36, 127
2, 51320, Note_on_c, 1, 48, 127
2, 51320, Note_on_c, 1, 55, 127
2, 51320, Note_on_c, 1, 60, 127
2, 51320, Note_on_c, 1, 67, 127
2, 51360, Note_off_c, 1, 36, 0
2, 51360, Note_off_c, 1, 48, 0
2, 51360, Note_off_c, 1, 55, 0
2, 51360, Note_on_c, 1, 58, 127
2, 51360, Note_off_c, 1, 60, 0
2, 51360, Note_off_c, 1, 67, 0
2, 51360, Note_on_c, 1, 70, 127
2, 51360, Note_on_c, 1, 76, 127
2, 51360, Note_on_c, 1, 79, 127
2, 51360, Note_on_c, 1, 88, 127
2, 51400, Note_on_c, 1, 37, 127
2, 51400, Note_off_c, 1, 58, 0
2, 51400, Note_off_c, 1, 70, 0
2, 51400, Note_off_c, 1, 76, 0
2, 51400, Note_off_c, 1, 79, 0
2, 51400, Note_on_c, 1, 80, 127
2, 51400, Note_on_c, 1, 83, 127
2, 51400, Note_off_c, 1, 88, 0
2, 51400, Note_on_c, 1, 92, 127
2, 51440, Note_off_c, 1, 37, 0
2, 51440, Note_on_c, 1, 42, 127
2, 51440, Note_on_c, 1, 47, 127
2, 51440, Note_on_c, 1, 51, 127
2, 51440, Note_off_c, 1, 80, 0
2, 51440, Note_off_c, 1, 83, 0
2, 51440, Note_off_c, 1, 92, 0
2, 51480, Note_off_c, 1, 42, 0
2, 51480, Note_on_c, 1, 45, 127
2, 51480, Note_off_c, 1, 47, 0
2, 51480, Note_off_c, 1, 51, 0
2, 51480, Note_on_c, 1, 88, 127
2, 51480, Note_on_c, 1, 91, 127
2, 51520, Note_on_c, 1, 37, 127
2, 51520, Note_on_c, 1, 55, 127
2, 51520, Note_on_c, 1, 57, 127
2, 51520, Note_on_c, 1, 64, 127
2, 51520, Note_off_c, 1, 88, 0
2, 51520, Note_off_c, 1, 91, 0
2, 51560, Note_off_c, 1, 37, 0
2, 51560, Note_off_c, 1, 45, 0
2, 51560, Note_off_c, 1, 55, 0
2, 51560, Note_off_c, 1, 57, 0
2, 51560, Note_on_c, 1, 58, 127
2, 51560, Note_on_c, 1, 61, 127
2, 51560, Note_off_c, 1, 64, 0
2, 51560, Note_on_c, 1, 65, 127
2, 51560, Note_on_c, 1, 89, 127
2, 51600, Note_off_c, 1, 58, 0
2, 51600, Note_off_c, 1, 61, 0
2, 51600, Note_off_c, 1, 65, 0
2, 51600, Note_off_c, 1, 89, 0
2, 51640, Note_on_c, 1, 100, 127
2, 51680, Note_on_c, 1, 52, 127
2, 51680, Note_on_c, 1, 59, 127
2, 51680, Note_on_c, 1, 63, 127
2, 51680, Note_on_c, 1, 64, 127
2, 51680, Note_on_c, 1, 71, 127
2, 51680, Note_on_c, 1, 75, 127
2, 51680, Note_on_c, 1, 76, 127
2, 51680, Note_off_c, 1, 100, 0
2, 51960, Note_off_c, 1, 52, 0
2, 51960, Note_off_c, 1, 59, 0
2, 51960, Note_off_c, 1, 63, 0
2, 51960, Note_off_c, 1, 64, 0
2, 51960, Note_off_c, 1, 71, 0
2, 51960, Note_off_c, 1, 75, 0
2, 51960, Note_off_c, 1, 76, 0
2, 52040, Note_on_c, 1, 48, 127
2, 52040, Note_on_c, 1, 70, 127
2, 52040, Note_on_c, 1, 73, 127
2, 52040, Note_on_c, 1, 78, 127
2, 52080, Note_off_c, 1, 48, 0
2, 52080, Note_on_c, 1, 62, 127
2, 52080, Note_off_c, 1, 70, 0
2, 52080, Note_off_c, 1, 73, 0
2, 52080, Note_off_c, 1, 78, 0
2, 52080, Note_on_c, 1, 80, 127
2, 52080, Note_on_c, 1, 84, 127
2, 52080, Note_on_c, 1, 86, 127
2, 52120, Note_on_c, 1, 40, 127
2, 52120, Note_on_c, 1, 43, 127
2, 52120, Note_on_c, 1, 47, 127
2, 52120, Note_on_c, 1, 52, 127
2, 52120, Note_on_c, 1, 55, 127
2, 52120, Note_on_c, 1, 59, 127
2, 52120, Note_off_c, 1, 62, 0
2, 52120, Note_on_c, 1, 66, 127
2, 52120, Note_off_c, 1, 80, 0
2, 52120, Note_off_c, 1, 84, 0
2, 52120, Note_off_c, 1, 86, 0
2, 52160, Note_off_c, 1, 40, 0
2, 52160, Note_off_c, 1, 43, 0
2, 52160, Note_off_c, 1, 47, 0
2, 52160, Note_off_c, 1, 52, 0
2, 52160, Note_off_c, 1, 55, 0
2, 52160, Note_off_c, 1, 59, 0
2, 52160, Note_off_c, 1, 66, 0
2, 52160, Note_on_c, 1, 91, 127
2, 52160, Note_on_c, 1, 94, 127
2, 52160, Note_on_c, 1, 99, 127
2, 52200, Note_on_c, 1, 31, 127
2, 52200, Note_on_c, 1, 43, 127
2, 52200, Note_on_c, 1, 64, 127
2, 52200, Note_on_c, 1, 70, 127
2, 52200, Note_on_c, 1, 74, 127
2, 52200, Note_off_c, 1, 91, 0
2, 52200, Note_off_c, 1, 94, 0
2, 52200, Note_off_c, 1, 99, 0
2, 52320, Note_off_c, 1, 31, 0
2, 52320, Note_off_c, 1, 43, 0
2, 52320, Note_off_c, 1, 64, 0
2, 52320, Note_off_c, 1, 70, 0
2, 52320, Note_off_c, 1, 74, 0
2, 52440, Note_on_c, 1, 49, 127
2, 52440, Note_on_c, 1, 52, 127
2, 52440, Note_on_c, 1, 61, 127
2, 52440, Note_on_c, 1, 64, 127
2, 52440, Note_on_c, 1, 69, 127
2, 52440, Note_on_c, 1, 76, 127
2, 52680, Note_off_c, 1, 49, 0
2, 52680, Note_off_c, 1, 52, 0
2, 52680, Note_off_c, 1, 61, 0
2, 52680, Note_off_c, 1, 64, 0
2, 52680, Note_off_c, 1, 69, 0
2, 52680, Note_off_c, 1, 76, 0
2, 52760, Note_on_c, 1, 49, 127
2, 52760, Note_on_c, 1, 52, 127
2, 52760, Note_on_c, 1, 61, 127
2, 52760, Note_on_c, 1, 64, 127
2, 52760, Note_on_c, 1, 69, 127
2, 52760, Note_on_c, 1, 76, 127
2, 53040, Note_off_c, 1, 49, 0
2, 53040, Note_off_c, 1, 52, 0
2, 53040, Note_off_c, 1, 61, 0
2, 53040, Note_off_c, 1, 64, 0
2, 53040, Note_off_c, 1, 69, 0
2, 53040, Note_off_c, 1, 76, 0
2, 53120, Note_on_c, 1, 47, 127
2, 53120, Note_on_c, 1, 51, 127
2, 53120, Note_on_c, 1, 57, 127
2, 53120, Note_on_c, 1, 66, 127
2, 53400, Note_off_c, 1, 47, 0
2, 53400, Note_off_c, 1, 51, 0
2, 53400, Note_off_c, 1, 57, 0
2, 53480, Note_on_c, 1, 47, 127
2, 53480, Note_on_c, 1, 51, 127
2, 53480, Note_on_c, 1, 57, 127
2, 53760, Note_off_c, 1, 47, 0
2, 53760, Note_off_c, 1, 51, 0
2, 53760, Note_off_c, 1, 57, 0
2, 53840, Note_on_c, 1, 47, 127
2, 53840, Note_on_c, 1, 51, 127
2, 53840, Note_on_c, 1, 57, 127
2, 54120, Note_off_c, 1, 47, 0
2, 54120, Note_off_c, 1, 51, 0
2, 54120, Note_off_c, 1, 57, 0
2, 54160, Note_off_c, 1, 66, 0
2, 54240, Note_on_c, 1, 41, 127
2, 54240, Note_on_c, 1, 50, 127
2, 54240, Note_on_c, 1, 57, 127
2, 54240, Note_on_c, 1, 65, 127
2, 54280, Note_off_c, 1, 41, 0
2, 54280, Note_off_c, 1, 50, 0
2, 54280, Note_on_c, 1, 54, 127
2, 54280, Note_off_c, 1, 57, 0
2, 54280, Note_on_c, 1, 61, 127
2, 54280, Note_off_c, 1, 65, 0
2, 54280, Note_on_c, 1, 70, 127
2, 54280, Note_on_c, 1, 77, 127
2, 54280, Note_on_c, 1, 85, 127
2, 54280, Note_on_c, 1, 90, 127
2, 54320, Note_on_c, 1, 41, 127
2, 54320, Note_on_c, 1, 50, 127
2, 54320, Note_off_c, 1, 54, 0
2, 54320, Note_on_c, 1, 57, 127
2, 54320, Note_off_c, 1, 61, 0
2, 54320, Note_on_c, 1, 65, 127
2, 54320, Note_off_c, 1, 70, 0
2, 54320, Note_off_c, 1, 77, 0
2, 54320, Note_off_c, 1, 85, 0
2, 54320, Note_off_c, 1, 90, 0
2, 54440, Note_off_c, 1, 50, 0
2, 54440, Note_on_c, 1, 51, 127
2, 54520, Note_off_c, 1, 41, 0
2, 54520, Note_off_c, 1, 51, 0
2, 54520, Note_off_c, 1, 57, 0
2, 54560, Note_on_c, 1, 41, 127
2, 54560, Note_on_c, 1, 53, 127
2, 54560, Note_on_c, 1, 57, 127
2, 54560, Note_on_c, 1, 62, 127
2, 54880, Note_off_c, 1, 41, 0
2, 54880, Note_off_c, 1, 53, 0
2, 54880, Note_off_c, 1, 57, 0
2, 54880, Note_off_c, 1, 62, 0
2, 54880, Note_off_c, 1, 65, 0
2, 54920, Note_on_c, 1, 31, 127
2, 54920, Note_on_c, 1, 43, 127
2, 54920, Note_on_c, 1, 55, 127
2, 54920, Note_on_c, 1, 67, 127
2, 55200, Note_off_c, 1, 31, 0
2, 55200, Note_off_c, 1, 43, 0
2, 55200, Note_off_c, 1, 55, 0
2, 55200, Note_off_c, 1, 67, 0
2, 55280, Note_on_c, 1, 31, 127
2, 55280, Note_on_c, 1, 43, 127
2, 55280, Note_on_c, 1, 55, 127
2, 55280, Note_on_c, 1, 67, 127
2, 55600, Note_off_c, 1, 31, 0
2, 55600, Note_off_c, 1, 43, 0
2, 55600, Note_off_c, 1, 55, 0
2, 55600, Note_off_c, 1, 67, 0
2, 55640, Note_on_c, 1, 36, 127
2, 55640, Note_on_c, 1, 48, 127
2, 55640, Note_on_c, 1, 58, 127
2, 55640, Note_on_c, 1, 60, 127
2, 55640, Note_on_c, 1, 64, 127
2, 55640, Note_on_c, 1, 67, 127
2, 55960, Note_off_c, 1, 36, 0
2, 55960, Note_off_c, 1, 48, 0
2, 55960, Note_off_c, 1, 58, 0
2, 55960, Note_off_c, 1, 60, 0
2, 55960, Note_off_c, 1, 64, 0
2, 55960, Note_off_c, 1, 67, 0
2, 56000, Note_on_c, 1, 41, 127
2, 56000, Note_on_c, 1, 53, 127
2, 56000, Note_on_c, 1, 57, 127
2, 56000, Note_on_c, 1, 60, 127
2, 56000, Note_on_c, 1, 65, 127
2, 56160, Note_off_c, 1, 41, 0
2, 56160, Note_off_c, 1, 53, 0
2, 56160, Note_off_c, 1, 57, 0
2, 56160, Note_off_c, 1, 60, 0
2, 56160, Note_off_c, 1, 65, 0
2, 56200, Note_on_c, 1, 41, 127
2, 56200, Note_on_c, 1, 53, 127
2, 56200, Note_on_c, 1, 57, 127
2, 56200, Note_on_c, 1, 60, 127
2, 56200, Note_on_c, 1, 65, 127
2, 56320, Note_off_c, 1, 41, 0
2, 56320, Note_off_c, 1, 57, 0
2, 56320, Note_off_c, 1, 60, 0
2, 56400, Note_on_c, 1, 46, 127
2, 56400, Note_on_c, 1, 58, 127
2, 56720, Note_off_c, 1, 46, 0
2, 56720, Note_off_c, 1, 53, 0
2, 56720, Note_off_c, 1, 58, 0
2, 56720, Note_off_c, 1, 65, 0
2, 56760, Note_on_c, 1, 51, 127
2, 56760, Note_on_c, 1, 55, 127
2, 56760, Note_on_c, 1, 60, 127
2, 56760, Note_on_c, 1, 72, 127
2, 57080, Note_off_c, 1, 51, 0
2, 57080, Note_off_c, 1, 55, 0
2, 57080, Note_off_c, 1, 60, 0
2, 57080, Note_off_c, 1, 72, 0
2, 57120, Note_on_c, 1, 46, 127
2, 57120, Note_on_c, 1, 50, 127
2, 57120, Note_on_c, 1, 53, 127
2, 57120, Note_on_c, 1, 63, 127
2, 57120, Note_on_c, 1, 65, 127
2, 57160, Note_off_c, 1, 46, 0
2, 57160, Note_on_c, 1, 48, 127
2, 57160, Note_off_c, 1, 50, 0
2, 57160, Note_on_c, 1, 51, 127
2, 57160, Note_off_c, 1, 53, 0
2, 57160, Note_on_c, 1, 55, 127
2, 57160, Note_off_c, 1, 63, 0
2, 57160, Note_off_c, 1, 65, 0
2, 57160, Note_on_c, 1, 75, 127
2, 57160, Note_on_c, 1, 79, 127
2, 57200, Note_off_c, 1, 48, 0
2, 57200, Note_on_c, 1, 49, 127
2, 57200, Note_off_c, 1, 51, 0
2, 57200, Note_on_c, 1, 67, 127
2, 57200, Note_on_c, 1, 73, 127
2, 57200, Note_off_c, 1, 75, 0
2, 57200, Note_off_c, 1, 79, 0
2, 57240, Note_off_c, 1, 49, 0
2, 57240, Note_on_c, 1, 51, 127
2, 57240, Note_on_c, 1, 58, 127
2, 57240, Note_on_c, 1, 61, 127
2, 57240, Note_off_c, 1, 67, 0
2, 57240, Note_off_c, 1, 73, 0
2, 57280, Note_off_c, 1, 51, 0
2, 57280, Note_on_c, 1, 54, 127
2, 57280, Note_off_c, 1, 55, 0
2, 57280, Note_off_c, 1, 61, 0
2, 57280, Note_on_c, 1, 66, 127
2, 57280, Note_on_c, 1, 73, 127
2, 57280, Note_on_c, 1, 78, 127
2, 57280, Note_on_c, 1, 85, 127
2, 57400, Note_off_c, 1, 54, 0
2, 57400, Note_off_c, 1, 58, 0
2, 57400, Note_off_c, 1, 66, 0
2, 57400, Note_off_c, 1, 73, 0
2, 57400, Note_off_c, 1, 78, 0
2, 57400, Note_off_c, 1, 85, 0
2, 57480, Note_on_c, 1, 49, 127
2, 57480, Note_on_c, 1, 53, 127
2, 57480, Note_on_c, 1, 56, 127
2, 57480, Note_on_c, 1, 61, 127
2, 57480, Note_on_c, 1, 65, 127
2, 57480, Note_on_c, 1, 68, 127
2, 57480, Note_on_c, 1, 73, 127
2, 57480, Note_on_c, 1, 77, 127
2, 57800, Note_off_c, 1, 49, 0
2, 57800, Note_off_c, 1, 53, 0
2, 57800, Note_off_c, 1, 56, 0
2, 57800, Note_off_c, 1, 61, 0
2, 57800, Note_off_c, 1, 65, 0
2, 57800, Note_off_c, 1, 68, 0
2, 57800, Note_off_c, 1, 73, 0
2, 57800, Note_off_c, 1, 77, 0
2, 57840, Note_on_c, 1, 51, 127
2, 57840, Note_on_c, 1, 63, 127
2, 57840, Note_on_c, 1, 79, 127
2, 57840, Note_on_c, 1, 85, 127
2, 57880, Note_off_c, 1, 51, 0
2, 57880, Note_off_c, 1, 63, 0
2, 57880, Note_off_c, 1, 79, 0
2, 57880, Note_off_c, 1, 85, 0
2, 58000, Note_on_c, 1, 36, 127
2, 58000, Note_on_c, 1, 43, 127
2, 58000, Note_on_c, 1, 48, 127
2, 58080, Note_off_c, 1, 36, 0
2, 58080, Note_off_c, 1, 43, 0
2, 58080, Note_off_c, 1, 48, 0
2, 58240, Note_on_c, 1, 36, 127
2, 58240, Note_on_c, 1, 43, 127
2, 58240, Note_on_c, 1, 48, 127
2, 58480, Note_off_c, 1, 36, 0
2, 58480, Note_off_c, 1, 43, 0
2, 58480, Note_off_c, 1, 48, 0
2, 58560, Note_on_c, 1, 39, 127
2, 58560, Note_on_c, 1, 43, 127
2, 58560, Note_on_c, 1, 51, 127
2, 58880, Note_off_c, 1, 39, 0
2, 58880, Note_off_c, 1, 43, 0
2, 58880, Note_off_c, 1, 51, 0
2, 58920, Note_on_c, 1, 39, 127
2, 58920, Note_on_c, 1, 43, 127
2, 58920, Note_on_c, 1, 51, 127
2, 59200, Note_off_c, 1, 39, 0
2, 59200, Note_off_c, 1, 43, 0
2, 59200, Note_off_c, 1, 51, 0
2, 59200, Note_on_c, 1, 56, 127
2, 59240, Note_off_c, 1, 56, 0
2, 59280, Note_on_c, 1, 34, 127
2, 59280, Note_on_c, 1, 41, 127
2, 59280, Note_on_c, 1, 46, 127
2, 59280, Note_on_c, 1, 58, 127
2, 59600, Note_off_c, 1, 34, 0
2, 59600, Note_off_c, 1, 41, 0
2, 59600, Note_off_c, 1, 46, 0
2, 59600, Note_off_c, 1, 58, 0
2, 59640, Note_on_c, 1, 35, 127
2, 59640, Note_on_c, 1, 39, 127
2, 59640, Note_on_c, 1, 47, 127
2, 59960, Note_off_c, 1, 35, 0
2, 59960, Note_off_c, 1, 39, 0
2, 59960, Note_off_c, 1, 47, 0
2, 60000, Note_on_c, 1, 32, 127
2, 60000, Note_on_c, 1, 39, 127
2, 60000, Note_on_c, 1, 44, 127
2, 60000, Note_on_c, 1, 51, 127
2, 60320, Note_off_c, 1, 32, 0
2, 60320, Note_off_c, 1, 39, 0
2, 60320, Note_off_c, 1, 44, 0
2, 60320, Note_off_c, 1, 51, 0
2, 60400, Note_on_c, 1, 50, 127
2, 60400, Note_on_c, 1, 56, 127
2, 60400, Note_on_c, 1, 65, 127
2, 60400, Note_on_c, 1, 68, 127
2, 60680, Note_off_c, 1, 50, 0
2, 60680, Note_off_c, 1, 56, 0
2, 60680, Note_off_c, 1, 65, 0
2, 60680, Note_off_c, 1, 68, 0
2, 60720, Note_on_c, 1, 50, 127
2, 60720, Note_on_c, 1, 56, 127
2, 60720, Note_on_c, 1, 65, 127
2, 60720, Note_on_c, 1, 68, 127
2, 61040, Note_off_c, 1, 50, 0
2, 61040, Note_off_c, 1, 56, 0
2, 61040, Note_off_c, 1, 65, 0
2, 61040, Note_off_c, 1, 68, 0
2, 61080, Note_on_c, 1, 50, 127
2, 61080, Note_on_c, 1, 56, 127
2, 61080, Note_on_c, 1, 65, 127
2, 61080, Note_on_c, 1, 68, 127
2, 61400, Note_off_c, 1, 50, 0
2, 61400, Note_off_c, 1, 56, 0
2, 61400, Note_off_c, 1, 65, 0
2, 61400, Note_off_c, 1, 68, 0
2, 61440, Note_on_c, 1, 50, 127
2, 61440, Note_on_c, 1, 56, 127
2, 61440, Note_on_c, 1, 65, 127
2, 61440, Note_on_c, 1, 68, 127
2, 61760, Note_off_c, 1, 50, 0
2, 61760, Note_off_c, 1, 56, 0
2, 61760, Note_off_c, 1, 65, 0
2, 61760, Note_off_c, 1, 68, 0
2, 61800, Note_on_c, 1, 32, 127
2, 61800, Note_on_c, 1, 39, 127
2, 61800, Note_on_c, 1, 44, 127
2, 61800, Note_on_c, 1, 56, 127
2, 62120, Note_off_c, 1, 32, 0
2, 62120, Note_off_c, 1, 39, 0
2, 62120, Note_off_c, 1, 44, 0
2, 62120, Note_off_c, 1, 56, 0
2, 62160, Note_on_c, 1, 68, 127
2, 62160, Note_on_c, 1, 75, 127
2, 62160, Note_on_c, 1, 77, 127
2, 62160, Note_on_c, 1, 80, 127
2, 62480, Note_off_c, 1, 68, 0
2, 62480, Note_off_c, 1, 75, 0
2, 62480, Note_off_c, 1, 77, 0
2, 62480, Note_off_c, 1, 80, 0
2, 62520, Note_on_c, 1, 46, 127
2, 62520, Note_on_c, 1, 56, 127
2, 62520, Note_on_c, 1, 58, 127
2, 62520, Note_on_c, 1, 62, 127
2, 62520, Note_on_c, 1, 65, 127
2, 62640, Note_off_c, 1, 46, 0
2, 62640, Note_off_c, 1, 56, 0
2, 62640, Note_off_c, 1, 58, 0
2, 62640, Note_off_c, 1, 62, 0
2, 62640, Note_off_c, 1, 65, 0
2, 62680, Note_on_c, 1, 46, 127
2, 62680, Note_on_c, 1, 56, 127
2, 62680, Note_on_c, 1, 58, 127
2, 62680, Note_on_c, 1, 62, 127
2, 62680, Note_on_c, 1, 65, 127
2, 62840, Note_off_c, 1, 46, 0
2, 62840, Note_off_c, 1, 56, 0
2, 62840, Note_off_c, 1, 58, 0
2, 62840, Note_off_c, 1, 62, 0
2, 62840, Note_off_c, 1, 65, 0
2, 62880, Note_on_c, 1, 46, 127
2, 62880, Note_on_c, 1, 56, 127
2, 62880, Note_on_c, 1, 58, 127
2, 62880, Note_on_c, 1, 62, 127
2, 62880, Note_on_c, 1, 65, 127
2, 63160, Note_off_c, 1, 46, 0
2, 63160, Note_off_c, 1, 56, 0
2, 63160, Note_off_c, 1, 58, 0
2, 63160, Note_off_c, 1, 62, 0
2, 63160, Note_off_c, 1, 65, 0
2, 63240, Note_on_c, 1, 46, 127
2, 63240, Note_on_c, 1, 56, 127
2, 63240, Note_on_c, 1, 58, 127
2, 63240, Note_on_c, 1, 62, 127
2, 63240, Note_on_c, 1, 65, 127
2, 63520, Note_off_c, 1, 46, 0
2, 63520, Note_off_c, 1, 56, 0
2, 63520, Note_off_c, 1, 58, 0
2, 63520, Note_off_c, 1, 62, 0
2, 63520, Note_off_c, 1, 65, 0
2, 63600, Note_on_c, 1, 50, 127
2, 63600, Note_on_c, 1, 62, 127
2, 63600, Note_on_c, 1, 72, 127
2, 63600, Note_on_c, 1, 77, 127
2, 63600, Note_on_c, 1, 81, 127
2, 63600, Note_on_c, 1, 84, 127
2, 63640, Note_on_c, 1, 39, 127
2, 63640, Note_off_c, 1, 50, 0
2, 63640, Note_on_c, 1, 54, 127
2, 63640, Note_off_c, 1, 62, 0
2, 63640, Note_on_c, 1, 66, 127
2, 63640, Note_off_c, 1, 72, 0
2, 63640, Note_on_c, 1, 73, 127
2, 63640, Note_off_c, 1, 77, 0
2, 63640, Note_off_c, 1, 81, 0
2, 63640, Note_off_c, 1, 84, 0
2, 63680, Note_off_c, 1, 39, 0
2, 63680, Note_on_c, 1, 58, 127
2, 63680, Note_on_c, 1, 63, 127
2, 63680, Note_off_c, 1, 73, 0
2, 63680, Note_on_c, 1, 82, 127
2, 63680, Note_on_c, 1, 94, 127
2, 63720, Note_on_c, 1, 43, 127
2, 63720, Note_on_c, 1, 46, 127
2, 63720, Note_off_c, 1, 58, 0
2, 63720, Note_off_c, 1, 63, 0
2, 63720, Note_off_c, 1, 82, 0
2, 63720, Note_off_c, 1, 94, 0
2, 63760, Note_on_c, 1, 33, 127
2, 63760, Note_on_c, 1, 36, 127
2, 63760, Note_off_c, 1, 43, 0
2, 63760, Note_on_c, 1, 45, 127
2, 63760, Note_off_c, 1, 46, 0
2, 63760, Note_off_c, 1, 54, 0
2, 63760, Note_off_c, 1, 66, 0
2, 63760, Note_on_c, 1, 77, 127
2, 63760, Note_on_c, 1, 89, 127
2, 63800, Note_off_c, 1, 33, 0
2, 63800, Note_off_c, 1, 36, 0
2, 63800, Note_off_c, 1, 45, 0
2, 63800, Note_on_c, 1, 66, 127
2, 63800, Note_on_c, 1, 71, 127
2, 63800, Note_on_c, 1, 74, 127
2, 63800, Note_on_c, 1, 76, 127
2, 63800, Note_off_c, 1, 77, 0
2, 63800, Note_off_c, 1, 89, 0
2, 63840, Note_on_c, 1, 41, 127
2, 63840, Note_off_c, 1, 66, 0
2, 63840, Note_off_c, 1, 71, 0
2, 63840, Note_off_c, 1, 74, 0
2, 63840, Note_off_c, 1, 76, 0
2, 63840, Note_on_c, 1, 81, 127
2, 63840, Note_on_c, 1, 87, 127
2, 63840, Note_on_c, 1, 89, 127
2, 63880, Note_off_c, 1, 41, 0
2, 63880, Note_off_c, 1, 81, 0
2, 63880, Note_off_c, 1, 87, 0
2, 63880, Note_off_c, 1, 89, 0
2, 63960, Note_on_c, 1, 42, 127
2, 63960, Note_on_c, 1, 54, 127
2, 63960, Note_on_c, 1, 73, 127
2, 63960, Note_on_c, 1, 78, 127
2, 63960, Note_on_c, 1, 82, 127
2, 64240, Note_off_c, 1, 42, 0
2, 64240, Note_off_c, 1, 54, 0
2, 64240, Note_off_c, 1, 73, 0
2, 64240, Note_off_c, 1, 78, 0
2, 64240, Note_off_c, 1, 82, 0
2, 64320, Note_on_c, 1, 42, 127
2, 64320, Note_on_c, 1, 54, 127
2, 64320, Note_on_c, 1, 73, 127
2, 64320, Note_on_c, 1, 78, 127
2, 64320, Note_on_c, 1, 82, 127
2, 64600, Note_off_c, 1, 42, 0
2, 64600, Note_off_c, 1, 54, 0
2, 64600, Note_off_c, 1, 73, 0
2, 64600, Note_off_c, 1, 78, 0
2, 64600, Note_off_c, 1, 82, 0
2, 64640, Note_on_c, 1, 42, 127
2, 64680, Note_off_c, 1, 42, 0
2, 64720, Note_on_c, 1, 42, 127
2, 64720, Note_on_c, 1, 54, 127
2, 64720, Note_on_c, 1, 58, 127
2, 64720, Note_on_c, 1, 61, 127
2, 64960, Note_off_c, 1, 54, 0
2, 64960, Note_off_c, 1, 58, 0
2, 64960, Note_off_c, 1, 61, 0
2, 65000, Note_off_c, 1, 42, 0
2, 65080, Note_on_c, 1, 41, 127
2, 65080, Note_on_c, 1, 57, 127
2, 65080, Note_on_c, 1, 60, 127
2, 65080, Note_on_c, 1, 65, 127
2, 65320, Note_off_c, 1, 41, 0
2, 65320, Note_off_c, 1, 57, 0
2, 65320, Note_off_c, 1, 60, 0
2, 65320, Note_off_c, 1, 65, 0
2, 65440, Note_on_c, 1, 41, 127
2, 65440, Note_on_c, 1, 57, 127
2, 65440, Note_on_c, 1, 60, 127
2, 65440, Note_on_c, 1, 65, 127
2, 65680, Note_off_c, 1, 41, 0
2, 65680, Note_off_c, 1, 57, 0
2, 65680, Note_off_c, 1, 60, 0
2, 65680, Note_off_c, 1, 65, 0
2, 65800, Note_on_c, 1, 41, 127
2, 65800, Note_on_c, 1, 57, 127
2, 65800, Note_on_c, 1, 60, 127
2, 65800, Note_on_c, 1, 65, 127
2, 66040, Note_off_c, 1, 41, 0
2, 66040, Note_off_c, 1, 57, 0
2, 66040, Note_off_c, 1, 60, 0
2, 66040, Note_off_c, 1, 65, 0
2, 66160, Note_on_c, 1, 41, 127
2, 66160, Note_on_c, 1, 57, 127
2, 66160, Note_on_c, 1, 60, 127
2, 66160, Note_on_c, 1, 65, 127
2, 66400, Note_off_c, 1, 41, 0
2, 66400, Note_off_c, 1, 57, 0
2, 66400, Note_off_c, 1, 60, 0
2, 66400, Note_off_c, 1, 65, 0
2, 66560, Note_on_c, 1, 41, 127
2, 66560, Note_on_c, 1, 57, 127
2, 66560, Note_on_c, 1, 60, 127
2, 66560, Note_on_c, 1, 65, 127
2, 66800, Note_off_c, 1, 41, 0
2, 66800, Note_off_c, 1, 57, 0
2, 66800, Note_off_c, 1, 60, 0
2, 66800, Note_off_c, 1, 65, 0
2, 66920, Note_on_c, 1, 41, 127
2, 66920, Note_on_c, 1, 57, 127
2, 66920, Note_on_c, 1, 60, 127
2, 66920, Note_on_c, 1, 65, 127
2, 67160, Note_off_c, 1, 41, 0
2, 67160, Note_off_c, 1, 57, 0
2, 67160, Note_off_c, 1, 60, 0
2, 67160, Note_off_c, 1, 65, 0
2, 67200, Note_on_c, 1, 52, 127
2, 67240, Note_off_c, 1, 52, 0
2, 67280, Note_on_c, 1, 60, 127
2, 67280, Note_on_c, 1, 63, 127
2, 67280, Note_on_c, 1, 69, 127
2, 67280, Note_on_c, 1, 81, 127
2, 67560, Note_off_c, 1, 60, 0
2, 67560, Note_off_c, 1, 63, 0
2, 67560, Note_off_c, 1, 69, 0
2, 67560, Note_off_c, 1, 81, 0
2, 67640, Note_on_c, 1, 60, 127
2, 67640, Note_on_c, 1, 63, 127
2, 67640, Note_on_c, 1, 69, 127
2, 67640, Note_on_c, 1, 81, 127
2, 67880, Note_off_c, 1, 60, 0
2, 67880, Note_off_c, 1, 63, 0
2, 67880, Note_off_c, 1, 69, 0
2, 67880, Note_off_c, 1, 81, 0
2, 68000, Note_on_c, 1, 60, 127
2, 68000, Note_on_c, 1, 63, 127
2, 68000, Note_on_c, 1, 69, 127
2, 68000, Note_on_c, 1, 81, 127
2, 68240, Note_off_c, 1, 60, 0
2, 68240, Note_off_c, 1, 63, 0
2, 68240, Note_off_c, 1, 69, 0
2, 68240, Note_off_c, 1, 81, 0
2, 68360, Note_on_c, 1, 60, 127
2, 68360, Note_on_c, 1, 63, 127
2, 68360, Note_on_c, 1, 81, 127
2, 68520, Note_off_c, 1, 60, 0
2, 68520, Note_off_c, 1, 63, 0
2, 68520, Note_off_c, 1, 81, 0
2, 68560, Note_on_c, 1, 60, 127
2, 68560, Note_on_c, 1, 63, 127
2, 68560, Note_on_c, 1, 81, 127
2, 68640, Note_off_c, 1, 60, 0
2, 68640, Note_off_c, 1, 63, 0
2, 68640, Note_off_c, 1, 81, 0
2, 68760, Note_on_c, 1, 60, 127
2, 68760, Note_on_c, 1, 63, 127
2, 68760, Note_on_c, 1, 69, 127
2, 68760, Note_on_c, 1, 81, 127
2, 68880, Note_off_c, 1, 81, 0
2, 68920, Note_on_c, 1, 79, 127
2, 69040, Note_off_c, 1, 60, 0
2, 69040, Note_off_c, 1, 63, 0
2, 69040, Note_off_c, 1, 69, 0
2, 69040, Note_off_c, 1, 79, 0
2, 69080, Note_on_c, 1, 60, 127
2, 69080, Note_on_c, 1, 63, 127
2, 69080, Note_on_c, 1, 69, 127
2, 69080, Note_on_c, 1, 77, 127
2, 69360, Note_off_c, 1, 60, 0
2, 69360, Note_off_c, 1, 63, 0
2, 69360, Note_off_c, 1, 69, 0
2, 69360, Note_off_c, 1, 77, 0
2, 69440, Note_on_c, 1, 60, 127
2, 69440, Note_on_c, 1, 63, 127
2, 69440, Note_on_c, 1, 69, 127
2, 69440, Note_on_c, 1, 77, 127
2, 69720, Note_off_c, 1, 60, 0
2, 69720, Note_off_c, 1, 63, 0
2, 69720, Note_off_c, 1, 69, 0
2, 69720, Note_off_c, 1, 77, 0
2, 69800, Note_on_c, 1, 60, 127
2, 69800, Note_on_c, 1, 63, 127
2, 69800, Note_on_c, 1, 69, 127
2, 69800, Note_on_c, 1, 77, 127
2, 70080, Note_off_c, 1, 60, 0
2, 70080, Note_off_c, 1, 63, 0
2, 70080, Note_off_c, 1, 69, 0
2, 70080, Note_off_c, 1, 77, 0
2, 70160, Note_on_c, 1, 51, 127
2, 70160, Note_on_c, 1, 58, 127
2, 70160, Note_on_c, 1, 63, 127
2, 70160, Note_on_c, 1, 67, 127
2, 70160, Note_on_c, 1, 75, 127
2, 70480, Note_off_c, 1, 67, 0
2, 70480, Note_off_c, 1, 75, 0
2, 70520, Note_off_c, 1, 51, 0
2, 70520, Note_off_c, 1, 58, 0
2, 70520, Note_off_c, 1, 63, 0
2, 70560, Note_on_c, 1, 51, 127
2, 70560, Note_on_c, 1, 58, 127
2, 70560, Note_on_c, 1, 63, 127
2, 70560, Note_on_c, 1, 67, 127
2, 70560, Note_on_c, 1, 75, 127
2, 71200, Note_off_c, 1, 51, 0
2, 71200, Note_off_c, 1, 58, 0
2, 71200, Note_off_c, 1, 63, 0
2, 71200, Note_off_c, 1, 67, 0
2, 71200, Note_on_c, 1, 74, 127
2, 71200, Note_off_c, 1, 75, 0
2, 71240, Note_on_c, 1, 70, 127
2, 71520, Note_off_c, 1, 70, 0
2, 71520, Note_off_c, 1, 74, 0
2, 71600, Note_on_c, 1, 48, 127
2, 71920, Note_off_c, 1, 48, 0
2, 71960, Note_on_c, 1, 50, 127
2, 72280, Note_off_c, 1, 50, 0
2, 72320, Note_on_c, 1, 58, 127
2, 72320, Note_on_c, 1, 63, 127
2, 72320, Note_on_c, 1, 67, 127
2, 72520, Note_off_c, 1, 58, 0
2, 72520, Note_off_c, 1, 63, 0
2, 72520, Note_off_c, 1, 67, 0
2, 72560, Note_on_c, 1, 58, 127
2, 72560, Note_on_c, 1, 63, 127
2, 72560, Note_on_c, 1, 67, 127
2, 72640, Note_off_c, 1, 58, 0
2, 72640, Note_off_c, 1, 63, 0
2, 72640, Note_off_c, 1, 67, 0
2, 72720, Note_on_c, 1, 63, 127
2, 72720, Note_on_c, 1, 67, 127
2, 72720, Note_on_c, 1, 69, 127
2, 73000, Note_off_c, 1, 63, 0
2, 73000, Note_off_c, 1, 67, 0
2, 73000, Note_off_c, 1, 69, 0
2, 73080, Note_on_c, 1, 63, 127
2, 73080, Note_on_c, 1, 67, 127
2, 73080, Note_on_c, 1, 69, 127
2, 73360, Note_off_c, 1, 63, 0
2, 73360, Note_off_c, 1, 67, 0
2, 73360, Note_off_c, 1, 69, 0
2, 73440, Note_on_c, 1, 63, 127
2, 73440, Note_on_c, 1, 67, 127
2, 73720, Note_off_c, 1, 63, 0
2, 73720, Note_off_c, 1, 67, 0
2, 73800, Note_on_c, 1, 58, 127
2, 73800, Note_on_c, 1, 67, 127
2, 73800, Note_on_c, 1, 70, 127
2, 74080, Note_off_c, 1, 67, 0
2, 74080, Note_off_c, 1, 70, 0
2, 74120, Note_off_c, 1, 58, 0
2, 74160, Note_on_c, 1, 58, 127
2, 74160, Note_on_c, 1, 63, 127
2, 74160, Note_on_c, 1, 67, 127
2, 74400, Note_off_c, 1, 58, 0
2, 74400, Note_off_c, 1, 63, 0
2, 74400, Note_off_c, 1, 67, 0
2, 74440, Note_on_c, 1, 58, 127
2, 74440, Note_on_c, 1, 63, 127
2, 74440, Note_on_c, 1, 67, 127
2, 74480, Note_off_c, 1, 67, 0
2, 74520, Note_on_c, 1, 67, 127
2, 74520, Note_on_c, 1, 75, 127
2, 74720, Note_on_c, 1, 55, 127
2, 74720, Note_on_c, 1, 62, 127
2, 74720, Note_off_c, 1, 63, 0
2, 74720, Note_on_c, 1, 70, 127
2, 74720, Note_off_c, 1, 75, 0
2, 74760, Note_off_c, 1, 55, 0
2, 74760, Note_off_c, 1, 62, 0
2, 74760, Note_on_c, 1, 63, 127
2, 74760, Note_off_c, 1, 70, 0
2, 74760, Note_on_c, 1, 75, 127
2, 74840, Note_off_c, 1, 58, 0
2, 74840, Note_off_c, 1, 63, 0
2, 74840, Note_off_c, 1, 67, 0
2, 74840, Note_on_c, 1, 70, 127
2, 74840, Note_off_c, 1, 75, 0
2, 74840, Note_on_c, 1, 78, 127
2, 74880, Note_on_c, 1, 48, 127
2, 74880, Note_on_c, 1, 57, 127
2, 74880, Note_on_c, 1, 65, 127
2, 74880, Note_off_c, 1, 70, 0
2, 74880, Note_on_c, 1, 75, 127
2, 74880, Note_off_c, 1, 78, 0
2, 75560, Note_off_c, 1, 48, 0
2, 75560, Note_off_c, 1, 57, 0
2, 75560, Note_off_c, 1, 65, 0
2, 75560, Note_off_c, 1, 75, 0
2, 75600, Note_on_c, 1, 51, 127
2, 75920, Note_off_c, 1, 51, 0
2, 75960, Note_on_c, 1, 55, 127
2, 76320, Note_off_c, 1, 55, 0
2, 76360, Note_on_c, 1, 55, 127
2, 76360, Note_on_c, 1, 63, 127
2, 76360, Note_on_c, 1, 67, 127
2, 76360, Note_on_c, 1, 70, 127
2, 76640, Note_off_c, 1, 55, 0
2, 76640, Note_on_c, 1, 56, 127
2, 76640, Note_off_c, 1, 63, 0
2, 76640, Note_on_c, 1, 65, 127
2, 76640, Note_off_c, 1, 67, 0
2, 76640, Note_on_c, 1, 68, 127
2, 76640, Note_off_c, 1, 70, 0
2, 76680, Note_on_c, 1, 54, 127
2, 76680, Note_on_c, 1, 63, 127
2, 76680, Note_off_c, 1, 65, 0
2, 76680, Note_on_c, 1, 72, 127
2, 76960, Note_off_c, 1, 54, 0
2, 76960, Note_off_c, 1, 56, 0
2, 76960, Note_off_c, 1, 63, 0
2, 76960, Note_off_c, 1, 68, 0
2, 76960, Note_off_c, 1, 72, 0
2, 77040, Note_on_c, 1, 32, 127
2, 77040, Note_on_c, 1, 44, 127
2, 77320, Note_off_c, 1, 32, 0
2, 77320, Note_off_c, 1, 44, 0
2, 77400, Note_on_c, 1, 60, 127
2, 77400, Note_on_c, 1, 63, 127
2, 77400, Note_on_c, 1, 67, 127
2, 77720, Note_off_c, 1, 60, 0
2, 77720, Note_off_c, 1, 63, 0
2, 77720, Note_on_c, 1, 64, 127
2, 77760, Note_on_c, 1, 62, 127
2, 77760, Note_on_c, 1, 63, 127
2, 77760, Note_off_c, 1, 64, 0
2, 77760, Note_on_c, 1, 72, 127
2, 78080, Note_off_c, 1, 62, 0
2, 78120, Note_on_c, 1, 61, 127
2, 78240, Note_off_c, 1, 61, 0
2, 78240, Note_off_c, 1, 63, 0
2, 78240, Note_off_c, 1, 67, 0
2, 78240, Note_off_c, 1, 72, 0
2, 78280, Note_on_c, 1, 61, 127
2, 78280, Note_on_c, 1, 63, 127
2, 78280, Note_on_c, 1, 67, 127
2, 78320, Note_on_c, 1, 72, 127
2, 78440, Note_off_c, 1, 61, 0
2, 78440, Note_off_c, 1, 63, 0
2, 78440, Note_on_c, 1, 64, 127
2, 78440, Note_off_c, 1, 67, 0
2, 78440, Note_on_c, 1, 71, 127
2, 78440, Note_off_c, 1, 72, 0
2, 78440, Note_on_c, 1, 83, 127
2, 78440, Note_on_c, 1, 90, 127
2, 78480, Note_off_c, 1, 64, 0
2, 78480, Note_off_c, 1, 71, 0
2, 78480, Note_off_c, 1, 83, 0
2, 78480, Note_off_c, 1, 90, 0
2, 78520, Note_on_c, 1, 68, 127
2, 78520, Note_on_c, 1, 72, 127
2, 78880, Note_on_c, 1, 57, 127
2, 79160, Note_off_c, 1, 57, 0
2, 79240, Note_on_c, 1, 57, 127
2, 79520, Note_off_c, 1, 57, 0
2, 79560, Note_on_c, 1, 57, 127
2, 79880, Note_off_c, 1, 57, 0
2, 79880, Note_off_c, 1, 68, 0
2, 79880, Note_off_c, 1, 72, 0
2, 79920, Note_on_c, 1, 64, 127
2, 79920, Note_on_c, 1, 69, 127
2, 80240, Note_off_c, 1, 69, 0
2, 80280, Note_on_c, 1, 45, 127
2, 80280, Note_on_c, 1, 61, 127
2, 80280, Note_on_c, 1, 71, 127
2, 80400, Note_off_c, 1, 45, 0
2, 80400, Note_off_c, 1, 61, 0
2, 80400, Note_off_c, 1, 64, 0
2, 80400, Note_off_c, 1, 71, 0
2, 80440, Note_on_c, 1, 45, 127
2, 80440, Note_on_c, 1, 61, 127
2, 80440, Note_on_c, 1, 64, 127
2, 80440, Note_on_c, 1, 71, 127
2, 81000, Note_off_c, 1, 45, 0
2, 81000, Note_off_c, 1, 61, 0
2, 81000, Note_off_c, 1, 64, 0
2, 81000, Note_off_c, 1, 71, 0
2, 81040, Note_on_c, 1, 50, 127
2, 81040, Note_on_c, 1, 57, 127
2, 81040, Note_on_c, 1, 62, 127
2, 81040, Note_on_c, 1, 66, 127
2, 82440, Note_off_c, 1, 57, 0
2, 82480, Note_on_c, 1, 57, 127
2, 82600, Note_off_c, 1, 50, 0
2, 82600, Note_off_c, 1, 57, 0
2, 82600, Note_off_c, 1, 62, 0
2, 82600, Note_off_c, 1, 66, 0
2, 82640, Note_on_c, 1, 50, 127
2, 82640, Note_on_c, 1, 57, 127
2, 82640, Note_on_c, 1, 62, 127
2, 82640, Note_on_c, 1, 66, 127
2, 82840, Note_off_c, 1, 50, 0
2, 82840, Note_off_c, 1, 62, 0
2, 82840, Note_off_c, 1, 66, 0
2, 82880, Note_on_c, 1, 45, 127
2, 82880, Note_on_c, 1, 61, 127
2, 82880, Note_on_c, 1, 64, 127
2, 83160, Note_off_c, 1, 45, 0
2, 83160, Note_off_c, 1, 57, 0
2, 83160, Note_off_c, 1, 61, 0
2, 83160, Note_off_c, 1, 64, 0
2, 83240, Note_on_c, 1, 33, 127
2, 83240, Note_on_c, 1, 45, 127
2, 83240, Note_on_c, 1, 64, 127
2, 83240, Note_on_c, 1, 69, 127
2, 83240, Note_on_c, 1, 73, 127
2, 83600, Note_off_c, 1, 33, 0
2, 83600, Note_on_c, 1, 38, 127
2, 83600, Note_off_c, 1, 45, 0
2, 83600, Note_on_c, 1, 50, 127
2, 83600, Note_off_c, 1, 64, 0
2, 83600, Note_on_c, 1, 65, 127
2, 84320, Note_on_c, 1, 71, 127
2, 84320, Note_off_c, 1, 73, 0
2, 84600, Note_off_c, 1, 38, 0
2, 84600, Note_on_c, 1, 41, 127
2, 84600, Note_on_c, 1, 48, 127
2, 84600, Note_off_c, 1, 50, 0
2, 84600, Note_on_c, 1, 57, 127
2, 84600, Note_off_c, 1, 65, 0
2, 84600, Note_off_c, 1, 69, 0
2, 84600, Note_off_c, 1, 71, 0
2, 84600, Note_on_c, 1, 81, 127
2, 84600, Note_on_c, 1, 84, 127
2, 84600, Note_on_c, 1, 89, 127
2, 84600, Note_on_c, 1, 93, 127
2, 84640, Note_off_c, 1, 41, 0
2, 84640, Note_off_c, 1, 48, 0
2, 84640, Note_off_c, 1, 57, 0
2, 84640, Note_off_c, 1, 81, 0
2, 84640, Note_off_c, 1, 84, 0
2, 84640, Note_off_c, 1, 89, 0
2, 84640, Note_off_c, 1, 93, 0
2, 84720, Note_on_c, 1, 46, 127
2, 84720, Note_on_c, 1, 54, 127
2, 84720, Note_on_c, 1, 61, 127
2, 84720, Note_on_c, 1, 64, 127
2, 84720, Note_on_c, 1, 66, 127
2, 85400, Note_off_c, 1, 66, 0
2, 85440, Note_on_c, 1, 68, 127
2, 85600, Note_off_c, 1, 68, 0
2, 85640, Note_on_c, 1, 66, 127
2, 85760, Note_off_c, 1, 66, 0
2, 85800, Note_on_c, 1, 68, 127
2, 85920, Note_off_c, 1, 68, 0
2, 85960, Note_on_c, 1, 68, 127
2, 86120, Note_off_c, 1, 46, 0
2, 86120, Note_off_c, 1, 54, 0
2, 86120, Note_off_c, 1, 61, 0
2, 86120, Note_off_c, 1, 64, 0
2, 86120, Note_off_c, 1, 68, 0
2, 86160, Note_on_c, 1, 42, 127
2, 86160, Note_on_c, 1, 58, 127
2, 86160, Note_on_c, 1, 61, 127
2, 86160, Note_on_c, 1, 68, 127
2, 86800, Note_off_c, 1, 42, 0
2, 86800, Note_off_c, 1, 68, 0
2, 86840, Note_on_c, 1, 42, 127
2, 86840, Note_on_c, 1, 68, 127
2, 86880, Note_off_c, 1, 42, 0
2, 86880, Note_off_c, 1, 58, 0
2, 86880, Note_off_c, 1, 61, 0
2, 86880, Note_off_c, 1, 68, 0
2, 86920, Note_on_c, 1, 42, 127
2, 86920, Note_on_c, 1, 58, 127
2, 86920, Note_on_c, 1, 61, 127
2, 86920, Note_on_c, 1, 68, 127
2, 87200, Note_off_c, 1, 68, 0
2, 87240, Note_on_c, 1, 66, 127
2, 87920, Note_off_c, 1, 42, 0
2, 87920, Note_off_c, 1, 58, 0
2, 87920, Note_off_c, 1, 61, 0
2, 87920, Note_off_c, 1, 66, 0
2, 88320, Note_on_c, 1, 59, 127
2, 88920, Note_off_c, 1, 59, 0
2, 88960, Note_on_c, 1, 59, 127
2, 89400, Note_off_c, 1, 59, 0
2, 89440, Note_on_c, 1, 47, 127
2, 89760, Note_off_c, 1, 47, 0
2, 90520, Note_on_c, 1, 58, 127
2, 90520, Note_on_c, 1, 78, 127
2, 90840, Note_off_c, 1, 58, 0
2, 90880, Note_on_c, 1, 61, 127
2, 91200, Note_off_c, 1, 61, 0
2, 91200, Note_off_c, 1, 78, 0
2, 91240, Note_on_c, 1, 78, 127
2, 91280, Note_on_c, 1, 66, 127
2, 91600, Note_off_c, 1, 66, 0
2, 91640, Note_on_c, 1, 58, 127
2, 91640, Note_on_c, 1, 70, 127
2, 91960, Note_off_c, 1, 58, 0
2, 91960, Note_off_c, 1, 78, 0
2, 92000, Note_on_c, 1, 56, 127
2, 92000, Note_on_c, 1, 78, 127
2, 92280, Note_off_c, 1, 70, 0
2, 92280, Note_on_c, 1, 72, 127
2, 92320, Note_off_c, 1, 56, 0
2, 92320, Note_off_c, 1, 72, 0
2, 92320, Note_off_c, 1, 78, 0
2, 92320, Note_on_c, 1, 80, 127
2, 92360, Note_on_c, 1, 69, 127
2, 92360, Note_on_c, 1, 75, 127
2, 92360, Note_on_c, 1, 78, 127
2, 92360, Note_off_c, 1, 80, 0
2, 92360, Note_on_c, 1, 87, 127
2, 92360, Note_on_c, 1, 90, 127
2, 92400, Note_on_c, 1, 36, 127
2, 92400, Note_on_c, 1, 39, 127
2, 92400, Note_on_c, 1, 44, 127
2, 92400, Note_on_c, 1, 48, 127
2, 92400, Note_on_c, 1, 60, 127
2, 92400, Note_on_c, 1, 63, 127
2, 92400, Note_on_c, 1, 68, 127
2, 92400, Note_off_c, 1, 69, 0
2, 92400, Note_on_c, 1, 72, 127
2, 92400, Note_off_c, 1, 75, 0
2, 92400, Note_off_c, 1, 78, 0
2, 92400, Note_off_c, 1, 87, 0
2, 92400, Note_off_c, 1, 90, 0
2, 92440, Note_off_c, 1, 36, 0
2, 92440, Note_off_c, 1, 39, 0
2, 92440, Note_off_c, 1, 44, 0
2, 92440, Note_off_c, 1, 48, 0
2, 92440, Note_off_c, 1, 60, 0
2, 92440, Note_off_c, 1, 63, 0
2, 92440, Note_off_c, 1, 68, 0
2, 92440, Note_on_c, 1, 69, 127
2, 92440, Note_off_c, 1, 72, 0
2, 92440, Note_on_c, 1, 75, 127
2, 92440, Note_on_c, 1, 78, 127
2, 92440, Note_on_c, 1, 87, 127
2, 92440, Note_on_c, 1, 90, 127
2, 92480, Note_on_c, 1, 43, 127
2, 92480, Note_on_c, 1, 50, 127
2, 92480, Note_on_c, 1, 55, 127
2, 92480, Note_on_c, 1, 65, 127
2, 92480, Note_off_c, 1, 69, 0
2, 92480, Note_on_c, 1, 71, 127
2, 92480, Note_off_c, 1, 75, 0
2, 92480, Note_off_c, 1, 78, 0
2, 92480, Note_on_c, 1, 79, 127
2, 92480, Note_off_c, 1, 87, 0
2, 92480, Note_off_c, 1, 90, 0
2, 92520, Note_off_c, 1, 43, 0
2, 92520, Note_on_c, 1, 46, 127
2, 92520, Note_off_c, 1, 50, 0
2, 92520, Note_off_c, 1, 55, 0
2, 92520, Note_on_c, 1, 58, 127
2, 92520, Note_off_c, 1, 65, 0
2, 92520, Note_on_c, 1, 67, 127
2, 92520, Note_off_c, 1, 71, 0
2, 92520, Note_on_c, 1, 73, 127
2, 92520, Note_on_c, 1, 75, 127
2, 92520, Note_off_c, 1, 79, 0
2, 92680, Note_off_c, 1, 46, 0
2, 92680, Note_off_c, 1, 58, 0
2, 92680, Note_off_c, 1, 67, 0
2, 92680, Note_off_c, 1, 73, 0
2, 92680, Note_off_c, 1, 75, 0
2, 92680, Note_on_c, 1, 78, 127
2, 92680, Note_on_c, 1, 81, 127
2, 92680, Note_on_c, 1, 85, 127
2, 92680, Note_on_c, 1, 90, 127
2, 92720, Note_on_c, 1, 48, 127
2, 92720, Note_on_c, 1, 60, 127
2, 92720, Note_on_c, 1, 72, 127
2, 92720, Note_on_c, 1, 75, 127
2, 92720, Note_off_c, 1, 78, 0
2, 92720, Note_on_c, 1, 80, 127
2, 92720, Note_off_c, 1, 81, 0
2, 92720, Note_off_c, 1, 85, 0
2, 92720, Note_off_c, 1, 90, 0
2, 93000, Note_off_c, 1, 48, 0
2, 93000, Note_off_c, 1, 60, 0
2, 93040, Note_off_c, 1, 72, 0
2, 93040, Note_off_c, 1, 75, 0
2, 93040, Note_off_c, 1, 80, 0
2, 93080, Note_on_c, 1, 65, 127
2, 93080, Note_on_c, 1, 69, 127
2, 93080, Note_on_c, 1, 75, 127
2, 93080, Note_on_c, 1, 77, 127
2, 93320, Note_off_c, 1, 65, 0
2, 93320, Note_off_c, 1, 69, 0
2, 93320, Note_off_c, 1, 75, 0
2, 93320, Note_off_c, 1, 77, 0
2, 93360, Note_on_c, 1, 65, 127
2, 93360, Note_on_c, 1, 69, 127
2, 93360, Note_on_c, 1, 75, 127
2, 93360, Note_on_c, 1, 77, 127
2, 93400, Note_off_c, 1, 65, 0
2, 93400, Note_off_c, 1, 69, 0
2, 93400, Note_off_c, 1, 75, 0
2, 93400, Note_off_c, 1, 77, 0
2, 93480, Note_on_c, 1, 86, 127
2, 93840, Note_on_c, 1, 70, 127
2, 93840, Note_on_c, 1, 74, 127
2, 93840, Note_off_c, 1, 86, 0
2, 93840, Note_on_c, 1, 89, 127
2, 93960, Note_off_c, 1, 89, 0
2, 94000, Note_on_c, 1, 89, 127
2, 94160, Note_off_c, 1, 89, 0
2, 94200, Note_off_c, 1, 74, 0
2, 94200, Note_on_c, 1, 77, 127
2, 94200, Note_on_c, 1, 86, 127
2, 94520, Note_off_c, 1, 70, 0
2, 94520, Note_off_c, 1, 77, 0
2, 94520, Note_off_c, 1, 86, 0
2, 94560, Note_on_c, 1, 78, 127
2, 94920, Note_on_c, 1, 70, 127
2, 94920, Note_on_c, 1, 73, 127
2, 95240, Note_off_c, 1, 70, 0
2, 95240, Note_off_c, 1, 73, 0
2, 95280, Note_on_c, 1, 63, 127
2, 95280, Note_on_c, 1, 66, 127
2, 95280, Note_off_c, 1, 78, 0
2, 95280, Note_on_c, 1, 90, 127
2, 95400, Note_off_c, 1, 63, 0
2, 95400, Note_off_c, 1, 66, 0
2, 95400, Note_off_c, 1, 90, 0
2, 95440, Note_on_c, 1, 63, 127
2, 95440, Note_on_c, 1, 66, 127
2, 95440, Note_on_c, 1, 90, 127
2, 95520, Note_off_c, 1, 90, 0
2, 95560, Note_on_c, 1, 90, 127
2, 95600, Note_off_c, 1, 63, 0
2, 95600, Note_off_c, 1, 66, 0
2, 95640, Note_on_c, 1, 63, 127
2, 95640, Note_on_c, 1, 66, 127
2, 95640, Note_off_c, 1, 90, 0
2, 95640, Note_on_c, 1, 94, 127
2, 95960, Note_off_c, 1, 63, 0
2, 95960, Note_off_c, 1, 66, 0
2, 95960, Note_on_c, 1, 87, 127
2, 95960, Note_off_c, 1, 94, 0
2, 96000, Note_on_c, 1, 65, 127
2, 96000, Note_on_c, 1, 71, 127
2, 96000, Note_on_c, 1, 73, 127
2, 96000, Note_on_c, 1, 85, 127
2, 96000, Note_off_c, 1, 87, 0
2, 96320, Note_off_c, 1, 65, 0
2, 96320, Note_off_c, 1, 71, 0
2, 96320, Note_off_c, 1, 73, 0
2, 96360, Note_on_c, 1, 65, 127
2, 96360, Note_on_c, 1, 71, 127
2, 96360, Note_on_c, 1, 73, 127
2, 96640, Note_off_c, 1, 65, 0
2, 96640, Note_off_c, 1, 71, 0
2, 96640, Note_off_c, 1, 73, 0
2, 96720, Note_on_c, 1, 54, 127
2, 96720, Note_on_c, 1, 63, 127
2, 96720, Note_on_c, 1, 82, 127
2, 96720, Note_off_c, 1, 85, 0
2, 96720, Note_on_c, 1, 94, 127
2, 97040, Note_off_c, 1, 82, 0
2, 97040, Note_off_c, 1, 94, 0
2, 97080, Note_on_c, 1, 82, 127
2, 97080, Note_on_c, 1, 94, 127
2, 97360, Note_off_c, 1, 54, 0
2, 97360, Note_off_c, 1, 63, 0
2, 97360, Note_off_c, 1, 82, 0
2, 97360, Note_off_c, 1, 94, 0
2, 97400, Note_on_c, 1, 54, 127
2, 97400, Note_on_c, 1, 63, 127
2, 97480, Note_on_c, 1, 49, 127
2, 97480, Note_off_c, 1, 54, 0
2, 97480, Note_on_c, 1, 59, 127
2, 97480, Note_on_c, 1, 62, 127
2, 97480, Note_off_c, 1, 63, 0
2, 97480, Note_on_c, 1, 65, 127
2, 97480, Note_on_c, 1, 70, 127
2, 97560, Note_off_c, 1, 49, 0
2, 97560, Note_on_c, 1, 54, 127
2, 97560, Note_off_c, 1, 59, 0
2, 97560, Note_off_c, 1, 62, 0
2, 97560, Note_off_c, 1, 65, 0
2, 97560, Note_off_c, 1, 70, 0
2, 97560, Note_on_c, 1, 78, 127
2, 97560, Note_on_c, 1, 90, 127
2, 97560, Note_on_c, 1, 93, 127
2, 97600, Note_on_c, 1, 49, 127
2, 97600, Note_off_c, 1, 54, 0
2, 97600, Note_on_c, 1, 59, 127
2, 97600, Note_on_c, 1, 62, 127
2, 97600, Note_on_c, 1, 65, 127
2, 97600, Note_on_c, 1, 70, 127
2, 97600, Note_off_c, 1, 78, 0
2, 97600, Note_off_c, 1, 90, 0
2, 97600, Note_off_c, 1, 93, 0
2, 97640, Note_off_c, 1, 49, 0
2, 97640, Note_off_c, 1, 59, 0
2, 97640, Note_off_c, 1, 62, 0
2, 97640, Note_off_c, 1, 65, 0
2, 97640, Note_on_c, 1, 66, 127
2, 97640, Note_on_c, 1, 69, 127
2, 97640, Note_off_c, 1, 70, 0
2, 97640, Note_on_c, 1, 98, 127
2, 97680, Note_on_c, 1, 34, 127
2, 97680, Note_on_c, 1, 40, 127
2, 97680, Note_off_c, 1, 66, 0
2, 97680, Note_off_c, 1, 69, 0
2, 97680, Note_on_c, 1, 74, 127
2, 97680, Note_on_c, 1, 80, 127
2, 97680, Note_on_c, 1, 86, 127
2, 97680, Note_off_c, 1, 98, 0
2, 97720, Note_off_c, 1, 34, 0
2, 97720, Note_off_c, 1, 40, 0
2, 97720, Note_on_c, 1, 60, 127
2, 97720, Note_on_c, 1, 63, 127
2, 97720, Note_on_c, 1, 66, 127
2, 97720, Note_off_c, 1, 74, 0
2, 97720, Note_off_c, 1, 80, 0
2, 97720, Note_off_c, 1, 86, 0
2, 97760, Note_on_c, 1, 38, 127
2, 97760, Note_on_c, 1, 50, 127
2, 97760, Note_off_c, 1, 60, 0
2, 97760, Note_off_c, 1, 63, 0
2, 97760, Note_on_c, 1, 65, 127
2, 97760, Note_off_c, 1, 66, 0
2, 97760, Note_on_c, 1, 69, 127
2, 97760, Note_on_c, 1, 71, 127
2, 97760, Note_on_c, 1, 74, 127
2, 97800, Note_off_c, 1, 38, 0
2, 97800, Note_off_c, 1, 50, 0
2, 97800, Note_off_c, 1, 65, 0
2, 97800, Note_off_c, 1, 69, 0
2, 97800, Note_off_c, 1, 71, 0
2, 97800, Note_off_c, 1, 74, 0
2, 97840, Note_on_c, 1, 66, 127
2, 97840, Note_on_c, 1, 87, 127
2, 97840, Note_on_c, 1, 90, 127
2, 98160, Note_off_c, 1, 66, 0
2, 98160, Note_off_c, 1, 87, 0
2, 98160, Note_off_c, 1, 90, 0
2, 98200, Note_on_c, 1, 70, 127
2, 98200, Note_on_c, 1, 87, 127
2, 98200, Note_on_c, 1, 90, 127
2, 98480, Note_off_c, 1, 70, 0
2, 98480, Note_off_c, 1, 87, 0
2, 98480, Note_off_c, 1, 90, 0
2, 98520, Note_on_c, 1, 66, 127
2, 98520, Note_on_c, 1, 90, 127
2, 98520, Note_on_c, 1, 94, 127
2, 98760, Note_off_c, 1, 66, 0
2, 98880, Note_on_c, 1, 65, 127
2, 99040, Note_off_c, 1, 65, 0
2, 99080, Note_on_c, 1, 65, 127
2, 99200, Note_off_c, 1, 65, 0
2, 99200, Note_off_c, 1, 90, 0
2, 99200, Note_off_c, 1, 94, 0
2, 99240, Note_on_c, 1, 59, 127
2, 99240, Note_on_c, 1, 77, 127
2, 99240, Note_on_c, 1, 85, 127
2, 99440, Note_off_c, 1, 59, 0
2, 99440, Note_off_c, 1, 77, 0
2, 99440, Note_off_c, 1, 85, 0
2, 99480, Note_on_c, 1, 50, 127
2, 99480, Note_on_c, 1, 62, 127
2, 99480, Note_on_c, 1, 79, 127
2, 99480, Note_on_c, 1, 83, 127
2, 99480, Note_on_c, 1, 86, 127
2, 99520, Note_off_c, 1, 50, 0
2, 99520, Note_on_c, 1, 59, 127
2, 99520, Note_off_c, 1, 62, 0
2, 99520, Note_on_c, 1, 77, 127
2, 99520, Note_off_c, 1, 79, 0
2, 99520, Note_off_c, 1, 83, 0
2, 99520, Note_on_c, 1, 85, 127
2, 99520, Note_off_c, 1, 86, 0
2, 99560, Note_on_c, 1, 34, 127
2, 99560, Note_on_c, 1, 46, 127
2, 99560, Note_on_c, 1, 55, 127
2, 99560, Note_off_c, 1, 59, 0
2, 99560, Note_on_c, 1, 62, 127
2, 99560, Note_off_c, 1, 77, 0
2, 99560, Note_off_c, 1, 85, 0
2, 99600, Note_off_c, 1, 34, 0
2, 99600, Note_off_c, 1, 46, 0
2, 99600, Note_off_c, 1, 55, 0
2, 99600, Note_off_c, 1, 62, 0
2, 99600, Note_on_c, 1, 80, 127
2, 99640, Note_on_c, 1, 68, 127
2, 99640, Note_on_c, 1, 75, 127
2, 99640, Note_on_c, 1, 78, 127
2, 99640, Note_off_c, 1, 80, 0
2, 99640, Note_on_c, 1, 83, 127
2, 99960, Note_off_c, 1, 68, 0
2, 99960, Note_off_c, 1, 75, 0
2, 99960, Note_off_c, 1, 78, 0
2, 99960, Note_off_c, 1, 83, 0
2, 99960, Note_on_c, 1, 85, 127
2, 100000, Note_on_c, 1, 68, 127
2, 100000, Note_on_c, 1, 75, 127
2, 100000, Note_on_c, 1, 78, 127
2, 100000, Note_on_c, 1, 83, 127
2, 100000, Note_off_c, 1, 85, 0
2, 100320, Note_off_c, 1, 68, 0
2, 100320, Note_off_c, 1, 75, 0
2, 100320, Note_off_c, 1, 78, 0
2, 100320, Note_off_c, 1, 83, 0
2, 100360, Note_on_c, 1, 92, 127
2, 100360, Note_on_c, 1, 95, 127
2, 100680, Note_off_c, 1, 92, 0
2, 100680, Note_off_c, 1, 95, 0
2, 100720, Note_on_c, 1, 71, 127
2, 100720, Note_on_c, 1, 76, 127
2, 100720, Note_on_c, 1, 80, 127
2, 100720, Note_on_c, 1, 88, 127
2, 101040, Note_off_c, 1, 71, 0
2, 101040, Note_off_c, 1, 76, 0
2, 101080, Note_on_c, 1, 71, 127
2, 101080, Note_on_c, 1, 76, 127
2, 101360, Note_off_c, 1, 71, 0
2, 101360, Note_off_c, 1, 76, 0
2, 101360, Note_on_c, 1, 83, 127
2, 101360, Note_off_c, 1, 88, 0
2, 101400, Note_off_c, 1, 80, 0
2, 101400, Note_off_c, 1, 83, 0
2, 101440, Note_on_c, 1, 69, 127
2, 101440, Note_on_c, 1, 79, 127
2, 101440, Note_on_c, 1, 85, 127
2, 101560, Note_off_c, 1, 69, 0
2, 101560, Note_off_c, 1, 79, 0
2, 101560, Note_off_c, 1, 85, 0
2, 101600, Note_on_c, 1, 69, 127
2, 101600, Note_on_c, 1, 79, 127
2, 101600, Note_on_c, 1, 85, 127
2, 101760, Note_off_c, 1, 69, 0
2, 101760, Note_off_c, 1, 79, 0
2, 101760, Note_on_c, 1, 81, 127
2, 101760, Note_off_c, 1, 85, 0
2, 101800, Note_on_c, 1, 69, 127
2, 101800, Note_on_c, 1, 73, 127
2, 101800, Note_off_c, 1, 81, 0
2, 101800, Note_on_c, 1, 90, 127
2, 102120, Note_off_c, 1, 69, 0
2, 102120, Note_off_c, 1, 73, 0
2, 102120, Note_off_c, 1, 90, 0
2, 102160, Note_on_c, 1, 66, 127
2, 102160, Note_on_c, 1, 69, 127
2, 102160, Note_on_c, 1, 93, 127
2, 102480, Note_off_c, 1, 66, 0
2, 102480, Note_off_c, 1, 69, 0
2, 102480, Note_off_c, 1, 93, 0
2, 102520, Note_on_c, 1, 61, 127
2, 102520, Note_on_c, 1, 87, 127
2, 102520, Note_on_c, 1, 90, 127
2, 102680, Note_off_c, 1, 61, 0
2, 102720, Note_on_c, 1, 63, 127
2, 102840, Note_off_c, 1, 63, 0
2, 102840, Note_off_c, 1, 87, 0
2, 102840, Note_off_c, 1, 90, 0
2, 102880, Note_on_c, 1, 64, 127
2, 102880, Note_on_c, 1, 85, 127
2, 102880, Note_on_c, 1, 88, 127
2, 103040, Note_off_c, 1, 64, 0
2, 103080, Note_on_c, 1, 68, 127
2, 103200, Note_off_c, 1, 68, 0
2, 103200, Note_off_c, 1, 85, 0
2, 103200, Note_off_c, 1, 88, 0
2, 103240, Note_on_c, 1, 61, 127
2, 103240, Note_on_c, 1, 87, 127
2, 103240, Note_on_c, 1, 90, 127
2, 103400, Note_off_c, 1, 61, 0
2, 103440, Note_on_c, 1, 63, 127
2, 103560, Note_off_c, 1, 63, 0
2, 103560, Note_off_c, 1, 87, 0
2, 103560, Note_off_c, 1, 90, 0
2, 103600, Note_on_c, 1, 66, 127
2, 103600, Note_on_c, 1, 87, 127
2, 103600, Note_on_c, 1, 90, 127
2, 103680, Note_off_c, 1, 66, 0
2, 103680, Note_off_c, 1, 87, 0
2, 103680, Note_off_c, 1, 90, 0
2, 103720, Note_on_c, 1, 66, 127
2, 103720, Note_on_c, 1, 87, 127
2, 103720, Note_on_c, 1, 90, 127
2, 103960, Note_off_c, 1, 66, 0
2, 103960, Note_off_c, 1, 87, 0
2, 103960, Note_off_c, 1, 90, 0
2, 104000, Note_on_c, 1, 63, 127
2, 104000, Note_on_c, 1, 89, 127
2, 104000, Note_on_c, 1, 92, 127
2, 104320, Note_off_c, 1, 63, 0
2, 104360, Note_on_c, 1, 64, 127
2, 104360, Note_off_c, 1, 89, 0
2, 104360, Note_on_c, 1, 90, 127
2, 104360, Note_off_c, 1, 92, 0
2, 104360, Note_on_c, 1, 102, 127
2, 104680, Note_off_c, 1, 64, 0
2, 104680, Note_off_c, 1, 90, 0
2, 104680, Note_off_c, 1, 102, 0
2, 104720, Note_on_c, 1, 38, 127
2, 104720, Note_on_c, 1, 50, 127
2, 104720, Note_on_c, 1, 81, 127
2, 104720, Note_on_c, 1, 86, 127
2, 104720, Note_on_c, 1, 93, 127
2, 105000, Note_on_c, 1, 33, 127
2, 105000, Note_off_c, 1, 38, 0
2, 105000, Note_on_c, 1, 45, 127
2, 105000, Note_off_c, 1, 50, 0
2, 105000, Note_on_c, 1, 85, 127
2, 105000, Note_off_c, 1, 86, 0
2, 105040, Note_off_c, 1, 33, 0
2, 105040, Note_off_c, 1, 45, 0
2, 105040, Note_off_c, 1, 81, 0
2, 105040, Note_off_c, 1, 85, 0
2, 105040, Note_off_c, 1, 93, 0
2, 105080, Note_on_c, 1, 65, 127
2, 105080, Note_on_c, 1, 73, 127
2, 105080, Note_on_c, 1, 77, 127
2, 105240, Note_on_c, 1, 61, 127
2, 105240, Note_off_c, 1, 65, 0
2, 105400, Note_off_c, 1, 61, 0
2, 105400, Note_off_c, 1, 73, 0
2, 105400, Note_off_c, 1, 77, 0
2, 105440, Note_on_c, 1, 70, 127
2, 105440, Note_on_c, 1, 75, 127
2, 105440, Note_on_c, 1, 78, 127
2, 105800, Note_off_c, 1, 70, 0
2, 105800, Note_off_c, 1, 75, 0
2, 105800, Note_off_c, 1, 78, 0
2, 105840, Note_on_c, 1, 45, 127
2, 105840, Note_on_c, 1, 61, 127
2, 105840, Note_on_c, 1, 76, 127
2, 105840, Note_on_c, 1, 79, 127
2, 105840, Note_on_c, 1, 82, 127
2, 105880, Note_off_c, 1, 45, 0
2, 105880, Note_on_c, 1, 46, 127
2, 105880, Note_off_c, 1, 61, 0
2, 105880, Note_off_c, 1, 76, 0
2, 105880, Note_off_c, 1, 79, 0
2, 105880, Note_off_c, 1, 82, 0
2, 105880, Note_on_c, 1, 86, 127
2, 105880, Note_on_c, 1, 91, 127
2, 105920, Note_on_c, 1, 45, 127
2, 105920, Note_off_c, 1, 46, 0
2, 105920, Note_on_c, 1, 47, 127
2, 105920, Note_on_c, 1, 57, 127
2, 105920, Note_on_c, 1, 63, 127
2, 105920, Note_on_c, 1, 66, 127
2, 105920, Note_on_c, 1, 71, 127
2, 105920, Note_on_c, 1, 75, 127
2, 105920, Note_off_c, 1, 86, 0
2, 105920, Note_off_c, 1, 91, 0
2, 105960, Note_off_c, 1, 47, 0
2, 105960, Note_on_c, 1, 53, 127
2, 105960, Note_off_c, 1, 63, 0
2, 105960, Note_on_c, 1, 64, 127
2, 105960, Note_off_c, 1, 66, 0
2, 105960, Note_off_c, 1, 71, 0
2, 105960, Note_off_c, 1, 75, 0
2, 106000, Note_off_c, 1, 45, 0
2, 106000, Note_on_c, 1, 46, 127
2, 106000, Note_off_c, 1, 53, 0
2, 106000, Note_on_c, 1, 55, 127
2, 106000, Note_off_c, 1, 57, 0
2, 106000, Note_off_c, 1, 64, 0
2, 106000, Note_on_c, 1, 70, 127
2, 106000, Note_on_c, 1, 75, 127
2, 106120, Note_off_c, 1, 46, 0
2, 106120, Note_off_c, 1, 55, 0
2, 106120, Note_on_c, 1, 74, 127
2, 106120, Note_off_c, 1, 75, 0
2, 106160, Note_on_c, 1, 39, 127
2, 106160, Note_on_c, 1, 42, 127
2, 106160, Note_on_c, 1, 45, 127
2, 106160, Note_on_c, 1, 48, 127
2, 106160, Note_off_c, 1, 70, 0
2, 106160, Note_off_c, 1, 74, 0
2, 106160, Note_on_c, 1, 78, 127
2, 106160, Note_on_c, 1, 90, 127
2, 106200, Note_off_c, 1, 39, 0
2, 106200, Note_off_c, 1, 45, 0
2, 106200, Note_off_c, 1, 48, 0
2, 106200, Note_on_c, 1, 51, 127
2, 106200, Note_on_c, 1, 59, 127
2, 106200, Note_on_c, 1, 66, 127
2, 106200, Note_off_c, 1, 78, 0
2, 106200, Note_off_c, 1, 90, 0
2, 106480, Note_off_c, 1, 42, 0
2, 106480, Note_off_c, 1, 51, 0
2, 106480, Note_off_c, 1, 59, 0
2, 106480, Note_off_c, 1, 66, 0
2, 106480, Note_on_c, 1, 78, 127
2, 106480, Note_on_c, 1, 90, 127
2, 106520, Note_on_c, 1, 39, 127
2, 106520, Note_on_c, 1, 51, 127
2, 106520, Note_on_c, 1, 70, 127
2, 106520, Note_on_c, 1, 76, 127
2, 106520, Note_off_c, 1, 78, 0
2, 106520, Note_on_c, 1, 80, 127
2, 106520, Note_off_c, 1, 90, 0
2, 106840, Note_off_c, 1, 39, 0
2, 106840, Note_off_c, 1, 51, 0
2, 106840, Note_off_c, 1, 70, 0
2, 106840, Note_off_c, 1, 76, 0
2, 106840, Note_off_c, 1, 80, 0
2, 106880, Note_on_c, 1, 72, 127
2, 106880, Note_on_c, 1, 86, 127
2, 106880, Note_on_c, 1, 90, 127
2, 107200, Note_off_c, 1, 72, 0
2, 107240, Note_on_c, 1, 72, 127
2, 107560, Note_off_c, 1, 72, 0
2, 107560, Note_off_c, 1, 86, 0
2, 107560, Note_on_c, 1, 93, 127
2, 107600, Note_on_c, 1, 74, 127
2, 107600, Note_on_c, 1, 86, 127
2, 107600, Note_off_c, 1, 93, 0
2, 107920, Note_off_c, 1, 74, 0
2, 107920, Note_off_c, 1, 86, 0
2, 107920, Note_off_c, 1, 90, 0
2, 108000, Note_on_c, 1, 60, 127
2, 108000, Note_on_c, 1, 78, 127
2, 108000, Note_on_c, 1, 86, 127
2, 108280, Note_off_c, 1, 60, 0
2, 108320, Note_on_c, 1, 62, 127
2, 109000, Note_off_c, 1, 62, 0
2, 109000, Note_off_c, 1, 86, 0
2, 109040, Note_on_c, 1, 62, 127
2, 109040, Note_on_c, 1, 81, 127
2, 109280, Note_off_c, 1, 62, 0
2, 109320, Note_on_c, 1, 60, 127
2, 109360, Note_off_c, 1, 60, 0
2, 109360, Note_off_c, 1, 78, 0
2, 109360, Note_off_c, 1, 81, 0
2, 109400, Note_on_c, 1, 62, 127
2, 109400, Note_on_c, 1, 79, 127
2, 109400, Note_on_c, 1, 83, 127
2, 109720, Note_off_c, 1, 62, 0
2, 109760, Note_on_c, 1, 59, 127
2, 110040, Note_off_c, 1, 59, 0
2, 110040, Note_off_c, 1, 79, 0
2, 110040, Note_off_c, 1, 83, 0
2, 110080, Note_on_c, 1, 59, 127
2, 110080, Note_on_c, 1, 79, 127
2, 110080, Note_on_c, 1, 83, 127
2, 110120, Note_off_c, 1, 59, 0
2, 110160, Note_on_c, 1, 54, 127
2, 110480, Note_off_c, 1, 54, 0
2, 110480, Note_off_c, 1, 79, 0
2, 110480, Note_off_c, 1, 83, 0
2, 110520, Note_on_c, 1, 52, 127
2, 110520, Note_on_c, 1, 79, 127
2, 110520, Note_on_c, 1, 83, 127
2, 110840, Note_off_c, 1, 52, 0
2, 110880, Note_on_c, 1, 64, 127
2, 111200, Note_off_c, 1, 64, 0
2, 111240, Note_on_c, 1, 66, 127
2, 111560, Note_off_c, 1, 66, 0
2, 111600, Note_on_c, 1, 66, 127
2, 111920, Note_off_c, 1, 66, 0
2, 111960, Note_on_c, 1, 64, 127
2, 112080, Note_off_c, 1, 64, 0
2, 112080, Note_off_c, 1, 79, 0
2, 112080, Note_off_c, 1, 83, 0
2, 112120, Note_on_c, 1, 64, 127
2, 112120, Note_on_c, 1, 79, 127
2, 112120, Note_on_c, 1, 83, 127
2, 112280, Note_off_c, 1, 64, 0
2, 112320, Note_on_c, 1, 66, 127
2, 112640, Note_off_c, 1, 66, 0
2, 112680, Note_on_c, 1, 67, 127
2, 113000, Note_off_c, 1, 67, 0
2, 113000, Note_off_c, 1, 79, 0
2, 113000, Note_off_c, 1, 83, 0
2, 113040, Note_on_c, 1, 71, 127
2, 113040, Note_on_c, 1, 79, 127
2, 113040, Note_on_c, 1, 83, 127
2, 113360, Note_off_c, 1, 71, 0
2, 113400, Note_on_c, 1, 67, 127
2, 113720, Note_off_c, 1, 67, 0
2, 113760, Note_on_c, 1, 66, 127
2, 114080, Note_off_c, 1, 66, 0
2, 114120, Note_on_c, 1, 64, 127
2, 114240, Note_off_c, 1, 64, 0
2, 114240, Note_off_c, 1, 79, 0
2, 114240, Note_off_c, 1, 83, 0
2, 114280, Note_on_c, 1, 79, 127
2, 114280, Note_on_c, 1, 83, 127
2, 114320, Note_on_c, 1, 66, 127
2, 114440, Note_off_c, 1, 66, 0
2, 114480, Note_on_c, 1, 64, 127
2, 114640, Note_off_c, 1, 64, 0
2, 114680, Note_on_c, 1, 66, 127
2, 114800, Note_off_c, 1, 66, 0
2, 114840, Note_on_c, 1, 67, 127
2, 115000, Note_off_c, 1, 67, 0
2, 115040, Note_on_c, 1, 71, 127
2, 115160, Note_off_c, 1, 71, 0
2, 115200, Note_on_c, 1, 67, 127
2, 115360, Note_off_c, 1, 67, 0
2, 115400, Note_on_c, 1, 59, 127
2, 115520, Note_off_c, 1, 59, 0
2, 115520, Note_off_c, 1, 79, 0
2, 115520, Note_off_c, 1, 83, 0
2, 115560, Note_on_c, 1, 55, 127
2, 115560, Note_on_c, 1, 76, 127
2, 115560, Note_on_c, 1, 79, 127
2, 115880, Note_off_c, 1, 55, 0
2, 115920, Note_on_c, 1, 59, 127
2, 116240, Note_off_c, 1, 59, 0
2, 116240, Note_off_c, 1, 76, 0
2, 116240, Note_off_c, 1, 79, 0
2, 116280, Note_on_c, 1, 59, 127
2, 116280, Note_on_c, 1, 75, 127
2, 116280, Note_on_c, 1, 78, 127
2, 116400, Note_off_c, 1, 59, 0
2, 116400, Note_off_c, 1, 75, 0
2, 116400, Note_off_c, 1, 78, 0
2, 116440, Note_on_c, 1, 59, 127
2, 116440, Note_on_c, 1, 75, 127
2, 116440, Note_on_c, 1, 78, 127
2, 116640, Note_off_c, 1, 59, 0
2, 116640, Note_off_c, 1, 75, 0
2, 116640, Note_off_c, 1, 78, 0
2, 116680, Note_on_c, 1, 42, 127
2, 116680, Note_on_c, 1, 73, 127
2, 116680, Note_on_c, 1, 76, 127
2, 117000, Note_off_c, 1, 42, 0
2, 117040, Note_on_c, 1, 47, 127
2, 117040, Note_on_c, 1, 71, 127
2, 117040, Note_off_c, 1, 73, 0
2, 117040, Note_on_c, 1, 75, 127
2, 117040, Note_off_c, 1, 76, 0
2, 117360, Note_off_c, 1, 47, 0
2, 117400, Note_on_c, 1, 47, 127
2, 117720, Note_off_c, 1, 47, 0
2, 117720, Note_off_c, 1, 71, 0
2, 117720, Note_off_c, 1, 75, 0
2, 117760, Note_on_c, 1, 47, 127
2, 118080, Note_off_c, 1, 47, 0
2, 118120, Note_on_c, 1, 54, 127
2, 118440, Note_off_c, 1, 54, 0
2, 118480, Note_on_c, 1, 47, 127
2, 118640, Note_off_c, 1, 47, 0
2, 118680, Note_on_c, 1, 47, 127
2, 118840, Note_off_c, 1, 47, 0
2, 118880, Note_on_c, 1, 54, 127
2, 119200, Note_off_c, 1, 54, 0
2, 119240, Note_on_c, 1, 59, 127
2, 119560, Note_off_c, 1, 59, 0
2, 119600, Note_on_c, 1, 52, 127
2, 119920, Note_off_c, 1, 52, 0
2, 119960, Note_on_c, 1, 59, 127
2, 120000, Note_off_c, 1, 59, 0
2, 120040, End_track
3, 0, Start_track
3, 0, Title_t, "MIDI"
3, 1536, End_track
0, 0, End_of_file
