0, 0, Header, 1, 3, 192
1, 0, Start_track
1, 0, Time_signature, 4, 2, 24, 8
1, 0, Tempo, 500000
1, 120040, End_track
2, 0, Start_track
2, 0, Text_t, "random instrument: random person i dunno whatev"
2, 0, Title_t, "Track 1"
2, 0, Note_on_c, 1, 40, 127
2, 0, Note_on_c, 1, 48, 127
2, 0, Note_on_c, 1, 56, 127
2, 0, Note_on_c, 1, 60, 127
2, 160, Note_off_c, 1, 40, 0
2, 160, Note_off_c, 1, 48, 0
2, 160, Note_off_c, 1, 56, 0
2, 160, Note_off_c, 1, 60, 0
2, 200, Note_on_c, 1, 35, 127
2, 200, Note_on_c, 1, 39, 127
2, 200, Note_on_c, 1, 47, 127
2, 200, Note_on_c, 1, 50, 127
2, 240, Note_off_c, 1, 35, 0
2, 240, Note_off_c, 1, 39, 0
2, 240, Note_off_c, 1, 47, 0
2, 240, Note_off_c, 1, 50, 0
2, 520, Note_on_c, 1, 42, 127
2, 520, Note_on_c, 1, 46, 127
2, 520, Note_on_c, 1, 49, 127
2, 520, Note_on_c, 1, 54, 127
2, 520, Note_on_c, 1, 66, 127
2, 520, Note_on_c, 1, 70, 127
2, 520, Note_on_c, 1, 73, 127
2, 520, Note_on_c, 1, 78, 127
2, 560, Note_off_c, 1, 42, 0
2, 560, Note_off_c, 1, 46, 0
2, 560, Note_off_c, 1, 49, 0
2, 560, Note_off_c, 1, 54, 0
2, 560, Note_off_c, 1, 66, 0
2, 560, Note_off_c, 1, 70, 0
2, 560, Note_off_c, 1, 73, 0
2, 560, Note_off_c, 1, 78, 0
2, 1440, Note_on_c, 1, 44, 127
2, 1440, Note_on_c, 1, 56, 127
2, 1440, Note_on_c, 1, 72, 127
2, 1440, Note_on_c, 1, 80, 127
2, 2000, Note_off_c, 1, 44, 0
2, 2000, Note_off_c, 1, 56, 0
2, 2000, Note_off_c, 1, 72, 0
2, 2000, Note_off_c, 1, 80, 0
2, 2040, Note_on_c, 1, 44, 127
2, 2040, Note_on_c, 1, 56, 127
2, 2040, Note_on_c, 1, 72, 127
2, 2040, Note_on_c, 1, 80, 127
2, 2560, Note_off_c, 1, 72, 0
2, 2560, Note_off_c, 1, 80, 0
2, 2600, Note_on_c, 1, 72, 127
2, 2600, Note_on_c, 1, 80, 127
2, 2800, Note_off_c, 1, 44, 0
2, 2800, Note_off_c, 1, 56, 0
2, 2800, Note_off_c, 1, 72, 0
2, 2800, Note_off_c, 1, 80, 0
2, 2840, Note_on_c, 1, 44, 127
2, 2840, Note_on_c, 1, 56, 127
2, 2840, Note_on_c, 1, 72, 127
2, 2840, Note_on_c, 1, 80, 127
2, 3000, Note_off_c, 1, 72, 0
2, 3000, Note_off_c, 1, 80, 0
2, 3760, Note_off_c, 1, 44, 0
2, 3760, Note_off_c, 1, 56, 0
2, 3800, Note_on_c, 1, 44, 127
2, 3800, Note_on_c, 1, 56, 127
2, 4880, Note_off_c, 1, 44, 0
2, 4880, Note_off_c, 1, 56, 0
2, 5600, Note_on_c, 1, 37, 127
2, 5600, Note_on_c, 1, 49, 127
2, 5600, Note_on_c, 1, 56, 127
2, 5760, Note_off_c, 1, 56, 0
2, 5760, Note_on_c, 1, 61, 127
2, 5800, Note_off_c, 1, 37, 0
2, 5800, Note_off_c, 1, 49, 0
2, 5800, Note_off_c, 1, 61, 0
2, 5840, Note_on_c, 1, 37, 127
2, 5840, Note_on_c, 1, 49, 127
2, 5840, Note_on_c, 1, 61, 127
2, 6040, Note_off_c, 1, 61, 0
2, 6080, Note_on_c, 1, 64, 127
2, 6280, Note_off_c, 1, 64, 0
2, 6320, Note_on_c, 1, 56, 127
2, 6520, Note_off_c, 1, 56, 0
2, 6560, Note_on_c, 1, 61, 127
2, 6800, Note_off_c, 1, 61, 0
2, 6840, Note_on_c, 1, 56, 127
2, 7040, Note_off_c, 1, 37, 0
2, 7040, Note_off_c, 1, 49, 0
2, 7040, Note_off_c, 1, 56, 0
2, 7080, Note_on_c, 1, 37, 127
2, 7080, Note_on_c, 1, 49, 127
2, 7080, Note_on_c, 1, 61, 127
2, 7120, Note_off_c, 1, 61, 0
2, 7120, Note_on_c, 1, 65, 127
2, 7240, Note_off_c, 1, 37, 0
2, 7240, Note_off_c, 1, 49, 0
2, 7240, Note_off_c, 1, 65, 0
2, 7280, Note_on_c, 1, 37, 127
2, 7280, Note_on_c, 1, 49, 127
2, 7280, Note_on_c, 1, 65, 127
2, 7320, Note_off_c, 1, 65, 0
2, 7360, Note_on_c, 1, 52, 127
2, 7560, Note_off_c, 1, 52, 0
2, 7600, Note_on_c, 1, 56, 127
2, 7840, Note_off_c, 1, 56, 0
2, 7880, Note_on_c, 1, 65, 127
2, 8080, Note_off_c, 1, 65, 0
2, 8120, Note_on_c, 1, 67, 127
2, 8320, Note_off_c, 1, 67, 0
2, 8360, Note_on_c, 1, 58, 127
2, 8560, Note_off_c, 1, 58, 0
2, 8600, Note_on_c, 1, 63, 127
2, 8800, Note_off_c, 1, 63, 0
2, 8840, Note_on_c, 1, 61, 127
2, 9040, Note_off_c, 1, 61, 0
2, 9080, Note_on_c, 1, 56, 127
2, 9080, Note_on_c, 1, 61, 127
2, 9080, Note_on_c, 1, 65, 127
2, 9280, Note_off_c, 1, 37, 0
2, 9280, Note_off_c, 1, 49, 0
2, 9320, Note_off_c, 1, 56, 0
2, 9320, Note_off_c, 1, 61, 0
2, 9320, Note_off_c, 1, 65, 0
2, 9360, Note_on_c, 1, 56, 127
2, 9360, Note_on_c, 1, 61, 127
2, 9600, Note_off_c, 1, 56, 0
2, 9600, Note_off_c, 1, 61, 0
2, 9640, Note_on_c, 1, 53, 127
2, 9640, Note_on_c, 1, 57, 127
2, 9640, Note_on_c, 1, 59, 127
2, 9640, Note_on_c, 1, 62, 127
2, 9840, Note_on_c, 1, 52, 127
2, 9840, Note_off_c, 1, 53, 0
2, 9840, Note_on_c, 1, 56, 127
2, 9840, Note_off_c, 1, 57, 0
2, 9840, Note_off_c, 1, 62, 0
2, 9840, Note_on_c, 1, 64, 127
2, 10560, Note_off_c, 1, 52, 0
2, 10560, Note_off_c, 1, 56, 0
2, 10560, Note_off_c, 1, 59, 0
2, 10560, Note_off_c, 1, 64, 0
2, 10600, Note_on_c, 1, 52, 127
2, 10800, Note_off_c, 1, 52, 0
2, 10840, Note_on_c, 1, 56, 127
2, 10880, Note_off_c, 1, 56, 0
2, 10880, Note_on_c, 1, 58, 127
2, 10960, Note_off_c, 1, 58, 0
2, 10960, Note_on_c, 1, 59, 127
2, 11000, Note_on_c, 1, 58, 127
2, 11000, Note_off_c, 1, 59, 0
2, 11040, Note_off_c, 1, 58, 0
2, 11080, Note_on_c, 1, 59, 127
2, 11280, Note_off_c, 1, 59, 0
2, 11320, Note_on_c, 1, 52, 127
2, 11480, Note_off_c, 1, 52, 0
2, 11520, Note_on_c, 1, 52, 127
2, 11560, Note_off_c, 1, 52, 0
2, 11600, Note_on_c, 1, 56, 127
2, 11800, Note_off_c, 1, 56, 0
2, 11840, Note_on_c, 1, 52, 127
2, 12040, Note_off_c, 1, 52, 0
2, 12080, Note_on_c, 1, 47, 127
2, 12280, Note_off_c, 1, 47, 0
2, 12320, Note_on_c, 1, 47, 127
2, 12320, Note_on_c, 1, 68, 127
2, 12320, Note_on_c, 1, 76, 127
2, 12520, Note_off_c, 1, 47, 0
2, 12560, Note_on_c, 1, 59, 127
2, 13000, Note_off_c, 1, 68, 0
2, 13000, Note_off_c, 1, 76, 0
2, 13040, Note_on_c, 1, 66, 127
2, 13040, Note_on_c, 1, 75, 127
2, 13240, Note_off_c, 1, 66, 0
2, 13520, Note_off_c, 1, 59, 0
2, 13520, Note_off_c, 1, 75, 0
2, 13600, Note_on_c, 1, 54, 127
2, 13600, Note_on_c, 1, 66, 127
2, 13600, Note_on_c, 1, 78, 127
2, 13800, Note_off_c, 1, 66, 0
2, 13840, Note_on_c, 1, 66, 127
2, 14040, Note_off_c, 1, 54, 0
2, 14040, Note_off_c, 1, 66, 0
2, 14040, Note_off_c, 1, 78, 0
2, 14080, Note_on_c, 1, 68, 127
2, 14080, Note_on_c, 1, 71, 127
2, 14080, Note_on_c, 1, 77, 127
2, 14520, Note_off_c, 1, 68, 0
2, 14520, Note_off_c, 1, 71, 0
2, 14520, Note_off_c, 1, 77, 0
2, 14560, Note_on_c, 1, 54, 127
2, 14560, Note_on_c, 1, 60, 127
2, 14560, Note_on_c, 1, 69, 127
2, 14560, Note_on_c, 1, 72, 127
2, 15000, Note_off_c, 1, 54, 0
2, 15000, Note_off_c, 1, 60, 0
2, 15000, Note_off_c, 1, 69, 0
2, 15000, Note_off_c, 1, 72, 0
2, 15040, Note_on_c, 1, 54, 127
2, 15040, Note_on_c, 1, 62, 127
2, 15040, Note_on_c, 1, 78, 127
2, 15240, Note_off_c, 1, 54, 0
2, 15240, Note_off_c, 1, 62, 0
2, 15240, Note_off_c, 1, 78, 0
2, 15280, Note_on_c, 1, 54, 127
2, 15280, Note_on_c, 1, 66, 127
2, 15280, Note_on_c, 1, 75, 127
2, 15480, Note_off_c, 1, 75, 0
2, 15520, Note_off_c, 1, 66, 0
2, 15520, Note_on_c, 1, 71, 127
2, 15520, Note_on_c, 1, 78, 127
2, 15600, Note_off_c, 1, 54, 0
2, 15600, Note_off_c, 1, 71, 0
2, 15600, Note_off_c, 1, 78, 0
2, 15640, Note_on_c, 1, 54, 127
2, 15640, Note_on_c, 1, 71, 127
2, 15640, Note_on_c, 1, 78, 127
2, 15760, Note_off_c, 1, 54, 0
2, 15760, Note_off_c, 1, 71, 0
2, 15760, Note_off_c, 1, 78, 0
2, 15800, Note_on_c, 1, 54, 127
2, 15800, Note_on_c, 1, 69, 127
2, 15800, Note_on_c, 1, 72, 127
2, 16000, Note_off_c, 1, 54, 0
2, 16000, Note_off_c, 1, 69, 0
2, 16000, Note_off_c, 1, 72, 0
2, 16040, Note_on_c, 1, 54, 127
2, 16040, Note_on_c, 1, 66, 127
2, 16040, Note_on_c, 1, 69, 127
2, 16240, Note_off_c, 1, 54, 0
2, 16280, Note_on_c, 1, 57, 127
2, 16480, Note_off_c, 1, 57, 0
2, 16520, Note_on_c, 1, 54, 127
2, 16720, Note_off_c, 1, 54, 0
2, 16760, Note_on_c, 1, 57, 127
2, 16960, Note_off_c, 1, 57, 0
2, 17000, Note_on_c, 1, 59, 127
2, 17200, Note_off_c, 1, 59, 0
2, 17200, Note_off_c, 1, 66, 0
2, 17200, Note_off_c, 1, 69, 0
2, 17240, Note_on_c, 1, 53, 127
2, 17240, Note_on_c, 1, 81, 127
2, 17440, Note_off_c, 1, 53, 0
2, 17440, Note_off_c, 1, 81, 0
2, 17480, Note_on_c, 1, 61, 127
2, 17480, Note_on_c, 1, 64, 127
2, 17480, Note_on_c, 1, 80, 127
2, 17640, Note_off_c, 1, 80, 0
2, 17680, Note_on_c, 1, 85, 127
2, 17720, Note_off_c, 1, 61, 0
2, 17720, Note_off_c, 1, 64, 0
2, 17720, Note_off_c, 1, 85, 0
2, 17800, Note_on_c, 1, 56, 127
2, 17800, Note_on_c, 1, 80, 127
2, 18000, Note_off_c, 1, 56, 0
2, 18000, Note_off_c, 1, 80, 0
2, 18040, Note_on_c, 1, 53, 127
2, 18040, Note_on_c, 1, 56, 127
2, 18040, Note_on_c, 1, 74, 127
2, 18240, Note_off_c, 1, 74, 0
2, 18280, Note_on_c, 1, 74, 127
2, 18480, Note_off_c, 1, 53, 0
2, 18480, Note_off_c, 1, 56, 0
2, 18480, Note_off_c, 1, 74, 0
2, 18520, Note_on_c, 1, 51, 127
2, 18520, Note_on_c, 1, 71, 127
2, 19000, Note_off_c, 1, 51, 0
2, 19000, Note_off_c, 1, 71, 0
2, 19040, Note_on_c, 1, 52, 127
2, 19040, Note_on_c, 1, 75, 127
2, 19240, Note_off_c, 1, 75, 0
2, 19280, Note_on_c, 1, 75, 127
2, 19480, Note_off_c, 1, 52, 0
2, 19480, Note_off_c, 1, 75, 0
2, 19520, Note_on_c, 1, 61, 127
2, 19520, Note_on_c, 1, 76, 127
2, 19760, Note_off_c, 1, 76, 0
2, 19800, Note_off_c, 1, 61, 0
2, 19840, Note_on_c, 1, 57, 127
2, 19840, Note_on_c, 1, 61, 127
2, 19840, Note_on_c, 1, 81, 127
2, 20040, Note_off_c, 1, 57, 0
2, 20040, Note_off_c, 1, 61, 0
2, 20040, Note_off_c, 1, 81, 0
2, 20080, Note_on_c, 1, 54, 127
2, 20080, Note_on_c, 1, 80, 127
2, 20520, Note_off_c, 1, 54, 0
2, 20520, Note_off_c, 1, 80, 0
2, 20560, Note_on_c, 1, 61, 127
2, 20560, Note_on_c, 1, 76, 127
2, 20840, Note_on_c, 1, 58, 127
2, 20840, Note_off_c, 1, 61, 0
2, 20840, Note_on_c, 1, 64, 127
2, 21040, Note_off_c, 1, 58, 0
2, 21040, Note_off_c, 1, 64, 0
2, 21040, Note_off_c, 1, 76, 0
2, 21080, Note_on_c, 1, 59, 127
2, 21080, Note_on_c, 1, 66, 127
2, 21080, Note_on_c, 1, 75, 127
2, 21520, Note_off_c, 1, 59, 0
2, 21520, Note_off_c, 1, 66, 0
2, 21520, Note_off_c, 1, 75, 0
2, 21560, Note_on_c, 1, 47, 127
2, 21560, Note_on_c, 1, 75, 127
2, 21800, Note_off_c, 1, 47, 0
2, 21840, Note_off_c, 1, 75, 0
2, 21880, Note_on_c, 1, 63, 127
2, 21880, Note_on_c, 1, 75, 127
2, 22080, Note_off_c, 1, 63, 0
2, 22120, Note_on_c, 1, 54, 127
2, 22320, Note_off_c, 1, 54, 0
2, 22360, Note_on_c, 1, 63, 127
2, 22560, Note_off_c, 1, 63, 0
2, 22560, Note_off_c, 1, 75, 0
2, 22600, Note_on_c, 1, 54, 127
2, 22600, Note_on_c, 1, 75, 127
2, 22840, Note_off_c, 1, 54, 0
2, 22880, Note_on_c, 1, 64, 127
2, 23080, Note_off_c, 1, 64, 0
2, 23080, Note_off_c, 1, 75, 0
2, 23120, Note_on_c, 1, 44, 127
2, 23120, Note_on_c, 1, 75, 127
2, 23320, Note_off_c, 1, 44, 0
2, 23360, Note_on_c, 1, 54, 127
2, 23560, Note_off_c, 1, 54, 0
2, 23600, Note_on_c, 1, 63, 127
2, 23840, Note_off_c, 1, 63, 0
2, 23880, Note_on_c, 1, 54, 127
2, 23960, Note_off_c, 1, 54, 0
2, 23960, Note_off_c, 1, 75, 0
2, 24000, Note_on_c, 1, 54, 127
2, 24000, Note_on_c, 1, 75, 127
2, 24120, Note_off_c, 1, 54, 0
2, 24160, Note_on_c, 1, 63, 127
2, 24360, Note_off_c, 1, 63, 0
2, 24360, Note_off_c, 1, 75, 0
2, 24400, Note_on_c, 1, 54, 127
2, 24400, Note_on_c, 1, 75, 127
2, 24640, Note_off_c, 1, 54, 0
2, 24680, Note_on_c, 1, 63, 127
2, 24880, Note_off_c, 1, 63, 0
2, 24880, Note_off_c, 1, 75, 0
2, 24920, Note_on_c, 1, 54, 127
2, 24920, Note_on_c, 1, 75, 127
2, 25120, Note_off_c, 1, 54, 0
2, 25160, Note_on_c, 1, 58, 127
2, 25400, Note_off_c, 1, 58, 0
2, 25400, Note_off_c, 1, 75, 0
2, 25440, Note_on_c, 1, 63, 127
2, 25440, Note_on_c, 1, 70, 127
2, 25640, Note_off_c, 1, 63, 0
2, 25640, Note_off_c, 1, 70, 0
2, 25680, Note_on_c, 1, 54, 127
2, 25680, Note_on_c, 1, 70, 127
2, 25920, Note_off_c, 1, 54, 0
2, 25920, Note_off_c, 1, 70, 0
2, 26000, Note_on_c, 1, 58, 127
2, 26000, Note_on_c, 1, 70, 127
2, 26240, Note_on_c, 1, 54, 127
2, 26440, Note_off_c, 1, 54, 0
2, 26440, Note_off_c, 1, 58, 0
2, 26480, Note_on_c, 1, 61, 127
2, 26720, Note_off_c, 1, 61, 0
2, 26720, Note_off_c, 1, 70, 0
2, 26760, Note_on_c, 1, 54, 127
2, 26760, Note_on_c, 1, 69, 127
2, 26960, Note_off_c, 1, 54, 0
2, 26960, Note_off_c, 1, 69, 0
2, 27000, Note_on_c, 1, 50, 127
2, 27000, Note_on_c, 1, 72, 127
2, 27240, Note_off_c, 1, 50, 0
2, 27240, Note_off_c, 1, 72, 0
2, 27280, Note_on_c, 1, 51, 127
2, 27280, Note_on_c, 1, 67, 127
2, 27480, Note_off_c, 1, 51, 0
2, 27480, Note_off_c, 1, 67, 0
2, 27520, Note_on_c, 1, 53, 127
2, 27520, Note_on_c, 1, 68, 127
2, 27720, Note_off_c, 1, 53, 0
2, 27720, Note_off_c, 1, 68, 0
2, 27760, Note_on_c, 1, 52, 127
2, 27760, Note_on_c, 1, 67, 127
2, 27960, Note_off_c, 1, 52, 0
2, 27960, Note_off_c, 1, 67, 0
2, 28000, Note_on_c, 1, 53, 127
2, 28000, Note_on_c, 1, 69, 127
2, 28120, Note_off_c, 1, 53, 0
2, 28120, Note_off_c, 1, 69, 0
2, 28160, Note_on_c, 1, 53, 127
2, 28160, Note_on_c, 1, 69, 127
2, 28280, Note_off_c, 1, 53, 0
2, 28280, Note_off_c, 1, 69, 0
2, 28320, Note_on_c, 1, 51, 127
2, 28320, Note_on_c, 1, 72, 127
2, 28520, Note_off_c, 1, 51, 0
2, 28560, Note_on_c, 1, 54, 127
2, 28800, Note_off_c, 1, 54, 0
2, 28800, Note_off_c, 1, 72, 0
2, 28840, Note_on_c, 1, 64, 127
2, 28840, Note_on_c, 1, 70, 127
2, 29040, Note_off_c, 1, 64, 0
2, 29040, Note_off_c, 1, 70, 0
2, 29080, Note_on_c, 1, 46, 127
2, 29080, Note_on_c, 1, 70, 127
2, 29280, Note_off_c, 1, 46, 0
2, 29320, Note_on_c, 1, 53, 127
2, 29520, Note_off_c, 1, 53, 0
2, 29560, Note_on_c, 1, 61, 127
2, 29800, Note_off_c, 1, 61, 0
2, 29800, Note_off_c, 1, 70, 0
2, 29840, Note_on_c, 1, 38, 127
2, 29840, Note_on_c, 1, 74, 127
2, 30040, Note_off_c, 1, 38, 0
2, 30080, Note_on_c, 1, 58, 127
2, 30280, Note_off_c, 1, 58, 0
2, 30280, Note_off_c, 1, 74, 0
2, 30360, Note_on_c, 1, 63, 127
2, 30360, Note_on_c, 1, 72, 127
2, 30560, Note_off_c, 1, 63, 0
2, 30560, Note_off_c, 1, 72, 0
2, 30600, Note_on_c, 1, 62, 127
2, 30600, Note_on_c, 1, 70, 127
2, 30840, Note_off_c, 1, 62, 0
2, 30840, Note_off_c, 1, 70, 0
2, 30880, Note_on_c, 1, 53, 127
2, 30880, Note_on_c, 1, 63, 127
2, 30880, Note_on_c, 1, 69, 127
2, 31600, Note_off_c, 1, 53, 0
2, 31600, Note_off_c, 1, 63, 0
2, 31600, Note_off_c, 1, 69, 0
2, 31640, Note_on_c, 1, 58, 127
2, 31640, Note_on_c, 1, 62, 127
2, 31640, Note_on_c, 1, 70, 127
2, 32120, Note_off_c, 1, 58, 0
2, 32120, Note_off_c, 1, 62, 0
2, 32120, Note_off_c, 1, 70, 0
2, 32160, Note_on_c, 1, 53, 127
2, 32360, Note_off_c, 1, 53, 0
2, 32440, Note_on_c, 1, 53, 127
2, 32640, Note_off_c, 1, 53, 0
2, 32680, Note_on_c, 1, 58, 127
2, 32680, Note_on_c, 1, 62, 127
2, 32680, Note_on_c, 1, 65, 127
2, 33160, Note_off_c, 1, 58, 0
2, 33160, Note_off_c, 1, 62, 0
2, 33160, Note_off_c, 1, 65, 0
2, 33200, Note_on_c, 1, 46, 127
2, 33400, Note_off_c, 1, 46, 0
2, 33440, Note_on_c, 1, 53, 127
2, 33640, Note_off_c, 1, 53, 0
2, 33680, Note_on_c, 1, 62, 127
2, 33880, Note_off_c, 1, 62, 0
2, 33920, Note_on_c, 1, 65, 127
2, 34120, Note_off_c, 1, 65, 0
2, 34160, Note_on_c, 1, 70, 127
2, 34400, Note_off_c, 1, 70, 0
2, 34480, Note_on_c, 1, 58, 127
2, 34480, Note_on_c, 1, 74, 127
2, 34680, Note_off_c, 1, 58, 0
2, 34680, Note_off_c, 1, 74, 0
2, 34720, Note_on_c, 1, 65, 127
2, 34720, Note_on_c, 1, 77, 127
2, 34920, Note_off_c, 1, 65, 0
2, 34920, Note_off_c, 1, 77, 0
2, 34960, Note_on_c, 1, 63, 127
2, 34960, Note_on_c, 1, 78, 127
2, 35200, Note_off_c, 1, 63, 0
2, 35200, Note_off_c, 1, 78, 0
2, 35240, Note_on_c, 1, 62, 127
2, 35240, Note_on_c, 1, 77, 127
2, 35440, Note_off_c, 1, 62, 0
2, 35440, Note_off_c, 1, 77, 0
2, 35480, Note_on_c, 1, 58, 127
2, 35480, Note_on_c, 1, 77, 127
2, 35680, Note_on_c, 1, 68, 127
2, 35680, Note_off_c, 1, 77, 0
2, 35720, Note_off_c, 1, 58, 0
2, 35720, Note_off_c, 1, 68, 0
2, 35760, Note_on_c, 1, 62, 127
2, 35760, Note_on_c, 1, 70, 127
2, 35960, Note_off_c, 1, 62, 0
2, 35960, Note_off_c, 1, 70, 0
2, 36000, Note_on_c, 1, 65, 127
2, 36000, Note_on_c, 1, 74, 127
2, 36240, Note_off_c, 1, 65, 0
2, 36240, Note_off_c, 1, 74, 0
2, 36280, Note_on_c, 1, 62, 127
2, 36280, Note_on_c, 1, 70, 127
2, 36480, Note_off_c, 1, 62, 0
2, 36480, Note_off_c, 1, 70, 0
2, 36560, Note_on_c, 1, 60, 127
2, 36560, Note_on_c, 1, 69, 127
2, 36800, Note_off_c, 1, 60, 0
2, 36800, Note_off_c, 1, 69, 0
2, 36840, Note_on_c, 1, 56, 127
2, 36840, Note_on_c, 1, 62, 127
2, 37040, Note_off_c, 1, 56, 0
2, 37040, Note_off_c, 1, 62, 0
2, 37080, Note_on_c, 1, 56, 127
2, 37080, Note_on_c, 1, 65, 127
2, 37280, Note_off_c, 1, 56, 0
2, 37280, Note_off_c, 1, 65, 0
2, 37320, Note_on_c, 1, 51, 127
2, 37320, Note_on_c, 1, 67, 127
2, 37560, Note_off_c, 1, 51, 0
2, 37560, Note_off_c, 1, 67, 0
2, 37600, Note_on_c, 1, 63, 127
2, 37800, Note_off_c, 1, 63, 0
2, 37840, Note_on_c, 1, 50, 127
2, 37840, Note_on_c, 1, 65, 127
2, 38040, Note_off_c, 1, 50, 0
2, 38040, Note_off_c, 1, 65, 0
2, 38080, Note_on_c, 1, 63, 127
2, 38280, Note_off_c, 1, 63, 0
2, 38320, Note_on_c, 1, 58, 127
2, 38320, Note_on_c, 1, 67, 127
2, 38560, Note_off_c, 1, 58, 0
2, 38560, Note_off_c, 1, 67, 0
2, 38640, Note_on_c, 1, 51, 127
2, 38640, Note_on_c, 1, 66, 127
2, 38840, Note_off_c, 1, 51, 0
2, 38840, Note_off_c, 1, 66, 0
2, 38880, Note_on_c, 1, 50, 127
2, 38880, Note_on_c, 1, 65, 127
2, 39080, Note_off_c, 1, 50, 0
2, 39080, Note_off_c, 1, 65, 0
2, 39120, Note_on_c, 1, 62, 127
2, 39360, Note_off_c, 1, 62, 0
2, 39400, Note_on_c, 1, 50, 127
2, 39400, Note_on_c, 1, 65, 127
2, 39600, Note_off_c, 1, 50, 0
2, 39600, Note_off_c, 1, 65, 0
2, 39640, Note_on_c, 1, 62, 127
2, 39840, Note_off_c, 1, 62, 0
2, 39880, Note_on_c, 1, 58, 127
2, 39880, Note_on_c, 1, 65, 127
2, 40120, Note_off_c, 1, 58, 0
2, 40120, Note_off_c, 1, 65, 0
2, 40160, Note_on_c, 1, 68, 127
2, 40360, Note_off_c, 1, 68, 0
2, 40400, Note_on_c, 1, 50, 127
2, 40400, Note_on_c, 1, 65, 127
2, 40600, Note_off_c, 1, 50, 0
2, 40600, Note_off_c, 1, 65, 0
2, 40680, Note_on_c, 1, 62, 127
2, 40880, Note_off_c, 1, 62, 0
2, 40920, Note_on_c, 1, 58, 127
2, 40920, Note_on_c, 1, 65, 127
2, 41160, Note_off_c, 1, 58, 0
2, 41160, Note_off_c, 1, 65, 0
2, 41200, Note_on_c, 1, 74, 127
2, 41400, Note_off_c, 1, 74, 0
2, 41440, Note_on_c, 1, 58, 127
2, 41440, Note_on_c, 1, 65, 127
2, 41640, Note_off_c, 1, 58, 0
2, 41640, Note_off_c, 1, 65, 0
2, 41680, Note_on_c, 1, 62, 127
2, 41920, Note_off_c, 1, 62, 0
2, 41960, Note_on_c, 1, 56, 127
2, 41960, Note_on_c, 1, 75, 127
2, 42160, Note_off_c, 1, 56, 0
2, 42160, Note_off_c, 1, 75, 0
2, 42200, Note_on_c, 1, 65, 127
2, 42400, Note_off_c, 1, 65, 0
2, 42440, Note_on_c, 1, 51, 127
2, 42440, Note_on_c, 1, 66, 127
2, 42680, Note_off_c, 1, 51, 0
2, 42680, Note_off_c, 1, 66, 0
2, 42760, Note_on_c, 1, 63, 127
2, 42960, Note_off_c, 1, 63, 0
2, 43000, Note_on_c, 1, 58, 127
2, 43000, Note_on_c, 1, 70, 127
2, 43200, Note_off_c, 1, 58, 0
2, 43200, Note_off_c, 1, 70, 0
2, 43240, Note_on_c, 1, 66, 127
2, 43440, Note_off_c, 1, 66, 0
2, 43480, Note_on_c, 1, 55, 127
2, 43480, Note_on_c, 1, 67, 127
2, 43720, Note_off_c, 1, 55, 0
2, 43760, Note_on_c, 1, 62, 127
2, 43960, Note_off_c, 1, 62, 0
2, 43960, Note_off_c, 1, 67, 0
2, 44000, Note_on_c, 1, 70, 127
2, 44200, Note_off_c, 1, 70, 0
2, 44240, Note_on_c, 1, 75, 127
2, 44480, Note_off_c, 1, 75, 0
2, 44520, Note_on_c, 1, 46, 127
2, 44520, Note_on_c, 1, 75, 127
2, 44720, Note_off_c, 1, 46, 0
2, 44720, Note_off_c, 1, 75, 0
2, 44800, Note_on_c, 1, 70, 127
2, 45000, Note_off_c, 1, 70, 0
2, 45040, Note_on_c, 1, 50, 127
2, 45040, Note_on_c, 1, 77, 127
2, 45280, Note_off_c, 1, 50, 0
2, 45280, Note_off_c, 1, 77, 0
2, 45320, Note_on_c, 1, 58, 127
2, 45520, Note_off_c, 1, 58, 0
2, 45560, Note_on_c, 1, 50, 127
2, 45560, Note_on_c, 1, 73, 127
2, 45760, Note_off_c, 1, 50, 0
2, 45760, Note_off_c, 1, 73, 0
2, 45800, Note_on_c, 1, 70, 127
2, 46000, Note_off_c, 1, 70, 0
2, 46040, Note_on_c, 1, 50, 127
2, 46040, Note_on_c, 1, 66, 127
2, 46280, Note_off_c, 1, 50, 0
2, 46280, Note_off_c, 1, 66, 0
2, 46320, Note_on_c, 1, 55, 127
2, 46520, Note_off_c, 1, 55, 0
2, 46560, Note_on_c, 1, 70, 127
2, 46760, Note_off_c, 1, 70, 0
2, 46840, Note_on_c, 1, 55, 127
2, 46840, Note_on_c, 1, 67, 127
2, 47080, Note_off_c, 1, 55, 0
2, 47080, Note_off_c, 1, 67, 0
2, 47120, Note_on_c, 1, 70, 127
2, 47320, Note_off_c, 1, 70, 0
2, 47360, Note_on_c, 1, 50, 127
2, 47360, Note_on_c, 1, 65, 127
2, 47560, Note_off_c, 1, 50, 0
2, 47560, Note_off_c, 1, 65, 0
2, 47600, Note_on_c, 1, 62, 127
2, 47840, Note_off_c, 1, 62, 0
2, 47880, Note_on_c, 1, 58, 127
2, 47880, Note_on_c, 1, 65, 127
2, 48080, Note_off_c, 1, 58, 0
2, 48080, Note_off_c, 1, 65, 0
2, 48120, Note_on_c, 1, 74, 127
2, 48320, Note_off_c, 1, 74, 0
2, 48360, Note_on_c, 1, 51, 127
2, 48360, Note_on_c, 1, 67, 127
2, 48600, Note_off_c, 1, 51, 0
2, 48600, Note_off_c, 1, 67, 0
2, 48640, Note_on_c, 1, 62, 127
2, 48840, Note_off_c, 1, 62, 0
2, 48920, Note_on_c, 1, 51, 127
2, 48920, Note_on_c, 1, 67, 127
2, 49120, Note_off_c, 1, 51, 0
2, 49120, Note_off_c, 1, 67, 0
2, 49160, Note_on_c, 1, 70, 127
2, 49400, Note_off_c, 1, 70, 0
2, 49440, Note_on_c, 1, 51, 127
2, 49440, Note_on_c, 1, 67, 127
2, 49640, Note_off_c, 1, 51, 0
2, 49640, Note_off_c, 1, 67, 0
2, 49680, Note_on_c, 1, 63, 127
2, 49880, Note_off_c, 1, 63, 0
2, 49920, Note_on_c, 1, 58, 127
2, 49920, Note_on_c, 1, 67, 127
2, 50160, Note_off_c, 1, 58, 0
2, 50160, Note_off_c, 1, 67, 0
2, 50200, Note_on_c, 1, 75, 127
2, 50400, Note_off_c, 1, 75, 0
2, 50440, Note_on_c, 1, 56, 127
2, 50440, Note_on_c, 1, 71, 127
2, 50640, Note_off_c, 1, 56, 0
2, 50640, Note_off_c, 1, 71, 0
2, 50680, Note_on_c, 1, 67, 127
2, 50880, Note_off_c, 1, 67, 0
2, 50920, Note_on_c, 1, 67, 127
2, 50960, Note_off_c, 1, 67, 0
2, 51000, Note_on_c, 1, 56, 127
2, 51000, Note_on_c, 1, 68, 127
2, 51200, Note_off_c, 1, 56, 0
2, 51200, Note_off_c, 1, 68, 0
2, 51240, Note_on_c, 1, 71, 127
2, 51440, Note_off_c, 1, 71, 0
2, 51480, Note_on_c, 1, 60, 127
2, 51480, Note_on_c, 1, 68, 127
2, 51720, Note_off_c, 1, 60, 0
2, 51720, Note_off_c, 1, 68, 0
2, 51760, Note_on_c, 1, 82, 127
2, 51960, Note_off_c, 1, 82, 0
2, 52000, Note_on_c, 1, 56, 127
2, 52000, Note_on_c, 1, 72, 127
2, 52200, Note_off_c, 1, 56, 0
2, 52200, Note_off_c, 1, 72, 0
2, 52240, Note_on_c, 1, 82, 127
2, 52440, Note_off_c, 1, 82, 0
2, 52480, Note_on_c, 1, 65, 127
2, 52480, Note_on_c, 1, 69, 127
2, 52680, Note_off_c, 1, 65, 0
2, 52680, Note_off_c, 1, 69, 0
2, 52720, Note_on_c, 1, 78, 127
2, 52920, Note_off_c, 1, 78, 0
2, 52960, Note_on_c, 1, 78, 127
2, 53000, Note_off_c, 1, 78, 0
2, 53040, Note_on_c, 1, 56, 127
2, 53040, Note_on_c, 1, 72, 127
2, 53240, Note_off_c, 1, 56, 0
2, 53240, Note_off_c, 1, 72, 0
2, 53280, Note_on_c, 1, 77, 127
2, 53480, Note_off_c, 1, 77, 0
2, 53520, Note_on_c, 1, 55, 127
2, 53520, Note_on_c, 1, 70, 127
2, 53760, Note_off_c, 1, 55, 0
2, 53760, Note_off_c, 1, 70, 0
2, 53800, Note_on_c, 1, 75, 127
2, 54000, Note_off_c, 1, 75, 0
2, 54040, Note_on_c, 1, 51, 127
2, 54040, Note_on_c, 1, 72, 127
2, 54240, Note_off_c, 1, 72, 0
2, 54280, Note_off_c, 1, 51, 0
2, 54280, Note_on_c, 1, 75, 127
2, 54520, Note_off_c, 1, 75, 0
2, 54560, Note_on_c, 1, 56, 127
2, 54560, Note_on_c, 1, 68, 127
2, 54760, Note_off_c, 1, 56, 0
2, 54760, Note_off_c, 1, 68, 0
2, 54800, Note_on_c, 1, 75, 127
2, 55000, Note_off_c, 1, 75, 0
2, 55080, Note_on_c, 1, 56, 127
2, 55080, Note_on_c, 1, 72, 127
2, 55320, Note_off_c, 1, 56, 0
2, 55320, Note_off_c, 1, 72, 0
2, 55360, Note_on_c, 1, 63, 127
2, 55360, Note_on_c, 1, 68, 127
2, 55560, Note_off_c, 1, 63, 0
2, 55560, Note_off_c, 1, 68, 0
2, 55600, Note_on_c, 1, 60, 127
2, 55600, Note_on_c, 1, 72, 127
2, 55800, Note_off_c, 1, 60, 0
2, 55800, Note_off_c, 1, 72, 0
2, 55840, Note_on_c, 1, 75, 127
2, 56080, Note_off_c, 1, 75, 0
2, 56120, Note_on_c, 1, 56, 127
2, 56120, Note_on_c, 1, 72, 127
2, 56320, Note_off_c, 1, 56, 0
2, 56320, Note_off_c, 1, 72, 0
2, 56360, Note_on_c, 1, 63, 127
2, 56560, Note_off_c, 1, 63, 0
2, 56600, Note_on_c, 1, 58, 127
2, 56600, Note_on_c, 1, 73, 127
2, 56840, Note_off_c, 1, 58, 0
2, 56840, Note_off_c, 1, 73, 0
2, 56880, Note_on_c, 1, 56, 127
2, 56880, Note_on_c, 1, 72, 127
2, 57080, Note_off_c, 1, 56, 0
2, 57080, Note_off_c, 1, 72, 0
2, 57160, Note_on_c, 1, 56, 127
2, 57160, Note_on_c, 1, 72, 127
2, 57360, Note_off_c, 1, 56, 0
2, 57360, Note_off_c, 1, 72, 0
2, 57400, Note_on_c, 1, 63, 127
2, 57400, Note_on_c, 1, 72, 127
2, 57640, Note_off_c, 1, 63, 0
2, 57640, Note_off_c, 1, 72, 0
2, 57680, Note_on_c, 1, 63, 127
2, 57680, Note_on_c, 1, 72, 127
2, 57880, Note_off_c, 1, 63, 0
2, 57880, Note_off_c, 1, 72, 0
2, 57920, Note_on_c, 1, 59, 127
2, 57920, Note_on_c, 1, 74, 127
2, 58120, Note_off_c, 1, 59, 0
2, 58120, Note_off_c, 1, 74, 0
2, 58160, Note_on_c, 1, 65, 127
2, 58160, Note_on_c, 1, 75, 127
2, 58400, Note_off_c, 1, 65, 0
2, 58400, Note_off_c, 1, 75, 0
2, 58440, Note_on_c, 1, 68, 127
2, 58440, Note_on_c, 1, 73, 127
2, 58640, Note_off_c, 1, 68, 0
2, 58640, Note_off_c, 1, 73, 0
2, 58680, Note_on_c, 1, 63, 127
2, 58680, Note_on_c, 1, 72, 127
2, 58920, Note_off_c, 1, 63, 0
2, 58920, Note_off_c, 1, 72, 0
2, 58960, Note_on_c, 1, 75, 127
2, 59160, Note_off_c, 1, 75, 0
2, 59240, Note_on_c, 1, 58, 127
2, 59240, Note_on_c, 1, 73, 127
2, 59440, Note_off_c, 1, 58, 0
2, 59440, Note_off_c, 1, 73, 0
2, 59480, Note_on_c, 1, 66, 127
2, 59480, Note_on_c, 1, 72, 127
2, 59720, Note_off_c, 1, 66, 0
2, 59720, Note_off_c, 1, 72, 0
2, 59760, Note_on_c, 1, 63, 127
2, 59960, Note_off_c, 1, 63, 0
2, 60000, Note_on_c, 1, 58, 127
2, 60000, Note_on_c, 1, 73, 127
2, 60200, Note_off_c, 1, 58, 0
2, 60200, Note_off_c, 1, 73, 0
2, 60240, Note_on_c, 1, 63, 127
2, 60240, Note_on_c, 1, 72, 127
2, 60480, Note_off_c, 1, 63, 0
2, 60480, Note_off_c, 1, 72, 0
2, 60520, Note_on_c, 1, 61, 127
2, 60520, Note_on_c, 1, 70, 127
2, 60720, Note_off_c, 1, 61, 0
2, 60720, Note_off_c, 1, 70, 0
2, 60760, Note_on_c, 1, 75, 127
2, 60960, Note_off_c, 1, 75, 0
2, 61000, Note_on_c, 1, 49, 127
2, 61000, Note_on_c, 1, 76, 127
2, 61240, Note_off_c, 1, 49, 0
2, 61240, Note_off_c, 1, 76, 0
2, 61320, Note_on_c, 1, 56, 127
2, 61320, Note_on_c, 1, 72, 127
2, 61520, Note_off_c, 1, 56, 0
2, 61520, Note_off_c, 1, 72, 0
2, 61560, Note_on_c, 1, 58, 127
2, 61560, Note_on_c, 1, 73, 127
2, 61760, Note_off_c, 1, 58, 0
2, 61760, Note_off_c, 1, 73, 0
2, 61800, Note_on_c, 1, 63, 127
2, 61800, Note_on_c, 1, 68, 127
2, 62040, Note_off_c, 1, 63, 0
2, 62040, Note_off_c, 1, 68, 0
2, 62080, Note_on_c, 1, 61, 127
2, 62080, Note_on_c, 1, 73, 127
2, 62280, Note_off_c, 1, 73, 0
2, 62320, Note_on_c, 1, 70, 127
2, 62520, Note_off_c, 1, 61, 0
2, 62520, Note_off_c, 1, 70, 0
2, 62560, Note_on_c, 1, 70, 127
2, 62800, Note_off_c, 1, 70, 0
2, 62840, Note_on_c, 1, 63, 127
2, 62840, Note_on_c, 1, 69, 127
2, 63040, Note_off_c, 1, 63, 0
2, 63040, Note_off_c, 1, 69, 0
2, 63080, Note_on_c, 1, 67, 127
2, 63320, Note_off_c, 1, 67, 0
2, 63400, Note_on_c, 1, 61, 127
2, 63400, Note_on_c, 1, 70, 127
2, 63600, Note_off_c, 1, 61, 0
2, 63600, Note_off_c, 1, 70, 0
2, 63640, Note_on_c, 1, 63, 127
2, 63640, Note_on_c, 1, 78, 127
2, 63840, Note_off_c, 1, 63, 0
2, 63840, Note_off_c, 1, 78, 0
2, 63880, Note_on_c, 1, 61, 127
2, 63880, Note_on_c, 1, 70, 127
2, 64120, Note_off_c, 1, 61, 0
2, 64120, Note_off_c, 1, 70, 0
2, 64160, Note_on_c, 1, 58, 127
2, 64160, Note_on_c, 1, 73, 127
2, 64360, Note_off_c, 1, 58, 0
2, 64360, Note_off_c, 1, 73, 0
2, 64400, Note_on_c, 1, 63, 127
2, 64600, Note_off_c, 1, 63, 0
2, 64640, Note_on_c, 1, 60, 127
2, 64640, Note_on_c, 1, 75, 127
2, 64880, Note_off_c, 1, 60, 0
2, 64880, Note_off_c, 1, 75, 0
2, 64920, Note_on_c, 1, 63, 127
2, 64920, Note_on_c, 1, 77, 127
2, 65120, Note_off_c, 1, 63, 0
2, 65120, Note_off_c, 1, 77, 0
2, 65160, Note_on_c, 1, 75, 127
2, 65360, Note_off_c, 1, 75, 0
2, 65400, Note_on_c, 1, 75, 127
2, 65440, Note_off_c, 1, 75, 0
2, 65480, Note_on_c, 1, 56, 127
2, 65480, Note_on_c, 1, 73, 127
2, 65680, Note_off_c, 1, 56, 0
2, 65680, Note_off_c, 1, 73, 0
2, 65720, Note_on_c, 1, 60, 127
2, 65920, Note_off_c, 1, 60, 0
2, 65960, Note_on_c, 1, 58, 127
2, 65960, Note_on_c, 1, 73, 127
2, 66200, Note_off_c, 1, 58, 0
2, 66240, Note_on_c, 1, 61, 127
2, 66440, Note_off_c, 1, 61, 0
2, 66440, Note_off_c, 1, 73, 0
2, 66480, Note_on_c, 1, 63, 127
2, 66480, Note_on_c, 1, 72, 127
2, 66680, Note_off_c, 1, 72, 0
2, 66720, Note_on_c, 1, 70, 127
2, 66960, Note_off_c, 1, 63, 0
2, 66960, Note_off_c, 1, 70, 0
2, 67000, Note_on_c, 1, 60, 127
2, 67000, Note_on_c, 1, 72, 127
2, 67200, Note_on_c, 1, 52, 127
2, 67200, Note_off_c, 1, 60, 0
2, 67200, Note_off_c, 1, 72, 0
2, 67240, Note_on_c, 1, 73, 127
2, 67440, Note_off_c, 1, 52, 0
2, 67440, Note_off_c, 1, 73, 0
2, 67480, Note_on_c, 1, 55, 127
2, 67480, Note_on_c, 1, 70, 127
2, 67640, Note_off_c, 1, 55, 0
2, 67640, Note_off_c, 1, 70, 0
2, 67680, Note_on_c, 1, 55, 127
2, 67680, Note_on_c, 1, 70, 127
2, 67760, Note_off_c, 1, 55, 0
2, 67760, Note_off_c, 1, 70, 0
2, 67800, Note_on_c, 1, 61, 127
2, 68000, Note_off_c, 1, 61, 0
2, 68040, Note_on_c, 1, 58, 127
2, 68040, Note_on_c, 1, 73, 127
2, 68280, Note_off_c, 1, 58, 0
2, 68280, Note_off_c, 1, 73, 0
2, 68320, Note_on_c, 1, 63, 127
2, 68520, Note_off_c, 1, 63, 0
2, 68560, Note_on_c, 1, 58, 127
2, 68560, Note_on_c, 1, 70, 127
2, 68760, Note_off_c, 1, 58, 0
2, 68760, Note_off_c, 1, 70, 0
2, 68800, Note_on_c, 1, 61, 127
2, 68800, Note_on_c, 1, 76, 127
2, 69040, Note_off_c, 1, 61, 0
2, 69040, Note_off_c, 1, 76, 0
2, 69080, Note_on_c, 1, 58, 127
2, 69080, Note_on_c, 1, 73, 127
2, 69280, Note_off_c, 1, 58, 0
2, 69280, Note_off_c, 1, 73, 0
2, 69320, Note_on_c, 1, 63, 127
2, 69320, Note_on_c, 1, 75, 127
2, 69560, Note_off_c, 1, 63, 0
2, 69560, Note_off_c, 1, 75, 0
2, 69600, Note_on_c, 1, 61, 127
2, 69600, Note_on_c, 1, 70, 127
2, 69800, Note_off_c, 1, 61, 0
2, 69800, Note_off_c, 1, 70, 0
2, 69880, Note_on_c, 1, 61, 127
2, 69880, Note_on_c, 1, 70, 127
2, 70080, Note_off_c, 1, 61, 0
2, 70080, Note_off_c, 1, 70, 0
2, 70120, Note_on_c, 1, 60, 127
2, 70120, Note_on_c, 1, 66, 127
2, 70360, Note_off_c, 1, 60, 0
2, 70360, Note_off_c, 1, 66, 0
2, 70400, Note_on_c, 1, 68, 127
2, 70600, Note_off_c, 1, 68, 0
2, 70640, Note_on_c, 1, 63, 127
2, 70640, Note_on_c, 1, 72, 127
2, 70840, Note_off_c, 1, 63, 0
2, 70840, Note_off_c, 1, 72, 0
2, 70880, Note_on_c, 1, 53, 127
2, 70880, Note_on_c, 1, 68, 127
2, 71120, Note_off_c, 1, 53, 0
2, 71120, Note_off_c, 1, 68, 0
2, 71160, Note_on_c, 1, 61, 127
2, 71160, Note_on_c, 1, 70, 127
2, 71360, Note_off_c, 1, 61, 0
2, 71360, Note_off_c, 1, 70, 0
2, 71400, Note_on_c, 1, 68, 127
2, 71600, Note_off_c, 1, 68, 0
2, 71640, Note_on_c, 1, 61, 127
2, 71640, Note_on_c, 1, 70, 127
2, 71880, Note_off_c, 1, 61, 0
2, 71880, Note_off_c, 1, 70, 0
2, 71960, Note_on_c, 1, 61, 127
2, 71960, Note_on_c, 1, 70, 127
2, 72160, Note_off_c, 1, 61, 0
2, 72160, Note_off_c, 1, 70, 0
2, 72200, Note_on_c, 1, 63, 127
2, 72200, Note_on_c, 1, 72, 127
2, 72440, Note_off_c, 1, 63, 0
2, 72440, Note_off_c, 1, 72, 0
2, 72480, Note_on_c, 1, 61, 127
2, 72480, Note_on_c, 1, 73, 127
2, 72680, Note_off_c, 1, 61, 0
2, 72680, Note_off_c, 1, 73, 0
2, 72720, Note_on_c, 1, 63, 127
2, 72720, Note_on_c, 1, 72, 127
2, 72920, Note_off_c, 1, 63, 0
2, 72920, Note_off_c, 1, 72, 0
2, 72960, Note_on_c, 1, 61, 127
2, 72960, Note_on_c, 1, 70, 127
2, 73200, Note_off_c, 1, 61, 0
2, 73200, Note_off_c, 1, 70, 0
2, 73240, Note_on_c, 1, 58, 127
2, 73240, Note_on_c, 1, 67, 127
2, 73440, Note_off_c, 1, 58, 0
2, 73440, Note_off_c, 1, 67, 0
2, 73480, Note_on_c, 1, 73, 127
2, 73720, Note_off_c, 1, 73, 0
2, 73760, Note_on_c, 1, 56, 127
2, 73760, Note_on_c, 1, 72, 127
2, 73960, Note_off_c, 1, 56, 0
2, 73960, Note_off_c, 1, 72, 0
2, 74040, Note_on_c, 1, 61, 127
2, 74040, Note_on_c, 1, 70, 127
2, 74240, Note_off_c, 1, 61, 0
2, 74240, Note_off_c, 1, 70, 0
2, 74280, Note_on_c, 1, 56, 127
2, 74280, Note_on_c, 1, 72, 127
2, 74520, Note_off_c, 1, 56, 0
2, 74520, Note_off_c, 1, 72, 0
2, 74560, Note_on_c, 1, 60, 127
2, 74560, Note_on_c, 1, 77, 127
2, 74760, Note_off_c, 1, 60, 0
2, 74760, Note_off_c, 1, 77, 0
2, 74800, Note_on_c, 1, 63, 127
2, 74800, Note_on_c, 1, 75, 127
2, 75040, Note_off_c, 1, 63, 0
2, 75040, Note_off_c, 1, 75, 0
2, 75080, Note_on_c, 1, 73, 127
2, 75280, Note_off_c, 1, 73, 0
2, 75320, Note_on_c, 1, 56, 127
2, 75320, Note_on_c, 1, 72, 127
2, 75560, Note_off_c, 1, 56, 0
2, 75560, Note_off_c, 1, 72, 0
2, 75600, Note_on_c, 1, 55, 127
2, 75600, Note_on_c, 1, 70, 127
2, 75800, Note_off_c, 1, 55, 0
2, 75800, Note_off_c, 1, 70, 0
2, 75840, Note_on_c, 1, 56, 127
2, 75840, Note_on_c, 1, 72, 127
2, 76080, Note_off_c, 1, 56, 0
2, 76080, Note_off_c, 1, 72, 0
2, 76160, Note_on_c, 1, 60, 127
2, 76160, Note_on_c, 1, 72, 127
2, 76360, Note_off_c, 1, 60, 0
2, 76360, Note_off_c, 1, 72, 0
2, 76400, Note_on_c, 1, 65, 127
2, 76400, Note_on_c, 1, 68, 127
2, 76600, Note_off_c, 1, 65, 0
2, 76600, Note_off_c, 1, 68, 0
2, 76640, Note_on_c, 1, 56, 127
2, 76640, Note_on_c, 1, 65, 127
2, 76640, Note_on_c, 1, 68, 127
2, 76840, Note_off_c, 1, 65, 0
2, 76840, Note_off_c, 1, 68, 0
2, 76880, Note_on_c, 1, 63, 127
2, 76880, Note_on_c, 1, 72, 127
2, 77120, Note_off_c, 1, 56, 0
2, 77120, Note_off_c, 1, 63, 0
2, 77120, Note_off_c, 1, 72, 0
2, 77160, Note_on_c, 1, 44, 127
2, 77160, Note_on_c, 1, 56, 127
2, 77160, Note_on_c, 1, 61, 127
2, 77160, Note_on_c, 1, 70, 127
2, 77640, Note_off_c, 1, 61, 0
2, 77640, Note_off_c, 1, 70, 0
2, 77680, Note_on_c, 1, 60, 127
2, 77680, Note_on_c, 1, 68, 127
2, 78120, Note_off_c, 1, 44, 0
2, 78120, Note_off_c, 1, 56, 0
2, 78120, Note_off_c, 1, 60, 0
2, 78120, Note_off_c, 1, 68, 0
2, 79360, Note_on_c, 1, 62, 127
2, 80640, Note_off_c, 1, 62, 0
2, 80680, Note_on_c, 1, 50, 127
2, 80880, Note_off_c, 1, 50, 0
2, 80960, Note_on_c, 1, 55, 127
2, 81160, Note_off_c, 1, 55, 0
2, 81200, Note_on_c, 1, 57, 127
2, 81400, Note_off_c, 1, 57, 0
2, 81440, Note_on_c, 1, 50, 127
2, 81680, Note_off_c, 1, 50, 0
2, 81720, Note_on_c, 1, 50, 127
2, 81920, Note_off_c, 1, 50, 0
2, 81960, Note_on_c, 1, 62, 127
2, 82160, Note_off_c, 1, 62, 0
2, 82200, Note_on_c, 1, 65, 127
2, 82440, Note_off_c, 1, 65, 0
2, 82480, Note_on_c, 1, 74, 127
2, 82680, Note_off_c, 1, 74, 0
2, 82720, Note_on_c, 1, 73, 127
2, 82920, Note_off_c, 1, 73, 0
2, 83000, Note_on_c, 1, 74, 127
2, 83240, Note_off_c, 1, 74, 0
2, 83280, Note_on_c, 1, 46, 127
2, 83480, Note_off_c, 1, 46, 0
2, 83520, Note_on_c, 1, 50, 127
2, 83720, Note_off_c, 1, 50, 0
2, 83760, Note_on_c, 1, 57, 127
2, 84000, Note_off_c, 1, 57, 0
2, 84040, Note_on_c, 1, 62, 127
2, 84240, Note_off_c, 1, 62, 0
2, 84280, Note_on_c, 1, 70, 127
2, 84520, Note_off_c, 1, 70, 0
2, 84560, Note_on_c, 1, 81, 127
2, 84760, Note_off_c, 1, 81, 0
2, 84800, Note_on_c, 1, 54, 127
2, 84800, Note_on_c, 1, 70, 127
2, 85000, Note_off_c, 1, 54, 0
2, 85000, Note_off_c, 1, 70, 0
2, 85040, Note_on_c, 1, 54, 127
2, 85040, Note_on_c, 1, 70, 127
2, 85080, Note_off_c, 1, 54, 0
2, 85080, Note_off_c, 1, 70, 0
2, 85120, Note_on_c, 1, 50, 127
2, 85120, Note_on_c, 1, 69, 127
2, 85320, Note_off_c, 1, 50, 0
2, 85320, Note_off_c, 1, 69, 0
2, 85360, Note_on_c, 1, 58, 127
2, 85360, Note_on_c, 1, 67, 127
2, 85600, Note_off_c, 1, 58, 0
2, 85600, Note_off_c, 1, 67, 0
2, 85640, Note_on_c, 1, 78, 127
2, 85840, Note_off_c, 1, 78, 0
2, 85880, Note_on_c, 1, 54, 127
2, 85880, Note_on_c, 1, 69, 127
2, 86120, Note_off_c, 1, 54, 0
2, 86120, Note_off_c, 1, 69, 0
2, 86160, Note_on_c, 1, 74, 127
2, 86360, Note_off_c, 1, 74, 0
2, 86400, Note_on_c, 1, 54, 127
2, 86400, Note_on_c, 1, 69, 127
2, 86600, Note_off_c, 1, 54, 0
2, 86600, Note_off_c, 1, 69, 0
2, 86640, Note_on_c, 1, 55, 127
2, 86640, Note_on_c, 1, 70, 127
2, 86880, Note_off_c, 1, 55, 0
2, 86880, Note_off_c, 1, 70, 0
2, 86920, Note_on_c, 1, 58, 127
2, 86920, Note_on_c, 1, 70, 127
2, 87120, Note_off_c, 1, 58, 0
2, 87160, Note_off_c, 1, 70, 0
2, 87200, Note_on_c, 1, 64, 127
2, 87200, Note_on_c, 1, 70, 127
2, 87440, Note_off_c, 1, 64, 0
2, 87440, Note_off_c, 1, 70, 0
2, 87480, Note_on_c, 1, 50, 127
2, 87480, Note_on_c, 1, 66, 127
2, 87680, Note_off_c, 1, 50, 0
2, 87720, Note_on_c, 1, 57, 127
2, 87960, Note_off_c, 1, 57, 0
2, 87960, Note_off_c, 1, 66, 0
2, 88000, Note_on_c, 1, 50, 127
2, 88000, Note_on_c, 1, 58, 127
2, 88000, Note_on_c, 1, 66, 127
2, 88480, Note_off_c, 1, 58, 0
2, 88520, Note_on_c, 1, 57, 127
2, 88720, Note_off_c, 1, 57, 0
2, 88760, Note_on_c, 1, 60, 127
2, 89000, Note_off_c, 1, 50, 0
2, 89000, Note_off_c, 1, 60, 0
2, 89000, Note_off_c, 1, 66, 0
2, 89040, Note_on_c, 1, 43, 127
2, 89040, Note_on_c, 1, 79, 127
2, 89240, Note_off_c, 1, 43, 0
2, 89240, Note_off_c, 1, 79, 0
2, 89280, Note_on_c, 1, 79, 127
2, 89320, Note_on_c, 1, 50, 127
2, 89560, Note_off_c, 1, 50, 0
2, 89560, Note_off_c, 1, 79, 0
2, 89600, Note_on_c, 1, 55, 127
2, 89600, Note_on_c, 1, 77, 127
2, 89800, Note_off_c, 1, 55, 0
2, 89800, Note_off_c, 1, 77, 0
2, 89840, Note_on_c, 1, 63, 127
2, 89840, Note_on_c, 1, 72, 127
2, 90080, Note_off_c, 1, 63, 0
2, 90080, Note_off_c, 1, 72, 0
2, 90120, Note_on_c, 1, 43, 127
2, 90120, Note_on_c, 1, 71, 127
2, 90600, Note_off_c, 1, 43, 0
2, 90600, Note_off_c, 1, 71, 0
2, 90640, Note_on_c, 1, 50, 127
2, 90640, Note_on_c, 1, 74, 127
2, 90840, Note_off_c, 1, 50, 0
2, 90840, Note_off_c, 1, 74, 0
2, 90880, Note_on_c, 1, 61, 127
2, 90880, Note_on_c, 1, 69, 127
2, 91120, Note_off_c, 1, 61, 0
2, 91120, Note_off_c, 1, 69, 0
2, 91160, Note_on_c, 1, 46, 127
2, 91160, Note_on_c, 1, 62, 127
2, 91160, Note_on_c, 1, 65, 127
2, 91240, Note_off_c, 1, 65, 0
2, 91320, Note_off_c, 1, 46, 0
2, 91320, Note_off_c, 1, 62, 0
2, 91360, Note_on_c, 1, 46, 127
2, 91360, Note_on_c, 1, 62, 127
2, 91400, Note_off_c, 1, 46, 0
2, 91440, Note_on_c, 1, 53, 127
2, 91440, Note_on_c, 1, 55, 127
2, 91640, Note_off_c, 1, 55, 0
2, 91680, Note_on_c, 1, 55, 127
2, 91920, Note_off_c, 1, 55, 0
2, 91960, Note_on_c, 1, 58, 127
2, 92160, Note_off_c, 1, 53, 0
2, 92160, Note_off_c, 1, 58, 0
2, 92160, Note_off_c, 1, 62, 0
2, 92200, Note_on_c, 1, 45, 127
2, 92200, Note_on_c, 1, 52, 127
2, 92200, Note_on_c, 1, 83, 127
2, 92200, Note_on_c, 1, 91, 127
2, 92200, Note_on_c, 1, 95, 127
2, 92440, Note_off_c, 1, 52, 0
2, 92440, Note_off_c, 1, 83, 0
2, 92440, Note_off_c, 1, 91, 0
2, 92440, Note_off_c, 1, 95, 0
2, 92480, Note_on_c, 1, 53, 127
2, 92480, Note_on_c, 1, 60, 127
2, 92480, Note_on_c, 1, 65, 127
2, 92480, Note_on_c, 1, 69, 127
2, 92680, Note_off_c, 1, 45, 0
2, 92680, Note_off_c, 1, 53, 0
2, 92680, Note_off_c, 1, 60, 0
2, 92680, Note_off_c, 1, 65, 0
2, 92680, Note_off_c, 1, 69, 0
2, 92720, Note_on_c, 1, 48, 127
2, 92720, Note_on_c, 1, 57, 127
2, 92720, Note_on_c, 1, 65, 127
2, 92720, Note_on_c, 1, 77, 127
2, 93200, Note_off_c, 1, 57, 0
2, 93200, Note_off_c, 1, 65, 0
2, 93240, Note_on_c, 1, 60, 127
2, 93240, Note_on_c, 1, 69, 127
2, 93400, Note_off_c, 1, 48, 0
2, 93400, Note_off_c, 1, 60, 0
2, 93400, Note_off_c, 1, 69, 0
2, 93400, Note_off_c, 1, 77, 0
2, 93440, Note_on_c, 1, 48, 127
2, 93440, Note_on_c, 1, 60, 127
2, 93440, Note_on_c, 1, 69, 127
2, 93440, Note_on_c, 1, 77, 127
2, 93480, Note_off_c, 1, 77, 0
2, 93520, Note_on_c, 1, 76, 127
2, 93760, Note_off_c, 1, 48, 0
2, 93760, Note_off_c, 1, 60, 0
2, 93760, Note_off_c, 1, 69, 0
2, 93760, Note_off_c, 1, 76, 0
2, 93800, Note_on_c, 1, 57, 127
2, 93800, Note_on_c, 1, 65, 127
2, 93800, Note_on_c, 1, 74, 127
2, 94280, Note_off_c, 1, 57, 0
2, 94280, Note_off_c, 1, 65, 0
2, 94280, Note_off_c, 1, 74, 0
2, 94320, Note_on_c, 1, 57, 127
2, 94320, Note_on_c, 1, 77, 127
2, 94320, Note_on_c, 1, 86, 127
2, 94520, Note_off_c, 1, 57, 0
2, 94560, Note_on_c, 1, 58, 127
2, 94800, Note_off_c, 1, 58, 0
2, 94800, Note_off_c, 1, 86, 0
2, 94840, Note_on_c, 1, 57, 127
2, 94840, Note_on_c, 1, 62, 127
2, 94840, Note_on_c, 1, 74, 127
2, 95040, Note_off_c, 1, 62, 0
2, 95040, Note_off_c, 1, 74, 0
2, 95040, Note_off_c, 1, 77, 0
2, 95080, Note_on_c, 1, 62, 127
2, 95080, Note_on_c, 1, 74, 127
2, 95080, Note_on_c, 1, 77, 127
2, 95320, Note_off_c, 1, 57, 0
2, 95320, Note_off_c, 1, 62, 0
2, 95320, Note_off_c, 1, 74, 0
2, 95320, Note_off_c, 1, 77, 0
2, 95360, Note_on_c, 1, 57, 127
2, 95360, Note_on_c, 1, 70, 127
2, 95360, Note_on_c, 1, 76, 127
2, 95560, Note_off_c, 1, 57, 0
2, 95560, Note_off_c, 1, 70, 0
2, 95600, Note_off_c, 1, 76, 0
2, 95640, Note_on_c, 1, 57, 127
2, 95640, Note_on_c, 1, 72, 127
2, 95640, Note_on_c, 1, 76, 127
2, 95880, Note_off_c, 1, 72, 0
2, 95920, Note_on_c, 1, 72, 127
2, 96120, Note_off_c, 1, 57, 0
2, 96120, Note_off_c, 1, 72, 0
2, 96120, Note_off_c, 1, 76, 0
2, 96160, Note_on_c, 1, 33, 127
2, 96160, Note_on_c, 1, 45, 127
2, 96160, Note_on_c, 1, 72, 127
2, 96160, Note_on_c, 1, 76, 127
2, 96400, Note_off_c, 1, 33, 0
2, 96400, Note_on_c, 1, 41, 127
2, 96400, Note_off_c, 1, 45, 0
2, 96400, Note_off_c, 1, 72, 0
2, 96400, Note_off_c, 1, 76, 0
2, 96440, Note_on_c, 1, 53, 127
2, 96440, Note_on_c, 1, 60, 127
2, 96440, Note_on_c, 1, 72, 127
2, 96640, Note_off_c, 1, 53, 0
2, 96640, Note_off_c, 1, 60, 0
2, 96680, Note_on_c, 1, 53, 127
2, 96680, Note_on_c, 1, 65, 127
2, 96920, Note_off_c, 1, 65, 0
2, 96960, Note_on_c, 1, 69, 127
2, 97160, Note_off_c, 1, 41, 0
2, 97160, Note_off_c, 1, 53, 0
2, 97160, Note_off_c, 1, 69, 0
2, 97160, Note_off_c, 1, 72, 0
2, 97200, Note_on_c, 1, 33, 127
2, 97200, Note_on_c, 1, 45, 127
2, 97200, Note_on_c, 1, 57, 127
2, 97200, Note_on_c, 1, 69, 127
2, 97440, Note_off_c, 1, 57, 0
2, 97480, Note_on_c, 1, 64, 127
2, 97640, Note_off_c, 1, 33, 0
2, 97640, Note_off_c, 1, 45, 0
2, 97640, Note_off_c, 1, 64, 0
2, 97640, Note_off_c, 1, 69, 0
2, 97680, Note_on_c, 1, 33, 127
2, 97680, Note_on_c, 1, 45, 127
2, 97680, Note_on_c, 1, 64, 127
2, 97680, Note_on_c, 1, 69, 127
2, 97720, Note_off_c, 1, 33, 0
2, 97720, Note_off_c, 1, 45, 0
2, 97720, Note_off_c, 1, 64, 0
2, 97720, Note_off_c, 1, 69, 0
2, 97760, Note_on_c, 1, 38, 127
2, 97760, Note_on_c, 1, 50, 127
2, 97760, Note_on_c, 1, 57, 127
2, 97760, Note_on_c, 1, 69, 127
2, 98000, Note_off_c, 1, 57, 0
2, 98000, Note_off_c, 1, 69, 0
2, 98040, Note_on_c, 1, 62, 127
2, 98040, Note_on_c, 1, 69, 127
2, 98240, Note_off_c, 1, 62, 0
2, 98280, Note_on_c, 1, 65, 127
2, 98480, Note_off_c, 1, 38, 0
2, 98480, Note_off_c, 1, 50, 0
2, 98480, Note_off_c, 1, 65, 0
2, 98480, Note_off_c, 1, 69, 0
2, 98520, Note_on_c, 1, 36, 127
2, 98520, Note_on_c, 1, 48, 127
2, 98520, Note_on_c, 1, 57, 127
2, 98520, Note_on_c, 1, 69, 127
2, 98760, Note_off_c, 1, 57, 0
2, 98800, Note_on_c, 1, 60, 127
2, 99000, Note_off_c, 1, 60, 0
2, 99040, Note_on_c, 1, 65, 127
2, 99280, Note_off_c, 1, 36, 0
2, 99280, Note_off_c, 1, 48, 0
2, 99280, Note_off_c, 1, 65, 0
2, 99280, Note_off_c, 1, 69, 0
2, 99320, Note_on_c, 1, 36, 127
2, 99320, Note_on_c, 1, 48, 127
2, 99320, Note_on_c, 1, 67, 127
2, 99560, Note_on_c, 1, 64, 127
2, 99800, Note_off_c, 1, 64, 0
2, 99800, Note_off_c, 1, 67, 0
2, 99840, Note_off_c, 1, 36, 0
2, 99840, Note_off_c, 1, 48, 0
2, 99880, Note_on_c, 1, 36, 127
2, 99880, Note_on_c, 1, 48, 127
2, 99880, Note_on_c, 1, 73, 127
2, 100080, Note_off_c, 1, 36, 0
2, 100080, Note_off_c, 1, 48, 0
2, 100080, Note_off_c, 1, 73, 0
2, 100120, Note_on_c, 1, 36, 127
2, 100120, Note_on_c, 1, 48, 127
2, 100120, Note_on_c, 1, 76, 127
2, 100360, Note_off_c, 1, 76, 0
2, 100400, Note_on_c, 1, 73, 127
2, 100600, Note_off_c, 1, 73, 0
2, 100640, Note_on_c, 1, 67, 127
2, 100880, Note_off_c, 1, 67, 0
2, 100920, Note_on_c, 1, 73, 127
2, 101120, Note_off_c, 1, 36, 0
2, 101120, Note_off_c, 1, 48, 0
2, 101120, Note_off_c, 1, 73, 0
2, 101160, Note_on_c, 1, 31, 127
2, 101160, Note_on_c, 1, 43, 127
2, 101160, Note_on_c, 1, 74, 127
2, 101400, Note_off_c, 1, 74, 0
2, 101440, Note_on_c, 1, 79, 127
2, 101640, Note_off_c, 1, 79, 0
2, 101680, Note_off_c, 1, 31, 0
2, 101680, Note_on_c, 1, 38, 127
2, 101680, Note_off_c, 1, 43, 0
2, 101680, Note_on_c, 1, 50, 127
2, 101680, Note_on_c, 1, 81, 127
2, 101880, Note_off_c, 1, 81, 0
2, 101920, Note_off_c, 1, 38, 0
2, 101920, Note_off_c, 1, 50, 0
2, 102000, Note_on_c, 1, 40, 127
2, 102000, Note_on_c, 1, 52, 127
2, 102000, Note_on_c, 1, 79, 127
2, 102200, Note_off_c, 1, 79, 0
2, 102240, Note_on_c, 1, 79, 127
2, 102480, Note_off_c, 1, 79, 0
2, 102520, Note_on_c, 1, 79, 127
2, 102720, Note_off_c, 1, 79, 0
2, 102760, Note_on_c, 1, 79, 127
2, 102960, Note_off_c, 1, 79, 0
2, 103000, Note_on_c, 1, 79, 127
2, 103240, Note_off_c, 1, 79, 0
2, 103280, Note_on_c, 1, 79, 127
2, 103480, Note_off_c, 1, 40, 0
2, 103480, Note_off_c, 1, 52, 0
2, 103480, Note_off_c, 1, 79, 0
2, 103520, Note_on_c, 1, 45, 127
2, 103520, Note_on_c, 1, 57, 127
2, 103520, Note_on_c, 1, 77, 127
2, 103760, Note_off_c, 1, 77, 0
2, 103800, Note_on_c, 1, 77, 127
2, 104000, Note_off_c, 1, 45, 0
2, 104000, Note_off_c, 1, 57, 0
2, 104000, Note_off_c, 1, 77, 0
2, 104040, Note_on_c, 1, 48, 127
2, 104040, Note_on_c, 1, 60, 127
2, 104040, Note_on_c, 1, 82, 127
2, 104080, Note_off_c, 1, 82, 0
2, 104120, Note_off_c, 1, 48, 0
2, 104120, Note_off_c, 1, 60, 0
2, 104160, Note_on_c, 1, 48, 127
2, 104160, Note_on_c, 1, 60, 127
2, 104160, Note_on_c, 1, 80, 127
2, 104200, Note_off_c, 1, 80, 0
2, 104240, Note_on_c, 1, 79, 127
2, 104320, Note_off_c, 1, 48, 0
2, 104320, Note_off_c, 1, 60, 0
2, 104320, Note_off_c, 1, 79, 0
2, 104360, Note_on_c, 1, 55, 127
2, 104360, Note_on_c, 1, 67, 127
2, 104360, Note_on_c, 1, 83, 127
2, 104560, Note_off_c, 1, 55, 0
2, 104560, Note_off_c, 1, 67, 0
2, 104560, Note_off_c, 1, 83, 0
2, 104600, Note_on_c, 1, 55, 127
2, 104600, Note_on_c, 1, 67, 127
2, 104600, Note_on_c, 1, 79, 127
2, 104840, Note_off_c, 1, 79, 0
2, 104880, Note_on_c, 1, 74, 127
2, 105080, Note_off_c, 1, 55, 0
2, 105080, Note_off_c, 1, 67, 0
2, 105080, Note_off_c, 1, 74, 0
2, 105120, Note_on_c, 1, 48, 127
2, 105120, Note_on_c, 1, 72, 127
2, 105360, Note_off_c, 1, 48, 0
2, 105360, Note_off_c, 1, 72, 0
2, 105400, Note_on_c, 1, 48, 127
2, 105400, Note_on_c, 1, 67, 127
2, 105600, Note_off_c, 1, 48, 0
2, 105600, Note_off_c, 1, 67, 0
2, 105640, Note_on_c, 1, 55, 127
2, 105640, Note_on_c, 1, 60, 127
2, 105640, Note_on_c, 1, 69, 127
2, 106000, Note_off_c, 1, 69, 0
2, 106040, Note_on_c, 1, 69, 127
2, 106120, Note_off_c, 1, 55, 0
2, 106120, Note_off_c, 1, 60, 0
2, 106120, Note_off_c, 1, 69, 0
2, 106200, Note_on_c, 1, 52, 127
2, 106200, Note_on_c, 1, 60, 127
2, 106200, Note_on_c, 1, 69, 127
2, 106680, Note_off_c, 1, 60, 0
2, 106680, Note_off_c, 1, 69, 0
2, 106720, Note_on_c, 1, 60, 127
2, 106720, Note_on_c, 1, 72, 127
2, 106960, Note_off_c, 1, 60, 0
2, 107000, Note_on_c, 1, 60, 127
2, 107200, Note_off_c, 1, 52, 0
2, 107200, Note_off_c, 1, 60, 0
2, 107200, Note_off_c, 1, 72, 0
2, 107240, Note_on_c, 1, 48, 127
2, 107240, Note_on_c, 1, 60, 127
2, 107240, Note_on_c, 1, 76, 127
2, 107720, Note_off_c, 1, 48, 0
2, 107720, Note_off_c, 1, 60, 0
2, 107720, Note_off_c, 1, 76, 0
2, 107760, Note_on_c, 1, 55, 127
2, 107760, Note_on_c, 1, 64, 127
2, 107760, Note_on_c, 1, 72, 127
2, 108000, Note_off_c, 1, 64, 0
2, 108000, Note_off_c, 1, 72, 0
2, 108040, Note_off_c, 1, 55, 0
2, 108080, Note_on_c, 1, 55, 127
2, 108080, Note_on_c, 1, 62, 127
2, 108080, Note_on_c, 1, 71, 127
2, 108280, Note_off_c, 1, 55, 0
2, 108280, Note_off_c, 1, 62, 0
2, 108280, Note_off_c, 1, 71, 0
2, 108320, Note_on_c, 1, 59, 127
2, 108320, Note_on_c, 1, 67, 127
2, 108320, Note_on_c, 1, 74, 127
2, 108560, Note_off_c, 1, 67, 0
2, 108800, Note_off_c, 1, 59, 0
2, 108800, Note_off_c, 1, 74, 0
2, 108840, Note_on_c, 1, 60, 127
2, 108840, Note_on_c, 1, 64, 127
2, 108840, Note_on_c, 1, 76, 127
2, 109080, Note_off_c, 1, 60, 0
2, 109120, Note_on_c, 1, 55, 127
2, 109320, Note_off_c, 1, 55, 0
2, 109320, Note_off_c, 1, 64, 0
2, 109320, Note_off_c, 1, 76, 0
2, 109360, Note_on_c, 1, 48, 127
2, 109360, Note_on_c, 1, 62, 127
2, 109360, Note_on_c, 1, 72, 127
2, 109520, Note_off_c, 1, 48, 0
2, 109560, Note_on_c, 1, 50, 127
2, 109840, Note_off_c, 1, 50, 0
2, 109840, Note_off_c, 1, 62, 0
2, 109840, Note_off_c, 1, 72, 0
2, 109880, Note_on_c, 1, 50, 127
2, 109880, Note_on_c, 1, 67, 127
2, 109880, Note_on_c, 1, 71, 127
2, 110200, Note_off_c, 1, 50, 0
2, 110200, Note_off_c, 1, 67, 0
2, 110200, Note_off_c, 1, 71, 0
2, 110240, Note_on_c, 1, 50, 127
2, 110240, Note_on_c, 1, 67, 127
2, 110240, Note_on_c, 1, 71, 127
2, 110680, Note_off_c, 1, 71, 0
2, 110720, Note_on_c, 1, 72, 127
2, 110920, Note_off_c, 1, 67, 0
2, 110920, Note_off_c, 1, 72, 0
2, 110960, Note_on_c, 1, 66, 127
2, 110960, Note_on_c, 1, 69, 127
2, 111200, Note_off_c, 1, 66, 0
2, 111200, Note_off_c, 1, 69, 0
2, 111240, Note_on_c, 1, 74, 127
2, 111440, Note_off_c, 1, 50, 0
2, 111440, Note_off_c, 1, 74, 0
2, 111480, Note_on_c, 1, 53, 127
2, 111480, Note_on_c, 1, 69, 127
2, 111720, Note_off_c, 1, 69, 0
2, 111760, Note_on_c, 1, 65, 127
2, 111960, Note_off_c, 1, 65, 0
2, 112000, Note_on_c, 1, 57, 127
2, 112000, Note_on_c, 1, 60, 127
2, 112240, Note_off_c, 1, 57, 0
2, 112240, Note_off_c, 1, 60, 0
2, 112280, Note_off_c, 1, 53, 0
2, 112320, Note_on_c, 1, 53, 127
2, 112320, Note_on_c, 1, 65, 127
2, 112520, Note_off_c, 1, 53, 0
2, 112520, Note_off_c, 1, 65, 0
2, 112560, Note_on_c, 1, 52, 127
2, 112560, Note_on_c, 1, 67, 127
2, 112760, Note_off_c, 1, 67, 0
2, 112800, Note_on_c, 1, 64, 127
2, 113040, Note_off_c, 1, 52, 0
2, 113040, Note_off_c, 1, 64, 0
2, 113080, Note_on_c, 1, 50, 127
2, 113080, Note_on_c, 1, 65, 127
2, 113280, Note_off_c, 1, 65, 0
2, 113320, Note_on_c, 1, 62, 127
2, 113560, Note_off_c, 1, 50, 0
2, 113560, Note_off_c, 1, 62, 0
2, 113600, Note_on_c, 1, 48, 127
2, 113600, Note_on_c, 1, 52, 127
2, 113600, Note_on_c, 1, 60, 127
2, 114320, Note_off_c, 1, 48, 0
2, 114320, Note_off_c, 1, 52, 0
2, 114320, Note_off_c, 1, 60, 0
2, 114400, Note_on_c, 1, 36, 127
2, 114600, Note_off_c, 1, 36, 0
2, 114640, Note_on_c, 1, 53, 127
2, 114640, Note_on_c, 1, 81, 127
2, 114880, Note_off_c, 1, 53, 0
2, 114880, Note_off_c, 1, 81, 0
2, 114920, Note_on_c, 1, 60, 127
2, 114920, Note_on_c, 1, 86, 127
2, 115120, Note_off_c, 1, 60, 0
2, 115120, Note_off_c, 1, 86, 0
2, 115160, Note_on_c, 1, 55, 127
2, 115160, Note_on_c, 1, 82, 127
2, 115400, Note_off_c, 1, 55, 0
2, 115400, Note_off_c, 1, 82, 0
2, 115440, Note_on_c, 1, 53, 127
2, 115440, Note_on_c, 1, 77, 127
2, 115640, Note_off_c, 1, 53, 0
2, 115640, Note_off_c, 1, 77, 0
2, 115680, Note_on_c, 1, 52, 127
2, 115680, Note_on_c, 1, 82, 127
2, 115920, Note_off_c, 1, 52, 0
2, 115920, Note_off_c, 1, 82, 0
2, 115960, Note_on_c, 1, 53, 127
2, 115960, Note_on_c, 1, 81, 127
2, 116160, Note_off_c, 1, 53, 0
2, 116160, Note_off_c, 1, 81, 0
2, 116200, Note_on_c, 1, 65, 127
2, 116200, Note_on_c, 1, 81, 127
2, 116400, Note_off_c, 1, 65, 0
2, 116400, Note_off_c, 1, 81, 0
2, 116440, Note_on_c, 1, 65, 127
2, 116440, Note_on_c, 1, 81, 127
2, 116480, Note_off_c, 1, 65, 0
2, 116480, Note_off_c, 1, 81, 0
2, 116520, Note_on_c, 1, 48, 127
2, 116520, Note_on_c, 1, 69, 127
2, 116520, Note_on_c, 1, 72, 127
2, 116760, Note_off_c, 1, 48, 0
2, 116760, Note_off_c, 1, 69, 0
2, 116760, Note_off_c, 1, 72, 0
2, 116800, Note_on_c, 1, 36, 127
2, 116800, Note_on_c, 1, 65, 127
2, 116800, Note_on_c, 1, 69, 127
2, 117000, Note_off_c, 1, 36, 0
2, 117000, Note_off_c, 1, 65, 0
2, 117000, Note_off_c, 1, 69, 0
2, 117040, Note_on_c, 1, 48, 127
2, 117040, Note_on_c, 1, 65, 127
2, 117040, Note_on_c, 1, 69, 127
2, 117400, Note_off_c, 1, 69, 0
2, 117440, Note_on_c, 1, 74, 127
2, 117560, Note_off_c, 1, 48, 0
2, 117560, Note_off_c, 1, 65, 0
2, 117560, Note_off_c, 1, 74, 0
2, 117600, Note_on_c, 1, 48, 127
2, 117600, Note_on_c, 1, 64, 127
2, 117600, Note_on_c, 1, 72, 127
2, 118080, Note_off_c, 1, 48, 0
2, 118120, Note_on_c, 1, 55, 127
2, 118320, Note_off_c, 1, 55, 0
2, 118360, Note_on_c, 1, 52, 127
2, 118520, Note_off_c, 1, 52, 0
2, 118520, Note_off_c, 1, 64, 0
2, 118520, Note_off_c, 1, 72, 0
2, 118560, Note_on_c, 1, 52, 127
2, 118560, Note_on_c, 1, 64, 127
2, 118560, Note_on_c, 1, 72, 127
2, 118640, Note_off_c, 1, 52, 0
2, 118640, Note_off_c, 1, 64, 0
2, 118640, Note_off_c, 1, 72, 0
2, 118680, Note_on_c, 1, 43, 127
2, 118680, Note_on_c, 1, 65, 127
2, 118680, Note_on_c, 1, 74, 127
2, 119160, Note_off_c, 1, 65, 0
2, 119160, Note_off_c, 1, 74, 0
2, 119200, Note_off_c, 1, 43, 0
2, 119200, Note_on_c, 1, 48, 127
2, 119200, Note_on_c, 1, 64, 127
2, 119200, Note_on_c, 1, 72, 127
2, 119680, Note_off_c, 1, 48, 0
2, 119680, Note_off_c, 1, 64, 0
2, 119680, Note_off_c, 1, 72, 0
2, 119720, Note_on_c, 1, 53, 127
2, 119720, Note_on_c, 1, 65, 127
2, 120000, Note_off_c, 1, 53, 0
2, 120000, Note_off_c, 1, 65, 0
2, 120040, End_track
3, 0, Start_track
3, 0, Title_t, "MIDI"
3, 1536, End_track
0, 0, End_of_file
