0, 0, Header, 1, 3, 192
1, 0, Start_track
1, 0, Time_signature, 4, 2, 24, 8
1, 0, Tempo, 500000
1, 120040, End_track
2, 0, Start_track
2, 0, Text_t, "random instrument: random person i dunno whatev"
2, 0, Title_t, "Track 1"
2, 0, Note_on_c, 1, 40, 127
2, 0, Note_on_c, 1, 48, 127
2, 0, Note_on_c, 1, 56, 127
2, 0, Note_on_c, 1, 60, 127
2, 160, Note_off_c, 1, 40, 0
2, 160, Note_off_c, 1, 48, 0
2, 160, Note_off_c, 1, 56, 0
2, 160, Note_off_c, 1, 60, 0
2, 200, Note_on_c, 1, 35, 127
2, 200, Note_on_c, 1, 39, 127
2, 200, Note_on_c, 1, 47, 127
2, 200, Note_on_c, 1, 50, 127
2, 240, Note_off_c, 1, 35, 0
2, 240, Note_off_c, 1, 39, 0
2, 240, Note_off_c, 1, 47, 0
2, 240, Note_off_c, 1, 50, 0
2, 520, Note_on_c, 1, 42, 127
2, 520, Note_on_c, 1, 46, 127
2, 520, Note_on_c, 1, 49, 127
2, 520, Note_on_c, 1, 54, 127
2, 520, Note_on_c, 1, 66, 127
2, 520, Note_on_c, 1, 70, 127
2, 520, Note_on_c, 1, 73, 127
2, 520, Note_on_c, 1, 78, 127
2, 560, Note_off_c, 1, 42, 0
2, 560, Note_off_c, 1, 46, 0
2, 560, Note_off_c, 1, 49, 0
2, 560, Note_off_c, 1, 54, 0
2, 560, Note_off_c, 1, 66, 0
2, 560, Note_off_c, 1, 70, 0
2, 560, Note_off_c, 1, 73, 0
2, 560, Note_off_c, 1, 78, 0
2, 1440, Note_on_c, 1, 44, 127
2, 1440, Note_on_c, 1, 56, 127
2, 1440, Note_on_c, 1, 72, 127
2, 1440, Note_on_c, 1, 80, 127
2, 2000, Note_off_c, 1, 44, 0
2, 2000, Note_off_c, 1, 56, 0
2, 2000, Note_off_c, 1, 72, 0
2, 2000, Note_off_c, 1, 80, 0
2, 2040, Note_on_c, 1, 44, 127
2, 2040, Note_on_c, 1, 56, 127
2, 2040, Note_on_c, 1, 72, 127
2, 2040, Note_on_c, 1, 80, 127
2, 2560, Note_off_c, 1, 72, 0
2, 2560, Note_off_c, 1, 80, 0
2, 2600, Note_on_c, 1, 72, 127
2, 2600, Note_on_c, 1, 80, 127
2, 2800, Note_off_c, 1, 44, 0
2, 2800, Note_off_c, 1, 56, 0
2, 2800, Note_off_c, 1, 72, 0
2, 2800, Note_off_c, 1, 80, 0
2, 2840, Note_on_c, 1, 44, 127
2, 2840, Note_on_c, 1, 56, 127
2, 2840, Note_on_c, 1, 72, 127
2, 2840, Note_on_c, 1, 80, 127
2, 3000, Note_off_c, 1, 72, 0
2, 3000, Note_off_c, 1, 80, 0
2, 3760, Note_off_c, 1, 44, 0
2, 3760, Note_off_c, 1, 56, 0
2, 3800, Note_on_c, 1, 44, 127
2, 3800, Note_on_c, 1, 56, 127
2, 4880, Note_off_c, 1, 44, 0
2, 4880, Note_off_c, 1, 56, 0
2, 13400, Note_on_c, 1, 37, 127
2, 13400, Note_on_c, 1, 49, 127
2, 15040, Note_off_c, 1, 37, 0
2, 15040, Note_off_c, 1, 49, 0
2, 15080, Note_on_c, 1, 36, 127
2, 15080, Note_on_c, 1, 48, 127
2, 16000, Note_off_c, 1, 36, 0
2, 16000, Note_off_c, 1, 48, 0
2, 16040, Note_on_c, 1, 36, 127
2, 16040, Note_on_c, 1, 48, 127
2, 16040, Note_on_c, 1, 57, 127
2, 16040, Note_on_c, 1, 69, 127
2, 16280, Note_off_c, 1, 36, 0
2, 16280, Note_off_c, 1, 48, 0
2, 16280, Note_off_c, 1, 57, 0
2, 16280, Note_off_c, 1, 69, 0
2, 16320, Note_on_c, 1, 36, 127
2, 16320, Note_on_c, 1, 48, 127
2, 16320, Note_on_c, 1, 69, 127
2, 16360, Note_on_c, 1, 60, 127
2, 16600, Note_off_c, 1, 36, 0
2, 16600, Note_off_c, 1, 48, 0
2, 16600, Note_off_c, 1, 60, 0
2, 16600, Note_off_c, 1, 69, 0
2, 16640, Note_on_c, 1, 36, 127
2, 16640, Note_on_c, 1, 48, 127
2, 16640, Note_on_c, 1, 64, 127
2, 16640, Note_on_c, 1, 69, 127
2, 17160, Note_off_c, 1, 36, 0
2, 17160, Note_off_c, 1, 48, 0
2, 17160, Note_off_c, 1, 64, 0
2, 17160, Note_off_c, 1, 69, 0
2, 18240, Note_on_c, 1, 40, 127
2, 18240, Note_on_c, 1, 52, 127
2, 18240, Note_on_c, 1, 64, 127
2, 18760, Note_off_c, 1, 40, 0
2, 18760, Note_off_c, 1, 52, 0
2, 18760, Note_off_c, 1, 64, 0
2, 19840, Note_on_c, 1, 36, 127
2, 19840, Note_on_c, 1, 48, 127
2, 21400, Note_off_c, 1, 36, 0
2, 21400, Note_off_c, 1, 48, 0
2, 23560, Note_on_c, 1, 39, 127
2, 23560, Note_on_c, 1, 51, 127
2, 23560, Note_on_c, 1, 63, 127
2, 24320, Note_off_c, 1, 39, 0
2, 24320, Note_off_c, 1, 51, 0
2, 24320, Note_off_c, 1, 63, 0
2, 24360, Note_on_c, 1, 39, 127
2, 24360, Note_on_c, 1, 51, 127
2, 24360, Note_on_c, 1, 63, 127
2, 26160, Note_off_c, 1, 39, 0
2, 26160, Note_off_c, 1, 51, 0
2, 26160, Note_off_c, 1, 63, 0
2, 26200, Note_on_c, 1, 39, 127
2, 26200, Note_on_c, 1, 51, 127
2, 26200, Note_on_c, 1, 63, 127
2, 26880, Note_off_c, 1, 39, 0
2, 26880, Note_off_c, 1, 51, 0
2, 26880, Note_off_c, 1, 63, 0
2, 30640, Note_on_c, 1, 43, 127
2, 31480, Note_off_c, 1, 43, 0
2, 34840, Note_on_c, 1, 45, 127
2, 34840, Note_on_c, 1, 57, 127
2, 34840, Note_on_c, 1, 73, 127
2, 34840, Note_on_c, 1, 79, 127
2, 35880, Note_off_c, 1, 45, 0
2, 35880, Note_off_c, 1, 57, 0
2, 35880, Note_off_c, 1, 73, 0
2, 35880, Note_off_c, 1, 79, 0
2, 36040, Note_on_c, 1, 45, 127
2, 36240, Note_off_c, 1, 45, 0
2, 36600, Note_on_c, 1, 59, 127
2, 36600, Note_on_c, 1, 74, 127
2, 36840, Note_off_c, 1, 59, 0
2, 36840, Note_off_c, 1, 74, 0
2, 36920, Note_on_c, 1, 57, 127
2, 36920, Note_on_c, 1, 73, 127
2, 37120, Note_off_c, 1, 57, 0
2, 37120, Note_off_c, 1, 73, 0
2, 37160, Note_on_c, 1, 45, 127
2, 37400, Note_off_c, 1, 45, 0
2, 37720, Note_on_c, 1, 57, 127
2, 37720, Note_on_c, 1, 76, 127
2, 37960, Note_off_c, 1, 57, 0
2, 37960, Note_off_c, 1, 76, 0
2, 38280, Note_on_c, 1, 57, 127
2, 38280, Note_on_c, 1, 76, 127
2, 38520, Note_off_c, 1, 57, 0
2, 38520, Note_off_c, 1, 76, 0
2, 38840, Note_on_c, 1, 57, 127
2, 38840, Note_on_c, 1, 76, 127
2, 39080, Note_off_c, 1, 57, 0
2, 39080, Note_off_c, 1, 76, 0
2, 39440, Note_on_c, 1, 57, 127
2, 39440, Note_on_c, 1, 61, 127
2, 39440, Note_on_c, 1, 69, 127
2, 39920, Note_off_c, 1, 57, 0
2, 39920, Note_off_c, 1, 61, 0
2, 39920, Note_off_c, 1, 69, 0
2, 39960, Note_on_c, 1, 50, 127
2, 40200, Note_off_c, 1, 50, 0
2, 47680, Note_on_c, 1, 47, 127
2, 47680, Note_on_c, 1, 57, 127
2, 47680, Note_on_c, 1, 62, 127
2, 47680, Note_on_c, 1, 68, 127
2, 47680, Note_on_c, 1, 71, 127
2, 47920, Note_off_c, 1, 47, 0
2, 47920, Note_off_c, 1, 57, 0
2, 47920, Note_off_c, 1, 62, 0
2, 47920, Note_off_c, 1, 68, 0
2, 47920, Note_off_c, 1, 71, 0
2, 47960, Note_on_c, 1, 52, 127
2, 47960, Note_on_c, 1, 59, 127
2, 47960, Note_on_c, 1, 67, 127
2, 47960, Note_on_c, 1, 71, 127
2, 47960, Note_on_c, 1, 76, 127
2, 47960, Note_on_c, 1, 79, 127
2, 48200, Note_off_c, 1, 52, 0
2, 48200, Note_off_c, 1, 59, 0
2, 48200, Note_off_c, 1, 67, 0
2, 48200, Note_off_c, 1, 71, 0
2, 48200, Note_off_c, 1, 76, 0
2, 48200, Note_off_c, 1, 79, 0
2, 48240, Note_on_c, 1, 41, 127
2, 48240, Note_on_c, 1, 53, 127
2, 48240, Note_on_c, 1, 69, 127
2, 48240, Note_on_c, 1, 76, 127
2, 48240, Note_on_c, 1, 81, 127
2, 48480, Note_off_c, 1, 41, 0
2, 48480, Note_off_c, 1, 53, 0
2, 48480, Note_off_c, 1, 69, 0
2, 48480, Note_off_c, 1, 76, 0
2, 48480, Note_off_c, 1, 81, 0
2, 48520, Note_on_c, 1, 41, 127
2, 48520, Note_on_c, 1, 53, 127
2, 48520, Note_on_c, 1, 69, 127
2, 48520, Note_on_c, 1, 76, 127
2, 48520, Note_on_c, 1, 81, 127
2, 48760, Note_off_c, 1, 41, 0
2, 48760, Note_off_c, 1, 53, 0
2, 48760, Note_off_c, 1, 69, 0
2, 48760, Note_off_c, 1, 76, 0
2, 48760, Note_off_c, 1, 81, 0
2, 48800, Note_on_c, 1, 41, 127
2, 48800, Note_on_c, 1, 53, 127
2, 48800, Note_on_c, 1, 69, 127
2, 48800, Note_on_c, 1, 76, 127
2, 48800, Note_on_c, 1, 81, 127
2, 49000, Note_off_c, 1, 41, 0
2, 49000, Note_off_c, 1, 53, 0
2, 49000, Note_off_c, 1, 69, 0
2, 49000, Note_off_c, 1, 76, 0
2, 49000, Note_off_c, 1, 81, 0
2, 49080, Note_on_c, 1, 41, 127
2, 49080, Note_on_c, 1, 53, 127
2, 49080, Note_on_c, 1, 69, 127
2, 49080, Note_on_c, 1, 76, 127
2, 49080, Note_on_c, 1, 81, 127
2, 49240, Note_off_c, 1, 41, 0
2, 49240, Note_off_c, 1, 53, 0
2, 49240, Note_off_c, 1, 69, 0
2, 49240, Note_off_c, 1, 76, 0
2, 49240, Note_off_c, 1, 81, 0
2, 49280, Note_on_c, 1, 41, 127
2, 49280, Note_on_c, 1, 53, 127
2, 49280, Note_on_c, 1, 69, 127
2, 49280, Note_on_c, 1, 76, 127
2, 49280, Note_on_c, 1, 81, 127
2, 49320, Note_off_c, 1, 41, 0
2, 49320, Note_off_c, 1, 53, 0
2, 49320, Note_off_c, 1, 69, 0
2, 49320, Note_off_c, 1, 76, 0
2, 49320, Note_off_c, 1, 81, 0
2, 49360, Note_on_c, 1, 41, 127
2, 49360, Note_on_c, 1, 53, 127
2, 49360, Note_on_c, 1, 69, 127
2, 49360, Note_on_c, 1, 76, 127
2, 49360, Note_on_c, 1, 81, 127
2, 49560, Note_off_c, 1, 41, 0
2, 49560, Note_off_c, 1, 53, 0
2, 49560, Note_off_c, 1, 69, 0
2, 49560, Note_off_c, 1, 76, 0
2, 49560, Note_off_c, 1, 81, 0
2, 49600, Note_on_c, 1, 41, 127
2, 49600, Note_on_c, 1, 53, 127
2, 49600, Note_on_c, 1, 69, 127
2, 49600, Note_on_c, 1, 76, 127
2, 49600, Note_on_c, 1, 81, 127
2, 49840, Note_off_c, 1, 41, 0
2, 49840, Note_off_c, 1, 53, 0
2, 49840, Note_off_c, 1, 69, 0
2, 49840, Note_off_c, 1, 76, 0
2, 49840, Note_off_c, 1, 81, 0
2, 49880, Note_on_c, 1, 41, 127
2, 49880, Note_on_c, 1, 53, 127
2, 49880, Note_on_c, 1, 69, 127
2, 49880, Note_on_c, 1, 76, 127
2, 49880, Note_on_c, 1, 81, 127
2, 50040, Note_off_c, 1, 41, 0
2, 50040, Note_off_c, 1, 53, 0
2, 50040, Note_off_c, 1, 69, 0
2, 50040, Note_off_c, 1, 76, 0
2, 50040, Note_off_c, 1, 81, 0
2, 50120, Note_on_c, 1, 31, 127
2, 50120, Note_on_c, 1, 43, 127
2, 50120, Note_on_c, 1, 67, 127
2, 50120, Note_on_c, 1, 71, 127
2, 50120, Note_on_c, 1, 74, 127
2, 50120, Note_on_c, 1, 77, 127
2, 50120, Note_on_c, 1, 79, 127
2, 50360, Note_off_c, 1, 31, 0
2, 50360, Note_off_c, 1, 43, 0
2, 50360, Note_off_c, 1, 67, 0
2, 50360, Note_off_c, 1, 71, 0
2, 50360, Note_off_c, 1, 74, 0
2, 50360, Note_off_c, 1, 77, 0
2, 50360, Note_off_c, 1, 79, 0
2, 50400, Note_on_c, 1, 60, 127
2, 50400, Note_on_c, 1, 63, 127
2, 50400, Note_on_c, 1, 66, 127
2, 50400, Note_on_c, 1, 68, 127
2, 50400, Note_on_c, 1, 78, 127
2, 50400, Note_on_c, 1, 87, 127
2, 50400, Note_on_c, 1, 90, 127
2, 51400, Note_off_c, 1, 60, 0
2, 51400, Note_off_c, 1, 63, 0
2, 51400, Note_off_c, 1, 66, 0
2, 51400, Note_off_c, 1, 68, 0
2, 51400, Note_off_c, 1, 78, 0
2, 51400, Note_off_c, 1, 87, 0
2, 51400, Note_off_c, 1, 90, 0
2, 51520, Note_on_c, 1, 41, 127
2, 51520, Note_on_c, 1, 53, 127
2, 51520, Note_on_c, 1, 77, 127
2, 51520, Note_on_c, 1, 81, 127
2, 51520, Note_on_c, 1, 84, 127
2, 51520, Note_on_c, 1, 89, 127
2, 51880, Note_on_c, 1, 48, 127
2, 51960, Note_off_c, 1, 48, 0
2, 52000, Note_off_c, 1, 41, 0
2, 52000, Note_off_c, 1, 53, 0
2, 52000, Note_off_c, 1, 77, 0
2, 52000, Note_off_c, 1, 81, 0
2, 52000, Note_off_c, 1, 84, 0
2, 52000, Note_off_c, 1, 89, 0
2, 52040, Note_on_c, 1, 45, 127
2, 52040, Note_on_c, 1, 53, 127
2, 52040, Note_on_c, 1, 60, 127
2, 52040, Note_on_c, 1, 65, 127
2, 52520, Note_off_c, 1, 45, 0
2, 52520, Note_off_c, 1, 53, 0
2, 52520, Note_off_c, 1, 60, 0
2, 52520, Note_off_c, 1, 65, 0
2, 52560, Note_on_c, 1, 45, 127
2, 52560, Note_on_c, 1, 53, 127
2, 52560, Note_on_c, 1, 60, 127
2, 52560, Note_on_c, 1, 65, 127
2, 53040, Note_off_c, 1, 45, 0
2, 53040, Note_off_c, 1, 53, 0
2, 53040, Note_off_c, 1, 60, 0
2, 53040, Note_off_c, 1, 65, 0
2, 53080, Note_on_c, 1, 45, 127
2, 53080, Note_on_c, 1, 53, 127
2, 53080, Note_on_c, 1, 60, 127
2, 53080, Note_on_c, 1, 65, 127
2, 53320, Note_off_c, 1, 65, 0
2, 53360, Note_on_c, 1, 31, 127
2, 53360, Note_on_c, 1, 43, 127
2, 53360, Note_off_c, 1, 45, 0
2, 53360, Note_on_c, 1, 50, 127
2, 53360, Note_off_c, 1, 53, 0
2, 53360, Note_off_c, 1, 60, 0
2, 53360, Note_on_c, 1, 62, 127
2, 53360, Note_on_c, 1, 71, 127
2, 53360, Note_on_c, 1, 83, 127
2, 53400, Note_off_c, 1, 83, 0
2, 53440, Note_off_c, 1, 31, 0
2, 53440, Note_off_c, 1, 50, 0
2, 53440, Note_on_c, 1, 53, 127
2, 53440, Note_on_c, 1, 58, 127
2, 53440, Note_off_c, 1, 62, 0
2, 53440, Note_on_c, 1, 65, 127
2, 53440, Note_off_c, 1, 71, 0
2, 53480, Note_off_c, 1, 43, 0
2, 53480, Note_off_c, 1, 53, 0
2, 53480, Note_off_c, 1, 58, 0
2, 53480, Note_off_c, 1, 65, 0
2, 53520, Note_on_c, 1, 31, 127
2, 53520, Note_on_c, 1, 43, 127
2, 53520, Note_on_c, 1, 50, 127
2, 53520, Note_on_c, 1, 62, 127
2, 53520, Note_on_c, 1, 71, 127
2, 53560, Note_on_c, 1, 79, 127
2, 53600, Note_off_c, 1, 31, 0
2, 53600, Note_off_c, 1, 43, 0
2, 53600, Note_off_c, 1, 50, 0
2, 53600, Note_off_c, 1, 62, 0
2, 53600, Note_off_c, 1, 71, 0
2, 53600, Note_off_c, 1, 79, 0
2, 53640, Note_on_c, 1, 39, 127
2, 53640, Note_on_c, 1, 46, 127
2, 53640, Note_on_c, 1, 51, 127
2, 53640, Note_on_c, 1, 54, 127
2, 53640, Note_on_c, 1, 58, 127
2, 53640, Note_on_c, 1, 66, 127
2, 54400, Note_off_c, 1, 39, 0
2, 54400, Note_off_c, 1, 46, 0
2, 54400, Note_off_c, 1, 51, 0
2, 54400, Note_off_c, 1, 54, 0
2, 54400, Note_off_c, 1, 58, 0
2, 54400, Note_off_c, 1, 66, 0
2, 54440, Note_on_c, 1, 39, 127
2, 54440, Note_on_c, 1, 46, 127
2, 54440, Note_on_c, 1, 51, 127
2, 54440, Note_on_c, 1, 54, 127
2, 54440, Note_on_c, 1, 58, 127
2, 54440, Note_on_c, 1, 63, 127
2, 55480, Note_off_c, 1, 39, 0
2, 55480, Note_off_c, 1, 46, 0
2, 55480, Note_off_c, 1, 51, 0
2, 55480, Note_off_c, 1, 54, 0
2, 55480, Note_off_c, 1, 58, 0
2, 55480, Note_off_c, 1, 63, 0
2, 55560, Note_on_c, 1, 39, 127
2, 55560, Note_on_c, 1, 46, 127
2, 55560, Note_on_c, 1, 51, 127
2, 55560, Note_on_c, 1, 54, 127
2, 55560, Note_on_c, 1, 58, 127
2, 55560, Note_on_c, 1, 63, 127
2, 57640, Note_off_c, 1, 39, 0
2, 57640, Note_off_c, 1, 46, 0
2, 57640, Note_off_c, 1, 51, 0
2, 57640, Note_off_c, 1, 54, 0
2, 57640, Note_off_c, 1, 58, 0
2, 57640, Note_off_c, 1, 63, 0
2, 57680, Note_on_c, 1, 39, 127
2, 57680, Note_on_c, 1, 46, 127
2, 57680, Note_on_c, 1, 51, 127
2, 57680, Note_on_c, 1, 54, 127
2, 57680, Note_on_c, 1, 58, 127
2, 57680, Note_on_c, 1, 63, 127
2, 59640, Note_off_c, 1, 39, 0
2, 59640, Note_off_c, 1, 46, 0
2, 59640, Note_off_c, 1, 51, 0
2, 59640, Note_off_c, 1, 54, 0
2, 59640, Note_off_c, 1, 58, 0
2, 59640, Note_off_c, 1, 63, 0
2, 59680, Note_on_c, 1, 39, 127
2, 59680, Note_on_c, 1, 46, 127
2, 59680, Note_on_c, 1, 51, 127
2, 59680, Note_on_c, 1, 54, 127
2, 59680, Note_on_c, 1, 58, 127
2, 59680, Note_on_c, 1, 63, 127
2, 62000, Note_off_c, 1, 39, 0
2, 62000, Note_off_c, 1, 46, 0
2, 62000, Note_off_c, 1, 51, 0
2, 62000, Note_off_c, 1, 54, 0
2, 62000, Note_off_c, 1, 58, 0
2, 62000, Note_off_c, 1, 63, 0
2, 62040, Note_on_c, 1, 39, 127
2, 62040, Note_on_c, 1, 46, 127
2, 62040, Note_on_c, 1, 51, 127
2, 62040, Note_on_c, 1, 54, 127
2, 62040, Note_on_c, 1, 58, 127
2, 62040, Note_on_c, 1, 63, 127
2, 64280, Note_off_c, 1, 39, 0
2, 64280, Note_off_c, 1, 46, 0
2, 64280, Note_off_c, 1, 51, 0
2, 64280, Note_off_c, 1, 54, 0
2, 64280, Note_off_c, 1, 58, 0
2, 64280, Note_off_c, 1, 63, 0
2, 64320, Note_on_c, 1, 39, 127
2, 64320, Note_on_c, 1, 46, 127
2, 64320, Note_on_c, 1, 51, 127
2, 64320, Note_on_c, 1, 54, 127
2, 64320, Note_on_c, 1, 58, 127
2, 64320, Note_on_c, 1, 63, 127
2, 66360, Note_off_c, 1, 39, 0
2, 66360, Note_off_c, 1, 46, 0
2, 66360, Note_off_c, 1, 51, 0
2, 66360, Note_off_c, 1, 54, 0
2, 66360, Note_off_c, 1, 58, 0
2, 66360, Note_off_c, 1, 63, 0
2, 66400, Note_on_c, 1, 39, 127
2, 66400, Note_on_c, 1, 46, 127
2, 66400, Note_on_c, 1, 51, 127
2, 66400, Note_on_c, 1, 54, 127
2, 66400, Note_on_c, 1, 58, 127
2, 66400, Note_on_c, 1, 63, 127
2, 68760, Note_off_c, 1, 39, 0
2, 68760, Note_off_c, 1, 46, 0
2, 68760, Note_off_c, 1, 51, 0
2, 68760, Note_off_c, 1, 54, 0
2, 68760, Note_off_c, 1, 58, 0
2, 68760, Note_off_c, 1, 63, 0
2, 68800, Note_on_c, 1, 39, 127
2, 68800, Note_on_c, 1, 46, 127
2, 68800, Note_on_c, 1, 51, 127
2, 68800, Note_on_c, 1, 54, 127
2, 68800, Note_on_c, 1, 58, 127
2, 68800, Note_on_c, 1, 63, 127
2, 70200, Note_off_c, 1, 39, 0
2, 70200, Note_off_c, 1, 46, 0
2, 70200, Note_off_c, 1, 51, 0
2, 70200, Note_off_c, 1, 54, 0
2, 70200, Note_off_c, 1, 58, 0
2, 70200, Note_off_c, 1, 63, 0
2, 74720, Note_on_c, 1, 55, 127
2, 74720, Note_on_c, 1, 58, 127
2, 74720, Note_on_c, 1, 62, 127
2, 74720, Note_on_c, 1, 67, 127
2, 74720, Note_on_c, 1, 70, 127
2, 75440, Note_off_c, 1, 55, 0
2, 75440, Note_off_c, 1, 58, 0
2, 75440, Note_off_c, 1, 62, 0
2, 75440, Note_off_c, 1, 67, 0
2, 75440, Note_off_c, 1, 70, 0
2, 75560, Note_on_c, 1, 50, 127
2, 75560, Note_on_c, 1, 55, 127
2, 75560, Note_on_c, 1, 58, 127
2, 76480, Note_off_c, 1, 50, 0
2, 76480, Note_off_c, 1, 55, 0
2, 76480, Note_off_c, 1, 58, 0
2, 76560, Note_on_c, 1, 55, 127
2, 76560, Note_on_c, 1, 58, 127
2, 77040, Note_off_c, 1, 55, 0
2, 77040, Note_off_c, 1, 58, 0
2, 77160, Note_on_c, 1, 55, 127
2, 77160, Note_on_c, 1, 58, 127
2, 77240, Note_off_c, 1, 58, 0
2, 77240, Note_on_c, 1, 60, 127
2, 77360, Note_off_c, 1, 55, 0
2, 77360, Note_off_c, 1, 60, 0
2, 77720, Note_on_c, 1, 43, 127
2, 77720, Note_on_c, 1, 50, 127
2, 77960, Note_off_c, 1, 43, 0
2, 77960, Note_off_c, 1, 50, 0
2, 78280, Note_on_c, 1, 50, 127
2, 78280, Note_on_c, 1, 55, 127
2, 78280, Note_on_c, 1, 58, 127
2, 78680, Note_off_c, 1, 50, 0
2, 78680, Note_off_c, 1, 55, 0
2, 78680, Note_off_c, 1, 58, 0
2, 79840, Note_on_c, 1, 38, 127
2, 79840, Note_on_c, 1, 50, 127
2, 79840, Note_on_c, 1, 57, 127
2, 79840, Note_on_c, 1, 66, 127
2, 79840, Note_on_c, 1, 69, 127
2, 80520, Note_off_c, 1, 38, 0
2, 80520, Note_off_c, 1, 50, 0
2, 80520, Note_off_c, 1, 57, 0
2, 80520, Note_off_c, 1, 66, 0
2, 80520, Note_off_c, 1, 69, 0
2, 85840, Note_on_c, 1, 51, 127
2, 85840, Note_on_c, 1, 58, 127
2, 85840, Note_on_c, 1, 67, 127
2, 85840, Note_on_c, 1, 75, 127
2, 87840, Note_off_c, 1, 51, 0
2, 87840, Note_off_c, 1, 58, 0
2, 87840, Note_off_c, 1, 67, 0
2, 87840, Note_off_c, 1, 75, 0
2, 87880, Note_on_c, 1, 51, 127
2, 87880, Note_on_c, 1, 58, 127
2, 87880, Note_on_c, 1, 67, 127
2, 87880, Note_on_c, 1, 75, 127
2, 89800, Note_off_c, 1, 51, 0
2, 89800, Note_off_c, 1, 58, 0
2, 89800, Note_off_c, 1, 67, 0
2, 89800, Note_off_c, 1, 75, 0
2, 89840, Note_on_c, 1, 51, 127
2, 89840, Note_on_c, 1, 58, 127
2, 89840, Note_on_c, 1, 67, 127
2, 89840, Note_on_c, 1, 75, 127
2, 90560, Note_off_c, 1, 51, 0
2, 90560, Note_off_c, 1, 58, 0
2, 90560, Note_off_c, 1, 67, 0
2, 90560, Note_off_c, 1, 75, 0
2, 90600, Note_on_c, 1, 51, 127
2, 90600, Note_on_c, 1, 58, 127
2, 90600, Note_on_c, 1, 67, 127
2, 90600, Note_on_c, 1, 75, 127
2, 91000, Note_off_c, 1, 51, 0
2, 91000, Note_off_c, 1, 58, 0
2, 91000, Note_off_c, 1, 67, 0
2, 91000, Note_off_c, 1, 75, 0
2, 91040, Note_on_c, 1, 51, 127
2, 91040, Note_on_c, 1, 58, 127
2, 91040, Note_on_c, 1, 67, 127
2, 91040, Note_on_c, 1, 75, 127
2, 92720, Note_off_c, 1, 51, 0
2, 92720, Note_off_c, 1, 58, 0
2, 92720, Note_off_c, 1, 67, 0
2, 92720, Note_off_c, 1, 75, 0
2, 92760, Note_on_c, 1, 51, 127
2, 92760, Note_on_c, 1, 58, 127
2, 92760, Note_on_c, 1, 67, 127
2, 92760, Note_on_c, 1, 75, 127
2, 95160, Note_off_c, 1, 51, 0
2, 95160, Note_off_c, 1, 58, 0
2, 95160, Note_off_c, 1, 67, 0
2, 95160, Note_off_c, 1, 75, 0
2, 95200, Note_on_c, 1, 51, 127
2, 95200, Note_on_c, 1, 58, 127
2, 95200, Note_on_c, 1, 67, 127
2, 95200, Note_on_c, 1, 75, 127
2, 97320, Note_on_c, 1, 47, 127
2, 97320, Note_off_c, 1, 51, 0
2, 97320, Note_on_c, 1, 54, 127
2, 97320, Note_off_c, 1, 58, 0
2, 97320, Note_on_c, 1, 63, 127
2, 97320, Note_off_c, 1, 67, 0
2, 97640, Note_off_c, 1, 47, 0
2, 97640, Note_off_c, 1, 54, 0
2, 97640, Note_off_c, 1, 63, 0
2, 97640, Note_off_c, 1, 75, 0
2, 97680, Note_on_c, 1, 47, 127
2, 97680, Note_on_c, 1, 54, 127
2, 97680, Note_on_c, 1, 63, 127
2, 97680, Note_on_c, 1, 75, 127
2, 99080, Note_off_c, 1, 63, 0
2, 99120, Note_on_c, 1, 63, 127
2, 100000, Note_off_c, 1, 47, 0
2, 100000, Note_off_c, 1, 54, 0
2, 100000, Note_off_c, 1, 63, 0
2, 100000, Note_off_c, 1, 75, 0
2, 100040, Note_on_c, 1, 47, 127
2, 100040, Note_on_c, 1, 54, 127
2, 100040, Note_on_c, 1, 63, 127
2, 100040, Note_on_c, 1, 75, 127
2, 100280, Note_off_c, 1, 47, 0
2, 100280, Note_off_c, 1, 54, 0
2, 100280, Note_off_c, 1, 63, 0
2, 100280, Note_off_c, 1, 75, 0
2, 100320, Note_on_c, 1, 59, 127
2, 100320, Note_on_c, 1, 63, 127
2, 100320, Note_on_c, 1, 75, 127
2, 101480, Note_off_c, 1, 59, 0
2, 101480, Note_off_c, 1, 63, 0
2, 101480, Note_off_c, 1, 75, 0
2, 101520, Note_on_c, 1, 51, 127
2, 101520, Note_on_c, 1, 79, 127
2, 102120, Note_off_c, 1, 51, 0
2, 102120, Note_off_c, 1, 79, 0
2, 102160, Note_on_c, 1, 51, 127
2, 102160, Note_on_c, 1, 58, 127
2, 102160, Note_on_c, 1, 79, 127
2, 102360, Note_on_c, 1, 67, 127
2, 102720, Note_off_c, 1, 58, 0
2, 102720, Note_off_c, 1, 79, 0
2, 102760, Note_on_c, 1, 58, 127
2, 102760, Note_on_c, 1, 73, 127
2, 103280, Note_off_c, 1, 58, 0
2, 103280, Note_off_c, 1, 73, 0
2, 103320, Note_on_c, 1, 58, 127
2, 103320, Note_off_c, 1, 67, 0
2, 103320, Note_on_c, 1, 75, 127
2, 103600, Note_on_c, 1, 67, 127
2, 103880, Note_off_c, 1, 51, 0
2, 103880, Note_off_c, 1, 58, 0
2, 103880, Note_off_c, 1, 67, 0
2, 103880, Note_off_c, 1, 75, 0
2, 103920, Note_on_c, 1, 51, 127
2, 103920, Note_on_c, 1, 58, 127
2, 103920, Note_on_c, 1, 67, 127
2, 103920, Note_on_c, 1, 75, 127
2, 104160, Note_off_c, 1, 51, 0
2, 104160, Note_off_c, 1, 58, 0
2, 104160, Note_off_c, 1, 67, 0
2, 104160, Note_off_c, 1, 75, 0
2, 104200, Note_on_c, 1, 51, 127
2, 104200, Note_on_c, 1, 58, 127
2, 104200, Note_on_c, 1, 67, 127
2, 104200, Note_on_c, 1, 75, 127
2, 105120, Note_off_c, 1, 51, 0
2, 105120, Note_off_c, 1, 58, 0
2, 105120, Note_off_c, 1, 67, 0
2, 105120, Note_off_c, 1, 75, 0
2, 105160, Note_on_c, 1, 44, 127
2, 105160, Note_on_c, 1, 75, 127
2, 105760, Note_on_c, 1, 48, 127
2, 105760, Note_on_c, 1, 68, 127
2, 105800, Note_off_c, 1, 48, 0
2, 105800, Note_on_c, 1, 51, 127
2, 105800, Note_on_c, 1, 63, 127
2, 105800, Note_off_c, 1, 68, 0
2, 105960, Note_off_c, 1, 44, 0
2, 105960, Note_off_c, 1, 51, 0
2, 105960, Note_off_c, 1, 63, 0
2, 105960, Note_off_c, 1, 75, 0
2, 106000, Note_on_c, 1, 44, 127
2, 106000, Note_on_c, 1, 51, 127
2, 106000, Note_on_c, 1, 63, 127
2, 106000, Note_on_c, 1, 75, 127
2, 106320, Note_off_c, 1, 51, 0
2, 106320, Note_off_c, 1, 63, 0
2, 106360, Note_off_c, 1, 44, 0
2, 106360, Note_off_c, 1, 75, 0
2, 106400, Note_on_c, 1, 44, 127
2, 106400, Note_on_c, 1, 56, 127
2, 106400, Note_on_c, 1, 72, 127
2, 106400, Note_on_c, 1, 75, 127
2, 106400, Note_on_c, 1, 84, 127
2, 106960, Note_on_c, 1, 51, 127
2, 106960, Note_on_c, 1, 71, 127
2, 106960, Note_off_c, 1, 72, 0
2, 106960, Note_off_c, 1, 75, 0
2, 106960, Note_off_c, 1, 84, 0
2, 107000, Note_off_c, 1, 44, 0
2, 107000, Note_on_c, 1, 60, 127
2, 107000, Note_on_c, 1, 63, 127
2, 107000, Note_off_c, 1, 71, 0
2, 107000, Note_on_c, 1, 80, 127
2, 107000, Note_on_c, 1, 84, 127
2, 107360, Note_on_c, 1, 75, 127
2, 107360, Note_off_c, 1, 80, 0
2, 107360, Note_off_c, 1, 84, 0
2, 107360, Note_on_c, 1, 87, 127
2, 107400, Note_off_c, 1, 56, 0
2, 107400, Note_off_c, 1, 60, 0
2, 107400, Note_off_c, 1, 75, 0
2, 107400, Note_off_c, 1, 87, 0
2, 107440, Note_on_c, 1, 58, 127
2, 107560, Note_off_c, 1, 58, 0
2, 107600, Note_on_c, 1, 47, 127
2, 107800, Note_off_c, 1, 47, 0
2, 107800, Note_off_c, 1, 51, 0
2, 107800, Note_off_c, 1, 63, 0
2, 107840, Note_on_c, 1, 47, 127
2, 107840, Note_on_c, 1, 51, 127
2, 107840, Note_on_c, 1, 63, 127
2, 107880, Note_off_c, 1, 47, 0
2, 108200, Note_off_c, 1, 51, 0
2, 108200, Note_off_c, 1, 63, 0
2, 108240, Note_on_c, 1, 44, 127
2, 108240, Note_on_c, 1, 63, 127
2, 108800, Note_off_c, 1, 44, 0
2, 108800, Note_on_c, 1, 78, 127
2, 108840, Note_on_c, 1, 44, 127
2, 108840, Note_on_c, 1, 56, 127
2, 108840, Note_on_c, 1, 59, 127
2, 108840, Note_off_c, 1, 78, 0
2, 109400, Note_off_c, 1, 56, 0
2, 109400, Note_off_c, 1, 59, 0
2, 109400, Note_off_c, 1, 63, 0
2, 109440, Note_on_c, 1, 68, 127
2, 109840, Note_off_c, 1, 44, 0
2, 109840, Note_off_c, 1, 68, 0
2, 109880, Note_on_c, 1, 44, 127
2, 109880, Note_on_c, 1, 68, 127
2, 110040, Note_off_c, 1, 44, 0
2, 110040, Note_off_c, 1, 68, 0
2, 110080, Note_on_c, 1, 44, 127
2, 110080, Note_on_c, 1, 63, 127
2, 110080, Note_on_c, 1, 68, 127
2, 110080, Note_on_c, 1, 71, 127
2, 111240, Note_off_c, 1, 44, 0
2, 111240, Note_off_c, 1, 63, 0
2, 111240, Note_off_c, 1, 68, 0
2, 111240, Note_off_c, 1, 71, 0
2, 111280, Note_on_c, 1, 49, 127
2, 111280, Note_on_c, 1, 58, 127
2, 111280, Note_on_c, 1, 65, 127
2, 112080, Note_off_c, 1, 49, 0
2, 112080, Note_off_c, 1, 58, 0
2, 112080, Note_off_c, 1, 65, 0
2, 112120, Note_on_c, 1, 49, 127
2, 112120, Note_on_c, 1, 58, 127
2, 112120, Note_on_c, 1, 65, 127
2, 112480, Note_off_c, 1, 49, 0
2, 112480, Note_off_c, 1, 58, 0
2, 112480, Note_off_c, 1, 65, 0
2, 112520, Note_on_c, 1, 59, 127
2, 112520, Note_on_c, 1, 63, 127
2, 112520, Note_on_c, 1, 66, 127
2, 112520, Note_on_c, 1, 68, 127
2, 113080, Note_off_c, 1, 63, 0
2, 113080, Note_off_c, 1, 66, 0
2, 113120, Note_on_c, 1, 63, 127
2, 113120, Note_on_c, 1, 66, 127
2, 113680, Note_off_c, 1, 59, 0
2, 113680, Note_off_c, 1, 63, 0
2, 113680, Note_off_c, 1, 66, 0
2, 113680, Note_off_c, 1, 68, 0
2, 113720, Note_on_c, 1, 58, 127
2, 113720, Note_on_c, 1, 62, 127
2, 113720, Note_on_c, 1, 66, 127
2, 114120, Note_off_c, 1, 58, 0
2, 114120, Note_off_c, 1, 62, 0
2, 114120, Note_off_c, 1, 66, 0
2, 114160, Note_on_c, 1, 58, 127
2, 114160, Note_on_c, 1, 62, 127
2, 114160, Note_on_c, 1, 66, 127
2, 114320, Note_off_c, 1, 62, 0
2, 114320, Note_off_c, 1, 66, 0
2, 114360, Note_off_c, 1, 58, 0
2, 114360, Note_on_c, 1, 59, 127
2, 114360, Note_on_c, 1, 63, 127
2, 114360, Note_on_c, 1, 68, 127
2, 114920, Note_off_c, 1, 59, 0
2, 114920, Note_off_c, 1, 63, 0
2, 114920, Note_off_c, 1, 68, 0
2, 114960, Note_on_c, 1, 58, 127
2, 114960, Note_on_c, 1, 61, 127
2, 114960, Note_on_c, 1, 63, 127
2, 114960, Note_on_c, 1, 67, 127
2, 114960, Note_on_c, 1, 70, 127
2, 115360, Note_off_c, 1, 67, 0
2, 115360, Note_off_c, 1, 70, 0
2, 115520, Note_off_c, 1, 58, 0
2, 115520, Note_off_c, 1, 61, 0
2, 115560, Note_on_c, 1, 51, 127
2, 115560, Note_on_c, 1, 58, 127
2, 115560, Note_on_c, 1, 67, 127
2, 116120, Note_off_c, 1, 51, 0
2, 116120, Note_off_c, 1, 58, 0
2, 116120, Note_off_c, 1, 63, 0
2, 116120, Note_off_c, 1, 67, 0
2, 116200, Note_on_c, 1, 44, 127
2, 116200, Note_on_c, 1, 51, 127
2, 116200, Note_on_c, 1, 59, 127
2, 116200, Note_on_c, 1, 63, 127
2, 116200, Note_on_c, 1, 68, 127
2, 117360, Note_off_c, 1, 44, 0
2, 117360, Note_off_c, 1, 51, 0
2, 117360, Note_off_c, 1, 59, 0
2, 117360, Note_off_c, 1, 63, 0
2, 117360, Note_off_c, 1, 68, 0
2, 117400, Note_on_c, 1, 44, 127
2, 117400, Note_on_c, 1, 51, 127
2, 117400, Note_on_c, 1, 59, 127
2, 117400, Note_on_c, 1, 63, 127
2, 118200, Note_off_c, 1, 44, 0
2, 118200, Note_off_c, 1, 51, 0
2, 118200, Note_off_c, 1, 59, 0
2, 118200, Note_off_c, 1, 63, 0
2, 118240, Note_on_c, 1, 44, 127
2, 118240, Note_on_c, 1, 51, 127
2, 118240, Note_on_c, 1, 59, 127
2, 118240, Note_on_c, 1, 63, 127
2, 118600, Note_off_c, 1, 44, 0
2, 118600, Note_off_c, 1, 51, 0
2, 118600, Note_off_c, 1, 59, 0
2, 118600, Note_off_c, 1, 63, 0
2, 118640, Note_on_c, 1, 42, 127
2, 118640, Note_on_c, 1, 51, 127
2, 118640, Note_on_c, 1, 59, 127
2, 118640, Note_on_c, 1, 66, 127
2, 118640, Note_on_c, 1, 71, 127
2, 119800, Note_off_c, 1, 42, 0
2, 119800, Note_off_c, 1, 51, 0
2, 119800, Note_off_c, 1, 59, 0
2, 119800, Note_off_c, 1, 66, 0
2, 119800, Note_off_c, 1, 71, 0
2, 119840, Note_on_c, 1, 35, 127
2, 119840, Note_on_c, 1, 59, 127
2, 120000, Note_off_c, 1, 35, 0
2, 120000, Note_off_c, 1, 59, 0
2, 120040, End_track
3, 0, Start_track
3, 0, Title_t, "MIDI"
3, 1536, End_track
0, 0, End_of_file
