0, 0, Header, 1, 3, 192
1, 0, Start_track
1, 0, Time_signature, 4, 2, 24, 8
1, 0, Tempo, 500000
1, 120040, End_track
2, 0, Start_track
2, 0, Text_t, "random instrument: random person i dunno whatev"
2, 0, Title_t, "Track 1"
2, 0, Note_on_c, 1, 40, 127
2, 0, Note_on_c, 1, 48, 127
2, 0, Note_on_c, 1, 56, 127
2, 0, Note_on_c, 1, 60, 127
2, 40, Note_off_c, 1, 40, 0
2, 40, Note_off_c, 1, 48, 0
2, 40, Note_on_c, 1, 55, 127
2, 40, Note_off_c, 1, 56, 0
2, 40, Note_off_c, 1, 60, 0
2, 40, Note_on_c, 1, 72, 127
2, 40, Note_on_c, 1, 75, 127
2, 40, Note_on_c, 1, 79, 127
2, 40, Note_on_c, 1, 84, 127
2, 80, Note_off_c, 1, 55, 0
2, 80, Note_off_c, 1, 72, 0
2, 80, Note_off_c, 1, 75, 0
2, 80, Note_off_c, 1, 79, 0
2, 80, Note_off_c, 1, 84, 0
2, 120, Note_on_c, 1, 40, 127
2, 120, Note_on_c, 1, 48, 127
2, 120, Note_on_c, 1, 56, 127
2, 120, Note_on_c, 1, 60, 127
2, 200, Note_on_c, 1, 35, 127
2, 200, Note_on_c, 1, 39, 127
2, 200, Note_off_c, 1, 40, 0
2, 200, Note_on_c, 1, 47, 127
2, 200, Note_off_c, 1, 48, 0
2, 200, Note_on_c, 1, 50, 127
2, 200, Note_off_c, 1, 56, 0
2, 200, Note_off_c, 1, 60, 0
2, 240, Note_on_c, 1, 34, 127
2, 240, Note_off_c, 1, 35, 0
2, 240, Note_on_c, 1, 46, 127
2, 240, Note_off_c, 1, 47, 0
2, 240, Note_off_c, 1, 50, 0
2, 240, Note_on_c, 1, 73, 127
2, 240, Note_on_c, 1, 75, 127
2, 360, Note_on_c, 1, 80, 127
2, 400, Note_off_c, 1, 34, 0
2, 400, Note_on_c, 1, 35, 127
2, 400, Note_off_c, 1, 39, 0
2, 400, Note_on_c, 1, 40, 127
2, 400, Note_off_c, 1, 46, 0
2, 400, Note_on_c, 1, 47, 127
2, 400, Note_on_c, 1, 62, 127
2, 400, Note_off_c, 1, 73, 0
2, 400, Note_off_c, 1, 75, 0
2, 400, Note_off_c, 1, 80, 0
2, 440, Note_off_c, 1, 35, 0
2, 440, Note_off_c, 1, 40, 0
2, 440, Note_off_c, 1, 47, 0
2, 440, Note_off_c, 1, 62, 0
2, 440, Note_on_c, 1, 79, 127
2, 480, Note_on_c, 1, 76, 127
2, 480, Note_off_c, 1, 79, 0
2, 520, Note_off_c, 1, 76, 0
2, 560, Note_on_c, 1, 72, 127
2, 640, Note_off_c, 1, 72, 0
2, 680, Note_on_c, 1, 70, 127
2, 840, Note_off_c, 1, 70, 0
2, 880, Note_on_c, 1, 67, 127
2, 1000, Note_off_c, 1, 67, 0
2, 1040, Note_on_c, 1, 69, 127
2, 1160, Note_off_c, 1, 69, 0
2, 1200, Note_on_c, 1, 70, 127
2, 1360, Note_off_c, 1, 70, 0
2, 1400, Note_on_c, 1, 64, 127
2, 1520, Note_off_c, 1, 64, 0
2, 1560, Note_on_c, 1, 69, 127
2, 1720, Note_off_c, 1, 69, 0
2, 1760, Note_on_c, 1, 70, 127
2, 1880, Note_off_c, 1, 70, 0
2, 1920, Note_on_c, 1, 72, 127
2, 2040, Note_off_c, 1, 72, 0
2, 2080, Note_on_c, 1, 72, 127
2, 2120, Note_off_c, 1, 72, 0
2, 2160, Note_on_c, 1, 74, 127
2, 2280, Note_off_c, 1, 74, 0
2, 2320, Note_on_c, 1, 72, 127
2, 2480, Note_off_c, 1, 72, 0
2, 2520, Note_on_c, 1, 81, 127
2, 2640, Note_off_c, 1, 81, 0
2, 2680, Note_on_c, 1, 82, 127
2, 2840, Note_off_c, 1, 82, 0
2, 2880, Note_on_c, 1, 81, 127
2, 3000, Note_off_c, 1, 81, 0
2, 3040, Note_on_c, 1, 79, 127
2, 3160, Note_off_c, 1, 79, 0
2, 3200, Note_on_c, 1, 77, 127
2, 3360, Note_off_c, 1, 77, 0
2, 3400, Note_on_c, 1, 76, 127
2, 3520, Note_off_c, 1, 76, 0
2, 3560, Note_on_c, 1, 74, 127
2, 3720, Note_off_c, 1, 74, 0
2, 3760, Note_on_c, 1, 72, 127
2, 3920, Note_off_c, 1, 72, 0
2, 3960, Note_on_c, 1, 71, 127
2, 4080, Note_off_c, 1, 71, 0
2, 4120, Note_on_c, 1, 72, 127
2, 4240, Note_off_c, 1, 72, 0
2, 4280, Note_on_c, 1, 72, 127
2, 4320, Note_off_c, 1, 72, 0
2, 4360, Note_on_c, 1, 71, 127
2, 4480, Note_off_c, 1, 71, 0
2, 4520, Note_on_c, 1, 70, 127
2, 4680, Note_off_c, 1, 70, 0
2, 4720, Note_on_c, 1, 69, 127
2, 4840, Note_off_c, 1, 69, 0
2, 4880, Note_on_c, 1, 63, 127
2, 5040, Note_off_c, 1, 63, 0
2, 5080, Note_on_c, 1, 62, 127
2, 5560, Note_off_c, 1, 62, 0
2, 5600, Note_on_c, 1, 37, 127
2, 5600, Note_on_c, 1, 49, 127
2, 5600, Note_on_c, 1, 56, 127
2, 5760, Note_off_c, 1, 56, 0
2, 5760, Note_on_c, 1, 61, 127
2, 6280, Note_off_c, 1, 61, 0
2, 6320, Note_off_c, 1, 37, 0
2, 6320, Note_off_c, 1, 49, 0
2, 6360, Note_on_c, 1, 37, 127
2, 6360, Note_on_c, 1, 49, 127
2, 6360, Note_on_c, 1, 61, 127
2, 7040, Note_off_c, 1, 37, 0
2, 7040, Note_off_c, 1, 49, 0
2, 7040, Note_off_c, 1, 61, 0
2, 7080, Note_on_c, 1, 46, 127
2, 7080, Note_on_c, 1, 58, 127
2, 7080, Note_on_c, 1, 70, 127
2, 8160, Note_off_c, 1, 46, 0
2, 8160, Note_off_c, 1, 58, 0
2, 8160, Note_off_c, 1, 70, 0
2, 8240, Note_on_c, 1, 49, 127
2, 8240, Note_on_c, 1, 61, 127
2, 8240, Note_on_c, 1, 73, 127
2, 10120, Note_off_c, 1, 49, 0
2, 10120, Note_off_c, 1, 61, 0
2, 10120, Note_off_c, 1, 73, 0
2, 10160, Note_on_c, 1, 41, 127
2, 10160, Note_on_c, 1, 53, 127
2, 10160, Note_on_c, 1, 65, 127
2, 10280, Note_off_c, 1, 41, 0
2, 10320, Note_off_c, 1, 53, 0
2, 10320, Note_off_c, 1, 65, 0
2, 10360, Note_on_c, 1, 41, 127
2, 10360, Note_on_c, 1, 53, 127
2, 10360, Note_on_c, 1, 65, 127
2, 10560, Note_off_c, 1, 41, 0
2, 10560, Note_off_c, 1, 53, 0
2, 10560, Note_off_c, 1, 65, 0
2, 10600, Note_on_c, 1, 41, 127
2, 10600, Note_on_c, 1, 53, 127
2, 10600, Note_on_c, 1, 65, 127
2, 11680, Note_off_c, 1, 41, 0
2, 11680, Note_off_c, 1, 53, 0
2, 11680, Note_off_c, 1, 65, 0
2, 11720, Note_on_c, 1, 46, 127
2, 11720, Note_on_c, 1, 58, 127
2, 11720, Note_on_c, 1, 70, 127
2, 12240, Note_off_c, 1, 46, 0
2, 12240, Note_off_c, 1, 58, 0
2, 12240, Note_off_c, 1, 70, 0
2, 12280, Note_on_c, 1, 48, 127
2, 12280, Note_on_c, 1, 56, 127
2, 12280, Note_on_c, 1, 60, 127
2, 12280, Note_on_c, 1, 68, 127
2, 12480, Note_off_c, 1, 48, 0
2, 12480, Note_off_c, 1, 56, 0
2, 12480, Note_off_c, 1, 60, 0
2, 12480, Note_off_c, 1, 68, 0
2, 12520, Note_on_c, 1, 48, 127
2, 12520, Note_on_c, 1, 56, 127
2, 12520, Note_on_c, 1, 60, 127
2, 12520, Note_on_c, 1, 68, 127
2, 12840, Note_off_c, 1, 48, 0
2, 12840, Note_off_c, 1, 56, 0
2, 12840, Note_off_c, 1, 60, 0
2, 12840, Note_off_c, 1, 68, 0
2, 12880, Note_on_c, 1, 58, 127
2, 12880, Note_on_c, 1, 61, 127
2, 12880, Note_on_c, 1, 65, 127
2, 12880, Note_on_c, 1, 70, 127
2, 13440, Note_off_c, 1, 58, 0
2, 13440, Note_off_c, 1, 61, 0
2, 13440, Note_off_c, 1, 65, 0
2, 13440, Note_off_c, 1, 70, 0
2, 13480, Note_on_c, 1, 63, 127
2, 13480, Note_on_c, 1, 66, 127
2, 13480, Note_on_c, 1, 72, 127
2, 13480, Note_on_c, 1, 82, 127
2, 13840, Note_off_c, 1, 63, 0
2, 13840, Note_off_c, 1, 66, 0
2, 13840, Note_off_c, 1, 72, 0
2, 13840, Note_off_c, 1, 82, 0
2, 13880, Note_on_c, 1, 63, 127
2, 13880, Note_on_c, 1, 66, 127
2, 13880, Note_on_c, 1, 72, 127
2, 13880, Note_on_c, 1, 81, 127
2, 14520, Note_off_c, 1, 63, 0
2, 14520, Note_off_c, 1, 66, 0
2, 14520, Note_off_c, 1, 72, 0
2, 14520, Note_off_c, 1, 81, 0
2, 14560, Note_on_c, 1, 63, 127
2, 14560, Note_on_c, 1, 66, 127
2, 14560, Note_on_c, 1, 72, 127
2, 14560, Note_on_c, 1, 81, 127
2, 14600, Note_off_c, 1, 63, 0
2, 14600, Note_off_c, 1, 66, 0
2, 14600, Note_off_c, 1, 72, 0
2, 14600, Note_off_c, 1, 81, 0
2, 14640, Note_on_c, 1, 62, 127
2, 14640, Note_on_c, 1, 65, 127
2, 14640, Note_on_c, 1, 81, 127
2, 14800, Note_off_c, 1, 81, 0
2, 14840, Note_on_c, 1, 89, 127
2, 14960, Note_off_c, 1, 89, 0
2, 15000, Note_on_c, 1, 89, 127
2, 15160, Note_off_c, 1, 62, 0
2, 15160, Note_off_c, 1, 65, 0
2, 15160, Note_off_c, 1, 89, 0
2, 15200, Note_on_c, 1, 64, 127
2, 15200, Note_on_c, 1, 67, 127
2, 15200, Note_on_c, 1, 69, 127
2, 15200, Note_on_c, 1, 95, 127
2, 15240, Note_off_c, 1, 64, 0
2, 15240, Note_off_c, 1, 67, 0
2, 15240, Note_off_c, 1, 69, 0
2, 15240, Note_off_c, 1, 95, 0
2, 15280, Note_on_c, 1, 62, 127
2, 15280, Note_on_c, 1, 65, 127
2, 15280, Note_on_c, 1, 81, 127
2, 15280, Note_on_c, 1, 86, 127
2, 15280, Note_on_c, 1, 89, 127
2, 15360, Note_off_c, 1, 62, 0
2, 15360, Note_off_c, 1, 65, 0
2, 15360, Note_off_c, 1, 81, 0
2, 15360, Note_off_c, 1, 86, 0
2, 15360, Note_off_c, 1, 89, 0
2, 15400, Note_on_c, 1, 62, 127
2, 15400, Note_on_c, 1, 65, 127
2, 15400, Note_on_c, 1, 81, 127
2, 15400, Note_on_c, 1, 86, 127
2, 15400, Note_on_c, 1, 89, 127
2, 15640, Note_off_c, 1, 62, 0
2, 15640, Note_off_c, 1, 65, 0
2, 15640, Note_off_c, 1, 81, 0
2, 15640, Note_off_c, 1, 86, 0
2, 15640, Note_off_c, 1, 89, 0
2, 15680, Note_on_c, 1, 63, 127
2, 15680, Note_on_c, 1, 66, 127
2, 15680, Note_on_c, 1, 78, 127
2, 15680, Note_on_c, 1, 82, 127
2, 15880, Note_off_c, 1, 63, 0
2, 15880, Note_off_c, 1, 66, 0
2, 15880, Note_off_c, 1, 78, 0
2, 15880, Note_off_c, 1, 82, 0
2, 15920, Note_on_c, 1, 53, 127
2, 15920, Note_on_c, 1, 60, 127
2, 15920, Note_on_c, 1, 63, 127
2, 15920, Note_on_c, 1, 87, 127
2, 16160, Note_off_c, 1, 87, 0
2, 16200, Note_on_c, 1, 87, 127
2, 16280, Note_off_c, 1, 87, 0
2, 16320, Note_on_c, 1, 84, 127
2, 16400, Note_off_c, 1, 53, 0
2, 16400, Note_off_c, 1, 60, 0
2, 16400, Note_off_c, 1, 63, 0
2, 16400, Note_off_c, 1, 84, 0
2, 16480, Note_on_c, 1, 53, 127
2, 16480, Note_on_c, 1, 60, 127
2, 16480, Note_on_c, 1, 63, 127
2, 16480, Note_on_c, 1, 75, 127
2, 16720, Note_off_c, 1, 53, 0
2, 16720, Note_off_c, 1, 60, 0
2, 16720, Note_off_c, 1, 63, 0
2, 16720, Note_off_c, 1, 75, 0
2, 16760, Note_on_c, 1, 53, 127
2, 16760, Note_on_c, 1, 60, 127
2, 16760, Note_on_c, 1, 63, 127
2, 16760, Note_on_c, 1, 75, 127
2, 16960, Note_off_c, 1, 53, 0
2, 16960, Note_off_c, 1, 60, 0
2, 16960, Note_off_c, 1, 63, 0
2, 16960, Note_off_c, 1, 75, 0
2, 17000, Note_on_c, 1, 53, 127
2, 17000, Note_on_c, 1, 60, 127
2, 17000, Note_on_c, 1, 63, 127
2, 17000, Note_on_c, 1, 75, 127
2, 17200, Note_off_c, 1, 53, 0
2, 17200, Note_off_c, 1, 60, 0
2, 17200, Note_off_c, 1, 63, 0
2, 17200, Note_off_c, 1, 75, 0
2, 17240, Note_on_c, 1, 46, 127
2, 17240, Note_on_c, 1, 62, 127
2, 17240, Note_on_c, 1, 68, 127
2, 17240, Note_on_c, 1, 70, 127
2, 18000, Note_off_c, 1, 46, 0
2, 18000, Note_off_c, 1, 62, 0
2, 18000, Note_off_c, 1, 68, 0
2, 18000, Note_off_c, 1, 70, 0
2, 19000, Note_on_c, 1, 61, 127
2, 19000, Note_on_c, 1, 65, 127
2, 19480, Note_off_c, 1, 61, 0
2, 19480, Note_off_c, 1, 65, 0
2, 19520, Note_on_c, 1, 56, 127
2, 19520, Note_on_c, 1, 61, 127
2, 20000, Note_off_c, 1, 56, 0
2, 20000, Note_off_c, 1, 61, 0
2, 20040, Note_on_c, 1, 53, 127
2, 20040, Note_on_c, 1, 61, 127
2, 20520, Note_off_c, 1, 53, 0
2, 20520, Note_off_c, 1, 61, 0
2, 20560, Note_on_c, 1, 53, 127
2, 20560, Note_on_c, 1, 61, 127
2, 20800, Note_off_c, 1, 53, 0
2, 20800, Note_off_c, 1, 61, 0
2, 20840, Note_on_c, 1, 53, 127
2, 20840, Note_on_c, 1, 61, 127
2, 21080, Note_off_c, 1, 53, 0
2, 21080, Note_off_c, 1, 61, 0
2, 21120, Note_on_c, 1, 53, 127
2, 21120, Note_on_c, 1, 61, 127
2, 21600, Note_off_c, 1, 53, 0
2, 21600, Note_off_c, 1, 61, 0
2, 21640, Note_on_c, 1, 49, 127
2, 21680, Note_on_c, 1, 56, 127
2, 22640, Note_off_c, 1, 49, 0
2, 22640, Note_off_c, 1, 56, 0
2, 22680, Note_on_c, 1, 49, 127
2, 22680, Note_on_c, 1, 56, 127
2, 23200, Note_off_c, 1, 49, 0
2, 23200, Note_off_c, 1, 56, 0
2, 23240, Note_on_c, 1, 49, 127
2, 23240, Note_on_c, 1, 56, 127
2, 23760, Note_off_c, 1, 49, 0
2, 23760, Note_off_c, 1, 56, 0
2, 23800, Note_on_c, 1, 50, 127
2, 23800, Note_on_c, 1, 59, 127
2, 24320, Note_off_c, 1, 50, 0
2, 24320, Note_off_c, 1, 59, 0
2, 24360, Note_on_c, 1, 49, 127
2, 24360, Note_on_c, 1, 57, 127
2, 24600, Note_off_c, 1, 49, 0
2, 24600, Note_off_c, 1, 57, 0
2, 24640, Note_on_c, 1, 53, 127
2, 24640, Note_on_c, 1, 56, 127
2, 24880, Note_off_c, 1, 53, 0
2, 24880, Note_off_c, 1, 56, 0
2, 24920, Note_on_c, 1, 42, 127
2, 24920, Note_on_c, 1, 54, 127
2, 25120, Note_on_c, 1, 49, 127
2, 25120, Note_off_c, 1, 54, 0
2, 25160, Note_off_c, 1, 42, 0
2, 25160, Note_off_c, 1, 49, 0
2, 25200, Note_on_c, 1, 55, 127
2, 25400, Note_off_c, 1, 55, 0
2, 25480, Note_on_c, 1, 42, 127
2, 25720, Note_off_c, 1, 42, 0
2, 25760, Note_on_c, 1, 41, 127
2, 25960, Note_off_c, 1, 41, 0
2, 26000, Note_on_c, 1, 41, 127
2, 26240, Note_off_c, 1, 41, 0
2, 26280, Note_on_c, 1, 42, 127
2, 26520, Note_off_c, 1, 42, 0
2, 26560, Note_on_c, 1, 49, 127
2, 26760, Note_off_c, 1, 49, 0
2, 26800, Note_on_c, 1, 38, 127
2, 27000, Note_off_c, 1, 38, 0
2, 27040, Note_on_c, 1, 49, 127
2, 27240, Note_off_c, 1, 49, 0
2, 27280, Note_on_c, 1, 54, 127
2, 27520, Note_off_c, 1, 54, 0
2, 27600, Note_on_c, 1, 60, 127
2, 27800, Note_off_c, 1, 60, 0
2, 27840, Note_on_c, 1, 75, 127
2, 28080, Note_off_c, 1, 75, 0
2, 28120, Note_on_c, 1, 73, 127
2, 28360, Note_off_c, 1, 73, 0
2, 28400, Note_on_c, 1, 74, 127
2, 28880, Note_off_c, 1, 74, 0
2, 28920, Note_on_c, 1, 33, 127
2, 28920, Note_on_c, 1, 45, 127
2, 28920, Note_on_c, 1, 64, 127
2, 29440, Note_off_c, 1, 33, 0
2, 29440, Note_off_c, 1, 45, 0
2, 29440, Note_off_c, 1, 64, 0
2, 30640, Note_on_c, 1, 43, 127
2, 31480, Note_off_c, 1, 43, 0
2, 32600, Note_on_c, 1, 57, 127
2, 32600, Note_on_c, 1, 73, 127
2, 33080, Note_off_c, 1, 57, 0
2, 33080, Note_off_c, 1, 73, 0
2, 33120, Note_on_c, 1, 52, 127
2, 33120, Note_on_c, 1, 68, 127
2, 33640, Note_off_c, 1, 52, 0
2, 33640, Note_off_c, 1, 68, 0
2, 33680, Note_on_c, 1, 54, 127
2, 33680, Note_on_c, 1, 69, 127
2, 33920, Note_off_c, 1, 54, 0
2, 33920, Note_off_c, 1, 69, 0
2, 33960, Note_on_c, 1, 54, 127
2, 33960, Note_on_c, 1, 69, 127
2, 34240, Note_off_c, 1, 54, 0
2, 34240, Note_off_c, 1, 69, 0
2, 34280, Note_on_c, 1, 52, 127
2, 34280, Note_on_c, 1, 68, 127
2, 35640, Note_off_c, 1, 52, 0
2, 35640, Note_on_c, 1, 59, 127
2, 35640, Note_off_c, 1, 68, 0
2, 35880, Note_off_c, 1, 59, 0
2, 35920, Note_on_c, 1, 72, 127
2, 36120, Note_off_c, 1, 72, 0
2, 36160, Note_on_c, 1, 72, 127
2, 36480, Note_off_c, 1, 72, 0
2, 36800, Note_on_c, 1, 45, 127
2, 36800, Note_on_c, 1, 49, 127
2, 37320, Note_off_c, 1, 45, 0
2, 37320, Note_off_c, 1, 49, 0
2, 37360, Note_on_c, 1, 45, 127
2, 37920, Note_off_c, 1, 45, 0
2, 37960, Note_on_c, 1, 45, 127
2, 38320, Note_off_c, 1, 45, 0
2, 38360, Note_on_c, 1, 45, 127
2, 38560, Note_off_c, 1, 45, 0
2, 38600, Note_on_c, 1, 45, 127
2, 39400, Note_off_c, 1, 45, 0
2, 39440, Note_on_c, 1, 47, 127
2, 40000, Note_off_c, 1, 47, 0
2, 40040, Note_on_c, 1, 45, 127
2, 40440, Note_off_c, 1, 45, 0
2, 40480, Note_on_c, 1, 45, 127
2, 41160, Note_off_c, 1, 45, 0
2, 41200, Note_on_c, 1, 33, 127
2, 42320, Note_off_c, 1, 33, 0
2, 42360, Note_on_c, 1, 33, 127
2, 42760, Note_off_c, 1, 33, 0
2, 42800, Note_on_c, 1, 33, 127
2, 43480, Note_off_c, 1, 33, 0
2, 43560, Note_on_c, 1, 33, 127
2, 44640, Note_off_c, 1, 33, 0
2, 47520, Note_on_c, 1, 48, 127
2, 47520, Note_on_c, 1, 60, 127
2, 47520, Note_on_c, 1, 78, 127
2, 47520, Note_on_c, 1, 81, 127
2, 47520, Note_on_c, 1, 87, 127
2, 47520, Note_on_c, 1, 90, 127
2, 47880, Note_off_c, 1, 48, 0
2, 47880, Note_off_c, 1, 60, 0
2, 47880, Note_off_c, 1, 78, 0
2, 47880, Note_off_c, 1, 81, 0
2, 47880, Note_off_c, 1, 87, 0
2, 47880, Note_off_c, 1, 90, 0
2, 49800, Note_on_c, 1, 31, 127
2, 49800, Note_on_c, 1, 43, 127
2, 49800, Note_on_c, 1, 55, 127
2, 49800, Note_on_c, 1, 67, 127
2, 49960, Note_off_c, 1, 31, 0
2, 49960, Note_off_c, 1, 43, 0
2, 49960, Note_off_c, 1, 55, 0
2, 49960, Note_off_c, 1, 67, 0
2, 50600, Note_on_c, 1, 36, 127
2, 50600, Note_on_c, 1, 40, 127
2, 50600, Note_on_c, 1, 43, 127
2, 50600, Note_on_c, 1, 48, 127
2, 50600, Note_on_c, 1, 72, 127
2, 50600, Note_on_c, 1, 76, 127
2, 50600, Note_on_c, 1, 79, 127
2, 50600, Note_on_c, 1, 84, 127
2, 51400, Note_off_c, 1, 36, 0
2, 51400, Note_off_c, 1, 40, 0
2, 51400, Note_off_c, 1, 43, 0
2, 51400, Note_off_c, 1, 48, 0
2, 51400, Note_off_c, 1, 72, 0
2, 51400, Note_off_c, 1, 76, 0
2, 51400, Note_off_c, 1, 79, 0
2, 51400, Note_off_c, 1, 84, 0
2, 54720, Note_on_c, 1, 37, 127
2, 54720, Note_on_c, 1, 61, 127
2, 54880, Note_off_c, 1, 37, 0
2, 54880, Note_off_c, 1, 61, 0
2, 54920, Note_on_c, 1, 52, 127
2, 55480, Note_off_c, 1, 52, 0
2, 55520, Note_on_c, 1, 59, 127
2, 55760, Note_off_c, 1, 59, 0
2, 55840, Note_on_c, 1, 57, 127
2, 56080, Note_off_c, 1, 57, 0
2, 56120, Note_on_c, 1, 58, 127
2, 56360, Note_off_c, 1, 58, 0
2, 56400, Note_on_c, 1, 61, 127
2, 56640, Note_off_c, 1, 61, 0
2, 56680, Note_on_c, 1, 64, 127
2, 56920, Note_off_c, 1, 64, 0
2, 56960, Note_on_c, 1, 54, 127
2, 57200, Note_off_c, 1, 54, 0
2, 57240, Note_on_c, 1, 57, 127
2, 57480, Note_off_c, 1, 57, 0
2, 57520, Note_on_c, 1, 52, 127
2, 57840, Note_off_c, 1, 52, 0
2, 57880, Note_on_c, 1, 52, 127
2, 60240, Note_off_c, 1, 52, 0
2, 60280, Note_on_c, 1, 52, 127
2, 60880, Note_off_c, 1, 52, 0
2, 60920, Note_on_c, 1, 48, 127
2, 61280, Note_off_c, 1, 48, 0
2, 61320, Note_on_c, 1, 52, 127
2, 61680, Note_off_c, 1, 52, 0
2, 61720, Note_on_c, 1, 56, 127
2, 62080, Note_off_c, 1, 56, 0
2, 62120, Note_on_c, 1, 52, 127
2, 62440, Note_off_c, 1, 52, 0
2, 62480, Note_on_c, 1, 52, 127
2, 62520, Note_off_c, 1, 52, 0
2, 62560, Note_on_c, 1, 48, 127
2, 62920, Note_off_c, 1, 48, 0
2, 62960, Note_on_c, 1, 40, 127
2, 63280, Note_off_c, 1, 40, 0
2, 63360, Note_on_c, 1, 45, 127
2, 63360, Note_on_c, 1, 61, 127
2, 63360, Note_on_c, 1, 64, 127
2, 63360, Note_on_c, 1, 67, 127
2, 64520, Note_off_c, 1, 45, 0
2, 64520, Note_off_c, 1, 61, 0
2, 64520, Note_off_c, 1, 64, 0
2, 64520, Note_off_c, 1, 67, 0
2, 64600, Note_on_c, 1, 45, 127
2, 64600, Note_on_c, 1, 61, 127
2, 64600, Note_on_c, 1, 64, 127
2, 64600, Note_on_c, 1, 67, 127
2, 65760, Note_off_c, 1, 45, 0
2, 65760, Note_off_c, 1, 61, 0
2, 65760, Note_off_c, 1, 64, 0
2, 65760, Note_off_c, 1, 67, 0
2, 65800, Note_on_c, 1, 45, 127
2, 65800, Note_on_c, 1, 61, 127
2, 65800, Note_on_c, 1, 64, 127
2, 65800, Note_on_c, 1, 67, 127
2, 66640, Note_off_c, 1, 45, 0
2, 66640, Note_off_c, 1, 61, 0
2, 66640, Note_off_c, 1, 64, 0
2, 66640, Note_off_c, 1, 67, 0
2, 66680, Note_on_c, 1, 45, 127
2, 66680, Note_on_c, 1, 61, 127
2, 66680, Note_on_c, 1, 64, 127
2, 66680, Note_on_c, 1, 67, 127
2, 67000, Note_off_c, 1, 45, 0
2, 67000, Note_off_c, 1, 61, 0
2, 67000, Note_off_c, 1, 64, 0
2, 67000, Note_off_c, 1, 67, 0
2, 67040, Note_on_c, 1, 50, 127
2, 67040, Note_on_c, 1, 57, 127
2, 67040, Note_on_c, 1, 62, 127
2, 67040, Note_on_c, 1, 66, 127
2, 67560, Note_off_c, 1, 50, 0
2, 67560, Note_off_c, 1, 57, 0
2, 67560, Note_off_c, 1, 62, 0
2, 67560, Note_off_c, 1, 66, 0
2, 67640, Note_on_c, 1, 55, 127
2, 67640, Note_on_c, 1, 60, 127
2, 67640, Note_on_c, 1, 62, 127
2, 68080, Note_on_c, 1, 54, 127
2, 68080, Note_off_c, 1, 55, 0
2, 68160, Note_off_c, 1, 54, 0
2, 68160, Note_off_c, 1, 60, 0
2, 68160, Note_off_c, 1, 62, 0
2, 68240, Note_on_c, 1, 54, 127
2, 68240, Note_on_c, 1, 60, 127
2, 68240, Note_on_c, 1, 62, 127
2, 68640, Note_off_c, 1, 54, 0
2, 68640, Note_off_c, 1, 60, 0
2, 68640, Note_off_c, 1, 62, 0
2, 68680, Note_on_c, 1, 54, 127
2, 68680, Note_on_c, 1, 60, 127
2, 68680, Note_on_c, 1, 62, 127
2, 68800, Note_off_c, 1, 54, 0
2, 68800, Note_off_c, 1, 60, 0
2, 68840, Note_off_c, 1, 62, 0
2, 68880, Note_on_c, 1, 54, 127
2, 68880, Note_on_c, 1, 60, 127
2, 68880, Note_on_c, 1, 64, 127
2, 69960, Note_on_c, 1, 62, 127
2, 69960, Note_off_c, 1, 64, 0
2, 70000, Note_off_c, 1, 62, 0
2, 70000, Note_on_c, 1, 64, 127
2, 70040, Note_off_c, 1, 54, 0
2, 70040, Note_off_c, 1, 60, 0
2, 70040, Note_off_c, 1, 64, 0
2, 70080, Note_on_c, 1, 54, 127
2, 70080, Note_on_c, 1, 60, 127
2, 70080, Note_on_c, 1, 64, 127
2, 70200, Note_off_c, 1, 54, 0
2, 70200, Note_off_c, 1, 60, 0
2, 70200, Note_off_c, 1, 64, 0
2, 70280, Note_on_c, 1, 54, 127
2, 70280, Note_on_c, 1, 60, 127
2, 70280, Note_on_c, 1, 64, 127
2, 70840, Note_off_c, 1, 54, 0
2, 70840, Note_off_c, 1, 60, 0
2, 70840, Note_off_c, 1, 64, 0
2, 70920, Note_on_c, 1, 50, 127
2, 70920, Note_on_c, 1, 60, 127
2, 70920, Note_on_c, 1, 66, 127
2, 70920, Note_on_c, 1, 71, 127
2, 71280, Note_off_c, 1, 71, 0
2, 71320, Note_on_c, 1, 71, 127
2, 71480, Note_off_c, 1, 71, 0
2, 71520, Note_on_c, 1, 69, 127
2, 72080, Note_off_c, 1, 50, 0
2, 72080, Note_off_c, 1, 60, 0
2, 72080, Note_off_c, 1, 66, 0
2, 72080, Note_off_c, 1, 69, 0
2, 72120, Note_on_c, 1, 37, 127
2, 72120, Note_on_c, 1, 41, 127
2, 72120, Note_on_c, 1, 49, 127
2, 72680, Note_off_c, 1, 37, 0
2, 72680, Note_off_c, 1, 41, 0
2, 72680, Note_off_c, 1, 49, 0
2, 72720, Note_on_c, 1, 54, 127
2, 72720, Note_on_c, 1, 56, 127
2, 72720, Note_on_c, 1, 61, 127
2, 72720, Note_on_c, 1, 63, 127
2, 72720, Note_on_c, 1, 68, 127
2, 72920, Note_off_c, 1, 54, 0
2, 72920, Note_off_c, 1, 56, 0
2, 72920, Note_off_c, 1, 61, 0
2, 72920, Note_off_c, 1, 63, 0
2, 72920, Note_off_c, 1, 68, 0
2, 72960, Note_on_c, 1, 54, 127
2, 72960, Note_on_c, 1, 56, 127
2, 72960, Note_on_c, 1, 61, 127
2, 72960, Note_on_c, 1, 63, 127
2, 72960, Note_on_c, 1, 68, 127
2, 73000, Note_off_c, 1, 54, 0
2, 73000, Note_off_c, 1, 56, 0
2, 73040, Note_on_c, 1, 49, 127
2, 73040, Note_on_c, 1, 51, 127
2, 73040, Note_off_c, 1, 68, 0
2, 73040, Note_on_c, 1, 75, 127
2, 73320, Note_off_c, 1, 49, 0
2, 73320, Note_off_c, 1, 51, 0
2, 73320, Note_off_c, 1, 61, 0
2, 73320, Note_off_c, 1, 63, 0
2, 73320, Note_off_c, 1, 75, 0
2, 73360, Note_on_c, 1, 42, 127
2, 73360, Note_on_c, 1, 61, 127
2, 73360, Note_on_c, 1, 63, 127
2, 73360, Note_on_c, 1, 73, 127
2, 73880, Note_off_c, 1, 42, 0
2, 73880, Note_off_c, 1, 73, 0
2, 73920, Note_off_c, 1, 61, 0
2, 73920, Note_off_c, 1, 63, 0
2, 73960, Note_on_c, 1, 33, 127
2, 73960, Note_on_c, 1, 45, 127
2, 73960, Note_on_c, 1, 63, 127
2, 73960, Note_on_c, 1, 66, 127
2, 74520, Note_off_c, 1, 33, 0
2, 74520, Note_off_c, 1, 45, 0
2, 74520, Note_off_c, 1, 63, 0
2, 74520, Note_off_c, 1, 66, 0
2, 74560, Note_on_c, 1, 37, 127
2, 74560, Note_on_c, 1, 44, 127
2, 74560, Note_on_c, 1, 49, 127
2, 74560, Note_on_c, 1, 53, 127
2, 74560, Note_on_c, 1, 56, 127
2, 74560, Note_on_c, 1, 65, 127
2, 74960, Note_off_c, 1, 37, 0
2, 74960, Note_off_c, 1, 44, 0
2, 74960, Note_off_c, 1, 49, 0
2, 74960, Note_off_c, 1, 53, 0
2, 74960, Note_off_c, 1, 56, 0
2, 74960, Note_off_c, 1, 65, 0
2, 75000, Note_on_c, 1, 37, 127
2, 75000, Note_on_c, 1, 44, 127
2, 75000, Note_on_c, 1, 49, 127
2, 75000, Note_on_c, 1, 53, 127
2, 75000, Note_on_c, 1, 56, 127
2, 75000, Note_on_c, 1, 65, 127
2, 75160, Note_off_c, 1, 37, 0
2, 75160, Note_off_c, 1, 44, 0
2, 75160, Note_off_c, 1, 49, 0
2, 75160, Note_off_c, 1, 53, 0
2, 75160, Note_off_c, 1, 56, 0
2, 75160, Note_off_c, 1, 65, 0
2, 75200, Note_on_c, 1, 37, 127
2, 75200, Note_on_c, 1, 44, 127
2, 75200, Note_on_c, 1, 49, 127
2, 75200, Note_on_c, 1, 53, 127
2, 75200, Note_on_c, 1, 56, 127
2, 75200, Note_on_c, 1, 65, 127
2, 75720, Note_off_c, 1, 65, 0
2, 75760, Note_off_c, 1, 37, 0
2, 75760, Note_off_c, 1, 44, 0
2, 75760, Note_off_c, 1, 49, 0
2, 75760, Note_off_c, 1, 53, 0
2, 75760, Note_off_c, 1, 56, 0
2, 75800, Note_on_c, 1, 39, 127
2, 75800, Note_on_c, 1, 44, 127
2, 75800, Note_on_c, 1, 48, 127
2, 75800, Note_on_c, 1, 54, 127
2, 75800, Note_on_c, 1, 56, 127
2, 75800, Note_on_c, 1, 63, 127
2, 76640, Note_off_c, 1, 63, 0
2, 76640, Note_on_c, 1, 65, 127
2, 76680, Note_on_c, 1, 63, 127
2, 76680, Note_off_c, 1, 65, 0
2, 76960, Note_off_c, 1, 39, 0
2, 76960, Note_off_c, 1, 44, 0
2, 76960, Note_off_c, 1, 48, 0
2, 76960, Note_off_c, 1, 54, 0
2, 76960, Note_off_c, 1, 56, 0
2, 76960, Note_off_c, 1, 63, 0
2, 77040, Note_on_c, 1, 38, 127
2, 77040, Note_on_c, 1, 50, 127
2, 77040, Note_on_c, 1, 73, 127
2, 77040, Note_on_c, 1, 79, 127
2, 77040, Note_on_c, 1, 81, 127
2, 77120, Note_on_c, 1, 31, 127
2, 77120, Note_on_c, 1, 43, 127
2, 77120, Note_off_c, 1, 50, 0
2, 77120, Note_off_c, 1, 73, 0
2, 77120, Note_on_c, 1, 74, 127
2, 77120, Note_off_c, 1, 79, 0
2, 77120, Note_off_c, 1, 81, 0
2, 77120, Note_on_c, 1, 86, 127
2, 77160, Note_off_c, 1, 31, 0
2, 77160, Note_off_c, 1, 38, 0
2, 77160, Note_off_c, 1, 43, 0
2, 77160, Note_on_c, 1, 48, 127
2, 77160, Note_on_c, 1, 51, 127
2, 77160, Note_on_c, 1, 56, 127
2, 77160, Note_on_c, 1, 60, 127
2, 77160, Note_off_c, 1, 74, 0
2, 77160, Note_off_c, 1, 86, 0
2, 77200, Note_off_c, 1, 48, 0
2, 77200, Note_off_c, 1, 56, 0
2, 77200, Note_on_c, 1, 58, 127
2, 77200, Note_off_c, 1, 60, 0
2, 77200, Note_on_c, 1, 63, 127
2, 77200, Note_on_c, 1, 67, 127
2, 77200, Note_on_c, 1, 79, 127
2, 77240, Note_off_c, 1, 51, 0
2, 77240, Note_on_c, 1, 55, 127
2, 77240, Note_off_c, 1, 58, 0
2, 77240, Note_on_c, 1, 59, 127
2, 77240, Note_off_c, 1, 63, 0
2, 77240, Note_on_c, 1, 66, 127
2, 77240, Note_off_c, 1, 67, 0
2, 77240, Note_on_c, 1, 74, 127
2, 77240, Note_off_c, 1, 79, 0
2, 77280, Note_off_c, 1, 55, 0
2, 77280, Note_on_c, 1, 58, 127
2, 77280, Note_off_c, 1, 59, 0
2, 77280, Note_on_c, 1, 64, 127
2, 77280, Note_off_c, 1, 66, 0
2, 77280, Note_on_c, 1, 68, 127
2, 77280, Note_on_c, 1, 70, 127
2, 77280, Note_on_c, 1, 80, 127
2, 77320, Note_on_c, 1, 48, 127
2, 77320, Note_on_c, 1, 56, 127
2, 77320, Note_off_c, 1, 58, 0
2, 77320, Note_on_c, 1, 63, 127
2, 77320, Note_off_c, 1, 64, 0
2, 77320, Note_on_c, 1, 67, 127
2, 77320, Note_off_c, 1, 68, 0
2, 77320, Note_off_c, 1, 70, 0
2, 77320, Note_on_c, 1, 72, 127
2, 77320, Note_off_c, 1, 74, 0
2, 77320, Note_off_c, 1, 80, 0
2, 77360, Note_off_c, 1, 56, 0
2, 77360, Note_on_c, 1, 58, 127
2, 77360, Note_off_c, 1, 63, 0
2, 77360, Note_on_c, 1, 64, 127
2, 77360, Note_off_c, 1, 67, 0
2, 77360, Note_on_c, 1, 69, 127
2, 77400, Note_on_c, 1, 30, 127
2, 77400, Note_on_c, 1, 37, 127
2, 77400, Note_on_c, 1, 42, 127
2, 77400, Note_off_c, 1, 48, 0
2, 77400, Note_off_c, 1, 58, 0
2, 77400, Note_on_c, 1, 61, 127
2, 77400, Note_off_c, 1, 64, 0
2, 77400, Note_off_c, 1, 69, 0
2, 77400, Note_off_c, 1, 72, 0
2, 77400, Note_on_c, 1, 73, 127
2, 77440, Note_off_c, 1, 61, 0
2, 77440, Note_on_c, 1, 81, 127
2, 77480, Note_off_c, 1, 30, 0
2, 77480, Note_off_c, 1, 37, 0
2, 77480, Note_off_c, 1, 42, 0
2, 77480, Note_on_c, 1, 53, 127
2, 77480, Note_on_c, 1, 57, 127
2, 77480, Note_on_c, 1, 60, 127
2, 77480, Note_off_c, 1, 81, 0
2, 77520, Note_on_c, 1, 44, 127
2, 77520, Note_on_c, 1, 48, 127
2, 77520, Note_on_c, 1, 51, 127
2, 77520, Note_off_c, 1, 53, 0
2, 77520, Note_on_c, 1, 54, 127
2, 77520, Note_off_c, 1, 57, 0
2, 77520, Note_off_c, 1, 60, 0
2, 77520, Note_off_c, 1, 73, 0
2, 77520, Note_on_c, 1, 80, 127
2, 77560, Note_on_c, 1, 29, 127
2, 77560, Note_on_c, 1, 41, 127
2, 77560, Note_off_c, 1, 44, 0
2, 77560, Note_off_c, 1, 48, 0
2, 77560, Note_off_c, 1, 51, 0
2, 77560, Note_off_c, 1, 54, 0
2, 77560, Note_on_c, 1, 65, 127
2, 77560, Note_on_c, 1, 69, 127
2, 77560, Note_on_c, 1, 74, 127
2, 77560, Note_on_c, 1, 77, 127
2, 77560, Note_off_c, 1, 80, 0
2, 77600, Note_off_c, 1, 29, 0
2, 77600, Note_off_c, 1, 41, 0
2, 77600, Note_off_c, 1, 69, 0
2, 77600, Note_on_c, 1, 71, 127
2, 77600, Note_on_c, 1, 73, 127
2, 77600, Note_off_c, 1, 74, 0
2, 77600, Note_off_c, 1, 77, 0
2, 77600, Note_on_c, 1, 80, 127
2, 77600, Note_on_c, 1, 85, 127
2, 77640, Note_on_c, 1, 38, 127
2, 77640, Note_on_c, 1, 50, 127
2, 77640, Note_on_c, 1, 59, 127
2, 77640, Note_on_c, 1, 62, 127
2, 77640, Note_off_c, 1, 65, 0
2, 77640, Note_on_c, 1, 67, 127
2, 77640, Note_off_c, 1, 73, 0
2, 77640, Note_off_c, 1, 80, 0
2, 77640, Note_off_c, 1, 85, 0
2, 77880, Note_on_c, 1, 36, 127
2, 77880, Note_off_c, 1, 38, 0
2, 77880, Note_on_c, 1, 48, 127
2, 77880, Note_off_c, 1, 50, 0
2, 77880, Note_on_c, 1, 52, 127
2, 77880, Note_off_c, 1, 59, 0
2, 77880, Note_off_c, 1, 62, 0
2, 77880, Note_on_c, 1, 64, 127
2, 77880, Note_off_c, 1, 67, 0
2, 77880, Note_off_c, 1, 71, 0
2, 77880, Note_on_c, 1, 76, 127
2, 77880, Note_on_c, 1, 84, 127
2, 77880, Note_on_c, 1, 88, 127
2, 77920, Note_off_c, 1, 36, 0
2, 77920, Note_on_c, 1, 42, 127
2, 77920, Note_off_c, 1, 48, 0
2, 77920, Note_off_c, 1, 52, 0
2, 77920, Note_on_c, 1, 54, 127
2, 77920, Note_off_c, 1, 64, 0
2, 77920, Note_on_c, 1, 66, 127
2, 77920, Note_on_c, 1, 70, 127
2, 77920, Note_off_c, 1, 76, 0
2, 77920, Note_on_c, 1, 82, 127
2, 77920, Note_off_c, 1, 84, 0
2, 77920, Note_off_c, 1, 88, 0
2, 77920, Note_on_c, 1, 94, 127
2, 77960, Note_on_c, 1, 38, 127
2, 77960, Note_off_c, 1, 42, 0
2, 77960, Note_on_c, 1, 50, 127
2, 77960, Note_off_c, 1, 54, 0
2, 77960, Note_on_c, 1, 59, 127
2, 77960, Note_on_c, 1, 62, 127
2, 77960, Note_off_c, 1, 66, 0
2, 77960, Note_on_c, 1, 67, 127
2, 77960, Note_off_c, 1, 70, 0
2, 77960, Note_on_c, 1, 71, 127
2, 77960, Note_off_c, 1, 82, 0
2, 77960, Note_off_c, 1, 94, 0
2, 78000, Note_off_c, 1, 38, 0
2, 78000, Note_on_c, 1, 48, 127
2, 78000, Note_off_c, 1, 50, 0
2, 78000, Note_on_c, 1, 52, 127
2, 78000, Note_off_c, 1, 59, 0
2, 78000, Note_off_c, 1, 62, 0
2, 78000, Note_off_c, 1, 67, 0
2, 78000, Note_off_c, 1, 71, 0
2, 78000, Note_on_c, 1, 79, 127
2, 78000, Note_on_c, 1, 83, 127
2, 78040, Note_off_c, 1, 48, 0
2, 78040, Note_on_c, 1, 49, 127
2, 78040, Note_off_c, 1, 52, 0
2, 78040, Note_on_c, 1, 55, 127
2, 78040, Note_on_c, 1, 61, 127
2, 78040, Note_on_c, 1, 65, 127
2, 78040, Note_on_c, 1, 67, 127
2, 78040, Note_on_c, 1, 71, 127
2, 78040, Note_off_c, 1, 79, 0
2, 78040, Note_off_c, 1, 83, 0
2, 78200, Note_off_c, 1, 49, 0
2, 78200, Note_off_c, 1, 55, 0
2, 78200, Note_off_c, 1, 61, 0
2, 78200, Note_off_c, 1, 65, 0
2, 78200, Note_off_c, 1, 67, 0
2, 78200, Note_off_c, 1, 71, 0
2, 78240, Note_on_c, 1, 58, 127
2, 78240, Note_on_c, 1, 63, 127
2, 78240, Note_on_c, 1, 66, 127
2, 78240, Note_on_c, 1, 70, 127
2, 78240, Note_on_c, 1, 75, 127
2, 78240, Note_on_c, 1, 78, 127
2, 78240, Note_on_c, 1, 82, 127
2, 78800, Note_off_c, 1, 58, 0
2, 78800, Note_off_c, 1, 63, 0
2, 78800, Note_off_c, 1, 66, 0
2, 78800, Note_off_c, 1, 70, 0
2, 78800, Note_off_c, 1, 75, 0
2, 78800, Note_off_c, 1, 78, 0
2, 78800, Note_off_c, 1, 82, 0
2, 78840, Note_on_c, 1, 34, 127
2, 78840, Note_on_c, 1, 65, 127
2, 78840, Note_on_c, 1, 73, 127
2, 79040, Note_off_c, 1, 34, 0
2, 79040, Note_off_c, 1, 65, 0
2, 79040, Note_off_c, 1, 73, 0
2, 79080, Note_on_c, 1, 34, 127
2, 79080, Note_on_c, 1, 65, 127
2, 79080, Note_on_c, 1, 73, 127
2, 79440, Note_off_c, 1, 34, 0
2, 79440, Note_off_c, 1, 65, 0
2, 79440, Note_off_c, 1, 73, 0
2, 79480, Note_on_c, 1, 34, 127
2, 79480, Note_on_c, 1, 65, 127
2, 79480, Note_on_c, 1, 73, 127
2, 80040, Note_off_c, 1, 34, 0
2, 80040, Note_off_c, 1, 65, 0
2, 80040, Note_off_c, 1, 73, 0
2, 80080, Note_on_c, 1, 34, 127
2, 80080, Note_on_c, 1, 65, 127
2, 80080, Note_on_c, 1, 73, 127
2, 80640, Note_off_c, 1, 34, 0
2, 80640, Note_off_c, 1, 65, 0
2, 80640, Note_off_c, 1, 73, 0
2, 80680, Note_on_c, 1, 36, 127
2, 80680, Note_on_c, 1, 43, 127
2, 80680, Note_on_c, 1, 48, 127
2, 80680, Note_on_c, 1, 52, 127
2, 80680, Note_on_c, 1, 60, 127
2, 81080, Note_off_c, 1, 36, 0
2, 81080, Note_off_c, 1, 43, 0
2, 81080, Note_off_c, 1, 48, 0
2, 81080, Note_off_c, 1, 52, 0
2, 81080, Note_off_c, 1, 60, 0
2, 81120, Note_on_c, 1, 36, 127
2, 81120, Note_on_c, 1, 43, 127
2, 81120, Note_on_c, 1, 48, 127
2, 81120, Note_on_c, 1, 52, 127
2, 81120, Note_on_c, 1, 60, 127
2, 81880, Note_off_c, 1, 36, 0
2, 81880, Note_off_c, 1, 43, 0
2, 81880, Note_off_c, 1, 48, 0
2, 81880, Note_off_c, 1, 52, 0
2, 81880, Note_off_c, 1, 60, 0
2, 81920, Note_on_c, 1, 53, 127
2, 81920, Note_on_c, 1, 65, 127
2, 81920, Note_on_c, 1, 69, 127
2, 81920, Note_on_c, 1, 72, 127
2, 83080, Note_off_c, 1, 53, 0
2, 83080, Note_off_c, 1, 65, 0
2, 83080, Note_off_c, 1, 69, 0
2, 83080, Note_off_c, 1, 72, 0
2, 83160, Note_on_c, 1, 45, 127
2, 83160, Note_on_c, 1, 53, 127
2, 83160, Note_on_c, 1, 60, 127
2, 83160, Note_on_c, 1, 65, 127
2, 83720, Note_off_c, 1, 65, 0
2, 83760, Note_on_c, 1, 62, 127
2, 84280, Note_off_c, 1, 45, 0
2, 84280, Note_off_c, 1, 60, 0
2, 84280, Note_off_c, 1, 62, 0
2, 84360, Note_off_c, 1, 53, 0
2, 84360, Note_on_c, 1, 56, 127
2, 84360, Note_on_c, 1, 75, 127
2, 84360, Note_on_c, 1, 92, 127
2, 84360, Note_on_c, 1, 96, 127
2, 84920, Note_off_c, 1, 75, 0
2, 84920, Note_off_c, 1, 92, 0
2, 84920, Note_off_c, 1, 96, 0
2, 84960, Note_on_c, 1, 75, 127
2, 84960, Note_on_c, 1, 87, 127
2, 84960, Note_on_c, 1, 94, 127
2, 85160, Note_off_c, 1, 56, 0
2, 85160, Note_off_c, 1, 75, 0
2, 85160, Note_off_c, 1, 87, 0
2, 85160, Note_off_c, 1, 94, 0
2, 85200, Note_on_c, 1, 56, 127
2, 85200, Note_on_c, 1, 75, 127
2, 85200, Note_on_c, 1, 87, 127
2, 85200, Note_on_c, 1, 94, 127
2, 85560, Note_off_c, 1, 56, 0
2, 85560, Note_off_c, 1, 75, 0
2, 85560, Note_off_c, 1, 87, 0
2, 85560, Note_off_c, 1, 94, 0
2, 85600, Note_on_c, 1, 68, 127
2, 85600, Note_on_c, 1, 75, 127
2, 85600, Note_on_c, 1, 84, 127
2, 85600, Note_on_c, 1, 92, 127
2, 86160, Note_off_c, 1, 68, 0
2, 86200, Note_on_c, 1, 63, 127
2, 86720, Note_off_c, 1, 84, 0
2, 86720, Note_off_c, 1, 92, 0
2, 86760, Note_off_c, 1, 63, 0
2, 86760, Note_off_c, 1, 75, 0
2, 86800, Note_on_c, 1, 56, 127
2, 86800, Note_on_c, 1, 75, 127
2, 86800, Note_on_c, 1, 84, 127
2, 86800, Note_on_c, 1, 87, 127
2, 87200, Note_off_c, 1, 56, 0
2, 87200, Note_off_c, 1, 75, 0
2, 87200, Note_off_c, 1, 84, 0
2, 87200, Note_off_c, 1, 87, 0
2, 87240, Note_on_c, 1, 56, 127
2, 87240, Note_on_c, 1, 75, 127
2, 87240, Note_on_c, 1, 84, 127
2, 87240, Note_on_c, 1, 87, 127
2, 87400, Note_off_c, 1, 84, 0
2, 87400, Note_off_c, 1, 87, 0
2, 87440, Note_on_c, 1, 82, 127
2, 87440, Note_on_c, 1, 85, 127
2, 88000, Note_off_c, 1, 56, 0
2, 88000, Note_off_c, 1, 75, 0
2, 88000, Note_off_c, 1, 82, 0
2, 88000, Note_off_c, 1, 85, 0
2, 88040, Note_on_c, 1, 56, 127
2, 88040, Note_on_c, 1, 63, 127
2, 88040, Note_on_c, 1, 80, 127
2, 88040, Note_on_c, 1, 84, 127
2, 88600, Note_off_c, 1, 56, 0
2, 88640, Note_on_c, 1, 68, 127
2, 89200, Note_off_c, 1, 63, 0
2, 89200, Note_off_c, 1, 68, 0
2, 89200, Note_off_c, 1, 80, 0
2, 89200, Note_off_c, 1, 84, 0
2, 89280, Note_on_c, 1, 58, 127
2, 89280, Note_on_c, 1, 87, 127
2, 89280, Note_on_c, 1, 91, 127
2, 89400, Note_off_c, 1, 58, 0
2, 89400, Note_on_c, 1, 63, 127
2, 89400, Note_off_c, 1, 87, 0
2, 89400, Note_off_c, 1, 91, 0
2, 89400, Note_on_c, 1, 98, 127
2, 89440, Note_on_c, 1, 58, 127
2, 89440, Note_off_c, 1, 63, 0
2, 89440, Note_on_c, 1, 87, 127
2, 89440, Note_on_c, 1, 91, 127
2, 89440, Note_off_c, 1, 98, 0
2, 89560, Note_off_c, 1, 91, 0
2, 89560, Note_on_c, 1, 99, 127
2, 89600, Note_off_c, 1, 58, 0
2, 89600, Note_on_c, 1, 63, 127
2, 89600, Note_on_c, 1, 79, 127
2, 89600, Note_off_c, 1, 99, 0
2, 89640, Note_on_c, 1, 72, 127
2, 89640, Note_off_c, 1, 79, 0
2, 89640, Note_on_c, 1, 82, 127
2, 89640, Note_off_c, 1, 87, 0
2, 89640, Note_on_c, 1, 91, 127
2, 89680, Note_on_c, 1, 41, 127
2, 89680, Note_on_c, 1, 60, 127
2, 89680, Note_on_c, 1, 62, 127
2, 89680, Note_off_c, 1, 63, 0
2, 89680, Note_on_c, 1, 67, 127
2, 89680, Note_off_c, 1, 72, 0
2, 89680, Note_off_c, 1, 82, 0
2, 89680, Note_off_c, 1, 91, 0
2, 91280, Note_off_c, 1, 41, 0
2, 91280, Note_off_c, 1, 60, 0
2, 91280, Note_off_c, 1, 62, 0
2, 91280, Note_off_c, 1, 67, 0
2, 91320, Note_on_c, 1, 41, 127
2, 91320, Note_on_c, 1, 60, 127
2, 91320, Note_on_c, 1, 62, 127
2, 91320, Note_on_c, 1, 67, 127
2, 93320, Note_off_c, 1, 41, 0
2, 93320, Note_off_c, 1, 60, 0
2, 93320, Note_off_c, 1, 62, 0
2, 93320, Note_off_c, 1, 67, 0
2, 93360, Note_on_c, 1, 41, 127
2, 93360, Note_on_c, 1, 60, 127
2, 93360, Note_on_c, 1, 62, 127
2, 93360, Note_on_c, 1, 67, 127
2, 95320, Note_off_c, 1, 41, 0
2, 95320, Note_on_c, 1, 48, 127
2, 95320, Note_off_c, 1, 60, 0
2, 95320, Note_off_c, 1, 62, 0
2, 95320, Note_off_c, 1, 67, 0
2, 95360, Note_off_c, 1, 48, 0
2, 95400, Note_on_c, 1, 48, 127
2, 95400, Note_on_c, 1, 55, 127
2, 95400, Note_on_c, 1, 64, 127
2, 95400, Note_on_c, 1, 76, 127
2, 96560, Note_off_c, 1, 48, 0
2, 96560, Note_off_c, 1, 55, 0
2, 96560, Note_off_c, 1, 64, 0
2, 96560, Note_off_c, 1, 76, 0
2, 96600, Note_on_c, 1, 68, 127
2, 97400, Note_off_c, 1, 68, 0
2, 97440, Note_on_c, 1, 68, 127
2, 97800, Note_off_c, 1, 68, 0
2, 97840, Note_on_c, 1, 38, 127
2, 97840, Note_on_c, 1, 54, 127
2, 97840, Note_on_c, 1, 66, 127
2, 97840, Note_on_c, 1, 70, 127
2, 98200, Note_off_c, 1, 66, 0
2, 98240, Note_on_c, 1, 66, 127
2, 98400, Note_off_c, 1, 66, 0
2, 98520, Note_on_c, 1, 64, 127
2, 98560, Note_off_c, 1, 64, 0
2, 98640, Note_on_c, 1, 64, 127
2, 99000, Note_off_c, 1, 38, 0
2, 99000, Note_off_c, 1, 54, 0
2, 99000, Note_off_c, 1, 64, 0
2, 99000, Note_off_c, 1, 70, 0
2, 99040, Note_on_c, 1, 46, 127
2, 99040, Note_on_c, 1, 58, 127
2, 99040, Note_on_c, 1, 70, 127
2, 99040, Note_on_c, 1, 74, 127
2, 99040, Note_on_c, 1, 77, 127
2, 99440, Note_off_c, 1, 46, 0
2, 99440, Note_off_c, 1, 58, 0
2, 99440, Note_off_c, 1, 70, 0
2, 99440, Note_off_c, 1, 74, 0
2, 99440, Note_off_c, 1, 77, 0
2, 99480, Note_on_c, 1, 46, 127
2, 99480, Note_on_c, 1, 58, 127
2, 99480, Note_on_c, 1, 70, 127
2, 99480, Note_on_c, 1, 74, 127
2, 99480, Note_on_c, 1, 77, 127
2, 100240, Note_off_c, 1, 46, 0
2, 100240, Note_off_c, 1, 58, 0
2, 100240, Note_off_c, 1, 70, 0
2, 100240, Note_off_c, 1, 74, 0
2, 100240, Note_off_c, 1, 77, 0
2, 100240, Note_on_c, 1, 79, 127
2, 100280, Note_on_c, 1, 39, 127
2, 100280, Note_on_c, 1, 51, 127
2, 100280, Note_on_c, 1, 70, 127
2, 100280, Note_on_c, 1, 75, 127
2, 100840, Note_off_c, 1, 39, 0
2, 100840, Note_off_c, 1, 51, 0
2, 100840, Note_off_c, 1, 70, 0
2, 100840, Note_off_c, 1, 75, 0
2, 100840, Note_off_c, 1, 79, 0
2, 100960, Note_on_c, 1, 70, 127
2, 101000, Note_off_c, 1, 70, 0
2, 101000, Note_on_c, 1, 73, 127
2, 101040, Note_on_c, 1, 72, 127
2, 101040, Note_off_c, 1, 73, 0
2, 101120, Note_off_c, 1, 72, 0
2, 101160, Note_on_c, 1, 73, 127
2, 101440, Note_off_c, 1, 73, 0
2, 101520, Note_on_c, 1, 53, 127
2, 101520, Note_on_c, 1, 58, 127
2, 101520, Note_on_c, 1, 62, 127
2, 101520, Note_on_c, 1, 75, 127
2, 101920, Note_on_c, 1, 74, 127
2, 101920, Note_off_c, 1, 75, 0
2, 102080, Note_off_c, 1, 53, 0
2, 102080, Note_off_c, 1, 58, 0
2, 102080, Note_off_c, 1, 62, 0
2, 102120, Note_on_c, 1, 51, 127
2, 102680, Note_off_c, 1, 51, 0
2, 102680, Note_off_c, 1, 74, 0
2, 102720, Note_on_c, 1, 67, 127
2, 103280, Note_off_c, 1, 67, 0
2, 103320, Note_on_c, 1, 41, 127
2, 103320, Note_on_c, 1, 53, 127
2, 103320, Note_on_c, 1, 70, 127
2, 103520, Note_off_c, 1, 70, 0
2, 103560, Note_off_c, 1, 41, 0
2, 103560, Note_off_c, 1, 53, 0
2, 103600, Note_on_c, 1, 41, 127
2, 103600, Note_on_c, 1, 53, 127
2, 103600, Note_on_c, 1, 69, 127
2, 103840, Note_off_c, 1, 69, 0
2, 103880, Note_on_c, 1, 67, 127
2, 104440, Note_off_c, 1, 41, 0
2, 104440, Note_off_c, 1, 53, 0
2, 104440, Note_off_c, 1, 67, 0
2, 104480, Note_on_c, 1, 41, 127
2, 104480, Note_on_c, 1, 53, 127
2, 104480, Note_on_c, 1, 69, 127
2, 105040, Note_off_c, 1, 41, 0
2, 105040, Note_off_c, 1, 53, 0
2, 105040, Note_off_c, 1, 69, 0
2, 105080, Note_on_c, 1, 69, 127
2, 105080, Note_on_c, 1, 74, 127
2, 105080, Note_on_c, 1, 86, 127
2, 105640, Note_off_c, 1, 69, 0
2, 105640, Note_off_c, 1, 74, 0
2, 105640, Note_off_c, 1, 86, 0
2, 105720, Note_on_c, 1, 69, 127
2, 105720, Note_on_c, 1, 76, 127
2, 105720, Note_on_c, 1, 88, 127
2, 106280, Note_off_c, 1, 69, 0
2, 106280, Note_off_c, 1, 76, 0
2, 106280, Note_off_c, 1, 88, 0
2, 106320, Note_on_c, 1, 84, 127
2, 106920, Note_on_c, 1, 77, 127
2, 106920, Note_on_c, 1, 80, 127
2, 106920, Note_on_c, 1, 83, 127
2, 106920, Note_off_c, 1, 84, 0
2, 107440, Note_off_c, 1, 77, 0
2, 107440, Note_off_c, 1, 80, 0
2, 107440, Note_off_c, 1, 83, 0
2, 107520, Note_on_c, 1, 86, 127
2, 107720, Note_off_c, 1, 86, 0
2, 107760, Note_on_c, 1, 86, 127
2, 108160, Note_on_c, 1, 62, 127
2, 108160, Note_on_c, 1, 66, 127
2, 108160, Note_on_c, 1, 72, 127
2, 108720, Note_off_c, 1, 62, 0
2, 108720, Note_off_c, 1, 66, 0
2, 108720, Note_off_c, 1, 72, 0
2, 108720, Note_off_c, 1, 86, 0
2, 108760, Note_on_c, 1, 74, 127
2, 109360, Note_on_c, 1, 51, 127
2, 109360, Note_on_c, 1, 58, 127
2, 109360, Note_on_c, 1, 67, 127
2, 109720, Note_off_c, 1, 74, 0
2, 109760, Note_off_c, 1, 51, 0
2, 109760, Note_off_c, 1, 58, 0
2, 109760, Note_off_c, 1, 67, 0
2, 109800, Note_on_c, 1, 51, 127
2, 109800, Note_on_c, 1, 58, 127
2, 109800, Note_on_c, 1, 67, 127
2, 109800, Note_on_c, 1, 74, 127
2, 109960, Note_off_c, 1, 74, 0
2, 110520, Note_off_c, 1, 51, 0
2, 110520, Note_off_c, 1, 58, 0
2, 110520, Note_off_c, 1, 67, 0
2, 110560, Note_on_c, 1, 82, 127
2, 111160, Note_on_c, 1, 62, 127
2, 111160, Note_on_c, 1, 67, 127
2, 111160, Note_on_c, 1, 70, 127
2, 111680, Note_on_c, 1, 33, 127
2, 111680, Note_on_c, 1, 40, 127
2, 111680, Note_on_c, 1, 45, 127
2, 111680, Note_off_c, 1, 62, 0
2, 111680, Note_off_c, 1, 67, 0
2, 111680, Note_off_c, 1, 70, 0
2, 111680, Note_off_c, 1, 82, 0
2, 111720, Note_off_c, 1, 33, 0
2, 111720, Note_off_c, 1, 40, 0
2, 111720, Note_off_c, 1, 45, 0
2, 111760, Note_on_c, 1, 82, 127
2, 111960, Note_off_c, 1, 82, 0
2, 112000, Note_on_c, 1, 82, 127
2, 112400, Note_on_c, 1, 62, 127
2, 112400, Note_on_c, 1, 65, 127
2, 112920, Note_off_c, 1, 62, 0
2, 112920, Note_off_c, 1, 65, 0
2, 112960, Note_off_c, 1, 82, 0
2, 113000, Note_on_c, 1, 79, 127
2, 113600, Note_on_c, 1, 59, 127
2, 113600, Note_on_c, 1, 62, 127
2, 113600, Note_on_c, 1, 67, 127
2, 114000, Note_off_c, 1, 59, 0
2, 114000, Note_off_c, 1, 62, 0
2, 114000, Note_off_c, 1, 67, 0
2, 114000, Note_off_c, 1, 79, 0
2, 114040, Note_on_c, 1, 59, 127
2, 114040, Note_on_c, 1, 62, 127
2, 114040, Note_on_c, 1, 67, 127
2, 114040, Note_on_c, 1, 79, 127
2, 114200, Note_off_c, 1, 59, 0
2, 114200, Note_off_c, 1, 62, 0
2, 114200, Note_off_c, 1, 67, 0
2, 114200, Note_off_c, 1, 79, 0
2, 114240, Note_on_c, 1, 77, 127
2, 114800, Note_off_c, 1, 77, 0
2, 114840, Note_on_c, 1, 57, 127
2, 114840, Note_on_c, 1, 61, 127
2, 114840, Note_on_c, 1, 67, 127
2, 114840, Note_on_c, 1, 76, 127
2, 115400, Note_off_c, 1, 57, 0
2, 115400, Note_off_c, 1, 61, 0
2, 115400, Note_off_c, 1, 67, 0
2, 115400, Note_off_c, 1, 76, 0
2, 115440, Note_on_c, 1, 53, 127
2, 115440, Note_on_c, 1, 77, 127
2, 116000, Note_off_c, 1, 53, 0
2, 116000, Note_off_c, 1, 77, 0
2, 116080, Note_on_c, 1, 80, 127
2, 116680, Note_on_c, 1, 53, 127
2, 117240, Note_off_c, 1, 53, 0
2, 117280, Note_on_c, 1, 62, 127
2, 117840, Note_off_c, 1, 62, 0
2, 117880, Note_on_c, 1, 65, 127
2, 118280, Note_off_c, 1, 65, 0
2, 118280, Note_off_c, 1, 80, 0
2, 118320, Note_on_c, 1, 65, 127
2, 118320, Note_on_c, 1, 80, 127
2, 118440, Note_off_c, 1, 65, 0
2, 118480, Note_off_c, 1, 80, 0
2, 118520, Note_on_c, 1, 63, 127
2, 118520, Note_on_c, 1, 79, 127
2, 119080, Note_off_c, 1, 63, 0
2, 119080, Note_off_c, 1, 79, 0
2, 119120, Note_on_c, 1, 61, 127
2, 119120, Note_on_c, 1, 77, 127
2, 119680, Note_off_c, 1, 61, 0
2, 119680, Note_off_c, 1, 77, 0
2, 119720, Note_on_c, 1, 63, 127
2, 119720, Note_on_c, 1, 79, 127
2, 120000, Note_off_c, 1, 63, 0
2, 120000, Note_off_c, 1, 79, 0
2, 120040, End_track
3, 0, Start_track
3, 0, Title_t, "MIDI"
3, 1536, End_track
0, 0, End_of_file
