0, 0, Header, 1, 3, 192
1, 0, Start_track
1, 0, Time_signature, 4, 2, 24, 8
1, 0, Tempo, 500000
1, 120040, End_track
2, 0, Start_track
2, 0, Text_t, "random instrument: random person i dunno whatev"
2, 0, Title_t, "Track 1"
2, 0, Note_on_c, 1, 40, 127
2, 0, Note_on_c, 1, 48, 127
2, 0, Note_on_c, 1, 56, 127
2, 0, Note_on_c, 1, 60, 127
2, 40, Note_off_c, 1, 40, 0
2, 40, Note_off_c, 1, 48, 0
2, 40, Note_on_c, 1, 55, 127
2, 40, Note_off_c, 1, 56, 0
2, 40, Note_off_c, 1, 60, 0
2, 40, Note_on_c, 1, 72, 127
2, 40, Note_on_c, 1, 75, 127
2, 40, Note_on_c, 1, 79, 127
2, 40, Note_on_c, 1, 84, 127
2, 80, Note_off_c, 1, 55, 0
2, 80, Note_off_c, 1, 72, 0
2, 80, Note_off_c, 1, 75, 0
2, 80, Note_off_c, 1, 79, 0
2, 80, Note_off_c, 1, 84, 0
2, 120, Note_on_c, 1, 40, 127
2, 120, Note_on_c, 1, 48, 127
2, 120, Note_on_c, 1, 56, 127
2, 120, Note_on_c, 1, 60, 127
2, 160, Note_off_c, 1, 40, 0
2, 160, Note_on_c, 1, 41, 127
2, 160, Note_off_c, 1, 48, 0
2, 160, Note_on_c, 1, 50, 127
2, 160, Note_on_c, 1, 53, 127
2, 160, Note_off_c, 1, 56, 0
2, 160, Note_off_c, 1, 60, 0
2, 160, Note_on_c, 1, 81, 127
2, 160, Note_on_c, 1, 86, 127
2, 200, Note_on_c, 1, 35, 127
2, 200, Note_on_c, 1, 39, 127
2, 200, Note_off_c, 1, 41, 0
2, 200, Note_on_c, 1, 47, 127
2, 200, Note_off_c, 1, 53, 0
2, 200, Note_off_c, 1, 81, 0
2, 200, Note_off_c, 1, 86, 0
2, 240, Note_on_c, 1, 34, 127
2, 240, Note_off_c, 1, 35, 0
2, 240, Note_on_c, 1, 46, 127
2, 240, Note_off_c, 1, 47, 0
2, 240, Note_off_c, 1, 50, 0
2, 240, Note_on_c, 1, 73, 127
2, 240, Note_on_c, 1, 75, 127
2, 360, Note_on_c, 1, 80, 127
2, 400, Note_off_c, 1, 34, 0
2, 400, Note_on_c, 1, 35, 127
2, 400, Note_off_c, 1, 39, 0
2, 400, Note_on_c, 1, 40, 127
2, 400, Note_off_c, 1, 46, 0
2, 400, Note_on_c, 1, 47, 127
2, 400, Note_on_c, 1, 62, 127
2, 400, Note_off_c, 1, 73, 0
2, 400, Note_off_c, 1, 75, 0
2, 400, Note_off_c, 1, 80, 0
2, 480, Note_off_c, 1, 35, 0
2, 480, Note_off_c, 1, 40, 0
2, 480, Note_off_c, 1, 47, 0
2, 480, Note_off_c, 1, 62, 0
2, 480, Note_on_c, 1, 76, 127
2, 520, Note_on_c, 1, 48, 127
2, 520, Note_on_c, 1, 55, 127
2, 520, Note_on_c, 1, 60, 127
2, 520, Note_on_c, 1, 64, 127
2, 520, Note_on_c, 1, 72, 127
2, 680, Note_off_c, 1, 48, 0
2, 680, Note_off_c, 1, 55, 0
2, 680, Note_off_c, 1, 60, 0
2, 680, Note_off_c, 1, 64, 0
2, 680, Note_off_c, 1, 72, 0
2, 680, Note_off_c, 1, 76, 0
2, 720, Note_on_c, 1, 38, 127
2, 720, Note_on_c, 1, 62, 127
2, 720, Note_on_c, 1, 65, 127
2, 720, Note_on_c, 1, 70, 127
2, 760, Note_off_c, 1, 38, 0
2, 800, Note_off_c, 1, 70, 0
2, 840, Note_on_c, 1, 47, 127
2, 840, Note_off_c, 1, 62, 0
2, 840, Note_on_c, 1, 63, 127
2, 840, Note_off_c, 1, 65, 0
2, 840, Note_on_c, 1, 66, 127
2, 840, Note_on_c, 1, 71, 127
2, 960, Note_off_c, 1, 47, 0
2, 960, Note_off_c, 1, 63, 0
2, 960, Note_off_c, 1, 66, 0
2, 960, Note_off_c, 1, 71, 0
2, 1000, Note_on_c, 1, 48, 127
2, 1000, Note_on_c, 1, 60, 127
2, 1000, Note_on_c, 1, 65, 127
2, 1000, Note_on_c, 1, 69, 127
2, 1520, Note_on_c, 1, 39, 127
2, 1520, Note_on_c, 1, 45, 127
2, 1520, Note_off_c, 1, 48, 0
2, 1520, Note_off_c, 1, 65, 0
2, 1520, Note_on_c, 1, 66, 127
2, 1560, Note_off_c, 1, 39, 0
2, 1560, Note_off_c, 1, 45, 0
2, 1560, Note_off_c, 1, 60, 0
2, 1560, Note_off_c, 1, 66, 0
2, 1560, Note_off_c, 1, 69, 0
2, 1600, Note_on_c, 1, 41, 127
2, 1600, Note_on_c, 1, 60, 127
2, 1600, Note_on_c, 1, 65, 127
2, 1600, Note_on_c, 1, 69, 127
2, 1920, Note_off_c, 1, 41, 0
2, 1920, Note_off_c, 1, 60, 0
2, 1920, Note_off_c, 1, 65, 0
2, 1920, Note_off_c, 1, 69, 0
2, 1960, Note_on_c, 1, 41, 127
2, 1960, Note_on_c, 1, 60, 127
2, 1960, Note_on_c, 1, 65, 127
2, 1960, Note_on_c, 1, 69, 127
2, 2000, Note_off_c, 1, 41, 0
2, 2040, Note_on_c, 1, 41, 127
2, 2840, Note_off_c, 1, 41, 0
2, 2840, Note_off_c, 1, 60, 0
2, 2840, Note_off_c, 1, 65, 0
2, 2840, Note_off_c, 1, 69, 0
2, 2880, Note_on_c, 1, 41, 127
2, 2880, Note_on_c, 1, 65, 127
2, 3240, Note_off_c, 1, 41, 0
2, 3280, Note_on_c, 1, 56, 127
2, 3840, Note_off_c, 1, 56, 0
2, 4000, Note_off_c, 1, 65, 0
2, 4040, Note_on_c, 1, 65, 127
2, 4080, Note_off_c, 1, 65, 0
2, 4120, Note_on_c, 1, 65, 127
2, 4120, Note_on_c, 1, 71, 127
2, 4120, Note_on_c, 1, 77, 127
2, 4120, Note_on_c, 1, 86, 127
2, 4160, Note_on_c, 1, 56, 127
2, 4160, Note_off_c, 1, 71, 0
2, 4160, Note_off_c, 1, 77, 0
2, 4160, Note_on_c, 1, 84, 127
2, 4160, Note_off_c, 1, 86, 0
2, 4400, Note_off_c, 1, 56, 0
2, 4400, Note_on_c, 1, 63, 127
2, 4400, Note_off_c, 1, 65, 0
2, 4400, Note_on_c, 1, 79, 127
2, 4400, Note_off_c, 1, 84, 0
2, 4400, Note_on_c, 1, 87, 127
2, 4440, Note_on_c, 1, 56, 127
2, 4440, Note_off_c, 1, 63, 0
2, 4440, Note_on_c, 1, 65, 127
2, 4440, Note_off_c, 1, 79, 0
2, 4440, Note_on_c, 1, 83, 127
2, 4440, Note_off_c, 1, 87, 0
2, 4480, Note_off_c, 1, 56, 0
2, 4480, Note_off_c, 1, 83, 0
2, 4520, Note_on_c, 1, 75, 127
2, 4520, Note_on_c, 1, 81, 127
2, 4520, Note_on_c, 1, 84, 127
2, 4920, Note_on_c, 1, 69, 127
2, 4920, Note_on_c, 1, 74, 127
2, 4920, Note_off_c, 1, 75, 0
2, 4920, Note_off_c, 1, 84, 0
2, 5280, Note_off_c, 1, 65, 0
2, 5280, Note_off_c, 1, 69, 0
2, 5280, Note_off_c, 1, 74, 0
2, 5280, Note_off_c, 1, 81, 0
2, 5320, Note_on_c, 1, 40, 127
2, 5320, Note_on_c, 1, 73, 127
2, 5320, Note_on_c, 1, 79, 127
2, 5320, Note_on_c, 1, 82, 127
2, 5320, Note_on_c, 1, 85, 127
2, 5360, Note_off_c, 1, 40, 0
2, 5360, Note_on_c, 1, 53, 127
2, 5360, Note_on_c, 1, 69, 127
2, 5360, Note_off_c, 1, 73, 0
2, 5360, Note_on_c, 1, 75, 127
2, 5360, Note_off_c, 1, 82, 0
2, 5360, Note_off_c, 1, 85, 0
2, 5400, Note_on_c, 1, 40, 127
2, 5400, Note_off_c, 1, 53, 0
2, 5400, Note_off_c, 1, 69, 0
2, 5400, Note_on_c, 1, 73, 127
2, 5400, Note_off_c, 1, 75, 0
2, 5400, Note_on_c, 1, 82, 127
2, 5400, Note_on_c, 1, 85, 127
2, 5440, Note_off_c, 1, 40, 0
2, 5440, Note_on_c, 1, 60, 127
2, 5440, Note_off_c, 1, 73, 0
2, 5440, Note_off_c, 1, 79, 0
2, 5440, Note_off_c, 1, 82, 0
2, 5440, Note_off_c, 1, 85, 0
2, 5720, Note_on_c, 1, 65, 127
2, 5720, Note_on_c, 1, 77, 127
2, 5720, Note_on_c, 1, 81, 127
2, 6080, Note_off_c, 1, 60, 0
2, 6080, Note_off_c, 1, 65, 0
2, 6080, Note_off_c, 1, 77, 0
2, 6080, Note_off_c, 1, 81, 0
2, 6120, Note_on_c, 1, 60, 127
2, 6160, Note_on_c, 1, 65, 127
2, 6160, Note_on_c, 1, 77, 127
2, 6160, Note_on_c, 1, 81, 127
2, 6520, Note_off_c, 1, 65, 0
2, 6520, Note_off_c, 1, 77, 0
2, 6520, Note_off_c, 1, 81, 0
2, 6560, Note_on_c, 1, 76, 127
2, 6560, Note_on_c, 1, 79, 127
2, 6720, Note_off_c, 1, 60, 0
2, 6720, Note_off_c, 1, 76, 0
2, 6720, Note_off_c, 1, 79, 0
2, 6760, Note_on_c, 1, 65, 127
2, 6760, Note_on_c, 1, 77, 127
2, 6760, Note_on_c, 1, 81, 127
2, 6920, Note_off_c, 1, 65, 0
2, 6920, Note_off_c, 1, 77, 0
2, 6920, Note_off_c, 1, 81, 0
2, 7000, Note_on_c, 1, 61, 127
2, 7000, Note_on_c, 1, 76, 127
2, 7000, Note_on_c, 1, 81, 127
2, 7200, Note_off_c, 1, 61, 0
2, 7200, Note_off_c, 1, 76, 0
2, 7200, Note_off_c, 1, 81, 0
2, 7240, Note_on_c, 1, 60, 127
2, 7240, Note_on_c, 1, 67, 127
2, 7240, Note_on_c, 1, 76, 127
2, 7240, Note_on_c, 1, 79, 127
2, 7400, Note_off_c, 1, 60, 0
2, 7400, Note_off_c, 1, 67, 0
2, 7400, Note_off_c, 1, 76, 0
2, 7400, Note_off_c, 1, 79, 0
2, 7520, Note_on_c, 1, 67, 127
2, 7920, Note_on_c, 1, 69, 127
2, 8080, Note_off_c, 1, 67, 0
2, 8080, Note_off_c, 1, 69, 0
2, 8120, Note_on_c, 1, 67, 127
2, 8120, Note_on_c, 1, 69, 127
2, 8280, Note_off_c, 1, 67, 0
2, 8280, Note_off_c, 1, 69, 0
2, 8320, Note_on_c, 1, 46, 127
2, 8320, Note_on_c, 1, 58, 127
2, 8320, Note_on_c, 1, 60, 127
2, 8320, Note_on_c, 1, 64, 127
2, 8320, Note_on_c, 1, 67, 127
2, 8360, Note_on_c, 1, 45, 127
2, 8360, Note_off_c, 1, 46, 0
2, 8360, Note_on_c, 1, 50, 127
2, 8360, Note_off_c, 1, 58, 0
2, 8360, Note_off_c, 1, 60, 0
2, 8360, Note_on_c, 1, 62, 127
2, 8360, Note_off_c, 1, 64, 0
2, 8360, Note_off_c, 1, 67, 0
2, 8360, Note_on_c, 1, 81, 127
2, 8360, Note_on_c, 1, 90, 127
2, 8360, Note_on_c, 1, 93, 127
2, 8400, Note_off_c, 1, 45, 0
2, 8400, Note_on_c, 1, 48, 127
2, 8400, Note_off_c, 1, 50, 0
2, 8400, Note_off_c, 1, 62, 0
2, 8400, Note_on_c, 1, 64, 127
2, 8400, Note_on_c, 1, 69, 127
2, 8400, Note_on_c, 1, 73, 127
2, 8400, Note_off_c, 1, 81, 0
2, 8400, Note_off_c, 1, 90, 0
2, 8400, Note_off_c, 1, 93, 0
2, 8440, Note_off_c, 1, 48, 0
2, 8440, Note_off_c, 1, 64, 0
2, 8440, Note_off_c, 1, 69, 0
2, 8440, Note_off_c, 1, 73, 0
2, 8440, Note_on_c, 1, 81, 127
2, 8440, Note_on_c, 1, 84, 127
2, 8440, Note_on_c, 1, 88, 127
2, 8480, Note_on_c, 1, 57, 127
2, 8480, Note_on_c, 1, 61, 127
2, 8480, Note_on_c, 1, 64, 127
2, 8480, Note_on_c, 1, 67, 127
2, 8480, Note_on_c, 1, 69, 127
2, 8480, Note_on_c, 1, 80, 127
2, 8480, Note_off_c, 1, 81, 0
2, 8480, Note_off_c, 1, 84, 0
2, 8480, Note_off_c, 1, 88, 0
2, 8520, Note_on_c, 1, 54, 127
2, 8520, Note_off_c, 1, 61, 0
2, 8520, Note_on_c, 1, 62, 127
2, 8520, Note_off_c, 1, 64, 0
2, 8520, Note_on_c, 1, 66, 127
2, 8520, Note_off_c, 1, 67, 0
2, 8520, Note_off_c, 1, 69, 0
2, 8520, Note_on_c, 1, 74, 127
2, 8520, Note_on_c, 1, 78, 127
2, 8520, Note_off_c, 1, 80, 0
2, 8560, Note_off_c, 1, 54, 0
2, 8560, Note_off_c, 1, 57, 0
2, 8560, Note_off_c, 1, 62, 0
2, 8560, Note_off_c, 1, 66, 0
2, 8560, Note_off_c, 1, 74, 0
2, 8560, Note_off_c, 1, 78, 0
2, 8600, Note_on_c, 1, 91, 127
2, 8600, Note_on_c, 1, 93, 127
2, 8640, Note_off_c, 1, 91, 0
2, 8640, Note_off_c, 1, 93, 0
2, 8680, Note_on_c, 1, 91, 127
2, 8680, Note_on_c, 1, 93, 127
2, 8720, Note_on_c, 1, 35, 127
2, 8720, Note_on_c, 1, 67, 127
2, 8720, Note_on_c, 1, 76, 127
2, 8720, Note_on_c, 1, 79, 127
2, 8720, Note_off_c, 1, 91, 0
2, 8720, Note_off_c, 1, 93, 0
2, 8760, Note_off_c, 1, 35, 0
2, 8760, Note_on_c, 1, 39, 127
2, 8760, Note_on_c, 1, 48, 127
2, 8760, Note_on_c, 1, 51, 127
2, 8760, Note_off_c, 1, 67, 0
2, 8760, Note_off_c, 1, 76, 0
2, 8760, Note_off_c, 1, 79, 0
2, 9040, Note_off_c, 1, 39, 0
2, 9040, Note_off_c, 1, 48, 0
2, 9040, Note_off_c, 1, 51, 0
2, 9160, Note_on_c, 1, 31, 127
2, 9160, Note_on_c, 1, 43, 127
2, 9560, Note_on_c, 1, 50, 127
2, 9800, Note_off_c, 1, 50, 0
2, 9800, Note_on_c, 1, 57, 127
2, 9840, Note_on_c, 1, 50, 127
2, 9840, Note_off_c, 1, 57, 0
2, 9920, Note_off_c, 1, 50, 0
2, 9960, Note_on_c, 1, 59, 127
2, 10120, Note_off_c, 1, 31, 0
2, 10120, Note_off_c, 1, 43, 0
2, 10120, Note_off_c, 1, 59, 0
2, 10160, Note_on_c, 1, 55, 127
2, 10200, Note_on_c, 1, 53, 127
2, 10200, Note_off_c, 1, 55, 0
2, 10240, Note_off_c, 1, 53, 0
2, 10240, Note_on_c, 1, 57, 127
2, 10280, Note_off_c, 1, 57, 0
2, 10360, Note_on_c, 1, 62, 127
2, 10400, Note_on_c, 1, 60, 127
2, 10400, Note_off_c, 1, 62, 0
2, 10560, Note_off_c, 1, 60, 0
2, 10600, Note_on_c, 1, 65, 127
2, 10760, Note_off_c, 1, 65, 0
2, 10800, Note_on_c, 1, 69, 127
2, 11000, Note_off_c, 1, 69, 0
2, 11040, Note_on_c, 1, 63, 127
2, 11200, Note_off_c, 1, 63, 0
2, 11240, Note_on_c, 1, 62, 127
2, 11360, Note_off_c, 1, 62, 0
2, 11400, Note_on_c, 1, 70, 127
2, 11600, Note_off_c, 1, 70, 0
2, 11640, Note_on_c, 1, 67, 127
2, 11760, Note_off_c, 1, 67, 0
2, 11800, Note_on_c, 1, 67, 127
2, 11960, Note_off_c, 1, 67, 0
2, 12000, Note_on_c, 1, 74, 127
2, 12160, Note_off_c, 1, 74, 0
2, 12200, Note_on_c, 1, 47, 127
2, 12200, Note_on_c, 1, 55, 127
2, 12200, Note_on_c, 1, 67, 127
2, 12200, Note_on_c, 1, 79, 127
2, 12440, Note_off_c, 1, 47, 0
2, 12440, Note_off_c, 1, 55, 0
2, 12440, Note_off_c, 1, 67, 0
2, 12440, Note_off_c, 1, 79, 0
2, 12480, Note_on_c, 1, 45, 127
2, 12480, Note_on_c, 1, 48, 127
2, 12480, Note_on_c, 1, 57, 127
2, 12480, Note_on_c, 1, 60, 127
2, 12480, Note_on_c, 1, 64, 127
2, 12520, Note_off_c, 1, 45, 0
2, 12520, Note_on_c, 1, 47, 127
2, 12520, Note_off_c, 1, 48, 0
2, 12520, Note_on_c, 1, 55, 127
2, 12520, Note_off_c, 1, 57, 0
2, 12520, Note_off_c, 1, 60, 0
2, 12520, Note_off_c, 1, 64, 0
2, 12520, Note_on_c, 1, 67, 127
2, 12520, Note_on_c, 1, 79, 127
2, 13000, Note_off_c, 1, 47, 0
2, 13000, Note_off_c, 1, 55, 0
2, 13000, Note_off_c, 1, 67, 0
2, 13000, Note_off_c, 1, 79, 0
2, 13040, Note_on_c, 1, 48, 127
2, 13040, Note_on_c, 1, 77, 127
2, 13040, Note_on_c, 1, 83, 127
2, 13040, Note_on_c, 1, 91, 127
2, 13080, Note_off_c, 1, 48, 0
2, 13080, Note_on_c, 1, 55, 127
2, 13080, Note_on_c, 1, 58, 127
2, 13080, Note_on_c, 1, 61, 127
2, 13080, Note_on_c, 1, 63, 127
2, 13080, Note_on_c, 1, 67, 127
2, 13080, Note_on_c, 1, 70, 127
2, 13080, Note_off_c, 1, 83, 0
2, 13080, Note_off_c, 1, 91, 0
2, 13120, Note_on_c, 1, 36, 127
2, 13120, Note_off_c, 1, 55, 0
2, 13120, Note_off_c, 1, 58, 0
2, 13120, Note_on_c, 1, 59, 127
2, 13120, Note_off_c, 1, 61, 0
2, 13120, Note_on_c, 1, 62, 127
2, 13120, Note_off_c, 1, 63, 0
2, 13120, Note_on_c, 1, 65, 127
2, 13120, Note_off_c, 1, 70, 0
2, 13120, Note_on_c, 1, 71, 127
2, 13120, Note_on_c, 1, 74, 127
2, 13120, Note_off_c, 1, 77, 0
2, 13120, Note_on_c, 1, 83, 127
2, 13160, Note_off_c, 1, 36, 0
2, 13160, Note_on_c, 1, 55, 127
2, 13160, Note_off_c, 1, 59, 0
2, 13160, Note_on_c, 1, 60, 127
2, 13160, Note_off_c, 1, 62, 0
2, 13160, Note_on_c, 1, 63, 127
2, 13160, Note_off_c, 1, 65, 0
2, 13160, Note_off_c, 1, 67, 0
2, 13160, Note_off_c, 1, 71, 0
2, 13160, Note_off_c, 1, 83, 0
2, 13200, Note_on_c, 1, 53, 127
2, 13200, Note_off_c, 1, 55, 0
2, 13200, Note_off_c, 1, 60, 0
2, 13200, Note_on_c, 1, 62, 127
2, 13200, Note_off_c, 1, 63, 0
2, 13200, Note_on_c, 1, 70, 127
2, 13200, Note_off_c, 1, 74, 0
2, 13200, Note_on_c, 1, 82, 127
2, 13240, Note_on_c, 1, 48, 127
2, 13240, Note_off_c, 1, 53, 0
2, 13240, Note_off_c, 1, 62, 0
2, 13240, Note_off_c, 1, 70, 0
2, 13240, Note_on_c, 1, 77, 127
2, 13240, Note_off_c, 1, 82, 0
2, 13240, Note_on_c, 1, 83, 127
2, 13240, Note_on_c, 1, 91, 127
2, 13280, Note_off_c, 1, 48, 0
2, 13280, Note_on_c, 1, 61, 127
2, 13280, Note_on_c, 1, 67, 127
2, 13280, Note_on_c, 1, 70, 127
2, 13280, Note_on_c, 1, 73, 127
2, 13280, Note_off_c, 1, 77, 0
2, 13280, Note_on_c, 1, 79, 127
2, 13280, Note_on_c, 1, 82, 127
2, 13280, Note_off_c, 1, 83, 0
2, 13280, Note_off_c, 1, 91, 0
2, 13320, Note_off_c, 1, 61, 0
2, 13320, Note_on_c, 1, 62, 127
2, 13320, Note_off_c, 1, 67, 0
2, 13320, Note_off_c, 1, 70, 0
2, 13320, Note_on_c, 1, 72, 127
2, 13320, Note_off_c, 1, 73, 0
2, 13320, Note_on_c, 1, 76, 127
2, 13320, Note_off_c, 1, 79, 0
2, 13320, Note_off_c, 1, 82, 0
2, 13320, Note_on_c, 1, 88, 127
2, 13360, Note_on_c, 1, 36, 127
2, 13360, Note_on_c, 1, 46, 127
2, 13360, Note_off_c, 1, 72, 0
2, 13360, Note_off_c, 1, 76, 0
2, 13360, Note_off_c, 1, 88, 0
2, 13400, Note_off_c, 1, 36, 0
2, 13400, Note_on_c, 1, 43, 127
2, 13400, Note_off_c, 1, 46, 0
2, 13400, Note_off_c, 1, 62, 0
2, 13440, Note_off_c, 1, 43, 0
2, 13440, Note_on_c, 1, 48, 127
2, 13440, Note_on_c, 1, 77, 127
2, 13440, Note_on_c, 1, 83, 127
2, 13440, Note_on_c, 1, 91, 127
2, 13520, Note_off_c, 1, 48, 0
2, 13520, Note_on_c, 1, 62, 127
2, 13560, Note_on_c, 1, 36, 127
2, 13560, Note_on_c, 1, 48, 127
2, 13560, Note_off_c, 1, 62, 0
2, 13560, Note_on_c, 1, 67, 127
2, 13560, Note_on_c, 1, 72, 127
2, 13560, Note_on_c, 1, 76, 127
2, 13560, Note_off_c, 1, 77, 0
2, 13560, Note_off_c, 1, 83, 0
2, 13560, Note_on_c, 1, 84, 127
2, 13560, Note_off_c, 1, 91, 0
2, 13600, Note_off_c, 1, 36, 0
2, 13600, Note_on_c, 1, 43, 127
2, 13600, Note_off_c, 1, 48, 0
2, 13600, Note_off_c, 1, 67, 0
2, 13600, Note_off_c, 1, 72, 0
2, 13600, Note_off_c, 1, 76, 0
2, 13600, Note_off_c, 1, 84, 0
2, 13640, Note_off_c, 1, 43, 0
2, 13640, Note_on_c, 1, 51, 127
2, 13640, Note_on_c, 1, 55, 127
2, 13640, Note_on_c, 1, 63, 127
2, 13640, Note_on_c, 1, 70, 127
2, 13640, Note_on_c, 1, 75, 127
2, 14560, Note_off_c, 1, 51, 0
2, 14560, Note_off_c, 1, 55, 0
2, 14560, Note_off_c, 1, 63, 0
2, 14560, Note_off_c, 1, 70, 0
2, 14560, Note_off_c, 1, 75, 0
2, 14640, Note_on_c, 1, 36, 127
2, 14640, Note_on_c, 1, 69, 127
2, 14640, Note_on_c, 1, 72, 127
2, 14800, Note_off_c, 1, 36, 0
2, 14800, Note_on_c, 1, 48, 127
2, 15000, Note_off_c, 1, 69, 0
2, 15040, Note_off_c, 1, 48, 0
2, 15040, Note_on_c, 1, 55, 127
2, 15040, Note_on_c, 1, 79, 127
2, 15200, Note_off_c, 1, 55, 0
2, 15200, Note_off_c, 1, 79, 0
2, 15240, Note_on_c, 1, 51, 127
2, 15240, Note_on_c, 1, 63, 127
2, 15400, Note_off_c, 1, 51, 0
2, 15400, Note_off_c, 1, 63, 0
2, 15440, Note_on_c, 1, 53, 127
2, 15440, Note_on_c, 1, 62, 127
2, 15600, Note_off_c, 1, 62, 0
2, 15600, Note_off_c, 1, 72, 0
2, 15640, Note_on_c, 1, 60, 127
2, 15640, Note_on_c, 1, 69, 127
2, 15640, Note_on_c, 1, 70, 127
2, 15800, Note_off_c, 1, 53, 0
2, 15800, Note_off_c, 1, 60, 0
2, 15800, Note_off_c, 1, 69, 0
2, 15800, Note_off_c, 1, 70, 0
2, 15840, Note_on_c, 1, 58, 127
2, 15840, Note_on_c, 1, 60, 127
2, 15840, Note_on_c, 1, 67, 127
2, 15840, Note_on_c, 1, 72, 127
2, 15880, Note_off_c, 1, 72, 0
2, 16040, Note_on_c, 1, 72, 127
2, 16160, Note_off_c, 1, 72, 0
2, 16200, Note_off_c, 1, 58, 0
2, 16200, Note_off_c, 1, 60, 0
2, 16240, Note_on_c, 1, 58, 127
2, 16240, Note_on_c, 1, 60, 127
2, 16240, Note_on_c, 1, 72, 127
2, 16360, Note_off_c, 1, 72, 0
2, 16400, Note_on_c, 1, 72, 127
2, 16560, Note_off_c, 1, 58, 0
2, 16560, Note_off_c, 1, 72, 0
2, 16600, Note_on_c, 1, 58, 127
2, 16760, Note_off_c, 1, 58, 0
2, 16760, Note_off_c, 1, 60, 0
2, 16760, Note_off_c, 1, 67, 0
2, 16800, Note_on_c, 1, 67, 127
2, 16840, Note_on_c, 1, 60, 127
2, 17000, Note_off_c, 1, 60, 0
2, 17000, Note_off_c, 1, 67, 0
2, 17040, Note_on_c, 1, 48, 127
2, 17040, Note_on_c, 1, 67, 127
2, 17040, Note_on_c, 1, 70, 127
2, 17200, Note_off_c, 1, 48, 0
2, 17400, Note_off_c, 1, 67, 0
2, 17400, Note_off_c, 1, 70, 0
2, 17440, Note_on_c, 1, 60, 127
2, 17440, Note_on_c, 1, 62, 127
2, 17440, Note_on_c, 1, 65, 127
2, 17440, Note_on_c, 1, 67, 127
2, 17600, Note_off_c, 1, 67, 0
2, 17640, Note_on_c, 1, 67, 127
2, 17760, Note_off_c, 1, 67, 0
2, 17800, Note_on_c, 1, 45, 127
2, 17800, Note_on_c, 1, 49, 127
2, 17800, Note_on_c, 1, 52, 127
2, 17800, Note_on_c, 1, 55, 127
2, 17800, Note_off_c, 1, 60, 0
2, 17800, Note_off_c, 1, 62, 0
2, 17800, Note_off_c, 1, 65, 0
2, 17840, Note_off_c, 1, 45, 0
2, 17840, Note_off_c, 1, 49, 0
2, 17840, Note_off_c, 1, 52, 0
2, 17840, Note_on_c, 1, 58, 127
2, 17840, Note_on_c, 1, 62, 127
2, 17840, Note_on_c, 1, 65, 127
2, 17840, Note_on_c, 1, 67, 127
2, 17960, Note_off_c, 1, 58, 0
2, 18160, Note_off_c, 1, 55, 0
2, 18160, Note_off_c, 1, 62, 0
2, 18160, Note_off_c, 1, 65, 0
2, 18200, Note_on_c, 1, 48, 127
2, 18360, Note_off_c, 1, 48, 0
2, 18360, Note_off_c, 1, 67, 0
2, 18400, Note_on_c, 1, 72, 127
2, 18600, Note_on_c, 1, 40, 127
2, 18600, Note_on_c, 1, 67, 127
2, 18760, Note_off_c, 1, 40, 0
2, 18760, Note_on_c, 1, 52, 127
2, 18760, Note_off_c, 1, 67, 0
2, 18800, Note_on_c, 1, 67, 127
2, 18920, Note_off_c, 1, 52, 0
2, 18920, Note_off_c, 1, 67, 0
2, 18920, Note_off_c, 1, 72, 0
2, 18960, Note_on_c, 1, 52, 127
2, 18960, Note_on_c, 1, 67, 127
2, 18960, Note_on_c, 1, 72, 127
2, 19000, Note_off_c, 1, 52, 0
2, 19000, Note_off_c, 1, 67, 0
2, 19040, Note_on_c, 1, 58, 127
2, 19040, Note_on_c, 1, 64, 127
2, 19200, Note_off_c, 1, 58, 0
2, 19400, Note_off_c, 1, 64, 0
2, 19400, Note_off_c, 1, 72, 0
2, 19440, Note_on_c, 1, 53, 127
2, 19440, Note_on_c, 1, 66, 127
2, 19440, Note_on_c, 1, 69, 127
2, 19440, Note_on_c, 1, 72, 127
2, 19440, Note_on_c, 1, 74, 127
2, 19640, Note_on_c, 1, 73, 127
2, 19640, Note_off_c, 1, 74, 0
2, 19800, Note_off_c, 1, 53, 0
2, 19800, Note_off_c, 1, 66, 0
2, 19800, Note_on_c, 1, 68, 127
2, 19800, Note_off_c, 1, 69, 0
2, 19800, Note_off_c, 1, 73, 0
2, 19840, Note_on_c, 1, 48, 127
2, 19840, Note_off_c, 1, 68, 0
2, 19840, Note_on_c, 1, 75, 127
2, 19840, Note_on_c, 1, 79, 127
2, 20200, Note_off_c, 1, 48, 0
2, 20200, Note_off_c, 1, 72, 0
2, 20200, Note_off_c, 1, 75, 0
2, 20200, Note_off_c, 1, 79, 0
2, 20240, Note_on_c, 1, 61, 127
2, 20240, Note_on_c, 1, 63, 127
2, 20240, Note_on_c, 1, 70, 127
2, 20240, Note_on_c, 1, 79, 127
2, 20600, Note_off_c, 1, 61, 0
2, 20600, Note_off_c, 1, 79, 0
2, 20640, Note_on_c, 1, 61, 127
2, 20640, Note_on_c, 1, 82, 127
2, 20800, Note_off_c, 1, 82, 0
2, 20840, Note_on_c, 1, 82, 127
2, 21000, Note_off_c, 1, 61, 0
2, 21000, Note_off_c, 1, 63, 0
2, 21000, Note_off_c, 1, 82, 0
2, 21040, Note_off_c, 1, 70, 0
2, 21080, Note_on_c, 1, 58, 127
2, 21080, Note_on_c, 1, 62, 127
2, 21080, Note_on_c, 1, 65, 127
2, 21080, Note_on_c, 1, 71, 127
2, 21440, Note_off_c, 1, 58, 0
2, 21440, Note_off_c, 1, 62, 0
2, 21440, Note_off_c, 1, 65, 0
2, 21440, Note_off_c, 1, 71, 0
2, 21480, Note_on_c, 1, 55, 127
2, 21480, Note_on_c, 1, 62, 127
2, 21480, Note_on_c, 1, 65, 127
2, 21480, Note_on_c, 1, 71, 127
2, 21640, Note_off_c, 1, 71, 0
2, 21680, Note_off_c, 1, 55, 0
2, 21680, Note_on_c, 1, 60, 127
2, 21680, Note_off_c, 1, 65, 0
2, 21680, Note_on_c, 1, 69, 127
2, 21680, Note_on_c, 1, 79, 127
2, 21760, Note_on_c, 1, 78, 127
2, 21760, Note_off_c, 1, 79, 0
2, 21800, Note_off_c, 1, 78, 0
2, 21800, Note_on_c, 1, 81, 127
2, 21840, Note_off_c, 1, 60, 0
2, 21840, Note_off_c, 1, 62, 0
2, 21840, Note_off_c, 1, 69, 0
2, 21840, Note_off_c, 1, 81, 0
2, 21880, Note_on_c, 1, 60, 127
2, 21880, Note_on_c, 1, 62, 127
2, 21880, Note_on_c, 1, 69, 127
2, 21880, Note_on_c, 1, 78, 127
2, 22640, Note_off_c, 1, 60, 0
2, 22640, Note_off_c, 1, 78, 0
2, 22680, Note_on_c, 1, 54, 127
2, 22680, Note_on_c, 1, 78, 127
2, 22840, Note_off_c, 1, 78, 0
2, 23040, Note_off_c, 1, 54, 0
2, 23040, Note_off_c, 1, 69, 0
2, 23080, Note_on_c, 1, 74, 127
2, 23160, Note_off_c, 1, 62, 0
2, 23160, Note_off_c, 1, 74, 0
2, 23200, Note_on_c, 1, 62, 127
2, 23200, Note_on_c, 1, 74, 127
2, 23280, Note_off_c, 1, 74, 0
2, 23320, Note_on_c, 1, 69, 127
2, 23480, Note_off_c, 1, 69, 0
2, 23520, Note_on_c, 1, 74, 127
2, 23680, Note_off_c, 1, 74, 0
2, 23720, Note_on_c, 1, 72, 127
2, 23880, Note_off_c, 1, 62, 0
2, 23880, Note_off_c, 1, 72, 0
2, 23920, Note_on_c, 1, 67, 127
2, 23920, Note_on_c, 1, 71, 127
2, 24080, Note_off_c, 1, 67, 0
2, 24080, Note_off_c, 1, 71, 0
2, 24120, Note_on_c, 1, 38, 127
2, 24120, Note_on_c, 1, 45, 127
2, 24120, Note_on_c, 1, 50, 127
2, 24120, Note_on_c, 1, 89, 127
2, 24680, Note_off_c, 1, 38, 0
2, 24680, Note_off_c, 1, 45, 0
2, 24680, Note_off_c, 1, 50, 0
2, 24680, Note_off_c, 1, 89, 0
2, 25120, Note_on_c, 1, 50, 127
2, 25120, Note_on_c, 1, 62, 127
2, 25120, Note_on_c, 1, 66, 127
2, 25120, Note_on_c, 1, 69, 127
2, 25120, Note_on_c, 1, 74, 127
2, 25320, Note_off_c, 1, 50, 0
2, 25320, Note_off_c, 1, 62, 0
2, 25320, Note_off_c, 1, 66, 0
2, 25320, Note_off_c, 1, 69, 0
2, 25320, Note_off_c, 1, 74, 0
2, 25360, Note_on_c, 1, 50, 127
2, 25360, Note_on_c, 1, 62, 127
2, 25360, Note_on_c, 1, 66, 127
2, 25360, Note_on_c, 1, 69, 127
2, 25360, Note_on_c, 1, 74, 127
2, 26320, Note_off_c, 1, 50, 0
2, 26320, Note_off_c, 1, 62, 0
2, 26320, Note_off_c, 1, 66, 0
2, 26320, Note_off_c, 1, 69, 0
2, 26320, Note_off_c, 1, 74, 0
2, 26360, Note_on_c, 1, 38, 127
2, 26360, Note_on_c, 1, 50, 127
2, 26360, Note_on_c, 1, 71, 127
2, 26360, Note_on_c, 1, 77, 127
2, 26360, Note_on_c, 1, 83, 127
2, 26920, Note_off_c, 1, 38, 0
2, 26920, Note_off_c, 1, 50, 0
2, 26920, Note_off_c, 1, 71, 0
2, 26920, Note_on_c, 1, 72, 127
2, 26920, Note_on_c, 1, 74, 127
2, 26920, Note_off_c, 1, 77, 0
2, 26920, Note_off_c, 1, 83, 0
2, 26920, Note_on_c, 1, 84, 127
2, 26960, Note_on_c, 1, 49, 127
2, 26960, Note_on_c, 1, 61, 127
2, 26960, Note_on_c, 1, 70, 127
2, 26960, Note_off_c, 1, 72, 0
2, 26960, Note_on_c, 1, 73, 127
2, 26960, Note_off_c, 1, 74, 0
2, 26960, Note_on_c, 1, 77, 127
2, 26960, Note_on_c, 1, 82, 127
2, 26960, Note_off_c, 1, 84, 0
2, 27120, Note_off_c, 1, 49, 0
2, 27120, Note_off_c, 1, 61, 0
2, 27120, Note_off_c, 1, 70, 0
2, 27120, Note_off_c, 1, 73, 0
2, 27120, Note_off_c, 1, 77, 0
2, 27120, Note_off_c, 1, 82, 0
2, 27160, Note_on_c, 1, 48, 127
2, 27160, Note_on_c, 1, 55, 127
2, 27160, Note_on_c, 1, 67, 127
2, 27160, Note_on_c, 1, 71, 127
2, 27160, Note_on_c, 1, 74, 127
2, 27160, Note_on_c, 1, 79, 127
2, 27440, Note_off_c, 1, 48, 0
2, 27440, Note_off_c, 1, 55, 0
2, 27440, Note_off_c, 1, 67, 0
2, 27440, Note_off_c, 1, 71, 0
2, 27440, Note_off_c, 1, 74, 0
2, 27440, Note_off_c, 1, 79, 0
2, 27480, Note_on_c, 1, 48, 127
2, 27480, Note_on_c, 1, 55, 127
2, 27480, Note_on_c, 1, 67, 127
2, 27480, Note_on_c, 1, 71, 127
2, 27480, Note_on_c, 1, 74, 127
2, 27480, Note_on_c, 1, 79, 127
2, 28360, Note_off_c, 1, 48, 0
2, 28360, Note_off_c, 1, 55, 0
2, 28360, Note_off_c, 1, 67, 0
2, 28360, Note_off_c, 1, 71, 0
2, 28360, Note_off_c, 1, 74, 0
2, 28360, Note_off_c, 1, 79, 0
2, 28400, Note_on_c, 1, 48, 127
2, 28400, Note_on_c, 1, 54, 127
2, 28400, Note_on_c, 1, 62, 127
2, 28400, Note_on_c, 1, 74, 127
2, 28760, Note_off_c, 1, 48, 0
2, 28760, Note_off_c, 1, 54, 0
2, 28760, Note_off_c, 1, 62, 0
2, 28760, Note_off_c, 1, 74, 0
2, 28800, Note_on_c, 1, 56, 127
2, 28800, Note_on_c, 1, 66, 127
2, 28800, Note_on_c, 1, 68, 127
2, 28800, Note_on_c, 1, 83, 127
2, 28800, Note_on_c, 1, 87, 127
2, 29080, Note_on_c, 1, 78, 127
2, 29080, Note_off_c, 1, 83, 0
2, 29080, Note_on_c, 1, 85, 127
2, 29080, Note_off_c, 1, 87, 0
2, 29120, Note_off_c, 1, 78, 0
2, 29120, Note_off_c, 1, 85, 0
2, 29200, Note_on_c, 1, 78, 127
2, 29200, Note_on_c, 1, 85, 127
2, 29560, Note_off_c, 1, 56, 0
2, 29560, Note_off_c, 1, 66, 0
2, 29560, Note_off_c, 1, 68, 0
2, 29560, Note_off_c, 1, 78, 0
2, 29560, Note_off_c, 1, 85, 0
2, 29640, Note_on_c, 1, 44, 127
2, 29640, Note_on_c, 1, 46, 127
2, 29640, Note_on_c, 1, 65, 127
2, 29640, Note_on_c, 1, 77, 127
2, 30440, Note_on_c, 1, 62, 127
2, 30440, Note_off_c, 1, 65, 0
2, 30440, Note_on_c, 1, 74, 127
2, 30440, Note_off_c, 1, 77, 0
2, 30600, Note_off_c, 1, 44, 0
2, 30600, Note_on_c, 1, 45, 127
2, 30600, Note_off_c, 1, 46, 0
2, 30600, Note_on_c, 1, 52, 127
2, 30600, Note_on_c, 1, 59, 127
2, 30600, Note_off_c, 1, 74, 0
2, 30640, Note_on_c, 1, 44, 127
2, 30640, Note_off_c, 1, 45, 0
2, 30640, Note_on_c, 1, 46, 127
2, 30640, Note_off_c, 1, 52, 0
2, 30640, Note_off_c, 1, 59, 0
2, 30640, Note_on_c, 1, 74, 127
2, 31000, Note_off_c, 1, 62, 0
2, 31000, Note_off_c, 1, 74, 0
2, 31040, Note_on_c, 1, 58, 127
2, 31040, Note_on_c, 1, 70, 127
2, 31080, Note_off_c, 1, 58, 0
2, 31080, Note_off_c, 1, 70, 0
2, 31600, Note_off_c, 1, 44, 0
2, 31600, Note_off_c, 1, 46, 0
2, 31680, Note_on_c, 1, 63, 127
2, 31680, Note_on_c, 1, 67, 127
2, 31680, Note_on_c, 1, 82, 127
2, 31680, Note_on_c, 1, 84, 127
2, 31720, Note_on_c, 1, 44, 127
2, 31720, Note_on_c, 1, 51, 127
2, 31720, Note_off_c, 1, 63, 0
2, 31720, Note_off_c, 1, 67, 0
2, 31720, Note_on_c, 1, 73, 127
2, 31720, Note_on_c, 1, 78, 127
2, 31720, Note_off_c, 1, 82, 0
2, 31720, Note_off_c, 1, 84, 0
2, 31760, Note_off_c, 1, 44, 0
2, 31760, Note_off_c, 1, 51, 0
2, 31760, Note_on_c, 1, 63, 127
2, 31760, Note_on_c, 1, 67, 127
2, 31760, Note_off_c, 1, 73, 0
2, 31760, Note_off_c, 1, 78, 0
2, 31760, Note_on_c, 1, 82, 127
2, 31760, Note_on_c, 1, 84, 127
2, 31840, Note_off_c, 1, 63, 0
2, 31840, Note_off_c, 1, 67, 0
2, 31840, Note_on_c, 1, 80, 127
2, 31840, Note_off_c, 1, 84, 0
2, 31880, Note_on_c, 1, 63, 127
2, 31880, Note_on_c, 1, 67, 127
2, 31880, Note_off_c, 1, 80, 0
2, 31880, Note_on_c, 1, 84, 127
2, 32000, Note_off_c, 1, 63, 0
2, 32000, Note_on_c, 1, 65, 127
2, 32000, Note_off_c, 1, 67, 0
2, 32000, Note_on_c, 1, 68, 127
2, 32040, Note_on_c, 1, 48, 127
2, 32040, Note_on_c, 1, 60, 127
2, 32040, Note_off_c, 1, 65, 0
2, 32040, Note_off_c, 1, 68, 0
2, 32040, Note_on_c, 1, 80, 127
2, 32040, Note_off_c, 1, 82, 0
2, 32040, Note_off_c, 1, 84, 0
2, 32080, Note_off_c, 1, 48, 0
2, 32080, Note_off_c, 1, 60, 0
2, 32080, Note_on_c, 1, 63, 127
2, 32080, Note_on_c, 1, 67, 127
2, 32080, Note_off_c, 1, 80, 0
2, 32080, Note_on_c, 1, 82, 127
2, 32080, Note_on_c, 1, 84, 127
2, 32240, Note_off_c, 1, 63, 0
2, 32240, Note_off_c, 1, 67, 0
2, 32280, Note_on_c, 1, 63, 127
2, 32280, Note_on_c, 1, 67, 127
2, 32440, Note_off_c, 1, 63, 0
2, 32440, Note_off_c, 1, 67, 0
2, 32480, Note_on_c, 1, 42, 127
2, 32480, Note_on_c, 1, 51, 127
2, 32480, Note_on_c, 1, 60, 127
2, 32480, Note_on_c, 1, 72, 127
2, 32480, Note_off_c, 1, 82, 0
2, 32480, Note_off_c, 1, 84, 0
2, 32840, Note_off_c, 1, 60, 0
2, 32880, Note_on_c, 1, 60, 127
2, 33240, Note_off_c, 1, 42, 0
2, 33240, Note_off_c, 1, 51, 0
2, 33240, Note_off_c, 1, 60, 0
2, 33240, Note_off_c, 1, 72, 0
2, 33280, Note_on_c, 1, 51, 127
2, 33280, Note_on_c, 1, 60, 127
2, 33280, Note_on_c, 1, 69, 127
2, 33280, Note_on_c, 1, 75, 127
2, 33880, Note_off_c, 1, 51, 0
2, 33880, Note_off_c, 1, 60, 0
2, 33880, Note_off_c, 1, 69, 0
2, 33880, Note_off_c, 1, 75, 0
2, 33920, Note_on_c, 1, 51, 127
2, 33920, Note_on_c, 1, 60, 127
2, 33920, Note_on_c, 1, 69, 127
2, 33920, Note_on_c, 1, 75, 127
2, 34880, Note_off_c, 1, 51, 0
2, 34880, Note_off_c, 1, 60, 0
2, 34880, Note_off_c, 1, 69, 0
2, 34880, Note_on_c, 1, 70, 127
2, 34880, Note_off_c, 1, 75, 0
2, 34920, Note_on_c, 1, 66, 127
2, 34920, Note_off_c, 1, 70, 0
2, 34920, Note_on_c, 1, 75, 127
2, 34920, Note_on_c, 1, 79, 127
2, 35640, Note_on_c, 1, 59, 127
2, 35640, Note_off_c, 1, 66, 0
2, 35640, Note_off_c, 1, 75, 0
2, 35640, Note_off_c, 1, 79, 0
2, 35680, Note_on_c, 1, 52, 127
2, 35680, Note_off_c, 1, 59, 0
2, 35680, Note_on_c, 1, 73, 127
2, 35680, Note_on_c, 1, 76, 127
2, 35960, Note_off_c, 1, 52, 0
2, 35960, Note_off_c, 1, 73, 0
2, 35960, Note_off_c, 1, 76, 0
2, 36000, Note_on_c, 1, 52, 127
2, 36000, Note_on_c, 1, 73, 127
2, 36000, Note_on_c, 1, 76, 127
2, 36080, Note_off_c, 1, 52, 0
2, 36120, Note_on_c, 1, 56, 127
2, 36480, Note_off_c, 1, 56, 0
2, 36480, Note_off_c, 1, 73, 0
2, 36480, Note_off_c, 1, 76, 0
2, 36520, Note_on_c, 1, 44, 127
2, 36520, Note_on_c, 1, 67, 127
2, 36520, Note_on_c, 1, 73, 127
2, 36880, Note_off_c, 1, 44, 0
2, 36920, Note_on_c, 1, 46, 127
2, 36920, Note_on_c, 1, 57, 127
2, 36920, Note_on_c, 1, 63, 127
2, 36920, Note_off_c, 1, 67, 0
2, 36920, Note_on_c, 1, 72, 127
2, 36920, Note_off_c, 1, 73, 0
2, 37680, Note_off_c, 1, 46, 0
2, 37680, Note_off_c, 1, 57, 0
2, 37680, Note_off_c, 1, 63, 0
2, 37680, Note_off_c, 1, 72, 0
2, 37720, Note_on_c, 1, 84, 127
2, 37720, Note_on_c, 1, 96, 127
2, 37720, Note_on_c, 1, 98, 127
2, 37800, Note_on_c, 1, 71, 127
2, 37800, Note_on_c, 1, 75, 127
2, 37800, Note_on_c, 1, 83, 127
2, 37800, Note_off_c, 1, 84, 0
2, 37800, Note_on_c, 1, 91, 127
2, 37800, Note_off_c, 1, 96, 0
2, 37800, Note_off_c, 1, 98, 0
2, 37800, Note_on_c, 1, 99, 127
2, 37800, Note_on_c, 1, 103, 127
2, 37840, Note_on_c, 1, 46, 127
2, 37840, Note_on_c, 1, 53, 127
2, 37840, Note_on_c, 1, 56, 127
2, 37840, Note_on_c, 1, 58, 127
2, 37840, Note_on_c, 1, 62, 127
2, 37840, Note_off_c, 1, 71, 0
2, 37840, Note_off_c, 1, 75, 0
2, 37840, Note_off_c, 1, 83, 0
2, 37840, Note_off_c, 1, 91, 0
2, 37840, Note_off_c, 1, 99, 0
2, 37840, Note_off_c, 1, 103, 0
2, 37880, Note_on_c, 1, 42, 127
2, 37880, Note_off_c, 1, 46, 0
2, 37880, Note_off_c, 1, 53, 0
2, 37880, Note_on_c, 1, 54, 127
2, 37880, Note_off_c, 1, 56, 0
2, 37880, Note_off_c, 1, 58, 0
2, 37880, Note_off_c, 1, 62, 0
2, 37880, Note_on_c, 1, 74, 127
2, 37880, Note_on_c, 1, 86, 127
2, 37880, Note_on_c, 1, 98, 127
2, 37920, Note_off_c, 1, 42, 0
2, 37920, Note_on_c, 1, 50, 127
2, 37920, Note_off_c, 1, 54, 0
2, 37920, Note_on_c, 1, 59, 127
2, 37920, Note_on_c, 1, 71, 127
2, 37920, Note_off_c, 1, 86, 0
2, 37920, Note_off_c, 1, 98, 0
2, 37960, Note_off_c, 1, 50, 0
2, 37960, Note_off_c, 1, 59, 0
2, 37960, Note_on_c, 1, 68, 127
2, 37960, Note_off_c, 1, 71, 0
2, 37960, Note_off_c, 1, 74, 0
2, 37960, Note_on_c, 1, 90, 127
2, 37960, Note_on_c, 1, 92, 127
2, 37960, Note_on_c, 1, 95, 127
2, 37960, Note_on_c, 1, 98, 127
2, 37960, Note_on_c, 1, 102, 127
2, 38000, Note_on_c, 1, 45, 127
2, 38000, Note_on_c, 1, 50, 127
2, 38000, Note_on_c, 1, 63, 127
2, 38000, Note_on_c, 1, 67, 127
2, 38000, Note_off_c, 1, 68, 0
2, 38000, Note_on_c, 1, 75, 127
2, 38000, Note_off_c, 1, 90, 0
2, 38000, Note_off_c, 1, 92, 0
2, 38000, Note_off_c, 1, 95, 0
2, 38000, Note_off_c, 1, 98, 0
2, 38000, Note_off_c, 1, 102, 0
2, 38040, Note_off_c, 1, 45, 0
2, 38040, Note_off_c, 1, 50, 0
2, 38040, Note_off_c, 1, 63, 0
2, 38040, Note_off_c, 1, 67, 0
2, 38040, Note_off_c, 1, 75, 0
2, 38080, Note_on_c, 1, 71, 127
2, 38080, Note_on_c, 1, 76, 127
2, 38080, Note_on_c, 1, 86, 127
2, 38120, Note_on_c, 1, 50, 127
2, 38120, Note_off_c, 1, 71, 0
2, 38120, Note_on_c, 1, 75, 127
2, 38120, Note_off_c, 1, 76, 0
2, 38120, Note_off_c, 1, 86, 0
2, 38160, Note_on_c, 1, 46, 127
2, 38160, Note_off_c, 1, 50, 0
2, 38160, Note_on_c, 1, 53, 127
2, 38160, Note_on_c, 1, 58, 127
2, 38160, Note_on_c, 1, 65, 127
2, 38160, Note_on_c, 1, 70, 127
2, 38160, Note_on_c, 1, 74, 127
2, 38160, Note_off_c, 1, 75, 0
2, 38920, Note_off_c, 1, 46, 0
2, 38920, Note_off_c, 1, 53, 0
2, 38920, Note_off_c, 1, 58, 0
2, 38920, Note_off_c, 1, 65, 0
2, 38920, Note_off_c, 1, 70, 0
2, 38920, Note_off_c, 1, 74, 0
2, 38960, Note_on_c, 1, 41, 127
2, 38960, Note_on_c, 1, 48, 127
2, 38960, Note_on_c, 1, 55, 127
2, 38960, Note_on_c, 1, 60, 127
2, 38960, Note_on_c, 1, 64, 127
2, 38960, Note_on_c, 1, 72, 127
2, 39320, Note_off_c, 1, 41, 0
2, 39320, Note_off_c, 1, 48, 0
2, 39320, Note_on_c, 1, 53, 127
2, 39320, Note_off_c, 1, 55, 0
2, 39320, Note_on_c, 1, 57, 127
2, 39320, Note_off_c, 1, 60, 0
2, 39320, Note_on_c, 1, 62, 127
2, 39320, Note_off_c, 1, 64, 0
2, 39320, Note_on_c, 1, 65, 127
2, 39320, Note_off_c, 1, 72, 0
2, 39320, Note_on_c, 1, 81, 127
2, 39320, Note_on_c, 1, 86, 127
2, 39360, Note_on_c, 1, 41, 127
2, 39360, Note_on_c, 1, 48, 127
2, 39360, Note_off_c, 1, 53, 0
2, 39360, Note_on_c, 1, 55, 127
2, 39360, Note_off_c, 1, 57, 0
2, 39360, Note_on_c, 1, 60, 127
2, 39360, Note_off_c, 1, 62, 0
2, 39360, Note_on_c, 1, 64, 127
2, 39360, Note_off_c, 1, 65, 0
2, 39360, Note_on_c, 1, 72, 127
2, 39360, Note_off_c, 1, 81, 0
2, 39360, Note_off_c, 1, 86, 0
2, 39720, Note_off_c, 1, 41, 0
2, 39720, Note_off_c, 1, 48, 0
2, 39720, Note_off_c, 1, 55, 0
2, 39720, Note_off_c, 1, 60, 0
2, 39720, Note_off_c, 1, 64, 0
2, 39720, Note_off_c, 1, 72, 0
2, 39760, Note_on_c, 1, 41, 127
2, 39760, Note_on_c, 1, 48, 127
2, 39760, Note_on_c, 1, 55, 127
2, 39760, Note_on_c, 1, 60, 127
2, 39760, Note_on_c, 1, 64, 127
2, 39760, Note_on_c, 1, 72, 127
2, 40080, Note_off_c, 1, 41, 0
2, 40080, Note_off_c, 1, 48, 0
2, 40080, Note_off_c, 1, 55, 0
2, 40080, Note_off_c, 1, 60, 0
2, 40080, Note_off_c, 1, 64, 0
2, 40080, Note_off_c, 1, 72, 0
2, 40120, Note_on_c, 1, 41, 127
2, 40120, Note_on_c, 1, 48, 127
2, 40120, Note_on_c, 1, 55, 127
2, 40120, Note_on_c, 1, 60, 127
2, 40120, Note_on_c, 1, 64, 127
2, 40120, Note_on_c, 1, 72, 127
2, 40160, Note_off_c, 1, 41, 0
2, 40160, Note_off_c, 1, 48, 0
2, 40160, Note_off_c, 1, 55, 0
2, 40160, Note_off_c, 1, 60, 0
2, 40160, Note_off_c, 1, 64, 0
2, 40160, Note_off_c, 1, 72, 0
2, 40200, Note_on_c, 1, 41, 127
2, 40200, Note_on_c, 1, 48, 127
2, 40200, Note_on_c, 1, 55, 127
2, 40200, Note_on_c, 1, 60, 127
2, 40200, Note_on_c, 1, 64, 127
2, 40200, Note_on_c, 1, 72, 127
2, 40960, Note_off_c, 1, 41, 0
2, 40960, Note_off_c, 1, 48, 0
2, 40960, Note_off_c, 1, 55, 0
2, 40960, Note_off_c, 1, 60, 0
2, 40960, Note_off_c, 1, 64, 0
2, 40960, Note_off_c, 1, 72, 0
2, 41000, Note_on_c, 1, 41, 127
2, 41000, Note_on_c, 1, 48, 127
2, 41000, Note_on_c, 1, 55, 127
2, 41000, Note_on_c, 1, 60, 127
2, 41000, Note_on_c, 1, 64, 127
2, 41000, Note_on_c, 1, 72, 127
2, 41720, Note_off_c, 1, 41, 0
2, 41720, Note_off_c, 1, 48, 0
2, 41720, Note_off_c, 1, 55, 0
2, 41720, Note_off_c, 1, 60, 0
2, 41720, Note_off_c, 1, 64, 0
2, 41720, Note_off_c, 1, 72, 0
2, 41760, Note_on_c, 1, 50, 127
2, 41760, Note_on_c, 1, 58, 127
2, 41760, Note_on_c, 1, 65, 127
2, 41760, Note_on_c, 1, 74, 127
2, 42120, Note_off_c, 1, 50, 0
2, 42120, Note_off_c, 1, 58, 0
2, 42120, Note_off_c, 1, 65, 0
2, 42120, Note_off_c, 1, 74, 0
2, 42200, Note_on_c, 1, 41, 127
2, 42200, Note_on_c, 1, 56, 127
2, 42200, Note_on_c, 1, 65, 127
2, 42560, Note_off_c, 1, 41, 0
2, 42560, Note_off_c, 1, 56, 0
2, 42560, Note_off_c, 1, 65, 0
2, 42600, Note_on_c, 1, 53, 127
2, 42600, Note_on_c, 1, 60, 127
2, 42600, Note_on_c, 1, 65, 127
2, 42600, Note_on_c, 1, 69, 127
2, 43760, Note_off_c, 1, 53, 0
2, 43760, Note_off_c, 1, 60, 0
2, 43760, Note_off_c, 1, 65, 0
2, 43760, Note_off_c, 1, 69, 0
2, 43800, Note_on_c, 1, 46, 127
2, 43800, Note_on_c, 1, 55, 127
2, 43800, Note_on_c, 1, 62, 127
2, 43800, Note_on_c, 1, 67, 127
2, 44160, Note_off_c, 1, 46, 0
2, 44160, Note_off_c, 1, 55, 0
2, 44160, Note_off_c, 1, 62, 0
2, 44160, Note_off_c, 1, 67, 0
2, 44240, Note_on_c, 1, 55, 127
2, 44240, Note_on_c, 1, 61, 127
2, 44240, Note_on_c, 1, 65, 127
2, 44240, Note_on_c, 1, 70, 127
2, 44560, Note_off_c, 1, 70, 0
2, 44600, Note_on_c, 1, 43, 127
2, 44600, Note_on_c, 1, 58, 127
2, 44600, Note_off_c, 1, 61, 0
2, 44600, Note_on_c, 1, 64, 127
2, 44600, Note_off_c, 1, 65, 0
2, 44960, Note_off_c, 1, 43, 0
2, 44960, Note_off_c, 1, 55, 0
2, 44960, Note_off_c, 1, 58, 0
2, 44960, Note_off_c, 1, 64, 0
2, 45000, Note_on_c, 1, 53, 127
2, 45000, Note_on_c, 1, 60, 127
2, 45000, Note_on_c, 1, 65, 127
2, 45000, Note_on_c, 1, 69, 127
2, 45360, Note_off_c, 1, 53, 0
2, 45360, Note_off_c, 1, 60, 0
2, 45360, Note_off_c, 1, 65, 0
2, 45360, Note_off_c, 1, 69, 0
2, 45400, Note_on_c, 1, 58, 127
2, 45400, Note_on_c, 1, 62, 127
2, 45400, Note_on_c, 1, 65, 127
2, 45400, Note_on_c, 1, 70, 127
2, 46160, Note_off_c, 1, 58, 0
2, 46160, Note_off_c, 1, 62, 0
2, 46160, Note_off_c, 1, 65, 0
2, 46160, Note_off_c, 1, 70, 0
2, 46200, Note_on_c, 1, 55, 127
2, 46200, Note_on_c, 1, 58, 127
2, 46200, Note_on_c, 1, 64, 127
2, 46200, Note_on_c, 1, 70, 127
2, 46200, Note_on_c, 1, 74, 127
2, 46320, Note_off_c, 1, 55, 0
2, 46320, Note_off_c, 1, 58, 0
2, 46320, Note_off_c, 1, 64, 0
2, 46320, Note_off_c, 1, 70, 0
2, 46320, Note_off_c, 1, 74, 0
2, 46360, Note_on_c, 1, 55, 127
2, 46360, Note_on_c, 1, 58, 127
2, 46360, Note_on_c, 1, 64, 127
2, 46360, Note_on_c, 1, 70, 127
2, 46360, Note_on_c, 1, 74, 127
2, 46480, Note_off_c, 1, 55, 0
2, 46480, Note_off_c, 1, 58, 0
2, 46480, Note_off_c, 1, 64, 0
2, 46520, Note_on_c, 1, 55, 127
2, 46520, Note_on_c, 1, 58, 127
2, 46520, Note_on_c, 1, 64, 127
2, 46600, Note_off_c, 1, 55, 0
2, 46600, Note_off_c, 1, 58, 0
2, 46600, Note_off_c, 1, 64, 0
2, 46600, Note_off_c, 1, 70, 0
2, 46600, Note_off_c, 1, 74, 0
2, 46640, Note_on_c, 1, 55, 127
2, 46640, Note_on_c, 1, 58, 127
2, 46640, Note_on_c, 1, 64, 127
2, 46640, Note_on_c, 1, 70, 127
2, 46640, Note_on_c, 1, 72, 127
2, 46800, Note_off_c, 1, 55, 0
2, 46800, Note_off_c, 1, 58, 0
2, 46800, Note_off_c, 1, 64, 0
2, 46840, Note_on_c, 1, 55, 127
2, 46840, Note_on_c, 1, 58, 127
2, 46840, Note_on_c, 1, 64, 127
2, 47000, Note_off_c, 1, 55, 0
2, 47000, Note_off_c, 1, 58, 0
2, 47000, Note_off_c, 1, 64, 0
2, 47000, Note_off_c, 1, 70, 0
2, 47000, Note_off_c, 1, 72, 0
2, 47040, Note_on_c, 1, 55, 127
2, 47040, Note_on_c, 1, 58, 127
2, 47040, Note_on_c, 1, 64, 127
2, 47040, Note_on_c, 1, 70, 127
2, 47040, Note_on_c, 1, 72, 127
2, 47200, Note_off_c, 1, 55, 0
2, 47200, Note_off_c, 1, 58, 0
2, 47200, Note_off_c, 1, 64, 0
2, 47240, Note_on_c, 1, 55, 127
2, 47240, Note_on_c, 1, 58, 127
2, 47240, Note_on_c, 1, 64, 127
2, 47400, Note_off_c, 1, 55, 0
2, 47400, Note_off_c, 1, 58, 0
2, 47400, Note_off_c, 1, 64, 0
2, 47400, Note_off_c, 1, 70, 0
2, 47400, Note_off_c, 1, 72, 0
2, 47440, Note_on_c, 1, 55, 127
2, 47440, Note_on_c, 1, 58, 127
2, 47440, Note_on_c, 1, 64, 127
2, 47440, Note_on_c, 1, 70, 127
2, 47440, Note_on_c, 1, 72, 127
2, 47600, Note_off_c, 1, 64, 0
2, 47600, Note_off_c, 1, 70, 0
2, 47600, Note_off_c, 1, 72, 0
2, 47640, Note_on_c, 1, 64, 127
2, 47640, Note_on_c, 1, 70, 127
2, 47640, Note_on_c, 1, 72, 127
2, 47760, Note_off_c, 1, 55, 0
2, 47760, Note_off_c, 1, 58, 0
2, 47760, Note_off_c, 1, 64, 0
2, 47800, Note_off_c, 1, 70, 0
2, 47800, Note_off_c, 1, 72, 0
2, 47840, Note_on_c, 1, 55, 127
2, 47840, Note_on_c, 1, 58, 127
2, 47840, Note_on_c, 1, 64, 127
2, 47840, Note_on_c, 1, 70, 127
2, 47840, Note_on_c, 1, 72, 127
2, 48000, Note_off_c, 1, 55, 0
2, 48000, Note_off_c, 1, 58, 0
2, 48000, Note_off_c, 1, 64, 0
2, 48040, Note_on_c, 1, 60, 127
2, 48040, Note_on_c, 1, 64, 127
2, 48200, Note_off_c, 1, 60, 0
2, 48200, Note_off_c, 1, 64, 0
2, 48200, Note_off_c, 1, 70, 0
2, 48200, Note_off_c, 1, 72, 0
2, 48240, Note_on_c, 1, 42, 127
2, 48240, Note_on_c, 1, 79, 127
2, 48240, Note_on_c, 1, 80, 127
2, 48280, Note_off_c, 1, 42, 0
2, 48280, Note_on_c, 1, 44, 127
2, 48280, Note_on_c, 1, 47, 127
2, 48280, Note_on_c, 1, 52, 127
2, 48280, Note_on_c, 1, 75, 127
2, 48280, Note_off_c, 1, 79, 0
2, 48280, Note_off_c, 1, 80, 0
2, 48320, Note_off_c, 1, 44, 0
2, 48320, Note_off_c, 1, 47, 0
2, 48320, Note_off_c, 1, 52, 0
2, 48320, Note_off_c, 1, 75, 0
2, 48360, Note_on_c, 1, 44, 127
2, 48360, Note_on_c, 1, 47, 127
2, 48360, Note_on_c, 1, 52, 127
2, 48360, Note_on_c, 1, 75, 127
2, 48400, Note_on_c, 1, 40, 127
2, 48400, Note_off_c, 1, 44, 0
2, 48400, Note_on_c, 1, 45, 127
2, 48400, Note_off_c, 1, 47, 0
2, 48400, Note_on_c, 1, 49, 127
2, 48400, Note_on_c, 1, 64, 127
2, 48400, Note_off_c, 1, 75, 0
2, 48400, Note_on_c, 1, 76, 127
2, 48440, Note_off_c, 1, 40, 0
2, 48440, Note_on_c, 1, 44, 127
2, 48440, Note_off_c, 1, 45, 0
2, 48440, Note_on_c, 1, 47, 127
2, 48440, Note_off_c, 1, 49, 0
2, 48440, Note_off_c, 1, 64, 0
2, 48440, Note_on_c, 1, 75, 127
2, 48440, Note_off_c, 1, 76, 0
2, 48640, Note_off_c, 1, 44, 0
2, 48640, Note_off_c, 1, 47, 0
2, 48640, Note_off_c, 1, 52, 0
2, 48640, Note_off_c, 1, 75, 0
2, 48680, Note_on_c, 1, 56, 127
2, 48680, Note_on_c, 1, 59, 127
2, 48680, Note_on_c, 1, 62, 127
2, 48680, Note_on_c, 1, 79, 127
2, 48840, Note_on_c, 1, 77, 127
2, 48840, Note_off_c, 1, 79, 0
2, 48880, Note_off_c, 1, 77, 0
2, 48880, Note_on_c, 1, 79, 127
2, 49040, Note_off_c, 1, 56, 0
2, 49040, Note_off_c, 1, 59, 0
2, 49040, Note_off_c, 1, 62, 0
2, 49040, Note_off_c, 1, 79, 0
2, 49080, Note_on_c, 1, 56, 127
2, 49080, Note_on_c, 1, 59, 127
2, 49080, Note_on_c, 1, 62, 127
2, 49080, Note_on_c, 1, 77, 127
2, 49440, Note_off_c, 1, 56, 0
2, 49440, Note_off_c, 1, 59, 0
2, 49440, Note_off_c, 1, 62, 0
2, 49440, Note_off_c, 1, 77, 0
2, 49480, Note_on_c, 1, 53, 127
2, 49480, Note_on_c, 1, 58, 127
2, 49480, Note_on_c, 1, 62, 127
2, 49480, Note_on_c, 1, 65, 127
2, 49480, Note_on_c, 1, 70, 127
2, 49480, Note_on_c, 1, 77, 127
2, 49840, Note_off_c, 1, 53, 0
2, 49840, Note_off_c, 1, 58, 0
2, 49840, Note_off_c, 1, 62, 0
2, 49840, Note_off_c, 1, 65, 0
2, 49840, Note_off_c, 1, 70, 0
2, 49840, Note_off_c, 1, 77, 0
2, 49880, Note_on_c, 1, 45, 127
2, 49880, Note_on_c, 1, 50, 127
2, 49880, Note_on_c, 1, 54, 127
2, 49880, Note_on_c, 1, 69, 127
2, 50200, Note_on_c, 1, 40, 127
2, 50200, Note_off_c, 1, 45, 0
2, 50200, Note_off_c, 1, 50, 0
2, 50200, Note_on_c, 1, 52, 127
2, 50200, Note_off_c, 1, 54, 0
2, 50200, Note_on_c, 1, 56, 127
2, 50200, Note_off_c, 1, 69, 0
2, 50200, Note_on_c, 1, 76, 127
2, 50200, Note_on_c, 1, 80, 127
2, 50200, Note_on_c, 1, 92, 127
2, 50240, Note_off_c, 1, 40, 0
2, 50240, Note_off_c, 1, 52, 0
2, 50240, Note_off_c, 1, 56, 0
2, 50240, Note_off_c, 1, 76, 0
2, 50240, Note_off_c, 1, 80, 0
2, 50240, Note_off_c, 1, 92, 0
2, 50320, Note_on_c, 1, 34, 127
2, 50320, Note_on_c, 1, 37, 127
2, 50320, Note_on_c, 1, 46, 127
2, 50320, Note_on_c, 1, 61, 127
2, 50680, Note_off_c, 1, 34, 0
2, 50680, Note_off_c, 1, 37, 0
2, 50680, Note_off_c, 1, 46, 0
2, 50680, Note_off_c, 1, 61, 0
2, 50720, Note_on_c, 1, 46, 127
2, 50720, Note_on_c, 1, 66, 127
2, 50720, Note_on_c, 1, 87, 127
2, 50720, Note_on_c, 1, 94, 127
2, 50720, Note_on_c, 1, 95, 127
2, 50760, Note_on_c, 1, 43, 127
2, 50760, Note_off_c, 1, 46, 0
2, 50760, Note_on_c, 1, 47, 127
2, 50760, Note_on_c, 1, 50, 127
2, 50760, Note_on_c, 1, 53, 127
2, 50760, Note_off_c, 1, 66, 0
2, 50760, Note_on_c, 1, 73, 127
2, 50760, Note_off_c, 1, 87, 0
2, 50760, Note_off_c, 1, 94, 0
2, 50760, Note_off_c, 1, 95, 0
2, 50800, Note_off_c, 1, 43, 0
2, 50800, Note_off_c, 1, 47, 0
2, 50800, Note_off_c, 1, 50, 0
2, 50800, Note_off_c, 1, 53, 0
2, 50800, Note_on_c, 1, 71, 127
2, 50800, Note_off_c, 1, 73, 0
2, 50800, Note_on_c, 1, 79, 127
2, 50800, Note_on_c, 1, 82, 127
2, 50800, Note_on_c, 1, 88, 127
2, 50800, Note_on_c, 1, 98, 127
2, 50840, Note_on_c, 1, 43, 127
2, 50840, Note_on_c, 1, 47, 127
2, 50840, Note_on_c, 1, 50, 127
2, 50840, Note_on_c, 1, 53, 127
2, 50840, Note_off_c, 1, 71, 0
2, 50840, Note_on_c, 1, 73, 127
2, 50840, Note_off_c, 1, 79, 0
2, 50840, Note_off_c, 1, 82, 0
2, 50840, Note_off_c, 1, 88, 0
2, 50840, Note_off_c, 1, 98, 0
2, 50920, Note_off_c, 1, 43, 0
2, 50920, Note_on_c, 1, 44, 127
2, 50920, Note_off_c, 1, 47, 0
2, 50920, Note_off_c, 1, 50, 0
2, 50920, Note_on_c, 1, 51, 127
2, 50920, Note_off_c, 1, 53, 0
2, 50920, Note_on_c, 1, 58, 127
2, 50920, Note_on_c, 1, 63, 127
2, 50960, Note_on_c, 1, 43, 127
2, 50960, Note_off_c, 1, 44, 0
2, 50960, Note_on_c, 1, 47, 127
2, 50960, Note_on_c, 1, 50, 127
2, 50960, Note_off_c, 1, 51, 0
2, 50960, Note_on_c, 1, 53, 127
2, 50960, Note_off_c, 1, 58, 0
2, 50960, Note_off_c, 1, 63, 0
2, 51040, Note_off_c, 1, 43, 0
2, 51040, Note_off_c, 1, 47, 0
2, 51040, Note_off_c, 1, 50, 0
2, 51040, Note_off_c, 1, 53, 0
2, 51040, Note_on_c, 1, 70, 127
2, 51080, Note_on_c, 1, 62, 127
2, 51080, Note_off_c, 1, 70, 0
2, 51080, Note_off_c, 1, 73, 0
2, 51120, Note_on_c, 1, 61, 127
2, 51120, Note_off_c, 1, 62, 0
2, 51120, Note_on_c, 1, 68, 127
2, 51120, Note_on_c, 1, 93, 127
2, 51160, Note_on_c, 1, 53, 127
2, 51160, Note_on_c, 1, 55, 127
2, 51160, Note_on_c, 1, 60, 127
2, 51160, Note_off_c, 1, 61, 0
2, 51160, Note_on_c, 1, 62, 127
2, 51160, Note_off_c, 1, 68, 0
2, 51160, Note_off_c, 1, 93, 0
2, 51200, Note_off_c, 1, 53, 0
2, 51200, Note_off_c, 1, 55, 0
2, 51200, Note_on_c, 1, 57, 127
2, 51200, Note_off_c, 1, 60, 0
2, 51200, Note_on_c, 1, 61, 127
2, 51200, Note_off_c, 1, 62, 0
2, 51200, Note_on_c, 1, 66, 127
2, 51200, Note_on_c, 1, 91, 127
2, 51240, Note_on_c, 1, 53, 127
2, 51240, Note_on_c, 1, 55, 127
2, 51240, Note_off_c, 1, 57, 0
2, 51240, Note_on_c, 1, 60, 127
2, 51240, Note_off_c, 1, 61, 0
2, 51240, Note_on_c, 1, 62, 127
2, 51240, Note_on_c, 1, 65, 127
2, 51240, Note_off_c, 1, 66, 0
2, 51240, Note_off_c, 1, 91, 0
2, 51280, Note_off_c, 1, 53, 0
2, 51280, Note_off_c, 1, 55, 0
2, 51280, Note_off_c, 1, 60, 0
2, 51280, Note_off_c, 1, 62, 0
2, 51280, Note_off_c, 1, 65, 0
2, 51280, Note_on_c, 1, 80, 127
2, 51280, Note_on_c, 1, 85, 127
2, 51280, Note_on_c, 1, 88, 127
2, 51280, Note_on_c, 1, 92, 127
2, 51320, Note_on_c, 1, 69, 127
2, 51320, Note_off_c, 1, 80, 0
2, 51320, Note_off_c, 1, 88, 0
2, 51320, Note_on_c, 1, 89, 127
2, 51320, Note_off_c, 1, 92, 0
2, 51320, Note_on_c, 1, 93, 127
2, 51360, Note_on_c, 1, 58, 127
2, 51360, Note_off_c, 1, 69, 0
2, 51360, Note_on_c, 1, 70, 127
2, 51360, Note_on_c, 1, 76, 127
2, 51360, Note_on_c, 1, 79, 127
2, 51360, Note_off_c, 1, 85, 0
2, 51360, Note_on_c, 1, 88, 127
2, 51360, Note_off_c, 1, 89, 0
2, 51360, Note_off_c, 1, 93, 0
2, 51400, Note_off_c, 1, 58, 0
2, 51400, Note_on_c, 1, 69, 127
2, 51400, Note_off_c, 1, 70, 0
2, 51400, Note_off_c, 1, 76, 0
2, 51400, Note_off_c, 1, 79, 0
2, 51400, Note_on_c, 1, 85, 127
2, 51400, Note_off_c, 1, 88, 0
2, 51400, Note_on_c, 1, 89, 127
2, 51400, Note_on_c, 1, 93, 127
2, 51440, Note_on_c, 1, 54, 127
2, 51440, Note_on_c, 1, 61, 127
2, 51440, Note_on_c, 1, 64, 127
2, 51440, Note_on_c, 1, 66, 127
2, 51440, Note_off_c, 1, 69, 0
2, 51440, Note_on_c, 1, 82, 127
2, 51440, Note_off_c, 1, 85, 0
2, 51440, Note_off_c, 1, 89, 0
2, 51440, Note_off_c, 1, 93, 0
2, 51480, Note_off_c, 1, 54, 0
2, 51480, Note_off_c, 1, 61, 0
2, 51480, Note_off_c, 1, 64, 0
2, 51480, Note_off_c, 1, 66, 0
2, 51480, Note_off_c, 1, 82, 0
2, 51520, Note_on_c, 1, 49, 127
2, 51520, Note_on_c, 1, 76, 127
2, 51520, Note_on_c, 1, 79, 127
2, 51520, Note_on_c, 1, 85, 127
2, 51520, Note_on_c, 1, 88, 127
2, 51880, Note_off_c, 1, 49, 0
2, 51880, Note_off_c, 1, 76, 0
2, 51880, Note_off_c, 1, 79, 0
2, 51880, Note_off_c, 1, 85, 0
2, 51880, Note_off_c, 1, 88, 0
2, 51920, Note_on_c, 1, 49, 127
2, 51920, Note_on_c, 1, 76, 127
2, 51920, Note_on_c, 1, 79, 127
2, 51920, Note_on_c, 1, 85, 127
2, 51920, Note_on_c, 1, 88, 127
2, 52280, Note_off_c, 1, 49, 0
2, 52280, Note_off_c, 1, 76, 0
2, 52280, Note_off_c, 1, 79, 0
2, 52280, Note_off_c, 1, 85, 0
2, 52280, Note_off_c, 1, 88, 0
2, 52360, Note_on_c, 1, 49, 127
2, 52360, Note_on_c, 1, 76, 127
2, 52360, Note_on_c, 1, 79, 127
2, 52360, Note_on_c, 1, 85, 127
2, 52360, Note_on_c, 1, 88, 127
2, 52720, Note_off_c, 1, 49, 0
2, 52720, Note_off_c, 1, 76, 0
2, 52720, Note_off_c, 1, 79, 0
2, 52720, Note_off_c, 1, 85, 0
2, 52720, Note_off_c, 1, 88, 0
2, 52760, Note_on_c, 1, 49, 127
2, 52760, Note_on_c, 1, 76, 127
2, 52760, Note_on_c, 1, 79, 127
2, 52760, Note_on_c, 1, 85, 127
2, 52760, Note_on_c, 1, 88, 127
2, 53120, Note_off_c, 1, 49, 0
2, 53120, Note_off_c, 1, 76, 0
2, 53120, Note_off_c, 1, 79, 0
2, 53120, Note_off_c, 1, 85, 0
2, 53120, Note_off_c, 1, 88, 0
2, 53160, Note_on_c, 1, 37, 127
2, 53160, Note_on_c, 1, 76, 127
2, 53160, Note_on_c, 1, 79, 127
2, 53160, Note_on_c, 1, 85, 127
2, 53160, Note_on_c, 1, 88, 127
2, 53320, Note_off_c, 1, 37, 0
2, 53360, Note_on_c, 1, 37, 127
2, 53520, Note_off_c, 1, 37, 0
2, 53520, Note_off_c, 1, 76, 0
2, 53520, Note_off_c, 1, 79, 0
2, 53520, Note_off_c, 1, 85, 0
2, 53520, Note_off_c, 1, 88, 0
2, 53560, Note_on_c, 1, 37, 127
2, 53560, Note_on_c, 1, 76, 127
2, 53560, Note_on_c, 1, 79, 127
2, 53560, Note_on_c, 1, 85, 127
2, 53560, Note_on_c, 1, 88, 127
2, 53920, Note_off_c, 1, 37, 0
2, 53920, Note_off_c, 1, 76, 0
2, 53920, Note_off_c, 1, 79, 0
2, 53920, Note_off_c, 1, 85, 0
2, 53920, Note_off_c, 1, 88, 0
2, 53960, Note_on_c, 1, 37, 127
2, 53960, Note_on_c, 1, 76, 127
2, 53960, Note_on_c, 1, 79, 127
2, 53960, Note_on_c, 1, 85, 127
2, 53960, Note_on_c, 1, 88, 127
2, 54320, Note_off_c, 1, 37, 0
2, 54320, Note_off_c, 1, 76, 0
2, 54320, Note_off_c, 1, 79, 0
2, 54320, Note_off_c, 1, 85, 0
2, 54320, Note_off_c, 1, 88, 0
2, 54360, Note_on_c, 1, 37, 127
2, 54360, Note_on_c, 1, 76, 127
2, 54360, Note_on_c, 1, 79, 127
2, 54360, Note_on_c, 1, 85, 127
2, 54360, Note_on_c, 1, 88, 127
2, 54520, Note_off_c, 1, 37, 0
2, 54560, Note_on_c, 1, 37, 127
2, 54720, Note_off_c, 1, 37, 0
2, 54720, Note_off_c, 1, 76, 0
2, 54720, Note_off_c, 1, 79, 0
2, 54720, Note_off_c, 1, 85, 0
2, 54720, Note_off_c, 1, 88, 0
2, 54800, Note_on_c, 1, 37, 127
2, 54800, Note_on_c, 1, 76, 127
2, 54800, Note_on_c, 1, 79, 127
2, 54800, Note_on_c, 1, 85, 127
2, 54800, Note_on_c, 1, 88, 127
2, 54960, Note_off_c, 1, 37, 0
2, 55000, Note_on_c, 1, 37, 127
2, 55160, Note_off_c, 1, 37, 0
2, 55200, Note_on_c, 1, 49, 127
2, 55360, Note_off_c, 1, 49, 0
2, 55560, Note_off_c, 1, 76, 0
2, 55560, Note_off_c, 1, 79, 0
2, 55560, Note_off_c, 1, 85, 0
2, 55560, Note_off_c, 1, 88, 0
2, 55600, Note_on_c, 1, 50, 127
2, 55600, Note_on_c, 1, 53, 127
2, 55600, Note_on_c, 1, 60, 127
2, 55600, Note_on_c, 1, 68, 127
2, 57000, Note_off_c, 1, 50, 0
2, 57000, Note_off_c, 1, 53, 0
2, 57000, Note_off_c, 1, 60, 0
2, 57000, Note_off_c, 1, 68, 0
2, 57040, Note_on_c, 1, 50, 127
2, 57040, Note_on_c, 1, 53, 127
2, 57040, Note_on_c, 1, 60, 127
2, 57040, Note_on_c, 1, 68, 127
2, 57600, Note_off_c, 1, 50, 0
2, 57600, Note_on_c, 1, 51, 127
2, 57600, Note_off_c, 1, 53, 0
2, 57600, Note_off_c, 1, 68, 0
2, 57640, Note_on_c, 1, 57, 127
2, 58200, Note_off_c, 1, 57, 0
2, 58240, Note_on_c, 1, 53, 127
2, 58400, Note_off_c, 1, 53, 0
2, 58440, Note_on_c, 1, 57, 127
2, 59000, Note_off_c, 1, 57, 0
2, 59040, Note_on_c, 1, 53, 127
2, 59160, Note_off_c, 1, 51, 0
2, 59160, Note_off_c, 1, 53, 0
2, 59160, Note_off_c, 1, 60, 0
2, 59200, Note_on_c, 1, 51, 127
2, 59200, Note_on_c, 1, 53, 127
2, 59200, Note_on_c, 1, 60, 127
2, 59240, Note_off_c, 1, 53, 0
2, 59280, Note_on_c, 1, 53, 127
2, 59640, Note_off_c, 1, 53, 0
2, 59680, Note_on_c, 1, 57, 127
2, 60040, Note_off_c, 1, 51, 0
2, 60040, Note_off_c, 1, 57, 0
2, 60040, Note_off_c, 1, 60, 0
2, 60080, Note_on_c, 1, 50, 127
2, 60080, Note_on_c, 1, 58, 127
2, 60080, Note_on_c, 1, 65, 127
2, 60440, Note_off_c, 1, 58, 0
2, 60480, Note_on_c, 1, 53, 127
2, 61240, Note_off_c, 1, 53, 0
2, 61280, Note_off_c, 1, 50, 0
2, 61280, Note_off_c, 1, 65, 0
2, 61320, Note_on_c, 1, 50, 127
2, 61320, Note_on_c, 1, 58, 127
2, 61320, Note_on_c, 1, 65, 127
2, 61680, Note_off_c, 1, 58, 0
2, 61720, Note_on_c, 1, 53, 127
2, 62080, Note_on_c, 1, 48, 127
2, 62080, Note_off_c, 1, 50, 0
2, 62080, Note_off_c, 1, 65, 0
2, 62120, Note_off_c, 1, 48, 0
2, 62120, Note_on_c, 1, 50, 127
2, 62120, Note_on_c, 1, 72, 127
2, 62280, Note_off_c, 1, 72, 0
2, 62320, Note_on_c, 1, 65, 127
2, 62320, Note_on_c, 1, 70, 127
2, 62480, Note_off_c, 1, 50, 0
2, 62480, Note_off_c, 1, 53, 0
2, 62480, Note_off_c, 1, 65, 0
2, 62480, Note_off_c, 1, 70, 0
2, 62520, Note_on_c, 1, 45, 127
2, 62520, Note_on_c, 1, 53, 127
2, 62520, Note_on_c, 1, 63, 127
2, 62520, Note_on_c, 1, 65, 127
2, 62520, Note_on_c, 1, 72, 127
2, 63280, Note_off_c, 1, 45, 0
2, 63280, Note_off_c, 1, 53, 0
2, 63280, Note_off_c, 1, 63, 0
2, 63280, Note_off_c, 1, 65, 0
2, 63280, Note_off_c, 1, 72, 0
2, 63320, Note_on_c, 1, 46, 127
2, 63320, Note_on_c, 1, 53, 127
2, 63320, Note_on_c, 1, 62, 127
2, 63320, Note_on_c, 1, 65, 127
2, 63320, Note_on_c, 1, 74, 127
2, 63560, Note_off_c, 1, 46, 0
2, 63560, Note_off_c, 1, 53, 0
2, 63560, Note_off_c, 1, 62, 0
2, 63560, Note_off_c, 1, 65, 0
2, 63560, Note_off_c, 1, 74, 0
2, 63600, Note_on_c, 1, 46, 127
2, 63600, Note_on_c, 1, 53, 127
2, 63600, Note_on_c, 1, 62, 127
2, 63600, Note_on_c, 1, 65, 127
2, 63600, Note_on_c, 1, 74, 127
2, 64120, Note_off_c, 1, 53, 0
2, 64120, Note_off_c, 1, 62, 0
2, 64120, Note_off_c, 1, 65, 0
2, 64120, Note_off_c, 1, 74, 0
2, 64160, Note_on_c, 1, 53, 127
2, 64160, Note_on_c, 1, 62, 127
2, 64160, Note_on_c, 1, 70, 127
2, 64520, Note_off_c, 1, 46, 0
2, 64520, Note_off_c, 1, 53, 0
2, 64520, Note_off_c, 1, 62, 0
2, 64520, Note_off_c, 1, 70, 0
2, 64560, Note_on_c, 1, 41, 127
2, 64560, Note_on_c, 1, 53, 127
2, 64560, Note_on_c, 1, 62, 127
2, 64560, Note_on_c, 1, 65, 127
2, 64560, Note_on_c, 1, 70, 127
2, 64640, Note_off_c, 1, 70, 0
2, 65320, Note_off_c, 1, 41, 0
2, 65320, Note_off_c, 1, 53, 0
2, 65320, Note_off_c, 1, 62, 0
2, 65320, Note_off_c, 1, 65, 0
2, 65360, Note_on_c, 1, 57, 127
2, 65360, Note_on_c, 1, 66, 127
2, 65360, Note_on_c, 1, 75, 127
2, 65760, Note_off_c, 1, 57, 0
2, 65760, Note_off_c, 1, 66, 0
2, 65760, Note_off_c, 1, 75, 0
2, 65800, Note_on_c, 1, 57, 127
2, 65800, Note_on_c, 1, 66, 127
2, 65800, Note_on_c, 1, 75, 127
2, 66160, Note_off_c, 1, 57, 0
2, 66160, Note_off_c, 1, 66, 0
2, 66160, Note_off_c, 1, 75, 0
2, 66200, Note_on_c, 1, 35, 127
2, 66200, Note_on_c, 1, 62, 127
2, 66200, Note_on_c, 1, 69, 127
2, 66200, Note_on_c, 1, 74, 127
2, 66200, Note_on_c, 1, 80, 127
2, 66280, Note_on_c, 1, 61, 127
2, 66280, Note_off_c, 1, 62, 0
2, 66360, Note_off_c, 1, 61, 0
2, 66400, Note_on_c, 1, 61, 127
2, 66400, Note_off_c, 1, 80, 0
2, 66440, Note_on_c, 1, 80, 127
2, 66480, Note_off_c, 1, 80, 0
2, 66520, Note_on_c, 1, 80, 127
2, 66560, Note_off_c, 1, 80, 0
2, 66600, Note_off_c, 1, 35, 0
2, 66600, Note_on_c, 1, 39, 127
2, 66600, Note_on_c, 1, 44, 127
2, 66600, Note_on_c, 1, 51, 127
2, 66600, Note_on_c, 1, 60, 127
2, 66600, Note_off_c, 1, 61, 0
2, 66600, Note_on_c, 1, 67, 127
2, 66600, Note_off_c, 1, 69, 0
2, 66600, Note_on_c, 1, 72, 127
2, 66600, Note_off_c, 1, 74, 0
2, 66960, Note_off_c, 1, 39, 0
2, 66960, Note_off_c, 1, 44, 0
2, 66960, Note_off_c, 1, 51, 0
2, 66960, Note_off_c, 1, 60, 0
2, 66960, Note_off_c, 1, 67, 0
2, 66960, Note_off_c, 1, 72, 0
2, 67000, Note_on_c, 1, 53, 127
2, 67000, Note_on_c, 1, 61, 127
2, 67000, Note_on_c, 1, 65, 127
2, 67000, Note_on_c, 1, 70, 127
2, 67000, Note_on_c, 1, 73, 127
2, 67000, Note_on_c, 1, 77, 127
2, 67800, Note_off_c, 1, 53, 0
2, 67800, Note_off_c, 1, 61, 0
2, 67800, Note_off_c, 1, 65, 0
2, 67800, Note_off_c, 1, 70, 0
2, 67800, Note_off_c, 1, 73, 0
2, 67800, Note_off_c, 1, 77, 0
2, 67840, Note_on_c, 1, 53, 127
2, 67840, Note_on_c, 1, 61, 127
2, 67840, Note_on_c, 1, 65, 127
2, 67840, Note_on_c, 1, 70, 127
2, 67840, Note_on_c, 1, 73, 127
2, 67840, Note_on_c, 1, 77, 127
2, 68160, Note_on_c, 1, 40, 127
2, 68160, Note_on_c, 1, 47, 127
2, 68160, Note_off_c, 1, 53, 0
2, 68160, Note_on_c, 1, 56, 127
2, 68160, Note_off_c, 1, 61, 0
2, 68160, Note_off_c, 1, 65, 0
2, 68160, Note_off_c, 1, 73, 0
2, 68160, Note_off_c, 1, 77, 0
2, 68160, Note_on_c, 1, 82, 127
2, 68200, Note_off_c, 1, 40, 0
2, 68200, Note_off_c, 1, 47, 0
2, 68200, Note_off_c, 1, 56, 0
2, 68200, Note_off_c, 1, 70, 0
2, 68200, Note_off_c, 1, 82, 0
2, 68240, Note_on_c, 1, 45, 127
2, 68240, Note_on_c, 1, 69, 127
2, 68240, Note_on_c, 1, 81, 127
2, 69400, Note_off_c, 1, 45, 0
2, 69440, Note_on_c, 1, 45, 127
2, 69800, Note_off_c, 1, 45, 0
2, 69840, Note_off_c, 1, 69, 0
2, 69840, Note_off_c, 1, 81, 0
2, 69880, Note_on_c, 1, 45, 127
2, 69880, Note_on_c, 1, 69, 127
2, 69880, Note_on_c, 1, 81, 127
2, 70200, Note_off_c, 1, 45, 0
2, 70200, Note_off_c, 1, 69, 0
2, 70200, Note_off_c, 1, 81, 0
2, 70280, Note_on_c, 1, 41, 127
2, 70280, Note_on_c, 1, 69, 127
2, 70280, Note_on_c, 1, 81, 127
2, 70640, Note_off_c, 1, 41, 0
2, 70640, Note_on_c, 1, 53, 127
2, 71040, Note_off_c, 1, 53, 0
2, 71040, Note_off_c, 1, 69, 0
2, 71040, Note_off_c, 1, 81, 0
2, 71080, Note_on_c, 1, 52, 127
2, 71080, Note_on_c, 1, 60, 127
2, 71080, Note_on_c, 1, 79, 127
2, 71320, Note_off_c, 1, 79, 0
2, 71360, Note_on_c, 1, 79, 127
2, 71440, Note_on_c, 1, 58, 127
2, 71440, Note_off_c, 1, 60, 0
2, 71440, Note_off_c, 1, 79, 0
2, 71480, Note_off_c, 1, 58, 0
2, 71480, Note_on_c, 1, 62, 127
2, 71480, Note_on_c, 1, 64, 127
2, 71480, Note_on_c, 1, 68, 127
2, 71480, Note_on_c, 1, 73, 127
2, 71880, Note_on_c, 1, 71, 127
2, 71880, Note_off_c, 1, 73, 0
2, 71920, Note_off_c, 1, 52, 0
2, 71920, Note_off_c, 1, 62, 0
2, 71920, Note_off_c, 1, 64, 0
2, 71920, Note_off_c, 1, 68, 0
2, 71920, Note_off_c, 1, 71, 0
2, 71960, Note_on_c, 1, 52, 127
2, 71960, Note_on_c, 1, 62, 127
2, 71960, Note_on_c, 1, 64, 127
2, 71960, Note_on_c, 1, 68, 127
2, 71960, Note_on_c, 1, 71, 127
2, 72320, Note_off_c, 1, 52, 0
2, 72320, Note_off_c, 1, 62, 0
2, 72320, Note_off_c, 1, 64, 0
2, 72320, Note_off_c, 1, 68, 0
2, 72320, Note_off_c, 1, 71, 0
2, 72720, Note_on_c, 1, 69, 127
2, 72720, Note_on_c, 1, 81, 127
2, 73920, Note_off_c, 1, 69, 0
2, 73920, Note_off_c, 1, 81, 0
2, 74000, Note_on_c, 1, 43, 127
2, 74000, Note_on_c, 1, 52, 127
2, 74000, Note_on_c, 1, 73, 127
2, 74000, Note_on_c, 1, 76, 127
2, 74000, Note_on_c, 1, 85, 127
2, 74720, Note_off_c, 1, 43, 0
2, 74720, Note_off_c, 1, 52, 0
2, 74720, Note_on_c, 1, 55, 127
2, 74720, Note_on_c, 1, 58, 127
2, 74720, Note_on_c, 1, 62, 127
2, 74720, Note_on_c, 1, 67, 127
2, 74720, Note_on_c, 1, 70, 127
2, 74720, Note_off_c, 1, 73, 0
2, 74720, Note_off_c, 1, 76, 0
2, 74720, Note_off_c, 1, 85, 0
2, 74760, Note_on_c, 1, 43, 127
2, 74760, Note_off_c, 1, 55, 0
2, 74760, Note_off_c, 1, 58, 0
2, 74760, Note_off_c, 1, 62, 0
2, 74760, Note_off_c, 1, 67, 0
2, 74760, Note_off_c, 1, 70, 0
2, 74800, Note_off_c, 1, 43, 0
2, 74800, Note_on_c, 1, 64, 127
2, 74800, Note_on_c, 1, 86, 127
2, 74800, Note_on_c, 1, 87, 127
2, 74800, Note_on_c, 1, 89, 127
2, 74800, Note_on_c, 1, 90, 127
2, 74840, Note_on_c, 1, 51, 127
2, 74840, Note_on_c, 1, 55, 127
2, 74840, Note_on_c, 1, 60, 127
2, 74840, Note_off_c, 1, 64, 0
2, 74840, Note_on_c, 1, 74, 127
2, 74840, Note_on_c, 1, 75, 127
2, 74840, Note_off_c, 1, 86, 0
2, 74840, Note_off_c, 1, 87, 0
2, 74840, Note_off_c, 1, 89, 0
2, 74840, Note_off_c, 1, 90, 0
2, 74880, Note_off_c, 1, 51, 0
2, 74880, Note_off_c, 1, 55, 0
2, 74880, Note_off_c, 1, 60, 0
2, 74880, Note_on_c, 1, 64, 127
2, 74880, Note_on_c, 1, 66, 127
2, 74880, Note_on_c, 1, 69, 127
2, 74880, Note_on_c, 1, 72, 127
2, 74880, Note_off_c, 1, 74, 0
2, 74880, Note_off_c, 1, 75, 0
2, 74880, Note_on_c, 1, 80, 127
2, 74920, Note_on_c, 1, 28, 127
2, 74920, Note_on_c, 1, 39, 127
2, 74920, Note_on_c, 1, 40, 127
2, 74920, Note_on_c, 1, 47, 127
2, 74920, Note_on_c, 1, 51, 127
2, 74920, Note_on_c, 1, 52, 127
2, 74920, Note_on_c, 1, 59, 127
2, 74920, Note_off_c, 1, 64, 0
2, 74920, Note_off_c, 1, 66, 0
2, 74920, Note_on_c, 1, 68, 127
2, 74920, Note_off_c, 1, 69, 0
2, 74920, Note_on_c, 1, 71, 127
2, 74920, Note_off_c, 1, 72, 0
2, 74920, Note_off_c, 1, 80, 0
2, 74960, Note_off_c, 1, 28, 0
2, 74960, Note_on_c, 1, 38, 127
2, 74960, Note_off_c, 1, 39, 0
2, 74960, Note_off_c, 1, 40, 0
2, 74960, Note_on_c, 1, 41, 127
2, 74960, Note_off_c, 1, 47, 0
2, 74960, Note_off_c, 1, 51, 0
2, 74960, Note_off_c, 1, 52, 0
2, 74960, Note_off_c, 1, 59, 0
2, 74960, Note_off_c, 1, 68, 0
2, 74960, Note_off_c, 1, 71, 0
2, 75000, Note_off_c, 1, 38, 0
2, 75000, Note_off_c, 1, 41, 0
2, 75000, Note_on_c, 1, 52, 127
2, 75000, Note_on_c, 1, 57, 127
2, 75000, Note_on_c, 1, 64, 127
2, 75000, Note_on_c, 1, 73, 127
2, 75000, Note_on_c, 1, 76, 127
2, 75160, Note_off_c, 1, 52, 0
2, 75160, Note_off_c, 1, 57, 0
2, 75160, Note_off_c, 1, 64, 0
2, 75160, Note_off_c, 1, 73, 0
2, 75160, Note_off_c, 1, 76, 0
2, 75200, Note_on_c, 1, 33, 127
2, 75560, Note_off_c, 1, 33, 0
2, 75600, Note_on_c, 1, 33, 127
2, 75600, Note_on_c, 1, 45, 127
2, 75600, Note_on_c, 1, 69, 127
2, 75960, Note_off_c, 1, 33, 0
2, 75960, Note_off_c, 1, 45, 0
2, 75960, Note_off_c, 1, 69, 0
2, 76040, Note_on_c, 1, 64, 127
2, 76400, Note_off_c, 1, 64, 0
2, 76440, Note_on_c, 1, 62, 127
2, 76800, Note_off_c, 1, 62, 0
2, 76840, Note_on_c, 1, 69, 127
2, 76840, Note_on_c, 1, 72, 127
2, 77200, Note_off_c, 1, 69, 0
2, 77200, Note_off_c, 1, 72, 0
2, 77240, Note_on_c, 1, 74, 127
2, 77920, Note_off_c, 1, 74, 0
2, 77960, Note_on_c, 1, 74, 127
2, 78080, Note_on_c, 1, 45, 127
2, 78440, Note_off_c, 1, 45, 0
2, 78440, Note_off_c, 1, 74, 0
2, 78480, Note_on_c, 1, 65, 127
2, 78880, Note_on_c, 1, 67, 127
2, 79200, Note_off_c, 1, 65, 0
2, 79240, Note_off_c, 1, 67, 0
2, 79280, Note_on_c, 1, 36, 127
2, 79280, Note_on_c, 1, 76, 127
2, 79640, Note_off_c, 1, 36, 0
2, 79680, Note_on_c, 1, 45, 127
2, 79960, Note_off_c, 1, 45, 0
2, 79960, Note_off_c, 1, 76, 0
2, 80000, Note_on_c, 1, 45, 127
2, 80000, Note_on_c, 1, 76, 127
2, 80080, Note_off_c, 1, 45, 0
2, 80120, Note_on_c, 1, 40, 127
2, 80480, Note_off_c, 1, 40, 0
2, 80480, Note_off_c, 1, 76, 0
2, 80520, Note_on_c, 1, 43, 127
2, 80520, Note_on_c, 1, 71, 127
2, 80880, Note_off_c, 1, 43, 0
2, 80920, Note_on_c, 1, 42, 127
2, 81280, Note_off_c, 1, 42, 0
2, 81320, Note_on_c, 1, 57, 127
2, 81680, Note_off_c, 1, 57, 0
2, 81720, Note_on_c, 1, 55, 127
2, 81720, Note_on_c, 1, 63, 127
2, 82000, Note_off_c, 1, 55, 0
2, 82000, Note_off_c, 1, 63, 0
2, 82000, Note_off_c, 1, 71, 0
2, 82040, Note_on_c, 1, 55, 127
2, 82040, Note_on_c, 1, 63, 127
2, 82040, Note_on_c, 1, 71, 127
2, 82960, Note_off_c, 1, 55, 0
2, 82960, Note_off_c, 1, 63, 0
2, 82960, Note_off_c, 1, 71, 0
2, 83000, Note_on_c, 1, 52, 127
2, 83000, Note_on_c, 1, 71, 127
2, 83360, Note_off_c, 1, 52, 0
2, 83400, Note_on_c, 1, 56, 127
2, 83400, Note_on_c, 1, 64, 127
2, 83400, Note_on_c, 1, 68, 127
2, 83760, Note_off_c, 1, 56, 0
2, 83760, Note_off_c, 1, 64, 0
2, 83760, Note_off_c, 1, 68, 0
2, 83760, Note_off_c, 1, 71, 0
2, 83800, Note_on_c, 1, 57, 127
2, 83800, Note_on_c, 1, 60, 127
2, 83800, Note_on_c, 1, 64, 127
2, 83800, Note_on_c, 1, 69, 127
2, 83800, Note_on_c, 1, 72, 127
2, 84160, Note_off_c, 1, 57, 0
2, 84160, Note_off_c, 1, 60, 0
2, 84160, Note_off_c, 1, 64, 0
2, 84160, Note_off_c, 1, 69, 0
2, 84200, Note_off_c, 1, 72, 0
2, 84240, Note_on_c, 1, 45, 127
2, 84240, Note_on_c, 1, 64, 127
2, 84240, Note_on_c, 1, 72, 127
2, 84600, Note_off_c, 1, 45, 0
2, 85000, Note_off_c, 1, 64, 0
2, 85040, Note_on_c, 1, 55, 127
2, 85040, Note_on_c, 1, 60, 127
2, 85040, Note_on_c, 1, 64, 127
2, 85040, Note_on_c, 1, 67, 127
2, 85400, Note_off_c, 1, 55, 0
2, 85400, Note_off_c, 1, 60, 0
2, 85400, Note_off_c, 1, 67, 0
2, 85440, Note_on_c, 1, 55, 127
2, 85440, Note_on_c, 1, 60, 127
2, 85440, Note_on_c, 1, 67, 127
2, 85800, Note_off_c, 1, 55, 0
2, 85800, Note_off_c, 1, 60, 0
2, 85800, Note_off_c, 1, 64, 0
2, 85800, Note_on_c, 1, 71, 127
2, 85800, Note_off_c, 1, 72, 0
2, 85840, Note_on_c, 1, 52, 127
2, 85840, Note_on_c, 1, 55, 127
2, 85840, Note_on_c, 1, 60, 127
2, 85840, Note_off_c, 1, 67, 0
2, 86160, Note_off_c, 1, 52, 0
2, 86160, Note_off_c, 1, 55, 0
2, 86160, Note_off_c, 1, 60, 0
2, 86160, Note_off_c, 1, 71, 0
2, 86200, Note_on_c, 1, 52, 127
2, 86200, Note_on_c, 1, 55, 127
2, 86200, Note_on_c, 1, 60, 127
2, 86200, Note_on_c, 1, 71, 127
2, 86240, Note_off_c, 1, 52, 0
2, 86240, Note_off_c, 1, 55, 0
2, 86240, Note_off_c, 1, 60, 0
2, 86240, Note_off_c, 1, 71, 0
2, 86280, Note_on_c, 1, 52, 127
2, 86280, Note_on_c, 1, 55, 127
2, 86280, Note_on_c, 1, 60, 127
2, 86280, Note_on_c, 1, 69, 127
2, 86640, Note_off_c, 1, 52, 0
2, 86640, Note_off_c, 1, 55, 0
2, 86640, Note_off_c, 1, 60, 0
2, 86680, Note_on_c, 1, 52, 127
2, 86680, Note_on_c, 1, 55, 127
2, 86680, Note_on_c, 1, 60, 127
2, 87040, Note_off_c, 1, 52, 0
2, 87040, Note_off_c, 1, 55, 0
2, 87040, Note_off_c, 1, 60, 0
2, 87080, Note_on_c, 1, 45, 127
2, 87080, Note_on_c, 1, 57, 127
2, 87440, Note_off_c, 1, 45, 0
2, 87440, Note_off_c, 1, 57, 0
2, 87480, Note_on_c, 1, 50, 127
2, 87480, Note_on_c, 1, 54, 127
2, 87480, Note_on_c, 1, 57, 127
2, 87480, Note_on_c, 1, 62, 127
2, 87840, Note_off_c, 1, 50, 0
2, 87840, Note_off_c, 1, 54, 0
2, 87840, Note_off_c, 1, 57, 0
2, 87840, Note_off_c, 1, 62, 0
2, 87840, Note_off_c, 1, 69, 0
2, 87880, Note_on_c, 1, 59, 127
2, 87880, Note_on_c, 1, 71, 127
2, 88040, Note_off_c, 1, 59, 0
2, 88040, Note_off_c, 1, 71, 0
2, 88080, Note_on_c, 1, 56, 127
2, 88080, Note_on_c, 1, 68, 127
2, 88240, Note_off_c, 1, 56, 0
2, 88240, Note_off_c, 1, 68, 0
2, 88320, Note_on_c, 1, 56, 127
2, 88320, Note_on_c, 1, 68, 127
2, 88680, Note_off_c, 1, 56, 0
2, 88680, Note_off_c, 1, 68, 0
2, 88720, Note_on_c, 1, 57, 127
2, 88720, Note_on_c, 1, 69, 127
2, 89080, Note_off_c, 1, 57, 0
2, 89080, Note_off_c, 1, 69, 0
2, 89120, Note_on_c, 1, 52, 127
2, 89120, Note_on_c, 1, 64, 127
2, 89480, Note_off_c, 1, 52, 0
2, 89480, Note_off_c, 1, 64, 0
2, 89520, Note_on_c, 1, 52, 127
2, 89520, Note_on_c, 1, 64, 127
2, 89880, Note_off_c, 1, 52, 0
2, 89880, Note_off_c, 1, 64, 0
2, 89920, Note_on_c, 1, 45, 127
2, 89920, Note_on_c, 1, 57, 127
2, 89960, Note_off_c, 1, 45, 0
2, 89960, Note_on_c, 1, 52, 127
2, 89960, Note_off_c, 1, 57, 0
2, 89960, Note_on_c, 1, 64, 127
2, 90280, Note_off_c, 1, 52, 0
2, 90280, Note_off_c, 1, 64, 0
2, 90360, Note_on_c, 1, 53, 127
2, 90360, Note_on_c, 1, 65, 127
2, 90720, Note_off_c, 1, 53, 0
2, 90720, Note_off_c, 1, 65, 0
2, 90760, Note_on_c, 1, 52, 127
2, 90760, Note_on_c, 1, 64, 127
2, 91120, Note_off_c, 1, 52, 0
2, 91120, Note_off_c, 1, 64, 0
2, 91160, Note_on_c, 1, 53, 127
2, 91160, Note_on_c, 1, 65, 127
2, 91320, Note_off_c, 1, 53, 0
2, 91320, Note_off_c, 1, 65, 0
2, 91560, Note_on_c, 1, 53, 127
2, 91560, Note_on_c, 1, 65, 127
2, 91920, Note_off_c, 1, 53, 0
2, 91920, Note_off_c, 1, 65, 0
2, 91960, Note_on_c, 1, 55, 127
2, 91960, Note_on_c, 1, 67, 127
2, 92480, Note_off_c, 1, 55, 0
2, 92480, Note_off_c, 1, 67, 0
2, 92520, Note_on_c, 1, 55, 127
2, 92520, Note_on_c, 1, 67, 127
2, 94400, Note_off_c, 1, 55, 0
2, 94400, Note_off_c, 1, 67, 0
2, 94440, Note_on_c, 1, 52, 127
2, 94440, Note_on_c, 1, 64, 127
2, 94680, Note_off_c, 1, 52, 0
2, 94680, Note_off_c, 1, 64, 0
2, 94720, Note_on_c, 1, 52, 127
2, 94720, Note_on_c, 1, 64, 127
2, 95240, Note_on_c, 1, 51, 127
2, 95240, Note_off_c, 1, 52, 0
2, 95240, Note_on_c, 1, 63, 127
2, 95240, Note_off_c, 1, 64, 0
2, 95640, Note_off_c, 1, 51, 0
2, 95640, Note_off_c, 1, 63, 0
2, 95680, Note_on_c, 1, 52, 127
2, 95680, Note_on_c, 1, 64, 127
2, 96320, Note_off_c, 1, 52, 0
2, 96320, Note_off_c, 1, 64, 0
2, 97120, Note_on_c, 1, 69, 127
2, 97120, Note_on_c, 1, 85, 127
2, 97680, Note_off_c, 1, 69, 0
2, 97680, Note_off_c, 1, 85, 0
2, 97720, Note_on_c, 1, 59, 127
2, 97720, Note_on_c, 1, 74, 127
2, 97720, Note_on_c, 1, 81, 127
2, 97920, Note_off_c, 1, 81, 0
2, 97960, Note_off_c, 1, 59, 0
2, 97960, Note_on_c, 1, 62, 127
2, 97960, Note_on_c, 1, 81, 127
2, 98480, Note_off_c, 1, 62, 0
2, 98480, Note_off_c, 1, 74, 0
2, 98480, Note_off_c, 1, 81, 0
2, 99080, Note_on_c, 1, 83, 127
2, 99080, Note_on_c, 1, 86, 127
2, 100200, Note_off_c, 1, 83, 0
2, 100200, Note_off_c, 1, 86, 0
2, 100240, Note_on_c, 1, 81, 127
2, 100240, Note_on_c, 1, 84, 127
2, 100800, Note_off_c, 1, 81, 0
2, 100800, Note_off_c, 1, 84, 0
2, 100840, Note_on_c, 1, 81, 127
2, 100840, Note_on_c, 1, 84, 127
2, 101600, Note_off_c, 1, 81, 0
2, 101600, Note_off_c, 1, 84, 0
2, 101640, Note_on_c, 1, 79, 127
2, 101640, Note_on_c, 1, 83, 127
2, 102160, Note_off_c, 1, 79, 0
2, 102160, Note_off_c, 1, 83, 0
2, 102240, Note_on_c, 1, 74, 127
2, 102240, Note_on_c, 1, 81, 127
2, 102600, Note_off_c, 1, 81, 0
2, 102640, Note_on_c, 1, 81, 127
2, 103000, Note_off_c, 1, 74, 0
2, 103000, Note_off_c, 1, 81, 0
2, 103080, Note_on_c, 1, 79, 127
2, 103080, Note_on_c, 1, 83, 127
2, 103800, Note_off_c, 1, 79, 0
2, 103800, Note_off_c, 1, 83, 0
2, 103880, Note_on_c, 1, 74, 127
2, 103880, Note_on_c, 1, 81, 127
2, 104240, Note_off_c, 1, 74, 0
2, 104240, Note_off_c, 1, 81, 0
2, 104280, Note_on_c, 1, 77, 127
2, 104280, Note_on_c, 1, 81, 127
2, 104640, Note_off_c, 1, 77, 0
2, 104680, Note_on_c, 1, 74, 127
2, 105040, Note_off_c, 1, 74, 0
2, 105040, Note_off_c, 1, 81, 0
2, 105120, Note_on_c, 1, 76, 127
2, 105120, Note_on_c, 1, 81, 127
2, 105480, Note_off_c, 1, 76, 0
2, 105520, Note_on_c, 1, 69, 127
2, 105680, Note_off_c, 1, 69, 0
2, 105720, Note_on_c, 1, 76, 127
2, 105840, Note_off_c, 1, 76, 0
2, 105840, Note_off_c, 1, 81, 0
2, 105920, Note_on_c, 1, 76, 127
2, 105920, Note_on_c, 1, 81, 127
2, 106280, Note_off_c, 1, 76, 0
2, 106280, Note_off_c, 1, 81, 0
2, 106320, Note_on_c, 1, 69, 127
2, 106320, Note_on_c, 1, 76, 127
2, 106320, Note_on_c, 1, 81, 127
2, 106480, Note_off_c, 1, 69, 0
2, 106880, Note_off_c, 1, 76, 0
2, 106880, Note_off_c, 1, 81, 0
2, 106920, Note_on_c, 1, 76, 127
2, 106920, Note_on_c, 1, 81, 127
2, 107120, Note_off_c, 1, 76, 0
2, 107120, Note_off_c, 1, 81, 0
2, 107160, Note_on_c, 1, 76, 127
2, 107160, Note_on_c, 1, 81, 127
2, 107480, Note_off_c, 1, 76, 0
2, 107480, Note_off_c, 1, 81, 0
2, 107560, Note_on_c, 1, 76, 127
2, 107560, Note_on_c, 1, 81, 127
2, 107920, Note_off_c, 1, 81, 0
2, 107960, Note_on_c, 1, 81, 127
2, 108080, Note_off_c, 1, 81, 0
2, 108160, Note_on_c, 1, 72, 127
2, 108320, Note_off_c, 1, 72, 0
2, 108320, Note_off_c, 1, 76, 0
2, 108360, Note_on_c, 1, 73, 127
2, 108360, Note_on_c, 1, 78, 127
2, 108680, Note_off_c, 1, 73, 0
2, 108720, Note_off_c, 1, 78, 0
2, 108760, Note_on_c, 1, 69, 127
2, 108760, Note_on_c, 1, 74, 127
2, 108760, Note_on_c, 1, 78, 127
2, 108920, Note_off_c, 1, 78, 0
2, 109040, Note_on_c, 1, 76, 127
2, 109080, Note_off_c, 1, 74, 0
2, 109080, Note_off_c, 1, 76, 0
2, 109120, Note_off_c, 1, 69, 0
2, 109160, Note_on_c, 1, 69, 127
2, 109160, Note_on_c, 1, 74, 127
2, 109360, Note_off_c, 1, 69, 0
2, 109360, Note_off_c, 1, 74, 0
2, 109400, Note_on_c, 1, 69, 127
2, 109400, Note_on_c, 1, 72, 127
2, 109560, Note_off_c, 1, 69, 0
2, 109560, Note_off_c, 1, 72, 0
2, 109600, Note_on_c, 1, 71, 127
2, 109600, Note_on_c, 1, 74, 127
2, 109920, Note_off_c, 1, 71, 0
2, 109920, Note_off_c, 1, 74, 0
2, 110000, Note_on_c, 1, 72, 127
2, 110000, Note_on_c, 1, 76, 127
2, 110360, Note_off_c, 1, 72, 0
2, 110360, Note_off_c, 1, 76, 0
2, 110400, Note_on_c, 1, 69, 127
2, 110400, Note_on_c, 1, 72, 127
2, 111120, Note_off_c, 1, 69, 0
2, 111120, Note_off_c, 1, 72, 0
2, 111240, Note_on_c, 1, 64, 127
2, 111240, Note_on_c, 1, 69, 127
2, 111560, Note_off_c, 1, 64, 0
2, 111560, Note_off_c, 1, 69, 0
2, 111640, Note_on_c, 1, 68, 127
2, 111640, Note_on_c, 1, 71, 127
2, 112000, Note_off_c, 1, 68, 0
2, 112000, Note_off_c, 1, 71, 0
2, 112040, Note_on_c, 1, 57, 127
2, 112400, Note_off_c, 1, 57, 0
2, 112440, Note_on_c, 1, 52, 127
2, 112440, Note_on_c, 1, 57, 127
2, 112440, Note_on_c, 1, 60, 127
2, 112440, Note_on_c, 1, 69, 127
2, 112800, Note_off_c, 1, 52, 0
2, 112800, Note_off_c, 1, 57, 0
2, 112800, Note_off_c, 1, 69, 0
2, 112840, Note_on_c, 1, 57, 127
2, 112840, Note_off_c, 1, 60, 0
2, 112840, Note_on_c, 1, 64, 127
2, 112840, Note_on_c, 1, 69, 127
2, 112840, Note_on_c, 1, 72, 127
2, 113240, Note_off_c, 1, 57, 0
2, 113240, Note_off_c, 1, 64, 0
2, 113240, Note_off_c, 1, 69, 0
2, 113240, Note_off_c, 1, 72, 0
2, 113280, Note_on_c, 1, 57, 127
2, 113280, Note_on_c, 1, 64, 127
2, 113280, Note_on_c, 1, 69, 127
2, 113280, Note_on_c, 1, 72, 127
2, 113640, Note_off_c, 1, 64, 0
2, 113640, Note_off_c, 1, 69, 0
2, 113640, Note_off_c, 1, 72, 0
2, 113680, Note_off_c, 1, 57, 0
2, 113720, Note_on_c, 1, 57, 127
2, 113720, Note_on_c, 1, 64, 127
2, 113720, Note_on_c, 1, 69, 127
2, 113720, Note_on_c, 1, 72, 127
2, 114480, Note_off_c, 1, 72, 0
2, 114520, Note_on_c, 1, 72, 127
2, 114880, Note_off_c, 1, 57, 0
2, 114880, Note_off_c, 1, 64, 0
2, 114880, Note_off_c, 1, 69, 0
2, 114880, Note_off_c, 1, 72, 0
2, 114920, Note_on_c, 1, 64, 127
2, 114920, Note_on_c, 1, 69, 127
2, 114920, Note_on_c, 1, 72, 127
2, 115320, Note_off_c, 1, 64, 0
2, 115320, Note_off_c, 1, 69, 0
2, 115320, Note_off_c, 1, 72, 0
2, 115360, Note_on_c, 1, 64, 127
2, 115360, Note_on_c, 1, 69, 127
2, 115360, Note_on_c, 1, 72, 127
2, 115520, Note_off_c, 1, 72, 0
2, 115520, Note_on_c, 1, 73, 127
2, 115560, Note_on_c, 1, 72, 127
2, 115560, Note_off_c, 1, 73, 0
2, 115720, Note_off_c, 1, 69, 0
2, 115720, Note_off_c, 1, 72, 0
2, 115760, Note_on_c, 1, 71, 127
2, 116120, Note_off_c, 1, 64, 0
2, 116120, Note_off_c, 1, 71, 0
2, 116160, Note_on_c, 1, 69, 127
2, 116160, Note_on_c, 1, 74, 127
2, 116760, Note_off_c, 1, 74, 0
2, 116800, Note_on_c, 1, 62, 127
2, 116800, Note_on_c, 1, 74, 127
2, 117320, Note_off_c, 1, 62, 0
2, 117320, Note_off_c, 1, 69, 0
2, 117320, Note_off_c, 1, 74, 0
2, 117440, Note_on_c, 1, 57, 127
2, 117440, Note_on_c, 1, 64, 127
2, 118160, Note_off_c, 1, 57, 0
2, 118160, Note_off_c, 1, 64, 0
2, 118240, Note_on_c, 1, 57, 127
2, 118240, Note_on_c, 1, 60, 127
2, 118240, Note_on_c, 1, 64, 127
2, 118960, Note_on_c, 1, 72, 127
2, 119000, Note_off_c, 1, 72, 0
2, 119400, Note_off_c, 1, 57, 0
2, 119400, Note_off_c, 1, 60, 0
2, 119400, Note_off_c, 1, 64, 0
2, 119520, Note_on_c, 1, 65, 127
2, 119520, Note_on_c, 1, 74, 127
2, 119840, Note_off_c, 1, 74, 0
2, 119880, Note_off_c, 1, 65, 0
2, 119920, Note_on_c, 1, 64, 127
2, 119920, Note_on_c, 1, 71, 127
2, 120000, Note_off_c, 1, 64, 0
2, 120000, Note_off_c, 1, 71, 0
2, 120040, End_track
3, 0, Start_track
3, 0, Title_t, "MIDI"
3, 1536, End_track
0, 0, End_of_file
