0, 0, Header, 1, 3, 192
1, 0, Start_track
1, 0, Time_signature, 4, 2, 24, 8
1, 0, Tempo, 500000
1, 120040, End_track
2, 0, Start_track
2, 0, Text_t, "random instrument: random person i dunno whatev"
2, 0, Title_t, "Track 1"
2, 0, Note_on_c, 1, 40, 127
2, 0, Note_on_c, 1, 48, 127
2, 0, Note_on_c, 1, 56, 127
2, 0, Note_on_c, 1, 60, 127
2, 40, Note_off_c, 1, 40, 0
2, 40, Note_off_c, 1, 48, 0
2, 40, Note_on_c, 1, 55, 127
2, 40, Note_off_c, 1, 56, 0
2, 40, Note_off_c, 1, 60, 0
2, 40, Note_on_c, 1, 72, 127
2, 40, Note_on_c, 1, 75, 127
2, 40, Note_on_c, 1, 79, 127
2, 40, Note_on_c, 1, 84, 127
2, 80, Note_off_c, 1, 55, 0
2, 80, Note_off_c, 1, 72, 0
2, 80, Note_off_c, 1, 75, 0
2, 80, Note_off_c, 1, 79, 0
2, 80, Note_off_c, 1, 84, 0
2, 120, Note_on_c, 1, 40, 127
2, 120, Note_on_c, 1, 48, 127
2, 120, Note_on_c, 1, 56, 127
2, 120, Note_on_c, 1, 60, 127
2, 200, Note_on_c, 1, 35, 127
2, 200, Note_on_c, 1, 39, 127
2, 200, Note_off_c, 1, 40, 0
2, 200, Note_on_c, 1, 47, 127
2, 200, Note_off_c, 1, 48, 0
2, 200, Note_on_c, 1, 50, 127
2, 200, Note_off_c, 1, 56, 0
2, 200, Note_off_c, 1, 60, 0
2, 240, Note_on_c, 1, 34, 127
2, 240, Note_off_c, 1, 35, 0
2, 240, Note_on_c, 1, 46, 127
2, 240, Note_off_c, 1, 47, 0
2, 240, Note_off_c, 1, 50, 0
2, 240, Note_on_c, 1, 73, 127
2, 240, Note_on_c, 1, 75, 127
2, 360, Note_on_c, 1, 80, 127
2, 400, Note_off_c, 1, 34, 0
2, 400, Note_on_c, 1, 35, 127
2, 400, Note_off_c, 1, 39, 0
2, 400, Note_on_c, 1, 40, 127
2, 400, Note_off_c, 1, 46, 0
2, 400, Note_on_c, 1, 47, 127
2, 400, Note_on_c, 1, 62, 127
2, 400, Note_off_c, 1, 73, 0
2, 400, Note_off_c, 1, 75, 0
2, 400, Note_off_c, 1, 80, 0
2, 440, Note_off_c, 1, 35, 0
2, 440, Note_off_c, 1, 40, 0
2, 440, Note_off_c, 1, 47, 0
2, 440, Note_off_c, 1, 62, 0
2, 440, Note_on_c, 1, 79, 127
2, 480, Note_on_c, 1, 76, 127
2, 480, Note_off_c, 1, 79, 0
2, 520, Note_off_c, 1, 76, 0
2, 560, Note_on_c, 1, 72, 127
2, 640, Note_off_c, 1, 72, 0
2, 680, Note_on_c, 1, 70, 127
2, 840, Note_off_c, 1, 70, 0
2, 880, Note_on_c, 1, 67, 127
2, 1000, Note_off_c, 1, 67, 0
2, 1040, Note_on_c, 1, 69, 127
2, 1160, Note_off_c, 1, 69, 0
2, 1200, Note_on_c, 1, 70, 127
2, 1360, Note_off_c, 1, 70, 0
2, 1400, Note_on_c, 1, 64, 127
2, 1520, Note_off_c, 1, 64, 0
2, 1560, Note_on_c, 1, 69, 127
2, 1720, Note_off_c, 1, 69, 0
2, 1760, Note_on_c, 1, 70, 127
2, 1880, Note_off_c, 1, 70, 0
2, 1920, Note_on_c, 1, 72, 127
2, 2040, Note_off_c, 1, 72, 0
2, 2080, Note_on_c, 1, 72, 127
2, 2120, Note_off_c, 1, 72, 0
2, 2160, Note_on_c, 1, 74, 127
2, 2280, Note_off_c, 1, 74, 0
2, 2320, Note_on_c, 1, 72, 127
2, 2480, Note_off_c, 1, 72, 0
2, 2520, Note_on_c, 1, 81, 127
2, 2640, Note_off_c, 1, 81, 0
2, 2680, Note_on_c, 1, 82, 127
2, 2840, Note_off_c, 1, 82, 0
2, 2880, Note_on_c, 1, 81, 127
2, 3000, Note_off_c, 1, 81, 0
2, 3040, Note_on_c, 1, 79, 127
2, 3160, Note_off_c, 1, 79, 0
2, 3200, Note_on_c, 1, 77, 127
2, 3360, Note_off_c, 1, 77, 0
2, 3400, Note_on_c, 1, 76, 127
2, 3520, Note_off_c, 1, 76, 0
2, 3560, Note_on_c, 1, 74, 127
2, 3720, Note_off_c, 1, 74, 0
2, 3760, Note_on_c, 1, 72, 127
2, 3920, Note_off_c, 1, 72, 0
2, 3960, Note_on_c, 1, 71, 127
2, 4080, Note_off_c, 1, 71, 0
2, 4120, Note_on_c, 1, 72, 127
2, 4240, Note_off_c, 1, 72, 0
2, 4280, Note_on_c, 1, 72, 127
2, 4320, Note_off_c, 1, 72, 0
2, 4360, Note_on_c, 1, 71, 127
2, 4480, Note_off_c, 1, 71, 0
2, 4520, Note_on_c, 1, 70, 127
2, 4680, Note_off_c, 1, 70, 0
2, 4720, Note_on_c, 1, 69, 127
2, 4840, Note_off_c, 1, 69, 0
2, 4880, Note_on_c, 1, 63, 127
2, 5040, Note_off_c, 1, 63, 0
2, 5080, Note_on_c, 1, 62, 127
2, 5560, Note_off_c, 1, 62, 0
2, 5600, Note_on_c, 1, 37, 127
2, 5600, Note_on_c, 1, 49, 127
2, 5600, Note_on_c, 1, 56, 127
2, 5760, Note_off_c, 1, 56, 0
2, 5760, Note_on_c, 1, 61, 127
2, 6280, Note_off_c, 1, 61, 0
2, 6320, Note_off_c, 1, 37, 0
2, 6320, Note_off_c, 1, 49, 0
2, 6360, Note_on_c, 1, 37, 127
2, 6360, Note_on_c, 1, 49, 127
2, 6360, Note_on_c, 1, 61, 127
2, 7040, Note_off_c, 1, 37, 0
2, 7040, Note_off_c, 1, 49, 0
2, 7040, Note_off_c, 1, 61, 0
2, 7080, Note_on_c, 1, 46, 127
2, 7080, Note_on_c, 1, 58, 127
2, 7080, Note_on_c, 1, 70, 127
2, 8160, Note_off_c, 1, 46, 0
2, 8160, Note_off_c, 1, 58, 0
2, 8160, Note_off_c, 1, 70, 0
2, 8240, Note_on_c, 1, 49, 127
2, 8240, Note_on_c, 1, 61, 127
2, 8240, Note_on_c, 1, 73, 127
2, 10120, Note_off_c, 1, 49, 0
2, 10120, Note_off_c, 1, 61, 0
2, 10120, Note_off_c, 1, 73, 0
2, 10160, Note_on_c, 1, 41, 127
2, 10160, Note_on_c, 1, 53, 127
2, 10160, Note_on_c, 1, 65, 127
2, 10280, Note_off_c, 1, 41, 0
2, 10320, Note_off_c, 1, 53, 0
2, 10320, Note_off_c, 1, 65, 0
2, 10360, Note_on_c, 1, 41, 127
2, 10360, Note_on_c, 1, 53, 127
2, 10360, Note_on_c, 1, 65, 127
2, 10560, Note_off_c, 1, 41, 0
2, 10560, Note_off_c, 1, 53, 0
2, 10560, Note_off_c, 1, 65, 0
2, 10600, Note_on_c, 1, 41, 127
2, 10600, Note_on_c, 1, 53, 127
2, 10600, Note_on_c, 1, 65, 127
2, 11680, Note_off_c, 1, 41, 0
2, 11680, Note_off_c, 1, 53, 0
2, 11680, Note_off_c, 1, 65, 0
2, 11720, Note_on_c, 1, 46, 127
2, 11720, Note_on_c, 1, 58, 127
2, 11720, Note_on_c, 1, 70, 127
2, 12240, Note_off_c, 1, 46, 0
2, 12240, Note_off_c, 1, 58, 0
2, 12240, Note_off_c, 1, 70, 0
2, 12280, Note_on_c, 1, 48, 127
2, 12280, Note_on_c, 1, 56, 127
2, 12280, Note_on_c, 1, 60, 127
2, 12280, Note_on_c, 1, 68, 127
2, 12480, Note_off_c, 1, 48, 0
2, 12480, Note_off_c, 1, 56, 0
2, 12480, Note_off_c, 1, 60, 0
2, 12480, Note_off_c, 1, 68, 0
2, 12520, Note_on_c, 1, 48, 127
2, 12520, Note_on_c, 1, 56, 127
2, 12520, Note_on_c, 1, 60, 127
2, 12520, Note_on_c, 1, 68, 127
2, 12840, Note_off_c, 1, 48, 0
2, 12840, Note_off_c, 1, 56, 0
2, 12840, Note_off_c, 1, 60, 0
2, 12840, Note_off_c, 1, 68, 0
2, 12880, Note_on_c, 1, 58, 127
2, 12880, Note_on_c, 1, 61, 127
2, 12880, Note_on_c, 1, 65, 127
2, 12880, Note_on_c, 1, 70, 127
2, 13440, Note_off_c, 1, 58, 0
2, 13440, Note_off_c, 1, 61, 0
2, 13440, Note_off_c, 1, 65, 0
2, 13440, Note_off_c, 1, 70, 0
2, 13480, Note_on_c, 1, 63, 127
2, 13480, Note_on_c, 1, 66, 127
2, 13480, Note_on_c, 1, 72, 127
2, 13480, Note_on_c, 1, 82, 127
2, 13840, Note_off_c, 1, 63, 0
2, 13840, Note_off_c, 1, 66, 0
2, 13840, Note_off_c, 1, 72, 0
2, 13840, Note_off_c, 1, 82, 0
2, 13880, Note_on_c, 1, 63, 127
2, 13880, Note_on_c, 1, 66, 127
2, 13880, Note_on_c, 1, 72, 127
2, 13880, Note_on_c, 1, 81, 127
2, 14520, Note_off_c, 1, 63, 0
2, 14520, Note_off_c, 1, 66, 0
2, 14520, Note_off_c, 1, 72, 0
2, 14520, Note_off_c, 1, 81, 0
2, 14560, Note_on_c, 1, 63, 127
2, 14560, Note_on_c, 1, 66, 127
2, 14560, Note_on_c, 1, 72, 127
2, 14560, Note_on_c, 1, 81, 127
2, 14600, Note_off_c, 1, 63, 0
2, 14600, Note_off_c, 1, 66, 0
2, 14600, Note_off_c, 1, 72, 0
2, 14600, Note_off_c, 1, 81, 0
2, 14640, Note_on_c, 1, 62, 127
2, 14640, Note_on_c, 1, 65, 127
2, 14640, Note_on_c, 1, 81, 127
2, 14800, Note_off_c, 1, 81, 0
2, 14840, Note_on_c, 1, 89, 127
2, 14960, Note_off_c, 1, 89, 0
2, 15000, Note_on_c, 1, 89, 127
2, 15160, Note_off_c, 1, 62, 0
2, 15160, Note_off_c, 1, 65, 0
2, 15160, Note_off_c, 1, 89, 0
2, 15200, Note_on_c, 1, 64, 127
2, 15200, Note_on_c, 1, 67, 127
2, 15200, Note_on_c, 1, 69, 127
2, 15200, Note_on_c, 1, 95, 127
2, 15240, Note_off_c, 1, 64, 0
2, 15240, Note_off_c, 1, 67, 0
2, 15240, Note_off_c, 1, 69, 0
2, 15240, Note_off_c, 1, 95, 0
2, 15280, Note_on_c, 1, 62, 127
2, 15280, Note_on_c, 1, 65, 127
2, 15280, Note_on_c, 1, 81, 127
2, 15280, Note_on_c, 1, 86, 127
2, 15280, Note_on_c, 1, 89, 127
2, 15360, Note_off_c, 1, 62, 0
2, 15360, Note_off_c, 1, 65, 0
2, 15360, Note_off_c, 1, 81, 0
2, 15360, Note_off_c, 1, 86, 0
2, 15360, Note_off_c, 1, 89, 0
2, 15400, Note_on_c, 1, 62, 127
2, 15400, Note_on_c, 1, 65, 127
2, 15400, Note_on_c, 1, 81, 127
2, 15400, Note_on_c, 1, 86, 127
2, 15400, Note_on_c, 1, 89, 127
2, 15640, Note_off_c, 1, 62, 0
2, 15640, Note_off_c, 1, 65, 0
2, 15640, Note_off_c, 1, 81, 0
2, 15640, Note_off_c, 1, 86, 0
2, 15640, Note_off_c, 1, 89, 0
2, 15680, Note_on_c, 1, 63, 127
2, 15680, Note_on_c, 1, 66, 127
2, 15680, Note_on_c, 1, 78, 127
2, 15680, Note_on_c, 1, 82, 127
2, 15880, Note_off_c, 1, 63, 0
2, 15880, Note_off_c, 1, 66, 0
2, 15880, Note_off_c, 1, 78, 0
2, 15880, Note_off_c, 1, 82, 0
2, 15920, Note_on_c, 1, 53, 127
2, 15920, Note_on_c, 1, 60, 127
2, 15920, Note_on_c, 1, 63, 127
2, 15920, Note_on_c, 1, 87, 127
2, 16160, Note_off_c, 1, 87, 0
2, 16200, Note_on_c, 1, 87, 127
2, 16280, Note_off_c, 1, 87, 0
2, 16320, Note_on_c, 1, 84, 127
2, 16400, Note_off_c, 1, 53, 0
2, 16400, Note_off_c, 1, 60, 0
2, 16400, Note_off_c, 1, 63, 0
2, 16400, Note_off_c, 1, 84, 0
2, 16480, Note_on_c, 1, 53, 127
2, 16480, Note_on_c, 1, 60, 127
2, 16480, Note_on_c, 1, 63, 127
2, 16480, Note_on_c, 1, 75, 127
2, 16720, Note_off_c, 1, 53, 0
2, 16720, Note_off_c, 1, 60, 0
2, 16720, Note_off_c, 1, 63, 0
2, 16720, Note_off_c, 1, 75, 0
2, 16760, Note_on_c, 1, 53, 127
2, 16760, Note_on_c, 1, 60, 127
2, 16760, Note_on_c, 1, 63, 127
2, 16760, Note_on_c, 1, 75, 127
2, 16960, Note_off_c, 1, 53, 0
2, 16960, Note_off_c, 1, 60, 0
2, 16960, Note_off_c, 1, 63, 0
2, 16960, Note_off_c, 1, 75, 0
2, 17000, Note_on_c, 1, 53, 127
2, 17000, Note_on_c, 1, 60, 127
2, 17000, Note_on_c, 1, 63, 127
2, 17000, Note_on_c, 1, 75, 127
2, 17200, Note_off_c, 1, 53, 0
2, 17200, Note_off_c, 1, 60, 0
2, 17200, Note_off_c, 1, 63, 0
2, 17200, Note_off_c, 1, 75, 0
2, 17240, Note_on_c, 1, 46, 127
2, 17240, Note_on_c, 1, 62, 127
2, 17240, Note_on_c, 1, 68, 127
2, 17240, Note_on_c, 1, 70, 127
2, 18000, Note_off_c, 1, 46, 0
2, 18000, Note_off_c, 1, 62, 0
2, 18000, Note_off_c, 1, 68, 0
2, 18000, Note_off_c, 1, 70, 0
2, 19840, Note_on_c, 1, 36, 127
2, 19840, Note_on_c, 1, 48, 127
2, 20760, Note_off_c, 1, 36, 0
2, 20760, Note_off_c, 1, 48, 0
2, 20800, Note_on_c, 1, 36, 127
2, 20800, Note_on_c, 1, 48, 127
2, 21280, Note_off_c, 1, 36, 0
2, 21280, Note_off_c, 1, 48, 0
2, 21320, Note_on_c, 1, 36, 127
2, 21320, Note_on_c, 1, 48, 127
2, 21520, Note_off_c, 1, 36, 0
2, 21520, Note_off_c, 1, 48, 0
2, 21640, Note_on_c, 1, 36, 127
2, 21640, Note_on_c, 1, 48, 127
2, 21840, Note_off_c, 1, 36, 0
2, 21840, Note_off_c, 1, 48, 0
2, 23560, Note_on_c, 1, 39, 127
2, 23560, Note_on_c, 1, 51, 127
2, 23560, Note_on_c, 1, 63, 127
2, 24320, Note_off_c, 1, 39, 0
2, 24320, Note_off_c, 1, 51, 0
2, 24320, Note_off_c, 1, 63, 0
2, 24360, Note_on_c, 1, 39, 127
2, 24360, Note_on_c, 1, 51, 127
2, 24360, Note_on_c, 1, 63, 127
2, 25960, Note_off_c, 1, 39, 0
2, 25960, Note_off_c, 1, 51, 0
2, 25960, Note_off_c, 1, 63, 0
2, 26040, Note_on_c, 1, 31, 127
2, 26040, Note_on_c, 1, 43, 127
2, 26040, Note_on_c, 1, 55, 127
2, 26840, Note_off_c, 1, 31, 0
2, 26840, Note_off_c, 1, 43, 0
2, 26840, Note_off_c, 1, 55, 0
2, 30640, Note_on_c, 1, 43, 127
2, 31480, Note_off_c, 1, 43, 0
2, 34840, Note_on_c, 1, 45, 127
2, 34840, Note_on_c, 1, 57, 127
2, 34840, Note_on_c, 1, 73, 127
2, 34840, Note_on_c, 1, 79, 127
2, 35880, Note_off_c, 1, 45, 0
2, 35880, Note_off_c, 1, 57, 0
2, 35880, Note_off_c, 1, 73, 0
2, 35880, Note_off_c, 1, 79, 0
2, 36040, Note_on_c, 1, 45, 127
2, 36240, Note_off_c, 1, 45, 0
2, 36600, Note_on_c, 1, 59, 127
2, 36600, Note_on_c, 1, 74, 127
2, 36840, Note_off_c, 1, 59, 0
2, 36840, Note_off_c, 1, 74, 0
2, 36880, Note_on_c, 1, 59, 127
2, 36880, Note_on_c, 1, 74, 127
2, 37120, Note_off_c, 1, 59, 0
2, 37120, Note_off_c, 1, 74, 0
2, 37160, Note_on_c, 1, 57, 127
2, 37400, Note_off_c, 1, 57, 0
2, 37480, Note_on_c, 1, 50, 127
2, 37720, Note_off_c, 1, 50, 0
2, 37760, Note_on_c, 1, 57, 127
2, 38280, Note_off_c, 1, 57, 0
2, 38320, Note_on_c, 1, 64, 127
2, 38880, Note_off_c, 1, 64, 0
2, 38920, Note_on_c, 1, 69, 127
2, 39440, Note_off_c, 1, 69, 0
2, 39480, Note_on_c, 1, 50, 127
2, 39480, Note_on_c, 1, 71, 127
2, 39680, Note_off_c, 1, 50, 0
2, 39680, Note_off_c, 1, 71, 0
2, 39720, Note_on_c, 1, 50, 127
2, 39720, Note_on_c, 1, 71, 127
2, 40040, Note_off_c, 1, 71, 0
2, 40080, Note_off_c, 1, 50, 0
2, 40080, Note_on_c, 1, 54, 127
2, 40080, Note_on_c, 1, 69, 127
2, 40600, Note_off_c, 1, 54, 0
2, 40640, Note_on_c, 1, 50, 127
2, 41200, Note_off_c, 1, 69, 0
2, 41240, Note_on_c, 1, 66, 127
2, 41600, Note_off_c, 1, 50, 0
2, 41640, Note_off_c, 1, 66, 0
2, 41680, Note_on_c, 1, 66, 127
2, 41840, Note_off_c, 1, 66, 0
2, 41880, Note_on_c, 1, 50, 127
2, 42400, Note_off_c, 1, 50, 0
2, 42440, Note_on_c, 1, 74, 127
2, 43400, Note_off_c, 1, 74, 0
2, 47520, Note_on_c, 1, 48, 127
2, 47520, Note_on_c, 1, 60, 127
2, 47520, Note_on_c, 1, 78, 127
2, 47520, Note_on_c, 1, 81, 127
2, 47520, Note_on_c, 1, 87, 127
2, 47520, Note_on_c, 1, 90, 127
2, 48080, Note_off_c, 1, 48, 0
2, 48080, Note_off_c, 1, 60, 0
2, 48080, Note_off_c, 1, 78, 0
2, 48080, Note_off_c, 1, 81, 0
2, 48080, Note_off_c, 1, 87, 0
2, 48080, Note_off_c, 1, 90, 0
2, 48720, Note_on_c, 1, 53, 127
2, 48720, Note_on_c, 1, 60, 127
2, 48720, Note_on_c, 1, 65, 127
2, 48720, Note_on_c, 1, 69, 127
2, 48720, Note_on_c, 1, 72, 127
2, 48720, Note_on_c, 1, 77, 127
2, 48720, Note_on_c, 1, 81, 127
2, 49000, Note_on_c, 1, 41, 127
2, 49760, Note_off_c, 1, 41, 0
2, 49760, Note_off_c, 1, 53, 0
2, 49760, Note_off_c, 1, 60, 0
2, 49760, Note_off_c, 1, 65, 0
2, 49760, Note_off_c, 1, 69, 0
2, 49760, Note_off_c, 1, 72, 0
2, 49760, Note_off_c, 1, 77, 0
2, 49760, Note_off_c, 1, 81, 0
2, 49800, Note_on_c, 1, 41, 127
2, 49800, Note_on_c, 1, 53, 127
2, 49800, Note_on_c, 1, 60, 127
2, 49800, Note_on_c, 1, 65, 127
2, 49800, Note_on_c, 1, 69, 127
2, 49800, Note_on_c, 1, 72, 127
2, 49800, Note_on_c, 1, 77, 127
2, 49800, Note_on_c, 1, 81, 127
2, 49880, Note_off_c, 1, 41, 0
2, 49880, Note_off_c, 1, 53, 0
2, 49880, Note_off_c, 1, 60, 0
2, 49880, Note_off_c, 1, 65, 0
2, 49880, Note_off_c, 1, 69, 0
2, 49880, Note_off_c, 1, 72, 0
2, 49880, Note_off_c, 1, 77, 0
2, 49880, Note_off_c, 1, 81, 0
2, 51360, Note_on_c, 1, 60, 127
2, 51360, Note_on_c, 1, 72, 127
2, 51720, Note_off_c, 1, 60, 0
2, 51720, Note_off_c, 1, 72, 0
2, 51760, Note_on_c, 1, 65, 127
2, 51760, Note_on_c, 1, 77, 127
2, 51880, Note_off_c, 1, 65, 0
2, 51880, Note_off_c, 1, 77, 0
2, 51920, Note_on_c, 1, 65, 127
2, 51920, Note_on_c, 1, 77, 127
2, 52480, Note_off_c, 1, 65, 0
2, 52480, Note_off_c, 1, 77, 0
2, 52560, Note_on_c, 1, 65, 127
2, 52560, Note_on_c, 1, 77, 127
2, 53120, Note_off_c, 1, 65, 0
2, 53120, Note_off_c, 1, 77, 0
2, 53160, Note_on_c, 1, 65, 127
2, 53160, Note_on_c, 1, 77, 127
2, 53680, Note_off_c, 1, 65, 0
2, 53680, Note_off_c, 1, 77, 0
2, 53720, Note_on_c, 1, 65, 127
2, 53720, Note_on_c, 1, 77, 127
2, 54240, Note_off_c, 1, 65, 0
2, 54240, Note_off_c, 1, 77, 0
2, 54280, Note_on_c, 1, 62, 127
2, 54280, Note_on_c, 1, 74, 127
2, 54600, Note_off_c, 1, 62, 0
2, 54600, Note_off_c, 1, 74, 0
2, 54640, Note_on_c, 1, 62, 127
2, 54640, Note_on_c, 1, 74, 127
2, 54840, Note_off_c, 1, 62, 0
2, 54840, Note_off_c, 1, 74, 0
2, 54880, Note_on_c, 1, 60, 127
2, 54880, Note_on_c, 1, 72, 127
2, 55400, Note_off_c, 1, 60, 0
2, 55400, Note_off_c, 1, 72, 0
2, 55440, Note_on_c, 1, 57, 127
2, 55440, Note_on_c, 1, 69, 127
2, 56520, Note_off_c, 1, 57, 0
2, 56520, Note_off_c, 1, 69, 0
2, 56560, Note_on_c, 1, 53, 127
2, 56560, Note_on_c, 1, 65, 127
2, 56920, Note_off_c, 1, 53, 0
2, 56920, Note_off_c, 1, 65, 0
2, 56960, Note_on_c, 1, 53, 127
2, 56960, Note_on_c, 1, 65, 127
2, 57120, Note_off_c, 1, 53, 0
2, 57120, Note_off_c, 1, 65, 0
2, 57160, Note_on_c, 1, 55, 127
2, 57160, Note_on_c, 1, 67, 127
2, 58760, Note_off_c, 1, 55, 0
2, 58760, Note_off_c, 1, 67, 0
2, 59160, Note_on_c, 1, 55, 127
2, 59160, Note_on_c, 1, 67, 127
2, 61480, Note_off_c, 1, 55, 0
2, 61480, Note_off_c, 1, 67, 0
2, 61560, Note_on_c, 1, 55, 127
2, 61560, Note_on_c, 1, 67, 127
2, 63880, Note_off_c, 1, 55, 0
2, 63880, Note_off_c, 1, 67, 0
2, 63920, Note_on_c, 1, 55, 127
2, 63920, Note_on_c, 1, 67, 127
2, 63960, Note_off_c, 1, 55, 0
2, 64000, Note_off_c, 1, 67, 0
2, 64040, Note_on_c, 1, 55, 127
2, 64040, Note_on_c, 1, 67, 127
2, 64520, Note_off_c, 1, 55, 0
2, 64520, Note_off_c, 1, 67, 0
2, 65640, Note_on_c, 1, 48, 127
2, 65640, Note_on_c, 1, 55, 127
2, 65640, Note_on_c, 1, 62, 127
2, 65640, Note_on_c, 1, 65, 127
2, 67200, Note_off_c, 1, 48, 0
2, 67200, Note_on_c, 1, 52, 127
2, 67200, Note_off_c, 1, 55, 0
2, 67200, Note_off_c, 1, 62, 0
2, 67200, Note_off_c, 1, 65, 0
2, 67240, Note_off_c, 1, 52, 0
2, 67280, Note_on_c, 1, 43, 127
2, 67280, Note_on_c, 1, 55, 127
2, 67280, Note_on_c, 1, 62, 127
2, 67280, Note_on_c, 1, 65, 127
2, 67280, Note_on_c, 1, 67, 127
2, 67280, Note_on_c, 1, 71, 127
2, 68440, Note_off_c, 1, 43, 0
2, 68440, Note_off_c, 1, 55, 0
2, 68440, Note_off_c, 1, 62, 0
2, 68440, Note_off_c, 1, 65, 0
2, 68440, Note_off_c, 1, 67, 0
2, 68440, Note_off_c, 1, 71, 0
2, 68480, Note_on_c, 1, 43, 127
2, 68480, Note_on_c, 1, 55, 127
2, 68480, Note_on_c, 1, 62, 127
2, 68480, Note_on_c, 1, 65, 127
2, 68480, Note_on_c, 1, 67, 127
2, 68480, Note_on_c, 1, 71, 127
2, 69280, Note_off_c, 1, 43, 0
2, 69280, Note_off_c, 1, 55, 0
2, 69280, Note_off_c, 1, 62, 0
2, 69280, Note_off_c, 1, 65, 0
2, 69280, Note_off_c, 1, 67, 0
2, 69280, Note_off_c, 1, 71, 0
2, 69320, Note_on_c, 1, 43, 127
2, 69320, Note_on_c, 1, 55, 127
2, 69320, Note_on_c, 1, 62, 127
2, 69320, Note_on_c, 1, 65, 127
2, 69320, Note_on_c, 1, 67, 127
2, 69320, Note_on_c, 1, 71, 127
2, 70080, Note_off_c, 1, 43, 0
2, 70080, Note_off_c, 1, 55, 0
2, 70080, Note_off_c, 1, 62, 0
2, 70080, Note_off_c, 1, 65, 0
2, 70080, Note_off_c, 1, 67, 0
2, 70080, Note_off_c, 1, 71, 0
2, 74720, Note_on_c, 1, 55, 127
2, 74720, Note_on_c, 1, 58, 127
2, 74720, Note_on_c, 1, 62, 127
2, 74720, Note_on_c, 1, 67, 127
2, 74720, Note_on_c, 1, 70, 127
2, 75040, Note_off_c, 1, 55, 0
2, 75040, Note_off_c, 1, 58, 0
2, 75040, Note_off_c, 1, 62, 0
2, 75040, Note_off_c, 1, 67, 0
2, 75040, Note_off_c, 1, 70, 0
2, 75080, Note_on_c, 1, 55, 127
2, 75080, Note_on_c, 1, 58, 127
2, 75080, Note_on_c, 1, 62, 127
2, 75080, Note_on_c, 1, 67, 127
2, 75080, Note_on_c, 1, 70, 127
2, 75880, Note_off_c, 1, 55, 0
2, 75880, Note_off_c, 1, 58, 0
2, 75880, Note_off_c, 1, 62, 0
2, 75880, Note_off_c, 1, 67, 0
2, 75880, Note_off_c, 1, 70, 0
2, 78120, Note_on_c, 1, 34, 127
2, 78120, Note_on_c, 1, 46, 127
2, 78120, Note_on_c, 1, 58, 127
2, 79320, Note_off_c, 1, 34, 0
2, 79320, Note_off_c, 1, 46, 0
2, 79320, Note_off_c, 1, 58, 0
2, 79360, Note_on_c, 1, 62, 127
2, 79800, Note_off_c, 1, 62, 0
2, 79840, Note_on_c, 1, 62, 127
2, 80000, Note_on_c, 1, 61, 127
2, 80000, Note_off_c, 1, 62, 0
2, 80200, Note_off_c, 1, 61, 0
2, 80240, Note_on_c, 1, 64, 127
2, 80840, Note_off_c, 1, 64, 0
2, 80840, Note_on_c, 1, 66, 127
2, 81040, Note_off_c, 1, 66, 0
2, 84720, Note_on_c, 1, 46, 127
2, 84720, Note_on_c, 1, 54, 127
2, 84720, Note_on_c, 1, 61, 127
2, 84720, Note_on_c, 1, 64, 127
2, 84720, Note_on_c, 1, 66, 127
2, 85280, Note_off_c, 1, 46, 0
2, 85280, Note_off_c, 1, 54, 0
2, 85280, Note_off_c, 1, 61, 0
2, 85280, Note_off_c, 1, 64, 0
2, 85280, Note_off_c, 1, 66, 0
2, 85320, Note_on_c, 1, 46, 127
2, 85320, Note_on_c, 1, 54, 127
2, 85320, Note_on_c, 1, 61, 127
2, 85320, Note_on_c, 1, 64, 127
2, 85320, Note_on_c, 1, 66, 127
2, 87800, Note_off_c, 1, 46, 0
2, 87800, Note_off_c, 1, 54, 0
2, 87800, Note_off_c, 1, 61, 0
2, 87800, Note_off_c, 1, 64, 0
2, 87800, Note_off_c, 1, 66, 0
2, 87840, Note_on_c, 1, 42, 127
2, 87840, Note_on_c, 1, 58, 127
2, 87840, Note_on_c, 1, 61, 127
2, 87840, Note_on_c, 1, 66, 127
2, 88240, Note_off_c, 1, 42, 0
2, 88240, Note_off_c, 1, 58, 0
2, 88240, Note_off_c, 1, 61, 0
2, 88240, Note_off_c, 1, 66, 0
2, 88280, Note_on_c, 1, 42, 127
2, 88280, Note_on_c, 1, 58, 127
2, 88280, Note_on_c, 1, 61, 127
2, 88280, Note_on_c, 1, 66, 127
2, 89800, Note_off_c, 1, 42, 0
2, 89800, Note_off_c, 1, 58, 0
2, 89800, Note_off_c, 1, 61, 0
2, 89800, Note_off_c, 1, 66, 0
2, 92680, Note_on_c, 1, 54, 127
2, 93240, Note_off_c, 1, 54, 0
2, 93280, Note_on_c, 1, 54, 127
2, 93800, Note_off_c, 1, 54, 0
2, 93880, Note_on_c, 1, 47, 127
2, 94440, Note_off_c, 1, 47, 0
2, 94480, Note_on_c, 1, 47, 127
2, 95040, Note_off_c, 1, 47, 0
2, 95080, Note_on_c, 1, 46, 127
2, 95640, Note_off_c, 1, 46, 0
2, 95680, Note_on_c, 1, 47, 127
2, 95880, Note_off_c, 1, 47, 0
2, 95920, Note_on_c, 1, 47, 127
2, 96280, Note_off_c, 1, 47, 0
2, 100240, Note_on_c, 1, 56, 127
2, 100240, Note_on_c, 1, 68, 127
2, 101400, Note_off_c, 1, 56, 0
2, 101400, Note_off_c, 1, 68, 0
2, 101440, Note_on_c, 1, 58, 127
2, 101440, Note_on_c, 1, 70, 127
2, 102240, Note_off_c, 1, 58, 0
2, 102240, Note_off_c, 1, 70, 0
2, 102280, Note_on_c, 1, 60, 127
2, 102280, Note_on_c, 1, 72, 127
2, 102760, Note_off_c, 1, 60, 0
2, 102760, Note_off_c, 1, 72, 0
2, 102800, Note_on_c, 1, 56, 127
2, 102800, Note_on_c, 1, 68, 127
2, 102920, Note_on_c, 1, 54, 127
2, 102920, Note_off_c, 1, 56, 0
2, 102920, Note_on_c, 1, 66, 127
2, 102920, Note_off_c, 1, 68, 0
2, 102960, Note_off_c, 1, 54, 0
2, 102960, Note_on_c, 1, 56, 127
2, 102960, Note_off_c, 1, 66, 0
2, 102960, Note_on_c, 1, 68, 127
2, 103040, Note_off_c, 1, 56, 0
2, 103040, Note_off_c, 1, 68, 0
2, 103080, Note_on_c, 1, 56, 127
2, 103080, Note_on_c, 1, 68, 127
2, 103280, Note_off_c, 1, 56, 0
2, 103280, Note_off_c, 1, 68, 0
2, 103360, Note_on_c, 1, 63, 127
2, 103360, Note_on_c, 1, 75, 127
2, 103800, Note_off_c, 1, 63, 0
2, 103800, Note_off_c, 1, 75, 0
2, 103840, Note_on_c, 1, 56, 127
2, 103840, Note_on_c, 1, 68, 127
2, 104320, Note_off_c, 1, 56, 0
2, 104320, Note_off_c, 1, 68, 0
2, 105560, Note_on_c, 1, 45, 127
2, 105560, Note_on_c, 1, 57, 127
2, 106120, Note_off_c, 1, 45, 0
2, 106120, Note_off_c, 1, 57, 0
2, 106200, Note_on_c, 1, 48, 127
2, 106200, Note_on_c, 1, 60, 127
2, 106360, Note_off_c, 1, 48, 0
2, 106360, Note_off_c, 1, 60, 0
2, 107360, Note_on_c, 1, 33, 127
2, 107360, Note_on_c, 1, 45, 127
2, 109680, Note_off_c, 1, 33, 0
2, 109680, Note_off_c, 1, 45, 0
2, 109720, Note_on_c, 1, 33, 127
2, 109720, Note_on_c, 1, 45, 127
2, 110160, Note_off_c, 1, 33, 0
2, 110160, Note_off_c, 1, 45, 0
2, 112200, Note_on_c, 1, 38, 127
2, 112200, Note_on_c, 1, 50, 127
2, 112960, Note_off_c, 1, 38, 0
2, 112960, Note_off_c, 1, 50, 0
2, 113080, Note_on_c, 1, 38, 127
2, 113080, Note_on_c, 1, 50, 127
2, 113320, Note_off_c, 1, 38, 0
2, 113320, Note_off_c, 1, 50, 0
2, 113480, Note_on_c, 1, 38, 127
2, 113480, Note_on_c, 1, 50, 127
2, 113600, Note_off_c, 1, 38, 0
2, 113600, Note_off_c, 1, 50, 0
2, 113880, Note_on_c, 1, 38, 127
2, 113880, Note_on_c, 1, 50, 127
2, 114600, Note_off_c, 1, 38, 0
2, 114600, Note_off_c, 1, 50, 0
2, 114680, Note_on_c, 1, 38, 127
2, 114680, Note_on_c, 1, 50, 127
2, 115240, Note_off_c, 1, 38, 0
2, 115240, Note_off_c, 1, 50, 0
2, 120040, End_track
3, 0, Start_track
3, 0, Title_t, "MIDI"
3, 1536, End_track
0, 0, End_of_file
