0, 0, Header, 1, 3, 192
1, 0, Start_track
1, 0, Time_signature, 4, 2, 24, 8
1, 0, Tempo, 500000
1, 120040, End_track
2, 0, Start_track
2, 0, Text_t, "random instrument: random person i dunno whatev"
2, 0, Title_t, "Track 1"
2, 0, Note_on_c, 1, 40, 127
2, 0, Note_on_c, 1, 48, 127
2, 0, Note_on_c, 1, 56, 127
2, 0, Note_on_c, 1, 60, 127
2, 40, Note_off_c, 1, 40, 0
2, 40, Note_off_c, 1, 48, 0
2, 40, Note_on_c, 1, 55, 127
2, 40, Note_off_c, 1, 56, 0
2, 40, Note_off_c, 1, 60, 0
2, 40, Note_on_c, 1, 72, 127
2, 40, Note_on_c, 1, 75, 127
2, 40, Note_on_c, 1, 79, 127
2, 40, Note_on_c, 1, 84, 127
2, 80, Note_off_c, 1, 55, 0
2, 80, Note_off_c, 1, 72, 0
2, 80, Note_off_c, 1, 75, 0
2, 80, Note_off_c, 1, 79, 0
2, 80, Note_off_c, 1, 84, 0
2, 120, Note_on_c, 1, 40, 127
2, 120, Note_on_c, 1, 48, 127
2, 120, Note_on_c, 1, 56, 127
2, 120, Note_on_c, 1, 60, 127
2, 200, Note_on_c, 1, 35, 127
2, 200, Note_on_c, 1, 39, 127
2, 200, Note_off_c, 1, 40, 0
2, 200, Note_on_c, 1, 47, 127
2, 200, Note_off_c, 1, 48, 0
2, 200, Note_on_c, 1, 50, 127
2, 200, Note_off_c, 1, 56, 0
2, 200, Note_off_c, 1, 60, 0
2, 240, Note_on_c, 1, 34, 127
2, 240, Note_off_c, 1, 35, 0
2, 240, Note_on_c, 1, 46, 127
2, 240, Note_off_c, 1, 47, 0
2, 240, Note_off_c, 1, 50, 0
2, 240, Note_on_c, 1, 73, 127
2, 240, Note_on_c, 1, 75, 127
2, 360, Note_on_c, 1, 80, 127
2, 400, Note_off_c, 1, 34, 0
2, 400, Note_on_c, 1, 35, 127
2, 400, Note_off_c, 1, 39, 0
2, 400, Note_on_c, 1, 40, 127
2, 400, Note_off_c, 1, 46, 0
2, 400, Note_on_c, 1, 47, 127
2, 400, Note_on_c, 1, 62, 127
2, 400, Note_off_c, 1, 73, 0
2, 400, Note_off_c, 1, 75, 0
2, 400, Note_off_c, 1, 80, 0
2, 440, Note_off_c, 1, 35, 0
2, 440, Note_off_c, 1, 40, 0
2, 440, Note_off_c, 1, 47, 0
2, 440, Note_off_c, 1, 62, 0
2, 440, Note_on_c, 1, 79, 127
2, 480, Note_on_c, 1, 76, 127
2, 480, Note_off_c, 1, 79, 0
2, 520, Note_off_c, 1, 76, 0
2, 560, Note_on_c, 1, 72, 127
2, 640, Note_off_c, 1, 72, 0
2, 680, Note_on_c, 1, 70, 127
2, 840, Note_off_c, 1, 70, 0
2, 880, Note_on_c, 1, 67, 127
2, 1000, Note_off_c, 1, 67, 0
2, 1040, Note_on_c, 1, 69, 127
2, 1160, Note_off_c, 1, 69, 0
2, 1200, Note_on_c, 1, 70, 127
2, 1360, Note_off_c, 1, 70, 0
2, 1400, Note_on_c, 1, 64, 127
2, 1520, Note_off_c, 1, 64, 0
2, 1560, Note_on_c, 1, 69, 127
2, 1720, Note_off_c, 1, 69, 0
2, 1760, Note_on_c, 1, 70, 127
2, 1880, Note_off_c, 1, 70, 0
2, 1920, Note_on_c, 1, 72, 127
2, 2040, Note_off_c, 1, 72, 0
2, 2080, Note_on_c, 1, 72, 127
2, 2120, Note_off_c, 1, 72, 0
2, 2160, Note_on_c, 1, 74, 127
2, 2280, Note_off_c, 1, 74, 0
2, 2320, Note_on_c, 1, 72, 127
2, 2480, Note_off_c, 1, 72, 0
2, 2520, Note_on_c, 1, 81, 127
2, 2640, Note_off_c, 1, 81, 0
2, 2680, Note_on_c, 1, 82, 127
2, 2840, Note_off_c, 1, 82, 0
2, 2880, Note_on_c, 1, 81, 127
2, 3000, Note_off_c, 1, 81, 0
2, 3040, Note_on_c, 1, 79, 127
2, 3160, Note_off_c, 1, 79, 0
2, 3200, Note_on_c, 1, 77, 127
2, 3360, Note_off_c, 1, 77, 0
2, 3400, Note_on_c, 1, 76, 127
2, 3560, Note_off_c, 1, 76, 0
2, 3600, Note_on_c, 1, 74, 127
2, 3720, Note_off_c, 1, 74, 0
2, 3760, Note_on_c, 1, 72, 127
2, 3920, Note_off_c, 1, 72, 0
2, 3960, Note_on_c, 1, 71, 127
2, 4080, Note_off_c, 1, 71, 0
2, 4120, Note_on_c, 1, 72, 127
2, 4240, Note_off_c, 1, 72, 0
2, 4280, Note_on_c, 1, 72, 127
2, 4320, Note_off_c, 1, 72, 0
2, 4360, Note_on_c, 1, 71, 127
2, 4480, Note_off_c, 1, 71, 0
2, 4520, Note_on_c, 1, 70, 127
2, 4680, Note_off_c, 1, 70, 0
2, 4720, Note_on_c, 1, 69, 127
2, 4840, Note_off_c, 1, 69, 0
2, 4880, Note_on_c, 1, 63, 127
2, 5040, Note_off_c, 1, 63, 0
2, 5080, Note_on_c, 1, 62, 127
2, 5560, Note_off_c, 1, 62, 0
2, 5600, Note_on_c, 1, 37, 127
2, 5600, Note_on_c, 1, 49, 127
2, 5600, Note_on_c, 1, 56, 127
2, 5760, Note_off_c, 1, 56, 0
2, 5760, Note_on_c, 1, 61, 127
2, 6280, Note_off_c, 1, 61, 0
2, 6320, Note_off_c, 1, 37, 0
2, 6320, Note_off_c, 1, 49, 0
2, 6360, Note_on_c, 1, 37, 127
2, 6360, Note_on_c, 1, 49, 127
2, 6360, Note_on_c, 1, 61, 127
2, 7040, Note_off_c, 1, 37, 0
2, 7040, Note_off_c, 1, 49, 0
2, 7040, Note_off_c, 1, 61, 0
2, 7080, Note_on_c, 1, 46, 127
2, 7080, Note_on_c, 1, 58, 127
2, 7080, Note_on_c, 1, 70, 127
2, 8160, Note_off_c, 1, 46, 0
2, 8160, Note_off_c, 1, 58, 0
2, 8160, Note_off_c, 1, 70, 0
2, 8240, Note_on_c, 1, 49, 127
2, 8240, Note_on_c, 1, 61, 127
2, 8240, Note_on_c, 1, 73, 127
2, 10120, Note_off_c, 1, 49, 0
2, 10120, Note_off_c, 1, 61, 0
2, 10120, Note_off_c, 1, 73, 0
2, 10160, Note_on_c, 1, 41, 127
2, 10160, Note_on_c, 1, 53, 127
2, 10160, Note_on_c, 1, 65, 127
2, 10280, Note_off_c, 1, 41, 0
2, 10320, Note_off_c, 1, 53, 0
2, 10320, Note_off_c, 1, 65, 0
2, 10360, Note_on_c, 1, 41, 127
2, 10360, Note_on_c, 1, 53, 127
2, 10360, Note_on_c, 1, 65, 127
2, 10560, Note_off_c, 1, 41, 0
2, 10560, Note_off_c, 1, 53, 0
2, 10560, Note_off_c, 1, 65, 0
2, 10600, Note_on_c, 1, 41, 127
2, 10600, Note_on_c, 1, 53, 127
2, 10600, Note_on_c, 1, 65, 127
2, 11720, Note_off_c, 1, 41, 0
2, 11720, Note_off_c, 1, 53, 0
2, 11720, Note_off_c, 1, 65, 0
2, 11760, Note_on_c, 1, 58, 127
2, 11760, Note_on_c, 1, 65, 127
2, 11760, Note_on_c, 1, 74, 127
2, 12160, Note_on_c, 1, 80, 127
2, 12440, Note_off_c, 1, 58, 0
2, 12440, Note_off_c, 1, 65, 0
2, 12440, Note_off_c, 1, 74, 0
2, 12440, Note_off_c, 1, 80, 0
2, 12480, Note_on_c, 1, 58, 127
2, 12480, Note_on_c, 1, 65, 127
2, 12480, Note_on_c, 1, 74, 127
2, 12480, Note_on_c, 1, 80, 127
2, 13200, Note_off_c, 1, 74, 0
2, 13200, Note_off_c, 1, 80, 0
2, 13240, Note_on_c, 1, 82, 127
2, 13320, Note_off_c, 1, 58, 0
2, 13320, Note_off_c, 1, 65, 0
2, 13320, Note_off_c, 1, 82, 0
2, 13360, Note_on_c, 1, 36, 127
2, 13360, Note_on_c, 1, 46, 127
2, 13360, Note_on_c, 1, 62, 127
2, 13720, Note_off_c, 1, 36, 0
2, 13720, Note_off_c, 1, 46, 0
2, 13720, Note_on_c, 1, 55, 127
2, 13720, Note_off_c, 1, 62, 0
2, 13720, Note_on_c, 1, 64, 127
2, 13720, Note_on_c, 1, 71, 127
2, 13760, Note_on_c, 1, 52, 127
2, 13760, Note_off_c, 1, 55, 0
2, 13760, Note_on_c, 1, 56, 127
2, 13760, Note_on_c, 1, 62, 127
2, 14120, Note_off_c, 1, 52, 0
2, 14120, Note_off_c, 1, 56, 0
2, 14120, Note_off_c, 1, 62, 0
2, 14120, Note_off_c, 1, 64, 0
2, 14120, Note_off_c, 1, 71, 0
2, 14160, Note_on_c, 1, 61, 127
2, 14160, Note_on_c, 1, 64, 127
2, 14160, Note_on_c, 1, 67, 127
2, 14160, Note_on_c, 1, 69, 127
2, 14360, Note_off_c, 1, 61, 0
2, 14360, Note_off_c, 1, 64, 0
2, 14360, Note_off_c, 1, 67, 0
2, 14360, Note_off_c, 1, 69, 0
2, 14400, Note_on_c, 1, 61, 127
2, 14400, Note_on_c, 1, 64, 127
2, 14400, Note_on_c, 1, 67, 127
2, 14400, Note_on_c, 1, 69, 127
2, 14760, Note_off_c, 1, 61, 0
2, 14760, Note_off_c, 1, 64, 0
2, 14760, Note_off_c, 1, 67, 0
2, 14760, Note_off_c, 1, 69, 0
2, 14800, Note_on_c, 1, 61, 127
2, 14800, Note_on_c, 1, 64, 127
2, 14800, Note_on_c, 1, 67, 127
2, 14800, Note_on_c, 1, 69, 127
2, 15040, Note_off_c, 1, 61, 0
2, 15040, Note_off_c, 1, 64, 0
2, 15040, Note_off_c, 1, 67, 0
2, 15040, Note_off_c, 1, 69, 0
2, 15080, Note_on_c, 1, 50, 127
2, 15080, Note_on_c, 1, 60, 127
2, 15080, Note_on_c, 1, 64, 127
2, 15080, Note_on_c, 1, 69, 127
2, 15640, Note_off_c, 1, 50, 0
2, 15640, Note_off_c, 1, 60, 0
2, 15640, Note_off_c, 1, 64, 0
2, 15640, Note_off_c, 1, 69, 0
2, 15680, Note_on_c, 1, 55, 127
2, 15680, Note_on_c, 1, 59, 127
2, 15680, Note_on_c, 1, 62, 127
2, 16160, Note_off_c, 1, 55, 0
2, 16160, Note_off_c, 1, 59, 0
2, 16160, Note_off_c, 1, 62, 0
2, 16200, Note_on_c, 1, 55, 127
2, 16200, Note_on_c, 1, 59, 127
2, 16200, Note_on_c, 1, 62, 127
2, 16280, Note_on_c, 1, 67, 127
2, 16480, Note_off_c, 1, 55, 0
2, 16480, Note_off_c, 1, 59, 0
2, 16480, Note_off_c, 1, 62, 0
2, 16480, Note_on_c, 1, 63, 127
2, 16520, Note_on_c, 1, 75, 127
2, 17000, Note_off_c, 1, 63, 0
2, 17000, Note_off_c, 1, 67, 0
2, 17000, Note_off_c, 1, 75, 0
2, 17040, Note_on_c, 1, 44, 127
2, 17400, Note_off_c, 1, 44, 0
2, 18240, Note_on_c, 1, 40, 127
2, 18240, Note_on_c, 1, 52, 127
2, 18240, Note_on_c, 1, 64, 127
2, 19440, Note_off_c, 1, 40, 0
2, 19440, Note_off_c, 1, 52, 0
2, 19440, Note_off_c, 1, 64, 0
2, 19480, Note_on_c, 1, 36, 127
2, 19480, Note_on_c, 1, 48, 127
2, 19480, Note_on_c, 1, 60, 127
2, 20280, Note_off_c, 1, 36, 0
2, 20280, Note_off_c, 1, 48, 0
2, 20280, Note_off_c, 1, 60, 0
2, 20360, Note_on_c, 1, 36, 127
2, 20360, Note_on_c, 1, 48, 127
2, 20360, Note_on_c, 1, 60, 127
2, 21160, Note_off_c, 1, 36, 0
2, 21160, Note_off_c, 1, 48, 0
2, 21160, Note_off_c, 1, 60, 0
2, 21200, Note_on_c, 1, 62, 127
2, 21200, Note_on_c, 1, 71, 127
2, 22280, Note_off_c, 1, 62, 0
2, 22280, Note_off_c, 1, 71, 0
2, 22360, Note_on_c, 1, 64, 127
2, 22360, Note_on_c, 1, 72, 127
2, 23640, Note_off_c, 1, 64, 0
2, 23640, Note_off_c, 1, 72, 0
2, 23680, Note_on_c, 1, 56, 127
2, 23680, Note_on_c, 1, 64, 127
2, 23680, Note_on_c, 1, 71, 127
2, 24640, Note_off_c, 1, 56, 0
2, 24640, Note_off_c, 1, 64, 0
2, 24640, Note_off_c, 1, 71, 0
2, 24680, Note_on_c, 1, 56, 127
2, 24680, Note_on_c, 1, 64, 127
2, 24680, Note_on_c, 1, 71, 127
2, 26120, Note_off_c, 1, 56, 0
2, 26120, Note_off_c, 1, 64, 0
2, 26120, Note_off_c, 1, 71, 0
2, 26160, Note_on_c, 1, 54, 127
2, 26160, Note_on_c, 1, 57, 127
2, 26160, Note_on_c, 1, 71, 127
2, 26560, Note_off_c, 1, 54, 0
2, 26560, Note_off_c, 1, 57, 0
2, 26560, Note_off_c, 1, 71, 0
2, 26600, Note_on_c, 1, 54, 127
2, 26600, Note_on_c, 1, 57, 127
2, 26600, Note_on_c, 1, 71, 127
2, 26920, Note_off_c, 1, 71, 0
2, 26960, Note_off_c, 1, 54, 0
2, 26960, Note_on_c, 1, 55, 127
2, 26960, Note_off_c, 1, 57, 0
2, 26960, Note_on_c, 1, 59, 127
2, 26960, Note_on_c, 1, 74, 127
2, 27800, Note_off_c, 1, 74, 0
2, 27840, Note_on_c, 1, 73, 127
2, 28200, Note_off_c, 1, 73, 0
2, 28200, Note_on_c, 1, 75, 127
2, 28240, Note_on_c, 1, 73, 127
2, 28240, Note_off_c, 1, 75, 0
2, 28360, Note_off_c, 1, 55, 0
2, 28360, Note_off_c, 1, 59, 0
2, 28360, Note_off_c, 1, 73, 0
2, 28400, Note_on_c, 1, 55, 127
2, 28400, Note_on_c, 1, 59, 127
2, 28400, Note_on_c, 1, 73, 127
2, 28440, Note_off_c, 1, 73, 0
2, 28480, Note_on_c, 1, 50, 127
2, 28480, Note_off_c, 1, 55, 0
2, 28480, Note_on_c, 1, 57, 127
2, 28480, Note_off_c, 1, 59, 0
2, 28480, Note_on_c, 1, 74, 127
2, 28880, Note_on_c, 1, 66, 127
2, 29040, Note_off_c, 1, 57, 0
2, 29040, Note_off_c, 1, 66, 0
2, 29080, Note_on_c, 1, 60, 127
2, 29280, Note_off_c, 1, 60, 0
2, 29280, Note_on_c, 1, 62, 127
2, 29560, Note_off_c, 1, 74, 0
2, 29600, Note_on_c, 1, 74, 127
2, 29640, Note_off_c, 1, 50, 0
2, 29640, Note_off_c, 1, 62, 0
2, 29640, Note_off_c, 1, 74, 0
2, 29680, Note_on_c, 1, 57, 127
2, 29680, Note_on_c, 1, 72, 127
2, 30280, Note_on_c, 1, 62, 127
2, 30440, Note_off_c, 1, 57, 0
2, 30440, Note_off_c, 1, 62, 0
2, 30440, Note_off_c, 1, 72, 0
2, 30480, Note_on_c, 1, 57, 127
2, 30480, Note_on_c, 1, 62, 127
2, 30480, Note_on_c, 1, 72, 127
2, 31480, Note_off_c, 1, 57, 0
2, 31480, Note_off_c, 1, 62, 0
2, 31480, Note_off_c, 1, 72, 0
2, 31520, Note_on_c, 1, 43, 127
2, 31520, Note_on_c, 1, 59, 127
2, 31520, Note_on_c, 1, 67, 127
2, 32480, Note_on_c, 1, 42, 127
2, 32480, Note_off_c, 1, 43, 0
2, 32480, Note_on_c, 1, 51, 127
2, 32480, Note_off_c, 1, 59, 0
2, 32480, Note_on_c, 1, 60, 127
2, 32480, Note_off_c, 1, 67, 0
2, 32480, Note_on_c, 1, 72, 127
2, 32520, Note_off_c, 1, 42, 0
2, 32520, Note_off_c, 1, 51, 0
2, 32520, Note_off_c, 1, 60, 0
2, 32520, Note_off_c, 1, 72, 0
2, 32560, Note_on_c, 1, 42, 127
2, 32560, Note_on_c, 1, 51, 127
2, 32560, Note_on_c, 1, 60, 127
2, 32560, Note_on_c, 1, 72, 127
2, 34680, Note_off_c, 1, 42, 0
2, 34680, Note_off_c, 1, 51, 0
2, 34680, Note_off_c, 1, 60, 0
2, 34680, Note_off_c, 1, 72, 0
2, 34720, Note_on_c, 1, 42, 127
2, 34720, Note_on_c, 1, 51, 127
2, 34720, Note_on_c, 1, 60, 127
2, 34720, Note_on_c, 1, 72, 127
2, 35600, Note_off_c, 1, 42, 0
2, 35600, Note_off_c, 1, 51, 0
2, 35600, Note_on_c, 1, 55, 127
2, 35600, Note_off_c, 1, 60, 0
2, 35600, Note_on_c, 1, 63, 127
2, 35600, Note_off_c, 1, 72, 0
2, 35640, Note_on_c, 1, 42, 127
2, 35640, Note_on_c, 1, 51, 127
2, 35640, Note_off_c, 1, 55, 0
2, 35640, Note_on_c, 1, 60, 127
2, 35640, Note_off_c, 1, 63, 0
2, 35640, Note_on_c, 1, 72, 127
2, 36840, Note_off_c, 1, 42, 0
2, 36840, Note_off_c, 1, 51, 0
2, 36840, Note_off_c, 1, 60, 0
2, 36840, Note_off_c, 1, 72, 0
2, 36880, Note_on_c, 1, 36, 127
2, 36920, Note_off_c, 1, 36, 0
2, 36920, Note_on_c, 1, 46, 127
2, 36920, Note_on_c, 1, 57, 127
2, 36920, Note_on_c, 1, 63, 127
2, 36920, Note_on_c, 1, 72, 127
2, 38480, Note_off_c, 1, 63, 0
2, 38520, Note_on_c, 1, 62, 127
2, 38560, Note_off_c, 1, 62, 0
2, 38640, Note_on_c, 1, 62, 127
2, 38680, Note_off_c, 1, 62, 0
2, 38720, Note_on_c, 1, 63, 127
2, 38840, Note_off_c, 1, 46, 0
2, 38840, Note_off_c, 1, 57, 0
2, 38840, Note_off_c, 1, 63, 0
2, 38840, Note_off_c, 1, 72, 0
2, 38880, Note_on_c, 1, 46, 127
2, 38880, Note_on_c, 1, 57, 127
2, 38880, Note_on_c, 1, 63, 127
2, 38880, Note_on_c, 1, 72, 127
2, 38920, Note_off_c, 1, 63, 0
2, 39120, Note_off_c, 1, 46, 0
2, 39120, Note_off_c, 1, 57, 0
2, 39120, Note_off_c, 1, 72, 0
2, 39160, Note_on_c, 1, 74, 127
2, 39720, Note_off_c, 1, 74, 0
2, 39760, Note_on_c, 1, 55, 127
2, 39760, Note_on_c, 1, 60, 127
2, 39760, Note_on_c, 1, 64, 127
2, 39760, Note_on_c, 1, 72, 127
2, 40320, Note_off_c, 1, 72, 0
2, 40360, Note_on_c, 1, 69, 127
2, 40880, Note_off_c, 1, 60, 0
2, 40880, Note_off_c, 1, 64, 0
2, 40880, Note_off_c, 1, 69, 0
2, 40920, Note_off_c, 1, 55, 0
2, 41000, Note_on_c, 1, 55, 127
2, 41000, Note_on_c, 1, 60, 127
2, 41000, Note_on_c, 1, 64, 127
2, 41000, Note_on_c, 1, 72, 127
2, 41560, Note_off_c, 1, 55, 0
2, 41560, Note_off_c, 1, 60, 0
2, 41560, Note_off_c, 1, 64, 0
2, 41600, Note_on_c, 1, 60, 127
2, 42120, Note_off_c, 1, 60, 0
2, 42200, Note_on_c, 1, 55, 127
2, 42200, Note_on_c, 1, 64, 127
2, 42200, Note_on_c, 1, 67, 127
2, 42720, Note_off_c, 1, 64, 0
2, 42720, Note_off_c, 1, 72, 0
2, 42760, Note_off_c, 1, 67, 0
2, 42800, Note_on_c, 1, 52, 127
2, 42800, Note_off_c, 1, 55, 0
2, 42800, Note_on_c, 1, 64, 127
2, 42800, Note_on_c, 1, 67, 127
2, 42800, Note_on_c, 1, 72, 127
2, 43200, Note_off_c, 1, 52, 0
2, 43200, Note_off_c, 1, 64, 0
2, 43200, Note_off_c, 1, 67, 0
2, 43200, Note_off_c, 1, 72, 0
2, 43240, Note_on_c, 1, 52, 127
2, 43240, Note_on_c, 1, 64, 127
2, 43240, Note_on_c, 1, 67, 127
2, 43240, Note_on_c, 1, 72, 127
2, 43360, Note_off_c, 1, 52, 0
2, 43360, Note_off_c, 1, 64, 0
2, 43360, Note_off_c, 1, 67, 0
2, 43400, Note_off_c, 1, 72, 0
2, 43440, Note_on_c, 1, 50, 127
2, 43440, Note_on_c, 1, 62, 127
2, 43440, Note_on_c, 1, 67, 127
2, 43440, Note_on_c, 1, 71, 127
2, 44000, Note_off_c, 1, 50, 0
2, 44000, Note_off_c, 1, 62, 0
2, 44000, Note_off_c, 1, 67, 0
2, 44000, Note_off_c, 1, 71, 0
2, 44040, Note_on_c, 1, 54, 127
2, 44040, Note_on_c, 1, 62, 127
2, 44040, Note_on_c, 1, 72, 127
2, 44040, Note_on_c, 1, 81, 127
2, 44560, Note_off_c, 1, 81, 0
2, 44600, Note_off_c, 1, 54, 0
2, 44600, Note_off_c, 1, 62, 0
2, 44600, Note_off_c, 1, 72, 0
2, 44640, Note_on_c, 1, 55, 127
2, 44640, Note_on_c, 1, 59, 127
2, 44640, Note_on_c, 1, 62, 127
2, 45200, Note_off_c, 1, 55, 0
2, 45200, Note_on_c, 1, 58, 127
2, 45200, Note_off_c, 1, 59, 0
2, 45240, Note_on_c, 1, 55, 127
2, 45240, Note_off_c, 1, 58, 0
2, 45240, Note_on_c, 1, 59, 127
2, 45440, Note_off_c, 1, 55, 0
2, 45440, Note_off_c, 1, 59, 0
2, 45440, Note_off_c, 1, 62, 0
2, 45480, Note_on_c, 1, 55, 127
2, 45480, Note_on_c, 1, 59, 127
2, 45480, Note_on_c, 1, 62, 127
2, 45840, Note_off_c, 1, 55, 0
2, 45840, Note_off_c, 1, 59, 0
2, 45880, Note_on_c, 1, 55, 127
2, 45880, Note_on_c, 1, 59, 127
2, 46400, Note_off_c, 1, 55, 0
2, 46400, Note_off_c, 1, 59, 0
2, 46400, Note_off_c, 1, 62, 0
2, 46480, Note_on_c, 1, 55, 127
2, 46480, Note_on_c, 1, 59, 127
2, 46480, Note_on_c, 1, 62, 127
2, 47000, Note_off_c, 1, 59, 0
2, 47000, Note_off_c, 1, 62, 0
2, 47040, Note_off_c, 1, 55, 0
2, 47080, Note_on_c, 1, 55, 127
2, 47080, Note_on_c, 1, 59, 127
2, 47080, Note_on_c, 1, 62, 127
2, 47600, Note_off_c, 1, 62, 0
2, 47640, Note_off_c, 1, 55, 0
2, 47640, Note_off_c, 1, 59, 0
2, 47720, Note_on_c, 1, 55, 127
2, 47720, Note_on_c, 1, 59, 127
2, 47720, Note_on_c, 1, 62, 127
2, 48280, Note_off_c, 1, 55, 0
2, 48280, Note_off_c, 1, 59, 0
2, 48320, Note_on_c, 1, 55, 127
2, 48320, Note_on_c, 1, 59, 127
2, 48840, Note_off_c, 1, 55, 0
2, 48840, Note_off_c, 1, 59, 0
2, 48880, Note_off_c, 1, 62, 0
2, 48920, Note_on_c, 1, 55, 127
2, 48920, Note_on_c, 1, 59, 127
2, 48920, Note_on_c, 1, 62, 127
2, 49720, Note_off_c, 1, 55, 0
2, 49720, Note_off_c, 1, 59, 0
2, 49720, Note_off_c, 1, 62, 0
2, 49760, Note_on_c, 1, 55, 127
2, 49760, Note_on_c, 1, 59, 127
2, 49760, Note_on_c, 1, 62, 127
2, 50080, Note_off_c, 1, 55, 0
2, 50080, Note_off_c, 1, 59, 0
2, 50080, Note_off_c, 1, 62, 0
2, 50160, Note_on_c, 1, 55, 127
2, 50160, Note_on_c, 1, 59, 127
2, 50160, Note_on_c, 1, 62, 127
2, 51280, Note_off_c, 1, 55, 0
2, 51280, Note_off_c, 1, 59, 0
2, 51280, Note_off_c, 1, 62, 0
2, 51360, Note_on_c, 1, 55, 127
2, 51360, Note_on_c, 1, 59, 127
2, 51360, Note_on_c, 1, 62, 127
2, 51760, Note_off_c, 1, 55, 0
2, 51760, Note_off_c, 1, 59, 0
2, 51760, Note_off_c, 1, 62, 0
2, 51800, Note_on_c, 1, 55, 127
2, 51800, Note_on_c, 1, 59, 127
2, 51800, Note_on_c, 1, 62, 127
2, 52520, Note_off_c, 1, 55, 0
2, 52520, Note_off_c, 1, 59, 0
2, 52520, Note_off_c, 1, 62, 0
2, 52600, Note_on_c, 1, 55, 127
2, 52600, Note_on_c, 1, 59, 127
2, 52600, Note_on_c, 1, 62, 127
2, 53680, Note_off_c, 1, 55, 0
2, 53680, Note_off_c, 1, 59, 0
2, 53680, Note_off_c, 1, 62, 0
2, 53840, Note_on_c, 1, 55, 127
2, 53840, Note_on_c, 1, 59, 127
2, 53840, Note_on_c, 1, 62, 127
2, 54960, Note_off_c, 1, 55, 0
2, 54960, Note_off_c, 1, 59, 0
2, 54960, Note_off_c, 1, 62, 0
2, 55040, Note_on_c, 1, 55, 127
2, 55040, Note_on_c, 1, 59, 127
2, 55040, Note_on_c, 1, 62, 127
2, 55800, Note_off_c, 1, 55, 0
2, 55800, Note_off_c, 1, 59, 0
2, 55800, Note_off_c, 1, 62, 0
2, 56280, Note_on_c, 1, 62, 127
2, 56280, Note_on_c, 1, 67, 127
2, 56280, Note_on_c, 1, 71, 127
2, 56280, Note_on_c, 1, 74, 127
2, 57400, Note_off_c, 1, 62, 0
2, 57400, Note_off_c, 1, 67, 0
2, 57400, Note_off_c, 1, 71, 0
2, 57400, Note_off_c, 1, 74, 0
2, 57480, Note_on_c, 1, 48, 127
2, 57480, Note_on_c, 1, 55, 127
2, 57480, Note_on_c, 1, 60, 127
2, 57480, Note_on_c, 1, 64, 127
2, 57480, Note_on_c, 1, 67, 127
2, 57480, Note_on_c, 1, 72, 127
2, 57480, Note_on_c, 1, 76, 127
2, 57880, Note_off_c, 1, 48, 0
2, 57880, Note_off_c, 1, 55, 0
2, 57880, Note_off_c, 1, 60, 0
2, 57880, Note_off_c, 1, 64, 0
2, 57880, Note_off_c, 1, 67, 0
2, 57880, Note_off_c, 1, 72, 0
2, 57880, Note_off_c, 1, 76, 0
2, 57920, Note_on_c, 1, 48, 127
2, 57920, Note_on_c, 1, 55, 127
2, 57920, Note_on_c, 1, 60, 127
2, 57920, Note_on_c, 1, 64, 127
2, 57920, Note_on_c, 1, 67, 127
2, 57920, Note_on_c, 1, 72, 127
2, 57920, Note_on_c, 1, 76, 127
2, 58040, Note_off_c, 1, 48, 0
2, 58040, Note_off_c, 1, 55, 0
2, 58040, Note_off_c, 1, 60, 0
2, 58040, Note_off_c, 1, 64, 0
2, 58040, Note_off_c, 1, 67, 0
2, 58040, Note_off_c, 1, 72, 0
2, 58040, Note_off_c, 1, 76, 0
2, 58120, Note_on_c, 1, 48, 127
2, 58120, Note_on_c, 1, 55, 127
2, 58120, Note_on_c, 1, 60, 127
2, 58120, Note_on_c, 1, 64, 127
2, 58120, Note_on_c, 1, 67, 127
2, 58120, Note_on_c, 1, 72, 127
2, 58120, Note_on_c, 1, 76, 127
2, 58640, Note_off_c, 1, 48, 0
2, 58640, Note_off_c, 1, 55, 0
2, 58640, Note_off_c, 1, 60, 0
2, 58640, Note_off_c, 1, 64, 0
2, 58640, Note_off_c, 1, 67, 0
2, 58640, Note_off_c, 1, 72, 0
2, 58640, Note_off_c, 1, 76, 0
2, 58720, Note_on_c, 1, 48, 127
2, 58720, Note_on_c, 1, 55, 127
2, 58720, Note_on_c, 1, 60, 127
2, 58720, Note_on_c, 1, 64, 127
2, 58720, Note_on_c, 1, 67, 127
2, 58720, Note_on_c, 1, 72, 127
2, 58720, Note_on_c, 1, 76, 127
2, 59240, Note_off_c, 1, 48, 0
2, 59240, Note_off_c, 1, 55, 0
2, 59240, Note_off_c, 1, 60, 0
2, 59240, Note_off_c, 1, 64, 0
2, 59240, Note_off_c, 1, 67, 0
2, 59240, Note_off_c, 1, 72, 0
2, 59240, Note_off_c, 1, 76, 0
2, 59320, Note_on_c, 1, 48, 127
2, 59320, Note_on_c, 1, 55, 127
2, 59320, Note_on_c, 1, 60, 127
2, 59320, Note_on_c, 1, 64, 127
2, 59320, Note_on_c, 1, 67, 127
2, 59320, Note_on_c, 1, 72, 127
2, 59320, Note_on_c, 1, 76, 127
2, 59840, Note_off_c, 1, 48, 0
2, 59840, Note_off_c, 1, 55, 0
2, 59840, Note_off_c, 1, 60, 0
2, 59840, Note_off_c, 1, 64, 0
2, 59840, Note_off_c, 1, 67, 0
2, 59840, Note_off_c, 1, 72, 0
2, 59840, Note_off_c, 1, 76, 0
2, 59960, Note_on_c, 1, 48, 127
2, 59960, Note_on_c, 1, 55, 127
2, 59960, Note_on_c, 1, 60, 127
2, 59960, Note_on_c, 1, 64, 127
2, 59960, Note_on_c, 1, 67, 127
2, 59960, Note_on_c, 1, 72, 127
2, 59960, Note_on_c, 1, 76, 127
2, 60480, Note_off_c, 1, 48, 0
2, 60480, Note_off_c, 1, 55, 0
2, 60480, Note_off_c, 1, 60, 0
2, 60480, Note_off_c, 1, 64, 0
2, 60480, Note_off_c, 1, 67, 0
2, 60480, Note_off_c, 1, 72, 0
2, 60480, Note_off_c, 1, 76, 0
2, 60560, Note_on_c, 1, 48, 127
2, 60560, Note_on_c, 1, 55, 127
2, 60560, Note_on_c, 1, 60, 127
2, 60560, Note_on_c, 1, 64, 127
2, 60560, Note_on_c, 1, 67, 127
2, 60560, Note_on_c, 1, 72, 127
2, 60560, Note_on_c, 1, 76, 127
2, 61080, Note_off_c, 1, 48, 0
2, 61080, Note_off_c, 1, 55, 0
2, 61080, Note_off_c, 1, 60, 0
2, 61080, Note_off_c, 1, 64, 0
2, 61080, Note_off_c, 1, 67, 0
2, 61080, Note_off_c, 1, 72, 0
2, 61080, Note_off_c, 1, 76, 0
2, 61160, Note_on_c, 1, 48, 127
2, 61160, Note_on_c, 1, 55, 127
2, 61160, Note_on_c, 1, 60, 127
2, 61160, Note_on_c, 1, 64, 127
2, 61160, Note_on_c, 1, 67, 127
2, 61160, Note_on_c, 1, 76, 127
2, 61680, Note_off_c, 1, 48, 0
2, 61680, Note_off_c, 1, 55, 0
2, 61680, Note_off_c, 1, 60, 0
2, 61680, Note_off_c, 1, 64, 0
2, 61680, Note_off_c, 1, 67, 0
2, 61680, Note_off_c, 1, 76, 0
2, 61760, Note_on_c, 1, 48, 127
2, 61760, Note_on_c, 1, 55, 127
2, 61760, Note_on_c, 1, 60, 127
2, 61760, Note_on_c, 1, 64, 127
2, 61760, Note_on_c, 1, 67, 127
2, 61760, Note_on_c, 1, 76, 127
2, 61960, Note_off_c, 1, 48, 0
2, 61960, Note_off_c, 1, 55, 0
2, 61960, Note_off_c, 1, 60, 0
2, 61960, Note_off_c, 1, 64, 0
2, 61960, Note_off_c, 1, 67, 0
2, 61960, Note_off_c, 1, 76, 0
2, 62000, Note_on_c, 1, 48, 127
2, 62000, Note_on_c, 1, 55, 127
2, 62000, Note_on_c, 1, 60, 127
2, 62000, Note_on_c, 1, 64, 127
2, 62000, Note_on_c, 1, 67, 127
2, 62000, Note_on_c, 1, 76, 127
2, 62320, Note_off_c, 1, 48, 0
2, 62320, Note_off_c, 1, 55, 0
2, 62320, Note_off_c, 1, 60, 0
2, 62320, Note_off_c, 1, 64, 0
2, 62320, Note_off_c, 1, 67, 0
2, 62320, Note_off_c, 1, 76, 0
2, 62400, Note_on_c, 1, 48, 127
2, 62400, Note_on_c, 1, 55, 127
2, 62400, Note_on_c, 1, 60, 127
2, 62400, Note_on_c, 1, 64, 127
2, 62400, Note_on_c, 1, 67, 127
2, 62400, Note_on_c, 1, 76, 127
2, 62920, Note_off_c, 1, 48, 0
2, 62920, Note_off_c, 1, 55, 0
2, 62920, Note_off_c, 1, 60, 0
2, 62920, Note_off_c, 1, 64, 0
2, 62920, Note_off_c, 1, 67, 0
2, 62920, Note_off_c, 1, 76, 0
2, 63000, Note_on_c, 1, 48, 127
2, 63000, Note_on_c, 1, 55, 127
2, 63000, Note_on_c, 1, 60, 127
2, 63000, Note_on_c, 1, 64, 127
2, 63000, Note_on_c, 1, 67, 127
2, 63000, Note_on_c, 1, 76, 127
2, 63520, Note_off_c, 1, 48, 0
2, 63520, Note_off_c, 1, 55, 0
2, 63520, Note_off_c, 1, 60, 0
2, 63520, Note_off_c, 1, 64, 0
2, 63520, Note_off_c, 1, 67, 0
2, 63520, Note_off_c, 1, 76, 0
2, 63600, Note_on_c, 1, 48, 127
2, 63600, Note_on_c, 1, 55, 127
2, 63600, Note_on_c, 1, 60, 127
2, 63600, Note_on_c, 1, 64, 127
2, 63600, Note_on_c, 1, 67, 127
2, 63600, Note_on_c, 1, 76, 127
2, 64000, Note_off_c, 1, 48, 0
2, 64000, Note_off_c, 1, 55, 0
2, 64000, Note_off_c, 1, 60, 0
2, 64000, Note_off_c, 1, 64, 0
2, 64000, Note_off_c, 1, 67, 0
2, 64000, Note_off_c, 1, 76, 0
2, 64040, Note_on_c, 1, 48, 127
2, 64040, Note_on_c, 1, 55, 127
2, 64040, Note_on_c, 1, 60, 127
2, 64040, Note_on_c, 1, 64, 127
2, 64040, Note_on_c, 1, 67, 127
2, 64040, Note_on_c, 1, 76, 127
2, 64200, Note_off_c, 1, 48, 0
2, 64200, Note_off_c, 1, 55, 0
2, 64200, Note_off_c, 1, 60, 0
2, 64200, Note_off_c, 1, 64, 0
2, 64200, Note_off_c, 1, 67, 0
2, 64200, Note_off_c, 1, 76, 0
2, 64840, Note_on_c, 1, 48, 127
2, 64840, Note_on_c, 1, 55, 127
2, 64840, Note_on_c, 1, 60, 127
2, 64840, Note_on_c, 1, 64, 127
2, 64840, Note_on_c, 1, 67, 127
2, 64840, Note_on_c, 1, 76, 127
2, 65360, Note_off_c, 1, 48, 0
2, 65360, Note_off_c, 1, 55, 0
2, 65360, Note_off_c, 1, 60, 0
2, 65360, Note_off_c, 1, 64, 0
2, 65360, Note_off_c, 1, 67, 0
2, 65360, Note_off_c, 1, 76, 0
2, 65440, Note_on_c, 1, 48, 127
2, 65440, Note_on_c, 1, 55, 127
2, 65440, Note_on_c, 1, 60, 127
2, 65440, Note_on_c, 1, 64, 127
2, 65440, Note_on_c, 1, 67, 127
2, 65440, Note_on_c, 1, 76, 127
2, 65960, Note_off_c, 1, 48, 0
2, 65960, Note_off_c, 1, 55, 0
2, 65960, Note_off_c, 1, 60, 0
2, 65960, Note_off_c, 1, 64, 0
2, 65960, Note_off_c, 1, 67, 0
2, 65960, Note_off_c, 1, 76, 0
2, 66080, Note_on_c, 1, 48, 127
2, 66080, Note_on_c, 1, 55, 127
2, 66080, Note_on_c, 1, 60, 127
2, 66080, Note_on_c, 1, 64, 127
2, 66080, Note_on_c, 1, 67, 127
2, 66080, Note_on_c, 1, 76, 127
2, 66600, Note_off_c, 1, 48, 0
2, 66600, Note_off_c, 1, 55, 0
2, 66600, Note_off_c, 1, 60, 0
2, 66600, Note_off_c, 1, 64, 0
2, 66600, Note_off_c, 1, 67, 0
2, 66600, Note_off_c, 1, 76, 0
2, 66680, Note_on_c, 1, 48, 127
2, 66680, Note_on_c, 1, 55, 127
2, 66680, Note_on_c, 1, 60, 127
2, 66680, Note_on_c, 1, 64, 127
2, 66680, Note_on_c, 1, 67, 127
2, 66680, Note_on_c, 1, 76, 127
2, 67200, Note_off_c, 1, 48, 0
2, 67200, Note_on_c, 1, 52, 127
2, 67200, Note_off_c, 1, 55, 0
2, 67200, Note_off_c, 1, 60, 0
2, 67200, Note_off_c, 1, 64, 0
2, 67200, Note_off_c, 1, 67, 0
2, 67200, Note_off_c, 1, 76, 0
2, 67240, Note_off_c, 1, 52, 0
2, 67280, Note_on_c, 1, 48, 127
2, 67280, Note_on_c, 1, 55, 127
2, 67280, Note_on_c, 1, 60, 127
2, 67280, Note_on_c, 1, 64, 127
2, 67280, Note_on_c, 1, 67, 127
2, 67280, Note_on_c, 1, 76, 127
2, 67800, Note_off_c, 1, 48, 0
2, 67800, Note_off_c, 1, 55, 0
2, 67800, Note_off_c, 1, 60, 0
2, 67800, Note_off_c, 1, 64, 0
2, 67800, Note_off_c, 1, 67, 0
2, 67800, Note_off_c, 1, 76, 0
2, 67880, Note_on_c, 1, 48, 127
2, 67880, Note_on_c, 1, 55, 127
2, 67880, Note_on_c, 1, 60, 127
2, 67880, Note_on_c, 1, 64, 127
2, 67880, Note_on_c, 1, 67, 127
2, 67880, Note_on_c, 1, 76, 127
2, 68080, Note_off_c, 1, 48, 0
2, 68080, Note_off_c, 1, 55, 0
2, 68080, Note_off_c, 1, 60, 0
2, 68080, Note_off_c, 1, 64, 0
2, 68080, Note_off_c, 1, 67, 0
2, 68080, Note_off_c, 1, 76, 0
2, 68120, Note_on_c, 1, 48, 127
2, 68120, Note_on_c, 1, 55, 127
2, 68120, Note_on_c, 1, 60, 127
2, 68120, Note_on_c, 1, 64, 127
2, 68120, Note_on_c, 1, 67, 127
2, 68120, Note_on_c, 1, 76, 127
2, 68440, Note_off_c, 1, 48, 0
2, 68440, Note_off_c, 1, 55, 0
2, 68440, Note_off_c, 1, 60, 0
2, 68440, Note_off_c, 1, 64, 0
2, 68440, Note_off_c, 1, 67, 0
2, 68440, Note_off_c, 1, 76, 0
2, 68520, Note_on_c, 1, 48, 127
2, 68520, Note_on_c, 1, 55, 127
2, 68520, Note_on_c, 1, 60, 127
2, 68520, Note_on_c, 1, 64, 127
2, 68520, Note_on_c, 1, 67, 127
2, 68520, Note_on_c, 1, 76, 127
2, 69040, Note_off_c, 1, 48, 0
2, 69040, Note_off_c, 1, 55, 0
2, 69040, Note_off_c, 1, 60, 0
2, 69040, Note_off_c, 1, 64, 0
2, 69040, Note_off_c, 1, 67, 0
2, 69040, Note_off_c, 1, 76, 0
2, 69120, Note_on_c, 1, 36, 127
2, 69120, Note_on_c, 1, 48, 127
2, 69120, Note_on_c, 1, 84, 127
2, 69120, Note_on_c, 1, 88, 127
2, 69120, Note_on_c, 1, 91, 127
2, 69120, Note_on_c, 1, 96, 127
2, 69680, Note_off_c, 1, 36, 0
2, 69680, Note_off_c, 1, 48, 0
2, 69680, Note_off_c, 1, 84, 0
2, 69680, Note_off_c, 1, 88, 0
2, 69680, Note_off_c, 1, 91, 0
2, 69680, Note_off_c, 1, 96, 0
2, 69720, Note_on_c, 1, 36, 127
2, 69720, Note_on_c, 1, 48, 127
2, 69720, Note_on_c, 1, 84, 127
2, 69720, Note_on_c, 1, 88, 127
2, 69720, Note_on_c, 1, 91, 127
2, 69720, Note_on_c, 1, 96, 127
2, 70120, Note_off_c, 1, 36, 0
2, 70120, Note_off_c, 1, 48, 0
2, 70120, Note_off_c, 1, 84, 0
2, 70120, Note_off_c, 1, 88, 0
2, 70120, Note_off_c, 1, 91, 0
2, 70120, Note_off_c, 1, 96, 0
2, 70160, Note_on_c, 1, 36, 127
2, 70160, Note_on_c, 1, 48, 127
2, 70160, Note_on_c, 1, 84, 127
2, 70160, Note_on_c, 1, 88, 127
2, 70160, Note_on_c, 1, 91, 127
2, 70160, Note_on_c, 1, 96, 127
2, 70200, Note_off_c, 1, 36, 0
2, 70200, Note_off_c, 1, 48, 0
2, 70200, Note_off_c, 1, 84, 0
2, 70200, Note_off_c, 1, 88, 0
2, 70200, Note_off_c, 1, 91, 0
2, 70200, Note_off_c, 1, 96, 0
2, 70960, Note_on_c, 1, 48, 127
2, 70960, Note_on_c, 1, 55, 127
2, 70960, Note_on_c, 1, 60, 127
2, 70960, Note_on_c, 1, 64, 127
2, 70960, Note_on_c, 1, 67, 127
2, 70960, Note_on_c, 1, 76, 127
2, 72080, Note_off_c, 1, 48, 0
2, 72080, Note_off_c, 1, 55, 0
2, 72080, Note_off_c, 1, 60, 0
2, 72080, Note_off_c, 1, 64, 0
2, 72080, Note_off_c, 1, 67, 0
2, 72080, Note_off_c, 1, 76, 0
2, 72200, Note_on_c, 1, 48, 127
2, 72200, Note_on_c, 1, 55, 127
2, 72200, Note_on_c, 1, 60, 127
2, 72200, Note_on_c, 1, 64, 127
2, 72200, Note_on_c, 1, 67, 127
2, 72200, Note_on_c, 1, 76, 127
2, 73320, Note_off_c, 1, 48, 0
2, 73320, Note_off_c, 1, 55, 0
2, 73320, Note_off_c, 1, 60, 0
2, 73320, Note_off_c, 1, 64, 0
2, 73320, Note_off_c, 1, 67, 0
2, 73320, Note_off_c, 1, 76, 0
2, 73400, Note_on_c, 1, 48, 127
2, 73400, Note_on_c, 1, 55, 127
2, 73400, Note_on_c, 1, 60, 127
2, 73400, Note_on_c, 1, 64, 127
2, 73400, Note_on_c, 1, 67, 127
2, 73400, Note_on_c, 1, 76, 127
2, 73920, Note_off_c, 1, 48, 0
2, 73920, Note_off_c, 1, 55, 0
2, 73920, Note_off_c, 1, 60, 0
2, 73920, Note_off_c, 1, 64, 0
2, 73920, Note_off_c, 1, 67, 0
2, 73920, Note_off_c, 1, 76, 0
2, 74000, Note_on_c, 1, 43, 127
2, 74000, Note_on_c, 1, 52, 127
2, 74000, Note_on_c, 1, 73, 127
2, 74000, Note_on_c, 1, 76, 127
2, 74000, Note_on_c, 1, 85, 127
2, 74200, Note_off_c, 1, 43, 0
2, 74200, Note_off_c, 1, 52, 0
2, 74200, Note_off_c, 1, 73, 0
2, 74200, Note_off_c, 1, 76, 0
2, 74200, Note_off_c, 1, 85, 0
2, 74240, Note_on_c, 1, 43, 127
2, 74240, Note_on_c, 1, 52, 127
2, 74240, Note_on_c, 1, 73, 127
2, 74240, Note_on_c, 1, 76, 127
2, 74240, Note_on_c, 1, 85, 127
2, 74560, Note_off_c, 1, 43, 0
2, 74560, Note_off_c, 1, 52, 0
2, 74560, Note_off_c, 1, 73, 0
2, 74560, Note_off_c, 1, 76, 0
2, 74560, Note_off_c, 1, 85, 0
2, 74640, Note_on_c, 1, 48, 127
2, 74640, Note_on_c, 1, 55, 127
2, 74640, Note_on_c, 1, 60, 127
2, 74640, Note_on_c, 1, 64, 127
2, 74640, Note_on_c, 1, 67, 127
2, 75160, Note_off_c, 1, 48, 0
2, 75160, Note_off_c, 1, 55, 0
2, 75160, Note_off_c, 1, 60, 0
2, 75160, Note_off_c, 1, 64, 0
2, 75160, Note_off_c, 1, 67, 0
2, 75240, Note_on_c, 1, 48, 127
2, 75240, Note_on_c, 1, 55, 127
2, 75240, Note_on_c, 1, 60, 127
2, 75240, Note_on_c, 1, 64, 127
2, 75240, Note_on_c, 1, 67, 127
2, 75240, Note_on_c, 1, 76, 127
2, 75760, Note_off_c, 1, 48, 0
2, 75760, Note_off_c, 1, 55, 0
2, 75760, Note_off_c, 1, 60, 0
2, 75760, Note_off_c, 1, 64, 0
2, 75760, Note_off_c, 1, 67, 0
2, 75760, Note_off_c, 1, 76, 0
2, 75840, Note_on_c, 1, 48, 127
2, 75840, Note_on_c, 1, 55, 127
2, 75840, Note_on_c, 1, 60, 127
2, 75840, Note_on_c, 1, 64, 127
2, 75840, Note_on_c, 1, 67, 127
2, 75840, Note_on_c, 1, 76, 127
2, 76240, Note_off_c, 1, 48, 0
2, 76240, Note_off_c, 1, 55, 0
2, 76240, Note_off_c, 1, 60, 0
2, 76240, Note_off_c, 1, 64, 0
2, 76240, Note_off_c, 1, 67, 0
2, 76240, Note_off_c, 1, 76, 0
2, 76280, Note_on_c, 1, 48, 127
2, 76280, Note_on_c, 1, 55, 127
2, 76280, Note_on_c, 1, 60, 127
2, 76280, Note_on_c, 1, 64, 127
2, 76280, Note_on_c, 1, 67, 127
2, 76280, Note_on_c, 1, 76, 127
2, 76400, Note_off_c, 1, 48, 0
2, 76400, Note_off_c, 1, 55, 0
2, 76400, Note_off_c, 1, 60, 0
2, 76400, Note_off_c, 1, 64, 0
2, 76400, Note_off_c, 1, 67, 0
2, 76400, Note_off_c, 1, 76, 0
2, 76480, Note_on_c, 1, 48, 127
2, 76480, Note_on_c, 1, 55, 127
2, 76480, Note_on_c, 1, 60, 127
2, 76480, Note_on_c, 1, 64, 127
2, 76480, Note_on_c, 1, 67, 127
2, 76480, Note_on_c, 1, 76, 127
2, 77000, Note_off_c, 1, 48, 0
2, 77000, Note_off_c, 1, 55, 0
2, 77000, Note_off_c, 1, 60, 0
2, 77000, Note_off_c, 1, 64, 0
2, 77000, Note_off_c, 1, 67, 0
2, 77000, Note_off_c, 1, 76, 0
2, 77080, Note_on_c, 1, 48, 127
2, 77080, Note_on_c, 1, 55, 127
2, 77080, Note_on_c, 1, 60, 127
2, 77080, Note_on_c, 1, 64, 127
2, 77080, Note_on_c, 1, 67, 127
2, 77080, Note_on_c, 1, 76, 127
2, 77600, Note_off_c, 1, 48, 0
2, 77600, Note_off_c, 1, 55, 0
2, 77600, Note_off_c, 1, 60, 0
2, 77600, Note_off_c, 1, 64, 0
2, 77600, Note_off_c, 1, 67, 0
2, 77600, Note_off_c, 1, 76, 0
2, 77680, Note_on_c, 1, 48, 127
2, 77680, Note_on_c, 1, 55, 127
2, 77680, Note_on_c, 1, 60, 127
2, 77680, Note_on_c, 1, 64, 127
2, 77680, Note_on_c, 1, 67, 127
2, 77680, Note_on_c, 1, 76, 127
2, 78200, Note_off_c, 1, 48, 0
2, 78200, Note_off_c, 1, 55, 0
2, 78200, Note_off_c, 1, 60, 0
2, 78200, Note_off_c, 1, 64, 0
2, 78200, Note_off_c, 1, 67, 0
2, 78200, Note_off_c, 1, 76, 0
2, 78320, Note_on_c, 1, 48, 127
2, 78320, Note_on_c, 1, 55, 127
2, 78320, Note_on_c, 1, 60, 127
2, 78320, Note_on_c, 1, 64, 127
2, 78320, Note_on_c, 1, 67, 127
2, 78320, Note_on_c, 1, 76, 127
2, 78840, Note_off_c, 1, 48, 0
2, 78840, Note_off_c, 1, 55, 0
2, 78840, Note_off_c, 1, 60, 0
2, 78840, Note_off_c, 1, 64, 0
2, 78840, Note_off_c, 1, 67, 0
2, 78840, Note_off_c, 1, 76, 0
2, 78920, Note_on_c, 1, 48, 127
2, 78920, Note_on_c, 1, 55, 127
2, 78920, Note_on_c, 1, 60, 127
2, 78920, Note_on_c, 1, 64, 127
2, 78920, Note_on_c, 1, 67, 127
2, 78920, Note_on_c, 1, 76, 127
2, 79440, Note_off_c, 1, 48, 0
2, 79440, Note_off_c, 1, 55, 0
2, 79440, Note_off_c, 1, 60, 0
2, 79440, Note_off_c, 1, 64, 0
2, 79440, Note_off_c, 1, 67, 0
2, 79440, Note_off_c, 1, 76, 0
2, 79520, Note_on_c, 1, 48, 127
2, 79520, Note_on_c, 1, 55, 127
2, 79520, Note_on_c, 1, 60, 127
2, 79520, Note_on_c, 1, 64, 127
2, 79520, Note_on_c, 1, 67, 127
2, 79520, Note_on_c, 1, 76, 127
2, 80040, Note_off_c, 1, 48, 0
2, 80040, Note_off_c, 1, 55, 0
2, 80040, Note_off_c, 1, 60, 0
2, 80040, Note_off_c, 1, 64, 0
2, 80040, Note_off_c, 1, 67, 0
2, 80040, Note_off_c, 1, 76, 0
2, 80120, Note_on_c, 1, 48, 127
2, 80120, Note_on_c, 1, 55, 127
2, 80120, Note_on_c, 1, 60, 127
2, 80120, Note_on_c, 1, 64, 127
2, 80120, Note_on_c, 1, 67, 127
2, 80120, Note_on_c, 1, 76, 127
2, 80320, Note_off_c, 1, 48, 0
2, 80320, Note_off_c, 1, 55, 0
2, 80320, Note_off_c, 1, 60, 0
2, 80320, Note_off_c, 1, 64, 0
2, 80320, Note_off_c, 1, 67, 0
2, 80320, Note_off_c, 1, 76, 0
2, 80360, Note_on_c, 1, 48, 127
2, 80360, Note_on_c, 1, 55, 127
2, 80360, Note_on_c, 1, 60, 127
2, 80360, Note_on_c, 1, 64, 127
2, 80360, Note_on_c, 1, 67, 127
2, 80360, Note_on_c, 1, 76, 127
2, 80680, Note_off_c, 1, 48, 0
2, 80680, Note_off_c, 1, 55, 0
2, 80680, Note_off_c, 1, 60, 0
2, 80680, Note_off_c, 1, 64, 0
2, 80680, Note_off_c, 1, 67, 0
2, 80680, Note_off_c, 1, 76, 0
2, 80760, Note_on_c, 1, 48, 127
2, 80760, Note_on_c, 1, 55, 127
2, 80760, Note_on_c, 1, 60, 127
2, 80760, Note_on_c, 1, 64, 127
2, 80760, Note_on_c, 1, 67, 127
2, 80760, Note_on_c, 1, 76, 127
2, 81280, Note_off_c, 1, 48, 0
2, 81280, Note_off_c, 1, 55, 0
2, 81280, Note_off_c, 1, 60, 0
2, 81280, Note_off_c, 1, 64, 0
2, 81280, Note_off_c, 1, 67, 0
2, 81280, Note_off_c, 1, 76, 0
2, 81360, Note_on_c, 1, 48, 127
2, 81360, Note_on_c, 1, 55, 127
2, 81360, Note_on_c, 1, 60, 127
2, 81360, Note_on_c, 1, 64, 127
2, 81360, Note_on_c, 1, 67, 127
2, 81360, Note_on_c, 1, 76, 127
2, 81880, Note_off_c, 1, 48, 0
2, 81880, Note_off_c, 1, 55, 0
2, 81880, Note_off_c, 1, 60, 0
2, 81880, Note_off_c, 1, 64, 0
2, 81880, Note_off_c, 1, 67, 0
2, 81880, Note_off_c, 1, 76, 0
2, 81960, Note_on_c, 1, 48, 127
2, 81960, Note_on_c, 1, 55, 127
2, 81960, Note_on_c, 1, 60, 127
2, 81960, Note_on_c, 1, 64, 127
2, 81960, Note_on_c, 1, 67, 127
2, 81960, Note_on_c, 1, 76, 127
2, 82360, Note_off_c, 1, 48, 0
2, 82360, Note_off_c, 1, 55, 0
2, 82360, Note_off_c, 1, 60, 0
2, 82360, Note_off_c, 1, 64, 0
2, 82360, Note_off_c, 1, 67, 0
2, 82360, Note_off_c, 1, 76, 0
2, 82400, Note_on_c, 1, 48, 127
2, 82400, Note_on_c, 1, 55, 127
2, 82400, Note_on_c, 1, 60, 127
2, 82400, Note_on_c, 1, 64, 127
2, 82400, Note_on_c, 1, 67, 127
2, 82400, Note_on_c, 1, 76, 127
2, 82560, Note_off_c, 1, 76, 0
2, 82600, Note_on_c, 1, 74, 127
2, 83120, Note_off_c, 1, 48, 0
2, 83120, Note_off_c, 1, 55, 0
2, 83120, Note_off_c, 1, 60, 0
2, 83120, Note_off_c, 1, 64, 0
2, 83120, Note_off_c, 1, 67, 0
2, 83120, Note_off_c, 1, 74, 0
2, 83200, Note_on_c, 1, 48, 127
2, 83200, Note_on_c, 1, 55, 127
2, 83200, Note_on_c, 1, 72, 127
2, 83200, Note_on_c, 1, 76, 127
2, 83720, Note_off_c, 1, 48, 0
2, 83720, Note_off_c, 1, 55, 0
2, 83720, Note_off_c, 1, 72, 0
2, 83720, Note_off_c, 1, 76, 0
2, 83800, Note_on_c, 1, 52, 127
2, 83800, Note_on_c, 1, 55, 127
2, 83800, Note_on_c, 1, 67, 127
2, 83800, Note_on_c, 1, 72, 127
2, 83800, Note_on_c, 1, 79, 127
2, 84360, Note_off_c, 1, 52, 0
2, 84360, Note_off_c, 1, 55, 0
2, 84360, Note_off_c, 1, 67, 0
2, 84360, Note_off_c, 1, 72, 0
2, 84360, Note_off_c, 1, 79, 0
2, 84440, Note_on_c, 1, 52, 127
2, 84440, Note_on_c, 1, 55, 127
2, 84440, Note_on_c, 1, 67, 127
2, 84440, Note_on_c, 1, 72, 127
2, 84440, Note_on_c, 1, 79, 127
2, 85560, Note_off_c, 1, 52, 0
2, 85560, Note_off_c, 1, 55, 0
2, 85560, Note_off_c, 1, 67, 0
2, 85560, Note_off_c, 1, 72, 0
2, 85560, Note_off_c, 1, 79, 0
2, 85640, Note_on_c, 1, 52, 127
2, 85640, Note_on_c, 1, 55, 127
2, 85640, Note_on_c, 1, 67, 127
2, 85640, Note_on_c, 1, 72, 127
2, 85640, Note_on_c, 1, 79, 127
2, 86440, Note_off_c, 1, 52, 0
2, 86440, Note_off_c, 1, 55, 0
2, 86440, Note_off_c, 1, 67, 0
2, 86440, Note_off_c, 1, 72, 0
2, 86440, Note_off_c, 1, 79, 0
2, 86480, Note_on_c, 1, 52, 127
2, 86480, Note_on_c, 1, 55, 127
2, 86480, Note_on_c, 1, 67, 127
2, 86480, Note_on_c, 1, 72, 127
2, 86480, Note_on_c, 1, 79, 127
2, 86800, Note_off_c, 1, 52, 0
2, 86800, Note_off_c, 1, 55, 0
2, 86800, Note_off_c, 1, 67, 0
2, 86800, Note_off_c, 1, 72, 0
2, 86800, Note_off_c, 1, 79, 0
2, 86880, Note_on_c, 1, 47, 127
2, 86880, Note_on_c, 1, 55, 127
2, 86880, Note_on_c, 1, 62, 127
2, 86880, Note_on_c, 1, 67, 127
2, 86880, Note_on_c, 1, 74, 127
2, 87400, Note_off_c, 1, 47, 0
2, 87400, Note_off_c, 1, 55, 0
2, 87400, Note_off_c, 1, 62, 0
2, 87400, Note_off_c, 1, 67, 0
2, 87400, Note_off_c, 1, 74, 0
2, 87480, Note_on_c, 1, 48, 127
2, 87480, Note_on_c, 1, 55, 127
2, 87480, Note_on_c, 1, 60, 127
2, 87480, Note_on_c, 1, 67, 127
2, 87480, Note_on_c, 1, 72, 127
2, 87480, Note_on_c, 1, 75, 127
2, 88040, Note_off_c, 1, 48, 0
2, 88040, Note_off_c, 1, 55, 0
2, 88040, Note_off_c, 1, 60, 0
2, 88040, Note_off_c, 1, 67, 0
2, 88040, Note_off_c, 1, 72, 0
2, 88040, Note_off_c, 1, 75, 0
2, 88080, Note_on_c, 1, 53, 127
2, 88080, Note_on_c, 1, 65, 127
2, 88480, Note_off_c, 1, 53, 0
2, 88480, Note_off_c, 1, 65, 0
2, 88520, Note_on_c, 1, 53, 127
2, 88520, Note_on_c, 1, 65, 127
2, 88680, Note_off_c, 1, 53, 0
2, 88680, Note_off_c, 1, 65, 0
2, 88720, Note_on_c, 1, 52, 127
2, 88720, Note_on_c, 1, 64, 127
2, 89280, Note_off_c, 1, 52, 0
2, 89280, Note_off_c, 1, 64, 0
2, 89320, Note_on_c, 1, 53, 127
2, 89320, Note_on_c, 1, 55, 127
2, 89320, Note_on_c, 1, 65, 127
2, 89320, Note_on_c, 1, 67, 127
2, 89880, Note_off_c, 1, 53, 0
2, 89880, Note_off_c, 1, 55, 0
2, 89880, Note_off_c, 1, 65, 0
2, 89880, Note_off_c, 1, 67, 0
2, 89920, Note_on_c, 1, 50, 127
2, 89920, Note_on_c, 1, 53, 127
2, 89920, Note_on_c, 1, 62, 127
2, 89920, Note_on_c, 1, 65, 127
2, 90320, Note_off_c, 1, 50, 0
2, 90320, Note_off_c, 1, 53, 0
2, 90320, Note_off_c, 1, 62, 0
2, 90320, Note_off_c, 1, 65, 0
2, 90360, Note_on_c, 1, 50, 127
2, 90360, Note_on_c, 1, 53, 127
2, 90360, Note_on_c, 1, 62, 127
2, 90360, Note_on_c, 1, 65, 127
2, 90440, Note_off_c, 1, 50, 0
2, 90440, Note_off_c, 1, 53, 0
2, 90440, Note_off_c, 1, 62, 0
2, 90440, Note_off_c, 1, 65, 0
2, 90560, Note_on_c, 1, 46, 127
2, 90560, Note_on_c, 1, 58, 127
2, 90560, Note_on_c, 1, 62, 127
2, 90560, Note_on_c, 1, 67, 127
2, 91120, Note_off_c, 1, 46, 0
2, 91120, Note_off_c, 1, 58, 0
2, 91120, Note_off_c, 1, 62, 0
2, 91120, Note_off_c, 1, 67, 0
2, 91160, Note_on_c, 1, 46, 127
2, 91160, Note_on_c, 1, 51, 127
2, 91160, Note_on_c, 1, 58, 127
2, 91160, Note_on_c, 1, 63, 127
2, 91160, Note_on_c, 1, 67, 127
2, 91160, Note_on_c, 1, 73, 127
2, 91280, Note_off_c, 1, 63, 0
2, 91280, Note_off_c, 1, 67, 0
2, 91280, Note_off_c, 1, 73, 0
2, 91720, Note_off_c, 1, 46, 0
2, 91720, Note_off_c, 1, 51, 0
2, 91720, Note_off_c, 1, 58, 0
2, 91760, Note_on_c, 1, 36, 127
2, 92000, Note_off_c, 1, 36, 0
2, 92040, Note_on_c, 1, 39, 127
2, 92320, Note_off_c, 1, 39, 0
2, 92360, Note_on_c, 1, 34, 127
2, 92360, Note_on_c, 1, 50, 127
2, 92360, Note_on_c, 1, 56, 127
2, 92360, Note_on_c, 1, 58, 127
2, 92360, Note_on_c, 1, 62, 127
2, 92400, Note_off_c, 1, 34, 0
2, 92400, Note_on_c, 1, 36, 127
2, 92400, Note_on_c, 1, 39, 127
2, 92400, Note_on_c, 1, 44, 127
2, 92400, Note_on_c, 1, 48, 127
2, 92400, Note_off_c, 1, 50, 0
2, 92400, Note_off_c, 1, 56, 0
2, 92400, Note_off_c, 1, 58, 0
2, 92400, Note_on_c, 1, 60, 127
2, 92400, Note_off_c, 1, 62, 0
2, 92400, Note_on_c, 1, 63, 127
2, 92400, Note_on_c, 1, 68, 127
2, 92400, Note_on_c, 1, 72, 127
2, 92440, Note_off_c, 1, 36, 0
2, 92440, Note_off_c, 1, 39, 0
2, 92440, Note_on_c, 1, 43, 127
2, 92440, Note_off_c, 1, 44, 0
2, 92440, Note_off_c, 1, 48, 0
2, 92440, Note_off_c, 1, 60, 0
2, 92440, Note_off_c, 1, 63, 0
2, 92440, Note_off_c, 1, 68, 0
2, 92440, Note_off_c, 1, 72, 0
2, 92440, Note_on_c, 1, 82, 127
2, 92440, Note_on_c, 1, 86, 127
2, 92440, Note_on_c, 1, 91, 127
2, 92480, Note_off_c, 1, 43, 0
2, 92480, Note_on_c, 1, 68, 127
2, 92480, Note_on_c, 1, 77, 127
2, 92480, Note_on_c, 1, 80, 127
2, 92480, Note_off_c, 1, 82, 0
2, 92480, Note_on_c, 1, 83, 127
2, 92480, Note_off_c, 1, 86, 0
2, 92480, Note_off_c, 1, 91, 0
2, 92480, Note_on_c, 1, 92, 127
2, 92520, Note_on_c, 1, 52, 127
2, 92520, Note_on_c, 1, 57, 127
2, 92520, Note_on_c, 1, 64, 127
2, 92520, Note_on_c, 1, 67, 127
2, 92520, Note_off_c, 1, 68, 0
2, 92520, Note_on_c, 1, 69, 127
2, 92520, Note_on_c, 1, 73, 127
2, 92520, Note_off_c, 1, 77, 0
2, 92520, Note_on_c, 1, 79, 127
2, 92520, Note_off_c, 1, 80, 0
2, 92520, Note_off_c, 1, 83, 0
2, 92520, Note_off_c, 1, 92, 0
2, 92560, Note_off_c, 1, 52, 0
2, 92560, Note_off_c, 1, 57, 0
2, 92560, Note_off_c, 1, 64, 0
2, 92560, Note_off_c, 1, 67, 0
2, 92560, Note_off_c, 1, 69, 0
2, 92560, Note_off_c, 1, 73, 0
2, 92560, Note_off_c, 1, 79, 0
2, 92600, Note_on_c, 1, 65, 127
2, 92600, Note_on_c, 1, 73, 127
2, 92600, Note_on_c, 1, 76, 127
2, 92640, Note_on_c, 1, 45, 127
2, 92640, Note_on_c, 1, 55, 127
2, 92640, Note_on_c, 1, 57, 127
2, 92640, Note_on_c, 1, 61, 127
2, 92640, Note_on_c, 1, 64, 127
2, 92640, Note_off_c, 1, 65, 0
2, 92640, Note_off_c, 1, 73, 0
2, 92640, Note_off_c, 1, 76, 0
2, 92680, Note_off_c, 1, 45, 0
2, 92680, Note_on_c, 1, 53, 127
2, 92680, Note_off_c, 1, 55, 0
2, 92680, Note_on_c, 1, 60, 127
2, 92680, Note_off_c, 1, 61, 0
2, 92680, Note_off_c, 1, 64, 0
2, 92680, Note_on_c, 1, 73, 127
2, 92720, Note_on_c, 1, 39, 127
2, 92720, Note_on_c, 1, 51, 127
2, 92720, Note_off_c, 1, 53, 0
2, 92720, Note_off_c, 1, 57, 0
2, 92720, Note_off_c, 1, 60, 0
2, 92720, Note_off_c, 1, 73, 0
2, 92720, Note_on_c, 1, 82, 127
2, 92720, Note_on_c, 1, 87, 127
2, 92720, Note_on_c, 1, 90, 127
2, 92720, Note_on_c, 1, 94, 127
2, 92760, Note_off_c, 1, 39, 0
2, 92760, Note_off_c, 1, 51, 0
2, 92760, Note_on_c, 1, 58, 127
2, 92760, Note_off_c, 1, 82, 0
2, 92760, Note_on_c, 1, 85, 127
2, 92760, Note_off_c, 1, 87, 0
2, 92760, Note_on_c, 1, 88, 127
2, 92760, Note_off_c, 1, 90, 0
2, 92760, Note_on_c, 1, 91, 127
2, 92760, Note_off_c, 1, 94, 0
2, 92760, Note_on_c, 1, 97, 127
2, 92800, Note_on_c, 1, 42, 127
2, 92800, Note_on_c, 1, 49, 127
2, 92800, Note_off_c, 1, 58, 0
2, 92800, Note_on_c, 1, 66, 127
2, 92800, Note_on_c, 1, 70, 127
2, 92800, Note_on_c, 1, 78, 127
2, 92800, Note_off_c, 1, 85, 0
2, 92800, Note_off_c, 1, 88, 0
2, 92800, Note_off_c, 1, 91, 0
2, 92800, Note_off_c, 1, 97, 0
2, 92840, Note_on_c, 1, 33, 127
2, 92840, Note_off_c, 1, 42, 0
2, 92840, Note_off_c, 1, 49, 0
2, 92840, Note_on_c, 1, 52, 127
2, 92840, Note_on_c, 1, 57, 127
2, 92840, Note_on_c, 1, 62, 127
2, 92840, Note_on_c, 1, 64, 127
2, 92840, Note_off_c, 1, 66, 0
2, 92840, Note_off_c, 1, 70, 0
2, 92840, Note_off_c, 1, 78, 0
2, 92880, Note_off_c, 1, 33, 0
2, 92880, Note_on_c, 1, 35, 127
2, 92880, Note_on_c, 1, 47, 127
2, 92880, Note_on_c, 1, 56, 127
2, 92880, Note_off_c, 1, 57, 0
2, 92880, Note_on_c, 1, 61, 127
2, 92880, Note_off_c, 1, 62, 0
2, 92880, Note_off_c, 1, 64, 0
2, 92920, Note_off_c, 1, 35, 0
2, 92920, Note_on_c, 1, 45, 127
2, 92920, Note_off_c, 1, 47, 0
2, 92920, Note_off_c, 1, 52, 0
2, 92920, Note_on_c, 1, 55, 127
2, 92920, Note_off_c, 1, 56, 0
2, 92920, Note_on_c, 1, 67, 127
2, 92960, Note_off_c, 1, 45, 0
2, 92960, Note_off_c, 1, 55, 0
2, 92960, Note_off_c, 1, 61, 0
2, 92960, Note_off_c, 1, 67, 0
2, 93000, Note_on_c, 1, 31, 127
2, 93000, Note_on_c, 1, 43, 127
2, 93000, Note_on_c, 1, 59, 127
2, 93000, Note_on_c, 1, 65, 127
2, 93000, Note_on_c, 1, 66, 127
2, 93400, Note_off_c, 1, 66, 0
2, 93400, Note_on_c, 1, 67, 127
2, 93560, Note_off_c, 1, 31, 0
2, 93560, Note_off_c, 1, 43, 0
2, 93560, Note_off_c, 1, 59, 0
2, 93560, Note_off_c, 1, 65, 0
2, 93560, Note_off_c, 1, 67, 0
2, 93600, Note_on_c, 1, 36, 127
2, 93840, Note_off_c, 1, 36, 0
2, 93880, Note_on_c, 1, 39, 127
2, 94160, Note_off_c, 1, 39, 0
2, 94200, Note_on_c, 1, 48, 127
2, 94200, Note_on_c, 1, 55, 127
2, 94200, Note_on_c, 1, 72, 127
2, 94600, Note_off_c, 1, 48, 0
2, 94600, Note_off_c, 1, 55, 0
2, 94600, Note_off_c, 1, 72, 0
2, 94640, Note_on_c, 1, 48, 127
2, 94640, Note_on_c, 1, 55, 127
2, 94640, Note_on_c, 1, 72, 127
2, 94800, Note_off_c, 1, 48, 0
2, 94800, Note_off_c, 1, 55, 0
2, 94840, Note_on_c, 1, 52, 127
2, 94840, Note_on_c, 1, 60, 127
2, 95400, Note_off_c, 1, 52, 0
2, 95400, Note_off_c, 1, 60, 0
2, 95440, Note_on_c, 1, 51, 127
2, 95440, Note_on_c, 1, 57, 127
2, 95440, Note_on_c, 1, 60, 127
2, 96000, Note_off_c, 1, 57, 0
2, 96000, Note_off_c, 1, 60, 0
2, 96040, Note_on_c, 1, 53, 127
2, 96040, Note_on_c, 1, 65, 127
2, 96600, Note_off_c, 1, 53, 0
2, 96600, Note_off_c, 1, 65, 0
2, 96640, Note_off_c, 1, 51, 0
2, 96640, Note_off_c, 1, 72, 0
2, 96680, Note_on_c, 1, 51, 127
2, 96680, Note_on_c, 1, 57, 127
2, 96680, Note_on_c, 1, 60, 127
2, 96680, Note_on_c, 1, 72, 127
2, 97240, Note_off_c, 1, 57, 0
2, 97240, Note_off_c, 1, 60, 0
2, 97280, Note_on_c, 1, 53, 127
2, 97280, Note_on_c, 1, 65, 127
2, 97840, Note_off_c, 1, 53, 0
2, 97840, Note_off_c, 1, 65, 0
2, 97840, Note_off_c, 1, 72, 0
2, 97880, Note_on_c, 1, 46, 127
2, 97880, Note_on_c, 1, 55, 127
2, 97880, Note_on_c, 1, 67, 127
2, 98440, Note_off_c, 1, 46, 0
2, 98440, Note_off_c, 1, 51, 0
2, 98480, Note_on_c, 1, 48, 127
2, 98480, Note_on_c, 1, 51, 127
2, 98880, Note_off_c, 1, 48, 0
2, 98880, Note_off_c, 1, 51, 0
2, 98880, Note_off_c, 1, 55, 0
2, 98880, Note_off_c, 1, 67, 0
2, 98920, Note_on_c, 1, 48, 127
2, 98920, Note_on_c, 1, 51, 127
2, 98920, Note_on_c, 1, 55, 127
2, 98920, Note_on_c, 1, 67, 127
2, 99080, Note_off_c, 1, 48, 0
2, 99080, Note_off_c, 1, 51, 0
2, 99080, Note_on_c, 1, 63, 127
2, 99120, Note_off_c, 1, 55, 0
2, 99120, Note_on_c, 1, 57, 127
2, 99120, Note_off_c, 1, 63, 0
2, 99120, Note_on_c, 1, 64, 127
2, 99120, Note_off_c, 1, 67, 0
2, 99120, Note_on_c, 1, 76, 127
2, 99120, Note_on_c, 1, 81, 127
2, 99120, Note_on_c, 1, 85, 127
2, 99120, Note_on_c, 1, 88, 127
2, 99680, Note_off_c, 1, 57, 0
2, 99680, Note_off_c, 1, 64, 0
2, 99680, Note_off_c, 1, 76, 0
2, 99680, Note_off_c, 1, 81, 0
2, 99680, Note_off_c, 1, 85, 0
2, 99680, Note_off_c, 1, 88, 0
2, 99720, Note_on_c, 1, 54, 127
2, 99720, Note_on_c, 1, 76, 127
2, 99720, Note_on_c, 1, 78, 127
2, 99720, Note_on_c, 1, 82, 127
2, 99720, Note_on_c, 1, 85, 127
2, 99720, Note_on_c, 1, 90, 127
2, 100280, Note_off_c, 1, 54, 0
2, 100280, Note_off_c, 1, 76, 0
2, 100280, Note_off_c, 1, 78, 0
2, 100280, Note_off_c, 1, 82, 0
2, 100280, Note_off_c, 1, 85, 0
2, 100280, Note_off_c, 1, 90, 0
2, 100320, Note_on_c, 1, 62, 127
2, 100320, Note_on_c, 1, 72, 127
2, 100320, Note_on_c, 1, 78, 127
2, 100880, Note_off_c, 1, 62, 0
2, 100880, Note_off_c, 1, 72, 0
2, 100880, Note_off_c, 1, 78, 0
2, 100960, Note_on_c, 1, 64, 127
2, 100960, Note_on_c, 1, 72, 127
2, 100960, Note_on_c, 1, 79, 127
2, 101520, Note_off_c, 1, 64, 0
2, 101520, Note_off_c, 1, 72, 0
2, 101560, Note_on_c, 1, 62, 127
2, 101560, Note_on_c, 1, 71, 127
2, 102120, Note_off_c, 1, 62, 0
2, 102120, Note_off_c, 1, 71, 0
2, 102120, Note_off_c, 1, 79, 0
2, 102160, Note_on_c, 1, 62, 127
2, 102160, Note_on_c, 1, 67, 127
2, 102160, Note_on_c, 1, 74, 127
2, 102720, Note_off_c, 1, 62, 0
2, 102720, Note_off_c, 1, 74, 0
2, 102760, Note_on_c, 1, 39, 127
2, 102760, Note_on_c, 1, 63, 127
2, 102760, Note_on_c, 1, 72, 127
2, 102960, Note_off_c, 1, 39, 0
2, 102960, Note_off_c, 1, 63, 0
2, 102960, Note_off_c, 1, 67, 0
2, 102960, Note_off_c, 1, 72, 0
2, 103000, Note_on_c, 1, 39, 127
2, 103000, Note_on_c, 1, 63, 127
2, 103000, Note_on_c, 1, 67, 127
2, 103000, Note_on_c, 1, 72, 127
2, 103360, Note_off_c, 1, 39, 0
2, 103360, Note_off_c, 1, 72, 0
2, 103400, Note_on_c, 1, 43, 127
2, 103400, Note_on_c, 1, 70, 127
2, 103960, Note_off_c, 1, 43, 0
2, 103960, Note_off_c, 1, 63, 0
2, 104000, Note_on_c, 1, 46, 127
2, 104000, Note_on_c, 1, 51, 127
2, 104560, Note_off_c, 1, 46, 0
2, 104560, Note_off_c, 1, 51, 0
2, 104600, Note_on_c, 1, 58, 127
2, 105000, Note_off_c, 1, 58, 0
2, 105000, Note_off_c, 1, 67, 0
2, 105000, Note_off_c, 1, 70, 0
2, 105040, Note_on_c, 1, 58, 127
2, 105040, Note_on_c, 1, 67, 127
2, 105040, Note_on_c, 1, 70, 127
2, 105200, Note_off_c, 1, 58, 0
2, 105240, Note_on_c, 1, 58, 127
2, 105800, Note_off_c, 1, 58, 0
2, 105840, Note_on_c, 1, 51, 127
2, 106400, Note_off_c, 1, 51, 0
2, 106400, Note_off_c, 1, 67, 0
2, 106440, Note_on_c, 1, 62, 127
2, 106440, Note_on_c, 1, 67, 127
2, 107000, Note_off_c, 1, 62, 0
2, 107040, Note_off_c, 1, 67, 0
2, 107040, Note_off_c, 1, 70, 0
2, 107080, Note_on_c, 1, 58, 127
2, 107080, Note_on_c, 1, 67, 127
2, 107080, Note_on_c, 1, 70, 127
2, 107640, Note_off_c, 1, 58, 0
2, 107640, Note_off_c, 1, 67, 0
2, 107680, Note_on_c, 1, 59, 127
2, 107680, Note_on_c, 1, 62, 127
2, 107680, Note_off_c, 1, 70, 0
2, 107680, Note_on_c, 1, 79, 127
2, 107680, Note_on_c, 1, 91, 127
2, 108240, Note_off_c, 1, 59, 0
2, 108240, Note_off_c, 1, 62, 0
2, 108280, Note_on_c, 1, 59, 127
2, 108280, Note_on_c, 1, 62, 127
2, 108840, Note_off_c, 1, 59, 0
2, 108840, Note_off_c, 1, 62, 0
2, 108880, Note_on_c, 1, 50, 127
2, 109080, Note_off_c, 1, 50, 0
2, 109080, Note_off_c, 1, 79, 0
2, 109080, Note_off_c, 1, 91, 0
2, 109120, Note_on_c, 1, 50, 127
2, 109120, Note_on_c, 1, 79, 127
2, 109120, Note_on_c, 1, 91, 127
2, 109480, Note_off_c, 1, 50, 0
2, 109520, Note_on_c, 1, 50, 127
2, 110080, Note_off_c, 1, 50, 0
2, 110120, Note_on_c, 1, 50, 127
2, 110680, Note_off_c, 1, 50, 0
2, 110720, Note_on_c, 1, 50, 127
2, 111280, Note_off_c, 1, 50, 0
2, 111280, Note_off_c, 1, 79, 0
2, 111280, Note_off_c, 1, 91, 0
2, 111360, Note_on_c, 1, 46, 127
2, 111360, Note_on_c, 1, 75, 127
2, 111360, Note_on_c, 1, 87, 127
2, 111920, Note_off_c, 1, 46, 0
2, 112560, Note_on_c, 1, 60, 127
2, 113120, Note_off_c, 1, 60, 0
2, 113160, Note_on_c, 1, 63, 127
2, 113360, Note_off_c, 1, 63, 0
2, 113360, Note_off_c, 1, 75, 0
2, 113360, Note_off_c, 1, 87, 0
2, 113400, Note_on_c, 1, 63, 127
2, 113400, Note_on_c, 1, 75, 127
2, 113400, Note_on_c, 1, 87, 127
2, 113760, Note_off_c, 1, 63, 0
2, 113760, Note_off_c, 1, 75, 0
2, 113760, Note_off_c, 1, 87, 0
2, 113800, Note_on_c, 1, 63, 127
2, 113800, Note_on_c, 1, 67, 127
2, 113800, Note_on_c, 1, 79, 127
2, 114360, Note_off_c, 1, 63, 0
2, 114360, Note_off_c, 1, 67, 0
2, 114360, Note_off_c, 1, 79, 0
2, 114400, Note_on_c, 1, 57, 127
2, 114400, Note_on_c, 1, 63, 127
2, 114400, Note_on_c, 1, 66, 127
2, 114400, Note_on_c, 1, 72, 127
2, 114400, Note_on_c, 1, 84, 127
2, 114960, Note_off_c, 1, 57, 0
2, 114960, Note_off_c, 1, 63, 0
2, 114960, Note_off_c, 1, 66, 0
2, 115000, Note_on_c, 1, 76, 127
2, 115000, Note_on_c, 1, 79, 127
2, 115560, Note_off_c, 1, 72, 0
2, 115560, Note_off_c, 1, 76, 0
2, 115560, Note_off_c, 1, 79, 0
2, 115560, Note_off_c, 1, 84, 0
2, 115640, Note_on_c, 1, 48, 127
2, 115640, Note_on_c, 1, 60, 127
2, 115640, Note_on_c, 1, 69, 127
2, 115640, Note_on_c, 1, 81, 127
2, 116800, Note_off_c, 1, 48, 0
2, 116800, Note_off_c, 1, 60, 0
2, 117640, Note_off_c, 1, 69, 0
2, 117640, Note_off_c, 1, 81, 0
2, 117680, Note_on_c, 1, 69, 127
2, 117680, Note_on_c, 1, 81, 127
2, 118040, Note_off_c, 1, 69, 0
2, 118040, Note_off_c, 1, 81, 0
2, 118080, Note_on_c, 1, 41, 127
2, 118080, Note_on_c, 1, 53, 127
2, 118080, Note_on_c, 1, 69, 127
2, 118080, Note_on_c, 1, 81, 127
2, 118640, Note_off_c, 1, 41, 0
2, 118640, Note_off_c, 1, 53, 0
2, 119240, Note_off_c, 1, 69, 0
2, 119240, Note_off_c, 1, 81, 0
2, 119280, Note_on_c, 1, 50, 127
2, 119280, Note_on_c, 1, 70, 127
2, 119280, Note_on_c, 1, 82, 127
2, 119680, Note_off_c, 1, 50, 0
2, 119680, Note_off_c, 1, 70, 0
2, 119680, Note_off_c, 1, 82, 0
2, 119720, Note_on_c, 1, 50, 127
2, 119720, Note_on_c, 1, 70, 127
2, 119720, Note_on_c, 1, 82, 127
2, 119880, Note_off_c, 1, 50, 0
2, 119920, Note_on_c, 1, 58, 127
2, 120000, Note_off_c, 1, 58, 0
2, 120000, Note_off_c, 1, 70, 0
2, 120000, Note_off_c, 1, 82, 0
2, 120040, End_track
3, 0, Start_track
3, 0, Title_t, "MIDI"
3, 1536, End_track
0, 0, End_of_file
