0, 0, Header, 1, 3, 192
1, 0, Start_track
1, 0, Time_signature, 4, 2, 24, 8
1, 0, Tempo, 500000
1, 120040, End_track
2, 0, Start_track
2, 0, Text_t, "random instrument: random person i dunno whatev"
2, 0, Title_t, "Track 1"
2, 0, Note_on_c, 1, 40, 127
2, 0, Note_on_c, 1, 48, 127
2, 0, Note_on_c, 1, 56, 127
2, 0, Note_on_c, 1, 60, 127
2, 40, Note_off_c, 1, 40, 0
2, 40, Note_off_c, 1, 48, 0
2, 40, Note_on_c, 1, 55, 127
2, 40, Note_off_c, 1, 56, 0
2, 40, Note_off_c, 1, 60, 0
2, 40, Note_on_c, 1, 72, 127
2, 40, Note_on_c, 1, 75, 127
2, 40, Note_on_c, 1, 79, 127
2, 40, Note_on_c, 1, 84, 127
2, 80, Note_off_c, 1, 55, 0
2, 80, Note_off_c, 1, 72, 0
2, 80, Note_off_c, 1, 75, 0
2, 80, Note_off_c, 1, 79, 0
2, 80, Note_off_c, 1, 84, 0
2, 120, Note_on_c, 1, 40, 127
2, 120, Note_on_c, 1, 48, 127
2, 120, Note_on_c, 1, 56, 127
2, 120, Note_on_c, 1, 60, 127
2, 160, Note_off_c, 1, 40, 0
2, 160, Note_on_c, 1, 41, 127
2, 160, Note_off_c, 1, 48, 0
2, 160, Note_on_c, 1, 50, 127
2, 160, Note_on_c, 1, 53, 127
2, 160, Note_off_c, 1, 56, 0
2, 160, Note_off_c, 1, 60, 0
2, 160, Note_on_c, 1, 81, 127
2, 160, Note_on_c, 1, 86, 127
2, 200, Note_on_c, 1, 35, 127
2, 200, Note_on_c, 1, 39, 127
2, 200, Note_off_c, 1, 41, 0
2, 200, Note_on_c, 1, 47, 127
2, 200, Note_off_c, 1, 53, 0
2, 200, Note_off_c, 1, 81, 0
2, 200, Note_off_c, 1, 86, 0
2, 240, Note_off_c, 1, 35, 0
2, 240, Note_off_c, 1, 39, 0
2, 240, Note_off_c, 1, 47, 0
2, 240, Note_off_c, 1, 50, 0
2, 240, Note_on_c, 1, 64, 127
2, 240, Note_on_c, 1, 78, 127
2, 240, Note_on_c, 1, 81, 127
2, 240, Note_on_c, 1, 83, 127
2, 240, Note_on_c, 1, 90, 127
2, 280, Note_off_c, 1, 64, 0
2, 280, Note_on_c, 1, 76, 127
2, 280, Note_off_c, 1, 78, 0
2, 280, Note_on_c, 1, 80, 127
2, 280, Note_off_c, 1, 81, 0
2, 280, Note_on_c, 1, 89, 127
2, 280, Note_off_c, 1, 90, 0
2, 320, Note_on_c, 1, 64, 127
2, 320, Note_off_c, 1, 76, 0
2, 320, Note_off_c, 1, 80, 0
2, 320, Note_on_c, 1, 81, 127
2, 320, Note_off_c, 1, 89, 0
2, 320, Note_on_c, 1, 90, 127
2, 360, Note_on_c, 1, 52, 127
2, 360, Note_on_c, 1, 59, 127
2, 360, Note_on_c, 1, 62, 127
2, 360, Note_off_c, 1, 64, 0
2, 360, Note_on_c, 1, 80, 127
2, 360, Note_off_c, 1, 81, 0
2, 360, Note_off_c, 1, 83, 0
2, 360, Note_off_c, 1, 90, 0
2, 360, Note_on_c, 1, 91, 127
2, 400, Note_off_c, 1, 52, 0
2, 400, Note_off_c, 1, 59, 0
2, 400, Note_off_c, 1, 62, 0
2, 400, Note_on_c, 1, 64, 127
2, 400, Note_off_c, 1, 80, 0
2, 400, Note_on_c, 1, 85, 127
2, 400, Note_on_c, 1, 88, 127
2, 400, Note_off_c, 1, 91, 0
2, 400, Note_on_c, 1, 92, 127
2, 440, Note_on_c, 1, 38, 127
2, 440, Note_on_c, 1, 45, 127
2, 440, Note_on_c, 1, 47, 127
2, 440, Note_on_c, 1, 56, 127
2, 440, Note_off_c, 1, 64, 0
2, 440, Note_on_c, 1, 68, 127
2, 440, Note_off_c, 1, 85, 0
2, 440, Note_off_c, 1, 88, 0
2, 440, Note_off_c, 1, 92, 0
2, 480, Note_on_c, 1, 32, 127
2, 480, Note_on_c, 1, 37, 127
2, 480, Note_off_c, 1, 38, 0
2, 480, Note_off_c, 1, 47, 0
2, 480, Note_on_c, 1, 48, 127
2, 480, Note_on_c, 1, 54, 127
2, 480, Note_off_c, 1, 56, 0
2, 480, Note_off_c, 1, 68, 0
2, 520, Note_off_c, 1, 32, 0
2, 520, Note_off_c, 1, 37, 0
2, 520, Note_on_c, 1, 43, 127
2, 520, Note_off_c, 1, 45, 0
2, 520, Note_on_c, 1, 46, 127
2, 520, Note_off_c, 1, 48, 0
2, 520, Note_on_c, 1, 51, 127
2, 520, Note_off_c, 1, 54, 0
2, 520, Note_on_c, 1, 55, 127
2, 560, Note_off_c, 1, 43, 0
2, 560, Note_off_c, 1, 46, 0
2, 560, Note_off_c, 1, 51, 0
2, 560, Note_on_c, 1, 53, 127
2, 560, Note_off_c, 1, 55, 0
2, 560, Note_on_c, 1, 85, 127
2, 560, Note_on_c, 1, 92, 127
2, 560, Note_on_c, 1, 95, 127
2, 560, Note_on_c, 1, 97, 127
2, 600, Note_on_c, 1, 44, 127
2, 600, Note_on_c, 1, 52, 127
2, 600, Note_off_c, 1, 53, 0
2, 600, Note_on_c, 1, 72, 127
2, 600, Note_on_c, 1, 76, 127
2, 600, Note_off_c, 1, 85, 0
2, 600, Note_off_c, 1, 92, 0
2, 600, Note_off_c, 1, 95, 0
2, 600, Note_off_c, 1, 97, 0
2, 640, Note_on_c, 1, 35, 127
2, 640, Note_on_c, 1, 39, 127
2, 640, Note_on_c, 1, 42, 127
2, 640, Note_off_c, 1, 44, 0
2, 640, Note_on_c, 1, 47, 127
2, 640, Note_off_c, 1, 52, 0
2, 640, Note_on_c, 1, 54, 127
2, 640, Note_on_c, 1, 57, 127
2, 640, Note_on_c, 1, 63, 127
2, 640, Note_off_c, 1, 72, 0
2, 640, Note_off_c, 1, 76, 0
2, 680, Note_off_c, 1, 35, 0
2, 680, Note_off_c, 1, 39, 0
2, 680, Note_on_c, 1, 41, 127
2, 680, Note_off_c, 1, 42, 0
2, 680, Note_off_c, 1, 54, 0
2, 680, Note_off_c, 1, 57, 0
2, 680, Note_off_c, 1, 63, 0
2, 720, Note_off_c, 1, 47, 0
2, 720, Note_on_c, 1, 51, 127
2, 720, Note_on_c, 1, 53, 127
2, 720, Note_on_c, 1, 72, 127
2, 760, Note_off_c, 1, 41, 0
2, 760, Note_off_c, 1, 51, 0
2, 760, Note_on_c, 1, 52, 127
2, 760, Note_off_c, 1, 53, 0
2, 760, Note_on_c, 1, 56, 127
2, 760, Note_on_c, 1, 62, 127
2, 760, Note_off_c, 1, 72, 0
2, 760, Note_on_c, 1, 78, 127
2, 800, Note_off_c, 1, 52, 0
2, 800, Note_off_c, 1, 56, 0
2, 800, Note_off_c, 1, 62, 0
2, 800, Note_on_c, 1, 73, 127
2, 800, Note_on_c, 1, 81, 127
2, 800, Note_on_c, 1, 93, 127
2, 840, Note_on_c, 1, 53, 127
2, 840, Note_on_c, 1, 59, 127
2, 840, Note_on_c, 1, 63, 127
2, 840, Note_on_c, 1, 68, 127
2, 840, Note_off_c, 1, 73, 0
2, 840, Note_off_c, 1, 78, 0
2, 840, Note_on_c, 1, 80, 127
2, 840, Note_off_c, 1, 81, 0
2, 840, Note_on_c, 1, 83, 127
2, 840, Note_off_c, 1, 93, 0
2, 880, Note_off_c, 1, 59, 0
2, 880, Note_on_c, 1, 60, 127
2, 880, Note_off_c, 1, 68, 0
2, 880, Note_on_c, 1, 70, 127
2, 880, Note_off_c, 1, 80, 0
2, 880, Note_off_c, 1, 83, 0
2, 880, Note_on_c, 1, 99, 127
2, 920, Note_on_c, 1, 47, 127
2, 920, Note_on_c, 1, 52, 127
2, 920, Note_off_c, 1, 53, 0
2, 920, Note_on_c, 1, 55, 127
2, 920, Note_on_c, 1, 59, 127
2, 920, Note_off_c, 1, 60, 0
2, 920, Note_off_c, 1, 63, 0
2, 920, Note_off_c, 1, 70, 0
2, 920, Note_on_c, 1, 88, 127
2, 920, Note_off_c, 1, 99, 0
2, 960, Note_on_c, 1, 28, 127
2, 960, Note_on_c, 1, 40, 127
2, 960, Note_off_c, 1, 52, 0
2, 960, Note_off_c, 1, 55, 0
2, 960, Note_off_c, 1, 59, 0
2, 960, Note_on_c, 1, 66, 127
2, 960, Note_on_c, 1, 67, 127
2, 960, Note_on_c, 1, 71, 127
2, 960, Note_on_c, 1, 76, 127
2, 960, Note_on_c, 1, 78, 127
2, 960, Note_on_c, 1, 79, 127
2, 960, Note_on_c, 1, 83, 127
2, 960, Note_off_c, 1, 88, 0
2, 960, Note_on_c, 1, 90, 127
2, 960, Note_on_c, 1, 91, 127
2, 1000, Note_off_c, 1, 28, 0
2, 1000, Note_on_c, 1, 37, 127
2, 1000, Note_off_c, 1, 40, 0
2, 1000, Note_off_c, 1, 47, 0
2, 1000, Note_on_c, 1, 49, 127
2, 1000, Note_on_c, 1, 54, 127
2, 1000, Note_on_c, 1, 58, 127
2, 1000, Note_off_c, 1, 67, 0
2, 1000, Note_off_c, 1, 71, 0
2, 1000, Note_off_c, 1, 76, 0
2, 1000, Note_off_c, 1, 78, 0
2, 1000, Note_off_c, 1, 79, 0
2, 1000, Note_off_c, 1, 83, 0
2, 1000, Note_off_c, 1, 90, 0
2, 1000, Note_off_c, 1, 91, 0
2, 1040, Note_off_c, 1, 37, 0
2, 1040, Note_on_c, 1, 40, 127
2, 1040, Note_off_c, 1, 49, 0
2, 1040, Note_on_c, 1, 52, 127
2, 1040, Note_off_c, 1, 54, 0
2, 1040, Note_off_c, 1, 58, 0
2, 1040, Note_on_c, 1, 59, 127
2, 1040, Note_on_c, 1, 62, 127
2, 1040, Note_off_c, 1, 66, 0
2, 1040, Note_on_c, 1, 68, 127
2, 1040, Note_on_c, 1, 94, 127
2, 1080, Note_off_c, 1, 40, 0
2, 1080, Note_off_c, 1, 52, 0
2, 1080, Note_on_c, 1, 54, 127
2, 1080, Note_on_c, 1, 65, 127
2, 1080, Note_off_c, 1, 68, 0
2, 1080, Note_off_c, 1, 94, 0
2, 1080, Note_on_c, 1, 101, 127
2, 1080, Note_on_c, 1, 102, 127
2, 1120, Note_off_c, 1, 54, 0
2, 1120, Note_on_c, 1, 56, 127
2, 1120, Note_on_c, 1, 61, 127
2, 1120, Note_off_c, 1, 62, 0
2, 1120, Note_off_c, 1, 65, 0
2, 1120, Note_on_c, 1, 68, 127
2, 1120, Note_off_c, 1, 101, 0
2, 1120, Note_off_c, 1, 102, 0
2, 1160, Note_on_c, 1, 39, 127
2, 1160, Note_on_c, 1, 41, 127
2, 1160, Note_on_c, 1, 44, 127
2, 1160, Note_on_c, 1, 51, 127
2, 1160, Note_off_c, 1, 56, 0
2, 1160, Note_off_c, 1, 59, 0
2, 1160, Note_off_c, 1, 61, 0
2, 1160, Note_off_c, 1, 68, 0
2, 1160, Note_on_c, 1, 75, 127
2, 1200, Note_off_c, 1, 39, 0
2, 1200, Note_off_c, 1, 41, 0
2, 1200, Note_off_c, 1, 44, 0
2, 1200, Note_on_c, 1, 46, 127
2, 1200, Note_off_c, 1, 51, 0
2, 1200, Note_on_c, 1, 65, 127
2, 1200, Note_on_c, 1, 70, 127
2, 1200, Note_on_c, 1, 77, 127
2, 1240, Note_off_c, 1, 46, 0
2, 1240, Note_on_c, 1, 56, 127
2, 1240, Note_off_c, 1, 70, 0
2, 1240, Note_on_c, 1, 71, 127
2, 1240, Note_on_c, 1, 73, 127
2, 1240, Note_on_c, 1, 74, 127
2, 1240, Note_off_c, 1, 75, 0
2, 1240, Note_off_c, 1, 77, 0
2, 1240, Note_on_c, 1, 80, 127
2, 1280, Note_on_c, 1, 40, 127
2, 1280, Note_on_c, 1, 49, 127
2, 1280, Note_off_c, 1, 56, 0
2, 1280, Note_off_c, 1, 65, 0
2, 1280, Note_off_c, 1, 71, 0
2, 1280, Note_off_c, 1, 73, 0
2, 1280, Note_off_c, 1, 74, 0
2, 1280, Note_on_c, 1, 79, 127
2, 1280, Note_off_c, 1, 80, 0
2, 1320, Note_on_c, 1, 24, 127
2, 1320, Note_on_c, 1, 36, 127
2, 1320, Note_off_c, 1, 40, 0
2, 1320, Note_off_c, 1, 49, 0
2, 1320, Note_on_c, 1, 76, 127
2, 1320, Note_off_c, 1, 79, 0
2, 1360, Note_off_c, 1, 24, 0
2, 1360, Note_off_c, 1, 36, 0
2, 1360, Note_on_c, 1, 55, 127
2, 1360, Note_on_c, 1, 72, 127
2, 1360, Note_on_c, 1, 73, 127
2, 1360, Note_off_c, 1, 76, 0
2, 1400, Note_off_c, 1, 55, 0
2, 1400, Note_on_c, 1, 58, 127
2, 1400, Note_on_c, 1, 66, 127
2, 1400, Note_on_c, 1, 70, 127
2, 1400, Note_off_c, 1, 72, 0
2, 1400, Note_on_c, 1, 75, 127
2, 1400, Note_on_c, 1, 85, 127
2, 1600, Note_on_c, 1, 42, 127
2, 1600, Note_on_c, 1, 49, 127
2, 1600, Note_on_c, 1, 54, 127
2, 1600, Note_off_c, 1, 58, 0
2, 1600, Note_off_c, 1, 66, 0
2, 1600, Note_off_c, 1, 70, 0
2, 1600, Note_off_c, 1, 73, 0
2, 1600, Note_off_c, 1, 75, 0
2, 1600, Note_on_c, 1, 82, 127
2, 1600, Note_off_c, 1, 85, 0
2, 1600, Note_on_c, 1, 90, 127
2, 1600, Note_on_c, 1, 94, 127
2, 1640, Note_off_c, 1, 42, 0
2, 1640, Note_off_c, 1, 49, 0
2, 1640, Note_off_c, 1, 54, 0
2, 1640, Note_on_c, 1, 58, 127
2, 1640, Note_on_c, 1, 66, 127
2, 1640, Note_on_c, 1, 70, 127
2, 1640, Note_on_c, 1, 73, 127
2, 1640, Note_on_c, 1, 75, 127
2, 1640, Note_off_c, 1, 82, 0
2, 1640, Note_on_c, 1, 85, 127
2, 1640, Note_off_c, 1, 90, 0
2, 1640, Note_off_c, 1, 94, 0
2, 1680, Note_on_c, 1, 36, 127
2, 1680, Note_on_c, 1, 43, 127
2, 1680, Note_on_c, 1, 48, 127
2, 1680, Note_on_c, 1, 52, 127
2, 1680, Note_off_c, 1, 58, 0
2, 1680, Note_on_c, 1, 60, 127
2, 1680, Note_off_c, 1, 66, 0
2, 1680, Note_off_c, 1, 70, 0
2, 1680, Note_off_c, 1, 73, 0
2, 1680, Note_off_c, 1, 75, 0
2, 1680, Note_off_c, 1, 85, 0
2, 1680, Note_on_c, 1, 87, 127
2, 1720, Note_off_c, 1, 36, 0
2, 1720, Note_off_c, 1, 43, 0
2, 1720, Note_off_c, 1, 48, 0
2, 1720, Note_off_c, 1, 52, 0
2, 1720, Note_on_c, 1, 58, 127
2, 1720, Note_off_c, 1, 60, 0
2, 1720, Note_on_c, 1, 66, 127
2, 1720, Note_on_c, 1, 70, 127
2, 1720, Note_on_c, 1, 73, 127
2, 1720, Note_on_c, 1, 75, 127
2, 1720, Note_on_c, 1, 85, 127
2, 1720, Note_off_c, 1, 87, 0
2, 1760, Note_off_c, 1, 58, 0
2, 1760, Note_off_c, 1, 66, 0
2, 1760, Note_off_c, 1, 70, 0
2, 1760, Note_off_c, 1, 73, 0
2, 1760, Note_off_c, 1, 75, 0
2, 1760, Note_off_c, 1, 85, 0
2, 1800, Note_on_c, 1, 58, 127
2, 1800, Note_on_c, 1, 66, 127
2, 1800, Note_on_c, 1, 70, 127
2, 1800, Note_on_c, 1, 73, 127
2, 1800, Note_on_c, 1, 75, 127
2, 1800, Note_on_c, 1, 85, 127
2, 1840, Note_off_c, 1, 58, 0
2, 1840, Note_on_c, 1, 63, 127
2, 1840, Note_off_c, 1, 66, 0
2, 1840, Note_off_c, 1, 70, 0
2, 1840, Note_on_c, 1, 72, 127
2, 1840, Note_off_c, 1, 73, 0
2, 1840, Note_off_c, 1, 75, 0
2, 1840, Note_off_c, 1, 85, 0
2, 1840, Note_on_c, 1, 91, 127
2, 1880, Note_off_c, 1, 63, 0
2, 1880, Note_off_c, 1, 72, 0
2, 1880, Note_on_c, 1, 73, 127
2, 1880, Note_on_c, 1, 75, 127
2, 1880, Note_off_c, 1, 91, 0
2, 1920, Note_on_c, 1, 34, 127
2, 1920, Note_on_c, 1, 46, 127
2, 1920, Note_on_c, 1, 58, 127
2, 1920, Note_on_c, 1, 65, 127
2, 1920, Note_on_c, 1, 68, 127
2, 1920, Note_off_c, 1, 73, 0
2, 1920, Note_off_c, 1, 75, 0
2, 1960, Note_off_c, 1, 34, 0
2, 1960, Note_on_c, 1, 45, 127
2, 1960, Note_off_c, 1, 46, 0
2, 1960, Note_on_c, 1, 52, 127
2, 1960, Note_on_c, 1, 55, 127
2, 1960, Note_off_c, 1, 58, 0
2, 1960, Note_on_c, 1, 64, 127
2, 1960, Note_off_c, 1, 65, 0
2, 1960, Note_on_c, 1, 67, 127
2, 1960, Note_off_c, 1, 68, 0
2, 1960, Note_on_c, 1, 70, 127
2, 2000, Note_on_c, 1, 42, 127
2, 2000, Note_off_c, 1, 45, 0
2, 2000, Note_on_c, 1, 50, 127
2, 2000, Note_off_c, 1, 52, 0
2, 2000, Note_off_c, 1, 55, 0
2, 2000, Note_on_c, 1, 62, 127
2, 2000, Note_off_c, 1, 64, 0
2, 2000, Note_off_c, 1, 67, 0
2, 2040, Note_off_c, 1, 42, 0
2, 2040, Note_off_c, 1, 50, 0
2, 2040, Note_on_c, 1, 58, 127
2, 2040, Note_off_c, 1, 62, 0
2, 2040, Note_on_c, 1, 63, 127
2, 2040, Note_on_c, 1, 65, 127
2, 2040, Note_off_c, 1, 70, 0
2, 2040, Note_on_c, 1, 73, 127
2, 2080, Note_off_c, 1, 58, 0
2, 2080, Note_off_c, 1, 63, 0
2, 2080, Note_off_c, 1, 65, 0
2, 2080, Note_off_c, 1, 73, 0
2, 2080, Note_on_c, 1, 82, 127
2, 2080, Note_on_c, 1, 94, 127
2, 2080, Note_on_c, 1, 96, 127
2, 2080, Note_on_c, 1, 98, 127
2, 2120, Note_on_c, 1, 49, 127
2, 2120, Note_off_c, 1, 82, 0
2, 2120, Note_on_c, 1, 86, 127
2, 2120, Note_on_c, 1, 90, 127
2, 2120, Note_off_c, 1, 94, 0
2, 2120, Note_off_c, 1, 96, 0
2, 2160, Note_off_c, 1, 49, 0
2, 2160, Note_on_c, 1, 57, 127
2, 2160, Note_on_c, 1, 66, 127
2, 2160, Note_on_c, 1, 69, 127
2, 2160, Note_off_c, 1, 86, 0
2, 2160, Note_on_c, 1, 88, 127
2, 2160, Note_off_c, 1, 98, 0
2, 2200, Note_on_c, 1, 53, 127
2, 2200, Note_off_c, 1, 57, 0
2, 2200, Note_off_c, 1, 66, 0
2, 2200, Note_off_c, 1, 69, 0
2, 2200, Note_on_c, 1, 84, 127
2, 2200, Note_off_c, 1, 88, 0
2, 2200, Note_off_c, 1, 90, 0
2, 2200, Note_on_c, 1, 93, 127
2, 2200, Note_on_c, 1, 96, 127
2, 2240, Note_off_c, 1, 53, 0
2, 2240, Note_on_c, 1, 61, 127
2, 2240, Note_on_c, 1, 75, 127
2, 2240, Note_on_c, 1, 80, 127
2, 2240, Note_off_c, 1, 84, 0
2, 2240, Note_off_c, 1, 93, 0
2, 2240, Note_off_c, 1, 96, 0
2, 2280, Note_on_c, 1, 54, 127
2, 2280, Note_on_c, 1, 57, 127
2, 2280, Note_on_c, 1, 66, 127
2, 2280, Note_off_c, 1, 75, 0
2, 2280, Note_off_c, 1, 80, 0
2, 2280, Note_on_c, 1, 83, 127
2, 2320, Note_on_c, 1, 32, 127
2, 2320, Note_on_c, 1, 35, 127
2, 2320, Note_on_c, 1, 44, 127
2, 2320, Note_off_c, 1, 54, 0
2, 2320, Note_off_c, 1, 57, 0
2, 2320, Note_off_c, 1, 61, 0
2, 2320, Note_off_c, 1, 66, 0
2, 2320, Note_on_c, 1, 82, 127
2, 2320, Note_off_c, 1, 83, 0
2, 2360, Note_off_c, 1, 32, 0
2, 2360, Note_off_c, 1, 35, 0
2, 2360, Note_on_c, 1, 43, 127
2, 2360, Note_off_c, 1, 44, 0
2, 2360, Note_on_c, 1, 49, 127
2, 2360, Note_on_c, 1, 52, 127
2, 2360, Note_on_c, 1, 55, 127
2, 2360, Note_off_c, 1, 82, 0
2, 2360, Note_on_c, 1, 88, 127
2, 2360, Note_on_c, 1, 93, 127
2, 2400, Note_off_c, 1, 43, 0
2, 2400, Note_off_c, 1, 49, 0
2, 2400, Note_off_c, 1, 55, 0
2, 2400, Note_on_c, 1, 59, 127
2, 2400, Note_on_c, 1, 61, 127
2, 2400, Note_on_c, 1, 66, 127
2, 2400, Note_on_c, 1, 69, 127
2, 2400, Note_on_c, 1, 73, 127
2, 2400, Note_off_c, 1, 88, 0
2, 2400, Note_off_c, 1, 93, 0
2, 2440, Note_off_c, 1, 52, 0
2, 2440, Note_off_c, 1, 59, 0
2, 2440, Note_off_c, 1, 61, 0
2, 2440, Note_off_c, 1, 66, 0
2, 2440, Note_off_c, 1, 69, 0
2, 2440, Note_on_c, 1, 71, 127
2, 2440, Note_off_c, 1, 73, 0
2, 2440, Note_on_c, 1, 87, 127
2, 2440, Note_on_c, 1, 99, 127
2, 2440, Note_on_c, 1, 100, 127
2, 2440, Note_on_c, 1, 102, 127
2, 2480, Note_on_c, 1, 48, 127
2, 2480, Note_on_c, 1, 51, 127
2, 2480, Note_on_c, 1, 56, 127
2, 2480, Note_off_c, 1, 71, 0
2, 2480, Note_off_c, 1, 87, 0
2, 2480, Note_on_c, 1, 92, 127
2, 2480, Note_off_c, 1, 99, 0
2, 2480, Note_off_c, 1, 100, 0
2, 2480, Note_off_c, 1, 102, 0
2, 2520, Note_on_c, 1, 35, 127
2, 2520, Note_on_c, 1, 42, 127
2, 2520, Note_off_c, 1, 48, 0
2, 2520, Note_off_c, 1, 51, 0
2, 2520, Note_on_c, 1, 54, 127
2, 2520, Note_off_c, 1, 56, 0
2, 2520, Note_on_c, 1, 74, 127
2, 2520, Note_on_c, 1, 77, 127
2, 2520, Note_on_c, 1, 83, 127
2, 2520, Note_off_c, 1, 92, 0
2, 2560, Note_off_c, 1, 35, 0
2, 2560, Note_off_c, 1, 42, 0
2, 2560, Note_off_c, 1, 54, 0
2, 2560, Note_off_c, 1, 74, 0
2, 2560, Note_off_c, 1, 77, 0
2, 2560, Note_off_c, 1, 83, 0
2, 2560, Note_on_c, 1, 88, 127
2, 2560, Note_on_c, 1, 93, 127
2, 2560, Note_on_c, 1, 97, 127
2, 2600, Note_on_c, 1, 26, 127
2, 2600, Note_on_c, 1, 38, 127
2, 2600, Note_on_c, 1, 72, 127
2, 2600, Note_off_c, 1, 88, 0
2, 2600, Note_off_c, 1, 93, 0
2, 2600, Note_off_c, 1, 97, 0
2, 2640, Note_off_c, 1, 26, 0
2, 2640, Note_on_c, 1, 36, 127
2, 2640, Note_off_c, 1, 38, 0
2, 2640, Note_on_c, 1, 43, 127
2, 2640, Note_on_c, 1, 71, 127
2, 2640, Note_off_c, 1, 72, 0
2, 2640, Note_on_c, 1, 81, 127
2, 2680, Note_off_c, 1, 36, 0
2, 2680, Note_on_c, 1, 38, 127
2, 2680, Note_off_c, 1, 43, 0
2, 2680, Note_on_c, 1, 67, 127
2, 2680, Note_off_c, 1, 71, 0
2, 2680, Note_off_c, 1, 81, 0
2, 2680, Note_on_c, 1, 83, 127
2, 2680, Note_on_c, 1, 86, 127
2, 2680, Note_on_c, 1, 90, 127
2, 2720, Note_off_c, 1, 38, 0
2, 2720, Note_on_c, 1, 50, 127
2, 2720, Note_on_c, 1, 56, 127
2, 2720, Note_on_c, 1, 58, 127
2, 2720, Note_off_c, 1, 67, 0
2, 2720, Note_on_c, 1, 82, 127
2, 2720, Note_off_c, 1, 83, 0
2, 2720, Note_on_c, 1, 85, 127
2, 2720, Note_off_c, 1, 86, 0
2, 2720, Note_off_c, 1, 90, 0
2, 2720, Note_on_c, 1, 94, 127
2, 2760, Note_on_c, 1, 47, 127
2, 2760, Note_on_c, 1, 49, 127
2, 2760, Note_off_c, 1, 50, 0
2, 2760, Note_on_c, 1, 52, 127
2, 2760, Note_on_c, 1, 54, 127
2, 2760, Note_off_c, 1, 56, 0
2, 2760, Note_on_c, 1, 76, 127
2, 2760, Note_off_c, 1, 82, 0
2, 2760, Note_off_c, 1, 85, 0
2, 2760, Note_off_c, 1, 94, 0
2, 2800, Note_on_c, 1, 37, 127
2, 2800, Note_on_c, 1, 41, 127
2, 2800, Note_off_c, 1, 47, 0
2, 2800, Note_off_c, 1, 49, 0
2, 2800, Note_off_c, 1, 52, 0
2, 2800, Note_off_c, 1, 54, 0
2, 2800, Note_off_c, 1, 58, 0
2, 2800, Note_off_c, 1, 76, 0
2, 2800, Note_on_c, 1, 89, 127
2, 2800, Note_on_c, 1, 97, 127
2, 2800, Note_on_c, 1, 101, 127
2, 2840, Note_off_c, 1, 37, 0
2, 2840, Note_off_c, 1, 41, 0
2, 2840, Note_on_c, 1, 59, 127
2, 2840, Note_on_c, 1, 68, 127
2, 2840, Note_on_c, 1, 71, 127
2, 2840, Note_off_c, 1, 89, 0
2, 2840, Note_on_c, 1, 90, 127
2, 2840, Note_on_c, 1, 92, 127
2, 2840, Note_off_c, 1, 97, 0
2, 2840, Note_off_c, 1, 101, 0
2, 2880, Note_off_c, 1, 59, 0
2, 2880, Note_on_c, 1, 65, 127
2, 2880, Note_off_c, 1, 68, 0
2, 2880, Note_off_c, 1, 71, 0
2, 2880, Note_on_c, 1, 74, 127
2, 2880, Note_on_c, 1, 86, 127
2, 2880, Note_on_c, 1, 89, 127
2, 2880, Note_off_c, 1, 90, 0
2, 2880, Note_off_c, 1, 92, 0
2, 2920, Note_on_c, 1, 45, 127
2, 2920, Note_on_c, 1, 57, 127
2, 2920, Note_off_c, 1, 65, 0
2, 2920, Note_off_c, 1, 74, 0
2, 2920, Note_off_c, 1, 86, 0
2, 2920, Note_off_c, 1, 89, 0
2, 2920, Note_on_c, 1, 102, 127
2, 2960, Note_on_c, 1, 27, 127
2, 2960, Note_on_c, 1, 40, 127
2, 2960, Note_off_c, 1, 45, 0
2, 2960, Note_off_c, 1, 57, 0
2, 2960, Note_on_c, 1, 80, 127
2, 2960, Note_on_c, 1, 85, 127
2, 2960, Note_off_c, 1, 102, 0
2, 3000, Note_off_c, 1, 27, 0
2, 3000, Note_off_c, 1, 40, 0
2, 3000, Note_on_c, 1, 75, 127
2, 3000, Note_off_c, 1, 80, 0
2, 3000, Note_on_c, 1, 82, 127
2, 3000, Note_off_c, 1, 85, 0
2, 3000, Note_on_c, 1, 99, 127
2, 3000, Note_on_c, 1, 104, 127
2, 3040, Note_on_c, 1, 50, 127
2, 3040, Note_on_c, 1, 54, 127
2, 3040, Note_on_c, 1, 59, 127
2, 3040, Note_on_c, 1, 62, 127
2, 3040, Note_off_c, 1, 75, 0
2, 3040, Note_off_c, 1, 82, 0
2, 3040, Note_off_c, 1, 99, 0
2, 3080, Note_off_c, 1, 50, 0
2, 3080, Note_off_c, 1, 54, 0
2, 3080, Note_off_c, 1, 59, 0
2, 3080, Note_off_c, 1, 62, 0
2, 3080, Note_on_c, 1, 96, 127
2, 3080, Note_on_c, 1, 97, 127
2, 3080, Note_on_c, 1, 101, 127
2, 3080, Note_on_c, 1, 102, 127
2, 3080, Note_off_c, 1, 104, 0
2, 3120, Note_on_c, 1, 39, 127
2, 3120, Note_off_c, 1, 96, 0
2, 3120, Note_off_c, 1, 97, 0
2, 3120, Note_off_c, 1, 101, 0
2, 3120, Note_off_c, 1, 102, 0
2, 3120, Note_on_c, 1, 103, 127
2, 3160, Note_off_c, 1, 39, 0
2, 3160, Note_on_c, 1, 58, 127
2, 3160, Note_on_c, 1, 66, 127
2, 3160, Note_on_c, 1, 70, 127
2, 3160, Note_on_c, 1, 82, 127
2, 3160, Note_on_c, 1, 85, 127
2, 3160, Note_on_c, 1, 90, 127
2, 3160, Note_on_c, 1, 94, 127
2, 3160, Note_off_c, 1, 103, 0
2, 3200, Note_on_c, 1, 37, 127
2, 3200, Note_on_c, 1, 44, 127
2, 3200, Note_on_c, 1, 53, 127
2, 3200, Note_off_c, 1, 58, 0
2, 3200, Note_on_c, 1, 65, 127
2, 3200, Note_off_c, 1, 66, 0
2, 3200, Note_off_c, 1, 70, 0
2, 3200, Note_on_c, 1, 77, 127
2, 3200, Note_off_c, 1, 82, 0
2, 3200, Note_off_c, 1, 85, 0
2, 3200, Note_off_c, 1, 90, 0
2, 3200, Note_off_c, 1, 94, 0
2, 3240, Note_off_c, 1, 37, 0
2, 3240, Note_off_c, 1, 44, 0
2, 3240, Note_off_c, 1, 53, 0
2, 3240, Note_off_c, 1, 65, 0
2, 3240, Note_off_c, 1, 77, 0
2, 3240, Note_on_c, 1, 78, 127
2, 3240, Note_on_c, 1, 90, 127
2, 3240, Note_on_c, 1, 94, 127
2, 3240, Note_on_c, 1, 96, 127
2, 3280, Note_on_c, 1, 52, 127
2, 3280, Note_on_c, 1, 74, 127
2, 3280, Note_off_c, 1, 78, 0
2, 3280, Note_on_c, 1, 84, 127
2, 3280, Note_off_c, 1, 90, 0
2, 3280, Note_off_c, 1, 94, 0
2, 3280, Note_off_c, 1, 96, 0
2, 3320, Note_on_c, 1, 46, 127
2, 3320, Note_off_c, 1, 52, 0
2, 3320, Note_on_c, 1, 58, 127
2, 3320, Note_off_c, 1, 74, 0
2, 3320, Note_off_c, 1, 84, 0
2, 3320, Note_on_c, 1, 89, 127
2, 3320, Note_on_c, 1, 101, 127
2, 3360, Note_off_c, 1, 46, 0
2, 3360, Note_on_c, 1, 52, 127
2, 3360, Note_on_c, 1, 55, 127
2, 3360, Note_on_c, 1, 60, 127
2, 3360, Note_on_c, 1, 64, 127
2, 3360, Note_on_c, 1, 86, 127
2, 3360, Note_off_c, 1, 89, 0
2, 3360, Note_off_c, 1, 101, 0
2, 3400, Note_on_c, 1, 42, 127
2, 3400, Note_on_c, 1, 44, 127
2, 3400, Note_on_c, 1, 51, 127
2, 3400, Note_off_c, 1, 52, 0
2, 3400, Note_on_c, 1, 54, 127
2, 3400, Note_off_c, 1, 55, 0
2, 3400, Note_on_c, 1, 56, 127
2, 3400, Note_off_c, 1, 58, 0
2, 3400, Note_off_c, 1, 60, 0
2, 3400, Note_off_c, 1, 64, 0
2, 3400, Note_off_c, 1, 86, 0
2, 3440, Note_off_c, 1, 42, 0
2, 3440, Note_off_c, 1, 44, 0
2, 3440, Note_on_c, 1, 50, 127
2, 3440, Note_off_c, 1, 51, 0
2, 3440, Note_off_c, 1, 54, 0
2, 3440, Note_on_c, 1, 55, 127
2, 3440, Note_off_c, 1, 56, 0
2, 3440, Note_on_c, 1, 62, 127
2, 3440, Note_on_c, 1, 65, 127
2, 3440, Note_on_c, 1, 77, 127
2, 3480, Note_off_c, 1, 50, 0
2, 3480, Note_on_c, 1, 53, 127
2, 3480, Note_off_c, 1, 55, 0
2, 3480, Note_off_c, 1, 62, 0
2, 3480, Note_off_c, 1, 65, 0
2, 3480, Note_on_c, 1, 74, 127
2, 3480, Note_on_c, 1, 84, 127
2, 3520, Note_on_c, 1, 52, 127
2, 3520, Note_off_c, 1, 53, 0
2, 3520, Note_on_c, 1, 54, 127
2, 3520, Note_on_c, 1, 61, 127
2, 3520, Note_off_c, 1, 74, 0
2, 3520, Note_off_c, 1, 77, 0
2, 3520, Note_on_c, 1, 83, 127
2, 3520, Note_off_c, 1, 84, 0
2, 3560, Note_on_c, 1, 48, 127
2, 3560, Note_off_c, 1, 54, 0
2, 3560, Note_off_c, 1, 61, 0
2, 3560, Note_on_c, 1, 67, 127
2, 3560, Note_on_c, 1, 73, 127
2, 3560, Note_off_c, 1, 83, 0
2, 3600, Note_off_c, 1, 48, 0
2, 3600, Note_off_c, 1, 52, 0
2, 3600, Note_on_c, 1, 60, 127
2, 3600, Note_off_c, 1, 67, 0
2, 3600, Note_off_c, 1, 73, 0
2, 3600, Note_on_c, 1, 88, 127
2, 3600, Note_on_c, 1, 95, 127
2, 3640, Note_off_c, 1, 60, 0
2, 3640, Note_on_c, 1, 62, 127
2, 3640, Note_on_c, 1, 77, 127
2, 3640, Note_on_c, 1, 82, 127
2, 3640, Note_off_c, 1, 88, 0
2, 3640, Note_off_c, 1, 95, 0
2, 3680, Note_off_c, 1, 62, 0
2, 3680, Note_off_c, 1, 77, 0
2, 3680, Note_off_c, 1, 82, 0
2, 3720, Note_on_c, 1, 61, 127
2, 3720, Note_on_c, 1, 63, 127
2, 3720, Note_on_c, 1, 67, 127
2, 3720, Note_on_c, 1, 70, 127
2, 3720, Note_on_c, 1, 75, 127
2, 3720, Note_on_c, 1, 87, 127
2, 3760, Note_on_c, 1, 53, 127
2, 3760, Note_on_c, 1, 56, 127
2, 3760, Note_on_c, 1, 60, 127
2, 3760, Note_off_c, 1, 61, 0
2, 3760, Note_off_c, 1, 63, 0
2, 3760, Note_on_c, 1, 65, 127
2, 3760, Note_off_c, 1, 67, 0
2, 3760, Note_off_c, 1, 70, 0
2, 3760, Note_off_c, 1, 75, 0
2, 3760, Note_on_c, 1, 84, 127
2, 3760, Note_off_c, 1, 87, 0
2, 3800, Note_off_c, 1, 53, 0
2, 3800, Note_off_c, 1, 56, 0
2, 3800, Note_off_c, 1, 60, 0
2, 3800, Note_on_c, 1, 61, 127
2, 3800, Note_off_c, 1, 65, 0
2, 3800, Note_on_c, 1, 67, 127
2, 3800, Note_on_c, 1, 70, 127
2, 3800, Note_on_c, 1, 73, 127
2, 3800, Note_on_c, 1, 76, 127
2, 3800, Note_on_c, 1, 79, 127
2, 3800, Note_off_c, 1, 84, 0
2, 3840, Note_on_c, 1, 53, 127
2, 3840, Note_off_c, 1, 67, 0
2, 3840, Note_on_c, 1, 68, 127
2, 3840, Note_off_c, 1, 70, 0
2, 3840, Note_on_c, 1, 71, 127
2, 3840, Note_off_c, 1, 76, 0
2, 3840, Note_off_c, 1, 79, 0
2, 3840, Note_on_c, 1, 80, 127
2, 3880, Note_on_c, 1, 60, 127
2, 3880, Note_off_c, 1, 61, 0
2, 3880, Note_off_c, 1, 68, 0
2, 3880, Note_on_c, 1, 69, 127
2, 3880, Note_off_c, 1, 71, 0
2, 3880, Note_off_c, 1, 73, 0
2, 3880, Note_on_c, 1, 78, 127
2, 3880, Note_off_c, 1, 80, 0
2, 3920, Note_on_c, 1, 56, 127
2, 3920, Note_on_c, 1, 65, 127
2, 3920, Note_off_c, 1, 69, 0
2, 3920, Note_off_c, 1, 78, 0
2, 3920, Note_on_c, 1, 82, 127
2, 3960, Note_on_c, 1, 37, 127
2, 3960, Note_off_c, 1, 53, 0
2, 3960, Note_off_c, 1, 56, 0
2, 3960, Note_off_c, 1, 60, 0
2, 3960, Note_on_c, 1, 68, 127
2, 3960, Note_on_c, 1, 72, 127
2, 3960, Note_on_c, 1, 75, 127
2, 3960, Note_off_c, 1, 82, 0
2, 4000, Note_off_c, 1, 37, 0
2, 4000, Note_on_c, 1, 53, 127
2, 4000, Note_on_c, 1, 56, 127
2, 4000, Note_on_c, 1, 60, 127
2, 4000, Note_off_c, 1, 68, 0
2, 4000, Note_off_c, 1, 72, 0
2, 4000, Note_off_c, 1, 75, 0
2, 4000, Note_on_c, 1, 79, 127
2, 4040, Note_off_c, 1, 56, 0
2, 4040, Note_on_c, 1, 58, 127
2, 4040, Note_off_c, 1, 60, 0
2, 4040, Note_on_c, 1, 62, 127
2, 4040, Note_off_c, 1, 65, 0
2, 4040, Note_on_c, 1, 75, 127
2, 4040, Note_on_c, 1, 77, 127
2, 4040, Note_off_c, 1, 79, 0
2, 4080, Note_off_c, 1, 53, 0
2, 4080, Note_on_c, 1, 56, 127
2, 4080, Note_off_c, 1, 58, 0
2, 4080, Note_off_c, 1, 62, 0
2, 4080, Note_on_c, 1, 68, 127
2, 4080, Note_off_c, 1, 75, 0
2, 4080, Note_off_c, 1, 77, 0
2, 4080, Note_on_c, 1, 90, 127
2, 4080, Note_on_c, 1, 103, 127
2, 4120, Note_off_c, 1, 56, 0
2, 4120, Note_on_c, 1, 65, 127
2, 4120, Note_off_c, 1, 68, 0
2, 4120, Note_on_c, 1, 71, 127
2, 4120, Note_on_c, 1, 77, 127
2, 4120, Note_on_c, 1, 86, 127
2, 4120, Note_off_c, 1, 90, 0
2, 4120, Note_off_c, 1, 103, 0
2, 4160, Note_on_c, 1, 49, 127
2, 4160, Note_on_c, 1, 50, 127
2, 4160, Note_off_c, 1, 65, 0
2, 4160, Note_on_c, 1, 68, 127
2, 4160, Note_off_c, 1, 71, 0
2, 4160, Note_on_c, 1, 76, 127
2, 4160, Note_off_c, 1, 77, 0
2, 4160, Note_off_c, 1, 86, 0
2, 4200, Note_off_c, 1, 50, 0
2, 4200, Note_on_c, 1, 53, 127
2, 4200, Note_on_c, 1, 58, 127
2, 4200, Note_off_c, 1, 68, 0
2, 4200, Note_on_c, 1, 75, 127
2, 4200, Note_off_c, 1, 76, 0
2, 4240, Note_off_c, 1, 49, 0
2, 4240, Note_off_c, 1, 53, 0
2, 4240, Note_on_c, 1, 54, 127
2, 4240, Note_off_c, 1, 58, 0
2, 4240, Note_on_c, 1, 66, 127
2, 4240, Note_off_c, 1, 75, 0
2, 4240, Note_on_c, 1, 88, 127
2, 4240, Note_on_c, 1, 101, 127
2, 4280, Note_on_c, 1, 53, 127
2, 4280, Note_off_c, 1, 54, 0
2, 4280, Note_on_c, 1, 57, 127
2, 4280, Note_on_c, 1, 61, 127
2, 4280, Note_on_c, 1, 63, 127
2, 4280, Note_off_c, 1, 66, 0
2, 4280, Note_off_c, 1, 88, 0
2, 4280, Note_off_c, 1, 101, 0
2, 4320, Note_on_c, 1, 52, 127
2, 4320, Note_off_c, 1, 53, 0
2, 4320, Note_off_c, 1, 57, 0
2, 4320, Note_on_c, 1, 59, 127
2, 4320, Note_off_c, 1, 61, 0
2, 4320, Note_on_c, 1, 62, 127
2, 4320, Note_off_c, 1, 63, 0
2, 4320, Note_on_c, 1, 64, 127
2, 4320, Note_on_c, 1, 74, 127
2, 4320, Note_on_c, 1, 76, 127
2, 4320, Note_on_c, 1, 80, 127
2, 4320, Note_on_c, 1, 86, 127
2, 4360, Note_off_c, 1, 52, 0
2, 4360, Note_off_c, 1, 59, 0
2, 4360, Note_off_c, 1, 62, 0
2, 4360, Note_off_c, 1, 64, 0
2, 4360, Note_off_c, 1, 74, 0
2, 4360, Note_on_c, 1, 77, 127
2, 4360, Note_off_c, 1, 80, 0
2, 4360, Note_on_c, 1, 82, 127
2, 4360, Note_on_c, 1, 84, 127
2, 4360, Note_off_c, 1, 86, 0
2, 4400, Note_on_c, 1, 57, 127
2, 4400, Note_on_c, 1, 60, 127
2, 4400, Note_off_c, 1, 76, 0
2, 4400, Note_off_c, 1, 77, 0
2, 4400, Note_off_c, 1, 82, 0
2, 4400, Note_on_c, 1, 86, 127
2, 4440, Note_off_c, 1, 57, 0
2, 4440, Note_off_c, 1, 60, 0
2, 4440, Note_off_c, 1, 84, 0
2, 4440, Note_off_c, 1, 86, 0
2, 4440, Note_on_c, 1, 99, 127
2, 4440, Note_on_c, 1, 103, 127
2, 4480, Note_on_c, 1, 65, 127
2, 4480, Note_on_c, 1, 70, 127
2, 4480, Note_on_c, 1, 74, 127
2, 4480, Note_on_c, 1, 94, 127
2, 4480, Note_on_c, 1, 96, 127
2, 4480, Note_off_c, 1, 99, 0
2, 4480, Note_off_c, 1, 103, 0
2, 4520, Note_off_c, 1, 65, 0
2, 4520, Note_off_c, 1, 70, 0
2, 4520, Note_off_c, 1, 74, 0
2, 4520, Note_on_c, 1, 93, 127
2, 4520, Note_off_c, 1, 94, 0
2, 4520, Note_off_c, 1, 96, 0
2, 4520, Note_on_c, 1, 98, 127
2, 4520, Note_on_c, 1, 103, 127
2, 4560, Note_on_c, 1, 67, 127
2, 4560, Note_on_c, 1, 71, 127
2, 4560, Note_on_c, 1, 74, 127
2, 4560, Note_on_c, 1, 77, 127
2, 4560, Note_off_c, 1, 93, 0
2, 4560, Note_on_c, 1, 97, 127
2, 4560, Note_off_c, 1, 98, 0
2, 4560, Note_off_c, 1, 103, 0
2, 4600, Note_off_c, 1, 67, 0
2, 4600, Note_on_c, 1, 69, 127
2, 4600, Note_off_c, 1, 71, 0
2, 4600, Note_off_c, 1, 74, 0
2, 4600, Note_off_c, 1, 77, 0
2, 4600, Note_off_c, 1, 97, 0
2, 4600, Note_on_c, 1, 101, 127
2, 4640, Note_on_c, 1, 58, 127
2, 4640, Note_on_c, 1, 64, 127
2, 4640, Note_off_c, 1, 69, 0
2, 4640, Note_on_c, 1, 85, 127
2, 4640, Note_on_c, 1, 93, 127
2, 4640, Note_off_c, 1, 101, 0
2, 4680, Note_off_c, 1, 58, 0
2, 4680, Note_off_c, 1, 64, 0
2, 4680, Note_off_c, 1, 85, 0
2, 4680, Note_off_c, 1, 93, 0
2, 4680, Note_on_c, 1, 101, 127
2, 4680, Note_on_c, 1, 102, 127
2, 4720, Note_on_c, 1, 51, 127
2, 4720, Note_on_c, 1, 58, 127
2, 4720, Note_on_c, 1, 61, 127
2, 4720, Note_on_c, 1, 65, 127
2, 4720, Note_on_c, 1, 94, 127
2, 4720, Note_off_c, 1, 101, 0
2, 4720, Note_off_c, 1, 102, 0
2, 4760, Note_off_c, 1, 51, 0
2, 4760, Note_off_c, 1, 58, 0
2, 4760, Note_off_c, 1, 61, 0
2, 4760, Note_off_c, 1, 65, 0
2, 4760, Note_on_c, 1, 81, 127
2, 4760, Note_on_c, 1, 90, 127
2, 4760, Note_off_c, 1, 94, 0
2, 4760, Note_on_c, 1, 97, 127
2, 4800, Note_on_c, 1, 48, 127
2, 4800, Note_on_c, 1, 60, 127
2, 4800, Note_off_c, 1, 81, 0
2, 4800, Note_on_c, 1, 86, 127
2, 4800, Note_off_c, 1, 90, 0
2, 4800, Note_on_c, 1, 94, 127
2, 4800, Note_off_c, 1, 97, 0
2, 4800, Note_on_c, 1, 98, 127
2, 4840, Note_off_c, 1, 48, 0
2, 4840, Note_off_c, 1, 60, 0
2, 4840, Note_on_c, 1, 71, 127
2, 4840, Note_off_c, 1, 86, 0
2, 4840, Note_on_c, 1, 87, 127
2, 4840, Note_off_c, 1, 94, 0
2, 4840, Note_off_c, 1, 98, 0
2, 4840, Note_on_c, 1, 99, 127
2, 4840, Note_on_c, 1, 102, 127
2, 4880, Note_on_c, 1, 34, 127
2, 4880, Note_on_c, 1, 46, 127
2, 4880, Note_on_c, 1, 70, 127
2, 4880, Note_off_c, 1, 71, 0
2, 4880, Note_on_c, 1, 77, 127
2, 4880, Note_on_c, 1, 79, 127
2, 4880, Note_on_c, 1, 82, 127
2, 4880, Note_off_c, 1, 87, 0
2, 4880, Note_off_c, 1, 99, 0
2, 4880, Note_off_c, 1, 102, 0
2, 4920, Note_off_c, 1, 34, 0
2, 4920, Note_off_c, 1, 46, 0
2, 4920, Note_on_c, 1, 54, 127
2, 4920, Note_on_c, 1, 58, 127
2, 4920, Note_on_c, 1, 61, 127
2, 4920, Note_off_c, 1, 70, 0
2, 4920, Note_off_c, 1, 77, 0
2, 4920, Note_on_c, 1, 78, 127
2, 4920, Note_off_c, 1, 79, 0
2, 4920, Note_on_c, 1, 85, 127
2, 4920, Note_on_c, 1, 90, 127
2, 4960, Note_off_c, 1, 54, 0
2, 4960, Note_off_c, 1, 58, 0
2, 4960, Note_on_c, 1, 67, 127
2, 4960, Note_on_c, 1, 71, 127
2, 4960, Note_off_c, 1, 78, 0
2, 4960, Note_off_c, 1, 82, 0
2, 4960, Note_on_c, 1, 83, 127
2, 4960, Note_off_c, 1, 85, 0
2, 4960, Note_on_c, 1, 86, 127
2, 4960, Note_off_c, 1, 90, 0
2, 4960, Note_on_c, 1, 91, 127
2, 4960, Note_on_c, 1, 95, 127
2, 5000, Note_off_c, 1, 61, 0
2, 5000, Note_on_c, 1, 65, 127
2, 5000, Note_off_c, 1, 67, 0
2, 5000, Note_on_c, 1, 69, 127
2, 5000, Note_off_c, 1, 71, 0
2, 5000, Note_on_c, 1, 72, 127
2, 5000, Note_on_c, 1, 75, 127
2, 5000, Note_off_c, 1, 83, 0
2, 5000, Note_off_c, 1, 86, 0
2, 5000, Note_on_c, 1, 90, 127
2, 5000, Note_off_c, 1, 91, 0
2, 5000, Note_off_c, 1, 95, 0
2, 5040, Note_on_c, 1, 38, 127
2, 5040, Note_on_c, 1, 43, 127
2, 5040, Note_on_c, 1, 46, 127
2, 5040, Note_on_c, 1, 52, 127
2, 5040, Note_off_c, 1, 65, 0
2, 5040, Note_on_c, 1, 67, 127
2, 5040, Note_off_c, 1, 69, 0
2, 5040, Note_on_c, 1, 70, 127
2, 5040, Note_off_c, 1, 72, 0
2, 5040, Note_on_c, 1, 73, 127
2, 5040, Note_off_c, 1, 75, 0
2, 5040, Note_on_c, 1, 79, 127
2, 5040, Note_off_c, 1, 90, 0
2, 5080, Note_off_c, 1, 38, 0
2, 5080, Note_off_c, 1, 43, 0
2, 5080, Note_off_c, 1, 46, 0
2, 5080, Note_off_c, 1, 52, 0
2, 5080, Note_off_c, 1, 67, 0
2, 5080, Note_on_c, 1, 72, 127
2, 5080, Note_off_c, 1, 73, 0
2, 5080, Note_on_c, 1, 75, 127
2, 5080, Note_off_c, 1, 79, 0
2, 5080, Note_on_c, 1, 82, 127
2, 5120, Note_on_c, 1, 47, 127
2, 5120, Note_on_c, 1, 51, 127
2, 5120, Note_on_c, 1, 54, 127
2, 5120, Note_off_c, 1, 70, 0
2, 5120, Note_off_c, 1, 72, 0
2, 5120, Note_off_c, 1, 75, 0
2, 5120, Note_off_c, 1, 82, 0
2, 5120, Note_on_c, 1, 87, 127
2, 5120, Note_on_c, 1, 88, 127
2, 5160, Note_on_c, 1, 40, 127
2, 5160, Note_off_c, 1, 47, 0
2, 5160, Note_off_c, 1, 51, 0
2, 5160, Note_off_c, 1, 54, 0
2, 5160, Note_on_c, 1, 65, 127
2, 5160, Note_on_c, 1, 71, 127
2, 5160, Note_on_c, 1, 74, 127
2, 5160, Note_off_c, 1, 87, 0
2, 5160, Note_off_c, 1, 88, 0
2, 5200, Note_on_c, 1, 34, 127
2, 5200, Note_off_c, 1, 40, 0
2, 5200, Note_on_c, 1, 43, 127
2, 5200, Note_off_c, 1, 65, 0
2, 5200, Note_off_c, 1, 71, 0
2, 5200, Note_on_c, 1, 72, 127
2, 5200, Note_off_c, 1, 74, 0
2, 5200, Note_on_c, 1, 81, 127
2, 5200, Note_on_c, 1, 84, 127
2, 5240, Note_off_c, 1, 34, 0
2, 5240, Note_on_c, 1, 50, 127
2, 5240, Note_on_c, 1, 60, 127
2, 5240, Note_on_c, 1, 62, 127
2, 5240, Note_on_c, 1, 69, 127
2, 5240, Note_off_c, 1, 72, 0
2, 5240, Note_off_c, 1, 81, 0
2, 5240, Note_off_c, 1, 84, 0
2, 5280, Note_off_c, 1, 43, 0
2, 5280, Note_off_c, 1, 50, 0
2, 5280, Note_off_c, 1, 60, 0
2, 5280, Note_off_c, 1, 62, 0
2, 5280, Note_off_c, 1, 69, 0
2, 5280, Note_on_c, 1, 72, 127
2, 5280, Note_on_c, 1, 75, 127
2, 5280, Note_on_c, 1, 79, 127
2, 5280, Note_on_c, 1, 86, 127
2, 5320, Note_on_c, 1, 62, 127
2, 5320, Note_on_c, 1, 65, 127
2, 5320, Note_on_c, 1, 70, 127
2, 5320, Note_off_c, 1, 72, 0
2, 5320, Note_off_c, 1, 75, 0
2, 5320, Note_off_c, 1, 79, 0
2, 5320, Note_on_c, 1, 82, 127
2, 5320, Note_off_c, 1, 86, 0
2, 5320, Note_on_c, 1, 94, 127
2, 5360, Note_on_c, 1, 55, 127
2, 5360, Note_on_c, 1, 59, 127
2, 5360, Note_off_c, 1, 62, 0
2, 5360, Note_off_c, 1, 65, 0
2, 5360, Note_on_c, 1, 67, 127
2, 5360, Note_off_c, 1, 70, 0
2, 5360, Note_on_c, 1, 76, 127
2, 5360, Note_on_c, 1, 78, 127
2, 5360, Note_off_c, 1, 82, 0
2, 5360, Note_off_c, 1, 94, 0
2, 5400, Note_on_c, 1, 53, 127
2, 5400, Note_off_c, 1, 55, 0
2, 5400, Note_on_c, 1, 58, 127
2, 5400, Note_off_c, 1, 59, 0
2, 5400, Note_on_c, 1, 61, 127
2, 5400, Note_on_c, 1, 64, 127
2, 5400, Note_off_c, 1, 67, 0
2, 5400, Note_off_c, 1, 76, 0
2, 5400, Note_off_c, 1, 78, 0
2, 5400, Note_on_c, 1, 88, 127
2, 5400, Note_on_c, 1, 89, 127
2, 5400, Note_on_c, 1, 91, 127
2, 5440, Note_on_c, 1, 35, 127
2, 5440, Note_on_c, 1, 42, 127
2, 5440, Note_off_c, 1, 53, 0
2, 5440, Note_off_c, 1, 58, 0
2, 5440, Note_off_c, 1, 61, 0
2, 5440, Note_off_c, 1, 64, 0
2, 5440, Note_on_c, 1, 85, 127
2, 5440, Note_off_c, 1, 88, 0
2, 5440, Note_off_c, 1, 89, 0
2, 5440, Note_off_c, 1, 91, 0
2, 5480, Note_off_c, 1, 35, 0
2, 5480, Note_on_c, 1, 41, 127
2, 5480, Note_off_c, 1, 42, 0
2, 5480, Note_on_c, 1, 53, 127
2, 5480, Note_on_c, 1, 62, 127
2, 5480, Note_on_c, 1, 67, 127
2, 5480, Note_on_c, 1, 71, 127
2, 5480, Note_on_c, 1, 74, 127
2, 5480, Note_off_c, 1, 85, 0
2, 5520, Note_off_c, 1, 41, 0
2, 5520, Note_off_c, 1, 53, 0
2, 5520, Note_off_c, 1, 62, 0
2, 5520, Note_off_c, 1, 67, 0
2, 5520, Note_off_c, 1, 71, 0
2, 5520, Note_off_c, 1, 74, 0
2, 5520, Note_on_c, 1, 82, 127
2, 5520, Note_on_c, 1, 91, 127
2, 5520, Note_on_c, 1, 94, 127
2, 5520, Note_on_c, 1, 97, 127
2, 5560, Note_on_c, 1, 40, 127
2, 5560, Note_on_c, 1, 52, 127
2, 5560, Note_on_c, 1, 59, 127
2, 5560, Note_on_c, 1, 62, 127
2, 5560, Note_on_c, 1, 68, 127
2, 5560, Note_off_c, 1, 82, 0
2, 5560, Note_off_c, 1, 91, 0
2, 5560, Note_on_c, 1, 92, 127
2, 5560, Note_off_c, 1, 94, 0
2, 5560, Note_off_c, 1, 97, 0
2, 5600, Note_off_c, 1, 40, 0
2, 5600, Note_on_c, 1, 45, 127
2, 5600, Note_on_c, 1, 49, 127
2, 5600, Note_off_c, 1, 52, 0
2, 5600, Note_on_c, 1, 57, 127
2, 5600, Note_off_c, 1, 59, 0
2, 5600, Note_off_c, 1, 62, 0
2, 5600, Note_off_c, 1, 68, 0
2, 5600, Note_on_c, 1, 88, 127
2, 5600, Note_off_c, 1, 92, 0
2, 5600, Note_on_c, 1, 97, 127
2, 5600, Note_on_c, 1, 100, 127
2, 5640, Note_off_c, 1, 45, 0
2, 5640, Note_off_c, 1, 49, 0
2, 5640, Note_off_c, 1, 57, 0
2, 5640, Note_off_c, 1, 88, 0
2, 5640, Note_off_c, 1, 97, 0
2, 5640, Note_off_c, 1, 100, 0
2, 5680, Note_on_c, 1, 67, 127
2, 5680, Note_on_c, 1, 79, 127
2, 5680, Note_on_c, 1, 86, 127
2, 5680, Note_on_c, 1, 94, 127
2, 5720, Note_on_c, 1, 43, 127
2, 5720, Note_on_c, 1, 46, 127
2, 5720, Note_on_c, 1, 49, 127
2, 5720, Note_on_c, 1, 52, 127
2, 5720, Note_off_c, 1, 67, 0
2, 5720, Note_off_c, 1, 79, 0
2, 5720, Note_off_c, 1, 86, 0
2, 5720, Note_off_c, 1, 94, 0
2, 5760, Note_on_c, 1, 39, 127
2, 5760, Note_off_c, 1, 43, 0
2, 5760, Note_off_c, 1, 49, 0
2, 5760, Note_off_c, 1, 52, 0
2, 5760, Note_on_c, 1, 54, 127
2, 5760, Note_on_c, 1, 66, 127
2, 5760, Note_on_c, 1, 70, 127
2, 5800, Note_off_c, 1, 39, 0
2, 5800, Note_off_c, 1, 46, 0
2, 5800, Note_on_c, 1, 52, 127
2, 5800, Note_off_c, 1, 54, 0
2, 5800, Note_on_c, 1, 55, 127
2, 5800, Note_on_c, 1, 58, 127
2, 5800, Note_on_c, 1, 61, 127
2, 5800, Note_off_c, 1, 66, 0
2, 5840, Note_off_c, 1, 52, 0
2, 5840, Note_off_c, 1, 55, 0
2, 5840, Note_off_c, 1, 58, 0
2, 5840, Note_off_c, 1, 61, 0
2, 5840, Note_on_c, 1, 65, 127
2, 5840, Note_on_c, 1, 78, 127
2, 5840, Note_on_c, 1, 85, 127
2, 5840, Note_on_c, 1, 90, 127
2, 5880, Note_off_c, 1, 65, 0
2, 5880, Note_off_c, 1, 70, 0
2, 5880, Note_on_c, 1, 72, 127
2, 5880, Note_on_c, 1, 76, 127
2, 5880, Note_off_c, 1, 78, 0
2, 5880, Note_on_c, 1, 84, 127
2, 5880, Note_off_c, 1, 85, 0
2, 5880, Note_off_c, 1, 90, 0
2, 5880, Note_on_c, 1, 91, 127
2, 5880, Note_on_c, 1, 100, 127
2, 5880, Note_on_c, 1, 105, 127
2, 5920, Note_off_c, 1, 72, 0
2, 5920, Note_on_c, 1, 75, 127
2, 5920, Note_off_c, 1, 76, 0
2, 5920, Note_on_c, 1, 78, 127
2, 5920, Note_on_c, 1, 81, 127
2, 5920, Note_off_c, 1, 91, 0
2, 5920, Note_off_c, 1, 100, 0
2, 5920, Note_off_c, 1, 105, 0
2, 5960, Note_on_c, 1, 36, 127
2, 5960, Note_on_c, 1, 62, 127
2, 5960, Note_on_c, 1, 70, 127
2, 5960, Note_off_c, 1, 78, 0
2, 5960, Note_off_c, 1, 81, 0
2, 5960, Note_off_c, 1, 84, 0
2, 6000, Note_off_c, 1, 36, 0
2, 6000, Note_on_c, 1, 50, 127
2, 6000, Note_on_c, 1, 59, 127
2, 6000, Note_on_c, 1, 66, 127
2, 6000, Note_on_c, 1, 71, 127
2, 6000, Note_off_c, 1, 75, 0
2, 6000, Note_on_c, 1, 82, 127
2, 6000, Note_on_c, 1, 94, 127
2, 6040, Note_off_c, 1, 50, 0
2, 6040, Note_off_c, 1, 59, 0
2, 6040, Note_off_c, 1, 62, 0
2, 6040, Note_off_c, 1, 66, 0
2, 6040, Note_on_c, 1, 67, 127
2, 6040, Note_off_c, 1, 70, 0
2, 6040, Note_on_c, 1, 73, 127
2, 6040, Note_on_c, 1, 76, 127
2, 6040, Note_on_c, 1, 79, 127
2, 6040, Note_off_c, 1, 82, 0
2, 6040, Note_on_c, 1, 83, 127
2, 6040, Note_on_c, 1, 88, 127
2, 6040, Note_off_c, 1, 94, 0
2, 6040, Note_on_c, 1, 95, 127
2, 6080, Note_off_c, 1, 67, 0
2, 6080, Note_off_c, 1, 73, 0
2, 6080, Note_off_c, 1, 76, 0
2, 6080, Note_off_c, 1, 79, 0
2, 6080, Note_on_c, 1, 80, 127
2, 6080, Note_on_c, 1, 87, 127
2, 6080, Note_off_c, 1, 88, 0
2, 6120, Note_on_c, 1, 47, 127
2, 6120, Note_on_c, 1, 56, 127
2, 6120, Note_on_c, 1, 64, 127
2, 6120, Note_on_c, 1, 70, 127
2, 6120, Note_off_c, 1, 71, 0
2, 6120, Note_off_c, 1, 80, 0
2, 6120, Note_off_c, 1, 83, 0
2, 6120, Note_off_c, 1, 87, 0
2, 6120, Note_off_c, 1, 95, 0
2, 6160, Note_off_c, 1, 47, 0
2, 6160, Note_off_c, 1, 56, 0
2, 6160, Note_off_c, 1, 64, 0
2, 6160, Note_on_c, 1, 68, 127
2, 6160, Note_off_c, 1, 70, 0
2, 6160, Note_on_c, 1, 72, 127
2, 6160, Note_on_c, 1, 78, 127
2, 6160, Note_on_c, 1, 102, 127
2, 6160, Note_on_c, 1, 104, 127
2, 6200, Note_on_c, 1, 42, 127
2, 6200, Note_on_c, 1, 52, 127
2, 6200, Note_on_c, 1, 59, 127
2, 6200, Note_on_c, 1, 64, 127
2, 6200, Note_off_c, 1, 68, 0
2, 6200, Note_off_c, 1, 72, 0
2, 6200, Note_off_c, 1, 78, 0
2, 6200, Note_off_c, 1, 102, 0
2, 6200, Note_off_c, 1, 104, 0
2, 6240, Note_off_c, 1, 42, 0
2, 6240, Note_off_c, 1, 52, 0
2, 6240, Note_off_c, 1, 59, 0
2, 6240, Note_off_c, 1, 64, 0
2, 6240, Note_on_c, 1, 67, 127
2, 6240, Note_on_c, 1, 70, 127
2, 6240, Note_on_c, 1, 84, 127
2, 6240, Note_on_c, 1, 87, 127
2, 6240, Note_on_c, 1, 93, 127
2, 6280, Note_on_c, 1, 55, 127
2, 6280, Note_on_c, 1, 61, 127
2, 6280, Note_on_c, 1, 64, 127
2, 6280, Note_off_c, 1, 67, 0
2, 6280, Note_on_c, 1, 69, 127
2, 6280, Note_off_c, 1, 70, 0
2, 6280, Note_off_c, 1, 84, 0
2, 6280, Note_on_c, 1, 85, 127
2, 6280, Note_off_c, 1, 87, 0
2, 6280, Note_off_c, 1, 93, 0
2, 6320, Note_on_c, 1, 30, 127
2, 6320, Note_off_c, 1, 55, 0
2, 6320, Note_on_c, 1, 60, 127
2, 6320, Note_off_c, 1, 61, 0
2, 6320, Note_off_c, 1, 64, 0
2, 6320, Note_off_c, 1, 69, 0
2, 6320, Note_off_c, 1, 85, 0
2, 6360, Note_off_c, 1, 30, 0
2, 6360, Note_off_c, 1, 60, 0
2, 6360, Note_on_c, 1, 70, 127
2, 6360, Note_on_c, 1, 78, 127
2, 6360, Note_on_c, 1, 88, 127
2, 6400, Note_on_c, 1, 37, 127
2, 6400, Note_on_c, 1, 42, 127
2, 6400, Note_on_c, 1, 46, 127
2, 6400, Note_on_c, 1, 49, 127
2, 6400, Note_off_c, 1, 70, 0
2, 6400, Note_on_c, 1, 73, 127
2, 6400, Note_off_c, 1, 78, 0
2, 6400, Note_off_c, 1, 88, 0
2, 6440, Note_off_c, 1, 37, 0
2, 6440, Note_on_c, 1, 39, 127
2, 6440, Note_off_c, 1, 42, 0
2, 6440, Note_off_c, 1, 46, 0
2, 6440, Note_off_c, 1, 49, 0
2, 6440, Note_on_c, 1, 55, 127
2, 6440, Note_on_c, 1, 66, 127
2, 6440, Note_off_c, 1, 73, 0
2, 6480, Note_on_c, 1, 25, 127
2, 6480, Note_on_c, 1, 37, 127
2, 6480, Note_off_c, 1, 39, 0
2, 6480, Note_off_c, 1, 55, 0
2, 6480, Note_off_c, 1, 66, 0
2, 6480, Note_on_c, 1, 76, 127
2, 6480, Note_on_c, 1, 83, 127
2, 6520, Note_off_c, 1, 25, 0
2, 6520, Note_off_c, 1, 37, 0
2, 6520, Note_on_c, 1, 51, 127
2, 6520, Note_off_c, 1, 76, 0
2, 6520, Note_off_c, 1, 83, 0
2, 6520, Note_on_c, 1, 91, 127
2, 6520, Note_on_c, 1, 92, 127
2, 6560, Note_off_c, 1, 51, 0
2, 6560, Note_on_c, 1, 67, 127
2, 6560, Note_on_c, 1, 71, 127
2, 6560, Note_on_c, 1, 74, 127
2, 6560, Note_off_c, 1, 91, 0
2, 6560, Note_off_c, 1, 92, 0
2, 6560, Note_on_c, 1, 98, 127
2, 6600, Note_on_c, 1, 41, 127
2, 6600, Note_on_c, 1, 53, 127
2, 6600, Note_on_c, 1, 56, 127
2, 6600, Note_off_c, 1, 67, 0
2, 6600, Note_off_c, 1, 71, 0
2, 6600, Note_on_c, 1, 73, 127
2, 6600, Note_off_c, 1, 74, 0
2, 6600, Note_on_c, 1, 80, 127
2, 6600, Note_off_c, 1, 98, 0
2, 6640, Note_off_c, 1, 41, 0
2, 6640, Note_on_c, 1, 47, 127
2, 6640, Note_on_c, 1, 50, 127
2, 6640, Note_on_c, 1, 55, 127
2, 6640, Note_off_c, 1, 56, 0
2, 6640, Note_off_c, 1, 73, 0
2, 6640, Note_off_c, 1, 80, 0
2, 6640, Note_on_c, 1, 84, 127
2, 6680, Note_on_c, 1, 29, 127
2, 6680, Note_on_c, 1, 41, 127
2, 6680, Note_off_c, 1, 47, 0
2, 6680, Note_off_c, 1, 50, 0
2, 6680, Note_off_c, 1, 53, 0
2, 6680, Note_off_c, 1, 55, 0
2, 6680, Note_off_c, 1, 84, 0
2, 6680, Note_on_c, 1, 94, 127
2, 6720, Note_off_c, 1, 29, 0
2, 6720, Note_off_c, 1, 41, 0
2, 6720, Note_on_c, 1, 65, 127
2, 6720, Note_on_c, 1, 74, 127
2, 6720, Note_on_c, 1, 84, 127
2, 6720, Note_on_c, 1, 93, 127
2, 6720, Note_off_c, 1, 94, 0
2, 6760, Note_on_c, 1, 49, 127
2, 6760, Note_on_c, 1, 52, 127
2, 6760, Note_on_c, 1, 57, 127
2, 6760, Note_on_c, 1, 61, 127
2, 6760, Note_on_c, 1, 63, 127
2, 6760, Note_off_c, 1, 65, 0
2, 6760, Note_off_c, 1, 74, 0
2, 6760, Note_off_c, 1, 84, 0
2, 6760, Note_off_c, 1, 93, 0
2, 6800, Note_off_c, 1, 49, 0
2, 6800, Note_off_c, 1, 52, 0
2, 6800, Note_on_c, 1, 54, 127
2, 6800, Note_off_c, 1, 61, 0
2, 6800, Note_off_c, 1, 63, 0
2, 6800, Note_on_c, 1, 78, 127
2, 6800, Note_on_c, 1, 84, 127
2, 6840, Note_off_c, 1, 54, 0
2, 6840, Note_off_c, 1, 57, 0
2, 6840, Note_off_c, 1, 78, 0
2, 6840, Note_on_c, 1, 82, 127
2, 6840, Note_off_c, 1, 84, 0
2, 6840, Note_on_c, 1, 91, 127
2, 6840, Note_on_c, 1, 94, 127
2, 6840, Note_on_c, 1, 97, 127
2, 6880, Note_on_c, 1, 51, 127
2, 6880, Note_on_c, 1, 59, 127
2, 6880, Note_off_c, 1, 82, 0
2, 6880, Note_on_c, 1, 85, 127
2, 6880, Note_off_c, 1, 91, 0
2, 6880, Note_off_c, 1, 94, 0
2, 6880, Note_off_c, 1, 97, 0
2, 6920, Note_on_c, 1, 47, 127
2, 6920, Note_off_c, 1, 51, 0
2, 6920, Note_off_c, 1, 59, 0
2, 6920, Note_on_c, 1, 69, 127
2, 6920, Note_on_c, 1, 71, 127
2, 6920, Note_on_c, 1, 75, 127
2, 6920, Note_on_c, 1, 78, 127
2, 6920, Note_off_c, 1, 85, 0
2, 6960, Note_off_c, 1, 47, 0
2, 6960, Note_on_c, 1, 52, 127
2, 6960, Note_on_c, 1, 57, 127
2, 6960, Note_on_c, 1, 61, 127
2, 6960, Note_off_c, 1, 69, 0
2, 6960, Note_off_c, 1, 71, 0
2, 6960, Note_off_c, 1, 75, 0
2, 6960, Note_off_c, 1, 78, 0
2, 6960, Note_on_c, 1, 90, 127
2, 7000, Note_off_c, 1, 52, 0
2, 7000, Note_on_c, 1, 54, 127
2, 7000, Note_off_c, 1, 57, 0
2, 7000, Note_on_c, 1, 58, 127
2, 7000, Note_off_c, 1, 61, 0
2, 7000, Note_on_c, 1, 64, 127
2, 7000, Note_on_c, 1, 66, 127
2, 7000, Note_on_c, 1, 78, 127
2, 7000, Note_off_c, 1, 90, 0
2, 7040, Note_off_c, 1, 54, 0
2, 7040, Note_off_c, 1, 58, 0
2, 7040, Note_off_c, 1, 64, 0
2, 7040, Note_off_c, 1, 66, 0
2, 7040, Note_on_c, 1, 70, 127
2, 7040, Note_off_c, 1, 78, 0
2, 7040, Note_on_c, 1, 86, 127
2, 7040, Note_on_c, 1, 98, 127
2, 7040, Note_on_c, 1, 101, 127
2, 7080, Note_on_c, 1, 58, 127
2, 7080, Note_on_c, 1, 61, 127
2, 7080, Note_on_c, 1, 68, 127
2, 7080, Note_off_c, 1, 70, 0
2, 7080, Note_on_c, 1, 75, 127
2, 7080, Note_off_c, 1, 86, 0
2, 7080, Note_off_c, 1, 98, 0
2, 7080, Note_off_c, 1, 101, 0
2, 7120, Note_off_c, 1, 61, 0
2, 7120, Note_on_c, 1, 64, 127
2, 7120, Note_on_c, 1, 66, 127
2, 7120, Note_off_c, 1, 68, 0
2, 7120, Note_off_c, 1, 75, 0
2, 7120, Note_on_c, 1, 76, 127
2, 7120, Note_on_c, 1, 78, 127
2, 7120, Note_on_c, 1, 82, 127
2, 7120, Note_on_c, 1, 87, 127
2, 7160, Note_off_c, 1, 58, 0
2, 7160, Note_off_c, 1, 64, 0
2, 7160, Note_off_c, 1, 66, 0
2, 7160, Note_off_c, 1, 76, 0
2, 7160, Note_on_c, 1, 81, 127
2, 7160, Note_off_c, 1, 82, 0
2, 7160, Note_on_c, 1, 99, 127
2, 7200, Note_on_c, 1, 56, 127
2, 7200, Note_off_c, 1, 78, 0
2, 7200, Note_off_c, 1, 81, 0
2, 7200, Note_on_c, 1, 86, 127
2, 7200, Note_off_c, 1, 99, 0
2, 7240, Note_off_c, 1, 56, 0
2, 7240, Note_off_c, 1, 86, 0
2, 7240, Note_off_c, 1, 87, 0
2, 7240, Note_on_c, 1, 92, 127
2, 7280, Note_on_c, 1, 58, 127
2, 7280, Note_on_c, 1, 61, 127
2, 7280, Note_on_c, 1, 65, 127
2, 7280, Note_off_c, 1, 92, 0
2, 7280, Note_on_c, 1, 94, 127
2, 7280, Note_on_c, 1, 98, 127
2, 7320, Note_on_c, 1, 39, 127
2, 7320, Note_on_c, 1, 54, 127
2, 7320, Note_off_c, 1, 58, 0
2, 7320, Note_on_c, 1, 59, 127
2, 7320, Note_off_c, 1, 61, 0
2, 7320, Note_off_c, 1, 65, 0
2, 7320, Note_on_c, 1, 68, 127
2, 7320, Note_off_c, 1, 94, 0
2, 7320, Note_off_c, 1, 98, 0
2, 7360, Note_off_c, 1, 39, 0
2, 7360, Note_off_c, 1, 54, 0
2, 7360, Note_off_c, 1, 59, 0
2, 7360, Note_off_c, 1, 68, 0
2, 7360, Note_on_c, 1, 69, 127
2, 7360, Note_on_c, 1, 93, 127
2, 7360, Note_on_c, 1, 96, 127
2, 7400, Note_on_c, 1, 52, 127
2, 7400, Note_on_c, 1, 56, 127
2, 7400, Note_on_c, 1, 63, 127
2, 7400, Note_off_c, 1, 69, 0
2, 7400, Note_on_c, 1, 88, 127
2, 7400, Note_off_c, 1, 93, 0
2, 7400, Note_off_c, 1, 96, 0
2, 7440, Note_off_c, 1, 52, 0
2, 7440, Note_off_c, 1, 56, 0
2, 7440, Note_off_c, 1, 63, 0
2, 7440, Note_on_c, 1, 83, 127
2, 7440, Note_on_c, 1, 87, 127
2, 7440, Note_off_c, 1, 88, 0
2, 7440, Note_on_c, 1, 99, 127
2, 7440, Note_on_c, 1, 100, 127
2, 7440, Note_on_c, 1, 102, 127
2, 7480, Note_on_c, 1, 39, 127
2, 7480, Note_on_c, 1, 54, 127
2, 7480, Note_on_c, 1, 59, 127
2, 7480, Note_on_c, 1, 68, 127
2, 7480, Note_off_c, 1, 83, 0
2, 7480, Note_off_c, 1, 87, 0
2, 7480, Note_off_c, 1, 99, 0
2, 7480, Note_off_c, 1, 100, 0
2, 7480, Note_off_c, 1, 102, 0
2, 7520, Note_off_c, 1, 39, 0
2, 7520, Note_off_c, 1, 54, 0
2, 7520, Note_on_c, 1, 57, 127
2, 7520, Note_off_c, 1, 59, 0
2, 7520, Note_off_c, 1, 68, 0
2, 7520, Note_on_c, 1, 69, 127
2, 7520, Note_on_c, 1, 91, 127
2, 7520, Note_on_c, 1, 104, 127
2, 7560, Note_on_c, 1, 37, 127
2, 7560, Note_on_c, 1, 44, 127
2, 7560, Note_on_c, 1, 45, 127
2, 7560, Note_off_c, 1, 57, 0
2, 7560, Note_on_c, 1, 64, 127
2, 7560, Note_on_c, 1, 66, 127
2, 7560, Note_off_c, 1, 69, 0
2, 7560, Note_off_c, 1, 91, 0
2, 7560, Note_off_c, 1, 104, 0
2, 7600, Note_off_c, 1, 37, 0
2, 7600, Note_off_c, 1, 44, 0
2, 7600, Note_off_c, 1, 45, 0
2, 7600, Note_off_c, 1, 64, 0
2, 7600, Note_off_c, 1, 66, 0
2, 7640, Note_on_c, 1, 59, 127
2, 7640, Note_on_c, 1, 62, 127
2, 7640, Note_on_c, 1, 65, 127
2, 7640, Note_on_c, 1, 68, 127
2, 7640, Note_on_c, 1, 82, 127
2, 7640, Note_on_c, 1, 83, 127
2, 7680, Note_on_c, 1, 41, 127
2, 7680, Note_on_c, 1, 53, 127
2, 7680, Note_off_c, 1, 59, 0
2, 7680, Note_off_c, 1, 62, 0
2, 7680, Note_off_c, 1, 65, 0
2, 7680, Note_off_c, 1, 68, 0
2, 7680, Note_on_c, 1, 69, 127
2, 7680, Note_on_c, 1, 73, 127
2, 7680, Note_on_c, 1, 77, 127
2, 7680, Note_off_c, 1, 82, 0
2, 7680, Note_off_c, 1, 83, 0
2, 7720, Note_off_c, 1, 41, 0
2, 7720, Note_on_c, 1, 42, 127
2, 7720, Note_off_c, 1, 53, 0
2, 7720, Note_on_c, 1, 54, 127
2, 7720, Note_on_c, 1, 56, 127
2, 7720, Note_on_c, 1, 61, 127
2, 7720, Note_on_c, 1, 64, 127
2, 7720, Note_off_c, 1, 69, 0
2, 7720, Note_off_c, 1, 73, 0
2, 7720, Note_off_c, 1, 77, 0
2, 7760, Note_off_c, 1, 42, 0
2, 7760, Note_on_c, 1, 46, 127
2, 7760, Note_on_c, 1, 50, 127
2, 7760, Note_off_c, 1, 56, 0
2, 7760, Note_off_c, 1, 61, 0
2, 7760, Note_off_c, 1, 64, 0
2, 7760, Note_on_c, 1, 66, 127
2, 7760, Note_on_c, 1, 74, 127
2, 7760, Note_on_c, 1, 78, 127
2, 7800, Note_on_c, 1, 36, 127
2, 7800, Note_off_c, 1, 46, 0
2, 7800, Note_on_c, 1, 48, 127
2, 7800, Note_off_c, 1, 50, 0
2, 7800, Note_off_c, 1, 54, 0
2, 7800, Note_off_c, 1, 66, 0
2, 7800, Note_off_c, 1, 74, 0
2, 7800, Note_off_c, 1, 78, 0
2, 7800, Note_on_c, 1, 84, 127
2, 7800, Note_on_c, 1, 89, 127
2, 7800, Note_on_c, 1, 92, 127
2, 7800, Note_on_c, 1, 96, 127
2, 7840, Note_off_c, 1, 36, 0
2, 7840, Note_on_c, 1, 52, 127
2, 7840, Note_on_c, 1, 57, 127
2, 7840, Note_on_c, 1, 60, 127
2, 7840, Note_off_c, 1, 84, 0
2, 7840, Note_off_c, 1, 89, 0
2, 7840, Note_off_c, 1, 92, 0
2, 7840, Note_on_c, 1, 99, 127
2, 7880, Note_off_c, 1, 48, 0
2, 7880, Note_off_c, 1, 52, 0
2, 7880, Note_off_c, 1, 57, 0
2, 7880, Note_off_c, 1, 60, 0
2, 7880, Note_on_c, 1, 68, 127
2, 7880, Note_on_c, 1, 77, 127
2, 7880, Note_on_c, 1, 80, 127
2, 7880, Note_off_c, 1, 96, 0
2, 7880, Note_on_c, 1, 97, 127
2, 7920, Note_on_c, 1, 42, 127
2, 7920, Note_on_c, 1, 54, 127
2, 7920, Note_off_c, 1, 68, 0
2, 7920, Note_off_c, 1, 77, 0
2, 7920, Note_off_c, 1, 80, 0
2, 7920, Note_on_c, 1, 83, 127
2, 7920, Note_on_c, 1, 86, 127
2, 7920, Note_on_c, 1, 92, 127
2, 7920, Note_off_c, 1, 97, 0
2, 7920, Note_off_c, 1, 99, 0
2, 7960, Note_off_c, 1, 42, 0
2, 7960, Note_on_c, 1, 49, 127
2, 7960, Note_off_c, 1, 54, 0
2, 7960, Note_on_c, 1, 56, 127
2, 7960, Note_on_c, 1, 59, 127
2, 7960, Note_on_c, 1, 61, 127
2, 7960, Note_on_c, 1, 80, 127
2, 7960, Note_on_c, 1, 85, 127
2, 7960, Note_off_c, 1, 86, 0
2, 7960, Note_off_c, 1, 92, 0
2, 8000, Note_on_c, 1, 54, 127
2, 8000, Note_off_c, 1, 56, 0
2, 8000, Note_on_c, 1, 58, 127
2, 8000, Note_off_c, 1, 59, 0
2, 8000, Note_on_c, 1, 78, 127
2, 8000, Note_off_c, 1, 80, 0
2, 8000, Note_on_c, 1, 82, 127
2, 8000, Note_off_c, 1, 83, 0
2, 8040, Note_on_c, 1, 41, 127
2, 8040, Note_off_c, 1, 49, 0
2, 8040, Note_off_c, 1, 54, 0
2, 8040, Note_off_c, 1, 58, 0
2, 8040, Note_on_c, 1, 60, 127
2, 8040, Note_off_c, 1, 61, 0
2, 8040, Note_on_c, 1, 75, 127
2, 8040, Note_off_c, 1, 78, 0
2, 8040, Note_off_c, 1, 82, 0
2, 8040, Note_off_c, 1, 85, 0
2, 8080, Note_off_c, 1, 41, 0
2, 8080, Note_on_c, 1, 53, 127
2, 8080, Note_off_c, 1, 60, 0
2, 8080, Note_on_c, 1, 74, 127
2, 8080, Note_off_c, 1, 75, 0
2, 8080, Note_on_c, 1, 81, 127
2, 8080, Note_on_c, 1, 83, 127
2, 8120, Note_off_c, 1, 53, 0
2, 8120, Note_on_c, 1, 55, 127
2, 8120, Note_on_c, 1, 67, 127
2, 8120, Note_off_c, 1, 74, 0
2, 8120, Note_off_c, 1, 81, 0
2, 8120, Note_on_c, 1, 82, 127
2, 8120, Note_off_c, 1, 83, 0
2, 8120, Note_on_c, 1, 85, 127
2, 8160, Note_on_c, 1, 34, 127
2, 8160, Note_on_c, 1, 37, 127
2, 8160, Note_on_c, 1, 46, 127
2, 8160, Note_off_c, 1, 55, 0
2, 8160, Note_off_c, 1, 67, 0
2, 8160, Note_on_c, 1, 75, 127
2, 8160, Note_off_c, 1, 82, 0
2, 8160, Note_off_c, 1, 85, 0
2, 8160, Note_on_c, 1, 87, 127
2, 8200, Note_off_c, 1, 34, 0
2, 8200, Note_off_c, 1, 37, 0
2, 8200, Note_off_c, 1, 46, 0
2, 8200, Note_on_c, 1, 57, 127
2, 8200, Note_on_c, 1, 66, 127
2, 8200, Note_on_c, 1, 69, 127
2, 8200, Note_off_c, 1, 75, 0
2, 8200, Note_off_c, 1, 87, 0
2, 8200, Note_on_c, 1, 95, 127
2, 8240, Note_on_c, 1, 56, 127
2, 8240, Note_off_c, 1, 57, 0
2, 8240, Note_on_c, 1, 63, 127
2, 8240, Note_off_c, 1, 69, 0
2, 8240, Note_on_c, 1, 73, 127
2, 8240, Note_on_c, 1, 85, 127
2, 8240, Note_off_c, 1, 95, 0
2, 8280, Note_on_c, 1, 30, 127
2, 8280, Note_on_c, 1, 37, 127
2, 8280, Note_on_c, 1, 42, 127
2, 8280, Note_off_c, 1, 56, 0
2, 8280, Note_off_c, 1, 63, 0
2, 8280, Note_off_c, 1, 66, 0
2, 8280, Note_off_c, 1, 73, 0
2, 8280, Note_on_c, 1, 81, 127
2, 8280, Note_off_c, 1, 85, 0
2, 8320, Note_off_c, 1, 30, 0
2, 8320, Note_off_c, 1, 37, 0
2, 8320, Note_off_c, 1, 42, 0
2, 8320, Note_on_c, 1, 48, 127
2, 8320, Note_on_c, 1, 77, 127
2, 8320, Note_on_c, 1, 80, 127
2, 8320, Note_off_c, 1, 81, 0
2, 8320, Note_on_c, 1, 86, 127
2, 8320, Note_on_c, 1, 89, 127
2, 8360, Note_on_c, 1, 37, 127
2, 8360, Note_off_c, 1, 48, 0
2, 8360, Note_on_c, 1, 55, 127
2, 8360, Note_on_c, 1, 58, 127
2, 8360, Note_on_c, 1, 64, 127
2, 8360, Note_on_c, 1, 67, 127
2, 8360, Note_off_c, 1, 77, 0
2, 8360, Note_off_c, 1, 80, 0
2, 8360, Note_off_c, 1, 86, 0
2, 8360, Note_off_c, 1, 89, 0
2, 8400, Note_on_c, 1, 42, 127
2, 8400, Note_on_c, 1, 46, 127
2, 8400, Note_on_c, 1, 49, 127
2, 8400, Note_off_c, 1, 55, 0
2, 8400, Note_off_c, 1, 58, 0
2, 8400, Note_on_c, 1, 61, 127
2, 8400, Note_off_c, 1, 64, 0
2, 8400, Note_off_c, 1, 67, 0
2, 8400, Note_on_c, 1, 73, 127
2, 8440, Note_on_c, 1, 33, 127
2, 8440, Note_off_c, 1, 37, 0
2, 8440, Note_off_c, 1, 42, 0
2, 8440, Note_on_c, 1, 45, 127
2, 8440, Note_off_c, 1, 46, 0
2, 8440, Note_off_c, 1, 49, 0
2, 8440, Note_off_c, 1, 61, 0
2, 8440, Note_on_c, 1, 67, 127
2, 8440, Note_on_c, 1, 79, 127
2, 8480, Note_off_c, 1, 33, 0
2, 8480, Note_on_c, 1, 40, 127
2, 8480, Note_on_c, 1, 42, 127
2, 8480, Note_off_c, 1, 45, 0
2, 8480, Note_on_c, 1, 49, 127
2, 8480, Note_on_c, 1, 53, 127
2, 8480, Note_off_c, 1, 67, 0
2, 8480, Note_off_c, 1, 73, 0
2, 8480, Note_off_c, 1, 79, 0
2, 8520, Note_off_c, 1, 40, 0
2, 8520, Note_off_c, 1, 42, 0
2, 8520, Note_off_c, 1, 49, 0
2, 8520, Note_off_c, 1, 53, 0
2, 8520, Note_on_c, 1, 57, 127
2, 8520, Note_on_c, 1, 69, 127
2, 8520, Note_on_c, 1, 74, 127
2, 8520, Note_on_c, 1, 76, 127
2, 8520, Note_on_c, 1, 86, 127
2, 8520, Note_on_c, 1, 88, 127
2, 8560, Note_on_c, 1, 42, 127
2, 8560, Note_on_c, 1, 49, 127
2, 8560, Note_off_c, 1, 69, 0
2, 8560, Note_off_c, 1, 74, 0
2, 8560, Note_off_c, 1, 76, 0
2, 8560, Note_on_c, 1, 80, 127
2, 8560, Note_off_c, 1, 86, 0
2, 8560, Note_off_c, 1, 88, 0
2, 8600, Note_off_c, 1, 42, 0
2, 8600, Note_on_c, 1, 45, 127
2, 8600, Note_on_c, 1, 48, 127
2, 8600, Note_off_c, 1, 49, 0
2, 8600, Note_off_c, 1, 57, 0
2, 8600, Note_on_c, 1, 65, 127
2, 8600, Note_on_c, 1, 75, 127
2, 8600, Note_off_c, 1, 80, 0
2, 8640, Note_on_c, 1, 44, 127
2, 8640, Note_off_c, 1, 45, 0
2, 8640, Note_on_c, 1, 51, 127
2, 8640, Note_off_c, 1, 65, 0
2, 8640, Note_on_c, 1, 67, 127
2, 8640, Note_off_c, 1, 75, 0
2, 8680, Note_on_c, 1, 37, 127
2, 8680, Note_off_c, 1, 44, 0
2, 8680, Note_off_c, 1, 48, 0
2, 8680, Note_on_c, 1, 49, 127
2, 8680, Note_off_c, 1, 51, 0
2, 8680, Note_on_c, 1, 65, 127
2, 8680, Note_on_c, 1, 66, 127
2, 8680, Note_off_c, 1, 67, 0
2, 8680, Note_on_c, 1, 68, 127
2, 8680, Note_on_c, 1, 70, 127
2, 8680, Note_on_c, 1, 71, 127
2, 8720, Note_on_c, 1, 34, 127
2, 8720, Note_off_c, 1, 37, 0
2, 8720, Note_on_c, 1, 40, 127
2, 8720, Note_on_c, 1, 46, 127
2, 8720, Note_off_c, 1, 49, 0
2, 8720, Note_off_c, 1, 65, 0
2, 8720, Note_off_c, 1, 66, 0
2, 8720, Note_off_c, 1, 68, 0
2, 8720, Note_off_c, 1, 70, 0
2, 8720, Note_off_c, 1, 71, 0
2, 8760, Note_on_c, 1, 29, 127
2, 8760, Note_off_c, 1, 34, 0
2, 8760, Note_off_c, 1, 40, 0
2, 8760, Note_on_c, 1, 41, 127
2, 8760, Note_off_c, 1, 46, 0
2, 8760, Note_on_c, 1, 79, 127
2, 8760, Note_on_c, 1, 91, 127
2, 8800, Note_off_c, 1, 29, 0
2, 8800, Note_on_c, 1, 39, 127
2, 8800, Note_off_c, 1, 41, 0
2, 8800, Note_on_c, 1, 49, 127
2, 8800, Note_on_c, 1, 51, 127
2, 8800, Note_on_c, 1, 55, 127
2, 8800, Note_on_c, 1, 61, 127
2, 8800, Note_on_c, 1, 63, 127
2, 8800, Note_off_c, 1, 79, 0
2, 8800, Note_off_c, 1, 91, 0
2, 8840, Note_on_c, 1, 36, 127
2, 8840, Note_off_c, 1, 39, 0
2, 8840, Note_on_c, 1, 48, 127
2, 8840, Note_off_c, 1, 49, 0
2, 8840, Note_off_c, 1, 51, 0
2, 8840, Note_off_c, 1, 55, 0
2, 8840, Note_on_c, 1, 58, 127
2, 8840, Note_on_c, 1, 60, 127
2, 8840, Note_off_c, 1, 61, 0
2, 8840, Note_off_c, 1, 63, 0
2, 8840, Note_on_c, 1, 64, 127
2, 8840, Note_on_c, 1, 67, 127
2, 8880, Note_off_c, 1, 48, 0
2, 8880, Note_off_c, 1, 58, 0
2, 8880, Note_off_c, 1, 60, 0
2, 8880, Note_off_c, 1, 64, 0
2, 8880, Note_off_c, 1, 67, 0
2, 8880, Note_on_c, 1, 76, 127
2, 8880, Note_on_c, 1, 80, 127
2, 8880, Note_on_c, 1, 88, 127
2, 8920, Note_off_c, 1, 36, 0
2, 8920, Note_on_c, 1, 57, 127
2, 8920, Note_on_c, 1, 63, 127
2, 8920, Note_off_c, 1, 76, 0
2, 8920, Note_off_c, 1, 80, 0
2, 8920, Note_on_c, 1, 87, 127
2, 8920, Note_off_c, 1, 88, 0
2, 8920, Note_on_c, 1, 90, 127
2, 8920, Note_on_c, 1, 92, 127
2, 8960, Note_on_c, 1, 28, 127
2, 8960, Note_on_c, 1, 40, 127
2, 8960, Note_off_c, 1, 57, 0
2, 8960, Note_on_c, 1, 61, 127
2, 8960, Note_off_c, 1, 63, 0
2, 8960, Note_on_c, 1, 68, 127
2, 8960, Note_off_c, 1, 87, 0
2, 8960, Note_off_c, 1, 90, 0
2, 8960, Note_off_c, 1, 92, 0
2, 9000, Note_on_c, 1, 37, 127
2, 9000, Note_off_c, 1, 40, 0
2, 9000, Note_on_c, 1, 49, 127
2, 9000, Note_on_c, 1, 52, 127
2, 9000, Note_on_c, 1, 58, 127
2, 9000, Note_off_c, 1, 61, 0
2, 9000, Note_off_c, 1, 68, 0
2, 9040, Note_off_c, 1, 28, 0
2, 9040, Note_on_c, 1, 29, 127
2, 9040, Note_off_c, 1, 37, 0
2, 9040, Note_on_c, 1, 45, 127
2, 9040, Note_off_c, 1, 49, 0
2, 9040, Note_off_c, 1, 52, 0
2, 9040, Note_off_c, 1, 58, 0
2, 9080, Note_off_c, 1, 29, 0
2, 9080, Note_off_c, 1, 45, 0
2, 9080, Note_on_c, 1, 64, 127
2, 9080, Note_on_c, 1, 67, 127
2, 9080, Note_on_c, 1, 71, 127
2, 9080, Note_on_c, 1, 91, 127
2, 9120, Note_on_c, 1, 51, 127
2, 9120, Note_on_c, 1, 55, 127
2, 9120, Note_on_c, 1, 58, 127
2, 9120, Note_on_c, 1, 61, 127
2, 9120, Note_off_c, 1, 64, 0
2, 9120, Note_off_c, 1, 67, 0
2, 9120, Note_off_c, 1, 71, 0
2, 9120, Note_on_c, 1, 75, 127
2, 9120, Note_off_c, 1, 91, 0
2, 9160, Note_off_c, 1, 51, 0
2, 9160, Note_on_c, 1, 54, 127
2, 9160, Note_off_c, 1, 55, 0
2, 9160, Note_on_c, 1, 57, 127
2, 9160, Note_off_c, 1, 58, 0
2, 9160, Note_off_c, 1, 61, 0
2, 9160, Note_on_c, 1, 66, 127
2, 9160, Note_on_c, 1, 74, 127
2, 9160, Note_off_c, 1, 75, 0
2, 9160, Note_on_c, 1, 80, 127
2, 9200, Note_off_c, 1, 54, 0
2, 9200, Note_off_c, 1, 57, 0
2, 9200, Note_off_c, 1, 66, 0
2, 9200, Note_off_c, 1, 74, 0
2, 9200, Note_off_c, 1, 80, 0
2, 9200, Note_on_c, 1, 92, 127
2, 9200, Note_on_c, 1, 95, 127
2, 9200, Note_on_c, 1, 101, 127
2, 9240, Note_on_c, 1, 48, 127
2, 9240, Note_on_c, 1, 51, 127
2, 9240, Note_on_c, 1, 54, 127
2, 9240, Note_on_c, 1, 81, 127
2, 9240, Note_off_c, 1, 92, 0
2, 9240, Note_off_c, 1, 95, 0
2, 9240, Note_off_c, 1, 101, 0
2, 9280, Note_on_c, 1, 40, 127
2, 9280, Note_on_c, 1, 47, 127
2, 9280, Note_off_c, 1, 48, 0
2, 9280, Note_on_c, 1, 50, 127
2, 9280, Note_off_c, 1, 51, 0
2, 9280, Note_on_c, 1, 52, 127
2, 9280, Note_off_c, 1, 54, 0
2, 9280, Note_on_c, 1, 74, 127
2, 9280, Note_off_c, 1, 81, 0
2, 9320, Note_off_c, 1, 40, 0
2, 9320, Note_off_c, 1, 47, 0
2, 9320, Note_off_c, 1, 50, 0
2, 9320, Note_off_c, 1, 52, 0
2, 9320, Note_on_c, 1, 55, 127
2, 9320, Note_on_c, 1, 57, 127
2, 9320, Note_on_c, 1, 64, 127
2, 9320, Note_on_c, 1, 71, 127
2, 9320, Note_off_c, 1, 74, 0
2, 9360, Note_on_c, 1, 41, 127
2, 9360, Note_on_c, 1, 53, 127
2, 9360, Note_off_c, 1, 55, 0
2, 9360, Note_off_c, 1, 57, 0
2, 9360, Note_off_c, 1, 64, 0
2, 9360, Note_on_c, 1, 69, 127
2, 9360, Note_off_c, 1, 71, 0
2, 9360, Note_on_c, 1, 78, 127
2, 9400, Note_off_c, 1, 41, 0
2, 9400, Note_off_c, 1, 53, 0
2, 9400, Note_off_c, 1, 69, 0
2, 9400, Note_on_c, 1, 74, 127
2, 9400, Note_off_c, 1, 78, 0
2, 9400, Note_on_c, 1, 90, 127
2, 9400, Note_on_c, 1, 93, 127
2, 9400, Note_on_c, 1, 96, 127
2, 9440, Note_on_c, 1, 34, 127
2, 9440, Note_on_c, 1, 38, 127
2, 9440, Note_on_c, 1, 41, 127
2, 9440, Note_on_c, 1, 53, 127
2, 9440, Note_off_c, 1, 74, 0
2, 9440, Note_off_c, 1, 90, 0
2, 9440, Note_off_c, 1, 93, 0
2, 9440, Note_off_c, 1, 96, 0
2, 9480, Note_off_c, 1, 34, 0
2, 9480, Note_off_c, 1, 38, 0
2, 9480, Note_on_c, 1, 50, 127
2, 9480, Note_on_c, 1, 65, 127
2, 9480, Note_on_c, 1, 74, 127
2, 9520, Note_off_c, 1, 41, 0
2, 9520, Note_off_c, 1, 50, 0
2, 9520, Note_off_c, 1, 53, 0
2, 9520, Note_on_c, 1, 58, 127
2, 9520, Note_off_c, 1, 65, 0
2, 9520, Note_on_c, 1, 67, 127
2, 9520, Note_on_c, 1, 70, 127
2, 9520, Note_off_c, 1, 74, 0
2, 9520, Note_on_c, 1, 76, 127
2, 9520, Note_on_c, 1, 85, 127
2, 9560, Note_off_c, 1, 58, 0
2, 9560, Note_off_c, 1, 67, 0
2, 9560, Note_off_c, 1, 70, 0
2, 9560, Note_off_c, 1, 76, 0
2, 9560, Note_off_c, 1, 85, 0
2, 9600, Note_on_c, 1, 42, 127
2, 9600, Note_on_c, 1, 44, 127
2, 9600, Note_on_c, 1, 51, 127
2, 9600, Note_on_c, 1, 54, 127
2, 9600, Note_on_c, 1, 56, 127
2, 9640, Note_off_c, 1, 42, 0
2, 9640, Note_off_c, 1, 44, 0
2, 9640, Note_off_c, 1, 51, 0
2, 9640, Note_on_c, 1, 53, 127
2, 9640, Note_off_c, 1, 54, 0
2, 9640, Note_off_c, 1, 56, 0
2, 9640, Note_on_c, 1, 57, 127
2, 9640, Note_on_c, 1, 59, 127
2, 9640, Note_on_c, 1, 62, 127
2, 9680, Note_off_c, 1, 53, 0
2, 9680, Note_off_c, 1, 59, 0
2, 9680, Note_on_c, 1, 60, 127
2, 9680, Note_off_c, 1, 62, 0
2, 9680, Note_on_c, 1, 64, 127
2, 9680, Note_on_c, 1, 69, 127
2, 9680, Note_on_c, 1, 81, 127
2, 9680, Note_on_c, 1, 84, 127
2, 9680, Note_on_c, 1, 88, 127
2, 9680, Note_on_c, 1, 93, 127
2, 9720, Note_on_c, 1, 37, 127
2, 9720, Note_on_c, 1, 44, 127
2, 9720, Note_off_c, 1, 57, 0
2, 9720, Note_off_c, 1, 60, 0
2, 9720, Note_off_c, 1, 64, 0
2, 9720, Note_on_c, 1, 68, 127
2, 9720, Note_off_c, 1, 69, 0
2, 9720, Note_off_c, 1, 81, 0
2, 9720, Note_off_c, 1, 84, 0
2, 9720, Note_off_c, 1, 88, 0
2, 9720, Note_on_c, 1, 89, 127
2, 9720, Note_off_c, 1, 93, 0
2, 9760, Note_off_c, 1, 37, 0
2, 9760, Note_off_c, 1, 44, 0
2, 9760, Note_on_c, 1, 62, 127
2, 9760, Note_on_c, 1, 66, 127
2, 9760, Note_off_c, 1, 68, 0
2, 9760, Note_on_c, 1, 71, 127
2, 9760, Note_on_c, 1, 74, 127
2, 9760, Note_on_c, 1, 78, 127
2, 9760, Note_on_c, 1, 83, 127
2, 9760, Note_on_c, 1, 86, 127
2, 9760, Note_off_c, 1, 89, 0
2, 9800, Note_on_c, 1, 32, 127
2, 9800, Note_on_c, 1, 44, 127
2, 9800, Note_on_c, 1, 47, 127
2, 9800, Note_on_c, 1, 53, 127
2, 9800, Note_on_c, 1, 61, 127
2, 9800, Note_off_c, 1, 62, 0
2, 9800, Note_off_c, 1, 66, 0
2, 9800, Note_off_c, 1, 71, 0
2, 9800, Note_off_c, 1, 74, 0
2, 9800, Note_off_c, 1, 78, 0
2, 9800, Note_off_c, 1, 83, 0
2, 9800, Note_off_c, 1, 86, 0
2, 9840, Note_off_c, 1, 32, 0
2, 9840, Note_off_c, 1, 44, 0
2, 9840, Note_on_c, 1, 46, 127
2, 9840, Note_off_c, 1, 47, 0
2, 9840, Note_on_c, 1, 60, 127
2, 9840, Note_off_c, 1, 61, 0
2, 9840, Note_on_c, 1, 68, 127
2, 9840, Note_on_c, 1, 75, 127
2, 9880, Note_on_c, 1, 29, 127
2, 9880, Note_on_c, 1, 34, 127
2, 9880, Note_on_c, 1, 36, 127
2, 9880, Note_off_c, 1, 46, 0
2, 9880, Note_off_c, 1, 53, 0
2, 9880, Note_off_c, 1, 60, 0
2, 9880, Note_off_c, 1, 68, 0
2, 9880, Note_off_c, 1, 75, 0
2, 9920, Note_off_c, 1, 29, 0
2, 9920, Note_off_c, 1, 34, 0
2, 9920, Note_off_c, 1, 36, 0
2, 9920, Note_on_c, 1, 65, 127
2, 9920, Note_on_c, 1, 70, 127
2, 9920, Note_on_c, 1, 72, 127
2, 9920, Note_on_c, 1, 75, 127
2, 9920, Note_on_c, 1, 85, 127
2, 9960, Note_on_c, 1, 51, 127
2, 9960, Note_on_c, 1, 58, 127
2, 9960, Note_on_c, 1, 61, 127
2, 9960, Note_off_c, 1, 65, 0
2, 9960, Note_off_c, 1, 70, 0
2, 9960, Note_off_c, 1, 72, 0
2, 9960, Note_off_c, 1, 75, 0
2, 9960, Note_off_c, 1, 85, 0
2, 9960, Note_on_c, 1, 96, 127
2, 10000, Note_off_c, 1, 51, 0
2, 10000, Note_off_c, 1, 58, 0
2, 10000, Note_off_c, 1, 61, 0
2, 10000, Note_on_c, 1, 83, 127
2, 10000, Note_on_c, 1, 86, 127
2, 10000, Note_on_c, 1, 89, 127
2, 10000, Note_on_c, 1, 92, 127
2, 10000, Note_on_c, 1, 95, 127
2, 10000, Note_off_c, 1, 96, 0
2, 10040, Note_on_c, 1, 49, 127
2, 10040, Note_on_c, 1, 63, 127
2, 10040, Note_on_c, 1, 65, 127
2, 10040, Note_off_c, 1, 83, 0
2, 10040, Note_off_c, 1, 86, 0
2, 10040, Note_off_c, 1, 89, 0
2, 10040, Note_off_c, 1, 92, 0
2, 10040, Note_off_c, 1, 95, 0
2, 10360, Note_off_c, 1, 63, 0
2, 10400, Note_on_c, 1, 44, 127
2, 10400, Note_off_c, 1, 49, 0
2, 10400, Note_on_c, 1, 60, 127
2, 10400, Note_off_c, 1, 65, 0
2, 10400, Note_on_c, 1, 68, 127
2, 10400, Note_on_c, 1, 75, 127
2, 11120, Note_on_c, 1, 51, 127
2, 11120, Note_off_c, 1, 60, 0
2, 11120, Note_on_c, 1, 63, 127
2, 11120, Note_on_c, 1, 71, 127
2, 11120, Note_off_c, 1, 75, 0
2, 11160, Note_off_c, 1, 51, 0
2, 11160, Note_off_c, 1, 63, 0
2, 11160, Note_off_c, 1, 68, 0
2, 11160, Note_off_c, 1, 71, 0
2, 11160, Note_on_c, 1, 72, 127
2, 11160, Note_on_c, 1, 75, 127
2, 11200, Note_off_c, 1, 44, 0
2, 11200, Note_on_c, 1, 62, 127
2, 11200, Note_on_c, 1, 68, 127
2, 11200, Note_off_c, 1, 72, 0
2, 11200, Note_off_c, 1, 75, 0
2, 11200, Note_on_c, 1, 86, 127
2, 11200, Note_on_c, 1, 89, 127
2, 11240, Note_on_c, 1, 49, 127
2, 11240, Note_on_c, 1, 54, 127
2, 11240, Note_on_c, 1, 57, 127
2, 11240, Note_on_c, 1, 61, 127
2, 11240, Note_off_c, 1, 62, 0
2, 11240, Note_off_c, 1, 68, 0
2, 11240, Note_on_c, 1, 71, 127
2, 11240, Note_off_c, 1, 86, 0
2, 11240, Note_off_c, 1, 89, 0
2, 11280, Note_off_c, 1, 49, 0
2, 11280, Note_off_c, 1, 54, 0
2, 11280, Note_off_c, 1, 57, 0
2, 11280, Note_on_c, 1, 60, 127
2, 11280, Note_off_c, 1, 61, 0
2, 11280, Note_off_c, 1, 71, 0
2, 11280, Note_on_c, 1, 74, 127
2, 11280, Note_on_c, 1, 79, 127
2, 11280, Note_on_c, 1, 82, 127
2, 11280, Note_on_c, 1, 86, 127
2, 11320, Note_on_c, 1, 64, 127
2, 11320, Note_on_c, 1, 67, 127
2, 11320, Note_on_c, 1, 70, 127
2, 11320, Note_off_c, 1, 74, 0
2, 11320, Note_off_c, 1, 79, 0
2, 11320, Note_off_c, 1, 82, 0
2, 11320, Note_off_c, 1, 86, 0
2, 11360, Note_on_c, 1, 57, 127
2, 11360, Note_off_c, 1, 60, 0
2, 11360, Note_off_c, 1, 70, 0
2, 11360, Note_on_c, 1, 100, 127
2, 11400, Note_on_c, 1, 48, 127
2, 11400, Note_on_c, 1, 60, 127
2, 11400, Note_on_c, 1, 63, 127
2, 11400, Note_off_c, 1, 64, 0
2, 11400, Note_on_c, 1, 66, 127
2, 11400, Note_off_c, 1, 67, 0
2, 11400, Note_on_c, 1, 69, 127
2, 11400, Note_off_c, 1, 100, 0
2, 11440, Note_on_c, 1, 47, 127
2, 11440, Note_off_c, 1, 48, 0
2, 11440, Note_off_c, 1, 57, 0
2, 11440, Note_off_c, 1, 60, 0
2, 11440, Note_off_c, 1, 63, 0
2, 11440, Note_off_c, 1, 66, 0
2, 11440, Note_off_c, 1, 69, 0
2, 11440, Note_on_c, 1, 75, 127
2, 11440, Note_on_c, 1, 80, 127
2, 11440, Note_on_c, 1, 83, 127
2, 11440, Note_on_c, 1, 87, 127
2, 11480, Note_off_c, 1, 47, 0
2, 11480, Note_on_c, 1, 49, 127
2, 11480, Note_off_c, 1, 75, 0
2, 11480, Note_on_c, 1, 76, 127
2, 11480, Note_off_c, 1, 80, 0
2, 11480, Note_on_c, 1, 82, 127
2, 11480, Note_off_c, 1, 83, 0
2, 11480, Note_on_c, 1, 85, 127
2, 11480, Note_off_c, 1, 87, 0
2, 11520, Note_off_c, 1, 49, 0
2, 11520, Note_off_c, 1, 76, 0
2, 11520, Note_off_c, 1, 82, 0
2, 11520, Note_off_c, 1, 85, 0
2, 11560, Note_on_c, 1, 82, 127
2, 11560, Note_on_c, 1, 86, 127
2, 11560, Note_on_c, 1, 103, 127
2, 11600, Note_on_c, 1, 30, 127
2, 11600, Note_on_c, 1, 37, 127
2, 11600, Note_on_c, 1, 52, 127
2, 11600, Note_on_c, 1, 67, 127
2, 11600, Note_off_c, 1, 82, 0
2, 11600, Note_off_c, 1, 86, 0
2, 11600, Note_off_c, 1, 103, 0
2, 11640, Note_off_c, 1, 30, 0
2, 11640, Note_off_c, 1, 37, 0
2, 11640, Note_off_c, 1, 52, 0
2, 11640, Note_on_c, 1, 53, 127
2, 11640, Note_on_c, 1, 65, 127
2, 11640, Note_off_c, 1, 67, 0
2, 11640, Note_on_c, 1, 80, 127
2, 11640, Note_on_c, 1, 83, 127
2, 11640, Note_on_c, 1, 86, 127
2, 11640, Note_on_c, 1, 92, 127
2, 11680, Note_on_c, 1, 42, 127
2, 11680, Note_on_c, 1, 45, 127
2, 11680, Note_on_c, 1, 49, 127
2, 11680, Note_off_c, 1, 53, 0
2, 11680, Note_on_c, 1, 54, 127
2, 11680, Note_off_c, 1, 65, 0
2, 11680, Note_on_c, 1, 78, 127
2, 11680, Note_off_c, 1, 80, 0
2, 11680, Note_on_c, 1, 81, 127
2, 11680, Note_off_c, 1, 83, 0
2, 11680, Note_off_c, 1, 86, 0
2, 11680, Note_off_c, 1, 92, 0
2, 11720, Note_on_c, 1, 36, 127
2, 11720, Note_off_c, 1, 42, 0
2, 11720, Note_off_c, 1, 45, 0
2, 11720, Note_on_c, 1, 46, 127
2, 11720, Note_off_c, 1, 49, 0
2, 11720, Note_on_c, 1, 53, 127
2, 11720, Note_off_c, 1, 54, 0
2, 11720, Note_on_c, 1, 65, 127
2, 11720, Note_on_c, 1, 70, 127
2, 11720, Note_on_c, 1, 73, 127
2, 11720, Note_off_c, 1, 78, 0
2, 11720, Note_off_c, 1, 81, 0
2, 11760, Note_off_c, 1, 36, 0
2, 11760, Note_off_c, 1, 46, 0
2, 11760, Note_off_c, 1, 53, 0
2, 11760, Note_on_c, 1, 59, 127
2, 11760, Note_on_c, 1, 62, 127
2, 11760, Note_off_c, 1, 73, 0
2, 11760, Note_on_c, 1, 91, 127
2, 11800, Note_on_c, 1, 35, 127
2, 11800, Note_on_c, 1, 47, 127
2, 11800, Note_off_c, 1, 59, 0
2, 11800, Note_off_c, 1, 62, 0
2, 11800, Note_off_c, 1, 70, 0
2, 11800, Note_on_c, 1, 71, 127
2, 11800, Note_off_c, 1, 91, 0
2, 11840, Note_on_c, 1, 28, 127
2, 11840, Note_off_c, 1, 35, 0
2, 11840, Note_off_c, 1, 47, 0
2, 11840, Note_on_c, 1, 58, 127
2, 11840, Note_off_c, 1, 65, 0
2, 11840, Note_off_c, 1, 71, 0
2, 11880, Note_off_c, 1, 28, 0
2, 11880, Note_on_c, 1, 34, 127
2, 11880, Note_on_c, 1, 46, 127
2, 11880, Note_on_c, 1, 57, 127
2, 11880, Note_off_c, 1, 58, 0
2, 11880, Note_on_c, 1, 62, 127
2, 11880, Note_on_c, 1, 69, 127
2, 11920, Note_off_c, 1, 34, 0
2, 11920, Note_off_c, 1, 46, 0
2, 11920, Note_on_c, 1, 50, 127
2, 11920, Note_on_c, 1, 55, 127
2, 11920, Note_off_c, 1, 57, 0
2, 11920, Note_off_c, 1, 62, 0
2, 11920, Note_on_c, 1, 72, 127
2, 11960, Note_off_c, 1, 50, 0
2, 11960, Note_off_c, 1, 55, 0
2, 11960, Note_on_c, 1, 57, 127
2, 11960, Note_on_c, 1, 59, 127
2, 11960, Note_on_c, 1, 66, 127
2, 11960, Note_off_c, 1, 69, 0
2, 11960, Note_off_c, 1, 72, 0
2, 11960, Note_on_c, 1, 76, 127
2, 11960, Note_on_c, 1, 83, 127
2, 12000, Note_on_c, 1, 34, 127
2, 12000, Note_on_c, 1, 46, 127
2, 12000, Note_off_c, 1, 59, 0
2, 12000, Note_on_c, 1, 62, 127
2, 12000, Note_off_c, 1, 66, 0
2, 12000, Note_on_c, 1, 69, 127
2, 12000, Note_off_c, 1, 76, 0
2, 12000, Note_off_c, 1, 83, 0
2, 13520, Note_off_c, 1, 34, 0
2, 13520, Note_off_c, 1, 46, 0
2, 13520, Note_off_c, 1, 57, 0
2, 13520, Note_off_c, 1, 62, 0
2, 13520, Note_off_c, 1, 69, 0
2, 13560, Note_on_c, 1, 34, 127
2, 13560, Note_on_c, 1, 46, 127
2, 13560, Note_on_c, 1, 57, 127
2, 13560, Note_on_c, 1, 62, 127
2, 13560, Note_on_c, 1, 69, 127
2, 15240, Note_off_c, 1, 34, 0
2, 15240, Note_off_c, 1, 46, 0
2, 15240, Note_off_c, 1, 57, 0
2, 15240, Note_off_c, 1, 62, 0
2, 15240, Note_off_c, 1, 69, 0
2, 16080, Note_on_c, 1, 57, 127
2, 16080, Note_on_c, 1, 60, 127
2, 16080, Note_on_c, 1, 63, 127
2, 16080, Note_on_c, 1, 72, 127
2, 16080, Note_on_c, 1, 78, 127
2, 16080, Note_on_c, 1, 83, 127
2, 16120, Note_off_c, 1, 57, 0
2, 16120, Note_on_c, 1, 58, 127
2, 16120, Note_off_c, 1, 63, 0
2, 16120, Note_on_c, 1, 64, 127
2, 16120, Note_off_c, 1, 72, 0
2, 16120, Note_off_c, 1, 78, 0
2, 16120, Note_off_c, 1, 83, 0
2, 16120, Note_on_c, 1, 88, 127
2, 16160, Note_off_c, 1, 58, 0
2, 16160, Note_off_c, 1, 60, 0
2, 16160, Note_off_c, 1, 64, 0
2, 16160, Note_on_c, 1, 68, 127
2, 16160, Note_on_c, 1, 80, 127
2, 16160, Note_off_c, 1, 88, 0
2, 16160, Note_on_c, 1, 96, 127
2, 16200, Note_on_c, 1, 38, 127
2, 16200, Note_on_c, 1, 50, 127
2, 16200, Note_off_c, 1, 68, 0
2, 16200, Note_off_c, 1, 80, 0
2, 16200, Note_on_c, 1, 85, 127
2, 16200, Note_on_c, 1, 89, 127
2, 16200, Note_on_c, 1, 92, 127
2, 16200, Note_off_c, 1, 96, 0
2, 16200, Note_on_c, 1, 97, 127
2, 16240, Note_off_c, 1, 38, 0
2, 16240, Note_off_c, 1, 50, 0
2, 16240, Note_off_c, 1, 85, 0
2, 16240, Note_off_c, 1, 89, 0
2, 16240, Note_off_c, 1, 92, 0
2, 16240, Note_off_c, 1, 97, 0
2, 16280, Note_on_c, 1, 39, 127
2, 16280, Note_on_c, 1, 51, 127
2, 16280, Note_on_c, 1, 55, 127
2, 16280, Note_on_c, 1, 56, 127
2, 16280, Note_on_c, 1, 60, 127
2, 17080, Note_off_c, 1, 39, 0
2, 17080, Note_off_c, 1, 51, 0
2, 17080, Note_off_c, 1, 55, 0
2, 17120, Note_on_c, 1, 39, 127
2, 17120, Note_on_c, 1, 51, 127
2, 17120, Note_on_c, 1, 55, 127
2, 18120, Note_off_c, 1, 39, 0
2, 18120, Note_off_c, 1, 51, 0
2, 18120, Note_off_c, 1, 55, 0
2, 18120, Note_off_c, 1, 56, 0
2, 18120, Note_off_c, 1, 60, 0
2, 18160, Note_on_c, 1, 39, 127
2, 18160, Note_on_c, 1, 51, 127
2, 18160, Note_on_c, 1, 55, 127
2, 18160, Note_on_c, 1, 56, 127
2, 18160, Note_on_c, 1, 60, 127
2, 18360, Note_off_c, 1, 39, 0
2, 18360, Note_off_c, 1, 51, 0
2, 18360, Note_off_c, 1, 55, 0
2, 18400, Note_on_c, 1, 55, 127
2, 18400, Note_off_c, 1, 56, 0
2, 18400, Note_off_c, 1, 60, 0
2, 18400, Note_on_c, 1, 62, 127
2, 18400, Note_on_c, 1, 71, 127
2, 18400, Note_on_c, 1, 79, 127
2, 18400, Note_on_c, 1, 83, 127
2, 18760, Note_on_c, 1, 42, 127
2, 18760, Note_on_c, 1, 54, 127
2, 18760, Note_off_c, 1, 55, 0
2, 18760, Note_on_c, 1, 61, 127
2, 18760, Note_off_c, 1, 62, 0
2, 18760, Note_off_c, 1, 71, 0
2, 18760, Note_on_c, 1, 76, 127
2, 18760, Note_off_c, 1, 79, 0
2, 18760, Note_off_c, 1, 83, 0
2, 18760, Note_on_c, 1, 88, 127
2, 18800, Note_off_c, 1, 42, 0
2, 18800, Note_on_c, 1, 53, 127
2, 18800, Note_off_c, 1, 54, 0
2, 18800, Note_off_c, 1, 61, 0
2, 18800, Note_on_c, 1, 65, 127
2, 18800, Note_off_c, 1, 76, 0
2, 18800, Note_off_c, 1, 88, 0
2, 18840, Note_on_c, 1, 50, 127
2, 18840, Note_on_c, 1, 52, 127
2, 18840, Note_off_c, 1, 53, 0
2, 18840, Note_on_c, 1, 59, 127
2, 18840, Note_on_c, 1, 64, 127
2, 18840, Note_off_c, 1, 65, 0
2, 18840, Note_on_c, 1, 71, 127
2, 19480, Note_off_c, 1, 52, 0
2, 19480, Note_off_c, 1, 59, 0
2, 19480, Note_off_c, 1, 64, 0
2, 19480, Note_off_c, 1, 71, 0
2, 19520, Note_on_c, 1, 58, 127
2, 19520, Note_on_c, 1, 70, 127
2, 20360, Note_off_c, 1, 50, 0
2, 20360, Note_off_c, 1, 58, 0
2, 20360, Note_off_c, 1, 70, 0
2, 20400, Note_on_c, 1, 50, 127
2, 20400, Note_on_c, 1, 58, 127
2, 20400, Note_on_c, 1, 70, 127
2, 20720, Note_off_c, 1, 50, 0
2, 20760, Note_on_c, 1, 50, 127
2, 21520, Note_off_c, 1, 50, 0
2, 21520, Note_off_c, 1, 58, 0
2, 21520, Note_off_c, 1, 70, 0
2, 21560, Note_on_c, 1, 42, 127
2, 21560, Note_on_c, 1, 49, 127
2, 21560, Note_on_c, 1, 58, 127
2, 21560, Note_on_c, 1, 61, 127
2, 21560, Note_on_c, 1, 63, 127
2, 21600, Note_off_c, 1, 61, 0
2, 21600, Note_off_c, 1, 63, 0
2, 21600, Note_on_c, 1, 70, 127
2, 22520, Note_off_c, 1, 42, 0
2, 22520, Note_off_c, 1, 49, 0
2, 22520, Note_off_c, 1, 58, 0
2, 22520, Note_off_c, 1, 70, 0
2, 22560, Note_on_c, 1, 42, 127
2, 22560, Note_on_c, 1, 49, 127
2, 22560, Note_on_c, 1, 58, 127
2, 22560, Note_on_c, 1, 70, 127
2, 22760, Note_off_c, 1, 58, 0
2, 22800, Note_off_c, 1, 42, 0
2, 22800, Note_on_c, 1, 45, 127
2, 22800, Note_off_c, 1, 49, 0
2, 22800, Note_on_c, 1, 77, 127
2, 23120, Note_off_c, 1, 45, 0
2, 23120, Note_on_c, 1, 53, 127
2, 23120, Note_on_c, 1, 68, 127
2, 23120, Note_off_c, 1, 70, 0
2, 23120, Note_on_c, 1, 74, 127
2, 23120, Note_off_c, 1, 77, 0
2, 23120, Note_on_c, 1, 85, 127
2, 23160, Note_on_c, 1, 33, 127
2, 23160, Note_on_c, 1, 38, 127
2, 23160, Note_on_c, 1, 45, 127
2, 23160, Note_off_c, 1, 68, 0
2, 23160, Note_off_c, 1, 74, 0
2, 23160, Note_off_c, 1, 85, 0
2, 23200, Note_off_c, 1, 33, 0
2, 23200, Note_off_c, 1, 38, 0
2, 23200, Note_off_c, 1, 45, 0
2, 23200, Note_on_c, 1, 50, 127
2, 23200, Note_off_c, 1, 53, 0
2, 23200, Note_on_c, 1, 69, 127
2, 23240, Note_on_c, 1, 43, 127
2, 23240, Note_off_c, 1, 50, 0
2, 23240, Note_on_c, 1, 55, 127
2, 23240, Note_on_c, 1, 57, 127
2, 23240, Note_on_c, 1, 60, 127
2, 23240, Note_on_c, 1, 66, 127
2, 23280, Note_off_c, 1, 43, 0
2, 23280, Note_on_c, 1, 47, 127
2, 23280, Note_on_c, 1, 52, 127
2, 23280, Note_off_c, 1, 55, 0
2, 23280, Note_off_c, 1, 57, 0
2, 23280, Note_off_c, 1, 60, 0
2, 23280, Note_on_c, 1, 63, 127
2, 23280, Note_off_c, 1, 66, 0
2, 23280, Note_off_c, 1, 69, 0
2, 23280, Note_on_c, 1, 71, 127
2, 23280, Note_on_c, 1, 75, 127
2, 24000, Note_off_c, 1, 47, 0
2, 24000, Note_on_c, 1, 49, 127
2, 24000, Note_off_c, 1, 52, 0
2, 24000, Note_off_c, 1, 63, 0
2, 24000, Note_on_c, 1, 66, 127
2, 24000, Note_off_c, 1, 71, 0
2, 24000, Note_off_c, 1, 75, 0
2, 24040, Note_off_c, 1, 49, 0
2, 24040, Note_off_c, 1, 66, 0
2, 24040, Note_on_c, 1, 67, 127
2, 24040, Note_on_c, 1, 72, 127
2, 24040, Note_on_c, 1, 76, 127
2, 24040, Note_on_c, 1, 79, 127
2, 24040, Note_on_c, 1, 84, 127
2, 24040, Note_on_c, 1, 88, 127
2, 24040, Note_on_c, 1, 91, 127
2, 24080, Note_on_c, 1, 34, 127
2, 24080, Note_on_c, 1, 51, 127
2, 24080, Note_on_c, 1, 55, 127
2, 24080, Note_on_c, 1, 58, 127
2, 24080, Note_off_c, 1, 67, 0
2, 24080, Note_off_c, 1, 72, 0
2, 24080, Note_off_c, 1, 76, 0
2, 24080, Note_off_c, 1, 79, 0
2, 24080, Note_off_c, 1, 84, 0
2, 24080, Note_off_c, 1, 88, 0
2, 24080, Note_off_c, 1, 91, 0
2, 24120, Note_off_c, 1, 34, 0
2, 24120, Note_on_c, 1, 38, 127
2, 24120, Note_on_c, 1, 45, 127
2, 24120, Note_on_c, 1, 50, 127
2, 24120, Note_off_c, 1, 51, 0
2, 24120, Note_off_c, 1, 55, 0
2, 24120, Note_off_c, 1, 58, 0
2, 24120, Note_on_c, 1, 89, 127
2, 24160, Note_on_c, 1, 32, 127
2, 24160, Note_off_c, 1, 38, 0
2, 24160, Note_off_c, 1, 45, 0
2, 24160, Note_off_c, 1, 50, 0
2, 24160, Note_on_c, 1, 83, 127
2, 24160, Note_on_c, 1, 86, 127
2, 24160, Note_off_c, 1, 89, 0
2, 24200, Note_off_c, 1, 32, 0
2, 24200, Note_on_c, 1, 53, 127
2, 24200, Note_on_c, 1, 58, 127
2, 24200, Note_on_c, 1, 65, 127
2, 24200, Note_on_c, 1, 70, 127
2, 24200, Note_on_c, 1, 74, 127
2, 24200, Note_on_c, 1, 82, 127
2, 24200, Note_off_c, 1, 83, 0
2, 24200, Note_off_c, 1, 86, 0
2, 24240, Note_on_c, 1, 32, 127
2, 24240, Note_on_c, 1, 44, 127
2, 24240, Note_off_c, 1, 53, 0
2, 24240, Note_off_c, 1, 58, 0
2, 24240, Note_off_c, 1, 65, 0
2, 24240, Note_off_c, 1, 70, 0
2, 24240, Note_on_c, 1, 71, 127
2, 24240, Note_off_c, 1, 74, 0
2, 24240, Note_on_c, 1, 75, 127
2, 24240, Note_on_c, 1, 78, 127
2, 24240, Note_off_c, 1, 82, 0
2, 24240, Note_on_c, 1, 83, 127
2, 24280, Note_off_c, 1, 32, 0
2, 24280, Note_off_c, 1, 44, 0
2, 24280, Note_on_c, 1, 45, 127
2, 24280, Note_on_c, 1, 48, 127
2, 24280, Note_on_c, 1, 53, 127
2, 24280, Note_on_c, 1, 69, 127
2, 24280, Note_off_c, 1, 71, 0
2, 24280, Note_off_c, 1, 75, 0
2, 24280, Note_off_c, 1, 78, 0
2, 24280, Note_off_c, 1, 83, 0
2, 24320, Note_off_c, 1, 45, 0
2, 24320, Note_on_c, 1, 46, 127
2, 24320, Note_off_c, 1, 48, 0
2, 24320, Note_on_c, 1, 49, 127
2, 24320, Note_on_c, 1, 58, 127
2, 24320, Note_off_c, 1, 69, 0
2, 24320, Note_on_c, 1, 73, 127
2, 24320, Note_on_c, 1, 77, 127
2, 24360, Note_off_c, 1, 46, 0
2, 24360, Note_off_c, 1, 49, 0
2, 24360, Note_off_c, 1, 53, 0
2, 24360, Note_off_c, 1, 58, 0
2, 24360, Note_off_c, 1, 73, 0
2, 24360, Note_off_c, 1, 77, 0
2, 24400, Note_on_c, 1, 32, 127
2, 24400, Note_on_c, 1, 44, 127
2, 24400, Note_on_c, 1, 71, 127
2, 24400, Note_on_c, 1, 75, 127
2, 24400, Note_on_c, 1, 78, 127
2, 24400, Note_on_c, 1, 83, 127
2, 26040, Note_off_c, 1, 32, 0
2, 26040, Note_off_c, 1, 44, 0
2, 26040, Note_off_c, 1, 71, 0
2, 26040, Note_off_c, 1, 75, 0
2, 26040, Note_off_c, 1, 78, 0
2, 26040, Note_off_c, 1, 83, 0
2, 26080, Note_on_c, 1, 48, 127
2, 26080, Note_on_c, 1, 51, 127
2, 26080, Note_on_c, 1, 54, 127
2, 26160, Note_off_c, 1, 48, 0
2, 26160, Note_off_c, 1, 51, 0
2, 26160, Note_off_c, 1, 54, 0
2, 26200, Note_on_c, 1, 48, 127
2, 26200, Note_on_c, 1, 51, 127
2, 26200, Note_on_c, 1, 54, 127
2, 27240, Note_on_c, 1, 75, 127
2, 27320, Note_off_c, 1, 75, 0
2, 27720, Note_on_c, 1, 29, 127
2, 27720, Note_off_c, 1, 48, 0
2, 27720, Note_off_c, 1, 51, 0
2, 27760, Note_off_c, 1, 29, 0
2, 27760, Note_on_c, 1, 39, 127
2, 27760, Note_on_c, 1, 47, 127
2, 27760, Note_off_c, 1, 54, 0
2, 27800, Note_off_c, 1, 39, 0
2, 27800, Note_on_c, 1, 45, 127
2, 27800, Note_off_c, 1, 47, 0
2, 27800, Note_on_c, 1, 52, 127
2, 27800, Note_on_c, 1, 64, 127
2, 27800, Note_on_c, 1, 71, 127
2, 28160, Note_off_c, 1, 45, 0
2, 28160, Note_off_c, 1, 52, 0
2, 28160, Note_off_c, 1, 64, 0
2, 28160, Note_off_c, 1, 71, 0
2, 28200, Note_on_c, 1, 45, 127
2, 28200, Note_on_c, 1, 52, 127
2, 28200, Note_on_c, 1, 64, 127
2, 28200, Note_on_c, 1, 71, 127
2, 29000, Note_off_c, 1, 45, 0
2, 29000, Note_on_c, 1, 51, 127
2, 29000, Note_off_c, 1, 52, 0
2, 29000, Note_on_c, 1, 55, 127
2, 29000, Note_on_c, 1, 58, 127
2, 29000, Note_on_c, 1, 61, 127
2, 29000, Note_on_c, 1, 63, 127
2, 29000, Note_off_c, 1, 64, 0
2, 29000, Note_on_c, 1, 67, 127
2, 29000, Note_off_c, 1, 71, 0
2, 29040, Note_on_c, 1, 41, 127
2, 29040, Note_on_c, 1, 48, 127
2, 29040, Note_off_c, 1, 51, 0
2, 29040, Note_off_c, 1, 55, 0
2, 29040, Note_off_c, 1, 61, 0
2, 29040, Note_off_c, 1, 63, 0
2, 29400, Note_off_c, 1, 58, 0
2, 29400, Note_off_c, 1, 67, 0
2, 29440, Note_on_c, 1, 26, 127
2, 29440, Note_on_c, 1, 38, 127
2, 29440, Note_off_c, 1, 41, 0
2, 29440, Note_off_c, 1, 48, 0
2, 29440, Note_on_c, 1, 78, 127
2, 29480, Note_off_c, 1, 26, 0
2, 29480, Note_off_c, 1, 38, 0
2, 29480, Note_on_c, 1, 40, 127
2, 29480, Note_on_c, 1, 48, 127
2, 29480, Note_on_c, 1, 55, 127
2, 29480, Note_on_c, 1, 60, 127
2, 29480, Note_on_c, 1, 67, 127
2, 29480, Note_on_c, 1, 72, 127
2, 29480, Note_off_c, 1, 78, 0
2, 30280, Note_off_c, 1, 40, 0
2, 30280, Note_off_c, 1, 48, 0
2, 30280, Note_off_c, 1, 55, 0
2, 30280, Note_off_c, 1, 60, 0
2, 30280, Note_off_c, 1, 67, 0
2, 30280, Note_off_c, 1, 72, 0
2, 30360, Note_on_c, 1, 45, 127
2, 30360, Note_on_c, 1, 50, 127
2, 30360, Note_on_c, 1, 74, 127
2, 30360, Note_on_c, 1, 78, 127
2, 30360, Note_on_c, 1, 86, 127
2, 30720, Note_off_c, 1, 50, 0
2, 30720, Note_off_c, 1, 74, 0
2, 30720, Note_off_c, 1, 78, 0
2, 30720, Note_off_c, 1, 86, 0
2, 30760, Note_on_c, 1, 44, 127
2, 30760, Note_off_c, 1, 45, 0
2, 30760, Note_on_c, 1, 56, 127
2, 30760, Note_on_c, 1, 78, 127
2, 30760, Note_on_c, 1, 80, 127
2, 30760, Note_on_c, 1, 84, 127
2, 30760, Note_on_c, 1, 87, 127
2, 31120, Note_off_c, 1, 44, 0
2, 31120, Note_off_c, 1, 56, 0
2, 31120, Note_on_c, 1, 62, 127
2, 31120, Note_on_c, 1, 66, 127
2, 31120, Note_on_c, 1, 71, 127
2, 31120, Note_on_c, 1, 74, 127
2, 31120, Note_off_c, 1, 78, 0
2, 31120, Note_off_c, 1, 80, 0
2, 31120, Note_on_c, 1, 81, 127
2, 31120, Note_off_c, 1, 84, 0
2, 31120, Note_off_c, 1, 87, 0
2, 31160, Note_on_c, 1, 42, 127
2, 31160, Note_on_c, 1, 49, 127
2, 31160, Note_on_c, 1, 57, 127
2, 31160, Note_on_c, 1, 61, 127
2, 31160, Note_off_c, 1, 62, 0
2, 31160, Note_on_c, 1, 65, 127
2, 31160, Note_off_c, 1, 66, 0
2, 31160, Note_off_c, 1, 71, 0
2, 31160, Note_off_c, 1, 74, 0
2, 31160, Note_off_c, 1, 81, 0
2, 31480, Note_off_c, 1, 65, 0
2, 31520, Note_on_c, 1, 66, 127
2, 32360, Note_off_c, 1, 61, 0
2, 32360, Note_off_c, 1, 66, 0
2, 32360, Note_on_c, 1, 73, 127
2, 32400, Note_off_c, 1, 42, 0
2, 32400, Note_off_c, 1, 49, 0
2, 32400, Note_off_c, 1, 57, 0
2, 32400, Note_off_c, 1, 73, 0
2, 32440, Note_on_c, 1, 42, 127
2, 32440, Note_on_c, 1, 49, 127
2, 32440, Note_on_c, 1, 57, 127
2, 32440, Note_on_c, 1, 61, 127
2, 32440, Note_on_c, 1, 66, 127
2, 32480, Note_off_c, 1, 61, 0
2, 32480, Note_off_c, 1, 66, 0
2, 32480, Note_on_c, 1, 73, 127
2, 32600, Note_off_c, 1, 73, 0
2, 32640, Note_on_c, 1, 71, 127
2, 32720, Note_on_c, 1, 69, 127
2, 32720, Note_off_c, 1, 71, 0
2, 32760, Note_off_c, 1, 69, 0
2, 32800, Note_on_c, 1, 71, 127
2, 32880, Note_off_c, 1, 71, 0
2, 32920, Note_on_c, 1, 71, 127
2, 33040, Note_off_c, 1, 71, 0
2, 33080, Note_on_c, 1, 71, 127
2, 33160, Note_off_c, 1, 71, 0
2, 33200, Note_on_c, 1, 44, 127
2, 33200, Note_on_c, 1, 53, 127
2, 33200, Note_off_c, 1, 57, 0
2, 33200, Note_on_c, 1, 68, 127
2, 33400, Note_off_c, 1, 42, 0
2, 33400, Note_off_c, 1, 44, 0
2, 33400, Note_off_c, 1, 49, 0
2, 33400, Note_off_c, 1, 53, 0
2, 33400, Note_on_c, 1, 63, 127
2, 33400, Note_on_c, 1, 66, 127
2, 33400, Note_on_c, 1, 92, 127
2, 33440, Note_on_c, 1, 42, 127
2, 33440, Note_off_c, 1, 63, 0
2, 33440, Note_off_c, 1, 66, 0
2, 33440, Note_off_c, 1, 68, 0
2, 33440, Note_off_c, 1, 92, 0
2, 33480, Note_on_c, 1, 32, 127
2, 33480, Note_off_c, 1, 42, 0
2, 33480, Note_on_c, 1, 44, 127
2, 33480, Note_on_c, 1, 54, 127
2, 33480, Note_on_c, 1, 60, 127
2, 33480, Note_on_c, 1, 62, 127
2, 33960, Note_off_c, 1, 62, 0
2, 34320, Note_on_c, 1, 51, 127
2, 34480, Note_off_c, 1, 32, 0
2, 34480, Note_off_c, 1, 44, 0
2, 34480, Note_off_c, 1, 51, 0
2, 34480, Note_off_c, 1, 54, 0
2, 34480, Note_off_c, 1, 60, 0
2, 34520, Note_on_c, 1, 32, 127
2, 34520, Note_on_c, 1, 44, 127
2, 34520, Note_on_c, 1, 51, 127
2, 34520, Note_on_c, 1, 54, 127
2, 34520, Note_on_c, 1, 60, 127
2, 35000, Note_off_c, 1, 51, 0
2, 35000, Note_off_c, 1, 54, 0
2, 35040, Note_on_c, 1, 54, 127
2, 35640, Note_off_c, 1, 32, 0
2, 35640, Note_off_c, 1, 44, 0
2, 35640, Note_off_c, 1, 54, 0
2, 35640, Note_on_c, 1, 59, 127
2, 35640, Note_off_c, 1, 60, 0
2, 35680, Note_on_c, 1, 58, 127
2, 35680, Note_off_c, 1, 59, 0
2, 35680, Note_on_c, 1, 68, 127
2, 35720, Note_on_c, 1, 49, 127
2, 35720, Note_on_c, 1, 56, 127
2, 35720, Note_off_c, 1, 58, 0
2, 35720, Note_on_c, 1, 59, 127
2, 35720, Note_on_c, 1, 61, 127
2, 35720, Note_off_c, 1, 68, 0
2, 35760, Note_on_c, 1, 35, 127
2, 35760, Note_on_c, 1, 38, 127
2, 35760, Note_on_c, 1, 42, 127
2, 35760, Note_on_c, 1, 47, 127
2, 35760, Note_off_c, 1, 49, 0
2, 35760, Note_off_c, 1, 56, 0
2, 35760, Note_off_c, 1, 59, 0
2, 35760, Note_off_c, 1, 61, 0
2, 35760, Note_on_c, 1, 83, 127
2, 35760, Note_on_c, 1, 86, 127
2, 35760, Note_on_c, 1, 90, 127
2, 35760, Note_on_c, 1, 95, 127
2, 35800, Note_off_c, 1, 35, 0
2, 35800, Note_off_c, 1, 38, 0
2, 35800, Note_off_c, 1, 42, 0
2, 35800, Note_off_c, 1, 47, 0
2, 35800, Note_on_c, 1, 57, 127
2, 35800, Note_on_c, 1, 59, 127
2, 35800, Note_on_c, 1, 66, 127
2, 35800, Note_on_c, 1, 73, 127
2, 35800, Note_off_c, 1, 83, 0
2, 35800, Note_off_c, 1, 86, 0
2, 35800, Note_off_c, 1, 90, 0
2, 35800, Note_off_c, 1, 95, 0
2, 35840, Note_off_c, 1, 57, 0
2, 35840, Note_off_c, 1, 66, 0
2, 35840, Note_on_c, 1, 67, 127
2, 35840, Note_off_c, 1, 73, 0
2, 35840, Note_on_c, 1, 77, 127
2, 35840, Note_on_c, 1, 80, 127
2, 35880, Note_off_c, 1, 59, 0
2, 35880, Note_off_c, 1, 67, 0
2, 35880, Note_off_c, 1, 77, 0
2, 35880, Note_off_c, 1, 80, 0
2, 35920, Note_on_c, 1, 59, 127
2, 35920, Note_on_c, 1, 61, 127
2, 35920, Note_on_c, 1, 64, 127
2, 36640, Note_on_c, 1, 68, 127
2, 36680, Note_off_c, 1, 59, 0
2, 36680, Note_off_c, 1, 61, 0
2, 36680, Note_off_c, 1, 64, 0
2, 36680, Note_off_c, 1, 68, 0
2, 36720, Note_on_c, 1, 59, 127
2, 36720, Note_on_c, 1, 61, 127
2, 36720, Note_on_c, 1, 64, 127
2, 36720, Note_on_c, 1, 68, 127
2, 36920, Note_off_c, 1, 59, 0
2, 36920, Note_off_c, 1, 61, 0
2, 36920, Note_off_c, 1, 64, 0
2, 36920, Note_off_c, 1, 68, 0
2, 36960, Note_on_c, 1, 54, 127
2, 36960, Note_on_c, 1, 69, 127
2, 37240, Note_on_c, 1, 63, 127
2, 37320, Note_off_c, 1, 63, 0
2, 37360, Note_on_c, 1, 61, 127
2, 37840, Note_off_c, 1, 69, 0
2, 37840, Note_on_c, 1, 73, 127
2, 37880, Note_off_c, 1, 61, 0
2, 37880, Note_off_c, 1, 73, 0
2, 37920, Note_on_c, 1, 50, 127
2, 37920, Note_off_c, 1, 54, 0
2, 37920, Note_on_c, 1, 59, 127
2, 37920, Note_on_c, 1, 71, 127
2, 37920, Note_on_c, 1, 74, 127
2, 38720, Note_on_c, 1, 38, 127
2, 38720, Note_on_c, 1, 53, 127
2, 38720, Note_on_c, 1, 57, 127
2, 38720, Note_off_c, 1, 59, 0
2, 38720, Note_on_c, 1, 62, 127
2, 38720, Note_off_c, 1, 71, 0
2, 38720, Note_off_c, 1, 74, 0
2, 38760, Note_off_c, 1, 38, 0
2, 38760, Note_on_c, 1, 42, 127
2, 38760, Note_off_c, 1, 50, 0
2, 38760, Note_off_c, 1, 53, 0
2, 38760, Note_off_c, 1, 57, 0
2, 38760, Note_off_c, 1, 62, 0
2, 38760, Note_on_c, 1, 69, 127
2, 38760, Note_on_c, 1, 74, 127
2, 38800, Note_off_c, 1, 42, 0
2, 38800, Note_off_c, 1, 69, 0
2, 38800, Note_off_c, 1, 74, 0
2, 38840, Note_on_c, 1, 43, 127
2, 38840, Note_on_c, 1, 74, 127
2, 38880, Note_off_c, 1, 43, 0
2, 38880, Note_on_c, 1, 59, 127
2, 38880, Note_on_c, 1, 65, 127
2, 38880, Note_on_c, 1, 80, 127
2, 39240, Note_on_c, 1, 48, 127
2, 39240, Note_off_c, 1, 59, 0
2, 39240, Note_on_c, 1, 64, 127
2, 39240, Note_off_c, 1, 65, 0
2, 39240, Note_off_c, 1, 74, 0
2, 39240, Note_off_c, 1, 80, 0
2, 39240, Note_on_c, 1, 84, 127
2, 39240, Note_on_c, 1, 93, 127
2, 39280, Note_on_c, 1, 47, 127
2, 39280, Note_off_c, 1, 48, 0
2, 39280, Note_on_c, 1, 56, 127
2, 39280, Note_on_c, 1, 59, 127
2, 39280, Note_on_c, 1, 63, 127
2, 39280, Note_off_c, 1, 64, 0
2, 39280, Note_on_c, 1, 68, 127
2, 39280, Note_on_c, 1, 75, 127
2, 39280, Note_off_c, 1, 84, 0
2, 39280, Note_off_c, 1, 93, 0
2, 39320, Note_off_c, 1, 47, 0
2, 39320, Note_on_c, 1, 53, 127
2, 39320, Note_off_c, 1, 56, 0
2, 39320, Note_on_c, 1, 57, 127
2, 39320, Note_off_c, 1, 59, 0
2, 39320, Note_on_c, 1, 62, 127
2, 39320, Note_off_c, 1, 63, 0
2, 39320, Note_on_c, 1, 65, 127
2, 39320, Note_off_c, 1, 68, 0
2, 39320, Note_off_c, 1, 75, 0
2, 39320, Note_on_c, 1, 81, 127
2, 39320, Note_on_c, 1, 86, 127
2, 39360, Note_on_c, 1, 39, 127
2, 39360, Note_on_c, 1, 51, 127
2, 39360, Note_off_c, 1, 53, 0
2, 39360, Note_off_c, 1, 57, 0
2, 39360, Note_off_c, 1, 62, 0
2, 39360, Note_off_c, 1, 65, 0
2, 39360, Note_on_c, 1, 79, 127
2, 39360, Note_off_c, 1, 81, 0
2, 39360, Note_on_c, 1, 85, 127
2, 39360, Note_off_c, 1, 86, 0
2, 39360, Note_on_c, 1, 91, 127
2, 39400, Note_off_c, 1, 39, 0
2, 39400, Note_off_c, 1, 51, 0
2, 39400, Note_on_c, 1, 52, 127
2, 39400, Note_on_c, 1, 57, 127
2, 39400, Note_on_c, 1, 64, 127
2, 39400, Note_off_c, 1, 79, 0
2, 39400, Note_off_c, 1, 85, 0
2, 39400, Note_on_c, 1, 86, 127
2, 39400, Note_off_c, 1, 91, 0
2, 39440, Note_off_c, 1, 52, 0
2, 39440, Note_on_c, 1, 61, 127
2, 39440, Note_off_c, 1, 64, 0
2, 39440, Note_on_c, 1, 69, 127
2, 39440, Note_off_c, 1, 86, 0
2, 39480, Note_on_c, 1, 39, 127
2, 39480, Note_on_c, 1, 47, 127
2, 39480, Note_on_c, 1, 51, 127
2, 39480, Note_off_c, 1, 57, 0
2, 39480, Note_off_c, 1, 61, 0
2, 39480, Note_off_c, 1, 69, 0
2, 39480, Note_on_c, 1, 75, 127
2, 39480, Note_on_c, 1, 87, 127
2, 39520, Note_off_c, 1, 39, 0
2, 39520, Note_off_c, 1, 47, 0
2, 39520, Note_off_c, 1, 51, 0
2, 39520, Note_on_c, 1, 62, 127
2, 39520, Note_on_c, 1, 68, 127
2, 39520, Note_on_c, 1, 73, 127
2, 39520, Note_off_c, 1, 75, 0
2, 39520, Note_on_c, 1, 80, 127
2, 39520, Note_off_c, 1, 87, 0
2, 39520, Note_on_c, 1, 89, 127
2, 39520, Note_on_c, 1, 92, 127
2, 39560, Note_off_c, 1, 62, 0
2, 39560, Note_off_c, 1, 68, 0
2, 39560, Note_off_c, 1, 73, 0
2, 39560, Note_off_c, 1, 80, 0
2, 39560, Note_on_c, 1, 88, 127
2, 39560, Note_off_c, 1, 89, 0
2, 39560, Note_off_c, 1, 92, 0
2, 39600, Note_on_c, 1, 76, 127
2, 39600, Note_on_c, 1, 81, 127
2, 39600, Note_off_c, 1, 88, 0
2, 39600, Note_on_c, 1, 91, 127
2, 39600, Note_on_c, 1, 103, 127
2, 39760, Note_on_c, 1, 47, 127
2, 39760, Note_on_c, 1, 51, 127
2, 39760, Note_on_c, 1, 54, 127
2, 39760, Note_on_c, 1, 70, 127
2, 39760, Note_off_c, 1, 76, 0
2, 39760, Note_off_c, 1, 81, 0
2, 39760, Note_off_c, 1, 91, 0
2, 39760, Note_off_c, 1, 103, 0
2, 39800, Note_off_c, 1, 47, 0
2, 39800, Note_off_c, 1, 51, 0
2, 39800, Note_off_c, 1, 54, 0
2, 39800, Note_off_c, 1, 70, 0
2, 39800, Note_on_c, 1, 74, 127
2, 39800, Note_on_c, 1, 81, 127
2, 39800, Note_on_c, 1, 90, 127
2, 39800, Note_on_c, 1, 102, 127
2, 39840, Note_on_c, 1, 64, 127
2, 39840, Note_off_c, 1, 74, 0
2, 39840, Note_off_c, 1, 81, 0
2, 39840, Note_on_c, 1, 87, 127
2, 39840, Note_on_c, 1, 88, 127
2, 39840, Note_off_c, 1, 90, 0
2, 39840, Note_on_c, 1, 92, 127
2, 39840, Note_off_c, 1, 102, 0
2, 39880, Note_on_c, 1, 57, 127
2, 39880, Note_off_c, 1, 64, 0
2, 39880, Note_on_c, 1, 74, 127
2, 39880, Note_on_c, 1, 78, 127
2, 39880, Note_on_c, 1, 81, 127
2, 39880, Note_on_c, 1, 84, 127
2, 39880, Note_off_c, 1, 87, 0
2, 39880, Note_off_c, 1, 88, 0
2, 39880, Note_off_c, 1, 92, 0
2, 39920, Note_on_c, 1, 37, 127
2, 39920, Note_off_c, 1, 57, 0
2, 39920, Note_on_c, 1, 61, 127
2, 39920, Note_off_c, 1, 74, 0
2, 39920, Note_on_c, 1, 76, 127
2, 39920, Note_off_c, 1, 78, 0
2, 39920, Note_off_c, 1, 81, 0
2, 39920, Note_off_c, 1, 84, 0
2, 39960, Note_on_c, 1, 29, 127
2, 39960, Note_off_c, 1, 37, 0
2, 39960, Note_on_c, 1, 53, 127
2, 39960, Note_on_c, 1, 56, 127
2, 39960, Note_off_c, 1, 61, 0
2, 39960, Note_on_c, 1, 63, 127
2, 39960, Note_on_c, 1, 75, 127
2, 39960, Note_off_c, 1, 76, 0
2, 40000, Note_off_c, 1, 29, 0
2, 40000, Note_off_c, 1, 53, 0
2, 40000, Note_off_c, 1, 56, 0
2, 40000, Note_off_c, 1, 63, 0
2, 40000, Note_on_c, 1, 68, 127
2, 40000, Note_on_c, 1, 80, 127
2, 40000, Note_on_c, 1, 83, 127
2, 40000, Note_on_c, 1, 87, 127
2, 40000, Note_on_c, 1, 92, 127
2, 40040, Note_on_c, 1, 56, 127
2, 40040, Note_on_c, 1, 58, 127
2, 40040, Note_off_c, 1, 68, 0
2, 40040, Note_on_c, 1, 71, 127
2, 40040, Note_off_c, 1, 75, 0
2, 40040, Note_off_c, 1, 80, 0
2, 40040, Note_off_c, 1, 83, 0
2, 40040, Note_off_c, 1, 87, 0
2, 40040, Note_off_c, 1, 92, 0
2, 40080, Note_on_c, 1, 45, 127
2, 40080, Note_off_c, 1, 56, 0
2, 40080, Note_off_c, 1, 58, 0
2, 40080, Note_on_c, 1, 62, 127
2, 40080, Note_on_c, 1, 68, 127
2, 40080, Note_off_c, 1, 71, 0
2, 40080, Note_on_c, 1, 76, 127
2, 40120, Note_off_c, 1, 45, 0
2, 40120, Note_on_c, 1, 57, 127
2, 40120, Note_on_c, 1, 65, 127
2, 40120, Note_off_c, 1, 76, 0
2, 40120, Note_on_c, 1, 104, 127
2, 40120, Note_on_c, 1, 105, 127
2, 40160, Note_off_c, 1, 57, 0
2, 40160, Note_off_c, 1, 62, 0
2, 40160, Note_off_c, 1, 68, 0
2, 40160, Note_on_c, 1, 73, 127
2, 40160, Note_on_c, 1, 76, 127
2, 40160, Note_off_c, 1, 104, 0
2, 40160, Note_off_c, 1, 105, 0
2, 40200, Note_on_c, 1, 38, 127
2, 40200, Note_on_c, 1, 45, 127
2, 40200, Note_on_c, 1, 62, 127
2, 40200, Note_off_c, 1, 65, 0
2, 40200, Note_on_c, 1, 66, 127
2, 40200, Note_off_c, 1, 73, 0
2, 40200, Note_off_c, 1, 76, 0
2, 40240, Note_on_c, 1, 36, 127
2, 40240, Note_off_c, 1, 38, 0
2, 40240, Note_off_c, 1, 45, 0
2, 40240, Note_on_c, 1, 48, 127
2, 40240, Note_on_c, 1, 56, 127
2, 40240, Note_off_c, 1, 62, 0
2, 40240, Note_off_c, 1, 66, 0
2, 40240, Note_on_c, 1, 68, 127
2, 40240, Note_on_c, 1, 80, 127
2, 40240, Note_on_c, 1, 88, 127
2, 40240, Note_on_c, 1, 92, 127
2, 40280, Note_off_c, 1, 36, 0
2, 40280, Note_off_c, 1, 48, 0
2, 40280, Note_off_c, 1, 56, 0
2, 40280, Note_on_c, 1, 62, 127
2, 40280, Note_off_c, 1, 68, 0
2, 40280, Note_on_c, 1, 69, 127
2, 40280, Note_on_c, 1, 71, 127
2, 40280, Note_on_c, 1, 78, 127
2, 40280, Note_off_c, 1, 80, 0
2, 40280, Note_off_c, 1, 88, 0
2, 40280, Note_off_c, 1, 92, 0
2, 40320, Note_on_c, 1, 58, 127
2, 40320, Note_off_c, 1, 62, 0
2, 40320, Note_on_c, 1, 68, 127
2, 40320, Note_off_c, 1, 69, 0
2, 40320, Note_off_c, 1, 71, 0
2, 40320, Note_off_c, 1, 78, 0
2, 40320, Note_on_c, 1, 91, 127
2, 40360, Note_off_c, 1, 58, 0
2, 40360, Note_on_c, 1, 59, 127
2, 40360, Note_off_c, 1, 68, 0
2, 40360, Note_on_c, 1, 85, 127
2, 40360, Note_off_c, 1, 91, 0
2, 40360, Note_on_c, 1, 95, 127
2, 40400, Note_on_c, 1, 38, 127
2, 40400, Note_on_c, 1, 55, 127
2, 40400, Note_on_c, 1, 64, 127
2, 40400, Note_on_c, 1, 67, 127
2, 40400, Note_off_c, 1, 85, 0
2, 40400, Note_off_c, 1, 95, 0
2, 40440, Note_off_c, 1, 38, 0
2, 40440, Note_on_c, 1, 52, 127
2, 40440, Note_off_c, 1, 55, 0
2, 40440, Note_off_c, 1, 59, 0
2, 40440, Note_off_c, 1, 67, 0
2, 40440, Note_on_c, 1, 68, 127
2, 40440, Note_on_c, 1, 73, 127
2, 40440, Note_on_c, 1, 88, 127
2, 40480, Note_on_c, 1, 61, 127
2, 40480, Note_off_c, 1, 64, 0
2, 40480, Note_on_c, 1, 67, 127
2, 40480, Note_off_c, 1, 68, 0
2, 40480, Note_off_c, 1, 73, 0
2, 40480, Note_on_c, 1, 78, 127
2, 40480, Note_off_c, 1, 88, 0
2, 40520, Note_off_c, 1, 52, 0
2, 40520, Note_off_c, 1, 61, 0
2, 40520, Note_off_c, 1, 67, 0
2, 40520, Note_off_c, 1, 78, 0
2, 40560, Note_on_c, 1, 62, 127
2, 40560, Note_on_c, 1, 65, 127
2, 40560, Note_on_c, 1, 68, 127
2, 40560, Note_on_c, 1, 71, 127
2, 40560, Note_on_c, 1, 82, 127
2, 40600, Note_on_c, 1, 41, 127
2, 40600, Note_on_c, 1, 53, 127
2, 40600, Note_on_c, 1, 60, 127
2, 40600, Note_off_c, 1, 62, 0
2, 40600, Note_off_c, 1, 68, 0
2, 40600, Note_off_c, 1, 82, 0
2, 40640, Note_off_c, 1, 41, 0
2, 40640, Note_off_c, 1, 53, 0
2, 40640, Note_off_c, 1, 60, 0
2, 40640, Note_on_c, 1, 62, 127
2, 40640, Note_on_c, 1, 70, 127
2, 40640, Note_off_c, 1, 71, 0
2, 40640, Note_on_c, 1, 82, 127
2, 40640, Note_on_c, 1, 89, 127
2, 40680, Note_on_c, 1, 49, 127
2, 40680, Note_on_c, 1, 54, 127
2, 40680, Note_off_c, 1, 62, 0
2, 40680, Note_off_c, 1, 70, 0
2, 40680, Note_on_c, 1, 73, 127
2, 40680, Note_on_c, 1, 77, 127
2, 40680, Note_off_c, 1, 82, 0
2, 40680, Note_off_c, 1, 89, 0
2, 40720, Note_on_c, 1, 37, 127
2, 40720, Note_on_c, 1, 53, 127
2, 40720, Note_off_c, 1, 54, 0
2, 40720, Note_on_c, 1, 63, 127
2, 40720, Note_off_c, 1, 73, 0
2, 40720, Note_off_c, 1, 77, 0
2, 40760, Note_off_c, 1, 37, 0
2, 40760, Note_off_c, 1, 49, 0
2, 40760, Note_off_c, 1, 53, 0
2, 40760, Note_off_c, 1, 63, 0
2, 40760, Note_off_c, 1, 65, 0
2, 40800, Note_on_c, 1, 47, 127
2, 40800, Note_on_c, 1, 53, 127
2, 40800, Note_on_c, 1, 68, 127
2, 40800, Note_on_c, 1, 80, 127
2, 40840, Note_on_c, 1, 38, 127
2, 40840, Note_off_c, 1, 47, 0
2, 40840, Note_on_c, 1, 49, 127
2, 40840, Note_off_c, 1, 53, 0
2, 40840, Note_on_c, 1, 54, 127
2, 40840, Note_on_c, 1, 61, 127
2, 40840, Note_on_c, 1, 66, 127
2, 40840, Note_off_c, 1, 68, 0
2, 40840, Note_off_c, 1, 80, 0
2, 40880, Note_on_c, 1, 32, 127
2, 40880, Note_on_c, 1, 35, 127
2, 40880, Note_off_c, 1, 38, 0
2, 40880, Note_on_c, 1, 44, 127
2, 40880, Note_off_c, 1, 49, 0
2, 40880, Note_off_c, 1, 54, 0
2, 40880, Note_off_c, 1, 61, 0
2, 40880, Note_off_c, 1, 66, 0
2, 40880, Note_on_c, 1, 73, 127
2, 40880, Note_on_c, 1, 76, 127
2, 40880, Note_on_c, 1, 82, 127
2, 40880, Note_on_c, 1, 83, 127
2, 40920, Note_off_c, 1, 32, 0
2, 40920, Note_off_c, 1, 35, 0
2, 40920, Note_off_c, 1, 44, 0
2, 40920, Note_on_c, 1, 52, 127
2, 40920, Note_on_c, 1, 54, 127
2, 40920, Note_on_c, 1, 57, 127
2, 40920, Note_on_c, 1, 59, 127
2, 40920, Note_on_c, 1, 63, 127
2, 40920, Note_off_c, 1, 73, 0
2, 40920, Note_off_c, 1, 76, 0
2, 40920, Note_off_c, 1, 82, 0
2, 40920, Note_off_c, 1, 83, 0
2, 40920, Note_on_c, 1, 87, 127
2, 40960, Note_off_c, 1, 52, 0
2, 40960, Note_off_c, 1, 54, 0
2, 40960, Note_off_c, 1, 57, 0
2, 40960, Note_off_c, 1, 63, 0
2, 40960, Note_on_c, 1, 67, 127
2, 40960, Note_on_c, 1, 71, 127
2, 40960, Note_on_c, 1, 75, 127
2, 40960, Note_on_c, 1, 79, 127
2, 41000, Note_on_c, 1, 48, 127
2, 41000, Note_on_c, 1, 51, 127
2, 41000, Note_on_c, 1, 57, 127
2, 41000, Note_off_c, 1, 59, 0
2, 41000, Note_off_c, 1, 67, 0
2, 41000, Note_off_c, 1, 71, 0
2, 41000, Note_off_c, 1, 75, 0
2, 41000, Note_off_c, 1, 79, 0
2, 41000, Note_on_c, 1, 81, 127
2, 41000, Note_off_c, 1, 87, 0
2, 41040, Note_on_c, 1, 37, 127
2, 41040, Note_off_c, 1, 48, 0
2, 41040, Note_on_c, 1, 49, 127
2, 41040, Note_off_c, 1, 51, 0
2, 41040, Note_off_c, 1, 57, 0
2, 41040, Note_off_c, 1, 81, 0
2, 41040, Note_on_c, 1, 93, 127
2, 41080, Note_on_c, 1, 71, 127
2, 41080, Note_on_c, 1, 77, 127
2, 41080, Note_on_c, 1, 80, 127
2, 41080, Note_off_c, 1, 93, 0
2, 41440, Note_off_c, 1, 37, 0
2, 41440, Note_off_c, 1, 49, 0
2, 41440, Note_off_c, 1, 71, 0
2, 41440, Note_off_c, 1, 77, 0
2, 41440, Note_on_c, 1, 79, 127
2, 41440, Note_off_c, 1, 80, 0
2, 41440, Note_on_c, 1, 85, 127
2, 41440, Note_on_c, 1, 88, 127
2, 41440, Note_on_c, 1, 91, 127
2, 41480, Note_on_c, 1, 32, 127
2, 41480, Note_on_c, 1, 51, 127
2, 41480, Note_on_c, 1, 58, 127
2, 41480, Note_off_c, 1, 79, 0
2, 41480, Note_off_c, 1, 85, 0
2, 41480, Note_off_c, 1, 88, 0
2, 41480, Note_off_c, 1, 91, 0
2, 41520, Note_off_c, 1, 32, 0
2, 41520, Note_on_c, 1, 37, 127
2, 41520, Note_on_c, 1, 42, 127
2, 41520, Note_on_c, 1, 49, 127
2, 41520, Note_off_c, 1, 51, 0
2, 41520, Note_off_c, 1, 58, 0
2, 41520, Note_on_c, 1, 61, 127
2, 41560, Note_off_c, 1, 37, 0
2, 41560, Note_off_c, 1, 49, 0
2, 41560, Note_on_c, 1, 52, 127
2, 41560, Note_on_c, 1, 59, 127
2, 41560, Note_off_c, 1, 61, 0
2, 41600, Note_off_c, 1, 42, 0
2, 41600, Note_on_c, 1, 46, 127
2, 41600, Note_off_c, 1, 52, 0
2, 41600, Note_on_c, 1, 57, 127
2, 41600, Note_off_c, 1, 59, 0
2, 41600, Note_on_c, 1, 65, 127
2, 41600, Note_on_c, 1, 70, 127
2, 41640, Note_off_c, 1, 46, 0
2, 41640, Note_on_c, 1, 55, 127
2, 41640, Note_on_c, 1, 59, 127
2, 41640, Note_off_c, 1, 70, 0
2, 41680, Note_on_c, 1, 43, 127
2, 41680, Note_on_c, 1, 48, 127
2, 41680, Note_off_c, 1, 57, 0
2, 41680, Note_off_c, 1, 59, 0
2, 41680, Note_off_c, 1, 65, 0
2, 41680, Note_on_c, 1, 70, 127
2, 41680, Note_on_c, 1, 72, 127
2, 41680, Note_on_c, 1, 82, 127
2, 41720, Note_off_c, 1, 43, 0
2, 41720, Note_off_c, 1, 48, 0
2, 41720, Note_off_c, 1, 55, 0
2, 41720, Note_on_c, 1, 68, 127
2, 41720, Note_off_c, 1, 70, 0
2, 41720, Note_on_c, 1, 74, 127
2, 41720, Note_on_c, 1, 77, 127
2, 41720, Note_on_c, 1, 80, 127
2, 41720, Note_off_c, 1, 82, 0
2, 41720, Note_on_c, 1, 84, 127
2, 41720, Note_on_c, 1, 89, 127
2, 41720, Note_on_c, 1, 96, 127
2, 41760, Note_on_c, 1, 37, 127
2, 41760, Note_on_c, 1, 53, 127
2, 41760, Note_on_c, 1, 59, 127
2, 41760, Note_on_c, 1, 61, 127
2, 41760, Note_off_c, 1, 68, 0
2, 41760, Note_off_c, 1, 72, 0
2, 41760, Note_off_c, 1, 74, 0
2, 41760, Note_off_c, 1, 77, 0
2, 41760, Note_off_c, 1, 80, 0
2, 41760, Note_off_c, 1, 84, 0
2, 41760, Note_off_c, 1, 89, 0
2, 41760, Note_off_c, 1, 96, 0
2, 41800, Note_on_c, 1, 34, 127
2, 41800, Note_on_c, 1, 36, 127
2, 41800, Note_off_c, 1, 37, 0
2, 41800, Note_on_c, 1, 41, 127
2, 41800, Note_on_c, 1, 46, 127
2, 41800, Note_on_c, 1, 48, 127
2, 41800, Note_off_c, 1, 53, 0
2, 41800, Note_on_c, 1, 58, 127
2, 41800, Note_off_c, 1, 59, 0
2, 41800, Note_on_c, 1, 65, 127
2, 41800, Note_on_c, 1, 70, 127
2, 41840, Note_off_c, 1, 34, 0
2, 41840, Note_off_c, 1, 36, 0
2, 41840, Note_off_c, 1, 41, 0
2, 41840, Note_off_c, 1, 46, 0
2, 41840, Note_on_c, 1, 54, 127
2, 41840, Note_off_c, 1, 61, 0
2, 41840, Note_off_c, 1, 70, 0
2, 41880, Note_on_c, 1, 32, 127
2, 41880, Note_on_c, 1, 50, 127
2, 41880, Note_on_c, 1, 56, 127
2, 41880, Note_off_c, 1, 58, 0
2, 41880, Note_off_c, 1, 65, 0
2, 41920, Note_off_c, 1, 32, 0
2, 41920, Note_on_c, 1, 36, 127
2, 41920, Note_on_c, 1, 44, 127
2, 41920, Note_off_c, 1, 50, 0
2, 41920, Note_off_c, 1, 54, 0
2, 41920, Note_off_c, 1, 56, 0
2, 41920, Note_on_c, 1, 60, 127
2, 41920, Note_on_c, 1, 68, 127
2, 41920, Note_on_c, 1, 72, 127
2, 41960, Note_on_c, 1, 34, 127
2, 41960, Note_off_c, 1, 44, 0
2, 41960, Note_off_c, 1, 48, 0
2, 41960, Note_off_c, 1, 60, 0
2, 41960, Note_on_c, 1, 63, 127
2, 41960, Note_off_c, 1, 68, 0
2, 41960, Note_off_c, 1, 72, 0
2, 42000, Note_on_c, 1, 27, 127
2, 42000, Note_off_c, 1, 34, 0
2, 42000, Note_off_c, 1, 36, 0
2, 42000, Note_on_c, 1, 39, 127
2, 42000, Note_off_c, 1, 63, 0
2, 42040, Note_off_c, 1, 27, 0
2, 42040, Note_off_c, 1, 39, 0
2, 42040, Note_on_c, 1, 53, 127
2, 42040, Note_on_c, 1, 62, 127
2, 42040, Note_on_c, 1, 63, 127
2, 42040, Note_on_c, 1, 65, 127
2, 42040, Note_on_c, 1, 69, 127
2, 42040, Note_on_c, 1, 74, 127
2, 42080, Note_on_c, 1, 40, 127
2, 42080, Note_on_c, 1, 50, 127
2, 42080, Note_off_c, 1, 53, 0
2, 42080, Note_on_c, 1, 58, 127
2, 42080, Note_off_c, 1, 62, 0
2, 42080, Note_off_c, 1, 63, 0
2, 42080, Note_off_c, 1, 65, 0
2, 42080, Note_off_c, 1, 69, 0
2, 42080, Note_on_c, 1, 72, 127
2, 42080, Note_off_c, 1, 74, 0
2, 42120, Note_off_c, 1, 40, 0
2, 42120, Note_on_c, 1, 41, 127
2, 42120, Note_off_c, 1, 50, 0
2, 42120, Note_off_c, 1, 58, 0
2, 42120, Note_off_c, 1, 72, 0
2, 42120, Note_on_c, 1, 82, 127
2, 42120, Note_on_c, 1, 91, 127
2, 42120, Note_on_c, 1, 94, 127
2, 42160, Note_on_c, 1, 40, 127
2, 42160, Note_off_c, 1, 41, 0
2, 42160, Note_on_c, 1, 58, 127
2, 42160, Note_on_c, 1, 72, 127
2, 42160, Note_off_c, 1, 82, 0
2, 42160, Note_off_c, 1, 91, 0
2, 42160, Note_off_c, 1, 94, 0
2, 42200, Note_off_c, 1, 40, 0
2, 42200, Note_on_c, 1, 50, 127
2, 42200, Note_on_c, 1, 54, 127
2, 42200, Note_on_c, 1, 57, 127
2, 42200, Note_off_c, 1, 58, 0
2, 42200, Note_on_c, 1, 60, 127
2, 42200, Note_on_c, 1, 62, 127
2, 42200, Note_on_c, 1, 69, 127
2, 42200, Note_off_c, 1, 72, 0
2, 42240, Note_off_c, 1, 50, 0
2, 42240, Note_on_c, 1, 51, 127
2, 42240, Note_off_c, 1, 54, 0
2, 42240, Note_on_c, 1, 56, 127
2, 42240, Note_off_c, 1, 57, 0
2, 42240, Note_off_c, 1, 62, 0
2, 42240, Note_on_c, 1, 63, 127
2, 42240, Note_on_c, 1, 66, 127
2, 42240, Note_off_c, 1, 69, 0
2, 42280, Note_on_c, 1, 34, 127
2, 42280, Note_on_c, 1, 46, 127
2, 42280, Note_off_c, 1, 51, 0
2, 42280, Note_off_c, 1, 60, 0
2, 42280, Note_off_c, 1, 63, 0
2, 42280, Note_off_c, 1, 66, 0
2, 42280, Note_on_c, 1, 75, 127
2, 42320, Note_off_c, 1, 34, 0
2, 42320, Note_off_c, 1, 46, 0
2, 42320, Note_on_c, 1, 47, 127
2, 42320, Note_on_c, 1, 54, 127
2, 42320, Note_off_c, 1, 56, 0
2, 42320, Note_on_c, 1, 57, 127
2, 42320, Note_on_c, 1, 66, 127
2, 42320, Note_on_c, 1, 69, 127
2, 42320, Note_on_c, 1, 72, 127
2, 42320, Note_off_c, 1, 75, 0
2, 42360, Note_off_c, 1, 47, 0
2, 42360, Note_on_c, 1, 51, 127
2, 42360, Note_off_c, 1, 54, 0
2, 42360, Note_off_c, 1, 57, 0
2, 42360, Note_on_c, 1, 60, 127
2, 42360, Note_on_c, 1, 63, 127
2, 42360, Note_off_c, 1, 66, 0
2, 42360, Note_off_c, 1, 72, 0
2, 42360, Note_on_c, 1, 75, 127
2, 42400, Note_on_c, 1, 48, 127
2, 42400, Note_off_c, 1, 51, 0
2, 42400, Note_on_c, 1, 57, 127
2, 42400, Note_off_c, 1, 60, 0
2, 42400, Note_off_c, 1, 63, 0
2, 42400, Note_on_c, 1, 64, 127
2, 42400, Note_on_c, 1, 72, 127
2, 42400, Note_off_c, 1, 75, 0
2, 42720, Note_off_c, 1, 48, 0
2, 42720, Note_off_c, 1, 57, 0
2, 42720, Note_off_c, 1, 64, 0
2, 42720, Note_off_c, 1, 69, 0
2, 42720, Note_off_c, 1, 72, 0
2, 42800, Note_on_c, 1, 32, 127
2, 42800, Note_on_c, 1, 44, 127
2, 43400, Note_off_c, 1, 32, 0
2, 43400, Note_off_c, 1, 44, 0
2, 43440, Note_on_c, 1, 68, 127
2, 43440, Note_on_c, 1, 71, 127
2, 43440, Note_on_c, 1, 85, 127
2, 43440, Note_on_c, 1, 97, 127
2, 43480, Note_off_c, 1, 68, 0
2, 43480, Note_off_c, 1, 71, 0
2, 43480, Note_off_c, 1, 85, 0
2, 43480, Note_off_c, 1, 97, 0
2, 43520, Note_on_c, 1, 71, 127
2, 43520, Note_on_c, 1, 89, 127
2, 43520, Note_on_c, 1, 97, 127
2, 43560, Note_on_c, 1, 26, 127
2, 43560, Note_on_c, 1, 38, 127
2, 43560, Note_on_c, 1, 44, 127
2, 43560, Note_on_c, 1, 56, 127
2, 43560, Note_on_c, 1, 68, 127
2, 43560, Note_on_c, 1, 77, 127
2, 43560, Note_on_c, 1, 80, 127
2, 43560, Note_off_c, 1, 89, 0
2, 43560, Note_off_c, 1, 97, 0
2, 43600, Note_off_c, 1, 26, 0
2, 43600, Note_off_c, 1, 38, 0
2, 43600, Note_off_c, 1, 44, 0
2, 43600, Note_off_c, 1, 56, 0
2, 43600, Note_off_c, 1, 68, 0
2, 43600, Note_off_c, 1, 77, 0
2, 43600, Note_off_c, 1, 80, 0
2, 43600, Note_on_c, 1, 89, 127
2, 43600, Note_on_c, 1, 97, 127
2, 43640, Note_off_c, 1, 71, 0
2, 43640, Note_on_c, 1, 85, 127
2, 43640, Note_off_c, 1, 97, 0
2, 43680, Note_on_c, 1, 56, 127
2, 43680, Note_on_c, 1, 62, 127
2, 43680, Note_on_c, 1, 80, 127
2, 43680, Note_off_c, 1, 85, 0
2, 43680, Note_on_c, 1, 86, 127
2, 43680, Note_off_c, 1, 89, 0
2, 43760, Note_on_c, 1, 49, 127
2, 43760, Note_on_c, 1, 52, 127
2, 43760, Note_off_c, 1, 56, 0
2, 43760, Note_on_c, 1, 61, 127
2, 43760, Note_off_c, 1, 62, 0
2, 43760, Note_on_c, 1, 64, 127
2, 43760, Note_on_c, 1, 71, 127
2, 43760, Note_off_c, 1, 80, 0
2, 43760, Note_off_c, 1, 86, 0
2, 43800, Note_off_c, 1, 49, 0
2, 43800, Note_off_c, 1, 52, 0
2, 43800, Note_off_c, 1, 61, 0
2, 43800, Note_on_c, 1, 63, 127
2, 43800, Note_off_c, 1, 64, 0
2, 43800, Note_on_c, 1, 67, 127
2, 43800, Note_off_c, 1, 71, 0
2, 43800, Note_on_c, 1, 85, 127
2, 43840, Note_on_c, 1, 37, 127
2, 43840, Note_on_c, 1, 49, 127
2, 43840, Note_on_c, 1, 53, 127
2, 43840, Note_on_c, 1, 56, 127
2, 43840, Note_on_c, 1, 61, 127
2, 43840, Note_off_c, 1, 63, 0
2, 43840, Note_on_c, 1, 65, 127
2, 43840, Note_off_c, 1, 67, 0
2, 43840, Note_on_c, 1, 73, 127
2, 43840, Note_off_c, 1, 85, 0
2, 43880, Note_off_c, 1, 37, 0
2, 43880, Note_off_c, 1, 49, 0
2, 43880, Note_off_c, 1, 53, 0
2, 43880, Note_off_c, 1, 61, 0
2, 43880, Note_on_c, 1, 62, 127
2, 43880, Note_off_c, 1, 65, 0
2, 43880, Note_on_c, 1, 68, 127
2, 43880, Note_off_c, 1, 73, 0
2, 43880, Note_on_c, 1, 77, 127
2, 43880, Note_on_c, 1, 86, 127
2, 43920, Note_on_c, 1, 49, 127
2, 43920, Note_off_c, 1, 62, 0
2, 43920, Note_on_c, 1, 64, 127
2, 43920, Note_off_c, 1, 68, 0
2, 43920, Note_on_c, 1, 73, 127
2, 43920, Note_on_c, 1, 75, 127
2, 43920, Note_off_c, 1, 77, 0
2, 43920, Note_on_c, 1, 80, 127
2, 43920, Note_off_c, 1, 86, 0
2, 43960, Note_off_c, 1, 49, 0
2, 43960, Note_off_c, 1, 56, 0
2, 43960, Note_on_c, 1, 63, 127
2, 43960, Note_off_c, 1, 64, 0
2, 43960, Note_on_c, 1, 69, 127
2, 43960, Note_on_c, 1, 72, 127
2, 43960, Note_off_c, 1, 73, 0
2, 43960, Note_off_c, 1, 75, 0
2, 43960, Note_on_c, 1, 78, 127
2, 43960, Note_off_c, 1, 80, 0
2, 43960, Note_on_c, 1, 81, 127
2, 44000, Note_off_c, 1, 63, 0
2, 44000, Note_on_c, 1, 66, 127
2, 44000, Note_off_c, 1, 69, 0
2, 44000, Note_on_c, 1, 70, 127
2, 44000, Note_off_c, 1, 72, 0
2, 44000, Note_on_c, 1, 73, 127
2, 44000, Note_off_c, 1, 78, 0
2, 44000, Note_off_c, 1, 81, 0
2, 44000, Note_on_c, 1, 88, 127
2, 44040, Note_on_c, 1, 57, 127
2, 44040, Note_on_c, 1, 62, 127
2, 44040, Note_on_c, 1, 65, 127
2, 44040, Note_off_c, 1, 66, 0
2, 44040, Note_on_c, 1, 68, 127
2, 44040, Note_off_c, 1, 70, 0
2, 44040, Note_off_c, 1, 73, 0
2, 44040, Note_on_c, 1, 74, 127
2, 44040, Note_on_c, 1, 76, 127
2, 44040, Note_off_c, 1, 88, 0
2, 44080, Note_off_c, 1, 57, 0
2, 44080, Note_on_c, 1, 61, 127
2, 44080, Note_off_c, 1, 62, 0
2, 44080, Note_off_c, 1, 65, 0
2, 44080, Note_off_c, 1, 68, 0
2, 44080, Note_off_c, 1, 74, 0
2, 44080, Note_off_c, 1, 76, 0
2, 44080, Note_on_c, 1, 79, 127
2, 44080, Note_on_c, 1, 88, 127
2, 44080, Note_on_c, 1, 93, 127
2, 44120, Note_off_c, 1, 61, 0
2, 44120, Note_on_c, 1, 68, 127
2, 44120, Note_on_c, 1, 77, 127
2, 44120, Note_off_c, 1, 79, 0
2, 44120, Note_on_c, 1, 84, 127
2, 44120, Note_off_c, 1, 88, 0
2, 44120, Note_on_c, 1, 92, 127
2, 44120, Note_off_c, 1, 93, 0
2, 44160, Note_on_c, 1, 59, 127
2, 44160, Note_on_c, 1, 61, 127
2, 44160, Note_on_c, 1, 65, 127
2, 44160, Note_off_c, 1, 68, 0
2, 44160, Note_on_c, 1, 70, 127
2, 44160, Note_off_c, 1, 77, 0
2, 44160, Note_on_c, 1, 82, 127
2, 44160, Note_off_c, 1, 84, 0
2, 44160, Note_off_c, 1, 92, 0
2, 44160, Note_on_c, 1, 94, 127
2, 44200, Note_on_c, 1, 47, 127
2, 44200, Note_off_c, 1, 59, 0
2, 44200, Note_off_c, 1, 61, 0
2, 44200, Note_off_c, 1, 65, 0
2, 44200, Note_off_c, 1, 70, 0
2, 44200, Note_off_c, 1, 82, 0
2, 44200, Note_on_c, 1, 84, 127
2, 44200, Note_on_c, 1, 88, 127
2, 44200, Note_on_c, 1, 93, 127
2, 44200, Note_off_c, 1, 94, 0
2, 44200, Note_on_c, 1, 96, 127
2, 44240, Note_on_c, 1, 44, 127
2, 44240, Note_off_c, 1, 47, 0
2, 44240, Note_on_c, 1, 49, 127
2, 44240, Note_on_c, 1, 52, 127
2, 44240, Note_on_c, 1, 56, 127
2, 44240, Note_on_c, 1, 61, 127
2, 44240, Note_on_c, 1, 64, 127
2, 44240, Note_on_c, 1, 68, 127
2, 44240, Note_on_c, 1, 73, 127
2, 44240, Note_off_c, 1, 84, 0
2, 44240, Note_off_c, 1, 88, 0
2, 44240, Note_off_c, 1, 93, 0
2, 44240, Note_off_c, 1, 96, 0
2, 44280, Note_off_c, 1, 44, 0
2, 44280, Note_off_c, 1, 49, 0
2, 44280, Note_off_c, 1, 52, 0
2, 44280, Note_on_c, 1, 53, 127
2, 44280, Note_off_c, 1, 56, 0
2, 44280, Note_on_c, 1, 58, 127
2, 44280, Note_off_c, 1, 61, 0
2, 44280, Note_on_c, 1, 63, 127
2, 44280, Note_off_c, 1, 64, 0
2, 44280, Note_off_c, 1, 68, 0
2, 44280, Note_off_c, 1, 73, 0
2, 44280, Note_on_c, 1, 82, 127
2, 44320, Note_on_c, 1, 45, 127
2, 44320, Note_off_c, 1, 53, 0
2, 44320, Note_off_c, 1, 58, 0
2, 44320, Note_off_c, 1, 63, 0
2, 44320, Note_on_c, 1, 81, 127
2, 44320, Note_off_c, 1, 82, 0
2, 44320, Note_on_c, 1, 90, 127
2, 44320, Note_on_c, 1, 93, 127
2, 44360, Note_off_c, 1, 45, 0
2, 44360, Note_on_c, 1, 47, 127
2, 44360, Note_on_c, 1, 52, 127
2, 44360, Note_on_c, 1, 55, 127
2, 44360, Note_on_c, 1, 59, 127
2, 44360, Note_on_c, 1, 76, 127
2, 44360, Note_on_c, 1, 79, 127
2, 44360, Note_off_c, 1, 81, 0
2, 44360, Note_on_c, 1, 83, 127
2, 44360, Note_on_c, 1, 88, 127
2, 44360, Note_off_c, 1, 90, 0
2, 44360, Note_off_c, 1, 93, 0
2, 44400, Note_on_c, 1, 43, 127
2, 44400, Note_off_c, 1, 52, 0
2, 44400, Note_off_c, 1, 59, 0
2, 44400, Note_on_c, 1, 64, 127
2, 44400, Note_off_c, 1, 79, 0
2, 44400, Note_off_c, 1, 83, 0
2, 44400, Note_off_c, 1, 88, 0
2, 44440, Note_on_c, 1, 36, 127
2, 44440, Note_on_c, 1, 41, 127
2, 44440, Note_off_c, 1, 43, 0
2, 44440, Note_on_c, 1, 45, 127
2, 44440, Note_off_c, 1, 47, 0
2, 44440, Note_on_c, 1, 48, 127
2, 44440, Note_off_c, 1, 55, 0
2, 44440, Note_off_c, 1, 64, 0
2, 44440, Note_on_c, 1, 72, 127
2, 44440, Note_off_c, 1, 76, 0
2, 44480, Note_off_c, 1, 36, 0
2, 44480, Note_off_c, 1, 41, 0
2, 44480, Note_on_c, 1, 43, 127
2, 44480, Note_off_c, 1, 45, 0
2, 44480, Note_on_c, 1, 47, 127
2, 44480, Note_off_c, 1, 48, 0
2, 44480, Note_on_c, 1, 50, 127
2, 44480, Note_on_c, 1, 53, 127
2, 44480, Note_off_c, 1, 72, 0
2, 44480, Note_on_c, 1, 74, 127
2, 44520, Note_off_c, 1, 43, 0
2, 44520, Note_off_c, 1, 47, 0
2, 44520, Note_off_c, 1, 50, 0
2, 44520, Note_off_c, 1, 53, 0
2, 44520, Note_on_c, 1, 62, 127
2, 44520, Note_on_c, 1, 69, 127
2, 44520, Note_on_c, 1, 71, 127
2, 44520, Note_off_c, 1, 74, 0
2, 44520, Note_on_c, 1, 78, 127
2, 44520, Note_on_c, 1, 90, 127
2, 44560, Note_off_c, 1, 62, 0
2, 44560, Note_on_c, 1, 63, 127
2, 44560, Note_on_c, 1, 68, 127
2, 44560, Note_off_c, 1, 69, 0
2, 44560, Note_off_c, 1, 71, 0
2, 44560, Note_on_c, 1, 72, 127
2, 44560, Note_off_c, 1, 78, 0
2, 44560, Note_on_c, 1, 84, 127
2, 44560, Note_off_c, 1, 90, 0
2, 44560, Note_on_c, 1, 96, 127
2, 44600, Note_on_c, 1, 34, 127
2, 44600, Note_on_c, 1, 51, 127
2, 44600, Note_on_c, 1, 60, 127
2, 44600, Note_off_c, 1, 63, 0
2, 44600, Note_off_c, 1, 68, 0
2, 44600, Note_off_c, 1, 72, 0
2, 44600, Note_off_c, 1, 84, 0
2, 44600, Note_off_c, 1, 96, 0
2, 44640, Note_off_c, 1, 34, 0
2, 44640, Note_off_c, 1, 51, 0
2, 44640, Note_off_c, 1, 60, 0
2, 44720, Note_on_c, 1, 47, 127
2, 44720, Note_on_c, 1, 51, 127
2, 44720, Note_on_c, 1, 65, 127
2, 44720, Note_on_c, 1, 73, 127
2, 44760, Note_on_c, 1, 44, 127
2, 44760, Note_off_c, 1, 47, 0
2, 44760, Note_off_c, 1, 65, 0
2, 44760, Note_on_c, 1, 70, 127
2, 44760, Note_off_c, 1, 73, 0
2, 44760, Note_on_c, 1, 87, 127
2, 44800, Note_off_c, 1, 44, 0
2, 44800, Note_off_c, 1, 51, 0
2, 44800, Note_on_c, 1, 61, 127
2, 44800, Note_off_c, 1, 70, 0
2, 44800, Note_on_c, 1, 73, 127
2, 44800, Note_on_c, 1, 76, 127
2, 44800, Note_on_c, 1, 83, 127
2, 44800, Note_off_c, 1, 87, 0
2, 44840, Note_on_c, 1, 58, 127
2, 44840, Note_off_c, 1, 61, 0
2, 44840, Note_on_c, 1, 69, 127
2, 44840, Note_off_c, 1, 73, 0
2, 44840, Note_off_c, 1, 76, 0
2, 44840, Note_on_c, 1, 77, 127
2, 44840, Note_on_c, 1, 81, 127
2, 44840, Note_off_c, 1, 83, 0
2, 44880, Note_on_c, 1, 47, 127
2, 44880, Note_on_c, 1, 55, 127
2, 44880, Note_off_c, 1, 58, 0
2, 44880, Note_on_c, 1, 62, 127
2, 44880, Note_on_c, 1, 66, 127
2, 44880, Note_off_c, 1, 69, 0
2, 44880, Note_on_c, 1, 71, 127
2, 44880, Note_on_c, 1, 74, 127
2, 44880, Note_off_c, 1, 77, 0
2, 44880, Note_off_c, 1, 81, 0
2, 44920, Note_on_c, 1, 46, 127
2, 44920, Note_off_c, 1, 47, 0
2, 44920, Note_on_c, 1, 49, 127
2, 44920, Note_off_c, 1, 55, 0
2, 44920, Note_off_c, 1, 62, 0
2, 44920, Note_off_c, 1, 66, 0
2, 44920, Note_off_c, 1, 71, 0
2, 44920, Note_off_c, 1, 74, 0
2, 44920, Note_on_c, 1, 80, 127
2, 44920, Note_on_c, 1, 88, 127
2, 44960, Note_off_c, 1, 46, 0
2, 44960, Note_off_c, 1, 49, 0
2, 44960, Note_on_c, 1, 69, 127
2, 44960, Note_on_c, 1, 74, 127
2, 44960, Note_on_c, 1, 77, 127
2, 44960, Note_off_c, 1, 80, 0
2, 44960, Note_on_c, 1, 83, 127
2, 45000, Note_on_c, 1, 29, 127
2, 45000, Note_on_c, 1, 53, 127
2, 45000, Note_on_c, 1, 56, 127
2, 45000, Note_on_c, 1, 63, 127
2, 45000, Note_off_c, 1, 69, 0
2, 45000, Note_off_c, 1, 74, 0
2, 45000, Note_on_c, 1, 75, 127
2, 45000, Note_off_c, 1, 77, 0
2, 45000, Note_off_c, 1, 83, 0
2, 45000, Note_off_c, 1, 88, 0
2, 45040, Note_off_c, 1, 29, 0
2, 45040, Note_on_c, 1, 51, 127
2, 45040, Note_off_c, 1, 53, 0
2, 45040, Note_on_c, 1, 60, 127
2, 45040, Note_on_c, 1, 72, 127
2, 45120, Note_off_c, 1, 51, 0
2, 45120, Note_off_c, 1, 56, 0
2, 45120, Note_on_c, 1, 59, 127
2, 45120, Note_off_c, 1, 60, 0
2, 45120, Note_on_c, 1, 61, 127
2, 45120, Note_off_c, 1, 63, 0
2, 45120, Note_on_c, 1, 65, 127
2, 45120, Note_on_c, 1, 68, 127
2, 45120, Note_off_c, 1, 72, 0
2, 45120, Note_off_c, 1, 75, 0
2, 45120, Note_on_c, 1, 99, 127
2, 45160, Note_on_c, 1, 51, 127
2, 45160, Note_on_c, 1, 56, 127
2, 45160, Note_off_c, 1, 59, 0
2, 45160, Note_on_c, 1, 60, 127
2, 45160, Note_off_c, 1, 61, 0
2, 45160, Note_on_c, 1, 63, 127
2, 45160, Note_off_c, 1, 65, 0
2, 45160, Note_off_c, 1, 68, 0
2, 45160, Note_on_c, 1, 72, 127
2, 45160, Note_on_c, 1, 75, 127
2, 45160, Note_off_c, 1, 99, 0
2, 45560, Note_off_c, 1, 51, 0
2, 45560, Note_off_c, 1, 56, 0
2, 45560, Note_on_c, 1, 57, 127
2, 45560, Note_off_c, 1, 60, 0
2, 45560, Note_on_c, 1, 61, 127
2, 45560, Note_off_c, 1, 63, 0
2, 45560, Note_on_c, 1, 64, 127
2, 45560, Note_on_c, 1, 69, 127
2, 45560, Note_off_c, 1, 72, 0
2, 45560, Note_off_c, 1, 75, 0
2, 45560, Note_on_c, 1, 102, 127
2, 45560, Note_on_c, 1, 103, 127
2, 45600, Note_on_c, 1, 51, 127
2, 45600, Note_on_c, 1, 56, 127
2, 45600, Note_off_c, 1, 57, 0
2, 45600, Note_on_c, 1, 60, 127
2, 45600, Note_off_c, 1, 61, 0
2, 45600, Note_on_c, 1, 63, 127
2, 45600, Note_off_c, 1, 64, 0
2, 45600, Note_off_c, 1, 69, 0
2, 45600, Note_on_c, 1, 72, 127
2, 45600, Note_on_c, 1, 75, 127
2, 45600, Note_off_c, 1, 102, 0
2, 45600, Note_off_c, 1, 103, 0
2, 45840, Note_off_c, 1, 56, 0
2, 45840, Note_off_c, 1, 60, 0
2, 45840, Note_on_c, 1, 61, 127
2, 45840, Note_off_c, 1, 72, 0
2, 45840, Note_off_c, 1, 75, 0
2, 45840, Note_on_c, 1, 91, 127
2, 45880, Note_on_c, 1, 56, 127
2, 45880, Note_on_c, 1, 60, 127
2, 45880, Note_off_c, 1, 61, 0
2, 45880, Note_on_c, 1, 72, 127
2, 45880, Note_on_c, 1, 75, 127
2, 45880, Note_off_c, 1, 91, 0
2, 45920, Note_off_c, 1, 51, 0
2, 45920, Note_off_c, 1, 56, 0
2, 45920, Note_off_c, 1, 60, 0
2, 45920, Note_off_c, 1, 63, 0
2, 45920, Note_off_c, 1, 72, 0
2, 45920, Note_off_c, 1, 75, 0
2, 45960, Note_on_c, 1, 57, 127
2, 45960, Note_on_c, 1, 64, 127
2, 45960, Note_on_c, 1, 66, 127
2, 45960, Note_on_c, 1, 73, 127
2, 46240, Note_off_c, 1, 57, 0
2, 46240, Note_off_c, 1, 64, 0
2, 46240, Note_off_c, 1, 66, 0
2, 46280, Note_on_c, 1, 64, 127
2, 46280, Note_on_c, 1, 80, 127
2, 46280, Note_on_c, 1, 88, 127
2, 46320, Note_on_c, 1, 57, 127
2, 46320, Note_off_c, 1, 64, 0
2, 46320, Note_on_c, 1, 66, 127
2, 46320, Note_off_c, 1, 73, 0
2, 46320, Note_off_c, 1, 80, 0
2, 46320, Note_off_c, 1, 88, 0
2, 46320, Note_on_c, 1, 90, 127
2, 46320, Note_on_c, 1, 93, 127
2, 46360, Note_on_c, 1, 55, 127
2, 46360, Note_off_c, 1, 57, 0
2, 46360, Note_on_c, 1, 60, 127
2, 46360, Note_on_c, 1, 65, 127
2, 46360, Note_off_c, 1, 66, 0
2, 46360, Note_on_c, 1, 72, 127
2, 46360, Note_on_c, 1, 74, 127
2, 46360, Note_off_c, 1, 90, 0
2, 46360, Note_off_c, 1, 93, 0
2, 46400, Note_off_c, 1, 55, 0
2, 46400, Note_off_c, 1, 60, 0
2, 46400, Note_off_c, 1, 65, 0
2, 46400, Note_off_c, 1, 72, 0
2, 46400, Note_off_c, 1, 74, 0
2, 46440, Note_on_c, 1, 64, 127
2, 46440, Note_on_c, 1, 71, 127
2, 46440, Note_on_c, 1, 80, 127
2, 46440, Note_on_c, 1, 86, 127
2, 46560, Note_off_c, 1, 64, 0
2, 46560, Note_off_c, 1, 71, 0
2, 46560, Note_off_c, 1, 80, 0
2, 46560, Note_off_c, 1, 86, 0
2, 46600, Note_on_c, 1, 48, 127
2, 46600, Note_on_c, 1, 56, 127
2, 46600, Note_on_c, 1, 63, 127
2, 46600, Note_on_c, 1, 66, 127
2, 46600, Note_on_c, 1, 78, 127
2, 46640, Note_off_c, 1, 48, 0
2, 46640, Note_on_c, 1, 50, 127
2, 46640, Note_on_c, 1, 52, 127
2, 46640, Note_off_c, 1, 56, 0
2, 46640, Note_on_c, 1, 59, 127
2, 46640, Note_off_c, 1, 63, 0
2, 46640, Note_off_c, 1, 66, 0
2, 46640, Note_off_c, 1, 78, 0
2, 46640, Note_on_c, 1, 90, 127
2, 46680, Note_off_c, 1, 50, 0
2, 46680, Note_off_c, 1, 52, 0
2, 46680, Note_off_c, 1, 59, 0
2, 46680, Note_off_c, 1, 90, 0
2, 46720, Note_on_c, 1, 56, 127
2, 46720, Note_on_c, 1, 76, 127
2, 46720, Note_on_c, 1, 87, 127
2, 46760, Note_on_c, 1, 43, 127
2, 46760, Note_on_c, 1, 47, 127
2, 46760, Note_on_c, 1, 54, 127
2, 46760, Note_off_c, 1, 56, 0
2, 46760, Note_on_c, 1, 62, 127
2, 46760, Note_on_c, 1, 74, 127
2, 46760, Note_off_c, 1, 76, 0
2, 46760, Note_off_c, 1, 87, 0
2, 46800, Note_on_c, 1, 42, 127
2, 46800, Note_off_c, 1, 43, 0
2, 46800, Note_off_c, 1, 47, 0
2, 46800, Note_off_c, 1, 62, 0
2, 46800, Note_off_c, 1, 74, 0
2, 46800, Note_on_c, 1, 76, 127
2, 46800, Note_on_c, 1, 78, 127
2, 46840, Note_off_c, 1, 42, 0
2, 46840, Note_on_c, 1, 53, 127
2, 46840, Note_off_c, 1, 54, 0
2, 46840, Note_on_c, 1, 60, 127
2, 46840, Note_on_c, 1, 75, 127
2, 46840, Note_off_c, 1, 76, 0
2, 46840, Note_on_c, 1, 77, 127
2, 46840, Note_off_c, 1, 78, 0
2, 46840, Note_on_c, 1, 81, 127
2, 46840, Note_on_c, 1, 84, 127
2, 46840, Note_on_c, 1, 89, 127
2, 46880, Note_off_c, 1, 53, 0
2, 46880, Note_off_c, 1, 60, 0
2, 46880, Note_off_c, 1, 75, 0
2, 46880, Note_off_c, 1, 77, 0
2, 46880, Note_off_c, 1, 81, 0
2, 46880, Note_off_c, 1, 84, 0
2, 46880, Note_off_c, 1, 89, 0
2, 46920, Note_on_c, 1, 57, 127
2, 46920, Note_on_c, 1, 60, 127
2, 46920, Note_on_c, 1, 63, 127
2, 46920, Note_on_c, 1, 66, 127
2, 46920, Note_on_c, 1, 72, 127
2, 46920, Note_on_c, 1, 75, 127
2, 46920, Note_on_c, 1, 78, 127
2, 47160, Note_off_c, 1, 57, 0
2, 47160, Note_off_c, 1, 60, 0
2, 47160, Note_off_c, 1, 63, 0
2, 47160, Note_off_c, 1, 66, 0
2, 47160, Note_off_c, 1, 72, 0
2, 47160, Note_off_c, 1, 75, 0
2, 47160, Note_off_c, 1, 78, 0
2, 47200, Note_on_c, 1, 57, 127
2, 47200, Note_on_c, 1, 60, 127
2, 47200, Note_on_c, 1, 63, 127
2, 47200, Note_on_c, 1, 66, 127
2, 47200, Note_on_c, 1, 72, 127
2, 47200, Note_on_c, 1, 75, 127
2, 47200, Note_on_c, 1, 78, 127
2, 47440, Note_off_c, 1, 60, 0
2, 47440, Note_off_c, 1, 63, 0
2, 47440, Note_off_c, 1, 66, 0
2, 47440, Note_off_c, 1, 72, 0
2, 47440, Note_off_c, 1, 75, 0
2, 47440, Note_off_c, 1, 78, 0
2, 47440, Note_on_c, 1, 81, 127
2, 47440, Note_on_c, 1, 86, 127
2, 47440, Note_on_c, 1, 90, 127
2, 47440, Note_on_c, 1, 93, 127
2, 47480, Note_off_c, 1, 57, 0
2, 47480, Note_off_c, 1, 81, 0
2, 47480, Note_off_c, 1, 86, 0
2, 47480, Note_off_c, 1, 90, 0
2, 47480, Note_off_c, 1, 93, 0
2, 47520, Note_on_c, 1, 48, 127
2, 47520, Note_on_c, 1, 60, 127
2, 47520, Note_on_c, 1, 78, 127
2, 47520, Note_on_c, 1, 81, 127
2, 47520, Note_on_c, 1, 87, 127
2, 47520, Note_on_c, 1, 90, 127
2, 47760, Note_off_c, 1, 48, 0
2, 47760, Note_off_c, 1, 60, 0
2, 47760, Note_off_c, 1, 78, 0
2, 47760, Note_off_c, 1, 81, 0
2, 47760, Note_off_c, 1, 87, 0
2, 47760, Note_off_c, 1, 90, 0
2, 47800, Note_on_c, 1, 55, 127
2, 47800, Note_on_c, 1, 61, 127
2, 47800, Note_on_c, 1, 70, 127
2, 47800, Note_on_c, 1, 79, 127
2, 47800, Note_on_c, 1, 82, 127
2, 47840, Note_off_c, 1, 55, 0
2, 47840, Note_on_c, 1, 60, 127
2, 47840, Note_off_c, 1, 61, 0
2, 47840, Note_on_c, 1, 62, 127
2, 47840, Note_on_c, 1, 65, 127
2, 47840, Note_on_c, 1, 68, 127
2, 47840, Note_off_c, 1, 70, 0
2, 47840, Note_on_c, 1, 72, 127
2, 47840, Note_off_c, 1, 79, 0
2, 47840, Note_off_c, 1, 82, 0
2, 47840, Note_on_c, 1, 84, 127
2, 47840, Note_on_c, 1, 92, 127
2, 47840, Note_on_c, 1, 96, 127
2, 47880, Note_on_c, 1, 52, 127
2, 47880, Note_off_c, 1, 60, 0
2, 47880, Note_off_c, 1, 62, 0
2, 47880, Note_off_c, 1, 65, 0
2, 47880, Note_on_c, 1, 66, 127
2, 47880, Note_off_c, 1, 68, 0
2, 47880, Note_off_c, 1, 72, 0
2, 47880, Note_on_c, 1, 73, 127
2, 47880, Note_on_c, 1, 82, 127
2, 47880, Note_off_c, 1, 84, 0
2, 47880, Note_on_c, 1, 85, 127
2, 47880, Note_off_c, 1, 92, 0
2, 47880, Note_off_c, 1, 96, 0
2, 47920, Note_on_c, 1, 44, 127
2, 47920, Note_on_c, 1, 46, 127
2, 47920, Note_off_c, 1, 52, 0
2, 47920, Note_on_c, 1, 56, 127
2, 47920, Note_off_c, 1, 66, 0
2, 47920, Note_off_c, 1, 73, 0
2, 47920, Note_on_c, 1, 78, 127
2, 47920, Note_off_c, 1, 82, 0
2, 47920, Note_off_c, 1, 85, 0
2, 47960, Note_off_c, 1, 44, 0
2, 47960, Note_off_c, 1, 46, 0
2, 47960, Note_on_c, 1, 50, 127
2, 47960, Note_on_c, 1, 53, 127
2, 47960, Note_off_c, 1, 56, 0
2, 47960, Note_on_c, 1, 59, 127
2, 47960, Note_on_c, 1, 65, 127
2, 47960, Note_on_c, 1, 71, 127
2, 47960, Note_off_c, 1, 78, 0
2, 48000, Note_on_c, 1, 46, 127
2, 48000, Note_off_c, 1, 50, 0
2, 48000, Note_off_c, 1, 53, 0
2, 48000, Note_off_c, 1, 59, 0
2, 48000, Note_off_c, 1, 65, 0
2, 48000, Note_off_c, 1, 71, 0
2, 48000, Note_on_c, 1, 80, 127
2, 48000, Note_on_c, 1, 85, 127
2, 48040, Note_off_c, 1, 46, 0
2, 48040, Note_off_c, 1, 80, 0
2, 48040, Note_off_c, 1, 85, 0
2, 48080, Note_on_c, 1, 41, 127
2, 48080, Note_on_c, 1, 53, 127
2, 48080, Note_on_c, 1, 70, 127
2, 48080, Note_on_c, 1, 75, 127
2, 48080, Note_on_c, 1, 82, 127
2, 48360, Note_off_c, 1, 41, 0
2, 48360, Note_off_c, 1, 53, 0
2, 48360, Note_off_c, 1, 70, 0
2, 48360, Note_off_c, 1, 75, 0
2, 48360, Note_off_c, 1, 82, 0
2, 48400, Note_on_c, 1, 33, 127
2, 48400, Note_on_c, 1, 45, 127
2, 48400, Note_on_c, 1, 66, 127
2, 48400, Note_on_c, 1, 72, 127
2, 48400, Note_on_c, 1, 76, 127
2, 48640, Note_off_c, 1, 33, 0
2, 48640, Note_off_c, 1, 45, 0
2, 48640, Note_off_c, 1, 66, 0
2, 48640, Note_off_c, 1, 72, 0
2, 48640, Note_off_c, 1, 76, 0
2, 48680, Note_on_c, 1, 33, 127
2, 48680, Note_on_c, 1, 45, 127
2, 48680, Note_on_c, 1, 66, 127
2, 48680, Note_on_c, 1, 72, 127
2, 48680, Note_on_c, 1, 76, 127
2, 48880, Note_off_c, 1, 33, 0
2, 48880, Note_off_c, 1, 45, 0
2, 48880, Note_off_c, 1, 66, 0
2, 48880, Note_off_c, 1, 72, 0
2, 48880, Note_off_c, 1, 76, 0
2, 48920, Note_on_c, 1, 33, 127
2, 48920, Note_on_c, 1, 45, 127
2, 48920, Note_on_c, 1, 66, 127
2, 48920, Note_on_c, 1, 72, 127
2, 48920, Note_on_c, 1, 76, 127
2, 49000, Note_off_c, 1, 33, 0
2, 49000, Note_off_c, 1, 45, 0
2, 49000, Note_off_c, 1, 66, 0
2, 49000, Note_off_c, 1, 72, 0
2, 49000, Note_off_c, 1, 76, 0
2, 49040, Note_on_c, 1, 40, 127
2, 49040, Note_on_c, 1, 52, 127
2, 49040, Note_on_c, 1, 60, 127
2, 49040, Note_on_c, 1, 67, 127
2, 49040, Note_on_c, 1, 72, 127
2, 49240, Note_off_c, 1, 40, 0
2, 49240, Note_on_c, 1, 41, 127
2, 49240, Note_on_c, 1, 46, 127
2, 49240, Note_off_c, 1, 52, 0
2, 49240, Note_on_c, 1, 53, 127
2, 49240, Note_off_c, 1, 60, 0
2, 49240, Note_off_c, 1, 67, 0
2, 49240, Note_off_c, 1, 72, 0
2, 49240, Note_on_c, 1, 87, 127
2, 49280, Note_off_c, 1, 41, 0
2, 49280, Note_off_c, 1, 46, 0
2, 49280, Note_off_c, 1, 53, 0
2, 49280, Note_off_c, 1, 87, 0
2, 49320, Note_on_c, 1, 37, 127
2, 49320, Note_on_c, 1, 49, 127
2, 49320, Note_on_c, 1, 57, 127
2, 49320, Note_on_c, 1, 69, 127
2, 49560, Note_off_c, 1, 37, 0
2, 49560, Note_off_c, 1, 49, 0
2, 49560, Note_off_c, 1, 57, 0
2, 49560, Note_off_c, 1, 69, 0
2, 49600, Note_on_c, 1, 33, 127
2, 49600, Note_on_c, 1, 45, 127
2, 49600, Note_on_c, 1, 61, 127
2, 49600, Note_on_c, 1, 73, 127
2, 49840, Note_off_c, 1, 33, 0
2, 49840, Note_off_c, 1, 45, 0
2, 49840, Note_off_c, 1, 61, 0
2, 49840, Note_off_c, 1, 73, 0
2, 49880, Note_on_c, 1, 33, 127
2, 49880, Note_on_c, 1, 45, 127
2, 49880, Note_on_c, 1, 65, 127
2, 49880, Note_on_c, 1, 69, 127
2, 49880, Note_on_c, 1, 72, 127
2, 49880, Note_on_c, 1, 77, 127
2, 50000, Note_off_c, 1, 65, 0
2, 50000, Note_off_c, 1, 69, 0
2, 50000, Note_off_c, 1, 72, 0
2, 50000, Note_off_c, 1, 77, 0
2, 50040, Note_on_c, 1, 64, 127
2, 50040, Note_on_c, 1, 76, 127
2, 50280, Note_off_c, 1, 33, 0
2, 50280, Note_off_c, 1, 45, 0
2, 50280, Note_off_c, 1, 64, 0
2, 50280, Note_off_c, 1, 76, 0
2, 50320, Note_on_c, 1, 36, 127
2, 50320, Note_on_c, 1, 48, 127
2, 50320, Note_on_c, 1, 62, 127
2, 50320, Note_on_c, 1, 66, 127
2, 50320, Note_on_c, 1, 69, 127
2, 50320, Note_on_c, 1, 74, 127
2, 50600, Note_off_c, 1, 36, 0
2, 50600, Note_off_c, 1, 48, 0
2, 50600, Note_off_c, 1, 62, 0
2, 50600, Note_off_c, 1, 66, 0
2, 50600, Note_off_c, 1, 69, 0
2, 50600, Note_off_c, 1, 74, 0
2, 50960, Note_on_c, 1, 57, 127
2, 50960, Note_on_c, 1, 60, 127
2, 50960, Note_on_c, 1, 63, 127
2, 50960, Note_on_c, 1, 66, 127
2, 50960, Note_on_c, 1, 75, 127
2, 50960, Note_on_c, 1, 78, 127
2, 50960, Note_on_c, 1, 87, 127
2, 51160, Note_on_c, 1, 55, 127
2, 51160, Note_off_c, 1, 57, 0
2, 51160, Note_off_c, 1, 60, 0
2, 51160, Note_off_c, 1, 63, 0
2, 51160, Note_off_c, 1, 66, 0
2, 51160, Note_off_c, 1, 75, 0
2, 51160, Note_off_c, 1, 78, 0
2, 51160, Note_on_c, 1, 79, 127
2, 51160, Note_on_c, 1, 81, 127
2, 51160, Note_off_c, 1, 87, 0
2, 51200, Note_off_c, 1, 55, 0
2, 51200, Note_on_c, 1, 67, 127
2, 51200, Note_on_c, 1, 71, 127
2, 51200, Note_on_c, 1, 74, 127
2, 51200, Note_off_c, 1, 79, 0
2, 51200, Note_on_c, 1, 80, 127
2, 51200, Note_off_c, 1, 81, 0
2, 51200, Note_on_c, 1, 85, 127
2, 51240, Note_on_c, 1, 60, 127
2, 51240, Note_off_c, 1, 67, 0
2, 51240, Note_off_c, 1, 74, 0
2, 51240, Note_on_c, 1, 79, 127
2, 51240, Note_off_c, 1, 80, 0
2, 51240, Note_on_c, 1, 83, 127
2, 51240, Note_off_c, 1, 85, 0
2, 51280, Note_on_c, 1, 42, 127
2, 51280, Note_on_c, 1, 54, 127
2, 51280, Note_off_c, 1, 60, 0
2, 51280, Note_on_c, 1, 65, 127
2, 51280, Note_off_c, 1, 71, 0
2, 51280, Note_on_c, 1, 77, 127
2, 51280, Note_off_c, 1, 79, 0
2, 51280, Note_off_c, 1, 83, 0
2, 51320, Note_off_c, 1, 42, 0
2, 51320, Note_off_c, 1, 54, 0
2, 51320, Note_on_c, 1, 60, 127
2, 51320, Note_off_c, 1, 65, 0
2, 51320, Note_on_c, 1, 71, 127
2, 51320, Note_off_c, 1, 77, 0
2, 51320, Note_on_c, 1, 79, 127
2, 51320, Note_on_c, 1, 83, 127
2, 51360, Note_on_c, 1, 44, 127
2, 51360, Note_on_c, 1, 49, 127
2, 51360, Note_on_c, 1, 53, 127
2, 51360, Note_on_c, 1, 59, 127
2, 51360, Note_off_c, 1, 60, 0
2, 51360, Note_on_c, 1, 61, 127
2, 51360, Note_on_c, 1, 65, 127
2, 51360, Note_off_c, 1, 71, 0
2, 51360, Note_on_c, 1, 73, 127
2, 51360, Note_off_c, 1, 79, 0
2, 51360, Note_off_c, 1, 83, 0
2, 51400, Note_off_c, 1, 44, 0
2, 51400, Note_on_c, 1, 47, 127
2, 51400, Note_off_c, 1, 49, 0
2, 51400, Note_on_c, 1, 51, 127
2, 51400, Note_off_c, 1, 53, 0
2, 51400, Note_on_c, 1, 54, 127
2, 51400, Note_off_c, 1, 61, 0
2, 51400, Note_off_c, 1, 65, 0
2, 51400, Note_on_c, 1, 71, 127
2, 51400, Note_off_c, 1, 73, 0
2, 51400, Note_on_c, 1, 75, 127
2, 51400, Note_on_c, 1, 83, 127
2, 51440, Note_off_c, 1, 47, 0
2, 51440, Note_off_c, 1, 51, 0
2, 51440, Note_off_c, 1, 54, 0
2, 51440, Note_off_c, 1, 59, 0
2, 51440, Note_on_c, 1, 60, 127
2, 51440, Note_off_c, 1, 75, 0
2, 51440, Note_on_c, 1, 79, 127
2, 51480, Note_off_c, 1, 60, 0
2, 51480, Note_off_c, 1, 71, 0
2, 51480, Note_off_c, 1, 79, 0
2, 51480, Note_off_c, 1, 83, 0
2, 51520, Note_on_c, 1, 80, 127
2, 51520, Note_on_c, 1, 81, 127
2, 51520, Note_on_c, 1, 92, 127
2, 51520, Note_on_c, 1, 93, 127
2, 51560, Note_off_c, 1, 80, 0
2, 51560, Note_off_c, 1, 81, 0
2, 51560, Note_on_c, 1, 82, 127
2, 51560, Note_off_c, 1, 92, 0
2, 51560, Note_off_c, 1, 93, 0
2, 51560, Note_on_c, 1, 94, 127
2, 51600, Note_off_c, 1, 82, 0
2, 51600, Note_on_c, 1, 83, 127
2, 51600, Note_off_c, 1, 94, 0
2, 51600, Note_on_c, 1, 95, 127
2, 51840, Note_on_c, 1, 62, 127
2, 51840, Note_on_c, 1, 66, 127
2, 51840, Note_on_c, 1, 69, 127
2, 51840, Note_on_c, 1, 81, 127
2, 51840, Note_off_c, 1, 83, 0
2, 51840, Note_on_c, 1, 93, 127
2, 51840, Note_off_c, 1, 95, 0
2, 51880, Note_on_c, 1, 54, 127
2, 51880, Note_off_c, 1, 62, 0
2, 51880, Note_off_c, 1, 66, 0
2, 51880, Note_off_c, 1, 69, 0
2, 51880, Note_on_c, 1, 79, 127
2, 51880, Note_off_c, 1, 81, 0
2, 51880, Note_on_c, 1, 83, 127
2, 51880, Note_on_c, 1, 86, 127
2, 51880, Note_off_c, 1, 93, 0
2, 51920, Note_on_c, 1, 53, 127
2, 51920, Note_off_c, 1, 54, 0
2, 51920, Note_on_c, 1, 58, 127
2, 51920, Note_off_c, 1, 79, 0
2, 51920, Note_on_c, 1, 80, 127
2, 51920, Note_off_c, 1, 83, 0
2, 51920, Note_off_c, 1, 86, 0
2, 51920, Note_on_c, 1, 87, 127
2, 51960, Note_on_c, 1, 52, 127
2, 51960, Note_off_c, 1, 53, 0
2, 51960, Note_off_c, 1, 58, 0
2, 51960, Note_on_c, 1, 59, 127
2, 51960, Note_on_c, 1, 68, 127
2, 51960, Note_on_c, 1, 75, 127
2, 51960, Note_off_c, 1, 87, 0
2, 52000, Note_off_c, 1, 52, 0
2, 52000, Note_off_c, 1, 59, 0
2, 52000, Note_on_c, 1, 62, 127
2, 52000, Note_on_c, 1, 66, 127
2, 52000, Note_off_c, 1, 68, 0
2, 52000, Note_on_c, 1, 69, 127
2, 52000, Note_off_c, 1, 75, 0
2, 52000, Note_off_c, 1, 80, 0
2, 52000, Note_on_c, 1, 81, 127
2, 52000, Note_on_c, 1, 93, 127
2, 52040, Note_on_c, 1, 59, 127
2, 52040, Note_off_c, 1, 62, 0
2, 52040, Note_off_c, 1, 66, 0
2, 52040, Note_on_c, 1, 67, 127
2, 52040, Note_off_c, 1, 69, 0
2, 52040, Note_on_c, 1, 71, 127
2, 52040, Note_on_c, 1, 76, 127
2, 52040, Note_on_c, 1, 79, 127
2, 52040, Note_off_c, 1, 81, 0
2, 52040, Note_on_c, 1, 83, 127
2, 52040, Note_off_c, 1, 93, 0
2, 52080, Note_off_c, 1, 59, 0
2, 52080, Note_on_c, 1, 62, 127
2, 52080, Note_on_c, 1, 66, 127
2, 52080, Note_off_c, 1, 67, 0
2, 52080, Note_on_c, 1, 69, 127
2, 52080, Note_off_c, 1, 71, 0
2, 52080, Note_off_c, 1, 76, 0
2, 52080, Note_off_c, 1, 79, 0
2, 52080, Note_off_c, 1, 83, 0
2, 52080, Note_on_c, 1, 93, 127
2, 52320, Note_off_c, 1, 93, 0
2, 52360, Note_off_c, 1, 62, 0
2, 52360, Note_off_c, 1, 66, 0
2, 52360, Note_off_c, 1, 69, 0
2, 52400, Note_on_c, 1, 66, 127
2, 52400, Note_on_c, 1, 69, 127
2, 52400, Note_on_c, 1, 74, 127
2, 52400, Note_on_c, 1, 86, 127
2, 52600, Note_off_c, 1, 86, 0
2, 52640, Note_on_c, 1, 48, 127
2, 52640, Note_on_c, 1, 50, 127
2, 52640, Note_on_c, 1, 53, 127
2, 52640, Note_on_c, 1, 55, 127
2, 52640, Note_off_c, 1, 66, 0
2, 52640, Note_off_c, 1, 69, 0
2, 52640, Note_off_c, 1, 74, 0
2, 52640, Note_on_c, 1, 77, 127
2, 52680, Note_off_c, 1, 48, 0
2, 52680, Note_off_c, 1, 50, 0
2, 52680, Note_off_c, 1, 53, 0
2, 52680, Note_off_c, 1, 55, 0
2, 52680, Note_off_c, 1, 77, 0
2, 52720, Note_on_c, 1, 50, 127
2, 52720, Note_on_c, 1, 54, 127
2, 52720, Note_on_c, 1, 73, 127
2, 52720, Note_on_c, 1, 85, 127
2, 52840, Note_off_c, 1, 50, 0
2, 52840, Note_off_c, 1, 54, 0
2, 52840, Note_off_c, 1, 73, 0
2, 52840, Note_off_c, 1, 85, 0
2, 52880, Note_on_c, 1, 50, 127
2, 52880, Note_on_c, 1, 54, 127
2, 52880, Note_on_c, 1, 73, 127
2, 52880, Note_on_c, 1, 85, 127
2, 53000, Note_off_c, 1, 50, 0
2, 53000, Note_off_c, 1, 54, 0
2, 53000, Note_off_c, 1, 73, 0
2, 53000, Note_off_c, 1, 85, 0
2, 53040, Note_on_c, 1, 38, 127
2, 53040, Note_on_c, 1, 50, 127
2, 53040, Note_on_c, 1, 84, 127
2, 53040, Note_on_c, 1, 90, 127
2, 53040, Note_on_c, 1, 96, 127
2, 53320, Note_off_c, 1, 38, 0
2, 53320, Note_off_c, 1, 50, 0
2, 53320, Note_off_c, 1, 84, 0
2, 53320, Note_off_c, 1, 90, 0
2, 53320, Note_off_c, 1, 96, 0
2, 53360, Note_on_c, 1, 31, 127
2, 53360, Note_on_c, 1, 43, 127
2, 53360, Note_on_c, 1, 50, 127
2, 53360, Note_on_c, 1, 62, 127
2, 53360, Note_on_c, 1, 71, 127
2, 53360, Note_on_c, 1, 83, 127
2, 53400, Note_off_c, 1, 31, 0
2, 53400, Note_on_c, 1, 37, 127
2, 53400, Note_off_c, 1, 43, 0
2, 53400, Note_on_c, 1, 49, 127
2, 53400, Note_off_c, 1, 50, 0
2, 53400, Note_on_c, 1, 59, 127
2, 53400, Note_off_c, 1, 62, 0
2, 53400, Note_on_c, 1, 65, 127
2, 53400, Note_on_c, 1, 69, 127
2, 53400, Note_off_c, 1, 71, 0
2, 53400, Note_off_c, 1, 83, 0
2, 53440, Note_off_c, 1, 37, 0
2, 53440, Note_on_c, 1, 43, 127
2, 53440, Note_off_c, 1, 49, 0
2, 53440, Note_on_c, 1, 53, 127
2, 53440, Note_on_c, 1, 58, 127
2, 53440, Note_off_c, 1, 59, 0
2, 53440, Note_off_c, 1, 69, 0
2, 53480, Note_on_c, 1, 31, 127
2, 53480, Note_on_c, 1, 50, 127
2, 53480, Note_off_c, 1, 53, 0
2, 53480, Note_off_c, 1, 58, 0
2, 53480, Note_on_c, 1, 62, 127
2, 53480, Note_off_c, 1, 65, 0
2, 53480, Note_on_c, 1, 71, 127
2, 53480, Note_on_c, 1, 81, 127
2, 53520, Note_off_c, 1, 31, 0
2, 53520, Note_off_c, 1, 43, 0
2, 53520, Note_on_c, 1, 45, 127
2, 53520, Note_on_c, 1, 48, 127
2, 53520, Note_off_c, 1, 50, 0
2, 53520, Note_on_c, 1, 51, 127
2, 53520, Note_on_c, 1, 57, 127
2, 53520, Note_off_c, 1, 62, 0
2, 53520, Note_off_c, 1, 71, 0
2, 53520, Note_off_c, 1, 81, 0
2, 53520, Note_on_c, 1, 87, 127
2, 53520, Note_on_c, 1, 90, 127
2, 53600, Note_off_c, 1, 45, 0
2, 53600, Note_off_c, 1, 48, 0
2, 53600, Note_off_c, 1, 51, 0
2, 53600, Note_off_c, 1, 57, 0
2, 53600, Note_off_c, 1, 87, 0
2, 53600, Note_off_c, 1, 90, 0
2, 53640, Note_on_c, 1, 62, 127
2, 53640, Note_on_c, 1, 83, 127
2, 53640, Note_on_c, 1, 95, 127
2, 53760, Note_off_c, 1, 62, 0
2, 53800, Note_on_c, 1, 52, 127
2, 53920, Note_off_c, 1, 52, 0
2, 53920, Note_off_c, 1, 83, 0
2, 53920, Note_off_c, 1, 95, 0
2, 53960, Note_on_c, 1, 45, 127
2, 53960, Note_on_c, 1, 81, 127
2, 53960, Note_on_c, 1, 93, 127
2, 54200, Note_off_c, 1, 45, 0
2, 54240, Note_on_c, 1, 44, 127
2, 54240, Note_on_c, 1, 71, 127
2, 54240, Note_on_c, 1, 75, 127
2, 54240, Note_off_c, 1, 81, 0
2, 54240, Note_on_c, 1, 83, 127
2, 54240, Note_off_c, 1, 93, 0
2, 54280, Note_off_c, 1, 44, 0
2, 54280, Note_on_c, 1, 45, 127
2, 54280, Note_off_c, 1, 71, 0
2, 54280, Note_on_c, 1, 74, 127
2, 54280, Note_off_c, 1, 75, 0
2, 54280, Note_off_c, 1, 83, 0
2, 54280, Note_on_c, 1, 86, 127
2, 54320, Note_off_c, 1, 45, 0
2, 54320, Note_on_c, 1, 70, 127
2, 54320, Note_on_c, 1, 72, 127
2, 54320, Note_off_c, 1, 74, 0
2, 54320, Note_on_c, 1, 82, 127
2, 54320, Note_off_c, 1, 86, 0
2, 54360, Note_off_c, 1, 72, 0
2, 54400, Note_on_c, 1, 39, 127
2, 54400, Note_off_c, 1, 70, 0
2, 54400, Note_off_c, 1, 82, 0
2, 54400, Note_on_c, 1, 85, 127
2, 54400, Note_on_c, 1, 94, 127
2, 54400, Note_on_c, 1, 97, 127
2, 54440, Note_off_c, 1, 39, 0
2, 54440, Note_on_c, 1, 51, 127
2, 54480, Note_on_c, 1, 34, 127
2, 54480, Note_off_c, 1, 51, 0
2, 54480, Note_on_c, 1, 76, 127
2, 54480, Note_off_c, 1, 85, 0
2, 54480, Note_on_c, 1, 88, 127
2, 54480, Note_off_c, 1, 94, 0
2, 54480, Note_off_c, 1, 97, 0
2, 54520, Note_off_c, 1, 34, 0
2, 54520, Note_off_c, 1, 76, 0
2, 54520, Note_off_c, 1, 88, 0
2, 54560, Note_on_c, 1, 42, 127
2, 54560, Note_on_c, 1, 67, 127
2, 54560, Note_on_c, 1, 79, 127
2, 54800, Note_off_c, 1, 42, 0
2, 54800, Note_off_c, 1, 67, 0
2, 54800, Note_off_c, 1, 79, 0
2, 54840, Note_on_c, 1, 45, 127
2, 54840, Note_on_c, 1, 64, 127
2, 54840, Note_on_c, 1, 76, 127
2, 54880, Note_off_c, 1, 45, 0
2, 54960, Note_off_c, 1, 64, 0
2, 54960, Note_off_c, 1, 76, 0
2, 55000, Note_on_c, 1, 64, 127
2, 55000, Note_on_c, 1, 76, 127
2, 55040, Note_on_c, 1, 50, 127
2, 55160, Note_off_c, 1, 50, 0
2, 55160, Note_on_c, 1, 57, 127
2, 55160, Note_off_c, 1, 64, 0
2, 55160, Note_off_c, 1, 76, 0
2, 55200, Note_on_c, 1, 41, 127
2, 55200, Note_off_c, 1, 57, 0
2, 55200, Note_on_c, 1, 58, 127
2, 55200, Note_on_c, 1, 67, 127
2, 55440, Note_off_c, 1, 41, 0
2, 55440, Note_on_c, 1, 53, 127
2, 55440, Note_off_c, 1, 58, 0
2, 55440, Note_on_c, 1, 64, 127
2, 55440, Note_off_c, 1, 67, 0
2, 55480, Note_on_c, 1, 32, 127
2, 55480, Note_on_c, 1, 44, 127
2, 55480, Note_off_c, 1, 53, 0
2, 55480, Note_on_c, 1, 59, 127
2, 55600, Note_off_c, 1, 32, 0
2, 55600, Note_off_c, 1, 44, 0
2, 55600, Note_off_c, 1, 59, 0
2, 55600, Note_off_c, 1, 64, 0
2, 55600, Note_on_c, 1, 65, 127
2, 55640, Note_on_c, 1, 43, 127
2, 55640, Note_on_c, 1, 64, 127
2, 55640, Note_off_c, 1, 65, 0
2, 55640, Note_on_c, 1, 67, 127
2, 55760, Note_off_c, 1, 43, 0
2, 55760, Note_off_c, 1, 64, 0
2, 55760, Note_off_c, 1, 67, 0
2, 55800, Note_on_c, 1, 48, 127
2, 55800, Note_on_c, 1, 62, 127
2, 55800, Note_on_c, 1, 67, 127
2, 55920, Note_off_c, 1, 62, 0
2, 55920, Note_off_c, 1, 67, 0
2, 55960, Note_off_c, 1, 48, 0
2, 55960, Note_on_c, 1, 50, 127
2, 55960, Note_on_c, 1, 64, 127
2, 55960, Note_on_c, 1, 71, 127
2, 56080, Note_off_c, 1, 50, 0
2, 56080, Note_off_c, 1, 71, 0
2, 56120, Note_on_c, 1, 52, 127
2, 56120, Note_off_c, 1, 64, 0
2, 56120, Note_on_c, 1, 69, 127
2, 56120, Note_on_c, 1, 79, 127
2, 56200, Note_off_c, 1, 52, 0
2, 56200, Note_off_c, 1, 69, 0
2, 56200, Note_off_c, 1, 79, 0
2, 56240, Note_on_c, 1, 50, 127
2, 56240, Note_on_c, 1, 60, 127
2, 56240, Note_on_c, 1, 62, 127
2, 56240, Note_on_c, 1, 66, 127
2, 56240, Note_on_c, 1, 69, 127
2, 56360, Note_off_c, 1, 50, 0
2, 56360, Note_off_c, 1, 60, 0
2, 56360, Note_off_c, 1, 62, 0
2, 56360, Note_off_c, 1, 66, 0
2, 56360, Note_off_c, 1, 69, 0
2, 56400, Note_on_c, 1, 50, 127
2, 56400, Note_on_c, 1, 55, 127
2, 56400, Note_on_c, 1, 58, 127
2, 56400, Note_on_c, 1, 63, 127
2, 56520, Note_off_c, 1, 50, 0
2, 56520, Note_off_c, 1, 55, 0
2, 56520, Note_off_c, 1, 58, 0
2, 56520, Note_off_c, 1, 63, 0
2, 56560, Note_on_c, 1, 50, 127
2, 56560, Note_on_c, 1, 55, 127
2, 56560, Note_on_c, 1, 58, 127
2, 56560, Note_on_c, 1, 63, 127
2, 56680, Note_off_c, 1, 50, 0
2, 56680, Note_off_c, 1, 55, 0
2, 56680, Note_off_c, 1, 58, 0
2, 56680, Note_off_c, 1, 63, 0
2, 56720, Note_on_c, 1, 48, 127
2, 56720, Note_on_c, 1, 51, 127
2, 56720, Note_on_c, 1, 57, 127
2, 56720, Note_on_c, 1, 69, 127
2, 56840, Note_off_c, 1, 48, 0
2, 56840, Note_off_c, 1, 51, 0
2, 56840, Note_off_c, 1, 57, 0
2, 56840, Note_off_c, 1, 69, 0
2, 56880, Note_on_c, 1, 61, 127
2, 56880, Note_on_c, 1, 76, 127
2, 56880, Note_on_c, 1, 82, 127
2, 56880, Note_on_c, 1, 88, 127
2, 56920, Note_on_c, 1, 58, 127
2, 56920, Note_on_c, 1, 65, 127
2, 56920, Note_on_c, 1, 75, 127
2, 56920, Note_off_c, 1, 76, 0
2, 56920, Note_on_c, 1, 79, 127
2, 56920, Note_off_c, 1, 88, 0
2, 56960, Note_off_c, 1, 58, 0
2, 56960, Note_off_c, 1, 61, 0
2, 56960, Note_off_c, 1, 65, 0
2, 56960, Note_on_c, 1, 74, 127
2, 56960, Note_off_c, 1, 82, 0
2, 56960, Note_on_c, 1, 87, 127
2, 57000, Note_off_c, 1, 74, 0
2, 57000, Note_off_c, 1, 75, 0
2, 57000, Note_off_c, 1, 79, 0
2, 57000, Note_off_c, 1, 87, 0
2, 57040, Note_on_c, 1, 58, 127
2, 57080, Note_on_c, 1, 51, 127
2, 57080, Note_on_c, 1, 56, 127
2, 57080, Note_off_c, 1, 58, 0
2, 57080, Note_on_c, 1, 64, 127
2, 57080, Note_on_c, 1, 68, 127
2, 57080, Note_on_c, 1, 75, 127
2, 57200, Note_on_c, 1, 73, 127
2, 57200, Note_off_c, 1, 75, 0
2, 57240, Note_off_c, 1, 73, 0
2, 57240, Note_on_c, 1, 76, 127
2, 57320, Note_off_c, 1, 76, 0
2, 57360, Note_off_c, 1, 51, 0
2, 57360, Note_off_c, 1, 56, 0
2, 57360, Note_off_c, 1, 64, 0
2, 57360, Note_off_c, 1, 68, 0
2, 57400, Note_on_c, 1, 51, 127
2, 57400, Note_on_c, 1, 56, 127
2, 57400, Note_on_c, 1, 64, 127
2, 57400, Note_on_c, 1, 68, 127
2, 57400, Note_on_c, 1, 75, 127
2, 57640, Note_off_c, 1, 75, 0
2, 57680, Note_off_c, 1, 51, 0
2, 57680, Note_off_c, 1, 56, 0
2, 57680, Note_off_c, 1, 64, 0
2, 57680, Note_off_c, 1, 68, 0
2, 57720, Note_on_c, 1, 46, 127
2, 57720, Note_on_c, 1, 70, 127
2, 57720, Note_on_c, 1, 74, 127
2, 57720, Note_on_c, 1, 79, 127
2, 57720, Note_on_c, 1, 82, 127
2, 57960, Note_on_c, 1, 43, 127
2, 57960, Note_off_c, 1, 46, 0
2, 57960, Note_off_c, 1, 70, 0
2, 57960, Note_off_c, 1, 74, 0
2, 57960, Note_off_c, 1, 79, 0
2, 57960, Note_off_c, 1, 82, 0
2, 58000, Note_off_c, 1, 43, 0
2, 58000, Note_on_c, 1, 46, 127
2, 58000, Note_on_c, 1, 70, 127
2, 58000, Note_on_c, 1, 74, 127
2, 58000, Note_on_c, 1, 79, 127
2, 58000, Note_on_c, 1, 82, 127
2, 58280, Note_off_c, 1, 46, 0
2, 58280, Note_off_c, 1, 70, 0
2, 58280, Note_off_c, 1, 74, 0
2, 58280, Note_off_c, 1, 79, 0
2, 58280, Note_off_c, 1, 82, 0
2, 58320, Note_on_c, 1, 56, 127
2, 58320, Note_on_c, 1, 65, 127
2, 58320, Note_on_c, 1, 68, 127
2, 58320, Note_on_c, 1, 71, 127
2, 58320, Note_on_c, 1, 77, 127
2, 58520, Note_off_c, 1, 56, 0
2, 58520, Note_on_c, 1, 57, 127
2, 58520, Note_off_c, 1, 68, 0
2, 58520, Note_on_c, 1, 69, 127
2, 58520, Note_off_c, 1, 71, 0
2, 58520, Note_on_c, 1, 72, 127
2, 58560, Note_off_c, 1, 57, 0
2, 58560, Note_off_c, 1, 65, 0
2, 58560, Note_off_c, 1, 69, 0
2, 58560, Note_off_c, 1, 72, 0
2, 58560, Note_off_c, 1, 77, 0
2, 58600, Note_on_c, 1, 56, 127
2, 58600, Note_on_c, 1, 65, 127
2, 58600, Note_on_c, 1, 68, 127
2, 58600, Note_on_c, 1, 71, 127
2, 58600, Note_on_c, 1, 77, 127
2, 58880, Note_off_c, 1, 56, 0
2, 58880, Note_off_c, 1, 65, 0
2, 58880, Note_off_c, 1, 68, 0
2, 58880, Note_off_c, 1, 71, 0
2, 58880, Note_off_c, 1, 77, 0
2, 58960, Note_on_c, 1, 35, 127
2, 58960, Note_on_c, 1, 47, 127
2, 58960, Note_on_c, 1, 64, 127
2, 58960, Note_on_c, 1, 68, 127
2, 58960, Note_on_c, 1, 71, 127
2, 58960, Note_on_c, 1, 76, 127
2, 59200, Note_off_c, 1, 35, 0
2, 59200, Note_off_c, 1, 47, 0
2, 59200, Note_off_c, 1, 64, 0
2, 59200, Note_off_c, 1, 68, 0
2, 59200, Note_off_c, 1, 71, 0
2, 59200, Note_off_c, 1, 76, 0
2, 59240, Note_on_c, 1, 42, 127
2, 59240, Note_on_c, 1, 47, 127
2, 59240, Note_on_c, 1, 54, 127
2, 59240, Note_on_c, 1, 63, 127
2, 59240, Note_on_c, 1, 69, 127
2, 59240, Note_on_c, 1, 71, 127
2, 59240, Note_on_c, 1, 75, 127
2, 59440, Note_on_c, 1, 40, 127
2, 59440, Note_off_c, 1, 42, 0
2, 59440, Note_on_c, 1, 52, 127
2, 59440, Note_off_c, 1, 54, 0
2, 59520, Note_off_c, 1, 40, 0
2, 59520, Note_off_c, 1, 47, 0
2, 59520, Note_off_c, 1, 52, 0
2, 59520, Note_off_c, 1, 63, 0
2, 59520, Note_off_c, 1, 69, 0
2, 59520, Note_off_c, 1, 71, 0
2, 59520, Note_off_c, 1, 75, 0
2, 59560, Note_on_c, 1, 40, 127
2, 59560, Note_on_c, 1, 47, 127
2, 59560, Note_on_c, 1, 52, 127
2, 59560, Note_on_c, 1, 63, 127
2, 59560, Note_on_c, 1, 69, 127
2, 59560, Note_on_c, 1, 71, 127
2, 59560, Note_on_c, 1, 75, 127
2, 60400, Note_off_c, 1, 40, 0
2, 60400, Note_off_c, 1, 47, 0
2, 60400, Note_off_c, 1, 52, 0
2, 60400, Note_off_c, 1, 63, 0
2, 60400, Note_off_c, 1, 69, 0
2, 60400, Note_off_c, 1, 71, 0
2, 60400, Note_off_c, 1, 75, 0
2, 60440, Note_on_c, 1, 36, 127
2, 60440, Note_on_c, 1, 45, 127
2, 60440, Note_on_c, 1, 53, 127
2, 60440, Note_on_c, 1, 64, 127
2, 60480, Note_off_c, 1, 64, 0
2, 60520, Note_on_c, 1, 60, 127
2, 60560, Note_off_c, 1, 60, 0
2, 60600, Note_on_c, 1, 64, 127
2, 60640, Note_off_c, 1, 64, 0
2, 60680, Note_on_c, 1, 64, 127
2, 60720, Note_off_c, 1, 45, 0
2, 60720, Note_off_c, 1, 53, 0
2, 60760, Note_off_c, 1, 36, 0
2, 60760, Note_on_c, 1, 58, 127
2, 60760, Note_on_c, 1, 61, 127
2, 60760, Note_on_c, 1, 63, 127
2, 60760, Note_off_c, 1, 64, 0
2, 60760, Note_on_c, 1, 67, 127
2, 60760, Note_on_c, 1, 70, 127
2, 60760, Note_on_c, 1, 75, 127
2, 60760, Note_on_c, 1, 82, 127
2, 60880, Note_off_c, 1, 58, 0
2, 60880, Note_off_c, 1, 61, 0
2, 60880, Note_off_c, 1, 63, 0
2, 60880, Note_off_c, 1, 67, 0
2, 60880, Note_off_c, 1, 70, 0
2, 60880, Note_off_c, 1, 75, 0
2, 60880, Note_off_c, 1, 82, 0
2, 60920, Note_on_c, 1, 70, 127
2, 60920, Note_on_c, 1, 74, 127
2, 60920, Note_on_c, 1, 78, 127
2, 60920, Note_on_c, 1, 82, 127
2, 60920, Note_on_c, 1, 86, 127
2, 60960, Note_on_c, 1, 51, 127
2, 60960, Note_on_c, 1, 61, 127
2, 60960, Note_off_c, 1, 70, 0
2, 60960, Note_off_c, 1, 74, 0
2, 60960, Note_on_c, 1, 81, 127
2, 60960, Note_off_c, 1, 82, 0
2, 60960, Note_off_c, 1, 86, 0
2, 61000, Note_off_c, 1, 51, 0
2, 61000, Note_off_c, 1, 61, 0
2, 61000, Note_off_c, 1, 78, 0
2, 61000, Note_off_c, 1, 81, 0
2, 61080, Note_on_c, 1, 56, 127
2, 61080, Note_on_c, 1, 68, 127
2, 61080, Note_on_c, 1, 74, 127
2, 61080, Note_on_c, 1, 86, 127
2, 61360, Note_off_c, 1, 56, 0
2, 61360, Note_off_c, 1, 68, 0
2, 61360, Note_off_c, 1, 74, 0
2, 61360, Note_off_c, 1, 86, 0
2, 61400, Note_on_c, 1, 56, 127
2, 61400, Note_on_c, 1, 68, 127
2, 61400, Note_on_c, 1, 74, 127
2, 61400, Note_on_c, 1, 86, 127
2, 61640, Note_off_c, 1, 56, 0
2, 61640, Note_off_c, 1, 68, 0
2, 61640, Note_off_c, 1, 74, 0
2, 61640, Note_off_c, 1, 86, 0
2, 61680, Note_on_c, 1, 45, 127
2, 61680, Note_on_c, 1, 71, 127
2, 61680, Note_on_c, 1, 80, 127
2, 61680, Note_on_c, 1, 83, 127
2, 61720, Note_off_c, 1, 45, 0
2, 61720, Note_on_c, 1, 47, 127
2, 61720, Note_on_c, 1, 54, 127
2, 61720, Note_on_c, 1, 59, 127
2, 61720, Note_on_c, 1, 62, 127
2, 61720, Note_on_c, 1, 68, 127
2, 61720, Note_off_c, 1, 71, 0
2, 61720, Note_off_c, 1, 80, 0
2, 61720, Note_off_c, 1, 83, 0
2, 61760, Note_on_c, 1, 45, 127
2, 61760, Note_off_c, 1, 47, 0
2, 61760, Note_off_c, 1, 54, 0
2, 61760, Note_off_c, 1, 59, 0
2, 61760, Note_off_c, 1, 62, 0
2, 61760, Note_off_c, 1, 68, 0
2, 61760, Note_on_c, 1, 71, 127
2, 61760, Note_on_c, 1, 80, 127
2, 61760, Note_on_c, 1, 83, 127
2, 61800, Note_off_c, 1, 45, 0
2, 61800, Note_on_c, 1, 68, 127
2, 61800, Note_on_c, 1, 76, 127
2, 61800, Note_on_c, 1, 88, 127
2, 61840, Note_on_c, 1, 33, 127
2, 61840, Note_on_c, 1, 40, 127
2, 61840, Note_on_c, 1, 45, 127
2, 61840, Note_off_c, 1, 68, 0
2, 61840, Note_off_c, 1, 71, 0
2, 61840, Note_off_c, 1, 80, 0
2, 61840, Note_off_c, 1, 83, 0
2, 61840, Note_on_c, 1, 84, 127
2, 61840, Note_off_c, 1, 88, 0
2, 61880, Note_off_c, 1, 33, 0
2, 61880, Note_off_c, 1, 40, 0
2, 61880, Note_off_c, 1, 45, 0
2, 61880, Note_on_c, 1, 68, 127
2, 61880, Note_off_c, 1, 76, 0
2, 61880, Note_off_c, 1, 84, 0
2, 61880, Note_on_c, 1, 89, 127
2, 61880, Note_on_c, 1, 97, 127
2, 61920, Note_off_c, 1, 68, 0
2, 61920, Note_off_c, 1, 89, 0
2, 61920, Note_off_c, 1, 97, 0
2, 61960, Note_on_c, 1, 50, 127
2, 61960, Note_on_c, 1, 54, 127
2, 61960, Note_on_c, 1, 57, 127
2, 61960, Note_on_c, 1, 62, 127
2, 62240, Note_off_c, 1, 50, 0
2, 62240, Note_off_c, 1, 54, 0
2, 62240, Note_off_c, 1, 57, 0
2, 62240, Note_off_c, 1, 62, 0
2, 62280, Note_on_c, 1, 45, 127
2, 62280, Note_on_c, 1, 57, 127
2, 62280, Note_on_c, 1, 61, 127
2, 62280, Note_on_c, 1, 66, 127
2, 62520, Note_off_c, 1, 45, 0
2, 62520, Note_off_c, 1, 57, 0
2, 62520, Note_off_c, 1, 61, 0
2, 62520, Note_off_c, 1, 66, 0
2, 62560, Note_on_c, 1, 33, 127
2, 62560, Note_on_c, 1, 57, 127
2, 62560, Note_on_c, 1, 61, 127
2, 62560, Note_on_c, 1, 66, 127
2, 62840, Note_off_c, 1, 33, 0
2, 62840, Note_off_c, 1, 57, 0
2, 62840, Note_off_c, 1, 61, 0
2, 62840, Note_off_c, 1, 66, 0
2, 62880, Note_on_c, 1, 33, 127
2, 62880, Note_on_c, 1, 57, 127
2, 62880, Note_on_c, 1, 61, 127
2, 62880, Note_on_c, 1, 66, 127
2, 63080, Note_off_c, 1, 33, 0
2, 63080, Note_off_c, 1, 57, 0
2, 63080, Note_off_c, 1, 61, 0
2, 63080, Note_off_c, 1, 66, 0
2, 63200, Note_on_c, 1, 50, 127
2, 63200, Note_on_c, 1, 52, 127
2, 63200, Note_on_c, 1, 59, 127
2, 63200, Note_on_c, 1, 68, 127
2, 63400, Note_off_c, 1, 50, 0
2, 63400, Note_off_c, 1, 52, 0
2, 63400, Note_off_c, 1, 59, 0
2, 63400, Note_off_c, 1, 68, 0
2, 63440, Note_on_c, 1, 50, 127
2, 63440, Note_on_c, 1, 52, 127
2, 63440, Note_on_c, 1, 59, 127
2, 63440, Note_on_c, 1, 68, 127
2, 63480, Note_off_c, 1, 50, 0
2, 63480, Note_off_c, 1, 52, 0
2, 63480, Note_off_c, 1, 59, 0
2, 63480, Note_off_c, 1, 68, 0
2, 63520, Note_on_c, 1, 40, 127
2, 63520, Note_on_c, 1, 52, 127
2, 63520, Note_on_c, 1, 68, 127
2, 63520, Note_on_c, 1, 71, 127
2, 63520, Note_on_c, 1, 76, 127
2, 64080, Note_off_c, 1, 40, 0
2, 64080, Note_off_c, 1, 52, 0
2, 64080, Note_off_c, 1, 68, 0
2, 64080, Note_off_c, 1, 71, 0
2, 64080, Note_off_c, 1, 76, 0
2, 64120, Note_on_c, 1, 35, 127
2, 64120, Note_on_c, 1, 47, 127
2, 64120, Note_on_c, 1, 71, 127
2, 64120, Note_on_c, 1, 75, 127
2, 64120, Note_on_c, 1, 78, 127
2, 64120, Note_on_c, 1, 81, 127
2, 64120, Note_on_c, 1, 83, 127
2, 64400, Note_off_c, 1, 35, 0
2, 64400, Note_off_c, 1, 47, 0
2, 64400, Note_off_c, 1, 71, 0
2, 64400, Note_off_c, 1, 75, 0
2, 64400, Note_off_c, 1, 78, 0
2, 64400, Note_off_c, 1, 81, 0
2, 64400, Note_off_c, 1, 83, 0
2, 64440, Note_on_c, 1, 35, 127
2, 64440, Note_on_c, 1, 47, 127
2, 64440, Note_on_c, 1, 71, 127
2, 64440, Note_on_c, 1, 75, 127
2, 64440, Note_on_c, 1, 78, 127
2, 64440, Note_on_c, 1, 81, 127
2, 64440, Note_on_c, 1, 83, 127
2, 64680, Note_off_c, 1, 35, 0
2, 64680, Note_off_c, 1, 47, 0
2, 64680, Note_off_c, 1, 71, 0
2, 64680, Note_off_c, 1, 75, 0
2, 64680, Note_off_c, 1, 78, 0
2, 64680, Note_off_c, 1, 81, 0
2, 64680, Note_off_c, 1, 83, 0
2, 64720, Note_on_c, 1, 35, 127
2, 64720, Note_on_c, 1, 47, 127
2, 64720, Note_on_c, 1, 71, 127
2, 64720, Note_on_c, 1, 75, 127
2, 64720, Note_on_c, 1, 78, 127
2, 64720, Note_on_c, 1, 81, 127
2, 64720, Note_on_c, 1, 83, 127
2, 65000, Note_off_c, 1, 35, 0
2, 65000, Note_off_c, 1, 47, 0
2, 65000, Note_off_c, 1, 71, 0
2, 65000, Note_off_c, 1, 75, 0
2, 65000, Note_off_c, 1, 78, 0
2, 65000, Note_off_c, 1, 81, 0
2, 65000, Note_off_c, 1, 83, 0
2, 65040, Note_on_c, 1, 47, 127
2, 65040, Note_on_c, 1, 54, 127
2, 65040, Note_on_c, 1, 75, 127
2, 65040, Note_on_c, 1, 78, 127
2, 65280, Note_off_c, 1, 47, 0
2, 65280, Note_off_c, 1, 54, 0
2, 65280, Note_off_c, 1, 75, 0
2, 65280, Note_off_c, 1, 78, 0
2, 65320, Note_on_c, 1, 52, 127
2, 65320, Note_on_c, 1, 55, 127
2, 65320, Note_on_c, 1, 58, 127
2, 65320, Note_on_c, 1, 64, 127
2, 65320, Note_on_c, 1, 76, 127
2, 65320, Note_on_c, 1, 79, 127
2, 65320, Note_on_c, 1, 82, 127
2, 65320, Note_on_c, 1, 88, 127
2, 65360, Note_off_c, 1, 52, 0
2, 65360, Note_off_c, 1, 55, 0
2, 65360, Note_on_c, 1, 57, 127
2, 65360, Note_off_c, 1, 58, 0
2, 65360, Note_on_c, 1, 59, 127
2, 65360, Note_off_c, 1, 64, 0
2, 65360, Note_on_c, 1, 66, 127
2, 65360, Note_on_c, 1, 69, 127
2, 65360, Note_off_c, 1, 76, 0
2, 65360, Note_on_c, 1, 78, 127
2, 65360, Note_off_c, 1, 79, 0
2, 65360, Note_off_c, 1, 82, 0
2, 65360, Note_off_c, 1, 88, 0
2, 65400, Note_on_c, 1, 39, 127
2, 65400, Note_on_c, 1, 53, 127
2, 65400, Note_off_c, 1, 57, 0
2, 65400, Note_off_c, 1, 59, 0
2, 65400, Note_off_c, 1, 66, 0
2, 65400, Note_on_c, 1, 68, 127
2, 65400, Note_off_c, 1, 69, 0
2, 65400, Note_on_c, 1, 72, 127
2, 65400, Note_off_c, 1, 78, 0
2, 65440, Note_on_c, 1, 46, 127
2, 65440, Note_on_c, 1, 51, 127
2, 65440, Note_off_c, 1, 53, 0
2, 65440, Note_off_c, 1, 68, 0
2, 65440, Note_off_c, 1, 72, 0
2, 65440, Note_on_c, 1, 82, 127
2, 65440, Note_on_c, 1, 87, 127
2, 65480, Note_off_c, 1, 39, 0
2, 65480, Note_on_c, 1, 44, 127
2, 65480, Note_off_c, 1, 46, 0
2, 65480, Note_on_c, 1, 65, 127
2, 65480, Note_on_c, 1, 77, 127
2, 65480, Note_off_c, 1, 82, 0
2, 65480, Note_off_c, 1, 87, 0
2, 65520, Note_off_c, 1, 44, 0
2, 65520, Note_on_c, 1, 48, 127
2, 65520, Note_off_c, 1, 51, 0
2, 65520, Note_on_c, 1, 56, 127
2, 65520, Note_off_c, 1, 65, 0
2, 65520, Note_on_c, 1, 75, 127
2, 65520, Note_off_c, 1, 77, 0
2, 65520, Note_on_c, 1, 80, 127
2, 65520, Note_on_c, 1, 87, 127
2, 65560, Note_off_c, 1, 48, 0
2, 65560, Note_on_c, 1, 52, 127
2, 65560, Note_off_c, 1, 56, 0
2, 65560, Note_on_c, 1, 59, 127
2, 65560, Note_on_c, 1, 68, 127
2, 65560, Note_on_c, 1, 71, 127
2, 65560, Note_on_c, 1, 73, 127
2, 65560, Note_off_c, 1, 75, 0
2, 65560, Note_off_c, 1, 87, 0
2, 65600, Note_off_c, 1, 52, 0
2, 65600, Note_off_c, 1, 59, 0
2, 65600, Note_off_c, 1, 68, 0
2, 65600, Note_off_c, 1, 71, 0
2, 65600, Note_off_c, 1, 73, 0
2, 65600, Note_off_c, 1, 80, 0
2, 65680, Note_on_c, 1, 47, 127
2, 65680, Note_on_c, 1, 52, 127
2, 65680, Note_on_c, 1, 59, 127
2, 65680, Note_on_c, 1, 68, 127
2, 65680, Note_on_c, 1, 71, 127
2, 65920, Note_off_c, 1, 47, 0
2, 65920, Note_off_c, 1, 52, 0
2, 65920, Note_off_c, 1, 59, 0
2, 65920, Note_off_c, 1, 68, 0
2, 65920, Note_off_c, 1, 71, 0
2, 65960, Note_on_c, 1, 54, 127
2, 65960, Note_on_c, 1, 59, 127
2, 65960, Note_on_c, 1, 70, 127
2, 65960, Note_on_c, 1, 82, 127
2, 66240, Note_off_c, 1, 54, 0
2, 66240, Note_off_c, 1, 59, 0
2, 66240, Note_off_c, 1, 70, 0
2, 66240, Note_off_c, 1, 82, 0
2, 66280, Note_on_c, 1, 42, 127
2, 66280, Note_on_c, 1, 54, 127
2, 66280, Note_on_c, 1, 57, 127
2, 66280, Note_on_c, 1, 61, 127
2, 66280, Note_on_c, 1, 66, 127
2, 66520, Note_off_c, 1, 42, 0
2, 66520, Note_off_c, 1, 54, 0
2, 66520, Note_off_c, 1, 57, 0
2, 66520, Note_off_c, 1, 61, 0
2, 66520, Note_off_c, 1, 66, 0
2, 66560, Note_on_c, 1, 42, 127
2, 66560, Note_on_c, 1, 49, 127
2, 66560, Note_on_c, 1, 57, 127
2, 66560, Note_on_c, 1, 61, 127
2, 66600, Note_off_c, 1, 61, 0
2, 66600, Note_on_c, 1, 69, 127
2, 67120, Note_off_c, 1, 42, 0
2, 67120, Note_off_c, 1, 49, 0
2, 67120, Note_off_c, 1, 57, 0
2, 67120, Note_off_c, 1, 69, 0
2, 67160, Note_on_c, 1, 45, 127
2, 67160, Note_on_c, 1, 53, 127
2, 67160, Note_on_c, 1, 57, 127
2, 67160, Note_on_c, 1, 60, 127
2, 67440, Note_on_c, 1, 42, 127
2, 67440, Note_off_c, 1, 45, 0
2, 67440, Note_off_c, 1, 53, 0
2, 67440, Note_on_c, 1, 54, 127
2, 67440, Note_off_c, 1, 57, 0
2, 67440, Note_off_c, 1, 60, 0
2, 67440, Note_on_c, 1, 69, 127
2, 67480, Note_off_c, 1, 42, 0
2, 67480, Note_off_c, 1, 54, 0
2, 67480, Note_on_c, 1, 64, 127
2, 67480, Note_on_c, 1, 67, 127
2, 67480, Note_off_c, 1, 69, 0
2, 67480, Note_on_c, 1, 77, 127
2, 67480, Note_on_c, 1, 81, 127
2, 67560, Note_off_c, 1, 64, 0
2, 67560, Note_off_c, 1, 67, 0
2, 67560, Note_off_c, 1, 77, 0
2, 67560, Note_off_c, 1, 81, 0
2, 67600, Note_on_c, 1, 39, 127
2, 67600, Note_on_c, 1, 51, 127
2, 67600, Note_on_c, 1, 86, 127
2, 67600, Note_on_c, 1, 92, 127
2, 67640, Note_off_c, 1, 39, 0
2, 67640, Note_off_c, 1, 51, 0
2, 67640, Note_off_c, 1, 86, 0
2, 67640, Note_off_c, 1, 92, 0
2, 67680, Note_on_c, 1, 28, 127
2, 67680, Note_on_c, 1, 40, 127
2, 67680, Note_on_c, 1, 43, 127
2, 67680, Note_on_c, 1, 46, 127
2, 67680, Note_on_c, 1, 50, 127
2, 67680, Note_on_c, 1, 52, 127
2, 67680, Note_on_c, 1, 55, 127
2, 67680, Note_on_c, 1, 58, 127
2, 67680, Note_on_c, 1, 62, 127
2, 67680, Note_on_c, 1, 67, 127
2, 67720, Note_off_c, 1, 28, 0
2, 67720, Note_off_c, 1, 40, 0
2, 67720, Note_off_c, 1, 43, 0
2, 67720, Note_off_c, 1, 46, 0
2, 67720, Note_off_c, 1, 50, 0
2, 67720, Note_off_c, 1, 52, 0
2, 67720, Note_off_c, 1, 55, 0
2, 67720, Note_off_c, 1, 58, 0
2, 67720, Note_on_c, 1, 61, 127
2, 67720, Note_off_c, 1, 62, 0
2, 67720, Note_on_c, 1, 66, 127
2, 67720, Note_off_c, 1, 67, 0
2, 67720, Note_on_c, 1, 70, 127
2, 67720, Note_on_c, 1, 77, 127
2, 67720, Note_on_c, 1, 82, 127
2, 67760, Note_off_c, 1, 61, 0
2, 67760, Note_off_c, 1, 66, 0
2, 67760, Note_off_c, 1, 70, 0
2, 67760, Note_off_c, 1, 77, 0
2, 67760, Note_off_c, 1, 82, 0
2, 67800, Note_on_c, 1, 37, 127
2, 67800, Note_on_c, 1, 44, 127
2, 67800, Note_on_c, 1, 87, 127
2, 67800, Note_on_c, 1, 90, 127
2, 68080, Note_off_c, 1, 37, 0
2, 68080, Note_off_c, 1, 87, 0
2, 68080, Note_off_c, 1, 90, 0
2, 68120, Note_off_c, 1, 44, 0
2, 68120, Note_on_c, 1, 52, 127
2, 68120, Note_on_c, 1, 59, 127
2, 68120, Note_on_c, 1, 67, 127
2, 68120, Note_on_c, 1, 71, 127
2, 68120, Note_on_c, 1, 76, 127
2, 68120, Note_on_c, 1, 79, 127
2, 68360, Note_off_c, 1, 52, 0
2, 68360, Note_off_c, 1, 59, 0
2, 68360, Note_off_c, 1, 67, 0
2, 68360, Note_off_c, 1, 71, 0
2, 68360, Note_off_c, 1, 76, 0
2, 68360, Note_off_c, 1, 79, 0
2, 68400, Note_on_c, 1, 45, 127
2, 68400, Note_on_c, 1, 53, 127
2, 68400, Note_on_c, 1, 64, 127
2, 68680, Note_off_c, 1, 45, 0
2, 68680, Note_off_c, 1, 53, 0
2, 68680, Note_off_c, 1, 64, 0
2, 68720, Note_on_c, 1, 49, 127
2, 68720, Note_on_c, 1, 55, 127
2, 68720, Note_on_c, 1, 61, 127
2, 68720, Note_on_c, 1, 67, 127
2, 68720, Note_on_c, 1, 70, 127
2, 68720, Note_on_c, 1, 79, 127
2, 68960, Note_off_c, 1, 49, 0
2, 68960, Note_off_c, 1, 55, 0
2, 68960, Note_off_c, 1, 61, 0
2, 68960, Note_off_c, 1, 67, 0
2, 68960, Note_off_c, 1, 70, 0
2, 68960, Note_off_c, 1, 79, 0
2, 69040, Note_on_c, 1, 41, 127
2, 69040, Note_on_c, 1, 63, 127
2, 69040, Note_on_c, 1, 65, 127
2, 69040, Note_on_c, 1, 69, 127
2, 69040, Note_on_c, 1, 74, 127
2, 69040, Note_on_c, 1, 77, 127
2, 69600, Note_off_c, 1, 41, 0
2, 69600, Note_off_c, 1, 63, 0
2, 69600, Note_off_c, 1, 65, 0
2, 69600, Note_off_c, 1, 69, 0
2, 69600, Note_off_c, 1, 74, 0
2, 69600, Note_off_c, 1, 77, 0
2, 69640, Note_on_c, 1, 44, 127
2, 69640, Note_on_c, 1, 52, 127
2, 69640, Note_on_c, 1, 56, 127
2, 69640, Note_on_c, 1, 64, 127
2, 69640, Note_on_c, 1, 68, 127
2, 69640, Note_on_c, 1, 73, 127
2, 69640, Note_on_c, 1, 76, 127
2, 69800, Note_off_c, 1, 44, 0
2, 69800, Note_off_c, 1, 52, 0
2, 69800, Note_off_c, 1, 56, 0
2, 69800, Note_off_c, 1, 64, 0
2, 69800, Note_off_c, 1, 68, 0
2, 69800, Note_off_c, 1, 73, 0
2, 69800, Note_off_c, 1, 76, 0
2, 69840, Note_on_c, 1, 44, 127
2, 69840, Note_on_c, 1, 52, 127
2, 69840, Note_on_c, 1, 56, 127
2, 69840, Note_on_c, 1, 64, 127
2, 69840, Note_on_c, 1, 68, 127
2, 69840, Note_on_c, 1, 73, 127
2, 69840, Note_on_c, 1, 76, 127
2, 70080, Note_off_c, 1, 44, 0
2, 70080, Note_off_c, 1, 52, 0
2, 70080, Note_on_c, 1, 54, 127
2, 70080, Note_off_c, 1, 56, 0
2, 70080, Note_off_c, 1, 64, 0
2, 70080, Note_off_c, 1, 68, 0
2, 70080, Note_off_c, 1, 73, 0
2, 70080, Note_on_c, 1, 88, 127
2, 70120, Note_on_c, 1, 46, 127
2, 70120, Note_on_c, 1, 49, 127
2, 70120, Note_off_c, 1, 54, 0
2, 70120, Note_on_c, 1, 65, 127
2, 70120, Note_on_c, 1, 73, 127
2, 70120, Note_off_c, 1, 76, 0
2, 70120, Note_off_c, 1, 88, 0
2, 70200, Note_off_c, 1, 46, 0
2, 70200, Note_off_c, 1, 49, 0
2, 70200, Note_off_c, 1, 65, 0
2, 70200, Note_off_c, 1, 73, 0
2, 70240, Note_on_c, 1, 46, 127
2, 70240, Note_on_c, 1, 49, 127
2, 70240, Note_on_c, 1, 65, 127
2, 70240, Note_on_c, 1, 73, 127
2, 70520, Note_off_c, 1, 46, 0
2, 70520, Note_off_c, 1, 49, 0
2, 70520, Note_off_c, 1, 65, 0
2, 70520, Note_off_c, 1, 73, 0
2, 70560, Note_on_c, 1, 46, 127
2, 70560, Note_on_c, 1, 53, 127
2, 70560, Note_on_c, 1, 61, 127
2, 70560, Note_on_c, 1, 73, 127
2, 70680, Note_off_c, 1, 73, 0
2, 70720, Note_on_c, 1, 72, 127
2, 70800, Note_off_c, 1, 72, 0
2, 70840, Note_off_c, 1, 53, 0
2, 70840, Note_on_c, 1, 54, 127
2, 70840, Note_off_c, 1, 61, 0
2, 70840, Note_on_c, 1, 63, 127
2, 70840, Note_on_c, 1, 73, 127
2, 71080, Note_off_c, 1, 54, 0
2, 71080, Note_off_c, 1, 63, 0
2, 71080, Note_off_c, 1, 73, 0
2, 71120, Note_on_c, 1, 54, 127
2, 71120, Note_on_c, 1, 63, 127
2, 71280, Note_on_c, 1, 44, 127
2, 71280, Note_off_c, 1, 46, 0
2, 71280, Note_on_c, 1, 51, 127
2, 71280, Note_off_c, 1, 54, 0
2, 71280, Note_off_c, 1, 63, 0
2, 71280, Note_on_c, 1, 71, 127
2, 71280, Note_on_c, 1, 75, 127
2, 71280, Note_on_c, 1, 80, 127
2, 71400, Note_off_c, 1, 51, 0
2, 71400, Note_off_c, 1, 71, 0
2, 71400, Note_on_c, 1, 73, 127
2, 71400, Note_off_c, 1, 75, 0
2, 71400, Note_off_c, 1, 80, 0
2, 71440, Note_off_c, 1, 44, 0
2, 71440, Note_on_c, 1, 51, 127
2, 71440, Note_on_c, 1, 58, 127
2, 71440, Note_on_c, 1, 66, 127
2, 71440, Note_off_c, 1, 73, 0
2, 71440, Note_on_c, 1, 75, 127
2, 71680, Note_off_c, 1, 58, 0
2, 71720, Note_on_c, 1, 58, 127
2, 72000, Note_off_c, 1, 51, 0
2, 72000, Note_off_c, 1, 58, 0
2, 72000, Note_off_c, 1, 66, 0
2, 72000, Note_off_c, 1, 75, 0
2, 72080, Note_on_c, 1, 46, 127
2, 72080, Note_on_c, 1, 58, 127
2, 72080, Note_on_c, 1, 65, 127
2, 72080, Note_on_c, 1, 70, 127
2, 72080, Note_on_c, 1, 74, 127
2, 72320, Note_off_c, 1, 46, 0
2, 72320, Note_off_c, 1, 58, 0
2, 72320, Note_off_c, 1, 65, 0
2, 72320, Note_off_c, 1, 70, 0
2, 72320, Note_off_c, 1, 74, 0
2, 72400, Note_on_c, 1, 63, 127
2, 72400, Note_on_c, 1, 67, 127
2, 72400, Note_on_c, 1, 70, 127
2, 72400, Note_on_c, 1, 74, 127
2, 72960, Note_off_c, 1, 63, 0
2, 72960, Note_off_c, 1, 67, 0
2, 72960, Note_off_c, 1, 70, 0
2, 72960, Note_off_c, 1, 74, 0
2, 73000, Note_on_c, 1, 58, 127
2, 73000, Note_on_c, 1, 65, 127
2, 73000, Note_on_c, 1, 67, 127
2, 73000, Note_on_c, 1, 73, 127
2, 73440, Note_off_c, 1, 58, 0
2, 73440, Note_off_c, 1, 65, 0
2, 73440, Note_off_c, 1, 67, 0
2, 73440, Note_off_c, 1, 73, 0
2, 73480, Note_on_c, 1, 53, 127
2, 73480, Note_on_c, 1, 60, 127
2, 73560, Note_off_c, 1, 53, 0
2, 73560, Note_off_c, 1, 60, 0
2, 73600, Note_on_c, 1, 53, 127
2, 73600, Note_on_c, 1, 60, 127
2, 73600, Note_on_c, 1, 65, 127
2, 73600, Note_on_c, 1, 69, 127
2, 74200, Note_off_c, 1, 53, 0
2, 74200, Note_off_c, 1, 60, 0
2, 74200, Note_off_c, 1, 65, 0
2, 74200, Note_off_c, 1, 69, 0
2, 74240, Note_on_c, 1, 53, 127
2, 74240, Note_on_c, 1, 60, 127
2, 74240, Note_on_c, 1, 65, 127
2, 74240, Note_on_c, 1, 72, 127
2, 74280, Note_off_c, 1, 53, 0
2, 74280, Note_off_c, 1, 60, 0
2, 74280, Note_on_c, 1, 70, 127
2, 74280, Note_off_c, 1, 72, 0
2, 74280, Note_on_c, 1, 82, 127
2, 74320, Note_off_c, 1, 65, 0
2, 74320, Note_off_c, 1, 70, 0
2, 74320, Note_off_c, 1, 82, 0
2, 74360, Note_on_c, 1, 65, 127
2, 74360, Note_on_c, 1, 70, 127
2, 74360, Note_on_c, 1, 82, 127
2, 74520, Note_off_c, 1, 82, 0
2, 74560, Note_on_c, 1, 45, 127
2, 74560, Note_on_c, 1, 49, 127
2, 74560, Note_on_c, 1, 52, 127
2, 74560, Note_on_c, 1, 57, 127
2, 74560, Note_off_c, 1, 65, 0
2, 74560, Note_off_c, 1, 70, 0
2, 74560, Note_on_c, 1, 74, 127
2, 74600, Note_on_c, 1, 43, 127
2, 74600, Note_off_c, 1, 45, 0
2, 74600, Note_off_c, 1, 49, 0
2, 74600, Note_on_c, 1, 50, 127
2, 74600, Note_off_c, 1, 52, 0
2, 74600, Note_on_c, 1, 55, 127
2, 74600, Note_off_c, 1, 57, 0
2, 74600, Note_on_c, 1, 59, 127
2, 74600, Note_off_c, 1, 74, 0
2, 74600, Note_on_c, 1, 95, 127
2, 74640, Note_on_c, 1, 34, 127
2, 74640, Note_off_c, 1, 43, 0
2, 74640, Note_on_c, 1, 46, 127
2, 74640, Note_off_c, 1, 50, 0
2, 74640, Note_off_c, 1, 55, 0
2, 74640, Note_off_c, 1, 59, 0
2, 74640, Note_on_c, 1, 60, 127
2, 74640, Note_on_c, 1, 63, 127
2, 74640, Note_on_c, 1, 66, 127
2, 74640, Note_on_c, 1, 69, 127
2, 74640, Note_off_c, 1, 95, 0
2, 74680, Note_off_c, 1, 34, 0
2, 74680, Note_on_c, 1, 35, 127
2, 74680, Note_off_c, 1, 46, 0
2, 74680, Note_on_c, 1, 47, 127
2, 74680, Note_on_c, 1, 52, 127
2, 74680, Note_on_c, 1, 59, 127
2, 74680, Note_off_c, 1, 60, 0
2, 74680, Note_off_c, 1, 63, 0
2, 74680, Note_off_c, 1, 66, 0
2, 74680, Note_off_c, 1, 69, 0
2, 74720, Note_off_c, 1, 35, 0
2, 74720, Note_off_c, 1, 47, 0
2, 74720, Note_off_c, 1, 52, 0
2, 74720, Note_on_c, 1, 55, 127
2, 74720, Note_on_c, 1, 58, 127
2, 74720, Note_off_c, 1, 59, 0
2, 74720, Note_on_c, 1, 62, 127
2, 74720, Note_on_c, 1, 67, 127
2, 74720, Note_on_c, 1, 70, 127
2, 74760, Note_off_c, 1, 55, 0
2, 74760, Note_off_c, 1, 58, 0
2, 74760, Note_off_c, 1, 67, 0
2, 74760, Note_on_c, 1, 69, 127
2, 74760, Note_off_c, 1, 70, 0
2, 74760, Note_on_c, 1, 72, 127
2, 74760, Note_on_c, 1, 83, 127
2, 74800, Note_on_c, 1, 50, 127
2, 74800, Note_on_c, 1, 52, 127
2, 74800, Note_on_c, 1, 59, 127
2, 74800, Note_off_c, 1, 62, 0
2, 74800, Note_on_c, 1, 64, 127
2, 74800, Note_off_c, 1, 69, 0
2, 74800, Note_off_c, 1, 72, 0
2, 74800, Note_off_c, 1, 83, 0
2, 74840, Note_off_c, 1, 50, 0
2, 74840, Note_off_c, 1, 52, 0
2, 74840, Note_off_c, 1, 59, 0
2, 74840, Note_off_c, 1, 64, 0
2, 74880, Note_on_c, 1, 34, 127
2, 74880, Note_on_c, 1, 53, 127
2, 74880, Note_on_c, 1, 70, 127
2, 74880, Note_on_c, 1, 72, 127
2, 74920, Note_on_c, 1, 28, 127
2, 74920, Note_off_c, 1, 34, 0
2, 74920, Note_on_c, 1, 39, 127
2, 74920, Note_on_c, 1, 40, 127
2, 74920, Note_on_c, 1, 47, 127
2, 74920, Note_on_c, 1, 51, 127
2, 74920, Note_on_c, 1, 52, 127
2, 74920, Note_off_c, 1, 53, 0
2, 74920, Note_on_c, 1, 59, 127
2, 74920, Note_on_c, 1, 68, 127
2, 74920, Note_off_c, 1, 70, 0
2, 74920, Note_on_c, 1, 71, 127
2, 74920, Note_off_c, 1, 72, 0
2, 74960, Note_off_c, 1, 28, 0
2, 74960, Note_on_c, 1, 34, 127
2, 74960, Note_off_c, 1, 39, 0
2, 74960, Note_off_c, 1, 40, 0
2, 74960, Note_off_c, 1, 47, 0
2, 74960, Note_off_c, 1, 51, 0
2, 74960, Note_off_c, 1, 52, 0
2, 74960, Note_on_c, 1, 53, 127
2, 74960, Note_off_c, 1, 59, 0
2, 74960, Note_off_c, 1, 68, 0
2, 74960, Note_on_c, 1, 70, 127
2, 74960, Note_off_c, 1, 71, 0
2, 74960, Note_on_c, 1, 72, 127
2, 75000, Note_off_c, 1, 72, 0
2, 75040, Note_on_c, 1, 72, 127
2, 75080, Note_off_c, 1, 72, 0
2, 75120, Note_off_c, 1, 34, 0
2, 75120, Note_on_c, 1, 50, 127
2, 75120, Note_off_c, 1, 53, 0
2, 75120, Note_on_c, 1, 57, 127
2, 75120, Note_on_c, 1, 63, 127
2, 75120, Note_on_c, 1, 66, 127
2, 75120, Note_on_c, 1, 69, 127
2, 75120, Note_off_c, 1, 70, 0
2, 75120, Note_on_c, 1, 75, 127
2, 75160, Note_off_c, 1, 50, 0
2, 75160, Note_off_c, 1, 57, 0
2, 75160, Note_off_c, 1, 63, 0
2, 75160, Note_off_c, 1, 66, 0
2, 75160, Note_off_c, 1, 69, 0
2, 75160, Note_off_c, 1, 75, 0
2, 75200, Note_on_c, 1, 53, 127
2, 75200, Note_on_c, 1, 60, 127
2, 75200, Note_on_c, 1, 65, 127
2, 75200, Note_on_c, 1, 69, 127
2, 75200, Note_on_c, 1, 75, 127
2, 75440, Note_off_c, 1, 53, 0
2, 75440, Note_off_c, 1, 60, 0
2, 75440, Note_off_c, 1, 65, 0
2, 75440, Note_off_c, 1, 69, 0
2, 75440, Note_off_c, 1, 75, 0
2, 75480, Note_on_c, 1, 53, 127
2, 75480, Note_on_c, 1, 64, 127
2, 75480, Note_on_c, 1, 72, 127
2, 75760, Note_off_c, 1, 64, 0
2, 75760, Note_off_c, 1, 72, 0
2, 75800, Note_on_c, 1, 37, 127
2, 75800, Note_off_c, 1, 53, 0
2, 75800, Note_on_c, 1, 60, 127
2, 75800, Note_on_c, 1, 75, 127
2, 76040, Note_off_c, 1, 37, 0
2, 76040, Note_on_c, 1, 51, 127
2, 76040, Note_off_c, 1, 60, 0
2, 76040, Note_on_c, 1, 62, 127
2, 76040, Note_on_c, 1, 65, 127
2, 76040, Note_off_c, 1, 75, 0
2, 76080, Note_on_c, 1, 37, 127
2, 76080, Note_off_c, 1, 51, 0
2, 76080, Note_on_c, 1, 58, 127
2, 76080, Note_off_c, 1, 62, 0
2, 76080, Note_off_c, 1, 65, 0
2, 76080, Note_on_c, 1, 73, 127
2, 76080, Note_on_c, 1, 75, 127
2, 76200, Note_off_c, 1, 37, 0
2, 76200, Note_on_c, 1, 56, 127
2, 76200, Note_on_c, 1, 61, 127
2, 76200, Note_on_c, 1, 64, 127
2, 76200, Note_on_c, 1, 68, 127
2, 76200, Note_off_c, 1, 73, 0
2, 76200, Note_off_c, 1, 75, 0
2, 76240, Note_on_c, 1, 32, 127
2, 76240, Note_on_c, 1, 44, 127
2, 76240, Note_on_c, 1, 51, 127
2, 76240, Note_on_c, 1, 55, 127
2, 76240, Note_off_c, 1, 56, 0
2, 76240, Note_off_c, 1, 58, 0
2, 76240, Note_on_c, 1, 60, 127
2, 76240, Note_off_c, 1, 61, 0
2, 76240, Note_off_c, 1, 64, 0
2, 76240, Note_off_c, 1, 68, 0
2, 76280, Note_off_c, 1, 32, 0
2, 76280, Note_off_c, 1, 44, 0
2, 76280, Note_on_c, 1, 49, 127
2, 76280, Note_off_c, 1, 51, 0
2, 76280, Note_on_c, 1, 52, 127
2, 76280, Note_off_c, 1, 55, 0
2, 76280, Note_on_c, 1, 56, 127
2, 76280, Note_off_c, 1, 60, 0
2, 76280, Note_on_c, 1, 64, 127
2, 76280, Note_on_c, 1, 68, 127
2, 76280, Note_on_c, 1, 76, 127
2, 76320, Note_off_c, 1, 49, 0
2, 76320, Note_off_c, 1, 52, 0
2, 76320, Note_off_c, 1, 56, 0
2, 76320, Note_off_c, 1, 64, 0
2, 76320, Note_off_c, 1, 68, 0
2, 76320, Note_off_c, 1, 76, 0
2, 76440, Note_on_c, 1, 72, 127
2, 76440, Note_on_c, 1, 84, 127
2, 76440, Note_on_c, 1, 89, 127
2, 76440, Note_on_c, 1, 93, 127
2, 76440, Note_on_c, 1, 96, 127
2, 76640, Note_on_c, 1, 60, 127
2, 76640, Note_on_c, 1, 67, 127
2, 76640, Note_on_c, 1, 71, 127
2, 76640, Note_off_c, 1, 72, 0
2, 76640, Note_on_c, 1, 74, 127
2, 76640, Note_off_c, 1, 84, 0
2, 76640, Note_off_c, 1, 89, 0
2, 76640, Note_off_c, 1, 93, 0
2, 76640, Note_off_c, 1, 96, 0
2, 76680, Note_off_c, 1, 60, 0
2, 76680, Note_off_c, 1, 67, 0
2, 76680, Note_off_c, 1, 71, 0
2, 76680, Note_on_c, 1, 72, 127
2, 76680, Note_off_c, 1, 74, 0
2, 76720, Note_on_c, 1, 44, 127
2, 76720, Note_on_c, 1, 50, 127
2, 76720, Note_on_c, 1, 68, 127
2, 76960, Note_on_c, 1, 38, 127
2, 76960, Note_on_c, 1, 43, 127
2, 76960, Note_off_c, 1, 44, 0
2, 76960, Note_off_c, 1, 50, 0
2, 76960, Note_on_c, 1, 67, 127
2, 76960, Note_off_c, 1, 68, 0
2, 76960, Note_off_c, 1, 72, 0
2, 76960, Note_on_c, 1, 79, 127
2, 77000, Note_off_c, 1, 38, 0
2, 77000, Note_off_c, 1, 43, 0
2, 77000, Note_off_c, 1, 67, 0
2, 77000, Note_off_c, 1, 79, 0
2, 77040, Note_on_c, 1, 38, 127
2, 77040, Note_on_c, 1, 50, 127
2, 77040, Note_on_c, 1, 73, 127
2, 77040, Note_on_c, 1, 79, 127
2, 77040, Note_on_c, 1, 81, 127
2, 77120, Note_off_c, 1, 38, 0
2, 77120, Note_on_c, 1, 48, 127
2, 77120, Note_on_c, 1, 54, 127
2, 77120, Note_on_c, 1, 57, 127
2, 77120, Note_off_c, 1, 73, 0
2, 77120, Note_off_c, 1, 79, 0
2, 77120, Note_off_c, 1, 81, 0
2, 77160, Note_off_c, 1, 50, 0
2, 77160, Note_on_c, 1, 51, 127
2, 77160, Note_off_c, 1, 54, 0
2, 77160, Note_on_c, 1, 56, 127
2, 77160, Note_off_c, 1, 57, 0
2, 77160, Note_on_c, 1, 60, 127
2, 77200, Note_off_c, 1, 48, 0
2, 77200, Note_off_c, 1, 56, 0
2, 77200, Note_on_c, 1, 58, 127
2, 77200, Note_off_c, 1, 60, 0
2, 77200, Note_on_c, 1, 63, 127
2, 77200, Note_on_c, 1, 67, 127
2, 77200, Note_on_c, 1, 79, 127
2, 77280, Note_off_c, 1, 51, 0
2, 77280, Note_on_c, 1, 53, 127
2, 77280, Note_off_c, 1, 58, 0
2, 77280, Note_off_c, 1, 63, 0
2, 77280, Note_off_c, 1, 67, 0
2, 77280, Note_off_c, 1, 79, 0
2, 77320, Note_off_c, 1, 53, 0
2, 77360, Note_on_c, 1, 50, 127
2, 77360, Note_on_c, 1, 56, 127
2, 77360, Note_on_c, 1, 59, 127
2, 77360, Note_on_c, 1, 65, 127
2, 77360, Note_on_c, 1, 75, 127
2, 77360, Note_on_c, 1, 87, 127
2, 77400, Note_off_c, 1, 56, 0
2, 77400, Note_off_c, 1, 65, 0
2, 77400, Note_off_c, 1, 75, 0
2, 77400, Note_on_c, 1, 78, 127
2, 77400, Note_on_c, 1, 80, 127
2, 77400, Note_off_c, 1, 87, 0
2, 77440, Note_on_c, 1, 46, 127
2, 77440, Note_off_c, 1, 50, 0
2, 77440, Note_off_c, 1, 59, 0
2, 77440, Note_on_c, 1, 61, 127
2, 77440, Note_on_c, 1, 67, 127
2, 77440, Note_on_c, 1, 70, 127
2, 77440, Note_off_c, 1, 78, 0
2, 77440, Note_on_c, 1, 79, 127
2, 77440, Note_off_c, 1, 80, 0
2, 77480, Note_on_c, 1, 41, 127
2, 77480, Note_off_c, 1, 46, 0
2, 77480, Note_on_c, 1, 53, 127
2, 77480, Note_off_c, 1, 61, 0
2, 77480, Note_on_c, 1, 65, 127
2, 77480, Note_off_c, 1, 67, 0
2, 77480, Note_off_c, 1, 70, 0
2, 77480, Note_on_c, 1, 71, 127
2, 77480, Note_on_c, 1, 74, 127
2, 77480, Note_off_c, 1, 79, 0
2, 77520, Note_off_c, 1, 41, 0
2, 77520, Note_off_c, 1, 53, 0
2, 77520, Note_off_c, 1, 65, 0
2, 77520, Note_off_c, 1, 74, 0
2, 77520, Note_on_c, 1, 75, 127
2, 77520, Note_on_c, 1, 83, 127
2, 77520, Note_on_c, 1, 91, 127
2, 77520, Note_on_c, 1, 99, 127
2, 77520, Note_on_c, 1, 103, 127
2, 77560, Note_on_c, 1, 29, 127
2, 77560, Note_on_c, 1, 41, 127
2, 77560, Note_on_c, 1, 65, 127
2, 77560, Note_on_c, 1, 69, 127
2, 77560, Note_off_c, 1, 71, 0
2, 77560, Note_on_c, 1, 74, 127
2, 77560, Note_off_c, 1, 75, 0
2, 77560, Note_on_c, 1, 77, 127
2, 77560, Note_off_c, 1, 83, 0
2, 77560, Note_off_c, 1, 91, 0
2, 77560, Note_off_c, 1, 99, 0
2, 77560, Note_off_c, 1, 103, 0
2, 77600, Note_off_c, 1, 29, 0
2, 77600, Note_off_c, 1, 41, 0
2, 77600, Note_on_c, 1, 48, 127
2, 77600, Note_on_c, 1, 52, 127
2, 77600, Note_on_c, 1, 60, 127
2, 77600, Note_off_c, 1, 65, 0
2, 77600, Note_off_c, 1, 69, 0
2, 77600, Note_on_c, 1, 71, 127
2, 77600, Note_off_c, 1, 74, 0
2, 77600, Note_on_c, 1, 76, 127
2, 77600, Note_off_c, 1, 77, 0
2, 77640, Note_off_c, 1, 48, 0
2, 77640, Note_off_c, 1, 52, 0
2, 77640, Note_off_c, 1, 60, 0
2, 77640, Note_off_c, 1, 71, 0
2, 77640, Note_off_c, 1, 76, 0
2, 77680, Note_on_c, 1, 36, 127
2, 77680, Note_on_c, 1, 48, 127
2, 77680, Note_on_c, 1, 78, 127
2, 77680, Note_on_c, 1, 80, 127
2, 77680, Note_on_c, 1, 84, 127
2, 77680, Note_on_c, 1, 87, 127
2, 77680, Note_on_c, 1, 92, 127
2, 78080, Note_off_c, 1, 36, 0
2, 78080, Note_off_c, 1, 48, 0
2, 78080, Note_off_c, 1, 78, 0
2, 78080, Note_off_c, 1, 80, 0
2, 78080, Note_off_c, 1, 84, 0
2, 78080, Note_off_c, 1, 87, 0
2, 78080, Note_off_c, 1, 92, 0
2, 78120, Note_on_c, 1, 53, 127
2, 78120, Note_on_c, 1, 56, 127
2, 78120, Note_on_c, 1, 59, 127
2, 78120, Note_on_c, 1, 72, 127
2, 78240, Note_off_c, 1, 72, 0
2, 78280, Note_on_c, 1, 72, 127
2, 78400, Note_off_c, 1, 72, 0
2, 78440, Note_off_c, 1, 53, 0
2, 78440, Note_off_c, 1, 56, 0
2, 78440, Note_off_c, 1, 59, 0
2, 78440, Note_on_c, 1, 64, 127
2, 78440, Note_on_c, 1, 71, 127
2, 78440, Note_on_c, 1, 83, 127
2, 78440, Note_on_c, 1, 90, 127
2, 78480, Note_off_c, 1, 64, 0
2, 78480, Note_off_c, 1, 71, 0
2, 78480, Note_off_c, 1, 83, 0
2, 78480, Note_off_c, 1, 90, 0
2, 78520, Note_on_c, 1, 59, 127
2, 78520, Note_on_c, 1, 62, 127
2, 78520, Note_on_c, 1, 67, 127
2, 78520, Note_on_c, 1, 79, 127
2, 78520, Note_on_c, 1, 86, 127
2, 78520, Note_on_c, 1, 89, 127
2, 78520, Note_on_c, 1, 91, 127
2, 78560, Note_on_c, 1, 47, 127
2, 78560, Note_off_c, 1, 62, 0
2, 78560, Note_on_c, 1, 66, 127
2, 78560, Note_off_c, 1, 67, 0
2, 78560, Note_on_c, 1, 73, 127
2, 78560, Note_on_c, 1, 78, 127
2, 78560, Note_off_c, 1, 79, 0
2, 78560, Note_off_c, 1, 86, 0
2, 78560, Note_off_c, 1, 89, 0
2, 78560, Note_off_c, 1, 91, 0
2, 78600, Note_off_c, 1, 47, 0
2, 78600, Note_on_c, 1, 49, 127
2, 78600, Note_on_c, 1, 53, 127
2, 78600, Note_off_c, 1, 66, 0
2, 78600, Note_on_c, 1, 68, 127
2, 78600, Note_off_c, 1, 78, 0
2, 78640, Note_on_c, 1, 39, 127
2, 78640, Note_off_c, 1, 49, 0
2, 78640, Note_off_c, 1, 53, 0
2, 78640, Note_on_c, 1, 54, 127
2, 78640, Note_off_c, 1, 59, 0
2, 78640, Note_on_c, 1, 66, 127
2, 78640, Note_off_c, 1, 68, 0
2, 78640, Note_on_c, 1, 72, 127
2, 78640, Note_off_c, 1, 73, 0
2, 78720, Note_off_c, 1, 39, 0
2, 78720, Note_off_c, 1, 54, 0
2, 78720, Note_off_c, 1, 66, 0
2, 78720, Note_off_c, 1, 72, 0
2, 78760, Note_on_c, 1, 53, 127
2, 78760, Note_on_c, 1, 61, 127
2, 78760, Note_on_c, 1, 77, 127
2, 78880, Note_off_c, 1, 61, 0
2, 78880, Note_off_c, 1, 77, 0
2, 78920, Note_on_c, 1, 60, 127
2, 79040, Note_off_c, 1, 53, 0
2, 79040, Note_off_c, 1, 60, 0
2, 79080, Note_on_c, 1, 57, 127
2, 79080, Note_on_c, 1, 60, 127
2, 79080, Note_on_c, 1, 65, 127
2, 79320, Note_off_c, 1, 57, 0
2, 79320, Note_off_c, 1, 60, 0
2, 79320, Note_off_c, 1, 65, 0
2, 79360, Note_on_c, 1, 41, 127
2, 79360, Note_on_c, 1, 53, 127
2, 79360, Note_on_c, 1, 69, 127
2, 79360, Note_on_c, 1, 75, 127
2, 79400, Note_off_c, 1, 69, 0
2, 79520, Note_on_c, 1, 69, 127
2, 79560, Note_off_c, 1, 69, 0
2, 79640, Note_off_c, 1, 41, 0
2, 79640, Note_off_c, 1, 53, 0
2, 79640, Note_off_c, 1, 75, 0
2, 79680, Note_on_c, 1, 51, 127
2, 79680, Note_on_c, 1, 53, 127
2, 79680, Note_on_c, 1, 60, 127
2, 79680, Note_on_c, 1, 64, 127
2, 79720, Note_off_c, 1, 51, 0
2, 79720, Note_off_c, 1, 53, 0
2, 79720, Note_off_c, 1, 64, 0
2, 79720, Note_on_c, 1, 69, 127
2, 79720, Note_on_c, 1, 75, 127
2, 79720, Note_on_c, 1, 77, 127
2, 79720, Note_on_c, 1, 81, 127
2, 79760, Note_on_c, 1, 57, 127
2, 79760, Note_off_c, 1, 60, 0
2, 79760, Note_on_c, 1, 62, 127
2, 79760, Note_on_c, 1, 64, 127
2, 79760, Note_off_c, 1, 75, 0
2, 79760, Note_off_c, 1, 77, 0
2, 79800, Note_on_c, 1, 54, 127
2, 79800, Note_off_c, 1, 57, 0
2, 79800, Note_off_c, 1, 62, 0
2, 79800, Note_off_c, 1, 64, 0
2, 79800, Note_on_c, 1, 66, 127
2, 79800, Note_off_c, 1, 69, 0
2, 79800, Note_on_c, 1, 77, 127
2, 79800, Note_off_c, 1, 81, 0
2, 79840, Note_on_c, 1, 49, 127
2, 79840, Note_on_c, 1, 53, 127
2, 79840, Note_off_c, 1, 54, 0
2, 79840, Note_on_c, 1, 60, 127
2, 79840, Note_off_c, 1, 66, 0
2, 79840, Note_on_c, 1, 69, 127
2, 79840, Note_off_c, 1, 77, 0
2, 79960, Note_off_c, 1, 49, 0
2, 79960, Note_off_c, 1, 53, 0
2, 79960, Note_off_c, 1, 60, 0
2, 79960, Note_off_c, 1, 69, 0
2, 80000, Note_on_c, 1, 46, 127
2, 80000, Note_on_c, 1, 49, 127
2, 80000, Note_on_c, 1, 54, 127
2, 80000, Note_on_c, 1, 58, 127
2, 80000, Note_on_c, 1, 70, 127
2, 80240, Note_off_c, 1, 46, 0
2, 80240, Note_off_c, 1, 49, 0
2, 80240, Note_off_c, 1, 54, 0
2, 80240, Note_off_c, 1, 58, 0
2, 80240, Note_off_c, 1, 70, 0
2, 80280, Note_on_c, 1, 48, 127
2, 80280, Note_on_c, 1, 58, 127
2, 80280, Note_on_c, 1, 60, 127
2, 80280, Note_on_c, 1, 63, 127
2, 80280, Note_on_c, 1, 67, 127
2, 80320, Note_on_c, 1, 43, 127
2, 80440, Note_off_c, 1, 43, 0
2, 80560, Note_off_c, 1, 48, 0
2, 80560, Note_on_c, 1, 56, 127
2, 80560, Note_off_c, 1, 58, 0
2, 80560, Note_off_c, 1, 60, 0
2, 80560, Note_on_c, 1, 61, 127
2, 80560, Note_on_c, 1, 65, 127
2, 80560, Note_off_c, 1, 67, 0
2, 80600, Note_off_c, 1, 56, 0
2, 80600, Note_off_c, 1, 61, 0
2, 80600, Note_off_c, 1, 63, 0
2, 80600, Note_off_c, 1, 65, 0
2, 80640, Note_on_c, 1, 43, 127
2, 80640, Note_on_c, 1, 48, 127
2, 80640, Note_on_c, 1, 58, 127
2, 80640, Note_on_c, 1, 60, 127
2, 80640, Note_on_c, 1, 63, 127
2, 80640, Note_on_c, 1, 67, 127
2, 80840, Note_on_c, 1, 39, 127
2, 80840, Note_off_c, 1, 43, 0
2, 80880, Note_on_c, 1, 34, 127
2, 80880, Note_on_c, 1, 37, 127
2, 80880, Note_off_c, 1, 39, 0
2, 80880, Note_on_c, 1, 42, 127
2, 80880, Note_on_c, 1, 46, 127
2, 80880, Note_off_c, 1, 48, 0
2, 80880, Note_off_c, 1, 58, 0
2, 80880, Note_off_c, 1, 60, 0
2, 80880, Note_off_c, 1, 63, 0
2, 80880, Note_off_c, 1, 67, 0
2, 80920, Note_off_c, 1, 34, 0
2, 80920, Note_off_c, 1, 37, 0
2, 80920, Note_off_c, 1, 42, 0
2, 80920, Note_off_c, 1, 46, 0
2, 80920, Note_on_c, 1, 48, 127
2, 80920, Note_on_c, 1, 58, 127
2, 80920, Note_on_c, 1, 60, 127
2, 80920, Note_on_c, 1, 63, 127
2, 80920, Note_on_c, 1, 67, 127
2, 81040, Note_on_c, 1, 43, 127
2, 81160, Note_off_c, 1, 43, 0
2, 81160, Note_off_c, 1, 48, 0
2, 81160, Note_off_c, 1, 58, 0
2, 81160, Note_off_c, 1, 60, 0
2, 81160, Note_off_c, 1, 63, 0
2, 81160, Note_off_c, 1, 67, 0
2, 81200, Note_on_c, 1, 48, 127
2, 81200, Note_on_c, 1, 52, 127
2, 81200, Note_on_c, 1, 56, 127
2, 81200, Note_on_c, 1, 58, 127
2, 81200, Note_on_c, 1, 60, 127
2, 81200, Note_on_c, 1, 64, 127
2, 81200, Note_on_c, 1, 68, 127
2, 81200, Note_on_c, 1, 70, 127
2, 81200, Note_on_c, 1, 72, 127
2, 81480, Note_off_c, 1, 48, 0
2, 81480, Note_off_c, 1, 52, 0
2, 81480, Note_off_c, 1, 56, 0
2, 81480, Note_off_c, 1, 58, 0
2, 81480, Note_off_c, 1, 60, 0
2, 81480, Note_off_c, 1, 64, 0
2, 81480, Note_off_c, 1, 68, 0
2, 81480, Note_off_c, 1, 70, 0
2, 81480, Note_off_c, 1, 72, 0
2, 81520, Note_on_c, 1, 45, 127
2, 81520, Note_on_c, 1, 48, 127
2, 81520, Note_on_c, 1, 60, 127
2, 81520, Note_on_c, 1, 69, 127
2, 81520, Note_on_c, 1, 72, 127
2, 81560, Note_on_c, 1, 42, 127
2, 81560, Note_off_c, 1, 45, 0
2, 81560, Note_off_c, 1, 48, 0
2, 81560, Note_on_c, 1, 51, 127
2, 81560, Note_on_c, 1, 54, 127
2, 81560, Note_off_c, 1, 60, 0
2, 81560, Note_off_c, 1, 69, 0
2, 81560, Note_off_c, 1, 72, 0
2, 81560, Note_on_c, 1, 75, 127
2, 81560, Note_on_c, 1, 78, 127
2, 81560, Note_on_c, 1, 82, 127
2, 81560, Note_on_c, 1, 87, 127
2, 81600, Note_off_c, 1, 42, 0
2, 81600, Note_on_c, 1, 45, 127
2, 81600, Note_on_c, 1, 48, 127
2, 81600, Note_off_c, 1, 51, 0
2, 81600, Note_off_c, 1, 54, 0
2, 81600, Note_on_c, 1, 60, 127
2, 81600, Note_on_c, 1, 69, 127
2, 81600, Note_on_c, 1, 72, 127
2, 81600, Note_off_c, 1, 75, 0
2, 81600, Note_off_c, 1, 78, 0
2, 81600, Note_off_c, 1, 82, 0
2, 81600, Note_off_c, 1, 87, 0
2, 81720, Note_on_c, 1, 34, 127
2, 81720, Note_off_c, 1, 45, 0
2, 81720, Note_off_c, 1, 48, 0
2, 81720, Note_on_c, 1, 56, 127
2, 81720, Note_on_c, 1, 67, 127
2, 81720, Note_off_c, 1, 69, 0
2, 81720, Note_off_c, 1, 72, 0
2, 81760, Note_off_c, 1, 34, 0
2, 81760, Note_off_c, 1, 56, 0
2, 81760, Note_off_c, 1, 60, 0
2, 81760, Note_off_c, 1, 67, 0
2, 81800, Note_on_c, 1, 45, 127
2, 81800, Note_on_c, 1, 49, 127
2, 81800, Note_on_c, 1, 61, 127
2, 81800, Note_on_c, 1, 73, 127
2, 82080, Note_off_c, 1, 45, 0
2, 82080, Note_off_c, 1, 49, 0
2, 82080, Note_off_c, 1, 61, 0
2, 82080, Note_off_c, 1, 73, 0
2, 82120, Note_on_c, 1, 51, 127
2, 82120, Note_on_c, 1, 60, 127
2, 82120, Note_on_c, 1, 65, 127
2, 82120, Note_on_c, 1, 72, 127
2, 82360, Note_off_c, 1, 51, 0
2, 82360, Note_off_c, 1, 60, 0
2, 82360, Note_off_c, 1, 65, 0
2, 82400, Note_on_c, 1, 60, 127
2, 82400, Note_on_c, 1, 65, 127
2, 82400, Note_on_c, 1, 67, 127
2, 82400, Note_on_c, 1, 70, 127
2, 82400, Note_off_c, 1, 72, 0
2, 82680, Note_off_c, 1, 60, 0
2, 82680, Note_off_c, 1, 65, 0
2, 82680, Note_off_c, 1, 67, 0
2, 82680, Note_off_c, 1, 70, 0
2, 82760, Note_on_c, 1, 60, 127
2, 82760, Note_on_c, 1, 65, 127
2, 82760, Note_on_c, 1, 69, 127
2, 82760, Note_on_c, 1, 72, 127
2, 83280, Note_off_c, 1, 60, 0
2, 83280, Note_off_c, 1, 65, 0
2, 83280, Note_off_c, 1, 69, 0
2, 83280, Note_off_c, 1, 72, 0
2, 83320, Note_on_c, 1, 65, 127
2, 83320, Note_on_c, 1, 67, 127
2, 83320, Note_on_c, 1, 70, 127
2, 83320, Note_on_c, 1, 74, 127
2, 83880, Note_off_c, 1, 65, 0
2, 83880, Note_off_c, 1, 67, 0
2, 83880, Note_off_c, 1, 70, 0
2, 83880, Note_off_c, 1, 74, 0
2, 83920, Note_on_c, 1, 31, 127
2, 83920, Note_on_c, 1, 65, 127
2, 83920, Note_on_c, 1, 71, 127
2, 83920, Note_on_c, 1, 75, 127
2, 83960, Note_off_c, 1, 31, 0
2, 83960, Note_on_c, 1, 53, 127
2, 83960, Note_on_c, 1, 56, 127
2, 83960, Note_on_c, 1, 61, 127
2, 83960, Note_off_c, 1, 65, 0
2, 83960, Note_off_c, 1, 71, 0
2, 83960, Note_on_c, 1, 72, 127
2, 83960, Note_off_c, 1, 75, 0
2, 83960, Note_on_c, 1, 84, 127
2, 84000, Note_off_c, 1, 53, 0
2, 84000, Note_on_c, 1, 55, 127
2, 84000, Note_off_c, 1, 56, 0
2, 84000, Note_off_c, 1, 61, 0
2, 84000, Note_on_c, 1, 79, 127
2, 84000, Note_on_c, 1, 83, 127
2, 84000, Note_off_c, 1, 84, 0
2, 84040, Note_off_c, 1, 55, 0
2, 84040, Note_on_c, 1, 70, 127
2, 84040, Note_on_c, 1, 75, 127
2, 84040, Note_on_c, 1, 78, 127
2, 84040, Note_off_c, 1, 79, 0
2, 84040, Note_off_c, 1, 83, 0
2, 84080, Note_on_c, 1, 52, 127
2, 84080, Note_on_c, 1, 55, 127
2, 84080, Note_on_c, 1, 58, 127
2, 84080, Note_on_c, 1, 61, 127
2, 84080, Note_off_c, 1, 70, 0
2, 84080, Note_off_c, 1, 72, 0
2, 84080, Note_off_c, 1, 75, 0
2, 84080, Note_off_c, 1, 78, 0
2, 84080, Note_on_c, 1, 82, 127
2, 84080, Note_on_c, 1, 85, 127
2, 84080, Note_on_c, 1, 88, 127
2, 84080, Note_on_c, 1, 91, 127
2, 84080, Note_on_c, 1, 94, 127
2, 84120, Note_off_c, 1, 52, 0
2, 84120, Note_off_c, 1, 55, 0
2, 84120, Note_off_c, 1, 58, 0
2, 84120, Note_off_c, 1, 61, 0
2, 84120, Note_on_c, 1, 74, 127
2, 84120, Note_off_c, 1, 82, 0
2, 84120, Note_on_c, 1, 84, 127
2, 84120, Note_off_c, 1, 85, 0
2, 84120, Note_on_c, 1, 86, 127
2, 84120, Note_off_c, 1, 88, 0
2, 84120, Note_off_c, 1, 91, 0
2, 84120, Note_off_c, 1, 94, 0
2, 84160, Note_on_c, 1, 36, 127
2, 84160, Note_on_c, 1, 38, 127
2, 84160, Note_on_c, 1, 61, 127
2, 84160, Note_off_c, 1, 74, 0
2, 84160, Note_off_c, 1, 84, 0
2, 84160, Note_off_c, 1, 86, 0
2, 84200, Note_off_c, 1, 36, 0
2, 84200, Note_off_c, 1, 38, 0
2, 84200, Note_off_c, 1, 61, 0
2, 84200, Note_on_c, 1, 63, 127
2, 84200, Note_on_c, 1, 70, 127
2, 84200, Note_on_c, 1, 74, 127
2, 84240, Note_on_c, 1, 39, 127
2, 84240, Note_on_c, 1, 48, 127
2, 84240, Note_on_c, 1, 53, 127
2, 84240, Note_off_c, 1, 70, 0
2, 84240, Note_off_c, 1, 74, 0
2, 84480, Note_off_c, 1, 39, 0
2, 84480, Note_off_c, 1, 48, 0
2, 84480, Note_off_c, 1, 53, 0
2, 84480, Note_off_c, 1, 63, 0
2, 84520, Note_on_c, 1, 33, 127
2, 84520, Note_on_c, 1, 45, 127
2, 84520, Note_on_c, 1, 67, 127
2, 84520, Note_on_c, 1, 69, 127
2, 84520, Note_on_c, 1, 73, 127
2, 84760, Note_off_c, 1, 33, 0
2, 84760, Note_off_c, 1, 45, 0
2, 84800, Note_off_c, 1, 67, 0
2, 84800, Note_off_c, 1, 69, 0
2, 84800, Note_off_c, 1, 73, 0
2, 84840, Note_on_c, 1, 54, 127
2, 84840, Note_on_c, 1, 60, 127
2, 84840, Note_on_c, 1, 82, 127
2, 84840, Note_on_c, 1, 87, 127
2, 84840, Note_on_c, 1, 94, 127
2, 84880, Note_on_c, 1, 38, 127
2, 84880, Note_on_c, 1, 50, 127
2, 84880, Note_off_c, 1, 54, 0
2, 84880, Note_off_c, 1, 60, 0
2, 84880, Note_on_c, 1, 65, 127
2, 84880, Note_on_c, 1, 69, 127
2, 84880, Note_on_c, 1, 74, 127
2, 84880, Note_off_c, 1, 82, 0
2, 84880, Note_off_c, 1, 87, 0
2, 84880, Note_off_c, 1, 94, 0
2, 84960, Note_on_c, 1, 52, 127
2, 84960, Note_on_c, 1, 56, 127
2, 84960, Note_on_c, 1, 59, 127
2, 84960, Note_on_c, 1, 64, 127
2, 84960, Note_off_c, 1, 65, 0
2, 84960, Note_off_c, 1, 69, 0
2, 84960, Note_off_c, 1, 74, 0
2, 85000, Note_off_c, 1, 52, 0
2, 85000, Note_off_c, 1, 56, 0
2, 85000, Note_off_c, 1, 59, 0
2, 85000, Note_off_c, 1, 64, 0
2, 85000, Note_on_c, 1, 78, 127
2, 85000, Note_on_c, 1, 81, 127
2, 85000, Note_on_c, 1, 85, 127
2, 85000, Note_on_c, 1, 90, 127
2, 85040, Note_on_c, 1, 45, 127
2, 85040, Note_off_c, 1, 50, 0
2, 85040, Note_on_c, 1, 59, 127
2, 85040, Note_on_c, 1, 62, 127
2, 85040, Note_on_c, 1, 66, 127
2, 85040, Note_off_c, 1, 81, 0
2, 85040, Note_off_c, 1, 85, 0
2, 85040, Note_off_c, 1, 90, 0
2, 85080, Note_off_c, 1, 38, 0
2, 85080, Note_off_c, 1, 45, 0
2, 85080, Note_on_c, 1, 46, 127
2, 85080, Note_on_c, 1, 50, 127
2, 85080, Note_on_c, 1, 55, 127
2, 85080, Note_off_c, 1, 59, 0
2, 85080, Note_off_c, 1, 62, 0
2, 85080, Note_off_c, 1, 66, 0
2, 85080, Note_off_c, 1, 78, 0
2, 85080, Note_on_c, 1, 82, 127
2, 85120, Note_on_c, 1, 34, 127
2, 85120, Note_off_c, 1, 46, 0
2, 85120, Note_off_c, 1, 50, 0
2, 85120, Note_off_c, 1, 55, 0
2, 85120, Note_off_c, 1, 82, 0
2, 85160, Note_off_c, 1, 34, 0
2, 85160, Note_on_c, 1, 44, 127
2, 85160, Note_on_c, 1, 45, 127
2, 85160, Note_on_c, 1, 52, 127
2, 85160, Note_on_c, 1, 67, 127
2, 85160, Note_on_c, 1, 72, 127
2, 86240, Note_off_c, 1, 44, 0
2, 86240, Note_off_c, 1, 45, 0
2, 86240, Note_off_c, 1, 52, 0
2, 86240, Note_on_c, 1, 54, 127
2, 86240, Note_on_c, 1, 57, 127
2, 86240, Note_on_c, 1, 61, 127
2, 86240, Note_off_c, 1, 67, 0
2, 86240, Note_off_c, 1, 72, 0
2, 86240, Note_on_c, 1, 81, 127
2, 86240, Note_on_c, 1, 85, 127
2, 86280, Note_off_c, 1, 54, 0
2, 86280, Note_off_c, 1, 57, 0
2, 86280, Note_off_c, 1, 61, 0
2, 86280, Note_on_c, 1, 71, 127
2, 86280, Note_on_c, 1, 74, 127
2, 86280, Note_on_c, 1, 77, 127
2, 86280, Note_on_c, 1, 78, 127
2, 86280, Note_off_c, 1, 81, 0
2, 86280, Note_off_c, 1, 85, 0
2, 86560, Note_off_c, 1, 78, 0
2, 86600, Note_on_c, 1, 35, 127
2, 86600, Note_on_c, 1, 51, 127
2, 86600, Note_on_c, 1, 54, 127
2, 86600, Note_on_c, 1, 59, 127
2, 86600, Note_on_c, 1, 63, 127
2, 86600, Note_off_c, 1, 71, 0
2, 86600, Note_off_c, 1, 74, 0
2, 86600, Note_off_c, 1, 77, 0
2, 86640, Note_off_c, 1, 35, 0
2, 86640, Note_off_c, 1, 51, 0
2, 86640, Note_off_c, 1, 54, 0
2, 86640, Note_off_c, 1, 59, 0
2, 86640, Note_off_c, 1, 63, 0
2, 86680, Note_on_c, 1, 50, 127
2, 86680, Note_on_c, 1, 57, 127
2, 86680, Note_on_c, 1, 60, 127
2, 86680, Note_on_c, 1, 67, 127
2, 86680, Note_on_c, 1, 86, 127
2, 86760, Note_off_c, 1, 50, 0
2, 86760, Note_on_c, 1, 55, 127
2, 86760, Note_off_c, 1, 57, 0
2, 86760, Note_off_c, 1, 60, 0
2, 86760, Note_on_c, 1, 79, 127
2, 86800, Note_off_c, 1, 55, 0
2, 86800, Note_off_c, 1, 67, 0
2, 86800, Note_off_c, 1, 79, 0
2, 86800, Note_off_c, 1, 86, 0
2, 86840, Note_on_c, 1, 44, 127
2, 86840, Note_on_c, 1, 54, 127
2, 86840, Note_on_c, 1, 69, 127
2, 86840, Note_on_c, 1, 72, 127
2, 86840, Note_on_c, 1, 75, 127
2, 86840, Note_on_c, 1, 78, 127
2, 86840, Note_on_c, 1, 81, 127
2, 86880, Note_on_c, 1, 38, 127
2, 86880, Note_off_c, 1, 44, 0
2, 86880, Note_on_c, 1, 52, 127
2, 86880, Note_off_c, 1, 54, 0
2, 86880, Note_on_c, 1, 57, 127
2, 86880, Note_off_c, 1, 69, 0
2, 86880, Note_off_c, 1, 72, 0
2, 86880, Note_off_c, 1, 75, 0
2, 86880, Note_on_c, 1, 76, 127
2, 86880, Note_off_c, 1, 78, 0
2, 86880, Note_off_c, 1, 81, 0
2, 86920, Note_off_c, 1, 38, 0
2, 86920, Note_on_c, 1, 50, 127
2, 86920, Note_off_c, 1, 52, 0
2, 86920, Note_on_c, 1, 60, 127
2, 86920, Note_on_c, 1, 67, 127
2, 86920, Note_off_c, 1, 76, 0
2, 86920, Note_on_c, 1, 87, 127
2, 86960, Note_on_c, 1, 42, 127
2, 86960, Note_on_c, 1, 49, 127
2, 86960, Note_off_c, 1, 50, 0
2, 86960, Note_off_c, 1, 57, 0
2, 86960, Note_on_c, 1, 58, 127
2, 86960, Note_off_c, 1, 60, 0
2, 86960, Note_on_c, 1, 63, 127
2, 86960, Note_off_c, 1, 67, 0
2, 86960, Note_on_c, 1, 72, 127
2, 86960, Note_off_c, 1, 87, 0
2, 87000, Note_off_c, 1, 42, 0
2, 87000, Note_off_c, 1, 49, 0
2, 87000, Note_off_c, 1, 58, 0
2, 87000, Note_off_c, 1, 63, 0
2, 87000, Note_on_c, 1, 67, 127
2, 87000, Note_on_c, 1, 76, 127
2, 87000, Note_on_c, 1, 88, 127
2, 87000, Note_on_c, 1, 96, 127
2, 87000, Note_on_c, 1, 100, 127
2, 87040, Note_on_c, 1, 60, 127
2, 87040, Note_on_c, 1, 64, 127
2, 87040, Note_on_c, 1, 74, 127
2, 87040, Note_off_c, 1, 76, 0
2, 87040, Note_off_c, 1, 88, 0
2, 87040, Note_off_c, 1, 96, 0
2, 87040, Note_off_c, 1, 100, 0
2, 87080, Note_on_c, 1, 35, 127
2, 87080, Note_on_c, 1, 42, 127
2, 87080, Note_off_c, 1, 60, 0
2, 87080, Note_on_c, 1, 70, 127
2, 87080, Note_off_c, 1, 72, 0
2, 87080, Note_on_c, 1, 73, 127
2, 87080, Note_off_c, 1, 74, 0
2, 87120, Note_off_c, 1, 35, 0
2, 87120, Note_off_c, 1, 42, 0
2, 87120, Note_off_c, 1, 64, 0
2, 87120, Note_off_c, 1, 67, 0
2, 87120, Note_on_c, 1, 72, 127
2, 87120, Note_on_c, 1, 75, 127
2, 87160, Note_on_c, 1, 53, 127
2, 87160, Note_on_c, 1, 57, 127
2, 87160, Note_on_c, 1, 60, 127
2, 87160, Note_on_c, 1, 63, 127
2, 87160, Note_off_c, 1, 70, 0
2, 87160, Note_off_c, 1, 72, 0
2, 87160, Note_off_c, 1, 73, 0
2, 87200, Note_off_c, 1, 53, 0
2, 87200, Note_off_c, 1, 57, 0
2, 87200, Note_off_c, 1, 63, 0
2, 87200, Note_on_c, 1, 65, 127
2, 87200, Note_on_c, 1, 71, 127
2, 87200, Note_on_c, 1, 74, 127
2, 87200, Note_off_c, 1, 75, 0
2, 87240, Note_on_c, 1, 46, 127
2, 87240, Note_on_c, 1, 56, 127
2, 87240, Note_on_c, 1, 58, 127
2, 87240, Note_off_c, 1, 60, 0
2, 87240, Note_on_c, 1, 64, 127
2, 87240, Note_off_c, 1, 65, 0
2, 87240, Note_on_c, 1, 68, 127
2, 87240, Note_off_c, 1, 71, 0
2, 87240, Note_on_c, 1, 73, 127
2, 87240, Note_off_c, 1, 74, 0
2, 87280, Note_off_c, 1, 46, 0
2, 87280, Note_on_c, 1, 50, 127
2, 87280, Note_off_c, 1, 56, 0
2, 87280, Note_off_c, 1, 58, 0
2, 87280, Note_off_c, 1, 64, 0
2, 87280, Note_off_c, 1, 68, 0
2, 87280, Note_off_c, 1, 73, 0
2, 87280, Note_on_c, 1, 76, 127
2, 87280, Note_on_c, 1, 81, 127
2, 87320, Note_on_c, 1, 39, 127
2, 87320, Note_on_c, 1, 42, 127
2, 87320, Note_off_c, 1, 50, 0
2, 87320, Note_on_c, 1, 66, 127
2, 87320, Note_on_c, 1, 70, 127
2, 87320, Note_off_c, 1, 76, 0
2, 87320, Note_off_c, 1, 81, 0
2, 87360, Note_on_c, 1, 31, 127
2, 87360, Note_off_c, 1, 42, 0
2, 87360, Note_on_c, 1, 43, 127
2, 87360, Note_off_c, 1, 66, 0
2, 87360, Note_on_c, 1, 67, 127
2, 87360, Note_off_c, 1, 70, 0
2, 87400, Note_off_c, 1, 31, 0
2, 87400, Note_off_c, 1, 39, 0
2, 87400, Note_off_c, 1, 43, 0
2, 87400, Note_on_c, 1, 48, 127
2, 87400, Note_on_c, 1, 55, 127
2, 87400, Note_on_c, 1, 58, 127
2, 87400, Note_on_c, 1, 64, 127
2, 87400, Note_off_c, 1, 67, 0
2, 87400, Note_on_c, 1, 72, 127
2, 87400, Note_on_c, 1, 76, 127
2, 87440, Note_on_c, 1, 39, 127
2, 87440, Note_on_c, 1, 42, 127
2, 87440, Note_on_c, 1, 47, 127
2, 87440, Note_off_c, 1, 48, 0
2, 87440, Note_on_c, 1, 51, 127
2, 87440, Note_off_c, 1, 55, 0
2, 87440, Note_off_c, 1, 58, 0
2, 87440, Note_off_c, 1, 64, 0
2, 87440, Note_off_c, 1, 72, 0
2, 87440, Note_off_c, 1, 76, 0
2, 87440, Note_on_c, 1, 90, 127
2, 87440, Note_on_c, 1, 95, 127
2, 87440, Note_on_c, 1, 102, 127
2, 87480, Note_on_c, 1, 35, 127
2, 87480, Note_off_c, 1, 39, 0
2, 87480, Note_off_c, 1, 42, 0
2, 87480, Note_off_c, 1, 51, 0
2, 87480, Note_on_c, 1, 55, 127
2, 87480, Note_on_c, 1, 60, 127
2, 87480, Note_on_c, 1, 62, 127
2, 87480, Note_off_c, 1, 90, 0
2, 87480, Note_off_c, 1, 95, 0
2, 87480, Note_off_c, 1, 102, 0
2, 87520, Note_off_c, 1, 35, 0
2, 87520, Note_on_c, 1, 38, 127
2, 87520, Note_off_c, 1, 47, 0
2, 87520, Note_on_c, 1, 50, 127
2, 87520, Note_off_c, 1, 55, 0
2, 87520, Note_off_c, 1, 60, 0
2, 87520, Note_off_c, 1, 62, 0
2, 87520, Note_on_c, 1, 68, 127
2, 87520, Note_on_c, 1, 72, 127
2, 87520, Note_on_c, 1, 78, 127
2, 87520, Note_on_c, 1, 80, 127
2, 87560, Note_on_c, 1, 44, 127
2, 87560, Note_on_c, 1, 48, 127
2, 87560, Note_off_c, 1, 50, 0
2, 87560, Note_on_c, 1, 60, 127
2, 87560, Note_on_c, 1, 66, 127
2, 87560, Note_off_c, 1, 72, 0
2, 87560, Note_off_c, 1, 78, 0
2, 87560, Note_off_c, 1, 80, 0
2, 87600, Note_off_c, 1, 38, 0
2, 87600, Note_off_c, 1, 44, 0
2, 87600, Note_off_c, 1, 48, 0
2, 87600, Note_off_c, 1, 60, 0
2, 87600, Note_off_c, 1, 66, 0
2, 87600, Note_off_c, 1, 68, 0
2, 87600, Note_on_c, 1, 91, 127
2, 87600, Note_on_c, 1, 92, 127
2, 87600, Note_on_c, 1, 95, 127
2, 87600, Note_on_c, 1, 96, 127
2, 87640, Note_on_c, 1, 66, 127
2, 87640, Note_on_c, 1, 70, 127
2, 87640, Note_on_c, 1, 73, 127
2, 87640, Note_on_c, 1, 76, 127
2, 87640, Note_off_c, 1, 92, 0
2, 87640, Note_off_c, 1, 95, 0
2, 87640, Note_off_c, 1, 96, 0
2, 87680, Note_on_c, 1, 40, 127
2, 87680, Note_on_c, 1, 47, 127
2, 87680, Note_on_c, 1, 55, 127
2, 87680, Note_off_c, 1, 70, 0
2, 87680, Note_on_c, 1, 71, 127
2, 87680, Note_off_c, 1, 73, 0
2, 87680, Note_on_c, 1, 74, 127
2, 87680, Note_off_c, 1, 76, 0
2, 87680, Note_off_c, 1, 91, 0
2, 87720, Note_on_c, 1, 29, 127
2, 87720, Note_on_c, 1, 34, 127
2, 87720, Note_on_c, 1, 36, 127
2, 87720, Note_off_c, 1, 40, 0
2, 87720, Note_off_c, 1, 47, 0
2, 87720, Note_on_c, 1, 50, 127
2, 87720, Note_off_c, 1, 55, 0
2, 87720, Note_on_c, 1, 58, 127
2, 87720, Note_off_c, 1, 66, 0
2, 87720, Note_off_c, 1, 71, 0
2, 87720, Note_off_c, 1, 74, 0
2, 87760, Note_off_c, 1, 29, 0
2, 87760, Note_off_c, 1, 34, 0
2, 87760, Note_off_c, 1, 36, 0
2, 87760, Note_on_c, 1, 37, 127
2, 87760, Note_off_c, 1, 50, 0
2, 87760, Note_off_c, 1, 58, 0
2, 87760, Note_on_c, 1, 66, 127
2, 87760, Note_on_c, 1, 70, 127
2, 87760, Note_on_c, 1, 73, 127
2, 87760, Note_on_c, 1, 77, 127
2, 87800, Note_off_c, 1, 37, 0
2, 87800, Note_on_c, 1, 56, 127
2, 87800, Note_on_c, 1, 59, 127
2, 87800, Note_on_c, 1, 62, 127
2, 87800, Note_on_c, 1, 64, 127
2, 87800, Note_off_c, 1, 66, 0
2, 87800, Note_off_c, 1, 70, 0
2, 87800, Note_on_c, 1, 71, 127
2, 87800, Note_off_c, 1, 73, 0
2, 87800, Note_on_c, 1, 74, 127
2, 87800, Note_off_c, 1, 77, 0
2, 87840, Note_on_c, 1, 29, 127
2, 87840, Note_on_c, 1, 34, 127
2, 87840, Note_on_c, 1, 36, 127
2, 87840, Note_off_c, 1, 56, 0
2, 87840, Note_off_c, 1, 59, 0
2, 87840, Note_off_c, 1, 62, 0
2, 87840, Note_on_c, 1, 63, 127
2, 87840, Note_off_c, 1, 64, 0
2, 87840, Note_off_c, 1, 71, 0
2, 87840, Note_off_c, 1, 74, 0
2, 87880, Note_off_c, 1, 29, 0
2, 87880, Note_off_c, 1, 34, 0
2, 87880, Note_off_c, 1, 36, 0
2, 87880, Note_on_c, 1, 50, 127
2, 87880, Note_on_c, 1, 52, 127
2, 87880, Note_on_c, 1, 55, 127
2, 87880, Note_on_c, 1, 57, 127
2, 87880, Note_off_c, 1, 63, 0
2, 87880, Note_on_c, 1, 85, 127
2, 87920, Note_on_c, 1, 39, 127
2, 87920, Note_off_c, 1, 50, 0
2, 87920, Note_off_c, 1, 52, 0
2, 87920, Note_on_c, 1, 54, 127
2, 87920, Note_off_c, 1, 55, 0
2, 87920, Note_off_c, 1, 57, 0
2, 87920, Note_on_c, 1, 59, 127
2, 87920, Note_on_c, 1, 68, 127
2, 87920, Note_off_c, 1, 85, 0
2, 87960, Note_off_c, 1, 39, 0
2, 87960, Note_off_c, 1, 54, 0
2, 87960, Note_off_c, 1, 59, 0
2, 87960, Note_on_c, 1, 65, 127
2, 87960, Note_off_c, 1, 68, 0
2, 87960, Note_on_c, 1, 78, 127
2, 87960, Note_on_c, 1, 82, 127
2, 88000, Note_off_c, 1, 65, 0
2, 88000, Note_on_c, 1, 72, 127
2, 88000, Note_off_c, 1, 78, 0
2, 88000, Note_on_c, 1, 79, 127
2, 88000, Note_on_c, 1, 89, 127
2, 88000, Note_on_c, 1, 96, 127
2, 88000, Note_on_c, 1, 101, 127
2, 88040, Note_on_c, 1, 39, 127
2, 88040, Note_on_c, 1, 54, 127
2, 88040, Note_on_c, 1, 59, 127
2, 88040, Note_on_c, 1, 66, 127
2, 88040, Note_off_c, 1, 72, 0
2, 88040, Note_off_c, 1, 79, 0
2, 88040, Note_off_c, 1, 82, 0
2, 88040, Note_off_c, 1, 89, 0
2, 88040, Note_off_c, 1, 96, 0
2, 88040, Note_off_c, 1, 101, 0
2, 88080, Note_off_c, 1, 39, 0
2, 88080, Note_on_c, 1, 49, 127
2, 88080, Note_on_c, 1, 52, 127
2, 88080, Note_off_c, 1, 54, 0
2, 88080, Note_off_c, 1, 59, 0
2, 88080, Note_off_c, 1, 66, 0
2, 88080, Note_on_c, 1, 85, 127
2, 88080, Note_on_c, 1, 88, 127
2, 88120, Note_on_c, 1, 30, 127
2, 88120, Note_on_c, 1, 42, 127
2, 88120, Note_off_c, 1, 49, 0
2, 88120, Note_on_c, 1, 54, 127
2, 88120, Note_on_c, 1, 58, 127
2, 88120, Note_on_c, 1, 62, 127
2, 88120, Note_off_c, 1, 85, 0
2, 88120, Note_off_c, 1, 88, 0
2, 88360, Note_off_c, 1, 30, 0
2, 88360, Note_off_c, 1, 42, 0
2, 88360, Note_off_c, 1, 52, 0
2, 88360, Note_off_c, 1, 54, 0
2, 88360, Note_off_c, 1, 58, 0
2, 88360, Note_off_c, 1, 62, 0
2, 88400, Note_on_c, 1, 38, 127
2, 88400, Note_on_c, 1, 50, 127
2, 88400, Note_on_c, 1, 62, 127
2, 88400, Note_on_c, 1, 74, 127
2, 88960, Note_off_c, 1, 38, 0
2, 88960, Note_off_c, 1, 50, 0
2, 88960, Note_off_c, 1, 62, 0
2, 88960, Note_off_c, 1, 74, 0
2, 89000, Note_on_c, 1, 38, 127
2, 89000, Note_on_c, 1, 50, 127
2, 89000, Note_on_c, 1, 62, 127
2, 89000, Note_on_c, 1, 74, 127
2, 89080, Note_on_c, 1, 37, 127
2, 89080, Note_off_c, 1, 38, 0
2, 89080, Note_on_c, 1, 49, 127
2, 89080, Note_off_c, 1, 50, 0
2, 89080, Note_on_c, 1, 54, 127
2, 89080, Note_on_c, 1, 57, 127
2, 89080, Note_on_c, 1, 61, 127
2, 89080, Note_off_c, 1, 62, 0
2, 89080, Note_on_c, 1, 66, 127
2, 89080, Note_on_c, 1, 69, 127
2, 89080, Note_on_c, 1, 73, 127
2, 89080, Note_off_c, 1, 74, 0
2, 89320, Note_on_c, 1, 33, 127
2, 89320, Note_off_c, 1, 37, 0
2, 89320, Note_on_c, 1, 45, 127
2, 89320, Note_off_c, 1, 49, 0
2, 89320, Note_off_c, 1, 54, 0
2, 89320, Note_off_c, 1, 57, 0
2, 89320, Note_off_c, 1, 61, 0
2, 89320, Note_off_c, 1, 66, 0
2, 89320, Note_off_c, 1, 69, 0
2, 89320, Note_off_c, 1, 73, 0
2, 89360, Note_on_c, 1, 32, 127
2, 89360, Note_off_c, 1, 33, 0
2, 89360, Note_on_c, 1, 44, 127
2, 89360, Note_off_c, 1, 45, 0
2, 89360, Note_on_c, 1, 59, 127
2, 89360, Note_on_c, 1, 62, 127
2, 89360, Note_on_c, 1, 65, 127
2, 89600, Note_off_c, 1, 32, 0
2, 89600, Note_off_c, 1, 44, 0
2, 89600, Note_off_c, 1, 59, 0
2, 89600, Note_off_c, 1, 62, 0
2, 89600, Note_off_c, 1, 65, 0
2, 89640, Note_on_c, 1, 42, 127
2, 89640, Note_on_c, 1, 57, 127
2, 89640, Note_on_c, 1, 69, 127
2, 90280, Note_off_c, 1, 42, 0
2, 90280, Note_off_c, 1, 57, 0
2, 90280, Note_on_c, 1, 60, 127
2, 90280, Note_on_c, 1, 63, 127
2, 90280, Note_on_c, 1, 66, 127
2, 90280, Note_off_c, 1, 69, 0
2, 90280, Note_on_c, 1, 74, 127
2, 90280, Note_on_c, 1, 78, 127
2, 90320, Note_on_c, 1, 38, 127
2, 90320, Note_on_c, 1, 43, 127
2, 90320, Note_on_c, 1, 53, 127
2, 90320, Note_off_c, 1, 60, 0
2, 90320, Note_off_c, 1, 63, 0
2, 90320, Note_on_c, 1, 65, 127
2, 90320, Note_off_c, 1, 66, 0
2, 90320, Note_off_c, 1, 74, 0
2, 90320, Note_off_c, 1, 78, 0
2, 90360, Note_off_c, 1, 38, 0
2, 90360, Note_off_c, 1, 43, 0
2, 90360, Note_on_c, 1, 50, 127
2, 90360, Note_off_c, 1, 53, 0
2, 90360, Note_on_c, 1, 56, 127
2, 90360, Note_on_c, 1, 59, 127
2, 90360, Note_on_c, 1, 62, 127
2, 90360, Note_off_c, 1, 65, 0
2, 90360, Note_on_c, 1, 71, 127
2, 90400, Note_on_c, 1, 42, 127
2, 90400, Note_on_c, 1, 49, 127
2, 90400, Note_off_c, 1, 50, 0
2, 90400, Note_off_c, 1, 56, 0
2, 90400, Note_off_c, 1, 59, 0
2, 90400, Note_off_c, 1, 62, 0
2, 90400, Note_off_c, 1, 71, 0
2, 90400, Note_on_c, 1, 85, 127
2, 90440, Note_off_c, 1, 42, 0
2, 90440, Note_on_c, 1, 43, 127
2, 90440, Note_on_c, 1, 48, 127
2, 90440, Note_off_c, 1, 49, 0
2, 90440, Note_on_c, 1, 55, 127
2, 90440, Note_on_c, 1, 67, 127
2, 90440, Note_off_c, 1, 85, 0
2, 90480, Note_on_c, 1, 41, 127
2, 90480, Note_off_c, 1, 43, 0
2, 90480, Note_off_c, 1, 48, 0
2, 90480, Note_on_c, 1, 50, 127
2, 90480, Note_off_c, 1, 55, 0
2, 90480, Note_on_c, 1, 56, 127
2, 90480, Note_on_c, 1, 61, 127
2, 90480, Note_off_c, 1, 67, 0
2, 90520, Note_on_c, 1, 35, 127
2, 90520, Note_off_c, 1, 41, 0
2, 90520, Note_on_c, 1, 47, 127
2, 90520, Note_off_c, 1, 50, 0
2, 90520, Note_off_c, 1, 56, 0
2, 90520, Note_off_c, 1, 61, 0
2, 90520, Note_on_c, 1, 75, 127
2, 90520, Note_on_c, 1, 79, 127
2, 90520, Note_on_c, 1, 87, 127
2, 90560, Note_off_c, 1, 35, 0
2, 90560, Note_on_c, 1, 36, 127
2, 90560, Note_on_c, 1, 39, 127
2, 90560, Note_on_c, 1, 42, 127
2, 90560, Note_on_c, 1, 44, 127
2, 90560, Note_off_c, 1, 47, 0
2, 90560, Note_on_c, 1, 56, 127
2, 90560, Note_off_c, 1, 75, 0
2, 90560, Note_off_c, 1, 79, 0
2, 90560, Note_off_c, 1, 87, 0
2, 90600, Note_off_c, 1, 36, 0
2, 90600, Note_off_c, 1, 39, 0
2, 90600, Note_off_c, 1, 42, 0
2, 90600, Note_on_c, 1, 43, 127
2, 90600, Note_off_c, 1, 44, 0
2, 90600, Note_on_c, 1, 49, 127
2, 90600, Note_off_c, 1, 56, 0
2, 90600, Note_on_c, 1, 57, 127
2, 90600, Note_on_c, 1, 65, 127
2, 90640, Note_off_c, 1, 43, 0
2, 90640, Note_on_c, 1, 46, 127
2, 90640, Note_off_c, 1, 49, 0
2, 90640, Note_on_c, 1, 53, 127
2, 90640, Note_off_c, 1, 57, 0
2, 90640, Note_on_c, 1, 58, 127
2, 90640, Note_on_c, 1, 60, 127
2, 90640, Note_on_c, 1, 63, 127
2, 90640, Note_off_c, 1, 65, 0
2, 90640, Note_on_c, 1, 67, 127
2, 90680, Note_on_c, 1, 44, 127
2, 90680, Note_off_c, 1, 46, 0
2, 90680, Note_off_c, 1, 53, 0
2, 90680, Note_off_c, 1, 58, 0
2, 90680, Note_off_c, 1, 60, 0
2, 90680, Note_off_c, 1, 63, 0
2, 90680, Note_off_c, 1, 67, 0
2, 90680, Note_on_c, 1, 80, 127
2, 90680, Note_on_c, 1, 89, 127
2, 90680, Note_on_c, 1, 92, 127
2, 90720, Note_off_c, 1, 44, 0
2, 90720, Note_on_c, 1, 61, 127
2, 90720, Note_on_c, 1, 65, 127
2, 90720, Note_on_c, 1, 73, 127
2, 90720, Note_off_c, 1, 80, 0
2, 90720, Note_on_c, 1, 85, 127
2, 90720, Note_off_c, 1, 92, 0
2, 90760, Note_on_c, 1, 40, 127
2, 90760, Note_on_c, 1, 43, 127
2, 90760, Note_on_c, 1, 52, 127
2, 90760, Note_off_c, 1, 61, 0
2, 90760, Note_off_c, 1, 65, 0
2, 90760, Note_off_c, 1, 73, 0
2, 90760, Note_off_c, 1, 85, 0
2, 90760, Note_on_c, 1, 87, 127
2, 90760, Note_off_c, 1, 89, 0
2, 90800, Note_off_c, 1, 40, 0
2, 90800, Note_off_c, 1, 43, 0
2, 90800, Note_on_c, 1, 45, 127
2, 90800, Note_on_c, 1, 47, 127
2, 90800, Note_on_c, 1, 64, 127
2, 90800, Note_off_c, 1, 87, 0
2, 90840, Note_off_c, 1, 45, 0
2, 90840, Note_off_c, 1, 47, 0
2, 90840, Note_off_c, 1, 52, 0
2, 90840, Note_on_c, 1, 55, 127
2, 90840, Note_on_c, 1, 58, 127
2, 90840, Note_on_c, 1, 63, 127
2, 90840, Note_off_c, 1, 64, 0
2, 90840, Note_on_c, 1, 80, 127
2, 90840, Note_on_c, 1, 84, 127
2, 90880, Note_off_c, 1, 55, 0
2, 90880, Note_off_c, 1, 58, 0
2, 90880, Note_off_c, 1, 63, 0
2, 90880, Note_on_c, 1, 77, 127
2, 90880, Note_off_c, 1, 80, 0
2, 90880, Note_on_c, 1, 82, 127
2, 90880, Note_on_c, 1, 87, 127
2, 90880, Note_on_c, 1, 92, 127
2, 90920, Note_on_c, 1, 44, 127
2, 90920, Note_on_c, 1, 59, 127
2, 90920, Note_on_c, 1, 66, 127
2, 90920, Note_off_c, 1, 77, 0
2, 90920, Note_on_c, 1, 80, 127
2, 90920, Note_off_c, 1, 82, 0
2, 90920, Note_off_c, 1, 84, 0
2, 90920, Note_off_c, 1, 87, 0
2, 90920, Note_off_c, 1, 92, 0
2, 90960, Note_off_c, 1, 44, 0
2, 90960, Note_off_c, 1, 59, 0
2, 90960, Note_off_c, 1, 66, 0
2, 90960, Note_off_c, 1, 80, 0
2, 91000, Note_on_c, 1, 36, 127
2, 91000, Note_on_c, 1, 48, 127
2, 91000, Note_on_c, 1, 55, 127
2, 91000, Note_on_c, 1, 58, 127
2, 91000, Note_on_c, 1, 65, 127
2, 91000, Note_on_c, 1, 90, 127
2, 91040, Note_off_c, 1, 36, 0
2, 91040, Note_off_c, 1, 48, 0
2, 91040, Note_off_c, 1, 58, 0
2, 91040, Note_on_c, 1, 60, 127
2, 91040, Note_on_c, 1, 63, 127
2, 91040, Note_off_c, 1, 65, 0
2, 91040, Note_on_c, 1, 84, 127
2, 91040, Note_on_c, 1, 88, 127
2, 91040, Note_off_c, 1, 90, 0
2, 91080, Note_off_c, 1, 55, 0
2, 91080, Note_off_c, 1, 60, 0
2, 91080, Note_on_c, 1, 62, 127
2, 91080, Note_off_c, 1, 63, 0
2, 91080, Note_on_c, 1, 67, 127
2, 91080, Note_on_c, 1, 70, 127
2, 91080, Note_off_c, 1, 84, 0
2, 91080, Note_off_c, 1, 88, 0
2, 91080, Note_on_c, 1, 91, 127
2, 91120, Note_off_c, 1, 62, 0
2, 91120, Note_off_c, 1, 67, 0
2, 91120, Note_off_c, 1, 70, 0
2, 91120, Note_on_c, 1, 84, 127
2, 91120, Note_on_c, 1, 90, 127
2, 91120, Note_off_c, 1, 91, 0
2, 91120, Note_on_c, 1, 92, 127
2, 91160, Note_on_c, 1, 51, 127
2, 91160, Note_on_c, 1, 54, 127
2, 91160, Note_on_c, 1, 58, 127
2, 91160, Note_on_c, 1, 70, 127
2, 91160, Note_on_c, 1, 75, 127
2, 91160, Note_on_c, 1, 78, 127
2, 91160, Note_on_c, 1, 82, 127
2, 91160, Note_off_c, 1, 84, 0
2, 91160, Note_off_c, 1, 90, 0
2, 91160, Note_off_c, 1, 92, 0
2, 91200, Note_off_c, 1, 54, 0
2, 91200, Note_on_c, 1, 56, 127
2, 91200, Note_off_c, 1, 58, 0
2, 91200, Note_on_c, 1, 66, 127
2, 91200, Note_off_c, 1, 70, 0
2, 91200, Note_on_c, 1, 72, 127
2, 91200, Note_off_c, 1, 75, 0
2, 91200, Note_off_c, 1, 82, 0
2, 91240, Note_off_c, 1, 51, 0
2, 91240, Note_off_c, 1, 56, 0
2, 91240, Note_on_c, 1, 57, 127
2, 91240, Note_on_c, 1, 60, 127
2, 91240, Note_on_c, 1, 65, 127
2, 91240, Note_off_c, 1, 66, 0
2, 91240, Note_off_c, 1, 72, 0
2, 91240, Note_off_c, 1, 78, 0
2, 91240, Note_on_c, 1, 88, 127
2, 91240, Note_on_c, 1, 92, 127
2, 91280, Note_on_c, 1, 32, 127
2, 91280, Note_on_c, 1, 53, 127
2, 91280, Note_on_c, 1, 56, 127
2, 91280, Note_off_c, 1, 57, 0
2, 91280, Note_off_c, 1, 60, 0
2, 91280, Note_on_c, 1, 61, 127
2, 91280, Note_on_c, 1, 68, 127
2, 91280, Note_on_c, 1, 73, 127
2, 91280, Note_on_c, 1, 79, 127
2, 91280, Note_off_c, 1, 88, 0
2, 91280, Note_off_c, 1, 92, 0
2, 91320, Note_off_c, 1, 32, 0
2, 91320, Note_off_c, 1, 53, 0
2, 91320, Note_off_c, 1, 56, 0
2, 91320, Note_on_c, 1, 60, 127
2, 91320, Note_off_c, 1, 61, 0
2, 91320, Note_off_c, 1, 65, 0
2, 91320, Note_on_c, 1, 67, 127
2, 91320, Note_off_c, 1, 68, 0
2, 91320, Note_on_c, 1, 70, 127
2, 91320, Note_on_c, 1, 77, 127
2, 91320, Note_off_c, 1, 79, 0
2, 91360, Note_on_c, 1, 51, 127
2, 91360, Note_on_c, 1, 58, 127
2, 91360, Note_on_c, 1, 63, 127
2, 91360, Note_off_c, 1, 70, 0
2, 91360, Note_off_c, 1, 73, 0
2, 91360, Note_off_c, 1, 77, 0
2, 91360, Note_on_c, 1, 82, 127
2, 91400, Note_on_c, 1, 48, 127
2, 91400, Note_off_c, 1, 51, 0
2, 91400, Note_off_c, 1, 58, 0
2, 91400, Note_off_c, 1, 60, 0
2, 91400, Note_off_c, 1, 63, 0
2, 91400, Note_off_c, 1, 67, 0
2, 91400, Note_off_c, 1, 82, 0
2, 91400, Note_on_c, 1, 91, 127
2, 91400, Note_on_c, 1, 96, 127
2, 91400, Note_on_c, 1, 100, 127
2, 91440, Note_off_c, 1, 48, 0
2, 91440, Note_on_c, 1, 50, 127
2, 91440, Note_on_c, 1, 56, 127
2, 91440, Note_off_c, 1, 91, 0
2, 91440, Note_on_c, 1, 95, 127
2, 91440, Note_off_c, 1, 96, 0
2, 91440, Note_off_c, 1, 100, 0
2, 91440, Note_on_c, 1, 101, 127
2, 91480, Note_on_c, 1, 40, 127
2, 91480, Note_on_c, 1, 41, 127
2, 91480, Note_on_c, 1, 42, 127
2, 91480, Note_off_c, 1, 50, 0
2, 91480, Note_off_c, 1, 56, 0
2, 91480, Note_off_c, 1, 95, 0
2, 91480, Note_off_c, 1, 101, 0
2, 91520, Note_on_c, 1, 34, 127
2, 91520, Note_off_c, 1, 40, 0
2, 91520, Note_off_c, 1, 41, 0
2, 91520, Note_off_c, 1, 42, 0
2, 91520, Note_on_c, 1, 59, 127
2, 91520, Note_on_c, 1, 65, 127
2, 91520, Note_on_c, 1, 68, 127
2, 91560, Note_on_c, 1, 32, 127
2, 91560, Note_off_c, 1, 34, 0
2, 91560, Note_off_c, 1, 59, 0
2, 91560, Note_off_c, 1, 65, 0
2, 91560, Note_off_c, 1, 68, 0
2, 91600, Note_off_c, 1, 32, 0
2, 91600, Note_on_c, 1, 37, 127
2, 91600, Note_on_c, 1, 71, 127
2, 91600, Note_on_c, 1, 74, 127
2, 91600, Note_on_c, 1, 78, 127
2, 91600, Note_on_c, 1, 83, 127
2, 91640, Note_off_c, 1, 37, 0
2, 91640, Note_on_c, 1, 38, 127
2, 91640, Note_on_c, 1, 50, 127
2, 91640, Note_on_c, 1, 69, 127
2, 91640, Note_off_c, 1, 71, 0
2, 91640, Note_off_c, 1, 83, 0
2, 91640, Note_on_c, 1, 86, 127
2, 92120, Note_off_c, 1, 38, 0
2, 92120, Note_off_c, 1, 69, 0
2, 92120, Note_off_c, 1, 74, 0
2, 92120, Note_off_c, 1, 78, 0
2, 92120, Note_off_c, 1, 86, 0
2, 92160, Note_off_c, 1, 50, 0
2, 92160, Note_on_c, 1, 79, 127
2, 92160, Note_on_c, 1, 82, 127
2, 92160, Note_on_c, 1, 88, 127
2, 92160, Note_on_c, 1, 100, 127
2, 92200, Note_on_c, 1, 45, 127
2, 92200, Note_on_c, 1, 52, 127
2, 92200, Note_off_c, 1, 79, 0
2, 92200, Note_off_c, 1, 82, 0
2, 92200, Note_on_c, 1, 83, 127
2, 92200, Note_off_c, 1, 88, 0
2, 92200, Note_on_c, 1, 91, 127
2, 92200, Note_on_c, 1, 95, 127
2, 92200, Note_off_c, 1, 100, 0
2, 92240, Note_on_c, 1, 33, 127
2, 92240, Note_off_c, 1, 45, 0
2, 92240, Note_on_c, 1, 46, 127
2, 92240, Note_off_c, 1, 52, 0
2, 92240, Note_on_c, 1, 56, 127
2, 92240, Note_on_c, 1, 59, 127
2, 92240, Note_on_c, 1, 67, 127
2, 92240, Note_off_c, 1, 83, 0
2, 92240, Note_off_c, 1, 91, 0
2, 92240, Note_off_c, 1, 95, 0
2, 92280, Note_off_c, 1, 33, 0
2, 92280, Note_off_c, 1, 46, 0
2, 92280, Note_on_c, 1, 50, 127
2, 92280, Note_on_c, 1, 54, 127
2, 92280, Note_off_c, 1, 56, 0
2, 92280, Note_on_c, 1, 60, 127
2, 92280, Note_off_c, 1, 67, 0
2, 92320, Note_off_c, 1, 50, 0
2, 92320, Note_off_c, 1, 54, 0
2, 92320, Note_off_c, 1, 59, 0
2, 92320, Note_off_c, 1, 60, 0
2, 92320, Note_on_c, 1, 62, 127
2, 92320, Note_on_c, 1, 66, 127
2, 92320, Note_on_c, 1, 72, 127
2, 92320, Note_on_c, 1, 76, 127
2, 92320, Note_on_c, 1, 88, 127
2, 92360, Note_on_c, 1, 34, 127
2, 92360, Note_on_c, 1, 50, 127
2, 92360, Note_on_c, 1, 56, 127
2, 92360, Note_on_c, 1, 58, 127
2, 92360, Note_off_c, 1, 66, 0
2, 92360, Note_off_c, 1, 72, 0
2, 92360, Note_off_c, 1, 76, 0
2, 92360, Note_off_c, 1, 88, 0
2, 92400, Note_off_c, 1, 34, 0
2, 92400, Note_on_c, 1, 36, 127
2, 92400, Note_on_c, 1, 39, 127
2, 92400, Note_on_c, 1, 44, 127
2, 92400, Note_on_c, 1, 48, 127
2, 92400, Note_off_c, 1, 50, 0
2, 92400, Note_off_c, 1, 56, 0
2, 92400, Note_off_c, 1, 58, 0
2, 92400, Note_on_c, 1, 60, 127
2, 92400, Note_off_c, 1, 62, 0
2, 92400, Note_on_c, 1, 63, 127
2, 92400, Note_on_c, 1, 68, 127
2, 92400, Note_on_c, 1, 72, 127
2, 92440, Note_off_c, 1, 36, 0
2, 92440, Note_off_c, 1, 39, 0
2, 92440, Note_off_c, 1, 44, 0
2, 92440, Note_off_c, 1, 48, 0
2, 92440, Note_on_c, 1, 49, 127
2, 92440, Note_on_c, 1, 53, 127
2, 92440, Note_on_c, 1, 58, 127
2, 92440, Note_off_c, 1, 60, 0
2, 92440, Note_on_c, 1, 61, 127
2, 92440, Note_off_c, 1, 63, 0
2, 92440, Note_off_c, 1, 68, 0
2, 92440, Note_off_c, 1, 72, 0
2, 92440, Note_on_c, 1, 103, 127
2, 92480, Note_on_c, 1, 43, 127
2, 92480, Note_off_c, 1, 49, 0
2, 92480, Note_on_c, 1, 50, 127
2, 92480, Note_off_c, 1, 53, 0
2, 92480, Note_on_c, 1, 55, 127
2, 92480, Note_off_c, 1, 58, 0
2, 92480, Note_off_c, 1, 61, 0
2, 92480, Note_on_c, 1, 65, 127
2, 92480, Note_on_c, 1, 71, 127
2, 92480, Note_on_c, 1, 79, 127
2, 92480, Note_off_c, 1, 103, 0
2, 92520, Note_on_c, 1, 31, 127
2, 92520, Note_on_c, 1, 35, 127
2, 92520, Note_on_c, 1, 41, 127
2, 92520, Note_on_c, 1, 53, 127
2, 92520, Note_off_c, 1, 55, 0
2, 92520, Note_on_c, 1, 58, 127
2, 92520, Note_off_c, 1, 65, 0
2, 92520, Note_off_c, 1, 71, 0
2, 92520, Note_on_c, 1, 76, 127
2, 92520, Note_off_c, 1, 79, 0
2, 92520, Note_on_c, 1, 84, 127
2, 92520, Note_on_c, 1, 88, 127
2, 92560, Note_off_c, 1, 31, 0
2, 92560, Note_off_c, 1, 35, 0
2, 92560, Note_on_c, 1, 38, 127
2, 92560, Note_off_c, 1, 41, 0
2, 92560, Note_off_c, 1, 43, 0
2, 92560, Note_off_c, 1, 53, 0
2, 92560, Note_on_c, 1, 57, 127
2, 92560, Note_off_c, 1, 58, 0
2, 92560, Note_on_c, 1, 60, 127
2, 92560, Note_on_c, 1, 66, 127
2, 92560, Note_on_c, 1, 69, 127
2, 92560, Note_on_c, 1, 72, 127
2, 92560, Note_off_c, 1, 76, 0
2, 92560, Note_off_c, 1, 84, 0
2, 92560, Note_off_c, 1, 88, 0
2, 92600, Note_off_c, 1, 38, 0
2, 92600, Note_off_c, 1, 50, 0
2, 92600, Note_on_c, 1, 54, 127
2, 92600, Note_off_c, 1, 60, 0
2, 92600, Note_off_c, 1, 66, 0
2, 92600, Note_off_c, 1, 69, 0
2, 92600, Note_off_c, 1, 72, 0
2, 92600, Note_on_c, 1, 74, 127
2, 92600, Note_on_c, 1, 78, 127
2, 92600, Note_on_c, 1, 80, 127
2, 92640, Note_on_c, 1, 41, 127
2, 92640, Note_on_c, 1, 48, 127
2, 92640, Note_on_c, 1, 51, 127
2, 92640, Note_on_c, 1, 53, 127
2, 92640, Note_off_c, 1, 54, 0
2, 92640, Note_off_c, 1, 57, 0
2, 92640, Note_on_c, 1, 69, 127
2, 92640, Note_on_c, 1, 72, 127
2, 92640, Note_off_c, 1, 74, 0
2, 92640, Note_off_c, 1, 78, 0
2, 92640, Note_off_c, 1, 80, 0
2, 92640, Note_on_c, 1, 81, 127
2, 92680, Note_off_c, 1, 41, 0
2, 92680, Note_on_c, 1, 43, 127
2, 92680, Note_off_c, 1, 48, 0
2, 92680, Note_off_c, 1, 51, 0
2, 92680, Note_off_c, 1, 53, 0
2, 92680, Note_on_c, 1, 55, 127
2, 92680, Note_on_c, 1, 60, 127
2, 92680, Note_on_c, 1, 62, 127
2, 92680, Note_off_c, 1, 72, 0
2, 92680, Note_off_c, 1, 81, 0
2, 92720, Note_off_c, 1, 43, 0
2, 92720, Note_off_c, 1, 55, 0
2, 92720, Note_off_c, 1, 60, 0
2, 92720, Note_off_c, 1, 62, 0
2, 92720, Note_off_c, 1, 69, 0
2, 92720, Note_on_c, 1, 85, 127
2, 92720, Note_on_c, 1, 97, 127
2, 92760, Note_on_c, 1, 68, 127
2, 92760, Note_on_c, 1, 75, 127
2, 92760, Note_on_c, 1, 78, 127
2, 92760, Note_on_c, 1, 84, 127
2, 92760, Note_off_c, 1, 85, 0
2, 92760, Note_on_c, 1, 90, 127
2, 92760, Note_on_c, 1, 96, 127
2, 92760, Note_off_c, 1, 97, 0
2, 92800, Note_on_c, 1, 46, 127
2, 92800, Note_on_c, 1, 63, 127
2, 92800, Note_on_c, 1, 66, 127
2, 92800, Note_off_c, 1, 68, 0
2, 92800, Note_on_c, 1, 70, 127
2, 92800, Note_off_c, 1, 75, 0
2, 92800, Note_off_c, 1, 78, 0
2, 92800, Note_off_c, 1, 84, 0
2, 92800, Note_off_c, 1, 90, 0
2, 92800, Note_off_c, 1, 96, 0
2, 92840, Note_off_c, 1, 46, 0
2, 92840, Note_on_c, 1, 51, 127
2, 92840, Note_on_c, 1, 58, 127
2, 92840, Note_off_c, 1, 63, 0
2, 92840, Note_off_c, 1, 66, 0
2, 92840, Note_off_c, 1, 70, 0
2, 92840, Note_on_c, 1, 85, 127
2, 92880, Note_on_c, 1, 44, 127
2, 92880, Note_off_c, 1, 51, 0
2, 92880, Note_on_c, 1, 56, 127
2, 92880, Note_off_c, 1, 58, 0
2, 92880, Note_off_c, 1, 85, 0
2, 92880, Note_on_c, 1, 86, 127
2, 92880, Note_on_c, 1, 90, 127
2, 92880, Note_on_c, 1, 98, 127
2, 92920, Note_on_c, 1, 41, 127
2, 92920, Note_off_c, 1, 44, 0
2, 92920, Note_off_c, 1, 56, 0
2, 92920, Note_on_c, 1, 63, 127
2, 92920, Note_on_c, 1, 67, 127
2, 92920, Note_on_c, 1, 75, 127
2, 92920, Note_off_c, 1, 86, 0
2, 92920, Note_off_c, 1, 90, 0
2, 92920, Note_off_c, 1, 98, 0
2, 92960, Note_off_c, 1, 41, 0
2, 92960, Note_off_c, 1, 63, 0
2, 92960, Note_off_c, 1, 67, 0
2, 92960, Note_off_c, 1, 75, 0
2, 93000, Note_on_c, 1, 54, 127
2, 93000, Note_on_c, 1, 58, 127
2, 93000, Note_on_c, 1, 63, 127
2, 93000, Note_on_c, 1, 73, 127
2, 93040, Note_off_c, 1, 54, 0
2, 93040, Note_off_c, 1, 58, 0
2, 93040, Note_off_c, 1, 63, 0
2, 93040, Note_off_c, 1, 73, 0
2, 93080, Note_on_c, 1, 41, 127
2, 93080, Note_on_c, 1, 53, 127
2, 93080, Note_on_c, 1, 61, 127
2, 93080, Note_on_c, 1, 64, 127
2, 93080, Note_on_c, 1, 70, 127
2, 93280, Note_on_c, 1, 44, 127
2, 93280, Note_on_c, 1, 51, 127
2, 93280, Note_off_c, 1, 53, 0
2, 93280, Note_on_c, 1, 56, 127
2, 93280, Note_on_c, 1, 60, 127
2, 93280, Note_off_c, 1, 64, 0
2, 93280, Note_on_c, 1, 66, 127
2, 93280, Note_on_c, 1, 68, 127
2, 93280, Note_off_c, 1, 70, 0
2, 93320, Note_off_c, 1, 41, 0
2, 93320, Note_off_c, 1, 44, 0
2, 93320, Note_off_c, 1, 51, 0
2, 93320, Note_off_c, 1, 56, 0
2, 93320, Note_off_c, 1, 60, 0
2, 93320, Note_off_c, 1, 61, 0
2, 93320, Note_off_c, 1, 66, 0
2, 93320, Note_off_c, 1, 68, 0
2, 93360, Note_on_c, 1, 40, 127
2, 93360, Note_on_c, 1, 48, 127
2, 93360, Note_on_c, 1, 55, 127
2, 93360, Note_on_c, 1, 60, 127
2, 93640, Note_off_c, 1, 40, 0
2, 93640, Note_off_c, 1, 48, 0
2, 93640, Note_off_c, 1, 55, 0
2, 93640, Note_off_c, 1, 60, 0
2, 93680, Note_on_c, 1, 36, 127
2, 93680, Note_on_c, 1, 41, 127
2, 93680, Note_on_c, 1, 48, 127
2, 93680, Note_on_c, 1, 51, 127
2, 93680, Note_on_c, 1, 53, 127
2, 93680, Note_on_c, 1, 57, 127
2, 94200, Note_off_c, 1, 36, 0
2, 94200, Note_off_c, 1, 41, 0
2, 94200, Note_off_c, 1, 48, 0
2, 94200, Note_off_c, 1, 51, 0
2, 94200, Note_off_c, 1, 53, 0
2, 94200, Note_off_c, 1, 57, 0
2, 94240, Note_on_c, 1, 70, 127
2, 94240, Note_on_c, 1, 75, 127
2, 94240, Note_on_c, 1, 79, 127
2, 94240, Note_on_c, 1, 91, 127
2, 94280, Note_on_c, 1, 63, 127
2, 94280, Note_on_c, 1, 69, 127
2, 94280, Note_off_c, 1, 70, 0
2, 94280, Note_on_c, 1, 73, 127
2, 94280, Note_off_c, 1, 75, 0
2, 94280, Note_on_c, 1, 76, 127
2, 94280, Note_off_c, 1, 79, 0
2, 94280, Note_on_c, 1, 80, 127
2, 94280, Note_off_c, 1, 91, 0
2, 94320, Note_off_c, 1, 63, 0
2, 94320, Note_off_c, 1, 69, 0
2, 94320, Note_on_c, 1, 70, 127
2, 94320, Note_off_c, 1, 73, 0
2, 94320, Note_on_c, 1, 75, 127
2, 94320, Note_off_c, 1, 76, 0
2, 94320, Note_on_c, 1, 79, 127
2, 94320, Note_off_c, 1, 80, 0
2, 94320, Note_on_c, 1, 91, 127
2, 94440, Note_on_c, 1, 53, 127
2, 94440, Note_on_c, 1, 58, 127
2, 94440, Note_on_c, 1, 67, 127
2, 94440, Note_off_c, 1, 70, 0
2, 94440, Note_off_c, 1, 75, 0
2, 94440, Note_off_c, 1, 79, 0
2, 94440, Note_on_c, 1, 85, 127
2, 94440, Note_off_c, 1, 91, 0
2, 94480, Note_on_c, 1, 37, 127
2, 94480, Note_on_c, 1, 49, 127
2, 94480, Note_off_c, 1, 53, 0
2, 94480, Note_off_c, 1, 58, 0
2, 94480, Note_on_c, 1, 65, 127
2, 94480, Note_off_c, 1, 67, 0
2, 94480, Note_on_c, 1, 71, 127
2, 94480, Note_on_c, 1, 73, 127
2, 94480, Note_off_c, 1, 85, 0
2, 94520, Note_off_c, 1, 37, 0
2, 94520, Note_off_c, 1, 49, 0
2, 94520, Note_on_c, 1, 51, 127
2, 94520, Note_on_c, 1, 58, 127
2, 94520, Note_off_c, 1, 65, 0
2, 94520, Note_off_c, 1, 71, 0
2, 94520, Note_off_c, 1, 73, 0
2, 94520, Note_on_c, 1, 79, 127
2, 94520, Note_on_c, 1, 82, 127
2, 94520, Note_on_c, 1, 84, 127
2, 94560, Note_on_c, 1, 36, 127
2, 94560, Note_on_c, 1, 39, 127
2, 94560, Note_on_c, 1, 54, 127
2, 94560, Note_on_c, 1, 57, 127
2, 94560, Note_off_c, 1, 58, 0
2, 94560, Note_on_c, 1, 60, 127
2, 94560, Note_off_c, 1, 79, 0
2, 94560, Note_off_c, 1, 82, 0
2, 94560, Note_off_c, 1, 84, 0
2, 94600, Note_on_c, 1, 34, 127
2, 94600, Note_off_c, 1, 36, 0
2, 94600, Note_off_c, 1, 39, 0
2, 94600, Note_on_c, 1, 49, 127
2, 94600, Note_off_c, 1, 51, 0
2, 94600, Note_off_c, 1, 54, 0
2, 94600, Note_off_c, 1, 57, 0
2, 94600, Note_off_c, 1, 60, 0
2, 94600, Note_on_c, 1, 61, 127
2, 94640, Note_off_c, 1, 34, 0
2, 94640, Note_on_c, 1, 44, 127
2, 94640, Note_off_c, 1, 49, 0
2, 94640, Note_off_c, 1, 61, 0
2, 94640, Note_on_c, 1, 84, 127
2, 94640, Note_on_c, 1, 87, 127
2, 94640, Note_on_c, 1, 96, 127
2, 94680, Note_off_c, 1, 44, 0
2, 94680, Note_on_c, 1, 46, 127
2, 94680, Note_on_c, 1, 50, 127
2, 94680, Note_on_c, 1, 53, 127
2, 94680, Note_off_c, 1, 84, 0
2, 94680, Note_off_c, 1, 87, 0
2, 94680, Note_on_c, 1, 89, 127
2, 94680, Note_on_c, 1, 94, 127
2, 94680, Note_off_c, 1, 96, 0
2, 94680, Note_on_c, 1, 98, 127
2, 94720, Note_off_c, 1, 46, 0
2, 94720, Note_off_c, 1, 50, 0
2, 94720, Note_off_c, 1, 53, 0
2, 94720, Note_on_c, 1, 58, 127
2, 94720, Note_on_c, 1, 62, 127
2, 94720, Note_off_c, 1, 94, 0
2, 94720, Note_off_c, 1, 98, 0
2, 94720, Note_on_c, 1, 101, 127
2, 94760, Note_on_c, 1, 49, 127
2, 94760, Note_off_c, 1, 58, 0
2, 94760, Note_on_c, 1, 61, 127
2, 94760, Note_off_c, 1, 62, 0
2, 94760, Note_on_c, 1, 72, 127
2, 94760, Note_on_c, 1, 73, 127
2, 94760, Note_off_c, 1, 89, 0
2, 94760, Note_off_c, 1, 101, 0
2, 94800, Note_off_c, 1, 49, 0
2, 94800, Note_off_c, 1, 61, 0
2, 94800, Note_off_c, 1, 72, 0
2, 94800, Note_off_c, 1, 73, 0
2, 94840, Note_on_c, 1, 41, 127
2, 94840, Note_on_c, 1, 50, 127
2, 94840, Note_on_c, 1, 76, 127
2, 95160, Note_off_c, 1, 41, 0
2, 95160, Note_off_c, 1, 50, 0
2, 95160, Note_off_c, 1, 76, 0
2, 95200, Note_on_c, 1, 41, 127
2, 95200, Note_on_c, 1, 50, 127
2, 95200, Note_on_c, 1, 76, 127
2, 95440, Note_off_c, 1, 76, 0
2, 95480, Note_off_c, 1, 41, 0
2, 95480, Note_off_c, 1, 50, 0
2, 95480, Note_on_c, 1, 58, 127
2, 95480, Note_on_c, 1, 65, 127
2, 95480, Note_on_c, 1, 68, 127
2, 95480, Note_on_c, 1, 72, 127
2, 95480, Note_on_c, 1, 75, 127
2, 96000, Note_off_c, 1, 58, 0
2, 96000, Note_off_c, 1, 65, 0
2, 96000, Note_off_c, 1, 68, 0
2, 96000, Note_off_c, 1, 72, 0
2, 96000, Note_off_c, 1, 75, 0
2, 96040, Note_on_c, 1, 63, 127
2, 96040, Note_on_c, 1, 67, 127
2, 96040, Note_on_c, 1, 70, 127
2, 96560, Note_off_c, 1, 63, 0
2, 96560, Note_off_c, 1, 67, 0
2, 96560, Note_off_c, 1, 70, 0
2, 96600, Note_on_c, 1, 51, 127
2, 96600, Note_on_c, 1, 58, 127
2, 96600, Note_on_c, 1, 63, 127
2, 96600, Note_on_c, 1, 67, 127
2, 96600, Note_on_c, 1, 74, 127
2, 96840, Note_off_c, 1, 51, 0
2, 96840, Note_off_c, 1, 58, 0
2, 96840, Note_off_c, 1, 63, 0
2, 96840, Note_off_c, 1, 67, 0
2, 96840, Note_off_c, 1, 74, 0
2, 96880, Note_on_c, 1, 72, 127
2, 96880, Note_on_c, 1, 75, 127
2, 96880, Note_on_c, 1, 77, 127
2, 97280, Note_off_c, 1, 72, 0
2, 97280, Note_off_c, 1, 75, 0
2, 97280, Note_off_c, 1, 77, 0
2, 97320, Note_on_c, 1, 72, 127
2, 97320, Note_on_c, 1, 75, 127
2, 97320, Note_on_c, 1, 77, 127
2, 97480, Note_off_c, 1, 72, 0
2, 97480, Note_off_c, 1, 75, 0
2, 97480, Note_off_c, 1, 77, 0
2, 97520, Note_on_c, 1, 56, 127
2, 97520, Note_on_c, 1, 60, 127
2, 97520, Note_on_c, 1, 67, 127
2, 97520, Note_on_c, 1, 72, 127
2, 97520, Note_on_c, 1, 80, 127
2, 97560, Note_on_c, 1, 54, 127
2, 97560, Note_off_c, 1, 56, 0
2, 97560, Note_off_c, 1, 60, 0
2, 97560, Note_off_c, 1, 67, 0
2, 97560, Note_off_c, 1, 72, 0
2, 97560, Note_on_c, 1, 78, 127
2, 97560, Note_off_c, 1, 80, 0
2, 97560, Note_on_c, 1, 90, 127
2, 97560, Note_on_c, 1, 93, 127
2, 97600, Note_on_c, 1, 49, 127
2, 97600, Note_off_c, 1, 54, 0
2, 97600, Note_on_c, 1, 61, 127
2, 97600, Note_on_c, 1, 70, 127
2, 97600, Note_off_c, 1, 78, 0
2, 97600, Note_off_c, 1, 90, 0
2, 97600, Note_off_c, 1, 93, 0
2, 97600, Note_on_c, 1, 94, 127
2, 97640, Note_off_c, 1, 49, 0
2, 97640, Note_off_c, 1, 61, 0
2, 97640, Note_on_c, 1, 69, 127
2, 97640, Note_off_c, 1, 70, 0
2, 97640, Note_on_c, 1, 88, 127
2, 97640, Note_on_c, 1, 93, 127
2, 97640, Note_off_c, 1, 94, 0
2, 97640, Note_on_c, 1, 100, 127
2, 97680, Note_on_c, 1, 48, 127
2, 97680, Note_on_c, 1, 59, 127
2, 97680, Note_on_c, 1, 67, 127
2, 97680, Note_off_c, 1, 69, 0
2, 97680, Note_on_c, 1, 70, 127
2, 97680, Note_off_c, 1, 88, 0
2, 97680, Note_off_c, 1, 93, 0
2, 97680, Note_off_c, 1, 100, 0
2, 97720, Note_on_c, 1, 47, 127
2, 97720, Note_off_c, 1, 48, 0
2, 97720, Note_on_c, 1, 51, 127
2, 97720, Note_on_c, 1, 55, 127
2, 97720, Note_off_c, 1, 59, 0
2, 97720, Note_on_c, 1, 63, 127
2, 97720, Note_off_c, 1, 67, 0
2, 97720, Note_off_c, 1, 70, 0
2, 97720, Note_on_c, 1, 71, 127
2, 97720, Note_on_c, 1, 75, 127
2, 97760, Note_off_c, 1, 47, 0
2, 97760, Note_off_c, 1, 51, 0
2, 97760, Note_on_c, 1, 53, 127
2, 97760, Note_off_c, 1, 55, 0
2, 97760, Note_off_c, 1, 63, 0
2, 97760, Note_on_c, 1, 65, 127
2, 97760, Note_off_c, 1, 71, 0
2, 97760, Note_off_c, 1, 75, 0
2, 97760, Note_on_c, 1, 86, 127
2, 97760, Note_on_c, 1, 89, 127
2, 97760, Note_on_c, 1, 93, 127
2, 97800, Note_off_c, 1, 53, 0
2, 97800, Note_off_c, 1, 65, 0
2, 97800, Note_on_c, 1, 72, 127
2, 97800, Note_off_c, 1, 86, 0
2, 97800, Note_on_c, 1, 92, 127
2, 97800, Note_off_c, 1, 93, 0
2, 97840, Note_on_c, 1, 38, 127
2, 97840, Note_on_c, 1, 54, 127
2, 97840, Note_on_c, 1, 66, 127
2, 97840, Note_on_c, 1, 70, 127
2, 97840, Note_off_c, 1, 72, 0
2, 97840, Note_off_c, 1, 89, 0
2, 97840, Note_off_c, 1, 92, 0
2, 97880, Note_off_c, 1, 38, 0
2, 97880, Note_off_c, 1, 54, 0
2, 97880, Note_off_c, 1, 66, 0
2, 97880, Note_on_c, 1, 69, 127
2, 97880, Note_off_c, 1, 70, 0
2, 97880, Note_on_c, 1, 72, 127
2, 97880, Note_on_c, 1, 77, 127
2, 97880, Note_on_c, 1, 81, 127
2, 97880, Note_on_c, 1, 84, 127
2, 97920, Note_on_c, 1, 51, 127
2, 97920, Note_off_c, 1, 69, 0
2, 97920, Note_off_c, 1, 72, 0
2, 97920, Note_off_c, 1, 77, 0
2, 97920, Note_off_c, 1, 81, 0
2, 97920, Note_off_c, 1, 84, 0
2, 97920, Note_on_c, 1, 96, 127
2, 97960, Note_off_c, 1, 51, 0
2, 97960, Note_on_c, 1, 55, 127
2, 97960, Note_on_c, 1, 65, 127
2, 97960, Note_on_c, 1, 73, 127
2, 97960, Note_on_c, 1, 77, 127
2, 97960, Note_off_c, 1, 96, 0
2, 98080, Note_off_c, 1, 55, 0
2, 98080, Note_on_c, 1, 61, 127
2, 98080, Note_off_c, 1, 65, 0
2, 98080, Note_off_c, 1, 73, 0
2, 98080, Note_off_c, 1, 77, 0
2, 98120, Note_on_c, 1, 57, 127
2, 98120, Note_off_c, 1, 61, 0
2, 98120, Note_on_c, 1, 72, 127
2, 98120, Note_on_c, 1, 75, 127
2, 98120, Note_on_c, 1, 78, 127
2, 98360, Note_off_c, 1, 72, 0
2, 98360, Note_off_c, 1, 75, 0
2, 98360, Note_off_c, 1, 78, 0
2, 98400, Note_on_c, 1, 40, 127
2, 98400, Note_on_c, 1, 44, 127
2, 98400, Note_on_c, 1, 47, 127
2, 98400, Note_on_c, 1, 50, 127
2, 98400, Note_off_c, 1, 57, 0
2, 98400, Note_on_c, 1, 80, 127
2, 98400, Note_on_c, 1, 83, 127
2, 98440, Note_off_c, 1, 40, 0
2, 98440, Note_off_c, 1, 44, 0
2, 98440, Note_off_c, 1, 47, 0
2, 98440, Note_off_c, 1, 50, 0
2, 98440, Note_on_c, 1, 59, 127
2, 98440, Note_on_c, 1, 64, 127
2, 98440, Note_on_c, 1, 66, 127
2, 98440, Note_on_c, 1, 71, 127
2, 98440, Note_on_c, 1, 73, 127
2, 98440, Note_off_c, 1, 80, 0
2, 98440, Note_off_c, 1, 83, 0
2, 98480, Note_on_c, 1, 48, 127
2, 98480, Note_off_c, 1, 64, 0
2, 98480, Note_off_c, 1, 66, 0
2, 98480, Note_on_c, 1, 67, 127
2, 98480, Note_off_c, 1, 73, 0
2, 98480, Note_on_c, 1, 74, 127
2, 98480, Note_on_c, 1, 79, 127
2, 98520, Note_off_c, 1, 48, 0
2, 98520, Note_on_c, 1, 64, 127
2, 98520, Note_on_c, 1, 66, 127
2, 98520, Note_off_c, 1, 67, 0
2, 98520, Note_on_c, 1, 73, 127
2, 98520, Note_off_c, 1, 74, 0
2, 98520, Note_off_c, 1, 79, 0
2, 98680, Note_on_c, 1, 58, 127
2, 98680, Note_off_c, 1, 59, 0
2, 98680, Note_on_c, 1, 63, 127
2, 98680, Note_off_c, 1, 64, 0
2, 98680, Note_on_c, 1, 65, 127
2, 98680, Note_off_c, 1, 66, 0
2, 98680, Note_off_c, 1, 71, 0
2, 98680, Note_off_c, 1, 73, 0
2, 98720, Note_on_c, 1, 46, 127
2, 98720, Note_on_c, 1, 53, 127
2, 98720, Note_off_c, 1, 63, 0
2, 98720, Note_on_c, 1, 68, 127
2, 98720, Note_on_c, 1, 74, 127
2, 98720, Note_on_c, 1, 82, 127
2, 98760, Note_on_c, 1, 44, 127
2, 98760, Note_off_c, 1, 46, 0
2, 98760, Note_on_c, 1, 47, 127
2, 98760, Note_on_c, 1, 51, 127
2, 98760, Note_off_c, 1, 53, 0
2, 98760, Note_on_c, 1, 54, 127
2, 98760, Note_off_c, 1, 58, 0
2, 98760, Note_off_c, 1, 65, 0
2, 98760, Note_off_c, 1, 68, 0
2, 98760, Note_on_c, 1, 71, 127
2, 98760, Note_off_c, 1, 74, 0
2, 98760, Note_off_c, 1, 82, 0
2, 98760, Note_on_c, 1, 83, 127
2, 98840, Note_off_c, 1, 47, 0
2, 98840, Note_off_c, 1, 51, 0
2, 98840, Note_on_c, 1, 53, 127
2, 98840, Note_off_c, 1, 54, 0
2, 98840, Note_off_c, 1, 71, 0
2, 98840, Note_off_c, 1, 83, 0
2, 98840, Note_on_c, 1, 85, 127
2, 98880, Note_off_c, 1, 44, 0
2, 98880, Note_off_c, 1, 53, 0
2, 98880, Note_on_c, 1, 62, 127
2, 98880, Note_on_c, 1, 68, 127
2, 98880, Note_on_c, 1, 73, 127
2, 98880, Note_on_c, 1, 80, 127
2, 98880, Note_off_c, 1, 85, 0
2, 98880, Note_on_c, 1, 89, 127
2, 98880, Note_on_c, 1, 92, 127
2, 98920, Note_on_c, 1, 48, 127
2, 98920, Note_on_c, 1, 61, 127
2, 98920, Note_off_c, 1, 62, 0
2, 98920, Note_off_c, 1, 68, 0
2, 98920, Note_off_c, 1, 80, 0
2, 98920, Note_off_c, 1, 89, 0
2, 98920, Note_off_c, 1, 92, 0
2, 98960, Note_on_c, 1, 43, 127
2, 98960, Note_on_c, 1, 47, 127
2, 98960, Note_off_c, 1, 48, 0
2, 98960, Note_on_c, 1, 55, 127
2, 98960, Note_off_c, 1, 61, 0
2, 98960, Note_off_c, 1, 73, 0
2, 98960, Note_on_c, 1, 77, 127
2, 99000, Note_off_c, 1, 43, 0
2, 99000, Note_off_c, 1, 47, 0
2, 99000, Note_off_c, 1, 55, 0
2, 99000, Note_on_c, 1, 60, 127
2, 99000, Note_on_c, 1, 63, 127
2, 99000, Note_on_c, 1, 70, 127
2, 99040, Note_on_c, 1, 48, 127
2, 99040, Note_on_c, 1, 52, 127
2, 99040, Note_on_c, 1, 55, 127
2, 99040, Note_off_c, 1, 63, 0
2, 99040, Note_off_c, 1, 70, 0
2, 99040, Note_off_c, 1, 77, 0
2, 99040, Note_on_c, 1, 79, 127
2, 99040, Note_on_c, 1, 84, 127
2, 99040, Note_on_c, 1, 88, 127
2, 99080, Note_off_c, 1, 48, 0
2, 99080, Note_off_c, 1, 52, 0
2, 99080, Note_off_c, 1, 55, 0
2, 99080, Note_off_c, 1, 60, 0
2, 99080, Note_on_c, 1, 63, 127
2, 99080, Note_on_c, 1, 64, 127
2, 99080, Note_on_c, 1, 70, 127
2, 99080, Note_on_c, 1, 73, 127
2, 99080, Note_off_c, 1, 79, 0
2, 99080, Note_off_c, 1, 84, 0
2, 99080, Note_off_c, 1, 88, 0
2, 99120, Note_on_c, 1, 56, 127
2, 99120, Note_off_c, 1, 63, 0
2, 99120, Note_off_c, 1, 64, 0
2, 99120, Note_off_c, 1, 70, 0
2, 99120, Note_off_c, 1, 73, 0
2, 99120, Note_on_c, 1, 75, 127
2, 99120, Note_on_c, 1, 83, 127
2, 99160, Note_off_c, 1, 56, 0
2, 99160, Note_on_c, 1, 57, 127
2, 99160, Note_on_c, 1, 63, 127
2, 99160, Note_off_c, 1, 75, 0
2, 99160, Note_off_c, 1, 83, 0
2, 99160, Note_on_c, 1, 85, 127
2, 99240, Note_off_c, 1, 57, 0
2, 99240, Note_off_c, 1, 63, 0
2, 99240, Note_off_c, 1, 85, 0
2, 99280, Note_on_c, 1, 63, 127
2, 99280, Note_on_c, 1, 75, 127
2, 99280, Note_on_c, 1, 80, 127
2, 99280, Note_on_c, 1, 87, 127
2, 99480, Note_off_c, 1, 63, 0
2, 99480, Note_off_c, 1, 75, 0
2, 99480, Note_off_c, 1, 80, 0
2, 99480, Note_off_c, 1, 87, 0
2, 99520, Note_on_c, 1, 63, 127
2, 99520, Note_on_c, 1, 75, 127
2, 99520, Note_on_c, 1, 80, 127
2, 99520, Note_on_c, 1, 87, 127
2, 100160, Note_off_c, 1, 63, 0
2, 100200, Note_on_c, 1, 60, 127
2, 100440, Note_off_c, 1, 60, 0
2, 100480, Note_on_c, 1, 58, 127
2, 100720, Note_on_c, 1, 48, 127
2, 100720, Note_on_c, 1, 56, 127
2, 100720, Note_off_c, 1, 58, 0
2, 100720, Note_off_c, 1, 75, 0
2, 100720, Note_off_c, 1, 80, 0
2, 100720, Note_off_c, 1, 87, 0
2, 100760, Note_on_c, 1, 44, 127
2, 100760, Note_off_c, 1, 48, 0
2, 100760, Note_off_c, 1, 56, 0
2, 100760, Note_on_c, 1, 59, 127
2, 100760, Note_on_c, 1, 75, 127
2, 101000, Note_off_c, 1, 59, 0
2, 101000, Note_off_c, 1, 75, 0
2, 101040, Note_off_c, 1, 44, 0
2, 101040, Note_on_c, 1, 47, 127
2, 101040, Note_on_c, 1, 52, 127
2, 101040, Note_on_c, 1, 74, 127
2, 101040, Note_on_c, 1, 76, 127
2, 101040, Note_on_c, 1, 80, 127
2, 101560, Note_off_c, 1, 47, 0
2, 101560, Note_off_c, 1, 52, 0
2, 101560, Note_off_c, 1, 74, 0
2, 101560, Note_off_c, 1, 76, 0
2, 101560, Note_off_c, 1, 80, 0
2, 101600, Note_on_c, 1, 47, 127
2, 101600, Note_on_c, 1, 52, 127
2, 101600, Note_on_c, 1, 74, 127
2, 101600, Note_on_c, 1, 76, 127
2, 101600, Note_on_c, 1, 80, 127
2, 101880, Note_off_c, 1, 47, 0
2, 101880, Note_off_c, 1, 52, 0
2, 101880, Note_off_c, 1, 74, 0
2, 101880, Note_off_c, 1, 80, 0
2, 101920, Note_on_c, 1, 49, 127
2, 101920, Note_on_c, 1, 52, 127
2, 101920, Note_off_c, 1, 76, 0
2, 101920, Note_on_c, 1, 83, 127
2, 102160, Note_off_c, 1, 52, 0
2, 102160, Note_off_c, 1, 83, 0
2, 102200, Note_on_c, 1, 52, 127
2, 102200, Note_on_c, 1, 71, 127
2, 102440, Note_off_c, 1, 52, 0
2, 102440, Note_off_c, 1, 71, 0
2, 102480, Note_on_c, 1, 52, 127
2, 102480, Note_on_c, 1, 64, 127
2, 102480, Note_on_c, 1, 69, 127
2, 102720, Note_off_c, 1, 49, 0
2, 102720, Note_off_c, 1, 52, 0
2, 102720, Note_off_c, 1, 64, 0
2, 102720, Note_off_c, 1, 69, 0
2, 102760, Note_on_c, 1, 38, 127
2, 102760, Note_on_c, 1, 47, 127
2, 102760, Note_on_c, 1, 68, 127
2, 102760, Note_on_c, 1, 80, 127
2, 102800, Note_off_c, 1, 38, 0
2, 102800, Note_off_c, 1, 47, 0
2, 102800, Note_on_c, 1, 54, 127
2, 102800, Note_on_c, 1, 60, 127
2, 102800, Note_on_c, 1, 63, 127
2, 102800, Note_off_c, 1, 68, 0
2, 102800, Note_on_c, 1, 72, 127
2, 102800, Note_off_c, 1, 80, 0
2, 102800, Note_on_c, 1, 83, 127
2, 102840, Note_off_c, 1, 54, 0
2, 102840, Note_on_c, 1, 59, 127
2, 102840, Note_off_c, 1, 60, 0
2, 102840, Note_off_c, 1, 63, 0
2, 102840, Note_on_c, 1, 65, 127
2, 102840, Note_on_c, 1, 67, 127
2, 102840, Note_on_c, 1, 71, 127
2, 102840, Note_off_c, 1, 72, 0
2, 102840, Note_on_c, 1, 75, 127
2, 102840, Note_off_c, 1, 83, 0
2, 102880, Note_on_c, 1, 54, 127
2, 102880, Note_off_c, 1, 59, 0
2, 102880, Note_on_c, 1, 60, 127
2, 102880, Note_on_c, 1, 63, 127
2, 102880, Note_off_c, 1, 65, 0
2, 102880, Note_off_c, 1, 67, 0
2, 102880, Note_off_c, 1, 71, 0
2, 102880, Note_on_c, 1, 72, 127
2, 102880, Note_off_c, 1, 75, 0
2, 102880, Note_on_c, 1, 83, 127
2, 103040, Note_on_c, 1, 51, 127
2, 103040, Note_off_c, 1, 54, 0
2, 103040, Note_on_c, 1, 55, 127
2, 103040, Note_off_c, 1, 60, 0
2, 103040, Note_off_c, 1, 63, 0
2, 103040, Note_off_c, 1, 72, 0
2, 103040, Note_on_c, 1, 82, 127
2, 103040, Note_off_c, 1, 83, 0
2, 103080, Note_off_c, 1, 55, 0
2, 103080, Note_on_c, 1, 57, 127
2, 103080, Note_on_c, 1, 60, 127
2, 103080, Note_on_c, 1, 65, 127
2, 103080, Note_on_c, 1, 69, 127
2, 103080, Note_off_c, 1, 82, 0
2, 103320, Note_off_c, 1, 69, 0
2, 103360, Note_off_c, 1, 51, 0
2, 103360, Note_off_c, 1, 57, 0
2, 103360, Note_off_c, 1, 60, 0
2, 103360, Note_off_c, 1, 65, 0
2, 103360, Note_on_c, 1, 66, 127
2, 103360, Note_on_c, 1, 75, 127
2, 103360, Note_on_c, 1, 78, 127
2, 103360, Note_on_c, 1, 82, 127
2, 103360, Note_on_c, 1, 94, 127
2, 103400, Note_on_c, 1, 44, 127
2, 103400, Note_on_c, 1, 56, 127
2, 103400, Note_on_c, 1, 64, 127
2, 103400, Note_off_c, 1, 66, 0
2, 103400, Note_on_c, 1, 72, 127
2, 103400, Note_off_c, 1, 75, 0
2, 103400, Note_off_c, 1, 82, 0
2, 103400, Note_off_c, 1, 94, 0
2, 103440, Note_off_c, 1, 44, 0
2, 103440, Note_off_c, 1, 56, 0
2, 103440, Note_on_c, 1, 59, 127
2, 103440, Note_on_c, 1, 62, 127
2, 103440, Note_off_c, 1, 64, 0
2, 103440, Note_on_c, 1, 71, 127
2, 103440, Note_off_c, 1, 72, 0
2, 103440, Note_off_c, 1, 78, 0
2, 103440, Note_on_c, 1, 79, 127
2, 103440, Note_on_c, 1, 88, 127
2, 103480, Note_off_c, 1, 59, 0
2, 103480, Note_off_c, 1, 62, 0
2, 103480, Note_off_c, 1, 71, 0
2, 103480, Note_off_c, 1, 79, 0
2, 103480, Note_off_c, 1, 88, 0
2, 103520, Note_on_c, 1, 58, 127
2, 103520, Note_on_c, 1, 66, 127
2, 103520, Note_on_c, 1, 74, 127
2, 103520, Note_on_c, 1, 84, 127
2, 103560, Note_on_c, 1, 57, 127
2, 103560, Note_off_c, 1, 58, 0
2, 103560, Note_on_c, 1, 60, 127
2, 103560, Note_on_c, 1, 64, 127
2, 103560, Note_off_c, 1, 66, 0
2, 103560, Note_off_c, 1, 74, 0
2, 103560, Note_on_c, 1, 76, 127
2, 103560, Note_on_c, 1, 80, 127
2, 103560, Note_off_c, 1, 84, 0
2, 103600, Note_on_c, 1, 30, 127
2, 103600, Note_on_c, 1, 37, 127
2, 103600, Note_on_c, 1, 42, 127
2, 103600, Note_off_c, 1, 60, 0
2, 103600, Note_off_c, 1, 64, 0
2, 103600, Note_off_c, 1, 76, 0
2, 103600, Note_off_c, 1, 80, 0
2, 103640, Note_off_c, 1, 30, 0
2, 103640, Note_off_c, 1, 37, 0
2, 103640, Note_off_c, 1, 42, 0
2, 103640, Note_on_c, 1, 54, 127
2, 103640, Note_off_c, 1, 57, 0
2, 103640, Note_on_c, 1, 65, 127
2, 103640, Note_on_c, 1, 69, 127
2, 103640, Note_on_c, 1, 73, 127
2, 103680, Note_on_c, 1, 33, 127
2, 103680, Note_on_c, 1, 40, 127
2, 103680, Note_on_c, 1, 43, 127
2, 103680, Note_on_c, 1, 52, 127
2, 103680, Note_off_c, 1, 54, 0
2, 103680, Note_on_c, 1, 55, 127
2, 103680, Note_on_c, 1, 57, 127
2, 103680, Note_off_c, 1, 65, 0
2, 103680, Note_off_c, 1, 69, 0
2, 103680, Note_off_c, 1, 73, 0
2, 103920, Note_off_c, 1, 33, 0
2, 103920, Note_off_c, 1, 40, 0
2, 103920, Note_off_c, 1, 43, 0
2, 103920, Note_off_c, 1, 52, 0
2, 103920, Note_off_c, 1, 55, 0
2, 103920, Note_off_c, 1, 57, 0
2, 103960, Note_on_c, 1, 39, 127
2, 103960, Note_on_c, 1, 51, 127
2, 103960, Note_on_c, 1, 85, 127
2, 103960, Note_on_c, 1, 97, 127
2, 104000, Note_off_c, 1, 39, 0
2, 104000, Note_off_c, 1, 51, 0
2, 104000, Note_on_c, 1, 57, 127
2, 104000, Note_on_c, 1, 60, 127
2, 104000, Note_on_c, 1, 66, 127
2, 104000, Note_off_c, 1, 85, 0
2, 104000, Note_on_c, 1, 92, 127
2, 104000, Note_off_c, 1, 97, 0
2, 104040, Note_on_c, 1, 39, 127
2, 104040, Note_on_c, 1, 51, 127
2, 104040, Note_off_c, 1, 57, 0
2, 104040, Note_off_c, 1, 60, 0
2, 104040, Note_off_c, 1, 66, 0
2, 104040, Note_on_c, 1, 85, 127
2, 104040, Note_off_c, 1, 92, 0
2, 104040, Note_on_c, 1, 97, 127
2, 104080, Note_off_c, 1, 39, 0
2, 104080, Note_on_c, 1, 44, 127
2, 104080, Note_off_c, 1, 51, 0
2, 104080, Note_on_c, 1, 56, 127
2, 104080, Note_off_c, 1, 85, 0
2, 104080, Note_off_c, 1, 97, 0
2, 104120, Note_off_c, 1, 44, 0
2, 104120, Note_on_c, 1, 51, 127
2, 104120, Note_off_c, 1, 56, 0
2, 104120, Note_on_c, 1, 63, 127
2, 104120, Note_on_c, 1, 69, 127
2, 104120, Note_on_c, 1, 81, 127
2, 104160, Note_on_c, 1, 44, 127
2, 104160, Note_on_c, 1, 56, 127
2, 104160, Note_on_c, 1, 60, 127
2, 104160, Note_on_c, 1, 68, 127
2, 104160, Note_off_c, 1, 69, 0
2, 104160, Note_on_c, 1, 72, 127
2, 104160, Note_on_c, 1, 79, 127
2, 104160, Note_off_c, 1, 81, 0
2, 104200, Note_off_c, 1, 44, 0
2, 104200, Note_off_c, 1, 51, 0
2, 104200, Note_off_c, 1, 56, 0
2, 104200, Note_off_c, 1, 60, 0
2, 104200, Note_off_c, 1, 63, 0
2, 104200, Note_off_c, 1, 68, 0
2, 104200, Note_off_c, 1, 72, 0
2, 104200, Note_off_c, 1, 79, 0
2, 104240, Note_on_c, 1, 44, 127
2, 104240, Note_on_c, 1, 56, 127
2, 104240, Note_on_c, 1, 82, 127
2, 104240, Note_on_c, 1, 94, 127
2, 104360, Note_off_c, 1, 82, 0
2, 104360, Note_off_c, 1, 94, 0
2, 104400, Note_on_c, 1, 73, 127
2, 104400, Note_on_c, 1, 85, 127
2, 104520, Note_off_c, 1, 73, 0
2, 104520, Note_off_c, 1, 85, 0
2, 104560, Note_on_c, 1, 42, 127
2, 104560, Note_off_c, 1, 44, 0
2, 104560, Note_on_c, 1, 54, 127
2, 104560, Note_off_c, 1, 56, 0
2, 104560, Note_on_c, 1, 82, 127
2, 104560, Note_on_c, 1, 94, 127
2, 104840, Note_on_c, 1, 58, 127
2, 104840, Note_on_c, 1, 78, 127
2, 105120, Note_off_c, 1, 58, 0
2, 105120, Note_on_c, 1, 61, 127
2, 105120, Note_on_c, 1, 73, 127
2, 105120, Note_off_c, 1, 78, 0
2, 105360, Note_on_c, 1, 58, 127
2, 105360, Note_off_c, 1, 61, 0
2, 105360, Note_off_c, 1, 73, 0
2, 105360, Note_on_c, 1, 78, 127
2, 105640, Note_off_c, 1, 42, 0
2, 105640, Note_off_c, 1, 54, 0
2, 105640, Note_off_c, 1, 58, 0
2, 105640, Note_off_c, 1, 78, 0
2, 105640, Note_off_c, 1, 82, 0
2, 105640, Note_off_c, 1, 94, 0
2, 105680, Note_on_c, 1, 41, 127
2, 105680, Note_on_c, 1, 53, 127
2, 105680, Note_on_c, 1, 77, 127
2, 105680, Note_on_c, 1, 80, 127
2, 105680, Note_on_c, 1, 89, 127
2, 105760, Note_off_c, 1, 41, 0
2, 105760, Note_off_c, 1, 53, 0
2, 105760, Note_off_c, 1, 77, 0
2, 105760, Note_off_c, 1, 80, 0
2, 105760, Note_off_c, 1, 89, 0
2, 105800, Note_on_c, 1, 41, 127
2, 105800, Note_on_c, 1, 53, 127
2, 105800, Note_on_c, 1, 77, 127
2, 105800, Note_on_c, 1, 80, 127
2, 105800, Note_on_c, 1, 89, 127
2, 105880, Note_off_c, 1, 41, 0
2, 105880, Note_on_c, 1, 46, 127
2, 105880, Note_off_c, 1, 53, 0
2, 105880, Note_off_c, 1, 77, 0
2, 105880, Note_off_c, 1, 80, 0
2, 105880, Note_on_c, 1, 86, 127
2, 105880, Note_off_c, 1, 89, 0
2, 105880, Note_on_c, 1, 91, 127
2, 105920, Note_on_c, 1, 45, 127
2, 105920, Note_off_c, 1, 46, 0
2, 105920, Note_on_c, 1, 47, 127
2, 105920, Note_on_c, 1, 57, 127
2, 105920, Note_on_c, 1, 63, 127
2, 105920, Note_on_c, 1, 66, 127
2, 105920, Note_on_c, 1, 71, 127
2, 105920, Note_on_c, 1, 75, 127
2, 105920, Note_off_c, 1, 86, 0
2, 105920, Note_off_c, 1, 91, 0
2, 105960, Note_on_c, 1, 41, 127
2, 105960, Note_off_c, 1, 45, 0
2, 105960, Note_off_c, 1, 47, 0
2, 105960, Note_on_c, 1, 53, 127
2, 105960, Note_off_c, 1, 57, 0
2, 105960, Note_off_c, 1, 63, 0
2, 105960, Note_off_c, 1, 66, 0
2, 105960, Note_off_c, 1, 71, 0
2, 105960, Note_off_c, 1, 75, 0
2, 105960, Note_on_c, 1, 77, 127
2, 105960, Note_on_c, 1, 80, 127
2, 105960, Note_on_c, 1, 89, 127
2, 106000, Note_off_c, 1, 41, 0
2, 106000, Note_off_c, 1, 53, 0
2, 106040, Note_on_c, 1, 47, 127
2, 106040, Note_on_c, 1, 54, 127
2, 106040, Note_on_c, 1, 75, 127
2, 106040, Note_off_c, 1, 77, 0
2, 106040, Note_on_c, 1, 78, 127
2, 106040, Note_off_c, 1, 80, 0
2, 106040, Note_on_c, 1, 87, 127
2, 106040, Note_off_c, 1, 89, 0
2, 106400, Note_on_c, 1, 44, 127
2, 106400, Note_off_c, 1, 47, 0
2, 106400, Note_off_c, 1, 54, 0
2, 106400, Note_on_c, 1, 56, 127
2, 106400, Note_on_c, 1, 72, 127
2, 106400, Note_off_c, 1, 78, 0
2, 106400, Note_on_c, 1, 84, 127
2, 106400, Note_off_c, 1, 87, 0
2, 106440, Note_on_c, 1, 47, 127
2, 106440, Note_off_c, 1, 56, 0
2, 106440, Note_off_c, 1, 72, 0
2, 106440, Note_off_c, 1, 84, 0
2, 106480, Note_off_c, 1, 44, 0
2, 106480, Note_off_c, 1, 47, 0
2, 106480, Note_on_c, 1, 52, 127
2, 106480, Note_on_c, 1, 54, 127
2, 106480, Note_on_c, 1, 63, 127
2, 106480, Note_on_c, 1, 66, 127
2, 106560, Note_off_c, 1, 52, 0
2, 106560, Note_off_c, 1, 54, 0
2, 106560, Note_off_c, 1, 63, 0
2, 106560, Note_off_c, 1, 66, 0
2, 106560, Note_off_c, 1, 75, 0
2, 106600, Note_on_c, 1, 45, 127
2, 106600, Note_on_c, 1, 57, 127
2, 106600, Note_on_c, 1, 67, 127
2, 106600, Note_on_c, 1, 69, 127
2, 106600, Note_on_c, 1, 73, 127
2, 106600, Note_on_c, 1, 76, 127
2, 107000, Note_off_c, 1, 45, 0
2, 107000, Note_on_c, 1, 50, 127
2, 107000, Note_off_c, 1, 57, 0
2, 107000, Note_on_c, 1, 59, 127
2, 107000, Note_on_c, 1, 65, 127
2, 107000, Note_off_c, 1, 67, 0
2, 107000, Note_off_c, 1, 69, 0
2, 107000, Note_off_c, 1, 73, 0
2, 107000, Note_off_c, 1, 76, 0
2, 107040, Note_on_c, 1, 36, 127
2, 107040, Note_on_c, 1, 41, 127
2, 107040, Note_on_c, 1, 48, 127
2, 107040, Note_off_c, 1, 50, 0
2, 107040, Note_off_c, 1, 59, 0
2, 107040, Note_on_c, 1, 69, 127
2, 107160, Note_off_c, 1, 36, 0
2, 107160, Note_off_c, 1, 41, 0
2, 107160, Note_off_c, 1, 48, 0
2, 107160, Note_off_c, 1, 65, 0
2, 107160, Note_off_c, 1, 69, 0
2, 107200, Note_on_c, 1, 59, 127
2, 107200, Note_on_c, 1, 63, 127
2, 107200, Note_on_c, 1, 66, 127
2, 107200, Note_on_c, 1, 71, 127
2, 107200, Note_on_c, 1, 83, 127
2, 107200, Note_on_c, 1, 87, 127
2, 107200, Note_on_c, 1, 90, 127
2, 107200, Note_on_c, 1, 95, 127
2, 107960, Note_off_c, 1, 59, 0
2, 107960, Note_off_c, 1, 63, 0
2, 107960, Note_off_c, 1, 66, 0
2, 107960, Note_off_c, 1, 71, 0
2, 107960, Note_off_c, 1, 83, 0
2, 107960, Note_off_c, 1, 87, 0
2, 107960, Note_off_c, 1, 90, 0
2, 107960, Note_off_c, 1, 95, 0
2, 108000, Note_on_c, 1, 59, 127
2, 108000, Note_on_c, 1, 63, 127
2, 108000, Note_on_c, 1, 66, 127
2, 108000, Note_on_c, 1, 71, 127
2, 108000, Note_on_c, 1, 83, 127
2, 108000, Note_on_c, 1, 87, 127
2, 108000, Note_on_c, 1, 90, 127
2, 108000, Note_on_c, 1, 95, 127
2, 108320, Note_off_c, 1, 59, 0
2, 108320, Note_off_c, 1, 63, 0
2, 108320, Note_off_c, 1, 66, 0
2, 108320, Note_off_c, 1, 71, 0
2, 108320, Note_off_c, 1, 83, 0
2, 108320, Note_off_c, 1, 87, 0
2, 108320, Note_off_c, 1, 90, 0
2, 108320, Note_off_c, 1, 95, 0
2, 108800, Note_on_c, 1, 63, 127
2, 108800, Note_on_c, 1, 78, 127
2, 108920, Note_on_c, 1, 51, 127
2, 108920, Note_on_c, 1, 58, 127
2, 108920, Note_on_c, 1, 66, 127
2, 108920, Note_on_c, 1, 70, 127
2, 109760, Note_off_c, 1, 51, 0
2, 109760, Note_off_c, 1, 58, 0
2, 109760, Note_off_c, 1, 63, 0
2, 109760, Note_off_c, 1, 70, 0
2, 109800, Note_on_c, 1, 51, 127
2, 109800, Note_on_c, 1, 58, 127
2, 109800, Note_on_c, 1, 63, 127
2, 109800, Note_on_c, 1, 70, 127
2, 109800, Note_off_c, 1, 78, 0
2, 110080, Note_off_c, 1, 51, 0
2, 110080, Note_off_c, 1, 58, 0
2, 110080, Note_off_c, 1, 63, 0
2, 110080, Note_off_c, 1, 66, 0
2, 110080, Note_off_c, 1, 70, 0
2, 110120, Note_on_c, 1, 51, 127
2, 110120, Note_on_c, 1, 58, 127
2, 110120, Note_on_c, 1, 63, 127
2, 110120, Note_on_c, 1, 66, 127
2, 110120, Note_on_c, 1, 70, 127
2, 110360, Note_off_c, 1, 51, 0
2, 110360, Note_off_c, 1, 58, 0
2, 110360, Note_off_c, 1, 63, 0
2, 110360, Note_off_c, 1, 66, 0
2, 110360, Note_off_c, 1, 70, 0
2, 110400, Note_on_c, 1, 49, 127
2, 110400, Note_on_c, 1, 58, 127
2, 110400, Note_on_c, 1, 65, 127
2, 110400, Note_on_c, 1, 70, 127
2, 110920, Note_off_c, 1, 49, 0
2, 110920, Note_on_c, 1, 56, 127
2, 110920, Note_off_c, 1, 58, 0
2, 110920, Note_off_c, 1, 70, 0
2, 110960, Note_on_c, 1, 49, 127
2, 110960, Note_off_c, 1, 56, 0
2, 110960, Note_on_c, 1, 58, 127
2, 110960, Note_on_c, 1, 59, 127
2, 110960, Note_on_c, 1, 61, 127
2, 110960, Note_off_c, 1, 65, 0
2, 111200, Note_off_c, 1, 58, 0
2, 111200, Note_off_c, 1, 59, 0
2, 111200, Note_off_c, 1, 61, 0
2, 111200, Note_on_c, 1, 65, 127
2, 111240, Note_on_c, 1, 58, 127
2, 111240, Note_on_c, 1, 70, 127
2, 111280, Note_off_c, 1, 70, 0
2, 111320, Note_on_c, 1, 70, 127
2, 111520, Note_off_c, 1, 49, 0
2, 111520, Note_off_c, 1, 58, 0
2, 111520, Note_off_c, 1, 65, 0
2, 111520, Note_off_c, 1, 70, 0
2, 111560, Note_on_c, 1, 48, 127
2, 111560, Note_on_c, 1, 58, 127
2, 111560, Note_on_c, 1, 63, 127
2, 111560, Note_on_c, 1, 69, 127
2, 111560, Note_on_c, 1, 72, 127
2, 111800, Note_off_c, 1, 48, 0
2, 111800, Note_off_c, 1, 58, 0
2, 111800, Note_on_c, 1, 61, 127
2, 111800, Note_off_c, 1, 63, 0
2, 111800, Note_off_c, 1, 69, 0
2, 111800, Note_off_c, 1, 72, 0
2, 111800, Note_on_c, 1, 73, 127
2, 111840, Note_on_c, 1, 46, 127
2, 111840, Note_on_c, 1, 58, 127
2, 111840, Note_on_c, 1, 70, 127
2, 112120, Note_off_c, 1, 46, 0
2, 112120, Note_on_c, 1, 49, 127
2, 112120, Note_off_c, 1, 58, 0
2, 112120, Note_off_c, 1, 70, 0
2, 112120, Note_off_c, 1, 73, 0
2, 112160, Note_off_c, 1, 49, 0
2, 112160, Note_off_c, 1, 61, 0
2, 112200, Note_on_c, 1, 51, 127
2, 112200, Note_on_c, 1, 63, 127
2, 112200, Note_on_c, 1, 68, 127
2, 112200, Note_on_c, 1, 76, 127
2, 112200, Note_on_c, 1, 80, 127
2, 112400, Note_on_c, 1, 50, 127
2, 112400, Note_off_c, 1, 51, 0
2, 112400, Note_off_c, 1, 63, 0
2, 112400, Note_on_c, 1, 71, 127
2, 112400, Note_off_c, 1, 76, 0
2, 112440, Note_off_c, 1, 50, 0
2, 112440, Note_off_c, 1, 68, 0
2, 112440, Note_off_c, 1, 71, 0
2, 112440, Note_off_c, 1, 80, 0
2, 112480, Note_on_c, 1, 40, 127
2, 112480, Note_on_c, 1, 52, 127
2, 112480, Note_on_c, 1, 59, 127
2, 112480, Note_on_c, 1, 63, 127
2, 112480, Note_on_c, 1, 68, 127
2, 112720, Note_off_c, 1, 40, 0
2, 112720, Note_off_c, 1, 59, 0
2, 112720, Note_off_c, 1, 63, 0
2, 112760, Note_on_c, 1, 46, 127
2, 112760, Note_on_c, 1, 61, 127
2, 113000, Note_off_c, 1, 46, 0
2, 113000, Note_off_c, 1, 52, 0
2, 113000, Note_off_c, 1, 61, 0
2, 113000, Note_off_c, 1, 68, 0
2, 113040, Note_on_c, 1, 54, 127
2, 113040, Note_on_c, 1, 58, 127
2, 113040, Note_on_c, 1, 66, 127
2, 113040, Note_on_c, 1, 70, 127
2, 113280, Note_off_c, 1, 58, 0
2, 113280, Note_off_c, 1, 70, 0
2, 113320, Note_on_c, 1, 46, 127
2, 113320, Note_on_c, 1, 58, 127
2, 113560, Note_off_c, 1, 46, 0
2, 113560, Note_off_c, 1, 54, 0
2, 113560, Note_off_c, 1, 58, 0
2, 113560, Note_off_c, 1, 66, 0
2, 113600, Note_on_c, 1, 51, 127
2, 113600, Note_on_c, 1, 59, 127
2, 113600, Note_on_c, 1, 66, 127
2, 113600, Note_on_c, 1, 78, 127
2, 113880, Note_off_c, 1, 51, 0
2, 113880, Note_off_c, 1, 59, 0
2, 113880, Note_on_c, 1, 63, 127
2, 113880, Note_off_c, 1, 78, 0
2, 113880, Note_on_c, 1, 82, 127
2, 113880, Note_on_c, 1, 87, 127
2, 113880, Note_on_c, 1, 90, 127
2, 113920, Note_on_c, 1, 51, 127
2, 113920, Note_on_c, 1, 54, 127
2, 113920, Note_off_c, 1, 63, 0
2, 113920, Note_off_c, 1, 66, 0
2, 113920, Note_on_c, 1, 71, 127
2, 113920, Note_on_c, 1, 78, 127
2, 113920, Note_off_c, 1, 82, 0
2, 113920, Note_off_c, 1, 87, 0
2, 113920, Note_off_c, 1, 90, 0
2, 114000, Note_off_c, 1, 54, 0
2, 114000, Note_on_c, 1, 59, 127
2, 114000, Note_on_c, 1, 66, 127
2, 114000, Note_off_c, 1, 71, 0
2, 114160, Note_off_c, 1, 51, 0
2, 114160, Note_off_c, 1, 59, 0
2, 114160, Note_off_c, 1, 66, 0
2, 114160, Note_off_c, 1, 78, 0
2, 114240, Note_on_c, 1, 61, 127
2, 114240, Note_on_c, 1, 65, 127
2, 114240, Note_on_c, 1, 71, 127
2, 114240, Note_on_c, 1, 80, 127
2, 115200, Note_off_c, 1, 61, 0
2, 115200, Note_off_c, 1, 65, 0
2, 115200, Note_on_c, 1, 70, 127
2, 115200, Note_off_c, 1, 71, 0
2, 115200, Note_on_c, 1, 74, 127
2, 115200, Note_on_c, 1, 79, 127
2, 115200, Note_off_c, 1, 80, 0
2, 115200, Note_on_c, 1, 82, 127
2, 115200, Note_on_c, 1, 86, 127
2, 115200, Note_on_c, 1, 91, 127
2, 115240, Note_on_c, 1, 59, 127
2, 115240, Note_on_c, 1, 69, 127
2, 115240, Note_off_c, 1, 70, 0
2, 115240, Note_on_c, 1, 73, 127
2, 115240, Note_off_c, 1, 74, 0
2, 115240, Note_off_c, 1, 79, 0
2, 115240, Note_off_c, 1, 82, 0
2, 115240, Note_on_c, 1, 85, 127
2, 115240, Note_off_c, 1, 86, 0
2, 115240, Note_off_c, 1, 91, 0
2, 115240, Note_on_c, 1, 93, 127
2, 115240, Note_on_c, 1, 97, 127
2, 115320, Note_off_c, 1, 59, 0
2, 115320, Note_off_c, 1, 69, 0
2, 115320, Note_off_c, 1, 73, 0
2, 115320, Note_off_c, 1, 85, 0
2, 115320, Note_off_c, 1, 93, 0
2, 115320, Note_off_c, 1, 97, 0
2, 115360, Note_on_c, 1, 63, 127
2, 115360, Note_on_c, 1, 75, 127
2, 115360, Note_on_c, 1, 82, 127
2, 115360, Note_on_c, 1, 85, 127
2, 115360, Note_on_c, 1, 87, 127
2, 115880, Note_off_c, 1, 63, 0
2, 115880, Note_off_c, 1, 75, 0
2, 115880, Note_off_c, 1, 82, 0
2, 115880, Note_off_c, 1, 85, 0
2, 115880, Note_off_c, 1, 87, 0
2, 115920, Note_on_c, 1, 75, 127
2, 115920, Note_on_c, 1, 82, 127
2, 115920, Note_on_c, 1, 85, 127
2, 115920, Note_on_c, 1, 87, 127
2, 116160, Note_off_c, 1, 75, 0
2, 116160, Note_off_c, 1, 82, 0
2, 116160, Note_off_c, 1, 85, 0
2, 116160, Note_off_c, 1, 87, 0
2, 116200, Note_on_c, 1, 75, 127
2, 116200, Note_on_c, 1, 82, 127
2, 116200, Note_on_c, 1, 85, 127
2, 116200, Note_on_c, 1, 87, 127
2, 116560, Note_on_c, 1, 63, 127
2, 116800, Note_on_c, 1, 65, 127
2, 116800, Note_on_c, 1, 69, 127
2, 116800, Note_on_c, 1, 72, 127
2, 116800, Note_off_c, 1, 75, 0
2, 116800, Note_off_c, 1, 82, 0
2, 116800, Note_off_c, 1, 85, 0
2, 116800, Note_off_c, 1, 87, 0
2, 116840, Note_on_c, 1, 51, 127
2, 116840, Note_on_c, 1, 58, 127
2, 116840, Note_off_c, 1, 63, 0
2, 116840, Note_off_c, 1, 65, 0
2, 116840, Note_on_c, 1, 66, 127
2, 116840, Note_off_c, 1, 69, 0
2, 116840, Note_on_c, 1, 70, 127
2, 116840, Note_off_c, 1, 72, 0
2, 117080, Note_off_c, 1, 51, 0
2, 117080, Note_off_c, 1, 58, 0
2, 117080, Note_off_c, 1, 66, 0
2, 117080, Note_off_c, 1, 70, 0
2, 117120, Note_on_c, 1, 66, 127
2, 117120, Note_on_c, 1, 69, 127
2, 117120, Note_on_c, 1, 80, 127
2, 117120, Note_on_c, 1, 90, 127
2, 117120, Note_on_c, 1, 93, 127
2, 117200, Note_off_c, 1, 66, 0
2, 117200, Note_off_c, 1, 69, 0
2, 117240, Note_on_c, 1, 66, 127
2, 117240, Note_on_c, 1, 69, 127
2, 117480, Note_on_c, 1, 49, 127
2, 117480, Note_on_c, 1, 58, 127
2, 117480, Note_on_c, 1, 60, 127
2, 117480, Note_off_c, 1, 69, 0
2, 117480, Note_on_c, 1, 70, 127
2, 117480, Note_on_c, 1, 73, 127
2, 117480, Note_off_c, 1, 80, 0
2, 117480, Note_off_c, 1, 90, 0
2, 117480, Note_off_c, 1, 93, 0
2, 117520, Note_off_c, 1, 49, 0
2, 117520, Note_on_c, 1, 50, 127
2, 117520, Note_on_c, 1, 57, 127
2, 117520, Note_off_c, 1, 58, 0
2, 117520, Note_off_c, 1, 60, 0
2, 117520, Note_on_c, 1, 69, 127
2, 117520, Note_off_c, 1, 70, 0
2, 117520, Note_off_c, 1, 73, 0
2, 117520, Note_on_c, 1, 76, 127
2, 117520, Note_on_c, 1, 78, 127
2, 117560, Note_off_c, 1, 50, 0
2, 117560, Note_on_c, 1, 55, 127
2, 117560, Note_off_c, 1, 57, 0
2, 117560, Note_on_c, 1, 58, 127
2, 117560, Note_off_c, 1, 66, 0
2, 117560, Note_off_c, 1, 69, 0
2, 117560, Note_on_c, 1, 72, 127
2, 117560, Note_off_c, 1, 76, 0
2, 117560, Note_off_c, 1, 78, 0
2, 117560, Note_on_c, 1, 79, 127
2, 117560, Note_on_c, 1, 84, 127
2, 117600, Note_on_c, 1, 52, 127
2, 117600, Note_off_c, 1, 55, 0
2, 117600, Note_off_c, 1, 58, 0
2, 117600, Note_on_c, 1, 61, 127
2, 117600, Note_on_c, 1, 67, 127
2, 117600, Note_off_c, 1, 72, 0
2, 117600, Note_on_c, 1, 73, 127
2, 117600, Note_off_c, 1, 84, 0
2, 117640, Note_off_c, 1, 52, 0
2, 117640, Note_off_c, 1, 61, 0
2, 117640, Note_off_c, 1, 67, 0
2, 117640, Note_off_c, 1, 73, 0
2, 117640, Note_off_c, 1, 79, 0
2, 117680, Note_on_c, 1, 64, 127
2, 117680, Note_on_c, 1, 71, 127
2, 117680, Note_on_c, 1, 76, 127
2, 117680, Note_on_c, 1, 79, 127
2, 117680, Note_on_c, 1, 91, 127
2, 117960, Note_on_c, 1, 45, 127
2, 117960, Note_on_c, 1, 49, 127
2, 117960, Note_on_c, 1, 52, 127
2, 117960, Note_on_c, 1, 55, 127
2, 117960, Note_on_c, 1, 57, 127
2, 117960, Note_on_c, 1, 61, 127
2, 117960, Note_off_c, 1, 64, 0
2, 117960, Note_on_c, 1, 67, 127
2, 117960, Note_off_c, 1, 71, 0
2, 117960, Note_off_c, 1, 76, 0
2, 117960, Note_off_c, 1, 79, 0
2, 117960, Note_off_c, 1, 91, 0
2, 118000, Note_off_c, 1, 45, 0
2, 118000, Note_off_c, 1, 49, 0
2, 118000, Note_off_c, 1, 52, 0
2, 118000, Note_off_c, 1, 55, 0
2, 118000, Note_off_c, 1, 57, 0
2, 118000, Note_off_c, 1, 61, 0
2, 118000, Note_on_c, 1, 66, 127
2, 118000, Note_off_c, 1, 67, 0
2, 118000, Note_on_c, 1, 75, 127
2, 118000, Note_on_c, 1, 94, 127
2, 118040, Note_off_c, 1, 66, 0
2, 118040, Note_on_c, 1, 70, 127
2, 118040, Note_off_c, 1, 75, 0
2, 118040, Note_on_c, 1, 89, 127
2, 118080, Note_off_c, 1, 70, 0
2, 118080, Note_on_c, 1, 77, 127
2, 118080, Note_on_c, 1, 80, 127
2, 118080, Note_on_c, 1, 82, 127
2, 118080, Note_off_c, 1, 94, 0
2, 118120, Note_on_c, 1, 40, 127
2, 118120, Note_on_c, 1, 47, 127
2, 118120, Note_on_c, 1, 56, 127
2, 118120, Note_on_c, 1, 76, 127
2, 118120, Note_off_c, 1, 77, 0
2, 118120, Note_off_c, 1, 82, 0
2, 118120, Note_on_c, 1, 83, 127
2, 118120, Note_on_c, 1, 88, 127
2, 118120, Note_off_c, 1, 89, 0
2, 118160, Note_off_c, 1, 40, 0
2, 118160, Note_off_c, 1, 47, 0
2, 118160, Note_on_c, 1, 50, 127
2, 118160, Note_off_c, 1, 56, 0
2, 118160, Note_on_c, 1, 59, 127
2, 118160, Note_on_c, 1, 66, 127
2, 118160, Note_on_c, 1, 71, 127
2, 118160, Note_on_c, 1, 74, 127
2, 118160, Note_off_c, 1, 76, 0
2, 118160, Note_off_c, 1, 80, 0
2, 118160, Note_off_c, 1, 83, 0
2, 118160, Note_off_c, 1, 88, 0
2, 118200, Note_off_c, 1, 50, 0
2, 118200, Note_off_c, 1, 59, 0
2, 118200, Note_off_c, 1, 66, 0
2, 118200, Note_off_c, 1, 71, 0
2, 118200, Note_off_c, 1, 74, 0
2, 118240, Note_on_c, 1, 48, 127
2, 118240, Note_on_c, 1, 76, 127
2, 118240, Note_on_c, 1, 82, 127
2, 118240, Note_on_c, 1, 84, 127
2, 118240, Note_on_c, 1, 88, 127
2, 118280, Note_off_c, 1, 48, 0
2, 118280, Note_on_c, 1, 60, 127
2, 118320, Note_off_c, 1, 60, 0
2, 118360, Note_off_c, 1, 76, 0
2, 118360, Note_off_c, 1, 82, 0
2, 118360, Note_off_c, 1, 84, 0
2, 118360, Note_off_c, 1, 88, 0
2, 118400, Note_on_c, 1, 76, 127
2, 118400, Note_on_c, 1, 82, 127
2, 118400, Note_on_c, 1, 84, 127
2, 118400, Note_on_c, 1, 88, 127
2, 118440, Note_on_c, 1, 60, 127
2, 118480, Note_off_c, 1, 60, 0
2, 118480, Note_on_c, 1, 62, 127
2, 118520, Note_off_c, 1, 62, 0
2, 118560, Note_on_c, 1, 60, 127
2, 118600, Note_off_c, 1, 60, 0
2, 118720, Note_on_c, 1, 60, 127
2, 118720, Note_on_c, 1, 62, 127
2, 118720, Note_off_c, 1, 76, 0
2, 118720, Note_off_c, 1, 82, 0
2, 118720, Note_off_c, 1, 84, 0
2, 118720, Note_off_c, 1, 88, 0
2, 118720, Note_on_c, 1, 91, 127
2, 118760, Note_off_c, 1, 60, 0
2, 118760, Note_off_c, 1, 62, 0
2, 118760, Note_on_c, 1, 76, 127
2, 118760, Note_on_c, 1, 82, 127
2, 118760, Note_on_c, 1, 84, 127
2, 118760, Note_on_c, 1, 88, 127
2, 118760, Note_off_c, 1, 91, 0
2, 118800, Note_off_c, 1, 76, 0
2, 118800, Note_off_c, 1, 82, 0
2, 118800, Note_off_c, 1, 84, 0
2, 118800, Note_off_c, 1, 88, 0
2, 118840, Note_on_c, 1, 49, 127
2, 118840, Note_on_c, 1, 55, 127
2, 118840, Note_on_c, 1, 61, 127
2, 119400, Note_off_c, 1, 49, 0
2, 119400, Note_off_c, 1, 55, 0
2, 119400, Note_off_c, 1, 61, 0
2, 119440, Note_on_c, 1, 61, 127
2, 119960, Note_off_c, 1, 61, 0
2, 120040, End_track
3, 0, Start_track
3, 0, Title_t, "MIDI"
3, 1536, End_track
0, 0, End_of_file
