0, 0, Header, 1, 3, 192
1, 0, Start_track
1, 0, Time_signature, 4, 2, 24, 8
1, 0, Tempo, 500000
1, 120040, End_track
2, 0, Start_track
2, 0, Text_t, "random instrument: random person i dunno whatev"
2, 0, Title_t, "Track 1"
2, 0, Note_on_c, 1, 40, 127
2, 0, Note_on_c, 1, 48, 127
2, 0, Note_on_c, 1, 56, 127
2, 0, Note_on_c, 1, 60, 127
2, 40, Note_off_c, 1, 40, 0
2, 40, Note_off_c, 1, 48, 0
2, 40, Note_on_c, 1, 55, 127
2, 40, Note_off_c, 1, 56, 0
2, 40, Note_off_c, 1, 60, 0
2, 40, Note_on_c, 1, 72, 127
2, 40, Note_on_c, 1, 75, 127
2, 40, Note_on_c, 1, 79, 127
2, 40, Note_on_c, 1, 84, 127
2, 80, Note_off_c, 1, 55, 0
2, 80, Note_off_c, 1, 72, 0
2, 80, Note_off_c, 1, 75, 0
2, 80, Note_off_c, 1, 79, 0
2, 80, Note_off_c, 1, 84, 0
2, 120, Note_on_c, 1, 40, 127
2, 120, Note_on_c, 1, 48, 127
2, 120, Note_on_c, 1, 56, 127
2, 120, Note_on_c, 1, 60, 127
2, 160, Note_off_c, 1, 40, 0
2, 160, Note_on_c, 1, 41, 127
2, 160, Note_off_c, 1, 48, 0
2, 160, Note_on_c, 1, 50, 127
2, 160, Note_on_c, 1, 53, 127
2, 160, Note_off_c, 1, 56, 0
2, 160, Note_off_c, 1, 60, 0
2, 160, Note_on_c, 1, 81, 127
2, 160, Note_on_c, 1, 86, 127
2, 200, Note_on_c, 1, 35, 127
2, 200, Note_on_c, 1, 39, 127
2, 200, Note_off_c, 1, 41, 0
2, 200, Note_on_c, 1, 47, 127
2, 200, Note_off_c, 1, 53, 0
2, 200, Note_off_c, 1, 81, 0
2, 200, Note_off_c, 1, 86, 0
2, 240, Note_off_c, 1, 35, 0
2, 240, Note_off_c, 1, 39, 0
2, 240, Note_off_c, 1, 47, 0
2, 240, Note_off_c, 1, 50, 0
2, 240, Note_on_c, 1, 64, 127
2, 240, Note_on_c, 1, 78, 127
2, 240, Note_on_c, 1, 81, 127
2, 240, Note_on_c, 1, 83, 127
2, 240, Note_on_c, 1, 90, 127
2, 280, Note_off_c, 1, 64, 0
2, 280, Note_on_c, 1, 76, 127
2, 280, Note_off_c, 1, 78, 0
2, 280, Note_on_c, 1, 80, 127
2, 280, Note_off_c, 1, 81, 0
2, 280, Note_on_c, 1, 89, 127
2, 280, Note_off_c, 1, 90, 0
2, 320, Note_on_c, 1, 64, 127
2, 320, Note_off_c, 1, 76, 0
2, 320, Note_off_c, 1, 80, 0
2, 320, Note_on_c, 1, 81, 127
2, 320, Note_off_c, 1, 89, 0
2, 320, Note_on_c, 1, 90, 127
2, 360, Note_on_c, 1, 52, 127
2, 360, Note_on_c, 1, 59, 127
2, 360, Note_on_c, 1, 62, 127
2, 360, Note_off_c, 1, 64, 0
2, 360, Note_on_c, 1, 80, 127
2, 360, Note_off_c, 1, 81, 0
2, 360, Note_off_c, 1, 83, 0
2, 360, Note_off_c, 1, 90, 0
2, 360, Note_on_c, 1, 91, 127
2, 400, Note_off_c, 1, 52, 0
2, 400, Note_off_c, 1, 59, 0
2, 400, Note_off_c, 1, 62, 0
2, 400, Note_on_c, 1, 64, 127
2, 400, Note_off_c, 1, 80, 0
2, 400, Note_on_c, 1, 85, 127
2, 400, Note_on_c, 1, 88, 127
2, 400, Note_off_c, 1, 91, 0
2, 400, Note_on_c, 1, 92, 127
2, 440, Note_on_c, 1, 38, 127
2, 440, Note_on_c, 1, 45, 127
2, 440, Note_on_c, 1, 47, 127
2, 440, Note_on_c, 1, 56, 127
2, 440, Note_off_c, 1, 64, 0
2, 440, Note_on_c, 1, 68, 127
2, 440, Note_off_c, 1, 85, 0
2, 440, Note_off_c, 1, 88, 0
2, 440, Note_off_c, 1, 92, 0
2, 480, Note_on_c, 1, 32, 127
2, 480, Note_on_c, 1, 37, 127
2, 480, Note_off_c, 1, 38, 0
2, 480, Note_off_c, 1, 47, 0
2, 480, Note_on_c, 1, 48, 127
2, 480, Note_on_c, 1, 54, 127
2, 480, Note_off_c, 1, 56, 0
2, 480, Note_off_c, 1, 68, 0
2, 520, Note_off_c, 1, 32, 0
2, 520, Note_off_c, 1, 37, 0
2, 520, Note_on_c, 1, 43, 127
2, 520, Note_off_c, 1, 45, 0
2, 520, Note_on_c, 1, 46, 127
2, 520, Note_off_c, 1, 48, 0
2, 520, Note_on_c, 1, 51, 127
2, 520, Note_off_c, 1, 54, 0
2, 520, Note_on_c, 1, 55, 127
2, 560, Note_off_c, 1, 43, 0
2, 560, Note_off_c, 1, 46, 0
2, 560, Note_off_c, 1, 51, 0
2, 560, Note_on_c, 1, 53, 127
2, 560, Note_off_c, 1, 55, 0
2, 560, Note_on_c, 1, 85, 127
2, 560, Note_on_c, 1, 92, 127
2, 560, Note_on_c, 1, 95, 127
2, 560, Note_on_c, 1, 97, 127
2, 600, Note_on_c, 1, 44, 127
2, 600, Note_on_c, 1, 52, 127
2, 600, Note_off_c, 1, 53, 0
2, 600, Note_on_c, 1, 72, 127
2, 600, Note_on_c, 1, 76, 127
2, 600, Note_off_c, 1, 85, 0
2, 600, Note_off_c, 1, 92, 0
2, 600, Note_off_c, 1, 95, 0
2, 600, Note_off_c, 1, 97, 0
2, 640, Note_on_c, 1, 35, 127
2, 640, Note_on_c, 1, 39, 127
2, 640, Note_on_c, 1, 42, 127
2, 640, Note_off_c, 1, 44, 0
2, 640, Note_on_c, 1, 47, 127
2, 640, Note_off_c, 1, 52, 0
2, 640, Note_on_c, 1, 54, 127
2, 640, Note_on_c, 1, 57, 127
2, 640, Note_on_c, 1, 63, 127
2, 640, Note_off_c, 1, 72, 0
2, 640, Note_off_c, 1, 76, 0
2, 680, Note_off_c, 1, 35, 0
2, 680, Note_off_c, 1, 39, 0
2, 680, Note_on_c, 1, 41, 127
2, 680, Note_off_c, 1, 42, 0
2, 680, Note_off_c, 1, 54, 0
2, 680, Note_off_c, 1, 57, 0
2, 680, Note_off_c, 1, 63, 0
2, 720, Note_off_c, 1, 47, 0
2, 720, Note_on_c, 1, 51, 127
2, 720, Note_on_c, 1, 53, 127
2, 720, Note_on_c, 1, 72, 127
2, 760, Note_off_c, 1, 41, 0
2, 760, Note_off_c, 1, 51, 0
2, 760, Note_on_c, 1, 52, 127
2, 760, Note_off_c, 1, 53, 0
2, 760, Note_on_c, 1, 56, 127
2, 760, Note_on_c, 1, 62, 127
2, 760, Note_off_c, 1, 72, 0
2, 760, Note_on_c, 1, 78, 127
2, 800, Note_off_c, 1, 52, 0
2, 800, Note_off_c, 1, 56, 0
2, 800, Note_off_c, 1, 62, 0
2, 800, Note_on_c, 1, 73, 127
2, 800, Note_on_c, 1, 81, 127
2, 800, Note_on_c, 1, 93, 127
2, 840, Note_on_c, 1, 53, 127
2, 840, Note_on_c, 1, 59, 127
2, 840, Note_on_c, 1, 63, 127
2, 840, Note_on_c, 1, 68, 127
2, 840, Note_off_c, 1, 73, 0
2, 840, Note_off_c, 1, 78, 0
2, 840, Note_on_c, 1, 80, 127
2, 840, Note_off_c, 1, 81, 0
2, 840, Note_on_c, 1, 83, 127
2, 840, Note_off_c, 1, 93, 0
2, 880, Note_off_c, 1, 59, 0
2, 880, Note_on_c, 1, 60, 127
2, 880, Note_off_c, 1, 68, 0
2, 880, Note_on_c, 1, 70, 127
2, 880, Note_off_c, 1, 80, 0
2, 880, Note_off_c, 1, 83, 0
2, 880, Note_on_c, 1, 99, 127
2, 920, Note_on_c, 1, 47, 127
2, 920, Note_on_c, 1, 52, 127
2, 920, Note_off_c, 1, 53, 0
2, 920, Note_on_c, 1, 55, 127
2, 920, Note_on_c, 1, 59, 127
2, 920, Note_off_c, 1, 60, 0
2, 920, Note_off_c, 1, 63, 0
2, 920, Note_off_c, 1, 70, 0
2, 920, Note_on_c, 1, 88, 127
2, 920, Note_off_c, 1, 99, 0
2, 960, Note_on_c, 1, 28, 127
2, 960, Note_on_c, 1, 40, 127
2, 960, Note_off_c, 1, 52, 0
2, 960, Note_off_c, 1, 55, 0
2, 960, Note_off_c, 1, 59, 0
2, 960, Note_on_c, 1, 66, 127
2, 960, Note_on_c, 1, 67, 127
2, 960, Note_on_c, 1, 71, 127
2, 960, Note_on_c, 1, 76, 127
2, 960, Note_on_c, 1, 78, 127
2, 960, Note_on_c, 1, 79, 127
2, 960, Note_on_c, 1, 83, 127
2, 960, Note_off_c, 1, 88, 0
2, 960, Note_on_c, 1, 90, 127
2, 960, Note_on_c, 1, 91, 127
2, 1000, Note_off_c, 1, 28, 0
2, 1000, Note_on_c, 1, 37, 127
2, 1000, Note_off_c, 1, 40, 0
2, 1000, Note_off_c, 1, 47, 0
2, 1000, Note_on_c, 1, 49, 127
2, 1000, Note_on_c, 1, 54, 127
2, 1000, Note_on_c, 1, 58, 127
2, 1000, Note_off_c, 1, 67, 0
2, 1000, Note_off_c, 1, 71, 0
2, 1000, Note_off_c, 1, 76, 0
2, 1000, Note_off_c, 1, 78, 0
2, 1000, Note_off_c, 1, 79, 0
2, 1000, Note_off_c, 1, 83, 0
2, 1000, Note_off_c, 1, 90, 0
2, 1000, Note_off_c, 1, 91, 0
2, 1040, Note_off_c, 1, 37, 0
2, 1040, Note_on_c, 1, 40, 127
2, 1040, Note_off_c, 1, 49, 0
2, 1040, Note_on_c, 1, 52, 127
2, 1040, Note_off_c, 1, 54, 0
2, 1040, Note_off_c, 1, 58, 0
2, 1040, Note_on_c, 1, 59, 127
2, 1040, Note_on_c, 1, 62, 127
2, 1040, Note_off_c, 1, 66, 0
2, 1040, Note_on_c, 1, 68, 127
2, 1040, Note_on_c, 1, 94, 127
2, 1080, Note_off_c, 1, 40, 0
2, 1080, Note_off_c, 1, 52, 0
2, 1080, Note_on_c, 1, 54, 127
2, 1080, Note_on_c, 1, 65, 127
2, 1080, Note_off_c, 1, 68, 0
2, 1080, Note_off_c, 1, 94, 0
2, 1080, Note_on_c, 1, 101, 127
2, 1080, Note_on_c, 1, 102, 127
2, 1120, Note_off_c, 1, 54, 0
2, 1120, Note_on_c, 1, 56, 127
2, 1120, Note_on_c, 1, 61, 127
2, 1120, Note_off_c, 1, 62, 0
2, 1120, Note_off_c, 1, 65, 0
2, 1120, Note_on_c, 1, 68, 127
2, 1120, Note_off_c, 1, 101, 0
2, 1120, Note_off_c, 1, 102, 0
2, 1160, Note_on_c, 1, 39, 127
2, 1160, Note_on_c, 1, 41, 127
2, 1160, Note_on_c, 1, 44, 127
2, 1160, Note_on_c, 1, 51, 127
2, 1160, Note_off_c, 1, 56, 0
2, 1160, Note_off_c, 1, 59, 0
2, 1160, Note_off_c, 1, 61, 0
2, 1160, Note_off_c, 1, 68, 0
2, 1160, Note_on_c, 1, 75, 127
2, 1200, Note_on_c, 1, 35, 127
2, 1200, Note_off_c, 1, 39, 0
2, 1200, Note_off_c, 1, 41, 0
2, 1200, Note_on_c, 1, 42, 127
2, 1200, Note_off_c, 1, 44, 0
2, 1200, Note_on_c, 1, 47, 127
2, 1200, Note_off_c, 1, 51, 0
2, 1200, Note_on_c, 1, 63, 127
2, 1200, Note_on_c, 1, 71, 127
2, 1240, Note_off_c, 1, 35, 0
2, 1240, Note_off_c, 1, 42, 0
2, 1240, Note_off_c, 1, 47, 0
2, 1240, Note_on_c, 1, 56, 127
2, 1240, Note_on_c, 1, 59, 127
2, 1240, Note_on_c, 1, 61, 127
2, 1240, Note_off_c, 1, 63, 0
2, 1240, Note_on_c, 1, 66, 127
2, 1240, Note_off_c, 1, 71, 0
2, 1240, Note_off_c, 1, 75, 0
2, 1320, Note_on_c, 1, 35, 127
2, 1320, Note_on_c, 1, 47, 127
2, 1320, Note_on_c, 1, 54, 127
2, 1320, Note_off_c, 1, 56, 0
2, 1320, Note_off_c, 1, 61, 0
2, 1320, Note_on_c, 1, 62, 127
2, 1320, Note_off_c, 1, 66, 0
2, 1360, Note_off_c, 1, 35, 0
2, 1360, Note_on_c, 1, 43, 127
2, 1360, Note_on_c, 1, 46, 127
2, 1360, Note_off_c, 1, 47, 0
2, 1360, Note_on_c, 1, 51, 127
2, 1360, Note_off_c, 1, 54, 0
2, 1360, Note_on_c, 1, 58, 127
2, 1360, Note_off_c, 1, 59, 0
2, 1360, Note_off_c, 1, 62, 0
2, 1360, Note_on_c, 1, 67, 127
2, 1400, Note_off_c, 1, 43, 0
2, 1400, Note_off_c, 1, 46, 0
2, 1400, Note_off_c, 1, 51, 0
2, 1400, Note_on_c, 1, 52, 127
2, 1400, Note_on_c, 1, 55, 127
2, 1400, Note_on_c, 1, 57, 127
2, 1400, Note_off_c, 1, 58, 0
2, 1400, Note_off_c, 1, 67, 0
2, 1440, Note_on_c, 1, 51, 127
2, 1440, Note_off_c, 1, 52, 0
2, 1440, Note_off_c, 1, 55, 0
2, 1440, Note_on_c, 1, 56, 127
2, 1440, Note_off_c, 1, 57, 0
2, 1440, Note_on_c, 1, 65, 127
2, 1440, Note_on_c, 1, 70, 127
2, 1440, Note_on_c, 1, 74, 127
2, 1480, Note_off_c, 1, 51, 0
2, 1480, Note_on_c, 1, 52, 127
2, 1480, Note_on_c, 1, 55, 127
2, 1480, Note_off_c, 1, 56, 0
2, 1480, Note_on_c, 1, 57, 127
2, 1480, Note_off_c, 1, 65, 0
2, 1480, Note_off_c, 1, 70, 0
2, 1480, Note_off_c, 1, 74, 0
2, 1520, Note_on_c, 1, 45, 127
2, 1520, Note_on_c, 1, 49, 127
2, 1520, Note_off_c, 1, 52, 0
2, 1520, Note_off_c, 1, 55, 0
2, 1520, Note_on_c, 1, 88, 127
2, 1520, Note_on_c, 1, 97, 127
2, 1520, Note_on_c, 1, 105, 127
2, 1560, Note_on_c, 1, 35, 127
2, 1560, Note_off_c, 1, 45, 0
2, 1560, Note_off_c, 1, 49, 0
2, 1560, Note_off_c, 1, 57, 0
2, 1560, Note_on_c, 1, 76, 127
2, 1560, Note_on_c, 1, 83, 127
2, 1560, Note_on_c, 1, 86, 127
2, 1560, Note_off_c, 1, 97, 0
2, 1560, Note_off_c, 1, 105, 0
2, 1600, Note_off_c, 1, 35, 0
2, 1600, Note_on_c, 1, 49, 127
2, 1600, Note_on_c, 1, 52, 127
2, 1600, Note_on_c, 1, 55, 127
2, 1600, Note_on_c, 1, 61, 127
2, 1600, Note_off_c, 1, 76, 0
2, 1600, Note_off_c, 1, 83, 0
2, 1600, Note_off_c, 1, 86, 0
2, 1600, Note_off_c, 1, 88, 0
2, 1640, Note_off_c, 1, 49, 0
2, 1640, Note_on_c, 1, 50, 127
2, 1640, Note_off_c, 1, 55, 0
2, 1640, Note_off_c, 1, 61, 0
2, 1640, Note_on_c, 1, 64, 127
2, 1680, Note_on_c, 1, 36, 127
2, 1680, Note_on_c, 1, 43, 127
2, 1680, Note_on_c, 1, 48, 127
2, 1680, Note_off_c, 1, 50, 0
2, 1680, Note_on_c, 1, 60, 127
2, 1680, Note_off_c, 1, 64, 0
2, 1680, Note_on_c, 1, 87, 127
2, 1720, Note_off_c, 1, 36, 0
2, 1720, Note_off_c, 1, 43, 0
2, 1720, Note_off_c, 1, 48, 0
2, 1720, Note_off_c, 1, 52, 0
2, 1720, Note_off_c, 1, 60, 0
2, 1720, Note_on_c, 1, 61, 127
2, 1720, Note_on_c, 1, 71, 127
2, 1720, Note_on_c, 1, 73, 127
2, 1720, Note_on_c, 1, 75, 127
2, 1720, Note_on_c, 1, 78, 127
2, 1720, Note_off_c, 1, 87, 0
2, 1760, Note_off_c, 1, 61, 0
2, 1760, Note_off_c, 1, 71, 0
2, 1760, Note_off_c, 1, 73, 0
2, 1760, Note_off_c, 1, 75, 0
2, 1760, Note_off_c, 1, 78, 0
2, 1800, Note_on_c, 1, 42, 127
2, 1800, Note_on_c, 1, 49, 127
2, 1800, Note_on_c, 1, 61, 127
2, 1800, Note_on_c, 1, 69, 127
2, 1840, Note_off_c, 1, 42, 0
2, 1840, Note_off_c, 1, 49, 0
2, 1840, Note_off_c, 1, 61, 0
2, 1840, Note_on_c, 1, 63, 127
2, 1840, Note_off_c, 1, 69, 0
2, 1840, Note_on_c, 1, 72, 127
2, 1840, Note_on_c, 1, 91, 127
2, 1880, Note_on_c, 1, 60, 127
2, 1880, Note_off_c, 1, 63, 0
2, 1880, Note_on_c, 1, 67, 127
2, 1880, Note_on_c, 1, 70, 127
2, 1880, Note_off_c, 1, 72, 0
2, 1880, Note_on_c, 1, 77, 127
2, 1880, Note_on_c, 1, 89, 127
2, 1880, Note_off_c, 1, 91, 0
2, 1920, Note_on_c, 1, 59, 127
2, 1920, Note_off_c, 1, 60, 0
2, 1920, Note_off_c, 1, 67, 0
2, 1920, Note_off_c, 1, 70, 0
2, 1920, Note_off_c, 1, 77, 0
2, 1920, Note_on_c, 1, 79, 127
2, 1920, Note_on_c, 1, 85, 127
2, 1920, Note_off_c, 1, 89, 0
2, 1960, Note_on_c, 1, 28, 127
2, 1960, Note_on_c, 1, 40, 127
2, 1960, Note_off_c, 1, 59, 0
2, 1960, Note_on_c, 1, 69, 127
2, 1960, Note_off_c, 1, 79, 0
2, 1960, Note_off_c, 1, 85, 0
2, 2000, Note_off_c, 1, 28, 0
2, 2000, Note_off_c, 1, 40, 0
2, 2000, Note_on_c, 1, 57, 127
2, 2000, Note_on_c, 1, 61, 127
2, 2000, Note_on_c, 1, 66, 127
2, 2000, Note_on_c, 1, 73, 127
2, 2000, Note_on_c, 1, 78, 127
2, 2000, Note_on_c, 1, 85, 127
2, 2040, Note_on_c, 1, 46, 127
2, 2040, Note_on_c, 1, 53, 127
2, 2040, Note_off_c, 1, 57, 0
2, 2040, Note_on_c, 1, 58, 127
2, 2040, Note_off_c, 1, 61, 0
2, 2040, Note_on_c, 1, 62, 127
2, 2040, Note_on_c, 1, 65, 127
2, 2040, Note_off_c, 1, 66, 0
2, 2040, Note_off_c, 1, 69, 0
2, 2040, Note_off_c, 1, 73, 0
2, 2040, Note_on_c, 1, 77, 127
2, 2040, Note_off_c, 1, 78, 0
2, 2040, Note_off_c, 1, 85, 0
2, 2040, Note_on_c, 1, 89, 127
2, 2080, Note_on_c, 1, 44, 127
2, 2080, Note_on_c, 1, 51, 127
2, 2080, Note_off_c, 1, 53, 0
2, 2080, Note_on_c, 1, 56, 127
2, 2080, Note_off_c, 1, 58, 0
2, 2080, Note_off_c, 1, 62, 0
2, 2080, Note_off_c, 1, 65, 0
2, 2080, Note_on_c, 1, 68, 127
2, 2080, Note_on_c, 1, 70, 127
2, 2080, Note_on_c, 1, 75, 127
2, 2080, Note_off_c, 1, 77, 0
2, 2080, Note_on_c, 1, 80, 127
2, 2080, Note_off_c, 1, 89, 0
2, 2120, Note_on_c, 1, 42, 127
2, 2120, Note_off_c, 1, 44, 0
2, 2120, Note_off_c, 1, 46, 0
2, 2120, Note_off_c, 1, 51, 0
2, 2120, Note_off_c, 1, 56, 0
2, 2120, Note_off_c, 1, 68, 0
2, 2120, Note_off_c, 1, 70, 0
2, 2120, Note_on_c, 1, 73, 127
2, 2120, Note_off_c, 1, 75, 0
2, 2120, Note_on_c, 1, 76, 127
2, 2120, Note_off_c, 1, 80, 0
2, 2120, Note_on_c, 1, 82, 127
2, 2160, Note_off_c, 1, 42, 0
2, 2160, Note_off_c, 1, 73, 0
2, 2160, Note_off_c, 1, 76, 0
2, 2160, Note_off_c, 1, 82, 0
2, 2200, Note_on_c, 1, 46, 127
2, 2200, Note_on_c, 1, 73, 127
2, 2280, Note_off_c, 1, 46, 0
2, 2280, Note_off_c, 1, 73, 0
2, 2320, Note_on_c, 1, 68, 127
2, 2400, Note_off_c, 1, 68, 0
2, 2400, Note_on_c, 1, 73, 127
2, 2440, Note_on_c, 1, 68, 127
2, 2440, Note_off_c, 1, 73, 0
2, 2480, Note_off_c, 1, 68, 0
2, 2520, Note_on_c, 1, 61, 127
2, 2600, Note_on_c, 1, 42, 127
2, 2640, Note_off_c, 1, 61, 0
2, 2640, Note_on_c, 1, 66, 127
2, 2680, Note_off_c, 1, 66, 0
2, 2720, Note_on_c, 1, 51, 127
2, 2760, Note_off_c, 1, 51, 0
2, 2760, Note_on_c, 1, 58, 127
2, 2800, Note_off_c, 1, 58, 0
2, 2840, Note_on_c, 1, 63, 127
2, 2920, Note_on_c, 1, 61, 127
2, 2920, Note_off_c, 1, 63, 0
2, 2960, Note_on_c, 1, 54, 127
2, 2960, Note_off_c, 1, 61, 0
2, 2960, Note_on_c, 1, 64, 127
2, 2960, Note_on_c, 1, 70, 127
2, 3040, Note_on_c, 1, 61, 127
2, 3040, Note_off_c, 1, 64, 0
2, 3080, Note_off_c, 1, 61, 0
2, 3080, Note_on_c, 1, 64, 127
2, 3200, Note_off_c, 1, 54, 0
2, 3200, Note_off_c, 1, 64, 0
2, 3200, Note_off_c, 1, 70, 0
2, 3240, Note_on_c, 1, 47, 127
2, 3240, Note_on_c, 1, 63, 127
2, 3440, Note_off_c, 1, 47, 0
2, 3480, Note_on_c, 1, 47, 127
2, 3680, Note_off_c, 1, 47, 0
2, 3680, Note_on_c, 1, 54, 127
2, 3680, Note_off_c, 1, 63, 0
2, 3720, Note_on_c, 1, 63, 127
2, 3800, Note_off_c, 1, 42, 0
2, 3800, Note_off_c, 1, 54, 0
2, 3800, Note_off_c, 1, 63, 0
2, 3840, Note_on_c, 1, 42, 127
2, 3840, Note_on_c, 1, 54, 127
2, 3840, Note_on_c, 1, 63, 127
2, 4000, Note_off_c, 1, 42, 0
2, 4000, Note_off_c, 1, 54, 0
2, 4040, Note_on_c, 1, 39, 127
2, 4040, Note_on_c, 1, 51, 127
2, 4040, Note_on_c, 1, 54, 127
2, 4040, Note_on_c, 1, 59, 127
2, 4040, Note_off_c, 1, 63, 0
2, 4480, Note_off_c, 1, 39, 0
2, 4520, Note_on_c, 1, 44, 127
2, 4520, Note_on_c, 1, 45, 127
2, 4520, Note_off_c, 1, 59, 0
2, 4520, Note_on_c, 1, 61, 127
2, 4560, Note_off_c, 1, 44, 0
2, 4560, Note_off_c, 1, 45, 0
2, 4560, Note_off_c, 1, 51, 0
2, 4560, Note_off_c, 1, 54, 0
2, 4560, Note_on_c, 1, 56, 127
2, 4560, Note_on_c, 1, 59, 127
2, 4560, Note_off_c, 1, 61, 0
2, 4560, Note_on_c, 1, 62, 127
2, 4560, Note_on_c, 1, 64, 127
2, 4560, Note_on_c, 1, 67, 127
2, 4560, Note_on_c, 1, 71, 127
2, 4560, Note_on_c, 1, 75, 127
2, 4600, Note_on_c, 1, 42, 127
2, 4600, Note_off_c, 1, 56, 0
2, 4600, Note_on_c, 1, 57, 127
2, 4600, Note_off_c, 1, 59, 0
2, 4600, Note_off_c, 1, 64, 0
2, 4600, Note_off_c, 1, 67, 0
2, 4600, Note_on_c, 1, 69, 127
2, 4600, Note_off_c, 1, 71, 0
2, 4600, Note_on_c, 1, 74, 127
2, 4600, Note_off_c, 1, 75, 0
2, 4640, Note_off_c, 1, 42, 0
2, 4640, Note_off_c, 1, 57, 0
2, 4640, Note_on_c, 1, 58, 127
2, 4640, Note_off_c, 1, 62, 0
2, 4640, Note_on_c, 1, 64, 127
2, 4640, Note_off_c, 1, 69, 0
2, 4640, Note_off_c, 1, 74, 0
2, 4640, Note_on_c, 1, 85, 127
2, 4640, Note_on_c, 1, 93, 127
2, 4680, Note_on_c, 1, 52, 127
2, 4680, Note_on_c, 1, 54, 127
2, 4680, Note_off_c, 1, 58, 0
2, 4680, Note_on_c, 1, 59, 127
2, 4680, Note_off_c, 1, 64, 0
2, 4680, Note_off_c, 1, 85, 0
2, 4680, Note_off_c, 1, 93, 0
2, 4720, Note_on_c, 1, 49, 127
2, 4720, Note_off_c, 1, 59, 0
2, 4720, Note_on_c, 1, 61, 127
2, 4720, Note_on_c, 1, 64, 127
2, 4720, Note_on_c, 1, 66, 127
2, 4760, Note_on_c, 1, 47, 127
2, 4760, Note_off_c, 1, 49, 0
2, 4760, Note_off_c, 1, 52, 0
2, 4760, Note_on_c, 1, 53, 127
2, 4760, Note_off_c, 1, 54, 0
2, 4760, Note_on_c, 1, 56, 127
2, 4760, Note_off_c, 1, 61, 0
2, 4760, Note_on_c, 1, 62, 127
2, 4760, Note_off_c, 1, 64, 0
2, 4760, Note_off_c, 1, 66, 0
2, 4800, Note_off_c, 1, 47, 0
2, 4800, Note_on_c, 1, 48, 127
2, 4800, Note_off_c, 1, 53, 0
2, 4800, Note_off_c, 1, 56, 0
2, 4800, Note_on_c, 1, 60, 127
2, 4800, Note_off_c, 1, 62, 0
2, 4800, Note_on_c, 1, 86, 127
2, 4800, Note_on_c, 1, 94, 127
2, 4800, Note_on_c, 1, 98, 127
2, 4840, Note_off_c, 1, 48, 0
2, 4840, Note_on_c, 1, 49, 127
2, 4840, Note_on_c, 1, 56, 127
2, 4840, Note_on_c, 1, 59, 127
2, 4840, Note_off_c, 1, 60, 0
2, 4840, Note_on_c, 1, 68, 127
2, 4840, Note_on_c, 1, 73, 127
2, 4840, Note_on_c, 1, 77, 127
2, 4840, Note_on_c, 1, 80, 127
2, 4840, Note_on_c, 1, 85, 127
2, 4840, Note_off_c, 1, 86, 0
2, 4840, Note_off_c, 1, 94, 0
2, 4840, Note_off_c, 1, 98, 0
2, 4880, Note_on_c, 1, 34, 127
2, 4880, Note_on_c, 1, 46, 127
2, 4880, Note_off_c, 1, 49, 0
2, 4880, Note_off_c, 1, 56, 0
2, 4880, Note_off_c, 1, 59, 0
2, 4880, Note_off_c, 1, 68, 0
2, 4880, Note_on_c, 1, 70, 127
2, 4880, Note_off_c, 1, 73, 0
2, 4880, Note_on_c, 1, 79, 127
2, 4880, Note_off_c, 1, 80, 0
2, 4880, Note_on_c, 1, 82, 127
2, 4880, Note_off_c, 1, 85, 0
2, 4920, Note_off_c, 1, 34, 0
2, 4920, Note_off_c, 1, 46, 0
2, 4920, Note_off_c, 1, 70, 0
2, 4920, Note_off_c, 1, 77, 0
2, 4920, Note_off_c, 1, 79, 0
2, 4920, Note_off_c, 1, 82, 0
2, 4960, Note_on_c, 1, 48, 127
2, 4960, Note_on_c, 1, 83, 127
2, 5000, Note_off_c, 1, 48, 0
2, 5000, Note_off_c, 1, 83, 0
2, 5040, Note_on_c, 1, 46, 127
2, 5040, Note_on_c, 1, 85, 127
2, 5240, Note_on_c, 1, 43, 127
2, 5240, Note_off_c, 1, 46, 0
2, 5240, Note_on_c, 1, 50, 127
2, 5240, Note_on_c, 1, 60, 127
2, 5240, Note_on_c, 1, 62, 127
2, 5240, Note_on_c, 1, 69, 127
2, 5240, Note_off_c, 1, 85, 0
2, 5280, Note_off_c, 1, 43, 0
2, 5280, Note_off_c, 1, 50, 0
2, 5280, Note_on_c, 1, 53, 127
2, 5280, Note_on_c, 1, 58, 127
2, 5280, Note_off_c, 1, 60, 0
2, 5280, Note_off_c, 1, 62, 0
2, 5280, Note_on_c, 1, 63, 127
2, 5280, Note_on_c, 1, 65, 127
2, 5280, Note_off_c, 1, 69, 0
2, 5280, Note_on_c, 1, 74, 127
2, 5320, Note_on_c, 1, 42, 127
2, 5320, Note_on_c, 1, 49, 127
2, 5320, Note_on_c, 1, 52, 127
2, 5320, Note_off_c, 1, 53, 0
2, 5320, Note_off_c, 1, 58, 0
2, 5320, Note_off_c, 1, 63, 0
2, 5320, Note_off_c, 1, 65, 0
2, 5320, Note_on_c, 1, 73, 127
2, 5320, Note_off_c, 1, 74, 0
2, 5360, Note_off_c, 1, 42, 0
2, 5360, Note_on_c, 1, 43, 127
2, 5360, Note_off_c, 1, 49, 0
2, 5360, Note_on_c, 1, 50, 127
2, 5360, Note_off_c, 1, 52, 0
2, 5360, Note_on_c, 1, 60, 127
2, 5360, Note_on_c, 1, 62, 127
2, 5360, Note_on_c, 1, 69, 127
2, 5360, Note_off_c, 1, 73, 0
2, 5400, Note_off_c, 1, 43, 0
2, 5400, Note_off_c, 1, 50, 0
2, 5400, Note_on_c, 1, 54, 127
2, 5400, Note_off_c, 1, 60, 0
2, 5400, Note_off_c, 1, 62, 0
2, 5400, Note_on_c, 1, 67, 127
2, 5400, Note_off_c, 1, 69, 0
2, 5440, Note_on_c, 1, 52, 127
2, 5440, Note_off_c, 1, 54, 0
2, 5440, Note_on_c, 1, 57, 127
2, 5440, Note_on_c, 1, 61, 127
2, 5440, Note_on_c, 1, 64, 127
2, 5440, Note_on_c, 1, 66, 127
2, 5440, Note_off_c, 1, 67, 0
2, 5440, Note_on_c, 1, 69, 127
2, 5640, Note_off_c, 1, 52, 0
2, 5640, Note_off_c, 1, 57, 0
2, 5640, Note_off_c, 1, 61, 0
2, 5640, Note_off_c, 1, 64, 0
2, 5640, Note_off_c, 1, 66, 0
2, 5640, Note_off_c, 1, 69, 0
2, 5680, Note_on_c, 1, 66, 127
2, 5760, Note_off_c, 1, 66, 0
2, 5880, Note_on_c, 1, 68, 127
2, 5920, Note_on_c, 1, 83, 127
2, 5960, Note_off_c, 1, 68, 0
2, 5960, Note_off_c, 1, 83, 0
2, 6000, Note_on_c, 1, 47, 127
2, 6000, Note_on_c, 1, 87, 127
2, 6080, Note_off_c, 1, 47, 0
2, 6080, Note_off_c, 1, 87, 0
2, 6120, Note_on_c, 1, 47, 127
2, 6120, Note_on_c, 1, 56, 127
2, 6120, Note_on_c, 1, 64, 127
2, 6120, Note_on_c, 1, 70, 127
2, 6160, Note_off_c, 1, 47, 0
2, 6160, Note_off_c, 1, 56, 0
2, 6160, Note_off_c, 1, 64, 0
2, 6160, Note_on_c, 1, 67, 127
2, 6160, Note_on_c, 1, 69, 127
2, 6160, Note_off_c, 1, 70, 0
2, 6160, Note_on_c, 1, 84, 127
2, 6200, Note_on_c, 1, 42, 127
2, 6200, Note_on_c, 1, 52, 127
2, 6200, Note_on_c, 1, 59, 127
2, 6200, Note_on_c, 1, 64, 127
2, 6200, Note_off_c, 1, 67, 0
2, 6200, Note_off_c, 1, 69, 0
2, 6200, Note_off_c, 1, 84, 0
2, 6240, Note_off_c, 1, 42, 0
2, 6240, Note_off_c, 1, 52, 0
2, 6240, Note_off_c, 1, 59, 0
2, 6240, Note_off_c, 1, 64, 0
2, 6280, Note_on_c, 1, 55, 127
2, 6280, Note_on_c, 1, 61, 127
2, 6280, Note_on_c, 1, 64, 127
2, 6280, Note_on_c, 1, 69, 127
2, 6280, Note_on_c, 1, 85, 127
2, 6320, Note_on_c, 1, 39, 127
2, 6320, Note_on_c, 1, 44, 127
2, 6320, Note_on_c, 1, 51, 127
2, 6320, Note_off_c, 1, 55, 0
2, 6320, Note_on_c, 1, 60, 127
2, 6320, Note_off_c, 1, 61, 0
2, 6320, Note_on_c, 1, 63, 127
2, 6320, Note_off_c, 1, 64, 0
2, 6320, Note_on_c, 1, 68, 127
2, 6320, Note_off_c, 1, 69, 0
2, 6320, Note_off_c, 1, 85, 0
2, 6360, Note_off_c, 1, 39, 0
2, 6360, Note_off_c, 1, 44, 0
2, 6360, Note_off_c, 1, 51, 0
2, 6360, Note_off_c, 1, 60, 0
2, 6360, Note_off_c, 1, 63, 0
2, 6360, Note_off_c, 1, 68, 0
2, 6360, Note_on_c, 1, 70, 127
2, 6360, Note_on_c, 1, 78, 127
2, 6360, Note_on_c, 1, 88, 127
2, 6400, Note_on_c, 1, 52, 127
2, 6400, Note_on_c, 1, 60, 127
2, 6400, Note_on_c, 1, 63, 127
2, 6400, Note_on_c, 1, 69, 127
2, 6400, Note_off_c, 1, 70, 0
2, 6400, Note_on_c, 1, 77, 127
2, 6400, Note_off_c, 1, 78, 0
2, 6400, Note_off_c, 1, 88, 0
2, 6480, Note_off_c, 1, 52, 0
2, 6480, Note_off_c, 1, 60, 0
2, 6480, Note_off_c, 1, 63, 0
2, 6480, Note_off_c, 1, 69, 0
2, 6480, Note_off_c, 1, 77, 0
2, 6520, Note_on_c, 1, 80, 127
2, 6560, Note_on_c, 1, 42, 127
2, 6720, Note_off_c, 1, 42, 0
2, 6720, Note_off_c, 1, 80, 0
2, 6760, Note_on_c, 1, 49, 127
2, 6760, Note_on_c, 1, 52, 127
2, 6760, Note_on_c, 1, 57, 127
2, 6760, Note_on_c, 1, 61, 127
2, 6760, Note_on_c, 1, 63, 127
2, 6960, Note_on_c, 1, 42, 127
2, 6960, Note_on_c, 1, 47, 127
2, 6960, Note_off_c, 1, 49, 0
2, 6960, Note_off_c, 1, 52, 0
2, 6960, Note_off_c, 1, 61, 0
2, 6960, Note_off_c, 1, 63, 0
2, 7000, Note_off_c, 1, 42, 0
2, 7000, Note_on_c, 1, 56, 127
2, 7000, Note_off_c, 1, 57, 0
2, 7000, Note_on_c, 1, 64, 127
2, 7000, Note_on_c, 1, 71, 127
2, 7000, Note_on_c, 1, 73, 127
2, 7040, Note_off_c, 1, 47, 0
2, 7040, Note_on_c, 1, 49, 127
2, 7040, Note_on_c, 1, 52, 127
2, 7040, Note_off_c, 1, 56, 0
2, 7040, Note_on_c, 1, 57, 127
2, 7040, Note_on_c, 1, 61, 127
2, 7040, Note_on_c, 1, 63, 127
2, 7040, Note_off_c, 1, 64, 0
2, 7040, Note_off_c, 1, 71, 0
2, 7040, Note_off_c, 1, 73, 0
2, 7080, Note_on_c, 1, 47, 127
2, 7080, Note_off_c, 1, 49, 0
2, 7080, Note_off_c, 1, 52, 0
2, 7080, Note_on_c, 1, 56, 127
2, 7080, Note_off_c, 1, 57, 0
2, 7080, Note_off_c, 1, 61, 0
2, 7080, Note_off_c, 1, 63, 0
2, 7080, Note_on_c, 1, 64, 127
2, 7080, Note_on_c, 1, 71, 127
2, 7080, Note_on_c, 1, 73, 127
2, 7200, Note_off_c, 1, 73, 0
2, 7240, Note_on_c, 1, 75, 127
2, 7360, Note_off_c, 1, 75, 0
2, 7360, Note_on_c, 1, 76, 127
2, 7520, Note_off_c, 1, 56, 0
2, 7520, Note_off_c, 1, 64, 0
2, 7520, Note_off_c, 1, 71, 0
2, 7520, Note_off_c, 1, 76, 0
2, 7560, Note_on_c, 1, 51, 127
2, 7560, Note_on_c, 1, 71, 127
2, 7680, Note_off_c, 1, 71, 0
2, 7720, Note_on_c, 1, 42, 127
2, 7720, Note_off_c, 1, 47, 0
2, 7720, Note_off_c, 1, 51, 0
2, 7720, Note_on_c, 1, 54, 127
2, 7720, Note_on_c, 1, 56, 127
2, 7720, Note_on_c, 1, 61, 127
2, 7720, Note_on_c, 1, 64, 127
2, 7840, Note_off_c, 1, 42, 0
2, 7840, Note_off_c, 1, 54, 0
2, 7840, Note_off_c, 1, 61, 0
2, 7840, Note_off_c, 1, 64, 0
2, 7880, Note_off_c, 1, 56, 0
2, 7920, Note_on_c, 1, 40, 127
2, 7920, Note_on_c, 1, 52, 127
2, 7920, Note_on_c, 1, 62, 127
2, 7920, Note_on_c, 1, 71, 127
2, 8000, Note_off_c, 1, 62, 0
2, 8120, Note_on_c, 1, 67, 127
2, 8200, Note_off_c, 1, 40, 0
2, 8200, Note_off_c, 1, 52, 0
2, 8200, Note_off_c, 1, 67, 0
2, 8200, Note_off_c, 1, 71, 0
2, 8240, Note_on_c, 1, 68, 127
2, 8240, Note_on_c, 1, 71, 127
2, 8280, Note_off_c, 1, 71, 0
2, 8320, Note_on_c, 1, 73, 127
2, 8360, Note_off_c, 1, 73, 0
2, 8360, Note_on_c, 1, 76, 127
2, 8400, Note_on_c, 1, 48, 127
2, 8400, Note_on_c, 1, 64, 127
2, 8400, Note_off_c, 1, 68, 0
2, 8400, Note_on_c, 1, 69, 127
2, 8400, Note_on_c, 1, 73, 127
2, 8400, Note_off_c, 1, 76, 0
2, 8440, Note_off_c, 1, 48, 0
2, 8560, Note_on_c, 1, 49, 127
2, 8600, Note_off_c, 1, 49, 0
2, 8640, Note_on_c, 1, 52, 127
2, 8680, Note_off_c, 1, 52, 0
2, 8680, Note_on_c, 1, 54, 127
2, 8680, Note_on_c, 1, 67, 127
2, 8680, Note_off_c, 1, 69, 0
2, 8680, Note_off_c, 1, 73, 0
2, 8720, Note_off_c, 1, 54, 0
2, 8720, Note_off_c, 1, 67, 0
2, 8720, Note_on_c, 1, 75, 127
2, 8760, Note_on_c, 1, 69, 127
2, 8880, Note_off_c, 1, 69, 0
2, 8880, Note_off_c, 1, 75, 0
2, 8920, Note_off_c, 1, 64, 0
2, 8920, Note_on_c, 1, 68, 127
2, 8920, Note_on_c, 1, 71, 127
2, 8920, Note_on_c, 1, 73, 127
2, 9040, Note_off_c, 1, 68, 0
2, 9040, Note_off_c, 1, 71, 0
2, 9040, Note_off_c, 1, 73, 0
2, 9080, Note_on_c, 1, 52, 127
2, 9080, Note_on_c, 1, 81, 127
2, 9080, Note_on_c, 1, 85, 127
2, 9280, Note_off_c, 1, 52, 0
2, 9280, Note_off_c, 1, 85, 0
2, 9320, Note_off_c, 1, 81, 0
2, 9320, Note_on_c, 1, 83, 127
2, 9320, Note_on_c, 1, 85, 127
2, 9320, Note_on_c, 1, 90, 127
2, 9480, Note_off_c, 1, 83, 0
2, 9480, Note_off_c, 1, 90, 0
2, 9520, Note_on_c, 1, 81, 127
2, 9720, Note_off_c, 1, 81, 0
2, 9760, Note_on_c, 1, 62, 127
2, 9760, Note_on_c, 1, 66, 127
2, 9760, Note_on_c, 1, 71, 127
2, 9760, Note_on_c, 1, 74, 127
2, 9760, Note_on_c, 1, 78, 127
2, 9760, Note_on_c, 1, 83, 127
2, 9760, Note_off_c, 1, 85, 0
2, 9760, Note_on_c, 1, 86, 127
2, 9800, Note_on_c, 1, 41, 127
2, 9800, Note_on_c, 1, 50, 127
2, 9800, Note_on_c, 1, 53, 127
2, 9800, Note_off_c, 1, 62, 0
2, 9800, Note_off_c, 1, 66, 0
2, 9800, Note_off_c, 1, 71, 0
2, 9800, Note_off_c, 1, 74, 0
2, 9800, Note_off_c, 1, 78, 0
2, 9800, Note_off_c, 1, 86, 0
2, 9800, Note_on_c, 1, 95, 127
2, 9840, Note_off_c, 1, 41, 0
2, 9840, Note_on_c, 1, 46, 127
2, 9840, Note_off_c, 1, 50, 0
2, 9840, Note_on_c, 1, 60, 127
2, 9840, Note_on_c, 1, 68, 127
2, 9840, Note_on_c, 1, 75, 127
2, 9840, Note_off_c, 1, 83, 0
2, 9840, Note_off_c, 1, 95, 0
2, 9880, Note_off_c, 1, 46, 0
2, 9880, Note_off_c, 1, 60, 0
2, 9880, Note_on_c, 1, 64, 127
2, 9880, Note_on_c, 1, 71, 127
2, 9880, Note_off_c, 1, 75, 0
2, 9920, Note_off_c, 1, 53, 0
2, 9920, Note_off_c, 1, 64, 0
2, 9920, Note_off_c, 1, 68, 0
2, 9920, Note_off_c, 1, 71, 0
2, 9960, Note_on_c, 1, 61, 127
2, 9960, Note_on_c, 1, 67, 127
2, 9960, Note_on_c, 1, 73, 127
2, 9960, Note_on_c, 1, 76, 127
2, 9960, Note_on_c, 1, 85, 127
2, 10000, Note_off_c, 1, 61, 0
2, 10000, Note_off_c, 1, 67, 0
2, 10000, Note_off_c, 1, 73, 0
2, 10000, Note_off_c, 1, 76, 0
2, 10000, Note_on_c, 1, 83, 127
2, 10000, Note_off_c, 1, 85, 0
2, 10000, Note_on_c, 1, 86, 127
2, 10000, Note_on_c, 1, 89, 127
2, 10000, Note_on_c, 1, 92, 127
2, 10000, Note_on_c, 1, 95, 127
2, 10040, Note_on_c, 1, 50, 127
2, 10040, Note_on_c, 1, 56, 127
2, 10040, Note_on_c, 1, 58, 127
2, 10040, Note_on_c, 1, 62, 127
2, 10040, Note_on_c, 1, 65, 127
2, 10040, Note_on_c, 1, 68, 127
2, 10040, Note_off_c, 1, 83, 0
2, 10040, Note_off_c, 1, 86, 0
2, 10040, Note_off_c, 1, 89, 0
2, 10040, Note_off_c, 1, 92, 0
2, 10040, Note_off_c, 1, 95, 0
2, 10320, Note_on_c, 1, 48, 127
2, 10320, Note_off_c, 1, 50, 0
2, 10320, Note_off_c, 1, 56, 0
2, 10320, Note_off_c, 1, 58, 0
2, 10320, Note_off_c, 1, 62, 0
2, 10320, Note_off_c, 1, 65, 0
2, 10320, Note_off_c, 1, 68, 0
2, 10320, Note_on_c, 1, 76, 127
2, 10320, Note_on_c, 1, 79, 127
2, 10320, Note_on_c, 1, 84, 127
2, 10360, Note_on_c, 1, 42, 127
2, 10360, Note_on_c, 1, 44, 127
2, 10360, Note_off_c, 1, 48, 0
2, 10360, Note_off_c, 1, 76, 0
2, 10360, Note_off_c, 1, 79, 0
2, 10360, Note_on_c, 1, 81, 127
2, 10360, Note_off_c, 1, 84, 0
2, 10360, Note_on_c, 1, 85, 127
2, 10360, Note_on_c, 1, 90, 127
2, 10400, Note_off_c, 1, 42, 0
2, 10400, Note_off_c, 1, 44, 0
2, 10400, Note_on_c, 1, 62, 127
2, 10400, Note_on_c, 1, 72, 127
2, 10400, Note_on_c, 1, 79, 127
2, 10400, Note_off_c, 1, 81, 0
2, 10400, Note_off_c, 1, 85, 0
2, 10400, Note_on_c, 1, 89, 127
2, 10400, Note_off_c, 1, 90, 0
2, 10440, Note_on_c, 1, 34, 127
2, 10440, Note_on_c, 1, 46, 127
2, 10440, Note_on_c, 1, 53, 127
2, 10440, Note_on_c, 1, 58, 127
2, 10440, Note_on_c, 1, 61, 127
2, 10440, Note_off_c, 1, 62, 0
2, 10440, Note_on_c, 1, 65, 127
2, 10440, Note_off_c, 1, 72, 0
2, 10440, Note_on_c, 1, 73, 127
2, 10440, Note_on_c, 1, 77, 127
2, 10440, Note_off_c, 1, 79, 0
2, 10440, Note_on_c, 1, 82, 127
2, 10440, Note_on_c, 1, 85, 127
2, 10440, Note_off_c, 1, 89, 0
2, 10480, Note_off_c, 1, 34, 0
2, 10480, Note_off_c, 1, 46, 0
2, 10480, Note_on_c, 1, 48, 127
2, 10480, Note_off_c, 1, 53, 0
2, 10480, Note_off_c, 1, 58, 0
2, 10480, Note_off_c, 1, 61, 0
2, 10480, Note_off_c, 1, 65, 0
2, 10480, Note_off_c, 1, 73, 0
2, 10480, Note_off_c, 1, 77, 0
2, 10480, Note_off_c, 1, 82, 0
2, 10480, Note_on_c, 1, 92, 127
2, 10520, Note_off_c, 1, 48, 0
2, 10520, Note_on_c, 1, 59, 127
2, 10520, Note_on_c, 1, 63, 127
2, 10520, Note_on_c, 1, 68, 127
2, 10520, Note_on_c, 1, 71, 127
2, 10520, Note_on_c, 1, 75, 127
2, 10520, Note_on_c, 1, 80, 127
2, 10520, Note_off_c, 1, 85, 0
2, 10520, Note_on_c, 1, 87, 127
2, 10520, Note_off_c, 1, 92, 0
2, 10560, Note_on_c, 1, 57, 127
2, 10560, Note_off_c, 1, 59, 0
2, 10560, Note_off_c, 1, 63, 0
2, 10560, Note_on_c, 1, 66, 127
2, 10560, Note_off_c, 1, 68, 0
2, 10560, Note_off_c, 1, 71, 0
2, 10560, Note_on_c, 1, 72, 127
2, 10560, Note_on_c, 1, 78, 127
2, 10560, Note_off_c, 1, 80, 0
2, 10560, Note_off_c, 1, 87, 0
2, 10600, Note_on_c, 1, 41, 127
2, 10600, Note_on_c, 1, 53, 127
2, 10600, Note_off_c, 1, 57, 0
2, 10600, Note_on_c, 1, 60, 127
2, 10600, Note_off_c, 1, 66, 0
2, 10600, Note_on_c, 1, 70, 127
2, 10600, Note_off_c, 1, 75, 0
2, 10600, Note_off_c, 1, 78, 0
2, 10640, Note_off_c, 1, 41, 0
2, 10640, Note_on_c, 1, 44, 127
2, 10640, Note_off_c, 1, 53, 0
2, 10640, Note_on_c, 1, 68, 127
2, 10640, Note_off_c, 1, 70, 0
2, 10640, Note_on_c, 1, 79, 127
2, 10680, Note_off_c, 1, 44, 0
2, 10680, Note_on_c, 1, 49, 127
2, 10680, Note_on_c, 1, 52, 127
2, 10680, Note_on_c, 1, 57, 127
2, 10680, Note_off_c, 1, 60, 0
2, 10680, Note_on_c, 1, 64, 127
2, 10680, Note_off_c, 1, 72, 0
2, 10680, Note_off_c, 1, 79, 0
2, 10720, Note_on_c, 1, 38, 127
2, 10720, Note_on_c, 1, 48, 127
2, 10720, Note_off_c, 1, 49, 0
2, 10720, Note_off_c, 1, 52, 0
2, 10720, Note_off_c, 1, 64, 0
2, 10720, Note_off_c, 1, 68, 0
2, 10720, Note_on_c, 1, 69, 127
2, 10760, Note_off_c, 1, 38, 0
2, 10760, Note_off_c, 1, 48, 0
2, 10760, Note_off_c, 1, 57, 0
2, 10760, Note_on_c, 1, 59, 127
2, 10760, Note_off_c, 1, 69, 0
2, 10760, Note_on_c, 1, 81, 127
2, 10760, Note_on_c, 1, 82, 127
2, 10760, Note_on_c, 1, 84, 127
2, 10760, Note_on_c, 1, 85, 127
2, 10800, Note_on_c, 1, 52, 127
2, 10800, Note_off_c, 1, 59, 0
2, 10800, Note_on_c, 1, 61, 127
2, 10800, Note_on_c, 1, 64, 127
2, 10800, Note_off_c, 1, 82, 0
2, 10800, Note_off_c, 1, 84, 0
2, 10800, Note_off_c, 1, 85, 0
2, 10800, Note_on_c, 1, 93, 127
2, 10840, Note_on_c, 1, 32, 127
2, 10840, Note_on_c, 1, 44, 127
2, 10840, Note_off_c, 1, 52, 0
2, 10840, Note_on_c, 1, 56, 127
2, 10840, Note_off_c, 1, 61, 0
2, 10840, Note_off_c, 1, 64, 0
2, 10840, Note_off_c, 1, 81, 0
2, 10840, Note_on_c, 1, 83, 127
2, 10840, Note_on_c, 1, 87, 127
2, 10840, Note_on_c, 1, 92, 127
2, 10840, Note_off_c, 1, 93, 0
2, 10880, Note_off_c, 1, 32, 0
2, 10880, Note_off_c, 1, 44, 0
2, 10880, Note_off_c, 1, 56, 0
2, 10880, Note_on_c, 1, 57, 127
2, 10880, Note_on_c, 1, 74, 127
2, 10880, Note_on_c, 1, 75, 127
2, 10880, Note_off_c, 1, 83, 0
2, 10880, Note_on_c, 1, 84, 127
2, 10880, Note_off_c, 1, 87, 0
2, 10880, Note_off_c, 1, 92, 0
2, 10920, Note_on_c, 1, 40, 127
2, 10920, Note_on_c, 1, 55, 127
2, 10920, Note_off_c, 1, 57, 0
2, 10920, Note_on_c, 1, 67, 127
2, 10920, Note_off_c, 1, 75, 0
2, 10920, Note_off_c, 1, 84, 0
2, 10960, Note_off_c, 1, 40, 0
2, 10960, Note_on_c, 1, 48, 127
2, 10960, Note_on_c, 1, 52, 127
2, 10960, Note_off_c, 1, 55, 0
2, 10960, Note_on_c, 1, 60, 127
2, 10960, Note_off_c, 1, 67, 0
2, 10960, Note_on_c, 1, 71, 127
2, 10960, Note_off_c, 1, 74, 0
2, 10960, Note_on_c, 1, 79, 127
2, 11000, Note_off_c, 1, 48, 0
2, 11000, Note_off_c, 1, 52, 0
2, 11000, Note_off_c, 1, 60, 0
2, 11000, Note_on_c, 1, 66, 127
2, 11000, Note_on_c, 1, 67, 127
2, 11000, Note_on_c, 1, 74, 127
2, 11000, Note_on_c, 1, 78, 127
2, 11000, Note_off_c, 1, 79, 0
2, 11040, Note_on_c, 1, 33, 127
2, 11040, Note_on_c, 1, 37, 127
2, 11040, Note_on_c, 1, 43, 127
2, 11040, Note_on_c, 1, 52, 127
2, 11040, Note_on_c, 1, 55, 127
2, 11040, Note_on_c, 1, 60, 127
2, 11040, Note_off_c, 1, 66, 0
2, 11040, Note_off_c, 1, 67, 0
2, 11040, Note_off_c, 1, 74, 0
2, 11040, Note_off_c, 1, 78, 0
2, 11040, Note_on_c, 1, 79, 127
2, 11040, Note_on_c, 1, 83, 127
2, 11080, Note_off_c, 1, 33, 0
2, 11080, Note_off_c, 1, 37, 0
2, 11080, Note_on_c, 1, 38, 127
2, 11080, Note_off_c, 1, 43, 0
2, 11080, Note_on_c, 1, 50, 127
2, 11080, Note_off_c, 1, 52, 0
2, 11080, Note_off_c, 1, 55, 0
2, 11080, Note_on_c, 1, 59, 127
2, 11080, Note_off_c, 1, 60, 0
2, 11080, Note_on_c, 1, 65, 127
2, 11080, Note_on_c, 1, 70, 127
2, 11080, Note_off_c, 1, 71, 0
2, 11080, Note_off_c, 1, 79, 0
2, 11080, Note_off_c, 1, 83, 0
2, 11120, Note_off_c, 1, 38, 0
2, 11120, Note_on_c, 1, 44, 127
2, 11120, Note_off_c, 1, 50, 0
2, 11120, Note_on_c, 1, 51, 127
2, 11120, Note_off_c, 1, 59, 0
2, 11120, Note_on_c, 1, 63, 127
2, 11120, Note_off_c, 1, 65, 0
2, 11120, Note_on_c, 1, 68, 127
2, 11120, Note_off_c, 1, 70, 0
2, 11120, Note_on_c, 1, 71, 127
2, 11160, Note_off_c, 1, 44, 0
2, 11160, Note_on_c, 1, 50, 127
2, 11160, Note_off_c, 1, 51, 0
2, 11160, Note_on_c, 1, 52, 127
2, 11160, Note_on_c, 1, 55, 127
2, 11160, Note_on_c, 1, 57, 127
2, 11160, Note_off_c, 1, 63, 0
2, 11160, Note_off_c, 1, 68, 0
2, 11160, Note_off_c, 1, 71, 0
2, 11160, Note_on_c, 1, 85, 127
2, 11200, Note_off_c, 1, 50, 0
2, 11200, Note_off_c, 1, 52, 0
2, 11200, Note_off_c, 1, 55, 0
2, 11200, Note_off_c, 1, 57, 0
2, 11200, Note_on_c, 1, 62, 127
2, 11200, Note_on_c, 1, 68, 127
2, 11200, Note_off_c, 1, 85, 0
2, 11200, Note_on_c, 1, 86, 127
2, 11200, Note_on_c, 1, 89, 127
2, 11240, Note_on_c, 1, 61, 127
2, 11240, Note_off_c, 1, 62, 0
2, 11240, Note_on_c, 1, 63, 127
2, 11240, Note_off_c, 1, 68, 0
2, 11240, Note_off_c, 1, 86, 0
2, 11240, Note_on_c, 1, 88, 127
2, 11240, Note_off_c, 1, 89, 0
2, 11240, Note_on_c, 1, 92, 127
2, 11280, Note_on_c, 1, 48, 127
2, 11280, Note_on_c, 1, 51, 127
2, 11280, Note_on_c, 1, 56, 127
2, 11280, Note_on_c, 1, 60, 127
2, 11280, Note_off_c, 1, 61, 0
2, 11280, Note_off_c, 1, 63, 0
2, 11280, Note_on_c, 1, 66, 127
2, 11280, Note_off_c, 1, 88, 0
2, 11280, Note_off_c, 1, 92, 0
2, 11320, Note_off_c, 1, 48, 0
2, 11320, Note_on_c, 1, 55, 127
2, 11320, Note_off_c, 1, 56, 0
2, 11320, Note_off_c, 1, 60, 0
2, 11320, Note_off_c, 1, 66, 0
2, 11320, Note_on_c, 1, 80, 127
2, 11320, Note_on_c, 1, 82, 127
2, 11320, Note_on_c, 1, 84, 127
2, 11360, Note_off_c, 1, 51, 0
2, 11360, Note_off_c, 1, 55, 0
2, 11360, Note_on_c, 1, 57, 127
2, 11360, Note_on_c, 1, 64, 127
2, 11360, Note_on_c, 1, 67, 127
2, 11360, Note_off_c, 1, 80, 0
2, 11360, Note_off_c, 1, 82, 0
2, 11360, Note_off_c, 1, 84, 0
2, 11360, Note_on_c, 1, 100, 127
2, 11400, Note_on_c, 1, 41, 127
2, 11400, Note_on_c, 1, 44, 127
2, 11400, Note_on_c, 1, 47, 127
2, 11400, Note_on_c, 1, 52, 127
2, 11400, Note_on_c, 1, 56, 127
2, 11400, Note_off_c, 1, 57, 0
2, 11400, Note_on_c, 1, 59, 127
2, 11400, Note_off_c, 1, 67, 0
2, 11400, Note_off_c, 1, 100, 0
2, 11440, Note_off_c, 1, 41, 0
2, 11440, Note_off_c, 1, 44, 0
2, 11440, Note_off_c, 1, 52, 0
2, 11440, Note_off_c, 1, 56, 0
2, 11440, Note_off_c, 1, 59, 0
2, 11440, Note_off_c, 1, 64, 0
2, 11440, Note_on_c, 1, 75, 127
2, 11440, Note_on_c, 1, 80, 127
2, 11440, Note_on_c, 1, 83, 127
2, 11440, Note_on_c, 1, 87, 127
2, 11480, Note_off_c, 1, 47, 0
2, 11480, Note_on_c, 1, 49, 127
2, 11480, Note_off_c, 1, 75, 0
2, 11480, Note_on_c, 1, 76, 127
2, 11480, Note_off_c, 1, 80, 0
2, 11480, Note_on_c, 1, 82, 127
2, 11480, Note_off_c, 1, 83, 0
2, 11480, Note_on_c, 1, 85, 127
2, 11480, Note_off_c, 1, 87, 0
2, 11520, Note_off_c, 1, 49, 0
2, 11520, Note_on_c, 1, 59, 127
2, 11520, Note_on_c, 1, 66, 127
2, 11520, Note_on_c, 1, 69, 127
2, 11520, Note_on_c, 1, 74, 127
2, 11520, Note_off_c, 1, 76, 0
2, 11520, Note_on_c, 1, 78, 127
2, 11520, Note_off_c, 1, 82, 0
2, 11560, Note_on_c, 1, 42, 127
2, 11560, Note_on_c, 1, 45, 127
2, 11560, Note_on_c, 1, 48, 127
2, 11560, Note_on_c, 1, 51, 127
2, 11560, Note_on_c, 1, 57, 127
2, 11560, Note_off_c, 1, 59, 0
2, 11560, Note_on_c, 1, 60, 127
2, 11560, Note_on_c, 1, 63, 127
2, 11560, Note_off_c, 1, 69, 0
2, 11560, Note_off_c, 1, 74, 0
2, 11560, Note_off_c, 1, 78, 0
2, 11560, Note_off_c, 1, 85, 0
2, 11600, Note_on_c, 1, 30, 127
2, 11600, Note_on_c, 1, 37, 127
2, 11600, Note_off_c, 1, 42, 0
2, 11600, Note_off_c, 1, 45, 0
2, 11600, Note_off_c, 1, 48, 0
2, 11600, Note_off_c, 1, 51, 0
2, 11600, Note_on_c, 1, 52, 127
2, 11600, Note_off_c, 1, 57, 0
2, 11600, Note_off_c, 1, 60, 0
2, 11600, Note_off_c, 1, 63, 0
2, 11600, Note_off_c, 1, 66, 0
2, 11600, Note_on_c, 1, 67, 127
2, 11640, Note_off_c, 1, 30, 0
2, 11640, Note_off_c, 1, 37, 0
2, 11640, Note_off_c, 1, 52, 0
2, 11640, Note_on_c, 1, 83, 127
2, 11640, Note_on_c, 1, 89, 127
2, 11640, Note_on_c, 1, 91, 127
2, 11680, Note_on_c, 1, 42, 127
2, 11680, Note_on_c, 1, 45, 127
2, 11680, Note_on_c, 1, 49, 127
2, 11680, Note_on_c, 1, 54, 127
2, 11680, Note_off_c, 1, 67, 0
2, 11680, Note_on_c, 1, 78, 127
2, 11680, Note_on_c, 1, 81, 127
2, 11680, Note_off_c, 1, 83, 0
2, 11680, Note_off_c, 1, 89, 0
2, 11680, Note_off_c, 1, 91, 0
2, 11720, Note_off_c, 1, 45, 0
2, 11720, Note_off_c, 1, 49, 0
2, 11720, Note_on_c, 1, 58, 127
2, 11720, Note_on_c, 1, 61, 127
2, 11720, Note_on_c, 1, 64, 127
2, 11720, Note_on_c, 1, 70, 127
2, 11720, Note_off_c, 1, 78, 0
2, 11720, Note_off_c, 1, 81, 0
2, 11760, Note_off_c, 1, 42, 0
2, 11760, Note_off_c, 1, 54, 0
2, 11760, Note_off_c, 1, 58, 0
2, 11760, Note_on_c, 1, 59, 127
2, 11760, Note_off_c, 1, 61, 0
2, 11760, Note_on_c, 1, 62, 127
2, 11760, Note_off_c, 1, 64, 0
2, 11760, Note_on_c, 1, 65, 127
2, 11760, Note_on_c, 1, 91, 127
2, 11800, Note_on_c, 1, 53, 127
2, 11800, Note_on_c, 1, 58, 127
2, 11800, Note_off_c, 1, 59, 0
2, 11800, Note_on_c, 1, 61, 127
2, 11800, Note_off_c, 1, 62, 0
2, 11800, Note_on_c, 1, 64, 127
2, 11800, Note_off_c, 1, 65, 0
2, 11800, Note_off_c, 1, 70, 0
2, 11800, Note_on_c, 1, 92, 127
2, 11800, Note_on_c, 1, 94, 127
2, 11840, Note_on_c, 1, 28, 127
2, 11840, Note_off_c, 1, 53, 0
2, 11840, Note_off_c, 1, 61, 0
2, 11840, Note_off_c, 1, 64, 0
2, 11840, Note_off_c, 1, 91, 0
2, 11840, Note_off_c, 1, 92, 0
2, 11840, Note_off_c, 1, 94, 0
2, 11880, Note_off_c, 1, 28, 0
2, 11880, Note_on_c, 1, 51, 127
2, 11880, Note_on_c, 1, 55, 127
2, 11880, Note_off_c, 1, 58, 0
2, 11880, Note_on_c, 1, 61, 127
2, 11880, Note_on_c, 1, 63, 127
2, 11880, Note_on_c, 1, 79, 127
2, 11920, Note_on_c, 1, 50, 127
2, 11920, Note_off_c, 1, 51, 0
2, 11920, Note_off_c, 1, 61, 0
2, 11920, Note_off_c, 1, 63, 0
2, 11920, Note_on_c, 1, 69, 127
2, 11920, Note_on_c, 1, 72, 127
2, 11920, Note_off_c, 1, 79, 0
2, 11960, Note_off_c, 1, 50, 0
2, 11960, Note_off_c, 1, 55, 0
2, 11960, Note_off_c, 1, 69, 0
2, 11960, Note_off_c, 1, 72, 0
2, 12000, Note_on_c, 1, 36, 127
2, 12000, Note_on_c, 1, 38, 127
2, 12000, Note_on_c, 1, 52, 127
2, 12000, Note_on_c, 1, 56, 127
2, 12000, Note_on_c, 1, 62, 127
2, 12000, Note_on_c, 1, 64, 127
2, 12040, Note_off_c, 1, 36, 0
2, 12040, Note_off_c, 1, 38, 0
2, 12040, Note_on_c, 1, 44, 127
2, 12040, Note_on_c, 1, 51, 127
2, 12040, Note_off_c, 1, 52, 0
2, 12040, Note_off_c, 1, 56, 0
2, 12040, Note_on_c, 1, 60, 127
2, 12040, Note_off_c, 1, 62, 0
2, 12040, Note_off_c, 1, 64, 0
2, 12040, Note_on_c, 1, 80, 127
2, 12040, Note_on_c, 1, 84, 127
2, 12040, Note_on_c, 1, 92, 127
2, 12080, Note_on_c, 1, 31, 127
2, 12080, Note_on_c, 1, 43, 127
2, 12080, Note_off_c, 1, 44, 0
2, 12080, Note_on_c, 1, 49, 127
2, 12080, Note_off_c, 1, 51, 0
2, 12080, Note_on_c, 1, 57, 127
2, 12080, Note_off_c, 1, 60, 0
2, 12080, Note_on_c, 1, 61, 127
2, 12080, Note_off_c, 1, 80, 0
2, 12080, Note_off_c, 1, 84, 0
2, 12080, Note_off_c, 1, 92, 0
2, 12120, Note_off_c, 1, 31, 0
2, 12120, Note_off_c, 1, 43, 0
2, 12120, Note_off_c, 1, 49, 0
2, 12120, Note_on_c, 1, 50, 127
2, 12120, Note_off_c, 1, 61, 0
2, 12120, Note_on_c, 1, 69, 127
2, 12120, Note_on_c, 1, 77, 127
2, 12160, Note_off_c, 1, 50, 0
2, 12160, Note_on_c, 1, 51, 127
2, 12160, Note_on_c, 1, 55, 127
2, 12160, Note_off_c, 1, 57, 0
2, 12160, Note_off_c, 1, 69, 0
2, 12160, Note_off_c, 1, 77, 0
2, 12160, Note_on_c, 1, 87, 127
2, 12160, Note_on_c, 1, 89, 127
2, 12200, Note_off_c, 1, 51, 0
2, 12200, Note_off_c, 1, 55, 0
2, 12200, Note_on_c, 1, 61, 127
2, 12200, Note_on_c, 1, 64, 127
2, 12200, Note_on_c, 1, 69, 127
2, 12200, Note_off_c, 1, 87, 0
2, 12200, Note_on_c, 1, 88, 127
2, 12200, Note_off_c, 1, 89, 0
2, 12200, Note_on_c, 1, 95, 127
2, 12240, Note_off_c, 1, 61, 0
2, 12240, Note_off_c, 1, 64, 0
2, 12240, Note_off_c, 1, 69, 0
2, 12240, Note_off_c, 1, 88, 0
2, 12240, Note_off_c, 1, 95, 0
2, 12240, Note_on_c, 1, 97, 127
2, 12240, Note_on_c, 1, 101, 127
2, 12280, Note_on_c, 1, 49, 127
2, 12280, Note_on_c, 1, 59, 127
2, 12280, Note_on_c, 1, 67, 127
2, 12280, Note_on_c, 1, 71, 127
2, 12280, Note_off_c, 1, 97, 0
2, 12280, Note_off_c, 1, 101, 0
2, 12320, Note_on_c, 1, 39, 127
2, 12320, Note_off_c, 1, 49, 0
2, 12320, Note_off_c, 1, 59, 0
2, 12320, Note_on_c, 1, 70, 127
2, 12320, Note_off_c, 1, 71, 0
2, 12320, Note_on_c, 1, 75, 127
2, 12320, Note_on_c, 1, 79, 127
2, 12320, Note_on_c, 1, 87, 127
2, 12360, Note_on_c, 1, 34, 127
2, 12360, Note_on_c, 1, 37, 127
2, 12360, Note_off_c, 1, 39, 0
2, 12360, Note_on_c, 1, 41, 127
2, 12360, Note_on_c, 1, 46, 127
2, 12360, Note_off_c, 1, 67, 0
2, 12360, Note_off_c, 1, 70, 0
2, 12360, Note_off_c, 1, 75, 0
2, 12360, Note_off_c, 1, 79, 0
2, 12360, Note_on_c, 1, 82, 127
2, 12360, Note_on_c, 1, 85, 127
2, 12360, Note_off_c, 1, 87, 0
2, 12360, Note_on_c, 1, 89, 127
2, 12360, Note_on_c, 1, 94, 127
2, 12400, Note_on_c, 1, 33, 127
2, 12400, Note_off_c, 1, 34, 0
2, 12400, Note_off_c, 1, 37, 0
2, 12400, Note_on_c, 1, 40, 127
2, 12400, Note_off_c, 1, 41, 0
2, 12400, Note_on_c, 1, 45, 127
2, 12400, Note_off_c, 1, 46, 0
2, 12400, Note_on_c, 1, 60, 127
2, 12400, Note_on_c, 1, 64, 127
2, 12400, Note_on_c, 1, 71, 127
2, 12400, Note_off_c, 1, 82, 0
2, 12400, Note_off_c, 1, 85, 0
2, 12400, Note_off_c, 1, 89, 0
2, 12400, Note_off_c, 1, 94, 0
2, 12440, Note_off_c, 1, 33, 0
2, 12440, Note_off_c, 1, 40, 0
2, 12440, Note_off_c, 1, 45, 0
2, 12440, Note_on_c, 1, 48, 127
2, 12440, Note_on_c, 1, 52, 127
2, 12440, Note_on_c, 1, 55, 127
2, 12440, Note_off_c, 1, 64, 0
2, 12440, Note_off_c, 1, 71, 0
2, 12440, Note_on_c, 1, 88, 127
2, 12440, Note_on_c, 1, 91, 127
2, 12440, Note_on_c, 1, 96, 127
2, 12440, Note_on_c, 1, 100, 127
2, 12480, Note_on_c, 1, 45, 127
2, 12480, Note_off_c, 1, 52, 0
2, 12480, Note_off_c, 1, 55, 0
2, 12480, Note_on_c, 1, 57, 127
2, 12480, Note_on_c, 1, 64, 127
2, 12480, Note_off_c, 1, 88, 0
2, 12480, Note_off_c, 1, 91, 0
2, 12480, Note_off_c, 1, 96, 0
2, 12480, Note_off_c, 1, 100, 0
2, 12520, Note_off_c, 1, 45, 0
2, 12520, Note_off_c, 1, 57, 0
2, 12520, Note_on_c, 1, 59, 127
2, 12520, Note_off_c, 1, 60, 0
2, 12520, Note_off_c, 1, 64, 0
2, 12520, Note_on_c, 1, 77, 127
2, 12560, Note_on_c, 1, 41, 127
2, 12560, Note_on_c, 1, 45, 127
2, 12560, Note_on_c, 1, 53, 127
2, 12560, Note_off_c, 1, 59, 0
2, 12560, Note_off_c, 1, 77, 0
2, 12560, Note_on_c, 1, 81, 127
2, 12560, Note_on_c, 1, 93, 127
2, 12600, Note_off_c, 1, 41, 0
2, 12600, Note_off_c, 1, 45, 0
2, 12600, Note_off_c, 1, 48, 0
2, 12600, Note_on_c, 1, 52, 127
2, 12600, Note_off_c, 1, 53, 0
2, 12600, Note_on_c, 1, 59, 127
2, 12600, Note_on_c, 1, 61, 127
2, 12600, Note_off_c, 1, 81, 0
2, 12600, Note_on_c, 1, 86, 127
2, 12600, Note_off_c, 1, 93, 0
2, 12640, Note_on_c, 1, 46, 127
2, 12640, Note_off_c, 1, 52, 0
2, 12640, Note_on_c, 1, 54, 127
2, 12640, Note_on_c, 1, 58, 127
2, 12640, Note_off_c, 1, 59, 0
2, 12640, Note_off_c, 1, 61, 0
2, 12640, Note_on_c, 1, 63, 127
2, 12640, Note_on_c, 1, 70, 127
2, 12640, Note_on_c, 1, 74, 127
2, 12640, Note_off_c, 1, 86, 0
2, 12680, Note_off_c, 1, 46, 0
2, 12680, Note_off_c, 1, 54, 0
2, 12680, Note_off_c, 1, 58, 0
2, 12680, Note_on_c, 1, 59, 127
2, 12680, Note_off_c, 1, 63, 0
2, 12680, Note_on_c, 1, 69, 127
2, 12680, Note_off_c, 1, 70, 0
2, 12680, Note_off_c, 1, 74, 0
2, 12680, Note_on_c, 1, 75, 127
2, 12680, Note_on_c, 1, 78, 127
2, 12680, Note_on_c, 1, 83, 127
2, 12680, Note_on_c, 1, 90, 127
2, 12720, Note_on_c, 1, 46, 127
2, 12720, Note_off_c, 1, 59, 0
2, 12720, Note_on_c, 1, 68, 127
2, 12720, Note_off_c, 1, 69, 0
2, 12720, Note_on_c, 1, 70, 127
2, 12720, Note_on_c, 1, 74, 127
2, 12720, Note_off_c, 1, 75, 0
2, 12720, Note_on_c, 1, 77, 127
2, 12720, Note_off_c, 1, 78, 0
2, 12720, Note_on_c, 1, 82, 127
2, 12720, Note_off_c, 1, 83, 0
2, 12720, Note_off_c, 1, 90, 0
2, 12760, Note_off_c, 1, 46, 0
2, 12760, Note_off_c, 1, 68, 0
2, 12760, Note_off_c, 1, 70, 0
2, 12760, Note_off_c, 1, 74, 0
2, 12760, Note_off_c, 1, 77, 0
2, 12760, Note_off_c, 1, 82, 0
2, 12760, Note_on_c, 1, 99, 127
2, 12760, Note_on_c, 1, 104, 127
2, 12800, Note_on_c, 1, 47, 127
2, 12800, Note_on_c, 1, 51, 127
2, 12800, Note_on_c, 1, 56, 127
2, 12800, Note_on_c, 1, 59, 127
2, 12800, Note_on_c, 1, 86, 127
2, 12800, Note_off_c, 1, 99, 0
2, 12800, Note_off_c, 1, 104, 0
2, 12840, Note_off_c, 1, 47, 0
2, 12840, Note_off_c, 1, 51, 0
2, 12840, Note_on_c, 1, 52, 127
2, 12840, Note_on_c, 1, 55, 127
2, 12840, Note_off_c, 1, 56, 0
2, 12840, Note_on_c, 1, 58, 127
2, 12840, Note_off_c, 1, 59, 0
2, 12840, Note_on_c, 1, 73, 127
2, 12840, Note_off_c, 1, 86, 0
2, 12880, Note_off_c, 1, 52, 0
2, 12880, Note_off_c, 1, 58, 0
2, 12880, Note_on_c, 1, 61, 127
2, 12880, Note_off_c, 1, 73, 0
2, 12880, Note_on_c, 1, 85, 127
2, 12920, Note_on_c, 1, 47, 127
2, 12920, Note_on_c, 1, 49, 127
2, 12920, Note_on_c, 1, 52, 127
2, 12920, Note_off_c, 1, 55, 0
2, 12920, Note_off_c, 1, 61, 0
2, 12920, Note_on_c, 1, 78, 127
2, 12920, Note_off_c, 1, 85, 0
2, 13000, Note_off_c, 1, 47, 0
2, 13000, Note_off_c, 1, 49, 0
2, 13000, Note_off_c, 1, 52, 0
2, 13000, Note_on_c, 1, 57, 127
2, 13000, Note_on_c, 1, 64, 127
2, 13000, Note_on_c, 1, 69, 127
2, 13000, Note_off_c, 1, 78, 0
2, 13000, Note_on_c, 1, 87, 127
2, 13040, Note_on_c, 1, 48, 127
2, 13040, Note_off_c, 1, 57, 0
2, 13040, Note_off_c, 1, 64, 0
2, 13040, Note_off_c, 1, 69, 0
2, 13040, Note_on_c, 1, 77, 127
2, 13040, Note_on_c, 1, 83, 127
2, 13040, Note_off_c, 1, 87, 0
2, 13040, Note_on_c, 1, 91, 127
2, 13080, Note_on_c, 1, 36, 127
2, 13080, Note_on_c, 1, 62, 127
2, 13080, Note_on_c, 1, 65, 127
2, 13080, Note_on_c, 1, 67, 127
2, 13080, Note_off_c, 1, 77, 0
2, 13080, Note_off_c, 1, 83, 0
2, 13080, Note_off_c, 1, 91, 0
2, 13120, Note_off_c, 1, 36, 0
2, 13120, Note_off_c, 1, 48, 0
2, 13120, Note_on_c, 1, 50, 127
2, 13120, Note_on_c, 1, 57, 127
2, 13120, Note_on_c, 1, 60, 127
2, 13120, Note_off_c, 1, 62, 0
2, 13120, Note_off_c, 1, 65, 0
2, 13120, Note_on_c, 1, 90, 127
2, 13160, Note_off_c, 1, 50, 0
2, 13160, Note_on_c, 1, 55, 127
2, 13160, Note_off_c, 1, 57, 0
2, 13160, Note_on_c, 1, 59, 127
2, 13160, Note_off_c, 1, 60, 0
2, 13160, Note_on_c, 1, 65, 127
2, 13160, Note_on_c, 1, 81, 127
2, 13160, Note_on_c, 1, 83, 127
2, 13160, Note_off_c, 1, 90, 0
2, 13200, Note_off_c, 1, 55, 0
2, 13200, Note_off_c, 1, 59, 0
2, 13200, Note_on_c, 1, 62, 127
2, 13200, Note_off_c, 1, 65, 0
2, 13200, Note_off_c, 1, 67, 0
2, 13200, Note_off_c, 1, 81, 0
2, 13200, Note_on_c, 1, 86, 127
2, 13200, Note_on_c, 1, 93, 127
2, 13240, Note_off_c, 1, 62, 0
2, 13240, Note_on_c, 1, 78, 127
2, 13240, Note_off_c, 1, 83, 0
2, 13240, Note_off_c, 1, 86, 0
2, 13240, Note_off_c, 1, 93, 0
2, 13280, Note_on_c, 1, 38, 127
2, 13280, Note_on_c, 1, 50, 127
2, 13280, Note_on_c, 1, 71, 127
2, 13280, Note_on_c, 1, 74, 127
2, 13280, Note_on_c, 1, 77, 127
2, 13280, Note_off_c, 1, 78, 0
2, 13280, Note_on_c, 1, 80, 127
2, 13280, Note_on_c, 1, 83, 127
2, 13640, Note_off_c, 1, 38, 0
2, 13640, Note_off_c, 1, 50, 0
2, 13680, Note_off_c, 1, 74, 0
2, 13680, Note_on_c, 1, 76, 127
2, 13680, Note_off_c, 1, 77, 0
2, 13680, Note_on_c, 1, 79, 127
2, 13680, Note_off_c, 1, 80, 0
2, 13680, Note_off_c, 1, 83, 0
2, 13680, Note_on_c, 1, 95, 127
2, 13720, Note_on_c, 1, 48, 127
2, 13720, Note_on_c, 1, 55, 127
2, 13720, Note_on_c, 1, 59, 127
2, 13720, Note_on_c, 1, 67, 127
2, 13720, Note_on_c, 1, 74, 127
2, 13720, Note_off_c, 1, 76, 0
2, 13720, Note_off_c, 1, 79, 0
2, 13720, Note_off_c, 1, 95, 0
2, 13760, Note_off_c, 1, 48, 0
2, 13760, Note_on_c, 1, 49, 127
2, 13760, Note_off_c, 1, 55, 0
2, 13760, Note_on_c, 1, 56, 127
2, 13760, Note_off_c, 1, 67, 0
2, 13760, Note_on_c, 1, 68, 127
2, 13760, Note_off_c, 1, 74, 0
2, 13760, Note_on_c, 1, 75, 127
2, 13800, Note_off_c, 1, 49, 0
2, 13800, Note_off_c, 1, 56, 0
2, 13800, Note_off_c, 1, 59, 0
2, 13800, Note_off_c, 1, 68, 0
2, 13800, Note_off_c, 1, 71, 0
2, 13800, Note_off_c, 1, 75, 0
2, 13800, Note_on_c, 1, 79, 127
2, 13800, Note_on_c, 1, 83, 127
2, 13800, Note_on_c, 1, 88, 127
2, 13840, Note_on_c, 1, 50, 127
2, 13840, Note_off_c, 1, 79, 0
2, 13840, Note_on_c, 1, 81, 127
2, 13840, Note_off_c, 1, 83, 0
2, 13840, Note_on_c, 1, 86, 127
2, 13840, Note_off_c, 1, 88, 0
2, 13840, Note_on_c, 1, 93, 127
2, 13880, Note_on_c, 1, 45, 127
2, 13880, Note_off_c, 1, 50, 0
2, 13880, Note_on_c, 1, 53, 127
2, 13880, Note_on_c, 1, 57, 127
2, 13880, Note_on_c, 1, 59, 127
2, 13880, Note_on_c, 1, 62, 127
2, 13880, Note_on_c, 1, 69, 127
2, 13880, Note_off_c, 1, 81, 0
2, 13880, Note_off_c, 1, 86, 0
2, 13880, Note_off_c, 1, 93, 0
2, 13920, Note_off_c, 1, 45, 0
2, 13920, Note_on_c, 1, 50, 127
2, 13920, Note_off_c, 1, 53, 0
2, 13920, Note_off_c, 1, 59, 0
2, 13920, Note_on_c, 1, 60, 127
2, 13920, Note_off_c, 1, 62, 0
2, 13920, Note_on_c, 1, 67, 127
2, 13920, Note_off_c, 1, 69, 0
2, 13920, Note_on_c, 1, 90, 127
2, 13960, Note_off_c, 1, 50, 0
2, 13960, Note_off_c, 1, 57, 0
2, 13960, Note_off_c, 1, 60, 0
2, 13960, Note_off_c, 1, 67, 0
2, 13960, Note_off_c, 1, 90, 0
2, 14040, Note_on_c, 1, 69, 127
2, 14040, Note_on_c, 1, 79, 127
2, 14040, Note_on_c, 1, 83, 127
2, 14240, Note_on_c, 1, 72, 127
2, 14240, Note_off_c, 1, 79, 0
2, 14240, Note_on_c, 1, 86, 127
2, 14280, Note_off_c, 1, 69, 0
2, 14280, Note_on_c, 1, 81, 127
2, 14280, Note_off_c, 1, 83, 0
2, 14280, Note_off_c, 1, 86, 0
2, 14280, Note_on_c, 1, 87, 127
2, 14320, Note_on_c, 1, 60, 127
2, 14320, Note_on_c, 1, 64, 127
2, 14320, Note_on_c, 1, 67, 127
2, 14320, Note_on_c, 1, 76, 127
2, 14320, Note_on_c, 1, 79, 127
2, 14320, Note_off_c, 1, 81, 0
2, 14320, Note_on_c, 1, 84, 127
2, 14320, Note_off_c, 1, 87, 0
2, 14320, Note_on_c, 1, 88, 127
2, 14360, Note_on_c, 1, 46, 127
2, 14360, Note_on_c, 1, 51, 127
2, 14360, Note_on_c, 1, 54, 127
2, 14360, Note_on_c, 1, 58, 127
2, 14360, Note_off_c, 1, 60, 0
2, 14360, Note_off_c, 1, 64, 0
2, 14360, Note_off_c, 1, 67, 0
2, 14360, Note_on_c, 1, 70, 127
2, 14360, Note_off_c, 1, 72, 0
2, 14360, Note_off_c, 1, 76, 0
2, 14360, Note_off_c, 1, 79, 0
2, 14360, Note_on_c, 1, 82, 127
2, 14360, Note_off_c, 1, 84, 0
2, 14360, Note_off_c, 1, 88, 0
2, 14400, Note_off_c, 1, 46, 0
2, 14400, Note_off_c, 1, 51, 0
2, 14400, Note_off_c, 1, 54, 0
2, 14400, Note_off_c, 1, 58, 0
2, 14400, Note_on_c, 1, 61, 127
2, 14400, Note_on_c, 1, 68, 127
2, 14400, Note_off_c, 1, 70, 0
2, 14400, Note_on_c, 1, 78, 127
2, 14400, Note_on_c, 1, 90, 127
2, 14440, Note_off_c, 1, 61, 0
2, 14440, Note_off_c, 1, 68, 0
2, 14440, Note_on_c, 1, 74, 127
2, 14440, Note_off_c, 1, 78, 0
2, 14440, Note_on_c, 1, 81, 127
2, 14440, Note_off_c, 1, 82, 0
2, 14440, Note_on_c, 1, 84, 127
2, 14440, Note_on_c, 1, 86, 127
2, 14440, Note_off_c, 1, 90, 0
2, 14480, Note_on_c, 1, 36, 127
2, 14480, Note_on_c, 1, 64, 127
2, 14480, Note_on_c, 1, 68, 127
2, 14480, Note_on_c, 1, 73, 127
2, 14480, Note_off_c, 1, 74, 0
2, 14480, Note_on_c, 1, 76, 127
2, 14480, Note_off_c, 1, 81, 0
2, 14480, Note_off_c, 1, 84, 0
2, 14480, Note_off_c, 1, 86, 0
2, 14920, Note_off_c, 1, 36, 0
2, 14920, Note_off_c, 1, 64, 0
2, 14920, Note_on_c, 1, 65, 127
2, 14920, Note_off_c, 1, 73, 0
2, 14920, Note_off_c, 1, 76, 0
2, 14920, Note_on_c, 1, 80, 127
2, 14960, Note_off_c, 1, 65, 0
2, 14960, Note_off_c, 1, 68, 0
2, 14960, Note_on_c, 1, 70, 127
2, 14960, Note_on_c, 1, 73, 127
2, 14960, Note_on_c, 1, 78, 127
2, 14960, Note_off_c, 1, 80, 0
2, 14960, Note_on_c, 1, 91, 127
2, 15000, Note_on_c, 1, 32, 127
2, 15000, Note_on_c, 1, 44, 127
2, 15000, Note_on_c, 1, 68, 127
2, 15000, Note_off_c, 1, 70, 0
2, 15000, Note_off_c, 1, 73, 0
2, 15000, Note_on_c, 1, 75, 127
2, 15000, Note_on_c, 1, 77, 127
2, 15000, Note_off_c, 1, 78, 0
2, 15000, Note_on_c, 1, 80, 127
2, 15000, Note_off_c, 1, 91, 0
2, 15040, Note_off_c, 1, 32, 0
2, 15040, Note_off_c, 1, 44, 0
2, 15040, Note_on_c, 1, 54, 127
2, 15040, Note_on_c, 1, 62, 127
2, 15040, Note_off_c, 1, 68, 0
2, 15040, Note_off_c, 1, 75, 0
2, 15040, Note_off_c, 1, 77, 0
2, 15040, Note_on_c, 1, 78, 127
2, 15040, Note_off_c, 1, 80, 0
2, 15080, Note_off_c, 1, 54, 0
2, 15080, Note_off_c, 1, 62, 0
2, 15080, Note_on_c, 1, 66, 127
2, 15080, Note_on_c, 1, 69, 127
2, 15080, Note_on_c, 1, 74, 127
2, 15080, Note_on_c, 1, 90, 127
2, 15240, Note_off_c, 1, 66, 0
2, 15240, Note_off_c, 1, 69, 0
2, 15240, Note_off_c, 1, 74, 0
2, 15240, Note_off_c, 1, 78, 0
2, 15240, Note_off_c, 1, 90, 0
2, 15280, Note_on_c, 1, 83, 127
2, 15280, Note_on_c, 1, 86, 127
2, 15320, Note_off_c, 1, 83, 0
2, 15320, Note_off_c, 1, 86, 0
2, 15360, Note_on_c, 1, 82, 127
2, 15360, Note_on_c, 1, 85, 127
2, 15440, Note_off_c, 1, 82, 0
2, 15480, Note_on_c, 1, 77, 127
2, 15480, Note_on_c, 1, 80, 127
2, 15600, Note_off_c, 1, 77, 0
2, 15600, Note_off_c, 1, 80, 0
2, 15600, Note_on_c, 1, 84, 127
2, 15600, Note_off_c, 1, 85, 0
2, 15600, Note_on_c, 1, 87, 127
2, 15600, Note_on_c, 1, 96, 127
2, 15640, Note_off_c, 1, 84, 0
2, 15640, Note_off_c, 1, 87, 0
2, 15640, Note_off_c, 1, 96, 0
2, 15680, Note_on_c, 1, 62, 127
2, 15680, Note_on_c, 1, 73, 127
2, 15680, Note_on_c, 1, 81, 127
2, 15680, Note_on_c, 1, 85, 127
2, 16000, Note_on_c, 1, 78, 127
2, 16000, Note_off_c, 1, 81, 0
2, 16040, Note_off_c, 1, 78, 0
2, 16040, Note_on_c, 1, 81, 127
2, 16080, Note_on_c, 1, 57, 127
2, 16080, Note_on_c, 1, 60, 127
2, 16080, Note_off_c, 1, 62, 0
2, 16080, Note_on_c, 1, 63, 127
2, 16080, Note_on_c, 1, 72, 127
2, 16080, Note_off_c, 1, 73, 0
2, 16080, Note_on_c, 1, 78, 127
2, 16080, Note_off_c, 1, 81, 0
2, 16080, Note_on_c, 1, 83, 127
2, 16080, Note_off_c, 1, 85, 0
2, 16120, Note_off_c, 1, 57, 0
2, 16120, Note_off_c, 1, 60, 0
2, 16120, Note_off_c, 1, 63, 0
2, 16120, Note_off_c, 1, 72, 0
2, 16120, Note_off_c, 1, 78, 0
2, 16120, Note_off_c, 1, 83, 0
2, 16200, Note_on_c, 1, 38, 127
2, 16200, Note_on_c, 1, 41, 127
2, 16200, Note_on_c, 1, 45, 127
2, 16200, Note_on_c, 1, 65, 127
2, 18560, Note_off_c, 1, 38, 0
2, 18560, Note_off_c, 1, 41, 0
2, 18560, Note_off_c, 1, 45, 0
2, 18560, Note_off_c, 1, 65, 0
2, 18600, Note_on_c, 1, 38, 127
2, 18600, Note_on_c, 1, 41, 127
2, 18600, Note_on_c, 1, 45, 127
2, 18600, Note_on_c, 1, 65, 127
2, 20520, Note_off_c, 1, 38, 0
2, 20520, Note_off_c, 1, 41, 0
2, 20520, Note_off_c, 1, 45, 0
2, 20520, Note_off_c, 1, 65, 0
2, 20560, Note_on_c, 1, 78, 127
2, 20560, Note_on_c, 1, 81, 127
2, 20560, Note_on_c, 1, 86, 127
2, 20560, Note_on_c, 1, 90, 127
2, 20720, Note_off_c, 1, 78, 0
2, 20720, Note_off_c, 1, 81, 0
2, 20720, Note_off_c, 1, 86, 0
2, 20720, Note_off_c, 1, 90, 0
2, 20760, Note_on_c, 1, 78, 127
2, 20760, Note_on_c, 1, 81, 127
2, 20760, Note_on_c, 1, 86, 127
2, 20760, Note_on_c, 1, 90, 127
2, 21040, Note_off_c, 1, 78, 0
2, 21040, Note_off_c, 1, 81, 0
2, 21040, Note_off_c, 1, 86, 0
2, 21040, Note_off_c, 1, 90, 0
2, 21080, Note_on_c, 1, 85, 127
2, 21080, Note_on_c, 1, 88, 127
2, 21080, Note_on_c, 1, 97, 127
2, 21280, Note_off_c, 1, 85, 0
2, 21280, Note_off_c, 1, 88, 0
2, 21280, Note_off_c, 1, 97, 0
2, 21320, Note_on_c, 1, 57, 127
2, 21320, Note_on_c, 1, 60, 127
2, 21320, Note_on_c, 1, 63, 127
2, 21320, Note_on_c, 1, 65, 127
2, 21320, Note_on_c, 1, 76, 127
2, 22000, Note_off_c, 1, 57, 0
2, 22000, Note_off_c, 1, 60, 0
2, 22000, Note_off_c, 1, 63, 0
2, 22000, Note_off_c, 1, 65, 0
2, 22000, Note_off_c, 1, 76, 0
2, 22040, Note_on_c, 1, 46, 127
2, 22040, Note_on_c, 1, 51, 127
2, 22040, Note_on_c, 1, 67, 127
2, 22040, Note_on_c, 1, 75, 127
2, 22400, Note_off_c, 1, 51, 0
2, 22400, Note_off_c, 1, 67, 0
2, 22400, Note_off_c, 1, 75, 0
2, 22480, Note_on_c, 1, 36, 127
2, 22480, Note_off_c, 1, 46, 0
2, 22480, Note_on_c, 1, 69, 127
2, 22480, Note_on_c, 1, 81, 127
2, 22560, Note_off_c, 1, 36, 0
2, 22560, Note_on_c, 1, 48, 127
2, 22600, Note_on_c, 1, 40, 127
2, 22600, Note_off_c, 1, 48, 0
2, 22640, Note_off_c, 1, 40, 0
2, 22640, Note_on_c, 1, 45, 127
2, 22720, Note_on_c, 1, 36, 127
2, 22720, Note_off_c, 1, 45, 0
2, 22760, Note_off_c, 1, 36, 0
2, 22760, Note_on_c, 1, 45, 127
2, 22840, Note_on_c, 1, 36, 127
2, 22840, Note_off_c, 1, 45, 0
2, 22880, Note_off_c, 1, 36, 0
2, 22920, Note_on_c, 1, 36, 127
2, 22960, Note_off_c, 1, 36, 0
2, 22960, Note_off_c, 1, 69, 0
2, 22960, Note_off_c, 1, 81, 0
2, 23000, Note_on_c, 1, 45, 127
2, 23000, Note_on_c, 1, 69, 127
2, 23000, Note_on_c, 1, 81, 127
2, 23040, Note_off_c, 1, 45, 0
2, 23080, Note_on_c, 1, 45, 127
2, 23120, Note_on_c, 1, 36, 127
2, 23120, Note_off_c, 1, 45, 0
2, 23160, Note_off_c, 1, 36, 0
2, 23200, Note_on_c, 1, 45, 127
2, 23320, Note_off_c, 1, 69, 0
2, 23320, Note_off_c, 1, 81, 0
2, 23360, Note_off_c, 1, 45, 0
2, 23360, Note_on_c, 1, 51, 127
2, 23360, Note_on_c, 1, 58, 127
2, 23360, Note_on_c, 1, 67, 127
2, 23360, Note_on_c, 1, 82, 127
2, 23360, Note_on_c, 1, 87, 127
2, 23400, Note_off_c, 1, 51, 0
2, 23400, Note_on_c, 1, 55, 127
2, 23400, Note_on_c, 1, 79, 127
2, 23400, Note_off_c, 1, 87, 0
2, 23440, Note_off_c, 1, 55, 0
2, 23440, Note_off_c, 1, 58, 0
2, 23440, Note_on_c, 1, 59, 127
2, 23440, Note_on_c, 1, 62, 127
2, 23440, Note_on_c, 1, 64, 127
2, 23440, Note_off_c, 1, 67, 0
2, 23440, Note_on_c, 1, 76, 127
2, 23440, Note_off_c, 1, 79, 0
2, 23440, Note_off_c, 1, 82, 0
2, 23440, Note_on_c, 1, 84, 127
2, 23480, Note_off_c, 1, 62, 0
2, 23480, Note_off_c, 1, 64, 0
2, 23480, Note_off_c, 1, 76, 0
2, 23480, Note_off_c, 1, 84, 0
2, 23480, Note_on_c, 1, 100, 127
2, 23520, Note_on_c, 1, 36, 127
2, 23520, Note_on_c, 1, 48, 127
2, 23520, Note_on_c, 1, 56, 127
2, 23520, Note_off_c, 1, 59, 0
2, 23520, Note_on_c, 1, 63, 127
2, 23520, Note_off_c, 1, 100, 0
2, 23560, Note_off_c, 1, 36, 0
2, 23560, Note_on_c, 1, 43, 127
2, 23560, Note_on_c, 1, 51, 127
2, 23560, Note_off_c, 1, 56, 0
2, 23560, Note_on_c, 1, 62, 127
2, 23560, Note_off_c, 1, 63, 0
2, 23560, Note_on_c, 1, 74, 127
2, 23600, Note_off_c, 1, 43, 0
2, 23600, Note_off_c, 1, 48, 0
2, 23600, Note_off_c, 1, 51, 0
2, 23600, Note_off_c, 1, 62, 0
2, 23600, Note_on_c, 1, 67, 127
2, 23600, Note_off_c, 1, 74, 0
2, 23600, Note_on_c, 1, 75, 127
2, 23600, Note_on_c, 1, 78, 127
2, 23600, Note_on_c, 1, 81, 127
2, 23600, Note_on_c, 1, 86, 127
2, 23600, Note_on_c, 1, 93, 127
2, 23640, Note_on_c, 1, 59, 127
2, 23640, Note_off_c, 1, 67, 0
2, 23640, Note_on_c, 1, 70, 127
2, 23640, Note_off_c, 1, 75, 0
2, 23640, Note_off_c, 1, 81, 0
2, 23640, Note_on_c, 1, 82, 127
2, 23640, Note_off_c, 1, 86, 0
2, 23640, Note_off_c, 1, 93, 0
2, 23680, Note_on_c, 1, 45, 127
2, 23680, Note_on_c, 1, 52, 127
2, 23680, Note_on_c, 1, 55, 127
2, 23680, Note_on_c, 1, 57, 127
2, 23680, Note_off_c, 1, 59, 0
2, 23680, Note_on_c, 1, 61, 127
2, 23680, Note_on_c, 1, 64, 127
2, 23680, Note_on_c, 1, 69, 127
2, 23680, Note_off_c, 1, 70, 0
2, 23680, Note_off_c, 1, 78, 0
2, 23680, Note_off_c, 1, 82, 0
2, 23720, Note_off_c, 1, 45, 0
2, 23720, Note_off_c, 1, 52, 0
2, 23720, Note_off_c, 1, 55, 0
2, 23720, Note_off_c, 1, 61, 0
2, 23720, Note_off_c, 1, 64, 0
2, 23720, Note_off_c, 1, 69, 0
2, 23720, Note_on_c, 1, 70, 127
2, 23720, Note_on_c, 1, 78, 127
2, 23760, Note_off_c, 1, 57, 0
2, 23760, Note_off_c, 1, 70, 0
2, 23760, Note_off_c, 1, 78, 0
2, 23800, Note_on_c, 1, 47, 127
2, 23800, Note_on_c, 1, 56, 127
2, 23800, Note_on_c, 1, 71, 127
2, 23800, Note_on_c, 1, 75, 127
2, 23800, Note_on_c, 1, 76, 127
2, 23840, Note_off_c, 1, 47, 0
2, 23840, Note_on_c, 1, 55, 127
2, 23840, Note_off_c, 1, 56, 0
2, 23840, Note_on_c, 1, 57, 127
2, 23840, Note_on_c, 1, 69, 127
2, 23840, Note_off_c, 1, 71, 0
2, 23840, Note_on_c, 1, 73, 127
2, 23840, Note_off_c, 1, 75, 0
2, 23840, Note_off_c, 1, 76, 0
2, 23840, Note_on_c, 1, 79, 127
2, 23840, Note_on_c, 1, 81, 127
2, 23880, Note_on_c, 1, 49, 127
2, 23880, Note_off_c, 1, 55, 0
2, 23880, Note_off_c, 1, 57, 0
2, 23880, Note_off_c, 1, 69, 0
2, 23880, Note_off_c, 1, 73, 0
2, 23880, Note_on_c, 1, 76, 127
2, 23880, Note_off_c, 1, 79, 0
2, 23880, Note_off_c, 1, 81, 0
2, 23880, Note_on_c, 1, 85, 127
2, 23880, Note_on_c, 1, 88, 127
2, 23920, Note_off_c, 1, 49, 0
2, 23920, Note_on_c, 1, 57, 127
2, 23920, Note_on_c, 1, 64, 127
2, 23920, Note_on_c, 1, 67, 127
2, 23920, Note_off_c, 1, 76, 0
2, 23920, Note_on_c, 1, 84, 127
2, 23920, Note_off_c, 1, 85, 0
2, 23920, Note_off_c, 1, 88, 0
2, 23960, Note_on_c, 1, 47, 127
2, 23960, Note_on_c, 1, 50, 127
2, 23960, Note_on_c, 1, 56, 127
2, 23960, Note_off_c, 1, 57, 0
2, 23960, Note_off_c, 1, 64, 0
2, 23960, Note_off_c, 1, 67, 0
2, 23960, Note_on_c, 1, 77, 127
2, 23960, Note_off_c, 1, 84, 0
2, 24000, Note_off_c, 1, 47, 0
2, 24000, Note_off_c, 1, 50, 0
2, 24000, Note_off_c, 1, 77, 0
2, 24000, Note_on_c, 1, 80, 127
2, 24000, Note_on_c, 1, 85, 127
2, 24000, Note_on_c, 1, 92, 127
2, 24120, Note_on_c, 1, 32, 127
2, 24120, Note_on_c, 1, 63, 127
2, 24120, Note_off_c, 1, 80, 0
2, 24120, Note_off_c, 1, 85, 0
2, 24120, Note_off_c, 1, 92, 0
2, 24160, Note_off_c, 1, 32, 0
2, 24160, Note_on_c, 1, 36, 127
2, 24160, Note_off_c, 1, 56, 0
2, 24160, Note_on_c, 1, 57, 127
2, 24160, Note_on_c, 1, 60, 127
2, 24160, Note_off_c, 1, 63, 0
2, 24160, Note_on_c, 1, 64, 127
2, 24160, Note_on_c, 1, 69, 127
2, 24160, Note_on_c, 1, 76, 127
2, 24200, Note_off_c, 1, 36, 0
2, 24200, Note_off_c, 1, 57, 0
2, 24200, Note_off_c, 1, 60, 0
2, 24200, Note_off_c, 1, 64, 0
2, 24200, Note_off_c, 1, 69, 0
2, 24200, Note_off_c, 1, 76, 0
2, 24240, Note_on_c, 1, 52, 127
2, 24240, Note_on_c, 1, 57, 127
2, 24240, Note_on_c, 1, 64, 127
2, 24240, Note_on_c, 1, 69, 127
2, 24240, Note_on_c, 1, 73, 127
2, 24400, Note_off_c, 1, 52, 0
2, 24400, Note_off_c, 1, 64, 0
2, 24400, Note_off_c, 1, 69, 0
2, 24400, Note_off_c, 1, 73, 0
2, 24440, Note_on_c, 1, 52, 127
2, 24440, Note_on_c, 1, 64, 127
2, 24440, Note_on_c, 1, 69, 127
2, 24440, Note_on_c, 1, 73, 127
2, 24640, Note_on_c, 1, 40, 127
2, 24640, Note_off_c, 1, 52, 0
2, 24640, Note_off_c, 1, 57, 0
2, 24640, Note_off_c, 1, 64, 0
2, 24640, Note_off_c, 1, 73, 0
2, 24680, Note_off_c, 1, 40, 0
2, 24680, Note_on_c, 1, 57, 127
2, 24680, Note_on_c, 1, 79, 127
2, 24680, Note_on_c, 1, 88, 127
2, 24800, Note_on_c, 1, 50, 127
2, 24800, Note_on_c, 1, 53, 127
2, 24800, Note_on_c, 1, 56, 127
2, 24800, Note_off_c, 1, 57, 0
2, 24800, Note_on_c, 1, 58, 127
2, 24800, Note_off_c, 1, 69, 0
2, 24800, Note_off_c, 1, 88, 0
2, 24840, Note_off_c, 1, 50, 0
2, 24840, Note_off_c, 1, 53, 0
2, 24840, Note_off_c, 1, 56, 0
2, 24840, Note_on_c, 1, 57, 127
2, 24840, Note_off_c, 1, 58, 0
2, 24840, Note_on_c, 1, 69, 127
2, 24840, Note_on_c, 1, 88, 127
2, 24880, Note_on_c, 1, 40, 127
2, 24880, Note_on_c, 1, 52, 127
2, 24880, Note_off_c, 1, 57, 0
2, 24880, Note_on_c, 1, 60, 127
2, 24880, Note_on_c, 1, 72, 127
2, 24880, Note_off_c, 1, 79, 0
2, 24880, Note_off_c, 1, 88, 0
2, 24920, Note_off_c, 1, 40, 0
2, 24920, Note_off_c, 1, 52, 0
2, 24920, Note_off_c, 1, 60, 0
2, 24920, Note_off_c, 1, 69, 0
2, 24920, Note_off_c, 1, 72, 0
2, 25000, Note_on_c, 1, 67, 127
2, 25000, Note_on_c, 1, 71, 127
2, 25000, Note_on_c, 1, 89, 127
2, 25040, Note_on_c, 1, 64, 127
2, 25040, Note_off_c, 1, 67, 0
2, 25040, Note_off_c, 1, 71, 0
2, 25040, Note_on_c, 1, 76, 127
2, 25040, Note_off_c, 1, 89, 0
2, 25040, Note_on_c, 1, 96, 127
2, 25080, Note_off_c, 1, 64, 0
2, 25080, Note_off_c, 1, 76, 0
2, 25080, Note_on_c, 1, 79, 127
2, 25080, Note_on_c, 1, 81, 127
2, 25080, Note_on_c, 1, 91, 127
2, 25080, Note_on_c, 1, 93, 127
2, 25080, Note_off_c, 1, 96, 0
2, 25120, Note_on_c, 1, 64, 127
2, 25120, Note_on_c, 1, 71, 127
2, 25120, Note_on_c, 1, 76, 127
2, 25120, Note_off_c, 1, 81, 0
2, 25120, Note_on_c, 1, 90, 127
2, 25120, Note_off_c, 1, 91, 0
2, 25120, Note_off_c, 1, 93, 0
2, 25160, Note_off_c, 1, 64, 0
2, 25160, Note_off_c, 1, 71, 0
2, 25160, Note_off_c, 1, 76, 0
2, 25160, Note_off_c, 1, 79, 0
2, 25160, Note_off_c, 1, 90, 0
2, 25200, Note_on_c, 1, 48, 127
2, 25200, Note_on_c, 1, 65, 127
2, 25200, Note_on_c, 1, 74, 127
2, 25200, Note_on_c, 1, 81, 127
2, 25240, Note_on_c, 1, 44, 127
2, 25240, Note_off_c, 1, 48, 0
2, 25240, Note_on_c, 1, 51, 127
2, 25240, Note_on_c, 1, 55, 127
2, 25240, Note_on_c, 1, 63, 127
2, 25240, Note_off_c, 1, 65, 0
2, 25240, Note_on_c, 1, 73, 127
2, 25240, Note_off_c, 1, 74, 0
2, 25240, Note_off_c, 1, 81, 0
2, 25280, Note_off_c, 1, 44, 0
2, 25280, Note_on_c, 1, 48, 127
2, 25280, Note_off_c, 1, 51, 0
2, 25280, Note_off_c, 1, 55, 0
2, 25280, Note_off_c, 1, 63, 0
2, 25280, Note_on_c, 1, 65, 127
2, 25280, Note_off_c, 1, 73, 0
2, 25280, Note_on_c, 1, 74, 127
2, 25280, Note_on_c, 1, 81, 127
2, 25360, Note_on_c, 1, 29, 127
2, 25360, Note_on_c, 1, 41, 127
2, 25360, Note_off_c, 1, 48, 0
2, 25360, Note_on_c, 1, 51, 127
2, 25360, Note_on_c, 1, 53, 127
2, 25360, Note_on_c, 1, 57, 127
2, 25360, Note_on_c, 1, 60, 127
2, 25360, Note_off_c, 1, 65, 0
2, 25360, Note_off_c, 1, 74, 0
2, 25360, Note_off_c, 1, 81, 0
2, 25400, Note_off_c, 1, 29, 0
2, 25400, Note_off_c, 1, 41, 0
2, 25400, Note_off_c, 1, 51, 0
2, 25400, Note_off_c, 1, 53, 0
2, 25400, Note_off_c, 1, 57, 0
2, 25400, Note_off_c, 1, 60, 0
2, 25440, Note_on_c, 1, 52, 127
2, 25440, Note_on_c, 1, 54, 127
2, 25440, Note_on_c, 1, 69, 127
2, 25480, Note_off_c, 1, 54, 0
2, 25480, Note_on_c, 1, 55, 127
2, 25520, Note_on_c, 1, 54, 127
2, 25520, Note_off_c, 1, 55, 0
2, 25560, Note_off_c, 1, 52, 0
2, 25560, Note_off_c, 1, 54, 0
2, 25600, Note_on_c, 1, 57, 127
2, 25600, Note_off_c, 1, 69, 0
2, 25640, Note_on_c, 1, 69, 127
2, 25640, Note_on_c, 1, 74, 127
2, 25640, Note_on_c, 1, 81, 127
2, 25800, Note_off_c, 1, 57, 0
2, 25800, Note_off_c, 1, 69, 0
2, 25800, Note_off_c, 1, 74, 0
2, 25800, Note_off_c, 1, 81, 0
2, 25840, Note_on_c, 1, 56, 127
2, 25840, Note_on_c, 1, 59, 127
2, 25840, Note_on_c, 1, 68, 127
2, 25840, Note_on_c, 1, 71, 127
2, 25840, Note_on_c, 1, 73, 127
2, 25840, Note_on_c, 1, 83, 127
2, 25880, Note_on_c, 1, 52, 127
2, 25880, Note_off_c, 1, 56, 0
2, 25880, Note_off_c, 1, 59, 0
2, 25880, Note_on_c, 1, 66, 127
2, 25880, Note_off_c, 1, 68, 0
2, 25880, Note_off_c, 1, 71, 0
2, 25880, Note_on_c, 1, 78, 127
2, 25880, Note_on_c, 1, 81, 127
2, 25880, Note_off_c, 1, 83, 0
2, 25920, Note_on_c, 1, 61, 127
2, 25920, Note_off_c, 1, 66, 0
2, 25920, Note_on_c, 1, 70, 127
2, 25920, Note_off_c, 1, 73, 0
2, 25920, Note_on_c, 1, 77, 127
2, 25920, Note_off_c, 1, 78, 0
2, 25920, Note_off_c, 1, 81, 0
2, 25960, Note_off_c, 1, 61, 0
2, 25960, Note_on_c, 1, 66, 127
2, 25960, Note_off_c, 1, 70, 0
2, 25960, Note_on_c, 1, 73, 127
2, 25960, Note_off_c, 1, 77, 0
2, 25960, Note_on_c, 1, 78, 127
2, 25960, Note_on_c, 1, 81, 127
2, 26000, Note_on_c, 1, 57, 127
2, 26000, Note_off_c, 1, 66, 0
2, 26000, Note_off_c, 1, 81, 0
2, 26040, Note_off_c, 1, 52, 0
2, 26040, Note_off_c, 1, 57, 0
2, 26040, Note_off_c, 1, 73, 0
2, 26040, Note_off_c, 1, 78, 0
2, 26080, Note_on_c, 1, 56, 127
2, 26080, Note_on_c, 1, 59, 127
2, 26080, Note_on_c, 1, 83, 127
2, 26080, Note_on_c, 1, 88, 127
2, 26160, Note_on_c, 1, 53, 127
2, 26160, Note_off_c, 1, 56, 0
2, 26160, Note_off_c, 1, 59, 0
2, 26160, Note_off_c, 1, 83, 0
2, 26160, Note_on_c, 1, 87, 127
2, 26160, Note_off_c, 1, 88, 0
2, 26200, Note_on_c, 1, 51, 127
2, 26200, Note_off_c, 1, 53, 0
2, 26200, Note_on_c, 1, 83, 127
2, 26200, Note_off_c, 1, 87, 0
2, 26240, Note_off_c, 1, 51, 0
2, 26240, Note_on_c, 1, 55, 127
2, 26240, Note_off_c, 1, 83, 0
2, 26240, Note_on_c, 1, 86, 127
2, 26240, Note_on_c, 1, 93, 127
2, 26280, Note_off_c, 1, 55, 0
2, 26280, Note_on_c, 1, 59, 127
2, 26280, Note_off_c, 1, 93, 0
2, 26320, Note_on_c, 1, 39, 127
2, 26320, Note_on_c, 1, 51, 127
2, 26320, Note_off_c, 1, 59, 0
2, 26320, Note_on_c, 1, 63, 127
2, 26320, Note_on_c, 1, 71, 127
2, 26320, Note_on_c, 1, 75, 127
2, 26320, Note_off_c, 1, 86, 0
2, 26360, Note_on_c, 1, 38, 127
2, 26360, Note_off_c, 1, 39, 0
2, 26360, Note_on_c, 1, 50, 127
2, 26360, Note_off_c, 1, 51, 0
2, 26360, Note_off_c, 1, 63, 0
2, 26360, Note_off_c, 1, 75, 0
2, 26360, Note_on_c, 1, 77, 127
2, 26360, Note_on_c, 1, 83, 127
2, 26400, Note_off_c, 1, 38, 0
2, 26400, Note_off_c, 1, 50, 0
2, 26400, Note_on_c, 1, 64, 127
2, 26400, Note_off_c, 1, 71, 0
2, 26400, Note_off_c, 1, 83, 0
2, 26400, Note_on_c, 1, 84, 127
2, 26400, Note_on_c, 1, 87, 127
2, 26400, Note_on_c, 1, 89, 127
2, 26440, Note_off_c, 1, 64, 0
2, 26440, Note_on_c, 1, 81, 127
2, 26440, Note_off_c, 1, 87, 0
2, 26440, Note_on_c, 1, 96, 127
2, 26480, Note_on_c, 1, 64, 127
2, 26480, Note_off_c, 1, 77, 0
2, 26480, Note_off_c, 1, 81, 0
2, 26480, Note_off_c, 1, 84, 0
2, 26480, Note_on_c, 1, 86, 127
2, 26480, Note_off_c, 1, 89, 0
2, 26480, Note_off_c, 1, 96, 0
2, 26520, Note_on_c, 1, 52, 127
2, 26520, Note_on_c, 1, 62, 127
2, 26520, Note_off_c, 1, 64, 0
2, 26520, Note_on_c, 1, 65, 127
2, 26520, Note_on_c, 1, 69, 127
2, 26520, Note_on_c, 1, 74, 127
2, 26520, Note_off_c, 1, 86, 0
2, 26680, Note_off_c, 1, 52, 0
2, 26680, Note_off_c, 1, 62, 0
2, 26680, Note_off_c, 1, 69, 0
2, 26680, Note_off_c, 1, 74, 0
2, 26680, Note_on_c, 1, 79, 127
2, 26680, Note_on_c, 1, 81, 127
2, 26680, Note_on_c, 1, 88, 127
2, 26680, Note_on_c, 1, 91, 127
2, 26720, Note_on_c, 1, 62, 127
2, 26720, Note_on_c, 1, 69, 127
2, 26720, Note_on_c, 1, 74, 127
2, 26720, Note_off_c, 1, 79, 0
2, 26720, Note_off_c, 1, 81, 0
2, 26720, Note_off_c, 1, 88, 0
2, 26720, Note_off_c, 1, 91, 0
2, 26760, Note_on_c, 1, 55, 127
2, 26760, Note_on_c, 1, 58, 127
2, 26760, Note_off_c, 1, 62, 0
2, 26760, Note_off_c, 1, 65, 0
2, 26760, Note_on_c, 1, 66, 127
2, 26760, Note_off_c, 1, 69, 0
2, 26760, Note_off_c, 1, 74, 0
2, 26800, Note_on_c, 1, 50, 127
2, 26800, Note_off_c, 1, 55, 0
2, 26800, Note_off_c, 1, 58, 0
2, 26800, Note_on_c, 1, 70, 127
2, 26800, Note_on_c, 1, 78, 127
2, 26840, Note_off_c, 1, 50, 0
2, 26840, Note_off_c, 1, 66, 0
2, 26840, Note_off_c, 1, 70, 0
2, 26840, Note_off_c, 1, 78, 0
2, 26880, Note_on_c, 1, 55, 127
2, 26880, Note_on_c, 1, 58, 127
2, 26880, Note_on_c, 1, 66, 127
2, 26960, Note_on_c, 1, 50, 127
2, 26960, Note_off_c, 1, 55, 0
2, 26960, Note_off_c, 1, 58, 0
2, 26960, Note_off_c, 1, 66, 0
2, 27000, Note_off_c, 1, 50, 0
2, 27000, Note_on_c, 1, 75, 127
2, 27000, Note_on_c, 1, 81, 127
2, 27000, Note_on_c, 1, 87, 127
2, 27000, Note_on_c, 1, 90, 127
2, 27000, Note_on_c, 1, 93, 127
2, 27040, Note_on_c, 1, 49, 127
2, 27040, Note_on_c, 1, 52, 127
2, 27040, Note_on_c, 1, 67, 127
2, 27040, Note_on_c, 1, 73, 127
2, 27040, Note_off_c, 1, 75, 0
2, 27040, Note_off_c, 1, 81, 0
2, 27040, Note_off_c, 1, 87, 0
2, 27040, Note_off_c, 1, 90, 0
2, 27040, Note_off_c, 1, 93, 0
2, 27080, Note_on_c, 1, 40, 127
2, 27080, Note_off_c, 1, 49, 0
2, 27080, Note_off_c, 1, 52, 0
2, 27080, Note_on_c, 1, 58, 127
2, 27080, Note_off_c, 1, 67, 0
2, 27080, Note_on_c, 1, 72, 127
2, 27080, Note_off_c, 1, 73, 0
2, 27120, Note_off_c, 1, 40, 0
2, 27120, Note_off_c, 1, 58, 0
2, 27120, Note_on_c, 1, 62, 127
2, 27120, Note_on_c, 1, 66, 127
2, 27120, Note_off_c, 1, 72, 0
2, 27120, Note_on_c, 1, 81, 127
2, 27120, Note_on_c, 1, 85, 127
2, 27160, Note_on_c, 1, 44, 127
2, 27160, Note_on_c, 1, 56, 127
2, 27160, Note_off_c, 1, 62, 0
2, 27160, Note_off_c, 1, 66, 0
2, 27160, Note_on_c, 1, 68, 127
2, 27160, Note_on_c, 1, 72, 127
2, 27160, Note_on_c, 1, 75, 127
2, 27160, Note_off_c, 1, 81, 0
2, 27160, Note_off_c, 1, 85, 0
2, 27160, Note_on_c, 1, 92, 127
2, 27160, Note_on_c, 1, 99, 127
2, 27200, Note_off_c, 1, 44, 0
2, 27200, Note_off_c, 1, 56, 0
2, 27200, Note_off_c, 1, 68, 0
2, 27200, Note_off_c, 1, 72, 0
2, 27200, Note_off_c, 1, 75, 0
2, 27200, Note_on_c, 1, 80, 127
2, 27200, Note_on_c, 1, 83, 127
2, 27200, Note_on_c, 1, 86, 127
2, 27200, Note_off_c, 1, 99, 0
2, 27240, Note_on_c, 1, 55, 127
2, 27240, Note_on_c, 1, 62, 127
2, 27240, Note_on_c, 1, 64, 127
2, 27240, Note_on_c, 1, 76, 127
2, 27240, Note_on_c, 1, 79, 127
2, 27240, Note_off_c, 1, 80, 0
2, 27240, Note_off_c, 1, 83, 0
2, 27240, Note_off_c, 1, 86, 0
2, 27240, Note_on_c, 1, 88, 127
2, 27240, Note_off_c, 1, 92, 0
2, 27360, Note_off_c, 1, 55, 0
2, 27360, Note_on_c, 1, 56, 127
2, 27360, Note_on_c, 1, 59, 127
2, 27360, Note_off_c, 1, 62, 0
2, 27360, Note_on_c, 1, 68, 127
2, 27360, Note_on_c, 1, 71, 127
2, 27360, Note_off_c, 1, 79, 0
2, 27360, Note_off_c, 1, 88, 0
2, 27400, Note_off_c, 1, 56, 0
2, 27400, Note_off_c, 1, 59, 0
2, 27400, Note_off_c, 1, 64, 0
2, 27400, Note_off_c, 1, 68, 0
2, 27400, Note_off_c, 1, 71, 0
2, 27400, Note_off_c, 1, 76, 0
2, 27440, Note_on_c, 1, 40, 127
2, 27440, Note_on_c, 1, 94, 127
2, 27440, Note_on_c, 1, 95, 127
2, 27480, Note_on_c, 1, 39, 127
2, 27480, Note_off_c, 1, 40, 0
2, 27480, Note_on_c, 1, 46, 127
2, 27480, Note_on_c, 1, 55, 127
2, 27480, Note_on_c, 1, 58, 127
2, 27480, Note_on_c, 1, 63, 127
2, 27480, Note_on_c, 1, 75, 127
2, 27480, Note_on_c, 1, 87, 127
2, 27480, Note_off_c, 1, 94, 0
2, 27480, Note_off_c, 1, 95, 0
2, 27520, Note_off_c, 1, 39, 0
2, 27520, Note_off_c, 1, 46, 0
2, 27520, Note_off_c, 1, 55, 0
2, 27520, Note_off_c, 1, 58, 0
2, 27520, Note_off_c, 1, 63, 0
2, 27520, Note_off_c, 1, 75, 0
2, 27520, Note_off_c, 1, 87, 0
2, 27520, Note_on_c, 1, 90, 127
2, 27520, Note_on_c, 1, 91, 127
2, 27560, Note_on_c, 1, 51, 127
2, 27560, Note_on_c, 1, 54, 127
2, 27560, Note_on_c, 1, 83, 127
2, 27560, Note_off_c, 1, 90, 0
2, 27560, Note_off_c, 1, 91, 0
2, 27560, Note_on_c, 1, 95, 127
2, 27600, Note_on_c, 1, 44, 127
2, 27600, Note_on_c, 1, 48, 127
2, 27600, Note_off_c, 1, 51, 0
2, 27600, Note_on_c, 1, 53, 127
2, 27600, Note_off_c, 1, 54, 0
2, 27600, Note_off_c, 1, 83, 0
2, 27600, Note_on_c, 1, 92, 127
2, 27600, Note_off_c, 1, 95, 0
2, 27640, Note_off_c, 1, 44, 0
2, 27640, Note_off_c, 1, 48, 0
2, 27640, Note_off_c, 1, 53, 0
2, 27640, Note_on_c, 1, 83, 127
2, 27640, Note_off_c, 1, 92, 0
2, 27640, Note_on_c, 1, 95, 127
2, 27720, Note_off_c, 1, 83, 0
2, 27720, Note_off_c, 1, 95, 0
2, 27760, Note_on_c, 1, 35, 127
2, 27760, Note_on_c, 1, 39, 127
2, 27760, Note_on_c, 1, 47, 127
2, 27760, Note_on_c, 1, 78, 127
2, 27760, Note_on_c, 1, 83, 127
2, 27760, Note_on_c, 1, 87, 127
2, 27760, Note_on_c, 1, 90, 127
2, 28160, Note_off_c, 1, 39, 0
2, 28160, Note_off_c, 1, 47, 0
2, 28160, Note_off_c, 1, 78, 0
2, 28160, Note_off_c, 1, 83, 0
2, 28160, Note_off_c, 1, 87, 0
2, 28160, Note_off_c, 1, 90, 0
2, 28200, Note_off_c, 1, 35, 0
2, 28200, Note_on_c, 1, 59, 127
2, 28200, Note_on_c, 1, 71, 127
2, 28200, Note_on_c, 1, 76, 127
2, 28200, Note_on_c, 1, 83, 127
2, 28360, Note_on_c, 1, 45, 127
2, 28360, Note_on_c, 1, 57, 127
2, 28360, Note_off_c, 1, 59, 0
2, 28360, Note_off_c, 1, 71, 0
2, 28360, Note_on_c, 1, 73, 127
2, 28360, Note_on_c, 1, 81, 127
2, 28360, Note_off_c, 1, 83, 0
2, 28360, Note_on_c, 1, 85, 127
2, 28400, Note_off_c, 1, 45, 0
2, 28400, Note_off_c, 1, 57, 0
2, 28400, Note_on_c, 1, 71, 127
2, 28400, Note_off_c, 1, 73, 0
2, 28400, Note_off_c, 1, 81, 0
2, 28400, Note_on_c, 1, 83, 127
2, 28400, Note_off_c, 1, 85, 0
2, 28440, Note_on_c, 1, 60, 127
2, 28600, Note_off_c, 1, 60, 0
2, 28640, Note_on_c, 1, 59, 127
2, 28800, Note_off_c, 1, 59, 0
2, 28800, Note_off_c, 1, 71, 0
2, 28800, Note_off_c, 1, 76, 0
2, 28800, Note_off_c, 1, 83, 0
2, 28840, Note_on_c, 1, 57, 127
2, 28840, Note_on_c, 1, 64, 127
2, 28840, Note_on_c, 1, 69, 127
2, 28840, Note_on_c, 1, 73, 127
2, 28840, Note_on_c, 1, 76, 127
2, 28840, Note_on_c, 1, 85, 127
2, 29040, Note_off_c, 1, 57, 0
2, 29040, Note_off_c, 1, 64, 0
2, 29040, Note_off_c, 1, 69, 0
2, 29040, Note_off_c, 1, 76, 0
2, 29080, Note_off_c, 1, 73, 0
2, 29080, Note_off_c, 1, 85, 0
2, 29120, Note_on_c, 1, 61, 127
2, 29120, Note_on_c, 1, 73, 127
2, 29120, Note_on_c, 1, 76, 127
2, 29120, Note_on_c, 1, 88, 127
2, 29280, Note_off_c, 1, 61, 0
2, 29280, Note_off_c, 1, 73, 0
2, 29280, Note_off_c, 1, 76, 0
2, 29280, Note_off_c, 1, 88, 0
2, 29320, Note_on_c, 1, 40, 127
2, 29320, Note_on_c, 1, 52, 127
2, 29320, Note_on_c, 1, 82, 127
2, 29320, Note_on_c, 1, 85, 127
2, 29320, Note_on_c, 1, 94, 127
2, 29480, Note_off_c, 1, 40, 0
2, 29480, Note_off_c, 1, 52, 0
2, 29480, Note_off_c, 1, 82, 0
2, 29480, Note_off_c, 1, 85, 0
2, 29480, Note_off_c, 1, 94, 0
2, 29520, Note_on_c, 1, 32, 127
2, 29520, Note_on_c, 1, 44, 127
2, 29520, Note_on_c, 1, 71, 127
2, 29520, Note_on_c, 1, 83, 127
2, 29680, Note_off_c, 1, 32, 0
2, 29680, Note_off_c, 1, 44, 0
2, 29680, Note_off_c, 1, 71, 0
2, 29680, Note_off_c, 1, 83, 0
2, 29720, Note_on_c, 1, 52, 127
2, 29720, Note_on_c, 1, 57, 127
2, 29720, Note_on_c, 1, 60, 127
2, 29720, Note_on_c, 1, 63, 127
2, 29720, Note_on_c, 1, 66, 127
2, 29720, Note_on_c, 1, 69, 127
2, 30160, Note_off_c, 1, 52, 0
2, 30160, Note_on_c, 1, 55, 127
2, 30160, Note_off_c, 1, 57, 0
2, 30160, Note_off_c, 1, 60, 0
2, 30160, Note_on_c, 1, 62, 127
2, 30160, Note_off_c, 1, 63, 0
2, 30160, Note_off_c, 1, 66, 0
2, 30160, Note_off_c, 1, 69, 0
2, 30160, Note_on_c, 1, 71, 127
2, 30160, Note_on_c, 1, 78, 127
2, 30160, Note_on_c, 1, 86, 127
2, 30320, Note_off_c, 1, 55, 0
2, 30320, Note_off_c, 1, 62, 0
2, 30320, Note_off_c, 1, 71, 0
2, 30320, Note_off_c, 1, 78, 0
2, 30320, Note_off_c, 1, 86, 0
2, 30360, Note_on_c, 1, 56, 127
2, 30360, Note_on_c, 1, 59, 127
2, 30360, Note_on_c, 1, 64, 127
2, 30360, Note_on_c, 1, 68, 127
2, 30360, Note_on_c, 1, 88, 127
2, 30360, Note_on_c, 1, 95, 127
2, 30360, Note_on_c, 1, 100, 127
2, 30400, Note_off_c, 1, 56, 0
2, 30400, Note_off_c, 1, 59, 0
2, 30400, Note_off_c, 1, 64, 0
2, 30400, Note_off_c, 1, 68, 0
2, 30440, Note_on_c, 1, 56, 127
2, 30440, Note_on_c, 1, 59, 127
2, 30440, Note_on_c, 1, 64, 127
2, 30440, Note_on_c, 1, 68, 127
2, 30480, Note_off_c, 1, 56, 0
2, 30480, Note_off_c, 1, 59, 0
2, 30480, Note_off_c, 1, 64, 0
2, 30480, Note_off_c, 1, 68, 0
2, 30560, Note_off_c, 1, 88, 0
2, 30560, Note_off_c, 1, 95, 0
2, 30560, Note_off_c, 1, 100, 0
2, 30600, Note_on_c, 1, 88, 127
2, 30600, Note_on_c, 1, 95, 127
2, 30600, Note_on_c, 1, 100, 127
2, 30960, Note_off_c, 1, 88, 0
2, 30960, Note_off_c, 1, 95, 0
2, 30960, Note_off_c, 1, 100, 0
2, 31000, Note_on_c, 1, 57, 127
2, 31000, Note_on_c, 1, 63, 127
2, 31000, Note_on_c, 1, 66, 127
2, 31000, Note_on_c, 1, 78, 127
2, 31000, Note_on_c, 1, 90, 127
2, 31120, Note_on_c, 1, 34, 127
2, 31120, Note_on_c, 1, 46, 127
2, 31120, Note_off_c, 1, 57, 0
2, 31120, Note_off_c, 1, 63, 0
2, 31120, Note_on_c, 1, 75, 127
2, 31120, Note_off_c, 1, 78, 0
2, 31120, Note_off_c, 1, 90, 0
2, 31160, Note_off_c, 1, 34, 0
2, 31160, Note_off_c, 1, 46, 0
2, 31160, Note_off_c, 1, 66, 0
2, 31160, Note_off_c, 1, 75, 0
2, 31200, Note_on_c, 1, 57, 127
2, 31200, Note_on_c, 1, 63, 127
2, 31200, Note_on_c, 1, 66, 127
2, 31200, Note_on_c, 1, 78, 127
2, 31200, Note_on_c, 1, 90, 127
2, 31320, Note_off_c, 1, 57, 0
2, 31320, Note_off_c, 1, 63, 0
2, 31320, Note_off_c, 1, 66, 0
2, 31320, Note_off_c, 1, 78, 0
2, 31320, Note_off_c, 1, 90, 0
2, 31480, Note_on_c, 1, 47, 127
2, 31480, Note_on_c, 1, 57, 127
2, 31480, Note_on_c, 1, 66, 127
2, 31480, Note_on_c, 1, 75, 127
2, 31480, Note_on_c, 1, 78, 127
2, 31840, Note_off_c, 1, 47, 0
2, 31840, Note_off_c, 1, 57, 0
2, 31840, Note_off_c, 1, 66, 0
2, 31840, Note_off_c, 1, 75, 0
2, 31840, Note_off_c, 1, 78, 0
2, 32120, Note_on_c, 1, 59, 127
2, 32280, Note_off_c, 1, 59, 0
2, 32320, Note_on_c, 1, 69, 127
2, 32720, Note_on_c, 1, 57, 127
2, 33160, Note_on_c, 1, 52, 127
2, 33400, Note_off_c, 1, 52, 0
2, 33400, Note_off_c, 1, 57, 0
2, 33400, Note_off_c, 1, 69, 0
2, 33440, Note_on_c, 1, 52, 127
2, 33440, Note_on_c, 1, 57, 127
2, 33440, Note_on_c, 1, 69, 127
2, 33600, Note_off_c, 1, 52, 0
2, 33600, Note_off_c, 1, 57, 0
2, 33600, Note_off_c, 1, 69, 0
2, 33640, Note_on_c, 1, 57, 127
2, 33640, Note_on_c, 1, 69, 127
2, 34040, Note_off_c, 1, 57, 0
2, 34040, Note_off_c, 1, 69, 0
2, 34080, Note_on_c, 1, 52, 127
2, 34080, Note_on_c, 1, 60, 127
2, 34080, Note_on_c, 1, 67, 127
2, 34080, Note_on_c, 1, 72, 127
2, 34480, Note_off_c, 1, 52, 0
2, 34480, Note_off_c, 1, 60, 0
2, 34480, Note_off_c, 1, 67, 0
2, 34480, Note_off_c, 1, 72, 0
2, 34520, Note_on_c, 1, 40, 127
2, 34520, Note_on_c, 1, 52, 127
2, 34520, Note_on_c, 1, 67, 127
2, 34520, Note_on_c, 1, 71, 127
2, 34520, Note_on_c, 1, 75, 127
2, 34560, Note_off_c, 1, 40, 0
2, 34560, Note_on_c, 1, 44, 127
2, 34560, Note_on_c, 1, 48, 127
2, 34560, Note_off_c, 1, 52, 0
2, 34560, Note_off_c, 1, 67, 0
2, 34560, Note_off_c, 1, 71, 0
2, 34560, Note_on_c, 1, 72, 127
2, 34560, Note_on_c, 1, 74, 127
2, 34560, Note_off_c, 1, 75, 0
2, 34560, Note_on_c, 1, 84, 127
2, 34600, Note_on_c, 1, 40, 127
2, 34600, Note_off_c, 1, 44, 0
2, 34600, Note_off_c, 1, 48, 0
2, 34600, Note_on_c, 1, 52, 127
2, 34600, Note_on_c, 1, 67, 127
2, 34600, Note_on_c, 1, 71, 127
2, 34600, Note_off_c, 1, 72, 0
2, 34600, Note_off_c, 1, 74, 0
2, 34600, Note_on_c, 1, 75, 127
2, 34600, Note_off_c, 1, 84, 0
2, 34840, Note_off_c, 1, 40, 0
2, 34840, Note_on_c, 1, 45, 127
2, 34840, Note_off_c, 1, 52, 0
2, 34840, Note_on_c, 1, 57, 127
2, 34840, Note_off_c, 1, 67, 0
2, 34840, Note_off_c, 1, 71, 0
2, 34840, Note_on_c, 1, 73, 127
2, 34840, Note_off_c, 1, 75, 0
2, 34840, Note_on_c, 1, 79, 127
2, 34880, Note_on_c, 1, 40, 127
2, 34880, Note_off_c, 1, 45, 0
2, 34880, Note_on_c, 1, 52, 127
2, 34880, Note_off_c, 1, 57, 0
2, 34880, Note_on_c, 1, 67, 127
2, 34880, Note_on_c, 1, 71, 127
2, 34880, Note_off_c, 1, 73, 0
2, 34880, Note_on_c, 1, 75, 127
2, 34880, Note_off_c, 1, 79, 0
2, 34920, Note_off_c, 1, 75, 0
2, 34960, Note_on_c, 1, 74, 127
2, 35320, Note_off_c, 1, 40, 0
2, 35320, Note_off_c, 1, 52, 0
2, 35320, Note_off_c, 1, 67, 0
2, 35320, Note_off_c, 1, 71, 0
2, 35320, Note_off_c, 1, 74, 0
2, 35360, Note_on_c, 1, 62, 127
2, 35360, Note_on_c, 1, 64, 127
2, 35360, Note_on_c, 1, 67, 127
2, 35360, Note_on_c, 1, 86, 127
2, 35400, Note_off_c, 1, 86, 0
2, 35600, Note_off_c, 1, 62, 0
2, 35600, Note_off_c, 1, 64, 0
2, 35600, Note_off_c, 1, 67, 0
2, 35640, Note_on_c, 1, 62, 127
2, 35640, Note_on_c, 1, 64, 127
2, 35640, Note_on_c, 1, 67, 127
2, 35800, Note_off_c, 1, 62, 0
2, 35800, Note_off_c, 1, 64, 0
2, 35800, Note_off_c, 1, 67, 0
2, 35840, Note_on_c, 1, 52, 127
2, 35840, Note_on_c, 1, 55, 127
2, 35840, Note_on_c, 1, 61, 127
2, 35840, Note_on_c, 1, 71, 127
2, 36240, Note_off_c, 1, 52, 0
2, 36240, Note_off_c, 1, 55, 0
2, 36240, Note_off_c, 1, 61, 0
2, 36240, Note_off_c, 1, 71, 0
2, 36280, Note_on_c, 1, 52, 127
2, 36280, Note_on_c, 1, 55, 127
2, 36280, Note_on_c, 1, 61, 127
2, 36280, Note_on_c, 1, 71, 127
2, 36640, Note_off_c, 1, 52, 0
2, 36640, Note_off_c, 1, 55, 0
2, 36640, Note_off_c, 1, 61, 0
2, 36640, Note_off_c, 1, 71, 0
2, 36680, Note_on_c, 1, 35, 127
2, 36680, Note_on_c, 1, 47, 127
2, 36680, Note_on_c, 1, 62, 127
2, 36680, Note_on_c, 1, 65, 127
2, 36680, Note_on_c, 1, 68, 127
2, 37080, Note_off_c, 1, 62, 0
2, 37080, Note_off_c, 1, 65, 0
2, 37080, Note_off_c, 1, 68, 0
2, 37120, Note_off_c, 1, 35, 0
2, 37120, Note_on_c, 1, 37, 127
2, 37120, Note_off_c, 1, 47, 0
2, 37120, Note_on_c, 1, 49, 127
2, 37120, Note_on_c, 1, 56, 127
2, 37120, Note_on_c, 1, 68, 127
2, 37480, Note_off_c, 1, 37, 0
2, 37480, Note_off_c, 1, 49, 0
2, 37480, Note_off_c, 1, 56, 0
2, 37480, Note_off_c, 1, 68, 0
2, 37520, Note_on_c, 1, 43, 127
2, 37520, Note_on_c, 1, 50, 127
2, 37520, Note_on_c, 1, 59, 127
2, 37520, Note_on_c, 1, 65, 127
2, 37520, Note_on_c, 1, 69, 127
2, 37640, Note_off_c, 1, 43, 0
2, 37640, Note_off_c, 1, 50, 0
2, 37640, Note_off_c, 1, 59, 0
2, 37640, Note_off_c, 1, 65, 0
2, 37640, Note_off_c, 1, 69, 0
2, 37680, Note_on_c, 1, 43, 127
2, 37680, Note_on_c, 1, 50, 127
2, 37680, Note_on_c, 1, 59, 127
2, 37680, Note_on_c, 1, 65, 127
2, 37680, Note_on_c, 1, 69, 127
2, 37840, Note_off_c, 1, 69, 0
2, 37880, Note_on_c, 1, 69, 127
2, 37960, Note_off_c, 1, 59, 0
2, 37960, Note_off_c, 1, 65, 0
2, 37960, Note_off_c, 1, 69, 0
2, 38000, Note_off_c, 1, 43, 0
2, 38000, Note_on_c, 1, 48, 127
2, 38000, Note_off_c, 1, 50, 0
2, 38000, Note_on_c, 1, 55, 127
2, 38000, Note_on_c, 1, 58, 127
2, 38000, Note_on_c, 1, 70, 127
2, 38000, Note_on_c, 1, 74, 127
2, 38000, Note_on_c, 1, 77, 127
2, 38040, Note_on_c, 1, 31, 127
2, 38040, Note_on_c, 1, 36, 127
2, 38040, Note_on_c, 1, 43, 127
2, 38040, Note_off_c, 1, 48, 0
2, 38040, Note_off_c, 1, 55, 0
2, 38040, Note_off_c, 1, 58, 0
2, 38040, Note_on_c, 1, 60, 127
2, 38040, Note_off_c, 1, 70, 0
2, 38040, Note_off_c, 1, 74, 0
2, 38040, Note_off_c, 1, 77, 0
2, 38080, Note_off_c, 1, 31, 0
2, 38080, Note_off_c, 1, 36, 0
2, 38080, Note_on_c, 1, 41, 127
2, 38080, Note_off_c, 1, 43, 0
2, 38080, Note_on_c, 1, 45, 127
2, 38080, Note_on_c, 1, 50, 127
2, 38080, Note_on_c, 1, 53, 127
2, 38080, Note_off_c, 1, 60, 0
2, 38080, Note_on_c, 1, 69, 127
2, 38080, Note_on_c, 1, 74, 127
2, 38080, Note_on_c, 1, 77, 127
2, 38080, Note_on_c, 1, 81, 127
2, 38120, Note_on_c, 1, 34, 127
2, 38120, Note_off_c, 1, 45, 0
2, 38120, Note_off_c, 1, 50, 0
2, 38120, Note_on_c, 1, 58, 127
2, 38120, Note_on_c, 1, 62, 127
2, 38120, Note_off_c, 1, 69, 0
2, 38120, Note_off_c, 1, 74, 0
2, 38120, Note_off_c, 1, 77, 0
2, 38120, Note_off_c, 1, 81, 0
2, 38160, Note_on_c, 1, 33, 127
2, 38160, Note_off_c, 1, 34, 0
2, 38160, Note_off_c, 1, 41, 0
2, 38160, Note_on_c, 1, 45, 127
2, 38160, Note_on_c, 1, 51, 127
2, 38160, Note_off_c, 1, 53, 0
2, 38160, Note_on_c, 1, 54, 127
2, 38160, Note_on_c, 1, 57, 127
2, 38160, Note_off_c, 1, 58, 0
2, 38160, Note_off_c, 1, 62, 0
2, 38160, Note_on_c, 1, 69, 127
2, 38200, Note_off_c, 1, 33, 0
2, 38200, Note_off_c, 1, 45, 0
2, 38200, Note_off_c, 1, 51, 0
2, 38200, Note_on_c, 1, 53, 127
2, 38200, Note_off_c, 1, 54, 0
2, 38200, Note_on_c, 1, 56, 127
2, 38200, Note_off_c, 1, 57, 0
2, 38200, Note_on_c, 1, 59, 127
2, 38200, Note_on_c, 1, 62, 127
2, 38200, Note_off_c, 1, 69, 0
2, 38200, Note_on_c, 1, 71, 127
2, 38360, Note_off_c, 1, 53, 0
2, 38360, Note_off_c, 1, 56, 0
2, 38360, Note_off_c, 1, 59, 0
2, 38360, Note_off_c, 1, 62, 0
2, 38360, Note_off_c, 1, 71, 0
2, 38400, Note_on_c, 1, 40, 127
2, 38400, Note_on_c, 1, 52, 127
2, 38400, Note_on_c, 1, 69, 127
2, 38640, Note_on_c, 1, 62, 127
2, 38800, Note_off_c, 1, 62, 0
2, 38800, Note_off_c, 1, 69, 0
2, 38840, Note_on_c, 1, 64, 127
2, 39040, Note_off_c, 1, 40, 0
2, 39040, Note_on_c, 1, 42, 127
2, 39240, Note_off_c, 1, 42, 0
2, 39280, Note_on_c, 1, 45, 127
2, 39280, Note_off_c, 1, 52, 0
2, 39280, Note_on_c, 1, 54, 127
2, 39280, Note_off_c, 1, 64, 0
2, 39280, Note_on_c, 1, 66, 127
2, 39640, Note_off_c, 1, 45, 0
2, 39640, Note_off_c, 1, 66, 0
2, 39680, Note_off_c, 1, 54, 0
2, 39720, Note_on_c, 1, 44, 127
2, 39720, Note_on_c, 1, 52, 127
2, 39720, Note_on_c, 1, 64, 127
2, 39720, Note_on_c, 1, 71, 127
2, 39720, Note_on_c, 1, 76, 127
2, 40080, Note_off_c, 1, 44, 0
2, 40080, Note_on_c, 1, 45, 127
2, 40080, Note_off_c, 1, 52, 0
2, 40080, Note_on_c, 1, 63, 127
2, 40080, Note_off_c, 1, 64, 0
2, 40080, Note_off_c, 1, 71, 0
2, 40080, Note_on_c, 1, 74, 127
2, 40080, Note_off_c, 1, 76, 0
2, 40120, Note_on_c, 1, 44, 127
2, 40120, Note_off_c, 1, 45, 0
2, 40120, Note_on_c, 1, 52, 127
2, 40120, Note_off_c, 1, 63, 0
2, 40120, Note_off_c, 1, 74, 0
2, 40160, Note_off_c, 1, 44, 0
2, 40160, Note_on_c, 1, 45, 127
2, 40160, Note_on_c, 1, 64, 127
2, 40160, Note_on_c, 1, 69, 127
2, 40160, Note_on_c, 1, 73, 127
2, 40520, Note_off_c, 1, 45, 0
2, 40520, Note_off_c, 1, 52, 0
2, 40520, Note_off_c, 1, 64, 0
2, 40520, Note_off_c, 1, 69, 0
2, 40520, Note_off_c, 1, 73, 0
2, 40560, Note_on_c, 1, 45, 127
2, 40560, Note_on_c, 1, 74, 127
2, 40960, Note_off_c, 1, 45, 0
2, 40960, Note_off_c, 1, 74, 0
2, 41000, Note_on_c, 1, 45, 127
2, 41000, Note_on_c, 1, 57, 127
2, 41000, Note_on_c, 1, 64, 127
2, 41000, Note_on_c, 1, 73, 127
2, 41000, Note_on_c, 1, 76, 127
2, 41040, Note_off_c, 1, 76, 0
2, 41400, Note_off_c, 1, 45, 0
2, 41400, Note_off_c, 1, 64, 0
2, 41400, Note_off_c, 1, 73, 0
2, 41440, Note_on_c, 1, 45, 127
2, 41440, Note_on_c, 1, 64, 127
2, 41440, Note_on_c, 1, 73, 127
2, 41640, Note_off_c, 1, 45, 0
2, 41640, Note_on_c, 1, 46, 127
2, 41640, Note_off_c, 1, 57, 0
2, 41640, Note_off_c, 1, 64, 0
2, 41640, Note_off_c, 1, 73, 0
2, 41640, Note_on_c, 1, 74, 127
2, 41640, Note_on_c, 1, 76, 127
2, 41680, Note_off_c, 1, 46, 0
2, 41680, Note_off_c, 1, 74, 0
2, 41680, Note_off_c, 1, 76, 0
2, 41720, Note_on_c, 1, 58, 127
2, 41720, Note_on_c, 1, 67, 127
2, 41720, Note_on_c, 1, 76, 127
2, 41800, Note_on_c, 1, 45, 127
2, 41800, Note_on_c, 1, 57, 127
2, 41800, Note_off_c, 1, 58, 0
2, 41800, Note_on_c, 1, 64, 127
2, 41800, Note_off_c, 1, 67, 0
2, 41800, Note_on_c, 1, 73, 127
2, 41800, Note_off_c, 1, 76, 0
2, 41840, Note_off_c, 1, 45, 0
2, 41840, Note_on_c, 1, 48, 127
2, 41840, Note_on_c, 1, 54, 127
2, 41840, Note_off_c, 1, 57, 0
2, 41840, Note_on_c, 1, 58, 127
2, 41840, Note_off_c, 1, 64, 0
2, 41840, Note_on_c, 1, 65, 127
2, 41840, Note_off_c, 1, 73, 0
2, 41880, Note_off_c, 1, 48, 0
2, 41880, Note_on_c, 1, 50, 127
2, 41880, Note_off_c, 1, 54, 0
2, 41880, Note_off_c, 1, 58, 0
2, 41880, Note_off_c, 1, 65, 0
2, 41920, Note_on_c, 1, 54, 127
2, 41920, Note_on_c, 1, 62, 127
2, 41920, Note_on_c, 1, 74, 127
2, 42320, Note_off_c, 1, 50, 0
2, 42320, Note_off_c, 1, 54, 0
2, 42320, Note_off_c, 1, 62, 0
2, 42320, Note_off_c, 1, 74, 0
2, 42360, Note_on_c, 1, 53, 127
2, 42360, Note_on_c, 1, 62, 127
2, 42360, Note_on_c, 1, 70, 127
2, 42360, Note_on_c, 1, 77, 127
2, 42760, Note_off_c, 1, 53, 0
2, 42760, Note_off_c, 1, 62, 0
2, 42760, Note_off_c, 1, 70, 0
2, 42760, Note_off_c, 1, 77, 0
2, 42800, Note_on_c, 1, 50, 127
2, 42800, Note_on_c, 1, 63, 127
2, 42800, Note_on_c, 1, 81, 127
2, 43080, Note_on_c, 1, 69, 127
2, 43120, Note_off_c, 1, 69, 0
2, 43160, Note_off_c, 1, 50, 0
2, 43160, Note_on_c, 1, 51, 127
2, 43160, Note_off_c, 1, 63, 0
2, 43160, Note_on_c, 1, 69, 127
2, 43160, Note_off_c, 1, 81, 0
2, 43200, Note_on_c, 1, 38, 127
2, 43200, Note_off_c, 1, 51, 0
2, 43200, Note_on_c, 1, 54, 127
2, 43200, Note_on_c, 1, 76, 127
2, 43600, Note_off_c, 1, 38, 0
2, 43600, Note_off_c, 1, 54, 0
2, 43600, Note_off_c, 1, 69, 0
2, 43600, Note_off_c, 1, 76, 0
2, 43640, Note_on_c, 1, 38, 127
2, 43640, Note_on_c, 1, 55, 127
2, 43640, Note_on_c, 1, 71, 127
2, 43640, Note_on_c, 1, 74, 127
2, 43800, Note_off_c, 1, 38, 0
2, 43800, Note_off_c, 1, 55, 0
2, 43800, Note_off_c, 1, 71, 0
2, 43800, Note_off_c, 1, 74, 0
2, 43840, Note_on_c, 1, 38, 127
2, 43840, Note_on_c, 1, 55, 127
2, 43840, Note_on_c, 1, 71, 127
2, 43840, Note_on_c, 1, 74, 127
2, 44080, Note_off_c, 1, 38, 0
2, 44080, Note_off_c, 1, 55, 0
2, 44080, Note_off_c, 1, 71, 0
2, 44080, Note_off_c, 1, 74, 0
2, 44120, Note_on_c, 1, 50, 127
2, 44120, Note_on_c, 1, 57, 127
2, 44120, Note_on_c, 1, 66, 127
2, 44120, Note_on_c, 1, 72, 127
2, 44480, Note_off_c, 1, 57, 0
2, 44480, Note_off_c, 1, 66, 0
2, 44480, Note_off_c, 1, 72, 0
2, 44520, Note_on_c, 1, 65, 127
2, 44520, Note_on_c, 1, 72, 127
2, 44680, Note_off_c, 1, 50, 0
2, 44680, Note_on_c, 1, 56, 127
2, 44720, Note_on_c, 1, 50, 127
2, 44720, Note_off_c, 1, 56, 0
2, 44920, Note_off_c, 1, 65, 0
2, 44920, Note_off_c, 1, 72, 0
2, 44960, Note_on_c, 1, 60, 127
2, 44960, Note_on_c, 1, 62, 127
2, 44960, Note_on_c, 1, 66, 127
2, 44960, Note_on_c, 1, 69, 127
2, 45360, Note_off_c, 1, 50, 0
2, 45360, Note_off_c, 1, 60, 0
2, 45360, Note_off_c, 1, 62, 0
2, 45360, Note_off_c, 1, 66, 0
2, 45360, Note_off_c, 1, 69, 0
2, 45400, Note_on_c, 1, 31, 127
2, 45400, Note_on_c, 1, 43, 127
2, 45400, Note_on_c, 1, 59, 127
2, 45400, Note_on_c, 1, 62, 127
2, 45400, Note_on_c, 1, 67, 127
2, 45920, Note_off_c, 1, 31, 0
2, 45920, Note_off_c, 1, 43, 0
2, 45920, Note_off_c, 1, 59, 0
2, 45920, Note_off_c, 1, 62, 0
2, 45920, Note_off_c, 1, 67, 0
2, 45960, Note_on_c, 1, 31, 127
2, 45960, Note_on_c, 1, 43, 127
2, 45960, Note_on_c, 1, 59, 127
2, 45960, Note_on_c, 1, 62, 127
2, 45960, Note_on_c, 1, 67, 127
2, 46240, Note_off_c, 1, 31, 0
2, 46240, Note_off_c, 1, 43, 0
2, 46240, Note_off_c, 1, 59, 0
2, 46240, Note_off_c, 1, 62, 0
2, 46240, Note_off_c, 1, 67, 0
2, 46280, Note_on_c, 1, 31, 127
2, 46280, Note_on_c, 1, 43, 127
2, 46280, Note_on_c, 1, 59, 127
2, 46280, Note_on_c, 1, 62, 127
2, 46280, Note_on_c, 1, 67, 127
2, 46680, Note_off_c, 1, 59, 0
2, 46680, Note_off_c, 1, 62, 0
2, 46720, Note_off_c, 1, 31, 0
2, 46720, Note_on_c, 1, 57, 127
2, 46720, Note_on_c, 1, 60, 127
2, 46720, Note_on_c, 1, 66, 127
2, 46720, Note_off_c, 1, 67, 0
2, 47080, Note_off_c, 1, 43, 0
2, 47080, Note_off_c, 1, 57, 0
2, 47080, Note_off_c, 1, 60, 0
2, 47080, Note_off_c, 1, 66, 0
2, 47120, Note_on_c, 1, 45, 127
2, 47120, Note_on_c, 1, 55, 127
2, 47120, Note_on_c, 1, 61, 127
2, 47120, Note_on_c, 1, 64, 127
2, 47520, Note_off_c, 1, 45, 0
2, 47520, Note_on_c, 1, 48, 127
2, 47520, Note_off_c, 1, 55, 0
2, 47520, Note_on_c, 1, 60, 127
2, 47520, Note_off_c, 1, 61, 0
2, 47520, Note_off_c, 1, 64, 0
2, 47520, Note_on_c, 1, 78, 127
2, 47520, Note_on_c, 1, 81, 127
2, 47520, Note_on_c, 1, 87, 127
2, 47520, Note_on_c, 1, 90, 127
2, 47560, Note_on_c, 1, 45, 127
2, 47560, Note_off_c, 1, 48, 0
2, 47560, Note_on_c, 1, 52, 127
2, 47560, Note_on_c, 1, 55, 127
2, 47560, Note_off_c, 1, 60, 0
2, 47560, Note_off_c, 1, 78, 0
2, 47560, Note_off_c, 1, 81, 0
2, 47560, Note_on_c, 1, 85, 127
2, 47560, Note_off_c, 1, 87, 0
2, 47560, Note_off_c, 1, 90, 0
2, 47720, Note_on_c, 1, 79, 127
2, 47720, Note_off_c, 1, 85, 0
2, 47760, Note_off_c, 1, 79, 0
2, 47760, Note_on_c, 1, 85, 127
2, 47920, Note_off_c, 1, 45, 0
2, 47920, Note_on_c, 1, 46, 127
2, 47920, Note_off_c, 1, 52, 0
2, 47920, Note_on_c, 1, 53, 127
2, 47920, Note_off_c, 1, 55, 0
2, 47920, Note_on_c, 1, 58, 127
2, 47920, Note_on_c, 1, 74, 127
2, 47920, Note_off_c, 1, 85, 0
2, 47960, Note_on_c, 1, 33, 127
2, 47960, Note_off_c, 1, 46, 0
2, 47960, Note_on_c, 1, 57, 127
2, 47960, Note_off_c, 1, 58, 0
2, 47960, Note_on_c, 1, 62, 127
2, 47960, Note_off_c, 1, 74, 0
2, 48000, Note_off_c, 1, 33, 0
2, 48000, Note_off_c, 1, 53, 0
2, 48000, Note_off_c, 1, 57, 0
2, 48000, Note_off_c, 1, 62, 0
2, 48040, Note_on_c, 1, 33, 127
2, 48040, Note_on_c, 1, 53, 127
2, 48040, Note_on_c, 1, 57, 127
2, 48040, Note_on_c, 1, 62, 127
2, 48400, Note_off_c, 1, 33, 0
2, 48440, Note_on_c, 1, 38, 127
2, 50120, Note_off_c, 1, 38, 0
2, 50120, Note_off_c, 1, 53, 0
2, 50120, Note_off_c, 1, 57, 0
2, 50120, Note_off_c, 1, 62, 0
2, 51080, Note_on_c, 1, 62, 127
2, 51880, Note_off_c, 1, 62, 0
2, 51920, Note_on_c, 1, 34, 127
2, 51920, Note_on_c, 1, 46, 127
2, 51920, Note_on_c, 1, 57, 127
2, 52240, Note_off_c, 1, 57, 0
2, 52240, Note_on_c, 1, 62, 127
2, 52280, Note_on_c, 1, 58, 127
2, 52280, Note_off_c, 1, 62, 0
2, 52320, Note_off_c, 1, 34, 0
2, 52320, Note_off_c, 1, 46, 0
2, 52360, Note_off_c, 1, 58, 0
2, 52400, Note_on_c, 1, 34, 127
2, 52400, Note_on_c, 1, 46, 127
2, 52400, Note_on_c, 1, 57, 127
2, 52680, Note_on_c, 1, 50, 127
2, 52680, Note_off_c, 1, 57, 0
2, 52720, Note_off_c, 1, 50, 0
2, 52720, Note_on_c, 1, 58, 127
2, 52760, Note_off_c, 1, 34, 0
2, 52760, Note_on_c, 1, 39, 127
2, 52760, Note_off_c, 1, 46, 0
2, 52760, Note_off_c, 1, 58, 0
2, 52760, Note_on_c, 1, 63, 127
2, 52800, Note_on_c, 1, 36, 127
2, 52800, Note_off_c, 1, 39, 0
2, 52800, Note_on_c, 1, 43, 127
2, 52800, Note_on_c, 1, 51, 127
2, 52800, Note_off_c, 1, 63, 0
2, 53000, Note_on_c, 1, 33, 127
2, 53000, Note_off_c, 1, 36, 0
2, 53000, Note_on_c, 1, 42, 127
2, 53000, Note_off_c, 1, 43, 0
2, 53000, Note_on_c, 1, 45, 127
2, 53000, Note_off_c, 1, 51, 0
2, 53000, Note_on_c, 1, 62, 127
2, 53000, Note_on_c, 1, 74, 127
2, 53040, Note_off_c, 1, 33, 0
2, 53040, Note_on_c, 1, 36, 127
2, 53040, Note_off_c, 1, 42, 0
2, 53040, Note_on_c, 1, 43, 127
2, 53040, Note_off_c, 1, 45, 0
2, 53040, Note_on_c, 1, 51, 127
2, 53040, Note_off_c, 1, 62, 0
2, 53040, Note_off_c, 1, 74, 0
2, 53080, Note_on_c, 1, 30, 127
2, 53080, Note_off_c, 1, 36, 0
2, 53080, Note_off_c, 1, 43, 0
2, 53080, Note_off_c, 1, 51, 0
2, 53080, Note_on_c, 1, 56, 127
2, 53120, Note_off_c, 1, 30, 0
2, 53120, Note_on_c, 1, 47, 127
2, 53120, Note_on_c, 1, 51, 127
2, 53120, Note_off_c, 1, 56, 0
2, 53120, Note_on_c, 1, 57, 127
2, 53120, Note_on_c, 1, 66, 127
2, 53160, Note_on_c, 1, 39, 127
2, 53160, Note_on_c, 1, 40, 127
2, 53160, Note_off_c, 1, 47, 0
2, 53160, Note_off_c, 1, 51, 0
2, 53160, Note_on_c, 1, 52, 127
2, 53160, Note_on_c, 1, 55, 127
2, 53160, Note_off_c, 1, 57, 0
2, 53160, Note_on_c, 1, 58, 127
2, 53160, Note_off_c, 1, 66, 0
2, 53200, Note_off_c, 1, 39, 0
2, 53200, Note_off_c, 1, 40, 0
2, 53200, Note_off_c, 1, 52, 0
2, 53200, Note_off_c, 1, 55, 0
2, 53200, Note_off_c, 1, 58, 0
2, 53240, Note_on_c, 1, 65, 127
2, 53280, Note_off_c, 1, 65, 0
2, 53280, Note_on_c, 1, 67, 127
2, 53320, Note_off_c, 1, 67, 0
2, 53320, Note_on_c, 1, 68, 127
2, 53360, Note_on_c, 1, 31, 127
2, 53360, Note_on_c, 1, 43, 127
2, 53360, Note_on_c, 1, 50, 127
2, 53360, Note_on_c, 1, 62, 127
2, 53360, Note_off_c, 1, 68, 0
2, 53360, Note_on_c, 1, 71, 127
2, 53360, Note_on_c, 1, 83, 127
2, 53400, Note_off_c, 1, 31, 0
2, 53400, Note_on_c, 1, 34, 127
2, 53400, Note_off_c, 1, 43, 0
2, 53400, Note_on_c, 1, 46, 127
2, 53400, Note_on_c, 1, 53, 127
2, 53400, Note_on_c, 1, 58, 127
2, 53400, Note_on_c, 1, 70, 127
2, 53400, Note_off_c, 1, 71, 0
2, 53400, Note_on_c, 1, 77, 127
2, 53400, Note_off_c, 1, 83, 0
2, 53440, Note_off_c, 1, 34, 0
2, 53440, Note_on_c, 1, 43, 127
2, 53440, Note_off_c, 1, 46, 0
2, 53440, Note_off_c, 1, 50, 0
2, 53440, Note_off_c, 1, 62, 0
2, 53440, Note_on_c, 1, 65, 127
2, 53440, Note_off_c, 1, 70, 0
2, 53440, Note_off_c, 1, 77, 0
2, 53480, Note_off_c, 1, 43, 0
2, 53480, Note_off_c, 1, 53, 0
2, 53480, Note_off_c, 1, 58, 0
2, 53480, Note_off_c, 1, 65, 0
2, 53480, Note_on_c, 1, 67, 127
2, 53480, Note_on_c, 1, 76, 127
2, 53480, Note_on_c, 1, 79, 127
2, 53480, Note_on_c, 1, 85, 127
2, 53480, Note_on_c, 1, 88, 127
2, 53520, Note_on_c, 1, 46, 127
2, 53520, Note_on_c, 1, 57, 127
2, 53520, Note_off_c, 1, 67, 0
2, 53520, Note_off_c, 1, 76, 0
2, 53520, Note_on_c, 1, 77, 127
2, 53520, Note_off_c, 1, 79, 0
2, 53520, Note_on_c, 1, 84, 127
2, 53520, Note_off_c, 1, 85, 0
2, 53520, Note_off_c, 1, 88, 0
2, 53560, Note_off_c, 1, 46, 0
2, 53560, Note_off_c, 1, 57, 0
2, 53560, Note_on_c, 1, 75, 127
2, 53560, Note_on_c, 1, 76, 127
2, 53560, Note_off_c, 1, 77, 0
2, 53560, Note_on_c, 1, 79, 127
2, 53560, Note_off_c, 1, 84, 0
2, 53600, Note_on_c, 1, 58, 127
2, 53600, Note_on_c, 1, 74, 127
2, 53600, Note_off_c, 1, 75, 0
2, 53600, Note_off_c, 1, 76, 0
2, 53600, Note_off_c, 1, 79, 0
2, 53600, Note_on_c, 1, 82, 127
2, 53600, Note_on_c, 1, 89, 127
2, 53640, Note_off_c, 1, 58, 0
2, 53640, Note_off_c, 1, 74, 0
2, 53640, Note_on_c, 1, 76, 127
2, 53640, Note_on_c, 1, 78, 127
2, 53640, Note_on_c, 1, 79, 127
2, 53640, Note_off_c, 1, 82, 0
2, 53640, Note_off_c, 1, 89, 0
2, 53680, Note_on_c, 1, 64, 127
2, 53680, Note_off_c, 1, 76, 0
2, 53680, Note_off_c, 1, 78, 0
2, 53680, Note_off_c, 1, 79, 0
2, 53680, Note_on_c, 1, 88, 127
2, 53720, Note_on_c, 1, 33, 127
2, 53720, Note_on_c, 1, 45, 127
2, 53720, Note_on_c, 1, 57, 127
2, 53720, Note_off_c, 1, 64, 0
2, 53720, Note_on_c, 1, 72, 127
2, 53720, Note_on_c, 1, 75, 127
2, 53720, Note_on_c, 1, 79, 127
2, 53720, Note_on_c, 1, 84, 127
2, 53720, Note_on_c, 1, 87, 127
2, 53720, Note_off_c, 1, 88, 0
2, 53720, Note_on_c, 1, 91, 127
2, 53720, Note_on_c, 1, 96, 127
2, 54120, Note_off_c, 1, 33, 0
2, 54120, Note_off_c, 1, 45, 0
2, 54120, Note_off_c, 1, 57, 0
2, 54120, Note_on_c, 1, 67, 127
2, 54120, Note_off_c, 1, 72, 0
2, 54120, Note_off_c, 1, 75, 0
2, 54120, Note_off_c, 1, 79, 0
2, 54120, Note_off_c, 1, 84, 0
2, 54120, Note_off_c, 1, 87, 0
2, 54120, Note_off_c, 1, 91, 0
2, 54120, Note_off_c, 1, 96, 0
2, 54160, Note_off_c, 1, 67, 0
2, 54920, Note_on_c, 1, 65, 127
2, 54920, Note_on_c, 1, 72, 127
2, 54920, Note_on_c, 1, 81, 127
2, 54920, Note_on_c, 1, 89, 127
2, 55640, Note_off_c, 1, 65, 0
2, 55640, Note_off_c, 1, 72, 0
2, 55640, Note_off_c, 1, 81, 0
2, 55640, Note_off_c, 1, 89, 0
2, 55720, Note_on_c, 1, 65, 127
2, 55720, Note_on_c, 1, 72, 127
2, 55720, Note_on_c, 1, 81, 127
2, 55720, Note_on_c, 1, 89, 127
2, 56480, Note_off_c, 1, 65, 0
2, 56480, Note_off_c, 1, 72, 0
2, 56480, Note_off_c, 1, 81, 0
2, 56480, Note_off_c, 1, 89, 0
2, 57040, Note_on_c, 1, 37, 127
2, 57040, Note_on_c, 1, 45, 127
2, 57040, Note_on_c, 1, 49, 127
2, 57040, Note_on_c, 1, 74, 127
2, 57040, Note_on_c, 1, 86, 127
2, 57080, Note_off_c, 1, 37, 0
2, 57080, Note_off_c, 1, 45, 0
2, 57080, Note_off_c, 1, 49, 0
2, 57080, Note_on_c, 1, 60, 127
2, 57080, Note_off_c, 1, 74, 0
2, 57080, Note_on_c, 1, 76, 127
2, 57080, Note_on_c, 1, 79, 127
2, 57080, Note_on_c, 1, 82, 127
2, 57080, Note_off_c, 1, 86, 0
2, 57120, Note_on_c, 1, 40, 127
2, 57120, Note_on_c, 1, 48, 127
2, 57120, Note_on_c, 1, 52, 127
2, 57120, Note_on_c, 1, 55, 127
2, 57120, Note_off_c, 1, 60, 0
2, 57120, Note_on_c, 1, 64, 127
2, 57120, Note_off_c, 1, 76, 0
2, 57120, Note_off_c, 1, 79, 0
2, 57120, Note_off_c, 1, 82, 0
2, 57160, Note_off_c, 1, 40, 0
2, 57160, Note_on_c, 1, 47, 127
2, 57160, Note_off_c, 1, 48, 0
2, 57160, Note_off_c, 1, 52, 0
2, 57160, Note_on_c, 1, 59, 127
2, 57160, Note_off_c, 1, 64, 0
2, 57160, Note_on_c, 1, 86, 127
2, 57160, Note_on_c, 1, 91, 127
2, 57160, Note_on_c, 1, 98, 127
2, 57240, Note_off_c, 1, 47, 0
2, 57240, Note_off_c, 1, 55, 0
2, 57240, Note_off_c, 1, 59, 0
2, 57240, Note_on_c, 1, 60, 127
2, 57240, Note_on_c, 1, 62, 127
2, 57240, Note_on_c, 1, 69, 127
2, 57240, Note_off_c, 1, 86, 0
2, 57240, Note_on_c, 1, 90, 127
2, 57240, Note_off_c, 1, 91, 0
2, 57240, Note_off_c, 1, 98, 0
2, 57280, Note_off_c, 1, 60, 0
2, 57280, Note_off_c, 1, 62, 0
2, 57280, Note_on_c, 1, 64, 127
2, 57280, Note_on_c, 1, 67, 127
2, 57280, Note_off_c, 1, 69, 0
2, 57280, Note_off_c, 1, 90, 0
2, 57280, Note_on_c, 1, 91, 127
2, 57280, Note_on_c, 1, 95, 127
2, 57320, Note_on_c, 1, 55, 127
2, 57320, Note_on_c, 1, 58, 127
2, 57320, Note_on_c, 1, 63, 127
2, 57320, Note_off_c, 1, 64, 0
2, 57320, Note_off_c, 1, 67, 0
2, 57320, Note_on_c, 1, 87, 127
2, 57320, Note_on_c, 1, 94, 127
2, 57320, Note_off_c, 1, 95, 0
2, 57360, Note_on_c, 1, 47, 127
2, 57360, Note_off_c, 1, 58, 0
2, 57360, Note_on_c, 1, 59, 127
2, 57360, Note_off_c, 1, 63, 0
2, 57360, Note_on_c, 1, 86, 127
2, 57360, Note_off_c, 1, 87, 0
2, 57360, Note_off_c, 1, 94, 0
2, 57360, Note_on_c, 1, 98, 127
2, 57400, Note_off_c, 1, 47, 0
2, 57400, Note_off_c, 1, 55, 0
2, 57400, Note_off_c, 1, 59, 0
2, 57400, Note_off_c, 1, 86, 0
2, 57400, Note_off_c, 1, 91, 0
2, 57400, Note_off_c, 1, 98, 0
2, 57440, Note_on_c, 1, 59, 127
2, 57440, Note_on_c, 1, 64, 127
2, 57440, Note_on_c, 1, 69, 127
2, 57440, Note_on_c, 1, 76, 127
2, 57440, Note_on_c, 1, 86, 127
2, 57800, Note_off_c, 1, 59, 0
2, 57800, Note_off_c, 1, 64, 0
2, 57800, Note_off_c, 1, 69, 0
2, 57800, Note_off_c, 1, 76, 0
2, 57800, Note_off_c, 1, 86, 0
2, 57840, Note_on_c, 1, 43, 127
2, 57840, Note_on_c, 1, 44, 127
2, 57840, Note_on_c, 1, 48, 127
2, 57840, Note_on_c, 1, 51, 127
2, 57840, Note_on_c, 1, 56, 127
2, 57840, Note_on_c, 1, 60, 127
2, 57840, Note_on_c, 1, 63, 127
2, 57840, Note_on_c, 1, 68, 127
2, 58200, Note_off_c, 1, 43, 0
2, 58200, Note_off_c, 1, 44, 0
2, 58200, Note_off_c, 1, 48, 0
2, 58200, Note_off_c, 1, 51, 0
2, 58200, Note_off_c, 1, 56, 0
2, 58200, Note_off_c, 1, 60, 0
2, 58200, Note_off_c, 1, 63, 0
2, 58200, Note_off_c, 1, 68, 0
2, 58240, Note_on_c, 1, 37, 127
2, 58240, Note_on_c, 1, 49, 127
2, 58240, Note_on_c, 1, 76, 127
2, 58240, Note_on_c, 1, 80, 127
2, 58240, Note_on_c, 1, 85, 127
2, 58240, Note_on_c, 1, 88, 127
2, 58600, Note_off_c, 1, 37, 0
2, 58600, Note_off_c, 1, 49, 0
2, 58600, Note_off_c, 1, 76, 0
2, 58600, Note_off_c, 1, 80, 0
2, 58600, Note_off_c, 1, 85, 0
2, 58600, Note_off_c, 1, 88, 0
2, 58640, Note_on_c, 1, 48, 127
2, 58640, Note_on_c, 1, 55, 127
2, 58640, Note_on_c, 1, 58, 127
2, 58640, Note_on_c, 1, 70, 127
2, 58640, Note_on_c, 1, 72, 127
2, 58640, Note_on_c, 1, 79, 127
2, 58640, Note_on_c, 1, 82, 127
2, 58880, Note_off_c, 1, 48, 0
2, 58880, Note_off_c, 1, 55, 0
2, 58880, Note_off_c, 1, 58, 0
2, 58880, Note_off_c, 1, 70, 0
2, 58880, Note_off_c, 1, 72, 0
2, 58880, Note_off_c, 1, 79, 0
2, 58880, Note_off_c, 1, 82, 0
2, 58920, Note_on_c, 1, 48, 127
2, 58920, Note_on_c, 1, 55, 127
2, 58920, Note_on_c, 1, 58, 127
2, 58920, Note_on_c, 1, 70, 127
2, 58920, Note_on_c, 1, 72, 127
2, 58920, Note_on_c, 1, 79, 127
2, 58920, Note_on_c, 1, 82, 127
2, 59040, Note_off_c, 1, 48, 0
2, 59120, Note_on_c, 1, 48, 127
2, 59320, Note_off_c, 1, 48, 0
2, 59360, Note_on_c, 1, 48, 127
2, 59480, Note_off_c, 1, 48, 0
2, 59480, Note_off_c, 1, 55, 0
2, 59480, Note_off_c, 1, 58, 0
2, 59480, Note_off_c, 1, 70, 0
2, 59480, Note_off_c, 1, 72, 0
2, 59480, Note_off_c, 1, 79, 0
2, 59480, Note_off_c, 1, 82, 0
2, 59520, Note_on_c, 1, 48, 127
2, 59520, Note_on_c, 1, 55, 127
2, 59520, Note_on_c, 1, 58, 127
2, 59520, Note_on_c, 1, 70, 127
2, 59520, Note_on_c, 1, 72, 127
2, 59520, Note_on_c, 1, 79, 127
2, 59520, Note_on_c, 1, 82, 127
2, 59880, Note_off_c, 1, 48, 0
2, 59920, Note_on_c, 1, 48, 127
2, 60280, Note_off_c, 1, 48, 0
2, 60320, Note_on_c, 1, 48, 127
2, 60640, Note_off_c, 1, 48, 0
2, 60720, Note_on_c, 1, 48, 127
2, 61040, Note_off_c, 1, 48, 0
2, 61040, Note_off_c, 1, 55, 0
2, 61040, Note_off_c, 1, 58, 0
2, 61040, Note_off_c, 1, 70, 0
2, 61040, Note_off_c, 1, 72, 0
2, 61040, Note_off_c, 1, 79, 0
2, 61040, Note_off_c, 1, 82, 0
2, 61080, Note_on_c, 1, 64, 127
2, 61080, Note_on_c, 1, 67, 127
2, 61080, Note_on_c, 1, 91, 127
2, 61080, Note_on_c, 1, 94, 127
2, 61120, Note_off_c, 1, 64, 0
2, 61120, Note_on_c, 1, 66, 127
2, 61120, Note_off_c, 1, 67, 0
2, 61120, Note_on_c, 1, 70, 127
2, 61120, Note_on_c, 1, 75, 127
2, 61120, Note_on_c, 1, 78, 127
2, 61120, Note_on_c, 1, 82, 127
2, 61120, Note_off_c, 1, 91, 0
2, 61120, Note_off_c, 1, 94, 0
2, 61160, Note_off_c, 1, 66, 0
2, 61160, Note_off_c, 1, 70, 0
2, 61160, Note_off_c, 1, 75, 0
2, 61160, Note_off_c, 1, 78, 0
2, 61160, Note_off_c, 1, 82, 0
2, 61200, Note_on_c, 1, 66, 127
2, 61200, Note_on_c, 1, 72, 127
2, 61200, Note_on_c, 1, 75, 127
2, 61200, Note_on_c, 1, 81, 127
2, 61200, Note_on_c, 1, 87, 127
2, 63040, Note_off_c, 1, 66, 0
2, 63040, Note_off_c, 1, 72, 0
2, 63040, Note_off_c, 1, 75, 0
2, 63040, Note_off_c, 1, 81, 0
2, 63040, Note_off_c, 1, 87, 0
2, 63080, Note_on_c, 1, 66, 127
2, 63080, Note_on_c, 1, 72, 127
2, 63080, Note_on_c, 1, 75, 127
2, 63080, Note_on_c, 1, 81, 127
2, 63080, Note_on_c, 1, 87, 127
2, 63440, Note_off_c, 1, 66, 0
2, 63440, Note_off_c, 1, 72, 0
2, 63440, Note_off_c, 1, 75, 0
2, 63440, Note_off_c, 1, 81, 0
2, 63440, Note_off_c, 1, 87, 0
2, 63480, Note_on_c, 1, 66, 127
2, 63480, Note_on_c, 1, 72, 127
2, 63480, Note_on_c, 1, 75, 127
2, 63480, Note_on_c, 1, 81, 127
2, 63480, Note_on_c, 1, 87, 127
2, 63880, Note_off_c, 1, 66, 0
2, 63880, Note_off_c, 1, 72, 0
2, 63880, Note_off_c, 1, 75, 0
2, 63880, Note_off_c, 1, 81, 0
2, 63880, Note_off_c, 1, 87, 0
2, 63920, Note_on_c, 1, 66, 127
2, 63920, Note_on_c, 1, 72, 127
2, 63920, Note_on_c, 1, 75, 127
2, 63920, Note_on_c, 1, 81, 127
2, 63920, Note_on_c, 1, 87, 127
2, 64680, Note_off_c, 1, 66, 0
2, 64680, Note_off_c, 1, 72, 0
2, 64680, Note_off_c, 1, 75, 0
2, 64680, Note_off_c, 1, 81, 0
2, 64680, Note_off_c, 1, 87, 0
2, 64720, Note_on_c, 1, 47, 127
2, 64720, Note_on_c, 1, 54, 127
2, 64720, Note_on_c, 1, 63, 127
2, 64720, Note_on_c, 1, 66, 127
2, 64720, Note_on_c, 1, 75, 127
2, 65040, Note_off_c, 1, 47, 0
2, 65040, Note_off_c, 1, 54, 0
2, 65040, Note_off_c, 1, 63, 0
2, 65040, Note_off_c, 1, 66, 0
2, 65040, Note_off_c, 1, 75, 0
2, 65120, Note_on_c, 1, 64, 127
2, 65120, Note_on_c, 1, 67, 127
2, 65120, Note_on_c, 1, 71, 127
2, 65120, Note_on_c, 1, 76, 127
2, 65120, Note_on_c, 1, 83, 127
2, 65440, Note_off_c, 1, 64, 0
2, 65440, Note_off_c, 1, 67, 0
2, 65440, Note_off_c, 1, 71, 0
2, 65440, Note_off_c, 1, 76, 0
2, 65440, Note_off_c, 1, 83, 0
2, 65560, Note_on_c, 1, 37, 127
2, 65560, Note_on_c, 1, 40, 127
2, 65560, Note_on_c, 1, 44, 127
2, 65560, Note_on_c, 1, 49, 127
2, 65560, Note_on_c, 1, 52, 127
2, 65560, Note_on_c, 1, 56, 127
2, 65560, Note_on_c, 1, 61, 127
2, 67680, Note_off_c, 1, 37, 0
2, 67680, Note_off_c, 1, 40, 0
2, 67680, Note_off_c, 1, 44, 0
2, 67680, Note_off_c, 1, 49, 0
2, 67680, Note_off_c, 1, 52, 0
2, 67680, Note_off_c, 1, 56, 0
2, 67680, Note_off_c, 1, 61, 0
2, 67720, Note_on_c, 1, 37, 127
2, 67720, Note_on_c, 1, 40, 127
2, 67720, Note_on_c, 1, 44, 127
2, 67720, Note_on_c, 1, 49, 127
2, 67720, Note_on_c, 1, 52, 127
2, 67720, Note_on_c, 1, 56, 127
2, 67720, Note_on_c, 1, 61, 127
2, 69560, Note_off_c, 1, 37, 0
2, 69560, Note_off_c, 1, 40, 0
2, 69560, Note_off_c, 1, 44, 0
2, 69560, Note_on_c, 1, 46, 127
2, 69560, Note_off_c, 1, 49, 0
2, 69560, Note_off_c, 1, 52, 0
2, 69560, Note_on_c, 1, 54, 127
2, 69560, Note_off_c, 1, 56, 0
2, 69560, Note_on_c, 1, 58, 127
2, 69560, Note_off_c, 1, 61, 0
2, 69600, Note_on_c, 1, 43, 127
2, 69600, Note_off_c, 1, 46, 0
2, 69600, Note_on_c, 1, 51, 127
2, 69600, Note_off_c, 1, 54, 0
2, 69600, Note_on_c, 1, 55, 127
2, 69600, Note_off_c, 1, 58, 0
2, 69600, Note_on_c, 1, 63, 127
2, 69600, Note_on_c, 1, 74, 127
2, 69600, Note_on_c, 1, 75, 127
2, 69960, Note_off_c, 1, 43, 0
2, 69960, Note_off_c, 1, 51, 0
2, 69960, Note_off_c, 1, 55, 0
2, 69960, Note_off_c, 1, 63, 0
2, 69960, Note_off_c, 1, 74, 0
2, 69960, Note_off_c, 1, 75, 0
2, 70000, Note_on_c, 1, 43, 127
2, 70000, Note_on_c, 1, 51, 127
2, 70000, Note_on_c, 1, 55, 127
2, 70000, Note_on_c, 1, 63, 127
2, 70000, Note_on_c, 1, 74, 127
2, 70000, Note_on_c, 1, 75, 127
2, 70200, Note_off_c, 1, 43, 0
2, 70200, Note_off_c, 1, 51, 0
2, 70200, Note_off_c, 1, 55, 0
2, 70200, Note_off_c, 1, 63, 0
2, 70200, Note_off_c, 1, 74, 0
2, 70200, Note_off_c, 1, 75, 0
2, 71000, Note_on_c, 1, 43, 127
2, 71000, Note_on_c, 1, 55, 127
2, 71000, Note_on_c, 1, 62, 127
2, 71000, Note_on_c, 1, 67, 127
2, 71000, Note_on_c, 1, 70, 127
2, 71000, Note_on_c, 1, 74, 127
2, 71600, Note_off_c, 1, 43, 0
2, 71600, Note_off_c, 1, 55, 0
2, 71600, Note_off_c, 1, 62, 0
2, 71600, Note_off_c, 1, 67, 0
2, 71600, Note_off_c, 1, 70, 0
2, 71600, Note_off_c, 1, 74, 0
2, 71640, Note_on_c, 1, 33, 127
2, 71640, Note_on_c, 1, 45, 127
2, 71640, Note_on_c, 1, 60, 127
2, 71640, Note_on_c, 1, 67, 127
2, 71640, Note_on_c, 1, 72, 127
2, 72200, Note_off_c, 1, 33, 0
2, 72200, Note_off_c, 1, 45, 0
2, 72200, Note_off_c, 1, 60, 0
2, 72200, Note_off_c, 1, 67, 0
2, 72200, Note_off_c, 1, 72, 0
2, 72240, Note_on_c, 1, 65, 127
2, 72240, Note_on_c, 1, 70, 127
2, 72240, Note_on_c, 1, 74, 127
2, 72240, Note_on_c, 1, 99, 127
2, 72280, Note_on_c, 1, 52, 127
2, 72280, Note_on_c, 1, 55, 127
2, 72280, Note_on_c, 1, 58, 127
2, 72280, Note_on_c, 1, 61, 127
2, 72280, Note_off_c, 1, 65, 0
2, 72280, Note_off_c, 1, 70, 0
2, 72280, Note_off_c, 1, 74, 0
2, 72280, Note_on_c, 1, 82, 127
2, 72280, Note_off_c, 1, 99, 0
2, 72320, Note_on_c, 1, 45, 127
2, 72320, Note_off_c, 1, 52, 0
2, 72320, Note_on_c, 1, 53, 127
2, 72320, Note_off_c, 1, 55, 0
2, 72320, Note_on_c, 1, 57, 127
2, 72320, Note_off_c, 1, 58, 0
2, 72320, Note_off_c, 1, 61, 0
2, 72320, Note_on_c, 1, 72, 127
2, 72320, Note_on_c, 1, 84, 127
2, 72360, Note_off_c, 1, 45, 0
2, 72360, Note_on_c, 1, 51, 127
2, 72360, Note_off_c, 1, 53, 0
2, 72360, Note_on_c, 1, 56, 127
2, 72360, Note_off_c, 1, 57, 0
2, 72360, Note_on_c, 1, 60, 127
2, 72360, Note_on_c, 1, 75, 127
2, 72360, Note_on_c, 1, 80, 127
2, 72360, Note_off_c, 1, 82, 0
2, 72360, Note_off_c, 1, 84, 0
2, 72400, Note_off_c, 1, 51, 0
2, 72400, Note_off_c, 1, 56, 0
2, 72400, Note_on_c, 1, 57, 127
2, 72400, Note_on_c, 1, 65, 127
2, 72400, Note_on_c, 1, 69, 127
2, 72400, Note_off_c, 1, 72, 0
2, 72400, Note_off_c, 1, 75, 0
2, 72400, Note_off_c, 1, 80, 0
2, 72400, Note_on_c, 1, 84, 127
2, 72400, Note_on_c, 1, 86, 127
2, 72440, Note_off_c, 1, 57, 0
2, 72440, Note_off_c, 1, 60, 0
2, 72440, Note_off_c, 1, 65, 0
2, 72440, Note_off_c, 1, 69, 0
2, 72440, Note_off_c, 1, 84, 0
2, 72440, Note_off_c, 1, 86, 0
2, 72480, Note_on_c, 1, 95, 127
2, 72480, Note_on_c, 1, 97, 127
2, 72480, Note_on_c, 1, 99, 127
2, 72480, Note_on_c, 1, 100, 127
2, 72520, Note_on_c, 1, 41, 127
2, 72520, Note_on_c, 1, 46, 127
2, 72520, Note_on_c, 1, 50, 127
2, 72520, Note_on_c, 1, 53, 127
2, 72520, Note_on_c, 1, 65, 127
2, 72520, Note_on_c, 1, 70, 127
2, 72520, Note_on_c, 1, 74, 127
2, 72520, Note_on_c, 1, 77, 127
2, 72520, Note_off_c, 1, 95, 0
2, 72520, Note_off_c, 1, 97, 0
2, 72520, Note_off_c, 1, 99, 0
2, 72520, Note_off_c, 1, 100, 0
2, 72560, Note_off_c, 1, 41, 0
2, 72560, Note_off_c, 1, 46, 0
2, 72560, Note_off_c, 1, 50, 0
2, 72560, Note_off_c, 1, 53, 0
2, 72560, Note_off_c, 1, 65, 0
2, 72560, Note_on_c, 1, 69, 127
2, 72560, Note_off_c, 1, 70, 0
2, 72560, Note_off_c, 1, 74, 0
2, 72560, Note_on_c, 1, 75, 127
2, 72560, Note_on_c, 1, 84, 127
2, 72600, Note_on_c, 1, 33, 127
2, 72600, Note_on_c, 1, 45, 127
2, 72600, Note_on_c, 1, 63, 127
2, 72600, Note_on_c, 1, 65, 127
2, 72600, Note_off_c, 1, 69, 0
2, 72600, Note_on_c, 1, 72, 127
2, 72600, Note_off_c, 1, 75, 0
2, 72600, Note_off_c, 1, 77, 0
2, 72600, Note_off_c, 1, 84, 0
2, 72640, Note_on_c, 1, 30, 127
2, 72640, Note_off_c, 1, 33, 0
2, 72640, Note_on_c, 1, 48, 127
2, 72640, Note_on_c, 1, 51, 127
2, 72640, Note_off_c, 1, 63, 0
2, 72640, Note_off_c, 1, 65, 0
2, 72640, Note_off_c, 1, 72, 0
2, 72680, Note_off_c, 1, 30, 0
2, 72680, Note_off_c, 1, 45, 0
2, 72680, Note_off_c, 1, 48, 0
2, 72680, Note_off_c, 1, 51, 0
2, 72680, Note_on_c, 1, 70, 127
2, 72680, Note_on_c, 1, 79, 127
2, 72680, Note_on_c, 1, 82, 127
2, 72680, Note_on_c, 1, 86, 127
2, 72680, Note_on_c, 1, 94, 127
2, 72720, Note_on_c, 1, 62, 127
2, 72720, Note_off_c, 1, 70, 0
2, 72720, Note_on_c, 1, 74, 127
2, 72720, Note_off_c, 1, 79, 0
2, 72720, Note_off_c, 1, 82, 0
2, 72720, Note_on_c, 1, 83, 127
2, 72720, Note_off_c, 1, 86, 0
2, 72720, Note_on_c, 1, 91, 127
2, 72720, Note_off_c, 1, 94, 0
2, 72760, Note_off_c, 1, 62, 0
2, 72760, Note_on_c, 1, 71, 127
2, 72760, Note_on_c, 1, 79, 127
2, 72760, Note_off_c, 1, 83, 0
2, 72760, Note_on_c, 1, 90, 127
2, 72760, Note_off_c, 1, 91, 0
2, 72800, Note_off_c, 1, 71, 0
2, 72800, Note_off_c, 1, 74, 0
2, 72800, Note_off_c, 1, 79, 0
2, 72800, Note_off_c, 1, 90, 0
2, 72840, Note_on_c, 1, 43, 127
2, 72840, Note_on_c, 1, 57, 127
2, 72840, Note_on_c, 1, 60, 127
2, 72840, Note_on_c, 1, 62, 127
2, 72840, Note_on_c, 1, 66, 127
2, 72840, Note_on_c, 1, 69, 127
2, 72840, Note_on_c, 1, 72, 127
2, 73160, Note_off_c, 1, 43, 0
2, 73160, Note_off_c, 1, 60, 0
2, 73160, Note_off_c, 1, 62, 0
2, 73160, Note_on_c, 1, 64, 127
2, 73160, Note_off_c, 1, 66, 0
2, 73160, Note_on_c, 1, 67, 127
2, 73160, Note_off_c, 1, 69, 0
2, 73160, Note_on_c, 1, 89, 127
2, 73200, Note_off_c, 1, 57, 0
2, 73200, Note_off_c, 1, 64, 0
2, 73200, Note_off_c, 1, 67, 0
2, 73200, Note_on_c, 1, 69, 127
2, 73200, Note_off_c, 1, 72, 0
2, 73200, Note_off_c, 1, 89, 0
2, 73240, Note_on_c, 1, 33, 127
2, 73240, Note_on_c, 1, 40, 127
2, 73240, Note_on_c, 1, 49, 127
2, 73240, Note_off_c, 1, 69, 0
2, 73600, Note_off_c, 1, 33, 0
2, 73600, Note_off_c, 1, 40, 0
2, 73600, Note_on_c, 1, 48, 127
2, 73600, Note_off_c, 1, 49, 0
2, 73600, Note_on_c, 1, 59, 127
2, 73600, Note_on_c, 1, 67, 127
2, 73600, Note_on_c, 1, 71, 127
2, 73640, Note_on_c, 1, 56, 127
2, 73640, Note_off_c, 1, 59, 0
2, 73640, Note_on_c, 1, 65, 127
2, 73640, Note_off_c, 1, 67, 0
2, 73640, Note_off_c, 1, 71, 0
2, 73640, Note_on_c, 1, 74, 127
2, 73960, Note_off_c, 1, 48, 0
2, 73960, Note_off_c, 1, 56, 0
2, 73960, Note_off_c, 1, 65, 0
2, 73960, Note_off_c, 1, 74, 0
2, 74000, Note_on_c, 1, 43, 127
2, 74000, Note_on_c, 1, 55, 127
2, 74000, Note_on_c, 1, 59, 127
2, 74000, Note_on_c, 1, 62, 127
2, 74000, Note_on_c, 1, 65, 127
2, 74000, Note_on_c, 1, 67, 127
2, 74360, Note_off_c, 1, 43, 0
2, 74360, Note_on_c, 1, 48, 127
2, 74360, Note_off_c, 1, 55, 0
2, 74360, Note_off_c, 1, 59, 0
2, 74360, Note_off_c, 1, 62, 0
2, 74360, Note_on_c, 1, 64, 127
2, 74360, Note_off_c, 1, 65, 0
2, 74360, Note_off_c, 1, 67, 0
2, 74400, Note_on_c, 1, 60, 127
2, 74400, Note_off_c, 1, 64, 0
2, 74400, Note_on_c, 1, 69, 127
2, 74400, Note_on_c, 1, 76, 127
2, 74600, Note_off_c, 1, 48, 0
2, 74600, Note_off_c, 1, 60, 0
2, 74600, Note_off_c, 1, 69, 0
2, 74600, Note_off_c, 1, 76, 0
2, 74640, Note_on_c, 1, 48, 127
2, 74640, Note_on_c, 1, 60, 127
2, 74640, Note_on_c, 1, 69, 127
2, 74640, Note_on_c, 1, 76, 127
2, 74800, Note_off_c, 1, 69, 0
2, 74800, Note_off_c, 1, 76, 0
2, 74840, Note_on_c, 1, 67, 127
2, 74840, Note_on_c, 1, 76, 127
2, 75160, Note_off_c, 1, 48, 0
2, 75160, Note_off_c, 1, 60, 0
2, 75160, Note_off_c, 1, 67, 0
2, 75160, Note_off_c, 1, 76, 0
2, 75200, Note_on_c, 1, 53, 127
2, 75200, Note_on_c, 1, 60, 127
2, 75200, Note_on_c, 1, 65, 127
2, 75200, Note_on_c, 1, 69, 127
2, 75200, Note_on_c, 1, 75, 127
2, 75560, Note_off_c, 1, 75, 0
2, 75600, Note_on_c, 1, 75, 127
2, 75920, Note_off_c, 1, 53, 0
2, 75920, Note_off_c, 1, 60, 0
2, 75920, Note_off_c, 1, 65, 0
2, 75920, Note_off_c, 1, 69, 0
2, 75920, Note_off_c, 1, 75, 0
2, 75960, Note_on_c, 1, 53, 127
2, 75960, Note_on_c, 1, 64, 127
2, 75960, Note_on_c, 1, 72, 127
2, 76280, Note_off_c, 1, 72, 0
2, 76320, Note_on_c, 1, 55, 127
2, 76320, Note_on_c, 1, 70, 127
2, 76640, Note_off_c, 1, 53, 0
2, 76640, Note_off_c, 1, 55, 0
2, 76640, Note_on_c, 1, 56, 127
2, 76640, Note_off_c, 1, 64, 0
2, 76640, Note_on_c, 1, 65, 127
2, 76640, Note_on_c, 1, 68, 127
2, 76640, Note_off_c, 1, 70, 0
2, 76680, Note_on_c, 1, 53, 127
2, 76680, Note_on_c, 1, 55, 127
2, 76680, Note_off_c, 1, 56, 0
2, 76680, Note_on_c, 1, 64, 127
2, 76680, Note_off_c, 1, 65, 0
2, 76680, Note_off_c, 1, 68, 0
2, 76680, Note_on_c, 1, 70, 127
2, 76840, Note_off_c, 1, 53, 0
2, 76840, Note_off_c, 1, 55, 0
2, 76840, Note_off_c, 1, 64, 0
2, 76840, Note_off_c, 1, 70, 0
2, 76880, Note_on_c, 1, 53, 127
2, 76880, Note_on_c, 1, 55, 127
2, 76880, Note_on_c, 1, 64, 127
2, 76880, Note_on_c, 1, 70, 127
2, 77040, Note_off_c, 1, 55, 0
2, 77040, Note_off_c, 1, 70, 0
2, 77080, Note_on_c, 1, 58, 127
2, 77080, Note_on_c, 1, 67, 127
2, 77400, Note_off_c, 1, 53, 0
2, 77400, Note_off_c, 1, 58, 0
2, 77400, Note_off_c, 1, 64, 0
2, 77400, Note_off_c, 1, 67, 0
2, 77440, Note_on_c, 1, 53, 127
2, 77440, Note_on_c, 1, 57, 127
2, 77440, Note_on_c, 1, 60, 127
2, 77440, Note_on_c, 1, 65, 127
2, 77760, Note_off_c, 1, 57, 0
2, 77760, Note_off_c, 1, 60, 0
2, 77800, Note_off_c, 1, 53, 0
2, 77800, Note_on_c, 1, 58, 127
2, 77800, Note_on_c, 1, 62, 127
2, 77800, Note_off_c, 1, 65, 0
2, 77800, Note_on_c, 1, 96, 127
2, 77840, Note_on_c, 1, 48, 127
2, 77840, Note_on_c, 1, 50, 127
2, 77840, Note_off_c, 1, 58, 0
2, 77840, Note_on_c, 1, 59, 127
2, 77840, Note_off_c, 1, 62, 0
2, 77840, Note_on_c, 1, 71, 127
2, 77840, Note_off_c, 1, 96, 0
2, 77880, Note_off_c, 1, 48, 0
2, 77880, Note_on_c, 1, 49, 127
2, 77880, Note_off_c, 1, 50, 0
2, 77880, Note_off_c, 1, 59, 0
2, 77880, Note_on_c, 1, 61, 127
2, 77880, Note_off_c, 1, 71, 0
2, 77880, Note_on_c, 1, 72, 127
2, 77880, Note_on_c, 1, 77, 127
2, 77880, Note_on_c, 1, 84, 127
2, 77920, Note_off_c, 1, 49, 0
2, 77920, Note_off_c, 1, 61, 0
2, 77920, Note_on_c, 1, 69, 127
2, 77920, Note_off_c, 1, 72, 0
2, 77920, Note_off_c, 1, 77, 0
2, 77920, Note_on_c, 1, 81, 127
2, 77920, Note_off_c, 1, 84, 0
2, 77920, Note_on_c, 1, 86, 127
2, 77920, Note_on_c, 1, 93, 127
2, 77960, Note_on_c, 1, 37, 127
2, 77960, Note_on_c, 1, 40, 127
2, 77960, Note_on_c, 1, 43, 127
2, 77960, Note_on_c, 1, 55, 127
2, 77960, Note_on_c, 1, 64, 127
2, 77960, Note_on_c, 1, 66, 127
2, 77960, Note_off_c, 1, 69, 0
2, 77960, Note_off_c, 1, 81, 0
2, 77960, Note_off_c, 1, 86, 0
2, 77960, Note_off_c, 1, 93, 0
2, 78000, Note_off_c, 1, 37, 0
2, 78000, Note_off_c, 1, 40, 0
2, 78000, Note_off_c, 1, 43, 0
2, 78000, Note_on_c, 1, 48, 127
2, 78000, Note_on_c, 1, 52, 127
2, 78000, Note_off_c, 1, 55, 0
2, 78000, Note_off_c, 1, 64, 0
2, 78000, Note_off_c, 1, 66, 0
2, 78000, Note_on_c, 1, 79, 127
2, 78000, Note_on_c, 1, 83, 127
2, 78040, Note_on_c, 1, 46, 127
2, 78040, Note_off_c, 1, 48, 0
2, 78040, Note_off_c, 1, 52, 0
2, 78040, Note_on_c, 1, 53, 127
2, 78040, Note_on_c, 1, 63, 127
2, 78040, Note_on_c, 1, 65, 127
2, 78040, Note_on_c, 1, 69, 127
2, 78040, Note_on_c, 1, 75, 127
2, 78040, Note_off_c, 1, 79, 0
2, 78040, Note_off_c, 1, 83, 0
2, 78080, Note_on_c, 1, 40, 127
2, 78080, Note_off_c, 1, 46, 0
2, 78080, Note_on_c, 1, 52, 127
2, 78080, Note_off_c, 1, 53, 0
2, 78080, Note_on_c, 1, 59, 127
2, 78080, Note_on_c, 1, 62, 127
2, 78080, Note_off_c, 1, 63, 0
2, 78080, Note_off_c, 1, 65, 0
2, 78080, Note_on_c, 1, 68, 127
2, 78080, Note_off_c, 1, 69, 0
2, 78080, Note_off_c, 1, 75, 0
2, 78080, Note_on_c, 1, 94, 127
2, 78120, Note_off_c, 1, 40, 0
2, 78120, Note_off_c, 1, 52, 0
2, 78120, Note_on_c, 1, 53, 127
2, 78120, Note_on_c, 1, 58, 127
2, 78120, Note_off_c, 1, 59, 0
2, 78120, Note_off_c, 1, 62, 0
2, 78120, Note_on_c, 1, 65, 127
2, 78120, Note_off_c, 1, 68, 0
2, 78120, Note_off_c, 1, 94, 0
2, 78160, Note_on_c, 1, 48, 127
2, 78160, Note_off_c, 1, 53, 0
2, 78160, Note_on_c, 1, 60, 127
2, 78160, Note_on_c, 1, 64, 127
2, 78160, Note_off_c, 1, 65, 0
2, 78160, Note_on_c, 1, 67, 127
2, 78440, Note_off_c, 1, 48, 0
2, 78440, Note_off_c, 1, 58, 0
2, 78440, Note_off_c, 1, 60, 0
2, 78440, Note_off_c, 1, 67, 0
2, 78440, Note_on_c, 1, 71, 127
2, 78440, Note_on_c, 1, 83, 127
2, 78440, Note_on_c, 1, 90, 127
2, 78480, Note_on_c, 1, 48, 127
2, 78480, Note_off_c, 1, 64, 0
2, 78480, Note_off_c, 1, 71, 0
2, 78480, Note_off_c, 1, 83, 0
2, 78480, Note_off_c, 1, 90, 0
2, 78520, Note_on_c, 1, 40, 127
2, 78520, Note_on_c, 1, 47, 127
2, 78520, Note_off_c, 1, 48, 0
2, 78520, Note_on_c, 1, 50, 127
2, 78520, Note_on_c, 1, 52, 127
2, 78520, Note_on_c, 1, 56, 127
2, 78520, Note_on_c, 1, 59, 127
2, 78880, Note_off_c, 1, 40, 0
2, 78880, Note_off_c, 1, 47, 0
2, 78880, Note_off_c, 1, 50, 0
2, 78880, Note_off_c, 1, 52, 0
2, 78880, Note_off_c, 1, 56, 0
2, 78880, Note_off_c, 1, 59, 0
2, 78880, Note_on_c, 1, 60, 127
2, 78920, Note_on_c, 1, 40, 127
2, 78920, Note_on_c, 1, 47, 127
2, 78920, Note_on_c, 1, 50, 127
2, 78920, Note_on_c, 1, 52, 127
2, 78920, Note_on_c, 1, 56, 127
2, 78920, Note_on_c, 1, 59, 127
2, 78920, Note_off_c, 1, 60, 0
2, 79160, Note_off_c, 1, 40, 0
2, 79160, Note_off_c, 1, 47, 0
2, 79160, Note_off_c, 1, 50, 0
2, 79160, Note_off_c, 1, 52, 0
2, 79160, Note_off_c, 1, 56, 0
2, 79160, Note_off_c, 1, 59, 0
2, 79200, Note_on_c, 1, 40, 127
2, 79200, Note_on_c, 1, 47, 127
2, 79200, Note_on_c, 1, 50, 127
2, 79200, Note_on_c, 1, 52, 127
2, 79200, Note_on_c, 1, 56, 127
2, 79200, Note_on_c, 1, 59, 127
2, 79280, Note_off_c, 1, 40, 0
2, 79280, Note_off_c, 1, 47, 0
2, 79280, Note_off_c, 1, 50, 0
2, 79280, Note_off_c, 1, 52, 0
2, 79280, Note_off_c, 1, 56, 0
2, 79280, Note_off_c, 1, 59, 0
2, 79320, Note_on_c, 1, 40, 127
2, 79320, Note_on_c, 1, 47, 127
2, 79320, Note_on_c, 1, 50, 127
2, 79320, Note_on_c, 1, 52, 127
2, 79320, Note_on_c, 1, 56, 127
2, 79320, Note_on_c, 1, 59, 127
2, 79640, Note_off_c, 1, 40, 0
2, 79640, Note_off_c, 1, 47, 0
2, 79640, Note_off_c, 1, 50, 0
2, 79640, Note_off_c, 1, 52, 0
2, 79640, Note_off_c, 1, 56, 0
2, 79640, Note_off_c, 1, 59, 0
2, 79680, Note_on_c, 1, 33, 127
2, 79680, Note_on_c, 1, 40, 127
2, 79680, Note_on_c, 1, 45, 127
2, 79680, Note_on_c, 1, 48, 127
2, 79680, Note_on_c, 1, 52, 127
2, 79680, Note_on_c, 1, 57, 127
2, 79680, Note_on_c, 1, 60, 127
2, 79840, Note_off_c, 1, 33, 0
2, 79840, Note_on_c, 1, 38, 127
2, 79840, Note_off_c, 1, 40, 0
2, 79840, Note_off_c, 1, 45, 0
2, 79840, Note_off_c, 1, 48, 0
2, 79840, Note_on_c, 1, 50, 127
2, 79840, Note_off_c, 1, 52, 0
2, 79840, Note_off_c, 1, 60, 0
2, 79840, Note_on_c, 1, 66, 127
2, 79840, Note_on_c, 1, 69, 127
2, 79880, Note_on_c, 1, 33, 127
2, 79880, Note_off_c, 1, 38, 0
2, 79880, Note_on_c, 1, 40, 127
2, 79880, Note_on_c, 1, 45, 127
2, 79880, Note_on_c, 1, 48, 127
2, 79880, Note_off_c, 1, 50, 0
2, 79880, Note_on_c, 1, 52, 127
2, 79880, Note_on_c, 1, 60, 127
2, 79880, Note_off_c, 1, 66, 0
2, 79880, Note_off_c, 1, 69, 0
2, 80000, Note_off_c, 1, 33, 0
2, 80000, Note_off_c, 1, 40, 0
2, 80000, Note_off_c, 1, 45, 0
2, 80000, Note_off_c, 1, 48, 0
2, 80000, Note_off_c, 1, 52, 0
2, 80000, Note_off_c, 1, 57, 0
2, 80000, Note_off_c, 1, 60, 0
2, 80040, Note_on_c, 1, 33, 127
2, 80040, Note_on_c, 1, 45, 127
2, 80040, Note_on_c, 1, 53, 127
2, 80040, Note_on_c, 1, 65, 127
2, 80040, Note_on_c, 1, 73, 127
2, 80040, Note_on_c, 1, 81, 127
2, 80360, Note_off_c, 1, 33, 0
2, 80360, Note_off_c, 1, 45, 0
2, 80360, Note_off_c, 1, 53, 0
2, 80360, Note_off_c, 1, 65, 0
2, 80360, Note_off_c, 1, 73, 0
2, 80360, Note_off_c, 1, 81, 0
2, 80400, Note_on_c, 1, 36, 127
2, 80400, Note_on_c, 1, 48, 127
2, 80400, Note_on_c, 1, 57, 127
2, 80400, Note_on_c, 1, 64, 127
2, 80520, Note_off_c, 1, 36, 0
2, 80520, Note_off_c, 1, 48, 0
2, 80560, Note_on_c, 1, 36, 127
2, 80560, Note_on_c, 1, 48, 127
2, 80560, Note_on_c, 1, 54, 127
2, 80560, Note_on_c, 1, 66, 127
2, 80600, Note_off_c, 1, 54, 0
2, 80600, Note_off_c, 1, 66, 0
2, 80640, Note_on_c, 1, 54, 127
2, 80640, Note_on_c, 1, 66, 127
2, 80720, Note_off_c, 1, 36, 0
2, 80720, Note_off_c, 1, 48, 0
2, 80720, Note_off_c, 1, 54, 0
2, 80720, Note_off_c, 1, 57, 0
2, 80720, Note_off_c, 1, 64, 0
2, 80720, Note_off_c, 1, 66, 0
2, 80760, Note_on_c, 1, 53, 127
2, 80760, Note_on_c, 1, 60, 127
2, 80760, Note_on_c, 1, 69, 127
2, 80760, Note_on_c, 1, 77, 127
2, 80760, Note_on_c, 1, 89, 127
2, 81040, Note_off_c, 1, 53, 0
2, 81040, Note_off_c, 1, 60, 0
2, 81040, Note_off_c, 1, 69, 0
2, 81040, Note_off_c, 1, 77, 0
2, 81040, Note_off_c, 1, 89, 0
2, 81080, Note_on_c, 1, 53, 127
2, 81080, Note_on_c, 1, 60, 127
2, 81080, Note_on_c, 1, 69, 127
2, 81080, Note_on_c, 1, 77, 127
2, 81080, Note_on_c, 1, 89, 127
2, 81120, Note_off_c, 1, 53, 0
2, 81120, Note_on_c, 1, 57, 127
2, 81120, Note_off_c, 1, 60, 0
2, 81120, Note_on_c, 1, 65, 127
2, 81120, Note_off_c, 1, 69, 0
2, 81120, Note_off_c, 1, 77, 0
2, 81120, Note_off_c, 1, 89, 0
2, 81160, Note_off_c, 1, 57, 0
2, 81160, Note_on_c, 1, 64, 127
2, 81160, Note_off_c, 1, 65, 0
2, 81160, Note_on_c, 1, 73, 127
2, 81160, Note_on_c, 1, 75, 127
2, 81160, Note_on_c, 1, 76, 127
2, 81160, Note_on_c, 1, 78, 127
2, 81160, Note_on_c, 1, 80, 127
2, 81200, Note_on_c, 1, 44, 127
2, 81200, Note_on_c, 1, 56, 127
2, 81200, Note_on_c, 1, 60, 127
2, 81200, Note_on_c, 1, 63, 127
2, 81200, Note_off_c, 1, 64, 0
2, 81200, Note_on_c, 1, 68, 127
2, 81200, Note_on_c, 1, 72, 127
2, 81200, Note_off_c, 1, 73, 0
2, 81200, Note_off_c, 1, 76, 0
2, 81200, Note_off_c, 1, 78, 0
2, 81240, Note_off_c, 1, 44, 0
2, 81240, Note_on_c, 1, 48, 127
2, 81240, Note_on_c, 1, 51, 127
2, 81240, Note_off_c, 1, 56, 0
2, 81240, Note_on_c, 1, 67, 127
2, 81240, Note_off_c, 1, 68, 0
2, 81240, Note_off_c, 1, 72, 0
2, 81240, Note_off_c, 1, 75, 0
2, 81240, Note_off_c, 1, 80, 0
2, 81280, Note_on_c, 1, 45, 127
2, 81280, Note_off_c, 1, 48, 0
2, 81280, Note_off_c, 1, 51, 0
2, 81280, Note_on_c, 1, 55, 127
2, 81280, Note_off_c, 1, 63, 0
2, 81280, Note_on_c, 1, 66, 127
2, 81280, Note_off_c, 1, 67, 0
2, 81320, Note_off_c, 1, 45, 0
2, 81320, Note_on_c, 1, 53, 127
2, 81320, Note_off_c, 1, 55, 0
2, 81320, Note_off_c, 1, 66, 0
2, 81320, Note_on_c, 1, 69, 127
2, 81360, Note_on_c, 1, 43, 127
2, 81360, Note_on_c, 1, 51, 127
2, 81360, Note_off_c, 1, 53, 0
2, 81360, Note_off_c, 1, 60, 0
2, 81360, Note_off_c, 1, 69, 0
2, 81360, Note_on_c, 1, 73, 127
2, 81360, Note_on_c, 1, 82, 127
2, 81480, Note_off_c, 1, 43, 0
2, 81480, Note_off_c, 1, 51, 0
2, 81480, Note_off_c, 1, 73, 0
2, 81480, Note_off_c, 1, 82, 0
2, 81520, Note_on_c, 1, 60, 127
2, 81520, Note_on_c, 1, 63, 127
2, 81520, Note_on_c, 1, 91, 127
2, 81680, Note_off_c, 1, 63, 0
2, 81680, Note_on_c, 1, 67, 127
2, 81680, Note_on_c, 1, 87, 127
2, 81680, Note_off_c, 1, 91, 0
2, 81720, Note_on_c, 1, 34, 127
2, 81720, Note_on_c, 1, 56, 127
2, 81720, Note_off_c, 1, 87, 0
2, 82200, Note_off_c, 1, 34, 0
2, 82200, Note_off_c, 1, 56, 0
2, 82200, Note_off_c, 1, 60, 0
2, 82200, Note_off_c, 1, 67, 0
2, 82240, Note_on_c, 1, 45, 127
2, 82240, Note_on_c, 1, 48, 127
2, 82240, Note_on_c, 1, 53, 127
2, 82240, Note_on_c, 1, 63, 127
2, 82320, Note_off_c, 1, 48, 0
2, 82360, Note_on_c, 1, 48, 127
2, 82400, Note_off_c, 1, 48, 0
2, 82440, Note_on_c, 1, 48, 127
2, 82480, Note_off_c, 1, 48, 0
2, 82600, Note_off_c, 1, 45, 0
2, 82600, Note_off_c, 1, 53, 0
2, 82600, Note_off_c, 1, 63, 0
2, 82640, Note_on_c, 1, 49, 127
2, 82640, Note_on_c, 1, 53, 127
2, 82640, Note_on_c, 1, 65, 127
2, 82640, Note_on_c, 1, 77, 127
2, 83160, Note_off_c, 1, 49, 0
2, 83160, Note_off_c, 1, 53, 0
2, 83160, Note_off_c, 1, 65, 0
2, 83160, Note_off_c, 1, 77, 0
2, 83200, Note_on_c, 1, 49, 127
2, 83200, Note_on_c, 1, 53, 127
2, 83200, Note_on_c, 1, 65, 127
2, 83200, Note_on_c, 1, 77, 127
2, 83560, Note_off_c, 1, 65, 0
2, 83560, Note_off_c, 1, 77, 0
2, 83600, Note_on_c, 1, 65, 127
2, 83600, Note_on_c, 1, 77, 127
2, 83760, Note_off_c, 1, 49, 0
2, 83760, Note_off_c, 1, 53, 0
2, 83760, Note_off_c, 1, 65, 0
2, 83760, Note_off_c, 1, 77, 0
2, 83800, Note_on_c, 1, 67, 127
2, 83800, Note_on_c, 1, 79, 127
2, 83800, Note_on_c, 1, 80, 127
2, 83840, Note_off_c, 1, 67, 0
2, 83840, Note_on_c, 1, 68, 127
2, 83840, Note_off_c, 1, 79, 0
2, 83840, Note_off_c, 1, 80, 0
2, 83840, Note_on_c, 1, 87, 127
2, 83840, Note_on_c, 1, 91, 127
2, 83880, Note_on_c, 1, 45, 127
2, 83880, Note_on_c, 1, 57, 127
2, 83880, Note_on_c, 1, 65, 127
2, 83880, Note_off_c, 1, 68, 0
2, 83880, Note_on_c, 1, 69, 127
2, 83880, Note_on_c, 1, 72, 127
2, 83880, Note_on_c, 1, 77, 127
2, 83880, Note_off_c, 1, 87, 0
2, 83880, Note_off_c, 1, 91, 0
2, 83920, Note_off_c, 1, 45, 0
2, 83920, Note_off_c, 1, 57, 0
2, 83920, Note_off_c, 1, 65, 0
2, 83920, Note_on_c, 1, 67, 127
2, 83920, Note_off_c, 1, 69, 0
2, 83920, Note_off_c, 1, 72, 0
2, 83920, Note_off_c, 1, 77, 0
2, 83960, Note_on_c, 1, 55, 127
2, 83960, Note_off_c, 1, 67, 0
2, 83960, Note_on_c, 1, 79, 127
2, 83960, Note_on_c, 1, 82, 127
2, 83960, Note_on_c, 1, 86, 127
2, 84120, Note_off_c, 1, 55, 0
2, 84120, Note_off_c, 1, 82, 0
2, 84120, Note_off_c, 1, 86, 0
2, 84160, Note_on_c, 1, 55, 127
2, 84160, Note_on_c, 1, 82, 127
2, 84160, Note_on_c, 1, 86, 127
2, 84480, Note_off_c, 1, 55, 0
2, 84480, Note_off_c, 1, 82, 0
2, 84480, Note_off_c, 1, 86, 0
2, 84520, Note_on_c, 1, 55, 127
2, 84520, Note_on_c, 1, 82, 127
2, 84520, Note_on_c, 1, 86, 127
2, 84840, Note_off_c, 1, 55, 0
2, 84840, Note_off_c, 1, 79, 0
2, 84840, Note_off_c, 1, 82, 0
2, 84840, Note_off_c, 1, 86, 0
2, 84880, Note_on_c, 1, 55, 127
2, 84880, Note_on_c, 1, 79, 127
2, 84880, Note_on_c, 1, 82, 127
2, 84880, Note_on_c, 1, 86, 127
2, 85200, Note_off_c, 1, 55, 0
2, 85200, Note_off_c, 1, 82, 0
2, 85200, Note_off_c, 1, 86, 0
2, 85240, Note_on_c, 1, 36, 127
2, 85240, Note_on_c, 1, 48, 127
2, 85240, Note_on_c, 1, 69, 127
2, 85240, Note_on_c, 1, 72, 127
2, 85240, Note_on_c, 1, 76, 127
2, 85240, Note_off_c, 1, 79, 0
2, 85240, Note_on_c, 1, 81, 127
2, 85360, Note_off_c, 1, 36, 0
2, 85360, Note_off_c, 1, 48, 0
2, 85360, Note_off_c, 1, 69, 0
2, 85360, Note_off_c, 1, 72, 0
2, 85360, Note_off_c, 1, 76, 0
2, 85360, Note_off_c, 1, 81, 0
2, 85400, Note_on_c, 1, 36, 127
2, 85400, Note_on_c, 1, 48, 127
2, 85400, Note_on_c, 1, 69, 127
2, 85400, Note_on_c, 1, 72, 127
2, 85400, Note_on_c, 1, 76, 127
2, 85400, Note_on_c, 1, 81, 127
2, 85600, Note_off_c, 1, 36, 0
2, 85600, Note_off_c, 1, 48, 0
2, 85600, Note_off_c, 1, 69, 0
2, 85600, Note_off_c, 1, 72, 0
2, 85600, Note_off_c, 1, 76, 0
2, 85600, Note_off_c, 1, 81, 0
2, 85640, Note_on_c, 1, 50, 127
2, 85640, Note_on_c, 1, 59, 127
2, 85640, Note_on_c, 1, 71, 127
2, 85640, Note_on_c, 1, 83, 127
2, 85960, Note_off_c, 1, 50, 0
2, 85960, Note_off_c, 1, 59, 0
2, 85960, Note_off_c, 1, 71, 0
2, 85960, Note_off_c, 1, 83, 0
2, 86000, Note_on_c, 1, 43, 127
2, 86000, Note_on_c, 1, 48, 127
2, 86000, Note_on_c, 1, 55, 127
2, 86000, Note_on_c, 1, 70, 127
2, 86000, Note_on_c, 1, 72, 127
2, 86000, Note_on_c, 1, 82, 127
2, 86320, Note_off_c, 1, 43, 0
2, 86320, Note_off_c, 1, 48, 0
2, 86320, Note_off_c, 1, 55, 0
2, 86320, Note_off_c, 1, 70, 0
2, 86320, Note_off_c, 1, 72, 0
2, 86320, Note_off_c, 1, 82, 0
2, 86360, Note_on_c, 1, 41, 127
2, 86360, Note_on_c, 1, 48, 127
2, 86360, Note_on_c, 1, 53, 127
2, 86360, Note_on_c, 1, 69, 127
2, 86360, Note_on_c, 1, 72, 127
2, 86360, Note_on_c, 1, 81, 127
2, 86680, Note_off_c, 1, 41, 0
2, 86680, Note_off_c, 1, 48, 0
2, 86680, Note_off_c, 1, 53, 0
2, 86720, Note_on_c, 1, 43, 127
2, 86720, Note_off_c, 1, 69, 0
2, 86720, Note_off_c, 1, 72, 0
2, 86720, Note_off_c, 1, 81, 0
2, 86720, Note_on_c, 1, 84, 127
2, 86720, Note_on_c, 1, 87, 127
2, 86760, Note_on_c, 1, 39, 127
2, 86760, Note_off_c, 1, 43, 0
2, 86760, Note_on_c, 1, 48, 127
2, 86760, Note_on_c, 1, 51, 127
2, 86760, Note_on_c, 1, 60, 127
2, 86760, Note_on_c, 1, 68, 127
2, 86760, Note_on_c, 1, 72, 127
2, 86760, Note_off_c, 1, 84, 0
2, 86760, Note_off_c, 1, 87, 0
2, 86800, Note_off_c, 1, 39, 0
2, 86800, Note_off_c, 1, 48, 0
2, 86800, Note_off_c, 1, 51, 0
2, 86800, Note_off_c, 1, 60, 0
2, 86800, Note_off_c, 1, 68, 0
2, 86800, Note_off_c, 1, 72, 0
2, 86800, Note_on_c, 1, 91, 127
2, 86800, Note_on_c, 1, 94, 127
2, 86800, Note_on_c, 1, 98, 127
2, 86800, Note_on_c, 1, 103, 127
2, 86840, Note_on_c, 1, 44, 127
2, 86840, Note_on_c, 1, 54, 127
2, 86840, Note_on_c, 1, 69, 127
2, 86840, Note_on_c, 1, 72, 127
2, 86840, Note_on_c, 1, 75, 127
2, 86840, Note_on_c, 1, 78, 127
2, 86840, Note_on_c, 1, 81, 127
2, 86840, Note_off_c, 1, 91, 0
2, 86840, Note_off_c, 1, 94, 0
2, 86840, Note_off_c, 1, 98, 0
2, 86840, Note_off_c, 1, 103, 0
2, 86880, Note_on_c, 1, 38, 127
2, 86880, Note_off_c, 1, 44, 0
2, 86880, Note_on_c, 1, 52, 127
2, 86880, Note_off_c, 1, 54, 0
2, 86880, Note_on_c, 1, 57, 127
2, 86880, Note_off_c, 1, 69, 0
2, 86880, Note_off_c, 1, 72, 0
2, 86880, Note_off_c, 1, 75, 0
2, 86880, Note_on_c, 1, 76, 127
2, 86880, Note_off_c, 1, 78, 0
2, 86880, Note_off_c, 1, 81, 0
2, 86920, Note_on_c, 1, 50, 127
2, 86920, Note_off_c, 1, 52, 0
2, 86920, Note_off_c, 1, 57, 0
2, 86920, Note_on_c, 1, 65, 127
2, 86920, Note_on_c, 1, 67, 127
2, 86920, Note_on_c, 1, 70, 127
2, 86920, Note_on_c, 1, 74, 127
2, 86920, Note_off_c, 1, 76, 0
2, 86960, Note_off_c, 1, 38, 0
2, 86960, Note_off_c, 1, 50, 0
2, 86960, Note_off_c, 1, 65, 0
2, 86960, Note_off_c, 1, 70, 0
2, 86960, Note_on_c, 1, 79, 127
2, 87000, Note_on_c, 1, 72, 127
2, 87000, Note_off_c, 1, 74, 0
2, 87000, Note_on_c, 1, 76, 127
2, 87000, Note_off_c, 1, 79, 0
2, 87000, Note_on_c, 1, 88, 127
2, 87000, Note_on_c, 1, 96, 127
2, 87000, Note_on_c, 1, 100, 127
2, 87040, Note_off_c, 1, 67, 0
2, 87040, Note_off_c, 1, 72, 0
2, 87040, Note_off_c, 1, 76, 0
2, 87040, Note_off_c, 1, 88, 0
2, 87040, Note_off_c, 1, 96, 0
2, 87040, Note_off_c, 1, 100, 0
2, 87080, Note_on_c, 1, 35, 127
2, 87080, Note_on_c, 1, 42, 127
2, 87080, Note_on_c, 1, 64, 127
2, 87080, Note_on_c, 1, 67, 127
2, 87080, Note_on_c, 1, 70, 127
2, 87080, Note_on_c, 1, 73, 127
2, 87400, Note_off_c, 1, 35, 0
2, 87400, Note_off_c, 1, 42, 0
2, 87400, Note_on_c, 1, 48, 127
2, 87400, Note_on_c, 1, 55, 127
2, 87400, Note_on_c, 1, 58, 127
2, 87400, Note_off_c, 1, 67, 0
2, 87400, Note_off_c, 1, 70, 0
2, 87400, Note_on_c, 1, 72, 127
2, 87400, Note_off_c, 1, 73, 0
2, 87400, Note_on_c, 1, 76, 127
2, 87440, Note_off_c, 1, 48, 0
2, 87440, Note_off_c, 1, 55, 0
2, 87440, Note_off_c, 1, 58, 0
2, 87440, Note_off_c, 1, 64, 0
2, 87440, Note_off_c, 1, 72, 0
2, 87440, Note_off_c, 1, 76, 0
2, 87480, Note_on_c, 1, 50, 127
2, 87480, Note_on_c, 1, 54, 127
2, 87480, Note_on_c, 1, 57, 127
2, 87480, Note_on_c, 1, 62, 127
2, 87480, Note_on_c, 1, 69, 127
2, 87800, Note_off_c, 1, 50, 0
2, 87800, Note_off_c, 1, 54, 0
2, 87800, Note_off_c, 1, 57, 0
2, 87800, Note_off_c, 1, 62, 0
2, 87800, Note_off_c, 1, 69, 0
2, 87840, Note_on_c, 1, 62, 127
2, 87840, Note_on_c, 1, 65, 127
2, 87840, Note_on_c, 1, 74, 127
2, 87840, Note_on_c, 1, 78, 127
2, 87840, Note_on_c, 1, 82, 127
2, 87880, Note_on_c, 1, 77, 127
2, 87880, Note_off_c, 1, 78, 0
2, 88000, Note_off_c, 1, 77, 0
2, 88000, Note_on_c, 1, 78, 127
2, 88160, Note_off_c, 1, 62, 0
2, 88160, Note_off_c, 1, 65, 0
2, 88160, Note_off_c, 1, 74, 0
2, 88160, Note_off_c, 1, 78, 0
2, 88160, Note_off_c, 1, 82, 0
2, 88200, Note_on_c, 1, 62, 127
2, 88200, Note_on_c, 1, 65, 127
2, 88200, Note_on_c, 1, 74, 127
2, 88200, Note_on_c, 1, 78, 127
2, 88200, Note_on_c, 1, 82, 127
2, 88400, Note_off_c, 1, 78, 0
2, 88400, Note_on_c, 1, 91, 127
2, 88440, Note_on_c, 1, 78, 127
2, 88440, Note_off_c, 1, 91, 0
2, 88480, Note_off_c, 1, 78, 0
2, 88480, Note_on_c, 1, 89, 127
2, 88520, Note_off_c, 1, 62, 0
2, 88520, Note_off_c, 1, 65, 0
2, 88520, Note_off_c, 1, 74, 0
2, 88520, Note_off_c, 1, 82, 0
2, 88520, Note_off_c, 1, 89, 0
2, 88560, Note_on_c, 1, 62, 127
2, 88560, Note_on_c, 1, 65, 127
2, 88560, Note_on_c, 1, 74, 127
2, 88560, Note_on_c, 1, 78, 127
2, 88560, Note_on_c, 1, 82, 127
2, 88880, Note_off_c, 1, 62, 0
2, 88880, Note_off_c, 1, 65, 0
2, 88880, Note_off_c, 1, 74, 0
2, 88880, Note_off_c, 1, 78, 0
2, 88880, Note_off_c, 1, 82, 0
2, 88920, Note_on_c, 1, 39, 127
2, 88920, Note_on_c, 1, 67, 127
2, 88920, Note_on_c, 1, 73, 127
2, 88920, Note_on_c, 1, 77, 127
2, 88960, Note_off_c, 1, 39, 0
2, 88960, Note_on_c, 1, 59, 127
2, 88960, Note_off_c, 1, 67, 0
2, 88960, Note_on_c, 1, 68, 127
2, 88960, Note_on_c, 1, 71, 127
2, 88960, Note_off_c, 1, 73, 0
2, 88960, Note_off_c, 1, 77, 0
2, 88960, Note_on_c, 1, 92, 127
2, 88960, Note_on_c, 1, 95, 127
2, 89000, Note_on_c, 1, 54, 127
2, 89000, Note_off_c, 1, 59, 0
2, 89000, Note_off_c, 1, 68, 0
2, 89000, Note_off_c, 1, 71, 0
2, 89000, Note_on_c, 1, 79, 127
2, 89000, Note_on_c, 1, 86, 127
2, 89000, Note_on_c, 1, 89, 127
2, 89000, Note_on_c, 1, 91, 127
2, 89000, Note_off_c, 1, 92, 0
2, 89000, Note_off_c, 1, 95, 0
2, 89040, Note_on_c, 1, 58, 127
2, 89040, Note_on_c, 1, 64, 127
2, 89040, Note_on_c, 1, 70, 127
2, 89040, Note_on_c, 1, 72, 127
2, 89040, Note_on_c, 1, 76, 127
2, 89040, Note_off_c, 1, 79, 0
2, 89040, Note_on_c, 1, 82, 127
2, 89040, Note_off_c, 1, 86, 0
2, 89040, Note_off_c, 1, 89, 0
2, 89040, Note_off_c, 1, 91, 0
2, 89080, Note_on_c, 1, 51, 127
2, 89080, Note_off_c, 1, 54, 0
2, 89080, Note_off_c, 1, 58, 0
2, 89080, Note_off_c, 1, 64, 0
2, 89080, Note_off_c, 1, 70, 0
2, 89080, Note_off_c, 1, 72, 0
2, 89080, Note_off_c, 1, 76, 0
2, 89080, Note_on_c, 1, 81, 127
2, 89080, Note_off_c, 1, 82, 0
2, 89080, Note_on_c, 1, 87, 127
2, 89080, Note_on_c, 1, 90, 127
2, 89080, Note_on_c, 1, 93, 127
2, 89240, Note_off_c, 1, 51, 0
2, 89240, Note_off_c, 1, 81, 0
2, 89240, Note_off_c, 1, 87, 0
2, 89240, Note_off_c, 1, 90, 0
2, 89240, Note_off_c, 1, 93, 0
2, 89280, Note_on_c, 1, 39, 127
2, 89280, Note_on_c, 1, 43, 127
2, 89280, Note_on_c, 1, 51, 127
2, 89280, Note_on_c, 1, 58, 127
2, 89480, Note_off_c, 1, 39, 0
2, 89480, Note_off_c, 1, 43, 0
2, 89480, Note_off_c, 1, 51, 0
2, 89480, Note_off_c, 1, 58, 0
2, 89520, Note_on_c, 1, 39, 127
2, 89520, Note_on_c, 1, 43, 127
2, 89520, Note_on_c, 1, 51, 127
2, 89520, Note_on_c, 1, 58, 127
2, 89640, Note_off_c, 1, 39, 0
2, 89640, Note_off_c, 1, 43, 0
2, 89640, Note_off_c, 1, 51, 0
2, 89640, Note_off_c, 1, 58, 0
2, 89680, Note_on_c, 1, 45, 127
2, 89680, Note_on_c, 1, 53, 127
2, 89680, Note_on_c, 1, 56, 127
2, 89680, Note_on_c, 1, 59, 127
2, 89960, Note_off_c, 1, 45, 0
2, 89960, Note_on_c, 1, 52, 127
2, 89960, Note_off_c, 1, 53, 0
2, 89960, Note_off_c, 1, 56, 0
2, 89960, Note_off_c, 1, 59, 0
2, 89960, Note_on_c, 1, 64, 127
2, 90000, Note_off_c, 1, 52, 0
2, 90000, Note_off_c, 1, 64, 0
2, 90040, Note_on_c, 1, 53, 127
2, 90040, Note_on_c, 1, 55, 127
2, 90040, Note_on_c, 1, 58, 127
2, 90040, Note_on_c, 1, 79, 127
2, 90080, Note_on_c, 1, 46, 127
2, 90080, Note_on_c, 1, 48, 127
2, 90080, Note_on_c, 1, 52, 127
2, 90080, Note_off_c, 1, 53, 0
2, 90080, Note_off_c, 1, 55, 0
2, 90080, Note_off_c, 1, 58, 0
2, 90080, Note_on_c, 1, 60, 127
2, 90080, Note_on_c, 1, 64, 127
2, 90080, Note_on_c, 1, 72, 127
2, 90080, Note_off_c, 1, 79, 0
2, 90120, Note_off_c, 1, 48, 0
2, 90120, Note_on_c, 1, 49, 127
2, 90120, Note_off_c, 1, 52, 0
2, 90120, Note_on_c, 1, 55, 127
2, 90120, Note_on_c, 1, 58, 127
2, 90120, Note_off_c, 1, 60, 0
2, 90120, Note_off_c, 1, 64, 0
2, 90120, Note_on_c, 1, 70, 127
2, 90120, Note_off_c, 1, 72, 0
2, 90160, Note_off_c, 1, 46, 0
2, 90160, Note_off_c, 1, 49, 0
2, 90160, Note_on_c, 1, 53, 127
2, 90160, Note_on_c, 1, 60, 127
2, 90160, Note_off_c, 1, 70, 0
2, 90200, Note_off_c, 1, 53, 0
2, 90200, Note_off_c, 1, 55, 0
2, 90200, Note_off_c, 1, 58, 0
2, 90200, Note_off_c, 1, 60, 0
2, 90200, Note_on_c, 1, 61, 127
2, 90200, Note_on_c, 1, 71, 127
2, 90200, Note_on_c, 1, 76, 127
2, 90200, Note_on_c, 1, 83, 127
2, 90240, Note_off_c, 1, 61, 0
2, 90240, Note_on_c, 1, 68, 127
2, 90240, Note_off_c, 1, 71, 0
2, 90240, Note_off_c, 1, 76, 0
2, 90240, Note_on_c, 1, 77, 127
2, 90240, Note_on_c, 1, 80, 127
2, 90240, Note_off_c, 1, 83, 0
2, 90240, Note_on_c, 1, 85, 127
2, 90240, Note_on_c, 1, 92, 127
2, 90280, Note_on_c, 1, 60, 127
2, 90280, Note_on_c, 1, 63, 127
2, 90280, Note_on_c, 1, 66, 127
2, 90280, Note_off_c, 1, 68, 0
2, 90280, Note_on_c, 1, 74, 127
2, 90280, Note_off_c, 1, 77, 0
2, 90280, Note_on_c, 1, 78, 127
2, 90280, Note_off_c, 1, 80, 0
2, 90280, Note_off_c, 1, 85, 0
2, 90280, Note_off_c, 1, 92, 0
2, 90320, Note_off_c, 1, 60, 0
2, 90320, Note_off_c, 1, 63, 0
2, 90320, Note_off_c, 1, 66, 0
2, 90320, Note_off_c, 1, 74, 0
2, 90320, Note_off_c, 1, 78, 0
2, 90320, Note_on_c, 1, 89, 127
2, 90360, Note_off_c, 1, 89, 0
2, 90400, Note_on_c, 1, 63, 127
2, 90400, Note_on_c, 1, 75, 127
2, 90400, Note_on_c, 1, 83, 127
2, 90400, Note_on_c, 1, 92, 127
2, 90440, Note_on_c, 1, 45, 127
2, 90440, Note_off_c, 1, 63, 0
2, 90440, Note_off_c, 1, 75, 0
2, 90440, Note_off_c, 1, 83, 0
2, 90440, Note_on_c, 1, 90, 127
2, 90440, Note_off_c, 1, 92, 0
2, 90440, Note_on_c, 1, 95, 127
2, 90440, Note_on_c, 1, 99, 127
2, 90480, Note_off_c, 1, 45, 0
2, 90480, Note_on_c, 1, 58, 127
2, 90480, Note_on_c, 1, 64, 127
2, 90480, Note_on_c, 1, 76, 127
2, 90480, Note_on_c, 1, 79, 127
2, 90480, Note_off_c, 1, 90, 0
2, 90480, Note_off_c, 1, 95, 0
2, 90480, Note_off_c, 1, 99, 0
2, 90520, Note_on_c, 1, 43, 127
2, 90520, Note_on_c, 1, 55, 127
2, 90520, Note_off_c, 1, 58, 0
2, 90520, Note_on_c, 1, 63, 127
2, 90520, Note_off_c, 1, 64, 0
2, 90520, Note_on_c, 1, 66, 127
2, 90520, Note_on_c, 1, 69, 127
2, 90520, Note_on_c, 1, 74, 127
2, 90520, Note_off_c, 1, 76, 0
2, 90520, Note_off_c, 1, 79, 0
2, 90560, Note_off_c, 1, 43, 0
2, 90560, Note_on_c, 1, 46, 127
2, 90560, Note_on_c, 1, 49, 127
2, 90560, Note_on_c, 1, 52, 127
2, 90560, Note_off_c, 1, 55, 0
2, 90560, Note_off_c, 1, 66, 0
2, 90560, Note_off_c, 1, 69, 0
2, 90560, Note_off_c, 1, 74, 0
2, 90560, Note_on_c, 1, 75, 127
2, 90600, Note_off_c, 1, 46, 0
2, 90600, Note_off_c, 1, 49, 0
2, 90600, Note_off_c, 1, 52, 0
2, 90600, Note_on_c, 1, 58, 127
2, 90600, Note_off_c, 1, 63, 0
2, 90600, Note_on_c, 1, 66, 127
2, 90600, Note_on_c, 1, 71, 127
2, 90600, Note_off_c, 1, 75, 0
2, 90600, Note_on_c, 1, 79, 127
2, 90640, Note_on_c, 1, 40, 127
2, 90640, Note_on_c, 1, 54, 127
2, 90640, Note_on_c, 1, 57, 127
2, 90640, Note_off_c, 1, 58, 0
2, 90640, Note_on_c, 1, 60, 127
2, 90640, Note_on_c, 1, 64, 127
2, 90640, Note_off_c, 1, 71, 0
2, 90640, Note_off_c, 1, 79, 0
2, 90680, Note_off_c, 1, 40, 0
2, 90680, Note_on_c, 1, 46, 127
2, 90680, Note_off_c, 1, 54, 0
2, 90680, Note_off_c, 1, 60, 0
2, 90680, Note_off_c, 1, 64, 0
2, 90680, Note_off_c, 1, 66, 0
2, 90720, Note_off_c, 1, 46, 0
2, 90720, Note_off_c, 1, 57, 0
2, 90760, Note_on_c, 1, 40, 127
2, 90760, Note_on_c, 1, 43, 127
2, 90760, Note_on_c, 1, 52, 127
2, 90760, Note_on_c, 1, 87, 127
2, 90800, Note_off_c, 1, 40, 0
2, 90800, Note_off_c, 1, 43, 0
2, 90800, Note_on_c, 1, 46, 127
2, 90800, Note_off_c, 1, 52, 0
2, 90800, Note_on_c, 1, 54, 127
2, 90800, Note_on_c, 1, 66, 127
2, 90800, Note_on_c, 1, 70, 127
2, 90800, Note_on_c, 1, 74, 127
2, 90800, Note_off_c, 1, 87, 0
2, 90840, Note_off_c, 1, 46, 0
2, 90840, Note_on_c, 1, 49, 127
2, 90840, Note_off_c, 1, 54, 0
2, 90840, Note_on_c, 1, 61, 127
2, 90840, Note_off_c, 1, 66, 0
2, 90840, Note_off_c, 1, 70, 0
2, 90840, Note_off_c, 1, 74, 0
2, 90840, Note_on_c, 1, 76, 127
2, 90840, Note_on_c, 1, 82, 127
2, 90840, Note_on_c, 1, 88, 127
2, 90880, Note_off_c, 1, 49, 0
2, 90880, Note_on_c, 1, 57, 127
2, 90880, Note_off_c, 1, 61, 0
2, 90880, Note_off_c, 1, 76, 0
2, 90880, Note_on_c, 1, 81, 127
2, 90880, Note_off_c, 1, 82, 0
2, 90880, Note_on_c, 1, 84, 127
2, 90920, Note_on_c, 1, 56, 127
2, 90920, Note_off_c, 1, 57, 0
2, 90920, Note_on_c, 1, 60, 127
2, 90920, Note_on_c, 1, 61, 127
2, 90920, Note_off_c, 1, 81, 0
2, 90920, Note_off_c, 1, 84, 0
2, 90920, Note_off_c, 1, 88, 0
2, 90960, Note_on_c, 1, 47, 127
2, 90960, Note_off_c, 1, 56, 0
2, 90960, Note_off_c, 1, 60, 0
2, 90960, Note_off_c, 1, 61, 0
2, 90960, Note_on_c, 1, 80, 127
2, 90960, Note_on_c, 1, 83, 127
2, 90960, Note_on_c, 1, 87, 127
2, 90960, Note_on_c, 1, 92, 127
2, 91000, Note_off_c, 1, 47, 0
2, 91000, Note_on_c, 1, 51, 127
2, 91000, Note_off_c, 1, 80, 0
2, 91000, Note_on_c, 1, 82, 127
2, 91000, Note_off_c, 1, 83, 0
2, 91000, Note_on_c, 1, 85, 127
2, 91000, Note_off_c, 1, 87, 0
2, 91000, Note_on_c, 1, 91, 127
2, 91000, Note_off_c, 1, 92, 0
2, 91040, Note_off_c, 1, 51, 0
2, 91040, Note_off_c, 1, 82, 0
2, 91040, Note_off_c, 1, 85, 0
2, 91040, Note_off_c, 1, 91, 0
2, 91120, Note_on_c, 1, 36, 127
2, 91120, Note_on_c, 1, 43, 127
2, 91120, Note_on_c, 1, 48, 127
2, 91120, Note_on_c, 1, 67, 127
2, 91120, Note_on_c, 1, 79, 127
2, 91400, Note_off_c, 1, 36, 0
2, 91400, Note_off_c, 1, 43, 0
2, 91400, Note_off_c, 1, 48, 0
2, 91400, Note_off_c, 1, 67, 0
2, 91400, Note_off_c, 1, 79, 0
2, 91480, Note_on_c, 1, 36, 127
2, 91480, Note_on_c, 1, 43, 127
2, 91480, Note_on_c, 1, 48, 127
2, 91480, Note_on_c, 1, 67, 127
2, 91480, Note_on_c, 1, 79, 127
2, 91640, Note_off_c, 1, 36, 0
2, 91640, Note_off_c, 1, 43, 0
2, 91640, Note_off_c, 1, 48, 0
2, 91640, Note_off_c, 1, 67, 0
2, 91640, Note_off_c, 1, 79, 0
2, 91680, Note_on_c, 1, 36, 127
2, 91680, Note_on_c, 1, 43, 127
2, 91680, Note_on_c, 1, 48, 127
2, 91680, Note_on_c, 1, 67, 127
2, 91680, Note_on_c, 1, 79, 127
2, 91800, Note_off_c, 1, 36, 0
2, 91800, Note_off_c, 1, 43, 0
2, 91800, Note_off_c, 1, 48, 0
2, 91800, Note_off_c, 1, 67, 0
2, 91800, Note_off_c, 1, 79, 0
2, 91880, Note_on_c, 1, 51, 127
2, 91880, Note_on_c, 1, 63, 127
2, 91880, Note_on_c, 1, 79, 127
2, 91880, Note_on_c, 1, 83, 127
2, 92160, Note_off_c, 1, 51, 0
2, 92160, Note_off_c, 1, 63, 0
2, 92160, Note_off_c, 1, 79, 0
2, 92160, Note_off_c, 1, 83, 0
2, 92200, Note_on_c, 1, 45, 127
2, 92200, Note_on_c, 1, 52, 127
2, 92200, Note_on_c, 1, 83, 127
2, 92200, Note_on_c, 1, 91, 127
2, 92200, Note_on_c, 1, 95, 127
2, 92240, Note_on_c, 1, 42, 127
2, 92240, Note_off_c, 1, 45, 0
2, 92240, Note_off_c, 1, 52, 0
2, 92240, Note_on_c, 1, 58, 127
2, 92240, Note_on_c, 1, 64, 127
2, 92240, Note_on_c, 1, 73, 127
2, 92240, Note_off_c, 1, 83, 0
2, 92240, Note_off_c, 1, 91, 0
2, 92240, Note_off_c, 1, 95, 0
2, 92280, Note_off_c, 1, 42, 0
2, 92280, Note_off_c, 1, 58, 0
2, 92280, Note_off_c, 1, 64, 0
2, 92280, Note_on_c, 1, 70, 127
2, 92280, Note_on_c, 1, 87, 127
2, 92280, Note_on_c, 1, 94, 127
2, 92320, Note_on_c, 1, 52, 127
2, 92320, Note_on_c, 1, 64, 127
2, 92320, Note_off_c, 1, 70, 0
2, 92320, Note_on_c, 1, 79, 127
2, 92320, Note_on_c, 1, 81, 127
2, 92320, Note_on_c, 1, 85, 127
2, 92320, Note_off_c, 1, 87, 0
2, 92320, Note_off_c, 1, 94, 0
2, 92360, Note_off_c, 1, 52, 0
2, 92360, Note_off_c, 1, 64, 0
2, 92360, Note_on_c, 1, 69, 127
2, 92360, Note_off_c, 1, 73, 0
2, 92360, Note_on_c, 1, 75, 127
2, 92360, Note_on_c, 1, 78, 127
2, 92360, Note_off_c, 1, 79, 0
2, 92360, Note_off_c, 1, 81, 0
2, 92360, Note_off_c, 1, 85, 0
2, 92360, Note_on_c, 1, 87, 127
2, 92360, Note_on_c, 1, 90, 127
2, 92400, Note_on_c, 1, 41, 127
2, 92400, Note_off_c, 1, 69, 0
2, 92400, Note_off_c, 1, 75, 0
2, 92400, Note_off_c, 1, 78, 0
2, 92400, Note_on_c, 1, 84, 127
2, 92400, Note_off_c, 1, 87, 0
2, 92400, Note_on_c, 1, 89, 127
2, 92400, Note_off_c, 1, 90, 0
2, 92400, Note_on_c, 1, 92, 127
2, 92400, Note_on_c, 1, 96, 127
2, 92440, Note_off_c, 1, 41, 0
2, 92440, Note_on_c, 1, 62, 127
2, 92440, Note_on_c, 1, 68, 127
2, 92440, Note_on_c, 1, 72, 127
2, 92440, Note_on_c, 1, 74, 127
2, 92440, Note_off_c, 1, 84, 0
2, 92440, Note_on_c, 1, 86, 127
2, 92440, Note_off_c, 1, 89, 0
2, 92440, Note_on_c, 1, 98, 127
2, 92480, Note_off_c, 1, 62, 0
2, 92480, Note_off_c, 1, 68, 0
2, 92480, Note_off_c, 1, 72, 0
2, 92480, Note_off_c, 1, 74, 0
2, 92480, Note_off_c, 1, 86, 0
2, 92480, Note_off_c, 1, 92, 0
2, 92480, Note_off_c, 1, 96, 0
2, 92480, Note_off_c, 1, 98, 0
2, 92520, Note_on_c, 1, 81, 127
2, 92560, Note_on_c, 1, 66, 127
2, 92560, Note_on_c, 1, 70, 127
2, 92560, Note_on_c, 1, 77, 127
2, 92560, Note_off_c, 1, 81, 0
2, 92560, Note_on_c, 1, 87, 127
2, 92560, Note_on_c, 1, 94, 127
2, 92560, Note_on_c, 1, 99, 127
2, 92720, Note_on_c, 1, 65, 127
2, 92720, Note_off_c, 1, 66, 0
2, 92720, Note_on_c, 1, 69, 127
2, 92720, Note_off_c, 1, 70, 0
2, 92720, Note_on_c, 1, 93, 127
2, 92720, Note_off_c, 1, 94, 0
2, 92760, Note_on_c, 1, 50, 127
2, 92760, Note_on_c, 1, 59, 127
2, 92760, Note_on_c, 1, 62, 127
2, 92760, Note_off_c, 1, 65, 0
2, 92760, Note_off_c, 1, 69, 0
2, 92760, Note_on_c, 1, 76, 127
2, 92760, Note_off_c, 1, 77, 0
2, 92760, Note_on_c, 1, 80, 127
2, 92760, Note_off_c, 1, 87, 0
2, 92760, Note_off_c, 1, 93, 0
2, 92760, Note_off_c, 1, 99, 0
2, 92840, Note_off_c, 1, 50, 0
2, 92840, Note_off_c, 1, 59, 0
2, 92840, Note_off_c, 1, 62, 0
2, 92840, Note_off_c, 1, 76, 0
2, 92840, Note_off_c, 1, 80, 0
2, 92920, Note_on_c, 1, 55, 127
2, 92920, Note_on_c, 1, 59, 127
2, 92920, Note_on_c, 1, 67, 127
2, 92920, Note_on_c, 1, 72, 127
2, 92920, Note_on_c, 1, 76, 127
2, 93000, Note_off_c, 1, 67, 0
2, 93000, Note_off_c, 1, 72, 0
2, 93000, Note_off_c, 1, 76, 0
2, 93040, Note_on_c, 1, 50, 127
2, 93040, Note_off_c, 1, 55, 0
2, 93040, Note_on_c, 1, 69, 127
2, 93080, Note_on_c, 1, 38, 127
2, 93080, Note_off_c, 1, 59, 0
2, 93080, Note_on_c, 1, 67, 127
2, 93080, Note_off_c, 1, 69, 0
2, 93080, Note_on_c, 1, 70, 127
2, 93080, Note_on_c, 1, 76, 127
2, 93120, Note_off_c, 1, 38, 0
2, 93120, Note_on_c, 1, 57, 127
2, 93120, Note_off_c, 1, 70, 0
2, 93120, Note_on_c, 1, 74, 127
2, 93120, Note_off_c, 1, 76, 0
2, 93160, Note_off_c, 1, 50, 0
2, 93160, Note_on_c, 1, 55, 127
2, 93160, Note_off_c, 1, 57, 0
2, 93160, Note_off_c, 1, 67, 0
2, 93160, Note_on_c, 1, 69, 127
2, 93160, Note_off_c, 1, 74, 0
2, 93200, Note_on_c, 1, 36, 127
2, 93200, Note_on_c, 1, 43, 127
2, 93200, Note_on_c, 1, 50, 127
2, 93200, Note_on_c, 1, 52, 127
2, 93200, Note_on_c, 1, 59, 127
2, 93200, Note_on_c, 1, 60, 127
2, 93200, Note_on_c, 1, 65, 127
2, 93200, Note_on_c, 1, 67, 127
2, 93200, Note_off_c, 1, 69, 0
2, 93240, Note_off_c, 1, 36, 0
2, 93240, Note_off_c, 1, 43, 0
2, 93240, Note_off_c, 1, 50, 0
2, 93240, Note_off_c, 1, 52, 0
2, 93240, Note_off_c, 1, 55, 0
2, 93240, Note_on_c, 1, 57, 127
2, 93240, Note_off_c, 1, 59, 0
2, 93240, Note_off_c, 1, 60, 0
2, 93240, Note_off_c, 1, 65, 0
2, 93240, Note_off_c, 1, 67, 0
2, 93240, Note_on_c, 1, 69, 127
2, 93280, Note_on_c, 1, 38, 127
2, 93280, Note_on_c, 1, 45, 127
2, 93280, Note_off_c, 1, 57, 0
2, 93280, Note_off_c, 1, 69, 0
2, 93280, Note_on_c, 1, 74, 127
2, 93280, Note_on_c, 1, 81, 127
2, 93320, Note_off_c, 1, 38, 0
2, 93320, Note_on_c, 1, 50, 127
2, 93320, Note_on_c, 1, 55, 127
2, 93320, Note_on_c, 1, 65, 127
2, 93320, Note_off_c, 1, 74, 0
2, 93320, Note_on_c, 1, 77, 127
2, 93320, Note_off_c, 1, 81, 0
2, 93360, Note_on_c, 1, 38, 127
2, 93360, Note_off_c, 1, 50, 0
2, 93360, Note_off_c, 1, 55, 0
2, 93360, Note_off_c, 1, 65, 0
2, 93360, Note_on_c, 1, 74, 127
2, 93360, Note_off_c, 1, 77, 0
2, 93360, Note_on_c, 1, 81, 127
2, 93440, Note_on_c, 1, 26, 127
2, 93440, Note_on_c, 1, 33, 127
2, 93440, Note_off_c, 1, 45, 0
2, 93440, Note_on_c, 1, 50, 127
2, 93440, Note_on_c, 1, 54, 127
2, 93440, Note_on_c, 1, 57, 127
2, 93440, Note_on_c, 1, 62, 127
2, 93440, Note_off_c, 1, 74, 0
2, 93440, Note_off_c, 1, 81, 0
2, 93480, Note_off_c, 1, 26, 0
2, 93480, Note_off_c, 1, 33, 0
2, 93480, Note_off_c, 1, 38, 0
2, 93480, Note_off_c, 1, 50, 0
2, 93480, Note_off_c, 1, 54, 0
2, 93480, Note_off_c, 1, 57, 0
2, 93480, Note_off_c, 1, 62, 0
2, 93480, Note_on_c, 1, 94, 127
2, 93480, Note_on_c, 1, 97, 127
2, 93480, Note_on_c, 1, 100, 127
2, 93520, Note_off_c, 1, 94, 0
2, 93520, Note_off_c, 1, 97, 0
2, 93520, Note_off_c, 1, 100, 0
2, 93560, Note_on_c, 1, 48, 127
2, 93560, Note_on_c, 1, 52, 127
2, 93560, Note_on_c, 1, 59, 127
2, 93560, Note_on_c, 1, 76, 127
2, 93560, Note_on_c, 1, 80, 127
2, 93600, Note_off_c, 1, 48, 0
2, 93600, Note_off_c, 1, 52, 0
2, 93600, Note_off_c, 1, 59, 0
2, 93600, Note_off_c, 1, 76, 0
2, 93600, Note_off_c, 1, 80, 0
2, 93640, Note_on_c, 1, 60, 127
2, 93640, Note_on_c, 1, 71, 127
2, 93640, Note_on_c, 1, 74, 127
2, 93640, Note_on_c, 1, 79, 127
2, 93800, Note_off_c, 1, 60, 0
2, 93800, Note_off_c, 1, 71, 0
2, 93800, Note_off_c, 1, 74, 0
2, 93800, Note_off_c, 1, 79, 0
2, 93840, Note_on_c, 1, 60, 127
2, 93840, Note_on_c, 1, 71, 127
2, 93840, Note_on_c, 1, 74, 127
2, 93840, Note_on_c, 1, 79, 127
2, 93960, Note_off_c, 1, 60, 0
2, 93960, Note_off_c, 1, 71, 0
2, 93960, Note_off_c, 1, 74, 0
2, 93960, Note_off_c, 1, 79, 0
2, 94040, Note_on_c, 1, 60, 127
2, 94040, Note_on_c, 1, 69, 127
2, 94040, Note_on_c, 1, 72, 127
2, 94040, Note_on_c, 1, 77, 127
2, 94400, Note_on_c, 1, 57, 127
2, 94400, Note_off_c, 1, 60, 0
2, 94400, Note_on_c, 1, 64, 127
2, 94400, Note_off_c, 1, 77, 0
2, 94400, Note_on_c, 1, 78, 127
2, 94440, Note_on_c, 1, 51, 127
2, 94440, Note_on_c, 1, 56, 127
2, 94440, Note_off_c, 1, 57, 0
2, 94440, Note_on_c, 1, 60, 127
2, 94440, Note_on_c, 1, 63, 127
2, 94440, Note_off_c, 1, 64, 0
2, 94440, Note_off_c, 1, 69, 0
2, 94440, Note_off_c, 1, 72, 0
2, 94440, Note_off_c, 1, 78, 0
2, 94440, Note_on_c, 1, 80, 127
2, 94440, Note_on_c, 1, 84, 127
2, 94440, Note_on_c, 1, 87, 127
2, 94440, Note_on_c, 1, 92, 127
2, 94680, Note_off_c, 1, 51, 0
2, 94680, Note_off_c, 1, 56, 0
2, 94680, Note_off_c, 1, 60, 0
2, 94680, Note_off_c, 1, 63, 0
2, 94680, Note_on_c, 1, 76, 127
2, 94680, Note_off_c, 1, 80, 0
2, 94680, Note_off_c, 1, 84, 0
2, 94680, Note_off_c, 1, 87, 0
2, 94680, Note_on_c, 1, 88, 127
2, 94680, Note_off_c, 1, 92, 0
2, 94720, Note_off_c, 1, 76, 0
2, 94720, Note_off_c, 1, 88, 0
2, 94760, Note_on_c, 1, 49, 127
2, 94760, Note_on_c, 1, 61, 127
2, 94760, Note_on_c, 1, 72, 127
2, 94760, Note_on_c, 1, 73, 127
2, 94800, Note_off_c, 1, 49, 0
2, 94800, Note_on_c, 1, 51, 127
2, 94800, Note_on_c, 1, 58, 127
2, 94800, Note_on_c, 1, 63, 127
2, 94800, Note_off_c, 1, 72, 0
2, 94800, Note_off_c, 1, 73, 0
2, 94800, Note_on_c, 1, 75, 127
2, 94800, Note_on_c, 1, 79, 127
2, 94840, Note_off_c, 1, 51, 0
2, 94840, Note_on_c, 1, 57, 127
2, 94840, Note_off_c, 1, 58, 0
2, 94840, Note_on_c, 1, 60, 127
2, 94840, Note_off_c, 1, 61, 0
2, 94840, Note_off_c, 1, 75, 0
2, 94840, Note_off_c, 1, 79, 0
2, 94840, Note_on_c, 1, 88, 127
2, 94880, Note_on_c, 1, 51, 127
2, 94880, Note_off_c, 1, 57, 0
2, 94880, Note_on_c, 1, 58, 127
2, 94880, Note_off_c, 1, 60, 0
2, 94880, Note_on_c, 1, 61, 127
2, 94880, Note_on_c, 1, 75, 127
2, 94880, Note_on_c, 1, 79, 127
2, 94880, Note_off_c, 1, 88, 0
2, 95040, Note_off_c, 1, 63, 0
2, 95080, Note_off_c, 1, 51, 0
2, 95080, Note_off_c, 1, 58, 0
2, 95080, Note_off_c, 1, 61, 0
2, 95080, Note_off_c, 1, 75, 0
2, 95080, Note_off_c, 1, 79, 0
2, 95120, Note_on_c, 1, 45, 127
2, 95120, Note_on_c, 1, 57, 127
2, 95120, Note_on_c, 1, 61, 127
2, 95120, Note_on_c, 1, 66, 127
2, 95120, Note_on_c, 1, 76, 127
2, 95360, Note_off_c, 1, 45, 0
2, 95360, Note_off_c, 1, 76, 0
2, 95400, Note_off_c, 1, 57, 0
2, 95400, Note_off_c, 1, 61, 0
2, 95400, Note_off_c, 1, 66, 0
2, 95400, Note_on_c, 1, 78, 127
2, 95440, Note_off_c, 1, 78, 0
2, 95480, Note_on_c, 1, 55, 127
2, 95480, Note_on_c, 1, 59, 127
2, 95480, Note_on_c, 1, 62, 127
2, 95480, Note_on_c, 1, 79, 127
2, 95760, Note_off_c, 1, 55, 0
2, 95760, Note_off_c, 1, 59, 0
2, 95760, Note_off_c, 1, 62, 0
2, 95760, Note_off_c, 1, 79, 0
2, 95840, Note_on_c, 1, 59, 127
2, 95840, Note_on_c, 1, 62, 127
2, 95840, Note_on_c, 1, 67, 127
2, 95840, Note_on_c, 1, 71, 127
2, 95840, Note_on_c, 1, 78, 127
2, 95960, Note_off_c, 1, 59, 0
2, 95960, Note_off_c, 1, 62, 0
2, 95960, Note_off_c, 1, 67, 0
2, 95960, Note_off_c, 1, 71, 0
2, 95960, Note_off_c, 1, 78, 0
2, 96000, Note_on_c, 1, 59, 127
2, 96000, Note_on_c, 1, 62, 127
2, 96000, Note_on_c, 1, 67, 127
2, 96000, Note_on_c, 1, 71, 127
2, 96000, Note_on_c, 1, 78, 127
2, 96080, Note_off_c, 1, 62, 0
2, 96080, Note_off_c, 1, 78, 0
2, 96120, Note_on_c, 1, 62, 127
2, 96120, Note_on_c, 1, 78, 127
2, 96160, Note_off_c, 1, 59, 0
2, 96160, Note_off_c, 1, 62, 0
2, 96160, Note_off_c, 1, 67, 0
2, 96160, Note_off_c, 1, 71, 0
2, 96160, Note_off_c, 1, 78, 0
2, 96200, Note_on_c, 1, 62, 127
2, 96200, Note_on_c, 1, 64, 127
2, 96200, Note_on_c, 1, 68, 127
2, 96200, Note_on_c, 1, 75, 127
2, 96240, Note_off_c, 1, 62, 0
2, 96240, Note_off_c, 1, 68, 0
2, 96240, Note_on_c, 1, 73, 127
2, 96240, Note_off_c, 1, 75, 0
2, 96240, Note_on_c, 1, 79, 127
2, 96240, Note_on_c, 1, 81, 127
2, 96240, Note_on_c, 1, 85, 127
2, 96280, Note_on_c, 1, 62, 127
2, 96280, Note_on_c, 1, 68, 127
2, 96280, Note_off_c, 1, 73, 0
2, 96280, Note_on_c, 1, 75, 127
2, 96280, Note_off_c, 1, 79, 0
2, 96280, Note_off_c, 1, 81, 0
2, 96280, Note_off_c, 1, 85, 0
2, 96360, Note_on_c, 1, 48, 127
2, 96360, Note_on_c, 1, 55, 127
2, 96360, Note_on_c, 1, 60, 127
2, 96360, Note_off_c, 1, 62, 0
2, 96360, Note_off_c, 1, 68, 0
2, 96360, Note_on_c, 1, 70, 127
2, 96360, Note_off_c, 1, 75, 0
2, 96360, Note_on_c, 1, 76, 127
2, 96400, Note_off_c, 1, 48, 0
2, 96400, Note_off_c, 1, 60, 0
2, 96400, Note_off_c, 1, 64, 0
2, 96400, Note_off_c, 1, 70, 0
2, 96400, Note_on_c, 1, 91, 127
2, 96440, Note_off_c, 1, 55, 0
2, 96440, Note_on_c, 1, 66, 127
2, 96440, Note_on_c, 1, 73, 127
2, 96440, Note_off_c, 1, 76, 0
2, 96440, Note_on_c, 1, 78, 127
2, 96440, Note_on_c, 1, 82, 127
2, 96440, Note_on_c, 1, 85, 127
2, 96440, Note_on_c, 1, 90, 127
2, 96440, Note_off_c, 1, 91, 0
2, 96440, Note_on_c, 1, 94, 127
2, 96480, Note_off_c, 1, 66, 0
2, 96480, Note_off_c, 1, 73, 0
2, 96480, Note_on_c, 1, 74, 127
2, 96480, Note_off_c, 1, 78, 0
2, 96480, Note_off_c, 1, 82, 0
2, 96480, Note_off_c, 1, 85, 0
2, 96480, Note_off_c, 1, 90, 0
2, 96480, Note_off_c, 1, 94, 0
2, 96520, Note_off_c, 1, 74, 0
2, 96560, Note_on_c, 1, 55, 127
2, 96560, Note_on_c, 1, 62, 127
2, 96560, Note_on_c, 1, 65, 127
2, 96560, Note_on_c, 1, 79, 127
2, 96840, Note_off_c, 1, 62, 0
2, 96840, Note_off_c, 1, 65, 0
2, 96840, Note_on_c, 1, 91, 127
2, 96880, Note_on_c, 1, 59, 127
2, 96880, Note_off_c, 1, 91, 0
2, 96920, Note_on_c, 1, 62, 127
2, 97200, Note_off_c, 1, 79, 0
2, 97240, Note_off_c, 1, 55, 0
2, 97240, Note_off_c, 1, 59, 0
2, 97240, Note_off_c, 1, 62, 0
2, 97240, Note_on_c, 1, 79, 127
2, 97280, Note_on_c, 1, 49, 127
2, 97280, Note_on_c, 1, 53, 127
2, 97280, Note_on_c, 1, 58, 127
2, 97280, Note_on_c, 1, 61, 127
2, 97280, Note_on_c, 1, 65, 127
2, 97280, Note_on_c, 1, 67, 127
2, 97280, Note_off_c, 1, 79, 0
2, 97320, Note_on_c, 1, 37, 127
2, 97320, Note_on_c, 1, 44, 127
2, 97320, Note_off_c, 1, 49, 0
2, 97320, Note_off_c, 1, 53, 0
2, 97320, Note_on_c, 1, 54, 127
2, 97320, Note_on_c, 1, 56, 127
2, 97320, Note_off_c, 1, 58, 0
2, 97320, Note_on_c, 1, 60, 127
2, 97320, Note_off_c, 1, 61, 0
2, 97320, Note_on_c, 1, 63, 127
2, 97320, Note_off_c, 1, 65, 0
2, 97320, Note_off_c, 1, 67, 0
2, 97360, Note_off_c, 1, 37, 0
2, 97360, Note_on_c, 1, 42, 127
2, 97360, Note_off_c, 1, 44, 0
2, 97360, Note_on_c, 1, 53, 127
2, 97360, Note_off_c, 1, 54, 0
2, 97360, Note_off_c, 1, 56, 0
2, 97360, Note_off_c, 1, 60, 0
2, 97360, Note_off_c, 1, 63, 0
2, 97360, Note_on_c, 1, 65, 127
2, 97360, Note_on_c, 1, 70, 127
2, 97400, Note_on_c, 1, 37, 127
2, 97400, Note_off_c, 1, 42, 0
2, 97400, Note_on_c, 1, 44, 127
2, 97400, Note_off_c, 1, 53, 0
2, 97400, Note_on_c, 1, 54, 127
2, 97400, Note_on_c, 1, 56, 127
2, 97400, Note_on_c, 1, 60, 127
2, 97400, Note_on_c, 1, 63, 127
2, 97400, Note_off_c, 1, 65, 0
2, 97400, Note_off_c, 1, 70, 0
2, 97440, Note_off_c, 1, 37, 0
2, 97440, Note_off_c, 1, 44, 0
2, 97440, Note_off_c, 1, 54, 0
2, 97440, Note_off_c, 1, 56, 0
2, 97440, Note_on_c, 1, 59, 127
2, 97440, Note_off_c, 1, 60, 0
2, 97440, Note_off_c, 1, 63, 0
2, 97440, Note_on_c, 1, 64, 127
2, 97440, Note_on_c, 1, 74, 127
2, 97440, Note_on_c, 1, 86, 127
2, 97480, Note_on_c, 1, 37, 127
2, 97480, Note_on_c, 1, 44, 127
2, 97480, Note_on_c, 1, 54, 127
2, 97480, Note_on_c, 1, 56, 127
2, 97480, Note_off_c, 1, 59, 0
2, 97480, Note_on_c, 1, 60, 127
2, 97480, Note_on_c, 1, 63, 127
2, 97480, Note_off_c, 1, 64, 0
2, 97480, Note_off_c, 1, 74, 0
2, 97480, Note_off_c, 1, 86, 0
2, 97520, Note_on_c, 1, 29, 127
2, 97520, Note_off_c, 1, 37, 0
2, 97520, Note_off_c, 1, 44, 0
2, 97520, Note_on_c, 1, 49, 127
2, 97520, Note_off_c, 1, 54, 0
2, 97520, Note_off_c, 1, 56, 0
2, 97520, Note_off_c, 1, 60, 0
2, 97520, Note_off_c, 1, 63, 0
2, 97560, Note_off_c, 1, 29, 0
2, 97560, Note_off_c, 1, 49, 0
2, 97560, Note_on_c, 1, 54, 127
2, 97560, Note_on_c, 1, 78, 127
2, 97560, Note_on_c, 1, 90, 127
2, 97560, Note_on_c, 1, 93, 127
2, 97600, Note_off_c, 1, 54, 0
2, 97600, Note_off_c, 1, 78, 0
2, 97600, Note_off_c, 1, 90, 0
2, 97600, Note_off_c, 1, 93, 0
2, 97640, Note_on_c, 1, 41, 127
2, 97640, Note_on_c, 1, 46, 127
2, 97640, Note_on_c, 1, 53, 127
2, 97640, Note_on_c, 1, 74, 127
2, 97640, Note_on_c, 1, 80, 127
2, 97640, Note_on_c, 1, 82, 127
2, 97640, Note_on_c, 1, 86, 127
2, 97960, Note_off_c, 1, 41, 0
2, 97960, Note_off_c, 1, 46, 0
2, 97960, Note_off_c, 1, 53, 0
2, 97960, Note_off_c, 1, 74, 0
2, 97960, Note_off_c, 1, 80, 0
2, 97960, Note_off_c, 1, 82, 0
2, 97960, Note_off_c, 1, 86, 0
2, 98000, Note_on_c, 1, 79, 127
2, 98000, Note_on_c, 1, 88, 127
2, 98000, Note_on_c, 1, 90, 127
2, 98000, Note_on_c, 1, 95, 127
2, 98040, Note_off_c, 1, 79, 0
2, 98040, Note_off_c, 1, 88, 0
2, 98040, Note_off_c, 1, 90, 0
2, 98040, Note_off_c, 1, 95, 0
2, 98080, Note_on_c, 1, 53, 127
2, 98080, Note_on_c, 1, 57, 127
2, 98080, Note_on_c, 1, 61, 127
2, 98080, Note_on_c, 1, 93, 127
2, 98080, Note_on_c, 1, 97, 127
2, 98120, Note_on_c, 1, 41, 127
2, 98120, Note_on_c, 1, 48, 127
2, 98120, Note_off_c, 1, 53, 0
2, 98120, Note_on_c, 1, 55, 127
2, 98120, Note_off_c, 1, 57, 0
2, 98120, Note_off_c, 1, 61, 0
2, 98120, Note_on_c, 1, 76, 127
2, 98120, Note_on_c, 1, 82, 127
2, 98120, Note_on_c, 1, 88, 127
2, 98120, Note_off_c, 1, 93, 0
2, 98120, Note_off_c, 1, 97, 0
2, 98160, Note_off_c, 1, 41, 0
2, 98160, Note_off_c, 1, 48, 0
2, 98160, Note_off_c, 1, 55, 0
2, 98160, Note_off_c, 1, 76, 0
2, 98160, Note_off_c, 1, 82, 0
2, 98160, Note_on_c, 1, 84, 127
2, 98160, Note_off_c, 1, 88, 0
2, 98160, Note_on_c, 1, 89, 127
2, 98160, Note_on_c, 1, 92, 127
2, 98160, Note_on_c, 1, 96, 127
2, 98200, Note_on_c, 1, 40, 127
2, 98200, Note_on_c, 1, 73, 127
2, 98200, Note_on_c, 1, 76, 127
2, 98200, Note_on_c, 1, 79, 127
2, 98200, Note_on_c, 1, 82, 127
2, 98200, Note_off_c, 1, 84, 0
2, 98200, Note_on_c, 1, 85, 127
2, 98200, Note_off_c, 1, 89, 0
2, 98200, Note_off_c, 1, 92, 0
2, 98200, Note_off_c, 1, 96, 0
2, 98320, Note_off_c, 1, 40, 0
2, 98320, Note_on_c, 1, 41, 127
2, 98320, Note_on_c, 1, 53, 127
2, 98320, Note_off_c, 1, 73, 0
2, 98320, Note_on_c, 1, 74, 127
2, 98320, Note_off_c, 1, 76, 0
2, 98320, Note_off_c, 1, 79, 0
2, 98320, Note_off_c, 1, 82, 0
2, 98320, Note_off_c, 1, 85, 0
2, 98320, Note_on_c, 1, 86, 127
2, 98360, Note_off_c, 1, 41, 0
2, 98360, Note_off_c, 1, 53, 0
2, 98360, Note_off_c, 1, 74, 0
2, 98360, Note_off_c, 1, 86, 0
2, 98400, Note_on_c, 1, 40, 127
2, 98400, Note_on_c, 1, 44, 127
2, 98400, Note_on_c, 1, 47, 127
2, 98400, Note_on_c, 1, 50, 127
2, 98400, Note_on_c, 1, 80, 127
2, 98400, Note_on_c, 1, 83, 127
2, 98440, Note_off_c, 1, 40, 0
2, 98440, Note_off_c, 1, 44, 0
2, 98440, Note_off_c, 1, 47, 0
2, 98440, Note_off_c, 1, 50, 0
2, 98440, Note_on_c, 1, 53, 127
2, 98440, Note_on_c, 1, 65, 127
2, 98440, Note_off_c, 1, 80, 0
2, 98440, Note_on_c, 1, 81, 127
2, 98440, Note_off_c, 1, 83, 0
2, 98440, Note_on_c, 1, 86, 127
2, 98440, Note_on_c, 1, 89, 127
2, 98480, Note_on_c, 1, 43, 127
2, 98480, Note_on_c, 1, 51, 127
2, 98480, Note_off_c, 1, 53, 0
2, 98480, Note_on_c, 1, 55, 127
2, 98480, Note_off_c, 1, 65, 0
2, 98480, Note_on_c, 1, 72, 127
2, 98480, Note_off_c, 1, 81, 0
2, 98480, Note_off_c, 1, 86, 0
2, 98480, Note_off_c, 1, 89, 0
2, 98520, Note_off_c, 1, 43, 0
2, 98520, Note_off_c, 1, 51, 0
2, 98520, Note_off_c, 1, 55, 0
2, 98520, Note_on_c, 1, 65, 127
2, 98520, Note_on_c, 1, 69, 127
2, 98520, Note_off_c, 1, 72, 0
2, 98520, Note_on_c, 1, 89, 127
2, 98520, Note_on_c, 1, 93, 127
2, 98560, Note_on_c, 1, 55, 127
2, 98560, Note_on_c, 1, 59, 127
2, 98560, Note_off_c, 1, 65, 0
2, 98560, Note_on_c, 1, 67, 127
2, 98560, Note_off_c, 1, 69, 0
2, 98560, Note_on_c, 1, 71, 127
2, 98560, Note_on_c, 1, 73, 127
2, 98560, Note_off_c, 1, 89, 0
2, 98560, Note_off_c, 1, 93, 0
2, 98720, Note_off_c, 1, 55, 0
2, 98720, Note_off_c, 1, 59, 0
2, 98720, Note_off_c, 1, 67, 0
2, 98720, Note_off_c, 1, 71, 0
2, 98720, Note_off_c, 1, 73, 0
2, 98760, Note_on_c, 1, 60, 127
2, 98760, Note_on_c, 1, 64, 127
2, 98760, Note_on_c, 1, 67, 127
2, 99040, Note_off_c, 1, 60, 0
2, 99040, Note_off_c, 1, 64, 0
2, 99040, Note_off_c, 1, 67, 0
2, 99080, Note_on_c, 1, 83, 127
2, 99080, Note_on_c, 1, 86, 127
2, 99360, Note_off_c, 1, 83, 0
2, 99360, Note_off_c, 1, 86, 0
2, 99440, Note_on_c, 1, 64, 127
2, 99440, Note_on_c, 1, 72, 127
2, 99440, Note_on_c, 1, 76, 127
2, 99800, Note_on_c, 1, 60, 127
2, 99800, Note_on_c, 1, 67, 127
2, 99800, Note_on_c, 1, 70, 127
2, 99800, Note_off_c, 1, 72, 0
2, 99800, Note_on_c, 1, 73, 127
2, 99800, Note_off_c, 1, 76, 0
2, 99960, Note_off_c, 1, 70, 0
2, 99960, Note_off_c, 1, 73, 0
2, 100000, Note_on_c, 1, 72, 127
2, 100120, Note_off_c, 1, 60, 0
2, 100120, Note_off_c, 1, 64, 0
2, 100120, Note_off_c, 1, 67, 0
2, 100120, Note_off_c, 1, 72, 0
2, 100160, Note_on_c, 1, 47, 127
2, 100160, Note_on_c, 1, 52, 127
2, 100160, Note_on_c, 1, 55, 127
2, 100160, Note_on_c, 1, 59, 127
2, 100160, Note_on_c, 1, 64, 127
2, 100280, Note_off_c, 1, 47, 0
2, 100280, Note_off_c, 1, 52, 0
2, 100280, Note_off_c, 1, 55, 0
2, 100280, Note_off_c, 1, 59, 0
2, 100280, Note_off_c, 1, 64, 0
2, 100320, Note_on_c, 1, 47, 127
2, 100320, Note_on_c, 1, 52, 127
2, 100320, Note_on_c, 1, 55, 127
2, 100320, Note_on_c, 1, 59, 127
2, 100320, Note_on_c, 1, 64, 127
2, 100480, Note_on_c, 1, 41, 127
2, 100480, Note_off_c, 1, 47, 0
2, 100480, Note_on_c, 1, 50, 127
2, 100480, Note_off_c, 1, 52, 0
2, 100480, Note_off_c, 1, 55, 0
2, 100480, Note_off_c, 1, 59, 0
2, 100480, Note_off_c, 1, 64, 0
2, 100520, Note_off_c, 1, 41, 0
2, 100520, Note_off_c, 1, 50, 0
2, 100560, Note_on_c, 1, 43, 127
2, 100560, Note_on_c, 1, 50, 127
2, 100560, Note_on_c, 1, 53, 127
2, 100560, Note_on_c, 1, 55, 127
2, 100560, Note_on_c, 1, 77, 127
2, 100600, Note_on_c, 1, 48, 127
2, 100600, Note_off_c, 1, 50, 0
2, 100600, Note_off_c, 1, 53, 0
2, 100600, Note_off_c, 1, 55, 0
2, 100600, Note_on_c, 1, 57, 127
2, 100600, Note_on_c, 1, 75, 127
2, 100600, Note_off_c, 1, 77, 0
2, 100680, Note_on_c, 1, 31, 127
2, 100680, Note_off_c, 1, 43, 0
2, 100680, Note_off_c, 1, 48, 0
2, 100680, Note_off_c, 1, 57, 0
2, 100680, Note_on_c, 1, 64, 127
2, 100680, Note_off_c, 1, 75, 0
2, 100720, Note_off_c, 1, 31, 0
2, 100720, Note_on_c, 1, 40, 127
2, 100720, Note_on_c, 1, 45, 127
2, 100720, Note_on_c, 1, 52, 127
2, 100720, Note_on_c, 1, 61, 127
2, 100720, Note_on_c, 1, 68, 127
2, 100800, Note_off_c, 1, 40, 0
2, 100800, Note_off_c, 1, 45, 0
2, 100800, Note_off_c, 1, 52, 0
2, 100800, Note_on_c, 1, 53, 127
2, 100800, Note_on_c, 1, 55, 127
2, 100800, Note_on_c, 1, 59, 127
2, 100800, Note_off_c, 1, 61, 0
2, 100800, Note_on_c, 1, 62, 127
2, 100800, Note_off_c, 1, 64, 0
2, 100800, Note_on_c, 1, 67, 127
2, 100800, Note_off_c, 1, 68, 0
2, 100800, Note_on_c, 1, 72, 127
2, 100840, Note_off_c, 1, 53, 0
2, 100840, Note_off_c, 1, 55, 0
2, 100840, Note_off_c, 1, 59, 0
2, 100840, Note_off_c, 1, 62, 0
2, 100840, Note_off_c, 1, 67, 0
2, 100840, Note_off_c, 1, 72, 0
2, 100920, Note_on_c, 1, 34, 127
2, 100920, Note_on_c, 1, 55, 127
2, 100920, Note_on_c, 1, 62, 127
2, 100920, Note_on_c, 1, 65, 127
2, 101120, Note_off_c, 1, 34, 0
2, 101200, Note_off_c, 1, 55, 0
2, 101200, Note_off_c, 1, 62, 0
2, 101200, Note_off_c, 1, 65, 0
2, 101240, Note_on_c, 1, 48, 127
2, 101240, Note_on_c, 1, 67, 127
2, 101240, Note_on_c, 1, 71, 127
2, 101400, Note_off_c, 1, 67, 0
2, 101400, Note_on_c, 1, 74, 127
2, 101440, Note_on_c, 1, 67, 127
2, 101440, Note_off_c, 1, 74, 0
2, 101520, Note_off_c, 1, 67, 0
2, 101520, Note_off_c, 1, 71, 0
2, 101560, Note_off_c, 1, 48, 0
2, 101600, Note_on_c, 1, 48, 127
2, 101600, Note_on_c, 1, 64, 127
2, 101600, Note_on_c, 1, 72, 127
2, 101920, Note_off_c, 1, 48, 0
2, 101960, Note_on_c, 1, 48, 127
2, 102240, Note_off_c, 1, 48, 0
2, 102280, Note_off_c, 1, 64, 0
2, 102280, Note_off_c, 1, 72, 0
2, 102320, Note_on_c, 1, 48, 127
2, 102320, Note_on_c, 1, 60, 127
2, 102440, Note_off_c, 1, 48, 0
2, 102440, Note_off_c, 1, 60, 0
2, 102480, Note_on_c, 1, 48, 127
2, 102480, Note_on_c, 1, 60, 127
2, 102640, Note_off_c, 1, 48, 0
2, 102640, Note_off_c, 1, 60, 0
2, 102680, Note_on_c, 1, 55, 127
2, 102680, Note_on_c, 1, 60, 127
2, 102680, Note_on_c, 1, 64, 127
2, 102680, Note_on_c, 1, 67, 127
2, 102920, Note_on_c, 1, 54, 127
2, 102920, Note_off_c, 1, 55, 0
2, 102920, Note_off_c, 1, 60, 0
2, 102920, Note_off_c, 1, 64, 0
2, 102920, Note_on_c, 1, 66, 127
2, 102920, Note_off_c, 1, 67, 0
2, 102960, Note_off_c, 1, 54, 0
2, 102960, Note_off_c, 1, 66, 0
2, 103040, Note_on_c, 1, 55, 127
2, 103040, Note_on_c, 1, 67, 127
2, 103360, Note_off_c, 1, 55, 0
2, 103360, Note_off_c, 1, 67, 0
2, 103400, Note_on_c, 1, 48, 127
2, 103400, Note_on_c, 1, 60, 127
2, 103720, Note_off_c, 1, 48, 0
2, 103720, Note_off_c, 1, 60, 0
2, 103760, Note_on_c, 1, 55, 127
2, 103760, Note_on_c, 1, 67, 127
2, 104080, Note_off_c, 1, 55, 0
2, 104080, Note_off_c, 1, 67, 0
2, 104120, Note_on_c, 1, 51, 127
2, 104120, Note_on_c, 1, 63, 127
2, 104120, Note_on_c, 1, 69, 127
2, 104120, Note_on_c, 1, 81, 127
2, 104240, Note_off_c, 1, 69, 0
2, 104240, Note_off_c, 1, 81, 0
2, 104280, Note_on_c, 1, 69, 127
2, 104280, Note_on_c, 1, 81, 127
2, 104400, Note_off_c, 1, 69, 0
2, 104400, Note_off_c, 1, 81, 0
2, 104440, Note_off_c, 1, 51, 0
2, 104440, Note_off_c, 1, 63, 0
2, 104520, Note_on_c, 1, 48, 127
2, 104520, Note_on_c, 1, 67, 127
2, 104520, Note_on_c, 1, 79, 127
2, 104640, Note_off_c, 1, 48, 0
2, 104680, Note_on_c, 1, 36, 127
2, 104680, Note_on_c, 1, 48, 127
2, 104800, Note_off_c, 1, 36, 0
2, 104800, Note_off_c, 1, 48, 0
2, 104800, Note_off_c, 1, 67, 0
2, 104800, Note_off_c, 1, 79, 0
2, 104840, Note_on_c, 1, 49, 127
2, 104840, Note_on_c, 1, 55, 127
2, 104840, Note_on_c, 1, 61, 127
2, 104840, Note_on_c, 1, 64, 127
2, 104880, Note_off_c, 1, 49, 0
2, 104880, Note_on_c, 1, 50, 127
2, 104880, Note_off_c, 1, 55, 0
2, 104880, Note_on_c, 1, 59, 127
2, 104880, Note_off_c, 1, 61, 0
2, 104880, Note_on_c, 1, 62, 127
2, 104880, Note_off_c, 1, 64, 0
2, 104880, Note_on_c, 1, 78, 127
2, 104880, Note_on_c, 1, 81, 127
2, 104920, Note_on_c, 1, 38, 127
2, 104920, Note_off_c, 1, 50, 0
2, 104920, Note_on_c, 1, 55, 127
2, 104920, Note_off_c, 1, 78, 0
2, 104920, Note_off_c, 1, 81, 0
2, 104960, Note_on_c, 1, 35, 127
2, 104960, Note_off_c, 1, 38, 0
2, 104960, Note_on_c, 1, 40, 127
2, 104960, Note_on_c, 1, 47, 127
2, 104960, Note_off_c, 1, 55, 0
2, 104960, Note_off_c, 1, 62, 0
2, 104960, Note_on_c, 1, 68, 127
2, 104960, Note_on_c, 1, 71, 127
2, 104960, Note_on_c, 1, 83, 127
2, 104960, Note_on_c, 1, 88, 127
2, 104960, Note_on_c, 1, 92, 127
2, 105000, Note_off_c, 1, 35, 0
2, 105000, Note_off_c, 1, 40, 0
2, 105000, Note_off_c, 1, 47, 0
2, 105000, Note_on_c, 1, 50, 127
2, 105000, Note_on_c, 1, 62, 127
2, 105000, Note_off_c, 1, 68, 0
2, 105000, Note_off_c, 1, 71, 0
2, 105000, Note_off_c, 1, 83, 0
2, 105000, Note_off_c, 1, 88, 0
2, 105000, Note_off_c, 1, 92, 0
2, 105040, Note_off_c, 1, 50, 0
2, 105040, Note_on_c, 1, 52, 127
2, 105040, Note_on_c, 1, 55, 127
2, 105040, Note_off_c, 1, 59, 0
2, 105040, Note_off_c, 1, 62, 0
2, 105040, Note_on_c, 1, 64, 127
2, 105040, Note_on_c, 1, 67, 127
2, 105040, Note_on_c, 1, 72, 127
2, 105160, Note_off_c, 1, 52, 0
2, 105160, Note_off_c, 1, 55, 0
2, 105160, Note_off_c, 1, 64, 0
2, 105160, Note_off_c, 1, 67, 0
2, 105160, Note_off_c, 1, 72, 0
2, 105200, Note_on_c, 1, 60, 127
2, 105200, Note_on_c, 1, 72, 127
2, 105320, Note_off_c, 1, 60, 0
2, 105320, Note_off_c, 1, 72, 0
2, 105400, Note_on_c, 1, 60, 127
2, 105400, Note_on_c, 1, 72, 127
2, 105520, Note_off_c, 1, 60, 0
2, 105520, Note_off_c, 1, 72, 0
2, 105560, Note_on_c, 1, 45, 127
2, 105560, Note_on_c, 1, 57, 127
2, 105680, Note_off_c, 1, 45, 0
2, 105680, Note_off_c, 1, 57, 0
2, 105720, Note_on_c, 1, 43, 127
2, 105720, Note_on_c, 1, 55, 127
2, 105880, Note_off_c, 1, 43, 0
2, 105880, Note_off_c, 1, 55, 0
2, 105920, Note_on_c, 1, 45, 127
2, 105920, Note_on_c, 1, 47, 127
2, 105920, Note_on_c, 1, 57, 127
2, 105920, Note_on_c, 1, 63, 127
2, 105920, Note_on_c, 1, 66, 127
2, 105920, Note_on_c, 1, 71, 127
2, 105920, Note_on_c, 1, 75, 127
2, 106040, Note_off_c, 1, 47, 0
2, 106040, Note_off_c, 1, 71, 0
2, 106080, Note_on_c, 1, 47, 127
2, 106080, Note_on_c, 1, 71, 127
2, 106520, Note_off_c, 1, 45, 0
2, 106520, Note_off_c, 1, 47, 0
2, 106520, Note_off_c, 1, 57, 0
2, 106520, Note_off_c, 1, 63, 0
2, 106520, Note_off_c, 1, 66, 0
2, 106520, Note_off_c, 1, 71, 0
2, 106520, Note_off_c, 1, 75, 0
2, 106560, Note_on_c, 1, 45, 127
2, 106560, Note_on_c, 1, 47, 127
2, 106560, Note_on_c, 1, 57, 127
2, 106560, Note_on_c, 1, 63, 127
2, 106560, Note_on_c, 1, 66, 127
2, 106560, Note_on_c, 1, 71, 127
2, 106560, Note_on_c, 1, 75, 127
2, 106600, Note_off_c, 1, 45, 0
2, 106600, Note_off_c, 1, 47, 0
2, 106600, Note_off_c, 1, 57, 0
2, 106600, Note_off_c, 1, 63, 0
2, 106600, Note_off_c, 1, 66, 0
2, 106600, Note_off_c, 1, 71, 0
2, 106600, Note_off_c, 1, 75, 0
2, 106640, Note_on_c, 1, 41, 127
2, 106640, Note_on_c, 1, 53, 127
2, 106640, Note_on_c, 1, 70, 127
2, 106640, Note_on_c, 1, 75, 127
2, 106640, Note_on_c, 1, 79, 127
2, 106960, Note_on_c, 1, 35, 127
2, 106960, Note_off_c, 1, 41, 0
2, 106960, Note_on_c, 1, 52, 127
2, 106960, Note_off_c, 1, 53, 0
2, 106960, Note_on_c, 1, 64, 127
2, 106960, Note_off_c, 1, 70, 0
2, 106960, Note_off_c, 1, 75, 0
2, 106960, Note_off_c, 1, 79, 0
2, 107000, Note_off_c, 1, 35, 0
2, 107000, Note_on_c, 1, 45, 127
2, 107000, Note_off_c, 1, 52, 0
2, 107000, Note_off_c, 1, 64, 0
2, 107000, Note_on_c, 1, 67, 127
2, 107000, Note_on_c, 1, 71, 127
2, 107000, Note_on_c, 1, 76, 127
2, 107160, Note_off_c, 1, 45, 0
2, 107160, Note_off_c, 1, 67, 0
2, 107160, Note_off_c, 1, 71, 0
2, 107160, Note_off_c, 1, 76, 0
2, 107200, Note_on_c, 1, 88, 127
2, 107320, Note_off_c, 1, 88, 0
2, 107360, Note_on_c, 1, 33, 127
2, 107360, Note_on_c, 1, 45, 127
2, 107480, Note_off_c, 1, 33, 0
2, 107480, Note_off_c, 1, 45, 0
2, 107560, Note_on_c, 1, 33, 127
2, 107560, Note_on_c, 1, 45, 127
2, 107680, Note_off_c, 1, 33, 0
2, 107680, Note_off_c, 1, 45, 0
2, 107720, Note_on_c, 1, 34, 127
2, 107720, Note_on_c, 1, 39, 127
2, 107720, Note_on_c, 1, 41, 127
2, 107720, Note_on_c, 1, 46, 127
2, 107720, Note_on_c, 1, 51, 127
2, 107720, Note_on_c, 1, 53, 127
2, 107720, Note_on_c, 1, 58, 127
2, 107720, Note_on_c, 1, 61, 127
2, 107720, Note_on_c, 1, 65, 127
2, 107720, Note_on_c, 1, 70, 127
2, 107760, Note_off_c, 1, 34, 0
2, 107760, Note_off_c, 1, 39, 0
2, 107760, Note_off_c, 1, 41, 0
2, 107760, Note_off_c, 1, 46, 0
2, 107760, Note_off_c, 1, 51, 0
2, 107760, Note_off_c, 1, 53, 0
2, 107760, Note_on_c, 1, 55, 127
2, 107760, Note_off_c, 1, 58, 0
2, 107760, Note_on_c, 1, 60, 127
2, 107760, Note_off_c, 1, 61, 0
2, 107760, Note_on_c, 1, 64, 127
2, 107760, Note_off_c, 1, 65, 0
2, 107760, Note_off_c, 1, 70, 0
2, 107760, Note_on_c, 1, 72, 127
2, 107760, Note_on_c, 1, 81, 127
2, 107800, Note_off_c, 1, 55, 0
2, 107800, Note_off_c, 1, 60, 0
2, 107800, Note_on_c, 1, 67, 127
2, 107800, Note_on_c, 1, 71, 127
2, 107800, Note_off_c, 1, 72, 0
2, 107800, Note_on_c, 1, 73, 127
2, 107800, Note_on_c, 1, 79, 127
2, 107800, Note_off_c, 1, 81, 0
2, 107840, Note_on_c, 1, 59, 127
2, 107840, Note_off_c, 1, 67, 0
2, 107840, Note_on_c, 1, 69, 127
2, 107840, Note_off_c, 1, 71, 0
2, 107840, Note_on_c, 1, 72, 127
2, 107840, Note_off_c, 1, 73, 0
2, 107840, Note_off_c, 1, 79, 0
2, 107880, Note_on_c, 1, 36, 127
2, 107880, Note_on_c, 1, 48, 127
2, 107880, Note_off_c, 1, 59, 0
2, 107880, Note_off_c, 1, 64, 0
2, 107880, Note_off_c, 1, 72, 0
2, 107880, Note_on_c, 1, 75, 127
2, 107920, Note_off_c, 1, 36, 0
2, 107920, Note_on_c, 1, 40, 127
2, 107920, Note_off_c, 1, 48, 0
2, 107920, Note_on_c, 1, 50, 127
2, 107920, Note_on_c, 1, 52, 127
2, 107920, Note_off_c, 1, 69, 0
2, 107920, Note_on_c, 1, 74, 127
2, 107920, Note_off_c, 1, 75, 0
2, 107920, Note_on_c, 1, 83, 127
2, 107920, Note_on_c, 1, 86, 127
2, 108000, Note_off_c, 1, 74, 0
2, 108000, Note_off_c, 1, 83, 0
2, 108000, Note_off_c, 1, 86, 0
2, 108040, Note_off_c, 1, 40, 0
2, 108040, Note_off_c, 1, 50, 0
2, 108040, Note_off_c, 1, 52, 0
2, 108080, Note_on_c, 1, 42, 127
2, 108080, Note_on_c, 1, 54, 127
2, 108080, Note_on_c, 1, 64, 127
2, 108080, Note_on_c, 1, 73, 127
2, 108200, Note_off_c, 1, 64, 0
2, 108440, Note_on_c, 1, 71, 127
2, 108440, Note_off_c, 1, 73, 0
2, 108440, Note_on_c, 1, 75, 127
2, 108440, Note_on_c, 1, 78, 127
2, 108560, Note_off_c, 1, 42, 0
2, 108560, Note_off_c, 1, 54, 0
2, 108560, Note_off_c, 1, 71, 0
2, 108560, Note_off_c, 1, 75, 0
2, 108560, Note_off_c, 1, 78, 0
2, 108600, Note_on_c, 1, 42, 127
2, 108600, Note_on_c, 1, 54, 127
2, 108600, Note_on_c, 1, 71, 127
2, 108600, Note_on_c, 1, 75, 127
2, 108600, Note_on_c, 1, 78, 127
2, 108760, Note_off_c, 1, 42, 0
2, 108760, Note_off_c, 1, 54, 0
2, 108760, Note_off_c, 1, 71, 0
2, 108760, Note_on_c, 1, 73, 127
2, 108760, Note_off_c, 1, 75, 0
2, 108760, Note_off_c, 1, 78, 0
2, 108800, Note_on_c, 1, 66, 127
2, 108800, Note_on_c, 1, 70, 127
2, 108800, Note_on_c, 1, 71, 127
2, 108800, Note_off_c, 1, 73, 0
2, 108800, Note_on_c, 1, 80, 127
2, 108840, Note_on_c, 1, 32, 127
2, 108840, Note_on_c, 1, 44, 127
2, 108840, Note_off_c, 1, 66, 0
2, 108840, Note_off_c, 1, 70, 0
2, 108840, Note_off_c, 1, 71, 0
2, 108840, Note_on_c, 1, 73, 127
2, 108840, Note_off_c, 1, 80, 0
2, 108840, Note_on_c, 1, 81, 127
2, 108840, Note_on_c, 1, 85, 127
2, 108880, Note_off_c, 1, 32, 0
2, 108880, Note_off_c, 1, 44, 0
2, 108880, Note_on_c, 1, 55, 127
2, 108880, Note_on_c, 1, 62, 127
2, 108880, Note_on_c, 1, 67, 127
2, 108880, Note_off_c, 1, 73, 0
2, 108880, Note_on_c, 1, 77, 127
2, 108880, Note_off_c, 1, 81, 0
2, 108880, Note_on_c, 1, 83, 127
2, 108880, Note_off_c, 1, 85, 0
2, 108880, Note_on_c, 1, 89, 127
2, 108920, Note_on_c, 1, 31, 127
2, 108920, Note_on_c, 1, 34, 127
2, 108920, Note_on_c, 1, 37, 127
2, 108920, Note_on_c, 1, 40, 127
2, 108920, Note_on_c, 1, 43, 127
2, 108920, Note_on_c, 1, 49, 127
2, 108920, Note_on_c, 1, 52, 127
2, 108920, Note_off_c, 1, 55, 0
2, 108920, Note_on_c, 1, 58, 127
2, 108920, Note_off_c, 1, 62, 0
2, 108920, Note_off_c, 1, 67, 0
2, 108920, Note_on_c, 1, 70, 127
2, 108920, Note_off_c, 1, 77, 0
2, 108920, Note_on_c, 1, 82, 127
2, 108920, Note_off_c, 1, 83, 0
2, 108920, Note_off_c, 1, 89, 0
2, 108960, Note_off_c, 1, 31, 0
2, 108960, Note_off_c, 1, 37, 0
2, 108960, Note_off_c, 1, 40, 0
2, 108960, Note_off_c, 1, 43, 0
2, 108960, Note_on_c, 1, 46, 127
2, 108960, Note_off_c, 1, 49, 0
2, 108960, Note_off_c, 1, 52, 0
2, 108960, Note_on_c, 1, 54, 127
2, 108960, Note_on_c, 1, 66, 127
2, 108960, Note_off_c, 1, 70, 0
2, 108960, Note_off_c, 1, 82, 0
2, 109000, Note_off_c, 1, 34, 0
2, 109000, Note_on_c, 1, 45, 127
2, 109000, Note_off_c, 1, 46, 0
2, 109000, Note_off_c, 1, 54, 0
2, 109000, Note_on_c, 1, 57, 127
2, 109000, Note_off_c, 1, 58, 0
2, 109000, Note_off_c, 1, 66, 0
2, 109000, Note_on_c, 1, 69, 127
2, 109000, Note_on_c, 1, 74, 127
2, 109000, Note_on_c, 1, 81, 127
2, 109120, Note_off_c, 1, 45, 0
2, 109120, Note_off_c, 1, 57, 0
2, 109120, Note_off_c, 1, 69, 0
2, 109120, Note_off_c, 1, 74, 0
2, 109120, Note_off_c, 1, 81, 0
2, 109160, Note_on_c, 1, 57, 127
2, 109160, Note_on_c, 1, 61, 127
2, 109160, Note_on_c, 1, 64, 127
2, 109160, Note_on_c, 1, 69, 127
2, 109160, Note_on_c, 1, 73, 127
2, 109160, Note_on_c, 1, 76, 127
2, 109160, Note_on_c, 1, 81, 127
2, 109480, Note_off_c, 1, 61, 0
2, 109480, Note_off_c, 1, 64, 0
2, 109480, Note_off_c, 1, 69, 0
2, 109480, Note_off_c, 1, 73, 0
2, 109480, Note_off_c, 1, 76, 0
2, 109480, Note_off_c, 1, 81, 0
2, 109520, Note_on_c, 1, 61, 127
2, 109520, Note_on_c, 1, 64, 127
2, 109520, Note_on_c, 1, 69, 127
2, 109520, Note_on_c, 1, 73, 127
2, 109520, Note_on_c, 1, 76, 127
2, 109520, Note_on_c, 1, 81, 127
2, 109800, Note_off_c, 1, 57, 0
2, 109800, Note_off_c, 1, 61, 0
2, 109800, Note_off_c, 1, 64, 0
2, 109800, Note_off_c, 1, 69, 0
2, 109800, Note_off_c, 1, 73, 0
2, 109800, Note_off_c, 1, 76, 0
2, 109800, Note_off_c, 1, 81, 0
2, 109880, Note_on_c, 1, 35, 127
2, 109880, Note_on_c, 1, 47, 127
2, 110160, Note_off_c, 1, 35, 0
2, 110160, Note_off_c, 1, 47, 0
2, 110240, Note_on_c, 1, 91, 127
2, 110240, Note_on_c, 1, 95, 127
2, 110240, Note_on_c, 1, 98, 127
2, 110240, Note_on_c, 1, 103, 127
2, 110520, Note_off_c, 1, 91, 0
2, 110520, Note_off_c, 1, 95, 0
2, 110520, Note_off_c, 1, 98, 0
2, 110520, Note_off_c, 1, 103, 0
2, 110640, Note_on_c, 1, 91, 127
2, 110640, Note_on_c, 1, 95, 127
2, 110640, Note_on_c, 1, 98, 127
2, 110640, Note_on_c, 1, 103, 127
2, 110880, Note_off_c, 1, 91, 0
2, 110880, Note_off_c, 1, 95, 0
2, 110880, Note_off_c, 1, 98, 0
2, 110880, Note_off_c, 1, 103, 0
2, 110960, Note_on_c, 1, 76, 127
2, 110960, Note_on_c, 1, 79, 127
2, 110960, Note_on_c, 1, 83, 127
2, 110960, Note_on_c, 1, 88, 127
2, 111280, Note_off_c, 1, 76, 0
2, 111280, Note_off_c, 1, 79, 0
2, 111280, Note_off_c, 1, 83, 0
2, 111280, Note_off_c, 1, 88, 0
2, 111320, Note_on_c, 1, 54, 127
2, 111320, Note_on_c, 1, 61, 127
2, 111320, Note_on_c, 1, 67, 127
2, 111320, Note_on_c, 1, 70, 127
2, 111320, Note_on_c, 1, 73, 127
2, 111320, Note_on_c, 1, 79, 127
2, 111600, Note_off_c, 1, 54, 0
2, 111600, Note_off_c, 1, 61, 0
2, 111600, Note_off_c, 1, 67, 0
2, 111600, Note_off_c, 1, 70, 0
2, 111600, Note_off_c, 1, 73, 0
2, 111600, Note_off_c, 1, 79, 0
2, 111680, Note_on_c, 1, 54, 127
2, 111680, Note_on_c, 1, 61, 127
2, 111680, Note_on_c, 1, 66, 127
2, 111680, Note_on_c, 1, 70, 127
2, 111680, Note_on_c, 1, 73, 127
2, 111680, Note_on_c, 1, 78, 127
2, 111960, Note_off_c, 1, 54, 0
2, 111960, Note_off_c, 1, 61, 0
2, 111960, Note_off_c, 1, 66, 0
2, 111960, Note_off_c, 1, 70, 0
2, 111960, Note_off_c, 1, 73, 0
2, 111960, Note_off_c, 1, 78, 0
2, 112040, Note_on_c, 1, 54, 127
2, 112040, Note_on_c, 1, 61, 127
2, 112040, Note_on_c, 1, 66, 127
2, 112040, Note_on_c, 1, 70, 127
2, 112040, Note_on_c, 1, 73, 127
2, 112040, Note_on_c, 1, 78, 127
2, 112320, Note_off_c, 1, 54, 0
2, 112320, Note_off_c, 1, 61, 0
2, 112320, Note_off_c, 1, 66, 0
2, 112320, Note_off_c, 1, 70, 0
2, 112320, Note_off_c, 1, 73, 0
2, 112320, Note_off_c, 1, 78, 0
2, 112400, Note_on_c, 1, 54, 127
2, 112400, Note_on_c, 1, 58, 127
2, 112400, Note_on_c, 1, 61, 127
2, 112400, Note_on_c, 1, 66, 127
2, 112400, Note_on_c, 1, 70, 127
2, 112400, Note_on_c, 1, 73, 127
2, 112400, Note_on_c, 1, 78, 127
2, 112640, Note_off_c, 1, 54, 0
2, 112640, Note_off_c, 1, 58, 0
2, 112640, Note_off_c, 1, 61, 0
2, 112640, Note_off_c, 1, 66, 0
2, 112640, Note_off_c, 1, 70, 0
2, 112640, Note_off_c, 1, 73, 0
2, 112640, Note_off_c, 1, 78, 0
2, 112680, Note_on_c, 1, 54, 127
2, 112680, Note_on_c, 1, 58, 127
2, 112680, Note_on_c, 1, 61, 127
2, 112680, Note_on_c, 1, 66, 127
2, 112680, Note_on_c, 1, 70, 127
2, 112680, Note_on_c, 1, 73, 127
2, 112680, Note_on_c, 1, 78, 127
2, 112720, Note_off_c, 1, 58, 0
2, 112720, Note_off_c, 1, 61, 0
2, 112720, Note_off_c, 1, 66, 0
2, 112720, Note_off_c, 1, 70, 0
2, 112720, Note_off_c, 1, 73, 0
2, 112720, Note_off_c, 1, 78, 0
2, 112760, Note_on_c, 1, 58, 127
2, 112760, Note_on_c, 1, 61, 127
2, 112760, Note_on_c, 1, 66, 127
2, 112760, Note_on_c, 1, 70, 127
2, 112760, Note_on_c, 1, 73, 127
2, 112760, Note_on_c, 1, 78, 127
2, 113040, Note_off_c, 1, 54, 0
2, 113040, Note_off_c, 1, 58, 0
2, 113040, Note_off_c, 1, 61, 0
2, 113040, Note_off_c, 1, 66, 0
2, 113040, Note_off_c, 1, 70, 0
2, 113040, Note_off_c, 1, 73, 0
2, 113040, Note_off_c, 1, 78, 0
2, 113120, Note_on_c, 1, 55, 127
2, 113120, Note_on_c, 1, 67, 127
2, 113440, Note_off_c, 1, 55, 0
2, 113440, Note_off_c, 1, 67, 0
2, 113480, Note_on_c, 1, 47, 127
2, 113480, Note_on_c, 1, 54, 127
2, 113480, Note_on_c, 1, 59, 127
2, 113480, Note_on_c, 1, 62, 127
2, 113480, Note_on_c, 1, 66, 127
2, 113480, Note_on_c, 1, 71, 127
2, 113760, Note_off_c, 1, 47, 0
2, 113760, Note_off_c, 1, 54, 0
2, 113760, Note_off_c, 1, 59, 0
2, 113760, Note_off_c, 1, 62, 0
2, 113760, Note_off_c, 1, 66, 0
2, 113760, Note_off_c, 1, 71, 0
2, 113840, Note_on_c, 1, 38, 127
2, 113840, Note_on_c, 1, 42, 127
2, 113840, Note_on_c, 1, 45, 127
2, 113840, Note_on_c, 1, 50, 127
2, 113840, Note_on_c, 1, 74, 127
2, 113840, Note_on_c, 1, 78, 127
2, 113840, Note_on_c, 1, 81, 127
2, 113840, Note_on_c, 1, 86, 127
2, 114520, Note_off_c, 1, 38, 0
2, 114520, Note_off_c, 1, 42, 0
2, 114520, Note_off_c, 1, 45, 0
2, 114520, Note_off_c, 1, 50, 0
2, 114520, Note_off_c, 1, 74, 0
2, 114520, Note_off_c, 1, 78, 0
2, 114520, Note_off_c, 1, 81, 0
2, 114520, Note_off_c, 1, 86, 0
2, 115640, Note_on_c, 1, 55, 127
2, 115640, Note_on_c, 1, 57, 127
2, 115640, Note_on_c, 1, 79, 127
2, 115640, Note_on_c, 1, 84, 127
2, 115680, Note_on_c, 1, 42, 127
2, 115680, Note_off_c, 1, 55, 0
2, 115680, Note_off_c, 1, 57, 0
2, 115680, Note_on_c, 1, 67, 127
2, 115680, Note_on_c, 1, 71, 127
2, 115680, Note_on_c, 1, 76, 127
2, 115680, Note_off_c, 1, 79, 0
2, 115680, Note_off_c, 1, 84, 0
2, 115720, Note_off_c, 1, 42, 0
2, 115720, Note_on_c, 1, 45, 127
2, 115720, Note_on_c, 1, 62, 127
2, 115720, Note_off_c, 1, 67, 0
2, 115720, Note_on_c, 1, 68, 127
2, 115720, Note_off_c, 1, 71, 0
2, 115720, Note_off_c, 1, 76, 0
2, 115720, Note_on_c, 1, 80, 127
2, 115760, Note_off_c, 1, 45, 0
2, 115760, Note_on_c, 1, 54, 127
2, 115760, Note_off_c, 1, 62, 0
2, 115760, Note_on_c, 1, 67, 127
2, 115760, Note_off_c, 1, 68, 0
2, 115760, Note_off_c, 1, 80, 0
2, 115800, Note_on_c, 1, 45, 127
2, 115800, Note_on_c, 1, 49, 127
2, 115800, Note_on_c, 1, 52, 127
2, 115800, Note_off_c, 1, 54, 0
2, 115800, Note_on_c, 1, 57, 127
2, 115800, Note_off_c, 1, 67, 0
2, 115800, Note_on_c, 1, 93, 127
2, 115800, Note_on_c, 1, 97, 127
2, 115800, Note_on_c, 1, 105, 127
2, 115840, Note_off_c, 1, 45, 0
2, 115840, Note_on_c, 1, 47, 127
2, 115840, Note_off_c, 1, 49, 0
2, 115840, Note_on_c, 1, 50, 127
2, 115840, Note_off_c, 1, 52, 0
2, 115840, Note_off_c, 1, 57, 0
2, 115840, Note_on_c, 1, 59, 127
2, 115840, Note_on_c, 1, 73, 127
2, 115840, Note_off_c, 1, 93, 0
2, 115840, Note_off_c, 1, 97, 0
2, 115840, Note_off_c, 1, 105, 0
2, 115880, Note_on_c, 1, 45, 127
2, 115880, Note_off_c, 1, 47, 0
2, 115880, Note_on_c, 1, 49, 127
2, 115880, Note_off_c, 1, 50, 0
2, 115880, Note_on_c, 1, 52, 127
2, 115880, Note_on_c, 1, 57, 127
2, 115880, Note_off_c, 1, 59, 0
2, 115880, Note_off_c, 1, 73, 0
2, 115880, Note_on_c, 1, 93, 127
2, 115880, Note_on_c, 1, 97, 127
2, 115880, Note_on_c, 1, 105, 127
2, 115920, Note_off_c, 1, 49, 0
2, 115920, Note_off_c, 1, 52, 0
2, 115920, Note_off_c, 1, 57, 0
2, 115920, Note_on_c, 1, 64, 127
2, 115920, Note_on_c, 1, 67, 127
2, 115920, Note_on_c, 1, 73, 127
2, 115920, Note_on_c, 1, 81, 127
2, 115920, Note_off_c, 1, 93, 0
2, 115920, Note_off_c, 1, 97, 0
2, 115920, Note_off_c, 1, 105, 0
2, 115960, Note_off_c, 1, 45, 0
2, 115960, Note_off_c, 1, 64, 0
2, 115960, Note_off_c, 1, 67, 0
2, 115960, Note_off_c, 1, 73, 0
2, 115960, Note_off_c, 1, 81, 0
2, 116000, Note_on_c, 1, 39, 127
2, 116000, Note_on_c, 1, 42, 127
2, 116000, Note_on_c, 1, 51, 127
2, 116000, Note_on_c, 1, 54, 127
2, 116320, Note_off_c, 1, 39, 0
2, 116320, Note_off_c, 1, 42, 0
2, 116320, Note_off_c, 1, 51, 0
2, 116320, Note_off_c, 1, 54, 0
2, 116360, Note_on_c, 1, 41, 127
2, 116360, Note_on_c, 1, 44, 127
2, 116360, Note_on_c, 1, 53, 127
2, 116360, Note_on_c, 1, 61, 127
2, 116360, Note_on_c, 1, 68, 127
2, 116360, Note_on_c, 1, 73, 127
2, 116640, Note_off_c, 1, 41, 0
2, 116640, Note_off_c, 1, 44, 0
2, 116640, Note_off_c, 1, 53, 0
2, 116640, Note_off_c, 1, 61, 0
2, 116640, Note_off_c, 1, 68, 0
2, 116640, Note_off_c, 1, 73, 0
2, 116680, Note_on_c, 1, 58, 127
2, 116680, Note_on_c, 1, 66, 127
2, 116680, Note_on_c, 1, 78, 127
2, 116680, Note_on_c, 1, 83, 127
2, 116720, Note_on_c, 1, 62, 127
2, 116720, Note_off_c, 1, 66, 0
2, 116720, Note_on_c, 1, 70, 127
2, 116720, Note_off_c, 1, 83, 0
2, 116720, Note_on_c, 1, 86, 127
2, 116800, Note_off_c, 1, 62, 0
2, 116800, Note_on_c, 1, 66, 127
2, 116800, Note_off_c, 1, 70, 0
2, 116800, Note_on_c, 1, 83, 127
2, 116800, Note_off_c, 1, 86, 0
2, 116840, Note_on_c, 1, 44, 127
2, 116840, Note_off_c, 1, 58, 0
2, 116840, Note_on_c, 1, 61, 127
2, 116840, Note_off_c, 1, 66, 0
2, 116840, Note_on_c, 1, 67, 127
2, 116840, Note_on_c, 1, 77, 127
2, 116840, Note_off_c, 1, 78, 0
2, 116840, Note_off_c, 1, 83, 0
2, 116880, Note_off_c, 1, 44, 0
2, 116880, Note_on_c, 1, 51, 127
2, 116880, Note_on_c, 1, 57, 127
2, 116880, Note_off_c, 1, 61, 0
2, 116880, Note_on_c, 1, 63, 127
2, 116880, Note_on_c, 1, 66, 127
2, 116880, Note_off_c, 1, 67, 0
2, 116880, Note_on_c, 1, 72, 127
2, 116880, Note_off_c, 1, 77, 0
2, 116880, Note_on_c, 1, 78, 127
2, 116920, Note_off_c, 1, 51, 0
2, 116920, Note_off_c, 1, 57, 0
2, 116920, Note_off_c, 1, 63, 0
2, 116920, Note_off_c, 1, 66, 0
2, 116920, Note_off_c, 1, 72, 0
2, 116920, Note_off_c, 1, 78, 0
2, 117040, Note_on_c, 1, 49, 127
2, 117040, Note_on_c, 1, 70, 127
2, 117040, Note_on_c, 1, 78, 127
2, 117040, Note_on_c, 1, 82, 127
2, 117080, Note_on_c, 1, 43, 127
2, 117080, Note_off_c, 1, 49, 0
2, 117080, Note_on_c, 1, 73, 127
2, 117080, Note_on_c, 1, 76, 127
2, 117080, Note_off_c, 1, 78, 0
2, 117120, Note_off_c, 1, 43, 0
2, 117120, Note_on_c, 1, 49, 127
2, 117120, Note_off_c, 1, 73, 0
2, 117120, Note_off_c, 1, 76, 0
2, 117120, Note_on_c, 1, 78, 127
2, 117320, Note_off_c, 1, 49, 0
2, 117320, Note_off_c, 1, 70, 0
2, 117320, Note_off_c, 1, 78, 0
2, 117320, Note_off_c, 1, 82, 0
2, 117400, Note_on_c, 1, 75, 127
2, 117400, Note_on_c, 1, 77, 127
2, 117400, Note_on_c, 1, 81, 127
2, 117640, Note_off_c, 1, 75, 0
2, 117640, Note_off_c, 1, 77, 0
2, 117640, Note_off_c, 1, 81, 0
2, 117680, Note_on_c, 1, 75, 127
2, 117680, Note_on_c, 1, 77, 127
2, 117680, Note_on_c, 1, 81, 127
2, 117720, Note_off_c, 1, 75, 0
2, 117720, Note_off_c, 1, 77, 0
2, 117720, Note_off_c, 1, 81, 0
2, 117760, Note_on_c, 1, 53, 127
2, 117760, Note_on_c, 1, 65, 127
2, 117760, Note_on_c, 1, 70, 127
2, 117760, Note_on_c, 1, 74, 127
2, 117760, Note_on_c, 1, 77, 127
2, 118040, Note_off_c, 1, 53, 0
2, 118040, Note_off_c, 1, 65, 0
2, 118040, Note_off_c, 1, 70, 0
2, 118040, Note_off_c, 1, 74, 0
2, 118040, Note_off_c, 1, 77, 0
2, 118120, Note_on_c, 1, 56, 127
2, 118120, Note_on_c, 1, 61, 127
2, 118120, Note_on_c, 1, 64, 127
2, 118120, Note_on_c, 1, 70, 127
2, 118120, Note_on_c, 1, 76, 127
2, 118120, Note_on_c, 1, 79, 127
2, 118120, Note_on_c, 1, 85, 127
2, 118160, Note_off_c, 1, 56, 0
2, 118160, Note_off_c, 1, 61, 0
2, 118160, Note_off_c, 1, 64, 0
2, 118160, Note_off_c, 1, 70, 0
2, 118160, Note_on_c, 1, 75, 127
2, 118160, Note_off_c, 1, 76, 0
2, 118160, Note_on_c, 1, 77, 127
2, 118160, Note_off_c, 1, 79, 0
2, 118160, Note_on_c, 1, 80, 127
2, 118160, Note_on_c, 1, 84, 127
2, 118160, Note_off_c, 1, 85, 0
2, 118200, Note_on_c, 1, 55, 127
2, 118200, Note_on_c, 1, 67, 127
2, 118200, Note_on_c, 1, 73, 127
2, 118200, Note_off_c, 1, 75, 0
2, 118200, Note_off_c, 1, 77, 0
2, 118200, Note_off_c, 1, 80, 0
2, 118200, Note_on_c, 1, 82, 127
2, 118200, Note_off_c, 1, 84, 0
2, 118200, Note_on_c, 1, 85, 127
2, 118240, Note_off_c, 1, 55, 0
2, 118240, Note_on_c, 1, 56, 127
2, 118240, Note_on_c, 1, 65, 127
2, 118240, Note_off_c, 1, 67, 0
2, 118240, Note_off_c, 1, 85, 0
2, 118280, Note_on_c, 1, 51, 127
2, 118280, Note_on_c, 1, 53, 127
2, 118280, Note_off_c, 1, 56, 0
2, 118280, Note_on_c, 1, 57, 127
2, 118280, Note_off_c, 1, 65, 0
2, 118280, Note_off_c, 1, 82, 0
2, 118320, Note_on_c, 1, 33, 127
2, 118320, Note_on_c, 1, 49, 127
2, 118320, Note_off_c, 1, 51, 0
2, 118320, Note_on_c, 1, 52, 127
2, 118320, Note_off_c, 1, 53, 0
2, 118320, Note_off_c, 1, 57, 0
2, 118320, Note_on_c, 1, 65, 127
2, 118320, Note_on_c, 1, 69, 127
2, 118320, Note_off_c, 1, 73, 0
2, 118360, Note_off_c, 1, 33, 0
2, 118360, Note_off_c, 1, 49, 0
2, 118360, Note_off_c, 1, 52, 0
2, 118360, Note_off_c, 1, 65, 0
2, 118360, Note_off_c, 1, 69, 0
2, 118480, Note_on_c, 1, 55, 127
2, 118480, Note_on_c, 1, 57, 127
2, 118480, Note_on_c, 1, 59, 127
2, 118480, Note_on_c, 1, 62, 127
2, 118480, Note_on_c, 1, 69, 127
2, 118520, Note_on_c, 1, 37, 127
2, 118520, Note_on_c, 1, 49, 127
2, 118520, Note_on_c, 1, 52, 127
2, 118520, Note_off_c, 1, 55, 0
2, 118520, Note_off_c, 1, 57, 0
2, 118520, Note_off_c, 1, 59, 0
2, 118520, Note_off_c, 1, 62, 0
2, 118520, Note_on_c, 1, 67, 127
2, 118520, Note_off_c, 1, 69, 0
2, 118560, Note_off_c, 1, 37, 0
2, 118560, Note_off_c, 1, 52, 0
2, 118560, Note_on_c, 1, 53, 127
2, 118560, Note_on_c, 1, 56, 127
2, 118560, Note_on_c, 1, 59, 127
2, 118560, Note_off_c, 1, 67, 0
2, 118560, Note_on_c, 1, 80, 127
2, 118600, Note_on_c, 1, 48, 127
2, 118600, Note_off_c, 1, 49, 0
2, 118600, Note_off_c, 1, 56, 0
2, 118600, Note_off_c, 1, 59, 0
2, 118600, Note_on_c, 1, 69, 127
2, 118600, Note_on_c, 1, 75, 127
2, 118600, Note_off_c, 1, 80, 0
2, 118600, Note_on_c, 1, 81, 127
2, 118640, Note_on_c, 1, 40, 127
2, 118640, Note_off_c, 1, 48, 0
2, 118640, Note_on_c, 1, 52, 127
2, 118640, Note_off_c, 1, 53, 0
2, 118640, Note_off_c, 1, 81, 0
2, 118680, Note_off_c, 1, 40, 0
2, 118680, Note_on_c, 1, 42, 127
2, 118680, Note_off_c, 1, 52, 0
2, 118680, Note_on_c, 1, 56, 127
2, 118680, Note_on_c, 1, 64, 127
2, 118680, Note_on_c, 1, 68, 127
2, 118680, Note_off_c, 1, 69, 0
2, 118680, Note_off_c, 1, 75, 0
2, 118720, Note_on_c, 1, 37, 127
2, 118720, Note_off_c, 1, 42, 0
2, 118720, Note_on_c, 1, 49, 127
2, 118720, Note_off_c, 1, 56, 0
2, 118720, Note_on_c, 1, 62, 127
2, 118720, Note_off_c, 1, 64, 0
2, 118720, Note_on_c, 1, 66, 127
2, 118720, Note_off_c, 1, 68, 0
2, 118720, Note_on_c, 1, 69, 127
2, 118720, Note_on_c, 1, 74, 127
2, 118760, Note_off_c, 1, 37, 0
2, 118760, Note_off_c, 1, 49, 0
2, 118760, Note_off_c, 1, 62, 0
2, 118760, Note_off_c, 1, 66, 0
2, 118760, Note_off_c, 1, 69, 0
2, 118760, Note_off_c, 1, 74, 0
2, 119520, Note_on_c, 1, 47, 127
2, 119520, Note_on_c, 1, 48, 127
2, 119520, Note_on_c, 1, 59, 127
2, 119520, Note_on_c, 1, 60, 127
2, 119560, Note_off_c, 1, 47, 0
2, 119560, Note_off_c, 1, 48, 0
2, 119560, Note_on_c, 1, 51, 127
2, 119560, Note_on_c, 1, 55, 127
2, 119560, Note_off_c, 1, 59, 0
2, 119560, Note_off_c, 1, 60, 0
2, 119560, Note_on_c, 1, 63, 127
2, 119560, Note_on_c, 1, 67, 127
2, 119840, Note_off_c, 1, 55, 0
2, 119840, Note_off_c, 1, 67, 0
2, 119880, Note_off_c, 1, 51, 0
2, 119880, Note_off_c, 1, 63, 0
2, 119920, Note_on_c, 1, 51, 127
2, 119920, Note_on_c, 1, 54, 127
2, 119920, Note_on_c, 1, 59, 127
2, 119920, Note_on_c, 1, 66, 127
2, 119920, Note_on_c, 1, 70, 127
2, 120000, Note_off_c, 1, 51, 0
2, 120000, Note_off_c, 1, 54, 0
2, 120000, Note_off_c, 1, 59, 0
2, 120000, Note_off_c, 1, 66, 0
2, 120000, Note_off_c, 1, 70, 0
2, 120040, End_track
3, 0, Start_track
3, 0, Title_t, "MIDI"
3, 1536, End_track
0, 0, End_of_file
