0, 0, Header, 1, 3, 192
1, 0, Start_track
1, 0, Time_signature, 4, 2, 24, 8
1, 0, Tempo, 500000
1, 120040, End_track
2, 0, Start_track
2, 0, Text_t, "random instrument: random person i dunno whatev"
2, 0, Title_t, "Track 1"
2, 0, Note_on_c, 1, 40, 127
2, 0, Note_on_c, 1, 48, 127
2, 0, Note_on_c, 1, 56, 127
2, 0, Note_on_c, 1, 60, 127
2, 40, Note_off_c, 1, 40, 0
2, 40, Note_off_c, 1, 48, 0
2, 40, Note_on_c, 1, 55, 127
2, 40, Note_off_c, 1, 56, 0
2, 40, Note_off_c, 1, 60, 0
2, 40, Note_on_c, 1, 72, 127
2, 40, Note_on_c, 1, 75, 127
2, 40, Note_on_c, 1, 79, 127
2, 40, Note_on_c, 1, 84, 127
2, 80, Note_off_c, 1, 55, 0
2, 80, Note_off_c, 1, 72, 0
2, 80, Note_off_c, 1, 75, 0
2, 80, Note_off_c, 1, 79, 0
2, 80, Note_off_c, 1, 84, 0
2, 120, Note_on_c, 1, 40, 127
2, 120, Note_on_c, 1, 48, 127
2, 120, Note_on_c, 1, 56, 127
2, 120, Note_on_c, 1, 60, 127
2, 160, Note_off_c, 1, 40, 0
2, 160, Note_on_c, 1, 41, 127
2, 160, Note_off_c, 1, 48, 0
2, 160, Note_on_c, 1, 50, 127
2, 160, Note_on_c, 1, 53, 127
2, 160, Note_off_c, 1, 56, 0
2, 160, Note_off_c, 1, 60, 0
2, 160, Note_on_c, 1, 81, 127
2, 160, Note_on_c, 1, 86, 127
2, 200, Note_on_c, 1, 35, 127
2, 200, Note_on_c, 1, 39, 127
2, 200, Note_off_c, 1, 41, 0
2, 200, Note_on_c, 1, 47, 127
2, 200, Note_off_c, 1, 53, 0
2, 200, Note_off_c, 1, 81, 0
2, 200, Note_off_c, 1, 86, 0
2, 240, Note_off_c, 1, 35, 0
2, 240, Note_off_c, 1, 39, 0
2, 240, Note_off_c, 1, 47, 0
2, 240, Note_off_c, 1, 50, 0
2, 240, Note_on_c, 1, 64, 127
2, 240, Note_on_c, 1, 78, 127
2, 240, Note_on_c, 1, 81, 127
2, 240, Note_on_c, 1, 83, 127
2, 240, Note_on_c, 1, 90, 127
2, 280, Note_off_c, 1, 64, 0
2, 280, Note_on_c, 1, 76, 127
2, 280, Note_off_c, 1, 78, 0
2, 280, Note_on_c, 1, 80, 127
2, 280, Note_off_c, 1, 81, 0
2, 280, Note_on_c, 1, 89, 127
2, 280, Note_off_c, 1, 90, 0
2, 320, Note_on_c, 1, 64, 127
2, 320, Note_off_c, 1, 76, 0
2, 320, Note_off_c, 1, 80, 0
2, 320, Note_on_c, 1, 81, 127
2, 320, Note_off_c, 1, 89, 0
2, 320, Note_on_c, 1, 90, 127
2, 360, Note_on_c, 1, 52, 127
2, 360, Note_on_c, 1, 59, 127
2, 360, Note_on_c, 1, 62, 127
2, 360, Note_off_c, 1, 64, 0
2, 360, Note_on_c, 1, 80, 127
2, 360, Note_off_c, 1, 81, 0
2, 360, Note_off_c, 1, 83, 0
2, 360, Note_off_c, 1, 90, 0
2, 360, Note_on_c, 1, 91, 127
2, 400, Note_off_c, 1, 52, 0
2, 400, Note_off_c, 1, 59, 0
2, 400, Note_off_c, 1, 62, 0
2, 400, Note_on_c, 1, 64, 127
2, 400, Note_off_c, 1, 80, 0
2, 400, Note_on_c, 1, 85, 127
2, 400, Note_on_c, 1, 88, 127
2, 400, Note_off_c, 1, 91, 0
2, 400, Note_on_c, 1, 92, 127
2, 440, Note_on_c, 1, 38, 127
2, 440, Note_on_c, 1, 45, 127
2, 440, Note_on_c, 1, 47, 127
2, 440, Note_on_c, 1, 56, 127
2, 440, Note_off_c, 1, 64, 0
2, 440, Note_on_c, 1, 68, 127
2, 440, Note_off_c, 1, 85, 0
2, 440, Note_off_c, 1, 88, 0
2, 440, Note_off_c, 1, 92, 0
2, 480, Note_on_c, 1, 32, 127
2, 480, Note_on_c, 1, 37, 127
2, 480, Note_off_c, 1, 38, 0
2, 480, Note_off_c, 1, 47, 0
2, 480, Note_on_c, 1, 48, 127
2, 480, Note_on_c, 1, 54, 127
2, 480, Note_off_c, 1, 56, 0
2, 480, Note_off_c, 1, 68, 0
2, 520, Note_off_c, 1, 32, 0
2, 520, Note_off_c, 1, 37, 0
2, 520, Note_on_c, 1, 43, 127
2, 520, Note_off_c, 1, 45, 0
2, 520, Note_on_c, 1, 46, 127
2, 520, Note_off_c, 1, 48, 0
2, 520, Note_on_c, 1, 51, 127
2, 520, Note_off_c, 1, 54, 0
2, 520, Note_on_c, 1, 55, 127
2, 560, Note_off_c, 1, 43, 0
2, 560, Note_off_c, 1, 46, 0
2, 560, Note_off_c, 1, 51, 0
2, 560, Note_on_c, 1, 53, 127
2, 560, Note_off_c, 1, 55, 0
2, 560, Note_on_c, 1, 85, 127
2, 560, Note_on_c, 1, 92, 127
2, 560, Note_on_c, 1, 95, 127
2, 560, Note_on_c, 1, 97, 127
2, 600, Note_on_c, 1, 44, 127
2, 600, Note_on_c, 1, 52, 127
2, 600, Note_off_c, 1, 53, 0
2, 600, Note_on_c, 1, 72, 127
2, 600, Note_on_c, 1, 76, 127
2, 600, Note_off_c, 1, 85, 0
2, 600, Note_off_c, 1, 92, 0
2, 600, Note_off_c, 1, 95, 0
2, 600, Note_off_c, 1, 97, 0
2, 640, Note_on_c, 1, 35, 127
2, 640, Note_on_c, 1, 39, 127
2, 640, Note_on_c, 1, 42, 127
2, 640, Note_off_c, 1, 44, 0
2, 640, Note_on_c, 1, 47, 127
2, 640, Note_off_c, 1, 52, 0
2, 640, Note_on_c, 1, 54, 127
2, 640, Note_on_c, 1, 57, 127
2, 640, Note_on_c, 1, 63, 127
2, 640, Note_off_c, 1, 72, 0
2, 640, Note_off_c, 1, 76, 0
2, 680, Note_off_c, 1, 35, 0
2, 680, Note_off_c, 1, 39, 0
2, 680, Note_on_c, 1, 41, 127
2, 680, Note_off_c, 1, 42, 0
2, 680, Note_off_c, 1, 54, 0
2, 680, Note_off_c, 1, 57, 0
2, 680, Note_off_c, 1, 63, 0
2, 720, Note_off_c, 1, 47, 0
2, 720, Note_on_c, 1, 51, 127
2, 720, Note_on_c, 1, 53, 127
2, 720, Note_on_c, 1, 72, 127
2, 760, Note_off_c, 1, 41, 0
2, 760, Note_off_c, 1, 51, 0
2, 760, Note_on_c, 1, 52, 127
2, 760, Note_off_c, 1, 53, 0
2, 760, Note_on_c, 1, 56, 127
2, 760, Note_on_c, 1, 62, 127
2, 760, Note_off_c, 1, 72, 0
2, 760, Note_on_c, 1, 78, 127
2, 800, Note_off_c, 1, 52, 0
2, 800, Note_off_c, 1, 56, 0
2, 800, Note_off_c, 1, 62, 0
2, 800, Note_on_c, 1, 73, 127
2, 800, Note_on_c, 1, 81, 127
2, 800, Note_on_c, 1, 93, 127
2, 840, Note_on_c, 1, 53, 127
2, 840, Note_on_c, 1, 59, 127
2, 840, Note_on_c, 1, 63, 127
2, 840, Note_on_c, 1, 68, 127
2, 840, Note_off_c, 1, 73, 0
2, 840, Note_off_c, 1, 78, 0
2, 840, Note_on_c, 1, 80, 127
2, 840, Note_off_c, 1, 81, 0
2, 840, Note_on_c, 1, 83, 127
2, 840, Note_off_c, 1, 93, 0
2, 880, Note_off_c, 1, 59, 0
2, 880, Note_on_c, 1, 60, 127
2, 880, Note_off_c, 1, 68, 0
2, 880, Note_on_c, 1, 70, 127
2, 880, Note_off_c, 1, 80, 0
2, 880, Note_off_c, 1, 83, 0
2, 880, Note_on_c, 1, 99, 127
2, 920, Note_on_c, 1, 47, 127
2, 920, Note_on_c, 1, 52, 127
2, 920, Note_off_c, 1, 53, 0
2, 920, Note_on_c, 1, 55, 127
2, 920, Note_on_c, 1, 59, 127
2, 920, Note_off_c, 1, 60, 0
2, 920, Note_off_c, 1, 63, 0
2, 920, Note_off_c, 1, 70, 0
2, 920, Note_on_c, 1, 88, 127
2, 920, Note_off_c, 1, 99, 0
2, 960, Note_on_c, 1, 28, 127
2, 960, Note_on_c, 1, 40, 127
2, 960, Note_off_c, 1, 52, 0
2, 960, Note_off_c, 1, 55, 0
2, 960, Note_off_c, 1, 59, 0
2, 960, Note_on_c, 1, 66, 127
2, 960, Note_on_c, 1, 67, 127
2, 960, Note_on_c, 1, 71, 127
2, 960, Note_on_c, 1, 76, 127
2, 960, Note_on_c, 1, 78, 127
2, 960, Note_on_c, 1, 79, 127
2, 960, Note_on_c, 1, 83, 127
2, 960, Note_off_c, 1, 88, 0
2, 960, Note_on_c, 1, 90, 127
2, 960, Note_on_c, 1, 91, 127
2, 1000, Note_off_c, 1, 28, 0
2, 1000, Note_on_c, 1, 37, 127
2, 1000, Note_off_c, 1, 40, 0
2, 1000, Note_off_c, 1, 47, 0
2, 1000, Note_on_c, 1, 49, 127
2, 1000, Note_on_c, 1, 54, 127
2, 1000, Note_on_c, 1, 58, 127
2, 1000, Note_off_c, 1, 67, 0
2, 1000, Note_off_c, 1, 71, 0
2, 1000, Note_off_c, 1, 76, 0
2, 1000, Note_off_c, 1, 78, 0
2, 1000, Note_off_c, 1, 79, 0
2, 1000, Note_off_c, 1, 83, 0
2, 1000, Note_off_c, 1, 90, 0
2, 1000, Note_off_c, 1, 91, 0
2, 1040, Note_off_c, 1, 37, 0
2, 1040, Note_on_c, 1, 40, 127
2, 1040, Note_off_c, 1, 49, 0
2, 1040, Note_on_c, 1, 52, 127
2, 1040, Note_off_c, 1, 54, 0
2, 1040, Note_off_c, 1, 58, 0
2, 1040, Note_on_c, 1, 59, 127
2, 1040, Note_on_c, 1, 62, 127
2, 1040, Note_off_c, 1, 66, 0
2, 1040, Note_on_c, 1, 68, 127
2, 1040, Note_on_c, 1, 94, 127
2, 1080, Note_off_c, 1, 40, 0
2, 1080, Note_off_c, 1, 52, 0
2, 1080, Note_on_c, 1, 54, 127
2, 1080, Note_on_c, 1, 65, 127
2, 1080, Note_off_c, 1, 68, 0
2, 1080, Note_off_c, 1, 94, 0
2, 1080, Note_on_c, 1, 101, 127
2, 1080, Note_on_c, 1, 102, 127
2, 1120, Note_off_c, 1, 54, 0
2, 1120, Note_on_c, 1, 56, 127
2, 1120, Note_on_c, 1, 61, 127
2, 1120, Note_off_c, 1, 62, 0
2, 1120, Note_off_c, 1, 65, 0
2, 1120, Note_on_c, 1, 68, 127
2, 1120, Note_off_c, 1, 101, 0
2, 1120, Note_off_c, 1, 102, 0
2, 1160, Note_on_c, 1, 39, 127
2, 1160, Note_on_c, 1, 41, 127
2, 1160, Note_on_c, 1, 44, 127
2, 1160, Note_on_c, 1, 51, 127
2, 1160, Note_off_c, 1, 56, 0
2, 1160, Note_off_c, 1, 59, 0
2, 1160, Note_off_c, 1, 61, 0
2, 1160, Note_off_c, 1, 68, 0
2, 1160, Note_on_c, 1, 75, 127
2, 1200, Note_off_c, 1, 39, 0
2, 1200, Note_off_c, 1, 41, 0
2, 1200, Note_off_c, 1, 44, 0
2, 1200, Note_on_c, 1, 46, 127
2, 1200, Note_off_c, 1, 51, 0
2, 1200, Note_on_c, 1, 65, 127
2, 1200, Note_on_c, 1, 70, 127
2, 1200, Note_on_c, 1, 77, 127
2, 1240, Note_off_c, 1, 46, 0
2, 1240, Note_on_c, 1, 56, 127
2, 1240, Note_off_c, 1, 70, 0
2, 1240, Note_on_c, 1, 71, 127
2, 1240, Note_on_c, 1, 73, 127
2, 1240, Note_on_c, 1, 74, 127
2, 1240, Note_off_c, 1, 75, 0
2, 1240, Note_off_c, 1, 77, 0
2, 1240, Note_on_c, 1, 80, 127
2, 1280, Note_on_c, 1, 40, 127
2, 1280, Note_on_c, 1, 49, 127
2, 1280, Note_off_c, 1, 56, 0
2, 1280, Note_off_c, 1, 65, 0
2, 1280, Note_off_c, 1, 71, 0
2, 1280, Note_off_c, 1, 73, 0
2, 1280, Note_off_c, 1, 74, 0
2, 1280, Note_on_c, 1, 79, 127
2, 1280, Note_off_c, 1, 80, 0
2, 1320, Note_on_c, 1, 24, 127
2, 1320, Note_on_c, 1, 36, 127
2, 1320, Note_off_c, 1, 40, 0
2, 1320, Note_off_c, 1, 49, 0
2, 1320, Note_on_c, 1, 76, 127
2, 1320, Note_off_c, 1, 79, 0
2, 1360, Note_off_c, 1, 24, 0
2, 1360, Note_off_c, 1, 36, 0
2, 1360, Note_on_c, 1, 55, 127
2, 1360, Note_on_c, 1, 72, 127
2, 1360, Note_on_c, 1, 73, 127
2, 1360, Note_off_c, 1, 76, 0
2, 1400, Note_off_c, 1, 55, 0
2, 1400, Note_on_c, 1, 58, 127
2, 1400, Note_on_c, 1, 66, 127
2, 1400, Note_on_c, 1, 70, 127
2, 1400, Note_off_c, 1, 72, 0
2, 1400, Note_on_c, 1, 75, 127
2, 1400, Note_on_c, 1, 85, 127
2, 1600, Note_on_c, 1, 42, 127
2, 1600, Note_on_c, 1, 49, 127
2, 1600, Note_on_c, 1, 54, 127
2, 1600, Note_off_c, 1, 58, 0
2, 1600, Note_off_c, 1, 66, 0
2, 1600, Note_off_c, 1, 70, 0
2, 1600, Note_off_c, 1, 73, 0
2, 1600, Note_off_c, 1, 75, 0
2, 1600, Note_on_c, 1, 82, 127
2, 1600, Note_off_c, 1, 85, 0
2, 1600, Note_on_c, 1, 90, 127
2, 1600, Note_on_c, 1, 94, 127
2, 1640, Note_off_c, 1, 42, 0
2, 1640, Note_off_c, 1, 49, 0
2, 1640, Note_off_c, 1, 54, 0
2, 1640, Note_on_c, 1, 58, 127
2, 1640, Note_on_c, 1, 66, 127
2, 1640, Note_on_c, 1, 70, 127
2, 1640, Note_on_c, 1, 73, 127
2, 1640, Note_on_c, 1, 75, 127
2, 1640, Note_off_c, 1, 82, 0
2, 1640, Note_on_c, 1, 85, 127
2, 1640, Note_off_c, 1, 90, 0
2, 1640, Note_off_c, 1, 94, 0
2, 1680, Note_on_c, 1, 36, 127
2, 1680, Note_on_c, 1, 43, 127
2, 1680, Note_on_c, 1, 48, 127
2, 1680, Note_on_c, 1, 52, 127
2, 1680, Note_off_c, 1, 58, 0
2, 1680, Note_on_c, 1, 60, 127
2, 1680, Note_off_c, 1, 66, 0
2, 1680, Note_off_c, 1, 70, 0
2, 1680, Note_off_c, 1, 73, 0
2, 1680, Note_off_c, 1, 75, 0
2, 1680, Note_off_c, 1, 85, 0
2, 1680, Note_on_c, 1, 87, 127
2, 1720, Note_off_c, 1, 36, 0
2, 1720, Note_off_c, 1, 43, 0
2, 1720, Note_off_c, 1, 48, 0
2, 1720, Note_off_c, 1, 52, 0
2, 1720, Note_on_c, 1, 58, 127
2, 1720, Note_off_c, 1, 60, 0
2, 1720, Note_on_c, 1, 66, 127
2, 1720, Note_on_c, 1, 70, 127
2, 1720, Note_on_c, 1, 73, 127
2, 1720, Note_on_c, 1, 75, 127
2, 1720, Note_on_c, 1, 85, 127
2, 1720, Note_off_c, 1, 87, 0
2, 1760, Note_off_c, 1, 58, 0
2, 1760, Note_off_c, 1, 66, 0
2, 1760, Note_off_c, 1, 70, 0
2, 1760, Note_off_c, 1, 73, 0
2, 1760, Note_off_c, 1, 75, 0
2, 1760, Note_off_c, 1, 85, 0
2, 1800, Note_on_c, 1, 58, 127
2, 1800, Note_on_c, 1, 66, 127
2, 1800, Note_on_c, 1, 70, 127
2, 1800, Note_on_c, 1, 73, 127
2, 1800, Note_on_c, 1, 75, 127
2, 1800, Note_on_c, 1, 85, 127
2, 1840, Note_off_c, 1, 58, 0
2, 1840, Note_on_c, 1, 63, 127
2, 1840, Note_off_c, 1, 66, 0
2, 1840, Note_off_c, 1, 70, 0
2, 1840, Note_on_c, 1, 72, 127
2, 1840, Note_off_c, 1, 73, 0
2, 1840, Note_off_c, 1, 75, 0
2, 1840, Note_off_c, 1, 85, 0
2, 1840, Note_on_c, 1, 91, 127
2, 1880, Note_off_c, 1, 63, 0
2, 1880, Note_off_c, 1, 72, 0
2, 1880, Note_on_c, 1, 73, 127
2, 1880, Note_on_c, 1, 75, 127
2, 1880, Note_off_c, 1, 91, 0
2, 1920, Note_on_c, 1, 34, 127
2, 1920, Note_on_c, 1, 46, 127
2, 1920, Note_on_c, 1, 58, 127
2, 1920, Note_on_c, 1, 65, 127
2, 1920, Note_on_c, 1, 68, 127
2, 1920, Note_off_c, 1, 73, 0
2, 1920, Note_off_c, 1, 75, 0
2, 1960, Note_off_c, 1, 34, 0
2, 1960, Note_on_c, 1, 45, 127
2, 1960, Note_off_c, 1, 46, 0
2, 1960, Note_on_c, 1, 52, 127
2, 1960, Note_on_c, 1, 55, 127
2, 1960, Note_off_c, 1, 58, 0
2, 1960, Note_on_c, 1, 64, 127
2, 1960, Note_off_c, 1, 65, 0
2, 1960, Note_on_c, 1, 67, 127
2, 1960, Note_off_c, 1, 68, 0
2, 1960, Note_on_c, 1, 70, 127
2, 2000, Note_on_c, 1, 42, 127
2, 2000, Note_off_c, 1, 45, 0
2, 2000, Note_on_c, 1, 50, 127
2, 2000, Note_off_c, 1, 52, 0
2, 2000, Note_off_c, 1, 55, 0
2, 2000, Note_on_c, 1, 62, 127
2, 2000, Note_off_c, 1, 64, 0
2, 2000, Note_off_c, 1, 67, 0
2, 2040, Note_off_c, 1, 42, 0
2, 2040, Note_off_c, 1, 50, 0
2, 2040, Note_on_c, 1, 58, 127
2, 2040, Note_off_c, 1, 62, 0
2, 2040, Note_on_c, 1, 63, 127
2, 2040, Note_on_c, 1, 65, 127
2, 2040, Note_off_c, 1, 70, 0
2, 2040, Note_on_c, 1, 73, 127
2, 2080, Note_off_c, 1, 58, 0
2, 2080, Note_off_c, 1, 63, 0
2, 2080, Note_off_c, 1, 65, 0
2, 2080, Note_off_c, 1, 73, 0
2, 2080, Note_on_c, 1, 82, 127
2, 2080, Note_on_c, 1, 94, 127
2, 2080, Note_on_c, 1, 96, 127
2, 2080, Note_on_c, 1, 98, 127
2, 2120, Note_on_c, 1, 49, 127
2, 2120, Note_off_c, 1, 82, 0
2, 2120, Note_on_c, 1, 86, 127
2, 2120, Note_on_c, 1, 90, 127
2, 2120, Note_off_c, 1, 94, 0
2, 2120, Note_off_c, 1, 96, 0
2, 2160, Note_off_c, 1, 49, 0
2, 2160, Note_on_c, 1, 57, 127
2, 2160, Note_on_c, 1, 66, 127
2, 2160, Note_on_c, 1, 69, 127
2, 2160, Note_off_c, 1, 86, 0
2, 2160, Note_on_c, 1, 88, 127
2, 2160, Note_off_c, 1, 98, 0
2, 2200, Note_on_c, 1, 53, 127
2, 2200, Note_off_c, 1, 57, 0
2, 2200, Note_off_c, 1, 66, 0
2, 2200, Note_off_c, 1, 69, 0
2, 2200, Note_on_c, 1, 84, 127
2, 2200, Note_off_c, 1, 88, 0
2, 2200, Note_off_c, 1, 90, 0
2, 2200, Note_on_c, 1, 93, 127
2, 2200, Note_on_c, 1, 96, 127
2, 2240, Note_off_c, 1, 53, 0
2, 2240, Note_on_c, 1, 61, 127
2, 2240, Note_on_c, 1, 75, 127
2, 2240, Note_on_c, 1, 80, 127
2, 2240, Note_off_c, 1, 84, 0
2, 2240, Note_off_c, 1, 93, 0
2, 2240, Note_off_c, 1, 96, 0
2, 2280, Note_on_c, 1, 54, 127
2, 2280, Note_on_c, 1, 57, 127
2, 2280, Note_on_c, 1, 66, 127
2, 2280, Note_off_c, 1, 75, 0
2, 2280, Note_off_c, 1, 80, 0
2, 2280, Note_on_c, 1, 83, 127
2, 2320, Note_on_c, 1, 32, 127
2, 2320, Note_on_c, 1, 35, 127
2, 2320, Note_on_c, 1, 44, 127
2, 2320, Note_off_c, 1, 54, 0
2, 2320, Note_off_c, 1, 57, 0
2, 2320, Note_off_c, 1, 61, 0
2, 2320, Note_off_c, 1, 66, 0
2, 2320, Note_on_c, 1, 82, 127
2, 2320, Note_off_c, 1, 83, 0
2, 2360, Note_off_c, 1, 32, 0
2, 2360, Note_off_c, 1, 35, 0
2, 2360, Note_on_c, 1, 43, 127
2, 2360, Note_off_c, 1, 44, 0
2, 2360, Note_on_c, 1, 49, 127
2, 2360, Note_on_c, 1, 52, 127
2, 2360, Note_on_c, 1, 55, 127
2, 2360, Note_off_c, 1, 82, 0
2, 2360, Note_on_c, 1, 88, 127
2, 2360, Note_on_c, 1, 93, 127
2, 2400, Note_off_c, 1, 43, 0
2, 2400, Note_off_c, 1, 49, 0
2, 2400, Note_off_c, 1, 55, 0
2, 2400, Note_on_c, 1, 59, 127
2, 2400, Note_on_c, 1, 61, 127
2, 2400, Note_on_c, 1, 66, 127
2, 2400, Note_on_c, 1, 69, 127
2, 2400, Note_on_c, 1, 73, 127
2, 2400, Note_off_c, 1, 88, 0
2, 2400, Note_off_c, 1, 93, 0
2, 2440, Note_off_c, 1, 52, 0
2, 2440, Note_off_c, 1, 59, 0
2, 2440, Note_off_c, 1, 61, 0
2, 2440, Note_off_c, 1, 66, 0
2, 2440, Note_off_c, 1, 69, 0
2, 2440, Note_on_c, 1, 71, 127
2, 2440, Note_off_c, 1, 73, 0
2, 2440, Note_on_c, 1, 87, 127
2, 2440, Note_on_c, 1, 99, 127
2, 2440, Note_on_c, 1, 100, 127
2, 2440, Note_on_c, 1, 102, 127
2, 2480, Note_on_c, 1, 48, 127
2, 2480, Note_on_c, 1, 51, 127
2, 2480, Note_on_c, 1, 56, 127
2, 2480, Note_off_c, 1, 71, 0
2, 2480, Note_off_c, 1, 87, 0
2, 2480, Note_on_c, 1, 92, 127
2, 2480, Note_off_c, 1, 99, 0
2, 2480, Note_off_c, 1, 100, 0
2, 2480, Note_off_c, 1, 102, 0
2, 2520, Note_on_c, 1, 35, 127
2, 2520, Note_on_c, 1, 42, 127
2, 2520, Note_off_c, 1, 48, 0
2, 2520, Note_off_c, 1, 51, 0
2, 2520, Note_on_c, 1, 54, 127
2, 2520, Note_off_c, 1, 56, 0
2, 2520, Note_on_c, 1, 74, 127
2, 2520, Note_on_c, 1, 77, 127
2, 2520, Note_on_c, 1, 83, 127
2, 2520, Note_off_c, 1, 92, 0
2, 2560, Note_off_c, 1, 35, 0
2, 2560, Note_off_c, 1, 42, 0
2, 2560, Note_off_c, 1, 54, 0
2, 2560, Note_off_c, 1, 74, 0
2, 2560, Note_off_c, 1, 77, 0
2, 2560, Note_off_c, 1, 83, 0
2, 2560, Note_on_c, 1, 88, 127
2, 2560, Note_on_c, 1, 93, 127
2, 2560, Note_on_c, 1, 97, 127
2, 2600, Note_on_c, 1, 26, 127
2, 2600, Note_on_c, 1, 38, 127
2, 2600, Note_on_c, 1, 72, 127
2, 2600, Note_off_c, 1, 88, 0
2, 2600, Note_off_c, 1, 93, 0
2, 2600, Note_off_c, 1, 97, 0
2, 2640, Note_off_c, 1, 26, 0
2, 2640, Note_on_c, 1, 36, 127
2, 2640, Note_off_c, 1, 38, 0
2, 2640, Note_on_c, 1, 43, 127
2, 2640, Note_on_c, 1, 71, 127
2, 2640, Note_off_c, 1, 72, 0
2, 2640, Note_on_c, 1, 81, 127
2, 2680, Note_off_c, 1, 36, 0
2, 2680, Note_on_c, 1, 38, 127
2, 2680, Note_off_c, 1, 43, 0
2, 2680, Note_on_c, 1, 67, 127
2, 2680, Note_off_c, 1, 71, 0
2, 2680, Note_off_c, 1, 81, 0
2, 2680, Note_on_c, 1, 83, 127
2, 2680, Note_on_c, 1, 86, 127
2, 2680, Note_on_c, 1, 90, 127
2, 2720, Note_off_c, 1, 38, 0
2, 2720, Note_on_c, 1, 50, 127
2, 2720, Note_on_c, 1, 56, 127
2, 2720, Note_on_c, 1, 58, 127
2, 2720, Note_off_c, 1, 67, 0
2, 2720, Note_on_c, 1, 82, 127
2, 2720, Note_off_c, 1, 83, 0
2, 2720, Note_on_c, 1, 85, 127
2, 2720, Note_off_c, 1, 86, 0
2, 2720, Note_off_c, 1, 90, 0
2, 2720, Note_on_c, 1, 94, 127
2, 2760, Note_on_c, 1, 47, 127
2, 2760, Note_on_c, 1, 49, 127
2, 2760, Note_off_c, 1, 50, 0
2, 2760, Note_on_c, 1, 52, 127
2, 2760, Note_on_c, 1, 54, 127
2, 2760, Note_off_c, 1, 56, 0
2, 2760, Note_on_c, 1, 76, 127
2, 2760, Note_off_c, 1, 82, 0
2, 2760, Note_off_c, 1, 85, 0
2, 2760, Note_off_c, 1, 94, 0
2, 2800, Note_on_c, 1, 37, 127
2, 2800, Note_on_c, 1, 41, 127
2, 2800, Note_off_c, 1, 47, 0
2, 2800, Note_off_c, 1, 49, 0
2, 2800, Note_off_c, 1, 52, 0
2, 2800, Note_off_c, 1, 54, 0
2, 2800, Note_off_c, 1, 58, 0
2, 2800, Note_off_c, 1, 76, 0
2, 2800, Note_on_c, 1, 89, 127
2, 2800, Note_on_c, 1, 97, 127
2, 2800, Note_on_c, 1, 101, 127
2, 2840, Note_off_c, 1, 37, 0
2, 2840, Note_off_c, 1, 41, 0
2, 2840, Note_on_c, 1, 59, 127
2, 2840, Note_on_c, 1, 68, 127
2, 2840, Note_on_c, 1, 71, 127
2, 2840, Note_off_c, 1, 89, 0
2, 2840, Note_on_c, 1, 90, 127
2, 2840, Note_on_c, 1, 92, 127
2, 2840, Note_off_c, 1, 97, 0
2, 2840, Note_off_c, 1, 101, 0
2, 2880, Note_off_c, 1, 59, 0
2, 2880, Note_on_c, 1, 65, 127
2, 2880, Note_off_c, 1, 68, 0
2, 2880, Note_off_c, 1, 71, 0
2, 2880, Note_on_c, 1, 74, 127
2, 2880, Note_on_c, 1, 86, 127
2, 2880, Note_on_c, 1, 89, 127
2, 2880, Note_off_c, 1, 90, 0
2, 2880, Note_off_c, 1, 92, 0
2, 2920, Note_on_c, 1, 45, 127
2, 2920, Note_on_c, 1, 57, 127
2, 2920, Note_off_c, 1, 65, 0
2, 2920, Note_off_c, 1, 74, 0
2, 2920, Note_off_c, 1, 86, 0
2, 2920, Note_off_c, 1, 89, 0
2, 2920, Note_on_c, 1, 102, 127
2, 2960, Note_on_c, 1, 27, 127
2, 2960, Note_on_c, 1, 40, 127
2, 2960, Note_off_c, 1, 45, 0
2, 2960, Note_off_c, 1, 57, 0
2, 2960, Note_on_c, 1, 80, 127
2, 2960, Note_on_c, 1, 85, 127
2, 2960, Note_off_c, 1, 102, 0
2, 3000, Note_off_c, 1, 27, 0
2, 3000, Note_off_c, 1, 40, 0
2, 3000, Note_on_c, 1, 75, 127
2, 3000, Note_off_c, 1, 80, 0
2, 3000, Note_on_c, 1, 82, 127
2, 3000, Note_off_c, 1, 85, 0
2, 3000, Note_on_c, 1, 99, 127
2, 3000, Note_on_c, 1, 104, 127
2, 3040, Note_on_c, 1, 50, 127
2, 3040, Note_on_c, 1, 54, 127
2, 3040, Note_on_c, 1, 59, 127
2, 3040, Note_on_c, 1, 62, 127
2, 3040, Note_off_c, 1, 75, 0
2, 3040, Note_off_c, 1, 82, 0
2, 3040, Note_off_c, 1, 99, 0
2, 3080, Note_off_c, 1, 50, 0
2, 3080, Note_off_c, 1, 54, 0
2, 3080, Note_off_c, 1, 59, 0
2, 3080, Note_off_c, 1, 62, 0
2, 3080, Note_on_c, 1, 96, 127
2, 3080, Note_on_c, 1, 97, 127
2, 3080, Note_on_c, 1, 101, 127
2, 3080, Note_on_c, 1, 102, 127
2, 3080, Note_off_c, 1, 104, 0
2, 3120, Note_on_c, 1, 39, 127
2, 3120, Note_off_c, 1, 96, 0
2, 3120, Note_off_c, 1, 97, 0
2, 3120, Note_off_c, 1, 101, 0
2, 3120, Note_off_c, 1, 102, 0
2, 3120, Note_on_c, 1, 103, 127
2, 3160, Note_off_c, 1, 39, 0
2, 3160, Note_on_c, 1, 58, 127
2, 3160, Note_on_c, 1, 66, 127
2, 3160, Note_on_c, 1, 70, 127
2, 3160, Note_on_c, 1, 82, 127
2, 3160, Note_on_c, 1, 85, 127
2, 3160, Note_on_c, 1, 90, 127
2, 3160, Note_on_c, 1, 94, 127
2, 3160, Note_off_c, 1, 103, 0
2, 3200, Note_on_c, 1, 37, 127
2, 3200, Note_on_c, 1, 44, 127
2, 3200, Note_on_c, 1, 53, 127
2, 3200, Note_off_c, 1, 58, 0
2, 3200, Note_on_c, 1, 65, 127
2, 3200, Note_off_c, 1, 66, 0
2, 3200, Note_off_c, 1, 70, 0
2, 3200, Note_on_c, 1, 77, 127
2, 3200, Note_off_c, 1, 82, 0
2, 3200, Note_off_c, 1, 85, 0
2, 3200, Note_off_c, 1, 90, 0
2, 3200, Note_off_c, 1, 94, 0
2, 3240, Note_off_c, 1, 37, 0
2, 3240, Note_off_c, 1, 44, 0
2, 3240, Note_off_c, 1, 53, 0
2, 3240, Note_off_c, 1, 65, 0
2, 3240, Note_off_c, 1, 77, 0
2, 3240, Note_on_c, 1, 78, 127
2, 3240, Note_on_c, 1, 90, 127
2, 3240, Note_on_c, 1, 94, 127
2, 3240, Note_on_c, 1, 96, 127
2, 3280, Note_on_c, 1, 52, 127
2, 3280, Note_on_c, 1, 74, 127
2, 3280, Note_off_c, 1, 78, 0
2, 3280, Note_on_c, 1, 84, 127
2, 3280, Note_off_c, 1, 90, 0
2, 3280, Note_off_c, 1, 94, 0
2, 3280, Note_off_c, 1, 96, 0
2, 3320, Note_on_c, 1, 46, 127
2, 3320, Note_off_c, 1, 52, 0
2, 3320, Note_on_c, 1, 58, 127
2, 3320, Note_off_c, 1, 74, 0
2, 3320, Note_off_c, 1, 84, 0
2, 3320, Note_on_c, 1, 89, 127
2, 3320, Note_on_c, 1, 101, 127
2, 3360, Note_off_c, 1, 46, 0
2, 3360, Note_on_c, 1, 52, 127
2, 3360, Note_on_c, 1, 55, 127
2, 3360, Note_on_c, 1, 60, 127
2, 3360, Note_on_c, 1, 64, 127
2, 3360, Note_on_c, 1, 86, 127
2, 3360, Note_off_c, 1, 89, 0
2, 3360, Note_off_c, 1, 101, 0
2, 3400, Note_on_c, 1, 42, 127
2, 3400, Note_on_c, 1, 44, 127
2, 3400, Note_on_c, 1, 51, 127
2, 3400, Note_off_c, 1, 52, 0
2, 3400, Note_on_c, 1, 54, 127
2, 3400, Note_off_c, 1, 55, 0
2, 3400, Note_on_c, 1, 56, 127
2, 3400, Note_off_c, 1, 58, 0
2, 3400, Note_off_c, 1, 60, 0
2, 3400, Note_off_c, 1, 64, 0
2, 3400, Note_off_c, 1, 86, 0
2, 3440, Note_off_c, 1, 42, 0
2, 3440, Note_off_c, 1, 44, 0
2, 3440, Note_on_c, 1, 50, 127
2, 3440, Note_off_c, 1, 51, 0
2, 3440, Note_off_c, 1, 54, 0
2, 3440, Note_on_c, 1, 55, 127
2, 3440, Note_off_c, 1, 56, 0
2, 3440, Note_on_c, 1, 62, 127
2, 3440, Note_on_c, 1, 65, 127
2, 3440, Note_on_c, 1, 77, 127
2, 3480, Note_off_c, 1, 50, 0
2, 3480, Note_on_c, 1, 53, 127
2, 3480, Note_off_c, 1, 55, 0
2, 3480, Note_off_c, 1, 62, 0
2, 3480, Note_off_c, 1, 65, 0
2, 3480, Note_on_c, 1, 74, 127
2, 3480, Note_on_c, 1, 84, 127
2, 3520, Note_on_c, 1, 52, 127
2, 3520, Note_off_c, 1, 53, 0
2, 3520, Note_on_c, 1, 54, 127
2, 3520, Note_on_c, 1, 61, 127
2, 3520, Note_off_c, 1, 74, 0
2, 3520, Note_off_c, 1, 77, 0
2, 3520, Note_on_c, 1, 83, 127
2, 3520, Note_off_c, 1, 84, 0
2, 3560, Note_on_c, 1, 48, 127
2, 3560, Note_off_c, 1, 54, 0
2, 3560, Note_off_c, 1, 61, 0
2, 3560, Note_on_c, 1, 67, 127
2, 3560, Note_on_c, 1, 73, 127
2, 3560, Note_off_c, 1, 83, 0
2, 3600, Note_off_c, 1, 48, 0
2, 3600, Note_off_c, 1, 52, 0
2, 3600, Note_on_c, 1, 60, 127
2, 3600, Note_off_c, 1, 67, 0
2, 3600, Note_off_c, 1, 73, 0
2, 3600, Note_on_c, 1, 88, 127
2, 3600, Note_on_c, 1, 95, 127
2, 3640, Note_off_c, 1, 60, 0
2, 3640, Note_on_c, 1, 62, 127
2, 3640, Note_on_c, 1, 77, 127
2, 3640, Note_on_c, 1, 82, 127
2, 3640, Note_off_c, 1, 88, 0
2, 3640, Note_off_c, 1, 95, 0
2, 3680, Note_off_c, 1, 62, 0
2, 3680, Note_off_c, 1, 77, 0
2, 3680, Note_off_c, 1, 82, 0
2, 3720, Note_on_c, 1, 61, 127
2, 3720, Note_on_c, 1, 63, 127
2, 3720, Note_on_c, 1, 67, 127
2, 3720, Note_on_c, 1, 70, 127
2, 3720, Note_on_c, 1, 75, 127
2, 3720, Note_on_c, 1, 87, 127
2, 3760, Note_on_c, 1, 53, 127
2, 3760, Note_on_c, 1, 56, 127
2, 3760, Note_on_c, 1, 60, 127
2, 3760, Note_off_c, 1, 61, 0
2, 3760, Note_off_c, 1, 63, 0
2, 3760, Note_on_c, 1, 65, 127
2, 3760, Note_off_c, 1, 67, 0
2, 3760, Note_off_c, 1, 70, 0
2, 3760, Note_off_c, 1, 75, 0
2, 3760, Note_on_c, 1, 84, 127
2, 3760, Note_off_c, 1, 87, 0
2, 3800, Note_off_c, 1, 53, 0
2, 3800, Note_off_c, 1, 56, 0
2, 3800, Note_off_c, 1, 60, 0
2, 3800, Note_on_c, 1, 61, 127
2, 3800, Note_off_c, 1, 65, 0
2, 3800, Note_on_c, 1, 67, 127
2, 3800, Note_on_c, 1, 70, 127
2, 3800, Note_on_c, 1, 73, 127
2, 3800, Note_on_c, 1, 76, 127
2, 3800, Note_on_c, 1, 79, 127
2, 3800, Note_off_c, 1, 84, 0
2, 3840, Note_on_c, 1, 53, 127
2, 3840, Note_off_c, 1, 67, 0
2, 3840, Note_on_c, 1, 68, 127
2, 3840, Note_off_c, 1, 70, 0
2, 3840, Note_on_c, 1, 71, 127
2, 3840, Note_off_c, 1, 76, 0
2, 3840, Note_off_c, 1, 79, 0
2, 3840, Note_on_c, 1, 80, 127
2, 3880, Note_on_c, 1, 60, 127
2, 3880, Note_off_c, 1, 61, 0
2, 3880, Note_off_c, 1, 68, 0
2, 3880, Note_on_c, 1, 69, 127
2, 3880, Note_off_c, 1, 71, 0
2, 3880, Note_off_c, 1, 73, 0
2, 3880, Note_on_c, 1, 78, 127
2, 3880, Note_off_c, 1, 80, 0
2, 3920, Note_on_c, 1, 56, 127
2, 3920, Note_on_c, 1, 65, 127
2, 3920, Note_off_c, 1, 69, 0
2, 3920, Note_off_c, 1, 78, 0
2, 3920, Note_on_c, 1, 82, 127
2, 3960, Note_on_c, 1, 37, 127
2, 3960, Note_off_c, 1, 53, 0
2, 3960, Note_off_c, 1, 56, 0
2, 3960, Note_off_c, 1, 60, 0
2, 3960, Note_on_c, 1, 68, 127
2, 3960, Note_on_c, 1, 72, 127
2, 3960, Note_on_c, 1, 75, 127
2, 3960, Note_off_c, 1, 82, 0
2, 4000, Note_off_c, 1, 37, 0
2, 4000, Note_on_c, 1, 53, 127
2, 4000, Note_on_c, 1, 56, 127
2, 4000, Note_on_c, 1, 60, 127
2, 4000, Note_off_c, 1, 68, 0
2, 4000, Note_off_c, 1, 72, 0
2, 4000, Note_off_c, 1, 75, 0
2, 4000, Note_on_c, 1, 79, 127
2, 4040, Note_off_c, 1, 56, 0
2, 4040, Note_on_c, 1, 58, 127
2, 4040, Note_off_c, 1, 60, 0
2, 4040, Note_on_c, 1, 62, 127
2, 4040, Note_off_c, 1, 65, 0
2, 4040, Note_on_c, 1, 75, 127
2, 4040, Note_on_c, 1, 77, 127
2, 4040, Note_off_c, 1, 79, 0
2, 4080, Note_off_c, 1, 53, 0
2, 4080, Note_on_c, 1, 56, 127
2, 4080, Note_off_c, 1, 58, 0
2, 4080, Note_off_c, 1, 62, 0
2, 4080, Note_on_c, 1, 68, 127
2, 4080, Note_off_c, 1, 75, 0
2, 4080, Note_off_c, 1, 77, 0
2, 4080, Note_on_c, 1, 90, 127
2, 4080, Note_on_c, 1, 103, 127
2, 4120, Note_off_c, 1, 56, 0
2, 4120, Note_on_c, 1, 65, 127
2, 4120, Note_off_c, 1, 68, 0
2, 4120, Note_on_c, 1, 71, 127
2, 4120, Note_on_c, 1, 77, 127
2, 4120, Note_on_c, 1, 86, 127
2, 4120, Note_off_c, 1, 90, 0
2, 4120, Note_off_c, 1, 103, 0
2, 4160, Note_on_c, 1, 49, 127
2, 4160, Note_on_c, 1, 50, 127
2, 4160, Note_off_c, 1, 65, 0
2, 4160, Note_on_c, 1, 68, 127
2, 4160, Note_off_c, 1, 71, 0
2, 4160, Note_on_c, 1, 76, 127
2, 4160, Note_off_c, 1, 77, 0
2, 4160, Note_off_c, 1, 86, 0
2, 4200, Note_off_c, 1, 50, 0
2, 4200, Note_on_c, 1, 53, 127
2, 4200, Note_on_c, 1, 58, 127
2, 4200, Note_off_c, 1, 68, 0
2, 4200, Note_on_c, 1, 75, 127
2, 4200, Note_off_c, 1, 76, 0
2, 4240, Note_off_c, 1, 49, 0
2, 4240, Note_off_c, 1, 53, 0
2, 4240, Note_on_c, 1, 54, 127
2, 4240, Note_off_c, 1, 58, 0
2, 4240, Note_on_c, 1, 66, 127
2, 4240, Note_off_c, 1, 75, 0
2, 4240, Note_on_c, 1, 88, 127
2, 4240, Note_on_c, 1, 101, 127
2, 4280, Note_on_c, 1, 53, 127
2, 4280, Note_off_c, 1, 54, 0
2, 4280, Note_on_c, 1, 57, 127
2, 4280, Note_on_c, 1, 61, 127
2, 4280, Note_on_c, 1, 63, 127
2, 4280, Note_off_c, 1, 66, 0
2, 4280, Note_off_c, 1, 88, 0
2, 4280, Note_off_c, 1, 101, 0
2, 4320, Note_on_c, 1, 52, 127
2, 4320, Note_off_c, 1, 53, 0
2, 4320, Note_off_c, 1, 57, 0
2, 4320, Note_on_c, 1, 59, 127
2, 4320, Note_off_c, 1, 61, 0
2, 4320, Note_on_c, 1, 62, 127
2, 4320, Note_off_c, 1, 63, 0
2, 4320, Note_on_c, 1, 64, 127
2, 4320, Note_on_c, 1, 74, 127
2, 4320, Note_on_c, 1, 76, 127
2, 4320, Note_on_c, 1, 80, 127
2, 4320, Note_on_c, 1, 86, 127
2, 4360, Note_off_c, 1, 52, 0
2, 4360, Note_off_c, 1, 59, 0
2, 4360, Note_off_c, 1, 62, 0
2, 4360, Note_off_c, 1, 64, 0
2, 4360, Note_off_c, 1, 74, 0
2, 4360, Note_on_c, 1, 77, 127
2, 4360, Note_off_c, 1, 80, 0
2, 4360, Note_on_c, 1, 82, 127
2, 4360, Note_on_c, 1, 84, 127
2, 4360, Note_off_c, 1, 86, 0
2, 4400, Note_on_c, 1, 57, 127
2, 4400, Note_on_c, 1, 60, 127
2, 4400, Note_off_c, 1, 76, 0
2, 4400, Note_off_c, 1, 77, 0
2, 4400, Note_off_c, 1, 82, 0
2, 4400, Note_on_c, 1, 86, 127
2, 4440, Note_off_c, 1, 57, 0
2, 4440, Note_off_c, 1, 60, 0
2, 4440, Note_off_c, 1, 84, 0
2, 4440, Note_off_c, 1, 86, 0
2, 4440, Note_on_c, 1, 99, 127
2, 4440, Note_on_c, 1, 103, 127
2, 4480, Note_on_c, 1, 65, 127
2, 4480, Note_on_c, 1, 70, 127
2, 4480, Note_on_c, 1, 74, 127
2, 4480, Note_on_c, 1, 94, 127
2, 4480, Note_on_c, 1, 96, 127
2, 4480, Note_off_c, 1, 99, 0
2, 4480, Note_off_c, 1, 103, 0
2, 4520, Note_off_c, 1, 65, 0
2, 4520, Note_off_c, 1, 70, 0
2, 4520, Note_off_c, 1, 74, 0
2, 4520, Note_on_c, 1, 93, 127
2, 4520, Note_off_c, 1, 94, 0
2, 4520, Note_off_c, 1, 96, 0
2, 4520, Note_on_c, 1, 98, 127
2, 4520, Note_on_c, 1, 103, 127
2, 4560, Note_on_c, 1, 67, 127
2, 4560, Note_on_c, 1, 71, 127
2, 4560, Note_on_c, 1, 74, 127
2, 4560, Note_on_c, 1, 77, 127
2, 4560, Note_off_c, 1, 93, 0
2, 4560, Note_on_c, 1, 97, 127
2, 4560, Note_off_c, 1, 98, 0
2, 4560, Note_off_c, 1, 103, 0
2, 4600, Note_off_c, 1, 67, 0
2, 4600, Note_on_c, 1, 69, 127
2, 4600, Note_off_c, 1, 71, 0
2, 4600, Note_off_c, 1, 74, 0
2, 4600, Note_off_c, 1, 77, 0
2, 4600, Note_off_c, 1, 97, 0
2, 4600, Note_on_c, 1, 101, 127
2, 4640, Note_on_c, 1, 58, 127
2, 4640, Note_on_c, 1, 64, 127
2, 4640, Note_off_c, 1, 69, 0
2, 4640, Note_on_c, 1, 85, 127
2, 4640, Note_on_c, 1, 93, 127
2, 4640, Note_off_c, 1, 101, 0
2, 4680, Note_off_c, 1, 58, 0
2, 4680, Note_off_c, 1, 64, 0
2, 4680, Note_off_c, 1, 85, 0
2, 4680, Note_off_c, 1, 93, 0
2, 4680, Note_on_c, 1, 101, 127
2, 4680, Note_on_c, 1, 102, 127
2, 4720, Note_on_c, 1, 51, 127
2, 4720, Note_on_c, 1, 58, 127
2, 4720, Note_on_c, 1, 61, 127
2, 4720, Note_on_c, 1, 65, 127
2, 4720, Note_on_c, 1, 94, 127
2, 4720, Note_off_c, 1, 101, 0
2, 4720, Note_off_c, 1, 102, 0
2, 4760, Note_off_c, 1, 51, 0
2, 4760, Note_off_c, 1, 58, 0
2, 4760, Note_off_c, 1, 61, 0
2, 4760, Note_off_c, 1, 65, 0
2, 4760, Note_on_c, 1, 81, 127
2, 4760, Note_on_c, 1, 90, 127
2, 4760, Note_off_c, 1, 94, 0
2, 4760, Note_on_c, 1, 97, 127
2, 4800, Note_on_c, 1, 48, 127
2, 4800, Note_on_c, 1, 60, 127
2, 4800, Note_off_c, 1, 81, 0
2, 4800, Note_on_c, 1, 86, 127
2, 4800, Note_off_c, 1, 90, 0
2, 4800, Note_on_c, 1, 94, 127
2, 4800, Note_off_c, 1, 97, 0
2, 4800, Note_on_c, 1, 98, 127
2, 4840, Note_off_c, 1, 48, 0
2, 4840, Note_off_c, 1, 60, 0
2, 4840, Note_on_c, 1, 71, 127
2, 4840, Note_off_c, 1, 86, 0
2, 4840, Note_on_c, 1, 87, 127
2, 4840, Note_off_c, 1, 94, 0
2, 4840, Note_off_c, 1, 98, 0
2, 4840, Note_on_c, 1, 99, 127
2, 4840, Note_on_c, 1, 102, 127
2, 4880, Note_on_c, 1, 34, 127
2, 4880, Note_on_c, 1, 46, 127
2, 4880, Note_on_c, 1, 70, 127
2, 4880, Note_off_c, 1, 71, 0
2, 4880, Note_on_c, 1, 77, 127
2, 4880, Note_on_c, 1, 79, 127
2, 4880, Note_on_c, 1, 82, 127
2, 4880, Note_off_c, 1, 87, 0
2, 4880, Note_off_c, 1, 99, 0
2, 4880, Note_off_c, 1, 102, 0
2, 4920, Note_off_c, 1, 34, 0
2, 4920, Note_off_c, 1, 46, 0
2, 4920, Note_on_c, 1, 54, 127
2, 4920, Note_on_c, 1, 58, 127
2, 4920, Note_on_c, 1, 61, 127
2, 4920, Note_off_c, 1, 70, 0
2, 4920, Note_off_c, 1, 77, 0
2, 4920, Note_on_c, 1, 78, 127
2, 4920, Note_off_c, 1, 79, 0
2, 4920, Note_on_c, 1, 85, 127
2, 4920, Note_on_c, 1, 90, 127
2, 4960, Note_off_c, 1, 54, 0
2, 4960, Note_off_c, 1, 58, 0
2, 4960, Note_on_c, 1, 67, 127
2, 4960, Note_on_c, 1, 71, 127
2, 4960, Note_off_c, 1, 78, 0
2, 4960, Note_off_c, 1, 82, 0
2, 4960, Note_on_c, 1, 83, 127
2, 4960, Note_off_c, 1, 85, 0
2, 4960, Note_on_c, 1, 86, 127
2, 4960, Note_off_c, 1, 90, 0
2, 4960, Note_on_c, 1, 91, 127
2, 4960, Note_on_c, 1, 95, 127
2, 5000, Note_off_c, 1, 61, 0
2, 5000, Note_on_c, 1, 65, 127
2, 5000, Note_off_c, 1, 67, 0
2, 5000, Note_on_c, 1, 69, 127
2, 5000, Note_off_c, 1, 71, 0
2, 5000, Note_on_c, 1, 72, 127
2, 5000, Note_on_c, 1, 75, 127
2, 5000, Note_off_c, 1, 83, 0
2, 5000, Note_off_c, 1, 86, 0
2, 5000, Note_on_c, 1, 90, 127
2, 5000, Note_off_c, 1, 91, 0
2, 5000, Note_off_c, 1, 95, 0
2, 5040, Note_on_c, 1, 38, 127
2, 5040, Note_on_c, 1, 43, 127
2, 5040, Note_on_c, 1, 46, 127
2, 5040, Note_on_c, 1, 52, 127
2, 5040, Note_off_c, 1, 65, 0
2, 5040, Note_on_c, 1, 67, 127
2, 5040, Note_off_c, 1, 69, 0
2, 5040, Note_on_c, 1, 70, 127
2, 5040, Note_off_c, 1, 72, 0
2, 5040, Note_on_c, 1, 73, 127
2, 5040, Note_off_c, 1, 75, 0
2, 5040, Note_on_c, 1, 79, 127
2, 5040, Note_off_c, 1, 90, 0
2, 5080, Note_off_c, 1, 38, 0
2, 5080, Note_off_c, 1, 43, 0
2, 5080, Note_off_c, 1, 46, 0
2, 5080, Note_off_c, 1, 52, 0
2, 5080, Note_off_c, 1, 67, 0
2, 5080, Note_on_c, 1, 72, 127
2, 5080, Note_off_c, 1, 73, 0
2, 5080, Note_on_c, 1, 75, 127
2, 5080, Note_off_c, 1, 79, 0
2, 5080, Note_on_c, 1, 82, 127
2, 5120, Note_on_c, 1, 47, 127
2, 5120, Note_on_c, 1, 51, 127
2, 5120, Note_on_c, 1, 54, 127
2, 5120, Note_off_c, 1, 70, 0
2, 5120, Note_off_c, 1, 72, 0
2, 5120, Note_off_c, 1, 75, 0
2, 5120, Note_off_c, 1, 82, 0
2, 5120, Note_on_c, 1, 87, 127
2, 5120, Note_on_c, 1, 88, 127
2, 5160, Note_on_c, 1, 40, 127
2, 5160, Note_off_c, 1, 47, 0
2, 5160, Note_off_c, 1, 51, 0
2, 5160, Note_off_c, 1, 54, 0
2, 5160, Note_on_c, 1, 65, 127
2, 5160, Note_on_c, 1, 71, 127
2, 5160, Note_on_c, 1, 74, 127
2, 5160, Note_off_c, 1, 87, 0
2, 5160, Note_off_c, 1, 88, 0
2, 5200, Note_on_c, 1, 34, 127
2, 5200, Note_off_c, 1, 40, 0
2, 5200, Note_on_c, 1, 43, 127
2, 5200, Note_off_c, 1, 65, 0
2, 5200, Note_off_c, 1, 71, 0
2, 5200, Note_on_c, 1, 72, 127
2, 5200, Note_off_c, 1, 74, 0
2, 5200, Note_on_c, 1, 81, 127
2, 5200, Note_on_c, 1, 84, 127
2, 5240, Note_off_c, 1, 34, 0
2, 5240, Note_on_c, 1, 50, 127
2, 5240, Note_on_c, 1, 60, 127
2, 5240, Note_on_c, 1, 62, 127
2, 5240, Note_on_c, 1, 69, 127
2, 5240, Note_off_c, 1, 72, 0
2, 5240, Note_off_c, 1, 81, 0
2, 5240, Note_off_c, 1, 84, 0
2, 5280, Note_off_c, 1, 43, 0
2, 5280, Note_off_c, 1, 50, 0
2, 5280, Note_off_c, 1, 60, 0
2, 5280, Note_off_c, 1, 62, 0
2, 5280, Note_off_c, 1, 69, 0
2, 5280, Note_on_c, 1, 72, 127
2, 5280, Note_on_c, 1, 75, 127
2, 5280, Note_on_c, 1, 79, 127
2, 5280, Note_on_c, 1, 86, 127
2, 5320, Note_on_c, 1, 62, 127
2, 5320, Note_on_c, 1, 65, 127
2, 5320, Note_on_c, 1, 70, 127
2, 5320, Note_off_c, 1, 72, 0
2, 5320, Note_off_c, 1, 75, 0
2, 5320, Note_off_c, 1, 79, 0
2, 5320, Note_on_c, 1, 82, 127
2, 5320, Note_off_c, 1, 86, 0
2, 5320, Note_on_c, 1, 94, 127
2, 5360, Note_on_c, 1, 55, 127
2, 5360, Note_on_c, 1, 59, 127
2, 5360, Note_off_c, 1, 62, 0
2, 5360, Note_off_c, 1, 65, 0
2, 5360, Note_on_c, 1, 67, 127
2, 5360, Note_off_c, 1, 70, 0
2, 5360, Note_on_c, 1, 76, 127
2, 5360, Note_on_c, 1, 78, 127
2, 5360, Note_off_c, 1, 82, 0
2, 5360, Note_off_c, 1, 94, 0
2, 5400, Note_on_c, 1, 53, 127
2, 5400, Note_off_c, 1, 55, 0
2, 5400, Note_on_c, 1, 58, 127
2, 5400, Note_off_c, 1, 59, 0
2, 5400, Note_on_c, 1, 61, 127
2, 5400, Note_on_c, 1, 64, 127
2, 5400, Note_off_c, 1, 67, 0
2, 5400, Note_off_c, 1, 76, 0
2, 5400, Note_off_c, 1, 78, 0
2, 5400, Note_on_c, 1, 88, 127
2, 5400, Note_on_c, 1, 89, 127
2, 5400, Note_on_c, 1, 91, 127
2, 5440, Note_on_c, 1, 35, 127
2, 5440, Note_on_c, 1, 42, 127
2, 5440, Note_off_c, 1, 53, 0
2, 5440, Note_off_c, 1, 58, 0
2, 5440, Note_off_c, 1, 61, 0
2, 5440, Note_off_c, 1, 64, 0
2, 5440, Note_on_c, 1, 85, 127
2, 5440, Note_off_c, 1, 88, 0
2, 5440, Note_off_c, 1, 89, 0
2, 5440, Note_off_c, 1, 91, 0
2, 5480, Note_off_c, 1, 35, 0
2, 5480, Note_on_c, 1, 41, 127
2, 5480, Note_off_c, 1, 42, 0
2, 5480, Note_on_c, 1, 53, 127
2, 5480, Note_on_c, 1, 62, 127
2, 5480, Note_on_c, 1, 67, 127
2, 5480, Note_on_c, 1, 71, 127
2, 5480, Note_on_c, 1, 74, 127
2, 5480, Note_off_c, 1, 85, 0
2, 5520, Note_off_c, 1, 41, 0
2, 5520, Note_off_c, 1, 53, 0
2, 5520, Note_off_c, 1, 62, 0
2, 5520, Note_off_c, 1, 67, 0
2, 5520, Note_off_c, 1, 71, 0
2, 5520, Note_off_c, 1, 74, 0
2, 5520, Note_on_c, 1, 82, 127
2, 5520, Note_on_c, 1, 91, 127
2, 5520, Note_on_c, 1, 94, 127
2, 5520, Note_on_c, 1, 97, 127
2, 5560, Note_on_c, 1, 40, 127
2, 5560, Note_on_c, 1, 52, 127
2, 5560, Note_on_c, 1, 59, 127
2, 5560, Note_on_c, 1, 62, 127
2, 5560, Note_on_c, 1, 68, 127
2, 5560, Note_off_c, 1, 82, 0
2, 5560, Note_off_c, 1, 91, 0
2, 5560, Note_on_c, 1, 92, 127
2, 5560, Note_off_c, 1, 94, 0
2, 5560, Note_off_c, 1, 97, 0
2, 5600, Note_off_c, 1, 40, 0
2, 5600, Note_on_c, 1, 45, 127
2, 5600, Note_on_c, 1, 49, 127
2, 5600, Note_off_c, 1, 52, 0
2, 5600, Note_on_c, 1, 57, 127
2, 5600, Note_off_c, 1, 59, 0
2, 5600, Note_off_c, 1, 62, 0
2, 5600, Note_off_c, 1, 68, 0
2, 5600, Note_on_c, 1, 88, 127
2, 5600, Note_off_c, 1, 92, 0
2, 5600, Note_on_c, 1, 97, 127
2, 5600, Note_on_c, 1, 100, 127
2, 5640, Note_off_c, 1, 45, 0
2, 5640, Note_off_c, 1, 49, 0
2, 5640, Note_off_c, 1, 57, 0
2, 5640, Note_off_c, 1, 88, 0
2, 5640, Note_off_c, 1, 97, 0
2, 5640, Note_off_c, 1, 100, 0
2, 5680, Note_on_c, 1, 67, 127
2, 5680, Note_on_c, 1, 79, 127
2, 5680, Note_on_c, 1, 86, 127
2, 5680, Note_on_c, 1, 94, 127
2, 5720, Note_on_c, 1, 43, 127
2, 5720, Note_on_c, 1, 46, 127
2, 5720, Note_on_c, 1, 49, 127
2, 5720, Note_on_c, 1, 52, 127
2, 5720, Note_off_c, 1, 67, 0
2, 5720, Note_off_c, 1, 79, 0
2, 5720, Note_off_c, 1, 86, 0
2, 5720, Note_off_c, 1, 94, 0
2, 5760, Note_on_c, 1, 39, 127
2, 5760, Note_off_c, 1, 43, 0
2, 5760, Note_off_c, 1, 49, 0
2, 5760, Note_off_c, 1, 52, 0
2, 5760, Note_on_c, 1, 54, 127
2, 5760, Note_on_c, 1, 66, 127
2, 5760, Note_on_c, 1, 70, 127
2, 5800, Note_off_c, 1, 39, 0
2, 5800, Note_off_c, 1, 46, 0
2, 5800, Note_on_c, 1, 52, 127
2, 5800, Note_off_c, 1, 54, 0
2, 5800, Note_on_c, 1, 55, 127
2, 5800, Note_on_c, 1, 58, 127
2, 5800, Note_on_c, 1, 61, 127
2, 5800, Note_off_c, 1, 66, 0
2, 5840, Note_off_c, 1, 52, 0
2, 5840, Note_off_c, 1, 55, 0
2, 5840, Note_off_c, 1, 58, 0
2, 5840, Note_off_c, 1, 61, 0
2, 5840, Note_on_c, 1, 65, 127
2, 5840, Note_on_c, 1, 78, 127
2, 5840, Note_on_c, 1, 85, 127
2, 5840, Note_on_c, 1, 90, 127
2, 5880, Note_off_c, 1, 65, 0
2, 5880, Note_off_c, 1, 70, 0
2, 5880, Note_on_c, 1, 72, 127
2, 5880, Note_on_c, 1, 76, 127
2, 5880, Note_off_c, 1, 78, 0
2, 5880, Note_on_c, 1, 84, 127
2, 5880, Note_off_c, 1, 85, 0
2, 5880, Note_off_c, 1, 90, 0
2, 5880, Note_on_c, 1, 91, 127
2, 5880, Note_on_c, 1, 100, 127
2, 5880, Note_on_c, 1, 105, 127
2, 5920, Note_off_c, 1, 72, 0
2, 5920, Note_on_c, 1, 75, 127
2, 5920, Note_off_c, 1, 76, 0
2, 5920, Note_on_c, 1, 78, 127
2, 5920, Note_on_c, 1, 81, 127
2, 5920, Note_off_c, 1, 91, 0
2, 5920, Note_off_c, 1, 100, 0
2, 5920, Note_off_c, 1, 105, 0
2, 5960, Note_on_c, 1, 36, 127
2, 5960, Note_on_c, 1, 62, 127
2, 5960, Note_on_c, 1, 70, 127
2, 5960, Note_off_c, 1, 78, 0
2, 5960, Note_off_c, 1, 81, 0
2, 5960, Note_off_c, 1, 84, 0
2, 6000, Note_off_c, 1, 36, 0
2, 6000, Note_on_c, 1, 50, 127
2, 6000, Note_on_c, 1, 59, 127
2, 6000, Note_on_c, 1, 66, 127
2, 6000, Note_on_c, 1, 71, 127
2, 6000, Note_off_c, 1, 75, 0
2, 6000, Note_on_c, 1, 82, 127
2, 6000, Note_on_c, 1, 94, 127
2, 6040, Note_off_c, 1, 50, 0
2, 6040, Note_off_c, 1, 59, 0
2, 6040, Note_off_c, 1, 62, 0
2, 6040, Note_off_c, 1, 66, 0
2, 6040, Note_on_c, 1, 67, 127
2, 6040, Note_off_c, 1, 70, 0
2, 6040, Note_on_c, 1, 73, 127
2, 6040, Note_on_c, 1, 76, 127
2, 6040, Note_on_c, 1, 79, 127
2, 6040, Note_off_c, 1, 82, 0
2, 6040, Note_on_c, 1, 83, 127
2, 6040, Note_on_c, 1, 88, 127
2, 6040, Note_off_c, 1, 94, 0
2, 6040, Note_on_c, 1, 95, 127
2, 6080, Note_off_c, 1, 67, 0
2, 6080, Note_off_c, 1, 73, 0
2, 6080, Note_off_c, 1, 76, 0
2, 6080, Note_off_c, 1, 79, 0
2, 6080, Note_on_c, 1, 80, 127
2, 6080, Note_on_c, 1, 87, 127
2, 6080, Note_off_c, 1, 88, 0
2, 6120, Note_on_c, 1, 47, 127
2, 6120, Note_on_c, 1, 56, 127
2, 6120, Note_on_c, 1, 64, 127
2, 6120, Note_on_c, 1, 70, 127
2, 6120, Note_off_c, 1, 71, 0
2, 6120, Note_off_c, 1, 80, 0
2, 6120, Note_off_c, 1, 83, 0
2, 6120, Note_off_c, 1, 87, 0
2, 6120, Note_off_c, 1, 95, 0
2, 6160, Note_off_c, 1, 47, 0
2, 6160, Note_off_c, 1, 56, 0
2, 6160, Note_off_c, 1, 64, 0
2, 6160, Note_on_c, 1, 68, 127
2, 6160, Note_off_c, 1, 70, 0
2, 6160, Note_on_c, 1, 72, 127
2, 6160, Note_on_c, 1, 78, 127
2, 6160, Note_on_c, 1, 102, 127
2, 6160, Note_on_c, 1, 104, 127
2, 6200, Note_on_c, 1, 42, 127
2, 6200, Note_on_c, 1, 52, 127
2, 6200, Note_on_c, 1, 59, 127
2, 6200, Note_on_c, 1, 64, 127
2, 6200, Note_off_c, 1, 68, 0
2, 6200, Note_off_c, 1, 72, 0
2, 6200, Note_off_c, 1, 78, 0
2, 6200, Note_off_c, 1, 102, 0
2, 6200, Note_off_c, 1, 104, 0
2, 6240, Note_off_c, 1, 42, 0
2, 6240, Note_off_c, 1, 52, 0
2, 6240, Note_off_c, 1, 59, 0
2, 6240, Note_off_c, 1, 64, 0
2, 6240, Note_on_c, 1, 67, 127
2, 6240, Note_on_c, 1, 70, 127
2, 6240, Note_on_c, 1, 84, 127
2, 6240, Note_on_c, 1, 87, 127
2, 6240, Note_on_c, 1, 93, 127
2, 6280, Note_on_c, 1, 55, 127
2, 6280, Note_on_c, 1, 61, 127
2, 6280, Note_on_c, 1, 64, 127
2, 6280, Note_off_c, 1, 67, 0
2, 6280, Note_on_c, 1, 69, 127
2, 6280, Note_off_c, 1, 70, 0
2, 6280, Note_off_c, 1, 84, 0
2, 6280, Note_on_c, 1, 85, 127
2, 6280, Note_off_c, 1, 87, 0
2, 6280, Note_off_c, 1, 93, 0
2, 6320, Note_on_c, 1, 30, 127
2, 6320, Note_off_c, 1, 55, 0
2, 6320, Note_on_c, 1, 60, 127
2, 6320, Note_off_c, 1, 61, 0
2, 6320, Note_off_c, 1, 64, 0
2, 6320, Note_off_c, 1, 69, 0
2, 6320, Note_off_c, 1, 85, 0
2, 6360, Note_off_c, 1, 30, 0
2, 6360, Note_off_c, 1, 60, 0
2, 6360, Note_on_c, 1, 70, 127
2, 6360, Note_on_c, 1, 78, 127
2, 6360, Note_on_c, 1, 88, 127
2, 6400, Note_on_c, 1, 37, 127
2, 6400, Note_on_c, 1, 42, 127
2, 6400, Note_on_c, 1, 46, 127
2, 6400, Note_on_c, 1, 49, 127
2, 6400, Note_off_c, 1, 70, 0
2, 6400, Note_on_c, 1, 73, 127
2, 6400, Note_off_c, 1, 78, 0
2, 6400, Note_off_c, 1, 88, 0
2, 6440, Note_off_c, 1, 37, 0
2, 6440, Note_on_c, 1, 39, 127
2, 6440, Note_off_c, 1, 42, 0
2, 6440, Note_off_c, 1, 46, 0
2, 6440, Note_off_c, 1, 49, 0
2, 6440, Note_on_c, 1, 55, 127
2, 6440, Note_on_c, 1, 66, 127
2, 6440, Note_off_c, 1, 73, 0
2, 6480, Note_on_c, 1, 25, 127
2, 6480, Note_on_c, 1, 37, 127
2, 6480, Note_off_c, 1, 39, 0
2, 6480, Note_off_c, 1, 55, 0
2, 6480, Note_off_c, 1, 66, 0
2, 6480, Note_on_c, 1, 76, 127
2, 6480, Note_on_c, 1, 83, 127
2, 6520, Note_off_c, 1, 25, 0
2, 6520, Note_off_c, 1, 37, 0
2, 6520, Note_on_c, 1, 51, 127
2, 6520, Note_off_c, 1, 76, 0
2, 6520, Note_off_c, 1, 83, 0
2, 6520, Note_on_c, 1, 91, 127
2, 6520, Note_on_c, 1, 92, 127
2, 6560, Note_off_c, 1, 51, 0
2, 6560, Note_on_c, 1, 67, 127
2, 6560, Note_on_c, 1, 71, 127
2, 6560, Note_on_c, 1, 74, 127
2, 6560, Note_off_c, 1, 91, 0
2, 6560, Note_off_c, 1, 92, 0
2, 6560, Note_on_c, 1, 98, 127
2, 6600, Note_on_c, 1, 41, 127
2, 6600, Note_on_c, 1, 53, 127
2, 6600, Note_on_c, 1, 56, 127
2, 6600, Note_off_c, 1, 67, 0
2, 6600, Note_off_c, 1, 71, 0
2, 6600, Note_on_c, 1, 73, 127
2, 6600, Note_off_c, 1, 74, 0
2, 6600, Note_on_c, 1, 80, 127
2, 6600, Note_off_c, 1, 98, 0
2, 6640, Note_off_c, 1, 41, 0
2, 6640, Note_on_c, 1, 47, 127
2, 6640, Note_on_c, 1, 50, 127
2, 6640, Note_on_c, 1, 55, 127
2, 6640, Note_off_c, 1, 56, 0
2, 6640, Note_off_c, 1, 73, 0
2, 6640, Note_off_c, 1, 80, 0
2, 6640, Note_on_c, 1, 84, 127
2, 6680, Note_on_c, 1, 29, 127
2, 6680, Note_on_c, 1, 41, 127
2, 6680, Note_off_c, 1, 47, 0
2, 6680, Note_off_c, 1, 50, 0
2, 6680, Note_off_c, 1, 53, 0
2, 6680, Note_off_c, 1, 55, 0
2, 6680, Note_off_c, 1, 84, 0
2, 6680, Note_on_c, 1, 94, 127
2, 6720, Note_off_c, 1, 29, 0
2, 6720, Note_off_c, 1, 41, 0
2, 6720, Note_on_c, 1, 65, 127
2, 6720, Note_on_c, 1, 74, 127
2, 6720, Note_on_c, 1, 84, 127
2, 6720, Note_on_c, 1, 93, 127
2, 6720, Note_off_c, 1, 94, 0
2, 6760, Note_on_c, 1, 49, 127
2, 6760, Note_on_c, 1, 52, 127
2, 6760, Note_on_c, 1, 57, 127
2, 6760, Note_on_c, 1, 61, 127
2, 6760, Note_on_c, 1, 63, 127
2, 6760, Note_off_c, 1, 65, 0
2, 6760, Note_off_c, 1, 74, 0
2, 6760, Note_off_c, 1, 84, 0
2, 6760, Note_off_c, 1, 93, 0
2, 6800, Note_off_c, 1, 49, 0
2, 6800, Note_off_c, 1, 52, 0
2, 6800, Note_on_c, 1, 54, 127
2, 6800, Note_off_c, 1, 61, 0
2, 6800, Note_off_c, 1, 63, 0
2, 6800, Note_on_c, 1, 78, 127
2, 6800, Note_on_c, 1, 84, 127
2, 6840, Note_off_c, 1, 54, 0
2, 6840, Note_off_c, 1, 57, 0
2, 6840, Note_off_c, 1, 78, 0
2, 6840, Note_on_c, 1, 82, 127
2, 6840, Note_off_c, 1, 84, 0
2, 6840, Note_on_c, 1, 91, 127
2, 6840, Note_on_c, 1, 94, 127
2, 6840, Note_on_c, 1, 97, 127
2, 6880, Note_on_c, 1, 51, 127
2, 6880, Note_on_c, 1, 59, 127
2, 6880, Note_off_c, 1, 82, 0
2, 6880, Note_on_c, 1, 85, 127
2, 6880, Note_off_c, 1, 91, 0
2, 6880, Note_off_c, 1, 94, 0
2, 6880, Note_off_c, 1, 97, 0
2, 6920, Note_on_c, 1, 47, 127
2, 6920, Note_off_c, 1, 51, 0
2, 6920, Note_off_c, 1, 59, 0
2, 6920, Note_on_c, 1, 69, 127
2, 6920, Note_on_c, 1, 71, 127
2, 6920, Note_on_c, 1, 75, 127
2, 6920, Note_on_c, 1, 78, 127
2, 6920, Note_off_c, 1, 85, 0
2, 6960, Note_off_c, 1, 47, 0
2, 6960, Note_on_c, 1, 52, 127
2, 6960, Note_on_c, 1, 57, 127
2, 6960, Note_on_c, 1, 61, 127
2, 6960, Note_off_c, 1, 69, 0
2, 6960, Note_off_c, 1, 71, 0
2, 6960, Note_off_c, 1, 75, 0
2, 6960, Note_off_c, 1, 78, 0
2, 6960, Note_on_c, 1, 90, 127
2, 7000, Note_off_c, 1, 52, 0
2, 7000, Note_on_c, 1, 54, 127
2, 7000, Note_off_c, 1, 57, 0
2, 7000, Note_on_c, 1, 58, 127
2, 7000, Note_off_c, 1, 61, 0
2, 7000, Note_on_c, 1, 64, 127
2, 7000, Note_on_c, 1, 66, 127
2, 7000, Note_on_c, 1, 78, 127
2, 7000, Note_off_c, 1, 90, 0
2, 7040, Note_off_c, 1, 54, 0
2, 7040, Note_off_c, 1, 58, 0
2, 7040, Note_off_c, 1, 64, 0
2, 7040, Note_off_c, 1, 66, 0
2, 7040, Note_on_c, 1, 70, 127
2, 7040, Note_off_c, 1, 78, 0
2, 7040, Note_on_c, 1, 86, 127
2, 7040, Note_on_c, 1, 98, 127
2, 7040, Note_on_c, 1, 101, 127
2, 7080, Note_on_c, 1, 58, 127
2, 7080, Note_on_c, 1, 61, 127
2, 7080, Note_on_c, 1, 68, 127
2, 7080, Note_off_c, 1, 70, 0
2, 7080, Note_on_c, 1, 75, 127
2, 7080, Note_off_c, 1, 86, 0
2, 7080, Note_off_c, 1, 98, 0
2, 7080, Note_off_c, 1, 101, 0
2, 7120, Note_off_c, 1, 61, 0
2, 7120, Note_on_c, 1, 64, 127
2, 7120, Note_on_c, 1, 66, 127
2, 7120, Note_off_c, 1, 68, 0
2, 7120, Note_off_c, 1, 75, 0
2, 7120, Note_on_c, 1, 76, 127
2, 7120, Note_on_c, 1, 78, 127
2, 7120, Note_on_c, 1, 82, 127
2, 7120, Note_on_c, 1, 87, 127
2, 7160, Note_off_c, 1, 58, 0
2, 7160, Note_off_c, 1, 64, 0
2, 7160, Note_off_c, 1, 66, 0
2, 7160, Note_off_c, 1, 76, 0
2, 7160, Note_on_c, 1, 81, 127
2, 7160, Note_off_c, 1, 82, 0
2, 7160, Note_on_c, 1, 99, 127
2, 7200, Note_on_c, 1, 56, 127
2, 7200, Note_off_c, 1, 78, 0
2, 7200, Note_off_c, 1, 81, 0
2, 7200, Note_on_c, 1, 86, 127
2, 7200, Note_off_c, 1, 99, 0
2, 7240, Note_off_c, 1, 56, 0
2, 7240, Note_off_c, 1, 86, 0
2, 7240, Note_off_c, 1, 87, 0
2, 7240, Note_on_c, 1, 92, 127
2, 7280, Note_on_c, 1, 58, 127
2, 7280, Note_on_c, 1, 61, 127
2, 7280, Note_on_c, 1, 65, 127
2, 7280, Note_off_c, 1, 92, 0
2, 7280, Note_on_c, 1, 94, 127
2, 7280, Note_on_c, 1, 98, 127
2, 7320, Note_on_c, 1, 39, 127
2, 7320, Note_on_c, 1, 54, 127
2, 7320, Note_off_c, 1, 58, 0
2, 7320, Note_on_c, 1, 59, 127
2, 7320, Note_off_c, 1, 61, 0
2, 7320, Note_off_c, 1, 65, 0
2, 7320, Note_on_c, 1, 68, 127
2, 7320, Note_off_c, 1, 94, 0
2, 7320, Note_off_c, 1, 98, 0
2, 7360, Note_off_c, 1, 39, 0
2, 7360, Note_off_c, 1, 54, 0
2, 7360, Note_off_c, 1, 59, 0
2, 7360, Note_off_c, 1, 68, 0
2, 7360, Note_on_c, 1, 69, 127
2, 7360, Note_on_c, 1, 93, 127
2, 7360, Note_on_c, 1, 96, 127
2, 7400, Note_on_c, 1, 52, 127
2, 7400, Note_on_c, 1, 56, 127
2, 7400, Note_on_c, 1, 63, 127
2, 7400, Note_off_c, 1, 69, 0
2, 7400, Note_on_c, 1, 88, 127
2, 7400, Note_off_c, 1, 93, 0
2, 7400, Note_off_c, 1, 96, 0
2, 7440, Note_off_c, 1, 52, 0
2, 7440, Note_off_c, 1, 56, 0
2, 7440, Note_off_c, 1, 63, 0
2, 7440, Note_on_c, 1, 83, 127
2, 7440, Note_on_c, 1, 87, 127
2, 7440, Note_off_c, 1, 88, 0
2, 7440, Note_on_c, 1, 99, 127
2, 7440, Note_on_c, 1, 100, 127
2, 7440, Note_on_c, 1, 102, 127
2, 7480, Note_on_c, 1, 39, 127
2, 7480, Note_on_c, 1, 54, 127
2, 7480, Note_on_c, 1, 59, 127
2, 7480, Note_on_c, 1, 68, 127
2, 7480, Note_off_c, 1, 83, 0
2, 7480, Note_off_c, 1, 87, 0
2, 7480, Note_off_c, 1, 99, 0
2, 7480, Note_off_c, 1, 100, 0
2, 7480, Note_off_c, 1, 102, 0
2, 7520, Note_off_c, 1, 39, 0
2, 7520, Note_off_c, 1, 54, 0
2, 7520, Note_on_c, 1, 57, 127
2, 7520, Note_off_c, 1, 59, 0
2, 7520, Note_off_c, 1, 68, 0
2, 7520, Note_on_c, 1, 69, 127
2, 7520, Note_on_c, 1, 91, 127
2, 7520, Note_on_c, 1, 104, 127
2, 7560, Note_on_c, 1, 37, 127
2, 7560, Note_on_c, 1, 44, 127
2, 7560, Note_on_c, 1, 45, 127
2, 7560, Note_off_c, 1, 57, 0
2, 7560, Note_on_c, 1, 64, 127
2, 7560, Note_on_c, 1, 66, 127
2, 7560, Note_off_c, 1, 69, 0
2, 7560, Note_off_c, 1, 91, 0
2, 7560, Note_off_c, 1, 104, 0
2, 7600, Note_off_c, 1, 37, 0
2, 7600, Note_off_c, 1, 44, 0
2, 7600, Note_off_c, 1, 45, 0
2, 7600, Note_off_c, 1, 64, 0
2, 7600, Note_off_c, 1, 66, 0
2, 7640, Note_on_c, 1, 59, 127
2, 7640, Note_on_c, 1, 62, 127
2, 7640, Note_on_c, 1, 65, 127
2, 7640, Note_on_c, 1, 68, 127
2, 7640, Note_on_c, 1, 82, 127
2, 7640, Note_on_c, 1, 83, 127
2, 7680, Note_on_c, 1, 41, 127
2, 7680, Note_on_c, 1, 53, 127
2, 7680, Note_off_c, 1, 59, 0
2, 7680, Note_off_c, 1, 62, 0
2, 7680, Note_off_c, 1, 65, 0
2, 7680, Note_off_c, 1, 68, 0
2, 7680, Note_on_c, 1, 69, 127
2, 7680, Note_on_c, 1, 73, 127
2, 7680, Note_on_c, 1, 77, 127
2, 7680, Note_off_c, 1, 82, 0
2, 7680, Note_off_c, 1, 83, 0
2, 7720, Note_off_c, 1, 41, 0
2, 7720, Note_on_c, 1, 42, 127
2, 7720, Note_off_c, 1, 53, 0
2, 7720, Note_on_c, 1, 54, 127
2, 7720, Note_on_c, 1, 56, 127
2, 7720, Note_on_c, 1, 61, 127
2, 7720, Note_on_c, 1, 64, 127
2, 7720, Note_off_c, 1, 69, 0
2, 7720, Note_off_c, 1, 73, 0
2, 7720, Note_off_c, 1, 77, 0
2, 7760, Note_off_c, 1, 42, 0
2, 7760, Note_on_c, 1, 46, 127
2, 7760, Note_on_c, 1, 50, 127
2, 7760, Note_off_c, 1, 56, 0
2, 7760, Note_off_c, 1, 61, 0
2, 7760, Note_off_c, 1, 64, 0
2, 7760, Note_on_c, 1, 66, 127
2, 7760, Note_on_c, 1, 74, 127
2, 7760, Note_on_c, 1, 78, 127
2, 7800, Note_on_c, 1, 36, 127
2, 7800, Note_off_c, 1, 46, 0
2, 7800, Note_on_c, 1, 48, 127
2, 7800, Note_off_c, 1, 50, 0
2, 7800, Note_off_c, 1, 54, 0
2, 7800, Note_off_c, 1, 66, 0
2, 7800, Note_off_c, 1, 74, 0
2, 7800, Note_off_c, 1, 78, 0
2, 7800, Note_on_c, 1, 84, 127
2, 7800, Note_on_c, 1, 89, 127
2, 7800, Note_on_c, 1, 92, 127
2, 7800, Note_on_c, 1, 96, 127
2, 7840, Note_off_c, 1, 36, 0
2, 7840, Note_on_c, 1, 52, 127
2, 7840, Note_on_c, 1, 57, 127
2, 7840, Note_on_c, 1, 60, 127
2, 7840, Note_off_c, 1, 84, 0
2, 7840, Note_off_c, 1, 89, 0
2, 7840, Note_off_c, 1, 92, 0
2, 7840, Note_on_c, 1, 99, 127
2, 7880, Note_off_c, 1, 48, 0
2, 7880, Note_off_c, 1, 52, 0
2, 7880, Note_off_c, 1, 57, 0
2, 7880, Note_off_c, 1, 60, 0
2, 7880, Note_on_c, 1, 68, 127
2, 7880, Note_on_c, 1, 77, 127
2, 7880, Note_on_c, 1, 80, 127
2, 7880, Note_off_c, 1, 96, 0
2, 7880, Note_on_c, 1, 97, 127
2, 7920, Note_on_c, 1, 42, 127
2, 7920, Note_on_c, 1, 54, 127
2, 7920, Note_off_c, 1, 68, 0
2, 7920, Note_off_c, 1, 77, 0
2, 7920, Note_off_c, 1, 80, 0
2, 7920, Note_on_c, 1, 83, 127
2, 7920, Note_on_c, 1, 86, 127
2, 7920, Note_on_c, 1, 92, 127
2, 7920, Note_off_c, 1, 97, 0
2, 7920, Note_off_c, 1, 99, 0
2, 7960, Note_off_c, 1, 42, 0
2, 7960, Note_on_c, 1, 49, 127
2, 7960, Note_off_c, 1, 54, 0
2, 7960, Note_on_c, 1, 56, 127
2, 7960, Note_on_c, 1, 59, 127
2, 7960, Note_on_c, 1, 61, 127
2, 7960, Note_on_c, 1, 80, 127
2, 7960, Note_on_c, 1, 85, 127
2, 7960, Note_off_c, 1, 86, 0
2, 7960, Note_off_c, 1, 92, 0
2, 8000, Note_on_c, 1, 54, 127
2, 8000, Note_off_c, 1, 56, 0
2, 8000, Note_on_c, 1, 58, 127
2, 8000, Note_off_c, 1, 59, 0
2, 8000, Note_on_c, 1, 78, 127
2, 8000, Note_off_c, 1, 80, 0
2, 8000, Note_on_c, 1, 82, 127
2, 8000, Note_off_c, 1, 83, 0
2, 8040, Note_on_c, 1, 41, 127
2, 8040, Note_off_c, 1, 49, 0
2, 8040, Note_off_c, 1, 54, 0
2, 8040, Note_off_c, 1, 58, 0
2, 8040, Note_on_c, 1, 60, 127
2, 8040, Note_off_c, 1, 61, 0
2, 8040, Note_on_c, 1, 75, 127
2, 8040, Note_off_c, 1, 78, 0
2, 8040, Note_off_c, 1, 82, 0
2, 8040, Note_off_c, 1, 85, 0
2, 8080, Note_off_c, 1, 41, 0
2, 8080, Note_on_c, 1, 53, 127
2, 8080, Note_off_c, 1, 60, 0
2, 8080, Note_on_c, 1, 74, 127
2, 8080, Note_off_c, 1, 75, 0
2, 8080, Note_on_c, 1, 81, 127
2, 8080, Note_on_c, 1, 83, 127
2, 8120, Note_off_c, 1, 53, 0
2, 8120, Note_on_c, 1, 55, 127
2, 8120, Note_on_c, 1, 67, 127
2, 8120, Note_off_c, 1, 74, 0
2, 8120, Note_off_c, 1, 81, 0
2, 8120, Note_on_c, 1, 82, 127
2, 8120, Note_off_c, 1, 83, 0
2, 8120, Note_on_c, 1, 85, 127
2, 8160, Note_on_c, 1, 34, 127
2, 8160, Note_on_c, 1, 37, 127
2, 8160, Note_on_c, 1, 46, 127
2, 8160, Note_off_c, 1, 55, 0
2, 8160, Note_off_c, 1, 67, 0
2, 8160, Note_on_c, 1, 75, 127
2, 8160, Note_off_c, 1, 82, 0
2, 8160, Note_off_c, 1, 85, 0
2, 8160, Note_on_c, 1, 87, 127
2, 8200, Note_off_c, 1, 34, 0
2, 8200, Note_off_c, 1, 37, 0
2, 8200, Note_off_c, 1, 46, 0
2, 8200, Note_on_c, 1, 57, 127
2, 8200, Note_on_c, 1, 66, 127
2, 8200, Note_on_c, 1, 69, 127
2, 8200, Note_off_c, 1, 75, 0
2, 8200, Note_off_c, 1, 87, 0
2, 8200, Note_on_c, 1, 95, 127
2, 8240, Note_on_c, 1, 56, 127
2, 8240, Note_off_c, 1, 57, 0
2, 8240, Note_on_c, 1, 63, 127
2, 8240, Note_off_c, 1, 69, 0
2, 8240, Note_on_c, 1, 73, 127
2, 8240, Note_on_c, 1, 85, 127
2, 8240, Note_off_c, 1, 95, 0
2, 8280, Note_on_c, 1, 30, 127
2, 8280, Note_on_c, 1, 37, 127
2, 8280, Note_on_c, 1, 42, 127
2, 8280, Note_off_c, 1, 56, 0
2, 8280, Note_off_c, 1, 63, 0
2, 8280, Note_off_c, 1, 66, 0
2, 8280, Note_off_c, 1, 73, 0
2, 8280, Note_on_c, 1, 81, 127
2, 8280, Note_off_c, 1, 85, 0
2, 8320, Note_off_c, 1, 30, 0
2, 8320, Note_off_c, 1, 37, 0
2, 8320, Note_off_c, 1, 42, 0
2, 8320, Note_on_c, 1, 48, 127
2, 8320, Note_on_c, 1, 77, 127
2, 8320, Note_on_c, 1, 80, 127
2, 8320, Note_off_c, 1, 81, 0
2, 8320, Note_on_c, 1, 86, 127
2, 8320, Note_on_c, 1, 89, 127
2, 8360, Note_on_c, 1, 37, 127
2, 8360, Note_off_c, 1, 48, 0
2, 8360, Note_on_c, 1, 55, 127
2, 8360, Note_on_c, 1, 58, 127
2, 8360, Note_on_c, 1, 64, 127
2, 8360, Note_on_c, 1, 67, 127
2, 8360, Note_off_c, 1, 77, 0
2, 8360, Note_off_c, 1, 80, 0
2, 8360, Note_off_c, 1, 86, 0
2, 8360, Note_off_c, 1, 89, 0
2, 8400, Note_on_c, 1, 42, 127
2, 8400, Note_on_c, 1, 46, 127
2, 8400, Note_on_c, 1, 49, 127
2, 8400, Note_off_c, 1, 55, 0
2, 8400, Note_off_c, 1, 58, 0
2, 8400, Note_on_c, 1, 61, 127
2, 8400, Note_off_c, 1, 64, 0
2, 8400, Note_off_c, 1, 67, 0
2, 8400, Note_on_c, 1, 73, 127
2, 8440, Note_on_c, 1, 33, 127
2, 8440, Note_off_c, 1, 37, 0
2, 8440, Note_off_c, 1, 42, 0
2, 8440, Note_on_c, 1, 45, 127
2, 8440, Note_off_c, 1, 46, 0
2, 8440, Note_off_c, 1, 49, 0
2, 8440, Note_off_c, 1, 61, 0
2, 8440, Note_on_c, 1, 67, 127
2, 8440, Note_on_c, 1, 79, 127
2, 8480, Note_off_c, 1, 33, 0
2, 8480, Note_on_c, 1, 40, 127
2, 8480, Note_on_c, 1, 42, 127
2, 8480, Note_off_c, 1, 45, 0
2, 8480, Note_on_c, 1, 49, 127
2, 8480, Note_on_c, 1, 53, 127
2, 8480, Note_off_c, 1, 67, 0
2, 8480, Note_off_c, 1, 73, 0
2, 8480, Note_off_c, 1, 79, 0
2, 8520, Note_off_c, 1, 40, 0
2, 8520, Note_off_c, 1, 42, 0
2, 8520, Note_off_c, 1, 49, 0
2, 8520, Note_off_c, 1, 53, 0
2, 8520, Note_on_c, 1, 57, 127
2, 8520, Note_on_c, 1, 69, 127
2, 8520, Note_on_c, 1, 74, 127
2, 8520, Note_on_c, 1, 76, 127
2, 8520, Note_on_c, 1, 86, 127
2, 8520, Note_on_c, 1, 88, 127
2, 8560, Note_on_c, 1, 42, 127
2, 8560, Note_on_c, 1, 49, 127
2, 8560, Note_off_c, 1, 69, 0
2, 8560, Note_off_c, 1, 74, 0
2, 8560, Note_off_c, 1, 76, 0
2, 8560, Note_on_c, 1, 80, 127
2, 8560, Note_off_c, 1, 86, 0
2, 8560, Note_off_c, 1, 88, 0
2, 8600, Note_off_c, 1, 42, 0
2, 8600, Note_on_c, 1, 45, 127
2, 8600, Note_on_c, 1, 48, 127
2, 8600, Note_off_c, 1, 49, 0
2, 8600, Note_off_c, 1, 57, 0
2, 8600, Note_on_c, 1, 65, 127
2, 8600, Note_on_c, 1, 75, 127
2, 8600, Note_off_c, 1, 80, 0
2, 8640, Note_on_c, 1, 44, 127
2, 8640, Note_off_c, 1, 45, 0
2, 8640, Note_on_c, 1, 51, 127
2, 8640, Note_off_c, 1, 65, 0
2, 8640, Note_on_c, 1, 67, 127
2, 8640, Note_off_c, 1, 75, 0
2, 8680, Note_on_c, 1, 37, 127
2, 8680, Note_off_c, 1, 44, 0
2, 8680, Note_off_c, 1, 48, 0
2, 8680, Note_on_c, 1, 49, 127
2, 8680, Note_off_c, 1, 51, 0
2, 8680, Note_on_c, 1, 65, 127
2, 8680, Note_on_c, 1, 66, 127
2, 8680, Note_off_c, 1, 67, 0
2, 8680, Note_on_c, 1, 68, 127
2, 8680, Note_on_c, 1, 70, 127
2, 8680, Note_on_c, 1, 71, 127
2, 8720, Note_on_c, 1, 34, 127
2, 8720, Note_off_c, 1, 37, 0
2, 8720, Note_on_c, 1, 40, 127
2, 8720, Note_on_c, 1, 46, 127
2, 8720, Note_off_c, 1, 49, 0
2, 8720, Note_off_c, 1, 65, 0
2, 8720, Note_off_c, 1, 66, 0
2, 8720, Note_off_c, 1, 68, 0
2, 8720, Note_off_c, 1, 70, 0
2, 8720, Note_off_c, 1, 71, 0
2, 8760, Note_on_c, 1, 29, 127
2, 8760, Note_off_c, 1, 34, 0
2, 8760, Note_off_c, 1, 40, 0
2, 8760, Note_on_c, 1, 41, 127
2, 8760, Note_off_c, 1, 46, 0
2, 8760, Note_on_c, 1, 79, 127
2, 8760, Note_on_c, 1, 91, 127
2, 8800, Note_off_c, 1, 29, 0
2, 8800, Note_on_c, 1, 39, 127
2, 8800, Note_off_c, 1, 41, 0
2, 8800, Note_on_c, 1, 49, 127
2, 8800, Note_on_c, 1, 51, 127
2, 8800, Note_on_c, 1, 55, 127
2, 8800, Note_on_c, 1, 61, 127
2, 8800, Note_on_c, 1, 63, 127
2, 8800, Note_off_c, 1, 79, 0
2, 8800, Note_off_c, 1, 91, 0
2, 8840, Note_on_c, 1, 36, 127
2, 8840, Note_off_c, 1, 39, 0
2, 8840, Note_on_c, 1, 48, 127
2, 8840, Note_off_c, 1, 49, 0
2, 8840, Note_off_c, 1, 51, 0
2, 8840, Note_off_c, 1, 55, 0
2, 8840, Note_on_c, 1, 58, 127
2, 8840, Note_on_c, 1, 60, 127
2, 8840, Note_off_c, 1, 61, 0
2, 8840, Note_off_c, 1, 63, 0
2, 8840, Note_on_c, 1, 64, 127
2, 8840, Note_on_c, 1, 67, 127
2, 8880, Note_off_c, 1, 36, 0
2, 8880, Note_on_c, 1, 46, 127
2, 8880, Note_off_c, 1, 48, 0
2, 8880, Note_on_c, 1, 50, 127
2, 8880, Note_on_c, 1, 54, 127
2, 8880, Note_on_c, 1, 56, 127
2, 8880, Note_off_c, 1, 60, 0
2, 8880, Note_on_c, 1, 62, 127
2, 8880, Note_off_c, 1, 64, 0
2, 8880, Note_on_c, 1, 66, 127
2, 8880, Note_off_c, 1, 67, 0
2, 8880, Note_on_c, 1, 68, 127
2, 8880, Note_on_c, 1, 70, 127
2, 9000, Note_off_c, 1, 46, 0
2, 9000, Note_off_c, 1, 50, 0
2, 9000, Note_off_c, 1, 54, 0
2, 9000, Note_off_c, 1, 56, 0
2, 9000, Note_off_c, 1, 58, 0
2, 9000, Note_off_c, 1, 62, 0
2, 9000, Note_off_c, 1, 66, 0
2, 9000, Note_off_c, 1, 68, 0
2, 9000, Note_off_c, 1, 70, 0
2, 9000, Note_on_c, 1, 94, 127
2, 9000, Note_on_c, 1, 99, 127
2, 9000, Note_on_c, 1, 101, 127
2, 9040, Note_on_c, 1, 58, 127
2, 9040, Note_on_c, 1, 79, 127
2, 9040, Note_on_c, 1, 82, 127
2, 9040, Note_off_c, 1, 94, 0
2, 9040, Note_off_c, 1, 99, 0
2, 9040, Note_off_c, 1, 101, 0
2, 9080, Note_off_c, 1, 58, 0
2, 9080, Note_on_c, 1, 64, 127
2, 9080, Note_on_c, 1, 67, 127
2, 9080, Note_on_c, 1, 71, 127
2, 9080, Note_off_c, 1, 79, 0
2, 9080, Note_off_c, 1, 82, 0
2, 9080, Note_on_c, 1, 91, 127
2, 9240, Note_on_c, 1, 63, 127
2, 9240, Note_off_c, 1, 64, 0
2, 9240, Note_on_c, 1, 65, 127
2, 9240, Note_off_c, 1, 67, 0
2, 9240, Note_off_c, 1, 71, 0
2, 9240, Note_on_c, 1, 84, 127
2, 9240, Note_off_c, 1, 91, 0
2, 9280, Note_off_c, 1, 63, 0
2, 9280, Note_off_c, 1, 65, 0
2, 9280, Note_on_c, 1, 81, 127
2, 9280, Note_off_c, 1, 84, 0
2, 9320, Note_on_c, 1, 44, 127
2, 9320, Note_on_c, 1, 63, 127
2, 9320, Note_on_c, 1, 65, 127
2, 9320, Note_on_c, 1, 75, 127
2, 9320, Note_off_c, 1, 81, 0
2, 9640, Note_off_c, 1, 44, 0
2, 9640, Note_on_c, 1, 53, 127
2, 9640, Note_on_c, 1, 57, 127
2, 9640, Note_on_c, 1, 59, 127
2, 9640, Note_on_c, 1, 62, 127
2, 9640, Note_off_c, 1, 63, 0
2, 9640, Note_off_c, 1, 65, 0
2, 9640, Note_off_c, 1, 75, 0
2, 9680, Note_off_c, 1, 53, 0
2, 9680, Note_off_c, 1, 57, 0
2, 9680, Note_off_c, 1, 59, 0
2, 9680, Note_off_c, 1, 62, 0
2, 9720, Note_on_c, 1, 44, 127
2, 9720, Note_on_c, 1, 63, 127
2, 9720, Note_on_c, 1, 65, 127
2, 9720, Note_on_c, 1, 75, 127
2, 9800, Note_off_c, 1, 44, 0
2, 9800, Note_on_c, 1, 46, 127
2, 9800, Note_on_c, 1, 53, 127
2, 9800, Note_on_c, 1, 60, 127
2, 9800, Note_off_c, 1, 63, 0
2, 9800, Note_off_c, 1, 75, 0
2, 9840, Note_on_c, 1, 44, 127
2, 9840, Note_off_c, 1, 46, 0
2, 9840, Note_off_c, 1, 53, 0
2, 9840, Note_off_c, 1, 60, 0
2, 9840, Note_on_c, 1, 63, 127
2, 9840, Note_on_c, 1, 75, 127
2, 10120, Note_off_c, 1, 44, 0
2, 10120, Note_off_c, 1, 63, 0
2, 10120, Note_off_c, 1, 65, 0
2, 10120, Note_off_c, 1, 75, 0
2, 10160, Note_on_c, 1, 65, 127
2, 10160, Note_on_c, 1, 74, 127
2, 10160, Note_on_c, 1, 82, 127
2, 10480, Note_off_c, 1, 74, 0
2, 10480, Note_off_c, 1, 82, 0
2, 10520, Note_on_c, 1, 62, 127
2, 10520, Note_off_c, 1, 65, 0
2, 10520, Note_on_c, 1, 66, 127
2, 10520, Note_on_c, 1, 69, 127
2, 10520, Note_on_c, 1, 72, 127
2, 10520, Note_on_c, 1, 74, 127
2, 10520, Note_on_c, 1, 81, 127
2, 10880, Note_off_c, 1, 62, 0
2, 10880, Note_off_c, 1, 66, 0
2, 10880, Note_off_c, 1, 69, 0
2, 10880, Note_off_c, 1, 72, 0
2, 10880, Note_off_c, 1, 74, 0
2, 10880, Note_off_c, 1, 81, 0
2, 10920, Note_on_c, 1, 62, 127
2, 10920, Note_on_c, 1, 66, 127
2, 10920, Note_on_c, 1, 69, 127
2, 10920, Note_on_c, 1, 72, 127
2, 10920, Note_on_c, 1, 74, 127
2, 10920, Note_on_c, 1, 81, 127
2, 11160, Note_on_c, 1, 44, 127
2, 11160, Note_off_c, 1, 62, 0
2, 11160, Note_off_c, 1, 66, 0
2, 11160, Note_off_c, 1, 69, 0
2, 11160, Note_off_c, 1, 74, 0
2, 11160, Note_on_c, 1, 75, 127
2, 11160, Note_off_c, 1, 81, 0
2, 11200, Note_off_c, 1, 44, 0
2, 11200, Note_on_c, 1, 62, 127
2, 11200, Note_on_c, 1, 68, 127
2, 11200, Note_off_c, 1, 72, 0
2, 11200, Note_off_c, 1, 75, 0
2, 11200, Note_on_c, 1, 86, 127
2, 11200, Note_on_c, 1, 89, 127
2, 11240, Note_on_c, 1, 51, 127
2, 11240, Note_off_c, 1, 62, 0
2, 11240, Note_off_c, 1, 68, 0
2, 11240, Note_off_c, 1, 86, 0
2, 11240, Note_off_c, 1, 89, 0
2, 11240, Note_on_c, 1, 92, 127
2, 11240, Note_on_c, 1, 95, 127
2, 11280, Note_off_c, 1, 51, 0
2, 11280, Note_off_c, 1, 92, 0
2, 11280, Note_off_c, 1, 95, 0
2, 11320, Note_on_c, 1, 51, 127
2, 11320, Note_on_c, 1, 60, 127
2, 11320, Note_on_c, 1, 68, 127
2, 11320, Note_on_c, 1, 80, 127
2, 11720, Note_off_c, 1, 51, 0
2, 11720, Note_off_c, 1, 60, 0
2, 11720, Note_off_c, 1, 68, 0
2, 11720, Note_off_c, 1, 80, 0
2, 11760, Note_on_c, 1, 51, 127
2, 11760, Note_on_c, 1, 60, 127
2, 11760, Note_on_c, 1, 68, 127
2, 11760, Note_on_c, 1, 80, 127
2, 12480, Note_off_c, 1, 51, 0
2, 12480, Note_off_c, 1, 60, 0
2, 12480, Note_off_c, 1, 68, 0
2, 12480, Note_off_c, 1, 80, 0
2, 12520, Note_on_c, 1, 62, 127
2, 12520, Note_on_c, 1, 65, 127
2, 12520, Note_on_c, 1, 74, 127
2, 12520, Note_on_c, 1, 77, 127
2, 13680, Note_off_c, 1, 62, 0
2, 13680, Note_off_c, 1, 65, 0
2, 13680, Note_off_c, 1, 74, 0
2, 13680, Note_off_c, 1, 77, 0
2, 13720, Note_on_c, 1, 60, 127
2, 13720, Note_on_c, 1, 63, 127
2, 13720, Note_on_c, 1, 72, 127
2, 13720, Note_on_c, 1, 79, 127
2, 14000, Note_off_c, 1, 60, 0
2, 14000, Note_off_c, 1, 63, 0
2, 14000, Note_off_c, 1, 72, 0
2, 14000, Note_off_c, 1, 79, 0
2, 14040, Note_on_c, 1, 60, 127
2, 14040, Note_on_c, 1, 63, 127
2, 14040, Note_on_c, 1, 72, 127
2, 14040, Note_on_c, 1, 79, 127
2, 14280, Note_off_c, 1, 79, 0
2, 14320, Note_off_c, 1, 60, 0
2, 14320, Note_on_c, 1, 61, 127
2, 14320, Note_off_c, 1, 63, 0
2, 14320, Note_on_c, 1, 64, 127
2, 14320, Note_on_c, 1, 70, 127
2, 14320, Note_off_c, 1, 72, 0
2, 14320, Note_on_c, 1, 77, 127
2, 14480, Note_off_c, 1, 61, 0
2, 14480, Note_off_c, 1, 64, 0
2, 14480, Note_off_c, 1, 70, 0
2, 14480, Note_off_c, 1, 77, 0
2, 14520, Note_on_c, 1, 50, 127
2, 14520, Note_on_c, 1, 60, 127
2, 14520, Note_on_c, 1, 66, 127
2, 14520, Note_on_c, 1, 69, 127
2, 15040, Note_off_c, 1, 50, 0
2, 15040, Note_on_c, 1, 54, 127
2, 15040, Note_off_c, 1, 60, 0
2, 15040, Note_on_c, 1, 62, 127
2, 15040, Note_off_c, 1, 66, 0
2, 15040, Note_off_c, 1, 69, 0
2, 15040, Note_on_c, 1, 78, 127
2, 15080, Note_on_c, 1, 50, 127
2, 15080, Note_off_c, 1, 54, 0
2, 15080, Note_on_c, 1, 60, 127
2, 15080, Note_off_c, 1, 62, 0
2, 15080, Note_on_c, 1, 66, 127
2, 15080, Note_on_c, 1, 74, 127
2, 15080, Note_off_c, 1, 78, 0
2, 15240, Note_off_c, 1, 50, 0
2, 15240, Note_off_c, 1, 60, 0
2, 15240, Note_off_c, 1, 66, 0
2, 15240, Note_off_c, 1, 74, 0
2, 15720, Note_on_c, 1, 59, 127
2, 15720, Note_on_c, 1, 62, 127
2, 15720, Note_on_c, 1, 65, 127
2, 15720, Note_on_c, 1, 69, 127
2, 15720, Note_on_c, 1, 71, 127
2, 15720, Note_on_c, 1, 74, 127
2, 15720, Note_on_c, 1, 77, 127
2, 15720, Note_on_c, 1, 81, 127
2, 16200, Note_off_c, 1, 59, 0
2, 16200, Note_off_c, 1, 62, 0
2, 16200, Note_off_c, 1, 65, 0
2, 16200, Note_off_c, 1, 69, 0
2, 16200, Note_off_c, 1, 71, 0
2, 16200, Note_off_c, 1, 74, 0
2, 16200, Note_off_c, 1, 77, 0
2, 16200, Note_off_c, 1, 81, 0
2, 16240, Note_on_c, 1, 59, 127
2, 16240, Note_on_c, 1, 62, 127
2, 16240, Note_on_c, 1, 65, 127
2, 16240, Note_on_c, 1, 69, 127
2, 16240, Note_on_c, 1, 71, 127
2, 16240, Note_on_c, 1, 74, 127
2, 16240, Note_on_c, 1, 77, 127
2, 16240, Note_on_c, 1, 81, 127
2, 18000, Note_on_c, 1, 56, 127
2, 18000, Note_off_c, 1, 69, 0
2, 18000, Note_off_c, 1, 71, 0
2, 18000, Note_off_c, 1, 74, 0
2, 18000, Note_off_c, 1, 81, 0
2, 18040, Note_on_c, 1, 50, 127
2, 18040, Note_on_c, 1, 52, 127
2, 18040, Note_off_c, 1, 56, 0
2, 18040, Note_off_c, 1, 59, 0
2, 18040, Note_off_c, 1, 62, 0
2, 18040, Note_off_c, 1, 65, 0
2, 18040, Note_on_c, 1, 67, 127
2, 18040, Note_on_c, 1, 76, 127
2, 18040, Note_off_c, 1, 77, 0
2, 18080, Note_off_c, 1, 50, 0
2, 18080, Note_on_c, 1, 55, 127
2, 18080, Note_off_c, 1, 67, 0
2, 18080, Note_on_c, 1, 79, 127
2, 18120, Note_off_c, 1, 52, 0
2, 18120, Note_off_c, 1, 55, 0
2, 18120, Note_off_c, 1, 76, 0
2, 18120, Note_off_c, 1, 79, 0
2, 18160, Note_on_c, 1, 48, 127
2, 18160, Note_on_c, 1, 52, 127
2, 18160, Note_on_c, 1, 79, 127
2, 18200, Note_off_c, 1, 79, 0
2, 18280, Note_on_c, 1, 76, 127
2, 18360, Note_off_c, 1, 48, 0
2, 18360, Note_off_c, 1, 52, 0
2, 18360, Note_off_c, 1, 76, 0
2, 18400, Note_on_c, 1, 55, 127
2, 18400, Note_on_c, 1, 62, 127
2, 18400, Note_on_c, 1, 71, 127
2, 18400, Note_on_c, 1, 79, 127
2, 18400, Note_on_c, 1, 83, 127
2, 18440, Note_on_c, 1, 48, 127
2, 18440, Note_on_c, 1, 52, 127
2, 18440, Note_off_c, 1, 55, 0
2, 18440, Note_off_c, 1, 62, 0
2, 18440, Note_off_c, 1, 71, 0
2, 18440, Note_on_c, 1, 72, 127
2, 18440, Note_off_c, 1, 79, 0
2, 18440, Note_off_c, 1, 83, 0
2, 18480, Note_off_c, 1, 72, 0
2, 18480, Note_on_c, 1, 76, 127
2, 18720, Note_off_c, 1, 76, 0
2, 18720, Note_on_c, 1, 79, 127
2, 18760, Note_on_c, 1, 76, 127
2, 18760, Note_off_c, 1, 79, 0
2, 19080, Note_off_c, 1, 76, 0
2, 19080, Note_on_c, 1, 79, 127
2, 19120, Note_on_c, 1, 43, 127
2, 19120, Note_on_c, 1, 46, 127
2, 19120, Note_off_c, 1, 48, 0
2, 19120, Note_off_c, 1, 52, 0
2, 19120, Note_on_c, 1, 55, 127
2, 19120, Note_on_c, 1, 69, 127
2, 19120, Note_off_c, 1, 79, 0
2, 19160, Note_off_c, 1, 43, 0
2, 19160, Note_off_c, 1, 46, 0
2, 19160, Note_off_c, 1, 55, 0
2, 19160, Note_on_c, 1, 59, 127
2, 19160, Note_off_c, 1, 69, 0
2, 19160, Note_on_c, 1, 71, 127
2, 19160, Note_on_c, 1, 76, 127
2, 19160, Note_on_c, 1, 78, 127
2, 19160, Note_on_c, 1, 88, 127
2, 19160, Note_on_c, 1, 90, 127
2, 19200, Note_off_c, 1, 59, 0
2, 19200, Note_off_c, 1, 71, 0
2, 19200, Note_on_c, 1, 72, 127
2, 19200, Note_on_c, 1, 74, 127
2, 19200, Note_off_c, 1, 76, 0
2, 19200, Note_off_c, 1, 78, 0
2, 19200, Note_on_c, 1, 81, 127
2, 19200, Note_off_c, 1, 88, 0
2, 19200, Note_off_c, 1, 90, 0
2, 19200, Note_on_c, 1, 100, 127
2, 19240, Note_off_c, 1, 72, 0
2, 19240, Note_off_c, 1, 74, 0
2, 19240, Note_off_c, 1, 81, 0
2, 19240, Note_on_c, 1, 84, 127
2, 19240, Note_on_c, 1, 96, 127
2, 19240, Note_on_c, 1, 98, 127
2, 19280, Note_on_c, 1, 45, 127
2, 19280, Note_on_c, 1, 50, 127
2, 19280, Note_on_c, 1, 53, 127
2, 19280, Note_on_c, 1, 65, 127
2, 19280, Note_on_c, 1, 69, 127
2, 19280, Note_on_c, 1, 77, 127
2, 19280, Note_off_c, 1, 84, 0
2, 19280, Note_off_c, 1, 96, 0
2, 19280, Note_off_c, 1, 98, 0
2, 19280, Note_off_c, 1, 100, 0
2, 19320, Note_off_c, 1, 45, 0
2, 19320, Note_off_c, 1, 50, 0
2, 19320, Note_off_c, 1, 53, 0
2, 19320, Note_on_c, 1, 54, 127
2, 19320, Note_on_c, 1, 59, 127
2, 19320, Note_on_c, 1, 62, 127
2, 19320, Note_off_c, 1, 65, 0
2, 19320, Note_off_c, 1, 69, 0
2, 19320, Note_on_c, 1, 74, 127
2, 19320, Note_off_c, 1, 77, 0
2, 19320, Note_on_c, 1, 86, 127
2, 19360, Note_on_c, 1, 48, 127
2, 19360, Note_on_c, 1, 52, 127
2, 19360, Note_off_c, 1, 54, 0
2, 19360, Note_off_c, 1, 59, 0
2, 19360, Note_off_c, 1, 62, 0
2, 19360, Note_off_c, 1, 74, 0
2, 19360, Note_on_c, 1, 76, 127
2, 19360, Note_off_c, 1, 86, 0
2, 19400, Note_on_c, 1, 30, 127
2, 19400, Note_on_c, 1, 35, 127
2, 19400, Note_on_c, 1, 37, 127
2, 19400, Note_off_c, 1, 48, 0
2, 19400, Note_off_c, 1, 52, 0
2, 19400, Note_on_c, 1, 72, 127
2, 19400, Note_off_c, 1, 76, 0
2, 19440, Note_off_c, 1, 30, 0
2, 19440, Note_off_c, 1, 35, 0
2, 19440, Note_off_c, 1, 37, 0
2, 19440, Note_on_c, 1, 59, 127
2, 19440, Note_on_c, 1, 62, 127
2, 19440, Note_on_c, 1, 65, 127
2, 19440, Note_off_c, 1, 72, 0
2, 19440, Note_on_c, 1, 78, 127
2, 19440, Note_on_c, 1, 87, 127
2, 19480, Note_on_c, 1, 44, 127
2, 19480, Note_on_c, 1, 53, 127
2, 19480, Note_on_c, 1, 56, 127
2, 19480, Note_off_c, 1, 59, 0
2, 19480, Note_off_c, 1, 62, 0
2, 19480, Note_off_c, 1, 65, 0
2, 19480, Note_off_c, 1, 78, 0
2, 19480, Note_on_c, 1, 80, 127
2, 19480, Note_off_c, 1, 87, 0
2, 19520, Note_off_c, 1, 44, 0
2, 19520, Note_on_c, 1, 46, 127
2, 19520, Note_on_c, 1, 52, 127
2, 19520, Note_off_c, 1, 53, 0
2, 19520, Note_off_c, 1, 56, 0
2, 19520, Note_on_c, 1, 58, 127
2, 19520, Note_on_c, 1, 73, 127
2, 19520, Note_off_c, 1, 80, 0
2, 19520, Note_on_c, 1, 85, 127
2, 19560, Note_off_c, 1, 46, 0
2, 19560, Note_off_c, 1, 52, 0
2, 19560, Note_off_c, 1, 58, 0
2, 19560, Note_off_c, 1, 73, 0
2, 19560, Note_on_c, 1, 83, 127
2, 19560, Note_off_c, 1, 85, 0
2, 19560, Note_on_c, 1, 90, 127
2, 19560, Note_on_c, 1, 95, 127
2, 19600, Note_on_c, 1, 77, 127
2, 19600, Note_on_c, 1, 86, 127
2, 19600, Note_off_c, 1, 90, 0
2, 19600, Note_on_c, 1, 92, 127
2, 19600, Note_off_c, 1, 95, 0
2, 19640, Note_on_c, 1, 45, 127
2, 19640, Note_on_c, 1, 62, 127
2, 19640, Note_on_c, 1, 66, 127
2, 19640, Note_on_c, 1, 71, 127
2, 19640, Note_off_c, 1, 77, 0
2, 19640, Note_off_c, 1, 83, 0
2, 19640, Note_off_c, 1, 86, 0
2, 19640, Note_off_c, 1, 92, 0
2, 19680, Note_on_c, 1, 37, 127
2, 19680, Note_off_c, 1, 45, 0
2, 19680, Note_on_c, 1, 56, 127
2, 19680, Note_off_c, 1, 62, 0
2, 19680, Note_off_c, 1, 66, 0
2, 19680, Note_off_c, 1, 71, 0
2, 19680, Note_on_c, 1, 76, 127
2, 19720, Note_off_c, 1, 37, 0
2, 19720, Note_off_c, 1, 56, 0
2, 19720, Note_on_c, 1, 62, 127
2, 19720, Note_on_c, 1, 71, 127
2, 19720, Note_on_c, 1, 74, 127
2, 19720, Note_off_c, 1, 76, 0
2, 19720, Note_on_c, 1, 86, 127
2, 19720, Note_on_c, 1, 95, 127
2, 19720, Note_on_c, 1, 98, 127
2, 19760, Note_off_c, 1, 62, 0
2, 19760, Note_off_c, 1, 71, 0
2, 19760, Note_off_c, 1, 74, 0
2, 19760, Note_off_c, 1, 86, 0
2, 19760, Note_off_c, 1, 95, 0
2, 19760, Note_off_c, 1, 98, 0
2, 19800, Note_on_c, 1, 44, 127
2, 19800, Note_on_c, 1, 49, 127
2, 19800, Note_on_c, 1, 50, 127
2, 19800, Note_on_c, 1, 53, 127
2, 19800, Note_on_c, 1, 59, 127
2, 19800, Note_on_c, 1, 60, 127
2, 19800, Note_on_c, 1, 65, 127
2, 19800, Note_on_c, 1, 71, 127
2, 19840, Note_off_c, 1, 44, 0
2, 19840, Note_off_c, 1, 49, 0
2, 19840, Note_off_c, 1, 50, 0
2, 19840, Note_off_c, 1, 53, 0
2, 19840, Note_off_c, 1, 59, 0
2, 19840, Note_off_c, 1, 65, 0
2, 19840, Note_on_c, 1, 67, 127
2, 19840, Note_off_c, 1, 71, 0
2, 19840, Note_on_c, 1, 75, 127
2, 19840, Note_on_c, 1, 79, 127
2, 19840, Note_on_c, 1, 86, 127
2, 19960, Note_off_c, 1, 60, 0
2, 19960, Note_off_c, 1, 67, 0
2, 19960, Note_off_c, 1, 75, 0
2, 19960, Note_off_c, 1, 79, 0
2, 19960, Note_off_c, 1, 86, 0
2, 20000, Note_on_c, 1, 44, 127
2, 20000, Note_on_c, 1, 48, 127
2, 20000, Note_on_c, 1, 56, 127
2, 20000, Note_on_c, 1, 72, 127
2, 20000, Note_on_c, 1, 77, 127
2, 20000, Note_on_c, 1, 84, 127
2, 20040, Note_off_c, 1, 44, 0
2, 20040, Note_on_c, 1, 47, 127
2, 20040, Note_off_c, 1, 48, 0
2, 20040, Note_off_c, 1, 56, 0
2, 20040, Note_off_c, 1, 72, 0
2, 20040, Note_off_c, 1, 77, 0
2, 20040, Note_off_c, 1, 84, 0
2, 20040, Note_on_c, 1, 85, 127
2, 20040, Note_on_c, 1, 90, 127
2, 20040, Note_on_c, 1, 97, 127
2, 20080, Note_on_c, 1, 44, 127
2, 20080, Note_off_c, 1, 47, 0
2, 20080, Note_on_c, 1, 48, 127
2, 20080, Note_on_c, 1, 56, 127
2, 20080, Note_on_c, 1, 72, 127
2, 20080, Note_on_c, 1, 77, 127
2, 20080, Note_on_c, 1, 84, 127
2, 20080, Note_off_c, 1, 85, 0
2, 20080, Note_off_c, 1, 90, 0
2, 20080, Note_off_c, 1, 97, 0
2, 20120, Note_off_c, 1, 44, 0
2, 20120, Note_off_c, 1, 48, 0
2, 20120, Note_off_c, 1, 56, 0
2, 20160, Note_on_c, 1, 53, 127
2, 20160, Note_on_c, 1, 58, 127
2, 20160, Note_on_c, 1, 65, 127
2, 20160, Note_off_c, 1, 72, 0
2, 20160, Note_on_c, 1, 74, 127
2, 20160, Note_off_c, 1, 77, 0
2, 20160, Note_on_c, 1, 79, 127
2, 20160, Note_off_c, 1, 84, 0
2, 20200, Note_on_c, 1, 29, 127
2, 20200, Note_on_c, 1, 47, 127
2, 20200, Note_off_c, 1, 53, 0
2, 20200, Note_off_c, 1, 58, 0
2, 20200, Note_off_c, 1, 65, 0
2, 20200, Note_off_c, 1, 74, 0
2, 20200, Note_off_c, 1, 79, 0
2, 20240, Note_off_c, 1, 29, 0
2, 20240, Note_off_c, 1, 47, 0
2, 20240, Note_on_c, 1, 77, 127
2, 20240, Note_on_c, 1, 83, 127
2, 20280, Note_on_c, 1, 48, 127
2, 20280, Note_on_c, 1, 55, 127
2, 20280, Note_on_c, 1, 58, 127
2, 20280, Note_on_c, 1, 65, 127
2, 20280, Note_on_c, 1, 72, 127
2, 20280, Note_off_c, 1, 83, 0
2, 20320, Note_off_c, 1, 48, 0
2, 20320, Note_off_c, 1, 55, 0
2, 20320, Note_off_c, 1, 58, 0
2, 20320, Note_on_c, 1, 62, 127
2, 20320, Note_on_c, 1, 67, 127
2, 20320, Note_off_c, 1, 72, 0
2, 20320, Note_on_c, 1, 74, 127
2, 20320, Note_off_c, 1, 77, 0
2, 20360, Note_on_c, 1, 50, 127
2, 20360, Note_off_c, 1, 62, 0
2, 20360, Note_off_c, 1, 67, 0
2, 20360, Note_on_c, 1, 68, 127
2, 20360, Note_off_c, 1, 74, 0
2, 20360, Note_on_c, 1, 77, 127
2, 20400, Note_off_c, 1, 50, 0
2, 20400, Note_off_c, 1, 65, 0
2, 20400, Note_off_c, 1, 68, 0
2, 20400, Note_off_c, 1, 77, 0
2, 20440, Note_on_c, 1, 74, 127
2, 20440, Note_on_c, 1, 77, 127
2, 20480, Note_on_c, 1, 55, 127
2, 20480, Note_on_c, 1, 69, 127
2, 20480, Note_on_c, 1, 73, 127
2, 20480, Note_off_c, 1, 74, 0
2, 20480, Note_on_c, 1, 76, 127
2, 20480, Note_off_c, 1, 77, 0
2, 20520, Note_off_c, 1, 55, 0
2, 20520, Note_off_c, 1, 73, 0
2, 20520, Note_off_c, 1, 76, 0
2, 20760, Note_off_c, 1, 69, 0
2, 20800, Note_on_c, 1, 71, 127
2, 20920, Note_off_c, 1, 71, 0
2, 20960, Note_on_c, 1, 76, 127
2, 21280, Note_off_c, 1, 76, 0
2, 21320, Note_on_c, 1, 74, 127
2, 21360, Note_on_c, 1, 55, 127
2, 21480, Note_off_c, 1, 74, 0
2, 21760, Note_off_c, 1, 55, 0
2, 21760, Note_on_c, 1, 56, 127
2, 21760, Note_on_c, 1, 70, 127
2, 21760, Note_on_c, 1, 71, 127
2, 21800, Note_on_c, 1, 53, 127
2, 21800, Note_on_c, 1, 55, 127
2, 21800, Note_off_c, 1, 56, 0
2, 21800, Note_off_c, 1, 70, 0
2, 21840, Note_off_c, 1, 53, 0
2, 21840, Note_off_c, 1, 55, 0
2, 21840, Note_on_c, 1, 57, 127
2, 21880, Note_on_c, 1, 69, 127
2, 21920, Note_off_c, 1, 69, 0
2, 21920, Note_off_c, 1, 71, 0
2, 21960, Note_on_c, 1, 68, 127
2, 22040, Note_off_c, 1, 68, 0
2, 22080, Note_on_c, 1, 56, 127
2, 22080, Note_off_c, 1, 57, 0
2, 22080, Note_on_c, 1, 61, 127
2, 22080, Note_on_c, 1, 67, 127
2, 22120, Note_on_c, 1, 54, 127
2, 22120, Note_off_c, 1, 56, 0
2, 22120, Note_on_c, 1, 63, 127
2, 22120, Note_off_c, 1, 67, 0
2, 22120, Note_on_c, 1, 82, 127
2, 22160, Note_on_c, 1, 37, 127
2, 22160, Note_on_c, 1, 46, 127
2, 22160, Note_on_c, 1, 52, 127
2, 22160, Note_off_c, 1, 54, 0
2, 22160, Note_on_c, 1, 55, 127
2, 22160, Note_on_c, 1, 58, 127
2, 22160, Note_off_c, 1, 61, 0
2, 22160, Note_off_c, 1, 63, 0
2, 22160, Note_on_c, 1, 67, 127
2, 22160, Note_off_c, 1, 82, 0
2, 22200, Note_off_c, 1, 37, 0
2, 22200, Note_on_c, 1, 50, 127
2, 22200, Note_off_c, 1, 52, 0
2, 22200, Note_off_c, 1, 55, 0
2, 22200, Note_off_c, 1, 58, 0
2, 22200, Note_off_c, 1, 67, 0
2, 22200, Note_on_c, 1, 68, 127
2, 22200, Note_on_c, 1, 77, 127
2, 22240, Note_off_c, 1, 46, 0
2, 22240, Note_off_c, 1, 50, 0
2, 22240, Note_on_c, 1, 56, 127
2, 22240, Note_on_c, 1, 63, 127
2, 22240, Note_off_c, 1, 68, 0
2, 22240, Note_on_c, 1, 84, 127
2, 22280, Note_off_c, 1, 56, 0
2, 22280, Note_off_c, 1, 63, 0
2, 22280, Note_on_c, 1, 65, 127
2, 22280, Note_on_c, 1, 66, 127
2, 22280, Note_on_c, 1, 73, 127
2, 22280, Note_off_c, 1, 77, 0
2, 22280, Note_off_c, 1, 84, 0
2, 22320, Note_on_c, 1, 46, 127
2, 22320, Note_on_c, 1, 58, 127
2, 22320, Note_off_c, 1, 66, 0
2, 22320, Note_on_c, 1, 70, 127
2, 22320, Note_off_c, 1, 73, 0
2, 22320, Note_on_c, 1, 74, 127
2, 22360, Note_on_c, 1, 45, 127
2, 22360, Note_off_c, 1, 46, 0
2, 22360, Note_on_c, 1, 63, 127
2, 22360, Note_off_c, 1, 65, 0
2, 22360, Note_on_c, 1, 66, 127
2, 22360, Note_off_c, 1, 70, 0
2, 22360, Note_off_c, 1, 74, 0
2, 22400, Note_off_c, 1, 45, 0
2, 22400, Note_on_c, 1, 46, 127
2, 22400, Note_off_c, 1, 63, 0
2, 22400, Note_on_c, 1, 65, 127
2, 22400, Note_off_c, 1, 66, 0
2, 22400, Note_on_c, 1, 70, 127
2, 22400, Note_on_c, 1, 74, 127
2, 22440, Note_off_c, 1, 65, 0
2, 22440, Note_off_c, 1, 70, 0
2, 22440, Note_off_c, 1, 74, 0
2, 22480, Note_on_c, 1, 69, 127
2, 22520, Note_off_c, 1, 46, 0
2, 22520, Note_off_c, 1, 58, 0
2, 22520, Note_off_c, 1, 69, 0
2, 22560, Note_on_c, 1, 46, 127
2, 22560, Note_on_c, 1, 58, 127
2, 22560, Note_on_c, 1, 89, 127
2, 22560, Note_on_c, 1, 98, 127
2, 22560, Note_on_c, 1, 101, 127
2, 22680, Note_off_c, 1, 46, 0
2, 22680, Note_off_c, 1, 58, 0
2, 22680, Note_off_c, 1, 89, 0
2, 22680, Note_off_c, 1, 98, 0
2, 22680, Note_off_c, 1, 101, 0
2, 22720, Note_on_c, 1, 41, 127
2, 22720, Note_on_c, 1, 48, 127
2, 22720, Note_on_c, 1, 56, 127
2, 22720, Note_on_c, 1, 60, 127
2, 22920, Note_off_c, 1, 41, 0
2, 22920, Note_on_c, 1, 43, 127
2, 22920, Note_off_c, 1, 48, 0
2, 22920, Note_off_c, 1, 56, 0
2, 22920, Note_on_c, 1, 59, 127
2, 22920, Note_off_c, 1, 60, 0
2, 22920, Note_on_c, 1, 67, 127
2, 22920, Note_on_c, 1, 71, 127
2, 22920, Note_on_c, 1, 74, 127
2, 23040, Note_on_c, 1, 50, 127
2, 23080, Note_off_c, 1, 43, 0
2, 23080, Note_off_c, 1, 50, 0
2, 23080, Note_off_c, 1, 59, 0
2, 23080, Note_off_c, 1, 67, 0
2, 23080, Note_off_c, 1, 71, 0
2, 23080, Note_off_c, 1, 74, 0
2, 23120, Note_on_c, 1, 53, 127
2, 23120, Note_on_c, 1, 68, 127
2, 23120, Note_on_c, 1, 74, 127
2, 23120, Note_on_c, 1, 85, 127
2, 23240, Note_off_c, 1, 53, 0
2, 23240, Note_on_c, 1, 65, 127
2, 23240, Note_off_c, 1, 68, 0
2, 23240, Note_on_c, 1, 79, 127
2, 23240, Note_on_c, 1, 81, 127
2, 23240, Note_off_c, 1, 85, 0
2, 23280, Note_on_c, 1, 53, 127
2, 23280, Note_off_c, 1, 65, 0
2, 23280, Note_on_c, 1, 68, 127
2, 23280, Note_off_c, 1, 79, 0
2, 23280, Note_off_c, 1, 81, 0
2, 23280, Note_on_c, 1, 85, 127
2, 23320, Note_off_c, 1, 53, 0
2, 23320, Note_on_c, 1, 56, 127
2, 23320, Note_on_c, 1, 60, 127
2, 23320, Note_on_c, 1, 63, 127
2, 23320, Note_off_c, 1, 68, 0
2, 23320, Note_off_c, 1, 74, 0
2, 23320, Note_on_c, 1, 84, 127
2, 23320, Note_off_c, 1, 85, 0
2, 23320, Note_on_c, 1, 96, 127
2, 23360, Note_on_c, 1, 47, 127
2, 23360, Note_off_c, 1, 56, 0
2, 23360, Note_off_c, 1, 60, 0
2, 23360, Note_off_c, 1, 63, 0
2, 23360, Note_off_c, 1, 84, 0
2, 23360, Note_on_c, 1, 93, 127
2, 23360, Note_on_c, 1, 95, 127
2, 23360, Note_off_c, 1, 96, 0
2, 23400, Note_on_c, 1, 41, 127
2, 23400, Note_off_c, 1, 47, 0
2, 23400, Note_on_c, 1, 50, 127
2, 23400, Note_on_c, 1, 89, 127
2, 23400, Note_off_c, 1, 93, 0
2, 23400, Note_off_c, 1, 95, 0
2, 23440, Note_off_c, 1, 41, 0
2, 23440, Note_off_c, 1, 50, 0
2, 23440, Note_on_c, 1, 54, 127
2, 23440, Note_on_c, 1, 57, 127
2, 23440, Note_on_c, 1, 66, 127
2, 23440, Note_on_c, 1, 74, 127
2, 23440, Note_on_c, 1, 80, 127
2, 23440, Note_off_c, 1, 89, 0
2, 23480, Note_on_c, 1, 50, 127
2, 23480, Note_off_c, 1, 54, 0
2, 23480, Note_on_c, 1, 55, 127
2, 23480, Note_on_c, 1, 62, 127
2, 23480, Note_off_c, 1, 66, 0
2, 23480, Note_off_c, 1, 74, 0
2, 23480, Note_off_c, 1, 80, 0
2, 23520, Note_on_c, 1, 30, 127
2, 23520, Note_on_c, 1, 42, 127
2, 23520, Note_off_c, 1, 50, 0
2, 23520, Note_off_c, 1, 55, 0
2, 23520, Note_off_c, 1, 57, 0
2, 23520, Note_off_c, 1, 62, 0
2, 23520, Note_on_c, 1, 63, 127
2, 23520, Note_on_c, 1, 69, 127
2, 23520, Note_on_c, 1, 73, 127
2, 23840, Note_off_c, 1, 30, 0
2, 23840, Note_off_c, 1, 42, 0
2, 23840, Note_on_c, 1, 55, 127
2, 23840, Note_on_c, 1, 57, 127
2, 23840, Note_off_c, 1, 63, 0
2, 23840, Note_on_c, 1, 79, 127
2, 23840, Note_on_c, 1, 81, 127
2, 23880, Note_off_c, 1, 57, 0
2, 23880, Note_on_c, 1, 64, 127
2, 23880, Note_off_c, 1, 69, 0
2, 23880, Note_off_c, 1, 73, 0
2, 23880, Note_off_c, 1, 79, 0
2, 23880, Note_off_c, 1, 81, 0
2, 23880, Note_on_c, 1, 91, 127
2, 23920, Note_on_c, 1, 52, 127
2, 23920, Note_on_c, 1, 82, 127
2, 23920, Note_on_c, 1, 87, 127
2, 23920, Note_off_c, 1, 91, 0
2, 23960, Note_off_c, 1, 52, 0
2, 23960, Note_on_c, 1, 54, 127
2, 23960, Note_off_c, 1, 55, 0
2, 23960, Note_off_c, 1, 64, 0
2, 23960, Note_on_c, 1, 76, 127
2, 23960, Note_on_c, 1, 80, 127
2, 23960, Note_off_c, 1, 82, 0
2, 23960, Note_on_c, 1, 86, 127
2, 23960, Note_off_c, 1, 87, 0
2, 23960, Note_on_c, 1, 88, 127
2, 24000, Note_off_c, 1, 54, 0
2, 24000, Note_on_c, 1, 56, 127
2, 24000, Note_off_c, 1, 76, 0
2, 24000, Note_on_c, 1, 85, 127
2, 24000, Note_off_c, 1, 86, 0
2, 24000, Note_off_c, 1, 88, 0
2, 24000, Note_on_c, 1, 92, 127
2, 24040, Note_off_c, 1, 56, 0
2, 24040, Note_on_c, 1, 67, 127
2, 24040, Note_on_c, 1, 72, 127
2, 24040, Note_on_c, 1, 76, 127
2, 24040, Note_on_c, 1, 79, 127
2, 24040, Note_off_c, 1, 80, 0
2, 24040, Note_on_c, 1, 84, 127
2, 24040, Note_off_c, 1, 85, 0
2, 24040, Note_on_c, 1, 88, 127
2, 24040, Note_on_c, 1, 91, 127
2, 24040, Note_off_c, 1, 92, 0
2, 24080, Note_on_c, 1, 43, 127
2, 24080, Note_on_c, 1, 51, 127
2, 24080, Note_on_c, 1, 60, 127
2, 24080, Note_on_c, 1, 66, 127
2, 24080, Note_off_c, 1, 67, 0
2, 24080, Note_off_c, 1, 72, 0
2, 24080, Note_off_c, 1, 76, 0
2, 24080, Note_off_c, 1, 79, 0
2, 24080, Note_off_c, 1, 84, 0
2, 24080, Note_off_c, 1, 88, 0
2, 24080, Note_off_c, 1, 91, 0
2, 24120, Note_on_c, 1, 38, 127
2, 24120, Note_off_c, 1, 43, 0
2, 24120, Note_on_c, 1, 45, 127
2, 24120, Note_on_c, 1, 50, 127
2, 24120, Note_off_c, 1, 51, 0
2, 24120, Note_off_c, 1, 60, 0
2, 24120, Note_off_c, 1, 66, 0
2, 24120, Note_on_c, 1, 89, 127
2, 24160, Note_off_c, 1, 38, 0
2, 24160, Note_off_c, 1, 45, 0
2, 24160, Note_off_c, 1, 50, 0
2, 24160, Note_off_c, 1, 89, 0
2, 24160, Note_on_c, 1, 91, 127
2, 24160, Note_on_c, 1, 94, 127
2, 24160, Note_on_c, 1, 100, 127
2, 24160, Note_on_c, 1, 103, 127
2, 24200, Note_on_c, 1, 53, 127
2, 24200, Note_on_c, 1, 58, 127
2, 24200, Note_on_c, 1, 65, 127
2, 24200, Note_on_c, 1, 70, 127
2, 24200, Note_on_c, 1, 74, 127
2, 24200, Note_on_c, 1, 82, 127
2, 24200, Note_off_c, 1, 91, 0
2, 24200, Note_off_c, 1, 94, 0
2, 24200, Note_off_c, 1, 100, 0
2, 24200, Note_off_c, 1, 103, 0
2, 24240, Note_off_c, 1, 53, 0
2, 24240, Note_on_c, 1, 55, 127
2, 24240, Note_off_c, 1, 58, 0
2, 24240, Note_off_c, 1, 65, 0
2, 24240, Note_off_c, 1, 70, 0
2, 24240, Note_off_c, 1, 74, 0
2, 24240, Note_off_c, 1, 82, 0
2, 24280, Note_on_c, 1, 46, 127
2, 24280, Note_on_c, 1, 51, 127
2, 24280, Note_off_c, 1, 55, 0
2, 24280, Note_on_c, 1, 58, 127
2, 24280, Note_on_c, 1, 61, 127
2, 24320, Note_off_c, 1, 46, 0
2, 24320, Note_off_c, 1, 51, 0
2, 24320, Note_on_c, 1, 53, 127
2, 24320, Note_on_c, 1, 55, 127
2, 24320, Note_off_c, 1, 61, 0
2, 24320, Note_on_c, 1, 74, 127
2, 24360, Note_off_c, 1, 53, 0
2, 24360, Note_off_c, 1, 55, 0
2, 24360, Note_on_c, 1, 56, 127
2, 24360, Note_off_c, 1, 58, 0
2, 24360, Note_on_c, 1, 72, 127
2, 24360, Note_on_c, 1, 77, 127
2, 24360, Note_on_c, 1, 84, 127
2, 24400, Note_on_c, 1, 36, 127
2, 24400, Note_off_c, 1, 56, 0
2, 24400, Note_on_c, 1, 57, 127
2, 24400, Note_on_c, 1, 60, 127
2, 24400, Note_on_c, 1, 64, 127
2, 24400, Note_off_c, 1, 72, 0
2, 24400, Note_off_c, 1, 74, 0
2, 24400, Note_on_c, 1, 76, 127
2, 24400, Note_off_c, 1, 77, 0
2, 24400, Note_off_c, 1, 84, 0
2, 24440, Note_off_c, 1, 36, 0
2, 24440, Note_off_c, 1, 57, 0
2, 24440, Note_off_c, 1, 64, 0
2, 24440, Note_on_c, 1, 70, 127
2, 24440, Note_on_c, 1, 73, 127
2, 24440, Note_on_c, 1, 75, 127
2, 24440, Note_off_c, 1, 76, 0
2, 24440, Note_on_c, 1, 79, 127
2, 24480, Note_on_c, 1, 31, 127
2, 24480, Note_on_c, 1, 38, 127
2, 24480, Note_on_c, 1, 43, 127
2, 24480, Note_on_c, 1, 47, 127
2, 24480, Note_on_c, 1, 50, 127
2, 24480, Note_on_c, 1, 55, 127
2, 24480, Note_on_c, 1, 59, 127
2, 24480, Note_off_c, 1, 60, 0
2, 24480, Note_on_c, 1, 62, 127
2, 24480, Note_off_c, 1, 70, 0
2, 24480, Note_off_c, 1, 73, 0
2, 24480, Note_off_c, 1, 75, 0
2, 24480, Note_off_c, 1, 79, 0
2, 24520, Note_off_c, 1, 38, 0
2, 24520, Note_off_c, 1, 47, 0
2, 24520, Note_off_c, 1, 50, 0
2, 24520, Note_on_c, 1, 53, 127
2, 24520, Note_off_c, 1, 55, 0
2, 24560, Note_off_c, 1, 31, 0
2, 24560, Note_off_c, 1, 43, 0
2, 24560, Note_off_c, 1, 53, 0
2, 24560, Note_off_c, 1, 59, 0
2, 24560, Note_off_c, 1, 62, 0
2, 24560, Note_on_c, 1, 65, 127
2, 24560, Note_on_c, 1, 69, 127
2, 24560, Note_on_c, 1, 72, 127
2, 24560, Note_on_c, 1, 87, 127
2, 24600, Note_on_c, 1, 38, 127
2, 24600, Note_on_c, 1, 45, 127
2, 24600, Note_on_c, 1, 48, 127
2, 24600, Note_on_c, 1, 54, 127
2, 24600, Note_on_c, 1, 60, 127
2, 24600, Note_off_c, 1, 65, 0
2, 24600, Note_on_c, 1, 66, 127
2, 24600, Note_off_c, 1, 72, 0
2, 24600, Note_off_c, 1, 87, 0
2, 24640, Note_off_c, 1, 38, 0
2, 24640, Note_off_c, 1, 45, 0
2, 24640, Note_off_c, 1, 48, 0
2, 24640, Note_off_c, 1, 54, 0
2, 24640, Note_off_c, 1, 60, 0
2, 24640, Note_off_c, 1, 66, 0
2, 24640, Note_off_c, 1, 69, 0
2, 24680, Note_on_c, 1, 43, 127
2, 24720, Note_off_c, 1, 43, 0
2, 24720, Note_on_c, 1, 66, 127
2, 24720, Note_on_c, 1, 74, 127
2, 24720, Note_on_c, 1, 81, 127
2, 24720, Note_on_c, 1, 86, 127
2, 24720, Note_on_c, 1, 90, 127
2, 24760, Note_on_c, 1, 50, 127
2, 24760, Note_on_c, 1, 52, 127
2, 24760, Note_on_c, 1, 64, 127
2, 24760, Note_off_c, 1, 66, 0
2, 24760, Note_on_c, 1, 69, 127
2, 24760, Note_off_c, 1, 74, 0
2, 24760, Note_off_c, 1, 81, 0
2, 24760, Note_off_c, 1, 86, 0
2, 24760, Note_off_c, 1, 90, 0
2, 24800, Note_off_c, 1, 52, 0
2, 24800, Note_on_c, 1, 53, 127
2, 24800, Note_on_c, 1, 56, 127
2, 24800, Note_on_c, 1, 58, 127
2, 24800, Note_off_c, 1, 64, 0
2, 24800, Note_off_c, 1, 69, 0
2, 24800, Note_on_c, 1, 79, 127
2, 24840, Note_on_c, 1, 28, 127
2, 24840, Note_on_c, 1, 47, 127
2, 24840, Note_off_c, 1, 50, 0
2, 24840, Note_on_c, 1, 52, 127
2, 24840, Note_off_c, 1, 53, 0
2, 24840, Note_on_c, 1, 55, 127
2, 24840, Note_off_c, 1, 56, 0
2, 24840, Note_off_c, 1, 58, 0
2, 24840, Note_on_c, 1, 60, 127
2, 24840, Note_off_c, 1, 79, 0
2, 24880, Note_off_c, 1, 28, 0
2, 24880, Note_off_c, 1, 47, 0
2, 24880, Note_off_c, 1, 55, 0
2, 24880, Note_on_c, 1, 58, 127
2, 24880, Note_off_c, 1, 60, 0
2, 24880, Note_on_c, 1, 61, 127
2, 24880, Note_on_c, 1, 67, 127
2, 24880, Note_on_c, 1, 70, 127
2, 24880, Note_on_c, 1, 82, 127
2, 24920, Note_off_c, 1, 52, 0
2, 24920, Note_on_c, 1, 57, 127
2, 24920, Note_off_c, 1, 58, 0
2, 24920, Note_on_c, 1, 64, 127
2, 24920, Note_off_c, 1, 70, 0
2, 24920, Note_on_c, 1, 76, 127
2, 24920, Note_on_c, 1, 78, 127
2, 24920, Note_off_c, 1, 82, 0
2, 24960, Note_on_c, 1, 43, 127
2, 24960, Note_on_c, 1, 48, 127
2, 24960, Note_on_c, 1, 52, 127
2, 24960, Note_off_c, 1, 57, 0
2, 24960, Note_off_c, 1, 61, 0
2, 24960, Note_off_c, 1, 64, 0
2, 24960, Note_off_c, 1, 67, 0
2, 24960, Note_on_c, 1, 74, 127
2, 24960, Note_off_c, 1, 76, 0
2, 24960, Note_off_c, 1, 78, 0
2, 25000, Note_off_c, 1, 43, 0
2, 25000, Note_off_c, 1, 48, 0
2, 25000, Note_off_c, 1, 52, 0
2, 25000, Note_on_c, 1, 61, 127
2, 25000, Note_on_c, 1, 62, 127
2, 25000, Note_on_c, 1, 69, 127
2, 25000, Note_on_c, 1, 81, 127
2, 25040, Note_on_c, 1, 42, 127
2, 25040, Note_on_c, 1, 56, 127
2, 25040, Note_off_c, 1, 61, 0
2, 25040, Note_off_c, 1, 62, 0
2, 25040, Note_off_c, 1, 69, 0
2, 25040, Note_on_c, 1, 71, 127
2, 25040, Note_off_c, 1, 74, 0
2, 25040, Note_off_c, 1, 81, 0
2, 25080, Note_on_c, 1, 36, 127
2, 25080, Note_off_c, 1, 42, 0
2, 25080, Note_off_c, 1, 56, 0
2, 25080, Note_off_c, 1, 71, 0
2, 25080, Note_on_c, 1, 86, 127
2, 25080, Note_on_c, 1, 89, 127
2, 25120, Note_off_c, 1, 36, 0
2, 25120, Note_on_c, 1, 64, 127
2, 25120, Note_on_c, 1, 71, 127
2, 25120, Note_on_c, 1, 76, 127
2, 25120, Note_on_c, 1, 79, 127
2, 25120, Note_off_c, 1, 86, 0
2, 25120, Note_off_c, 1, 89, 0
2, 25120, Note_on_c, 1, 90, 127
2, 25160, Note_on_c, 1, 36, 127
2, 25160, Note_off_c, 1, 64, 0
2, 25160, Note_off_c, 1, 71, 0
2, 25160, Note_off_c, 1, 76, 0
2, 25160, Note_off_c, 1, 79, 0
2, 25160, Note_on_c, 1, 86, 127
2, 25160, Note_on_c, 1, 89, 127
2, 25160, Note_off_c, 1, 90, 0
2, 25400, Note_off_c, 1, 36, 0
2, 25400, Note_on_c, 1, 47, 127
2, 25400, Note_on_c, 1, 79, 127
2, 25400, Note_off_c, 1, 86, 0
2, 25400, Note_off_c, 1, 89, 0
2, 25440, Note_on_c, 1, 31, 127
2, 25440, Note_on_c, 1, 43, 127
2, 25440, Note_off_c, 1, 47, 0
2, 25440, Note_off_c, 1, 79, 0
2, 25440, Note_on_c, 1, 85, 127
2, 25440, Note_on_c, 1, 88, 127
2, 25480, Note_off_c, 1, 31, 0
2, 25480, Note_on_c, 1, 35, 127
2, 25480, Note_off_c, 1, 43, 0
2, 25480, Note_off_c, 1, 85, 0
2, 25480, Note_on_c, 1, 86, 127
2, 25480, Note_off_c, 1, 88, 0
2, 25480, Note_on_c, 1, 89, 127
2, 25520, Note_on_c, 1, 43, 127
2, 25560, Note_off_c, 1, 43, 0
2, 25800, Note_off_c, 1, 35, 0
2, 25800, Note_off_c, 1, 86, 0
2, 25800, Note_off_c, 1, 89, 0
2, 25840, Note_on_c, 1, 45, 127
2, 25840, Note_on_c, 1, 54, 127
2, 25840, Note_on_c, 1, 75, 127
2, 25840, Note_on_c, 1, 78, 127
2, 25840, Note_on_c, 1, 83, 127
2, 25840, Note_on_c, 1, 87, 127
2, 26080, Note_off_c, 1, 45, 0
2, 26080, Note_off_c, 1, 54, 0
2, 26080, Note_off_c, 1, 75, 0
2, 26080, Note_off_c, 1, 78, 0
2, 26080, Note_off_c, 1, 83, 0
2, 26080, Note_off_c, 1, 87, 0
2, 26120, Note_on_c, 1, 43, 127
2, 26120, Note_on_c, 1, 55, 127
2, 26120, Note_on_c, 1, 79, 127
2, 26120, Note_on_c, 1, 83, 127
2, 26120, Note_on_c, 1, 86, 127
2, 26120, Note_on_c, 1, 91, 127
2, 26360, Note_on_c, 1, 38, 127
2, 26360, Note_off_c, 1, 43, 0
2, 26360, Note_on_c, 1, 50, 127
2, 26360, Note_off_c, 1, 55, 0
2, 26360, Note_on_c, 1, 71, 127
2, 26360, Note_on_c, 1, 77, 127
2, 26360, Note_off_c, 1, 79, 0
2, 26360, Note_off_c, 1, 86, 0
2, 26360, Note_off_c, 1, 91, 0
2, 26400, Note_off_c, 1, 38, 0
2, 26400, Note_off_c, 1, 50, 0
2, 26400, Note_off_c, 1, 71, 0
2, 26400, Note_off_c, 1, 77, 0
2, 26400, Note_off_c, 1, 83, 0
2, 26440, Note_on_c, 1, 41, 127
2, 26440, Note_on_c, 1, 53, 127
2, 26440, Note_on_c, 1, 74, 127
2, 26440, Note_on_c, 1, 81, 127
2, 26440, Note_on_c, 1, 86, 127
2, 26640, Note_off_c, 1, 41, 0
2, 26640, Note_off_c, 1, 53, 0
2, 26640, Note_off_c, 1, 74, 0
2, 26640, Note_off_c, 1, 81, 0
2, 26640, Note_off_c, 1, 86, 0
2, 26680, Note_on_c, 1, 41, 127
2, 26680, Note_on_c, 1, 53, 127
2, 26680, Note_on_c, 1, 74, 127
2, 26680, Note_on_c, 1, 81, 127
2, 26680, Note_on_c, 1, 86, 127
2, 26720, Note_off_c, 1, 41, 0
2, 26720, Note_off_c, 1, 53, 0
2, 26720, Note_on_c, 1, 71, 127
2, 26720, Note_off_c, 1, 74, 0
2, 26720, Note_off_c, 1, 81, 0
2, 26720, Note_on_c, 1, 83, 127
2, 26720, Note_off_c, 1, 86, 0
2, 26760, Note_on_c, 1, 43, 127
2, 26760, Note_on_c, 1, 52, 127
2, 26760, Note_on_c, 1, 61, 127
2, 26760, Note_on_c, 1, 64, 127
2, 26760, Note_off_c, 1, 71, 0
2, 26760, Note_on_c, 1, 73, 127
2, 26760, Note_off_c, 1, 83, 0
2, 27000, Note_off_c, 1, 43, 0
2, 27000, Note_off_c, 1, 52, 0
2, 27000, Note_off_c, 1, 61, 0
2, 27000, Note_off_c, 1, 64, 0
2, 27000, Note_off_c, 1, 73, 0
2, 27040, Note_on_c, 1, 44, 127
2, 27040, Note_on_c, 1, 56, 127
2, 27040, Note_on_c, 1, 60, 127
2, 27040, Note_on_c, 1, 62, 127
2, 27040, Note_on_c, 1, 69, 127
2, 27040, Note_on_c, 1, 72, 127
2, 27040, Note_on_c, 1, 74, 127
2, 27080, Note_off_c, 1, 44, 0
2, 27080, Note_on_c, 1, 54, 127
2, 27080, Note_off_c, 1, 56, 0
2, 27080, Note_off_c, 1, 60, 0
2, 27080, Note_off_c, 1, 62, 0
2, 27080, Note_on_c, 1, 67, 127
2, 27080, Note_off_c, 1, 69, 0
2, 27080, Note_off_c, 1, 72, 0
2, 27080, Note_off_c, 1, 74, 0
2, 27080, Note_on_c, 1, 79, 127
2, 27120, Note_on_c, 1, 43, 127
2, 27120, Note_on_c, 1, 52, 127
2, 27120, Note_off_c, 1, 54, 0
2, 27120, Note_on_c, 1, 64, 127
2, 27120, Note_off_c, 1, 67, 0
2, 27120, Note_off_c, 1, 79, 0
2, 27160, Note_off_c, 1, 43, 0
2, 27160, Note_on_c, 1, 44, 127
2, 27160, Note_off_c, 1, 52, 0
2, 27160, Note_on_c, 1, 56, 127
2, 27160, Note_on_c, 1, 60, 127
2, 27160, Note_on_c, 1, 62, 127
2, 27160, Note_off_c, 1, 64, 0
2, 27160, Note_on_c, 1, 69, 127
2, 27160, Note_on_c, 1, 72, 127
2, 27160, Note_on_c, 1, 74, 127
2, 27200, Note_on_c, 1, 43, 127
2, 27200, Note_off_c, 1, 44, 0
2, 27200, Note_on_c, 1, 52, 127
2, 27200, Note_off_c, 1, 56, 0
2, 27200, Note_off_c, 1, 60, 0
2, 27200, Note_off_c, 1, 62, 0
2, 27200, Note_off_c, 1, 69, 0
2, 27200, Note_off_c, 1, 72, 0
2, 27200, Note_off_c, 1, 74, 0
2, 27240, Note_off_c, 1, 43, 0
2, 27240, Note_on_c, 1, 46, 127
2, 27240, Note_on_c, 1, 55, 127
2, 27240, Note_on_c, 1, 64, 127
2, 27240, Note_on_c, 1, 67, 127
2, 27600, Note_off_c, 1, 46, 0
2, 27600, Note_off_c, 1, 52, 0
2, 27600, Note_off_c, 1, 55, 0
2, 27600, Note_off_c, 1, 64, 0
2, 27600, Note_off_c, 1, 67, 0
2, 27600, Note_on_c, 1, 68, 127
2, 27600, Note_on_c, 1, 74, 127
2, 27600, Note_on_c, 1, 82, 127
2, 27600, Note_on_c, 1, 88, 127
2, 27640, Note_on_c, 1, 44, 127
2, 27640, Note_on_c, 1, 51, 127
2, 27640, Note_on_c, 1, 52, 127
2, 27640, Note_on_c, 1, 60, 127
2, 27640, Note_off_c, 1, 68, 0
2, 27640, Note_off_c, 1, 74, 0
2, 27640, Note_off_c, 1, 82, 0
2, 27640, Note_on_c, 1, 84, 127
2, 27640, Note_off_c, 1, 88, 0
2, 27680, Note_off_c, 1, 44, 0
2, 27680, Note_off_c, 1, 51, 0
2, 27680, Note_off_c, 1, 52, 0
2, 27680, Note_off_c, 1, 60, 0
2, 27680, Note_off_c, 1, 84, 0
2, 27720, Note_on_c, 1, 29, 127
2, 27720, Note_on_c, 1, 54, 127
2, 27760, Note_off_c, 1, 29, 0
2, 27760, Note_on_c, 1, 35, 127
2, 27760, Note_off_c, 1, 54, 0
2, 27760, Note_on_c, 1, 71, 127
2, 27760, Note_on_c, 1, 79, 127
2, 27800, Note_on_c, 1, 29, 127
2, 27800, Note_off_c, 1, 35, 0
2, 27800, Note_on_c, 1, 54, 127
2, 27800, Note_off_c, 1, 71, 0
2, 27800, Note_off_c, 1, 79, 0
2, 27840, Note_off_c, 1, 29, 0
2, 27840, Note_off_c, 1, 54, 0
2, 27840, Note_on_c, 1, 60, 127
2, 27840, Note_on_c, 1, 63, 127
2, 27840, Note_on_c, 1, 65, 127
2, 27840, Note_on_c, 1, 68, 127
2, 27840, Note_on_c, 1, 72, 127
2, 27840, Note_on_c, 1, 77, 127
2, 27840, Note_on_c, 1, 80, 127
2, 27880, Note_on_c, 1, 29, 127
2, 27880, Note_on_c, 1, 53, 127
2, 27880, Note_off_c, 1, 60, 0
2, 27880, Note_off_c, 1, 63, 0
2, 27880, Note_off_c, 1, 65, 0
2, 27880, Note_off_c, 1, 68, 0
2, 27880, Note_off_c, 1, 72, 0
2, 27880, Note_off_c, 1, 77, 0
2, 27880, Note_off_c, 1, 80, 0
2, 27920, Note_off_c, 1, 29, 0
2, 27920, Note_off_c, 1, 53, 0
2, 27920, Note_on_c, 1, 55, 127
2, 27920, Note_on_c, 1, 56, 127
2, 27920, Note_on_c, 1, 61, 127
2, 27920, Note_on_c, 1, 64, 127
2, 27920, Note_on_c, 1, 70, 127
2, 27960, Note_off_c, 1, 55, 0
2, 27960, Note_off_c, 1, 56, 0
2, 27960, Note_on_c, 1, 59, 127
2, 27960, Note_off_c, 1, 61, 0
2, 27960, Note_off_c, 1, 64, 0
2, 27960, Note_on_c, 1, 66, 127
2, 27960, Note_on_c, 1, 69, 127
2, 27960, Note_off_c, 1, 70, 0
2, 27960, Note_on_c, 1, 71, 127
2, 27960, Note_on_c, 1, 78, 127
2, 27960, Note_on_c, 1, 90, 127
2, 28000, Note_off_c, 1, 59, 0
2, 28000, Note_on_c, 1, 63, 127
2, 28000, Note_off_c, 1, 66, 0
2, 28000, Note_off_c, 1, 71, 0
2, 28000, Note_on_c, 1, 72, 127
2, 28000, Note_off_c, 1, 78, 0
2, 28000, Note_on_c, 1, 81, 127
2, 28000, Note_on_c, 1, 89, 127
2, 28000, Note_off_c, 1, 90, 0
2, 28000, Note_on_c, 1, 93, 127
2, 28040, Note_off_c, 1, 63, 0
2, 28040, Note_off_c, 1, 69, 0
2, 28040, Note_off_c, 1, 72, 0
2, 28040, Note_off_c, 1, 81, 0
2, 28040, Note_off_c, 1, 89, 0
2, 28040, Note_off_c, 1, 93, 0
2, 28080, Note_on_c, 1, 48, 127
2, 28080, Note_on_c, 1, 60, 127
2, 28280, Note_on_c, 1, 42, 127
2, 28280, Note_off_c, 1, 48, 0
2, 28280, Note_off_c, 1, 60, 0
2, 28280, Note_on_c, 1, 93, 127
2, 28280, Note_on_c, 1, 95, 127
2, 28320, Note_off_c, 1, 42, 0
2, 28320, Note_on_c, 1, 48, 127
2, 28320, Note_on_c, 1, 60, 127
2, 28320, Note_on_c, 1, 70, 127
2, 28320, Note_on_c, 1, 72, 127
2, 28320, Note_off_c, 1, 93, 0
2, 28320, Note_off_c, 1, 95, 0
2, 28360, Note_off_c, 1, 48, 0
2, 28360, Note_on_c, 1, 49, 127
2, 28360, Note_on_c, 1, 54, 127
2, 28360, Note_on_c, 1, 56, 127
2, 28360, Note_off_c, 1, 70, 0
2, 28360, Note_off_c, 1, 72, 0
2, 28360, Note_on_c, 1, 84, 127
2, 28400, Note_off_c, 1, 49, 0
2, 28400, Note_off_c, 1, 54, 0
2, 28400, Note_off_c, 1, 56, 0
2, 28400, Note_off_c, 1, 60, 0
2, 28400, Note_off_c, 1, 84, 0
2, 28440, Note_on_c, 1, 48, 127
2, 28440, Note_on_c, 1, 84, 127
2, 28440, Note_on_c, 1, 92, 127
2, 28440, Note_on_c, 1, 96, 127
2, 28600, Note_off_c, 1, 48, 0
2, 28600, Note_off_c, 1, 84, 0
2, 28600, Note_off_c, 1, 92, 0
2, 28600, Note_off_c, 1, 96, 0
2, 28680, Note_on_c, 1, 44, 127
2, 28680, Note_on_c, 1, 53, 127
2, 28680, Note_on_c, 1, 56, 127
2, 28680, Note_on_c, 1, 61, 127
2, 28680, Note_on_c, 1, 65, 127
2, 29480, Note_off_c, 1, 44, 0
2, 29480, Note_off_c, 1, 53, 0
2, 29480, Note_off_c, 1, 56, 0
2, 29480, Note_off_c, 1, 61, 0
2, 29480, Note_off_c, 1, 65, 0
2, 29520, Note_on_c, 1, 34, 127
2, 29520, Note_on_c, 1, 46, 127
2, 29520, Note_on_c, 1, 55, 127
2, 29520, Note_on_c, 1, 57, 127
2, 29520, Note_on_c, 1, 61, 127
2, 29520, Note_on_c, 1, 64, 127
2, 29520, Note_on_c, 1, 69, 127
2, 29840, Note_off_c, 1, 34, 0
2, 29840, Note_off_c, 1, 46, 0
2, 29840, Note_off_c, 1, 55, 0
2, 29840, Note_off_c, 1, 57, 0
2, 29840, Note_off_c, 1, 61, 0
2, 29840, Note_off_c, 1, 64, 0
2, 29840, Note_off_c, 1, 69, 0
2, 29880, Note_on_c, 1, 46, 127
2, 29880, Note_on_c, 1, 53, 127
2, 29880, Note_on_c, 1, 62, 127
2, 29880, Note_on_c, 1, 68, 127
2, 29880, Note_on_c, 1, 70, 127
2, 30560, Note_off_c, 1, 46, 0
2, 30560, Note_off_c, 1, 53, 0
2, 30560, Note_off_c, 1, 62, 0
2, 30560, Note_off_c, 1, 68, 0
2, 30560, Note_off_c, 1, 70, 0
2, 30600, Note_on_c, 1, 45, 127
2, 30600, Note_on_c, 1, 52, 127
2, 30600, Note_on_c, 1, 59, 127
2, 30600, Note_on_c, 1, 62, 127
2, 30840, Note_off_c, 1, 45, 0
2, 30840, Note_off_c, 1, 52, 0
2, 30840, Note_off_c, 1, 59, 0
2, 30840, Note_off_c, 1, 62, 0
2, 30880, Note_on_c, 1, 45, 127
2, 30880, Note_on_c, 1, 52, 127
2, 30880, Note_on_c, 1, 59, 127
2, 30880, Note_on_c, 1, 62, 127
2, 33040, Note_off_c, 1, 45, 0
2, 33040, Note_off_c, 1, 52, 0
2, 33040, Note_off_c, 1, 59, 0
2, 33040, Note_off_c, 1, 62, 0
2, 33080, Note_on_c, 1, 45, 127
2, 33080, Note_on_c, 1, 52, 127
2, 33080, Note_on_c, 1, 59, 127
2, 33080, Note_on_c, 1, 62, 127
2, 34560, Note_on_c, 1, 44, 127
2, 34560, Note_off_c, 1, 45, 0
2, 34560, Note_on_c, 1, 48, 127
2, 34560, Note_off_c, 1, 52, 0
2, 34560, Note_off_c, 1, 59, 0
2, 34560, Note_off_c, 1, 62, 0
2, 34560, Note_on_c, 1, 72, 127
2, 34560, Note_on_c, 1, 74, 127
2, 34560, Note_on_c, 1, 84, 127
2, 34600, Note_off_c, 1, 48, 0
2, 34600, Note_on_c, 1, 56, 127
2, 34600, Note_on_c, 1, 70, 127
2, 34600, Note_off_c, 1, 72, 0
2, 34600, Note_on_c, 1, 73, 127
2, 34600, Note_off_c, 1, 74, 0
2, 34600, Note_on_c, 1, 77, 127
2, 34600, Note_off_c, 1, 84, 0
2, 34640, Note_off_c, 1, 44, 0
2, 34640, Note_off_c, 1, 56, 0
2, 34640, Note_on_c, 1, 64, 127
2, 34640, Note_on_c, 1, 69, 127
2, 34640, Note_off_c, 1, 70, 0
2, 34640, Note_on_c, 1, 72, 127
2, 34640, Note_off_c, 1, 73, 0
2, 34640, Note_on_c, 1, 84, 127
2, 34680, Note_on_c, 1, 52, 127
2, 34680, Note_on_c, 1, 60, 127
2, 34680, Note_off_c, 1, 64, 0
2, 34680, Note_on_c, 1, 67, 127
2, 34680, Note_off_c, 1, 69, 0
2, 34680, Note_off_c, 1, 77, 0
2, 34680, Note_on_c, 1, 82, 127
2, 34680, Note_off_c, 1, 84, 0
2, 34680, Note_on_c, 1, 91, 127
2, 34680, Note_on_c, 1, 94, 127
2, 34720, Note_off_c, 1, 52, 0
2, 34720, Note_on_c, 1, 55, 127
2, 34720, Note_off_c, 1, 60, 0
2, 34720, Note_off_c, 1, 72, 0
2, 34720, Note_off_c, 1, 82, 0
2, 34720, Note_on_c, 1, 83, 127
2, 34720, Note_on_c, 1, 86, 127
2, 34720, Note_off_c, 1, 91, 0
2, 34720, Note_off_c, 1, 94, 0
2, 34720, Note_on_c, 1, 95, 127
2, 34760, Note_on_c, 1, 50, 127
2, 34760, Note_off_c, 1, 55, 0
2, 34760, Note_on_c, 1, 62, 127
2, 34760, Note_off_c, 1, 67, 0
2, 34760, Note_on_c, 1, 80, 127
2, 34760, Note_off_c, 1, 83, 0
2, 34760, Note_off_c, 1, 86, 0
2, 34760, Note_off_c, 1, 95, 0
2, 34800, Note_on_c, 1, 48, 127
2, 34800, Note_off_c, 1, 50, 0
2, 34800, Note_on_c, 1, 53, 127
2, 34800, Note_on_c, 1, 55, 127
2, 34800, Note_on_c, 1, 59, 127
2, 34800, Note_off_c, 1, 62, 0
2, 34800, Note_off_c, 1, 80, 0
2, 34800, Note_on_c, 1, 81, 127
2, 34840, Note_on_c, 1, 47, 127
2, 34840, Note_off_c, 1, 48, 0
2, 34840, Note_on_c, 1, 50, 127
2, 34840, Note_off_c, 1, 53, 0
2, 34840, Note_off_c, 1, 81, 0
2, 34840, Note_on_c, 1, 86, 127
2, 34880, Note_off_c, 1, 47, 0
2, 34880, Note_off_c, 1, 50, 0
2, 34880, Note_off_c, 1, 55, 0
2, 34880, Note_on_c, 1, 57, 127
2, 34880, Note_off_c, 1, 59, 0
2, 34880, Note_on_c, 1, 62, 127
2, 34880, Note_on_c, 1, 65, 127
2, 34880, Note_on_c, 1, 68, 127
2, 34880, Note_off_c, 1, 86, 0
2, 34880, Note_on_c, 1, 104, 127
2, 34880, Note_on_c, 1, 105, 127
2, 34920, Note_on_c, 1, 35, 127
2, 34920, Note_on_c, 1, 42, 127
2, 34920, Note_off_c, 1, 57, 0
2, 34920, Note_off_c, 1, 65, 0
2, 34920, Note_on_c, 1, 66, 127
2, 34920, Note_off_c, 1, 68, 0
2, 34920, Note_off_c, 1, 104, 0
2, 34920, Note_off_c, 1, 105, 0
2, 34960, Note_off_c, 1, 35, 0
2, 34960, Note_on_c, 1, 46, 127
2, 34960, Note_on_c, 1, 60, 127
2, 34960, Note_off_c, 1, 62, 0
2, 34960, Note_off_c, 1, 66, 0
2, 35000, Note_off_c, 1, 60, 0
2, 35000, Note_on_c, 1, 73, 127
2, 35040, Note_off_c, 1, 42, 0
2, 35040, Note_off_c, 1, 46, 0
2, 35040, Note_on_c, 1, 59, 127
2, 35040, Note_on_c, 1, 63, 127
2, 35040, Note_on_c, 1, 66, 127
2, 35040, Note_off_c, 1, 73, 0
2, 35040, Note_on_c, 1, 78, 127
2, 35040, Note_on_c, 1, 87, 127
2, 35040, Note_on_c, 1, 90, 127
2, 35080, Note_on_c, 1, 48, 127
2, 35080, Note_on_c, 1, 50, 127
2, 35080, Note_on_c, 1, 54, 127
2, 35080, Note_off_c, 1, 59, 0
2, 35080, Note_on_c, 1, 60, 127
2, 35080, Note_off_c, 1, 63, 0
2, 35080, Note_off_c, 1, 66, 0
2, 35080, Note_on_c, 1, 72, 127
2, 35080, Note_on_c, 1, 74, 127
2, 35080, Note_on_c, 1, 84, 127
2, 35080, Note_off_c, 1, 87, 0
2, 35080, Note_off_c, 1, 90, 0
2, 35120, Note_off_c, 1, 48, 0
2, 35120, Note_off_c, 1, 50, 0
2, 35120, Note_off_c, 1, 54, 0
2, 35120, Note_off_c, 1, 60, 0
2, 35120, Note_off_c, 1, 72, 0
2, 35120, Note_on_c, 1, 77, 127
2, 35120, Note_off_c, 1, 78, 0
2, 35120, Note_off_c, 1, 84, 0
2, 35120, Note_on_c, 1, 94, 127
2, 35160, Note_off_c, 1, 74, 0
2, 35160, Note_off_c, 1, 77, 0
2, 35160, Note_off_c, 1, 94, 0
2, 35200, Note_on_c, 1, 59, 127
2, 35200, Note_on_c, 1, 64, 127
2, 35200, Note_on_c, 1, 69, 127
2, 35200, Note_on_c, 1, 82, 127
2, 35240, Note_on_c, 1, 34, 127
2, 35240, Note_on_c, 1, 46, 127
2, 35240, Note_on_c, 1, 53, 127
2, 35240, Note_on_c, 1, 56, 127
2, 35240, Note_off_c, 1, 59, 0
2, 35240, Note_off_c, 1, 64, 0
2, 35240, Note_off_c, 1, 69, 0
2, 35240, Note_off_c, 1, 82, 0
2, 35280, Note_off_c, 1, 34, 0
2, 35280, Note_on_c, 1, 45, 127
2, 35280, Note_off_c, 1, 46, 0
2, 35280, Note_on_c, 1, 52, 127
2, 35280, Note_off_c, 1, 53, 0
2, 35280, Note_off_c, 1, 56, 0
2, 35280, Note_on_c, 1, 59, 127
2, 35280, Note_on_c, 1, 62, 127
2, 35320, Note_on_c, 1, 44, 127
2, 35320, Note_off_c, 1, 45, 0
2, 35320, Note_off_c, 1, 52, 0
2, 35320, Note_on_c, 1, 54, 127
2, 35320, Note_off_c, 1, 59, 0
2, 35320, Note_on_c, 1, 60, 127
2, 35320, Note_off_c, 1, 62, 0
2, 35320, Note_on_c, 1, 63, 127
2, 35320, Note_on_c, 1, 68, 127
2, 35320, Note_on_c, 1, 80, 127
2, 35640, Note_off_c, 1, 44, 0
2, 35640, Note_off_c, 1, 54, 0
2, 35640, Note_on_c, 1, 59, 127
2, 35640, Note_off_c, 1, 60, 0
2, 35640, Note_off_c, 1, 63, 0
2, 35640, Note_off_c, 1, 68, 0
2, 35640, Note_off_c, 1, 80, 0
2, 35680, Note_on_c, 1, 43, 127
2, 35680, Note_on_c, 1, 50, 127
2, 35680, Note_on_c, 1, 53, 127
2, 35680, Note_off_c, 1, 59, 0
2, 35680, Note_on_c, 1, 62, 127
2, 35680, Note_on_c, 1, 65, 127
2, 35680, Note_on_c, 1, 71, 127
2, 36480, Note_off_c, 1, 43, 0
2, 36480, Note_off_c, 1, 50, 0
2, 36480, Note_off_c, 1, 53, 0
2, 36480, Note_off_c, 1, 62, 0
2, 36480, Note_off_c, 1, 65, 0
2, 36480, Note_off_c, 1, 71, 0
2, 36520, Note_on_c, 1, 36, 127
2, 36520, Note_on_c, 1, 44, 127
2, 36520, Note_on_c, 1, 51, 127
2, 36520, Note_on_c, 1, 54, 127
2, 36520, Note_on_c, 1, 60, 127
2, 37240, Note_off_c, 1, 36, 0
2, 37240, Note_off_c, 1, 44, 0
2, 37240, Note_off_c, 1, 51, 0
2, 37240, Note_off_c, 1, 54, 0
2, 37240, Note_off_c, 1, 60, 0
2, 37280, Note_on_c, 1, 36, 127
2, 37280, Note_on_c, 1, 44, 127
2, 37280, Note_on_c, 1, 51, 127
2, 37280, Note_on_c, 1, 54, 127
2, 37280, Note_on_c, 1, 60, 127
2, 37360, Note_on_c, 1, 43, 127
2, 37360, Note_off_c, 1, 44, 0
2, 37360, Note_off_c, 1, 54, 0
2, 37360, Note_on_c, 1, 55, 127
2, 38720, Note_off_c, 1, 36, 0
2, 38720, Note_on_c, 1, 38, 127
2, 38720, Note_off_c, 1, 43, 0
2, 38720, Note_on_c, 1, 50, 127
2, 38720, Note_off_c, 1, 51, 0
2, 38720, Note_on_c, 1, 53, 127
2, 38720, Note_off_c, 1, 55, 0
2, 38720, Note_on_c, 1, 57, 127
2, 38720, Note_off_c, 1, 60, 0
2, 38720, Note_on_c, 1, 62, 127
2, 38760, Note_off_c, 1, 38, 0
2, 38760, Note_on_c, 1, 42, 127
2, 38760, Note_off_c, 1, 50, 0
2, 38760, Note_off_c, 1, 53, 0
2, 38760, Note_off_c, 1, 57, 0
2, 38760, Note_off_c, 1, 62, 0
2, 38760, Note_on_c, 1, 69, 127
2, 38760, Note_on_c, 1, 74, 127
2, 38800, Note_off_c, 1, 42, 0
2, 38800, Note_on_c, 1, 44, 127
2, 38800, Note_off_c, 1, 69, 0
2, 38800, Note_off_c, 1, 74, 0
2, 38800, Note_on_c, 1, 82, 127
2, 38800, Note_on_c, 1, 86, 127
2, 38800, Note_on_c, 1, 89, 127
2, 38800, Note_on_c, 1, 94, 127
2, 38840, Note_on_c, 1, 34, 127
2, 38840, Note_off_c, 1, 44, 0
2, 38840, Note_on_c, 1, 46, 127
2, 38840, Note_on_c, 1, 61, 127
2, 38840, Note_on_c, 1, 69, 127
2, 38840, Note_on_c, 1, 72, 127
2, 38840, Note_off_c, 1, 82, 0
2, 38840, Note_off_c, 1, 86, 0
2, 38840, Note_off_c, 1, 89, 0
2, 38840, Note_off_c, 1, 94, 0
2, 38880, Note_on_c, 1, 28, 127
2, 38880, Note_off_c, 1, 34, 0
2, 38880, Note_on_c, 1, 40, 127
2, 38880, Note_off_c, 1, 46, 0
2, 38880, Note_on_c, 1, 50, 127
2, 38880, Note_on_c, 1, 56, 127
2, 38880, Note_on_c, 1, 58, 127
2, 38880, Note_off_c, 1, 61, 0
2, 38880, Note_on_c, 1, 64, 127
2, 38880, Note_off_c, 1, 69, 0
2, 38880, Note_off_c, 1, 72, 0
2, 38920, Note_off_c, 1, 28, 0
2, 38920, Note_on_c, 1, 34, 127
2, 38920, Note_off_c, 1, 40, 0
2, 38920, Note_on_c, 1, 46, 127
2, 38920, Note_off_c, 1, 50, 0
2, 38920, Note_off_c, 1, 56, 0
2, 38920, Note_off_c, 1, 58, 0
2, 38920, Note_on_c, 1, 61, 127
2, 38920, Note_off_c, 1, 64, 0
2, 38920, Note_on_c, 1, 69, 127
2, 38920, Note_on_c, 1, 72, 127
2, 39040, Note_off_c, 1, 34, 0
2, 39040, Note_on_c, 1, 44, 127
2, 39040, Note_off_c, 1, 46, 0
2, 39040, Note_on_c, 1, 51, 127
2, 39040, Note_on_c, 1, 67, 127
2, 39040, Note_off_c, 1, 69, 0
2, 39040, Note_on_c, 1, 71, 127
2, 39040, Note_off_c, 1, 72, 0
2, 39080, Note_on_c, 1, 39, 127
2, 39080, Note_off_c, 1, 44, 0
2, 39080, Note_on_c, 1, 58, 127
2, 39080, Note_off_c, 1, 71, 0
2, 39080, Note_on_c, 1, 94, 127
2, 39120, Note_off_c, 1, 39, 0
2, 39120, Note_on_c, 1, 43, 127
2, 39120, Note_on_c, 1, 48, 127
2, 39120, Note_off_c, 1, 51, 0
2, 39120, Note_on_c, 1, 57, 127
2, 39120, Note_off_c, 1, 58, 0
2, 39120, Note_off_c, 1, 61, 0
2, 39120, Note_on_c, 1, 62, 127
2, 39120, Note_off_c, 1, 67, 0
2, 39120, Note_off_c, 1, 94, 0
2, 39160, Note_off_c, 1, 48, 0
2, 39160, Note_on_c, 1, 50, 127
2, 39160, Note_off_c, 1, 57, 0
2, 39160, Note_off_c, 1, 62, 0
2, 39200, Note_off_c, 1, 43, 0
2, 39200, Note_off_c, 1, 50, 0
2, 39200, Note_on_c, 1, 53, 127
2, 39200, Note_on_c, 1, 56, 127
2, 39200, Note_on_c, 1, 60, 127
2, 39200, Note_on_c, 1, 92, 127
2, 39240, Note_off_c, 1, 53, 0
2, 39240, Note_off_c, 1, 56, 0
2, 39240, Note_on_c, 1, 71, 127
2, 39240, Note_on_c, 1, 79, 127
2, 39240, Note_on_c, 1, 83, 127
2, 39240, Note_off_c, 1, 92, 0
2, 39360, Note_on_c, 1, 57, 127
2, 39360, Note_on_c, 1, 63, 127
2, 39360, Note_off_c, 1, 71, 0
2, 39360, Note_on_c, 1, 72, 127
2, 39360, Note_on_c, 1, 78, 127
2, 39360, Note_off_c, 1, 79, 0
2, 39360, Note_off_c, 1, 83, 0
2, 39400, Note_off_c, 1, 57, 0
2, 39400, Note_off_c, 1, 60, 0
2, 39400, Note_off_c, 1, 63, 0
2, 39400, Note_off_c, 1, 72, 0
2, 39400, Note_off_c, 1, 78, 0
2, 39440, Note_on_c, 1, 60, 127
2, 39440, Note_on_c, 1, 71, 127
2, 39440, Note_on_c, 1, 79, 127
2, 39440, Note_on_c, 1, 83, 127
2, 39960, Note_on_c, 1, 29, 127
2, 39960, Note_on_c, 1, 53, 127
2, 39960, Note_on_c, 1, 56, 127
2, 39960, Note_off_c, 1, 60, 0
2, 39960, Note_on_c, 1, 63, 127
2, 39960, Note_off_c, 1, 71, 0
2, 39960, Note_on_c, 1, 75, 127
2, 39960, Note_off_c, 1, 79, 0
2, 39960, Note_off_c, 1, 83, 0
2, 40000, Note_off_c, 1, 29, 0
2, 40000, Note_off_c, 1, 53, 0
2, 40000, Note_off_c, 1, 56, 0
2, 40000, Note_off_c, 1, 63, 0
2, 40000, Note_on_c, 1, 68, 127
2, 40000, Note_on_c, 1, 80, 127
2, 40000, Note_on_c, 1, 83, 127
2, 40000, Note_on_c, 1, 87, 127
2, 40000, Note_on_c, 1, 92, 127
2, 40040, Note_on_c, 1, 62, 127
2, 40040, Note_on_c, 1, 65, 127
2, 40040, Note_on_c, 1, 71, 127
2, 40040, Note_off_c, 1, 75, 0
2, 40040, Note_off_c, 1, 80, 0
2, 40040, Note_off_c, 1, 83, 0
2, 40040, Note_off_c, 1, 87, 0
2, 40040, Note_off_c, 1, 92, 0
2, 40080, Note_on_c, 1, 45, 127
2, 40080, Note_off_c, 1, 62, 0
2, 40080, Note_on_c, 1, 63, 127
2, 40080, Note_off_c, 1, 65, 0
2, 40080, Note_off_c, 1, 68, 0
2, 40080, Note_off_c, 1, 71, 0
2, 40080, Note_on_c, 1, 74, 127
2, 40240, Note_on_c, 1, 36, 127
2, 40240, Note_off_c, 1, 45, 0
2, 40240, Note_on_c, 1, 48, 127
2, 40240, Note_on_c, 1, 56, 127
2, 40240, Note_off_c, 1, 63, 0
2, 40240, Note_on_c, 1, 68, 127
2, 40240, Note_off_c, 1, 74, 0
2, 40240, Note_on_c, 1, 80, 127
2, 40240, Note_on_c, 1, 88, 127
2, 40240, Note_on_c, 1, 92, 127
2, 40280, Note_off_c, 1, 36, 0
2, 40280, Note_off_c, 1, 48, 0
2, 40280, Note_on_c, 1, 51, 127
2, 40280, Note_off_c, 1, 56, 0
2, 40280, Note_on_c, 1, 59, 127
2, 40280, Note_off_c, 1, 68, 0
2, 40280, Note_on_c, 1, 71, 127
2, 40280, Note_off_c, 1, 80, 0
2, 40280, Note_off_c, 1, 88, 0
2, 40280, Note_off_c, 1, 92, 0
2, 40320, Note_off_c, 1, 51, 0
2, 40320, Note_on_c, 1, 58, 127
2, 40320, Note_off_c, 1, 59, 0
2, 40320, Note_on_c, 1, 68, 127
2, 40320, Note_off_c, 1, 71, 0
2, 40320, Note_on_c, 1, 91, 127
2, 40360, Note_on_c, 1, 38, 127
2, 40360, Note_on_c, 1, 41, 127
2, 40360, Note_on_c, 1, 48, 127
2, 40360, Note_on_c, 1, 53, 127
2, 40360, Note_on_c, 1, 57, 127
2, 40360, Note_on_c, 1, 63, 127
2, 40360, Note_on_c, 1, 65, 127
2, 40360, Note_off_c, 1, 68, 0
2, 40360, Note_off_c, 1, 91, 0
2, 40400, Note_off_c, 1, 41, 0
2, 40400, Note_off_c, 1, 48, 0
2, 40400, Note_off_c, 1, 53, 0
2, 40400, Note_on_c, 1, 55, 127
2, 40400, Note_off_c, 1, 57, 0
2, 40400, Note_off_c, 1, 58, 0
2, 40400, Note_on_c, 1, 59, 127
2, 40400, Note_off_c, 1, 63, 0
2, 40400, Note_on_c, 1, 64, 127
2, 40400, Note_off_c, 1, 65, 0
2, 40400, Note_on_c, 1, 67, 127
2, 40440, Note_off_c, 1, 38, 0
2, 40440, Note_off_c, 1, 55, 0
2, 40440, Note_on_c, 1, 58, 127
2, 40440, Note_off_c, 1, 59, 0
2, 40440, Note_off_c, 1, 64, 0
2, 40440, Note_off_c, 1, 67, 0
2, 40440, Note_on_c, 1, 68, 127
2, 40440, Note_on_c, 1, 91, 127
2, 40640, Note_on_c, 1, 51, 127
2, 40640, Note_on_c, 1, 56, 127
2, 40640, Note_off_c, 1, 58, 0
2, 40640, Note_on_c, 1, 60, 127
2, 40640, Note_off_c, 1, 68, 0
2, 40640, Note_on_c, 1, 74, 127
2, 40640, Note_off_c, 1, 91, 0
2, 40680, Note_on_c, 1, 26, 127
2, 40680, Note_on_c, 1, 38, 127
2, 40680, Note_off_c, 1, 51, 0
2, 40680, Note_off_c, 1, 56, 0
2, 40680, Note_off_c, 1, 60, 0
2, 40680, Note_off_c, 1, 74, 0
2, 40720, Note_off_c, 1, 26, 0
2, 40720, Note_on_c, 1, 37, 127
2, 40720, Note_off_c, 1, 38, 0
2, 40720, Note_on_c, 1, 49, 127
2, 40720, Note_on_c, 1, 53, 127
2, 40720, Note_on_c, 1, 63, 127
2, 40720, Note_on_c, 1, 65, 127
2, 41080, Note_off_c, 1, 37, 0
2, 41080, Note_on_c, 1, 43, 127
2, 41080, Note_off_c, 1, 49, 0
2, 41080, Note_off_c, 1, 53, 0
2, 41080, Note_off_c, 1, 63, 0
2, 41080, Note_off_c, 1, 65, 0
2, 41080, Note_on_c, 1, 72, 127
2, 41080, Note_on_c, 1, 79, 127
2, 41120, Note_off_c, 1, 43, 0
2, 41120, Note_on_c, 1, 44, 127
2, 41120, Note_on_c, 1, 51, 127
2, 41120, Note_on_c, 1, 54, 127
2, 41120, Note_on_c, 1, 56, 127
2, 41120, Note_on_c, 1, 60, 127
2, 41120, Note_on_c, 1, 63, 127
2, 41120, Note_on_c, 1, 68, 127
2, 41120, Note_off_c, 1, 72, 0
2, 41120, Note_off_c, 1, 79, 0
2, 41160, Note_on_c, 1, 40, 127
2, 41160, Note_off_c, 1, 44, 0
2, 41160, Note_off_c, 1, 51, 0
2, 41160, Note_on_c, 1, 52, 127
2, 41160, Note_off_c, 1, 54, 0
2, 41160, Note_on_c, 1, 59, 127
2, 41160, Note_off_c, 1, 60, 0
2, 41160, Note_off_c, 1, 63, 0
2, 41160, Note_on_c, 1, 64, 127
2, 41160, Note_on_c, 1, 76, 127
2, 41160, Note_on_c, 1, 80, 127
2, 41160, Note_on_c, 1, 88, 127
2, 41200, Note_off_c, 1, 40, 0
2, 41200, Note_off_c, 1, 52, 0
2, 41200, Note_on_c, 1, 53, 127
2, 41200, Note_off_c, 1, 56, 0
2, 41200, Note_on_c, 1, 58, 127
2, 41200, Note_off_c, 1, 59, 0
2, 41200, Note_on_c, 1, 61, 127
2, 41200, Note_off_c, 1, 64, 0
2, 41200, Note_off_c, 1, 68, 0
2, 41200, Note_on_c, 1, 73, 127
2, 41200, Note_off_c, 1, 76, 0
2, 41200, Note_off_c, 1, 80, 0
2, 41200, Note_on_c, 1, 82, 127
2, 41200, Note_on_c, 1, 85, 127
2, 41200, Note_off_c, 1, 88, 0
2, 41240, Note_on_c, 1, 44, 127
2, 41240, Note_on_c, 1, 51, 127
2, 41240, Note_off_c, 1, 53, 0
2, 41240, Note_on_c, 1, 54, 127
2, 41240, Note_on_c, 1, 56, 127
2, 41240, Note_off_c, 1, 58, 0
2, 41240, Note_on_c, 1, 60, 127
2, 41240, Note_off_c, 1, 61, 0
2, 41240, Note_on_c, 1, 63, 127
2, 41240, Note_on_c, 1, 68, 127
2, 41240, Note_off_c, 1, 73, 0
2, 41240, Note_off_c, 1, 82, 0
2, 41240, Note_off_c, 1, 85, 0
2, 41280, Note_off_c, 1, 44, 0
2, 41280, Note_on_c, 1, 46, 127
2, 41280, Note_off_c, 1, 51, 0
2, 41280, Note_off_c, 1, 54, 0
2, 41280, Note_off_c, 1, 60, 0
2, 41280, Note_off_c, 1, 63, 0
2, 41280, Note_off_c, 1, 68, 0
2, 41280, Note_on_c, 1, 86, 127
2, 41320, Note_off_c, 1, 46, 0
2, 41320, Note_on_c, 1, 49, 127
2, 41320, Note_on_c, 1, 53, 127
2, 41320, Note_on_c, 1, 61, 127
2, 41320, Note_on_c, 1, 75, 127
2, 41320, Note_off_c, 1, 86, 0
2, 41360, Note_on_c, 1, 31, 127
2, 41360, Note_on_c, 1, 35, 127
2, 41360, Note_on_c, 1, 43, 127
2, 41360, Note_off_c, 1, 49, 0
2, 41360, Note_off_c, 1, 53, 0
2, 41360, Note_off_c, 1, 56, 0
2, 41360, Note_off_c, 1, 61, 0
2, 41360, Note_off_c, 1, 75, 0
2, 41400, Note_off_c, 1, 31, 0
2, 41400, Note_off_c, 1, 35, 0
2, 41400, Note_off_c, 1, 43, 0
2, 41400, Note_on_c, 1, 45, 127
2, 41400, Note_on_c, 1, 67, 127
2, 41400, Note_on_c, 1, 70, 127
2, 41400, Note_on_c, 1, 76, 127
2, 41440, Note_on_c, 1, 43, 127
2, 41440, Note_off_c, 1, 45, 0
2, 41440, Note_on_c, 1, 48, 127
2, 41440, Note_off_c, 1, 67, 0
2, 41440, Note_off_c, 1, 70, 0
2, 41440, Note_on_c, 1, 73, 127
2, 41440, Note_off_c, 1, 76, 0
2, 41440, Note_on_c, 1, 82, 127
2, 41440, Note_on_c, 1, 85, 127
2, 41480, Note_on_c, 1, 39, 127
2, 41480, Note_off_c, 1, 43, 0
2, 41480, Note_off_c, 1, 48, 0
2, 41480, Note_on_c, 1, 49, 127
2, 41480, Note_on_c, 1, 51, 127
2, 41480, Note_off_c, 1, 73, 0
2, 41480, Note_on_c, 1, 80, 127
2, 41480, Note_off_c, 1, 82, 0
2, 41480, Note_on_c, 1, 83, 127
2, 41480, Note_off_c, 1, 85, 0
2, 41480, Note_on_c, 1, 92, 127
2, 41520, Note_off_c, 1, 39, 0
2, 41520, Note_off_c, 1, 49, 0
2, 41520, Note_on_c, 1, 50, 127
2, 41520, Note_off_c, 1, 51, 0
2, 41520, Note_on_c, 1, 71, 127
2, 41520, Note_on_c, 1, 78, 127
2, 41520, Note_off_c, 1, 80, 0
2, 41520, Note_off_c, 1, 92, 0
2, 41560, Note_off_c, 1, 50, 0
2, 41560, Note_off_c, 1, 71, 0
2, 41560, Note_off_c, 1, 78, 0
2, 41560, Note_off_c, 1, 83, 0
2, 41600, Note_on_c, 1, 63, 127
2, 41600, Note_on_c, 1, 67, 127
2, 41600, Note_on_c, 1, 76, 127
2, 41640, Note_on_c, 1, 46, 127
2, 41640, Note_off_c, 1, 63, 0
2, 41640, Note_off_c, 1, 67, 0
2, 41640, Note_on_c, 1, 74, 127
2, 41680, Note_off_c, 1, 46, 0
2, 41680, Note_on_c, 1, 52, 127
2, 41680, Note_on_c, 1, 64, 127
2, 41680, Note_on_c, 1, 67, 127
2, 41680, Note_on_c, 1, 71, 127
2, 41680, Note_off_c, 1, 74, 0
2, 41720, Note_on_c, 1, 40, 127
2, 41720, Note_on_c, 1, 47, 127
2, 41720, Note_off_c, 1, 52, 0
2, 41720, Note_on_c, 1, 62, 127
2, 41720, Note_off_c, 1, 64, 0
2, 41720, Note_off_c, 1, 67, 0
2, 41720, Note_on_c, 1, 68, 127
2, 41720, Note_off_c, 1, 76, 0
2, 41720, Note_on_c, 1, 80, 127
2, 41720, Note_on_c, 1, 83, 127
2, 41760, Note_off_c, 1, 40, 0
2, 41760, Note_off_c, 1, 47, 0
2, 41760, Note_off_c, 1, 62, 0
2, 41760, Note_on_c, 1, 64, 127
2, 41760, Note_off_c, 1, 68, 0
2, 41760, Note_on_c, 1, 74, 127
2, 41760, Note_off_c, 1, 83, 0
2, 41760, Note_on_c, 1, 92, 127
2, 41800, Note_on_c, 1, 34, 127
2, 41800, Note_on_c, 1, 36, 127
2, 41800, Note_on_c, 1, 41, 127
2, 41800, Note_on_c, 1, 46, 127
2, 41800, Note_on_c, 1, 48, 127
2, 41800, Note_on_c, 1, 58, 127
2, 41800, Note_on_c, 1, 61, 127
2, 41800, Note_off_c, 1, 64, 0
2, 41800, Note_on_c, 1, 65, 127
2, 41800, Note_on_c, 1, 70, 127
2, 41800, Note_off_c, 1, 71, 0
2, 41800, Note_off_c, 1, 74, 0
2, 41800, Note_off_c, 1, 80, 0
2, 41800, Note_off_c, 1, 92, 0
2, 41840, Note_off_c, 1, 34, 0
2, 41840, Note_off_c, 1, 36, 0
2, 41840, Note_off_c, 1, 41, 0
2, 41840, Note_off_c, 1, 46, 0
2, 41840, Note_on_c, 1, 54, 127
2, 41840, Note_off_c, 1, 61, 0
2, 41840, Note_off_c, 1, 70, 0
2, 41880, Note_on_c, 1, 32, 127
2, 41880, Note_on_c, 1, 50, 127
2, 41880, Note_on_c, 1, 56, 127
2, 41880, Note_off_c, 1, 58, 0
2, 41880, Note_off_c, 1, 65, 0
2, 41920, Note_off_c, 1, 32, 0
2, 41920, Note_off_c, 1, 48, 0
2, 41920, Note_off_c, 1, 50, 0
2, 41920, Note_off_c, 1, 54, 0
2, 41920, Note_off_c, 1, 56, 0
2, 41920, Note_on_c, 1, 66, 127
2, 41920, Note_on_c, 1, 70, 127
2, 41920, Note_on_c, 1, 73, 127
2, 41920, Note_on_c, 1, 78, 127
2, 41920, Note_on_c, 1, 82, 127
2, 41920, Note_on_c, 1, 85, 127
2, 41920, Note_on_c, 1, 87, 127
2, 41960, Note_on_c, 1, 58, 127
2, 41960, Note_on_c, 1, 62, 127
2, 41960, Note_on_c, 1, 65, 127
2, 41960, Note_off_c, 1, 66, 0
2, 41960, Note_off_c, 1, 70, 0
2, 41960, Note_off_c, 1, 73, 0
2, 41960, Note_on_c, 1, 74, 127
2, 41960, Note_on_c, 1, 77, 127
2, 41960, Note_off_c, 1, 78, 0
2, 41960, Note_on_c, 1, 80, 127
2, 41960, Note_off_c, 1, 82, 0
2, 41960, Note_off_c, 1, 85, 0
2, 41960, Note_off_c, 1, 87, 0
2, 42000, Note_on_c, 1, 42, 127
2, 42000, Note_on_c, 1, 54, 127
2, 42000, Note_off_c, 1, 58, 0
2, 42000, Note_off_c, 1, 62, 0
2, 42000, Note_off_c, 1, 65, 0
2, 42000, Note_off_c, 1, 74, 0
2, 42000, Note_off_c, 1, 77, 0
2, 42000, Note_off_c, 1, 80, 0
2, 42000, Note_on_c, 1, 87, 127
2, 42000, Note_on_c, 1, 99, 127
2, 42040, Note_off_c, 1, 42, 0
2, 42040, Note_on_c, 1, 50, 127
2, 42040, Note_off_c, 1, 54, 0
2, 42040, Note_on_c, 1, 55, 127
2, 42040, Note_on_c, 1, 67, 127
2, 42040, Note_off_c, 1, 87, 0
2, 42040, Note_off_c, 1, 99, 0
2, 42080, Note_on_c, 1, 42, 127
2, 42080, Note_off_c, 1, 50, 0
2, 42080, Note_on_c, 1, 54, 127
2, 42080, Note_off_c, 1, 55, 0
2, 42080, Note_off_c, 1, 67, 0
2, 42080, Note_on_c, 1, 87, 127
2, 42080, Note_on_c, 1, 99, 127
2, 42200, Note_off_c, 1, 42, 0
2, 42200, Note_off_c, 1, 54, 0
2, 42200, Note_off_c, 1, 87, 0
2, 42200, Note_off_c, 1, 99, 0
2, 42240, Note_on_c, 1, 39, 127
2, 42240, Note_on_c, 1, 49, 127
2, 42240, Note_on_c, 1, 55, 127
2, 42240, Note_on_c, 1, 64, 127
2, 42280, Note_off_c, 1, 39, 0
2, 42280, Note_off_c, 1, 49, 0
2, 42280, Note_off_c, 1, 55, 0
2, 42280, Note_on_c, 1, 58, 127
2, 42280, Note_off_c, 1, 64, 0
2, 42280, Note_on_c, 1, 68, 127
2, 42280, Note_on_c, 1, 70, 127
2, 42280, Note_on_c, 1, 77, 127
2, 42280, Note_on_c, 1, 82, 127
2, 42320, Note_on_c, 1, 46, 127
2, 42320, Note_on_c, 1, 64, 127
2, 42320, Note_on_c, 1, 66, 127
2, 42320, Note_off_c, 1, 68, 0
2, 42320, Note_off_c, 1, 70, 0
2, 42320, Note_off_c, 1, 77, 0
2, 42320, Note_off_c, 1, 82, 0
2, 42360, Note_off_c, 1, 46, 0
2, 42360, Note_on_c, 1, 53, 127
2, 42360, Note_on_c, 1, 62, 127
2, 42360, Note_off_c, 1, 64, 0
2, 42360, Note_off_c, 1, 66, 0
2, 42360, Note_on_c, 1, 68, 127
2, 42360, Note_on_c, 1, 80, 127
2, 42400, Note_on_c, 1, 44, 127
2, 42400, Note_on_c, 1, 50, 127
2, 42400, Note_on_c, 1, 56, 127
2, 42400, Note_off_c, 1, 58, 0
2, 42400, Note_off_c, 1, 62, 0
2, 42400, Note_off_c, 1, 68, 0
2, 42400, Note_off_c, 1, 80, 0
2, 42400, Note_on_c, 1, 82, 127
2, 42400, Note_on_c, 1, 89, 127
2, 42400, Note_on_c, 1, 94, 127
2, 42440, Note_on_c, 1, 40, 127
2, 42440, Note_on_c, 1, 47, 127
2, 42440, Note_off_c, 1, 50, 0
2, 42440, Note_on_c, 1, 52, 127
2, 42440, Note_off_c, 1, 53, 0
2, 42440, Note_off_c, 1, 56, 0
2, 42440, Note_on_c, 1, 64, 127
2, 42440, Note_on_c, 1, 68, 127
2, 42440, Note_on_c, 1, 71, 127
2, 42440, Note_on_c, 1, 76, 127
2, 42440, Note_on_c, 1, 80, 127
2, 42440, Note_off_c, 1, 82, 0
2, 42440, Note_on_c, 1, 83, 127
2, 42440, Note_on_c, 1, 88, 127
2, 42440, Note_off_c, 1, 89, 0
2, 42440, Note_off_c, 1, 94, 0
2, 42440, Note_on_c, 1, 95, 127
2, 42480, Note_off_c, 1, 40, 0
2, 42480, Note_off_c, 1, 44, 0
2, 42480, Note_off_c, 1, 47, 0
2, 42480, Note_off_c, 1, 52, 0
2, 42480, Note_off_c, 1, 64, 0
2, 42480, Note_off_c, 1, 68, 0
2, 42480, Note_off_c, 1, 71, 0
2, 42480, Note_off_c, 1, 76, 0
2, 42480, Note_off_c, 1, 80, 0
2, 42480, Note_off_c, 1, 83, 0
2, 42480, Note_off_c, 1, 88, 0
2, 42480, Note_off_c, 1, 95, 0
2, 42520, Note_on_c, 1, 55, 127
2, 42520, Note_on_c, 1, 67, 127
2, 42520, Note_on_c, 1, 77, 127
2, 42520, Note_on_c, 1, 83, 127
2, 42520, Note_on_c, 1, 89, 127
2, 42720, Note_off_c, 1, 77, 0
2, 42720, Note_off_c, 1, 83, 0
2, 42720, Note_off_c, 1, 89, 0
2, 42760, Note_on_c, 1, 38, 127
2, 42760, Note_on_c, 1, 52, 127
2, 42760, Note_off_c, 1, 55, 0
2, 42760, Note_on_c, 1, 59, 127
2, 42800, Note_on_c, 1, 28, 127
2, 42800, Note_off_c, 1, 38, 0
2, 42800, Note_on_c, 1, 40, 127
2, 42800, Note_off_c, 1, 52, 0
2, 42800, Note_off_c, 1, 59, 0
2, 42800, Note_on_c, 1, 64, 127
2, 42800, Note_off_c, 1, 67, 0
2, 42800, Note_on_c, 1, 68, 127
2, 42800, Note_on_c, 1, 76, 127
2, 42840, Note_off_c, 1, 28, 0
2, 42840, Note_on_c, 1, 38, 127
2, 42840, Note_off_c, 1, 40, 0
2, 42840, Note_on_c, 1, 52, 127
2, 42840, Note_on_c, 1, 59, 127
2, 42840, Note_off_c, 1, 64, 0
2, 42840, Note_on_c, 1, 67, 127
2, 42840, Note_off_c, 1, 68, 0
2, 42840, Note_off_c, 1, 76, 0
2, 43000, Note_off_c, 1, 52, 0
2, 43000, Note_off_c, 1, 59, 0
2, 43000, Note_off_c, 1, 67, 0
2, 43040, Note_on_c, 1, 34, 127
2, 43040, Note_off_c, 1, 38, 0
2, 43040, Note_on_c, 1, 46, 127
2, 43040, Note_on_c, 1, 51, 127
2, 43040, Note_on_c, 1, 59, 127
2, 43280, Note_off_c, 1, 34, 0
2, 43280, Note_off_c, 1, 46, 0
2, 43280, Note_off_c, 1, 51, 0
2, 43280, Note_off_c, 1, 59, 0
2, 43320, Note_on_c, 1, 34, 127
2, 43320, Note_on_c, 1, 46, 127
2, 43320, Note_on_c, 1, 50, 127
2, 43760, Note_off_c, 1, 34, 0
2, 43760, Note_off_c, 1, 46, 0
2, 43760, Note_off_c, 1, 50, 0
2, 43800, Note_on_c, 1, 34, 127
2, 43800, Note_on_c, 1, 46, 127
2, 43800, Note_on_c, 1, 50, 127
2, 46320, Note_off_c, 1, 34, 0
2, 46320, Note_off_c, 1, 46, 0
2, 46320, Note_off_c, 1, 50, 0
2, 46320, Note_on_c, 1, 57, 127
2, 46320, Note_on_c, 1, 66, 127
2, 46320, Note_on_c, 1, 90, 127
2, 46320, Note_on_c, 1, 93, 127
2, 46360, Note_off_c, 1, 57, 0
2, 46360, Note_off_c, 1, 66, 0
2, 46360, Note_on_c, 1, 73, 127
2, 46360, Note_on_c, 1, 77, 127
2, 46360, Note_on_c, 1, 81, 127
2, 46360, Note_on_c, 1, 88, 127
2, 46360, Note_off_c, 1, 90, 0
2, 46360, Note_off_c, 1, 93, 0
2, 46400, Note_off_c, 1, 73, 0
2, 46400, Note_off_c, 1, 77, 0
2, 46400, Note_off_c, 1, 81, 0
2, 46400, Note_off_c, 1, 88, 0
2, 46440, Note_on_c, 1, 46, 127
2, 46440, Note_on_c, 1, 58, 127
2, 46440, Note_on_c, 1, 62, 127
2, 46440, Note_on_c, 1, 67, 127
2, 46440, Note_on_c, 1, 70, 127
2, 46480, Note_off_c, 1, 46, 0
2, 46480, Note_on_c, 1, 54, 127
2, 46480, Note_on_c, 1, 57, 127
2, 46480, Note_off_c, 1, 58, 0
2, 46480, Note_off_c, 1, 67, 0
2, 46480, Note_off_c, 1, 70, 0
2, 46480, Note_on_c, 1, 81, 127
2, 46480, Note_on_c, 1, 93, 127
2, 46520, Note_off_c, 1, 54, 0
2, 46520, Note_off_c, 1, 57, 0
2, 46520, Note_on_c, 1, 58, 127
2, 46520, Note_on_c, 1, 61, 127
2, 46520, Note_off_c, 1, 62, 0
2, 46520, Note_on_c, 1, 65, 127
2, 46520, Note_on_c, 1, 68, 127
2, 46520, Note_on_c, 1, 70, 127
2, 46520, Note_on_c, 1, 73, 127
2, 46520, Note_on_c, 1, 77, 127
2, 46520, Note_on_c, 1, 80, 127
2, 46520, Note_off_c, 1, 81, 0
2, 46520, Note_off_c, 1, 93, 0
2, 46560, Note_on_c, 1, 38, 127
2, 46560, Note_on_c, 1, 52, 127
2, 46560, Note_off_c, 1, 58, 0
2, 46560, Note_off_c, 1, 61, 0
2, 46560, Note_off_c, 1, 65, 0
2, 46560, Note_off_c, 1, 68, 0
2, 46560, Note_off_c, 1, 73, 0
2, 46560, Note_off_c, 1, 77, 0
2, 46560, Note_off_c, 1, 80, 0
2, 46600, Note_off_c, 1, 38, 0
2, 46600, Note_on_c, 1, 44, 127
2, 46600, Note_on_c, 1, 45, 127
2, 46600, Note_off_c, 1, 52, 0
2, 46600, Note_off_c, 1, 70, 0
2, 46600, Note_on_c, 1, 102, 127
2, 46600, Note_on_c, 1, 105, 127
2, 46640, Note_off_c, 1, 44, 0
2, 46640, Note_off_c, 1, 45, 0
2, 46640, Note_on_c, 1, 53, 127
2, 46640, Note_on_c, 1, 55, 127
2, 46640, Note_on_c, 1, 59, 127
2, 46640, Note_on_c, 1, 62, 127
2, 46640, Note_on_c, 1, 65, 127
2, 46640, Note_off_c, 1, 102, 0
2, 46640, Note_off_c, 1, 105, 0
2, 46680, Note_on_c, 1, 37, 127
2, 46680, Note_off_c, 1, 53, 0
2, 46680, Note_off_c, 1, 55, 0
2, 46680, Note_off_c, 1, 59, 0
2, 46680, Note_off_c, 1, 62, 0
2, 46680, Note_on_c, 1, 63, 127
2, 46680, Note_off_c, 1, 65, 0
2, 46680, Note_on_c, 1, 66, 127
2, 46680, Note_on_c, 1, 73, 127
2, 46680, Note_on_c, 1, 75, 127
2, 46720, Note_off_c, 1, 37, 0
2, 46720, Note_off_c, 1, 63, 0
2, 46720, Note_off_c, 1, 66, 0
2, 46720, Note_off_c, 1, 73, 0
2, 46720, Note_on_c, 1, 74, 127
2, 46720, Note_off_c, 1, 75, 0
2, 46720, Note_on_c, 1, 82, 127
2, 46720, Note_on_c, 1, 92, 127
2, 46720, Note_on_c, 1, 94, 127
2, 46760, Note_on_c, 1, 43, 127
2, 46760, Note_on_c, 1, 47, 127
2, 46760, Note_on_c, 1, 54, 127
2, 46760, Note_on_c, 1, 62, 127
2, 46760, Note_off_c, 1, 82, 0
2, 46760, Note_off_c, 1, 92, 0
2, 46760, Note_off_c, 1, 94, 0
2, 46800, Note_on_c, 1, 42, 127
2, 46800, Note_off_c, 1, 43, 0
2, 46800, Note_off_c, 1, 47, 0
2, 46800, Note_off_c, 1, 62, 0
2, 46800, Note_off_c, 1, 74, 0
2, 46800, Note_on_c, 1, 76, 127
2, 46800, Note_on_c, 1, 78, 127
2, 46840, Note_off_c, 1, 42, 0
2, 46840, Note_off_c, 1, 54, 0
2, 46840, Note_off_c, 1, 76, 0
2, 46840, Note_off_c, 1, 78, 0
2, 46840, Note_on_c, 1, 82, 127
2, 46840, Note_on_c, 1, 92, 127
2, 46840, Note_on_c, 1, 94, 127
2, 46880, Note_on_c, 1, 30, 127
2, 46880, Note_on_c, 1, 42, 127
2, 46880, Note_on_c, 1, 57, 127
2, 46880, Note_on_c, 1, 62, 127
2, 46880, Note_on_c, 1, 66, 127
2, 46880, Note_on_c, 1, 69, 127
2, 46880, Note_off_c, 1, 82, 0
2, 46880, Note_off_c, 1, 92, 0
2, 46880, Note_off_c, 1, 94, 0
2, 46920, Note_off_c, 1, 30, 0
2, 46920, Note_off_c, 1, 42, 0
2, 46920, Note_on_c, 1, 60, 127
2, 46920, Note_off_c, 1, 62, 0
2, 46920, Note_on_c, 1, 63, 127
2, 46920, Note_off_c, 1, 69, 0
2, 46920, Note_on_c, 1, 72, 127
2, 46920, Note_on_c, 1, 75, 127
2, 46920, Note_on_c, 1, 78, 127
2, 46960, Note_off_c, 1, 57, 0
2, 46960, Note_off_c, 1, 60, 0
2, 46960, Note_off_c, 1, 63, 0
2, 46960, Note_off_c, 1, 66, 0
2, 46960, Note_off_c, 1, 72, 0
2, 46960, Note_off_c, 1, 75, 0
2, 46960, Note_off_c, 1, 78, 0
2, 47000, Note_on_c, 1, 38, 127
2, 47000, Note_on_c, 1, 50, 127
2, 47040, Note_on_c, 1, 59, 127
2, 47040, Note_on_c, 1, 71, 127
2, 47360, Note_off_c, 1, 59, 0
2, 47400, Note_on_c, 1, 57, 127
2, 47400, Note_on_c, 1, 62, 127
2, 47400, Note_on_c, 1, 65, 127
2, 47400, Note_off_c, 1, 71, 0
2, 47640, Note_off_c, 1, 38, 0
2, 47640, Note_off_c, 1, 50, 0
2, 47640, Note_off_c, 1, 57, 0
2, 47640, Note_off_c, 1, 62, 0
2, 47640, Note_off_c, 1, 65, 0
2, 47680, Note_on_c, 1, 47, 127
2, 47680, Note_on_c, 1, 57, 127
2, 47680, Note_on_c, 1, 62, 127
2, 47680, Note_on_c, 1, 68, 127
2, 47680, Note_on_c, 1, 71, 127
2, 47800, Note_off_c, 1, 47, 0
2, 47800, Note_on_c, 1, 55, 127
2, 47800, Note_off_c, 1, 57, 0
2, 47800, Note_on_c, 1, 61, 127
2, 47800, Note_off_c, 1, 62, 0
2, 47800, Note_off_c, 1, 68, 0
2, 47800, Note_on_c, 1, 70, 127
2, 47800, Note_off_c, 1, 71, 0
2, 47800, Note_on_c, 1, 79, 127
2, 47800, Note_on_c, 1, 82, 127
2, 47840, Note_on_c, 1, 47, 127
2, 47840, Note_on_c, 1, 50, 127
2, 47840, Note_on_c, 1, 53, 127
2, 47840, Note_off_c, 1, 55, 0
2, 47840, Note_off_c, 1, 61, 0
2, 47840, Note_on_c, 1, 66, 127
2, 47840, Note_off_c, 1, 70, 0
2, 47840, Note_on_c, 1, 74, 127
2, 47840, Note_on_c, 1, 77, 127
2, 47840, Note_off_c, 1, 79, 0
2, 47840, Note_off_c, 1, 82, 0
2, 47880, Note_off_c, 1, 47, 0
2, 47880, Note_off_c, 1, 50, 0
2, 47880, Note_on_c, 1, 52, 127
2, 47880, Note_off_c, 1, 53, 0
2, 47880, Note_on_c, 1, 73, 127
2, 47880, Note_off_c, 1, 74, 0
2, 47880, Note_off_c, 1, 77, 0
2, 47880, Note_on_c, 1, 82, 127
2, 47880, Note_on_c, 1, 85, 127
2, 47920, Note_off_c, 1, 52, 0
2, 47920, Note_off_c, 1, 66, 0
2, 47920, Note_off_c, 1, 73, 0
2, 47920, Note_off_c, 1, 82, 0
2, 47920, Note_off_c, 1, 85, 0
2, 47960, Note_on_c, 1, 52, 127
2, 47960, Note_on_c, 1, 59, 127
2, 47960, Note_on_c, 1, 67, 127
2, 47960, Note_on_c, 1, 71, 127
2, 47960, Note_on_c, 1, 76, 127
2, 47960, Note_on_c, 1, 79, 127
2, 48200, Note_off_c, 1, 52, 0
2, 48200, Note_off_c, 1, 59, 0
2, 48200, Note_off_c, 1, 67, 0
2, 48200, Note_off_c, 1, 71, 0
2, 48200, Note_off_c, 1, 76, 0
2, 48200, Note_off_c, 1, 79, 0
2, 48240, Note_on_c, 1, 52, 127
2, 48240, Note_on_c, 1, 64, 127
2, 48240, Note_on_c, 1, 67, 127
2, 48240, Note_on_c, 1, 79, 127
2, 48480, Note_off_c, 1, 52, 0
2, 48480, Note_off_c, 1, 64, 0
2, 48480, Note_off_c, 1, 67, 0
2, 48480, Note_off_c, 1, 79, 0
2, 48520, Note_on_c, 1, 50, 127
2, 48520, Note_on_c, 1, 62, 127
2, 48520, Note_on_c, 1, 65, 127
2, 48520, Note_on_c, 1, 77, 127
2, 48760, Note_off_c, 1, 50, 0
2, 48760, Note_off_c, 1, 62, 0
2, 48760, Note_off_c, 1, 65, 0
2, 48760, Note_off_c, 1, 77, 0
2, 48800, Note_on_c, 1, 35, 127
2, 48800, Note_on_c, 1, 47, 127
2, 48800, Note_on_c, 1, 49, 127
2, 48800, Note_on_c, 1, 52, 127
2, 48800, Note_on_c, 1, 59, 127
2, 48840, Note_off_c, 1, 35, 0
2, 48840, Note_off_c, 1, 47, 0
2, 48840, Note_off_c, 1, 49, 0
2, 48840, Note_off_c, 1, 52, 0
2, 48840, Note_off_c, 1, 59, 0
2, 48880, Note_on_c, 1, 49, 127
2, 48880, Note_on_c, 1, 54, 127
2, 48880, Note_on_c, 1, 61, 127
2, 48880, Note_on_c, 1, 64, 127
2, 48880, Note_on_c, 1, 66, 127
2, 48880, Note_on_c, 1, 71, 127
2, 48920, Note_off_c, 1, 49, 0
2, 48920, Note_on_c, 1, 53, 127
2, 48920, Note_off_c, 1, 54, 0
2, 48920, Note_on_c, 1, 56, 127
2, 48920, Note_off_c, 1, 64, 0
2, 48920, Note_off_c, 1, 66, 0
2, 48920, Note_off_c, 1, 71, 0
2, 48920, Note_on_c, 1, 85, 127
2, 48920, Note_on_c, 1, 89, 127
2, 48920, Note_on_c, 1, 92, 127
2, 48960, Note_on_c, 1, 36, 127
2, 48960, Note_on_c, 1, 48, 127
2, 48960, Note_off_c, 1, 53, 0
2, 48960, Note_off_c, 1, 56, 0
2, 48960, Note_off_c, 1, 61, 0
2, 48960, Note_off_c, 1, 85, 0
2, 48960, Note_on_c, 1, 88, 127
2, 48960, Note_off_c, 1, 89, 0
2, 48960, Note_on_c, 1, 100, 127
2, 49000, Note_off_c, 1, 36, 0
2, 49000, Note_off_c, 1, 48, 0
2, 49000, Note_off_c, 1, 88, 0
2, 49000, Note_off_c, 1, 92, 0
2, 49000, Note_off_c, 1, 100, 0
2, 49040, Note_on_c, 1, 55, 127
2, 49040, Note_on_c, 1, 67, 127
2, 49040, Note_on_c, 1, 75, 127
2, 49040, Note_on_c, 1, 83, 127
2, 49040, Note_on_c, 1, 87, 127
2, 49080, Note_off_c, 1, 55, 0
2, 49080, Note_off_c, 1, 67, 0
2, 49080, Note_off_c, 1, 75, 0
2, 49080, Note_off_c, 1, 83, 0
2, 49080, Note_off_c, 1, 87, 0
2, 49120, Note_on_c, 1, 55, 127
2, 49120, Note_on_c, 1, 67, 127
2, 49120, Note_on_c, 1, 75, 127
2, 49120, Note_on_c, 1, 83, 127
2, 49120, Note_on_c, 1, 87, 127
2, 49320, Note_off_c, 1, 75, 0
2, 49320, Note_off_c, 1, 83, 0
2, 49320, Note_off_c, 1, 87, 0
2, 49360, Note_off_c, 1, 55, 0
2, 49360, Note_off_c, 1, 67, 0
2, 49400, Note_on_c, 1, 31, 127
2, 49400, Note_on_c, 1, 35, 127
2, 49400, Note_on_c, 1, 43, 127
2, 49400, Note_on_c, 1, 71, 127
2, 49640, Note_off_c, 1, 31, 0
2, 49640, Note_off_c, 1, 35, 0
2, 49640, Note_off_c, 1, 43, 0
2, 49640, Note_off_c, 1, 71, 0
2, 49680, Note_on_c, 1, 53, 127
2, 49680, Note_on_c, 1, 65, 127
2, 49680, Note_on_c, 1, 68, 127
2, 49680, Note_on_c, 1, 71, 127
2, 49920, Note_off_c, 1, 53, 0
2, 49920, Note_off_c, 1, 65, 0
2, 49920, Note_off_c, 1, 68, 0
2, 49920, Note_off_c, 1, 71, 0
2, 49960, Note_on_c, 1, 53, 127
2, 49960, Note_on_c, 1, 56, 127
2, 49960, Note_on_c, 1, 65, 127
2, 49960, Note_on_c, 1, 68, 127
2, 49960, Note_on_c, 1, 71, 127
2, 50160, Note_off_c, 1, 53, 0
2, 50160, Note_off_c, 1, 56, 0
2, 50160, Note_on_c, 1, 62, 127
2, 50160, Note_off_c, 1, 65, 0
2, 50160, Note_off_c, 1, 71, 0
2, 50160, Note_on_c, 1, 72, 127
2, 50160, Note_on_c, 1, 74, 127
2, 50160, Note_on_c, 1, 86, 127
2, 50160, Note_on_c, 1, 92, 127
2, 50160, Note_on_c, 1, 96, 127
2, 50160, Note_on_c, 1, 98, 127
2, 50200, Note_off_c, 1, 62, 0
2, 50200, Note_off_c, 1, 68, 0
2, 50200, Note_off_c, 1, 72, 0
2, 50200, Note_off_c, 1, 74, 0
2, 50200, Note_off_c, 1, 86, 0
2, 50200, Note_off_c, 1, 92, 0
2, 50200, Note_off_c, 1, 96, 0
2, 50200, Note_off_c, 1, 98, 0
2, 50240, Note_on_c, 1, 53, 127
2, 50240, Note_on_c, 1, 57, 127
2, 50240, Note_on_c, 1, 60, 127
2, 50240, Note_on_c, 1, 63, 127
2, 50240, Note_on_c, 1, 65, 127
2, 50240, Note_on_c, 1, 72, 127
2, 50440, Note_off_c, 1, 53, 0
2, 50440, Note_off_c, 1, 57, 0
2, 50440, Note_off_c, 1, 63, 0
2, 50440, Note_off_c, 1, 65, 0
2, 50480, Note_on_c, 1, 53, 127
2, 50480, Note_on_c, 1, 57, 127
2, 50480, Note_on_c, 1, 63, 127
2, 50480, Note_on_c, 1, 65, 127
2, 50640, Note_off_c, 1, 53, 0
2, 50640, Note_off_c, 1, 57, 0
2, 50640, Note_off_c, 1, 63, 0
2, 50640, Note_off_c, 1, 65, 0
2, 50680, Note_on_c, 1, 53, 127
2, 50680, Note_on_c, 1, 57, 127
2, 50680, Note_on_c, 1, 63, 127
2, 50680, Note_on_c, 1, 65, 127
2, 50720, Note_off_c, 1, 53, 0
2, 50720, Note_off_c, 1, 57, 0
2, 50720, Note_off_c, 1, 60, 0
2, 50720, Note_off_c, 1, 63, 0
2, 50720, Note_off_c, 1, 65, 0
2, 50720, Note_off_c, 1, 72, 0
2, 50760, Note_on_c, 1, 46, 127
2, 50760, Note_on_c, 1, 53, 127
2, 50760, Note_on_c, 1, 68, 127
2, 50760, Note_on_c, 1, 73, 127
2, 51000, Note_off_c, 1, 46, 0
2, 51000, Note_off_c, 1, 53, 0
2, 51000, Note_off_c, 1, 68, 0
2, 51000, Note_off_c, 1, 73, 0
2, 51040, Note_on_c, 1, 46, 127
2, 51040, Note_on_c, 1, 53, 127
2, 51040, Note_on_c, 1, 68, 127
2, 51040, Note_on_c, 1, 73, 127
2, 51200, Note_off_c, 1, 46, 0
2, 51200, Note_on_c, 1, 49, 127
2, 51200, Note_off_c, 1, 53, 0
2, 51200, Note_off_c, 1, 73, 0
2, 51240, Note_off_c, 1, 49, 0
2, 51240, Note_on_c, 1, 63, 127
2, 51240, Note_off_c, 1, 68, 0
2, 51240, Note_on_c, 1, 69, 127
2, 51240, Note_on_c, 1, 74, 127
2, 51240, Note_on_c, 1, 81, 127
2, 51240, Note_on_c, 1, 89, 127
2, 51240, Note_on_c, 1, 93, 127
2, 51600, Note_off_c, 1, 63, 0
2, 51600, Note_off_c, 1, 69, 0
2, 51600, Note_off_c, 1, 74, 0
2, 51640, Note_on_c, 1, 49, 127
2, 51640, Note_on_c, 1, 56, 127
2, 51640, Note_on_c, 1, 59, 127
2, 51640, Note_on_c, 1, 68, 127
2, 51640, Note_on_c, 1, 73, 127
2, 51640, Note_on_c, 1, 77, 127
2, 51640, Note_on_c, 1, 80, 127
2, 51640, Note_off_c, 1, 81, 0
2, 51640, Note_on_c, 1, 85, 127
2, 51640, Note_off_c, 1, 89, 0
2, 51640, Note_off_c, 1, 93, 0
2, 51680, Note_off_c, 1, 49, 0
2, 51680, Note_on_c, 1, 52, 127
2, 51680, Note_off_c, 1, 56, 0
2, 51680, Note_on_c, 1, 63, 127
2, 51680, Note_on_c, 1, 64, 127
2, 51680, Note_off_c, 1, 68, 0
2, 51680, Note_on_c, 1, 71, 127
2, 51680, Note_off_c, 1, 73, 0
2, 51680, Note_on_c, 1, 75, 127
2, 51680, Note_on_c, 1, 76, 127
2, 51680, Note_off_c, 1, 77, 0
2, 51680, Note_off_c, 1, 80, 0
2, 51680, Note_off_c, 1, 85, 0
2, 51720, Note_off_c, 1, 52, 0
2, 51720, Note_off_c, 1, 59, 0
2, 51720, Note_off_c, 1, 63, 0
2, 51720, Note_off_c, 1, 64, 0
2, 51720, Note_off_c, 1, 71, 0
2, 51720, Note_off_c, 1, 75, 0
2, 51720, Note_off_c, 1, 76, 0
2, 51760, Note_on_c, 1, 49, 127
2, 51760, Note_on_c, 1, 56, 127
2, 51760, Note_on_c, 1, 59, 127
2, 51760, Note_on_c, 1, 68, 127
2, 51760, Note_on_c, 1, 73, 127
2, 51760, Note_on_c, 1, 77, 127
2, 51760, Note_on_c, 1, 80, 127
2, 51760, Note_on_c, 1, 85, 127
2, 51960, Note_off_c, 1, 49, 0
2, 51960, Note_off_c, 1, 56, 0
2, 51960, Note_off_c, 1, 59, 0
2, 51960, Note_off_c, 1, 68, 0
2, 51960, Note_off_c, 1, 73, 0
2, 51960, Note_off_c, 1, 77, 0
2, 51960, Note_off_c, 1, 80, 0
2, 51960, Note_off_c, 1, 85, 0
2, 52040, Note_on_c, 1, 48, 127
2, 52040, Note_on_c, 1, 70, 127
2, 52040, Note_on_c, 1, 73, 127
2, 52040, Note_on_c, 1, 78, 127
2, 52080, Note_off_c, 1, 48, 0
2, 52080, Note_on_c, 1, 52, 127
2, 52080, Note_on_c, 1, 64, 127
2, 52080, Note_on_c, 1, 69, 127
2, 52080, Note_off_c, 1, 70, 0
2, 52080, Note_on_c, 1, 71, 127
2, 52080, Note_off_c, 1, 73, 0
2, 52080, Note_off_c, 1, 78, 0
2, 52120, Note_off_c, 1, 52, 0
2, 52120, Note_off_c, 1, 64, 0
2, 52120, Note_off_c, 1, 69, 0
2, 52120, Note_off_c, 1, 71, 0
2, 52160, Note_on_c, 1, 91, 127
2, 52160, Note_on_c, 1, 94, 127
2, 52160, Note_on_c, 1, 99, 127
2, 52200, Note_off_c, 1, 91, 0
2, 52200, Note_off_c, 1, 94, 0
2, 52200, Note_off_c, 1, 99, 0
2, 52240, Note_on_c, 1, 54, 127
2, 52240, Note_on_c, 1, 58, 127
2, 52240, Note_on_c, 1, 63, 127
2, 52240, Note_on_c, 1, 66, 127
2, 52240, Note_on_c, 1, 78, 127
2, 52240, Note_on_c, 1, 87, 127
2, 52280, Note_on_c, 1, 31, 127
2, 52280, Note_off_c, 1, 54, 0
2, 52280, Note_off_c, 1, 58, 0
2, 52280, Note_off_c, 1, 63, 0
2, 52280, Note_off_c, 1, 66, 0
2, 52280, Note_off_c, 1, 78, 0
2, 52280, Note_on_c, 1, 79, 127
2, 52280, Note_on_c, 1, 82, 127
2, 52280, Note_on_c, 1, 86, 127
2, 52280, Note_off_c, 1, 87, 0
2, 52280, Note_on_c, 1, 91, 127
2, 52320, Note_off_c, 1, 31, 0
2, 52320, Note_off_c, 1, 79, 0
2, 52320, Note_off_c, 1, 82, 0
2, 52320, Note_off_c, 1, 86, 0
2, 52320, Note_off_c, 1, 91, 0
2, 52360, Note_on_c, 1, 42, 127
2, 52360, Note_on_c, 1, 54, 127
2, 52360, Note_on_c, 1, 75, 127
2, 52360, Note_on_c, 1, 78, 127
2, 52360, Note_on_c, 1, 81, 127
2, 52360, Note_on_c, 1, 87, 127
2, 52640, Note_on_c, 1, 41, 127
2, 52640, Note_off_c, 1, 42, 0
2, 52640, Note_on_c, 1, 48, 127
2, 52640, Note_on_c, 1, 53, 127
2, 52640, Note_off_c, 1, 54, 0
2, 52640, Note_on_c, 1, 57, 127
2, 52640, Note_on_c, 1, 65, 127
2, 52640, Note_off_c, 1, 75, 0
2, 52640, Note_off_c, 1, 78, 0
2, 52640, Note_off_c, 1, 81, 0
2, 52640, Note_off_c, 1, 87, 0
2, 52680, Note_on_c, 1, 36, 127
2, 52680, Note_off_c, 1, 41, 0
2, 52680, Note_off_c, 1, 53, 0
2, 52680, Note_off_c, 1, 57, 0
2, 52680, Note_off_c, 1, 65, 0
2, 52680, Note_on_c, 1, 79, 127
2, 52680, Note_on_c, 1, 84, 127
2, 52680, Note_on_c, 1, 88, 127
2, 52680, Note_on_c, 1, 91, 127
2, 52720, Note_off_c, 1, 36, 0
2, 52720, Note_off_c, 1, 48, 0
2, 52720, Note_off_c, 1, 79, 0
2, 52720, Note_off_c, 1, 84, 0
2, 52720, Note_off_c, 1, 88, 0
2, 52720, Note_off_c, 1, 91, 0
2, 52800, Note_on_c, 1, 36, 127
2, 52800, Note_on_c, 1, 43, 127
2, 52800, Note_on_c, 1, 51, 127
2, 52840, Note_off_c, 1, 51, 0
2, 52880, Note_on_c, 1, 51, 127
2, 52920, Note_off_c, 1, 51, 0
2, 52960, Note_on_c, 1, 51, 127
2, 53000, Note_on_c, 1, 33, 127
2, 53000, Note_off_c, 1, 36, 0
2, 53000, Note_on_c, 1, 42, 127
2, 53000, Note_off_c, 1, 43, 0
2, 53000, Note_on_c, 1, 45, 127
2, 53000, Note_off_c, 1, 51, 0
2, 53000, Note_on_c, 1, 62, 127
2, 53000, Note_on_c, 1, 74, 127
2, 53040, Note_off_c, 1, 33, 0
2, 53040, Note_off_c, 1, 42, 0
2, 53040, Note_off_c, 1, 45, 0
2, 53040, Note_off_c, 1, 62, 0
2, 53040, Note_off_c, 1, 74, 0
2, 53080, Note_on_c, 1, 30, 127
2, 53080, Note_on_c, 1, 56, 127
2, 53120, Note_off_c, 1, 30, 0
2, 53120, Note_on_c, 1, 33, 127
2, 53120, Note_on_c, 1, 45, 127
2, 53120, Note_on_c, 1, 50, 127
2, 53120, Note_on_c, 1, 53, 127
2, 53120, Note_off_c, 1, 56, 0
2, 53120, Note_on_c, 1, 57, 127
2, 53120, Note_on_c, 1, 69, 127
2, 53160, Note_off_c, 1, 33, 0
2, 53160, Note_off_c, 1, 45, 0
2, 53160, Note_off_c, 1, 50, 0
2, 53160, Note_off_c, 1, 53, 0
2, 53160, Note_off_c, 1, 57, 0
2, 53160, Note_off_c, 1, 69, 0
2, 53240, Note_on_c, 1, 30, 127
2, 53240, Note_on_c, 1, 56, 127
2, 53280, Note_on_c, 1, 29, 127
2, 53280, Note_off_c, 1, 30, 0
2, 53280, Note_on_c, 1, 48, 127
2, 53280, Note_off_c, 1, 56, 0
2, 53320, Note_off_c, 1, 29, 0
2, 53320, Note_off_c, 1, 48, 0
2, 53360, Note_on_c, 1, 31, 127
2, 53360, Note_on_c, 1, 43, 127
2, 53360, Note_on_c, 1, 50, 127
2, 53360, Note_on_c, 1, 62, 127
2, 53360, Note_on_c, 1, 71, 127
2, 53360, Note_on_c, 1, 83, 127
2, 53400, Note_off_c, 1, 31, 0
2, 53400, Note_off_c, 1, 43, 0
2, 53400, Note_off_c, 1, 50, 0
2, 53400, Note_off_c, 1, 62, 0
2, 53400, Note_off_c, 1, 71, 0
2, 53400, Note_off_c, 1, 83, 0
2, 53440, Note_on_c, 1, 43, 127
2, 53440, Note_on_c, 1, 53, 127
2, 53440, Note_on_c, 1, 58, 127
2, 53440, Note_on_c, 1, 65, 127
2, 53520, Note_off_c, 1, 43, 0
2, 53520, Note_off_c, 1, 53, 0
2, 53520, Note_off_c, 1, 58, 0
2, 53520, Note_off_c, 1, 65, 0
2, 53560, Note_on_c, 1, 45, 127
2, 53560, Note_on_c, 1, 55, 127
2, 53560, Note_on_c, 1, 60, 127
2, 53560, Note_on_c, 1, 67, 127
2, 53800, Note_off_c, 1, 45, 0
2, 53800, Note_off_c, 1, 55, 0
2, 53800, Note_off_c, 1, 60, 0
2, 53800, Note_off_c, 1, 67, 0
2, 53840, Note_on_c, 1, 52, 127
2, 53840, Note_on_c, 1, 60, 127
2, 53840, Note_on_c, 1, 64, 127
2, 53840, Note_on_c, 1, 71, 127
2, 54080, Note_off_c, 1, 71, 0
2, 54120, Note_on_c, 1, 44, 127
2, 54120, Note_off_c, 1, 52, 0
2, 54120, Note_on_c, 1, 54, 127
2, 54120, Note_off_c, 1, 60, 0
2, 54120, Note_on_c, 1, 63, 127
2, 54120, Note_off_c, 1, 64, 0
2, 54120, Note_on_c, 1, 68, 127
2, 54320, Note_on_c, 1, 40, 127
2, 54320, Note_off_c, 1, 44, 0
2, 54320, Note_off_c, 1, 54, 0
2, 54320, Note_on_c, 1, 56, 127
2, 54320, Note_off_c, 1, 63, 0
2, 54320, Note_on_c, 1, 64, 127
2, 54320, Note_off_c, 1, 68, 0
2, 54360, Note_off_c, 1, 40, 0
2, 54360, Note_on_c, 1, 43, 127
2, 54360, Note_on_c, 1, 50, 127
2, 54360, Note_off_c, 1, 56, 0
2, 54360, Note_on_c, 1, 59, 127
2, 54360, Note_off_c, 1, 64, 0
2, 54360, Note_on_c, 1, 67, 127
2, 54440, Note_off_c, 1, 43, 0
2, 54440, Note_on_c, 1, 48, 127
2, 54440, Note_off_c, 1, 50, 0
2, 54440, Note_on_c, 1, 55, 127
2, 54440, Note_off_c, 1, 59, 0
2, 54440, Note_on_c, 1, 64, 127
2, 54600, Note_off_c, 1, 48, 0
2, 54600, Note_off_c, 1, 55, 0
2, 54600, Note_off_c, 1, 64, 0
2, 54600, Note_off_c, 1, 67, 0
2, 54640, Note_on_c, 1, 58, 127
2, 54640, Note_on_c, 1, 62, 127
2, 54680, Note_off_c, 1, 58, 0
2, 54680, Note_off_c, 1, 62, 0
2, 54680, Note_on_c, 1, 65, 127
2, 54720, Note_on_c, 1, 60, 127
2, 54760, Note_off_c, 1, 60, 0
2, 54760, Note_off_c, 1, 65, 0
2, 54800, Note_on_c, 1, 60, 127
2, 54800, Note_on_c, 1, 67, 127
2, 54840, Note_on_c, 1, 65, 127
2, 54840, Note_off_c, 1, 67, 0
2, 54880, Note_off_c, 1, 60, 0
2, 54880, Note_off_c, 1, 65, 0
2, 54920, Note_on_c, 1, 60, 127
2, 54920, Note_on_c, 1, 65, 127
2, 54960, Note_off_c, 1, 60, 0
2, 54960, Note_off_c, 1, 65, 0
2, 55000, Note_on_c, 1, 42, 127
2, 55000, Note_on_c, 1, 73, 127
2, 55000, Note_on_c, 1, 77, 127
2, 55080, Note_off_c, 1, 42, 0
2, 55080, Note_off_c, 1, 73, 0
2, 55080, Note_off_c, 1, 77, 0
2, 55120, Note_on_c, 1, 53, 127
2, 55120, Note_on_c, 1, 59, 127
2, 55120, Note_on_c, 1, 68, 127
2, 55120, Note_on_c, 1, 75, 127
2, 55120, Note_on_c, 1, 80, 127
2, 55200, Note_off_c, 1, 53, 0
2, 55200, Note_off_c, 1, 59, 0
2, 55200, Note_off_c, 1, 68, 0
2, 55200, Note_off_c, 1, 75, 0
2, 55200, Note_off_c, 1, 80, 0
2, 55240, Note_on_c, 1, 53, 127
2, 55240, Note_on_c, 1, 59, 127
2, 55240, Note_on_c, 1, 68, 127
2, 55240, Note_on_c, 1, 75, 127
2, 55240, Note_on_c, 1, 80, 127
2, 55320, Note_off_c, 1, 53, 0
2, 55320, Note_off_c, 1, 59, 0
2, 55320, Note_on_c, 1, 60, 127
2, 55320, Note_on_c, 1, 66, 127
2, 55320, Note_off_c, 1, 75, 0
2, 55320, Note_off_c, 1, 80, 0
2, 55320, Note_on_c, 1, 92, 127
2, 55320, Note_on_c, 1, 104, 127
2, 55360, Note_on_c, 1, 44, 127
2, 55360, Note_off_c, 1, 60, 0
2, 55360, Note_off_c, 1, 68, 0
2, 55360, Note_on_c, 1, 73, 127
2, 55360, Note_off_c, 1, 92, 0
2, 55360, Note_off_c, 1, 104, 0
2, 55400, Note_off_c, 1, 44, 0
2, 55400, Note_off_c, 1, 66, 0
2, 55400, Note_off_c, 1, 73, 0
2, 55440, Note_on_c, 1, 47, 127
2, 55440, Note_on_c, 1, 54, 127
2, 55440, Note_on_c, 1, 69, 127
2, 55440, Note_on_c, 1, 73, 127
2, 55800, Note_off_c, 1, 47, 0
2, 55800, Note_off_c, 1, 54, 0
2, 55800, Note_off_c, 1, 69, 0
2, 55800, Note_off_c, 1, 73, 0
2, 55840, Note_on_c, 1, 41, 127
2, 55840, Note_on_c, 1, 48, 127
2, 55840, Note_on_c, 1, 67, 127
2, 55840, Note_on_c, 1, 70, 127
2, 56120, Note_off_c, 1, 41, 0
2, 56120, Note_off_c, 1, 48, 0
2, 56120, Note_off_c, 1, 67, 0
2, 56120, Note_off_c, 1, 70, 0
2, 56160, Note_on_c, 1, 43, 127
2, 56160, Note_on_c, 1, 66, 127
2, 56160, Note_on_c, 1, 69, 127
2, 56160, Note_on_c, 1, 72, 127
2, 56160, Note_on_c, 1, 74, 127
2, 56200, Note_off_c, 1, 43, 0
2, 56200, Note_off_c, 1, 66, 0
2, 56200, Note_off_c, 1, 69, 0
2, 56200, Note_off_c, 1, 72, 0
2, 56200, Note_off_c, 1, 74, 0
2, 56240, Note_on_c, 1, 50, 127
2, 56240, Note_on_c, 1, 60, 127
2, 56240, Note_on_c, 1, 62, 127
2, 56240, Note_on_c, 1, 66, 127
2, 56240, Note_on_c, 1, 69, 127
2, 56280, Note_on_c, 1, 44, 127
2, 56280, Note_off_c, 1, 50, 0
2, 56280, Note_on_c, 1, 52, 127
2, 56280, Note_off_c, 1, 60, 0
2, 56280, Note_on_c, 1, 61, 127
2, 56280, Note_off_c, 1, 62, 0
2, 56280, Note_off_c, 1, 66, 0
2, 56280, Note_off_c, 1, 69, 0
2, 56280, Note_on_c, 1, 70, 127
2, 56320, Note_off_c, 1, 44, 0
2, 56320, Note_on_c, 1, 47, 127
2, 56320, Note_off_c, 1, 52, 0
2, 56320, Note_on_c, 1, 54, 127
2, 56320, Note_off_c, 1, 61, 0
2, 56320, Note_on_c, 1, 66, 127
2, 56320, Note_off_c, 1, 70, 0
2, 56320, Note_on_c, 1, 71, 127
2, 56320, Note_on_c, 1, 74, 127
2, 56360, Note_off_c, 1, 47, 0
2, 56360, Note_off_c, 1, 54, 0
2, 56360, Note_on_c, 1, 58, 127
2, 56360, Note_off_c, 1, 66, 0
2, 56360, Note_off_c, 1, 74, 0
2, 56360, Note_on_c, 1, 78, 127
2, 56360, Note_on_c, 1, 81, 127
2, 56360, Note_on_c, 1, 83, 127
2, 56400, Note_on_c, 1, 50, 127
2, 56400, Note_on_c, 1, 53, 127
2, 56400, Note_on_c, 1, 56, 127
2, 56400, Note_on_c, 1, 57, 127
2, 56400, Note_off_c, 1, 58, 0
2, 56400, Note_on_c, 1, 69, 127
2, 56400, Note_off_c, 1, 71, 0
2, 56400, Note_off_c, 1, 78, 0
2, 56400, Note_off_c, 1, 81, 0
2, 56400, Note_off_c, 1, 83, 0
2, 56440, Note_on_c, 1, 47, 127
2, 56440, Note_off_c, 1, 50, 0
2, 56440, Note_off_c, 1, 53, 0
2, 56440, Note_off_c, 1, 57, 0
2, 56440, Note_on_c, 1, 59, 127
2, 56440, Note_on_c, 1, 68, 127
2, 56440, Note_off_c, 1, 69, 0
2, 56440, Note_on_c, 1, 76, 127
2, 56440, Note_on_c, 1, 80, 127
2, 56480, Note_off_c, 1, 47, 0
2, 56480, Note_on_c, 1, 54, 127
2, 56480, Note_off_c, 1, 56, 0
2, 56480, Note_on_c, 1, 57, 127
2, 56480, Note_off_c, 1, 59, 0
2, 56480, Note_on_c, 1, 62, 127
2, 56480, Note_off_c, 1, 68, 0
2, 56480, Note_on_c, 1, 69, 127
2, 56480, Note_on_c, 1, 75, 127
2, 56480, Note_off_c, 1, 76, 0
2, 56480, Note_off_c, 1, 80, 0
2, 56480, Note_on_c, 1, 81, 127
2, 56520, Note_on_c, 1, 49, 127
2, 56520, Note_off_c, 1, 57, 0
2, 56520, Note_on_c, 1, 61, 127
2, 56520, Note_off_c, 1, 62, 0
2, 56520, Note_on_c, 1, 65, 127
2, 56520, Note_off_c, 1, 69, 0
2, 56520, Note_on_c, 1, 70, 127
2, 56520, Note_off_c, 1, 75, 0
2, 56520, Note_on_c, 1, 77, 127
2, 56520, Note_off_c, 1, 81, 0
2, 56560, Note_off_c, 1, 49, 0
2, 56560, Note_off_c, 1, 54, 0
2, 56560, Note_off_c, 1, 61, 0
2, 56560, Note_off_c, 1, 65, 0
2, 56560, Note_off_c, 1, 70, 0
2, 56560, Note_off_c, 1, 77, 0
2, 56600, Note_on_c, 1, 52, 127
2, 56600, Note_on_c, 1, 64, 127
2, 56600, Note_on_c, 1, 65, 127
2, 56600, Note_on_c, 1, 71, 127
2, 56600, Note_on_c, 1, 74, 127
2, 56800, Note_off_c, 1, 52, 0
2, 56800, Note_on_c, 1, 57, 127
2, 56840, Note_on_c, 1, 48, 127
2, 56840, Note_on_c, 1, 53, 127
2, 56840, Note_off_c, 1, 57, 0
2, 56840, Note_off_c, 1, 64, 0
2, 56840, Note_off_c, 1, 65, 0
2, 56840, Note_on_c, 1, 69, 127
2, 56840, Note_off_c, 1, 71, 0
2, 56840, Note_off_c, 1, 74, 0
2, 56880, Note_off_c, 1, 48, 0
2, 56880, Note_off_c, 1, 53, 0
2, 56880, Note_on_c, 1, 61, 127
2, 56880, Note_off_c, 1, 69, 0
2, 56880, Note_on_c, 1, 76, 127
2, 56880, Note_on_c, 1, 82, 127
2, 56880, Note_on_c, 1, 88, 127
2, 56920, Note_off_c, 1, 61, 0
2, 56920, Note_off_c, 1, 76, 0
2, 56920, Note_off_c, 1, 82, 0
2, 56920, Note_off_c, 1, 88, 0
2, 56960, Note_on_c, 1, 74, 127
2, 56960, Note_on_c, 1, 75, 127
2, 56960, Note_on_c, 1, 79, 127
2, 56960, Note_on_c, 1, 87, 127
2, 57000, Note_on_c, 1, 48, 127
2, 57000, Note_off_c, 1, 74, 0
2, 57000, Note_off_c, 1, 75, 0
2, 57000, Note_off_c, 1, 79, 0
2, 57000, Note_off_c, 1, 87, 0
2, 57000, Note_on_c, 1, 90, 127
2, 57000, Note_on_c, 1, 91, 127
2, 57040, Note_off_c, 1, 48, 0
2, 57040, Note_on_c, 1, 50, 127
2, 57040, Note_on_c, 1, 60, 127
2, 57040, Note_on_c, 1, 75, 127
2, 57040, Note_off_c, 1, 90, 0
2, 57040, Note_off_c, 1, 91, 0
2, 57080, Note_off_c, 1, 50, 0
2, 57080, Note_off_c, 1, 75, 0
2, 57080, Note_on_c, 1, 76, 127
2, 57080, Note_on_c, 1, 79, 127
2, 57080, Note_on_c, 1, 82, 127
2, 57120, Note_on_c, 1, 46, 127
2, 57120, Note_on_c, 1, 50, 127
2, 57120, Note_on_c, 1, 53, 127
2, 57120, Note_off_c, 1, 60, 0
2, 57120, Note_on_c, 1, 63, 127
2, 57120, Note_on_c, 1, 65, 127
2, 57120, Note_off_c, 1, 76, 0
2, 57120, Note_off_c, 1, 79, 0
2, 57120, Note_off_c, 1, 82, 0
2, 57160, Note_off_c, 1, 46, 0
2, 57160, Note_off_c, 1, 50, 0
2, 57160, Note_off_c, 1, 53, 0
2, 57160, Note_on_c, 1, 62, 127
2, 57160, Note_off_c, 1, 63, 0
2, 57160, Note_off_c, 1, 65, 0
2, 57160, Note_on_c, 1, 72, 127
2, 57160, Note_on_c, 1, 74, 127
2, 57160, Note_on_c, 1, 77, 127
2, 57160, Note_on_c, 1, 84, 127
2, 57200, Note_off_c, 1, 62, 0
2, 57200, Note_off_c, 1, 72, 0
2, 57200, Note_off_c, 1, 74, 0
2, 57200, Note_off_c, 1, 77, 0
2, 57200, Note_off_c, 1, 84, 0
2, 57240, Note_on_c, 1, 60, 127
2, 57240, Note_on_c, 1, 62, 127
2, 57240, Note_on_c, 1, 69, 127
2, 57240, Note_on_c, 1, 90, 127
2, 57280, Note_off_c, 1, 60, 0
2, 57280, Note_off_c, 1, 62, 0
2, 57280, Note_off_c, 1, 69, 0
2, 57280, Note_off_c, 1, 90, 0
2, 57320, Note_on_c, 1, 40, 127
2, 57320, Note_on_c, 1, 45, 127
2, 57320, Note_on_c, 1, 48, 127
2, 57320, Note_on_c, 1, 59, 127
2, 57320, Note_on_c, 1, 71, 127
2, 57360, Note_on_c, 1, 27, 127
2, 57360, Note_on_c, 1, 39, 127
2, 57360, Note_off_c, 1, 40, 0
2, 57360, Note_off_c, 1, 45, 0
2, 57360, Note_off_c, 1, 48, 0
2, 57360, Note_on_c, 1, 57, 127
2, 57360, Note_off_c, 1, 59, 0
2, 57360, Note_on_c, 1, 60, 127
2, 57360, Note_on_c, 1, 66, 127
2, 57360, Note_off_c, 1, 71, 0
2, 57400, Note_off_c, 1, 27, 0
2, 57400, Note_off_c, 1, 39, 0
2, 57400, Note_on_c, 1, 40, 127
2, 57400, Note_on_c, 1, 43, 127
2, 57400, Note_on_c, 1, 52, 127
2, 57400, Note_off_c, 1, 57, 0
2, 57400, Note_off_c, 1, 60, 0
2, 57400, Note_off_c, 1, 66, 0
2, 57400, Note_on_c, 1, 76, 127
2, 57400, Note_on_c, 1, 88, 127
2, 57440, Note_off_c, 1, 40, 0
2, 57440, Note_off_c, 1, 43, 0
2, 57440, Note_on_c, 1, 50, 127
2, 57440, Note_off_c, 1, 52, 0
2, 57440, Note_on_c, 1, 71, 127
2, 57440, Note_off_c, 1, 76, 0
2, 57440, Note_on_c, 1, 83, 127
2, 57440, Note_on_c, 1, 84, 127
2, 57440, Note_off_c, 1, 88, 0
2, 57480, Note_off_c, 1, 50, 0
2, 57480, Note_on_c, 1, 65, 127
2, 57480, Note_on_c, 1, 66, 127
2, 57480, Note_on_c, 1, 68, 127
2, 57480, Note_off_c, 1, 71, 0
2, 57480, Note_on_c, 1, 72, 127
2, 57480, Note_on_c, 1, 77, 127
2, 57480, Note_on_c, 1, 80, 127
2, 57480, Note_off_c, 1, 83, 0
2, 57480, Note_on_c, 1, 89, 127
2, 57520, Note_on_c, 1, 53, 127
2, 57520, Note_on_c, 1, 58, 127
2, 57520, Note_on_c, 1, 61, 127
2, 57520, Note_on_c, 1, 64, 127
2, 57520, Note_off_c, 1, 65, 0
2, 57520, Note_off_c, 1, 66, 0
2, 57520, Note_off_c, 1, 68, 0
2, 57520, Note_off_c, 1, 72, 0
2, 57520, Note_off_c, 1, 77, 0
2, 57520, Note_on_c, 1, 79, 127
2, 57520, Note_off_c, 1, 80, 0
2, 57520, Note_off_c, 1, 84, 0
2, 57520, Note_off_c, 1, 89, 0
2, 57560, Note_on_c, 1, 43, 127
2, 57560, Note_on_c, 1, 52, 127
2, 57560, Note_off_c, 1, 53, 0
2, 57560, Note_off_c, 1, 58, 0
2, 57560, Note_off_c, 1, 61, 0
2, 57560, Note_off_c, 1, 64, 0
2, 57560, Note_on_c, 1, 67, 127
2, 57560, Note_on_c, 1, 71, 127
2, 57560, Note_off_c, 1, 79, 0
2, 57600, Note_off_c, 1, 43, 0
2, 57600, Note_on_c, 1, 48, 127
2, 57600, Note_off_c, 1, 52, 0
2, 57600, Note_on_c, 1, 55, 127
2, 57600, Note_on_c, 1, 57, 127
2, 57600, Note_off_c, 1, 67, 0
2, 57600, Note_off_c, 1, 71, 0
2, 57600, Note_on_c, 1, 72, 127
2, 57640, Note_off_c, 1, 48, 0
2, 57640, Note_off_c, 1, 55, 0
2, 57640, Note_off_c, 1, 57, 0
2, 57640, Note_off_c, 1, 72, 0
2, 57680, Note_on_c, 1, 44, 127
2, 57680, Note_on_c, 1, 51, 127
2, 57680, Note_on_c, 1, 54, 127
2, 57680, Note_on_c, 1, 66, 127
2, 57680, Note_on_c, 1, 68, 127
2, 57680, Note_on_c, 1, 75, 127
2, 57680, Note_on_c, 1, 78, 127
2, 57960, Note_off_c, 1, 44, 0
2, 58000, Note_on_c, 1, 49, 127
2, 58000, Note_off_c, 1, 51, 0
2, 58000, Note_on_c, 1, 53, 127
2, 58000, Note_off_c, 1, 54, 0
2, 58000, Note_off_c, 1, 66, 0
2, 58000, Note_off_c, 1, 68, 0
2, 58000, Note_off_c, 1, 75, 0
2, 58000, Note_off_c, 1, 78, 0
2, 58000, Note_on_c, 1, 80, 127
2, 58000, Note_on_c, 1, 83, 127
2, 58040, Note_off_c, 1, 49, 0
2, 58040, Note_off_c, 1, 53, 0
2, 58040, Note_on_c, 1, 63, 127
2, 58040, Note_on_c, 1, 70, 127
2, 58040, Note_off_c, 1, 80, 0
2, 58040, Note_off_c, 1, 83, 0
2, 58040, Note_on_c, 1, 84, 127
2, 58040, Note_on_c, 1, 91, 127
2, 58360, Note_off_c, 1, 63, 0
2, 58360, Note_off_c, 1, 70, 0
2, 58360, Note_off_c, 1, 84, 0
2, 58360, Note_off_c, 1, 91, 0
2, 58400, Note_on_c, 1, 50, 127
2, 58400, Note_on_c, 1, 79, 127
2, 58400, Note_on_c, 1, 86, 127
2, 58400, Note_on_c, 1, 91, 127
2, 58440, Note_on_c, 1, 36, 127
2, 58440, Note_off_c, 1, 50, 0
2, 58440, Note_on_c, 1, 67, 127
2, 58440, Note_on_c, 1, 72, 127
2, 58440, Note_on_c, 1, 76, 127
2, 58440, Note_off_c, 1, 79, 0
2, 58440, Note_off_c, 1, 86, 0
2, 58440, Note_off_c, 1, 91, 0
2, 58680, Note_off_c, 1, 36, 0
2, 58680, Note_off_c, 1, 67, 0
2, 58680, Note_off_c, 1, 72, 0
2, 58680, Note_off_c, 1, 76, 0
2, 58720, Note_on_c, 1, 52, 127
2, 58720, Note_on_c, 1, 56, 127
2, 58720, Note_on_c, 1, 61, 127
2, 58720, Note_on_c, 1, 64, 127
2, 58720, Note_on_c, 1, 73, 127
2, 58720, Note_on_c, 1, 76, 127
2, 58800, Note_on_c, 1, 28, 127
2, 58800, Note_on_c, 1, 40, 127
2, 58800, Note_off_c, 1, 52, 0
2, 58800, Note_off_c, 1, 56, 0
2, 58800, Note_off_c, 1, 61, 0
2, 58800, Note_off_c, 1, 64, 0
2, 58800, Note_on_c, 1, 68, 127
2, 58840, Note_off_c, 1, 28, 0
2, 58840, Note_off_c, 1, 40, 0
2, 58840, Note_on_c, 1, 52, 127
2, 58840, Note_on_c, 1, 56, 127
2, 58840, Note_on_c, 1, 61, 127
2, 58840, Note_on_c, 1, 64, 127
2, 58840, Note_off_c, 1, 68, 0
2, 58880, Note_off_c, 1, 73, 0
2, 58880, Note_off_c, 1, 76, 0
2, 58920, Note_on_c, 1, 46, 127
2, 58920, Note_on_c, 1, 50, 127
2, 58920, Note_off_c, 1, 52, 0
2, 58920, Note_off_c, 1, 56, 0
2, 58920, Note_on_c, 1, 58, 127
2, 58920, Note_off_c, 1, 61, 0
2, 58920, Note_off_c, 1, 64, 0
2, 58920, Note_on_c, 1, 77, 127
2, 58920, Note_on_c, 1, 82, 127
2, 58920, Note_on_c, 1, 89, 127
2, 58960, Note_off_c, 1, 46, 0
2, 58960, Note_off_c, 1, 50, 0
2, 58960, Note_off_c, 1, 58, 0
2, 58960, Note_off_c, 1, 77, 0
2, 58960, Note_off_c, 1, 82, 0
2, 58960, Note_off_c, 1, 89, 0
2, 59000, Note_on_c, 1, 55, 127
2, 59000, Note_on_c, 1, 69, 127
2, 59000, Note_on_c, 1, 72, 127
2, 59000, Note_on_c, 1, 81, 127
2, 59160, Note_off_c, 1, 55, 0
2, 59160, Note_off_c, 1, 69, 0
2, 59160, Note_off_c, 1, 72, 0
2, 59160, Note_off_c, 1, 81, 0
2, 59200, Note_on_c, 1, 55, 127
2, 59200, Note_on_c, 1, 69, 127
2, 59200, Note_on_c, 1, 72, 127
2, 59200, Note_on_c, 1, 81, 127
2, 59280, Note_off_c, 1, 55, 0
2, 59280, Note_off_c, 1, 69, 0
2, 59280, Note_off_c, 1, 72, 0
2, 59280, Note_off_c, 1, 81, 0
2, 59320, Note_on_c, 1, 61, 127
2, 59320, Note_on_c, 1, 71, 127
2, 59320, Note_on_c, 1, 86, 127
2, 59320, Note_on_c, 1, 89, 127
2, 59480, Note_off_c, 1, 61, 0
2, 59480, Note_on_c, 1, 67, 127
2, 59480, Note_off_c, 1, 71, 0
2, 59480, Note_on_c, 1, 74, 127
2, 59480, Note_on_c, 1, 81, 127
2, 59480, Note_on_c, 1, 84, 127
2, 59480, Note_off_c, 1, 86, 0
2, 59480, Note_off_c, 1, 89, 0
2, 59480, Note_on_c, 1, 93, 127
2, 59520, Note_on_c, 1, 61, 127
2, 59520, Note_off_c, 1, 67, 0
2, 59520, Note_on_c, 1, 71, 127
2, 59520, Note_off_c, 1, 74, 0
2, 59520, Note_off_c, 1, 81, 0
2, 59520, Note_off_c, 1, 84, 0
2, 59520, Note_on_c, 1, 86, 127
2, 59520, Note_on_c, 1, 89, 127
2, 59520, Note_off_c, 1, 93, 0
2, 59560, Note_off_c, 1, 61, 0
2, 59560, Note_off_c, 1, 71, 0
2, 59560, Note_on_c, 1, 80, 127
2, 59560, Note_off_c, 1, 86, 0
2, 59560, Note_on_c, 1, 88, 127
2, 59560, Note_off_c, 1, 89, 0
2, 59560, Note_on_c, 1, 92, 127
2, 59600, Note_on_c, 1, 72, 127
2, 59600, Note_on_c, 1, 74, 127
2, 59600, Note_on_c, 1, 79, 127
2, 59600, Note_off_c, 1, 80, 0
2, 59600, Note_off_c, 1, 88, 0
2, 59600, Note_on_c, 1, 89, 127
2, 59600, Note_on_c, 1, 91, 127
2, 59600, Note_off_c, 1, 92, 0
2, 59600, Note_on_c, 1, 95, 127
2, 59640, Note_on_c, 1, 42, 127
2, 59640, Note_on_c, 1, 55, 127
2, 59640, Note_off_c, 1, 72, 0
2, 59640, Note_off_c, 1, 74, 0
2, 59640, Note_on_c, 1, 76, 127
2, 59640, Note_off_c, 1, 79, 0
2, 59640, Note_on_c, 1, 81, 127
2, 59640, Note_off_c, 1, 89, 0
2, 59640, Note_off_c, 1, 91, 0
2, 59640, Note_off_c, 1, 95, 0
2, 59680, Note_on_c, 1, 49, 127
2, 59680, Note_on_c, 1, 54, 127
2, 59680, Note_off_c, 1, 55, 0
2, 59680, Note_on_c, 1, 58, 127
2, 59680, Note_on_c, 1, 61, 127
2, 59680, Note_on_c, 1, 63, 127
2, 59680, Note_off_c, 1, 76, 0
2, 59680, Note_off_c, 1, 81, 0
2, 59720, Note_off_c, 1, 42, 0
2, 59720, Note_off_c, 1, 49, 0
2, 59720, Note_off_c, 1, 54, 0
2, 59720, Note_off_c, 1, 58, 0
2, 59720, Note_off_c, 1, 61, 0
2, 59720, Note_off_c, 1, 63, 0
2, 59720, Note_on_c, 1, 72, 127
2, 59720, Note_on_c, 1, 81, 127
2, 59720, Note_on_c, 1, 84, 127
2, 59720, Note_on_c, 1, 91, 127
2, 59760, Note_on_c, 1, 79, 127
2, 59760, Note_off_c, 1, 81, 0
2, 59760, Note_off_c, 1, 91, 0
2, 59800, Note_on_c, 1, 62, 127
2, 59800, Note_on_c, 1, 70, 127
2, 59800, Note_off_c, 1, 72, 0
2, 59800, Note_on_c, 1, 73, 127
2, 59800, Note_off_c, 1, 79, 0
2, 59800, Note_on_c, 1, 81, 127
2, 59800, Note_off_c, 1, 84, 0
2, 59800, Note_on_c, 1, 88, 127
2, 59880, Note_off_c, 1, 62, 0
2, 59880, Note_off_c, 1, 70, 0
2, 59880, Note_off_c, 1, 73, 0
2, 59880, Note_on_c, 1, 76, 127
2, 59880, Note_off_c, 1, 81, 0
2, 59880, Note_on_c, 1, 85, 127
2, 59880, Note_off_c, 1, 88, 0
2, 59880, Note_on_c, 1, 93, 127
2, 59920, Note_off_c, 1, 76, 0
2, 59920, Note_off_c, 1, 85, 0
2, 59920, Note_off_c, 1, 93, 0
2, 59960, Note_on_c, 1, 69, 127
2, 59960, Note_on_c, 1, 73, 127
2, 59960, Note_on_c, 1, 89, 127
2, 60080, Note_off_c, 1, 89, 0
2, 60120, Note_off_c, 1, 69, 0
2, 60120, Note_off_c, 1, 73, 0
2, 60120, Note_on_c, 1, 74, 127
2, 60120, Note_on_c, 1, 77, 127
2, 60120, Note_on_c, 1, 89, 127
2, 60240, Note_off_c, 1, 74, 0
2, 60240, Note_off_c, 1, 77, 0
2, 60240, Note_off_c, 1, 89, 0
2, 60280, Note_on_c, 1, 67, 127
2, 60280, Note_on_c, 1, 83, 127
2, 60280, Note_on_c, 1, 91, 127
2, 60400, Note_off_c, 1, 67, 0
2, 60400, Note_off_c, 1, 83, 0
2, 60400, Note_off_c, 1, 91, 0
2, 60440, Note_on_c, 1, 52, 127
2, 60440, Note_on_c, 1, 59, 127
2, 60440, Note_on_c, 1, 70, 127
2, 60440, Note_on_c, 1, 71, 127
2, 60480, Note_on_c, 1, 41, 127
2, 60480, Note_off_c, 1, 52, 0
2, 60480, Note_on_c, 1, 53, 127
2, 60480, Note_off_c, 1, 59, 0
2, 60480, Note_off_c, 1, 70, 0
2, 60480, Note_off_c, 1, 71, 0
2, 60480, Note_on_c, 1, 86, 127
2, 60480, Note_on_c, 1, 98, 127
2, 60520, Note_on_c, 1, 37, 127
2, 60520, Note_off_c, 1, 41, 0
2, 60520, Note_on_c, 1, 49, 127
2, 60520, Note_off_c, 1, 53, 0
2, 60520, Note_on_c, 1, 82, 127
2, 60520, Note_off_c, 1, 86, 0
2, 60520, Note_on_c, 1, 90, 127
2, 60520, Note_on_c, 1, 94, 127
2, 60520, Note_off_c, 1, 98, 0
2, 60560, Note_off_c, 1, 37, 0
2, 60560, Note_off_c, 1, 49, 0
2, 60560, Note_off_c, 1, 82, 0
2, 60560, Note_off_c, 1, 90, 0
2, 60560, Note_off_c, 1, 94, 0
2, 60600, Note_on_c, 1, 93, 127
2, 60600, Note_on_c, 1, 96, 127
2, 60600, Note_on_c, 1, 105, 127
2, 60640, Note_on_c, 1, 64, 127
2, 60640, Note_on_c, 1, 67, 127
2, 60640, Note_on_c, 1, 70, 127
2, 60640, Note_on_c, 1, 76, 127
2, 60640, Note_on_c, 1, 79, 127
2, 60640, Note_on_c, 1, 82, 127
2, 60640, Note_off_c, 1, 93, 0
2, 60640, Note_off_c, 1, 96, 0
2, 60640, Note_off_c, 1, 105, 0
2, 60680, Note_off_c, 1, 64, 0
2, 60680, Note_off_c, 1, 67, 0
2, 60680, Note_on_c, 1, 68, 127
2, 60680, Note_off_c, 1, 70, 0
2, 60680, Note_on_c, 1, 72, 127
2, 60680, Note_on_c, 1, 75, 127
2, 60680, Note_off_c, 1, 76, 0
2, 60680, Note_on_c, 1, 78, 127
2, 60680, Note_off_c, 1, 79, 0
2, 60680, Note_off_c, 1, 82, 0
2, 60680, Note_on_c, 1, 90, 127
2, 60720, Note_on_c, 1, 54, 127
2, 60720, Note_on_c, 1, 57, 127
2, 60720, Note_on_c, 1, 60, 127
2, 60720, Note_on_c, 1, 64, 127
2, 60720, Note_off_c, 1, 68, 0
2, 60720, Note_off_c, 1, 72, 0
2, 60720, Note_off_c, 1, 75, 0
2, 60720, Note_on_c, 1, 76, 127
2, 60720, Note_off_c, 1, 90, 0
2, 60760, Note_off_c, 1, 54, 0
2, 60760, Note_off_c, 1, 57, 0
2, 60760, Note_on_c, 1, 58, 127
2, 60760, Note_off_c, 1, 60, 0
2, 60760, Note_on_c, 1, 61, 127
2, 60760, Note_on_c, 1, 63, 127
2, 60760, Note_off_c, 1, 64, 0
2, 60760, Note_on_c, 1, 67, 127
2, 60760, Note_on_c, 1, 70, 127
2, 60760, Note_on_c, 1, 75, 127
2, 60760, Note_off_c, 1, 76, 0
2, 60760, Note_off_c, 1, 78, 0
2, 60760, Note_on_c, 1, 82, 127
2, 60800, Note_on_c, 1, 49, 127
2, 60800, Note_on_c, 1, 51, 127
2, 60800, Note_on_c, 1, 55, 127
2, 60800, Note_off_c, 1, 58, 0
2, 60800, Note_off_c, 1, 61, 0
2, 60800, Note_off_c, 1, 63, 0
2, 60800, Note_off_c, 1, 67, 0
2, 60800, Note_off_c, 1, 75, 0
2, 60800, Note_off_c, 1, 82, 0
2, 60840, Note_on_c, 1, 48, 127
2, 60840, Note_off_c, 1, 49, 0
2, 60840, Note_off_c, 1, 51, 0
2, 60840, Note_on_c, 1, 64, 127
2, 60840, Note_on_c, 1, 67, 127
2, 60840, Note_off_c, 1, 70, 0
2, 60840, Note_on_c, 1, 79, 127
2, 60880, Note_off_c, 1, 48, 0
2, 60880, Note_on_c, 1, 51, 127
2, 60880, Note_on_c, 1, 54, 127
2, 60880, Note_off_c, 1, 55, 0
2, 60880, Note_on_c, 1, 57, 127
2, 60880, Note_off_c, 1, 64, 0
2, 60880, Note_off_c, 1, 67, 0
2, 60880, Note_off_c, 1, 79, 0
2, 60880, Note_on_c, 1, 82, 127
2, 60920, Note_off_c, 1, 51, 0
2, 60920, Note_off_c, 1, 54, 0
2, 60920, Note_off_c, 1, 57, 0
2, 60920, Note_off_c, 1, 82, 0
2, 60960, Note_on_c, 1, 39, 127
2, 60960, Note_on_c, 1, 51, 127
2, 60960, Note_on_c, 1, 81, 127
2, 60960, Note_on_c, 1, 84, 127
2, 60960, Note_on_c, 1, 93, 127
2, 61160, Note_off_c, 1, 39, 0
2, 61160, Note_off_c, 1, 51, 0
2, 61160, Note_off_c, 1, 81, 0
2, 61160, Note_off_c, 1, 84, 0
2, 61160, Note_off_c, 1, 93, 0
2, 61200, Note_on_c, 1, 39, 127
2, 61200, Note_on_c, 1, 51, 127
2, 61200, Note_on_c, 1, 81, 127
2, 61200, Note_on_c, 1, 84, 127
2, 61200, Note_on_c, 1, 93, 127
2, 61280, Note_off_c, 1, 39, 0
2, 61280, Note_off_c, 1, 51, 0
2, 61280, Note_off_c, 1, 81, 0
2, 61280, Note_off_c, 1, 84, 0
2, 61280, Note_off_c, 1, 93, 0
2, 61320, Note_on_c, 1, 41, 127
2, 61320, Note_on_c, 1, 47, 127
2, 61320, Note_on_c, 1, 53, 127
2, 61320, Note_on_c, 1, 80, 127
2, 61320, Note_on_c, 1, 86, 127
2, 61320, Note_on_c, 1, 92, 127
2, 61600, Note_off_c, 1, 41, 0
2, 61600, Note_off_c, 1, 47, 0
2, 61600, Note_off_c, 1, 53, 0
2, 61600, Note_off_c, 1, 80, 0
2, 61600, Note_off_c, 1, 86, 0
2, 61600, Note_off_c, 1, 92, 0
2, 61640, Note_on_c, 1, 41, 127
2, 61640, Note_on_c, 1, 53, 127
2, 61640, Note_on_c, 1, 65, 127
2, 61640, Note_on_c, 1, 74, 127
2, 61640, Note_on_c, 1, 77, 127
2, 61920, Note_off_c, 1, 41, 0
2, 61920, Note_off_c, 1, 53, 0
2, 61920, Note_off_c, 1, 65, 0
2, 61920, Note_off_c, 1, 74, 0
2, 61920, Note_off_c, 1, 77, 0
2, 61960, Note_on_c, 1, 41, 127
2, 61960, Note_on_c, 1, 53, 127
2, 61960, Note_on_c, 1, 65, 127
2, 61960, Note_on_c, 1, 74, 127
2, 61960, Note_on_c, 1, 77, 127
2, 62280, Note_off_c, 1, 41, 0
2, 62280, Note_off_c, 1, 53, 0
2, 62280, Note_off_c, 1, 65, 0
2, 62280, Note_off_c, 1, 74, 0
2, 62280, Note_off_c, 1, 77, 0
2, 62320, Note_on_c, 1, 53, 127
2, 62320, Note_on_c, 1, 60, 127
2, 62320, Note_on_c, 1, 64, 127
2, 62320, Note_on_c, 1, 65, 127
2, 62320, Note_on_c, 1, 72, 127
2, 62320, Note_on_c, 1, 76, 127
2, 62320, Note_on_c, 1, 77, 127
2, 62600, Note_off_c, 1, 53, 0
2, 62600, Note_off_c, 1, 60, 0
2, 62600, Note_off_c, 1, 64, 0
2, 62600, Note_off_c, 1, 65, 0
2, 62600, Note_off_c, 1, 72, 0
2, 62600, Note_off_c, 1, 76, 0
2, 62600, Note_off_c, 1, 77, 0
2, 62640, Note_on_c, 1, 53, 127
2, 62640, Note_on_c, 1, 58, 127
2, 62640, Note_on_c, 1, 62, 127
2, 62640, Note_on_c, 1, 65, 127
2, 62640, Note_on_c, 1, 70, 127
2, 62640, Note_on_c, 1, 74, 127
2, 62640, Note_on_c, 1, 77, 127
2, 62880, Note_off_c, 1, 53, 0
2, 62880, Note_off_c, 1, 58, 0
2, 62880, Note_off_c, 1, 62, 0
2, 62880, Note_off_c, 1, 70, 0
2, 62880, Note_off_c, 1, 74, 0
2, 62920, Note_on_c, 1, 53, 127
2, 62920, Note_on_c, 1, 58, 127
2, 62920, Note_on_c, 1, 62, 127
2, 62920, Note_on_c, 1, 70, 127
2, 62920, Note_on_c, 1, 74, 127
2, 62960, Note_off_c, 1, 53, 0
2, 62960, Note_off_c, 1, 58, 0
2, 62960, Note_off_c, 1, 62, 0
2, 62960, Note_off_c, 1, 65, 0
2, 62960, Note_off_c, 1, 70, 0
2, 62960, Note_off_c, 1, 74, 0
2, 62960, Note_off_c, 1, 77, 0
2, 63000, Note_on_c, 1, 58, 127
2, 63000, Note_on_c, 1, 67, 127
2, 63000, Note_on_c, 1, 74, 127
2, 63000, Note_on_c, 1, 79, 127
2, 63120, Note_off_c, 1, 58, 0
2, 63120, Note_off_c, 1, 67, 0
2, 63120, Note_off_c, 1, 74, 0
2, 63120, Note_off_c, 1, 79, 0
2, 63160, Note_on_c, 1, 58, 127
2, 63160, Note_on_c, 1, 67, 127
2, 63160, Note_on_c, 1, 74, 127
2, 63160, Note_on_c, 1, 79, 127
2, 63320, Note_off_c, 1, 58, 0
2, 63320, Note_off_c, 1, 67, 0
2, 63320, Note_off_c, 1, 74, 0
2, 63320, Note_off_c, 1, 79, 0
2, 63360, Note_on_c, 1, 57, 127
2, 63360, Note_on_c, 1, 65, 127
2, 63360, Note_on_c, 1, 74, 127
2, 63360, Note_on_c, 1, 77, 127
2, 63560, Note_off_c, 1, 65, 0
2, 63560, Note_off_c, 1, 74, 0
2, 63600, Note_on_c, 1, 65, 127
2, 63600, Note_on_c, 1, 69, 127
2, 63680, Note_off_c, 1, 65, 0
2, 63680, Note_off_c, 1, 69, 0
2, 63720, Note_on_c, 1, 65, 127
2, 63720, Note_on_c, 1, 69, 127
2, 63840, Note_off_c, 1, 65, 0
2, 63840, Note_off_c, 1, 69, 0
2, 63880, Note_on_c, 1, 65, 127
2, 63880, Note_on_c, 1, 69, 127
2, 64000, Note_off_c, 1, 65, 0
2, 64000, Note_off_c, 1, 69, 0
2, 64040, Note_on_c, 1, 60, 127
2, 64040, Note_on_c, 1, 72, 127
2, 64200, Note_off_c, 1, 60, 0
2, 64200, Note_off_c, 1, 72, 0
2, 64240, Note_on_c, 1, 60, 127
2, 64240, Note_on_c, 1, 72, 127
2, 64360, Note_off_c, 1, 57, 0
2, 64360, Note_off_c, 1, 60, 0
2, 64360, Note_off_c, 1, 72, 0
2, 64360, Note_off_c, 1, 77, 0
2, 64400, Note_on_c, 1, 55, 127
2, 64400, Note_on_c, 1, 58, 127
2, 64400, Note_on_c, 1, 62, 127
2, 64400, Note_on_c, 1, 70, 127
2, 64720, Note_off_c, 1, 55, 0
2, 64720, Note_off_c, 1, 58, 0
2, 64720, Note_on_c, 1, 67, 127
2, 64760, Note_on_c, 1, 55, 127
2, 64760, Note_on_c, 1, 58, 127
2, 64760, Note_off_c, 1, 67, 0
2, 64880, Note_off_c, 1, 62, 0
2, 64920, Note_on_c, 1, 51, 127
2, 64920, Note_off_c, 1, 58, 0
2, 64920, Note_on_c, 1, 67, 127
2, 65000, Note_off_c, 1, 51, 0
2, 65000, Note_off_c, 1, 55, 0
2, 65000, Note_off_c, 1, 67, 0
2, 65080, Note_on_c, 1, 51, 127
2, 65080, Note_on_c, 1, 58, 127
2, 65080, Note_on_c, 1, 63, 127
2, 65080, Note_on_c, 1, 75, 127
2, 65200, Note_off_c, 1, 51, 0
2, 65200, Note_off_c, 1, 58, 0
2, 65200, Note_off_c, 1, 63, 0
2, 65200, Note_off_c, 1, 70, 0
2, 65200, Note_off_c, 1, 75, 0
2, 65240, Note_on_c, 1, 51, 127
2, 65240, Note_on_c, 1, 58, 127
2, 65240, Note_on_c, 1, 63, 127
2, 65240, Note_on_c, 1, 70, 127
2, 65240, Note_on_c, 1, 75, 127
2, 65400, Note_off_c, 1, 51, 0
2, 65400, Note_off_c, 1, 63, 0
2, 65400, Note_off_c, 1, 75, 0
2, 65440, Note_on_c, 1, 51, 127
2, 65440, Note_off_c, 1, 58, 0
2, 65440, Note_on_c, 1, 68, 127
2, 65440, Note_off_c, 1, 70, 0
2, 65440, Note_on_c, 1, 83, 127
2, 65480, Note_on_c, 1, 50, 127
2, 65480, Note_off_c, 1, 51, 0
2, 65480, Note_on_c, 1, 62, 127
2, 65480, Note_off_c, 1, 68, 0
2, 65480, Note_on_c, 1, 74, 127
2, 65480, Note_on_c, 1, 82, 127
2, 65480, Note_off_c, 1, 83, 0
2, 65520, Note_off_c, 1, 50, 0
2, 65520, Note_on_c, 1, 51, 127
2, 65520, Note_off_c, 1, 62, 0
2, 65520, Note_on_c, 1, 66, 127
2, 65520, Note_off_c, 1, 74, 0
2, 65520, Note_on_c, 1, 75, 127
2, 65560, Note_on_c, 1, 41, 127
2, 65560, Note_off_c, 1, 51, 0
2, 65560, Note_on_c, 1, 53, 127
2, 65560, Note_off_c, 1, 66, 0
2, 65560, Note_on_c, 1, 70, 127
2, 65560, Note_on_c, 1, 74, 127
2, 65560, Note_off_c, 1, 75, 0
2, 65560, Note_on_c, 1, 78, 127
2, 65600, Note_off_c, 1, 41, 0
2, 65600, Note_on_c, 1, 50, 127
2, 65600, Note_off_c, 1, 53, 0
2, 65600, Note_on_c, 1, 62, 127
2, 65600, Note_off_c, 1, 70, 0
2, 65600, Note_off_c, 1, 78, 0
2, 65640, Note_off_c, 1, 50, 0
2, 65640, Note_on_c, 1, 55, 127
2, 65640, Note_on_c, 1, 58, 127
2, 65640, Note_off_c, 1, 62, 0
2, 65640, Note_on_c, 1, 65, 127
2, 65640, Note_on_c, 1, 70, 127
2, 65640, Note_off_c, 1, 74, 0
2, 65640, Note_off_c, 1, 82, 0
2, 65720, Note_off_c, 1, 55, 0
2, 65720, Note_on_c, 1, 56, 127
2, 65720, Note_off_c, 1, 58, 0
2, 65720, Note_off_c, 1, 65, 0
2, 65720, Note_on_c, 1, 68, 127
2, 65720, Note_off_c, 1, 70, 0
2, 65760, Note_on_c, 1, 51, 127
2, 65760, Note_off_c, 1, 56, 0
2, 65760, Note_on_c, 1, 58, 127
2, 65760, Note_off_c, 1, 68, 0
2, 65760, Note_on_c, 1, 79, 127
2, 65960, Note_on_c, 1, 67, 127
2, 66080, Note_off_c, 1, 51, 0
2, 66080, Note_off_c, 1, 58, 0
2, 66080, Note_off_c, 1, 67, 0
2, 66120, Note_on_c, 1, 51, 127
2, 66120, Note_on_c, 1, 60, 127
2, 66280, Note_off_c, 1, 51, 0
2, 66280, Note_on_c, 1, 53, 127
2, 66280, Note_on_c, 1, 74, 127
2, 66280, Note_off_c, 1, 79, 0
2, 66440, Note_off_c, 1, 53, 0
2, 66440, Note_off_c, 1, 60, 0
2, 66480, Note_on_c, 1, 53, 127
2, 66480, Note_on_c, 1, 60, 127
2, 66480, Note_on_c, 1, 69, 127
2, 66480, Note_on_c, 1, 72, 127
2, 66480, Note_off_c, 1, 74, 0
2, 66760, Note_off_c, 1, 60, 0
2, 66760, Note_off_c, 1, 69, 0
2, 66760, Note_off_c, 1, 72, 0
2, 66800, Note_on_c, 1, 51, 127
2, 66800, Note_off_c, 1, 53, 0
2, 66800, Note_on_c, 1, 58, 127
2, 66800, Note_on_c, 1, 67, 127
2, 66800, Note_on_c, 1, 79, 127
2, 67040, Note_off_c, 1, 58, 0
2, 67040, Note_off_c, 1, 67, 0
2, 67040, Note_off_c, 1, 79, 0
2, 67080, Note_on_c, 1, 50, 127
2, 67080, Note_off_c, 1, 51, 0
2, 67080, Note_on_c, 1, 67, 127
2, 67080, Note_on_c, 1, 75, 127
2, 67120, Note_off_c, 1, 50, 0
2, 67120, Note_off_c, 1, 67, 0
2, 67120, Note_off_c, 1, 75, 0
2, 67160, Note_on_c, 1, 48, 127
2, 67160, Note_on_c, 1, 63, 127
2, 67160, Note_on_c, 1, 68, 127
2, 67160, Note_on_c, 1, 75, 127
2, 67320, Note_off_c, 1, 48, 0
2, 67320, Note_off_c, 1, 63, 0
2, 67320, Note_off_c, 1, 68, 0
2, 67320, Note_off_c, 1, 75, 0
2, 67360, Note_on_c, 1, 48, 127
2, 67360, Note_on_c, 1, 63, 127
2, 67360, Note_on_c, 1, 68, 127
2, 67360, Note_on_c, 1, 75, 127
2, 67480, Note_off_c, 1, 48, 0
2, 67480, Note_off_c, 1, 63, 0
2, 67480, Note_off_c, 1, 68, 0
2, 67480, Note_off_c, 1, 75, 0
2, 67520, Note_on_c, 1, 48, 127
2, 67520, Note_on_c, 1, 57, 127
2, 67520, Note_on_c, 1, 66, 127
2, 67520, Note_on_c, 1, 75, 127
2, 67840, Note_off_c, 1, 48, 0
2, 67840, Note_off_c, 1, 57, 0
2, 67840, Note_off_c, 1, 66, 0
2, 67840, Note_off_c, 1, 75, 0
2, 67880, Note_on_c, 1, 54, 127
2, 67880, Note_on_c, 1, 63, 127
2, 67880, Note_on_c, 1, 69, 127
2, 67880, Note_on_c, 1, 71, 127
2, 67880, Note_on_c, 1, 78, 127
2, 68000, Note_off_c, 1, 54, 0
2, 68000, Note_off_c, 1, 63, 0
2, 68000, Note_off_c, 1, 69, 0
2, 68000, Note_off_c, 1, 78, 0
2, 68040, Note_on_c, 1, 53, 127
2, 68040, Note_on_c, 1, 62, 127
2, 68040, Note_on_c, 1, 67, 127
2, 68200, Note_off_c, 1, 53, 0
2, 68200, Note_off_c, 1, 62, 0
2, 68200, Note_off_c, 1, 67, 0
2, 68200, Note_off_c, 1, 71, 0
2, 68240, Note_on_c, 1, 58, 127
2, 68240, Note_on_c, 1, 63, 127
2, 68240, Note_on_c, 1, 70, 127
2, 68400, Note_on_c, 1, 46, 127
2, 68400, Note_off_c, 1, 58, 0
2, 68400, Note_on_c, 1, 60, 127
2, 68400, Note_on_c, 1, 67, 127
2, 68400, Note_off_c, 1, 70, 0
2, 68520, Note_off_c, 1, 60, 0
2, 68520, Note_off_c, 1, 63, 0
2, 68520, Note_off_c, 1, 67, 0
2, 68560, Note_on_c, 1, 63, 127
2, 68560, Note_on_c, 1, 67, 127
2, 68880, Note_off_c, 1, 46, 0
2, 68880, Note_off_c, 1, 67, 0
2, 68920, Note_on_c, 1, 44, 127
2, 68920, Note_on_c, 1, 67, 127
2, 69040, Note_off_c, 1, 44, 0
2, 69080, Note_on_c, 1, 44, 127
2, 69200, Note_off_c, 1, 44, 0
2, 69200, Note_off_c, 1, 63, 0
2, 69200, Note_off_c, 1, 67, 0
2, 69240, Note_on_c, 1, 46, 127
2, 69240, Note_on_c, 1, 67, 127
2, 69240, Note_on_c, 1, 70, 127
2, 69360, Note_off_c, 1, 67, 0
2, 69360, Note_off_c, 1, 70, 0
2, 69400, Note_on_c, 1, 63, 127
2, 69400, Note_on_c, 1, 67, 127
2, 69560, Note_on_c, 1, 54, 127
2, 69560, Note_on_c, 1, 58, 127
2, 69560, Note_off_c, 1, 63, 0
2, 69560, Note_off_c, 1, 67, 0
2, 69600, Note_off_c, 1, 46, 0
2, 69600, Note_off_c, 1, 54, 0
2, 69600, Note_off_c, 1, 58, 0
2, 69640, Note_on_c, 1, 53, 127
2, 69640, Note_on_c, 1, 60, 127
2, 69640, Note_on_c, 1, 63, 127
2, 69640, Note_on_c, 1, 72, 127
2, 69640, Note_on_c, 1, 75, 127
2, 69640, Note_on_c, 1, 84, 127
2, 69680, Note_off_c, 1, 53, 0
2, 69680, Note_off_c, 1, 60, 0
2, 69680, Note_off_c, 1, 63, 0
2, 69680, Note_on_c, 1, 67, 127
2, 69680, Note_on_c, 1, 71, 127
2, 69680, Note_off_c, 1, 72, 0
2, 69680, Note_off_c, 1, 75, 0
2, 69680, Note_on_c, 1, 76, 127
2, 69680, Note_on_c, 1, 78, 127
2, 69680, Note_off_c, 1, 84, 0
2, 69720, Note_on_c, 1, 58, 127
2, 69720, Note_on_c, 1, 65, 127
2, 69720, Note_off_c, 1, 67, 0
2, 69720, Note_on_c, 1, 68, 127
2, 69720, Note_off_c, 1, 71, 0
2, 69720, Note_off_c, 1, 76, 0
2, 69720, Note_off_c, 1, 78, 0
2, 69720, Note_on_c, 1, 97, 127
2, 69760, Note_off_c, 1, 58, 0
2, 69760, Note_on_c, 1, 62, 127
2, 69760, Note_off_c, 1, 65, 0
2, 69760, Note_on_c, 1, 72, 127
2, 69760, Note_off_c, 1, 97, 0
2, 69800, Note_on_c, 1, 51, 127
2, 69800, Note_off_c, 1, 62, 0
2, 69800, Note_on_c, 1, 78, 127
2, 69920, Note_off_c, 1, 51, 0
2, 69920, Note_off_c, 1, 68, 0
2, 69920, Note_off_c, 1, 72, 0
2, 69920, Note_off_c, 1, 78, 0
2, 69960, Note_on_c, 1, 32, 127
2, 69960, Note_on_c, 1, 44, 127
2, 69960, Note_on_c, 1, 58, 127
2, 69960, Note_on_c, 1, 62, 127
2, 69960, Note_on_c, 1, 70, 127
2, 70000, Note_off_c, 1, 32, 0
2, 70000, Note_off_c, 1, 44, 0
2, 70000, Note_off_c, 1, 58, 0
2, 70000, Note_off_c, 1, 62, 0
2, 70000, Note_on_c, 1, 63, 127
2, 70000, Note_on_c, 1, 65, 127
2, 70000, Note_off_c, 1, 70, 0
2, 70000, Note_on_c, 1, 86, 127
2, 70040, Note_on_c, 1, 34, 127
2, 70040, Note_on_c, 1, 50, 127
2, 70040, Note_off_c, 1, 63, 0
2, 70040, Note_off_c, 1, 65, 0
2, 70040, Note_on_c, 1, 68, 127
2, 70040, Note_on_c, 1, 70, 127
2, 70040, Note_off_c, 1, 86, 0
2, 70080, Note_off_c, 1, 34, 0
2, 70080, Note_off_c, 1, 50, 0
2, 70080, Note_off_c, 1, 68, 0
2, 70080, Note_off_c, 1, 70, 0
2, 70080, Note_on_c, 1, 80, 127
2, 70080, Note_on_c, 1, 87, 127
2, 70080, Note_on_c, 1, 92, 127
2, 70120, Note_on_c, 1, 51, 127
2, 70120, Note_on_c, 1, 66, 127
2, 70120, Note_on_c, 1, 75, 127
2, 70120, Note_off_c, 1, 87, 0
2, 70120, Note_off_c, 1, 92, 0
2, 70280, Note_off_c, 1, 51, 0
2, 70280, Note_off_c, 1, 66, 0
2, 70280, Note_off_c, 1, 75, 0
2, 70280, Note_off_c, 1, 80, 0
2, 70320, Note_on_c, 1, 75, 127
2, 70320, Note_on_c, 1, 79, 127
2, 70400, Note_on_c, 1, 67, 127
2, 70440, Note_off_c, 1, 67, 0
2, 70480, Note_on_c, 1, 46, 127
2, 70600, Note_off_c, 1, 46, 0
2, 70640, Note_on_c, 1, 39, 127
2, 70760, Note_off_c, 1, 75, 0
2, 70760, Note_off_c, 1, 79, 0
2, 70800, Note_on_c, 1, 67, 127
2, 70800, Note_on_c, 1, 70, 127
2, 71120, Note_off_c, 1, 39, 0
2, 71120, Note_off_c, 1, 67, 0
2, 71120, Note_off_c, 1, 70, 0
2, 71160, Note_on_c, 1, 41, 127
2, 71160, Note_on_c, 1, 70, 127
2, 71160, Note_on_c, 1, 73, 127
2, 71280, Note_off_c, 1, 41, 0
2, 71280, Note_off_c, 1, 70, 0
2, 71280, Note_off_c, 1, 73, 0
2, 71320, Note_on_c, 1, 44, 127
2, 71320, Note_on_c, 1, 68, 127
2, 71320, Note_on_c, 1, 71, 127
2, 71640, Note_off_c, 1, 44, 0
2, 71640, Note_off_c, 1, 68, 0
2, 71640, Note_off_c, 1, 71, 0
2, 71680, Note_on_c, 1, 46, 127
2, 71680, Note_on_c, 1, 55, 127
2, 71680, Note_on_c, 1, 63, 127
2, 71680, Note_on_c, 1, 73, 127
2, 71800, Note_off_c, 1, 46, 0
2, 71800, Note_off_c, 1, 55, 0
2, 71800, Note_off_c, 1, 63, 0
2, 71800, Note_off_c, 1, 73, 0
2, 71840, Note_on_c, 1, 46, 127
2, 71840, Note_on_c, 1, 55, 127
2, 71840, Note_on_c, 1, 63, 127
2, 71840, Note_on_c, 1, 73, 127
2, 72000, Note_off_c, 1, 46, 0
2, 72000, Note_off_c, 1, 55, 0
2, 72000, Note_off_c, 1, 63, 0
2, 72000, Note_off_c, 1, 73, 0
2, 72040, Note_on_c, 1, 31, 127
2, 72040, Note_on_c, 1, 65, 127
2, 72040, Note_on_c, 1, 71, 127
2, 72200, Note_off_c, 1, 31, 0
2, 72240, Note_on_c, 1, 70, 127
2, 72240, Note_off_c, 1, 71, 0
2, 72240, Note_on_c, 1, 74, 127
2, 72240, Note_on_c, 1, 99, 127
2, 72280, Note_on_c, 1, 27, 127
2, 72280, Note_on_c, 1, 39, 127
2, 72280, Note_on_c, 1, 58, 127
2, 72280, Note_off_c, 1, 65, 0
2, 72280, Note_on_c, 1, 67, 127
2, 72280, Note_off_c, 1, 70, 0
2, 72280, Note_off_c, 1, 74, 0
2, 72280, Note_off_c, 1, 99, 0
2, 72320, Note_off_c, 1, 27, 0
2, 72320, Note_on_c, 1, 38, 127
2, 72320, Note_off_c, 1, 39, 0
2, 72320, Note_on_c, 1, 41, 127
2, 72320, Note_on_c, 1, 45, 127
2, 72320, Note_on_c, 1, 50, 127
2, 72320, Note_off_c, 1, 58, 0
2, 72320, Note_off_c, 1, 67, 0
2, 72320, Note_on_c, 1, 80, 127
2, 72360, Note_off_c, 1, 38, 0
2, 72360, Note_off_c, 1, 41, 0
2, 72360, Note_off_c, 1, 45, 0
2, 72360, Note_off_c, 1, 50, 0
2, 72360, Note_off_c, 1, 80, 0
2, 72400, Note_on_c, 1, 63, 127
2, 72400, Note_on_c, 1, 65, 127
2, 72400, Note_on_c, 1, 69, 127
2, 72400, Note_on_c, 1, 74, 127
2, 72720, Note_off_c, 1, 63, 0
2, 72720, Note_off_c, 1, 65, 0
2, 72720, Note_off_c, 1, 69, 0
2, 72720, Note_off_c, 1, 74, 0
2, 72760, Note_on_c, 1, 60, 127
2, 72760, Note_on_c, 1, 63, 127
2, 72760, Note_on_c, 1, 69, 127
2, 72760, Note_on_c, 1, 72, 127
2, 72880, Note_off_c, 1, 60, 0
2, 72880, Note_on_c, 1, 62, 127
2, 72880, Note_off_c, 1, 63, 0
2, 72880, Note_off_c, 1, 69, 0
2, 72880, Note_off_c, 1, 72, 0
2, 72880, Note_on_c, 1, 74, 127
2, 72880, Note_on_c, 1, 77, 127
2, 72920, Note_on_c, 1, 41, 127
2, 72920, Note_off_c, 1, 62, 0
2, 72920, Note_off_c, 1, 74, 0
2, 72920, Note_on_c, 1, 76, 127
2, 72920, Note_off_c, 1, 77, 0
2, 72920, Note_on_c, 1, 81, 127
2, 72960, Note_off_c, 1, 41, 0
2, 72960, Note_on_c, 1, 44, 127
2, 72960, Note_on_c, 1, 51, 127
2, 72960, Note_on_c, 1, 67, 127
2, 72960, Note_off_c, 1, 76, 0
2, 72960, Note_on_c, 1, 79, 127
2, 72960, Note_off_c, 1, 81, 0
2, 73000, Note_on_c, 1, 41, 127
2, 73000, Note_off_c, 1, 44, 0
2, 73000, Note_off_c, 1, 51, 0
2, 73000, Note_off_c, 1, 67, 0
2, 73000, Note_on_c, 1, 76, 127
2, 73000, Note_off_c, 1, 79, 0
2, 73000, Note_on_c, 1, 81, 127
2, 73040, Note_off_c, 1, 41, 0
2, 73040, Note_off_c, 1, 76, 0
2, 73040, Note_off_c, 1, 81, 0
2, 73080, Note_on_c, 1, 53, 127
2, 73080, Note_on_c, 1, 70, 127
2, 73080, Note_on_c, 1, 76, 127
2, 73080, Note_on_c, 1, 79, 127
2, 73400, Note_off_c, 1, 53, 0
2, 73400, Note_off_c, 1, 70, 0
2, 73400, Note_off_c, 1, 76, 0
2, 73400, Note_off_c, 1, 79, 0
2, 73440, Note_on_c, 1, 65, 127
2, 73440, Note_on_c, 1, 69, 127
2, 73440, Note_on_c, 1, 72, 127
2, 73440, Note_on_c, 1, 77, 127
2, 73720, Note_off_c, 1, 77, 0
2, 73760, Note_on_c, 1, 53, 127
2, 73840, Note_off_c, 1, 53, 0
2, 73840, Note_off_c, 1, 65, 0
2, 73840, Note_off_c, 1, 69, 0
2, 73840, Note_off_c, 1, 72, 0
2, 73880, Note_on_c, 1, 53, 127
2, 73880, Note_on_c, 1, 65, 127
2, 73880, Note_on_c, 1, 69, 127
2, 73880, Note_on_c, 1, 72, 127
2, 74120, Note_off_c, 1, 53, 0
2, 74120, Note_off_c, 1, 65, 0
2, 74120, Note_off_c, 1, 69, 0
2, 74120, Note_off_c, 1, 72, 0
2, 74160, Note_on_c, 1, 77, 127
2, 74440, Note_off_c, 1, 77, 0
2, 74480, Note_on_c, 1, 48, 127
2, 74480, Note_on_c, 1, 65, 127
2, 74480, Note_on_c, 1, 68, 127
2, 74800, Note_off_c, 1, 65, 0
2, 74800, Note_off_c, 1, 68, 0
2, 74840, Note_on_c, 1, 67, 127
2, 74840, Note_on_c, 1, 70, 127
2, 74840, Note_on_c, 1, 72, 127
2, 75120, Note_off_c, 1, 48, 0
2, 75120, Note_off_c, 1, 67, 0
2, 75120, Note_off_c, 1, 70, 0
2, 75160, Note_on_c, 1, 48, 127
2, 75160, Note_on_c, 1, 67, 127
2, 75160, Note_on_c, 1, 70, 127
2, 75480, Note_off_c, 1, 48, 0
2, 75480, Note_off_c, 1, 67, 0
2, 75480, Note_off_c, 1, 70, 0
2, 75520, Note_on_c, 1, 47, 127
2, 75520, Note_on_c, 1, 63, 127
2, 75840, Note_off_c, 1, 63, 0
2, 75840, Note_off_c, 1, 72, 0
2, 75880, Note_off_c, 1, 47, 0
2, 75880, Note_on_c, 1, 48, 127
2, 75880, Note_on_c, 1, 63, 127
2, 75880, Note_on_c, 1, 72, 127
2, 76000, Note_off_c, 1, 48, 0
2, 76000, Note_off_c, 1, 63, 0
2, 76000, Note_off_c, 1, 72, 0
2, 76040, Note_on_c, 1, 64, 127
2, 76080, Note_on_c, 1, 47, 127
2, 76080, Note_on_c, 1, 62, 127
2, 76080, Note_off_c, 1, 64, 0
2, 76080, Note_on_c, 1, 65, 127
2, 76200, Note_off_c, 1, 47, 0
2, 76200, Note_off_c, 1, 62, 0
2, 76240, Note_on_c, 1, 44, 127
2, 76240, Note_on_c, 1, 61, 127
2, 76560, Note_off_c, 1, 61, 0
2, 76560, Note_off_c, 1, 65, 0
2, 76600, Note_on_c, 1, 60, 127
2, 76600, Note_on_c, 1, 63, 127
2, 76880, Note_off_c, 1, 44, 0
2, 76880, Note_off_c, 1, 60, 0
2, 76880, Note_off_c, 1, 63, 0
2, 76920, Note_on_c, 1, 44, 127
2, 76920, Note_on_c, 1, 68, 127
2, 77240, Note_off_c, 1, 44, 0
2, 77240, Note_off_c, 1, 68, 0
2, 77280, Note_on_c, 1, 53, 127
2, 77640, Note_off_c, 1, 53, 0
2, 77640, Note_on_c, 1, 60, 127
2, 77640, Note_on_c, 1, 65, 127
2, 77640, Note_on_c, 1, 68, 127
2, 77640, Note_on_c, 1, 72, 127
2, 77640, Note_on_c, 1, 77, 127
2, 78040, Note_off_c, 1, 60, 0
2, 78040, Note_off_c, 1, 65, 0
2, 78040, Note_off_c, 1, 68, 0
2, 78040, Note_off_c, 1, 72, 0
2, 78040, Note_off_c, 1, 77, 0
2, 78080, Note_on_c, 1, 60, 127
2, 78080, Note_on_c, 1, 65, 127
2, 78080, Note_on_c, 1, 68, 127
2, 78080, Note_on_c, 1, 72, 127
2, 78080, Note_on_c, 1, 77, 127
2, 78320, Note_off_c, 1, 60, 0
2, 78320, Note_off_c, 1, 65, 0
2, 78320, Note_off_c, 1, 68, 0
2, 78320, Note_off_c, 1, 72, 0
2, 78320, Note_off_c, 1, 77, 0
2, 78360, Note_on_c, 1, 51, 127
2, 78360, Note_on_c, 1, 85, 127
2, 78360, Note_on_c, 1, 89, 127
2, 78400, Note_off_c, 1, 51, 0
2, 78400, Note_on_c, 1, 63, 127
2, 78400, Note_on_c, 1, 67, 127
2, 78400, Note_off_c, 1, 85, 0
2, 78400, Note_off_c, 1, 89, 0
2, 78400, Note_on_c, 1, 91, 127
2, 78440, Note_off_c, 1, 63, 0
2, 78440, Note_on_c, 1, 64, 127
2, 78440, Note_off_c, 1, 67, 0
2, 78440, Note_on_c, 1, 71, 127
2, 78440, Note_on_c, 1, 83, 127
2, 78440, Note_on_c, 1, 90, 127
2, 78440, Note_off_c, 1, 91, 0
2, 78480, Note_on_c, 1, 63, 127
2, 78480, Note_off_c, 1, 64, 0
2, 78480, Note_on_c, 1, 67, 127
2, 78480, Note_off_c, 1, 71, 0
2, 78480, Note_off_c, 1, 83, 0
2, 78480, Note_off_c, 1, 90, 0
2, 78480, Note_on_c, 1, 91, 127
2, 78520, Note_on_c, 1, 39, 127
2, 78520, Note_off_c, 1, 63, 0
2, 78520, Note_off_c, 1, 67, 0
2, 78520, Note_on_c, 1, 73, 127
2, 78520, Note_on_c, 1, 80, 127
2, 78520, Note_off_c, 1, 91, 0
2, 78560, Note_off_c, 1, 39, 0
2, 78560, Note_on_c, 1, 63, 127
2, 78560, Note_off_c, 1, 73, 0
2, 78560, Note_off_c, 1, 80, 0
2, 78560, Note_on_c, 1, 84, 127
2, 78560, Note_on_c, 1, 87, 127
2, 78600, Note_on_c, 1, 49, 127
2, 78600, Note_on_c, 1, 53, 127
2, 78600, Note_on_c, 1, 59, 127
2, 78600, Note_off_c, 1, 63, 0
2, 78600, Note_on_c, 1, 68, 127
2, 78600, Note_on_c, 1, 73, 127
2, 78600, Note_off_c, 1, 84, 0
2, 78600, Note_off_c, 1, 87, 0
2, 78640, Note_off_c, 1, 49, 0
2, 78640, Note_off_c, 1, 53, 0
2, 78640, Note_off_c, 1, 59, 0
2, 78640, Note_off_c, 1, 68, 0
2, 78640, Note_off_c, 1, 73, 0
2, 78680, Note_on_c, 1, 60, 127
2, 78680, Note_on_c, 1, 63, 127
2, 78680, Note_on_c, 1, 92, 127
2, 78840, Note_off_c, 1, 92, 0
2, 78880, Note_on_c, 1, 75, 127
2, 79000, Note_off_c, 1, 60, 0
2, 79000, Note_off_c, 1, 63, 0
2, 79040, Note_on_c, 1, 58, 127
2, 79360, Note_on_c, 1, 68, 127
2, 79360, Note_on_c, 1, 70, 127
2, 79360, Note_off_c, 1, 75, 0
2, 79400, Note_on_c, 1, 41, 127
2, 79400, Note_on_c, 1, 53, 127
2, 79400, Note_off_c, 1, 58, 0
2, 79400, Note_off_c, 1, 68, 0
2, 79400, Note_off_c, 1, 70, 0
2, 79400, Note_on_c, 1, 72, 127
2, 79400, Note_on_c, 1, 77, 127
2, 79400, Note_on_c, 1, 80, 127
2, 79400, Note_on_c, 1, 84, 127
2, 79680, Note_off_c, 1, 41, 0
2, 79680, Note_off_c, 1, 53, 0
2, 79680, Note_off_c, 1, 72, 0
2, 79680, Note_off_c, 1, 77, 0
2, 79680, Note_off_c, 1, 80, 0
2, 79680, Note_off_c, 1, 84, 0
2, 79720, Note_on_c, 1, 54, 127
2, 79720, Note_on_c, 1, 86, 127
2, 80040, Note_off_c, 1, 54, 0
2, 80040, Note_off_c, 1, 86, 0
2, 80080, Note_on_c, 1, 54, 127
2, 80080, Note_on_c, 1, 86, 127
2, 80120, Note_off_c, 1, 54, 0
2, 80120, Note_on_c, 1, 58, 127
2, 80120, Note_on_c, 1, 65, 127
2, 80120, Note_off_c, 1, 86, 0
2, 80120, Note_on_c, 1, 93, 127
2, 80160, Note_on_c, 1, 57, 127
2, 80160, Note_off_c, 1, 58, 0
2, 80160, Note_on_c, 1, 62, 127
2, 80160, Note_off_c, 1, 65, 0
2, 80160, Note_on_c, 1, 66, 127
2, 80160, Note_on_c, 1, 76, 127
2, 80160, Note_on_c, 1, 81, 127
2, 80160, Note_off_c, 1, 93, 0
2, 80200, Note_off_c, 1, 57, 0
2, 80200, Note_on_c, 1, 58, 127
2, 80200, Note_off_c, 1, 62, 0
2, 80200, Note_on_c, 1, 65, 127
2, 80200, Note_off_c, 1, 66, 0
2, 80200, Note_off_c, 1, 76, 0
2, 80200, Note_off_c, 1, 81, 0
2, 80200, Note_on_c, 1, 93, 127
2, 80240, Note_on_c, 1, 74, 127
2, 80240, Note_on_c, 1, 77, 127
2, 80240, Note_off_c, 1, 93, 0
2, 80280, Note_on_c, 1, 41, 127
2, 80280, Note_on_c, 1, 46, 127
2, 80280, Note_on_c, 1, 62, 127
2, 80280, Note_off_c, 1, 65, 0
2, 80280, Note_on_c, 1, 70, 127
2, 80280, Note_off_c, 1, 74, 0
2, 80280, Note_off_c, 1, 77, 0
2, 80400, Note_on_c, 1, 36, 127
2, 80400, Note_off_c, 1, 41, 0
2, 80400, Note_off_c, 1, 46, 0
2, 80400, Note_off_c, 1, 58, 0
2, 80400, Note_off_c, 1, 62, 0
2, 80400, Note_off_c, 1, 70, 0
2, 80440, Note_on_c, 1, 48, 127
2, 80440, Note_on_c, 1, 81, 127
2, 80640, Note_off_c, 1, 36, 0
2, 80640, Note_on_c, 1, 45, 127
2, 80640, Note_off_c, 1, 48, 0
2, 80640, Note_on_c, 1, 57, 127
2, 80640, Note_on_c, 1, 65, 127
2, 80640, Note_on_c, 1, 73, 127
2, 80640, Note_on_c, 1, 79, 127
2, 80640, Note_off_c, 1, 81, 0
2, 80680, Note_on_c, 1, 36, 127
2, 80680, Note_off_c, 1, 45, 0
2, 80680, Note_on_c, 1, 48, 127
2, 80680, Note_off_c, 1, 57, 0
2, 80680, Note_off_c, 1, 65, 0
2, 80680, Note_on_c, 1, 67, 127
2, 80680, Note_on_c, 1, 70, 127
2, 80680, Note_off_c, 1, 73, 0
2, 80680, Note_off_c, 1, 79, 0
2, 80680, Note_on_c, 1, 81, 127
2, 80760, Note_off_c, 1, 36, 0
2, 80760, Note_off_c, 1, 48, 0
2, 80760, Note_off_c, 1, 67, 0
2, 80760, Note_off_c, 1, 70, 0
2, 80760, Note_off_c, 1, 81, 0
2, 80800, Note_on_c, 1, 57, 127
2, 80800, Note_on_c, 1, 83, 127
2, 80920, Note_off_c, 1, 83, 0
2, 80960, Note_on_c, 1, 81, 127
2, 81080, Note_off_c, 1, 57, 0
2, 81080, Note_off_c, 1, 81, 0
2, 81120, Note_on_c, 1, 34, 127
2, 81120, Note_on_c, 1, 68, 127
2, 81120, Note_on_c, 1, 74, 127
2, 81800, Note_off_c, 1, 34, 0
2, 81800, Note_on_c, 1, 65, 127
2, 81800, Note_off_c, 1, 68, 0
2, 81800, Note_off_c, 1, 74, 0
2, 81840, Note_on_c, 1, 50, 127
2, 81840, Note_off_c, 1, 65, 0
2, 81840, Note_on_c, 1, 67, 127
2, 81840, Note_on_c, 1, 70, 127
2, 81840, Note_on_c, 1, 74, 127
2, 81960, Note_off_c, 1, 50, 0
2, 81960, Note_off_c, 1, 67, 0
2, 81960, Note_off_c, 1, 70, 0
2, 81960, Note_off_c, 1, 74, 0
2, 82000, Note_on_c, 1, 50, 127
2, 82000, Note_on_c, 1, 67, 127
2, 82000, Note_on_c, 1, 70, 127
2, 82000, Note_on_c, 1, 74, 127
2, 82160, Note_off_c, 1, 50, 0
2, 82160, Note_on_c, 1, 62, 127
2, 82160, Note_off_c, 1, 67, 0
2, 82160, Note_off_c, 1, 70, 0
2, 82160, Note_off_c, 1, 74, 0
2, 82200, Note_on_c, 1, 57, 127
2, 82200, Note_on_c, 1, 65, 127
2, 82200, Note_on_c, 1, 74, 127
2, 82520, Note_off_c, 1, 57, 0
2, 82520, Note_off_c, 1, 62, 0
2, 82520, Note_off_c, 1, 65, 0
2, 82520, Note_off_c, 1, 74, 0
2, 82560, Note_on_c, 1, 50, 127
2, 82560, Note_on_c, 1, 76, 127
2, 82720, Note_on_c, 1, 45, 127
2, 82720, Note_on_c, 1, 59, 127
2, 82720, Note_off_c, 1, 76, 0
2, 82720, Note_on_c, 1, 77, 127
2, 82840, Note_off_c, 1, 50, 0
2, 82840, Note_off_c, 1, 59, 0
2, 82840, Note_on_c, 1, 76, 127
2, 82840, Note_off_c, 1, 77, 0
2, 82880, Note_on_c, 1, 50, 127
2, 82880, Note_on_c, 1, 59, 127
2, 82880, Note_off_c, 1, 76, 0
2, 82880, Note_on_c, 1, 77, 127
2, 83000, Note_off_c, 1, 77, 0
2, 83040, Note_off_c, 1, 50, 0
2, 83040, Note_off_c, 1, 59, 0
2, 83040, Note_on_c, 1, 76, 127
2, 83080, Note_on_c, 1, 50, 127
2, 83080, Note_on_c, 1, 59, 127
2, 83080, Note_on_c, 1, 68, 127
2, 83080, Note_off_c, 1, 76, 0
2, 83200, Note_off_c, 1, 45, 0
2, 83200, Note_off_c, 1, 50, 0
2, 83200, Note_off_c, 1, 59, 0
2, 83200, Note_off_c, 1, 68, 0
2, 83200, Note_on_c, 1, 74, 127
2, 83240, Note_on_c, 1, 43, 127
2, 83400, Note_on_c, 1, 39, 127
2, 83400, Note_off_c, 1, 43, 0
2, 83400, Note_on_c, 1, 69, 127
2, 83400, Note_off_c, 1, 74, 0
2, 83400, Note_on_c, 1, 79, 127
2, 83520, Note_off_c, 1, 39, 0
2, 83520, Note_off_c, 1, 69, 0
2, 83560, Note_on_c, 1, 39, 127
2, 83560, Note_on_c, 1, 69, 127
2, 83880, Note_off_c, 1, 39, 0
2, 83880, Note_off_c, 1, 69, 0
2, 83880, Note_off_c, 1, 79, 0
2, 83920, Note_on_c, 1, 50, 127
2, 83920, Note_on_c, 1, 69, 127
2, 83920, Note_on_c, 1, 74, 127
2, 83920, Note_on_c, 1, 77, 127
2, 84000, Note_on_c, 1, 57, 127
2, 84040, Note_off_c, 1, 50, 0
2, 84040, Note_off_c, 1, 57, 0
2, 84040, Note_off_c, 1, 69, 0
2, 84040, Note_off_c, 1, 74, 0
2, 84040, Note_off_c, 1, 77, 0
2, 84080, Note_on_c, 1, 50, 127
2, 84080, Note_on_c, 1, 69, 127
2, 84080, Note_on_c, 1, 74, 127
2, 84080, Note_on_c, 1, 77, 127
2, 84160, Note_on_c, 1, 57, 127
2, 84240, Note_off_c, 1, 50, 0
2, 84240, Note_on_c, 1, 65, 127
2, 84240, Note_off_c, 1, 69, 0
2, 84240, Note_off_c, 1, 77, 0
2, 84280, Note_on_c, 1, 45, 127
2, 84600, Note_off_c, 1, 45, 0
2, 84640, Note_on_c, 1, 38, 127
2, 84920, Note_off_c, 1, 38, 0
2, 84920, Note_off_c, 1, 57, 0
2, 84920, Note_off_c, 1, 65, 0
2, 84920, Note_off_c, 1, 74, 0
2, 85320, Note_on_c, 1, 50, 127
2, 85640, Note_on_c, 1, 53, 127
2, 85640, Note_on_c, 1, 60, 127
2, 85640, Note_on_c, 1, 68, 127
2, 86280, Note_off_c, 1, 50, 0
2, 86280, Note_off_c, 1, 53, 0
2, 86280, Note_off_c, 1, 60, 0
2, 86280, Note_off_c, 1, 68, 0
2, 86320, Note_on_c, 1, 50, 127
2, 86320, Note_on_c, 1, 53, 127
2, 86320, Note_on_c, 1, 60, 127
2, 86320, Note_on_c, 1, 68, 127
2, 86360, Note_on_c, 1, 48, 127
2, 86360, Note_off_c, 1, 50, 0
2, 86360, Note_off_c, 1, 53, 0
2, 86360, Note_off_c, 1, 60, 0
2, 86360, Note_off_c, 1, 68, 0
2, 86400, Note_on_c, 1, 55, 127
2, 86400, Note_on_c, 1, 80, 127
2, 86440, Note_off_c, 1, 48, 0
2, 86440, Note_off_c, 1, 55, 0
2, 86440, Note_on_c, 1, 59, 127
2, 86440, Note_on_c, 1, 65, 127
2, 86440, Note_on_c, 1, 71, 127
2, 86440, Note_on_c, 1, 77, 127
2, 86440, Note_on_c, 1, 79, 127
2, 86440, Note_off_c, 1, 80, 0
2, 86440, Note_on_c, 1, 83, 127
2, 86480, Note_on_c, 1, 42, 127
2, 86480, Note_on_c, 1, 56, 127
2, 86480, Note_off_c, 1, 59, 0
2, 86480, Note_on_c, 1, 61, 127
2, 86480, Note_off_c, 1, 65, 0
2, 86480, Note_off_c, 1, 71, 0
2, 86480, Note_off_c, 1, 77, 0
2, 86480, Note_off_c, 1, 79, 0
2, 86480, Note_off_c, 1, 83, 0
2, 86520, Note_on_c, 1, 38, 127
2, 86520, Note_off_c, 1, 42, 0
2, 86520, Note_on_c, 1, 45, 127
2, 86520, Note_on_c, 1, 52, 127
2, 86520, Note_off_c, 1, 56, 0
2, 86520, Note_on_c, 1, 58, 127
2, 86560, Note_off_c, 1, 38, 0
2, 86560, Note_off_c, 1, 45, 0
2, 86560, Note_on_c, 1, 47, 127
2, 86560, Note_off_c, 1, 52, 0
2, 86560, Note_on_c, 1, 54, 127
2, 86560, Note_off_c, 1, 61, 0
2, 86560, Note_on_c, 1, 62, 127
2, 86600, Note_on_c, 1, 35, 127
2, 86600, Note_off_c, 1, 47, 0
2, 86600, Note_on_c, 1, 51, 127
2, 86600, Note_off_c, 1, 58, 0
2, 86600, Note_on_c, 1, 59, 127
2, 86600, Note_off_c, 1, 62, 0
2, 86600, Note_on_c, 1, 63, 127
2, 86640, Note_off_c, 1, 35, 0
2, 86640, Note_on_c, 1, 44, 127
2, 86640, Note_on_c, 1, 49, 127
2, 86640, Note_off_c, 1, 51, 0
2, 86640, Note_on_c, 1, 52, 127
2, 86640, Note_off_c, 1, 54, 0
2, 86640, Note_on_c, 1, 56, 127
2, 86640, Note_off_c, 1, 59, 0
2, 86640, Note_off_c, 1, 63, 0
2, 86640, Note_on_c, 1, 85, 127
2, 86680, Note_off_c, 1, 44, 0
2, 86680, Note_on_c, 1, 48, 127
2, 86680, Note_off_c, 1, 49, 0
2, 86680, Note_off_c, 1, 52, 0
2, 86680, Note_off_c, 1, 56, 0
2, 86680, Note_off_c, 1, 85, 0
2, 86720, Note_on_c, 1, 43, 127
2, 86720, Note_off_c, 1, 48, 0
2, 86720, Note_on_c, 1, 84, 127
2, 86720, Note_on_c, 1, 87, 127
2, 86840, Note_off_c, 1, 43, 0
2, 86840, Note_on_c, 1, 44, 127
2, 86840, Note_on_c, 1, 54, 127
2, 86840, Note_on_c, 1, 69, 127
2, 86840, Note_on_c, 1, 72, 127
2, 86840, Note_on_c, 1, 75, 127
2, 86840, Note_on_c, 1, 78, 127
2, 86840, Note_on_c, 1, 81, 127
2, 86840, Note_off_c, 1, 84, 0
2, 86840, Note_off_c, 1, 87, 0
2, 86880, Note_on_c, 1, 38, 127
2, 86880, Note_off_c, 1, 44, 0
2, 86880, Note_on_c, 1, 52, 127
2, 86880, Note_off_c, 1, 54, 0
2, 86880, Note_on_c, 1, 57, 127
2, 86880, Note_off_c, 1, 69, 0
2, 86880, Note_off_c, 1, 72, 0
2, 86880, Note_off_c, 1, 75, 0
2, 86880, Note_on_c, 1, 76, 127
2, 86880, Note_off_c, 1, 78, 0
2, 86880, Note_off_c, 1, 81, 0
2, 86920, Note_on_c, 1, 33, 127
2, 86920, Note_off_c, 1, 38, 0
2, 86920, Note_on_c, 1, 49, 127
2, 86920, Note_off_c, 1, 52, 0
2, 86920, Note_off_c, 1, 57, 0
2, 86920, Note_on_c, 1, 64, 127
2, 86920, Note_on_c, 1, 69, 127
2, 86920, Note_off_c, 1, 76, 0
2, 87000, Note_off_c, 1, 33, 0
2, 87000, Note_off_c, 1, 49, 0
2, 87000, Note_off_c, 1, 64, 0
2, 87000, Note_on_c, 1, 67, 127
2, 87000, Note_off_c, 1, 69, 0
2, 87000, Note_on_c, 1, 72, 127
2, 87000, Note_on_c, 1, 76, 127
2, 87000, Note_on_c, 1, 88, 127
2, 87000, Note_on_c, 1, 96, 127
2, 87000, Note_on_c, 1, 100, 127
2, 87040, Note_on_c, 1, 31, 127
2, 87040, Note_off_c, 1, 67, 0
2, 87040, Note_off_c, 1, 72, 0
2, 87040, Note_off_c, 1, 76, 0
2, 87040, Note_off_c, 1, 88, 0
2, 87040, Note_off_c, 1, 96, 0
2, 87040, Note_off_c, 1, 100, 0
2, 87080, Note_off_c, 1, 31, 0
2, 87080, Note_on_c, 1, 35, 127
2, 87080, Note_on_c, 1, 42, 127
2, 87080, Note_on_c, 1, 64, 127
2, 87080, Note_on_c, 1, 67, 127
2, 87080, Note_on_c, 1, 70, 127
2, 87080, Note_on_c, 1, 73, 127
2, 87360, Note_off_c, 1, 35, 0
2, 87360, Note_off_c, 1, 42, 0
2, 87360, Note_on_c, 1, 43, 127
2, 87360, Note_off_c, 1, 64, 0
2, 87360, Note_off_c, 1, 67, 0
2, 87360, Note_off_c, 1, 70, 0
2, 87360, Note_off_c, 1, 73, 0
2, 87400, Note_on_c, 1, 35, 127
2, 87400, Note_on_c, 1, 42, 127
2, 87400, Note_off_c, 1, 43, 0
2, 87400, Note_on_c, 1, 64, 127
2, 87400, Note_on_c, 1, 67, 127
2, 87400, Note_on_c, 1, 70, 127
2, 87400, Note_on_c, 1, 73, 127
2, 87720, Note_off_c, 1, 35, 0
2, 87720, Note_off_c, 1, 42, 0
2, 87720, Note_on_c, 1, 69, 127
2, 87720, Note_off_c, 1, 70, 0
2, 87720, Note_off_c, 1, 73, 0
2, 87720, Note_on_c, 1, 74, 127
2, 87760, Note_on_c, 1, 38, 127
2, 87760, Note_on_c, 1, 42, 127
2, 87760, Note_on_c, 1, 50, 127
2, 87760, Note_off_c, 1, 64, 0
2, 87760, Note_off_c, 1, 67, 0
2, 87760, Note_off_c, 1, 69, 0
2, 87760, Note_off_c, 1, 74, 0
2, 87760, Note_on_c, 1, 78, 127
2, 87760, Note_on_c, 1, 81, 127
2, 87760, Note_on_c, 1, 86, 127
2, 87760, Note_on_c, 1, 90, 127
2, 88080, Note_on_c, 1, 33, 127
2, 88080, Note_off_c, 1, 38, 0
2, 88080, Note_off_c, 1, 42, 0
2, 88080, Note_off_c, 1, 50, 0
2, 88080, Note_off_c, 1, 78, 0
2, 88080, Note_off_c, 1, 81, 0
2, 88080, Note_off_c, 1, 86, 0
2, 88080, Note_off_c, 1, 90, 0
2, 88120, Note_off_c, 1, 33, 0
2, 88120, Note_on_c, 1, 38, 127
2, 88120, Note_on_c, 1, 42, 127
2, 88120, Note_on_c, 1, 50, 127
2, 88120, Note_on_c, 1, 74, 127
2, 88120, Note_on_c, 1, 86, 127
2, 88440, Note_off_c, 1, 38, 0
2, 88440, Note_off_c, 1, 42, 0
2, 88440, Note_off_c, 1, 50, 0
2, 88440, Note_off_c, 1, 74, 0
2, 88440, Note_off_c, 1, 86, 0
2, 88520, Note_on_c, 1, 41, 127
2, 88520, Note_on_c, 1, 53, 127
2, 88520, Note_on_c, 1, 74, 127
2, 88520, Note_on_c, 1, 81, 127
2, 88520, Note_on_c, 1, 86, 127
2, 88760, Note_off_c, 1, 41, 0
2, 88760, Note_on_c, 1, 49, 127
2, 88760, Note_off_c, 1, 53, 0
2, 88760, Note_on_c, 1, 54, 127
2, 88760, Note_on_c, 1, 56, 127
2, 88760, Note_on_c, 1, 63, 127
2, 88760, Note_on_c, 1, 68, 127
2, 88760, Note_off_c, 1, 74, 0
2, 88760, Note_off_c, 1, 81, 0
2, 88760, Note_off_c, 1, 86, 0
2, 88800, Note_on_c, 1, 47, 127
2, 88800, Note_off_c, 1, 49, 0
2, 88800, Note_on_c, 1, 50, 127
2, 88800, Note_off_c, 1, 54, 0
2, 88800, Note_on_c, 1, 55, 127
2, 88800, Note_off_c, 1, 56, 0
2, 88800, Note_off_c, 1, 63, 0
2, 88800, Note_off_c, 1, 68, 0
2, 88840, Note_on_c, 1, 32, 127
2, 88840, Note_on_c, 1, 44, 127
2, 88840, Note_off_c, 1, 47, 0
2, 88840, Note_off_c, 1, 50, 0
2, 88840, Note_off_c, 1, 55, 0
2, 88840, Note_on_c, 1, 59, 127
2, 88840, Note_on_c, 1, 62, 127
2, 88840, Note_on_c, 1, 65, 127
2, 88840, Note_on_c, 1, 68, 127
2, 89160, Note_off_c, 1, 32, 0
2, 89160, Note_off_c, 1, 44, 0
2, 89160, Note_off_c, 1, 59, 0
2, 89160, Note_off_c, 1, 62, 0
2, 89160, Note_off_c, 1, 65, 0
2, 89160, Note_off_c, 1, 68, 0
2, 89200, Note_on_c, 1, 48, 127
2, 89200, Note_on_c, 1, 52, 127
2, 89200, Note_on_c, 1, 56, 127
2, 89200, Note_on_c, 1, 88, 127
2, 89200, Note_on_c, 1, 92, 127
2, 89240, Note_on_c, 1, 40, 127
2, 89240, Note_off_c, 1, 48, 0
2, 89240, Note_off_c, 1, 52, 0
2, 89240, Note_off_c, 1, 56, 0
2, 89240, Note_on_c, 1, 58, 127
2, 89240, Note_on_c, 1, 72, 127
2, 89240, Note_off_c, 1, 88, 0
2, 89240, Note_off_c, 1, 92, 0
2, 89440, Note_on_c, 1, 38, 127
2, 89440, Note_off_c, 1, 40, 0
2, 89440, Note_on_c, 1, 42, 127
2, 89440, Note_on_c, 1, 50, 127
2, 89440, Note_off_c, 1, 58, 0
2, 89440, Note_off_c, 1, 72, 0
2, 89440, Note_on_c, 1, 78, 127
2, 89440, Note_on_c, 1, 90, 127
2, 89480, Note_off_c, 1, 38, 0
2, 89480, Note_off_c, 1, 42, 0
2, 89480, Note_on_c, 1, 54, 127
2, 89480, Note_on_c, 1, 69, 127
2, 89480, Note_on_c, 1, 72, 127
2, 89480, Note_off_c, 1, 78, 0
2, 89480, Note_off_c, 1, 90, 0
2, 89520, Note_on_c, 1, 43, 127
2, 89520, Note_on_c, 1, 45, 127
2, 89520, Note_off_c, 1, 50, 0
2, 89520, Note_off_c, 1, 54, 0
2, 89520, Note_off_c, 1, 69, 0
2, 89520, Note_off_c, 1, 72, 0
2, 89560, Note_on_c, 1, 36, 127
2, 89560, Note_off_c, 1, 43, 0
2, 89560, Note_off_c, 1, 45, 0
2, 89560, Note_on_c, 1, 48, 127
2, 89560, Note_on_c, 1, 76, 127
2, 89560, Note_on_c, 1, 84, 127
2, 89560, Note_on_c, 1, 88, 127
2, 89800, Note_off_c, 1, 36, 0
2, 89800, Note_off_c, 1, 48, 0
2, 89800, Note_off_c, 1, 76, 0
2, 89800, Note_off_c, 1, 84, 0
2, 89800, Note_off_c, 1, 88, 0
2, 89840, Note_on_c, 1, 36, 127
2, 89880, Note_off_c, 1, 36, 0
2, 89880, Note_on_c, 1, 46, 127
2, 89880, Note_on_c, 1, 49, 127
2, 89880, Note_on_c, 1, 77, 127
2, 89880, Note_on_c, 1, 85, 127
2, 89880, Note_on_c, 1, 89, 127
2, 90200, Note_on_c, 1, 34, 127
2, 90200, Note_off_c, 1, 49, 0
2, 90200, Note_on_c, 1, 65, 127
2, 90200, Note_on_c, 1, 70, 127
2, 90200, Note_on_c, 1, 74, 127
2, 90200, Note_off_c, 1, 85, 0
2, 90200, Note_off_c, 1, 89, 0
2, 90240, Note_off_c, 1, 34, 0
2, 90240, Note_off_c, 1, 46, 0
2, 90240, Note_on_c, 1, 48, 127
2, 90240, Note_on_c, 1, 55, 127
2, 90240, Note_on_c, 1, 60, 127
2, 90240, Note_on_c, 1, 64, 127
2, 90240, Note_off_c, 1, 65, 0
2, 90240, Note_on_c, 1, 67, 127
2, 90240, Note_off_c, 1, 70, 0
2, 90240, Note_on_c, 1, 72, 127
2, 90240, Note_off_c, 1, 74, 0
2, 90240, Note_on_c, 1, 76, 127
2, 90240, Note_off_c, 1, 77, 0
2, 90280, Note_off_c, 1, 48, 0
2, 90280, Note_off_c, 1, 55, 0
2, 90280, Note_on_c, 1, 63, 127
2, 90280, Note_off_c, 1, 64, 0
2, 90280, Note_on_c, 1, 66, 127
2, 90280, Note_off_c, 1, 67, 0
2, 90280, Note_off_c, 1, 72, 0
2, 90280, Note_on_c, 1, 74, 127
2, 90280, Note_off_c, 1, 76, 0
2, 90280, Note_on_c, 1, 78, 127
2, 90320, Note_off_c, 1, 60, 0
2, 90320, Note_off_c, 1, 63, 0
2, 90320, Note_off_c, 1, 66, 0
2, 90320, Note_off_c, 1, 74, 0
2, 90320, Note_off_c, 1, 78, 0
2, 90360, Note_on_c, 1, 32, 127
2, 90360, Note_on_c, 1, 44, 127
2, 90360, Note_on_c, 1, 54, 127
2, 90360, Note_on_c, 1, 62, 127
2, 90360, Note_on_c, 1, 68, 127
2, 90400, Note_off_c, 1, 32, 0
2, 90400, Note_on_c, 1, 42, 127
2, 90400, Note_off_c, 1, 44, 0
2, 90400, Note_on_c, 1, 49, 127
2, 90400, Note_off_c, 1, 54, 0
2, 90400, Note_off_c, 1, 62, 0
2, 90400, Note_off_c, 1, 68, 0
2, 90400, Note_on_c, 1, 85, 127
2, 90440, Note_off_c, 1, 42, 0
2, 90440, Note_off_c, 1, 49, 0
2, 90440, Note_on_c, 1, 57, 127
2, 90440, Note_on_c, 1, 59, 127
2, 90440, Note_on_c, 1, 65, 127
2, 90440, Note_on_c, 1, 77, 127
2, 90440, Note_off_c, 1, 85, 0
2, 90480, Note_on_c, 1, 41, 127
2, 90480, Note_on_c, 1, 50, 127
2, 90480, Note_on_c, 1, 56, 127
2, 90480, Note_off_c, 1, 57, 0
2, 90480, Note_off_c, 1, 59, 0
2, 90480, Note_on_c, 1, 61, 127
2, 90480, Note_off_c, 1, 65, 0
2, 90480, Note_off_c, 1, 77, 0
2, 90520, Note_on_c, 1, 39, 127
2, 90520, Note_on_c, 1, 40, 127
2, 90520, Note_off_c, 1, 41, 0
2, 90520, Note_on_c, 1, 45, 127
2, 90520, Note_on_c, 1, 48, 127
2, 90520, Note_off_c, 1, 50, 0
2, 90520, Note_on_c, 1, 52, 127
2, 90520, Note_off_c, 1, 56, 0
2, 90520, Note_on_c, 1, 57, 127
2, 90520, Note_on_c, 1, 60, 127
2, 90520, Note_off_c, 1, 61, 0
2, 90520, Note_on_c, 1, 64, 127
2, 90560, Note_off_c, 1, 39, 0
2, 90560, Note_off_c, 1, 40, 0
2, 90560, Note_off_c, 1, 45, 0
2, 90560, Note_off_c, 1, 48, 0
2, 90560, Note_off_c, 1, 52, 0
2, 90560, Note_off_c, 1, 57, 0
2, 90560, Note_off_c, 1, 64, 0
2, 90560, Note_on_c, 1, 95, 127
2, 90560, Note_on_c, 1, 107, 127
2, 90600, Note_on_c, 1, 43, 127
2, 90600, Note_on_c, 1, 49, 127
2, 90600, Note_on_c, 1, 57, 127
2, 90600, Note_off_c, 1, 60, 0
2, 90600, Note_on_c, 1, 65, 127
2, 90600, Note_off_c, 1, 95, 0
2, 90600, Note_off_c, 1, 107, 0
2, 90640, Note_off_c, 1, 43, 0
2, 90640, Note_off_c, 1, 49, 0
2, 90640, Note_on_c, 1, 50, 127
2, 90640, Note_off_c, 1, 57, 0
2, 90640, Note_on_c, 1, 61, 127
2, 90640, Note_off_c, 1, 65, 0
2, 90640, Note_on_c, 1, 66, 127
2, 90640, Note_on_c, 1, 78, 127
2, 90640, Note_on_c, 1, 81, 127
2, 90680, Note_on_c, 1, 31, 127
2, 90680, Note_on_c, 1, 43, 127
2, 90680, Note_off_c, 1, 50, 0
2, 90680, Note_off_c, 1, 61, 0
2, 90680, Note_on_c, 1, 62, 127
2, 90680, Note_on_c, 1, 65, 127
2, 90680, Note_off_c, 1, 66, 0
2, 90680, Note_on_c, 1, 70, 127
2, 90680, Note_on_c, 1, 74, 127
2, 90680, Note_off_c, 1, 78, 0
2, 90680, Note_off_c, 1, 81, 0
2, 90720, Note_off_c, 1, 31, 0
2, 90720, Note_off_c, 1, 43, 0
2, 90720, Note_on_c, 1, 55, 127
2, 90720, Note_off_c, 1, 62, 0
2, 90720, Note_off_c, 1, 70, 0
2, 90720, Note_on_c, 1, 72, 127
2, 90720, Note_off_c, 1, 74, 0
2, 90720, Note_on_c, 1, 79, 127
2, 90760, Note_on_c, 1, 40, 127
2, 90760, Note_on_c, 1, 43, 127
2, 90760, Note_on_c, 1, 52, 127
2, 90760, Note_off_c, 1, 55, 0
2, 90760, Note_off_c, 1, 65, 0
2, 90760, Note_off_c, 1, 72, 0
2, 90760, Note_off_c, 1, 79, 0
2, 90760, Note_on_c, 1, 87, 127
2, 90800, Note_on_c, 1, 36, 127
2, 90800, Note_off_c, 1, 40, 0
2, 90800, Note_off_c, 1, 43, 0
2, 90800, Note_on_c, 1, 45, 127
2, 90800, Note_on_c, 1, 48, 127
2, 90800, Note_off_c, 1, 52, 0
2, 90800, Note_on_c, 1, 69, 127
2, 90800, Note_on_c, 1, 81, 127
2, 90800, Note_off_c, 1, 87, 0
2, 90840, Note_off_c, 1, 36, 0
2, 90840, Note_on_c, 1, 39, 127
2, 90840, Note_on_c, 1, 43, 127
2, 90840, Note_off_c, 1, 45, 0
2, 90840, Note_on_c, 1, 46, 127
2, 90840, Note_off_c, 1, 48, 0
2, 90840, Note_on_c, 1, 51, 127
2, 90840, Note_off_c, 1, 69, 0
2, 90840, Note_off_c, 1, 81, 0
2, 90840, Note_on_c, 1, 91, 127
2, 90880, Note_off_c, 1, 39, 0
2, 90880, Note_on_c, 1, 40, 127
2, 90880, Note_on_c, 1, 41, 127
2, 90880, Note_off_c, 1, 43, 0
2, 90880, Note_on_c, 1, 48, 127
2, 90880, Note_off_c, 1, 51, 0
2, 90880, Note_on_c, 1, 53, 127
2, 90880, Note_on_c, 1, 60, 127
2, 90880, Note_on_c, 1, 65, 127
2, 90880, Note_off_c, 1, 91, 0
2, 90920, Note_off_c, 1, 40, 0
2, 90920, Note_off_c, 1, 41, 0
2, 90920, Note_off_c, 1, 46, 0
2, 90920, Note_off_c, 1, 48, 0
2, 90920, Note_off_c, 1, 53, 0
2, 90920, Note_off_c, 1, 60, 0
2, 90920, Note_off_c, 1, 65, 0
2, 90960, Note_on_c, 1, 47, 127
2, 90960, Note_on_c, 1, 80, 127
2, 90960, Note_on_c, 1, 83, 127
2, 90960, Note_on_c, 1, 87, 127
2, 90960, Note_on_c, 1, 92, 127
2, 91000, Note_off_c, 1, 47, 0
2, 91000, Note_on_c, 1, 51, 127
2, 91040, Note_off_c, 1, 51, 0
2, 91040, Note_on_c, 1, 56, 127
2, 91080, Note_on_c, 1, 51, 127
2, 91080, Note_off_c, 1, 56, 0
2, 91240, Note_on_c, 1, 47, 127
2, 91240, Note_off_c, 1, 51, 0
2, 91280, Note_off_c, 1, 47, 0
2, 91280, Note_off_c, 1, 80, 0
2, 91280, Note_off_c, 1, 83, 0
2, 91280, Note_off_c, 1, 87, 0
2, 91280, Note_off_c, 1, 92, 0
2, 91320, Note_on_c, 1, 43, 127
2, 91320, Note_on_c, 1, 69, 127
2, 91320, Note_on_c, 1, 71, 127
2, 91320, Note_on_c, 1, 77, 127
2, 91360, Note_off_c, 1, 43, 0
2, 91360, Note_on_c, 1, 60, 127
2, 91360, Note_on_c, 1, 65, 127
2, 91360, Note_off_c, 1, 71, 0
2, 91360, Note_on_c, 1, 72, 127
2, 91400, Note_on_c, 1, 41, 127
2, 91400, Note_off_c, 1, 60, 0
2, 91400, Note_off_c, 1, 65, 0
2, 91400, Note_off_c, 1, 69, 0
2, 91400, Note_on_c, 1, 70, 127
2, 91400, Note_off_c, 1, 72, 0
2, 91400, Note_on_c, 1, 73, 127
2, 91440, Note_off_c, 1, 41, 0
2, 91440, Note_off_c, 1, 70, 0
2, 91440, Note_off_c, 1, 73, 0
2, 91440, Note_off_c, 1, 77, 0
2, 91440, Note_on_c, 1, 86, 127
2, 91440, Note_on_c, 1, 89, 127
2, 91440, Note_on_c, 1, 95, 127
2, 91440, Note_on_c, 1, 98, 127
2, 91480, Note_on_c, 1, 49, 127
2, 91480, Note_on_c, 1, 57, 127
2, 91480, Note_on_c, 1, 61, 127
2, 91480, Note_on_c, 1, 63, 127
2, 91480, Note_on_c, 1, 66, 127
2, 91480, Note_off_c, 1, 86, 0
2, 91480, Note_off_c, 1, 89, 0
2, 91480, Note_off_c, 1, 95, 0
2, 91480, Note_off_c, 1, 98, 0
2, 91520, Note_off_c, 1, 49, 0
2, 91520, Note_on_c, 1, 53, 127
2, 91520, Note_off_c, 1, 61, 0
2, 91520, Note_off_c, 1, 63, 0
2, 91520, Note_on_c, 1, 64, 127
2, 91520, Note_off_c, 1, 66, 0
2, 91520, Note_on_c, 1, 69, 127
2, 91520, Note_on_c, 1, 76, 127
2, 91560, Note_off_c, 1, 53, 0
2, 91560, Note_off_c, 1, 57, 0
2, 91560, Note_on_c, 1, 58, 127
2, 91560, Note_on_c, 1, 60, 127
2, 91560, Note_off_c, 1, 64, 0
2, 91560, Note_on_c, 1, 65, 127
2, 91560, Note_off_c, 1, 69, 0
2, 91560, Note_on_c, 1, 72, 127
2, 91560, Note_off_c, 1, 76, 0
2, 91560, Note_on_c, 1, 77, 127
2, 91600, Note_off_c, 1, 58, 0
2, 91600, Note_off_c, 1, 60, 0
2, 91600, Note_off_c, 1, 65, 0
2, 91600, Note_off_c, 1, 72, 0
2, 91600, Note_off_c, 1, 77, 0
2, 91640, Note_on_c, 1, 41, 127
2, 91640, Note_on_c, 1, 53, 127
2, 91640, Note_on_c, 1, 62, 127
2, 91640, Note_on_c, 1, 67, 127
2, 91640, Note_on_c, 1, 70, 127
2, 91960, Note_off_c, 1, 53, 0
2, 91960, Note_off_c, 1, 62, 0
2, 91960, Note_off_c, 1, 67, 0
2, 91960, Note_off_c, 1, 70, 0
2, 92000, Note_off_c, 1, 41, 0
2, 92000, Note_on_c, 1, 53, 127
2, 92000, Note_on_c, 1, 60, 127
2, 92000, Note_on_c, 1, 69, 127
2, 92000, Note_on_c, 1, 77, 127
2, 92000, Note_on_c, 1, 89, 127
2, 92200, Note_on_c, 1, 45, 127
2, 92200, Note_on_c, 1, 52, 127
2, 92200, Note_off_c, 1, 53, 0
2, 92200, Note_off_c, 1, 60, 0
2, 92200, Note_off_c, 1, 69, 0
2, 92200, Note_off_c, 1, 77, 0
2, 92200, Note_on_c, 1, 83, 127
2, 92200, Note_off_c, 1, 89, 0
2, 92200, Note_on_c, 1, 91, 127
2, 92200, Note_on_c, 1, 95, 127
2, 92240, Note_off_c, 1, 45, 0
2, 92240, Note_off_c, 1, 52, 0
2, 92240, Note_off_c, 1, 83, 0
2, 92240, Note_off_c, 1, 91, 0
2, 92240, Note_off_c, 1, 95, 0
2, 92280, Note_on_c, 1, 53, 127
2, 92280, Note_on_c, 1, 60, 127
2, 92280, Note_on_c, 1, 69, 127
2, 92280, Note_on_c, 1, 77, 127
2, 92280, Note_on_c, 1, 89, 127
2, 92320, Note_on_c, 1, 41, 127
2, 92320, Note_off_c, 1, 53, 0
2, 92320, Note_on_c, 1, 57, 127
2, 92320, Note_off_c, 1, 60, 0
2, 92320, Note_off_c, 1, 69, 0
2, 92320, Note_off_c, 1, 77, 0
2, 92320, Note_off_c, 1, 89, 0
2, 92360, Note_on_c, 1, 34, 127
2, 92360, Note_off_c, 1, 41, 0
2, 92360, Note_on_c, 1, 50, 127
2, 92360, Note_on_c, 1, 56, 127
2, 92360, Note_off_c, 1, 57, 0
2, 92360, Note_on_c, 1, 58, 127
2, 92360, Note_on_c, 1, 62, 127
2, 92400, Note_off_c, 1, 34, 0
2, 92400, Note_on_c, 1, 41, 127
2, 92400, Note_off_c, 1, 50, 0
2, 92400, Note_off_c, 1, 56, 0
2, 92400, Note_off_c, 1, 58, 0
2, 92400, Note_off_c, 1, 62, 0
2, 92400, Note_on_c, 1, 84, 127
2, 92400, Note_on_c, 1, 89, 127
2, 92400, Note_on_c, 1, 92, 127
2, 92400, Note_on_c, 1, 96, 127
2, 92440, Note_on_c, 1, 48, 127
2, 92440, Note_on_c, 1, 74, 127
2, 92440, Note_on_c, 1, 77, 127
2, 92440, Note_off_c, 1, 84, 0
2, 92440, Note_off_c, 1, 89, 0
2, 92440, Note_off_c, 1, 92, 0
2, 92440, Note_off_c, 1, 96, 0
2, 92480, Note_on_c, 1, 31, 127
2, 92480, Note_on_c, 1, 38, 127
2, 92480, Note_off_c, 1, 41, 0
2, 92480, Note_off_c, 1, 48, 0
2, 92480, Note_on_c, 1, 58, 127
2, 92480, Note_on_c, 1, 62, 127
2, 92480, Note_on_c, 1, 67, 127
2, 92480, Note_off_c, 1, 74, 0
2, 92480, Note_off_c, 1, 77, 0
2, 92520, Note_off_c, 1, 31, 0
2, 92520, Note_on_c, 1, 36, 127
2, 92520, Note_off_c, 1, 38, 0
2, 92520, Note_on_c, 1, 48, 127
2, 92520, Note_off_c, 1, 58, 0
2, 92520, Note_off_c, 1, 62, 0
2, 92520, Note_off_c, 1, 67, 0
2, 92520, Note_on_c, 1, 69, 127
2, 92520, Note_on_c, 1, 77, 127
2, 92560, Note_off_c, 1, 36, 0
2, 92560, Note_on_c, 1, 46, 127
2, 92560, Note_on_c, 1, 47, 127
2, 92560, Note_off_c, 1, 48, 0
2, 92560, Note_on_c, 1, 52, 127
2, 92560, Note_on_c, 1, 54, 127
2, 92560, Note_off_c, 1, 69, 0
2, 92560, Note_off_c, 1, 77, 0
2, 92600, Note_on_c, 1, 34, 127
2, 92600, Note_off_c, 1, 47, 0
2, 92600, Note_off_c, 1, 52, 0
2, 92600, Note_off_c, 1, 54, 0
2, 92600, Note_on_c, 1, 78, 127
2, 92600, Note_on_c, 1, 85, 127
2, 92600, Note_on_c, 1, 88, 127
2, 92600, Note_on_c, 1, 90, 127
2, 92640, Note_off_c, 1, 34, 0
2, 92640, Note_on_c, 1, 45, 127
2, 92640, Note_off_c, 1, 46, 0
2, 92640, Note_on_c, 1, 67, 127
2, 92640, Note_off_c, 1, 85, 0
2, 92640, Note_off_c, 1, 88, 0
2, 92640, Note_off_c, 1, 90, 0
2, 92680, Note_off_c, 1, 45, 0
2, 92680, Note_on_c, 1, 54, 127
2, 92680, Note_off_c, 1, 67, 0
2, 92680, Note_off_c, 1, 78, 0
2, 92720, Note_on_c, 1, 41, 127
2, 92720, Note_on_c, 1, 51, 127
2, 92720, Note_off_c, 1, 54, 0
2, 92720, Note_on_c, 1, 57, 127
2, 92720, Note_on_c, 1, 60, 127
2, 92720, Note_on_c, 1, 63, 127
2, 93000, Note_off_c, 1, 60, 0
2, 93000, Note_off_c, 1, 63, 0
2, 93040, Note_on_c, 1, 60, 127
2, 93360, Note_off_c, 1, 41, 0
2, 93360, Note_off_c, 1, 51, 0
2, 93360, Note_off_c, 1, 57, 0
2, 93360, Note_off_c, 1, 60, 0
2, 93400, Note_on_c, 1, 41, 127
2, 93400, Note_on_c, 1, 51, 127
2, 93400, Note_on_c, 1, 57, 127
2, 93400, Note_on_c, 1, 62, 127
2, 94040, Note_off_c, 1, 51, 0
2, 94040, Note_off_c, 1, 57, 0
2, 94040, Note_off_c, 1, 62, 0
2, 94080, Note_on_c, 1, 51, 127
2, 94080, Note_on_c, 1, 57, 127
2, 94080, Note_on_c, 1, 62, 127
2, 94280, Note_off_c, 1, 41, 0
2, 94280, Note_off_c, 1, 51, 0
2, 94280, Note_off_c, 1, 57, 0
2, 94280, Note_off_c, 1, 62, 0
2, 94320, Note_on_c, 1, 41, 127
2, 94320, Note_on_c, 1, 51, 127
2, 94320, Note_on_c, 1, 57, 127
2, 94320, Note_on_c, 1, 62, 127
2, 94440, Note_off_c, 1, 62, 0
2, 94480, Note_on_c, 1, 60, 127
2, 94760, Note_off_c, 1, 41, 0
2, 94760, Note_off_c, 1, 51, 0
2, 94760, Note_off_c, 1, 57, 0
2, 94760, Note_off_c, 1, 60, 0
2, 94800, Note_on_c, 1, 46, 127
2, 94800, Note_on_c, 1, 50, 127
2, 94800, Note_on_c, 1, 58, 127
2, 95040, Note_off_c, 1, 46, 0
2, 95040, Note_off_c, 1, 50, 0
2, 95080, Note_on_c, 1, 46, 127
2, 95120, Note_off_c, 1, 46, 0
2, 95120, Note_off_c, 1, 58, 0
2, 95160, Note_on_c, 1, 48, 127
2, 95160, Note_on_c, 1, 56, 127
2, 95160, Note_on_c, 1, 78, 127
2, 95440, Note_off_c, 1, 48, 0
2, 95440, Note_on_c, 1, 49, 127
2, 95440, Note_off_c, 1, 56, 0
2, 95440, Note_off_c, 1, 78, 0
2, 95480, Note_on_c, 1, 53, 127
2, 95480, Note_on_c, 1, 77, 127
2, 95800, Note_off_c, 1, 53, 0
2, 95800, Note_off_c, 1, 77, 0
2, 95840, Note_on_c, 1, 65, 127
2, 95840, Note_on_c, 1, 68, 127
2, 95840, Note_on_c, 1, 80, 127
2, 96160, Note_off_c, 1, 65, 0
2, 96160, Note_off_c, 1, 68, 0
2, 96160, Note_off_c, 1, 80, 0
2, 96200, Note_on_c, 1, 66, 127
2, 96200, Note_on_c, 1, 70, 127
2, 96200, Note_on_c, 1, 82, 127
2, 96400, Note_off_c, 1, 49, 0
2, 96400, Note_off_c, 1, 66, 0
2, 96400, Note_off_c, 1, 70, 0
2, 96400, Note_off_c, 1, 82, 0
2, 96440, Note_on_c, 1, 49, 127
2, 96440, Note_on_c, 1, 66, 127
2, 96440, Note_on_c, 1, 70, 127
2, 96440, Note_on_c, 1, 82, 127
2, 96520, Note_off_c, 1, 66, 0
2, 96520, Note_off_c, 1, 70, 0
2, 96520, Note_off_c, 1, 82, 0
2, 96560, Note_on_c, 1, 65, 127
2, 96560, Note_on_c, 1, 68, 127
2, 96560, Note_on_c, 1, 80, 127
2, 96880, Note_off_c, 1, 49, 0
2, 96880, Note_off_c, 1, 65, 0
2, 96880, Note_off_c, 1, 68, 0
2, 96880, Note_off_c, 1, 80, 0
2, 96920, Note_on_c, 1, 61, 127
2, 96920, Note_on_c, 1, 65, 127
2, 96920, Note_on_c, 1, 77, 127
2, 97200, Note_off_c, 1, 61, 0
2, 97200, Note_off_c, 1, 65, 0
2, 97200, Note_off_c, 1, 77, 0
2, 97240, Note_on_c, 1, 56, 127
2, 97240, Note_on_c, 1, 61, 127
2, 97240, Note_on_c, 1, 73, 127
2, 97400, Note_on_c, 1, 44, 127
2, 97560, Note_off_c, 1, 56, 0
2, 97560, Note_off_c, 1, 61, 0
2, 97560, Note_off_c, 1, 73, 0
2, 97600, Note_on_c, 1, 54, 127
2, 97600, Note_on_c, 1, 56, 127
2, 97600, Note_on_c, 1, 60, 127
2, 97600, Note_on_c, 1, 63, 127
2, 97600, Note_on_c, 1, 68, 127
2, 98240, Note_off_c, 1, 44, 0
2, 98240, Note_off_c, 1, 54, 0
2, 98240, Note_off_c, 1, 56, 0
2, 98240, Note_off_c, 1, 60, 0
2, 98240, Note_off_c, 1, 63, 0
2, 98240, Note_off_c, 1, 68, 0
2, 98280, Note_on_c, 1, 53, 127
2, 98280, Note_on_c, 1, 61, 127
2, 98280, Note_on_c, 1, 73, 127
2, 98600, Note_off_c, 1, 53, 0
2, 98600, Note_off_c, 1, 61, 0
2, 98600, Note_off_c, 1, 73, 0
2, 98680, Note_on_c, 1, 56, 127
2, 98680, Note_on_c, 1, 63, 127
2, 98680, Note_on_c, 1, 75, 127
2, 98960, Note_off_c, 1, 56, 0
2, 98960, Note_off_c, 1, 63, 0
2, 98960, Note_off_c, 1, 75, 0
2, 99000, Note_on_c, 1, 49, 127
2, 99000, Note_on_c, 1, 61, 127
2, 99000, Note_on_c, 1, 65, 127
2, 99000, Note_on_c, 1, 77, 127
2, 99320, Note_off_c, 1, 61, 0
2, 99320, Note_off_c, 1, 65, 0
2, 99320, Note_off_c, 1, 77, 0
2, 99360, Note_on_c, 1, 65, 127
2, 99360, Note_on_c, 1, 68, 127
2, 99360, Note_on_c, 1, 80, 127
2, 99640, Note_off_c, 1, 65, 0
2, 99640, Note_off_c, 1, 68, 0
2, 99640, Note_off_c, 1, 80, 0
2, 99680, Note_on_c, 1, 66, 127
2, 99680, Note_on_c, 1, 70, 127
2, 99680, Note_on_c, 1, 82, 127
2, 100000, Note_off_c, 1, 66, 0
2, 100000, Note_off_c, 1, 70, 0
2, 100000, Note_off_c, 1, 82, 0
2, 100040, Note_on_c, 1, 65, 127
2, 100040, Note_on_c, 1, 68, 127
2, 100040, Note_on_c, 1, 80, 127
2, 100360, Note_off_c, 1, 65, 0
2, 100360, Note_off_c, 1, 68, 0
2, 100360, Note_off_c, 1, 80, 0
2, 100400, Note_on_c, 1, 66, 127
2, 100400, Note_on_c, 1, 70, 127
2, 100400, Note_on_c, 1, 82, 127
2, 100680, Note_off_c, 1, 66, 0
2, 100680, Note_off_c, 1, 70, 0
2, 100680, Note_off_c, 1, 82, 0
2, 100720, Note_on_c, 1, 65, 127
2, 100720, Note_on_c, 1, 68, 127
2, 100720, Note_on_c, 1, 80, 127
2, 100800, Note_off_c, 1, 49, 0
2, 100800, Note_off_c, 1, 65, 0
2, 100800, Note_off_c, 1, 68, 0
2, 100800, Note_off_c, 1, 80, 0
2, 100840, Note_on_c, 1, 49, 127
2, 100840, Note_on_c, 1, 65, 127
2, 100840, Note_on_c, 1, 68, 127
2, 100840, Note_on_c, 1, 80, 127
2, 101080, Note_off_c, 1, 65, 0
2, 101080, Note_off_c, 1, 68, 0
2, 101080, Note_off_c, 1, 80, 0
2, 101120, Note_on_c, 1, 65, 127
2, 101120, Note_on_c, 1, 68, 127
2, 101120, Note_on_c, 1, 80, 127
2, 101400, Note_off_c, 1, 65, 0
2, 101400, Note_off_c, 1, 68, 0
2, 101400, Note_off_c, 1, 80, 0
2, 101440, Note_on_c, 1, 66, 127
2, 101440, Note_on_c, 1, 70, 127
2, 101440, Note_on_c, 1, 82, 127
2, 101760, Note_off_c, 1, 66, 0
2, 101760, Note_off_c, 1, 70, 0
2, 101760, Note_off_c, 1, 82, 0
2, 101800, Note_on_c, 1, 65, 127
2, 101800, Note_on_c, 1, 68, 127
2, 101800, Note_on_c, 1, 80, 127
2, 102120, Note_off_c, 1, 49, 0
2, 102120, Note_off_c, 1, 65, 0
2, 102120, Note_off_c, 1, 68, 0
2, 102120, Note_off_c, 1, 80, 0
2, 102160, Note_on_c, 1, 61, 127
2, 102160, Note_on_c, 1, 65, 127
2, 102160, Note_on_c, 1, 77, 127
2, 102440, Note_off_c, 1, 61, 0
2, 102440, Note_off_c, 1, 65, 0
2, 102440, Note_off_c, 1, 77, 0
2, 102480, Note_on_c, 1, 54, 127
2, 102480, Note_on_c, 1, 66, 127
2, 102480, Note_on_c, 1, 78, 127
2, 102600, Note_off_c, 1, 54, 0
2, 102600, Note_on_c, 1, 60, 127
2, 102640, Note_on_c, 1, 54, 127
2, 102640, Note_off_c, 1, 60, 0
2, 102800, Note_off_c, 1, 54, 0
2, 102800, Note_off_c, 1, 66, 0
2, 102800, Note_off_c, 1, 78, 0
2, 102840, Note_on_c, 1, 61, 127
2, 102840, Note_on_c, 1, 65, 127
2, 102840, Note_on_c, 1, 77, 127
2, 102960, Note_off_c, 1, 61, 0
2, 102960, Note_off_c, 1, 65, 0
2, 102960, Note_off_c, 1, 77, 0
2, 103000, Note_on_c, 1, 61, 127
2, 103000, Note_on_c, 1, 65, 127
2, 103000, Note_on_c, 1, 77, 127
2, 103040, Note_on_c, 1, 60, 127
2, 103040, Note_off_c, 1, 61, 0
2, 103080, Note_off_c, 1, 60, 0
2, 103080, Note_on_c, 1, 61, 127
2, 103120, Note_on_c, 1, 60, 127
2, 103120, Note_off_c, 1, 61, 0
2, 103160, Note_off_c, 1, 60, 0
2, 103160, Note_off_c, 1, 65, 0
2, 103160, Note_off_c, 1, 77, 0
2, 103200, Note_on_c, 1, 60, 127
2, 103200, Note_on_c, 1, 63, 127
2, 103200, Note_on_c, 1, 78, 127
2, 103520, Note_off_c, 1, 60, 0
2, 103520, Note_off_c, 1, 63, 0
2, 103520, Note_off_c, 1, 78, 0
2, 103560, Note_on_c, 1, 61, 127
2, 103560, Note_on_c, 1, 68, 127
2, 103560, Note_on_c, 1, 77, 127
2, 103840, Note_off_c, 1, 68, 0
2, 103880, Note_on_c, 1, 65, 127
2, 104200, Note_off_c, 1, 61, 0
2, 104200, Note_off_c, 1, 65, 0
2, 104200, Note_off_c, 1, 77, 0
2, 104240, Note_on_c, 1, 30, 127
2, 104240, Note_on_c, 1, 42, 127
2, 104240, Note_on_c, 1, 59, 127
2, 104240, Note_on_c, 1, 61, 127
2, 104240, Note_on_c, 1, 66, 127
2, 104240, Note_on_c, 1, 71, 127
2, 104280, Note_off_c, 1, 30, 0
2, 104280, Note_off_c, 1, 42, 0
2, 104280, Note_on_c, 1, 49, 127
2, 104280, Note_on_c, 1, 56, 127
2, 104280, Note_off_c, 1, 59, 0
2, 104280, Note_off_c, 1, 61, 0
2, 104280, Note_off_c, 1, 66, 0
2, 104280, Note_on_c, 1, 68, 127
2, 104280, Note_off_c, 1, 71, 0
2, 104280, Note_on_c, 1, 73, 127
2, 104280, Note_on_c, 1, 76, 127
2, 104280, Note_on_c, 1, 80, 127
2, 104320, Note_off_c, 1, 49, 0
2, 104320, Note_on_c, 1, 50, 127
2, 104320, Note_on_c, 1, 53, 127
2, 104320, Note_off_c, 1, 56, 0
2, 104320, Note_on_c, 1, 58, 127
2, 104320, Note_on_c, 1, 62, 127
2, 104320, Note_off_c, 1, 68, 0
2, 104320, Note_off_c, 1, 73, 0
2, 104320, Note_off_c, 1, 76, 0
2, 104360, Note_off_c, 1, 50, 0
2, 104360, Note_off_c, 1, 53, 0
2, 104360, Note_off_c, 1, 58, 0
2, 104360, Note_off_c, 1, 62, 0
2, 104360, Note_on_c, 1, 64, 127
2, 104360, Note_off_c, 1, 80, 0
2, 104360, Note_on_c, 1, 90, 127
2, 104360, Note_on_c, 1, 102, 127
2, 104400, Note_on_c, 1, 59, 127
2, 104400, Note_off_c, 1, 64, 0
2, 104400, Note_on_c, 1, 70, 127
2, 104400, Note_on_c, 1, 80, 127
2, 104400, Note_off_c, 1, 90, 0
2, 104400, Note_off_c, 1, 102, 0
2, 104440, Note_on_c, 1, 39, 127
2, 104440, Note_on_c, 1, 43, 127
2, 104440, Note_on_c, 1, 46, 127
2, 104440, Note_on_c, 1, 51, 127
2, 104440, Note_off_c, 1, 59, 0
2, 104440, Note_off_c, 1, 70, 0
2, 104440, Note_off_c, 1, 80, 0
2, 104440, Note_on_c, 1, 82, 127
2, 104440, Note_on_c, 1, 87, 127
2, 104440, Note_on_c, 1, 91, 127
2, 104480, Note_off_c, 1, 43, 0
2, 104480, Note_on_c, 1, 44, 127
2, 104480, Note_off_c, 1, 46, 0
2, 104480, Note_off_c, 1, 82, 0
2, 104480, Note_on_c, 1, 84, 127
2, 104480, Note_off_c, 1, 87, 0
2, 104480, Note_on_c, 1, 90, 127
2, 104480, Note_off_c, 1, 91, 0
2, 104520, Note_off_c, 1, 39, 0
2, 104520, Note_on_c, 1, 40, 127
2, 104520, Note_off_c, 1, 44, 0
2, 104520, Note_off_c, 1, 51, 0
2, 104520, Note_on_c, 1, 54, 127
2, 104520, Note_on_c, 1, 62, 127
2, 104520, Note_off_c, 1, 84, 0
2, 104520, Note_off_c, 1, 90, 0
2, 104560, Note_off_c, 1, 40, 0
2, 104560, Note_off_c, 1, 54, 0
2, 104560, Note_off_c, 1, 62, 0
2, 104600, Note_on_c, 1, 69, 127
2, 104600, Note_on_c, 1, 72, 127
2, 104600, Note_on_c, 1, 75, 127
2, 104600, Note_on_c, 1, 77, 127
2, 104600, Note_on_c, 1, 84, 127
2, 104640, Note_on_c, 1, 56, 127
2, 104640, Note_on_c, 1, 60, 127
2, 104640, Note_off_c, 1, 69, 0
2, 104640, Note_off_c, 1, 72, 0
2, 104640, Note_off_c, 1, 75, 0
2, 104640, Note_off_c, 1, 77, 0
2, 104640, Note_on_c, 1, 87, 127
2, 104680, Note_on_c, 1, 46, 127
2, 104680, Note_on_c, 1, 53, 127
2, 104680, Note_off_c, 1, 56, 0
2, 104680, Note_on_c, 1, 57, 127
2, 104680, Note_off_c, 1, 60, 0
2, 104680, Note_on_c, 1, 62, 127
2, 104680, Note_on_c, 1, 74, 127
2, 104680, Note_off_c, 1, 84, 0
2, 104680, Note_on_c, 1, 86, 127
2, 104680, Note_off_c, 1, 87, 0
2, 104720, Note_on_c, 1, 51, 127
2, 104720, Note_off_c, 1, 53, 0
2, 104720, Note_off_c, 1, 57, 0
2, 104720, Note_off_c, 1, 62, 0
2, 104720, Note_on_c, 1, 66, 127
2, 104720, Note_on_c, 1, 70, 127
2, 104720, Note_off_c, 1, 74, 0
2, 104720, Note_off_c, 1, 86, 0
2, 104760, Note_on_c, 1, 30, 127
2, 104760, Note_on_c, 1, 37, 127
2, 104760, Note_off_c, 1, 46, 0
2, 104760, Note_off_c, 1, 51, 0
2, 104760, Note_off_c, 1, 66, 0
2, 104760, Note_on_c, 1, 69, 127
2, 104760, Note_off_c, 1, 70, 0
2, 104800, Note_off_c, 1, 30, 0
2, 104800, Note_off_c, 1, 37, 0
2, 104800, Note_on_c, 1, 41, 127
2, 104800, Note_on_c, 1, 55, 127
2, 104800, Note_on_c, 1, 63, 127
2, 104800, Note_on_c, 1, 67, 127
2, 104800, Note_off_c, 1, 69, 0
2, 104800, Note_on_c, 1, 74, 127
2, 104840, Note_off_c, 1, 41, 0
2, 104840, Note_on_c, 1, 59, 127
2, 104840, Note_on_c, 1, 62, 127
2, 104840, Note_off_c, 1, 63, 0
2, 104840, Note_on_c, 1, 65, 127
2, 104840, Note_off_c, 1, 67, 0
2, 104840, Note_on_c, 1, 71, 127
2, 104840, Note_on_c, 1, 76, 127
2, 104880, Note_on_c, 1, 49, 127
2, 104880, Note_off_c, 1, 55, 0
2, 104880, Note_off_c, 1, 62, 0
2, 104880, Note_off_c, 1, 65, 0
2, 104880, Note_on_c, 1, 68, 127
2, 104880, Note_off_c, 1, 71, 0
2, 104880, Note_on_c, 1, 73, 127
2, 104880, Note_off_c, 1, 74, 0
2, 104880, Note_off_c, 1, 76, 0
2, 104880, Note_on_c, 1, 77, 127
2, 104920, Note_off_c, 1, 49, 0
2, 104920, Note_off_c, 1, 59, 0
2, 104920, Note_off_c, 1, 68, 0
2, 104920, Note_off_c, 1, 73, 0
2, 104920, Note_off_c, 1, 77, 0
2, 105000, Note_on_c, 1, 44, 127
2, 105000, Note_on_c, 1, 51, 127
2, 105000, Note_on_c, 1, 53, 127
2, 105000, Note_on_c, 1, 59, 127
2, 105000, Note_on_c, 1, 65, 127
2, 105000, Note_on_c, 1, 71, 127
2, 105000, Note_on_c, 1, 75, 127
2, 105000, Note_on_c, 1, 77, 127
2, 105080, Note_off_c, 1, 65, 0
2, 105080, Note_off_c, 1, 71, 0
2, 105080, Note_off_c, 1, 75, 0
2, 105080, Note_off_c, 1, 77, 0
2, 105160, Note_on_c, 1, 63, 127
2, 105160, Note_on_c, 1, 75, 127
2, 105280, Note_off_c, 1, 44, 0
2, 105280, Note_off_c, 1, 51, 0
2, 105280, Note_off_c, 1, 53, 0
2, 105280, Note_off_c, 1, 59, 0
2, 105280, Note_off_c, 1, 63, 0
2, 105280, Note_off_c, 1, 75, 0
2, 105320, Note_on_c, 1, 46, 127
2, 105320, Note_on_c, 1, 53, 127
2, 105320, Note_on_c, 1, 56, 127
2, 105320, Note_on_c, 1, 62, 127
2, 105320, Note_on_c, 1, 65, 127
2, 105320, Note_on_c, 1, 70, 127
2, 105320, Note_on_c, 1, 74, 127
2, 105320, Note_on_c, 1, 77, 127
2, 105440, Note_off_c, 1, 65, 0
2, 105440, Note_off_c, 1, 70, 0
2, 105440, Note_off_c, 1, 74, 0
2, 105440, Note_off_c, 1, 77, 0
2, 105480, Note_on_c, 1, 66, 127
2, 105480, Note_on_c, 1, 78, 127
2, 105640, Note_off_c, 1, 46, 0
2, 105640, Note_off_c, 1, 53, 0
2, 105640, Note_off_c, 1, 56, 0
2, 105640, Note_off_c, 1, 62, 0
2, 105640, Note_off_c, 1, 66, 0
2, 105640, Note_off_c, 1, 78, 0
2, 105680, Note_on_c, 1, 30, 127
2, 105680, Note_on_c, 1, 42, 127
2, 106000, Note_off_c, 1, 30, 0
2, 106000, Note_on_c, 1, 41, 127
2, 106000, Note_off_c, 1, 42, 0
2, 106000, Note_on_c, 1, 45, 127
2, 106000, Note_on_c, 1, 61, 127
2, 106000, Note_on_c, 1, 64, 127
2, 106000, Note_on_c, 1, 67, 127
2, 106000, Note_on_c, 1, 69, 127
2, 106320, Note_off_c, 1, 41, 0
2, 106320, Note_off_c, 1, 61, 0
2, 106320, Note_off_c, 1, 64, 0
2, 106320, Note_off_c, 1, 67, 0
2, 106320, Note_off_c, 1, 69, 0
2, 106360, Note_on_c, 1, 44, 127
2, 106360, Note_off_c, 1, 45, 0
2, 106360, Note_on_c, 1, 49, 127
2, 106360, Note_on_c, 1, 65, 127
2, 106360, Note_on_c, 1, 68, 127
2, 106360, Note_on_c, 1, 71, 127
2, 106360, Note_on_c, 1, 73, 127
2, 106640, Note_off_c, 1, 44, 0
2, 106640, Note_off_c, 1, 49, 0
2, 106640, Note_off_c, 1, 65, 0
2, 106640, Note_off_c, 1, 68, 0
2, 106640, Note_off_c, 1, 71, 0
2, 106640, Note_off_c, 1, 73, 0
2, 106680, Note_on_c, 1, 42, 127
2, 106680, Note_on_c, 1, 66, 127
2, 106680, Note_on_c, 1, 70, 127
2, 106680, Note_on_c, 1, 75, 127
2, 107040, Note_off_c, 1, 42, 0
2, 107040, Note_off_c, 1, 66, 0
2, 107040, Note_off_c, 1, 70, 0
2, 107040, Note_off_c, 1, 75, 0
2, 107080, Note_on_c, 1, 42, 127
2, 107080, Note_on_c, 1, 66, 127
2, 107080, Note_on_c, 1, 70, 127
2, 107080, Note_on_c, 1, 75, 127
2, 107360, Note_off_c, 1, 42, 0
2, 107360, Note_off_c, 1, 66, 0
2, 107360, Note_on_c, 1, 73, 127
2, 107360, Note_off_c, 1, 75, 0
2, 107400, Note_on_c, 1, 42, 127
2, 107400, Note_on_c, 1, 66, 127
2, 107400, Note_off_c, 1, 73, 0
2, 107400, Note_on_c, 1, 75, 127
2, 107720, Note_off_c, 1, 42, 0
2, 107720, Note_off_c, 1, 75, 0
2, 107760, Note_on_c, 1, 46, 127
2, 107760, Note_on_c, 1, 73, 127
2, 108040, Note_off_c, 1, 46, 0
2, 108040, Note_off_c, 1, 73, 0
2, 108080, Note_on_c, 1, 42, 127
2, 108080, Note_on_c, 1, 54, 127
2, 108080, Note_on_c, 1, 64, 127
2, 108080, Note_off_c, 1, 66, 0
2, 108080, Note_off_c, 1, 70, 0
2, 108080, Note_on_c, 1, 73, 127
2, 108400, Note_off_c, 1, 54, 0
2, 108400, Note_off_c, 1, 64, 0
2, 108400, Note_off_c, 1, 73, 0
2, 108440, Note_on_c, 1, 53, 127
2, 108440, Note_on_c, 1, 61, 127
2, 108440, Note_on_c, 1, 70, 127
2, 108560, Note_off_c, 1, 70, 0
2, 108600, Note_on_c, 1, 68, 127
2, 108680, Note_off_c, 1, 68, 0
2, 108720, Note_off_c, 1, 53, 0
2, 108720, Note_off_c, 1, 61, 0
2, 108720, Note_on_c, 1, 68, 127
2, 108760, Note_on_c, 1, 51, 127
2, 108760, Note_on_c, 1, 59, 127
2, 108760, Note_off_c, 1, 68, 0
2, 108760, Note_on_c, 1, 70, 127
2, 109040, Note_off_c, 1, 51, 0
2, 109040, Note_off_c, 1, 59, 0
2, 109040, Note_off_c, 1, 70, 0
2, 109120, Note_on_c, 1, 53, 127
2, 109120, Note_on_c, 1, 61, 127
2, 109120, Note_on_c, 1, 70, 127
2, 109240, Note_off_c, 1, 42, 0
2, 109240, Note_off_c, 1, 53, 0
2, 109240, Note_off_c, 1, 61, 0
2, 109240, Note_off_c, 1, 70, 0
2, 109280, Note_on_c, 1, 42, 127
2, 109280, Note_on_c, 1, 53, 127
2, 109280, Note_on_c, 1, 61, 127
2, 109280, Note_on_c, 1, 66, 127
2, 109320, Note_off_c, 1, 66, 0
2, 109320, Note_on_c, 1, 68, 127
2, 109440, Note_off_c, 1, 53, 0
2, 109440, Note_off_c, 1, 61, 0
2, 109440, Note_off_c, 1, 68, 0
2, 109480, Note_on_c, 1, 51, 127
2, 109480, Note_on_c, 1, 59, 127
2, 109480, Note_on_c, 1, 70, 127
2, 109760, Note_off_c, 1, 70, 0
2, 109800, Note_off_c, 1, 42, 0
2, 109800, Note_off_c, 1, 51, 0
2, 109800, Note_off_c, 1, 59, 0
2, 109840, Note_on_c, 1, 37, 127
2, 109840, Note_on_c, 1, 66, 127
2, 109840, Note_on_c, 1, 70, 127
2, 109840, Note_on_c, 1, 73, 127
2, 110120, Note_off_c, 1, 66, 0
2, 110120, Note_off_c, 1, 70, 0
2, 110120, Note_off_c, 1, 73, 0
2, 110160, Note_off_c, 1, 37, 0
2, 110200, Note_on_c, 1, 37, 127
2, 110200, Note_on_c, 1, 66, 127
2, 110200, Note_on_c, 1, 70, 127
2, 110200, Note_on_c, 1, 73, 127
2, 110480, Note_off_c, 1, 37, 0
2, 110480, Note_off_c, 1, 66, 0
2, 110480, Note_off_c, 1, 70, 0
2, 110480, Note_off_c, 1, 73, 0
2, 110520, Note_on_c, 1, 58, 127
2, 110520, Note_on_c, 1, 80, 127
2, 110520, Note_on_c, 1, 84, 127
2, 110520, Note_on_c, 1, 87, 127
2, 110800, Note_on_c, 1, 41, 127
2, 110800, Note_on_c, 1, 56, 127
2, 110800, Note_off_c, 1, 58, 0
2, 110800, Note_on_c, 1, 61, 127
2, 110800, Note_off_c, 1, 80, 0
2, 110800, Note_off_c, 1, 84, 0
2, 110800, Note_off_c, 1, 87, 0
2, 110840, Note_off_c, 1, 41, 0
2, 110840, Note_off_c, 1, 56, 0
2, 110840, Note_off_c, 1, 61, 0
2, 110880, Note_on_c, 1, 52, 127
2, 110880, Note_on_c, 1, 55, 127
2, 110880, Note_on_c, 1, 58, 127
2, 110880, Note_on_c, 1, 61, 127
2, 110880, Note_on_c, 1, 64, 127
2, 111160, Note_off_c, 1, 52, 0
2, 111160, Note_off_c, 1, 55, 0
2, 111160, Note_off_c, 1, 58, 0
2, 111160, Note_off_c, 1, 61, 0
2, 111160, Note_off_c, 1, 64, 0
2, 111200, Note_on_c, 1, 51, 127
2, 111200, Note_on_c, 1, 55, 127
2, 111200, Note_on_c, 1, 58, 127
2, 111200, Note_on_c, 1, 61, 127
2, 111200, Note_on_c, 1, 63, 127
2, 111320, Note_off_c, 1, 51, 0
2, 111320, Note_off_c, 1, 55, 0
2, 111320, Note_off_c, 1, 58, 0
2, 111320, Note_off_c, 1, 61, 0
2, 111320, Note_off_c, 1, 63, 0
2, 111360, Note_on_c, 1, 51, 127
2, 111360, Note_on_c, 1, 55, 127
2, 111360, Note_on_c, 1, 58, 127
2, 111360, Note_on_c, 1, 61, 127
2, 111360, Note_on_c, 1, 63, 127
2, 111520, Note_off_c, 1, 51, 0
2, 111520, Note_off_c, 1, 55, 0
2, 111520, Note_off_c, 1, 58, 0
2, 111520, Note_off_c, 1, 61, 0
2, 111520, Note_off_c, 1, 63, 0
2, 111600, Note_on_c, 1, 51, 127
2, 111600, Note_on_c, 1, 55, 127
2, 111600, Note_on_c, 1, 58, 127
2, 111600, Note_on_c, 1, 61, 127
2, 111600, Note_on_c, 1, 63, 127
2, 111880, Note_off_c, 1, 51, 0
2, 111880, Note_off_c, 1, 55, 0
2, 111880, Note_off_c, 1, 58, 0
2, 111880, Note_off_c, 1, 61, 0
2, 111880, Note_off_c, 1, 63, 0
2, 111920, Note_on_c, 1, 51, 127
2, 111920, Note_on_c, 1, 55, 127
2, 111920, Note_on_c, 1, 58, 127
2, 111920, Note_on_c, 1, 61, 127
2, 111920, Note_on_c, 1, 63, 127
2, 112200, Note_on_c, 1, 43, 127
2, 112200, Note_off_c, 1, 51, 0
2, 112200, Note_off_c, 1, 55, 0
2, 112200, Note_off_c, 1, 58, 0
2, 112200, Note_off_c, 1, 61, 0
2, 112200, Note_off_c, 1, 63, 0
2, 112200, Note_on_c, 1, 72, 127
2, 112200, Note_on_c, 1, 78, 127
2, 112200, Note_on_c, 1, 81, 127
2, 112200, Note_on_c, 1, 86, 127
2, 112240, Note_off_c, 1, 43, 0
2, 112240, Note_off_c, 1, 72, 0
2, 112240, Note_off_c, 1, 78, 0
2, 112240, Note_off_c, 1, 81, 0
2, 112240, Note_off_c, 1, 86, 0
2, 112280, Note_on_c, 1, 51, 127
2, 112280, Note_on_c, 1, 55, 127
2, 112280, Note_on_c, 1, 58, 127
2, 112280, Note_on_c, 1, 61, 127
2, 112280, Note_on_c, 1, 63, 127
2, 112600, Note_off_c, 1, 51, 0
2, 112600, Note_off_c, 1, 55, 0
2, 112600, Note_off_c, 1, 58, 0
2, 112600, Note_off_c, 1, 61, 0
2, 112600, Note_off_c, 1, 63, 0
2, 112640, Note_on_c, 1, 36, 127
2, 112640, Note_on_c, 1, 39, 127
2, 112640, Note_on_c, 1, 44, 127
2, 112640, Note_on_c, 1, 48, 127
2, 112640, Note_on_c, 1, 60, 127
2, 112640, Note_on_c, 1, 63, 127
2, 112640, Note_on_c, 1, 68, 127
2, 112640, Note_on_c, 1, 72, 127
2, 112920, Note_off_c, 1, 36, 0
2, 112920, Note_off_c, 1, 39, 0
2, 112920, Note_off_c, 1, 44, 0
2, 112920, Note_off_c, 1, 48, 0
2, 112920, Note_off_c, 1, 60, 0
2, 112920, Note_off_c, 1, 63, 0
2, 112920, Note_off_c, 1, 68, 0
2, 112920, Note_off_c, 1, 72, 0
2, 113000, Note_on_c, 1, 63, 127
2, 113000, Note_on_c, 1, 67, 127
2, 113000, Note_on_c, 1, 77, 127
2, 113000, Note_on_c, 1, 89, 127
2, 113040, Note_on_c, 1, 52, 127
2, 113040, Note_on_c, 1, 55, 127
2, 113040, Note_on_c, 1, 61, 127
2, 113040, Note_off_c, 1, 63, 0
2, 113040, Note_off_c, 1, 67, 0
2, 113040, Note_off_c, 1, 77, 0
2, 113040, Note_on_c, 1, 79, 127
2, 113040, Note_on_c, 1, 85, 127
2, 113040, Note_on_c, 1, 88, 127
2, 113040, Note_off_c, 1, 89, 0
2, 113080, Note_on_c, 1, 51, 127
2, 113080, Note_off_c, 1, 52, 0
2, 113080, Note_off_c, 1, 55, 0
2, 113080, Note_on_c, 1, 56, 127
2, 113080, Note_on_c, 1, 59, 127
2, 113080, Note_off_c, 1, 61, 0
2, 113080, Note_on_c, 1, 64, 127
2, 113080, Note_on_c, 1, 68, 127
2, 113080, Note_on_c, 1, 76, 127
2, 113080, Note_off_c, 1, 79, 0
2, 113080, Note_off_c, 1, 85, 0
2, 113080, Note_off_c, 1, 88, 0
2, 113120, Note_on_c, 1, 45, 127
2, 113120, Note_off_c, 1, 51, 0
2, 113120, Note_on_c, 1, 52, 127
2, 113120, Note_on_c, 1, 55, 127
2, 113120, Note_off_c, 1, 56, 0
2, 113120, Note_off_c, 1, 59, 0
2, 113120, Note_off_c, 1, 68, 0
2, 113120, Note_on_c, 1, 70, 127
2, 113120, Note_on_c, 1, 74, 127
2, 113160, Note_off_c, 1, 45, 0
2, 113160, Note_off_c, 1, 52, 0
2, 113160, Note_off_c, 1, 55, 0
2, 113160, Note_on_c, 1, 57, 127
2, 113160, Note_on_c, 1, 61, 127
2, 113160, Note_off_c, 1, 64, 0
2, 113160, Note_on_c, 1, 69, 127
2, 113160, Note_off_c, 1, 70, 0
2, 113160, Note_off_c, 1, 74, 0
2, 113160, Note_off_c, 1, 76, 0
2, 113160, Note_on_c, 1, 77, 127
2, 113160, Note_on_c, 1, 85, 127
2, 113200, Note_on_c, 1, 43, 127
2, 113200, Note_on_c, 1, 55, 127
2, 113200, Note_off_c, 1, 57, 0
2, 113200, Note_on_c, 1, 60, 127
2, 113200, Note_off_c, 1, 61, 0
2, 113200, Note_on_c, 1, 64, 127
2, 113200, Note_on_c, 1, 72, 127
2, 113200, Note_off_c, 1, 77, 0
2, 113200, Note_off_c, 1, 85, 0
2, 113240, Note_on_c, 1, 38, 127
2, 113240, Note_off_c, 1, 43, 0
2, 113240, Note_on_c, 1, 45, 127
2, 113240, Note_off_c, 1, 55, 0
2, 113240, Note_off_c, 1, 60, 0
2, 113240, Note_off_c, 1, 64, 0
2, 113240, Note_on_c, 1, 66, 127
2, 113240, Note_off_c, 1, 69, 0
2, 113240, Note_on_c, 1, 70, 127
2, 113240, Note_off_c, 1, 72, 0
2, 113280, Note_off_c, 1, 38, 0
2, 113280, Note_off_c, 1, 45, 0
2, 113280, Note_off_c, 1, 66, 0
2, 113280, Note_off_c, 1, 70, 0
2, 113360, Note_on_c, 1, 45, 127
2, 113360, Note_on_c, 1, 57, 127
2, 113360, Note_on_c, 1, 60, 127
2, 113360, Note_on_c, 1, 65, 127
2, 113360, Note_on_c, 1, 69, 127
2, 113600, Note_off_c, 1, 45, 0
2, 113600, Note_off_c, 1, 57, 0
2, 113600, Note_off_c, 1, 60, 0
2, 113600, Note_off_c, 1, 65, 0
2, 113600, Note_off_c, 1, 69, 0
2, 113640, Note_on_c, 1, 45, 127
2, 113640, Note_on_c, 1, 57, 127
2, 113640, Note_on_c, 1, 60, 127
2, 113640, Note_on_c, 1, 65, 127
2, 113640, Note_on_c, 1, 69, 127
2, 113880, Note_off_c, 1, 45, 0
2, 113920, Note_on_c, 1, 45, 127
2, 114040, Note_on_c, 1, 41, 127
2, 114040, Note_off_c, 1, 45, 0
2, 114040, Note_off_c, 1, 57, 0
2, 114040, Note_off_c, 1, 60, 0
2, 114040, Note_off_c, 1, 65, 0
2, 114040, Note_off_c, 1, 69, 0
2, 114040, Note_on_c, 1, 70, 127
2, 114040, Note_on_c, 1, 72, 127
2, 114080, Note_off_c, 1, 41, 0
2, 114080, Note_on_c, 1, 45, 127
2, 114080, Note_on_c, 1, 57, 127
2, 114080, Note_on_c, 1, 60, 127
2, 114080, Note_on_c, 1, 65, 127
2, 114080, Note_on_c, 1, 69, 127
2, 114080, Note_off_c, 1, 70, 0
2, 114080, Note_off_c, 1, 72, 0
2, 114360, Note_off_c, 1, 45, 0
2, 114360, Note_off_c, 1, 57, 0
2, 114360, Note_off_c, 1, 60, 0
2, 114360, Note_off_c, 1, 65, 0
2, 114360, Note_off_c, 1, 69, 0
2, 114400, Note_on_c, 1, 57, 127
2, 114400, Note_on_c, 1, 60, 127
2, 114400, Note_on_c, 1, 65, 127
2, 114400, Note_on_c, 1, 69, 127
2, 114680, Note_off_c, 1, 57, 0
2, 114680, Note_off_c, 1, 60, 0
2, 114680, Note_off_c, 1, 65, 0
2, 114680, Note_off_c, 1, 69, 0
2, 114760, Note_on_c, 1, 53, 127
2, 114760, Note_on_c, 1, 60, 127
2, 114760, Note_on_c, 1, 65, 127
2, 114760, Note_on_c, 1, 70, 127
2, 115040, Note_off_c, 1, 60, 0
2, 115040, Note_off_c, 1, 65, 0
2, 115040, Note_off_c, 1, 70, 0
2, 115080, Note_on_c, 1, 52, 127
2, 115080, Note_off_c, 1, 53, 0
2, 115080, Note_on_c, 1, 65, 127
2, 115080, Note_on_c, 1, 69, 127
2, 115080, Note_on_c, 1, 73, 127
2, 115200, Note_off_c, 1, 52, 0
2, 115200, Note_off_c, 1, 65, 0
2, 115200, Note_off_c, 1, 69, 0
2, 115200, Note_on_c, 1, 70, 127
2, 115200, Note_off_c, 1, 73, 0
2, 115200, Note_on_c, 1, 74, 127
2, 115200, Note_on_c, 1, 79, 127
2, 115200, Note_on_c, 1, 82, 127
2, 115200, Note_on_c, 1, 86, 127
2, 115200, Note_on_c, 1, 91, 127
2, 115240, Note_on_c, 1, 52, 127
2, 115240, Note_on_c, 1, 65, 127
2, 115240, Note_on_c, 1, 69, 127
2, 115240, Note_off_c, 1, 70, 0
2, 115240, Note_on_c, 1, 73, 127
2, 115240, Note_off_c, 1, 74, 0
2, 115240, Note_off_c, 1, 79, 0
2, 115240, Note_off_c, 1, 82, 0
2, 115240, Note_off_c, 1, 86, 0
2, 115240, Note_off_c, 1, 91, 0
2, 115400, Note_off_c, 1, 52, 0
2, 115400, Note_off_c, 1, 65, 0
2, 115400, Note_off_c, 1, 69, 0
2, 115400, Note_off_c, 1, 73, 0
2, 115440, Note_on_c, 1, 48, 127
2, 115440, Note_on_c, 1, 60, 127
2, 115440, Note_on_c, 1, 65, 127
2, 115440, Note_on_c, 1, 69, 127
2, 115680, Note_off_c, 1, 48, 0
2, 115680, Note_off_c, 1, 60, 0
2, 115680, Note_off_c, 1, 65, 0
2, 115680, Note_off_c, 1, 69, 0
2, 115720, Note_on_c, 1, 48, 127
2, 115720, Note_on_c, 1, 60, 127
2, 115720, Note_on_c, 1, 65, 127
2, 115720, Note_on_c, 1, 69, 127
2, 115760, Note_off_c, 1, 48, 0
2, 115760, Note_off_c, 1, 60, 0
2, 115760, Note_off_c, 1, 69, 0
2, 115800, Note_on_c, 1, 47, 127
2, 115800, Note_on_c, 1, 62, 127
2, 116080, Note_on_c, 1, 35, 127
2, 116080, Note_off_c, 1, 47, 0
2, 116080, Note_off_c, 1, 62, 0
2, 116080, Note_off_c, 1, 65, 0
2, 116080, Note_on_c, 1, 66, 127
2, 116080, Note_on_c, 1, 71, 127
2, 116080, Note_on_c, 1, 75, 127
2, 116120, Note_off_c, 1, 35, 0
2, 116120, Note_off_c, 1, 66, 0
2, 116120, Note_off_c, 1, 71, 0
2, 116120, Note_off_c, 1, 75, 0
2, 116160, Note_on_c, 1, 45, 127
2, 116160, Note_on_c, 1, 60, 127
2, 116160, Note_on_c, 1, 65, 127
2, 116440, Note_on_c, 1, 38, 127
2, 116440, Note_off_c, 1, 45, 0
2, 116440, Note_on_c, 1, 50, 127
2, 116440, Note_on_c, 1, 55, 127
2, 116440, Note_on_c, 1, 59, 127
2, 116440, Note_off_c, 1, 60, 0
2, 116440, Note_on_c, 1, 62, 127
2, 116440, Note_off_c, 1, 65, 0
2, 116440, Note_on_c, 1, 67, 127
2, 116440, Note_on_c, 1, 71, 127
2, 116440, Note_on_c, 1, 74, 127
2, 116440, Note_on_c, 1, 79, 127
2, 116480, Note_off_c, 1, 38, 0
2, 116480, Note_on_c, 1, 45, 127
2, 116480, Note_off_c, 1, 50, 0
2, 116480, Note_off_c, 1, 55, 0
2, 116480, Note_off_c, 1, 59, 0
2, 116480, Note_off_c, 1, 62, 0
2, 116480, Note_on_c, 1, 65, 127
2, 116480, Note_off_c, 1, 67, 0
2, 116480, Note_off_c, 1, 71, 0
2, 116480, Note_off_c, 1, 74, 0
2, 116480, Note_off_c, 1, 79, 0
2, 116520, Note_on_c, 1, 53, 127
2, 116800, Note_off_c, 1, 45, 0
2, 116800, Note_off_c, 1, 53, 0
2, 116800, Note_off_c, 1, 65, 0
2, 116840, Note_on_c, 1, 45, 127
2, 116840, Note_on_c, 1, 53, 127
2, 116840, Note_on_c, 1, 60, 127
2, 117480, Note_off_c, 1, 45, 0
2, 117480, Note_off_c, 1, 53, 0
2, 117480, Note_off_c, 1, 60, 0
2, 117520, Note_on_c, 1, 53, 127
2, 117520, Note_on_c, 1, 60, 127
2, 117520, Note_on_c, 1, 63, 127
2, 117520, Note_on_c, 1, 69, 127
2, 117520, Note_on_c, 1, 75, 127
2, 117520, Note_on_c, 1, 81, 127
2, 117720, Note_off_c, 1, 53, 0
2, 117720, Note_off_c, 1, 60, 0
2, 117720, Note_off_c, 1, 63, 0
2, 117720, Note_off_c, 1, 69, 0
2, 117720, Note_off_c, 1, 75, 0
2, 117720, Note_off_c, 1, 81, 0
2, 117760, Note_on_c, 1, 53, 127
2, 117760, Note_on_c, 1, 60, 127
2, 117760, Note_on_c, 1, 63, 127
2, 117760, Note_on_c, 1, 69, 127
2, 117760, Note_on_c, 1, 75, 127
2, 117760, Note_on_c, 1, 81, 127
2, 117880, Note_off_c, 1, 53, 0
2, 117880, Note_off_c, 1, 63, 0
2, 117880, Note_on_c, 1, 65, 127
2, 117880, Note_off_c, 1, 75, 0
2, 117880, Note_off_c, 1, 81, 0
2, 117920, Note_on_c, 1, 53, 127
2, 117920, Note_on_c, 1, 63, 127
2, 117920, Note_off_c, 1, 65, 0
2, 117920, Note_on_c, 1, 75, 127
2, 117920, Note_on_c, 1, 81, 127
2, 118240, Note_off_c, 1, 53, 0
2, 118240, Note_off_c, 1, 60, 0
2, 118240, Note_off_c, 1, 63, 0
2, 118240, Note_off_c, 1, 69, 0
2, 118240, Note_off_c, 1, 75, 0
2, 118240, Note_off_c, 1, 81, 0
2, 118280, Note_on_c, 1, 51, 127
2, 118280, Note_on_c, 1, 53, 127
2, 118280, Note_on_c, 1, 57, 127
2, 118280, Note_on_c, 1, 73, 127
2, 118400, Note_off_c, 1, 73, 0
2, 118440, Note_on_c, 1, 73, 127
2, 118560, Note_off_c, 1, 51, 0
2, 118560, Note_off_c, 1, 53, 0
2, 118560, Note_off_c, 1, 57, 0
2, 118560, Note_off_c, 1, 73, 0
2, 118600, Note_on_c, 1, 53, 127
2, 118600, Note_on_c, 1, 57, 127
2, 118600, Note_on_c, 1, 60, 127
2, 118600, Note_on_c, 1, 65, 127
2, 118880, Note_off_c, 1, 57, 0
2, 118880, Note_off_c, 1, 60, 0
2, 118880, Note_off_c, 1, 65, 0
2, 118920, Note_off_c, 1, 53, 0
2, 118960, Note_on_c, 1, 69, 127
2, 118960, Note_on_c, 1, 72, 127
2, 118960, Note_on_c, 1, 77, 127
2, 118960, Note_on_c, 1, 81, 127
2, 118960, Note_on_c, 1, 87, 127
2, 118960, Note_on_c, 1, 96, 127
2, 118960, Note_on_c, 1, 99, 127
2, 119240, Note_on_c, 1, 45, 127
2, 119240, Note_on_c, 1, 54, 127
2, 119240, Note_on_c, 1, 57, 127
2, 119240, Note_on_c, 1, 63, 127
2, 119240, Note_on_c, 1, 66, 127
2, 119240, Note_off_c, 1, 69, 0
2, 119240, Note_off_c, 1, 72, 0
2, 119240, Note_on_c, 1, 75, 127
2, 119240, Note_off_c, 1, 77, 0
2, 119240, Note_off_c, 1, 81, 0
2, 119240, Note_off_c, 1, 87, 0
2, 119240, Note_off_c, 1, 96, 0
2, 119240, Note_off_c, 1, 99, 0
2, 119280, Note_off_c, 1, 45, 0
2, 119280, Note_off_c, 1, 54, 0
2, 119280, Note_off_c, 1, 57, 0
2, 119280, Note_on_c, 1, 62, 127
2, 119280, Note_off_c, 1, 63, 0
2, 119280, Note_on_c, 1, 65, 127
2, 119280, Note_off_c, 1, 66, 0
2, 119280, Note_on_c, 1, 68, 127
2, 119280, Note_on_c, 1, 70, 127
2, 119280, Note_off_c, 1, 75, 0
2, 119280, Note_on_c, 1, 82, 127
2, 119280, Note_on_c, 1, 94, 127
2, 119320, Note_on_c, 1, 52, 127
2, 119320, Note_on_c, 1, 57, 127
2, 119320, Note_on_c, 1, 59, 127
2, 119320, Note_off_c, 1, 62, 0
2, 119320, Note_off_c, 1, 65, 0
2, 119320, Note_on_c, 1, 67, 127
2, 119320, Note_off_c, 1, 68, 0
2, 119320, Note_off_c, 1, 70, 0
2, 119320, Note_off_c, 1, 82, 0
2, 119320, Note_off_c, 1, 94, 0
2, 119360, Note_on_c, 1, 41, 127
2, 119360, Note_on_c, 1, 50, 127
2, 119360, Note_off_c, 1, 52, 0
2, 119360, Note_on_c, 1, 53, 127
2, 119360, Note_off_c, 1, 57, 0
2, 119360, Note_off_c, 1, 59, 0
2, 119360, Note_off_c, 1, 67, 0
2, 119360, Note_on_c, 1, 81, 127
2, 119360, Note_on_c, 1, 86, 127
2, 119400, Note_off_c, 1, 41, 0
2, 119400, Note_off_c, 1, 50, 0
2, 119400, Note_on_c, 1, 52, 127
2, 119400, Note_off_c, 1, 53, 0
2, 119400, Note_on_c, 1, 57, 127
2, 119400, Note_on_c, 1, 59, 127
2, 119400, Note_on_c, 1, 67, 127
2, 119400, Note_off_c, 1, 81, 0
2, 119400, Note_off_c, 1, 86, 0
2, 119440, Note_off_c, 1, 52, 0
2, 119440, Note_on_c, 1, 55, 127
2, 119440, Note_off_c, 1, 57, 0
2, 119440, Note_off_c, 1, 59, 0
2, 119440, Note_on_c, 1, 60, 127
2, 119440, Note_on_c, 1, 64, 127
2, 119440, Note_on_c, 1, 76, 127
2, 119440, Note_on_c, 1, 79, 127
2, 119480, Note_off_c, 1, 55, 0
2, 119480, Note_off_c, 1, 60, 0
2, 119480, Note_off_c, 1, 64, 0
2, 119480, Note_on_c, 1, 65, 127
2, 119480, Note_off_c, 1, 67, 0
2, 119480, Note_on_c, 1, 68, 127
2, 119480, Note_off_c, 1, 76, 0
2, 119480, Note_on_c, 1, 87, 127
2, 119480, Note_on_c, 1, 91, 127
2, 119520, Note_off_c, 1, 68, 0
2, 119520, Note_on_c, 1, 74, 127
2, 119520, Note_off_c, 1, 79, 0
2, 119520, Note_off_c, 1, 87, 0
2, 119520, Note_off_c, 1, 91, 0
2, 119560, Note_on_c, 1, 34, 127
2, 119560, Note_on_c, 1, 55, 127
2, 119560, Note_on_c, 1, 58, 127
2, 119560, Note_on_c, 1, 63, 127
2, 119560, Note_off_c, 1, 65, 0
2, 119560, Note_on_c, 1, 67, 127
2, 119560, Note_on_c, 1, 70, 127
2, 119560, Note_off_c, 1, 74, 0
2, 119560, Note_on_c, 1, 75, 127
2, 119560, Note_on_c, 1, 79, 127
2, 119600, Note_off_c, 1, 34, 0
2, 119600, Note_off_c, 1, 55, 0
2, 119600, Note_off_c, 1, 58, 0
2, 119600, Note_off_c, 1, 63, 0
2, 119600, Note_off_c, 1, 67, 0
2, 119600, Note_off_c, 1, 70, 0
2, 119600, Note_off_c, 1, 75, 0
2, 119600, Note_off_c, 1, 79, 0
2, 119640, Note_on_c, 1, 44, 127
2, 119640, Note_on_c, 1, 48, 127
2, 119640, Note_on_c, 1, 65, 127
2, 119640, Note_on_c, 1, 72, 127
2, 119680, Note_on_c, 1, 31, 127
2, 119680, Note_on_c, 1, 43, 127
2, 119680, Note_off_c, 1, 44, 0
2, 119680, Note_off_c, 1, 48, 0
2, 119680, Note_on_c, 1, 62, 127
2, 119680, Note_off_c, 1, 65, 0
2, 119680, Note_on_c, 1, 67, 127
2, 119680, Note_on_c, 1, 71, 127
2, 119680, Note_off_c, 1, 72, 0
2, 119720, Note_off_c, 1, 31, 0
2, 119720, Note_off_c, 1, 43, 0
2, 119720, Note_off_c, 1, 62, 0
2, 119720, Note_off_c, 1, 67, 0
2, 119720, Note_off_c, 1, 71, 0
2, 119760, Note_on_c, 1, 48, 127
2, 119760, Note_on_c, 1, 52, 127
2, 119760, Note_on_c, 1, 58, 127
2, 119760, Note_on_c, 1, 62, 127
2, 119800, Note_off_c, 1, 48, 0
2, 119800, Note_off_c, 1, 52, 0
2, 119800, Note_off_c, 1, 58, 0
2, 119800, Note_off_c, 1, 62, 0
2, 119800, Note_on_c, 1, 72, 127
2, 119800, Note_on_c, 1, 77, 127
2, 119800, Note_on_c, 1, 89, 127
2, 119800, Note_on_c, 1, 93, 127
2, 119840, Note_on_c, 1, 29, 127
2, 119840, Note_on_c, 1, 41, 127
2, 119840, Note_on_c, 1, 65, 127
2, 119840, Note_off_c, 1, 72, 0
2, 119840, Note_on_c, 1, 73, 127
2, 119840, Note_off_c, 1, 77, 0
2, 119840, Note_off_c, 1, 89, 0
2, 119840, Note_off_c, 1, 93, 0
2, 119880, Note_off_c, 1, 29, 0
2, 119880, Note_on_c, 1, 31, 127
2, 119880, Note_off_c, 1, 41, 0
2, 119880, Note_on_c, 1, 43, 127
2, 119880, Note_on_c, 1, 69, 127
2, 119880, Note_off_c, 1, 73, 0
2, 119920, Note_off_c, 1, 31, 0
2, 119920, Note_on_c, 1, 42, 127
2, 119920, Note_off_c, 1, 43, 0
2, 119920, Note_on_c, 1, 46, 127
2, 119920, Note_on_c, 1, 48, 127
2, 119920, Note_on_c, 1, 60, 127
2, 119920, Note_off_c, 1, 65, 0
2, 119920, Note_off_c, 1, 69, 0
2, 119920, Note_on_c, 1, 72, 127
2, 119960, Note_off_c, 1, 42, 0
2, 119960, Note_off_c, 1, 46, 0
2, 119960, Note_off_c, 1, 48, 0
2, 119960, Note_off_c, 1, 60, 0
2, 119960, Note_off_c, 1, 72, 0
2, 120040, End_track
3, 0, Start_track
3, 0, Title_t, "MIDI"
3, 1536, End_track
0, 0, End_of_file
