0, 0, Header, 1, 3, 192
1, 0, Start_track
1, 0, Time_signature, 4, 2, 24, 8
1, 0, Tempo, 500000
1, 120040, End_track
2, 0, Start_track
2, 0, Text_t, "random instrument: random person i dunno whatev"
2, 0, Title_t, "Track 1"
2, 0, Note_on_c, 1, 40, 127
2, 0, Note_on_c, 1, 48, 127
2, 0, Note_on_c, 1, 56, 127
2, 0, Note_on_c, 1, 60, 127
2, 160, Note_off_c, 1, 40, 0
2, 160, Note_off_c, 1, 48, 0
2, 160, Note_off_c, 1, 56, 0
2, 160, Note_off_c, 1, 60, 0
2, 200, Note_on_c, 1, 35, 127
2, 200, Note_on_c, 1, 39, 127
2, 200, Note_on_c, 1, 47, 127
2, 200, Note_on_c, 1, 50, 127
2, 240, Note_off_c, 1, 35, 0
2, 240, Note_off_c, 1, 39, 0
2, 240, Note_off_c, 1, 47, 0
2, 240, Note_off_c, 1, 50, 0
2, 520, Note_on_c, 1, 42, 127
2, 520, Note_on_c, 1, 46, 127
2, 520, Note_on_c, 1, 49, 127
2, 520, Note_on_c, 1, 54, 127
2, 520, Note_on_c, 1, 66, 127
2, 520, Note_on_c, 1, 70, 127
2, 520, Note_on_c, 1, 73, 127
2, 520, Note_on_c, 1, 78, 127
2, 560, Note_off_c, 1, 42, 0
2, 560, Note_off_c, 1, 46, 0
2, 560, Note_off_c, 1, 49, 0
2, 560, Note_off_c, 1, 54, 0
2, 560, Note_off_c, 1, 66, 0
2, 560, Note_off_c, 1, 70, 0
2, 560, Note_off_c, 1, 73, 0
2, 560, Note_off_c, 1, 78, 0
2, 1440, Note_on_c, 1, 44, 127
2, 1440, Note_on_c, 1, 56, 127
2, 1440, Note_on_c, 1, 72, 127
2, 1440, Note_on_c, 1, 80, 127
2, 2000, Note_off_c, 1, 44, 0
2, 2000, Note_off_c, 1, 56, 0
2, 2000, Note_off_c, 1, 72, 0
2, 2000, Note_off_c, 1, 80, 0
2, 2040, Note_on_c, 1, 44, 127
2, 2040, Note_on_c, 1, 56, 127
2, 2040, Note_on_c, 1, 72, 127
2, 2040, Note_on_c, 1, 80, 127
2, 2560, Note_off_c, 1, 72, 0
2, 2560, Note_off_c, 1, 80, 0
2, 2600, Note_on_c, 1, 72, 127
2, 2600, Note_on_c, 1, 80, 127
2, 2800, Note_off_c, 1, 44, 0
2, 2800, Note_off_c, 1, 56, 0
2, 2800, Note_off_c, 1, 72, 0
2, 2800, Note_off_c, 1, 80, 0
2, 2840, Note_on_c, 1, 44, 127
2, 2840, Note_on_c, 1, 56, 127
2, 2840, Note_on_c, 1, 72, 127
2, 2840, Note_on_c, 1, 80, 127
2, 3000, Note_off_c, 1, 72, 0
2, 3000, Note_off_c, 1, 80, 0
2, 3760, Note_off_c, 1, 44, 0
2, 3760, Note_off_c, 1, 56, 0
2, 3800, Note_on_c, 1, 44, 127
2, 3800, Note_on_c, 1, 56, 127
2, 4880, Note_off_c, 1, 44, 0
2, 4880, Note_off_c, 1, 56, 0
2, 6200, Note_on_c, 1, 42, 127
2, 6200, Note_on_c, 1, 52, 127
2, 6200, Note_on_c, 1, 59, 127
2, 6200, Note_on_c, 1, 64, 127
2, 6240, Note_on_c, 1, 40, 127
2, 6240, Note_off_c, 1, 42, 0
2, 6240, Note_off_c, 1, 59, 0
2, 6240, Note_off_c, 1, 64, 0
2, 6240, Note_on_c, 1, 72, 127
2, 6240, Note_on_c, 1, 79, 127
2, 6240, Note_on_c, 1, 82, 127
2, 6280, Note_off_c, 1, 40, 0
2, 6280, Note_off_c, 1, 52, 0
2, 6280, Note_off_c, 1, 72, 0
2, 6280, Note_off_c, 1, 79, 0
2, 6280, Note_off_c, 1, 82, 0
2, 6320, Note_on_c, 1, 48, 127
2, 6320, Note_on_c, 1, 53, 127
2, 6320, Note_on_c, 1, 60, 127
2, 6320, Note_on_c, 1, 81, 127
2, 6320, Note_on_c, 1, 84, 127
2, 6320, Note_on_c, 1, 89, 127
2, 6320, Note_on_c, 1, 93, 127
2, 6400, Note_off_c, 1, 48, 0
2, 6400, Note_off_c, 1, 53, 0
2, 6400, Note_off_c, 1, 60, 0
2, 6400, Note_off_c, 1, 81, 0
2, 6400, Note_off_c, 1, 84, 0
2, 6400, Note_off_c, 1, 89, 0
2, 6400, Note_off_c, 1, 93, 0
2, 6440, Note_on_c, 1, 33, 127
2, 6440, Note_on_c, 1, 37, 127
2, 6440, Note_on_c, 1, 39, 127
2, 6440, Note_on_c, 1, 45, 127
2, 6440, Note_on_c, 1, 90, 127
2, 6440, Note_on_c, 1, 97, 127
2, 6440, Note_on_c, 1, 99, 127
2, 6440, Note_on_c, 1, 102, 127
2, 6480, Note_off_c, 1, 33, 0
2, 6480, Note_off_c, 1, 37, 0
2, 6480, Note_off_c, 1, 39, 0
2, 6480, Note_off_c, 1, 45, 0
2, 6480, Note_off_c, 1, 90, 0
2, 6480, Note_off_c, 1, 97, 0
2, 6480, Note_off_c, 1, 99, 0
2, 6480, Note_off_c, 1, 102, 0
2, 6560, Note_on_c, 1, 48, 127
2, 6560, Note_on_c, 1, 82, 127
2, 6560, Note_on_c, 1, 91, 127
2, 6560, Note_on_c, 1, 94, 127
2, 6640, Note_off_c, 1, 48, 0
2, 6640, Note_off_c, 1, 82, 0
2, 6640, Note_off_c, 1, 91, 0
2, 6640, Note_off_c, 1, 94, 0
2, 6680, Note_on_c, 1, 48, 127
2, 6680, Note_on_c, 1, 82, 127
2, 6680, Note_on_c, 1, 91, 127
2, 6680, Note_on_c, 1, 94, 127
2, 6720, Note_off_c, 1, 48, 0
2, 6720, Note_off_c, 1, 82, 0
2, 6720, Note_off_c, 1, 91, 0
2, 6720, Note_off_c, 1, 94, 0
2, 6800, Note_on_c, 1, 43, 127
2, 6800, Note_on_c, 1, 82, 127
2, 6800, Note_on_c, 1, 91, 127
2, 6800, Note_on_c, 1, 94, 127
2, 6840, Note_off_c, 1, 43, 0
2, 6840, Note_on_c, 1, 48, 127
2, 6880, Note_off_c, 1, 48, 0
2, 6880, Note_off_c, 1, 82, 0
2, 6880, Note_off_c, 1, 91, 0
2, 6880, Note_off_c, 1, 94, 0
2, 6960, Note_on_c, 1, 41, 127
2, 6960, Note_on_c, 1, 82, 127
2, 6960, Note_on_c, 1, 91, 127
2, 6960, Note_on_c, 1, 94, 127
2, 7040, Note_off_c, 1, 41, 0
2, 7040, Note_off_c, 1, 82, 0
2, 7040, Note_off_c, 1, 91, 0
2, 7040, Note_off_c, 1, 94, 0
2, 7080, Note_on_c, 1, 41, 127
2, 7080, Note_on_c, 1, 82, 127
2, 7080, Note_on_c, 1, 91, 127
2, 7080, Note_on_c, 1, 94, 127
2, 7200, Note_off_c, 1, 41, 0
2, 7200, Note_off_c, 1, 82, 0
2, 7200, Note_off_c, 1, 91, 0
2, 7200, Note_off_c, 1, 94, 0
2, 7240, Note_on_c, 1, 41, 127
2, 7240, Note_on_c, 1, 82, 127
2, 7240, Note_on_c, 1, 91, 127
2, 7240, Note_on_c, 1, 94, 127
2, 7320, Note_off_c, 1, 41, 0
2, 7320, Note_off_c, 1, 82, 0
2, 7320, Note_off_c, 1, 91, 0
2, 7320, Note_off_c, 1, 94, 0
2, 7360, Note_on_c, 1, 41, 127
2, 7360, Note_on_c, 1, 82, 127
2, 7360, Note_on_c, 1, 91, 127
2, 7360, Note_on_c, 1, 94, 127
2, 7560, Note_off_c, 1, 82, 0
2, 7560, Note_off_c, 1, 91, 0
2, 7560, Note_off_c, 1, 94, 0
2, 7600, Note_off_c, 1, 41, 0
2, 7640, Note_on_c, 1, 41, 127
2, 7640, Note_on_c, 1, 82, 127
2, 7640, Note_on_c, 1, 91, 127
2, 7640, Note_on_c, 1, 94, 127
2, 7760, Note_off_c, 1, 41, 0
2, 7760, Note_off_c, 1, 82, 0
2, 7760, Note_off_c, 1, 91, 0
2, 7760, Note_off_c, 1, 94, 0
2, 7800, Note_on_c, 1, 41, 127
2, 7920, Note_on_c, 1, 72, 127
2, 7920, Note_on_c, 1, 76, 127
2, 8000, Note_off_c, 1, 72, 0
2, 8000, Note_off_c, 1, 76, 0
2, 8040, Note_on_c, 1, 72, 127
2, 8040, Note_on_c, 1, 76, 127
2, 8080, Note_off_c, 1, 72, 0
2, 8080, Note_off_c, 1, 76, 0
2, 8160, Note_off_c, 1, 41, 0
2, 8200, Note_on_c, 1, 38, 127
2, 8240, Note_on_c, 1, 36, 127
2, 8240, Note_off_c, 1, 38, 0
2, 8280, Note_off_c, 1, 36, 0
2, 8320, Note_on_c, 1, 41, 127
2, 8400, Note_off_c, 1, 41, 0
2, 8400, Note_on_c, 1, 48, 127
2, 8440, Note_off_c, 1, 48, 0
2, 8440, Note_on_c, 1, 81, 127
2, 8440, Note_on_c, 1, 84, 127
2, 8440, Note_on_c, 1, 88, 127
2, 8520, Note_off_c, 1, 81, 0
2, 8560, Note_off_c, 1, 84, 0
2, 8560, Note_off_c, 1, 88, 0
2, 8600, Note_on_c, 1, 81, 127
2, 8600, Note_on_c, 1, 84, 127
2, 8600, Note_on_c, 1, 88, 127
2, 8640, Note_off_c, 1, 81, 0
2, 8640, Note_off_c, 1, 84, 0
2, 8640, Note_off_c, 1, 88, 0
2, 8720, Note_on_c, 1, 81, 127
2, 8720, Note_on_c, 1, 84, 127
2, 8720, Note_on_c, 1, 88, 127
2, 8760, Note_off_c, 1, 81, 0
2, 8760, Note_off_c, 1, 84, 0
2, 8760, Note_off_c, 1, 88, 0
2, 8880, Note_on_c, 1, 62, 127
2, 8880, Note_on_c, 1, 77, 127
2, 8880, Note_on_c, 1, 81, 127
2, 8880, Note_on_c, 1, 86, 127
2, 8960, Note_off_c, 1, 62, 0
2, 8960, Note_off_c, 1, 77, 0
2, 8960, Note_off_c, 1, 81, 0
2, 8960, Note_off_c, 1, 86, 0
2, 9000, Note_on_c, 1, 62, 127
2, 9000, Note_on_c, 1, 77, 127
2, 9000, Note_on_c, 1, 81, 127
2, 9000, Note_on_c, 1, 86, 127
2, 9120, Note_off_c, 1, 62, 0
2, 9120, Note_off_c, 1, 77, 0
2, 9120, Note_off_c, 1, 81, 0
2, 9120, Note_off_c, 1, 86, 0
2, 9160, Note_on_c, 1, 62, 127
2, 9160, Note_on_c, 1, 77, 127
2, 9160, Note_on_c, 1, 81, 127
2, 9160, Note_on_c, 1, 86, 127
2, 9240, Note_off_c, 1, 62, 0
2, 9240, Note_off_c, 1, 77, 0
2, 9240, Note_off_c, 1, 81, 0
2, 9240, Note_off_c, 1, 86, 0
2, 9280, Note_on_c, 1, 62, 127
2, 9280, Note_on_c, 1, 77, 127
2, 9280, Note_on_c, 1, 81, 127
2, 9280, Note_on_c, 1, 86, 127
2, 9360, Note_off_c, 1, 62, 0
2, 9360, Note_off_c, 1, 77, 0
2, 9360, Note_off_c, 1, 81, 0
2, 9360, Note_off_c, 1, 86, 0
2, 9400, Note_on_c, 1, 62, 127
2, 9400, Note_on_c, 1, 77, 127
2, 9400, Note_on_c, 1, 81, 127
2, 9400, Note_on_c, 1, 86, 127
2, 9520, Note_off_c, 1, 62, 0
2, 9520, Note_off_c, 1, 77, 0
2, 9520, Note_off_c, 1, 81, 0
2, 9520, Note_off_c, 1, 86, 0
2, 9560, Note_on_c, 1, 71, 127
2, 9560, Note_on_c, 1, 77, 127
2, 9560, Note_on_c, 1, 81, 127
2, 9560, Note_on_c, 1, 86, 127
2, 9640, Note_off_c, 1, 71, 0
2, 9640, Note_off_c, 1, 77, 0
2, 9640, Note_off_c, 1, 81, 0
2, 9640, Note_off_c, 1, 86, 0
2, 9680, Note_on_c, 1, 71, 127
2, 9680, Note_on_c, 1, 77, 127
2, 9680, Note_on_c, 1, 81, 127
2, 9680, Note_on_c, 1, 86, 127
2, 9720, Note_off_c, 1, 71, 0
2, 9720, Note_off_c, 1, 77, 0
2, 9720, Note_off_c, 1, 81, 0
2, 9720, Note_off_c, 1, 86, 0
2, 9800, Note_on_c, 1, 71, 127
2, 9800, Note_on_c, 1, 77, 127
2, 9800, Note_on_c, 1, 81, 127
2, 9800, Note_on_c, 1, 86, 127
2, 9840, Note_off_c, 1, 71, 0
2, 9840, Note_off_c, 1, 77, 0
2, 9840, Note_off_c, 1, 81, 0
2, 9840, Note_off_c, 1, 86, 0
2, 9880, Note_on_c, 1, 71, 127
2, 9880, Note_on_c, 1, 77, 127
2, 9880, Note_on_c, 1, 81, 127
2, 9880, Note_on_c, 1, 86, 127
2, 9920, Note_off_c, 1, 71, 0
2, 9920, Note_off_c, 1, 77, 0
2, 9920, Note_off_c, 1, 81, 0
2, 9920, Note_off_c, 1, 86, 0
2, 10000, Note_on_c, 1, 71, 127
2, 10000, Note_on_c, 1, 77, 127
2, 10000, Note_on_c, 1, 81, 127
2, 10000, Note_on_c, 1, 86, 127
2, 10080, Note_off_c, 1, 71, 0
2, 10080, Note_off_c, 1, 77, 0
2, 10080, Note_off_c, 1, 81, 0
2, 10080, Note_off_c, 1, 86, 0
2, 10160, Note_on_c, 1, 71, 127
2, 10160, Note_on_c, 1, 77, 127
2, 10160, Note_on_c, 1, 81, 127
2, 10160, Note_on_c, 1, 86, 127
2, 10200, Note_off_c, 1, 71, 0
2, 10200, Note_off_c, 1, 77, 0
2, 10200, Note_off_c, 1, 81, 0
2, 10200, Note_off_c, 1, 86, 0
2, 10280, Note_on_c, 1, 71, 127
2, 10280, Note_on_c, 1, 77, 127
2, 10280, Note_on_c, 1, 81, 127
2, 10280, Note_on_c, 1, 86, 127
2, 10320, Note_off_c, 1, 71, 0
2, 10320, Note_off_c, 1, 77, 0
2, 10320, Note_off_c, 1, 81, 0
2, 10320, Note_off_c, 1, 86, 0
2, 10400, Note_on_c, 1, 83, 127
2, 10400, Note_on_c, 1, 86, 127
2, 10400, Note_on_c, 1, 93, 127
2, 10440, Note_off_c, 1, 83, 0
2, 10440, Note_off_c, 1, 86, 0
2, 10440, Note_off_c, 1, 93, 0
2, 10520, Note_on_c, 1, 83, 127
2, 10520, Note_on_c, 1, 86, 127
2, 10520, Note_on_c, 1, 93, 127
2, 10560, Note_off_c, 1, 83, 0
2, 10560, Note_off_c, 1, 86, 0
2, 10560, Note_off_c, 1, 93, 0
2, 10680, Note_on_c, 1, 40, 127
2, 10720, Note_off_c, 1, 40, 0
2, 10800, Note_on_c, 1, 52, 127
2, 10800, Note_on_c, 1, 61, 127
2, 10800, Note_on_c, 1, 64, 127
2, 10800, Note_on_c, 1, 81, 127
2, 10800, Note_on_c, 1, 93, 127
2, 10840, Note_off_c, 1, 52, 0
2, 10840, Note_off_c, 1, 61, 0
2, 10840, Note_off_c, 1, 64, 0
2, 10840, Note_off_c, 1, 81, 0
2, 10840, Note_off_c, 1, 93, 0
2, 10920, Note_on_c, 1, 44, 127
2, 10960, Note_off_c, 1, 44, 0
2, 10960, Note_on_c, 1, 49, 127
2, 11000, Note_off_c, 1, 49, 0
2, 11080, Note_on_c, 1, 55, 127
2, 11080, Note_on_c, 1, 59, 127
2, 11080, Note_on_c, 1, 62, 127
2, 11080, Note_on_c, 1, 72, 127
2, 11080, Note_on_c, 1, 84, 127
2, 11160, Note_off_c, 1, 55, 0
2, 11160, Note_off_c, 1, 59, 0
2, 11160, Note_off_c, 1, 62, 0
2, 11160, Note_on_c, 1, 70, 127
2, 11160, Note_off_c, 1, 72, 0
2, 11160, Note_on_c, 1, 77, 127
2, 11160, Note_on_c, 1, 80, 127
2, 11160, Note_on_c, 1, 82, 127
2, 11160, Note_off_c, 1, 84, 0
2, 11200, Note_on_c, 1, 55, 127
2, 11200, Note_on_c, 1, 59, 127
2, 11200, Note_on_c, 1, 62, 127
2, 11200, Note_off_c, 1, 70, 0
2, 11200, Note_on_c, 1, 72, 127
2, 11200, Note_off_c, 1, 77, 0
2, 11200, Note_off_c, 1, 80, 0
2, 11200, Note_off_c, 1, 82, 0
2, 11200, Note_on_c, 1, 84, 127
2, 11280, Note_off_c, 1, 55, 0
2, 11280, Note_off_c, 1, 59, 0
2, 11280, Note_off_c, 1, 62, 0
2, 11280, Note_off_c, 1, 72, 0
2, 11280, Note_off_c, 1, 84, 0
2, 11320, Note_on_c, 1, 60, 127
2, 11320, Note_on_c, 1, 64, 127
2, 11320, Note_on_c, 1, 82, 127
2, 11320, Note_on_c, 1, 91, 127
2, 11320, Note_on_c, 1, 94, 127
2, 11360, Note_off_c, 1, 60, 0
2, 11360, Note_off_c, 1, 64, 0
2, 11360, Note_off_c, 1, 82, 0
2, 11360, Note_off_c, 1, 91, 0
2, 11360, Note_off_c, 1, 94, 0
2, 11600, Note_on_c, 1, 58, 127
2, 11600, Note_on_c, 1, 70, 127
2, 11600, Note_on_c, 1, 75, 127
2, 11600, Note_on_c, 1, 79, 127
2, 11600, Note_on_c, 1, 85, 127
2, 11640, Note_off_c, 1, 58, 0
2, 11640, Note_off_c, 1, 70, 0
2, 11640, Note_off_c, 1, 75, 0
2, 11640, Note_off_c, 1, 79, 0
2, 11640, Note_off_c, 1, 85, 0
2, 13400, Note_on_c, 1, 37, 127
2, 13400, Note_on_c, 1, 49, 127
2, 14040, Note_off_c, 1, 37, 0
2, 14040, Note_off_c, 1, 49, 0
2, 18240, Note_on_c, 1, 40, 127
2, 18240, Note_on_c, 1, 52, 127
2, 18240, Note_on_c, 1, 64, 127
2, 18680, Note_off_c, 1, 40, 0
2, 18680, Note_off_c, 1, 52, 0
2, 18680, Note_off_c, 1, 64, 0
2, 18720, Note_on_c, 1, 42, 127
2, 18720, Note_on_c, 1, 54, 127
2, 18720, Note_on_c, 1, 66, 127
2, 18760, Note_off_c, 1, 42, 0
2, 18760, Note_off_c, 1, 54, 0
2, 18760, Note_off_c, 1, 66, 0
2, 18840, Note_on_c, 1, 42, 127
2, 18840, Note_on_c, 1, 54, 127
2, 18840, Note_on_c, 1, 66, 127
2, 18880, Note_off_c, 1, 42, 0
2, 18880, Note_off_c, 1, 54, 0
2, 18880, Note_off_c, 1, 66, 0
2, 18960, Note_on_c, 1, 40, 127
2, 18960, Note_on_c, 1, 52, 127
2, 18960, Note_on_c, 1, 64, 127
2, 19000, Note_off_c, 1, 40, 0
2, 19000, Note_off_c, 1, 52, 0
2, 19000, Note_off_c, 1, 64, 0
2, 19120, Note_on_c, 1, 40, 127
2, 19120, Note_on_c, 1, 52, 127
2, 19120, Note_on_c, 1, 64, 127
2, 19160, Note_off_c, 1, 40, 0
2, 19160, Note_off_c, 1, 52, 0
2, 19160, Note_off_c, 1, 64, 0
2, 19240, Note_on_c, 1, 36, 127
2, 19240, Note_on_c, 1, 48, 127
2, 19240, Note_on_c, 1, 60, 127
2, 19280, Note_off_c, 1, 36, 0
2, 19280, Note_off_c, 1, 48, 0
2, 19280, Note_off_c, 1, 60, 0
2, 19360, Note_on_c, 1, 40, 127
2, 19360, Note_on_c, 1, 52, 127
2, 19360, Note_on_c, 1, 64, 127
2, 19400, Note_off_c, 1, 40, 0
2, 19400, Note_off_c, 1, 52, 0
2, 19400, Note_off_c, 1, 64, 0
2, 19520, Note_on_c, 1, 40, 127
2, 19520, Note_on_c, 1, 52, 127
2, 19520, Note_on_c, 1, 64, 127
2, 19560, Note_off_c, 1, 40, 0
2, 19560, Note_off_c, 1, 52, 0
2, 19560, Note_off_c, 1, 64, 0
2, 19640, Note_on_c, 1, 40, 127
2, 19640, Note_on_c, 1, 52, 127
2, 19640, Note_on_c, 1, 64, 127
2, 19680, Note_off_c, 1, 40, 0
2, 19680, Note_off_c, 1, 52, 0
2, 19680, Note_off_c, 1, 64, 0
2, 19760, Note_on_c, 1, 36, 127
2, 19760, Note_on_c, 1, 48, 127
2, 19760, Note_on_c, 1, 60, 127
2, 19800, Note_off_c, 1, 36, 0
2, 19800, Note_off_c, 1, 48, 0
2, 19800, Note_off_c, 1, 60, 0
2, 19920, Note_on_c, 1, 35, 127
2, 19920, Note_on_c, 1, 47, 127
2, 19920, Note_on_c, 1, 59, 127
2, 19960, Note_off_c, 1, 35, 0
2, 19960, Note_off_c, 1, 47, 0
2, 19960, Note_off_c, 1, 59, 0
2, 20040, Note_on_c, 1, 40, 127
2, 20040, Note_on_c, 1, 52, 127
2, 20040, Note_on_c, 1, 64, 127
2, 20080, Note_off_c, 1, 40, 0
2, 20080, Note_off_c, 1, 52, 0
2, 20080, Note_off_c, 1, 64, 0
2, 20200, Note_on_c, 1, 40, 127
2, 20200, Note_on_c, 1, 52, 127
2, 20200, Note_on_c, 1, 64, 127
2, 20240, Note_off_c, 1, 40, 0
2, 20240, Note_off_c, 1, 52, 0
2, 20240, Note_off_c, 1, 64, 0
2, 20320, Note_on_c, 1, 40, 127
2, 20320, Note_on_c, 1, 52, 127
2, 20320, Note_on_c, 1, 64, 127
2, 20360, Note_off_c, 1, 40, 0
2, 20360, Note_off_c, 1, 52, 0
2, 20360, Note_off_c, 1, 64, 0
2, 20440, Note_on_c, 1, 40, 127
2, 20440, Note_on_c, 1, 52, 127
2, 20440, Note_on_c, 1, 64, 127
2, 20480, Note_off_c, 1, 40, 0
2, 20480, Note_off_c, 1, 52, 0
2, 20480, Note_off_c, 1, 64, 0
2, 20560, Note_on_c, 1, 41, 127
2, 20560, Note_on_c, 1, 53, 127
2, 20560, Note_on_c, 1, 65, 127
2, 20600, Note_off_c, 1, 41, 0
2, 20600, Note_off_c, 1, 53, 0
2, 20600, Note_off_c, 1, 65, 0
2, 20720, Note_on_c, 1, 40, 127
2, 20720, Note_on_c, 1, 52, 127
2, 20720, Note_on_c, 1, 64, 127
2, 20760, Note_off_c, 1, 40, 0
2, 20760, Note_off_c, 1, 52, 0
2, 20760, Note_off_c, 1, 64, 0
2, 20840, Note_on_c, 1, 36, 127
2, 20840, Note_on_c, 1, 48, 127
2, 20840, Note_on_c, 1, 60, 127
2, 20880, Note_off_c, 1, 36, 0
2, 20880, Note_off_c, 1, 48, 0
2, 20880, Note_off_c, 1, 60, 0
2, 20960, Note_on_c, 1, 41, 127
2, 20960, Note_on_c, 1, 53, 127
2, 20960, Note_on_c, 1, 65, 127
2, 21000, Note_off_c, 1, 41, 0
2, 21000, Note_off_c, 1, 53, 0
2, 21000, Note_off_c, 1, 65, 0
2, 21080, Note_on_c, 1, 38, 127
2, 21080, Note_on_c, 1, 50, 127
2, 21080, Note_on_c, 1, 62, 127
2, 21120, Note_off_c, 1, 38, 0
2, 21120, Note_off_c, 1, 50, 0
2, 21120, Note_off_c, 1, 62, 0
2, 21240, Note_on_c, 1, 41, 127
2, 21240, Note_on_c, 1, 53, 127
2, 21240, Note_on_c, 1, 65, 127
2, 21280, Note_off_c, 1, 41, 0
2, 21280, Note_off_c, 1, 53, 0
2, 21280, Note_off_c, 1, 65, 0
2, 21360, Note_on_c, 1, 38, 127
2, 21360, Note_on_c, 1, 50, 127
2, 21360, Note_on_c, 1, 62, 127
2, 21400, Note_off_c, 1, 38, 0
2, 21400, Note_off_c, 1, 50, 0
2, 21400, Note_off_c, 1, 62, 0
2, 21480, Note_on_c, 1, 38, 127
2, 21480, Note_on_c, 1, 50, 127
2, 21480, Note_on_c, 1, 62, 127
2, 21520, Note_off_c, 1, 38, 0
2, 21520, Note_off_c, 1, 50, 0
2, 21520, Note_off_c, 1, 62, 0
2, 21600, Note_on_c, 1, 40, 127
2, 21600, Note_on_c, 1, 52, 127
2, 21600, Note_on_c, 1, 64, 127
2, 21640, Note_off_c, 1, 40, 0
2, 21640, Note_off_c, 1, 52, 0
2, 21640, Note_off_c, 1, 64, 0
2, 21800, Note_on_c, 1, 38, 127
2, 21800, Note_on_c, 1, 50, 127
2, 21800, Note_on_c, 1, 62, 127
2, 21840, Note_off_c, 1, 38, 0
2, 21840, Note_off_c, 1, 50, 0
2, 21840, Note_off_c, 1, 62, 0
2, 21920, Note_on_c, 1, 40, 127
2, 21920, Note_on_c, 1, 52, 127
2, 21920, Note_on_c, 1, 64, 127
2, 21960, Note_off_c, 1, 40, 0
2, 21960, Note_off_c, 1, 52, 0
2, 21960, Note_off_c, 1, 64, 0
2, 22040, Note_on_c, 1, 42, 127
2, 22040, Note_on_c, 1, 54, 127
2, 22040, Note_on_c, 1, 66, 127
2, 22080, Note_off_c, 1, 42, 0
2, 22080, Note_off_c, 1, 54, 0
2, 22080, Note_off_c, 1, 66, 0
2, 22160, Note_on_c, 1, 38, 127
2, 22160, Note_on_c, 1, 50, 127
2, 22160, Note_on_c, 1, 62, 127
2, 22200, Note_off_c, 1, 38, 0
2, 22200, Note_off_c, 1, 50, 0
2, 22200, Note_off_c, 1, 62, 0
2, 22320, Note_on_c, 1, 43, 127
2, 22320, Note_on_c, 1, 55, 127
2, 22320, Note_on_c, 1, 67, 127
2, 22360, Note_off_c, 1, 43, 0
2, 22360, Note_off_c, 1, 55, 0
2, 22360, Note_off_c, 1, 67, 0
2, 22440, Note_on_c, 1, 38, 127
2, 22440, Note_on_c, 1, 50, 127
2, 22440, Note_on_c, 1, 62, 127
2, 22480, Note_off_c, 1, 38, 0
2, 22480, Note_off_c, 1, 50, 0
2, 22480, Note_off_c, 1, 62, 0
2, 22560, Note_on_c, 1, 37, 127
2, 22560, Note_on_c, 1, 49, 127
2, 22560, Note_on_c, 1, 61, 127
2, 22600, Note_off_c, 1, 37, 0
2, 22600, Note_off_c, 1, 49, 0
2, 22600, Note_off_c, 1, 61, 0
2, 22680, Note_on_c, 1, 38, 127
2, 22680, Note_on_c, 1, 50, 127
2, 22680, Note_on_c, 1, 62, 127
2, 22720, Note_off_c, 1, 38, 0
2, 22720, Note_off_c, 1, 50, 0
2, 22720, Note_off_c, 1, 62, 0
2, 22840, Note_on_c, 1, 43, 127
2, 22840, Note_on_c, 1, 55, 127
2, 22840, Note_on_c, 1, 67, 127
2, 22880, Note_off_c, 1, 43, 0
2, 22880, Note_off_c, 1, 55, 0
2, 22880, Note_off_c, 1, 67, 0
2, 22960, Note_on_c, 1, 43, 127
2, 22960, Note_on_c, 1, 55, 127
2, 22960, Note_on_c, 1, 67, 127
2, 23000, Note_off_c, 1, 43, 0
2, 23000, Note_off_c, 1, 55, 0
2, 23000, Note_off_c, 1, 67, 0
2, 23080, Note_on_c, 1, 31, 127
2, 23080, Note_on_c, 1, 43, 127
2, 23080, Note_on_c, 1, 55, 127
2, 23120, Note_off_c, 1, 31, 0
2, 23120, Note_off_c, 1, 43, 0
2, 23120, Note_off_c, 1, 55, 0
2, 23200, Note_on_c, 1, 31, 127
2, 23200, Note_on_c, 1, 43, 127
2, 23200, Note_on_c, 1, 55, 127
2, 23240, Note_off_c, 1, 31, 0
2, 23240, Note_off_c, 1, 43, 0
2, 23240, Note_off_c, 1, 55, 0
2, 23360, Note_on_c, 1, 38, 127
2, 23360, Note_on_c, 1, 50, 127
2, 23360, Note_on_c, 1, 62, 127
2, 23400, Note_off_c, 1, 38, 0
2, 23400, Note_off_c, 1, 50, 0
2, 23400, Note_off_c, 1, 62, 0
2, 23480, Note_on_c, 1, 36, 127
2, 23480, Note_on_c, 1, 48, 127
2, 23480, Note_on_c, 1, 60, 127
2, 23520, Note_off_c, 1, 36, 0
2, 23520, Note_off_c, 1, 48, 0
2, 23520, Note_off_c, 1, 60, 0
2, 23560, Note_on_c, 1, 39, 127
2, 23560, Note_on_c, 1, 51, 127
2, 23560, Note_on_c, 1, 63, 127
2, 23600, Note_off_c, 1, 39, 0
2, 23600, Note_on_c, 1, 43, 127
2, 23600, Note_off_c, 1, 51, 0
2, 23600, Note_on_c, 1, 55, 127
2, 23600, Note_off_c, 1, 63, 0
2, 23600, Note_on_c, 1, 67, 127
2, 23640, Note_off_c, 1, 43, 0
2, 23640, Note_off_c, 1, 55, 0
2, 23640, Note_off_c, 1, 67, 0
2, 23760, Note_on_c, 1, 39, 127
2, 23760, Note_on_c, 1, 51, 127
2, 23760, Note_on_c, 1, 63, 127
2, 23800, Note_off_c, 1, 39, 0
2, 23800, Note_off_c, 1, 51, 0
2, 23800, Note_off_c, 1, 63, 0
2, 23920, Note_on_c, 1, 31, 127
2, 23920, Note_on_c, 1, 43, 127
2, 23920, Note_on_c, 1, 55, 127
2, 23960, Note_off_c, 1, 31, 0
2, 23960, Note_off_c, 1, 43, 0
2, 23960, Note_off_c, 1, 55, 0
2, 24040, Note_on_c, 1, 31, 127
2, 24040, Note_on_c, 1, 43, 127
2, 24040, Note_on_c, 1, 55, 127
2, 24080, Note_off_c, 1, 31, 0
2, 24080, Note_off_c, 1, 43, 0
2, 24080, Note_off_c, 1, 55, 0
2, 24160, Note_on_c, 1, 36, 127
2, 24160, Note_on_c, 1, 48, 127
2, 24160, Note_on_c, 1, 60, 127
2, 24200, Note_off_c, 1, 36, 0
2, 24200, Note_off_c, 1, 48, 0
2, 24200, Note_off_c, 1, 60, 0
2, 24280, Note_on_c, 1, 37, 127
2, 24280, Note_on_c, 1, 49, 127
2, 24280, Note_on_c, 1, 61, 127
2, 24320, Note_off_c, 1, 37, 0
2, 24320, Note_off_c, 1, 49, 0
2, 24320, Note_off_c, 1, 61, 0
2, 24400, Note_on_c, 1, 43, 127
2, 24400, Note_on_c, 1, 55, 127
2, 24400, Note_on_c, 1, 67, 127
2, 24440, Note_off_c, 1, 43, 0
2, 24440, Note_off_c, 1, 55, 0
2, 24440, Note_off_c, 1, 67, 0
2, 24560, Note_on_c, 1, 39, 127
2, 24560, Note_on_c, 1, 51, 127
2, 24560, Note_on_c, 1, 63, 127
2, 24600, Note_off_c, 1, 39, 0
2, 24600, Note_off_c, 1, 51, 0
2, 24600, Note_off_c, 1, 63, 0
2, 24680, Note_on_c, 1, 34, 127
2, 24680, Note_on_c, 1, 46, 127
2, 24680, Note_on_c, 1, 58, 127
2, 24720, Note_off_c, 1, 34, 0
2, 24720, Note_off_c, 1, 46, 0
2, 24720, Note_off_c, 1, 58, 0
2, 24800, Note_on_c, 1, 39, 127
2, 24800, Note_on_c, 1, 51, 127
2, 24800, Note_on_c, 1, 63, 127
2, 24840, Note_off_c, 1, 39, 0
2, 24840, Note_off_c, 1, 51, 0
2, 24840, Note_off_c, 1, 63, 0
2, 24920, Note_on_c, 1, 35, 127
2, 24920, Note_on_c, 1, 47, 127
2, 24920, Note_on_c, 1, 59, 127
2, 24960, Note_off_c, 1, 35, 0
2, 24960, Note_off_c, 1, 47, 0
2, 24960, Note_off_c, 1, 59, 0
2, 25000, Note_on_c, 1, 39, 127
2, 25000, Note_on_c, 1, 51, 127
2, 25000, Note_on_c, 1, 63, 127
2, 25040, Note_off_c, 1, 39, 0
2, 25040, Note_off_c, 1, 51, 0
2, 25040, Note_off_c, 1, 63, 0
2, 25080, Note_on_c, 1, 39, 127
2, 25080, Note_on_c, 1, 51, 127
2, 25080, Note_on_c, 1, 63, 127
2, 25120, Note_off_c, 1, 39, 0
2, 25120, Note_off_c, 1, 51, 0
2, 25120, Note_off_c, 1, 63, 0
2, 25200, Note_on_c, 1, 36, 127
2, 25200, Note_on_c, 1, 48, 127
2, 25200, Note_on_c, 1, 60, 127
2, 25240, Note_off_c, 1, 36, 0
2, 25240, Note_off_c, 1, 48, 0
2, 25240, Note_off_c, 1, 60, 0
2, 25320, Note_on_c, 1, 39, 127
2, 25320, Note_on_c, 1, 51, 127
2, 25320, Note_on_c, 1, 63, 127
2, 25360, Note_off_c, 1, 39, 0
2, 25360, Note_off_c, 1, 51, 0
2, 25360, Note_off_c, 1, 63, 0
2, 25440, Note_on_c, 1, 40, 127
2, 25440, Note_on_c, 1, 52, 127
2, 25440, Note_on_c, 1, 64, 127
2, 25480, Note_off_c, 1, 40, 0
2, 25480, Note_off_c, 1, 52, 0
2, 25480, Note_off_c, 1, 64, 0
2, 25560, Note_on_c, 1, 40, 127
2, 25560, Note_on_c, 1, 52, 127
2, 25560, Note_on_c, 1, 64, 127
2, 25600, Note_off_c, 1, 40, 0
2, 25600, Note_off_c, 1, 52, 0
2, 25600, Note_off_c, 1, 64, 0
2, 25720, Note_on_c, 1, 40, 127
2, 25720, Note_on_c, 1, 52, 127
2, 25720, Note_on_c, 1, 64, 127
2, 25800, Note_off_c, 1, 40, 0
2, 25800, Note_off_c, 1, 52, 0
2, 25800, Note_off_c, 1, 64, 0
2, 25840, Note_on_c, 1, 41, 127
2, 25840, Note_on_c, 1, 53, 127
2, 25840, Note_on_c, 1, 65, 127
2, 25880, Note_off_c, 1, 41, 0
2, 25880, Note_off_c, 1, 53, 0
2, 25880, Note_off_c, 1, 65, 0
2, 26000, Note_on_c, 1, 43, 127
2, 26000, Note_on_c, 1, 55, 127
2, 26000, Note_on_c, 1, 67, 127
2, 26040, Note_off_c, 1, 43, 0
2, 26040, Note_off_c, 1, 55, 0
2, 26040, Note_off_c, 1, 67, 0
2, 26120, Note_on_c, 1, 39, 127
2, 26120, Note_on_c, 1, 51, 127
2, 26120, Note_on_c, 1, 63, 127
2, 26160, Note_off_c, 1, 39, 0
2, 26160, Note_off_c, 1, 51, 0
2, 26160, Note_off_c, 1, 63, 0
2, 26240, Note_on_c, 1, 40, 127
2, 26240, Note_on_c, 1, 52, 127
2, 26240, Note_on_c, 1, 64, 127
2, 26360, Note_off_c, 1, 40, 0
2, 26360, Note_off_c, 1, 52, 0
2, 26360, Note_off_c, 1, 64, 0
2, 26400, Note_on_c, 1, 41, 127
2, 26400, Note_on_c, 1, 53, 127
2, 26400, Note_on_c, 1, 65, 127
2, 26440, Note_off_c, 1, 41, 0
2, 26440, Note_off_c, 1, 53, 0
2, 26440, Note_off_c, 1, 65, 0
2, 26520, Note_on_c, 1, 41, 127
2, 26520, Note_on_c, 1, 53, 127
2, 26520, Note_on_c, 1, 65, 127
2, 26560, Note_off_c, 1, 41, 0
2, 26560, Note_off_c, 1, 53, 0
2, 26560, Note_off_c, 1, 65, 0
2, 26640, Note_on_c, 1, 37, 127
2, 26640, Note_on_c, 1, 49, 127
2, 26640, Note_on_c, 1, 61, 127
2, 26680, Note_off_c, 1, 37, 0
2, 26680, Note_off_c, 1, 49, 0
2, 26680, Note_off_c, 1, 61, 0
2, 26760, Note_on_c, 1, 35, 127
2, 26760, Note_on_c, 1, 47, 127
2, 26760, Note_on_c, 1, 59, 127
2, 26840, Note_off_c, 1, 35, 0
2, 26840, Note_off_c, 1, 47, 0
2, 26840, Note_off_c, 1, 59, 0
2, 27040, Note_on_c, 1, 36, 127
2, 27040, Note_on_c, 1, 48, 127
2, 27040, Note_on_c, 1, 60, 127
2, 27120, Note_off_c, 1, 36, 0
2, 27120, Note_off_c, 1, 48, 0
2, 27120, Note_off_c, 1, 60, 0
2, 27160, Note_on_c, 1, 37, 127
2, 27160, Note_on_c, 1, 49, 127
2, 27160, Note_on_c, 1, 61, 127
2, 27240, Note_off_c, 1, 37, 0
2, 27240, Note_off_c, 1, 49, 0
2, 27240, Note_off_c, 1, 61, 0
2, 27280, Note_on_c, 1, 38, 127
2, 27280, Note_on_c, 1, 50, 127
2, 27280, Note_on_c, 1, 62, 127
2, 27320, Note_off_c, 1, 38, 0
2, 27320, Note_off_c, 1, 50, 0
2, 27320, Note_off_c, 1, 62, 0
2, 27400, Note_on_c, 1, 33, 127
2, 27400, Note_on_c, 1, 45, 127
2, 27400, Note_on_c, 1, 57, 127
2, 27640, Note_off_c, 1, 33, 0
2, 27640, Note_off_c, 1, 45, 0
2, 27640, Note_off_c, 1, 57, 0
2, 28720, Note_on_c, 1, 58, 127
2, 28800, Note_off_c, 1, 58, 0
2, 28840, Note_on_c, 1, 59, 127
2, 28880, Note_off_c, 1, 59, 0
2, 28920, Note_on_c, 1, 58, 127
2, 28960, Note_on_c, 1, 56, 127
2, 28960, Note_off_c, 1, 58, 0
2, 29000, Note_off_c, 1, 56, 0
2, 29040, Note_on_c, 1, 58, 127
2, 29080, Note_off_c, 1, 58, 0
2, 29120, Note_on_c, 1, 59, 127
2, 29160, Note_on_c, 1, 58, 127
2, 29160, Note_off_c, 1, 59, 0
2, 29200, Note_off_c, 1, 58, 0
2, 29240, Note_on_c, 1, 53, 127
2, 29280, Note_off_c, 1, 53, 0
2, 29320, Note_on_c, 1, 53, 127
2, 29360, Note_off_c, 1, 53, 0
2, 29360, Note_on_c, 1, 59, 127
2, 29400, Note_off_c, 1, 59, 0
2, 29440, Note_on_c, 1, 58, 127
2, 29480, Note_off_c, 1, 58, 0
2, 29520, Note_on_c, 1, 58, 127
2, 29560, Note_off_c, 1, 58, 0
2, 29560, Note_on_c, 1, 59, 127
2, 29600, Note_off_c, 1, 59, 0
2, 29640, Note_on_c, 1, 58, 127
2, 29680, Note_off_c, 1, 58, 0
2, 29720, Note_on_c, 1, 59, 127
2, 29760, Note_off_c, 1, 59, 0
2, 29760, Note_on_c, 1, 60, 127
2, 29800, Note_off_c, 1, 60, 0
2, 29840, Note_on_c, 1, 58, 127
2, 29880, Note_on_c, 1, 56, 127
2, 29880, Note_off_c, 1, 58, 0
2, 29920, Note_off_c, 1, 56, 0
2, 29960, Note_on_c, 1, 58, 127
2, 30000, Note_off_c, 1, 58, 0
2, 30040, Note_on_c, 1, 58, 127
2, 30080, Note_off_c, 1, 58, 0
2, 30080, Note_on_c, 1, 59, 127
2, 30120, Note_off_c, 1, 59, 0
2, 30160, Note_on_c, 1, 58, 127
2, 30200, Note_off_c, 1, 58, 0
2, 30240, Note_on_c, 1, 59, 127
2, 30280, Note_off_c, 1, 59, 0
2, 30320, Note_on_c, 1, 58, 127
2, 30360, Note_off_c, 1, 58, 0
2, 30400, Note_on_c, 1, 53, 127
2, 30440, Note_off_c, 1, 53, 0
2, 30480, Note_on_c, 1, 50, 127
2, 30520, Note_off_c, 1, 50, 0
2, 30560, Note_on_c, 1, 51, 127
2, 30600, Note_off_c, 1, 51, 0
2, 30640, Note_on_c, 1, 43, 127
2, 30680, Note_off_c, 1, 43, 0
2, 30720, Note_on_c, 1, 47, 127
2, 30760, Note_off_c, 1, 47, 0
2, 30800, Note_on_c, 1, 46, 127
2, 30840, Note_off_c, 1, 46, 0
2, 30880, Note_on_c, 1, 42, 127
2, 30920, Note_off_c, 1, 42, 0
2, 30960, Note_on_c, 1, 39, 127
2, 31000, Note_off_c, 1, 39, 0
2, 31080, Note_on_c, 1, 39, 127
2, 31120, Note_off_c, 1, 39, 0
2, 31160, Note_on_c, 1, 47, 127
2, 31240, Note_off_c, 1, 47, 0
2, 31280, Note_on_c, 1, 53, 127
2, 31320, Note_off_c, 1, 53, 0
2, 31360, Note_on_c, 1, 54, 127
2, 31400, Note_off_c, 1, 54, 0
2, 31440, Note_on_c, 1, 58, 127
2, 31480, Note_off_c, 1, 58, 0
2, 31480, Note_on_c, 1, 60, 127
2, 31520, Note_off_c, 1, 60, 0
2, 31560, Note_on_c, 1, 58, 127
2, 31600, Note_off_c, 1, 58, 0
2, 31640, Note_on_c, 1, 58, 127
2, 31680, Note_off_c, 1, 58, 0
2, 31680, Note_on_c, 1, 59, 127
2, 31720, Note_off_c, 1, 59, 0
2, 31760, Note_on_c, 1, 58, 127
2, 31800, Note_off_c, 1, 58, 0
2, 31840, Note_on_c, 1, 58, 127
2, 31920, Note_off_c, 1, 58, 0
2, 31960, Note_on_c, 1, 57, 127
2, 32000, Note_off_c, 1, 57, 0
2, 32040, Note_on_c, 1, 58, 127
2, 32120, Note_off_c, 1, 58, 0
2, 32120, Note_on_c, 1, 59, 127
2, 33080, Note_off_c, 1, 59, 0
2, 33120, Note_on_c, 1, 35, 127
2, 33120, Note_on_c, 1, 58, 127
2, 33200, Note_off_c, 1, 35, 0
2, 33200, Note_off_c, 1, 58, 0
2, 33240, Note_on_c, 1, 35, 127
2, 33240, Note_on_c, 1, 58, 127
2, 34560, Note_off_c, 1, 35, 0
2, 34560, Note_off_c, 1, 58, 0
2, 35640, Note_on_c, 1, 59, 127
2, 35880, Note_off_c, 1, 59, 0
2, 35920, Note_on_c, 1, 72, 127
2, 37400, Note_off_c, 1, 72, 0
2, 37480, Note_on_c, 1, 75, 127
2, 37800, Note_off_c, 1, 75, 0
2, 37840, Note_on_c, 1, 76, 127
2, 38560, Note_off_c, 1, 76, 0
2, 38600, Note_on_c, 1, 75, 127
2, 38960, Note_off_c, 1, 75, 0
2, 39000, Note_on_c, 1, 76, 127
2, 39560, Note_off_c, 1, 76, 0
2, 39600, Note_on_c, 1, 76, 127
2, 40160, Note_off_c, 1, 76, 0
2, 40200, Note_on_c, 1, 74, 127
2, 40520, Note_off_c, 1, 74, 0
2, 40560, Note_on_c, 1, 78, 127
2, 41280, Note_off_c, 1, 78, 0
2, 41320, Note_on_c, 1, 76, 127
2, 41560, Note_off_c, 1, 76, 0
2, 41640, Note_on_c, 1, 74, 127
2, 41720, Note_off_c, 1, 74, 0
2, 41760, Note_on_c, 1, 73, 127
2, 42080, Note_off_c, 1, 73, 0
2, 42120, Note_on_c, 1, 74, 127
2, 42480, Note_off_c, 1, 74, 0
2, 42520, Note_on_c, 1, 78, 127
2, 43240, Note_off_c, 1, 78, 0
2, 43280, Note_on_c, 1, 76, 127
2, 43480, Note_off_c, 1, 76, 0
2, 43680, Note_on_c, 1, 79, 127
2, 44040, Note_off_c, 1, 79, 0
2, 44080, Note_on_c, 1, 73, 127
2, 44400, Note_off_c, 1, 73, 0
2, 44440, Note_on_c, 1, 76, 127
2, 44640, Note_off_c, 1, 76, 0
2, 44840, Note_on_c, 1, 78, 127
2, 45080, Note_off_c, 1, 78, 0
2, 45240, Note_on_c, 1, 76, 127
2, 45440, Note_off_c, 1, 76, 0
2, 45480, Note_on_c, 1, 76, 127
2, 45600, Note_off_c, 1, 76, 0
2, 45680, Note_on_c, 1, 73, 127
2, 45920, Note_off_c, 1, 73, 0
2, 45960, Note_on_c, 1, 71, 127
2, 46000, Note_off_c, 1, 71, 0
2, 46080, Note_on_c, 1, 73, 127
2, 46280, Note_off_c, 1, 73, 0
2, 46440, Note_on_c, 1, 45, 127
2, 46800, Note_off_c, 1, 45, 0
2, 46840, Note_on_c, 1, 47, 127
2, 47200, Note_off_c, 1, 47, 0
2, 47240, Note_on_c, 1, 52, 127
2, 47440, Note_off_c, 1, 52, 0
2, 47480, Note_on_c, 1, 52, 127
2, 48000, Note_off_c, 1, 52, 0
2, 48040, Note_on_c, 1, 45, 127
2, 48760, Note_off_c, 1, 45, 0
2, 48800, Note_on_c, 1, 52, 127
2, 49160, Note_off_c, 1, 52, 0
2, 49200, Note_on_c, 1, 57, 127
2, 49520, Note_off_c, 1, 57, 0
2, 49560, Note_on_c, 1, 59, 127
2, 49800, Note_off_c, 1, 59, 0
2, 49840, Note_on_c, 1, 59, 127
2, 49960, Note_off_c, 1, 59, 0
2, 50000, Note_on_c, 1, 57, 127
2, 50720, Note_off_c, 1, 57, 0
2, 50760, Note_on_c, 1, 56, 127
2, 51120, Note_off_c, 1, 56, 0
2, 51160, Note_on_c, 1, 57, 127
2, 51480, Note_off_c, 1, 57, 0
2, 51520, Note_on_c, 1, 59, 127
2, 51880, Note_off_c, 1, 59, 0
2, 54920, Note_on_c, 1, 65, 127
2, 54920, Note_on_c, 1, 72, 127
2, 54920, Note_on_c, 1, 81, 127
2, 54920, Note_on_c, 1, 89, 127
2, 55480, Note_off_c, 1, 65, 0
2, 55480, Note_off_c, 1, 72, 0
2, 55480, Note_off_c, 1, 81, 0
2, 55480, Note_off_c, 1, 89, 0
2, 55920, Note_on_c, 1, 48, 127
2, 56240, Note_off_c, 1, 48, 0
2, 56280, Note_on_c, 1, 53, 127
2, 56680, Note_on_c, 1, 60, 127
2, 57000, Note_off_c, 1, 60, 0
2, 57040, Note_on_c, 1, 60, 127
2, 57360, Note_off_c, 1, 53, 0
2, 57360, Note_off_c, 1, 60, 0
2, 57400, Note_on_c, 1, 58, 127
2, 58120, Note_off_c, 1, 58, 0
2, 58200, Note_on_c, 1, 53, 127
2, 58560, Note_off_c, 1, 53, 0
2, 58600, Note_on_c, 1, 41, 127
2, 58920, Note_off_c, 1, 41, 0
2, 58960, Note_on_c, 1, 48, 127
2, 59280, Note_off_c, 1, 48, 0
2, 59320, Note_on_c, 1, 53, 127
2, 59680, Note_off_c, 1, 53, 0
2, 59720, Note_on_c, 1, 58, 127
2, 60040, Note_off_c, 1, 58, 0
2, 60080, Note_on_c, 1, 53, 127
2, 60400, Note_off_c, 1, 53, 0
2, 60480, Note_on_c, 1, 58, 127
2, 60840, Note_off_c, 1, 58, 0
2, 60880, Note_on_c, 1, 65, 127
2, 62360, Note_off_c, 1, 65, 0
2, 62440, Note_on_c, 1, 65, 127
2, 62760, Note_off_c, 1, 65, 0
2, 62800, Note_on_c, 1, 60, 127
2, 63120, Note_off_c, 1, 60, 0
2, 63160, Note_on_c, 1, 65, 127
2, 63520, Note_off_c, 1, 65, 0
2, 63560, Note_on_c, 1, 70, 127
2, 63920, Note_on_c, 1, 53, 127
2, 64240, Note_off_c, 1, 53, 0
2, 64240, Note_off_c, 1, 70, 0
2, 64280, Note_on_c, 1, 42, 127
2, 64280, Note_on_c, 1, 68, 127
2, 64480, Note_off_c, 1, 42, 0
2, 64480, Note_off_c, 1, 68, 0
2, 64520, Note_on_c, 1, 42, 127
2, 64520, Note_on_c, 1, 68, 127
2, 64640, Note_off_c, 1, 68, 0
2, 64680, Note_on_c, 1, 54, 127
2, 64680, Note_on_c, 1, 69, 127
2, 65000, Note_off_c, 1, 42, 0
2, 65000, Note_off_c, 1, 54, 0
2, 65000, Note_off_c, 1, 69, 0
2, 65040, Note_on_c, 1, 70, 127
2, 65360, Note_off_c, 1, 70, 0
2, 65400, Note_on_c, 1, 41, 127
2, 65400, Note_on_c, 1, 69, 127
2, 65720, Note_off_c, 1, 41, 0
2, 65800, Note_on_c, 1, 41, 127
2, 66120, Note_off_c, 1, 41, 0
2, 66160, Note_on_c, 1, 48, 127
2, 66480, Note_off_c, 1, 48, 0
2, 66480, Note_off_c, 1, 69, 0
2, 66560, Note_on_c, 1, 37, 127
2, 66560, Note_on_c, 1, 77, 127
2, 66880, Note_off_c, 1, 37, 0
2, 66920, Note_on_c, 1, 44, 127
2, 67280, Note_off_c, 1, 44, 0
2, 67320, Note_on_c, 1, 49, 127
2, 67640, Note_off_c, 1, 49, 0
2, 67680, Note_on_c, 1, 73, 127
2, 68000, Note_off_c, 1, 73, 0
2, 68040, Note_on_c, 1, 37, 127
2, 68400, Note_off_c, 1, 37, 0
2, 68400, Note_off_c, 1, 77, 0
2, 68440, Note_on_c, 1, 44, 127
2, 68440, Note_on_c, 1, 77, 127
2, 68720, Note_off_c, 1, 44, 0
2, 68720, Note_off_c, 1, 77, 0
2, 68760, Note_on_c, 1, 44, 127
2, 68760, Note_on_c, 1, 77, 127
2, 68800, Note_off_c, 1, 44, 0
2, 68840, Note_on_c, 1, 49, 127
2, 69160, Note_off_c, 1, 49, 0
2, 69200, Note_on_c, 1, 44, 127
2, 69520, Note_off_c, 1, 44, 0
2, 69560, Note_on_c, 1, 37, 127
2, 69880, Note_off_c, 1, 37, 0
2, 69880, Note_off_c, 1, 77, 0
2, 69920, Note_on_c, 1, 42, 127
2, 69920, Note_on_c, 1, 82, 127
2, 70280, Note_off_c, 1, 42, 0
2, 70320, Note_on_c, 1, 49, 127
2, 70640, Note_off_c, 1, 49, 0
2, 70680, Note_on_c, 1, 54, 127
2, 70880, Note_off_c, 1, 54, 0
2, 70880, Note_off_c, 1, 82, 0
2, 70920, Note_on_c, 1, 54, 127
2, 70920, Note_on_c, 1, 82, 127
2, 71040, Note_off_c, 1, 54, 0
2, 71040, Note_off_c, 1, 82, 0
2, 71080, Note_on_c, 1, 47, 127
2, 71080, Note_on_c, 1, 82, 127
2, 71400, Note_off_c, 1, 47, 0
2, 71400, Note_off_c, 1, 82, 0
2, 71440, Note_on_c, 1, 53, 127
2, 71440, Note_on_c, 1, 83, 127
2, 71760, Note_off_c, 1, 53, 0
2, 71800, Note_on_c, 1, 61, 127
2, 72160, Note_off_c, 1, 61, 0
2, 72160, Note_off_c, 1, 83, 0
2, 72200, Note_on_c, 1, 54, 127
2, 72200, Note_on_c, 1, 82, 127
2, 72520, Note_off_c, 1, 54, 0
2, 72560, Note_on_c, 1, 54, 127
2, 72880, Note_off_c, 1, 54, 0
2, 72920, Note_on_c, 1, 61, 127
2, 73000, Note_off_c, 1, 82, 0
2, 73040, Note_off_c, 1, 61, 0
2, 73080, Note_on_c, 1, 61, 127
2, 73080, Note_on_c, 1, 82, 127
2, 73280, Note_off_c, 1, 61, 0
2, 73320, Note_on_c, 1, 55, 127
2, 73680, Note_off_c, 1, 55, 0
2, 73680, Note_off_c, 1, 82, 0
2, 73720, Note_on_c, 1, 60, 127
2, 73720, Note_on_c, 1, 80, 127
2, 74040, Note_off_c, 1, 60, 0
2, 74040, Note_off_c, 1, 80, 0
2, 74080, Note_on_c, 1, 53, 127
2, 74080, Note_on_c, 1, 78, 127
2, 74440, Note_off_c, 1, 53, 0
2, 74480, Note_on_c, 1, 53, 127
2, 74800, Note_off_c, 1, 53, 0
2, 74800, Note_off_c, 1, 78, 0
2, 74840, Note_on_c, 1, 61, 127
2, 74840, Note_on_c, 1, 77, 127
2, 75160, Note_off_c, 1, 61, 0
2, 75160, Note_off_c, 1, 77, 0
2, 75240, Note_on_c, 1, 56, 127
2, 75240, Note_on_c, 1, 75, 127
2, 75560, Note_off_c, 1, 56, 0
2, 75560, Note_off_c, 1, 75, 0
2, 75600, Note_on_c, 1, 56, 127
2, 75600, Note_on_c, 1, 73, 127
2, 75960, Note_off_c, 1, 56, 0
2, 75960, Note_off_c, 1, 73, 0
2, 76000, Note_on_c, 1, 60, 127
2, 76000, Note_on_c, 1, 75, 127
2, 76320, Note_off_c, 1, 60, 0
2, 76320, Note_off_c, 1, 75, 0
2, 76360, Note_on_c, 1, 53, 127
2, 76360, Note_on_c, 1, 73, 127
2, 76680, Note_off_c, 1, 53, 0
2, 76720, Note_on_c, 1, 56, 127
2, 77040, Note_off_c, 1, 56, 0
2, 77040, Note_off_c, 1, 73, 0
2, 77080, Note_on_c, 1, 53, 127
2, 77080, Note_on_c, 1, 61, 127
2, 77440, Note_off_c, 1, 53, 0
2, 77440, Note_off_c, 1, 61, 0
2, 77480, Note_on_c, 1, 61, 127
2, 77520, Note_on_c, 1, 73, 127
2, 77840, Note_off_c, 1, 61, 0
2, 77840, Note_off_c, 1, 73, 0
2, 77880, Note_on_c, 1, 44, 127
2, 77880, Note_on_c, 1, 68, 127
2, 78200, Note_off_c, 1, 44, 0
2, 78200, Note_off_c, 1, 68, 0
2, 78240, Note_on_c, 1, 49, 127
2, 78240, Note_on_c, 1, 73, 127
2, 78560, Note_off_c, 1, 49, 0
2, 78560, Note_off_c, 1, 73, 0
2, 78600, Note_on_c, 1, 51, 127
2, 78600, Note_on_c, 1, 63, 127
2, 79320, Note_off_c, 1, 51, 0
2, 79320, Note_off_c, 1, 63, 0
2, 79360, Note_on_c, 1, 37, 127
2, 79360, Note_on_c, 1, 65, 127
2, 79600, Note_off_c, 1, 37, 0
2, 79600, Note_off_c, 1, 65, 0
2, 79640, Note_on_c, 1, 37, 127
2, 79640, Note_on_c, 1, 65, 127
2, 79720, Note_off_c, 1, 37, 0
2, 79760, Note_on_c, 1, 53, 127
2, 80080, Note_off_c, 1, 53, 0
2, 80120, Note_on_c, 1, 37, 127
2, 80440, Note_off_c, 1, 37, 0
2, 80480, Note_on_c, 1, 39, 127
2, 80840, Note_off_c, 1, 39, 0
2, 80880, Note_on_c, 1, 51, 127
2, 80880, Note_on_c, 1, 53, 127
2, 81200, Note_off_c, 1, 51, 0
2, 81200, Note_off_c, 1, 53, 0
2, 81200, Note_off_c, 1, 65, 0
2, 81240, Note_on_c, 1, 43, 127
2, 81240, Note_on_c, 1, 70, 127
2, 81560, Note_off_c, 1, 43, 0
2, 81600, Note_on_c, 1, 41, 127
2, 81880, Note_off_c, 1, 41, 0
2, 81880, Note_off_c, 1, 70, 0
2, 81920, Note_on_c, 1, 41, 127
2, 81920, Note_on_c, 1, 70, 127
2, 82000, Note_off_c, 1, 41, 0
2, 82040, Note_on_c, 1, 41, 127
2, 82360, Note_off_c, 1, 41, 0
2, 82360, Note_off_c, 1, 70, 0
2, 82400, Note_on_c, 1, 42, 127
2, 82400, Note_on_c, 1, 63, 127
2, 82720, Note_off_c, 1, 42, 0
2, 82720, Note_off_c, 1, 63, 0
2, 82760, Note_on_c, 1, 70, 127
2, 83080, Note_off_c, 1, 70, 0
2, 83120, Note_on_c, 1, 37, 127
2, 83120, Note_on_c, 1, 77, 127
2, 83440, Note_off_c, 1, 37, 0
2, 83480, Note_on_c, 1, 44, 127
2, 83840, Note_off_c, 1, 44, 0
2, 83880, Note_off_c, 1, 77, 0
2, 83920, Note_on_c, 1, 37, 127
2, 83920, Note_on_c, 1, 77, 127
2, 84240, Note_off_c, 1, 37, 0
2, 84240, Note_off_c, 1, 77, 0
2, 84280, Note_on_c, 1, 45, 127
2, 84280, Note_on_c, 1, 78, 127
2, 84600, Note_off_c, 1, 45, 0
2, 84640, Note_on_c, 1, 49, 127
2, 84960, Note_off_c, 1, 49, 0
2, 85000, Note_on_c, 1, 56, 127
2, 85360, Note_off_c, 1, 56, 0
2, 85400, Note_on_c, 1, 49, 127
2, 85720, Note_off_c, 1, 49, 0
2, 85760, Note_on_c, 1, 56, 127
2, 85960, Note_off_c, 1, 56, 0
2, 85960, Note_off_c, 1, 78, 0
2, 86000, Note_on_c, 1, 56, 127
2, 86000, Note_on_c, 1, 78, 127
2, 86120, Note_off_c, 1, 56, 0
2, 86120, Note_off_c, 1, 78, 0
2, 86160, Note_on_c, 1, 49, 127
2, 86160, Note_on_c, 1, 77, 127
2, 86480, Note_off_c, 1, 49, 0
2, 86520, Note_on_c, 1, 56, 127
2, 86880, Note_off_c, 1, 56, 0
2, 86920, Note_on_c, 1, 37, 127
2, 87240, Note_off_c, 1, 37, 0
2, 87240, Note_off_c, 1, 77, 0
2, 87280, Note_on_c, 1, 44, 127
2, 87280, Note_on_c, 1, 77, 127
2, 87600, Note_off_c, 1, 44, 0
2, 87640, Note_on_c, 1, 49, 127
2, 87960, Note_off_c, 1, 49, 0
2, 88000, Note_on_c, 1, 61, 127
2, 88200, Note_off_c, 1, 61, 0
2, 88200, Note_off_c, 1, 77, 0
2, 88240, Note_on_c, 1, 61, 127
2, 88240, Note_on_c, 1, 77, 127
2, 88360, Note_off_c, 1, 61, 0
2, 88360, Note_off_c, 1, 77, 0
2, 88400, Note_on_c, 1, 57, 127
2, 88400, Note_on_c, 1, 84, 127
2, 88720, Note_off_c, 1, 57, 0
2, 88760, Note_on_c, 1, 61, 127
2, 89120, Note_off_c, 1, 61, 0
2, 89160, Note_on_c, 1, 53, 127
2, 89160, Note_on_c, 1, 82, 127
2, 89160, Note_off_c, 1, 84, 0
2, 89480, Note_off_c, 1, 53, 0
2, 89480, Note_off_c, 1, 82, 0
2, 89520, Note_on_c, 1, 37, 127
2, 89520, Note_on_c, 1, 78, 127
2, 89840, Note_off_c, 1, 37, 0
2, 89880, Note_on_c, 1, 49, 127
2, 89880, Note_on_c, 1, 77, 127
2, 89880, Note_off_c, 1, 78, 0
2, 90240, Note_off_c, 1, 49, 0
2, 90280, Note_on_c, 1, 54, 127
2, 90400, Note_off_c, 1, 54, 0
2, 90400, Note_off_c, 1, 77, 0
2, 90440, Note_on_c, 1, 54, 127
2, 90440, Note_on_c, 1, 77, 127
2, 90640, Note_off_c, 1, 54, 0
2, 90680, Note_on_c, 1, 61, 127
2, 91000, Note_off_c, 1, 61, 0
2, 91000, Note_off_c, 1, 77, 0
2, 91040, Note_on_c, 1, 46, 127
2, 91040, Note_on_c, 1, 65, 127
2, 91360, Note_off_c, 1, 46, 0
2, 91400, Note_on_c, 1, 51, 127
2, 91720, Note_off_c, 1, 51, 0
2, 91760, Note_on_c, 1, 56, 127
2, 92080, Note_off_c, 1, 56, 0
2, 92080, Note_off_c, 1, 65, 0
2, 92120, Note_on_c, 1, 48, 127
2, 92120, Note_on_c, 1, 68, 127
2, 92480, Note_off_c, 1, 48, 0
2, 92520, Note_on_c, 1, 51, 127
2, 92640, Note_off_c, 1, 51, 0
2, 92640, Note_off_c, 1, 68, 0
2, 92680, Note_on_c, 1, 51, 127
2, 92680, Note_on_c, 1, 68, 127
2, 92840, Note_off_c, 1, 51, 0
2, 92880, Note_on_c, 1, 49, 127
2, 93240, Note_off_c, 1, 49, 0
2, 93240, Note_off_c, 1, 68, 0
2, 93240, Note_on_c, 1, 77, 127
2, 93280, Note_on_c, 1, 56, 127
2, 93600, Note_off_c, 1, 56, 0
2, 93600, Note_off_c, 1, 77, 0
2, 93640, Note_on_c, 1, 49, 127
2, 93640, Note_on_c, 1, 75, 127
2, 93960, Note_off_c, 1, 49, 0
2, 94000, Note_on_c, 1, 56, 127
2, 94320, Note_off_c, 1, 56, 0
2, 94360, Note_on_c, 1, 48, 127
2, 94720, Note_off_c, 1, 48, 0
2, 94760, Note_off_c, 1, 75, 0
2, 94800, Note_on_c, 1, 54, 127
2, 94800, Note_on_c, 1, 75, 127
2, 95120, Note_off_c, 1, 54, 0
2, 95160, Note_on_c, 1, 48, 127
2, 95160, Note_on_c, 1, 56, 127
2, 95160, Note_off_c, 1, 75, 0
2, 95160, Note_on_c, 1, 78, 127
2, 95480, Note_off_c, 1, 56, 0
2, 95520, Note_off_c, 1, 48, 0
2, 95520, Note_on_c, 1, 49, 127
2, 95520, Note_on_c, 1, 56, 127
2, 95520, Note_on_c, 1, 77, 127
2, 95520, Note_off_c, 1, 78, 0
2, 95840, Note_off_c, 1, 49, 0
2, 95840, Note_off_c, 1, 56, 0
2, 95880, Note_on_c, 1, 41, 127
2, 95880, Note_off_c, 1, 77, 0
2, 95880, Note_on_c, 1, 78, 127
2, 96560, Note_off_c, 1, 41, 0
2, 96560, Note_off_c, 1, 78, 0
2, 96600, Note_on_c, 1, 39, 127
2, 96600, Note_on_c, 1, 78, 127
2, 96920, Note_off_c, 1, 39, 0
2, 96920, Note_off_c, 1, 78, 0
2, 96960, Note_on_c, 1, 39, 127
2, 96960, Note_on_c, 1, 78, 127
2, 97000, Note_off_c, 1, 39, 0
2, 97040, Note_on_c, 1, 46, 127
2, 97360, Note_off_c, 1, 46, 0
2, 97400, Note_on_c, 1, 39, 127
2, 97440, Note_off_c, 1, 78, 0
2, 97480, Note_on_c, 1, 77, 127
2, 97720, Note_off_c, 1, 39, 0
2, 97720, Note_off_c, 1, 77, 0
2, 97760, Note_on_c, 1, 39, 127
2, 97760, Note_on_c, 1, 75, 127
2, 98120, Note_off_c, 1, 39, 0
2, 98160, Note_on_c, 1, 46, 127
2, 98480, Note_off_c, 1, 46, 0
2, 98520, Note_on_c, 1, 39, 127
2, 98840, Note_off_c, 1, 39, 0
2, 98880, Note_on_c, 1, 46, 127
2, 99200, Note_off_c, 1, 46, 0
2, 99200, Note_off_c, 1, 75, 0
2, 99240, Note_on_c, 1, 46, 127
2, 99240, Note_on_c, 1, 75, 127
2, 99280, Note_off_c, 1, 46, 0
2, 99280, Note_off_c, 1, 75, 0
2, 99320, Note_on_c, 1, 46, 127
2, 99320, Note_on_c, 1, 78, 127
2, 99640, Note_off_c, 1, 46, 0
2, 99680, Note_on_c, 1, 51, 127
2, 100000, Note_off_c, 1, 51, 0
2, 100040, Note_on_c, 1, 58, 127
2, 100360, Note_off_c, 1, 58, 0
2, 100400, Note_on_c, 1, 51, 127
2, 100760, Note_off_c, 1, 51, 0
2, 100760, Note_off_c, 1, 78, 0
2, 100800, Note_on_c, 1, 46, 127
2, 100800, Note_on_c, 1, 78, 127
2, 101120, Note_off_c, 1, 46, 0
2, 101160, Note_on_c, 1, 51, 127
2, 101480, Note_off_c, 1, 51, 0
2, 101480, Note_off_c, 1, 78, 0
2, 101520, Note_on_c, 1, 78, 127
2, 101560, Note_on_c, 1, 58, 127
2, 101880, Note_off_c, 1, 58, 0
2, 101920, Note_on_c, 1, 51, 127
2, 102240, Note_off_c, 1, 51, 0
2, 102240, Note_off_c, 1, 78, 0
2, 102280, Note_on_c, 1, 46, 127
2, 102280, Note_on_c, 1, 78, 127
2, 102600, Note_off_c, 1, 46, 0
2, 102640, Note_on_c, 1, 51, 127
2, 102960, Note_off_c, 1, 51, 0
2, 103000, Note_on_c, 1, 60, 127
2, 103360, Note_off_c, 1, 60, 0
2, 103400, Note_on_c, 1, 46, 127
2, 103720, Note_off_c, 1, 46, 0
2, 103760, Note_off_c, 1, 78, 0
2, 103800, Note_on_c, 1, 39, 127
2, 103800, Note_on_c, 1, 78, 127
2, 104120, Note_off_c, 1, 39, 0
2, 104120, Note_off_c, 1, 78, 0
2, 104160, Note_on_c, 1, 47, 127
2, 104160, Note_on_c, 1, 80, 127
2, 104480, Note_off_c, 1, 47, 0
2, 104520, Note_on_c, 1, 51, 127
2, 104840, Note_off_c, 1, 51, 0
2, 104880, Note_on_c, 1, 59, 127
2, 105200, Note_off_c, 1, 59, 0
2, 105240, Note_on_c, 1, 51, 127
2, 105600, Note_off_c, 1, 51, 0
2, 105640, Note_on_c, 1, 59, 127
2, 105960, Note_off_c, 1, 59, 0
2, 105960, Note_off_c, 1, 80, 0
2, 106040, Note_on_c, 1, 49, 127
2, 106040, Note_on_c, 1, 77, 127
2, 106360, Note_off_c, 1, 49, 0
2, 106400, Note_on_c, 1, 58, 127
2, 106720, Note_off_c, 1, 58, 0
2, 106760, Note_on_c, 1, 56, 127
2, 107080, Note_off_c, 1, 56, 0
2, 107120, Note_on_c, 1, 49, 127
2, 107480, Note_off_c, 1, 49, 0
2, 107480, Note_off_c, 1, 77, 0
2, 107520, Note_on_c, 1, 53, 127
2, 107520, Note_on_c, 1, 75, 127
2, 107840, Note_off_c, 1, 53, 0
2, 107880, Note_on_c, 1, 49, 127
2, 108160, Note_off_c, 1, 49, 0
2, 108160, Note_off_c, 1, 75, 0
2, 108200, Note_on_c, 1, 49, 127
2, 108200, Note_on_c, 1, 75, 127
2, 108240, Note_off_c, 1, 49, 0
2, 108280, Note_on_c, 1, 53, 127
2, 108600, Note_off_c, 1, 53, 0
2, 108600, Note_off_c, 1, 75, 0
2, 108640, Note_on_c, 1, 49, 127
2, 108640, Note_on_c, 1, 73, 127
2, 108960, Note_off_c, 1, 49, 0
2, 109000, Note_on_c, 1, 58, 127
2, 109320, Note_off_c, 1, 58, 0
2, 109360, Note_on_c, 1, 56, 127
2, 109680, Note_off_c, 1, 56, 0
2, 109680, Note_off_c, 1, 73, 0
2, 109720, Note_on_c, 1, 59, 127
2, 109720, Note_on_c, 1, 77, 127
2, 110040, Note_off_c, 1, 59, 0
2, 110080, Note_on_c, 1, 49, 127
2, 110280, Note_off_c, 1, 49, 0
2, 110280, Note_off_c, 1, 77, 0
2, 110320, Note_on_c, 1, 49, 127
2, 110320, Note_on_c, 1, 77, 127
2, 110440, Note_off_c, 1, 49, 0
2, 110480, Note_on_c, 1, 59, 127
2, 110800, Note_off_c, 1, 59, 0
2, 110840, Note_on_c, 1, 49, 127
2, 111160, Note_off_c, 1, 49, 0
2, 111160, Note_off_c, 1, 77, 0
2, 111200, Note_on_c, 1, 54, 127
2, 111200, Note_on_c, 1, 78, 127
2, 111520, Note_off_c, 1, 54, 0
2, 111560, Note_on_c, 1, 49, 127
2, 111920, Note_off_c, 1, 49, 0
2, 111960, Note_on_c, 1, 54, 127
2, 112280, Note_off_c, 1, 54, 0
2, 112280, Note_off_c, 1, 78, 0
2, 112320, Note_on_c, 1, 42, 127
2, 112320, Note_on_c, 1, 78, 127
2, 112520, Note_off_c, 1, 42, 0
2, 112520, Note_off_c, 1, 78, 0
2, 112560, Note_on_c, 1, 42, 127
2, 112560, Note_on_c, 1, 78, 127
2, 112680, Note_off_c, 1, 42, 0
2, 112680, Note_off_c, 1, 78, 0
2, 112720, Note_on_c, 1, 49, 127
2, 112720, Note_on_c, 1, 83, 127
2, 113040, Note_off_c, 1, 49, 0
2, 113040, Note_off_c, 1, 83, 0
2, 113080, Note_on_c, 1, 58, 127
2, 113080, Note_on_c, 1, 82, 127
2, 113400, Note_off_c, 1, 58, 0
2, 113400, Note_off_c, 1, 82, 0
2, 113440, Note_on_c, 1, 54, 127
2, 113440, Note_on_c, 1, 73, 127
2, 113760, Note_off_c, 1, 73, 0
2, 113800, Note_on_c, 1, 77, 127
2, 114160, Note_off_c, 1, 54, 0
2, 114160, Note_off_c, 1, 77, 0
2, 114200, Note_on_c, 1, 49, 127
2, 114200, Note_on_c, 1, 82, 127
2, 114520, Note_off_c, 1, 49, 0
2, 114520, Note_off_c, 1, 82, 0
2, 114560, Note_on_c, 1, 54, 127
2, 114560, Note_on_c, 1, 82, 127
2, 114720, Note_off_c, 1, 54, 0
2, 114720, Note_off_c, 1, 82, 0
2, 114760, Note_on_c, 1, 54, 127
2, 114760, Note_on_c, 1, 82, 127
2, 114920, Note_off_c, 1, 54, 0
2, 114960, Note_on_c, 1, 61, 127
2, 115280, Note_off_c, 1, 61, 0
2, 115280, Note_off_c, 1, 82, 0
2, 115320, Note_on_c, 1, 49, 127
2, 115320, Note_on_c, 1, 80, 127
2, 115640, Note_off_c, 1, 49, 0
2, 115680, Note_on_c, 1, 52, 127
2, 116040, Note_off_c, 1, 52, 0
2, 116080, Note_on_c, 1, 61, 127
2, 116400, Note_off_c, 1, 61, 0
2, 116440, Note_on_c, 1, 49, 127
2, 116760, Note_off_c, 1, 49, 0
2, 116800, Note_on_c, 1, 54, 127
2, 116920, Note_off_c, 1, 54, 0
2, 116920, Note_off_c, 1, 80, 0
2, 116960, Note_on_c, 1, 54, 127
2, 116960, Note_on_c, 1, 80, 127
2, 117200, Note_off_c, 1, 54, 0
2, 117240, Note_on_c, 1, 49, 127
2, 117560, Note_off_c, 1, 49, 0
2, 117560, Note_off_c, 1, 80, 0
2, 117600, Note_on_c, 1, 58, 127
2, 117600, Note_on_c, 1, 78, 127
2, 117960, Note_off_c, 1, 58, 0
2, 118000, Note_on_c, 1, 42, 127
2, 118320, Note_off_c, 1, 42, 0
2, 118320, Note_off_c, 1, 78, 0
2, 118360, Note_on_c, 1, 49, 127
2, 118360, Note_on_c, 1, 82, 127
2, 118680, Note_off_c, 1, 49, 0
2, 118720, Note_on_c, 1, 54, 127
2, 119080, Note_off_c, 1, 54, 0
2, 119080, Note_off_c, 1, 82, 0
2, 119160, Note_on_c, 1, 61, 127
2, 119160, Note_on_c, 1, 83, 127
2, 119440, Note_off_c, 1, 83, 0
2, 119480, Note_off_c, 1, 61, 0
2, 119520, Note_on_c, 1, 54, 127
2, 119520, Note_on_c, 1, 82, 127
2, 119840, Note_off_c, 1, 54, 0
2, 119880, Note_on_c, 1, 61, 127
2, 120000, Note_off_c, 1, 61, 0
2, 120000, Note_off_c, 1, 82, 0
2, 120040, End_track
3, 0, Start_track
3, 0, Title_t, "MIDI"
3, 1536, End_track
0, 0, End_of_file
