0, 0, Header, 1, 3, 192
1, 0, Start_track
1, 0, Time_signature, 4, 2, 24, 8
1, 0, Tempo, 500000
1, 120040, End_track
2, 0, Start_track
2, 0, Text_t, "random instrument: random person i dunno whatev"
2, 0, Title_t, "Track 1"
2, 0, Note_on_c, 1, 40, 127
2, 0, Note_on_c, 1, 48, 127
2, 0, Note_on_c, 1, 56, 127
2, 0, Note_on_c, 1, 60, 127
2, 40, Note_off_c, 1, 40, 0
2, 40, Note_off_c, 1, 48, 0
2, 40, Note_on_c, 1, 55, 127
2, 40, Note_off_c, 1, 56, 0
2, 40, Note_off_c, 1, 60, 0
2, 40, Note_on_c, 1, 72, 127
2, 40, Note_on_c, 1, 75, 127
2, 40, Note_on_c, 1, 79, 127
2, 40, Note_on_c, 1, 84, 127
2, 80, Note_off_c, 1, 55, 0
2, 80, Note_off_c, 1, 72, 0
2, 80, Note_off_c, 1, 75, 0
2, 80, Note_off_c, 1, 79, 0
2, 80, Note_off_c, 1, 84, 0
2, 120, Note_on_c, 1, 50, 127
2, 120, Note_on_c, 1, 59, 127
2, 120, Note_on_c, 1, 62, 127
2, 120, Note_on_c, 1, 78, 127
2, 160, Note_on_c, 1, 41, 127
2, 160, Note_on_c, 1, 53, 127
2, 160, Note_off_c, 1, 59, 0
2, 160, Note_off_c, 1, 62, 0
2, 160, Note_off_c, 1, 78, 0
2, 160, Note_on_c, 1, 81, 127
2, 160, Note_on_c, 1, 86, 127
2, 200, Note_on_c, 1, 35, 127
2, 200, Note_on_c, 1, 39, 127
2, 200, Note_off_c, 1, 41, 0
2, 200, Note_on_c, 1, 47, 127
2, 200, Note_off_c, 1, 53, 0
2, 200, Note_off_c, 1, 81, 0
2, 200, Note_off_c, 1, 86, 0
2, 240, Note_on_c, 1, 34, 127
2, 240, Note_off_c, 1, 35, 0
2, 240, Note_off_c, 1, 39, 0
2, 240, Note_on_c, 1, 40, 127
2, 240, Note_off_c, 1, 47, 0
2, 240, Note_off_c, 1, 50, 0
2, 240, Note_on_c, 1, 52, 127
2, 240, Note_on_c, 1, 55, 127
2, 240, Note_on_c, 1, 58, 127
2, 240, Note_on_c, 1, 61, 127
2, 280, Note_on_c, 1, 26, 127
2, 280, Note_off_c, 1, 34, 0
2, 280, Note_on_c, 1, 38, 127
2, 280, Note_off_c, 1, 40, 0
2, 280, Note_on_c, 1, 50, 127
2, 280, Note_off_c, 1, 52, 0
2, 280, Note_on_c, 1, 53, 127
2, 280, Note_off_c, 1, 55, 0
2, 280, Note_off_c, 1, 58, 0
2, 280, Note_on_c, 1, 59, 127
2, 280, Note_off_c, 1, 61, 0
2, 280, Note_on_c, 1, 62, 127
2, 320, Note_off_c, 1, 26, 0
2, 320, Note_on_c, 1, 36, 127
2, 320, Note_off_c, 1, 38, 0
2, 320, Note_on_c, 1, 42, 127
2, 320, Note_on_c, 1, 48, 127
2, 320, Note_off_c, 1, 50, 0
2, 320, Note_off_c, 1, 53, 0
2, 320, Note_off_c, 1, 59, 0
2, 320, Note_off_c, 1, 62, 0
2, 320, Note_on_c, 1, 66, 127
2, 320, Note_on_c, 1, 69, 127
2, 360, Note_off_c, 1, 36, 0
2, 360, Note_off_c, 1, 42, 0
2, 360, Note_off_c, 1, 48, 0
2, 360, Note_on_c, 1, 51, 127
2, 360, Note_on_c, 1, 59, 127
2, 360, Note_on_c, 1, 75, 127
2, 360, Note_on_c, 1, 85, 127
2, 400, Note_off_c, 1, 66, 0
2, 400, Note_off_c, 1, 69, 0
2, 400, Note_on_c, 1, 71, 127
2, 400, Note_off_c, 1, 85, 0
2, 440, Note_on_c, 1, 38, 127
2, 440, Note_on_c, 1, 45, 127
2, 440, Note_on_c, 1, 47, 127
2, 440, Note_off_c, 1, 51, 0
2, 440, Note_on_c, 1, 56, 127
2, 440, Note_off_c, 1, 59, 0
2, 440, Note_on_c, 1, 68, 127
2, 440, Note_off_c, 1, 71, 0
2, 440, Note_off_c, 1, 75, 0
2, 480, Note_off_c, 1, 38, 0
2, 480, Note_off_c, 1, 45, 0
2, 480, Note_off_c, 1, 47, 0
2, 480, Note_on_c, 1, 58, 127
2, 480, Note_on_c, 1, 62, 127
2, 480, Note_on_c, 1, 67, 127
2, 480, Note_off_c, 1, 68, 0
2, 520, Note_on_c, 1, 43, 127
2, 520, Note_on_c, 1, 46, 127
2, 520, Note_on_c, 1, 51, 127
2, 520, Note_on_c, 1, 55, 127
2, 520, Note_off_c, 1, 56, 0
2, 520, Note_off_c, 1, 58, 0
2, 520, Note_off_c, 1, 62, 0
2, 520, Note_off_c, 1, 67, 0
2, 560, Note_off_c, 1, 43, 0
2, 560, Note_off_c, 1, 46, 0
2, 560, Note_on_c, 1, 71, 127
2, 600, Note_on_c, 1, 37, 127
2, 600, Note_on_c, 1, 44, 127
2, 600, Note_off_c, 1, 51, 0
2, 600, Note_off_c, 1, 55, 0
2, 600, Note_on_c, 1, 68, 127
2, 600, Note_off_c, 1, 71, 0
2, 600, Note_on_c, 1, 89, 127
2, 640, Note_on_c, 1, 34, 127
2, 640, Note_off_c, 1, 37, 0
2, 640, Note_on_c, 1, 41, 127
2, 640, Note_off_c, 1, 44, 0
2, 640, Note_on_c, 1, 53, 127
2, 640, Note_on_c, 1, 58, 127
2, 640, Note_on_c, 1, 62, 127
2, 640, Note_off_c, 1, 68, 0
2, 640, Note_on_c, 1, 74, 127
2, 640, Note_off_c, 1, 89, 0
2, 680, Note_off_c, 1, 34, 0
2, 680, Note_off_c, 1, 41, 0
2, 680, Note_on_c, 1, 48, 127
2, 680, Note_off_c, 1, 53, 0
2, 680, Note_off_c, 1, 58, 0
2, 680, Note_off_c, 1, 62, 0
2, 680, Note_on_c, 1, 68, 127
2, 680, Note_off_c, 1, 74, 0
2, 680, Note_on_c, 1, 75, 127
2, 680, Note_on_c, 1, 78, 127
2, 680, Note_on_c, 1, 82, 127
2, 720, Note_on_c, 1, 41, 127
2, 720, Note_off_c, 1, 48, 0
2, 720, Note_on_c, 1, 51, 127
2, 720, Note_on_c, 1, 53, 127
2, 720, Note_off_c, 1, 68, 0
2, 720, Note_on_c, 1, 72, 127
2, 720, Note_off_c, 1, 75, 0
2, 720, Note_off_c, 1, 78, 0
2, 720, Note_off_c, 1, 82, 0
2, 760, Note_off_c, 1, 41, 0
2, 760, Note_off_c, 1, 51, 0
2, 760, Note_on_c, 1, 52, 127
2, 760, Note_off_c, 1, 53, 0
2, 760, Note_on_c, 1, 56, 127
2, 760, Note_on_c, 1, 62, 127
2, 760, Note_off_c, 1, 72, 0
2, 760, Note_on_c, 1, 78, 127
2, 800, Note_on_c, 1, 46, 127
2, 800, Note_off_c, 1, 52, 0
2, 800, Note_off_c, 1, 56, 0
2, 800, Note_off_c, 1, 62, 0
2, 800, Note_on_c, 1, 70, 127
2, 800, Note_on_c, 1, 74, 127
2, 800, Note_off_c, 1, 78, 0
2, 800, Note_on_c, 1, 79, 127
2, 800, Note_on_c, 1, 82, 127
2, 840, Note_off_c, 1, 46, 0
2, 840, Note_on_c, 1, 53, 127
2, 840, Note_on_c, 1, 59, 127
2, 840, Note_on_c, 1, 63, 127
2, 840, Note_on_c, 1, 68, 127
2, 840, Note_off_c, 1, 70, 0
2, 840, Note_off_c, 1, 74, 0
2, 840, Note_off_c, 1, 79, 0
2, 840, Note_on_c, 1, 80, 127
2, 840, Note_off_c, 1, 82, 0
2, 840, Note_on_c, 1, 83, 127
2, 880, Note_on_c, 1, 44, 127
2, 880, Note_on_c, 1, 51, 127
2, 880, Note_off_c, 1, 53, 0
2, 880, Note_off_c, 1, 59, 0
2, 880, Note_off_c, 1, 80, 0
2, 880, Note_off_c, 1, 83, 0
2, 920, Note_off_c, 1, 44, 0
2, 920, Note_on_c, 1, 47, 127
2, 920, Note_off_c, 1, 51, 0
2, 920, Note_on_c, 1, 52, 127
2, 920, Note_on_c, 1, 55, 127
2, 920, Note_on_c, 1, 59, 127
2, 920, Note_off_c, 1, 63, 0
2, 920, Note_off_c, 1, 68, 0
2, 920, Note_on_c, 1, 88, 127
2, 960, Note_on_c, 1, 34, 127
2, 960, Note_off_c, 1, 47, 0
2, 960, Note_off_c, 1, 52, 0
2, 960, Note_off_c, 1, 55, 0
2, 960, Note_off_c, 1, 59, 0
2, 960, Note_on_c, 1, 82, 127
2, 960, Note_on_c, 1, 86, 127
2, 960, Note_off_c, 1, 88, 0
2, 1000, Note_off_c, 1, 34, 0
2, 1000, Note_on_c, 1, 37, 127
2, 1000, Note_on_c, 1, 49, 127
2, 1000, Note_on_c, 1, 54, 127
2, 1000, Note_on_c, 1, 58, 127
2, 1000, Note_on_c, 1, 66, 127
2, 1000, Note_off_c, 1, 82, 0
2, 1000, Note_off_c, 1, 86, 0
2, 1040, Note_off_c, 1, 37, 0
2, 1040, Note_on_c, 1, 40, 127
2, 1040, Note_off_c, 1, 49, 0
2, 1040, Note_on_c, 1, 52, 127
2, 1040, Note_off_c, 1, 54, 0
2, 1040, Note_off_c, 1, 58, 0
2, 1040, Note_on_c, 1, 59, 127
2, 1040, Note_on_c, 1, 62, 127
2, 1040, Note_off_c, 1, 66, 0
2, 1040, Note_on_c, 1, 68, 127
2, 1040, Note_on_c, 1, 94, 127
2, 1080, Note_on_c, 1, 39, 127
2, 1080, Note_off_c, 1, 40, 0
2, 1080, Note_on_c, 1, 46, 127
2, 1080, Note_on_c, 1, 51, 127
2, 1080, Note_off_c, 1, 52, 0
2, 1080, Note_off_c, 1, 59, 0
2, 1080, Note_off_c, 1, 62, 0
2, 1080, Note_on_c, 1, 65, 127
2, 1080, Note_off_c, 1, 68, 0
2, 1080, Note_on_c, 1, 69, 127
2, 1080, Note_on_c, 1, 75, 127
2, 1080, Note_on_c, 1, 78, 127
2, 1080, Note_on_c, 1, 87, 127
2, 1080, Note_off_c, 1, 94, 0
2, 1120, Note_off_c, 1, 39, 0
2, 1120, Note_off_c, 1, 46, 0
2, 1120, Note_off_c, 1, 51, 0
2, 1120, Note_on_c, 1, 53, 127
2, 1120, Note_on_c, 1, 62, 127
2, 1120, Note_off_c, 1, 69, 0
2, 1120, Note_off_c, 1, 75, 0
2, 1120, Note_off_c, 1, 78, 0
2, 1120, Note_on_c, 1, 79, 127
2, 1120, Note_on_c, 1, 91, 127
2, 1160, Note_off_c, 1, 53, 0
2, 1160, Note_on_c, 1, 54, 127
2, 1160, Note_on_c, 1, 60, 127
2, 1160, Note_off_c, 1, 62, 0
2, 1160, Note_off_c, 1, 65, 0
2, 1160, Note_on_c, 1, 66, 127
2, 1160, Note_on_c, 1, 75, 127
2, 1160, Note_off_c, 1, 79, 0
2, 1160, Note_on_c, 1, 84, 127
2, 1160, Note_off_c, 1, 87, 0
2, 1160, Note_off_c, 1, 91, 0
2, 1200, Note_on_c, 1, 46, 127
2, 1200, Note_off_c, 1, 54, 0
2, 1200, Note_off_c, 1, 60, 0
2, 1200, Note_on_c, 1, 65, 127
2, 1200, Note_off_c, 1, 66, 0
2, 1200, Note_on_c, 1, 70, 127
2, 1200, Note_on_c, 1, 77, 127
2, 1200, Note_off_c, 1, 84, 0
2, 1240, Note_off_c, 1, 46, 0
2, 1240, Note_on_c, 1, 55, 127
2, 1240, Note_off_c, 1, 65, 0
2, 1240, Note_off_c, 1, 70, 0
2, 1240, Note_off_c, 1, 75, 0
2, 1240, Note_on_c, 1, 80, 127
2, 1280, Note_on_c, 1, 39, 127
2, 1280, Note_on_c, 1, 46, 127
2, 1280, Note_on_c, 1, 49, 127
2, 1280, Note_on_c, 1, 51, 127
2, 1280, Note_off_c, 1, 55, 0
2, 1280, Note_on_c, 1, 67, 127
2, 1280, Note_off_c, 1, 77, 0
2, 1280, Note_off_c, 1, 80, 0
2, 1320, Note_off_c, 1, 39, 0
2, 1320, Note_off_c, 1, 46, 0
2, 1320, Note_off_c, 1, 49, 0
2, 1320, Note_off_c, 1, 51, 0
2, 1320, Note_on_c, 1, 62, 127
2, 1320, Note_on_c, 1, 66, 127
2, 1320, Note_off_c, 1, 67, 0
2, 1320, Note_on_c, 1, 68, 127
2, 1320, Note_on_c, 1, 85, 127
2, 1360, Note_on_c, 1, 43, 127
2, 1360, Note_on_c, 1, 46, 127
2, 1360, Note_on_c, 1, 51, 127
2, 1360, Note_on_c, 1, 58, 127
2, 1360, Note_off_c, 1, 62, 0
2, 1360, Note_off_c, 1, 66, 0
2, 1360, Note_on_c, 1, 67, 127
2, 1360, Note_off_c, 1, 68, 0
2, 1360, Note_off_c, 1, 85, 0
2, 1400, Note_off_c, 1, 43, 0
2, 1400, Note_off_c, 1, 46, 0
2, 1400, Note_off_c, 1, 51, 0
2, 1400, Note_on_c, 1, 66, 127
2, 1400, Note_off_c, 1, 67, 0
2, 1400, Note_on_c, 1, 70, 127
2, 1400, Note_on_c, 1, 73, 127
2, 1400, Note_on_c, 1, 75, 127
2, 1400, Note_on_c, 1, 85, 127
2, 1440, Note_off_c, 1, 58, 0
2, 1440, Note_off_c, 1, 66, 0
2, 1440, Note_on_c, 1, 68, 127
2, 1440, Note_off_c, 1, 70, 0
2, 1440, Note_on_c, 1, 72, 127
2, 1440, Note_off_c, 1, 73, 0
2, 1440, Note_on_c, 1, 78, 127
2, 1440, Note_off_c, 1, 85, 0
2, 1440, Note_on_c, 1, 93, 127
2, 1480, Note_on_c, 1, 40, 127
2, 1480, Note_on_c, 1, 54, 127
2, 1480, Note_on_c, 1, 58, 127
2, 1480, Note_on_c, 1, 61, 127
2, 1480, Note_on_c, 1, 66, 127
2, 1480, Note_off_c, 1, 68, 0
2, 1480, Note_off_c, 1, 72, 0
2, 1480, Note_off_c, 1, 75, 0
2, 1480, Note_off_c, 1, 78, 0
2, 1480, Note_off_c, 1, 93, 0
2, 1520, Note_off_c, 1, 40, 0
2, 1520, Note_off_c, 1, 54, 0
2, 1520, Note_off_c, 1, 58, 0
2, 1520, Note_off_c, 1, 61, 0
2, 1520, Note_off_c, 1, 66, 0
2, 1520, Note_on_c, 1, 70, 127
2, 1520, Note_on_c, 1, 77, 127
2, 1520, Note_on_c, 1, 79, 127
2, 1520, Note_on_c, 1, 84, 127
2, 1560, Note_on_c, 1, 37, 127
2, 1560, Note_on_c, 1, 64, 127
2, 1560, Note_on_c, 1, 67, 127
2, 1560, Note_off_c, 1, 70, 0
2, 1560, Note_on_c, 1, 73, 127
2, 1560, Note_off_c, 1, 77, 0
2, 1560, Note_off_c, 1, 79, 0
2, 1560, Note_off_c, 1, 84, 0
2, 1600, Note_off_c, 1, 37, 0
2, 1600, Note_on_c, 1, 51, 127
2, 1600, Note_on_c, 1, 54, 127
2, 1600, Note_on_c, 1, 59, 127
2, 1600, Note_off_c, 1, 64, 0
2, 1600, Note_off_c, 1, 67, 0
2, 1600, Note_off_c, 1, 73, 0
2, 1600, Note_on_c, 1, 87, 127
2, 1640, Note_on_c, 1, 46, 127
2, 1640, Note_off_c, 1, 51, 0
2, 1640, Note_on_c, 1, 53, 127
2, 1640, Note_off_c, 1, 54, 0
2, 1640, Note_off_c, 1, 59, 0
2, 1640, Note_on_c, 1, 60, 127
2, 1640, Note_on_c, 1, 63, 127
2, 1640, Note_on_c, 1, 75, 127
2, 1640, Note_off_c, 1, 87, 0
2, 1680, Note_on_c, 1, 36, 127
2, 1680, Note_on_c, 1, 43, 127
2, 1680, Note_off_c, 1, 46, 0
2, 1680, Note_on_c, 1, 48, 127
2, 1680, Note_on_c, 1, 52, 127
2, 1680, Note_off_c, 1, 53, 0
2, 1680, Note_off_c, 1, 63, 0
2, 1680, Note_off_c, 1, 75, 0
2, 1680, Note_on_c, 1, 87, 127
2, 1720, Note_off_c, 1, 36, 0
2, 1720, Note_off_c, 1, 43, 0
2, 1720, Note_off_c, 1, 48, 0
2, 1720, Note_on_c, 1, 50, 127
2, 1720, Note_off_c, 1, 52, 0
2, 1720, Note_on_c, 1, 57, 127
2, 1720, Note_off_c, 1, 60, 0
2, 1720, Note_on_c, 1, 63, 127
2, 1720, Note_on_c, 1, 72, 127
2, 1720, Note_off_c, 1, 87, 0
2, 1760, Note_off_c, 1, 50, 0
2, 1760, Note_on_c, 1, 54, 127
2, 1760, Note_off_c, 1, 57, 0
2, 1760, Note_on_c, 1, 61, 127
2, 1760, Note_off_c, 1, 63, 0
2, 1760, Note_on_c, 1, 65, 127
2, 1760, Note_off_c, 1, 72, 0
2, 1760, Note_on_c, 1, 77, 127
2, 1760, Note_on_c, 1, 85, 127
2, 1800, Note_off_c, 1, 54, 0
2, 1800, Note_on_c, 1, 55, 127
2, 1800, Note_on_c, 1, 60, 127
2, 1800, Note_off_c, 1, 61, 0
2, 1800, Note_off_c, 1, 65, 0
2, 1800, Note_off_c, 1, 77, 0
2, 1800, Note_on_c, 1, 78, 127
2, 1800, Note_on_c, 1, 81, 127
2, 1800, Note_off_c, 1, 85, 0
2, 1800, Note_on_c, 1, 87, 127
2, 1840, Note_off_c, 1, 55, 0
2, 1840, Note_off_c, 1, 60, 0
2, 1840, Note_on_c, 1, 63, 127
2, 1840, Note_on_c, 1, 72, 127
2, 1840, Note_off_c, 1, 78, 0
2, 1840, Note_off_c, 1, 81, 0
2, 1840, Note_off_c, 1, 87, 0
2, 1840, Note_on_c, 1, 91, 127
2, 1880, Note_on_c, 1, 60, 127
2, 1880, Note_off_c, 1, 63, 0
2, 1880, Note_on_c, 1, 67, 127
2, 1880, Note_on_c, 1, 70, 127
2, 1880, Note_off_c, 1, 72, 0
2, 1880, Note_on_c, 1, 77, 127
2, 1880, Note_on_c, 1, 89, 127
2, 1880, Note_off_c, 1, 91, 0
2, 1920, Note_off_c, 1, 60, 0
2, 1920, Note_off_c, 1, 67, 0
2, 1920, Note_off_c, 1, 70, 0
2, 1920, Note_off_c, 1, 77, 0
2, 1920, Note_off_c, 1, 89, 0
2, 1960, Note_on_c, 1, 28, 127
2, 1960, Note_on_c, 1, 40, 127
2, 1960, Note_on_c, 1, 69, 127
2, 2000, Note_off_c, 1, 28, 0
2, 2000, Note_off_c, 1, 40, 0
2, 2000, Note_on_c, 1, 62, 127
2, 2000, Note_off_c, 1, 69, 0
2, 2000, Note_on_c, 1, 70, 127
2, 2000, Note_on_c, 1, 91, 127
2, 2040, Note_on_c, 1, 46, 127
2, 2040, Note_on_c, 1, 53, 127
2, 2040, Note_on_c, 1, 58, 127
2, 2040, Note_on_c, 1, 65, 127
2, 2040, Note_off_c, 1, 70, 0
2, 2040, Note_on_c, 1, 77, 127
2, 2040, Note_on_c, 1, 89, 127
2, 2040, Note_off_c, 1, 91, 0
2, 2080, Note_off_c, 1, 46, 0
2, 2080, Note_off_c, 1, 53, 0
2, 2080, Note_off_c, 1, 58, 0
2, 2080, Note_off_c, 1, 62, 0
2, 2080, Note_off_c, 1, 65, 0
2, 2080, Note_on_c, 1, 70, 127
2, 2080, Note_off_c, 1, 77, 0
2, 2080, Note_off_c, 1, 89, 0
2, 2080, Note_on_c, 1, 96, 127
2, 2120, Note_on_c, 1, 67, 127
2, 2120, Note_off_c, 1, 70, 0
2, 2120, Note_on_c, 1, 76, 127
2, 2120, Note_on_c, 1, 82, 127
2, 2120, Note_on_c, 1, 88, 127
2, 2160, Note_on_c, 1, 50, 127
2, 2160, Note_on_c, 1, 55, 127
2, 2160, Note_on_c, 1, 57, 127
2, 2160, Note_on_c, 1, 61, 127
2, 2160, Note_off_c, 1, 67, 0
2, 2160, Note_off_c, 1, 76, 0
2, 2160, Note_off_c, 1, 82, 0
2, 2160, Note_on_c, 1, 83, 127
2, 2160, Note_off_c, 1, 88, 0
2, 2160, Note_off_c, 1, 96, 0
2, 2200, Note_off_c, 1, 50, 0
2, 2200, Note_on_c, 1, 53, 127
2, 2200, Note_off_c, 1, 55, 0
2, 2200, Note_off_c, 1, 57, 0
2, 2200, Note_off_c, 1, 61, 0
2, 2200, Note_off_c, 1, 83, 0
2, 2200, Note_on_c, 1, 84, 127
2, 2200, Note_on_c, 1, 93, 127
2, 2200, Note_on_c, 1, 96, 127
2, 2240, Note_off_c, 1, 53, 0
2, 2240, Note_on_c, 1, 61, 127
2, 2240, Note_on_c, 1, 75, 127
2, 2240, Note_on_c, 1, 80, 127
2, 2240, Note_off_c, 1, 84, 0
2, 2240, Note_off_c, 1, 93, 0
2, 2240, Note_off_c, 1, 96, 0
2, 2280, Note_off_c, 1, 61, 0
2, 2280, Note_off_c, 1, 75, 0
2, 2280, Note_off_c, 1, 80, 0
2, 2320, Note_on_c, 1, 64, 127
2, 2320, Note_on_c, 1, 67, 127
2, 2320, Note_on_c, 1, 70, 127
2, 2320, Note_on_c, 1, 76, 127
2, 2320, Note_on_c, 1, 91, 127
2, 2320, Note_on_c, 1, 95, 127
2, 2360, Note_on_c, 1, 47, 127
2, 2360, Note_on_c, 1, 59, 127
2, 2360, Note_off_c, 1, 64, 0
2, 2360, Note_on_c, 1, 65, 127
2, 2360, Note_off_c, 1, 67, 0
2, 2360, Note_on_c, 1, 68, 127
2, 2360, Note_off_c, 1, 70, 0
2, 2360, Note_on_c, 1, 71, 127
2, 2360, Note_off_c, 1, 76, 0
2, 2360, Note_on_c, 1, 83, 127
2, 2360, Note_off_c, 1, 91, 0
2, 2360, Note_off_c, 1, 95, 0
2, 2400, Note_off_c, 1, 47, 0
2, 2400, Note_off_c, 1, 59, 0
2, 2400, Note_on_c, 1, 62, 127
2, 2400, Note_off_c, 1, 65, 0
2, 2400, Note_on_c, 1, 67, 127
2, 2400, Note_off_c, 1, 68, 0
2, 2400, Note_on_c, 1, 70, 127
2, 2400, Note_off_c, 1, 71, 0
2, 2400, Note_off_c, 1, 83, 0
2, 2400, Note_on_c, 1, 94, 127
2, 2400, Note_on_c, 1, 98, 127
2, 2440, Note_on_c, 1, 54, 127
2, 2440, Note_on_c, 1, 57, 127
2, 2440, Note_off_c, 1, 62, 0
2, 2440, Note_on_c, 1, 66, 127
2, 2440, Note_off_c, 1, 67, 0
2, 2440, Note_off_c, 1, 70, 0
2, 2440, Note_on_c, 1, 84, 127
2, 2440, Note_on_c, 1, 87, 127
2, 2440, Note_off_c, 1, 94, 0
2, 2440, Note_off_c, 1, 98, 0
2, 2480, Note_on_c, 1, 48, 127
2, 2480, Note_on_c, 1, 51, 127
2, 2480, Note_off_c, 1, 54, 0
2, 2480, Note_on_c, 1, 56, 127
2, 2480, Note_off_c, 1, 57, 0
2, 2480, Note_off_c, 1, 66, 0
2, 2480, Note_off_c, 1, 84, 0
2, 2480, Note_off_c, 1, 87, 0
2, 2480, Note_on_c, 1, 92, 127
2, 2520, Note_on_c, 1, 35, 127
2, 2520, Note_on_c, 1, 42, 127
2, 2520, Note_off_c, 1, 48, 0
2, 2520, Note_off_c, 1, 51, 0
2, 2520, Note_on_c, 1, 54, 127
2, 2520, Note_off_c, 1, 56, 0
2, 2520, Note_on_c, 1, 74, 127
2, 2520, Note_on_c, 1, 77, 127
2, 2520, Note_on_c, 1, 83, 127
2, 2520, Note_off_c, 1, 92, 0
2, 2560, Note_off_c, 1, 35, 0
2, 2560, Note_off_c, 1, 42, 0
2, 2560, Note_off_c, 1, 54, 0
2, 2560, Note_on_c, 1, 65, 127
2, 2560, Note_off_c, 1, 74, 0
2, 2560, Note_on_c, 1, 75, 127
2, 2560, Note_off_c, 1, 77, 0
2, 2560, Note_on_c, 1, 78, 127
2, 2560, Note_on_c, 1, 82, 127
2, 2560, Note_off_c, 1, 83, 0
2, 2560, Note_on_c, 1, 87, 127
2, 2600, Note_on_c, 1, 41, 127
2, 2600, Note_on_c, 1, 45, 127
2, 2600, Note_on_c, 1, 50, 127
2, 2600, Note_on_c, 1, 53, 127
2, 2600, Note_off_c, 1, 65, 0
2, 2600, Note_off_c, 1, 75, 0
2, 2600, Note_off_c, 1, 78, 0
2, 2600, Note_off_c, 1, 82, 0
2, 2600, Note_on_c, 1, 86, 127
2, 2600, Note_off_c, 1, 87, 0
2, 2640, Note_off_c, 1, 45, 0
2, 2640, Note_off_c, 1, 50, 0
2, 2640, Note_on_c, 1, 77, 127
2, 2640, Note_on_c, 1, 82, 127
2, 2680, Note_off_c, 1, 41, 0
2, 2680, Note_off_c, 1, 53, 0
2, 2680, Note_off_c, 1, 77, 0
2, 2680, Note_on_c, 1, 78, 127
2, 2680, Note_off_c, 1, 82, 0
2, 2680, Note_on_c, 1, 85, 127
2, 2680, Note_off_c, 1, 86, 0
2, 2680, Note_on_c, 1, 90, 127
2, 2680, Note_on_c, 1, 97, 127
2, 2720, Note_on_c, 1, 50, 127
2, 2720, Note_on_c, 1, 56, 127
2, 2720, Note_on_c, 1, 58, 127
2, 2720, Note_off_c, 1, 78, 0
2, 2720, Note_on_c, 1, 82, 127
2, 2720, Note_off_c, 1, 90, 0
2, 2720, Note_on_c, 1, 94, 127
2, 2720, Note_off_c, 1, 97, 0
2, 2760, Note_off_c, 1, 50, 0
2, 2760, Note_off_c, 1, 56, 0
2, 2760, Note_off_c, 1, 58, 0
2, 2760, Note_on_c, 1, 81, 127
2, 2760, Note_off_c, 1, 82, 0
2, 2760, Note_off_c, 1, 85, 0
2, 2760, Note_on_c, 1, 91, 127
2, 2760, Note_on_c, 1, 93, 127
2, 2760, Note_off_c, 1, 94, 0
2, 2760, Note_on_c, 1, 96, 127
2, 2760, Note_on_c, 1, 99, 127
2, 2760, Note_on_c, 1, 103, 127
2, 2800, Note_on_c, 1, 37, 127
2, 2800, Note_on_c, 1, 41, 127
2, 2800, Note_off_c, 1, 81, 0
2, 2800, Note_on_c, 1, 89, 127
2, 2800, Note_off_c, 1, 91, 0
2, 2800, Note_off_c, 1, 93, 0
2, 2800, Note_off_c, 1, 96, 0
2, 2800, Note_on_c, 1, 97, 127
2, 2800, Note_off_c, 1, 99, 0
2, 2800, Note_on_c, 1, 101, 127
2, 2800, Note_off_c, 1, 103, 0
2, 2840, Note_off_c, 1, 37, 0
2, 2840, Note_off_c, 1, 41, 0
2, 2840, Note_on_c, 1, 50, 127
2, 2840, Note_on_c, 1, 59, 127
2, 2840, Note_on_c, 1, 60, 127
2, 2840, Note_off_c, 1, 89, 0
2, 2840, Note_off_c, 1, 97, 0
2, 2840, Note_off_c, 1, 101, 0
2, 2880, Note_off_c, 1, 50, 0
2, 2880, Note_off_c, 1, 59, 0
2, 2880, Note_off_c, 1, 60, 0
2, 2880, Note_on_c, 1, 65, 127
2, 2880, Note_on_c, 1, 74, 127
2, 2880, Note_on_c, 1, 86, 127
2, 2880, Note_on_c, 1, 89, 127
2, 2920, Note_on_c, 1, 53, 127
2, 2920, Note_off_c, 1, 65, 0
2, 2920, Note_off_c, 1, 74, 0
2, 2920, Note_on_c, 1, 84, 127
2, 2920, Note_off_c, 1, 86, 0
2, 2920, Note_on_c, 1, 87, 127
2, 2920, Note_off_c, 1, 89, 0
2, 2920, Note_on_c, 1, 93, 127
2, 2920, Note_on_c, 1, 96, 127
2, 2960, Note_off_c, 1, 53, 0
2, 2960, Note_on_c, 1, 64, 127
2, 2960, Note_off_c, 1, 84, 0
2, 2960, Note_off_c, 1, 87, 0
2, 2960, Note_on_c, 1, 92, 127
2, 2960, Note_off_c, 1, 93, 0
2, 3000, Note_off_c, 1, 64, 0
2, 3000, Note_on_c, 1, 75, 127
2, 3000, Note_on_c, 1, 82, 127
2, 3000, Note_off_c, 1, 92, 0
2, 3000, Note_off_c, 1, 96, 0
2, 3000, Note_on_c, 1, 99, 127
2, 3000, Note_on_c, 1, 104, 127
2, 3040, Note_on_c, 1, 61, 127
2, 3040, Note_off_c, 1, 82, 0
2, 3040, Note_on_c, 1, 83, 127
2, 3040, Note_on_c, 1, 90, 127
2, 3040, Note_off_c, 1, 99, 0
2, 3040, Note_off_c, 1, 104, 0
2, 3080, Note_off_c, 1, 61, 0
2, 3080, Note_off_c, 1, 75, 0
2, 3080, Note_off_c, 1, 83, 0
2, 3080, Note_off_c, 1, 90, 0
2, 3080, Note_on_c, 1, 96, 127
2, 3080, Note_on_c, 1, 97, 127
2, 3080, Note_on_c, 1, 101, 127
2, 3080, Note_on_c, 1, 102, 127
2, 3120, Note_on_c, 1, 39, 127
2, 3120, Note_off_c, 1, 96, 0
2, 3120, Note_off_c, 1, 97, 0
2, 3120, Note_off_c, 1, 101, 0
2, 3120, Note_off_c, 1, 102, 0
2, 3120, Note_on_c, 1, 103, 127
2, 3160, Note_off_c, 1, 39, 0
2, 3160, Note_on_c, 1, 58, 127
2, 3160, Note_on_c, 1, 66, 127
2, 3160, Note_on_c, 1, 70, 127
2, 3160, Note_on_c, 1, 82, 127
2, 3160, Note_on_c, 1, 85, 127
2, 3160, Note_on_c, 1, 90, 127
2, 3160, Note_on_c, 1, 94, 127
2, 3160, Note_off_c, 1, 103, 0
2, 3200, Note_on_c, 1, 37, 127
2, 3200, Note_on_c, 1, 44, 127
2, 3200, Note_on_c, 1, 53, 127
2, 3200, Note_off_c, 1, 58, 0
2, 3200, Note_on_c, 1, 65, 127
2, 3200, Note_off_c, 1, 66, 0
2, 3200, Note_off_c, 1, 70, 0
2, 3200, Note_on_c, 1, 77, 127
2, 3200, Note_off_c, 1, 82, 0
2, 3200, Note_off_c, 1, 85, 0
2, 3200, Note_off_c, 1, 90, 0
2, 3200, Note_off_c, 1, 94, 0
2, 3240, Note_off_c, 1, 37, 0
2, 3240, Note_off_c, 1, 44, 0
2, 3240, Note_off_c, 1, 53, 0
2, 3240, Note_off_c, 1, 65, 0
2, 3240, Note_off_c, 1, 77, 0
2, 3240, Note_on_c, 1, 78, 127
2, 3240, Note_on_c, 1, 90, 127
2, 3240, Note_on_c, 1, 94, 127
2, 3240, Note_on_c, 1, 96, 127
2, 3280, Note_on_c, 1, 52, 127
2, 3280, Note_on_c, 1, 74, 127
2, 3280, Note_off_c, 1, 78, 0
2, 3280, Note_on_c, 1, 84, 127
2, 3280, Note_off_c, 1, 90, 0
2, 3280, Note_off_c, 1, 94, 0
2, 3280, Note_off_c, 1, 96, 0
2, 3320, Note_on_c, 1, 46, 127
2, 3320, Note_off_c, 1, 52, 0
2, 3320, Note_on_c, 1, 58, 127
2, 3320, Note_off_c, 1, 74, 0
2, 3320, Note_off_c, 1, 84, 0
2, 3320, Note_on_c, 1, 89, 127
2, 3320, Note_on_c, 1, 101, 127
2, 3360, Note_off_c, 1, 46, 0
2, 3360, Note_on_c, 1, 52, 127
2, 3360, Note_on_c, 1, 55, 127
2, 3360, Note_on_c, 1, 60, 127
2, 3360, Note_on_c, 1, 64, 127
2, 3360, Note_on_c, 1, 86, 127
2, 3360, Note_off_c, 1, 89, 0
2, 3360, Note_off_c, 1, 101, 0
2, 3400, Note_on_c, 1, 42, 127
2, 3400, Note_on_c, 1, 44, 127
2, 3400, Note_on_c, 1, 51, 127
2, 3400, Note_off_c, 1, 52, 0
2, 3400, Note_on_c, 1, 54, 127
2, 3400, Note_off_c, 1, 55, 0
2, 3400, Note_on_c, 1, 56, 127
2, 3400, Note_off_c, 1, 58, 0
2, 3400, Note_off_c, 1, 60, 0
2, 3400, Note_off_c, 1, 64, 0
2, 3400, Note_off_c, 1, 86, 0
2, 3440, Note_off_c, 1, 42, 0
2, 3440, Note_off_c, 1, 44, 0
2, 3440, Note_off_c, 1, 51, 0
2, 3440, Note_off_c, 1, 54, 0
2, 3440, Note_on_c, 1, 55, 127
2, 3440, Note_off_c, 1, 56, 0
2, 3440, Note_on_c, 1, 67, 127
2, 3440, Note_on_c, 1, 73, 127
2, 3440, Note_on_c, 1, 77, 127
2, 3440, Note_on_c, 1, 80, 127
2, 3440, Note_on_c, 1, 85, 127
2, 3480, Note_on_c, 1, 53, 127
2, 3480, Note_off_c, 1, 55, 0
2, 3480, Note_off_c, 1, 67, 0
2, 3480, Note_off_c, 1, 73, 0
2, 3480, Note_on_c, 1, 74, 127
2, 3480, Note_off_c, 1, 80, 0
2, 3480, Note_on_c, 1, 84, 127
2, 3480, Note_off_c, 1, 85, 0
2, 3520, Note_on_c, 1, 52, 127
2, 3520, Note_off_c, 1, 53, 0
2, 3520, Note_on_c, 1, 54, 127
2, 3520, Note_on_c, 1, 61, 127
2, 3520, Note_off_c, 1, 74, 0
2, 3520, Note_off_c, 1, 77, 0
2, 3520, Note_on_c, 1, 83, 127
2, 3520, Note_off_c, 1, 84, 0
2, 3560, Note_on_c, 1, 48, 127
2, 3560, Note_off_c, 1, 54, 0
2, 3560, Note_off_c, 1, 61, 0
2, 3560, Note_on_c, 1, 67, 127
2, 3560, Note_on_c, 1, 73, 127
2, 3560, Note_off_c, 1, 83, 0
2, 3600, Note_off_c, 1, 48, 0
2, 3600, Note_off_c, 1, 52, 0
2, 3600, Note_on_c, 1, 60, 127
2, 3600, Note_off_c, 1, 67, 0
2, 3600, Note_off_c, 1, 73, 0
2, 3600, Note_on_c, 1, 88, 127
2, 3600, Note_on_c, 1, 95, 127
2, 3640, Note_off_c, 1, 60, 0
2, 3640, Note_on_c, 1, 62, 127
2, 3640, Note_on_c, 1, 77, 127
2, 3640, Note_on_c, 1, 82, 127
2, 3640, Note_off_c, 1, 88, 0
2, 3640, Note_off_c, 1, 95, 0
2, 3680, Note_on_c, 1, 44, 127
2, 3680, Note_on_c, 1, 56, 127
2, 3680, Note_on_c, 1, 57, 127
2, 3680, Note_off_c, 1, 62, 0
2, 3680, Note_on_c, 1, 74, 127
2, 3680, Note_off_c, 1, 77, 0
2, 3680, Note_on_c, 1, 80, 127
2, 3680, Note_off_c, 1, 82, 0
2, 3720, Note_off_c, 1, 44, 0
2, 3720, Note_off_c, 1, 56, 0
2, 3720, Note_off_c, 1, 57, 0
2, 3720, Note_on_c, 1, 61, 127
2, 3720, Note_on_c, 1, 63, 127
2, 3720, Note_on_c, 1, 67, 127
2, 3720, Note_on_c, 1, 70, 127
2, 3720, Note_off_c, 1, 74, 0
2, 3720, Note_on_c, 1, 75, 127
2, 3720, Note_off_c, 1, 80, 0
2, 3720, Note_on_c, 1, 87, 127
2, 3760, Note_on_c, 1, 53, 127
2, 3760, Note_on_c, 1, 56, 127
2, 3760, Note_on_c, 1, 60, 127
2, 3760, Note_off_c, 1, 61, 0
2, 3760, Note_off_c, 1, 63, 0
2, 3760, Note_on_c, 1, 65, 127
2, 3760, Note_off_c, 1, 67, 0
2, 3760, Note_off_c, 1, 70, 0
2, 3760, Note_off_c, 1, 75, 0
2, 3760, Note_on_c, 1, 84, 127
2, 3760, Note_off_c, 1, 87, 0
2, 3800, Note_off_c, 1, 53, 0
2, 3800, Note_off_c, 1, 56, 0
2, 3800, Note_off_c, 1, 60, 0
2, 3800, Note_off_c, 1, 65, 0
2, 3800, Note_off_c, 1, 84, 0
2, 3840, Note_on_c, 1, 61, 127
2, 3840, Note_on_c, 1, 63, 127
2, 3840, Note_on_c, 1, 73, 127
2, 3840, Note_on_c, 1, 77, 127
2, 3880, Note_on_c, 1, 53, 127
2, 3880, Note_on_c, 1, 60, 127
2, 3880, Note_off_c, 1, 61, 0
2, 3880, Note_off_c, 1, 63, 0
2, 3880, Note_on_c, 1, 69, 127
2, 3880, Note_off_c, 1, 73, 0
2, 3880, Note_off_c, 1, 77, 0
2, 3880, Note_on_c, 1, 78, 127
2, 3920, Note_off_c, 1, 53, 0
2, 3920, Note_off_c, 1, 60, 0
2, 3920, Note_off_c, 1, 69, 0
2, 3920, Note_on_c, 1, 75, 127
2, 3920, Note_off_c, 1, 78, 0
2, 3920, Note_on_c, 1, 82, 127
2, 3920, Note_on_c, 1, 99, 127
2, 3920, Note_on_c, 1, 104, 127
2, 3960, Note_on_c, 1, 37, 127
2, 3960, Note_on_c, 1, 65, 127
2, 3960, Note_on_c, 1, 68, 127
2, 3960, Note_on_c, 1, 72, 127
2, 3960, Note_off_c, 1, 82, 0
2, 3960, Note_off_c, 1, 99, 0
2, 3960, Note_off_c, 1, 104, 0
2, 4000, Note_off_c, 1, 37, 0
2, 4000, Note_on_c, 1, 57, 127
2, 4000, Note_off_c, 1, 65, 0
2, 4000, Note_on_c, 1, 66, 127
2, 4000, Note_off_c, 1, 68, 0
2, 4000, Note_on_c, 1, 69, 127
2, 4000, Note_off_c, 1, 72, 0
2, 4000, Note_off_c, 1, 75, 0
2, 4000, Note_on_c, 1, 88, 127
2, 4000, Note_on_c, 1, 90, 127
2, 4040, Note_on_c, 1, 41, 127
2, 4040, Note_off_c, 1, 57, 0
2, 4040, Note_on_c, 1, 65, 127
2, 4040, Note_off_c, 1, 66, 0
2, 4040, Note_off_c, 1, 69, 0
2, 4040, Note_on_c, 1, 70, 127
2, 4040, Note_on_c, 1, 74, 127
2, 4040, Note_off_c, 1, 88, 0
2, 4040, Note_off_c, 1, 90, 0
2, 4080, Note_off_c, 1, 41, 0
2, 4080, Note_on_c, 1, 58, 127
2, 4080, Note_off_c, 1, 65, 0
2, 4080, Note_on_c, 1, 69, 127
2, 4080, Note_off_c, 1, 70, 0
2, 4080, Note_off_c, 1, 74, 0
2, 4080, Note_on_c, 1, 82, 127
2, 4120, Note_on_c, 1, 51, 127
2, 4120, Note_on_c, 1, 55, 127
2, 4120, Note_off_c, 1, 58, 0
2, 4120, Note_on_c, 1, 67, 127
2, 4120, Note_off_c, 1, 69, 0
2, 4120, Note_on_c, 1, 70, 127
2, 4120, Note_on_c, 1, 75, 127
2, 4120, Note_off_c, 1, 82, 0
2, 4160, Note_on_c, 1, 49, 127
2, 4160, Note_on_c, 1, 50, 127
2, 4160, Note_off_c, 1, 51, 0
2, 4160, Note_off_c, 1, 55, 0
2, 4160, Note_off_c, 1, 67, 0
2, 4160, Note_on_c, 1, 68, 127
2, 4160, Note_off_c, 1, 70, 0
2, 4160, Note_off_c, 1, 75, 0
2, 4160, Note_on_c, 1, 76, 127
2, 4200, Note_off_c, 1, 50, 0
2, 4200, Note_on_c, 1, 53, 127
2, 4200, Note_on_c, 1, 58, 127
2, 4200, Note_off_c, 1, 68, 0
2, 4200, Note_on_c, 1, 75, 127
2, 4200, Note_off_c, 1, 76, 0
2, 4240, Note_on_c, 1, 29, 127
2, 4240, Note_on_c, 1, 41, 127
2, 4240, Note_off_c, 1, 49, 0
2, 4240, Note_off_c, 1, 53, 0
2, 4240, Note_off_c, 1, 58, 0
2, 4240, Note_off_c, 1, 75, 0
2, 4240, Note_on_c, 1, 80, 127
2, 4240, Note_on_c, 1, 83, 127
2, 4240, Note_on_c, 1, 85, 127
2, 4280, Note_off_c, 1, 29, 0
2, 4280, Note_off_c, 1, 41, 0
2, 4280, Note_on_c, 1, 53, 127
2, 4280, Note_on_c, 1, 57, 127
2, 4280, Note_on_c, 1, 61, 127
2, 4280, Note_on_c, 1, 63, 127
2, 4280, Note_off_c, 1, 80, 0
2, 4280, Note_off_c, 1, 83, 0
2, 4280, Note_off_c, 1, 85, 0
2, 4320, Note_off_c, 1, 53, 0
2, 4320, Note_off_c, 1, 57, 0
2, 4320, Note_off_c, 1, 61, 0
2, 4320, Note_off_c, 1, 63, 0
2, 4320, Note_on_c, 1, 67, 127
2, 4320, Note_on_c, 1, 70, 127
2, 4360, Note_on_c, 1, 55, 127
2, 4360, Note_on_c, 1, 61, 127
2, 4360, Note_off_c, 1, 67, 0
2, 4360, Note_on_c, 1, 78, 127
2, 4400, Note_off_c, 1, 78, 0
2, 4520, Note_off_c, 1, 55, 0
2, 4520, Note_off_c, 1, 61, 0
2, 4560, Note_on_c, 1, 52, 127
2, 4560, Note_on_c, 1, 58, 127
2, 4560, Note_on_c, 1, 69, 127
2, 4560, Note_off_c, 1, 70, 0
2, 4760, Note_off_c, 1, 52, 0
2, 4760, Note_off_c, 1, 69, 0
2, 4800, Note_off_c, 1, 58, 0
2, 4800, Note_on_c, 1, 60, 127
2, 4800, Note_on_c, 1, 65, 127
2, 4800, Note_on_c, 1, 76, 127
2, 5000, Note_off_c, 1, 60, 0
2, 5000, Note_off_c, 1, 65, 0
2, 5000, Note_off_c, 1, 76, 0
2, 5040, Note_on_c, 1, 58, 127
2, 5040, Note_on_c, 1, 61, 127
2, 5040, Note_on_c, 1, 73, 127
2, 5200, Note_off_c, 1, 58, 0
2, 5200, Note_off_c, 1, 73, 0
2, 5240, Note_on_c, 1, 43, 127
2, 5240, Note_on_c, 1, 50, 127
2, 5240, Note_on_c, 1, 60, 127
2, 5240, Note_off_c, 1, 61, 0
2, 5240, Note_on_c, 1, 62, 127
2, 5240, Note_on_c, 1, 69, 127
2, 5600, Note_on_c, 1, 37, 127
2, 5600, Note_off_c, 1, 43, 0
2, 5600, Note_on_c, 1, 49, 127
2, 5600, Note_off_c, 1, 50, 0
2, 5600, Note_on_c, 1, 56, 127
2, 5600, Note_off_c, 1, 60, 0
2, 5600, Note_off_c, 1, 62, 0
2, 5600, Note_off_c, 1, 69, 0
2, 5640, Note_off_c, 1, 37, 0
2, 5640, Note_off_c, 1, 49, 0
2, 5640, Note_on_c, 1, 51, 127
2, 5640, Note_on_c, 1, 59, 127
2, 5640, Note_on_c, 1, 71, 127
2, 5800, Note_off_c, 1, 51, 0
2, 5800, Note_off_c, 1, 56, 0
2, 5800, Note_off_c, 1, 59, 0
2, 5800, Note_off_c, 1, 71, 0
2, 5840, Note_on_c, 1, 51, 127
2, 5840, Note_on_c, 1, 56, 127
2, 5840, Note_on_c, 1, 59, 127
2, 5840, Note_on_c, 1, 71, 127
2, 6040, Note_on_c, 1, 32, 127
2, 6040, Note_off_c, 1, 51, 0
2, 6040, Note_off_c, 1, 56, 0
2, 6040, Note_off_c, 1, 59, 0
2, 6040, Note_on_c, 1, 63, 127
2, 6040, Note_off_c, 1, 71, 0
2, 6080, Note_off_c, 1, 32, 0
2, 6080, Note_on_c, 1, 51, 127
2, 6080, Note_on_c, 1, 56, 127
2, 6080, Note_on_c, 1, 59, 127
2, 6080, Note_off_c, 1, 63, 0
2, 6080, Note_on_c, 1, 71, 127
2, 6960, Note_off_c, 1, 51, 0
2, 6960, Note_on_c, 1, 63, 127
2, 7000, Note_on_c, 1, 51, 127
2, 7000, Note_on_c, 1, 54, 127
2, 7000, Note_off_c, 1, 56, 0
2, 7000, Note_off_c, 1, 63, 0
2, 7000, Note_off_c, 1, 71, 0
2, 7000, Note_on_c, 1, 75, 127
2, 7120, Note_off_c, 1, 51, 0
2, 7120, Note_off_c, 1, 54, 0
2, 7120, Note_off_c, 1, 59, 0
2, 7120, Note_on_c, 1, 71, 127
2, 7120, Note_off_c, 1, 75, 0
2, 7160, Note_on_c, 1, 54, 127
2, 7160, Note_on_c, 1, 58, 127
2, 7160, Note_on_c, 1, 61, 127
2, 7160, Note_off_c, 1, 71, 0
2, 7160, Note_on_c, 1, 73, 127
2, 7560, Note_off_c, 1, 73, 0
2, 7600, Note_on_c, 1, 71, 127
2, 7760, Note_off_c, 1, 54, 0
2, 7760, Note_off_c, 1, 58, 0
2, 7760, Note_off_c, 1, 61, 0
2, 7760, Note_off_c, 1, 71, 0
2, 7800, Note_on_c, 1, 54, 127
2, 7800, Note_on_c, 1, 58, 127
2, 7800, Note_on_c, 1, 61, 127
2, 7800, Note_on_c, 1, 71, 127
2, 8000, Note_off_c, 1, 54, 0
2, 8000, Note_off_c, 1, 58, 0
2, 8000, Note_off_c, 1, 61, 0
2, 8040, Note_on_c, 1, 54, 127
2, 8040, Note_on_c, 1, 58, 127
2, 8040, Note_on_c, 1, 63, 127
2, 8040, Note_off_c, 1, 71, 0
2, 8040, Note_on_c, 1, 75, 127
2, 8440, Note_on_c, 1, 33, 127
2, 8440, Note_on_c, 1, 45, 127
2, 8440, Note_off_c, 1, 54, 0
2, 8440, Note_off_c, 1, 58, 0
2, 8440, Note_off_c, 1, 63, 0
2, 8440, Note_on_c, 1, 67, 127
2, 8440, Note_on_c, 1, 73, 127
2, 8440, Note_off_c, 1, 75, 0
2, 8440, Note_on_c, 1, 79, 127
2, 8840, Note_off_c, 1, 33, 0
2, 8840, Note_off_c, 1, 45, 0
2, 8840, Note_off_c, 1, 67, 0
2, 8840, Note_off_c, 1, 73, 0
2, 8840, Note_off_c, 1, 79, 0
2, 8880, Note_on_c, 1, 36, 127
2, 8880, Note_on_c, 1, 76, 127
2, 8880, Note_on_c, 1, 80, 127
2, 8880, Note_on_c, 1, 88, 127
2, 8920, Note_off_c, 1, 36, 0
2, 8920, Note_on_c, 1, 54, 127
2, 8920, Note_on_c, 1, 62, 127
2, 8920, Note_off_c, 1, 76, 0
2, 8920, Note_off_c, 1, 88, 0
2, 8960, Note_on_c, 1, 60, 127
2, 8960, Note_off_c, 1, 62, 0
2, 8960, Note_on_c, 1, 63, 127
2, 8960, Note_on_c, 1, 72, 127
2, 8960, Note_off_c, 1, 80, 0
2, 8960, Note_on_c, 1, 83, 127
2, 9000, Note_on_c, 1, 39, 127
2, 9000, Note_on_c, 1, 46, 127
2, 9000, Note_off_c, 1, 54, 0
2, 9000, Note_on_c, 1, 55, 127
2, 9000, Note_on_c, 1, 58, 127
2, 9000, Note_off_c, 1, 60, 0
2, 9000, Note_on_c, 1, 62, 127
2, 9000, Note_off_c, 1, 63, 0
2, 9000, Note_off_c, 1, 72, 0
2, 9000, Note_on_c, 1, 74, 127
2, 9000, Note_off_c, 1, 83, 0
2, 9040, Note_off_c, 1, 39, 0
2, 9040, Note_off_c, 1, 46, 0
2, 9040, Note_on_c, 1, 54, 127
2, 9040, Note_off_c, 1, 55, 0
2, 9040, Note_off_c, 1, 58, 0
2, 9040, Note_off_c, 1, 62, 0
2, 9040, Note_on_c, 1, 68, 127
2, 9040, Note_on_c, 1, 73, 127
2, 9040, Note_off_c, 1, 74, 0
2, 9080, Note_off_c, 1, 54, 0
2, 9080, Note_on_c, 1, 64, 127
2, 9080, Note_on_c, 1, 67, 127
2, 9080, Note_off_c, 1, 68, 0
2, 9080, Note_on_c, 1, 71, 127
2, 9080, Note_off_c, 1, 73, 0
2, 9080, Note_on_c, 1, 91, 127
2, 9240, Note_on_c, 1, 43, 127
2, 9240, Note_on_c, 1, 47, 127
2, 9240, Note_on_c, 1, 53, 127
2, 9240, Note_off_c, 1, 64, 0
2, 9240, Note_off_c, 1, 67, 0
2, 9240, Note_off_c, 1, 71, 0
2, 9240, Note_on_c, 1, 76, 127
2, 9240, Note_on_c, 1, 88, 127
2, 9240, Note_off_c, 1, 91, 0
2, 9280, Note_on_c, 1, 40, 127
2, 9280, Note_off_c, 1, 43, 0
2, 9280, Note_on_c, 1, 50, 127
2, 9280, Note_on_c, 1, 52, 127
2, 9280, Note_off_c, 1, 53, 0
2, 9280, Note_on_c, 1, 74, 127
2, 9280, Note_off_c, 1, 76, 0
2, 9280, Note_off_c, 1, 88, 0
2, 9320, Note_off_c, 1, 40, 0
2, 9320, Note_on_c, 1, 44, 127
2, 9320, Note_off_c, 1, 47, 0
2, 9320, Note_off_c, 1, 50, 0
2, 9320, Note_off_c, 1, 52, 0
2, 9320, Note_on_c, 1, 63, 127
2, 9320, Note_on_c, 1, 65, 127
2, 9320, Note_off_c, 1, 74, 0
2, 9320, Note_on_c, 1, 75, 127
2, 9520, Note_off_c, 1, 44, 0
2, 9520, Note_on_c, 1, 58, 127
2, 9520, Note_off_c, 1, 63, 0
2, 9520, Note_off_c, 1, 65, 0
2, 9520, Note_on_c, 1, 67, 127
2, 9520, Note_on_c, 1, 70, 127
2, 9520, Note_off_c, 1, 75, 0
2, 9520, Note_on_c, 1, 76, 127
2, 9520, Note_on_c, 1, 85, 127
2, 9560, Note_on_c, 1, 40, 127
2, 9560, Note_on_c, 1, 50, 127
2, 9560, Note_on_c, 1, 56, 127
2, 9560, Note_off_c, 1, 58, 0
2, 9560, Note_on_c, 1, 59, 127
2, 9560, Note_on_c, 1, 64, 127
2, 9560, Note_off_c, 1, 67, 0
2, 9560, Note_off_c, 1, 70, 0
2, 9560, Note_off_c, 1, 76, 0
2, 9560, Note_off_c, 1, 85, 0
2, 9600, Note_on_c, 1, 32, 127
2, 9600, Note_off_c, 1, 40, 0
2, 9600, Note_on_c, 1, 44, 127
2, 9600, Note_off_c, 1, 50, 0
2, 9600, Note_off_c, 1, 56, 0
2, 9600, Note_off_c, 1, 59, 0
2, 9600, Note_on_c, 1, 60, 127
2, 9600, Note_off_c, 1, 64, 0
2, 9640, Note_off_c, 1, 32, 0
2, 9640, Note_off_c, 1, 44, 0
2, 9640, Note_on_c, 1, 53, 127
2, 9640, Note_on_c, 1, 57, 127
2, 9640, Note_on_c, 1, 59, 127
2, 9640, Note_off_c, 1, 60, 0
2, 9640, Note_on_c, 1, 62, 127
2, 9680, Note_off_c, 1, 53, 0
2, 9680, Note_off_c, 1, 57, 0
2, 9680, Note_off_c, 1, 59, 0
2, 9680, Note_off_c, 1, 62, 0
2, 9720, Note_on_c, 1, 38, 127
2, 9720, Note_on_c, 1, 50, 127
2, 9720, Note_on_c, 1, 68, 127
2, 9720, Note_on_c, 1, 70, 127
2, 9720, Note_on_c, 1, 77, 127
2, 9720, Note_on_c, 1, 80, 127
2, 9920, Note_off_c, 1, 38, 0
2, 9920, Note_off_c, 1, 50, 0
2, 9920, Note_off_c, 1, 68, 0
2, 9920, Note_off_c, 1, 70, 0
2, 9920, Note_off_c, 1, 77, 0
2, 9920, Note_off_c, 1, 80, 0
2, 9960, Note_on_c, 1, 38, 127
2, 9960, Note_on_c, 1, 50, 127
2, 9960, Note_on_c, 1, 68, 127
2, 9960, Note_on_c, 1, 70, 127
2, 9960, Note_on_c, 1, 77, 127
2, 9960, Note_on_c, 1, 80, 127
2, 10120, Note_off_c, 1, 38, 0
2, 10120, Note_off_c, 1, 50, 0
2, 10120, Note_off_c, 1, 68, 0
2, 10120, Note_off_c, 1, 70, 0
2, 10120, Note_off_c, 1, 77, 0
2, 10120, Note_off_c, 1, 80, 0
2, 10160, Note_on_c, 1, 47, 127
2, 10160, Note_on_c, 1, 57, 127
2, 10160, Note_on_c, 1, 59, 127
2, 10160, Note_on_c, 1, 78, 127
2, 10160, Note_on_c, 1, 87, 127
2, 10160, Note_on_c, 1, 90, 127
2, 10520, Note_on_c, 1, 38, 127
2, 10520, Note_off_c, 1, 47, 0
2, 10520, Note_on_c, 1, 50, 127
2, 10520, Note_off_c, 1, 57, 0
2, 10520, Note_off_c, 1, 59, 0
2, 10520, Note_on_c, 1, 68, 127
2, 10520, Note_on_c, 1, 71, 127
2, 10520, Note_off_c, 1, 78, 0
2, 10520, Note_off_c, 1, 87, 0
2, 10520, Note_off_c, 1, 90, 0
2, 10560, Note_off_c, 1, 38, 0
2, 10560, Note_off_c, 1, 50, 0
2, 10560, Note_off_c, 1, 68, 0
2, 10560, Note_off_c, 1, 71, 0
2, 10600, Note_on_c, 1, 41, 127
2, 10600, Note_on_c, 1, 53, 127
2, 10600, Note_on_c, 1, 60, 127
2, 10600, Note_on_c, 1, 70, 127
2, 10600, Note_on_c, 1, 72, 127
2, 10640, Note_on_c, 1, 40, 127
2, 10640, Note_off_c, 1, 41, 0
2, 10640, Note_on_c, 1, 52, 127
2, 10640, Note_off_c, 1, 53, 0
2, 10640, Note_off_c, 1, 60, 0
2, 10640, Note_off_c, 1, 70, 0
2, 10640, Note_off_c, 1, 72, 0
2, 10720, Note_off_c, 1, 40, 0
2, 10720, Note_off_c, 1, 52, 0
2, 10760, Note_on_c, 1, 60, 127
2, 10760, Note_on_c, 1, 67, 127
2, 10760, Note_on_c, 1, 70, 127
2, 10760, Note_on_c, 1, 82, 127
2, 10800, Note_on_c, 1, 38, 127
2, 10800, Note_on_c, 1, 41, 127
2, 10800, Note_on_c, 1, 45, 127
2, 10800, Note_on_c, 1, 50, 127
2, 10800, Note_off_c, 1, 60, 0
2, 10800, Note_on_c, 1, 62, 127
2, 10800, Note_off_c, 1, 67, 0
2, 10800, Note_off_c, 1, 70, 0
2, 10800, Note_off_c, 1, 82, 0
2, 10840, Note_off_c, 1, 38, 0
2, 10840, Note_off_c, 1, 41, 0
2, 10840, Note_off_c, 1, 45, 0
2, 10840, Note_on_c, 1, 52, 127
2, 10840, Note_on_c, 1, 66, 127
2, 10840, Note_on_c, 1, 69, 127
2, 10840, Note_on_c, 1, 78, 127
2, 10880, Note_off_c, 1, 50, 0
2, 10880, Note_off_c, 1, 52, 0
2, 10880, Note_off_c, 1, 62, 0
2, 10880, Note_on_c, 1, 64, 127
2, 10880, Note_off_c, 1, 66, 0
2, 10880, Note_on_c, 1, 67, 127
2, 10880, Note_off_c, 1, 69, 0
2, 10880, Note_on_c, 1, 73, 127
2, 10880, Note_on_c, 1, 76, 127
2, 10880, Note_off_c, 1, 78, 0
2, 10880, Note_on_c, 1, 79, 127
2, 10880, Note_on_c, 1, 83, 127
2, 10920, Note_off_c, 1, 64, 0
2, 10920, Note_off_c, 1, 67, 0
2, 10920, Note_off_c, 1, 73, 0
2, 10920, Note_off_c, 1, 76, 0
2, 10920, Note_off_c, 1, 79, 0
2, 10920, Note_off_c, 1, 83, 0
2, 10960, Note_on_c, 1, 55, 127
2, 10960, Note_on_c, 1, 62, 127
2, 10960, Note_on_c, 1, 70, 127
2, 10960, Note_on_c, 1, 78, 127
2, 10960, Note_on_c, 1, 81, 127
2, 11000, Note_off_c, 1, 55, 0
2, 11000, Note_off_c, 1, 62, 0
2, 11000, Note_on_c, 1, 66, 127
2, 11000, Note_on_c, 1, 67, 127
2, 11000, Note_off_c, 1, 70, 0
2, 11000, Note_on_c, 1, 71, 127
2, 11000, Note_on_c, 1, 74, 127
2, 11000, Note_off_c, 1, 81, 0
2, 11040, Note_off_c, 1, 66, 0
2, 11040, Note_off_c, 1, 67, 0
2, 11040, Note_off_c, 1, 71, 0
2, 11040, Note_off_c, 1, 74, 0
2, 11040, Note_off_c, 1, 78, 0
2, 11040, Note_on_c, 1, 87, 127
2, 11040, Note_on_c, 1, 96, 127
2, 11040, Note_on_c, 1, 104, 127
2, 11080, Note_on_c, 1, 55, 127
2, 11080, Note_on_c, 1, 59, 127
2, 11080, Note_on_c, 1, 62, 127
2, 11080, Note_on_c, 1, 72, 127
2, 11080, Note_on_c, 1, 84, 127
2, 11080, Note_off_c, 1, 87, 0
2, 11080, Note_off_c, 1, 96, 0
2, 11080, Note_off_c, 1, 104, 0
2, 11120, Note_on_c, 1, 39, 127
2, 11120, Note_on_c, 1, 46, 127
2, 11120, Note_off_c, 1, 55, 0
2, 11120, Note_on_c, 1, 56, 127
2, 11120, Note_on_c, 1, 58, 127
2, 11120, Note_off_c, 1, 59, 0
2, 11120, Note_off_c, 1, 62, 0
2, 11120, Note_on_c, 1, 65, 127
2, 11120, Note_off_c, 1, 72, 0
2, 11120, Note_on_c, 1, 82, 127
2, 11120, Note_off_c, 1, 84, 0
2, 11120, Note_on_c, 1, 94, 127
2, 11160, Note_off_c, 1, 39, 0
2, 11160, Note_on_c, 1, 44, 127
2, 11160, Note_off_c, 1, 46, 0
2, 11160, Note_off_c, 1, 56, 0
2, 11160, Note_off_c, 1, 58, 0
2, 11160, Note_off_c, 1, 65, 0
2, 11160, Note_on_c, 1, 72, 127
2, 11160, Note_on_c, 1, 75, 127
2, 11160, Note_off_c, 1, 82, 0
2, 11160, Note_off_c, 1, 94, 0
2, 11200, Note_off_c, 1, 44, 0
2, 11200, Note_on_c, 1, 62, 127
2, 11200, Note_on_c, 1, 68, 127
2, 11200, Note_off_c, 1, 72, 0
2, 11200, Note_off_c, 1, 75, 0
2, 11200, Note_on_c, 1, 86, 127
2, 11200, Note_on_c, 1, 89, 127
2, 11240, Note_on_c, 1, 51, 127
2, 11240, Note_off_c, 1, 62, 0
2, 11240, Note_off_c, 1, 68, 0
2, 11240, Note_off_c, 1, 86, 0
2, 11240, Note_off_c, 1, 89, 0
2, 11240, Note_on_c, 1, 92, 127
2, 11240, Note_on_c, 1, 95, 127
2, 11280, Note_off_c, 1, 51, 0
2, 11280, Note_off_c, 1, 92, 0
2, 11280, Note_off_c, 1, 95, 0
2, 11320, Note_on_c, 1, 39, 127
2, 11320, Note_on_c, 1, 82, 127
2, 11320, Note_on_c, 1, 91, 127
2, 11320, Note_on_c, 1, 94, 127
2, 11360, Note_off_c, 1, 39, 0
2, 11360, Note_on_c, 1, 59, 127
2, 11360, Note_on_c, 1, 68, 127
2, 11360, Note_on_c, 1, 71, 127
2, 11360, Note_on_c, 1, 77, 127
2, 11360, Note_on_c, 1, 80, 127
2, 11360, Note_off_c, 1, 82, 0
2, 11360, Note_off_c, 1, 91, 0
2, 11360, Note_off_c, 1, 94, 0
2, 11400, Note_on_c, 1, 39, 127
2, 11400, Note_on_c, 1, 51, 127
2, 11400, Note_off_c, 1, 59, 0
2, 11400, Note_on_c, 1, 63, 127
2, 11400, Note_on_c, 1, 66, 127
2, 11400, Note_off_c, 1, 68, 0
2, 11400, Note_off_c, 1, 71, 0
2, 11400, Note_on_c, 1, 75, 127
2, 11400, Note_off_c, 1, 77, 0
2, 11400, Note_off_c, 1, 80, 0
2, 11440, Note_off_c, 1, 39, 0
2, 11440, Note_off_c, 1, 51, 0
2, 11440, Note_on_c, 1, 59, 127
2, 11440, Note_off_c, 1, 63, 0
2, 11440, Note_off_c, 1, 66, 0
2, 11440, Note_on_c, 1, 68, 127
2, 11440, Note_on_c, 1, 71, 127
2, 11440, Note_off_c, 1, 75, 0
2, 11440, Note_on_c, 1, 77, 127
2, 11440, Note_on_c, 1, 80, 127
2, 11480, Note_on_c, 1, 49, 127
2, 11480, Note_off_c, 1, 59, 0
2, 11480, Note_off_c, 1, 68, 0
2, 11480, Note_off_c, 1, 71, 0
2, 11480, Note_on_c, 1, 76, 127
2, 11480, Note_off_c, 1, 77, 0
2, 11480, Note_off_c, 1, 80, 0
2, 11480, Note_on_c, 1, 82, 127
2, 11480, Note_on_c, 1, 85, 127
2, 11520, Note_off_c, 1, 49, 0
2, 11520, Note_on_c, 1, 59, 127
2, 11520, Note_on_c, 1, 68, 127
2, 11520, Note_on_c, 1, 71, 127
2, 11520, Note_off_c, 1, 76, 0
2, 11520, Note_on_c, 1, 77, 127
2, 11520, Note_on_c, 1, 80, 127
2, 11520, Note_off_c, 1, 82, 0
2, 11520, Note_off_c, 1, 85, 0
2, 11720, Note_off_c, 1, 59, 0
2, 11720, Note_off_c, 1, 68, 0
2, 11720, Note_off_c, 1, 71, 0
2, 11720, Note_off_c, 1, 77, 0
2, 11720, Note_off_c, 1, 80, 0
2, 11760, Note_on_c, 1, 59, 127
2, 11760, Note_on_c, 1, 62, 127
2, 11760, Note_on_c, 1, 65, 127
2, 11760, Note_on_c, 1, 70, 127
2, 11760, Note_on_c, 1, 91, 127
2, 11800, Note_on_c, 1, 51, 127
2, 11800, Note_on_c, 1, 54, 127
2, 11800, Note_on_c, 1, 58, 127
2, 11800, Note_off_c, 1, 59, 0
2, 11800, Note_off_c, 1, 62, 0
2, 11800, Note_off_c, 1, 65, 0
2, 11800, Note_on_c, 1, 66, 127
2, 11800, Note_on_c, 1, 80, 127
2, 11800, Note_off_c, 1, 91, 0
2, 11840, Note_off_c, 1, 51, 0
2, 11840, Note_on_c, 1, 53, 127
2, 11840, Note_off_c, 1, 54, 0
2, 11840, Note_off_c, 1, 58, 0
2, 11840, Note_on_c, 1, 59, 127
2, 11840, Note_on_c, 1, 61, 127
2, 11840, Note_off_c, 1, 66, 0
2, 11840, Note_off_c, 1, 70, 0
2, 11840, Note_on_c, 1, 77, 127
2, 11840, Note_off_c, 1, 80, 0
2, 11840, Note_on_c, 1, 89, 127
2, 11880, Note_on_c, 1, 51, 127
2, 11880, Note_off_c, 1, 53, 0
2, 11880, Note_on_c, 1, 58, 127
2, 11880, Note_off_c, 1, 59, 0
2, 11880, Note_off_c, 1, 61, 0
2, 11880, Note_on_c, 1, 68, 127
2, 11880, Note_on_c, 1, 73, 127
2, 11880, Note_off_c, 1, 89, 0
2, 11920, Note_on_c, 1, 50, 127
2, 11920, Note_off_c, 1, 51, 0
2, 11920, Note_on_c, 1, 55, 127
2, 11920, Note_off_c, 1, 58, 0
2, 11920, Note_off_c, 1, 68, 0
2, 11920, Note_on_c, 1, 69, 127
2, 11920, Note_on_c, 1, 72, 127
2, 11920, Note_off_c, 1, 73, 0
2, 11920, Note_off_c, 1, 77, 0
2, 11960, Note_off_c, 1, 50, 0
2, 11960, Note_on_c, 1, 53, 127
2, 11960, Note_off_c, 1, 55, 0
2, 11960, Note_on_c, 1, 56, 127
2, 11960, Note_on_c, 1, 61, 127
2, 11960, Note_on_c, 1, 65, 127
2, 11960, Note_off_c, 1, 69, 0
2, 11960, Note_off_c, 1, 72, 0
2, 11960, Note_on_c, 1, 73, 127
2, 11960, Note_on_c, 1, 82, 127
2, 12000, Note_on_c, 1, 36, 127
2, 12000, Note_on_c, 1, 43, 127
2, 12000, Note_on_c, 1, 48, 127
2, 12000, Note_off_c, 1, 53, 0
2, 12000, Note_off_c, 1, 56, 0
2, 12000, Note_off_c, 1, 61, 0
2, 12000, Note_off_c, 1, 65, 0
2, 12000, Note_off_c, 1, 73, 0
2, 12000, Note_off_c, 1, 82, 0
2, 12000, Note_on_c, 1, 88, 127
2, 12000, Note_on_c, 1, 91, 127
2, 12000, Note_on_c, 1, 96, 127
2, 12000, Note_on_c, 1, 100, 127
2, 12040, Note_off_c, 1, 36, 0
2, 12040, Note_off_c, 1, 43, 0
2, 12040, Note_off_c, 1, 48, 0
2, 12040, Note_off_c, 1, 88, 0
2, 12040, Note_off_c, 1, 91, 0
2, 12040, Note_off_c, 1, 96, 0
2, 12040, Note_off_c, 1, 100, 0
2, 12080, Note_on_c, 1, 49, 127
2, 12080, Note_on_c, 1, 58, 127
2, 12080, Note_on_c, 1, 65, 127
2, 12080, Note_on_c, 1, 68, 127
2, 12080, Note_on_c, 1, 72, 127
2, 12120, Note_off_c, 1, 49, 0
2, 12120, Note_off_c, 1, 58, 0
2, 12120, Note_off_c, 1, 65, 0
2, 12120, Note_off_c, 1, 68, 0
2, 12120, Note_off_c, 1, 72, 0
2, 12160, Note_on_c, 1, 47, 127
2, 12160, Note_on_c, 1, 61, 127
2, 12160, Note_on_c, 1, 64, 127
2, 12160, Note_on_c, 1, 69, 127
2, 12160, Note_on_c, 1, 73, 127
2, 12160, Note_on_c, 1, 81, 127
2, 12200, Note_off_c, 1, 47, 0
2, 12200, Note_on_c, 1, 48, 127
2, 12200, Note_on_c, 1, 57, 127
2, 12200, Note_off_c, 1, 61, 0
2, 12200, Note_on_c, 1, 63, 127
2, 12200, Note_off_c, 1, 64, 0
2, 12200, Note_on_c, 1, 67, 127
2, 12200, Note_off_c, 1, 69, 0
2, 12200, Note_off_c, 1, 73, 0
2, 12200, Note_off_c, 1, 81, 0
2, 12200, Note_on_c, 1, 103, 127
2, 12200, Note_on_c, 1, 105, 127
2, 12240, Note_off_c, 1, 48, 0
2, 12240, Note_off_c, 1, 57, 0
2, 12240, Note_on_c, 1, 62, 127
2, 12240, Note_off_c, 1, 63, 0
2, 12240, Note_on_c, 1, 66, 127
2, 12240, Note_off_c, 1, 67, 0
2, 12240, Note_on_c, 1, 78, 127
2, 12240, Note_on_c, 1, 84, 127
2, 12240, Note_on_c, 1, 90, 127
2, 12240, Note_off_c, 1, 103, 0
2, 12240, Note_off_c, 1, 105, 0
2, 12280, Note_on_c, 1, 49, 127
2, 12280, Note_on_c, 1, 59, 127
2, 12280, Note_off_c, 1, 62, 0
2, 12280, Note_off_c, 1, 66, 0
2, 12280, Note_on_c, 1, 67, 127
2, 12280, Note_on_c, 1, 71, 127
2, 12280, Note_off_c, 1, 78, 0
2, 12280, Note_off_c, 1, 84, 0
2, 12280, Note_off_c, 1, 90, 0
2, 12320, Note_on_c, 1, 39, 127
2, 12320, Note_off_c, 1, 49, 0
2, 12320, Note_off_c, 1, 59, 0
2, 12320, Note_on_c, 1, 70, 127
2, 12320, Note_off_c, 1, 71, 0
2, 12320, Note_on_c, 1, 75, 127
2, 12320, Note_on_c, 1, 79, 127
2, 12320, Note_on_c, 1, 87, 127
2, 12360, Note_off_c, 1, 39, 0
2, 12360, Note_on_c, 1, 42, 127
2, 12360, Note_on_c, 1, 49, 127
2, 12360, Note_on_c, 1, 62, 127
2, 12360, Note_off_c, 1, 67, 0
2, 12360, Note_on_c, 1, 69, 127
2, 12360, Note_off_c, 1, 70, 0
2, 12360, Note_on_c, 1, 72, 127
2, 12360, Note_on_c, 1, 74, 127
2, 12360, Note_off_c, 1, 75, 0
2, 12360, Note_off_c, 1, 79, 0
2, 12360, Note_off_c, 1, 87, 0
2, 12400, Note_on_c, 1, 33, 127
2, 12400, Note_on_c, 1, 40, 127
2, 12400, Note_off_c, 1, 42, 0
2, 12400, Note_on_c, 1, 45, 127
2, 12400, Note_off_c, 1, 49, 0
2, 12400, Note_on_c, 1, 60, 127
2, 12400, Note_off_c, 1, 62, 0
2, 12400, Note_on_c, 1, 64, 127
2, 12400, Note_off_c, 1, 69, 0
2, 12400, Note_on_c, 1, 71, 127
2, 12400, Note_off_c, 1, 72, 0
2, 12400, Note_off_c, 1, 74, 0
2, 12440, Note_off_c, 1, 33, 0
2, 12440, Note_off_c, 1, 40, 0
2, 12440, Note_on_c, 1, 43, 127
2, 12440, Note_off_c, 1, 45, 0
2, 12440, Note_on_c, 1, 55, 127
2, 12440, Note_on_c, 1, 59, 127
2, 12440, Note_off_c, 1, 60, 0
2, 12440, Note_on_c, 1, 61, 127
2, 12440, Note_off_c, 1, 64, 0
2, 12440, Note_off_c, 1, 71, 0
2, 12480, Note_off_c, 1, 43, 0
2, 12480, Note_on_c, 1, 45, 127
2, 12480, Note_on_c, 1, 48, 127
2, 12480, Note_off_c, 1, 55, 0
2, 12480, Note_on_c, 1, 57, 127
2, 12480, Note_off_c, 1, 59, 0
2, 12480, Note_on_c, 1, 60, 127
2, 12480, Note_off_c, 1, 61, 0
2, 12480, Note_on_c, 1, 64, 127
2, 12520, Note_off_c, 1, 45, 0
2, 12520, Note_off_c, 1, 48, 0
2, 12520, Note_off_c, 1, 57, 0
2, 12520, Note_off_c, 1, 60, 0
2, 12520, Note_off_c, 1, 64, 0
2, 12560, Note_on_c, 1, 41, 127
2, 12560, Note_on_c, 1, 45, 127
2, 12560, Note_on_c, 1, 48, 127
2, 12560, Note_on_c, 1, 53, 127
2, 12560, Note_on_c, 1, 81, 127
2, 12560, Note_on_c, 1, 93, 127
2, 12680, Note_off_c, 1, 81, 0
2, 12680, Note_on_c, 1, 84, 127
2, 12680, Note_on_c, 1, 89, 127
2, 12920, Note_off_c, 1, 41, 0
2, 12920, Note_off_c, 1, 45, 0
2, 12920, Note_off_c, 1, 48, 0
2, 12920, Note_off_c, 1, 53, 0
2, 12920, Note_off_c, 1, 84, 0
2, 12920, Note_off_c, 1, 89, 0
2, 12920, Note_off_c, 1, 93, 0
2, 12960, Note_on_c, 1, 45, 127
2, 12960, Note_on_c, 1, 78, 127
2, 12960, Note_on_c, 1, 87, 127
2, 12960, Note_on_c, 1, 90, 127
2, 13000, Note_on_c, 1, 37, 127
2, 13000, Note_off_c, 1, 45, 0
2, 13000, Note_on_c, 1, 49, 127
2, 13000, Note_on_c, 1, 60, 127
2, 13000, Note_on_c, 1, 68, 127
2, 13000, Note_off_c, 1, 78, 0
2, 13000, Note_off_c, 1, 87, 0
2, 13000, Note_off_c, 1, 90, 0
2, 13040, Note_on_c, 1, 32, 127
2, 13040, Note_off_c, 1, 37, 0
2, 13040, Note_on_c, 1, 44, 127
2, 13040, Note_off_c, 1, 49, 0
2, 13040, Note_off_c, 1, 60, 0
2, 13040, Note_off_c, 1, 68, 0
2, 13040, Note_on_c, 1, 71, 127
2, 13040, Note_on_c, 1, 75, 127
2, 13040, Note_on_c, 1, 87, 127
2, 13080, Note_off_c, 1, 44, 0
2, 13080, Note_on_c, 1, 59, 127
2, 13080, Note_off_c, 1, 75, 0
2, 13080, Note_off_c, 1, 87, 0
2, 13120, Note_off_c, 1, 32, 0
2, 13120, Note_on_c, 1, 41, 127
2, 13120, Note_on_c, 1, 45, 127
2, 13120, Note_on_c, 1, 48, 127
2, 13120, Note_on_c, 1, 53, 127
2, 13120, Note_off_c, 1, 59, 0
2, 13120, Note_off_c, 1, 71, 0
2, 13120, Note_on_c, 1, 76, 127
2, 13160, Note_off_c, 1, 41, 0
2, 13160, Note_off_c, 1, 45, 0
2, 13160, Note_off_c, 1, 48, 0
2, 13160, Note_on_c, 1, 51, 127
2, 13160, Note_off_c, 1, 53, 0
2, 13160, Note_on_c, 1, 63, 127
2, 13160, Note_off_c, 1, 76, 0
2, 13160, Note_on_c, 1, 79, 127
2, 13160, Note_on_c, 1, 83, 127
2, 13160, Note_on_c, 1, 91, 127
2, 13200, Note_on_c, 1, 42, 127
2, 13200, Note_off_c, 1, 51, 0
2, 13200, Note_on_c, 1, 52, 127
2, 13200, Note_on_c, 1, 54, 127
2, 13200, Note_off_c, 1, 63, 0
2, 13200, Note_on_c, 1, 70, 127
2, 13200, Note_off_c, 1, 79, 0
2, 13200, Note_off_c, 1, 83, 0
2, 13200, Note_off_c, 1, 91, 0
2, 13240, Note_off_c, 1, 42, 0
2, 13240, Note_on_c, 1, 50, 127
2, 13240, Note_off_c, 1, 52, 0
2, 13240, Note_on_c, 1, 57, 127
2, 13240, Note_on_c, 1, 59, 127
2, 13240, Note_off_c, 1, 70, 0
2, 13280, Note_off_c, 1, 50, 0
2, 13280, Note_off_c, 1, 54, 0
2, 13280, Note_off_c, 1, 57, 0
2, 13280, Note_off_c, 1, 59, 0
2, 13320, Note_on_c, 1, 43, 127
2, 13320, Note_on_c, 1, 87, 127
2, 13320, Note_on_c, 1, 90, 127
2, 13360, Note_on_c, 1, 36, 127
2, 13360, Note_off_c, 1, 43, 0
2, 13360, Note_on_c, 1, 46, 127
2, 13360, Note_on_c, 1, 62, 127
2, 13360, Note_off_c, 1, 87, 0
2, 13360, Note_off_c, 1, 90, 0
2, 13400, Note_off_c, 1, 36, 0
2, 13400, Note_on_c, 1, 37, 127
2, 13400, Note_off_c, 1, 46, 0
2, 13400, Note_off_c, 1, 62, 0
2, 13400, Note_on_c, 1, 66, 127
2, 13400, Note_on_c, 1, 70, 127
2, 13400, Note_on_c, 1, 78, 127
2, 13440, Note_off_c, 1, 37, 0
2, 13440, Note_on_c, 1, 43, 127
2, 13440, Note_off_c, 1, 66, 0
2, 13440, Note_off_c, 1, 70, 0
2, 13440, Note_off_c, 1, 78, 0
2, 13440, Note_on_c, 1, 87, 127
2, 13440, Note_on_c, 1, 90, 127
2, 13520, Note_off_c, 1, 43, 0
2, 13520, Note_on_c, 1, 56, 127
2, 13520, Note_on_c, 1, 58, 127
2, 13520, Note_on_c, 1, 66, 127
2, 13520, Note_on_c, 1, 68, 127
2, 13520, Note_off_c, 1, 87, 0
2, 13520, Note_off_c, 1, 90, 0
2, 13560, Note_on_c, 1, 44, 127
2, 13560, Note_on_c, 1, 53, 127
2, 13560, Note_off_c, 1, 56, 0
2, 13560, Note_on_c, 1, 62, 127
2, 13560, Note_off_c, 1, 66, 0
2, 13560, Note_off_c, 1, 68, 0
2, 13600, Note_on_c, 1, 39, 127
2, 13600, Note_off_c, 1, 44, 0
2, 13600, Note_on_c, 1, 50, 127
2, 13600, Note_off_c, 1, 53, 0
2, 13600, Note_off_c, 1, 58, 0
2, 13600, Note_off_c, 1, 62, 0
2, 13600, Note_on_c, 1, 65, 127
2, 13640, Note_off_c, 1, 39, 0
2, 13640, Note_off_c, 1, 50, 0
2, 13640, Note_on_c, 1, 52, 127
2, 13640, Note_on_c, 1, 55, 127
2, 13640, Note_off_c, 1, 65, 0
2, 13640, Note_on_c, 1, 71, 127
2, 13640, Note_on_c, 1, 74, 127
2, 13640, Note_on_c, 1, 83, 127
2, 13680, Note_off_c, 1, 52, 0
2, 13680, Note_off_c, 1, 55, 0
2, 13680, Note_off_c, 1, 71, 0
2, 13680, Note_off_c, 1, 74, 0
2, 13680, Note_off_c, 1, 83, 0
2, 13720, Note_on_c, 1, 36, 127
2, 13720, Note_on_c, 1, 48, 127
2, 13720, Note_on_c, 1, 84, 127
2, 13720, Note_on_c, 1, 87, 127
2, 13720, Note_on_c, 1, 96, 127
2, 13880, Note_off_c, 1, 36, 0
2, 13880, Note_on_c, 1, 38, 127
2, 13880, Note_off_c, 1, 48, 0
2, 13880, Note_on_c, 1, 50, 127
2, 13880, Note_on_c, 1, 55, 127
2, 13880, Note_on_c, 1, 67, 127
2, 13880, Note_off_c, 1, 84, 0
2, 13880, Note_off_c, 1, 87, 0
2, 13880, Note_off_c, 1, 96, 0
2, 13920, Note_on_c, 1, 36, 127
2, 13920, Note_off_c, 1, 38, 0
2, 13920, Note_on_c, 1, 48, 127
2, 13920, Note_off_c, 1, 50, 0
2, 13920, Note_off_c, 1, 55, 0
2, 13920, Note_off_c, 1, 67, 0
2, 13960, Note_on_c, 1, 31, 127
2, 13960, Note_off_c, 1, 36, 0
2, 13960, Note_on_c, 1, 43, 127
2, 13960, Note_off_c, 1, 48, 0
2, 13960, Note_on_c, 1, 96, 127
2, 14000, Note_off_c, 1, 31, 0
2, 14000, Note_off_c, 1, 43, 0
2, 14000, Note_on_c, 1, 61, 127
2, 14000, Note_on_c, 1, 65, 127
2, 14000, Note_on_c, 1, 73, 127
2, 14000, Note_on_c, 1, 79, 127
2, 14000, Note_off_c, 1, 96, 0
2, 14040, Note_off_c, 1, 61, 0
2, 14040, Note_off_c, 1, 65, 0
2, 14040, Note_off_c, 1, 73, 0
2, 14040, Note_off_c, 1, 79, 0
2, 14080, Note_on_c, 1, 33, 127
2, 14080, Note_on_c, 1, 49, 127
2, 14080, Note_on_c, 1, 64, 127
2, 14080, Note_on_c, 1, 69, 127
2, 14120, Note_off_c, 1, 33, 0
2, 14120, Note_off_c, 1, 49, 0
2, 14120, Note_off_c, 1, 64, 0
2, 14120, Note_off_c, 1, 69, 0
2, 14160, Note_on_c, 1, 37, 127
2, 14160, Note_on_c, 1, 49, 127
2, 14160, Note_on_c, 1, 88, 127
2, 14320, Note_off_c, 1, 88, 0
2, 14360, Note_on_c, 1, 63, 127
2, 14520, Note_off_c, 1, 63, 0
2, 14560, Note_on_c, 1, 65, 127
2, 14560, Note_on_c, 1, 70, 127
2, 14560, Note_on_c, 1, 77, 127
2, 14920, Note_off_c, 1, 37, 0
2, 14920, Note_off_c, 1, 49, 0
2, 14920, Note_off_c, 1, 65, 0
2, 14920, Note_off_c, 1, 70, 0
2, 14920, Note_off_c, 1, 77, 0
2, 14960, Note_on_c, 1, 37, 127
2, 14960, Note_on_c, 1, 49, 127
2, 14960, Note_on_c, 1, 63, 127
2, 14960, Note_on_c, 1, 70, 127
2, 14960, Note_on_c, 1, 75, 127
2, 15240, Note_off_c, 1, 37, 0
2, 15240, Note_off_c, 1, 49, 0
2, 15240, Note_off_c, 1, 63, 0
2, 15240, Note_off_c, 1, 70, 0
2, 15240, Note_off_c, 1, 75, 0
2, 15280, Note_on_c, 1, 37, 127
2, 15280, Note_on_c, 1, 49, 127
2, 15280, Note_on_c, 1, 63, 127
2, 15280, Note_on_c, 1, 70, 127
2, 15280, Note_on_c, 1, 75, 127
2, 15600, Note_off_c, 1, 37, 0
2, 15600, Note_off_c, 1, 49, 0
2, 15600, Note_off_c, 1, 63, 0
2, 15600, Note_off_c, 1, 70, 0
2, 15600, Note_off_c, 1, 75, 0
2, 15640, Note_on_c, 1, 40, 127
2, 15640, Note_on_c, 1, 52, 127
2, 15640, Note_on_c, 1, 72, 127
2, 15640, Note_on_c, 1, 77, 127
2, 15960, Note_off_c, 1, 40, 0
2, 15960, Note_off_c, 1, 52, 0
2, 15960, Note_off_c, 1, 72, 0
2, 16000, Note_off_c, 1, 77, 0
2, 16040, Note_on_c, 1, 36, 127
2, 16040, Note_on_c, 1, 48, 127
2, 16040, Note_on_c, 1, 57, 127
2, 16040, Note_on_c, 1, 69, 127
2, 16200, Note_off_c, 1, 36, 0
2, 16200, Note_off_c, 1, 48, 0
2, 16200, Note_off_c, 1, 57, 0
2, 16200, Note_off_c, 1, 69, 0
2, 16240, Note_on_c, 1, 36, 127
2, 16240, Note_on_c, 1, 48, 127
2, 16240, Note_on_c, 1, 57, 127
2, 16240, Note_on_c, 1, 69, 127
2, 16400, Note_off_c, 1, 36, 0
2, 16400, Note_on_c, 1, 38, 127
2, 16400, Note_off_c, 1, 48, 0
2, 16400, Note_on_c, 1, 60, 127
2, 16400, Note_on_c, 1, 62, 127
2, 16400, Note_on_c, 1, 66, 127
2, 16400, Note_off_c, 1, 69, 0
2, 16440, Note_off_c, 1, 38, 0
2, 16440, Note_off_c, 1, 57, 0
2, 16440, Note_off_c, 1, 60, 0
2, 16440, Note_off_c, 1, 66, 0
2, 16440, Note_on_c, 1, 72, 127
2, 16480, Note_on_c, 1, 36, 127
2, 16480, Note_on_c, 1, 48, 127
2, 16480, Note_on_c, 1, 60, 127
2, 16480, Note_off_c, 1, 62, 0
2, 16480, Note_on_c, 1, 69, 127
2, 16480, Note_off_c, 1, 72, 0
2, 16840, Note_off_c, 1, 36, 0
2, 16840, Note_off_c, 1, 48, 0
2, 16840, Note_off_c, 1, 60, 0
2, 16840, Note_off_c, 1, 69, 0
2, 16880, Note_on_c, 1, 36, 127
2, 16880, Note_on_c, 1, 48, 127
2, 16880, Note_on_c, 1, 65, 127
2, 16880, Note_on_c, 1, 69, 127
2, 17200, Note_off_c, 1, 65, 0
2, 17200, Note_on_c, 1, 67, 127
2, 17200, Note_off_c, 1, 69, 0
2, 17240, Note_on_c, 1, 65, 127
2, 17240, Note_off_c, 1, 67, 0
2, 17240, Note_on_c, 1, 69, 127
2, 17600, Note_off_c, 1, 36, 0
2, 17600, Note_off_c, 1, 48, 0
2, 17600, Note_off_c, 1, 65, 0
2, 17600, Note_off_c, 1, 69, 0
2, 17640, Note_on_c, 1, 37, 127
2, 17640, Note_on_c, 1, 49, 127
2, 17640, Note_on_c, 1, 57, 127
2, 17640, Note_on_c, 1, 64, 127
2, 18000, Note_off_c, 1, 37, 0
2, 18000, Note_off_c, 1, 49, 0
2, 18000, Note_off_c, 1, 57, 0
2, 18000, Note_off_c, 1, 64, 0
2, 18040, Note_on_c, 1, 38, 127
2, 18040, Note_on_c, 1, 50, 127
2, 18040, Note_on_c, 1, 62, 127
2, 18040, Note_on_c, 1, 65, 127
2, 18200, Note_off_c, 1, 38, 0
2, 18200, Note_on_c, 1, 48, 127
2, 18200, Note_off_c, 1, 50, 0
2, 18200, Note_on_c, 1, 55, 127
2, 18200, Note_off_c, 1, 65, 0
2, 18200, Note_on_c, 1, 96, 127
2, 18240, Note_on_c, 1, 38, 127
2, 18240, Note_off_c, 1, 48, 0
2, 18240, Note_on_c, 1, 50, 127
2, 18240, Note_off_c, 1, 55, 0
2, 18240, Note_on_c, 1, 57, 127
2, 18240, Note_off_c, 1, 62, 0
2, 18240, Note_off_c, 1, 96, 0
2, 18280, Note_off_c, 1, 38, 0
2, 18280, Note_off_c, 1, 50, 0
2, 18280, Note_off_c, 1, 57, 0
2, 18320, Note_on_c, 1, 38, 127
2, 18320, Note_on_c, 1, 50, 127
2, 18320, Note_on_c, 1, 57, 127
2, 18360, Note_on_c, 1, 45, 127
2, 18360, Note_on_c, 1, 54, 127
2, 18360, Note_off_c, 1, 57, 0
2, 18400, Note_off_c, 1, 45, 0
2, 18400, Note_off_c, 1, 54, 0
2, 18400, Note_on_c, 1, 57, 127
2, 18480, Note_on_c, 1, 36, 127
2, 18480, Note_off_c, 1, 38, 0
2, 18480, Note_on_c, 1, 48, 127
2, 18480, Note_off_c, 1, 50, 0
2, 18480, Note_off_c, 1, 57, 0
2, 18480, Note_on_c, 1, 65, 127
2, 18480, Note_on_c, 1, 69, 127
2, 18480, Note_on_c, 1, 72, 127
2, 18840, Note_off_c, 1, 36, 0
2, 18840, Note_off_c, 1, 48, 0
2, 18840, Note_off_c, 1, 65, 0
2, 18840, Note_off_c, 1, 69, 0
2, 18840, Note_off_c, 1, 72, 0
2, 18880, Note_on_c, 1, 33, 127
2, 18880, Note_on_c, 1, 45, 127
2, 18880, Note_on_c, 1, 69, 127
2, 18880, Note_on_c, 1, 73, 127
2, 18880, Note_on_c, 1, 81, 127
2, 19640, Note_off_c, 1, 33, 0
2, 19640, Note_off_c, 1, 45, 0
2, 19640, Note_off_c, 1, 69, 0
2, 19640, Note_off_c, 1, 73, 0
2, 19640, Note_off_c, 1, 81, 0
2, 19680, Note_on_c, 1, 45, 127
2, 19680, Note_on_c, 1, 57, 127
2, 19680, Note_on_c, 1, 73, 127
2, 19680, Note_on_c, 1, 76, 127
2, 19680, Note_on_c, 1, 81, 127
2, 20040, Note_off_c, 1, 45, 0
2, 20040, Note_off_c, 1, 57, 0
2, 20040, Note_off_c, 1, 73, 0
2, 20040, Note_off_c, 1, 76, 0
2, 20040, Note_off_c, 1, 81, 0
2, 20080, Note_on_c, 1, 45, 127
2, 20080, Note_on_c, 1, 57, 127
2, 20080, Note_on_c, 1, 73, 127
2, 20080, Note_on_c, 1, 76, 127
2, 20080, Note_on_c, 1, 81, 127
2, 20240, Note_off_c, 1, 45, 0
2, 20240, Note_off_c, 1, 57, 0
2, 20240, Note_off_c, 1, 73, 0
2, 20240, Note_off_c, 1, 76, 0
2, 20240, Note_off_c, 1, 81, 0
2, 20280, Note_on_c, 1, 45, 127
2, 20280, Note_on_c, 1, 57, 127
2, 20280, Note_on_c, 1, 73, 127
2, 20280, Note_on_c, 1, 76, 127
2, 20280, Note_on_c, 1, 81, 127
2, 20440, Note_off_c, 1, 45, 0
2, 20440, Note_off_c, 1, 57, 0
2, 20440, Note_off_c, 1, 73, 0
2, 20440, Note_off_c, 1, 76, 0
2, 20440, Note_off_c, 1, 81, 0
2, 20480, Note_on_c, 1, 52, 127
2, 20480, Note_on_c, 1, 57, 127
2, 20480, Note_on_c, 1, 64, 127
2, 20480, Note_on_c, 1, 85, 127
2, 20800, Note_off_c, 1, 85, 0
2, 21240, Note_off_c, 1, 52, 0
2, 21240, Note_off_c, 1, 57, 0
2, 21240, Note_off_c, 1, 64, 0
2, 21280, Note_on_c, 1, 53, 127
2, 21280, Note_on_c, 1, 57, 127
2, 21280, Note_on_c, 1, 64, 127
2, 21280, Note_on_c, 1, 69, 127
2, 21280, Note_on_c, 1, 72, 127
2, 21280, Note_on_c, 1, 76, 127
2, 21440, Note_off_c, 1, 69, 0
2, 21440, Note_off_c, 1, 72, 0
2, 21440, Note_off_c, 1, 76, 0
2, 21480, Note_on_c, 1, 65, 127
2, 21600, Note_off_c, 1, 65, 0
2, 21640, Note_on_c, 1, 69, 127
2, 21640, Note_on_c, 1, 72, 127
2, 21640, Note_on_c, 1, 76, 127
2, 22000, Note_off_c, 1, 53, 0
2, 22000, Note_off_c, 1, 57, 0
2, 22000, Note_off_c, 1, 64, 0
2, 22000, Note_off_c, 1, 69, 0
2, 22000, Note_off_c, 1, 72, 0
2, 22000, Note_off_c, 1, 76, 0
2, 22040, Note_on_c, 1, 46, 127
2, 22040, Note_on_c, 1, 51, 127
2, 22040, Note_on_c, 1, 67, 127
2, 22040, Note_on_c, 1, 75, 127
2, 22320, Note_off_c, 1, 46, 0
2, 22320, Note_off_c, 1, 51, 0
2, 22320, Note_off_c, 1, 67, 0
2, 22320, Note_off_c, 1, 75, 0
2, 22360, Note_on_c, 1, 46, 127
2, 22360, Note_on_c, 1, 51, 127
2, 22360, Note_on_c, 1, 67, 127
2, 22360, Note_on_c, 1, 75, 127
2, 22400, Note_off_c, 1, 51, 0
2, 22400, Note_off_c, 1, 67, 0
2, 22400, Note_off_c, 1, 75, 0
2, 22440, Note_off_c, 1, 46, 0
2, 22440, Note_on_c, 1, 52, 127
2, 22440, Note_on_c, 1, 58, 127
2, 22440, Note_on_c, 1, 67, 127
2, 22440, Note_on_c, 1, 79, 127
2, 22800, Note_off_c, 1, 67, 0
2, 22800, Note_off_c, 1, 79, 0
2, 22840, Note_on_c, 1, 36, 127
2, 22840, Note_on_c, 1, 43, 127
2, 22840, Note_off_c, 1, 52, 0
2, 22840, Note_on_c, 1, 53, 127
2, 22840, Note_on_c, 1, 55, 127
2, 22840, Note_off_c, 1, 58, 0
2, 22840, Note_on_c, 1, 59, 127
2, 22880, Note_off_c, 1, 36, 0
2, 22880, Note_on_c, 1, 38, 127
2, 22880, Note_off_c, 1, 43, 0
2, 22880, Note_on_c, 1, 50, 127
2, 22880, Note_off_c, 1, 53, 0
2, 22880, Note_off_c, 1, 55, 0
2, 22880, Note_off_c, 1, 59, 0
2, 22880, Note_on_c, 1, 68, 127
2, 22880, Note_on_c, 1, 70, 127
2, 22880, Note_on_c, 1, 77, 127
2, 22880, Note_on_c, 1, 82, 127
2, 22920, Note_off_c, 1, 38, 0
2, 22920, Note_on_c, 1, 45, 127
2, 22920, Note_on_c, 1, 49, 127
2, 22920, Note_off_c, 1, 50, 0
2, 22920, Note_on_c, 1, 61, 127
2, 22920, Note_on_c, 1, 62, 127
2, 22920, Note_off_c, 1, 68, 0
2, 22920, Note_off_c, 1, 70, 0
2, 22920, Note_off_c, 1, 77, 0
2, 22920, Note_off_c, 1, 82, 0
2, 22960, Note_off_c, 1, 45, 0
2, 22960, Note_on_c, 1, 46, 127
2, 22960, Note_off_c, 1, 49, 0
2, 22960, Note_off_c, 1, 61, 0
2, 22960, Note_off_c, 1, 62, 0
2, 22960, Note_on_c, 1, 69, 127
2, 22960, Note_on_c, 1, 73, 127
2, 22960, Note_on_c, 1, 77, 127
2, 23000, Note_on_c, 1, 44, 127
2, 23000, Note_off_c, 1, 46, 0
2, 23000, Note_on_c, 1, 51, 127
2, 23000, Note_on_c, 1, 60, 127
2, 23000, Note_on_c, 1, 62, 127
2, 23000, Note_off_c, 1, 69, 0
2, 23000, Note_on_c, 1, 72, 127
2, 23000, Note_off_c, 1, 73, 0
2, 23000, Note_off_c, 1, 77, 0
2, 23040, Note_off_c, 1, 44, 0
2, 23040, Note_on_c, 1, 48, 127
2, 23040, Note_off_c, 1, 51, 0
2, 23040, Note_on_c, 1, 56, 127
2, 23040, Note_off_c, 1, 72, 0
2, 23080, Note_off_c, 1, 48, 0
2, 23080, Note_off_c, 1, 56, 0
2, 23080, Note_off_c, 1, 60, 0
2, 23080, Note_off_c, 1, 62, 0
2, 23080, Note_on_c, 1, 63, 127
2, 23080, Note_on_c, 1, 68, 127
2, 23080, Note_on_c, 1, 73, 127
2, 23080, Note_on_c, 1, 79, 127
2, 23120, Note_on_c, 1, 48, 127
2, 23120, Note_on_c, 1, 56, 127
2, 23120, Note_on_c, 1, 60, 127
2, 23120, Note_on_c, 1, 62, 127
2, 23120, Note_off_c, 1, 63, 0
2, 23120, Note_off_c, 1, 68, 0
2, 23120, Note_off_c, 1, 73, 0
2, 23120, Note_off_c, 1, 79, 0
2, 23160, Note_off_c, 1, 48, 0
2, 23160, Note_off_c, 1, 56, 0
2, 23160, Note_off_c, 1, 60, 0
2, 23160, Note_off_c, 1, 62, 0
2, 23160, Note_on_c, 1, 70, 127
2, 23160, Note_on_c, 1, 83, 127
2, 23160, Note_on_c, 1, 95, 127
2, 23200, Note_off_c, 1, 70, 0
2, 23200, Note_off_c, 1, 83, 0
2, 23200, Note_off_c, 1, 95, 0
2, 23240, Note_on_c, 1, 43, 127
2, 23240, Note_on_c, 1, 55, 127
2, 23240, Note_on_c, 1, 63, 127
2, 23240, Note_on_c, 1, 70, 127
2, 23240, Note_on_c, 1, 73, 127
2, 23240, Note_on_c, 1, 75, 127
2, 23560, Note_off_c, 1, 63, 0
2, 23640, Note_on_c, 1, 63, 127
2, 23960, Note_off_c, 1, 43, 0
2, 23960, Note_off_c, 1, 55, 0
2, 23960, Note_off_c, 1, 63, 0
2, 23960, Note_off_c, 1, 70, 0
2, 23960, Note_off_c, 1, 73, 0
2, 23960, Note_off_c, 1, 75, 0
2, 24000, Note_on_c, 1, 50, 127
2, 24000, Note_on_c, 1, 62, 127
2, 24000, Note_on_c, 1, 69, 127
2, 24000, Note_on_c, 1, 74, 127
2, 24000, Note_on_c, 1, 77, 127
2, 24000, Note_on_c, 1, 81, 127
2, 24160, Note_off_c, 1, 69, 0
2, 24160, Note_off_c, 1, 74, 0
2, 24160, Note_off_c, 1, 77, 0
2, 24160, Note_off_c, 1, 81, 0
2, 24200, Note_on_c, 1, 65, 127
2, 24200, Note_on_c, 1, 77, 127
2, 24360, Note_off_c, 1, 50, 0
2, 24360, Note_off_c, 1, 62, 0
2, 24360, Note_off_c, 1, 65, 0
2, 24360, Note_off_c, 1, 77, 0
2, 24440, Note_on_c, 1, 48, 127
2, 24440, Note_on_c, 1, 60, 127
2, 24440, Note_on_c, 1, 63, 127
2, 24440, Note_on_c, 1, 75, 127
2, 24760, Note_off_c, 1, 48, 0
2, 24760, Note_off_c, 1, 60, 0
2, 24760, Note_off_c, 1, 63, 0
2, 24760, Note_off_c, 1, 75, 0
2, 24800, Note_on_c, 1, 50, 127
2, 24800, Note_on_c, 1, 53, 127
2, 24800, Note_on_c, 1, 56, 127
2, 24800, Note_on_c, 1, 58, 127
2, 24800, Note_on_c, 1, 79, 127
2, 24920, Note_off_c, 1, 79, 0
2, 24920, Note_on_c, 1, 86, 127
2, 24960, Note_on_c, 1, 79, 127
2, 24960, Note_off_c, 1, 86, 0
2, 25000, Note_off_c, 1, 79, 0
2, 25000, Note_on_c, 1, 86, 127
2, 25160, Note_off_c, 1, 50, 0
2, 25160, Note_off_c, 1, 53, 0
2, 25160, Note_off_c, 1, 56, 0
2, 25160, Note_off_c, 1, 58, 0
2, 25160, Note_off_c, 1, 86, 0
2, 25200, Note_on_c, 1, 48, 127
2, 25200, Note_on_c, 1, 65, 127
2, 25200, Note_on_c, 1, 74, 127
2, 25200, Note_on_c, 1, 81, 127
2, 25240, Note_on_c, 1, 44, 127
2, 25240, Note_off_c, 1, 48, 0
2, 25240, Note_on_c, 1, 51, 127
2, 25240, Note_on_c, 1, 55, 127
2, 25240, Note_on_c, 1, 63, 127
2, 25240, Note_off_c, 1, 65, 0
2, 25240, Note_on_c, 1, 73, 127
2, 25240, Note_off_c, 1, 74, 0
2, 25240, Note_off_c, 1, 81, 0
2, 25280, Note_off_c, 1, 44, 0
2, 25280, Note_on_c, 1, 48, 127
2, 25280, Note_off_c, 1, 51, 0
2, 25280, Note_off_c, 1, 55, 0
2, 25280, Note_off_c, 1, 63, 0
2, 25280, Note_on_c, 1, 65, 127
2, 25280, Note_off_c, 1, 73, 0
2, 25280, Note_on_c, 1, 74, 127
2, 25280, Note_on_c, 1, 81, 127
2, 25360, Note_on_c, 1, 29, 127
2, 25360, Note_on_c, 1, 41, 127
2, 25360, Note_off_c, 1, 48, 0
2, 25360, Note_on_c, 1, 51, 127
2, 25360, Note_on_c, 1, 53, 127
2, 25360, Note_on_c, 1, 57, 127
2, 25360, Note_on_c, 1, 60, 127
2, 25360, Note_off_c, 1, 65, 0
2, 25360, Note_off_c, 1, 74, 0
2, 25360, Note_off_c, 1, 81, 0
2, 25400, Note_on_c, 1, 27, 127
2, 25400, Note_off_c, 1, 29, 0
2, 25400, Note_on_c, 1, 39, 127
2, 25400, Note_off_c, 1, 41, 0
2, 25400, Note_off_c, 1, 51, 0
2, 25400, Note_off_c, 1, 53, 0
2, 25400, Note_off_c, 1, 57, 0
2, 25400, Note_on_c, 1, 58, 127
2, 25400, Note_off_c, 1, 60, 0
2, 25400, Note_on_c, 1, 67, 127
2, 25440, Note_off_c, 1, 27, 0
2, 25440, Note_off_c, 1, 39, 0
2, 25440, Note_on_c, 1, 46, 127
2, 25440, Note_on_c, 1, 53, 127
2, 25440, Note_off_c, 1, 67, 0
2, 25440, Note_on_c, 1, 70, 127
2, 25440, Note_on_c, 1, 75, 127
2, 25480, Note_on_c, 1, 44, 127
2, 25480, Note_off_c, 1, 46, 0
2, 25480, Note_on_c, 1, 51, 127
2, 25480, Note_off_c, 1, 53, 0
2, 25480, Note_off_c, 1, 58, 0
2, 25480, Note_on_c, 1, 60, 127
2, 25480, Note_on_c, 1, 66, 127
2, 25480, Note_off_c, 1, 70, 0
2, 25520, Note_off_c, 1, 44, 0
2, 25520, Note_off_c, 1, 51, 0
2, 25520, Note_off_c, 1, 60, 0
2, 25520, Note_off_c, 1, 66, 0
2, 25520, Note_off_c, 1, 75, 0
2, 25560, Note_on_c, 1, 29, 127
2, 25560, Note_on_c, 1, 57, 127
2, 25560, Note_on_c, 1, 60, 127
2, 25560, Note_on_c, 1, 65, 127
2, 25920, Note_off_c, 1, 29, 0
2, 25920, Note_on_c, 1, 41, 127
2, 25920, Note_off_c, 1, 57, 0
2, 25920, Note_off_c, 1, 60, 0
2, 25920, Note_off_c, 1, 65, 0
2, 25960, Note_on_c, 1, 29, 127
2, 25960, Note_off_c, 1, 41, 0
2, 25960, Note_on_c, 1, 57, 127
2, 25960, Note_on_c, 1, 60, 127
2, 25960, Note_on_c, 1, 65, 127
2, 26000, Note_off_c, 1, 29, 0
2, 26000, Note_on_c, 1, 41, 127
2, 26040, Note_on_c, 1, 29, 127
2, 26040, Note_off_c, 1, 41, 0
2, 26080, Note_off_c, 1, 29, 0
2, 26080, Note_on_c, 1, 41, 127
2, 26160, Note_off_c, 1, 41, 0
2, 26160, Note_off_c, 1, 57, 0
2, 26160, Note_off_c, 1, 60, 0
2, 26160, Note_off_c, 1, 65, 0
2, 26200, Note_on_c, 1, 29, 127
2, 26200, Note_on_c, 1, 57, 127
2, 26200, Note_on_c, 1, 60, 127
2, 26200, Note_on_c, 1, 65, 127
2, 26240, Note_off_c, 1, 29, 0
2, 26240, Note_on_c, 1, 41, 127
2, 26280, Note_on_c, 1, 29, 127
2, 26280, Note_off_c, 1, 41, 0
2, 26320, Note_off_c, 1, 29, 0
2, 26320, Note_on_c, 1, 41, 127
2, 26320, Note_off_c, 1, 57, 0
2, 26320, Note_off_c, 1, 60, 0
2, 26320, Note_off_c, 1, 65, 0
2, 26360, Note_on_c, 1, 38, 127
2, 26360, Note_off_c, 1, 41, 0
2, 26360, Note_on_c, 1, 50, 127
2, 26360, Note_on_c, 1, 71, 127
2, 26360, Note_on_c, 1, 77, 127
2, 26360, Note_on_c, 1, 83, 127
2, 26600, Note_off_c, 1, 38, 0
2, 26600, Note_off_c, 1, 50, 0
2, 26600, Note_off_c, 1, 83, 0
2, 26640, Note_on_c, 1, 38, 127
2, 26640, Note_on_c, 1, 50, 127
2, 26640, Note_on_c, 1, 83, 127
2, 26720, Note_off_c, 1, 38, 0
2, 26720, Note_off_c, 1, 50, 0
2, 26720, Note_off_c, 1, 83, 0
2, 26760, Note_on_c, 1, 59, 127
2, 26760, Note_on_c, 1, 67, 127
2, 26760, Note_off_c, 1, 71, 0
2, 26760, Note_on_c, 1, 79, 127
2, 26760, Note_on_c, 1, 89, 127
2, 26920, Note_on_c, 1, 37, 127
2, 26920, Note_on_c, 1, 46, 127
2, 26920, Note_on_c, 1, 49, 127
2, 26920, Note_off_c, 1, 59, 0
2, 26920, Note_off_c, 1, 67, 0
2, 26920, Note_off_c, 1, 77, 0
2, 26920, Note_off_c, 1, 79, 0
2, 26920, Note_off_c, 1, 89, 0
2, 26960, Note_off_c, 1, 37, 0
2, 26960, Note_off_c, 1, 46, 0
2, 26960, Note_off_c, 1, 49, 0
2, 26960, Note_on_c, 1, 58, 127
2, 26960, Note_on_c, 1, 60, 127
2, 26960, Note_on_c, 1, 63, 127
2, 26960, Note_on_c, 1, 65, 127
2, 26960, Note_on_c, 1, 69, 127
2, 26960, Note_on_c, 1, 75, 127
2, 26960, Note_on_c, 1, 84, 127
2, 27080, Note_off_c, 1, 58, 0
2, 27080, Note_off_c, 1, 60, 0
2, 27080, Note_off_c, 1, 63, 0
2, 27080, Note_off_c, 1, 65, 0
2, 27080, Note_off_c, 1, 69, 0
2, 27080, Note_off_c, 1, 75, 0
2, 27080, Note_off_c, 1, 84, 0
2, 27120, Note_on_c, 1, 46, 127
2, 27120, Note_on_c, 1, 50, 127
2, 27120, Note_on_c, 1, 58, 127
2, 27120, Note_on_c, 1, 65, 127
2, 27480, Note_off_c, 1, 50, 0
2, 27480, Note_off_c, 1, 58, 0
2, 27480, Note_off_c, 1, 65, 0
2, 27520, Note_on_c, 1, 39, 127
2, 27520, Note_on_c, 1, 66, 127
2, 27520, Note_on_c, 1, 75, 127
2, 27840, Note_off_c, 1, 39, 0
2, 27840, Note_off_c, 1, 46, 0
2, 27840, Note_off_c, 1, 66, 0
2, 27880, Note_on_c, 1, 34, 127
2, 27880, Note_on_c, 1, 63, 127
2, 27880, Note_on_c, 1, 70, 127
2, 27880, Note_off_c, 1, 75, 0
2, 28000, Note_off_c, 1, 34, 0
2, 28000, Note_on_c, 1, 36, 127
2, 28000, Note_on_c, 1, 43, 127
2, 28000, Note_on_c, 1, 52, 127
2, 28000, Note_on_c, 1, 60, 127
2, 28000, Note_off_c, 1, 63, 0
2, 28000, Note_on_c, 1, 67, 127
2, 28000, Note_off_c, 1, 70, 0
2, 28000, Note_on_c, 1, 72, 127
2, 28040, Note_off_c, 1, 36, 0
2, 28040, Note_off_c, 1, 43, 0
2, 28040, Note_off_c, 1, 52, 0
2, 28040, Note_off_c, 1, 60, 0
2, 28040, Note_off_c, 1, 67, 0
2, 28040, Note_off_c, 1, 72, 0
2, 28080, Note_on_c, 1, 34, 127
2, 28080, Note_on_c, 1, 63, 127
2, 28080, Note_on_c, 1, 70, 127
2, 28240, Note_off_c, 1, 63, 0
2, 28280, Note_off_c, 1, 34, 0
2, 28280, Note_on_c, 1, 42, 127
2, 28280, Note_off_c, 1, 70, 0
2, 28280, Note_on_c, 1, 93, 127
2, 28280, Note_on_c, 1, 95, 127
2, 28320, Note_on_c, 1, 49, 127
2, 28320, Note_on_c, 1, 56, 127
2, 28320, Note_on_c, 1, 83, 127
2, 28320, Note_on_c, 1, 85, 127
2, 28320, Note_on_c, 1, 89, 127
2, 28320, Note_off_c, 1, 93, 0
2, 28320, Note_off_c, 1, 95, 0
2, 28360, Note_off_c, 1, 42, 0
2, 28360, Note_on_c, 1, 54, 127
2, 28360, Note_on_c, 1, 60, 127
2, 28360, Note_off_c, 1, 83, 0
2, 28360, Note_on_c, 1, 84, 127
2, 28360, Note_off_c, 1, 85, 0
2, 28360, Note_off_c, 1, 89, 0
2, 28400, Note_on_c, 1, 42, 127
2, 28400, Note_on_c, 1, 46, 127
2, 28400, Note_off_c, 1, 56, 0
2, 28400, Note_off_c, 1, 60, 0
2, 28400, Note_off_c, 1, 84, 0
2, 28400, Note_on_c, 1, 85, 127
2, 28440, Note_off_c, 1, 42, 0
2, 28440, Note_off_c, 1, 46, 0
2, 28440, Note_off_c, 1, 49, 0
2, 28440, Note_off_c, 1, 54, 0
2, 28440, Note_on_c, 1, 71, 127
2, 28440, Note_on_c, 1, 76, 127
2, 28440, Note_on_c, 1, 80, 127
2, 28440, Note_off_c, 1, 85, 0
2, 28440, Note_on_c, 1, 88, 127
2, 28440, Note_on_c, 1, 91, 127
2, 28480, Note_on_c, 1, 43, 127
2, 28480, Note_on_c, 1, 50, 127
2, 28480, Note_on_c, 1, 67, 127
2, 28480, Note_off_c, 1, 71, 0
2, 28480, Note_off_c, 1, 80, 0
2, 28480, Note_off_c, 1, 88, 0
2, 28480, Note_off_c, 1, 91, 0
2, 28520, Note_off_c, 1, 43, 0
2, 28520, Note_off_c, 1, 50, 0
2, 28520, Note_on_c, 1, 60, 127
2, 28520, Note_off_c, 1, 76, 0
2, 28520, Note_on_c, 1, 95, 127
2, 28520, Note_on_c, 1, 96, 127
2, 28560, Note_on_c, 1, 43, 127
2, 28560, Note_on_c, 1, 50, 127
2, 28560, Note_off_c, 1, 60, 0
2, 28560, Note_on_c, 1, 76, 127
2, 28560, Note_off_c, 1, 95, 0
2, 28560, Note_off_c, 1, 96, 0
2, 28600, Note_on_c, 1, 32, 127
2, 28600, Note_on_c, 1, 39, 127
2, 28600, Note_off_c, 1, 43, 0
2, 28600, Note_on_c, 1, 44, 127
2, 28600, Note_off_c, 1, 50, 0
2, 28600, Note_off_c, 1, 67, 0
2, 28600, Note_on_c, 1, 75, 127
2, 28600, Note_off_c, 1, 76, 0
2, 28640, Note_off_c, 1, 32, 0
2, 28640, Note_off_c, 1, 39, 0
2, 28640, Note_off_c, 1, 44, 0
2, 28640, Note_on_c, 1, 74, 127
2, 28640, Note_off_c, 1, 75, 0
2, 28680, Note_on_c, 1, 44, 127
2, 28680, Note_on_c, 1, 53, 127
2, 28680, Note_on_c, 1, 56, 127
2, 28680, Note_on_c, 1, 61, 127
2, 28680, Note_on_c, 1, 65, 127
2, 28680, Note_off_c, 1, 74, 0
2, 29400, Note_off_c, 1, 44, 0
2, 29400, Note_off_c, 1, 53, 0
2, 29400, Note_off_c, 1, 56, 0
2, 29400, Note_off_c, 1, 61, 0
2, 29400, Note_off_c, 1, 65, 0
2, 29440, Note_on_c, 1, 41, 127
2, 29440, Note_on_c, 1, 53, 127
2, 29440, Note_on_c, 1, 57, 127
2, 29440, Note_on_c, 1, 62, 127
2, 29680, Note_off_c, 1, 53, 0
2, 29680, Note_on_c, 1, 60, 127
2, 29680, Note_off_c, 1, 62, 0
2, 29720, Note_off_c, 1, 41, 0
2, 29720, Note_on_c, 1, 46, 127
2, 29720, Note_off_c, 1, 57, 0
2, 29720, Note_off_c, 1, 60, 0
2, 29720, Note_on_c, 1, 63, 127
2, 29720, Note_on_c, 1, 71, 127
2, 29720, Note_on_c, 1, 80, 127
2, 29960, Note_off_c, 1, 46, 0
2, 29960, Note_off_c, 1, 63, 0
2, 29960, Note_off_c, 1, 71, 0
2, 29960, Note_off_c, 1, 80, 0
2, 30000, Note_on_c, 1, 37, 127
2, 30000, Note_on_c, 1, 49, 127
2, 30000, Note_on_c, 1, 77, 127
2, 30000, Note_on_c, 1, 89, 127
2, 30160, Note_off_c, 1, 37, 0
2, 30160, Note_off_c, 1, 49, 0
2, 30160, Note_on_c, 1, 55, 127
2, 30160, Note_on_c, 1, 62, 127
2, 30160, Note_on_c, 1, 71, 127
2, 30160, Note_off_c, 1, 77, 0
2, 30160, Note_on_c, 1, 78, 127
2, 30160, Note_on_c, 1, 86, 127
2, 30160, Note_off_c, 1, 89, 0
2, 30200, Note_off_c, 1, 55, 0
2, 30200, Note_off_c, 1, 62, 0
2, 30200, Note_off_c, 1, 71, 0
2, 30200, Note_off_c, 1, 78, 0
2, 30200, Note_off_c, 1, 86, 0
2, 30240, Note_on_c, 1, 53, 127
2, 30240, Note_on_c, 1, 58, 127
2, 30240, Note_on_c, 1, 73, 127
2, 30240, Note_on_c, 1, 80, 127
2, 30280, Note_on_c, 1, 51, 127
2, 30280, Note_off_c, 1, 53, 0
2, 30280, Note_on_c, 1, 65, 127
2, 30280, Note_on_c, 1, 68, 127
2, 30280, Note_on_c, 1, 72, 127
2, 30280, Note_off_c, 1, 73, 0
2, 30280, Note_off_c, 1, 80, 0
2, 30320, Note_on_c, 1, 35, 127
2, 30320, Note_off_c, 1, 51, 0
2, 30320, Note_off_c, 1, 58, 0
2, 30320, Note_on_c, 1, 61, 127
2, 30320, Note_off_c, 1, 65, 0
2, 30320, Note_off_c, 1, 68, 0
2, 30320, Note_on_c, 1, 69, 127
2, 30320, Note_off_c, 1, 72, 0
2, 30320, Note_on_c, 1, 73, 127
2, 30360, Note_off_c, 1, 35, 0
2, 30360, Note_on_c, 1, 56, 127
2, 30360, Note_on_c, 1, 59, 127
2, 30360, Note_off_c, 1, 61, 0
2, 30360, Note_on_c, 1, 64, 127
2, 30360, Note_on_c, 1, 68, 127
2, 30360, Note_off_c, 1, 69, 0
2, 30360, Note_off_c, 1, 73, 0
2, 30360, Note_on_c, 1, 88, 127
2, 30360, Note_on_c, 1, 95, 127
2, 30360, Note_on_c, 1, 100, 127
2, 30400, Note_on_c, 1, 44, 127
2, 30400, Note_off_c, 1, 59, 0
2, 30400, Note_off_c, 1, 64, 0
2, 30400, Note_off_c, 1, 68, 0
2, 30400, Note_on_c, 1, 71, 127
2, 30400, Note_on_c, 1, 75, 127
2, 30400, Note_on_c, 1, 80, 127
2, 30400, Note_on_c, 1, 83, 127
2, 30400, Note_off_c, 1, 88, 0
2, 30400, Note_off_c, 1, 95, 0
2, 30400, Note_off_c, 1, 100, 0
2, 30440, Note_on_c, 1, 38, 127
2, 30440, Note_off_c, 1, 44, 0
2, 30440, Note_on_c, 1, 51, 127
2, 30440, Note_off_c, 1, 56, 0
2, 30440, Note_on_c, 1, 65, 127
2, 30440, Note_off_c, 1, 71, 0
2, 30440, Note_off_c, 1, 75, 0
2, 30440, Note_off_c, 1, 80, 0
2, 30440, Note_off_c, 1, 83, 0
2, 30480, Note_on_c, 1, 36, 127
2, 30480, Note_off_c, 1, 38, 0
2, 30480, Note_on_c, 1, 44, 127
2, 30480, Note_on_c, 1, 48, 127
2, 30480, Note_off_c, 1, 51, 0
2, 30480, Note_off_c, 1, 65, 0
2, 30480, Note_on_c, 1, 80, 127
2, 30480, Note_on_c, 1, 87, 127
2, 30520, Note_off_c, 1, 36, 0
2, 30520, Note_on_c, 1, 38, 127
2, 30520, Note_off_c, 1, 44, 0
2, 30520, Note_off_c, 1, 48, 0
2, 30520, Note_on_c, 1, 51, 127
2, 30520, Note_on_c, 1, 65, 127
2, 30520, Note_off_c, 1, 80, 0
2, 30520, Note_off_c, 1, 87, 0
2, 30560, Note_off_c, 1, 38, 0
2, 30560, Note_off_c, 1, 51, 0
2, 30560, Note_off_c, 1, 65, 0
2, 30600, Note_on_c, 1, 34, 127
2, 30600, Note_on_c, 1, 50, 127
2, 30600, Note_on_c, 1, 58, 127
2, 30600, Note_on_c, 1, 68, 127
2, 30920, Note_off_c, 1, 34, 0
2, 30920, Note_on_c, 1, 46, 127
2, 30920, Note_off_c, 1, 50, 0
2, 30920, Note_on_c, 1, 56, 127
2, 30920, Note_off_c, 1, 58, 0
2, 30920, Note_on_c, 1, 64, 127
2, 30920, Note_off_c, 1, 68, 0
2, 30960, Note_on_c, 1, 34, 127
2, 30960, Note_off_c, 1, 46, 0
2, 30960, Note_on_c, 1, 50, 127
2, 30960, Note_off_c, 1, 56, 0
2, 30960, Note_on_c, 1, 58, 127
2, 30960, Note_off_c, 1, 64, 0
2, 30960, Note_on_c, 1, 68, 127
2, 31120, Note_on_c, 1, 46, 127
2, 31120, Note_off_c, 1, 50, 0
2, 31120, Note_off_c, 1, 58, 0
2, 31120, Note_on_c, 1, 66, 127
2, 31120, Note_off_c, 1, 68, 0
2, 31120, Note_on_c, 1, 75, 127
2, 31160, Note_off_c, 1, 34, 0
2, 31160, Note_on_c, 1, 39, 127
2, 31160, Note_on_c, 1, 42, 127
2, 31160, Note_off_c, 1, 46, 0
2, 31160, Note_on_c, 1, 51, 127
2, 31160, Note_on_c, 1, 63, 127
2, 31160, Note_off_c, 1, 66, 0
2, 31160, Note_off_c, 1, 75, 0
2, 31680, Note_off_c, 1, 39, 0
2, 31680, Note_off_c, 1, 42, 0
2, 31680, Note_off_c, 1, 51, 0
2, 31680, Note_off_c, 1, 63, 0
2, 31720, Note_on_c, 1, 40, 127
2, 31720, Note_on_c, 1, 47, 127
2, 31720, Note_on_c, 1, 52, 127
2, 31720, Note_on_c, 1, 68, 127
2, 31720, Note_on_c, 1, 71, 127
2, 31720, Note_on_c, 1, 76, 127
2, 32280, Note_off_c, 1, 40, 0
2, 32280, Note_off_c, 1, 47, 0
2, 32280, Note_off_c, 1, 52, 0
2, 32280, Note_off_c, 1, 68, 0
2, 32280, Note_off_c, 1, 71, 0
2, 32280, Note_off_c, 1, 76, 0
2, 32320, Note_on_c, 1, 39, 127
2, 32320, Note_on_c, 1, 46, 127
2, 32320, Note_on_c, 1, 53, 127
2, 32320, Note_on_c, 1, 65, 127
2, 32320, Note_on_c, 1, 68, 127
2, 32320, Note_on_c, 1, 77, 127
2, 32360, Note_off_c, 1, 39, 0
2, 32360, Note_off_c, 1, 46, 0
2, 32360, Note_on_c, 1, 50, 127
2, 32360, Note_off_c, 1, 53, 0
2, 32360, Note_off_c, 1, 65, 0
2, 32360, Note_off_c, 1, 68, 0
2, 32360, Note_on_c, 1, 71, 127
2, 32360, Note_off_c, 1, 77, 0
2, 32360, Note_on_c, 1, 86, 127
2, 32360, Note_on_c, 1, 88, 127
2, 32400, Note_off_c, 1, 50, 0
2, 32400, Note_off_c, 1, 71, 0
2, 32400, Note_off_c, 1, 86, 0
2, 32400, Note_off_c, 1, 88, 0
2, 32440, Note_on_c, 1, 47, 127
2, 32440, Note_on_c, 1, 54, 127
2, 32440, Note_on_c, 1, 61, 127
2, 32440, Note_on_c, 1, 66, 127
2, 32480, Note_off_c, 1, 61, 0
2, 32480, Note_on_c, 1, 63, 127
2, 32480, Note_off_c, 1, 66, 0
2, 32520, Note_on_c, 1, 61, 127
2, 32520, Note_off_c, 1, 63, 0
2, 32520, Note_on_c, 1, 66, 127
2, 33120, Note_on_c, 1, 35, 127
2, 33120, Note_off_c, 1, 47, 0
2, 33120, Note_off_c, 1, 54, 0
2, 33120, Note_on_c, 1, 58, 127
2, 33120, Note_off_c, 1, 61, 0
2, 33120, Note_off_c, 1, 66, 0
2, 33160, Note_off_c, 1, 35, 0
2, 33160, Note_on_c, 1, 47, 127
2, 33160, Note_on_c, 1, 54, 127
2, 33160, Note_off_c, 1, 58, 0
2, 33200, Note_on_c, 1, 51, 127
2, 33200, Note_off_c, 1, 54, 0
2, 33200, Note_on_c, 1, 59, 127
2, 33200, Note_on_c, 1, 66, 127
2, 33320, Note_off_c, 1, 51, 0
2, 33320, Note_on_c, 1, 56, 127
2, 33320, Note_off_c, 1, 66, 0
2, 33320, Note_on_c, 1, 71, 127
2, 33360, Note_on_c, 1, 51, 127
2, 33360, Note_off_c, 1, 56, 0
2, 33360, Note_on_c, 1, 66, 127
2, 33360, Note_off_c, 1, 71, 0
2, 33560, Note_off_c, 1, 51, 0
2, 33560, Note_off_c, 1, 59, 0
2, 33600, Note_on_c, 1, 32, 127
2, 33600, Note_on_c, 1, 44, 127
2, 33600, Note_off_c, 1, 47, 0
2, 33600, Note_off_c, 1, 66, 0
2, 33600, Note_on_c, 1, 68, 127
2, 33600, Note_on_c, 1, 72, 127
2, 33600, Note_on_c, 1, 75, 127
2, 33600, Note_on_c, 1, 80, 127
2, 34120, Note_off_c, 1, 32, 0
2, 34120, Note_off_c, 1, 44, 0
2, 34120, Note_on_c, 1, 51, 127
2, 34120, Note_on_c, 1, 56, 127
2, 34120, Note_on_c, 1, 60, 127
2, 34120, Note_on_c, 1, 63, 127
2, 34160, Note_on_c, 1, 32, 127
2, 34160, Note_on_c, 1, 44, 127
2, 34160, Note_off_c, 1, 51, 0
2, 34160, Note_off_c, 1, 56, 0
2, 34160, Note_off_c, 1, 60, 0
2, 34160, Note_off_c, 1, 63, 0
2, 34240, Note_off_c, 1, 32, 0
2, 34240, Note_off_c, 1, 44, 0
2, 34240, Note_off_c, 1, 68, 0
2, 34240, Note_off_c, 1, 72, 0
2, 34240, Note_off_c, 1, 75, 0
2, 34240, Note_off_c, 1, 80, 0
2, 34280, Note_on_c, 1, 32, 127
2, 34280, Note_on_c, 1, 44, 127
2, 34280, Note_on_c, 1, 68, 127
2, 34280, Note_on_c, 1, 72, 127
2, 34280, Note_on_c, 1, 75, 127
2, 34280, Note_on_c, 1, 80, 127
2, 35040, Note_off_c, 1, 32, 0
2, 35040, Note_off_c, 1, 44, 0
2, 35040, Note_off_c, 1, 68, 0
2, 35040, Note_off_c, 1, 72, 0
2, 35040, Note_off_c, 1, 75, 0
2, 35040, Note_off_c, 1, 80, 0
2, 35080, Note_on_c, 1, 48, 127
2, 35080, Note_on_c, 1, 50, 127
2, 35080, Note_on_c, 1, 54, 127
2, 35080, Note_on_c, 1, 60, 127
2, 35080, Note_on_c, 1, 72, 127
2, 35080, Note_on_c, 1, 74, 127
2, 35080, Note_on_c, 1, 78, 127
2, 35080, Note_on_c, 1, 84, 127
2, 35600, Note_off_c, 1, 48, 0
2, 35600, Note_off_c, 1, 50, 0
2, 35600, Note_off_c, 1, 54, 0
2, 35600, Note_on_c, 1, 55, 127
2, 35600, Note_off_c, 1, 60, 0
2, 35600, Note_on_c, 1, 63, 127
2, 35600, Note_off_c, 1, 72, 0
2, 35600, Note_off_c, 1, 74, 0
2, 35600, Note_off_c, 1, 78, 0
2, 35600, Note_off_c, 1, 84, 0
2, 35640, Note_off_c, 1, 55, 0
2, 35640, Note_off_c, 1, 63, 0
2, 35640, Note_on_c, 1, 66, 127
2, 35640, Note_on_c, 1, 70, 127
2, 35640, Note_on_c, 1, 76, 127
2, 35640, Note_on_c, 1, 88, 127
2, 35640, Note_on_c, 1, 99, 127
2, 35680, Note_on_c, 1, 42, 127
2, 35680, Note_on_c, 1, 54, 127
2, 35680, Note_on_c, 1, 62, 127
2, 35680, Note_off_c, 1, 66, 0
2, 35680, Note_on_c, 1, 69, 127
2, 35680, Note_off_c, 1, 70, 0
2, 35680, Note_on_c, 1, 74, 127
2, 35680, Note_off_c, 1, 76, 0
2, 35680, Note_off_c, 1, 88, 0
2, 35680, Note_off_c, 1, 99, 0
2, 36120, Note_off_c, 1, 42, 0
2, 36120, Note_off_c, 1, 54, 0
2, 36120, Note_off_c, 1, 62, 0
2, 36120, Note_off_c, 1, 69, 0
2, 36120, Note_off_c, 1, 74, 0
2, 36160, Note_on_c, 1, 61, 127
2, 36160, Note_on_c, 1, 62, 127
2, 36160, Note_on_c, 1, 67, 127
2, 36160, Note_on_c, 1, 70, 127
2, 36160, Note_on_c, 1, 71, 127
2, 36160, Note_on_c, 1, 73, 127
2, 36160, Note_on_c, 1, 74, 127
2, 36200, Note_on_c, 1, 58, 127
2, 36200, Note_on_c, 1, 60, 127
2, 36200, Note_off_c, 1, 61, 0
2, 36200, Note_off_c, 1, 62, 0
2, 36200, Note_off_c, 1, 70, 0
2, 36200, Note_off_c, 1, 71, 0
2, 36200, Note_off_c, 1, 73, 0
2, 36200, Note_off_c, 1, 74, 0
2, 36200, Note_on_c, 1, 88, 127
2, 36240, Note_off_c, 1, 58, 0
2, 36240, Note_off_c, 1, 60, 0
2, 36240, Note_off_c, 1, 67, 0
2, 36240, Note_off_c, 1, 88, 0
2, 36280, Note_on_c, 1, 42, 127
2, 36280, Note_on_c, 1, 57, 127
2, 36280, Note_on_c, 1, 72, 127
2, 36280, Note_on_c, 1, 76, 127
2, 36320, Note_off_c, 1, 42, 0
2, 36320, Note_on_c, 1, 45, 127
2, 36320, Note_on_c, 1, 69, 127
2, 36320, Note_off_c, 1, 72, 0
2, 36320, Note_on_c, 1, 85, 127
2, 36360, Note_off_c, 1, 45, 0
2, 36360, Note_off_c, 1, 57, 0
2, 36360, Note_on_c, 1, 61, 127
2, 36360, Note_on_c, 1, 66, 127
2, 36360, Note_off_c, 1, 69, 0
2, 36360, Note_on_c, 1, 70, 127
2, 36360, Note_off_c, 1, 76, 0
2, 36360, Note_on_c, 1, 82, 127
2, 36360, Note_off_c, 1, 85, 0
2, 36360, Note_on_c, 1, 90, 127
2, 36360, Note_on_c, 1, 94, 127
2, 36400, Note_on_c, 1, 47, 127
2, 36400, Note_on_c, 1, 59, 127
2, 36400, Note_off_c, 1, 61, 0
2, 36400, Note_on_c, 1, 62, 127
2, 36400, Note_on_c, 1, 64, 127
2, 36400, Note_off_c, 1, 66, 0
2, 36400, Note_on_c, 1, 68, 127
2, 36400, Note_off_c, 1, 70, 0
2, 36400, Note_off_c, 1, 82, 0
2, 36400, Note_off_c, 1, 90, 0
2, 36400, Note_off_c, 1, 94, 0
2, 36440, Note_on_c, 1, 43, 127
2, 36440, Note_on_c, 1, 45, 127
2, 36440, Note_off_c, 1, 47, 0
2, 36440, Note_on_c, 1, 57, 127
2, 36440, Note_off_c, 1, 59, 0
2, 36440, Note_off_c, 1, 62, 0
2, 36440, Note_off_c, 1, 64, 0
2, 36440, Note_on_c, 1, 66, 127
2, 36440, Note_off_c, 1, 68, 0
2, 36440, Note_on_c, 1, 84, 127
2, 36440, Note_on_c, 1, 86, 127
2, 36480, Note_off_c, 1, 43, 0
2, 36480, Note_off_c, 1, 45, 0
2, 36480, Note_on_c, 1, 48, 127
2, 36480, Note_off_c, 1, 57, 0
2, 36480, Note_off_c, 1, 66, 0
2, 36480, Note_off_c, 1, 84, 0
2, 36480, Note_off_c, 1, 86, 0
2, 36480, Note_on_c, 1, 94, 127
2, 36480, Note_on_c, 1, 96, 127
2, 36480, Note_on_c, 1, 99, 127
2, 36480, Note_on_c, 1, 103, 127
2, 36520, Note_off_c, 1, 48, 0
2, 36520, Note_off_c, 1, 94, 0
2, 36520, Note_off_c, 1, 96, 0
2, 36520, Note_off_c, 1, 99, 0
2, 36520, Note_off_c, 1, 103, 0
2, 36560, Note_on_c, 1, 36, 127
2, 36560, Note_on_c, 1, 52, 127
2, 36560, Note_on_c, 1, 61, 127
2, 36560, Note_on_c, 1, 64, 127
2, 36600, Note_off_c, 1, 36, 0
2, 36600, Note_off_c, 1, 52, 0
2, 36600, Note_off_c, 1, 64, 0
2, 36600, Note_on_c, 1, 68, 127
2, 36600, Note_on_c, 1, 77, 127
2, 36600, Note_on_c, 1, 84, 127
2, 36640, Note_on_c, 1, 36, 127
2, 36640, Note_on_c, 1, 56, 127
2, 36640, Note_on_c, 1, 60, 127
2, 36640, Note_off_c, 1, 61, 0
2, 36640, Note_on_c, 1, 65, 127
2, 36640, Note_on_c, 1, 76, 127
2, 36640, Note_off_c, 1, 77, 0
2, 36640, Note_off_c, 1, 84, 0
2, 36680, Note_off_c, 1, 36, 0
2, 36680, Note_on_c, 1, 55, 127
2, 36680, Note_off_c, 1, 56, 0
2, 36680, Note_off_c, 1, 60, 0
2, 36680, Note_off_c, 1, 68, 0
2, 36680, Note_on_c, 1, 74, 127
2, 36680, Note_off_c, 1, 76, 0
2, 36680, Note_on_c, 1, 77, 127
2, 36680, Note_on_c, 1, 86, 127
2, 36720, Note_on_c, 1, 36, 127
2, 36720, Note_on_c, 1, 52, 127
2, 36720, Note_off_c, 1, 55, 0
2, 36720, Note_on_c, 1, 61, 127
2, 36720, Note_on_c, 1, 64, 127
2, 36720, Note_off_c, 1, 65, 0
2, 36720, Note_off_c, 1, 74, 0
2, 36720, Note_off_c, 1, 77, 0
2, 36720, Note_off_c, 1, 86, 0
2, 36880, Note_on_c, 1, 23, 127
2, 36880, Note_on_c, 1, 35, 127
2, 36880, Note_off_c, 1, 36, 0
2, 36880, Note_off_c, 1, 52, 0
2, 36880, Note_off_c, 1, 61, 0
2, 36880, Note_off_c, 1, 64, 0
2, 36880, Note_on_c, 1, 79, 127
2, 36880, Note_on_c, 1, 83, 127
2, 36920, Note_off_c, 1, 23, 0
2, 36920, Note_on_c, 1, 39, 127
2, 36920, Note_on_c, 1, 42, 127
2, 36920, Note_on_c, 1, 47, 127
2, 36920, Note_on_c, 1, 51, 127
2, 36920, Note_on_c, 1, 54, 127
2, 36920, Note_on_c, 1, 59, 127
2, 36920, Note_off_c, 1, 79, 0
2, 36920, Note_off_c, 1, 83, 0
2, 37600, Note_off_c, 1, 35, 0
2, 37600, Note_off_c, 1, 39, 0
2, 37600, Note_off_c, 1, 42, 0
2, 37600, Note_off_c, 1, 47, 0
2, 37600, Note_off_c, 1, 51, 0
2, 37600, Note_off_c, 1, 54, 0
2, 37600, Note_off_c, 1, 59, 0
2, 37600, Note_on_c, 1, 71, 127
2, 37600, Note_on_c, 1, 74, 127
2, 37640, Note_on_c, 1, 38, 127
2, 37640, Note_on_c, 1, 50, 127
2, 37640, Note_on_c, 1, 79, 127
2, 37960, Note_off_c, 1, 38, 0
2, 37960, Note_off_c, 1, 50, 0
2, 37960, Note_off_c, 1, 71, 0
2, 37960, Note_off_c, 1, 74, 0
2, 37960, Note_off_c, 1, 79, 0
2, 38000, Note_on_c, 1, 64, 127
2, 38000, Note_on_c, 1, 91, 127
2, 38000, Note_on_c, 1, 95, 127
2, 38160, Note_off_c, 1, 64, 0
2, 38160, Note_on_c, 1, 66, 127
2, 38320, Note_off_c, 1, 66, 0
2, 38320, Note_off_c, 1, 91, 0
2, 38320, Note_off_c, 1, 95, 0
2, 38360, Note_on_c, 1, 66, 127
2, 38360, Note_on_c, 1, 91, 127
2, 38360, Note_on_c, 1, 95, 127
2, 38400, Note_off_c, 1, 66, 0
2, 38400, Note_on_c, 1, 67, 127
2, 38520, Note_on_c, 1, 66, 127
2, 38520, Note_off_c, 1, 67, 0
2, 38720, Note_on_c, 1, 39, 127
2, 38720, Note_on_c, 1, 46, 127
2, 38720, Note_on_c, 1, 49, 127
2, 38720, Note_on_c, 1, 55, 127
2, 38720, Note_on_c, 1, 61, 127
2, 38720, Note_off_c, 1, 66, 0
2, 38720, Note_on_c, 1, 67, 127
2, 38720, Note_off_c, 1, 91, 0
2, 38720, Note_off_c, 1, 95, 0
2, 38760, Note_off_c, 1, 39, 0
2, 38760, Note_off_c, 1, 46, 0
2, 38760, Note_off_c, 1, 49, 0
2, 38760, Note_off_c, 1, 55, 0
2, 38760, Note_off_c, 1, 61, 0
2, 38760, Note_on_c, 1, 64, 127
2, 38760, Note_off_c, 1, 67, 0
2, 38760, Note_on_c, 1, 90, 127
2, 38760, Note_on_c, 1, 93, 127
2, 39080, Note_off_c, 1, 64, 0
2, 39080, Note_off_c, 1, 90, 0
2, 39080, Note_off_c, 1, 93, 0
2, 39120, Note_on_c, 1, 55, 127
2, 39120, Note_on_c, 1, 65, 127
2, 39120, Note_on_c, 1, 72, 127
2, 39120, Note_on_c, 1, 81, 127
2, 39120, Note_on_c, 1, 84, 127
2, 39440, Note_off_c, 1, 55, 0
2, 39440, Note_off_c, 1, 65, 0
2, 39440, Note_off_c, 1, 72, 0
2, 39440, Note_off_c, 1, 81, 0
2, 39440, Note_off_c, 1, 84, 0
2, 39480, Note_on_c, 1, 55, 127
2, 39480, Note_on_c, 1, 62, 127
2, 39480, Note_on_c, 1, 71, 127
2, 39480, Note_on_c, 1, 79, 127
2, 39480, Note_on_c, 1, 83, 127
2, 40160, Note_off_c, 1, 55, 0
2, 40160, Note_off_c, 1, 62, 0
2, 40160, Note_off_c, 1, 71, 0
2, 40160, Note_off_c, 1, 79, 0
2, 40160, Note_off_c, 1, 83, 0
2, 40200, Note_on_c, 1, 38, 127
2, 40200, Note_on_c, 1, 45, 127
2, 40200, Note_on_c, 1, 62, 127
2, 40200, Note_on_c, 1, 66, 127
2, 40440, Note_off_c, 1, 66, 0
2, 40480, Note_off_c, 1, 38, 0
2, 40480, Note_off_c, 1, 45, 0
2, 40480, Note_off_c, 1, 62, 0
2, 40520, Note_on_c, 1, 38, 127
2, 40520, Note_on_c, 1, 45, 127
2, 40520, Note_on_c, 1, 62, 127
2, 40520, Note_on_c, 1, 69, 127
2, 40600, Note_on_c, 1, 66, 127
2, 40600, Note_off_c, 1, 69, 0
2, 40640, Note_off_c, 1, 62, 0
2, 40680, Note_on_c, 1, 62, 127
2, 40680, Note_off_c, 1, 66, 0
2, 40680, Note_on_c, 1, 69, 127
2, 40800, Note_off_c, 1, 69, 0
2, 40840, Note_on_c, 1, 69, 127
2, 40920, Note_off_c, 1, 62, 0
2, 40920, Note_off_c, 1, 69, 0
2, 40960, Note_on_c, 1, 62, 127
2, 40960, Note_on_c, 1, 66, 127
2, 41280, Note_off_c, 1, 66, 0
2, 41320, Note_off_c, 1, 38, 0
2, 41320, Note_off_c, 1, 45, 0
2, 41320, Note_on_c, 1, 49, 127
2, 41320, Note_on_c, 1, 53, 127
2, 41320, Note_on_c, 1, 56, 127
2, 41320, Note_on_c, 1, 61, 127
2, 41320, Note_off_c, 1, 62, 0
2, 41320, Note_on_c, 1, 75, 127
2, 41440, Note_on_c, 1, 43, 127
2, 41440, Note_on_c, 1, 48, 127
2, 41440, Note_off_c, 1, 49, 0
2, 41440, Note_off_c, 1, 53, 0
2, 41440, Note_off_c, 1, 56, 0
2, 41440, Note_off_c, 1, 61, 0
2, 41440, Note_on_c, 1, 73, 127
2, 41440, Note_off_c, 1, 75, 0
2, 41440, Note_on_c, 1, 82, 127
2, 41440, Note_on_c, 1, 85, 127
2, 41480, Note_off_c, 1, 43, 0
2, 41480, Note_off_c, 1, 48, 0
2, 41480, Note_on_c, 1, 49, 127
2, 41480, Note_on_c, 1, 53, 127
2, 41480, Note_on_c, 1, 56, 127
2, 41480, Note_on_c, 1, 61, 127
2, 41480, Note_off_c, 1, 73, 0
2, 41480, Note_on_c, 1, 75, 127
2, 41480, Note_off_c, 1, 82, 0
2, 41480, Note_off_c, 1, 85, 0
2, 41560, Note_off_c, 1, 49, 0
2, 41560, Note_off_c, 1, 53, 0
2, 41560, Note_off_c, 1, 56, 0
2, 41560, Note_off_c, 1, 61, 0
2, 41560, Note_on_c, 1, 68, 127
2, 41560, Note_on_c, 1, 73, 127
2, 41560, Note_off_c, 1, 75, 0
2, 41560, Note_on_c, 1, 77, 127
2, 41560, Note_on_c, 1, 84, 127
2, 41560, Note_on_c, 1, 85, 127
2, 41600, Note_on_c, 1, 46, 127
2, 41600, Note_on_c, 1, 57, 127
2, 41600, Note_on_c, 1, 65, 127
2, 41600, Note_off_c, 1, 68, 0
2, 41600, Note_on_c, 1, 70, 127
2, 41600, Note_off_c, 1, 73, 0
2, 41600, Note_off_c, 1, 77, 0
2, 41600, Note_off_c, 1, 84, 0
2, 41600, Note_off_c, 1, 85, 0
2, 41640, Note_off_c, 1, 46, 0
2, 41640, Note_off_c, 1, 65, 0
2, 41640, Note_off_c, 1, 70, 0
2, 41640, Note_on_c, 1, 73, 127
2, 41680, Note_on_c, 1, 52, 127
2, 41680, Note_off_c, 1, 57, 0
2, 41680, Note_on_c, 1, 64, 127
2, 41680, Note_on_c, 1, 67, 127
2, 41680, Note_on_c, 1, 71, 127
2, 41680, Note_off_c, 1, 73, 0
2, 41680, Note_on_c, 1, 76, 127
2, 42000, Note_off_c, 1, 52, 0
2, 42000, Note_off_c, 1, 64, 0
2, 42000, Note_off_c, 1, 71, 0
2, 42000, Note_off_c, 1, 76, 0
2, 42000, Note_on_c, 1, 79, 127
2, 42040, Note_on_c, 1, 43, 127
2, 42040, Note_on_c, 1, 55, 127
2, 42040, Note_on_c, 1, 75, 127
2, 42040, Note_off_c, 1, 79, 0
2, 42360, Note_off_c, 1, 43, 0
2, 42360, Note_off_c, 1, 55, 0
2, 42360, Note_off_c, 1, 67, 0
2, 42360, Note_off_c, 1, 75, 0
2, 42400, Note_on_c, 1, 43, 127
2, 42400, Note_on_c, 1, 50, 127
2, 42400, Note_on_c, 1, 55, 127
2, 42400, Note_on_c, 1, 91, 127
2, 42680, Note_off_c, 1, 43, 0
2, 42680, Note_off_c, 1, 50, 0
2, 42680, Note_off_c, 1, 55, 0
2, 42680, Note_off_c, 1, 91, 0
2, 42720, Note_on_c, 1, 43, 127
2, 42720, Note_on_c, 1, 50, 127
2, 42720, Note_on_c, 1, 55, 127
2, 42720, Note_on_c, 1, 91, 127
2, 42760, Note_on_c, 1, 31, 127
2, 42760, Note_off_c, 1, 50, 0
2, 42760, Note_off_c, 1, 55, 0
2, 42760, Note_off_c, 1, 91, 0
2, 42800, Note_off_c, 1, 31, 0
2, 42800, Note_on_c, 1, 50, 127
2, 42800, Note_on_c, 1, 59, 127
2, 42800, Note_on_c, 1, 62, 127
2, 42800, Note_on_c, 1, 67, 127
2, 42800, Note_on_c, 1, 71, 127
2, 43480, Note_off_c, 1, 43, 0
2, 43480, Note_off_c, 1, 50, 0
2, 43480, Note_off_c, 1, 59, 0
2, 43480, Note_off_c, 1, 62, 0
2, 43480, Note_off_c, 1, 67, 0
2, 43480, Note_off_c, 1, 71, 0
2, 43520, Note_on_c, 1, 71, 127
2, 43520, Note_on_c, 1, 73, 127
2, 43520, Note_on_c, 1, 76, 127
2, 43520, Note_on_c, 1, 88, 127
2, 43560, Note_on_c, 1, 41, 127
2, 43560, Note_on_c, 1, 56, 127
2, 43560, Note_off_c, 1, 73, 0
2, 43560, Note_off_c, 1, 76, 0
2, 43560, Note_off_c, 1, 88, 0
2, 43600, Note_off_c, 1, 41, 0
2, 43600, Note_off_c, 1, 56, 0
2, 43600, Note_on_c, 1, 60, 127
2, 43600, Note_on_c, 1, 68, 127
2, 43600, Note_off_c, 1, 71, 0
2, 43600, Note_on_c, 1, 97, 127
2, 43640, Note_on_c, 1, 41, 127
2, 43640, Note_on_c, 1, 56, 127
2, 43640, Note_off_c, 1, 60, 0
2, 43640, Note_off_c, 1, 68, 0
2, 43640, Note_on_c, 1, 71, 127
2, 43640, Note_off_c, 1, 97, 0
2, 43680, Note_off_c, 1, 41, 0
2, 43680, Note_on_c, 1, 44, 127
2, 43680, Note_on_c, 1, 52, 127
2, 43680, Note_on_c, 1, 62, 127
2, 43680, Note_on_c, 1, 64, 127
2, 43680, Note_on_c, 1, 70, 127
2, 43680, Note_off_c, 1, 71, 0
2, 43720, Note_off_c, 1, 44, 0
2, 43720, Note_on_c, 1, 47, 127
2, 43720, Note_on_c, 1, 49, 127
2, 43720, Note_off_c, 1, 52, 0
2, 43720, Note_off_c, 1, 56, 0
2, 43720, Note_off_c, 1, 62, 0
2, 43720, Note_off_c, 1, 64, 0
2, 43720, Note_off_c, 1, 70, 0
2, 43720, Note_on_c, 1, 73, 127
2, 43720, Note_on_c, 1, 75, 127
2, 43720, Note_on_c, 1, 85, 127
2, 43760, Note_on_c, 1, 39, 127
2, 43760, Note_on_c, 1, 43, 127
2, 43760, Note_off_c, 1, 47, 0
2, 43760, Note_off_c, 1, 49, 0
2, 43760, Note_on_c, 1, 51, 127
2, 43760, Note_off_c, 1, 73, 0
2, 43760, Note_off_c, 1, 75, 0
2, 43760, Note_on_c, 1, 82, 127
2, 43760, Note_off_c, 1, 85, 0
2, 43800, Note_off_c, 1, 39, 0
2, 43800, Note_on_c, 1, 70, 127
2, 43800, Note_on_c, 1, 75, 127
2, 43800, Note_off_c, 1, 82, 0
2, 43840, Note_off_c, 1, 43, 0
2, 43840, Note_off_c, 1, 51, 0
2, 43840, Note_on_c, 1, 56, 127
2, 43840, Note_on_c, 1, 64, 127
2, 43840, Note_off_c, 1, 70, 0
2, 43840, Note_on_c, 1, 71, 127
2, 43840, Note_on_c, 1, 74, 127
2, 43840, Note_off_c, 1, 75, 0
2, 43840, Note_on_c, 1, 76, 127
2, 43880, Note_on_c, 1, 36, 127
2, 43880, Note_on_c, 1, 48, 127
2, 43880, Note_off_c, 1, 56, 0
2, 43880, Note_off_c, 1, 64, 0
2, 43880, Note_off_c, 1, 71, 0
2, 43880, Note_off_c, 1, 74, 0
2, 43880, Note_off_c, 1, 76, 0
2, 43880, Note_on_c, 1, 81, 127
2, 43880, Note_on_c, 1, 88, 127
2, 43880, Note_on_c, 1, 90, 127
2, 43920, Note_off_c, 1, 36, 0
2, 43920, Note_on_c, 1, 43, 127
2, 43920, Note_off_c, 1, 48, 0
2, 43920, Note_on_c, 1, 55, 127
2, 43920, Note_on_c, 1, 76, 127
2, 43920, Note_off_c, 1, 81, 0
2, 43920, Note_on_c, 1, 82, 127
2, 43920, Note_on_c, 1, 85, 127
2, 43920, Note_off_c, 1, 90, 0
2, 43960, Note_on_c, 1, 32, 127
2, 43960, Note_off_c, 1, 43, 0
2, 43960, Note_on_c, 1, 44, 127
2, 43960, Note_on_c, 1, 53, 127
2, 43960, Note_on_c, 1, 54, 127
2, 43960, Note_off_c, 1, 55, 0
2, 43960, Note_on_c, 1, 59, 127
2, 43960, Note_on_c, 1, 62, 127
2, 43960, Note_on_c, 1, 68, 127
2, 43960, Note_off_c, 1, 76, 0
2, 43960, Note_off_c, 1, 82, 0
2, 43960, Note_off_c, 1, 85, 0
2, 43960, Note_off_c, 1, 88, 0
2, 44000, Note_off_c, 1, 32, 0
2, 44000, Note_on_c, 1, 43, 127
2, 44000, Note_off_c, 1, 44, 0
2, 44000, Note_off_c, 1, 53, 0
2, 44000, Note_off_c, 1, 54, 0
2, 44000, Note_on_c, 1, 55, 127
2, 44000, Note_off_c, 1, 59, 0
2, 44000, Note_off_c, 1, 62, 0
2, 44000, Note_off_c, 1, 68, 0
2, 44000, Note_on_c, 1, 76, 127
2, 44000, Note_on_c, 1, 82, 127
2, 44000, Note_on_c, 1, 85, 127
2, 44000, Note_on_c, 1, 88, 127
2, 44200, Note_off_c, 1, 43, 0
2, 44200, Note_off_c, 1, 55, 0
2, 44200, Note_off_c, 1, 76, 0
2, 44200, Note_off_c, 1, 82, 0
2, 44200, Note_off_c, 1, 85, 0
2, 44200, Note_off_c, 1, 88, 0
2, 44240, Note_on_c, 1, 36, 127
2, 44240, Note_on_c, 1, 48, 127
2, 44240, Note_on_c, 1, 64, 127
2, 44240, Note_on_c, 1, 72, 127
2, 44240, Note_on_c, 1, 76, 127
2, 44840, Note_off_c, 1, 36, 0
2, 44840, Note_off_c, 1, 48, 0
2, 44840, Note_off_c, 1, 64, 0
2, 44840, Note_off_c, 1, 72, 0
2, 44840, Note_off_c, 1, 76, 0
2, 44880, Note_on_c, 1, 36, 127
2, 44880, Note_on_c, 1, 48, 127
2, 44880, Note_on_c, 1, 64, 127
2, 44880, Note_on_c, 1, 72, 127
2, 44880, Note_on_c, 1, 76, 127
2, 44960, Note_off_c, 1, 36, 0
2, 44960, Note_off_c, 1, 48, 0
2, 44960, Note_off_c, 1, 64, 0
2, 44960, Note_off_c, 1, 72, 0
2, 44960, Note_off_c, 1, 76, 0
2, 45000, Note_on_c, 1, 36, 127
2, 45000, Note_on_c, 1, 48, 127
2, 45000, Note_on_c, 1, 64, 127
2, 45000, Note_on_c, 1, 72, 127
2, 45000, Note_on_c, 1, 76, 127
2, 45680, Note_off_c, 1, 36, 0
2, 45680, Note_off_c, 1, 48, 0
2, 45680, Note_off_c, 1, 64, 0
2, 45680, Note_off_c, 1, 72, 0
2, 45680, Note_off_c, 1, 76, 0
2, 45720, Note_on_c, 1, 50, 127
2, 45720, Note_on_c, 1, 65, 127
2, 45720, Note_on_c, 1, 69, 127
2, 45720, Note_on_c, 1, 71, 127
2, 45960, Note_off_c, 1, 71, 0
2, 46000, Note_on_c, 1, 45, 127
2, 46000, Note_off_c, 1, 50, 0
2, 46000, Note_on_c, 1, 52, 127
2, 46000, Note_on_c, 1, 61, 127
2, 46000, Note_on_c, 1, 64, 127
2, 46000, Note_off_c, 1, 65, 0
2, 46000, Note_off_c, 1, 69, 0
2, 46000, Note_on_c, 1, 81, 127
2, 46040, Note_off_c, 1, 45, 0
2, 46040, Note_off_c, 1, 52, 0
2, 46040, Note_off_c, 1, 61, 0
2, 46040, Note_off_c, 1, 64, 0
2, 46040, Note_off_c, 1, 81, 0
2, 46080, Note_on_c, 1, 48, 127
2, 46080, Note_on_c, 1, 65, 127
2, 46080, Note_on_c, 1, 69, 127
2, 46080, Note_on_c, 1, 76, 127
2, 46400, Note_off_c, 1, 76, 0
2, 46440, Note_on_c, 1, 76, 127
2, 46760, Note_off_c, 1, 76, 0
2, 46800, Note_on_c, 1, 42, 127
2, 46800, Note_off_c, 1, 48, 0
2, 46800, Note_on_c, 1, 54, 127
2, 46800, Note_off_c, 1, 65, 0
2, 46800, Note_off_c, 1, 69, 0
2, 46800, Note_on_c, 1, 76, 127
2, 46800, Note_on_c, 1, 78, 127
2, 46840, Note_on_c, 1, 30, 127
2, 46840, Note_on_c, 1, 50, 127
2, 46840, Note_off_c, 1, 54, 0
2, 46840, Note_on_c, 1, 58, 127
2, 46840, Note_off_c, 1, 76, 0
2, 46840, Note_off_c, 1, 78, 0
2, 46880, Note_off_c, 1, 30, 0
2, 46880, Note_off_c, 1, 42, 0
2, 46880, Note_off_c, 1, 50, 0
2, 46880, Note_off_c, 1, 58, 0
2, 46920, Note_on_c, 1, 61, 127
2, 46920, Note_on_c, 1, 75, 127
2, 46920, Note_on_c, 1, 80, 127
2, 46960, Note_on_c, 1, 50, 127
2, 46960, Note_off_c, 1, 61, 0
2, 46960, Note_on_c, 1, 65, 127
2, 46960, Note_on_c, 1, 67, 127
2, 46960, Note_on_c, 1, 71, 127
2, 46960, Note_off_c, 1, 75, 0
2, 46960, Note_off_c, 1, 80, 0
2, 47000, Note_on_c, 1, 43, 127
2, 47000, Note_on_c, 1, 48, 127
2, 47000, Note_off_c, 1, 50, 0
2, 47000, Note_on_c, 1, 52, 127
2, 47000, Note_off_c, 1, 65, 0
2, 47000, Note_off_c, 1, 67, 0
2, 47000, Note_off_c, 1, 71, 0
2, 47000, Note_on_c, 1, 80, 127
2, 47040, Note_off_c, 1, 43, 0
2, 47040, Note_off_c, 1, 48, 0
2, 47040, Note_off_c, 1, 52, 0
2, 47040, Note_on_c, 1, 66, 127
2, 47040, Note_on_c, 1, 73, 127
2, 47040, Note_on_c, 1, 76, 127
2, 47040, Note_off_c, 1, 80, 0
2, 47040, Note_on_c, 1, 84, 127
2, 47080, Note_on_c, 1, 43, 127
2, 47080, Note_on_c, 1, 48, 127
2, 47080, Note_on_c, 1, 52, 127
2, 47080, Note_off_c, 1, 66, 0
2, 47080, Note_off_c, 1, 73, 0
2, 47080, Note_off_c, 1, 76, 0
2, 47080, Note_on_c, 1, 80, 127
2, 47080, Note_off_c, 1, 84, 0
2, 47120, Note_off_c, 1, 43, 0
2, 47120, Note_off_c, 1, 48, 0
2, 47120, Note_off_c, 1, 52, 0
2, 47120, Note_on_c, 1, 55, 127
2, 47120, Note_on_c, 1, 59, 127
2, 47120, Note_on_c, 1, 62, 127
2, 47120, Note_on_c, 1, 65, 127
2, 47120, Note_on_c, 1, 67, 127
2, 47120, Note_off_c, 1, 80, 0
2, 47120, Note_on_c, 1, 83, 127
2, 47160, Note_off_c, 1, 55, 0
2, 47160, Note_off_c, 1, 59, 0
2, 47160, Note_off_c, 1, 62, 0
2, 47160, Note_off_c, 1, 65, 0
2, 47160, Note_off_c, 1, 67, 0
2, 47160, Note_off_c, 1, 83, 0
2, 47200, Note_on_c, 1, 48, 127
2, 47200, Note_on_c, 1, 60, 127
2, 47200, Note_on_c, 1, 82, 127
2, 47200, Note_on_c, 1, 88, 127
2, 47200, Note_on_c, 1, 91, 127
2, 47200, Note_on_c, 1, 96, 127
2, 47240, Note_off_c, 1, 48, 0
2, 47240, Note_off_c, 1, 60, 0
2, 47240, Note_on_c, 1, 70, 127
2, 47240, Note_on_c, 1, 73, 127
2, 47240, Note_off_c, 1, 88, 0
2, 47240, Note_off_c, 1, 91, 0
2, 47240, Note_on_c, 1, 94, 127
2, 47240, Note_off_c, 1, 96, 0
2, 47240, Note_on_c, 1, 97, 127
2, 47280, Note_on_c, 1, 48, 127
2, 47280, Note_on_c, 1, 60, 127
2, 47280, Note_off_c, 1, 70, 0
2, 47280, Note_off_c, 1, 73, 0
2, 47280, Note_on_c, 1, 88, 127
2, 47280, Note_on_c, 1, 91, 127
2, 47280, Note_off_c, 1, 94, 0
2, 47280, Note_on_c, 1, 96, 127
2, 47280, Note_off_c, 1, 97, 0
2, 47360, Note_off_c, 1, 48, 0
2, 47360, Note_off_c, 1, 60, 0
2, 47360, Note_on_c, 1, 67, 127
2, 47360, Note_on_c, 1, 71, 127
2, 47360, Note_on_c, 1, 75, 127
2, 47360, Note_on_c, 1, 79, 127
2, 47360, Note_off_c, 1, 82, 0
2, 47360, Note_off_c, 1, 88, 0
2, 47360, Note_off_c, 1, 91, 0
2, 47360, Note_off_c, 1, 96, 0
2, 47400, Note_on_c, 1, 40, 127
2, 47400, Note_off_c, 1, 67, 0
2, 47400, Note_on_c, 1, 68, 127
2, 47400, Note_off_c, 1, 71, 0
2, 47400, Note_on_c, 1, 74, 127
2, 47400, Note_off_c, 1, 75, 0
2, 47400, Note_on_c, 1, 76, 127
2, 47400, Note_off_c, 1, 79, 0
2, 47400, Note_on_c, 1, 80, 127
2, 47440, Note_off_c, 1, 40, 0
2, 47440, Note_on_c, 1, 57, 127
2, 47440, Note_off_c, 1, 68, 0
2, 47440, Note_off_c, 1, 74, 0
2, 47440, Note_off_c, 1, 76, 0
2, 47440, Note_off_c, 1, 80, 0
2, 47440, Note_on_c, 1, 81, 127
2, 47440, Note_on_c, 1, 86, 127
2, 47440, Note_on_c, 1, 90, 127
2, 47440, Note_on_c, 1, 93, 127
2, 47480, Note_off_c, 1, 57, 0
2, 47480, Note_on_c, 1, 76, 127
2, 47480, Note_off_c, 1, 81, 0
2, 47480, Note_on_c, 1, 83, 127
2, 47480, Note_off_c, 1, 86, 0
2, 47480, Note_on_c, 1, 88, 127
2, 47480, Note_off_c, 1, 90, 0
2, 47480, Note_off_c, 1, 93, 0
2, 47520, Note_on_c, 1, 48, 127
2, 47520, Note_on_c, 1, 60, 127
2, 47520, Note_off_c, 1, 76, 0
2, 47520, Note_on_c, 1, 78, 127
2, 47520, Note_on_c, 1, 81, 127
2, 47520, Note_off_c, 1, 83, 0
2, 47520, Note_on_c, 1, 87, 127
2, 47520, Note_off_c, 1, 88, 0
2, 47520, Note_on_c, 1, 90, 127
2, 47560, Note_on_c, 1, 39, 127
2, 47560, Note_on_c, 1, 43, 127
2, 47560, Note_off_c, 1, 48, 0
2, 47560, Note_on_c, 1, 51, 127
2, 47560, Note_on_c, 1, 55, 127
2, 47560, Note_off_c, 1, 60, 0
2, 47560, Note_on_c, 1, 61, 127
2, 47560, Note_off_c, 1, 78, 0
2, 47560, Note_off_c, 1, 81, 0
2, 47560, Note_off_c, 1, 87, 0
2, 47560, Note_off_c, 1, 90, 0
2, 47680, Note_off_c, 1, 39, 0
2, 47680, Note_off_c, 1, 43, 0
2, 47680, Note_on_c, 1, 47, 127
2, 47680, Note_off_c, 1, 51, 0
2, 47680, Note_off_c, 1, 55, 0
2, 47680, Note_on_c, 1, 57, 127
2, 47680, Note_off_c, 1, 61, 0
2, 47680, Note_on_c, 1, 62, 127
2, 47680, Note_on_c, 1, 68, 127
2, 47680, Note_on_c, 1, 71, 127
2, 47720, Note_off_c, 1, 47, 0
2, 47720, Note_on_c, 1, 49, 127
2, 47720, Note_on_c, 1, 55, 127
2, 47720, Note_off_c, 1, 57, 0
2, 47720, Note_on_c, 1, 59, 127
2, 47720, Note_off_c, 1, 62, 0
2, 47720, Note_on_c, 1, 67, 127
2, 47720, Note_off_c, 1, 68, 0
2, 47720, Note_off_c, 1, 71, 0
2, 47760, Note_off_c, 1, 49, 0
2, 47760, Note_off_c, 1, 55, 0
2, 47760, Note_off_c, 1, 59, 0
2, 47760, Note_on_c, 1, 63, 127
2, 47760, Note_off_c, 1, 67, 0
2, 47760, Note_on_c, 1, 75, 127
2, 47760, Note_on_c, 1, 90, 127
2, 47760, Note_on_c, 1, 95, 127
2, 47800, Note_on_c, 1, 55, 127
2, 47800, Note_on_c, 1, 61, 127
2, 47800, Note_off_c, 1, 63, 0
2, 47800, Note_on_c, 1, 70, 127
2, 47800, Note_off_c, 1, 75, 0
2, 47800, Note_on_c, 1, 79, 127
2, 47800, Note_on_c, 1, 82, 127
2, 47800, Note_off_c, 1, 90, 0
2, 47800, Note_off_c, 1, 95, 0
2, 47840, Note_off_c, 1, 55, 0
2, 47840, Note_off_c, 1, 61, 0
2, 47840, Note_off_c, 1, 70, 0
2, 47840, Note_off_c, 1, 79, 0
2, 47840, Note_off_c, 1, 82, 0
2, 47880, Note_on_c, 1, 72, 127
2, 47880, Note_on_c, 1, 75, 127
2, 47880, Note_on_c, 1, 81, 127
2, 47880, Note_on_c, 1, 87, 127
2, 47880, Note_on_c, 1, 89, 127
2, 48200, Note_on_c, 1, 60, 127
2, 48200, Note_on_c, 1, 62, 127
2, 48200, Note_on_c, 1, 66, 127
2, 48200, Note_off_c, 1, 72, 0
2, 48200, Note_off_c, 1, 75, 0
2, 48200, Note_off_c, 1, 81, 0
2, 48200, Note_on_c, 1, 84, 127
2, 48200, Note_off_c, 1, 87, 0
2, 48200, Note_off_c, 1, 89, 0
2, 48240, Note_on_c, 1, 42, 127
2, 48240, Note_off_c, 1, 60, 0
2, 48240, Note_off_c, 1, 62, 0
2, 48240, Note_off_c, 1, 66, 0
2, 48240, Note_on_c, 1, 79, 127
2, 48240, Note_on_c, 1, 80, 127
2, 48240, Note_off_c, 1, 84, 0
2, 48280, Note_off_c, 1, 42, 0
2, 48280, Note_on_c, 1, 44, 127
2, 48280, Note_on_c, 1, 47, 127
2, 48280, Note_on_c, 1, 52, 127
2, 48280, Note_on_c, 1, 75, 127
2, 48280, Note_off_c, 1, 79, 0
2, 48280, Note_off_c, 1, 80, 0
2, 48320, Note_on_c, 1, 42, 127
2, 48320, Note_off_c, 1, 44, 0
2, 48320, Note_off_c, 1, 47, 0
2, 48320, Note_off_c, 1, 52, 0
2, 48320, Note_on_c, 1, 54, 127
2, 48320, Note_on_c, 1, 64, 127
2, 48320, Note_on_c, 1, 67, 127
2, 48320, Note_off_c, 1, 75, 0
2, 48320, Note_on_c, 1, 76, 127
2, 48360, Note_off_c, 1, 42, 0
2, 48360, Note_on_c, 1, 44, 127
2, 48360, Note_on_c, 1, 47, 127
2, 48360, Note_on_c, 1, 52, 127
2, 48360, Note_off_c, 1, 54, 0
2, 48360, Note_off_c, 1, 64, 0
2, 48360, Note_off_c, 1, 67, 0
2, 48360, Note_on_c, 1, 75, 127
2, 48360, Note_off_c, 1, 76, 0
2, 48400, Note_on_c, 1, 40, 127
2, 48400, Note_off_c, 1, 44, 0
2, 48400, Note_on_c, 1, 45, 127
2, 48400, Note_off_c, 1, 47, 0
2, 48400, Note_on_c, 1, 49, 127
2, 48400, Note_on_c, 1, 64, 127
2, 48400, Note_off_c, 1, 75, 0
2, 48400, Note_on_c, 1, 76, 127
2, 48440, Note_off_c, 1, 40, 0
2, 48440, Note_on_c, 1, 44, 127
2, 48440, Note_off_c, 1, 45, 0
2, 48440, Note_on_c, 1, 47, 127
2, 48440, Note_off_c, 1, 49, 0
2, 48440, Note_off_c, 1, 64, 0
2, 48440, Note_on_c, 1, 75, 127
2, 48440, Note_off_c, 1, 76, 0
2, 48560, Note_off_c, 1, 44, 0
2, 48560, Note_off_c, 1, 47, 0
2, 48560, Note_off_c, 1, 52, 0
2, 48560, Note_off_c, 1, 75, 0
2, 48600, Note_on_c, 1, 40, 127
2, 48600, Note_on_c, 1, 47, 127
2, 48600, Note_on_c, 1, 83, 127
2, 48720, Note_off_c, 1, 40, 0
2, 48720, Note_off_c, 1, 47, 0
2, 48720, Note_on_c, 1, 56, 127
2, 48720, Note_on_c, 1, 59, 127
2, 48720, Note_on_c, 1, 64, 127
2, 48720, Note_on_c, 1, 76, 127
2, 48720, Note_on_c, 1, 80, 127
2, 48720, Note_on_c, 1, 85, 127
2, 48760, Note_on_c, 1, 40, 127
2, 48760, Note_on_c, 1, 47, 127
2, 48760, Note_off_c, 1, 56, 0
2, 48760, Note_off_c, 1, 59, 0
2, 48760, Note_off_c, 1, 64, 0
2, 48760, Note_off_c, 1, 76, 0
2, 48760, Note_off_c, 1, 80, 0
2, 48760, Note_off_c, 1, 85, 0
2, 48840, Note_off_c, 1, 40, 0
2, 48840, Note_off_c, 1, 47, 0
2, 48840, Note_on_c, 1, 81, 127
2, 48840, Note_off_c, 1, 83, 0
2, 48880, Note_off_c, 1, 81, 0
2, 48920, Note_on_c, 1, 84, 127
2, 48960, Note_on_c, 1, 83, 127
2, 48960, Note_off_c, 1, 84, 0
2, 49000, Note_on_c, 1, 50, 127
2, 49000, Note_on_c, 1, 53, 127
2, 49000, Note_on_c, 1, 56, 127
2, 49000, Note_on_c, 1, 58, 127
2, 49000, Note_off_c, 1, 83, 0
2, 49000, Note_on_c, 1, 86, 127
2, 49000, Note_on_c, 1, 89, 127
2, 49000, Note_on_c, 1, 94, 127
2, 49040, Note_on_c, 1, 45, 127
2, 49040, Note_off_c, 1, 50, 0
2, 49040, Note_off_c, 1, 53, 0
2, 49040, Note_on_c, 1, 55, 127
2, 49040, Note_off_c, 1, 56, 0
2, 49040, Note_off_c, 1, 58, 0
2, 49040, Note_on_c, 1, 65, 127
2, 49040, Note_on_c, 1, 72, 127
2, 49040, Note_on_c, 1, 75, 127
2, 49040, Note_off_c, 1, 86, 0
2, 49040, Note_off_c, 1, 89, 0
2, 49040, Note_off_c, 1, 94, 0
2, 49080, Note_on_c, 1, 50, 127
2, 49080, Note_off_c, 1, 55, 0
2, 49080, Note_on_c, 1, 59, 127
2, 49080, Note_off_c, 1, 65, 0
2, 49080, Note_on_c, 1, 66, 127
2, 49080, Note_off_c, 1, 72, 0
2, 49080, Note_off_c, 1, 75, 0
2, 49120, Note_on_c, 1, 26, 127
2, 49120, Note_on_c, 1, 38, 127
2, 49120, Note_off_c, 1, 45, 0
2, 49120, Note_off_c, 1, 50, 0
2, 49120, Note_off_c, 1, 59, 0
2, 49120, Note_on_c, 1, 60, 127
2, 49120, Note_on_c, 1, 62, 127
2, 49120, Note_on_c, 1, 69, 127
2, 49160, Note_off_c, 1, 26, 0
2, 49160, Note_off_c, 1, 38, 0
2, 49160, Note_on_c, 1, 44, 127
2, 49160, Note_off_c, 1, 60, 0
2, 49160, Note_off_c, 1, 62, 0
2, 49160, Note_off_c, 1, 66, 0
2, 49160, Note_off_c, 1, 69, 0
2, 49160, Note_on_c, 1, 84, 127
2, 49160, Note_on_c, 1, 96, 127
2, 49200, Note_on_c, 1, 39, 127
2, 49200, Note_off_c, 1, 44, 0
2, 49200, Note_on_c, 1, 49, 127
2, 49200, Note_on_c, 1, 51, 127
2, 49200, Note_on_c, 1, 70, 127
2, 49200, Note_on_c, 1, 73, 127
2, 49200, Note_on_c, 1, 75, 127
2, 49200, Note_off_c, 1, 84, 0
2, 49200, Note_off_c, 1, 96, 0
2, 49240, Note_off_c, 1, 39, 0
2, 49240, Note_on_c, 1, 41, 127
2, 49240, Note_on_c, 1, 46, 127
2, 49240, Note_off_c, 1, 49, 0
2, 49240, Note_off_c, 1, 51, 0
2, 49240, Note_on_c, 1, 53, 127
2, 49240, Note_off_c, 1, 70, 0
2, 49240, Note_off_c, 1, 73, 0
2, 49240, Note_off_c, 1, 75, 0
2, 49240, Note_on_c, 1, 87, 127
2, 49280, Note_off_c, 1, 41, 0
2, 49280, Note_off_c, 1, 46, 0
2, 49280, Note_on_c, 1, 52, 127
2, 49280, Note_off_c, 1, 53, 0
2, 49280, Note_on_c, 1, 56, 127
2, 49280, Note_on_c, 1, 59, 127
2, 49280, Note_on_c, 1, 61, 127
2, 49280, Note_on_c, 1, 80, 127
2, 49280, Note_off_c, 1, 87, 0
2, 49320, Note_off_c, 1, 52, 0
2, 49320, Note_off_c, 1, 56, 0
2, 49320, Note_off_c, 1, 59, 0
2, 49320, Note_off_c, 1, 61, 0
2, 49320, Note_off_c, 1, 80, 0
2, 49360, Note_on_c, 1, 39, 127
2, 49360, Note_on_c, 1, 42, 127
2, 49360, Note_on_c, 1, 46, 127
2, 49360, Note_on_c, 1, 51, 127
2, 49360, Note_on_c, 1, 66, 127
2, 49360, Note_on_c, 1, 70, 127
2, 49360, Note_on_c, 1, 75, 127
2, 49360, Note_on_c, 1, 78, 127
2, 49680, Note_off_c, 1, 39, 0
2, 49680, Note_off_c, 1, 42, 0
2, 49680, Note_off_c, 1, 46, 0
2, 49680, Note_off_c, 1, 51, 0
2, 49680, Note_off_c, 1, 66, 0
2, 49680, Note_off_c, 1, 70, 0
2, 49680, Note_off_c, 1, 75, 0
2, 49680, Note_off_c, 1, 78, 0
2, 49720, Note_on_c, 1, 40, 127
2, 49720, Note_on_c, 1, 67, 127
2, 49720, Note_on_c, 1, 70, 127
2, 49720, Note_on_c, 1, 76, 127
2, 49880, Note_off_c, 1, 67, 0
2, 49880, Note_off_c, 1, 70, 0
2, 49880, Note_off_c, 1, 76, 0
2, 49920, Note_on_c, 1, 70, 127
2, 49920, Note_on_c, 1, 76, 127
2, 49920, Note_on_c, 1, 79, 127
2, 50040, Note_off_c, 1, 70, 0
2, 50040, Note_off_c, 1, 76, 0
2, 50040, Note_off_c, 1, 79, 0
2, 50080, Note_on_c, 1, 70, 127
2, 50080, Note_on_c, 1, 76, 127
2, 50080, Note_on_c, 1, 79, 127
2, 50360, Note_off_c, 1, 70, 0
2, 50360, Note_off_c, 1, 76, 0
2, 50360, Note_off_c, 1, 79, 0
2, 50400, Note_off_c, 1, 40, 0
2, 50440, Note_on_c, 1, 40, 127
2, 50440, Note_on_c, 1, 70, 127
2, 50440, Note_on_c, 1, 76, 127
2, 50440, Note_on_c, 1, 79, 127
2, 50760, Note_off_c, 1, 70, 0
2, 50760, Note_off_c, 1, 76, 0
2, 50760, Note_off_c, 1, 79, 0
2, 50800, Note_off_c, 1, 40, 0
2, 50840, Note_on_c, 1, 40, 127
2, 50840, Note_on_c, 1, 70, 127
2, 50840, Note_on_c, 1, 76, 127
2, 50840, Note_on_c, 1, 79, 127
2, 51120, Note_off_c, 1, 40, 0
2, 51120, Note_on_c, 1, 41, 127
2, 51120, Note_off_c, 1, 70, 0
2, 51120, Note_off_c, 1, 76, 0
2, 51120, Note_off_c, 1, 79, 0
2, 51160, Note_on_c, 1, 40, 127
2, 51160, Note_off_c, 1, 41, 0
2, 51160, Note_on_c, 1, 70, 127
2, 51160, Note_on_c, 1, 76, 127
2, 51160, Note_on_c, 1, 79, 127
2, 51440, Note_off_c, 1, 70, 0
2, 51440, Note_off_c, 1, 76, 0
2, 51440, Note_off_c, 1, 79, 0
2, 51480, Note_off_c, 1, 40, 0
2, 51520, Note_on_c, 1, 45, 127
2, 51520, Note_on_c, 1, 61, 127
2, 51520, Note_on_c, 1, 64, 127
2, 51520, Note_on_c, 1, 67, 127
2, 51800, Note_off_c, 1, 45, 0
2, 51840, Note_off_c, 1, 61, 0
2, 51840, Note_off_c, 1, 64, 0
2, 51840, Note_off_c, 1, 67, 0
2, 51880, Note_on_c, 1, 47, 127
2, 51880, Note_on_c, 1, 71, 127
2, 51880, Note_on_c, 1, 74, 127
2, 51880, Note_on_c, 1, 78, 127
2, 51880, Note_on_c, 1, 83, 127
2, 52200, Note_off_c, 1, 47, 0
2, 52200, Note_off_c, 1, 71, 0
2, 52200, Note_off_c, 1, 74, 0
2, 52200, Note_off_c, 1, 78, 0
2, 52200, Note_off_c, 1, 83, 0
2, 52240, Note_on_c, 1, 47, 127
2, 52240, Note_on_c, 1, 71, 127
2, 52240, Note_on_c, 1, 74, 127
2, 52240, Note_on_c, 1, 78, 127
2, 52240, Note_on_c, 1, 83, 127
2, 52520, Note_off_c, 1, 47, 0
2, 52560, Note_off_c, 1, 71, 0
2, 52560, Note_off_c, 1, 74, 0
2, 52560, Note_off_c, 1, 78, 0
2, 52560, Note_off_c, 1, 83, 0
2, 52600, Note_on_c, 1, 47, 127
2, 52600, Note_on_c, 1, 71, 127
2, 52600, Note_on_c, 1, 74, 127
2, 52600, Note_on_c, 1, 78, 127
2, 52600, Note_on_c, 1, 83, 127
2, 52720, Note_off_c, 1, 47, 0
2, 52720, Note_off_c, 1, 71, 0
2, 52720, Note_off_c, 1, 74, 0
2, 52720, Note_off_c, 1, 78, 0
2, 52720, Note_off_c, 1, 83, 0
2, 52760, Note_on_c, 1, 47, 127
2, 52760, Note_on_c, 1, 71, 127
2, 52760, Note_on_c, 1, 74, 127
2, 52760, Note_on_c, 1, 78, 127
2, 52760, Note_on_c, 1, 83, 127
2, 52920, Note_off_c, 1, 47, 0
2, 52920, Note_off_c, 1, 71, 0
2, 52920, Note_off_c, 1, 74, 0
2, 52920, Note_off_c, 1, 78, 0
2, 52920, Note_off_c, 1, 83, 0
2, 52960, Note_on_c, 1, 59, 127
2, 52960, Note_on_c, 1, 71, 127
2, 52960, Note_on_c, 1, 74, 127
2, 52960, Note_on_c, 1, 78, 127
2, 52960, Note_on_c, 1, 83, 127
2, 53280, Note_off_c, 1, 59, 0
2, 53280, Note_on_c, 1, 65, 127
2, 53280, Note_off_c, 1, 71, 0
2, 53280, Note_off_c, 1, 74, 0
2, 53280, Note_on_c, 1, 77, 127
2, 53280, Note_off_c, 1, 78, 0
2, 53280, Note_off_c, 1, 83, 0
2, 53280, Note_on_c, 1, 93, 127
2, 53320, Note_on_c, 1, 59, 127
2, 53320, Note_off_c, 1, 65, 0
2, 53320, Note_on_c, 1, 71, 127
2, 53320, Note_on_c, 1, 74, 127
2, 53320, Note_off_c, 1, 77, 0
2, 53320, Note_on_c, 1, 78, 127
2, 53320, Note_on_c, 1, 83, 127
2, 53320, Note_off_c, 1, 93, 0
2, 53640, Note_off_c, 1, 59, 0
2, 53640, Note_off_c, 1, 71, 0
2, 53640, Note_off_c, 1, 74, 0
2, 53640, Note_off_c, 1, 78, 0
2, 53640, Note_off_c, 1, 83, 0
2, 53680, Note_on_c, 1, 64, 127
2, 53680, Note_on_c, 1, 88, 127
2, 54000, Note_off_c, 1, 64, 0
2, 54000, Note_off_c, 1, 88, 0
2, 54040, Note_on_c, 1, 32, 127
2, 54040, Note_on_c, 1, 76, 127
2, 54040, Note_on_c, 1, 84, 127
2, 54040, Note_on_c, 1, 88, 127
2, 54080, Note_off_c, 1, 32, 0
2, 54080, Note_on_c, 1, 52, 127
2, 54080, Note_on_c, 1, 57, 127
2, 54080, Note_on_c, 1, 61, 127
2, 54080, Note_on_c, 1, 75, 127
2, 54080, Note_off_c, 1, 76, 0
2, 54080, Note_off_c, 1, 84, 0
2, 54080, Note_off_c, 1, 88, 0
2, 54120, Note_off_c, 1, 52, 0
2, 54120, Note_off_c, 1, 57, 0
2, 54120, Note_on_c, 1, 60, 127
2, 54120, Note_off_c, 1, 61, 0
2, 54120, Note_on_c, 1, 64, 127
2, 54120, Note_on_c, 1, 69, 127
2, 54120, Note_on_c, 1, 72, 127
2, 54120, Note_off_c, 1, 75, 0
2, 54120, Note_on_c, 1, 76, 127
2, 54120, Note_on_c, 1, 81, 127
2, 54160, Note_on_c, 1, 45, 127
2, 54160, Note_on_c, 1, 57, 127
2, 54160, Note_off_c, 1, 60, 0
2, 54160, Note_off_c, 1, 64, 0
2, 54160, Note_on_c, 1, 67, 127
2, 54160, Note_off_c, 1, 69, 0
2, 54160, Note_on_c, 1, 71, 127
2, 54160, Note_off_c, 1, 72, 0
2, 54160, Note_off_c, 1, 76, 0
2, 54160, Note_off_c, 1, 81, 0
2, 54200, Note_off_c, 1, 45, 0
2, 54200, Note_on_c, 1, 49, 127
2, 54200, Note_on_c, 1, 53, 127
2, 54200, Note_off_c, 1, 57, 0
2, 54200, Note_on_c, 1, 59, 127
2, 54200, Note_off_c, 1, 67, 0
2, 54200, Note_off_c, 1, 71, 0
2, 54200, Note_on_c, 1, 79, 127
2, 54240, Note_on_c, 1, 37, 127
2, 54240, Note_off_c, 1, 49, 0
2, 54240, Note_off_c, 1, 53, 0
2, 54240, Note_on_c, 1, 57, 127
2, 54240, Note_off_c, 1, 59, 0
2, 54240, Note_on_c, 1, 67, 127
2, 54240, Note_on_c, 1, 71, 127
2, 54240, Note_off_c, 1, 79, 0
2, 54280, Note_off_c, 1, 37, 0
2, 54280, Note_off_c, 1, 57, 0
2, 54280, Note_on_c, 1, 64, 127
2, 54280, Note_off_c, 1, 67, 0
2, 54280, Note_on_c, 1, 69, 127
2, 54280, Note_off_c, 1, 71, 0
2, 54280, Note_on_c, 1, 81, 127
2, 54280, Note_on_c, 1, 88, 127
2, 54320, Note_on_c, 1, 54, 127
2, 54320, Note_on_c, 1, 57, 127
2, 54320, Note_on_c, 1, 61, 127
2, 54320, Note_off_c, 1, 64, 0
2, 54320, Note_off_c, 1, 69, 0
2, 54320, Note_on_c, 1, 73, 127
2, 54320, Note_off_c, 1, 81, 0
2, 54320, Note_on_c, 1, 85, 127
2, 54320, Note_off_c, 1, 88, 0
2, 54360, Note_off_c, 1, 54, 0
2, 54360, Note_off_c, 1, 57, 0
2, 54360, Note_off_c, 1, 61, 0
2, 54360, Note_off_c, 1, 73, 0
2, 54360, Note_off_c, 1, 85, 0
2, 54400, Note_on_c, 1, 35, 127
2, 54400, Note_on_c, 1, 47, 127
2, 54400, Note_on_c, 1, 59, 127
2, 54400, Note_on_c, 1, 86, 127
2, 54400, Note_on_c, 1, 90, 127
2, 54400, Note_on_c, 1, 95, 127
2, 54720, Note_off_c, 1, 35, 0
2, 54720, Note_off_c, 1, 59, 0
2, 54720, Note_off_c, 1, 86, 0
2, 54720, Note_off_c, 1, 90, 0
2, 54720, Note_off_c, 1, 95, 0
2, 54760, Note_on_c, 1, 42, 127
2, 54760, Note_on_c, 1, 46, 127
2, 54760, Note_on_c, 1, 59, 127
2, 54760, Note_on_c, 1, 66, 127
2, 54760, Note_on_c, 1, 70, 127
2, 54880, Note_off_c, 1, 42, 0
2, 54880, Note_off_c, 1, 46, 0
2, 54880, Note_off_c, 1, 47, 0
2, 54880, Note_on_c, 1, 52, 127
2, 54880, Note_on_c, 1, 55, 127
2, 54880, Note_on_c, 1, 58, 127
2, 54880, Note_off_c, 1, 59, 0
2, 54880, Note_on_c, 1, 61, 127
2, 54880, Note_on_c, 1, 64, 127
2, 54880, Note_off_c, 1, 66, 0
2, 54880, Note_off_c, 1, 70, 0
2, 54880, Note_on_c, 1, 81, 127
2, 54880, Note_on_c, 1, 93, 127
2, 54920, Note_off_c, 1, 52, 0
2, 54920, Note_off_c, 1, 55, 0
2, 54920, Note_off_c, 1, 58, 0
2, 54920, Note_off_c, 1, 61, 0
2, 54920, Note_off_c, 1, 64, 0
2, 54920, Note_off_c, 1, 81, 0
2, 54920, Note_off_c, 1, 93, 0
2, 54960, Note_on_c, 1, 42, 127
2, 54960, Note_on_c, 1, 46, 127
2, 54960, Note_on_c, 1, 47, 127
2, 54960, Note_on_c, 1, 59, 127
2, 54960, Note_on_c, 1, 66, 127
2, 54960, Note_on_c, 1, 70, 127
2, 55000, Note_on_c, 1, 36, 127
2, 55000, Note_off_c, 1, 42, 0
2, 55000, Note_off_c, 1, 46, 0
2, 55000, Note_off_c, 1, 47, 0
2, 55000, Note_on_c, 1, 50, 127
2, 55000, Note_off_c, 1, 59, 0
2, 55000, Note_off_c, 1, 66, 0
2, 55000, Note_on_c, 1, 67, 127
2, 55000, Note_off_c, 1, 70, 0
2, 55000, Note_on_c, 1, 77, 127
2, 55000, Note_on_c, 1, 79, 127
2, 55040, Note_off_c, 1, 36, 0
2, 55040, Note_on_c, 1, 48, 127
2, 55040, Note_off_c, 1, 50, 0
2, 55040, Note_on_c, 1, 66, 127
2, 55040, Note_off_c, 1, 67, 0
2, 55040, Note_on_c, 1, 69, 127
2, 55040, Note_on_c, 1, 74, 127
2, 55040, Note_off_c, 1, 77, 0
2, 55040, Note_off_c, 1, 79, 0
2, 55040, Note_on_c, 1, 86, 127
2, 55080, Note_off_c, 1, 48, 0
2, 55080, Note_off_c, 1, 66, 0
2, 55080, Note_off_c, 1, 69, 0
2, 55080, Note_off_c, 1, 74, 0
2, 55080, Note_off_c, 1, 86, 0
2, 55120, Note_on_c, 1, 55, 127
2, 55120, Note_on_c, 1, 61, 127
2, 55120, Note_on_c, 1, 64, 127
2, 55120, Note_on_c, 1, 76, 127
2, 55120, Note_on_c, 1, 85, 127
2, 55160, Note_off_c, 1, 55, 0
2, 55160, Note_on_c, 1, 59, 127
2, 55160, Note_off_c, 1, 61, 0
2, 55160, Note_off_c, 1, 64, 0
2, 55160, Note_on_c, 1, 83, 127
2, 55160, Note_off_c, 1, 85, 0
2, 55160, Note_on_c, 1, 88, 127
2, 55440, Note_off_c, 1, 59, 0
2, 55440, Note_off_c, 1, 76, 0
2, 55440, Note_off_c, 1, 83, 0
2, 55440, Note_off_c, 1, 88, 0
2, 55480, Note_on_c, 1, 88, 127
2, 55480, Note_on_c, 1, 92, 127
2, 55480, Note_on_c, 1, 95, 127
2, 55600, Note_off_c, 1, 88, 0
2, 55600, Note_on_c, 1, 100, 127
2, 55640, Note_on_c, 1, 88, 127
2, 55640, Note_off_c, 1, 100, 0
2, 55800, Note_off_c, 1, 88, 0
2, 55800, Note_off_c, 1, 92, 0
2, 55800, Note_off_c, 1, 95, 0
2, 55840, Note_on_c, 1, 51, 127
2, 55840, Note_on_c, 1, 56, 127
2, 55840, Note_on_c, 1, 59, 127
2, 55840, Note_on_c, 1, 63, 127
2, 55840, Note_on_c, 1, 71, 127
2, 55840, Note_on_c, 1, 75, 127
2, 55960, Note_off_c, 1, 71, 0
2, 55960, Note_off_c, 1, 75, 0
2, 56000, Note_on_c, 1, 70, 127
2, 56080, Note_off_c, 1, 70, 0
2, 56120, Note_on_c, 1, 70, 127
2, 56160, Note_off_c, 1, 51, 0
2, 56160, Note_off_c, 1, 56, 0
2, 56160, Note_off_c, 1, 59, 0
2, 56160, Note_off_c, 1, 63, 0
2, 56160, Note_off_c, 1, 70, 0
2, 56200, Note_on_c, 1, 51, 127
2, 56200, Note_on_c, 1, 56, 127
2, 56200, Note_on_c, 1, 59, 127
2, 56200, Note_on_c, 1, 63, 127
2, 56200, Note_on_c, 1, 70, 127
2, 56320, Note_off_c, 1, 70, 0
2, 56360, Note_on_c, 1, 70, 127
2, 56400, Note_on_c, 1, 50, 127
2, 56400, Note_off_c, 1, 51, 0
2, 56400, Note_on_c, 1, 55, 127
2, 56400, Note_off_c, 1, 56, 0
2, 56400, Note_on_c, 1, 58, 127
2, 56400, Note_off_c, 1, 59, 0
2, 56400, Note_off_c, 1, 70, 0
2, 56440, Note_off_c, 1, 50, 0
2, 56440, Note_on_c, 1, 51, 127
2, 56440, Note_off_c, 1, 55, 0
2, 56440, Note_on_c, 1, 56, 127
2, 56440, Note_off_c, 1, 58, 0
2, 56440, Note_on_c, 1, 59, 127
2, 56440, Note_on_c, 1, 70, 127
2, 56480, Note_off_c, 1, 70, 0
2, 56520, Note_off_c, 1, 51, 0
2, 56520, Note_off_c, 1, 56, 0
2, 56520, Note_off_c, 1, 59, 0
2, 56520, Note_off_c, 1, 63, 0
2, 56560, Note_on_c, 1, 43, 127
2, 56560, Note_on_c, 1, 55, 127
2, 56560, Note_on_c, 1, 71, 127
2, 56560, Note_on_c, 1, 74, 127
2, 56560, Note_on_c, 1, 83, 127
2, 56840, Note_off_c, 1, 43, 0
2, 56840, Note_off_c, 1, 55, 0
2, 56840, Note_off_c, 1, 71, 0
2, 56840, Note_off_c, 1, 74, 0
2, 56840, Note_off_c, 1, 83, 0
2, 56880, Note_on_c, 1, 61, 127
2, 56880, Note_on_c, 1, 76, 127
2, 56880, Note_on_c, 1, 82, 127
2, 56880, Note_on_c, 1, 88, 127
2, 57000, Note_off_c, 1, 61, 0
2, 57000, Note_off_c, 1, 76, 0
2, 57000, Note_off_c, 1, 82, 0
2, 57000, Note_off_c, 1, 88, 0
2, 57040, Note_on_c, 1, 61, 127
2, 57040, Note_on_c, 1, 76, 127
2, 57040, Note_on_c, 1, 82, 127
2, 57040, Note_on_c, 1, 88, 127
2, 57240, Note_off_c, 1, 61, 0
2, 57240, Note_off_c, 1, 76, 0
2, 57240, Note_off_c, 1, 82, 0
2, 57240, Note_off_c, 1, 88, 0
2, 57280, Note_on_c, 1, 48, 127
2, 57280, Note_on_c, 1, 63, 127
2, 57280, Note_on_c, 1, 68, 127
2, 57280, Note_on_c, 1, 72, 127
2, 57280, Note_on_c, 1, 75, 127
2, 57600, Note_off_c, 1, 48, 0
2, 57600, Note_on_c, 1, 60, 127
2, 57600, Note_off_c, 1, 63, 0
2, 57600, Note_off_c, 1, 68, 0
2, 57600, Note_off_c, 1, 75, 0
2, 57640, Note_on_c, 1, 48, 127
2, 57640, Note_off_c, 1, 60, 0
2, 57640, Note_on_c, 1, 63, 127
2, 57640, Note_on_c, 1, 68, 127
2, 57640, Note_on_c, 1, 75, 127
2, 57960, Note_off_c, 1, 48, 0
2, 57960, Note_on_c, 1, 59, 127
2, 57960, Note_off_c, 1, 63, 0
2, 57960, Note_off_c, 1, 68, 0
2, 57960, Note_on_c, 1, 71, 127
2, 57960, Note_off_c, 1, 72, 0
2, 57960, Note_off_c, 1, 75, 0
2, 58000, Note_on_c, 1, 48, 127
2, 58000, Note_off_c, 1, 59, 0
2, 58000, Note_on_c, 1, 63, 127
2, 58000, Note_on_c, 1, 68, 127
2, 58000, Note_off_c, 1, 71, 0
2, 58000, Note_on_c, 1, 72, 127
2, 58000, Note_on_c, 1, 75, 127
2, 58320, Note_off_c, 1, 48, 0
2, 58320, Note_off_c, 1, 63, 0
2, 58320, Note_off_c, 1, 68, 0
2, 58320, Note_off_c, 1, 72, 0
2, 58320, Note_off_c, 1, 75, 0
2, 58360, Note_on_c, 1, 45, 127
2, 58360, Note_on_c, 1, 57, 127
2, 58360, Note_on_c, 1, 59, 127
2, 58360, Note_on_c, 1, 71, 127
2, 58640, Note_off_c, 1, 45, 0
2, 58640, Note_off_c, 1, 57, 0
2, 58680, Note_off_c, 1, 59, 0
2, 58680, Note_off_c, 1, 71, 0
2, 58720, Note_on_c, 1, 41, 127
2, 58720, Note_on_c, 1, 53, 127
2, 58720, Note_on_c, 1, 62, 127
2, 58720, Note_on_c, 1, 74, 127
2, 59000, Note_off_c, 1, 62, 0
2, 59000, Note_off_c, 1, 74, 0
2, 59040, Note_on_c, 1, 62, 127
2, 59040, Note_on_c, 1, 74, 127
2, 59160, Note_off_c, 1, 41, 0
2, 59160, Note_off_c, 1, 53, 0
2, 59160, Note_off_c, 1, 62, 0
2, 59160, Note_off_c, 1, 74, 0
2, 59200, Note_on_c, 1, 41, 127
2, 59200, Note_on_c, 1, 53, 127
2, 59200, Note_on_c, 1, 62, 127
2, 59200, Note_on_c, 1, 74, 127
2, 59400, Note_off_c, 1, 41, 0
2, 59400, Note_off_c, 1, 53, 0
2, 59400, Note_off_c, 1, 62, 0
2, 59400, Note_off_c, 1, 74, 0
2, 59440, Note_on_c, 1, 42, 127
2, 59440, Note_on_c, 1, 54, 127
2, 59440, Note_on_c, 1, 63, 127
2, 59440, Note_on_c, 1, 75, 127
2, 59760, Note_off_c, 1, 63, 0
2, 59760, Note_off_c, 1, 75, 0
2, 59800, Note_on_c, 1, 41, 127
2, 59800, Note_off_c, 1, 42, 0
2, 59800, Note_on_c, 1, 53, 127
2, 59800, Note_off_c, 1, 54, 0
2, 59800, Note_on_c, 1, 59, 127
2, 59800, Note_on_c, 1, 71, 127
2, 60080, Note_off_c, 1, 41, 0
2, 60080, Note_off_c, 1, 53, 0
2, 60080, Note_off_c, 1, 59, 0
2, 60080, Note_off_c, 1, 71, 0
2, 60120, Note_on_c, 1, 40, 127
2, 60120, Note_on_c, 1, 52, 127
2, 60120, Note_on_c, 1, 70, 127
2, 60120, Note_on_c, 1, 82, 127
2, 60440, Note_off_c, 1, 40, 0
2, 60440, Note_off_c, 1, 52, 0
2, 60440, Note_off_c, 1, 70, 0
2, 60440, Note_off_c, 1, 82, 0
2, 60480, Note_on_c, 1, 41, 127
2, 60480, Note_on_c, 1, 53, 127
2, 60480, Note_on_c, 1, 86, 127
2, 60480, Note_on_c, 1, 98, 127
2, 60800, Note_off_c, 1, 41, 0
2, 60800, Note_off_c, 1, 53, 0
2, 60800, Note_off_c, 1, 86, 0
2, 60800, Note_off_c, 1, 98, 0
2, 60840, Note_on_c, 1, 45, 127
2, 60840, Note_on_c, 1, 57, 127
2, 60840, Note_on_c, 1, 69, 127
2, 60840, Note_on_c, 1, 74, 127
2, 60840, Note_on_c, 1, 78, 127
2, 60840, Note_on_c, 1, 81, 127
2, 61160, Note_off_c, 1, 45, 0
2, 61160, Note_off_c, 1, 57, 0
2, 61160, Note_off_c, 1, 69, 0
2, 61160, Note_off_c, 1, 74, 0
2, 61160, Note_off_c, 1, 78, 0
2, 61160, Note_off_c, 1, 81, 0
2, 61200, Note_on_c, 1, 43, 127
2, 61200, Note_on_c, 1, 55, 127
2, 61200, Note_on_c, 1, 71, 127
2, 61200, Note_on_c, 1, 74, 127
2, 61200, Note_on_c, 1, 79, 127
2, 61200, Note_on_c, 1, 83, 127
2, 61280, Note_off_c, 1, 43, 0
2, 61280, Note_off_c, 1, 55, 0
2, 61280, Note_off_c, 1, 71, 0
2, 61280, Note_off_c, 1, 74, 0
2, 61280, Note_off_c, 1, 79, 0
2, 61280, Note_off_c, 1, 83, 0
2, 61320, Note_on_c, 1, 43, 127
2, 61320, Note_on_c, 1, 55, 127
2, 61320, Note_on_c, 1, 71, 127
2, 61320, Note_on_c, 1, 74, 127
2, 61320, Note_on_c, 1, 79, 127
2, 61320, Note_on_c, 1, 83, 127
2, 61560, Note_off_c, 1, 43, 0
2, 61560, Note_off_c, 1, 55, 0
2, 61560, Note_off_c, 1, 71, 0
2, 61560, Note_off_c, 1, 74, 0
2, 61560, Note_off_c, 1, 79, 0
2, 61560, Note_off_c, 1, 83, 0
2, 61600, Note_on_c, 1, 47, 127
2, 61600, Note_on_c, 1, 59, 127
2, 61600, Note_on_c, 1, 71, 127
2, 61600, Note_on_c, 1, 75, 127
2, 61600, Note_on_c, 1, 83, 127
2, 61880, Note_off_c, 1, 47, 0
2, 61880, Note_off_c, 1, 59, 0
2, 61880, Note_off_c, 1, 71, 0
2, 61880, Note_off_c, 1, 75, 0
2, 61880, Note_off_c, 1, 83, 0
2, 61920, Note_on_c, 1, 40, 127
2, 61920, Note_on_c, 1, 52, 127
2, 61920, Note_on_c, 1, 64, 127
2, 61920, Note_on_c, 1, 72, 127
2, 62240, Note_off_c, 1, 40, 0
2, 62240, Note_off_c, 1, 52, 0
2, 62240, Note_off_c, 1, 64, 0
2, 62240, Note_off_c, 1, 72, 0
2, 62280, Note_on_c, 1, 35, 127
2, 62280, Note_on_c, 1, 66, 127
2, 62280, Note_on_c, 1, 71, 127
2, 62280, Note_on_c, 1, 74, 127
2, 62440, Note_off_c, 1, 35, 0
2, 62480, Note_on_c, 1, 47, 127
2, 62600, Note_off_c, 1, 47, 0
2, 62600, Note_off_c, 1, 66, 0
2, 62600, Note_off_c, 1, 71, 0
2, 62600, Note_off_c, 1, 74, 0
2, 62640, Note_on_c, 1, 48, 127
2, 62640, Note_on_c, 1, 53, 127
2, 62640, Note_on_c, 1, 63, 127
2, 62640, Note_on_c, 1, 65, 127
2, 62640, Note_on_c, 1, 69, 127
2, 62960, Note_off_c, 1, 48, 0
2, 62960, Note_off_c, 1, 53, 0
2, 62960, Note_off_c, 1, 63, 0
2, 62960, Note_off_c, 1, 65, 0
2, 62960, Note_off_c, 1, 69, 0
2, 63000, Note_on_c, 1, 51, 127
2, 63000, Note_on_c, 1, 59, 127
2, 63000, Note_on_c, 1, 70, 127
2, 63000, Note_on_c, 1, 75, 127
2, 63000, Note_on_c, 1, 78, 127
2, 63240, Note_off_c, 1, 51, 0
2, 63240, Note_off_c, 1, 59, 0
2, 63240, Note_off_c, 1, 70, 0
2, 63240, Note_off_c, 1, 75, 0
2, 63240, Note_off_c, 1, 78, 0
2, 63280, Note_on_c, 1, 51, 127
2, 63280, Note_on_c, 1, 59, 127
2, 63280, Note_on_c, 1, 70, 127
2, 63280, Note_on_c, 1, 75, 127
2, 63280, Note_on_c, 1, 78, 127
2, 63320, Note_off_c, 1, 51, 0
2, 63320, Note_off_c, 1, 59, 0
2, 63320, Note_off_c, 1, 70, 0
2, 63320, Note_off_c, 1, 75, 0
2, 63320, Note_off_c, 1, 78, 0
2, 63360, Note_on_c, 1, 44, 127
2, 63360, Note_on_c, 1, 49, 127
2, 63360, Note_on_c, 1, 56, 127
2, 63360, Note_on_c, 1, 61, 127
2, 63680, Note_off_c, 1, 44, 0
2, 63680, Note_off_c, 1, 49, 0
2, 63680, Note_off_c, 1, 56, 0
2, 63680, Note_off_c, 1, 61, 0
2, 63720, Note_on_c, 1, 52, 127
2, 63720, Note_on_c, 1, 54, 127
2, 63720, Note_on_c, 1, 57, 127
2, 63720, Note_on_c, 1, 59, 127
2, 63720, Note_on_c, 1, 63, 127
2, 63720, Note_on_c, 1, 66, 127
2, 63760, Note_on_c, 1, 38, 127
2, 63760, Note_on_c, 1, 50, 127
2, 63760, Note_off_c, 1, 52, 0
2, 63760, Note_off_c, 1, 54, 0
2, 63760, Note_off_c, 1, 57, 0
2, 63760, Note_off_c, 1, 59, 0
2, 63760, Note_off_c, 1, 63, 0
2, 63760, Note_off_c, 1, 66, 0
2, 63760, Note_on_c, 1, 87, 127
2, 63760, Note_on_c, 1, 99, 127
2, 63800, Note_off_c, 1, 38, 0
2, 63800, Note_off_c, 1, 50, 0
2, 63800, Note_on_c, 1, 58, 127
2, 63800, Note_on_c, 1, 60, 127
2, 63800, Note_on_c, 1, 67, 127
2, 63800, Note_on_c, 1, 83, 127
2, 63800, Note_off_c, 1, 87, 0
2, 63800, Note_off_c, 1, 99, 0
2, 63840, Note_on_c, 1, 52, 127
2, 63840, Note_on_c, 1, 54, 127
2, 63840, Note_on_c, 1, 57, 127
2, 63840, Note_off_c, 1, 58, 0
2, 63840, Note_on_c, 1, 59, 127
2, 63840, Note_off_c, 1, 60, 0
2, 63840, Note_on_c, 1, 63, 127
2, 63840, Note_off_c, 1, 67, 0
2, 63840, Note_on_c, 1, 68, 127
2, 63840, Note_off_c, 1, 83, 0
2, 63880, Note_on_c, 1, 33, 127
2, 63880, Note_on_c, 1, 45, 127
2, 63880, Note_off_c, 1, 52, 0
2, 63880, Note_off_c, 1, 54, 0
2, 63880, Note_off_c, 1, 57, 0
2, 63880, Note_off_c, 1, 59, 0
2, 63880, Note_off_c, 1, 63, 0
2, 63880, Note_off_c, 1, 68, 0
2, 63880, Note_on_c, 1, 71, 127
2, 63880, Note_on_c, 1, 76, 127
2, 63880, Note_on_c, 1, 83, 127
2, 63920, Note_off_c, 1, 33, 0
2, 63920, Note_off_c, 1, 45, 0
2, 63920, Note_on_c, 1, 48, 127
2, 63920, Note_on_c, 1, 63, 127
2, 63920, Note_on_c, 1, 65, 127
2, 63920, Note_on_c, 1, 69, 127
2, 63920, Note_off_c, 1, 71, 0
2, 63920, Note_on_c, 1, 74, 127
2, 63920, Note_off_c, 1, 76, 0
2, 63920, Note_on_c, 1, 77, 127
2, 63920, Note_off_c, 1, 83, 0
2, 64040, Note_off_c, 1, 48, 0
2, 64040, Note_off_c, 1, 63, 0
2, 64040, Note_off_c, 1, 65, 0
2, 64040, Note_off_c, 1, 69, 0
2, 64040, Note_off_c, 1, 74, 0
2, 64040, Note_off_c, 1, 77, 0
2, 64080, Note_on_c, 1, 37, 127
2, 64080, Note_on_c, 1, 49, 127
2, 64080, Note_on_c, 1, 53, 127
2, 64080, Note_on_c, 1, 55, 127
2, 64080, Note_on_c, 1, 65, 127
2, 64080, Note_on_c, 1, 67, 127
2, 64400, Note_off_c, 1, 37, 0
2, 64400, Note_off_c, 1, 49, 0
2, 64400, Note_off_c, 1, 53, 0
2, 64400, Note_off_c, 1, 55, 0
2, 64400, Note_off_c, 1, 65, 0
2, 64400, Note_off_c, 1, 67, 0
2, 64440, Note_on_c, 1, 48, 127
2, 64440, Note_on_c, 1, 55, 127
2, 64440, Note_on_c, 1, 64, 127
2, 64440, Note_on_c, 1, 70, 127
2, 64440, Note_on_c, 1, 76, 127
2, 64720, Note_off_c, 1, 48, 0
2, 64720, Note_off_c, 1, 55, 0
2, 64720, Note_off_c, 1, 64, 0
2, 64720, Note_off_c, 1, 70, 0
2, 64720, Note_off_c, 1, 76, 0
2, 64760, Note_on_c, 1, 45, 127
2, 64760, Note_on_c, 1, 52, 127
2, 64760, Note_on_c, 1, 62, 127
2, 64760, Note_on_c, 1, 68, 127
2, 65000, Note_off_c, 1, 68, 0
2, 65080, Note_off_c, 1, 45, 0
2, 65080, Note_off_c, 1, 52, 0
2, 65080, Note_off_c, 1, 62, 0
2, 65120, Note_on_c, 1, 45, 127
2, 65120, Note_on_c, 1, 52, 127
2, 65120, Note_on_c, 1, 61, 127
2, 65120, Note_on_c, 1, 69, 127
2, 65320, Note_off_c, 1, 45, 0
2, 65320, Note_off_c, 1, 52, 0
2, 65320, Note_off_c, 1, 61, 0
2, 65320, Note_off_c, 1, 69, 0
2, 65360, Note_on_c, 1, 45, 127
2, 65360, Note_on_c, 1, 52, 127
2, 65360, Note_on_c, 1, 61, 127
2, 65360, Note_on_c, 1, 69, 127
2, 65840, Note_off_c, 1, 45, 0
2, 65840, Note_off_c, 1, 52, 0
2, 65840, Note_off_c, 1, 61, 0
2, 65840, Note_off_c, 1, 69, 0
2, 65880, Note_on_c, 1, 45, 127
2, 65880, Note_on_c, 1, 54, 127
2, 65880, Note_on_c, 1, 62, 127
2, 65880, Note_on_c, 1, 69, 127
2, 66520, Note_off_c, 1, 45, 0
2, 66520, Note_off_c, 1, 54, 0
2, 66520, Note_off_c, 1, 62, 0
2, 66520, Note_off_c, 1, 69, 0
2, 66560, Note_on_c, 1, 45, 127
2, 66560, Note_on_c, 1, 60, 127
2, 66560, Note_on_c, 1, 72, 127
2, 66880, Note_off_c, 1, 45, 0
2, 66880, Note_off_c, 1, 60, 0
2, 66880, Note_off_c, 1, 72, 0
2, 66920, Note_on_c, 1, 43, 127
2, 66920, Note_on_c, 1, 62, 127
2, 66920, Note_on_c, 1, 70, 127
2, 67240, Note_off_c, 1, 62, 0
2, 67280, Note_on_c, 1, 62, 127
2, 67280, Note_on_c, 1, 65, 127
2, 67280, Note_off_c, 1, 70, 0
2, 67400, Note_off_c, 1, 43, 0
2, 67400, Note_off_c, 1, 62, 0
2, 67400, Note_off_c, 1, 65, 0
2, 67440, Note_on_c, 1, 43, 127
2, 67440, Note_on_c, 1, 62, 127
2, 67440, Note_on_c, 1, 65, 127
2, 67600, Note_off_c, 1, 43, 0
2, 67600, Note_off_c, 1, 62, 0
2, 67600, Note_off_c, 1, 65, 0
2, 67640, Note_on_c, 1, 43, 127
2, 67640, Note_on_c, 1, 64, 127
2, 67640, Note_on_c, 1, 70, 127
2, 67960, Note_off_c, 1, 43, 0
2, 67960, Note_off_c, 1, 70, 0
2, 68000, Note_on_c, 1, 55, 127
2, 68000, Note_on_c, 1, 69, 127
2, 68320, Note_off_c, 1, 55, 0
2, 68320, Note_off_c, 1, 69, 0
2, 68360, Note_on_c, 1, 48, 127
2, 68360, Note_on_c, 1, 58, 127
2, 68640, Note_off_c, 1, 48, 0
2, 68640, Note_off_c, 1, 58, 0
2, 68680, Note_on_c, 1, 53, 127
2, 68680, Note_on_c, 1, 57, 127
2, 68680, Note_off_c, 1, 64, 0
2, 68680, Note_on_c, 1, 65, 127
2, 69000, Note_off_c, 1, 53, 0
2, 69000, Note_off_c, 1, 57, 0
2, 69000, Note_off_c, 1, 65, 0
2, 69040, Note_on_c, 1, 48, 127
2, 69040, Note_on_c, 1, 52, 127
2, 69040, Note_on_c, 1, 58, 127
2, 69040, Note_on_c, 1, 60, 127
2, 69360, Note_off_c, 1, 48, 0
2, 69360, Note_off_c, 1, 52, 0
2, 69360, Note_off_c, 1, 58, 0
2, 69360, Note_off_c, 1, 60, 0
2, 69400, Note_on_c, 1, 53, 127
2, 69400, Note_on_c, 1, 57, 127
2, 69400, Note_on_c, 1, 60, 127
2, 69560, Note_off_c, 1, 53, 0
2, 69560, Note_off_c, 1, 57, 0
2, 69560, Note_off_c, 1, 60, 0
2, 69600, Note_on_c, 1, 53, 127
2, 69600, Note_on_c, 1, 57, 127
2, 69600, Note_on_c, 1, 60, 127
2, 69720, Note_off_c, 1, 53, 0
2, 69720, Note_off_c, 1, 57, 0
2, 69720, Note_off_c, 1, 60, 0
2, 69800, Note_on_c, 1, 46, 127
2, 69800, Note_on_c, 1, 53, 127
2, 69800, Note_on_c, 1, 74, 127
2, 69800, Note_on_c, 1, 82, 127
2, 70800, Note_off_c, 1, 46, 0
2, 70800, Note_off_c, 1, 53, 0
2, 70800, Note_off_c, 1, 74, 0
2, 70800, Note_off_c, 1, 82, 0
2, 70840, Note_on_c, 1, 45, 127
2, 70840, Note_on_c, 1, 48, 127
2, 70840, Note_on_c, 1, 57, 127
2, 70840, Note_on_c, 1, 60, 127
2, 70840, Note_on_c, 1, 69, 127
2, 70840, Note_on_c, 1, 72, 127
2, 71520, Note_off_c, 1, 45, 0
2, 71520, Note_off_c, 1, 48, 0
2, 71520, Note_off_c, 1, 57, 0
2, 71520, Note_off_c, 1, 60, 0
2, 71520, Note_on_c, 1, 63, 127
2, 71520, Note_on_c, 1, 67, 127
2, 71520, Note_off_c, 1, 69, 0
2, 71520, Note_off_c, 1, 72, 0
2, 71520, Note_on_c, 1, 87, 127
2, 71520, Note_on_c, 1, 94, 127
2, 71560, Note_off_c, 1, 63, 0
2, 71560, Note_off_c, 1, 67, 0
2, 71560, Note_off_c, 1, 87, 0
2, 71560, Note_off_c, 1, 94, 0
2, 71600, Note_on_c, 1, 59, 127
2, 71600, Note_on_c, 1, 66, 127
2, 71600, Note_on_c, 1, 69, 127
2, 71600, Note_on_c, 1, 89, 127
2, 71640, Note_on_c, 1, 33, 127
2, 71640, Note_on_c, 1, 45, 127
2, 71640, Note_off_c, 1, 59, 0
2, 71640, Note_on_c, 1, 60, 127
2, 71640, Note_off_c, 1, 66, 0
2, 71640, Note_on_c, 1, 67, 127
2, 71640, Note_off_c, 1, 69, 0
2, 71640, Note_on_c, 1, 72, 127
2, 71640, Note_off_c, 1, 89, 0
2, 71680, Note_off_c, 1, 33, 0
2, 71680, Note_off_c, 1, 45, 0
2, 71680, Note_on_c, 1, 47, 127
2, 71680, Note_on_c, 1, 59, 127
2, 71680, Note_off_c, 1, 60, 0
2, 71680, Note_off_c, 1, 67, 0
2, 71680, Note_off_c, 1, 72, 0
2, 71680, Note_on_c, 1, 73, 127
2, 71680, Note_on_c, 1, 78, 127
2, 71680, Note_on_c, 1, 85, 127
2, 71720, Note_off_c, 1, 47, 0
2, 71720, Note_off_c, 1, 59, 0
2, 71720, Note_on_c, 1, 60, 127
2, 71720, Note_on_c, 1, 65, 127
2, 71720, Note_on_c, 1, 70, 127
2, 71720, Note_on_c, 1, 72, 127
2, 71720, Note_off_c, 1, 73, 0
2, 71720, Note_off_c, 1, 78, 0
2, 71720, Note_off_c, 1, 85, 0
2, 71760, Note_off_c, 1, 60, 0
2, 71760, Note_off_c, 1, 65, 0
2, 71760, Note_off_c, 1, 70, 0
2, 71760, Note_on_c, 1, 78, 127
2, 71760, Note_on_c, 1, 83, 127
2, 71760, Note_on_c, 1, 93, 127
2, 71800, Note_on_c, 1, 48, 127
2, 71800, Note_on_c, 1, 54, 127
2, 71800, Note_on_c, 1, 63, 127
2, 71800, Note_off_c, 1, 72, 0
2, 71800, Note_on_c, 1, 75, 127
2, 71800, Note_off_c, 1, 78, 0
2, 71800, Note_on_c, 1, 81, 127
2, 71800, Note_off_c, 1, 83, 0
2, 71800, Note_on_c, 1, 87, 127
2, 71800, Note_off_c, 1, 93, 0
2, 71840, Note_on_c, 1, 45, 127
2, 71840, Note_off_c, 1, 48, 0
2, 71840, Note_on_c, 1, 51, 127
2, 71840, Note_off_c, 1, 54, 0
2, 71840, Note_on_c, 1, 60, 127
2, 71840, Note_off_c, 1, 63, 0
2, 71840, Note_on_c, 1, 65, 127
2, 71840, Note_off_c, 1, 75, 0
2, 71840, Note_off_c, 1, 81, 0
2, 71840, Note_off_c, 1, 87, 0
2, 71880, Note_off_c, 1, 45, 0
2, 71880, Note_off_c, 1, 51, 0
2, 71880, Note_off_c, 1, 60, 0
2, 71880, Note_off_c, 1, 65, 0
2, 71920, Note_on_c, 1, 33, 127
2, 71920, Note_on_c, 1, 45, 127
2, 71920, Note_on_c, 1, 72, 127
2, 71920, Note_on_c, 1, 76, 127
2, 71920, Note_on_c, 1, 81, 127
2, 72920, Note_off_c, 1, 33, 0
2, 72920, Note_on_c, 1, 41, 127
2, 72920, Note_off_c, 1, 45, 0
2, 72920, Note_off_c, 1, 72, 0
2, 72960, Note_off_c, 1, 41, 0
2, 72960, Note_off_c, 1, 76, 0
2, 72960, Note_off_c, 1, 81, 0
2, 73920, Note_on_c, 1, 41, 127
2, 73920, Note_on_c, 1, 48, 127
2, 73920, Note_on_c, 1, 53, 127
2, 73920, Note_on_c, 1, 60, 127
2, 73920, Note_on_c, 1, 63, 127
2, 73920, Note_on_c, 1, 75, 127
2, 73920, Note_on_c, 1, 81, 127
2, 73920, Note_on_c, 1, 87, 127
2, 73960, Note_on_c, 1, 37, 127
2, 73960, Note_off_c, 1, 41, 0
2, 73960, Note_off_c, 1, 48, 0
2, 73960, Note_on_c, 1, 49, 127
2, 73960, Note_off_c, 1, 53, 0
2, 73960, Note_on_c, 1, 59, 127
2, 73960, Note_off_c, 1, 60, 0
2, 73960, Note_on_c, 1, 61, 127
2, 73960, Note_off_c, 1, 63, 0
2, 73960, Note_on_c, 1, 68, 127
2, 73960, Note_on_c, 1, 71, 127
2, 73960, Note_off_c, 1, 75, 0
2, 73960, Note_off_c, 1, 81, 0
2, 73960, Note_off_c, 1, 87, 0
2, 74000, Note_off_c, 1, 37, 0
2, 74000, Note_on_c, 1, 47, 127
2, 74000, Note_off_c, 1, 49, 0
2, 74000, Note_on_c, 1, 55, 127
2, 74000, Note_off_c, 1, 61, 0
2, 74000, Note_off_c, 1, 68, 0
2, 74000, Note_off_c, 1, 71, 0
2, 74000, Note_on_c, 1, 86, 127
2, 74000, Note_on_c, 1, 91, 127
2, 74000, Note_on_c, 1, 98, 127
2, 74040, Note_off_c, 1, 55, 0
2, 74040, Note_off_c, 1, 59, 0
2, 74040, Note_on_c, 1, 60, 127
2, 74040, Note_on_c, 1, 84, 127
2, 74040, Note_off_c, 1, 86, 0
2, 74040, Note_off_c, 1, 91, 0
2, 74040, Note_off_c, 1, 98, 0
2, 74080, Note_on_c, 1, 43, 127
2, 74080, Note_off_c, 1, 47, 0
2, 74080, Note_on_c, 1, 55, 127
2, 74080, Note_off_c, 1, 60, 0
2, 74080, Note_on_c, 1, 64, 127
2, 74080, Note_on_c, 1, 67, 127
2, 74080, Note_on_c, 1, 70, 127
2, 74080, Note_on_c, 1, 76, 127
2, 74080, Note_off_c, 1, 84, 0
2, 74120, Note_off_c, 1, 43, 0
2, 74120, Note_off_c, 1, 55, 0
2, 74120, Note_off_c, 1, 64, 0
2, 74120, Note_off_c, 1, 67, 0
2, 74120, Note_off_c, 1, 70, 0
2, 74120, Note_off_c, 1, 76, 0
2, 74280, Note_on_c, 1, 39, 127
2, 74280, Note_on_c, 1, 51, 127
2, 74280, Note_on_c, 1, 79, 127
2, 74280, Note_on_c, 1, 85, 127
2, 74280, Note_on_c, 1, 91, 127
2, 75280, Note_off_c, 1, 39, 0
2, 75280, Note_off_c, 1, 51, 0
2, 75280, Note_on_c, 1, 65, 127
2, 75280, Note_off_c, 1, 79, 0
2, 75280, Note_off_c, 1, 85, 0
2, 75280, Note_off_c, 1, 91, 0
2, 75320, Note_on_c, 1, 39, 127
2, 75320, Note_on_c, 1, 51, 127
2, 75320, Note_off_c, 1, 65, 0
2, 75320, Note_on_c, 1, 79, 127
2, 75320, Note_on_c, 1, 85, 127
2, 75320, Note_on_c, 1, 91, 127
2, 75920, Note_off_c, 1, 39, 0
2, 75920, Note_off_c, 1, 51, 0
2, 75920, Note_off_c, 1, 79, 0
2, 75920, Note_off_c, 1, 85, 0
2, 75920, Note_off_c, 1, 91, 0
2, 75960, Note_on_c, 1, 39, 127
2, 75960, Note_on_c, 1, 51, 127
2, 75960, Note_on_c, 1, 79, 127
2, 75960, Note_on_c, 1, 85, 127
2, 75960, Note_on_c, 1, 91, 127
2, 76000, Note_off_c, 1, 39, 0
2, 76000, Note_off_c, 1, 51, 0
2, 76000, Note_off_c, 1, 79, 0
2, 76000, Note_off_c, 1, 85, 0
2, 76000, Note_off_c, 1, 91, 0
2, 76040, Note_on_c, 1, 34, 127
2, 76040, Note_on_c, 1, 55, 127
2, 76040, Note_on_c, 1, 58, 127
2, 76360, Note_off_c, 1, 34, 0
2, 76360, Note_off_c, 1, 55, 0
2, 76360, Note_off_c, 1, 58, 0
2, 76400, Note_on_c, 1, 54, 127
2, 76400, Note_on_c, 1, 60, 127
2, 76400, Note_on_c, 1, 82, 127
2, 76400, Note_on_c, 1, 87, 127
2, 76400, Note_on_c, 1, 94, 127
2, 76440, Note_off_c, 1, 54, 0
2, 76440, Note_off_c, 1, 60, 0
2, 76440, Note_on_c, 1, 72, 127
2, 76440, Note_off_c, 1, 82, 0
2, 76440, Note_on_c, 1, 84, 127
2, 76440, Note_off_c, 1, 87, 0
2, 76440, Note_on_c, 1, 89, 127
2, 76440, Note_on_c, 1, 93, 127
2, 76440, Note_off_c, 1, 94, 0
2, 76440, Note_on_c, 1, 96, 127
2, 76480, Note_on_c, 1, 34, 127
2, 76480, Note_off_c, 1, 72, 0
2, 76480, Note_on_c, 1, 77, 127
2, 76480, Note_off_c, 1, 89, 0
2, 76480, Note_off_c, 1, 93, 0
2, 76480, Note_off_c, 1, 96, 0
2, 76520, Note_off_c, 1, 34, 0
2, 76520, Note_on_c, 1, 42, 127
2, 76520, Note_on_c, 1, 44, 127
2, 76520, Note_on_c, 1, 56, 127
2, 76520, Note_off_c, 1, 77, 0
2, 76520, Note_on_c, 1, 82, 127
2, 76520, Note_off_c, 1, 84, 0
2, 76520, Note_on_c, 1, 87, 127
2, 76520, Note_on_c, 1, 94, 127
2, 76560, Note_off_c, 1, 42, 0
2, 76560, Note_off_c, 1, 44, 0
2, 76560, Note_on_c, 1, 45, 127
2, 76560, Note_on_c, 1, 50, 127
2, 76560, Note_off_c, 1, 56, 0
2, 76560, Note_on_c, 1, 57, 127
2, 76560, Note_on_c, 1, 60, 127
2, 76560, Note_on_c, 1, 64, 127
2, 76560, Note_on_c, 1, 66, 127
2, 76560, Note_on_c, 1, 72, 127
2, 76560, Note_on_c, 1, 74, 127
2, 76560, Note_off_c, 1, 82, 0
2, 76560, Note_off_c, 1, 87, 0
2, 76560, Note_off_c, 1, 94, 0
2, 76600, Note_off_c, 1, 45, 0
2, 76600, Note_on_c, 1, 54, 127
2, 76600, Note_off_c, 1, 60, 0
2, 76600, Note_off_c, 1, 64, 0
2, 76600, Note_off_c, 1, 66, 0
2, 76600, Note_off_c, 1, 72, 0
2, 76600, Note_on_c, 1, 78, 127
2, 76640, Note_on_c, 1, 44, 127
2, 76640, Note_on_c, 1, 49, 127
2, 76640, Note_off_c, 1, 50, 0
2, 76640, Note_off_c, 1, 54, 0
2, 76640, Note_off_c, 1, 57, 0
2, 76640, Note_on_c, 1, 59, 127
2, 76640, Note_on_c, 1, 71, 127
2, 76640, Note_off_c, 1, 74, 0
2, 76640, Note_off_c, 1, 78, 0
2, 76680, Note_off_c, 1, 44, 0
2, 76680, Note_off_c, 1, 49, 0
2, 76680, Note_off_c, 1, 59, 0
2, 76680, Note_off_c, 1, 71, 0
2, 76680, Note_on_c, 1, 73, 127
2, 76720, Note_off_c, 1, 73, 0
2, 76760, Note_on_c, 1, 29, 127
2, 76760, Note_on_c, 1, 41, 127
2, 76760, Note_on_c, 1, 79, 127
2, 76760, Note_on_c, 1, 91, 127
2, 76880, Note_off_c, 1, 79, 0
2, 76880, Note_off_c, 1, 91, 0
2, 77040, Note_off_c, 1, 29, 0
2, 77040, Note_off_c, 1, 41, 0
2, 77080, Note_on_c, 1, 58, 127
2, 77080, Note_on_c, 1, 68, 127
2, 77080, Note_on_c, 1, 74, 127
2, 77080, Note_on_c, 1, 80, 127
2, 77080, Note_on_c, 1, 91, 127
2, 77120, Note_off_c, 1, 58, 0
2, 77120, Note_on_c, 1, 66, 127
2, 77120, Note_on_c, 1, 67, 127
2, 77120, Note_off_c, 1, 68, 0
2, 77120, Note_off_c, 1, 74, 0
2, 77120, Note_off_c, 1, 80, 0
2, 77120, Note_on_c, 1, 85, 127
2, 77120, Note_on_c, 1, 90, 127
2, 77120, Note_off_c, 1, 91, 0
2, 77160, Note_on_c, 1, 57, 127
2, 77160, Note_on_c, 1, 63, 127
2, 77160, Note_off_c, 1, 66, 0
2, 77160, Note_off_c, 1, 67, 0
2, 77160, Note_on_c, 1, 77, 127
2, 77160, Note_on_c, 1, 81, 127
2, 77160, Note_off_c, 1, 85, 0
2, 77160, Note_off_c, 1, 90, 0
2, 77200, Note_on_c, 1, 44, 127
2, 77200, Note_on_c, 1, 49, 127
2, 77200, Note_on_c, 1, 51, 127
2, 77200, Note_on_c, 1, 56, 127
2, 77200, Note_off_c, 1, 57, 0
2, 77200, Note_on_c, 1, 68, 127
2, 77200, Note_on_c, 1, 75, 127
2, 77200, Note_off_c, 1, 77, 0
2, 77200, Note_off_c, 1, 81, 0
2, 77240, Note_off_c, 1, 44, 0
2, 77240, Note_off_c, 1, 49, 0
2, 77240, Note_off_c, 1, 51, 0
2, 77240, Note_off_c, 1, 56, 0
2, 77240, Note_off_c, 1, 63, 0
2, 77240, Note_off_c, 1, 68, 0
2, 77240, Note_off_c, 1, 75, 0
2, 77440, Note_on_c, 1, 35, 127
2, 77440, Note_on_c, 1, 42, 127
2, 77440, Note_on_c, 1, 47, 127
2, 77440, Note_on_c, 1, 51, 127
2, 77440, Note_on_c, 1, 57, 127
2, 77440, Note_on_c, 1, 63, 127
2, 77680, Note_off_c, 1, 35, 0
2, 77680, Note_off_c, 1, 42, 0
2, 77680, Note_off_c, 1, 47, 0
2, 77680, Note_off_c, 1, 51, 0
2, 77680, Note_off_c, 1, 57, 0
2, 77680, Note_off_c, 1, 63, 0
2, 78000, Note_on_c, 1, 52, 127
2, 78000, Note_on_c, 1, 59, 127
2, 78000, Note_on_c, 1, 64, 127
2, 78000, Note_on_c, 1, 80, 127
2, 78000, Note_on_c, 1, 92, 127
2, 78160, Note_off_c, 1, 52, 0
2, 78160, Note_off_c, 1, 59, 0
2, 78160, Note_off_c, 1, 64, 0
2, 78160, Note_off_c, 1, 80, 0
2, 78160, Note_off_c, 1, 92, 0
2, 78200, Note_on_c, 1, 52, 127
2, 78200, Note_on_c, 1, 59, 127
2, 78200, Note_on_c, 1, 64, 127
2, 78200, Note_on_c, 1, 80, 127
2, 78200, Note_on_c, 1, 92, 127
2, 78320, Note_off_c, 1, 52, 0
2, 78320, Note_off_c, 1, 59, 0
2, 78320, Note_off_c, 1, 64, 0
2, 78320, Note_off_c, 1, 80, 0
2, 78320, Note_off_c, 1, 92, 0
2, 78360, Note_on_c, 1, 51, 127
2, 78360, Note_on_c, 1, 85, 127
2, 78360, Note_on_c, 1, 89, 127
2, 78400, Note_off_c, 1, 51, 0
2, 78400, Note_off_c, 1, 85, 0
2, 78400, Note_off_c, 1, 89, 0
2, 78440, Note_on_c, 1, 64, 127
2, 78440, Note_on_c, 1, 71, 127
2, 78440, Note_on_c, 1, 83, 127
2, 78440, Note_on_c, 1, 90, 127
2, 78480, Note_off_c, 1, 64, 0
2, 78480, Note_off_c, 1, 71, 0
2, 78480, Note_off_c, 1, 83, 0
2, 78480, Note_off_c, 1, 90, 0
2, 78520, Note_on_c, 1, 51, 127
2, 78520, Note_on_c, 1, 58, 127
2, 78520, Note_on_c, 1, 63, 127
2, 78520, Note_on_c, 1, 70, 127
2, 78520, Note_on_c, 1, 78, 127
2, 78800, Note_off_c, 1, 51, 0
2, 78800, Note_off_c, 1, 58, 0
2, 78800, Note_off_c, 1, 63, 0
2, 78800, Note_off_c, 1, 70, 0
2, 78800, Note_off_c, 1, 78, 0
2, 78840, Note_on_c, 1, 39, 127
2, 78840, Note_on_c, 1, 51, 127
2, 78840, Note_on_c, 1, 70, 127
2, 78840, Note_on_c, 1, 75, 127
2, 78840, Note_on_c, 1, 79, 127
2, 78840, Note_on_c, 1, 82, 127
2, 79320, Note_off_c, 1, 39, 0
2, 79320, Note_off_c, 1, 51, 0
2, 79320, Note_off_c, 1, 70, 0
2, 79320, Note_off_c, 1, 75, 0
2, 79320, Note_off_c, 1, 79, 0
2, 79320, Note_off_c, 1, 82, 0
2, 79360, Note_on_c, 1, 27, 127
2, 79360, Note_on_c, 1, 30, 127
2, 79360, Note_on_c, 1, 34, 127
2, 79360, Note_on_c, 1, 39, 127
2, 79360, Note_on_c, 1, 51, 127
2, 79360, Note_on_c, 1, 54, 127
2, 79360, Note_on_c, 1, 58, 127
2, 79360, Note_on_c, 1, 63, 127
2, 79520, Note_off_c, 1, 27, 0
2, 79520, Note_off_c, 1, 30, 0
2, 79520, Note_off_c, 1, 34, 0
2, 79520, Note_off_c, 1, 39, 0
2, 79520, Note_off_c, 1, 51, 0
2, 79520, Note_off_c, 1, 54, 0
2, 79520, Note_off_c, 1, 58, 0
2, 79520, Note_off_c, 1, 63, 0
2, 79560, Note_on_c, 1, 34, 127
2, 79560, Note_on_c, 1, 46, 127
2, 79560, Note_on_c, 1, 67, 127
2, 79560, Note_on_c, 1, 70, 127
2, 79560, Note_on_c, 1, 74, 127
2, 79560, Note_on_c, 1, 79, 127
2, 79840, Note_off_c, 1, 34, 0
2, 79840, Note_off_c, 1, 46, 0
2, 79840, Note_off_c, 1, 67, 0
2, 79840, Note_off_c, 1, 70, 0
2, 79840, Note_off_c, 1, 74, 0
2, 79840, Note_off_c, 1, 79, 0
2, 79880, Note_on_c, 1, 69, 127
2, 79880, Note_on_c, 1, 77, 127
2, 79880, Note_on_c, 1, 84, 127
2, 79880, Note_on_c, 1, 91, 127
2, 79920, Note_on_c, 1, 56, 127
2, 79920, Note_on_c, 1, 68, 127
2, 79920, Note_off_c, 1, 69, 0
2, 79920, Note_on_c, 1, 73, 127
2, 79920, Note_on_c, 1, 83, 127
2, 79920, Note_off_c, 1, 84, 0
2, 79920, Note_off_c, 1, 91, 0
2, 79960, Note_on_c, 1, 39, 127
2, 79960, Note_on_c, 1, 48, 127
2, 79960, Note_on_c, 1, 51, 127
2, 79960, Note_off_c, 1, 56, 0
2, 79960, Note_off_c, 1, 73, 0
2, 79960, Note_on_c, 1, 75, 127
2, 79960, Note_off_c, 1, 77, 0
2, 79960, Note_on_c, 1, 80, 127
2, 79960, Note_off_c, 1, 83, 0
2, 80000, Note_off_c, 1, 39, 0
2, 80000, Note_off_c, 1, 48, 0
2, 80000, Note_off_c, 1, 51, 0
2, 80000, Note_on_c, 1, 60, 127
2, 80000, Note_on_c, 1, 67, 127
2, 80000, Note_off_c, 1, 68, 0
2, 80000, Note_off_c, 1, 75, 0
2, 80000, Note_on_c, 1, 79, 127
2, 80000, Note_off_c, 1, 80, 0
2, 80000, Note_on_c, 1, 85, 127
2, 80040, Note_on_c, 1, 33, 127
2, 80040, Note_on_c, 1, 45, 127
2, 80040, Note_on_c, 1, 53, 127
2, 80040, Note_off_c, 1, 60, 0
2, 80040, Note_on_c, 1, 65, 127
2, 80040, Note_off_c, 1, 67, 0
2, 80040, Note_on_c, 1, 73, 127
2, 80040, Note_off_c, 1, 79, 0
2, 80040, Note_on_c, 1, 81, 127
2, 80040, Note_off_c, 1, 85, 0
2, 80080, Note_off_c, 1, 33, 0
2, 80080, Note_on_c, 1, 35, 127
2, 80080, Note_off_c, 1, 53, 0
2, 80080, Note_off_c, 1, 65, 0
2, 80080, Note_off_c, 1, 73, 0
2, 80080, Note_off_c, 1, 81, 0
2, 80080, Note_on_c, 1, 90, 127
2, 80120, Note_off_c, 1, 35, 0
2, 80120, Note_off_c, 1, 45, 0
2, 80120, Note_on_c, 1, 52, 127
2, 80120, Note_on_c, 1, 57, 127
2, 80120, Note_on_c, 1, 60, 127
2, 80120, Note_on_c, 1, 64, 127
2, 80120, Note_on_c, 1, 84, 127
2, 80120, Note_on_c, 1, 88, 127
2, 80120, Note_off_c, 1, 90, 0
2, 80120, Note_on_c, 1, 93, 127
2, 80120, Note_on_c, 1, 96, 127
2, 80160, Note_off_c, 1, 52, 0
2, 80160, Note_off_c, 1, 57, 0
2, 80160, Note_off_c, 1, 60, 0
2, 80160, Note_off_c, 1, 64, 0
2, 80160, Note_off_c, 1, 84, 0
2, 80160, Note_off_c, 1, 88, 0
2, 80160, Note_off_c, 1, 93, 0
2, 80160, Note_off_c, 1, 96, 0
2, 80240, Note_on_c, 1, 43, 127
2, 80240, Note_on_c, 1, 51, 127
2, 80240, Note_on_c, 1, 55, 127
2, 80240, Note_on_c, 1, 58, 127
2, 80240, Note_on_c, 1, 70, 127
2, 80280, Note_off_c, 1, 43, 0
2, 80280, Note_off_c, 1, 51, 0
2, 80280, Note_off_c, 1, 55, 0
2, 80280, Note_off_c, 1, 58, 0
2, 80280, Note_on_c, 1, 59, 127
2, 80280, Note_on_c, 1, 66, 127
2, 80280, Note_on_c, 1, 69, 127
2, 80280, Note_off_c, 1, 70, 0
2, 80280, Note_on_c, 1, 75, 127
2, 80280, Note_on_c, 1, 78, 127
2, 80280, Note_on_c, 1, 81, 127
2, 80280, Note_on_c, 1, 90, 127
2, 80320, Note_on_c, 1, 48, 127
2, 80320, Note_on_c, 1, 62, 127
2, 80320, Note_on_c, 1, 65, 127
2, 80320, Note_off_c, 1, 66, 0
2, 80320, Note_on_c, 1, 67, 127
2, 80320, Note_off_c, 1, 69, 0
2, 80320, Note_off_c, 1, 75, 0
2, 80320, Note_off_c, 1, 78, 0
2, 80320, Note_off_c, 1, 81, 0
2, 80320, Note_off_c, 1, 90, 0
2, 80360, Note_off_c, 1, 48, 0
2, 80360, Note_off_c, 1, 59, 0
2, 80360, Note_off_c, 1, 62, 0
2, 80360, Note_off_c, 1, 65, 0
2, 80360, Note_off_c, 1, 67, 0
2, 80400, Note_on_c, 1, 57, 127
2, 80400, Note_on_c, 1, 61, 127
2, 80400, Note_on_c, 1, 67, 127
2, 80400, Note_on_c, 1, 82, 127
2, 80400, Note_on_c, 1, 84, 127
2, 80440, Note_on_c, 1, 49, 127
2, 80440, Note_on_c, 1, 52, 127
2, 80440, Note_on_c, 1, 55, 127
2, 80440, Note_off_c, 1, 57, 0
2, 80440, Note_on_c, 1, 58, 127
2, 80440, Note_off_c, 1, 67, 0
2, 80440, Note_on_c, 1, 79, 127
2, 80440, Note_off_c, 1, 84, 0
2, 80440, Note_on_c, 1, 85, 127
2, 80440, Note_on_c, 1, 88, 127
2, 80440, Note_on_c, 1, 91, 127
2, 80480, Note_on_c, 1, 48, 127
2, 80480, Note_off_c, 1, 49, 0
2, 80480, Note_on_c, 1, 51, 127
2, 80480, Note_off_c, 1, 52, 0
2, 80480, Note_off_c, 1, 58, 0
2, 80480, Note_on_c, 1, 59, 127
2, 80480, Note_off_c, 1, 61, 0
2, 80480, Note_on_c, 1, 63, 127
2, 80480, Note_on_c, 1, 67, 127
2, 80480, Note_on_c, 1, 71, 127
2, 80480, Note_off_c, 1, 79, 0
2, 80480, Note_off_c, 1, 82, 0
2, 80480, Note_off_c, 1, 85, 0
2, 80480, Note_off_c, 1, 88, 0
2, 80480, Note_off_c, 1, 91, 0
2, 80520, Note_on_c, 1, 36, 127
2, 80520, Note_off_c, 1, 51, 0
2, 80520, Note_off_c, 1, 55, 0
2, 80520, Note_off_c, 1, 59, 0
2, 80520, Note_on_c, 1, 60, 127
2, 80520, Note_off_c, 1, 67, 0
2, 80520, Note_off_c, 1, 71, 0
2, 80520, Note_on_c, 1, 72, 127
2, 80560, Note_off_c, 1, 36, 0
2, 80560, Note_off_c, 1, 48, 0
2, 80560, Note_off_c, 1, 60, 0
2, 80560, Note_off_c, 1, 63, 0
2, 80560, Note_off_c, 1, 72, 0
2, 80600, Note_on_c, 1, 48, 127
2, 80600, Note_on_c, 1, 60, 127
2, 80600, Note_on_c, 1, 67, 127
2, 80600, Note_on_c, 1, 72, 127
2, 80600, Note_on_c, 1, 77, 127
2, 80600, Note_on_c, 1, 79, 127
2, 80720, Note_off_c, 1, 48, 0
2, 80720, Note_off_c, 1, 60, 0
2, 80720, Note_off_c, 1, 67, 0
2, 80720, Note_off_c, 1, 72, 0
2, 80720, Note_off_c, 1, 77, 0
2, 80720, Note_off_c, 1, 79, 0
2, 80800, Note_on_c, 1, 48, 127
2, 80800, Note_on_c, 1, 60, 127
2, 80800, Note_on_c, 1, 67, 127
2, 80800, Note_on_c, 1, 72, 127
2, 80800, Note_on_c, 1, 77, 127
2, 80800, Note_on_c, 1, 79, 127
2, 80920, Note_off_c, 1, 48, 0
2, 80920, Note_off_c, 1, 60, 0
2, 80920, Note_off_c, 1, 67, 0
2, 80920, Note_off_c, 1, 72, 0
2, 80920, Note_off_c, 1, 77, 0
2, 80920, Note_off_c, 1, 79, 0
2, 80960, Note_on_c, 1, 36, 127
2, 80960, Note_on_c, 1, 48, 127
2, 80960, Note_on_c, 1, 79, 127
2, 80960, Note_on_c, 1, 84, 127
2, 80960, Note_on_c, 1, 89, 127
2, 80960, Note_on_c, 1, 91, 127
2, 81080, Note_off_c, 1, 36, 0
2, 81080, Note_off_c, 1, 48, 0
2, 81080, Note_off_c, 1, 79, 0
2, 81080, Note_off_c, 1, 84, 0
2, 81080, Note_off_c, 1, 89, 0
2, 81080, Note_off_c, 1, 91, 0
2, 81120, Note_on_c, 1, 48, 127
2, 81120, Note_on_c, 1, 60, 127
2, 81120, Note_on_c, 1, 67, 127
2, 81120, Note_on_c, 1, 72, 127
2, 81120, Note_on_c, 1, 77, 127
2, 81120, Note_on_c, 1, 79, 127
2, 81240, Note_off_c, 1, 48, 0
2, 81240, Note_off_c, 1, 60, 0
2, 81240, Note_off_c, 1, 67, 0
2, 81240, Note_off_c, 1, 72, 0
2, 81240, Note_off_c, 1, 77, 0
2, 81240, Note_off_c, 1, 79, 0
2, 81280, Note_on_c, 1, 36, 127
2, 81280, Note_on_c, 1, 48, 127
2, 81280, Note_on_c, 1, 79, 127
2, 81280, Note_on_c, 1, 84, 127
2, 81280, Note_on_c, 1, 89, 127
2, 81280, Note_on_c, 1, 91, 127
2, 81440, Note_off_c, 1, 36, 0
2, 81440, Note_off_c, 1, 48, 0
2, 81440, Note_off_c, 1, 79, 0
2, 81440, Note_off_c, 1, 84, 0
2, 81440, Note_off_c, 1, 89, 0
2, 81440, Note_off_c, 1, 91, 0
2, 81640, Note_on_c, 1, 32, 127
2, 81640, Note_on_c, 1, 44, 127
2, 81640, Note_on_c, 1, 70, 127
2, 81640, Note_on_c, 1, 73, 127
2, 81720, Note_off_c, 1, 70, 0
2, 81800, Note_on_c, 1, 68, 127
2, 81960, Note_off_c, 1, 32, 0
2, 81960, Note_off_c, 1, 44, 0
2, 81960, Note_off_c, 1, 68, 0
2, 81960, Note_off_c, 1, 73, 0
2, 82000, Note_on_c, 1, 34, 127
2, 82000, Note_on_c, 1, 46, 127
2, 82000, Note_on_c, 1, 68, 127
2, 82000, Note_on_c, 1, 80, 127
2, 82120, Note_off_c, 1, 34, 0
2, 82120, Note_off_c, 1, 46, 0
2, 82120, Note_off_c, 1, 68, 0
2, 82120, Note_off_c, 1, 80, 0
2, 82160, Note_on_c, 1, 36, 127
2, 82160, Note_on_c, 1, 48, 127
2, 82160, Note_on_c, 1, 63, 127
2, 82160, Note_on_c, 1, 68, 127
2, 82160, Note_on_c, 1, 72, 127
2, 82160, Note_on_c, 1, 75, 127
2, 82280, Note_off_c, 1, 36, 0
2, 82280, Note_off_c, 1, 48, 0
2, 82280, Note_off_c, 1, 63, 0
2, 82280, Note_off_c, 1, 68, 0
2, 82280, Note_off_c, 1, 72, 0
2, 82280, Note_off_c, 1, 75, 0
2, 82320, Note_on_c, 1, 35, 127
2, 82320, Note_on_c, 1, 47, 127
2, 82320, Note_on_c, 1, 68, 127
2, 82320, Note_on_c, 1, 80, 127
2, 82480, Note_off_c, 1, 35, 0
2, 82480, Note_off_c, 1, 47, 0
2, 82480, Note_off_c, 1, 68, 0
2, 82480, Note_off_c, 1, 80, 0
2, 82560, Note_on_c, 1, 38, 127
2, 82560, Note_on_c, 1, 50, 127
2, 82560, Note_on_c, 1, 65, 127
2, 82560, Note_on_c, 1, 72, 127
2, 82560, Note_on_c, 1, 76, 127
2, 82680, Note_off_c, 1, 38, 0
2, 82680, Note_off_c, 1, 50, 0
2, 82680, Note_off_c, 1, 65, 0
2, 82680, Note_off_c, 1, 72, 0
2, 82680, Note_off_c, 1, 76, 0
2, 82720, Note_on_c, 1, 38, 127
2, 82720, Note_on_c, 1, 50, 127
2, 82720, Note_on_c, 1, 65, 127
2, 82720, Note_on_c, 1, 72, 127
2, 82720, Note_on_c, 1, 76, 127
2, 82840, Note_off_c, 1, 38, 0
2, 82840, Note_off_c, 1, 50, 0
2, 82840, Note_off_c, 1, 65, 0
2, 82840, Note_off_c, 1, 72, 0
2, 82840, Note_off_c, 1, 76, 0
2, 82880, Note_on_c, 1, 35, 127
2, 82880, Note_on_c, 1, 47, 127
2, 82880, Note_on_c, 1, 66, 127
2, 82880, Note_on_c, 1, 72, 127
2, 82880, Note_on_c, 1, 74, 127
2, 83040, Note_off_c, 1, 35, 0
2, 83040, Note_off_c, 1, 47, 0
2, 83040, Note_off_c, 1, 66, 0
2, 83040, Note_off_c, 1, 72, 0
2, 83040, Note_off_c, 1, 74, 0
2, 83080, Note_on_c, 1, 43, 127
2, 83080, Note_on_c, 1, 55, 127
2, 83080, Note_on_c, 1, 64, 127
2, 83080, Note_on_c, 1, 70, 127
2, 83080, Note_on_c, 1, 74, 127
2, 83200, Note_off_c, 1, 43, 0
2, 83200, Note_off_c, 1, 55, 0
2, 83200, Note_off_c, 1, 64, 0
2, 83200, Note_off_c, 1, 70, 0
2, 83200, Note_off_c, 1, 74, 0
2, 83240, Note_on_c, 1, 49, 127
2, 83240, Note_on_c, 1, 61, 127
2, 83240, Note_on_c, 1, 76, 127
2, 83240, Note_on_c, 1, 81, 127
2, 83240, Note_on_c, 1, 88, 127
2, 83360, Note_off_c, 1, 49, 0
2, 83360, Note_off_c, 1, 61, 0
2, 83360, Note_off_c, 1, 76, 0
2, 83360, Note_off_c, 1, 81, 0
2, 83360, Note_off_c, 1, 88, 0
2, 83400, Note_on_c, 1, 39, 127
2, 83400, Note_on_c, 1, 51, 127
2, 83400, Note_on_c, 1, 63, 127
2, 83400, Note_on_c, 1, 69, 127
2, 83400, Note_on_c, 1, 72, 127
2, 83720, Note_off_c, 1, 39, 0
2, 83720, Note_off_c, 1, 51, 0
2, 83720, Note_off_c, 1, 63, 0
2, 83720, Note_off_c, 1, 69, 0
2, 83720, Note_off_c, 1, 72, 0
2, 83760, Note_on_c, 1, 26, 127
2, 83760, Note_on_c, 1, 30, 127
2, 83760, Note_on_c, 1, 33, 127
2, 83760, Note_on_c, 1, 38, 127
2, 83760, Note_on_c, 1, 50, 127
2, 83760, Note_on_c, 1, 62, 127
2, 83800, Note_off_c, 1, 26, 0
2, 83800, Note_off_c, 1, 30, 0
2, 83800, Note_off_c, 1, 33, 0
2, 83800, Note_off_c, 1, 38, 0
2, 83800, Note_off_c, 1, 50, 0
2, 83800, Note_off_c, 1, 62, 0
2, 83800, Note_on_c, 1, 82, 127
2, 83800, Note_on_c, 1, 86, 127
2, 83800, Note_on_c, 1, 91, 127
2, 83800, Note_on_c, 1, 94, 127
2, 83840, Note_on_c, 1, 68, 127
2, 83840, Note_off_c, 1, 82, 0
2, 83840, Note_off_c, 1, 86, 0
2, 83840, Note_on_c, 1, 87, 127
2, 83840, Note_off_c, 1, 94, 0
2, 83880, Note_on_c, 1, 26, 127
2, 83880, Note_on_c, 1, 30, 127
2, 83880, Note_on_c, 1, 33, 127
2, 83880, Note_on_c, 1, 38, 127
2, 83880, Note_on_c, 1, 50, 127
2, 83880, Note_on_c, 1, 62, 127
2, 83880, Note_off_c, 1, 68, 0
2, 83880, Note_off_c, 1, 87, 0
2, 83880, Note_off_c, 1, 91, 0
2, 84000, Note_off_c, 1, 26, 0
2, 84000, Note_off_c, 1, 30, 0
2, 84000, Note_off_c, 1, 33, 0
2, 84000, Note_off_c, 1, 38, 0
2, 84000, Note_off_c, 1, 50, 0
2, 84000, Note_off_c, 1, 62, 0
2, 84000, Note_on_c, 1, 74, 127
2, 84120, Note_on_c, 1, 84, 127
2, 84120, Note_on_c, 1, 86, 127
2, 84400, Note_off_c, 1, 74, 0
2, 84400, Note_off_c, 1, 84, 0
2, 84400, Note_off_c, 1, 86, 0
2, 84440, Note_on_c, 1, 50, 127
2, 84440, Note_on_c, 1, 59, 127
2, 84440, Note_on_c, 1, 65, 127
2, 84440, Note_on_c, 1, 67, 127
2, 84440, Note_on_c, 1, 74, 127
2, 84480, Note_on_c, 1, 46, 127
2, 84480, Note_off_c, 1, 50, 0
2, 84480, Note_on_c, 1, 55, 127
2, 84480, Note_on_c, 1, 58, 127
2, 84480, Note_off_c, 1, 59, 0
2, 84480, Note_on_c, 1, 63, 127
2, 84480, Note_off_c, 1, 65, 0
2, 84480, Note_off_c, 1, 67, 0
2, 84480, Note_on_c, 1, 70, 127
2, 84480, Note_off_c, 1, 74, 0
2, 84520, Note_on_c, 1, 42, 127
2, 84520, Note_on_c, 1, 49, 127
2, 84520, Note_off_c, 1, 55, 0
2, 84520, Note_off_c, 1, 58, 0
2, 84520, Note_on_c, 1, 60, 127
2, 84520, Note_off_c, 1, 63, 0
2, 84520, Note_off_c, 1, 70, 0
2, 84520, Note_on_c, 1, 72, 127
2, 84560, Note_off_c, 1, 42, 0
2, 84560, Note_off_c, 1, 46, 0
2, 84560, Note_off_c, 1, 49, 0
2, 84560, Note_off_c, 1, 60, 0
2, 84560, Note_off_c, 1, 72, 0
2, 84600, Note_on_c, 1, 49, 127
2, 84600, Note_on_c, 1, 55, 127
2, 84600, Note_on_c, 1, 57, 127
2, 84600, Note_on_c, 1, 63, 127
2, 84600, Note_on_c, 1, 67, 127
2, 84600, Note_on_c, 1, 79, 127
2, 84640, Note_off_c, 1, 49, 0
2, 84640, Note_off_c, 1, 55, 0
2, 84640, Note_off_c, 1, 57, 0
2, 84640, Note_on_c, 1, 60, 127
2, 84640, Note_off_c, 1, 63, 0
2, 84640, Note_off_c, 1, 67, 0
2, 84640, Note_on_c, 1, 72, 127
2, 84640, Note_off_c, 1, 79, 0
2, 84640, Note_on_c, 1, 80, 127
2, 84640, Note_on_c, 1, 92, 127
2, 84680, Note_off_c, 1, 72, 0
2, 84680, Note_off_c, 1, 80, 0
2, 84680, Note_on_c, 1, 89, 127
2, 84680, Note_off_c, 1, 92, 0
2, 84680, Note_on_c, 1, 93, 127
2, 84720, Note_on_c, 1, 43, 127
2, 84720, Note_on_c, 1, 47, 127
2, 84720, Note_on_c, 1, 50, 127
2, 84720, Note_on_c, 1, 53, 127
2, 84720, Note_off_c, 1, 60, 0
2, 84720, Note_on_c, 1, 79, 127
2, 84720, Note_off_c, 1, 89, 0
2, 84720, Note_off_c, 1, 93, 0
2, 84760, Note_on_c, 1, 38, 127
2, 84760, Note_off_c, 1, 43, 0
2, 84760, Note_on_c, 1, 45, 127
2, 84760, Note_off_c, 1, 47, 0
2, 84760, Note_off_c, 1, 50, 0
2, 84760, Note_off_c, 1, 53, 0
2, 84760, Note_on_c, 1, 57, 127
2, 84760, Note_on_c, 1, 59, 127
2, 84760, Note_on_c, 1, 62, 127
2, 84760, Note_on_c, 1, 69, 127
2, 84760, Note_off_c, 1, 79, 0
2, 84800, Note_off_c, 1, 38, 0
2, 84800, Note_off_c, 1, 45, 0
2, 84800, Note_off_c, 1, 57, 0
2, 84800, Note_off_c, 1, 59, 0
2, 84800, Note_off_c, 1, 62, 0
2, 84800, Note_off_c, 1, 69, 0
2, 84840, Note_on_c, 1, 42, 127
2, 84840, Note_on_c, 1, 54, 127
2, 84840, Note_on_c, 1, 69, 127
2, 84840, Note_on_c, 1, 73, 127
2, 84840, Note_on_c, 1, 78, 127
2, 84840, Note_on_c, 1, 81, 127
2, 85160, Note_off_c, 1, 42, 0
2, 85160, Note_off_c, 1, 54, 0
2, 85160, Note_off_c, 1, 69, 0
2, 85160, Note_off_c, 1, 73, 0
2, 85160, Note_off_c, 1, 78, 0
2, 85160, Note_off_c, 1, 81, 0
2, 85200, Note_on_c, 1, 65, 127
2, 85200, Note_on_c, 1, 77, 127
2, 85200, Note_on_c, 1, 84, 127
2, 85200, Note_on_c, 1, 93, 127
2, 85200, Note_on_c, 1, 96, 127
2, 85240, Note_off_c, 1, 65, 0
2, 85240, Note_on_c, 1, 72, 127
2, 85240, Note_on_c, 1, 74, 127
2, 85240, Note_off_c, 1, 77, 0
2, 85240, Note_on_c, 1, 79, 127
2, 85240, Note_off_c, 1, 84, 0
2, 85240, Note_on_c, 1, 88, 127
2, 85240, Note_off_c, 1, 93, 0
2, 85240, Note_off_c, 1, 96, 0
2, 85320, Note_on_c, 1, 35, 127
2, 85320, Note_on_c, 1, 42, 127
2, 85320, Note_off_c, 1, 72, 0
2, 85320, Note_on_c, 1, 77, 127
2, 85320, Note_on_c, 1, 78, 127
2, 85320, Note_off_c, 1, 79, 0
2, 85320, Note_on_c, 1, 83, 127
2, 85320, Note_off_c, 1, 88, 0
2, 85360, Note_off_c, 1, 35, 0
2, 85360, Note_off_c, 1, 42, 0
2, 85360, Note_on_c, 1, 54, 127
2, 85360, Note_on_c, 1, 61, 127
2, 85360, Note_on_c, 1, 64, 127
2, 85360, Note_on_c, 1, 66, 127
2, 85360, Note_on_c, 1, 70, 127
2, 85360, Note_on_c, 1, 73, 127
2, 85360, Note_off_c, 1, 74, 0
2, 85360, Note_on_c, 1, 76, 127
2, 85360, Note_off_c, 1, 77, 0
2, 85360, Note_off_c, 1, 78, 0
2, 85360, Note_on_c, 1, 82, 127
2, 85360, Note_off_c, 1, 83, 0
2, 85400, Note_on_c, 1, 53, 127
2, 85400, Note_off_c, 1, 54, 0
2, 85400, Note_off_c, 1, 61, 0
2, 85400, Note_off_c, 1, 64, 0
2, 85400, Note_on_c, 1, 65, 127
2, 85400, Note_off_c, 1, 66, 0
2, 85400, Note_off_c, 1, 70, 0
2, 85400, Note_off_c, 1, 73, 0
2, 85400, Note_on_c, 1, 75, 127
2, 85400, Note_off_c, 1, 76, 0
2, 85400, Note_off_c, 1, 82, 0
2, 85400, Note_on_c, 1, 87, 127
2, 85440, Note_off_c, 1, 53, 0
2, 85440, Note_on_c, 1, 56, 127
2, 85440, Note_on_c, 1, 62, 127
2, 85440, Note_off_c, 1, 75, 0
2, 85440, Note_on_c, 1, 84, 127
2, 85440, Note_on_c, 1, 96, 127
2, 85480, Note_off_c, 1, 56, 0
2, 85480, Note_off_c, 1, 62, 0
2, 85480, Note_off_c, 1, 65, 0
2, 85480, Note_off_c, 1, 84, 0
2, 85480, Note_off_c, 1, 87, 0
2, 85480, Note_off_c, 1, 96, 0
2, 85520, Note_on_c, 1, 55, 127
2, 85520, Note_on_c, 1, 63, 127
2, 85520, Note_on_c, 1, 79, 127
2, 85520, Note_on_c, 1, 83, 127
2, 85520, Note_on_c, 1, 91, 127
2, 85560, Note_on_c, 1, 44, 127
2, 85560, Note_off_c, 1, 55, 0
2, 85560, Note_on_c, 1, 56, 127
2, 85560, Note_off_c, 1, 63, 0
2, 85560, Note_on_c, 1, 78, 127
2, 85560, Note_off_c, 1, 79, 0
2, 85560, Note_on_c, 1, 81, 127
2, 85560, Note_off_c, 1, 83, 0
2, 85560, Note_on_c, 1, 85, 127
2, 85560, Note_off_c, 1, 91, 0
2, 85600, Note_off_c, 1, 44, 0
2, 85600, Note_on_c, 1, 49, 127
2, 85600, Note_on_c, 1, 68, 127
2, 85600, Note_on_c, 1, 73, 127
2, 85600, Note_on_c, 1, 76, 127
2, 85600, Note_off_c, 1, 78, 0
2, 85600, Note_on_c, 1, 80, 127
2, 85600, Note_off_c, 1, 81, 0
2, 85600, Note_off_c, 1, 85, 0
2, 85640, Note_on_c, 1, 33, 127
2, 85640, Note_on_c, 1, 40, 127
2, 85640, Note_on_c, 1, 45, 127
2, 85640, Note_off_c, 1, 49, 0
2, 85640, Note_off_c, 1, 56, 0
2, 85640, Note_on_c, 1, 57, 127
2, 85640, Note_on_c, 1, 60, 127
2, 85640, Note_on_c, 1, 62, 127
2, 85640, Note_on_c, 1, 64, 127
2, 85640, Note_off_c, 1, 68, 0
2, 85640, Note_on_c, 1, 69, 127
2, 85640, Note_off_c, 1, 73, 0
2, 85640, Note_on_c, 1, 74, 127
2, 85640, Note_off_c, 1, 76, 0
2, 85640, Note_off_c, 1, 80, 0
2, 85680, Note_off_c, 1, 33, 0
2, 85680, Note_off_c, 1, 40, 0
2, 85680, Note_on_c, 1, 48, 127
2, 85680, Note_off_c, 1, 60, 0
2, 85680, Note_off_c, 1, 62, 0
2, 85680, Note_off_c, 1, 64, 0
2, 85680, Note_off_c, 1, 69, 0
2, 85680, Note_off_c, 1, 74, 0
2, 85720, Note_off_c, 1, 48, 0
2, 85720, Note_on_c, 1, 80, 127
2, 85720, Note_on_c, 1, 85, 127
2, 85720, Note_on_c, 1, 92, 127
2, 85760, Note_on_c, 1, 42, 127
2, 85760, Note_off_c, 1, 45, 0
2, 85760, Note_on_c, 1, 51, 127
2, 85760, Note_on_c, 1, 54, 127
2, 85760, Note_off_c, 1, 57, 0
2, 85760, Note_on_c, 1, 78, 127
2, 85760, Note_off_c, 1, 80, 0
2, 85760, Note_on_c, 1, 82, 127
2, 85760, Note_on_c, 1, 90, 127
2, 85760, Note_off_c, 1, 92, 0
2, 85800, Note_off_c, 1, 42, 0
2, 85800, Note_on_c, 1, 45, 127
2, 85800, Note_off_c, 1, 51, 0
2, 85800, Note_off_c, 1, 54, 0
2, 85800, Note_on_c, 1, 57, 127
2, 85800, Note_off_c, 1, 78, 0
2, 85800, Note_on_c, 1, 80, 127
2, 85800, Note_off_c, 1, 82, 0
2, 85800, Note_off_c, 1, 90, 0
2, 85800, Note_on_c, 1, 92, 127
2, 85840, Note_off_c, 1, 45, 0
2, 85840, Note_off_c, 1, 57, 0
2, 85840, Note_off_c, 1, 80, 0
2, 85840, Note_off_c, 1, 85, 0
2, 85840, Note_off_c, 1, 92, 0
2, 85880, Note_on_c, 1, 51, 127
2, 85880, Note_on_c, 1, 63, 127
2, 85880, Note_on_c, 1, 77, 127
2, 85880, Note_on_c, 1, 89, 127
2, 86000, Note_off_c, 1, 51, 0
2, 86000, Note_off_c, 1, 63, 0
2, 86040, Note_on_c, 1, 49, 127
2, 86040, Note_on_c, 1, 61, 127
2, 86200, Note_off_c, 1, 49, 0
2, 86200, Note_off_c, 1, 61, 0
2, 86200, Note_off_c, 1, 77, 0
2, 86200, Note_off_c, 1, 89, 0
2, 86240, Note_on_c, 1, 48, 127
2, 86240, Note_on_c, 1, 60, 127
2, 86240, Note_on_c, 1, 78, 127
2, 86240, Note_on_c, 1, 90, 127
2, 86480, Note_off_c, 1, 48, 0
2, 86480, Note_off_c, 1, 60, 0
2, 86480, Note_off_c, 1, 78, 0
2, 86480, Note_off_c, 1, 90, 0
2, 86520, Note_on_c, 1, 48, 127
2, 86520, Note_on_c, 1, 60, 127
2, 86520, Note_on_c, 1, 78, 127
2, 86520, Note_on_c, 1, 90, 127
2, 86560, Note_off_c, 1, 48, 0
2, 86560, Note_off_c, 1, 60, 0
2, 86560, Note_off_c, 1, 78, 0
2, 86560, Note_off_c, 1, 90, 0
2, 86600, Note_on_c, 1, 35, 127
2, 86600, Note_on_c, 1, 51, 127
2, 86600, Note_on_c, 1, 54, 127
2, 86600, Note_on_c, 1, 59, 127
2, 86600, Note_on_c, 1, 63, 127
2, 86640, Note_off_c, 1, 35, 0
2, 86640, Note_on_c, 1, 45, 127
2, 86640, Note_off_c, 1, 51, 0
2, 86640, Note_off_c, 1, 54, 0
2, 86640, Note_on_c, 1, 55, 127
2, 86640, Note_off_c, 1, 59, 0
2, 86640, Note_on_c, 1, 60, 127
2, 86640, Note_off_c, 1, 63, 0
2, 86640, Note_on_c, 1, 69, 127
2, 86680, Note_off_c, 1, 45, 0
2, 86680, Note_on_c, 1, 50, 127
2, 86680, Note_off_c, 1, 55, 0
2, 86680, Note_on_c, 1, 57, 127
2, 86680, Note_on_c, 1, 67, 127
2, 86680, Note_off_c, 1, 69, 0
2, 86680, Note_on_c, 1, 86, 127
2, 86720, Note_on_c, 1, 43, 127
2, 86720, Note_off_c, 1, 50, 0
2, 86720, Note_off_c, 1, 57, 0
2, 86720, Note_off_c, 1, 60, 0
2, 86720, Note_off_c, 1, 67, 0
2, 86720, Note_on_c, 1, 84, 127
2, 86720, Note_off_c, 1, 86, 0
2, 86720, Note_on_c, 1, 87, 127
2, 86760, Note_off_c, 1, 43, 0
2, 86760, Note_on_c, 1, 55, 127
2, 86760, Note_on_c, 1, 67, 127
2, 86760, Note_on_c, 1, 79, 127
2, 86760, Note_off_c, 1, 84, 0
2, 86760, Note_on_c, 1, 86, 127
2, 86760, Note_off_c, 1, 87, 0
2, 86800, Note_on_c, 1, 50, 127
2, 86800, Note_on_c, 1, 53, 127
2, 86800, Note_off_c, 1, 55, 0
2, 86800, Note_on_c, 1, 57, 127
2, 86800, Note_on_c, 1, 62, 127
2, 86800, Note_off_c, 1, 67, 0
2, 86800, Note_on_c, 1, 74, 127
2, 86800, Note_on_c, 1, 77, 127
2, 86800, Note_off_c, 1, 79, 0
2, 86800, Note_on_c, 1, 81, 127
2, 86840, Note_off_c, 1, 50, 0
2, 86840, Note_off_c, 1, 53, 0
2, 86840, Note_off_c, 1, 57, 0
2, 86840, Note_off_c, 1, 62, 0
2, 86840, Note_off_c, 1, 74, 0
2, 86840, Note_off_c, 1, 77, 0
2, 86840, Note_off_c, 1, 81, 0
2, 86840, Note_off_c, 1, 86, 0
2, 86880, Note_on_c, 1, 38, 127
2, 86880, Note_on_c, 1, 52, 127
2, 86880, Note_on_c, 1, 57, 127
2, 86880, Note_on_c, 1, 76, 127
2, 86920, Note_off_c, 1, 38, 0
2, 86920, Note_off_c, 1, 52, 0
2, 86920, Note_off_c, 1, 57, 0
2, 86920, Note_off_c, 1, 76, 0
2, 86960, Note_on_c, 1, 74, 127
2, 86960, Note_on_c, 1, 78, 127
2, 86960, Note_on_c, 1, 81, 127
2, 86960, Note_on_c, 1, 86, 127
2, 86960, Note_on_c, 1, 90, 127
2, 87000, Note_on_c, 1, 67, 127
2, 87000, Note_on_c, 1, 72, 127
2, 87000, Note_off_c, 1, 74, 0
2, 87000, Note_on_c, 1, 76, 127
2, 87000, Note_off_c, 1, 78, 0
2, 87000, Note_off_c, 1, 81, 0
2, 87000, Note_off_c, 1, 86, 0
2, 87000, Note_on_c, 1, 88, 127
2, 87000, Note_off_c, 1, 90, 0
2, 87000, Note_on_c, 1, 96, 127
2, 87000, Note_on_c, 1, 100, 127
2, 87040, Note_off_c, 1, 67, 0
2, 87040, Note_off_c, 1, 72, 0
2, 87040, Note_on_c, 1, 74, 127
2, 87040, Note_off_c, 1, 76, 0
2, 87040, Note_on_c, 1, 78, 127
2, 87040, Note_on_c, 1, 81, 127
2, 87040, Note_on_c, 1, 86, 127
2, 87040, Note_off_c, 1, 88, 0
2, 87040, Note_on_c, 1, 90, 127
2, 87040, Note_off_c, 1, 96, 0
2, 87040, Note_off_c, 1, 100, 0
2, 87240, Note_off_c, 1, 74, 0
2, 87240, Note_off_c, 1, 78, 0
2, 87240, Note_off_c, 1, 81, 0
2, 87240, Note_off_c, 1, 86, 0
2, 87240, Note_off_c, 1, 90, 0
2, 87280, Note_on_c, 1, 40, 127
2, 87280, Note_on_c, 1, 46, 127
2, 87280, Note_on_c, 1, 49, 127
2, 87280, Note_on_c, 1, 52, 127
2, 87280, Note_on_c, 1, 64, 127
2, 87280, Note_on_c, 1, 67, 127
2, 87280, Note_on_c, 1, 73, 127
2, 87280, Note_on_c, 1, 76, 127
2, 87400, Note_off_c, 1, 40, 0
2, 87400, Note_off_c, 1, 46, 0
2, 87400, Note_on_c, 1, 48, 127
2, 87400, Note_off_c, 1, 49, 0
2, 87400, Note_off_c, 1, 52, 0
2, 87400, Note_on_c, 1, 55, 127
2, 87400, Note_on_c, 1, 58, 127
2, 87400, Note_off_c, 1, 67, 0
2, 87400, Note_on_c, 1, 72, 127
2, 87400, Note_off_c, 1, 73, 0
2, 87440, Note_on_c, 1, 47, 127
2, 87440, Note_off_c, 1, 48, 0
2, 87440, Note_on_c, 1, 54, 127
2, 87440, Note_off_c, 1, 55, 0
2, 87440, Note_off_c, 1, 58, 0
2, 87440, Note_on_c, 1, 61, 127
2, 87440, Note_off_c, 1, 64, 0
2, 87440, Note_off_c, 1, 72, 0
2, 87440, Note_off_c, 1, 76, 0
2, 87440, Note_on_c, 1, 95, 127
2, 87480, Note_on_c, 1, 44, 127
2, 87480, Note_off_c, 1, 47, 0
2, 87480, Note_on_c, 1, 48, 127
2, 87480, Note_off_c, 1, 54, 0
2, 87480, Note_on_c, 1, 56, 127
2, 87480, Note_off_c, 1, 61, 0
2, 87480, Note_on_c, 1, 81, 127
2, 87480, Note_on_c, 1, 93, 127
2, 87480, Note_off_c, 1, 95, 0
2, 87520, Note_off_c, 1, 44, 0
2, 87520, Note_off_c, 1, 48, 0
2, 87520, Note_on_c, 1, 52, 127
2, 87520, Note_on_c, 1, 54, 127
2, 87520, Note_off_c, 1, 56, 0
2, 87520, Note_on_c, 1, 57, 127
2, 87520, Note_on_c, 1, 60, 127
2, 87520, Note_off_c, 1, 81, 0
2, 87520, Note_on_c, 1, 84, 127
2, 87520, Note_off_c, 1, 93, 0
2, 87560, Note_on_c, 1, 49, 127
2, 87560, Note_off_c, 1, 52, 0
2, 87560, Note_off_c, 1, 54, 0
2, 87560, Note_on_c, 1, 55, 127
2, 87560, Note_off_c, 1, 57, 0
2, 87560, Note_off_c, 1, 60, 0
2, 87560, Note_on_c, 1, 64, 127
2, 87560, Note_on_c, 1, 69, 127
2, 87560, Note_on_c, 1, 73, 127
2, 87560, Note_off_c, 1, 84, 0
2, 87600, Note_off_c, 1, 49, 0
2, 87600, Note_off_c, 1, 55, 0
2, 87600, Note_off_c, 1, 64, 0
2, 87600, Note_off_c, 1, 69, 0
2, 87600, Note_off_c, 1, 73, 0
2, 87640, Note_on_c, 1, 32, 127
2, 87640, Note_on_c, 1, 59, 127
2, 87640, Note_on_c, 1, 62, 127
2, 87760, Note_off_c, 1, 32, 0
2, 87760, Note_on_c, 1, 44, 127
2, 87760, Note_on_c, 1, 53, 127
2, 87760, Note_off_c, 1, 59, 0
2, 87760, Note_off_c, 1, 62, 0
2, 87800, Note_on_c, 1, 32, 127
2, 87800, Note_off_c, 1, 44, 0
2, 87800, Note_off_c, 1, 53, 0
2, 87800, Note_on_c, 1, 59, 127
2, 87800, Note_on_c, 1, 62, 127
2, 87840, Note_off_c, 1, 32, 0
2, 87840, Note_on_c, 1, 44, 127
2, 87840, Note_on_c, 1, 53, 127
2, 87840, Note_off_c, 1, 59, 0
2, 87840, Note_off_c, 1, 62, 0
2, 87880, Note_on_c, 1, 32, 127
2, 87880, Note_off_c, 1, 44, 0
2, 87880, Note_off_c, 1, 53, 0
2, 87880, Note_on_c, 1, 59, 127
2, 87880, Note_on_c, 1, 62, 127
2, 87920, Note_off_c, 1, 32, 0
2, 87920, Note_off_c, 1, 59, 0
2, 87920, Note_off_c, 1, 62, 0
2, 87960, Note_on_c, 1, 40, 127
2, 87960, Note_on_c, 1, 45, 127
2, 87960, Note_on_c, 1, 49, 127
2, 87960, Note_on_c, 1, 52, 127
2, 87960, Note_on_c, 1, 64, 127
2, 88040, Note_on_c, 1, 37, 127
2, 88040, Note_off_c, 1, 40, 0
2, 88040, Note_off_c, 1, 45, 0
2, 88040, Note_off_c, 1, 49, 0
2, 88080, Note_off_c, 1, 37, 0
2, 88080, Note_on_c, 1, 40, 127
2, 88080, Note_on_c, 1, 45, 127
2, 88080, Note_on_c, 1, 49, 127
2, 88120, Note_off_c, 1, 40, 0
2, 88120, Note_off_c, 1, 45, 0
2, 88120, Note_off_c, 1, 49, 0
2, 88160, Note_on_c, 1, 40, 127
2, 88160, Note_on_c, 1, 45, 127
2, 88160, Note_on_c, 1, 49, 127
2, 88200, Note_on_c, 1, 37, 127
2, 88200, Note_off_c, 1, 40, 0
2, 88200, Note_off_c, 1, 45, 0
2, 88200, Note_off_c, 1, 49, 0
2, 88240, Note_off_c, 1, 37, 0
2, 88280, Note_on_c, 1, 40, 127
2, 88280, Note_off_c, 1, 52, 0
2, 88280, Note_off_c, 1, 64, 0
2, 88320, Note_on_c, 1, 45, 127
2, 88320, Note_on_c, 1, 49, 127
2, 88320, Note_on_c, 1, 52, 127
2, 88320, Note_on_c, 1, 64, 127
2, 88440, Note_off_c, 1, 40, 0
2, 88440, Note_off_c, 1, 45, 0
2, 88440, Note_off_c, 1, 49, 0
2, 88480, Note_off_c, 1, 52, 0
2, 88480, Note_on_c, 1, 63, 127
2, 88480, Note_on_c, 1, 68, 127
2, 88480, Note_on_c, 1, 71, 127
2, 88480, Note_on_c, 1, 75, 127
2, 88520, Note_on_c, 1, 36, 127
2, 88520, Note_on_c, 1, 48, 127
2, 88520, Note_on_c, 1, 58, 127
2, 88520, Note_off_c, 1, 64, 0
2, 88520, Note_off_c, 1, 68, 0
2, 88520, Note_on_c, 1, 69, 127
2, 88520, Note_off_c, 1, 71, 0
2, 88520, Note_off_c, 1, 75, 0
2, 88560, Note_off_c, 1, 36, 0
2, 88560, Note_off_c, 1, 48, 0
2, 88560, Note_off_c, 1, 58, 0
2, 88560, Note_off_c, 1, 63, 0
2, 88560, Note_off_c, 1, 69, 0
2, 88600, Note_on_c, 1, 51, 127
2, 88600, Note_on_c, 1, 54, 127
2, 88600, Note_on_c, 1, 78, 127
2, 88600, Note_on_c, 1, 90, 127
2, 88640, Note_off_c, 1, 51, 0
2, 88640, Note_off_c, 1, 54, 0
2, 88640, Note_off_c, 1, 78, 0
2, 88640, Note_off_c, 1, 90, 0
2, 88680, Note_on_c, 1, 50, 127
2, 88680, Note_on_c, 1, 52, 127
2, 88680, Note_on_c, 1, 62, 127
2, 88840, Note_off_c, 1, 50, 0
2, 88840, Note_off_c, 1, 52, 0
2, 88840, Note_off_c, 1, 62, 0
2, 88880, Note_on_c, 1, 55, 127
2, 88880, Note_on_c, 1, 62, 127
2, 88880, Note_on_c, 1, 83, 127
2, 88880, Note_on_c, 1, 86, 127
2, 89000, Note_off_c, 1, 55, 0
2, 89000, Note_off_c, 1, 62, 0
2, 89000, Note_off_c, 1, 83, 0
2, 89000, Note_off_c, 1, 86, 0
2, 89040, Note_on_c, 1, 45, 127
2, 89040, Note_on_c, 1, 52, 127
2, 89040, Note_on_c, 1, 57, 127
2, 89040, Note_on_c, 1, 76, 127
2, 89040, Note_on_c, 1, 81, 127
2, 89040, Note_on_c, 1, 85, 127
2, 89040, Note_on_c, 1, 88, 127
2, 89680, Note_off_c, 1, 45, 0
2, 89680, Note_off_c, 1, 52, 0
2, 89680, Note_off_c, 1, 57, 0
2, 89680, Note_off_c, 1, 76, 0
2, 89680, Note_off_c, 1, 81, 0
2, 89680, Note_off_c, 1, 85, 0
2, 89680, Note_off_c, 1, 88, 0
2, 89720, Note_on_c, 1, 52, 127
2, 89720, Note_on_c, 1, 64, 127
2, 89720, Note_on_c, 1, 74, 127
2, 89720, Note_on_c, 1, 76, 127
2, 89720, Note_on_c, 1, 80, 127
2, 89720, Note_on_c, 1, 83, 127
2, 90040, Note_off_c, 1, 52, 0
2, 90040, Note_on_c, 1, 53, 127
2, 90040, Note_on_c, 1, 55, 127
2, 90040, Note_on_c, 1, 58, 127
2, 90040, Note_off_c, 1, 64, 0
2, 90040, Note_off_c, 1, 74, 0
2, 90040, Note_off_c, 1, 76, 0
2, 90040, Note_on_c, 1, 79, 127
2, 90040, Note_off_c, 1, 80, 0
2, 90040, Note_off_c, 1, 83, 0
2, 90080, Note_on_c, 1, 52, 127
2, 90080, Note_off_c, 1, 53, 0
2, 90080, Note_off_c, 1, 55, 0
2, 90080, Note_off_c, 1, 58, 0
2, 90080, Note_on_c, 1, 64, 127
2, 90080, Note_on_c, 1, 74, 127
2, 90080, Note_on_c, 1, 76, 127
2, 90080, Note_off_c, 1, 79, 0
2, 90080, Note_on_c, 1, 80, 127
2, 90080, Note_on_c, 1, 83, 127
2, 90400, Note_off_c, 1, 52, 0
2, 90400, Note_off_c, 1, 64, 0
2, 90400, Note_off_c, 1, 74, 0
2, 90400, Note_off_c, 1, 76, 0
2, 90400, Note_off_c, 1, 80, 0
2, 90400, Note_off_c, 1, 83, 0
2, 90440, Note_on_c, 1, 49, 127
2, 90440, Note_on_c, 1, 60, 127
2, 90440, Note_on_c, 1, 68, 127
2, 90440, Note_on_c, 1, 73, 127
2, 90440, Note_on_c, 1, 77, 127
2, 90480, Note_on_c, 1, 41, 127
2, 90480, Note_off_c, 1, 49, 0
2, 90480, Note_on_c, 1, 50, 127
2, 90480, Note_on_c, 1, 56, 127
2, 90480, Note_off_c, 1, 60, 0
2, 90480, Note_on_c, 1, 61, 127
2, 90480, Note_off_c, 1, 68, 0
2, 90480, Note_off_c, 1, 73, 0
2, 90480, Note_off_c, 1, 77, 0
2, 90520, Note_off_c, 1, 41, 0
2, 90520, Note_on_c, 1, 49, 127
2, 90520, Note_off_c, 1, 50, 0
2, 90520, Note_off_c, 1, 56, 0
2, 90520, Note_on_c, 1, 60, 127
2, 90520, Note_off_c, 1, 61, 0
2, 90520, Note_on_c, 1, 68, 127
2, 90520, Note_on_c, 1, 73, 127
2, 90520, Note_on_c, 1, 77, 127
2, 90680, Note_off_c, 1, 49, 0
2, 90680, Note_off_c, 1, 60, 0
2, 90680, Note_off_c, 1, 68, 0
2, 90680, Note_off_c, 1, 73, 0
2, 90680, Note_off_c, 1, 77, 0
2, 90720, Note_on_c, 1, 49, 127
2, 90720, Note_on_c, 1, 60, 127
2, 90720, Note_on_c, 1, 68, 127
2, 90720, Note_on_c, 1, 73, 127
2, 90720, Note_on_c, 1, 77, 127
2, 90760, Note_off_c, 1, 49, 0
2, 90760, Note_off_c, 1, 60, 0
2, 90760, Note_off_c, 1, 68, 0
2, 90760, Note_on_c, 1, 76, 127
2, 90760, Note_off_c, 1, 77, 0
2, 90760, Note_on_c, 1, 85, 127
2, 90800, Note_on_c, 1, 42, 127
2, 90800, Note_on_c, 1, 52, 127
2, 90800, Note_off_c, 1, 73, 0
2, 90800, Note_on_c, 1, 83, 127
2, 90800, Note_off_c, 1, 85, 0
2, 90800, Note_on_c, 1, 88, 127
2, 90840, Note_off_c, 1, 42, 0
2, 90840, Note_on_c, 1, 57, 127
2, 90840, Note_on_c, 1, 59, 127
2, 90840, Note_on_c, 1, 62, 127
2, 90840, Note_on_c, 1, 71, 127
2, 90840, Note_off_c, 1, 76, 0
2, 90840, Note_off_c, 1, 83, 0
2, 90840, Note_off_c, 1, 88, 0
2, 90880, Note_on_c, 1, 42, 127
2, 90880, Note_off_c, 1, 57, 0
2, 90880, Note_off_c, 1, 59, 0
2, 90880, Note_off_c, 1, 62, 0
2, 90880, Note_off_c, 1, 71, 0
2, 90880, Note_on_c, 1, 76, 127
2, 90880, Note_on_c, 1, 83, 127
2, 90880, Note_on_c, 1, 88, 127
2, 90960, Note_off_c, 1, 42, 0
2, 90960, Note_on_c, 1, 45, 127
2, 90960, Note_off_c, 1, 52, 0
2, 90960, Note_on_c, 1, 57, 127
2, 90960, Note_on_c, 1, 61, 127
2, 90960, Note_on_c, 1, 64, 127
2, 90960, Note_on_c, 1, 67, 127
2, 90960, Note_on_c, 1, 69, 127
2, 90960, Note_off_c, 1, 76, 0
2, 90960, Note_off_c, 1, 83, 0
2, 90960, Note_off_c, 1, 88, 0
2, 91000, Note_off_c, 1, 45, 0
2, 91000, Note_on_c, 1, 51, 127
2, 91000, Note_off_c, 1, 57, 0
2, 91000, Note_off_c, 1, 61, 0
2, 91000, Note_off_c, 1, 64, 0
2, 91000, Note_off_c, 1, 67, 0
2, 91000, Note_off_c, 1, 69, 0
2, 91000, Note_on_c, 1, 82, 127
2, 91000, Note_on_c, 1, 85, 127
2, 91000, Note_on_c, 1, 91, 127
2, 91040, Note_on_c, 1, 47, 127
2, 91040, Note_on_c, 1, 50, 127
2, 91040, Note_off_c, 1, 51, 0
2, 91040, Note_on_c, 1, 55, 127
2, 91040, Note_on_c, 1, 67, 127
2, 91040, Note_on_c, 1, 74, 127
2, 91040, Note_on_c, 1, 77, 127
2, 91040, Note_on_c, 1, 79, 127
2, 91040, Note_off_c, 1, 82, 0
2, 91040, Note_off_c, 1, 85, 0
2, 91040, Note_off_c, 1, 91, 0
2, 91080, Note_off_c, 1, 47, 0
2, 91080, Note_off_c, 1, 50, 0
2, 91080, Note_on_c, 1, 51, 127
2, 91080, Note_off_c, 1, 55, 0
2, 91080, Note_on_c, 1, 56, 127
2, 91080, Note_off_c, 1, 67, 0
2, 91080, Note_on_c, 1, 71, 127
2, 91080, Note_off_c, 1, 74, 0
2, 91080, Note_off_c, 1, 77, 0
2, 91080, Note_on_c, 1, 78, 127
2, 91080, Note_off_c, 1, 79, 0
2, 91120, Note_off_c, 1, 51, 0
2, 91120, Note_off_c, 1, 56, 0
2, 91120, Note_off_c, 1, 71, 0
2, 91120, Note_off_c, 1, 78, 0
2, 91160, Note_on_c, 1, 50, 127
2, 91160, Note_on_c, 1, 86, 127
2, 91160, Note_on_c, 1, 90, 127
2, 91160, Note_on_c, 1, 98, 127
2, 91200, Note_off_c, 1, 50, 0
2, 91200, Note_on_c, 1, 52, 127
2, 91200, Note_on_c, 1, 59, 127
2, 91200, Note_on_c, 1, 62, 127
2, 91200, Note_on_c, 1, 66, 127
2, 91200, Note_on_c, 1, 71, 127
2, 91200, Note_on_c, 1, 74, 127
2, 91200, Note_on_c, 1, 78, 127
2, 91200, Note_off_c, 1, 86, 0
2, 91200, Note_off_c, 1, 90, 0
2, 91200, Note_off_c, 1, 98, 0
2, 91240, Note_off_c, 1, 52, 0
2, 91240, Note_on_c, 1, 57, 127
2, 91240, Note_off_c, 1, 59, 0
2, 91240, Note_on_c, 1, 60, 127
2, 91240, Note_off_c, 1, 62, 0
2, 91240, Note_on_c, 1, 65, 127
2, 91240, Note_off_c, 1, 66, 0
2, 91240, Note_off_c, 1, 71, 0
2, 91240, Note_off_c, 1, 74, 0
2, 91240, Note_off_c, 1, 78, 0
2, 91240, Note_on_c, 1, 88, 127
2, 91240, Note_on_c, 1, 92, 127
2, 91280, Note_on_c, 1, 54, 127
2, 91280, Note_off_c, 1, 57, 0
2, 91280, Note_off_c, 1, 60, 0
2, 91280, Note_on_c, 1, 61, 127
2, 91280, Note_off_c, 1, 65, 0
2, 91280, Note_on_c, 1, 69, 127
2, 91280, Note_off_c, 1, 88, 0
2, 91280, Note_off_c, 1, 92, 0
2, 91280, Note_on_c, 1, 93, 127
2, 91320, Note_on_c, 1, 48, 127
2, 91320, Note_off_c, 1, 54, 0
2, 91320, Note_on_c, 1, 55, 127
2, 91320, Note_on_c, 1, 60, 127
2, 91320, Note_off_c, 1, 61, 0
2, 91320, Note_off_c, 1, 69, 0
2, 91320, Note_on_c, 1, 77, 127
2, 91320, Note_on_c, 1, 89, 127
2, 91320, Note_off_c, 1, 93, 0
2, 91360, Note_off_c, 1, 48, 0
2, 91360, Note_off_c, 1, 55, 0
2, 91360, Note_off_c, 1, 60, 0
2, 91360, Note_on_c, 1, 66, 127
2, 91360, Note_off_c, 1, 77, 0
2, 91360, Note_on_c, 1, 79, 127
2, 91360, Note_on_c, 1, 85, 127
2, 91360, Note_on_c, 1, 88, 127
2, 91360, Note_off_c, 1, 89, 0
2, 91360, Note_on_c, 1, 91, 127
2, 91400, Note_on_c, 1, 35, 127
2, 91400, Note_on_c, 1, 45, 127
2, 91400, Note_on_c, 1, 52, 127
2, 91400, Note_on_c, 1, 54, 127
2, 91400, Note_off_c, 1, 66, 0
2, 91400, Note_off_c, 1, 79, 0
2, 91400, Note_off_c, 1, 85, 0
2, 91400, Note_off_c, 1, 88, 0
2, 91400, Note_off_c, 1, 91, 0
2, 91440, Note_off_c, 1, 35, 0
2, 91440, Note_off_c, 1, 45, 0
2, 91440, Note_off_c, 1, 52, 0
2, 91440, Note_off_c, 1, 54, 0
2, 91440, Note_on_c, 1, 89, 127
2, 91440, Note_on_c, 1, 91, 127
2, 91440, Note_on_c, 1, 94, 127
2, 91440, Note_on_c, 1, 97, 127
2, 91440, Note_on_c, 1, 101, 127
2, 91480, Note_off_c, 1, 89, 0
2, 91480, Note_off_c, 1, 91, 0
2, 91480, Note_off_c, 1, 94, 0
2, 91480, Note_off_c, 1, 97, 0
2, 91480, Note_off_c, 1, 101, 0
2, 91520, Note_on_c, 1, 49, 127
2, 91520, Note_on_c, 1, 79, 127
2, 91520, Note_on_c, 1, 82, 127
2, 91520, Note_on_c, 1, 88, 127
2, 91800, Note_off_c, 1, 49, 0
2, 91800, Note_off_c, 1, 79, 0
2, 91800, Note_off_c, 1, 82, 0
2, 91800, Note_off_c, 1, 88, 0
2, 91840, Note_on_c, 1, 28, 127
2, 91840, Note_on_c, 1, 40, 127
2, 91840, Note_on_c, 1, 69, 127
2, 91840, Note_on_c, 1, 73, 127
2, 91840, Note_on_c, 1, 81, 127
2, 92000, Note_off_c, 1, 28, 0
2, 92000, Note_off_c, 1, 40, 0
2, 92000, Note_on_c, 1, 57, 127
2, 92000, Note_on_c, 1, 62, 127
2, 92000, Note_on_c, 1, 66, 127
2, 92000, Note_off_c, 1, 69, 0
2, 92000, Note_off_c, 1, 73, 0
2, 92000, Note_on_c, 1, 78, 127
2, 92000, Note_on_c, 1, 90, 127
2, 92040, Note_on_c, 1, 28, 127
2, 92040, Note_on_c, 1, 40, 127
2, 92040, Note_off_c, 1, 57, 0
2, 92040, Note_off_c, 1, 62, 0
2, 92040, Note_off_c, 1, 66, 0
2, 92040, Note_on_c, 1, 69, 127
2, 92040, Note_on_c, 1, 73, 127
2, 92040, Note_off_c, 1, 78, 0
2, 92040, Note_off_c, 1, 90, 0
2, 92120, Note_off_c, 1, 28, 0
2, 92120, Note_off_c, 1, 40, 0
2, 92120, Note_on_c, 1, 47, 127
2, 92120, Note_on_c, 1, 58, 127
2, 92120, Note_on_c, 1, 64, 127
2, 92120, Note_off_c, 1, 69, 0
2, 92120, Note_off_c, 1, 73, 0
2, 92120, Note_off_c, 1, 81, 0
2, 92160, Note_off_c, 1, 47, 0
2, 92160, Note_off_c, 1, 58, 0
2, 92160, Note_off_c, 1, 64, 0
2, 92200, Note_on_c, 1, 45, 127
2, 92200, Note_on_c, 1, 52, 127
2, 92200, Note_on_c, 1, 83, 127
2, 92200, Note_on_c, 1, 91, 127
2, 92200, Note_on_c, 1, 95, 127
2, 92520, Note_off_c, 1, 45, 0
2, 92520, Note_off_c, 1, 52, 0
2, 92520, Note_off_c, 1, 83, 0
2, 92520, Note_off_c, 1, 91, 0
2, 92520, Note_off_c, 1, 95, 0
2, 92560, Note_on_c, 1, 52, 127
2, 92560, Note_on_c, 1, 64, 127
2, 92560, Note_on_c, 1, 66, 127
2, 92560, Note_on_c, 1, 70, 127
2, 92720, Note_off_c, 1, 52, 0
2, 92720, Note_off_c, 1, 64, 0
2, 92720, Note_off_c, 1, 66, 0
2, 92720, Note_off_c, 1, 70, 0
2, 92760, Note_on_c, 1, 52, 127
2, 92760, Note_on_c, 1, 64, 127
2, 92760, Note_on_c, 1, 66, 127
2, 92760, Note_on_c, 1, 70, 127
2, 92880, Note_off_c, 1, 52, 0
2, 92880, Note_off_c, 1, 64, 0
2, 92880, Note_off_c, 1, 66, 0
2, 92880, Note_off_c, 1, 70, 0
2, 92920, Note_on_c, 1, 52, 127
2, 92920, Note_on_c, 1, 64, 127
2, 92920, Note_on_c, 1, 66, 127
2, 92920, Note_on_c, 1, 70, 127
2, 93240, Note_off_c, 1, 52, 0
2, 93240, Note_off_c, 1, 64, 0
2, 93240, Note_off_c, 1, 66, 0
2, 93240, Note_off_c, 1, 70, 0
2, 93280, Note_on_c, 1, 40, 127
2, 93280, Note_on_c, 1, 52, 127
2, 93280, Note_on_c, 1, 62, 127
2, 93280, Note_on_c, 1, 64, 127
2, 93280, Note_on_c, 1, 68, 127
2, 93280, Note_on_c, 1, 71, 127
2, 93560, Note_off_c, 1, 40, 0
2, 93560, Note_off_c, 1, 52, 0
2, 93560, Note_off_c, 1, 62, 0
2, 93560, Note_off_c, 1, 64, 0
2, 93560, Note_off_c, 1, 68, 0
2, 93560, Note_off_c, 1, 71, 0
2, 93560, Note_on_c, 1, 72, 127
2, 93600, Note_off_c, 1, 72, 0
2, 93640, Note_on_c, 1, 40, 127
2, 93640, Note_on_c, 1, 52, 127
2, 93640, Note_on_c, 1, 62, 127
2, 93640, Note_on_c, 1, 64, 127
2, 93640, Note_on_c, 1, 68, 127
2, 93640, Note_on_c, 1, 71, 127
2, 93920, Note_off_c, 1, 40, 0
2, 93920, Note_off_c, 1, 52, 0
2, 93920, Note_off_c, 1, 62, 0
2, 93920, Note_off_c, 1, 64, 0
2, 93920, Note_off_c, 1, 68, 0
2, 93920, Note_off_c, 1, 71, 0
2, 93960, Note_on_c, 1, 52, 127
2, 93960, Note_on_c, 1, 57, 127
2, 93960, Note_on_c, 1, 62, 127
2, 93960, Note_on_c, 1, 69, 127
2, 94280, Note_off_c, 1, 52, 0
2, 94280, Note_off_c, 1, 57, 0
2, 94280, Note_off_c, 1, 62, 0
2, 94280, Note_on_c, 1, 63, 127
2, 94280, Note_on_c, 1, 73, 127
2, 94280, Note_on_c, 1, 76, 127
2, 94280, Note_on_c, 1, 80, 127
2, 94320, Note_on_c, 1, 52, 127
2, 94320, Note_on_c, 1, 57, 127
2, 94320, Note_on_c, 1, 62, 127
2, 94320, Note_off_c, 1, 63, 0
2, 94320, Note_off_c, 1, 73, 0
2, 94320, Note_off_c, 1, 76, 0
2, 94320, Note_off_c, 1, 80, 0
2, 94640, Note_off_c, 1, 52, 0
2, 94640, Note_off_c, 1, 57, 0
2, 94640, Note_off_c, 1, 62, 0
2, 94680, Note_off_c, 1, 69, 0
2, 94720, Note_on_c, 1, 45, 127
2, 94720, Note_on_c, 1, 52, 127
2, 94720, Note_on_c, 1, 55, 127
2, 94720, Note_on_c, 1, 61, 127
2, 94720, Note_on_c, 1, 64, 127
2, 94720, Note_on_c, 1, 67, 127
2, 94720, Note_on_c, 1, 69, 127
2, 94760, Note_on_c, 1, 38, 127
2, 94760, Note_off_c, 1, 45, 0
2, 94760, Note_on_c, 1, 50, 127
2, 94760, Note_off_c, 1, 52, 0
2, 94760, Note_on_c, 1, 59, 127
2, 94760, Note_off_c, 1, 61, 0
2, 94760, Note_on_c, 1, 62, 127
2, 94760, Note_off_c, 1, 64, 0
2, 94760, Note_off_c, 1, 69, 0
2, 94760, Note_on_c, 1, 71, 127
2, 94760, Note_on_c, 1, 74, 127
2, 94760, Note_on_c, 1, 79, 127
2, 94800, Note_off_c, 1, 38, 0
2, 94800, Note_on_c, 1, 45, 127
2, 94800, Note_off_c, 1, 50, 0
2, 94800, Note_on_c, 1, 52, 127
2, 94800, Note_off_c, 1, 59, 0
2, 94800, Note_on_c, 1, 61, 127
2, 94800, Note_off_c, 1, 62, 0
2, 94800, Note_on_c, 1, 64, 127
2, 94800, Note_on_c, 1, 69, 127
2, 94800, Note_off_c, 1, 71, 0
2, 94800, Note_off_c, 1, 74, 0
2, 94800, Note_off_c, 1, 79, 0
2, 94840, Note_off_c, 1, 52, 0
2, 94840, Note_off_c, 1, 55, 0
2, 94840, Note_off_c, 1, 61, 0
2, 94840, Note_off_c, 1, 64, 0
2, 94840, Note_off_c, 1, 67, 0
2, 94880, Note_on_c, 1, 52, 127
2, 94880, Note_on_c, 1, 55, 127
2, 94880, Note_on_c, 1, 61, 127
2, 94880, Note_on_c, 1, 64, 127
2, 94880, Note_on_c, 1, 67, 127
2, 94920, Note_on_c, 1, 28, 127
2, 94920, Note_on_c, 1, 40, 127
2, 94920, Note_off_c, 1, 45, 0
2, 94920, Note_on_c, 1, 48, 127
2, 94920, Note_off_c, 1, 52, 0
2, 94920, Note_off_c, 1, 55, 0
2, 94920, Note_on_c, 1, 60, 127
2, 94920, Note_off_c, 1, 61, 0
2, 94920, Note_off_c, 1, 64, 0
2, 94920, Note_off_c, 1, 67, 0
2, 94920, Note_off_c, 1, 69, 0
2, 94920, Note_on_c, 1, 72, 127
2, 94920, Note_on_c, 1, 73, 127
2, 94920, Note_on_c, 1, 79, 127
2, 94920, Note_on_c, 1, 84, 127
2, 94960, Note_off_c, 1, 28, 0
2, 94960, Note_off_c, 1, 40, 0
2, 94960, Note_on_c, 1, 45, 127
2, 94960, Note_off_c, 1, 48, 0
2, 94960, Note_on_c, 1, 52, 127
2, 94960, Note_on_c, 1, 55, 127
2, 94960, Note_off_c, 1, 60, 0
2, 94960, Note_on_c, 1, 61, 127
2, 94960, Note_on_c, 1, 64, 127
2, 94960, Note_on_c, 1, 67, 127
2, 94960, Note_on_c, 1, 69, 127
2, 94960, Note_off_c, 1, 72, 0
2, 94960, Note_off_c, 1, 73, 0
2, 94960, Note_off_c, 1, 79, 0
2, 94960, Note_off_c, 1, 84, 0
2, 95000, Note_off_c, 1, 52, 0
2, 95000, Note_off_c, 1, 55, 0
2, 95000, Note_off_c, 1, 61, 0
2, 95000, Note_off_c, 1, 64, 0
2, 95000, Note_off_c, 1, 67, 0
2, 95040, Note_on_c, 1, 52, 127
2, 95040, Note_on_c, 1, 55, 127
2, 95040, Note_on_c, 1, 61, 127
2, 95040, Note_on_c, 1, 64, 127
2, 95040, Note_on_c, 1, 67, 127
2, 95160, Note_off_c, 1, 52, 0
2, 95160, Note_off_c, 1, 55, 0
2, 95160, Note_off_c, 1, 61, 0
2, 95160, Note_off_c, 1, 64, 0
2, 95160, Note_off_c, 1, 67, 0
2, 95200, Note_on_c, 1, 52, 127
2, 95200, Note_on_c, 1, 55, 127
2, 95200, Note_on_c, 1, 61, 127
2, 95200, Note_on_c, 1, 64, 127
2, 95200, Note_on_c, 1, 67, 127
2, 95320, Note_off_c, 1, 52, 0
2, 95320, Note_off_c, 1, 55, 0
2, 95320, Note_off_c, 1, 61, 0
2, 95320, Note_off_c, 1, 64, 0
2, 95320, Note_off_c, 1, 67, 0
2, 95360, Note_off_c, 1, 45, 0
2, 95360, Note_off_c, 1, 69, 0
2, 95400, Note_on_c, 1, 42, 127
2, 95400, Note_on_c, 1, 52, 127
2, 95400, Note_on_c, 1, 69, 127
2, 95400, Note_on_c, 1, 73, 127
2, 95520, Note_off_c, 1, 69, 0
2, 95520, Note_off_c, 1, 73, 0
2, 95560, Note_on_c, 1, 69, 127
2, 95560, Note_on_c, 1, 73, 127
2, 95680, Note_off_c, 1, 42, 0
2, 95680, Note_off_c, 1, 52, 0
2, 95680, Note_off_c, 1, 69, 0
2, 95680, Note_off_c, 1, 73, 0
2, 95720, Note_on_c, 1, 55, 127
2, 95720, Note_on_c, 1, 93, 127
2, 95720, Note_on_c, 1, 96, 127
2, 95760, Note_on_c, 1, 48, 127
2, 95760, Note_off_c, 1, 55, 0
2, 95760, Note_on_c, 1, 76, 127
2, 95760, Note_on_c, 1, 80, 127
2, 95760, Note_on_c, 1, 86, 127
2, 95760, Note_on_c, 1, 88, 127
2, 95760, Note_off_c, 1, 93, 0
2, 95760, Note_off_c, 1, 96, 0
2, 95800, Note_off_c, 1, 48, 0
2, 95800, Note_on_c, 1, 70, 127
2, 95800, Note_off_c, 1, 76, 0
2, 95800, Note_off_c, 1, 80, 0
2, 95800, Note_off_c, 1, 86, 0
2, 95800, Note_off_c, 1, 88, 0
2, 95800, Note_on_c, 1, 90, 127
2, 95800, Note_on_c, 1, 93, 127
2, 95840, Note_on_c, 1, 46, 127
2, 95840, Note_on_c, 1, 56, 127
2, 95840, Note_on_c, 1, 61, 127
2, 95840, Note_on_c, 1, 65, 127
2, 95840, Note_off_c, 1, 90, 0
2, 95840, Note_off_c, 1, 93, 0
2, 95880, Note_off_c, 1, 46, 0
2, 95880, Note_off_c, 1, 56, 0
2, 95880, Note_on_c, 1, 64, 127
2, 95880, Note_off_c, 1, 65, 0
2, 95880, Note_on_c, 1, 69, 127
2, 95880, Note_off_c, 1, 70, 0
2, 95880, Note_on_c, 1, 76, 127
2, 95880, Note_on_c, 1, 85, 127
2, 95880, Note_on_c, 1, 88, 127
2, 95920, Note_on_c, 1, 45, 127
2, 95920, Note_off_c, 1, 61, 0
2, 95920, Note_off_c, 1, 64, 0
2, 95920, Note_off_c, 1, 69, 0
2, 95920, Note_on_c, 1, 71, 127
2, 95920, Note_off_c, 1, 76, 0
2, 95920, Note_on_c, 1, 80, 127
2, 95920, Note_on_c, 1, 83, 127
2, 95920, Note_off_c, 1, 85, 0
2, 95920, Note_off_c, 1, 88, 0
2, 96040, Note_off_c, 1, 45, 0
2, 96040, Note_off_c, 1, 71, 0
2, 96040, Note_off_c, 1, 80, 0
2, 96040, Note_off_c, 1, 83, 0
2, 96080, Note_on_c, 1, 58, 127
2, 96080, Note_on_c, 1, 63, 127
2, 96080, Note_on_c, 1, 87, 127
2, 96080, Note_on_c, 1, 94, 127
2, 96120, Note_off_c, 1, 58, 0
2, 96120, Note_on_c, 1, 62, 127
2, 96120, Note_off_c, 1, 63, 0
2, 96120, Note_on_c, 1, 67, 127
2, 96120, Note_on_c, 1, 71, 127
2, 96120, Note_on_c, 1, 74, 127
2, 96120, Note_on_c, 1, 77, 127
2, 96120, Note_on_c, 1, 83, 127
2, 96120, Note_off_c, 1, 87, 0
2, 96120, Note_off_c, 1, 94, 0
2, 96160, Note_on_c, 1, 34, 127
2, 96160, Note_on_c, 1, 46, 127
2, 96160, Note_off_c, 1, 62, 0
2, 96160, Note_off_c, 1, 67, 0
2, 96160, Note_off_c, 1, 71, 0
2, 96160, Note_off_c, 1, 74, 0
2, 96160, Note_off_c, 1, 77, 0
2, 96160, Note_off_c, 1, 83, 0
2, 96160, Note_on_c, 1, 86, 127
2, 96200, Note_off_c, 1, 34, 0
2, 96200, Note_on_c, 1, 38, 127
2, 96200, Note_on_c, 1, 41, 127
2, 96200, Note_off_c, 1, 46, 0
2, 96200, Note_on_c, 1, 60, 127
2, 96200, Note_on_c, 1, 62, 127
2, 96200, Note_on_c, 1, 65, 127
2, 96200, Note_off_c, 1, 86, 0
2, 96240, Note_off_c, 1, 38, 0
2, 96240, Note_off_c, 1, 41, 0
2, 96240, Note_off_c, 1, 60, 0
2, 96240, Note_off_c, 1, 62, 0
2, 96240, Note_on_c, 1, 64, 127
2, 96240, Note_off_c, 1, 65, 0
2, 96240, Note_on_c, 1, 73, 127
2, 96240, Note_on_c, 1, 79, 127
2, 96240, Note_on_c, 1, 81, 127
2, 96240, Note_on_c, 1, 85, 127
2, 96280, Note_on_c, 1, 46, 127
2, 96280, Note_on_c, 1, 55, 127
2, 96280, Note_on_c, 1, 63, 127
2, 96280, Note_off_c, 1, 64, 0
2, 96280, Note_on_c, 1, 67, 127
2, 96280, Note_off_c, 1, 73, 0
2, 96280, Note_on_c, 1, 75, 127
2, 96280, Note_off_c, 1, 79, 0
2, 96280, Note_off_c, 1, 81, 0
2, 96280, Note_off_c, 1, 85, 0
2, 96320, Note_off_c, 1, 46, 0
2, 96320, Note_off_c, 1, 55, 0
2, 96320, Note_off_c, 1, 63, 0
2, 96320, Note_off_c, 1, 67, 0
2, 96320, Note_off_c, 1, 75, 0
2, 96360, Note_on_c, 1, 74, 127
2, 96360, Note_on_c, 1, 80, 127
2, 96360, Note_on_c, 1, 83, 127
2, 96400, Note_off_c, 1, 74, 0
2, 96400, Note_off_c, 1, 80, 0
2, 96400, Note_off_c, 1, 83, 0
2, 96440, Note_on_c, 1, 45, 127
2, 96440, Note_on_c, 1, 52, 127
2, 96440, Note_on_c, 1, 69, 127
2, 96440, Note_on_c, 1, 78, 127
2, 96480, Note_off_c, 1, 69, 0
2, 96480, Note_off_c, 1, 78, 0
2, 96520, Note_on_c, 1, 76, 127
2, 96560, Note_off_c, 1, 76, 0
2, 96600, Note_off_c, 1, 45, 0
2, 96600, Note_off_c, 1, 52, 0
2, 96600, Note_on_c, 1, 59, 127
2, 96600, Note_on_c, 1, 80, 127
2, 96600, Note_on_c, 1, 83, 127
2, 96600, Note_on_c, 1, 92, 127
2, 96640, Note_on_c, 1, 52, 127
2, 96640, Note_off_c, 1, 59, 0
2, 96640, Note_off_c, 1, 80, 0
2, 96640, Note_off_c, 1, 83, 0
2, 96640, Note_off_c, 1, 92, 0
2, 96680, Note_off_c, 1, 52, 0
2, 96720, Note_on_c, 1, 52, 127
2, 96720, Note_on_c, 1, 92, 127
2, 96760, Note_off_c, 1, 52, 0
2, 96760, Note_off_c, 1, 92, 0
2, 96800, Note_on_c, 1, 62, 127
2, 96800, Note_on_c, 1, 83, 127
2, 96800, Note_on_c, 1, 90, 127
2, 96840, Note_off_c, 1, 90, 0
2, 97000, Note_off_c, 1, 62, 0
2, 97000, Note_on_c, 1, 66, 127
2, 97040, Note_on_c, 1, 62, 127
2, 97040, Note_off_c, 1, 66, 0
2, 97120, Note_off_c, 1, 62, 0
2, 97160, Note_on_c, 1, 61, 127
2, 97160, Note_on_c, 1, 64, 127
2, 97160, Note_on_c, 1, 66, 127
2, 97160, Note_on_c, 1, 73, 127
2, 97160, Note_on_c, 1, 82, 127
2, 97160, Note_off_c, 1, 83, 0
2, 97320, Note_off_c, 1, 66, 0
2, 97360, Note_on_c, 1, 68, 127
2, 97480, Note_off_c, 1, 61, 0
2, 97480, Note_off_c, 1, 64, 0
2, 97480, Note_off_c, 1, 68, 0
2, 97480, Note_off_c, 1, 73, 0
2, 97480, Note_off_c, 1, 82, 0
2, 97520, Note_on_c, 1, 29, 127
2, 97520, Note_on_c, 1, 49, 127
2, 97560, Note_off_c, 1, 29, 0
2, 97560, Note_off_c, 1, 49, 0
2, 97560, Note_on_c, 1, 54, 127
2, 97560, Note_on_c, 1, 78, 127
2, 97560, Note_on_c, 1, 90, 127
2, 97560, Note_on_c, 1, 93, 127
2, 97600, Note_off_c, 1, 54, 0
2, 97600, Note_on_c, 1, 56, 127
2, 97600, Note_on_c, 1, 60, 127
2, 97600, Note_on_c, 1, 66, 127
2, 97600, Note_on_c, 1, 68, 127
2, 97600, Note_on_c, 1, 72, 127
2, 97600, Note_on_c, 1, 80, 127
2, 97600, Note_off_c, 1, 90, 0
2, 97600, Note_off_c, 1, 93, 0
2, 97640, Note_on_c, 1, 26, 127
2, 97640, Note_on_c, 1, 38, 127
2, 97640, Note_on_c, 1, 44, 127
2, 97640, Note_off_c, 1, 60, 0
2, 97640, Note_off_c, 1, 66, 0
2, 97640, Note_on_c, 1, 71, 127
2, 97640, Note_off_c, 1, 72, 0
2, 97640, Note_on_c, 1, 77, 127
2, 97640, Note_off_c, 1, 78, 0
2, 97680, Note_off_c, 1, 26, 0
2, 97680, Note_off_c, 1, 38, 0
2, 97680, Note_off_c, 1, 44, 0
2, 97680, Note_on_c, 1, 49, 127
2, 97680, Note_on_c, 1, 52, 127
2, 97680, Note_on_c, 1, 54, 127
2, 97680, Note_off_c, 1, 56, 0
2, 97680, Note_on_c, 1, 61, 127
2, 97680, Note_off_c, 1, 68, 0
2, 97680, Note_off_c, 1, 71, 0
2, 97680, Note_on_c, 1, 73, 127
2, 97680, Note_off_c, 1, 77, 0
2, 97680, Note_off_c, 1, 80, 0
2, 97800, Note_off_c, 1, 49, 0
2, 97800, Note_off_c, 1, 52, 0
2, 97800, Note_off_c, 1, 54, 0
2, 97800, Note_off_c, 1, 61, 0
2, 97800, Note_off_c, 1, 73, 0
2, 97840, Note_on_c, 1, 38, 127
2, 97840, Note_on_c, 1, 54, 127
2, 97840, Note_on_c, 1, 66, 127
2, 97840, Note_on_c, 1, 70, 127
2, 98000, Note_on_c, 1, 64, 127
2, 98000, Note_off_c, 1, 66, 0
2, 98080, Note_off_c, 1, 64, 0
2, 98160, Note_off_c, 1, 38, 0
2, 98160, Note_off_c, 1, 54, 0
2, 98160, Note_off_c, 1, 70, 0
2, 98200, Note_on_c, 1, 42, 127
2, 98200, Note_on_c, 1, 54, 127
2, 98200, Note_on_c, 1, 58, 127
2, 98200, Note_on_c, 1, 66, 127
2, 98200, Note_on_c, 1, 73, 127
2, 98200, Note_on_c, 1, 82, 127
2, 98480, Note_off_c, 1, 42, 0
2, 98480, Note_off_c, 1, 54, 0
2, 98480, Note_off_c, 1, 58, 0
2, 98480, Note_off_c, 1, 66, 0
2, 98480, Note_off_c, 1, 73, 0
2, 98480, Note_off_c, 1, 82, 0
2, 98560, Note_on_c, 1, 46, 127
2, 98560, Note_on_c, 1, 62, 127
2, 98560, Note_on_c, 1, 70, 127
2, 98560, Note_on_c, 1, 77, 127
2, 98560, Note_on_c, 1, 80, 127
2, 98560, Note_on_c, 1, 82, 127
2, 98680, Note_off_c, 1, 46, 0
2, 98680, Note_off_c, 1, 62, 0
2, 98680, Note_off_c, 1, 70, 0
2, 98680, Note_off_c, 1, 77, 0
2, 98680, Note_off_c, 1, 80, 0
2, 98680, Note_off_c, 1, 82, 0
2, 98720, Note_on_c, 1, 46, 127
2, 98720, Note_on_c, 1, 62, 127
2, 98720, Note_on_c, 1, 70, 127
2, 98720, Note_on_c, 1, 77, 127
2, 98720, Note_on_c, 1, 80, 127
2, 98720, Note_on_c, 1, 82, 127
2, 98880, Note_off_c, 1, 62, 0
2, 98880, Note_off_c, 1, 70, 0
2, 98880, Note_off_c, 1, 77, 0
2, 98880, Note_off_c, 1, 80, 0
2, 98880, Note_off_c, 1, 82, 0
2, 98920, Note_on_c, 1, 62, 127
2, 98920, Note_on_c, 1, 70, 127
2, 98920, Note_on_c, 1, 77, 127
2, 98920, Note_on_c, 1, 80, 127
2, 98920, Note_on_c, 1, 82, 127
2, 99080, Note_off_c, 1, 62, 0
2, 99080, Note_off_c, 1, 70, 0
2, 99080, Note_off_c, 1, 77, 0
2, 99080, Note_off_c, 1, 80, 0
2, 99080, Note_off_c, 1, 82, 0
2, 99120, Note_on_c, 1, 39, 127
2, 99120, Note_off_c, 1, 46, 0
2, 99120, Note_on_c, 1, 51, 127
2, 99120, Note_on_c, 1, 67, 127
2, 99120, Note_on_c, 1, 69, 127
2, 99240, Note_off_c, 1, 39, 0
2, 99240, Note_off_c, 1, 51, 0
2, 99240, Note_off_c, 1, 67, 0
2, 99240, Note_off_c, 1, 69, 0
2, 99280, Note_on_c, 1, 44, 127
2, 99280, Note_on_c, 1, 56, 127
2, 99280, Note_on_c, 1, 75, 127
2, 99280, Note_on_c, 1, 84, 127
2, 99280, Note_on_c, 1, 87, 127
2, 99760, Note_off_c, 1, 75, 0
2, 99760, Note_off_c, 1, 84, 0
2, 99760, Note_off_c, 1, 87, 0
2, 99800, Note_on_c, 1, 75, 127
2, 99800, Note_on_c, 1, 84, 127
2, 99800, Note_on_c, 1, 87, 127
2, 99960, Note_off_c, 1, 75, 0
2, 99960, Note_off_c, 1, 84, 0
2, 99960, Note_off_c, 1, 87, 0
2, 100000, Note_on_c, 1, 71, 127
2, 100000, Note_on_c, 1, 83, 127
2, 100280, Note_off_c, 1, 71, 0
2, 100280, Note_off_c, 1, 83, 0
2, 100320, Note_on_c, 1, 63, 127
2, 100320, Note_on_c, 1, 73, 127
2, 100320, Note_on_c, 1, 75, 127
2, 100360, Note_on_c, 1, 68, 127
2, 100400, Note_off_c, 1, 68, 0
2, 100640, Note_off_c, 1, 63, 0
2, 100640, Note_off_c, 1, 73, 0
2, 100640, Note_off_c, 1, 75, 0
2, 100680, Note_off_c, 1, 44, 0
2, 100680, Note_on_c, 1, 47, 127
2, 100680, Note_off_c, 1, 56, 0
2, 100680, Note_on_c, 1, 59, 127
2, 100680, Note_on_c, 1, 79, 127
2, 100680, Note_on_c, 1, 86, 127
2, 100680, Note_on_c, 1, 91, 127
2, 100800, Note_on_c, 1, 45, 127
2, 100800, Note_off_c, 1, 47, 0
2, 100800, Note_on_c, 1, 57, 127
2, 100800, Note_off_c, 1, 59, 0
2, 100800, Note_on_c, 1, 69, 127
2, 100800, Note_on_c, 1, 73, 127
2, 100800, Note_off_c, 1, 79, 0
2, 100800, Note_off_c, 1, 86, 0
2, 100800, Note_off_c, 1, 91, 0
2, 100840, Note_off_c, 1, 45, 0
2, 100840, Note_off_c, 1, 57, 0
2, 100840, Note_off_c, 1, 69, 0
2, 100840, Note_off_c, 1, 73, 0
2, 100880, Note_on_c, 1, 47, 127
2, 100880, Note_on_c, 1, 59, 127
2, 100880, Note_on_c, 1, 79, 127
2, 100880, Note_on_c, 1, 86, 127
2, 100880, Note_on_c, 1, 91, 127
2, 101000, Note_off_c, 1, 47, 0
2, 101000, Note_off_c, 1, 59, 0
2, 101000, Note_off_c, 1, 79, 0
2, 101000, Note_off_c, 1, 86, 0
2, 101000, Note_off_c, 1, 91, 0
2, 101040, Note_on_c, 1, 47, 127
2, 101040, Note_on_c, 1, 59, 127
2, 101240, Note_on_c, 1, 66, 127
2, 101280, Note_off_c, 1, 66, 0
2, 101360, Note_off_c, 1, 47, 0
2, 101360, Note_off_c, 1, 59, 0
2, 101400, Note_on_c, 1, 39, 127
2, 101400, Note_on_c, 1, 51, 127
2, 101400, Note_on_c, 1, 63, 127
2, 101400, Note_on_c, 1, 68, 127
2, 101400, Note_on_c, 1, 72, 127
2, 101400, Note_on_c, 1, 75, 127
2, 101600, Note_off_c, 1, 39, 0
2, 101600, Note_off_c, 1, 51, 0
2, 101600, Note_on_c, 1, 58, 127
2, 101600, Note_on_c, 1, 60, 127
2, 101600, Note_off_c, 1, 63, 0
2, 101600, Note_on_c, 1, 65, 127
2, 101600, Note_off_c, 1, 68, 0
2, 101640, Note_on_c, 1, 39, 127
2, 101640, Note_on_c, 1, 51, 127
2, 101640, Note_off_c, 1, 58, 0
2, 101640, Note_off_c, 1, 60, 0
2, 101640, Note_on_c, 1, 63, 127
2, 101640, Note_off_c, 1, 65, 0
2, 101640, Note_on_c, 1, 68, 127
2, 101720, Note_off_c, 1, 39, 0
2, 101720, Note_off_c, 1, 68, 0
2, 101720, Note_off_c, 1, 72, 0
2, 101720, Note_off_c, 1, 75, 0
2, 101760, Note_on_c, 1, 39, 127
2, 101760, Note_on_c, 1, 67, 127
2, 101760, Note_on_c, 1, 70, 127
2, 101760, Note_on_c, 1, 75, 127
2, 102040, Note_off_c, 1, 39, 0
2, 102040, Note_on_c, 1, 46, 127
2, 102040, Note_off_c, 1, 51, 0
2, 102040, Note_on_c, 1, 53, 127
2, 102040, Note_on_c, 1, 57, 127
2, 102040, Note_off_c, 1, 63, 0
2, 102040, Note_on_c, 1, 65, 127
2, 102040, Note_off_c, 1, 67, 0
2, 102040, Note_off_c, 1, 70, 0
2, 102080, Note_off_c, 1, 46, 0
2, 102080, Note_off_c, 1, 53, 0
2, 102080, Note_off_c, 1, 57, 0
2, 102080, Note_off_c, 1, 65, 0
2, 102080, Note_off_c, 1, 75, 0
2, 102120, Note_on_c, 1, 47, 127
2, 102120, Note_on_c, 1, 55, 127
2, 102120, Note_on_c, 1, 58, 127
2, 102120, Note_on_c, 1, 73, 127
2, 102160, Note_off_c, 1, 47, 0
2, 102160, Note_on_c, 1, 48, 127
2, 102160, Note_off_c, 1, 55, 0
2, 102160, Note_off_c, 1, 58, 0
2, 102160, Note_on_c, 1, 62, 127
2, 102160, Note_on_c, 1, 64, 127
2, 102160, Note_off_c, 1, 73, 0
2, 102240, Note_on_c, 1, 39, 127
2, 102240, Note_off_c, 1, 48, 0
2, 102240, Note_on_c, 1, 51, 127
2, 102240, Note_off_c, 1, 62, 0
2, 102240, Note_off_c, 1, 64, 0
2, 102240, Note_on_c, 1, 80, 127
2, 102240, Note_on_c, 1, 83, 127
2, 102280, Note_off_c, 1, 39, 0
2, 102280, Note_off_c, 1, 51, 0
2, 102280, Note_on_c, 1, 54, 127
2, 102280, Note_on_c, 1, 56, 127
2, 102280, Note_on_c, 1, 59, 127
2, 102280, Note_on_c, 1, 63, 127
2, 102280, Note_off_c, 1, 80, 0
2, 102280, Note_off_c, 1, 83, 0
2, 102280, Note_on_c, 1, 85, 127
2, 102320, Note_off_c, 1, 54, 0
2, 102320, Note_off_c, 1, 56, 0
2, 102320, Note_off_c, 1, 59, 0
2, 102320, Note_on_c, 1, 60, 127
2, 102320, Note_on_c, 1, 70, 127
2, 102320, Note_on_c, 1, 75, 127
2, 102320, Note_off_c, 1, 85, 0
2, 102320, Note_on_c, 1, 87, 127
2, 102360, Note_on_c, 1, 41, 127
2, 102360, Note_on_c, 1, 44, 127
2, 102360, Note_on_c, 1, 53, 127
2, 102360, Note_off_c, 1, 60, 0
2, 102360, Note_off_c, 1, 63, 0
2, 102360, Note_off_c, 1, 70, 0
2, 102360, Note_off_c, 1, 75, 0
2, 102360, Note_on_c, 1, 77, 127
2, 102360, Note_on_c, 1, 80, 127
2, 102360, Note_on_c, 1, 85, 127
2, 102360, Note_off_c, 1, 87, 0
2, 102360, Note_on_c, 1, 89, 127
2, 102400, Note_off_c, 1, 41, 0
2, 102400, Note_off_c, 1, 44, 0
2, 102400, Note_off_c, 1, 53, 0
2, 102400, Note_off_c, 1, 77, 0
2, 102400, Note_off_c, 1, 80, 0
2, 102400, Note_off_c, 1, 85, 0
2, 102400, Note_off_c, 1, 89, 0
2, 102440, Note_on_c, 1, 55, 127
2, 102440, Note_on_c, 1, 58, 127
2, 102440, Note_on_c, 1, 73, 127
2, 102440, Note_on_c, 1, 79, 127
2, 102440, Note_on_c, 1, 85, 127
2, 102480, Note_on_c, 1, 40, 127
2, 102480, Note_on_c, 1, 52, 127
2, 102480, Note_off_c, 1, 55, 0
2, 102480, Note_off_c, 1, 58, 0
2, 102480, Note_off_c, 1, 73, 0
2, 102480, Note_off_c, 1, 79, 0
2, 102480, Note_on_c, 1, 81, 127
2, 102480, Note_on_c, 1, 84, 127
2, 102480, Note_off_c, 1, 85, 0
2, 102480, Note_on_c, 1, 92, 127
2, 102520, Note_on_c, 1, 35, 127
2, 102520, Note_off_c, 1, 40, 0
2, 102520, Note_off_c, 1, 52, 0
2, 102520, Note_on_c, 1, 59, 127
2, 102520, Note_on_c, 1, 63, 127
2, 102520, Note_on_c, 1, 75, 127
2, 102520, Note_off_c, 1, 81, 0
2, 102520, Note_off_c, 1, 84, 0
2, 102520, Note_off_c, 1, 92, 0
2, 102560, Note_off_c, 1, 35, 0
2, 102560, Note_on_c, 1, 36, 127
2, 102560, Note_on_c, 1, 44, 127
2, 102560, Note_on_c, 1, 55, 127
2, 102560, Note_off_c, 1, 59, 0
2, 102560, Note_on_c, 1, 60, 127
2, 102560, Note_off_c, 1, 63, 0
2, 102560, Note_off_c, 1, 75, 0
2, 102600, Note_on_c, 1, 33, 127
2, 102600, Note_off_c, 1, 36, 0
2, 102600, Note_off_c, 1, 44, 0
2, 102600, Note_on_c, 1, 48, 127
2, 102600, Note_off_c, 1, 55, 0
2, 102640, Note_off_c, 1, 33, 0
2, 102640, Note_on_c, 1, 39, 127
2, 102640, Note_on_c, 1, 42, 127
2, 102640, Note_off_c, 1, 48, 0
2, 102640, Note_on_c, 1, 49, 127
2, 102640, Note_on_c, 1, 52, 127
2, 102640, Note_on_c, 1, 55, 127
2, 102640, Note_off_c, 1, 60, 0
2, 102640, Note_on_c, 1, 61, 127
2, 102680, Note_on_c, 1, 27, 127
2, 102680, Note_off_c, 1, 42, 0
2, 102680, Note_off_c, 1, 49, 0
2, 102680, Note_off_c, 1, 52, 0
2, 102680, Note_off_c, 1, 55, 0
2, 102680, Note_on_c, 1, 57, 127
2, 102680, Note_on_c, 1, 59, 127
2, 102680, Note_off_c, 1, 61, 0
2, 102680, Note_on_c, 1, 63, 127
2, 102680, Note_on_c, 1, 66, 127
2, 102720, Note_off_c, 1, 27, 0
2, 102720, Note_off_c, 1, 39, 0
2, 102720, Note_on_c, 1, 44, 127
2, 102720, Note_off_c, 1, 57, 0
2, 102720, Note_off_c, 1, 59, 0
2, 102720, Note_off_c, 1, 63, 0
2, 102720, Note_off_c, 1, 66, 0
2, 102720, Note_on_c, 1, 100, 127
2, 102760, Note_on_c, 1, 38, 127
2, 102760, Note_off_c, 1, 44, 0
2, 102760, Note_on_c, 1, 47, 127
2, 102760, Note_on_c, 1, 68, 127
2, 102760, Note_on_c, 1, 80, 127
2, 102760, Note_off_c, 1, 100, 0
2, 102800, Note_off_c, 1, 38, 0
2, 102800, Note_off_c, 1, 47, 0
2, 102800, Note_off_c, 1, 68, 0
2, 102800, Note_off_c, 1, 80, 0
2, 102840, Note_on_c, 1, 81, 127
2, 102840, Note_on_c, 1, 87, 127
2, 102840, Note_on_c, 1, 90, 127
2, 102840, Note_on_c, 1, 93, 127
2, 103040, Note_off_c, 1, 81, 0
2, 103040, Note_off_c, 1, 87, 0
2, 103040, Note_off_c, 1, 90, 0
2, 103040, Note_off_c, 1, 93, 0
2, 103080, Note_on_c, 1, 81, 127
2, 103080, Note_on_c, 1, 87, 127
2, 103080, Note_on_c, 1, 90, 127
2, 103080, Note_on_c, 1, 93, 127
2, 103520, Note_off_c, 1, 81, 0
2, 103520, Note_off_c, 1, 87, 0
2, 103520, Note_off_c, 1, 90, 0
2, 103520, Note_off_c, 1, 93, 0
2, 103560, Note_on_c, 1, 57, 127
2, 103560, Note_on_c, 1, 60, 127
2, 103560, Note_on_c, 1, 64, 127
2, 103560, Note_on_c, 1, 76, 127
2, 103560, Note_on_c, 1, 80, 127
2, 103600, Note_off_c, 1, 57, 0
2, 103600, Note_off_c, 1, 60, 0
2, 103600, Note_off_c, 1, 64, 0
2, 103600, Note_on_c, 1, 73, 127
2, 103600, Note_off_c, 1, 76, 0
2, 103600, Note_off_c, 1, 80, 0
2, 103600, Note_on_c, 1, 89, 127
2, 103600, Note_on_c, 1, 91, 127
2, 103600, Note_on_c, 1, 94, 127
2, 103600, Note_on_c, 1, 97, 127
2, 103600, Note_on_c, 1, 101, 127
2, 103640, Note_on_c, 1, 49, 127
2, 103640, Note_on_c, 1, 56, 127
2, 103640, Note_on_c, 1, 59, 127
2, 103640, Note_on_c, 1, 65, 127
2, 103640, Note_off_c, 1, 73, 0
2, 103640, Note_on_c, 1, 87, 127
2, 103640, Note_off_c, 1, 89, 0
2, 103640, Note_off_c, 1, 91, 0
2, 103640, Note_off_c, 1, 94, 0
2, 103640, Note_off_c, 1, 97, 0
2, 103640, Note_off_c, 1, 101, 0
2, 103680, Note_on_c, 1, 42, 127
2, 103680, Note_off_c, 1, 49, 0
2, 103680, Note_on_c, 1, 51, 127
2, 103680, Note_off_c, 1, 56, 0
2, 103680, Note_off_c, 1, 59, 0
2, 103680, Note_on_c, 1, 61, 127
2, 103680, Note_off_c, 1, 65, 0
2, 103680, Note_on_c, 1, 70, 127
2, 103680, Note_off_c, 1, 87, 0
2, 103720, Note_on_c, 1, 31, 127
2, 103720, Note_on_c, 1, 38, 127
2, 103720, Note_off_c, 1, 42, 0
2, 103720, Note_on_c, 1, 43, 127
2, 103720, Note_off_c, 1, 51, 0
2, 103720, Note_off_c, 1, 61, 0
2, 103720, Note_off_c, 1, 70, 0
2, 103720, Note_on_c, 1, 86, 127
2, 103720, Note_on_c, 1, 91, 127
2, 103760, Note_off_c, 1, 31, 0
2, 103760, Note_off_c, 1, 38, 0
2, 103760, Note_off_c, 1, 43, 0
2, 103760, Note_on_c, 1, 46, 127
2, 103760, Note_on_c, 1, 55, 127
2, 103760, Note_on_c, 1, 62, 127
2, 103760, Note_on_c, 1, 65, 127
2, 103760, Note_on_c, 1, 70, 127
2, 103760, Note_off_c, 1, 86, 0
2, 103760, Note_off_c, 1, 91, 0
2, 103800, Note_on_c, 1, 39, 127
2, 103800, Note_off_c, 1, 46, 0
2, 103800, Note_on_c, 1, 51, 127
2, 103800, Note_off_c, 1, 55, 0
2, 103800, Note_off_c, 1, 62, 0
2, 103800, Note_off_c, 1, 65, 0
2, 103800, Note_off_c, 1, 70, 0
2, 103800, Note_on_c, 1, 79, 127
2, 103800, Note_on_c, 1, 82, 127
2, 103800, Note_on_c, 1, 87, 127
2, 103800, Note_on_c, 1, 91, 127
2, 103840, Note_off_c, 1, 39, 0
2, 103840, Note_on_c, 1, 58, 127
2, 103840, Note_on_c, 1, 62, 127
2, 103840, Note_on_c, 1, 74, 127
2, 103840, Note_off_c, 1, 79, 0
2, 103840, Note_on_c, 1, 86, 127
2, 103840, Note_off_c, 1, 87, 0
2, 103840, Note_off_c, 1, 91, 0
2, 103880, Note_off_c, 1, 51, 0
2, 103880, Note_off_c, 1, 58, 0
2, 103880, Note_off_c, 1, 62, 0
2, 103880, Note_off_c, 1, 74, 0
2, 103880, Note_off_c, 1, 82, 0
2, 103880, Note_off_c, 1, 86, 0
2, 103920, Note_on_c, 1, 34, 127
2, 103920, Note_on_c, 1, 41, 127
2, 103920, Note_on_c, 1, 57, 127
2, 103920, Note_on_c, 1, 58, 127
2, 103960, Note_off_c, 1, 34, 0
2, 103960, Note_on_c, 1, 46, 127
2, 103960, Note_on_c, 1, 50, 127
2, 103960, Note_off_c, 1, 57, 0
2, 103960, Note_off_c, 1, 58, 0
2, 103960, Note_on_c, 1, 69, 127
2, 104000, Note_on_c, 1, 36, 127
2, 104000, Note_on_c, 1, 38, 127
2, 104000, Note_off_c, 1, 46, 0
2, 104000, Note_on_c, 1, 48, 127
2, 104000, Note_off_c, 1, 50, 0
2, 104000, Note_on_c, 1, 60, 127
2, 104000, Note_off_c, 1, 69, 0
2, 104000, Note_on_c, 1, 72, 127
2, 104040, Note_off_c, 1, 36, 0
2, 104040, Note_off_c, 1, 38, 0
2, 104040, Note_on_c, 1, 39, 127
2, 104040, Note_off_c, 1, 41, 0
2, 104040, Note_on_c, 1, 46, 127
2, 104040, Note_off_c, 1, 48, 0
2, 104040, Note_on_c, 1, 53, 127
2, 104040, Note_off_c, 1, 60, 0
2, 104040, Note_off_c, 1, 72, 0
2, 104080, Note_off_c, 1, 39, 0
2, 104080, Note_off_c, 1, 46, 0
2, 104080, Note_on_c, 1, 48, 127
2, 104080, Note_on_c, 1, 50, 127
2, 104080, Note_on_c, 1, 59, 127
2, 104200, Note_off_c, 1, 48, 0
2, 104200, Note_off_c, 1, 50, 0
2, 104200, Note_off_c, 1, 53, 0
2, 104200, Note_off_c, 1, 59, 0
2, 104240, Note_on_c, 1, 30, 127
2, 104240, Note_on_c, 1, 42, 127
2, 104240, Note_on_c, 1, 59, 127
2, 104240, Note_on_c, 1, 61, 127
2, 104240, Note_on_c, 1, 66, 127
2, 104240, Note_on_c, 1, 71, 127
2, 104280, Note_off_c, 1, 30, 0
2, 104280, Note_off_c, 1, 42, 0
2, 104280, Note_on_c, 1, 49, 127
2, 104280, Note_on_c, 1, 56, 127
2, 104280, Note_off_c, 1, 59, 0
2, 104280, Note_off_c, 1, 61, 0
2, 104280, Note_off_c, 1, 66, 0
2, 104280, Note_on_c, 1, 68, 127
2, 104280, Note_off_c, 1, 71, 0
2, 104280, Note_on_c, 1, 73, 127
2, 104280, Note_on_c, 1, 76, 127
2, 104280, Note_on_c, 1, 80, 127
2, 104320, Note_off_c, 1, 49, 0
2, 104320, Note_on_c, 1, 50, 127
2, 104320, Note_on_c, 1, 53, 127
2, 104320, Note_off_c, 1, 56, 0
2, 104320, Note_on_c, 1, 58, 127
2, 104320, Note_on_c, 1, 62, 127
2, 104320, Note_off_c, 1, 68, 0
2, 104320, Note_off_c, 1, 73, 0
2, 104320, Note_off_c, 1, 76, 0
2, 104360, Note_off_c, 1, 50, 0
2, 104360, Note_off_c, 1, 53, 0
2, 104360, Note_on_c, 1, 57, 127
2, 104360, Note_off_c, 1, 58, 0
2, 104360, Note_on_c, 1, 69, 127
2, 104360, Note_on_c, 1, 72, 127
2, 104360, Note_off_c, 1, 80, 0
2, 104360, Note_on_c, 1, 84, 127
2, 104400, Note_on_c, 1, 41, 127
2, 104400, Note_off_c, 1, 57, 0
2, 104400, Note_on_c, 1, 58, 127
2, 104400, Note_off_c, 1, 62, 0
2, 104400, Note_on_c, 1, 65, 127
2, 104400, Note_on_c, 1, 67, 127
2, 104400, Note_off_c, 1, 69, 0
2, 104400, Note_off_c, 1, 72, 0
2, 104400, Note_off_c, 1, 84, 0
2, 104440, Note_off_c, 1, 41, 0
2, 104440, Note_off_c, 1, 58, 0
2, 104440, Note_on_c, 1, 61, 127
2, 104440, Note_off_c, 1, 65, 0
2, 104440, Note_off_c, 1, 67, 0
2, 104440, Note_on_c, 1, 70, 127
2, 104440, Note_on_c, 1, 75, 127
2, 104440, Note_on_c, 1, 82, 127
2, 104480, Note_on_c, 1, 51, 127
2, 104480, Note_on_c, 1, 55, 127
2, 104480, Note_on_c, 1, 60, 127
2, 104480, Note_off_c, 1, 61, 0
2, 104480, Note_on_c, 1, 67, 127
2, 104480, Note_off_c, 1, 70, 0
2, 104480, Note_off_c, 1, 82, 0
2, 104520, Note_on_c, 1, 32, 127
2, 104520, Note_on_c, 1, 44, 127
2, 104520, Note_off_c, 1, 51, 0
2, 104520, Note_off_c, 1, 55, 0
2, 104520, Note_off_c, 1, 60, 0
2, 104520, Note_on_c, 1, 62, 127
2, 104520, Note_on_c, 1, 64, 127
2, 104520, Note_off_c, 1, 67, 0
2, 104520, Note_on_c, 1, 71, 127
2, 104520, Note_off_c, 1, 75, 0
2, 104560, Note_off_c, 1, 32, 0
2, 104560, Note_off_c, 1, 44, 0
2, 104560, Note_off_c, 1, 62, 0
2, 104560, Note_off_c, 1, 64, 0
2, 104560, Note_off_c, 1, 71, 0
2, 104600, Note_on_c, 1, 69, 127
2, 104600, Note_on_c, 1, 72, 127
2, 104600, Note_on_c, 1, 75, 127
2, 104600, Note_on_c, 1, 77, 127
2, 104600, Note_on_c, 1, 84, 127
2, 104640, Note_on_c, 1, 37, 127
2, 104640, Note_on_c, 1, 53, 127
2, 104640, Note_off_c, 1, 69, 0
2, 104640, Note_off_c, 1, 72, 0
2, 104640, Note_off_c, 1, 75, 0
2, 104640, Note_off_c, 1, 77, 0
2, 104640, Note_off_c, 1, 84, 0
2, 104640, Note_on_c, 1, 89, 127
2, 104640, Note_on_c, 1, 92, 127
2, 104680, Note_off_c, 1, 37, 0
2, 104680, Note_on_c, 1, 46, 127
2, 104680, Note_on_c, 1, 57, 127
2, 104680, Note_on_c, 1, 62, 127
2, 104680, Note_on_c, 1, 74, 127
2, 104680, Note_on_c, 1, 86, 127
2, 104680, Note_off_c, 1, 89, 0
2, 104680, Note_off_c, 1, 92, 0
2, 104720, Note_on_c, 1, 51, 127
2, 104720, Note_off_c, 1, 53, 0
2, 104720, Note_off_c, 1, 57, 0
2, 104720, Note_off_c, 1, 62, 0
2, 104720, Note_on_c, 1, 66, 127
2, 104720, Note_on_c, 1, 70, 127
2, 104720, Note_off_c, 1, 74, 0
2, 104720, Note_off_c, 1, 86, 0
2, 104760, Note_off_c, 1, 46, 0
2, 104760, Note_off_c, 1, 51, 0
2, 104760, Note_on_c, 1, 56, 127
2, 104760, Note_on_c, 1, 62, 127
2, 104760, Note_off_c, 1, 66, 0
2, 104760, Note_on_c, 1, 68, 127
2, 104760, Note_off_c, 1, 70, 0
2, 104760, Note_on_c, 1, 73, 127
2, 104800, Note_on_c, 1, 46, 127
2, 104800, Note_on_c, 1, 49, 127
2, 104800, Note_on_c, 1, 53, 127
2, 104800, Note_off_c, 1, 56, 0
2, 104800, Note_on_c, 1, 58, 127
2, 104800, Note_off_c, 1, 62, 0
2, 104800, Note_off_c, 1, 68, 0
2, 104800, Note_off_c, 1, 73, 0
2, 104840, Note_off_c, 1, 46, 0
2, 104840, Note_off_c, 1, 49, 0
2, 104840, Note_off_c, 1, 53, 0
2, 104840, Note_on_c, 1, 55, 127
2, 104840, Note_off_c, 1, 58, 0
2, 104840, Note_on_c, 1, 59, 127
2, 104840, Note_on_c, 1, 62, 127
2, 104840, Note_on_c, 1, 65, 127
2, 104840, Note_on_c, 1, 71, 127
2, 104840, Note_on_c, 1, 74, 127
2, 104840, Note_on_c, 1, 76, 127
2, 104880, Note_on_c, 1, 49, 127
2, 104880, Note_off_c, 1, 55, 0
2, 104880, Note_off_c, 1, 62, 0
2, 104880, Note_off_c, 1, 65, 0
2, 104880, Note_on_c, 1, 68, 127
2, 104880, Note_off_c, 1, 71, 0
2, 104880, Note_on_c, 1, 73, 127
2, 104880, Note_off_c, 1, 74, 0
2, 104880, Note_off_c, 1, 76, 0
2, 104880, Note_on_c, 1, 77, 127
2, 104920, Note_off_c, 1, 49, 0
2, 104920, Note_off_c, 1, 59, 0
2, 104920, Note_off_c, 1, 68, 0
2, 104920, Note_off_c, 1, 73, 0
2, 104920, Note_off_c, 1, 77, 0
2, 104960, Note_on_c, 1, 35, 127
2, 104960, Note_on_c, 1, 40, 127
2, 104960, Note_on_c, 1, 47, 127
2, 104960, Note_on_c, 1, 59, 127
2, 104960, Note_on_c, 1, 68, 127
2, 104960, Note_on_c, 1, 71, 127
2, 104960, Note_on_c, 1, 83, 127
2, 104960, Note_on_c, 1, 88, 127
2, 104960, Note_on_c, 1, 92, 127
2, 105000, Note_off_c, 1, 35, 0
2, 105000, Note_off_c, 1, 40, 0
2, 105000, Note_off_c, 1, 47, 0
2, 105000, Note_off_c, 1, 59, 0
2, 105000, Note_off_c, 1, 68, 0
2, 105000, Note_off_c, 1, 71, 0
2, 105000, Note_off_c, 1, 83, 0
2, 105000, Note_on_c, 1, 87, 127
2, 105000, Note_off_c, 1, 88, 0
2, 105000, Note_off_c, 1, 92, 0
2, 105000, Note_on_c, 1, 96, 127
2, 105000, Note_on_c, 1, 103, 127
2, 105040, Note_on_c, 1, 59, 127
2, 105040, Note_on_c, 1, 68, 127
2, 105040, Note_on_c, 1, 71, 127
2, 105040, Note_on_c, 1, 80, 127
2, 105040, Note_off_c, 1, 87, 0
2, 105040, Note_on_c, 1, 92, 127
2, 105040, Note_off_c, 1, 96, 0
2, 105040, Note_off_c, 1, 103, 0
2, 105080, Note_on_c, 1, 43, 127
2, 105080, Note_on_c, 1, 53, 127
2, 105080, Note_off_c, 1, 59, 0
2, 105080, Note_on_c, 1, 62, 127
2, 105080, Note_on_c, 1, 65, 127
2, 105080, Note_off_c, 1, 80, 0
2, 105080, Note_off_c, 1, 92, 0
2, 105120, Note_off_c, 1, 43, 0
2, 105120, Note_off_c, 1, 53, 0
2, 105120, Note_on_c, 1, 59, 127
2, 105120, Note_off_c, 1, 62, 0
2, 105120, Note_off_c, 1, 65, 0
2, 105120, Note_on_c, 1, 83, 127
2, 105120, Note_on_c, 1, 88, 127
2, 105120, Note_on_c, 1, 92, 127
2, 105200, Note_off_c, 1, 59, 0
2, 105200, Note_off_c, 1, 68, 0
2, 105200, Note_off_c, 1, 71, 0
2, 105200, Note_off_c, 1, 83, 0
2, 105200, Note_off_c, 1, 88, 0
2, 105200, Note_off_c, 1, 92, 0
2, 105240, Note_on_c, 1, 59, 127
2, 105240, Note_on_c, 1, 68, 127
2, 105240, Note_on_c, 1, 71, 127
2, 105240, Note_on_c, 1, 80, 127
2, 105240, Note_on_c, 1, 92, 127
2, 105280, Note_off_c, 1, 59, 0
2, 105280, Note_off_c, 1, 68, 0
2, 105280, Note_off_c, 1, 71, 0
2, 105280, Note_off_c, 1, 80, 0
2, 105280, Note_off_c, 1, 92, 0
2, 105320, Note_on_c, 1, 47, 127
2, 105320, Note_on_c, 1, 54, 127
2, 105320, Note_on_c, 1, 57, 127
2, 105320, Note_on_c, 1, 66, 127
2, 105640, Note_off_c, 1, 47, 0
2, 105640, Note_off_c, 1, 54, 0
2, 105640, Note_off_c, 1, 57, 0
2, 105640, Note_off_c, 1, 66, 0
2, 105680, Note_on_c, 1, 47, 127
2, 105680, Note_on_c, 1, 54, 127
2, 105680, Note_on_c, 1, 57, 127
2, 105680, Note_on_c, 1, 66, 127
2, 105960, Note_off_c, 1, 47, 0
2, 105960, Note_off_c, 1, 54, 0
2, 105960, Note_off_c, 1, 57, 0
2, 105960, Note_on_c, 1, 63, 127
2, 105960, Note_off_c, 1, 66, 0
2, 106000, Note_off_c, 1, 63, 0
2, 106040, Note_on_c, 1, 51, 127
2, 106040, Note_on_c, 1, 57, 127
2, 106040, Note_on_c, 1, 59, 127
2, 106040, Note_on_c, 1, 66, 127
2, 106160, Note_off_c, 1, 66, 0
2, 106200, Note_off_c, 1, 51, 0
2, 106200, Note_on_c, 1, 52, 127
2, 106200, Note_on_c, 1, 55, 127
2, 106200, Note_off_c, 1, 57, 0
2, 106200, Note_off_c, 1, 59, 0
2, 106200, Note_on_c, 1, 60, 127
2, 106200, Note_on_c, 1, 64, 127
2, 106200, Note_on_c, 1, 67, 127
2, 106200, Note_on_c, 1, 72, 127
2, 106200, Note_on_c, 1, 79, 127
2, 106240, Note_on_c, 1, 50, 127
2, 106240, Note_off_c, 1, 52, 0
2, 106240, Note_off_c, 1, 55, 0
2, 106240, Note_off_c, 1, 60, 0
2, 106240, Note_on_c, 1, 63, 127
2, 106240, Note_off_c, 1, 64, 0
2, 106240, Note_on_c, 1, 65, 127
2, 106240, Note_off_c, 1, 72, 0
2, 106240, Note_off_c, 1, 79, 0
2, 106280, Note_off_c, 1, 50, 0
2, 106280, Note_on_c, 1, 52, 127
2, 106280, Note_on_c, 1, 55, 127
2, 106280, Note_on_c, 1, 60, 127
2, 106280, Note_off_c, 1, 63, 0
2, 106280, Note_on_c, 1, 64, 127
2, 106280, Note_off_c, 1, 65, 0
2, 106280, Note_on_c, 1, 72, 127
2, 106280, Note_on_c, 1, 79, 127
2, 106360, Note_off_c, 1, 52, 0
2, 106360, Note_off_c, 1, 55, 0
2, 106360, Note_off_c, 1, 60, 0
2, 106360, Note_off_c, 1, 64, 0
2, 106360, Note_off_c, 1, 67, 0
2, 106360, Note_off_c, 1, 72, 0
2, 106360, Note_off_c, 1, 79, 0
2, 106400, Note_on_c, 1, 40, 127
2, 106400, Note_on_c, 1, 52, 127
2, 106400, Note_on_c, 1, 68, 127
2, 106400, Note_on_c, 1, 71, 127
2, 106400, Note_on_c, 1, 76, 127
2, 106400, Note_on_c, 1, 80, 127
2, 106880, Note_off_c, 1, 40, 0
2, 106880, Note_on_c, 1, 47, 127
2, 106880, Note_off_c, 1, 52, 0
2, 106880, Note_off_c, 1, 68, 0
2, 106880, Note_off_c, 1, 76, 0
2, 106880, Note_off_c, 1, 80, 0
2, 106880, Note_on_c, 1, 83, 127
2, 106920, Note_off_c, 1, 47, 0
2, 106920, Note_on_c, 1, 48, 127
2, 106920, Note_on_c, 1, 53, 127
2, 106920, Note_on_c, 1, 63, 127
2, 106920, Note_off_c, 1, 71, 0
2, 106920, Note_off_c, 1, 83, 0
2, 106920, Note_on_c, 1, 84, 127
2, 107040, Note_off_c, 1, 84, 0
2, 107080, Note_off_c, 1, 48, 0
2, 107080, Note_off_c, 1, 53, 0
2, 107080, Note_off_c, 1, 63, 0
2, 107080, Note_on_c, 1, 65, 127
2, 107080, Note_on_c, 1, 78, 127
2, 107080, Note_on_c, 1, 83, 127
2, 107080, Note_on_c, 1, 87, 127
2, 107200, Note_off_c, 1, 65, 0
2, 107200, Note_off_c, 1, 78, 0
2, 107200, Note_off_c, 1, 83, 0
2, 107200, Note_off_c, 1, 87, 0
2, 107240, Note_on_c, 1, 65, 127
2, 107240, Note_on_c, 1, 78, 127
2, 107240, Note_on_c, 1, 83, 127
2, 107240, Note_on_c, 1, 87, 127
2, 107400, Note_off_c, 1, 65, 0
2, 107400, Note_off_c, 1, 78, 0
2, 107400, Note_off_c, 1, 83, 0
2, 107400, Note_off_c, 1, 87, 0
2, 107480, Note_on_c, 1, 71, 127
2, 107480, Note_on_c, 1, 76, 127
2, 107480, Note_on_c, 1, 80, 127
2, 107480, Note_on_c, 1, 83, 127
2, 107760, Note_off_c, 1, 71, 0
2, 107760, Note_off_c, 1, 76, 0
2, 107760, Note_off_c, 1, 80, 0
2, 107760, Note_off_c, 1, 83, 0
2, 107840, Note_on_c, 1, 57, 127
2, 107840, Note_on_c, 1, 62, 127
2, 107840, Note_on_c, 1, 65, 127
2, 107840, Note_on_c, 1, 69, 127
2, 107840, Note_on_c, 1, 74, 127
2, 107840, Note_on_c, 1, 77, 127
2, 107840, Note_on_c, 1, 81, 127
2, 108040, Note_off_c, 1, 69, 0
2, 108040, Note_off_c, 1, 74, 0
2, 108040, Note_off_c, 1, 77, 0
2, 108040, Note_off_c, 1, 81, 0
2, 108080, Note_on_c, 1, 43, 127
2, 108080, Note_on_c, 1, 56, 127
2, 108080, Note_off_c, 1, 57, 0
2, 108080, Note_off_c, 1, 62, 0
2, 108080, Note_off_c, 1, 65, 0
2, 108080, Note_on_c, 1, 89, 127
2, 108080, Note_on_c, 1, 94, 127
2, 108120, Note_off_c, 1, 43, 0
2, 108120, Note_off_c, 1, 56, 0
2, 108120, Note_off_c, 1, 89, 0
2, 108120, Note_off_c, 1, 94, 0
2, 108160, Note_on_c, 1, 53, 127
2, 108160, Note_on_c, 1, 57, 127
2, 108160, Note_on_c, 1, 62, 127
2, 108160, Note_on_c, 1, 69, 127
2, 108160, Note_on_c, 1, 81, 127
2, 108440, Note_off_c, 1, 53, 0
2, 108440, Note_off_c, 1, 57, 0
2, 108440, Note_off_c, 1, 62, 0
2, 108440, Note_off_c, 1, 69, 0
2, 108440, Note_off_c, 1, 81, 0
2, 108520, Note_on_c, 1, 53, 127
2, 108520, Note_on_c, 1, 57, 127
2, 108520, Note_on_c, 1, 62, 127
2, 108520, Note_on_c, 1, 69, 127
2, 108520, Note_on_c, 1, 81, 127
2, 109000, Note_off_c, 1, 53, 0
2, 109000, Note_off_c, 1, 57, 0
2, 109000, Note_off_c, 1, 62, 0
2, 109000, Note_off_c, 1, 69, 0
2, 109000, Note_on_c, 1, 72, 127
2, 109000, Note_on_c, 1, 84, 127
2, 109040, Note_on_c, 1, 53, 127
2, 109040, Note_on_c, 1, 57, 127
2, 109040, Note_on_c, 1, 62, 127
2, 109040, Note_on_c, 1, 69, 127
2, 109040, Note_off_c, 1, 72, 0
2, 109040, Note_off_c, 1, 84, 0
2, 109160, Note_off_c, 1, 53, 0
2, 109160, Note_off_c, 1, 62, 0
2, 109160, Note_off_c, 1, 81, 0
2, 109200, Note_off_c, 1, 57, 0
2, 109200, Note_off_c, 1, 69, 0
2, 109280, Note_on_c, 1, 38, 127
2, 109280, Note_on_c, 1, 45, 127
2, 109280, Note_on_c, 1, 50, 127
2, 109280, Note_on_c, 1, 62, 127
2, 109280, Note_on_c, 1, 69, 127
2, 109280, Note_on_c, 1, 74, 127
2, 109560, Note_off_c, 1, 38, 0
2, 109560, Note_off_c, 1, 45, 0
2, 109560, Note_off_c, 1, 50, 0
2, 109560, Note_off_c, 1, 62, 0
2, 109560, Note_off_c, 1, 69, 0
2, 109560, Note_off_c, 1, 74, 0
2, 109600, Note_on_c, 1, 45, 127
2, 109600, Note_on_c, 1, 54, 127
2, 109600, Note_on_c, 1, 61, 127
2, 109600, Note_on_c, 1, 64, 127
2, 109600, Note_on_c, 1, 73, 127
2, 109920, Note_off_c, 1, 45, 0
2, 109920, Note_off_c, 1, 54, 0
2, 109920, Note_off_c, 1, 61, 0
2, 109920, Note_off_c, 1, 64, 0
2, 109920, Note_off_c, 1, 73, 0
2, 109960, Note_on_c, 1, 36, 127
2, 109960, Note_on_c, 1, 39, 127
2, 109960, Note_on_c, 1, 42, 127
2, 109960, Note_on_c, 1, 48, 127
2, 110000, Note_off_c, 1, 36, 0
2, 110000, Note_off_c, 1, 39, 0
2, 110000, Note_off_c, 1, 42, 0
2, 110000, Note_on_c, 1, 47, 127
2, 110000, Note_off_c, 1, 48, 0
2, 110000, Note_on_c, 1, 67, 127
2, 110000, Note_on_c, 1, 73, 127
2, 110000, Note_on_c, 1, 75, 127
2, 110040, Note_on_c, 1, 45, 127
2, 110040, Note_off_c, 1, 47, 0
2, 110040, Note_on_c, 1, 49, 127
2, 110040, Note_on_c, 1, 57, 127
2, 110040, Note_on_c, 1, 64, 127
2, 110040, Note_off_c, 1, 67, 0
2, 110040, Note_on_c, 1, 69, 127
2, 110040, Note_off_c, 1, 75, 0
2, 110080, Note_on_c, 1, 34, 127
2, 110080, Note_on_c, 1, 44, 127
2, 110080, Note_off_c, 1, 45, 0
2, 110080, Note_off_c, 1, 49, 0
2, 110080, Note_off_c, 1, 57, 0
2, 110080, Note_off_c, 1, 64, 0
2, 110080, Note_off_c, 1, 69, 0
2, 110080, Note_off_c, 1, 73, 0
2, 110080, Note_on_c, 1, 86, 127
2, 110080, Note_on_c, 1, 87, 127
2, 110120, Note_off_c, 1, 34, 0
2, 110120, Note_off_c, 1, 44, 0
2, 110120, Note_on_c, 1, 58, 127
2, 110120, Note_on_c, 1, 62, 127
2, 110120, Note_on_c, 1, 65, 127
2, 110120, Note_on_c, 1, 68, 127
2, 110120, Note_on_c, 1, 70, 127
2, 110120, Note_off_c, 1, 86, 0
2, 110120, Note_off_c, 1, 87, 0
2, 110120, Note_on_c, 1, 95, 127
2, 110160, Note_on_c, 1, 47, 127
2, 110160, Note_on_c, 1, 53, 127
2, 110160, Note_off_c, 1, 58, 0
2, 110160, Note_off_c, 1, 62, 0
2, 110160, Note_on_c, 1, 64, 127
2, 110160, Note_off_c, 1, 65, 0
2, 110160, Note_off_c, 1, 70, 0
2, 110160, Note_on_c, 1, 76, 127
2, 110160, Note_off_c, 1, 95, 0
2, 110200, Note_on_c, 1, 28, 127
2, 110200, Note_off_c, 1, 53, 0
2, 110200, Note_off_c, 1, 64, 0
2, 110200, Note_off_c, 1, 68, 0
2, 110200, Note_off_c, 1, 76, 0
2, 110240, Note_off_c, 1, 28, 0
2, 110240, Note_off_c, 1, 47, 0
2, 110240, Note_on_c, 1, 62, 127
2, 110240, Note_on_c, 1, 66, 127
2, 110240, Note_on_c, 1, 68, 127
2, 110240, Note_on_c, 1, 71, 127
2, 110240, Note_on_c, 1, 78, 127
2, 110240, Note_on_c, 1, 80, 127
2, 110280, Note_off_c, 1, 62, 0
2, 110280, Note_off_c, 1, 66, 0
2, 110280, Note_off_c, 1, 68, 0
2, 110280, Note_off_c, 1, 71, 0
2, 110280, Note_off_c, 1, 78, 0
2, 110280, Note_off_c, 1, 80, 0
2, 110320, Note_on_c, 1, 37, 127
2, 110320, Note_on_c, 1, 49, 127
2, 110320, Note_on_c, 1, 51, 127
2, 110320, Note_on_c, 1, 63, 127
2, 110360, Note_on_c, 1, 44, 127
2, 110360, Note_off_c, 1, 49, 0
2, 110360, Note_on_c, 1, 60, 127
2, 110360, Note_off_c, 1, 63, 0
2, 110440, Note_off_c, 1, 37, 0
2, 110440, Note_off_c, 1, 44, 0
2, 110440, Note_off_c, 1, 51, 0
2, 110440, Note_off_c, 1, 60, 0
2, 110440, Note_on_c, 1, 86, 127
2, 110440, Note_on_c, 1, 92, 127
2, 110440, Note_on_c, 1, 95, 127
2, 110440, Note_on_c, 1, 98, 127
2, 110480, Note_on_c, 1, 58, 127
2, 110480, Note_on_c, 1, 64, 127
2, 110480, Note_on_c, 1, 79, 127
2, 110480, Note_on_c, 1, 81, 127
2, 110480, Note_off_c, 1, 86, 0
2, 110480, Note_off_c, 1, 92, 0
2, 110480, Note_off_c, 1, 95, 0
2, 110480, Note_off_c, 1, 98, 0
2, 110520, Note_on_c, 1, 48, 127
2, 110520, Note_on_c, 1, 51, 127
2, 110520, Note_on_c, 1, 55, 127
2, 110520, Note_on_c, 1, 57, 127
2, 110520, Note_off_c, 1, 58, 0
2, 110520, Note_off_c, 1, 64, 0
2, 110520, Note_on_c, 1, 67, 127
2, 110520, Note_off_c, 1, 81, 0
2, 110560, Note_off_c, 1, 48, 0
2, 110560, Note_off_c, 1, 51, 0
2, 110560, Note_off_c, 1, 55, 0
2, 110560, Note_off_c, 1, 57, 0
2, 110560, Note_on_c, 1, 58, 127
2, 110560, Note_on_c, 1, 64, 127
2, 110560, Note_off_c, 1, 67, 0
2, 110560, Note_on_c, 1, 81, 127
2, 110600, Note_on_c, 1, 48, 127
2, 110600, Note_off_c, 1, 58, 0
2, 110600, Note_off_c, 1, 64, 0
2, 110600, Note_off_c, 1, 79, 0
2, 110600, Note_off_c, 1, 81, 0
2, 110600, Note_on_c, 1, 82, 127
2, 110600, Note_on_c, 1, 86, 127
2, 110600, Note_on_c, 1, 94, 127
2, 110640, Note_off_c, 1, 48, 0
2, 110640, Note_off_c, 1, 82, 0
2, 110640, Note_off_c, 1, 86, 0
2, 110640, Note_off_c, 1, 94, 0
2, 110680, Note_on_c, 1, 39, 127
2, 110680, Note_on_c, 1, 51, 127
2, 110680, Note_on_c, 1, 58, 127
2, 110680, Note_on_c, 1, 61, 127
2, 110680, Note_on_c, 1, 69, 127
2, 111320, Note_off_c, 1, 39, 0
2, 111320, Note_off_c, 1, 51, 0
2, 111320, Note_off_c, 1, 58, 0
2, 111320, Note_off_c, 1, 61, 0
2, 111320, Note_off_c, 1, 69, 0
2, 111360, Note_on_c, 1, 39, 127
2, 111360, Note_on_c, 1, 51, 127
2, 111360, Note_on_c, 1, 58, 127
2, 111360, Note_on_c, 1, 61, 127
2, 111360, Note_on_c, 1, 69, 127
2, 111720, Note_off_c, 1, 39, 0
2, 111720, Note_off_c, 1, 51, 0
2, 111720, Note_off_c, 1, 58, 0
2, 111720, Note_off_c, 1, 61, 0
2, 111720, Note_off_c, 1, 69, 0
2, 111760, Note_on_c, 1, 39, 127
2, 111760, Note_on_c, 1, 51, 127
2, 111760, Note_on_c, 1, 58, 127
2, 111760, Note_on_c, 1, 61, 127
2, 111760, Note_on_c, 1, 69, 127
2, 112760, Note_off_c, 1, 39, 0
2, 112760, Note_off_c, 1, 51, 0
2, 112760, Note_off_c, 1, 58, 0
2, 112760, Note_off_c, 1, 61, 0
2, 112760, Note_on_c, 1, 65, 127
2, 112760, Note_on_c, 1, 71, 127
2, 112800, Note_on_c, 1, 39, 127
2, 112800, Note_on_c, 1, 51, 127
2, 112800, Note_on_c, 1, 58, 127
2, 112800, Note_on_c, 1, 61, 127
2, 112800, Note_off_c, 1, 65, 0
2, 112800, Note_off_c, 1, 71, 0
2, 113520, Note_off_c, 1, 39, 0
2, 113520, Note_off_c, 1, 51, 0
2, 113520, Note_off_c, 1, 58, 0
2, 113520, Note_off_c, 1, 61, 0
2, 113520, Note_off_c, 1, 69, 0
2, 113560, Note_on_c, 1, 39, 127
2, 113560, Note_on_c, 1, 51, 127
2, 113560, Note_on_c, 1, 58, 127
2, 113560, Note_on_c, 1, 61, 127
2, 113560, Note_on_c, 1, 69, 127
2, 113840, Note_off_c, 1, 39, 0
2, 113840, Note_off_c, 1, 51, 0
2, 113840, Note_off_c, 1, 58, 0
2, 113840, Note_off_c, 1, 61, 0
2, 113840, Note_off_c, 1, 69, 0
2, 113880, Note_on_c, 1, 63, 127
2, 113880, Note_on_c, 1, 66, 127
2, 113880, Note_on_c, 1, 82, 127
2, 113880, Note_on_c, 1, 87, 127
2, 113880, Note_on_c, 1, 90, 127
2, 114200, Note_off_c, 1, 63, 0
2, 114200, Note_off_c, 1, 66, 0
2, 114240, Note_on_c, 1, 63, 127
2, 114240, Note_on_c, 1, 66, 127
2, 114520, Note_off_c, 1, 63, 0
2, 114520, Note_off_c, 1, 66, 0
2, 114560, Note_off_c, 1, 82, 0
2, 114560, Note_off_c, 1, 87, 0
2, 114560, Note_off_c, 1, 90, 0
2, 114600, Note_on_c, 1, 58, 127
2, 114600, Note_on_c, 1, 63, 127
2, 114600, Note_on_c, 1, 66, 127
2, 114600, Note_on_c, 1, 81, 127
2, 114880, Note_off_c, 1, 81, 0
2, 114920, Note_on_c, 1, 81, 127
2, 115040, Note_off_c, 1, 81, 0
2, 115120, Note_on_c, 1, 78, 127
2, 115160, Note_off_c, 1, 78, 0
2, 115240, Note_off_c, 1, 58, 0
2, 115240, Note_off_c, 1, 63, 0
2, 115240, Note_off_c, 1, 66, 0
2, 115280, Note_on_c, 1, 58, 127
2, 115280, Note_on_c, 1, 63, 127
2, 115280, Note_on_c, 1, 66, 127
2, 115280, Note_on_c, 1, 78, 127
2, 115640, Note_off_c, 1, 58, 0
2, 115640, Note_off_c, 1, 63, 0
2, 115640, Note_off_c, 1, 66, 0
2, 115640, Note_off_c, 1, 78, 0
2, 115680, Note_on_c, 1, 58, 127
2, 115680, Note_on_c, 1, 63, 127
2, 115680, Note_on_c, 1, 66, 127
2, 115680, Note_on_c, 1, 78, 127
2, 115960, Note_off_c, 1, 58, 0
2, 115960, Note_off_c, 1, 63, 0
2, 115960, Note_off_c, 1, 66, 0
2, 115960, Note_off_c, 1, 78, 0
2, 116000, Note_on_c, 1, 47, 127
2, 116000, Note_on_c, 1, 75, 127
2, 116280, Note_off_c, 1, 47, 0
2, 116360, Note_on_c, 1, 51, 127
2, 116360, Note_on_c, 1, 60, 127
2, 116360, Note_on_c, 1, 68, 127
2, 116360, Note_on_c, 1, 77, 127
2, 116480, Note_off_c, 1, 77, 0
2, 116520, Note_on_c, 1, 79, 127
2, 116560, Note_on_c, 1, 77, 127
2, 116560, Note_off_c, 1, 79, 0
2, 116600, Note_off_c, 1, 77, 0
2, 116600, Note_on_c, 1, 79, 127
2, 116640, Note_off_c, 1, 51, 0
2, 116640, Note_off_c, 1, 60, 0
2, 116640, Note_off_c, 1, 68, 0
2, 116640, Note_off_c, 1, 79, 0
2, 116720, Note_on_c, 1, 51, 127
2, 116720, Note_on_c, 1, 60, 127
2, 116720, Note_on_c, 1, 68, 127
2, 116720, Note_on_c, 1, 77, 127
2, 117000, Note_off_c, 1, 51, 0
2, 117000, Note_off_c, 1, 60, 0
2, 117000, Note_off_c, 1, 68, 0
2, 117000, Note_off_c, 1, 77, 0
2, 117040, Note_on_c, 1, 49, 127
2, 117040, Note_on_c, 1, 70, 127
2, 117040, Note_off_c, 1, 75, 0
2, 117040, Note_on_c, 1, 78, 127
2, 117040, Note_on_c, 1, 82, 127
2, 117080, Note_on_c, 1, 43, 127
2, 117080, Note_off_c, 1, 49, 0
2, 117080, Note_on_c, 1, 73, 127
2, 117080, Note_on_c, 1, 76, 127
2, 117080, Note_off_c, 1, 78, 0
2, 117120, Note_off_c, 1, 43, 0
2, 117120, Note_on_c, 1, 49, 127
2, 117120, Note_on_c, 1, 55, 127
2, 117120, Note_on_c, 1, 68, 127
2, 117120, Note_off_c, 1, 70, 0
2, 117120, Note_off_c, 1, 82, 0
2, 117160, Note_off_c, 1, 49, 0
2, 117160, Note_off_c, 1, 68, 0
2, 117160, Note_on_c, 1, 69, 127
2, 117160, Note_off_c, 1, 73, 0
2, 117160, Note_on_c, 1, 75, 127
2, 117160, Note_off_c, 1, 76, 0
2, 117160, Note_on_c, 1, 77, 127
2, 117160, Note_on_c, 1, 81, 127
2, 117200, Note_on_c, 1, 49, 127
2, 117200, Note_off_c, 1, 55, 0
2, 117200, Note_off_c, 1, 69, 0
2, 117200, Note_on_c, 1, 70, 127
2, 117200, Note_off_c, 1, 75, 0
2, 117200, Note_off_c, 1, 77, 0
2, 117200, Note_on_c, 1, 78, 127
2, 117200, Note_off_c, 1, 81, 0
2, 117200, Note_on_c, 1, 82, 127
2, 117240, Note_on_c, 1, 32, 127
2, 117240, Note_off_c, 1, 49, 0
2, 117240, Note_on_c, 1, 52, 127
2, 117240, Note_on_c, 1, 55, 127
2, 117240, Note_on_c, 1, 58, 127
2, 117240, Note_off_c, 1, 70, 0
2, 117240, Note_off_c, 1, 78, 0
2, 117240, Note_off_c, 1, 82, 0
2, 117280, Note_off_c, 1, 32, 0
2, 117280, Note_on_c, 1, 48, 127
2, 117280, Note_off_c, 1, 52, 0
2, 117280, Note_off_c, 1, 55, 0
2, 117280, Note_off_c, 1, 58, 0
2, 117280, Note_on_c, 1, 60, 127
2, 117280, Note_on_c, 1, 76, 127
2, 117280, Note_on_c, 1, 78, 127
2, 117280, Note_on_c, 1, 81, 127
2, 117280, Note_on_c, 1, 88, 127
2, 117320, Note_off_c, 1, 48, 0
2, 117320, Note_off_c, 1, 60, 0
2, 117320, Note_on_c, 1, 75, 127
2, 117320, Note_off_c, 1, 76, 0
2, 117320, Note_off_c, 1, 78, 0
2, 117320, Note_off_c, 1, 81, 0
2, 117320, Note_off_c, 1, 88, 0
2, 117360, Note_off_c, 1, 75, 0
2, 117400, Note_on_c, 1, 44, 127
2, 117400, Note_on_c, 1, 72, 127
2, 117400, Note_on_c, 1, 77, 127
2, 117560, Note_off_c, 1, 72, 0
2, 117600, Note_off_c, 1, 44, 0
2, 117600, Note_off_c, 1, 77, 0
2, 117640, Note_on_c, 1, 37, 127
2, 117640, Note_on_c, 1, 43, 127
2, 117640, Note_on_c, 1, 61, 127
2, 117640, Note_on_c, 1, 65, 127
2, 117760, Note_off_c, 1, 37, 0
2, 117760, Note_off_c, 1, 43, 0
2, 117760, Note_off_c, 1, 61, 0
2, 117760, Note_off_c, 1, 65, 0
2, 117760, Note_on_c, 1, 78, 127
2, 117800, Note_on_c, 1, 37, 127
2, 117800, Note_on_c, 1, 44, 127
2, 117800, Note_on_c, 1, 68, 127
2, 118120, Note_off_c, 1, 37, 0
2, 118120, Note_off_c, 1, 44, 0
2, 118120, Note_off_c, 1, 68, 0
2, 118120, Note_off_c, 1, 78, 0
2, 118160, Note_on_c, 1, 37, 127
2, 118160, Note_on_c, 1, 49, 127
2, 118160, Note_on_c, 1, 75, 127
2, 118440, Note_off_c, 1, 37, 0
2, 118440, Note_off_c, 1, 49, 0
2, 118440, Note_off_c, 1, 75, 0
2, 118440, Note_on_c, 1, 78, 127
2, 118480, Note_on_c, 1, 55, 127
2, 118480, Note_on_c, 1, 57, 127
2, 118480, Note_on_c, 1, 59, 127
2, 118480, Note_on_c, 1, 62, 127
2, 118480, Note_on_c, 1, 69, 127
2, 118480, Note_off_c, 1, 78, 0
2, 118520, Note_on_c, 1, 37, 127
2, 118520, Note_on_c, 1, 49, 127
2, 118520, Note_on_c, 1, 52, 127
2, 118520, Note_off_c, 1, 55, 0
2, 118520, Note_off_c, 1, 57, 0
2, 118520, Note_off_c, 1, 59, 0
2, 118520, Note_off_c, 1, 62, 0
2, 118520, Note_on_c, 1, 67, 127
2, 118520, Note_off_c, 1, 69, 0
2, 118560, Note_on_c, 1, 35, 127
2, 118560, Note_off_c, 1, 37, 0
2, 118560, Note_off_c, 1, 49, 0
2, 118560, Note_off_c, 1, 52, 0
2, 118560, Note_on_c, 1, 54, 127
2, 118560, Note_on_c, 1, 59, 127
2, 118560, Note_on_c, 1, 64, 127
2, 118560, Note_on_c, 1, 66, 127
2, 118560, Note_off_c, 1, 67, 0
2, 118560, Note_on_c, 1, 73, 127
2, 118600, Note_off_c, 1, 35, 0
2, 118600, Note_on_c, 1, 37, 127
2, 118600, Note_on_c, 1, 49, 127
2, 118600, Note_on_c, 1, 52, 127
2, 118600, Note_off_c, 1, 54, 0
2, 118600, Note_off_c, 1, 59, 0
2, 118600, Note_off_c, 1, 64, 0
2, 118600, Note_off_c, 1, 66, 0
2, 118600, Note_on_c, 1, 67, 127
2, 118600, Note_off_c, 1, 73, 0
2, 118640, Note_off_c, 1, 37, 0
2, 118640, Note_on_c, 1, 39, 127
2, 118640, Note_on_c, 1, 41, 127
2, 118640, Note_on_c, 1, 44, 127
2, 118640, Note_off_c, 1, 49, 0
2, 118640, Note_on_c, 1, 51, 127
2, 118640, Note_off_c, 1, 52, 0
2, 118640, Note_on_c, 1, 65, 127
2, 118640, Note_off_c, 1, 67, 0
2, 118640, Note_on_c, 1, 68, 127
2, 118640, Note_on_c, 1, 75, 127
2, 118680, Note_off_c, 1, 39, 0
2, 118680, Note_off_c, 1, 41, 0
2, 118680, Note_off_c, 1, 44, 0
2, 118680, Note_on_c, 1, 50, 127
2, 118680, Note_on_c, 1, 56, 127
2, 118680, Note_off_c, 1, 65, 0
2, 118680, Note_off_c, 1, 68, 0
2, 118680, Note_off_c, 1, 75, 0
2, 118720, Note_off_c, 1, 50, 0
2, 118720, Note_off_c, 1, 51, 0
2, 118720, Note_on_c, 1, 54, 127
2, 118720, Note_on_c, 1, 61, 127
2, 118720, Note_on_c, 1, 66, 127
2, 118760, Note_on_c, 1, 42, 127
2, 118760, Note_on_c, 1, 49, 127
2, 118760, Note_off_c, 1, 54, 0
2, 118760, Note_off_c, 1, 61, 0
2, 118760, Note_off_c, 1, 66, 0
2, 118800, Note_off_c, 1, 42, 0
2, 118800, Note_off_c, 1, 49, 0
2, 118800, Note_off_c, 1, 56, 0
2, 118840, Note_on_c, 1, 59, 127
2, 118840, Note_on_c, 1, 68, 127
2, 118840, Note_on_c, 1, 75, 127
2, 119160, Note_off_c, 1, 59, 0
2, 119160, Note_off_c, 1, 68, 0
2, 119160, Note_off_c, 1, 75, 0
2, 119200, Note_on_c, 1, 52, 127
2, 119200, Note_on_c, 1, 58, 127
2, 119200, Note_on_c, 1, 68, 127
2, 119200, Note_on_c, 1, 73, 127
2, 119200, Note_on_c, 1, 82, 127
2, 119240, Note_on_c, 1, 45, 127
2, 119240, Note_off_c, 1, 52, 0
2, 119240, Note_on_c, 1, 54, 127
2, 119240, Note_on_c, 1, 57, 127
2, 119240, Note_off_c, 1, 58, 0
2, 119240, Note_on_c, 1, 63, 127
2, 119240, Note_on_c, 1, 66, 127
2, 119240, Note_off_c, 1, 68, 0
2, 119240, Note_off_c, 1, 73, 0
2, 119240, Note_on_c, 1, 75, 127
2, 119240, Note_off_c, 1, 82, 0
2, 119280, Note_off_c, 1, 45, 0
2, 119280, Note_off_c, 1, 54, 0
2, 119280, Note_off_c, 1, 57, 0
2, 119280, Note_on_c, 1, 58, 127
2, 119280, Note_off_c, 1, 63, 0
2, 119280, Note_off_c, 1, 66, 0
2, 119280, Note_on_c, 1, 68, 127
2, 119280, Note_on_c, 1, 73, 127
2, 119280, Note_off_c, 1, 75, 0
2, 119280, Note_on_c, 1, 82, 127
2, 119320, Note_off_c, 1, 58, 0
2, 119320, Note_on_c, 1, 61, 127
2, 119360, Note_on_c, 1, 58, 127
2, 119360, Note_off_c, 1, 61, 0
2, 119480, Note_off_c, 1, 58, 0
2, 119480, Note_off_c, 1, 68, 0
2, 119480, Note_off_c, 1, 73, 0
2, 119480, Note_off_c, 1, 82, 0
2, 119560, Note_on_c, 1, 58, 127
2, 119560, Note_on_c, 1, 62, 127
2, 119560, Note_on_c, 1, 68, 127
2, 119560, Note_on_c, 1, 71, 127
2, 119560, Note_on_c, 1, 77, 127
2, 119760, Note_off_c, 1, 58, 0
2, 119760, Note_off_c, 1, 62, 0
2, 119760, Note_off_c, 1, 68, 0
2, 119760, Note_off_c, 1, 71, 0
2, 119760, Note_off_c, 1, 77, 0
2, 119800, Note_on_c, 1, 58, 127
2, 119800, Note_on_c, 1, 62, 127
2, 119800, Note_on_c, 1, 68, 127
2, 119800, Note_on_c, 1, 71, 127
2, 119800, Note_on_c, 1, 77, 127
2, 119880, Note_off_c, 1, 58, 0
2, 119880, Note_on_c, 1, 60, 127
2, 119880, Note_off_c, 1, 62, 0
2, 119880, Note_off_c, 1, 68, 0
2, 119880, Note_off_c, 1, 71, 0
2, 119920, Note_on_c, 1, 49, 127
2, 119920, Note_off_c, 1, 60, 0
2, 119920, Note_on_c, 1, 70, 127
2, 119920, Note_on_c, 1, 75, 127
2, 119920, Note_off_c, 1, 77, 0
2, 120000, Note_off_c, 1, 49, 0
2, 120000, Note_off_c, 1, 70, 0
2, 120000, Note_off_c, 1, 75, 0
2, 120040, End_track
3, 0, Start_track
3, 0, Title_t, "MIDI"
3, 1536, End_track
0, 0, End_of_file
