0, 0, Header, 1, 3, 192
1, 0, Start_track
1, 0, Time_signature, 4, 2, 24, 8
1, 0, Tempo, 500000
1, 120040, End_track
2, 0, Start_track
2, 0, Text_t, "random instrument: random person i dunno whatev"
2, 0, Title_t, "Track 1"
2, 0, Note_on_c, 1, 40, 127
2, 0, Note_on_c, 1, 48, 127
2, 0, Note_on_c, 1, 56, 127
2, 0, Note_on_c, 1, 60, 127
2, 40, Note_off_c, 1, 40, 0
2, 40, Note_off_c, 1, 48, 0
2, 40, Note_on_c, 1, 55, 127
2, 40, Note_off_c, 1, 56, 0
2, 40, Note_off_c, 1, 60, 0
2, 40, Note_on_c, 1, 72, 127
2, 40, Note_on_c, 1, 75, 127
2, 40, Note_on_c, 1, 79, 127
2, 40, Note_on_c, 1, 84, 127
2, 80, Note_off_c, 1, 55, 0
2, 80, Note_off_c, 1, 72, 0
2, 80, Note_off_c, 1, 75, 0
2, 80, Note_off_c, 1, 79, 0
2, 80, Note_off_c, 1, 84, 0
2, 120, Note_on_c, 1, 40, 127
2, 120, Note_on_c, 1, 48, 127
2, 120, Note_on_c, 1, 56, 127
2, 120, Note_on_c, 1, 60, 127
2, 160, Note_off_c, 1, 40, 0
2, 160, Note_on_c, 1, 41, 127
2, 160, Note_off_c, 1, 48, 0
2, 160, Note_on_c, 1, 50, 127
2, 160, Note_on_c, 1, 53, 127
2, 160, Note_off_c, 1, 56, 0
2, 160, Note_off_c, 1, 60, 0
2, 160, Note_on_c, 1, 81, 127
2, 160, Note_on_c, 1, 86, 127
2, 200, Note_on_c, 1, 35, 127
2, 200, Note_on_c, 1, 39, 127
2, 200, Note_off_c, 1, 41, 0
2, 200, Note_on_c, 1, 47, 127
2, 200, Note_off_c, 1, 53, 0
2, 200, Note_off_c, 1, 81, 0
2, 200, Note_off_c, 1, 86, 0
2, 240, Note_on_c, 1, 34, 127
2, 240, Note_off_c, 1, 35, 0
2, 240, Note_on_c, 1, 46, 127
2, 240, Note_off_c, 1, 47, 0
2, 240, Note_off_c, 1, 50, 0
2, 240, Note_on_c, 1, 73, 127
2, 240, Note_on_c, 1, 75, 127
2, 280, Note_off_c, 1, 34, 0
2, 280, Note_off_c, 1, 39, 0
2, 280, Note_off_c, 1, 46, 0
2, 280, Note_off_c, 1, 73, 0
2, 280, Note_off_c, 1, 75, 0
2, 280, Note_on_c, 1, 76, 127
2, 280, Note_on_c, 1, 80, 127
2, 280, Note_on_c, 1, 83, 127
2, 280, Note_on_c, 1, 89, 127
2, 320, Note_on_c, 1, 34, 127
2, 320, Note_on_c, 1, 39, 127
2, 320, Note_on_c, 1, 46, 127
2, 320, Note_on_c, 1, 73, 127
2, 320, Note_on_c, 1, 75, 127
2, 320, Note_off_c, 1, 76, 0
2, 320, Note_off_c, 1, 80, 0
2, 320, Note_off_c, 1, 83, 0
2, 320, Note_off_c, 1, 89, 0
2, 360, Note_off_c, 1, 34, 0
2, 360, Note_off_c, 1, 39, 0
2, 360, Note_on_c, 1, 42, 127
2, 360, Note_off_c, 1, 46, 0
2, 360, Note_on_c, 1, 49, 127
2, 360, Note_on_c, 1, 56, 127
2, 360, Note_off_c, 1, 73, 0
2, 360, Note_off_c, 1, 75, 0
2, 400, Note_off_c, 1, 42, 0
2, 400, Note_off_c, 1, 49, 0
2, 400, Note_off_c, 1, 56, 0
2, 400, Note_on_c, 1, 64, 127
2, 400, Note_on_c, 1, 85, 127
2, 400, Note_on_c, 1, 88, 127
2, 400, Note_on_c, 1, 92, 127
2, 440, Note_on_c, 1, 52, 127
2, 440, Note_on_c, 1, 56, 127
2, 440, Note_on_c, 1, 62, 127
2, 440, Note_on_c, 1, 71, 127
2, 440, Note_on_c, 1, 74, 127
2, 440, Note_off_c, 1, 85, 0
2, 440, Note_off_c, 1, 88, 0
2, 440, Note_off_c, 1, 92, 0
2, 480, Note_off_c, 1, 52, 0
2, 480, Note_off_c, 1, 56, 0
2, 480, Note_off_c, 1, 62, 0
2, 480, Note_off_c, 1, 71, 0
2, 480, Note_off_c, 1, 74, 0
2, 520, Note_on_c, 1, 32, 127
2, 520, Note_on_c, 1, 44, 127
2, 520, Note_on_c, 1, 52, 127
2, 520, Note_on_c, 1, 61, 127
2, 520, Note_off_c, 1, 64, 0
2, 600, Note_off_c, 1, 52, 0
2, 640, Note_on_c, 1, 52, 127
2, 760, Note_off_c, 1, 52, 0
2, 800, Note_on_c, 1, 58, 127
2, 880, Note_off_c, 1, 58, 0
2, 880, Note_off_c, 1, 61, 0
2, 920, Note_on_c, 1, 61, 127
2, 1040, Note_off_c, 1, 61, 0
2, 1080, Note_on_c, 1, 54, 127
2, 1240, Note_off_c, 1, 32, 0
2, 1240, Note_off_c, 1, 44, 0
2, 1240, Note_off_c, 1, 54, 0
2, 1240, Note_on_c, 1, 61, 127
2, 1240, Note_on_c, 1, 67, 127
2, 1280, Note_on_c, 1, 31, 127
2, 1280, Note_on_c, 1, 43, 127
2, 1280, Note_on_c, 1, 58, 127
2, 1280, Note_on_c, 1, 64, 127
2, 1280, Note_off_c, 1, 67, 0
2, 1640, Note_off_c, 1, 31, 0
2, 1640, Note_on_c, 1, 34, 127
2, 1640, Note_off_c, 1, 43, 0
2, 1640, Note_on_c, 1, 46, 127
2, 1640, Note_off_c, 1, 58, 0
2, 1640, Note_off_c, 1, 61, 0
2, 1640, Note_off_c, 1, 64, 0
2, 1680, Note_off_c, 1, 34, 0
2, 1680, Note_on_c, 1, 35, 127
2, 1680, Note_on_c, 1, 42, 127
2, 1680, Note_off_c, 1, 46, 0
2, 1680, Note_on_c, 1, 47, 127
2, 1680, Note_on_c, 1, 62, 127
2, 1680, Note_on_c, 1, 66, 127
2, 1680, Note_on_c, 1, 71, 127
2, 1680, Note_on_c, 1, 74, 127
2, 1880, Note_off_c, 1, 35, 0
2, 1880, Note_off_c, 1, 42, 0
2, 1880, Note_off_c, 1, 47, 0
2, 1880, Note_off_c, 1, 62, 0
2, 1880, Note_off_c, 1, 66, 0
2, 1880, Note_off_c, 1, 71, 0
2, 1880, Note_off_c, 1, 74, 0
2, 1920, Note_on_c, 1, 35, 127
2, 1920, Note_on_c, 1, 42, 127
2, 1920, Note_on_c, 1, 47, 127
2, 1920, Note_on_c, 1, 62, 127
2, 1920, Note_on_c, 1, 66, 127
2, 1920, Note_on_c, 1, 71, 127
2, 1920, Note_on_c, 1, 74, 127
2, 2280, Note_off_c, 1, 35, 0
2, 2280, Note_off_c, 1, 42, 0
2, 2280, Note_off_c, 1, 47, 0
2, 2280, Note_off_c, 1, 62, 0
2, 2280, Note_off_c, 1, 66, 0
2, 2280, Note_off_c, 1, 71, 0
2, 2280, Note_off_c, 1, 74, 0
2, 2320, Note_on_c, 1, 68, 127
2, 2480, Note_off_c, 1, 68, 0
2, 2520, Note_on_c, 1, 35, 127
2, 2520, Note_on_c, 1, 47, 127
2, 2520, Note_on_c, 1, 59, 127
2, 2520, Note_on_c, 1, 63, 127
2, 3320, Note_off_c, 1, 35, 0
2, 3320, Note_off_c, 1, 47, 0
2, 3320, Note_on_c, 1, 54, 127
2, 3720, Note_on_c, 1, 47, 127
2, 3720, Note_off_c, 1, 54, 0
2, 3720, Note_off_c, 1, 59, 0
2, 3720, Note_off_c, 1, 63, 0
2, 3760, Note_on_c, 1, 40, 127
2, 3760, Note_on_c, 1, 73, 127
2, 3840, Note_off_c, 1, 73, 0
2, 3880, Note_on_c, 1, 61, 127
2, 3920, Note_off_c, 1, 40, 0
2, 3920, Note_off_c, 1, 47, 0
2, 3920, Note_off_c, 1, 61, 0
2, 3960, Note_on_c, 1, 40, 127
2, 3960, Note_on_c, 1, 47, 127
2, 4000, Note_on_c, 1, 60, 127
2, 4080, Note_off_c, 1, 60, 0
2, 4120, Note_on_c, 1, 68, 127
2, 4160, Note_off_c, 1, 68, 0
2, 4200, Note_on_c, 1, 68, 127
2, 4280, Note_off_c, 1, 47, 0
2, 4320, Note_on_c, 1, 39, 127
2, 4320, Note_off_c, 1, 40, 0
2, 4320, Note_on_c, 1, 44, 127
2, 4320, Note_on_c, 1, 51, 127
2, 4320, Note_on_c, 1, 60, 127
2, 4320, Note_on_c, 1, 67, 127
2, 4320, Note_off_c, 1, 68, 0
2, 4360, Note_off_c, 1, 60, 0
2, 4360, Note_off_c, 1, 67, 0
2, 4400, Note_on_c, 1, 60, 127
2, 4400, Note_on_c, 1, 67, 127
2, 4480, Note_off_c, 1, 60, 0
2, 4480, Note_off_c, 1, 67, 0
2, 4520, Note_off_c, 1, 39, 0
2, 4520, Note_off_c, 1, 44, 0
2, 4520, Note_off_c, 1, 51, 0
2, 4520, Note_on_c, 1, 52, 127
2, 4520, Note_on_c, 1, 54, 127
2, 4520, Note_on_c, 1, 59, 127
2, 4520, Note_on_c, 1, 78, 127
2, 4520, Note_on_c, 1, 83, 127
2, 4520, Note_on_c, 1, 90, 127
2, 4560, Note_off_c, 1, 52, 0
2, 4560, Note_off_c, 1, 54, 0
2, 4560, Note_off_c, 1, 59, 0
2, 4560, Note_off_c, 1, 78, 0
2, 4560, Note_off_c, 1, 83, 0
2, 4560, Note_off_c, 1, 90, 0
2, 4600, Note_on_c, 1, 47, 127
2, 4600, Note_on_c, 1, 54, 127
2, 4600, Note_on_c, 1, 57, 127
2, 4600, Note_on_c, 1, 66, 127
2, 4680, Note_off_c, 1, 66, 0
2, 4720, Note_on_c, 1, 66, 127
2, 4760, Note_off_c, 1, 66, 0
2, 4800, Note_on_c, 1, 66, 127
2, 4880, Note_off_c, 1, 66, 0
2, 4920, Note_on_c, 1, 66, 127
2, 4960, Note_off_c, 1, 47, 0
2, 4960, Note_off_c, 1, 54, 0
2, 4960, Note_off_c, 1, 57, 0
2, 4960, Note_off_c, 1, 66, 0
2, 5000, Note_on_c, 1, 35, 127
2, 5000, Note_on_c, 1, 47, 127
2, 5000, Note_on_c, 1, 61, 127
2, 5080, Note_off_c, 1, 61, 0
2, 5120, Note_on_c, 1, 52, 127
2, 5160, Note_off_c, 1, 35, 0
2, 5160, Note_off_c, 1, 47, 0
2, 5160, Note_off_c, 1, 52, 0
2, 5160, Note_on_c, 1, 54, 127
2, 5200, Note_on_c, 1, 33, 127
2, 5200, Note_on_c, 1, 45, 127
2, 5200, Note_on_c, 1, 48, 127
2, 5200, Note_off_c, 1, 54, 0
2, 5360, Note_off_c, 1, 33, 0
2, 5360, Note_off_c, 1, 45, 0
2, 5360, Note_off_c, 1, 48, 0
2, 5400, Note_on_c, 1, 33, 127
2, 5400, Note_on_c, 1, 45, 127
2, 5400, Note_on_c, 1, 52, 127
2, 5400, Note_on_c, 1, 56, 127
2, 5400, Note_on_c, 1, 59, 127
2, 5480, Note_off_c, 1, 56, 0
2, 5480, Note_off_c, 1, 59, 0
2, 5520, Note_on_c, 1, 56, 127
2, 5520, Note_on_c, 1, 59, 127
2, 5560, Note_off_c, 1, 56, 0
2, 5560, Note_off_c, 1, 59, 0
2, 5600, Note_on_c, 1, 56, 127
2, 5600, Note_on_c, 1, 59, 127
2, 5680, Note_off_c, 1, 56, 0
2, 5680, Note_off_c, 1, 59, 0
2, 5720, Note_on_c, 1, 57, 127
2, 5720, Note_on_c, 1, 61, 127
2, 5760, Note_off_c, 1, 33, 0
2, 5760, Note_off_c, 1, 45, 0
2, 5760, Note_off_c, 1, 52, 0
2, 5760, Note_off_c, 1, 57, 0
2, 5760, Note_off_c, 1, 61, 0
2, 5800, Note_on_c, 1, 35, 127
2, 5800, Note_on_c, 1, 47, 127
2, 5800, Note_on_c, 1, 59, 127
2, 5880, Note_off_c, 1, 59, 0
2, 5920, Note_on_c, 1, 57, 127
2, 5960, Note_off_c, 1, 35, 0
2, 5960, Note_off_c, 1, 47, 0
2, 5960, Note_off_c, 1, 57, 0
2, 6000, Note_on_c, 1, 35, 127
2, 6000, Note_on_c, 1, 47, 127
2, 6000, Note_on_c, 1, 57, 127
2, 6000, Note_on_c, 1, 63, 127
2, 6000, Note_on_c, 1, 66, 127
2, 6080, Note_off_c, 1, 35, 0
2, 6080, Note_on_c, 1, 40, 127
2, 6080, Note_off_c, 1, 57, 0
2, 6080, Note_off_c, 1, 63, 0
2, 6080, Note_off_c, 1, 66, 0
2, 6120, Note_off_c, 1, 40, 0
2, 6120, Note_off_c, 1, 47, 0
2, 6160, Note_on_c, 1, 40, 127
2, 6160, Note_on_c, 1, 47, 127
2, 6160, Note_on_c, 1, 59, 127
2, 6200, Note_off_c, 1, 40, 0
2, 6200, Note_on_c, 1, 42, 127
2, 6200, Note_off_c, 1, 47, 0
2, 6200, Note_on_c, 1, 52, 127
2, 6200, Note_on_c, 1, 64, 127
2, 6240, Note_on_c, 1, 40, 127
2, 6240, Note_off_c, 1, 42, 0
2, 6240, Note_on_c, 1, 51, 127
2, 6240, Note_off_c, 1, 52, 0
2, 6240, Note_off_c, 1, 64, 0
2, 6240, Note_on_c, 1, 66, 127
2, 6240, Note_on_c, 1, 68, 127
2, 6280, Note_on_c, 1, 32, 127
2, 6280, Note_off_c, 1, 40, 0
2, 6280, Note_off_c, 1, 51, 0
2, 6280, Note_off_c, 1, 59, 0
2, 6280, Note_off_c, 1, 66, 0
2, 6280, Note_off_c, 1, 68, 0
2, 6280, Note_on_c, 1, 72, 127
2, 6280, Note_on_c, 1, 73, 127
2, 6320, Note_off_c, 1, 32, 0
2, 6320, Note_on_c, 1, 37, 127
2, 6320, Note_on_c, 1, 45, 127
2, 6320, Note_off_c, 1, 72, 0
2, 6320, Note_off_c, 1, 73, 0
2, 6320, Note_on_c, 1, 82, 127
2, 6360, Note_off_c, 1, 37, 0
2, 6360, Note_on_c, 1, 40, 127
2, 6360, Note_off_c, 1, 45, 0
2, 6360, Note_on_c, 1, 51, 127
2, 6360, Note_on_c, 1, 59, 127
2, 6360, Note_on_c, 1, 66, 127
2, 6360, Note_on_c, 1, 68, 127
2, 6360, Note_off_c, 1, 82, 0
2, 6400, Note_off_c, 1, 40, 0
2, 6400, Note_on_c, 1, 42, 127
2, 6400, Note_off_c, 1, 51, 0
2, 6400, Note_off_c, 1, 59, 0
2, 6400, Note_off_c, 1, 66, 0
2, 6400, Note_off_c, 1, 68, 0
2, 6440, Note_on_c, 1, 39, 127
2, 6440, Note_off_c, 1, 42, 0
2, 6440, Note_on_c, 1, 55, 127
2, 6440, Note_on_c, 1, 66, 127
2, 6800, Note_off_c, 1, 39, 0
2, 6800, Note_off_c, 1, 55, 0
2, 6800, Note_off_c, 1, 66, 0
2, 6840, Note_on_c, 1, 52, 127
2, 6840, Note_on_c, 1, 63, 127
2, 6880, Note_on_c, 1, 51, 127
2, 6880, Note_off_c, 1, 52, 0
2, 6880, Note_on_c, 1, 59, 127
2, 6880, Note_off_c, 1, 63, 0
2, 6880, Note_on_c, 1, 85, 127
2, 6920, Note_off_c, 1, 51, 0
2, 6920, Note_off_c, 1, 59, 0
2, 6920, Note_on_c, 1, 75, 127
2, 6920, Note_on_c, 1, 78, 127
2, 6920, Note_on_c, 1, 82, 127
2, 6920, Note_off_c, 1, 85, 0
2, 6920, Note_on_c, 1, 87, 127
2, 6920, Note_on_c, 1, 90, 127
2, 6960, Note_on_c, 1, 45, 127
2, 6960, Note_on_c, 1, 47, 127
2, 6960, Note_on_c, 1, 52, 127
2, 6960, Note_on_c, 1, 56, 127
2, 6960, Note_on_c, 1, 72, 127
2, 6960, Note_off_c, 1, 75, 0
2, 6960, Note_off_c, 1, 78, 0
2, 6960, Note_off_c, 1, 82, 0
2, 6960, Note_off_c, 1, 87, 0
2, 6960, Note_off_c, 1, 90, 0
2, 7000, Note_off_c, 1, 45, 0
2, 7000, Note_off_c, 1, 47, 0
2, 7000, Note_on_c, 1, 51, 127
2, 7000, Note_off_c, 1, 52, 0
2, 7000, Note_on_c, 1, 54, 127
2, 7000, Note_off_c, 1, 56, 0
2, 7000, Note_on_c, 1, 59, 127
2, 7000, Note_off_c, 1, 72, 0
2, 7040, Note_on_c, 1, 48, 127
2, 7040, Note_off_c, 1, 51, 0
2, 7040, Note_off_c, 1, 59, 0
2, 7040, Note_on_c, 1, 60, 127
2, 7040, Note_on_c, 1, 62, 127
2, 7040, Note_on_c, 1, 66, 127
2, 7040, Note_on_c, 1, 69, 127
2, 7080, Note_on_c, 1, 42, 127
2, 7080, Note_off_c, 1, 48, 0
2, 7080, Note_on_c, 1, 52, 127
2, 7080, Note_off_c, 1, 54, 0
2, 7080, Note_off_c, 1, 60, 0
2, 7080, Note_off_c, 1, 62, 0
2, 7080, Note_on_c, 1, 64, 127
2, 7080, Note_off_c, 1, 66, 0
2, 7080, Note_on_c, 1, 67, 127
2, 7080, Note_off_c, 1, 69, 0
2, 7080, Note_on_c, 1, 71, 127
2, 7080, Note_on_c, 1, 76, 127
2, 7120, Note_off_c, 1, 42, 0
2, 7120, Note_on_c, 1, 48, 127
2, 7120, Note_off_c, 1, 52, 0
2, 7120, Note_on_c, 1, 54, 127
2, 7120, Note_on_c, 1, 60, 127
2, 7120, Note_on_c, 1, 62, 127
2, 7120, Note_off_c, 1, 64, 0
2, 7120, Note_on_c, 1, 66, 127
2, 7120, Note_off_c, 1, 67, 0
2, 7120, Note_on_c, 1, 69, 127
2, 7120, Note_off_c, 1, 71, 0
2, 7120, Note_off_c, 1, 76, 0
2, 7200, Note_off_c, 1, 48, 0
2, 7200, Note_off_c, 1, 54, 0
2, 7200, Note_off_c, 1, 60, 0
2, 7200, Note_off_c, 1, 62, 0
2, 7200, Note_off_c, 1, 66, 0
2, 7200, Note_off_c, 1, 69, 0
2, 7240, Note_on_c, 1, 45, 127
2, 7240, Note_on_c, 1, 49, 127
2, 7240, Note_on_c, 1, 54, 127
2, 7240, Note_on_c, 1, 73, 127
2, 7600, Note_off_c, 1, 45, 0
2, 7600, Note_off_c, 1, 49, 0
2, 7600, Note_off_c, 1, 54, 0
2, 7600, Note_off_c, 1, 73, 0
2, 7640, Note_on_c, 1, 40, 127
2, 7640, Note_on_c, 1, 50, 127
2, 7640, Note_on_c, 1, 59, 127
2, 8000, Note_off_c, 1, 50, 0
2, 8040, Note_on_c, 1, 50, 127
2, 8160, Note_off_c, 1, 40, 0
2, 8160, Note_on_c, 1, 44, 127
2, 8160, Note_off_c, 1, 50, 0
2, 8160, Note_on_c, 1, 52, 127
2, 8200, Note_off_c, 1, 44, 0
2, 8200, Note_off_c, 1, 52, 0
2, 8200, Note_off_c, 1, 59, 0
2, 8240, Note_on_c, 1, 40, 127
2, 8280, Note_on_c, 1, 59, 127
2, 8400, Note_off_c, 1, 40, 0
2, 8400, Note_on_c, 1, 48, 127
2, 8400, Note_off_c, 1, 59, 0
2, 8400, Note_on_c, 1, 64, 127
2, 8400, Note_on_c, 1, 69, 127
2, 8400, Note_on_c, 1, 73, 127
2, 8440, Note_off_c, 1, 48, 0
2, 8440, Note_off_c, 1, 64, 0
2, 8440, Note_off_c, 1, 69, 0
2, 8440, Note_off_c, 1, 73, 0
2, 8440, Note_on_c, 1, 81, 127
2, 8440, Note_on_c, 1, 84, 127
2, 8440, Note_on_c, 1, 88, 127
2, 8480, Note_on_c, 1, 64, 127
2, 8480, Note_on_c, 1, 69, 127
2, 8480, Note_on_c, 1, 72, 127
2, 8480, Note_on_c, 1, 77, 127
2, 8480, Note_off_c, 1, 81, 0
2, 8480, Note_off_c, 1, 88, 0
2, 8640, Note_off_c, 1, 64, 0
2, 8640, Note_off_c, 1, 69, 0
2, 8640, Note_off_c, 1, 72, 0
2, 8640, Note_off_c, 1, 77, 0
2, 8640, Note_off_c, 1, 84, 0
2, 8680, Note_on_c, 1, 41, 127
2, 8680, Note_on_c, 1, 48, 127
2, 8680, Note_on_c, 1, 63, 127
2, 8680, Note_on_c, 1, 69, 127
2, 8680, Note_on_c, 1, 72, 127
2, 8680, Note_on_c, 1, 81, 127
2, 8680, Note_on_c, 1, 84, 127
2, 9440, Note_off_c, 1, 41, 0
2, 9440, Note_off_c, 1, 48, 0
2, 9440, Note_off_c, 1, 63, 0
2, 9440, Note_off_c, 1, 69, 0
2, 9440, Note_off_c, 1, 72, 0
2, 9440, Note_off_c, 1, 81, 0
2, 9440, Note_off_c, 1, 84, 0
2, 9480, Note_on_c, 1, 37, 127
2, 9480, Note_on_c, 1, 41, 127
2, 9480, Note_on_c, 1, 46, 127
2, 9480, Note_on_c, 1, 65, 127
2, 10240, Note_off_c, 1, 37, 0
2, 10240, Note_off_c, 1, 41, 0
2, 10240, Note_off_c, 1, 46, 0
2, 10240, Note_off_c, 1, 65, 0
2, 10320, Note_on_c, 1, 59, 127
2, 10320, Note_on_c, 1, 62, 127
2, 10320, Note_on_c, 1, 65, 127
2, 10320, Note_on_c, 1, 68, 127
2, 10320, Note_on_c, 1, 104, 127
2, 10360, Note_on_c, 1, 57, 127
2, 10360, Note_off_c, 1, 59, 0
2, 10360, Note_on_c, 1, 60, 127
2, 10360, Note_off_c, 1, 65, 0
2, 10360, Note_on_c, 1, 66, 127
2, 10360, Note_off_c, 1, 68, 0
2, 10360, Note_on_c, 1, 96, 127
2, 10360, Note_off_c, 1, 104, 0
2, 10400, Note_on_c, 1, 34, 127
2, 10400, Note_off_c, 1, 57, 0
2, 10400, Note_off_c, 1, 60, 0
2, 10400, Note_off_c, 1, 62, 0
2, 10400, Note_on_c, 1, 63, 127
2, 10400, Note_off_c, 1, 66, 0
2, 10400, Note_on_c, 1, 67, 127
2, 10400, Note_on_c, 1, 70, 127
2, 10400, Note_off_c, 1, 96, 0
2, 10440, Note_off_c, 1, 34, 0
2, 10440, Note_on_c, 1, 43, 127
2, 10440, Note_on_c, 1, 51, 127
2, 10440, Note_on_c, 1, 53, 127
2, 10440, Note_on_c, 1, 57, 127
2, 10440, Note_on_c, 1, 60, 127
2, 10440, Note_off_c, 1, 63, 0
2, 10440, Note_on_c, 1, 65, 127
2, 10440, Note_off_c, 1, 67, 0
2, 10440, Note_off_c, 1, 70, 0
2, 10480, Note_on_c, 1, 36, 127
2, 10480, Note_off_c, 1, 43, 0
2, 10480, Note_off_c, 1, 53, 0
2, 10480, Note_off_c, 1, 57, 0
2, 10480, Note_off_c, 1, 60, 0
2, 10480, Note_off_c, 1, 65, 0
2, 10480, Note_on_c, 1, 67, 127
2, 10480, Note_on_c, 1, 75, 127
2, 10480, Note_on_c, 1, 79, 127
2, 10520, Note_on_c, 1, 45, 127
2, 10520, Note_on_c, 1, 48, 127
2, 10520, Note_off_c, 1, 51, 0
2, 10520, Note_on_c, 1, 66, 127
2, 10520, Note_off_c, 1, 67, 0
2, 10520, Note_on_c, 1, 69, 127
2, 10520, Note_off_c, 1, 75, 0
2, 10520, Note_off_c, 1, 79, 0
2, 10560, Note_off_c, 1, 36, 0
2, 10560, Note_off_c, 1, 45, 0
2, 10560, Note_off_c, 1, 48, 0
2, 10560, Note_on_c, 1, 56, 127
2, 10560, Note_on_c, 1, 61, 127
2, 10560, Note_on_c, 1, 65, 127
2, 10560, Note_off_c, 1, 66, 0
2, 10560, Note_on_c, 1, 68, 127
2, 10560, Note_off_c, 1, 69, 0
2, 10560, Note_on_c, 1, 80, 127
2, 10560, Note_on_c, 1, 85, 127
2, 10560, Note_on_c, 1, 92, 127
2, 10600, Note_on_c, 1, 34, 127
2, 10600, Note_on_c, 1, 37, 127
2, 10600, Note_on_c, 1, 41, 127
2, 10600, Note_on_c, 1, 46, 127
2, 10600, Note_off_c, 1, 56, 0
2, 10600, Note_off_c, 1, 61, 0
2, 10600, Note_off_c, 1, 65, 0
2, 10600, Note_off_c, 1, 68, 0
2, 10600, Note_off_c, 1, 80, 0
2, 10600, Note_on_c, 1, 82, 127
2, 10600, Note_on_c, 1, 89, 127
2, 10600, Note_off_c, 1, 92, 0
2, 10600, Note_on_c, 1, 94, 127
2, 10640, Note_off_c, 1, 34, 0
2, 10640, Note_off_c, 1, 37, 0
2, 10640, Note_off_c, 1, 41, 0
2, 10640, Note_off_c, 1, 46, 0
2, 10640, Note_on_c, 1, 53, 127
2, 10640, Note_on_c, 1, 57, 127
2, 10640, Note_on_c, 1, 64, 127
2, 10640, Note_on_c, 1, 77, 127
2, 10640, Note_off_c, 1, 82, 0
2, 10640, Note_off_c, 1, 85, 0
2, 10640, Note_off_c, 1, 89, 0
2, 10640, Note_off_c, 1, 94, 0
2, 10680, Note_off_c, 1, 53, 0
2, 10680, Note_off_c, 1, 57, 0
2, 10680, Note_off_c, 1, 64, 0
2, 10680, Note_off_c, 1, 77, 0
2, 11120, Note_on_c, 1, 53, 127
2, 11120, Note_on_c, 1, 58, 127
2, 11120, Note_on_c, 1, 62, 127
2, 11360, Note_off_c, 1, 53, 0
2, 11360, Note_off_c, 1, 58, 0
2, 11360, Note_off_c, 1, 62, 0
2, 11520, Note_on_c, 1, 53, 127
2, 11520, Note_on_c, 1, 58, 127
2, 11520, Note_on_c, 1, 62, 127
2, 11520, Note_on_c, 1, 74, 127
2, 11520, Note_on_c, 1, 77, 127
2, 11520, Note_on_c, 1, 82, 127
2, 11520, Note_on_c, 1, 86, 127
2, 11720, Note_off_c, 1, 86, 0
2, 11720, Note_on_c, 1, 87, 127
2, 11760, Note_off_c, 1, 53, 0
2, 11760, Note_off_c, 1, 58, 0
2, 11760, Note_off_c, 1, 62, 0
2, 11760, Note_off_c, 1, 74, 0
2, 11760, Note_off_c, 1, 77, 0
2, 11760, Note_off_c, 1, 82, 0
2, 11760, Note_off_c, 1, 87, 0
2, 11800, Note_on_c, 1, 53, 127
2, 11800, Note_on_c, 1, 58, 127
2, 11800, Note_on_c, 1, 62, 127
2, 11800, Note_on_c, 1, 74, 127
2, 11800, Note_on_c, 1, 77, 127
2, 11800, Note_on_c, 1, 82, 127
2, 11800, Note_on_c, 1, 86, 127
2, 11840, Note_off_c, 1, 53, 0
2, 11840, Note_off_c, 1, 58, 0
2, 11840, Note_off_c, 1, 62, 0
2, 11840, Note_off_c, 1, 74, 0
2, 11840, Note_off_c, 1, 77, 0
2, 11840, Note_off_c, 1, 82, 0
2, 11840, Note_off_c, 1, 86, 0
2, 11920, Note_on_c, 1, 53, 127
2, 11920, Note_on_c, 1, 58, 127
2, 11920, Note_on_c, 1, 62, 127
2, 11920, Note_on_c, 1, 74, 127
2, 11920, Note_on_c, 1, 77, 127
2, 11920, Note_on_c, 1, 82, 127
2, 11920, Note_on_c, 1, 86, 127
2, 12040, Note_off_c, 1, 53, 0
2, 12040, Note_off_c, 1, 58, 0
2, 12040, Note_off_c, 1, 62, 0
2, 12040, Note_off_c, 1, 74, 0
2, 12040, Note_off_c, 1, 77, 0
2, 12040, Note_off_c, 1, 82, 0
2, 12040, Note_off_c, 1, 86, 0
2, 12280, Note_on_c, 1, 49, 127
2, 12280, Note_on_c, 1, 59, 127
2, 12280, Note_on_c, 1, 67, 127
2, 12280, Note_on_c, 1, 71, 127
2, 12320, Note_on_c, 1, 39, 127
2, 12320, Note_off_c, 1, 49, 0
2, 12320, Note_off_c, 1, 59, 0
2, 12320, Note_on_c, 1, 70, 127
2, 12320, Note_off_c, 1, 71, 0
2, 12320, Note_on_c, 1, 75, 127
2, 12320, Note_on_c, 1, 79, 127
2, 12320, Note_on_c, 1, 87, 127
2, 12360, Note_off_c, 1, 39, 0
2, 12360, Note_off_c, 1, 67, 0
2, 12360, Note_off_c, 1, 70, 0
2, 12360, Note_off_c, 1, 75, 0
2, 12360, Note_off_c, 1, 79, 0
2, 12360, Note_off_c, 1, 87, 0
2, 12400, Note_on_c, 1, 49, 127
2, 12400, Note_on_c, 1, 52, 127
2, 12400, Note_on_c, 1, 55, 127
2, 12400, Note_on_c, 1, 82, 127
2, 12440, Note_on_c, 1, 48, 127
2, 12440, Note_off_c, 1, 49, 0
2, 12440, Note_on_c, 1, 60, 127
2, 12440, Note_off_c, 1, 82, 0
2, 12440, Note_on_c, 1, 88, 127
2, 12440, Note_on_c, 1, 91, 127
2, 12440, Note_on_c, 1, 96, 127
2, 12440, Note_on_c, 1, 100, 127
2, 12480, Note_on_c, 1, 45, 127
2, 12480, Note_off_c, 1, 52, 0
2, 12480, Note_off_c, 1, 55, 0
2, 12480, Note_on_c, 1, 57, 127
2, 12480, Note_on_c, 1, 64, 127
2, 12480, Note_off_c, 1, 88, 0
2, 12480, Note_off_c, 1, 91, 0
2, 12480, Note_off_c, 1, 96, 0
2, 12480, Note_off_c, 1, 100, 0
2, 12520, Note_off_c, 1, 45, 0
2, 12520, Note_off_c, 1, 48, 0
2, 12520, Note_off_c, 1, 57, 0
2, 12520, Note_off_c, 1, 60, 0
2, 12520, Note_off_c, 1, 64, 0
2, 12720, Note_on_c, 1, 29, 127
2, 12720, Note_on_c, 1, 41, 127
2, 12720, Note_on_c, 1, 63, 127
2, 12720, Note_on_c, 1, 65, 127
2, 12720, Note_on_c, 1, 69, 127
2, 12720, Note_on_c, 1, 72, 127
2, 13000, Note_off_c, 1, 29, 0
2, 13000, Note_off_c, 1, 41, 0
2, 13000, Note_off_c, 1, 63, 0
2, 13000, Note_off_c, 1, 65, 0
2, 13000, Note_off_c, 1, 69, 0
2, 13000, Note_off_c, 1, 72, 0
2, 13120, Note_on_c, 1, 45, 127
2, 13120, Note_on_c, 1, 57, 127
2, 13120, Note_on_c, 1, 61, 127
2, 13120, Note_on_c, 1, 64, 127
2, 13120, Note_on_c, 1, 69, 127
2, 13200, Note_off_c, 1, 57, 0
2, 13240, Note_on_c, 1, 57, 127
2, 13840, Note_off_c, 1, 45, 0
2, 13840, Note_off_c, 1, 57, 0
2, 13840, Note_off_c, 1, 61, 0
2, 13840, Note_off_c, 1, 64, 0
2, 13840, Note_off_c, 1, 69, 0
2, 13880, Note_on_c, 1, 38, 127
2, 13880, Note_on_c, 1, 50, 127
2, 13880, Note_on_c, 1, 55, 127
2, 13880, Note_on_c, 1, 67, 127
2, 14120, Note_off_c, 1, 38, 0
2, 14120, Note_off_c, 1, 50, 0
2, 14120, Note_off_c, 1, 55, 0
2, 14120, Note_off_c, 1, 67, 0
2, 14240, Note_on_c, 1, 38, 127
2, 14240, Note_on_c, 1, 50, 127
2, 14280, Note_off_c, 1, 38, 0
2, 14280, Note_on_c, 1, 57, 127
2, 14280, Note_on_c, 1, 62, 127
2, 14280, Note_on_c, 1, 66, 127
2, 14280, Note_on_c, 1, 72, 127
2, 14280, Note_on_c, 1, 78, 127
2, 14440, Note_off_c, 1, 50, 0
2, 14440, Note_off_c, 1, 57, 0
2, 14440, Note_off_c, 1, 62, 0
2, 14440, Note_off_c, 1, 66, 0
2, 14440, Note_off_c, 1, 72, 0
2, 14440, Note_off_c, 1, 78, 0
2, 14480, Note_on_c, 1, 50, 127
2, 14480, Note_on_c, 1, 57, 127
2, 14480, Note_on_c, 1, 62, 127
2, 14480, Note_on_c, 1, 66, 127
2, 14480, Note_on_c, 1, 72, 127
2, 14480, Note_on_c, 1, 78, 127
2, 14560, Note_off_c, 1, 50, 0
2, 14560, Note_off_c, 1, 57, 0
2, 14560, Note_off_c, 1, 62, 0
2, 14560, Note_off_c, 1, 66, 0
2, 14560, Note_off_c, 1, 72, 0
2, 14560, Note_off_c, 1, 78, 0
2, 14600, Note_on_c, 1, 38, 127
2, 14600, Note_on_c, 1, 66, 127
2, 14600, Note_on_c, 1, 72, 127
2, 14680, Note_off_c, 1, 38, 0
2, 14680, Note_off_c, 1, 66, 0
2, 14680, Note_off_c, 1, 72, 0
2, 14720, Note_on_c, 1, 38, 127
2, 14720, Note_on_c, 1, 66, 127
2, 14720, Note_on_c, 1, 72, 127
2, 15000, Note_off_c, 1, 38, 0
2, 15000, Note_off_c, 1, 66, 0
2, 15000, Note_off_c, 1, 72, 0
2, 15040, Note_on_c, 1, 54, 127
2, 15040, Note_on_c, 1, 62, 127
2, 15040, Note_on_c, 1, 78, 127
2, 15120, Note_off_c, 1, 54, 0
2, 15120, Note_off_c, 1, 62, 0
2, 15160, Note_off_c, 1, 78, 0
2, 15200, Note_on_c, 1, 78, 127
2, 15240, Note_off_c, 1, 78, 0
2, 15280, Note_on_c, 1, 54, 127
2, 15280, Note_on_c, 1, 62, 127
2, 15280, Note_on_c, 1, 81, 127
2, 15320, Note_off_c, 1, 54, 0
2, 15320, Note_off_c, 1, 62, 0
2, 15320, Note_off_c, 1, 81, 0
2, 15400, Note_on_c, 1, 84, 127
2, 15440, Note_on_c, 1, 50, 127
2, 15440, Note_on_c, 1, 57, 127
2, 15440, Note_on_c, 1, 78, 127
2, 15440, Note_off_c, 1, 84, 0
2, 15640, Note_off_c, 1, 50, 0
2, 15640, Note_off_c, 1, 57, 0
2, 15640, Note_off_c, 1, 78, 0
2, 15760, Note_on_c, 1, 43, 127
2, 15760, Note_on_c, 1, 50, 127
2, 15760, Note_on_c, 1, 79, 127
2, 16000, Note_off_c, 1, 43, 0
2, 16000, Note_off_c, 1, 50, 0
2, 16000, Note_off_c, 1, 79, 0
2, 16080, Note_on_c, 1, 57, 127
2, 16080, Note_on_c, 1, 60, 127
2, 16080, Note_on_c, 1, 63, 127
2, 16080, Note_on_c, 1, 72, 127
2, 16080, Note_on_c, 1, 78, 127
2, 16080, Note_on_c, 1, 83, 127
2, 16120, Note_off_c, 1, 57, 0
2, 16120, Note_off_c, 1, 60, 0
2, 16120, Note_off_c, 1, 63, 0
2, 16120, Note_off_c, 1, 72, 0
2, 16120, Note_off_c, 1, 78, 0
2, 16120, Note_off_c, 1, 83, 0
2, 16160, Note_on_c, 1, 51, 127
2, 16160, Note_on_c, 1, 55, 127
2, 16160, Note_on_c, 1, 58, 127
2, 16160, Note_on_c, 1, 63, 127
2, 16160, Note_on_c, 1, 73, 127
2, 16160, Note_on_c, 1, 75, 127
2, 16400, Note_off_c, 1, 51, 0
2, 16400, Note_off_c, 1, 55, 0
2, 16400, Note_off_c, 1, 58, 0
2, 16400, Note_off_c, 1, 63, 0
2, 16400, Note_off_c, 1, 73, 0
2, 16400, Note_off_c, 1, 75, 0
2, 16480, Note_on_c, 1, 51, 127
2, 16480, Note_on_c, 1, 53, 127
2, 16480, Note_on_c, 1, 56, 127
2, 16480, Note_on_c, 1, 58, 127
2, 16480, Note_on_c, 1, 62, 127
2, 16480, Note_on_c, 1, 68, 127
2, 16520, Note_off_c, 1, 51, 0
2, 16520, Note_off_c, 1, 53, 0
2, 16520, Note_off_c, 1, 56, 0
2, 16520, Note_off_c, 1, 58, 0
2, 16520, Note_off_c, 1, 62, 0
2, 16520, Note_off_c, 1, 68, 0
2, 16560, Note_on_c, 1, 42, 127
2, 16560, Note_on_c, 1, 54, 127
2, 16560, Note_on_c, 1, 63, 127
2, 16560, Note_on_c, 1, 68, 127
2, 16560, Note_on_c, 1, 72, 127
2, 16680, Note_on_c, 1, 35, 127
2, 16680, Note_off_c, 1, 42, 0
2, 16680, Note_on_c, 1, 52, 127
2, 16680, Note_on_c, 1, 59, 127
2, 16680, Note_off_c, 1, 63, 0
2, 16680, Note_off_c, 1, 68, 0
2, 16680, Note_off_c, 1, 72, 0
2, 16720, Note_off_c, 1, 35, 0
2, 16720, Note_on_c, 1, 42, 127
2, 16720, Note_off_c, 1, 52, 0
2, 16720, Note_off_c, 1, 59, 0
2, 16720, Note_on_c, 1, 63, 127
2, 16720, Note_on_c, 1, 68, 127
2, 16720, Note_on_c, 1, 72, 127
2, 16760, Note_off_c, 1, 42, 0
2, 16760, Note_off_c, 1, 54, 0
2, 16760, Note_off_c, 1, 63, 0
2, 16760, Note_off_c, 1, 68, 0
2, 16760, Note_off_c, 1, 72, 0
2, 16800, Note_on_c, 1, 42, 127
2, 16800, Note_on_c, 1, 54, 127
2, 16800, Note_on_c, 1, 57, 127
2, 16800, Note_on_c, 1, 64, 127
2, 16840, Note_off_c, 1, 42, 0
2, 16840, Note_off_c, 1, 54, 0
2, 16840, Note_off_c, 1, 57, 0
2, 16840, Note_off_c, 1, 64, 0
2, 16920, Note_on_c, 1, 38, 127
2, 16920, Note_on_c, 1, 50, 127
2, 16920, Note_on_c, 1, 74, 127
2, 16920, Note_on_c, 1, 78, 127
2, 16920, Note_on_c, 1, 81, 127
2, 16920, Note_on_c, 1, 86, 127
2, 17160, Note_off_c, 1, 38, 0
2, 17160, Note_off_c, 1, 50, 0
2, 17160, Note_off_c, 1, 74, 0
2, 17160, Note_off_c, 1, 78, 0
2, 17160, Note_off_c, 1, 81, 0
2, 17160, Note_off_c, 1, 86, 0
2, 17200, Note_on_c, 1, 29, 127
2, 17200, Note_on_c, 1, 40, 127
2, 17200, Note_on_c, 1, 41, 127
2, 17200, Note_on_c, 1, 48, 127
2, 17200, Note_on_c, 1, 52, 127
2, 17200, Note_on_c, 1, 53, 127
2, 17200, Note_on_c, 1, 60, 127
2, 17200, Note_on_c, 1, 69, 127
2, 17200, Note_on_c, 1, 72, 127
2, 17240, Note_off_c, 1, 29, 0
2, 17240, Note_off_c, 1, 40, 0
2, 17240, Note_off_c, 1, 41, 0
2, 17240, Note_off_c, 1, 48, 0
2, 17240, Note_off_c, 1, 52, 0
2, 17240, Note_off_c, 1, 53, 0
2, 17240, Note_off_c, 1, 60, 0
2, 17240, Note_off_c, 1, 69, 0
2, 17240, Note_off_c, 1, 72, 0
2, 17280, Note_on_c, 1, 29, 127
2, 17280, Note_on_c, 1, 40, 127
2, 17280, Note_on_c, 1, 41, 127
2, 17280, Note_on_c, 1, 48, 127
2, 17280, Note_on_c, 1, 52, 127
2, 17280, Note_on_c, 1, 53, 127
2, 17280, Note_on_c, 1, 60, 127
2, 17280, Note_on_c, 1, 69, 127
2, 17280, Note_on_c, 1, 72, 127
2, 17520, Note_off_c, 1, 29, 0
2, 17520, Note_off_c, 1, 40, 0
2, 17520, Note_off_c, 1, 41, 0
2, 17520, Note_off_c, 1, 48, 0
2, 17520, Note_off_c, 1, 52, 0
2, 17520, Note_off_c, 1, 53, 0
2, 17520, Note_off_c, 1, 60, 0
2, 17520, Note_off_c, 1, 69, 0
2, 17520, Note_off_c, 1, 72, 0
2, 17560, Note_on_c, 1, 57, 127
2, 17560, Note_on_c, 1, 60, 127
2, 17560, Note_on_c, 1, 65, 127
2, 17560, Note_on_c, 1, 69, 127
2, 17560, Note_on_c, 1, 91, 127
2, 17600, Note_off_c, 1, 57, 0
2, 17600, Note_off_c, 1, 60, 0
2, 17600, Note_off_c, 1, 65, 0
2, 17600, Note_off_c, 1, 69, 0
2, 17600, Note_off_c, 1, 91, 0
2, 17640, Note_on_c, 1, 41, 127
2, 17640, Note_on_c, 1, 53, 127
2, 17640, Note_on_c, 1, 69, 127
2, 17640, Note_on_c, 1, 72, 127
2, 17640, Note_on_c, 1, 81, 127
2, 17840, Note_off_c, 1, 41, 0
2, 17840, Note_off_c, 1, 53, 0
2, 17840, Note_off_c, 1, 69, 0
2, 17840, Note_off_c, 1, 72, 0
2, 17840, Note_off_c, 1, 81, 0
2, 17880, Note_on_c, 1, 53, 127
2, 17880, Note_on_c, 1, 60, 127
2, 17880, Note_on_c, 1, 69, 127
2, 17880, Note_on_c, 1, 72, 127
2, 17880, Note_on_c, 1, 77, 127
2, 17960, Note_off_c, 1, 53, 0
2, 17960, Note_off_c, 1, 60, 0
2, 17960, Note_off_c, 1, 69, 0
2, 17960, Note_off_c, 1, 72, 0
2, 17960, Note_off_c, 1, 77, 0
2, 18000, Note_on_c, 1, 53, 127
2, 18000, Note_on_c, 1, 57, 127
2, 18000, Note_on_c, 1, 60, 127
2, 18000, Note_on_c, 1, 65, 127
2, 18000, Note_on_c, 1, 84, 127
2, 18200, Note_off_c, 1, 53, 0
2, 18200, Note_off_c, 1, 57, 0
2, 18200, Note_off_c, 1, 60, 0
2, 18200, Note_off_c, 1, 65, 0
2, 18200, Note_off_c, 1, 84, 0
2, 18240, Note_on_c, 1, 40, 127
2, 18240, Note_on_c, 1, 52, 127
2, 18240, Note_on_c, 1, 64, 127
2, 18280, Note_off_c, 1, 40, 0
2, 18280, Note_off_c, 1, 52, 0
2, 18280, Note_off_c, 1, 64, 0
2, 18400, Note_on_c, 1, 55, 127
2, 18400, Note_on_c, 1, 62, 127
2, 18400, Note_on_c, 1, 71, 127
2, 18400, Note_on_c, 1, 79, 127
2, 18400, Note_on_c, 1, 83, 127
2, 18440, Note_off_c, 1, 55, 0
2, 18440, Note_off_c, 1, 62, 0
2, 18440, Note_off_c, 1, 71, 0
2, 18440, Note_off_c, 1, 79, 0
2, 18440, Note_off_c, 1, 83, 0
2, 18560, Note_on_c, 1, 36, 127
2, 18560, Note_on_c, 1, 48, 127
2, 18560, Note_on_c, 1, 72, 127
2, 18560, Note_on_c, 1, 76, 127
2, 18560, Note_on_c, 1, 84, 127
2, 18880, Note_off_c, 1, 36, 0
2, 18880, Note_off_c, 1, 48, 0
2, 18880, Note_off_c, 1, 72, 0
2, 18880, Note_off_c, 1, 76, 0
2, 18880, Note_off_c, 1, 84, 0
2, 18920, Note_on_c, 1, 39, 127
2, 18920, Note_on_c, 1, 43, 127
2, 18920, Note_on_c, 1, 46, 127
2, 18920, Note_on_c, 1, 51, 127
2, 18920, Note_on_c, 1, 87, 127
2, 18920, Note_on_c, 1, 91, 127
2, 18920, Note_on_c, 1, 94, 127
2, 18920, Note_on_c, 1, 99, 127
2, 19160, Note_off_c, 1, 39, 0
2, 19160, Note_off_c, 1, 43, 0
2, 19160, Note_off_c, 1, 46, 0
2, 19160, Note_off_c, 1, 51, 0
2, 19160, Note_off_c, 1, 87, 0
2, 19160, Note_off_c, 1, 91, 0
2, 19160, Note_off_c, 1, 94, 0
2, 19160, Note_off_c, 1, 99, 0
2, 19200, Note_on_c, 1, 60, 127
2, 19200, Note_on_c, 1, 65, 127
2, 19200, Note_on_c, 1, 69, 127
2, 19200, Note_on_c, 1, 72, 127
2, 19200, Note_on_c, 1, 77, 127
2, 19200, Note_on_c, 1, 81, 127
2, 19240, Note_off_c, 1, 60, 0
2, 19240, Note_off_c, 1, 65, 0
2, 19240, Note_off_c, 1, 69, 0
2, 19240, Note_off_c, 1, 72, 0
2, 19240, Note_off_c, 1, 77, 0
2, 19240, Note_off_c, 1, 81, 0
2, 19280, Note_on_c, 1, 38, 127
2, 19280, Note_on_c, 1, 50, 127
2, 19280, Note_on_c, 1, 57, 127
2, 19280, Note_on_c, 1, 62, 127
2, 19280, Note_on_c, 1, 65, 127
2, 19520, Note_off_c, 1, 38, 0
2, 19520, Note_off_c, 1, 50, 0
2, 19520, Note_off_c, 1, 57, 0
2, 19520, Note_off_c, 1, 62, 0
2, 19520, Note_off_c, 1, 65, 0
2, 19640, Note_on_c, 1, 31, 127
2, 19640, Note_on_c, 1, 35, 127
2, 19640, Note_on_c, 1, 38, 127
2, 19640, Note_on_c, 1, 43, 127
2, 19640, Note_on_c, 1, 55, 127
2, 19640, Note_on_c, 1, 59, 127
2, 19640, Note_on_c, 1, 62, 127
2, 19640, Note_on_c, 1, 67, 127
2, 19680, Note_off_c, 1, 55, 0
2, 19680, Note_off_c, 1, 59, 0
2, 19680, Note_off_c, 1, 62, 0
2, 19680, Note_off_c, 1, 67, 0
2, 19720, Note_on_c, 1, 55, 127
2, 19720, Note_on_c, 1, 59, 127
2, 19720, Note_on_c, 1, 62, 127
2, 19720, Note_on_c, 1, 67, 127
2, 19800, Note_off_c, 1, 31, 0
2, 19800, Note_off_c, 1, 35, 0
2, 19800, Note_off_c, 1, 38, 0
2, 19800, Note_off_c, 1, 43, 0
2, 19800, Note_off_c, 1, 55, 0
2, 19800, Note_off_c, 1, 59, 0
2, 19800, Note_off_c, 1, 62, 0
2, 19800, Note_off_c, 1, 67, 0
2, 19840, Note_on_c, 1, 31, 127
2, 19840, Note_on_c, 1, 35, 127
2, 19840, Note_on_c, 1, 38, 127
2, 19840, Note_on_c, 1, 43, 127
2, 19840, Note_on_c, 1, 55, 127
2, 19840, Note_on_c, 1, 59, 127
2, 19840, Note_on_c, 1, 62, 127
2, 19840, Note_on_c, 1, 67, 127
2, 19960, Note_off_c, 1, 31, 0
2, 19960, Note_off_c, 1, 35, 0
2, 19960, Note_off_c, 1, 38, 0
2, 19960, Note_off_c, 1, 43, 0
2, 19960, Note_off_c, 1, 55, 0
2, 19960, Note_off_c, 1, 59, 0
2, 19960, Note_off_c, 1, 62, 0
2, 19960, Note_off_c, 1, 67, 0
2, 20000, Note_on_c, 1, 31, 127
2, 20000, Note_on_c, 1, 35, 127
2, 20000, Note_on_c, 1, 38, 127
2, 20000, Note_on_c, 1, 43, 127
2, 20000, Note_on_c, 1, 55, 127
2, 20000, Note_on_c, 1, 59, 127
2, 20000, Note_on_c, 1, 62, 127
2, 20000, Note_on_c, 1, 67, 127
2, 20160, Note_off_c, 1, 31, 0
2, 20160, Note_off_c, 1, 35, 0
2, 20160, Note_off_c, 1, 38, 0
2, 20160, Note_off_c, 1, 43, 0
2, 20160, Note_off_c, 1, 55, 0
2, 20160, Note_off_c, 1, 59, 0
2, 20160, Note_off_c, 1, 62, 0
2, 20160, Note_off_c, 1, 67, 0
2, 20200, Note_on_c, 1, 29, 127
2, 20200, Note_on_c, 1, 47, 127
2, 20240, Note_off_c, 1, 29, 0
2, 20240, Note_off_c, 1, 47, 0
2, 20240, Note_on_c, 1, 76, 127
2, 20240, Note_on_c, 1, 80, 127
2, 20240, Note_on_c, 1, 83, 127
2, 20240, Note_on_c, 1, 92, 127
2, 20280, Note_on_c, 1, 42, 127
2, 20280, Note_on_c, 1, 50, 127
2, 20280, Note_on_c, 1, 57, 127
2, 20280, Note_off_c, 1, 76, 0
2, 20280, Note_off_c, 1, 80, 0
2, 20280, Note_off_c, 1, 83, 0
2, 20280, Note_on_c, 1, 86, 127
2, 20280, Note_off_c, 1, 92, 0
2, 20320, Note_off_c, 1, 42, 0
2, 20320, Note_off_c, 1, 50, 0
2, 20320, Note_off_c, 1, 57, 0
2, 20320, Note_off_c, 1, 86, 0
2, 20360, Note_on_c, 1, 57, 127
2, 20360, Note_on_c, 1, 63, 127
2, 20360, Note_on_c, 1, 69, 127
2, 20360, Note_on_c, 1, 80, 127
2, 20360, Note_on_c, 1, 92, 127
2, 20400, Note_off_c, 1, 57, 0
2, 20400, Note_off_c, 1, 63, 0
2, 20400, Note_off_c, 1, 69, 0
2, 20400, Note_off_c, 1, 80, 0
2, 20400, Note_on_c, 1, 83, 127
2, 20400, Note_on_c, 1, 89, 127
2, 20400, Note_off_c, 1, 92, 0
2, 20400, Note_on_c, 1, 95, 127
2, 20440, Note_on_c, 1, 49, 127
2, 20440, Note_on_c, 1, 56, 127
2, 20440, Note_on_c, 1, 58, 127
2, 20440, Note_on_c, 1, 68, 127
2, 20440, Note_on_c, 1, 70, 127
2, 20440, Note_on_c, 1, 77, 127
2, 20440, Note_on_c, 1, 80, 127
2, 20440, Note_off_c, 1, 83, 0
2, 20440, Note_off_c, 1, 89, 0
2, 20440, Note_off_c, 1, 95, 0
2, 20480, Note_off_c, 1, 49, 0
2, 20480, Note_off_c, 1, 56, 0
2, 20480, Note_off_c, 1, 58, 0
2, 20480, Note_off_c, 1, 68, 0
2, 20480, Note_off_c, 1, 70, 0
2, 20480, Note_off_c, 1, 77, 0
2, 20480, Note_off_c, 1, 80, 0
2, 20560, Note_on_c, 1, 50, 127
2, 20560, Note_on_c, 1, 55, 127
2, 20560, Note_on_c, 1, 74, 127
2, 20560, Note_on_c, 1, 77, 127
2, 20560, Note_on_c, 1, 86, 127
2, 20600, Note_off_c, 1, 50, 0
2, 20600, Note_off_c, 1, 55, 0
2, 20600, Note_off_c, 1, 74, 0
2, 20600, Note_off_c, 1, 77, 0
2, 20600, Note_off_c, 1, 86, 0
2, 20680, Note_on_c, 1, 36, 127
2, 20680, Note_on_c, 1, 48, 127
2, 20680, Note_on_c, 1, 75, 127
2, 20680, Note_on_c, 1, 84, 127
2, 20680, Note_on_c, 1, 87, 127
2, 20720, Note_off_c, 1, 36, 0
2, 20720, Note_off_c, 1, 48, 0
2, 20720, Note_off_c, 1, 75, 0
2, 20720, Note_off_c, 1, 84, 0
2, 20720, Note_off_c, 1, 87, 0
2, 20760, Note_on_c, 1, 51, 127
2, 20760, Note_on_c, 1, 55, 127
2, 20760, Note_on_c, 1, 72, 127
2, 20760, Note_on_c, 1, 75, 127
2, 20760, Note_on_c, 1, 84, 127
2, 20800, Note_off_c, 1, 51, 0
2, 20800, Note_off_c, 1, 55, 0
2, 20800, Note_off_c, 1, 72, 0
2, 20800, Note_off_c, 1, 75, 0
2, 20800, Note_off_c, 1, 84, 0
2, 20920, Note_on_c, 1, 36, 127
2, 20920, Note_on_c, 1, 43, 127
2, 20920, Note_on_c, 1, 48, 127
2, 20920, Note_on_c, 1, 79, 127
2, 20920, Note_on_c, 1, 88, 127
2, 20960, Note_off_c, 1, 36, 0
2, 20960, Note_off_c, 1, 43, 0
2, 20960, Note_off_c, 1, 48, 0
2, 20960, Note_off_c, 1, 79, 0
2, 20960, Note_off_c, 1, 88, 0
2, 21120, Note_on_c, 1, 41, 127
2, 21120, Note_on_c, 1, 53, 127
2, 21120, Note_on_c, 1, 86, 127
2, 21120, Note_on_c, 1, 92, 127
2, 21120, Note_on_c, 1, 95, 127
2, 21120, Note_on_c, 1, 98, 127
2, 21160, Note_off_c, 1, 41, 0
2, 21160, Note_off_c, 1, 53, 0
2, 21160, Note_off_c, 1, 86, 0
2, 21160, Note_off_c, 1, 92, 0
2, 21160, Note_off_c, 1, 95, 0
2, 21160, Note_off_c, 1, 98, 0
2, 21280, Note_on_c, 1, 41, 127
2, 21280, Note_on_c, 1, 53, 127
2, 21280, Note_on_c, 1, 86, 127
2, 21280, Note_on_c, 1, 92, 127
2, 21280, Note_on_c, 1, 95, 127
2, 21280, Note_on_c, 1, 98, 127
2, 21320, Note_off_c, 1, 41, 0
2, 21320, Note_off_c, 1, 53, 0
2, 21320, Note_off_c, 1, 86, 0
2, 21320, Note_off_c, 1, 92, 0
2, 21320, Note_off_c, 1, 95, 0
2, 21320, Note_off_c, 1, 98, 0
2, 21440, Note_on_c, 1, 74, 127
2, 21440, Note_on_c, 1, 78, 127
2, 21440, Note_on_c, 1, 86, 127
2, 21440, Note_on_c, 1, 90, 127
2, 21520, Note_off_c, 1, 74, 0
2, 21520, Note_off_c, 1, 78, 0
2, 21520, Note_off_c, 1, 86, 0
2, 21520, Note_off_c, 1, 90, 0
2, 21640, Note_on_c, 1, 44, 127
2, 21640, Note_on_c, 1, 56, 127
2, 21640, Note_on_c, 1, 71, 127
2, 21640, Note_on_c, 1, 74, 127
2, 21640, Note_on_c, 1, 83, 127
2, 21680, Note_off_c, 1, 44, 0
2, 21680, Note_off_c, 1, 56, 0
2, 21680, Note_off_c, 1, 71, 0
2, 21680, Note_off_c, 1, 74, 0
2, 21680, Note_off_c, 1, 83, 0
2, 21720, Note_on_c, 1, 74, 127
2, 21720, Note_on_c, 1, 77, 127
2, 21720, Note_on_c, 1, 86, 127
2, 21760, Note_off_c, 1, 74, 0
2, 21760, Note_off_c, 1, 77, 0
2, 21760, Note_off_c, 1, 86, 0
2, 21800, Note_on_c, 1, 48, 127
2, 21800, Note_on_c, 1, 60, 127
2, 21800, Note_on_c, 1, 72, 127
2, 21800, Note_on_c, 1, 75, 127
2, 21800, Note_on_c, 1, 84, 127
2, 21840, Note_off_c, 1, 48, 0
2, 21840, Note_off_c, 1, 60, 0
2, 21840, Note_off_c, 1, 72, 0
2, 21840, Note_off_c, 1, 75, 0
2, 21840, Note_off_c, 1, 84, 0
2, 21960, Note_on_c, 1, 43, 127
2, 21960, Note_on_c, 1, 55, 127
2, 21960, Note_on_c, 1, 71, 127
2, 21960, Note_on_c, 1, 74, 127
2, 21960, Note_on_c, 1, 83, 127
2, 22040, Note_off_c, 1, 43, 0
2, 22040, Note_off_c, 1, 55, 0
2, 22040, Note_off_c, 1, 71, 0
2, 22040, Note_off_c, 1, 74, 0
2, 22040, Note_off_c, 1, 83, 0
2, 22160, Note_on_c, 1, 43, 127
2, 22160, Note_on_c, 1, 55, 127
2, 22160, Note_on_c, 1, 71, 127
2, 22160, Note_on_c, 1, 74, 127
2, 22160, Note_on_c, 1, 83, 127
2, 22200, Note_off_c, 1, 43, 0
2, 22200, Note_off_c, 1, 55, 0
2, 22200, Note_off_c, 1, 71, 0
2, 22200, Note_off_c, 1, 74, 0
2, 22200, Note_off_c, 1, 83, 0
2, 22320, Note_on_c, 1, 48, 127
2, 22320, Note_on_c, 1, 60, 127
2, 22320, Note_on_c, 1, 72, 127
2, 22320, Note_on_c, 1, 75, 127
2, 22320, Note_on_c, 1, 84, 127
2, 22400, Note_off_c, 1, 48, 0
2, 22400, Note_off_c, 1, 60, 0
2, 22400, Note_off_c, 1, 72, 0
2, 22400, Note_off_c, 1, 75, 0
2, 22400, Note_off_c, 1, 84, 0
2, 22520, Note_on_c, 1, 31, 127
2, 22520, Note_on_c, 1, 43, 127
2, 22520, Note_on_c, 1, 55, 127
2, 22520, Note_on_c, 1, 58, 127
2, 22560, Note_off_c, 1, 31, 0
2, 22560, Note_off_c, 1, 43, 0
2, 22560, Note_off_c, 1, 55, 0
2, 22560, Note_off_c, 1, 58, 0
2, 22720, Note_on_c, 1, 31, 127
2, 22720, Note_on_c, 1, 43, 127
2, 22720, Note_on_c, 1, 55, 127
2, 22720, Note_on_c, 1, 58, 127
2, 22760, Note_off_c, 1, 31, 0
2, 22760, Note_off_c, 1, 43, 0
2, 22760, Note_off_c, 1, 55, 0
2, 22760, Note_on_c, 1, 57, 127
2, 22760, Note_off_c, 1, 58, 0
2, 22760, Note_on_c, 1, 66, 127
2, 22760, Note_on_c, 1, 69, 127
2, 22760, Note_on_c, 1, 74, 127
2, 22760, Note_on_c, 1, 78, 127
2, 22840, Note_on_c, 1, 36, 127
2, 22840, Note_on_c, 1, 43, 127
2, 22840, Note_on_c, 1, 53, 127
2, 22840, Note_on_c, 1, 55, 127
2, 22840, Note_off_c, 1, 57, 0
2, 22840, Note_on_c, 1, 59, 127
2, 22840, Note_off_c, 1, 66, 0
2, 22840, Note_off_c, 1, 69, 0
2, 22840, Note_off_c, 1, 74, 0
2, 22840, Note_off_c, 1, 78, 0
2, 22880, Note_off_c, 1, 36, 0
2, 22880, Note_off_c, 1, 43, 0
2, 22880, Note_off_c, 1, 53, 0
2, 22880, Note_off_c, 1, 55, 0
2, 22880, Note_on_c, 1, 57, 127
2, 22880, Note_off_c, 1, 59, 0
2, 22880, Note_on_c, 1, 66, 127
2, 22880, Note_on_c, 1, 69, 127
2, 22880, Note_on_c, 1, 74, 127
2, 22880, Note_on_c, 1, 78, 127
2, 23040, Note_off_c, 1, 66, 0
2, 23040, Note_off_c, 1, 69, 0
2, 23040, Note_off_c, 1, 74, 0
2, 23040, Note_off_c, 1, 78, 0
2, 23080, Note_off_c, 1, 57, 0
2, 23080, Note_on_c, 1, 65, 127
2, 23080, Note_on_c, 1, 74, 127
2, 23080, Note_on_c, 1, 77, 127
2, 23080, Note_on_c, 1, 86, 127
2, 23080, Note_on_c, 1, 89, 127
2, 23200, Note_on_c, 1, 47, 127
2, 23200, Note_on_c, 1, 57, 127
2, 23200, Note_on_c, 1, 63, 127
2, 23200, Note_off_c, 1, 65, 0
2, 23200, Note_on_c, 1, 68, 127
2, 23200, Note_off_c, 1, 74, 0
2, 23200, Note_off_c, 1, 77, 0
2, 23200, Note_off_c, 1, 86, 0
2, 23200, Note_off_c, 1, 89, 0
2, 23240, Note_off_c, 1, 47, 0
2, 23240, Note_off_c, 1, 57, 0
2, 23240, Note_off_c, 1, 63, 0
2, 23240, Note_off_c, 1, 68, 0
2, 23440, Note_on_c, 1, 59, 127
2, 23440, Note_on_c, 1, 62, 127
2, 23440, Note_on_c, 1, 64, 127
2, 23440, Note_on_c, 1, 76, 127
2, 23440, Note_on_c, 1, 84, 127
2, 23480, Note_off_c, 1, 64, 0
2, 23480, Note_off_c, 1, 76, 0
2, 23480, Note_off_c, 1, 84, 0
2, 23520, Note_on_c, 1, 83, 127
2, 23560, Note_on_c, 1, 43, 127
2, 23560, Note_on_c, 1, 48, 127
2, 23560, Note_on_c, 1, 51, 127
2, 23560, Note_off_c, 1, 59, 0
2, 23560, Note_on_c, 1, 74, 127
2, 23560, Note_off_c, 1, 83, 0
2, 23600, Note_off_c, 1, 43, 0
2, 23600, Note_off_c, 1, 48, 0
2, 23600, Note_off_c, 1, 51, 0
2, 23600, Note_off_c, 1, 62, 0
2, 23600, Note_off_c, 1, 74, 0
2, 23600, Note_on_c, 1, 78, 127
2, 23600, Note_on_c, 1, 79, 127
2, 23640, Note_on_c, 1, 41, 127
2, 23640, Note_on_c, 1, 50, 127
2, 23640, Note_on_c, 1, 56, 127
2, 23640, Note_on_c, 1, 59, 127
2, 23640, Note_off_c, 1, 78, 0
2, 23640, Note_off_c, 1, 79, 0
2, 23680, Note_off_c, 1, 41, 0
2, 23680, Note_off_c, 1, 50, 0
2, 23680, Note_off_c, 1, 56, 0
2, 23680, Note_on_c, 1, 62, 127
2, 23720, Note_on_c, 1, 54, 127
2, 23720, Note_on_c, 1, 57, 127
2, 23720, Note_off_c, 1, 59, 0
2, 23720, Note_off_c, 1, 62, 0
2, 23720, Note_on_c, 1, 64, 127
2, 23720, Note_on_c, 1, 66, 127
2, 23720, Note_on_c, 1, 69, 127
2, 23720, Note_on_c, 1, 76, 127
2, 23760, Note_off_c, 1, 54, 0
2, 23760, Note_off_c, 1, 57, 0
2, 23760, Note_off_c, 1, 64, 0
2, 23760, Note_off_c, 1, 66, 0
2, 23760, Note_off_c, 1, 69, 0
2, 23760, Note_off_c, 1, 76, 0
2, 23800, Note_on_c, 1, 56, 127
2, 23800, Note_on_c, 1, 64, 127
2, 23800, Note_on_c, 1, 68, 127
2, 23800, Note_on_c, 1, 71, 127
2, 23800, Note_on_c, 1, 76, 127
2, 23920, Note_off_c, 1, 56, 0
2, 23920, Note_off_c, 1, 64, 0
2, 23920, Note_off_c, 1, 68, 0
2, 23920, Note_off_c, 1, 71, 0
2, 23920, Note_off_c, 1, 76, 0
2, 23960, Note_on_c, 1, 55, 127
2, 23960, Note_on_c, 1, 59, 127
2, 23960, Note_on_c, 1, 64, 127
2, 23960, Note_on_c, 1, 67, 127
2, 23960, Note_on_c, 1, 71, 127
2, 23960, Note_on_c, 1, 76, 127
2, 24120, Note_off_c, 1, 55, 0
2, 24120, Note_off_c, 1, 59, 0
2, 24120, Note_off_c, 1, 64, 0
2, 24120, Note_off_c, 1, 67, 0
2, 24120, Note_off_c, 1, 71, 0
2, 24120, Note_off_c, 1, 76, 0
2, 24160, Note_on_c, 1, 33, 127
2, 24160, Note_on_c, 1, 45, 127
2, 24160, Note_on_c, 1, 69, 127
2, 24160, Note_on_c, 1, 72, 127
2, 24160, Note_on_c, 1, 76, 127
2, 24280, Note_off_c, 1, 33, 0
2, 24280, Note_off_c, 1, 45, 0
2, 24280, Note_off_c, 1, 69, 0
2, 24280, Note_off_c, 1, 72, 0
2, 24280, Note_off_c, 1, 76, 0
2, 24320, Note_on_c, 1, 45, 127
2, 24320, Note_on_c, 1, 64, 127
2, 24320, Note_on_c, 1, 72, 127
2, 24320, Note_on_c, 1, 76, 127
2, 24480, Note_off_c, 1, 45, 0
2, 24480, Note_off_c, 1, 64, 0
2, 24480, Note_off_c, 1, 72, 0
2, 24480, Note_off_c, 1, 76, 0
2, 24520, Note_on_c, 1, 52, 127
2, 24520, Note_on_c, 1, 55, 127
2, 24520, Note_on_c, 1, 62, 127
2, 24520, Note_on_c, 1, 74, 127
2, 24640, Note_off_c, 1, 52, 0
2, 24640, Note_off_c, 1, 55, 0
2, 24640, Note_off_c, 1, 62, 0
2, 24640, Note_off_c, 1, 74, 0
2, 24720, Note_on_c, 1, 49, 127
2, 24720, Note_on_c, 1, 55, 127
2, 24720, Note_on_c, 1, 57, 127
2, 24720, Note_on_c, 1, 75, 127
2, 24800, Note_off_c, 1, 75, 0
2, 24840, Note_on_c, 1, 75, 127
2, 24880, Note_off_c, 1, 75, 0
2, 24920, Note_on_c, 1, 78, 127
2, 24960, Note_off_c, 1, 78, 0
2, 25000, Note_on_c, 1, 78, 127
2, 25040, Note_off_c, 1, 78, 0
2, 25080, Note_on_c, 1, 76, 127
2, 25160, Note_off_c, 1, 76, 0
2, 25200, Note_on_c, 1, 76, 127
2, 25240, Note_off_c, 1, 49, 0
2, 25240, Note_off_c, 1, 55, 0
2, 25240, Note_off_c, 1, 57, 0
2, 25240, Note_off_c, 1, 76, 0
2, 25280, Note_on_c, 1, 49, 127
2, 25280, Note_on_c, 1, 55, 127
2, 25280, Note_on_c, 1, 57, 127
2, 25400, Note_off_c, 1, 49, 0
2, 25400, Note_off_c, 1, 55, 0
2, 25400, Note_off_c, 1, 57, 0
2, 25440, Note_on_c, 1, 55, 127
2, 25440, Note_on_c, 1, 57, 127
2, 25440, Note_on_c, 1, 64, 127
2, 25440, Note_on_c, 1, 69, 127
2, 25680, Note_off_c, 1, 55, 0
2, 25680, Note_off_c, 1, 57, 0
2, 25680, Note_off_c, 1, 64, 0
2, 25680, Note_off_c, 1, 69, 0
2, 25720, Note_on_c, 1, 62, 127
2, 25720, Note_on_c, 1, 69, 127
2, 25720, Note_on_c, 1, 81, 127
2, 25720, Note_on_c, 1, 85, 127
2, 25760, Note_off_c, 1, 62, 0
2, 25760, Note_off_c, 1, 69, 0
2, 25760, Note_off_c, 1, 81, 0
2, 25760, Note_off_c, 1, 85, 0
2, 25800, Note_on_c, 1, 52, 127
2, 25800, Note_on_c, 1, 56, 127
2, 25800, Note_on_c, 1, 59, 127
2, 25800, Note_on_c, 1, 64, 127
2, 25800, Note_on_c, 1, 90, 127
2, 25840, Note_on_c, 1, 45, 127
2, 25840, Note_off_c, 1, 52, 0
2, 25840, Note_on_c, 1, 54, 127
2, 25840, Note_off_c, 1, 56, 0
2, 25840, Note_off_c, 1, 59, 0
2, 25840, Note_off_c, 1, 64, 0
2, 25840, Note_on_c, 1, 75, 127
2, 25840, Note_on_c, 1, 78, 127
2, 25840, Note_on_c, 1, 83, 127
2, 25840, Note_on_c, 1, 87, 127
2, 25840, Note_off_c, 1, 90, 0
2, 25880, Note_off_c, 1, 45, 0
2, 25880, Note_on_c, 1, 50, 127
2, 25880, Note_on_c, 1, 60, 127
2, 25880, Note_off_c, 1, 75, 0
2, 25880, Note_off_c, 1, 78, 0
2, 25880, Note_off_c, 1, 83, 0
2, 25880, Note_off_c, 1, 87, 0
2, 25880, Note_on_c, 1, 93, 127
2, 25920, Note_off_c, 1, 50, 0
2, 25920, Note_off_c, 1, 54, 0
2, 25920, Note_off_c, 1, 60, 0
2, 25920, Note_off_c, 1, 93, 0
2, 25960, Note_on_c, 1, 53, 127
2, 25960, Note_on_c, 1, 58, 127
2, 25960, Note_on_c, 1, 61, 127
2, 25960, Note_on_c, 1, 64, 127
2, 25960, Note_on_c, 1, 87, 127
2, 26000, Note_off_c, 1, 53, 0
2, 26000, Note_on_c, 1, 55, 127
2, 26000, Note_on_c, 1, 60, 127
2, 26000, Note_off_c, 1, 61, 0
2, 26000, Note_on_c, 1, 70, 127
2, 26000, Note_on_c, 1, 72, 127
2, 26000, Note_off_c, 1, 87, 0
2, 26040, Note_off_c, 1, 55, 0
2, 26040, Note_off_c, 1, 58, 0
2, 26040, Note_off_c, 1, 60, 0
2, 26040, Note_off_c, 1, 64, 0
2, 26040, Note_off_c, 1, 70, 0
2, 26040, Note_off_c, 1, 72, 0
2, 26080, Note_on_c, 1, 49, 127
2, 26080, Note_on_c, 1, 53, 127
2, 26080, Note_on_c, 1, 59, 127
2, 26080, Note_on_c, 1, 92, 127
2, 26120, Note_off_c, 1, 49, 0
2, 26120, Note_off_c, 1, 53, 0
2, 26120, Note_off_c, 1, 59, 0
2, 26120, Note_off_c, 1, 92, 0
2, 26160, Note_on_c, 1, 68, 127
2, 26160, Note_on_c, 1, 72, 127
2, 26160, Note_on_c, 1, 75, 127
2, 26160, Note_on_c, 1, 78, 127
2, 26160, Note_on_c, 1, 84, 127
2, 26160, Note_on_c, 1, 86, 127
2, 26200, Note_on_c, 1, 49, 127
2, 26200, Note_on_c, 1, 52, 127
2, 26200, Note_on_c, 1, 61, 127
2, 26200, Note_off_c, 1, 68, 0
2, 26200, Note_off_c, 1, 72, 0
2, 26200, Note_on_c, 1, 73, 127
2, 26200, Note_off_c, 1, 75, 0
2, 26200, Note_on_c, 1, 76, 127
2, 26200, Note_off_c, 1, 78, 0
2, 26200, Note_off_c, 1, 84, 0
2, 26200, Note_on_c, 1, 85, 127
2, 26200, Note_off_c, 1, 86, 0
2, 26240, Note_off_c, 1, 49, 0
2, 26240, Note_off_c, 1, 52, 0
2, 26240, Note_off_c, 1, 61, 0
2, 26240, Note_on_c, 1, 64, 127
2, 26240, Note_on_c, 1, 78, 127
2, 26240, Note_off_c, 1, 85, 0
2, 26280, Note_off_c, 1, 64, 0
2, 26280, Note_off_c, 1, 73, 0
2, 26280, Note_off_c, 1, 76, 0
2, 26280, Note_off_c, 1, 78, 0
2, 26320, Note_on_c, 1, 39, 127
2, 26320, Note_on_c, 1, 51, 127
2, 26320, Note_on_c, 1, 63, 127
2, 26320, Note_on_c, 1, 71, 127
2, 26320, Note_on_c, 1, 75, 127
2, 26360, Note_on_c, 1, 38, 127
2, 26360, Note_off_c, 1, 39, 0
2, 26360, Note_on_c, 1, 50, 127
2, 26360, Note_off_c, 1, 51, 0
2, 26360, Note_off_c, 1, 63, 0
2, 26360, Note_off_c, 1, 75, 0
2, 26360, Note_on_c, 1, 77, 127
2, 26360, Note_on_c, 1, 83, 127
2, 26400, Note_off_c, 1, 38, 0
2, 26400, Note_off_c, 1, 50, 0
2, 26400, Note_off_c, 1, 71, 0
2, 26400, Note_off_c, 1, 77, 0
2, 26400, Note_off_c, 1, 83, 0
2, 26440, Note_on_c, 1, 41, 127
2, 26440, Note_on_c, 1, 53, 127
2, 26440, Note_on_c, 1, 74, 127
2, 26440, Note_on_c, 1, 81, 127
2, 26440, Note_on_c, 1, 86, 127
2, 26480, Note_off_c, 1, 41, 0
2, 26480, Note_off_c, 1, 53, 0
2, 26480, Note_off_c, 1, 74, 0
2, 26480, Note_off_c, 1, 81, 0
2, 26480, Note_off_c, 1, 86, 0
2, 26520, Note_on_c, 1, 61, 127
2, 26520, Note_on_c, 1, 64, 127
2, 26520, Note_on_c, 1, 69, 127
2, 26520, Note_on_c, 1, 73, 127
2, 26520, Note_on_c, 1, 85, 127
2, 26560, Note_on_c, 1, 59, 127
2, 26560, Note_off_c, 1, 61, 0
2, 26560, Note_on_c, 1, 68, 127
2, 26560, Note_off_c, 1, 69, 0
2, 26560, Note_on_c, 1, 71, 127
2, 26560, Note_off_c, 1, 73, 0
2, 26560, Note_on_c, 1, 76, 127
2, 26560, Note_on_c, 1, 80, 127
2, 26560, Note_on_c, 1, 83, 127
2, 26560, Note_off_c, 1, 85, 0
2, 26560, Note_on_c, 1, 88, 127
2, 26600, Note_off_c, 1, 59, 0
2, 26600, Note_on_c, 1, 61, 127
2, 26600, Note_off_c, 1, 68, 0
2, 26600, Note_on_c, 1, 69, 127
2, 26600, Note_off_c, 1, 71, 0
2, 26600, Note_on_c, 1, 73, 127
2, 26600, Note_off_c, 1, 76, 0
2, 26600, Note_off_c, 1, 80, 0
2, 26600, Note_on_c, 1, 81, 127
2, 26600, Note_off_c, 1, 83, 0
2, 26600, Note_off_c, 1, 88, 0
2, 26640, Note_off_c, 1, 61, 0
2, 26640, Note_off_c, 1, 64, 0
2, 26640, Note_off_c, 1, 69, 0
2, 26640, Note_off_c, 1, 73, 0
2, 26640, Note_off_c, 1, 81, 0
2, 26680, Note_on_c, 1, 46, 127
2, 26680, Note_on_c, 1, 49, 127
2, 26680, Note_on_c, 1, 52, 127
2, 26680, Note_on_c, 1, 58, 127
2, 26680, Note_on_c, 1, 85, 127
2, 26680, Note_on_c, 1, 88, 127
2, 26680, Note_on_c, 1, 91, 127
2, 26680, Note_on_c, 1, 97, 127
2, 26720, Note_off_c, 1, 46, 0
2, 26720, Note_off_c, 1, 49, 0
2, 26720, Note_off_c, 1, 52, 0
2, 26720, Note_off_c, 1, 58, 0
2, 26720, Note_off_c, 1, 85, 0
2, 26720, Note_off_c, 1, 88, 0
2, 26720, Note_off_c, 1, 91, 0
2, 26720, Note_off_c, 1, 97, 0
2, 26800, Note_on_c, 1, 60, 127
2, 26800, Note_on_c, 1, 66, 127
2, 26800, Note_on_c, 1, 81, 127
2, 26800, Note_on_c, 1, 93, 127
2, 26840, Note_off_c, 1, 60, 0
2, 26840, Note_off_c, 1, 66, 0
2, 26840, Note_off_c, 1, 81, 0
2, 26840, Note_off_c, 1, 93, 0
2, 26880, Note_on_c, 1, 41, 127
2, 26880, Note_on_c, 1, 45, 127
2, 26880, Note_on_c, 1, 48, 127
2, 26880, Note_on_c, 1, 53, 127
2, 26880, Note_on_c, 1, 89, 127
2, 26880, Note_on_c, 1, 93, 127
2, 26880, Note_on_c, 1, 101, 127
2, 27120, Note_off_c, 1, 41, 0
2, 27120, Note_off_c, 1, 45, 0
2, 27120, Note_off_c, 1, 48, 0
2, 27120, Note_off_c, 1, 53, 0
2, 27120, Note_off_c, 1, 89, 0
2, 27120, Note_off_c, 1, 93, 0
2, 27120, Note_off_c, 1, 101, 0
2, 27240, Note_on_c, 1, 48, 127
2, 27240, Note_on_c, 1, 55, 127
2, 27240, Note_on_c, 1, 60, 127
2, 27240, Note_on_c, 1, 67, 127
2, 27240, Note_on_c, 1, 72, 127
2, 27240, Note_on_c, 1, 79, 127
2, 27280, Note_off_c, 1, 48, 0
2, 27280, Note_off_c, 1, 55, 0
2, 27280, Note_off_c, 1, 60, 0
2, 27280, Note_off_c, 1, 67, 0
2, 27280, Note_off_c, 1, 72, 0
2, 27280, Note_off_c, 1, 79, 0
2, 27440, Note_on_c, 1, 40, 127
2, 27440, Note_on_c, 1, 94, 127
2, 27440, Note_on_c, 1, 95, 127
2, 27480, Note_off_c, 1, 40, 0
2, 27480, Note_off_c, 1, 94, 0
2, 27480, Note_off_c, 1, 95, 0
2, 27600, Note_on_c, 1, 78, 127
2, 27600, Note_on_c, 1, 84, 127
2, 27600, Note_on_c, 1, 87, 127
2, 27640, Note_off_c, 1, 78, 0
2, 27640, Note_off_c, 1, 84, 0
2, 27640, Note_off_c, 1, 87, 0
2, 27800, Note_on_c, 1, 84, 127
2, 27800, Note_on_c, 1, 86, 127
2, 27840, Note_off_c, 1, 84, 0
2, 27840, Note_off_c, 1, 86, 0
2, 27880, Note_on_c, 1, 84, 127
2, 27880, Note_on_c, 1, 86, 127
2, 27920, Note_off_c, 1, 84, 0
2, 27920, Note_off_c, 1, 86, 0
2, 27960, Note_on_c, 1, 41, 127
2, 27960, Note_on_c, 1, 49, 127
2, 27960, Note_on_c, 1, 61, 127
2, 27960, Note_on_c, 1, 72, 127
2, 28000, Note_off_c, 1, 41, 0
2, 28000, Note_off_c, 1, 49, 0
2, 28000, Note_off_c, 1, 61, 0
2, 28000, Note_on_c, 1, 63, 127
2, 28000, Note_on_c, 1, 69, 127
2, 28000, Note_on_c, 1, 81, 127
2, 28000, Note_on_c, 1, 89, 127
2, 28000, Note_on_c, 1, 93, 127
2, 28040, Note_off_c, 1, 63, 0
2, 28040, Note_off_c, 1, 69, 0
2, 28040, Note_off_c, 1, 72, 0
2, 28040, Note_off_c, 1, 81, 0
2, 28040, Note_off_c, 1, 89, 0
2, 28040, Note_off_c, 1, 93, 0
2, 28080, Note_on_c, 1, 84, 127
2, 28120, Note_off_c, 1, 84, 0
2, 28160, Note_on_c, 1, 35, 127
2, 28160, Note_on_c, 1, 38, 127
2, 28160, Note_on_c, 1, 43, 127
2, 28160, Note_on_c, 1, 47, 127
2, 28160, Note_on_c, 1, 59, 127
2, 28160, Note_on_c, 1, 62, 127
2, 28160, Note_on_c, 1, 67, 127
2, 28160, Note_on_c, 1, 71, 127
2, 28280, Note_off_c, 1, 35, 0
2, 28280, Note_off_c, 1, 38, 0
2, 28280, Note_off_c, 1, 43, 0
2, 28280, Note_off_c, 1, 47, 0
2, 28280, Note_off_c, 1, 59, 0
2, 28280, Note_off_c, 1, 62, 0
2, 28280, Note_off_c, 1, 67, 0
2, 28280, Note_off_c, 1, 71, 0
2, 28400, Note_on_c, 1, 74, 127
2, 28440, Note_off_c, 1, 74, 0
2, 28440, Note_on_c, 1, 77, 127
2, 28480, Note_on_c, 1, 43, 127
2, 28480, Note_on_c, 1, 50, 127
2, 28480, Note_on_c, 1, 67, 127
2, 28480, Note_on_c, 1, 76, 127
2, 28480, Note_off_c, 1, 77, 0
2, 28520, Note_off_c, 1, 43, 0
2, 28520, Note_off_c, 1, 50, 0
2, 28520, Note_on_c, 1, 60, 127
2, 28520, Note_off_c, 1, 76, 0
2, 28520, Note_on_c, 1, 95, 127
2, 28520, Note_on_c, 1, 96, 127
2, 28560, Note_on_c, 1, 43, 127
2, 28560, Note_on_c, 1, 50, 127
2, 28560, Note_off_c, 1, 60, 0
2, 28560, Note_on_c, 1, 76, 127
2, 28560, Note_off_c, 1, 95, 0
2, 28560, Note_off_c, 1, 96, 0
2, 28640, Note_off_c, 1, 43, 0
2, 28640, Note_off_c, 1, 50, 0
2, 28640, Note_off_c, 1, 67, 0
2, 28640, Note_on_c, 1, 74, 127
2, 28640, Note_off_c, 1, 76, 0
2, 28680, Note_off_c, 1, 74, 0
2, 28680, Note_on_c, 1, 75, 127
2, 28720, Note_on_c, 1, 58, 127
2, 28720, Note_off_c, 1, 75, 0
2, 28760, Note_off_c, 1, 58, 0
2, 28760, Note_on_c, 1, 79, 127
2, 28800, Note_off_c, 1, 79, 0
2, 28840, Note_on_c, 1, 57, 127
2, 28840, Note_on_c, 1, 62, 127
2, 28840, Note_on_c, 1, 66, 127
2, 28840, Note_on_c, 1, 72, 127
2, 28840, Note_on_c, 1, 74, 127
2, 28920, Note_off_c, 1, 57, 0
2, 28920, Note_off_c, 1, 62, 0
2, 28920, Note_off_c, 1, 66, 0
2, 28920, Note_off_c, 1, 72, 0
2, 28920, Note_off_c, 1, 74, 0
2, 28960, Note_on_c, 1, 57, 127
2, 28960, Note_on_c, 1, 62, 127
2, 28960, Note_on_c, 1, 66, 127
2, 28960, Note_on_c, 1, 72, 127
2, 28960, Note_on_c, 1, 74, 127
2, 29040, Note_off_c, 1, 57, 0
2, 29040, Note_off_c, 1, 62, 0
2, 29040, Note_off_c, 1, 66, 0
2, 29040, Note_on_c, 1, 71, 127
2, 29040, Note_off_c, 1, 72, 0
2, 29040, Note_off_c, 1, 74, 0
2, 29080, Note_off_c, 1, 71, 0
2, 29080, Note_on_c, 1, 72, 127
2, 29080, Note_on_c, 1, 74, 127
2, 29080, Note_on_c, 1, 78, 127
2, 29120, Note_off_c, 1, 72, 0
2, 29120, Note_off_c, 1, 74, 0
2, 29120, Note_off_c, 1, 78, 0
2, 29120, Note_on_c, 1, 83, 127
2, 29160, Note_on_c, 1, 65, 127
2, 29160, Note_on_c, 1, 69, 127
2, 29160, Note_off_c, 1, 83, 0
2, 29160, Note_on_c, 1, 86, 127
2, 29200, Note_off_c, 1, 65, 0
2, 29200, Note_off_c, 1, 69, 0
2, 29240, Note_on_c, 1, 56, 127
2, 29240, Note_on_c, 1, 66, 127
2, 29240, Note_on_c, 1, 78, 127
2, 29240, Note_on_c, 1, 81, 127
2, 29240, Note_off_c, 1, 86, 0
2, 29280, Note_off_c, 1, 56, 0
2, 29280, Note_on_c, 1, 62, 127
2, 29280, Note_off_c, 1, 66, 0
2, 29280, Note_on_c, 1, 69, 127
2, 29280, Note_off_c, 1, 78, 0
2, 29280, Note_on_c, 1, 84, 127
2, 29320, Note_on_c, 1, 56, 127
2, 29320, Note_off_c, 1, 62, 0
2, 29320, Note_on_c, 1, 66, 127
2, 29320, Note_off_c, 1, 69, 0
2, 29320, Note_on_c, 1, 78, 127
2, 29320, Note_off_c, 1, 84, 0
2, 29360, Note_off_c, 1, 56, 0
2, 29360, Note_off_c, 1, 66, 0
2, 29360, Note_on_c, 1, 75, 127
2, 29360, Note_off_c, 1, 78, 0
2, 29360, Note_off_c, 1, 81, 0
2, 29360, Note_on_c, 1, 82, 127
2, 29360, Note_on_c, 1, 85, 127
2, 29360, Note_on_c, 1, 87, 127
2, 29400, Note_off_c, 1, 75, 0
2, 29400, Note_off_c, 1, 82, 0
2, 29400, Note_off_c, 1, 85, 0
2, 29400, Note_off_c, 1, 87, 0
2, 29400, Note_on_c, 1, 94, 127
2, 29440, Note_on_c, 1, 64, 127
2, 29440, Note_on_c, 1, 69, 127
2, 29440, Note_on_c, 1, 85, 127
2, 29440, Note_off_c, 1, 94, 0
2, 29480, Note_off_c, 1, 64, 0
2, 29480, Note_off_c, 1, 69, 0
2, 29480, Note_off_c, 1, 85, 0
2, 29520, Note_on_c, 1, 64, 127
2, 29520, Note_on_c, 1, 69, 127
2, 29520, Note_on_c, 1, 85, 127
2, 29560, Note_off_c, 1, 64, 0
2, 29560, Note_off_c, 1, 69, 0
2, 29560, Note_off_c, 1, 85, 0
2, 29560, Note_on_c, 1, 93, 127
2, 29600, Note_on_c, 1, 57, 127
2, 29600, Note_on_c, 1, 65, 127
2, 29600, Note_on_c, 1, 86, 127
2, 29600, Note_off_c, 1, 93, 0
2, 29720, Note_off_c, 1, 57, 0
2, 29720, Note_off_c, 1, 65, 0
2, 29720, Note_off_c, 1, 86, 0
2, 29760, Note_on_c, 1, 42, 127
2, 29760, Note_on_c, 1, 54, 127
2, 29760, Note_on_c, 1, 63, 127
2, 29760, Note_on_c, 1, 69, 127
2, 29760, Note_on_c, 1, 72, 127
2, 29800, Note_off_c, 1, 42, 0
2, 29800, Note_off_c, 1, 54, 0
2, 29800, Note_off_c, 1, 63, 0
2, 29800, Note_off_c, 1, 69, 0
2, 29800, Note_off_c, 1, 72, 0
2, 29840, Note_on_c, 1, 57, 127
2, 29840, Note_on_c, 1, 64, 127
2, 29840, Note_on_c, 1, 72, 127
2, 29840, Note_on_c, 1, 84, 127
2, 29880, Note_off_c, 1, 57, 0
2, 29880, Note_off_c, 1, 64, 0
2, 29880, Note_off_c, 1, 72, 0
2, 29880, Note_off_c, 1, 84, 0
2, 29920, Note_on_c, 1, 57, 127
2, 29920, Note_on_c, 1, 64, 127
2, 29920, Note_on_c, 1, 72, 127
2, 29920, Note_on_c, 1, 84, 127
2, 30000, Note_off_c, 1, 57, 0
2, 30000, Note_on_c, 1, 60, 127
2, 30000, Note_off_c, 1, 64, 0
2, 30000, Note_on_c, 1, 67, 127
2, 30000, Note_off_c, 1, 72, 0
2, 30000, Note_off_c, 1, 84, 0
2, 30040, Note_on_c, 1, 57, 127
2, 30040, Note_off_c, 1, 60, 0
2, 30040, Note_on_c, 1, 64, 127
2, 30040, Note_off_c, 1, 67, 0
2, 30040, Note_on_c, 1, 72, 127
2, 30040, Note_on_c, 1, 84, 127
2, 30080, Note_off_c, 1, 57, 0
2, 30080, Note_off_c, 1, 64, 0
2, 30080, Note_off_c, 1, 72, 0
2, 30080, Note_off_c, 1, 84, 0
2, 30120, Note_on_c, 1, 60, 127
2, 30120, Note_on_c, 1, 69, 127
2, 30120, Note_on_c, 1, 88, 127
2, 30160, Note_off_c, 1, 60, 0
2, 30160, Note_off_c, 1, 69, 0
2, 30160, Note_off_c, 1, 88, 0
2, 30200, Note_on_c, 1, 84, 127
2, 30240, Note_off_c, 1, 84, 0
2, 30280, Note_on_c, 1, 53, 127
2, 30280, Note_on_c, 1, 60, 127
2, 30280, Note_on_c, 1, 81, 127
2, 30280, Note_on_c, 1, 84, 127
2, 30280, Note_on_c, 1, 86, 127
2, 30400, Note_off_c, 1, 81, 0
2, 30400, Note_off_c, 1, 84, 0
2, 30400, Note_off_c, 1, 86, 0
2, 30480, Note_on_c, 1, 31, 127
2, 30480, Note_on_c, 1, 43, 127
2, 30480, Note_on_c, 1, 48, 127
2, 30480, Note_on_c, 1, 52, 127
2, 30480, Note_off_c, 1, 53, 0
2, 30480, Note_on_c, 1, 55, 127
2, 30480, Note_on_c, 1, 58, 127
2, 30480, Note_on_c, 1, 64, 127
2, 30480, Note_on_c, 1, 70, 127
2, 30480, Note_on_c, 1, 72, 127
2, 30520, Note_off_c, 1, 31, 0
2, 30520, Note_off_c, 1, 43, 0
2, 30520, Note_off_c, 1, 48, 0
2, 30520, Note_off_c, 1, 52, 0
2, 30520, Note_off_c, 1, 55, 0
2, 30520, Note_on_c, 1, 56, 127
2, 30520, Note_off_c, 1, 58, 0
2, 30520, Note_off_c, 1, 60, 0
2, 30520, Note_off_c, 1, 64, 0
2, 30520, Note_on_c, 1, 65, 127
2, 30520, Note_off_c, 1, 70, 0
2, 30560, Note_on_c, 1, 31, 127
2, 30560, Note_on_c, 1, 43, 127
2, 30560, Note_on_c, 1, 55, 127
2, 30560, Note_off_c, 1, 56, 0
2, 30560, Note_on_c, 1, 59, 127
2, 30560, Note_on_c, 1, 62, 127
2, 30560, Note_off_c, 1, 65, 0
2, 30560, Note_on_c, 1, 67, 127
2, 30560, Note_off_c, 1, 72, 0
2, 30560, Note_on_c, 1, 79, 127
2, 30560, Note_on_c, 1, 83, 127
2, 30560, Note_on_c, 1, 86, 127
2, 30560, Note_on_c, 1, 91, 127
2, 30600, Note_off_c, 1, 31, 0
2, 30600, Note_off_c, 1, 43, 0
2, 30600, Note_off_c, 1, 55, 0
2, 30600, Note_off_c, 1, 59, 0
2, 30600, Note_off_c, 1, 62, 0
2, 30600, Note_off_c, 1, 67, 0
2, 30600, Note_off_c, 1, 79, 0
2, 30600, Note_off_c, 1, 83, 0
2, 30600, Note_off_c, 1, 86, 0
2, 30600, Note_off_c, 1, 91, 0
2, 30640, Note_on_c, 1, 49, 127
2, 30640, Note_on_c, 1, 55, 127
2, 30640, Note_on_c, 1, 59, 127
2, 30640, Note_on_c, 1, 64, 127
2, 30640, Note_on_c, 1, 76, 127
2, 30680, Note_off_c, 1, 49, 0
2, 30680, Note_off_c, 1, 55, 0
2, 30680, Note_off_c, 1, 59, 0
2, 30680, Note_off_c, 1, 64, 0
2, 30680, Note_on_c, 1, 65, 127
2, 30680, Note_on_c, 1, 71, 127
2, 30680, Note_off_c, 1, 76, 0
2, 30680, Note_on_c, 1, 79, 127
2, 30720, Note_on_c, 1, 47, 127
2, 30720, Note_off_c, 1, 65, 0
2, 30720, Note_off_c, 1, 71, 0
2, 30720, Note_on_c, 1, 76, 127
2, 30720, Note_off_c, 1, 79, 0
2, 30720, Note_on_c, 1, 81, 127
2, 30720, Note_on_c, 1, 86, 127
2, 30720, Note_on_c, 1, 88, 127
2, 30760, Note_off_c, 1, 47, 0
2, 30760, Note_off_c, 1, 76, 0
2, 30760, Note_off_c, 1, 81, 0
2, 30760, Note_off_c, 1, 86, 0
2, 30760, Note_off_c, 1, 88, 0
2, 30800, Note_on_c, 1, 51, 127
2, 30800, Note_on_c, 1, 69, 127
2, 30800, Note_on_c, 1, 72, 127
2, 30800, Note_on_c, 1, 75, 127
2, 30800, Note_on_c, 1, 81, 127
2, 30960, Note_off_c, 1, 51, 0
2, 30960, Note_off_c, 1, 69, 0
2, 30960, Note_off_c, 1, 72, 0
2, 30960, Note_off_c, 1, 75, 0
2, 30960, Note_off_c, 1, 81, 0
2, 31000, Note_on_c, 1, 72, 127
2, 31000, Note_on_c, 1, 75, 127
2, 31000, Note_on_c, 1, 79, 127
2, 31000, Note_on_c, 1, 87, 127
2, 31120, Note_off_c, 1, 72, 0
2, 31120, Note_off_c, 1, 75, 0
2, 31120, Note_off_c, 1, 79, 0
2, 31120, Note_off_c, 1, 87, 0
2, 31200, Note_on_c, 1, 43, 127
2, 31200, Note_on_c, 1, 50, 127
2, 31200, Note_on_c, 1, 55, 127
2, 31200, Note_on_c, 1, 71, 127
2, 31200, Note_on_c, 1, 79, 127
2, 31200, Note_on_c, 1, 83, 127
2, 31280, Note_off_c, 1, 43, 0
2, 31280, Note_off_c, 1, 50, 0
2, 31280, Note_off_c, 1, 55, 0
2, 31280, Note_off_c, 1, 71, 0
2, 31280, Note_off_c, 1, 79, 0
2, 31280, Note_off_c, 1, 83, 0
2, 31320, Note_on_c, 1, 59, 127
2, 31320, Note_on_c, 1, 68, 127
2, 31320, Note_on_c, 1, 77, 127
2, 31320, Note_on_c, 1, 89, 127
2, 31360, Note_off_c, 1, 59, 0
2, 31360, Note_off_c, 1, 68, 0
2, 31360, Note_off_c, 1, 77, 0
2, 31360, Note_off_c, 1, 89, 0
2, 31400, Note_on_c, 1, 59, 127
2, 31400, Note_on_c, 1, 68, 127
2, 31400, Note_on_c, 1, 77, 127
2, 31400, Note_on_c, 1, 89, 127
2, 31520, Note_off_c, 1, 59, 0
2, 31520, Note_off_c, 1, 68, 0
2, 31520, Note_off_c, 1, 77, 0
2, 31520, Note_off_c, 1, 89, 0
2, 31560, Note_on_c, 1, 46, 127
2, 31560, Note_on_c, 1, 51, 127
2, 31560, Note_on_c, 1, 54, 127
2, 31560, Note_on_c, 1, 58, 127
2, 31560, Note_on_c, 1, 70, 127
2, 31560, Note_on_c, 1, 75, 127
2, 31560, Note_on_c, 1, 78, 127
2, 31560, Note_on_c, 1, 82, 127
2, 31640, Note_off_c, 1, 46, 0
2, 31640, Note_on_c, 1, 50, 127
2, 31640, Note_off_c, 1, 51, 0
2, 31640, Note_off_c, 1, 54, 0
2, 31640, Note_off_c, 1, 58, 0
2, 31640, Note_on_c, 1, 62, 127
2, 31640, Note_off_c, 1, 70, 0
2, 31640, Note_on_c, 1, 74, 127
2, 31640, Note_off_c, 1, 75, 0
2, 31640, Note_off_c, 1, 78, 0
2, 31640, Note_off_c, 1, 82, 0
2, 31640, Note_on_c, 1, 83, 127
2, 31680, Note_off_c, 1, 50, 0
2, 31680, Note_off_c, 1, 62, 0
2, 31680, Note_off_c, 1, 74, 0
2, 31680, Note_off_c, 1, 83, 0
2, 31720, Note_on_c, 1, 36, 127
2, 31720, Note_on_c, 1, 42, 127
2, 31720, Note_on_c, 1, 45, 127
2, 31720, Note_on_c, 1, 48, 127
2, 31720, Note_on_c, 1, 66, 127
2, 31720, Note_on_c, 1, 72, 127
2, 31760, Note_off_c, 1, 36, 0
2, 31760, Note_off_c, 1, 42, 0
2, 31760, Note_off_c, 1, 45, 0
2, 31760, Note_off_c, 1, 48, 0
2, 31760, Note_on_c, 1, 49, 127
2, 31760, Note_on_c, 1, 57, 127
2, 31760, Note_on_c, 1, 76, 127
2, 31800, Note_off_c, 1, 49, 0
2, 31800, Note_off_c, 1, 57, 0
2, 31800, Note_off_c, 1, 66, 0
2, 31800, Note_on_c, 1, 68, 127
2, 31800, Note_off_c, 1, 76, 0
2, 31800, Note_on_c, 1, 78, 127
2, 31800, Note_on_c, 1, 88, 127
2, 31800, Note_on_c, 1, 96, 127
2, 31800, Note_on_c, 1, 100, 127
2, 31840, Note_on_c, 1, 57, 127
2, 31840, Note_on_c, 1, 60, 127
2, 31840, Note_on_c, 1, 65, 127
2, 31840, Note_off_c, 1, 68, 0
2, 31840, Note_on_c, 1, 69, 127
2, 31840, Note_off_c, 1, 72, 0
2, 31840, Note_on_c, 1, 77, 127
2, 31840, Note_off_c, 1, 78, 0
2, 31840, Note_off_c, 1, 88, 0
2, 31840, Note_on_c, 1, 89, 127
2, 31840, Note_off_c, 1, 96, 0
2, 31840, Note_off_c, 1, 100, 0
2, 31880, Note_off_c, 1, 57, 0
2, 31880, Note_off_c, 1, 60, 0
2, 31880, Note_off_c, 1, 65, 0
2, 31880, Note_off_c, 1, 69, 0
2, 31880, Note_off_c, 1, 77, 0
2, 31880, Note_off_c, 1, 89, 0
2, 31920, Note_on_c, 1, 38, 127
2, 31920, Note_on_c, 1, 67, 127
2, 31920, Note_on_c, 1, 75, 127
2, 31920, Note_on_c, 1, 79, 127
2, 32040, Note_off_c, 1, 38, 0
2, 32040, Note_off_c, 1, 67, 0
2, 32040, Note_off_c, 1, 75, 0
2, 32040, Note_off_c, 1, 79, 0
2, 32080, Note_on_c, 1, 39, 127
2, 32080, Note_on_c, 1, 46, 127
2, 32080, Note_on_c, 1, 51, 127
2, 32080, Note_on_c, 1, 67, 127
2, 32080, Note_on_c, 1, 75, 127
2, 32080, Note_on_c, 1, 79, 127
2, 32240, Note_off_c, 1, 39, 0
2, 32240, Note_off_c, 1, 46, 0
2, 32240, Note_off_c, 1, 51, 0
2, 32240, Note_off_c, 1, 67, 0
2, 32240, Note_off_c, 1, 75, 0
2, 32240, Note_off_c, 1, 79, 0
2, 32280, Note_on_c, 1, 39, 127
2, 32280, Note_on_c, 1, 46, 127
2, 32280, Note_on_c, 1, 51, 127
2, 32280, Note_on_c, 1, 67, 127
2, 32280, Note_on_c, 1, 75, 127
2, 32280, Note_on_c, 1, 79, 127
2, 32400, Note_off_c, 1, 39, 0
2, 32400, Note_off_c, 1, 46, 0
2, 32400, Note_off_c, 1, 51, 0
2, 32400, Note_off_c, 1, 67, 0
2, 32400, Note_off_c, 1, 75, 0
2, 32400, Note_off_c, 1, 79, 0
2, 32440, Note_on_c, 1, 39, 127
2, 32440, Note_on_c, 1, 46, 127
2, 32440, Note_on_c, 1, 51, 127
2, 32440, Note_on_c, 1, 67, 127
2, 32440, Note_on_c, 1, 75, 127
2, 32440, Note_on_c, 1, 79, 127
2, 32600, Note_off_c, 1, 39, 0
2, 32600, Note_off_c, 1, 46, 0
2, 32600, Note_off_c, 1, 51, 0
2, 32600, Note_off_c, 1, 67, 0
2, 32600, Note_off_c, 1, 75, 0
2, 32600, Note_off_c, 1, 79, 0
2, 32640, Note_on_c, 1, 39, 127
2, 32640, Note_on_c, 1, 46, 127
2, 32640, Note_on_c, 1, 51, 127
2, 32640, Note_on_c, 1, 67, 127
2, 32640, Note_on_c, 1, 75, 127
2, 32640, Note_on_c, 1, 79, 127
2, 32760, Note_off_c, 1, 39, 0
2, 32760, Note_off_c, 1, 46, 0
2, 32760, Note_off_c, 1, 51, 0
2, 32760, Note_off_c, 1, 67, 0
2, 32760, Note_off_c, 1, 75, 0
2, 32760, Note_off_c, 1, 79, 0
2, 32800, Note_on_c, 1, 32, 127
2, 32800, Note_on_c, 1, 44, 127
2, 32800, Note_on_c, 1, 63, 127
2, 32800, Note_on_c, 1, 75, 127
2, 32920, Note_off_c, 1, 32, 0
2, 32920, Note_off_c, 1, 44, 0
2, 32920, Note_off_c, 1, 63, 0
2, 32920, Note_off_c, 1, 75, 0
2, 32960, Note_on_c, 1, 32, 127
2, 32960, Note_on_c, 1, 44, 127
2, 32960, Note_on_c, 1, 60, 127
2, 32960, Note_on_c, 1, 72, 127
2, 33120, Note_off_c, 1, 32, 0
2, 33120, Note_off_c, 1, 44, 0
2, 33120, Note_off_c, 1, 60, 0
2, 33120, Note_off_c, 1, 72, 0
2, 33160, Note_on_c, 1, 31, 127
2, 33160, Note_on_c, 1, 43, 127
2, 33160, Note_on_c, 1, 64, 127
2, 33160, Note_on_c, 1, 70, 127
2, 33160, Note_on_c, 1, 73, 127
2, 33240, Note_off_c, 1, 31, 0
2, 33240, Note_off_c, 1, 43, 0
2, 33240, Note_off_c, 1, 64, 0
2, 33240, Note_off_c, 1, 70, 0
2, 33240, Note_off_c, 1, 73, 0
2, 33280, Note_on_c, 1, 31, 127
2, 33280, Note_on_c, 1, 43, 127
2, 33280, Note_on_c, 1, 64, 127
2, 33280, Note_on_c, 1, 70, 127
2, 33280, Note_on_c, 1, 73, 127
2, 33320, Note_off_c, 1, 31, 0
2, 33320, Note_off_c, 1, 43, 0
2, 33320, Note_off_c, 1, 64, 0
2, 33320, Note_off_c, 1, 70, 0
2, 33320, Note_off_c, 1, 73, 0
2, 33360, Note_on_c, 1, 51, 127
2, 33360, Note_on_c, 1, 53, 127
2, 33360, Note_on_c, 1, 56, 127
2, 33360, Note_on_c, 1, 58, 127
2, 33360, Note_on_c, 1, 62, 127
2, 33360, Note_on_c, 1, 86, 127
2, 33480, Note_off_c, 1, 51, 0
2, 33480, Note_off_c, 1, 53, 0
2, 33480, Note_off_c, 1, 56, 0
2, 33480, Note_off_c, 1, 58, 0
2, 33480, Note_off_c, 1, 62, 0
2, 33480, Note_off_c, 1, 86, 0
2, 33520, Note_on_c, 1, 51, 127
2, 33520, Note_on_c, 1, 53, 127
2, 33520, Note_on_c, 1, 56, 127
2, 33520, Note_on_c, 1, 58, 127
2, 33520, Note_on_c, 1, 62, 127
2, 33520, Note_on_c, 1, 86, 127
2, 33640, Note_off_c, 1, 51, 0
2, 33640, Note_off_c, 1, 53, 0
2, 33640, Note_off_c, 1, 56, 0
2, 33640, Note_off_c, 1, 58, 0
2, 33640, Note_off_c, 1, 62, 0
2, 33640, Note_off_c, 1, 86, 0
2, 33720, Note_on_c, 1, 51, 127
2, 33720, Note_on_c, 1, 53, 127
2, 33720, Note_on_c, 1, 56, 127
2, 33720, Note_on_c, 1, 58, 127
2, 33720, Note_on_c, 1, 62, 127
2, 33720, Note_on_c, 1, 86, 127
2, 33840, Note_off_c, 1, 51, 0
2, 33840, Note_off_c, 1, 53, 0
2, 33840, Note_off_c, 1, 56, 0
2, 33840, Note_off_c, 1, 58, 0
2, 33840, Note_off_c, 1, 62, 0
2, 33840, Note_off_c, 1, 86, 0
2, 33880, Note_on_c, 1, 36, 127
2, 33880, Note_on_c, 1, 40, 127
2, 33880, Note_on_c, 1, 48, 127
2, 33880, Note_on_c, 1, 79, 127
2, 33880, Note_on_c, 1, 84, 127
2, 33880, Note_on_c, 1, 88, 127
2, 33880, Note_on_c, 1, 91, 127
2, 34000, Note_off_c, 1, 36, 0
2, 34000, Note_off_c, 1, 40, 0
2, 34000, Note_off_c, 1, 48, 0
2, 34000, Note_off_c, 1, 79, 0
2, 34000, Note_off_c, 1, 84, 0
2, 34000, Note_off_c, 1, 88, 0
2, 34000, Note_off_c, 1, 91, 0
2, 34040, Note_on_c, 1, 36, 127
2, 34040, Note_on_c, 1, 40, 127
2, 34040, Note_on_c, 1, 48, 127
2, 34040, Note_on_c, 1, 76, 127
2, 34040, Note_on_c, 1, 88, 127
2, 34200, Note_off_c, 1, 36, 0
2, 34200, Note_off_c, 1, 40, 0
2, 34200, Note_off_c, 1, 48, 0
2, 34200, Note_off_c, 1, 76, 0
2, 34200, Note_off_c, 1, 88, 0
2, 34240, Note_on_c, 1, 49, 127
2, 34240, Note_on_c, 1, 56, 127
2, 34240, Note_on_c, 1, 61, 127
2, 34240, Note_on_c, 1, 76, 127
2, 34240, Note_on_c, 1, 80, 127
2, 34240, Note_on_c, 1, 85, 127
2, 34240, Note_on_c, 1, 88, 127
2, 34360, Note_off_c, 1, 49, 0
2, 34360, Note_off_c, 1, 56, 0
2, 34360, Note_off_c, 1, 61, 0
2, 34360, Note_off_c, 1, 76, 0
2, 34360, Note_off_c, 1, 80, 0
2, 34360, Note_off_c, 1, 85, 0
2, 34360, Note_off_c, 1, 88, 0
2, 34400, Note_on_c, 1, 49, 127
2, 34400, Note_on_c, 1, 56, 127
2, 34400, Note_on_c, 1, 61, 127
2, 34400, Note_on_c, 1, 76, 127
2, 34400, Note_on_c, 1, 80, 127
2, 34400, Note_on_c, 1, 85, 127
2, 34400, Note_on_c, 1, 88, 127
2, 34520, Note_off_c, 1, 49, 0
2, 34520, Note_off_c, 1, 56, 0
2, 34520, Note_off_c, 1, 61, 0
2, 34520, Note_off_c, 1, 76, 0
2, 34520, Note_off_c, 1, 80, 0
2, 34520, Note_off_c, 1, 85, 0
2, 34520, Note_off_c, 1, 88, 0
2, 34560, Note_on_c, 1, 44, 127
2, 34560, Note_on_c, 1, 48, 127
2, 34560, Note_on_c, 1, 72, 127
2, 34560, Note_on_c, 1, 74, 127
2, 34560, Note_on_c, 1, 84, 127
2, 34600, Note_on_c, 1, 32, 127
2, 34600, Note_on_c, 1, 37, 127
2, 34600, Note_off_c, 1, 48, 0
2, 34600, Note_on_c, 1, 61, 127
2, 34600, Note_off_c, 1, 72, 0
2, 34600, Note_off_c, 1, 74, 0
2, 34600, Note_off_c, 1, 84, 0
2, 34640, Note_off_c, 1, 32, 0
2, 34640, Note_off_c, 1, 37, 0
2, 34640, Note_on_c, 1, 48, 127
2, 34640, Note_off_c, 1, 61, 0
2, 34640, Note_on_c, 1, 72, 127
2, 34640, Note_on_c, 1, 74, 127
2, 34640, Note_on_c, 1, 84, 127
2, 34720, Note_off_c, 1, 44, 0
2, 34720, Note_off_c, 1, 48, 0
2, 34720, Note_off_c, 1, 72, 0
2, 34720, Note_off_c, 1, 74, 0
2, 34720, Note_off_c, 1, 84, 0
2, 34760, Note_on_c, 1, 33, 127
2, 34760, Note_on_c, 1, 45, 127
2, 34760, Note_on_c, 1, 71, 127
2, 34760, Note_on_c, 1, 74, 127
2, 34880, Note_off_c, 1, 33, 0
2, 34880, Note_off_c, 1, 45, 0
2, 34880, Note_off_c, 1, 71, 0
2, 34880, Note_off_c, 1, 74, 0
2, 34920, Note_on_c, 1, 33, 127
2, 34920, Note_on_c, 1, 45, 127
2, 34920, Note_on_c, 1, 71, 127
2, 34920, Note_on_c, 1, 74, 127
2, 35040, Note_off_c, 1, 33, 0
2, 35040, Note_off_c, 1, 45, 0
2, 35040, Note_off_c, 1, 71, 0
2, 35040, Note_off_c, 1, 74, 0
2, 35080, Note_on_c, 1, 48, 127
2, 35080, Note_on_c, 1, 50, 127
2, 35080, Note_on_c, 1, 54, 127
2, 35080, Note_on_c, 1, 60, 127
2, 35080, Note_on_c, 1, 72, 127
2, 35080, Note_on_c, 1, 74, 127
2, 35080, Note_on_c, 1, 78, 127
2, 35080, Note_on_c, 1, 84, 127
2, 35240, Note_off_c, 1, 48, 0
2, 35240, Note_off_c, 1, 50, 0
2, 35240, Note_off_c, 1, 54, 0
2, 35240, Note_off_c, 1, 60, 0
2, 35240, Note_off_c, 1, 72, 0
2, 35240, Note_off_c, 1, 74, 0
2, 35240, Note_off_c, 1, 78, 0
2, 35240, Note_off_c, 1, 84, 0
2, 35320, Note_on_c, 1, 43, 127
2, 35320, Note_on_c, 1, 50, 127
2, 35320, Note_on_c, 1, 71, 127
2, 35320, Note_on_c, 1, 79, 127
2, 35440, Note_off_c, 1, 43, 0
2, 35440, Note_off_c, 1, 50, 0
2, 35440, Note_off_c, 1, 71, 0
2, 35440, Note_off_c, 1, 79, 0
2, 35480, Note_on_c, 1, 36, 127
2, 35480, Note_on_c, 1, 48, 127
2, 35480, Note_on_c, 1, 69, 127
2, 35480, Note_on_c, 1, 72, 127
2, 35480, Note_on_c, 1, 76, 127
2, 35480, Note_on_c, 1, 81, 127
2, 35600, Note_off_c, 1, 36, 0
2, 35600, Note_off_c, 1, 48, 0
2, 35600, Note_off_c, 1, 69, 0
2, 35600, Note_off_c, 1, 72, 0
2, 35600, Note_off_c, 1, 76, 0
2, 35600, Note_off_c, 1, 81, 0
2, 35640, Note_on_c, 1, 36, 127
2, 35640, Note_on_c, 1, 48, 127
2, 35640, Note_on_c, 1, 69, 127
2, 35640, Note_on_c, 1, 72, 127
2, 35640, Note_on_c, 1, 76, 127
2, 35640, Note_on_c, 1, 81, 127
2, 35800, Note_off_c, 1, 36, 0
2, 35800, Note_off_c, 1, 48, 0
2, 35800, Note_off_c, 1, 69, 0
2, 35800, Note_off_c, 1, 72, 0
2, 35800, Note_off_c, 1, 76, 0
2, 35800, Note_off_c, 1, 81, 0
2, 35840, Note_on_c, 1, 52, 127
2, 35840, Note_on_c, 1, 74, 127
2, 35840, Note_on_c, 1, 76, 127
2, 35840, Note_on_c, 1, 80, 127
2, 35840, Note_on_c, 1, 83, 127
2, 35840, Note_on_c, 1, 88, 127
2, 35960, Note_off_c, 1, 52, 0
2, 35960, Note_off_c, 1, 74, 0
2, 35960, Note_off_c, 1, 76, 0
2, 35960, Note_off_c, 1, 80, 0
2, 35960, Note_off_c, 1, 83, 0
2, 35960, Note_off_c, 1, 88, 0
2, 36000, Note_on_c, 1, 31, 127
2, 36000, Note_on_c, 1, 43, 127
2, 36000, Note_on_c, 1, 66, 127
2, 36000, Note_on_c, 1, 78, 127
2, 36120, Note_off_c, 1, 31, 0
2, 36120, Note_off_c, 1, 43, 0
2, 36120, Note_off_c, 1, 66, 0
2, 36120, Note_off_c, 1, 78, 0
2, 36160, Note_on_c, 1, 31, 127
2, 36160, Note_on_c, 1, 43, 127
2, 36160, Note_on_c, 1, 66, 127
2, 36160, Note_on_c, 1, 78, 127
2, 36320, Note_off_c, 1, 31, 0
2, 36320, Note_off_c, 1, 43, 0
2, 36320, Note_off_c, 1, 66, 0
2, 36320, Note_off_c, 1, 78, 0
2, 36360, Note_on_c, 1, 44, 127
2, 36360, Note_on_c, 1, 51, 127
2, 36360, Note_on_c, 1, 58, 127
2, 36360, Note_on_c, 1, 75, 127
2, 36360, Note_on_c, 1, 79, 127
2, 36360, Note_on_c, 1, 85, 127
2, 36360, Note_on_c, 1, 87, 127
2, 36480, Note_off_c, 1, 44, 0
2, 36480, Note_off_c, 1, 51, 0
2, 36480, Note_off_c, 1, 58, 0
2, 36480, Note_off_c, 1, 75, 0
2, 36480, Note_off_c, 1, 79, 0
2, 36480, Note_off_c, 1, 85, 0
2, 36480, Note_off_c, 1, 87, 0
2, 36520, Note_on_c, 1, 48, 127
2, 36520, Note_on_c, 1, 57, 127
2, 36520, Note_on_c, 1, 67, 127
2, 36520, Note_on_c, 1, 69, 127
2, 36520, Note_on_c, 1, 75, 127
2, 36520, Note_on_c, 1, 79, 127
2, 36640, Note_off_c, 1, 48, 0
2, 36640, Note_off_c, 1, 57, 0
2, 36640, Note_off_c, 1, 67, 0
2, 36640, Note_off_c, 1, 69, 0
2, 36640, Note_off_c, 1, 75, 0
2, 36640, Note_off_c, 1, 79, 0
2, 36680, Note_on_c, 1, 33, 127
2, 36680, Note_on_c, 1, 45, 127
2, 36680, Note_on_c, 1, 57, 127
2, 36680, Note_on_c, 1, 60, 127
2, 36680, Note_on_c, 1, 65, 127
2, 36840, Note_off_c, 1, 33, 0
2, 36840, Note_off_c, 1, 45, 0
2, 36840, Note_off_c, 1, 57, 0
2, 36840, Note_off_c, 1, 60, 0
2, 36840, Note_off_c, 1, 65, 0
2, 36880, Note_on_c, 1, 33, 127
2, 36880, Note_on_c, 1, 45, 127
2, 36880, Note_on_c, 1, 57, 127
2, 36880, Note_on_c, 1, 60, 127
2, 36880, Note_on_c, 1, 65, 127
2, 37000, Note_off_c, 1, 33, 0
2, 37000, Note_off_c, 1, 45, 0
2, 37000, Note_off_c, 1, 57, 0
2, 37000, Note_off_c, 1, 60, 0
2, 37000, Note_off_c, 1, 65, 0
2, 37040, Note_on_c, 1, 33, 127
2, 37040, Note_on_c, 1, 45, 127
2, 37040, Note_on_c, 1, 57, 127
2, 37040, Note_on_c, 1, 60, 127
2, 37040, Note_on_c, 1, 65, 127
2, 37200, Note_off_c, 1, 33, 0
2, 37200, Note_off_c, 1, 45, 0
2, 37200, Note_off_c, 1, 57, 0
2, 37200, Note_off_c, 1, 60, 0
2, 37200, Note_off_c, 1, 65, 0
2, 37280, Note_on_c, 1, 36, 127
2, 37280, Note_on_c, 1, 48, 127
2, 37280, Note_on_c, 1, 65, 127
2, 37280, Note_on_c, 1, 67, 127
2, 37400, Note_off_c, 1, 36, 0
2, 37400, Note_off_c, 1, 48, 0
2, 37400, Note_off_c, 1, 65, 0
2, 37400, Note_off_c, 1, 67, 0
2, 37440, Note_on_c, 1, 57, 127
2, 37440, Note_on_c, 1, 62, 127
2, 37440, Note_on_c, 1, 84, 127
2, 37440, Note_on_c, 1, 90, 127
2, 37440, Note_on_c, 1, 95, 127
2, 37560, Note_off_c, 1, 57, 0
2, 37560, Note_off_c, 1, 62, 0
2, 37560, Note_off_c, 1, 84, 0
2, 37560, Note_off_c, 1, 90, 0
2, 37560, Note_off_c, 1, 95, 0
2, 37600, Note_on_c, 1, 41, 127
2, 37600, Note_on_c, 1, 53, 127
2, 37600, Note_on_c, 1, 65, 127
2, 37600, Note_on_c, 1, 70, 127
2, 37600, Note_on_c, 1, 74, 127
2, 37600, Note_on_c, 1, 77, 127
2, 37720, Note_off_c, 1, 41, 0
2, 37720, Note_on_c, 1, 46, 127
2, 37720, Note_off_c, 1, 53, 0
2, 37720, Note_on_c, 1, 58, 127
2, 37760, Note_off_c, 1, 46, 0
2, 37760, Note_off_c, 1, 58, 0
2, 37760, Note_off_c, 1, 65, 0
2, 37760, Note_off_c, 1, 70, 0
2, 37760, Note_off_c, 1, 74, 0
2, 37760, Note_off_c, 1, 77, 0
2, 37800, Note_on_c, 1, 39, 127
2, 37800, Note_on_c, 1, 51, 127
2, 37800, Note_on_c, 1, 67, 127
2, 37800, Note_on_c, 1, 70, 127
2, 37800, Note_on_c, 1, 75, 127
2, 37800, Note_on_c, 1, 79, 127
2, 37920, Note_off_c, 1, 39, 0
2, 37920, Note_off_c, 1, 51, 0
2, 37920, Note_off_c, 1, 67, 0
2, 37920, Note_off_c, 1, 70, 0
2, 37920, Note_off_c, 1, 75, 0
2, 37920, Note_off_c, 1, 79, 0
2, 37960, Note_on_c, 1, 39, 127
2, 37960, Note_on_c, 1, 46, 127
2, 37960, Note_on_c, 1, 51, 127
2, 37960, Note_on_c, 1, 67, 127
2, 37960, Note_on_c, 1, 70, 127
2, 37960, Note_on_c, 1, 75, 127
2, 37960, Note_on_c, 1, 79, 127
2, 38280, Note_off_c, 1, 39, 0
2, 38280, Note_off_c, 1, 46, 0
2, 38280, Note_off_c, 1, 51, 0
2, 38280, Note_off_c, 1, 67, 0
2, 38280, Note_off_c, 1, 70, 0
2, 38280, Note_off_c, 1, 75, 0
2, 38280, Note_off_c, 1, 79, 0
2, 38320, Note_on_c, 1, 34, 127
2, 38320, Note_on_c, 1, 46, 127
2, 38320, Note_on_c, 1, 65, 127
2, 38320, Note_on_c, 1, 68, 127
2, 38320, Note_on_c, 1, 74, 127
2, 38320, Note_on_c, 1, 77, 127
2, 38440, Note_off_c, 1, 34, 0
2, 38440, Note_off_c, 1, 46, 0
2, 38440, Note_off_c, 1, 65, 0
2, 38440, Note_off_c, 1, 68, 0
2, 38440, Note_off_c, 1, 74, 0
2, 38440, Note_off_c, 1, 77, 0
2, 38480, Note_on_c, 1, 50, 127
2, 38480, Note_on_c, 1, 56, 127
2, 38480, Note_on_c, 1, 62, 127
2, 38480, Note_on_c, 1, 65, 127
2, 38480, Note_on_c, 1, 71, 127
2, 38480, Note_on_c, 1, 77, 127
2, 38600, Note_off_c, 1, 50, 0
2, 38600, Note_off_c, 1, 56, 0
2, 38600, Note_off_c, 1, 62, 0
2, 38600, Note_off_c, 1, 65, 0
2, 38600, Note_off_c, 1, 71, 0
2, 38600, Note_off_c, 1, 77, 0
2, 38640, Note_on_c, 1, 36, 127
2, 38640, Note_on_c, 1, 48, 127
2, 38640, Note_on_c, 1, 76, 127
2, 38640, Note_on_c, 1, 79, 127
2, 38640, Note_on_c, 1, 84, 127
2, 38640, Note_on_c, 1, 88, 127
2, 38800, Note_off_c, 1, 36, 0
2, 38800, Note_off_c, 1, 48, 0
2, 38800, Note_off_c, 1, 76, 0
2, 38800, Note_off_c, 1, 79, 0
2, 38800, Note_off_c, 1, 84, 0
2, 38800, Note_off_c, 1, 88, 0
2, 38840, Note_on_c, 1, 43, 127
2, 38840, Note_on_c, 1, 55, 127
2, 38840, Note_on_c, 1, 72, 127
2, 38840, Note_on_c, 1, 79, 127
2, 38960, Note_off_c, 1, 43, 0
2, 38960, Note_off_c, 1, 55, 0
2, 38960, Note_off_c, 1, 72, 0
2, 38960, Note_off_c, 1, 79, 0
2, 39000, Note_on_c, 1, 41, 127
2, 39000, Note_on_c, 1, 53, 127
2, 39000, Note_on_c, 1, 70, 127
2, 39000, Note_on_c, 1, 73, 127
2, 39000, Note_on_c, 1, 77, 127
2, 39120, Note_off_c, 1, 41, 0
2, 39120, Note_off_c, 1, 53, 0
2, 39120, Note_off_c, 1, 70, 0
2, 39120, Note_off_c, 1, 73, 0
2, 39120, Note_off_c, 1, 77, 0
2, 39160, Note_on_c, 1, 41, 127
2, 39160, Note_on_c, 1, 53, 127
2, 39160, Note_on_c, 1, 70, 127
2, 39160, Note_on_c, 1, 73, 127
2, 39160, Note_on_c, 1, 77, 127
2, 39320, Note_off_c, 1, 41, 0
2, 39320, Note_off_c, 1, 53, 0
2, 39320, Note_off_c, 1, 70, 0
2, 39320, Note_off_c, 1, 73, 0
2, 39320, Note_off_c, 1, 77, 0
2, 39400, Note_on_c, 1, 41, 127
2, 39400, Note_on_c, 1, 53, 127
2, 39400, Note_on_c, 1, 70, 127
2, 39400, Note_on_c, 1, 73, 127
2, 39400, Note_on_c, 1, 77, 127
2, 39520, Note_off_c, 1, 41, 0
2, 39520, Note_off_c, 1, 53, 0
2, 39520, Note_off_c, 1, 70, 0
2, 39520, Note_off_c, 1, 73, 0
2, 39520, Note_off_c, 1, 77, 0
2, 39560, Note_on_c, 1, 36, 127
2, 39560, Note_on_c, 1, 48, 127
2, 39560, Note_on_c, 1, 64, 127
2, 39560, Note_on_c, 1, 72, 127
2, 39680, Note_off_c, 1, 36, 0
2, 39680, Note_off_c, 1, 48, 0
2, 39680, Note_off_c, 1, 64, 0
2, 39680, Note_off_c, 1, 72, 0
2, 39920, Note_on_c, 1, 41, 127
2, 39920, Note_on_c, 1, 53, 127
2, 39920, Note_on_c, 1, 77, 127
2, 40200, Note_off_c, 1, 41, 0
2, 40200, Note_off_c, 1, 53, 0
2, 40200, Note_off_c, 1, 77, 0
2, 40240, Note_on_c, 1, 38, 127
2, 40240, Note_on_c, 1, 50, 127
2, 40240, Note_on_c, 1, 74, 127
2, 40360, Note_off_c, 1, 74, 0
2, 40440, Note_on_c, 1, 74, 127
2, 40560, Note_off_c, 1, 74, 0
2, 40600, Note_on_c, 1, 74, 127
2, 40760, Note_off_c, 1, 74, 0
2, 40800, Note_on_c, 1, 74, 127
2, 40920, Note_off_c, 1, 38, 0
2, 40920, Note_off_c, 1, 50, 0
2, 40920, Note_off_c, 1, 74, 0
2, 40960, Note_on_c, 1, 40, 127
2, 40960, Note_on_c, 1, 52, 127
2, 40960, Note_on_c, 1, 81, 127
2, 41080, Note_off_c, 1, 81, 0
2, 41120, Note_on_c, 1, 79, 127
2, 41160, Note_off_c, 1, 79, 0
2, 41160, Note_on_c, 1, 82, 127
2, 41200, Note_on_c, 1, 79, 127
2, 41200, Note_off_c, 1, 82, 0
2, 41240, Note_off_c, 1, 79, 0
2, 41240, Note_on_c, 1, 82, 127
2, 41280, Note_off_c, 1, 40, 0
2, 41280, Note_off_c, 1, 52, 0
2, 41280, Note_off_c, 1, 82, 0
2, 41360, Note_on_c, 1, 40, 127
2, 41360, Note_on_c, 1, 52, 127
2, 41360, Note_on_c, 1, 82, 127
2, 41480, Note_off_c, 1, 40, 0
2, 41480, Note_off_c, 1, 52, 0
2, 41520, Note_on_c, 1, 40, 127
2, 41520, Note_on_c, 1, 52, 127
2, 41640, Note_off_c, 1, 40, 0
2, 41640, Note_off_c, 1, 52, 0
2, 41680, Note_on_c, 1, 43, 127
2, 41680, Note_on_c, 1, 55, 127
2, 41840, Note_off_c, 1, 43, 0
2, 41840, Note_off_c, 1, 55, 0
2, 41840, Note_off_c, 1, 82, 0
2, 41880, Note_on_c, 1, 41, 127
2, 41880, Note_on_c, 1, 53, 127
2, 41880, Note_on_c, 1, 81, 127
2, 42000, Note_off_c, 1, 41, 0
2, 42000, Note_off_c, 1, 53, 0
2, 42040, Note_on_c, 1, 55, 127
2, 42160, Note_off_c, 1, 55, 0
2, 42200, Note_on_c, 1, 58, 127
2, 42320, Note_off_c, 1, 58, 0
2, 42320, Note_off_c, 1, 81, 0
2, 42360, Note_on_c, 1, 48, 127
2, 42360, Note_on_c, 1, 79, 127
2, 42520, Note_off_c, 1, 48, 0
2, 42560, Note_on_c, 1, 55, 127
2, 42680, Note_off_c, 1, 55, 0
2, 42720, Note_on_c, 1, 43, 127
2, 42840, Note_off_c, 1, 43, 0
2, 42840, Note_off_c, 1, 79, 0
2, 42880, Note_on_c, 1, 77, 127
2, 43040, Note_off_c, 1, 77, 0
2, 43080, Note_on_c, 1, 89, 127
2, 43200, Note_off_c, 1, 89, 0
2, 43240, Note_on_c, 1, 43, 127
2, 43240, Note_on_c, 1, 55, 127
2, 43240, Note_on_c, 1, 76, 127
2, 43320, Note_off_c, 1, 43, 0
2, 43320, Note_off_c, 1, 55, 0
2, 43320, Note_off_c, 1, 76, 0
2, 43360, Note_on_c, 1, 43, 127
2, 43360, Note_on_c, 1, 55, 127
2, 43360, Note_on_c, 1, 76, 127
2, 43400, Note_off_c, 1, 43, 0
2, 43400, Note_off_c, 1, 55, 0
2, 43400, Note_off_c, 1, 76, 0
2, 43440, Note_on_c, 1, 46, 127
2, 43440, Note_on_c, 1, 58, 127
2, 43440, Note_on_c, 1, 82, 127
2, 43600, Note_off_c, 1, 46, 0
2, 43600, Note_off_c, 1, 58, 0
2, 43600, Note_off_c, 1, 82, 0
2, 43640, Note_on_c, 1, 76, 127
2, 43760, Note_off_c, 1, 76, 0
2, 43800, Note_on_c, 1, 41, 127
2, 43800, Note_on_c, 1, 81, 127
2, 43920, Note_off_c, 1, 41, 0
2, 43920, Note_off_c, 1, 81, 0
2, 43960, Note_on_c, 1, 48, 127
2, 43960, Note_on_c, 1, 81, 127
2, 44120, Note_off_c, 1, 48, 0
2, 44120, Note_off_c, 1, 81, 0
2, 44160, Note_on_c, 1, 57, 127
2, 44160, Note_on_c, 1, 79, 127
2, 44280, Note_off_c, 1, 57, 0
2, 44280, Note_off_c, 1, 79, 0
2, 44320, Note_on_c, 1, 60, 127
2, 44320, Note_on_c, 1, 83, 127
2, 44440, Note_off_c, 1, 60, 0
2, 44440, Note_off_c, 1, 83, 0
2, 44480, Note_on_c, 1, 60, 127
2, 44480, Note_on_c, 1, 65, 127
2, 44480, Note_on_c, 1, 69, 127
2, 44600, Note_off_c, 1, 60, 0
2, 44600, Note_off_c, 1, 65, 0
2, 44600, Note_off_c, 1, 69, 0
2, 44640, Note_on_c, 1, 61, 127
2, 44640, Note_on_c, 1, 64, 127
2, 44640, Note_on_c, 1, 82, 127
2, 44800, Note_off_c, 1, 61, 0
2, 44800, Note_off_c, 1, 64, 0
2, 44800, Note_off_c, 1, 82, 0
2, 44840, Note_on_c, 1, 56, 127
2, 44840, Note_on_c, 1, 59, 127
2, 44840, Note_on_c, 1, 62, 127
2, 44840, Note_on_c, 1, 80, 127
2, 44960, Note_off_c, 1, 56, 0
2, 44960, Note_off_c, 1, 59, 0
2, 44960, Note_off_c, 1, 62, 0
2, 44960, Note_off_c, 1, 80, 0
2, 45000, Note_on_c, 1, 56, 127
2, 45000, Note_on_c, 1, 59, 127
2, 45000, Note_on_c, 1, 62, 127
2, 45120, Note_off_c, 1, 56, 0
2, 45120, Note_off_c, 1, 59, 0
2, 45120, Note_off_c, 1, 62, 0
2, 45160, Note_on_c, 1, 57, 127
2, 45160, Note_on_c, 1, 60, 127
2, 45320, Note_off_c, 1, 57, 0
2, 45320, Note_off_c, 1, 60, 0
2, 45400, Note_on_c, 1, 42, 127
2, 45400, Note_on_c, 1, 54, 127
2, 45400, Note_on_c, 1, 84, 127
2, 45520, Note_off_c, 1, 42, 0
2, 45520, Note_off_c, 1, 54, 0
2, 45560, Note_on_c, 1, 57, 127
2, 45560, Note_on_c, 1, 61, 127
2, 45560, Note_on_c, 1, 64, 127
2, 45560, Note_on_c, 1, 69, 127
2, 45560, Note_off_c, 1, 84, 0
2, 45560, Note_on_c, 1, 102, 127
2, 45560, Note_on_c, 1, 103, 127
2, 45600, Note_off_c, 1, 57, 0
2, 45600, Note_on_c, 1, 59, 127
2, 45600, Note_off_c, 1, 61, 0
2, 45600, Note_on_c, 1, 68, 127
2, 45600, Note_off_c, 1, 69, 0
2, 45600, Note_on_c, 1, 71, 127
2, 45600, Note_on_c, 1, 88, 127
2, 45600, Note_off_c, 1, 102, 0
2, 45600, Note_off_c, 1, 103, 0
2, 45640, Note_on_c, 1, 46, 127
2, 45640, Note_on_c, 1, 58, 127
2, 45640, Note_off_c, 1, 59, 0
2, 45640, Note_on_c, 1, 60, 127
2, 45640, Note_off_c, 1, 64, 0
2, 45640, Note_off_c, 1, 68, 0
2, 45640, Note_off_c, 1, 71, 0
2, 45640, Note_on_c, 1, 74, 127
2, 45640, Note_on_c, 1, 80, 127
2, 45640, Note_off_c, 1, 88, 0
2, 45680, Note_off_c, 1, 46, 0
2, 45680, Note_off_c, 1, 58, 0
2, 45680, Note_off_c, 1, 60, 0
2, 45680, Note_off_c, 1, 74, 0
2, 45680, Note_off_c, 1, 80, 0
2, 45720, Note_on_c, 1, 49, 127
2, 45720, Note_on_c, 1, 61, 127
2, 45720, Note_on_c, 1, 97, 127
2, 45800, Note_on_c, 1, 88, 127
2, 45800, Note_off_c, 1, 97, 0
2, 45840, Note_off_c, 1, 49, 0
2, 45840, Note_off_c, 1, 61, 0
2, 45840, Note_off_c, 1, 88, 0
2, 45880, Note_on_c, 1, 49, 127
2, 45880, Note_on_c, 1, 61, 127
2, 45880, Note_on_c, 1, 85, 127
2, 46040, Note_off_c, 1, 49, 0
2, 46040, Note_off_c, 1, 61, 0
2, 46040, Note_off_c, 1, 85, 0
2, 46080, Note_on_c, 1, 45, 127
2, 46080, Note_on_c, 1, 57, 127
2, 46080, Note_on_c, 1, 78, 127
2, 46200, Note_off_c, 1, 45, 0
2, 46200, Note_off_c, 1, 57, 0
2, 46200, Note_off_c, 1, 78, 0
2, 46240, Note_on_c, 1, 48, 127
2, 46240, Note_on_c, 1, 60, 127
2, 46240, Note_on_c, 1, 80, 127
2, 46400, Note_off_c, 1, 48, 0
2, 46400, Note_off_c, 1, 60, 0
2, 46400, Note_off_c, 1, 80, 0
2, 46440, Note_on_c, 1, 41, 127
2, 46440, Note_on_c, 1, 65, 127
2, 46440, Note_on_c, 1, 77, 127
2, 46480, Note_off_c, 1, 65, 0
2, 46560, Note_off_c, 1, 41, 0
2, 46600, Note_on_c, 1, 41, 127
2, 46720, Note_off_c, 1, 41, 0
2, 46760, Note_on_c, 1, 41, 127
2, 46920, Note_off_c, 1, 41, 0
2, 46920, Note_off_c, 1, 77, 0
2, 46960, Note_on_c, 1, 53, 127
2, 46960, Note_on_c, 1, 57, 127
2, 46960, Note_on_c, 1, 63, 127
2, 46960, Note_on_c, 1, 65, 127
2, 46960, Note_on_c, 1, 72, 127
2, 46960, Note_on_c, 1, 77, 127
2, 47080, Note_off_c, 1, 53, 0
2, 47080, Note_off_c, 1, 57, 0
2, 47080, Note_off_c, 1, 63, 0
2, 47080, Note_off_c, 1, 65, 0
2, 47080, Note_off_c, 1, 72, 0
2, 47080, Note_off_c, 1, 77, 0
2, 47120, Note_on_c, 1, 60, 127
2, 47120, Note_on_c, 1, 77, 127
2, 47120, Note_on_c, 1, 89, 127
2, 47240, Note_off_c, 1, 60, 0
2, 47240, Note_off_c, 1, 77, 0
2, 47240, Note_off_c, 1, 89, 0
2, 47280, Note_on_c, 1, 41, 127
2, 47280, Note_on_c, 1, 50, 127
2, 47280, Note_on_c, 1, 58, 127
2, 47440, Note_off_c, 1, 41, 0
2, 47440, Note_off_c, 1, 50, 0
2, 47440, Note_off_c, 1, 58, 0
2, 47520, Note_on_c, 1, 60, 127
2, 47520, Note_on_c, 1, 75, 127
2, 47520, Note_on_c, 1, 87, 127
2, 47640, Note_off_c, 1, 60, 0
2, 47640, Note_off_c, 1, 75, 0
2, 47640, Note_off_c, 1, 87, 0
2, 47680, Note_on_c, 1, 47, 127
2, 47680, Note_on_c, 1, 57, 127
2, 47680, Note_on_c, 1, 62, 127
2, 47680, Note_on_c, 1, 68, 127
2, 47680, Note_on_c, 1, 71, 127
2, 47720, Note_off_c, 1, 47, 0
2, 47720, Note_on_c, 1, 49, 127
2, 47720, Note_on_c, 1, 55, 127
2, 47720, Note_off_c, 1, 57, 0
2, 47720, Note_on_c, 1, 59, 127
2, 47720, Note_off_c, 1, 62, 0
2, 47720, Note_on_c, 1, 67, 127
2, 47720, Note_off_c, 1, 68, 0
2, 47720, Note_off_c, 1, 71, 0
2, 47760, Note_on_c, 1, 47, 127
2, 47760, Note_off_c, 1, 49, 0
2, 47760, Note_off_c, 1, 55, 0
2, 47760, Note_on_c, 1, 57, 127
2, 47760, Note_off_c, 1, 59, 0
2, 47760, Note_on_c, 1, 62, 127
2, 47760, Note_off_c, 1, 67, 0
2, 47760, Note_on_c, 1, 68, 127
2, 47760, Note_on_c, 1, 71, 127
2, 47800, Note_off_c, 1, 47, 0
2, 47800, Note_on_c, 1, 55, 127
2, 47800, Note_off_c, 1, 57, 0
2, 47800, Note_on_c, 1, 61, 127
2, 47800, Note_off_c, 1, 62, 0
2, 47800, Note_off_c, 1, 68, 0
2, 47800, Note_on_c, 1, 70, 127
2, 47800, Note_off_c, 1, 71, 0
2, 47800, Note_on_c, 1, 79, 127
2, 47800, Note_on_c, 1, 82, 127
2, 47840, Note_off_c, 1, 55, 0
2, 47840, Note_off_c, 1, 61, 0
2, 47840, Note_off_c, 1, 70, 0
2, 47840, Note_off_c, 1, 79, 0
2, 47840, Note_off_c, 1, 82, 0
2, 47880, Note_on_c, 1, 52, 127
2, 47880, Note_on_c, 1, 66, 127
2, 47880, Note_on_c, 1, 73, 127
2, 47880, Note_on_c, 1, 82, 127
2, 47880, Note_on_c, 1, 85, 127
2, 47920, Note_off_c, 1, 73, 0
2, 47920, Note_on_c, 1, 76, 127
2, 47920, Note_off_c, 1, 82, 0
2, 47920, Note_on_c, 1, 88, 127
2, 47960, Note_on_c, 1, 63, 127
2, 47960, Note_off_c, 1, 66, 0
2, 47960, Note_on_c, 1, 75, 127
2, 47960, Note_off_c, 1, 76, 0
2, 47960, Note_on_c, 1, 83, 127
2, 47960, Note_off_c, 1, 85, 0
2, 47960, Note_on_c, 1, 87, 127
2, 47960, Note_off_c, 1, 88, 0
2, 48000, Note_off_c, 1, 52, 0
2, 48000, Note_off_c, 1, 63, 0
2, 48000, Note_off_c, 1, 75, 0
2, 48000, Note_off_c, 1, 83, 0
2, 48000, Note_off_c, 1, 87, 0
2, 48040, Note_on_c, 1, 39, 127
2, 48040, Note_on_c, 1, 51, 127
2, 48040, Note_on_c, 1, 63, 127
2, 48040, Note_on_c, 1, 70, 127
2, 48040, Note_on_c, 1, 75, 127
2, 48080, Note_off_c, 1, 39, 0
2, 48080, Note_on_c, 1, 44, 127
2, 48080, Note_off_c, 1, 51, 0
2, 48080, Note_on_c, 1, 56, 127
2, 48080, Note_on_c, 1, 60, 127
2, 48080, Note_off_c, 1, 63, 0
2, 48080, Note_on_c, 1, 66, 127
2, 48080, Note_off_c, 1, 70, 0
2, 48080, Note_off_c, 1, 75, 0
2, 48080, Note_on_c, 1, 78, 127
2, 48120, Note_off_c, 1, 44, 0
2, 48120, Note_off_c, 1, 60, 0
2, 48120, Note_off_c, 1, 66, 0
2, 48120, Note_on_c, 1, 73, 127
2, 48120, Note_on_c, 1, 76, 127
2, 48120, Note_off_c, 1, 78, 0
2, 48120, Note_on_c, 1, 82, 127
2, 48160, Note_off_c, 1, 56, 0
2, 48160, Note_off_c, 1, 73, 0
2, 48160, Note_off_c, 1, 76, 0
2, 48160, Note_off_c, 1, 82, 0
2, 48200, Note_on_c, 1, 49, 127
2, 48200, Note_on_c, 1, 52, 127
2, 48200, Note_on_c, 1, 56, 127
2, 48200, Note_on_c, 1, 61, 127
2, 48200, Note_on_c, 1, 64, 127
2, 48200, Note_on_c, 1, 68, 127
2, 48360, Note_off_c, 1, 49, 0
2, 48360, Note_off_c, 1, 52, 0
2, 48360, Note_off_c, 1, 56, 0
2, 48360, Note_off_c, 1, 61, 0
2, 48360, Note_off_c, 1, 64, 0
2, 48360, Note_off_c, 1, 68, 0
2, 48400, Note_on_c, 1, 40, 127
2, 48400, Note_on_c, 1, 45, 127
2, 48400, Note_on_c, 1, 49, 127
2, 48400, Note_on_c, 1, 52, 127
2, 48400, Note_on_c, 1, 64, 127
2, 48400, Note_on_c, 1, 76, 127
2, 48440, Note_off_c, 1, 49, 0
2, 48440, Note_off_c, 1, 52, 0
2, 48440, Note_on_c, 1, 57, 127
2, 48440, Note_off_c, 1, 64, 0
2, 48440, Note_on_c, 1, 66, 127
2, 48440, Note_on_c, 1, 69, 127
2, 48440, Note_on_c, 1, 78, 127
2, 48480, Note_on_c, 1, 49, 127
2, 48480, Note_on_c, 1, 52, 127
2, 48480, Note_off_c, 1, 57, 0
2, 48480, Note_on_c, 1, 64, 127
2, 48480, Note_off_c, 1, 66, 0
2, 48480, Note_off_c, 1, 69, 0
2, 48480, Note_off_c, 1, 78, 0
2, 48520, Note_off_c, 1, 40, 0
2, 48520, Note_off_c, 1, 45, 0
2, 48520, Note_off_c, 1, 49, 0
2, 48520, Note_off_c, 1, 52, 0
2, 48520, Note_off_c, 1, 64, 0
2, 48520, Note_off_c, 1, 76, 0
2, 48560, Note_on_c, 1, 47, 127
2, 48560, Note_on_c, 1, 59, 127
2, 48560, Note_on_c, 1, 71, 127
2, 48560, Note_on_c, 1, 76, 127
2, 48560, Note_on_c, 1, 80, 127
2, 48560, Note_on_c, 1, 83, 127
2, 48680, Note_off_c, 1, 47, 0
2, 48680, Note_off_c, 1, 59, 0
2, 48680, Note_off_c, 1, 71, 0
2, 48680, Note_off_c, 1, 76, 0
2, 48680, Note_off_c, 1, 80, 0
2, 48680, Note_off_c, 1, 83, 0
2, 48720, Note_on_c, 1, 47, 127
2, 48720, Note_on_c, 1, 59, 127
2, 48720, Note_on_c, 1, 71, 127
2, 48720, Note_on_c, 1, 76, 127
2, 48720, Note_on_c, 1, 80, 127
2, 48720, Note_on_c, 1, 83, 127
2, 48880, Note_off_c, 1, 47, 0
2, 48880, Note_off_c, 1, 59, 0
2, 48880, Note_off_c, 1, 71, 0
2, 48880, Note_off_c, 1, 76, 0
2, 48880, Note_off_c, 1, 80, 0
2, 48880, Note_off_c, 1, 83, 0
2, 48920, Note_on_c, 1, 76, 127
2, 48920, Note_on_c, 1, 79, 127
2, 48920, Note_on_c, 1, 82, 127
2, 48920, Note_on_c, 1, 88, 127
2, 49040, Note_off_c, 1, 76, 0
2, 49040, Note_off_c, 1, 79, 0
2, 49040, Note_off_c, 1, 82, 0
2, 49040, Note_off_c, 1, 88, 0
2, 49080, Note_on_c, 1, 47, 127
2, 49080, Note_on_c, 1, 59, 127
2, 49080, Note_on_c, 1, 77, 127
2, 49080, Note_on_c, 1, 89, 127
2, 49200, Note_off_c, 1, 47, 0
2, 49200, Note_off_c, 1, 59, 0
2, 49200, Note_off_c, 1, 77, 0
2, 49200, Note_off_c, 1, 89, 0
2, 49240, Note_on_c, 1, 41, 127
2, 49240, Note_on_c, 1, 46, 127
2, 49240, Note_on_c, 1, 53, 127
2, 49240, Note_on_c, 1, 87, 127
2, 49400, Note_off_c, 1, 41, 0
2, 49400, Note_off_c, 1, 46, 0
2, 49400, Note_off_c, 1, 53, 0
2, 49400, Note_off_c, 1, 87, 0
2, 49480, Note_on_c, 1, 43, 127
2, 49480, Note_on_c, 1, 55, 127
2, 49480, Note_on_c, 1, 85, 127
2, 49480, Note_on_c, 1, 89, 127
2, 49480, Note_on_c, 1, 97, 127
2, 49600, Note_off_c, 1, 43, 0
2, 49600, Note_off_c, 1, 55, 0
2, 49600, Note_off_c, 1, 85, 0
2, 49600, Note_off_c, 1, 89, 0
2, 49600, Note_off_c, 1, 97, 0
2, 49640, Note_on_c, 1, 43, 127
2, 49640, Note_on_c, 1, 55, 127
2, 49640, Note_on_c, 1, 85, 127
2, 49640, Note_on_c, 1, 89, 127
2, 49640, Note_on_c, 1, 97, 127
2, 49760, Note_off_c, 1, 43, 0
2, 49760, Note_off_c, 1, 55, 0
2, 49760, Note_off_c, 1, 85, 0
2, 49760, Note_off_c, 1, 89, 0
2, 49760, Note_off_c, 1, 97, 0
2, 49800, Note_on_c, 1, 31, 127
2, 49800, Note_on_c, 1, 43, 127
2, 49800, Note_on_c, 1, 55, 127
2, 49800, Note_on_c, 1, 67, 127
2, 49840, Note_off_c, 1, 55, 0
2, 49840, Note_off_c, 1, 67, 0
2, 49960, Note_off_c, 1, 31, 0
2, 49960, Note_off_c, 1, 43, 0
2, 50000, Note_on_c, 1, 56, 127
2, 50000, Note_on_c, 1, 68, 127
2, 50000, Note_on_c, 1, 76, 127
2, 50000, Note_on_c, 1, 83, 127
2, 50000, Note_on_c, 1, 88, 127
2, 50120, Note_off_c, 1, 56, 0
2, 50120, Note_off_c, 1, 68, 0
2, 50120, Note_off_c, 1, 76, 0
2, 50120, Note_off_c, 1, 83, 0
2, 50120, Note_off_c, 1, 88, 0
2, 50160, Note_on_c, 1, 78, 127
2, 50160, Note_on_c, 1, 81, 127
2, 50160, Note_on_c, 1, 90, 127
2, 50160, Note_on_c, 1, 93, 127
2, 50280, Note_off_c, 1, 78, 0
2, 50280, Note_off_c, 1, 81, 0
2, 50280, Note_off_c, 1, 90, 0
2, 50280, Note_off_c, 1, 93, 0
2, 50320, Note_on_c, 1, 47, 127
2, 50320, Note_on_c, 1, 59, 127
2, 50320, Note_on_c, 1, 83, 127
2, 50320, Note_on_c, 1, 87, 127
2, 50320, Note_on_c, 1, 90, 127
2, 50320, Note_on_c, 1, 95, 127
2, 50440, Note_on_c, 1, 35, 127
2, 50440, Note_on_c, 1, 51, 127
2, 50440, Note_on_c, 1, 54, 127
2, 50440, Note_off_c, 1, 83, 0
2, 50440, Note_off_c, 1, 87, 0
2, 50440, Note_off_c, 1, 90, 0
2, 50440, Note_off_c, 1, 95, 0
2, 50480, Note_off_c, 1, 35, 0
2, 50480, Note_off_c, 1, 47, 0
2, 50480, Note_off_c, 1, 51, 0
2, 50480, Note_off_c, 1, 54, 0
2, 50480, Note_off_c, 1, 59, 0
2, 50520, Note_on_c, 1, 47, 127
2, 50520, Note_on_c, 1, 59, 127
2, 50520, Note_on_c, 1, 74, 127
2, 50520, Note_on_c, 1, 78, 127
2, 50520, Note_on_c, 1, 83, 127
2, 50520, Note_on_c, 1, 86, 127
2, 50640, Note_off_c, 1, 47, 0
2, 50640, Note_off_c, 1, 59, 0
2, 50640, Note_off_c, 1, 74, 0
2, 50640, Note_off_c, 1, 78, 0
2, 50640, Note_off_c, 1, 83, 0
2, 50640, Note_off_c, 1, 86, 0
2, 50680, Note_on_c, 1, 55, 127
2, 50680, Note_on_c, 1, 59, 127
2, 50680, Note_on_c, 1, 62, 127
2, 50680, Note_on_c, 1, 64, 127
2, 50680, Note_on_c, 1, 71, 127
2, 50680, Note_on_c, 1, 74, 127
2, 50680, Note_on_c, 1, 76, 127
2, 50800, Note_off_c, 1, 55, 0
2, 50800, Note_off_c, 1, 59, 0
2, 50800, Note_off_c, 1, 62, 0
2, 50800, Note_off_c, 1, 64, 0
2, 50800, Note_off_c, 1, 71, 0
2, 50800, Note_off_c, 1, 74, 0
2, 50800, Note_off_c, 1, 76, 0
2, 50840, Note_on_c, 1, 32, 127
2, 50840, Note_on_c, 1, 44, 127
2, 50840, Note_on_c, 1, 82, 127
2, 50840, Note_on_c, 1, 87, 127
2, 50840, Note_on_c, 1, 94, 127
2, 50880, Note_off_c, 1, 82, 0
2, 50880, Note_on_c, 1, 83, 127
2, 50880, Note_off_c, 1, 87, 0
2, 50880, Note_off_c, 1, 94, 0
2, 50880, Note_on_c, 1, 95, 127
2, 51000, Note_off_c, 1, 32, 0
2, 51000, Note_off_c, 1, 44, 0
2, 51000, Note_off_c, 1, 83, 0
2, 51000, Note_off_c, 1, 95, 0
2, 51040, Note_on_c, 1, 40, 127
2, 51040, Note_on_c, 1, 52, 127
2, 51040, Note_on_c, 1, 70, 127
2, 51040, Note_on_c, 1, 73, 127
2, 51040, Note_on_c, 1, 78, 127
2, 51160, Note_off_c, 1, 70, 0
2, 51160, Note_off_c, 1, 73, 0
2, 51160, Note_off_c, 1, 78, 0
2, 51200, Note_on_c, 1, 70, 127
2, 51200, Note_on_c, 1, 73, 127
2, 51200, Note_on_c, 1, 78, 127
2, 51320, Note_off_c, 1, 70, 0
2, 51320, Note_off_c, 1, 73, 0
2, 51320, Note_off_c, 1, 78, 0
2, 51360, Note_off_c, 1, 40, 0
2, 51360, Note_off_c, 1, 52, 0
2, 51360, Note_on_c, 1, 58, 127
2, 51360, Note_on_c, 1, 70, 127
2, 51360, Note_on_c, 1, 76, 127
2, 51360, Note_on_c, 1, 79, 127
2, 51360, Note_on_c, 1, 88, 127
2, 51480, Note_off_c, 1, 58, 0
2, 51480, Note_off_c, 1, 70, 0
2, 51480, Note_off_c, 1, 76, 0
2, 51480, Note_off_c, 1, 79, 0
2, 51480, Note_off_c, 1, 88, 0
2, 51520, Note_on_c, 1, 58, 127
2, 51520, Note_on_c, 1, 70, 127
2, 51520, Note_on_c, 1, 76, 127
2, 51520, Note_on_c, 1, 79, 127
2, 51520, Note_on_c, 1, 88, 127
2, 51560, Note_off_c, 1, 58, 0
2, 51560, Note_off_c, 1, 70, 0
2, 51560, Note_off_c, 1, 76, 0
2, 51560, Note_off_c, 1, 79, 0
2, 51560, Note_off_c, 1, 88, 0
2, 51600, Note_on_c, 1, 38, 127
2, 51600, Note_on_c, 1, 50, 127
2, 51600, Note_on_c, 1, 65, 127
2, 51600, Note_on_c, 1, 83, 127
2, 51600, Note_on_c, 1, 89, 127
2, 51600, Note_on_c, 1, 95, 127
2, 51720, Note_off_c, 1, 38, 0
2, 51720, Note_off_c, 1, 50, 0
2, 51720, Note_off_c, 1, 65, 0
2, 51720, Note_off_c, 1, 83, 0
2, 51720, Note_off_c, 1, 89, 0
2, 51720, Note_off_c, 1, 95, 0
2, 51760, Note_on_c, 1, 38, 127
2, 51760, Note_on_c, 1, 50, 127
2, 51760, Note_on_c, 1, 65, 127
2, 51760, Note_on_c, 1, 83, 127
2, 51760, Note_on_c, 1, 89, 127
2, 51760, Note_on_c, 1, 95, 127
2, 51880, Note_off_c, 1, 38, 0
2, 51880, Note_off_c, 1, 50, 0
2, 51880, Note_off_c, 1, 65, 0
2, 51880, Note_off_c, 1, 83, 0
2, 51880, Note_off_c, 1, 89, 0
2, 51880, Note_off_c, 1, 95, 0
2, 51920, Note_on_c, 1, 32, 127
2, 51920, Note_on_c, 1, 44, 127
2, 51920, Note_on_c, 1, 58, 127
2, 51920, Note_on_c, 1, 65, 127
2, 51920, Note_on_c, 1, 70, 127
2, 52240, Note_off_c, 1, 32, 0
2, 52240, Note_off_c, 1, 44, 0
2, 52240, Note_off_c, 1, 58, 0
2, 52240, Note_off_c, 1, 65, 0
2, 52240, Note_off_c, 1, 70, 0
2, 52280, Note_on_c, 1, 32, 127
2, 52280, Note_on_c, 1, 44, 127
2, 52280, Note_on_c, 1, 60, 127
2, 52280, Note_on_c, 1, 65, 127
2, 52280, Note_on_c, 1, 72, 127
2, 52760, Note_off_c, 1, 32, 0
2, 52760, Note_off_c, 1, 44, 0
2, 52760, Note_off_c, 1, 60, 0
2, 52760, Note_off_c, 1, 65, 0
2, 52760, Note_off_c, 1, 72, 0
2, 52800, Note_on_c, 1, 32, 127
2, 52800, Note_on_c, 1, 44, 127
2, 52800, Note_on_c, 1, 62, 127
2, 52800, Note_on_c, 1, 65, 127
2, 52800, Note_on_c, 1, 74, 127
2, 52920, Note_off_c, 1, 32, 0
2, 52920, Note_off_c, 1, 44, 0
2, 52920, Note_off_c, 1, 62, 0
2, 52920, Note_off_c, 1, 74, 0
2, 52960, Note_on_c, 1, 32, 127
2, 52960, Note_on_c, 1, 44, 127
2, 52960, Note_on_c, 1, 77, 127
2, 53080, Note_off_c, 1, 77, 0
2, 53120, Note_on_c, 1, 60, 127
2, 53120, Note_on_c, 1, 72, 127
2, 53440, Note_off_c, 1, 32, 0
2, 53440, Note_off_c, 1, 44, 0
2, 53440, Note_off_c, 1, 60, 0
2, 53440, Note_off_c, 1, 72, 0
2, 53480, Note_on_c, 1, 40, 127
2, 53480, Note_on_c, 1, 45, 127
2, 53480, Note_on_c, 1, 52, 127
2, 53480, Note_off_c, 1, 65, 0
2, 53480, Note_on_c, 1, 72, 127
2, 53600, Note_off_c, 1, 40, 0
2, 53600, Note_off_c, 1, 45, 0
2, 53600, Note_off_c, 1, 52, 0
2, 53600, Note_off_c, 1, 72, 0
2, 53640, Note_on_c, 1, 40, 127
2, 53640, Note_on_c, 1, 45, 127
2, 53640, Note_on_c, 1, 52, 127
2, 53640, Note_on_c, 1, 72, 127
2, 53680, Note_off_c, 1, 40, 0
2, 53680, Note_off_c, 1, 45, 0
2, 53680, Note_off_c, 1, 52, 0
2, 53680, Note_off_c, 1, 72, 0
2, 53720, Note_on_c, 1, 37, 127
2, 53720, Note_on_c, 1, 49, 127
2, 53720, Note_on_c, 1, 68, 127
2, 53720, Note_on_c, 1, 71, 127
2, 53720, Note_on_c, 1, 77, 127
2, 53720, Note_on_c, 1, 80, 127
2, 53840, Note_off_c, 1, 37, 0
2, 53840, Note_off_c, 1, 49, 0
2, 53840, Note_off_c, 1, 68, 0
2, 53840, Note_off_c, 1, 71, 0
2, 53840, Note_off_c, 1, 77, 0
2, 53840, Note_off_c, 1, 80, 0
2, 53880, Note_on_c, 1, 37, 127
2, 53880, Note_on_c, 1, 49, 127
2, 53880, Note_on_c, 1, 68, 127
2, 53880, Note_on_c, 1, 71, 127
2, 53880, Note_on_c, 1, 77, 127
2, 53880, Note_on_c, 1, 80, 127
2, 54000, Note_off_c, 1, 37, 0
2, 54000, Note_off_c, 1, 49, 0
2, 54000, Note_off_c, 1, 68, 0
2, 54000, Note_off_c, 1, 71, 0
2, 54000, Note_off_c, 1, 77, 0
2, 54000, Note_off_c, 1, 80, 0
2, 54040, Note_on_c, 1, 39, 127
2, 54040, Note_on_c, 1, 51, 127
2, 54040, Note_on_c, 1, 58, 127
2, 54040, Note_on_c, 1, 63, 127
2, 54040, Note_on_c, 1, 67, 127
2, 54200, Note_off_c, 1, 39, 0
2, 54200, Note_off_c, 1, 51, 0
2, 54200, Note_off_c, 1, 58, 0
2, 54200, Note_off_c, 1, 63, 0
2, 54200, Note_off_c, 1, 67, 0
2, 54240, Note_on_c, 1, 46, 127
2, 54240, Note_on_c, 1, 58, 127
2, 54240, Note_on_c, 1, 88, 127
2, 54240, Note_on_c, 1, 94, 127
2, 54240, Note_on_c, 1, 97, 127
2, 54240, Note_on_c, 1, 100, 127
2, 54280, Note_on_c, 1, 36, 127
2, 54280, Note_off_c, 1, 46, 0
2, 54280, Note_on_c, 1, 48, 127
2, 54280, Note_off_c, 1, 58, 0
2, 54280, Note_on_c, 1, 81, 127
2, 54280, Note_on_c, 1, 93, 127
2, 54280, Note_off_c, 1, 94, 0
2, 54280, Note_off_c, 1, 97, 0
2, 54280, Note_off_c, 1, 100, 0
2, 54320, Note_off_c, 1, 36, 0
2, 54320, Note_on_c, 1, 46, 127
2, 54320, Note_off_c, 1, 48, 0
2, 54320, Note_on_c, 1, 58, 127
2, 54320, Note_off_c, 1, 81, 0
2, 54320, Note_off_c, 1, 93, 0
2, 54320, Note_on_c, 1, 94, 127
2, 54320, Note_on_c, 1, 97, 127
2, 54320, Note_on_c, 1, 100, 127
2, 54360, Note_off_c, 1, 46, 0
2, 54360, Note_off_c, 1, 58, 0
2, 54360, Note_off_c, 1, 88, 0
2, 54360, Note_off_c, 1, 94, 0
2, 54360, Note_off_c, 1, 97, 0
2, 54360, Note_off_c, 1, 100, 0
2, 54400, Note_on_c, 1, 39, 127
2, 54400, Note_on_c, 1, 85, 127
2, 54400, Note_on_c, 1, 94, 127
2, 54400, Note_on_c, 1, 97, 127
2, 54440, Note_off_c, 1, 39, 0
2, 54440, Note_on_c, 1, 51, 127
2, 54520, Note_off_c, 1, 51, 0
2, 54520, Note_off_c, 1, 85, 0
2, 54520, Note_off_c, 1, 94, 0
2, 54520, Note_off_c, 1, 97, 0
2, 54560, Note_on_c, 1, 42, 127
2, 54560, Note_on_c, 1, 67, 127
2, 54560, Note_on_c, 1, 79, 127
2, 54720, Note_off_c, 1, 42, 0
2, 54720, Note_off_c, 1, 67, 0
2, 54720, Note_off_c, 1, 79, 0
2, 54760, Note_on_c, 1, 57, 127
2, 54760, Note_on_c, 1, 69, 127
2, 54760, Note_on_c, 1, 74, 127
2, 54760, Note_on_c, 1, 86, 127
2, 54800, Note_on_c, 1, 54, 127
2, 54800, Note_off_c, 1, 57, 0
2, 54800, Note_on_c, 1, 66, 127
2, 54800, Note_off_c, 1, 74, 0
2, 54800, Note_on_c, 1, 81, 127
2, 54800, Note_off_c, 1, 86, 0
2, 54880, Note_off_c, 1, 54, 0
2, 54880, Note_off_c, 1, 66, 0
2, 54880, Note_off_c, 1, 69, 0
2, 54880, Note_off_c, 1, 81, 0
2, 54920, Note_on_c, 1, 65, 127
2, 54920, Note_on_c, 1, 72, 127
2, 54920, Note_on_c, 1, 81, 127
2, 54920, Note_on_c, 1, 89, 127
2, 55080, Note_off_c, 1, 65, 0
2, 55080, Note_off_c, 1, 72, 0
2, 55080, Note_off_c, 1, 81, 0
2, 55080, Note_off_c, 1, 89, 0
2, 55120, Note_on_c, 1, 53, 127
2, 55120, Note_on_c, 1, 59, 127
2, 55120, Note_on_c, 1, 68, 127
2, 55120, Note_on_c, 1, 75, 127
2, 55120, Note_on_c, 1, 80, 127
2, 55240, Note_off_c, 1, 53, 0
2, 55240, Note_off_c, 1, 59, 0
2, 55240, Note_off_c, 1, 68, 0
2, 55240, Note_off_c, 1, 75, 0
2, 55240, Note_off_c, 1, 80, 0
2, 55280, Note_on_c, 1, 51, 127
2, 55280, Note_on_c, 1, 63, 127
2, 55280, Note_on_c, 1, 72, 127
2, 55280, Note_on_c, 1, 75, 127
2, 55280, Note_on_c, 1, 79, 127
2, 55280, Note_on_c, 1, 84, 127
2, 55400, Note_off_c, 1, 51, 0
2, 55400, Note_off_c, 1, 63, 0
2, 55400, Note_off_c, 1, 72, 0
2, 55400, Note_off_c, 1, 75, 0
2, 55400, Note_off_c, 1, 79, 0
2, 55400, Note_off_c, 1, 84, 0
2, 55440, Note_on_c, 1, 46, 127
2, 55440, Note_on_c, 1, 58, 127
2, 55440, Note_on_c, 1, 68, 127
2, 55440, Note_on_c, 1, 73, 127
2, 55440, Note_on_c, 1, 77, 127
2, 55600, Note_off_c, 1, 46, 0
2, 55600, Note_off_c, 1, 58, 0
2, 55600, Note_off_c, 1, 68, 0
2, 55600, Note_off_c, 1, 73, 0
2, 55600, Note_off_c, 1, 77, 0
2, 55680, Note_on_c, 1, 62, 127
2, 55680, Note_on_c, 1, 86, 127
2, 55680, Note_on_c, 1, 89, 127
2, 55680, Note_on_c, 1, 93, 127
2, 55680, Note_on_c, 1, 98, 127
2, 55800, Note_off_c, 1, 62, 0
2, 55800, Note_off_c, 1, 86, 0
2, 55800, Note_off_c, 1, 89, 0
2, 55800, Note_off_c, 1, 93, 0
2, 55800, Note_off_c, 1, 98, 0
2, 55840, Note_on_c, 1, 62, 127
2, 55840, Note_on_c, 1, 86, 127
2, 55840, Note_on_c, 1, 89, 127
2, 55840, Note_on_c, 1, 93, 127
2, 55840, Note_on_c, 1, 98, 127
2, 56160, Note_off_c, 1, 62, 0
2, 56160, Note_off_c, 1, 86, 0
2, 56160, Note_off_c, 1, 89, 0
2, 56160, Note_off_c, 1, 93, 0
2, 56160, Note_off_c, 1, 98, 0
2, 56200, Note_on_c, 1, 86, 127
2, 56200, Note_on_c, 1, 89, 127
2, 56200, Note_on_c, 1, 93, 127
2, 56200, Note_on_c, 1, 98, 127
2, 56480, Note_off_c, 1, 86, 0
2, 56480, Note_off_c, 1, 89, 0
2, 56480, Note_off_c, 1, 93, 0
2, 56480, Note_off_c, 1, 98, 0
2, 56520, Note_on_c, 1, 49, 127
2, 56520, Note_on_c, 1, 53, 127
2, 56520, Note_on_c, 1, 56, 127
2, 56520, Note_on_c, 1, 61, 127
2, 56520, Note_on_c, 1, 92, 127
2, 56680, Note_off_c, 1, 53, 0
2, 56680, Note_off_c, 1, 56, 0
2, 56680, Note_off_c, 1, 61, 0
2, 56680, Note_off_c, 1, 92, 0
2, 56720, Note_on_c, 1, 53, 127
2, 56720, Note_on_c, 1, 56, 127
2, 56720, Note_on_c, 1, 61, 127
2, 56720, Note_on_c, 1, 92, 127
2, 56840, Note_off_c, 1, 53, 0
2, 56840, Note_off_c, 1, 56, 0
2, 56840, Note_off_c, 1, 61, 0
2, 56840, Note_off_c, 1, 92, 0
2, 56880, Note_off_c, 1, 49, 0
2, 56880, Note_on_c, 1, 61, 127
2, 56880, Note_on_c, 1, 76, 127
2, 56880, Note_on_c, 1, 82, 127
2, 56880, Note_on_c, 1, 88, 127
2, 57000, Note_off_c, 1, 61, 0
2, 57000, Note_off_c, 1, 76, 0
2, 57000, Note_off_c, 1, 82, 0
2, 57000, Note_off_c, 1, 88, 0
2, 57040, Note_on_c, 1, 47, 127
2, 57040, Note_on_c, 1, 83, 127
2, 57040, Note_on_c, 1, 87, 127
2, 57040, Note_on_c, 1, 92, 127
2, 57040, Note_on_c, 1, 95, 127
2, 57080, Note_on_c, 1, 38, 127
2, 57080, Note_on_c, 1, 43, 127
2, 57080, Note_on_c, 1, 46, 127
2, 57080, Note_off_c, 1, 47, 0
2, 57080, Note_on_c, 1, 50, 127
2, 57080, Note_on_c, 1, 79, 127
2, 57080, Note_on_c, 1, 82, 127
2, 57080, Note_off_c, 1, 83, 0
2, 57080, Note_on_c, 1, 86, 127
2, 57080, Note_off_c, 1, 87, 0
2, 57080, Note_on_c, 1, 91, 127
2, 57080, Note_off_c, 1, 92, 0
2, 57080, Note_off_c, 1, 95, 0
2, 57120, Note_on_c, 1, 33, 127
2, 57120, Note_off_c, 1, 38, 0
2, 57120, Note_off_c, 1, 43, 0
2, 57120, Note_on_c, 1, 45, 127
2, 57120, Note_off_c, 1, 46, 0
2, 57120, Note_off_c, 1, 50, 0
2, 57120, Note_on_c, 1, 52, 127
2, 57120, Note_on_c, 1, 59, 127
2, 57120, Note_on_c, 1, 64, 127
2, 57120, Note_on_c, 1, 74, 127
2, 57120, Note_off_c, 1, 79, 0
2, 57120, Note_off_c, 1, 82, 0
2, 57120, Note_off_c, 1, 86, 0
2, 57120, Note_off_c, 1, 91, 0
2, 57160, Note_off_c, 1, 33, 0
2, 57160, Note_off_c, 1, 45, 0
2, 57160, Note_on_c, 1, 47, 127
2, 57160, Note_off_c, 1, 52, 0
2, 57160, Note_off_c, 1, 59, 0
2, 57160, Note_off_c, 1, 64, 0
2, 57160, Note_off_c, 1, 74, 0
2, 57160, Note_on_c, 1, 83, 127
2, 57160, Note_on_c, 1, 87, 127
2, 57160, Note_on_c, 1, 92, 127
2, 57160, Note_on_c, 1, 95, 127
2, 57200, Note_off_c, 1, 47, 0
2, 57200, Note_off_c, 1, 83, 0
2, 57200, Note_off_c, 1, 87, 0
2, 57200, Note_off_c, 1, 92, 0
2, 57200, Note_off_c, 1, 95, 0
2, 57240, Note_on_c, 1, 39, 127
2, 57240, Note_on_c, 1, 43, 127
2, 57240, Note_on_c, 1, 51, 127
2, 57240, Note_on_c, 1, 58, 127
2, 57360, Note_off_c, 1, 39, 0
2, 57360, Note_off_c, 1, 43, 0
2, 57360, Note_off_c, 1, 51, 0
2, 57360, Note_off_c, 1, 58, 0
2, 57400, Note_on_c, 1, 39, 127
2, 57400, Note_on_c, 1, 43, 127
2, 57400, Note_on_c, 1, 51, 127
2, 57400, Note_on_c, 1, 58, 127
2, 57560, Note_off_c, 1, 39, 0
2, 57560, Note_off_c, 1, 43, 0
2, 57560, Note_off_c, 1, 51, 0
2, 57560, Note_off_c, 1, 58, 0
2, 57640, Note_on_c, 1, 34, 127
2, 57640, Note_on_c, 1, 38, 127
2, 57640, Note_on_c, 1, 46, 127
2, 57640, Note_on_c, 1, 74, 127
2, 57640, Note_on_c, 1, 86, 127
2, 57920, Note_off_c, 1, 34, 0
2, 57920, Note_off_c, 1, 38, 0
2, 57920, Note_off_c, 1, 46, 0
2, 57920, Note_off_c, 1, 74, 0
2, 57920, Note_off_c, 1, 86, 0
2, 57960, Note_on_c, 1, 38, 127
2, 57960, Note_on_c, 1, 41, 127
2, 57960, Note_on_c, 1, 50, 127
2, 57960, Note_on_c, 1, 74, 127
2, 57960, Note_on_c, 1, 86, 127
2, 58280, Note_off_c, 1, 38, 0
2, 58280, Note_off_c, 1, 41, 0
2, 58280, Note_off_c, 1, 50, 0
2, 58280, Note_off_c, 1, 74, 0
2, 58280, Note_off_c, 1, 86, 0
2, 58320, Note_on_c, 1, 40, 127
2, 58320, Note_on_c, 1, 43, 127
2, 58320, Note_on_c, 1, 46, 127
2, 58320, Note_on_c, 1, 52, 127
2, 58320, Note_on_c, 1, 97, 127
2, 58360, Note_off_c, 1, 40, 0
2, 58360, Note_off_c, 1, 43, 0
2, 58360, Note_on_c, 1, 45, 127
2, 58360, Note_off_c, 1, 46, 0
2, 58360, Note_off_c, 1, 52, 0
2, 58360, Note_on_c, 1, 53, 127
2, 58360, Note_on_c, 1, 57, 127
2, 58360, Note_on_c, 1, 59, 127
2, 58360, Note_on_c, 1, 61, 127
2, 58360, Note_off_c, 1, 97, 0
2, 58400, Note_on_c, 1, 37, 127
2, 58400, Note_on_c, 1, 40, 127
2, 58400, Note_off_c, 1, 45, 0
2, 58400, Note_on_c, 1, 49, 127
2, 58400, Note_off_c, 1, 53, 0
2, 58400, Note_off_c, 1, 57, 0
2, 58400, Note_off_c, 1, 59, 0
2, 58400, Note_off_c, 1, 61, 0
2, 58440, Note_off_c, 1, 37, 0
2, 58440, Note_off_c, 1, 49, 0
2, 58440, Note_on_c, 1, 55, 127
2, 58440, Note_on_c, 1, 67, 127
2, 58440, Note_on_c, 1, 74, 127
2, 58480, Note_off_c, 1, 40, 0
2, 58480, Note_on_c, 1, 45, 127
2, 58480, Note_on_c, 1, 48, 127
2, 58480, Note_off_c, 1, 55, 0
2, 58480, Note_on_c, 1, 64, 127
2, 58480, Note_off_c, 1, 67, 0
2, 58480, Note_off_c, 1, 74, 0
2, 58480, Note_on_c, 1, 76, 127
2, 58520, Note_off_c, 1, 48, 0
2, 58520, Note_on_c, 1, 52, 127
2, 58520, Note_on_c, 1, 57, 127
2, 58520, Note_off_c, 1, 64, 0
2, 58520, Note_off_c, 1, 76, 0
2, 58560, Note_on_c, 1, 69, 127
2, 58600, Note_off_c, 1, 45, 0
2, 58600, Note_off_c, 1, 52, 0
2, 58600, Note_off_c, 1, 57, 0
2, 58600, Note_off_c, 1, 69, 0
2, 58640, Note_on_c, 1, 62, 127
2, 58640, Note_on_c, 1, 68, 127
2, 58640, Note_on_c, 1, 70, 127
2, 58640, Note_on_c, 1, 77, 127
2, 58640, Note_on_c, 1, 82, 127
2, 58640, Note_on_c, 1, 86, 127
2, 58640, Note_on_c, 1, 89, 127
2, 58920, Note_off_c, 1, 77, 0
2, 58920, Note_off_c, 1, 82, 0
2, 58920, Note_off_c, 1, 86, 0
2, 58920, Note_off_c, 1, 89, 0
2, 58960, Note_off_c, 1, 62, 0
2, 58960, Note_off_c, 1, 68, 0
2, 58960, Note_off_c, 1, 70, 0
2, 59000, Note_on_c, 1, 63, 127
2, 59000, Note_on_c, 1, 67, 127
2, 59000, Note_on_c, 1, 70, 127
2, 59000, Note_on_c, 1, 73, 127
2, 59000, Note_on_c, 1, 85, 127
2, 59280, Note_off_c, 1, 63, 0
2, 59280, Note_off_c, 1, 67, 0
2, 59280, Note_off_c, 1, 70, 0
2, 59280, Note_off_c, 1, 73, 0
2, 59280, Note_off_c, 1, 85, 0
2, 59360, Note_on_c, 1, 36, 127
2, 59360, Note_on_c, 1, 48, 127
2, 59360, Note_on_c, 1, 76, 127
2, 59360, Note_on_c, 1, 79, 127
2, 59360, Note_on_c, 1, 82, 127
2, 59360, Note_on_c, 1, 88, 127
2, 59640, Note_off_c, 1, 36, 0
2, 59640, Note_off_c, 1, 48, 0
2, 59640, Note_off_c, 1, 76, 0
2, 59640, Note_off_c, 1, 79, 0
2, 59640, Note_off_c, 1, 82, 0
2, 59640, Note_off_c, 1, 88, 0
2, 59680, Note_on_c, 1, 36, 127
2, 59680, Note_on_c, 1, 48, 127
2, 59680, Note_on_c, 1, 76, 127
2, 59680, Note_on_c, 1, 79, 127
2, 59680, Note_on_c, 1, 82, 127
2, 59680, Note_on_c, 1, 88, 127
2, 59720, Note_off_c, 1, 36, 0
2, 59720, Note_off_c, 1, 48, 0
2, 59720, Note_off_c, 1, 76, 0
2, 59720, Note_off_c, 1, 79, 0
2, 59720, Note_off_c, 1, 82, 0
2, 59720, Note_off_c, 1, 88, 0
2, 59760, Note_on_c, 1, 46, 127
2, 59760, Note_on_c, 1, 58, 127
2, 59760, Note_on_c, 1, 73, 127
2, 59760, Note_on_c, 1, 85, 127
2, 59880, Note_off_c, 1, 73, 0
2, 59880, Note_off_c, 1, 85, 0
2, 59920, Note_on_c, 1, 67, 127
2, 59920, Note_on_c, 1, 79, 127
2, 60040, Note_off_c, 1, 46, 0
2, 60040, Note_off_c, 1, 58, 0
2, 60040, Note_off_c, 1, 67, 0
2, 60040, Note_off_c, 1, 79, 0
2, 60080, Note_on_c, 1, 44, 127
2, 60080, Note_on_c, 1, 51, 127
2, 60080, Note_on_c, 1, 56, 127
2, 60080, Note_on_c, 1, 63, 127
2, 60080, Note_on_c, 1, 71, 127
2, 60080, Note_on_c, 1, 75, 127
2, 60240, Note_off_c, 1, 44, 0
2, 60240, Note_off_c, 1, 51, 0
2, 60240, Note_off_c, 1, 56, 0
2, 60240, Note_off_c, 1, 63, 0
2, 60240, Note_off_c, 1, 71, 0
2, 60240, Note_off_c, 1, 75, 0
2, 60280, Note_on_c, 1, 68, 127
2, 60280, Note_on_c, 1, 80, 127
2, 60400, Note_off_c, 1, 68, 0
2, 60400, Note_off_c, 1, 80, 0
2, 60440, Note_on_c, 1, 62, 127
2, 60440, Note_on_c, 1, 74, 127
2, 60760, Note_off_c, 1, 62, 0
2, 60760, Note_off_c, 1, 74, 0
2, 60800, Note_on_c, 1, 34, 127
2, 60800, Note_on_c, 1, 46, 127
2, 60800, Note_on_c, 1, 60, 127
2, 60800, Note_on_c, 1, 67, 127
2, 60800, Note_on_c, 1, 72, 127
2, 61080, Note_off_c, 1, 34, 0
2, 61080, Note_off_c, 1, 46, 0
2, 61080, Note_off_c, 1, 60, 0
2, 61080, Note_off_c, 1, 72, 0
2, 61120, Note_on_c, 1, 34, 127
2, 61120, Note_on_c, 1, 46, 127
2, 61120, Note_on_c, 1, 62, 127
2, 61120, Note_on_c, 1, 74, 127
2, 61280, Note_off_c, 1, 62, 0
2, 61280, Note_off_c, 1, 74, 0
2, 61320, Note_on_c, 1, 64, 127
2, 61320, Note_on_c, 1, 76, 127
2, 61440, Note_off_c, 1, 34, 0
2, 61440, Note_off_c, 1, 46, 0
2, 61440, Note_off_c, 1, 64, 0
2, 61440, Note_off_c, 1, 76, 0
2, 61480, Note_on_c, 1, 46, 127
2, 61480, Note_on_c, 1, 58, 127
2, 61480, Note_on_c, 1, 79, 127
2, 61640, Note_off_c, 1, 46, 0
2, 61640, Note_off_c, 1, 58, 0
2, 61640, Note_off_c, 1, 67, 0
2, 61640, Note_off_c, 1, 79, 0
2, 61720, Note_on_c, 1, 47, 127
2, 61720, Note_on_c, 1, 59, 127
2, 61720, Note_on_c, 1, 65, 127
2, 61720, Note_on_c, 1, 74, 127
2, 61840, Note_off_c, 1, 47, 0
2, 61840, Note_off_c, 1, 59, 0
2, 61840, Note_off_c, 1, 65, 0
2, 61840, Note_off_c, 1, 74, 0
2, 61880, Note_on_c, 1, 68, 127
2, 61880, Note_on_c, 1, 89, 127
2, 61880, Note_on_c, 1, 97, 127
2, 61920, Note_on_c, 1, 49, 127
2, 61920, Note_on_c, 1, 56, 127
2, 61920, Note_on_c, 1, 59, 127
2, 61920, Note_on_c, 1, 62, 127
2, 61920, Note_off_c, 1, 68, 0
2, 61920, Note_on_c, 1, 69, 127
2, 61920, Note_off_c, 1, 89, 0
2, 61920, Note_off_c, 1, 97, 0
2, 61960, Note_on_c, 1, 46, 127
2, 61960, Note_off_c, 1, 49, 0
2, 61960, Note_on_c, 1, 53, 127
2, 61960, Note_off_c, 1, 56, 0
2, 61960, Note_off_c, 1, 59, 0
2, 61960, Note_on_c, 1, 60, 127
2, 61960, Note_off_c, 1, 62, 0
2, 61960, Note_on_c, 1, 63, 127
2, 61960, Note_on_c, 1, 65, 127
2, 61960, Note_on_c, 1, 72, 127
2, 61960, Note_on_c, 1, 75, 127
2, 62000, Note_off_c, 1, 46, 0
2, 62000, Note_off_c, 1, 53, 0
2, 62000, Note_off_c, 1, 60, 0
2, 62000, Note_off_c, 1, 63, 0
2, 62000, Note_off_c, 1, 65, 0
2, 62000, Note_off_c, 1, 69, 0
2, 62000, Note_off_c, 1, 72, 0
2, 62000, Note_off_c, 1, 75, 0
2, 62040, Note_on_c, 1, 46, 127
2, 62040, Note_on_c, 1, 58, 127
2, 62040, Note_on_c, 1, 61, 127
2, 62040, Note_on_c, 1, 64, 127
2, 62040, Note_on_c, 1, 73, 127
2, 62080, Note_off_c, 1, 61, 0
2, 62080, Note_on_c, 1, 67, 127
2, 62080, Note_off_c, 1, 73, 0
2, 62080, Note_on_c, 1, 76, 127
2, 62120, Note_on_c, 1, 61, 127
2, 62120, Note_off_c, 1, 67, 0
2, 62120, Note_on_c, 1, 73, 127
2, 62120, Note_off_c, 1, 76, 0
2, 62160, Note_off_c, 1, 61, 0
2, 62160, Note_off_c, 1, 64, 0
2, 62160, Note_off_c, 1, 73, 0
2, 62200, Note_on_c, 1, 65, 127
2, 62200, Note_on_c, 1, 70, 127
2, 62200, Note_on_c, 1, 74, 127
2, 62200, Note_on_c, 1, 77, 127
2, 62360, Note_off_c, 1, 46, 0
2, 62360, Note_off_c, 1, 58, 0
2, 62360, Note_off_c, 1, 65, 0
2, 62360, Note_off_c, 1, 70, 0
2, 62360, Note_off_c, 1, 74, 0
2, 62360, Note_off_c, 1, 77, 0
2, 62400, Note_on_c, 1, 44, 127
2, 62400, Note_on_c, 1, 53, 127
2, 62400, Note_on_c, 1, 62, 127
2, 62400, Note_on_c, 1, 71, 127
2, 62400, Note_on_c, 1, 74, 127
2, 62520, Note_off_c, 1, 44, 0
2, 62520, Note_off_c, 1, 53, 0
2, 62520, Note_off_c, 1, 62, 0
2, 62520, Note_off_c, 1, 71, 0
2, 62520, Note_off_c, 1, 74, 0
2, 62560, Note_on_c, 1, 51, 127
2, 62560, Note_on_c, 1, 58, 127
2, 62560, Note_on_c, 1, 84, 127
2, 62720, Note_off_c, 1, 51, 0
2, 62720, Note_off_c, 1, 58, 0
2, 62720, Note_off_c, 1, 84, 0
2, 62760, Note_on_c, 1, 55, 127
2, 62760, Note_on_c, 1, 59, 127
2, 62760, Note_on_c, 1, 70, 127
2, 62760, Note_on_c, 1, 76, 127
2, 62880, Note_off_c, 1, 55, 0
2, 62880, Note_off_c, 1, 59, 0
2, 62880, Note_off_c, 1, 70, 0
2, 62880, Note_off_c, 1, 76, 0
2, 62920, Note_on_c, 1, 70, 127
2, 62920, Note_on_c, 1, 82, 127
2, 63040, Note_off_c, 1, 70, 0
2, 63040, Note_off_c, 1, 82, 0
2, 63080, Note_on_c, 1, 71, 127
2, 63080, Note_on_c, 1, 83, 127
2, 63200, Note_off_c, 1, 71, 0
2, 63200, Note_off_c, 1, 83, 0
2, 63240, Note_on_c, 1, 72, 127
2, 63240, Note_on_c, 1, 84, 127
2, 63400, Note_off_c, 1, 72, 0
2, 63400, Note_off_c, 1, 84, 0
2, 63440, Note_on_c, 1, 53, 127
2, 63440, Note_on_c, 1, 60, 127
2, 63440, Note_on_c, 1, 72, 127
2, 63440, Note_on_c, 1, 81, 127
2, 63560, Note_off_c, 1, 53, 0
2, 63560, Note_off_c, 1, 60, 0
2, 63560, Note_off_c, 1, 72, 0
2, 63560, Note_off_c, 1, 81, 0
2, 63600, Note_on_c, 1, 66, 127
2, 63600, Note_on_c, 1, 78, 127
2, 63720, Note_off_c, 1, 66, 0
2, 63720, Note_off_c, 1, 78, 0
2, 63800, Note_on_c, 1, 65, 127
2, 63800, Note_on_c, 1, 77, 127
2, 64120, Note_off_c, 1, 65, 0
2, 64120, Note_off_c, 1, 77, 0
2, 64160, Note_on_c, 1, 47, 127
2, 64160, Note_on_c, 1, 59, 127
2, 64160, Note_on_c, 1, 69, 127
2, 64160, Note_on_c, 1, 71, 127
2, 64160, Note_on_c, 1, 75, 127
2, 64160, Note_on_c, 1, 78, 127
2, 64280, Note_off_c, 1, 47, 0
2, 64280, Note_off_c, 1, 59, 0
2, 64280, Note_off_c, 1, 69, 0
2, 64280, Note_off_c, 1, 71, 0
2, 64280, Note_off_c, 1, 75, 0
2, 64280, Note_off_c, 1, 78, 0
2, 64320, Note_on_c, 1, 67, 127
2, 64320, Note_on_c, 1, 79, 127
2, 64480, Note_off_c, 1, 67, 0
2, 64480, Note_off_c, 1, 79, 0
2, 64520, Note_on_c, 1, 65, 127
2, 64520, Note_on_c, 1, 77, 127
2, 64640, Note_off_c, 1, 65, 0
2, 64640, Note_off_c, 1, 77, 0
2, 64680, Note_on_c, 1, 55, 127
2, 64680, Note_on_c, 1, 67, 127
2, 64800, Note_off_c, 1, 55, 0
2, 64800, Note_off_c, 1, 67, 0
2, 64840, Note_on_c, 1, 53, 127
2, 64840, Note_on_c, 1, 65, 127
2, 65160, Note_off_c, 1, 53, 0
2, 65160, Note_off_c, 1, 65, 0
2, 65200, Note_on_c, 1, 50, 127
2, 65200, Note_on_c, 1, 59, 127
2, 65200, Note_on_c, 1, 62, 127
2, 65200, Note_on_c, 1, 80, 127
2, 65200, Note_on_c, 1, 83, 127
2, 65320, Note_off_c, 1, 80, 0
2, 65320, Note_off_c, 1, 83, 0
2, 65360, Note_on_c, 1, 78, 127
2, 65360, Note_on_c, 1, 81, 127
2, 65520, Note_off_c, 1, 78, 0
2, 65520, Note_off_c, 1, 81, 0
2, 65560, Note_on_c, 1, 76, 127
2, 65560, Note_on_c, 1, 80, 127
2, 65640, Note_off_c, 1, 50, 0
2, 65640, Note_on_c, 1, 51, 127
2, 65640, Note_off_c, 1, 62, 0
2, 65640, Note_on_c, 1, 63, 127
2, 65640, Note_on_c, 1, 71, 127
2, 65640, Note_off_c, 1, 76, 0
2, 65640, Note_on_c, 1, 78, 127
2, 65640, Note_off_c, 1, 80, 0
2, 65680, Note_off_c, 1, 51, 0
2, 65680, Note_off_c, 1, 59, 0
2, 65680, Note_off_c, 1, 63, 0
2, 65680, Note_off_c, 1, 71, 0
2, 65680, Note_off_c, 1, 78, 0
2, 65720, Note_on_c, 1, 51, 127
2, 65720, Note_on_c, 1, 59, 127
2, 65720, Note_on_c, 1, 63, 127
2, 65720, Note_on_c, 1, 71, 127
2, 65720, Note_on_c, 1, 78, 127
2, 65840, Note_off_c, 1, 51, 0
2, 65840, Note_off_c, 1, 59, 0
2, 65840, Note_off_c, 1, 63, 0
2, 65840, Note_off_c, 1, 71, 0
2, 65840, Note_off_c, 1, 78, 0
2, 65880, Note_on_c, 1, 51, 127
2, 65880, Note_on_c, 1, 59, 127
2, 65880, Note_on_c, 1, 63, 127
2, 65880, Note_on_c, 1, 71, 127
2, 65880, Note_on_c, 1, 78, 127
2, 66000, Note_off_c, 1, 51, 0
2, 66000, Note_off_c, 1, 59, 0
2, 66000, Note_off_c, 1, 63, 0
2, 66000, Note_off_c, 1, 71, 0
2, 66000, Note_off_c, 1, 78, 0
2, 66040, Note_on_c, 1, 51, 127
2, 66040, Note_on_c, 1, 59, 127
2, 66040, Note_on_c, 1, 63, 127
2, 66040, Note_on_c, 1, 71, 127
2, 66040, Note_on_c, 1, 78, 127
2, 66080, Note_on_c, 1, 43, 127
2, 66080, Note_off_c, 1, 51, 0
2, 66080, Note_on_c, 1, 55, 127
2, 66080, Note_off_c, 1, 59, 0
2, 66080, Note_off_c, 1, 63, 0
2, 66080, Note_off_c, 1, 71, 0
2, 66080, Note_off_c, 1, 78, 0
2, 66120, Note_off_c, 1, 43, 0
2, 66120, Note_on_c, 1, 50, 127
2, 66120, Note_off_c, 1, 55, 0
2, 66120, Note_on_c, 1, 62, 127
2, 66120, Note_on_c, 1, 70, 127
2, 66120, Note_on_c, 1, 79, 127
2, 66160, Note_off_c, 1, 50, 0
2, 66160, Note_on_c, 1, 55, 127
2, 66160, Note_on_c, 1, 59, 127
2, 66160, Note_off_c, 1, 62, 0
2, 66160, Note_on_c, 1, 67, 127
2, 66160, Note_off_c, 1, 70, 0
2, 66160, Note_on_c, 1, 76, 127
2, 66160, Note_off_c, 1, 79, 0
2, 66200, Note_on_c, 1, 50, 127
2, 66200, Note_off_c, 1, 55, 0
2, 66200, Note_off_c, 1, 59, 0
2, 66200, Note_on_c, 1, 62, 127
2, 66200, Note_off_c, 1, 67, 0
2, 66200, Note_on_c, 1, 70, 127
2, 66200, Note_off_c, 1, 76, 0
2, 66200, Note_on_c, 1, 79, 127
2, 66240, Note_off_c, 1, 50, 0
2, 66240, Note_off_c, 1, 62, 0
2, 66240, Note_off_c, 1, 70, 0
2, 66240, Note_off_c, 1, 79, 0
2, 66280, Note_on_c, 1, 32, 127
2, 66280, Note_on_c, 1, 44, 127
2, 66280, Note_on_c, 1, 51, 127
2, 66280, Note_on_c, 1, 56, 127
2, 66280, Note_on_c, 1, 60, 127
2, 66280, Note_on_c, 1, 61, 127
2, 66280, Note_on_c, 1, 66, 127
2, 66280, Note_on_c, 1, 68, 127
2, 66600, Note_off_c, 1, 32, 0
2, 66600, Note_off_c, 1, 44, 0
2, 66600, Note_off_c, 1, 51, 0
2, 66600, Note_off_c, 1, 56, 0
2, 66600, Note_off_c, 1, 60, 0
2, 66600, Note_off_c, 1, 61, 0
2, 66600, Note_off_c, 1, 66, 0
2, 66600, Note_off_c, 1, 68, 0
2, 66640, Note_on_c, 1, 31, 127
2, 66640, Note_on_c, 1, 43, 127
2, 66640, Note_on_c, 1, 69, 127
2, 66640, Note_on_c, 1, 81, 127
2, 66760, Note_off_c, 1, 31, 0
2, 66760, Note_off_c, 1, 43, 0
2, 66760, Note_off_c, 1, 69, 0
2, 66760, Note_off_c, 1, 81, 0
2, 66800, Note_on_c, 1, 31, 127
2, 66800, Note_on_c, 1, 43, 127
2, 66800, Note_on_c, 1, 70, 127
2, 66800, Note_on_c, 1, 82, 127
2, 66920, Note_off_c, 1, 31, 0
2, 66920, Note_off_c, 1, 43, 0
2, 66920, Note_off_c, 1, 70, 0
2, 66920, Note_off_c, 1, 82, 0
2, 66960, Note_on_c, 1, 31, 127
2, 66960, Note_on_c, 1, 43, 127
2, 66960, Note_on_c, 1, 70, 127
2, 66960, Note_on_c, 1, 82, 127
2, 67120, Note_off_c, 1, 31, 0
2, 67120, Note_on_c, 1, 32, 127
2, 67120, Note_off_c, 1, 43, 0
2, 67120, Note_on_c, 1, 44, 127
2, 67120, Note_off_c, 1, 70, 0
2, 67120, Note_off_c, 1, 82, 0
2, 67160, Note_on_c, 1, 31, 127
2, 67160, Note_off_c, 1, 32, 0
2, 67160, Note_on_c, 1, 43, 127
2, 67160, Note_off_c, 1, 44, 0
2, 67160, Note_on_c, 1, 70, 127
2, 67160, Note_on_c, 1, 82, 127
2, 67280, Note_off_c, 1, 31, 0
2, 67280, Note_off_c, 1, 43, 0
2, 67280, Note_off_c, 1, 70, 0
2, 67280, Note_off_c, 1, 82, 0
2, 67320, Note_on_c, 1, 34, 127
2, 67320, Note_on_c, 1, 46, 127
2, 67320, Note_on_c, 1, 64, 127
2, 67320, Note_on_c, 1, 76, 127
2, 67440, Note_off_c, 1, 34, 0
2, 67440, Note_off_c, 1, 46, 0
2, 67440, Note_off_c, 1, 64, 0
2, 67440, Note_off_c, 1, 76, 0
2, 67480, Note_on_c, 1, 34, 127
2, 67480, Note_on_c, 1, 46, 127
2, 67480, Note_on_c, 1, 64, 127
2, 67480, Note_on_c, 1, 76, 127
2, 67640, Note_off_c, 1, 34, 0
2, 67640, Note_off_c, 1, 46, 0
2, 67680, Note_on_c, 1, 56, 127
2, 67680, Note_on_c, 1, 63, 127
2, 67680, Note_off_c, 1, 64, 0
2, 67680, Note_on_c, 1, 72, 127
2, 67800, Note_off_c, 1, 56, 0
2, 67800, Note_off_c, 1, 63, 0
2, 67800, Note_off_c, 1, 72, 0
2, 67800, Note_off_c, 1, 76, 0
2, 67840, Note_on_c, 1, 36, 127
2, 67840, Note_on_c, 1, 40, 127
2, 67840, Note_on_c, 1, 45, 127
2, 68040, Note_off_c, 1, 36, 0
2, 68040, Note_off_c, 1, 40, 0
2, 68040, Note_off_c, 1, 45, 0
2, 68080, Note_on_c, 1, 36, 127
2, 68080, Note_on_c, 1, 40, 127
2, 68080, Note_on_c, 1, 45, 127
2, 68200, Note_off_c, 1, 36, 0
2, 68200, Note_off_c, 1, 40, 0
2, 68200, Note_off_c, 1, 45, 0
2, 68240, Note_on_c, 1, 36, 127
2, 68240, Note_on_c, 1, 40, 127
2, 68240, Note_on_c, 1, 45, 127
2, 68720, Note_off_c, 1, 36, 0
2, 68720, Note_off_c, 1, 40, 0
2, 68720, Note_off_c, 1, 45, 0
2, 68760, Note_on_c, 1, 36, 127
2, 68760, Note_on_c, 1, 40, 127
2, 68760, Note_on_c, 1, 45, 127
2, 69760, Note_off_c, 1, 36, 0
2, 69760, Note_off_c, 1, 40, 0
2, 69760, Note_off_c, 1, 45, 0
2, 71200, Note_on_c, 1, 74, 127
2, 71240, Note_on_c, 1, 72, 127
2, 71360, Note_off_c, 1, 72, 0
2, 71360, Note_on_c, 1, 75, 127
2, 71560, Note_on_c, 1, 72, 127
2, 71560, Note_off_c, 1, 75, 0
2, 71840, Note_off_c, 1, 74, 0
2, 71880, Note_on_c, 1, 70, 127
2, 71880, Note_off_c, 1, 72, 0
2, 71880, Note_on_c, 1, 77, 127
2, 71880, Note_on_c, 1, 80, 127
2, 72160, Note_off_c, 1, 70, 0
2, 72240, Note_on_c, 1, 70, 127
2, 72560, Note_off_c, 1, 70, 0
2, 72560, Note_off_c, 1, 77, 0
2, 72560, Note_off_c, 1, 80, 0
2, 72600, Note_on_c, 1, 70, 127
2, 72600, Note_on_c, 1, 74, 127
2, 72600, Note_on_c, 1, 77, 127
2, 73080, Note_off_c, 1, 70, 0
2, 73080, Note_off_c, 1, 74, 0
2, 73080, Note_off_c, 1, 77, 0
2, 73120, Note_on_c, 1, 70, 127
2, 73120, Note_on_c, 1, 74, 127
2, 73120, Note_on_c, 1, 77, 127
2, 73320, Note_on_c, 1, 67, 127
2, 73320, Note_off_c, 1, 77, 0
2, 73320, Note_on_c, 1, 79, 127
2, 73640, Note_off_c, 1, 67, 0
2, 73640, Note_off_c, 1, 70, 0
2, 73640, Note_on_c, 1, 72, 127
2, 73640, Note_off_c, 1, 74, 0
2, 73640, Note_on_c, 1, 75, 127
2, 73640, Note_off_c, 1, 79, 0
2, 73640, Note_on_c, 1, 80, 127
2, 73680, Note_on_c, 1, 63, 127
2, 73680, Note_on_c, 1, 66, 127
2, 73680, Note_off_c, 1, 72, 0
2, 73680, Note_off_c, 1, 75, 0
2, 73680, Note_off_c, 1, 80, 0
2, 73680, Note_on_c, 1, 87, 127
2, 73680, Note_on_c, 1, 95, 127
2, 73720, Note_on_c, 1, 46, 127
2, 73720, Note_on_c, 1, 49, 127
2, 73720, Note_on_c, 1, 52, 127
2, 73720, Note_off_c, 1, 63, 0
2, 73720, Note_off_c, 1, 66, 0
2, 73720, Note_on_c, 1, 67, 127
2, 73720, Note_on_c, 1, 74, 127
2, 73720, Note_off_c, 1, 87, 0
2, 73720, Note_off_c, 1, 95, 0
2, 73760, Note_off_c, 1, 46, 0
2, 73760, Note_off_c, 1, 49, 0
2, 73760, Note_off_c, 1, 52, 0
2, 73760, Note_on_c, 1, 59, 127
2, 73760, Note_off_c, 1, 67, 0
2, 73760, Note_on_c, 1, 68, 127
2, 73760, Note_off_c, 1, 74, 0
2, 73760, Note_on_c, 1, 80, 127
2, 73760, Note_on_c, 1, 88, 127
2, 73800, Note_on_c, 1, 53, 127
2, 73800, Note_on_c, 1, 55, 127
2, 73800, Note_on_c, 1, 57, 127
2, 73800, Note_off_c, 1, 59, 0
2, 73800, Note_on_c, 1, 63, 127
2, 73800, Note_off_c, 1, 68, 0
2, 73800, Note_off_c, 1, 80, 0
2, 73800, Note_off_c, 1, 88, 0
2, 73840, Note_on_c, 1, 50, 127
2, 73840, Note_off_c, 1, 53, 0
2, 73840, Note_off_c, 1, 55, 0
2, 73840, Note_off_c, 1, 57, 0
2, 73840, Note_on_c, 1, 58, 127
2, 73840, Note_on_c, 1, 62, 127
2, 73840, Note_off_c, 1, 63, 0
2, 73840, Note_on_c, 1, 86, 127
2, 73960, Note_off_c, 1, 50, 0
2, 73960, Note_off_c, 1, 58, 0
2, 73960, Note_off_c, 1, 62, 0
2, 73960, Note_on_c, 1, 74, 127
2, 73960, Note_on_c, 1, 77, 127
2, 73960, Note_on_c, 1, 82, 127
2, 73960, Note_off_c, 1, 86, 0
2, 74000, Note_off_c, 1, 82, 0
2, 74000, Note_on_c, 1, 84, 127
2, 74160, Note_on_c, 1, 82, 127
2, 74160, Note_off_c, 1, 84, 0
2, 74320, Note_off_c, 1, 74, 0
2, 74320, Note_off_c, 1, 77, 0
2, 74320, Note_off_c, 1, 82, 0
2, 74360, Note_on_c, 1, 70, 127
2, 74360, Note_on_c, 1, 77, 127
2, 74360, Note_on_c, 1, 82, 127
2, 74360, Note_on_c, 1, 86, 127
2, 74640, Note_off_c, 1, 70, 0
2, 74640, Note_off_c, 1, 77, 0
2, 74720, Note_on_c, 1, 55, 127
2, 74720, Note_on_c, 1, 58, 127
2, 74720, Note_on_c, 1, 62, 127
2, 74720, Note_on_c, 1, 67, 127
2, 74720, Note_on_c, 1, 70, 127
2, 74720, Note_off_c, 1, 82, 0
2, 74720, Note_off_c, 1, 86, 0
2, 75000, Note_off_c, 1, 67, 0
2, 75000, Note_off_c, 1, 70, 0
2, 75040, Note_off_c, 1, 55, 0
2, 75040, Note_off_c, 1, 58, 0
2, 75040, Note_off_c, 1, 62, 0
2, 75040, Note_on_c, 1, 67, 127
2, 75040, Note_on_c, 1, 72, 127
2, 75040, Note_on_c, 1, 76, 127
2, 75040, Note_on_c, 1, 79, 127
2, 75160, Note_off_c, 1, 67, 0
2, 75160, Note_off_c, 1, 72, 0
2, 75160, Note_off_c, 1, 76, 0
2, 75160, Note_off_c, 1, 79, 0
2, 75200, Note_on_c, 1, 67, 127
2, 75200, Note_on_c, 1, 72, 127
2, 75200, Note_on_c, 1, 76, 127
2, 75200, Note_on_c, 1, 79, 127
2, 76080, Note_off_c, 1, 67, 0
2, 76080, Note_off_c, 1, 72, 0
2, 76080, Note_off_c, 1, 76, 0
2, 76080, Note_off_c, 1, 79, 0
2, 76120, Note_on_c, 1, 58, 127
2, 76120, Note_on_c, 1, 64, 127
2, 76120, Note_on_c, 1, 72, 127
2, 76120, Note_on_c, 1, 81, 127
2, 76240, Note_on_c, 1, 79, 127
2, 76240, Note_off_c, 1, 81, 0
2, 76760, Note_off_c, 1, 58, 0
2, 76760, Note_off_c, 1, 64, 0
2, 76760, Note_off_c, 1, 72, 0
2, 76760, Note_off_c, 1, 79, 0
2, 76800, Note_on_c, 1, 65, 127
2, 76800, Note_on_c, 1, 69, 127
2, 76800, Note_on_c, 1, 77, 127
2, 76800, Note_on_c, 1, 84, 127
2, 77120, Note_off_c, 1, 65, 0
2, 77120, Note_off_c, 1, 69, 0
2, 77120, Note_on_c, 1, 72, 127
2, 77160, Note_on_c, 1, 59, 127
2, 77160, Note_off_c, 1, 72, 0
2, 77160, Note_off_c, 1, 77, 0
2, 77160, Note_on_c, 1, 80, 127
2, 77160, Note_off_c, 1, 84, 0
2, 77160, Note_on_c, 1, 87, 127
2, 77160, Note_on_c, 1, 92, 127
2, 77280, Note_off_c, 1, 59, 0
2, 77280, Note_off_c, 1, 80, 0
2, 77280, Note_off_c, 1, 87, 0
2, 77280, Note_off_c, 1, 92, 0
2, 77320, Note_on_c, 1, 59, 127
2, 77320, Note_on_c, 1, 80, 127
2, 77320, Note_on_c, 1, 87, 127
2, 77320, Note_on_c, 1, 92, 127
2, 77480, Note_off_c, 1, 59, 0
2, 77480, Note_on_c, 1, 70, 127
2, 77480, Note_on_c, 1, 77, 127
2, 77480, Note_off_c, 1, 80, 0
2, 77480, Note_off_c, 1, 87, 0
2, 77480, Note_off_c, 1, 92, 0
2, 77520, Note_on_c, 1, 59, 127
2, 77520, Note_off_c, 1, 70, 0
2, 77520, Note_off_c, 1, 77, 0
2, 77520, Note_on_c, 1, 80, 127
2, 77520, Note_on_c, 1, 87, 127
2, 77520, Note_on_c, 1, 92, 127
2, 77840, Note_off_c, 1, 59, 0
2, 77840, Note_off_c, 1, 80, 0
2, 77840, Note_off_c, 1, 87, 0
2, 77840, Note_off_c, 1, 92, 0
2, 77880, Note_on_c, 1, 36, 127
2, 77880, Note_on_c, 1, 48, 127
2, 77880, Note_on_c, 1, 52, 127
2, 77880, Note_on_c, 1, 64, 127
2, 77880, Note_on_c, 1, 76, 127
2, 77880, Note_on_c, 1, 84, 127
2, 77880, Note_on_c, 1, 88, 127
2, 78880, Note_off_c, 1, 36, 0
2, 78880, Note_off_c, 1, 48, 0
2, 78880, Note_off_c, 1, 52, 0
2, 78880, Note_off_c, 1, 64, 0
2, 78880, Note_off_c, 1, 76, 0
2, 78880, Note_off_c, 1, 84, 0
2, 78880, Note_off_c, 1, 88, 0
2, 78920, Note_on_c, 1, 62, 127
2, 78920, Note_on_c, 1, 69, 127
2, 78920, Note_on_c, 1, 77, 127
2, 78920, Note_on_c, 1, 81, 127
2, 78920, Note_on_c, 1, 89, 127
2, 79280, Note_off_c, 1, 62, 0
2, 79280, Note_off_c, 1, 69, 0
2, 79280, Note_off_c, 1, 77, 0
2, 79280, Note_off_c, 1, 81, 0
2, 79280, Note_off_c, 1, 89, 0
2, 79320, Note_on_c, 1, 62, 127
2, 79320, Note_on_c, 1, 69, 127
2, 79320, Note_on_c, 1, 77, 127
2, 79320, Note_on_c, 1, 81, 127
2, 79320, Note_on_c, 1, 89, 127
2, 79960, Note_off_c, 1, 62, 0
2, 79960, Note_off_c, 1, 69, 0
2, 79960, Note_off_c, 1, 77, 0
2, 79960, Note_off_c, 1, 81, 0
2, 79960, Note_off_c, 1, 89, 0
2, 80000, Note_on_c, 1, 36, 127
2, 80000, Note_on_c, 1, 48, 127
2, 80000, Note_on_c, 1, 58, 127
2, 80000, Note_on_c, 1, 60, 127
2, 80000, Note_on_c, 1, 64, 127
2, 80000, Note_on_c, 1, 67, 127
2, 80640, Note_off_c, 1, 36, 0
2, 80640, Note_off_c, 1, 48, 0
2, 80640, Note_off_c, 1, 58, 0
2, 80640, Note_off_c, 1, 60, 0
2, 80640, Note_off_c, 1, 64, 0
2, 80640, Note_off_c, 1, 67, 0
2, 80680, Note_on_c, 1, 36, 127
2, 80680, Note_on_c, 1, 43, 127
2, 80680, Note_on_c, 1, 48, 127
2, 80680, Note_on_c, 1, 52, 127
2, 80680, Note_on_c, 1, 60, 127
2, 81320, Note_off_c, 1, 36, 0
2, 81320, Note_off_c, 1, 43, 0
2, 81320, Note_off_c, 1, 48, 0
2, 81320, Note_off_c, 1, 52, 0
2, 81320, Note_off_c, 1, 60, 0
2, 81360, Note_on_c, 1, 36, 127
2, 81360, Note_on_c, 1, 43, 127
2, 81360, Note_on_c, 1, 48, 127
2, 81360, Note_on_c, 1, 52, 127
2, 81360, Note_on_c, 1, 60, 127
2, 81720, Note_off_c, 1, 36, 0
2, 81720, Note_off_c, 1, 43, 0
2, 81720, Note_off_c, 1, 48, 0
2, 81720, Note_off_c, 1, 52, 0
2, 81720, Note_off_c, 1, 60, 0
2, 81760, Note_on_c, 1, 45, 127
2, 81760, Note_on_c, 1, 51, 127
2, 81760, Note_on_c, 1, 57, 127
2, 81760, Note_on_c, 1, 61, 127
2, 82720, Note_off_c, 1, 45, 0
2, 82720, Note_off_c, 1, 51, 0
2, 82720, Note_off_c, 1, 57, 0
2, 82720, Note_off_c, 1, 61, 0
2, 84640, Note_on_c, 1, 41, 127
2, 84640, Note_on_c, 1, 53, 127
2, 84640, Note_on_c, 1, 65, 127
2, 84720, Note_off_c, 1, 41, 0
2, 84720, Note_on_c, 1, 46, 127
2, 84720, Note_off_c, 1, 53, 0
2, 84720, Note_on_c, 1, 54, 127
2, 84720, Note_on_c, 1, 61, 127
2, 84720, Note_on_c, 1, 64, 127
2, 84720, Note_off_c, 1, 65, 0
2, 84720, Note_on_c, 1, 66, 127
2, 85280, Note_off_c, 1, 46, 0
2, 85280, Note_off_c, 1, 54, 0
2, 85280, Note_off_c, 1, 61, 0
2, 85280, Note_off_c, 1, 64, 0
2, 85280, Note_off_c, 1, 66, 0
2, 85320, Note_on_c, 1, 50, 127
2, 85320, Note_on_c, 1, 55, 127
2, 85320, Note_on_c, 1, 57, 127
2, 85320, Note_on_c, 1, 77, 127
2, 85360, Note_on_c, 1, 49, 127
2, 85360, Note_off_c, 1, 50, 0
2, 85360, Note_off_c, 1, 57, 0
2, 85360, Note_on_c, 1, 65, 127
2, 85360, Note_on_c, 1, 70, 127
2, 85360, Note_off_c, 1, 77, 0
2, 85400, Note_off_c, 1, 49, 0
2, 85400, Note_on_c, 1, 54, 127
2, 85400, Note_off_c, 1, 55, 0
2, 85400, Note_on_c, 1, 57, 127
2, 85400, Note_on_c, 1, 62, 127
2, 85400, Note_off_c, 1, 65, 0
2, 85400, Note_on_c, 1, 66, 127
2, 85400, Note_on_c, 1, 69, 127
2, 85400, Note_off_c, 1, 70, 0
2, 85400, Note_on_c, 1, 78, 127
2, 85440, Note_on_c, 1, 49, 127
2, 85440, Note_off_c, 1, 54, 0
2, 85440, Note_on_c, 1, 55, 127
2, 85440, Note_off_c, 1, 57, 0
2, 85440, Note_off_c, 1, 62, 0
2, 85440, Note_on_c, 1, 65, 127
2, 85440, Note_off_c, 1, 66, 0
2, 85440, Note_off_c, 1, 69, 0
2, 85440, Note_on_c, 1, 70, 127
2, 85440, Note_off_c, 1, 78, 0
2, 85600, Note_off_c, 1, 49, 0
2, 85600, Note_off_c, 1, 55, 0
2, 85600, Note_off_c, 1, 65, 0
2, 85600, Note_on_c, 1, 66, 127
2, 85600, Note_off_c, 1, 70, 0
2, 85600, Note_on_c, 1, 73, 127
2, 85600, Note_on_c, 1, 76, 127
2, 85600, Note_on_c, 1, 83, 127
2, 85640, Note_off_c, 1, 66, 0
2, 85640, Note_off_c, 1, 73, 0
2, 85640, Note_off_c, 1, 76, 0
2, 85640, Note_off_c, 1, 83, 0
2, 85680, Note_on_c, 1, 48, 127
2, 85680, Note_on_c, 1, 53, 127
2, 85680, Note_on_c, 1, 60, 127
2, 85680, Note_on_c, 1, 63, 127
2, 85680, Note_on_c, 1, 65, 127
2, 85720, Note_on_c, 1, 42, 127
2, 85720, Note_on_c, 1, 44, 127
2, 85720, Note_off_c, 1, 48, 0
2, 85720, Note_on_c, 1, 49, 127
2, 85720, Note_off_c, 1, 60, 0
2, 85720, Note_off_c, 1, 63, 0
2, 85720, Note_off_c, 1, 65, 0
2, 85760, Note_off_c, 1, 42, 0
2, 85760, Note_off_c, 1, 44, 0
2, 85760, Note_off_c, 1, 49, 0
2, 85760, Note_off_c, 1, 53, 0
2, 85760, Note_on_c, 1, 64, 127
2, 85760, Note_on_c, 1, 76, 127
2, 85760, Note_on_c, 1, 91, 127
2, 85760, Note_on_c, 1, 94, 127
2, 85800, Note_on_c, 1, 47, 127
2, 85800, Note_off_c, 1, 64, 0
2, 85800, Note_off_c, 1, 76, 0
2, 85800, Note_on_c, 1, 77, 127
2, 85800, Note_on_c, 1, 83, 127
2, 85800, Note_on_c, 1, 86, 127
2, 85800, Note_on_c, 1, 89, 127
2, 85800, Note_off_c, 1, 91, 0
2, 85800, Note_off_c, 1, 94, 0
2, 85840, Note_on_c, 1, 36, 127
2, 85840, Note_on_c, 1, 43, 127
2, 85840, Note_off_c, 1, 47, 0
2, 85840, Note_on_c, 1, 48, 127
2, 85840, Note_on_c, 1, 63, 127
2, 85840, Note_off_c, 1, 77, 0
2, 85840, Note_off_c, 1, 83, 0
2, 85840, Note_off_c, 1, 86, 0
2, 85840, Note_off_c, 1, 89, 0
2, 85960, Note_off_c, 1, 36, 0
2, 85960, Note_off_c, 1, 43, 0
2, 85960, Note_off_c, 1, 48, 0
2, 85960, Note_off_c, 1, 63, 0
2, 86000, Note_on_c, 1, 43, 127
2, 86000, Note_on_c, 1, 48, 127
2, 86000, Note_on_c, 1, 55, 127
2, 86000, Note_on_c, 1, 70, 127
2, 86000, Note_on_c, 1, 72, 127
2, 86000, Note_on_c, 1, 82, 127
2, 86320, Note_off_c, 1, 43, 0
2, 86320, Note_off_c, 1, 48, 0
2, 86320, Note_off_c, 1, 55, 0
2, 86320, Note_off_c, 1, 70, 0
2, 86320, Note_off_c, 1, 72, 0
2, 86320, Note_off_c, 1, 82, 0
2, 86360, Note_on_c, 1, 43, 127
2, 86360, Note_on_c, 1, 48, 127
2, 86360, Note_on_c, 1, 55, 127
2, 86360, Note_on_c, 1, 70, 127
2, 86360, Note_on_c, 1, 72, 127
2, 86360, Note_on_c, 1, 82, 127
2, 86520, Note_off_c, 1, 43, 0
2, 86520, Note_off_c, 1, 48, 0
2, 86520, Note_off_c, 1, 55, 0
2, 86520, Note_off_c, 1, 70, 0
2, 86520, Note_off_c, 1, 72, 0
2, 86520, Note_off_c, 1, 82, 0
2, 86560, Note_on_c, 1, 43, 127
2, 86560, Note_on_c, 1, 48, 127
2, 86560, Note_on_c, 1, 55, 127
2, 86560, Note_on_c, 1, 70, 127
2, 86560, Note_on_c, 1, 72, 127
2, 86560, Note_on_c, 1, 82, 127
2, 86720, Note_off_c, 1, 43, 0
2, 86720, Note_off_c, 1, 48, 0
2, 86720, Note_off_c, 1, 55, 0
2, 86720, Note_off_c, 1, 70, 0
2, 86720, Note_off_c, 1, 72, 0
2, 86720, Note_off_c, 1, 82, 0
2, 86760, Note_on_c, 1, 41, 127
2, 86760, Note_on_c, 1, 48, 127
2, 86760, Note_on_c, 1, 53, 127
2, 86760, Note_on_c, 1, 69, 127
2, 86760, Note_on_c, 1, 72, 127
2, 86760, Note_on_c, 1, 81, 127
2, 87400, Note_off_c, 1, 41, 0
2, 87400, Note_off_c, 1, 48, 0
2, 87400, Note_off_c, 1, 53, 0
2, 87400, Note_off_c, 1, 69, 0
2, 87400, Note_off_c, 1, 72, 0
2, 87400, Note_off_c, 1, 81, 0
2, 87440, Note_on_c, 1, 33, 127
2, 87440, Note_on_c, 1, 45, 127
2, 87440, Note_on_c, 1, 60, 127
2, 87440, Note_on_c, 1, 64, 127
2, 87440, Note_on_c, 1, 69, 127
2, 87440, Note_on_c, 1, 72, 127
2, 87760, Note_off_c, 1, 60, 0
2, 87760, Note_off_c, 1, 72, 0
2, 87800, Note_on_c, 1, 60, 127
2, 87800, Note_on_c, 1, 72, 127
2, 87920, Note_off_c, 1, 60, 0
2, 87920, Note_off_c, 1, 72, 0
2, 87960, Note_on_c, 1, 60, 127
2, 87960, Note_on_c, 1, 72, 127
2, 88080, Note_off_c, 1, 33, 0
2, 88080, Note_off_c, 1, 45, 0
2, 88080, Note_off_c, 1, 60, 0
2, 88080, Note_off_c, 1, 64, 0
2, 88080, Note_off_c, 1, 69, 0
2, 88080, Note_off_c, 1, 72, 0
2, 88160, Note_on_c, 1, 33, 127
2, 88160, Note_on_c, 1, 45, 127
2, 88160, Note_on_c, 1, 60, 127
2, 88160, Note_on_c, 1, 64, 127
2, 88160, Note_on_c, 1, 69, 127
2, 88160, Note_on_c, 1, 72, 127
2, 88440, Note_off_c, 1, 33, 0
2, 88440, Note_off_c, 1, 45, 0
2, 88440, Note_off_c, 1, 60, 0
2, 88440, Note_off_c, 1, 64, 0
2, 88440, Note_off_c, 1, 69, 0
2, 88440, Note_off_c, 1, 72, 0
2, 88480, Note_on_c, 1, 33, 127
2, 88480, Note_on_c, 1, 45, 127
2, 88480, Note_on_c, 1, 60, 127
2, 88480, Note_on_c, 1, 64, 127
2, 88480, Note_on_c, 1, 69, 127
2, 88480, Note_on_c, 1, 72, 127
2, 88600, Note_off_c, 1, 33, 0
2, 88600, Note_off_c, 1, 45, 0
2, 88600, Note_off_c, 1, 60, 0
2, 88600, Note_off_c, 1, 64, 0
2, 88600, Note_off_c, 1, 69, 0
2, 88600, Note_off_c, 1, 72, 0
2, 88640, Note_on_c, 1, 33, 127
2, 88640, Note_on_c, 1, 45, 127
2, 88640, Note_on_c, 1, 60, 127
2, 88640, Note_on_c, 1, 64, 127
2, 88640, Note_on_c, 1, 69, 127
2, 88640, Note_on_c, 1, 72, 127
2, 88800, Note_off_c, 1, 33, 0
2, 88800, Note_off_c, 1, 45, 0
2, 88800, Note_off_c, 1, 60, 0
2, 88800, Note_off_c, 1, 64, 0
2, 88800, Note_off_c, 1, 69, 0
2, 88800, Note_off_c, 1, 72, 0
2, 88880, Note_on_c, 1, 33, 127
2, 88880, Note_on_c, 1, 45, 127
2, 88880, Note_on_c, 1, 60, 127
2, 88880, Note_on_c, 1, 64, 127
2, 88880, Note_on_c, 1, 69, 127
2, 88880, Note_on_c, 1, 72, 127
2, 89000, Note_off_c, 1, 60, 0
2, 89000, Note_off_c, 1, 72, 0
2, 89040, Note_on_c, 1, 60, 127
2, 89040, Note_on_c, 1, 72, 127
2, 89160, Note_off_c, 1, 33, 0
2, 89160, Note_off_c, 1, 45, 0
2, 89160, Note_off_c, 1, 60, 0
2, 89160, Note_off_c, 1, 64, 0
2, 89160, Note_off_c, 1, 69, 0
2, 89160, Note_off_c, 1, 72, 0
2, 89240, Note_on_c, 1, 38, 127
2, 89240, Note_on_c, 1, 50, 127
2, 89240, Note_on_c, 1, 65, 127
2, 89240, Note_on_c, 1, 69, 127
2, 89520, Note_off_c, 1, 38, 0
2, 89520, Note_off_c, 1, 50, 0
2, 89520, Note_off_c, 1, 65, 0
2, 89520, Note_off_c, 1, 69, 0
2, 89560, Note_on_c, 1, 39, 127
2, 89560, Note_on_c, 1, 51, 127
2, 89560, Note_on_c, 1, 57, 127
2, 89560, Note_on_c, 1, 60, 127
2, 89560, Note_on_c, 1, 66, 127
2, 89560, Note_on_c, 1, 69, 127
2, 89880, Note_off_c, 1, 39, 0
2, 89880, Note_off_c, 1, 51, 0
2, 89880, Note_off_c, 1, 57, 0
2, 89880, Note_off_c, 1, 60, 0
2, 89880, Note_off_c, 1, 66, 0
2, 89880, Note_off_c, 1, 69, 0
2, 89920, Note_on_c, 1, 39, 127
2, 89920, Note_on_c, 1, 51, 127
2, 89920, Note_on_c, 1, 57, 127
2, 89920, Note_on_c, 1, 60, 127
2, 89920, Note_on_c, 1, 66, 127
2, 89920, Note_on_c, 1, 69, 127
2, 90240, Note_off_c, 1, 39, 0
2, 90240, Note_off_c, 1, 51, 0
2, 90240, Note_off_c, 1, 57, 0
2, 90240, Note_off_c, 1, 60, 0
2, 90240, Note_off_c, 1, 66, 0
2, 90240, Note_off_c, 1, 69, 0
2, 90280, Note_on_c, 1, 60, 127
2, 90280, Note_on_c, 1, 63, 127
2, 90280, Note_on_c, 1, 66, 127
2, 90280, Note_on_c, 1, 74, 127
2, 90280, Note_on_c, 1, 78, 127
2, 90320, Note_on_c, 1, 49, 127
2, 90320, Note_off_c, 1, 60, 0
2, 90320, Note_on_c, 1, 61, 127
2, 90320, Note_off_c, 1, 63, 0
2, 90320, Note_on_c, 1, 64, 127
2, 90320, Note_off_c, 1, 66, 0
2, 90320, Note_on_c, 1, 69, 127
2, 90320, Note_on_c, 1, 73, 127
2, 90320, Note_off_c, 1, 74, 0
2, 90320, Note_off_c, 1, 78, 0
2, 90320, Note_on_c, 1, 81, 127
2, 90600, Note_off_c, 1, 49, 0
2, 90600, Note_off_c, 1, 61, 0
2, 90600, Note_off_c, 1, 64, 0
2, 90600, Note_off_c, 1, 69, 0
2, 90600, Note_off_c, 1, 73, 0
2, 90600, Note_off_c, 1, 81, 0
2, 90680, Note_on_c, 1, 57, 127
2, 90680, Note_on_c, 1, 74, 127
2, 90680, Note_on_c, 1, 82, 127
2, 90680, Note_on_c, 1, 86, 127
2, 90720, Note_off_c, 1, 57, 0
2, 90720, Note_on_c, 1, 62, 127
2, 90720, Note_on_c, 1, 67, 127
2, 90720, Note_on_c, 1, 79, 127
2, 90720, Note_off_c, 1, 82, 0
2, 90720, Note_on_c, 1, 83, 127
2, 90720, Note_off_c, 1, 86, 0
2, 90720, Note_on_c, 1, 91, 127
2, 90760, Note_on_c, 1, 45, 127
2, 90760, Note_off_c, 1, 62, 0
2, 90760, Note_off_c, 1, 67, 0
2, 90760, Note_off_c, 1, 74, 0
2, 90760, Note_on_c, 1, 77, 127
2, 90760, Note_off_c, 1, 79, 0
2, 90760, Note_on_c, 1, 81, 127
2, 90760, Note_off_c, 1, 83, 0
2, 90760, Note_on_c, 1, 89, 127
2, 90760, Note_off_c, 1, 91, 0
2, 90800, Note_off_c, 1, 45, 0
2, 90800, Note_on_c, 1, 74, 127
2, 90800, Note_off_c, 1, 77, 0
2, 90800, Note_off_c, 1, 81, 0
2, 90800, Note_on_c, 1, 82, 127
2, 90800, Note_on_c, 1, 86, 127
2, 90800, Note_off_c, 1, 89, 0
2, 90840, Note_on_c, 1, 47, 127
2, 90840, Note_on_c, 1, 55, 127
2, 90840, Note_on_c, 1, 65, 127
2, 90840, Note_off_c, 1, 74, 0
2, 90840, Note_off_c, 1, 82, 0
2, 90840, Note_off_c, 1, 86, 0
2, 90840, Note_on_c, 1, 89, 127
2, 90960, Note_off_c, 1, 47, 0
2, 90960, Note_off_c, 1, 55, 0
2, 90960, Note_off_c, 1, 89, 0
2, 91000, Note_on_c, 1, 47, 127
2, 91000, Note_on_c, 1, 55, 127
2, 91000, Note_on_c, 1, 89, 127
2, 91240, Note_off_c, 1, 89, 0
2, 91280, Note_off_c, 1, 47, 0
2, 91280, Note_off_c, 1, 55, 0
2, 91320, Note_off_c, 1, 65, 0
2, 91360, Note_on_c, 1, 36, 127
2, 91360, Note_on_c, 1, 44, 127
2, 91360, Note_on_c, 1, 64, 127
2, 91360, Note_on_c, 1, 67, 127
2, 91400, Note_on_c, 1, 43, 127
2, 91400, Note_off_c, 1, 44, 0
2, 91400, Note_off_c, 1, 64, 0
2, 91400, Note_off_c, 1, 67, 0
2, 91400, Note_on_c, 1, 76, 127
2, 91440, Note_off_c, 1, 43, 0
2, 91440, Note_on_c, 1, 44, 127
2, 91440, Note_on_c, 1, 64, 127
2, 91440, Note_on_c, 1, 67, 127
2, 91440, Note_off_c, 1, 76, 0
2, 91480, Note_on_c, 1, 43, 127
2, 91480, Note_off_c, 1, 44, 0
2, 91480, Note_off_c, 1, 64, 0
2, 91480, Note_off_c, 1, 67, 0
2, 91520, Note_on_c, 1, 64, 127
2, 91520, Note_on_c, 1, 76, 127
2, 91600, Note_off_c, 1, 64, 0
2, 91600, Note_off_c, 1, 76, 0
2, 91640, Note_off_c, 1, 36, 0
2, 91640, Note_off_c, 1, 43, 0
2, 91640, Note_on_c, 1, 72, 127
2, 91680, Note_on_c, 1, 36, 127
2, 91680, Note_on_c, 1, 43, 127
2, 91680, Note_off_c, 1, 72, 0
2, 91960, Note_off_c, 1, 36, 0
2, 91960, Note_off_c, 1, 43, 0
2, 92040, Note_on_c, 1, 48, 127
2, 92040, Note_on_c, 1, 54, 127
2, 92040, Note_on_c, 1, 71, 127
2, 92200, Note_on_c, 1, 45, 127
2, 92200, Note_off_c, 1, 48, 0
2, 92200, Note_on_c, 1, 52, 127
2, 92200, Note_off_c, 1, 54, 0
2, 92200, Note_off_c, 1, 71, 0
2, 92200, Note_on_c, 1, 83, 127
2, 92200, Note_on_c, 1, 91, 127
2, 92200, Note_on_c, 1, 95, 127
2, 92240, Note_off_c, 1, 45, 0
2, 92240, Note_on_c, 1, 47, 127
2, 92240, Note_on_c, 1, 51, 127
2, 92240, Note_off_c, 1, 52, 0
2, 92240, Note_on_c, 1, 69, 127
2, 92240, Note_on_c, 1, 72, 127
2, 92240, Note_off_c, 1, 83, 0
2, 92240, Note_off_c, 1, 91, 0
2, 92240, Note_off_c, 1, 95, 0
2, 92280, Note_on_c, 1, 46, 127
2, 92280, Note_off_c, 1, 47, 0
2, 92280, Note_off_c, 1, 51, 0
2, 92280, Note_on_c, 1, 55, 127
2, 92280, Note_on_c, 1, 61, 127
2, 92280, Note_off_c, 1, 69, 0
2, 92280, Note_off_c, 1, 72, 0
2, 92280, Note_on_c, 1, 73, 127
2, 92320, Note_on_c, 1, 39, 127
2, 92320, Note_off_c, 1, 46, 0
2, 92320, Note_off_c, 1, 55, 0
2, 92320, Note_off_c, 1, 61, 0
2, 92320, Note_on_c, 1, 65, 127
2, 92320, Note_on_c, 1, 68, 127
2, 92320, Note_on_c, 1, 72, 127
2, 92320, Note_off_c, 1, 73, 0
2, 92360, Note_off_c, 1, 39, 0
2, 92360, Note_on_c, 1, 48, 127
2, 92360, Note_off_c, 1, 65, 0
2, 92360, Note_off_c, 1, 68, 0
2, 92360, Note_off_c, 1, 72, 0
2, 92400, Note_on_c, 1, 47, 127
2, 92400, Note_off_c, 1, 48, 0
2, 92400, Note_on_c, 1, 56, 127
2, 92400, Note_on_c, 1, 65, 127
2, 92560, Note_off_c, 1, 47, 0
2, 92560, Note_off_c, 1, 56, 0
2, 92560, Note_off_c, 1, 65, 0
2, 92600, Note_on_c, 1, 47, 127
2, 92600, Note_on_c, 1, 56, 127
2, 92600, Note_on_c, 1, 65, 127
2, 92720, Note_off_c, 1, 47, 0
2, 92720, Note_off_c, 1, 56, 0
2, 92720, Note_off_c, 1, 65, 0
2, 92760, Note_on_c, 1, 53, 127
2, 92760, Note_on_c, 1, 56, 127
2, 92760, Note_on_c, 1, 65, 127
2, 92760, Note_on_c, 1, 74, 127
2, 93040, Note_off_c, 1, 53, 0
2, 93040, Note_off_c, 1, 56, 0
2, 93040, Note_off_c, 1, 65, 0
2, 93040, Note_off_c, 1, 74, 0
2, 93120, Note_on_c, 1, 33, 127
2, 93120, Note_on_c, 1, 45, 127
2, 93120, Note_on_c, 1, 49, 127
2, 93120, Note_on_c, 1, 52, 127
2, 93120, Note_on_c, 1, 57, 127
2, 93400, Note_off_c, 1, 33, 0
2, 93400, Note_off_c, 1, 45, 0
2, 93400, Note_off_c, 1, 49, 0
2, 93400, Note_off_c, 1, 52, 0
2, 93400, Note_off_c, 1, 57, 0
2, 93480, Note_on_c, 1, 33, 127
2, 93480, Note_on_c, 1, 45, 127
2, 93480, Note_on_c, 1, 49, 127
2, 93480, Note_on_c, 1, 52, 127
2, 93480, Note_on_c, 1, 57, 127
2, 94120, Note_off_c, 1, 33, 0
2, 94120, Note_off_c, 1, 45, 0
2, 94120, Note_off_c, 1, 49, 0
2, 94120, Note_off_c, 1, 52, 0
2, 94120, Note_off_c, 1, 57, 0
2, 94160, Note_on_c, 1, 35, 127
2, 94160, Note_on_c, 1, 76, 127
2, 94160, Note_on_c, 1, 79, 127
2, 94160, Note_on_c, 1, 84, 127
2, 94160, Note_on_c, 1, 89, 127
2, 94200, Note_off_c, 1, 35, 0
2, 94200, Note_on_c, 1, 40, 127
2, 94200, Note_on_c, 1, 48, 127
2, 94200, Note_on_c, 1, 60, 127
2, 94200, Note_on_c, 1, 67, 127
2, 94200, Note_on_c, 1, 72, 127
2, 94200, Note_off_c, 1, 76, 0
2, 94200, Note_off_c, 1, 79, 0
2, 94200, Note_off_c, 1, 84, 0
2, 94200, Note_off_c, 1, 89, 0
2, 94240, Note_off_c, 1, 40, 0
2, 94240, Note_on_c, 1, 41, 127
2, 94240, Note_on_c, 1, 53, 127
2, 94240, Note_off_c, 1, 60, 0
2, 94240, Note_off_c, 1, 67, 0
2, 94240, Note_on_c, 1, 84, 127
2, 94280, Note_off_c, 1, 41, 0
2, 94280, Note_off_c, 1, 48, 0
2, 94280, Note_off_c, 1, 53, 0
2, 94280, Note_on_c, 1, 63, 127
2, 94280, Note_on_c, 1, 69, 127
2, 94280, Note_off_c, 1, 72, 0
2, 94280, Note_on_c, 1, 73, 127
2, 94280, Note_on_c, 1, 76, 127
2, 94280, Note_on_c, 1, 80, 127
2, 94280, Note_off_c, 1, 84, 0
2, 94320, Note_on_c, 1, 36, 127
2, 94320, Note_on_c, 1, 40, 127
2, 94320, Note_on_c, 1, 48, 127
2, 94320, Note_off_c, 1, 63, 0
2, 94320, Note_off_c, 1, 69, 0
2, 94320, Note_off_c, 1, 73, 0
2, 94320, Note_off_c, 1, 76, 0
2, 94320, Note_off_c, 1, 80, 0
2, 94440, Note_on_c, 1, 33, 127
2, 94440, Note_off_c, 1, 36, 0
2, 94440, Note_off_c, 1, 40, 0
2, 94440, Note_off_c, 1, 48, 0
2, 94480, Note_off_c, 1, 33, 0
2, 94520, Note_on_c, 1, 33, 127
2, 94520, Note_on_c, 1, 49, 127
2, 94520, Note_on_c, 1, 52, 127
2, 94520, Note_on_c, 1, 57, 127
2, 94680, Note_off_c, 1, 33, 0
2, 94680, Note_off_c, 1, 49, 0
2, 94680, Note_off_c, 1, 52, 0
2, 94680, Note_off_c, 1, 57, 0
2, 94720, Note_on_c, 1, 33, 127
2, 94720, Note_on_c, 1, 49, 127
2, 94720, Note_on_c, 1, 52, 127
2, 94720, Note_on_c, 1, 57, 127
2, 94840, Note_off_c, 1, 49, 0
2, 94840, Note_off_c, 1, 52, 0
2, 94840, Note_off_c, 1, 57, 0
2, 94880, Note_on_c, 1, 49, 127
2, 94880, Note_on_c, 1, 52, 127
2, 94880, Note_on_c, 1, 57, 127
2, 95160, Note_off_c, 1, 33, 0
2, 95160, Note_off_c, 1, 49, 0
2, 95160, Note_off_c, 1, 52, 0
2, 95160, Note_off_c, 1, 57, 0
2, 95240, Note_on_c, 1, 33, 127
2, 95240, Note_on_c, 1, 49, 127
2, 95240, Note_on_c, 1, 52, 127
2, 95240, Note_on_c, 1, 57, 127
2, 95520, Note_off_c, 1, 33, 0
2, 95520, Note_off_c, 1, 49, 0
2, 95520, Note_off_c, 1, 52, 0
2, 95520, Note_off_c, 1, 57, 0
2, 95600, Note_on_c, 1, 35, 127
2, 95600, Note_on_c, 1, 41, 127
2, 95600, Note_on_c, 1, 44, 127
2, 95600, Note_on_c, 1, 50, 127
2, 95600, Note_on_c, 1, 53, 127
2, 95600, Note_on_c, 1, 59, 127
2, 95640, Note_off_c, 1, 35, 0
2, 95640, Note_off_c, 1, 41, 0
2, 95640, Note_off_c, 1, 44, 0
2, 95640, Note_off_c, 1, 50, 0
2, 95640, Note_off_c, 1, 53, 0
2, 95640, Note_on_c, 1, 54, 127
2, 95640, Note_on_c, 1, 58, 127
2, 95640, Note_off_c, 1, 59, 0
2, 95640, Note_on_c, 1, 66, 127
2, 95640, Note_on_c, 1, 73, 127
2, 95640, Note_on_c, 1, 76, 127
2, 95680, Note_on_c, 1, 47, 127
2, 95680, Note_off_c, 1, 54, 0
2, 95680, Note_on_c, 1, 55, 127
2, 95680, Note_off_c, 1, 58, 0
2, 95680, Note_on_c, 1, 62, 127
2, 95680, Note_on_c, 1, 65, 127
2, 95680, Note_off_c, 1, 66, 0
2, 95680, Note_on_c, 1, 69, 127
2, 95680, Note_off_c, 1, 73, 0
2, 95680, Note_off_c, 1, 76, 0
2, 95720, Note_off_c, 1, 47, 0
2, 95720, Note_off_c, 1, 62, 0
2, 95720, Note_off_c, 1, 65, 0
2, 95720, Note_off_c, 1, 69, 0
2, 95720, Note_on_c, 1, 93, 127
2, 95720, Note_on_c, 1, 96, 127
2, 95760, Note_on_c, 1, 54, 127
2, 95760, Note_off_c, 1, 55, 0
2, 95760, Note_on_c, 1, 58, 127
2, 95760, Note_on_c, 1, 65, 127
2, 95760, Note_on_c, 1, 66, 127
2, 95760, Note_off_c, 1, 93, 0
2, 95760, Note_off_c, 1, 96, 0
2, 95880, Note_off_c, 1, 54, 0
2, 95880, Note_off_c, 1, 58, 0
2, 95880, Note_off_c, 1, 65, 0
2, 95880, Note_off_c, 1, 66, 0
2, 95920, Note_on_c, 1, 57, 127
2, 95920, Note_on_c, 1, 59, 127
2, 95920, Note_on_c, 1, 63, 127
2, 95920, Note_on_c, 1, 66, 127
2, 95920, Note_on_c, 1, 67, 127
2, 95960, Note_on_c, 1, 52, 127
2, 95960, Note_off_c, 1, 57, 0
2, 95960, Note_off_c, 1, 59, 0
2, 95960, Note_off_c, 1, 63, 0
2, 95960, Note_on_c, 1, 64, 127
2, 95960, Note_off_c, 1, 66, 0
2, 95960, Note_off_c, 1, 67, 0
2, 95960, Note_on_c, 1, 80, 127
2, 95960, Note_on_c, 1, 82, 127
2, 95960, Note_on_c, 1, 85, 127
2, 95960, Note_on_c, 1, 92, 127
2, 96000, Note_off_c, 1, 52, 0
2, 96000, Note_on_c, 1, 62, 127
2, 96000, Note_off_c, 1, 64, 0
2, 96000, Note_on_c, 1, 67, 127
2, 96000, Note_on_c, 1, 69, 127
2, 96000, Note_on_c, 1, 74, 127
2, 96000, Note_off_c, 1, 80, 0
2, 96000, Note_off_c, 1, 82, 0
2, 96000, Note_off_c, 1, 85, 0
2, 96000, Note_on_c, 1, 91, 127
2, 96000, Note_off_c, 1, 92, 0
2, 96000, Note_on_c, 1, 96, 127
2, 96040, Note_on_c, 1, 46, 127
2, 96040, Note_on_c, 1, 52, 127
2, 96040, Note_off_c, 1, 67, 0
2, 96040, Note_off_c, 1, 69, 0
2, 96040, Note_off_c, 1, 91, 0
2, 96040, Note_off_c, 1, 96, 0
2, 96080, Note_on_c, 1, 42, 127
2, 96080, Note_off_c, 1, 46, 0
2, 96080, Note_off_c, 1, 52, 0
2, 96080, Note_on_c, 1, 54, 127
2, 96080, Note_on_c, 1, 71, 127
2, 96120, Note_off_c, 1, 42, 0
2, 96120, Note_off_c, 1, 62, 0
2, 96120, Note_off_c, 1, 71, 0
2, 96120, Note_on_c, 1, 83, 127
2, 96120, Note_on_c, 1, 86, 127
2, 96160, Note_on_c, 1, 52, 127
2, 96160, Note_off_c, 1, 54, 0
2, 96160, Note_on_c, 1, 56, 127
2, 96160, Note_on_c, 1, 61, 127
2, 96160, Note_on_c, 1, 64, 127
2, 96160, Note_off_c, 1, 74, 0
2, 96160, Note_off_c, 1, 83, 0
2, 96160, Note_off_c, 1, 86, 0
2, 96200, Note_off_c, 1, 52, 0
2, 96200, Note_off_c, 1, 56, 0
2, 96200, Note_off_c, 1, 61, 0
2, 96200, Note_off_c, 1, 64, 0
2, 96280, Note_on_c, 1, 46, 127
2, 96280, Note_on_c, 1, 55, 127
2, 96280, Note_on_c, 1, 63, 127
2, 96280, Note_on_c, 1, 67, 127
2, 96280, Note_on_c, 1, 75, 127
2, 96880, Note_off_c, 1, 46, 0
2, 96880, Note_off_c, 1, 55, 0
2, 96880, Note_off_c, 1, 63, 0
2, 96880, Note_off_c, 1, 67, 0
2, 96880, Note_off_c, 1, 75, 0
2, 96920, Note_on_c, 1, 46, 127
2, 96920, Note_on_c, 1, 55, 127
2, 96920, Note_on_c, 1, 63, 127
2, 96920, Note_on_c, 1, 67, 127
2, 96920, Note_on_c, 1, 75, 127
2, 96960, Note_off_c, 1, 46, 0
2, 96960, Note_off_c, 1, 55, 0
2, 96960, Note_off_c, 1, 63, 0
2, 96960, Note_off_c, 1, 67, 0
2, 96960, Note_off_c, 1, 75, 0
2, 97000, Note_on_c, 1, 44, 127
2, 97000, Note_on_c, 1, 55, 127
2, 97000, Note_on_c, 1, 61, 127
2, 97000, Note_on_c, 1, 63, 127
2, 97000, Note_on_c, 1, 67, 127
2, 97000, Note_on_c, 1, 73, 127
2, 97320, Note_off_c, 1, 44, 0
2, 97320, Note_off_c, 1, 55, 0
2, 97320, Note_off_c, 1, 61, 0
2, 97320, Note_off_c, 1, 63, 0
2, 97320, Note_off_c, 1, 67, 0
2, 97320, Note_off_c, 1, 73, 0
2, 97360, Note_on_c, 1, 44, 127
2, 97360, Note_on_c, 1, 55, 127
2, 97360, Note_on_c, 1, 63, 127
2, 97360, Note_on_c, 1, 67, 127
2, 97400, Note_on_c, 1, 59, 127
2, 97400, Note_on_c, 1, 71, 127
2, 97640, Note_off_c, 1, 44, 0
2, 97640, Note_off_c, 1, 59, 0
2, 97640, Note_off_c, 1, 71, 0
2, 97680, Note_off_c, 1, 55, 0
2, 97680, Note_off_c, 1, 63, 0
2, 97680, Note_off_c, 1, 67, 0
2, 97720, Note_on_c, 1, 44, 127
2, 97720, Note_on_c, 1, 55, 127
2, 97720, Note_on_c, 1, 63, 127
2, 97720, Note_on_c, 1, 67, 127
2, 97760, Note_on_c, 1, 59, 127
2, 97760, Note_on_c, 1, 71, 127
2, 98000, Note_off_c, 1, 59, 0
2, 98000, Note_off_c, 1, 71, 0
2, 98080, Note_on_c, 1, 59, 127
2, 98080, Note_on_c, 1, 71, 127
2, 98320, Note_off_c, 1, 44, 0
2, 98320, Note_off_c, 1, 59, 0
2, 98320, Note_off_c, 1, 71, 0
2, 98400, Note_on_c, 1, 44, 127
2, 98400, Note_on_c, 1, 58, 127
2, 98400, Note_on_c, 1, 70, 127
2, 98520, Note_off_c, 1, 44, 0
2, 98520, Note_off_c, 1, 55, 0
2, 98520, Note_off_c, 1, 58, 0
2, 98520, Note_off_c, 1, 63, 0
2, 98520, Note_off_c, 1, 70, 0
2, 98560, Note_off_c, 1, 67, 0
2, 98760, Note_on_c, 1, 46, 127
2, 98760, Note_on_c, 1, 53, 127
2, 98760, Note_on_c, 1, 65, 127
2, 98760, Note_on_c, 1, 70, 127
2, 98760, Note_on_c, 1, 74, 127
2, 98960, Note_off_c, 1, 46, 0
2, 98960, Note_off_c, 1, 53, 0
2, 98960, Note_off_c, 1, 65, 0
2, 98960, Note_off_c, 1, 70, 0
2, 98960, Note_off_c, 1, 74, 0
2, 99000, Note_on_c, 1, 46, 127
2, 99000, Note_on_c, 1, 53, 127
2, 99000, Note_on_c, 1, 65, 127
2, 99000, Note_on_c, 1, 70, 127
2, 99000, Note_on_c, 1, 74, 127
2, 99440, Note_off_c, 1, 46, 0
2, 99440, Note_off_c, 1, 53, 0
2, 99440, Note_off_c, 1, 65, 0
2, 99440, Note_off_c, 1, 70, 0
2, 99440, Note_off_c, 1, 74, 0
2, 99840, Note_on_c, 1, 50, 127
2, 99840, Note_on_c, 1, 55, 127
2, 99840, Note_on_c, 1, 58, 127
2, 99840, Note_on_c, 1, 62, 127
2, 100120, Note_on_c, 1, 67, 127
2, 100160, Note_off_c, 1, 50, 0
2, 100160, Note_off_c, 1, 55, 0
2, 100160, Note_off_c, 1, 58, 0
2, 100160, Note_off_c, 1, 62, 0
2, 100160, Note_off_c, 1, 67, 0
2, 100200, Note_on_c, 1, 53, 127
2, 100200, Note_on_c, 1, 58, 127
2, 100200, Note_on_c, 1, 62, 127
2, 100200, Note_on_c, 1, 74, 127
2, 100200, Note_on_c, 1, 77, 127
2, 100200, Note_on_c, 1, 82, 127
2, 100200, Note_on_c, 1, 86, 127
2, 100400, Note_off_c, 1, 53, 0
2, 100400, Note_off_c, 1, 58, 0
2, 100400, Note_off_c, 1, 62, 0
2, 100400, Note_off_c, 1, 74, 0
2, 100400, Note_off_c, 1, 77, 0
2, 100400, Note_off_c, 1, 82, 0
2, 100400, Note_off_c, 1, 86, 0
2, 100560, Note_on_c, 1, 51, 127
2, 100560, Note_on_c, 1, 58, 127
2, 100560, Note_on_c, 1, 63, 127
2, 100560, Note_on_c, 1, 67, 127
2, 100560, Note_on_c, 1, 75, 127
2, 100840, Note_off_c, 1, 51, 0
2, 100840, Note_off_c, 1, 58, 0
2, 100840, Note_off_c, 1, 63, 0
2, 100840, Note_off_c, 1, 67, 0
2, 100840, Note_off_c, 1, 75, 0
2, 100920, Note_on_c, 1, 51, 127
2, 100920, Note_on_c, 1, 58, 127
2, 100920, Note_on_c, 1, 63, 127
2, 100920, Note_on_c, 1, 67, 127
2, 100920, Note_on_c, 1, 79, 127
2, 101040, Note_off_c, 1, 51, 0
2, 101040, Note_off_c, 1, 58, 0
2, 101040, Note_off_c, 1, 63, 0
2, 101040, Note_off_c, 1, 67, 0
2, 101040, Note_off_c, 1, 79, 0
2, 101080, Note_on_c, 1, 51, 127
2, 101080, Note_on_c, 1, 58, 127
2, 101080, Note_on_c, 1, 63, 127
2, 101080, Note_on_c, 1, 67, 127
2, 101080, Note_on_c, 1, 79, 127
2, 101240, Note_off_c, 1, 51, 0
2, 101240, Note_off_c, 1, 58, 0
2, 101240, Note_off_c, 1, 63, 0
2, 101240, Note_off_c, 1, 67, 0
2, 101240, Note_off_c, 1, 79, 0
2, 101280, Note_on_c, 1, 51, 127
2, 101280, Note_on_c, 1, 58, 127
2, 101280, Note_on_c, 1, 63, 127
2, 101280, Note_on_c, 1, 67, 127
2, 101280, Note_on_c, 1, 75, 127
2, 101560, Note_off_c, 1, 51, 0
2, 101560, Note_off_c, 1, 58, 0
2, 101560, Note_off_c, 1, 63, 0
2, 101560, Note_off_c, 1, 67, 0
2, 101560, Note_off_c, 1, 75, 0
2, 101640, Note_on_c, 1, 51, 127
2, 101640, Note_on_c, 1, 58, 127
2, 101640, Note_on_c, 1, 75, 127
2, 101640, Note_on_c, 1, 79, 127
2, 101960, Note_off_c, 1, 75, 0
2, 101960, Note_off_c, 1, 79, 0
2, 102000, Note_on_c, 1, 77, 127
2, 102000, Note_on_c, 1, 82, 127
2, 102280, Note_off_c, 1, 51, 0
2, 102280, Note_off_c, 1, 58, 0
2, 102280, Note_off_c, 1, 77, 0
2, 102280, Note_off_c, 1, 82, 0
2, 102320, Note_on_c, 1, 39, 127
2, 102320, Note_on_c, 1, 43, 127
2, 102320, Note_on_c, 1, 46, 127
2, 102320, Note_on_c, 1, 51, 127
2, 102320, Note_on_c, 1, 55, 127
2, 102320, Note_on_c, 1, 58, 127
2, 102320, Note_on_c, 1, 63, 127
2, 102600, Note_off_c, 1, 39, 0
2, 102600, Note_off_c, 1, 43, 0
2, 102600, Note_off_c, 1, 46, 0
2, 102600, Note_off_c, 1, 51, 0
2, 102600, Note_off_c, 1, 55, 0
2, 102600, Note_off_c, 1, 58, 0
2, 102600, Note_off_c, 1, 63, 0
2, 102680, Note_on_c, 1, 39, 127
2, 102680, Note_on_c, 1, 46, 127
2, 102680, Note_on_c, 1, 51, 127
2, 102680, Note_on_c, 1, 67, 127
2, 102680, Note_on_c, 1, 70, 127
2, 102680, Note_on_c, 1, 79, 127
2, 102960, Note_off_c, 1, 39, 0
2, 102960, Note_off_c, 1, 46, 0
2, 102960, Note_off_c, 1, 51, 0
2, 102960, Note_off_c, 1, 67, 0
2, 102960, Note_off_c, 1, 70, 0
2, 102960, Note_off_c, 1, 79, 0
2, 103080, Note_on_c, 1, 39, 127
2, 103080, Note_on_c, 1, 46, 127
2, 103080, Note_on_c, 1, 51, 127
2, 103080, Note_on_c, 1, 67, 127
2, 103080, Note_on_c, 1, 70, 127
2, 103080, Note_on_c, 1, 79, 127
2, 103360, Note_off_c, 1, 39, 0
2, 103360, Note_off_c, 1, 46, 0
2, 103360, Note_off_c, 1, 51, 0
2, 103360, Note_off_c, 1, 67, 0
2, 103360, Note_off_c, 1, 70, 0
2, 103360, Note_off_c, 1, 79, 0
2, 103400, Note_on_c, 1, 39, 127
2, 103400, Note_on_c, 1, 46, 127
2, 103400, Note_on_c, 1, 51, 127
2, 103400, Note_on_c, 1, 67, 127
2, 103400, Note_on_c, 1, 70, 127
2, 103400, Note_on_c, 1, 75, 127
2, 103680, Note_off_c, 1, 39, 0
2, 103680, Note_off_c, 1, 46, 0
2, 103680, Note_off_c, 1, 51, 0
2, 103680, Note_off_c, 1, 67, 0
2, 103680, Note_off_c, 1, 70, 0
2, 103680, Note_off_c, 1, 75, 0
2, 103760, Note_on_c, 1, 39, 127
2, 103760, Note_on_c, 1, 46, 127
2, 103760, Note_on_c, 1, 51, 127
2, 103760, Note_on_c, 1, 67, 127
2, 103760, Note_on_c, 1, 70, 127
2, 103760, Note_on_c, 1, 75, 127
2, 104240, Note_off_c, 1, 39, 0
2, 104240, Note_off_c, 1, 46, 0
2, 104240, Note_off_c, 1, 51, 0
2, 104240, Note_off_c, 1, 67, 0
2, 104240, Note_off_c, 1, 70, 0
2, 104240, Note_off_c, 1, 75, 0
2, 104280, Note_on_c, 1, 39, 127
2, 104280, Note_on_c, 1, 46, 127
2, 104280, Note_on_c, 1, 51, 127
2, 104280, Note_on_c, 1, 67, 127
2, 104280, Note_on_c, 1, 70, 127
2, 104280, Note_on_c, 1, 75, 127
2, 104760, Note_off_c, 1, 39, 0
2, 104760, Note_off_c, 1, 46, 0
2, 104760, Note_off_c, 1, 51, 0
2, 104760, Note_off_c, 1, 67, 0
2, 104760, Note_off_c, 1, 70, 0
2, 104760, Note_off_c, 1, 75, 0
2, 105000, Note_on_c, 1, 63, 127
2, 105000, Note_on_c, 1, 72, 127
2, 105000, Note_on_c, 1, 75, 127
2, 105320, Note_off_c, 1, 63, 0
2, 105320, Note_off_c, 1, 72, 0
2, 105320, Note_off_c, 1, 75, 0
2, 105400, Note_on_c, 1, 63, 127
2, 105400, Note_on_c, 1, 67, 127
2, 105400, Note_on_c, 1, 72, 127
2, 105680, Note_off_c, 1, 63, 0
2, 105680, Note_off_c, 1, 67, 0
2, 105680, Note_off_c, 1, 72, 0
2, 105720, Note_on_c, 1, 63, 127
2, 105720, Note_on_c, 1, 67, 127
2, 105720, Note_on_c, 1, 72, 127
2, 106040, Note_off_c, 1, 63, 0
2, 106040, Note_off_c, 1, 67, 0
2, 106040, Note_off_c, 1, 72, 0
2, 106080, Note_on_c, 1, 63, 127
2, 106080, Note_on_c, 1, 67, 127
2, 106080, Note_on_c, 1, 72, 127
2, 106360, Note_off_c, 1, 63, 0
2, 106360, Note_off_c, 1, 67, 0
2, 106360, Note_off_c, 1, 72, 0
2, 106440, Note_on_c, 1, 63, 127
2, 106440, Note_on_c, 1, 67, 127
2, 106440, Note_on_c, 1, 75, 127
2, 106760, Note_off_c, 1, 63, 0
2, 106760, Note_off_c, 1, 67, 0
2, 106760, Note_off_c, 1, 75, 0
2, 106800, Note_on_c, 1, 64, 127
2, 106800, Note_on_c, 1, 68, 127
2, 106800, Note_on_c, 1, 74, 127
2, 107080, Note_on_c, 1, 57, 127
2, 107080, Note_off_c, 1, 68, 0
2, 107080, Note_on_c, 1, 73, 127
2, 107080, Note_off_c, 1, 74, 0
2, 107120, Note_off_c, 1, 57, 0
2, 107120, Note_off_c, 1, 64, 0
2, 107120, Note_off_c, 1, 73, 0
2, 107160, Note_on_c, 1, 51, 127
2, 107160, Note_on_c, 1, 72, 127
2, 107160, Note_on_c, 1, 75, 127
2, 107400, Note_off_c, 1, 51, 0
2, 107400, Note_off_c, 1, 72, 0
2, 107400, Note_off_c, 1, 75, 0
2, 107440, Note_on_c, 1, 51, 127
2, 107440, Note_on_c, 1, 72, 127
2, 107440, Note_on_c, 1, 75, 127
2, 107480, Note_off_c, 1, 51, 0
2, 107480, Note_off_c, 1, 72, 0
2, 107480, Note_off_c, 1, 75, 0
2, 107520, Note_on_c, 1, 58, 127
2, 107520, Note_on_c, 1, 70, 127
2, 107520, Note_on_c, 1, 75, 127
2, 107880, Note_on_c, 1, 67, 127
2, 108160, Note_off_c, 1, 58, 0
2, 108160, Note_off_c, 1, 67, 0
2, 108160, Note_off_c, 1, 70, 0
2, 108160, Note_off_c, 1, 75, 0
2, 108240, Note_on_c, 1, 63, 127
2, 108240, Note_on_c, 1, 67, 127
2, 108240, Note_on_c, 1, 70, 127
2, 108240, Note_on_c, 1, 75, 127
2, 108520, Note_off_c, 1, 63, 0
2, 108520, Note_off_c, 1, 67, 0
2, 108520, Note_off_c, 1, 70, 0
2, 108520, Note_off_c, 1, 75, 0
2, 108600, Note_on_c, 1, 51, 127
2, 108600, Note_on_c, 1, 58, 127
2, 108600, Note_on_c, 1, 63, 127
2, 108600, Note_on_c, 1, 67, 127
2, 108600, Note_on_c, 1, 75, 127
2, 108880, Note_off_c, 1, 51, 0
2, 108880, Note_off_c, 1, 58, 0
2, 108880, Note_off_c, 1, 63, 0
2, 108880, Note_off_c, 1, 67, 0
2, 108880, Note_off_c, 1, 75, 0
2, 108920, Note_on_c, 1, 55, 127
2, 108920, Note_on_c, 1, 58, 127
2, 108920, Note_on_c, 1, 63, 127
2, 109120, Note_on_c, 1, 70, 127
2, 109160, Note_off_c, 1, 70, 0
2, 109200, Note_off_c, 1, 55, 0
2, 109200, Note_off_c, 1, 58, 0
2, 109200, Note_off_c, 1, 63, 0
2, 109280, Note_on_c, 1, 55, 127
2, 109280, Note_on_c, 1, 58, 127
2, 109280, Note_on_c, 1, 63, 127
2, 109280, Note_on_c, 1, 70, 127
2, 109480, Note_off_c, 1, 55, 0
2, 109480, Note_off_c, 1, 58, 0
2, 109480, Note_off_c, 1, 63, 0
2, 109480, Note_off_c, 1, 70, 0
2, 109520, Note_on_c, 1, 55, 127
2, 109520, Note_on_c, 1, 58, 127
2, 109520, Note_on_c, 1, 63, 127
2, 109520, Note_on_c, 1, 70, 127
2, 109600, Note_off_c, 1, 55, 0
2, 109600, Note_off_c, 1, 58, 0
2, 109600, Note_off_c, 1, 63, 0
2, 109600, Note_off_c, 1, 70, 0
2, 109680, Note_on_c, 1, 58, 127
2, 109680, Note_on_c, 1, 67, 127
2, 109680, Note_on_c, 1, 70, 127
2, 109960, Note_off_c, 1, 58, 0
2, 109960, Note_off_c, 1, 67, 0
2, 109960, Note_off_c, 1, 70, 0
2, 110040, Note_on_c, 1, 58, 127
2, 110040, Note_on_c, 1, 63, 127
2, 110040, Note_on_c, 1, 70, 127
2, 111040, Note_off_c, 1, 58, 0
2, 111040, Note_off_c, 1, 63, 0
2, 111040, Note_off_c, 1, 70, 0
2, 111080, Note_on_c, 1, 63, 127
2, 111080, Note_on_c, 1, 67, 127
2, 111080, Note_on_c, 1, 69, 127
2, 111400, Note_off_c, 1, 63, 0
2, 111400, Note_off_c, 1, 67, 0
2, 111400, Note_off_c, 1, 69, 0
2, 111440, Note_on_c, 1, 58, 127
2, 111440, Note_on_c, 1, 60, 127
2, 111440, Note_on_c, 1, 62, 127
2, 111440, Note_on_c, 1, 65, 127
2, 111560, Note_off_c, 1, 58, 0
2, 111560, Note_off_c, 1, 60, 0
2, 111560, Note_on_c, 1, 68, 127
2, 111800, Note_off_c, 1, 62, 0
2, 111800, Note_off_c, 1, 65, 0
2, 111800, Note_off_c, 1, 68, 0
2, 111840, Note_on_c, 1, 62, 127
2, 111840, Note_on_c, 1, 65, 127
2, 111840, Note_on_c, 1, 68, 127
2, 111840, Note_on_c, 1, 82, 127
2, 111960, Note_off_c, 1, 82, 0
2, 112000, Note_on_c, 1, 46, 127
2, 112000, Note_on_c, 1, 55, 127
2, 112000, Note_off_c, 1, 62, 0
2, 112000, Note_on_c, 1, 64, 127
2, 112000, Note_off_c, 1, 65, 0
2, 112000, Note_on_c, 1, 67, 127
2, 112000, Note_off_c, 1, 68, 0
2, 112000, Note_on_c, 1, 76, 127
2, 112120, Note_off_c, 1, 46, 0
2, 112120, Note_off_c, 1, 55, 0
2, 112120, Note_off_c, 1, 64, 0
2, 112120, Note_off_c, 1, 67, 0
2, 112120, Note_off_c, 1, 76, 0
2, 112120, Note_on_c, 1, 80, 127
2, 112160, Note_on_c, 1, 46, 127
2, 112160, Note_on_c, 1, 55, 127
2, 112160, Note_on_c, 1, 64, 127
2, 112160, Note_on_c, 1, 67, 127
2, 112160, Note_on_c, 1, 76, 127
2, 112160, Note_off_c, 1, 80, 0
2, 112440, Note_off_c, 1, 55, 0
2, 112440, Note_off_c, 1, 64, 0
2, 112440, Note_off_c, 1, 67, 0
2, 112440, Note_off_c, 1, 76, 0
2, 112480, Note_off_c, 1, 46, 0
2, 112520, Note_on_c, 1, 46, 127
2, 112520, Note_on_c, 1, 55, 127
2, 112520, Note_on_c, 1, 64, 127
2, 112520, Note_on_c, 1, 67, 127
2, 112520, Note_on_c, 1, 76, 127
2, 112640, Note_off_c, 1, 55, 0
2, 112680, Note_on_c, 1, 55, 127
2, 112840, Note_off_c, 1, 46, 0
2, 112840, Note_off_c, 1, 55, 0
2, 112840, Note_off_c, 1, 64, 0
2, 112840, Note_off_c, 1, 67, 0
2, 112840, Note_off_c, 1, 76, 0
2, 112880, Note_on_c, 1, 46, 127
2, 112880, Note_on_c, 1, 55, 127
2, 112880, Note_on_c, 1, 64, 127
2, 112880, Note_on_c, 1, 67, 127
2, 112880, Note_on_c, 1, 76, 127
2, 113160, Note_off_c, 1, 55, 0
2, 113160, Note_on_c, 1, 58, 127
2, 113160, Note_off_c, 1, 64, 0
2, 113160, Note_off_c, 1, 67, 0
2, 113160, Note_off_c, 1, 76, 0
2, 113200, Note_off_c, 1, 46, 0
2, 113200, Note_off_c, 1, 58, 0
2, 113240, Note_on_c, 1, 46, 127
2, 113240, Note_on_c, 1, 55, 127
2, 113240, Note_on_c, 1, 64, 127
2, 113240, Note_on_c, 1, 67, 127
2, 113240, Note_on_c, 1, 76, 127
2, 113520, Note_off_c, 1, 46, 0
2, 113520, Note_off_c, 1, 55, 0
2, 113520, Note_off_c, 1, 64, 0
2, 113520, Note_off_c, 1, 67, 0
2, 113520, Note_off_c, 1, 76, 0
2, 113560, Note_on_c, 1, 46, 127
2, 113560, Note_on_c, 1, 55, 127
2, 113560, Note_on_c, 1, 64, 127
2, 113560, Note_on_c, 1, 67, 127
2, 113560, Note_on_c, 1, 76, 127
2, 113880, Note_off_c, 1, 46, 0
2, 113880, Note_off_c, 1, 55, 0
2, 113880, Note_off_c, 1, 64, 0
2, 113880, Note_off_c, 1, 67, 0
2, 113880, Note_off_c, 1, 76, 0
2, 113920, Note_on_c, 1, 46, 127
2, 113920, Note_on_c, 1, 55, 127
2, 113920, Note_on_c, 1, 64, 127
2, 113920, Note_on_c, 1, 67, 127
2, 113920, Note_on_c, 1, 76, 127
2, 114040, Note_off_c, 1, 46, 0
2, 114040, Note_off_c, 1, 55, 0
2, 114040, Note_off_c, 1, 64, 0
2, 114040, Note_off_c, 1, 67, 0
2, 114040, Note_off_c, 1, 76, 0
2, 114080, Note_on_c, 1, 46, 127
2, 114080, Note_on_c, 1, 55, 127
2, 114080, Note_on_c, 1, 64, 127
2, 114080, Note_on_c, 1, 67, 127
2, 114080, Note_on_c, 1, 76, 127
2, 114440, Note_off_c, 1, 55, 0
2, 114440, Note_off_c, 1, 64, 0
2, 114440, Note_off_c, 1, 67, 0
2, 114440, Note_off_c, 1, 76, 0
2, 114480, Note_off_c, 1, 46, 0
2, 114480, Note_on_c, 1, 69, 127
2, 114480, Note_on_c, 1, 79, 127
2, 114480, Note_on_c, 1, 84, 127
2, 114480, Note_on_c, 1, 86, 127
2, 114480, Note_on_c, 1, 91, 127
2, 114520, Note_on_c, 1, 38, 127
2, 114520, Note_off_c, 1, 69, 0
2, 114520, Note_off_c, 1, 84, 0
2, 114520, Note_on_c, 1, 89, 127
2, 114560, Note_off_c, 1, 38, 0
2, 114560, Note_on_c, 1, 46, 127
2, 114560, Note_on_c, 1, 53, 127
2, 114560, Note_on_c, 1, 60, 127
2, 114560, Note_on_c, 1, 62, 127
2, 114560, Note_on_c, 1, 65, 127
2, 114560, Note_on_c, 1, 72, 127
2, 114560, Note_off_c, 1, 79, 0
2, 114560, Note_off_c, 1, 86, 0
2, 114560, Note_off_c, 1, 89, 0
2, 114560, Note_off_c, 1, 91, 0
2, 114600, Note_off_c, 1, 46, 0
2, 114600, Note_off_c, 1, 53, 0
2, 114600, Note_off_c, 1, 60, 0
2, 114600, Note_off_c, 1, 62, 0
2, 114600, Note_off_c, 1, 65, 0
2, 114600, Note_off_c, 1, 72, 0
2, 114640, Note_on_c, 1, 54, 127
2, 114640, Note_on_c, 1, 64, 127
2, 114640, Note_on_c, 1, 70, 127
2, 114640, Note_on_c, 1, 73, 127
2, 114640, Note_on_c, 1, 78, 127
2, 114680, Note_on_c, 1, 40, 127
2, 114680, Note_on_c, 1, 43, 127
2, 114680, Note_on_c, 1, 47, 127
2, 114680, Note_on_c, 1, 52, 127
2, 114680, Note_off_c, 1, 54, 0
2, 114680, Note_on_c, 1, 55, 127
2, 114680, Note_on_c, 1, 59, 127
2, 114680, Note_off_c, 1, 64, 0
2, 114680, Note_on_c, 1, 66, 127
2, 114680, Note_off_c, 1, 70, 0
2, 114680, Note_off_c, 1, 73, 0
2, 114680, Note_off_c, 1, 78, 0
2, 114720, Note_off_c, 1, 40, 0
2, 114720, Note_off_c, 1, 43, 0
2, 114720, Note_off_c, 1, 47, 0
2, 114720, Note_off_c, 1, 52, 0
2, 114720, Note_on_c, 1, 54, 127
2, 114720, Note_off_c, 1, 55, 0
2, 114720, Note_off_c, 1, 59, 0
2, 114720, Note_on_c, 1, 64, 127
2, 114720, Note_off_c, 1, 66, 0
2, 114720, Note_on_c, 1, 70, 127
2, 114720, Note_on_c, 1, 73, 127
2, 114720, Note_on_c, 1, 78, 127
2, 114760, Note_on_c, 1, 46, 127
2, 114760, Note_off_c, 1, 54, 0
2, 114760, Note_on_c, 1, 55, 127
2, 114760, Note_off_c, 1, 64, 0
2, 114760, Note_off_c, 1, 70, 0
2, 114760, Note_off_c, 1, 73, 0
2, 114760, Note_off_c, 1, 78, 0
2, 114760, Note_on_c, 1, 82, 127
2, 114800, Note_off_c, 1, 46, 0
2, 114800, Note_on_c, 1, 52, 127
2, 114800, Note_on_c, 1, 58, 127
2, 114800, Note_on_c, 1, 60, 127
2, 114800, Note_on_c, 1, 86, 127
2, 114840, Note_off_c, 1, 52, 0
2, 114840, Note_off_c, 1, 58, 0
2, 114840, Note_off_c, 1, 60, 0
2, 114840, Note_on_c, 1, 63, 127
2, 114840, Note_on_c, 1, 67, 127
2, 114840, Note_on_c, 1, 72, 127
2, 114840, Note_on_c, 1, 75, 127
2, 114840, Note_on_c, 1, 79, 127
2, 114840, Note_off_c, 1, 82, 0
2, 114840, Note_on_c, 1, 84, 127
2, 114840, Note_off_c, 1, 86, 0
2, 114880, Note_on_c, 1, 46, 127
2, 114880, Note_off_c, 1, 55, 0
2, 114880, Note_off_c, 1, 67, 0
2, 114880, Note_on_c, 1, 71, 127
2, 114880, Note_off_c, 1, 72, 0
2, 114880, Note_off_c, 1, 79, 0
2, 114880, Note_off_c, 1, 84, 0
2, 114920, Note_on_c, 1, 41, 127
2, 114920, Note_off_c, 1, 46, 0
2, 114920, Note_off_c, 1, 63, 0
2, 114920, Note_off_c, 1, 71, 0
2, 114920, Note_off_c, 1, 75, 0
2, 114960, Note_off_c, 1, 41, 0
2, 115000, Note_on_c, 1, 63, 127
2, 115000, Note_on_c, 1, 70, 127
2, 115000, Note_on_c, 1, 75, 127
2, 115000, Note_on_c, 1, 80, 127
2, 115280, Note_off_c, 1, 63, 0
2, 115280, Note_off_c, 1, 80, 0
2, 115320, Note_off_c, 1, 70, 0
2, 115320, Note_off_c, 1, 75, 0
2, 115360, Note_on_c, 1, 63, 127
2, 115360, Note_on_c, 1, 70, 127
2, 115360, Note_on_c, 1, 75, 127
2, 115360, Note_on_c, 1, 79, 127
2, 115640, Note_off_c, 1, 63, 0
2, 115640, Note_on_c, 1, 74, 127
2, 115640, Note_off_c, 1, 75, 0
2, 115640, Note_on_c, 1, 77, 127
2, 115640, Note_off_c, 1, 79, 0
2, 115680, Note_off_c, 1, 70, 0
2, 115680, Note_off_c, 1, 74, 0
2, 115680, Note_off_c, 1, 77, 0
2, 115720, Note_on_c, 1, 63, 127
2, 115720, Note_on_c, 1, 70, 127
2, 115720, Note_on_c, 1, 75, 127
2, 115720, Note_on_c, 1, 79, 127
2, 116000, Note_off_c, 1, 63, 0
2, 116000, Note_off_c, 1, 70, 0
2, 116000, Note_off_c, 1, 75, 0
2, 116000, Note_off_c, 1, 79, 0
2, 116120, Note_on_c, 1, 64, 127
2, 116120, Note_on_c, 1, 70, 127
2, 116120, Note_on_c, 1, 73, 127
2, 116120, Note_on_c, 1, 79, 127
2, 116400, Note_off_c, 1, 64, 0
2, 116400, Note_off_c, 1, 70, 0
2, 116400, Note_off_c, 1, 73, 0
2, 116400, Note_off_c, 1, 79, 0
2, 116440, Note_on_c, 1, 69, 127
2, 116440, Note_on_c, 1, 73, 127
2, 116440, Note_on_c, 1, 79, 127
2, 116440, Note_on_c, 1, 81, 127
2, 116720, Note_off_c, 1, 69, 0
2, 116720, Note_off_c, 1, 73, 0
2, 116720, Note_off_c, 1, 79, 0
2, 116720, Note_off_c, 1, 81, 0
2, 116800, Note_on_c, 1, 33, 127
2, 116800, Note_on_c, 1, 45, 127
2, 116800, Note_on_c, 1, 65, 127
2, 116800, Note_on_c, 1, 72, 127
2, 116800, Note_on_c, 1, 77, 127
2, 117080, Note_off_c, 1, 33, 0
2, 117080, Note_on_c, 1, 43, 127
2, 117080, Note_off_c, 1, 45, 0
2, 117080, Note_off_c, 1, 65, 0
2, 117080, Note_on_c, 1, 70, 127
2, 117080, Note_off_c, 1, 72, 0
2, 117080, Note_on_c, 1, 73, 127
2, 117080, Note_on_c, 1, 76, 127
2, 117080, Note_off_c, 1, 77, 0
2, 117080, Note_on_c, 1, 82, 127
2, 117120, Note_off_c, 1, 43, 0
2, 117120, Note_off_c, 1, 70, 0
2, 117120, Note_off_c, 1, 73, 0
2, 117120, Note_off_c, 1, 76, 0
2, 117120, Note_off_c, 1, 82, 0
2, 117160, Note_on_c, 1, 55, 127
2, 117160, Note_on_c, 1, 69, 127
2, 117160, Note_on_c, 1, 75, 127
2, 117160, Note_on_c, 1, 77, 127
2, 117160, Note_on_c, 1, 81, 127
2, 117200, Note_off_c, 1, 55, 0
2, 117200, Note_on_c, 1, 63, 127
2, 117200, Note_on_c, 1, 68, 127
2, 117200, Note_off_c, 1, 69, 0
2, 117200, Note_on_c, 1, 73, 127
2, 117200, Note_off_c, 1, 75, 0
2, 117200, Note_off_c, 1, 81, 0
2, 117240, Note_on_c, 1, 31, 127
2, 117240, Note_on_c, 1, 43, 127
2, 117240, Note_off_c, 1, 63, 0
2, 117240, Note_off_c, 1, 68, 0
2, 117240, Note_on_c, 1, 71, 127
2, 117240, Note_off_c, 1, 73, 0
2, 117240, Note_on_c, 1, 75, 127
2, 117240, Note_off_c, 1, 77, 0
2, 117240, Note_on_c, 1, 83, 127
2, 117280, Note_off_c, 1, 31, 0
2, 117280, Note_off_c, 1, 43, 0
2, 117280, Note_on_c, 1, 69, 127
2, 117280, Note_off_c, 1, 71, 0
2, 117280, Note_on_c, 1, 77, 127
2, 117280, Note_on_c, 1, 81, 127
2, 117280, Note_off_c, 1, 83, 0
2, 117320, Note_on_c, 1, 62, 127
2, 117320, Note_on_c, 1, 63, 127
2, 117320, Note_off_c, 1, 69, 0
2, 117320, Note_on_c, 1, 70, 127
2, 117320, Note_on_c, 1, 74, 127
2, 117320, Note_off_c, 1, 75, 0
2, 117320, Note_off_c, 1, 77, 0
2, 117320, Note_off_c, 1, 81, 0
2, 117320, Note_on_c, 1, 82, 127
2, 117360, Note_on_c, 1, 41, 127
2, 117360, Note_off_c, 1, 62, 0
2, 117360, Note_on_c, 1, 66, 127
2, 117360, Note_on_c, 1, 69, 127
2, 117360, Note_off_c, 1, 70, 0
2, 117360, Note_on_c, 1, 72, 127
2, 117360, Note_off_c, 1, 74, 0
2, 117360, Note_off_c, 1, 82, 0
2, 117400, Note_off_c, 1, 41, 0
2, 117400, Note_on_c, 1, 62, 127
2, 117400, Note_off_c, 1, 66, 0
2, 117400, Note_off_c, 1, 69, 0
2, 117400, Note_on_c, 1, 70, 127
2, 117400, Note_off_c, 1, 72, 0
2, 117400, Note_on_c, 1, 74, 127
2, 117400, Note_on_c, 1, 82, 127
2, 117440, Note_off_c, 1, 62, 0
2, 117440, Note_off_c, 1, 63, 0
2, 117440, Note_off_c, 1, 70, 0
2, 117440, Note_off_c, 1, 74, 0
2, 117440, Note_off_c, 1, 82, 0
2, 117480, Note_on_c, 1, 70, 127
2, 117480, Note_on_c, 1, 77, 127
2, 117480, Note_on_c, 1, 80, 127
2, 117480, Note_on_c, 1, 84, 127
2, 117520, Note_on_c, 1, 53, 127
2, 117520, Note_on_c, 1, 60, 127
2, 117520, Note_on_c, 1, 63, 127
2, 117520, Note_on_c, 1, 69, 127
2, 117520, Note_off_c, 1, 70, 0
2, 117520, Note_on_c, 1, 75, 127
2, 117520, Note_off_c, 1, 77, 0
2, 117520, Note_off_c, 1, 80, 0
2, 117520, Note_on_c, 1, 81, 127
2, 117520, Note_off_c, 1, 84, 0
2, 117560, Note_off_c, 1, 53, 0
2, 117560, Note_off_c, 1, 60, 0
2, 117560, Note_off_c, 1, 63, 0
2, 117560, Note_off_c, 1, 69, 0
2, 117560, Note_on_c, 1, 70, 127
2, 117560, Note_off_c, 1, 75, 0
2, 117560, Note_on_c, 1, 77, 127
2, 117560, Note_on_c, 1, 80, 127
2, 117560, Note_off_c, 1, 81, 0
2, 117560, Note_on_c, 1, 84, 127
2, 117760, Note_off_c, 1, 70, 0
2, 117760, Note_off_c, 1, 77, 0
2, 117760, Note_off_c, 1, 80, 0
2, 117760, Note_off_c, 1, 84, 0
2, 117840, Note_on_c, 1, 56, 127
2, 117840, Note_on_c, 1, 66, 127
2, 117840, Note_on_c, 1, 72, 127
2, 117840, Note_on_c, 1, 80, 127
2, 117840, Note_on_c, 1, 84, 127
2, 118040, Note_off_c, 1, 56, 0
2, 118040, Note_off_c, 1, 66, 0
2, 118040, Note_off_c, 1, 72, 0
2, 118040, Note_off_c, 1, 80, 0
2, 118040, Note_off_c, 1, 84, 0
2, 118080, Note_on_c, 1, 64, 127
2, 118080, Note_on_c, 1, 69, 127
2, 118080, Note_on_c, 1, 73, 127
2, 118080, Note_on_c, 1, 80, 127
2, 118080, Note_on_c, 1, 85, 127
2, 118120, Note_on_c, 1, 56, 127
2, 118120, Note_on_c, 1, 61, 127
2, 118120, Note_off_c, 1, 69, 0
2, 118120, Note_on_c, 1, 70, 127
2, 118120, Note_off_c, 1, 73, 0
2, 118120, Note_on_c, 1, 76, 127
2, 118120, Note_on_c, 1, 79, 127
2, 118120, Note_off_c, 1, 80, 0
2, 118160, Note_off_c, 1, 56, 0
2, 118160, Note_off_c, 1, 61, 0
2, 118160, Note_off_c, 1, 64, 0
2, 118160, Note_off_c, 1, 70, 0
2, 118160, Note_off_c, 1, 76, 0
2, 118160, Note_off_c, 1, 79, 0
2, 118160, Note_off_c, 1, 85, 0
2, 118240, Note_on_c, 1, 60, 127
2, 118240, Note_on_c, 1, 68, 127
2, 118240, Note_on_c, 1, 72, 127
2, 118240, Note_on_c, 1, 75, 127
2, 118240, Note_on_c, 1, 80, 127
2, 118520, Note_off_c, 1, 60, 0
2, 118520, Note_off_c, 1, 68, 0
2, 118520, Note_off_c, 1, 72, 0
2, 118520, Note_off_c, 1, 75, 0
2, 118520, Note_off_c, 1, 80, 0
2, 118560, Note_on_c, 1, 60, 127
2, 118560, Note_on_c, 1, 68, 127
2, 118560, Note_on_c, 1, 72, 127
2, 118560, Note_on_c, 1, 75, 127
2, 118560, Note_on_c, 1, 80, 127
2, 118840, Note_off_c, 1, 60, 0
2, 118840, Note_off_c, 1, 68, 0
2, 118840, Note_off_c, 1, 72, 0
2, 118840, Note_off_c, 1, 75, 0
2, 118840, Note_off_c, 1, 80, 0
2, 118920, Note_on_c, 1, 65, 127
2, 118920, Note_on_c, 1, 72, 127
2, 118920, Note_on_c, 1, 77, 127
2, 118920, Note_on_c, 1, 80, 127
2, 119200, Note_off_c, 1, 65, 0
2, 119200, Note_off_c, 1, 72, 0
2, 119200, Note_off_c, 1, 77, 0
2, 119200, Note_off_c, 1, 80, 0
2, 119280, Note_on_c, 1, 71, 127
2, 119280, Note_on_c, 1, 72, 127
2, 119280, Note_on_c, 1, 76, 127
2, 119280, Note_on_c, 1, 79, 127
2, 119560, Note_off_c, 1, 71, 0
2, 119560, Note_off_c, 1, 72, 0
2, 119560, Note_off_c, 1, 76, 0
2, 119560, Note_off_c, 1, 79, 0
2, 119600, Note_on_c, 1, 38, 127
2, 119600, Note_on_c, 1, 42, 127
2, 119600, Note_on_c, 1, 50, 127
2, 119600, Note_on_c, 1, 61, 127
2, 119920, Note_off_c, 1, 38, 0
2, 119920, Note_off_c, 1, 42, 0
2, 119920, Note_off_c, 1, 50, 0
2, 119920, Note_off_c, 1, 61, 0
2, 119960, Note_on_c, 1, 38, 127
2, 119960, Note_on_c, 1, 42, 127
2, 119960, Note_on_c, 1, 50, 127
2, 119960, Note_on_c, 1, 61, 127
2, 120000, Note_off_c, 1, 38, 0
2, 120000, Note_off_c, 1, 42, 0
2, 120000, Note_off_c, 1, 50, 0
2, 120000, Note_off_c, 1, 61, 0
2, 120040, End_track
3, 0, Start_track
3, 0, Title_t, "MIDI"
3, 1536, End_track
0, 0, End_of_file
