0, 0, Header, 1, 3, 192
1, 0, Start_track
1, 0, Time_signature, 4, 2, 24, 8
1, 0, Tempo, 500000
1, 120040, End_track
2, 0, Start_track
2, 0, Text_t, "random instrument: random person i dunno whatev"
2, 0, Title_t, "Track 1"
2, 0, Note_on_c, 1, 40, 127
2, 0, Note_on_c, 1, 48, 127
2, 0, Note_on_c, 1, 56, 127
2, 0, Note_on_c, 1, 60, 127
2, 160, Note_off_c, 1, 40, 0
2, 160, Note_off_c, 1, 48, 0
2, 160, Note_off_c, 1, 56, 0
2, 160, Note_off_c, 1, 60, 0
2, 18240, Note_on_c, 1, 40, 127
2, 18240, Note_on_c, 1, 52, 127
2, 18240, Note_on_c, 1, 64, 127
2, 19760, Note_off_c, 1, 40, 0
2, 19760, Note_off_c, 1, 52, 0
2, 19760, Note_off_c, 1, 64, 0
2, 30680, Note_on_c, 1, 41, 127
2, 30680, Note_on_c, 1, 53, 127
2, 30680, Note_on_c, 1, 65, 127
2, 31400, Note_off_c, 1, 41, 0
2, 31400, Note_off_c, 1, 53, 0
2, 31400, Note_off_c, 1, 65, 0
2, 31440, Note_on_c, 1, 34, 127
2, 31440, Note_on_c, 1, 46, 127
2, 31440, Note_on_c, 1, 58, 127
2, 31440, Note_on_c, 1, 70, 127
2, 32640, Note_off_c, 1, 34, 0
2, 32640, Note_off_c, 1, 46, 0
2, 32640, Note_off_c, 1, 58, 0
2, 32640, Note_off_c, 1, 70, 0
2, 32680, Note_on_c, 1, 29, 127
2, 32680, Note_on_c, 1, 41, 127
2, 32680, Note_on_c, 1, 53, 127
2, 32880, Note_off_c, 1, 29, 0
2, 32880, Note_off_c, 1, 41, 0
2, 32880, Note_off_c, 1, 53, 0
2, 32920, Note_on_c, 1, 29, 127
2, 32920, Note_on_c, 1, 41, 127
2, 32920, Note_on_c, 1, 53, 127
2, 33480, Note_off_c, 1, 29, 0
2, 33480, Note_off_c, 1, 41, 0
2, 33480, Note_off_c, 1, 53, 0
2, 36800, Note_on_c, 1, 45, 127
2, 36800, Note_on_c, 1, 49, 127
2, 37160, Note_off_c, 1, 49, 0
2, 37520, Note_off_c, 1, 45, 0
2, 37560, Note_on_c, 1, 47, 127
2, 37560, Note_on_c, 1, 51, 127
2, 37560, Note_on_c, 1, 54, 127
2, 37560, Note_on_c, 1, 59, 127
2, 38320, Note_off_c, 1, 47, 0
2, 38320, Note_off_c, 1, 51, 0
2, 38320, Note_off_c, 1, 54, 0
2, 38320, Note_off_c, 1, 59, 0
2, 38360, Note_on_c, 1, 47, 127
2, 38360, Note_on_c, 1, 51, 127
2, 38360, Note_on_c, 1, 54, 127
2, 38360, Note_on_c, 1, 59, 127
2, 38680, Note_off_c, 1, 47, 0
2, 38680, Note_off_c, 1, 51, 0
2, 38680, Note_off_c, 1, 54, 0
2, 38680, Note_off_c, 1, 59, 0
2, 38720, Note_on_c, 1, 47, 127
2, 38720, Note_on_c, 1, 63, 127
2, 38720, Note_on_c, 1, 66, 127
2, 39240, Note_off_c, 1, 63, 0
2, 39240, Note_off_c, 1, 66, 0
2, 39280, Note_on_c, 1, 59, 127
2, 39840, Note_off_c, 1, 47, 0
2, 39840, Note_off_c, 1, 59, 0
2, 39880, Note_on_c, 1, 40, 127
2, 40480, Note_off_c, 1, 40, 0
2, 40520, Note_on_c, 1, 40, 127
2, 43480, Note_off_c, 1, 40, 0
2, 43560, Note_on_c, 1, 33, 127
2, 44280, Note_off_c, 1, 33, 0
2, 67200, Note_on_c, 1, 52, 127
2, 67560, Note_off_c, 1, 52, 0
2, 67600, Note_on_c, 1, 57, 127
2, 67960, Note_off_c, 1, 57, 0
2, 68000, Note_on_c, 1, 52, 127
2, 68320, Note_off_c, 1, 52, 0
2, 68360, Note_on_c, 1, 45, 127
2, 68680, Note_off_c, 1, 45, 0
2, 68720, Note_on_c, 1, 40, 127
2, 69040, Note_off_c, 1, 40, 0
2, 69120, Note_on_c, 1, 33, 127
2, 69440, Note_off_c, 1, 33, 0
2, 69480, Note_on_c, 1, 33, 127
2, 69800, Note_off_c, 1, 33, 0
2, 69840, Note_on_c, 1, 38, 127
2, 70160, Note_off_c, 1, 38, 0
2, 74720, Note_on_c, 1, 55, 127
2, 74720, Note_on_c, 1, 58, 127
2, 74720, Note_on_c, 1, 62, 127
2, 74720, Note_on_c, 1, 67, 127
2, 74720, Note_on_c, 1, 70, 127
2, 75040, Note_off_c, 1, 55, 0
2, 75040, Note_off_c, 1, 58, 0
2, 75040, Note_off_c, 1, 62, 0
2, 75040, Note_off_c, 1, 67, 0
2, 75040, Note_off_c, 1, 70, 0
2, 75080, Note_on_c, 1, 55, 127
2, 75080, Note_on_c, 1, 58, 127
2, 75080, Note_on_c, 1, 62, 127
2, 75080, Note_on_c, 1, 67, 127
2, 75080, Note_on_c, 1, 70, 127
2, 75440, Note_off_c, 1, 55, 0
2, 75440, Note_off_c, 1, 58, 0
2, 75440, Note_off_c, 1, 62, 0
2, 75440, Note_off_c, 1, 67, 0
2, 75440, Note_off_c, 1, 70, 0
2, 93920, Note_on_c, 1, 62, 127
2, 93920, Note_on_c, 1, 74, 127
2, 95000, Note_off_c, 1, 62, 0
2, 95000, Note_off_c, 1, 74, 0
2, 95040, Note_on_c, 1, 60, 127
2, 95040, Note_on_c, 1, 72, 127
2, 95360, Note_off_c, 1, 60, 0
2, 95360, Note_off_c, 1, 72, 0
2, 95400, Note_on_c, 1, 62, 127
2, 95400, Note_on_c, 1, 74, 127
2, 95720, Note_off_c, 1, 62, 0
2, 95720, Note_off_c, 1, 74, 0
2, 95760, Note_on_c, 1, 57, 127
2, 95760, Note_on_c, 1, 69, 127
2, 96080, Note_off_c, 1, 57, 0
2, 96080, Note_off_c, 1, 69, 0
2, 96120, Note_on_c, 1, 50, 127
2, 96120, Note_on_c, 1, 62, 127
2, 96400, Note_off_c, 1, 50, 0
2, 96400, Note_off_c, 1, 62, 0
2, 96440, Note_on_c, 1, 50, 127
2, 96440, Note_on_c, 1, 62, 127
2, 96480, Note_off_c, 1, 50, 0
2, 96480, Note_off_c, 1, 62, 0
2, 96520, Note_on_c, 1, 55, 127
2, 96520, Note_on_c, 1, 67, 127
2, 96840, Note_off_c, 1, 55, 0
2, 96840, Note_off_c, 1, 67, 0
2, 96880, Note_on_c, 1, 57, 127
2, 96880, Note_on_c, 1, 69, 127
2, 97200, Note_off_c, 1, 57, 0
2, 97200, Note_off_c, 1, 69, 0
2, 97240, Note_on_c, 1, 55, 127
2, 97240, Note_on_c, 1, 67, 127
2, 97560, Note_off_c, 1, 55, 0
2, 97560, Note_off_c, 1, 67, 0
2, 97600, Note_on_c, 1, 52, 127
2, 97600, Note_on_c, 1, 64, 127
2, 97920, Note_off_c, 1, 52, 0
2, 97920, Note_off_c, 1, 64, 0
2, 97960, Note_on_c, 1, 50, 127
2, 97960, Note_on_c, 1, 62, 127
2, 98280, Note_off_c, 1, 50, 0
2, 98280, Note_off_c, 1, 62, 0
2, 98320, Note_on_c, 1, 49, 127
2, 98320, Note_on_c, 1, 61, 127
2, 98640, Note_off_c, 1, 49, 0
2, 98640, Note_off_c, 1, 61, 0
2, 98720, Note_on_c, 1, 50, 127
2, 98720, Note_on_c, 1, 62, 127
2, 99040, Note_off_c, 1, 50, 0
2, 99040, Note_off_c, 1, 62, 0
2, 99080, Note_on_c, 1, 53, 127
2, 99080, Note_on_c, 1, 65, 127
2, 99400, Note_off_c, 1, 53, 0
2, 99400, Note_off_c, 1, 65, 0
2, 99440, Note_on_c, 1, 57, 127
2, 99440, Note_on_c, 1, 69, 127
2, 100120, Note_off_c, 1, 57, 0
2, 100120, Note_off_c, 1, 69, 0
2, 100160, Note_on_c, 1, 52, 127
2, 100160, Note_on_c, 1, 64, 127
2, 101120, Note_off_c, 1, 52, 0
2, 101120, Note_off_c, 1, 64, 0
2, 101160, Note_on_c, 1, 52, 127
2, 101160, Note_on_c, 1, 64, 127
2, 102000, Note_off_c, 1, 52, 0
2, 102000, Note_off_c, 1, 64, 0
2, 102040, Note_on_c, 1, 55, 127
2, 102040, Note_on_c, 1, 67, 127
2, 102920, Note_on_c, 1, 54, 127
2, 102920, Note_off_c, 1, 55, 0
2, 102920, Note_on_c, 1, 66, 127
2, 102920, Note_off_c, 1, 67, 0
2, 102960, Note_off_c, 1, 54, 0
2, 102960, Note_off_c, 1, 66, 0
2, 103400, Note_on_c, 1, 48, 127
2, 103400, Note_on_c, 1, 60, 127
2, 103720, Note_off_c, 1, 48, 0
2, 103720, Note_off_c, 1, 60, 0
2, 103760, Note_on_c, 1, 55, 127
2, 103760, Note_on_c, 1, 67, 127
2, 104080, Note_off_c, 1, 55, 0
2, 104080, Note_off_c, 1, 67, 0
2, 104120, Note_on_c, 1, 54, 127
2, 104120, Note_on_c, 1, 66, 127
2, 105160, Note_off_c, 1, 54, 0
2, 105160, Note_off_c, 1, 66, 0
2, 105200, Note_on_c, 1, 60, 127
2, 105200, Note_on_c, 1, 72, 127
2, 105400, Note_off_c, 1, 60, 0
2, 105400, Note_off_c, 1, 72, 0
2, 105440, Note_on_c, 1, 60, 127
2, 105440, Note_on_c, 1, 72, 127
2, 105560, Note_off_c, 1, 60, 0
2, 105560, Note_off_c, 1, 72, 0
2, 105600, Note_on_c, 1, 57, 127
2, 105600, Note_on_c, 1, 69, 127
2, 105920, Note_off_c, 1, 57, 0
2, 105920, Note_off_c, 1, 69, 0
2, 105960, Note_on_c, 1, 55, 127
2, 105960, Note_on_c, 1, 67, 127
2, 106280, Note_off_c, 1, 55, 0
2, 106280, Note_off_c, 1, 67, 0
2, 106320, Note_on_c, 1, 50, 127
2, 106320, Note_on_c, 1, 62, 127
2, 106640, Note_off_c, 1, 50, 0
2, 106640, Note_off_c, 1, 62, 0
2, 106680, Note_on_c, 1, 51, 127
2, 106680, Note_on_c, 1, 63, 127
2, 107000, Note_off_c, 1, 51, 0
2, 107000, Note_off_c, 1, 63, 0
2, 107040, Note_on_c, 1, 54, 127
2, 107040, Note_on_c, 1, 66, 127
2, 107360, Note_off_c, 1, 54, 0
2, 107360, Note_off_c, 1, 66, 0
2, 107400, Note_on_c, 1, 55, 127
2, 107400, Note_on_c, 1, 67, 127
2, 107520, Note_off_c, 1, 55, 0
2, 107520, Note_off_c, 1, 67, 0
2, 107560, Note_on_c, 1, 55, 127
2, 107560, Note_on_c, 1, 67, 127
2, 107760, Note_off_c, 1, 55, 0
2, 107760, Note_off_c, 1, 67, 0
2, 107800, Note_on_c, 1, 57, 127
2, 107800, Note_on_c, 1, 69, 127
2, 108120, Note_off_c, 1, 57, 0
2, 108120, Note_off_c, 1, 69, 0
2, 108160, Note_on_c, 1, 55, 127
2, 108160, Note_on_c, 1, 67, 127
2, 108480, Note_off_c, 1, 55, 0
2, 108480, Note_off_c, 1, 67, 0
2, 108520, Note_on_c, 1, 52, 127
2, 108520, Note_on_c, 1, 64, 127
2, 108840, Note_off_c, 1, 52, 0
2, 108840, Note_off_c, 1, 64, 0
2, 108880, Note_on_c, 1, 52, 127
2, 108880, Note_on_c, 1, 64, 127
2, 109200, Note_off_c, 1, 52, 0
2, 109200, Note_off_c, 1, 64, 0
2, 109240, Note_on_c, 1, 50, 127
2, 109240, Note_on_c, 1, 62, 127
2, 109560, Note_off_c, 1, 50, 0
2, 109560, Note_off_c, 1, 62, 0
2, 109600, Note_on_c, 1, 52, 127
2, 109600, Note_on_c, 1, 64, 127
2, 109720, Note_off_c, 1, 52, 0
2, 109720, Note_off_c, 1, 64, 0
2, 109760, Note_on_c, 1, 52, 127
2, 109760, Note_on_c, 1, 64, 127
2, 109960, Note_off_c, 1, 52, 0
2, 109960, Note_off_c, 1, 64, 0
2, 110000, Note_on_c, 1, 50, 127
2, 110000, Note_on_c, 1, 62, 127
2, 110320, Note_off_c, 1, 50, 0
2, 110320, Note_off_c, 1, 62, 0
2, 110360, Note_on_c, 1, 48, 127
2, 110360, Note_on_c, 1, 60, 127
2, 110600, Note_off_c, 1, 48, 0
2, 110600, Note_off_c, 1, 60, 0
2, 110640, Note_on_c, 1, 47, 127
2, 110640, Note_on_c, 1, 59, 127
2, 110680, Note_off_c, 1, 47, 0
2, 110680, Note_off_c, 1, 59, 0
2, 110720, Note_on_c, 1, 48, 127
2, 110720, Note_on_c, 1, 60, 127
2, 110960, Note_off_c, 1, 48, 0
2, 110960, Note_off_c, 1, 60, 0
2, 111000, Note_on_c, 1, 50, 127
2, 111000, Note_on_c, 1, 62, 127
2, 111040, Note_off_c, 1, 50, 0
2, 111040, Note_off_c, 1, 62, 0
2, 111080, Note_on_c, 1, 49, 127
2, 111080, Note_on_c, 1, 61, 127
2, 111400, Note_off_c, 1, 49, 0
2, 111400, Note_off_c, 1, 61, 0
2, 111440, Note_on_c, 1, 50, 127
2, 111440, Note_on_c, 1, 62, 127
2, 111760, Note_off_c, 1, 50, 0
2, 111760, Note_off_c, 1, 62, 0
2, 111800, Note_on_c, 1, 52, 127
2, 111800, Note_on_c, 1, 64, 127
2, 111840, Note_off_c, 1, 52, 0
2, 111840, Note_off_c, 1, 64, 0
2, 111880, Note_on_c, 1, 52, 127
2, 111880, Note_on_c, 1, 64, 127
2, 112160, Note_off_c, 1, 52, 0
2, 112160, Note_off_c, 1, 64, 0
2, 112200, Note_on_c, 1, 49, 127
2, 112200, Note_on_c, 1, 61, 127
2, 112440, Note_off_c, 1, 49, 0
2, 112440, Note_off_c, 1, 61, 0
2, 112480, Note_on_c, 1, 48, 127
2, 112480, Note_on_c, 1, 60, 127
2, 112520, Note_off_c, 1, 48, 0
2, 112520, Note_off_c, 1, 60, 0
2, 112560, Note_on_c, 1, 52, 127
2, 112560, Note_on_c, 1, 64, 127
2, 112880, Note_off_c, 1, 52, 0
2, 112880, Note_off_c, 1, 64, 0
2, 112920, Note_on_c, 1, 53, 127
2, 112920, Note_on_c, 1, 65, 127
2, 113240, Note_off_c, 1, 53, 0
2, 113240, Note_off_c, 1, 65, 0
2, 113280, Note_on_c, 1, 47, 127
2, 113280, Note_on_c, 1, 59, 127
2, 113600, Note_off_c, 1, 47, 0
2, 113600, Note_off_c, 1, 59, 0
2, 113640, Note_on_c, 1, 53, 127
2, 113640, Note_on_c, 1, 65, 127
2, 114000, Note_off_c, 1, 53, 0
2, 114000, Note_off_c, 1, 65, 0
2, 114040, Note_on_c, 1, 53, 127
2, 114040, Note_on_c, 1, 65, 127
2, 114360, Note_off_c, 1, 53, 0
2, 114360, Note_off_c, 1, 65, 0
2, 114400, Note_on_c, 1, 52, 127
2, 114400, Note_on_c, 1, 64, 127
2, 115120, Note_off_c, 1, 52, 0
2, 115120, Note_off_c, 1, 64, 0
2, 115160, Note_on_c, 1, 52, 127
2, 115160, Note_on_c, 1, 64, 127
2, 115480, Note_off_c, 1, 52, 0
2, 115480, Note_off_c, 1, 64, 0
2, 115520, Note_on_c, 1, 56, 127
2, 115520, Note_on_c, 1, 68, 127
2, 115880, Note_off_c, 1, 56, 0
2, 115880, Note_off_c, 1, 68, 0
2, 115920, Note_on_c, 1, 54, 127
2, 115920, Note_on_c, 1, 66, 127
2, 116160, Note_off_c, 1, 54, 0
2, 116160, Note_off_c, 1, 66, 0
2, 116200, Note_on_c, 1, 54, 127
2, 116200, Note_on_c, 1, 66, 127
2, 116280, Note_off_c, 1, 54, 0
2, 116280, Note_off_c, 1, 66, 0
2, 116320, Note_on_c, 1, 52, 127
2, 116320, Note_on_c, 1, 64, 127
2, 116640, Note_off_c, 1, 52, 0
2, 116640, Note_off_c, 1, 64, 0
2, 116680, Note_on_c, 1, 49, 127
2, 116680, Note_on_c, 1, 61, 127
2, 117000, Note_off_c, 1, 49, 0
2, 117000, Note_off_c, 1, 61, 0
2, 117040, Note_on_c, 1, 50, 127
2, 117040, Note_on_c, 1, 62, 127
2, 117360, Note_off_c, 1, 50, 0
2, 117360, Note_off_c, 1, 62, 0
2, 117400, Note_on_c, 1, 49, 127
2, 117400, Note_on_c, 1, 61, 127
2, 117560, Note_off_c, 1, 49, 0
2, 117560, Note_off_c, 1, 61, 0
2, 117760, Note_on_c, 1, 49, 127
2, 117760, Note_on_c, 1, 61, 127
2, 117920, Note_off_c, 1, 49, 0
2, 117920, Note_off_c, 1, 61, 0
2, 118120, Note_on_c, 1, 49, 127
2, 118120, Note_on_c, 1, 61, 127
2, 118400, Note_off_c, 1, 49, 0
2, 118400, Note_off_c, 1, 61, 0
2, 118440, Note_on_c, 1, 49, 127
2, 118440, Note_on_c, 1, 61, 127
2, 118480, Note_off_c, 1, 49, 0
2, 118480, Note_off_c, 1, 61, 0
2, 118520, Note_on_c, 1, 50, 127
2, 118520, Note_on_c, 1, 62, 127
2, 118840, Note_off_c, 1, 50, 0
2, 118840, Note_off_c, 1, 62, 0
2, 118880, Note_on_c, 1, 49, 127
2, 118880, Note_on_c, 1, 61, 127
2, 119200, Note_off_c, 1, 49, 0
2, 119200, Note_off_c, 1, 61, 0
2, 119240, Note_on_c, 1, 50, 127
2, 119240, Note_on_c, 1, 62, 127
2, 119560, Note_off_c, 1, 50, 0
2, 119560, Note_off_c, 1, 62, 0
2, 119600, Note_on_c, 1, 48, 127
2, 119600, Note_on_c, 1, 60, 127
2, 119840, Note_off_c, 1, 48, 0
2, 119840, Note_off_c, 1, 60, 0
2, 119880, Note_on_c, 1, 49, 127
2, 119880, Note_on_c, 1, 61, 127
2, 120000, Note_off_c, 1, 49, 0
2, 120000, Note_off_c, 1, 61, 0
2, 120040, End_track
3, 0, Start_track
3, 0, Title_t, "MIDI"
3, 1536, End_track
0, 0, End_of_file
