0, 0, Header, 1, 3, 192
1, 0, Start_track
1, 0, Time_signature, 4, 2, 24, 8
1, 0, Tempo, 500000
1, 120040, End_track
2, 0, Start_track
2, 0, Text_t, "random instrument: random person i dunno whatev"
2, 0, Title_t, "Track 1"
2, 0, Note_on_c, 1, 40, 127
2, 0, Note_on_c, 1, 48, 127
2, 0, Note_on_c, 1, 56, 127
2, 0, Note_on_c, 1, 60, 127
2, 40, Note_off_c, 1, 40, 0
2, 40, Note_on_c, 1, 42, 127
2, 40, Note_off_c, 1, 48, 0
2, 40, Note_on_c, 1, 49, 127
2, 40, Note_on_c, 1, 54, 127
2, 40, Note_off_c, 1, 56, 0
2, 40, Note_off_c, 1, 60, 0
2, 40, Note_on_c, 1, 82, 127
2, 40, Note_on_c, 1, 88, 127
2, 40, Note_on_c, 1, 94, 127
2, 80, Note_off_c, 1, 42, 0
2, 80, Note_off_c, 1, 49, 0
2, 80, Note_off_c, 1, 54, 0
2, 80, Note_off_c, 1, 82, 0
2, 80, Note_off_c, 1, 88, 0
2, 80, Note_off_c, 1, 94, 0
2, 120, Note_on_c, 1, 40, 127
2, 120, Note_on_c, 1, 48, 127
2, 120, Note_on_c, 1, 56, 127
2, 120, Note_on_c, 1, 60, 127
2, 360, Note_off_c, 1, 40, 0
2, 360, Note_off_c, 1, 48, 0
2, 360, Note_off_c, 1, 56, 0
2, 360, Note_on_c, 1, 57, 127
2, 360, Note_off_c, 1, 60, 0
2, 360, Note_on_c, 1, 62, 127
2, 360, Note_on_c, 1, 65, 127
2, 360, Note_on_c, 1, 69, 127
2, 360, Note_on_c, 1, 88, 127
2, 400, Note_on_c, 1, 38, 127
2, 400, Note_off_c, 1, 57, 0
2, 400, Note_off_c, 1, 62, 0
2, 400, Note_off_c, 1, 65, 0
2, 400, Note_on_c, 1, 66, 127
2, 400, Note_off_c, 1, 69, 0
2, 400, Note_on_c, 1, 74, 127
2, 400, Note_on_c, 1, 81, 127
2, 400, Note_off_c, 1, 88, 0
2, 440, Note_off_c, 1, 38, 0
2, 440, Note_off_c, 1, 66, 0
2, 440, Note_off_c, 1, 74, 0
2, 480, Note_on_c, 1, 76, 127
2, 480, Note_off_c, 1, 81, 0
2, 520, Note_on_c, 1, 57, 127
2, 520, Note_on_c, 1, 74, 127
2, 520, Note_off_c, 1, 76, 0
2, 680, Note_off_c, 1, 57, 0
2, 680, Note_off_c, 1, 74, 0
2, 720, Note_on_c, 1, 60, 127
2, 1280, Note_on_c, 1, 38, 127
2, 1280, Note_on_c, 1, 54, 127
2, 1280, Note_off_c, 1, 60, 0
2, 1280, Note_on_c, 1, 62, 127
2, 2000, Note_off_c, 1, 38, 0
2, 2000, Note_off_c, 1, 54, 0
2, 2000, Note_off_c, 1, 62, 0
2, 2040, Note_on_c, 1, 50, 127
2, 2120, Note_off_c, 1, 50, 0
2, 2160, Note_on_c, 1, 50, 127
2, 2480, Note_on_c, 1, 62, 127
2, 2480, Note_on_c, 1, 66, 127
2, 2480, Note_on_c, 1, 69, 127
2, 2840, Note_off_c, 1, 50, 0
2, 2840, Note_off_c, 1, 62, 0
2, 2840, Note_off_c, 1, 66, 0
2, 2840, Note_off_c, 1, 69, 0
2, 2880, Note_on_c, 1, 43, 127
2, 2880, Note_on_c, 1, 50, 127
2, 2880, Note_on_c, 1, 59, 127
2, 2880, Note_on_c, 1, 64, 127
2, 3760, Note_on_c, 1, 62, 127
2, 3760, Note_off_c, 1, 64, 0
2, 3800, Note_off_c, 1, 62, 0
2, 3800, Note_on_c, 1, 64, 127
2, 3840, Note_off_c, 1, 59, 0
2, 3840, Note_off_c, 1, 64, 0
2, 4040, Note_on_c, 1, 59, 127
2, 4040, Note_on_c, 1, 62, 127
2, 4680, Note_off_c, 1, 43, 0
2, 4680, Note_off_c, 1, 50, 0
2, 4680, Note_off_c, 1, 59, 0
2, 4680, Note_off_c, 1, 62, 0
2, 4720, Note_on_c, 1, 43, 127
2, 4720, Note_on_c, 1, 50, 127
2, 4720, Note_on_c, 1, 59, 127
2, 4760, Note_on_c, 1, 55, 127
2, 4760, Note_on_c, 1, 62, 127
2, 4760, Note_on_c, 1, 66, 127
2, 4840, Note_off_c, 1, 66, 0
2, 4880, Note_on_c, 1, 66, 127
2, 5240, Note_off_c, 1, 55, 0
2, 5240, Note_off_c, 1, 59, 0
2, 5240, Note_on_c, 1, 60, 127
2, 5240, Note_off_c, 1, 66, 0
2, 5240, Note_on_c, 1, 69, 127
2, 5280, Note_on_c, 1, 55, 127
2, 5280, Note_on_c, 1, 59, 127
2, 5280, Note_off_c, 1, 60, 0
2, 5280, Note_on_c, 1, 66, 127
2, 5280, Note_off_c, 1, 69, 0
2, 5640, Note_off_c, 1, 66, 0
2, 5680, Note_on_c, 1, 67, 127
2, 6040, Note_off_c, 1, 67, 0
2, 6080, Note_on_c, 1, 66, 127
2, 6440, Note_off_c, 1, 66, 0
2, 6480, Note_on_c, 1, 67, 127
2, 6840, Note_off_c, 1, 67, 0
2, 6880, Note_on_c, 1, 71, 127
2, 7040, Note_off_c, 1, 43, 0
2, 7040, Note_off_c, 1, 50, 0
2, 7040, Note_off_c, 1, 55, 0
2, 7040, Note_off_c, 1, 59, 0
2, 7040, Note_off_c, 1, 62, 0
2, 7040, Note_off_c, 1, 71, 0
2, 7080, Note_on_c, 1, 43, 127
2, 7080, Note_on_c, 1, 50, 127
2, 7080, Note_on_c, 1, 55, 127
2, 7080, Note_on_c, 1, 59, 127
2, 7080, Note_on_c, 1, 62, 127
2, 7080, Note_on_c, 1, 71, 127
2, 7680, Note_off_c, 1, 43, 0
2, 7680, Note_off_c, 1, 50, 0
2, 7680, Note_off_c, 1, 55, 0
2, 7680, Note_off_c, 1, 59, 0
2, 7680, Note_off_c, 1, 62, 0
2, 7680, Note_off_c, 1, 71, 0
2, 7720, Note_on_c, 1, 43, 127
2, 7720, Note_on_c, 1, 50, 127
2, 7720, Note_on_c, 1, 55, 127
2, 7720, Note_on_c, 1, 59, 127
2, 7720, Note_on_c, 1, 62, 127
2, 7720, Note_on_c, 1, 67, 127
2, 8920, Note_off_c, 1, 67, 0
2, 8960, Note_on_c, 1, 66, 127
2, 9480, Note_off_c, 1, 43, 0
2, 9480, Note_off_c, 1, 50, 0
2, 9480, Note_off_c, 1, 55, 0
2, 9480, Note_off_c, 1, 59, 0
2, 9480, Note_off_c, 1, 62, 0
2, 9480, Note_off_c, 1, 66, 0
2, 9520, Note_on_c, 1, 43, 127
2, 9520, Note_on_c, 1, 50, 127
2, 9520, Note_on_c, 1, 55, 127
2, 9520, Note_on_c, 1, 59, 127
2, 9520, Note_on_c, 1, 62, 127
2, 9520, Note_on_c, 1, 66, 127
2, 9760, Note_off_c, 1, 66, 0
2, 9800, Note_on_c, 1, 67, 127
2, 10320, Note_off_c, 1, 67, 0
2, 10800, Note_on_c, 1, 67, 127
2, 10920, Note_off_c, 1, 67, 0
2, 10960, Note_on_c, 1, 66, 127
2, 11000, Note_off_c, 1, 66, 0
2, 11040, Note_on_c, 1, 66, 127
2, 11440, Note_off_c, 1, 43, 0
2, 11440, Note_off_c, 1, 50, 0
2, 11440, Note_off_c, 1, 55, 0
2, 11440, Note_off_c, 1, 59, 0
2, 11440, Note_off_c, 1, 62, 0
2, 11440, Note_off_c, 1, 66, 0
2, 11480, Note_on_c, 1, 43, 127
2, 11480, Note_on_c, 1, 50, 127
2, 11480, Note_on_c, 1, 55, 127
2, 11480, Note_on_c, 1, 59, 127
2, 11480, Note_on_c, 1, 62, 127
2, 11480, Note_on_c, 1, 67, 127
2, 12000, Note_off_c, 1, 43, 0
2, 12000, Note_off_c, 1, 50, 0
2, 12000, Note_off_c, 1, 55, 0
2, 12000, Note_off_c, 1, 59, 0
2, 12000, Note_off_c, 1, 62, 0
2, 12000, Note_off_c, 1, 67, 0
2, 12040, Note_on_c, 1, 43, 127
2, 12040, Note_on_c, 1, 50, 127
2, 12040, Note_on_c, 1, 55, 127
2, 12040, Note_on_c, 1, 59, 127
2, 12040, Note_on_c, 1, 62, 127
2, 12040, Note_on_c, 1, 67, 127
2, 12280, Note_off_c, 1, 67, 0
2, 12320, Note_on_c, 1, 66, 127
2, 12720, Note_off_c, 1, 66, 0
2, 12760, Note_on_c, 1, 67, 127
2, 13120, Note_off_c, 1, 67, 0
2, 13160, Note_on_c, 1, 66, 127
2, 13520, Note_off_c, 1, 66, 0
2, 13560, Note_on_c, 1, 66, 127
2, 13960, Note_off_c, 1, 43, 0
2, 13960, Note_off_c, 1, 50, 0
2, 13960, Note_off_c, 1, 55, 0
2, 13960, Note_off_c, 1, 59, 0
2, 13960, Note_off_c, 1, 62, 0
2, 13960, Note_off_c, 1, 66, 0
2, 14000, Note_on_c, 1, 43, 127
2, 14000, Note_on_c, 1, 50, 127
2, 14000, Note_on_c, 1, 59, 127
2, 14000, Note_on_c, 1, 67, 127
2, 14280, Note_off_c, 1, 43, 0
2, 14280, Note_off_c, 1, 50, 0
2, 14280, Note_off_c, 1, 59, 0
2, 14280, Note_off_c, 1, 67, 0
2, 14320, Note_on_c, 1, 43, 127
2, 14320, Note_on_c, 1, 50, 127
2, 14320, Note_on_c, 1, 59, 127
2, 14320, Note_on_c, 1, 67, 127
2, 15240, Note_off_c, 1, 43, 0
2, 15240, Note_off_c, 1, 50, 0
2, 15240, Note_off_c, 1, 59, 0
2, 15240, Note_off_c, 1, 67, 0
2, 16080, Note_on_c, 1, 57, 127
2, 16080, Note_on_c, 1, 60, 127
2, 16080, Note_on_c, 1, 63, 127
2, 16080, Note_on_c, 1, 72, 127
2, 16080, Note_on_c, 1, 78, 127
2, 16080, Note_on_c, 1, 83, 127
2, 16160, Note_off_c, 1, 63, 0
2, 16160, Note_off_c, 1, 72, 0
2, 16160, Note_off_c, 1, 78, 0
2, 16160, Note_off_c, 1, 83, 0
2, 16200, Note_on_c, 1, 88, 127
2, 16240, Note_on_c, 1, 76, 127
2, 16240, Note_off_c, 1, 88, 0
2, 16280, Note_off_c, 1, 76, 0
2, 16320, Note_on_c, 1, 74, 127
2, 16480, Note_off_c, 1, 60, 0
2, 16520, Note_on_c, 1, 60, 127
2, 16880, Note_off_c, 1, 74, 0
2, 16920, Note_on_c, 1, 74, 127
2, 17520, Note_off_c, 1, 57, 0
2, 17520, Note_off_c, 1, 60, 0
2, 17520, Note_off_c, 1, 74, 0
2, 17560, Note_on_c, 1, 57, 127
2, 17560, Note_on_c, 1, 60, 127
2, 17560, Note_on_c, 1, 74, 127
2, 17760, Note_off_c, 1, 57, 0
2, 17760, Note_off_c, 1, 74, 0
2, 17800, Note_on_c, 1, 55, 127
2, 17800, Note_on_c, 1, 59, 127
2, 17800, Note_off_c, 1, 60, 0
2, 17800, Note_on_c, 1, 67, 127
2, 17800, Note_on_c, 1, 79, 127
2, 18600, Note_off_c, 1, 55, 0
2, 18600, Note_off_c, 1, 59, 0
2, 18600, Note_off_c, 1, 67, 0
2, 18600, Note_off_c, 1, 79, 0
2, 18640, Note_on_c, 1, 50, 127
2, 18640, Note_on_c, 1, 66, 127
2, 18640, Note_on_c, 1, 69, 127
2, 18640, Note_on_c, 1, 74, 127
2, 19440, Note_off_c, 1, 66, 0
2, 19440, Note_off_c, 1, 69, 0
2, 19440, Note_off_c, 1, 74, 0
2, 19680, Note_on_c, 1, 77, 127
2, 19720, Note_off_c, 1, 77, 0
2, 19760, Note_off_c, 1, 50, 0
2, 19800, Note_on_c, 1, 50, 127
2, 19920, Note_on_c, 1, 64, 127
2, 20280, Note_off_c, 1, 50, 0
2, 20320, Note_on_c, 1, 50, 127
2, 21080, Note_off_c, 1, 50, 0
2, 21080, Note_off_c, 1, 64, 0
2, 21120, Note_on_c, 1, 50, 127
2, 21120, Note_on_c, 1, 57, 127
2, 21720, Note_off_c, 1, 50, 0
2, 21760, Note_on_c, 1, 50, 127
2, 21880, Note_off_c, 1, 50, 0
2, 21880, Note_off_c, 1, 57, 0
2, 21920, Note_on_c, 1, 31, 127
2, 21920, Note_on_c, 1, 43, 127
2, 21920, Note_on_c, 1, 71, 127
2, 22080, Note_off_c, 1, 31, 0
2, 22080, Note_off_c, 1, 43, 0
2, 22080, Note_off_c, 1, 71, 0
2, 22120, Note_on_c, 1, 31, 127
2, 22120, Note_on_c, 1, 43, 127
2, 22120, Note_on_c, 1, 71, 127
2, 22360, Note_on_c, 1, 67, 127
2, 22360, Note_off_c, 1, 71, 0
2, 22760, Note_off_c, 1, 67, 0
2, 22800, Note_off_c, 1, 31, 0
2, 22800, Note_on_c, 1, 36, 127
2, 22800, Note_off_c, 1, 43, 0
2, 22800, Note_on_c, 1, 48, 127
2, 22800, Note_on_c, 1, 55, 127
2, 22800, Note_on_c, 1, 64, 127
2, 23760, Note_off_c, 1, 55, 0
2, 23760, Note_on_c, 1, 60, 127
2, 23800, Note_off_c, 1, 60, 0
2, 23840, Note_on_c, 1, 55, 127
2, 24000, Note_off_c, 1, 55, 0
2, 24000, Note_off_c, 1, 64, 0
2, 24000, Note_on_c, 1, 67, 127
2, 24040, Note_on_c, 1, 60, 127
2, 24040, Note_on_c, 1, 64, 127
2, 24040, Note_off_c, 1, 67, 0
2, 24360, Note_off_c, 1, 36, 0
2, 24360, Note_off_c, 1, 48, 0
2, 24360, Note_off_c, 1, 60, 0
2, 24360, Note_off_c, 1, 64, 0
2, 24400, Note_on_c, 1, 36, 127
2, 24400, Note_on_c, 1, 48, 127
2, 24400, Note_on_c, 1, 60, 127
2, 24400, Note_on_c, 1, 64, 127
2, 24880, Note_off_c, 1, 60, 0
2, 25320, Note_off_c, 1, 36, 0
2, 25320, Note_on_c, 1, 40, 127
2, 25320, Note_off_c, 1, 48, 0
2, 25320, Note_on_c, 1, 52, 127
2, 25320, Note_off_c, 1, 64, 0
2, 25360, Note_on_c, 1, 64, 127
2, 26160, Note_off_c, 1, 40, 0
2, 26160, Note_off_c, 1, 52, 0
2, 26160, Note_off_c, 1, 64, 0
2, 26200, Note_on_c, 1, 40, 127
2, 26200, Note_on_c, 1, 52, 127
2, 26200, Note_on_c, 1, 64, 127
2, 26600, Note_off_c, 1, 64, 0
2, 26640, Note_on_c, 1, 61, 127
2, 27240, Note_off_c, 1, 61, 0
2, 27280, Note_on_c, 1, 64, 127
2, 28080, Note_on_c, 1, 56, 127
2, 28080, Note_off_c, 1, 64, 0
2, 28120, Note_off_c, 1, 40, 0
2, 28120, Note_off_c, 1, 52, 0
2, 28120, Note_off_c, 1, 56, 0
2, 28160, Note_on_c, 1, 40, 127
2, 28160, Note_on_c, 1, 52, 127
2, 28160, Note_on_c, 1, 56, 127
2, 28360, Note_off_c, 1, 56, 0
2, 28960, Note_on_c, 1, 59, 127
2, 29320, Note_off_c, 1, 59, 0
2, 29360, Note_on_c, 1, 59, 127
2, 29720, Note_off_c, 1, 59, 0
2, 29760, Note_on_c, 1, 59, 127
2, 30160, Note_off_c, 1, 59, 0
2, 30200, Note_on_c, 1, 76, 127
2, 30360, Note_off_c, 1, 76, 0
2, 30440, Note_off_c, 1, 40, 0
2, 30440, Note_off_c, 1, 52, 0
2, 30480, Note_on_c, 1, 40, 127
2, 30480, Note_on_c, 1, 52, 127
2, 30880, Note_on_c, 1, 76, 127
2, 30920, Note_off_c, 1, 76, 0
2, 31080, Note_on_c, 1, 59, 127
2, 31400, Note_off_c, 1, 59, 0
2, 31480, Note_on_c, 1, 56, 127
2, 31840, Note_off_c, 1, 56, 0
2, 31880, Note_on_c, 1, 60, 127
2, 32280, Note_off_c, 1, 60, 0
2, 32320, Note_on_c, 1, 67, 127
2, 32720, Note_off_c, 1, 67, 0
2, 32760, Note_on_c, 1, 67, 127
2, 32960, Note_off_c, 1, 40, 0
2, 32960, Note_off_c, 1, 52, 0
2, 32960, Note_off_c, 1, 67, 0
2, 33000, Note_on_c, 1, 40, 127
2, 33000, Note_on_c, 1, 52, 127
2, 33000, Note_on_c, 1, 67, 127
2, 35600, Note_off_c, 1, 40, 0
2, 35600, Note_off_c, 1, 52, 0
2, 35600, Note_off_c, 1, 67, 0
2, 35640, Note_on_c, 1, 40, 127
2, 35640, Note_on_c, 1, 52, 127
2, 35640, Note_on_c, 1, 67, 127
2, 35880, Note_off_c, 1, 40, 0
2, 35880, Note_off_c, 1, 52, 0
2, 35880, Note_off_c, 1, 67, 0
2, 35920, Note_on_c, 1, 72, 127
2, 36520, Note_off_c, 1, 72, 0
2, 36560, Note_on_c, 1, 76, 127
2, 37120, Note_off_c, 1, 76, 0
2, 37160, Note_on_c, 1, 79, 127
2, 37400, Note_off_c, 1, 79, 0
2, 37440, Note_on_c, 1, 80, 127
2, 37720, Note_off_c, 1, 80, 0
2, 37760, Note_on_c, 1, 52, 127
2, 37760, Note_on_c, 1, 57, 127
2, 37760, Note_on_c, 1, 60, 127
2, 37760, Note_on_c, 1, 64, 127
2, 37760, Note_on_c, 1, 76, 127
2, 38120, Note_off_c, 1, 52, 0
2, 38120, Note_off_c, 1, 57, 0
2, 38120, Note_off_c, 1, 60, 0
2, 38120, Note_off_c, 1, 64, 0
2, 38120, Note_off_c, 1, 76, 0
2, 38160, Note_on_c, 1, 52, 127
2, 38160, Note_on_c, 1, 57, 127
2, 38160, Note_on_c, 1, 60, 127
2, 38160, Note_on_c, 1, 64, 127
2, 38160, Note_on_c, 1, 76, 127
2, 38600, Note_on_c, 1, 69, 127
2, 38600, Note_off_c, 1, 76, 0
2, 39000, Note_off_c, 1, 69, 0
2, 39040, Note_on_c, 1, 69, 127
2, 39440, Note_off_c, 1, 52, 0
2, 39440, Note_off_c, 1, 60, 0
2, 39440, Note_on_c, 1, 61, 127
2, 39440, Note_off_c, 1, 64, 0
2, 39480, Note_on_c, 1, 52, 127
2, 39480, Note_on_c, 1, 60, 127
2, 39480, Note_off_c, 1, 61, 0
2, 39480, Note_on_c, 1, 64, 127
2, 39840, Note_off_c, 1, 52, 0
2, 39840, Note_off_c, 1, 57, 0
2, 39840, Note_off_c, 1, 60, 0
2, 39840, Note_off_c, 1, 64, 0
2, 39840, Note_off_c, 1, 69, 0
2, 39880, Note_on_c, 1, 57, 127
2, 39880, Note_on_c, 1, 60, 127
2, 39880, Note_on_c, 1, 64, 127
2, 39880, Note_on_c, 1, 69, 127
2, 39880, Note_on_c, 1, 72, 127
2, 39880, Note_on_c, 1, 76, 127
2, 40640, Note_off_c, 1, 57, 0
2, 40640, Note_off_c, 1, 60, 0
2, 40640, Note_off_c, 1, 64, 0
2, 40640, Note_off_c, 1, 69, 0
2, 40640, Note_off_c, 1, 72, 0
2, 40640, Note_off_c, 1, 76, 0
2, 40680, Note_on_c, 1, 57, 127
2, 40680, Note_on_c, 1, 60, 127
2, 40680, Note_on_c, 1, 64, 127
2, 40680, Note_on_c, 1, 69, 127
2, 40680, Note_on_c, 1, 72, 127
2, 40680, Note_on_c, 1, 76, 127
2, 40720, Note_off_c, 1, 57, 0
2, 40720, Note_off_c, 1, 64, 0
2, 40720, Note_off_c, 1, 69, 0
2, 40720, Note_off_c, 1, 72, 0
2, 40720, Note_off_c, 1, 76, 0
2, 40760, Note_on_c, 1, 57, 127
2, 40760, Note_on_c, 1, 63, 127
2, 40760, Note_on_c, 1, 69, 127
2, 40760, Note_on_c, 1, 72, 127
2, 40760, Note_on_c, 1, 75, 127
2, 41560, Note_off_c, 1, 57, 0
2, 41560, Note_off_c, 1, 60, 0
2, 41560, Note_off_c, 1, 63, 0
2, 41560, Note_off_c, 1, 69, 0
2, 41560, Note_off_c, 1, 72, 0
2, 41560, Note_off_c, 1, 75, 0
2, 41600, Note_on_c, 1, 57, 127
2, 41600, Note_on_c, 1, 61, 127
2, 41600, Note_on_c, 1, 64, 127
2, 41600, Note_on_c, 1, 76, 127
2, 42000, Note_off_c, 1, 76, 0
2, 42040, Note_on_c, 1, 81, 127
2, 42400, Note_off_c, 1, 81, 0
2, 42440, Note_on_c, 1, 69, 127
2, 42880, Note_off_c, 1, 57, 0
2, 42880, Note_off_c, 1, 61, 0
2, 42880, Note_off_c, 1, 64, 0
2, 42880, Note_off_c, 1, 69, 0
2, 42920, Note_on_c, 1, 57, 127
2, 42920, Note_on_c, 1, 61, 127
2, 42920, Note_on_c, 1, 64, 127
2, 42920, Note_on_c, 1, 69, 127
2, 43320, Note_off_c, 1, 69, 0
2, 43320, Note_on_c, 1, 81, 127
2, 43720, Note_off_c, 1, 81, 0
2, 43760, Note_on_c, 1, 81, 127
2, 44120, Note_off_c, 1, 81, 0
2, 44160, Note_on_c, 1, 81, 127
2, 44520, Note_on_c, 1, 69, 127
2, 44520, Note_off_c, 1, 81, 0
2, 44560, Note_off_c, 1, 57, 0
2, 44560, Note_off_c, 1, 61, 0
2, 44560, Note_off_c, 1, 64, 0
2, 44560, Note_off_c, 1, 69, 0
2, 44600, Note_on_c, 1, 86, 127
2, 44640, Note_off_c, 1, 86, 0
2, 44680, Note_on_c, 1, 84, 127
2, 44760, Note_off_c, 1, 84, 0
2, 44800, Note_on_c, 1, 85, 127
2, 44840, Note_off_c, 1, 85, 0
2, 44880, Note_on_c, 1, 89, 127
2, 44960, Note_off_c, 1, 89, 0
2, 45000, Note_on_c, 1, 88, 127
2, 45040, Note_on_c, 1, 87, 127
2, 45040, Note_off_c, 1, 88, 0
2, 45080, Note_off_c, 1, 87, 0
2, 45160, Note_on_c, 1, 88, 127
2, 46080, Note_off_c, 1, 88, 0
2, 46120, Note_on_c, 1, 87, 127
2, 46400, Note_off_c, 1, 87, 0
2, 46440, Note_on_c, 1, 45, 127
2, 47200, Note_off_c, 1, 45, 0
2, 47320, Note_on_c, 1, 81, 127
2, 47400, Note_off_c, 1, 81, 0
2, 47480, Note_on_c, 1, 81, 127
2, 47640, Note_off_c, 1, 81, 0
2, 47680, Note_on_c, 1, 47, 127
2, 47680, Note_on_c, 1, 57, 127
2, 47680, Note_on_c, 1, 62, 127
2, 47680, Note_on_c, 1, 68, 127
2, 47680, Note_on_c, 1, 71, 127
2, 47800, Note_off_c, 1, 47, 0
2, 47800, Note_on_c, 1, 49, 127
2, 47800, Note_on_c, 1, 56, 127
2, 47800, Note_off_c, 1, 57, 0
2, 47800, Note_off_c, 1, 62, 0
2, 47800, Note_on_c, 1, 63, 127
2, 47800, Note_on_c, 1, 65, 127
2, 47800, Note_off_c, 1, 71, 0
2, 47800, Note_on_c, 1, 75, 127
2, 47840, Note_on_c, 1, 45, 127
2, 47840, Note_off_c, 1, 49, 0
2, 47840, Note_off_c, 1, 56, 0
2, 47840, Note_on_c, 1, 57, 127
2, 47840, Note_on_c, 1, 60, 127
2, 47840, Note_off_c, 1, 63, 0
2, 47840, Note_off_c, 1, 65, 0
2, 47840, Note_off_c, 1, 68, 0
2, 47840, Note_on_c, 1, 69, 127
2, 47840, Note_on_c, 1, 72, 127
2, 47840, Note_off_c, 1, 75, 0
2, 48480, Note_off_c, 1, 45, 0
2, 48480, Note_off_c, 1, 57, 0
2, 48480, Note_off_c, 1, 60, 0
2, 48480, Note_on_c, 1, 64, 127
2, 48520, Note_on_c, 1, 45, 127
2, 48920, Note_off_c, 1, 45, 0
2, 48920, Note_off_c, 1, 64, 0
2, 48920, Note_off_c, 1, 69, 0
2, 48920, Note_off_c, 1, 72, 0
2, 48960, Note_on_c, 1, 54, 127
2, 48960, Note_on_c, 1, 66, 127
2, 48960, Note_on_c, 1, 70, 127
2, 48960, Note_on_c, 1, 73, 127
2, 48960, Note_on_c, 1, 78, 127
2, 49360, Note_off_c, 1, 54, 0
2, 49400, Note_on_c, 1, 54, 127
2, 49440, Note_off_c, 1, 54, 0
2, 49480, Note_on_c, 1, 54, 127
2, 49680, Note_off_c, 1, 54, 0
2, 49720, Note_off_c, 1, 66, 0
2, 49720, Note_off_c, 1, 70, 0
2, 49720, Note_off_c, 1, 73, 0
2, 49720, Note_off_c, 1, 78, 0
2, 49760, Note_on_c, 1, 54, 127
2, 49760, Note_on_c, 1, 66, 127
2, 49760, Note_on_c, 1, 70, 127
2, 49760, Note_on_c, 1, 73, 127
2, 49760, Note_on_c, 1, 78, 127
2, 50240, Note_off_c, 1, 54, 0
2, 50240, Note_off_c, 1, 66, 0
2, 50240, Note_off_c, 1, 70, 0
2, 50240, Note_off_c, 1, 73, 0
2, 50240, Note_off_c, 1, 78, 0
2, 50280, Note_on_c, 1, 54, 127
2, 50280, Note_on_c, 1, 66, 127
2, 50280, Note_on_c, 1, 70, 127
2, 50280, Note_on_c, 1, 73, 127
2, 50280, Note_on_c, 1, 78, 127
2, 50840, Note_off_c, 1, 54, 0
2, 50880, Note_on_c, 1, 54, 127
2, 51080, Note_off_c, 1, 54, 0
2, 51120, Note_on_c, 1, 54, 127
2, 51720, Note_on_c, 1, 49, 127
2, 51720, Note_on_c, 1, 58, 127
2, 51720, Note_on_c, 1, 64, 127
2, 51720, Note_off_c, 1, 66, 0
2, 51720, Note_off_c, 1, 73, 0
2, 51720, Note_off_c, 1, 78, 0
2, 51760, Note_off_c, 1, 49, 0
2, 51760, Note_off_c, 1, 58, 0
2, 51760, Note_off_c, 1, 64, 0
2, 51760, Note_on_c, 1, 66, 127
2, 51760, Note_on_c, 1, 73, 127
2, 51760, Note_on_c, 1, 78, 127
2, 51920, Note_off_c, 1, 54, 0
2, 51920, Note_off_c, 1, 66, 0
2, 51920, Note_off_c, 1, 70, 0
2, 51920, Note_off_c, 1, 73, 0
2, 51920, Note_off_c, 1, 78, 0
2, 52640, Note_on_c, 1, 41, 127
2, 52640, Note_on_c, 1, 48, 127
2, 52640, Note_on_c, 1, 53, 127
2, 52640, Note_on_c, 1, 57, 127
2, 52640, Note_on_c, 1, 65, 127
2, 54160, Note_off_c, 1, 41, 0
2, 54160, Note_off_c, 1, 48, 0
2, 54160, Note_off_c, 1, 53, 0
2, 54160, Note_off_c, 1, 57, 0
2, 54160, Note_off_c, 1, 65, 0
2, 54720, Note_on_c, 1, 37, 127
2, 54720, Note_on_c, 1, 61, 127
2, 54920, Note_on_c, 1, 49, 127
2, 54960, Note_off_c, 1, 49, 0
2, 55480, Note_off_c, 1, 37, 0
2, 55480, Note_off_c, 1, 61, 0
2, 55560, Note_on_c, 1, 73, 127
2, 55560, Note_on_c, 1, 80, 127
2, 55560, Note_on_c, 1, 85, 127
2, 55600, Note_off_c, 1, 73, 0
2, 56080, Note_off_c, 1, 80, 0
2, 56120, Note_on_c, 1, 80, 127
2, 56520, Note_off_c, 1, 80, 0
2, 56520, Note_off_c, 1, 85, 0
2, 56600, Note_on_c, 1, 80, 127
2, 56680, Note_off_c, 1, 80, 0
2, 56720, Note_on_c, 1, 80, 127
2, 57400, Note_on_c, 1, 49, 127
2, 57760, Note_off_c, 1, 49, 0
2, 57840, Note_on_c, 1, 56, 127
2, 58160, Note_off_c, 1, 56, 0
2, 58240, Note_on_c, 1, 44, 127
2, 58480, Note_off_c, 1, 44, 0
2, 58840, Note_off_c, 1, 80, 0
2, 58880, Note_on_c, 1, 61, 127
2, 58880, Note_on_c, 1, 80, 127
2, 59040, Note_off_c, 1, 80, 0
2, 59080, Note_on_c, 1, 79, 127
2, 59240, Note_off_c, 1, 61, 0
2, 59240, Note_off_c, 1, 79, 0
2, 59280, Note_on_c, 1, 35, 127
2, 59280, Note_on_c, 1, 47, 127
2, 59280, Note_on_c, 1, 78, 127
2, 59280, Note_on_c, 1, 87, 127
2, 59440, Note_on_c, 1, 29, 127
2, 59440, Note_off_c, 1, 35, 0
2, 59440, Note_on_c, 1, 41, 127
2, 59440, Note_off_c, 1, 47, 0
2, 59440, Note_on_c, 1, 71, 127
2, 59440, Note_off_c, 1, 78, 0
2, 59440, Note_off_c, 1, 87, 0
2, 59480, Note_off_c, 1, 29, 0
2, 59480, Note_on_c, 1, 35, 127
2, 59480, Note_off_c, 1, 41, 0
2, 59480, Note_on_c, 1, 47, 127
2, 59480, Note_off_c, 1, 71, 0
2, 59480, Note_on_c, 1, 78, 127
2, 59480, Note_on_c, 1, 87, 127
2, 59520, Note_off_c, 1, 35, 0
2, 59520, Note_off_c, 1, 47, 0
2, 59520, Note_on_c, 1, 74, 127
2, 59520, Note_off_c, 1, 78, 0
2, 59520, Note_off_c, 1, 87, 0
2, 59520, Note_on_c, 1, 90, 127
2, 59560, Note_off_c, 1, 74, 0
2, 59560, Note_on_c, 1, 78, 127
2, 59560, Note_on_c, 1, 84, 127
2, 59560, Note_off_c, 1, 90, 0
2, 59600, Note_off_c, 1, 84, 0
2, 59600, Note_on_c, 1, 87, 127
2, 59640, Note_off_c, 1, 87, 0
2, 59680, Note_on_c, 1, 44, 127
2, 59680, Note_off_c, 1, 78, 0
2, 59680, Note_on_c, 1, 92, 127
2, 60080, Note_on_c, 1, 56, 127
2, 60080, Note_on_c, 1, 84, 127
2, 60080, Note_off_c, 1, 92, 0
2, 60280, Note_on_c, 1, 82, 127
2, 60280, Note_off_c, 1, 84, 0
2, 60320, Note_off_c, 1, 44, 0
2, 60320, Note_on_c, 1, 45, 127
2, 60320, Note_off_c, 1, 56, 0
2, 60320, Note_on_c, 1, 57, 127
2, 60320, Note_off_c, 1, 82, 0
2, 60320, Note_on_c, 1, 87, 127
2, 60360, Note_on_c, 1, 72, 127
2, 60360, Note_on_c, 1, 75, 127
2, 60360, Note_off_c, 1, 87, 0
2, 60400, Note_on_c, 1, 44, 127
2, 60400, Note_off_c, 1, 45, 0
2, 60400, Note_on_c, 1, 56, 127
2, 60400, Note_off_c, 1, 57, 0
2, 60400, Note_off_c, 1, 72, 0
2, 60400, Note_off_c, 1, 75, 0
2, 60400, Note_on_c, 1, 77, 127
2, 60440, Note_off_c, 1, 77, 0
2, 60440, Note_on_c, 1, 80, 127
2, 60480, Note_on_c, 1, 73, 127
2, 60480, Note_off_c, 1, 80, 0
2, 60520, Note_off_c, 1, 73, 0
2, 60520, Note_on_c, 1, 76, 127
2, 60560, Note_on_c, 1, 75, 127
2, 60560, Note_off_c, 1, 76, 0
2, 60680, Note_on_c, 1, 72, 127
2, 60680, Note_off_c, 1, 75, 0
2, 60720, Note_off_c, 1, 72, 0
2, 60720, Note_on_c, 1, 75, 127
2, 60800, Note_off_c, 1, 44, 0
2, 60800, Note_off_c, 1, 56, 0
2, 60800, Note_off_c, 1, 75, 0
2, 60840, Note_on_c, 1, 44, 127
2, 60840, Note_on_c, 1, 56, 127
2, 60840, Note_on_c, 1, 75, 127
2, 60880, Note_off_c, 1, 75, 0
2, 60920, Note_on_c, 1, 75, 127
2, 61680, Note_off_c, 1, 75, 0
2, 61680, Note_on_c, 1, 76, 127
2, 61720, Note_off_c, 1, 76, 0
2, 61760, Note_on_c, 1, 75, 127
2, 62520, Note_off_c, 1, 44, 0
2, 62520, Note_off_c, 1, 56, 0
2, 62520, Note_off_c, 1, 75, 0
2, 62560, Note_on_c, 1, 48, 127
2, 63000, Note_off_c, 1, 48, 0
2, 63040, Note_on_c, 1, 48, 127
2, 63400, Note_off_c, 1, 48, 0
2, 63440, Note_on_c, 1, 44, 127
2, 64000, Note_off_c, 1, 44, 0
2, 65640, Note_on_c, 1, 54, 127
2, 65640, Note_on_c, 1, 63, 127
2, 65640, Note_on_c, 1, 84, 127
2, 65640, Note_on_c, 1, 87, 127
2, 65680, Note_on_c, 1, 50, 127
2, 65680, Note_off_c, 1, 54, 0
2, 65680, Note_on_c, 1, 62, 127
2, 65680, Note_off_c, 1, 63, 0
2, 65680, Note_on_c, 1, 70, 127
2, 65680, Note_on_c, 1, 79, 127
2, 65680, Note_off_c, 1, 84, 0
2, 65680, Note_off_c, 1, 87, 0
2, 66000, Note_off_c, 1, 50, 0
2, 66000, Note_off_c, 1, 62, 0
2, 66000, Note_off_c, 1, 70, 0
2, 66000, Note_off_c, 1, 79, 0
2, 66080, Note_on_c, 1, 70, 127
2, 66080, Note_on_c, 1, 76, 127
2, 66080, Note_on_c, 1, 79, 127
2, 66080, Note_on_c, 1, 84, 127
2, 66080, Note_on_c, 1, 91, 127
2, 66080, Note_on_c, 1, 96, 127
2, 66440, Note_off_c, 1, 70, 0
2, 66440, Note_off_c, 1, 76, 0
2, 66440, Note_off_c, 1, 79, 0
2, 66440, Note_off_c, 1, 84, 0
2, 66440, Note_off_c, 1, 91, 0
2, 66440, Note_off_c, 1, 96, 0
2, 66480, Note_on_c, 1, 70, 127
2, 66480, Note_on_c, 1, 76, 127
2, 66480, Note_on_c, 1, 79, 127
2, 66480, Note_on_c, 1, 84, 127
2, 66480, Note_on_c, 1, 91, 127
2, 66480, Note_on_c, 1, 96, 127
2, 66800, Note_off_c, 1, 79, 0
2, 66800, Note_on_c, 1, 81, 127
2, 66800, Note_off_c, 1, 91, 0
2, 66800, Note_on_c, 1, 93, 127
2, 66840, Note_off_c, 1, 70, 0
2, 66840, Note_off_c, 1, 76, 0
2, 66840, Note_off_c, 1, 81, 0
2, 66840, Note_off_c, 1, 84, 0
2, 66840, Note_off_c, 1, 93, 0
2, 66840, Note_off_c, 1, 96, 0
2, 66920, Note_on_c, 1, 70, 127
2, 66920, Note_on_c, 1, 76, 127
2, 66920, Note_on_c, 1, 79, 127
2, 66920, Note_on_c, 1, 84, 127
2, 66920, Note_on_c, 1, 91, 127
2, 66920, Note_on_c, 1, 96, 127
2, 66960, Note_off_c, 1, 79, 0
2, 66960, Note_on_c, 1, 81, 127
2, 66960, Note_off_c, 1, 91, 0
2, 66960, Note_on_c, 1, 93, 127
2, 67120, Note_on_c, 1, 79, 127
2, 67120, Note_off_c, 1, 81, 0
2, 67120, Note_on_c, 1, 91, 127
2, 67120, Note_off_c, 1, 93, 0
2, 67160, Note_off_c, 1, 79, 0
2, 67160, Note_on_c, 1, 81, 127
2, 67160, Note_off_c, 1, 91, 0
2, 67160, Note_on_c, 1, 93, 127
2, 67280, Note_off_c, 1, 70, 0
2, 67280, Note_off_c, 1, 76, 0
2, 67280, Note_off_c, 1, 81, 0
2, 67280, Note_off_c, 1, 84, 0
2, 67280, Note_off_c, 1, 93, 0
2, 67280, Note_off_c, 1, 96, 0
2, 67320, Note_on_c, 1, 70, 127
2, 67320, Note_on_c, 1, 76, 127
2, 67320, Note_on_c, 1, 81, 127
2, 67320, Note_on_c, 1, 84, 127
2, 67320, Note_on_c, 1, 93, 127
2, 67320, Note_on_c, 1, 96, 127
2, 67640, Note_off_c, 1, 70, 0
2, 67640, Note_off_c, 1, 76, 0
2, 67640, Note_off_c, 1, 81, 0
2, 67640, Note_off_c, 1, 84, 0
2, 67640, Note_off_c, 1, 93, 0
2, 67640, Note_off_c, 1, 96, 0
2, 67680, Note_on_c, 1, 70, 127
2, 67680, Note_on_c, 1, 76, 127
2, 67680, Note_on_c, 1, 81, 127
2, 67680, Note_on_c, 1, 84, 127
2, 67680, Note_on_c, 1, 93, 127
2, 67680, Note_on_c, 1, 96, 127
2, 67720, Note_off_c, 1, 70, 0
2, 67720, Note_off_c, 1, 76, 0
2, 67720, Note_off_c, 1, 81, 0
2, 67720, Note_off_c, 1, 84, 0
2, 67720, Note_off_c, 1, 93, 0
2, 67720, Note_off_c, 1, 96, 0
2, 67760, Note_on_c, 1, 56, 127
2, 67760, Note_on_c, 1, 68, 127
2, 67760, Note_on_c, 1, 73, 127
2, 67760, Note_on_c, 1, 76, 127
2, 67760, Note_on_c, 1, 80, 127
2, 67760, Note_on_c, 1, 85, 127
2, 67800, Note_off_c, 1, 56, 0
2, 67800, Note_on_c, 1, 65, 127
2, 67800, Note_off_c, 1, 68, 0
2, 67800, Note_off_c, 1, 73, 0
2, 67800, Note_off_c, 1, 85, 0
2, 67800, Note_on_c, 1, 88, 127
2, 68120, Note_off_c, 1, 65, 0
2, 68120, Note_off_c, 1, 76, 0
2, 68120, Note_off_c, 1, 88, 0
2, 68360, Note_off_c, 1, 80, 0
2, 68360, Note_on_c, 1, 82, 127
2, 68400, Note_on_c, 1, 80, 127
2, 68400, Note_off_c, 1, 82, 0
2, 68560, Note_off_c, 1, 80, 0
2, 68600, Note_on_c, 1, 50, 127
2, 68600, Note_on_c, 1, 78, 127
2, 68600, Note_on_c, 1, 81, 127
2, 68960, Note_off_c, 1, 50, 0
2, 69040, Note_on_c, 1, 50, 127
2, 69200, Note_off_c, 1, 50, 0
2, 69440, Note_on_c, 1, 38, 127
2, 69440, Note_on_c, 1, 86, 127
2, 70000, Note_off_c, 1, 38, 0
2, 70000, Note_off_c, 1, 78, 0
2, 70000, Note_off_c, 1, 81, 0
2, 70000, Note_off_c, 1, 86, 0
2, 70040, Note_on_c, 1, 38, 127
2, 70040, Note_on_c, 1, 78, 127
2, 70040, Note_on_c, 1, 81, 127
2, 70040, Note_on_c, 1, 86, 127
2, 70080, Note_off_c, 1, 38, 0
2, 70120, Note_on_c, 1, 38, 127
2, 70280, Note_off_c, 1, 38, 0
2, 70280, Note_off_c, 1, 78, 0
2, 70280, Note_off_c, 1, 81, 0
2, 70280, Note_off_c, 1, 86, 0
2, 70320, Note_on_c, 1, 74, 127
2, 70320, Note_on_c, 1, 79, 127
2, 70320, Note_on_c, 1, 82, 127
2, 70320, Note_on_c, 1, 86, 127
2, 70680, Note_off_c, 1, 74, 0
2, 70680, Note_off_c, 1, 79, 0
2, 70680, Note_off_c, 1, 82, 0
2, 70680, Note_off_c, 1, 86, 0
2, 70720, Note_on_c, 1, 76, 127
2, 70720, Note_on_c, 1, 79, 127
2, 70720, Note_on_c, 1, 84, 127
2, 71160, Note_on_c, 1, 60, 127
2, 71520, Note_off_c, 1, 60, 0
2, 71520, Note_off_c, 1, 76, 0
2, 71520, Note_off_c, 1, 79, 0
2, 71520, Note_off_c, 1, 84, 0
2, 71600, Note_on_c, 1, 48, 127
2, 71920, Note_off_c, 1, 48, 0
2, 72000, Note_on_c, 1, 60, 127
2, 72000, Note_on_c, 1, 76, 127
2, 72000, Note_on_c, 1, 79, 127
2, 72000, Note_on_c, 1, 84, 127
2, 72280, Note_off_c, 1, 60, 0
2, 72280, Note_off_c, 1, 76, 0
2, 72280, Note_off_c, 1, 79, 0
2, 72280, Note_off_c, 1, 84, 0
2, 72320, Note_on_c, 1, 60, 127
2, 72320, Note_on_c, 1, 76, 127
2, 72320, Note_on_c, 1, 79, 127
2, 72320, Note_on_c, 1, 84, 127
2, 72400, Note_off_c, 1, 60, 0
2, 72440, Note_on_c, 1, 72, 127
2, 72800, Note_off_c, 1, 72, 0
2, 72800, Note_off_c, 1, 76, 0
2, 72800, Note_off_c, 1, 79, 0
2, 72800, Note_off_c, 1, 84, 0
2, 72840, Note_on_c, 1, 48, 127
2, 73200, Note_off_c, 1, 48, 0
2, 73280, Note_on_c, 1, 44, 127
2, 73280, Note_on_c, 1, 64, 127
2, 73280, Note_on_c, 1, 69, 127
2, 73280, Note_on_c, 1, 72, 127
2, 73440, Note_off_c, 1, 44, 0
2, 73440, Note_on_c, 1, 45, 127
2, 73800, Note_off_c, 1, 45, 0
2, 73840, Note_on_c, 1, 45, 127
2, 73960, Note_off_c, 1, 45, 0
2, 74000, Note_on_c, 1, 45, 127
2, 74040, Note_off_c, 1, 45, 0
2, 74040, Note_on_c, 1, 52, 127
2, 74040, Note_off_c, 1, 64, 0
2, 74040, Note_off_c, 1, 69, 0
2, 74040, Note_off_c, 1, 72, 0
2, 74080, Note_on_c, 1, 45, 127
2, 74080, Note_on_c, 1, 50, 127
2, 74080, Note_off_c, 1, 52, 0
2, 74280, Note_off_c, 1, 50, 0
2, 74440, Note_off_c, 1, 45, 0
2, 74480, Note_on_c, 1, 30, 127
2, 74480, Note_on_c, 1, 42, 127
2, 74720, Note_off_c, 1, 30, 0
2, 74720, Note_off_c, 1, 42, 0
2, 74720, Note_on_c, 1, 55, 127
2, 74720, Note_on_c, 1, 58, 127
2, 74720, Note_on_c, 1, 62, 127
2, 74720, Note_on_c, 1, 67, 127
2, 74720, Note_on_c, 1, 70, 127
2, 74760, Note_off_c, 1, 55, 0
2, 74760, Note_off_c, 1, 58, 0
2, 74760, Note_off_c, 1, 62, 0
2, 74760, Note_off_c, 1, 67, 0
2, 74760, Note_off_c, 1, 70, 0
2, 74800, Note_on_c, 1, 64, 127
2, 74800, Note_on_c, 1, 86, 127
2, 74800, Note_on_c, 1, 87, 127
2, 74800, Note_on_c, 1, 89, 127
2, 74800, Note_on_c, 1, 90, 127
2, 74840, Note_on_c, 1, 37, 127
2, 74840, Note_on_c, 1, 44, 127
2, 74840, Note_on_c, 1, 53, 127
2, 74840, Note_off_c, 1, 64, 0
2, 74840, Note_on_c, 1, 65, 127
2, 74840, Note_on_c, 1, 77, 127
2, 74840, Note_off_c, 1, 86, 0
2, 74840, Note_off_c, 1, 87, 0
2, 74840, Note_off_c, 1, 89, 0
2, 74840, Note_off_c, 1, 90, 0
2, 74880, Note_off_c, 1, 37, 0
2, 74880, Note_off_c, 1, 44, 0
2, 74880, Note_off_c, 1, 53, 0
2, 74880, Note_off_c, 1, 65, 0
2, 74880, Note_off_c, 1, 77, 0
2, 74920, Note_on_c, 1, 28, 127
2, 74920, Note_on_c, 1, 39, 127
2, 74920, Note_on_c, 1, 40, 127
2, 74920, Note_on_c, 1, 47, 127
2, 74920, Note_on_c, 1, 51, 127
2, 74920, Note_on_c, 1, 52, 127
2, 74920, Note_on_c, 1, 59, 127
2, 74920, Note_on_c, 1, 68, 127
2, 74920, Note_on_c, 1, 71, 127
2, 75320, Note_off_c, 1, 28, 0
2, 75320, Note_off_c, 1, 39, 0
2, 75320, Note_off_c, 1, 40, 0
2, 75320, Note_off_c, 1, 47, 0
2, 75320, Note_off_c, 1, 51, 0
2, 75320, Note_off_c, 1, 52, 0
2, 75320, Note_off_c, 1, 59, 0
2, 75320, Note_off_c, 1, 68, 0
2, 75320, Note_off_c, 1, 71, 0
2, 75360, Note_on_c, 1, 28, 127
2, 75360, Note_on_c, 1, 39, 127
2, 75360, Note_on_c, 1, 40, 127
2, 75360, Note_on_c, 1, 47, 127
2, 75360, Note_on_c, 1, 51, 127
2, 75360, Note_on_c, 1, 52, 127
2, 75360, Note_on_c, 1, 59, 127
2, 75360, Note_on_c, 1, 68, 127
2, 75360, Note_on_c, 1, 71, 127
2, 76120, Note_off_c, 1, 28, 0
2, 76120, Note_off_c, 1, 39, 0
2, 76120, Note_off_c, 1, 40, 0
2, 76120, Note_off_c, 1, 47, 0
2, 76120, Note_off_c, 1, 51, 0
2, 76120, Note_off_c, 1, 52, 0
2, 76120, Note_off_c, 1, 59, 0
2, 76120, Note_off_c, 1, 68, 0
2, 76120, Note_off_c, 1, 71, 0
2, 76200, Note_on_c, 1, 62, 127
2, 76200, Note_on_c, 1, 77, 127
2, 76200, Note_on_c, 1, 81, 127
2, 76200, Note_on_c, 1, 86, 127
2, 76960, Note_off_c, 1, 62, 0
2, 76960, Note_off_c, 1, 77, 0
2, 76960, Note_off_c, 1, 81, 0
2, 76960, Note_off_c, 1, 86, 0
2, 77080, Note_on_c, 1, 62, 127
2, 77080, Note_on_c, 1, 65, 127
2, 77080, Note_on_c, 1, 69, 127
2, 77080, Note_on_c, 1, 74, 127
2, 79280, Note_off_c, 1, 62, 0
2, 79280, Note_off_c, 1, 65, 0
2, 79280, Note_off_c, 1, 69, 0
2, 79280, Note_off_c, 1, 74, 0
2, 79320, Note_on_c, 1, 62, 127
2, 79320, Note_on_c, 1, 65, 127
2, 79320, Note_on_c, 1, 69, 127
2, 79320, Note_on_c, 1, 74, 127
2, 79560, Note_off_c, 1, 62, 0
2, 79560, Note_off_c, 1, 69, 0
2, 79560, Note_off_c, 1, 74, 0
2, 79600, Note_on_c, 1, 52, 127
2, 79600, Note_on_c, 1, 55, 127
2, 79600, Note_on_c, 1, 60, 127
2, 79600, Note_on_c, 1, 64, 127
2, 79600, Note_off_c, 1, 65, 0
2, 79600, Note_on_c, 1, 72, 127
2, 79600, Note_on_c, 1, 76, 127
2, 79600, Note_on_c, 1, 79, 127
2, 79600, Note_on_c, 1, 84, 127
2, 80400, Note_off_c, 1, 52, 0
2, 80400, Note_off_c, 1, 55, 0
2, 80400, Note_off_c, 1, 60, 0
2, 80400, Note_off_c, 1, 64, 0
2, 80400, Note_off_c, 1, 72, 0
2, 80400, Note_off_c, 1, 76, 0
2, 80400, Note_off_c, 1, 79, 0
2, 80400, Note_off_c, 1, 84, 0
2, 80440, Note_on_c, 1, 52, 127
2, 80440, Note_on_c, 1, 55, 127
2, 80440, Note_on_c, 1, 60, 127
2, 80440, Note_on_c, 1, 64, 127
2, 80440, Note_on_c, 1, 72, 127
2, 80440, Note_on_c, 1, 76, 127
2, 80440, Note_on_c, 1, 79, 127
2, 80440, Note_on_c, 1, 84, 127
2, 81200, Note_off_c, 1, 52, 0
2, 81200, Note_off_c, 1, 55, 0
2, 81200, Note_off_c, 1, 60, 0
2, 81200, Note_off_c, 1, 64, 0
2, 81200, Note_off_c, 1, 72, 0
2, 81200, Note_off_c, 1, 76, 0
2, 81200, Note_off_c, 1, 79, 0
2, 81200, Note_off_c, 1, 84, 0
2, 81240, Note_on_c, 1, 52, 127
2, 81240, Note_on_c, 1, 55, 127
2, 81240, Note_on_c, 1, 60, 127
2, 81240, Note_on_c, 1, 64, 127
2, 81240, Note_on_c, 1, 72, 127
2, 81240, Note_on_c, 1, 76, 127
2, 81240, Note_on_c, 1, 79, 127
2, 81240, Note_on_c, 1, 84, 127
2, 81640, Note_off_c, 1, 52, 0
2, 81640, Note_off_c, 1, 55, 0
2, 81640, Note_off_c, 1, 60, 0
2, 81640, Note_off_c, 1, 64, 0
2, 81640, Note_off_c, 1, 72, 0
2, 81640, Note_off_c, 1, 76, 0
2, 81640, Note_off_c, 1, 79, 0
2, 81640, Note_off_c, 1, 84, 0
2, 81680, Note_on_c, 1, 52, 127
2, 81680, Note_on_c, 1, 55, 127
2, 81680, Note_on_c, 1, 60, 127
2, 81680, Note_on_c, 1, 64, 127
2, 81680, Note_on_c, 1, 72, 127
2, 81680, Note_on_c, 1, 76, 127
2, 81680, Note_on_c, 1, 79, 127
2, 81680, Note_on_c, 1, 84, 127
2, 82080, Note_off_c, 1, 52, 0
2, 82080, Note_off_c, 1, 55, 0
2, 82080, Note_off_c, 1, 60, 0
2, 82080, Note_off_c, 1, 64, 0
2, 82080, Note_off_c, 1, 72, 0
2, 82080, Note_off_c, 1, 76, 0
2, 82080, Note_off_c, 1, 79, 0
2, 82080, Note_off_c, 1, 84, 0
2, 82120, Note_on_c, 1, 53, 127
2, 82120, Note_on_c, 1, 57, 127
2, 82120, Note_on_c, 1, 65, 127
2, 82120, Note_on_c, 1, 72, 127
2, 83760, Note_off_c, 1, 53, 0
2, 83760, Note_off_c, 1, 57, 0
2, 83760, Note_off_c, 1, 65, 0
2, 83760, Note_off_c, 1, 72, 0
2, 83840, Note_on_c, 1, 53, 127
2, 83840, Note_on_c, 1, 57, 127
2, 83840, Note_on_c, 1, 60, 127
2, 83840, Note_on_c, 1, 72, 127
2, 84640, Note_on_c, 1, 65, 127
2, 84640, Note_on_c, 1, 69, 127
2, 84640, Note_off_c, 1, 72, 0
2, 84680, Note_off_c, 1, 65, 0
2, 84680, Note_off_c, 1, 69, 0
2, 84680, Note_on_c, 1, 77, 127
2, 85040, Note_off_c, 1, 77, 0
2, 85040, Note_on_c, 1, 82, 127
2, 85080, Note_off_c, 1, 82, 0
2, 85120, Note_on_c, 1, 84, 127
2, 85480, Note_on_c, 1, 36, 127
2, 85480, Note_on_c, 1, 44, 127
2, 85480, Note_on_c, 1, 48, 127
2, 85480, Note_off_c, 1, 53, 0
2, 85480, Note_off_c, 1, 57, 0
2, 85480, Note_off_c, 1, 60, 0
2, 85480, Note_on_c, 1, 66, 127
2, 85480, Note_on_c, 1, 68, 127
2, 85480, Note_off_c, 1, 84, 0
2, 85520, Note_off_c, 1, 36, 0
2, 85520, Note_off_c, 1, 44, 0
2, 85520, Note_off_c, 1, 48, 0
2, 85520, Note_on_c, 1, 65, 127
2, 85520, Note_off_c, 1, 66, 0
2, 85520, Note_off_c, 1, 68, 0
2, 85520, Note_on_c, 1, 69, 127
2, 85520, Note_on_c, 1, 75, 127
2, 85520, Note_on_c, 1, 84, 127
2, 85880, Note_off_c, 1, 65, 0
2, 85880, Note_off_c, 1, 69, 0
2, 85880, Note_off_c, 1, 75, 0
2, 85880, Note_off_c, 1, 84, 0
2, 85920, Note_on_c, 1, 65, 127
2, 85920, Note_on_c, 1, 72, 127
2, 85920, Note_on_c, 1, 75, 127
2, 85920, Note_on_c, 1, 84, 127
2, 85960, Note_on_c, 1, 69, 127
2, 85960, Note_off_c, 1, 72, 0
2, 86200, Note_off_c, 1, 69, 0
2, 86200, Note_on_c, 1, 72, 127
2, 86240, Note_on_c, 1, 69, 127
2, 86240, Note_off_c, 1, 72, 0
2, 86320, Note_off_c, 1, 69, 0
2, 86320, Note_on_c, 1, 72, 127
2, 86360, Note_off_c, 1, 65, 0
2, 86360, Note_off_c, 1, 72, 0
2, 86360, Note_off_c, 1, 75, 0
2, 86360, Note_off_c, 1, 84, 0
2, 86400, Note_on_c, 1, 74, 127
2, 86400, Note_on_c, 1, 76, 127
2, 86400, Note_on_c, 1, 82, 127
2, 86400, Note_on_c, 1, 86, 127
2, 87560, Note_off_c, 1, 74, 0
2, 87560, Note_off_c, 1, 76, 0
2, 87560, Note_off_c, 1, 82, 0
2, 87560, Note_off_c, 1, 86, 0
2, 87600, Note_on_c, 1, 69, 127
2, 87600, Note_on_c, 1, 81, 127
2, 88240, Note_off_c, 1, 69, 0
2, 88240, Note_off_c, 1, 81, 0
2, 88280, Note_on_c, 1, 69, 127
2, 88280, Note_on_c, 1, 81, 127
2, 88400, Note_off_c, 1, 69, 0
2, 88400, Note_off_c, 1, 81, 0
2, 88440, Note_on_c, 1, 66, 127
2, 88440, Note_on_c, 1, 78, 127
2, 89560, Note_off_c, 1, 66, 0
2, 89560, Note_off_c, 1, 78, 0
2, 89600, Note_on_c, 1, 64, 127
2, 89600, Note_on_c, 1, 76, 127
2, 90440, Note_off_c, 1, 64, 0
2, 90440, Note_off_c, 1, 76, 0
2, 90480, Note_on_c, 1, 64, 127
2, 90480, Note_on_c, 1, 76, 127
2, 90800, Note_off_c, 1, 64, 0
2, 90800, Note_off_c, 1, 76, 0
2, 90840, Note_on_c, 1, 61, 127
2, 90840, Note_on_c, 1, 73, 127
2, 91560, Note_off_c, 1, 61, 0
2, 91560, Note_off_c, 1, 73, 0
2, 91600, Note_on_c, 1, 58, 127
2, 91600, Note_on_c, 1, 70, 127
2, 92360, Note_off_c, 1, 58, 0
2, 92360, Note_off_c, 1, 70, 0
2, 92400, Note_on_c, 1, 52, 127
2, 92400, Note_on_c, 1, 57, 127
2, 92400, Note_on_c, 1, 60, 127
2, 92400, Note_on_c, 1, 64, 127
2, 92720, Note_off_c, 1, 52, 0
2, 92720, Note_off_c, 1, 57, 0
2, 92720, Note_off_c, 1, 60, 0
2, 92720, Note_off_c, 1, 64, 0
2, 92760, Note_on_c, 1, 52, 127
2, 92760, Note_on_c, 1, 57, 127
2, 92760, Note_on_c, 1, 60, 127
2, 92760, Note_on_c, 1, 64, 127
2, 94000, Note_off_c, 1, 52, 0
2, 94000, Note_off_c, 1, 57, 0
2, 94000, Note_off_c, 1, 60, 0
2, 94000, Note_off_c, 1, 64, 0
2, 94040, Note_on_c, 1, 60, 127
2, 94040, Note_on_c, 1, 64, 127
2, 94040, Note_on_c, 1, 72, 127
2, 94040, Note_on_c, 1, 84, 127
2, 94800, Note_on_c, 1, 53, 127
2, 94800, Note_off_c, 1, 64, 0
2, 94800, Note_off_c, 1, 72, 0
2, 94800, Note_off_c, 1, 84, 0
2, 94840, Note_off_c, 1, 53, 0
2, 94840, Note_off_c, 1, 60, 0
2, 94880, Note_on_c, 1, 58, 127
2, 94880, Note_on_c, 1, 64, 127
2, 94880, Note_on_c, 1, 76, 127
2, 94880, Note_on_c, 1, 88, 127
2, 95200, Note_off_c, 1, 58, 0
2, 95200, Note_off_c, 1, 64, 0
2, 95200, Note_off_c, 1, 76, 0
2, 95200, Note_off_c, 1, 88, 0
2, 95240, Note_on_c, 1, 58, 127
2, 95240, Note_on_c, 1, 66, 127
2, 95240, Note_on_c, 1, 76, 127
2, 96000, Note_off_c, 1, 58, 0
2, 96000, Note_off_c, 1, 66, 0
2, 96040, Note_off_c, 1, 76, 0
2, 96080, Note_on_c, 1, 58, 127
2, 96080, Note_on_c, 1, 66, 127
2, 96080, Note_on_c, 1, 78, 127
2, 96840, Note_off_c, 1, 58, 0
2, 96840, Note_off_c, 1, 66, 0
2, 96840, Note_off_c, 1, 78, 0
2, 96920, Note_on_c, 1, 51, 127
2, 96920, Note_on_c, 1, 53, 127
2, 96920, Note_on_c, 1, 57, 127
2, 96920, Note_on_c, 1, 84, 127
2, 97080, Note_off_c, 1, 84, 0
2, 97120, Note_off_c, 1, 51, 0
2, 97120, Note_off_c, 1, 53, 0
2, 97120, Note_off_c, 1, 57, 0
2, 97120, Note_on_c, 1, 59, 127
2, 97120, Note_on_c, 1, 64, 127
2, 97120, Note_on_c, 1, 67, 127
2, 97120, Note_on_c, 1, 73, 127
2, 97200, Note_off_c, 1, 64, 0
2, 97200, Note_on_c, 1, 66, 127
2, 97200, Note_off_c, 1, 67, 0
2, 97200, Note_on_c, 1, 69, 127
2, 97200, Note_on_c, 1, 71, 127
2, 97200, Note_off_c, 1, 73, 0
2, 97200, Note_on_c, 1, 75, 127
2, 97240, Note_on_c, 1, 51, 127
2, 97240, Note_on_c, 1, 54, 127
2, 97240, Note_on_c, 1, 63, 127
2, 97240, Note_off_c, 1, 69, 0
2, 97240, Note_off_c, 1, 75, 0
2, 97240, Note_on_c, 1, 78, 127
2, 97280, Note_on_c, 1, 33, 127
2, 97280, Note_on_c, 1, 40, 127
2, 97280, Note_on_c, 1, 45, 127
2, 97280, Note_off_c, 1, 51, 0
2, 97280, Note_off_c, 1, 54, 0
2, 97280, Note_on_c, 1, 57, 127
2, 97280, Note_off_c, 1, 59, 0
2, 97280, Note_on_c, 1, 60, 127
2, 97280, Note_off_c, 1, 63, 0
2, 97280, Note_on_c, 1, 64, 127
2, 97280, Note_off_c, 1, 66, 0
2, 97280, Note_on_c, 1, 69, 127
2, 97280, Note_off_c, 1, 71, 0
2, 97280, Note_off_c, 1, 78, 0
2, 97320, Note_off_c, 1, 33, 0
2, 97320, Note_off_c, 1, 40, 0
2, 97320, Note_on_c, 1, 44, 127
2, 97320, Note_off_c, 1, 45, 0
2, 97320, Note_off_c, 1, 57, 0
2, 97320, Note_off_c, 1, 60, 0
2, 97320, Note_on_c, 1, 61, 127
2, 97320, Note_off_c, 1, 64, 0
2, 97320, Note_on_c, 1, 67, 127
2, 97320, Note_off_c, 1, 69, 0
2, 97320, Note_on_c, 1, 77, 127
2, 97480, Note_on_c, 1, 41, 127
2, 97480, Note_off_c, 1, 44, 0
2, 97480, Note_on_c, 1, 48, 127
2, 97480, Note_on_c, 1, 58, 127
2, 97480, Note_on_c, 1, 60, 127
2, 97480, Note_off_c, 1, 61, 0
2, 97480, Note_on_c, 1, 63, 127
2, 97480, Note_off_c, 1, 77, 0
2, 97520, Note_on_c, 1, 29, 127
2, 97520, Note_off_c, 1, 41, 0
2, 97520, Note_off_c, 1, 48, 0
2, 97520, Note_on_c, 1, 49, 127
2, 97520, Note_off_c, 1, 58, 0
2, 97520, Note_off_c, 1, 60, 0
2, 97520, Note_off_c, 1, 63, 0
2, 97520, Note_off_c, 1, 67, 0
2, 97560, Note_off_c, 1, 29, 0
2, 97560, Note_off_c, 1, 49, 0
2, 97560, Note_on_c, 1, 54, 127
2, 97560, Note_on_c, 1, 78, 127
2, 97560, Note_on_c, 1, 90, 127
2, 97560, Note_on_c, 1, 93, 127
2, 97600, Note_on_c, 1, 29, 127
2, 97600, Note_on_c, 1, 41, 127
2, 97600, Note_off_c, 1, 54, 0
2, 97600, Note_on_c, 1, 62, 127
2, 97600, Note_on_c, 1, 74, 127
2, 97600, Note_off_c, 1, 78, 0
2, 97600, Note_off_c, 1, 90, 0
2, 97600, Note_off_c, 1, 93, 0
2, 97640, Note_off_c, 1, 29, 0
2, 97640, Note_off_c, 1, 41, 0
2, 97640, Note_off_c, 1, 62, 0
2, 97640, Note_on_c, 1, 64, 127
2, 97640, Note_on_c, 1, 66, 127
2, 97640, Note_off_c, 1, 74, 0
2, 97640, Note_on_c, 1, 76, 127
2, 97640, Note_on_c, 1, 78, 127
2, 97680, Note_on_c, 1, 54, 127
2, 97680, Note_on_c, 1, 62, 127
2, 97680, Note_off_c, 1, 66, 0
2, 97680, Note_off_c, 1, 76, 0
2, 97680, Note_off_c, 1, 78, 0
2, 98040, Note_off_c, 1, 54, 0
2, 98040, Note_off_c, 1, 62, 0
2, 98040, Note_off_c, 1, 64, 0
2, 98080, Note_on_c, 1, 53, 127
2, 98080, Note_on_c, 1, 57, 127
2, 98080, Note_on_c, 1, 61, 127
2, 98080, Note_on_c, 1, 93, 127
2, 98080, Note_on_c, 1, 97, 127
2, 98120, Note_on_c, 1, 42, 127
2, 98120, Note_off_c, 1, 53, 0
2, 98120, Note_on_c, 1, 54, 127
2, 98120, Note_off_c, 1, 57, 0
2, 98120, Note_off_c, 1, 61, 0
2, 98120, Note_on_c, 1, 83, 127
2, 98120, Note_on_c, 1, 87, 127
2, 98120, Note_on_c, 1, 90, 127
2, 98120, Note_off_c, 1, 93, 0
2, 98120, Note_on_c, 1, 95, 127
2, 98120, Note_off_c, 1, 97, 0
2, 98800, Note_off_c, 1, 42, 0
2, 98800, Note_off_c, 1, 54, 0
2, 98800, Note_off_c, 1, 83, 0
2, 98800, Note_off_c, 1, 87, 0
2, 98800, Note_off_c, 1, 90, 0
2, 98800, Note_off_c, 1, 95, 0
2, 98880, Note_on_c, 1, 42, 127
2, 98880, Note_on_c, 1, 54, 127
2, 98880, Note_on_c, 1, 83, 127
2, 98880, Note_on_c, 1, 87, 127
2, 98880, Note_on_c, 1, 90, 127
2, 98880, Note_on_c, 1, 95, 127
2, 99280, Note_off_c, 1, 42, 0
2, 99280, Note_off_c, 1, 54, 0
2, 99280, Note_off_c, 1, 83, 0
2, 99280, Note_off_c, 1, 87, 0
2, 99280, Note_off_c, 1, 90, 0
2, 99280, Note_off_c, 1, 95, 0
2, 99320, Note_on_c, 1, 42, 127
2, 99320, Note_on_c, 1, 54, 127
2, 99320, Note_on_c, 1, 83, 127
2, 99320, Note_on_c, 1, 87, 127
2, 99320, Note_on_c, 1, 90, 127
2, 99320, Note_on_c, 1, 95, 127
2, 99440, Note_off_c, 1, 42, 0
2, 99440, Note_off_c, 1, 54, 0
2, 99440, Note_off_c, 1, 83, 0
2, 99440, Note_off_c, 1, 87, 0
2, 99440, Note_off_c, 1, 90, 0
2, 99440, Note_off_c, 1, 95, 0
2, 99920, Note_on_c, 1, 71, 127
2, 99920, Note_on_c, 1, 75, 127
2, 99920, Note_on_c, 1, 83, 127
2, 99920, Note_on_c, 1, 87, 127
2, 101040, Note_on_c, 1, 47, 127
2, 101040, Note_on_c, 1, 59, 127
2, 101040, Note_off_c, 1, 71, 0
2, 101040, Note_off_c, 1, 75, 0
2, 101040, Note_off_c, 1, 83, 0
2, 101040, Note_off_c, 1, 87, 0
2, 101080, Note_off_c, 1, 59, 0
2, 101280, Note_on_c, 1, 35, 127
2, 101400, Note_off_c, 1, 35, 0
2, 101440, Note_off_c, 1, 47, 0
2, 101560, Note_on_c, 1, 35, 127
2, 101560, Note_on_c, 1, 47, 127
2, 103520, Note_off_c, 1, 35, 0
2, 103520, Note_off_c, 1, 47, 0
2, 103600, Note_on_c, 1, 40, 127
2, 103600, Note_on_c, 1, 52, 127
2, 103600, Note_on_c, 1, 71, 127
2, 103600, Note_on_c, 1, 79, 127
2, 103600, Note_on_c, 1, 83, 127
2, 104760, Note_off_c, 1, 40, 0
2, 104760, Note_off_c, 1, 52, 0
2, 104760, Note_on_c, 1, 59, 127
2, 104760, Note_off_c, 1, 79, 0
2, 104760, Note_off_c, 1, 83, 0
2, 104800, Note_on_c, 1, 40, 127
2, 104800, Note_on_c, 1, 52, 127
2, 104800, Note_off_c, 1, 59, 0
2, 104800, Note_on_c, 1, 79, 127
2, 104800, Note_on_c, 1, 83, 127
2, 105560, Note_off_c, 1, 52, 0
2, 105560, Note_off_c, 1, 71, 0
2, 105560, Note_off_c, 1, 79, 0
2, 105560, Note_off_c, 1, 83, 0
2, 105600, Note_off_c, 1, 40, 0
2, 105640, Note_on_c, 1, 40, 127
2, 105640, Note_on_c, 1, 52, 127
2, 105640, Note_on_c, 1, 71, 127
2, 105640, Note_on_c, 1, 79, 127
2, 105640, Note_on_c, 1, 83, 127
2, 107840, Note_off_c, 1, 40, 0
2, 107840, Note_off_c, 1, 52, 0
2, 107840, Note_off_c, 1, 71, 0
2, 107840, Note_off_c, 1, 79, 0
2, 107840, Note_off_c, 1, 83, 0
2, 107880, Note_on_c, 1, 40, 127
2, 107880, Note_on_c, 1, 52, 127
2, 107880, Note_on_c, 1, 71, 127
2, 107880, Note_on_c, 1, 79, 127
2, 107880, Note_on_c, 1, 83, 127
2, 109240, Note_off_c, 1, 52, 0
2, 109240, Note_off_c, 1, 71, 0
2, 109240, Note_off_c, 1, 79, 0
2, 109240, Note_off_c, 1, 83, 0
2, 109280, Note_on_c, 1, 52, 127
2, 109280, Note_on_c, 1, 71, 127
2, 109280, Note_on_c, 1, 79, 127
2, 109280, Note_on_c, 1, 83, 127
2, 110200, Note_off_c, 1, 40, 0
2, 110200, Note_off_c, 1, 52, 0
2, 110200, Note_off_c, 1, 71, 0
2, 110200, Note_off_c, 1, 79, 0
2, 110200, Note_off_c, 1, 83, 0
2, 110240, Note_on_c, 1, 40, 127
2, 110240, Note_on_c, 1, 52, 127
2, 110240, Note_on_c, 1, 71, 127
2, 110240, Note_on_c, 1, 79, 127
2, 110240, Note_on_c, 1, 83, 127
2, 112720, Note_off_c, 1, 40, 0
2, 112720, Note_off_c, 1, 52, 0
2, 112720, Note_off_c, 1, 71, 0
2, 112720, Note_off_c, 1, 79, 0
2, 112720, Note_off_c, 1, 83, 0
2, 112760, Note_on_c, 1, 40, 127
2, 112760, Note_on_c, 1, 52, 127
2, 112760, Note_on_c, 1, 71, 127
2, 112760, Note_on_c, 1, 79, 127
2, 112760, Note_on_c, 1, 83, 127
2, 113320, Note_off_c, 1, 40, 0
2, 113320, Note_off_c, 1, 52, 0
2, 113320, Note_off_c, 1, 71, 0
2, 113320, Note_off_c, 1, 79, 0
2, 113320, Note_off_c, 1, 83, 0
2, 113360, Note_on_c, 1, 40, 127
2, 113360, Note_on_c, 1, 52, 127
2, 113360, Note_on_c, 1, 71, 127
2, 113360, Note_on_c, 1, 79, 127
2, 113360, Note_on_c, 1, 83, 127
2, 114920, Note_off_c, 1, 40, 0
2, 114920, Note_on_c, 1, 41, 127
2, 114920, Note_off_c, 1, 52, 0
2, 114920, Note_off_c, 1, 71, 0
2, 114920, Note_off_c, 1, 79, 0
2, 114920, Note_off_c, 1, 83, 0
2, 114960, Note_on_c, 1, 40, 127
2, 114960, Note_off_c, 1, 41, 0
2, 114960, Note_on_c, 1, 52, 127
2, 114960, Note_on_c, 1, 71, 127
2, 114960, Note_on_c, 1, 79, 127
2, 114960, Note_on_c, 1, 83, 127
2, 115160, Note_off_c, 1, 40, 0
2, 115160, Note_off_c, 1, 52, 0
2, 115160, Note_off_c, 1, 71, 0
2, 115160, Note_off_c, 1, 79, 0
2, 115160, Note_off_c, 1, 83, 0
2, 115200, Note_on_c, 1, 40, 127
2, 115200, Note_on_c, 1, 52, 127
2, 115200, Note_on_c, 1, 71, 127
2, 115200, Note_on_c, 1, 79, 127
2, 115200, Note_on_c, 1, 83, 127
2, 117280, Note_off_c, 1, 40, 0
2, 117280, Note_off_c, 1, 52, 0
2, 117280, Note_off_c, 1, 71, 0
2, 117280, Note_off_c, 1, 79, 0
2, 117280, Note_off_c, 1, 83, 0
2, 117320, Note_on_c, 1, 40, 127
2, 117320, Note_on_c, 1, 52, 127
2, 117320, Note_on_c, 1, 71, 127
2, 117320, Note_on_c, 1, 79, 127
2, 117320, Note_on_c, 1, 83, 127
2, 117800, Note_off_c, 1, 52, 0
2, 117800, Note_off_c, 1, 71, 0
2, 117800, Note_off_c, 1, 79, 0
2, 117800, Note_off_c, 1, 83, 0
2, 117840, Note_off_c, 1, 40, 0
2, 117840, Note_on_c, 1, 55, 127
2, 117840, Note_on_c, 1, 62, 127
2, 117840, Note_on_c, 1, 71, 127
2, 117840, Note_on_c, 1, 79, 127
2, 117840, Note_on_c, 1, 91, 127
2, 119000, Note_off_c, 1, 55, 0
2, 119000, Note_off_c, 1, 62, 0
2, 119000, Note_off_c, 1, 71, 0
2, 119000, Note_off_c, 1, 79, 0
2, 119000, Note_off_c, 1, 91, 0
2, 119040, Note_on_c, 1, 38, 127
2, 119040, Note_on_c, 1, 50, 127
2, 119040, Note_on_c, 1, 86, 127
2, 119040, Note_on_c, 1, 90, 127
2, 119040, Note_on_c, 1, 98, 127
2, 119400, Note_off_c, 1, 38, 0
2, 119400, Note_off_c, 1, 50, 0
2, 119400, Note_off_c, 1, 86, 0
2, 119400, Note_off_c, 1, 90, 0
2, 119400, Note_off_c, 1, 98, 0
2, 119440, Note_on_c, 1, 38, 127
2, 119440, Note_on_c, 1, 50, 127
2, 119440, Note_on_c, 1, 86, 127
2, 119440, Note_on_c, 1, 90, 127
2, 119440, Note_on_c, 1, 98, 127
2, 119800, Note_off_c, 1, 38, 0
2, 119800, Note_off_c, 1, 50, 0
2, 119800, Note_on_c, 1, 72, 127
2, 119800, Note_on_c, 1, 77, 127
2, 119800, Note_off_c, 1, 86, 0
2, 119800, Note_on_c, 1, 89, 127
2, 119800, Note_off_c, 1, 90, 0
2, 119800, Note_on_c, 1, 93, 127
2, 119800, Note_off_c, 1, 98, 0
2, 119840, Note_on_c, 1, 36, 127
2, 119840, Note_on_c, 1, 48, 127
2, 119840, Note_off_c, 1, 72, 0
2, 119840, Note_off_c, 1, 77, 0
2, 119840, Note_off_c, 1, 89, 0
2, 119840, Note_off_c, 1, 93, 0
2, 119880, Note_off_c, 1, 36, 0
2, 119880, Note_on_c, 1, 38, 127
2, 119880, Note_off_c, 1, 48, 0
2, 119880, Note_on_c, 1, 50, 127
2, 119880, Note_on_c, 1, 65, 127
2, 119880, Note_on_c, 1, 69, 127
2, 119880, Note_on_c, 1, 71, 127
2, 120000, Note_off_c, 1, 38, 0
2, 120000, Note_off_c, 1, 50, 0
2, 120000, Note_off_c, 1, 65, 0
2, 120000, Note_off_c, 1, 69, 0
2, 120000, Note_off_c, 1, 71, 0
2, 120040, End_track
3, 0, Start_track
3, 0, Title_t, "MIDI"
3, 1536, End_track
0, 0, End_of_file
