0, 0, Header, 1, 3, 192
1, 0, Start_track
1, 0, Time_signature, 4, 2, 24, 8
1, 0, Tempo, 500000
1, 120040, End_track
2, 0, Start_track
2, 0, Text_t, "random instrument: random person i dunno whatev"
2, 0, Title_t, "Track 1"
2, 0, Note_on_c, 1, 40, 127
2, 0, Note_on_c, 1, 48, 127
2, 0, Note_on_c, 1, 56, 127
2, 0, Note_on_c, 1, 60, 127
2, 280, Note_off_c, 1, 40, 0
2, 280, Note_off_c, 1, 48, 0
2, 280, Note_off_c, 1, 56, 0
2, 280, Note_off_c, 1, 60, 0
2, 320, Note_on_c, 1, 45, 127
2, 320, Note_on_c, 1, 71, 127
2, 320, Note_on_c, 1, 79, 127
2, 480, Note_off_c, 1, 45, 0
2, 480, Note_off_c, 1, 71, 0
2, 480, Note_on_c, 1, 76, 127
2, 480, Note_off_c, 1, 79, 0
2, 520, Note_off_c, 1, 76, 0
2, 560, Note_on_c, 1, 45, 127
2, 560, Note_on_c, 1, 71, 127
2, 560, Note_on_c, 1, 79, 127
2, 680, Note_off_c, 1, 45, 0
2, 680, Note_off_c, 1, 71, 0
2, 680, Note_off_c, 1, 79, 0
2, 720, Note_on_c, 1, 33, 127
2, 720, Note_on_c, 1, 69, 127
2, 720, Note_on_c, 1, 81, 127
2, 1080, Note_off_c, 1, 33, 0
2, 1080, Note_off_c, 1, 69, 0
2, 1080, Note_off_c, 1, 81, 0
2, 1120, Note_on_c, 1, 45, 127
2, 1120, Note_on_c, 1, 76, 127
2, 1120, Note_on_c, 1, 79, 127
2, 1440, Note_off_c, 1, 45, 0
2, 1480, Note_on_c, 1, 45, 127
2, 1640, Note_off_c, 1, 45, 0
2, 1840, Note_off_c, 1, 76, 0
2, 1840, Note_off_c, 1, 79, 0
2, 1880, Note_on_c, 1, 45, 127
2, 1880, Note_on_c, 1, 76, 127
2, 1880, Note_on_c, 1, 79, 127
2, 2200, Note_off_c, 1, 45, 0
2, 2200, Note_off_c, 1, 76, 0
2, 2200, Note_off_c, 1, 79, 0
2, 2240, Note_on_c, 1, 45, 127
2, 2240, Note_on_c, 1, 78, 127
2, 2240, Note_on_c, 1, 81, 127
2, 2400, Note_off_c, 1, 78, 0
2, 2400, Note_off_c, 1, 81, 0
2, 2440, Note_on_c, 1, 78, 127
2, 2440, Note_on_c, 1, 81, 127
2, 2520, Note_off_c, 1, 78, 0
2, 2520, Note_off_c, 1, 81, 0
2, 2640, Note_off_c, 1, 45, 0
2, 2680, Note_on_c, 1, 45, 127
2, 2680, Note_on_c, 1, 78, 127
2, 2680, Note_on_c, 1, 81, 127
2, 2800, Note_off_c, 1, 78, 0
2, 2800, Note_off_c, 1, 81, 0
2, 2840, Note_off_c, 1, 45, 0
2, 2840, Note_on_c, 1, 50, 127
2, 2840, Note_on_c, 1, 78, 127
2, 2840, Note_on_c, 1, 81, 127
2, 3000, Note_off_c, 1, 50, 0
2, 3000, Note_off_c, 1, 78, 0
2, 3000, Note_off_c, 1, 81, 0
2, 3040, Note_on_c, 1, 45, 127
2, 3040, Note_on_c, 1, 76, 127
2, 3040, Note_on_c, 1, 79, 127
2, 3200, Note_off_c, 1, 45, 0
2, 3400, Note_on_c, 1, 52, 127
2, 3400, Note_on_c, 1, 61, 127
2, 3760, Note_off_c, 1, 52, 0
2, 3760, Note_off_c, 1, 61, 0
2, 3760, Note_off_c, 1, 76, 0
2, 3760, Note_off_c, 1, 79, 0
2, 3800, Note_on_c, 1, 57, 127
2, 3800, Note_on_c, 1, 62, 127
2, 3800, Note_on_c, 1, 69, 127
2, 3800, Note_on_c, 1, 74, 127
2, 3800, Note_on_c, 1, 78, 127
2, 4160, Note_on_c, 1, 50, 127
2, 4160, Note_off_c, 1, 57, 0
2, 4160, Note_off_c, 1, 62, 0
2, 4160, Note_off_c, 1, 69, 0
2, 4160, Note_off_c, 1, 74, 0
2, 4160, Note_off_c, 1, 78, 0
2, 4200, Note_off_c, 1, 50, 0
2, 4200, Note_on_c, 1, 57, 127
2, 4200, Note_on_c, 1, 62, 127
2, 4200, Note_on_c, 1, 69, 127
2, 4200, Note_on_c, 1, 74, 127
2, 4200, Note_on_c, 1, 78, 127
2, 4560, Note_off_c, 1, 57, 0
2, 4560, Note_off_c, 1, 62, 0
2, 4560, Note_off_c, 1, 69, 0
2, 4560, Note_off_c, 1, 74, 0
2, 4560, Note_off_c, 1, 78, 0
2, 4600, Note_on_c, 1, 50, 127
2, 4600, Note_on_c, 1, 59, 127
2, 4600, Note_on_c, 1, 74, 127
2, 4600, Note_on_c, 1, 79, 127
2, 4920, Note_off_c, 1, 50, 0
2, 4920, Note_off_c, 1, 59, 0
2, 4920, Note_off_c, 1, 74, 0
2, 4920, Note_off_c, 1, 79, 0
2, 5000, Note_on_c, 1, 45, 127
2, 5000, Note_on_c, 1, 52, 127
2, 5000, Note_on_c, 1, 73, 127
2, 5000, Note_on_c, 1, 76, 127
2, 5000, Note_on_c, 1, 81, 127
2, 5360, Note_off_c, 1, 45, 0
2, 5360, Note_on_c, 1, 47, 127
2, 5360, Note_off_c, 1, 52, 0
2, 5360, Note_off_c, 1, 73, 0
2, 5360, Note_off_c, 1, 76, 0
2, 5360, Note_off_c, 1, 81, 0
2, 5400, Note_on_c, 1, 52, 127
2, 5400, Note_on_c, 1, 74, 127
2, 5400, Note_on_c, 1, 76, 127
2, 5400, Note_on_c, 1, 81, 127
2, 5760, Note_off_c, 1, 52, 0
2, 5760, Note_off_c, 1, 74, 0
2, 5760, Note_off_c, 1, 76, 0
2, 5760, Note_off_c, 1, 81, 0
2, 5800, Note_on_c, 1, 52, 127
2, 5800, Note_on_c, 1, 74, 127
2, 5800, Note_on_c, 1, 76, 127
2, 5800, Note_on_c, 1, 80, 127
2, 6440, Note_off_c, 1, 80, 0
2, 6480, Note_off_c, 1, 47, 0
2, 6480, Note_on_c, 1, 55, 127
2, 6480, Note_on_c, 1, 67, 127
2, 6480, Note_on_c, 1, 72, 127
2, 6480, Note_off_c, 1, 74, 0
2, 6480, Note_on_c, 1, 79, 127
2, 6520, Note_off_c, 1, 52, 0
2, 6520, Note_off_c, 1, 55, 0
2, 6520, Note_off_c, 1, 67, 0
2, 6520, Note_off_c, 1, 72, 0
2, 6520, Note_off_c, 1, 76, 0
2, 6520, Note_off_c, 1, 79, 0
2, 6560, Note_on_c, 1, 45, 127
2, 6560, Note_on_c, 1, 55, 127
2, 6560, Note_on_c, 1, 64, 127
2, 6560, Note_on_c, 1, 72, 127
2, 6880, Note_off_c, 1, 45, 0
2, 6880, Note_off_c, 1, 55, 0
2, 6880, Note_off_c, 1, 64, 0
2, 6880, Note_off_c, 1, 72, 0
2, 6920, Note_on_c, 1, 45, 127
2, 6920, Note_on_c, 1, 55, 127
2, 6920, Note_on_c, 1, 64, 127
2, 6920, Note_on_c, 1, 72, 127
2, 7080, Note_off_c, 1, 45, 0
2, 7080, Note_off_c, 1, 55, 0
2, 7080, Note_off_c, 1, 64, 0
2, 7080, Note_off_c, 1, 72, 0
2, 7120, Note_on_c, 1, 45, 127
2, 7120, Note_on_c, 1, 55, 127
2, 7120, Note_on_c, 1, 64, 127
2, 7160, Note_on_c, 1, 72, 127
2, 7320, Note_off_c, 1, 45, 0
2, 7320, Note_off_c, 1, 55, 0
2, 7320, Note_off_c, 1, 64, 0
2, 7320, Note_off_c, 1, 72, 0
2, 7360, Note_on_c, 1, 45, 127
2, 7360, Note_on_c, 1, 55, 127
2, 7360, Note_on_c, 1, 64, 127
2, 7360, Note_on_c, 1, 72, 127
2, 7680, Note_off_c, 1, 45, 0
2, 7680, Note_off_c, 1, 55, 0
2, 7680, Note_off_c, 1, 64, 0
2, 7680, Note_off_c, 1, 72, 0
2, 7720, Note_on_c, 1, 45, 127
2, 7720, Note_on_c, 1, 55, 127
2, 7720, Note_on_c, 1, 64, 127
2, 7720, Note_on_c, 1, 72, 127
2, 7880, Note_off_c, 1, 72, 0
2, 7920, Note_on_c, 1, 72, 127
2, 8040, Note_off_c, 1, 45, 0
2, 8040, Note_off_c, 1, 55, 0
2, 8040, Note_off_c, 1, 64, 0
2, 8040, Note_off_c, 1, 72, 0
2, 8080, Note_on_c, 1, 45, 127
2, 8080, Note_on_c, 1, 55, 127
2, 8080, Note_on_c, 1, 64, 127
2, 8080, Note_on_c, 1, 71, 127
2, 8280, Note_off_c, 1, 71, 0
2, 8280, Note_on_c, 1, 72, 127
2, 8320, Note_on_c, 1, 71, 127
2, 8320, Note_off_c, 1, 72, 0
2, 8360, Note_off_c, 1, 71, 0
2, 8400, Note_off_c, 1, 45, 0
2, 8400, Note_on_c, 1, 48, 127
2, 8400, Note_off_c, 1, 55, 0
2, 8400, Note_on_c, 1, 69, 127
2, 8400, Note_on_c, 1, 73, 127
2, 8440, Note_on_c, 1, 45, 127
2, 8440, Note_off_c, 1, 48, 0
2, 8440, Note_on_c, 1, 55, 127
2, 8440, Note_off_c, 1, 69, 0
2, 8440, Note_off_c, 1, 73, 0
2, 8480, Note_on_c, 1, 71, 127
2, 8800, Note_off_c, 1, 55, 0
2, 8800, Note_off_c, 1, 64, 0
2, 8800, Note_off_c, 1, 71, 0
2, 8840, Note_on_c, 1, 52, 127
2, 8840, Note_on_c, 1, 59, 127
2, 8840, Note_on_c, 1, 64, 127
2, 8880, Note_off_c, 1, 59, 0
2, 8880, Note_on_c, 1, 61, 127
2, 8880, Note_off_c, 1, 64, 0
2, 9040, Note_on_c, 1, 64, 127
2, 9080, Note_off_c, 1, 45, 0
2, 9080, Note_off_c, 1, 52, 0
2, 9080, Note_off_c, 1, 61, 0
2, 9080, Note_off_c, 1, 64, 0
2, 9120, Note_on_c, 1, 45, 127
2, 9120, Note_on_c, 1, 52, 127
2, 9120, Note_on_c, 1, 61, 127
2, 9160, Note_on_c, 1, 68, 127
2, 9200, Note_off_c, 1, 68, 0
2, 9280, Note_on_c, 1, 69, 127
2, 10360, Note_off_c, 1, 52, 0
2, 10360, Note_off_c, 1, 61, 0
2, 10720, Note_off_c, 1, 45, 0
2, 10720, Note_off_c, 1, 69, 0
2, 10760, Note_on_c, 1, 45, 127
2, 10760, Note_on_c, 1, 52, 127
2, 10760, Note_on_c, 1, 57, 127
2, 10760, Note_on_c, 1, 61, 127
2, 10760, Note_on_c, 1, 64, 127
2, 10760, Note_on_c, 1, 69, 127
2, 11200, Note_off_c, 1, 45, 0
2, 11200, Note_off_c, 1, 52, 0
2, 11200, Note_off_c, 1, 57, 0
2, 11200, Note_off_c, 1, 61, 0
2, 11200, Note_off_c, 1, 64, 0
2, 11200, Note_off_c, 1, 69, 0
2, 11240, Note_on_c, 1, 45, 127
2, 11240, Note_on_c, 1, 52, 127
2, 11240, Note_on_c, 1, 57, 127
2, 11240, Note_on_c, 1, 61, 127
2, 11240, Note_on_c, 1, 64, 127
2, 11240, Note_on_c, 1, 69, 127
2, 11520, Note_off_c, 1, 45, 0
2, 11520, Note_off_c, 1, 52, 0
2, 11520, Note_off_c, 1, 57, 0
2, 11520, Note_off_c, 1, 61, 0
2, 11520, Note_off_c, 1, 64, 0
2, 11520, Note_off_c, 1, 69, 0
2, 11560, Note_on_c, 1, 45, 127
2, 11560, Note_on_c, 1, 52, 127
2, 11560, Note_on_c, 1, 57, 127
2, 11560, Note_on_c, 1, 61, 127
2, 11560, Note_on_c, 1, 64, 127
2, 11560, Note_on_c, 1, 69, 127
2, 11880, Note_off_c, 1, 69, 0
2, 11880, Note_on_c, 1, 73, 127
2, 11920, Note_on_c, 1, 69, 127
2, 11920, Note_off_c, 1, 73, 0
2, 12240, Note_off_c, 1, 45, 0
2, 12240, Note_off_c, 1, 52, 0
2, 12240, Note_off_c, 1, 57, 0
2, 12240, Note_off_c, 1, 61, 0
2, 12240, Note_off_c, 1, 64, 0
2, 12240, Note_off_c, 1, 69, 0
2, 12280, Note_on_c, 1, 49, 127
2, 12280, Note_on_c, 1, 59, 127
2, 12280, Note_on_c, 1, 67, 127
2, 12280, Note_on_c, 1, 71, 127
2, 12320, Note_off_c, 1, 49, 0
2, 12320, Note_off_c, 1, 59, 0
2, 12320, Note_off_c, 1, 67, 0
2, 12320, Note_off_c, 1, 71, 0
2, 12360, Note_on_c, 1, 41, 127
2, 12360, Note_on_c, 1, 46, 127
2, 12360, Note_on_c, 1, 62, 127
2, 12360, Note_on_c, 1, 65, 127
2, 12360, Note_on_c, 1, 74, 127
2, 12600, Note_off_c, 1, 41, 0
2, 12600, Note_on_c, 1, 45, 127
2, 12600, Note_off_c, 1, 46, 0
2, 12600, Note_on_c, 1, 54, 127
2, 12600, Note_off_c, 1, 62, 0
2, 12600, Note_off_c, 1, 65, 0
2, 12600, Note_off_c, 1, 74, 0
2, 12640, Note_on_c, 1, 41, 127
2, 12640, Note_off_c, 1, 45, 0
2, 12640, Note_on_c, 1, 46, 127
2, 12640, Note_off_c, 1, 54, 0
2, 12640, Note_on_c, 1, 62, 127
2, 12640, Note_on_c, 1, 65, 127
2, 12640, Note_on_c, 1, 74, 127
2, 12680, Note_off_c, 1, 41, 0
2, 12680, Note_off_c, 1, 46, 0
2, 12680, Note_off_c, 1, 62, 0
2, 12680, Note_off_c, 1, 65, 0
2, 12680, Note_off_c, 1, 74, 0
2, 12720, Note_on_c, 1, 41, 127
2, 12720, Note_on_c, 1, 46, 127
2, 12720, Note_on_c, 1, 62, 127
2, 12720, Note_on_c, 1, 65, 127
2, 12720, Note_on_c, 1, 74, 127
2, 12880, Note_off_c, 1, 46, 0
2, 12920, Note_on_c, 1, 53, 127
2, 12960, Note_off_c, 1, 41, 0
2, 12960, Note_off_c, 1, 53, 0
2, 12960, Note_off_c, 1, 62, 0
2, 12960, Note_off_c, 1, 65, 0
2, 12960, Note_off_c, 1, 74, 0
2, 13000, Note_on_c, 1, 57, 127
2, 13000, Note_on_c, 1, 64, 127
2, 13000, Note_on_c, 1, 69, 127
2, 13000, Note_on_c, 1, 87, 127
2, 13040, Note_off_c, 1, 57, 0
2, 13040, Note_off_c, 1, 64, 0
2, 13040, Note_off_c, 1, 69, 0
2, 13040, Note_off_c, 1, 87, 0
2, 13080, Note_on_c, 1, 64, 127
2, 13080, Note_on_c, 1, 71, 127
2, 13080, Note_on_c, 1, 80, 127
2, 13080, Note_on_c, 1, 88, 127
2, 13400, Note_off_c, 1, 64, 0
2, 13400, Note_off_c, 1, 71, 0
2, 13400, Note_off_c, 1, 80, 0
2, 13400, Note_off_c, 1, 88, 0
2, 13440, Note_on_c, 1, 64, 127
2, 13440, Note_on_c, 1, 71, 127
2, 13440, Note_on_c, 1, 80, 127
2, 13440, Note_on_c, 1, 88, 127
2, 13840, Note_off_c, 1, 64, 0
2, 13840, Note_off_c, 1, 71, 0
2, 13840, Note_off_c, 1, 80, 0
2, 13840, Note_off_c, 1, 88, 0
2, 14240, Note_on_c, 1, 40, 127
2, 14240, Note_on_c, 1, 57, 127
2, 14240, Note_on_c, 1, 64, 127
2, 14280, Note_off_c, 1, 40, 0
2, 14280, Note_on_c, 1, 73, 127
2, 14320, Note_off_c, 1, 73, 0
2, 14360, Note_on_c, 1, 69, 127
2, 14400, Note_off_c, 1, 69, 0
2, 14440, Note_on_c, 1, 69, 127
2, 14560, Note_off_c, 1, 57, 0
2, 14560, Note_off_c, 1, 64, 0
2, 14560, Note_off_c, 1, 69, 0
2, 14600, Note_on_c, 1, 56, 127
2, 14600, Note_on_c, 1, 59, 127
2, 14600, Note_on_c, 1, 71, 127
2, 14600, Note_on_c, 1, 76, 127
2, 14920, Note_off_c, 1, 59, 0
2, 14920, Note_off_c, 1, 71, 0
2, 14920, Note_off_c, 1, 76, 0
2, 14960, Note_on_c, 1, 52, 127
2, 14960, Note_off_c, 1, 56, 0
2, 14960, Note_on_c, 1, 59, 127
2, 14960, Note_on_c, 1, 68, 127
2, 14960, Note_on_c, 1, 71, 127
2, 15240, Note_off_c, 1, 52, 0
2, 15240, Note_off_c, 1, 59, 0
2, 15240, Note_off_c, 1, 68, 0
2, 15240, Note_off_c, 1, 71, 0
2, 15280, Note_on_c, 1, 52, 127
2, 15280, Note_on_c, 1, 59, 127
2, 15280, Note_on_c, 1, 68, 127
2, 15280, Note_on_c, 1, 71, 127
2, 15600, Note_off_c, 1, 52, 0
2, 15600, Note_off_c, 1, 59, 0
2, 15600, Note_off_c, 1, 68, 0
2, 15600, Note_off_c, 1, 71, 0
2, 15680, Note_on_c, 1, 52, 127
2, 15680, Note_on_c, 1, 56, 127
2, 15680, Note_on_c, 1, 59, 127
2, 15680, Note_on_c, 1, 71, 127
2, 15920, Note_off_c, 1, 71, 0
2, 15960, Note_on_c, 1, 71, 127
2, 16000, Note_off_c, 1, 52, 0
2, 16000, Note_off_c, 1, 56, 0
2, 16000, Note_off_c, 1, 59, 0
2, 16000, Note_off_c, 1, 71, 0
2, 16040, Note_on_c, 1, 45, 127
2, 16040, Note_on_c, 1, 52, 127
2, 16040, Note_on_c, 1, 57, 127
2, 16040, Note_on_c, 1, 61, 127
2, 16040, Note_on_c, 1, 69, 127
2, 16040, Note_on_c, 1, 73, 127
2, 16360, Note_off_c, 1, 45, 0
2, 16360, Note_off_c, 1, 52, 0
2, 16360, Note_off_c, 1, 57, 0
2, 16360, Note_off_c, 1, 61, 0
2, 16360, Note_off_c, 1, 69, 0
2, 16360, Note_off_c, 1, 73, 0
2, 16400, Note_on_c, 1, 45, 127
2, 16400, Note_on_c, 1, 52, 127
2, 16400, Note_on_c, 1, 57, 127
2, 16400, Note_on_c, 1, 61, 127
2, 16400, Note_on_c, 1, 69, 127
2, 16400, Note_on_c, 1, 73, 127
2, 16720, Note_off_c, 1, 45, 0
2, 16720, Note_off_c, 1, 52, 0
2, 16720, Note_off_c, 1, 57, 0
2, 16720, Note_off_c, 1, 61, 0
2, 16720, Note_off_c, 1, 69, 0
2, 16720, Note_off_c, 1, 73, 0
2, 16760, Note_on_c, 1, 26, 127
2, 16760, Note_on_c, 1, 38, 127
2, 16760, Note_on_c, 1, 55, 127
2, 16760, Note_on_c, 1, 59, 127
2, 16760, Note_on_c, 1, 62, 127
2, 16760, Note_on_c, 1, 67, 127
2, 17080, Note_off_c, 1, 26, 0
2, 17080, Note_off_c, 1, 38, 0
2, 17080, Note_off_c, 1, 55, 0
2, 17080, Note_off_c, 1, 59, 0
2, 17080, Note_off_c, 1, 62, 0
2, 17080, Note_off_c, 1, 67, 0
2, 17120, Note_on_c, 1, 45, 127
2, 17120, Note_on_c, 1, 52, 127
2, 17120, Note_on_c, 1, 57, 127
2, 17120, Note_on_c, 1, 61, 127
2, 17120, Note_on_c, 1, 69, 127
2, 17120, Note_on_c, 1, 73, 127
2, 17440, Note_off_c, 1, 45, 0
2, 17440, Note_off_c, 1, 52, 0
2, 17440, Note_off_c, 1, 57, 0
2, 17440, Note_off_c, 1, 61, 0
2, 17440, Note_off_c, 1, 69, 0
2, 17440, Note_off_c, 1, 73, 0
2, 17480, Note_on_c, 1, 52, 127
2, 17480, Note_on_c, 1, 64, 127
2, 17480, Note_on_c, 1, 66, 127
2, 17480, Note_on_c, 1, 68, 127
2, 17520, Note_off_c, 1, 52, 0
2, 17520, Note_off_c, 1, 64, 0
2, 17520, Note_off_c, 1, 66, 0
2, 17520, Note_off_c, 1, 68, 0
2, 17560, Note_on_c, 1, 35, 127
2, 17560, Note_on_c, 1, 44, 127
2, 17560, Note_on_c, 1, 53, 127
2, 17560, Note_on_c, 1, 56, 127
2, 17560, Note_on_c, 1, 62, 127
2, 17560, Note_on_c, 1, 65, 127
2, 17600, Note_off_c, 1, 35, 0
2, 17600, Note_off_c, 1, 44, 0
2, 17600, Note_on_c, 1, 48, 127
2, 17600, Note_off_c, 1, 53, 0
2, 17600, Note_on_c, 1, 54, 127
2, 17600, Note_off_c, 1, 56, 0
2, 17600, Note_on_c, 1, 60, 127
2, 17600, Note_off_c, 1, 62, 0
2, 17600, Note_off_c, 1, 65, 0
2, 17600, Note_on_c, 1, 69, 127
2, 17840, Note_off_c, 1, 48, 0
2, 17840, Note_off_c, 1, 54, 0
2, 17840, Note_off_c, 1, 60, 0
2, 17840, Note_off_c, 1, 69, 0
2, 17880, Note_on_c, 1, 52, 127
2, 17880, Note_on_c, 1, 68, 127
2, 17880, Note_on_c, 1, 71, 127
2, 18040, Note_off_c, 1, 71, 0
2, 18040, Note_on_c, 1, 73, 127
2, 18080, Note_on_c, 1, 71, 127
2, 18080, Note_off_c, 1, 73, 0
2, 18120, Note_off_c, 1, 71, 0
2, 18200, Note_off_c, 1, 68, 0
2, 18240, Note_on_c, 1, 40, 127
2, 18240, Note_on_c, 1, 64, 127
2, 18560, Note_off_c, 1, 40, 0
2, 18560, Note_off_c, 1, 52, 0
2, 18920, Note_off_c, 1, 64, 0
2, 18960, Note_on_c, 1, 73, 127
2, 19320, Note_on_c, 1, 39, 127
2, 19320, Note_on_c, 1, 51, 127
2, 19640, Note_off_c, 1, 39, 0
2, 19640, Note_off_c, 1, 51, 0
2, 19640, Note_off_c, 1, 73, 0
2, 19720, Note_on_c, 1, 44, 127
2, 19720, Note_on_c, 1, 56, 127
2, 19720, Note_on_c, 1, 76, 127
2, 20040, Note_off_c, 1, 76, 0
2, 20080, Note_on_c, 1, 76, 127
2, 20400, Note_off_c, 1, 44, 0
2, 20400, Note_off_c, 1, 56, 0
2, 20400, Note_off_c, 1, 76, 0
2, 20440, Note_on_c, 1, 47, 127
2, 20440, Note_on_c, 1, 75, 127
2, 20760, Note_off_c, 1, 47, 0
2, 20760, Note_off_c, 1, 75, 0
2, 20800, Note_on_c, 1, 42, 127
2, 20800, Note_on_c, 1, 74, 127
2, 21120, Note_off_c, 1, 42, 0
2, 21120, Note_off_c, 1, 74, 0
2, 21160, Note_on_c, 1, 42, 127
2, 21160, Note_on_c, 1, 74, 127
2, 21480, Note_off_c, 1, 42, 0
2, 21480, Note_off_c, 1, 74, 0
2, 21520, Note_on_c, 1, 42, 127
2, 21520, Note_on_c, 1, 76, 127
2, 21800, Note_off_c, 1, 42, 0
2, 21840, Note_off_c, 1, 76, 0
2, 21920, Note_on_c, 1, 31, 127
2, 21920, Note_on_c, 1, 43, 127
2, 21920, Note_on_c, 1, 71, 127
2, 22080, Note_off_c, 1, 71, 0
2, 22080, Note_on_c, 1, 74, 127
2, 22200, Note_off_c, 1, 74, 0
2, 22240, Note_off_c, 1, 31, 0
2, 22240, Note_off_c, 1, 43, 0
2, 22280, Note_on_c, 1, 35, 127
2, 22280, Note_on_c, 1, 69, 127
2, 22600, Note_off_c, 1, 35, 0
2, 22600, Note_off_c, 1, 69, 0
2, 22640, Note_on_c, 1, 43, 127
2, 22640, Note_on_c, 1, 59, 127
2, 22960, Note_off_c, 1, 43, 0
2, 22960, Note_off_c, 1, 59, 0
2, 23000, Note_on_c, 1, 43, 127
2, 23000, Note_on_c, 1, 71, 127
2, 23320, Note_off_c, 1, 43, 0
2, 23320, Note_off_c, 1, 71, 0
2, 23360, Note_on_c, 1, 40, 127
2, 23360, Note_on_c, 1, 79, 127
2, 23680, Note_off_c, 1, 40, 0
2, 23680, Note_off_c, 1, 79, 0
2, 23720, Note_on_c, 1, 40, 127
2, 23720, Note_on_c, 1, 79, 127
2, 24040, Note_off_c, 1, 40, 0
2, 24080, Note_off_c, 1, 79, 0
2, 24120, Note_on_c, 1, 40, 127
2, 24120, Note_on_c, 1, 79, 127
2, 24400, Note_off_c, 1, 40, 0
2, 24400, Note_off_c, 1, 79, 0
2, 24440, Note_on_c, 1, 47, 127
2, 24440, Note_on_c, 1, 76, 127
2, 24800, Note_off_c, 1, 47, 0
2, 24800, Note_off_c, 1, 76, 0
2, 24840, Note_on_c, 1, 52, 127
2, 24840, Note_on_c, 1, 76, 127
2, 25160, Note_off_c, 1, 52, 0
2, 25160, Note_off_c, 1, 76, 0
2, 25200, Note_on_c, 1, 52, 127
2, 25200, Note_on_c, 1, 66, 127
2, 25200, Note_on_c, 1, 74, 127
2, 25520, Note_off_c, 1, 52, 0
2, 25520, Note_off_c, 1, 66, 0
2, 25560, Note_on_c, 1, 57, 127
2, 25880, Note_off_c, 1, 57, 0
2, 25880, Note_off_c, 1, 74, 0
2, 25920, Note_on_c, 1, 45, 127
2, 26160, Note_off_c, 1, 45, 0
2, 26200, Note_on_c, 1, 45, 127
2, 26280, Note_off_c, 1, 45, 0
2, 26320, Note_on_c, 1, 55, 127
2, 26320, Note_on_c, 1, 63, 127
2, 26640, Note_off_c, 1, 55, 0
2, 26640, Note_off_c, 1, 63, 0
2, 26680, Note_on_c, 1, 57, 127
2, 26680, Note_on_c, 1, 66, 127
2, 27000, Note_off_c, 1, 57, 0
2, 27000, Note_off_c, 1, 66, 0
2, 27040, Note_on_c, 1, 52, 127
2, 27040, Note_on_c, 1, 67, 127
2, 27360, Note_off_c, 1, 52, 0
2, 27360, Note_off_c, 1, 67, 0
2, 27400, Note_on_c, 1, 47, 127
2, 27400, Note_on_c, 1, 57, 127
2, 27720, Note_off_c, 1, 47, 0
2, 27720, Note_off_c, 1, 57, 0
2, 27760, Note_on_c, 1, 52, 127
2, 27760, Note_on_c, 1, 67, 127
2, 28080, Note_off_c, 1, 52, 0
2, 28080, Note_off_c, 1, 67, 0
2, 28120, Note_on_c, 1, 57, 127
2, 28120, Note_on_c, 1, 72, 127
2, 28360, Note_off_c, 1, 57, 0
2, 28360, Note_off_c, 1, 72, 0
2, 28400, Note_on_c, 1, 57, 127
2, 28400, Note_on_c, 1, 72, 127
2, 28480, Note_off_c, 1, 57, 0
2, 28480, Note_off_c, 1, 72, 0
2, 28520, Note_on_c, 1, 47, 127
2, 28520, Note_on_c, 1, 74, 127
2, 28840, Note_off_c, 1, 47, 0
2, 28840, Note_off_c, 1, 74, 0
2, 28880, Note_on_c, 1, 54, 127
2, 28880, Note_on_c, 1, 76, 127
2, 29200, Note_off_c, 1, 54, 0
2, 29200, Note_off_c, 1, 76, 0
2, 29240, Note_on_c, 1, 59, 127
2, 29240, Note_on_c, 1, 74, 127
2, 29560, Note_off_c, 1, 59, 0
2, 29560, Note_off_c, 1, 74, 0
2, 29600, Note_on_c, 1, 55, 127
2, 29600, Note_on_c, 1, 76, 127
2, 29920, Note_off_c, 1, 55, 0
2, 29920, Note_off_c, 1, 76, 0
2, 29960, Note_on_c, 1, 59, 127
2, 29960, Note_on_c, 1, 74, 127
2, 30280, Note_off_c, 1, 59, 0
2, 30280, Note_off_c, 1, 74, 0
2, 30320, Note_on_c, 1, 52, 127
2, 30320, Note_on_c, 1, 76, 127
2, 30440, Note_off_c, 1, 52, 0
2, 30440, Note_off_c, 1, 76, 0
2, 30480, Note_on_c, 1, 52, 127
2, 30480, Note_on_c, 1, 76, 127
2, 30680, Note_off_c, 1, 52, 0
2, 30680, Note_off_c, 1, 76, 0
2, 30720, Note_on_c, 1, 59, 127
2, 30720, Note_on_c, 1, 74, 127
2, 31040, Note_off_c, 1, 59, 0
2, 31040, Note_off_c, 1, 74, 0
2, 31080, Note_on_c, 1, 76, 127
2, 31400, Note_off_c, 1, 76, 0
2, 31440, Note_on_c, 1, 50, 127
2, 31440, Note_on_c, 1, 74, 127
2, 31760, Note_off_c, 1, 50, 0
2, 31800, Note_on_c, 1, 57, 127
2, 32120, Note_off_c, 1, 57, 0
2, 32120, Note_off_c, 1, 74, 0
2, 32160, Note_on_c, 1, 50, 127
2, 32160, Note_on_c, 1, 72, 127
2, 32480, Note_off_c, 1, 50, 0
2, 32480, Note_off_c, 1, 72, 0
2, 32520, Note_on_c, 1, 55, 127
2, 32520, Note_on_c, 1, 71, 127
2, 32800, Note_off_c, 1, 55, 0
2, 32800, Note_off_c, 1, 71, 0
2, 32840, Note_on_c, 1, 55, 127
2, 32840, Note_on_c, 1, 71, 127
2, 32880, Note_off_c, 1, 55, 0
2, 32880, Note_off_c, 1, 71, 0
2, 32920, Note_on_c, 1, 60, 127
2, 32920, Note_on_c, 1, 72, 127
2, 33240, Note_off_c, 1, 60, 0
2, 33240, Note_off_c, 1, 72, 0
2, 33280, Note_on_c, 1, 50, 127
2, 33280, Note_on_c, 1, 71, 127
2, 33600, Note_off_c, 1, 50, 0
2, 33600, Note_off_c, 1, 71, 0
2, 33640, Note_on_c, 1, 57, 127
2, 33640, Note_on_c, 1, 69, 127
2, 33960, Note_off_c, 1, 57, 0
2, 33960, Note_off_c, 1, 69, 0
2, 34000, Note_on_c, 1, 47, 127
2, 34000, Note_on_c, 1, 79, 127
2, 34320, Note_off_c, 1, 47, 0
2, 34320, Note_off_c, 1, 79, 0
2, 34360, Note_on_c, 1, 48, 127
2, 34360, Note_on_c, 1, 81, 127
2, 34680, Note_off_c, 1, 48, 0
2, 34720, Note_on_c, 1, 50, 127
2, 35040, Note_off_c, 1, 50, 0
2, 35040, Note_off_c, 1, 81, 0
2, 35080, Note_on_c, 1, 48, 127
2, 35080, Note_on_c, 1, 50, 127
2, 35080, Note_on_c, 1, 54, 127
2, 35080, Note_on_c, 1, 60, 127
2, 35080, Note_on_c, 1, 72, 127
2, 35080, Note_on_c, 1, 74, 127
2, 35080, Note_on_c, 1, 78, 127
2, 35080, Note_on_c, 1, 84, 127
2, 35280, Note_off_c, 1, 48, 0
2, 35280, Note_off_c, 1, 50, 0
2, 35280, Note_off_c, 1, 54, 0
2, 35280, Note_off_c, 1, 60, 0
2, 35280, Note_off_c, 1, 72, 0
2, 35280, Note_off_c, 1, 74, 0
2, 35280, Note_off_c, 1, 78, 0
2, 35280, Note_off_c, 1, 84, 0
2, 35320, Note_on_c, 1, 48, 127
2, 35320, Note_on_c, 1, 50, 127
2, 35320, Note_on_c, 1, 54, 127
2, 35320, Note_on_c, 1, 60, 127
2, 35320, Note_on_c, 1, 72, 127
2, 35320, Note_on_c, 1, 74, 127
2, 35320, Note_on_c, 1, 78, 127
2, 35320, Note_on_c, 1, 84, 127
2, 35440, Note_off_c, 1, 48, 0
2, 35440, Note_off_c, 1, 50, 0
2, 35440, Note_off_c, 1, 60, 0
2, 35440, Note_on_c, 1, 62, 127
2, 35440, Note_off_c, 1, 72, 0
2, 35440, Note_off_c, 1, 74, 0
2, 35440, Note_off_c, 1, 78, 0
2, 35440, Note_off_c, 1, 84, 0
2, 35480, Note_off_c, 1, 54, 0
2, 35480, Note_on_c, 1, 55, 127
2, 35480, Note_on_c, 1, 74, 127
2, 35480, Note_on_c, 1, 83, 127
2, 35800, Note_off_c, 1, 55, 0
2, 35800, Note_off_c, 1, 62, 0
2, 35800, Note_off_c, 1, 74, 0
2, 35800, Note_off_c, 1, 83, 0
2, 35840, Note_on_c, 1, 59, 127
2, 35840, Note_on_c, 1, 86, 127
2, 36160, Note_off_c, 1, 59, 0
2, 36200, Note_on_c, 1, 62, 127
2, 36520, Note_off_c, 1, 62, 0
2, 36520, Note_off_c, 1, 86, 0
2, 36560, Note_on_c, 1, 55, 127
2, 36560, Note_on_c, 1, 83, 127
2, 36880, Note_off_c, 1, 55, 0
2, 36920, Note_on_c, 1, 47, 127
2, 37240, Note_off_c, 1, 47, 0
2, 37240, Note_off_c, 1, 83, 0
2, 37280, Note_on_c, 1, 45, 127
2, 37280, Note_on_c, 1, 76, 127
2, 37360, Note_off_c, 1, 76, 0
2, 37440, Note_on_c, 1, 76, 127
2, 37600, Note_off_c, 1, 45, 0
2, 37640, Note_off_c, 1, 76, 0
2, 37680, Note_on_c, 1, 47, 127
2, 37680, Note_on_c, 1, 76, 127
2, 38000, Note_off_c, 1, 47, 0
2, 38040, Note_on_c, 1, 64, 127
2, 38320, Note_off_c, 1, 76, 0
2, 38360, Note_off_c, 1, 64, 0
2, 38400, Note_on_c, 1, 43, 127
2, 38400, Note_on_c, 1, 71, 127
2, 38720, Note_off_c, 1, 43, 0
2, 38760, Note_on_c, 1, 55, 127
2, 39080, Note_off_c, 1, 55, 0
2, 39080, Note_on_c, 1, 70, 127
2, 39080, Note_off_c, 1, 71, 0
2, 39120, Note_on_c, 1, 64, 127
2, 39440, Note_off_c, 1, 64, 0
2, 39440, Note_off_c, 1, 70, 0
2, 39480, Note_on_c, 1, 50, 127
2, 39480, Note_on_c, 1, 71, 127
2, 39800, Note_off_c, 1, 50, 0
2, 39840, Note_on_c, 1, 54, 127
2, 39960, Note_off_c, 1, 54, 0
2, 39960, Note_off_c, 1, 71, 0
2, 40000, Note_on_c, 1, 54, 127
2, 40000, Note_on_c, 1, 71, 127
2, 40160, Note_off_c, 1, 54, 0
2, 40160, Note_off_c, 1, 71, 0
2, 40200, Note_on_c, 1, 52, 127
2, 40200, Note_on_c, 1, 69, 127
2, 40520, Note_off_c, 1, 52, 0
2, 40520, Note_off_c, 1, 69, 0
2, 40560, Note_on_c, 1, 64, 127
2, 40560, Note_on_c, 1, 71, 127
2, 40880, Note_off_c, 1, 64, 0
2, 40880, Note_off_c, 1, 71, 0
2, 40920, Note_on_c, 1, 45, 127
2, 40920, Note_on_c, 1, 73, 127
2, 41240, Note_off_c, 1, 45, 0
2, 41280, Note_on_c, 1, 50, 127
2, 41280, Note_on_c, 1, 72, 127
2, 41280, Note_off_c, 1, 73, 0
2, 41600, Note_off_c, 1, 50, 0
2, 41600, Note_off_c, 1, 72, 0
2, 41640, Note_on_c, 1, 57, 127
2, 41640, Note_on_c, 1, 73, 127
2, 41960, Note_off_c, 1, 57, 0
2, 41960, Note_off_c, 1, 73, 0
2, 42000, Note_on_c, 1, 50, 127
2, 42000, Note_on_c, 1, 73, 127
2, 42320, Note_off_c, 1, 50, 0
2, 42320, Note_off_c, 1, 73, 0
2, 42360, Note_on_c, 1, 74, 127
2, 42400, Note_on_c, 1, 57, 127
2, 42720, Note_off_c, 1, 57, 0
2, 42760, Note_on_c, 1, 49, 127
2, 43080, Note_off_c, 1, 49, 0
2, 43120, Note_on_c, 1, 57, 127
2, 43440, Note_off_c, 1, 57, 0
2, 43440, Note_off_c, 1, 74, 0
2, 43480, Note_on_c, 1, 45, 127
2, 43480, Note_on_c, 1, 76, 127
2, 43800, Note_off_c, 1, 45, 0
2, 43840, Note_on_c, 1, 49, 127
2, 44160, Note_off_c, 1, 49, 0
2, 44160, Note_off_c, 1, 76, 0
2, 44200, Note_on_c, 1, 54, 127
2, 44200, Note_on_c, 1, 76, 127
2, 44520, Note_off_c, 1, 54, 0
2, 44560, Note_on_c, 1, 64, 127
2, 44680, Note_off_c, 1, 64, 0
2, 44680, Note_off_c, 1, 76, 0
2, 44720, Note_on_c, 1, 64, 127
2, 44720, Note_on_c, 1, 76, 127
2, 44920, Note_off_c, 1, 64, 0
2, 44920, Note_off_c, 1, 76, 0
2, 44960, Note_on_c, 1, 50, 127
2, 44960, Note_on_c, 1, 78, 127
2, 45280, Note_off_c, 1, 50, 0
2, 45280, Note_off_c, 1, 78, 0
2, 45320, Note_on_c, 1, 57, 127
2, 45320, Note_on_c, 1, 78, 127
2, 45640, Note_off_c, 1, 57, 0
2, 45640, Note_off_c, 1, 78, 0
2, 45680, Note_on_c, 1, 50, 127
2, 45680, Note_on_c, 1, 79, 127
2, 46000, Note_off_c, 1, 50, 0
2, 46040, Note_on_c, 1, 59, 127
2, 46040, Note_on_c, 1, 78, 127
2, 46040, Note_off_c, 1, 79, 0
2, 46360, Note_off_c, 1, 59, 0
2, 46360, Note_off_c, 1, 78, 0
2, 46400, Note_on_c, 1, 48, 127
2, 46400, Note_on_c, 1, 79, 127
2, 46720, Note_off_c, 1, 48, 0
2, 46760, Note_on_c, 1, 40, 127
2, 47040, Note_off_c, 1, 40, 0
2, 47040, Note_off_c, 1, 79, 0
2, 47080, Note_on_c, 1, 40, 127
2, 47080, Note_on_c, 1, 79, 127
2, 47120, Note_off_c, 1, 40, 0
2, 47120, Note_off_c, 1, 79, 0
2, 47160, Note_on_c, 1, 36, 127
2, 47160, Note_on_c, 1, 81, 127
2, 47480, Note_off_c, 1, 36, 0
2, 47520, Note_on_c, 1, 52, 127
2, 47840, Note_off_c, 1, 52, 0
2, 47880, Note_on_c, 1, 60, 127
2, 48200, Note_off_c, 1, 60, 0
2, 48200, Note_off_c, 1, 81, 0
2, 48240, Note_on_c, 1, 48, 127
2, 48240, Note_on_c, 1, 79, 127
2, 48560, Note_off_c, 1, 48, 0
2, 48600, Note_on_c, 1, 60, 127
2, 48920, Note_off_c, 1, 60, 0
2, 48920, Note_off_c, 1, 79, 0
2, 48960, Note_on_c, 1, 52, 127
2, 48960, Note_on_c, 1, 79, 127
2, 49240, Note_off_c, 1, 52, 0
2, 49240, Note_off_c, 1, 79, 0
2, 49280, Note_on_c, 1, 52, 127
2, 49280, Note_on_c, 1, 79, 127
2, 49320, Note_off_c, 1, 52, 0
2, 49320, Note_off_c, 1, 79, 0
2, 49360, Note_on_c, 1, 61, 127
2, 49360, Note_on_c, 1, 76, 127
2, 49680, Note_off_c, 1, 61, 0
2, 49680, Note_off_c, 1, 76, 0
2, 49720, Note_on_c, 1, 42, 127
2, 49720, Note_on_c, 1, 83, 127
2, 50040, Note_off_c, 1, 42, 0
2, 50080, Note_on_c, 1, 47, 127
2, 50400, Note_off_c, 1, 47, 0
2, 50440, Note_on_c, 1, 47, 127
2, 50760, Note_off_c, 1, 47, 0
2, 50760, Note_off_c, 1, 83, 0
2, 50800, Note_on_c, 1, 53, 127
2, 50800, Note_on_c, 1, 82, 127
2, 51120, Note_off_c, 1, 53, 0
2, 51120, Note_off_c, 1, 82, 0
2, 51160, Note_on_c, 1, 55, 127
2, 51160, Note_on_c, 1, 79, 127
2, 51160, Note_on_c, 1, 81, 127
2, 51200, Note_off_c, 1, 81, 0
2, 51440, Note_off_c, 1, 55, 0
2, 51440, Note_off_c, 1, 79, 0
2, 51480, Note_on_c, 1, 55, 127
2, 51480, Note_on_c, 1, 79, 127
2, 51520, Note_off_c, 1, 55, 0
2, 51560, Note_on_c, 1, 52, 127
2, 51840, Note_off_c, 1, 52, 0
2, 51880, Note_on_c, 1, 51, 127
2, 52200, Note_off_c, 1, 51, 0
2, 52240, Note_on_c, 1, 55, 127
2, 52600, Note_off_c, 1, 55, 0
2, 52640, Note_on_c, 1, 59, 127
2, 52640, Note_off_c, 1, 79, 0
2, 52640, Note_on_c, 1, 80, 127
2, 52760, Note_off_c, 1, 80, 0
2, 52800, Note_on_c, 1, 82, 127
2, 52960, Note_off_c, 1, 59, 0
2, 52960, Note_off_c, 1, 82, 0
2, 53000, Note_on_c, 1, 51, 127
2, 53000, Note_on_c, 1, 83, 127
2, 53320, Note_off_c, 1, 51, 0
2, 53320, Note_off_c, 1, 83, 0
2, 53360, Note_on_c, 1, 56, 127
2, 53360, Note_on_c, 1, 80, 127
2, 53480, Note_off_c, 1, 56, 0
2, 53480, Note_off_c, 1, 80, 0
2, 53520, Note_on_c, 1, 56, 127
2, 53520, Note_on_c, 1, 80, 127
2, 53680, Note_off_c, 1, 80, 0
2, 53720, Note_off_c, 1, 56, 0
2, 53720, Note_on_c, 1, 64, 127
2, 53720, Note_on_c, 1, 68, 127
2, 53720, Note_on_c, 1, 83, 127
2, 54040, Note_off_c, 1, 64, 0
2, 54040, Note_off_c, 1, 68, 0
2, 54080, Note_on_c, 1, 44, 127
2, 54400, Note_off_c, 1, 44, 0
2, 54440, Note_on_c, 1, 56, 127
2, 54760, Note_off_c, 1, 56, 0
2, 54800, Note_on_c, 1, 47, 127
2, 55120, Note_off_c, 1, 47, 0
2, 55120, Note_off_c, 1, 83, 0
2, 55160, Note_on_c, 1, 57, 127
2, 55480, Note_off_c, 1, 57, 0
2, 55520, Note_on_c, 1, 66, 127
2, 55520, Note_on_c, 1, 83, 127
2, 55680, Note_off_c, 1, 83, 0
2, 55720, Note_off_c, 1, 66, 0
2, 55760, Note_on_c, 1, 66, 127
2, 55880, Note_off_c, 1, 66, 0
2, 55920, Note_on_c, 1, 55, 127
2, 55920, Note_on_c, 1, 83, 127
2, 56240, Note_off_c, 1, 55, 0
2, 56240, Note_off_c, 1, 83, 0
2, 56280, Note_on_c, 1, 83, 127
2, 56640, Note_on_c, 1, 52, 127
2, 56960, Note_off_c, 1, 52, 0
2, 56960, Note_off_c, 1, 83, 0
2, 56960, Note_on_c, 1, 85, 127
2, 57000, Note_on_c, 1, 58, 127
2, 57320, Note_off_c, 1, 58, 0
2, 57360, Note_on_c, 1, 57, 127
2, 57680, Note_off_c, 1, 57, 0
2, 58040, Note_off_c, 1, 85, 0
2, 58120, Note_on_c, 1, 55, 127
2, 58120, Note_on_c, 1, 88, 127
2, 58440, Note_off_c, 1, 55, 0
2, 58440, Note_off_c, 1, 88, 0
2, 58440, Note_on_c, 1, 90, 127
2, 58480, Note_on_c, 1, 61, 127
2, 58800, Note_off_c, 1, 61, 0
2, 58800, Note_off_c, 1, 90, 0
2, 58840, Note_on_c, 1, 64, 127
2, 58840, Note_on_c, 1, 90, 127
2, 59160, Note_off_c, 1, 64, 0
2, 59160, Note_off_c, 1, 90, 0
2, 59200, Note_on_c, 1, 49, 127
2, 59200, Note_on_c, 1, 88, 127
2, 59520, Note_off_c, 1, 49, 0
2, 59520, Note_on_c, 1, 79, 127
2, 59520, Note_off_c, 1, 88, 0
2, 59560, Note_on_c, 1, 62, 127
2, 59560, Note_off_c, 1, 79, 0
2, 59560, Note_on_c, 1, 88, 127
2, 59880, Note_off_c, 1, 62, 0
2, 59880, Note_off_c, 1, 88, 0
2, 59920, Note_on_c, 1, 61, 127
2, 59920, Note_on_c, 1, 90, 127
2, 59960, Note_on_c, 1, 88, 127
2, 59960, Note_off_c, 1, 90, 0
2, 60000, Note_off_c, 1, 88, 0
2, 60000, Note_on_c, 1, 90, 127
2, 60080, Note_on_c, 1, 88, 127
2, 60080, Note_off_c, 1, 90, 0
2, 60240, Note_off_c, 1, 61, 0
2, 60280, Note_off_c, 1, 88, 0
2, 60320, Note_on_c, 1, 52, 127
2, 60320, Note_on_c, 1, 88, 127
2, 60600, Note_off_c, 1, 52, 0
2, 60640, Note_on_c, 1, 63, 127
2, 60960, Note_off_c, 1, 63, 0
2, 61000, Note_on_c, 1, 67, 127
2, 61000, Note_on_c, 1, 71, 127
2, 61320, Note_off_c, 1, 67, 0
2, 61320, Note_off_c, 1, 71, 0
2, 61320, Note_on_c, 1, 86, 127
2, 61320, Note_off_c, 1, 88, 0
2, 61360, Note_on_c, 1, 67, 127
2, 61360, Note_off_c, 1, 86, 0
2, 61360, Note_on_c, 1, 88, 127
2, 61680, Note_off_c, 1, 67, 0
2, 61680, Note_off_c, 1, 88, 0
2, 61720, Note_on_c, 1, 49, 127
2, 61720, Note_on_c, 1, 84, 127
2, 62040, Note_off_c, 1, 49, 0
2, 62040, Note_off_c, 1, 84, 0
2, 62080, Note_on_c, 1, 54, 127
2, 62080, Note_on_c, 1, 85, 127
2, 62400, Note_off_c, 1, 54, 0
2, 62440, Note_on_c, 1, 61, 127
2, 62480, Note_off_c, 1, 85, 0
2, 62560, Note_off_c, 1, 61, 0
2, 62600, Note_on_c, 1, 61, 127
2, 62800, Note_off_c, 1, 61, 0
2, 62840, Note_on_c, 1, 52, 127
2, 62840, Note_on_c, 1, 81, 127
2, 63160, Note_off_c, 1, 52, 0
2, 63160, Note_off_c, 1, 81, 0
2, 63200, Note_on_c, 1, 59, 127
2, 63200, Note_on_c, 1, 80, 127
2, 63520, Note_off_c, 1, 59, 0
2, 63520, Note_off_c, 1, 80, 0
2, 63560, Note_on_c, 1, 56, 127
2, 63560, Note_on_c, 1, 81, 127
2, 63880, Note_off_c, 1, 56, 0
2, 63880, Note_off_c, 1, 81, 0
2, 63920, Note_on_c, 1, 57, 127
2, 63920, Note_on_c, 1, 83, 127
2, 64240, Note_off_c, 1, 57, 0
2, 64240, Note_off_c, 1, 83, 0
2, 64280, Note_on_c, 1, 47, 127
2, 64280, Note_on_c, 1, 81, 127
2, 64600, Note_off_c, 1, 47, 0
2, 64600, Note_off_c, 1, 81, 0
2, 64640, Note_on_c, 1, 52, 127
2, 64640, Note_on_c, 1, 76, 127
2, 64840, Note_off_c, 1, 52, 0
2, 64840, Note_off_c, 1, 76, 0
2, 64880, Note_on_c, 1, 52, 127
2, 64880, Note_on_c, 1, 76, 127
2, 65000, Note_off_c, 1, 52, 0
2, 65000, Note_off_c, 1, 76, 0
2, 65400, Note_on_c, 1, 76, 127
2, 65720, Note_off_c, 1, 76, 0
2, 65760, Note_on_c, 1, 56, 127
2, 65760, Note_on_c, 1, 76, 127
2, 66080, Note_off_c, 1, 56, 0
2, 66120, Note_on_c, 1, 59, 127
2, 66440, Note_off_c, 1, 59, 0
2, 66440, Note_off_c, 1, 76, 0
2, 66480, Note_on_c, 1, 64, 127
2, 66480, Note_on_c, 1, 76, 127
2, 66800, Note_off_c, 1, 64, 0
2, 66840, Note_on_c, 1, 68, 127
2, 67160, Note_off_c, 1, 68, 0
2, 67200, Note_on_c, 1, 52, 127
2, 67200, Note_off_c, 1, 76, 0
2, 67240, Note_off_c, 1, 52, 0
2, 67280, Note_on_c, 1, 52, 127
2, 67280, Note_on_c, 1, 75, 127
2, 67560, Note_off_c, 1, 52, 0
2, 67560, Note_off_c, 1, 75, 0
2, 67600, Note_on_c, 1, 64, 127
2, 67600, Note_on_c, 1, 76, 127
2, 67920, Note_off_c, 1, 64, 0
2, 67920, Note_off_c, 1, 76, 0
2, 67960, Note_on_c, 1, 56, 127
2, 67960, Note_on_c, 1, 76, 127
2, 68280, Note_off_c, 1, 56, 0
2, 68320, Note_on_c, 1, 59, 127
2, 68640, Note_off_c, 1, 59, 0
2, 68640, Note_off_c, 1, 76, 0
2, 68680, Note_on_c, 1, 64, 127
2, 68680, Note_on_c, 1, 81, 127
2, 68800, Note_off_c, 1, 81, 0
2, 68840, Note_on_c, 1, 82, 127
2, 69000, Note_off_c, 1, 64, 0
2, 69000, Note_off_c, 1, 82, 0
2, 69040, Note_on_c, 1, 59, 127
2, 69040, Note_on_c, 1, 78, 127
2, 69160, Note_off_c, 1, 78, 0
2, 69200, Note_on_c, 1, 76, 127
2, 69360, Note_off_c, 1, 59, 0
2, 69360, Note_off_c, 1, 76, 0
2, 69400, Note_on_c, 1, 64, 127
2, 69400, Note_on_c, 1, 76, 127
2, 69560, Note_off_c, 1, 64, 0
2, 69560, Note_off_c, 1, 76, 0
2, 69600, Note_on_c, 1, 64, 127
2, 69600, Note_on_c, 1, 76, 127
2, 69760, Note_off_c, 1, 64, 0
2, 69760, Note_off_c, 1, 76, 0
2, 69800, Note_on_c, 1, 57, 127
2, 69800, Note_on_c, 1, 73, 127
2, 69800, Note_on_c, 1, 81, 127
2, 70120, Note_off_c, 1, 57, 0
2, 70160, Note_on_c, 1, 57, 127
2, 70480, Note_off_c, 1, 57, 0
2, 70480, Note_off_c, 1, 73, 0
2, 70520, Note_on_c, 1, 52, 127
2, 70520, Note_on_c, 1, 73, 127
2, 71200, Note_off_c, 1, 52, 0
2, 71240, Note_on_c, 1, 52, 127
2, 71240, Note_on_c, 1, 64, 127
2, 71240, Note_on_c, 1, 80, 127
2, 71240, Note_off_c, 1, 81, 0
2, 71560, Note_off_c, 1, 52, 0
2, 71560, Note_off_c, 1, 64, 0
2, 71560, Note_off_c, 1, 73, 0
2, 71560, Note_off_c, 1, 80, 0
2, 71600, Note_on_c, 1, 69, 127
2, 71600, Note_on_c, 1, 73, 127
2, 71600, Note_on_c, 1, 86, 127
2, 71920, Note_off_c, 1, 69, 0
2, 71920, Note_off_c, 1, 73, 0
2, 71920, Note_off_c, 1, 86, 0
2, 71960, Note_on_c, 1, 73, 127
2, 72000, Note_on_c, 1, 66, 127
2, 72000, Note_on_c, 1, 81, 127
2, 72320, Note_off_c, 1, 66, 0
2, 72320, Note_off_c, 1, 73, 0
2, 72320, Note_off_c, 1, 81, 0
2, 72360, Note_on_c, 1, 59, 127
2, 72360, Note_on_c, 1, 74, 127
2, 72360, Note_on_c, 1, 81, 127
2, 72680, Note_off_c, 1, 59, 0
2, 72680, Note_on_c, 1, 62, 127
2, 72680, Note_off_c, 1, 81, 0
2, 72720, Note_off_c, 1, 62, 0
2, 72720, Note_on_c, 1, 64, 127
2, 72720, Note_on_c, 1, 80, 127
2, 73040, Note_off_c, 1, 64, 0
2, 73040, Note_off_c, 1, 74, 0
2, 73040, Note_off_c, 1, 80, 0
2, 73080, Note_on_c, 1, 52, 127
2, 73080, Note_on_c, 1, 73, 127
2, 73080, Note_on_c, 1, 81, 127
2, 73760, Note_off_c, 1, 52, 0
2, 73760, Note_off_c, 1, 73, 0
2, 73760, Note_off_c, 1, 81, 0
2, 73800, Note_on_c, 1, 50, 127
2, 73800, Note_on_c, 1, 69, 127
2, 73800, Note_on_c, 1, 77, 127
2, 74040, Note_off_c, 1, 50, 0
2, 74040, Note_off_c, 1, 69, 0
2, 74040, Note_off_c, 1, 77, 0
2, 74080, Note_on_c, 1, 50, 127
2, 74080, Note_on_c, 1, 69, 127
2, 74080, Note_on_c, 1, 77, 127
2, 74160, Note_off_c, 1, 50, 0
2, 74160, Note_off_c, 1, 69, 0
2, 74200, Note_on_c, 1, 57, 127
2, 74200, Note_on_c, 1, 72, 127
2, 74200, Note_off_c, 1, 77, 0
2, 74200, Note_on_c, 1, 81, 127
2, 74520, Note_off_c, 1, 57, 0
2, 74520, Note_off_c, 1, 81, 0
2, 74560, Note_on_c, 1, 48, 127
2, 74560, Note_on_c, 1, 81, 127
2, 74880, Note_off_c, 1, 48, 0
2, 74880, Note_off_c, 1, 72, 0
2, 74880, Note_off_c, 1, 81, 0
2, 74920, Note_on_c, 1, 60, 127
2, 74920, Note_on_c, 1, 76, 127
2, 74920, Note_on_c, 1, 81, 127
2, 75240, Note_off_c, 1, 60, 0
2, 75240, Note_off_c, 1, 81, 0
2, 75280, Note_on_c, 1, 60, 127
2, 75280, Note_on_c, 1, 81, 127
2, 75520, Note_off_c, 1, 81, 0
2, 75520, Note_on_c, 1, 84, 127
2, 75560, Note_on_c, 1, 81, 127
2, 75560, Note_off_c, 1, 84, 0
2, 75600, Note_off_c, 1, 60, 0
2, 75600, Note_off_c, 1, 81, 0
2, 75640, Note_on_c, 1, 62, 127
2, 75640, Note_on_c, 1, 71, 127
2, 75640, Note_off_c, 1, 76, 0
2, 75640, Note_on_c, 1, 77, 127
2, 75960, Note_off_c, 1, 62, 0
2, 75960, Note_off_c, 1, 71, 0
2, 75960, Note_off_c, 1, 77, 0
2, 76000, Note_on_c, 1, 65, 127
2, 76000, Note_on_c, 1, 69, 127
2, 76000, Note_on_c, 1, 74, 127
2, 76120, Note_off_c, 1, 65, 0
2, 76120, Note_off_c, 1, 69, 0
2, 76120, Note_off_c, 1, 74, 0
2, 76160, Note_on_c, 1, 65, 127
2, 76160, Note_on_c, 1, 69, 127
2, 76160, Note_on_c, 1, 74, 127
2, 76320, Note_off_c, 1, 65, 0
2, 76320, Note_off_c, 1, 69, 0
2, 76320, Note_off_c, 1, 74, 0
2, 76320, Note_on_c, 1, 76, 127
2, 76360, Note_on_c, 1, 64, 127
2, 76360, Note_on_c, 1, 67, 127
2, 76360, Note_off_c, 1, 76, 0
2, 76360, Note_on_c, 1, 79, 127
2, 76680, Note_off_c, 1, 64, 0
2, 76680, Note_off_c, 1, 67, 0
2, 76720, Note_on_c, 1, 57, 127
2, 77080, Note_off_c, 1, 57, 0
2, 77120, Note_on_c, 1, 64, 127
2, 77120, Note_on_c, 1, 67, 127
2, 77400, Note_off_c, 1, 67, 0
2, 77440, Note_off_c, 1, 64, 0
2, 77440, Note_off_c, 1, 79, 0
2, 77480, Note_on_c, 1, 53, 127
2, 77480, Note_on_c, 1, 70, 127
2, 77480, Note_on_c, 1, 76, 127
2, 77800, Note_off_c, 1, 70, 0
2, 77800, Note_off_c, 1, 76, 0
2, 77840, Note_on_c, 1, 62, 127
2, 77840, Note_on_c, 1, 83, 127
2, 78160, Note_off_c, 1, 53, 0
2, 78160, Note_off_c, 1, 62, 0
2, 78160, Note_off_c, 1, 83, 0
2, 78200, Note_on_c, 1, 83, 127
2, 78480, Note_off_c, 1, 83, 0
2, 78520, Note_on_c, 1, 83, 127
2, 78600, Note_on_c, 1, 49, 127
2, 78600, Note_on_c, 1, 53, 127
2, 78600, Note_on_c, 1, 59, 127
2, 78600, Note_on_c, 1, 68, 127
2, 78600, Note_on_c, 1, 73, 127
2, 78600, Note_off_c, 1, 83, 0
2, 78640, Note_off_c, 1, 49, 0
2, 78640, Note_off_c, 1, 53, 0
2, 78640, Note_off_c, 1, 59, 0
2, 78640, Note_off_c, 1, 73, 0
2, 78640, Note_on_c, 1, 81, 127
2, 78640, Note_on_c, 1, 82, 127
2, 78680, Note_on_c, 1, 42, 127
2, 78680, Note_on_c, 1, 54, 127
2, 78680, Note_on_c, 1, 57, 127
2, 78680, Note_on_c, 1, 59, 127
2, 78680, Note_on_c, 1, 61, 127
2, 78680, Note_off_c, 1, 68, 0
2, 78680, Note_off_c, 1, 81, 0
2, 78680, Note_off_c, 1, 82, 0
2, 78720, Note_off_c, 1, 42, 0
2, 78720, Note_off_c, 1, 54, 0
2, 78720, Note_off_c, 1, 57, 0
2, 78720, Note_off_c, 1, 59, 0
2, 78720, Note_on_c, 1, 74, 127
2, 78720, Note_on_c, 1, 81, 127
2, 78760, Note_on_c, 1, 57, 127
2, 78760, Note_off_c, 1, 61, 0
2, 78760, Note_on_c, 1, 64, 127
2, 78760, Note_off_c, 1, 74, 0
2, 78760, Note_off_c, 1, 81, 0
2, 78760, Note_on_c, 1, 83, 127
2, 78760, Note_on_c, 1, 86, 127
2, 78800, Note_on_c, 1, 76, 127
2, 78800, Note_off_c, 1, 83, 0
2, 78800, Note_on_c, 1, 84, 127
2, 78800, Note_off_c, 1, 86, 0
2, 78840, Note_off_c, 1, 76, 0
2, 78840, Note_off_c, 1, 84, 0
2, 78840, Note_on_c, 1, 97, 127
2, 78880, Note_on_c, 1, 83, 127
2, 78880, Note_on_c, 1, 86, 127
2, 78880, Note_off_c, 1, 97, 0
2, 78920, Note_off_c, 1, 83, 0
2, 78920, Note_off_c, 1, 86, 0
2, 78960, Note_on_c, 1, 81, 127
2, 79280, Note_off_c, 1, 57, 0
2, 79280, Note_off_c, 1, 64, 0
2, 79280, Note_off_c, 1, 81, 0
2, 79320, Note_on_c, 1, 58, 127
2, 79320, Note_on_c, 1, 79, 127
2, 79640, Note_off_c, 1, 58, 0
2, 79680, Note_on_c, 1, 62, 127
2, 79680, Note_on_c, 1, 70, 127
2, 80000, Note_off_c, 1, 62, 0
2, 80000, Note_off_c, 1, 70, 0
2, 80040, Note_on_c, 1, 55, 127
2, 80360, Note_off_c, 1, 55, 0
2, 80400, Note_on_c, 1, 65, 127
2, 80400, Note_on_c, 1, 67, 127
2, 80400, Note_off_c, 1, 79, 0
2, 80400, Note_on_c, 1, 81, 127
2, 80560, Note_on_c, 1, 79, 127
2, 80560, Note_off_c, 1, 81, 0
2, 80720, Note_off_c, 1, 65, 0
2, 80720, Note_off_c, 1, 67, 0
2, 80760, Note_on_c, 1, 58, 127
2, 80760, Note_off_c, 1, 79, 0
2, 80760, Note_on_c, 1, 81, 127
2, 80840, Note_off_c, 1, 58, 0
2, 80840, Note_off_c, 1, 81, 0
2, 80880, Note_on_c, 1, 58, 127
2, 80880, Note_on_c, 1, 81, 127
2, 81120, Note_off_c, 1, 58, 0
2, 81120, Note_off_c, 1, 81, 0
2, 81160, Note_on_c, 1, 64, 127
2, 81160, Note_on_c, 1, 79, 127
2, 81480, Note_off_c, 1, 64, 0
2, 81480, Note_off_c, 1, 79, 0
2, 81520, Note_on_c, 1, 69, 127
2, 81520, Note_on_c, 1, 81, 127
2, 81840, Note_off_c, 1, 69, 0
2, 81840, Note_off_c, 1, 81, 0
2, 81880, Note_on_c, 1, 54, 127
2, 81880, Note_on_c, 1, 74, 127
2, 82200, Note_off_c, 1, 54, 0
2, 82240, Note_on_c, 1, 62, 127
2, 82240, Note_on_c, 1, 69, 127
2, 82560, Note_off_c, 1, 62, 0
2, 82560, Note_off_c, 1, 69, 0
2, 82600, Note_on_c, 1, 62, 127
2, 82600, Note_on_c, 1, 70, 127
2, 82920, Note_off_c, 1, 62, 0
2, 82920, Note_off_c, 1, 70, 0
2, 82920, Note_off_c, 1, 74, 0
2, 82960, Note_on_c, 1, 57, 127
2, 82960, Note_on_c, 1, 74, 127
2, 83200, Note_off_c, 1, 57, 0
2, 83200, Note_off_c, 1, 74, 0
2, 83240, Note_on_c, 1, 57, 127
2, 83240, Note_on_c, 1, 74, 127
2, 83320, Note_off_c, 1, 57, 0
2, 83360, Note_on_c, 1, 50, 127
2, 83680, Note_off_c, 1, 50, 0
2, 83720, Note_on_c, 1, 57, 127
2, 84040, Note_off_c, 1, 57, 0
2, 84120, Note_on_c, 1, 57, 127
2, 84400, Note_off_c, 1, 57, 0
2, 84440, Note_on_c, 1, 62, 127
2, 84760, Note_off_c, 1, 62, 0
2, 84760, Note_off_c, 1, 74, 0
2, 84800, Note_on_c, 1, 54, 127
2, 84800, Note_on_c, 1, 70, 127
2, 85120, Note_off_c, 1, 54, 0
2, 85160, Note_on_c, 1, 64, 127
2, 85480, Note_off_c, 1, 64, 0
2, 85520, Note_on_c, 1, 61, 127
2, 85520, Note_on_c, 1, 66, 127
2, 85560, Note_off_c, 1, 61, 0
2, 85560, Note_off_c, 1, 66, 0
2, 85560, Note_off_c, 1, 70, 0
2, 85600, Note_on_c, 1, 61, 127
2, 85600, Note_on_c, 1, 66, 127
2, 85600, Note_on_c, 1, 70, 127
2, 85920, Note_off_c, 1, 70, 0
2, 85920, Note_on_c, 1, 78, 127
2, 86240, Note_off_c, 1, 61, 0
2, 86240, Note_off_c, 1, 66, 0
2, 86240, Note_off_c, 1, 78, 0
2, 86280, Note_on_c, 1, 57, 127
2, 86600, Note_off_c, 1, 57, 0
2, 86640, Note_on_c, 1, 45, 127
2, 86640, Note_on_c, 1, 55, 127
2, 86640, Note_on_c, 1, 60, 127
2, 86640, Note_on_c, 1, 69, 127
2, 86960, Note_off_c, 1, 45, 0
2, 86960, Note_off_c, 1, 55, 0
2, 86960, Note_off_c, 1, 60, 0
2, 86960, Note_off_c, 1, 69, 0
2, 87000, Note_on_c, 1, 50, 127
2, 87000, Note_on_c, 1, 55, 127
2, 87000, Note_on_c, 1, 60, 127
2, 87000, Note_on_c, 1, 62, 127
2, 87000, Note_on_c, 1, 69, 127
2, 87240, Note_off_c, 1, 55, 0
2, 87480, Note_on_c, 1, 54, 127
2, 87480, Note_on_c, 1, 57, 127
2, 87480, Note_off_c, 1, 60, 0
2, 87520, Note_off_c, 1, 50, 0
2, 87520, Note_off_c, 1, 54, 0
2, 87520, Note_off_c, 1, 57, 0
2, 87520, Note_off_c, 1, 62, 0
2, 87520, Note_off_c, 1, 69, 0
2, 87560, Note_on_c, 1, 50, 127
2, 87560, Note_on_c, 1, 60, 127
2, 87560, Note_on_c, 1, 62, 127
2, 87560, Note_on_c, 1, 69, 127
2, 87640, Note_off_c, 1, 50, 0
2, 87720, Note_off_c, 1, 60, 0
2, 87720, Note_off_c, 1, 62, 0
2, 87720, Note_on_c, 1, 64, 127
2, 87720, Note_on_c, 1, 67, 127
2, 87720, Note_on_c, 1, 74, 127
2, 87760, Note_on_c, 1, 36, 127
2, 87760, Note_on_c, 1, 62, 127
2, 87760, Note_off_c, 1, 64, 0
2, 87760, Note_on_c, 1, 66, 127
2, 87760, Note_off_c, 1, 67, 0
2, 87760, Note_off_c, 1, 74, 0
2, 88080, Note_off_c, 1, 36, 0
2, 88320, Note_on_c, 1, 50, 127
2, 88440, Note_off_c, 1, 50, 0
2, 88440, Note_off_c, 1, 62, 0
2, 88440, Note_off_c, 1, 66, 0
2, 88440, Note_off_c, 1, 69, 0
2, 88480, Note_on_c, 1, 67, 127
2, 88480, Note_on_c, 1, 71, 127
2, 88840, Note_on_c, 1, 86, 127
2, 89160, Note_off_c, 1, 67, 0
2, 89160, Note_off_c, 1, 71, 0
2, 89160, Note_off_c, 1, 86, 0
2, 89200, Note_on_c, 1, 62, 127
2, 89200, Note_on_c, 1, 71, 127
2, 89200, Note_on_c, 1, 79, 127
2, 89520, Note_off_c, 1, 79, 0
2, 89560, Note_off_c, 1, 62, 0
2, 89560, Note_off_c, 1, 71, 0
2, 89600, Note_on_c, 1, 62, 127
2, 89600, Note_on_c, 1, 71, 127
2, 89600, Note_on_c, 1, 79, 127
2, 90640, Note_off_c, 1, 71, 0
2, 90640, Note_off_c, 1, 79, 0
2, 90680, Note_on_c, 1, 72, 127
2, 90680, Note_on_c, 1, 78, 127
2, 90680, Note_on_c, 1, 81, 127
2, 91720, Note_off_c, 1, 62, 0
2, 91720, Note_off_c, 1, 72, 0
2, 91720, Note_off_c, 1, 78, 0
2, 91720, Note_off_c, 1, 81, 0
2, 91760, Note_on_c, 1, 67, 127
2, 91760, Note_on_c, 1, 71, 127
2, 91760, Note_on_c, 1, 79, 127
2, 92040, Note_off_c, 1, 67, 0
2, 92040, Note_off_c, 1, 71, 0
2, 92040, Note_off_c, 1, 79, 0
2, 92080, Note_on_c, 1, 67, 127
2, 92080, Note_on_c, 1, 71, 127
2, 92080, Note_on_c, 1, 79, 127
2, 92440, Note_off_c, 1, 79, 0
2, 92480, Note_on_c, 1, 78, 127
2, 92800, Note_off_c, 1, 78, 0
2, 92840, Note_on_c, 1, 79, 127
2, 93160, Note_off_c, 1, 79, 0
2, 93200, Note_on_c, 1, 79, 127
2, 93520, Note_off_c, 1, 79, 0
2, 93880, Note_off_c, 1, 67, 0
2, 93880, Note_off_c, 1, 71, 0
2, 93920, Note_on_c, 1, 62, 127
2, 93920, Note_on_c, 1, 74, 127
2, 94160, Note_off_c, 1, 62, 0
2, 94160, Note_off_c, 1, 74, 0
2, 94200, Note_on_c, 1, 62, 127
2, 94200, Note_on_c, 1, 74, 127
2, 94280, Note_off_c, 1, 62, 0
2, 94280, Note_off_c, 1, 74, 0
2, 94320, Note_on_c, 1, 67, 127
2, 94320, Note_on_c, 1, 72, 127
2, 94640, Note_off_c, 1, 67, 0
2, 94640, Note_off_c, 1, 72, 0
2, 94680, Note_on_c, 1, 62, 127
2, 94680, Note_on_c, 1, 71, 127
2, 95000, Note_off_c, 1, 62, 0
2, 95000, Note_off_c, 1, 71, 0
2, 95040, Note_on_c, 1, 67, 127
2, 95720, Note_off_c, 1, 67, 0
2, 95760, Note_on_c, 1, 64, 127
2, 96080, Note_off_c, 1, 64, 0
2, 96120, Note_on_c, 1, 66, 127
2, 96400, Note_off_c, 1, 66, 0
2, 96440, Note_on_c, 1, 66, 127
2, 96480, Note_off_c, 1, 66, 0
2, 96520, Note_on_c, 1, 55, 127
2, 96520, Note_on_c, 1, 67, 127
2, 96840, Note_off_c, 1, 55, 0
2, 96840, Note_off_c, 1, 67, 0
2, 96880, Note_on_c, 1, 57, 127
2, 96880, Note_on_c, 1, 72, 127
2, 97200, Note_off_c, 1, 57, 0
2, 97200, Note_off_c, 1, 72, 0
2, 97240, Note_on_c, 1, 59, 127
2, 97240, Note_on_c, 1, 67, 127
2, 97560, Note_off_c, 1, 59, 0
2, 97560, Note_off_c, 1, 67, 0
2, 97600, Note_on_c, 1, 64, 127
2, 97600, Note_on_c, 1, 74, 127
2, 97920, Note_off_c, 1, 64, 0
2, 97920, Note_off_c, 1, 74, 0
2, 97960, Note_on_c, 1, 67, 127
2, 97960, Note_on_c, 1, 72, 127
2, 98200, Note_off_c, 1, 72, 0
2, 98240, Note_on_c, 1, 76, 127
2, 98280, Note_off_c, 1, 67, 0
2, 98280, Note_off_c, 1, 76, 0
2, 98320, Note_on_c, 1, 62, 127
2, 98320, Note_on_c, 1, 71, 127
2, 98560, Note_off_c, 1, 62, 0
2, 98560, Note_off_c, 1, 71, 0
2, 98600, Note_on_c, 1, 62, 127
2, 98600, Note_on_c, 1, 71, 127
2, 98640, Note_off_c, 1, 71, 0
2, 98680, Note_off_c, 1, 62, 0
2, 98680, Note_on_c, 1, 67, 127
2, 98680, Note_on_c, 1, 72, 127
2, 99000, Note_off_c, 1, 67, 0
2, 99000, Note_on_c, 1, 76, 127
2, 99040, Note_off_c, 1, 72, 0
2, 99040, Note_off_c, 1, 76, 0
2, 99080, Note_on_c, 1, 67, 127
2, 99080, Note_on_c, 1, 72, 127
2, 99400, Note_off_c, 1, 67, 0
2, 99400, Note_off_c, 1, 72, 0
2, 99440, Note_on_c, 1, 60, 127
2, 99440, Note_on_c, 1, 76, 127
2, 99760, Note_off_c, 1, 60, 0
2, 99760, Note_off_c, 1, 76, 0
2, 99800, Note_on_c, 1, 65, 127
2, 99800, Note_on_c, 1, 71, 127
2, 100120, Note_off_c, 1, 65, 0
2, 100120, Note_off_c, 1, 71, 0
2, 100160, Note_on_c, 1, 64, 127
2, 100160, Note_on_c, 1, 72, 127
2, 100480, Note_off_c, 1, 64, 0
2, 100520, Note_on_c, 1, 67, 127
2, 100800, Note_off_c, 1, 67, 0
2, 100800, Note_off_c, 1, 72, 0
2, 100840, Note_on_c, 1, 67, 127
2, 100840, Note_on_c, 1, 72, 127
2, 100880, Note_off_c, 1, 67, 0
2, 100880, Note_off_c, 1, 72, 0
2, 100920, Note_on_c, 1, 64, 127
2, 100920, Note_on_c, 1, 72, 127
2, 101240, Note_off_c, 1, 64, 0
2, 101240, Note_off_c, 1, 72, 0
2, 101280, Note_on_c, 1, 67, 127
2, 101280, Note_on_c, 1, 72, 127
2, 101600, Note_off_c, 1, 67, 0
2, 101600, Note_off_c, 1, 72, 0
2, 101640, Note_on_c, 1, 67, 127
2, 101640, Note_on_c, 1, 76, 127
2, 102000, Note_off_c, 1, 67, 0
2, 102040, Note_on_c, 1, 69, 127
2, 102360, Note_off_c, 1, 69, 0
2, 102360, Note_off_c, 1, 76, 0
2, 102400, Note_on_c, 1, 67, 127
2, 102400, Note_on_c, 1, 77, 127
2, 102720, Note_off_c, 1, 67, 0
2, 102720, Note_off_c, 1, 77, 0
2, 102760, Note_on_c, 1, 64, 127
2, 102760, Note_on_c, 1, 72, 127
2, 103000, Note_off_c, 1, 72, 0
2, 103040, Note_on_c, 1, 74, 127
2, 103080, Note_off_c, 1, 64, 0
2, 103080, Note_off_c, 1, 74, 0
2, 103120, Note_on_c, 1, 67, 127
2, 103120, Note_on_c, 1, 72, 127
2, 103320, Note_off_c, 1, 67, 0
2, 103320, Note_off_c, 1, 72, 0
2, 103360, Note_on_c, 1, 67, 127
2, 103360, Note_on_c, 1, 72, 127
2, 103480, Note_off_c, 1, 67, 0
2, 103480, Note_off_c, 1, 72, 0
2, 103520, Note_on_c, 1, 60, 127
2, 103520, Note_on_c, 1, 72, 127
2, 103840, Note_off_c, 1, 60, 0
2, 103840, Note_off_c, 1, 72, 0
2, 103880, Note_on_c, 1, 67, 127
2, 103880, Note_on_c, 1, 72, 127
2, 104200, Note_off_c, 1, 67, 0
2, 104200, Note_off_c, 1, 72, 0
2, 104240, Note_on_c, 1, 60, 127
2, 104240, Note_on_c, 1, 76, 127
2, 104560, Note_off_c, 1, 60, 0
2, 104560, Note_off_c, 1, 76, 0
2, 104600, Note_on_c, 1, 67, 127
2, 104600, Note_on_c, 1, 77, 127
2, 104920, Note_off_c, 1, 67, 0
2, 104920, Note_off_c, 1, 77, 0
2, 104960, Note_on_c, 1, 60, 127
2, 104960, Note_on_c, 1, 76, 127
2, 105280, Note_off_c, 1, 60, 0
2, 105280, Note_off_c, 1, 76, 0
2, 105320, Note_on_c, 1, 67, 127
2, 105640, Note_off_c, 1, 67, 0
2, 105720, Note_on_c, 1, 64, 127
2, 106040, Note_off_c, 1, 64, 0
2, 106080, Note_on_c, 1, 67, 127
2, 106080, Note_on_c, 1, 77, 127
2, 106400, Note_off_c, 1, 67, 0
2, 106400, Note_off_c, 1, 77, 0
2, 106440, Note_on_c, 1, 64, 127
2, 106440, Note_on_c, 1, 74, 127
2, 106760, Note_off_c, 1, 64, 0
2, 106760, Note_off_c, 1, 74, 0
2, 106800, Note_on_c, 1, 67, 127
2, 106800, Note_on_c, 1, 72, 127
2, 107120, Note_off_c, 1, 67, 0
2, 107120, Note_off_c, 1, 72, 0
2, 107160, Note_on_c, 1, 60, 127
2, 107160, Note_on_c, 1, 76, 127
2, 107480, Note_off_c, 1, 60, 0
2, 107480, Note_off_c, 1, 76, 0
2, 107520, Note_on_c, 1, 67, 127
2, 107520, Note_on_c, 1, 76, 127
2, 107840, Note_off_c, 1, 67, 0
2, 107840, Note_off_c, 1, 76, 0
2, 107880, Note_on_c, 1, 76, 127
2, 107920, Note_on_c, 1, 60, 127
2, 108240, Note_off_c, 1, 60, 0
2, 108240, Note_off_c, 1, 76, 0
2, 108280, Note_on_c, 1, 67, 127
2, 108600, Note_off_c, 1, 67, 0
2, 108640, Note_on_c, 1, 55, 127
2, 108960, Note_off_c, 1, 55, 0
2, 109000, Note_on_c, 1, 83, 127
2, 109320, Note_off_c, 1, 83, 0
2, 109360, Note_on_c, 1, 64, 127
2, 109360, Note_on_c, 1, 72, 127
2, 109680, Note_off_c, 1, 64, 0
2, 109680, Note_off_c, 1, 72, 0
2, 109720, Note_on_c, 1, 67, 127
2, 109720, Note_on_c, 1, 72, 127
2, 110040, Note_off_c, 1, 67, 0
2, 110040, Note_off_c, 1, 72, 0
2, 110080, Note_on_c, 1, 74, 127
2, 110200, Note_off_c, 1, 74, 0
2, 110240, Note_on_c, 1, 74, 127
2, 110400, Note_off_c, 1, 74, 0
2, 110440, Note_on_c, 1, 60, 127
2, 110440, Note_on_c, 1, 76, 127
2, 110760, Note_off_c, 1, 60, 0
2, 110760, Note_off_c, 1, 76, 0
2, 110800, Note_on_c, 1, 64, 127
2, 111120, Note_off_c, 1, 64, 0
2, 111160, Note_on_c, 1, 67, 127
2, 111160, Note_on_c, 1, 72, 127
2, 111480, Note_off_c, 1, 67, 0
2, 111480, Note_off_c, 1, 72, 0
2, 111520, Note_on_c, 1, 60, 127
2, 111520, Note_on_c, 1, 76, 127
2, 111840, Note_off_c, 1, 60, 0
2, 111840, Note_off_c, 1, 76, 0
2, 111880, Note_on_c, 1, 64, 127
2, 111880, Note_on_c, 1, 81, 127
2, 112200, Note_off_c, 1, 64, 0
2, 112200, Note_off_c, 1, 81, 0
2, 112240, Note_on_c, 1, 67, 127
2, 112240, Note_on_c, 1, 79, 127
2, 112480, Note_off_c, 1, 67, 0
2, 112480, Note_off_c, 1, 79, 0
2, 112520, Note_on_c, 1, 67, 127
2, 112520, Note_on_c, 1, 79, 127
2, 112600, Note_off_c, 1, 67, 0
2, 112640, Note_on_c, 1, 64, 127
2, 112960, Note_off_c, 1, 64, 0
2, 112960, Note_off_c, 1, 79, 0
2, 113000, Note_on_c, 1, 67, 127
2, 113000, Note_on_c, 1, 79, 127
2, 113320, Note_off_c, 1, 67, 0
2, 113360, Note_on_c, 1, 62, 127
2, 113680, Note_off_c, 1, 62, 0
2, 113680, Note_off_c, 1, 79, 0
2, 113720, Note_on_c, 1, 67, 127
2, 113720, Note_on_c, 1, 77, 127
2, 114040, Note_off_c, 1, 67, 0
2, 114040, Note_off_c, 1, 77, 0
2, 114040, Note_on_c, 1, 78, 127
2, 114080, Note_on_c, 1, 62, 127
2, 114080, Note_off_c, 1, 78, 0
2, 114080, Note_on_c, 1, 79, 127
2, 114400, Note_off_c, 1, 62, 0
2, 114400, Note_off_c, 1, 79, 0
2, 114440, Note_on_c, 1, 67, 127
2, 114440, Note_on_c, 1, 77, 127
2, 114560, Note_off_c, 1, 67, 0
2, 114560, Note_off_c, 1, 77, 0
2, 114600, Note_on_c, 1, 67, 127
2, 114600, Note_on_c, 1, 77, 127
2, 114760, Note_off_c, 1, 67, 0
2, 114760, Note_off_c, 1, 77, 0
2, 114800, Note_on_c, 1, 60, 127
2, 114800, Note_on_c, 1, 76, 127
2, 115120, Note_off_c, 1, 60, 0
2, 115120, Note_off_c, 1, 76, 0
2, 115160, Note_on_c, 1, 67, 127
2, 115160, Note_on_c, 1, 77, 127
2, 115480, Note_off_c, 1, 67, 0
2, 115480, Note_off_c, 1, 77, 0
2, 115520, Note_on_c, 1, 57, 127
2, 115520, Note_on_c, 1, 73, 127
2, 115840, Note_off_c, 1, 57, 0
2, 115840, Note_off_c, 1, 73, 0
2, 115880, Note_on_c, 1, 67, 127
2, 115880, Note_on_c, 1, 74, 127
2, 116200, Note_off_c, 1, 67, 0
2, 116200, Note_off_c, 1, 74, 0
2, 116240, Note_on_c, 1, 59, 127
2, 116240, Note_on_c, 1, 76, 127
2, 116560, Note_off_c, 1, 59, 0
2, 116560, Note_off_c, 1, 76, 0
2, 116600, Note_on_c, 1, 65, 127
2, 116600, Note_on_c, 1, 74, 127
2, 116840, Note_off_c, 1, 65, 0
2, 116840, Note_off_c, 1, 74, 0
2, 116880, Note_on_c, 1, 65, 127
2, 116880, Note_on_c, 1, 74, 127
2, 116960, Note_off_c, 1, 65, 0
2, 117000, Note_on_c, 1, 62, 127
2, 117320, Note_off_c, 1, 62, 0
2, 117320, Note_off_c, 1, 74, 0
2, 117360, Note_on_c, 1, 67, 127
2, 117360, Note_on_c, 1, 77, 127
2, 117680, Note_off_c, 1, 67, 0
2, 117680, Note_off_c, 1, 77, 0
2, 117720, Note_on_c, 1, 60, 127
2, 117720, Note_on_c, 1, 76, 127
2, 118040, Note_off_c, 1, 60, 0
2, 118040, Note_off_c, 1, 76, 0
2, 118080, Note_on_c, 1, 67, 127
2, 118080, Note_on_c, 1, 81, 127
2, 118400, Note_off_c, 1, 67, 0
2, 118400, Note_off_c, 1, 81, 0
2, 118440, Note_on_c, 1, 64, 127
2, 118440, Note_on_c, 1, 79, 127
2, 118760, Note_off_c, 1, 64, 0
2, 118800, Note_on_c, 1, 67, 127
2, 119040, Note_off_c, 1, 67, 0
2, 119040, Note_off_c, 1, 79, 0
2, 119080, Note_on_c, 1, 67, 127
2, 119080, Note_on_c, 1, 79, 127
2, 119120, Note_off_c, 1, 67, 0
2, 119120, Note_off_c, 1, 79, 0
2, 119160, Note_on_c, 1, 60, 127
2, 119480, Note_off_c, 1, 60, 0
2, 119520, Note_on_c, 1, 65, 127
2, 119520, Note_on_c, 1, 74, 127
2, 119840, Note_off_c, 1, 65, 0
2, 119840, Note_off_c, 1, 74, 0
2, 119880, Note_on_c, 1, 60, 127
2, 119880, Note_on_c, 1, 77, 127
2, 120000, Note_off_c, 1, 60, 0
2, 120000, Note_off_c, 1, 77, 0
2, 120040, End_track
3, 0, Start_track
3, 0, Title_t, "MIDI"
3, 1536, End_track
0, 0, End_of_file
