0, 0, Header, 1, 3, 192
1, 0, Start_track
1, 0, Time_signature, 4, 2, 24, 8
1, 0, Tempo, 500000
1, 120040, End_track
2, 0, Start_track
2, 0, Text_t, "random instrument: random person i dunno whatev"
2, 0, Title_t, "Track 1"
2, 0, Note_on_c, 1, 40, 127
2, 0, Note_on_c, 1, 48, 127
2, 0, Note_on_c, 1, 56, 127
2, 0, Note_on_c, 1, 60, 127
2, 40, Note_off_c, 1, 40, 0
2, 40, Note_on_c, 1, 42, 127
2, 40, Note_off_c, 1, 48, 0
2, 40, Note_on_c, 1, 49, 127
2, 40, Note_on_c, 1, 54, 127
2, 40, Note_off_c, 1, 56, 0
2, 40, Note_off_c, 1, 60, 0
2, 40, Note_on_c, 1, 82, 127
2, 40, Note_on_c, 1, 88, 127
2, 40, Note_on_c, 1, 94, 127
2, 80, Note_off_c, 1, 42, 0
2, 80, Note_off_c, 1, 49, 0
2, 80, Note_on_c, 1, 52, 127
2, 80, Note_off_c, 1, 54, 0
2, 80, Note_on_c, 1, 57, 127
2, 80, Note_on_c, 1, 61, 127
2, 80, Note_on_c, 1, 64, 127
2, 80, Note_on_c, 1, 69, 127
2, 80, Note_on_c, 1, 73, 127
2, 80, Note_on_c, 1, 78, 127
2, 80, Note_off_c, 1, 82, 0
2, 80, Note_off_c, 1, 88, 0
2, 80, Note_off_c, 1, 94, 0
2, 120, Note_off_c, 1, 52, 0
2, 120, Note_off_c, 1, 57, 0
2, 120, Note_off_c, 1, 61, 0
2, 120, Note_off_c, 1, 64, 0
2, 120, Note_off_c, 1, 69, 0
2, 120, Note_off_c, 1, 73, 0
2, 120, Note_off_c, 1, 78, 0
2, 200, Note_on_c, 1, 35, 127
2, 200, Note_on_c, 1, 39, 127
2, 200, Note_on_c, 1, 47, 127
2, 200, Note_on_c, 1, 50, 127
2, 240, Note_off_c, 1, 35, 0
2, 240, Note_off_c, 1, 39, 0
2, 240, Note_off_c, 1, 47, 0
2, 240, Note_off_c, 1, 50, 0
2, 240, Note_on_c, 1, 85, 127
2, 240, Note_on_c, 1, 91, 127
2, 240, Note_on_c, 1, 97, 127
2, 280, Note_off_c, 1, 85, 0
2, 280, Note_off_c, 1, 91, 0
2, 280, Note_off_c, 1, 97, 0
2, 400, Note_on_c, 1, 47, 127
2, 400, Note_on_c, 1, 59, 127
2, 400, Note_on_c, 1, 66, 127
2, 400, Note_on_c, 1, 71, 127
2, 400, Note_on_c, 1, 74, 127
2, 600, Note_on_c, 1, 40, 127
2, 600, Note_off_c, 1, 47, 0
2, 600, Note_on_c, 1, 52, 127
2, 600, Note_off_c, 1, 59, 0
2, 600, Note_off_c, 1, 66, 0
2, 600, Note_off_c, 1, 74, 0
2, 600, Note_on_c, 1, 76, 127
2, 600, Note_on_c, 1, 80, 127
2, 600, Note_on_c, 1, 83, 127
2, 640, Note_off_c, 1, 40, 0
2, 640, Note_off_c, 1, 52, 0
2, 640, Note_off_c, 1, 71, 0
2, 640, Note_off_c, 1, 76, 0
2, 640, Note_off_c, 1, 80, 0
2, 640, Note_off_c, 1, 83, 0
2, 840, Note_on_c, 1, 53, 127
2, 840, Note_on_c, 1, 59, 127
2, 840, Note_on_c, 1, 63, 127
2, 840, Note_on_c, 1, 68, 127
2, 840, Note_on_c, 1, 80, 127
2, 840, Note_on_c, 1, 83, 127
2, 880, Note_on_c, 1, 40, 127
2, 880, Note_on_c, 1, 52, 127
2, 880, Note_off_c, 1, 53, 0
2, 880, Note_off_c, 1, 59, 0
2, 880, Note_off_c, 1, 63, 0
2, 880, Note_off_c, 1, 68, 0
2, 880, Note_on_c, 1, 69, 127
2, 880, Note_on_c, 1, 78, 127
2, 880, Note_off_c, 1, 80, 0
2, 880, Note_on_c, 1, 81, 127
2, 880, Note_off_c, 1, 83, 0
2, 920, Note_off_c, 1, 40, 0
2, 920, Note_off_c, 1, 52, 0
2, 920, Note_on_c, 1, 62, 127
2, 920, Note_on_c, 1, 64, 127
2, 920, Note_on_c, 1, 67, 127
2, 920, Note_on_c, 1, 73, 127
2, 920, Note_off_c, 1, 78, 0
2, 920, Note_on_c, 1, 79, 127
2, 960, Note_on_c, 1, 61, 127
2, 960, Note_off_c, 1, 62, 0
2, 960, Note_off_c, 1, 64, 0
2, 960, Note_on_c, 1, 65, 127
2, 960, Note_off_c, 1, 67, 0
2, 960, Note_off_c, 1, 69, 0
2, 960, Note_off_c, 1, 73, 0
2, 960, Note_off_c, 1, 79, 0
2, 960, Note_off_c, 1, 81, 0
2, 960, Note_on_c, 1, 88, 127
2, 1000, Note_off_c, 1, 61, 0
2, 1000, Note_off_c, 1, 65, 0
2, 1000, Note_off_c, 1, 88, 0
2, 1040, Note_on_c, 1, 36, 127
2, 1040, Note_on_c, 1, 48, 127
2, 1040, Note_on_c, 1, 81, 127
2, 1040, Note_on_c, 1, 93, 127
2, 1080, Note_off_c, 1, 36, 0
2, 1080, Note_off_c, 1, 48, 0
2, 1080, Note_off_c, 1, 81, 0
2, 1080, Note_off_c, 1, 93, 0
2, 1120, Note_on_c, 1, 51, 127
2, 1120, Note_on_c, 1, 53, 127
2, 1120, Note_on_c, 1, 63, 127
2, 1120, Note_on_c, 1, 65, 127
2, 1120, Note_on_c, 1, 75, 127
2, 1120, Note_on_c, 1, 77, 127
2, 1160, Note_on_c, 1, 48, 127
2, 1160, Note_off_c, 1, 51, 0
2, 1160, Note_on_c, 1, 60, 127
2, 1160, Note_off_c, 1, 63, 0
2, 1160, Note_on_c, 1, 72, 127
2, 1160, Note_off_c, 1, 75, 0
2, 1200, Note_off_c, 1, 48, 0
2, 1200, Note_off_c, 1, 53, 0
2, 1200, Note_off_c, 1, 60, 0
2, 1200, Note_off_c, 1, 65, 0
2, 1200, Note_off_c, 1, 72, 0
2, 1200, Note_off_c, 1, 77, 0
2, 1240, Note_on_c, 1, 51, 127
2, 1240, Note_on_c, 1, 53, 127
2, 1240, Note_on_c, 1, 63, 127
2, 1240, Note_on_c, 1, 65, 127
2, 1240, Note_on_c, 1, 75, 127
2, 1240, Note_on_c, 1, 77, 127
2, 1400, Note_on_c, 1, 48, 127
2, 1400, Note_off_c, 1, 51, 0
2, 1400, Note_on_c, 1, 60, 127
2, 1400, Note_off_c, 1, 63, 0
2, 1400, Note_on_c, 1, 72, 127
2, 1400, Note_off_c, 1, 75, 0
2, 1440, Note_on_c, 1, 44, 127
2, 1440, Note_off_c, 1, 48, 0
2, 1440, Note_off_c, 1, 53, 0
2, 1440, Note_on_c, 1, 56, 127
2, 1440, Note_off_c, 1, 60, 0
2, 1440, Note_off_c, 1, 65, 0
2, 1440, Note_off_c, 1, 77, 0
2, 1440, Note_on_c, 1, 80, 127
2, 1480, Note_off_c, 1, 44, 0
2, 1480, Note_off_c, 1, 56, 0
2, 1480, Note_off_c, 1, 72, 0
2, 1480, Note_off_c, 1, 80, 0
2, 1520, Note_on_c, 1, 39, 127
2, 1520, Note_on_c, 1, 45, 127
2, 1520, Note_on_c, 1, 60, 127
2, 1520, Note_on_c, 1, 66, 127
2, 1520, Note_on_c, 1, 69, 127
2, 1560, Note_on_c, 1, 37, 127
2, 1560, Note_off_c, 1, 39, 0
2, 1560, Note_off_c, 1, 45, 0
2, 1560, Note_off_c, 1, 60, 0
2, 1560, Note_on_c, 1, 64, 127
2, 1560, Note_off_c, 1, 66, 0
2, 1560, Note_on_c, 1, 67, 127
2, 1560, Note_off_c, 1, 69, 0
2, 1560, Note_on_c, 1, 73, 127
2, 1600, Note_off_c, 1, 37, 0
2, 1600, Note_off_c, 1, 64, 0
2, 1600, Note_off_c, 1, 67, 0
2, 1600, Note_off_c, 1, 73, 0
2, 1640, Note_on_c, 1, 46, 127
2, 1640, Note_on_c, 1, 53, 127
2, 1640, Note_on_c, 1, 60, 127
2, 1640, Note_on_c, 1, 63, 127
2, 1640, Note_on_c, 1, 75, 127
2, 1760, Note_on_c, 1, 72, 127
2, 1760, Note_off_c, 1, 75, 0
2, 1800, Note_off_c, 1, 46, 0
2, 1800, Note_off_c, 1, 53, 0
2, 1800, Note_on_c, 1, 55, 127
2, 1800, Note_off_c, 1, 63, 0
2, 1800, Note_off_c, 1, 72, 0
2, 1800, Note_on_c, 1, 78, 127
2, 1800, Note_on_c, 1, 81, 127
2, 1800, Note_on_c, 1, 87, 127
2, 1840, Note_off_c, 1, 55, 0
2, 1840, Note_off_c, 1, 60, 0
2, 1840, Note_on_c, 1, 64, 127
2, 1840, Note_on_c, 1, 73, 127
2, 1840, Note_on_c, 1, 76, 127
2, 1840, Note_off_c, 1, 81, 0
2, 1840, Note_on_c, 1, 82, 127
2, 1840, Note_off_c, 1, 87, 0
2, 1880, Note_off_c, 1, 64, 0
2, 1880, Note_off_c, 1, 73, 0
2, 1880, Note_off_c, 1, 76, 0
2, 1880, Note_off_c, 1, 78, 0
2, 1880, Note_off_c, 1, 82, 0
2, 1920, Note_on_c, 1, 38, 127
2, 1920, Note_on_c, 1, 50, 127
2, 1920, Note_on_c, 1, 79, 127
2, 1920, Note_on_c, 1, 81, 127
2, 1960, Note_off_c, 1, 38, 0
2, 1960, Note_off_c, 1, 50, 0
2, 1960, Note_off_c, 1, 79, 0
2, 1960, Note_off_c, 1, 81, 0
2, 2040, Note_on_c, 1, 41, 127
2, 2040, Note_on_c, 1, 72, 127
2, 2040, Note_on_c, 1, 79, 127
2, 2040, Note_on_c, 1, 82, 127
2, 2040, Note_on_c, 1, 84, 127
2, 2080, Note_off_c, 1, 41, 0
2, 2080, Note_off_c, 1, 72, 0
2, 2080, Note_off_c, 1, 79, 0
2, 2080, Note_off_c, 1, 82, 0
2, 2080, Note_off_c, 1, 84, 0
2, 2120, Note_on_c, 1, 47, 127
2, 2120, Note_on_c, 1, 54, 127
2, 2120, Note_on_c, 1, 61, 127
2, 2120, Note_on_c, 1, 64, 127
2, 2120, Note_on_c, 1, 70, 127
2, 2120, Note_on_c, 1, 73, 127
2, 2120, Note_on_c, 1, 76, 127
2, 2400, Note_on_c, 1, 35, 127
2, 2400, Note_off_c, 1, 47, 0
2, 2400, Note_on_c, 1, 52, 127
2, 2400, Note_on_c, 1, 59, 127
2, 2400, Note_off_c, 1, 61, 0
2, 2400, Note_off_c, 1, 64, 0
2, 2400, Note_off_c, 1, 70, 0
2, 2400, Note_off_c, 1, 73, 0
2, 2400, Note_off_c, 1, 76, 0
2, 2440, Note_off_c, 1, 35, 0
2, 2440, Note_on_c, 1, 47, 127
2, 2440, Note_off_c, 1, 52, 0
2, 2440, Note_off_c, 1, 59, 0
2, 2440, Note_on_c, 1, 61, 127
2, 2440, Note_on_c, 1, 64, 127
2, 2440, Note_on_c, 1, 70, 127
2, 2440, Note_on_c, 1, 73, 127
2, 2440, Note_on_c, 1, 76, 127
2, 2680, Note_off_c, 1, 47, 0
2, 2680, Note_off_c, 1, 54, 0
2, 2680, Note_off_c, 1, 61, 0
2, 2680, Note_off_c, 1, 64, 0
2, 2680, Note_off_c, 1, 70, 0
2, 2680, Note_off_c, 1, 73, 0
2, 2680, Note_off_c, 1, 76, 0
2, 2720, Note_on_c, 1, 52, 127
2, 2720, Note_on_c, 1, 57, 127
2, 2720, Note_on_c, 1, 61, 127
2, 2720, Note_on_c, 1, 64, 127
2, 2720, Note_on_c, 1, 69, 127
2, 2720, Note_on_c, 1, 73, 127
2, 2720, Note_on_c, 1, 76, 127
2, 2720, Note_on_c, 1, 81, 127
2, 2960, Note_on_c, 1, 42, 127
2, 2960, Note_off_c, 1, 52, 0
2, 2960, Note_on_c, 1, 54, 127
2, 2960, Note_off_c, 1, 57, 0
2, 2960, Note_off_c, 1, 61, 0
2, 2960, Note_off_c, 1, 69, 0
2, 2960, Note_on_c, 1, 70, 127
2, 2960, Note_off_c, 1, 73, 0
2, 2960, Note_off_c, 1, 76, 0
2, 2960, Note_off_c, 1, 81, 0
2, 3000, Note_off_c, 1, 42, 0
2, 3000, Note_on_c, 1, 52, 127
2, 3000, Note_off_c, 1, 54, 0
2, 3000, Note_on_c, 1, 57, 127
2, 3000, Note_on_c, 1, 61, 127
2, 3000, Note_on_c, 1, 69, 127
2, 3000, Note_off_c, 1, 70, 0
2, 3000, Note_on_c, 1, 73, 127
2, 3000, Note_on_c, 1, 76, 127
2, 3000, Note_on_c, 1, 81, 127
2, 3080, Note_off_c, 1, 52, 0
2, 3080, Note_off_c, 1, 57, 0
2, 3080, Note_off_c, 1, 61, 0
2, 3080, Note_off_c, 1, 64, 0
2, 3080, Note_off_c, 1, 69, 0
2, 3080, Note_off_c, 1, 73, 0
2, 3080, Note_off_c, 1, 76, 0
2, 3080, Note_off_c, 1, 81, 0
2, 3120, Note_on_c, 1, 52, 127
2, 3120, Note_on_c, 1, 57, 127
2, 3120, Note_on_c, 1, 61, 127
2, 3120, Note_on_c, 1, 64, 127
2, 3120, Note_on_c, 1, 69, 127
2, 3120, Note_on_c, 1, 73, 127
2, 3120, Note_on_c, 1, 76, 127
2, 3120, Note_on_c, 1, 81, 127
2, 3400, Note_off_c, 1, 52, 0
2, 3400, Note_off_c, 1, 57, 0
2, 3400, Note_off_c, 1, 61, 0
2, 3400, Note_off_c, 1, 64, 0
2, 3400, Note_off_c, 1, 69, 0
2, 3400, Note_off_c, 1, 73, 0
2, 3400, Note_off_c, 1, 76, 0
2, 3400, Note_off_c, 1, 81, 0
2, 3440, Note_on_c, 1, 50, 127
2, 3440, Note_on_c, 1, 55, 127
2, 3440, Note_on_c, 1, 62, 127
2, 3440, Note_on_c, 1, 65, 127
2, 3440, Note_on_c, 1, 77, 127
2, 3480, Note_off_c, 1, 50, 0
2, 3480, Note_off_c, 1, 55, 0
2, 3480, Note_off_c, 1, 62, 0
2, 3480, Note_off_c, 1, 65, 0
2, 3480, Note_off_c, 1, 77, 0
2, 3520, Note_on_c, 1, 34, 127
2, 3520, Note_on_c, 1, 37, 127
2, 3520, Note_on_c, 1, 46, 127
2, 3520, Note_on_c, 1, 58, 127
2, 3520, Note_on_c, 1, 61, 127
2, 3520, Note_on_c, 1, 65, 127
2, 3560, Note_off_c, 1, 34, 0
2, 3560, Note_off_c, 1, 37, 0
2, 3560, Note_off_c, 1, 46, 0
2, 3560, Note_off_c, 1, 58, 0
2, 3560, Note_off_c, 1, 61, 0
2, 3560, Note_on_c, 1, 63, 127
2, 3560, Note_off_c, 1, 65, 0
2, 3560, Note_on_c, 1, 68, 127
2, 3560, Note_on_c, 1, 71, 127
2, 3560, Note_on_c, 1, 75, 127
2, 3560, Note_on_c, 1, 87, 127
2, 3560, Note_on_c, 1, 95, 127
2, 3560, Note_on_c, 1, 99, 127
2, 3840, Note_off_c, 1, 63, 0
2, 3840, Note_off_c, 1, 68, 0
2, 3840, Note_off_c, 1, 71, 0
2, 3840, Note_off_c, 1, 75, 0
2, 3840, Note_off_c, 1, 87, 0
2, 3840, Note_off_c, 1, 95, 0
2, 3840, Note_off_c, 1, 99, 0
2, 3880, Note_on_c, 1, 57, 127
2, 3880, Note_on_c, 1, 61, 127
2, 3880, Note_on_c, 1, 64, 127
2, 3880, Note_on_c, 1, 81, 127
2, 3880, Note_on_c, 1, 93, 127
2, 3960, Note_off_c, 1, 57, 0
2, 3960, Note_off_c, 1, 61, 0
2, 3960, Note_off_c, 1, 64, 0
2, 3960, Note_off_c, 1, 81, 0
2, 3960, Note_off_c, 1, 93, 0
2, 4160, Note_on_c, 1, 34, 127
2, 4160, Note_on_c, 1, 46, 127
2, 4160, Note_on_c, 1, 54, 127
2, 4160, Note_on_c, 1, 61, 127
2, 4160, Note_on_c, 1, 64, 127
2, 4200, Note_off_c, 1, 34, 0
2, 4200, Note_off_c, 1, 46, 0
2, 4200, Note_off_c, 1, 54, 0
2, 4200, Note_off_c, 1, 61, 0
2, 4200, Note_off_c, 1, 64, 0
2, 4280, Note_on_c, 1, 35, 127
2, 4280, Note_on_c, 1, 47, 127
2, 4280, Note_on_c, 1, 66, 127
2, 4280, Note_on_c, 1, 75, 127
2, 4280, Note_on_c, 1, 78, 127
2, 4520, Note_off_c, 1, 66, 0
2, 4520, Note_off_c, 1, 75, 0
2, 4520, Note_off_c, 1, 78, 0
2, 4560, Note_on_c, 1, 66, 127
2, 4560, Note_on_c, 1, 75, 127
2, 4560, Note_on_c, 1, 78, 127
2, 4600, Note_off_c, 1, 35, 0
2, 4600, Note_on_c, 1, 59, 127
2, 4600, Note_off_c, 1, 66, 0
2, 4600, Note_on_c, 1, 71, 127
2, 4600, Note_off_c, 1, 75, 0
2, 4600, Note_off_c, 1, 78, 0
2, 4640, Note_off_c, 1, 47, 0
2, 4640, Note_off_c, 1, 59, 0
2, 4640, Note_off_c, 1, 71, 0
2, 4680, Note_on_c, 1, 47, 127
2, 4680, Note_on_c, 1, 59, 127
2, 4680, Note_on_c, 1, 71, 127
2, 4720, Note_off_c, 1, 47, 0
2, 4720, Note_off_c, 1, 59, 0
2, 4720, Note_off_c, 1, 71, 0
2, 4760, Note_on_c, 1, 47, 127
2, 4760, Note_on_c, 1, 59, 127
2, 4760, Note_on_c, 1, 71, 127
2, 4800, Note_off_c, 1, 47, 0
2, 4800, Note_off_c, 1, 59, 0
2, 4800, Note_off_c, 1, 71, 0
2, 4840, Note_on_c, 1, 35, 127
2, 4840, Note_on_c, 1, 47, 127
2, 4840, Note_on_c, 1, 54, 127
2, 4840, Note_on_c, 1, 59, 127
2, 4840, Note_on_c, 1, 63, 127
2, 4840, Note_on_c, 1, 66, 127
2, 4920, Note_off_c, 1, 35, 0
2, 4920, Note_off_c, 1, 47, 0
2, 4920, Note_off_c, 1, 54, 0
2, 4920, Note_off_c, 1, 59, 0
2, 4920, Note_off_c, 1, 63, 0
2, 4920, Note_off_c, 1, 66, 0
2, 5120, Note_on_c, 1, 47, 127
2, 5120, Note_on_c, 1, 59, 127
2, 5120, Note_on_c, 1, 71, 127
2, 5120, Note_on_c, 1, 83, 127
2, 5160, Note_off_c, 1, 71, 0
2, 5160, Note_off_c, 1, 83, 0
2, 5240, Note_on_c, 1, 43, 127
2, 5240, Note_off_c, 1, 47, 0
2, 5240, Note_on_c, 1, 50, 127
2, 5240, Note_off_c, 1, 59, 0
2, 5240, Note_on_c, 1, 60, 127
2, 5240, Note_on_c, 1, 62, 127
2, 5240, Note_on_c, 1, 69, 127
2, 5280, Note_on_c, 1, 35, 127
2, 5280, Note_off_c, 1, 43, 0
2, 5280, Note_off_c, 1, 50, 0
2, 5280, Note_on_c, 1, 56, 127
2, 5280, Note_on_c, 1, 59, 127
2, 5280, Note_off_c, 1, 60, 0
2, 5280, Note_off_c, 1, 62, 0
2, 5280, Note_off_c, 1, 69, 0
2, 5320, Note_off_c, 1, 35, 0
2, 5320, Note_on_c, 1, 43, 127
2, 5320, Note_on_c, 1, 50, 127
2, 5320, Note_off_c, 1, 56, 0
2, 5320, Note_off_c, 1, 59, 0
2, 5320, Note_on_c, 1, 60, 127
2, 5320, Note_on_c, 1, 62, 127
2, 5320, Note_on_c, 1, 69, 127
2, 5480, Note_off_c, 1, 43, 0
2, 5480, Note_off_c, 1, 50, 0
2, 5480, Note_off_c, 1, 60, 0
2, 5480, Note_off_c, 1, 62, 0
2, 5480, Note_off_c, 1, 69, 0
2, 5640, Note_on_c, 1, 40, 127
2, 5640, Note_on_c, 1, 52, 127
2, 5640, Note_on_c, 1, 55, 127
2, 5640, Note_on_c, 1, 64, 127
2, 5680, Note_off_c, 1, 40, 0
2, 5680, Note_off_c, 1, 52, 0
2, 5680, Note_off_c, 1, 55, 0
2, 5680, Note_off_c, 1, 64, 0
2, 5720, Note_on_c, 1, 52, 127
2, 5720, Note_on_c, 1, 59, 127
2, 5720, Note_on_c, 1, 62, 127
2, 5760, Note_on_c, 1, 40, 127
2, 5760, Note_on_c, 1, 55, 127
2, 5760, Note_off_c, 1, 59, 0
2, 5760, Note_off_c, 1, 62, 0
2, 5760, Note_on_c, 1, 67, 127
2, 5800, Note_off_c, 1, 40, 0
2, 5800, Note_off_c, 1, 52, 0
2, 5800, Note_off_c, 1, 55, 0
2, 5800, Note_off_c, 1, 67, 0
2, 5840, Note_on_c, 1, 40, 127
2, 5840, Note_on_c, 1, 59, 127
2, 5840, Note_on_c, 1, 62, 127
2, 5840, Note_on_c, 1, 68, 127
2, 5880, Note_on_c, 1, 33, 127
2, 5880, Note_off_c, 1, 40, 0
2, 5880, Note_on_c, 1, 45, 127
2, 5880, Note_off_c, 1, 59, 0
2, 5880, Note_on_c, 1, 61, 127
2, 5880, Note_off_c, 1, 62, 0
2, 5880, Note_on_c, 1, 64, 127
2, 5880, Note_off_c, 1, 68, 0
2, 5880, Note_on_c, 1, 69, 127
2, 5920, Note_off_c, 1, 33, 0
2, 5920, Note_off_c, 1, 45, 0
2, 5920, Note_off_c, 1, 61, 0
2, 5920, Note_off_c, 1, 64, 0
2, 5920, Note_off_c, 1, 69, 0
2, 6040, Note_on_c, 1, 67, 127
2, 6040, Note_on_c, 1, 71, 127
2, 6040, Note_on_c, 1, 73, 127
2, 6040, Note_on_c, 1, 76, 127
2, 6040, Note_on_c, 1, 79, 127
2, 6040, Note_on_c, 1, 83, 127
2, 6040, Note_on_c, 1, 88, 127
2, 6040, Note_on_c, 1, 95, 127
2, 6680, Note_on_c, 1, 36, 127
2, 6680, Note_on_c, 1, 40, 127
2, 6680, Note_on_c, 1, 43, 127
2, 6680, Note_on_c, 1, 48, 127
2, 6680, Note_on_c, 1, 55, 127
2, 6680, Note_off_c, 1, 67, 0
2, 6680, Note_off_c, 1, 71, 0
2, 6680, Note_off_c, 1, 73, 0
2, 6680, Note_off_c, 1, 76, 0
2, 6680, Note_off_c, 1, 79, 0
2, 6680, Note_off_c, 1, 83, 0
2, 6680, Note_off_c, 1, 88, 0
2, 6680, Note_off_c, 1, 95, 0
2, 6720, Note_off_c, 1, 36, 0
2, 6720, Note_off_c, 1, 40, 0
2, 6720, Note_off_c, 1, 43, 0
2, 6720, Note_off_c, 1, 48, 0
2, 6720, Note_off_c, 1, 55, 0
2, 6760, Note_on_c, 1, 49, 127
2, 6760, Note_on_c, 1, 52, 127
2, 6760, Note_on_c, 1, 57, 127
2, 6760, Note_on_c, 1, 61, 127
2, 6760, Note_on_c, 1, 63, 127
2, 6800, Note_on_c, 1, 45, 127
2, 6800, Note_off_c, 1, 49, 0
2, 6800, Note_off_c, 1, 52, 0
2, 6800, Note_on_c, 1, 54, 127
2, 6800, Note_off_c, 1, 57, 0
2, 6800, Note_off_c, 1, 61, 0
2, 6800, Note_off_c, 1, 63, 0
2, 6800, Note_on_c, 1, 78, 127
2, 6800, Note_on_c, 1, 81, 127
2, 6840, Note_off_c, 1, 45, 0
2, 6840, Note_on_c, 1, 49, 127
2, 6840, Note_on_c, 1, 52, 127
2, 6840, Note_off_c, 1, 54, 0
2, 6840, Note_on_c, 1, 57, 127
2, 6840, Note_on_c, 1, 61, 127
2, 6840, Note_off_c, 1, 78, 0
2, 6840, Note_off_c, 1, 81, 0
2, 6880, Note_on_c, 1, 63, 127
2, 7000, Note_off_c, 1, 63, 0
2, 7040, Note_on_c, 1, 63, 127
2, 7120, Note_off_c, 1, 63, 0
2, 7160, Note_off_c, 1, 49, 0
2, 7160, Note_off_c, 1, 52, 0
2, 7160, Note_off_c, 1, 57, 0
2, 7160, Note_off_c, 1, 61, 0
2, 7160, Note_on_c, 1, 78, 127
2, 7160, Note_on_c, 1, 81, 127
2, 7160, Note_on_c, 1, 87, 127
2, 7160, Note_on_c, 1, 99, 127
2, 7200, Note_on_c, 1, 52, 127
2, 7200, Note_on_c, 1, 56, 127
2, 7200, Note_on_c, 1, 59, 127
2, 7200, Note_on_c, 1, 64, 127
2, 7200, Note_on_c, 1, 76, 127
2, 7200, Note_off_c, 1, 78, 0
2, 7200, Note_off_c, 1, 81, 0
2, 7200, Note_on_c, 1, 83, 127
2, 7200, Note_off_c, 1, 87, 0
2, 7200, Note_off_c, 1, 99, 0
2, 7240, Note_off_c, 1, 52, 0
2, 7240, Note_off_c, 1, 56, 0
2, 7240, Note_off_c, 1, 59, 0
2, 7240, Note_off_c, 1, 64, 0
2, 7240, Note_off_c, 1, 76, 0
2, 7240, Note_off_c, 1, 83, 0
2, 7240, Note_on_c, 1, 92, 127
2, 7280, Note_on_c, 1, 58, 127
2, 7280, Note_on_c, 1, 61, 127
2, 7280, Note_on_c, 1, 65, 127
2, 7280, Note_off_c, 1, 92, 0
2, 7280, Note_on_c, 1, 94, 127
2, 7280, Note_on_c, 1, 98, 127
2, 7320, Note_off_c, 1, 58, 0
2, 7320, Note_off_c, 1, 61, 0
2, 7320, Note_off_c, 1, 65, 0
2, 7320, Note_on_c, 1, 87, 127
2, 7320, Note_on_c, 1, 88, 127
2, 7320, Note_off_c, 1, 94, 0
2, 7320, Note_on_c, 1, 97, 127
2, 7320, Note_off_c, 1, 98, 0
2, 7360, Note_on_c, 1, 52, 127
2, 7360, Note_off_c, 1, 87, 0
2, 7360, Note_off_c, 1, 88, 0
2, 7400, Note_on_c, 1, 56, 127
2, 7400, Note_on_c, 1, 63, 127
2, 7400, Note_on_c, 1, 88, 127
2, 7400, Note_off_c, 1, 97, 0
2, 7440, Note_on_c, 1, 54, 127
2, 7440, Note_off_c, 1, 56, 0
2, 7440, Note_on_c, 1, 57, 127
2, 7440, Note_on_c, 1, 60, 127
2, 7440, Note_off_c, 1, 63, 0
2, 7440, Note_on_c, 1, 84, 127
2, 7440, Note_off_c, 1, 88, 0
2, 7480, Note_off_c, 1, 52, 0
2, 7480, Note_off_c, 1, 54, 0
2, 7480, Note_off_c, 1, 57, 0
2, 7480, Note_off_c, 1, 60, 0
2, 7480, Note_on_c, 1, 64, 127
2, 7480, Note_on_c, 1, 76, 127
2, 7480, Note_on_c, 1, 80, 127
2, 7480, Note_on_c, 1, 83, 127
2, 7480, Note_off_c, 1, 84, 0
2, 7480, Note_on_c, 1, 92, 127
2, 7520, Note_off_c, 1, 64, 0
2, 7520, Note_off_c, 1, 76, 0
2, 7520, Note_off_c, 1, 80, 0
2, 7520, Note_off_c, 1, 83, 0
2, 7520, Note_off_c, 1, 92, 0
2, 7560, Note_on_c, 1, 44, 127
2, 7560, Note_on_c, 1, 55, 127
2, 7560, Note_on_c, 1, 61, 127
2, 7560, Note_on_c, 1, 67, 127
2, 7560, Note_on_c, 1, 70, 127
2, 7560, Note_on_c, 1, 73, 127
2, 7600, Note_off_c, 1, 44, 0
2, 7600, Note_off_c, 1, 55, 0
2, 7600, Note_off_c, 1, 61, 0
2, 7600, Note_on_c, 1, 64, 127
2, 7600, Note_off_c, 1, 67, 0
2, 7600, Note_off_c, 1, 70, 0
2, 7600, Note_off_c, 1, 73, 0
2, 7640, Note_on_c, 1, 59, 127
2, 7640, Note_on_c, 1, 62, 127
2, 7640, Note_off_c, 1, 64, 0
2, 7640, Note_on_c, 1, 65, 127
2, 7640, Note_on_c, 1, 68, 127
2, 7640, Note_on_c, 1, 82, 127
2, 7640, Note_on_c, 1, 83, 127
2, 7680, Note_on_c, 1, 41, 127
2, 7680, Note_on_c, 1, 53, 127
2, 7680, Note_off_c, 1, 59, 0
2, 7680, Note_off_c, 1, 62, 0
2, 7680, Note_off_c, 1, 65, 0
2, 7680, Note_off_c, 1, 68, 0
2, 7680, Note_on_c, 1, 69, 127
2, 7680, Note_on_c, 1, 73, 127
2, 7680, Note_on_c, 1, 77, 127
2, 7680, Note_off_c, 1, 82, 0
2, 7680, Note_off_c, 1, 83, 0
2, 7720, Note_off_c, 1, 41, 0
2, 7720, Note_on_c, 1, 42, 127
2, 7720, Note_off_c, 1, 53, 0
2, 7720, Note_on_c, 1, 54, 127
2, 7720, Note_on_c, 1, 56, 127
2, 7720, Note_on_c, 1, 61, 127
2, 7720, Note_on_c, 1, 64, 127
2, 7720, Note_off_c, 1, 69, 0
2, 7720, Note_off_c, 1, 73, 0
2, 7720, Note_off_c, 1, 77, 0
2, 7760, Note_off_c, 1, 42, 0
2, 7760, Note_off_c, 1, 54, 0
2, 7760, Note_off_c, 1, 56, 0
2, 7760, Note_on_c, 1, 59, 127
2, 7760, Note_off_c, 1, 61, 0
2, 7760, Note_off_c, 1, 64, 0
2, 7760, Note_on_c, 1, 68, 127
2, 7760, Note_on_c, 1, 83, 127
2, 7760, Note_on_c, 1, 95, 127
2, 7800, Note_off_c, 1, 59, 0
2, 7800, Note_off_c, 1, 68, 0
2, 7800, Note_on_c, 1, 70, 127
2, 7800, Note_on_c, 1, 82, 127
2, 7800, Note_off_c, 1, 83, 0
2, 7800, Note_on_c, 1, 87, 127
2, 7800, Note_on_c, 1, 90, 127
2, 7800, Note_on_c, 1, 94, 127
2, 7800, Note_off_c, 1, 95, 0
2, 7840, Note_on_c, 1, 54, 127
2, 7840, Note_on_c, 1, 65, 127
2, 7840, Note_off_c, 1, 70, 0
2, 7840, Note_on_c, 1, 71, 127
2, 7840, Note_on_c, 1, 75, 127
2, 7840, Note_on_c, 1, 79, 127
2, 7840, Note_off_c, 1, 82, 0
2, 7840, Note_off_c, 1, 87, 0
2, 7840, Note_off_c, 1, 90, 0
2, 7840, Note_off_c, 1, 94, 0
2, 7880, Note_on_c, 1, 45, 127
2, 7880, Note_on_c, 1, 52, 127
2, 7880, Note_off_c, 1, 54, 0
2, 7880, Note_on_c, 1, 55, 127
2, 7880, Note_on_c, 1, 57, 127
2, 7880, Note_on_c, 1, 61, 127
2, 7880, Note_on_c, 1, 64, 127
2, 7880, Note_off_c, 1, 65, 0
2, 7880, Note_off_c, 1, 71, 0
2, 7880, Note_off_c, 1, 75, 0
2, 7880, Note_off_c, 1, 79, 0
2, 7920, Note_on_c, 1, 40, 127
2, 7920, Note_off_c, 1, 45, 0
2, 7920, Note_off_c, 1, 55, 0
2, 7920, Note_off_c, 1, 57, 0
2, 7920, Note_off_c, 1, 61, 0
2, 7920, Note_on_c, 1, 62, 127
2, 7920, Note_off_c, 1, 64, 0
2, 7920, Note_on_c, 1, 71, 127
2, 7960, Note_off_c, 1, 40, 0
2, 7960, Note_on_c, 1, 49, 127
2, 7960, Note_off_c, 1, 52, 0
2, 7960, Note_on_c, 1, 56, 127
2, 7960, Note_on_c, 1, 59, 127
2, 7960, Note_on_c, 1, 61, 127
2, 7960, Note_off_c, 1, 62, 0
2, 7960, Note_off_c, 1, 71, 0
2, 7960, Note_on_c, 1, 80, 127
2, 7960, Note_on_c, 1, 83, 127
2, 7960, Note_on_c, 1, 85, 127
2, 8000, Note_on_c, 1, 54, 127
2, 8000, Note_off_c, 1, 56, 0
2, 8000, Note_on_c, 1, 58, 127
2, 8000, Note_off_c, 1, 59, 0
2, 8000, Note_on_c, 1, 78, 127
2, 8000, Note_off_c, 1, 80, 0
2, 8000, Note_on_c, 1, 82, 127
2, 8000, Note_off_c, 1, 83, 0
2, 8040, Note_off_c, 1, 49, 0
2, 8040, Note_off_c, 1, 54, 0
2, 8040, Note_off_c, 1, 58, 0
2, 8040, Note_off_c, 1, 61, 0
2, 8040, Note_on_c, 1, 66, 127
2, 8040, Note_on_c, 1, 69, 127
2, 8040, Note_off_c, 1, 78, 0
2, 8040, Note_on_c, 1, 81, 127
2, 8040, Note_off_c, 1, 82, 0
2, 8040, Note_on_c, 1, 83, 127
2, 8040, Note_off_c, 1, 85, 0
2, 8080, Note_on_c, 1, 53, 127
2, 8080, Note_off_c, 1, 66, 0
2, 8080, Note_off_c, 1, 69, 0
2, 8080, Note_on_c, 1, 74, 127
2, 8120, Note_off_c, 1, 53, 0
2, 8120, Note_on_c, 1, 63, 127
2, 8120, Note_on_c, 1, 72, 127
2, 8120, Note_off_c, 1, 74, 0
2, 8120, Note_on_c, 1, 75, 127
2, 8120, Note_on_c, 1, 78, 127
2, 8120, Note_off_c, 1, 81, 0
2, 8120, Note_off_c, 1, 83, 0
2, 8160, Note_on_c, 1, 34, 127
2, 8160, Note_on_c, 1, 37, 127
2, 8160, Note_on_c, 1, 46, 127
2, 8160, Note_off_c, 1, 63, 0
2, 8160, Note_off_c, 1, 72, 0
2, 8160, Note_off_c, 1, 78, 0
2, 8160, Note_on_c, 1, 87, 127
2, 8200, Note_off_c, 1, 34, 0
2, 8200, Note_off_c, 1, 37, 0
2, 8200, Note_off_c, 1, 46, 0
2, 8200, Note_on_c, 1, 69, 127
2, 8200, Note_off_c, 1, 75, 0
2, 8200, Note_on_c, 1, 84, 127
2, 8200, Note_off_c, 1, 87, 0
2, 8200, Note_on_c, 1, 91, 127
2, 8240, Note_on_c, 1, 56, 127
2, 8240, Note_on_c, 1, 63, 127
2, 8240, Note_on_c, 1, 66, 127
2, 8240, Note_off_c, 1, 69, 0
2, 8240, Note_on_c, 1, 73, 127
2, 8240, Note_off_c, 1, 84, 0
2, 8240, Note_on_c, 1, 85, 127
2, 8240, Note_off_c, 1, 91, 0
2, 8280, Note_on_c, 1, 39, 127
2, 8280, Note_off_c, 1, 56, 0
2, 8280, Note_off_c, 1, 63, 0
2, 8280, Note_off_c, 1, 66, 0
2, 8280, Note_off_c, 1, 73, 0
2, 8280, Note_off_c, 1, 85, 0
2, 8280, Note_on_c, 1, 90, 127
2, 8280, Note_on_c, 1, 92, 127
2, 8320, Note_off_c, 1, 39, 0
2, 8320, Note_on_c, 1, 68, 127
2, 8320, Note_on_c, 1, 73, 127
2, 8320, Note_off_c, 1, 90, 0
2, 8320, Note_off_c, 1, 92, 0
2, 8360, Note_on_c, 1, 29, 127
2, 8360, Note_on_c, 1, 36, 127
2, 8360, Note_on_c, 1, 41, 127
2, 8360, Note_on_c, 1, 53, 127
2, 8360, Note_on_c, 1, 57, 127
2, 8360, Note_on_c, 1, 60, 127
2, 8360, Note_on_c, 1, 65, 127
2, 8360, Note_off_c, 1, 68, 0
2, 8360, Note_off_c, 1, 73, 0
2, 8400, Note_off_c, 1, 29, 0
2, 8400, Note_off_c, 1, 36, 0
2, 8400, Note_off_c, 1, 41, 0
2, 8400, Note_on_c, 1, 48, 127
2, 8400, Note_off_c, 1, 53, 0
2, 8400, Note_off_c, 1, 57, 0
2, 8400, Note_off_c, 1, 60, 0
2, 8400, Note_on_c, 1, 64, 127
2, 8400, Note_off_c, 1, 65, 0
2, 8400, Note_on_c, 1, 69, 127
2, 8400, Note_on_c, 1, 73, 127
2, 8440, Note_on_c, 1, 33, 127
2, 8440, Note_on_c, 1, 45, 127
2, 8440, Note_off_c, 1, 48, 0
2, 8440, Note_off_c, 1, 64, 0
2, 8440, Note_on_c, 1, 67, 127
2, 8440, Note_off_c, 1, 69, 0
2, 8440, Note_on_c, 1, 79, 127
2, 8480, Note_off_c, 1, 33, 0
2, 8480, Note_on_c, 1, 41, 127
2, 8480, Note_off_c, 1, 45, 0
2, 8480, Note_on_c, 1, 47, 127
2, 8480, Note_on_c, 1, 50, 127
2, 8480, Note_on_c, 1, 53, 127
2, 8480, Note_off_c, 1, 67, 0
2, 8480, Note_on_c, 1, 68, 127
2, 8480, Note_off_c, 1, 73, 0
2, 8480, Note_off_c, 1, 79, 0
2, 8520, Note_off_c, 1, 41, 0
2, 8520, Note_on_c, 1, 43, 127
2, 8520, Note_off_c, 1, 47, 0
2, 8520, Note_on_c, 1, 48, 127
2, 8520, Note_off_c, 1, 50, 0
2, 8520, Note_on_c, 1, 52, 127
2, 8520, Note_off_c, 1, 53, 0
2, 8520, Note_on_c, 1, 58, 127
2, 8520, Note_on_c, 1, 64, 127
2, 8520, Note_off_c, 1, 68, 0
2, 8520, Note_on_c, 1, 72, 127
2, 8560, Note_on_c, 1, 29, 127
2, 8560, Note_on_c, 1, 34, 127
2, 8560, Note_on_c, 1, 36, 127
2, 8560, Note_off_c, 1, 43, 0
2, 8560, Note_off_c, 1, 48, 0
2, 8560, Note_off_c, 1, 52, 0
2, 8560, Note_off_c, 1, 58, 0
2, 8560, Note_off_c, 1, 64, 0
2, 8560, Note_on_c, 1, 70, 127
2, 8560, Note_off_c, 1, 72, 0
2, 8560, Note_on_c, 1, 74, 127
2, 8560, Note_on_c, 1, 77, 127
2, 8600, Note_off_c, 1, 29, 0
2, 8600, Note_off_c, 1, 34, 0
2, 8600, Note_off_c, 1, 36, 0
2, 8600, Note_on_c, 1, 45, 127
2, 8600, Note_on_c, 1, 48, 127
2, 8600, Note_on_c, 1, 65, 127
2, 8600, Note_off_c, 1, 70, 0
2, 8600, Note_off_c, 1, 74, 0
2, 8600, Note_on_c, 1, 75, 127
2, 8600, Note_off_c, 1, 77, 0
2, 8640, Note_off_c, 1, 45, 0
2, 8640, Note_off_c, 1, 48, 0
2, 8640, Note_off_c, 1, 65, 0
2, 8640, Note_off_c, 1, 75, 0
2, 8680, Note_on_c, 1, 37, 127
2, 8680, Note_on_c, 1, 49, 127
2, 8680, Note_on_c, 1, 65, 127
2, 8680, Note_on_c, 1, 66, 127
2, 8680, Note_on_c, 1, 68, 127
2, 8680, Note_on_c, 1, 70, 127
2, 8680, Note_on_c, 1, 71, 127
2, 8720, Note_on_c, 1, 34, 127
2, 8720, Note_off_c, 1, 37, 0
2, 8720, Note_on_c, 1, 40, 127
2, 8720, Note_on_c, 1, 46, 127
2, 8720, Note_off_c, 1, 49, 0
2, 8720, Note_off_c, 1, 65, 0
2, 8720, Note_off_c, 1, 66, 0
2, 8720, Note_off_c, 1, 68, 0
2, 8720, Note_off_c, 1, 70, 0
2, 8720, Note_off_c, 1, 71, 0
2, 8760, Note_off_c, 1, 34, 0
2, 8760, Note_off_c, 1, 40, 0
2, 8760, Note_on_c, 1, 41, 127
2, 8760, Note_off_c, 1, 46, 0
2, 8760, Note_on_c, 1, 50, 127
2, 8760, Note_on_c, 1, 53, 127
2, 8760, Note_on_c, 1, 56, 127
2, 8800, Note_on_c, 1, 39, 127
2, 8800, Note_off_c, 1, 41, 0
2, 8800, Note_on_c, 1, 49, 127
2, 8800, Note_off_c, 1, 50, 0
2, 8800, Note_on_c, 1, 51, 127
2, 8800, Note_off_c, 1, 53, 0
2, 8800, Note_on_c, 1, 55, 127
2, 8800, Note_off_c, 1, 56, 0
2, 8800, Note_on_c, 1, 61, 127
2, 8800, Note_on_c, 1, 63, 127
2, 8840, Note_off_c, 1, 39, 0
2, 8840, Note_on_c, 1, 47, 127
2, 8840, Note_off_c, 1, 49, 0
2, 8840, Note_off_c, 1, 51, 0
2, 8840, Note_on_c, 1, 52, 127
2, 8840, Note_off_c, 1, 61, 0
2, 8840, Note_off_c, 1, 63, 0
2, 8880, Note_on_c, 1, 36, 127
2, 8880, Note_off_c, 1, 47, 0
2, 8880, Note_off_c, 1, 52, 0
2, 8880, Note_off_c, 1, 55, 0
2, 8880, Note_on_c, 1, 76, 127
2, 8880, Note_on_c, 1, 80, 127
2, 8880, Note_on_c, 1, 88, 127
2, 8920, Note_on_c, 1, 30, 127
2, 8920, Note_on_c, 1, 35, 127
2, 8920, Note_off_c, 1, 36, 0
2, 8920, Note_on_c, 1, 39, 127
2, 8920, Note_on_c, 1, 42, 127
2, 8920, Note_on_c, 1, 47, 127
2, 8920, Note_on_c, 1, 51, 127
2, 8920, Note_on_c, 1, 59, 127
2, 8920, Note_on_c, 1, 70, 127
2, 8920, Note_off_c, 1, 76, 0
2, 8920, Note_on_c, 1, 78, 127
2, 8920, Note_off_c, 1, 80, 0
2, 8920, Note_on_c, 1, 82, 127
2, 8920, Note_off_c, 1, 88, 0
2, 8960, Note_off_c, 1, 30, 0
2, 8960, Note_on_c, 1, 34, 127
2, 8960, Note_off_c, 1, 35, 0
2, 8960, Note_off_c, 1, 39, 0
2, 8960, Note_off_c, 1, 42, 0
2, 8960, Note_on_c, 1, 43, 127
2, 8960, Note_on_c, 1, 46, 127
2, 8960, Note_off_c, 1, 47, 0
2, 8960, Note_off_c, 1, 51, 0
2, 8960, Note_off_c, 1, 59, 0
2, 8960, Note_off_c, 1, 70, 0
2, 8960, Note_off_c, 1, 78, 0
2, 8960, Note_off_c, 1, 82, 0
2, 9000, Note_off_c, 1, 34, 0
2, 9000, Note_on_c, 1, 39, 127
2, 9000, Note_off_c, 1, 43, 0
2, 9000, Note_on_c, 1, 55, 127
2, 9000, Note_on_c, 1, 58, 127
2, 9000, Note_on_c, 1, 62, 127
2, 9000, Note_on_c, 1, 74, 127
2, 9040, Note_on_c, 1, 38, 127
2, 9040, Note_off_c, 1, 39, 0
2, 9040, Note_off_c, 1, 46, 0
2, 9040, Note_on_c, 1, 50, 127
2, 9040, Note_off_c, 1, 55, 0
2, 9040, Note_off_c, 1, 58, 0
2, 9040, Note_off_c, 1, 62, 0
2, 9040, Note_off_c, 1, 74, 0
2, 9040, Note_on_c, 1, 79, 127
2, 9040, Note_on_c, 1, 82, 127
2, 9040, Note_on_c, 1, 91, 127
2, 9080, Note_off_c, 1, 38, 0
2, 9080, Note_off_c, 1, 50, 0
2, 9080, Note_on_c, 1, 52, 127
2, 9080, Note_on_c, 1, 71, 127
2, 9080, Note_on_c, 1, 77, 127
2, 9080, Note_off_c, 1, 82, 0
2, 9080, Note_on_c, 1, 83, 127
2, 9080, Note_off_c, 1, 91, 0
2, 9120, Note_on_c, 1, 51, 127
2, 9120, Note_off_c, 1, 52, 0
2, 9120, Note_on_c, 1, 55, 127
2, 9120, Note_on_c, 1, 58, 127
2, 9120, Note_on_c, 1, 61, 127
2, 9120, Note_off_c, 1, 71, 0
2, 9120, Note_on_c, 1, 75, 127
2, 9120, Note_off_c, 1, 77, 0
2, 9120, Note_off_c, 1, 79, 0
2, 9120, Note_off_c, 1, 83, 0
2, 9160, Note_on_c, 1, 47, 127
2, 9160, Note_off_c, 1, 51, 0
2, 9160, Note_on_c, 1, 52, 127
2, 9160, Note_off_c, 1, 61, 0
2, 9160, Note_off_c, 1, 75, 0
2, 9200, Note_off_c, 1, 47, 0
2, 9200, Note_off_c, 1, 52, 0
2, 9200, Note_off_c, 1, 55, 0
2, 9200, Note_off_c, 1, 58, 0
2, 9200, Note_on_c, 1, 92, 127
2, 9200, Note_on_c, 1, 95, 127
2, 9200, Note_on_c, 1, 101, 127
2, 9240, Note_on_c, 1, 62, 127
2, 9240, Note_on_c, 1, 69, 127
2, 9240, Note_on_c, 1, 73, 127
2, 9240, Note_on_c, 1, 74, 127
2, 9240, Note_on_c, 1, 85, 127
2, 9240, Note_off_c, 1, 92, 0
2, 9240, Note_off_c, 1, 95, 0
2, 9240, Note_on_c, 1, 97, 127
2, 9240, Note_off_c, 1, 101, 0
2, 9280, Note_on_c, 1, 38, 127
2, 9280, Note_off_c, 1, 62, 0
2, 9280, Note_off_c, 1, 69, 0
2, 9280, Note_on_c, 1, 71, 127
2, 9280, Note_off_c, 1, 73, 0
2, 9280, Note_off_c, 1, 74, 0
2, 9280, Note_on_c, 1, 77, 127
2, 9280, Note_on_c, 1, 79, 127
2, 9280, Note_on_c, 1, 83, 127
2, 9280, Note_off_c, 1, 85, 0
2, 9280, Note_off_c, 1, 97, 0
2, 9320, Note_off_c, 1, 38, 0
2, 9320, Note_on_c, 1, 39, 127
2, 9320, Note_on_c, 1, 45, 127
2, 9320, Note_on_c, 1, 51, 127
2, 9320, Note_on_c, 1, 53, 127
2, 9320, Note_on_c, 1, 57, 127
2, 9320, Note_on_c, 1, 60, 127
2, 9320, Note_on_c, 1, 65, 127
2, 9320, Note_off_c, 1, 71, 0
2, 9320, Note_off_c, 1, 77, 0
2, 9320, Note_off_c, 1, 79, 0
2, 9320, Note_off_c, 1, 83, 0
2, 9360, Note_off_c, 1, 39, 0
2, 9360, Note_off_c, 1, 45, 0
2, 9360, Note_off_c, 1, 51, 0
2, 9360, Note_off_c, 1, 53, 0
2, 9360, Note_off_c, 1, 57, 0
2, 9360, Note_off_c, 1, 60, 0
2, 9360, Note_on_c, 1, 64, 127
2, 9360, Note_off_c, 1, 65, 0
2, 9360, Note_on_c, 1, 76, 127
2, 9360, Note_on_c, 1, 91, 127
2, 9360, Note_on_c, 1, 94, 127
2, 9400, Note_on_c, 1, 39, 127
2, 9400, Note_on_c, 1, 45, 127
2, 9400, Note_on_c, 1, 51, 127
2, 9400, Note_on_c, 1, 53, 127
2, 9400, Note_on_c, 1, 57, 127
2, 9400, Note_on_c, 1, 60, 127
2, 9400, Note_off_c, 1, 64, 0
2, 9400, Note_on_c, 1, 65, 127
2, 9400, Note_off_c, 1, 76, 0
2, 9400, Note_off_c, 1, 91, 0
2, 9400, Note_off_c, 1, 94, 0
2, 9520, Note_off_c, 1, 39, 0
2, 9520, Note_off_c, 1, 45, 0
2, 9520, Note_off_c, 1, 51, 0
2, 9520, Note_off_c, 1, 53, 0
2, 9520, Note_off_c, 1, 57, 0
2, 9520, Note_on_c, 1, 58, 127
2, 9520, Note_off_c, 1, 60, 0
2, 9520, Note_off_c, 1, 65, 0
2, 9520, Note_on_c, 1, 67, 127
2, 9520, Note_on_c, 1, 70, 127
2, 9520, Note_on_c, 1, 76, 127
2, 9520, Note_on_c, 1, 85, 127
2, 9560, Note_on_c, 1, 48, 127
2, 9560, Note_on_c, 1, 56, 127
2, 9560, Note_off_c, 1, 58, 0
2, 9560, Note_on_c, 1, 63, 127
2, 9560, Note_off_c, 1, 67, 0
2, 9560, Note_off_c, 1, 70, 0
2, 9560, Note_off_c, 1, 76, 0
2, 9560, Note_on_c, 1, 79, 127
2, 9560, Note_off_c, 1, 85, 0
2, 9560, Note_on_c, 1, 91, 127
2, 9600, Note_off_c, 1, 48, 0
2, 9600, Note_off_c, 1, 56, 0
2, 9600, Note_off_c, 1, 63, 0
2, 9600, Note_off_c, 1, 79, 0
2, 9600, Note_on_c, 1, 89, 127
2, 9600, Note_off_c, 1, 91, 0
2, 9600, Note_on_c, 1, 95, 127
2, 9640, Note_on_c, 1, 53, 127
2, 9640, Note_on_c, 1, 57, 127
2, 9640, Note_on_c, 1, 59, 127
2, 9640, Note_on_c, 1, 62, 127
2, 9640, Note_off_c, 1, 89, 0
2, 9640, Note_off_c, 1, 95, 0
2, 9680, Note_off_c, 1, 53, 0
2, 9680, Note_off_c, 1, 57, 0
2, 9680, Note_off_c, 1, 59, 0
2, 9680, Note_off_c, 1, 62, 0
2, 9680, Note_on_c, 1, 75, 127
2, 9680, Note_on_c, 1, 79, 127
2, 9720, Note_off_c, 1, 75, 0
2, 9720, Note_off_c, 1, 79, 0
2, 9760, Note_on_c, 1, 62, 127
2, 9760, Note_on_c, 1, 66, 127
2, 9760, Note_on_c, 1, 71, 127
2, 9760, Note_on_c, 1, 74, 127
2, 9760, Note_on_c, 1, 78, 127
2, 9760, Note_on_c, 1, 83, 127
2, 9760, Note_on_c, 1, 86, 127
2, 9800, Note_on_c, 1, 32, 127
2, 9800, Note_on_c, 1, 44, 127
2, 9800, Note_on_c, 1, 47, 127
2, 9800, Note_on_c, 1, 53, 127
2, 9800, Note_on_c, 1, 61, 127
2, 9800, Note_off_c, 1, 62, 0
2, 9800, Note_off_c, 1, 66, 0
2, 9800, Note_off_c, 1, 71, 0
2, 9800, Note_off_c, 1, 74, 0
2, 9800, Note_off_c, 1, 78, 0
2, 9800, Note_off_c, 1, 83, 0
2, 9800, Note_off_c, 1, 86, 0
2, 9840, Note_off_c, 1, 32, 0
2, 9840, Note_off_c, 1, 44, 0
2, 9840, Note_off_c, 1, 47, 0
2, 9840, Note_off_c, 1, 53, 0
2, 9840, Note_off_c, 1, 61, 0
2, 9840, Note_on_c, 1, 66, 127
2, 9840, Note_on_c, 1, 75, 127
2, 9840, Note_on_c, 1, 78, 127
2, 9840, Note_on_c, 1, 84, 127
2, 9840, Note_on_c, 1, 87, 127
2, 9840, Note_on_c, 1, 96, 127
2, 9880, Note_on_c, 1, 39, 127
2, 9880, Note_on_c, 1, 49, 127
2, 9880, Note_on_c, 1, 54, 127
2, 9880, Note_off_c, 1, 75, 0
2, 9880, Note_off_c, 1, 78, 0
2, 9880, Note_off_c, 1, 84, 0
2, 9880, Note_off_c, 1, 87, 0
2, 9880, Note_off_c, 1, 96, 0
2, 9920, Note_on_c, 1, 33, 127
2, 9920, Note_off_c, 1, 39, 0
2, 9920, Note_off_c, 1, 49, 0
2, 9920, Note_off_c, 1, 54, 0
2, 9920, Note_on_c, 1, 57, 127
2, 9920, Note_on_c, 1, 62, 127
2, 9920, Note_on_c, 1, 64, 127
2, 9920, Note_off_c, 1, 66, 0
2, 9960, Note_off_c, 1, 33, 0
2, 9960, Note_on_c, 1, 42, 127
2, 9960, Note_off_c, 1, 57, 0
2, 9960, Note_off_c, 1, 62, 0
2, 9960, Note_off_c, 1, 64, 0
2, 9960, Note_on_c, 1, 83, 127
2, 9960, Note_on_c, 1, 92, 127
2, 9960, Note_on_c, 1, 95, 127
2, 10000, Note_off_c, 1, 42, 0
2, 10000, Note_on_c, 1, 86, 127
2, 10000, Note_on_c, 1, 89, 127
2, 10040, Note_on_c, 1, 42, 127
2, 10040, Note_on_c, 1, 49, 127
2, 10040, Note_off_c, 1, 83, 0
2, 10040, Note_off_c, 1, 86, 0
2, 10040, Note_off_c, 1, 89, 0
2, 10040, Note_off_c, 1, 92, 0
2, 10040, Note_off_c, 1, 95, 0
2, 10080, Note_on_c, 1, 37, 127
2, 10080, Note_off_c, 1, 42, 0
2, 10080, Note_off_c, 1, 49, 0
2, 10080, Note_on_c, 1, 54, 127
2, 10080, Note_on_c, 1, 59, 127
2, 10080, Note_on_c, 1, 63, 127
2, 10120, Note_off_c, 1, 37, 0
2, 10120, Note_off_c, 1, 54, 0
2, 10120, Note_off_c, 1, 59, 0
2, 10120, Note_off_c, 1, 63, 0
2, 10160, Note_on_c, 1, 44, 127
2, 10200, Note_on_c, 1, 35, 127
2, 10200, Note_off_c, 1, 44, 0
2, 10200, Note_on_c, 1, 54, 127
2, 10200, Note_on_c, 1, 59, 127
2, 10200, Note_on_c, 1, 63, 127
2, 10240, Note_off_c, 1, 35, 0
2, 10280, Note_off_c, 1, 54, 0
2, 10280, Note_off_c, 1, 59, 0
2, 10280, Note_off_c, 1, 63, 0
2, 10280, Note_on_c, 1, 91, 127
2, 10280, Note_on_c, 1, 92, 127
2, 10280, Note_on_c, 1, 94, 127
2, 10280, Note_on_c, 1, 95, 127
2, 10320, Note_on_c, 1, 32, 127
2, 10320, Note_on_c, 1, 39, 127
2, 10320, Note_on_c, 1, 44, 127
2, 10320, Note_on_c, 1, 83, 127
2, 10320, Note_on_c, 1, 87, 127
2, 10320, Note_off_c, 1, 91, 0
2, 10320, Note_off_c, 1, 92, 0
2, 10320, Note_off_c, 1, 94, 0
2, 10320, Note_off_c, 1, 95, 0
2, 10360, Note_off_c, 1, 32, 0
2, 10360, Note_off_c, 1, 39, 0
2, 10360, Note_on_c, 1, 42, 127
2, 10360, Note_on_c, 1, 81, 127
2, 10360, Note_off_c, 1, 83, 0
2, 10360, Note_on_c, 1, 85, 127
2, 10360, Note_off_c, 1, 87, 0
2, 10360, Note_on_c, 1, 90, 127
2, 10400, Note_off_c, 1, 42, 0
2, 10400, Note_off_c, 1, 44, 0
2, 10400, Note_on_c, 1, 47, 127
2, 10400, Note_on_c, 1, 69, 127
2, 10400, Note_on_c, 1, 75, 127
2, 10400, Note_on_c, 1, 77, 127
2, 10400, Note_off_c, 1, 85, 0
2, 10400, Note_off_c, 1, 90, 0
2, 10440, Note_off_c, 1, 47, 0
2, 10440, Note_on_c, 1, 49, 127
2, 10440, Note_on_c, 1, 61, 127
2, 10440, Note_off_c, 1, 69, 0
2, 10440, Note_off_c, 1, 75, 0
2, 10440, Note_off_c, 1, 77, 0
2, 10440, Note_off_c, 1, 81, 0
2, 10440, Note_on_c, 1, 93, 127
2, 10440, Note_on_c, 1, 98, 127
2, 10440, Note_on_c, 1, 101, 127
2, 10440, Note_on_c, 1, 105, 127
2, 10480, Note_on_c, 1, 48, 127
2, 10480, Note_off_c, 1, 49, 0
2, 10480, Note_off_c, 1, 61, 0
2, 10480, Note_on_c, 1, 85, 127
2, 10480, Note_on_c, 1, 92, 127
2, 10480, Note_off_c, 1, 93, 0
2, 10480, Note_off_c, 1, 98, 0
2, 10480, Note_off_c, 1, 101, 0
2, 10480, Note_off_c, 1, 105, 0
2, 10520, Note_off_c, 1, 48, 0
2, 10520, Note_on_c, 1, 58, 127
2, 10520, Note_on_c, 1, 73, 127
2, 10520, Note_off_c, 1, 85, 0
2, 10520, Note_on_c, 1, 88, 127
2, 10520, Note_on_c, 1, 91, 127
2, 10520, Note_off_c, 1, 92, 0
2, 10560, Note_off_c, 1, 58, 0
2, 10560, Note_off_c, 1, 73, 0
2, 10560, Note_off_c, 1, 88, 0
2, 10560, Note_off_c, 1, 91, 0
2, 10600, Note_on_c, 1, 41, 127
2, 10600, Note_on_c, 1, 53, 127
2, 10600, Note_on_c, 1, 60, 127
2, 10600, Note_on_c, 1, 70, 127
2, 10600, Note_on_c, 1, 72, 127
2, 10640, Note_off_c, 1, 41, 0
2, 10640, Note_off_c, 1, 53, 0
2, 10640, Note_off_c, 1, 60, 0
2, 10640, Note_off_c, 1, 70, 0
2, 10640, Note_on_c, 1, 71, 127
2, 10640, Note_off_c, 1, 72, 0
2, 10640, Note_on_c, 1, 78, 127
2, 10640, Note_on_c, 1, 81, 127
2, 10640, Note_on_c, 1, 83, 127
2, 10680, Note_on_c, 1, 40, 127
2, 10680, Note_on_c, 1, 52, 127
2, 10680, Note_off_c, 1, 71, 0
2, 10680, Note_off_c, 1, 78, 0
2, 10680, Note_off_c, 1, 81, 0
2, 10680, Note_off_c, 1, 83, 0
2, 10720, Note_off_c, 1, 40, 0
2, 10720, Note_on_c, 1, 44, 127
2, 10720, Note_off_c, 1, 52, 0
2, 10720, Note_on_c, 1, 56, 127
2, 10760, Note_on_c, 1, 40, 127
2, 10760, Note_off_c, 1, 44, 0
2, 10760, Note_on_c, 1, 52, 127
2, 10760, Note_off_c, 1, 56, 0
2, 10800, Note_off_c, 1, 40, 0
2, 10800, Note_on_c, 1, 61, 127
2, 10800, Note_on_c, 1, 64, 127
2, 10800, Note_on_c, 1, 81, 127
2, 10800, Note_on_c, 1, 93, 127
2, 10840, Note_on_c, 1, 37, 127
2, 10840, Note_on_c, 1, 49, 127
2, 10840, Note_off_c, 1, 52, 0
2, 10840, Note_off_c, 1, 61, 0
2, 10840, Note_off_c, 1, 64, 0
2, 10840, Note_off_c, 1, 81, 0
2, 10840, Note_off_c, 1, 93, 0
2, 10880, Note_off_c, 1, 37, 0
2, 10880, Note_off_c, 1, 49, 0
2, 10880, Note_on_c, 1, 58, 127
2, 10920, Note_on_c, 1, 57, 127
2, 10920, Note_off_c, 1, 58, 0
2, 10920, Note_on_c, 1, 64, 127
2, 10920, Note_on_c, 1, 67, 127
2, 10920, Note_on_c, 1, 73, 127
2, 10920, Note_on_c, 1, 100, 127
2, 10960, Note_on_c, 1, 55, 127
2, 10960, Note_off_c, 1, 57, 0
2, 10960, Note_on_c, 1, 62, 127
2, 10960, Note_off_c, 1, 64, 0
2, 10960, Note_off_c, 1, 67, 0
2, 10960, Note_on_c, 1, 70, 127
2, 10960, Note_off_c, 1, 73, 0
2, 10960, Note_on_c, 1, 78, 127
2, 10960, Note_on_c, 1, 81, 127
2, 10960, Note_off_c, 1, 100, 0
2, 11000, Note_on_c, 1, 33, 127
2, 11000, Note_on_c, 1, 45, 127
2, 11000, Note_off_c, 1, 55, 0
2, 11000, Note_off_c, 1, 62, 0
2, 11000, Note_off_c, 1, 70, 0
2, 11000, Note_on_c, 1, 73, 127
2, 11000, Note_off_c, 1, 78, 0
2, 11000, Note_on_c, 1, 85, 127
2, 11040, Note_off_c, 1, 33, 0
2, 11040, Note_on_c, 1, 38, 127
2, 11040, Note_off_c, 1, 45, 0
2, 11040, Note_on_c, 1, 50, 127
2, 11040, Note_on_c, 1, 52, 127
2, 11040, Note_on_c, 1, 59, 127
2, 11040, Note_on_c, 1, 64, 127
2, 11040, Note_off_c, 1, 73, 0
2, 11040, Note_off_c, 1, 81, 0
2, 11040, Note_off_c, 1, 85, 0
2, 11080, Note_off_c, 1, 38, 0
2, 11080, Note_off_c, 1, 50, 0
2, 11080, Note_off_c, 1, 52, 0
2, 11080, Note_on_c, 1, 55, 127
2, 11080, Note_on_c, 1, 62, 127
2, 11080, Note_off_c, 1, 64, 0
2, 11080, Note_on_c, 1, 72, 127
2, 11080, Note_on_c, 1, 84, 127
2, 11120, Note_on_c, 1, 44, 127
2, 11120, Note_on_c, 1, 51, 127
2, 11120, Note_off_c, 1, 55, 0
2, 11120, Note_off_c, 1, 59, 0
2, 11120, Note_off_c, 1, 62, 0
2, 11120, Note_on_c, 1, 63, 127
2, 11120, Note_on_c, 1, 68, 127
2, 11120, Note_on_c, 1, 71, 127
2, 11120, Note_off_c, 1, 72, 0
2, 11120, Note_off_c, 1, 84, 0
2, 11160, Note_off_c, 1, 51, 0
2, 11160, Note_off_c, 1, 63, 0
2, 11160, Note_off_c, 1, 68, 0
2, 11160, Note_off_c, 1, 71, 0
2, 11160, Note_on_c, 1, 72, 127
2, 11160, Note_on_c, 1, 75, 127
2, 11200, Note_off_c, 1, 44, 0
2, 11200, Note_on_c, 1, 62, 127
2, 11200, Note_on_c, 1, 68, 127
2, 11200, Note_off_c, 1, 72, 0
2, 11200, Note_off_c, 1, 75, 0
2, 11200, Note_on_c, 1, 86, 127
2, 11200, Note_on_c, 1, 89, 127
2, 11240, Note_on_c, 1, 45, 127
2, 11240, Note_on_c, 1, 53, 127
2, 11240, Note_on_c, 1, 57, 127
2, 11240, Note_on_c, 1, 61, 127
2, 11240, Note_off_c, 1, 62, 0
2, 11240, Note_on_c, 1, 65, 127
2, 11240, Note_off_c, 1, 68, 0
2, 11240, Note_off_c, 1, 86, 0
2, 11240, Note_off_c, 1, 89, 0
2, 11280, Note_off_c, 1, 45, 0
2, 11280, Note_off_c, 1, 53, 0
2, 11280, Note_off_c, 1, 57, 0
2, 11280, Note_on_c, 1, 60, 127
2, 11280, Note_off_c, 1, 61, 0
2, 11280, Note_off_c, 1, 65, 0
2, 11280, Note_on_c, 1, 74, 127
2, 11280, Note_on_c, 1, 79, 127
2, 11280, Note_on_c, 1, 82, 127
2, 11280, Note_on_c, 1, 86, 127
2, 11320, Note_on_c, 1, 57, 127
2, 11320, Note_off_c, 1, 60, 0
2, 11320, Note_off_c, 1, 74, 0
2, 11320, Note_off_c, 1, 79, 0
2, 11320, Note_on_c, 1, 81, 127
2, 11320, Note_off_c, 1, 82, 0
2, 11320, Note_on_c, 1, 90, 127
2, 11320, Note_on_c, 1, 93, 127
2, 11360, Note_on_c, 1, 40, 127
2, 11360, Note_on_c, 1, 47, 127
2, 11360, Note_on_c, 1, 52, 127
2, 11360, Note_off_c, 1, 57, 0
2, 11360, Note_on_c, 1, 67, 127
2, 11360, Note_off_c, 1, 81, 0
2, 11360, Note_off_c, 1, 86, 0
2, 11360, Note_off_c, 1, 90, 0
2, 11360, Note_off_c, 1, 93, 0
2, 11400, Note_off_c, 1, 40, 0
2, 11400, Note_off_c, 1, 47, 0
2, 11400, Note_off_c, 1, 52, 0
2, 11400, Note_on_c, 1, 56, 127
2, 11400, Note_on_c, 1, 57, 127
2, 11400, Note_off_c, 1, 67, 0
2, 11400, Note_on_c, 1, 69, 127
2, 11440, Note_off_c, 1, 56, 0
2, 11440, Note_off_c, 1, 57, 0
2, 11440, Note_off_c, 1, 69, 0
2, 11480, Note_on_c, 1, 57, 127
2, 11480, Note_on_c, 1, 64, 127
2, 11480, Note_on_c, 1, 88, 127
2, 11480, Note_on_c, 1, 93, 127
2, 11520, Note_on_c, 1, 53, 127
2, 11520, Note_off_c, 1, 57, 0
2, 11520, Note_on_c, 1, 61, 127
2, 11520, Note_off_c, 1, 64, 0
2, 11520, Note_on_c, 1, 80, 127
2, 11520, Note_off_c, 1, 88, 0
2, 11520, Note_on_c, 1, 89, 127
2, 11520, Note_on_c, 1, 92, 127
2, 11520, Note_off_c, 1, 93, 0
2, 11560, Note_off_c, 1, 53, 0
2, 11560, Note_off_c, 1, 61, 0
2, 11560, Note_on_c, 1, 67, 127
2, 11560, Note_on_c, 1, 76, 127
2, 11560, Note_off_c, 1, 80, 0
2, 11560, Note_off_c, 1, 89, 0
2, 11560, Note_on_c, 1, 91, 127
2, 11560, Note_off_c, 1, 92, 0
2, 11560, Note_on_c, 1, 94, 127
2, 11600, Note_on_c, 1, 30, 127
2, 11600, Note_on_c, 1, 37, 127
2, 11600, Note_on_c, 1, 52, 127
2, 11600, Note_off_c, 1, 76, 0
2, 11600, Note_off_c, 1, 91, 0
2, 11600, Note_off_c, 1, 94, 0
2, 11640, Note_off_c, 1, 30, 0
2, 11640, Note_off_c, 1, 37, 0
2, 11640, Note_off_c, 1, 52, 0
2, 11640, Note_on_c, 1, 83, 127
2, 11640, Note_on_c, 1, 89, 127
2, 11640, Note_on_c, 1, 91, 127
2, 11680, Note_on_c, 1, 42, 127
2, 11680, Note_on_c, 1, 45, 127
2, 11680, Note_on_c, 1, 49, 127
2, 11680, Note_on_c, 1, 54, 127
2, 11680, Note_off_c, 1, 67, 0
2, 11680, Note_on_c, 1, 78, 127
2, 11680, Note_on_c, 1, 81, 127
2, 11680, Note_off_c, 1, 83, 0
2, 11680, Note_off_c, 1, 89, 0
2, 11680, Note_off_c, 1, 91, 0
2, 11720, Note_off_c, 1, 42, 0
2, 11720, Note_off_c, 1, 45, 0
2, 11720, Note_off_c, 1, 49, 0
2, 11720, Note_on_c, 1, 52, 127
2, 11720, Note_off_c, 1, 54, 0
2, 11720, Note_off_c, 1, 78, 0
2, 11720, Note_on_c, 1, 79, 127
2, 11720, Note_off_c, 1, 81, 0
2, 11720, Note_on_c, 1, 86, 127
2, 11720, Note_on_c, 1, 88, 127
2, 11760, Note_on_c, 1, 47, 127
2, 11760, Note_off_c, 1, 52, 0
2, 11760, Note_on_c, 1, 71, 127
2, 11760, Note_on_c, 1, 78, 127
2, 11760, Note_off_c, 1, 79, 0
2, 11760, Note_on_c, 1, 81, 127
2, 11760, Note_on_c, 1, 83, 127
2, 11760, Note_off_c, 1, 86, 0
2, 11760, Note_off_c, 1, 88, 0
2, 11800, Note_on_c, 1, 40, 127
2, 11800, Note_on_c, 1, 52, 127
2, 11800, Note_off_c, 1, 71, 0
2, 11800, Note_off_c, 1, 78, 0
2, 11800, Note_off_c, 1, 81, 0
2, 11800, Note_off_c, 1, 83, 0
2, 11840, Note_off_c, 1, 40, 0
2, 11840, Note_off_c, 1, 47, 0
2, 11840, Note_on_c, 1, 51, 127
2, 11840, Note_off_c, 1, 52, 0
2, 11840, Note_on_c, 1, 54, 127
2, 11840, Note_on_c, 1, 59, 127
2, 11840, Note_on_c, 1, 87, 127
2, 11880, Note_off_c, 1, 87, 0
2, 11880, Note_on_c, 1, 95, 127
2, 11920, Note_on_c, 1, 50, 127
2, 11920, Note_off_c, 1, 51, 0
2, 11920, Note_off_c, 1, 54, 0
2, 11920, Note_on_c, 1, 55, 127
2, 11920, Note_off_c, 1, 59, 0
2, 11920, Note_on_c, 1, 69, 127
2, 11920, Note_on_c, 1, 72, 127
2, 11920, Note_off_c, 1, 95, 0
2, 11960, Note_off_c, 1, 50, 0
2, 11960, Note_off_c, 1, 55, 0
2, 11960, Note_off_c, 1, 69, 0
2, 11960, Note_off_c, 1, 72, 0
2, 12000, Note_on_c, 1, 39, 127
2, 12000, Note_on_c, 1, 51, 127
2, 12000, Note_on_c, 1, 56, 127
2, 12000, Note_on_c, 1, 59, 127
2, 12040, Note_off_c, 1, 56, 0
2, 12040, Note_on_c, 1, 57, 127
2, 12040, Note_on_c, 1, 66, 127
2, 12080, Note_off_c, 1, 39, 0
2, 12080, Note_on_c, 1, 49, 127
2, 12080, Note_off_c, 1, 51, 0
2, 12080, Note_off_c, 1, 57, 0
2, 12080, Note_on_c, 1, 58, 127
2, 12080, Note_off_c, 1, 59, 0
2, 12080, Note_on_c, 1, 65, 127
2, 12080, Note_off_c, 1, 66, 0
2, 12080, Note_on_c, 1, 68, 127
2, 12080, Note_on_c, 1, 72, 127
2, 12120, Note_on_c, 1, 39, 127
2, 12120, Note_off_c, 1, 49, 0
2, 12120, Note_on_c, 1, 51, 127
2, 12120, Note_on_c, 1, 56, 127
2, 12120, Note_off_c, 1, 58, 0
2, 12120, Note_on_c, 1, 59, 127
2, 12120, Note_off_c, 1, 65, 0
2, 12120, Note_off_c, 1, 68, 0
2, 12120, Note_off_c, 1, 72, 0
2, 12160, Note_off_c, 1, 39, 0
2, 12160, Note_on_c, 1, 49, 127
2, 12160, Note_on_c, 1, 50, 127
2, 12160, Note_off_c, 1, 51, 0
2, 12160, Note_off_c, 1, 56, 0
2, 12160, Note_off_c, 1, 59, 0
2, 12160, Note_on_c, 1, 95, 127
2, 12160, Note_on_c, 1, 97, 127
2, 12200, Note_off_c, 1, 49, 0
2, 12200, Note_off_c, 1, 50, 0
2, 12200, Note_on_c, 1, 52, 127
2, 12200, Note_on_c, 1, 59, 127
2, 12200, Note_on_c, 1, 62, 127
2, 12200, Note_on_c, 1, 68, 127
2, 12200, Note_on_c, 1, 74, 127
2, 12200, Note_on_c, 1, 83, 127
2, 12200, Note_off_c, 1, 95, 0
2, 12200, Note_off_c, 1, 97, 0
2, 12240, Note_off_c, 1, 52, 0
2, 12240, Note_on_c, 1, 54, 127
2, 12240, Note_off_c, 1, 59, 0
2, 12240, Note_on_c, 1, 66, 127
2, 12240, Note_on_c, 1, 67, 127
2, 12240, Note_off_c, 1, 68, 0
2, 12240, Note_off_c, 1, 74, 0
2, 12240, Note_off_c, 1, 83, 0
2, 12280, Note_on_c, 1, 49, 127
2, 12280, Note_off_c, 1, 54, 0
2, 12280, Note_on_c, 1, 59, 127
2, 12280, Note_off_c, 1, 62, 0
2, 12280, Note_off_c, 1, 66, 0
2, 12280, Note_on_c, 1, 71, 127
2, 12320, Note_on_c, 1, 39, 127
2, 12320, Note_off_c, 1, 49, 0
2, 12320, Note_off_c, 1, 59, 0
2, 12320, Note_on_c, 1, 70, 127
2, 12320, Note_off_c, 1, 71, 0
2, 12320, Note_on_c, 1, 75, 127
2, 12320, Note_on_c, 1, 79, 127
2, 12320, Note_on_c, 1, 87, 127
2, 12360, Note_off_c, 1, 39, 0
2, 12360, Note_on_c, 1, 42, 127
2, 12360, Note_on_c, 1, 43, 127
2, 12360, Note_on_c, 1, 47, 127
2, 12360, Note_on_c, 1, 50, 127
2, 12360, Note_on_c, 1, 56, 127
2, 12360, Note_on_c, 1, 62, 127
2, 12360, Note_off_c, 1, 70, 0
2, 12360, Note_off_c, 1, 75, 0
2, 12360, Note_off_c, 1, 79, 0
2, 12360, Note_off_c, 1, 87, 0
2, 12400, Note_on_c, 1, 33, 127
2, 12400, Note_on_c, 1, 40, 127
2, 12400, Note_off_c, 1, 42, 0
2, 12400, Note_off_c, 1, 43, 0
2, 12400, Note_on_c, 1, 45, 127
2, 12400, Note_off_c, 1, 47, 0
2, 12400, Note_off_c, 1, 50, 0
2, 12400, Note_off_c, 1, 56, 0
2, 12400, Note_on_c, 1, 60, 127
2, 12400, Note_off_c, 1, 62, 0
2, 12400, Note_on_c, 1, 64, 127
2, 12400, Note_off_c, 1, 67, 0
2, 12400, Note_on_c, 1, 71, 127
2, 12440, Note_off_c, 1, 33, 0
2, 12440, Note_off_c, 1, 40, 0
2, 12440, Note_off_c, 1, 45, 0
2, 12440, Note_on_c, 1, 48, 127
2, 12440, Note_on_c, 1, 52, 127
2, 12440, Note_on_c, 1, 55, 127
2, 12440, Note_off_c, 1, 64, 0
2, 12440, Note_off_c, 1, 71, 0
2, 12440, Note_on_c, 1, 88, 127
2, 12440, Note_on_c, 1, 91, 127
2, 12440, Note_on_c, 1, 96, 127
2, 12440, Note_on_c, 1, 100, 127
2, 12480, Note_on_c, 1, 45, 127
2, 12480, Note_off_c, 1, 52, 0
2, 12480, Note_off_c, 1, 55, 0
2, 12480, Note_on_c, 1, 57, 127
2, 12480, Note_on_c, 1, 64, 127
2, 12480, Note_off_c, 1, 88, 0
2, 12480, Note_off_c, 1, 91, 0
2, 12480, Note_off_c, 1, 96, 0
2, 12480, Note_off_c, 1, 100, 0
2, 12520, Note_off_c, 1, 45, 0
2, 12520, Note_off_c, 1, 57, 0
2, 12520, Note_on_c, 1, 59, 127
2, 12520, Note_off_c, 1, 60, 0
2, 12520, Note_off_c, 1, 64, 0
2, 12520, Note_on_c, 1, 77, 127
2, 12560, Note_off_c, 1, 48, 0
2, 12560, Note_off_c, 1, 59, 0
2, 12560, Note_off_c, 1, 77, 0
2, 12600, Note_on_c, 1, 54, 127
2, 12600, Note_on_c, 1, 55, 127
2, 12640, Note_on_c, 1, 52, 127
2, 12640, Note_off_c, 1, 54, 0
2, 12640, Note_off_c, 1, 55, 0
2, 12720, Note_on_c, 1, 50, 127
2, 12720, Note_off_c, 1, 52, 0
2, 12720, Note_on_c, 1, 57, 127
2, 12720, Note_on_c, 1, 71, 127
2, 12760, Note_off_c, 1, 57, 0
2, 12760, Note_off_c, 1, 71, 0
2, 12800, Note_off_c, 1, 50, 0
2, 12800, Note_on_c, 1, 51, 127
2, 12800, Note_on_c, 1, 57, 127
2, 12800, Note_on_c, 1, 60, 127
2, 12800, Note_on_c, 1, 65, 127
2, 12840, Note_on_c, 1, 50, 127
2, 12840, Note_off_c, 1, 51, 0
2, 12840, Note_off_c, 1, 57, 0
2, 12840, Note_off_c, 1, 60, 0
2, 12840, Note_off_c, 1, 65, 0
2, 12880, Note_off_c, 1, 50, 0
2, 12880, Note_on_c, 1, 55, 127
2, 12880, Note_on_c, 1, 61, 127
2, 12880, Note_on_c, 1, 85, 127
2, 12920, Note_on_c, 1, 52, 127
2, 12920, Note_off_c, 1, 55, 0
2, 12920, Note_on_c, 1, 56, 127
2, 12920, Note_on_c, 1, 59, 127
2, 12920, Note_off_c, 1, 61, 0
2, 12920, Note_on_c, 1, 62, 127
2, 12920, Note_on_c, 1, 68, 127
2, 12920, Note_on_c, 1, 71, 127
2, 12920, Note_on_c, 1, 76, 127
2, 12920, Note_off_c, 1, 85, 0
2, 12960, Note_on_c, 1, 45, 127
2, 12960, Note_off_c, 1, 52, 0
2, 12960, Note_off_c, 1, 56, 0
2, 12960, Note_off_c, 1, 59, 0
2, 12960, Note_off_c, 1, 62, 0
2, 12960, Note_off_c, 1, 68, 0
2, 12960, Note_off_c, 1, 71, 0
2, 12960, Note_off_c, 1, 76, 0
2, 12960, Note_on_c, 1, 78, 127
2, 12960, Note_on_c, 1, 87, 127
2, 12960, Note_on_c, 1, 90, 127
2, 13000, Note_off_c, 1, 45, 0
2, 13000, Note_on_c, 1, 49, 127
2, 13000, Note_on_c, 1, 56, 127
2, 13000, Note_off_c, 1, 78, 0
2, 13000, Note_on_c, 1, 83, 127
2, 13000, Note_off_c, 1, 87, 0
2, 13000, Note_off_c, 1, 90, 0
2, 13040, Note_off_c, 1, 49, 0
2, 13040, Note_on_c, 1, 53, 127
2, 13040, Note_off_c, 1, 56, 0
2, 13040, Note_on_c, 1, 60, 127
2, 13040, Note_on_c, 1, 74, 127
2, 13040, Note_on_c, 1, 82, 127
2, 13040, Note_off_c, 1, 83, 0
2, 13080, Note_on_c, 1, 49, 127
2, 13080, Note_off_c, 1, 53, 0
2, 13080, Note_on_c, 1, 58, 127
2, 13080, Note_off_c, 1, 60, 0
2, 13080, Note_on_c, 1, 66, 127
2, 13080, Note_on_c, 1, 72, 127
2, 13080, Note_off_c, 1, 74, 0
2, 13080, Note_off_c, 1, 82, 0
2, 13080, Note_on_c, 1, 84, 127
2, 13120, Note_on_c, 1, 37, 127
2, 13120, Note_on_c, 1, 40, 127
2, 13120, Note_on_c, 1, 45, 127
2, 13120, Note_off_c, 1, 58, 0
2, 13120, Note_off_c, 1, 72, 0
2, 13120, Note_off_c, 1, 84, 0
2, 13160, Note_off_c, 1, 37, 0
2, 13160, Note_off_c, 1, 40, 0
2, 13160, Note_off_c, 1, 45, 0
2, 13160, Note_off_c, 1, 66, 0
2, 13160, Note_on_c, 1, 80, 127
2, 13200, Note_off_c, 1, 49, 0
2, 13200, Note_on_c, 1, 52, 127
2, 13200, Note_on_c, 1, 56, 127
2, 13200, Note_on_c, 1, 64, 127
2, 13200, Note_on_c, 1, 71, 127
2, 13200, Note_off_c, 1, 80, 0
2, 13240, Note_on_c, 1, 49, 127
2, 13240, Note_off_c, 1, 52, 0
2, 13240, Note_off_c, 1, 56, 0
2, 13240, Note_on_c, 1, 63, 127
2, 13240, Note_off_c, 1, 64, 0
2, 13280, Note_off_c, 1, 49, 0
2, 13280, Note_on_c, 1, 56, 127
2, 13280, Note_off_c, 1, 63, 0
2, 13280, Note_on_c, 1, 68, 127
2, 13320, Note_off_c, 1, 68, 0
2, 13320, Note_off_c, 1, 71, 0
2, 13320, Note_on_c, 1, 76, 127
2, 13360, Note_on_c, 1, 36, 127
2, 13360, Note_on_c, 1, 46, 127
2, 13360, Note_off_c, 1, 56, 0
2, 13360, Note_on_c, 1, 62, 127
2, 13360, Note_off_c, 1, 76, 0
2, 13400, Note_on_c, 1, 29, 127
2, 13400, Note_off_c, 1, 36, 0
2, 13400, Note_off_c, 1, 46, 0
2, 13400, Note_on_c, 1, 60, 127
2, 13400, Note_off_c, 1, 62, 0
2, 13400, Note_on_c, 1, 65, 127
2, 13400, Note_on_c, 1, 69, 127
2, 13400, Note_on_c, 1, 72, 127
2, 13440, Note_off_c, 1, 29, 0
2, 13440, Note_on_c, 1, 40, 127
2, 13440, Note_off_c, 1, 60, 0
2, 13440, Note_off_c, 1, 65, 0
2, 13440, Note_off_c, 1, 69, 0
2, 13440, Note_off_c, 1, 72, 0
2, 13440, Note_on_c, 1, 90, 127
2, 13440, Note_on_c, 1, 92, 127
2, 13440, Note_on_c, 1, 95, 127
2, 13440, Note_on_c, 1, 98, 127
2, 13440, Note_on_c, 1, 102, 127
2, 13480, Note_on_c, 1, 36, 127
2, 13480, Note_off_c, 1, 40, 0
2, 13480, Note_on_c, 1, 43, 127
2, 13480, Note_on_c, 1, 55, 127
2, 13480, Note_on_c, 1, 59, 127
2, 13480, Note_on_c, 1, 62, 127
2, 13480, Note_off_c, 1, 90, 0
2, 13480, Note_off_c, 1, 92, 0
2, 13480, Note_off_c, 1, 95, 0
2, 13480, Note_off_c, 1, 98, 0
2, 13480, Note_off_c, 1, 102, 0
2, 13520, Note_off_c, 1, 36, 0
2, 13520, Note_on_c, 1, 37, 127
2, 13520, Note_off_c, 1, 43, 0
2, 13520, Note_on_c, 1, 44, 127
2, 13520, Note_off_c, 1, 55, 0
2, 13520, Note_on_c, 1, 58, 127
2, 13520, Note_off_c, 1, 59, 0
2, 13520, Note_on_c, 1, 61, 127
2, 13520, Note_off_c, 1, 62, 0
2, 13520, Note_on_c, 1, 65, 127
2, 13560, Note_off_c, 1, 37, 0
2, 13560, Note_on_c, 1, 40, 127
2, 13560, Note_off_c, 1, 44, 0
2, 13560, Note_off_c, 1, 58, 0
2, 13560, Note_off_c, 1, 61, 0
2, 13560, Note_off_c, 1, 65, 0
2, 13560, Note_on_c, 1, 71, 127
2, 13560, Note_on_c, 1, 76, 127
2, 13560, Note_on_c, 1, 81, 127
2, 13600, Note_off_c, 1, 40, 0
2, 13600, Note_on_c, 1, 47, 127
2, 13600, Note_on_c, 1, 55, 127
2, 13600, Note_on_c, 1, 57, 127
2, 13600, Note_on_c, 1, 61, 127
2, 13600, Note_on_c, 1, 66, 127
2, 13600, Note_on_c, 1, 69, 127
2, 13600, Note_off_c, 1, 71, 0
2, 13600, Note_off_c, 1, 76, 0
2, 13600, Note_off_c, 1, 81, 0
2, 13640, Note_off_c, 1, 47, 0
2, 13640, Note_on_c, 1, 52, 127
2, 13640, Note_off_c, 1, 57, 0
2, 13640, Note_off_c, 1, 61, 0
2, 13640, Note_off_c, 1, 66, 0
2, 13640, Note_off_c, 1, 69, 0
2, 13640, Note_on_c, 1, 71, 127
2, 13640, Note_on_c, 1, 74, 127
2, 13640, Note_on_c, 1, 83, 127
2, 13680, Note_off_c, 1, 52, 0
2, 13680, Note_off_c, 1, 55, 0
2, 13680, Note_off_c, 1, 74, 0
2, 13680, Note_on_c, 1, 76, 127
2, 13680, Note_on_c, 1, 79, 127
2, 13680, Note_off_c, 1, 83, 0
2, 13680, Note_on_c, 1, 95, 127
2, 13720, Note_on_c, 1, 42, 127
2, 13720, Note_off_c, 1, 71, 0
2, 13720, Note_off_c, 1, 76, 0
2, 13720, Note_off_c, 1, 79, 0
2, 13720, Note_on_c, 1, 86, 127
2, 13720, Note_off_c, 1, 95, 0
2, 13760, Note_off_c, 1, 42, 0
2, 13760, Note_on_c, 1, 48, 127
2, 13760, Note_on_c, 1, 57, 127
2, 13760, Note_on_c, 1, 72, 127
2, 13760, Note_on_c, 1, 76, 127
2, 13760, Note_on_c, 1, 77, 127
2, 13760, Note_off_c, 1, 86, 0
2, 13800, Note_off_c, 1, 48, 0
2, 13800, Note_off_c, 1, 57, 0
2, 13800, Note_on_c, 1, 70, 127
2, 13800, Note_off_c, 1, 72, 0
2, 13800, Note_off_c, 1, 77, 0
2, 13800, Note_on_c, 1, 79, 127
2, 13800, Note_on_c, 1, 81, 127
2, 13800, Note_on_c, 1, 88, 127
2, 13840, Note_off_c, 1, 70, 0
2, 13840, Note_off_c, 1, 76, 0
2, 13840, Note_on_c, 1, 77, 127
2, 13840, Note_off_c, 1, 79, 0
2, 13840, Note_off_c, 1, 88, 0
2, 13840, Note_on_c, 1, 91, 127
2, 13840, Note_on_c, 1, 96, 127
2, 13880, Note_on_c, 1, 48, 127
2, 13880, Note_on_c, 1, 52, 127
2, 13880, Note_on_c, 1, 55, 127
2, 13880, Note_on_c, 1, 58, 127
2, 13880, Note_off_c, 1, 77, 0
2, 13880, Note_on_c, 1, 79, 127
2, 13880, Note_off_c, 1, 81, 0
2, 13880, Note_off_c, 1, 91, 0
2, 13880, Note_off_c, 1, 96, 0
2, 13920, Note_off_c, 1, 48, 0
2, 13920, Note_off_c, 1, 52, 0
2, 13920, Note_off_c, 1, 55, 0
2, 13920, Note_on_c, 1, 57, 127
2, 13920, Note_off_c, 1, 58, 0
2, 13920, Note_off_c, 1, 79, 0
2, 13920, Note_on_c, 1, 96, 127
2, 13960, Note_off_c, 1, 57, 0
2, 13960, Note_on_c, 1, 65, 127
2, 13960, Note_on_c, 1, 69, 127
2, 13960, Note_on_c, 1, 94, 127
2, 13960, Note_off_c, 1, 96, 0
2, 14000, Note_off_c, 1, 65, 0
2, 14000, Note_off_c, 1, 69, 0
2, 14000, Note_off_c, 1, 94, 0
2, 14000, Note_on_c, 1, 96, 127
2, 14040, Note_off_c, 1, 96, 0
2, 14080, Note_on_c, 1, 69, 127
2, 14080, Note_on_c, 1, 93, 127
2, 14080, Note_on_c, 1, 96, 127
2, 14640, Note_on_c, 1, 34, 127
2, 14640, Note_on_c, 1, 38, 127
2, 14640, Note_on_c, 1, 41, 127
2, 14640, Note_on_c, 1, 46, 127
2, 14640, Note_on_c, 1, 53, 127
2, 14640, Note_on_c, 1, 58, 127
2, 14640, Note_on_c, 1, 62, 127
2, 14640, Note_on_c, 1, 65, 127
2, 14640, Note_off_c, 1, 69, 0
2, 14640, Note_off_c, 1, 93, 0
2, 14640, Note_off_c, 1, 96, 0
2, 14680, Note_off_c, 1, 34, 0
2, 14680, Note_off_c, 1, 38, 0
2, 14680, Note_off_c, 1, 41, 0
2, 14680, Note_off_c, 1, 46, 0
2, 14680, Note_off_c, 1, 53, 0
2, 14680, Note_off_c, 1, 58, 0
2, 14680, Note_off_c, 1, 62, 0
2, 14680, Note_off_c, 1, 65, 0
2, 14680, Note_on_c, 1, 69, 127
2, 14680, Note_on_c, 1, 93, 127
2, 14680, Note_on_c, 1, 96, 127
2, 15040, Note_off_c, 1, 69, 0
2, 15040, Note_off_c, 1, 93, 0
2, 15040, Note_off_c, 1, 96, 0
2, 15080, Note_on_c, 1, 69, 127
2, 15080, Note_on_c, 1, 93, 127
2, 15080, Note_on_c, 1, 96, 127
2, 15240, Note_off_c, 1, 69, 0
2, 15240, Note_off_c, 1, 93, 0
2, 15240, Note_off_c, 1, 96, 0
2, 15360, Note_on_c, 1, 45, 127
2, 15360, Note_on_c, 1, 48, 127
2, 15360, Note_on_c, 1, 81, 127
2, 15520, Note_off_c, 1, 48, 0
2, 15520, Note_off_c, 1, 81, 0
2, 15560, Note_off_c, 1, 45, 0
2, 15560, Note_on_c, 1, 55, 127
2, 15560, Note_on_c, 1, 67, 127
2, 15560, Note_on_c, 1, 76, 127
2, 15560, Note_on_c, 1, 79, 127
2, 16120, Note_off_c, 1, 55, 0
2, 16120, Note_off_c, 1, 67, 0
2, 16120, Note_off_c, 1, 76, 0
2, 16120, Note_off_c, 1, 79, 0
2, 16200, Note_on_c, 1, 55, 127
2, 16200, Note_on_c, 1, 67, 127
2, 16200, Note_on_c, 1, 76, 127
2, 16200, Note_on_c, 1, 79, 127
2, 17000, Note_off_c, 1, 55, 0
2, 17000, Note_off_c, 1, 67, 0
2, 17000, Note_off_c, 1, 76, 0
2, 17000, Note_off_c, 1, 79, 0
2, 17040, Note_on_c, 1, 49, 127
2, 17040, Note_on_c, 1, 54, 127
2, 17040, Note_on_c, 1, 61, 127
2, 17040, Note_on_c, 1, 64, 127
2, 17040, Note_on_c, 1, 70, 127
2, 17040, Note_on_c, 1, 76, 127
2, 17400, Note_off_c, 1, 49, 0
2, 17400, Note_off_c, 1, 54, 0
2, 17400, Note_off_c, 1, 61, 0
2, 17400, Note_off_c, 1, 64, 0
2, 17400, Note_off_c, 1, 70, 0
2, 17400, Note_off_c, 1, 76, 0
2, 17440, Note_on_c, 1, 54, 127
2, 17440, Note_on_c, 1, 64, 127
2, 17440, Note_on_c, 1, 70, 127
2, 17440, Note_on_c, 1, 75, 127
2, 17560, Note_off_c, 1, 75, 0
2, 17600, Note_on_c, 1, 73, 127
2, 17840, Note_off_c, 1, 54, 0
2, 17840, Note_off_c, 1, 64, 0
2, 17840, Note_off_c, 1, 70, 0
2, 17840, Note_off_c, 1, 73, 0
2, 17880, Note_on_c, 1, 56, 127
2, 17880, Note_on_c, 1, 68, 127
2, 17880, Note_on_c, 1, 71, 127
2, 17880, Note_on_c, 1, 80, 127
2, 17880, Note_on_c, 1, 83, 127
2, 18160, Note_on_c, 1, 51, 127
2, 18160, Note_off_c, 1, 56, 0
2, 18160, Note_off_c, 1, 68, 0
2, 18160, Note_off_c, 1, 71, 0
2, 18160, Note_off_c, 1, 80, 0
2, 18160, Note_off_c, 1, 83, 0
2, 18160, Note_on_c, 1, 91, 127
2, 18160, Note_on_c, 1, 92, 127
2, 18160, Note_on_c, 1, 94, 127
2, 18160, Note_on_c, 1, 95, 127
2, 18200, Note_on_c, 1, 48, 127
2, 18200, Note_off_c, 1, 51, 0
2, 18200, Note_on_c, 1, 55, 127
2, 18200, Note_on_c, 1, 62, 127
2, 18200, Note_off_c, 1, 91, 0
2, 18200, Note_off_c, 1, 92, 0
2, 18200, Note_off_c, 1, 94, 0
2, 18200, Note_off_c, 1, 95, 0
2, 18200, Note_on_c, 1, 96, 127
2, 18240, Note_on_c, 1, 40, 127
2, 18240, Note_off_c, 1, 48, 0
2, 18240, Note_on_c, 1, 52, 127
2, 18240, Note_off_c, 1, 55, 0
2, 18240, Note_off_c, 1, 62, 0
2, 18240, Note_on_c, 1, 64, 127
2, 18240, Note_off_c, 1, 96, 0
2, 18280, Note_off_c, 1, 40, 0
2, 18280, Note_off_c, 1, 52, 0
2, 18280, Note_off_c, 1, 64, 0
2, 18320, Note_on_c, 1, 55, 127
2, 18320, Note_on_c, 1, 71, 127
2, 18320, Note_on_c, 1, 76, 127
2, 18320, Note_on_c, 1, 81, 127
2, 18560, Note_off_c, 1, 55, 0
2, 18560, Note_on_c, 1, 59, 127
2, 18600, Note_off_c, 1, 59, 0
2, 18600, Note_off_c, 1, 71, 0
2, 18600, Note_on_c, 1, 74, 127
2, 18600, Note_off_c, 1, 76, 0
2, 18600, Note_on_c, 1, 78, 127
2, 18600, Note_off_c, 1, 81, 0
2, 18600, Note_on_c, 1, 83, 127
2, 18600, Note_on_c, 1, 86, 127
2, 18600, Note_on_c, 1, 97, 127
2, 18640, Note_on_c, 1, 55, 127
2, 18640, Note_on_c, 1, 71, 127
2, 18640, Note_off_c, 1, 74, 0
2, 18640, Note_on_c, 1, 76, 127
2, 18640, Note_off_c, 1, 78, 0
2, 18640, Note_on_c, 1, 81, 127
2, 18640, Note_off_c, 1, 83, 0
2, 18640, Note_off_c, 1, 86, 0
2, 18640, Note_off_c, 1, 97, 0
2, 18680, Note_off_c, 1, 55, 0
2, 18680, Note_off_c, 1, 71, 0
2, 18680, Note_off_c, 1, 81, 0
2, 18720, Note_on_c, 1, 35, 127
2, 18720, Note_on_c, 1, 66, 127
2, 18720, Note_on_c, 1, 69, 127
2, 18720, Note_on_c, 1, 75, 127
2, 18720, Note_off_c, 1, 76, 0
2, 18760, Note_off_c, 1, 35, 0
2, 18760, Note_on_c, 1, 42, 127
2, 18760, Note_on_c, 1, 54, 127
2, 18760, Note_on_c, 1, 61, 127
2, 18760, Note_off_c, 1, 66, 0
2, 18760, Note_off_c, 1, 69, 0
2, 18760, Note_off_c, 1, 75, 0
2, 18760, Note_on_c, 1, 76, 127
2, 18760, Note_on_c, 1, 88, 127
2, 18800, Note_off_c, 1, 42, 0
2, 18800, Note_on_c, 1, 48, 127
2, 18800, Note_on_c, 1, 51, 127
2, 18800, Note_off_c, 1, 54, 0
2, 18800, Note_on_c, 1, 57, 127
2, 18800, Note_on_c, 1, 60, 127
2, 18800, Note_off_c, 1, 61, 0
2, 18800, Note_on_c, 1, 63, 127
2, 18800, Note_on_c, 1, 75, 127
2, 18800, Note_off_c, 1, 76, 0
2, 18800, Note_off_c, 1, 88, 0
2, 18840, Note_off_c, 1, 48, 0
2, 18840, Note_off_c, 1, 51, 0
2, 18840, Note_off_c, 1, 57, 0
2, 18840, Note_off_c, 1, 60, 0
2, 18840, Note_off_c, 1, 63, 0
2, 18840, Note_on_c, 1, 68, 127
2, 18840, Note_on_c, 1, 71, 127
2, 18840, Note_off_c, 1, 75, 0
2, 18840, Note_on_c, 1, 80, 127
2, 18840, Note_on_c, 1, 89, 127
2, 18880, Note_on_c, 1, 36, 127
2, 18880, Note_on_c, 1, 48, 127
2, 18880, Note_on_c, 1, 66, 127
2, 18880, Note_off_c, 1, 68, 0
2, 18880, Note_on_c, 1, 69, 127
2, 18880, Note_off_c, 1, 71, 0
2, 18880, Note_on_c, 1, 75, 127
2, 18880, Note_on_c, 1, 78, 127
2, 18880, Note_off_c, 1, 80, 0
2, 18880, Note_off_c, 1, 89, 0
2, 18920, Note_off_c, 1, 36, 0
2, 18920, Note_on_c, 1, 37, 127
2, 18920, Note_off_c, 1, 48, 0
2, 18920, Note_off_c, 1, 66, 0
2, 18920, Note_on_c, 1, 68, 127
2, 18920, Note_off_c, 1, 69, 0
2, 18920, Note_off_c, 1, 78, 0
2, 18920, Note_on_c, 1, 83, 127
2, 18960, Note_off_c, 1, 37, 0
2, 18960, Note_on_c, 1, 39, 127
2, 18960, Note_on_c, 1, 46, 127
2, 18960, Note_on_c, 1, 53, 127
2, 18960, Note_on_c, 1, 65, 127
2, 18960, Note_off_c, 1, 75, 0
2, 18960, Note_off_c, 1, 83, 0
2, 19000, Note_on_c, 1, 37, 127
2, 19000, Note_off_c, 1, 39, 0
2, 19000, Note_on_c, 1, 40, 127
2, 19000, Note_on_c, 1, 43, 127
2, 19000, Note_off_c, 1, 46, 0
2, 19000, Note_on_c, 1, 49, 127
2, 19000, Note_off_c, 1, 53, 0
2, 19000, Note_on_c, 1, 61, 127
2, 19000, Note_on_c, 1, 64, 127
2, 19000, Note_off_c, 1, 65, 0
2, 19000, Note_on_c, 1, 67, 127
2, 19000, Note_off_c, 1, 68, 0
2, 19000, Note_on_c, 1, 73, 127
2, 19040, Note_off_c, 1, 37, 0
2, 19040, Note_off_c, 1, 40, 0
2, 19040, Note_off_c, 1, 43, 0
2, 19040, Note_on_c, 1, 45, 127
2, 19040, Note_off_c, 1, 49, 0
2, 19040, Note_on_c, 1, 50, 127
2, 19040, Note_on_c, 1, 57, 127
2, 19040, Note_on_c, 1, 60, 127
2, 19040, Note_off_c, 1, 61, 0
2, 19040, Note_off_c, 1, 64, 0
2, 19040, Note_off_c, 1, 67, 0
2, 19040, Note_on_c, 1, 72, 127
2, 19040, Note_off_c, 1, 73, 0
2, 19040, Note_on_c, 1, 74, 127
2, 19080, Note_off_c, 1, 45, 0
2, 19080, Note_on_c, 1, 49, 127
2, 19080, Note_off_c, 1, 50, 0
2, 19080, Note_on_c, 1, 56, 127
2, 19080, Note_off_c, 1, 57, 0
2, 19080, Note_on_c, 1, 59, 127
2, 19080, Note_off_c, 1, 60, 0
2, 19080, Note_off_c, 1, 72, 0
2, 19080, Note_off_c, 1, 74, 0
2, 19080, Note_on_c, 1, 82, 127
2, 19120, Note_off_c, 1, 49, 0
2, 19120, Note_on_c, 1, 52, 127
2, 19120, Note_off_c, 1, 56, 0
2, 19120, Note_on_c, 1, 58, 127
2, 19120, Note_off_c, 1, 59, 0
2, 19120, Note_on_c, 1, 73, 127
2, 19120, Note_on_c, 1, 80, 127
2, 19120, Note_off_c, 1, 82, 0
2, 19160, Note_off_c, 1, 52, 0
2, 19160, Note_on_c, 1, 64, 127
2, 19160, Note_on_c, 1, 67, 127
2, 19160, Note_on_c, 1, 78, 127
2, 19160, Note_off_c, 1, 80, 0
2, 19200, Note_off_c, 1, 58, 0
2, 19200, Note_off_c, 1, 64, 0
2, 19200, Note_off_c, 1, 67, 0
2, 19200, Note_on_c, 1, 72, 127
2, 19200, Note_off_c, 1, 73, 0
2, 19200, Note_on_c, 1, 74, 127
2, 19200, Note_off_c, 1, 78, 0
2, 19200, Note_on_c, 1, 81, 127
2, 19200, Note_on_c, 1, 100, 127
2, 19240, Note_on_c, 1, 54, 127
2, 19240, Note_on_c, 1, 61, 127
2, 19240, Note_on_c, 1, 64, 127
2, 19240, Note_on_c, 1, 71, 127
2, 19240, Note_off_c, 1, 72, 0
2, 19240, Note_off_c, 1, 74, 0
2, 19240, Note_off_c, 1, 81, 0
2, 19240, Note_on_c, 1, 95, 127
2, 19240, Note_off_c, 1, 100, 0
2, 19280, Note_off_c, 1, 54, 0
2, 19280, Note_on_c, 1, 58, 127
2, 19280, Note_off_c, 1, 61, 0
2, 19280, Note_on_c, 1, 67, 127
2, 19280, Note_off_c, 1, 71, 0
2, 19280, Note_on_c, 1, 73, 127
2, 19280, Note_on_c, 1, 78, 127
2, 19280, Note_off_c, 1, 95, 0
2, 19320, Note_off_c, 1, 64, 0
2, 19320, Note_on_c, 1, 65, 127
2, 19320, Note_off_c, 1, 67, 0
2, 19320, Note_off_c, 1, 73, 0
2, 19320, Note_off_c, 1, 78, 0
2, 19320, Note_on_c, 1, 91, 127
2, 19320, Note_on_c, 1, 96, 127
2, 19360, Note_on_c, 1, 45, 127
2, 19360, Note_on_c, 1, 57, 127
2, 19360, Note_off_c, 1, 58, 0
2, 19360, Note_on_c, 1, 59, 127
2, 19360, Note_on_c, 1, 63, 127
2, 19360, Note_off_c, 1, 65, 0
2, 19360, Note_on_c, 1, 66, 127
2, 19360, Note_off_c, 1, 91, 0
2, 19360, Note_off_c, 1, 96, 0
2, 19400, Note_on_c, 1, 30, 127
2, 19400, Note_on_c, 1, 35, 127
2, 19400, Note_on_c, 1, 37, 127
2, 19400, Note_off_c, 1, 45, 0
2, 19400, Note_off_c, 1, 57, 0
2, 19400, Note_off_c, 1, 59, 0
2, 19400, Note_off_c, 1, 63, 0
2, 19400, Note_off_c, 1, 66, 0
2, 19400, Note_on_c, 1, 72, 127
2, 19440, Note_off_c, 1, 30, 0
2, 19440, Note_off_c, 1, 35, 0
2, 19440, Note_off_c, 1, 37, 0
2, 19440, Note_on_c, 1, 64, 127
2, 19440, Note_on_c, 1, 67, 127
2, 19440, Note_off_c, 1, 72, 0
2, 19440, Note_on_c, 1, 83, 127
2, 19440, Note_on_c, 1, 88, 127
2, 19480, Note_on_c, 1, 42, 127
2, 19480, Note_off_c, 1, 64, 0
2, 19480, Note_off_c, 1, 67, 0
2, 19480, Note_on_c, 1, 78, 127
2, 19480, Note_off_c, 1, 83, 0
2, 19480, Note_on_c, 1, 85, 127
2, 19480, Note_off_c, 1, 88, 0
2, 19520, Note_off_c, 1, 42, 0
2, 19520, Note_on_c, 1, 44, 127
2, 19520, Note_on_c, 1, 69, 127
2, 19520, Note_on_c, 1, 73, 127
2, 19520, Note_off_c, 1, 85, 0
2, 19560, Note_on_c, 1, 39, 127
2, 19560, Note_off_c, 1, 44, 0
2, 19560, Note_on_c, 1, 51, 127
2, 19560, Note_off_c, 1, 69, 0
2, 19560, Note_on_c, 1, 71, 127
2, 19560, Note_off_c, 1, 73, 0
2, 19560, Note_on_c, 1, 82, 127
2, 19600, Note_off_c, 1, 39, 0
2, 19600, Note_off_c, 1, 51, 0
2, 19600, Note_off_c, 1, 71, 0
2, 19600, Note_on_c, 1, 77, 127
2, 19600, Note_off_c, 1, 78, 0
2, 19600, Note_off_c, 1, 82, 0
2, 19600, Note_on_c, 1, 83, 127
2, 19600, Note_on_c, 1, 86, 127
2, 19600, Note_on_c, 1, 92, 127
2, 19640, Note_on_c, 1, 42, 127
2, 19640, Note_on_c, 1, 45, 127
2, 19640, Note_off_c, 1, 77, 0
2, 19640, Note_on_c, 1, 78, 127
2, 19640, Note_on_c, 1, 79, 127
2, 19640, Note_off_c, 1, 83, 0
2, 19640, Note_off_c, 1, 86, 0
2, 19640, Note_off_c, 1, 92, 0
2, 19680, Note_off_c, 1, 42, 0
2, 19680, Note_off_c, 1, 45, 0
2, 19680, Note_off_c, 1, 79, 0
2, 19720, Note_on_c, 1, 52, 127
2, 19720, Note_off_c, 1, 78, 0
2, 19720, Note_on_c, 1, 79, 127
2, 19720, Note_on_c, 1, 85, 127
2, 19720, Note_on_c, 1, 88, 127
2, 19720, Note_on_c, 1, 91, 127
2, 20480, Note_off_c, 1, 52, 0
2, 20480, Note_off_c, 1, 79, 0
2, 20480, Note_off_c, 1, 85, 0
2, 20480, Note_off_c, 1, 88, 0
2, 20480, Note_off_c, 1, 91, 0
2, 20600, Note_on_c, 1, 56, 127
2, 20600, Note_on_c, 1, 59, 127
2, 20600, Note_on_c, 1, 68, 127
2, 20720, Note_off_c, 1, 68, 0
2, 20720, Note_on_c, 1, 71, 127
2, 20760, Note_on_c, 1, 68, 127
2, 20760, Note_off_c, 1, 71, 0
2, 21000, Note_on_c, 1, 51, 127
2, 21000, Note_off_c, 1, 56, 0
2, 21000, Note_on_c, 1, 58, 127
2, 21000, Note_off_c, 1, 59, 0
2, 21000, Note_on_c, 1, 65, 127
2, 21000, Note_off_c, 1, 68, 0
2, 21000, Note_on_c, 1, 70, 127
2, 21040, Note_off_c, 1, 51, 0
2, 21040, Note_on_c, 1, 56, 127
2, 21040, Note_off_c, 1, 58, 0
2, 21040, Note_on_c, 1, 59, 127
2, 21040, Note_off_c, 1, 65, 0
2, 21040, Note_off_c, 1, 70, 0
2, 21040, Note_on_c, 1, 71, 127
2, 21400, Note_off_c, 1, 56, 0
2, 21400, Note_off_c, 1, 59, 0
2, 21400, Note_off_c, 1, 71, 0
2, 21440, Note_on_c, 1, 51, 127
2, 21440, Note_on_c, 1, 63, 127
2, 21440, Note_on_c, 1, 75, 127
2, 21880, Note_off_c, 1, 51, 0
2, 21880, Note_off_c, 1, 63, 0
2, 21880, Note_off_c, 1, 75, 0
2, 21920, Note_on_c, 1, 31, 127
2, 21920, Note_on_c, 1, 43, 127
2, 21920, Note_on_c, 1, 71, 127
2, 22280, Note_off_c, 1, 71, 0
2, 22320, Note_on_c, 1, 71, 127
2, 22480, Note_off_c, 1, 71, 0
2, 22520, Note_on_c, 1, 71, 127
2, 22680, Note_off_c, 1, 71, 0
2, 22720, Note_on_c, 1, 71, 127
2, 22800, Note_on_c, 1, 59, 127
2, 22880, Note_off_c, 1, 59, 0
2, 22880, Note_off_c, 1, 71, 0
2, 22920, Note_off_c, 1, 31, 0
2, 22920, Note_on_c, 1, 59, 127
2, 22920, Note_on_c, 1, 67, 127
2, 22920, Note_on_c, 1, 71, 127
2, 22920, Note_on_c, 1, 74, 127
2, 23040, Note_off_c, 1, 43, 0
2, 23040, Note_off_c, 1, 59, 0
2, 23040, Note_off_c, 1, 67, 0
2, 23040, Note_off_c, 1, 71, 0
2, 23040, Note_off_c, 1, 74, 0
2, 23080, Note_on_c, 1, 43, 127
2, 23080, Note_on_c, 1, 59, 127
2, 23080, Note_on_c, 1, 67, 127
2, 23080, Note_on_c, 1, 71, 127
2, 23080, Note_on_c, 1, 74, 127
2, 23120, Note_off_c, 1, 43, 0
2, 23120, Note_off_c, 1, 59, 0
2, 23120, Note_off_c, 1, 67, 0
2, 23120, Note_off_c, 1, 71, 0
2, 23120, Note_off_c, 1, 74, 0
2, 23160, Note_on_c, 1, 52, 127
2, 23160, Note_on_c, 1, 54, 127
2, 23160, Note_on_c, 1, 62, 127
2, 23160, Note_on_c, 1, 64, 127
2, 23200, Note_off_c, 1, 52, 0
2, 23200, Note_off_c, 1, 54, 0
2, 23200, Note_off_c, 1, 64, 0
2, 23200, Note_on_c, 1, 74, 127
2, 23200, Note_on_c, 1, 78, 127
2, 23200, Note_on_c, 1, 83, 127
2, 23200, Note_on_c, 1, 86, 127
2, 23240, Note_on_c, 1, 34, 127
2, 23240, Note_on_c, 1, 54, 127
2, 23240, Note_on_c, 1, 57, 127
2, 23240, Note_on_c, 1, 60, 127
2, 23240, Note_off_c, 1, 62, 0
2, 23240, Note_off_c, 1, 74, 0
2, 23240, Note_off_c, 1, 78, 0
2, 23240, Note_off_c, 1, 83, 0
2, 23240, Note_off_c, 1, 86, 0
2, 23280, Note_off_c, 1, 34, 0
2, 23280, Note_off_c, 1, 54, 0
2, 23280, Note_off_c, 1, 57, 0
2, 23280, Note_off_c, 1, 60, 0
2, 23280, Note_on_c, 1, 76, 127
2, 23280, Note_on_c, 1, 77, 127
2, 23280, Note_on_c, 1, 80, 127
2, 23320, Note_on_c, 1, 45, 127
2, 23320, Note_on_c, 1, 48, 127
2, 23320, Note_off_c, 1, 76, 0
2, 23320, Note_off_c, 1, 77, 0
2, 23320, Note_on_c, 1, 79, 127
2, 23320, Note_off_c, 1, 80, 0
2, 23320, Note_on_c, 1, 87, 127
2, 23360, Note_off_c, 1, 45, 0
2, 23360, Note_off_c, 1, 48, 0
2, 23360, Note_on_c, 1, 51, 127
2, 23360, Note_on_c, 1, 58, 127
2, 23360, Note_on_c, 1, 67, 127
2, 23360, Note_off_c, 1, 79, 0
2, 23360, Note_on_c, 1, 82, 127
2, 23400, Note_on_c, 1, 37, 127
2, 23400, Note_off_c, 1, 58, 0
2, 23400, Note_on_c, 1, 66, 127
2, 23400, Note_off_c, 1, 67, 0
2, 23400, Note_on_c, 1, 75, 127
2, 23400, Note_off_c, 1, 82, 0
2, 23400, Note_off_c, 1, 87, 0
2, 23440, Note_off_c, 1, 37, 0
2, 23440, Note_on_c, 1, 38, 127
2, 23440, Note_on_c, 1, 44, 127
2, 23440, Note_on_c, 1, 46, 127
2, 23440, Note_on_c, 1, 50, 127
2, 23440, Note_off_c, 1, 51, 0
2, 23440, Note_on_c, 1, 55, 127
2, 23440, Note_on_c, 1, 57, 127
2, 23440, Note_on_c, 1, 62, 127
2, 23440, Note_off_c, 1, 66, 0
2, 23440, Note_on_c, 1, 67, 127
2, 23440, Note_off_c, 1, 75, 0
2, 23480, Note_on_c, 1, 36, 127
2, 23480, Note_off_c, 1, 38, 0
2, 23480, Note_off_c, 1, 44, 0
2, 23480, Note_off_c, 1, 46, 0
2, 23480, Note_on_c, 1, 48, 127
2, 23480, Note_off_c, 1, 50, 0
2, 23480, Note_off_c, 1, 55, 0
2, 23480, Note_off_c, 1, 57, 0
2, 23480, Note_off_c, 1, 62, 0
2, 23480, Note_on_c, 1, 72, 127
2, 23480, Note_on_c, 1, 76, 127
2, 23480, Note_on_c, 1, 84, 127
2, 23520, Note_on_c, 1, 30, 127
2, 23520, Note_off_c, 1, 36, 0
2, 23520, Note_on_c, 1, 42, 127
2, 23520, Note_off_c, 1, 48, 0
2, 23520, Note_off_c, 1, 67, 0
2, 23520, Note_off_c, 1, 72, 0
2, 23520, Note_off_c, 1, 76, 0
2, 23520, Note_off_c, 1, 84, 0
2, 23560, Note_off_c, 1, 30, 0
2, 23560, Note_on_c, 1, 39, 127
2, 23560, Note_off_c, 1, 42, 0
2, 23560, Note_on_c, 1, 51, 127
2, 23560, Note_on_c, 1, 63, 127
2, 25360, Note_off_c, 1, 39, 0
2, 25360, Note_off_c, 1, 51, 0
2, 25360, Note_off_c, 1, 63, 0
2, 25400, Note_on_c, 1, 39, 127
2, 25400, Note_on_c, 1, 51, 127
2, 25400, Note_on_c, 1, 63, 127
2, 25720, Note_off_c, 1, 39, 0
2, 25720, Note_on_c, 1, 40, 127
2, 25720, Note_off_c, 1, 51, 0
2, 25720, Note_on_c, 1, 52, 127
2, 25720, Note_off_c, 1, 63, 0
2, 25720, Note_on_c, 1, 64, 127
2, 25800, Note_off_c, 1, 40, 0
2, 25800, Note_off_c, 1, 52, 0
2, 25800, Note_off_c, 1, 64, 0
2, 26320, Note_on_c, 1, 39, 127
2, 26320, Note_on_c, 1, 51, 127
2, 26320, Note_on_c, 1, 63, 127
2, 26320, Note_on_c, 1, 71, 127
2, 26320, Note_on_c, 1, 75, 127
2, 26360, Note_on_c, 1, 38, 127
2, 26360, Note_off_c, 1, 39, 0
2, 26360, Note_on_c, 1, 50, 127
2, 26360, Note_off_c, 1, 51, 0
2, 26360, Note_off_c, 1, 63, 0
2, 26360, Note_off_c, 1, 75, 0
2, 26360, Note_on_c, 1, 77, 127
2, 26360, Note_on_c, 1, 83, 127
2, 26400, Note_off_c, 1, 38, 0
2, 26400, Note_off_c, 1, 50, 0
2, 26400, Note_on_c, 1, 56, 127
2, 26400, Note_on_c, 1, 63, 127
2, 26400, Note_off_c, 1, 71, 0
2, 26400, Note_on_c, 1, 72, 127
2, 26400, Note_off_c, 1, 77, 0
2, 26400, Note_off_c, 1, 83, 0
2, 26400, Note_on_c, 1, 84, 127
2, 26400, Note_on_c, 1, 87, 127
2, 26400, Note_on_c, 1, 92, 127
2, 26400, Note_on_c, 1, 96, 127
2, 26840, Note_off_c, 1, 56, 0
2, 26840, Note_off_c, 1, 63, 0
2, 26840, Note_off_c, 1, 72, 0
2, 26840, Note_off_c, 1, 84, 0
2, 26840, Note_off_c, 1, 87, 0
2, 26840, Note_off_c, 1, 92, 0
2, 26840, Note_off_c, 1, 96, 0
2, 26920, Note_on_c, 1, 34, 127
2, 26920, Note_on_c, 1, 46, 127
2, 26920, Note_on_c, 1, 82, 127
2, 26920, Note_on_c, 1, 86, 127
2, 26920, Note_on_c, 1, 89, 127
2, 26920, Note_on_c, 1, 94, 127
2, 27240, Note_off_c, 1, 34, 0
2, 27240, Note_off_c, 1, 46, 0
2, 27240, Note_off_c, 1, 82, 0
2, 27240, Note_off_c, 1, 86, 0
2, 27240, Note_off_c, 1, 89, 0
2, 27240, Note_off_c, 1, 94, 0
2, 27320, Note_on_c, 1, 34, 127
2, 27320, Note_on_c, 1, 46, 127
2, 27320, Note_on_c, 1, 82, 127
2, 27320, Note_on_c, 1, 86, 127
2, 27320, Note_on_c, 1, 89, 127
2, 27320, Note_on_c, 1, 94, 127
2, 27640, Note_off_c, 1, 34, 0
2, 27640, Note_off_c, 1, 46, 0
2, 27640, Note_off_c, 1, 82, 0
2, 27640, Note_off_c, 1, 86, 0
2, 27640, Note_off_c, 1, 89, 0
2, 27640, Note_off_c, 1, 94, 0
2, 27720, Note_on_c, 1, 29, 127
2, 27720, Note_on_c, 1, 54, 127
2, 27760, Note_off_c, 1, 29, 0
2, 27760, Note_on_c, 1, 49, 127
2, 27760, Note_off_c, 1, 54, 0
2, 27760, Note_on_c, 1, 75, 127
2, 27760, Note_on_c, 1, 82, 127
2, 27800, Note_off_c, 1, 49, 0
2, 27800, Note_off_c, 1, 75, 0
2, 27800, Note_off_c, 1, 82, 0
2, 27840, Note_on_c, 1, 36, 127
2, 27840, Note_on_c, 1, 48, 127
2, 27840, Note_on_c, 1, 53, 127
2, 27840, Note_on_c, 1, 57, 127
2, 27880, Note_off_c, 1, 36, 0
2, 27880, Note_on_c, 1, 46, 127
2, 27880, Note_off_c, 1, 48, 0
2, 27880, Note_on_c, 1, 49, 127
2, 27880, Note_on_c, 1, 52, 127
2, 27880, Note_off_c, 1, 53, 0
2, 27880, Note_off_c, 1, 57, 0
2, 27920, Note_off_c, 1, 46, 0
2, 27920, Note_off_c, 1, 49, 0
2, 27920, Note_off_c, 1, 52, 0
2, 27920, Note_on_c, 1, 63, 127
2, 27920, Note_on_c, 1, 66, 127
2, 27920, Note_on_c, 1, 80, 127
2, 27920, Note_on_c, 1, 87, 127
2, 27920, Note_on_c, 1, 90, 127
2, 27960, Note_on_c, 1, 46, 127
2, 27960, Note_off_c, 1, 63, 0
2, 27960, Note_off_c, 1, 66, 0
2, 27960, Note_off_c, 1, 80, 0
2, 27960, Note_on_c, 1, 82, 127
2, 27960, Note_on_c, 1, 86, 127
2, 27960, Note_off_c, 1, 87, 0
2, 27960, Note_off_c, 1, 90, 0
2, 28000, Note_off_c, 1, 46, 0
2, 28000, Note_on_c, 1, 63, 127
2, 28000, Note_on_c, 1, 69, 127
2, 28000, Note_on_c, 1, 72, 127
2, 28000, Note_on_c, 1, 81, 127
2, 28000, Note_off_c, 1, 82, 0
2, 28000, Note_off_c, 1, 86, 0
2, 28000, Note_on_c, 1, 89, 127
2, 28000, Note_on_c, 1, 93, 127
2, 28040, Note_off_c, 1, 72, 0
2, 28040, Note_off_c, 1, 81, 0
2, 28040, Note_off_c, 1, 89, 0
2, 28040, Note_off_c, 1, 93, 0
2, 28040, Note_on_c, 1, 95, 127
2, 28080, Note_off_c, 1, 63, 0
2, 28080, Note_off_c, 1, 69, 0
2, 28080, Note_on_c, 1, 84, 127
2, 28080, Note_off_c, 1, 95, 0
2, 28120, Note_off_c, 1, 84, 0
2, 28160, Note_on_c, 1, 57, 127
2, 28160, Note_on_c, 1, 64, 127
2, 28160, Note_on_c, 1, 67, 127
2, 28160, Note_on_c, 1, 76, 127
2, 28160, Note_on_c, 1, 80, 127
2, 28360, Note_on_c, 1, 41, 127
2, 28360, Note_on_c, 1, 49, 127
2, 28360, Note_on_c, 1, 56, 127
2, 28360, Note_off_c, 1, 57, 0
2, 28360, Note_off_c, 1, 64, 0
2, 28360, Note_off_c, 1, 67, 0
2, 28360, Note_off_c, 1, 76, 0
2, 28360, Note_off_c, 1, 80, 0
2, 28360, Note_on_c, 1, 92, 127
2, 28400, Note_off_c, 1, 41, 0
2, 28400, Note_off_c, 1, 49, 0
2, 28400, Note_off_c, 1, 56, 0
2, 28400, Note_on_c, 1, 57, 127
2, 28400, Note_on_c, 1, 64, 127
2, 28400, Note_on_c, 1, 67, 127
2, 28400, Note_on_c, 1, 76, 127
2, 28400, Note_on_c, 1, 80, 127
2, 28400, Note_off_c, 1, 92, 0
2, 28440, Note_off_c, 1, 57, 0
2, 28440, Note_on_c, 1, 58, 127
2, 28440, Note_off_c, 1, 64, 0
2, 28440, Note_off_c, 1, 67, 0
2, 28440, Note_on_c, 1, 68, 127
2, 28440, Note_on_c, 1, 74, 127
2, 28440, Note_off_c, 1, 76, 0
2, 28440, Note_on_c, 1, 77, 127
2, 28440, Note_off_c, 1, 80, 0
2, 28440, Note_on_c, 1, 82, 127
2, 28440, Note_on_c, 1, 89, 127
2, 28480, Note_off_c, 1, 58, 0
2, 28480, Note_off_c, 1, 68, 0
2, 28480, Note_off_c, 1, 74, 0
2, 28480, Note_off_c, 1, 77, 0
2, 28480, Note_off_c, 1, 82, 0
2, 28480, Note_on_c, 1, 86, 127
2, 28480, Note_off_c, 1, 89, 0
2, 28520, Note_off_c, 1, 86, 0
2, 28560, Note_on_c, 1, 45, 127
2, 28560, Note_on_c, 1, 64, 127
2, 28560, Note_on_c, 1, 69, 127
2, 28560, Note_on_c, 1, 73, 127
2, 28560, Note_on_c, 1, 76, 127
2, 28920, Note_off_c, 1, 45, 0
2, 28920, Note_off_c, 1, 64, 0
2, 28920, Note_off_c, 1, 69, 0
2, 28920, Note_off_c, 1, 73, 0
2, 28920, Note_off_c, 1, 76, 0
2, 28960, Note_on_c, 1, 49, 127
2, 28960, Note_on_c, 1, 56, 127
2, 28960, Note_on_c, 1, 61, 127
2, 28960, Note_on_c, 1, 65, 127
2, 29280, Note_off_c, 1, 49, 0
2, 29280, Note_off_c, 1, 56, 0
2, 29280, Note_off_c, 1, 61, 0
2, 29280, Note_off_c, 1, 65, 0
2, 29320, Note_on_c, 1, 56, 127
2, 29320, Note_on_c, 1, 59, 127
2, 29320, Note_on_c, 1, 65, 127
2, 29320, Note_on_c, 1, 71, 127
2, 29680, Note_off_c, 1, 56, 0
2, 29680, Note_off_c, 1, 59, 0
2, 29680, Note_off_c, 1, 65, 0
2, 29680, Note_off_c, 1, 71, 0
2, 29720, Note_on_c, 1, 54, 127
2, 29720, Note_on_c, 1, 66, 127
2, 29920, Note_off_c, 1, 54, 0
2, 29920, Note_off_c, 1, 66, 0
2, 29960, Note_on_c, 1, 54, 127
2, 29960, Note_on_c, 1, 66, 127
2, 30480, Note_off_c, 1, 54, 0
2, 30480, Note_off_c, 1, 66, 0
2, 30560, Note_on_c, 1, 54, 127
2, 30560, Note_on_c, 1, 66, 127
2, 31120, Note_off_c, 1, 66, 0
2, 31160, Note_on_c, 1, 66, 127
2, 31680, Note_off_c, 1, 54, 0
2, 31680, Note_off_c, 1, 66, 0
2, 31720, Note_on_c, 1, 53, 127
2, 31720, Note_on_c, 1, 65, 127
2, 31720, Note_on_c, 1, 73, 127
2, 32080, Note_off_c, 1, 53, 0
2, 32080, Note_off_c, 1, 65, 0
2, 32080, Note_off_c, 1, 73, 0
2, 32120, Note_on_c, 1, 53, 127
2, 32120, Note_on_c, 1, 65, 127
2, 32120, Note_on_c, 1, 73, 127
2, 32520, Note_off_c, 1, 73, 0
2, 32560, Note_on_c, 1, 33, 127
2, 32560, Note_on_c, 1, 45, 127
2, 32560, Note_on_c, 1, 52, 127
2, 32560, Note_off_c, 1, 53, 0
2, 32560, Note_on_c, 1, 55, 127
2, 32560, Note_on_c, 1, 57, 127
2, 32560, Note_off_c, 1, 65, 0
2, 32560, Note_on_c, 1, 69, 127
2, 32920, Note_off_c, 1, 33, 0
2, 32920, Note_off_c, 1, 45, 0
2, 32920, Note_off_c, 1, 52, 0
2, 32920, Note_off_c, 1, 55, 0
2, 32920, Note_off_c, 1, 57, 0
2, 32920, Note_off_c, 1, 69, 0
2, 32960, Note_on_c, 1, 39, 127
2, 32960, Note_on_c, 1, 41, 127
2, 32960, Note_on_c, 1, 51, 127
2, 32960, Note_on_c, 1, 53, 127
2, 33000, Note_off_c, 1, 39, 0
2, 33000, Note_off_c, 1, 41, 0
2, 33000, Note_on_c, 1, 43, 127
2, 33000, Note_on_c, 1, 44, 127
2, 33000, Note_off_c, 1, 51, 0
2, 33000, Note_off_c, 1, 53, 0
2, 33000, Note_on_c, 1, 55, 127
2, 33000, Note_on_c, 1, 56, 127
2, 33040, Note_on_c, 1, 41, 127
2, 33040, Note_on_c, 1, 42, 127
2, 33040, Note_off_c, 1, 43, 0
2, 33040, Note_off_c, 1, 44, 0
2, 33040, Note_on_c, 1, 53, 127
2, 33040, Note_on_c, 1, 54, 127
2, 33040, Note_off_c, 1, 55, 0
2, 33040, Note_off_c, 1, 56, 0
2, 33080, Note_on_c, 1, 39, 127
2, 33080, Note_on_c, 1, 40, 127
2, 33080, Note_off_c, 1, 41, 0
2, 33080, Note_off_c, 1, 42, 0
2, 33080, Note_on_c, 1, 51, 127
2, 33080, Note_on_c, 1, 52, 127
2, 33080, Note_off_c, 1, 53, 0
2, 33080, Note_off_c, 1, 54, 0
2, 33120, Note_on_c, 1, 37, 127
2, 33120, Note_on_c, 1, 38, 127
2, 33120, Note_off_c, 1, 39, 0
2, 33120, Note_off_c, 1, 40, 0
2, 33120, Note_on_c, 1, 49, 127
2, 33120, Note_on_c, 1, 50, 127
2, 33120, Note_off_c, 1, 51, 0
2, 33120, Note_off_c, 1, 52, 0
2, 33160, Note_off_c, 1, 37, 0
2, 33160, Note_off_c, 1, 38, 0
2, 33160, Note_on_c, 1, 39, 127
2, 33160, Note_on_c, 1, 40, 127
2, 33160, Note_off_c, 1, 49, 0
2, 33160, Note_off_c, 1, 50, 0
2, 33160, Note_on_c, 1, 51, 127
2, 33160, Note_on_c, 1, 52, 127
2, 33320, Note_off_c, 1, 39, 0
2, 33320, Note_off_c, 1, 40, 0
2, 33320, Note_on_c, 1, 47, 127
2, 33320, Note_off_c, 1, 51, 0
2, 33320, Note_off_c, 1, 52, 0
2, 33320, Note_on_c, 1, 56, 127
2, 33320, Note_on_c, 1, 59, 127
2, 33320, Note_on_c, 1, 71, 127
2, 33360, Note_on_c, 1, 43, 127
2, 33360, Note_on_c, 1, 44, 127
2, 33360, Note_off_c, 1, 47, 0
2, 33360, Note_on_c, 1, 55, 127
2, 33360, Note_off_c, 1, 59, 0
2, 33360, Note_off_c, 1, 71, 0
2, 33400, Note_off_c, 1, 43, 0
2, 33400, Note_on_c, 1, 45, 127
2, 33400, Note_off_c, 1, 55, 0
2, 33400, Note_on_c, 1, 57, 127
2, 33440, Note_on_c, 1, 41, 127
2, 33440, Note_on_c, 1, 42, 127
2, 33440, Note_off_c, 1, 44, 0
2, 33440, Note_off_c, 1, 45, 0
2, 33440, Note_on_c, 1, 53, 127
2, 33440, Note_on_c, 1, 54, 127
2, 33440, Note_off_c, 1, 56, 0
2, 33440, Note_off_c, 1, 57, 0
2, 33480, Note_off_c, 1, 41, 0
2, 33480, Note_off_c, 1, 42, 0
2, 33480, Note_on_c, 1, 43, 127
2, 33480, Note_on_c, 1, 44, 127
2, 33480, Note_off_c, 1, 53, 0
2, 33480, Note_off_c, 1, 54, 0
2, 33480, Note_on_c, 1, 55, 127
2, 33480, Note_on_c, 1, 56, 127
2, 33520, Note_on_c, 1, 39, 127
2, 33520, Note_on_c, 1, 40, 127
2, 33520, Note_off_c, 1, 43, 0
2, 33520, Note_off_c, 1, 44, 0
2, 33520, Note_on_c, 1, 51, 127
2, 33520, Note_on_c, 1, 52, 127
2, 33520, Note_off_c, 1, 55, 0
2, 33520, Note_off_c, 1, 56, 0
2, 33560, Note_on_c, 1, 37, 127
2, 33560, Note_off_c, 1, 39, 0
2, 33560, Note_off_c, 1, 40, 0
2, 33560, Note_on_c, 1, 49, 127
2, 33560, Note_off_c, 1, 51, 0
2, 33560, Note_off_c, 1, 52, 0
2, 33560, Note_on_c, 1, 58, 127
2, 33560, Note_on_c, 1, 63, 127
2, 33560, Note_on_c, 1, 67, 127
2, 34120, Note_off_c, 1, 37, 0
2, 34120, Note_off_c, 1, 49, 0
2, 34120, Note_off_c, 1, 58, 0
2, 34120, Note_off_c, 1, 63, 0
2, 34120, Note_off_c, 1, 67, 0
2, 34200, Note_on_c, 1, 35, 127
2, 34200, Note_on_c, 1, 47, 127
2, 34200, Note_on_c, 1, 83, 127
2, 34200, Note_on_c, 1, 88, 127
2, 34200, Note_on_c, 1, 95, 127
2, 34240, Note_on_c, 1, 75, 127
2, 34240, Note_on_c, 1, 79, 127
2, 34240, Note_off_c, 1, 88, 0
2, 34240, Note_off_c, 1, 95, 0
2, 34280, Note_off_c, 1, 35, 0
2, 34280, Note_on_c, 1, 37, 127
2, 34280, Note_off_c, 1, 47, 0
2, 34280, Note_on_c, 1, 73, 127
2, 34280, Note_off_c, 1, 75, 0
2, 34280, Note_off_c, 1, 79, 0
2, 34280, Note_on_c, 1, 82, 127
2, 34280, Note_off_c, 1, 83, 0
2, 34360, Note_on_c, 1, 34, 127
2, 34360, Note_off_c, 1, 37, 0
2, 34360, Note_on_c, 1, 41, 127
2, 34360, Note_on_c, 1, 65, 127
2, 34360, Note_on_c, 1, 69, 127
2, 34360, Note_off_c, 1, 73, 0
2, 34360, Note_on_c, 1, 74, 127
2, 34360, Note_on_c, 1, 77, 127
2, 34360, Note_off_c, 1, 82, 0
2, 34400, Note_off_c, 1, 34, 0
2, 34400, Note_off_c, 1, 41, 0
2, 34400, Note_on_c, 1, 58, 127
2, 34400, Note_on_c, 1, 61, 127
2, 34400, Note_off_c, 1, 65, 0
2, 34400, Note_on_c, 1, 66, 127
2, 34400, Note_off_c, 1, 69, 0
2, 34400, Note_on_c, 1, 70, 127
2, 34400, Note_on_c, 1, 73, 127
2, 34400, Note_off_c, 1, 74, 0
2, 34400, Note_off_c, 1, 77, 0
2, 34400, Note_on_c, 1, 85, 127
2, 34440, Note_on_c, 1, 54, 127
2, 34440, Note_off_c, 1, 61, 0
2, 34440, Note_on_c, 1, 63, 127
2, 34440, Note_off_c, 1, 73, 0
2, 34440, Note_on_c, 1, 75, 127
2, 34440, Note_off_c, 1, 85, 0
2, 34440, Note_on_c, 1, 87, 127
2, 34480, Note_on_c, 1, 47, 127
2, 34480, Note_off_c, 1, 54, 0
2, 34480, Note_off_c, 1, 58, 0
2, 34480, Note_off_c, 1, 63, 0
2, 34480, Note_off_c, 1, 66, 0
2, 34480, Note_off_c, 1, 70, 0
2, 34480, Note_off_c, 1, 75, 0
2, 34480, Note_on_c, 1, 77, 127
2, 34480, Note_off_c, 1, 87, 0
2, 34480, Note_on_c, 1, 91, 127
2, 34520, Note_on_c, 1, 35, 127
2, 34520, Note_off_c, 1, 47, 0
2, 34520, Note_on_c, 1, 54, 127
2, 34520, Note_on_c, 1, 59, 127
2, 34520, Note_on_c, 1, 64, 127
2, 34520, Note_on_c, 1, 68, 127
2, 34520, Note_on_c, 1, 71, 127
2, 34520, Note_off_c, 1, 77, 0
2, 34520, Note_off_c, 1, 91, 0
2, 34560, Note_off_c, 1, 35, 0
2, 34560, Note_off_c, 1, 54, 0
2, 34560, Note_off_c, 1, 59, 0
2, 34560, Note_off_c, 1, 64, 0
2, 34560, Note_off_c, 1, 68, 0
2, 34560, Note_off_c, 1, 71, 0
2, 34600, Note_on_c, 1, 32, 127
2, 34600, Note_on_c, 1, 37, 127
2, 34600, Note_on_c, 1, 44, 127
2, 34600, Note_on_c, 1, 61, 127
2, 34640, Note_off_c, 1, 61, 0
2, 34680, Note_on_c, 1, 61, 127
2, 34720, Note_off_c, 1, 61, 0
2, 34800, Note_on_c, 1, 61, 127
2, 34840, Note_off_c, 1, 61, 0
2, 34880, Note_on_c, 1, 61, 127
2, 34960, Note_off_c, 1, 61, 0
2, 35000, Note_on_c, 1, 68, 127
2, 35040, Note_on_c, 1, 64, 127
2, 35040, Note_off_c, 1, 68, 0
2, 35080, Note_off_c, 1, 64, 0
2, 35080, Note_on_c, 1, 68, 127
2, 35200, Note_on_c, 1, 61, 127
2, 35200, Note_off_c, 1, 68, 0
2, 35240, Note_off_c, 1, 61, 0
2, 35240, Note_on_c, 1, 68, 127
2, 35280, Note_on_c, 1, 64, 127
2, 35280, Note_off_c, 1, 68, 0
2, 35320, Note_on_c, 1, 61, 127
2, 35320, Note_off_c, 1, 64, 0
2, 35360, Note_off_c, 1, 32, 0
2, 35360, Note_off_c, 1, 37, 0
2, 35360, Note_on_c, 1, 51, 127
2, 35360, Note_on_c, 1, 60, 127
2, 35400, Note_on_c, 1, 32, 127
2, 35400, Note_on_c, 1, 37, 127
2, 35400, Note_off_c, 1, 51, 0
2, 35400, Note_off_c, 1, 60, 0
2, 35400, Note_off_c, 1, 61, 0
2, 35400, Note_on_c, 1, 68, 127
2, 35440, Note_on_c, 1, 64, 127
2, 35440, Note_off_c, 1, 68, 0
2, 35560, Note_on_c, 1, 61, 127
2, 35560, Note_off_c, 1, 64, 0
2, 35600, Note_off_c, 1, 61, 0
2, 35600, Note_on_c, 1, 64, 127
2, 35680, Note_on_c, 1, 61, 127
2, 35680, Note_off_c, 1, 64, 0
2, 35760, Note_off_c, 1, 32, 0
2, 35760, Note_on_c, 1, 35, 127
2, 35760, Note_off_c, 1, 37, 0
2, 35760, Note_on_c, 1, 38, 127
2, 35760, Note_on_c, 1, 42, 127
2, 35760, Note_off_c, 1, 44, 0
2, 35760, Note_on_c, 1, 47, 127
2, 35760, Note_off_c, 1, 61, 0
2, 35760, Note_on_c, 1, 83, 127
2, 35760, Note_on_c, 1, 86, 127
2, 35760, Note_on_c, 1, 90, 127
2, 35760, Note_on_c, 1, 95, 127
2, 35800, Note_off_c, 1, 35, 0
2, 35800, Note_off_c, 1, 38, 0
2, 35800, Note_off_c, 1, 42, 0
2, 35800, Note_on_c, 1, 43, 127
2, 35800, Note_off_c, 1, 47, 0
2, 35800, Note_on_c, 1, 50, 127
2, 35800, Note_on_c, 1, 59, 127
2, 35800, Note_on_c, 1, 81, 127
2, 35800, Note_off_c, 1, 83, 0
2, 35800, Note_off_c, 1, 86, 0
2, 35800, Note_on_c, 1, 89, 127
2, 35800, Note_off_c, 1, 90, 0
2, 35800, Note_on_c, 1, 93, 127
2, 35800, Note_off_c, 1, 95, 0
2, 35840, Note_off_c, 1, 43, 0
2, 35840, Note_off_c, 1, 50, 0
2, 35840, Note_on_c, 1, 67, 127
2, 35840, Note_on_c, 1, 77, 127
2, 35840, Note_on_c, 1, 80, 127
2, 35840, Note_off_c, 1, 81, 0
2, 35840, Note_off_c, 1, 89, 0
2, 35840, Note_off_c, 1, 93, 0
2, 35880, Note_off_c, 1, 59, 0
2, 35880, Note_off_c, 1, 67, 0
2, 35880, Note_off_c, 1, 77, 0
2, 35880, Note_off_c, 1, 80, 0
2, 35920, Note_on_c, 1, 72, 127
2, 35960, Note_on_c, 1, 58, 127
2, 35960, Note_on_c, 1, 60, 127
2, 35960, Note_on_c, 1, 63, 127
2, 35960, Note_on_c, 1, 67, 127
2, 36000, Note_on_c, 1, 51, 127
2, 36000, Note_off_c, 1, 60, 0
2, 36000, Note_on_c, 1, 62, 127
2, 36000, Note_off_c, 1, 63, 0
2, 36000, Note_off_c, 1, 72, 0
2, 36000, Note_on_c, 1, 74, 127
2, 36120, Note_on_c, 1, 42, 127
2, 36120, Note_off_c, 1, 51, 0
2, 36120, Note_on_c, 1, 54, 127
2, 36120, Note_off_c, 1, 58, 0
2, 36120, Note_off_c, 1, 62, 0
2, 36120, Note_off_c, 1, 67, 0
2, 36120, Note_on_c, 1, 71, 127
2, 36120, Note_off_c, 1, 74, 0
2, 36120, Note_on_c, 1, 76, 127
2, 36120, Note_on_c, 1, 80, 127
2, 36160, Note_off_c, 1, 42, 0
2, 36160, Note_on_c, 1, 47, 127
2, 36160, Note_off_c, 1, 54, 0
2, 36160, Note_on_c, 1, 58, 127
2, 36160, Note_off_c, 1, 71, 0
2, 36160, Note_off_c, 1, 76, 0
2, 36160, Note_on_c, 1, 78, 127
2, 36160, Note_off_c, 1, 80, 0
2, 36200, Note_on_c, 1, 46, 127
2, 36200, Note_off_c, 1, 47, 0
2, 36200, Note_on_c, 1, 52, 127
2, 36200, Note_off_c, 1, 78, 0
2, 36200, Note_on_c, 1, 79, 127
2, 36200, Note_on_c, 1, 85, 127
2, 36240, Note_off_c, 1, 46, 0
2, 36240, Note_off_c, 1, 52, 0
2, 36240, Note_off_c, 1, 58, 0
2, 36240, Note_off_c, 1, 79, 0
2, 36240, Note_off_c, 1, 85, 0
2, 36280, Note_on_c, 1, 42, 127
2, 36280, Note_on_c, 1, 57, 127
2, 36280, Note_on_c, 1, 72, 127
2, 36280, Note_on_c, 1, 76, 127
2, 36320, Note_off_c, 1, 42, 0
2, 36320, Note_on_c, 1, 46, 127
2, 36320, Note_on_c, 1, 52, 127
2, 36320, Note_off_c, 1, 57, 0
2, 36320, Note_on_c, 1, 58, 127
2, 36320, Note_off_c, 1, 72, 0
2, 36320, Note_off_c, 1, 76, 0
2, 36320, Note_on_c, 1, 85, 127
2, 36360, Note_off_c, 1, 52, 0
2, 36360, Note_on_c, 1, 53, 127
2, 36360, Note_on_c, 1, 56, 127
2, 36360, Note_on_c, 1, 62, 127
2, 36360, Note_on_c, 1, 65, 127
2, 36360, Note_on_c, 1, 70, 127
2, 36360, Note_off_c, 1, 85, 0
2, 36400, Note_off_c, 1, 46, 0
2, 36400, Note_on_c, 1, 47, 127
2, 36400, Note_on_c, 1, 51, 127
2, 36400, Note_off_c, 1, 53, 0
2, 36400, Note_off_c, 1, 58, 0
2, 36400, Note_on_c, 1, 59, 127
2, 36400, Note_off_c, 1, 62, 0
2, 36400, Note_off_c, 1, 65, 0
2, 36400, Note_off_c, 1, 70, 0
2, 36400, Note_on_c, 1, 86, 127
2, 36440, Note_on_c, 1, 43, 127
2, 36440, Note_on_c, 1, 45, 127
2, 36440, Note_off_c, 1, 47, 0
2, 36440, Note_off_c, 1, 51, 0
2, 36440, Note_off_c, 1, 56, 0
2, 36440, Note_on_c, 1, 57, 127
2, 36440, Note_off_c, 1, 59, 0
2, 36440, Note_on_c, 1, 66, 127
2, 36440, Note_on_c, 1, 84, 127
2, 36480, Note_on_c, 1, 40, 127
2, 36480, Note_off_c, 1, 43, 0
2, 36480, Note_off_c, 1, 45, 0
2, 36480, Note_on_c, 1, 49, 127
2, 36480, Note_off_c, 1, 57, 0
2, 36480, Note_on_c, 1, 58, 127
2, 36480, Note_off_c, 1, 66, 0
2, 36480, Note_on_c, 1, 67, 127
2, 36480, Note_off_c, 1, 84, 0
2, 36480, Note_off_c, 1, 86, 0
2, 36520, Note_off_c, 1, 40, 0
2, 36520, Note_on_c, 1, 41, 127
2, 36520, Note_on_c, 1, 47, 127
2, 36520, Note_off_c, 1, 49, 0
2, 36520, Note_on_c, 1, 56, 127
2, 36520, Note_off_c, 1, 58, 0
2, 36520, Note_on_c, 1, 62, 127
2, 36520, Note_off_c, 1, 67, 0
2, 36560, Note_on_c, 1, 32, 127
2, 36560, Note_off_c, 1, 41, 0
2, 36560, Note_off_c, 1, 47, 0
2, 36560, Note_off_c, 1, 56, 0
2, 36560, Note_off_c, 1, 62, 0
2, 36560, Note_on_c, 1, 85, 127
2, 36600, Note_off_c, 1, 32, 0
2, 36600, Note_on_c, 1, 61, 127
2, 36600, Note_on_c, 1, 68, 127
2, 36600, Note_on_c, 1, 77, 127
2, 36600, Note_on_c, 1, 84, 127
2, 36600, Note_off_c, 1, 85, 0
2, 36680, Note_on_c, 1, 54, 127
2, 36680, Note_on_c, 1, 64, 127
2, 36680, Note_on_c, 1, 70, 127
2, 36680, Note_on_c, 1, 76, 127
2, 36680, Note_off_c, 1, 77, 0
2, 36680, Note_on_c, 1, 80, 127
2, 36680, Note_off_c, 1, 84, 0
2, 36720, Note_off_c, 1, 54, 0
2, 36720, Note_off_c, 1, 61, 0
2, 36720, Note_off_c, 1, 64, 0
2, 36720, Note_off_c, 1, 68, 0
2, 36720, Note_off_c, 1, 70, 0
2, 36720, Note_on_c, 1, 75, 127
2, 36720, Note_off_c, 1, 76, 0
2, 36720, Note_off_c, 1, 80, 0
2, 36720, Note_on_c, 1, 82, 127
2, 36720, Note_on_c, 1, 90, 127
2, 36760, Note_on_c, 1, 39, 127
2, 36760, Note_on_c, 1, 55, 127
2, 36760, Note_on_c, 1, 61, 127
2, 36760, Note_on_c, 1, 73, 127
2, 36760, Note_off_c, 1, 75, 0
2, 36760, Note_off_c, 1, 82, 0
2, 36760, Note_off_c, 1, 90, 0
2, 36800, Note_on_c, 1, 34, 127
2, 36800, Note_on_c, 1, 38, 127
2, 36800, Note_off_c, 1, 39, 0
2, 36800, Note_on_c, 1, 43, 127
2, 36800, Note_off_c, 1, 61, 0
2, 36800, Note_on_c, 1, 62, 127
2, 36800, Note_off_c, 1, 73, 0
2, 36840, Note_off_c, 1, 38, 0
2, 36840, Note_off_c, 1, 43, 0
2, 36840, Note_off_c, 1, 55, 0
2, 36840, Note_off_c, 1, 62, 0
2, 36840, Note_on_c, 1, 79, 127
2, 36840, Note_on_c, 1, 80, 127
2, 36840, Note_on_c, 1, 84, 127
2, 36880, Note_off_c, 1, 34, 0
2, 36880, Note_on_c, 1, 63, 127
2, 36880, Note_off_c, 1, 79, 0
2, 36880, Note_off_c, 1, 80, 0
2, 36880, Note_off_c, 1, 84, 0
2, 36880, Note_on_c, 1, 85, 127
2, 36880, Note_on_c, 1, 88, 127
2, 36880, Note_on_c, 1, 91, 127
2, 36920, Note_on_c, 1, 46, 127
2, 36920, Note_on_c, 1, 57, 127
2, 36920, Note_on_c, 1, 72, 127
2, 36920, Note_off_c, 1, 85, 0
2, 36920, Note_off_c, 1, 88, 0
2, 36920, Note_off_c, 1, 91, 0
2, 36960, Note_on_c, 1, 32, 127
2, 36960, Note_on_c, 1, 38, 127
2, 36960, Note_on_c, 1, 44, 127
2, 36960, Note_off_c, 1, 46, 0
2, 36960, Note_off_c, 1, 57, 0
2, 36960, Note_off_c, 1, 63, 0
2, 36960, Note_on_c, 1, 71, 127
2, 36960, Note_off_c, 1, 72, 0
2, 37000, Note_off_c, 1, 32, 0
2, 37000, Note_off_c, 1, 44, 0
2, 37000, Note_on_c, 1, 54, 127
2, 37000, Note_on_c, 1, 60, 127
2, 37000, Note_on_c, 1, 64, 127
2, 37040, Note_off_c, 1, 38, 0
2, 37040, Note_off_c, 1, 54, 0
2, 37040, Note_off_c, 1, 60, 0
2, 37040, Note_off_c, 1, 64, 0
2, 37040, Note_on_c, 1, 70, 127
2, 37040, Note_off_c, 1, 71, 0
2, 37040, Note_on_c, 1, 72, 127
2, 37040, Note_on_c, 1, 78, 127
2, 37040, Note_on_c, 1, 87, 127
2, 37040, Note_on_c, 1, 89, 127
2, 37040, Note_on_c, 1, 93, 127
2, 37080, Note_on_c, 1, 33, 127
2, 37080, Note_on_c, 1, 39, 127
2, 37080, Note_on_c, 1, 45, 127
2, 37080, Note_on_c, 1, 54, 127
2, 37080, Note_off_c, 1, 70, 0
2, 37080, Note_off_c, 1, 72, 0
2, 37080, Note_off_c, 1, 78, 0
2, 37080, Note_off_c, 1, 87, 0
2, 37080, Note_off_c, 1, 89, 0
2, 37080, Note_off_c, 1, 93, 0
2, 37120, Note_off_c, 1, 33, 0
2, 37120, Note_off_c, 1, 39, 0
2, 37120, Note_on_c, 1, 44, 127
2, 37120, Note_off_c, 1, 45, 0
2, 37120, Note_on_c, 1, 51, 127
2, 37120, Note_off_c, 1, 54, 0
2, 37120, Note_on_c, 1, 60, 127
2, 37120, Note_on_c, 1, 75, 127
2, 37120, Note_on_c, 1, 85, 127
2, 37120, Note_on_c, 1, 87, 127
2, 37160, Note_off_c, 1, 44, 0
2, 37160, Note_on_c, 1, 49, 127
2, 37160, Note_off_c, 1, 51, 0
2, 37160, Note_off_c, 1, 60, 0
2, 37160, Note_on_c, 1, 66, 127
2, 37160, Note_on_c, 1, 69, 127
2, 37160, Note_off_c, 1, 75, 0
2, 37160, Note_on_c, 1, 78, 127
2, 37160, Note_off_c, 1, 85, 0
2, 37160, Note_off_c, 1, 87, 0
2, 37200, Note_off_c, 1, 49, 0
2, 37200, Note_off_c, 1, 66, 0
2, 37200, Note_on_c, 1, 76, 127
2, 37200, Note_off_c, 1, 78, 0
2, 37200, Note_on_c, 1, 88, 127
2, 37200, Note_on_c, 1, 91, 127
2, 37240, Note_on_c, 1, 61, 127
2, 37240, Note_on_c, 1, 62, 127
2, 37240, Note_off_c, 1, 69, 0
2, 37240, Note_off_c, 1, 76, 0
2, 37240, Note_on_c, 1, 79, 127
2, 37240, Note_on_c, 1, 83, 127
2, 37240, Note_off_c, 1, 88, 0
2, 37240, Note_off_c, 1, 91, 0
2, 37280, Note_on_c, 1, 38, 127
2, 37280, Note_on_c, 1, 45, 127
2, 37280, Note_off_c, 1, 61, 0
2, 37280, Note_off_c, 1, 62, 0
2, 37280, Note_off_c, 1, 79, 0
2, 37280, Note_off_c, 1, 83, 0
2, 37280, Note_on_c, 1, 90, 127
2, 37320, Note_on_c, 1, 35, 127
2, 37320, Note_off_c, 1, 38, 0
2, 37320, Note_on_c, 1, 42, 127
2, 37320, Note_off_c, 1, 45, 0
2, 37320, Note_on_c, 1, 54, 127
2, 37320, Note_on_c, 1, 59, 127
2, 37320, Note_on_c, 1, 63, 127
2, 37320, Note_off_c, 1, 90, 0
2, 37360, Note_off_c, 1, 35, 0
2, 37360, Note_off_c, 1, 42, 0
2, 37360, Note_off_c, 1, 54, 0
2, 37360, Note_off_c, 1, 59, 0
2, 37360, Note_off_c, 1, 63, 0
2, 37360, Note_on_c, 1, 70, 127
2, 37360, Note_on_c, 1, 72, 127
2, 37360, Note_on_c, 1, 75, 127
2, 37360, Note_on_c, 1, 81, 127
2, 37400, Note_on_c, 1, 58, 127
2, 37400, Note_off_c, 1, 70, 0
2, 37400, Note_off_c, 1, 72, 0
2, 37400, Note_off_c, 1, 75, 0
2, 37400, Note_off_c, 1, 81, 0
2, 37400, Note_on_c, 1, 82, 127
2, 37400, Note_on_c, 1, 92, 127
2, 37400, Note_on_c, 1, 95, 127
2, 37440, Note_on_c, 1, 28, 127
2, 37440, Note_on_c, 1, 37, 127
2, 37440, Note_on_c, 1, 49, 127
2, 37440, Note_on_c, 1, 52, 127
2, 37440, Note_off_c, 1, 82, 0
2, 37440, Note_off_c, 1, 92, 0
2, 37440, Note_off_c, 1, 95, 0
2, 37480, Note_off_c, 1, 28, 0
2, 37480, Note_off_c, 1, 37, 0
2, 37480, Note_off_c, 1, 49, 0
2, 37480, Note_off_c, 1, 52, 0
2, 37480, Note_on_c, 1, 56, 127
2, 37480, Note_off_c, 1, 58, 0
2, 37480, Note_on_c, 1, 62, 127
2, 37480, Note_on_c, 1, 65, 127
2, 37480, Note_on_c, 1, 101, 127
2, 37520, Note_off_c, 1, 56, 0
2, 37520, Note_on_c, 1, 61, 127
2, 37520, Note_off_c, 1, 62, 0
2, 37520, Note_off_c, 1, 65, 0
2, 37520, Note_on_c, 1, 68, 127
2, 37520, Note_on_c, 1, 70, 127
2, 37520, Note_on_c, 1, 77, 127
2, 37520, Note_on_c, 1, 82, 127
2, 37520, Note_off_c, 1, 101, 0
2, 37560, Note_on_c, 1, 53, 127
2, 37560, Note_on_c, 1, 59, 127
2, 37560, Note_off_c, 1, 61, 0
2, 37560, Note_off_c, 1, 68, 0
2, 37560, Note_off_c, 1, 70, 0
2, 37560, Note_off_c, 1, 77, 0
2, 37560, Note_off_c, 1, 82, 0
2, 37560, Note_on_c, 1, 83, 127
2, 37560, Note_on_c, 1, 86, 127
2, 37560, Note_on_c, 1, 88, 127
2, 37600, Note_off_c, 1, 53, 0
2, 37600, Note_off_c, 1, 59, 0
2, 37600, Note_on_c, 1, 60, 127
2, 37600, Note_on_c, 1, 72, 127
2, 37600, Note_off_c, 1, 83, 0
2, 37600, Note_off_c, 1, 86, 0
2, 37600, Note_on_c, 1, 87, 127
2, 37600, Note_off_c, 1, 88, 0
2, 37600, Note_on_c, 1, 90, 127
2, 37640, Note_off_c, 1, 60, 0
2, 37640, Note_off_c, 1, 72, 0
2, 37640, Note_off_c, 1, 90, 0
2, 37640, Note_on_c, 1, 96, 127
2, 37640, Note_on_c, 1, 103, 127
2, 37680, Note_on_c, 1, 48, 127
2, 37680, Note_on_c, 1, 53, 127
2, 37680, Note_on_c, 1, 57, 127
2, 37680, Note_on_c, 1, 60, 127
2, 37680, Note_on_c, 1, 77, 127
2, 37680, Note_on_c, 1, 81, 127
2, 37680, Note_on_c, 1, 84, 127
2, 37680, Note_off_c, 1, 87, 0
2, 37680, Note_on_c, 1, 89, 127
2, 37680, Note_off_c, 1, 96, 0
2, 37680, Note_off_c, 1, 103, 0
2, 37720, Note_on_c, 1, 45, 127
2, 37720, Note_off_c, 1, 48, 0
2, 37720, Note_off_c, 1, 53, 0
2, 37720, Note_on_c, 1, 54, 127
2, 37720, Note_off_c, 1, 57, 0
2, 37720, Note_off_c, 1, 60, 0
2, 37720, Note_off_c, 1, 77, 0
2, 37720, Note_on_c, 1, 78, 127
2, 37720, Note_off_c, 1, 84, 0
2, 37720, Note_on_c, 1, 86, 127
2, 37720, Note_off_c, 1, 89, 0
2, 37760, Note_off_c, 1, 45, 0
2, 37760, Note_on_c, 1, 52, 127
2, 37760, Note_off_c, 1, 54, 0
2, 37760, Note_on_c, 1, 57, 127
2, 37760, Note_on_c, 1, 60, 127
2, 37760, Note_on_c, 1, 64, 127
2, 37760, Note_on_c, 1, 76, 127
2, 37760, Note_off_c, 1, 78, 0
2, 37760, Note_off_c, 1, 81, 0
2, 37760, Note_off_c, 1, 86, 0
2, 37800, Note_on_c, 1, 31, 127
2, 37800, Note_on_c, 1, 43, 127
2, 37800, Note_off_c, 1, 52, 0
2, 37800, Note_off_c, 1, 57, 0
2, 37800, Note_off_c, 1, 60, 0
2, 37800, Note_off_c, 1, 64, 0
2, 37800, Note_on_c, 1, 68, 127
2, 37800, Note_on_c, 1, 71, 127
2, 37800, Note_off_c, 1, 76, 0
2, 37800, Note_on_c, 1, 80, 127
2, 37840, Note_off_c, 1, 31, 0
2, 37840, Note_on_c, 1, 37, 127
2, 37840, Note_off_c, 1, 43, 0
2, 37840, Note_on_c, 1, 44, 127
2, 37840, Note_on_c, 1, 49, 127
2, 37840, Note_on_c, 1, 52, 127
2, 37840, Note_on_c, 1, 61, 127
2, 37840, Note_on_c, 1, 64, 127
2, 37840, Note_off_c, 1, 68, 0
2, 37840, Note_off_c, 1, 71, 0
2, 37840, Note_off_c, 1, 80, 0
2, 38120, Note_off_c, 1, 37, 0
2, 38120, Note_on_c, 1, 40, 127
2, 38120, Note_off_c, 1, 44, 0
2, 38120, Note_off_c, 1, 49, 0
2, 38120, Note_off_c, 1, 52, 0
2, 38120, Note_on_c, 1, 60, 127
2, 38120, Note_off_c, 1, 61, 0
2, 38120, Note_on_c, 1, 63, 127
2, 38120, Note_off_c, 1, 64, 0
2, 38120, Note_on_c, 1, 66, 127
2, 38120, Note_on_c, 1, 69, 127
2, 38160, Note_off_c, 1, 40, 0
2, 38160, Note_off_c, 1, 60, 0
2, 38160, Note_off_c, 1, 63, 0
2, 38160, Note_off_c, 1, 66, 0
2, 38160, Note_off_c, 1, 69, 0
2, 38200, Note_on_c, 1, 42, 127
2, 38200, Note_on_c, 1, 46, 127
2, 38200, Note_on_c, 1, 54, 127
2, 38200, Note_on_c, 1, 64, 127
2, 38400, Note_off_c, 1, 42, 0
2, 38400, Note_off_c, 1, 46, 0
2, 38400, Note_off_c, 1, 54, 0
2, 38400, Note_off_c, 1, 64, 0
2, 38440, Note_on_c, 1, 42, 127
2, 38440, Note_on_c, 1, 46, 127
2, 38440, Note_on_c, 1, 54, 127
2, 38440, Note_on_c, 1, 64, 127
2, 38600, Note_off_c, 1, 46, 0
2, 38600, Note_off_c, 1, 64, 0
2, 38640, Note_off_c, 1, 42, 0
2, 38640, Note_off_c, 1, 54, 0
2, 38640, Note_on_c, 1, 61, 127
2, 38640, Note_on_c, 1, 80, 127
2, 38640, Note_on_c, 1, 83, 127
2, 38640, Note_on_c, 1, 92, 127
2, 39000, Note_off_c, 1, 61, 0
2, 39000, Note_off_c, 1, 80, 0
2, 39000, Note_off_c, 1, 83, 0
2, 39000, Note_off_c, 1, 92, 0
2, 39040, Note_on_c, 1, 40, 127
2, 39040, Note_on_c, 1, 79, 127
2, 39040, Note_on_c, 1, 88, 127
2, 39040, Note_on_c, 1, 91, 127
2, 39400, Note_off_c, 1, 40, 0
2, 39440, Note_on_c, 1, 38, 127
2, 39440, Note_on_c, 1, 74, 127
2, 39440, Note_on_c, 1, 78, 127
2, 39440, Note_off_c, 1, 79, 0
2, 39440, Note_on_c, 1, 81, 127
2, 39440, Note_off_c, 1, 88, 0
2, 39440, Note_off_c, 1, 91, 0
2, 39760, Note_off_c, 1, 81, 0
2, 39800, Note_off_c, 1, 74, 0
2, 39800, Note_off_c, 1, 78, 0
2, 39840, Note_off_c, 1, 38, 0
2, 39840, Note_on_c, 1, 64, 127
2, 39840, Note_on_c, 1, 87, 127
2, 39840, Note_on_c, 1, 88, 127
2, 39840, Note_on_c, 1, 92, 127
2, 40000, Note_on_c, 1, 33, 127
2, 40000, Note_off_c, 1, 87, 0
2, 40000, Note_off_c, 1, 88, 0
2, 40000, Note_off_c, 1, 92, 0
2, 40040, Note_off_c, 1, 64, 0
2, 40040, Note_on_c, 1, 81, 127
2, 40200, Note_off_c, 1, 33, 0
2, 40200, Note_on_c, 1, 38, 127
2, 40200, Note_on_c, 1, 45, 127
2, 40200, Note_on_c, 1, 62, 127
2, 40200, Note_on_c, 1, 66, 127
2, 40200, Note_off_c, 1, 81, 0
2, 40240, Note_off_c, 1, 38, 0
2, 40240, Note_on_c, 1, 52, 127
2, 40240, Note_on_c, 1, 61, 127
2, 40240, Note_off_c, 1, 62, 0
2, 40240, Note_off_c, 1, 66, 0
2, 40240, Note_on_c, 1, 76, 127
2, 40640, Note_off_c, 1, 45, 0
2, 40640, Note_off_c, 1, 52, 0
2, 40640, Note_off_c, 1, 61, 0
2, 40640, Note_off_c, 1, 76, 0
2, 40680, Note_on_c, 1, 45, 127
2, 40680, Note_on_c, 1, 52, 127
2, 40680, Note_on_c, 1, 61, 127
2, 40680, Note_on_c, 1, 76, 127
2, 41040, Note_on_c, 1, 37, 127
2, 41040, Note_off_c, 1, 45, 0
2, 41040, Note_on_c, 1, 49, 127
2, 41040, Note_off_c, 1, 52, 0
2, 41040, Note_off_c, 1, 61, 0
2, 41040, Note_off_c, 1, 76, 0
2, 41040, Note_on_c, 1, 93, 127
2, 41080, Note_off_c, 1, 37, 0
2, 41080, Note_on_c, 1, 45, 127
2, 41080, Note_off_c, 1, 49, 0
2, 41080, Note_on_c, 1, 52, 127
2, 41080, Note_on_c, 1, 64, 127
2, 41080, Note_on_c, 1, 88, 127
2, 41080, Note_off_c, 1, 93, 0
2, 41160, Note_off_c, 1, 64, 0
2, 41200, Note_on_c, 1, 64, 127
2, 41280, Note_off_c, 1, 64, 0
2, 41320, Note_on_c, 1, 68, 127
2, 41440, Note_off_c, 1, 45, 0
2, 41440, Note_off_c, 1, 52, 0
2, 41440, Note_off_c, 1, 68, 0
2, 41440, Note_off_c, 1, 88, 0
2, 41480, Note_on_c, 1, 45, 127
2, 41480, Note_on_c, 1, 52, 127
2, 41480, Note_on_c, 1, 61, 127
2, 41480, Note_on_c, 1, 69, 127
2, 42400, Note_off_c, 1, 52, 0
2, 42400, Note_off_c, 1, 61, 0
2, 43120, Note_off_c, 1, 45, 0
2, 43120, Note_off_c, 1, 69, 0
2, 43160, Note_on_c, 1, 45, 127
2, 43160, Note_on_c, 1, 69, 127
2, 43680, Note_on_c, 1, 57, 127
2, 43680, Note_on_c, 1, 81, 127
2, 44640, Note_off_c, 1, 45, 0
2, 44640, Note_off_c, 1, 57, 0
2, 44640, Note_off_c, 1, 69, 0
2, 44640, Note_off_c, 1, 81, 0
2, 45520, Note_on_c, 1, 36, 127
2, 45520, Note_on_c, 1, 64, 127
2, 45760, Note_off_c, 1, 64, 0
2, 45800, Note_on_c, 1, 64, 127
2, 46040, Note_on_c, 1, 60, 127
2, 46040, Note_off_c, 1, 64, 0
2, 46080, Note_off_c, 1, 36, 0
2, 46080, Note_off_c, 1, 60, 0
2, 46120, Note_on_c, 1, 36, 127
2, 46120, Note_on_c, 1, 60, 127
2, 47040, Note_on_c, 1, 48, 127
2, 47080, Note_off_c, 1, 48, 0
2, 47440, Note_off_c, 1, 36, 0
2, 47440, Note_off_c, 1, 60, 0
2, 47480, Note_on_c, 1, 36, 127
2, 47480, Note_on_c, 1, 60, 127
2, 47680, Note_off_c, 1, 36, 0
2, 47680, Note_on_c, 1, 47, 127
2, 47680, Note_on_c, 1, 57, 127
2, 47680, Note_off_c, 1, 60, 0
2, 47680, Note_on_c, 1, 62, 127
2, 47680, Note_on_c, 1, 68, 127
2, 47680, Note_on_c, 1, 71, 127
2, 47720, Note_off_c, 1, 47, 0
2, 47720, Note_on_c, 1, 49, 127
2, 47720, Note_on_c, 1, 55, 127
2, 47720, Note_off_c, 1, 57, 0
2, 47720, Note_on_c, 1, 59, 127
2, 47720, Note_off_c, 1, 62, 0
2, 47720, Note_on_c, 1, 67, 127
2, 47720, Note_off_c, 1, 68, 0
2, 47720, Note_off_c, 1, 71, 0
2, 47760, Note_on_c, 1, 36, 127
2, 47760, Note_on_c, 1, 43, 127
2, 47760, Note_on_c, 1, 48, 127
2, 47760, Note_off_c, 1, 49, 0
2, 47760, Note_off_c, 1, 55, 0
2, 47760, Note_off_c, 1, 59, 0
2, 47760, Note_off_c, 1, 67, 0
2, 47760, Note_on_c, 1, 88, 127
2, 47760, Note_on_c, 1, 91, 127
2, 47760, Note_on_c, 1, 100, 127
2, 47800, Note_off_c, 1, 36, 0
2, 47800, Note_off_c, 1, 43, 0
2, 47800, Note_off_c, 1, 48, 0
2, 47800, Note_on_c, 1, 55, 127
2, 47800, Note_on_c, 1, 61, 127
2, 47800, Note_on_c, 1, 70, 127
2, 47800, Note_on_c, 1, 79, 127
2, 47800, Note_on_c, 1, 82, 127
2, 47800, Note_off_c, 1, 88, 0
2, 47800, Note_off_c, 1, 91, 0
2, 47800, Note_off_c, 1, 100, 0
2, 47840, Note_on_c, 1, 41, 127
2, 47840, Note_off_c, 1, 55, 0
2, 47840, Note_off_c, 1, 61, 0
2, 47840, Note_off_c, 1, 70, 0
2, 47840, Note_on_c, 1, 75, 127
2, 47840, Note_off_c, 1, 79, 0
2, 47840, Note_on_c, 1, 85, 127
2, 47880, Note_off_c, 1, 41, 0
2, 47880, Note_on_c, 1, 52, 127
2, 47880, Note_on_c, 1, 66, 127
2, 47880, Note_on_c, 1, 73, 127
2, 47880, Note_off_c, 1, 75, 0
2, 47920, Note_on_c, 1, 38, 127
2, 47920, Note_off_c, 1, 52, 0
2, 47920, Note_on_c, 1, 60, 127
2, 47920, Note_on_c, 1, 64, 127
2, 47920, Note_off_c, 1, 73, 0
2, 47920, Note_off_c, 1, 82, 0
2, 47920, Note_off_c, 1, 85, 0
2, 47960, Note_off_c, 1, 38, 0
2, 47960, Note_on_c, 1, 56, 127
2, 47960, Note_off_c, 1, 60, 0
2, 47960, Note_on_c, 1, 62, 127
2, 47960, Note_off_c, 1, 64, 0
2, 47960, Note_off_c, 1, 66, 0
2, 47960, Note_on_c, 1, 68, 127
2, 47960, Note_on_c, 1, 80, 127
2, 47960, Note_on_c, 1, 86, 127
2, 48000, Note_on_c, 1, 48, 127
2, 48000, Note_on_c, 1, 50, 127
2, 48000, Note_on_c, 1, 53, 127
2, 48000, Note_on_c, 1, 55, 127
2, 48000, Note_off_c, 1, 56, 0
2, 48000, Note_off_c, 1, 62, 0
2, 48000, Note_off_c, 1, 68, 0
2, 48000, Note_on_c, 1, 79, 127
2, 48000, Note_off_c, 1, 80, 0
2, 48000, Note_off_c, 1, 86, 0
2, 48040, Note_on_c, 1, 42, 127
2, 48040, Note_on_c, 1, 44, 127
2, 48040, Note_off_c, 1, 48, 0
2, 48040, Note_off_c, 1, 50, 0
2, 48040, Note_on_c, 1, 51, 127
2, 48040, Note_off_c, 1, 53, 0
2, 48040, Note_off_c, 1, 55, 0
2, 48040, Note_on_c, 1, 56, 127
2, 48040, Note_off_c, 1, 79, 0
2, 48080, Note_off_c, 1, 42, 0
2, 48080, Note_off_c, 1, 44, 0
2, 48080, Note_on_c, 1, 48, 127
2, 48080, Note_off_c, 1, 51, 0
2, 48080, Note_on_c, 1, 75, 127
2, 48080, Note_on_c, 1, 83, 127
2, 48120, Note_off_c, 1, 48, 0
2, 48120, Note_off_c, 1, 56, 0
2, 48120, Note_on_c, 1, 63, 127
2, 48120, Note_on_c, 1, 69, 127
2, 48120, Note_on_c, 1, 74, 127
2, 48120, Note_off_c, 1, 75, 0
2, 48120, Note_on_c, 1, 81, 127
2, 48120, Note_off_c, 1, 83, 0
2, 48160, Note_on_c, 1, 36, 127
2, 48160, Note_on_c, 1, 43, 127
2, 48160, Note_off_c, 1, 63, 0
2, 48160, Note_on_c, 1, 65, 127
2, 48160, Note_on_c, 1, 67, 127
2, 48160, Note_off_c, 1, 69, 0
2, 48160, Note_off_c, 1, 74, 0
2, 48160, Note_off_c, 1, 81, 0
2, 48200, Note_off_c, 1, 36, 0
2, 48200, Note_off_c, 1, 43, 0
2, 48200, Note_on_c, 1, 63, 127
2, 48200, Note_off_c, 1, 65, 0
2, 48200, Note_off_c, 1, 67, 0
2, 48200, Note_on_c, 1, 75, 127
2, 48200, Note_on_c, 1, 82, 127
2, 48200, Note_on_c, 1, 90, 127
2, 48240, Note_on_c, 1, 42, 127
2, 48240, Note_off_c, 1, 63, 0
2, 48240, Note_off_c, 1, 75, 0
2, 48240, Note_on_c, 1, 79, 127
2, 48240, Note_on_c, 1, 80, 127
2, 48240, Note_off_c, 1, 82, 0
2, 48240, Note_off_c, 1, 90, 0
2, 48280, Note_off_c, 1, 42, 0
2, 48280, Note_on_c, 1, 43, 127
2, 48280, Note_on_c, 1, 60, 127
2, 48280, Note_on_c, 1, 68, 127
2, 48280, Note_on_c, 1, 77, 127
2, 48280, Note_off_c, 1, 79, 0
2, 48280, Note_off_c, 1, 80, 0
2, 48320, Note_on_c, 1, 42, 127
2, 48320, Note_off_c, 1, 43, 0
2, 48320, Note_on_c, 1, 54, 127
2, 48320, Note_off_c, 1, 60, 0
2, 48320, Note_on_c, 1, 64, 127
2, 48320, Note_on_c, 1, 67, 127
2, 48320, Note_off_c, 1, 68, 0
2, 48320, Note_on_c, 1, 76, 127
2, 48320, Note_off_c, 1, 77, 0
2, 48360, Note_on_c, 1, 38, 127
2, 48360, Note_on_c, 1, 41, 127
2, 48360, Note_off_c, 1, 42, 0
2, 48360, Note_off_c, 1, 54, 0
2, 48360, Note_off_c, 1, 64, 0
2, 48360, Note_off_c, 1, 67, 0
2, 48360, Note_off_c, 1, 76, 0
2, 48400, Note_off_c, 1, 38, 0
2, 48400, Note_off_c, 1, 41, 0
2, 48400, Note_on_c, 1, 47, 127
2, 48400, Note_on_c, 1, 52, 127
2, 48400, Note_on_c, 1, 63, 127
2, 48400, Note_on_c, 1, 69, 127
2, 48440, Note_on_c, 1, 39, 127
2, 48440, Note_off_c, 1, 47, 0
2, 48440, Note_off_c, 1, 52, 0
2, 48440, Note_on_c, 1, 61, 127
2, 48440, Note_off_c, 1, 63, 0
2, 48440, Note_on_c, 1, 65, 127
2, 48440, Note_off_c, 1, 69, 0
2, 48480, Note_on_c, 1, 38, 127
2, 48480, Note_off_c, 1, 39, 0
2, 48480, Note_off_c, 1, 61, 0
2, 48520, Note_off_c, 1, 38, 0
2, 48520, Note_on_c, 1, 44, 127
2, 48520, Note_on_c, 1, 60, 127
2, 48520, Note_off_c, 1, 65, 0
2, 48600, Note_on_c, 1, 56, 127
2, 48600, Note_off_c, 1, 60, 0
2, 48600, Note_on_c, 1, 62, 127
2, 48600, Note_on_c, 1, 68, 127
2, 48640, Note_off_c, 1, 62, 0
2, 48640, Note_off_c, 1, 68, 0
2, 48640, Note_on_c, 1, 72, 127
2, 48680, Note_off_c, 1, 72, 0
2, 48720, Note_on_c, 1, 65, 127
2, 48720, Note_on_c, 1, 71, 127
2, 48760, Note_off_c, 1, 71, 0
2, 48800, Note_off_c, 1, 44, 0
2, 48800, Note_off_c, 1, 56, 0
2, 48800, Note_off_c, 1, 65, 0
2, 48840, Note_on_c, 1, 39, 127
2, 48840, Note_on_c, 1, 48, 127
2, 49040, Note_on_c, 1, 33, 127
2, 49040, Note_off_c, 1, 39, 0
2, 49240, Note_off_c, 1, 33, 0
2, 49240, Note_on_c, 1, 41, 127
2, 49240, Note_on_c, 1, 46, 127
2, 49240, Note_off_c, 1, 48, 0
2, 49240, Note_on_c, 1, 53, 127
2, 49240, Note_on_c, 1, 87, 127
2, 49280, Note_off_c, 1, 41, 0
2, 49280, Note_off_c, 1, 46, 0
2, 49280, Note_on_c, 1, 51, 127
2, 49280, Note_off_c, 1, 53, 0
2, 49280, Note_on_c, 1, 55, 127
2, 49280, Note_on_c, 1, 63, 127
2, 49280, Note_on_c, 1, 70, 127
2, 49280, Note_on_c, 1, 75, 127
2, 49280, Note_on_c, 1, 82, 127
2, 49280, Note_off_c, 1, 87, 0
2, 49320, Note_on_c, 1, 48, 127
2, 49320, Note_off_c, 1, 51, 0
2, 49320, Note_off_c, 1, 55, 0
2, 49320, Note_off_c, 1, 63, 0
2, 49320, Note_off_c, 1, 70, 0
2, 49320, Note_on_c, 1, 72, 127
2, 49320, Note_off_c, 1, 75, 0
2, 49320, Note_on_c, 1, 76, 127
2, 49320, Note_on_c, 1, 84, 127
2, 49360, Note_on_c, 1, 33, 127
2, 49360, Note_on_c, 1, 45, 127
2, 49360, Note_off_c, 1, 48, 0
2, 49360, Note_on_c, 1, 55, 127
2, 49360, Note_on_c, 1, 60, 127
2, 49360, Note_on_c, 1, 66, 127
2, 49360, Note_off_c, 1, 72, 0
2, 49360, Note_off_c, 1, 76, 0
2, 49360, Note_off_c, 1, 82, 0
2, 49360, Note_off_c, 1, 84, 0
2, 49400, Note_off_c, 1, 33, 0
2, 49400, Note_off_c, 1, 45, 0
2, 49400, Note_on_c, 1, 46, 127
2, 49400, Note_on_c, 1, 49, 127
2, 49400, Note_on_c, 1, 52, 127
2, 49400, Note_off_c, 1, 55, 0
2, 49400, Note_off_c, 1, 60, 0
2, 49400, Note_off_c, 1, 66, 0
2, 49440, Note_off_c, 1, 46, 0
2, 49440, Note_off_c, 1, 49, 0
2, 49440, Note_on_c, 1, 51, 127
2, 49440, Note_off_c, 1, 52, 0
2, 49440, Note_on_c, 1, 55, 127
2, 49440, Note_on_c, 1, 67, 127
2, 49680, Note_off_c, 1, 55, 0
2, 49720, Note_off_c, 1, 51, 0
2, 49720, Note_off_c, 1, 67, 0
2, 49760, Note_on_c, 1, 51, 127
2, 49760, Note_on_c, 1, 67, 127
2, 49960, Note_off_c, 1, 51, 0
2, 49960, Note_off_c, 1, 67, 0
2, 50000, Note_on_c, 1, 58, 127
2, 50000, Note_on_c, 1, 62, 127
2, 50000, Note_on_c, 1, 65, 127
2, 50000, Note_on_c, 1, 81, 127
2, 50000, Note_on_c, 1, 93, 127
2, 50560, Note_off_c, 1, 58, 0
2, 50560, Note_off_c, 1, 62, 0
2, 50560, Note_off_c, 1, 65, 0
2, 50560, Note_off_c, 1, 81, 0
2, 50560, Note_off_c, 1, 93, 0
2, 50600, Note_on_c, 1, 55, 127
2, 50600, Note_on_c, 1, 58, 127
2, 50600, Note_on_c, 1, 62, 127
2, 50600, Note_on_c, 1, 67, 127
2, 50600, Note_on_c, 1, 74, 127
2, 51200, Note_off_c, 1, 74, 0
2, 51840, Note_off_c, 1, 55, 0
2, 51840, Note_off_c, 1, 58, 0
2, 51840, Note_off_c, 1, 62, 0
2, 51840, Note_off_c, 1, 67, 0
2, 51880, Note_on_c, 1, 55, 127
2, 51880, Note_on_c, 1, 58, 127
2, 51880, Note_on_c, 1, 62, 127
2, 51880, Note_on_c, 1, 67, 127
2, 51920, Note_off_c, 1, 58, 0
2, 51920, Note_off_c, 1, 62, 0
2, 51920, Note_off_c, 1, 67, 0
2, 51960, Note_off_c, 1, 55, 0
2, 52560, Note_on_c, 1, 43, 127
2, 52560, Note_on_c, 1, 50, 127
2, 52560, Note_on_c, 1, 55, 127
2, 52560, Note_on_c, 1, 59, 127
2, 52560, Note_on_c, 1, 67, 127
2, 54120, Note_off_c, 1, 43, 0
2, 54120, Note_off_c, 1, 50, 0
2, 54120, Note_off_c, 1, 55, 0
2, 54120, Note_off_c, 1, 59, 0
2, 54120, Note_off_c, 1, 67, 0
2, 54240, Note_on_c, 1, 44, 127
2, 54240, Note_on_c, 1, 71, 127
2, 54240, Note_on_c, 1, 75, 127
2, 54240, Note_on_c, 1, 83, 127
2, 54320, Note_off_c, 1, 44, 0
2, 55320, Note_on_c, 1, 60, 127
2, 55320, Note_on_c, 1, 66, 127
2, 55320, Note_on_c, 1, 68, 127
2, 55320, Note_off_c, 1, 71, 0
2, 55320, Note_off_c, 1, 75, 0
2, 55320, Note_off_c, 1, 83, 0
2, 55320, Note_on_c, 1, 92, 127
2, 55320, Note_on_c, 1, 104, 127
2, 55360, Note_on_c, 1, 44, 127
2, 55360, Note_off_c, 1, 60, 0
2, 55360, Note_off_c, 1, 68, 0
2, 55360, Note_on_c, 1, 73, 127
2, 55360, Note_off_c, 1, 92, 0
2, 55360, Note_off_c, 1, 104, 0
2, 55400, Note_off_c, 1, 44, 0
2, 55400, Note_on_c, 1, 47, 127
2, 55400, Note_on_c, 1, 56, 127
2, 55400, Note_off_c, 1, 66, 0
2, 55400, Note_on_c, 1, 68, 127
2, 55400, Note_off_c, 1, 73, 0
2, 55400, Note_on_c, 1, 75, 127
2, 55600, Note_off_c, 1, 47, 0
2, 55600, Note_off_c, 1, 56, 0
2, 55600, Note_off_c, 1, 75, 0
2, 55640, Note_on_c, 1, 75, 127
2, 55960, Note_off_c, 1, 68, 0
2, 56000, Note_on_c, 1, 58, 127
2, 56040, Note_off_c, 1, 75, 0
2, 56080, Note_on_c, 1, 74, 127
2, 56120, Note_off_c, 1, 74, 0
2, 56160, Note_on_c, 1, 77, 127
2, 56200, Note_off_c, 1, 77, 0
2, 56240, Note_on_c, 1, 78, 127
2, 56320, Note_off_c, 1, 58, 0
2, 56320, Note_off_c, 1, 78, 0
2, 56360, Note_on_c, 1, 65, 127
2, 56360, Note_on_c, 1, 76, 127
2, 56680, Note_off_c, 1, 65, 0
2, 56680, Note_off_c, 1, 76, 0
2, 56720, Note_on_c, 1, 65, 127
2, 56720, Note_on_c, 1, 76, 127
2, 56960, Note_off_c, 1, 76, 0
2, 57000, Note_on_c, 1, 76, 127
2, 57080, Note_off_c, 1, 76, 0
2, 57120, Note_on_c, 1, 83, 127
2, 57160, Note_off_c, 1, 83, 0
2, 57200, Note_on_c, 1, 79, 127
2, 57280, Note_off_c, 1, 79, 0
2, 57320, Note_on_c, 1, 79, 127
2, 57440, Note_off_c, 1, 79, 0
2, 57480, Note_on_c, 1, 73, 127
2, 57520, Note_on_c, 1, 71, 127
2, 57520, Note_off_c, 1, 73, 0
2, 57640, Note_off_c, 1, 71, 0
2, 57680, Note_on_c, 1, 71, 127
2, 58800, Note_off_c, 1, 65, 0
2, 58800, Note_off_c, 1, 71, 0
2, 58840, Note_on_c, 1, 57, 127
2, 58840, Note_on_c, 1, 67, 127
2, 58840, Note_on_c, 1, 69, 127
2, 58840, Note_on_c, 1, 76, 127
2, 58840, Note_on_c, 1, 78, 127
2, 58840, Note_on_c, 1, 85, 127
2, 58840, Note_on_c, 1, 86, 127
2, 58880, Note_off_c, 1, 57, 0
2, 58880, Note_on_c, 1, 65, 127
2, 58880, Note_off_c, 1, 67, 0
2, 58880, Note_on_c, 1, 68, 127
2, 58880, Note_off_c, 1, 69, 0
2, 58880, Note_on_c, 1, 71, 127
2, 58880, Note_on_c, 1, 74, 127
2, 58880, Note_off_c, 1, 76, 0
2, 58880, Note_on_c, 1, 77, 127
2, 58880, Note_off_c, 1, 78, 0
2, 58880, Note_on_c, 1, 80, 127
2, 58880, Note_on_c, 1, 83, 127
2, 58880, Note_off_c, 1, 85, 0
2, 58880, Note_on_c, 1, 92, 127
2, 59120, Note_off_c, 1, 65, 0
2, 59120, Note_off_c, 1, 68, 0
2, 59120, Note_off_c, 1, 71, 0
2, 59120, Note_off_c, 1, 74, 0
2, 59120, Note_off_c, 1, 77, 0
2, 59120, Note_on_c, 1, 78, 127
2, 59120, Note_off_c, 1, 80, 0
2, 59120, Note_off_c, 1, 83, 0
2, 59120, Note_off_c, 1, 86, 0
2, 59120, Note_off_c, 1, 92, 0
2, 59160, Note_off_c, 1, 78, 0
2, 59200, Note_on_c, 1, 65, 127
2, 59200, Note_on_c, 1, 68, 127
2, 59200, Note_on_c, 1, 71, 127
2, 59200, Note_on_c, 1, 74, 127
2, 59200, Note_on_c, 1, 77, 127
2, 59200, Note_on_c, 1, 80, 127
2, 59200, Note_on_c, 1, 83, 127
2, 59200, Note_on_c, 1, 86, 127
2, 59200, Note_on_c, 1, 92, 127
2, 59440, Note_off_c, 1, 65, 0
2, 59440, Note_off_c, 1, 68, 0
2, 59440, Note_off_c, 1, 71, 0
2, 59440, Note_off_c, 1, 74, 0
2, 59440, Note_off_c, 1, 77, 0
2, 59440, Note_off_c, 1, 80, 0
2, 59440, Note_off_c, 1, 83, 0
2, 59440, Note_off_c, 1, 86, 0
2, 59440, Note_off_c, 1, 92, 0
2, 59480, Note_on_c, 1, 65, 127
2, 59480, Note_on_c, 1, 68, 127
2, 59480, Note_on_c, 1, 71, 127
2, 59480, Note_on_c, 1, 74, 127
2, 59480, Note_on_c, 1, 77, 127
2, 59480, Note_on_c, 1, 80, 127
2, 59480, Note_on_c, 1, 83, 127
2, 59480, Note_on_c, 1, 86, 127
2, 59720, Note_off_c, 1, 65, 0
2, 59720, Note_off_c, 1, 68, 0
2, 59720, Note_off_c, 1, 71, 0
2, 59720, Note_off_c, 1, 74, 0
2, 59720, Note_off_c, 1, 77, 0
2, 59720, Note_off_c, 1, 80, 0
2, 59720, Note_off_c, 1, 83, 0
2, 59720, Note_off_c, 1, 86, 0
2, 59760, Note_on_c, 1, 62, 127
2, 59760, Note_on_c, 1, 65, 127
2, 59760, Note_on_c, 1, 68, 127
2, 59760, Note_on_c, 1, 71, 127
2, 59760, Note_on_c, 1, 74, 127
2, 59760, Note_on_c, 1, 77, 127
2, 59760, Note_on_c, 1, 80, 127
2, 59760, Note_on_c, 1, 83, 127
2, 60000, Note_off_c, 1, 62, 0
2, 60000, Note_off_c, 1, 65, 0
2, 60000, Note_off_c, 1, 68, 0
2, 60000, Note_off_c, 1, 71, 0
2, 60000, Note_off_c, 1, 74, 0
2, 60000, Note_off_c, 1, 77, 0
2, 60000, Note_off_c, 1, 80, 0
2, 60000, Note_off_c, 1, 83, 0
2, 60040, Note_on_c, 1, 62, 127
2, 60040, Note_on_c, 1, 65, 127
2, 60040, Note_on_c, 1, 68, 127
2, 60040, Note_on_c, 1, 71, 127
2, 60040, Note_on_c, 1, 74, 127
2, 60040, Note_on_c, 1, 77, 127
2, 60040, Note_on_c, 1, 80, 127
2, 60040, Note_on_c, 1, 83, 127
2, 60280, Note_off_c, 1, 74, 0
2, 60280, Note_off_c, 1, 77, 0
2, 60280, Note_off_c, 1, 80, 0
2, 60280, Note_off_c, 1, 83, 0
2, 60320, Note_off_c, 1, 62, 0
2, 60320, Note_off_c, 1, 65, 0
2, 60320, Note_off_c, 1, 68, 0
2, 60320, Note_off_c, 1, 71, 0
2, 60360, Note_on_c, 1, 51, 127
2, 60360, Note_on_c, 1, 62, 127
2, 60360, Note_on_c, 1, 65, 127
2, 60360, Note_on_c, 1, 68, 127
2, 60360, Note_on_c, 1, 71, 127
2, 61200, Note_on_c, 1, 50, 127
2, 61200, Note_off_c, 1, 51, 0
2, 61200, Note_off_c, 1, 62, 0
2, 61200, Note_off_c, 1, 65, 0
2, 61200, Note_off_c, 1, 68, 0
2, 61200, Note_off_c, 1, 71, 0
2, 61240, Note_on_c, 1, 44, 127
2, 61240, Note_off_c, 1, 50, 0
2, 61240, Note_on_c, 1, 63, 127
2, 61240, Note_on_c, 1, 68, 127
2, 61240, Note_on_c, 1, 71, 127
2, 61240, Note_on_c, 1, 75, 127
2, 61520, Note_on_c, 1, 41, 127
2, 61520, Note_off_c, 1, 44, 0
2, 61520, Note_on_c, 1, 53, 127
2, 61520, Note_off_c, 1, 63, 0
2, 61520, Note_on_c, 1, 65, 127
2, 61520, Note_off_c, 1, 71, 0
2, 61520, Note_on_c, 1, 73, 127
2, 61520, Note_off_c, 1, 75, 0
2, 61520, Note_on_c, 1, 77, 127
2, 61560, Note_off_c, 1, 41, 0
2, 61560, Note_off_c, 1, 53, 0
2, 61560, Note_off_c, 1, 65, 0
2, 61560, Note_off_c, 1, 68, 0
2, 61560, Note_off_c, 1, 73, 0
2, 61560, Note_off_c, 1, 77, 0
2, 61600, Note_on_c, 1, 53, 127
2, 61600, Note_on_c, 1, 77, 127
2, 61600, Note_on_c, 1, 84, 127
2, 61600, Note_on_c, 1, 87, 127
2, 61640, Note_off_c, 1, 53, 0
2, 61640, Note_on_c, 1, 57, 127
2, 61640, Note_on_c, 1, 66, 127
2, 61640, Note_on_c, 1, 70, 127
2, 61640, Note_off_c, 1, 77, 0
2, 61640, Note_on_c, 1, 78, 127
2, 61640, Note_off_c, 1, 84, 0
2, 61640, Note_off_c, 1, 87, 0
2, 61680, Note_on_c, 1, 53, 127
2, 61680, Note_off_c, 1, 57, 0
2, 61680, Note_on_c, 1, 75, 127
2, 61680, Note_off_c, 1, 78, 0
2, 61720, Note_on_c, 1, 37, 127
2, 61720, Note_on_c, 1, 49, 127
2, 61720, Note_off_c, 1, 53, 0
2, 61720, Note_off_c, 1, 66, 0
2, 61720, Note_on_c, 1, 68, 127
2, 61720, Note_off_c, 1, 70, 0
2, 61720, Note_on_c, 1, 71, 127
2, 61720, Note_off_c, 1, 75, 0
2, 61720, Note_on_c, 1, 80, 127
2, 61840, Note_off_c, 1, 37, 0
2, 61840, Note_off_c, 1, 49, 0
2, 61840, Note_off_c, 1, 68, 0
2, 61840, Note_off_c, 1, 71, 0
2, 61840, Note_off_c, 1, 80, 0
2, 61880, Note_on_c, 1, 68, 127
2, 61880, Note_on_c, 1, 89, 127
2, 61880, Note_on_c, 1, 97, 127
2, 61920, Note_on_c, 1, 65, 127
2, 61920, Note_off_c, 1, 68, 0
2, 61920, Note_on_c, 1, 73, 127
2, 61920, Note_off_c, 1, 89, 0
2, 61960, Note_off_c, 1, 73, 0
2, 62000, Note_on_c, 1, 73, 127
2, 62040, Note_on_c, 1, 47, 127
2, 62040, Note_on_c, 1, 54, 127
2, 62040, Note_off_c, 1, 65, 0
2, 62040, Note_on_c, 1, 66, 127
2, 62040, Note_off_c, 1, 73, 0
2, 62040, Note_on_c, 1, 90, 127
2, 62040, Note_off_c, 1, 97, 0
2, 62080, Note_off_c, 1, 47, 0
2, 62080, Note_off_c, 1, 54, 0
2, 62080, Note_on_c, 1, 65, 127
2, 62080, Note_off_c, 1, 66, 0
2, 62080, Note_on_c, 1, 73, 127
2, 62080, Note_off_c, 1, 90, 0
2, 62080, Note_on_c, 1, 97, 127
2, 62120, Note_on_c, 1, 56, 127
2, 62120, Note_on_c, 1, 60, 127
2, 62120, Note_off_c, 1, 65, 0
2, 62120, Note_off_c, 1, 73, 0
2, 62120, Note_on_c, 1, 75, 127
2, 62120, Note_on_c, 1, 82, 127
2, 62120, Note_off_c, 1, 97, 0
2, 62160, Note_off_c, 1, 56, 0
2, 62160, Note_off_c, 1, 60, 0
2, 62160, Note_on_c, 1, 68, 127
2, 62160, Note_on_c, 1, 77, 127
2, 62160, Note_on_c, 1, 80, 127
2, 62160, Note_off_c, 1, 82, 0
2, 62200, Note_on_c, 1, 47, 127
2, 62200, Note_on_c, 1, 54, 127
2, 62200, Note_on_c, 1, 58, 127
2, 62200, Note_off_c, 1, 68, 0
2, 62200, Note_off_c, 1, 75, 0
2, 62200, Note_off_c, 1, 77, 0
2, 62200, Note_off_c, 1, 80, 0
2, 62240, Note_off_c, 1, 47, 0
2, 62240, Note_off_c, 1, 54, 0
2, 62240, Note_on_c, 1, 63, 127
2, 62240, Note_on_c, 1, 82, 127
2, 62240, Note_on_c, 1, 89, 127
2, 62240, Note_on_c, 1, 94, 127
2, 62280, Note_on_c, 1, 50, 127
2, 62280, Note_on_c, 1, 57, 127
2, 62280, Note_off_c, 1, 58, 0
2, 62280, Note_on_c, 1, 60, 127
2, 62280, Note_on_c, 1, 62, 127
2, 62280, Note_off_c, 1, 63, 0
2, 62280, Note_off_c, 1, 82, 0
2, 62280, Note_off_c, 1, 89, 0
2, 62280, Note_on_c, 1, 93, 127
2, 62280, Note_off_c, 1, 94, 0
2, 62320, Note_off_c, 1, 50, 0
2, 62320, Note_off_c, 1, 57, 0
2, 62320, Note_on_c, 1, 58, 127
2, 62320, Note_off_c, 1, 60, 0
2, 62320, Note_off_c, 1, 62, 0
2, 62320, Note_on_c, 1, 63, 127
2, 62320, Note_on_c, 1, 82, 127
2, 62320, Note_on_c, 1, 89, 127
2, 62320, Note_off_c, 1, 93, 0
2, 62320, Note_on_c, 1, 94, 127
2, 62560, Note_on_c, 1, 48, 127
2, 62560, Note_off_c, 1, 58, 0
2, 62560, Note_off_c, 1, 63, 0
2, 62560, Note_off_c, 1, 82, 0
2, 62560, Note_off_c, 1, 89, 0
2, 62560, Note_off_c, 1, 94, 0
2, 62600, Note_on_c, 1, 44, 127
2, 62600, Note_off_c, 1, 48, 0
2, 62600, Note_on_c, 1, 56, 127
2, 62600, Note_on_c, 1, 85, 127
2, 62600, Note_on_c, 1, 88, 127
2, 62600, Note_on_c, 1, 97, 127
2, 63000, Note_off_c, 1, 44, 0
2, 63000, Note_off_c, 1, 56, 0
2, 63000, Note_off_c, 1, 85, 0
2, 63000, Note_on_c, 1, 87, 127
2, 63000, Note_off_c, 1, 88, 0
2, 63000, Note_on_c, 1, 90, 127
2, 63000, Note_off_c, 1, 97, 0
2, 63000, Note_on_c, 1, 99, 127
2, 63040, Note_on_c, 1, 44, 127
2, 63040, Note_on_c, 1, 56, 127
2, 63040, Note_on_c, 1, 85, 127
2, 63040, Note_off_c, 1, 87, 0
2, 63040, Note_on_c, 1, 88, 127
2, 63040, Note_off_c, 1, 90, 0
2, 63040, Note_on_c, 1, 97, 127
2, 63040, Note_off_c, 1, 99, 0
2, 63160, Note_off_c, 1, 44, 0
2, 63160, Note_off_c, 1, 56, 0
2, 63160, Note_off_c, 1, 85, 0
2, 63160, Note_off_c, 1, 88, 0
2, 63160, Note_off_c, 1, 97, 0
2, 63200, Note_on_c, 1, 33, 127
2, 63200, Note_on_c, 1, 87, 127
2, 63200, Note_on_c, 1, 90, 127
2, 63240, Note_off_c, 1, 33, 0
2, 63240, Note_on_c, 1, 48, 127
2, 63240, Note_on_c, 1, 80, 127
2, 63240, Note_on_c, 1, 92, 127
2, 63280, Note_off_c, 1, 48, 0
2, 63320, Note_on_c, 1, 48, 127
2, 63360, Note_off_c, 1, 48, 0
2, 63360, Note_on_c, 1, 56, 127
2, 63400, Note_on_c, 1, 48, 127
2, 63400, Note_off_c, 1, 56, 0
2, 63440, Note_off_c, 1, 48, 0
2, 63480, Note_on_c, 1, 69, 127
2, 63480, Note_off_c, 1, 80, 0
2, 63480, Note_on_c, 1, 81, 127
2, 63480, Note_on_c, 1, 85, 127
2, 63480, Note_off_c, 1, 87, 0
2, 63480, Note_off_c, 1, 92, 0
2, 63480, Note_on_c, 1, 93, 127
2, 63680, Note_off_c, 1, 69, 0
2, 63760, Note_off_c, 1, 81, 0
2, 63760, Note_off_c, 1, 85, 0
2, 63760, Note_off_c, 1, 90, 0
2, 63760, Note_off_c, 1, 93, 0
2, 63800, Note_on_c, 1, 66, 127
2, 63800, Note_on_c, 1, 71, 127
2, 63800, Note_on_c, 1, 74, 127
2, 63800, Note_on_c, 1, 76, 127
2, 63880, Note_off_c, 1, 66, 0
2, 63880, Note_off_c, 1, 71, 0
2, 63880, Note_off_c, 1, 74, 0
2, 63880, Note_off_c, 1, 76, 0
2, 63920, Note_on_c, 1, 66, 127
2, 63920, Note_on_c, 1, 71, 127
2, 63920, Note_on_c, 1, 74, 127
2, 63920, Note_on_c, 1, 76, 127
2, 64080, Note_on_c, 1, 26, 127
2, 64080, Note_off_c, 1, 66, 0
2, 64080, Note_off_c, 1, 71, 0
2, 64080, Note_off_c, 1, 74, 0
2, 64080, Note_off_c, 1, 76, 0
2, 64120, Note_off_c, 1, 26, 0
2, 64120, Note_on_c, 1, 67, 127
2, 64120, Note_on_c, 1, 75, 127
2, 64120, Note_on_c, 1, 79, 127
2, 64120, Note_on_c, 1, 84, 127
2, 64360, Note_off_c, 1, 67, 0
2, 64360, Note_off_c, 1, 75, 0
2, 64360, Note_off_c, 1, 79, 0
2, 64360, Note_off_c, 1, 84, 0
2, 64400, Note_on_c, 1, 59, 127
2, 64400, Note_on_c, 1, 70, 127
2, 64400, Note_on_c, 1, 73, 127
2, 64400, Note_on_c, 1, 78, 127
2, 64800, Note_off_c, 1, 78, 0
2, 64840, Note_on_c, 1, 75, 127
2, 64960, Note_off_c, 1, 59, 0
2, 64960, Note_off_c, 1, 70, 0
2, 64960, Note_off_c, 1, 73, 0
2, 64960, Note_off_c, 1, 75, 0
2, 65000, Note_on_c, 1, 59, 127
2, 65000, Note_on_c, 1, 68, 127
2, 65000, Note_on_c, 1, 71, 127
2, 65000, Note_on_c, 1, 76, 127
2, 65560, Note_on_c, 1, 37, 127
2, 65560, Note_on_c, 1, 40, 127
2, 65560, Note_on_c, 1, 44, 127
2, 65560, Note_on_c, 1, 49, 127
2, 65560, Note_on_c, 1, 52, 127
2, 65560, Note_on_c, 1, 56, 127
2, 65560, Note_off_c, 1, 59, 0
2, 65560, Note_on_c, 1, 61, 127
2, 65560, Note_off_c, 1, 68, 0
2, 65560, Note_off_c, 1, 71, 0
2, 65560, Note_off_c, 1, 76, 0
2, 65600, Note_off_c, 1, 37, 0
2, 65600, Note_off_c, 1, 40, 0
2, 65600, Note_off_c, 1, 44, 0
2, 65600, Note_off_c, 1, 49, 0
2, 65600, Note_off_c, 1, 52, 0
2, 65600, Note_off_c, 1, 56, 0
2, 65600, Note_on_c, 1, 59, 127
2, 65600, Note_off_c, 1, 61, 0
2, 65600, Note_on_c, 1, 63, 127
2, 65600, Note_on_c, 1, 66, 127
2, 65600, Note_on_c, 1, 71, 127
2, 65840, Note_off_c, 1, 59, 0
2, 65840, Note_off_c, 1, 63, 0
2, 65840, Note_off_c, 1, 66, 0
2, 65840, Note_on_c, 1, 69, 127
2, 65840, Note_off_c, 1, 71, 0
2, 65840, Note_on_c, 1, 75, 127
2, 65840, Note_on_c, 1, 78, 127
2, 65880, Note_on_c, 1, 58, 127
2, 65880, Note_on_c, 1, 66, 127
2, 65880, Note_off_c, 1, 69, 0
2, 65880, Note_on_c, 1, 73, 127
2, 65880, Note_off_c, 1, 75, 0
2, 65880, Note_on_c, 1, 76, 127
2, 65880, Note_off_c, 1, 78, 0
2, 66160, Note_on_c, 1, 55, 127
2, 66160, Note_off_c, 1, 58, 0
2, 66160, Note_on_c, 1, 59, 127
2, 66160, Note_off_c, 1, 66, 0
2, 66160, Note_on_c, 1, 67, 127
2, 66160, Note_off_c, 1, 73, 0
2, 66200, Note_off_c, 1, 55, 0
2, 66200, Note_off_c, 1, 59, 0
2, 66200, Note_off_c, 1, 67, 0
2, 66200, Note_off_c, 1, 76, 0
2, 66240, Note_on_c, 1, 66, 127
2, 66240, Note_on_c, 1, 83, 127
2, 66240, Note_on_c, 1, 87, 127
2, 66280, Note_on_c, 1, 56, 127
2, 66280, Note_on_c, 1, 59, 127
2, 66280, Note_on_c, 1, 64, 127
2, 66280, Note_off_c, 1, 66, 0
2, 66280, Note_on_c, 1, 68, 127
2, 66280, Note_on_c, 1, 76, 127
2, 66280, Note_off_c, 1, 83, 0
2, 66280, Note_off_c, 1, 87, 0
2, 66640, Note_on_c, 1, 39, 127
2, 66640, Note_on_c, 1, 51, 127
2, 66640, Note_off_c, 1, 56, 0
2, 66640, Note_off_c, 1, 59, 0
2, 66640, Note_on_c, 1, 63, 127
2, 66640, Note_off_c, 1, 64, 0
2, 66640, Note_off_c, 1, 68, 0
2, 66640, Note_off_c, 1, 76, 0
2, 66680, Note_off_c, 1, 63, 0
2, 66840, Note_on_c, 1, 63, 127
2, 66840, Note_on_c, 1, 67, 127
2, 66840, Note_on_c, 1, 70, 127
2, 67960, Note_off_c, 1, 39, 0
2, 67960, Note_off_c, 1, 51, 0
2, 67960, Note_off_c, 1, 63, 0
2, 67960, Note_off_c, 1, 67, 0
2, 67960, Note_off_c, 1, 70, 0
2, 68000, Note_on_c, 1, 45, 127
2, 68000, Note_on_c, 1, 57, 127
2, 68000, Note_on_c, 1, 63, 127
2, 68000, Note_on_c, 1, 72, 127
2, 68240, Note_on_c, 1, 42, 127
2, 68240, Note_off_c, 1, 45, 0
2, 68240, Note_on_c, 1, 54, 127
2, 68240, Note_off_c, 1, 57, 0
2, 68240, Note_off_c, 1, 63, 0
2, 68240, Note_on_c, 1, 69, 127
2, 68240, Note_off_c, 1, 72, 0
2, 68240, Note_on_c, 1, 73, 127
2, 68240, Note_on_c, 1, 76, 127
2, 68280, Note_off_c, 1, 42, 0
2, 68280, Note_on_c, 1, 53, 127
2, 68280, Note_off_c, 1, 54, 0
2, 68280, Note_on_c, 1, 60, 127
2, 68280, Note_on_c, 1, 63, 127
2, 68280, Note_off_c, 1, 76, 0
2, 68320, Note_off_c, 1, 53, 0
2, 68320, Note_off_c, 1, 60, 0
2, 68320, Note_off_c, 1, 63, 0
2, 68320, Note_off_c, 1, 69, 0
2, 68320, Note_off_c, 1, 73, 0
2, 68360, Note_on_c, 1, 55, 127
2, 68360, Note_on_c, 1, 58, 127
2, 68360, Note_on_c, 1, 60, 127
2, 68360, Note_on_c, 1, 72, 127
2, 68400, Note_on_c, 1, 41, 127
2, 68400, Note_off_c, 1, 55, 0
2, 68400, Note_on_c, 1, 57, 127
2, 68400, Note_off_c, 1, 58, 0
2, 68400, Note_off_c, 1, 60, 0
2, 68400, Note_on_c, 1, 69, 127
2, 68440, Note_on_c, 1, 35, 127
2, 68440, Note_off_c, 1, 41, 0
2, 68440, Note_on_c, 1, 47, 127
2, 68440, Note_off_c, 1, 57, 0
2, 68440, Note_on_c, 1, 62, 127
2, 68440, Note_on_c, 1, 67, 127
2, 68440, Note_off_c, 1, 69, 0
2, 68440, Note_on_c, 1, 71, 127
2, 68440, Note_off_c, 1, 72, 0
2, 68440, Note_on_c, 1, 74, 127
2, 68480, Note_off_c, 1, 35, 0
2, 68480, Note_on_c, 1, 39, 127
2, 68480, Note_off_c, 1, 47, 0
2, 68480, Note_on_c, 1, 51, 127
2, 68480, Note_off_c, 1, 62, 0
2, 68480, Note_off_c, 1, 67, 0
2, 68480, Note_on_c, 1, 69, 127
2, 68480, Note_off_c, 1, 71, 0
2, 68480, Note_on_c, 1, 72, 127
2, 68480, Note_off_c, 1, 74, 0
2, 68480, Note_on_c, 1, 79, 127
2, 68600, Note_off_c, 1, 39, 0
2, 68600, Note_off_c, 1, 51, 0
2, 68600, Note_off_c, 1, 69, 0
2, 68600, Note_off_c, 1, 72, 0
2, 68600, Note_off_c, 1, 79, 0
2, 68640, Note_on_c, 1, 44, 127
2, 68640, Note_on_c, 1, 56, 127
2, 68640, Note_on_c, 1, 63, 127
2, 68640, Note_on_c, 1, 68, 127
2, 68640, Note_on_c, 1, 71, 127
2, 68640, Note_on_c, 1, 75, 127
2, 69160, Note_off_c, 1, 44, 0
2, 69160, Note_off_c, 1, 56, 0
2, 69160, Note_off_c, 1, 63, 0
2, 69160, Note_off_c, 1, 68, 0
2, 69160, Note_off_c, 1, 71, 0
2, 69160, Note_off_c, 1, 75, 0
2, 69240, Note_on_c, 1, 59, 127
2, 69240, Note_on_c, 1, 63, 127
2, 69240, Note_on_c, 1, 67, 127
2, 69240, Note_on_c, 1, 71, 127
2, 69240, Note_on_c, 1, 75, 127
2, 69240, Note_on_c, 1, 82, 127
2, 70080, Note_on_c, 1, 54, 127
2, 70080, Note_off_c, 1, 59, 0
2, 70080, Note_off_c, 1, 63, 0
2, 70080, Note_off_c, 1, 67, 0
2, 70080, Note_off_c, 1, 71, 0
2, 70080, Note_off_c, 1, 75, 0
2, 70080, Note_on_c, 1, 76, 127
2, 70080, Note_off_c, 1, 82, 0
2, 70080, Note_on_c, 1, 88, 127
2, 70120, Note_on_c, 1, 47, 127
2, 70120, Note_off_c, 1, 54, 0
2, 70120, Note_on_c, 1, 75, 127
2, 70120, Note_off_c, 1, 76, 0
2, 70120, Note_on_c, 1, 87, 127
2, 70120, Note_off_c, 1, 88, 0
2, 70200, Note_off_c, 1, 47, 0
2, 70200, Note_off_c, 1, 75, 0
2, 70200, Note_off_c, 1, 87, 0
2, 70280, Note_on_c, 1, 50, 127
2, 70280, Note_on_c, 1, 60, 127
2, 70280, Note_on_c, 1, 62, 127
2, 70280, Note_on_c, 1, 66, 127
2, 70280, Note_on_c, 1, 69, 127
2, 71440, Note_off_c, 1, 50, 0
2, 71440, Note_off_c, 1, 60, 0
2, 71440, Note_off_c, 1, 62, 0
2, 71440, Note_off_c, 1, 66, 0
2, 71440, Note_off_c, 1, 69, 0
2, 71480, Note_on_c, 1, 55, 127
2, 71480, Note_on_c, 1, 59, 127
2, 71480, Note_on_c, 1, 62, 127
2, 71480, Note_on_c, 1, 67, 127
2, 71480, Note_on_c, 1, 71, 127
2, 72040, Note_off_c, 1, 55, 0
2, 72040, Note_off_c, 1, 59, 0
2, 72040, Note_off_c, 1, 62, 0
2, 72040, Note_off_c, 1, 67, 0
2, 72040, Note_off_c, 1, 71, 0
2, 72080, Note_on_c, 1, 62, 127
2, 72080, Note_on_c, 1, 67, 127
2, 72080, Note_on_c, 1, 77, 127
2, 72080, Note_on_c, 1, 83, 127
2, 72120, Note_on_c, 1, 39, 127
2, 72120, Note_on_c, 1, 43, 127
2, 72120, Note_on_c, 1, 51, 127
2, 72120, Note_on_c, 1, 56, 127
2, 72120, Note_off_c, 1, 62, 0
2, 72120, Note_off_c, 1, 67, 0
2, 72120, Note_off_c, 1, 77, 0
2, 72120, Note_off_c, 1, 83, 0
2, 72320, Note_off_c, 1, 39, 0
2, 72320, Note_off_c, 1, 43, 0
2, 72320, Note_off_c, 1, 51, 0
2, 72320, Note_off_c, 1, 56, 0
2, 72360, Note_on_c, 1, 39, 127
2, 72360, Note_on_c, 1, 43, 127
2, 72360, Note_on_c, 1, 51, 127
2, 72360, Note_on_c, 1, 56, 127
2, 72680, Note_off_c, 1, 39, 0
2, 72680, Note_off_c, 1, 43, 0
2, 72680, Note_off_c, 1, 51, 0
2, 72680, Note_off_c, 1, 56, 0
2, 72720, Note_on_c, 1, 39, 127
2, 72720, Note_on_c, 1, 43, 127
2, 72720, Note_on_c, 1, 51, 127
2, 72720, Note_on_c, 1, 56, 127
2, 73280, Note_off_c, 1, 39, 0
2, 73280, Note_off_c, 1, 43, 0
2, 73280, Note_off_c, 1, 51, 0
2, 73280, Note_off_c, 1, 56, 0
2, 73320, Note_on_c, 1, 36, 127
2, 73320, Note_on_c, 1, 43, 127
2, 73320, Note_on_c, 1, 48, 127
2, 73320, Note_on_c, 1, 55, 127
2, 74440, Note_off_c, 1, 36, 0
2, 74440, Note_off_c, 1, 43, 0
2, 74440, Note_off_c, 1, 48, 0
2, 74440, Note_off_c, 1, 55, 0
2, 74440, Note_on_c, 1, 61, 127
2, 74440, Note_on_c, 1, 67, 127
2, 74440, Note_on_c, 1, 69, 127
2, 74440, Note_on_c, 1, 73, 127
2, 74440, Note_on_c, 1, 78, 127
2, 74440, Note_on_c, 1, 81, 127
2, 74480, Note_off_c, 1, 61, 0
2, 74480, Note_off_c, 1, 67, 0
2, 74480, Note_off_c, 1, 69, 0
2, 74480, Note_off_c, 1, 73, 0
2, 74480, Note_off_c, 1, 78, 0
2, 74480, Note_off_c, 1, 81, 0
2, 74560, Note_on_c, 1, 45, 127
2, 74560, Note_on_c, 1, 49, 127
2, 74560, Note_on_c, 1, 52, 127
2, 74560, Note_on_c, 1, 57, 127
2, 74560, Note_on_c, 1, 74, 127
2, 74600, Note_on_c, 1, 43, 127
2, 74600, Note_off_c, 1, 45, 0
2, 74600, Note_off_c, 1, 49, 0
2, 74600, Note_on_c, 1, 50, 127
2, 74600, Note_off_c, 1, 52, 0
2, 74600, Note_on_c, 1, 55, 127
2, 74600, Note_off_c, 1, 57, 0
2, 74600, Note_on_c, 1, 59, 127
2, 74600, Note_off_c, 1, 74, 0
2, 74600, Note_on_c, 1, 95, 127
2, 74640, Note_off_c, 1, 43, 0
2, 74640, Note_off_c, 1, 50, 0
2, 74640, Note_off_c, 1, 55, 0
2, 74640, Note_off_c, 1, 59, 0
2, 74640, Note_on_c, 1, 68, 127
2, 74640, Note_on_c, 1, 77, 127
2, 74640, Note_on_c, 1, 80, 127
2, 74640, Note_on_c, 1, 83, 127
2, 74640, Note_on_c, 1, 92, 127
2, 74640, Note_off_c, 1, 95, 0
2, 74680, Note_on_c, 1, 58, 127
2, 74680, Note_on_c, 1, 61, 127
2, 74680, Note_on_c, 1, 64, 127
2, 74680, Note_off_c, 1, 77, 0
2, 74680, Note_off_c, 1, 83, 0
2, 74680, Note_off_c, 1, 92, 0
2, 74720, Note_off_c, 1, 58, 0
2, 74720, Note_off_c, 1, 61, 0
2, 74720, Note_off_c, 1, 64, 0
2, 74720, Note_on_c, 1, 85, 127
2, 74720, Note_on_c, 1, 87, 127
2, 74720, Note_on_c, 1, 92, 127
2, 74760, Note_on_c, 1, 38, 127
2, 74760, Note_on_c, 1, 42, 127
2, 74760, Note_on_c, 1, 45, 127
2, 74760, Note_on_c, 1, 50, 127
2, 74760, Note_off_c, 1, 68, 0
2, 74760, Note_off_c, 1, 80, 0
2, 74760, Note_off_c, 1, 85, 0
2, 74760, Note_on_c, 1, 86, 127
2, 74760, Note_off_c, 1, 87, 0
2, 74760, Note_on_c, 1, 90, 127
2, 74760, Note_off_c, 1, 92, 0
2, 74760, Note_on_c, 1, 93, 127
2, 74760, Note_on_c, 1, 98, 127
2, 74800, Note_off_c, 1, 38, 0
2, 74800, Note_off_c, 1, 42, 0
2, 74800, Note_off_c, 1, 45, 0
2, 74800, Note_off_c, 1, 50, 0
2, 74800, Note_on_c, 1, 64, 127
2, 74800, Note_on_c, 1, 87, 127
2, 74800, Note_on_c, 1, 89, 127
2, 74800, Note_off_c, 1, 93, 0
2, 74800, Note_off_c, 1, 98, 0
2, 74840, Note_on_c, 1, 52, 127
2, 74840, Note_off_c, 1, 64, 0
2, 74840, Note_off_c, 1, 86, 0
2, 74840, Note_off_c, 1, 87, 0
2, 74840, Note_off_c, 1, 89, 0
2, 74840, Note_off_c, 1, 90, 0
2, 74840, Note_on_c, 1, 96, 127
2, 74840, Note_on_c, 1, 100, 127
2, 74880, Note_off_c, 1, 52, 0
2, 74880, Note_on_c, 1, 57, 127
2, 74880, Note_on_c, 1, 69, 127
2, 74880, Note_on_c, 1, 90, 127
2, 74880, Note_on_c, 1, 93, 127
2, 74880, Note_off_c, 1, 96, 0
2, 74880, Note_off_c, 1, 100, 0
2, 74920, Note_off_c, 1, 57, 0
2, 74920, Note_on_c, 1, 61, 127
2, 74920, Note_on_c, 1, 67, 127
2, 74920, Note_off_c, 1, 69, 0
2, 74920, Note_on_c, 1, 81, 127
2, 74920, Note_on_c, 1, 88, 127
2, 74920, Note_off_c, 1, 90, 0
2, 74920, Note_off_c, 1, 93, 0
2, 74960, Note_on_c, 1, 48, 127
2, 74960, Note_off_c, 1, 61, 0
2, 74960, Note_off_c, 1, 67, 0
2, 74960, Note_off_c, 1, 81, 0
2, 74960, Note_off_c, 1, 88, 0
2, 74960, Note_on_c, 1, 103, 127
2, 75000, Note_on_c, 1, 28, 127
2, 75000, Note_on_c, 1, 40, 127
2, 75000, Note_off_c, 1, 48, 0
2, 75000, Note_on_c, 1, 82, 127
2, 75000, Note_on_c, 1, 85, 127
2, 75000, Note_on_c, 1, 90, 127
2, 75000, Note_on_c, 1, 94, 127
2, 75000, Note_off_c, 1, 103, 0
2, 75040, Note_off_c, 1, 28, 0
2, 75040, Note_off_c, 1, 40, 0
2, 75040, Note_on_c, 1, 46, 127
2, 75040, Note_off_c, 1, 82, 0
2, 75040, Note_off_c, 1, 85, 0
2, 75040, Note_off_c, 1, 90, 0
2, 75040, Note_on_c, 1, 95, 127
2, 75080, Note_on_c, 1, 40, 127
2, 75080, Note_on_c, 1, 45, 127
2, 75080, Note_off_c, 1, 46, 0
2, 75080, Note_on_c, 1, 52, 127
2, 75080, Note_on_c, 1, 83, 127
2, 75080, Note_off_c, 1, 94, 0
2, 75080, Note_off_c, 1, 95, 0
2, 75120, Note_off_c, 1, 40, 0
2, 75120, Note_off_c, 1, 45, 0
2, 75120, Note_off_c, 1, 52, 0
2, 75120, Note_on_c, 1, 73, 127
2, 75120, Note_on_c, 1, 75, 127
2, 75120, Note_on_c, 1, 81, 127
2, 75120, Note_off_c, 1, 83, 0
2, 75120, Note_on_c, 1, 85, 127
2, 75160, Note_on_c, 1, 64, 127
2, 75160, Note_off_c, 1, 73, 0
2, 75160, Note_off_c, 1, 75, 0
2, 75160, Note_on_c, 1, 84, 127
2, 75160, Note_off_c, 1, 85, 0
2, 75160, Note_on_c, 1, 88, 127
2, 75160, Note_on_c, 1, 93, 127
2, 75400, Note_on_c, 1, 50, 127
2, 75400, Note_on_c, 1, 62, 127
2, 75400, Note_off_c, 1, 64, 0
2, 75400, Note_on_c, 1, 65, 127
2, 75400, Note_on_c, 1, 68, 127
2, 75400, Note_on_c, 1, 71, 127
2, 75400, Note_off_c, 1, 81, 0
2, 75400, Note_off_c, 1, 84, 0
2, 75400, Note_off_c, 1, 88, 0
2, 75400, Note_off_c, 1, 93, 0
2, 75440, Note_off_c, 1, 50, 0
2, 75440, Note_off_c, 1, 62, 0
2, 75440, Note_on_c, 1, 63, 127
2, 75440, Note_off_c, 1, 65, 0
2, 75440, Note_on_c, 1, 66, 127
2, 75440, Note_off_c, 1, 68, 0
2, 75440, Note_on_c, 1, 75, 127
2, 75440, Note_on_c, 1, 87, 127
2, 75480, Note_on_c, 1, 38, 127
2, 75480, Note_on_c, 1, 50, 127
2, 75480, Note_off_c, 1, 63, 0
2, 75480, Note_off_c, 1, 66, 0
2, 75480, Note_off_c, 1, 71, 0
2, 75480, Note_off_c, 1, 75, 0
2, 75480, Note_off_c, 1, 87, 0
2, 75480, Note_on_c, 1, 90, 127
2, 75480, Note_on_c, 1, 94, 127
2, 75480, Note_on_c, 1, 102, 127
2, 75520, Note_off_c, 1, 38, 0
2, 75520, Note_on_c, 1, 39, 127
2, 75520, Note_off_c, 1, 50, 0
2, 75520, Note_on_c, 1, 51, 127
2, 75520, Note_on_c, 1, 89, 127
2, 75520, Note_off_c, 1, 90, 0
2, 75520, Note_on_c, 1, 93, 127
2, 75520, Note_off_c, 1, 94, 0
2, 75520, Note_on_c, 1, 101, 127
2, 75520, Note_off_c, 1, 102, 0
2, 75560, Note_off_c, 1, 39, 0
2, 75560, Note_on_c, 1, 40, 127
2, 75560, Note_off_c, 1, 51, 0
2, 75560, Note_on_c, 1, 52, 127
2, 75560, Note_on_c, 1, 88, 127
2, 75560, Note_off_c, 1, 89, 0
2, 75560, Note_on_c, 1, 92, 127
2, 75560, Note_off_c, 1, 93, 0
2, 75560, Note_on_c, 1, 100, 127
2, 75560, Note_off_c, 1, 101, 0
2, 75680, Note_off_c, 1, 40, 0
2, 75680, Note_off_c, 1, 52, 0
2, 75680, Note_off_c, 1, 88, 0
2, 75680, Note_off_c, 1, 92, 0
2, 75680, Note_off_c, 1, 100, 0
2, 75720, Note_on_c, 1, 30, 127
2, 75720, Note_on_c, 1, 42, 127
2, 75720, Note_on_c, 1, 78, 127
2, 75720, Note_on_c, 1, 82, 127
2, 75720, Note_on_c, 1, 90, 127
2, 76120, Note_off_c, 1, 30, 0
2, 76120, Note_off_c, 1, 42, 0
2, 76120, Note_off_c, 1, 78, 0
2, 76120, Note_off_c, 1, 82, 0
2, 76120, Note_off_c, 1, 90, 0
2, 76160, Note_on_c, 1, 42, 127
2, 76160, Note_on_c, 1, 49, 127
2, 76160, Note_on_c, 1, 54, 127
2, 76160, Note_on_c, 1, 78, 127
2, 76160, Note_on_c, 1, 82, 127
2, 76160, Note_on_c, 1, 85, 127
2, 76160, Note_on_c, 1, 90, 127
2, 76200, Note_off_c, 1, 49, 0
2, 76280, Note_on_c, 1, 49, 127
2, 76400, Note_off_c, 1, 49, 0
2, 76440, Note_on_c, 1, 49, 127
2, 76480, Note_off_c, 1, 49, 0
2, 76560, Note_off_c, 1, 42, 0
2, 76560, Note_off_c, 1, 54, 0
2, 76560, Note_off_c, 1, 78, 0
2, 76560, Note_off_c, 1, 82, 0
2, 76560, Note_off_c, 1, 85, 0
2, 76560, Note_off_c, 1, 90, 0
2, 76600, Note_on_c, 1, 42, 127
2, 76600, Note_on_c, 1, 54, 127
2, 76600, Note_on_c, 1, 78, 127
2, 76600, Note_on_c, 1, 82, 127
2, 76600, Note_on_c, 1, 85, 127
2, 76600, Note_on_c, 1, 90, 127
2, 76640, Note_off_c, 1, 42, 0
2, 76640, Note_on_c, 1, 44, 127
2, 76640, Note_on_c, 1, 49, 127
2, 76640, Note_off_c, 1, 54, 0
2, 76640, Note_on_c, 1, 59, 127
2, 76640, Note_on_c, 1, 71, 127
2, 76640, Note_off_c, 1, 78, 0
2, 76640, Note_off_c, 1, 82, 0
2, 76640, Note_off_c, 1, 85, 0
2, 76640, Note_off_c, 1, 90, 0
2, 76680, Note_off_c, 1, 44, 0
2, 76680, Note_off_c, 1, 49, 0
2, 76680, Note_on_c, 1, 54, 127
2, 76680, Note_on_c, 1, 56, 127
2, 76680, Note_off_c, 1, 59, 0
2, 76680, Note_on_c, 1, 63, 127
2, 76680, Note_on_c, 1, 68, 127
2, 76680, Note_off_c, 1, 71, 0
2, 76680, Note_on_c, 1, 72, 127
2, 76720, Note_on_c, 1, 42, 127
2, 76720, Note_on_c, 1, 48, 127
2, 76720, Note_off_c, 1, 54, 0
2, 76720, Note_off_c, 1, 56, 0
2, 76720, Note_on_c, 1, 58, 127
2, 76720, Note_off_c, 1, 68, 0
2, 76720, Note_off_c, 1, 72, 0
2, 76760, Note_off_c, 1, 42, 0
2, 76760, Note_off_c, 1, 48, 0
2, 76760, Note_off_c, 1, 58, 0
2, 76760, Note_off_c, 1, 63, 0
2, 76800, Note_on_c, 1, 33, 127
2, 76800, Note_on_c, 1, 45, 127
2, 76800, Note_on_c, 1, 53, 127
2, 76800, Note_on_c, 1, 60, 127
2, 76800, Note_on_c, 1, 63, 127
2, 76800, Note_on_c, 1, 65, 127
2, 77040, Note_off_c, 1, 33, 0
2, 77040, Note_on_c, 1, 38, 127
2, 77040, Note_off_c, 1, 45, 0
2, 77040, Note_on_c, 1, 50, 127
2, 77040, Note_off_c, 1, 53, 0
2, 77040, Note_off_c, 1, 60, 0
2, 77040, Note_off_c, 1, 63, 0
2, 77040, Note_off_c, 1, 65, 0
2, 77040, Note_on_c, 1, 73, 127
2, 77040, Note_on_c, 1, 79, 127
2, 77040, Note_on_c, 1, 81, 127
2, 77080, Note_off_c, 1, 38, 0
2, 77080, Note_off_c, 1, 50, 0
2, 77080, Note_on_c, 1, 58, 127
2, 77080, Note_on_c, 1, 68, 127
2, 77080, Note_off_c, 1, 73, 0
2, 77080, Note_on_c, 1, 74, 127
2, 77080, Note_off_c, 1, 79, 0
2, 77080, Note_on_c, 1, 80, 127
2, 77080, Note_off_c, 1, 81, 0
2, 77080, Note_on_c, 1, 91, 127
2, 77120, Note_off_c, 1, 58, 0
2, 77120, Note_on_c, 1, 66, 127
2, 77120, Note_on_c, 1, 67, 127
2, 77120, Note_off_c, 1, 68, 0
2, 77120, Note_off_c, 1, 74, 0
2, 77120, Note_off_c, 1, 80, 0
2, 77120, Note_on_c, 1, 85, 127
2, 77120, Note_on_c, 1, 90, 127
2, 77120, Note_off_c, 1, 91, 0
2, 77160, Note_on_c, 1, 59, 127
2, 77160, Note_off_c, 1, 66, 0
2, 77160, Note_off_c, 1, 67, 0
2, 77160, Note_on_c, 1, 80, 127
2, 77160, Note_off_c, 1, 85, 0
2, 77160, Note_on_c, 1, 87, 127
2, 77160, Note_off_c, 1, 90, 0
2, 77160, Note_on_c, 1, 92, 127
2, 77200, Note_on_c, 1, 33, 127
2, 77200, Note_on_c, 1, 45, 127
2, 77200, Note_off_c, 1, 59, 0
2, 77200, Note_on_c, 1, 60, 127
2, 77200, Note_on_c, 1, 63, 127
2, 77200, Note_on_c, 1, 65, 127
2, 77200, Note_off_c, 1, 80, 0
2, 77200, Note_off_c, 1, 87, 0
2, 77200, Note_off_c, 1, 92, 0
2, 77360, Note_off_c, 1, 33, 0
2, 77360, Note_off_c, 1, 45, 0
2, 77360, Note_off_c, 1, 60, 0
2, 77360, Note_off_c, 1, 63, 0
2, 77360, Note_off_c, 1, 65, 0
2, 77400, Note_on_c, 1, 42, 127
2, 77400, Note_on_c, 1, 54, 127
2, 77400, Note_on_c, 1, 72, 127
2, 77400, Note_on_c, 1, 75, 127
2, 78600, Note_off_c, 1, 42, 0
2, 78600, Note_on_c, 1, 49, 127
2, 78600, Note_on_c, 1, 53, 127
2, 78600, Note_off_c, 1, 54, 0
2, 78600, Note_on_c, 1, 59, 127
2, 78600, Note_on_c, 1, 68, 127
2, 78600, Note_off_c, 1, 72, 0
2, 78600, Note_on_c, 1, 73, 127
2, 78600, Note_off_c, 1, 75, 0
2, 78640, Note_off_c, 1, 49, 0
2, 78640, Note_off_c, 1, 53, 0
2, 78640, Note_off_c, 1, 59, 0
2, 78640, Note_off_c, 1, 68, 0
2, 78640, Note_off_c, 1, 73, 0
2, 78680, Note_on_c, 1, 54, 127
2, 78680, Note_on_c, 1, 75, 127
2, 78680, Note_on_c, 1, 76, 127
2, 78720, Note_off_c, 1, 76, 0
2, 78760, Note_on_c, 1, 71, 127
2, 78760, Note_off_c, 1, 75, 0
2, 78760, Note_on_c, 1, 77, 127
2, 78960, Note_off_c, 1, 71, 0
2, 78960, Note_off_c, 1, 77, 0
2, 79000, Note_on_c, 1, 66, 127
2, 79000, Note_on_c, 1, 70, 127
2, 79000, Note_on_c, 1, 73, 127
2, 79560, Note_off_c, 1, 54, 0
2, 79560, Note_on_c, 1, 65, 127
2, 79560, Note_off_c, 1, 66, 0
2, 79560, Note_off_c, 1, 70, 0
2, 79560, Note_off_c, 1, 73, 0
2, 79600, Note_on_c, 1, 52, 127
2, 79600, Note_on_c, 1, 55, 127
2, 79600, Note_on_c, 1, 60, 127
2, 79600, Note_on_c, 1, 64, 127
2, 79600, Note_off_c, 1, 65, 0
2, 79600, Note_on_c, 1, 72, 127
2, 79600, Note_on_c, 1, 76, 127
2, 79600, Note_on_c, 1, 79, 127
2, 79600, Note_on_c, 1, 84, 127
2, 80160, Note_off_c, 1, 52, 0
2, 80160, Note_off_c, 1, 55, 0
2, 80160, Note_off_c, 1, 60, 0
2, 80160, Note_off_c, 1, 64, 0
2, 80160, Note_off_c, 1, 72, 0
2, 80160, Note_on_c, 1, 74, 127
2, 80160, Note_off_c, 1, 76, 0
2, 80160, Note_off_c, 1, 79, 0
2, 80160, Note_off_c, 1, 84, 0
2, 80200, Note_on_c, 1, 38, 127
2, 80200, Note_on_c, 1, 50, 127
2, 80200, Note_on_c, 1, 69, 127
2, 80200, Note_off_c, 1, 74, 0
2, 80200, Note_on_c, 1, 75, 127
2, 80200, Note_on_c, 1, 79, 127
2, 80760, Note_off_c, 1, 38, 0
2, 80760, Note_off_c, 1, 50, 0
2, 80760, Note_off_c, 1, 69, 0
2, 80760, Note_off_c, 1, 75, 0
2, 80760, Note_off_c, 1, 79, 0
2, 80800, Note_on_c, 1, 58, 127
2, 80800, Note_on_c, 1, 67, 127
2, 80800, Note_on_c, 1, 70, 127
2, 80800, Note_on_c, 1, 82, 127
2, 80800, Note_on_c, 1, 91, 127
2, 80800, Note_on_c, 1, 94, 127
2, 80880, Note_off_c, 1, 58, 0
2, 80880, Note_off_c, 1, 67, 0
2, 80880, Note_off_c, 1, 70, 0
2, 80880, Note_off_c, 1, 82, 0
2, 80880, Note_off_c, 1, 91, 0
2, 80880, Note_off_c, 1, 94, 0
2, 80920, Note_on_c, 1, 58, 127
2, 80920, Note_on_c, 1, 67, 127
2, 80920, Note_on_c, 1, 70, 127
2, 80920, Note_on_c, 1, 82, 127
2, 80920, Note_on_c, 1, 91, 127
2, 80920, Note_on_c, 1, 94, 127
2, 81400, Note_off_c, 1, 58, 0
2, 81400, Note_off_c, 1, 67, 0
2, 81400, Note_off_c, 1, 70, 0
2, 81400, Note_off_c, 1, 82, 0
2, 81400, Note_off_c, 1, 91, 0
2, 81400, Note_off_c, 1, 94, 0
2, 81440, Note_on_c, 1, 49, 127
2, 81440, Note_on_c, 1, 54, 127
2, 81440, Note_on_c, 1, 59, 127
2, 81440, Note_on_c, 1, 61, 127
2, 81440, Note_on_c, 1, 68, 127
2, 82000, Note_off_c, 1, 54, 0
2, 82040, Note_on_c, 1, 53, 127
2, 82600, Note_off_c, 1, 49, 0
2, 82600, Note_off_c, 1, 53, 0
2, 82600, Note_off_c, 1, 59, 0
2, 82600, Note_off_c, 1, 61, 0
2, 82600, Note_off_c, 1, 68, 0
2, 82640, Note_on_c, 1, 53, 127
2, 82640, Note_on_c, 1, 65, 127
2, 83040, Note_off_c, 1, 53, 0
2, 83040, Note_off_c, 1, 65, 0
2, 83080, Note_on_c, 1, 53, 127
2, 83080, Note_on_c, 1, 65, 127
2, 83240, Note_off_c, 1, 53, 0
2, 83280, Note_on_c, 1, 53, 127
2, 84400, Note_off_c, 1, 53, 0
2, 84400, Note_off_c, 1, 65, 0
2, 84440, Note_on_c, 1, 50, 127
2, 84440, Note_on_c, 1, 59, 127
2, 84440, Note_on_c, 1, 65, 127
2, 84440, Note_on_c, 1, 67, 127
2, 84440, Note_on_c, 1, 74, 127
2, 84480, Note_on_c, 1, 46, 127
2, 84480, Note_off_c, 1, 50, 0
2, 84480, Note_on_c, 1, 55, 127
2, 84480, Note_on_c, 1, 58, 127
2, 84480, Note_off_c, 1, 59, 0
2, 84480, Note_on_c, 1, 63, 127
2, 84480, Note_off_c, 1, 65, 0
2, 84480, Note_off_c, 1, 67, 0
2, 84480, Note_on_c, 1, 70, 127
2, 84480, Note_off_c, 1, 74, 0
2, 85000, Note_off_c, 1, 46, 0
2, 85000, Note_off_c, 1, 55, 0
2, 85000, Note_off_c, 1, 63, 0
2, 85000, Note_off_c, 1, 70, 0
2, 85040, Note_on_c, 1, 39, 127
2, 85040, Note_on_c, 1, 49, 127
2, 85040, Note_on_c, 1, 54, 127
2, 85040, Note_on_c, 1, 61, 127
2, 85080, Note_on_c, 1, 35, 127
2, 85080, Note_on_c, 1, 47, 127
2, 85080, Note_off_c, 1, 49, 0
2, 85080, Note_off_c, 1, 54, 0
2, 85080, Note_off_c, 1, 58, 0
2, 85080, Note_off_c, 1, 61, 0
2, 85080, Note_on_c, 1, 80, 127
2, 85080, Note_on_c, 1, 92, 127
2, 85120, Note_off_c, 1, 35, 0
2, 85120, Note_off_c, 1, 39, 0
2, 85120, Note_off_c, 1, 47, 0
2, 85120, Note_off_c, 1, 80, 0
2, 85120, Note_off_c, 1, 92, 0
2, 85160, Note_on_c, 1, 35, 127
2, 85160, Note_on_c, 1, 39, 127
2, 85160, Note_on_c, 1, 47, 127
2, 85160, Note_on_c, 1, 80, 127
2, 85160, Note_on_c, 1, 92, 127
2, 85640, Note_off_c, 1, 35, 0
2, 85640, Note_off_c, 1, 39, 0
2, 85640, Note_off_c, 1, 47, 0
2, 85640, Note_off_c, 1, 80, 0
2, 85640, Note_off_c, 1, 92, 0
2, 85680, Note_on_c, 1, 34, 127
2, 85680, Note_on_c, 1, 65, 127
2, 85680, Note_on_c, 1, 68, 127
2, 85960, Note_off_c, 1, 34, 0
2, 85960, Note_on_c, 1, 46, 127
2, 85960, Note_on_c, 1, 56, 127
2, 85960, Note_off_c, 1, 65, 0
2, 85960, Note_off_c, 1, 68, 0
2, 85960, Note_on_c, 1, 70, 127
2, 86000, Note_on_c, 1, 34, 127
2, 86000, Note_off_c, 1, 46, 0
2, 86000, Note_off_c, 1, 56, 0
2, 86000, Note_on_c, 1, 65, 127
2, 86000, Note_on_c, 1, 68, 127
2, 86000, Note_off_c, 1, 70, 0
2, 86240, Note_off_c, 1, 34, 0
2, 86240, Note_on_c, 1, 39, 127
2, 86240, Note_off_c, 1, 65, 0
2, 86240, Note_off_c, 1, 68, 0
2, 86280, Note_on_c, 1, 58, 127
2, 86280, Note_on_c, 1, 63, 127
2, 86280, Note_on_c, 1, 67, 127
2, 86840, Note_off_c, 1, 58, 0
2, 86840, Note_off_c, 1, 63, 0
2, 86840, Note_off_c, 1, 67, 0
2, 86880, Note_on_c, 1, 38, 127
2, 86880, Note_off_c, 1, 39, 0
2, 86880, Note_on_c, 1, 52, 127
2, 86880, Note_on_c, 1, 57, 127
2, 86880, Note_on_c, 1, 76, 127
2, 87440, Note_off_c, 1, 38, 0
2, 87440, Note_off_c, 1, 52, 0
2, 87440, Note_off_c, 1, 57, 0
2, 87440, Note_off_c, 1, 76, 0
2, 87480, Note_on_c, 1, 38, 127
2, 87520, Note_on_c, 1, 35, 127
2, 87520, Note_off_c, 1, 38, 0
2, 87520, Note_on_c, 1, 47, 127
2, 87520, Note_on_c, 1, 62, 127
2, 87520, Note_on_c, 1, 82, 127
2, 87520, Note_on_c, 1, 94, 127
2, 88040, Note_off_c, 1, 62, 0
2, 88040, Note_off_c, 1, 82, 0
2, 88040, Note_off_c, 1, 94, 0
2, 88080, Note_off_c, 1, 35, 0
2, 88080, Note_on_c, 1, 46, 127
2, 88080, Note_off_c, 1, 47, 0
2, 88080, Note_on_c, 1, 58, 127
2, 88080, Note_on_c, 1, 74, 127
2, 88080, Note_on_c, 1, 82, 127
2, 88080, Note_on_c, 1, 86, 127
2, 88600, Note_off_c, 1, 46, 0
2, 88600, Note_off_c, 1, 58, 0
2, 88600, Note_off_c, 1, 74, 0
2, 88600, Note_off_c, 1, 82, 0
2, 88600, Note_off_c, 1, 86, 0
2, 88640, Note_on_c, 1, 40, 127
2, 88640, Note_on_c, 1, 52, 127
2, 88640, Note_on_c, 1, 56, 127
2, 88640, Note_on_c, 1, 59, 127
2, 88640, Note_on_c, 1, 62, 127
2, 88640, Note_on_c, 1, 68, 127
2, 88680, Note_on_c, 1, 34, 127
2, 88680, Note_on_c, 1, 38, 127
2, 88680, Note_off_c, 1, 40, 0
2, 88680, Note_on_c, 1, 50, 127
2, 88680, Note_off_c, 1, 52, 0
2, 88680, Note_off_c, 1, 56, 0
2, 88680, Note_off_c, 1, 59, 0
2, 88680, Note_off_c, 1, 62, 0
2, 88680, Note_off_c, 1, 68, 0
2, 88720, Note_off_c, 1, 34, 0
2, 88720, Note_on_c, 1, 37, 127
2, 88720, Note_off_c, 1, 38, 0
2, 88720, Note_on_c, 1, 49, 127
2, 88720, Note_off_c, 1, 50, 0
2, 88720, Note_on_c, 1, 52, 127
2, 88720, Note_on_c, 1, 57, 127
2, 88720, Note_on_c, 1, 63, 127
2, 88760, Note_on_c, 1, 34, 127
2, 88760, Note_off_c, 1, 37, 0
2, 88760, Note_on_c, 1, 38, 127
2, 88760, Note_off_c, 1, 49, 0
2, 88760, Note_on_c, 1, 50, 127
2, 88760, Note_off_c, 1, 52, 0
2, 88760, Note_off_c, 1, 57, 0
2, 88760, Note_off_c, 1, 63, 0
2, 89160, Note_on_c, 1, 58, 127
2, 89200, Note_off_c, 1, 34, 0
2, 89200, Note_off_c, 1, 38, 0
2, 89200, Note_off_c, 1, 50, 0
2, 89200, Note_on_c, 1, 57, 127
2, 89200, Note_off_c, 1, 58, 0
2, 89200, Note_on_c, 1, 63, 127
2, 89200, Note_on_c, 1, 66, 127
2, 89200, Note_on_c, 1, 85, 127
2, 89200, Note_on_c, 1, 87, 127
2, 89240, Note_on_c, 1, 43, 127
2, 89240, Note_on_c, 1, 51, 127
2, 89240, Note_on_c, 1, 54, 127
2, 89240, Note_off_c, 1, 57, 0
2, 89240, Note_on_c, 1, 60, 127
2, 89240, Note_off_c, 1, 63, 0
2, 89240, Note_off_c, 1, 66, 0
2, 89240, Note_off_c, 1, 85, 0
2, 89240, Note_on_c, 1, 93, 127
2, 89240, Note_on_c, 1, 96, 127
2, 89280, Note_off_c, 1, 43, 0
2, 89280, Note_on_c, 1, 49, 127
2, 89280, Note_off_c, 1, 51, 0
2, 89280, Note_off_c, 1, 54, 0
2, 89280, Note_off_c, 1, 60, 0
2, 89280, Note_on_c, 1, 61, 127
2, 89280, Note_on_c, 1, 73, 127
2, 89280, Note_on_c, 1, 76, 127
2, 89280, Note_on_c, 1, 82, 127
2, 89280, Note_on_c, 1, 85, 127
2, 89280, Note_off_c, 1, 87, 0
2, 89280, Note_off_c, 1, 93, 0
2, 89280, Note_off_c, 1, 96, 0
2, 89320, Note_on_c, 1, 43, 127
2, 89320, Note_off_c, 1, 49, 0
2, 89320, Note_on_c, 1, 51, 127
2, 89320, Note_on_c, 1, 54, 127
2, 89320, Note_on_c, 1, 60, 127
2, 89320, Note_off_c, 1, 61, 0
2, 89320, Note_off_c, 1, 73, 0
2, 89320, Note_off_c, 1, 76, 0
2, 89320, Note_off_c, 1, 82, 0
2, 89320, Note_off_c, 1, 85, 0
2, 89320, Note_on_c, 1, 87, 127
2, 89320, Note_on_c, 1, 93, 127
2, 89320, Note_on_c, 1, 96, 127
2, 89440, Note_on_c, 1, 38, 127
2, 89440, Note_on_c, 1, 42, 127
2, 89440, Note_off_c, 1, 43, 0
2, 89440, Note_on_c, 1, 50, 127
2, 89440, Note_off_c, 1, 51, 0
2, 89440, Note_off_c, 1, 54, 0
2, 89440, Note_off_c, 1, 60, 0
2, 89440, Note_on_c, 1, 78, 127
2, 89440, Note_off_c, 1, 87, 0
2, 89440, Note_on_c, 1, 90, 127
2, 89440, Note_off_c, 1, 93, 0
2, 89440, Note_off_c, 1, 96, 0
2, 89480, Note_off_c, 1, 38, 0
2, 89480, Note_off_c, 1, 42, 0
2, 89480, Note_on_c, 1, 48, 127
2, 89480, Note_off_c, 1, 50, 0
2, 89480, Note_on_c, 1, 55, 127
2, 89480, Note_on_c, 1, 58, 127
2, 89480, Note_on_c, 1, 61, 127
2, 89480, Note_off_c, 1, 78, 0
2, 89480, Note_on_c, 1, 85, 127
2, 89480, Note_off_c, 1, 90, 0
2, 89520, Note_off_c, 1, 48, 0
2, 89520, Note_off_c, 1, 55, 0
2, 89520, Note_off_c, 1, 58, 0
2, 89520, Note_off_c, 1, 61, 0
2, 89520, Note_on_c, 1, 68, 127
2, 89520, Note_on_c, 1, 71, 127
2, 89520, Note_on_c, 1, 82, 127
2, 89520, Note_off_c, 1, 85, 0
2, 89520, Note_on_c, 1, 92, 127
2, 89520, Note_on_c, 1, 95, 127
2, 89560, Note_off_c, 1, 68, 0
2, 89560, Note_off_c, 1, 71, 0
2, 89560, Note_off_c, 1, 82, 0
2, 89560, Note_off_c, 1, 92, 0
2, 89560, Note_off_c, 1, 95, 0
2, 89600, Note_on_c, 1, 68, 127
2, 89600, Note_on_c, 1, 71, 127
2, 89600, Note_on_c, 1, 82, 127
2, 89600, Note_on_c, 1, 92, 127
2, 89600, Note_on_c, 1, 95, 127
2, 89680, Note_on_c, 1, 58, 127
2, 89680, Note_off_c, 1, 68, 0
2, 89680, Note_off_c, 1, 71, 0
2, 89840, Note_off_c, 1, 58, 0
2, 89840, Note_off_c, 1, 82, 0
2, 89840, Note_off_c, 1, 92, 0
2, 89840, Note_off_c, 1, 95, 0
2, 89880, Note_on_c, 1, 46, 127
2, 89880, Note_on_c, 1, 49, 127
2, 89880, Note_on_c, 1, 77, 127
2, 89880, Note_on_c, 1, 85, 127
2, 89880, Note_on_c, 1, 89, 127
2, 90280, Note_off_c, 1, 46, 0
2, 90280, Note_off_c, 1, 49, 0
2, 90280, Note_on_c, 1, 60, 127
2, 90280, Note_on_c, 1, 63, 127
2, 90280, Note_on_c, 1, 66, 127
2, 90280, Note_on_c, 1, 74, 127
2, 90280, Note_off_c, 1, 77, 0
2, 90280, Note_on_c, 1, 78, 127
2, 90280, Note_off_c, 1, 85, 0
2, 90280, Note_off_c, 1, 89, 0
2, 90320, Note_on_c, 1, 46, 127
2, 90320, Note_on_c, 1, 49, 127
2, 90320, Note_off_c, 1, 60, 0
2, 90320, Note_off_c, 1, 63, 0
2, 90320, Note_off_c, 1, 66, 0
2, 90320, Note_off_c, 1, 74, 0
2, 90320, Note_on_c, 1, 77, 127
2, 90320, Note_off_c, 1, 78, 0
2, 90320, Note_on_c, 1, 85, 127
2, 90320, Note_on_c, 1, 89, 127
2, 90440, Note_off_c, 1, 46, 0
2, 90440, Note_off_c, 1, 49, 0
2, 90440, Note_on_c, 1, 58, 127
2, 90440, Note_off_c, 1, 77, 0
2, 90440, Note_off_c, 1, 85, 0
2, 90440, Note_off_c, 1, 89, 0
2, 90480, Note_on_c, 1, 41, 127
2, 90480, Note_on_c, 1, 50, 127
2, 90480, Note_on_c, 1, 56, 127
2, 90480, Note_off_c, 1, 58, 0
2, 90480, Note_on_c, 1, 61, 127
2, 90520, Note_off_c, 1, 41, 0
2, 90520, Note_off_c, 1, 50, 0
2, 90520, Note_on_c, 1, 55, 127
2, 90520, Note_off_c, 1, 56, 0
2, 90520, Note_on_c, 1, 63, 127
2, 90520, Note_on_c, 1, 70, 127
2, 90520, Note_on_c, 1, 79, 127
2, 90560, Note_on_c, 1, 42, 127
2, 90560, Note_off_c, 1, 55, 0
2, 90560, Note_off_c, 1, 61, 0
2, 90560, Note_on_c, 1, 62, 127
2, 90560, Note_off_c, 1, 63, 0
2, 90560, Note_off_c, 1, 70, 0
2, 90560, Note_on_c, 1, 71, 127
2, 90560, Note_off_c, 1, 79, 0
2, 90560, Note_on_c, 1, 83, 127
2, 90600, Note_off_c, 1, 42, 0
2, 90600, Note_on_c, 1, 55, 127
2, 90600, Note_on_c, 1, 61, 127
2, 90600, Note_off_c, 1, 62, 0
2, 90600, Note_on_c, 1, 63, 127
2, 90600, Note_on_c, 1, 70, 127
2, 90600, Note_off_c, 1, 71, 0
2, 90600, Note_on_c, 1, 79, 127
2, 90600, Note_off_c, 1, 83, 0
2, 91000, Note_off_c, 1, 55, 0
2, 91000, Note_off_c, 1, 61, 0
2, 91000, Note_off_c, 1, 63, 0
2, 91000, Note_off_c, 1, 70, 0
2, 91000, Note_off_c, 1, 79, 0
2, 91040, Note_on_c, 1, 33, 127
2, 91040, Note_on_c, 1, 40, 127
2, 91040, Note_on_c, 1, 48, 127
2, 91040, Note_on_c, 1, 52, 127
2, 91040, Note_on_c, 1, 57, 127
2, 91440, Note_off_c, 1, 33, 0
2, 91440, Note_off_c, 1, 40, 0
2, 91440, Note_off_c, 1, 48, 0
2, 91440, Note_off_c, 1, 52, 0
2, 91440, Note_off_c, 1, 57, 0
2, 91480, Note_on_c, 1, 33, 127
2, 91480, Note_on_c, 1, 40, 127
2, 91480, Note_on_c, 1, 48, 127
2, 91480, Note_on_c, 1, 52, 127
2, 91480, Note_on_c, 1, 57, 127
2, 92200, Note_off_c, 1, 33, 0
2, 92200, Note_off_c, 1, 40, 0
2, 92200, Note_on_c, 1, 45, 127
2, 92200, Note_off_c, 1, 48, 0
2, 92200, Note_off_c, 1, 57, 0
2, 92200, Note_on_c, 1, 83, 127
2, 92200, Note_on_c, 1, 91, 127
2, 92200, Note_on_c, 1, 95, 127
2, 92240, Note_on_c, 1, 44, 127
2, 92240, Note_off_c, 1, 45, 0
2, 92240, Note_on_c, 1, 47, 127
2, 92240, Note_on_c, 1, 49, 127
2, 92240, Note_off_c, 1, 52, 0
2, 92240, Note_on_c, 1, 53, 127
2, 92240, Note_on_c, 1, 59, 127
2, 92240, Note_off_c, 1, 83, 0
2, 92240, Note_off_c, 1, 91, 0
2, 92240, Note_off_c, 1, 95, 0
2, 92280, Note_off_c, 1, 44, 0
2, 92280, Note_off_c, 1, 47, 0
2, 92280, Note_off_c, 1, 49, 0
2, 92280, Note_off_c, 1, 53, 0
2, 92280, Note_off_c, 1, 59, 0
2, 92280, Note_on_c, 1, 70, 127
2, 92280, Note_on_c, 1, 73, 127
2, 92280, Note_on_c, 1, 87, 127
2, 92280, Note_on_c, 1, 94, 127
2, 92320, Note_on_c, 1, 62, 127
2, 92320, Note_on_c, 1, 66, 127
2, 92320, Note_off_c, 1, 70, 0
2, 92320, Note_on_c, 1, 72, 127
2, 92320, Note_off_c, 1, 73, 0
2, 92320, Note_on_c, 1, 76, 127
2, 92320, Note_off_c, 1, 87, 0
2, 92320, Note_on_c, 1, 88, 127
2, 92320, Note_off_c, 1, 94, 0
2, 92360, Note_on_c, 1, 34, 127
2, 92360, Note_on_c, 1, 50, 127
2, 92360, Note_on_c, 1, 56, 127
2, 92360, Note_on_c, 1, 58, 127
2, 92360, Note_off_c, 1, 66, 0
2, 92360, Note_off_c, 1, 72, 0
2, 92360, Note_off_c, 1, 76, 0
2, 92360, Note_off_c, 1, 88, 0
2, 92400, Note_off_c, 1, 34, 0
2, 92400, Note_on_c, 1, 41, 127
2, 92400, Note_off_c, 1, 50, 0
2, 92400, Note_off_c, 1, 56, 0
2, 92400, Note_off_c, 1, 58, 0
2, 92400, Note_off_c, 1, 62, 0
2, 92400, Note_on_c, 1, 84, 127
2, 92400, Note_on_c, 1, 89, 127
2, 92400, Note_on_c, 1, 92, 127
2, 92400, Note_on_c, 1, 96, 127
2, 92440, Note_off_c, 1, 41, 0
2, 92440, Note_on_c, 1, 49, 127
2, 92440, Note_on_c, 1, 53, 127
2, 92440, Note_on_c, 1, 58, 127
2, 92440, Note_on_c, 1, 61, 127
2, 92440, Note_off_c, 1, 84, 0
2, 92440, Note_off_c, 1, 89, 0
2, 92440, Note_off_c, 1, 92, 0
2, 92440, Note_off_c, 1, 96, 0
2, 92440, Note_on_c, 1, 103, 127
2, 92480, Note_on_c, 1, 36, 127
2, 92480, Note_on_c, 1, 48, 127
2, 92480, Note_off_c, 1, 49, 0
2, 92480, Note_off_c, 1, 53, 0
2, 92480, Note_on_c, 1, 54, 127
2, 92480, Note_on_c, 1, 57, 127
2, 92480, Note_off_c, 1, 58, 0
2, 92480, Note_on_c, 1, 60, 127
2, 92480, Note_off_c, 1, 61, 0
2, 92480, Note_on_c, 1, 72, 127
2, 92480, Note_off_c, 1, 103, 0
2, 92520, Note_off_c, 1, 36, 0
2, 92520, Note_on_c, 1, 42, 127
2, 92520, Note_off_c, 1, 48, 0
2, 92520, Note_on_c, 1, 51, 127
2, 92520, Note_off_c, 1, 54, 0
2, 92520, Note_off_c, 1, 57, 0
2, 92520, Note_off_c, 1, 60, 0
2, 92520, Note_off_c, 1, 72, 0
2, 92520, Note_on_c, 1, 78, 127
2, 92520, Note_on_c, 1, 82, 127
2, 92520, Note_on_c, 1, 87, 127
2, 92560, Note_off_c, 1, 42, 0
2, 92560, Note_off_c, 1, 51, 0
2, 92560, Note_on_c, 1, 58, 127
2, 92560, Note_on_c, 1, 61, 127
2, 92560, Note_on_c, 1, 65, 127
2, 92560, Note_on_c, 1, 77, 127
2, 92560, Note_off_c, 1, 78, 0
2, 92560, Note_off_c, 1, 82, 0
2, 92560, Note_on_c, 1, 85, 127
2, 92560, Note_off_c, 1, 87, 0
2, 92560, Note_on_c, 1, 89, 127
2, 92800, Note_off_c, 1, 58, 0
2, 92800, Note_off_c, 1, 61, 0
2, 92800, Note_off_c, 1, 65, 0
2, 92800, Note_off_c, 1, 77, 0
2, 92800, Note_off_c, 1, 89, 0
2, 92840, Note_on_c, 1, 42, 127
2, 92840, Note_on_c, 1, 61, 127
2, 92840, Note_on_c, 1, 69, 127
2, 92840, Note_off_c, 1, 85, 0
2, 93360, Note_on_c, 1, 41, 127
2, 93360, Note_off_c, 1, 42, 0
2, 93360, Note_on_c, 1, 48, 127
2, 93360, Note_on_c, 1, 60, 127
2, 93360, Note_off_c, 1, 61, 0
2, 93360, Note_on_c, 1, 65, 127
2, 93400, Note_off_c, 1, 41, 0
2, 93400, Note_off_c, 1, 48, 0
2, 93400, Note_off_c, 1, 60, 0
2, 93400, Note_off_c, 1, 65, 0
2, 93400, Note_off_c, 1, 69, 0
2, 93480, Note_on_c, 1, 41, 127
2, 93480, Note_on_c, 1, 46, 127
2, 93480, Note_on_c, 1, 58, 127
2, 93480, Note_on_c, 1, 62, 127
2, 93480, Note_on_c, 1, 70, 127
2, 94560, Note_off_c, 1, 41, 0
2, 94560, Note_off_c, 1, 46, 0
2, 94560, Note_off_c, 1, 58, 0
2, 94560, Note_off_c, 1, 62, 0
2, 94560, Note_off_c, 1, 70, 0
2, 94600, Note_on_c, 1, 43, 127
2, 94600, Note_on_c, 1, 49, 127
2, 94600, Note_on_c, 1, 58, 127
2, 94600, Note_on_c, 1, 64, 127
2, 94600, Note_on_c, 1, 70, 127
2, 95400, Note_off_c, 1, 43, 0
2, 95400, Note_off_c, 1, 49, 0
2, 95400, Note_off_c, 1, 58, 0
2, 95400, Note_off_c, 1, 64, 0
2, 95400, Note_off_c, 1, 70, 0
2, 95440, Note_on_c, 1, 43, 127
2, 95440, Note_on_c, 1, 49, 127
2, 95440, Note_on_c, 1, 58, 127
2, 95440, Note_on_c, 1, 64, 127
2, 95440, Note_on_c, 1, 70, 127
2, 95760, Note_off_c, 1, 43, 0
2, 95760, Note_off_c, 1, 49, 0
2, 95760, Note_off_c, 1, 58, 0
2, 95760, Note_on_c, 1, 59, 127
2, 95760, Note_on_c, 1, 63, 127
2, 95760, Note_off_c, 1, 64, 0
2, 95760, Note_on_c, 1, 68, 127
2, 95760, Note_off_c, 1, 70, 0
2, 95760, Note_on_c, 1, 85, 127
2, 95800, Note_off_c, 1, 59, 0
2, 95800, Note_off_c, 1, 63, 0
2, 95800, Note_off_c, 1, 68, 0
2, 95800, Note_off_c, 1, 85, 0
2, 95840, Note_on_c, 1, 61, 127
2, 95840, Note_on_c, 1, 89, 127
2, 95840, Note_on_c, 1, 92, 127
2, 97000, Note_off_c, 1, 61, 0
2, 97000, Note_off_c, 1, 89, 0
2, 97000, Note_off_c, 1, 92, 0
2, 97040, Note_on_c, 1, 81, 127
2, 97040, Note_on_c, 1, 93, 127
2, 97440, Note_off_c, 1, 81, 0
2, 97440, Note_off_c, 1, 93, 0
2, 97480, Note_on_c, 1, 81, 127
2, 97480, Note_on_c, 1, 93, 127
2, 97600, Note_off_c, 1, 81, 0
2, 97600, Note_off_c, 1, 93, 0
2, 97640, Note_on_c, 1, 64, 127
2, 97640, Note_on_c, 1, 66, 127
2, 97640, Note_on_c, 1, 76, 127
2, 97640, Note_on_c, 1, 78, 127
2, 99640, Note_off_c, 1, 64, 0
2, 99640, Note_off_c, 1, 66, 0
2, 99640, Note_off_c, 1, 76, 0
2, 99640, Note_off_c, 1, 78, 0
2, 99680, Note_on_c, 1, 64, 127
2, 99680, Note_on_c, 1, 66, 127
2, 99680, Note_on_c, 1, 76, 127
2, 99680, Note_on_c, 1, 78, 127
2, 101640, Note_off_c, 1, 64, 0
2, 101640, Note_off_c, 1, 66, 0
2, 101640, Note_off_c, 1, 76, 0
2, 101680, Note_on_c, 1, 38, 127
2, 101680, Note_on_c, 1, 50, 127
2, 101680, Note_off_c, 1, 78, 0
2, 101680, Note_on_c, 1, 81, 127
2, 101840, Note_off_c, 1, 38, 0
2, 101840, Note_off_c, 1, 50, 0
2, 101840, Note_off_c, 1, 81, 0
2, 101880, Note_on_c, 1, 38, 127
2, 101880, Note_on_c, 1, 50, 127
2, 101880, Note_on_c, 1, 81, 127
2, 102240, Note_off_c, 1, 38, 0
2, 102240, Note_off_c, 1, 50, 0
2, 102240, Note_on_c, 1, 69, 127
2, 102240, Note_off_c, 1, 81, 0
2, 102280, Note_on_c, 1, 62, 127
2, 102280, Note_off_c, 1, 69, 0
2, 102280, Note_on_c, 1, 74, 127
2, 102280, Note_on_c, 1, 83, 127
2, 102720, Note_on_c, 1, 56, 127
2, 102720, Note_off_c, 1, 62, 0
2, 102760, Note_off_c, 1, 56, 0
2, 102760, Note_on_c, 1, 62, 127
2, 102800, Note_off_c, 1, 62, 0
2, 102800, Note_off_c, 1, 74, 0
2, 102840, Note_on_c, 1, 52, 127
2, 102840, Note_on_c, 1, 59, 127
2, 102840, Note_on_c, 1, 68, 127
2, 102840, Note_on_c, 1, 76, 127
2, 102840, Note_off_c, 1, 83, 0
2, 102840, Note_on_c, 1, 87, 127
2, 103240, Note_off_c, 1, 68, 0
2, 103240, Note_off_c, 1, 76, 0
2, 103240, Note_off_c, 1, 87, 0
2, 103280, Note_on_c, 1, 68, 127
2, 103280, Note_on_c, 1, 76, 127
2, 103280, Note_on_c, 1, 87, 127
2, 103360, Note_off_c, 1, 52, 0
2, 103360, Note_off_c, 1, 59, 0
2, 103360, Note_on_c, 1, 64, 127
2, 103360, Note_off_c, 1, 68, 0
2, 103360, Note_off_c, 1, 76, 0
2, 103360, Note_off_c, 1, 87, 0
2, 103400, Note_on_c, 1, 52, 127
2, 103400, Note_on_c, 1, 57, 127
2, 103400, Note_on_c, 1, 67, 127
2, 103400, Note_on_c, 1, 69, 127
2, 103400, Note_on_c, 1, 79, 127
2, 103640, Note_off_c, 1, 52, 0
2, 103640, Note_on_c, 1, 54, 127
2, 103640, Note_off_c, 1, 64, 0
2, 103640, Note_on_c, 1, 66, 127
2, 103640, Note_off_c, 1, 67, 0
2, 103640, Note_off_c, 1, 79, 0
2, 103640, Note_on_c, 1, 81, 127
2, 103680, Note_on_c, 1, 52, 127
2, 103680, Note_off_c, 1, 54, 0
2, 103680, Note_on_c, 1, 64, 127
2, 103680, Note_off_c, 1, 66, 0
2, 103680, Note_on_c, 1, 67, 127
2, 103680, Note_on_c, 1, 79, 127
2, 103680, Note_off_c, 1, 81, 0
2, 103800, Note_on_c, 1, 38, 127
2, 103800, Note_on_c, 1, 45, 127
2, 103800, Note_on_c, 1, 50, 127
2, 103800, Note_off_c, 1, 52, 0
2, 103800, Note_off_c, 1, 57, 0
2, 103800, Note_off_c, 1, 64, 0
2, 103800, Note_off_c, 1, 67, 0
2, 103800, Note_off_c, 1, 69, 0
2, 103800, Note_off_c, 1, 79, 0
2, 103800, Note_on_c, 1, 81, 127
2, 103800, Note_on_c, 1, 93, 127
2, 103840, Note_off_c, 1, 38, 0
2, 103840, Note_off_c, 1, 45, 0
2, 103840, Note_off_c, 1, 50, 0
2, 103840, Note_on_c, 1, 52, 127
2, 103840, Note_on_c, 1, 57, 127
2, 103840, Note_on_c, 1, 64, 127
2, 103840, Note_on_c, 1, 67, 127
2, 103840, Note_on_c, 1, 69, 127
2, 103840, Note_on_c, 1, 79, 127
2, 103840, Note_off_c, 1, 81, 0
2, 103840, Note_off_c, 1, 93, 0
2, 103920, Note_off_c, 1, 52, 0
2, 103920, Note_off_c, 1, 57, 0
2, 103920, Note_off_c, 1, 64, 0
2, 103920, Note_off_c, 1, 67, 0
2, 103920, Note_off_c, 1, 69, 0
2, 103920, Note_off_c, 1, 79, 0
2, 103960, Note_on_c, 1, 52, 127
2, 103960, Note_on_c, 1, 57, 127
2, 103960, Note_on_c, 1, 64, 127
2, 103960, Note_on_c, 1, 67, 127
2, 103960, Note_on_c, 1, 69, 127
2, 103960, Note_on_c, 1, 79, 127
2, 104000, Note_on_c, 1, 38, 127
2, 104000, Note_off_c, 1, 52, 0
2, 104000, Note_off_c, 1, 57, 0
2, 104000, Note_off_c, 1, 64, 0
2, 104000, Note_off_c, 1, 67, 0
2, 104000, Note_off_c, 1, 69, 0
2, 104000, Note_off_c, 1, 79, 0
2, 104040, Note_off_c, 1, 38, 0
2, 104040, Note_on_c, 1, 70, 127
2, 104040, Note_on_c, 1, 76, 127
2, 104040, Note_on_c, 1, 81, 127
2, 104040, Note_on_c, 1, 85, 127
2, 104040, Note_on_c, 1, 93, 127
2, 104040, Note_on_c, 1, 97, 127
2, 104200, Note_off_c, 1, 81, 0
2, 104200, Note_off_c, 1, 93, 0
2, 104240, Note_on_c, 1, 81, 127
2, 104240, Note_on_c, 1, 93, 127
2, 104280, Note_off_c, 1, 70, 0
2, 104280, Note_off_c, 1, 76, 0
2, 104280, Note_on_c, 1, 79, 127
2, 104280, Note_off_c, 1, 81, 0
2, 104280, Note_off_c, 1, 85, 0
2, 104280, Note_on_c, 1, 91, 127
2, 104280, Note_off_c, 1, 93, 0
2, 104280, Note_off_c, 1, 97, 0
2, 104320, Note_on_c, 1, 50, 127
2, 104320, Note_on_c, 1, 53, 127
2, 104320, Note_on_c, 1, 58, 127
2, 104320, Note_on_c, 1, 62, 127
2, 104320, Note_off_c, 1, 79, 0
2, 104320, Note_on_c, 1, 80, 127
2, 104320, Note_off_c, 1, 91, 0
2, 104360, Note_off_c, 1, 50, 0
2, 104360, Note_off_c, 1, 53, 0
2, 104360, Note_off_c, 1, 58, 0
2, 104360, Note_off_c, 1, 62, 0
2, 104360, Note_off_c, 1, 80, 0
2, 104360, Note_on_c, 1, 87, 127
2, 104360, Note_on_c, 1, 88, 127
2, 104360, Note_on_c, 1, 95, 127
2, 104400, Note_on_c, 1, 79, 127
2, 104400, Note_on_c, 1, 82, 127
2, 104400, Note_on_c, 1, 86, 127
2, 104400, Note_off_c, 1, 87, 0
2, 104400, Note_off_c, 1, 88, 0
2, 104400, Note_on_c, 1, 89, 127
2, 104400, Note_off_c, 1, 95, 0
2, 104440, Note_off_c, 1, 79, 0
2, 104440, Note_off_c, 1, 82, 0
2, 104440, Note_on_c, 1, 83, 127
2, 104440, Note_off_c, 1, 86, 0
2, 104440, Note_on_c, 1, 87, 127
2, 104440, Note_off_c, 1, 89, 0
2, 104440, Note_on_c, 1, 94, 127
2, 104480, Note_on_c, 1, 73, 127
2, 104480, Note_off_c, 1, 83, 0
2, 104480, Note_off_c, 1, 87, 0
2, 104480, Note_on_c, 1, 92, 127
2, 104480, Note_on_c, 1, 97, 127
2, 104480, Note_on_c, 1, 100, 127
2, 104480, Note_on_c, 1, 104, 127
2, 104520, Note_on_c, 1, 54, 127
2, 104520, Note_on_c, 1, 58, 127
2, 104520, Note_on_c, 1, 64, 127
2, 104520, Note_off_c, 1, 73, 0
2, 104520, Note_on_c, 1, 86, 127
2, 104520, Note_off_c, 1, 92, 0
2, 104520, Note_off_c, 1, 94, 0
2, 104520, Note_off_c, 1, 97, 0
2, 104520, Note_off_c, 1, 100, 0
2, 104520, Note_off_c, 1, 104, 0
2, 104560, Note_off_c, 1, 54, 0
2, 104560, Note_off_c, 1, 58, 0
2, 104560, Note_off_c, 1, 64, 0
2, 104560, Note_off_c, 1, 86, 0
2, 104600, Note_on_c, 1, 69, 127
2, 104600, Note_on_c, 1, 72, 127
2, 104600, Note_on_c, 1, 75, 127
2, 104600, Note_on_c, 1, 77, 127
2, 104600, Note_on_c, 1, 84, 127
2, 104640, Note_on_c, 1, 56, 127
2, 104640, Note_on_c, 1, 60, 127
2, 104640, Note_off_c, 1, 69, 0
2, 104640, Note_off_c, 1, 72, 0
2, 104640, Note_off_c, 1, 75, 0
2, 104640, Note_off_c, 1, 77, 0
2, 104640, Note_on_c, 1, 87, 127
2, 104680, Note_off_c, 1, 56, 0
2, 104680, Note_on_c, 1, 59, 127
2, 104680, Note_off_c, 1, 60, 0
2, 104680, Note_off_c, 1, 84, 0
2, 104680, Note_off_c, 1, 87, 0
2, 104680, Note_on_c, 1, 91, 127
2, 104680, Note_on_c, 1, 103, 127
2, 104720, Note_on_c, 1, 46, 127
2, 104720, Note_on_c, 1, 51, 127
2, 104720, Note_off_c, 1, 59, 0
2, 104720, Note_on_c, 1, 66, 127
2, 104720, Note_on_c, 1, 70, 127
2, 104720, Note_off_c, 1, 91, 0
2, 104720, Note_off_c, 1, 103, 0
2, 104760, Note_off_c, 1, 46, 0
2, 104760, Note_off_c, 1, 51, 0
2, 104760, Note_on_c, 1, 56, 127
2, 104760, Note_on_c, 1, 62, 127
2, 104760, Note_off_c, 1, 66, 0
2, 104760, Note_on_c, 1, 68, 127
2, 104760, Note_off_c, 1, 70, 0
2, 104760, Note_on_c, 1, 73, 127
2, 104800, Note_on_c, 1, 40, 127
2, 104800, Note_on_c, 1, 52, 127
2, 104800, Note_off_c, 1, 56, 0
2, 104800, Note_on_c, 1, 59, 127
2, 104800, Note_off_c, 1, 73, 0
2, 104800, Note_on_c, 1, 88, 127
2, 104840, Note_off_c, 1, 40, 0
2, 104840, Note_on_c, 1, 49, 127
2, 104840, Note_off_c, 1, 52, 0
2, 104840, Note_on_c, 1, 55, 127
2, 104840, Note_off_c, 1, 59, 0
2, 104840, Note_on_c, 1, 61, 127
2, 104840, Note_off_c, 1, 62, 0
2, 104840, Note_on_c, 1, 64, 127
2, 104840, Note_off_c, 1, 68, 0
2, 104840, Note_off_c, 1, 88, 0
2, 104880, Note_off_c, 1, 55, 0
2, 104880, Note_on_c, 1, 59, 127
2, 104880, Note_off_c, 1, 61, 0
2, 104880, Note_off_c, 1, 64, 0
2, 104880, Note_on_c, 1, 68, 127
2, 104880, Note_on_c, 1, 73, 127
2, 104880, Note_on_c, 1, 77, 127
2, 104920, Note_off_c, 1, 49, 0
2, 104920, Note_on_c, 1, 58, 127
2, 104920, Note_off_c, 1, 59, 0
2, 104920, Note_on_c, 1, 67, 127
2, 104920, Note_off_c, 1, 68, 0
2, 104920, Note_on_c, 1, 70, 127
2, 104920, Note_off_c, 1, 73, 0
2, 104920, Note_off_c, 1, 77, 0
2, 104920, Note_on_c, 1, 82, 127
2, 104920, Note_on_c, 1, 87, 127
2, 104920, Note_on_c, 1, 91, 127
2, 104960, Note_off_c, 1, 58, 0
2, 104960, Note_on_c, 1, 62, 127
2, 104960, Note_on_c, 1, 66, 127
2, 104960, Note_off_c, 1, 67, 0
2, 104960, Note_off_c, 1, 70, 0
2, 104960, Note_off_c, 1, 82, 0
2, 104960, Note_on_c, 1, 83, 127
2, 104960, Note_on_c, 1, 86, 127
2, 104960, Note_off_c, 1, 87, 0
2, 104960, Note_on_c, 1, 90, 127
2, 104960, Note_off_c, 1, 91, 0
2, 105000, Note_off_c, 1, 62, 0
2, 105000, Note_off_c, 1, 66, 0
2, 105000, Note_off_c, 1, 83, 0
2, 105000, Note_off_c, 1, 86, 0
2, 105000, Note_on_c, 1, 87, 127
2, 105000, Note_off_c, 1, 90, 0
2, 105000, Note_on_c, 1, 96, 127
2, 105000, Note_on_c, 1, 103, 127
2, 105040, Note_on_c, 1, 49, 127
2, 105040, Note_on_c, 1, 67, 127
2, 105040, Note_on_c, 1, 78, 127
2, 105040, Note_on_c, 1, 81, 127
2, 105040, Note_off_c, 1, 87, 0
2, 105040, Note_off_c, 1, 96, 0
2, 105040, Note_off_c, 1, 103, 0
2, 105080, Note_off_c, 1, 49, 0
2, 105080, Note_on_c, 1, 53, 127
2, 105080, Note_off_c, 1, 67, 0
2, 105080, Note_on_c, 1, 77, 127
2, 105080, Note_off_c, 1, 78, 0
2, 105080, Note_on_c, 1, 79, 127
2, 105080, Note_off_c, 1, 81, 0
2, 105080, Note_on_c, 1, 82, 127
2, 105120, Note_off_c, 1, 53, 0
2, 105120, Note_on_c, 1, 58, 127
2, 105120, Note_on_c, 1, 65, 127
2, 105120, Note_on_c, 1, 70, 127
2, 105120, Note_off_c, 1, 77, 0
2, 105120, Note_off_c, 1, 79, 0
2, 105120, Note_on_c, 1, 80, 127
2, 105120, Note_off_c, 1, 82, 0
2, 105120, Note_on_c, 1, 86, 127
2, 105160, Note_off_c, 1, 58, 0
2, 105160, Note_off_c, 1, 65, 0
2, 105160, Note_off_c, 1, 70, 0
2, 105160, Note_off_c, 1, 80, 0
2, 105160, Note_on_c, 1, 82, 127
2, 105160, Note_off_c, 1, 86, 0
2, 105160, Note_on_c, 1, 92, 127
2, 105200, Note_on_c, 1, 49, 127
2, 105200, Note_on_c, 1, 56, 127
2, 105200, Note_on_c, 1, 59, 127
2, 105200, Note_on_c, 1, 73, 127
2, 105200, Note_on_c, 1, 80, 127
2, 105200, Note_off_c, 1, 82, 0
2, 105200, Note_off_c, 1, 92, 0
2, 105720, Note_off_c, 1, 49, 0
2, 105720, Note_on_c, 1, 55, 127
2, 105720, Note_off_c, 1, 56, 0
2, 105720, Note_off_c, 1, 59, 0
2, 105720, Note_on_c, 1, 66, 127
2, 105720, Note_on_c, 1, 69, 127
2, 105720, Note_on_c, 1, 71, 127
2, 105720, Note_off_c, 1, 73, 0
2, 105720, Note_off_c, 1, 80, 0
2, 105760, Note_off_c, 1, 55, 0
2, 105760, Note_off_c, 1, 66, 0
2, 105760, Note_off_c, 1, 69, 0
2, 105760, Note_off_c, 1, 71, 0
2, 105760, Note_on_c, 1, 80, 127
2, 105800, Note_on_c, 1, 31, 127
2, 105800, Note_on_c, 1, 36, 127
2, 105800, Note_on_c, 1, 38, 127
2, 105800, Note_on_c, 1, 71, 127
2, 105800, Note_on_c, 1, 77, 127
2, 105840, Note_off_c, 1, 31, 0
2, 105840, Note_on_c, 1, 35, 127
2, 105840, Note_off_c, 1, 36, 0
2, 105840, Note_off_c, 1, 38, 0
2, 105840, Note_on_c, 1, 44, 127
2, 105840, Note_on_c, 1, 47, 127
2, 105840, Note_on_c, 1, 62, 127
2, 105840, Note_on_c, 1, 64, 127
2, 105840, Note_on_c, 1, 75, 127
2, 105840, Note_off_c, 1, 77, 0
2, 105840, Note_off_c, 1, 80, 0
2, 105880, Note_off_c, 1, 35, 0
2, 105880, Note_off_c, 1, 44, 0
2, 105880, Note_on_c, 1, 46, 127
2, 105880, Note_off_c, 1, 47, 0
2, 105880, Note_off_c, 1, 62, 0
2, 105880, Note_off_c, 1, 64, 0
2, 105880, Note_off_c, 1, 71, 0
2, 105880, Note_off_c, 1, 75, 0
2, 105880, Note_on_c, 1, 86, 127
2, 105880, Note_on_c, 1, 91, 127
2, 105920, Note_on_c, 1, 45, 127
2, 105920, Note_off_c, 1, 46, 0
2, 105920, Note_on_c, 1, 47, 127
2, 105920, Note_on_c, 1, 57, 127
2, 105920, Note_on_c, 1, 63, 127
2, 105920, Note_on_c, 1, 66, 127
2, 105920, Note_on_c, 1, 71, 127
2, 105920, Note_on_c, 1, 75, 127
2, 105920, Note_off_c, 1, 86, 0
2, 105920, Note_off_c, 1, 91, 0
2, 105960, Note_off_c, 1, 45, 0
2, 105960, Note_off_c, 1, 47, 0
2, 105960, Note_off_c, 1, 57, 0
2, 105960, Note_off_c, 1, 63, 0
2, 105960, Note_off_c, 1, 66, 0
2, 105960, Note_off_c, 1, 71, 0
2, 105960, Note_off_c, 1, 75, 0
2, 106000, Note_on_c, 1, 35, 127
2, 106000, Note_on_c, 1, 44, 127
2, 106000, Note_on_c, 1, 47, 127
2, 106000, Note_on_c, 1, 62, 127
2, 106000, Note_on_c, 1, 64, 127
2, 106000, Note_on_c, 1, 71, 127
2, 106000, Note_on_c, 1, 75, 127
2, 106040, Note_off_c, 1, 75, 0
2, 106040, Note_on_c, 1, 76, 127
2, 106080, Note_off_c, 1, 35, 0
2, 106080, Note_off_c, 1, 44, 0
2, 106080, Note_on_c, 1, 57, 127
2, 106080, Note_off_c, 1, 62, 0
2, 106080, Note_off_c, 1, 64, 0
2, 106080, Note_off_c, 1, 71, 0
2, 106080, Note_off_c, 1, 76, 0
2, 106080, Note_on_c, 1, 87, 127
2, 106120, Note_off_c, 1, 47, 0
2, 106120, Note_off_c, 1, 57, 0
2, 106120, Note_on_c, 1, 58, 127
2, 106120, Note_on_c, 1, 62, 127
2, 106120, Note_on_c, 1, 67, 127
2, 106120, Note_off_c, 1, 87, 0
2, 106120, Note_on_c, 1, 94, 127
2, 106160, Note_on_c, 1, 41, 127
2, 106160, Note_on_c, 1, 57, 127
2, 106160, Note_off_c, 1, 58, 0
2, 106160, Note_off_c, 1, 62, 0
2, 106160, Note_on_c, 1, 64, 127
2, 106160, Note_off_c, 1, 67, 0
2, 106160, Note_on_c, 1, 76, 127
2, 106160, Note_off_c, 1, 94, 0
2, 106200, Note_off_c, 1, 41, 0
2, 106200, Note_off_c, 1, 57, 0
2, 106200, Note_on_c, 1, 59, 127
2, 106200, Note_off_c, 1, 64, 0
2, 106200, Note_on_c, 1, 66, 127
2, 106200, Note_off_c, 1, 76, 0
2, 106200, Note_on_c, 1, 85, 127
2, 106200, Note_on_c, 1, 88, 127
2, 106240, Note_on_c, 1, 50, 127
2, 106240, Note_on_c, 1, 55, 127
2, 106240, Note_on_c, 1, 62, 127
2, 106240, Note_off_c, 1, 66, 0
2, 106240, Note_on_c, 1, 74, 127
2, 106240, Note_off_c, 1, 85, 0
2, 106240, Note_on_c, 1, 86, 127
2, 106240, Note_off_c, 1, 88, 0
2, 106280, Note_on_c, 1, 49, 127
2, 106280, Note_off_c, 1, 50, 0
2, 106280, Note_on_c, 1, 51, 127
2, 106280, Note_on_c, 1, 54, 127
2, 106280, Note_off_c, 1, 55, 0
2, 106280, Note_off_c, 1, 59, 0
2, 106280, Note_on_c, 1, 61, 127
2, 106280, Note_off_c, 1, 62, 0
2, 106280, Note_off_c, 1, 74, 0
2, 106280, Note_on_c, 1, 85, 127
2, 106280, Note_off_c, 1, 86, 0
2, 106320, Note_on_c, 1, 39, 127
2, 106320, Note_on_c, 1, 47, 127
2, 106320, Note_off_c, 1, 49, 0
2, 106320, Note_off_c, 1, 54, 0
2, 106320, Note_off_c, 1, 61, 0
2, 106320, Note_on_c, 1, 76, 127
2, 106320, Note_off_c, 1, 85, 0
2, 106320, Note_on_c, 1, 88, 127
2, 106360, Note_off_c, 1, 39, 0
2, 106360, Note_off_c, 1, 47, 0
2, 106360, Note_off_c, 1, 51, 0
2, 106360, Note_off_c, 1, 76, 0
2, 106360, Note_off_c, 1, 88, 0
2, 106400, Note_on_c, 1, 53, 127
2, 106400, Note_on_c, 1, 61, 127
2, 106400, Note_on_c, 1, 84, 127
2, 106440, Note_off_c, 1, 61, 0
2, 106440, Note_on_c, 1, 83, 127
2, 106440, Note_off_c, 1, 84, 0
2, 106480, Note_on_c, 1, 61, 127
2, 106480, Note_off_c, 1, 83, 0
2, 106480, Note_on_c, 1, 85, 127
2, 106520, Note_off_c, 1, 61, 0
2, 106520, Note_on_c, 1, 83, 127
2, 106520, Note_off_c, 1, 85, 0
2, 106560, Note_on_c, 1, 61, 127
2, 106560, Note_off_c, 1, 83, 0
2, 106560, Note_on_c, 1, 85, 127
2, 106600, Note_on_c, 1, 36, 127
2, 106600, Note_on_c, 1, 52, 127
2, 106600, Note_off_c, 1, 53, 0
2, 106600, Note_on_c, 1, 67, 127
2, 106600, Note_off_c, 1, 85, 0
2, 106640, Note_off_c, 1, 36, 0
2, 106640, Note_off_c, 1, 52, 0
2, 106640, Note_on_c, 1, 53, 127
2, 106640, Note_off_c, 1, 67, 0
2, 106640, Note_on_c, 1, 89, 127
2, 106680, Note_on_c, 1, 49, 127
2, 106680, Note_off_c, 1, 53, 0
2, 106680, Note_on_c, 1, 85, 127
2, 106680, Note_off_c, 1, 89, 0
2, 106680, Note_on_c, 1, 93, 127
2, 106680, Note_on_c, 1, 97, 127
2, 106760, Note_on_c, 1, 48, 127
2, 106760, Note_off_c, 1, 49, 0
2, 106760, Note_on_c, 1, 53, 127
2, 106760, Note_on_c, 1, 56, 127
2, 106760, Note_on_c, 1, 59, 127
2, 106760, Note_off_c, 1, 61, 0
2, 106760, Note_on_c, 1, 62, 127
2, 106760, Note_on_c, 1, 65, 127
2, 106760, Note_on_c, 1, 68, 127
2, 106760, Note_on_c, 1, 71, 127
2, 106760, Note_on_c, 1, 74, 127
2, 106760, Note_off_c, 1, 85, 0
2, 106760, Note_off_c, 1, 93, 0
2, 106760, Note_off_c, 1, 97, 0
2, 106800, Note_off_c, 1, 48, 0
2, 106800, Note_off_c, 1, 59, 0
2, 106800, Note_off_c, 1, 62, 0
2, 106800, Note_off_c, 1, 65, 0
2, 106800, Note_off_c, 1, 68, 0
2, 106800, Note_off_c, 1, 71, 0
2, 106800, Note_off_c, 1, 74, 0
2, 106800, Note_on_c, 1, 77, 127
2, 106800, Note_on_c, 1, 80, 127
2, 106920, Note_on_c, 1, 49, 127
2, 106920, Note_off_c, 1, 53, 0
2, 106920, Note_on_c, 1, 55, 127
2, 106920, Note_off_c, 1, 56, 0
2, 106920, Note_off_c, 1, 77, 0
2, 106920, Note_off_c, 1, 80, 0
2, 106960, Note_off_c, 1, 49, 0
2, 106960, Note_off_c, 1, 55, 0
2, 106960, Note_on_c, 1, 63, 127
2, 106960, Note_on_c, 1, 68, 127
2, 106960, Note_on_c, 1, 81, 127
2, 107000, Note_on_c, 1, 30, 127
2, 107000, Note_on_c, 1, 42, 127
2, 107000, Note_on_c, 1, 62, 127
2, 107000, Note_off_c, 1, 63, 0
2, 107000, Note_on_c, 1, 66, 127
2, 107000, Note_off_c, 1, 68, 0
2, 107000, Note_on_c, 1, 74, 127
2, 107000, Note_off_c, 1, 81, 0
2, 107040, Note_off_c, 1, 30, 0
2, 107040, Note_on_c, 1, 36, 127
2, 107040, Note_on_c, 1, 41, 127
2, 107040, Note_off_c, 1, 42, 0
2, 107040, Note_on_c, 1, 48, 127
2, 107040, Note_off_c, 1, 62, 0
2, 107040, Note_on_c, 1, 65, 127
2, 107040, Note_off_c, 1, 66, 0
2, 107040, Note_on_c, 1, 69, 127
2, 107040, Note_off_c, 1, 74, 0
2, 107080, Note_off_c, 1, 36, 0
2, 107080, Note_off_c, 1, 41, 0
2, 107080, Note_off_c, 1, 48, 0
2, 107080, Note_on_c, 1, 57, 127
2, 107080, Note_on_c, 1, 64, 127
2, 107080, Note_off_c, 1, 65, 0
2, 107080, Note_off_c, 1, 69, 0
2, 107080, Note_on_c, 1, 73, 127
2, 107120, Note_on_c, 1, 41, 127
2, 107120, Note_on_c, 1, 53, 127
2, 107120, Note_off_c, 1, 57, 0
2, 107120, Note_off_c, 1, 64, 0
2, 107120, Note_on_c, 1, 65, 127
2, 107120, Note_on_c, 1, 69, 127
2, 107120, Note_off_c, 1, 73, 0
2, 107120, Note_on_c, 1, 74, 127
2, 107120, Note_on_c, 1, 77, 127
2, 107160, Note_off_c, 1, 41, 0
2, 107160, Note_off_c, 1, 53, 0
2, 107160, Note_on_c, 1, 58, 127
2, 107160, Note_on_c, 1, 63, 127
2, 107160, Note_off_c, 1, 65, 0
2, 107160, Note_on_c, 1, 67, 127
2, 107160, Note_off_c, 1, 69, 0
2, 107160, Note_on_c, 1, 70, 127
2, 107160, Note_off_c, 1, 74, 0
2, 107160, Note_on_c, 1, 75, 127
2, 107160, Note_off_c, 1, 77, 0
2, 107160, Note_on_c, 1, 87, 127
2, 107200, Note_off_c, 1, 58, 0
2, 107200, Note_off_c, 1, 63, 0
2, 107200, Note_off_c, 1, 67, 0
2, 107200, Note_off_c, 1, 70, 0
2, 107200, Note_off_c, 1, 75, 0
2, 107200, Note_on_c, 1, 83, 127
2, 107200, Note_off_c, 1, 87, 0
2, 107200, Note_on_c, 1, 89, 127
2, 107200, Note_on_c, 1, 101, 127
2, 107240, Note_on_c, 1, 51, 127
2, 107240, Note_on_c, 1, 67, 127
2, 107240, Note_off_c, 1, 83, 0
2, 107240, Note_off_c, 1, 89, 0
2, 107240, Note_on_c, 1, 91, 127
2, 107240, Note_on_c, 1, 97, 127
2, 107240, Note_off_c, 1, 101, 0
2, 107280, Note_off_c, 1, 51, 0
2, 107280, Note_off_c, 1, 67, 0
2, 107280, Note_on_c, 1, 81, 127
2, 107280, Note_on_c, 1, 83, 127
2, 107280, Note_off_c, 1, 91, 0
2, 107280, Note_on_c, 1, 93, 127
2, 107280, Note_on_c, 1, 95, 127
2, 107280, Note_off_c, 1, 97, 0
2, 107320, Note_off_c, 1, 81, 0
2, 107320, Note_off_c, 1, 83, 0
2, 107320, Note_off_c, 1, 95, 0
2, 107360, Note_on_c, 1, 86, 127
2, 107360, Note_on_c, 1, 89, 127
2, 107360, Note_off_c, 1, 93, 0
2, 107360, Note_on_c, 1, 95, 127
2, 107400, Note_on_c, 1, 54, 127
2, 107400, Note_on_c, 1, 59, 127
2, 107400, Note_on_c, 1, 62, 127
2, 107400, Note_on_c, 1, 65, 127
2, 107400, Note_off_c, 1, 86, 0
2, 107400, Note_off_c, 1, 89, 0
2, 107400, Note_on_c, 1, 91, 127
2, 107400, Note_on_c, 1, 92, 127
2, 107400, Note_off_c, 1, 95, 0
2, 107440, Note_off_c, 1, 54, 0
2, 107440, Note_off_c, 1, 59, 0
2, 107440, Note_off_c, 1, 62, 0
2, 107440, Note_off_c, 1, 65, 0
2, 107440, Note_off_c, 1, 91, 0
2, 107480, Note_on_c, 1, 40, 127
2, 107480, Note_off_c, 1, 92, 0
2, 107480, Note_on_c, 1, 93, 127
2, 107520, Note_off_c, 1, 40, 0
2, 107520, Note_on_c, 1, 92, 127
2, 107520, Note_off_c, 1, 93, 0
2, 107560, Note_on_c, 1, 57, 127
2, 107560, Note_on_c, 1, 69, 127
2, 107560, Note_on_c, 1, 87, 127
2, 107560, Note_off_c, 1, 92, 0
2, 107560, Note_on_c, 1, 95, 127
2, 107600, Note_on_c, 1, 29, 127
2, 107600, Note_on_c, 1, 36, 127
2, 107600, Note_on_c, 1, 54, 127
2, 107600, Note_off_c, 1, 57, 0
2, 107600, Note_on_c, 1, 59, 127
2, 107600, Note_off_c, 1, 69, 0
2, 107600, Note_off_c, 1, 87, 0
2, 107600, Note_off_c, 1, 95, 0
2, 107640, Note_off_c, 1, 29, 0
2, 107640, Note_off_c, 1, 36, 0
2, 107640, Note_off_c, 1, 54, 0
2, 107640, Note_on_c, 1, 55, 127
2, 107640, Note_off_c, 1, 59, 0
2, 107640, Note_on_c, 1, 60, 127
2, 107640, Note_on_c, 1, 63, 127
2, 107640, Note_on_c, 1, 66, 127
2, 107640, Note_on_c, 1, 93, 127
2, 107680, Note_off_c, 1, 55, 0
2, 107680, Note_on_c, 1, 59, 127
2, 107680, Note_off_c, 1, 60, 0
2, 107680, Note_on_c, 1, 62, 127
2, 107680, Note_off_c, 1, 63, 0
2, 107680, Note_off_c, 1, 66, 0
2, 107680, Note_on_c, 1, 79, 127
2, 107680, Note_on_c, 1, 91, 127
2, 107680, Note_off_c, 1, 93, 0
2, 107720, Note_on_c, 1, 52, 127
2, 107720, Note_on_c, 1, 55, 127
2, 107720, Note_off_c, 1, 59, 0
2, 107720, Note_off_c, 1, 62, 0
2, 107720, Note_on_c, 1, 64, 127
2, 107720, Note_on_c, 1, 67, 127
2, 107720, Note_off_c, 1, 79, 0
2, 107720, Note_on_c, 1, 81, 127
2, 107720, Note_off_c, 1, 91, 0
2, 107760, Note_on_c, 1, 42, 127
2, 107760, Note_on_c, 1, 47, 127
2, 107760, Note_off_c, 1, 52, 0
2, 107760, Note_off_c, 1, 55, 0
2, 107760, Note_on_c, 1, 60, 127
2, 107760, Note_off_c, 1, 64, 0
2, 107760, Note_off_c, 1, 67, 0
2, 107760, Note_off_c, 1, 81, 0
2, 107800, Note_off_c, 1, 42, 0
2, 107800, Note_off_c, 1, 47, 0
2, 107800, Note_on_c, 1, 57, 127
2, 107800, Note_off_c, 1, 60, 0
2, 107800, Note_on_c, 1, 66, 127
2, 107800, Note_on_c, 1, 69, 127
2, 107800, Note_on_c, 1, 93, 127
2, 107840, Note_off_c, 1, 57, 0
2, 107840, Note_off_c, 1, 66, 0
2, 107840, Note_off_c, 1, 69, 0
2, 107840, Note_on_c, 1, 89, 127
2, 107840, Note_off_c, 1, 93, 0
2, 107880, Note_on_c, 1, 71, 127
2, 107880, Note_on_c, 1, 87, 127
2, 107880, Note_off_c, 1, 89, 0
2, 107880, Note_on_c, 1, 99, 127
2, 107880, Note_on_c, 1, 100, 127
2, 107880, Note_on_c, 1, 102, 127
2, 107920, Note_on_c, 1, 44, 127
2, 107920, Note_off_c, 1, 71, 0
2, 107920, Note_off_c, 1, 87, 0
2, 107920, Note_on_c, 1, 90, 127
2, 107920, Note_on_c, 1, 93, 127
2, 107920, Note_off_c, 1, 99, 0
2, 107920, Note_off_c, 1, 100, 0
2, 107920, Note_off_c, 1, 102, 0
2, 107960, Note_off_c, 1, 44, 0
2, 107960, Note_on_c, 1, 52, 127
2, 107960, Note_on_c, 1, 54, 127
2, 107960, Note_on_c, 1, 58, 127
2, 107960, Note_on_c, 1, 64, 127
2, 107960, Note_off_c, 1, 90, 0
2, 107960, Note_off_c, 1, 93, 0
2, 108000, Note_off_c, 1, 52, 0
2, 108000, Note_off_c, 1, 54, 0
2, 108000, Note_off_c, 1, 58, 0
2, 108000, Note_on_c, 1, 62, 127
2, 108000, Note_off_c, 1, 64, 0
2, 108000, Note_on_c, 1, 70, 127
2, 108000, Note_on_c, 1, 82, 127
2, 108000, Note_on_c, 1, 86, 127
2, 108000, Note_on_c, 1, 94, 127
2, 108040, Note_off_c, 1, 62, 0
2, 108040, Note_off_c, 1, 70, 0
2, 108040, Note_on_c, 1, 72, 127
2, 108040, Note_off_c, 1, 82, 0
2, 108040, Note_off_c, 1, 86, 0
2, 108040, Note_on_c, 1, 87, 127
2, 108040, Note_off_c, 1, 94, 0
2, 108040, Note_on_c, 1, 101, 127
2, 108080, Note_off_c, 1, 72, 0
2, 108080, Note_off_c, 1, 87, 0
2, 108080, Note_off_c, 1, 101, 0
2, 108120, Note_on_c, 1, 44, 127
2, 108120, Note_on_c, 1, 51, 127
2, 108120, Note_on_c, 1, 60, 127
2, 108120, Note_on_c, 1, 75, 127
2, 108120, Note_on_c, 1, 80, 127
2, 108160, Note_off_c, 1, 44, 0
2, 108160, Note_off_c, 1, 51, 0
2, 108160, Note_off_c, 1, 60, 0
2, 108160, Note_off_c, 1, 75, 0
2, 108160, Note_off_c, 1, 80, 0
2, 108160, Note_on_c, 1, 93, 127
2, 108160, Note_on_c, 1, 94, 127
2, 108200, Note_on_c, 1, 42, 127
2, 108200, Note_on_c, 1, 49, 127
2, 108200, Note_on_c, 1, 52, 127
2, 108200, Note_on_c, 1, 54, 127
2, 108200, Note_on_c, 1, 85, 127
2, 108200, Note_off_c, 1, 93, 0
2, 108200, Note_off_c, 1, 94, 0
2, 108240, Note_off_c, 1, 42, 0
2, 108240, Note_on_c, 1, 46, 127
2, 108240, Note_off_c, 1, 49, 0
2, 108240, Note_off_c, 1, 52, 0
2, 108240, Note_off_c, 1, 54, 0
2, 108240, Note_on_c, 1, 55, 127
2, 108240, Note_on_c, 1, 58, 127
2, 108240, Note_on_c, 1, 67, 127
2, 108240, Note_on_c, 1, 70, 127
2, 108240, Note_on_c, 1, 73, 127
2, 108240, Note_on_c, 1, 82, 127
2, 108240, Note_off_c, 1, 85, 0
2, 108280, Note_off_c, 1, 46, 0
2, 108280, Note_off_c, 1, 55, 0
2, 108280, Note_off_c, 1, 58, 0
2, 108280, Note_off_c, 1, 67, 0
2, 108280, Note_off_c, 1, 70, 0
2, 108280, Note_off_c, 1, 73, 0
2, 108280, Note_on_c, 1, 74, 127
2, 108280, Note_on_c, 1, 77, 127
2, 108280, Note_off_c, 1, 82, 0
2, 108280, Note_on_c, 1, 94, 127
2, 108320, Note_on_c, 1, 46, 127
2, 108320, Note_on_c, 1, 55, 127
2, 108320, Note_on_c, 1, 58, 127
2, 108320, Note_on_c, 1, 67, 127
2, 108320, Note_on_c, 1, 70, 127
2, 108320, Note_on_c, 1, 73, 127
2, 108320, Note_off_c, 1, 74, 0
2, 108320, Note_off_c, 1, 77, 0
2, 108320, Note_on_c, 1, 82, 127
2, 108320, Note_off_c, 1, 94, 0
2, 108440, Note_off_c, 1, 46, 0
2, 108440, Note_off_c, 1, 55, 0
2, 108440, Note_on_c, 1, 56, 127
2, 108440, Note_off_c, 1, 58, 0
2, 108440, Note_off_c, 1, 70, 0
2, 108440, Note_off_c, 1, 73, 0
2, 108440, Note_on_c, 1, 76, 127
2, 108440, Note_on_c, 1, 81, 127
2, 108440, Note_off_c, 1, 82, 0
2, 108480, Note_on_c, 1, 43, 127
2, 108480, Note_on_c, 1, 49, 127
2, 108480, Note_off_c, 1, 56, 0
2, 108480, Note_on_c, 1, 59, 127
2, 108480, Note_on_c, 1, 61, 127
2, 108480, Note_off_c, 1, 67, 0
2, 108480, Note_off_c, 1, 76, 0
2, 108480, Note_off_c, 1, 81, 0
2, 108520, Note_off_c, 1, 43, 0
2, 108520, Note_off_c, 1, 49, 0
2, 108520, Note_on_c, 1, 50, 127
2, 108520, Note_on_c, 1, 53, 127
2, 108520, Note_on_c, 1, 56, 127
2, 108520, Note_on_c, 1, 58, 127
2, 108520, Note_off_c, 1, 59, 0
2, 108520, Note_off_c, 1, 61, 0
2, 108520, Note_on_c, 1, 86, 127
2, 108720, Note_off_c, 1, 86, 0
2, 108720, Note_on_c, 1, 89, 127
2, 108760, Note_off_c, 1, 50, 0
2, 108760, Note_off_c, 1, 53, 0
2, 108760, Note_off_c, 1, 56, 0
2, 108760, Note_off_c, 1, 58, 0
2, 108760, Note_on_c, 1, 73, 127
2, 108760, Note_on_c, 1, 79, 127
2, 108760, Note_on_c, 1, 82, 127
2, 108760, Note_off_c, 1, 89, 0
2, 108800, Note_on_c, 1, 66, 127
2, 108800, Note_on_c, 1, 70, 127
2, 108800, Note_on_c, 1, 71, 127
2, 108800, Note_off_c, 1, 73, 0
2, 108800, Note_off_c, 1, 79, 0
2, 108800, Note_on_c, 1, 80, 127
2, 108800, Note_off_c, 1, 82, 0
2, 108840, Note_on_c, 1, 45, 127
2, 108840, Note_on_c, 1, 65, 127
2, 108840, Note_off_c, 1, 66, 0
2, 108840, Note_off_c, 1, 70, 0
2, 108840, Note_off_c, 1, 71, 0
2, 108840, Note_off_c, 1, 80, 0
2, 108840, Note_on_c, 1, 81, 127
2, 108840, Note_on_c, 1, 84, 127
2, 108840, Note_on_c, 1, 88, 127
2, 108880, Note_off_c, 1, 45, 0
2, 108880, Note_on_c, 1, 49, 127
2, 108880, Note_on_c, 1, 56, 127
2, 108880, Note_on_c, 1, 71, 127
2, 108880, Note_off_c, 1, 81, 0
2, 108880, Note_off_c, 1, 84, 0
2, 108880, Note_off_c, 1, 88, 0
2, 108920, Note_on_c, 1, 31, 127
2, 108920, Note_on_c, 1, 34, 127
2, 108920, Note_on_c, 1, 37, 127
2, 108920, Note_on_c, 1, 40, 127
2, 108920, Note_on_c, 1, 43, 127
2, 108920, Note_on_c, 1, 52, 127
2, 108920, Note_off_c, 1, 56, 0
2, 108920, Note_on_c, 1, 58, 127
2, 108920, Note_off_c, 1, 65, 0
2, 108920, Note_on_c, 1, 70, 127
2, 108920, Note_off_c, 1, 71, 0
2, 108920, Note_on_c, 1, 82, 127
2, 108960, Note_off_c, 1, 31, 0
2, 108960, Note_off_c, 1, 34, 0
2, 108960, Note_off_c, 1, 37, 0
2, 108960, Note_on_c, 1, 39, 127
2, 108960, Note_off_c, 1, 40, 0
2, 108960, Note_off_c, 1, 43, 0
2, 108960, Note_on_c, 1, 46, 127
2, 108960, Note_off_c, 1, 49, 0
2, 108960, Note_off_c, 1, 52, 0
2, 108960, Note_on_c, 1, 55, 127
2, 108960, Note_on_c, 1, 63, 127
2, 108960, Note_off_c, 1, 70, 0
2, 108960, Note_off_c, 1, 82, 0
2, 108960, Note_on_c, 1, 87, 127
2, 109000, Note_off_c, 1, 39, 0
2, 109000, Note_off_c, 1, 46, 0
2, 109000, Note_off_c, 1, 55, 0
2, 109000, Note_on_c, 1, 57, 127
2, 109000, Note_off_c, 1, 58, 0
2, 109000, Note_on_c, 1, 60, 127
2, 109000, Note_off_c, 1, 63, 0
2, 109000, Note_on_c, 1, 64, 127
2, 109000, Note_on_c, 1, 67, 127
2, 109000, Note_on_c, 1, 79, 127
2, 109000, Note_off_c, 1, 87, 0
2, 109040, Note_on_c, 1, 53, 127
2, 109040, Note_off_c, 1, 57, 0
2, 109040, Note_on_c, 1, 59, 127
2, 109040, Note_off_c, 1, 60, 0
2, 109040, Note_off_c, 1, 64, 0
2, 109040, Note_off_c, 1, 67, 0
2, 109040, Note_on_c, 1, 69, 127
2, 109040, Note_on_c, 1, 74, 127
2, 109040, Note_off_c, 1, 79, 0
2, 109040, Note_on_c, 1, 83, 127
2, 109080, Note_off_c, 1, 53, 0
2, 109080, Note_off_c, 1, 59, 0
2, 109080, Note_off_c, 1, 69, 0
2, 109080, Note_off_c, 1, 74, 0
2, 109080, Note_off_c, 1, 83, 0
2, 109120, Note_on_c, 1, 89, 127
2, 109360, Note_off_c, 1, 89, 0
2, 109400, Note_on_c, 1, 88, 127
2, 109640, Note_off_c, 1, 88, 0
2, 109680, Note_on_c, 1, 40, 127
2, 109680, Note_on_c, 1, 54, 127
2, 109680, Note_on_c, 1, 69, 127
2, 109720, Note_off_c, 1, 40, 0
2, 109720, Note_on_c, 1, 47, 127
2, 109720, Note_on_c, 1, 51, 127
2, 109720, Note_on_c, 1, 59, 127
2, 109720, Note_off_c, 1, 69, 0
2, 109720, Note_on_c, 1, 79, 127
2, 109760, Note_on_c, 1, 40, 127
2, 109760, Note_off_c, 1, 47, 0
2, 109760, Note_off_c, 1, 51, 0
2, 109760, Note_off_c, 1, 59, 0
2, 109760, Note_on_c, 1, 61, 127
2, 109760, Note_on_c, 1, 69, 127
2, 109760, Note_on_c, 1, 73, 127
2, 109760, Note_off_c, 1, 79, 0
2, 109800, Note_off_c, 1, 40, 0
2, 109800, Note_off_c, 1, 54, 0
2, 109800, Note_off_c, 1, 61, 0
2, 109800, Note_off_c, 1, 69, 0
2, 109800, Note_off_c, 1, 73, 0
2, 109800, Note_on_c, 1, 89, 127
2, 109800, Note_on_c, 1, 92, 127
2, 109800, Note_on_c, 1, 96, 127
2, 109800, Note_on_c, 1, 101, 127
2, 109840, Note_on_c, 1, 45, 127
2, 109840, Note_on_c, 1, 47, 127
2, 109840, Note_on_c, 1, 51, 127
2, 109840, Note_on_c, 1, 54, 127
2, 109840, Note_on_c, 1, 78, 127
2, 109840, Note_off_c, 1, 89, 0
2, 109840, Note_off_c, 1, 92, 0
2, 109840, Note_off_c, 1, 96, 0
2, 109840, Note_off_c, 1, 101, 0
2, 109880, Note_off_c, 1, 45, 0
2, 109880, Note_on_c, 1, 46, 127
2, 109880, Note_off_c, 1, 47, 0
2, 109880, Note_off_c, 1, 51, 0
2, 109880, Note_on_c, 1, 52, 127
2, 109880, Note_off_c, 1, 54, 0
2, 109880, Note_on_c, 1, 58, 127
2, 109880, Note_off_c, 1, 78, 0
2, 109880, Note_on_c, 1, 85, 127
2, 109920, Note_off_c, 1, 46, 0
2, 109920, Note_off_c, 1, 52, 0
2, 109920, Note_on_c, 1, 61, 127
2, 109920, Note_on_c, 1, 64, 127
2, 109920, Note_on_c, 1, 65, 127
2, 109920, Note_off_c, 1, 85, 0
2, 109960, Note_on_c, 1, 39, 127
2, 109960, Note_on_c, 1, 45, 127
2, 109960, Note_on_c, 1, 51, 127
2, 109960, Note_off_c, 1, 58, 0
2, 109960, Note_on_c, 1, 60, 127
2, 109960, Note_off_c, 1, 61, 0
2, 109960, Note_off_c, 1, 64, 0
2, 109960, Note_off_c, 1, 65, 0
2, 109960, Note_on_c, 1, 66, 127
2, 109960, Note_on_c, 1, 72, 127
2, 110080, Note_off_c, 1, 39, 0
2, 110080, Note_off_c, 1, 45, 0
2, 110080, Note_off_c, 1, 51, 0
2, 110080, Note_off_c, 1, 60, 0
2, 110080, Note_off_c, 1, 66, 0
2, 110080, Note_off_c, 1, 72, 0
2, 110120, Note_on_c, 1, 39, 127
2, 110120, Note_on_c, 1, 45, 127
2, 110120, Note_on_c, 1, 51, 127
2, 110120, Note_on_c, 1, 60, 127
2, 110120, Note_on_c, 1, 66, 127
2, 110120, Note_on_c, 1, 72, 127
2, 110280, Note_off_c, 1, 39, 0
2, 110280, Note_off_c, 1, 45, 0
2, 110280, Note_on_c, 1, 49, 127
2, 110280, Note_off_c, 1, 51, 0
2, 110280, Note_on_c, 1, 52, 127
2, 110280, Note_on_c, 1, 58, 127
2, 110280, Note_off_c, 1, 60, 0
2, 110280, Note_off_c, 1, 66, 0
2, 110280, Note_off_c, 1, 72, 0
2, 110280, Note_on_c, 1, 88, 127
2, 110320, Note_off_c, 1, 49, 0
2, 110320, Note_off_c, 1, 52, 0
2, 110320, Note_off_c, 1, 58, 0
2, 110320, Note_on_c, 1, 64, 127
2, 110320, Note_on_c, 1, 70, 127
2, 110320, Note_on_c, 1, 74, 127
2, 110320, Note_on_c, 1, 84, 127
2, 110320, Note_off_c, 1, 88, 0
2, 110440, Note_on_c, 1, 69, 127
2, 110440, Note_off_c, 1, 70, 0
2, 110440, Note_off_c, 1, 74, 0
2, 110440, Note_on_c, 1, 81, 127
2, 110440, Note_off_c, 1, 84, 0
2, 110440, Note_on_c, 1, 85, 127
2, 110480, Note_off_c, 1, 69, 0
2, 110480, Note_on_c, 1, 70, 127
2, 110480, Note_on_c, 1, 74, 127
2, 110480, Note_off_c, 1, 81, 0
2, 110480, Note_on_c, 1, 84, 127
2, 110480, Note_off_c, 1, 85, 0
2, 110520, Note_off_c, 1, 84, 0
2, 110560, Note_off_c, 1, 70, 0
2, 110560, Note_on_c, 1, 73, 127
2, 110560, Note_off_c, 1, 74, 0
2, 110560, Note_on_c, 1, 76, 127
2, 110560, Note_on_c, 1, 81, 127
2, 110600, Note_on_c, 1, 48, 127
2, 110600, Note_off_c, 1, 64, 0
2, 110600, Note_off_c, 1, 73, 0
2, 110600, Note_off_c, 1, 76, 0
2, 110600, Note_off_c, 1, 81, 0
2, 110600, Note_on_c, 1, 82, 127
2, 110600, Note_on_c, 1, 86, 127
2, 110600, Note_on_c, 1, 94, 127
2, 110640, Note_on_c, 1, 31, 127
2, 110640, Note_on_c, 1, 37, 127
2, 110640, Note_on_c, 1, 43, 127
2, 110640, Note_off_c, 1, 48, 0
2, 110640, Note_off_c, 1, 82, 0
2, 110640, Note_on_c, 1, 85, 127
2, 110640, Note_off_c, 1, 86, 0
2, 110640, Note_off_c, 1, 94, 0
2, 110680, Note_off_c, 1, 31, 0
2, 110680, Note_off_c, 1, 37, 0
2, 110680, Note_off_c, 1, 43, 0
2, 110680, Note_on_c, 1, 63, 127
2, 110680, Note_on_c, 1, 66, 127
2, 110680, Note_on_c, 1, 71, 127
2, 110680, Note_off_c, 1, 85, 0
2, 110680, Note_on_c, 1, 87, 127
2, 110680, Note_on_c, 1, 90, 127
2, 110680, Note_on_c, 1, 95, 127
2, 110720, Note_on_c, 1, 54, 127
2, 110720, Note_off_c, 1, 63, 0
2, 110720, Note_off_c, 1, 66, 0
2, 110720, Note_off_c, 1, 71, 0
2, 110720, Note_on_c, 1, 82, 127
2, 110720, Note_on_c, 1, 86, 127
2, 110720, Note_off_c, 1, 87, 0
2, 110720, Note_off_c, 1, 90, 0
2, 110720, Note_on_c, 1, 94, 127
2, 110720, Note_off_c, 1, 95, 0
2, 110760, Note_off_c, 1, 54, 0
2, 110760, Note_on_c, 1, 55, 127
2, 110760, Note_on_c, 1, 58, 127
2, 110760, Note_on_c, 1, 61, 127
2, 110760, Note_on_c, 1, 64, 127
2, 110760, Note_off_c, 1, 82, 0
2, 110760, Note_off_c, 1, 86, 0
2, 110760, Note_on_c, 1, 90, 127
2, 110760, Note_off_c, 1, 94, 0
2, 110800, Note_on_c, 1, 45, 127
2, 110800, Note_on_c, 1, 54, 127
2, 110800, Note_off_c, 1, 55, 0
2, 110800, Note_off_c, 1, 58, 0
2, 110800, Note_off_c, 1, 61, 0
2, 110800, Note_off_c, 1, 64, 0
2, 110800, Note_on_c, 1, 75, 127
2, 110800, Note_on_c, 1, 78, 127
2, 110800, Note_off_c, 1, 90, 0
2, 110840, Note_off_c, 1, 45, 0
2, 110840, Note_off_c, 1, 54, 0
2, 110840, Note_on_c, 1, 55, 127
2, 110840, Note_off_c, 1, 75, 0
2, 110840, Note_off_c, 1, 78, 0
2, 110840, Note_on_c, 1, 81, 127
2, 110880, Note_off_c, 1, 55, 0
2, 110880, Note_on_c, 1, 60, 127
2, 110880, Note_on_c, 1, 63, 127
2, 110880, Note_on_c, 1, 66, 127
2, 110880, Note_on_c, 1, 69, 127
2, 110880, Note_on_c, 1, 72, 127
2, 110880, Note_off_c, 1, 81, 0
2, 111120, Note_off_c, 1, 60, 0
2, 111120, Note_off_c, 1, 63, 0
2, 111120, Note_off_c, 1, 66, 0
2, 111120, Note_off_c, 1, 69, 0
2, 111120, Note_off_c, 1, 72, 0
2, 111160, Note_on_c, 1, 50, 127
2, 111160, Note_on_c, 1, 56, 127
2, 111160, Note_on_c, 1, 62, 127
2, 111160, Note_on_c, 1, 83, 127
2, 111160, Note_on_c, 1, 89, 127
2, 111160, Note_on_c, 1, 95, 127
2, 111360, Note_on_c, 1, 67, 127
2, 111360, Note_on_c, 1, 70, 127
2, 111400, Note_off_c, 1, 67, 0
2, 111400, Note_off_c, 1, 70, 0
2, 111440, Note_on_c, 1, 48, 127
2, 111440, Note_off_c, 1, 50, 0
2, 111440, Note_on_c, 1, 51, 127
2, 111440, Note_on_c, 1, 54, 127
2, 111440, Note_off_c, 1, 56, 0
2, 111440, Note_on_c, 1, 57, 127
2, 111440, Note_off_c, 1, 62, 0
2, 111440, Note_off_c, 1, 83, 0
2, 111440, Note_on_c, 1, 87, 127
2, 111440, Note_off_c, 1, 89, 0
2, 111440, Note_off_c, 1, 95, 0
2, 111480, Note_on_c, 1, 44, 127
2, 111480, Note_off_c, 1, 48, 0
2, 111480, Note_off_c, 1, 51, 0
2, 111480, Note_off_c, 1, 54, 0
2, 111480, Note_off_c, 1, 57, 0
2, 111480, Note_on_c, 1, 66, 127
2, 111480, Note_off_c, 1, 87, 0
2, 111480, Note_on_c, 1, 90, 127
2, 111520, Note_off_c, 1, 44, 0
2, 111520, Note_off_c, 1, 66, 0
2, 111520, Note_on_c, 1, 87, 127
2, 111520, Note_on_c, 1, 88, 127
2, 111520, Note_on_c, 1, 91, 127
2, 111560, Note_off_c, 1, 87, 0
2, 111560, Note_off_c, 1, 88, 0
2, 111560, Note_off_c, 1, 91, 0
2, 111560, Note_on_c, 1, 95, 127
2, 111560, Note_on_c, 1, 100, 127
2, 111600, Note_on_c, 1, 58, 127
2, 111600, Note_on_c, 1, 64, 127
2, 111600, Note_on_c, 1, 67, 127
2, 111600, Note_on_c, 1, 76, 127
2, 111600, Note_on_c, 1, 85, 127
2, 111600, Note_on_c, 1, 88, 127
2, 111600, Note_off_c, 1, 90, 0
2, 111600, Note_off_c, 1, 95, 0
2, 111600, Note_off_c, 1, 100, 0
2, 111640, Note_off_c, 1, 58, 0
2, 111640, Note_off_c, 1, 67, 0
2, 111640, Note_on_c, 1, 68, 127
2, 111640, Note_off_c, 1, 76, 0
2, 111640, Note_off_c, 1, 85, 0
2, 111640, Note_on_c, 1, 95, 127
2, 111680, Note_on_c, 1, 33, 127
2, 111680, Note_on_c, 1, 40, 127
2, 111680, Note_on_c, 1, 45, 127
2, 111680, Note_off_c, 1, 64, 0
2, 111680, Note_off_c, 1, 68, 0
2, 111680, Note_off_c, 1, 88, 0
2, 111680, Note_off_c, 1, 95, 0
2, 111720, Note_off_c, 1, 33, 0
2, 111720, Note_off_c, 1, 40, 0
2, 111720, Note_off_c, 1, 45, 0
2, 111720, Note_on_c, 1, 47, 127
2, 111720, Note_on_c, 1, 51, 127
2, 111720, Note_on_c, 1, 70, 127
2, 111720, Note_on_c, 1, 75, 127
2, 111760, Note_on_c, 1, 35, 127
2, 111760, Note_off_c, 1, 47, 0
2, 111760, Note_off_c, 1, 51, 0
2, 111760, Note_on_c, 1, 52, 127
2, 111760, Note_off_c, 1, 70, 0
2, 111760, Note_off_c, 1, 75, 0
2, 111760, Note_on_c, 1, 78, 127
2, 111760, Note_on_c, 1, 83, 127
2, 111760, Note_on_c, 1, 87, 127
2, 111800, Note_off_c, 1, 35, 0
2, 111800, Note_off_c, 1, 52, 0
2, 111800, Note_on_c, 1, 62, 127
2, 111800, Note_on_c, 1, 65, 127
2, 111800, Note_on_c, 1, 71, 127
2, 111800, Note_off_c, 1, 78, 0
2, 111800, Note_off_c, 1, 83, 0
2, 111800, Note_off_c, 1, 87, 0
2, 111800, Note_on_c, 1, 94, 127
2, 111840, Note_off_c, 1, 94, 0
2, 111840, Note_on_c, 1, 98, 127
2, 111880, Note_on_c, 1, 54, 127
2, 111880, Note_on_c, 1, 59, 127
2, 111880, Note_off_c, 1, 65, 0
2, 111880, Note_on_c, 1, 66, 127
2, 111880, Note_off_c, 1, 71, 0
2, 111880, Note_on_c, 1, 86, 127
2, 111880, Note_on_c, 1, 90, 127
2, 111880, Note_on_c, 1, 95, 127
2, 111920, Note_off_c, 1, 54, 0
2, 111920, Note_off_c, 1, 59, 0
2, 111920, Note_on_c, 1, 65, 127
2, 111920, Note_off_c, 1, 66, 0
2, 111920, Note_on_c, 1, 71, 127
2, 111920, Note_off_c, 1, 86, 0
2, 111920, Note_off_c, 1, 90, 0
2, 111920, Note_off_c, 1, 95, 0
2, 111960, Note_on_c, 1, 28, 127
2, 111960, Note_on_c, 1, 40, 127
2, 111960, Note_on_c, 1, 61, 127
2, 111960, Note_off_c, 1, 62, 0
2, 111960, Note_off_c, 1, 65, 0
2, 111960, Note_off_c, 1, 71, 0
2, 111960, Note_off_c, 1, 98, 0
2, 112000, Note_off_c, 1, 28, 0
2, 112000, Note_off_c, 1, 40, 0
2, 112000, Note_on_c, 1, 47, 127
2, 112000, Note_on_c, 1, 59, 127
2, 112000, Note_off_c, 1, 61, 0
2, 112000, Note_on_c, 1, 68, 127
2, 112000, Note_on_c, 1, 74, 127
2, 112000, Note_on_c, 1, 78, 127
2, 112000, Note_on_c, 1, 80, 127
2, 112240, Note_off_c, 1, 47, 0
2, 112240, Note_off_c, 1, 59, 0
2, 112240, Note_off_c, 1, 68, 0
2, 112240, Note_off_c, 1, 74, 0
2, 112240, Note_off_c, 1, 78, 0
2, 112240, Note_off_c, 1, 80, 0
2, 112280, Note_on_c, 1, 47, 127
2, 112280, Note_on_c, 1, 59, 127
2, 112280, Note_on_c, 1, 68, 127
2, 112280, Note_on_c, 1, 74, 127
2, 112280, Note_on_c, 1, 78, 127
2, 112280, Note_on_c, 1, 80, 127
2, 112320, Note_off_c, 1, 47, 0
2, 112320, Note_off_c, 1, 59, 0
2, 112320, Note_off_c, 1, 68, 0
2, 112320, Note_off_c, 1, 74, 0
2, 112320, Note_off_c, 1, 78, 0
2, 112320, Note_off_c, 1, 80, 0
2, 112360, Note_on_c, 1, 46, 127
2, 112360, Note_on_c, 1, 51, 127
2, 112360, Note_on_c, 1, 69, 127
2, 112400, Note_off_c, 1, 46, 0
2, 112400, Note_off_c, 1, 51, 0
2, 112400, Note_on_c, 1, 57, 127
2, 112400, Note_on_c, 1, 62, 127
2, 112400, Note_on_c, 1, 67, 127
2, 112400, Note_off_c, 1, 69, 0
2, 112400, Note_on_c, 1, 77, 127
2, 112400, Note_on_c, 1, 89, 127
2, 112440, Note_off_c, 1, 57, 0
2, 112440, Note_off_c, 1, 62, 0
2, 112440, Note_off_c, 1, 67, 0
2, 112440, Note_off_c, 1, 77, 0
2, 112440, Note_off_c, 1, 89, 0
2, 112440, Note_on_c, 1, 90, 127
2, 112440, Note_on_c, 1, 94, 127
2, 112440, Note_on_c, 1, 102, 127
2, 112480, Note_on_c, 1, 56, 127
2, 112480, Note_on_c, 1, 63, 127
2, 112480, Note_on_c, 1, 82, 127
2, 112480, Note_on_c, 1, 85, 127
2, 112480, Note_off_c, 1, 90, 0
2, 112480, Note_off_c, 1, 94, 0
2, 112480, Note_off_c, 1, 102, 0
2, 112520, Note_off_c, 1, 56, 0
2, 112520, Note_on_c, 1, 62, 127
2, 112520, Note_off_c, 1, 63, 0
2, 112520, Note_off_c, 1, 82, 0
2, 112520, Note_on_c, 1, 83, 127
2, 112520, Note_off_c, 1, 85, 0
2, 112520, Note_on_c, 1, 86, 127
2, 112520, Note_on_c, 1, 91, 127
2, 112520, Note_on_c, 1, 95, 127
2, 112560, Note_on_c, 1, 56, 127
2, 112560, Note_off_c, 1, 62, 0
2, 112560, Note_on_c, 1, 63, 127
2, 112560, Note_on_c, 1, 66, 127
2, 112560, Note_on_c, 1, 73, 127
2, 112560, Note_off_c, 1, 83, 0
2, 112560, Note_on_c, 1, 85, 127
2, 112560, Note_off_c, 1, 86, 0
2, 112560, Note_off_c, 1, 91, 0
2, 112560, Note_off_c, 1, 95, 0
2, 112600, Note_off_c, 1, 56, 0
2, 112600, Note_off_c, 1, 63, 0
2, 112600, Note_off_c, 1, 66, 0
2, 112600, Note_off_c, 1, 73, 0
2, 112600, Note_on_c, 1, 97, 127
2, 112640, Note_on_c, 1, 48, 127
2, 112640, Note_on_c, 1, 58, 127
2, 112640, Note_on_c, 1, 63, 127
2, 112640, Note_on_c, 1, 66, 127
2, 112640, Note_on_c, 1, 70, 127
2, 112640, Note_on_c, 1, 75, 127
2, 112640, Note_off_c, 1, 85, 0
2, 112640, Note_on_c, 1, 87, 127
2, 112640, Note_off_c, 1, 97, 0
2, 112920, Note_off_c, 1, 48, 0
2, 112920, Note_off_c, 1, 58, 0
2, 112920, Note_off_c, 1, 63, 0
2, 112920, Note_off_c, 1, 66, 0
2, 112920, Note_off_c, 1, 70, 0
2, 112920, Note_off_c, 1, 75, 0
2, 112920, Note_off_c, 1, 87, 0
2, 112960, Note_on_c, 1, 61, 127
2, 112960, Note_on_c, 1, 68, 127
2, 112960, Note_on_c, 1, 80, 127
2, 112960, Note_on_c, 1, 92, 127
2, 113200, Note_off_c, 1, 61, 0
2, 113200, Note_off_c, 1, 68, 0
2, 113240, Note_on_c, 1, 61, 127
2, 113240, Note_on_c, 1, 68, 127
2, 113480, Note_off_c, 1, 68, 0
2, 113520, Note_off_c, 1, 61, 0
2, 113520, Note_on_c, 1, 66, 127
2, 113520, Note_on_c, 1, 73, 127
2, 113520, Note_off_c, 1, 80, 0
2, 113520, Note_on_c, 1, 82, 127
2, 113520, Note_on_c, 1, 90, 127
2, 113520, Note_off_c, 1, 92, 0
2, 113560, Note_on_c, 1, 42, 127
2, 113560, Note_on_c, 1, 57, 127
2, 113560, Note_on_c, 1, 62, 127
2, 113560, Note_on_c, 1, 69, 127
2, 113560, Note_off_c, 1, 73, 0
2, 113560, Note_off_c, 1, 82, 0
2, 113560, Note_off_c, 1, 90, 0
2, 113600, Note_off_c, 1, 42, 0
2, 113600, Note_off_c, 1, 57, 0
2, 113600, Note_on_c, 1, 61, 127
2, 113600, Note_off_c, 1, 62, 0
2, 113600, Note_off_c, 1, 66, 0
2, 113600, Note_on_c, 1, 68, 127
2, 113600, Note_off_c, 1, 69, 0
2, 113600, Note_on_c, 1, 80, 127
2, 113600, Note_on_c, 1, 92, 127
2, 113760, Note_off_c, 1, 61, 0
2, 113760, Note_off_c, 1, 68, 0
2, 113800, Note_on_c, 1, 62, 127
2, 113840, Note_off_c, 1, 62, 0
2, 113920, Note_off_c, 1, 80, 0
2, 113920, Note_off_c, 1, 92, 0
2, 113960, Note_on_c, 1, 84, 127
2, 113960, Note_on_c, 1, 96, 127
2, 114080, Note_off_c, 1, 84, 0
2, 114080, Note_off_c, 1, 96, 0
2, 114120, Note_on_c, 1, 45, 127
2, 114120, Note_on_c, 1, 52, 127
2, 114120, Note_on_c, 1, 61, 127
2, 114120, Note_on_c, 1, 67, 127
2, 114360, Note_off_c, 1, 45, 0
2, 114360, Note_off_c, 1, 52, 0
2, 114360, Note_off_c, 1, 61, 0
2, 114360, Note_off_c, 1, 67, 0
2, 114400, Note_on_c, 1, 45, 127
2, 114400, Note_on_c, 1, 52, 127
2, 114400, Note_on_c, 1, 61, 127
2, 114400, Note_on_c, 1, 67, 127
2, 114680, Note_off_c, 1, 45, 0
2, 114680, Note_off_c, 1, 52, 0
2, 114680, Note_off_c, 1, 61, 0
2, 114680, Note_off_c, 1, 67, 0
2, 114760, Note_on_c, 1, 49, 127
2, 114760, Note_on_c, 1, 54, 127
2, 114760, Note_on_c, 1, 93, 127
2, 114800, Note_off_c, 1, 49, 0
2, 114800, Note_on_c, 1, 52, 127
2, 114800, Note_off_c, 1, 54, 0
2, 114800, Note_on_c, 1, 55, 127
2, 114800, Note_on_c, 1, 58, 127
2, 114800, Note_on_c, 1, 60, 127
2, 114800, Note_on_c, 1, 82, 127
2, 114800, Note_on_c, 1, 86, 127
2, 114800, Note_off_c, 1, 93, 0
2, 114840, Note_off_c, 1, 52, 0
2, 114840, Note_off_c, 1, 55, 0
2, 114840, Note_off_c, 1, 58, 0
2, 114840, Note_off_c, 1, 60, 0
2, 114840, Note_on_c, 1, 61, 127
2, 114840, Note_on_c, 1, 73, 127
2, 114840, Note_off_c, 1, 82, 0
2, 114840, Note_on_c, 1, 85, 127
2, 114840, Note_off_c, 1, 86, 0
2, 114840, Note_on_c, 1, 88, 127
2, 114840, Note_on_c, 1, 93, 127
2, 114840, Note_on_c, 1, 97, 127
2, 114880, Note_on_c, 1, 33, 127
2, 114880, Note_on_c, 1, 45, 127
2, 114880, Note_on_c, 1, 49, 127
2, 114880, Note_on_c, 1, 52, 127
2, 114880, Note_on_c, 1, 57, 127
2, 114880, Note_off_c, 1, 61, 0
2, 114880, Note_on_c, 1, 64, 127
2, 114880, Note_on_c, 1, 69, 127
2, 114880, Note_on_c, 1, 76, 127
2, 114880, Note_on_c, 1, 81, 127
2, 114880, Note_off_c, 1, 85, 0
2, 114880, Note_off_c, 1, 88, 0
2, 114880, Note_off_c, 1, 93, 0
2, 114880, Note_off_c, 1, 97, 0
2, 114920, Note_off_c, 1, 33, 0
2, 114920, Note_on_c, 1, 38, 127
2, 114920, Note_on_c, 1, 43, 127
2, 114920, Note_off_c, 1, 45, 0
2, 114920, Note_off_c, 1, 49, 0
2, 114920, Note_on_c, 1, 50, 127
2, 114920, Note_off_c, 1, 52, 0
2, 114920, Note_off_c, 1, 57, 0
2, 114920, Note_off_c, 1, 64, 0
2, 114920, Note_off_c, 1, 69, 0
2, 114920, Note_off_c, 1, 73, 0
2, 114920, Note_off_c, 1, 76, 0
2, 114920, Note_off_c, 1, 81, 0
2, 114920, Note_on_c, 1, 83, 127
2, 114920, Note_on_c, 1, 89, 127
2, 114960, Note_off_c, 1, 38, 0
2, 114960, Note_off_c, 1, 43, 0
2, 114960, Note_off_c, 1, 50, 0
2, 114960, Note_on_c, 1, 51, 127
2, 114960, Note_on_c, 1, 55, 127
2, 114960, Note_on_c, 1, 61, 127
2, 114960, Note_on_c, 1, 63, 127
2, 114960, Note_on_c, 1, 75, 127
2, 114960, Note_off_c, 1, 83, 0
2, 114960, Note_off_c, 1, 89, 0
2, 115000, Note_off_c, 1, 51, 0
2, 115000, Note_off_c, 1, 55, 0
2, 115000, Note_off_c, 1, 61, 0
2, 115000, Note_off_c, 1, 63, 0
2, 115000, Note_off_c, 1, 75, 0
2, 115000, Note_on_c, 1, 82, 127
2, 115000, Note_on_c, 1, 94, 127
2, 115040, Note_on_c, 1, 65, 127
2, 115040, Note_off_c, 1, 82, 0
2, 115040, Note_on_c, 1, 89, 127
2, 115040, Note_on_c, 1, 90, 127
2, 115040, Note_off_c, 1, 94, 0
2, 115080, Note_on_c, 1, 64, 127
2, 115080, Note_off_c, 1, 65, 0
2, 115080, Note_on_c, 1, 73, 127
2, 115080, Note_on_c, 1, 81, 127
2, 115080, Note_on_c, 1, 85, 127
2, 115080, Note_off_c, 1, 89, 0
2, 115080, Note_off_c, 1, 90, 0
2, 115120, Note_off_c, 1, 64, 0
2, 115120, Note_on_c, 1, 68, 127
2, 115120, Note_off_c, 1, 73, 0
2, 115120, Note_off_c, 1, 81, 0
2, 115120, Note_on_c, 1, 82, 127
2, 115160, Note_on_c, 1, 66, 127
2, 115160, Note_off_c, 1, 68, 0
2, 115160, Note_on_c, 1, 73, 127
2, 115160, Note_off_c, 1, 82, 0
2, 115160, Note_off_c, 1, 85, 0
2, 115160, Note_on_c, 1, 88, 127
2, 115200, Note_off_c, 1, 66, 0
2, 115200, Note_on_c, 1, 70, 127
2, 115200, Note_off_c, 1, 73, 0
2, 115200, Note_on_c, 1, 74, 127
2, 115200, Note_on_c, 1, 79, 127
2, 115200, Note_on_c, 1, 82, 127
2, 115200, Note_on_c, 1, 86, 127
2, 115200, Note_off_c, 1, 88, 0
2, 115200, Note_on_c, 1, 91, 127
2, 115240, Note_on_c, 1, 62, 127
2, 115240, Note_on_c, 1, 64, 127
2, 115240, Note_on_c, 1, 69, 127
2, 115240, Note_off_c, 1, 70, 0
2, 115240, Note_off_c, 1, 74, 0
2, 115240, Note_on_c, 1, 76, 127
2, 115240, Note_off_c, 1, 79, 0
2, 115240, Note_on_c, 1, 81, 127
2, 115240, Note_off_c, 1, 82, 0
2, 115240, Note_off_c, 1, 86, 0
2, 115240, Note_off_c, 1, 91, 0
2, 115280, Note_on_c, 1, 60, 127
2, 115280, Note_off_c, 1, 62, 0
2, 115280, Note_off_c, 1, 64, 0
2, 115280, Note_on_c, 1, 66, 127
2, 115280, Note_off_c, 1, 69, 0
2, 115280, Note_on_c, 1, 74, 127
2, 115280, Note_off_c, 1, 76, 0
2, 115320, Note_off_c, 1, 60, 0
2, 115320, Note_off_c, 1, 66, 0
2, 115320, Note_off_c, 1, 74, 0
2, 115320, Note_off_c, 1, 81, 0
2, 115360, Note_on_c, 1, 54, 127
2, 115360, Note_on_c, 1, 57, 127
2, 115360, Note_on_c, 1, 62, 127
2, 115360, Note_on_c, 1, 66, 127
2, 115360, Note_on_c, 1, 69, 127
2, 115600, Note_off_c, 1, 54, 0
2, 115600, Note_off_c, 1, 57, 0
2, 115600, Note_off_c, 1, 62, 0
2, 115600, Note_off_c, 1, 66, 0
2, 115600, Note_off_c, 1, 69, 0
2, 115640, Note_on_c, 1, 42, 127
2, 115640, Note_on_c, 1, 54, 127
2, 115640, Note_on_c, 1, 62, 127
2, 115640, Note_on_c, 1, 66, 127
2, 115880, Note_off_c, 1, 42, 0
2, 115880, Note_off_c, 1, 54, 0
2, 115880, Note_off_c, 1, 62, 0
2, 115880, Note_off_c, 1, 66, 0
2, 115920, Note_on_c, 1, 35, 127
2, 115920, Note_on_c, 1, 47, 127
2, 115920, Note_on_c, 1, 59, 127
2, 115920, Note_on_c, 1, 62, 127
2, 115920, Note_on_c, 1, 66, 127
2, 116160, Note_off_c, 1, 35, 0
2, 116160, Note_off_c, 1, 47, 0
2, 116160, Note_off_c, 1, 59, 0
2, 116160, Note_off_c, 1, 62, 0
2, 116160, Note_off_c, 1, 66, 0
2, 116200, Note_on_c, 1, 42, 127
2, 116200, Note_on_c, 1, 52, 127
2, 116200, Note_on_c, 1, 54, 127
2, 116200, Note_on_c, 1, 71, 127
2, 116200, Note_on_c, 1, 83, 127
2, 116440, Note_off_c, 1, 42, 0
2, 116440, Note_off_c, 1, 52, 0
2, 116440, Note_off_c, 1, 54, 0
2, 116440, Note_off_c, 1, 71, 0
2, 116480, Note_off_c, 1, 83, 0
2, 116520, Note_on_c, 1, 45, 127
2, 116520, Note_on_c, 1, 52, 127
2, 116520, Note_on_c, 1, 61, 127
2, 116520, Note_on_c, 1, 79, 127
2, 116520, Note_on_c, 1, 81, 127
2, 116520, Note_on_c, 1, 93, 127
2, 116560, Note_off_c, 1, 79, 0
2, 116560, Note_off_c, 1, 81, 0
2, 116560, Note_off_c, 1, 93, 0
2, 116800, Note_on_c, 1, 44, 127
2, 116800, Note_off_c, 1, 45, 0
2, 116800, Note_on_c, 1, 51, 127
2, 116800, Note_off_c, 1, 52, 0
2, 116800, Note_on_c, 1, 60, 127
2, 116800, Note_off_c, 1, 61, 0
2, 116800, Note_on_c, 1, 80, 127
2, 116960, Note_off_c, 1, 44, 0
2, 116960, Note_off_c, 1, 51, 0
2, 116960, Note_off_c, 1, 60, 0
2, 116960, Note_off_c, 1, 80, 0
2, 117000, Note_on_c, 1, 44, 127
2, 117000, Note_on_c, 1, 51, 127
2, 117000, Note_on_c, 1, 60, 127
2, 117000, Note_on_c, 1, 80, 127
2, 117080, Note_on_c, 1, 41, 127
2, 117080, Note_off_c, 1, 44, 0
2, 117080, Note_off_c, 1, 51, 0
2, 117080, Note_off_c, 1, 60, 0
2, 117080, Note_on_c, 1, 63, 127
2, 117080, Note_on_c, 1, 65, 127
2, 117080, Note_on_c, 1, 67, 127
2, 117080, Note_on_c, 1, 69, 127
2, 117080, Note_off_c, 1, 80, 0
2, 117120, Note_off_c, 1, 41, 0
2, 117120, Note_off_c, 1, 63, 0
2, 117120, Note_off_c, 1, 65, 0
2, 117120, Note_off_c, 1, 67, 0
2, 117120, Note_off_c, 1, 69, 0
2, 117160, Note_on_c, 1, 55, 127
2, 117160, Note_on_c, 1, 69, 127
2, 117160, Note_on_c, 1, 75, 127
2, 117160, Note_on_c, 1, 77, 127
2, 117160, Note_on_c, 1, 81, 127
2, 117200, Note_on_c, 1, 43, 127
2, 117200, Note_on_c, 1, 49, 127
2, 117200, Note_off_c, 1, 55, 0
2, 117200, Note_on_c, 1, 57, 127
2, 117200, Note_off_c, 1, 69, 0
2, 117200, Note_off_c, 1, 75, 0
2, 117200, Note_off_c, 1, 77, 0
2, 117200, Note_off_c, 1, 81, 0
2, 117200, Note_on_c, 1, 88, 127
2, 117200, Note_on_c, 1, 97, 127
2, 117200, Note_on_c, 1, 100, 127
2, 117400, Note_off_c, 1, 49, 0
2, 117400, Note_on_c, 1, 52, 127
2, 117400, Note_off_c, 1, 57, 0
2, 117400, Note_off_c, 1, 88, 0
2, 117400, Note_off_c, 1, 97, 0
2, 117400, Note_off_c, 1, 100, 0
2, 117440, Note_on_c, 1, 39, 127
2, 117440, Note_off_c, 1, 43, 0
2, 117440, Note_off_c, 1, 52, 0
2, 117440, Note_on_c, 1, 69, 127
2, 117440, Note_on_c, 1, 75, 127
2, 117440, Note_on_c, 1, 77, 127
2, 117440, Note_on_c, 1, 81, 127
2, 117720, Note_off_c, 1, 39, 0
2, 117720, Note_off_c, 1, 69, 0
2, 117720, Note_off_c, 1, 75, 0
2, 117720, Note_off_c, 1, 77, 0
2, 117720, Note_off_c, 1, 81, 0
2, 117760, Note_on_c, 1, 52, 127
2, 117760, Note_on_c, 1, 55, 127
2, 117760, Note_on_c, 1, 57, 127
2, 117760, Note_on_c, 1, 61, 127
2, 117760, Note_on_c, 1, 88, 127
2, 118000, Note_off_c, 1, 52, 0
2, 118000, Note_off_c, 1, 55, 0
2, 118000, Note_off_c, 1, 57, 0
2, 118000, Note_off_c, 1, 61, 0
2, 118000, Note_off_c, 1, 88, 0
2, 118040, Note_on_c, 1, 43, 127
2, 118040, Note_on_c, 1, 49, 127
2, 118040, Note_on_c, 1, 67, 127
2, 118040, Note_on_c, 1, 71, 127
2, 118320, Note_off_c, 1, 49, 0
2, 118320, Note_on_c, 1, 50, 127
2, 118320, Note_off_c, 1, 67, 0
2, 118320, Note_off_c, 1, 71, 0
2, 118360, Note_off_c, 1, 43, 0
2, 118360, Note_off_c, 1, 50, 0
2, 118360, Note_on_c, 1, 52, 127
2, 118360, Note_on_c, 1, 66, 127
2, 118360, Note_on_c, 1, 69, 127
2, 118360, Note_on_c, 1, 71, 127
2, 118440, Note_off_c, 1, 52, 0
2, 118480, Note_on_c, 1, 52, 127
2, 118600, Note_off_c, 1, 52, 0
2, 118600, Note_off_c, 1, 66, 0
2, 118600, Note_off_c, 1, 69, 0
2, 118600, Note_off_c, 1, 71, 0
2, 118640, Note_on_c, 1, 52, 127
2, 118640, Note_on_c, 1, 66, 127
2, 118640, Note_on_c, 1, 69, 127
2, 118640, Note_on_c, 1, 78, 127
2, 118920, Note_off_c, 1, 52, 0
2, 118920, Note_off_c, 1, 66, 0
2, 118920, Note_on_c, 1, 73, 127
2, 118920, Note_off_c, 1, 78, 0
2, 118960, Note_on_c, 1, 52, 127
2, 118960, Note_on_c, 1, 66, 127
2, 118960, Note_off_c, 1, 73, 0
2, 118960, Note_on_c, 1, 78, 127
2, 119160, Note_off_c, 1, 52, 0
2, 119160, Note_off_c, 1, 66, 0
2, 119160, Note_off_c, 1, 69, 0
2, 119160, Note_off_c, 1, 78, 0
2, 119200, Note_on_c, 1, 52, 127
2, 119200, Note_on_c, 1, 66, 127
2, 119200, Note_on_c, 1, 69, 127
2, 119200, Note_on_c, 1, 78, 127
2, 119240, Note_off_c, 1, 52, 0
2, 119280, Note_on_c, 1, 52, 127
2, 119520, Note_off_c, 1, 52, 0
2, 119560, Note_off_c, 1, 66, 0
2, 119560, Note_off_c, 1, 69, 0
2, 119560, Note_off_c, 1, 78, 0
2, 119560, Note_on_c, 1, 81, 127
2, 119600, Note_on_c, 1, 49, 127
2, 119600, Note_on_c, 1, 88, 127
2, 119600, Note_on_c, 1, 91, 127
2, 119600, Note_on_c, 1, 93, 127
2, 119680, Note_off_c, 1, 49, 0
2, 119720, Note_on_c, 1, 49, 127
2, 119840, Note_off_c, 1, 49, 0
2, 119880, Note_on_c, 1, 57, 127
2, 119880, Note_on_c, 1, 59, 127
2, 119880, Note_on_c, 1, 63, 127
2, 119880, Note_on_c, 1, 66, 127
2, 119880, Note_on_c, 1, 71, 127
2, 119880, Note_on_c, 1, 78, 127
2, 119880, Note_off_c, 1, 81, 0
2, 119880, Note_on_c, 1, 83, 127
2, 119880, Note_off_c, 1, 88, 0
2, 119880, Note_off_c, 1, 91, 0
2, 119880, Note_off_c, 1, 93, 0
2, 120000, Note_off_c, 1, 57, 0
2, 120000, Note_off_c, 1, 59, 0
2, 120000, Note_off_c, 1, 63, 0
2, 120000, Note_off_c, 1, 66, 0
2, 120000, Note_off_c, 1, 71, 0
2, 120000, Note_off_c, 1, 78, 0
2, 120000, Note_off_c, 1, 83, 0
2, 120040, End_track
3, 0, Start_track
3, 0, Title_t, "MIDI"
3, 1536, End_track
0, 0, End_of_file
