0, 0, Header, 1, 3, 192
1, 0, Start_track
1, 0, Time_signature, 4, 2, 24, 8
1, 0, Tempo, 500000
1, 120040, End_track
2, 0, Start_track
2, 0, Text_t, "random instrument: random person i dunno whatev"
2, 0, Title_t, "Track 1"
2, 0, Note_on_c, 1, 40, 127
2, 0, Note_on_c, 1, 48, 127
2, 0, Note_on_c, 1, 56, 127
2, 0, Note_on_c, 1, 60, 127
2, 280, Note_off_c, 1, 40, 0
2, 280, Note_off_c, 1, 48, 0
2, 280, Note_off_c, 1, 56, 0
2, 280, Note_off_c, 1, 60, 0
2, 360, Note_on_c, 1, 57, 127
2, 360, Note_on_c, 1, 62, 127
2, 360, Note_on_c, 1, 65, 127
2, 360, Note_on_c, 1, 69, 127
2, 360, Note_on_c, 1, 88, 127
2, 720, Note_off_c, 1, 57, 0
2, 720, Note_on_c, 1, 59, 127
2, 720, Note_on_c, 1, 67, 127
2, 720, Note_off_c, 1, 69, 0
2, 720, Note_off_c, 1, 88, 0
2, 760, Note_on_c, 1, 52, 127
2, 760, Note_on_c, 1, 56, 127
2, 760, Note_off_c, 1, 59, 0
2, 760, Note_off_c, 1, 65, 0
2, 760, Note_off_c, 1, 67, 0
2, 760, Note_on_c, 1, 78, 127
2, 800, Note_on_c, 1, 50, 127
2, 800, Note_off_c, 1, 52, 0
2, 800, Note_off_c, 1, 56, 0
2, 800, Note_on_c, 1, 71, 127
2, 800, Note_on_c, 1, 74, 127
2, 800, Note_off_c, 1, 78, 0
2, 800, Note_on_c, 1, 83, 127
2, 840, Note_off_c, 1, 50, 0
2, 840, Note_on_c, 1, 54, 127
2, 840, Note_on_c, 1, 58, 127
2, 840, Note_off_c, 1, 62, 0
2, 840, Note_on_c, 1, 64, 127
2, 840, Note_on_c, 1, 66, 127
2, 840, Note_off_c, 1, 71, 0
2, 840, Note_off_c, 1, 74, 0
2, 840, Note_on_c, 1, 82, 127
2, 840, Note_off_c, 1, 83, 0
2, 880, Note_off_c, 1, 54, 0
2, 880, Note_on_c, 1, 57, 127
2, 880, Note_off_c, 1, 58, 0
2, 880, Note_on_c, 1, 62, 127
2, 880, Note_off_c, 1, 64, 0
2, 880, Note_on_c, 1, 65, 127
2, 880, Note_off_c, 1, 66, 0
2, 880, Note_on_c, 1, 69, 127
2, 880, Note_off_c, 1, 82, 0
2, 880, Note_on_c, 1, 88, 127
2, 920, Note_off_c, 1, 57, 0
2, 920, Note_off_c, 1, 62, 0
2, 920, Note_off_c, 1, 65, 0
2, 920, Note_off_c, 1, 69, 0
2, 920, Note_on_c, 1, 76, 127
2, 920, Note_on_c, 1, 77, 127
2, 920, Note_off_c, 1, 88, 0
2, 960, Note_on_c, 1, 40, 127
2, 960, Note_on_c, 1, 52, 127
2, 960, Note_on_c, 1, 59, 127
2, 960, Note_on_c, 1, 62, 127
2, 960, Note_on_c, 1, 68, 127
2, 960, Note_off_c, 1, 76, 0
2, 960, Note_off_c, 1, 77, 0
2, 960, Note_on_c, 1, 83, 127
2, 960, Note_on_c, 1, 86, 127
2, 1160, Note_on_c, 1, 80, 127
2, 1160, Note_off_c, 1, 86, 0
2, 1280, Note_off_c, 1, 80, 0
2, 1280, Note_on_c, 1, 86, 127
2, 1320, Note_on_c, 1, 80, 127
2, 1320, Note_off_c, 1, 86, 0
2, 1680, Note_off_c, 1, 80, 0
2, 1680, Note_off_c, 1, 83, 0
2, 1720, Note_on_c, 1, 77, 127
2, 1720, Note_on_c, 1, 80, 127
2, 1760, Note_off_c, 1, 77, 0
2, 1760, Note_off_c, 1, 80, 0
2, 1760, Note_on_c, 1, 83, 127
2, 1760, Note_on_c, 1, 86, 127
2, 1800, Note_on_c, 1, 80, 127
2, 1800, Note_off_c, 1, 86, 0
2, 1840, Note_on_c, 1, 77, 127
2, 1840, Note_off_c, 1, 83, 0
2, 2040, Note_off_c, 1, 77, 0
2, 2040, Note_off_c, 1, 80, 0
2, 2080, Note_on_c, 1, 77, 127
2, 2080, Note_on_c, 1, 80, 127
2, 2200, Note_off_c, 1, 77, 0
2, 2200, Note_off_c, 1, 80, 0
2, 2240, Note_on_c, 1, 74, 127
2, 2240, Note_on_c, 1, 77, 127
2, 2320, Note_off_c, 1, 40, 0
2, 2320, Note_off_c, 1, 52, 0
2, 2320, Note_off_c, 1, 59, 0
2, 2320, Note_off_c, 1, 62, 0
2, 2320, Note_off_c, 1, 68, 0
2, 2320, Note_off_c, 1, 74, 0
2, 2320, Note_off_c, 1, 77, 0
2, 2360, Note_on_c, 1, 40, 127
2, 2360, Note_on_c, 1, 52, 127
2, 2360, Note_on_c, 1, 59, 127
2, 2360, Note_on_c, 1, 62, 127
2, 2360, Note_on_c, 1, 68, 127
2, 2360, Note_on_c, 1, 74, 127
2, 2360, Note_on_c, 1, 77, 127
2, 3040, Note_off_c, 1, 40, 0
2, 3040, Note_off_c, 1, 52, 0
2, 3040, Note_off_c, 1, 59, 0
2, 3040, Note_off_c, 1, 62, 0
2, 3040, Note_off_c, 1, 68, 0
2, 3040, Note_off_c, 1, 74, 0
2, 3040, Note_off_c, 1, 77, 0
2, 3080, Note_on_c, 1, 57, 127
2, 3080, Note_on_c, 1, 64, 127
2, 3080, Note_on_c, 1, 67, 127
2, 3080, Note_on_c, 1, 69, 127
2, 3080, Note_on_c, 1, 73, 127
2, 4080, Note_off_c, 1, 69, 0
2, 4080, Note_off_c, 1, 73, 0
2, 4120, Note_on_c, 1, 69, 127
2, 4120, Note_on_c, 1, 73, 127
2, 4520, Note_off_c, 1, 57, 0
2, 4520, Note_off_c, 1, 64, 0
2, 4520, Note_off_c, 1, 67, 0
2, 4520, Note_off_c, 1, 69, 0
2, 4520, Note_off_c, 1, 73, 0
2, 4560, Note_on_c, 1, 57, 127
2, 4560, Note_on_c, 1, 64, 127
2, 4560, Note_on_c, 1, 67, 127
2, 4560, Note_on_c, 1, 69, 127
2, 4560, Note_on_c, 1, 73, 127
2, 4680, Note_off_c, 1, 57, 0
2, 4680, Note_off_c, 1, 64, 0
2, 4680, Note_off_c, 1, 73, 0
2, 4720, Note_on_c, 1, 57, 127
2, 4720, Note_on_c, 1, 64, 127
2, 6720, Note_off_c, 1, 57, 0
2, 6720, Note_off_c, 1, 64, 0
2, 6720, Note_off_c, 1, 67, 0
2, 6720, Note_off_c, 1, 69, 0
2, 6760, Note_on_c, 1, 62, 127
2, 6760, Note_on_c, 1, 66, 127
2, 6760, Note_on_c, 1, 69, 127
2, 6760, Note_on_c, 1, 74, 127
2, 7040, Note_off_c, 1, 62, 0
2, 7040, Note_off_c, 1, 66, 0
2, 7040, Note_off_c, 1, 69, 0
2, 7040, Note_off_c, 1, 74, 0
2, 7080, Note_on_c, 1, 62, 127
2, 7080, Note_on_c, 1, 66, 127
2, 7080, Note_on_c, 1, 69, 127
2, 7080, Note_on_c, 1, 74, 127
2, 9040, Note_off_c, 1, 62, 0
2, 9040, Note_off_c, 1, 66, 0
2, 9040, Note_off_c, 1, 69, 0
2, 9040, Note_off_c, 1, 74, 0
2, 13400, Note_on_c, 1, 37, 127
2, 13400, Note_on_c, 1, 49, 127
2, 15240, Note_off_c, 1, 37, 0
2, 15240, Note_off_c, 1, 49, 0
2, 15280, Note_on_c, 1, 37, 127
2, 15280, Note_on_c, 1, 49, 127
2, 19840, Note_on_c, 1, 36, 127
2, 19840, Note_off_c, 1, 37, 0
2, 19840, Note_on_c, 1, 48, 127
2, 19840, Note_off_c, 1, 49, 0
2, 19880, Note_off_c, 1, 36, 0
2, 19880, Note_on_c, 1, 37, 127
2, 19880, Note_off_c, 1, 48, 0
2, 19880, Note_on_c, 1, 49, 127
2, 21280, Note_off_c, 1, 37, 0
2, 21280, Note_off_c, 1, 49, 0
2, 28720, Note_on_c, 1, 58, 127
2, 28800, Note_off_c, 1, 58, 0
2, 30640, Note_on_c, 1, 43, 127
2, 32280, Note_on_c, 1, 50, 127
2, 33640, Note_off_c, 1, 43, 0
2, 33640, Note_off_c, 1, 50, 0
2, 34640, Note_on_c, 1, 43, 127
2, 34640, Note_on_c, 1, 55, 127
2, 35880, Note_off_c, 1, 43, 0
2, 35880, Note_off_c, 1, 55, 0
2, 35920, Note_on_c, 1, 40, 127
2, 35920, Note_on_c, 1, 52, 127
2, 36240, Note_off_c, 1, 40, 0
2, 36240, Note_off_c, 1, 52, 0
2, 36320, Note_on_c, 1, 36, 127
2, 36320, Note_on_c, 1, 48, 127
2, 37240, Note_off_c, 1, 36, 0
2, 37240, Note_off_c, 1, 48, 0
2, 37320, Note_on_c, 1, 36, 127
2, 37320, Note_on_c, 1, 48, 127
2, 37400, Note_off_c, 1, 36, 0
2, 37400, Note_off_c, 1, 48, 0
2, 38040, Note_on_c, 1, 40, 127
2, 38040, Note_on_c, 1, 52, 127
2, 38280, Note_off_c, 1, 40, 0
2, 38280, Note_off_c, 1, 52, 0
2, 38480, Note_on_c, 1, 33, 127
2, 38480, Note_on_c, 1, 45, 127
2, 40520, Note_off_c, 1, 33, 0
2, 40520, Note_off_c, 1, 45, 0
2, 40600, Note_on_c, 1, 33, 127
2, 40600, Note_on_c, 1, 45, 127
2, 42720, Note_off_c, 1, 33, 0
2, 42720, Note_off_c, 1, 45, 0
2, 42760, Note_on_c, 1, 33, 127
2, 42760, Note_on_c, 1, 45, 127
2, 43240, Note_off_c, 1, 33, 0
2, 43240, Note_off_c, 1, 45, 0
2, 45200, Note_on_c, 1, 58, 127
2, 45200, Note_on_c, 1, 62, 127
2, 45520, Note_off_c, 1, 58, 0
2, 45520, Note_off_c, 1, 62, 0
2, 45560, Note_on_c, 1, 57, 127
2, 45560, Note_on_c, 1, 61, 127
2, 45560, Note_on_c, 1, 64, 127
2, 45560, Note_on_c, 1, 69, 127
2, 45560, Note_on_c, 1, 102, 127
2, 45560, Note_on_c, 1, 103, 127
2, 45600, Note_on_c, 1, 47, 127
2, 45600, Note_off_c, 1, 57, 0
2, 45600, Note_on_c, 1, 59, 127
2, 45600, Note_off_c, 1, 61, 0
2, 45600, Note_off_c, 1, 64, 0
2, 45600, Note_on_c, 1, 67, 127
2, 45600, Note_off_c, 1, 69, 0
2, 45600, Note_on_c, 1, 71, 127
2, 45600, Note_on_c, 1, 76, 127
2, 45600, Note_off_c, 1, 102, 0
2, 45600, Note_off_c, 1, 103, 0
2, 47400, Note_off_c, 1, 47, 0
2, 47400, Note_off_c, 1, 59, 0
2, 47400, Note_off_c, 1, 67, 0
2, 47400, Note_off_c, 1, 71, 0
2, 47400, Note_off_c, 1, 76, 0
2, 47520, Note_on_c, 1, 48, 127
2, 47520, Note_on_c, 1, 60, 127
2, 47520, Note_on_c, 1, 78, 127
2, 47520, Note_on_c, 1, 81, 127
2, 47520, Note_on_c, 1, 87, 127
2, 47520, Note_on_c, 1, 90, 127
2, 48520, Note_off_c, 1, 48, 0
2, 48520, Note_off_c, 1, 60, 0
2, 48520, Note_off_c, 1, 78, 0
2, 48520, Note_off_c, 1, 81, 0
2, 48520, Note_off_c, 1, 87, 0
2, 48520, Note_off_c, 1, 90, 0
2, 48560, Note_on_c, 1, 48, 127
2, 48560, Note_on_c, 1, 60, 127
2, 48560, Note_on_c, 1, 78, 127
2, 48560, Note_on_c, 1, 81, 127
2, 48560, Note_on_c, 1, 87, 127
2, 48560, Note_on_c, 1, 90, 127
2, 48680, Note_off_c, 1, 48, 0
2, 48680, Note_off_c, 1, 60, 0
2, 48680, Note_off_c, 1, 78, 0
2, 48680, Note_off_c, 1, 81, 0
2, 48680, Note_off_c, 1, 87, 0
2, 48680, Note_off_c, 1, 90, 0
2, 49800, Note_on_c, 1, 31, 127
2, 49800, Note_on_c, 1, 43, 127
2, 49800, Note_on_c, 1, 55, 127
2, 49800, Note_on_c, 1, 67, 127
2, 52000, Note_off_c, 1, 31, 0
2, 52000, Note_off_c, 1, 43, 0
2, 52000, Note_off_c, 1, 55, 0
2, 52000, Note_off_c, 1, 67, 0
2, 52040, Note_on_c, 1, 31, 127
2, 52040, Note_on_c, 1, 43, 127
2, 52040, Note_on_c, 1, 55, 127
2, 52040, Note_on_c, 1, 67, 127
2, 54120, Note_off_c, 1, 31, 0
2, 54120, Note_off_c, 1, 43, 0
2, 54120, Note_off_c, 1, 55, 0
2, 54120, Note_off_c, 1, 67, 0
2, 55880, Note_on_c, 1, 39, 127
2, 58800, Note_off_c, 1, 39, 0
2, 58840, Note_on_c, 1, 39, 127
2, 59160, Note_off_c, 1, 39, 0
2, 59200, Note_on_c, 1, 39, 127
2, 60400, Note_off_c, 1, 39, 0
2, 60440, Note_on_c, 1, 39, 127
2, 61160, Note_off_c, 1, 39, 0
2, 61200, Note_on_c, 1, 43, 127
2, 61840, Note_off_c, 1, 43, 0
2, 61920, Note_on_c, 1, 36, 127
2, 62560, Note_off_c, 1, 36, 0
2, 62560, Note_on_c, 1, 48, 127
2, 62600, Note_on_c, 1, 36, 127
2, 62600, Note_off_c, 1, 48, 0
2, 63040, Note_off_c, 1, 36, 0
2, 66160, Note_on_c, 1, 55, 127
2, 66160, Note_on_c, 1, 59, 127
2, 66160, Note_on_c, 1, 67, 127
2, 66160, Note_on_c, 1, 76, 127
2, 66880, Note_off_c, 1, 55, 0
2, 66880, Note_off_c, 1, 59, 0
2, 66880, Note_off_c, 1, 67, 0
2, 66880, Note_off_c, 1, 76, 0
2, 66920, Note_on_c, 1, 76, 127
2, 67200, Note_on_c, 1, 52, 127
2, 67200, Note_off_c, 1, 76, 0
2, 67240, Note_off_c, 1, 52, 0
2, 67240, Note_on_c, 1, 76, 127
2, 67560, Note_off_c, 1, 76, 0
2, 67640, Note_on_c, 1, 76, 127
2, 67960, Note_off_c, 1, 76, 0
2, 68000, Note_on_c, 1, 50, 127
2, 68000, Note_on_c, 1, 74, 127
2, 68320, Note_off_c, 1, 50, 0
2, 68320, Note_off_c, 1, 74, 0
2, 68360, Note_on_c, 1, 55, 127
2, 68360, Note_on_c, 1, 72, 127
2, 68680, Note_off_c, 1, 55, 0
2, 68720, Note_on_c, 1, 64, 127
2, 69080, Note_off_c, 1, 64, 0
2, 69080, Note_off_c, 1, 72, 0
2, 69120, Note_on_c, 1, 62, 127
2, 69120, Note_on_c, 1, 71, 127
2, 69440, Note_off_c, 1, 62, 0
2, 69480, Note_on_c, 1, 59, 127
2, 69800, Note_off_c, 1, 59, 0
2, 69840, Note_on_c, 1, 62, 127
2, 70160, Note_off_c, 1, 71, 0
2, 70200, Note_off_c, 1, 62, 0
2, 70280, Note_on_c, 1, 45, 127
2, 70280, Note_on_c, 1, 72, 127
2, 70600, Note_off_c, 1, 45, 0
2, 70640, Note_on_c, 1, 52, 127
2, 71000, Note_off_c, 1, 52, 0
2, 71040, Note_on_c, 1, 50, 127
2, 71360, Note_off_c, 1, 50, 0
2, 71400, Note_on_c, 1, 57, 127
2, 71720, Note_off_c, 1, 57, 0
2, 71760, Note_on_c, 1, 55, 127
2, 72120, Note_off_c, 1, 55, 0
2, 72160, Note_on_c, 1, 60, 127
2, 72440, Note_off_c, 1, 60, 0
2, 72440, Note_off_c, 1, 72, 0
2, 72480, Note_on_c, 1, 60, 127
2, 72480, Note_on_c, 1, 72, 127
2, 72520, Note_off_c, 1, 60, 0
2, 72560, Note_on_c, 1, 66, 127
2, 72880, Note_off_c, 1, 66, 0
2, 72880, Note_off_c, 1, 72, 0
2, 72920, Note_on_c, 1, 41, 127
2, 72920, Note_on_c, 1, 76, 127
2, 72920, Note_on_c, 1, 81, 127
2, 73640, Note_off_c, 1, 41, 0
2, 73640, Note_off_c, 1, 76, 0
2, 73640, Note_off_c, 1, 81, 0
2, 73680, Note_on_c, 1, 50, 127
2, 73680, Note_on_c, 1, 69, 127
2, 73680, Note_on_c, 1, 80, 127
2, 74000, Note_on_c, 1, 78, 127
2, 74000, Note_off_c, 1, 80, 0
2, 74400, Note_off_c, 1, 50, 0
2, 74400, Note_off_c, 1, 69, 0
2, 74400, Note_off_c, 1, 78, 0
2, 74440, Note_on_c, 1, 61, 127
2, 74440, Note_on_c, 1, 67, 127
2, 74440, Note_on_c, 1, 69, 127
2, 74440, Note_on_c, 1, 73, 127
2, 74440, Note_on_c, 1, 78, 127
2, 74440, Note_on_c, 1, 81, 127
2, 74480, Note_off_c, 1, 61, 0
2, 74480, Note_off_c, 1, 67, 0
2, 74480, Note_off_c, 1, 69, 0
2, 74480, Note_off_c, 1, 73, 0
2, 74480, Note_off_c, 1, 78, 0
2, 74480, Note_off_c, 1, 81, 0
2, 74520, Note_on_c, 1, 33, 127
2, 74520, Note_on_c, 1, 52, 127
2, 74520, Note_on_c, 1, 79, 127
2, 74520, Note_on_c, 1, 82, 127
2, 74520, Note_on_c, 1, 88, 127
2, 74560, Note_off_c, 1, 33, 0
2, 74560, Note_on_c, 1, 45, 127
2, 74560, Note_on_c, 1, 49, 127
2, 74560, Note_on_c, 1, 57, 127
2, 74560, Note_on_c, 1, 74, 127
2, 74560, Note_off_c, 1, 79, 0
2, 74560, Note_off_c, 1, 82, 0
2, 74560, Note_off_c, 1, 88, 0
2, 74600, Note_on_c, 1, 43, 127
2, 74600, Note_off_c, 1, 45, 0
2, 74600, Note_off_c, 1, 49, 0
2, 74600, Note_on_c, 1, 50, 127
2, 74600, Note_off_c, 1, 52, 0
2, 74600, Note_on_c, 1, 55, 127
2, 74600, Note_off_c, 1, 57, 0
2, 74600, Note_on_c, 1, 59, 127
2, 74600, Note_off_c, 1, 74, 0
2, 74600, Note_on_c, 1, 95, 127
2, 74640, Note_off_c, 1, 43, 0
2, 74640, Note_off_c, 1, 50, 0
2, 74640, Note_off_c, 1, 55, 0
2, 74640, Note_on_c, 1, 73, 127
2, 74640, Note_on_c, 1, 78, 127
2, 74640, Note_on_c, 1, 81, 127
2, 74640, Note_on_c, 1, 85, 127
2, 74640, Note_off_c, 1, 95, 0
2, 74720, Note_on_c, 1, 55, 127
2, 74720, Note_on_c, 1, 58, 127
2, 74720, Note_off_c, 1, 59, 0
2, 74720, Note_on_c, 1, 62, 127
2, 74720, Note_on_c, 1, 67, 127
2, 74720, Note_on_c, 1, 70, 127
2, 74720, Note_off_c, 1, 73, 0
2, 74720, Note_off_c, 1, 78, 0
2, 74720, Note_off_c, 1, 81, 0
2, 74720, Note_off_c, 1, 85, 0
2, 74760, Note_on_c, 1, 52, 127
2, 74760, Note_off_c, 1, 55, 0
2, 74760, Note_off_c, 1, 58, 0
2, 74760, Note_on_c, 1, 61, 127
2, 74760, Note_off_c, 1, 62, 0
2, 74760, Note_off_c, 1, 70, 0
2, 74760, Note_on_c, 1, 76, 127
2, 74800, Note_off_c, 1, 52, 0
2, 74800, Note_off_c, 1, 61, 0
2, 74800, Note_off_c, 1, 67, 0
2, 74800, Note_off_c, 1, 76, 0
2, 74840, Note_on_c, 1, 70, 127
2, 74840, Note_on_c, 1, 78, 127
2, 75240, Note_on_c, 1, 54, 127
2, 75560, Note_off_c, 1, 54, 0
2, 75560, Note_off_c, 1, 70, 0
2, 75560, Note_off_c, 1, 78, 0
2, 75600, Note_on_c, 1, 50, 127
2, 75600, Note_on_c, 1, 66, 127
2, 75600, Note_on_c, 1, 69, 127
2, 75600, Note_on_c, 1, 78, 127
2, 76560, Note_off_c, 1, 50, 0
2, 76560, Note_off_c, 1, 66, 0
2, 76560, Note_off_c, 1, 69, 0
2, 76560, Note_off_c, 1, 78, 0
2, 76600, Note_on_c, 1, 50, 127
2, 76600, Note_on_c, 1, 66, 127
2, 76600, Note_on_c, 1, 69, 127
2, 76600, Note_on_c, 1, 78, 127
2, 76800, Note_on_c, 1, 57, 127
2, 76880, Note_off_c, 1, 57, 0
2, 77360, Note_on_c, 1, 57, 127
2, 77400, Note_off_c, 1, 57, 0
2, 77880, Note_off_c, 1, 66, 0
2, 77880, Note_off_c, 1, 69, 0
2, 77920, Note_on_c, 1, 66, 127
2, 77920, Note_on_c, 1, 69, 127
2, 78720, Note_off_c, 1, 50, 0
2, 78720, Note_off_c, 1, 66, 0
2, 78720, Note_off_c, 1, 69, 0
2, 78720, Note_off_c, 1, 78, 0
2, 78760, Note_on_c, 1, 50, 127
2, 78760, Note_on_c, 1, 57, 127
2, 78760, Note_on_c, 1, 66, 127
2, 78760, Note_on_c, 1, 76, 127
2, 79080, Note_off_c, 1, 50, 0
2, 79080, Note_off_c, 1, 57, 0
2, 79080, Note_off_c, 1, 66, 0
2, 79080, Note_off_c, 1, 76, 0
2, 79120, Note_on_c, 1, 57, 127
2, 79120, Note_on_c, 1, 66, 127
2, 79120, Note_on_c, 1, 74, 127
2, 80240, Note_on_c, 1, 64, 127
2, 80240, Note_off_c, 1, 66, 0
2, 80240, Note_on_c, 1, 67, 127
2, 80240, Note_off_c, 1, 74, 0
2, 80280, Note_off_c, 1, 67, 0
2, 80280, Note_on_c, 1, 73, 127
2, 81040, Note_off_c, 1, 57, 0
2, 81040, Note_off_c, 1, 64, 0
2, 81040, Note_off_c, 1, 73, 0
2, 81080, Note_on_c, 1, 57, 127
2, 81080, Note_on_c, 1, 64, 127
2, 81080, Note_on_c, 1, 73, 127
2, 81400, Note_off_c, 1, 57, 0
2, 81400, Note_off_c, 1, 64, 0
2, 81400, Note_off_c, 1, 73, 0
2, 81440, Note_on_c, 1, 49, 127
2, 81440, Note_on_c, 1, 54, 127
2, 81440, Note_on_c, 1, 59, 127
2, 81440, Note_on_c, 1, 61, 127
2, 81440, Note_on_c, 1, 68, 127
2, 81760, Note_off_c, 1, 54, 0
2, 81800, Note_on_c, 1, 54, 127
2, 82120, Note_off_c, 1, 54, 0
2, 82520, Note_off_c, 1, 49, 0
2, 82520, Note_off_c, 1, 59, 0
2, 82520, Note_off_c, 1, 61, 0
2, 82520, Note_off_c, 1, 68, 0
2, 82560, Note_on_c, 1, 54, 127
2, 82560, Note_on_c, 1, 66, 127
2, 82560, Note_on_c, 1, 68, 127
2, 83120, Note_off_c, 1, 54, 0
2, 83120, Note_off_c, 1, 66, 0
2, 83120, Note_off_c, 1, 68, 0
2, 83160, Note_on_c, 1, 54, 127
2, 83160, Note_on_c, 1, 66, 127
2, 83160, Note_on_c, 1, 68, 127
2, 83280, Note_off_c, 1, 54, 0
2, 83280, Note_off_c, 1, 66, 0
2, 83280, Note_off_c, 1, 68, 0
2, 83320, Note_on_c, 1, 54, 127
2, 83320, Note_on_c, 1, 65, 127
2, 83320, Note_on_c, 1, 70, 127
2, 84040, Note_off_c, 1, 65, 0
2, 84080, Note_on_c, 1, 63, 127
2, 84800, Note_off_c, 1, 63, 0
2, 84840, Note_on_c, 1, 63, 127
2, 85280, Note_off_c, 1, 54, 0
2, 85280, Note_off_c, 1, 63, 0
2, 85280, Note_off_c, 1, 70, 0
2, 85320, Note_on_c, 1, 54, 127
2, 85320, Note_on_c, 1, 63, 127
2, 85320, Note_on_c, 1, 70, 127
2, 86360, Note_off_c, 1, 70, 0
2, 86400, Note_on_c, 1, 72, 127
2, 86760, Note_off_c, 1, 72, 0
2, 86800, Note_on_c, 1, 72, 127
2, 87120, Note_off_c, 1, 63, 0
2, 87120, Note_off_c, 1, 72, 0
2, 87160, Note_on_c, 1, 61, 127
2, 87160, Note_on_c, 1, 70, 127
2, 87480, Note_off_c, 1, 54, 0
2, 87480, Note_off_c, 1, 61, 0
2, 87480, Note_off_c, 1, 70, 0
2, 87520, Note_on_c, 1, 54, 127
2, 87520, Note_on_c, 1, 61, 127
2, 87520, Note_on_c, 1, 70, 127
2, 89080, Note_off_c, 1, 54, 0
2, 89080, Note_off_c, 1, 61, 0
2, 89080, Note_off_c, 1, 70, 0
2, 89120, Note_on_c, 1, 47, 127
2, 89120, Note_on_c, 1, 62, 127
2, 89120, Note_on_c, 1, 71, 127
2, 89800, Note_off_c, 1, 47, 0
2, 89800, Note_off_c, 1, 62, 0
2, 89800, Note_off_c, 1, 71, 0
2, 89880, Note_on_c, 1, 57, 127
2, 89880, Note_on_c, 1, 66, 127
2, 89880, Note_on_c, 1, 74, 127
2, 91320, Note_off_c, 1, 57, 0
2, 91320, Note_off_c, 1, 66, 0
2, 91320, Note_off_c, 1, 74, 0
2, 91360, Note_on_c, 1, 50, 127
2, 91360, Note_on_c, 1, 55, 127
2, 91360, Note_on_c, 1, 71, 127
2, 91360, Note_on_c, 1, 74, 127
2, 91920, Note_off_c, 1, 50, 0
2, 91920, Note_off_c, 1, 55, 0
2, 91920, Note_off_c, 1, 71, 0
2, 91920, Note_off_c, 1, 74, 0
2, 91960, Note_on_c, 1, 50, 127
2, 91960, Note_on_c, 1, 55, 127
2, 91960, Note_on_c, 1, 71, 127
2, 91960, Note_on_c, 1, 74, 127
2, 92120, Note_off_c, 1, 55, 0
2, 92120, Note_off_c, 1, 71, 0
2, 92120, Note_off_c, 1, 74, 0
2, 92160, Note_off_c, 1, 50, 0
2, 92160, Note_on_c, 1, 79, 127
2, 92160, Note_on_c, 1, 82, 127
2, 92160, Note_on_c, 1, 88, 127
2, 92160, Note_on_c, 1, 100, 127
2, 92200, Note_on_c, 1, 45, 127
2, 92200, Note_on_c, 1, 52, 127
2, 92200, Note_off_c, 1, 79, 0
2, 92200, Note_off_c, 1, 82, 0
2, 92200, Note_on_c, 1, 83, 127
2, 92200, Note_off_c, 1, 88, 0
2, 92200, Note_on_c, 1, 91, 127
2, 92200, Note_on_c, 1, 95, 127
2, 92200, Note_off_c, 1, 100, 0
2, 92240, Note_off_c, 1, 45, 0
2, 92240, Note_off_c, 1, 52, 0
2, 92240, Note_on_c, 1, 60, 127
2, 92240, Note_on_c, 1, 64, 127
2, 92240, Note_on_c, 1, 72, 127
2, 92240, Note_off_c, 1, 91, 0
2, 92240, Note_off_c, 1, 95, 0
2, 92280, Note_off_c, 1, 60, 0
2, 92280, Note_off_c, 1, 64, 0
2, 92280, Note_on_c, 1, 70, 127
2, 92280, Note_off_c, 1, 72, 0
2, 92280, Note_on_c, 1, 73, 127
2, 92280, Note_off_c, 1, 83, 0
2, 92280, Note_on_c, 1, 87, 127
2, 92280, Note_on_c, 1, 94, 127
2, 92320, Note_on_c, 1, 62, 127
2, 92320, Note_on_c, 1, 66, 127
2, 92320, Note_off_c, 1, 70, 0
2, 92320, Note_on_c, 1, 72, 127
2, 92320, Note_off_c, 1, 73, 0
2, 92320, Note_on_c, 1, 76, 127
2, 92320, Note_off_c, 1, 87, 0
2, 92320, Note_on_c, 1, 88, 127
2, 92320, Note_off_c, 1, 94, 0
2, 92360, Note_off_c, 1, 62, 0
2, 92360, Note_off_c, 1, 66, 0
2, 92360, Note_on_c, 1, 69, 127
2, 92360, Note_off_c, 1, 72, 0
2, 92360, Note_on_c, 1, 75, 127
2, 92360, Note_off_c, 1, 76, 0
2, 92360, Note_on_c, 1, 78, 127
2, 92360, Note_on_c, 1, 87, 127
2, 92360, Note_off_c, 1, 88, 0
2, 92360, Note_on_c, 1, 90, 127
2, 92400, Note_on_c, 1, 60, 127
2, 92400, Note_on_c, 1, 64, 127
2, 92400, Note_off_c, 1, 75, 0
2, 92400, Note_off_c, 1, 78, 0
2, 92400, Note_off_c, 1, 87, 0
2, 92400, Note_off_c, 1, 90, 0
2, 92400, Note_on_c, 1, 95, 127
2, 92440, Note_off_c, 1, 60, 0
2, 92440, Note_on_c, 1, 62, 127
2, 92440, Note_off_c, 1, 64, 0
2, 92440, Note_on_c, 1, 73, 127
2, 92440, Note_on_c, 1, 78, 127
2, 92440, Note_off_c, 1, 95, 0
2, 92480, Note_on_c, 1, 57, 127
2, 92480, Note_off_c, 1, 62, 0
2, 92480, Note_off_c, 1, 73, 0
2, 92480, Note_off_c, 1, 78, 0
2, 92480, Note_on_c, 1, 85, 127
2, 92520, Note_on_c, 1, 78, 127
2, 92880, Note_off_c, 1, 57, 0
2, 92880, Note_off_c, 1, 69, 0
2, 92880, Note_off_c, 1, 78, 0
2, 92880, Note_off_c, 1, 85, 0
2, 92920, Note_on_c, 1, 57, 127
2, 92920, Note_on_c, 1, 61, 127
2, 92920, Note_on_c, 1, 88, 127
2, 93800, Note_off_c, 1, 57, 0
2, 93800, Note_off_c, 1, 61, 0
2, 93800, Note_off_c, 1, 88, 0
2, 93840, Note_on_c, 1, 57, 127
2, 93840, Note_on_c, 1, 61, 127
2, 93840, Note_on_c, 1, 88, 127
2, 95160, Note_off_c, 1, 61, 0
2, 95200, Note_on_c, 1, 62, 127
2, 95200, Note_on_c, 1, 86, 127
2, 95200, Note_off_c, 1, 88, 0
2, 95560, Note_off_c, 1, 57, 0
2, 95560, Note_on_c, 1, 64, 127
2, 95560, Note_on_c, 1, 83, 127
2, 95560, Note_off_c, 1, 86, 0
2, 95600, Note_off_c, 1, 62, 0
2, 95600, Note_on_c, 1, 67, 127
2, 95600, Note_on_c, 1, 81, 127
2, 95600, Note_off_c, 1, 83, 0
2, 95600, Note_on_c, 1, 84, 127
2, 95600, Note_on_c, 1, 90, 127
2, 95640, Note_on_c, 1, 63, 127
2, 95640, Note_off_c, 1, 64, 0
2, 95640, Note_on_c, 1, 66, 127
2, 95640, Note_off_c, 1, 67, 0
2, 95880, Note_off_c, 1, 63, 0
2, 95880, Note_off_c, 1, 66, 0
2, 95880, Note_off_c, 1, 81, 0
2, 95880, Note_off_c, 1, 84, 0
2, 95880, Note_off_c, 1, 90, 0
2, 95920, Note_on_c, 1, 63, 127
2, 95920, Note_on_c, 1, 66, 127
2, 95920, Note_on_c, 1, 81, 127
2, 95920, Note_on_c, 1, 84, 127
2, 95920, Note_on_c, 1, 90, 127
2, 95960, Note_on_c, 1, 57, 127
2, 95960, Note_off_c, 1, 63, 0
2, 95960, Note_off_c, 1, 66, 0
2, 95960, Note_off_c, 1, 81, 0
2, 95960, Note_off_c, 1, 84, 0
2, 95960, Note_off_c, 1, 90, 0
2, 96000, Note_off_c, 1, 57, 0
2, 96000, Note_on_c, 1, 62, 127
2, 96000, Note_on_c, 1, 67, 127
2, 96000, Note_on_c, 1, 69, 127
2, 96000, Note_on_c, 1, 74, 127
2, 96000, Note_on_c, 1, 91, 127
2, 96000, Note_on_c, 1, 96, 127
2, 96120, Note_on_c, 1, 84, 127
2, 96120, Note_off_c, 1, 91, 0
2, 96120, Note_off_c, 1, 96, 0
2, 96120, Note_on_c, 1, 98, 127
2, 96160, Note_off_c, 1, 84, 0
2, 96160, Note_off_c, 1, 98, 0
2, 96200, Note_on_c, 1, 84, 127
2, 96200, Note_on_c, 1, 98, 127
2, 96320, Note_off_c, 1, 84, 0
2, 96320, Note_off_c, 1, 98, 0
2, 96360, Note_on_c, 1, 91, 127
2, 96360, Note_on_c, 1, 96, 127
2, 96440, Note_off_c, 1, 91, 0
2, 96440, Note_off_c, 1, 96, 0
2, 96480, Note_on_c, 1, 84, 127
2, 96480, Note_on_c, 1, 98, 127
2, 96520, Note_off_c, 1, 84, 0
2, 96520, Note_off_c, 1, 98, 0
2, 96560, Note_on_c, 1, 84, 127
2, 96560, Note_on_c, 1, 98, 127
2, 96720, Note_off_c, 1, 84, 0
2, 96720, Note_off_c, 1, 98, 0
2, 96760, Note_on_c, 1, 91, 127
2, 96760, Note_on_c, 1, 96, 127
2, 96840, Note_off_c, 1, 91, 0
2, 96840, Note_off_c, 1, 96, 0
2, 96920, Note_on_c, 1, 84, 127
2, 96920, Note_on_c, 1, 98, 127
2, 97080, Note_off_c, 1, 84, 0
2, 97080, Note_off_c, 1, 98, 0
2, 97120, Note_on_c, 1, 91, 127
2, 97120, Note_on_c, 1, 96, 127
2, 97240, Note_off_c, 1, 91, 0
2, 97240, Note_off_c, 1, 96, 0
2, 97320, Note_on_c, 1, 84, 127
2, 97320, Note_on_c, 1, 98, 127
2, 97360, Note_off_c, 1, 84, 0
2, 97360, Note_off_c, 1, 98, 0
2, 97400, Note_on_c, 1, 84, 127
2, 97400, Note_on_c, 1, 98, 127
2, 97440, Note_off_c, 1, 84, 0
2, 97440, Note_off_c, 1, 98, 0
2, 97480, Note_on_c, 1, 84, 127
2, 97480, Note_on_c, 1, 98, 127
2, 97640, Note_off_c, 1, 84, 0
2, 97640, Note_off_c, 1, 98, 0
2, 97680, Note_on_c, 1, 84, 127
2, 97680, Note_on_c, 1, 98, 127
2, 97840, Note_off_c, 1, 84, 0
2, 97840, Note_off_c, 1, 98, 0
2, 97880, Note_off_c, 1, 62, 0
2, 97880, Note_off_c, 1, 67, 0
2, 97880, Note_off_c, 1, 69, 0
2, 97880, Note_off_c, 1, 74, 0
2, 97920, Note_on_c, 1, 62, 127
2, 97920, Note_on_c, 1, 67, 127
2, 97920, Note_on_c, 1, 69, 127
2, 97920, Note_on_c, 1, 74, 127
2, 97920, Note_on_c, 1, 84, 127
2, 97920, Note_on_c, 1, 98, 127
2, 98040, Note_off_c, 1, 84, 0
2, 98040, Note_off_c, 1, 98, 0
2, 98080, Note_on_c, 1, 84, 127
2, 98080, Note_on_c, 1, 98, 127
2, 98240, Note_off_c, 1, 84, 0
2, 98240, Note_off_c, 1, 98, 0
2, 98280, Note_on_c, 1, 84, 127
2, 98280, Note_on_c, 1, 98, 127
2, 98440, Note_off_c, 1, 84, 0
2, 98440, Note_off_c, 1, 98, 0
2, 98480, Note_on_c, 1, 84, 127
2, 98480, Note_on_c, 1, 98, 127
2, 98600, Note_off_c, 1, 84, 0
2, 98600, Note_off_c, 1, 98, 0
2, 98640, Note_on_c, 1, 84, 127
2, 98640, Note_on_c, 1, 98, 127
2, 98800, Note_off_c, 1, 84, 0
2, 98800, Note_off_c, 1, 98, 0
2, 98840, Note_on_c, 1, 84, 127
2, 98840, Note_on_c, 1, 98, 127
2, 99000, Note_off_c, 1, 84, 0
2, 99000, Note_off_c, 1, 98, 0
2, 99040, Note_on_c, 1, 84, 127
2, 99040, Note_on_c, 1, 98, 127
2, 99160, Note_off_c, 1, 84, 0
2, 99160, Note_off_c, 1, 98, 0
2, 99200, Note_on_c, 1, 84, 127
2, 99200, Note_on_c, 1, 98, 127
2, 99360, Note_off_c, 1, 84, 0
2, 99360, Note_off_c, 1, 98, 0
2, 99400, Note_on_c, 1, 84, 127
2, 99400, Note_on_c, 1, 98, 127
2, 99520, Note_off_c, 1, 84, 0
2, 99520, Note_off_c, 1, 98, 0
2, 99560, Note_on_c, 1, 84, 127
2, 99560, Note_on_c, 1, 98, 127
2, 99720, Note_off_c, 1, 84, 0
2, 99720, Note_off_c, 1, 98, 0
2, 99760, Note_on_c, 1, 84, 127
2, 99760, Note_on_c, 1, 98, 127
2, 99920, Note_off_c, 1, 84, 0
2, 99920, Note_off_c, 1, 98, 0
2, 99960, Note_on_c, 1, 84, 127
2, 99960, Note_on_c, 1, 98, 127
2, 100080, Note_off_c, 1, 84, 0
2, 100080, Note_off_c, 1, 98, 0
2, 100120, Note_off_c, 1, 62, 0
2, 100120, Note_off_c, 1, 67, 0
2, 100120, Note_off_c, 1, 69, 0
2, 100120, Note_off_c, 1, 74, 0
2, 100160, Note_on_c, 1, 62, 127
2, 100160, Note_on_c, 1, 67, 127
2, 100160, Note_on_c, 1, 69, 127
2, 100160, Note_on_c, 1, 74, 127
2, 100160, Note_on_c, 1, 91, 127
2, 100160, Note_on_c, 1, 93, 127
2, 100240, Note_off_c, 1, 91, 0
2, 100240, Note_off_c, 1, 93, 0
2, 100280, Note_on_c, 1, 84, 127
2, 100280, Note_on_c, 1, 98, 127
2, 100320, Note_off_c, 1, 84, 0
2, 100320, Note_off_c, 1, 98, 0
2, 100360, Note_on_c, 1, 84, 127
2, 100360, Note_on_c, 1, 98, 127
2, 100520, Note_off_c, 1, 84, 0
2, 100520, Note_off_c, 1, 98, 0
2, 100560, Note_on_c, 1, 43, 127
2, 100560, Note_on_c, 1, 50, 127
2, 100560, Note_on_c, 1, 53, 127
2, 100560, Note_on_c, 1, 55, 127
2, 100560, Note_off_c, 1, 62, 0
2, 100560, Note_off_c, 1, 67, 0
2, 100560, Note_off_c, 1, 69, 0
2, 100560, Note_off_c, 1, 74, 0
2, 100560, Note_on_c, 1, 77, 127
2, 100600, Note_off_c, 1, 43, 0
2, 100600, Note_off_c, 1, 50, 0
2, 100600, Note_on_c, 1, 52, 127
2, 100600, Note_off_c, 1, 53, 0
2, 100600, Note_off_c, 1, 55, 0
2, 100600, Note_on_c, 1, 61, 127
2, 100600, Note_on_c, 1, 64, 127
2, 100600, Note_on_c, 1, 68, 127
2, 100600, Note_on_c, 1, 71, 127
2, 100600, Note_on_c, 1, 76, 127
2, 100600, Note_off_c, 1, 77, 0
2, 100600, Note_on_c, 1, 80, 127
2, 100880, Note_off_c, 1, 52, 0
2, 100880, Note_off_c, 1, 61, 0
2, 100880, Note_off_c, 1, 64, 0
2, 100880, Note_off_c, 1, 68, 0
2, 100880, Note_off_c, 1, 71, 0
2, 100880, Note_off_c, 1, 76, 0
2, 100880, Note_off_c, 1, 80, 0
2, 100920, Note_on_c, 1, 45, 127
2, 101280, Note_off_c, 1, 45, 0
2, 101320, Note_on_c, 1, 45, 127
2, 101640, Note_off_c, 1, 45, 0
2, 101680, Note_on_c, 1, 54, 127
2, 101680, Note_on_c, 1, 57, 127
2, 101680, Note_on_c, 1, 62, 127
2, 101680, Note_on_c, 1, 74, 127
2, 102040, Note_off_c, 1, 74, 0
2, 102080, Note_on_c, 1, 76, 127
2, 102280, Note_off_c, 1, 76, 0
2, 102320, Note_on_c, 1, 76, 127
2, 102440, Note_off_c, 1, 54, 0
2, 102440, Note_off_c, 1, 57, 0
2, 102440, Note_off_c, 1, 62, 0
2, 102440, Note_off_c, 1, 76, 0
2, 102520, Note_on_c, 1, 35, 127
2, 102520, Note_on_c, 1, 59, 127
2, 102520, Note_on_c, 1, 63, 127
2, 102520, Note_on_c, 1, 75, 127
2, 102840, Note_off_c, 1, 59, 0
2, 102840, Note_off_c, 1, 63, 0
2, 102880, Note_on_c, 1, 66, 127
2, 103240, Note_off_c, 1, 35, 0
2, 103280, Note_on_c, 1, 35, 127
2, 103600, Note_off_c, 1, 35, 0
2, 103640, Note_on_c, 1, 35, 127
2, 104000, Note_off_c, 1, 35, 0
2, 104040, Note_on_c, 1, 35, 127
2, 104400, Note_off_c, 1, 35, 0
2, 104440, Note_on_c, 1, 35, 127
2, 104800, Note_off_c, 1, 35, 0
2, 104840, Note_off_c, 1, 66, 0
2, 104840, Note_off_c, 1, 75, 0
2, 104880, Note_on_c, 1, 35, 127
2, 104880, Note_on_c, 1, 66, 127
2, 104880, Note_on_c, 1, 75, 127
2, 105200, Note_off_c, 1, 66, 0
2, 105240, Note_on_c, 1, 66, 127
2, 105600, Note_off_c, 1, 35, 0
2, 105640, Note_on_c, 1, 45, 127
2, 105640, Note_on_c, 1, 52, 127
2, 105640, Note_on_c, 1, 57, 127
2, 105640, Note_on_c, 1, 61, 127
2, 105640, Note_off_c, 1, 66, 0
2, 105640, Note_on_c, 1, 69, 127
2, 105640, Note_on_c, 1, 73, 127
2, 105640, Note_off_c, 1, 75, 0
2, 105960, Note_off_c, 1, 45, 0
2, 105960, Note_off_c, 1, 52, 0
2, 105960, Note_off_c, 1, 57, 0
2, 105960, Note_off_c, 1, 61, 0
2, 105960, Note_off_c, 1, 69, 0
2, 105960, Note_off_c, 1, 73, 0
2, 106000, Note_on_c, 1, 59, 127
2, 106000, Note_on_c, 1, 63, 127
2, 106000, Note_on_c, 1, 69, 127
2, 106000, Note_on_c, 1, 75, 127
2, 106360, Note_off_c, 1, 59, 0
2, 106360, Note_off_c, 1, 63, 0
2, 106360, Note_off_c, 1, 69, 0
2, 106360, Note_off_c, 1, 75, 0
2, 106400, Note_on_c, 1, 66, 127
2, 106400, Note_on_c, 1, 70, 127
2, 106400, Note_on_c, 1, 78, 127
2, 106760, Note_off_c, 1, 66, 0
2, 106760, Note_off_c, 1, 70, 0
2, 106760, Note_off_c, 1, 78, 0
2, 106800, Note_on_c, 1, 64, 127
2, 106800, Note_on_c, 1, 68, 127
2, 106800, Note_on_c, 1, 74, 127
2, 107160, Note_off_c, 1, 64, 0
2, 107160, Note_off_c, 1, 68, 0
2, 107160, Note_off_c, 1, 74, 0
2, 107240, Note_on_c, 1, 73, 127
2, 107240, Note_on_c, 1, 76, 127
2, 107240, Note_on_c, 1, 88, 127
2, 107560, Note_off_c, 1, 73, 0
2, 107560, Note_off_c, 1, 76, 0
2, 107560, Note_off_c, 1, 88, 0
2, 107600, Note_on_c, 1, 73, 127
2, 107600, Note_on_c, 1, 76, 127
2, 107600, Note_on_c, 1, 88, 127
2, 107960, Note_off_c, 1, 73, 0
2, 107960, Note_off_c, 1, 76, 0
2, 107960, Note_off_c, 1, 88, 0
2, 108000, Note_on_c, 1, 71, 127
2, 108000, Note_on_c, 1, 74, 127
2, 108000, Note_on_c, 1, 86, 127
2, 108720, Note_off_c, 1, 71, 0
2, 108720, Note_off_c, 1, 74, 0
2, 108720, Note_off_c, 1, 86, 0
2, 108760, Note_on_c, 1, 71, 127
2, 108760, Note_on_c, 1, 74, 127
2, 108760, Note_on_c, 1, 85, 127
2, 109080, Note_off_c, 1, 85, 0
2, 109120, Note_on_c, 1, 85, 127
2, 109480, Note_off_c, 1, 85, 0
2, 109520, Note_on_c, 1, 83, 127
2, 109840, Note_off_c, 1, 71, 0
2, 109840, Note_off_c, 1, 74, 0
2, 109840, Note_off_c, 1, 83, 0
2, 109880, Note_on_c, 1, 71, 127
2, 109880, Note_on_c, 1, 74, 127
2, 109880, Note_on_c, 1, 83, 127
2, 109920, Note_off_c, 1, 71, 0
2, 109920, Note_off_c, 1, 74, 0
2, 109920, Note_off_c, 1, 83, 0
2, 109960, Note_on_c, 1, 63, 127
2, 109960, Note_on_c, 1, 69, 127
2, 109960, Note_on_c, 1, 78, 127
2, 110280, Note_off_c, 1, 63, 0
2, 110320, Note_on_c, 1, 66, 127
2, 110680, Note_off_c, 1, 66, 0
2, 110680, Note_off_c, 1, 69, 0
2, 110680, Note_off_c, 1, 78, 0
2, 110720, Note_on_c, 1, 63, 127
2, 110720, Note_on_c, 1, 69, 127
2, 110720, Note_on_c, 1, 78, 127
2, 111080, Note_off_c, 1, 63, 0
2, 111080, Note_off_c, 1, 69, 0
2, 111080, Note_off_c, 1, 78, 0
2, 111120, Note_on_c, 1, 59, 127
2, 111120, Note_on_c, 1, 66, 127
2, 111120, Note_on_c, 1, 69, 127
2, 111440, Note_off_c, 1, 59, 0
2, 111440, Note_off_c, 1, 66, 0
2, 111440, Note_off_c, 1, 69, 0
2, 111480, Note_on_c, 1, 57, 127
2, 111480, Note_on_c, 1, 64, 127
2, 111480, Note_on_c, 1, 68, 127
2, 111840, Note_off_c, 1, 57, 0
2, 111840, Note_off_c, 1, 64, 0
2, 111840, Note_off_c, 1, 68, 0
2, 111880, Note_on_c, 1, 58, 127
2, 111880, Note_on_c, 1, 64, 127
2, 111880, Note_on_c, 1, 67, 127
2, 112280, Note_off_c, 1, 58, 0
2, 112280, Note_off_c, 1, 64, 0
2, 112280, Note_off_c, 1, 67, 0
2, 112320, Note_on_c, 1, 58, 127
2, 112320, Note_on_c, 1, 64, 127
2, 112320, Note_on_c, 1, 67, 127
2, 112640, Note_off_c, 1, 58, 0
2, 112640, Note_off_c, 1, 64, 0
2, 112640, Note_off_c, 1, 67, 0
2, 112680, Note_on_c, 1, 59, 127
2, 112680, Note_on_c, 1, 64, 127
2, 112680, Note_on_c, 1, 67, 127
2, 113400, Note_off_c, 1, 59, 0
2, 113400, Note_off_c, 1, 64, 0
2, 113400, Note_off_c, 1, 67, 0
2, 113440, Note_on_c, 1, 59, 127
2, 113440, Note_on_c, 1, 63, 127
2, 113440, Note_on_c, 1, 66, 127
2, 114160, Note_off_c, 1, 59, 0
2, 114160, Note_off_c, 1, 63, 0
2, 114160, Note_off_c, 1, 66, 0
2, 114200, Note_on_c, 1, 59, 127
2, 114200, Note_on_c, 1, 63, 127
2, 114200, Note_on_c, 1, 66, 127
2, 114720, Note_off_c, 1, 59, 0
2, 114720, Note_off_c, 1, 63, 0
2, 114720, Note_off_c, 1, 66, 0
2, 114760, Note_on_c, 1, 59, 127
2, 114760, Note_on_c, 1, 63, 127
2, 114760, Note_on_c, 1, 66, 127
2, 114960, Note_off_c, 1, 63, 0
2, 114960, Note_off_c, 1, 66, 0
2, 115000, Note_off_c, 1, 59, 0
2, 115000, Note_on_c, 1, 61, 127
2, 115000, Note_on_c, 1, 64, 127
2, 115000, Note_on_c, 1, 68, 127
2, 115360, Note_on_c, 1, 59, 127
2, 115360, Note_off_c, 1, 61, 0
2, 115360, Note_off_c, 1, 64, 0
2, 115360, Note_off_c, 1, 68, 0
2, 115400, Note_on_c, 1, 63, 127
2, 115400, Note_on_c, 1, 66, 127
2, 115400, Note_on_c, 1, 71, 127
2, 115720, Note_off_c, 1, 71, 0
2, 115760, Note_on_c, 1, 71, 127
2, 116120, Note_off_c, 1, 59, 0
2, 116120, Note_off_c, 1, 63, 0
2, 116120, Note_off_c, 1, 66, 0
2, 116120, Note_off_c, 1, 71, 0
2, 116160, Note_on_c, 1, 59, 127
2, 116160, Note_on_c, 1, 71, 127
2, 116520, Note_off_c, 1, 59, 0
2, 116520, Note_off_c, 1, 71, 0
2, 116560, Note_on_c, 1, 56, 127
2, 116560, Note_on_c, 1, 61, 127
2, 116560, Note_on_c, 1, 64, 127
2, 116560, Note_on_c, 1, 68, 127
2, 116920, Note_off_c, 1, 56, 0
2, 116920, Note_off_c, 1, 61, 0
2, 116920, Note_off_c, 1, 64, 0
2, 116920, Note_off_c, 1, 68, 0
2, 116960, Note_on_c, 1, 56, 127
2, 116960, Note_on_c, 1, 61, 127
2, 116960, Note_on_c, 1, 64, 127
2, 116960, Note_on_c, 1, 68, 127
2, 117320, Note_off_c, 1, 56, 0
2, 117320, Note_off_c, 1, 61, 0
2, 117320, Note_off_c, 1, 64, 0
2, 117320, Note_off_c, 1, 68, 0
2, 117360, Note_on_c, 1, 59, 127
2, 117360, Note_on_c, 1, 71, 127
2, 117720, Note_off_c, 1, 59, 0
2, 117720, Note_off_c, 1, 71, 0
2, 117760, Note_on_c, 1, 59, 127
2, 117760, Note_on_c, 1, 71, 127
2, 118480, Note_off_c, 1, 59, 0
2, 118480, Note_off_c, 1, 71, 0
2, 118520, Note_on_c, 1, 63, 127
2, 118520, Note_on_c, 1, 75, 127
2, 118880, Note_off_c, 1, 63, 0
2, 118880, Note_off_c, 1, 75, 0
2, 118960, Note_on_c, 1, 64, 127
2, 118960, Note_on_c, 1, 76, 127
2, 119280, Note_off_c, 1, 64, 0
2, 119280, Note_off_c, 1, 76, 0
2, 119320, Note_on_c, 1, 67, 127
2, 119320, Note_on_c, 1, 79, 127
2, 120000, Note_off_c, 1, 67, 0
2, 120000, Note_off_c, 1, 79, 0
2, 120040, End_track
3, 0, Start_track
3, 0, Title_t, "MIDI"
3, 1536, End_track
0, 0, End_of_file
