0, 0, Header, 1, 3, 192
1, 0, Start_track
1, 0, Time_signature, 4, 2, 24, 8
1, 0, Tempo, 500000
1, 120040, End_track
2, 0, Start_track
2, 0, Text_t, "random instrument: random person i dunno whatev"
2, 0, Title_t, "Track 1"
2, 0, Note_on_c, 1, 40, 127
2, 0, Note_on_c, 1, 48, 127
2, 0, Note_on_c, 1, 56, 127
2, 0, Note_on_c, 1, 60, 127
2, 40, Note_off_c, 1, 40, 0
2, 40, Note_on_c, 1, 42, 127
2, 40, Note_off_c, 1, 48, 0
2, 40, Note_on_c, 1, 49, 127
2, 40, Note_on_c, 1, 54, 127
2, 40, Note_off_c, 1, 56, 0
2, 40, Note_off_c, 1, 60, 0
2, 40, Note_on_c, 1, 82, 127
2, 40, Note_on_c, 1, 88, 127
2, 40, Note_on_c, 1, 94, 127
2, 80, Note_off_c, 1, 42, 0
2, 80, Note_off_c, 1, 49, 0
2, 80, Note_on_c, 1, 52, 127
2, 80, Note_off_c, 1, 54, 0
2, 80, Note_on_c, 1, 57, 127
2, 80, Note_on_c, 1, 61, 127
2, 80, Note_on_c, 1, 64, 127
2, 80, Note_on_c, 1, 69, 127
2, 80, Note_on_c, 1, 73, 127
2, 80, Note_on_c, 1, 78, 127
2, 80, Note_off_c, 1, 82, 0
2, 80, Note_off_c, 1, 88, 0
2, 80, Note_off_c, 1, 94, 0
2, 120, Note_off_c, 1, 52, 0
2, 120, Note_off_c, 1, 57, 0
2, 120, Note_off_c, 1, 61, 0
2, 120, Note_off_c, 1, 64, 0
2, 120, Note_off_c, 1, 69, 0
2, 120, Note_off_c, 1, 73, 0
2, 120, Note_off_c, 1, 78, 0
2, 1280, Note_on_c, 1, 38, 127
2, 1280, Note_on_c, 1, 54, 127
2, 1280, Note_on_c, 1, 62, 127
2, 1520, Note_off_c, 1, 38, 0
2, 1520, Note_on_c, 1, 39, 127
2, 1520, Note_on_c, 1, 45, 127
2, 1520, Note_off_c, 1, 54, 0
2, 1520, Note_on_c, 1, 60, 127
2, 1520, Note_off_c, 1, 62, 0
2, 1520, Note_on_c, 1, 66, 127
2, 1520, Note_on_c, 1, 69, 127
2, 1560, Note_on_c, 1, 37, 127
2, 1560, Note_off_c, 1, 39, 0
2, 1560, Note_off_c, 1, 45, 0
2, 1560, Note_off_c, 1, 60, 0
2, 1560, Note_on_c, 1, 64, 127
2, 1560, Note_off_c, 1, 66, 0
2, 1560, Note_on_c, 1, 67, 127
2, 1560, Note_off_c, 1, 69, 0
2, 1560, Note_on_c, 1, 73, 127
2, 1720, Note_off_c, 1, 64, 0
2, 1720, Note_off_c, 1, 67, 0
2, 1720, Note_off_c, 1, 73, 0
2, 1840, Note_on_c, 1, 34, 127
2, 1840, Note_off_c, 1, 37, 0
2, 1840, Note_on_c, 1, 46, 127
2, 1840, Note_on_c, 1, 61, 127
2, 1840, Note_on_c, 1, 66, 127
2, 1840, Note_on_c, 1, 73, 127
2, 2000, Note_off_c, 1, 34, 0
2, 2000, Note_off_c, 1, 46, 0
2, 2000, Note_off_c, 1, 61, 0
2, 2000, Note_off_c, 1, 66, 0
2, 2000, Note_off_c, 1, 73, 0
2, 2040, Note_on_c, 1, 34, 127
2, 2040, Note_on_c, 1, 46, 127
2, 2040, Note_on_c, 1, 61, 127
2, 2040, Note_on_c, 1, 66, 127
2, 2040, Note_on_c, 1, 73, 127
2, 2400, Note_off_c, 1, 34, 0
2, 2400, Note_on_c, 1, 35, 127
2, 2400, Note_off_c, 1, 46, 0
2, 2400, Note_on_c, 1, 47, 127
2, 2400, Note_off_c, 1, 61, 0
2, 2400, Note_on_c, 1, 63, 127
2, 2400, Note_off_c, 1, 73, 0
2, 2400, Note_on_c, 1, 75, 127
2, 2440, Note_on_c, 1, 34, 127
2, 2440, Note_off_c, 1, 35, 0
2, 2440, Note_on_c, 1, 46, 127
2, 2440, Note_off_c, 1, 47, 0
2, 2440, Note_on_c, 1, 61, 127
2, 2440, Note_off_c, 1, 63, 0
2, 2440, Note_on_c, 1, 73, 127
2, 2440, Note_off_c, 1, 75, 0
2, 2480, Note_off_c, 1, 34, 0
2, 2480, Note_on_c, 1, 35, 127
2, 2480, Note_off_c, 1, 46, 0
2, 2480, Note_on_c, 1, 47, 127
2, 2480, Note_off_c, 1, 61, 0
2, 2480, Note_on_c, 1, 63, 127
2, 2480, Note_off_c, 1, 73, 0
2, 2480, Note_on_c, 1, 75, 127
2, 2600, Note_off_c, 1, 35, 0
2, 2600, Note_on_c, 1, 42, 127
2, 2600, Note_off_c, 1, 47, 0
2, 2600, Note_off_c, 1, 63, 0
2, 2600, Note_off_c, 1, 66, 0
2, 2600, Note_off_c, 1, 75, 0
2, 2640, Note_on_c, 1, 38, 127
2, 2640, Note_off_c, 1, 42, 0
2, 2640, Note_on_c, 1, 50, 127
2, 2640, Note_on_c, 1, 59, 127
2, 2640, Note_on_c, 1, 66, 127
2, 2800, Note_off_c, 1, 38, 0
2, 2800, Note_off_c, 1, 50, 0
2, 2800, Note_off_c, 1, 59, 0
2, 2800, Note_off_c, 1, 66, 0
2, 2840, Note_on_c, 1, 35, 127
2, 2840, Note_on_c, 1, 47, 127
2, 2840, Note_on_c, 1, 59, 127
2, 2840, Note_on_c, 1, 71, 127
2, 3200, Note_off_c, 1, 35, 0
2, 3200, Note_off_c, 1, 47, 0
2, 3200, Note_off_c, 1, 59, 0
2, 3200, Note_off_c, 1, 71, 0
2, 3240, Note_on_c, 1, 49, 127
2, 3240, Note_on_c, 1, 59, 127
2, 3240, Note_on_c, 1, 64, 127
2, 4000, Note_off_c, 1, 49, 0
2, 4000, Note_off_c, 1, 59, 0
2, 4000, Note_off_c, 1, 64, 0
2, 4040, Note_on_c, 1, 59, 127
2, 4080, Note_on_c, 1, 47, 127
2, 4080, Note_on_c, 1, 63, 127
2, 4080, Note_on_c, 1, 66, 127
2, 4440, Note_off_c, 1, 59, 0
2, 4440, Note_off_c, 1, 63, 0
2, 4440, Note_off_c, 1, 66, 0
2, 4480, Note_on_c, 1, 59, 127
2, 4480, Note_on_c, 1, 63, 127
2, 4480, Note_on_c, 1, 66, 127
2, 4640, Note_off_c, 1, 59, 0
2, 4640, Note_off_c, 1, 63, 0
2, 4680, Note_on_c, 1, 59, 127
2, 4680, Note_on_c, 1, 63, 127
2, 4840, Note_off_c, 1, 47, 0
2, 4840, Note_off_c, 1, 59, 0
2, 4840, Note_off_c, 1, 63, 0
2, 4840, Note_off_c, 1, 66, 0
2, 4880, Note_on_c, 1, 52, 127
2, 4880, Note_on_c, 1, 59, 127
2, 4880, Note_on_c, 1, 64, 127
2, 4880, Note_on_c, 1, 68, 127
2, 5040, Note_off_c, 1, 68, 0
2, 5080, Note_on_c, 1, 71, 127
2, 5240, Note_off_c, 1, 52, 0
2, 5240, Note_off_c, 1, 59, 0
2, 5240, Note_off_c, 1, 64, 0
2, 5240, Note_off_c, 1, 71, 0
2, 5280, Note_on_c, 1, 53, 127
2, 5280, Note_on_c, 1, 59, 127
2, 5280, Note_on_c, 1, 62, 127
2, 5280, Note_on_c, 1, 68, 127
2, 5280, Note_on_c, 1, 71, 127
2, 5640, Note_off_c, 1, 53, 0
2, 5640, Note_off_c, 1, 59, 0
2, 5640, Note_off_c, 1, 62, 0
2, 5640, Note_off_c, 1, 68, 0
2, 5640, Note_off_c, 1, 71, 0
2, 5680, Note_on_c, 1, 53, 127
2, 5680, Note_on_c, 1, 59, 127
2, 5680, Note_on_c, 1, 62, 127
2, 5680, Note_on_c, 1, 68, 127
2, 5680, Note_on_c, 1, 71, 127
2, 6040, Note_off_c, 1, 53, 0
2, 6040, Note_on_c, 1, 54, 127
2, 6040, Note_off_c, 1, 59, 0
2, 6040, Note_off_c, 1, 62, 0
2, 6040, Note_off_c, 1, 68, 0
2, 6040, Note_off_c, 1, 71, 0
2, 6080, Note_on_c, 1, 53, 127
2, 6080, Note_off_c, 1, 54, 0
2, 6080, Note_on_c, 1, 59, 127
2, 6080, Note_on_c, 1, 62, 127
2, 6080, Note_on_c, 1, 68, 127
2, 6080, Note_on_c, 1, 71, 127
2, 6240, Note_off_c, 1, 53, 0
2, 6240, Note_off_c, 1, 59, 0
2, 6240, Note_off_c, 1, 62, 0
2, 6240, Note_off_c, 1, 68, 0
2, 6240, Note_off_c, 1, 71, 0
2, 6280, Note_on_c, 1, 53, 127
2, 6280, Note_on_c, 1, 59, 127
2, 6280, Note_on_c, 1, 62, 127
2, 6280, Note_on_c, 1, 68, 127
2, 6280, Note_on_c, 1, 71, 127
2, 6480, Note_off_c, 1, 53, 0
2, 6480, Note_off_c, 1, 59, 0
2, 6480, Note_off_c, 1, 62, 0
2, 6480, Note_off_c, 1, 68, 0
2, 6480, Note_off_c, 1, 71, 0
2, 6520, Note_on_c, 1, 53, 127
2, 6520, Note_on_c, 1, 59, 127
2, 6520, Note_on_c, 1, 62, 127
2, 6520, Note_on_c, 1, 68, 127
2, 6520, Note_on_c, 1, 71, 127
2, 6880, Note_off_c, 1, 53, 0
2, 6880, Note_off_c, 1, 59, 0
2, 6880, Note_off_c, 1, 62, 0
2, 6880, Note_off_c, 1, 68, 0
2, 6880, Note_off_c, 1, 71, 0
2, 6920, Note_on_c, 1, 53, 127
2, 6920, Note_on_c, 1, 59, 127
2, 6920, Note_on_c, 1, 62, 127
2, 6920, Note_on_c, 1, 68, 127
2, 6920, Note_on_c, 1, 71, 127
2, 7280, Note_off_c, 1, 53, 0
2, 7280, Note_on_c, 1, 54, 127
2, 7280, Note_off_c, 1, 59, 0
2, 7280, Note_off_c, 1, 62, 0
2, 7280, Note_off_c, 1, 68, 0
2, 7280, Note_off_c, 1, 71, 0
2, 7320, Note_on_c, 1, 53, 127
2, 7320, Note_off_c, 1, 54, 0
2, 7320, Note_on_c, 1, 59, 127
2, 7320, Note_on_c, 1, 62, 127
2, 7320, Note_on_c, 1, 68, 127
2, 7320, Note_on_c, 1, 71, 127
2, 7680, Note_off_c, 1, 53, 0
2, 7680, Note_off_c, 1, 59, 0
2, 7680, Note_off_c, 1, 62, 0
2, 7680, Note_off_c, 1, 68, 0
2, 7680, Note_off_c, 1, 71, 0
2, 7720, Note_on_c, 1, 53, 127
2, 7720, Note_on_c, 1, 59, 127
2, 7720, Note_on_c, 1, 62, 127
2, 7720, Note_on_c, 1, 68, 127
2, 7720, Note_on_c, 1, 71, 127
2, 8080, Note_off_c, 1, 53, 0
2, 8080, Note_off_c, 1, 59, 0
2, 8080, Note_off_c, 1, 62, 0
2, 8080, Note_off_c, 1, 68, 0
2, 8080, Note_off_c, 1, 71, 0
2, 8120, Note_on_c, 1, 53, 127
2, 8120, Note_on_c, 1, 59, 127
2, 8120, Note_on_c, 1, 62, 127
2, 8120, Note_on_c, 1, 68, 127
2, 8120, Note_on_c, 1, 71, 127
2, 8360, Note_off_c, 1, 53, 0
2, 8360, Note_off_c, 1, 59, 0
2, 8360, Note_off_c, 1, 62, 0
2, 8360, Note_off_c, 1, 68, 0
2, 8360, Note_off_c, 1, 71, 0
2, 8400, Note_on_c, 1, 53, 127
2, 8400, Note_on_c, 1, 59, 127
2, 8400, Note_on_c, 1, 62, 127
2, 8400, Note_on_c, 1, 68, 127
2, 8400, Note_on_c, 1, 71, 127
2, 8520, Note_off_c, 1, 53, 0
2, 8520, Note_off_c, 1, 59, 0
2, 8520, Note_off_c, 1, 62, 0
2, 8520, Note_off_c, 1, 68, 0
2, 8520, Note_off_c, 1, 71, 0
2, 8560, Note_on_c, 1, 53, 127
2, 8560, Note_on_c, 1, 59, 127
2, 8560, Note_on_c, 1, 62, 127
2, 8560, Note_on_c, 1, 68, 127
2, 8560, Note_on_c, 1, 71, 127
2, 8920, Note_off_c, 1, 53, 0
2, 8920, Note_off_c, 1, 59, 0
2, 8920, Note_off_c, 1, 62, 0
2, 8920, Note_off_c, 1, 68, 0
2, 8920, Note_off_c, 1, 71, 0
2, 8960, Note_on_c, 1, 53, 127
2, 8960, Note_on_c, 1, 59, 127
2, 8960, Note_on_c, 1, 62, 127
2, 8960, Note_on_c, 1, 68, 127
2, 8960, Note_on_c, 1, 71, 127
2, 9320, Note_off_c, 1, 53, 0
2, 9320, Note_on_c, 1, 54, 127
2, 9320, Note_off_c, 1, 59, 0
2, 9320, Note_off_c, 1, 62, 0
2, 9320, Note_off_c, 1, 68, 0
2, 9320, Note_off_c, 1, 71, 0
2, 9360, Note_on_c, 1, 53, 127
2, 9360, Note_off_c, 1, 54, 0
2, 9360, Note_on_c, 1, 59, 127
2, 9360, Note_on_c, 1, 62, 127
2, 9360, Note_on_c, 1, 68, 127
2, 9360, Note_on_c, 1, 71, 127
2, 9720, Note_off_c, 1, 53, 0
2, 9720, Note_off_c, 1, 59, 0
2, 9720, Note_off_c, 1, 62, 0
2, 9720, Note_off_c, 1, 68, 0
2, 9720, Note_off_c, 1, 71, 0
2, 9760, Note_on_c, 1, 53, 127
2, 9760, Note_on_c, 1, 59, 127
2, 9760, Note_on_c, 1, 62, 127
2, 9760, Note_on_c, 1, 68, 127
2, 9760, Note_on_c, 1, 71, 127
2, 10120, Note_off_c, 1, 53, 0
2, 10120, Note_off_c, 1, 59, 0
2, 10120, Note_off_c, 1, 62, 0
2, 10120, Note_off_c, 1, 68, 0
2, 10120, Note_off_c, 1, 71, 0
2, 10160, Note_on_c, 1, 53, 127
2, 10160, Note_on_c, 1, 59, 127
2, 10160, Note_on_c, 1, 62, 127
2, 10160, Note_on_c, 1, 68, 127
2, 10160, Note_on_c, 1, 71, 127
2, 10520, Note_off_c, 1, 53, 0
2, 10520, Note_on_c, 1, 54, 127
2, 10520, Note_off_c, 1, 59, 0
2, 10520, Note_off_c, 1, 62, 0
2, 10520, Note_off_c, 1, 68, 0
2, 10520, Note_off_c, 1, 71, 0
2, 10560, Note_off_c, 1, 54, 0
2, 10600, Note_on_c, 1, 53, 127
2, 10600, Note_on_c, 1, 59, 127
2, 10600, Note_on_c, 1, 62, 127
2, 10600, Note_on_c, 1, 68, 127
2, 10600, Note_on_c, 1, 71, 127
2, 10960, Note_off_c, 1, 53, 0
2, 10960, Note_on_c, 1, 54, 127
2, 10960, Note_off_c, 1, 59, 0
2, 10960, Note_off_c, 1, 62, 0
2, 10960, Note_off_c, 1, 68, 0
2, 10960, Note_off_c, 1, 71, 0
2, 11000, Note_on_c, 1, 53, 127
2, 11000, Note_off_c, 1, 54, 0
2, 11000, Note_on_c, 1, 59, 127
2, 11000, Note_on_c, 1, 62, 127
2, 11000, Note_on_c, 1, 68, 127
2, 11000, Note_on_c, 1, 71, 127
2, 11360, Note_off_c, 1, 53, 0
2, 11360, Note_off_c, 1, 59, 0
2, 11360, Note_off_c, 1, 62, 0
2, 11360, Note_off_c, 1, 68, 0
2, 11360, Note_off_c, 1, 71, 0
2, 11400, Note_on_c, 1, 53, 127
2, 11400, Note_on_c, 1, 59, 127
2, 11400, Note_on_c, 1, 62, 127
2, 11400, Note_on_c, 1, 68, 127
2, 11400, Note_on_c, 1, 71, 127
2, 11760, Note_off_c, 1, 53, 0
2, 11760, Note_on_c, 1, 54, 127
2, 11760, Note_off_c, 1, 59, 0
2, 11760, Note_off_c, 1, 62, 0
2, 11760, Note_off_c, 1, 68, 0
2, 11760, Note_off_c, 1, 71, 0
2, 11800, Note_on_c, 1, 53, 127
2, 11800, Note_off_c, 1, 54, 0
2, 11800, Note_on_c, 1, 59, 127
2, 11800, Note_on_c, 1, 62, 127
2, 11800, Note_on_c, 1, 68, 127
2, 11800, Note_on_c, 1, 71, 127
2, 12160, Note_off_c, 1, 53, 0
2, 12160, Note_off_c, 1, 59, 0
2, 12160, Note_off_c, 1, 62, 0
2, 12160, Note_off_c, 1, 68, 0
2, 12160, Note_off_c, 1, 71, 0
2, 12200, Note_on_c, 1, 53, 127
2, 12200, Note_on_c, 1, 59, 127
2, 12200, Note_on_c, 1, 62, 127
2, 12200, Note_on_c, 1, 68, 127
2, 12200, Note_on_c, 1, 71, 127
2, 12560, Note_off_c, 1, 53, 0
2, 12560, Note_off_c, 1, 59, 0
2, 12560, Note_off_c, 1, 62, 0
2, 12560, Note_off_c, 1, 68, 0
2, 12560, Note_off_c, 1, 71, 0
2, 12640, Note_on_c, 1, 53, 127
2, 12640, Note_on_c, 1, 59, 127
2, 12640, Note_on_c, 1, 62, 127
2, 12640, Note_on_c, 1, 68, 127
2, 12640, Note_on_c, 1, 71, 127
2, 13000, Note_off_c, 1, 53, 0
2, 13000, Note_on_c, 1, 54, 127
2, 13000, Note_off_c, 1, 59, 0
2, 13000, Note_off_c, 1, 62, 0
2, 13000, Note_off_c, 1, 68, 0
2, 13000, Note_off_c, 1, 71, 0
2, 13040, Note_on_c, 1, 53, 127
2, 13040, Note_off_c, 1, 54, 0
2, 13040, Note_on_c, 1, 59, 127
2, 13040, Note_on_c, 1, 62, 127
2, 13040, Note_on_c, 1, 68, 127
2, 13040, Note_on_c, 1, 71, 127
2, 13400, Note_off_c, 1, 53, 0
2, 13400, Note_off_c, 1, 59, 0
2, 13400, Note_off_c, 1, 62, 0
2, 13400, Note_off_c, 1, 68, 0
2, 13400, Note_off_c, 1, 71, 0
2, 13440, Note_on_c, 1, 53, 127
2, 13440, Note_on_c, 1, 59, 127
2, 13440, Note_on_c, 1, 62, 127
2, 13440, Note_on_c, 1, 68, 127
2, 13440, Note_on_c, 1, 71, 127
2, 13800, Note_off_c, 1, 53, 0
2, 13800, Note_off_c, 1, 62, 0
2, 13800, Note_off_c, 1, 68, 0
2, 13800, Note_off_c, 1, 71, 0
2, 13840, Note_on_c, 1, 53, 127
2, 13840, Note_on_c, 1, 62, 127
2, 13840, Note_on_c, 1, 68, 127
2, 13840, Note_on_c, 1, 71, 127
2, 14200, Note_off_c, 1, 53, 0
2, 14200, Note_off_c, 1, 59, 0
2, 14200, Note_off_c, 1, 62, 0
2, 14200, Note_off_c, 1, 68, 0
2, 14200, Note_off_c, 1, 71, 0
2, 14240, Note_on_c, 1, 53, 127
2, 14240, Note_on_c, 1, 59, 127
2, 14240, Note_on_c, 1, 62, 127
2, 14240, Note_on_c, 1, 68, 127
2, 14240, Note_on_c, 1, 71, 127
2, 14600, Note_off_c, 1, 53, 0
2, 14600, Note_on_c, 1, 54, 127
2, 14600, Note_off_c, 1, 59, 0
2, 14600, Note_off_c, 1, 62, 0
2, 14600, Note_off_c, 1, 68, 0
2, 14600, Note_off_c, 1, 71, 0
2, 14640, Note_off_c, 1, 54, 0
2, 14680, Note_on_c, 1, 53, 127
2, 14680, Note_on_c, 1, 59, 127
2, 14680, Note_on_c, 1, 62, 127
2, 14680, Note_on_c, 1, 68, 127
2, 14680, Note_on_c, 1, 71, 127
2, 15040, Note_off_c, 1, 53, 0
2, 15040, Note_off_c, 1, 59, 0
2, 15040, Note_off_c, 1, 62, 0
2, 15040, Note_off_c, 1, 68, 0
2, 15040, Note_off_c, 1, 71, 0
2, 15080, Note_on_c, 1, 53, 127
2, 15080, Note_on_c, 1, 59, 127
2, 15080, Note_on_c, 1, 62, 127
2, 15080, Note_on_c, 1, 68, 127
2, 15080, Note_on_c, 1, 71, 127
2, 15440, Note_off_c, 1, 53, 0
2, 15440, Note_on_c, 1, 54, 127
2, 15440, Note_off_c, 1, 59, 0
2, 15440, Note_off_c, 1, 62, 0
2, 15440, Note_off_c, 1, 68, 0
2, 15440, Note_off_c, 1, 71, 0
2, 15480, Note_on_c, 1, 53, 127
2, 15480, Note_off_c, 1, 54, 0
2, 15480, Note_on_c, 1, 59, 127
2, 15480, Note_on_c, 1, 62, 127
2, 15480, Note_on_c, 1, 68, 127
2, 15480, Note_on_c, 1, 71, 127
2, 15840, Note_off_c, 1, 53, 0
2, 15840, Note_off_c, 1, 59, 0
2, 15840, Note_off_c, 1, 62, 0
2, 15840, Note_off_c, 1, 68, 0
2, 15840, Note_off_c, 1, 71, 0
2, 15880, Note_on_c, 1, 59, 127
2, 15880, Note_on_c, 1, 64, 127
2, 15880, Note_on_c, 1, 68, 127
2, 15880, Note_on_c, 1, 71, 127
2, 16240, Note_off_c, 1, 59, 0
2, 16240, Note_off_c, 1, 64, 0
2, 16240, Note_off_c, 1, 68, 0
2, 16240, Note_off_c, 1, 71, 0
2, 16280, Note_on_c, 1, 63, 127
2, 16280, Note_on_c, 1, 66, 127
2, 16280, Note_on_c, 1, 71, 127
2, 16280, Note_on_c, 1, 75, 127
2, 16640, Note_on_c, 1, 54, 127
2, 16640, Note_off_c, 1, 63, 0
2, 16640, Note_off_c, 1, 66, 0
2, 16640, Note_off_c, 1, 71, 0
2, 16640, Note_off_c, 1, 75, 0
2, 16680, Note_off_c, 1, 54, 0
2, 16720, Note_on_c, 1, 54, 127
2, 16720, Note_on_c, 1, 61, 127
2, 16720, Note_on_c, 1, 66, 127
2, 16720, Note_on_c, 1, 70, 127
2, 17080, Note_off_c, 1, 54, 0
2, 17080, Note_off_c, 1, 61, 0
2, 17080, Note_off_c, 1, 66, 0
2, 17080, Note_off_c, 1, 70, 0
2, 17120, Note_on_c, 1, 59, 127
2, 17120, Note_on_c, 1, 63, 127
2, 17120, Note_on_c, 1, 68, 127
2, 17120, Note_on_c, 1, 82, 127
2, 17280, Note_off_c, 1, 82, 0
2, 17320, Note_on_c, 1, 80, 127
2, 17480, Note_off_c, 1, 59, 0
2, 17480, Note_off_c, 1, 63, 0
2, 17480, Note_off_c, 1, 68, 0
2, 17480, Note_off_c, 1, 80, 0
2, 17520, Note_on_c, 1, 52, 127
2, 17520, Note_on_c, 1, 82, 127
2, 17880, Note_off_c, 1, 52, 0
2, 17920, Note_on_c, 1, 59, 127
2, 17920, Note_on_c, 1, 63, 127
2, 17920, Note_on_c, 1, 66, 127
2, 17920, Note_on_c, 1, 81, 127
2, 17920, Note_off_c, 1, 82, 0
2, 18240, Note_off_c, 1, 81, 0
2, 18280, Note_off_c, 1, 59, 0
2, 18280, Note_off_c, 1, 63, 0
2, 18280, Note_off_c, 1, 66, 0
2, 18320, Note_on_c, 1, 59, 127
2, 18320, Note_on_c, 1, 63, 127
2, 18320, Note_on_c, 1, 66, 127
2, 18320, Note_on_c, 1, 90, 127
2, 18680, Note_on_c, 1, 51, 127
2, 18680, Note_off_c, 1, 59, 0
2, 18680, Note_off_c, 1, 66, 0
2, 18680, Note_off_c, 1, 90, 0
2, 18720, Note_off_c, 1, 51, 0
2, 18720, Note_off_c, 1, 63, 0
2, 18760, Note_on_c, 1, 42, 127
2, 18760, Note_on_c, 1, 54, 127
2, 18760, Note_on_c, 1, 61, 127
2, 18760, Note_on_c, 1, 76, 127
2, 18760, Note_on_c, 1, 88, 127
2, 19080, Note_off_c, 1, 42, 0
2, 19080, Note_off_c, 1, 54, 0
2, 19080, Note_off_c, 1, 61, 0
2, 19080, Note_off_c, 1, 76, 0
2, 19080, Note_off_c, 1, 88, 0
2, 19120, Note_on_c, 1, 59, 127
2, 19120, Note_on_c, 1, 63, 127
2, 19120, Note_on_c, 1, 71, 127
2, 19920, Note_off_c, 1, 63, 0
2, 19960, Note_on_c, 1, 63, 127
2, 20320, Note_off_c, 1, 59, 0
2, 20320, Note_off_c, 1, 63, 0
2, 20320, Note_off_c, 1, 71, 0
2, 20360, Note_on_c, 1, 47, 127
2, 20520, Note_off_c, 1, 47, 0
2, 21600, Note_on_c, 1, 52, 127
2, 21600, Note_on_c, 1, 64, 127
2, 22720, Note_off_c, 1, 52, 0
2, 22720, Note_off_c, 1, 64, 0
2, 22760, Note_on_c, 1, 49, 127
2, 22760, Note_on_c, 1, 61, 127
2, 22960, Note_off_c, 1, 49, 0
2, 22960, Note_off_c, 1, 61, 0
2, 23000, Note_on_c, 1, 49, 127
2, 23000, Note_on_c, 1, 61, 127
2, 23520, Note_off_c, 1, 49, 0
2, 23520, Note_off_c, 1, 61, 0
2, 23560, Note_on_c, 1, 39, 127
2, 23560, Note_on_c, 1, 51, 127
2, 23560, Note_on_c, 1, 63, 127
2, 23920, Note_off_c, 1, 39, 0
2, 23960, Note_on_c, 1, 39, 127
2, 24320, Note_off_c, 1, 39, 0
2, 24320, Note_off_c, 1, 51, 0
2, 24320, Note_off_c, 1, 63, 0
2, 24360, Note_on_c, 1, 57, 127
2, 24720, Note_off_c, 1, 57, 0
2, 24760, Note_on_c, 1, 51, 127
2, 25280, Note_off_c, 1, 51, 0
2, 25320, Note_on_c, 1, 51, 127
2, 25560, Note_off_c, 1, 51, 0
2, 25600, Note_on_c, 1, 57, 127
2, 25960, Note_off_c, 1, 57, 0
2, 26000, Note_on_c, 1, 54, 127
2, 26360, Note_off_c, 1, 54, 0
2, 26400, Note_on_c, 1, 49, 127
2, 26760, Note_off_c, 1, 49, 0
2, 26800, Note_on_c, 1, 52, 127
2, 27160, Note_off_c, 1, 52, 0
2, 27200, Note_on_c, 1, 54, 127
2, 27560, Note_off_c, 1, 54, 0
2, 27640, Note_on_c, 1, 57, 127
2, 27960, Note_off_c, 1, 57, 0
2, 28000, Note_on_c, 1, 51, 127
2, 28360, Note_off_c, 1, 51, 0
2, 28400, Note_on_c, 1, 52, 127
2, 28760, Note_off_c, 1, 52, 0
2, 28800, Note_on_c, 1, 54, 127
2, 29160, Note_off_c, 1, 54, 0
2, 29200, Note_on_c, 1, 52, 127
2, 29520, Note_off_c, 1, 52, 0
2, 29560, Note_on_c, 1, 54, 127
2, 29920, Note_off_c, 1, 54, 0
2, 30000, Note_on_c, 1, 54, 127
2, 30360, Note_off_c, 1, 54, 0
2, 30400, Note_on_c, 1, 54, 127
2, 30760, Note_off_c, 1, 54, 0
2, 30800, Note_on_c, 1, 55, 127
2, 31160, Note_off_c, 1, 55, 0
2, 31200, Note_on_c, 1, 59, 127
2, 31520, Note_off_c, 1, 59, 0
2, 31560, Note_on_c, 1, 58, 127
2, 31920, Note_off_c, 1, 58, 0
2, 31960, Note_on_c, 1, 57, 127
2, 32160, Note_off_c, 1, 57, 0
2, 32200, Note_on_c, 1, 57, 127
2, 32360, Note_off_c, 1, 57, 0
2, 32400, Note_on_c, 1, 52, 127
2, 32720, Note_off_c, 1, 52, 0
2, 32760, Note_on_c, 1, 58, 127
2, 33120, Note_off_c, 1, 58, 0
2, 33160, Note_on_c, 1, 61, 127
2, 33520, Note_off_c, 1, 61, 0
2, 33560, Note_on_c, 1, 59, 127
2, 33920, Note_off_c, 1, 59, 0
2, 33960, Note_on_c, 1, 60, 127
2, 34320, Note_off_c, 1, 60, 0
2, 34360, Note_on_c, 1, 58, 127
2, 34480, Note_off_c, 1, 58, 0
2, 34520, Note_on_c, 1, 58, 127
2, 34560, Note_off_c, 1, 58, 0
2, 34600, Note_on_c, 1, 57, 127
2, 34760, Note_off_c, 1, 57, 0
2, 34800, Note_on_c, 1, 59, 127
2, 35120, Note_off_c, 1, 59, 0
2, 35160, Note_on_c, 1, 62, 127
2, 35520, Note_off_c, 1, 62, 0
2, 35560, Note_on_c, 1, 68, 127
2, 35880, Note_off_c, 1, 68, 0
2, 35920, Note_on_c, 1, 72, 127
2, 36280, Note_off_c, 1, 72, 0
2, 36320, Note_on_c, 1, 71, 127
2, 36680, Note_off_c, 1, 71, 0
2, 36760, Note_on_c, 1, 68, 127
2, 37120, Note_off_c, 1, 68, 0
2, 37160, Note_on_c, 1, 69, 127
2, 37520, Note_off_c, 1, 69, 0
2, 37560, Note_on_c, 1, 47, 127
2, 37560, Note_on_c, 1, 51, 127
2, 37560, Note_on_c, 1, 54, 127
2, 37560, Note_on_c, 1, 59, 127
2, 38520, Note_off_c, 1, 47, 0
2, 38720, Note_on_c, 1, 47, 127
2, 38720, Note_off_c, 1, 51, 0
2, 38720, Note_off_c, 1, 54, 0
2, 38720, Note_off_c, 1, 59, 0
2, 38720, Note_on_c, 1, 63, 127
2, 38720, Note_on_c, 1, 66, 127
2, 38760, Note_off_c, 1, 47, 0
2, 38760, Note_off_c, 1, 63, 0
2, 38760, Note_off_c, 1, 66, 0
2, 38840, Note_on_c, 1, 51, 127
2, 38840, Note_on_c, 1, 54, 127
2, 39600, Note_off_c, 1, 51, 0
2, 39600, Note_off_c, 1, 54, 0
2, 39640, Note_on_c, 1, 49, 127
2, 39640, Note_on_c, 1, 53, 127
2, 39640, Note_on_c, 1, 56, 127
2, 39640, Note_on_c, 1, 61, 127
2, 40400, Note_off_c, 1, 53, 0
2, 40400, Note_off_c, 1, 56, 0
2, 40400, Note_off_c, 1, 61, 0
2, 40480, Note_on_c, 1, 56, 127
2, 40760, Note_off_c, 1, 56, 0
2, 40800, Note_on_c, 1, 56, 127
2, 40800, Note_on_c, 1, 61, 127
2, 40960, Note_off_c, 1, 49, 0
2, 40960, Note_off_c, 1, 56, 0
2, 40960, Note_off_c, 1, 61, 0
2, 41000, Note_on_c, 1, 49, 127
2, 41000, Note_on_c, 1, 56, 127
2, 41000, Note_on_c, 1, 61, 127
2, 41200, Note_off_c, 1, 56, 0
2, 41200, Note_off_c, 1, 61, 0
2, 41240, Note_on_c, 1, 61, 127
2, 41240, Note_on_c, 1, 65, 127
2, 41240, Note_on_c, 1, 68, 127
2, 41600, Note_off_c, 1, 61, 0
2, 41600, Note_off_c, 1, 65, 0
2, 41600, Note_off_c, 1, 68, 0
2, 41640, Note_on_c, 1, 56, 127
2, 41640, Note_on_c, 1, 65, 127
2, 41640, Note_on_c, 1, 68, 127
2, 42400, Note_off_c, 1, 49, 0
2, 42400, Note_off_c, 1, 56, 0
2, 42400, Note_off_c, 1, 65, 0
2, 42400, Note_off_c, 1, 68, 0
2, 42440, Note_on_c, 1, 51, 127
2, 42440, Note_on_c, 1, 66, 127
2, 42800, Note_off_c, 1, 51, 0
2, 42840, Note_on_c, 1, 48, 127
2, 42840, Note_on_c, 1, 68, 127
2, 42880, Note_off_c, 1, 68, 0
2, 43240, Note_off_c, 1, 48, 0
2, 43240, Note_off_c, 1, 66, 0
2, 43280, Note_on_c, 1, 48, 127
2, 43280, Note_on_c, 1, 66, 127
2, 43640, Note_off_c, 1, 48, 0
2, 43640, Note_off_c, 1, 66, 0
2, 43680, Note_on_c, 1, 49, 127
2, 43680, Note_on_c, 1, 68, 127
2, 44080, Note_on_c, 1, 64, 127
2, 44080, Note_off_c, 1, 68, 0
2, 44080, Note_on_c, 1, 71, 127
2, 44440, Note_off_c, 1, 71, 0
2, 44480, Note_on_c, 1, 44, 127
2, 44480, Note_off_c, 1, 49, 0
2, 44480, Note_on_c, 1, 52, 127
2, 44480, Note_off_c, 1, 64, 0
2, 44480, Note_on_c, 1, 69, 127
2, 44840, Note_off_c, 1, 44, 0
2, 44840, Note_on_c, 1, 49, 127
2, 44840, Note_off_c, 1, 52, 0
2, 44840, Note_on_c, 1, 68, 127
2, 44840, Note_off_c, 1, 69, 0
2, 44880, Note_on_c, 1, 54, 127
2, 44880, Note_off_c, 1, 68, 0
2, 44880, Note_on_c, 1, 69, 127
2, 45200, Note_off_c, 1, 54, 0
2, 45240, Note_off_c, 1, 49, 0
2, 45240, Note_on_c, 1, 64, 127
2, 45280, Note_off_c, 1, 64, 0
2, 45280, Note_off_c, 1, 69, 0
2, 45320, Note_on_c, 1, 49, 127
2, 45320, Note_on_c, 1, 64, 127
2, 45320, Note_on_c, 1, 69, 127
2, 45680, Note_off_c, 1, 49, 0
2, 45680, Note_off_c, 1, 64, 0
2, 45680, Note_off_c, 1, 69, 0
2, 45720, Note_on_c, 1, 44, 127
2, 45720, Note_on_c, 1, 51, 127
2, 45720, Note_on_c, 1, 59, 127
2, 45720, Note_on_c, 1, 68, 127
2, 46080, Note_off_c, 1, 51, 0
2, 46080, Note_off_c, 1, 68, 0
2, 46120, Note_on_c, 1, 51, 127
2, 46120, Note_on_c, 1, 68, 127
2, 46480, Note_off_c, 1, 59, 0
2, 46480, Note_on_c, 1, 60, 127
2, 46480, Note_off_c, 1, 68, 0
2, 46520, Note_on_c, 1, 58, 127
2, 46520, Note_off_c, 1, 60, 0
2, 46520, Note_on_c, 1, 63, 127
2, 46880, Note_off_c, 1, 44, 0
2, 46880, Note_off_c, 1, 51, 0
2, 46880, Note_off_c, 1, 58, 0
2, 46880, Note_off_c, 1, 63, 0
2, 46920, Note_on_c, 1, 44, 127
2, 46920, Note_on_c, 1, 59, 127
2, 46920, Note_on_c, 1, 68, 127
2, 47280, Note_off_c, 1, 44, 0
2, 47280, Note_on_c, 1, 47, 127
2, 47280, Note_off_c, 1, 59, 0
2, 47320, Note_off_c, 1, 47, 0
2, 47320, Note_off_c, 1, 68, 0
2, 47360, Note_on_c, 1, 67, 127
2, 47360, Note_on_c, 1, 71, 127
2, 47360, Note_on_c, 1, 75, 127
2, 47360, Note_on_c, 1, 79, 127
2, 47400, Note_on_c, 1, 43, 127
2, 47680, Note_off_c, 1, 43, 0
2, 47680, Note_on_c, 1, 51, 127
2, 47680, Note_off_c, 1, 67, 0
2, 47680, Note_off_c, 1, 71, 0
2, 47680, Note_off_c, 1, 75, 0
2, 47680, Note_off_c, 1, 79, 0
2, 47720, Note_on_c, 1, 61, 127
2, 47720, Note_on_c, 1, 67, 127
2, 48080, Note_off_c, 1, 61, 0
2, 48080, Note_off_c, 1, 67, 0
2, 48120, Note_on_c, 1, 61, 127
2, 48120, Note_on_c, 1, 67, 127
2, 48480, Note_off_c, 1, 67, 0
2, 48520, Note_on_c, 1, 44, 127
2, 48520, Note_off_c, 1, 51, 0
2, 48520, Note_on_c, 1, 59, 127
2, 48520, Note_off_c, 1, 61, 0
2, 48520, Note_on_c, 1, 68, 127
2, 48880, Note_off_c, 1, 44, 0
2, 48880, Note_off_c, 1, 68, 0
2, 48920, Note_off_c, 1, 59, 0
2, 48920, Note_on_c, 1, 63, 127
2, 48920, Note_on_c, 1, 64, 127
2, 48920, Note_on_c, 1, 68, 127
2, 49080, Note_off_c, 1, 68, 0
2, 49120, Note_on_c, 1, 71, 127
2, 49280, Note_off_c, 1, 63, 0
2, 49280, Note_off_c, 1, 64, 0
2, 49280, Note_off_c, 1, 71, 0
2, 49360, Note_on_c, 1, 51, 127
2, 49360, Note_on_c, 1, 59, 127
2, 49360, Note_on_c, 1, 63, 127
2, 50120, Note_on_c, 1, 39, 127
2, 50120, Note_off_c, 1, 59, 0
2, 50120, Note_off_c, 1, 63, 0
2, 50120, Note_on_c, 1, 67, 127
2, 50520, Note_off_c, 1, 39, 0
2, 50520, Note_off_c, 1, 51, 0
2, 50520, Note_off_c, 1, 67, 0
2, 50560, Note_on_c, 1, 63, 127
2, 51320, Note_off_c, 1, 63, 0
2, 51360, Note_on_c, 1, 60, 127
2, 51360, Note_on_c, 1, 72, 127
2, 51520, Note_off_c, 1, 60, 0
2, 51520, Note_off_c, 1, 72, 0
2, 51560, Note_on_c, 1, 60, 127
2, 51560, Note_on_c, 1, 72, 127
2, 51760, Note_off_c, 1, 60, 0
2, 51800, Note_on_c, 1, 60, 127
2, 51800, Note_on_c, 1, 69, 127
2, 51800, Note_off_c, 1, 72, 0
2, 52160, Note_off_c, 1, 60, 0
2, 52160, Note_off_c, 1, 69, 0
2, 52200, Note_on_c, 1, 51, 127
2, 52200, Note_on_c, 1, 71, 127
2, 52560, Note_off_c, 1, 51, 0
2, 52600, Note_on_c, 1, 59, 127
2, 53000, Note_on_c, 1, 66, 127
2, 53320, Note_off_c, 1, 59, 0
2, 53320, Note_off_c, 1, 66, 0
2, 53360, Note_on_c, 1, 59, 127
2, 53360, Note_on_c, 1, 69, 127
2, 53360, Note_off_c, 1, 71, 0
2, 53360, Note_on_c, 1, 84, 127
2, 53720, Note_off_c, 1, 84, 0
2, 53760, Note_off_c, 1, 59, 0
2, 53760, Note_off_c, 1, 69, 0
2, 53800, Note_on_c, 1, 62, 127
2, 53800, Note_on_c, 1, 69, 127
2, 53800, Note_on_c, 1, 84, 127
2, 54160, Note_off_c, 1, 62, 0
2, 54160, Note_off_c, 1, 69, 0
2, 54160, Note_off_c, 1, 84, 0
2, 54200, Note_on_c, 1, 68, 127
2, 54200, Note_on_c, 1, 71, 127
2, 54200, Note_on_c, 1, 78, 127
2, 54200, Note_on_c, 1, 83, 127
2, 54360, Note_off_c, 1, 83, 0
2, 54560, Note_off_c, 1, 78, 0
2, 54600, Note_on_c, 1, 64, 127
2, 54600, Note_off_c, 1, 68, 0
2, 54600, Note_on_c, 1, 70, 127
2, 54600, Note_off_c, 1, 71, 0
2, 54600, Note_on_c, 1, 73, 127
2, 54600, Note_on_c, 1, 78, 127
2, 54960, Note_off_c, 1, 64, 0
2, 55000, Note_on_c, 1, 68, 127
2, 55320, Note_off_c, 1, 68, 0
2, 55360, Note_on_c, 1, 68, 127
2, 55360, Note_off_c, 1, 70, 0
2, 55360, Note_on_c, 1, 71, 127
2, 55360, Note_off_c, 1, 73, 0
2, 55360, Note_on_c, 1, 77, 127
2, 55360, Note_off_c, 1, 78, 0
2, 55360, Note_on_c, 1, 83, 127
2, 55760, Note_off_c, 1, 68, 0
2, 55760, Note_off_c, 1, 71, 0
2, 55760, Note_off_c, 1, 77, 0
2, 55760, Note_off_c, 1, 83, 0
2, 55840, Note_on_c, 1, 51, 127
2, 55840, Note_on_c, 1, 56, 127
2, 55840, Note_on_c, 1, 59, 127
2, 55840, Note_on_c, 1, 63, 127
2, 55840, Note_on_c, 1, 71, 127
2, 55840, Note_on_c, 1, 75, 127
2, 55880, Note_on_c, 1, 65, 127
2, 55880, Note_off_c, 1, 71, 0
2, 55880, Note_off_c, 1, 75, 0
2, 56000, Note_off_c, 1, 65, 0
2, 56040, Note_on_c, 1, 65, 127
2, 56400, Note_off_c, 1, 65, 0
2, 56440, Note_on_c, 1, 65, 127
2, 56600, Note_off_c, 1, 51, 0
2, 56600, Note_off_c, 1, 56, 0
2, 56600, Note_off_c, 1, 59, 0
2, 56600, Note_off_c, 1, 63, 0
2, 56600, Note_off_c, 1, 65, 0
2, 56640, Note_on_c, 1, 63, 127
2, 56640, Note_on_c, 1, 75, 127
2, 57400, Note_off_c, 1, 63, 0
2, 57400, Note_off_c, 1, 75, 0
2, 57440, Note_on_c, 1, 64, 127
2, 57440, Note_on_c, 1, 76, 127
2, 57840, Note_off_c, 1, 64, 0
2, 57840, Note_off_c, 1, 76, 0
2, 57880, Note_on_c, 1, 64, 127
2, 57880, Note_on_c, 1, 76, 127
2, 59000, Note_off_c, 1, 64, 0
2, 59000, Note_off_c, 1, 76, 0
2, 59040, Note_on_c, 1, 63, 127
2, 59040, Note_on_c, 1, 75, 127
2, 59400, Note_off_c, 1, 63, 0
2, 59400, Note_off_c, 1, 75, 0
2, 59440, Note_on_c, 1, 64, 127
2, 59440, Note_on_c, 1, 76, 127
2, 60200, Note_off_c, 1, 64, 0
2, 60200, Note_off_c, 1, 76, 0
2, 60280, Note_on_c, 1, 62, 127
2, 60280, Note_on_c, 1, 65, 127
2, 60280, Note_on_c, 1, 68, 127
2, 60280, Note_on_c, 1, 71, 127
2, 62640, Note_off_c, 1, 62, 0
2, 62640, Note_off_c, 1, 65, 0
2, 62640, Note_off_c, 1, 68, 0
2, 62640, Note_off_c, 1, 71, 0
2, 62680, Note_on_c, 1, 62, 127
2, 62680, Note_on_c, 1, 65, 127
2, 62680, Note_on_c, 1, 68, 127
2, 62680, Note_on_c, 1, 71, 127
2, 63800, Note_off_c, 1, 71, 0
2, 63840, Note_on_c, 1, 59, 127
2, 65040, Note_off_c, 1, 59, 0
2, 65040, Note_off_c, 1, 62, 0
2, 65040, Note_off_c, 1, 65, 0
2, 65040, Note_off_c, 1, 68, 0
2, 65120, Note_on_c, 1, 64, 127
2, 65120, Note_on_c, 1, 67, 127
2, 65120, Note_on_c, 1, 71, 127
2, 65120, Note_on_c, 1, 76, 127
2, 65120, Note_on_c, 1, 83, 127
2, 65840, Note_off_c, 1, 64, 0
2, 65840, Note_off_c, 1, 67, 0
2, 65840, Note_off_c, 1, 71, 0
2, 65840, Note_off_c, 1, 76, 0
2, 65840, Note_off_c, 1, 83, 0
2, 65880, Note_on_c, 1, 64, 127
2, 65880, Note_on_c, 1, 67, 127
2, 65880, Note_on_c, 1, 71, 127
2, 65880, Note_on_c, 1, 76, 127
2, 65880, Note_on_c, 1, 83, 127
2, 66640, Note_off_c, 1, 64, 0
2, 66640, Note_off_c, 1, 67, 0
2, 66640, Note_off_c, 1, 71, 0
2, 66640, Note_off_c, 1, 76, 0
2, 66640, Note_off_c, 1, 83, 0
2, 66680, Note_on_c, 1, 64, 127
2, 66680, Note_on_c, 1, 67, 127
2, 66680, Note_on_c, 1, 71, 127
2, 66680, Note_on_c, 1, 76, 127
2, 66680, Note_on_c, 1, 83, 127
2, 67200, Note_on_c, 1, 52, 127
2, 67200, Note_off_c, 1, 64, 0
2, 67200, Note_off_c, 1, 67, 0
2, 67200, Note_off_c, 1, 71, 0
2, 67200, Note_off_c, 1, 76, 0
2, 67200, Note_off_c, 1, 83, 0
2, 67240, Note_off_c, 1, 52, 0
2, 67280, Note_on_c, 1, 64, 127
2, 67280, Note_on_c, 1, 67, 127
2, 67280, Note_on_c, 1, 71, 127
2, 67280, Note_on_c, 1, 76, 127
2, 67280, Note_on_c, 1, 83, 127
2, 67480, Note_off_c, 1, 64, 0
2, 67480, Note_off_c, 1, 67, 0
2, 67480, Note_off_c, 1, 71, 0
2, 67480, Note_off_c, 1, 76, 0
2, 67480, Note_off_c, 1, 83, 0
2, 67520, Note_on_c, 1, 64, 127
2, 67520, Note_on_c, 1, 67, 127
2, 67520, Note_on_c, 1, 71, 127
2, 67520, Note_on_c, 1, 76, 127
2, 67520, Note_on_c, 1, 83, 127
2, 67840, Note_off_c, 1, 64, 0
2, 67840, Note_off_c, 1, 67, 0
2, 67840, Note_off_c, 1, 71, 0
2, 67840, Note_off_c, 1, 76, 0
2, 67840, Note_off_c, 1, 83, 0
2, 67920, Note_on_c, 1, 64, 127
2, 67920, Note_on_c, 1, 67, 127
2, 67920, Note_on_c, 1, 71, 127
2, 67920, Note_on_c, 1, 76, 127
2, 67920, Note_on_c, 1, 83, 127
2, 68640, Note_off_c, 1, 64, 0
2, 68640, Note_off_c, 1, 67, 0
2, 68640, Note_off_c, 1, 71, 0
2, 68640, Note_off_c, 1, 76, 0
2, 68640, Note_off_c, 1, 83, 0
2, 68720, Note_on_c, 1, 64, 127
2, 68720, Note_on_c, 1, 67, 127
2, 68720, Note_on_c, 1, 71, 127
2, 68720, Note_on_c, 1, 76, 127
2, 68720, Note_on_c, 1, 83, 127
2, 69440, Note_off_c, 1, 64, 0
2, 69440, Note_off_c, 1, 67, 0
2, 69440, Note_off_c, 1, 71, 0
2, 69440, Note_off_c, 1, 76, 0
2, 69440, Note_off_c, 1, 83, 0
2, 69520, Note_on_c, 1, 35, 127
2, 69520, Note_on_c, 1, 66, 127
2, 69520, Note_on_c, 1, 69, 127
2, 69520, Note_on_c, 1, 71, 127
2, 69520, Note_on_c, 1, 75, 127
2, 69560, Note_off_c, 1, 35, 0
2, 69560, Note_off_c, 1, 66, 0
2, 69560, Note_off_c, 1, 69, 0
2, 69560, Note_off_c, 1, 71, 0
2, 69560, Note_off_c, 1, 75, 0
2, 69600, Note_on_c, 1, 53, 127
2, 69600, Note_on_c, 1, 80, 127
2, 69600, Note_on_c, 1, 85, 127
2, 69600, Note_on_c, 1, 92, 127
2, 69640, Note_on_c, 1, 41, 127
2, 69640, Note_on_c, 1, 46, 127
2, 69640, Note_off_c, 1, 53, 0
2, 69640, Note_on_c, 1, 62, 127
2, 69640, Note_on_c, 1, 67, 127
2, 69640, Note_off_c, 1, 80, 0
2, 69640, Note_off_c, 1, 85, 0
2, 69640, Note_off_c, 1, 92, 0
2, 69880, Note_off_c, 1, 46, 0
2, 69880, Note_off_c, 1, 62, 0
2, 69880, Note_off_c, 1, 67, 0
2, 69960, Note_on_c, 1, 40, 127
2, 69960, Note_off_c, 1, 41, 0
2, 69960, Note_on_c, 1, 42, 127
2, 70200, Note_off_c, 1, 40, 0
2, 70200, Note_off_c, 1, 42, 0
2, 70360, Note_on_c, 1, 37, 127
2, 70360, Note_on_c, 1, 49, 127
2, 70360, Note_on_c, 1, 56, 127
2, 70360, Note_on_c, 1, 66, 127
2, 70400, Note_off_c, 1, 56, 0
2, 70680, Note_off_c, 1, 66, 0
2, 70760, Note_on_c, 1, 63, 127
2, 71040, Note_off_c, 1, 63, 0
2, 71080, Note_off_c, 1, 49, 0
2, 71120, Note_off_c, 1, 37, 0
2, 71160, Note_on_c, 1, 43, 127
2, 71160, Note_on_c, 1, 55, 127
2, 71160, Note_on_c, 1, 59, 127
2, 71160, Note_on_c, 1, 63, 127
2, 71400, Note_off_c, 1, 59, 0
2, 71400, Note_off_c, 1, 63, 0
2, 71440, Note_on_c, 1, 59, 127
2, 71440, Note_on_c, 1, 63, 127
2, 71480, Note_off_c, 1, 59, 0
2, 71480, Note_off_c, 1, 63, 0
2, 71560, Note_off_c, 1, 43, 0
2, 71560, Note_off_c, 1, 55, 0
2, 71600, Note_on_c, 1, 43, 127
2, 71600, Note_on_c, 1, 55, 127
2, 71600, Note_on_c, 1, 59, 127
2, 71600, Note_on_c, 1, 63, 127
2, 71880, Note_off_c, 1, 59, 0
2, 71880, Note_off_c, 1, 63, 0
2, 72000, Note_on_c, 1, 59, 127
2, 72000, Note_on_c, 1, 63, 127
2, 72240, Note_off_c, 1, 59, 0
2, 72240, Note_off_c, 1, 63, 0
2, 72280, Note_on_c, 1, 59, 127
2, 72280, Note_on_c, 1, 63, 127
2, 72360, Note_off_c, 1, 59, 0
2, 72360, Note_off_c, 1, 63, 0
2, 72400, Note_on_c, 1, 59, 127
2, 72400, Note_on_c, 1, 63, 127
2, 72680, Note_off_c, 1, 59, 0
2, 72680, Note_off_c, 1, 63, 0
2, 72800, Note_on_c, 1, 59, 127
2, 72800, Note_on_c, 1, 63, 127
2, 73080, Note_off_c, 1, 59, 0
2, 73080, Note_off_c, 1, 63, 0
2, 73560, Note_off_c, 1, 43, 0
2, 73560, Note_off_c, 1, 55, 0
2, 73640, Note_on_c, 1, 34, 127
2, 73640, Note_on_c, 1, 46, 127
2, 73640, Note_on_c, 1, 53, 127
2, 73640, Note_on_c, 1, 58, 127
2, 73640, Note_on_c, 1, 62, 127
2, 73960, Note_off_c, 1, 34, 0
2, 73960, Note_off_c, 1, 46, 0
2, 73960, Note_off_c, 1, 53, 0
2, 73960, Note_off_c, 1, 58, 0
2, 73960, Note_off_c, 1, 62, 0
2, 74000, Note_on_c, 1, 45, 127
2, 74000, Note_on_c, 1, 57, 127
2, 74000, Note_on_c, 1, 66, 127
2, 74000, Note_on_c, 1, 72, 127
2, 75160, Note_off_c, 1, 45, 0
2, 75160, Note_off_c, 1, 57, 0
2, 75160, Note_off_c, 1, 66, 0
2, 75160, Note_off_c, 1, 72, 0
2, 75200, Note_on_c, 1, 72, 127
2, 75560, Note_off_c, 1, 72, 0
2, 75600, Note_on_c, 1, 33, 127
2, 75600, Note_on_c, 1, 45, 127
2, 75600, Note_on_c, 1, 69, 127
2, 75880, Note_off_c, 1, 33, 0
2, 75880, Note_off_c, 1, 45, 0
2, 75880, Note_off_c, 1, 69, 0
2, 75920, Note_on_c, 1, 33, 127
2, 75920, Note_on_c, 1, 45, 127
2, 75920, Note_on_c, 1, 69, 127
2, 76400, Note_off_c, 1, 33, 0
2, 76400, Note_off_c, 1, 45, 0
2, 76400, Note_off_c, 1, 69, 0
2, 76440, Note_on_c, 1, 72, 127
2, 76440, Note_on_c, 1, 84, 127
2, 76440, Note_on_c, 1, 89, 127
2, 76440, Note_on_c, 1, 93, 127
2, 76440, Note_on_c, 1, 96, 127
2, 76720, Note_off_c, 1, 84, 0
2, 76720, Note_off_c, 1, 89, 0
2, 76720, Note_off_c, 1, 93, 0
2, 76720, Note_off_c, 1, 96, 0
2, 76800, Note_off_c, 1, 72, 0
2, 76840, Note_on_c, 1, 45, 127
2, 76840, Note_on_c, 1, 57, 127
2, 76840, Note_on_c, 1, 72, 127
2, 77600, Note_off_c, 1, 72, 0
2, 77640, Note_on_c, 1, 77, 127
2, 78000, Note_off_c, 1, 77, 0
2, 78040, Note_on_c, 1, 77, 127
2, 78200, Note_off_c, 1, 77, 0
2, 78240, Note_off_c, 1, 45, 0
2, 78240, Note_off_c, 1, 57, 0
2, 78280, Note_on_c, 1, 45, 127
2, 78280, Note_on_c, 1, 57, 127
2, 78280, Note_on_c, 1, 77, 127
2, 78440, Note_off_c, 1, 45, 0
2, 78440, Note_off_c, 1, 57, 0
2, 78440, Note_off_c, 1, 77, 0
2, 78480, Note_on_c, 1, 48, 127
2, 78480, Note_on_c, 1, 60, 127
2, 78480, Note_on_c, 1, 82, 127
2, 78600, Note_on_c, 1, 79, 127
2, 78600, Note_off_c, 1, 82, 0
2, 78640, Note_off_c, 1, 79, 0
2, 78680, Note_on_c, 1, 79, 127
2, 78840, Note_off_c, 1, 48, 0
2, 78840, Note_off_c, 1, 60, 0
2, 78840, Note_off_c, 1, 79, 0
2, 78880, Note_on_c, 1, 48, 127
2, 78880, Note_on_c, 1, 60, 127
2, 78880, Note_on_c, 1, 82, 127
2, 79000, Note_off_c, 1, 82, 0
2, 79080, Note_on_c, 1, 79, 127
2, 79240, Note_off_c, 1, 79, 0
2, 79280, Note_on_c, 1, 82, 127
2, 79440, Note_off_c, 1, 48, 0
2, 79440, Note_off_c, 1, 60, 0
2, 79440, Note_off_c, 1, 82, 0
2, 79480, Note_on_c, 1, 45, 127
2, 79480, Note_on_c, 1, 57, 127
2, 79480, Note_on_c, 1, 72, 127
2, 79640, Note_off_c, 1, 72, 0
2, 79680, Note_on_c, 1, 72, 127
2, 79840, Note_off_c, 1, 72, 0
2, 79880, Note_on_c, 1, 69, 127
2, 80040, Note_off_c, 1, 45, 0
2, 80040, Note_off_c, 1, 57, 0
2, 80040, Note_off_c, 1, 69, 0
2, 80080, Note_on_c, 1, 53, 127
2, 80080, Note_on_c, 1, 65, 127
2, 80080, Note_on_c, 1, 81, 127
2, 80240, Note_off_c, 1, 81, 0
2, 80280, Note_on_c, 1, 77, 127
2, 80440, Note_off_c, 1, 77, 0
2, 80480, Note_on_c, 1, 77, 127
2, 80640, Note_off_c, 1, 53, 0
2, 80640, Note_off_c, 1, 65, 0
2, 80640, Note_off_c, 1, 77, 0
2, 80720, Note_on_c, 1, 79, 127
2, 80880, Note_off_c, 1, 79, 0
2, 80920, Note_on_c, 1, 76, 127
2, 81080, Note_off_c, 1, 76, 0
2, 81120, Note_on_c, 1, 77, 127
2, 81280, Note_off_c, 1, 77, 0
2, 81320, Note_on_c, 1, 76, 127
2, 81480, Note_off_c, 1, 76, 0
2, 81520, Note_on_c, 1, 77, 127
2, 81680, Note_off_c, 1, 77, 0
2, 81720, Note_on_c, 1, 76, 127
2, 81880, Note_off_c, 1, 76, 0
2, 81920, Note_on_c, 1, 77, 127
2, 82080, Note_off_c, 1, 77, 0
2, 82120, Note_on_c, 1, 52, 127
2, 82120, Note_on_c, 1, 64, 127
2, 82120, Note_on_c, 1, 76, 127
2, 82280, Note_off_c, 1, 76, 0
2, 82320, Note_on_c, 1, 76, 127
2, 82480, Note_off_c, 1, 76, 0
2, 82520, Note_on_c, 1, 72, 127
2, 82680, Note_off_c, 1, 72, 0
2, 82720, Note_on_c, 1, 71, 127
2, 82880, Note_off_c, 1, 52, 0
2, 82880, Note_off_c, 1, 64, 0
2, 82880, Note_off_c, 1, 71, 0
2, 82960, Note_on_c, 1, 44, 127
2, 82960, Note_on_c, 1, 56, 127
2, 82960, Note_on_c, 1, 71, 127
2, 83120, Note_off_c, 1, 71, 0
2, 83160, Note_on_c, 1, 71, 127
2, 83320, Note_off_c, 1, 44, 0
2, 83320, Note_off_c, 1, 56, 0
2, 83320, Note_off_c, 1, 71, 0
2, 83360, Note_on_c, 1, 45, 127
2, 83360, Note_on_c, 1, 57, 127
2, 83360, Note_on_c, 1, 69, 127
2, 83480, Note_off_c, 1, 69, 0
2, 83560, Note_on_c, 1, 69, 127
2, 83720, Note_off_c, 1, 69, 0
2, 83760, Note_on_c, 1, 69, 127
2, 83760, Note_on_c, 1, 73, 127
2, 83920, Note_off_c, 1, 69, 0
2, 83920, Note_off_c, 1, 73, 0
2, 83960, Note_on_c, 1, 69, 127
2, 84120, Note_off_c, 1, 45, 0
2, 84120, Note_off_c, 1, 57, 0
2, 84120, Note_off_c, 1, 69, 0
2, 84160, Note_on_c, 1, 31, 127
2, 84160, Note_on_c, 1, 43, 127
2, 84160, Note_on_c, 1, 74, 127
2, 84520, Note_off_c, 1, 31, 0
2, 84520, Note_off_c, 1, 43, 0
2, 84520, Note_off_c, 1, 74, 0
2, 84560, Note_on_c, 1, 45, 127
2, 84560, Note_on_c, 1, 64, 127
2, 84560, Note_on_c, 1, 72, 127
2, 84720, Note_off_c, 1, 64, 0
2, 84720, Note_off_c, 1, 72, 0
2, 84760, Note_on_c, 1, 69, 127
2, 84920, Note_off_c, 1, 45, 0
2, 84920, Note_off_c, 1, 69, 0
2, 84960, Note_on_c, 1, 48, 127
2, 84960, Note_on_c, 1, 55, 127
2, 84960, Note_on_c, 1, 60, 127
2, 84960, Note_on_c, 1, 64, 127
2, 84960, Note_on_c, 1, 67, 127
2, 85000, Note_off_c, 1, 48, 0
2, 85000, Note_off_c, 1, 55, 0
2, 85000, Note_off_c, 1, 60, 0
2, 85000, Note_off_c, 1, 64, 0
2, 85000, Note_off_c, 1, 67, 0
2, 85040, Note_on_c, 1, 48, 127
2, 85040, Note_on_c, 1, 55, 127
2, 85040, Note_on_c, 1, 60, 127
2, 85040, Note_on_c, 1, 64, 127
2, 85040, Note_on_c, 1, 67, 127
2, 85360, Note_off_c, 1, 48, 0
2, 85400, Note_on_c, 1, 48, 127
2, 85760, Note_off_c, 1, 48, 0
2, 85760, Note_off_c, 1, 55, 0
2, 85760, Note_on_c, 1, 76, 127
2, 85800, Note_on_c, 1, 48, 127
2, 85800, Note_on_c, 1, 55, 127
2, 85800, Note_off_c, 1, 76, 0
2, 86360, Note_off_c, 1, 48, 0
2, 86400, Note_on_c, 1, 48, 127
2, 86560, Note_off_c, 1, 48, 0
2, 86560, Note_off_c, 1, 55, 0
2, 86560, Note_off_c, 1, 60, 0
2, 86560, Note_off_c, 1, 64, 0
2, 86560, Note_off_c, 1, 67, 0
2, 86600, Note_on_c, 1, 35, 127
2, 86600, Note_on_c, 1, 51, 127
2, 86600, Note_on_c, 1, 54, 127
2, 86600, Note_on_c, 1, 59, 127
2, 86600, Note_on_c, 1, 63, 127
2, 86640, Note_off_c, 1, 35, 0
2, 86640, Note_on_c, 1, 45, 127
2, 86640, Note_off_c, 1, 51, 0
2, 86640, Note_off_c, 1, 54, 0
2, 86640, Note_on_c, 1, 55, 127
2, 86640, Note_off_c, 1, 59, 0
2, 86640, Note_on_c, 1, 60, 127
2, 86640, Note_off_c, 1, 63, 0
2, 86640, Note_on_c, 1, 69, 127
2, 86960, Note_off_c, 1, 45, 0
2, 86960, Note_off_c, 1, 55, 0
2, 86960, Note_off_c, 1, 60, 0
2, 86960, Note_off_c, 1, 69, 0
2, 87000, Note_on_c, 1, 50, 127
2, 87000, Note_on_c, 1, 55, 127
2, 87000, Note_on_c, 1, 60, 127
2, 87000, Note_on_c, 1, 62, 127
2, 87000, Note_on_c, 1, 69, 127
2, 87160, Note_off_c, 1, 50, 0
2, 87160, Note_off_c, 1, 55, 0
2, 87160, Note_off_c, 1, 60, 0
2, 87160, Note_off_c, 1, 62, 0
2, 87160, Note_off_c, 1, 69, 0
2, 87200, Note_on_c, 1, 50, 127
2, 87200, Note_on_c, 1, 55, 127
2, 87200, Note_on_c, 1, 60, 127
2, 87200, Note_on_c, 1, 62, 127
2, 87200, Note_on_c, 1, 69, 127
2, 87800, Note_off_c, 1, 50, 0
2, 87800, Note_off_c, 1, 55, 0
2, 87800, Note_off_c, 1, 60, 0
2, 87800, Note_off_c, 1, 62, 0
2, 87800, Note_off_c, 1, 69, 0
2, 87840, Note_on_c, 1, 48, 127
2, 87840, Note_on_c, 1, 60, 127
2, 87840, Note_on_c, 1, 64, 127
2, 87840, Note_on_c, 1, 72, 127
2, 88600, Note_off_c, 1, 48, 0
2, 88600, Note_off_c, 1, 60, 0
2, 88600, Note_off_c, 1, 64, 0
2, 88600, Note_off_c, 1, 72, 0
2, 89960, Note_on_c, 1, 52, 127
2, 89960, Note_on_c, 1, 64, 127
2, 90320, Note_off_c, 1, 64, 0
2, 90360, Note_on_c, 1, 64, 127
2, 90720, Note_off_c, 1, 52, 0
2, 90720, Note_off_c, 1, 64, 0
2, 90760, Note_on_c, 1, 57, 127
2, 90760, Note_on_c, 1, 69, 127
2, 91120, Note_off_c, 1, 57, 0
2, 91120, Note_off_c, 1, 69, 0
2, 91160, Note_on_c, 1, 60, 127
2, 91160, Note_on_c, 1, 64, 127
2, 91160, Note_on_c, 1, 72, 127
2, 91520, Note_off_c, 1, 60, 0
2, 91560, Note_off_c, 1, 64, 0
2, 91560, Note_off_c, 1, 72, 0
2, 91600, Note_on_c, 1, 55, 127
2, 91600, Note_on_c, 1, 64, 127
2, 91600, Note_on_c, 1, 72, 127
2, 91960, Note_off_c, 1, 55, 0
2, 91960, Note_off_c, 1, 64, 0
2, 91960, Note_off_c, 1, 72, 0
2, 92000, Note_on_c, 1, 48, 127
2, 92000, Note_on_c, 1, 63, 127
2, 92000, Note_on_c, 1, 72, 127
2, 92400, Note_on_c, 1, 47, 127
2, 92400, Note_off_c, 1, 48, 0
2, 92560, Note_off_c, 1, 47, 0
2, 92800, Note_on_c, 1, 45, 127
2, 93160, Note_off_c, 1, 45, 0
2, 93200, Note_on_c, 1, 54, 127
2, 93560, Note_off_c, 1, 54, 0
2, 93600, Note_on_c, 1, 45, 127
2, 93800, Note_off_c, 1, 45, 0
2, 93800, Note_off_c, 1, 63, 0
2, 93800, Note_off_c, 1, 72, 0
2, 93840, Note_on_c, 1, 45, 127
2, 93840, Note_on_c, 1, 63, 127
2, 93840, Note_on_c, 1, 72, 127
2, 94040, Note_off_c, 1, 45, 0
2, 94040, Note_on_c, 1, 54, 127
2, 94360, Note_off_c, 1, 54, 0
2, 94360, Note_off_c, 1, 63, 0
2, 94360, Note_off_c, 1, 72, 0
2, 94400, Note_on_c, 1, 57, 127
2, 94400, Note_on_c, 1, 64, 127
2, 94400, Note_on_c, 1, 69, 127
2, 94400, Note_on_c, 1, 72, 127
2, 94400, Note_on_c, 1, 78, 127
2, 94440, Note_on_c, 1, 53, 127
2, 94440, Note_off_c, 1, 57, 0
2, 94440, Note_on_c, 1, 58, 127
2, 94440, Note_off_c, 1, 64, 0
2, 94440, Note_on_c, 1, 67, 127
2, 94440, Note_off_c, 1, 69, 0
2, 94440, Note_off_c, 1, 72, 0
2, 94440, Note_off_c, 1, 78, 0
2, 94440, Note_on_c, 1, 85, 127
2, 94520, Note_off_c, 1, 85, 0
2, 95200, Note_off_c, 1, 53, 0
2, 95200, Note_off_c, 1, 58, 0
2, 95200, Note_off_c, 1, 67, 0
2, 95240, Note_on_c, 1, 48, 127
2, 95240, Note_on_c, 1, 58, 127
2, 95240, Note_on_c, 1, 67, 127
2, 95920, Note_off_c, 1, 48, 0
2, 95920, Note_off_c, 1, 58, 0
2, 95920, Note_off_c, 1, 67, 0
2, 95960, Note_on_c, 1, 48, 127
2, 95960, Note_on_c, 1, 58, 127
2, 95960, Note_on_c, 1, 67, 127
2, 96040, Note_off_c, 1, 48, 0
2, 96040, Note_off_c, 1, 58, 0
2, 96040, Note_off_c, 1, 67, 0
2, 96080, Note_on_c, 1, 48, 127
2, 96080, Note_on_c, 1, 65, 127
2, 96080, Note_on_c, 1, 69, 127
2, 96440, Note_off_c, 1, 65, 0
2, 96440, Note_off_c, 1, 69, 0
2, 96480, Note_on_c, 1, 57, 127
2, 96480, Note_on_c, 1, 67, 127
2, 96840, Note_off_c, 1, 57, 0
2, 96840, Note_off_c, 1, 67, 0
2, 96880, Note_on_c, 1, 64, 127
2, 96880, Note_on_c, 1, 72, 127
2, 97240, Note_off_c, 1, 72, 0
2, 97280, Note_on_c, 1, 33, 127
2, 97280, Note_on_c, 1, 40, 127
2, 97280, Note_on_c, 1, 45, 127
2, 97280, Note_off_c, 1, 48, 0
2, 97280, Note_on_c, 1, 57, 127
2, 97280, Note_on_c, 1, 60, 127
2, 97280, Note_on_c, 1, 69, 127
2, 97640, Note_off_c, 1, 33, 0
2, 97640, Note_off_c, 1, 40, 0
2, 97640, Note_off_c, 1, 45, 0
2, 97640, Note_off_c, 1, 57, 0
2, 97640, Note_off_c, 1, 60, 0
2, 97640, Note_off_c, 1, 64, 0
2, 97640, Note_off_c, 1, 69, 0
2, 97680, Note_on_c, 1, 36, 127
2, 97680, Note_on_c, 1, 57, 127
2, 97680, Note_on_c, 1, 63, 127
2, 98040, Note_off_c, 1, 57, 0
2, 98080, Note_off_c, 1, 36, 0
2, 98080, Note_off_c, 1, 63, 0
2, 98120, Note_on_c, 1, 36, 127
2, 98120, Note_on_c, 1, 54, 127
2, 98120, Note_on_c, 1, 63, 127
2, 98440, Note_off_c, 1, 54, 0
2, 98480, Note_on_c, 1, 60, 127
2, 98840, Note_off_c, 1, 36, 0
2, 98840, Note_off_c, 1, 60, 0
2, 98840, Note_off_c, 1, 63, 0
2, 98880, Note_on_c, 1, 41, 127
2, 98880, Note_on_c, 1, 49, 127
2, 98880, Note_on_c, 1, 59, 127
2, 98880, Note_on_c, 1, 73, 127
2, 98920, Note_off_c, 1, 49, 0
2, 98920, Note_on_c, 1, 51, 127
2, 98960, Note_off_c, 1, 51, 0
2, 99240, Note_on_c, 1, 48, 127
2, 99240, Note_off_c, 1, 59, 0
2, 99240, Note_on_c, 1, 69, 127
2, 99280, Note_off_c, 1, 41, 0
2, 99280, Note_off_c, 1, 48, 0
2, 99280, Note_on_c, 1, 51, 127
2, 99280, Note_on_c, 1, 54, 127
2, 99280, Note_on_c, 1, 57, 127
2, 99280, Note_on_c, 1, 58, 127
2, 99280, Note_off_c, 1, 69, 0
2, 99280, Note_on_c, 1, 70, 127
2, 99280, Note_off_c, 1, 73, 0
2, 99320, Note_on_c, 1, 47, 127
2, 99320, Note_off_c, 1, 51, 0
2, 99320, Note_off_c, 1, 54, 0
2, 99320, Note_off_c, 1, 57, 0
2, 99320, Note_off_c, 1, 58, 0
2, 99320, Note_on_c, 1, 69, 127
2, 99320, Note_off_c, 1, 70, 0
2, 99320, Note_on_c, 1, 75, 127
2, 99320, Note_on_c, 1, 77, 127
2, 99320, Note_on_c, 1, 81, 127
2, 99640, Note_off_c, 1, 47, 0
2, 99640, Note_off_c, 1, 69, 0
2, 99640, Note_off_c, 1, 75, 0
2, 99640, Note_off_c, 1, 77, 0
2, 99640, Note_off_c, 1, 81, 0
2, 99680, Note_on_c, 1, 38, 127
2, 99680, Note_on_c, 1, 50, 127
2, 99680, Note_on_c, 1, 88, 127
2, 99680, Note_on_c, 1, 90, 127
2, 99720, Note_off_c, 1, 38, 0
2, 99720, Note_on_c, 1, 48, 127
2, 99720, Note_off_c, 1, 50, 0
2, 99720, Note_on_c, 1, 52, 127
2, 99720, Note_on_c, 1, 55, 127
2, 99720, Note_on_c, 1, 60, 127
2, 99720, Note_on_c, 1, 72, 127
2, 99720, Note_on_c, 1, 76, 127
2, 99720, Note_on_c, 1, 79, 127
2, 99720, Note_on_c, 1, 82, 127
2, 99720, Note_off_c, 1, 88, 0
2, 99720, Note_off_c, 1, 90, 0
2, 100480, Note_off_c, 1, 48, 0
2, 100480, Note_off_c, 1, 52, 0
2, 100480, Note_off_c, 1, 55, 0
2, 100480, Note_off_c, 1, 60, 0
2, 100480, Note_off_c, 1, 72, 0
2, 100480, Note_off_c, 1, 76, 0
2, 100480, Note_off_c, 1, 79, 0
2, 100480, Note_off_c, 1, 82, 0
2, 100560, Note_on_c, 1, 43, 127
2, 100560, Note_on_c, 1, 50, 127
2, 100560, Note_on_c, 1, 53, 127
2, 100560, Note_on_c, 1, 55, 127
2, 100560, Note_on_c, 1, 77, 127
2, 100600, Note_off_c, 1, 43, 0
2, 100600, Note_off_c, 1, 50, 0
2, 100600, Note_on_c, 1, 51, 127
2, 100600, Note_off_c, 1, 53, 0
2, 100600, Note_off_c, 1, 55, 0
2, 100600, Note_on_c, 1, 63, 127
2, 100600, Note_off_c, 1, 77, 0
2, 100600, Note_on_c, 1, 82, 127
2, 100600, Note_on_c, 1, 87, 127
2, 100600, Note_on_c, 1, 90, 127
2, 100600, Note_on_c, 1, 94, 127
2, 100920, Note_off_c, 1, 51, 0
2, 100920, Note_off_c, 1, 63, 0
2, 100920, Note_off_c, 1, 82, 0
2, 100920, Note_off_c, 1, 87, 0
2, 100920, Note_off_c, 1, 90, 0
2, 100920, Note_off_c, 1, 94, 0
2, 100960, Note_on_c, 1, 57, 127
2, 100960, Note_on_c, 1, 74, 127
2, 100960, Note_on_c, 1, 77, 127
2, 100960, Note_on_c, 1, 80, 127
2, 100960, Note_on_c, 1, 84, 127
2, 101320, Note_off_c, 1, 77, 0
2, 101320, Note_off_c, 1, 80, 0
2, 101320, Note_off_c, 1, 84, 0
2, 101360, Note_on_c, 1, 83, 127
2, 102120, Note_off_c, 1, 57, 0
2, 102160, Note_on_c, 1, 59, 127
2, 102520, Note_off_c, 1, 59, 0
2, 102520, Note_off_c, 1, 74, 0
2, 102520, Note_off_c, 1, 83, 0
2, 102600, Note_on_c, 1, 56, 127
2, 102600, Note_on_c, 1, 71, 127
2, 102600, Note_on_c, 1, 76, 127
2, 102960, Note_off_c, 1, 56, 0
2, 103000, Note_on_c, 1, 55, 127
2, 103360, Note_off_c, 1, 55, 0
2, 103400, Note_on_c, 1, 54, 127
2, 103760, Note_off_c, 1, 54, 0
2, 103760, Note_off_c, 1, 71, 0
2, 103760, Note_off_c, 1, 76, 0
2, 103800, Note_on_c, 1, 38, 127
2, 103800, Note_on_c, 1, 45, 127
2, 103800, Note_on_c, 1, 50, 127
2, 103800, Note_on_c, 1, 81, 127
2, 103800, Note_on_c, 1, 93, 127
2, 104160, Note_off_c, 1, 38, 0
2, 104160, Note_off_c, 1, 45, 0
2, 104160, Note_off_c, 1, 50, 0
2, 104160, Note_off_c, 1, 81, 0
2, 104160, Note_off_c, 1, 93, 0
2, 104200, Note_on_c, 1, 40, 127
2, 104200, Note_on_c, 1, 52, 127
2, 104200, Note_on_c, 1, 74, 127
2, 104200, Note_on_c, 1, 79, 127
2, 104200, Note_on_c, 1, 86, 127
2, 104600, Note_off_c, 1, 40, 0
2, 104600, Note_off_c, 1, 52, 0
2, 104600, Note_off_c, 1, 74, 0
2, 104600, Note_off_c, 1, 79, 0
2, 104600, Note_off_c, 1, 86, 0
2, 104640, Note_on_c, 1, 40, 127
2, 104640, Note_on_c, 1, 52, 127
2, 104640, Note_on_c, 1, 74, 127
2, 104640, Note_on_c, 1, 79, 127
2, 104640, Note_on_c, 1, 86, 127
2, 105000, Note_off_c, 1, 74, 0
2, 105000, Note_off_c, 1, 79, 0
2, 105000, Note_off_c, 1, 86, 0
2, 105040, Note_on_c, 1, 80, 127
2, 105040, Note_on_c, 1, 85, 127
2, 105040, Note_on_c, 1, 92, 127
2, 105360, Note_off_c, 1, 40, 0
2, 105360, Note_off_c, 1, 52, 0
2, 105400, Note_on_c, 1, 42, 127
2, 105400, Note_on_c, 1, 54, 127
2, 105400, Note_off_c, 1, 80, 0
2, 105400, Note_on_c, 1, 81, 127
2, 105400, Note_off_c, 1, 92, 0
2, 105400, Note_on_c, 1, 93, 127
2, 105760, Note_off_c, 1, 42, 0
2, 105760, Note_off_c, 1, 54, 0
2, 105760, Note_off_c, 1, 81, 0
2, 105760, Note_off_c, 1, 85, 0
2, 105760, Note_off_c, 1, 93, 0
2, 105800, Note_on_c, 1, 31, 127
2, 105800, Note_on_c, 1, 36, 127
2, 105800, Note_on_c, 1, 38, 127
2, 105800, Note_on_c, 1, 71, 127
2, 105800, Note_on_c, 1, 77, 127
2, 105800, Note_on_c, 1, 80, 127
2, 105840, Note_off_c, 1, 31, 0
2, 105840, Note_on_c, 1, 35, 127
2, 105840, Note_off_c, 1, 36, 0
2, 105840, Note_off_c, 1, 38, 0
2, 105840, Note_on_c, 1, 44, 127
2, 105840, Note_on_c, 1, 47, 127
2, 105840, Note_on_c, 1, 62, 127
2, 105840, Note_on_c, 1, 64, 127
2, 105840, Note_on_c, 1, 75, 127
2, 105840, Note_off_c, 1, 77, 0
2, 105840, Note_off_c, 1, 80, 0
2, 106920, Note_off_c, 1, 35, 0
2, 106920, Note_off_c, 1, 44, 0
2, 106920, Note_off_c, 1, 47, 0
2, 106920, Note_off_c, 1, 62, 0
2, 106920, Note_off_c, 1, 64, 0
2, 106920, Note_off_c, 1, 71, 0
2, 106920, Note_off_c, 1, 75, 0
2, 106960, Note_on_c, 1, 35, 127
2, 106960, Note_on_c, 1, 44, 127
2, 106960, Note_on_c, 1, 47, 127
2, 106960, Note_on_c, 1, 62, 127
2, 106960, Note_on_c, 1, 64, 127
2, 106960, Note_on_c, 1, 71, 127
2, 106960, Note_on_c, 1, 75, 127
2, 107000, Note_off_c, 1, 35, 0
2, 107000, Note_off_c, 1, 44, 0
2, 107000, Note_off_c, 1, 47, 0
2, 107000, Note_off_c, 1, 62, 0
2, 107000, Note_off_c, 1, 64, 0
2, 107000, Note_off_c, 1, 71, 0
2, 107000, Note_off_c, 1, 75, 0
2, 107040, Note_on_c, 1, 37, 127
2, 107040, Note_on_c, 1, 49, 127
2, 107040, Note_on_c, 1, 63, 127
2, 107040, Note_on_c, 1, 75, 127
2, 107040, Note_on_c, 1, 87, 127
2, 107400, Note_off_c, 1, 49, 0
2, 107400, Note_off_c, 1, 63, 0
2, 107400, Note_off_c, 1, 75, 0
2, 107400, Note_off_c, 1, 87, 0
2, 107440, Note_off_c, 1, 37, 0
2, 107440, Note_on_c, 1, 39, 127
2, 107440, Note_on_c, 1, 51, 127
2, 107440, Note_on_c, 1, 69, 127
2, 107440, Note_on_c, 1, 73, 127
2, 107440, Note_on_c, 1, 79, 127
2, 107440, Note_on_c, 1, 81, 127
2, 107640, Note_on_c, 1, 34, 127
2, 107640, Note_off_c, 1, 39, 0
2, 107640, Note_on_c, 1, 40, 127
2, 107640, Note_on_c, 1, 46, 127
2, 107640, Note_off_c, 1, 51, 0
2, 107640, Note_on_c, 1, 55, 127
2, 107640, Note_off_c, 1, 69, 0
2, 107640, Note_off_c, 1, 73, 0
2, 107640, Note_off_c, 1, 79, 0
2, 107640, Note_off_c, 1, 81, 0
2, 107680, Note_off_c, 1, 34, 0
2, 107680, Note_off_c, 1, 46, 0
2, 107680, Note_off_c, 1, 55, 0
2, 107680, Note_on_c, 1, 56, 127
2, 107680, Note_on_c, 1, 64, 127
2, 107680, Note_on_c, 1, 73, 127
2, 107720, Note_off_c, 1, 40, 0
2, 107720, Note_on_c, 1, 52, 127
2, 107720, Note_on_c, 1, 55, 127
2, 107720, Note_off_c, 1, 56, 0
2, 107720, Note_on_c, 1, 67, 127
2, 107720, Note_off_c, 1, 73, 0
2, 107720, Note_on_c, 1, 81, 127
2, 107760, Note_on_c, 1, 44, 127
2, 107760, Note_off_c, 1, 52, 0
2, 107760, Note_on_c, 1, 53, 127
2, 107760, Note_off_c, 1, 55, 0
2, 107760, Note_on_c, 1, 56, 127
2, 107760, Note_off_c, 1, 64, 0
2, 107760, Note_off_c, 1, 67, 0
2, 107760, Note_on_c, 1, 72, 127
2, 107760, Note_off_c, 1, 81, 0
2, 107760, Note_on_c, 1, 84, 127
2, 107800, Note_off_c, 1, 44, 0
2, 107800, Note_off_c, 1, 53, 0
2, 107800, Note_off_c, 1, 56, 0
2, 107800, Note_off_c, 1, 72, 0
2, 107800, Note_off_c, 1, 84, 0
2, 107840, Note_on_c, 1, 40, 127
2, 107840, Note_on_c, 1, 44, 127
2, 107840, Note_on_c, 1, 52, 127
2, 107840, Note_on_c, 1, 59, 127
2, 108600, Note_off_c, 1, 40, 0
2, 108600, Note_off_c, 1, 44, 0
2, 108600, Note_off_c, 1, 52, 0
2, 108600, Note_off_c, 1, 59, 0
2, 108640, Note_on_c, 1, 45, 127
2, 108640, Note_on_c, 1, 57, 127
2, 108640, Note_on_c, 1, 72, 127
2, 108640, Note_on_c, 1, 74, 127
2, 108640, Note_on_c, 1, 78, 127
2, 109040, Note_off_c, 1, 45, 0
2, 109040, Note_off_c, 1, 57, 0
2, 109040, Note_off_c, 1, 72, 0
2, 109040, Note_off_c, 1, 74, 0
2, 109040, Note_off_c, 1, 78, 0
2, 109080, Note_on_c, 1, 45, 127
2, 109080, Note_on_c, 1, 57, 127
2, 109080, Note_on_c, 1, 72, 127
2, 109080, Note_on_c, 1, 74, 127
2, 109080, Note_on_c, 1, 78, 127
2, 109400, Note_off_c, 1, 45, 0
2, 109400, Note_off_c, 1, 57, 0
2, 109400, Note_off_c, 1, 72, 0
2, 109400, Note_off_c, 1, 74, 0
2, 109400, Note_off_c, 1, 78, 0
2, 109440, Note_on_c, 1, 39, 127
2, 109440, Note_on_c, 1, 43, 127
2, 109440, Note_on_c, 1, 51, 127
2, 109440, Note_on_c, 1, 58, 127
2, 109800, Note_off_c, 1, 58, 0
2, 109840, Note_on_c, 1, 56, 127
2, 110200, Note_off_c, 1, 56, 0
2, 110240, Note_on_c, 1, 56, 127
2, 110600, Note_off_c, 1, 39, 0
2, 110600, Note_off_c, 1, 43, 0
2, 110600, Note_off_c, 1, 51, 0
2, 110600, Note_off_c, 1, 56, 0
2, 110640, Note_on_c, 1, 36, 127
2, 110640, Note_on_c, 1, 43, 127
2, 110640, Note_on_c, 1, 48, 127
2, 110640, Note_on_c, 1, 55, 127
2, 111040, Note_off_c, 1, 55, 0
2, 111040, Note_on_c, 1, 63, 127
2, 111040, Note_on_c, 1, 70, 127
2, 111040, Note_on_c, 1, 75, 127
2, 111400, Note_off_c, 1, 36, 0
2, 111400, Note_off_c, 1, 43, 0
2, 111400, Note_off_c, 1, 48, 0
2, 111400, Note_on_c, 1, 55, 127
2, 111400, Note_off_c, 1, 63, 0
2, 111400, Note_off_c, 1, 70, 0
2, 111400, Note_off_c, 1, 75, 0
2, 111440, Note_off_c, 1, 55, 0
2, 111480, Note_on_c, 1, 64, 127
2, 111480, Note_on_c, 1, 69, 127
2, 111480, Note_on_c, 1, 81, 127
2, 111480, Note_on_c, 1, 85, 127
2, 111840, Note_off_c, 1, 69, 0
2, 111840, Note_off_c, 1, 81, 0
2, 111840, Note_off_c, 1, 85, 0
2, 111880, Note_on_c, 1, 55, 127
2, 111880, Note_on_c, 1, 59, 127
2, 111880, Note_off_c, 1, 64, 0
2, 111880, Note_on_c, 1, 71, 127
2, 111880, Note_on_c, 1, 83, 127
2, 112240, Note_off_c, 1, 59, 0
2, 112280, Note_on_c, 1, 43, 127
2, 112640, Note_off_c, 1, 43, 0
2, 112640, Note_off_c, 1, 55, 0
2, 112640, Note_off_c, 1, 71, 0
2, 112640, Note_off_c, 1, 83, 0
2, 112680, Note_on_c, 1, 57, 127
2, 112680, Note_on_c, 1, 60, 127
2, 112680, Note_on_c, 1, 74, 127
2, 112680, Note_on_c, 1, 86, 127
2, 113040, Note_off_c, 1, 60, 0
2, 113080, Note_on_c, 1, 64, 127
2, 113680, Note_off_c, 1, 57, 0
2, 113680, Note_off_c, 1, 64, 0
2, 113680, Note_off_c, 1, 74, 0
2, 113680, Note_off_c, 1, 86, 0
2, 113720, Note_on_c, 1, 57, 127
2, 113720, Note_on_c, 1, 64, 127
2, 113720, Note_on_c, 1, 74, 127
2, 113720, Note_on_c, 1, 86, 127
2, 113880, Note_off_c, 1, 64, 0
2, 113920, Note_on_c, 1, 62, 127
2, 114160, Note_off_c, 1, 62, 0
2, 114240, Note_on_c, 1, 62, 127
2, 114280, Note_off_c, 1, 62, 0
2, 114280, Note_off_c, 1, 74, 0
2, 114280, Note_off_c, 1, 86, 0
2, 114320, Note_on_c, 1, 76, 127
2, 114320, Note_on_c, 1, 81, 127
2, 114320, Note_on_c, 1, 88, 127
2, 114680, Note_off_c, 1, 76, 0
2, 114680, Note_off_c, 1, 81, 0
2, 114680, Note_off_c, 1, 88, 0
2, 114720, Note_on_c, 1, 45, 127
2, 114720, Note_on_c, 1, 54, 127
2, 114720, Note_off_c, 1, 57, 0
2, 114720, Note_on_c, 1, 62, 127
2, 114720, Note_on_c, 1, 66, 127
2, 114720, Note_on_c, 1, 69, 127
2, 115080, Note_off_c, 1, 54, 0
2, 115080, Note_off_c, 1, 62, 0
2, 115080, Note_off_c, 1, 66, 0
2, 115080, Note_off_c, 1, 69, 0
2, 115120, Note_on_c, 1, 54, 127
2, 115120, Note_on_c, 1, 62, 127
2, 115120, Note_on_c, 1, 66, 127
2, 115120, Note_on_c, 1, 69, 127
2, 115480, Note_off_c, 1, 54, 0
2, 115480, Note_off_c, 1, 62, 0
2, 115480, Note_off_c, 1, 66, 0
2, 115480, Note_off_c, 1, 69, 0
2, 115520, Note_on_c, 1, 43, 127
2, 115520, Note_off_c, 1, 45, 0
2, 115520, Note_on_c, 1, 51, 127
2, 115520, Note_on_c, 1, 73, 127
2, 115520, Note_on_c, 1, 82, 127
2, 115720, Note_on_c, 1, 72, 127
2, 115720, Note_off_c, 1, 73, 0
2, 115800, Note_off_c, 1, 72, 0
2, 115840, Note_on_c, 1, 72, 127
2, 115880, Note_off_c, 1, 43, 0
2, 115880, Note_off_c, 1, 51, 0
2, 115880, Note_off_c, 1, 72, 0
2, 115880, Note_off_c, 1, 82, 0
2, 115920, Note_on_c, 1, 43, 127
2, 115920, Note_on_c, 1, 51, 127
2, 115920, Note_on_c, 1, 72, 127
2, 115920, Note_on_c, 1, 82, 127
2, 116320, Note_off_c, 1, 43, 0
2, 116320, Note_off_c, 1, 51, 0
2, 116320, Note_off_c, 1, 72, 0
2, 116320, Note_off_c, 1, 82, 0
2, 116360, Note_on_c, 1, 43, 127
2, 116360, Note_on_c, 1, 51, 127
2, 116360, Note_on_c, 1, 73, 127
2, 116360, Note_on_c, 1, 82, 127
2, 116400, Note_on_c, 1, 72, 127
2, 116400, Note_off_c, 1, 73, 0
2, 116520, Note_off_c, 1, 72, 0
2, 116600, Note_on_c, 1, 72, 127
2, 116760, Note_off_c, 1, 72, 0
2, 116800, Note_on_c, 1, 72, 127
2, 116960, Note_off_c, 1, 72, 0
2, 116960, Note_on_c, 1, 73, 127
2, 117000, Note_off_c, 1, 73, 0
2, 117040, Note_on_c, 1, 72, 127
2, 117120, Note_off_c, 1, 43, 0
2, 117120, Note_off_c, 1, 51, 0
2, 117120, Note_off_c, 1, 72, 0
2, 117120, Note_off_c, 1, 82, 0
2, 117160, Note_on_c, 1, 55, 127
2, 117160, Note_on_c, 1, 69, 127
2, 117160, Note_on_c, 1, 75, 127
2, 117160, Note_on_c, 1, 77, 127
2, 117160, Note_on_c, 1, 81, 127
2, 117200, Note_on_c, 1, 43, 127
2, 117200, Note_on_c, 1, 49, 127
2, 117200, Note_off_c, 1, 55, 0
2, 117200, Note_on_c, 1, 57, 127
2, 117200, Note_off_c, 1, 69, 0
2, 117200, Note_off_c, 1, 75, 0
2, 117200, Note_off_c, 1, 77, 0
2, 117200, Note_off_c, 1, 81, 0
2, 117200, Note_on_c, 1, 88, 127
2, 117200, Note_on_c, 1, 97, 127
2, 117200, Note_on_c, 1, 100, 127
2, 117520, Note_off_c, 1, 43, 0
2, 117520, Note_on_c, 1, 46, 127
2, 117520, Note_off_c, 1, 49, 0
2, 117520, Note_on_c, 1, 52, 127
2, 117520, Note_off_c, 1, 57, 0
2, 117520, Note_off_c, 1, 88, 0
2, 117520, Note_off_c, 1, 97, 0
2, 117520, Note_off_c, 1, 100, 0
2, 117560, Note_off_c, 1, 46, 0
2, 117560, Note_off_c, 1, 52, 0
2, 117560, Note_on_c, 1, 55, 127
2, 117560, Note_on_c, 1, 58, 127
2, 117560, Note_on_c, 1, 72, 127
2, 117560, Note_on_c, 1, 79, 127
2, 117560, Note_on_c, 1, 84, 127
2, 117720, Note_off_c, 1, 58, 0
2, 117720, Note_off_c, 1, 72, 0
2, 117720, Note_on_c, 1, 73, 127
2, 117720, Note_off_c, 1, 84, 0
2, 117720, Note_on_c, 1, 85, 127
2, 117760, Note_on_c, 1, 46, 127
2, 117760, Note_off_c, 1, 55, 0
2, 117800, Note_off_c, 1, 46, 0
2, 117800, Note_on_c, 1, 55, 127
2, 117840, Note_on_c, 1, 52, 127
2, 117840, Note_off_c, 1, 55, 0
2, 117880, Note_off_c, 1, 52, 0
2, 117880, Note_on_c, 1, 55, 127
2, 117880, Note_on_c, 1, 58, 127
2, 117880, Note_on_c, 1, 72, 127
2, 117880, Note_off_c, 1, 73, 0
2, 117880, Note_on_c, 1, 84, 127
2, 117880, Note_off_c, 1, 85, 0
2, 117920, Note_off_c, 1, 55, 0
2, 117920, Note_off_c, 1, 58, 0
2, 117920, Note_off_c, 1, 72, 0
2, 117920, Note_off_c, 1, 79, 0
2, 117920, Note_off_c, 1, 84, 0
2, 118000, Note_on_c, 1, 72, 127
2, 118000, Note_on_c, 1, 86, 127
2, 118000, Note_on_c, 1, 98, 127
2, 118000, Note_on_c, 1, 99, 127
2, 118040, Note_on_c, 1, 35, 127
2, 118040, Note_on_c, 1, 47, 127
2, 118040, Note_off_c, 1, 72, 0
2, 118040, Note_on_c, 1, 74, 127
2, 118040, Note_on_c, 1, 79, 127
2, 118040, Note_on_c, 1, 83, 127
2, 118040, Note_off_c, 1, 86, 0
2, 118040, Note_off_c, 1, 98, 0
2, 118040, Note_off_c, 1, 99, 0
2, 118360, Note_off_c, 1, 35, 0
2, 118360, Note_off_c, 1, 47, 0
2, 118360, Note_off_c, 1, 74, 0
2, 118360, Note_off_c, 1, 79, 0
2, 118360, Note_off_c, 1, 83, 0
2, 118400, Note_on_c, 1, 55, 127
2, 118400, Note_on_c, 1, 60, 127
2, 118400, Note_on_c, 1, 63, 127
2, 118400, Note_on_c, 1, 66, 127
2, 118400, Note_on_c, 1, 93, 127
2, 118440, Note_on_c, 1, 94, 127
2, 118800, Note_on_c, 1, 92, 127
2, 118800, Note_off_c, 1, 94, 0
2, 118840, Note_off_c, 1, 92, 0
2, 118840, Note_off_c, 1, 93, 0
2, 118840, Note_on_c, 1, 94, 127
2, 118880, Note_on_c, 1, 93, 127
2, 118960, Note_on_c, 1, 92, 127
2, 118960, Note_off_c, 1, 94, 0
2, 119120, Note_off_c, 1, 92, 0
2, 119120, Note_on_c, 1, 94, 127
2, 119160, Note_off_c, 1, 55, 0
2, 119160, Note_off_c, 1, 60, 0
2, 119160, Note_off_c, 1, 63, 0
2, 119160, Note_off_c, 1, 66, 0
2, 119160, Note_off_c, 1, 93, 0
2, 119160, Note_off_c, 1, 94, 0
2, 119200, Note_on_c, 1, 53, 127
2, 119200, Note_on_c, 1, 57, 127
2, 119200, Note_on_c, 1, 60, 127
2, 119200, Note_on_c, 1, 65, 127
2, 119200, Note_on_c, 1, 72, 127
2, 119200, Note_on_c, 1, 81, 127
2, 119240, Note_off_c, 1, 53, 0
2, 119240, Note_on_c, 1, 55, 127
2, 119240, Note_off_c, 1, 57, 0
2, 119240, Note_on_c, 1, 63, 127
2, 119240, Note_off_c, 1, 65, 0
2, 119240, Note_on_c, 1, 66, 127
2, 119240, Note_off_c, 1, 72, 0
2, 119240, Note_on_c, 1, 82, 127
2, 119520, Note_off_c, 1, 82, 0
2, 119560, Note_off_c, 1, 55, 0
2, 119560, Note_off_c, 1, 60, 0
2, 119560, Note_off_c, 1, 63, 0
2, 119560, Note_off_c, 1, 66, 0
2, 119600, Note_on_c, 1, 55, 127
2, 119600, Note_on_c, 1, 60, 127
2, 119600, Note_on_c, 1, 63, 127
2, 119600, Note_on_c, 1, 66, 127
2, 119600, Note_on_c, 1, 82, 127
2, 119760, Note_on_c, 1, 80, 127
2, 119800, Note_off_c, 1, 55, 0
2, 119800, Note_off_c, 1, 60, 0
2, 119800, Note_off_c, 1, 63, 0
2, 119800, Note_off_c, 1, 66, 0
2, 119800, Note_on_c, 1, 72, 127
2, 119800, Note_on_c, 1, 77, 127
2, 119800, Note_off_c, 1, 80, 0
2, 119800, Note_off_c, 1, 81, 0
2, 119800, Note_off_c, 1, 82, 0
2, 119800, Note_on_c, 1, 89, 127
2, 119800, Note_on_c, 1, 93, 127
2, 119840, Note_on_c, 1, 55, 127
2, 119840, Note_on_c, 1, 60, 127
2, 119840, Note_on_c, 1, 63, 127
2, 119840, Note_on_c, 1, 66, 127
2, 119840, Note_off_c, 1, 72, 0
2, 119840, Note_off_c, 1, 77, 0
2, 119840, Note_on_c, 1, 81, 127
2, 119840, Note_on_c, 1, 82, 127
2, 119840, Note_off_c, 1, 89, 0
2, 119840, Note_off_c, 1, 93, 0
2, 119960, Note_on_c, 1, 80, 127
2, 120000, Note_off_c, 1, 55, 0
2, 120000, Note_off_c, 1, 60, 0
2, 120000, Note_off_c, 1, 63, 0
2, 120000, Note_off_c, 1, 66, 0
2, 120000, Note_off_c, 1, 80, 0
2, 120000, Note_off_c, 1, 81, 0
2, 120000, Note_off_c, 1, 82, 0
2, 120040, End_track
3, 0, Start_track
3, 0, Title_t, "MIDI"
3, 1536, End_track
0, 0, End_of_file
