0, 0, Header, 1, 3, 192
1, 0, Start_track
1, 0, Time_signature, 4, 2, 24, 8
1, 0, Tempo, 500000
1, 120040, End_track
2, 0, Start_track
2, 0, Text_t, "random instrument: random person i dunno whatev"
2, 0, Title_t, "Track 1"
2, 0, Note_on_c, 1, 40, 127
2, 0, Note_on_c, 1, 48, 127
2, 0, Note_on_c, 1, 56, 127
2, 0, Note_on_c, 1, 60, 127
2, 440, Note_off_c, 1, 40, 0
2, 440, Note_off_c, 1, 48, 0
2, 440, Note_off_c, 1, 56, 0
2, 440, Note_off_c, 1, 60, 0
2, 480, Note_on_c, 1, 40, 127
2, 480, Note_on_c, 1, 48, 127
2, 480, Note_on_c, 1, 56, 127
2, 480, Note_on_c, 1, 60, 127
2, 520, Note_off_c, 1, 40, 0
2, 520, Note_off_c, 1, 48, 0
2, 520, Note_off_c, 1, 56, 0
2, 520, Note_off_c, 1, 60, 0
2, 560, Note_on_c, 1, 79, 127
2, 2000, Note_off_c, 1, 79, 0
2, 2040, Note_on_c, 1, 78, 127
2, 2280, Note_off_c, 1, 78, 0
2, 2320, Note_on_c, 1, 79, 127
2, 2480, Note_off_c, 1, 79, 0
2, 2520, Note_on_c, 1, 79, 127
2, 3920, Note_off_c, 1, 79, 0
2, 3960, Note_on_c, 1, 80, 127
2, 4720, Note_off_c, 1, 80, 0
2, 4760, Note_on_c, 1, 80, 127
2, 4920, Note_off_c, 1, 80, 0
2, 4960, Note_on_c, 1, 78, 127
2, 5640, Note_off_c, 1, 78, 0
2, 5680, Note_on_c, 1, 79, 127
2, 6040, Note_off_c, 1, 79, 0
2, 6080, Note_on_c, 1, 78, 127
2, 7040, Note_off_c, 1, 78, 0
2, 7080, Note_on_c, 1, 78, 127
2, 7200, Note_off_c, 1, 78, 0
2, 7240, Note_on_c, 1, 92, 127
2, 7400, Note_on_c, 1, 80, 127
2, 7400, Note_off_c, 1, 92, 0
2, 7440, Note_off_c, 1, 80, 0
2, 7440, Note_on_c, 1, 92, 127
2, 8160, Note_off_c, 1, 92, 0
2, 13400, Note_on_c, 1, 37, 127
2, 13400, Note_on_c, 1, 49, 127
2, 15240, Note_off_c, 1, 37, 0
2, 15240, Note_off_c, 1, 49, 0
2, 18240, Note_on_c, 1, 40, 127
2, 18240, Note_on_c, 1, 52, 127
2, 18240, Note_on_c, 1, 64, 127
2, 21120, Note_off_c, 1, 40, 0
2, 21120, Note_off_c, 1, 52, 0
2, 21120, Note_off_c, 1, 64, 0
2, 21160, Note_on_c, 1, 40, 127
2, 21160, Note_on_c, 1, 52, 127
2, 21160, Note_on_c, 1, 64, 127
2, 23560, Note_on_c, 1, 39, 127
2, 23560, Note_off_c, 1, 40, 0
2, 23560, Note_on_c, 1, 51, 127
2, 23560, Note_off_c, 1, 52, 0
2, 23560, Note_on_c, 1, 63, 127
2, 23560, Note_off_c, 1, 64, 0
2, 23600, Note_off_c, 1, 39, 0
2, 23600, Note_on_c, 1, 40, 127
2, 23600, Note_off_c, 1, 51, 0
2, 23600, Note_on_c, 1, 52, 127
2, 23600, Note_off_c, 1, 63, 0
2, 23600, Note_on_c, 1, 64, 127
2, 25800, Note_off_c, 1, 40, 0
2, 25800, Note_off_c, 1, 52, 0
2, 25800, Note_off_c, 1, 64, 0
2, 25840, Note_on_c, 1, 40, 127
2, 25840, Note_on_c, 1, 52, 127
2, 25840, Note_on_c, 1, 64, 127
2, 28360, Note_off_c, 1, 40, 0
2, 28360, Note_off_c, 1, 52, 0
2, 28360, Note_off_c, 1, 64, 0
2, 28400, Note_on_c, 1, 40, 127
2, 28400, Note_on_c, 1, 52, 127
2, 28400, Note_on_c, 1, 64, 127
2, 30680, Note_off_c, 1, 40, 0
2, 30680, Note_on_c, 1, 41, 127
2, 30680, Note_off_c, 1, 52, 0
2, 30680, Note_on_c, 1, 53, 127
2, 30680, Note_off_c, 1, 64, 0
2, 30680, Note_on_c, 1, 65, 127
2, 30720, Note_on_c, 1, 40, 127
2, 30720, Note_off_c, 1, 41, 0
2, 30720, Note_on_c, 1, 52, 127
2, 30720, Note_off_c, 1, 53, 0
2, 30720, Note_on_c, 1, 64, 127
2, 30720, Note_off_c, 1, 65, 0
2, 31160, Note_off_c, 1, 40, 0
2, 31160, Note_off_c, 1, 52, 0
2, 31160, Note_off_c, 1, 64, 0
2, 31200, Note_on_c, 1, 40, 127
2, 31200, Note_on_c, 1, 52, 127
2, 31200, Note_on_c, 1, 64, 127
2, 33640, Note_off_c, 1, 40, 0
2, 33640, Note_off_c, 1, 52, 0
2, 33640, Note_off_c, 1, 64, 0
2, 51120, Note_on_c, 1, 41, 127
2, 51880, Note_off_c, 1, 41, 0
2, 51920, Note_on_c, 1, 53, 127
2, 52240, Note_off_c, 1, 53, 0
2, 52280, Note_on_c, 1, 46, 127
2, 52640, Note_off_c, 1, 46, 0
2, 52720, Note_on_c, 1, 41, 127
2, 53040, Note_off_c, 1, 41, 0
2, 53080, Note_on_c, 1, 46, 127
2, 53440, Note_off_c, 1, 46, 0
2, 53480, Note_on_c, 1, 58, 127
2, 53800, Note_off_c, 1, 58, 0
2, 53840, Note_on_c, 1, 60, 127
2, 54200, Note_off_c, 1, 60, 0
2, 54240, Note_on_c, 1, 58, 127
2, 54600, Note_off_c, 1, 58, 0
2, 54640, Note_on_c, 1, 58, 127
2, 54960, Note_off_c, 1, 58, 0
2, 55000, Note_on_c, 1, 53, 127
2, 55360, Note_off_c, 1, 53, 0
2, 55400, Note_on_c, 1, 46, 127
2, 55720, Note_off_c, 1, 46, 0
2, 55760, Note_on_c, 1, 46, 127
2, 55800, Note_off_c, 1, 46, 0
2, 55840, Note_on_c, 1, 46, 127
2, 56160, Note_off_c, 1, 46, 0
2, 56200, Note_on_c, 1, 58, 127
2, 56560, Note_off_c, 1, 58, 0
2, 56600, Note_on_c, 1, 53, 127
2, 56920, Note_off_c, 1, 53, 0
2, 56960, Note_on_c, 1, 54, 127
2, 57320, Note_off_c, 1, 54, 0
2, 57360, Note_on_c, 1, 46, 127
2, 57680, Note_off_c, 1, 46, 0
2, 57720, Note_on_c, 1, 53, 127
2, 58080, Note_off_c, 1, 53, 0
2, 58160, Note_on_c, 1, 51, 127
2, 58480, Note_off_c, 1, 51, 0
2, 58520, Note_on_c, 1, 53, 127
2, 58880, Note_off_c, 1, 53, 0
2, 58920, Note_on_c, 1, 51, 127
2, 59240, Note_off_c, 1, 51, 0
2, 59280, Note_on_c, 1, 53, 127
2, 59640, Note_off_c, 1, 53, 0
2, 59680, Note_on_c, 1, 46, 127
2, 60000, Note_off_c, 1, 46, 0
2, 60040, Note_on_c, 1, 39, 127
2, 60400, Note_off_c, 1, 39, 0
2, 60440, Note_on_c, 1, 39, 127
2, 60760, Note_off_c, 1, 39, 0
2, 60800, Note_on_c, 1, 39, 127
2, 60840, Note_off_c, 1, 39, 0
2, 60880, Note_on_c, 1, 39, 127
2, 61240, Note_off_c, 1, 39, 0
2, 61280, Note_on_c, 1, 39, 127
2, 61600, Note_off_c, 1, 39, 0
2, 61640, Note_on_c, 1, 39, 127
2, 62000, Note_off_c, 1, 39, 0
2, 62040, Note_on_c, 1, 39, 127
2, 62360, Note_off_c, 1, 39, 0
2, 62400, Note_on_c, 1, 46, 127
2, 62760, Note_off_c, 1, 46, 0
2, 62800, Note_on_c, 1, 46, 127
2, 63000, Note_off_c, 1, 46, 0
2, 63040, Note_on_c, 1, 46, 127
2, 63160, Note_off_c, 1, 46, 0
2, 63200, Note_on_c, 1, 38, 127
2, 63520, Note_off_c, 1, 38, 0
2, 63560, Note_on_c, 1, 46, 127
2, 63920, Note_off_c, 1, 46, 0
2, 63960, Note_on_c, 1, 46, 127
2, 64280, Note_off_c, 1, 46, 0
2, 64320, Note_on_c, 1, 39, 127
2, 64680, Note_off_c, 1, 39, 0
2, 64720, Note_on_c, 1, 39, 127
2, 65040, Note_off_c, 1, 39, 0
2, 65080, Note_on_c, 1, 38, 127
2, 65400, Note_off_c, 1, 38, 0
2, 65440, Note_on_c, 1, 38, 127
2, 65480, Note_off_c, 1, 38, 0
2, 65520, Note_on_c, 1, 34, 127
2, 65840, Note_off_c, 1, 34, 0
2, 65880, Note_on_c, 1, 34, 127
2, 66600, Note_off_c, 1, 34, 0
2, 66640, Note_on_c, 1, 39, 127
2, 67360, Note_off_c, 1, 39, 0
2, 67400, Note_on_c, 1, 39, 127
2, 67760, Note_off_c, 1, 39, 0
2, 67840, Note_on_c, 1, 39, 127
2, 68160, Note_off_c, 1, 39, 0
2, 68200, Note_on_c, 1, 39, 127
2, 68560, Note_off_c, 1, 39, 0
2, 68600, Note_on_c, 1, 39, 127
2, 68920, Note_off_c, 1, 39, 0
2, 68960, Note_on_c, 1, 39, 127
2, 69320, Note_off_c, 1, 39, 0
2, 69360, Note_on_c, 1, 39, 127
2, 69680, Note_off_c, 1, 39, 0
2, 69720, Note_on_c, 1, 39, 127
2, 70080, Note_off_c, 1, 39, 0
2, 70160, Note_on_c, 1, 39, 127
2, 70480, Note_off_c, 1, 39, 0
2, 70520, Note_on_c, 1, 39, 127
2, 70880, Note_off_c, 1, 39, 0
2, 70920, Note_on_c, 1, 39, 127
2, 71240, Note_off_c, 1, 39, 0
2, 71280, Note_on_c, 1, 39, 127
2, 71600, Note_off_c, 1, 39, 0
2, 71640, Note_on_c, 1, 39, 127
2, 72000, Note_off_c, 1, 39, 0
2, 72040, Note_on_c, 1, 39, 127
2, 72360, Note_off_c, 1, 39, 0
2, 72400, Note_on_c, 1, 39, 127
2, 72760, Note_off_c, 1, 39, 0
2, 72840, Note_on_c, 1, 39, 127
2, 73160, Note_off_c, 1, 39, 0
2, 73200, Note_on_c, 1, 39, 127
2, 73560, Note_off_c, 1, 39, 0
2, 73600, Note_on_c, 1, 39, 127
2, 73920, Note_off_c, 1, 39, 0
2, 73960, Note_on_c, 1, 39, 127
2, 74320, Note_off_c, 1, 39, 0
2, 74360, Note_on_c, 1, 39, 127
2, 74680, Note_off_c, 1, 39, 0
2, 74720, Note_on_c, 1, 55, 127
2, 74720, Note_on_c, 1, 58, 127
2, 74720, Note_on_c, 1, 62, 127
2, 74720, Note_on_c, 1, 67, 127
2, 74720, Note_on_c, 1, 70, 127
2, 75040, Note_off_c, 1, 55, 0
2, 75040, Note_off_c, 1, 58, 0
2, 75040, Note_off_c, 1, 62, 0
2, 75040, Note_off_c, 1, 67, 0
2, 75040, Note_off_c, 1, 70, 0
2, 75080, Note_on_c, 1, 55, 127
2, 75080, Note_on_c, 1, 58, 127
2, 75080, Note_on_c, 1, 62, 127
2, 75080, Note_on_c, 1, 67, 127
2, 75080, Note_on_c, 1, 70, 127
2, 75480, Note_off_c, 1, 62, 0
2, 75480, Note_off_c, 1, 67, 0
2, 75480, Note_off_c, 1, 70, 0
2, 75520, Note_on_c, 1, 63, 127
2, 77440, Note_off_c, 1, 55, 0
2, 77440, Note_off_c, 1, 58, 0
2, 77440, Note_off_c, 1, 63, 0
2, 77480, Note_on_c, 1, 55, 127
2, 77480, Note_on_c, 1, 58, 127
2, 77480, Note_on_c, 1, 63, 127
2, 78640, Note_off_c, 1, 55, 0
2, 78640, Note_on_c, 1, 67, 127
2, 79000, Note_off_c, 1, 58, 0
2, 79000, Note_off_c, 1, 63, 0
2, 79000, Note_off_c, 1, 67, 0
2, 79080, Note_on_c, 1, 58, 127
2, 79080, Note_on_c, 1, 63, 127
2, 79080, Note_on_c, 1, 67, 127
2, 79640, Note_off_c, 1, 58, 0
2, 79640, Note_off_c, 1, 63, 0
2, 79640, Note_off_c, 1, 67, 0
2, 79680, Note_on_c, 1, 58, 127
2, 79680, Note_on_c, 1, 63, 127
2, 79680, Note_on_c, 1, 67, 127
2, 79880, Note_off_c, 1, 58, 0
2, 79880, Note_off_c, 1, 63, 0
2, 79880, Note_off_c, 1, 67, 0
2, 79920, Note_on_c, 1, 58, 127
2, 79920, Note_on_c, 1, 63, 127
2, 79920, Note_on_c, 1, 67, 127
2, 80640, Note_off_c, 1, 58, 0
2, 80640, Note_off_c, 1, 63, 0
2, 80640, Note_off_c, 1, 67, 0
2, 80720, Note_on_c, 1, 58, 127
2, 80720, Note_on_c, 1, 62, 127
2, 80720, Note_on_c, 1, 65, 127
2, 81400, Note_off_c, 1, 58, 0
2, 81400, Note_off_c, 1, 62, 0
2, 81400, Note_off_c, 1, 65, 0
2, 96600, Note_on_c, 1, 68, 127
2, 97120, Note_off_c, 1, 68, 0
2, 97160, Note_on_c, 1, 68, 127
2, 97360, Note_off_c, 1, 68, 0
2, 97400, Note_on_c, 1, 54, 127
2, 97400, Note_on_c, 1, 60, 127
2, 97400, Note_on_c, 1, 69, 127
2, 98120, Note_off_c, 1, 60, 0
2, 98160, Note_on_c, 1, 62, 127
2, 98520, Note_off_c, 1, 62, 0
2, 98560, Note_on_c, 1, 60, 127
2, 98920, Note_off_c, 1, 60, 0
2, 98960, Note_on_c, 1, 60, 127
2, 99320, Note_off_c, 1, 60, 0
2, 99320, Note_off_c, 1, 69, 0
2, 99360, Note_on_c, 1, 60, 127
2, 99720, Note_off_c, 1, 54, 0
2, 99720, Note_off_c, 1, 60, 0
2, 99760, Note_on_c, 1, 54, 127
2, 99800, Note_on_c, 1, 60, 127
2, 100160, Note_off_c, 1, 60, 0
2, 100160, Note_on_c, 1, 63, 127
2, 100520, Note_off_c, 1, 54, 0
2, 100520, Note_off_c, 1, 63, 0
2, 100560, Note_on_c, 1, 49, 127
2, 100560, Note_on_c, 1, 64, 127
2, 101320, Note_off_c, 1, 49, 0
2, 101320, Note_off_c, 1, 64, 0
2, 101360, Note_on_c, 1, 49, 127
2, 101360, Note_on_c, 1, 64, 127
2, 101720, Note_off_c, 1, 49, 0
2, 101760, Note_on_c, 1, 49, 127
2, 102120, Note_off_c, 1, 49, 0
2, 102120, Note_off_c, 1, 64, 0
2, 102200, Note_on_c, 1, 37, 127
2, 102200, Note_on_c, 1, 61, 127
2, 102560, Note_off_c, 1, 37, 0
2, 102600, Note_on_c, 1, 45, 127
2, 102960, Note_off_c, 1, 45, 0
2, 102960, Note_off_c, 1, 61, 0
2, 103000, Note_on_c, 1, 64, 127
2, 103720, Note_off_c, 1, 64, 0
2, 103760, Note_on_c, 1, 69, 127
2, 104160, Note_off_c, 1, 69, 0
2, 104200, Note_on_c, 1, 45, 127
2, 104200, Note_on_c, 1, 68, 127
2, 104560, Note_off_c, 1, 45, 0
2, 104560, Note_off_c, 1, 68, 0
2, 104600, Note_on_c, 1, 52, 127
2, 104600, Note_on_c, 1, 67, 127
2, 104960, Note_off_c, 1, 52, 0
2, 104960, Note_off_c, 1, 67, 0
2, 105000, Note_on_c, 1, 45, 127
2, 105000, Note_on_c, 1, 66, 127
2, 105320, Note_off_c, 1, 66, 0
2, 105360, Note_on_c, 1, 61, 127
2, 105720, Note_off_c, 1, 45, 0
2, 105760, Note_on_c, 1, 52, 127
2, 106120, Note_off_c, 1, 52, 0
2, 106160, Note_off_c, 1, 61, 0
2, 106200, Note_on_c, 1, 55, 127
2, 106200, Note_on_c, 1, 61, 127
2, 106520, Note_off_c, 1, 55, 0
2, 106520, Note_off_c, 1, 61, 0
2, 106560, Note_on_c, 1, 61, 127
2, 108080, Note_off_c, 1, 61, 0
2, 108120, Note_on_c, 1, 52, 127
2, 108440, Note_off_c, 1, 52, 0
2, 108480, Note_on_c, 1, 52, 127
2, 108520, Note_off_c, 1, 52, 0
2, 108560, Note_on_c, 1, 54, 127
2, 108920, Note_off_c, 1, 54, 0
2, 108960, Note_on_c, 1, 48, 127
2, 109680, Note_off_c, 1, 48, 0
2, 109720, Note_on_c, 1, 51, 127
2, 110080, Note_off_c, 1, 51, 0
2, 110120, Note_on_c, 1, 52, 127
2, 110480, Note_off_c, 1, 52, 0
2, 110520, Note_on_c, 1, 47, 127
2, 110840, Note_off_c, 1, 47, 0
2, 110880, Note_on_c, 1, 47, 127
2, 110920, Note_off_c, 1, 47, 0
2, 110960, Note_on_c, 1, 45, 127
2, 111320, Note_off_c, 1, 45, 0
2, 111360, Note_on_c, 1, 50, 127
2, 111720, Note_off_c, 1, 50, 0
2, 111760, Note_on_c, 1, 56, 127
2, 112080, Note_off_c, 1, 56, 0
2, 112120, Note_on_c, 1, 50, 127
2, 112480, Note_off_c, 1, 50, 0
2, 112520, Note_on_c, 1, 50, 127
2, 112880, Note_off_c, 1, 50, 0
2, 112920, Note_on_c, 1, 54, 127
2, 113240, Note_off_c, 1, 54, 0
2, 113280, Note_on_c, 1, 54, 127
2, 113320, Note_off_c, 1, 54, 0
2, 113360, Note_on_c, 1, 57, 127
2, 113680, Note_off_c, 1, 57, 0
2, 113720, Note_on_c, 1, 54, 127
2, 114080, Note_off_c, 1, 54, 0
2, 114120, Note_on_c, 1, 50, 127
2, 114480, Note_off_c, 1, 50, 0
2, 114520, Note_on_c, 1, 50, 127
2, 114880, Note_off_c, 1, 50, 0
2, 114920, Note_on_c, 1, 50, 127
2, 115280, Note_off_c, 1, 50, 0
2, 115320, Note_on_c, 1, 38, 127
2, 115680, Note_off_c, 1, 38, 0
2, 115760, Note_on_c, 1, 45, 127
2, 116080, Note_off_c, 1, 45, 0
2, 116120, Note_on_c, 1, 50, 127
2, 116480, Note_off_c, 1, 50, 0
2, 116520, Note_on_c, 1, 54, 127
2, 116840, Note_off_c, 1, 54, 0
2, 116880, Note_on_c, 1, 62, 127
2, 117240, Note_off_c, 1, 62, 0
2, 117280, Note_on_c, 1, 66, 127
2, 117600, Note_off_c, 1, 66, 0
2, 117640, Note_on_c, 1, 67, 127
2, 118000, Note_off_c, 1, 67, 0
2, 118080, Note_on_c, 1, 66, 127
2, 118400, Note_off_c, 1, 66, 0
2, 118440, Note_on_c, 1, 67, 127
2, 118800, Note_off_c, 1, 67, 0
2, 118840, Note_on_c, 1, 69, 127
2, 119200, Note_off_c, 1, 69, 0
2, 119240, Note_on_c, 1, 66, 127
2, 119560, Note_off_c, 1, 66, 0
2, 119600, Note_on_c, 1, 69, 127
2, 119960, Note_off_c, 1, 69, 0
2, 120040, End_track
3, 0, Start_track
3, 0, Title_t, "MIDI"
3, 1536, End_track
0, 0, End_of_file
