0, 0, Header, 1, 3, 192
1, 0, Start_track
1, 0, Time_signature, 4, 2, 24, 8
1, 0, Tempo, 500000
1, 120040, End_track
2, 0, Start_track
2, 0, Text_t, "random instrument: random person i dunno whatev"
2, 0, Title_t, "Track 1"
2, 0, Note_on_c, 1, 40, 127
2, 0, Note_on_c, 1, 48, 127
2, 0, Note_on_c, 1, 56, 127
2, 0, Note_on_c, 1, 60, 127
2, 40, Note_off_c, 1, 40, 0
2, 40, Note_on_c, 1, 42, 127
2, 40, Note_off_c, 1, 48, 0
2, 40, Note_on_c, 1, 49, 127
2, 40, Note_on_c, 1, 54, 127
2, 40, Note_off_c, 1, 56, 0
2, 40, Note_off_c, 1, 60, 0
2, 40, Note_on_c, 1, 82, 127
2, 40, Note_on_c, 1, 88, 127
2, 40, Note_on_c, 1, 94, 127
2, 80, Note_off_c, 1, 42, 0
2, 80, Note_off_c, 1, 49, 0
2, 80, Note_on_c, 1, 52, 127
2, 80, Note_off_c, 1, 54, 0
2, 80, Note_on_c, 1, 57, 127
2, 80, Note_on_c, 1, 61, 127
2, 80, Note_on_c, 1, 64, 127
2, 80, Note_on_c, 1, 69, 127
2, 80, Note_on_c, 1, 73, 127
2, 80, Note_on_c, 1, 78, 127
2, 80, Note_off_c, 1, 82, 0
2, 80, Note_off_c, 1, 88, 0
2, 80, Note_off_c, 1, 94, 0
2, 120, Note_off_c, 1, 52, 0
2, 120, Note_off_c, 1, 57, 0
2, 120, Note_off_c, 1, 61, 0
2, 120, Note_off_c, 1, 64, 0
2, 120, Note_off_c, 1, 69, 0
2, 120, Note_off_c, 1, 73, 0
2, 120, Note_off_c, 1, 78, 0
2, 1280, Note_on_c, 1, 38, 127
2, 1280, Note_on_c, 1, 54, 127
2, 1280, Note_on_c, 1, 62, 127
2, 1520, Note_off_c, 1, 38, 0
2, 1520, Note_on_c, 1, 39, 127
2, 1520, Note_on_c, 1, 45, 127
2, 1520, Note_off_c, 1, 54, 0
2, 1520, Note_on_c, 1, 60, 127
2, 1520, Note_off_c, 1, 62, 0
2, 1520, Note_on_c, 1, 66, 127
2, 1520, Note_on_c, 1, 69, 127
2, 1560, Note_on_c, 1, 37, 127
2, 1560, Note_off_c, 1, 39, 0
2, 1560, Note_off_c, 1, 45, 0
2, 1560, Note_off_c, 1, 60, 0
2, 1560, Note_on_c, 1, 64, 127
2, 1560, Note_off_c, 1, 66, 0
2, 1560, Note_on_c, 1, 67, 127
2, 1560, Note_off_c, 1, 69, 0
2, 1560, Note_on_c, 1, 73, 127
2, 1720, Note_off_c, 1, 64, 0
2, 1720, Note_off_c, 1, 67, 0
2, 1720, Note_off_c, 1, 73, 0
2, 1840, Note_off_c, 1, 37, 0
2, 1840, Note_on_c, 1, 42, 127
2, 1840, Note_on_c, 1, 46, 127
2, 1840, Note_on_c, 1, 49, 127
2, 1840, Note_on_c, 1, 52, 127
2, 1840, Note_on_c, 1, 88, 127
2, 1880, Note_on_c, 1, 34, 127
2, 1880, Note_off_c, 1, 42, 0
2, 1880, Note_off_c, 1, 46, 0
2, 1880, Note_off_c, 1, 49, 0
2, 1880, Note_off_c, 1, 52, 0
2, 1880, Note_on_c, 1, 81, 127
2, 1880, Note_on_c, 1, 82, 127
2, 1880, Note_off_c, 1, 88, 0
2, 1920, Note_off_c, 1, 34, 0
2, 1920, Note_on_c, 1, 38, 127
2, 1920, Note_on_c, 1, 45, 127
2, 1920, Note_on_c, 1, 52, 127
2, 1920, Note_on_c, 1, 55, 127
2, 1920, Note_on_c, 1, 59, 127
2, 1920, Note_off_c, 1, 81, 0
2, 1920, Note_off_c, 1, 82, 0
2, 1960, Note_on_c, 1, 32, 127
2, 1960, Note_off_c, 1, 38, 0
2, 1960, Note_off_c, 1, 45, 0
2, 1960, Note_on_c, 1, 48, 127
2, 1960, Note_off_c, 1, 52, 0
2, 1960, Note_off_c, 1, 55, 0
2, 1960, Note_off_c, 1, 59, 0
2, 1960, Note_on_c, 1, 60, 127
2, 1960, Note_on_c, 1, 68, 127
2, 2000, Note_off_c, 1, 32, 0
2, 2000, Note_off_c, 1, 48, 0
2, 2000, Note_off_c, 1, 60, 0
2, 2000, Note_off_c, 1, 68, 0
2, 2240, Note_on_c, 1, 56, 127
2, 2240, Note_on_c, 1, 68, 127
2, 2240, Note_on_c, 1, 73, 127
2, 2240, Note_on_c, 1, 76, 127
2, 2240, Note_on_c, 1, 80, 127
2, 2240, Note_on_c, 1, 85, 127
2, 2280, Note_off_c, 1, 56, 0
2, 2280, Note_on_c, 1, 60, 127
2, 2280, Note_off_c, 1, 73, 0
2, 2280, Note_off_c, 1, 76, 0
2, 2280, Note_off_c, 1, 85, 0
2, 2280, Note_on_c, 1, 87, 127
2, 2320, Note_off_c, 1, 60, 0
2, 2320, Note_on_c, 1, 64, 127
2, 2320, Note_on_c, 1, 67, 127
2, 2320, Note_off_c, 1, 68, 0
2, 2320, Note_on_c, 1, 71, 127
2, 2320, Note_on_c, 1, 79, 127
2, 2320, Note_off_c, 1, 80, 0
2, 2320, Note_on_c, 1, 83, 127
2, 2320, Note_off_c, 1, 87, 0
2, 2320, Note_on_c, 1, 88, 127
2, 2360, Note_on_c, 1, 60, 127
2, 2360, Note_off_c, 1, 64, 0
2, 2360, Note_off_c, 1, 67, 0
2, 2360, Note_on_c, 1, 68, 127
2, 2360, Note_off_c, 1, 71, 0
2, 2360, Note_off_c, 1, 79, 0
2, 2360, Note_on_c, 1, 80, 127
2, 2360, Note_off_c, 1, 83, 0
2, 2360, Note_on_c, 1, 87, 127
2, 2360, Note_off_c, 1, 88, 0
2, 2440, Note_on_c, 1, 52, 127
2, 2440, Note_off_c, 1, 60, 0
2, 2440, Note_on_c, 1, 62, 127
2, 2440, Note_on_c, 1, 64, 127
2, 2440, Note_on_c, 1, 74, 127
2, 2440, Note_off_c, 1, 80, 0
2, 2440, Note_off_c, 1, 87, 0
2, 2480, Note_on_c, 1, 31, 127
2, 2480, Note_on_c, 1, 47, 127
2, 2480, Note_on_c, 1, 50, 127
2, 2480, Note_off_c, 1, 52, 0
2, 2480, Note_off_c, 1, 62, 0
2, 2480, Note_off_c, 1, 64, 0
2, 2480, Note_on_c, 1, 67, 127
2, 2480, Note_off_c, 1, 68, 0
2, 2480, Note_off_c, 1, 74, 0
2, 2520, Note_off_c, 1, 31, 0
2, 2520, Note_on_c, 1, 35, 127
2, 2520, Note_on_c, 1, 42, 127
2, 2520, Note_off_c, 1, 47, 0
2, 2520, Note_off_c, 1, 50, 0
2, 2520, Note_on_c, 1, 54, 127
2, 2520, Note_off_c, 1, 67, 0
2, 2520, Note_on_c, 1, 74, 127
2, 2520, Note_on_c, 1, 77, 127
2, 2520, Note_on_c, 1, 83, 127
2, 2560, Note_off_c, 1, 35, 0
2, 2560, Note_off_c, 1, 42, 0
2, 2560, Note_off_c, 1, 54, 0
2, 2560, Note_on_c, 1, 65, 127
2, 2560, Note_off_c, 1, 74, 0
2, 2560, Note_on_c, 1, 75, 127
2, 2560, Note_off_c, 1, 77, 0
2, 2560, Note_on_c, 1, 78, 127
2, 2560, Note_on_c, 1, 82, 127
2, 2560, Note_off_c, 1, 83, 0
2, 2560, Note_on_c, 1, 87, 127
2, 2600, Note_on_c, 1, 41, 127
2, 2600, Note_on_c, 1, 45, 127
2, 2600, Note_on_c, 1, 50, 127
2, 2600, Note_on_c, 1, 53, 127
2, 2600, Note_off_c, 1, 65, 0
2, 2600, Note_off_c, 1, 75, 0
2, 2600, Note_off_c, 1, 78, 0
2, 2600, Note_off_c, 1, 82, 0
2, 2600, Note_on_c, 1, 86, 127
2, 2600, Note_off_c, 1, 87, 0
2, 2640, Note_off_c, 1, 41, 0
2, 2640, Note_off_c, 1, 45, 0
2, 2640, Note_off_c, 1, 50, 0
2, 2640, Note_off_c, 1, 53, 0
2, 2640, Note_on_c, 1, 59, 127
2, 2640, Note_on_c, 1, 68, 127
2, 2640, Note_on_c, 1, 71, 127
2, 2640, Note_on_c, 1, 83, 127
2, 2640, Note_off_c, 1, 86, 0
2, 2640, Note_on_c, 1, 88, 127
2, 2680, Note_on_c, 1, 31, 127
2, 2680, Note_on_c, 1, 47, 127
2, 2680, Note_off_c, 1, 59, 0
2, 2680, Note_on_c, 1, 65, 127
2, 2680, Note_on_c, 1, 67, 127
2, 2680, Note_off_c, 1, 68, 0
2, 2680, Note_off_c, 1, 71, 0
2, 2680, Note_off_c, 1, 83, 0
2, 2680, Note_off_c, 1, 88, 0
2, 2720, Note_off_c, 1, 31, 0
2, 2720, Note_off_c, 1, 47, 0
2, 2720, Note_on_c, 1, 50, 127
2, 2720, Note_on_c, 1, 56, 127
2, 2720, Note_on_c, 1, 58, 127
2, 2720, Note_off_c, 1, 65, 0
2, 2720, Note_off_c, 1, 67, 0
2, 2720, Note_on_c, 1, 82, 127
2, 2720, Note_on_c, 1, 85, 127
2, 2720, Note_on_c, 1, 94, 127
2, 2760, Note_on_c, 1, 42, 127
2, 2760, Note_on_c, 1, 48, 127
2, 2760, Note_off_c, 1, 50, 0
2, 2760, Note_on_c, 1, 51, 127
2, 2760, Note_off_c, 1, 56, 0
2, 2760, Note_off_c, 1, 58, 0
2, 2760, Note_on_c, 1, 69, 127
2, 2760, Note_off_c, 1, 82, 0
2, 2760, Note_off_c, 1, 85, 0
2, 2760, Note_off_c, 1, 94, 0
2, 2800, Note_on_c, 1, 37, 127
2, 2800, Note_on_c, 1, 41, 127
2, 2800, Note_off_c, 1, 42, 0
2, 2800, Note_off_c, 1, 48, 0
2, 2800, Note_off_c, 1, 51, 0
2, 2800, Note_off_c, 1, 69, 0
2, 2800, Note_on_c, 1, 89, 127
2, 2800, Note_on_c, 1, 97, 127
2, 2800, Note_on_c, 1, 101, 127
2, 2840, Note_on_c, 1, 31, 127
2, 2840, Note_off_c, 1, 37, 0
2, 2840, Note_off_c, 1, 41, 0
2, 2840, Note_on_c, 1, 47, 127
2, 2840, Note_on_c, 1, 60, 127
2, 2840, Note_on_c, 1, 67, 127
2, 2840, Note_off_c, 1, 89, 0
2, 2840, Note_off_c, 1, 97, 0
2, 2840, Note_off_c, 1, 101, 0
2, 2880, Note_off_c, 1, 31, 0
2, 2880, Note_off_c, 1, 47, 0
2, 2880, Note_off_c, 1, 60, 0
2, 2880, Note_on_c, 1, 65, 127
2, 2880, Note_off_c, 1, 67, 0
2, 2880, Note_on_c, 1, 74, 127
2, 2880, Note_on_c, 1, 86, 127
2, 2880, Note_on_c, 1, 89, 127
2, 2920, Note_on_c, 1, 45, 127
2, 2920, Note_on_c, 1, 57, 127
2, 2920, Note_off_c, 1, 65, 0
2, 2920, Note_off_c, 1, 74, 0
2, 2920, Note_off_c, 1, 86, 0
2, 2920, Note_off_c, 1, 89, 0
2, 2920, Note_on_c, 1, 102, 127
2, 2960, Note_off_c, 1, 45, 0
2, 2960, Note_on_c, 1, 46, 127
2, 2960, Note_on_c, 1, 49, 127
2, 2960, Note_on_c, 1, 52, 127
2, 2960, Note_on_c, 1, 55, 127
2, 2960, Note_off_c, 1, 57, 0
2, 2960, Note_on_c, 1, 58, 127
2, 2960, Note_on_c, 1, 61, 127
2, 2960, Note_on_c, 1, 64, 127
2, 2960, Note_on_c, 1, 67, 127
2, 2960, Note_off_c, 1, 102, 0
2, 3000, Note_off_c, 1, 46, 0
2, 3000, Note_off_c, 1, 49, 0
2, 3000, Note_off_c, 1, 52, 0
2, 3000, Note_off_c, 1, 55, 0
2, 3000, Note_off_c, 1, 58, 0
2, 3000, Note_off_c, 1, 61, 0
2, 3000, Note_off_c, 1, 64, 0
2, 3000, Note_off_c, 1, 67, 0
2, 3320, Note_on_c, 1, 26, 127
2, 3320, Note_on_c, 1, 38, 127
2, 4920, Note_off_c, 1, 26, 0
2, 4920, Note_off_c, 1, 38, 0
2, 4960, Note_on_c, 1, 38, 127
2, 4960, Note_on_c, 1, 45, 127
2, 4960, Note_on_c, 1, 50, 127
2, 4960, Note_on_c, 1, 74, 127
2, 4960, Note_on_c, 1, 81, 127
2, 4960, Note_on_c, 1, 86, 127
2, 5000, Note_off_c, 1, 38, 0
2, 5000, Note_off_c, 1, 45, 0
2, 5000, Note_off_c, 1, 50, 0
2, 5000, Note_off_c, 1, 74, 0
2, 5000, Note_off_c, 1, 81, 0
2, 5000, Note_off_c, 1, 86, 0
2, 5120, Note_on_c, 1, 50, 127
2, 5120, Note_on_c, 1, 54, 127
2, 5120, Note_on_c, 1, 57, 127
2, 5120, Note_on_c, 1, 62, 127
2, 5120, Note_on_c, 1, 66, 127
2, 5120, Note_on_c, 1, 69, 127
2, 5120, Note_on_c, 1, 74, 127
2, 5480, Note_off_c, 1, 50, 0
2, 5480, Note_off_c, 1, 54, 0
2, 5480, Note_off_c, 1, 57, 0
2, 5480, Note_off_c, 1, 62, 0
2, 5480, Note_off_c, 1, 66, 0
2, 5480, Note_off_c, 1, 69, 0
2, 5480, Note_off_c, 1, 74, 0
2, 6120, Note_on_c, 1, 47, 127
2, 6120, Note_on_c, 1, 56, 127
2, 6120, Note_on_c, 1, 64, 127
2, 6120, Note_on_c, 1, 70, 127
2, 6160, Note_on_c, 1, 37, 127
2, 6160, Note_off_c, 1, 47, 0
2, 6160, Note_on_c, 1, 54, 127
2, 6160, Note_off_c, 1, 56, 0
2, 6160, Note_on_c, 1, 57, 127
2, 6160, Note_on_c, 1, 62, 127
2, 6160, Note_off_c, 1, 64, 0
2, 6160, Note_off_c, 1, 70, 0
2, 6200, Note_off_c, 1, 37, 0
2, 6200, Note_on_c, 1, 42, 127
2, 6200, Note_on_c, 1, 52, 127
2, 6200, Note_off_c, 1, 54, 0
2, 6200, Note_off_c, 1, 57, 0
2, 6200, Note_on_c, 1, 59, 127
2, 6200, Note_off_c, 1, 62, 0
2, 6200, Note_on_c, 1, 64, 127
2, 6240, Note_on_c, 1, 37, 127
2, 6240, Note_off_c, 1, 42, 0
2, 6240, Note_off_c, 1, 52, 0
2, 6240, Note_on_c, 1, 54, 127
2, 6240, Note_on_c, 1, 57, 127
2, 6240, Note_off_c, 1, 59, 0
2, 6240, Note_on_c, 1, 62, 127
2, 6240, Note_off_c, 1, 64, 0
2, 6440, Note_off_c, 1, 37, 0
2, 6440, Note_on_c, 1, 39, 127
2, 6440, Note_off_c, 1, 54, 0
2, 6440, Note_on_c, 1, 55, 127
2, 6440, Note_off_c, 1, 57, 0
2, 6440, Note_off_c, 1, 62, 0
2, 6440, Note_on_c, 1, 66, 127
2, 6480, Note_off_c, 1, 39, 0
2, 6480, Note_off_c, 1, 55, 0
2, 6480, Note_off_c, 1, 66, 0
2, 6520, Note_on_c, 1, 38, 127
2, 6520, Note_on_c, 1, 54, 127
2, 6520, Note_on_c, 1, 57, 127
2, 6520, Note_on_c, 1, 62, 127
2, 7920, Note_off_c, 1, 38, 0
2, 7920, Note_off_c, 1, 54, 0
2, 7920, Note_off_c, 1, 57, 0
2, 7920, Note_off_c, 1, 62, 0
2, 7960, Note_on_c, 1, 38, 127
2, 7960, Note_on_c, 1, 54, 127
2, 7960, Note_on_c, 1, 57, 127
2, 7960, Note_on_c, 1, 62, 127
2, 9640, Note_off_c, 1, 38, 0
2, 9680, Note_on_c, 1, 38, 127
2, 10640, Note_off_c, 1, 38, 0
2, 10640, Note_off_c, 1, 54, 0
2, 10640, Note_off_c, 1, 57, 0
2, 10640, Note_off_c, 1, 62, 0
2, 10680, Note_on_c, 1, 38, 127
2, 10680, Note_on_c, 1, 54, 127
2, 10680, Note_on_c, 1, 57, 127
2, 10680, Note_on_c, 1, 62, 127
2, 13520, Note_off_c, 1, 38, 0
2, 13520, Note_off_c, 1, 54, 0
2, 13520, Note_off_c, 1, 57, 0
2, 13520, Note_off_c, 1, 62, 0
2, 13560, Note_on_c, 1, 38, 127
2, 13560, Note_on_c, 1, 54, 127
2, 13560, Note_on_c, 1, 57, 127
2, 13560, Note_on_c, 1, 62, 127
2, 15160, Note_off_c, 1, 62, 0
2, 15200, Note_on_c, 1, 62, 127
2, 16080, Note_off_c, 1, 38, 0
2, 16080, Note_off_c, 1, 54, 0
2, 16080, Note_on_c, 1, 60, 127
2, 16080, Note_off_c, 1, 62, 0
2, 16080, Note_on_c, 1, 63, 127
2, 16080, Note_on_c, 1, 72, 127
2, 16080, Note_on_c, 1, 78, 127
2, 16080, Note_on_c, 1, 83, 127
2, 16120, Note_off_c, 1, 57, 0
2, 16120, Note_off_c, 1, 60, 0
2, 16120, Note_off_c, 1, 63, 0
2, 16120, Note_off_c, 1, 72, 0
2, 16120, Note_off_c, 1, 78, 0
2, 16120, Note_off_c, 1, 83, 0
2, 16200, Note_on_c, 1, 38, 127
2, 16200, Note_on_c, 1, 41, 127
2, 16200, Note_on_c, 1, 45, 127
2, 16200, Note_on_c, 1, 65, 127
2, 18720, Note_off_c, 1, 38, 0
2, 18720, Note_off_c, 1, 41, 0
2, 18720, Note_off_c, 1, 45, 0
2, 18720, Note_off_c, 1, 65, 0
2, 18760, Note_on_c, 1, 38, 127
2, 18760, Note_on_c, 1, 41, 127
2, 18760, Note_on_c, 1, 45, 127
2, 18760, Note_on_c, 1, 65, 127
2, 21280, Note_off_c, 1, 38, 0
2, 21280, Note_off_c, 1, 41, 0
2, 21280, Note_off_c, 1, 45, 0
2, 21280, Note_off_c, 1, 65, 0
2, 21360, Note_on_c, 1, 54, 127
2, 21360, Note_on_c, 1, 59, 127
2, 21360, Note_on_c, 1, 62, 127
2, 21360, Note_on_c, 1, 65, 127
2, 21360, Note_on_c, 1, 95, 127
2, 21400, Note_off_c, 1, 54, 0
2, 21400, Note_off_c, 1, 59, 0
2, 21400, Note_off_c, 1, 62, 0
2, 21400, Note_off_c, 1, 65, 0
2, 21400, Note_on_c, 1, 69, 127
2, 21400, Note_on_c, 1, 73, 127
2, 21400, Note_on_c, 1, 81, 127
2, 21400, Note_on_c, 1, 93, 127
2, 21400, Note_off_c, 1, 95, 0
2, 21880, Note_off_c, 1, 69, 0
2, 21880, Note_off_c, 1, 73, 0
2, 21880, Note_off_c, 1, 81, 0
2, 21880, Note_off_c, 1, 93, 0
2, 21920, Note_on_c, 1, 31, 127
2, 21920, Note_on_c, 1, 43, 127
2, 21920, Note_on_c, 1, 71, 127
2, 22280, Note_on_c, 1, 57, 127
2, 22280, Note_off_c, 1, 71, 0
2, 22400, Note_off_c, 1, 57, 0
2, 22400, Note_on_c, 1, 59, 127
2, 22440, Note_off_c, 1, 59, 0
2, 22560, Note_on_c, 1, 59, 127
2, 22800, Note_on_c, 1, 71, 127
2, 22840, Note_off_c, 1, 71, 0
2, 23640, Note_off_c, 1, 31, 0
2, 23640, Note_off_c, 1, 43, 0
2, 23640, Note_off_c, 1, 59, 0
2, 23680, Note_on_c, 1, 31, 127
2, 23680, Note_on_c, 1, 43, 127
2, 23680, Note_on_c, 1, 59, 127
2, 25240, Note_off_c, 1, 59, 0
2, 25240, Note_on_c, 1, 60, 127
2, 25280, Note_on_c, 1, 59, 127
2, 25280, Note_off_c, 1, 60, 0
2, 25960, Note_off_c, 1, 31, 0
2, 25960, Note_off_c, 1, 43, 0
2, 25960, Note_off_c, 1, 59, 0
2, 26000, Note_on_c, 1, 31, 127
2, 26000, Note_on_c, 1, 43, 127
2, 26000, Note_on_c, 1, 59, 127
2, 26360, Note_off_c, 1, 31, 0
2, 26360, Note_on_c, 1, 38, 127
2, 26360, Note_off_c, 1, 43, 0
2, 26360, Note_on_c, 1, 50, 127
2, 26360, Note_off_c, 1, 59, 0
2, 26360, Note_on_c, 1, 71, 127
2, 26360, Note_on_c, 1, 77, 127
2, 26360, Note_on_c, 1, 83, 127
2, 26400, Note_off_c, 1, 38, 0
2, 26400, Note_off_c, 1, 50, 0
2, 26400, Note_off_c, 1, 71, 0
2, 26400, Note_off_c, 1, 77, 0
2, 26400, Note_off_c, 1, 83, 0
2, 26440, Note_on_c, 1, 72, 127
2, 26520, Note_off_c, 1, 72, 0
2, 26560, Note_on_c, 1, 64, 127
2, 26560, Note_on_c, 1, 66, 127
2, 27320, Note_off_c, 1, 64, 0
2, 27320, Note_off_c, 1, 66, 0
2, 27360, Note_on_c, 1, 43, 127
2, 27360, Note_on_c, 1, 72, 127
2, 27920, Note_on_c, 1, 60, 127
2, 27920, Note_on_c, 1, 63, 127
2, 27920, Note_off_c, 1, 72, 0
2, 27960, Note_off_c, 1, 43, 0
2, 27960, Note_on_c, 1, 50, 127
2, 27960, Note_on_c, 1, 59, 127
2, 27960, Note_off_c, 1, 60, 0
2, 27960, Note_off_c, 1, 63, 0
2, 27960, Note_on_c, 1, 65, 127
2, 28080, Note_off_c, 1, 65, 0
2, 28120, Note_off_c, 1, 50, 0
2, 28120, Note_off_c, 1, 59, 0
2, 28160, Note_on_c, 1, 50, 127
2, 28160, Note_on_c, 1, 59, 127
2, 28160, Note_on_c, 1, 65, 127
2, 28400, Note_off_c, 1, 65, 0
2, 28440, Note_on_c, 1, 67, 127
2, 29000, Note_off_c, 1, 59, 0
2, 29000, Note_off_c, 1, 67, 0
2, 29040, Note_on_c, 1, 60, 127
2, 29040, Note_on_c, 1, 69, 127
2, 30200, Note_off_c, 1, 60, 0
2, 30200, Note_off_c, 1, 69, 0
2, 30240, Note_on_c, 1, 60, 127
2, 30240, Note_on_c, 1, 71, 127
2, 30440, Note_off_c, 1, 50, 0
2, 30440, Note_off_c, 1, 60, 0
2, 30440, Note_off_c, 1, 71, 0
2, 30480, Note_on_c, 1, 50, 127
2, 30480, Note_on_c, 1, 60, 127
2, 30480, Note_on_c, 1, 71, 127
2, 30840, Note_off_c, 1, 71, 0
2, 30880, Note_on_c, 1, 69, 127
2, 31440, Note_off_c, 1, 60, 0
2, 31480, Note_on_c, 1, 60, 127
2, 32040, Note_on_c, 1, 58, 127
2, 32040, Note_off_c, 1, 60, 0
2, 32040, Note_off_c, 1, 69, 0
2, 32040, Note_on_c, 1, 77, 127
2, 32080, Note_on_c, 1, 40, 127
2, 32080, Note_off_c, 1, 50, 0
2, 32080, Note_off_c, 1, 58, 0
2, 32080, Note_on_c, 1, 60, 127
2, 32080, Note_on_c, 1, 71, 127
2, 32080, Note_off_c, 1, 77, 0
2, 32120, Note_off_c, 1, 40, 0
2, 32120, Note_on_c, 1, 42, 127
2, 32120, Note_on_c, 1, 52, 127
2, 32120, Note_off_c, 1, 60, 0
2, 32120, Note_on_c, 1, 69, 127
2, 32120, Note_off_c, 1, 71, 0
2, 32120, Note_on_c, 1, 73, 127
2, 32600, Note_off_c, 1, 42, 0
2, 32600, Note_off_c, 1, 52, 0
2, 32600, Note_on_c, 1, 57, 127
2, 32600, Note_off_c, 1, 69, 0
2, 32640, Note_off_c, 1, 57, 0
2, 32640, Note_off_c, 1, 73, 0
2, 32680, Note_on_c, 1, 42, 127
2, 32680, Note_on_c, 1, 52, 127
2, 32680, Note_on_c, 1, 69, 127
2, 32680, Note_on_c, 1, 73, 127
2, 33240, Note_off_c, 1, 42, 0
2, 33240, Note_off_c, 1, 52, 0
2, 33240, Note_on_c, 1, 61, 127
2, 33240, Note_off_c, 1, 69, 0
2, 33240, Note_off_c, 1, 73, 0
2, 33280, Note_on_c, 1, 42, 127
2, 33280, Note_on_c, 1, 64, 127
2, 33840, Note_on_c, 1, 58, 127
2, 33840, Note_off_c, 1, 61, 0
2, 33840, Note_off_c, 1, 64, 0
2, 33880, Note_on_c, 1, 36, 127
2, 33880, Note_on_c, 1, 40, 127
2, 33880, Note_off_c, 1, 42, 0
2, 33880, Note_on_c, 1, 48, 127
2, 33880, Note_off_c, 1, 58, 0
2, 33880, Note_on_c, 1, 79, 127
2, 33880, Note_on_c, 1, 84, 127
2, 33880, Note_on_c, 1, 88, 127
2, 33880, Note_on_c, 1, 91, 127
2, 34400, Note_off_c, 1, 40, 0
2, 34400, Note_off_c, 1, 48, 0
2, 34400, Note_off_c, 1, 79, 0
2, 34400, Note_off_c, 1, 84, 0
2, 34400, Note_off_c, 1, 88, 0
2, 34400, Note_off_c, 1, 91, 0
2, 34480, Note_off_c, 1, 36, 0
2, 34480, Note_on_c, 1, 47, 127
2, 34480, Note_on_c, 1, 77, 127
2, 34480, Note_on_c, 1, 91, 127
2, 34520, Note_on_c, 1, 35, 127
2, 34520, Note_off_c, 1, 47, 0
2, 34520, Note_on_c, 1, 54, 127
2, 34520, Note_on_c, 1, 59, 127
2, 34520, Note_on_c, 1, 64, 127
2, 34520, Note_on_c, 1, 68, 127
2, 34520, Note_on_c, 1, 71, 127
2, 34520, Note_off_c, 1, 77, 0
2, 34520, Note_off_c, 1, 91, 0
2, 34560, Note_off_c, 1, 35, 0
2, 34560, Note_on_c, 1, 44, 127
2, 34560, Note_on_c, 1, 48, 127
2, 34560, Note_off_c, 1, 54, 0
2, 34560, Note_off_c, 1, 59, 0
2, 34560, Note_off_c, 1, 64, 0
2, 34560, Note_off_c, 1, 68, 0
2, 34560, Note_off_c, 1, 71, 0
2, 34560, Note_on_c, 1, 72, 127
2, 34560, Note_on_c, 1, 74, 127
2, 34560, Note_on_c, 1, 84, 127
2, 34600, Note_off_c, 1, 44, 0
2, 34600, Note_on_c, 1, 47, 127
2, 34600, Note_off_c, 1, 48, 0
2, 34600, Note_off_c, 1, 72, 0
2, 34600, Note_off_c, 1, 74, 0
2, 34600, Note_on_c, 1, 77, 127
2, 34600, Note_off_c, 1, 84, 0
2, 34600, Note_on_c, 1, 91, 127
2, 34680, Note_off_c, 1, 47, 0
2, 34680, Note_off_c, 1, 77, 0
2, 34680, Note_off_c, 1, 91, 0
2, 34720, Note_on_c, 1, 47, 127
2, 34720, Note_on_c, 1, 77, 127
2, 34720, Note_on_c, 1, 91, 127
2, 34760, Note_on_c, 1, 36, 127
2, 34760, Note_off_c, 1, 47, 0
2, 34760, Note_off_c, 1, 77, 0
2, 34760, Note_off_c, 1, 91, 0
2, 34800, Note_on_c, 1, 63, 127
2, 34800, Note_on_c, 1, 72, 127
2, 35040, Note_off_c, 1, 36, 0
2, 35040, Note_off_c, 1, 63, 0
2, 35040, Note_off_c, 1, 72, 0
2, 35080, Note_on_c, 1, 48, 127
2, 35080, Note_on_c, 1, 50, 127
2, 35080, Note_on_c, 1, 54, 127
2, 35080, Note_on_c, 1, 60, 127
2, 35080, Note_on_c, 1, 72, 127
2, 35080, Note_on_c, 1, 74, 127
2, 35080, Note_on_c, 1, 78, 127
2, 35080, Note_on_c, 1, 84, 127
2, 35640, Note_off_c, 1, 48, 0
2, 35640, Note_off_c, 1, 50, 0
2, 35640, Note_off_c, 1, 54, 0
2, 35640, Note_on_c, 1, 59, 127
2, 35640, Note_off_c, 1, 60, 0
2, 35640, Note_off_c, 1, 72, 0
2, 35640, Note_off_c, 1, 74, 0
2, 35640, Note_off_c, 1, 78, 0
2, 35640, Note_off_c, 1, 84, 0
2, 35680, Note_on_c, 1, 47, 127
2, 35680, Note_on_c, 1, 53, 127
2, 35680, Note_off_c, 1, 59, 0
2, 35680, Note_on_c, 1, 62, 127
2, 35680, Note_on_c, 1, 74, 127
2, 36240, Note_off_c, 1, 47, 0
2, 36240, Note_off_c, 1, 53, 0
2, 36240, Note_off_c, 1, 62, 0
2, 36240, Note_off_c, 1, 74, 0
2, 36280, Note_on_c, 1, 52, 127
2, 36280, Note_on_c, 1, 61, 127
2, 36280, Note_on_c, 1, 73, 127
2, 36280, Note_on_c, 1, 76, 127
2, 36680, Note_off_c, 1, 52, 0
2, 36680, Note_off_c, 1, 61, 0
2, 36680, Note_off_c, 1, 73, 0
2, 36680, Note_off_c, 1, 76, 0
2, 36720, Note_on_c, 1, 52, 127
2, 36720, Note_on_c, 1, 61, 127
2, 36720, Note_on_c, 1, 73, 127
2, 36720, Note_on_c, 1, 76, 127
2, 36880, Note_off_c, 1, 52, 0
2, 36880, Note_off_c, 1, 61, 0
2, 36880, Note_on_c, 1, 64, 127
2, 36920, Note_on_c, 1, 52, 127
2, 36920, Note_on_c, 1, 61, 127
2, 36920, Note_off_c, 1, 64, 0
2, 37480, Note_off_c, 1, 52, 0
2, 37480, Note_off_c, 1, 61, 0
2, 37520, Note_on_c, 1, 52, 127
2, 37520, Note_on_c, 1, 61, 127
2, 38080, Note_off_c, 1, 52, 0
2, 38080, Note_off_c, 1, 61, 0
2, 38080, Note_on_c, 1, 64, 127
2, 38120, Note_on_c, 1, 52, 127
2, 38120, Note_on_c, 1, 61, 127
2, 38120, Note_off_c, 1, 64, 0
2, 38680, Note_off_c, 1, 52, 0
2, 38680, Note_off_c, 1, 61, 0
2, 38680, Note_off_c, 1, 73, 0
2, 38680, Note_off_c, 1, 76, 0
2, 38720, Note_on_c, 1, 38, 127
2, 38720, Note_on_c, 1, 50, 127
2, 38720, Note_on_c, 1, 53, 127
2, 38720, Note_on_c, 1, 57, 127
2, 38720, Note_on_c, 1, 62, 127
2, 38920, Note_off_c, 1, 38, 0
2, 38920, Note_off_c, 1, 50, 0
2, 38920, Note_off_c, 1, 53, 0
2, 38920, Note_off_c, 1, 57, 0
2, 38920, Note_off_c, 1, 62, 0
2, 38960, Note_on_c, 1, 38, 127
2, 38960, Note_on_c, 1, 50, 127
2, 38960, Note_on_c, 1, 53, 127
2, 38960, Note_on_c, 1, 57, 127
2, 38960, Note_on_c, 1, 62, 127
2, 39320, Note_off_c, 1, 38, 0
2, 39320, Note_off_c, 1, 50, 0
2, 39320, Note_on_c, 1, 65, 127
2, 39320, Note_on_c, 1, 81, 127
2, 39320, Note_on_c, 1, 86, 127
2, 39360, Note_on_c, 1, 38, 127
2, 39360, Note_on_c, 1, 50, 127
2, 39360, Note_off_c, 1, 65, 0
2, 39360, Note_off_c, 1, 81, 0
2, 39360, Note_off_c, 1, 86, 0
2, 39920, Note_off_c, 1, 38, 0
2, 39920, Note_off_c, 1, 50, 0
2, 39920, Note_off_c, 1, 53, 0
2, 39920, Note_off_c, 1, 57, 0
2, 39920, Note_off_c, 1, 62, 0
2, 39960, Note_on_c, 1, 29, 127
2, 39960, Note_on_c, 1, 53, 127
2, 39960, Note_on_c, 1, 56, 127
2, 39960, Note_on_c, 1, 63, 127
2, 39960, Note_on_c, 1, 75, 127
2, 40000, Note_off_c, 1, 29, 0
2, 40000, Note_off_c, 1, 53, 0
2, 40000, Note_off_c, 1, 56, 0
2, 40000, Note_on_c, 1, 60, 127
2, 40000, Note_on_c, 1, 69, 127
2, 40000, Note_on_c, 1, 74, 127
2, 40000, Note_off_c, 1, 75, 0
2, 40000, Note_on_c, 1, 81, 127
2, 40040, Note_on_c, 1, 56, 127
2, 40040, Note_off_c, 1, 60, 0
2, 40040, Note_off_c, 1, 63, 0
2, 40040, Note_off_c, 1, 69, 0
2, 40040, Note_off_c, 1, 74, 0
2, 40040, Note_off_c, 1, 81, 0
2, 40040, Note_on_c, 1, 90, 127
2, 40040, Note_on_c, 1, 92, 127
2, 40040, Note_on_c, 1, 95, 127
2, 40040, Note_on_c, 1, 98, 127
2, 40040, Note_on_c, 1, 102, 127
2, 40080, Note_on_c, 1, 50, 127
2, 40080, Note_off_c, 1, 56, 0
2, 40120, Note_on_c, 1, 47, 127
2, 40120, Note_off_c, 1, 50, 0
2, 40160, Note_on_c, 1, 38, 127
2, 40160, Note_on_c, 1, 40, 127
2, 40160, Note_off_c, 1, 47, 0
2, 40160, Note_on_c, 1, 61, 127
2, 40160, Note_on_c, 1, 67, 127
2, 40160, Note_off_c, 1, 90, 0
2, 40160, Note_off_c, 1, 92, 0
2, 40160, Note_off_c, 1, 95, 0
2, 40160, Note_off_c, 1, 98, 0
2, 40160, Note_off_c, 1, 102, 0
2, 40200, Note_off_c, 1, 38, 0
2, 40200, Note_off_c, 1, 40, 0
2, 40200, Note_on_c, 1, 50, 127
2, 40200, Note_off_c, 1, 61, 0
2, 40200, Note_off_c, 1, 67, 0
2, 40200, Note_on_c, 1, 90, 127
2, 40200, Note_on_c, 1, 92, 127
2, 40200, Note_on_c, 1, 95, 127
2, 40200, Note_on_c, 1, 98, 127
2, 40200, Note_on_c, 1, 102, 127
2, 40240, Note_on_c, 1, 33, 127
2, 40240, Note_on_c, 1, 36, 127
2, 40240, Note_on_c, 1, 45, 127
2, 40240, Note_off_c, 1, 50, 0
2, 40240, Note_on_c, 1, 86, 127
2, 40240, Note_off_c, 1, 90, 0
2, 40240, Note_off_c, 1, 92, 0
2, 40240, Note_off_c, 1, 95, 0
2, 40240, Note_off_c, 1, 98, 0
2, 40240, Note_off_c, 1, 102, 0
2, 40280, Note_off_c, 1, 33, 0
2, 40280, Note_off_c, 1, 36, 0
2, 40280, Note_off_c, 1, 45, 0
2, 40280, Note_on_c, 1, 50, 127
2, 40280, Note_off_c, 1, 86, 0
2, 40280, Note_on_c, 1, 90, 127
2, 40280, Note_on_c, 1, 92, 127
2, 40280, Note_on_c, 1, 95, 127
2, 40280, Note_on_c, 1, 98, 127
2, 40280, Note_on_c, 1, 102, 127
2, 40320, Note_off_c, 1, 50, 0
2, 40320, Note_on_c, 1, 63, 127
2, 40320, Note_on_c, 1, 64, 127
2, 40320, Note_on_c, 1, 67, 127
2, 40320, Note_on_c, 1, 69, 127
2, 40320, Note_on_c, 1, 76, 127
2, 40320, Note_on_c, 1, 79, 127
2, 40320, Note_on_c, 1, 81, 127
2, 40320, Note_off_c, 1, 90, 0
2, 40320, Note_off_c, 1, 92, 0
2, 40320, Note_off_c, 1, 95, 0
2, 40320, Note_off_c, 1, 98, 0
2, 40320, Note_off_c, 1, 102, 0
2, 40360, Note_on_c, 1, 50, 127
2, 40360, Note_on_c, 1, 52, 127
2, 40360, Note_off_c, 1, 63, 0
2, 40360, Note_off_c, 1, 64, 0
2, 40360, Note_off_c, 1, 69, 0
2, 40360, Note_off_c, 1, 76, 0
2, 40360, Note_off_c, 1, 79, 0
2, 40360, Note_off_c, 1, 81, 0
2, 40400, Note_off_c, 1, 50, 0
2, 40400, Note_off_c, 1, 52, 0
2, 40400, Note_off_c, 1, 67, 0
2, 40400, Note_on_c, 1, 74, 127
2, 40400, Note_on_c, 1, 80, 127
2, 40400, Note_on_c, 1, 83, 127
2, 40400, Note_on_c, 1, 86, 127
2, 40400, Note_on_c, 1, 89, 127
2, 40440, Note_on_c, 1, 54, 127
2, 40440, Note_on_c, 1, 63, 127
2, 40440, Note_off_c, 1, 74, 0
2, 40440, Note_on_c, 1, 78, 127
2, 40440, Note_off_c, 1, 80, 0
2, 40440, Note_on_c, 1, 82, 127
2, 40440, Note_off_c, 1, 83, 0
2, 40440, Note_off_c, 1, 86, 0
2, 40440, Note_off_c, 1, 89, 0
2, 40480, Note_on_c, 1, 36, 127
2, 40480, Note_on_c, 1, 39, 127
2, 40480, Note_on_c, 1, 48, 127
2, 40480, Note_off_c, 1, 54, 0
2, 40480, Note_off_c, 1, 63, 0
2, 40480, Note_on_c, 1, 67, 127
2, 40480, Note_off_c, 1, 78, 0
2, 40480, Note_on_c, 1, 79, 127
2, 40480, Note_off_c, 1, 82, 0
2, 40520, Note_off_c, 1, 36, 0
2, 40520, Note_off_c, 1, 39, 0
2, 40520, Note_off_c, 1, 48, 0
2, 40520, Note_off_c, 1, 67, 0
2, 40520, Note_off_c, 1, 79, 0
2, 40560, Note_on_c, 1, 62, 127
2, 40560, Note_on_c, 1, 65, 127
2, 40560, Note_on_c, 1, 68, 127
2, 40560, Note_on_c, 1, 71, 127
2, 40560, Note_on_c, 1, 82, 127
2, 40600, Note_on_c, 1, 32, 127
2, 40600, Note_on_c, 1, 44, 127
2, 40600, Note_off_c, 1, 62, 0
2, 40600, Note_off_c, 1, 65, 0
2, 40600, Note_off_c, 1, 68, 0
2, 40600, Note_off_c, 1, 71, 0
2, 40600, Note_on_c, 1, 73, 127
2, 40600, Note_on_c, 1, 76, 127
2, 40640, Note_off_c, 1, 73, 0
2, 40640, Note_off_c, 1, 76, 0
2, 40960, Note_off_c, 1, 32, 0
2, 40960, Note_off_c, 1, 44, 0
2, 40960, Note_off_c, 1, 82, 0
2, 41000, Note_on_c, 1, 32, 127
2, 41000, Note_on_c, 1, 44, 127
2, 41000, Note_on_c, 1, 82, 127
2, 41120, Note_off_c, 1, 82, 0
2, 41200, Note_on_c, 1, 82, 127
2, 41760, Note_off_c, 1, 82, 0
2, 41800, Note_on_c, 1, 80, 127
2, 42360, Note_off_c, 1, 32, 0
2, 42360, Note_off_c, 1, 44, 0
2, 42360, Note_off_c, 1, 80, 0
2, 42400, Note_on_c, 1, 26, 127
2, 42400, Note_on_c, 1, 38, 127
2, 42400, Note_on_c, 1, 86, 127
2, 42640, Note_on_c, 1, 81, 127
2, 42640, Note_off_c, 1, 86, 0
2, 42680, Note_off_c, 1, 81, 0
2, 42680, Note_on_c, 1, 86, 127
2, 42960, Note_off_c, 1, 26, 0
2, 42960, Note_off_c, 1, 38, 0
2, 42960, Note_off_c, 1, 86, 0
2, 42960, Note_on_c, 1, 101, 127
2, 43000, Note_on_c, 1, 26, 127
2, 43000, Note_on_c, 1, 38, 127
2, 43000, Note_on_c, 1, 57, 127
2, 43000, Note_off_c, 1, 101, 0
2, 43200, Note_off_c, 1, 26, 0
2, 43200, Note_off_c, 1, 38, 0
2, 43200, Note_off_c, 1, 57, 0
2, 43240, Note_on_c, 1, 26, 127
2, 43240, Note_on_c, 1, 38, 127
2, 43240, Note_on_c, 1, 57, 127
2, 43280, Note_off_c, 1, 57, 0
2, 43320, Note_off_c, 1, 26, 0
2, 43320, Note_on_c, 1, 27, 127
2, 43320, Note_off_c, 1, 38, 0
2, 43320, Note_on_c, 1, 39, 127
2, 43320, Note_on_c, 1, 70, 127
2, 43600, Note_off_c, 1, 27, 0
2, 43600, Note_off_c, 1, 39, 0
2, 43600, Note_off_c, 1, 70, 0
2, 43640, Note_on_c, 1, 37, 127
2, 43640, Note_on_c, 1, 44, 127
2, 43640, Note_on_c, 1, 61, 127
2, 43640, Note_on_c, 1, 73, 127
2, 44200, Note_off_c, 1, 37, 0
2, 44200, Note_off_c, 1, 44, 0
2, 44200, Note_off_c, 1, 61, 0
2, 44200, Note_off_c, 1, 73, 0
2, 44240, Note_on_c, 1, 37, 127
2, 44240, Note_on_c, 1, 44, 127
2, 44240, Note_on_c, 1, 61, 127
2, 44240, Note_on_c, 1, 73, 127
2, 44800, Note_off_c, 1, 37, 0
2, 44800, Note_off_c, 1, 44, 0
2, 44800, Note_off_c, 1, 61, 0
2, 44800, Note_off_c, 1, 73, 0
2, 44840, Note_on_c, 1, 41, 127
2, 44840, Note_on_c, 1, 53, 127
2, 44840, Note_on_c, 1, 69, 127
2, 44840, Note_on_c, 1, 72, 127
2, 45400, Note_off_c, 1, 69, 0
2, 45400, Note_off_c, 1, 72, 0
2, 45440, Note_off_c, 1, 41, 0
2, 45440, Note_off_c, 1, 53, 0
2, 45480, Note_on_c, 1, 41, 127
2, 45480, Note_on_c, 1, 53, 127
2, 45480, Note_on_c, 1, 68, 127
2, 46040, Note_off_c, 1, 41, 0
2, 46040, Note_off_c, 1, 53, 0
2, 46040, Note_off_c, 1, 68, 0
2, 46080, Note_on_c, 1, 40, 127
2, 46080, Note_on_c, 1, 52, 127
2, 46080, Note_on_c, 1, 67, 127
2, 46640, Note_off_c, 1, 67, 0
2, 46680, Note_on_c, 1, 68, 127
2, 47240, Note_off_c, 1, 40, 0
2, 47240, Note_off_c, 1, 52, 0
2, 47240, Note_off_c, 1, 68, 0
2, 47280, Note_on_c, 1, 33, 127
2, 47280, Note_on_c, 1, 64, 127
2, 47640, Note_off_c, 1, 33, 0
2, 47640, Note_off_c, 1, 64, 0
2, 47680, Note_on_c, 1, 33, 127
2, 47680, Note_on_c, 1, 64, 127
2, 47880, Note_off_c, 1, 64, 0
2, 48480, Note_off_c, 1, 33, 0
2, 48480, Note_on_c, 1, 45, 127
2, 48520, Note_on_c, 1, 69, 127
2, 49080, Note_off_c, 1, 45, 0
2, 49120, Note_on_c, 1, 52, 127
2, 49120, Note_on_c, 1, 61, 127
2, 49680, Note_off_c, 1, 61, 0
2, 49680, Note_off_c, 1, 69, 0
2, 49720, Note_on_c, 1, 61, 127
2, 49720, Note_on_c, 1, 64, 127
2, 49920, Note_off_c, 1, 52, 0
2, 49920, Note_off_c, 1, 61, 0
2, 49920, Note_off_c, 1, 64, 0
2, 49960, Note_on_c, 1, 52, 127
2, 49960, Note_on_c, 1, 61, 127
2, 49960, Note_on_c, 1, 64, 127
2, 50320, Note_off_c, 1, 52, 0
2, 50320, Note_off_c, 1, 61, 0
2, 50320, Note_off_c, 1, 64, 0
2, 50360, Note_on_c, 1, 50, 127
2, 50360, Note_on_c, 1, 66, 127
2, 50360, Note_on_c, 1, 69, 127
2, 50920, Note_off_c, 1, 66, 0
2, 50920, Note_off_c, 1, 69, 0
2, 50960, Note_on_c, 1, 66, 127
2, 50960, Note_on_c, 1, 71, 127
2, 51520, Note_off_c, 1, 66, 0
2, 51520, Note_on_c, 1, 69, 127
2, 51520, Note_off_c, 1, 71, 0
2, 51560, Note_on_c, 1, 66, 127
2, 52120, Note_off_c, 1, 50, 0
2, 52120, Note_off_c, 1, 66, 0
2, 52120, Note_off_c, 1, 69, 0
2, 52200, Note_on_c, 1, 51, 127
2, 52200, Note_on_c, 1, 71, 127
2, 52760, Note_off_c, 1, 71, 0
2, 52800, Note_on_c, 1, 81, 127
2, 53360, Note_off_c, 1, 51, 0
2, 53360, Note_off_c, 1, 81, 0
2, 53400, Note_on_c, 1, 59, 127
2, 53400, Note_on_c, 1, 81, 127
2, 53960, Note_off_c, 1, 59, 0
2, 53960, Note_off_c, 1, 81, 0
2, 54000, Note_on_c, 1, 52, 127
2, 54000, Note_on_c, 1, 81, 127
2, 54400, Note_off_c, 1, 52, 0
2, 54400, Note_off_c, 1, 81, 0
2, 54440, Note_on_c, 1, 52, 127
2, 54440, Note_on_c, 1, 81, 127
2, 54600, Note_off_c, 1, 52, 0
2, 54600, Note_off_c, 1, 81, 0
2, 54640, Note_on_c, 1, 57, 127
2, 54640, Note_on_c, 1, 84, 127
2, 55160, Note_off_c, 1, 84, 0
2, 55200, Note_off_c, 1, 57, 0
2, 55240, Note_on_c, 1, 57, 127
2, 55800, Note_off_c, 1, 57, 0
2, 55840, Note_on_c, 1, 54, 127
2, 55840, Note_on_c, 1, 81, 127
2, 56400, Note_off_c, 1, 54, 0
2, 56440, Note_on_c, 1, 59, 127
2, 56640, Note_off_c, 1, 59, 0
2, 56640, Note_off_c, 1, 81, 0
2, 56680, Note_on_c, 1, 59, 127
2, 56680, Note_on_c, 1, 81, 127
2, 57040, Note_off_c, 1, 59, 0
2, 57040, Note_off_c, 1, 81, 0
2, 57080, Note_on_c, 1, 64, 127
2, 57080, Note_on_c, 1, 80, 127
2, 57080, Note_on_c, 1, 84, 127
2, 57120, Note_off_c, 1, 64, 0
2, 57120, Note_on_c, 1, 71, 127
2, 57120, Note_on_c, 1, 76, 127
2, 57120, Note_off_c, 1, 80, 0
2, 57120, Note_on_c, 1, 81, 127
2, 57120, Note_off_c, 1, 84, 0
2, 57160, Note_on_c, 1, 63, 127
2, 57160, Note_off_c, 1, 71, 0
2, 57160, Note_off_c, 1, 76, 0
2, 57160, Note_on_c, 1, 84, 127
2, 57200, Note_off_c, 1, 63, 0
2, 57200, Note_on_c, 1, 64, 127
2, 57280, Note_off_c, 1, 64, 0
2, 57280, Note_on_c, 1, 67, 127
2, 57600, Note_off_c, 1, 67, 0
2, 57640, Note_on_c, 1, 67, 127
2, 58160, Note_off_c, 1, 67, 0
2, 58200, Note_off_c, 1, 81, 0
2, 58200, Note_on_c, 1, 86, 127
2, 58240, Note_on_c, 1, 67, 127
2, 58240, Note_on_c, 1, 79, 127
2, 58240, Note_on_c, 1, 83, 127
2, 58240, Note_off_c, 1, 84, 0
2, 58240, Note_off_c, 1, 86, 0
2, 58800, Note_off_c, 1, 67, 0
2, 58800, Note_off_c, 1, 79, 0
2, 58800, Note_off_c, 1, 83, 0
2, 58880, Note_on_c, 1, 57, 127
2, 58880, Note_on_c, 1, 72, 127
2, 58880, Note_on_c, 1, 76, 127
2, 58880, Note_on_c, 1, 81, 127
2, 59440, Note_off_c, 1, 57, 0
2, 59480, Note_on_c, 1, 64, 127
2, 59480, Note_on_c, 1, 69, 127
2, 60040, Note_off_c, 1, 64, 0
2, 60040, Note_off_c, 1, 69, 0
2, 60040, Note_off_c, 1, 72, 0
2, 60040, Note_off_c, 1, 76, 0
2, 60040, Note_off_c, 1, 81, 0
2, 60080, Note_on_c, 1, 77, 127
2, 60080, Note_on_c, 1, 81, 127
2, 60080, Note_on_c, 1, 83, 127
2, 60640, Note_off_c, 1, 77, 0
2, 60640, Note_off_c, 1, 83, 0
2, 60680, Note_on_c, 1, 72, 127
2, 60680, Note_on_c, 1, 76, 127
2, 61080, Note_off_c, 1, 72, 0
2, 61080, Note_off_c, 1, 76, 0
2, 61080, Note_off_c, 1, 81, 0
2, 61120, Note_on_c, 1, 72, 127
2, 61120, Note_on_c, 1, 76, 127
2, 61120, Note_on_c, 1, 81, 127
2, 61280, Note_off_c, 1, 72, 0
2, 61280, Note_off_c, 1, 76, 0
2, 61280, Note_off_c, 1, 81, 0
2, 61320, Note_on_c, 1, 52, 127
2, 61320, Note_on_c, 1, 79, 127
2, 61320, Note_on_c, 1, 83, 127
2, 61840, Note_off_c, 1, 52, 0
2, 61920, Note_on_c, 1, 59, 127
2, 62440, Note_off_c, 1, 59, 0
2, 62480, Note_off_c, 1, 79, 0
2, 62480, Note_off_c, 1, 83, 0
2, 62520, Note_on_c, 1, 52, 127
2, 62520, Note_on_c, 1, 78, 127
2, 62520, Note_on_c, 1, 81, 127
2, 63040, Note_off_c, 1, 52, 0
2, 63080, Note_off_c, 1, 78, 0
2, 63080, Note_off_c, 1, 81, 0
2, 63120, Note_on_c, 1, 55, 127
2, 63120, Note_on_c, 1, 76, 127
2, 63120, Note_on_c, 1, 79, 127
2, 63320, Note_off_c, 1, 55, 0
2, 63320, Note_off_c, 1, 76, 0
2, 63320, Note_off_c, 1, 79, 0
2, 63360, Note_on_c, 1, 55, 127
2, 63360, Note_on_c, 1, 76, 127
2, 63360, Note_on_c, 1, 79, 127
2, 63680, Note_off_c, 1, 76, 0
2, 63680, Note_off_c, 1, 79, 0
2, 63720, Note_off_c, 1, 55, 0
2, 63760, Note_on_c, 1, 52, 127
2, 63760, Note_on_c, 1, 59, 127
2, 63760, Note_on_c, 1, 67, 127
2, 63760, Note_on_c, 1, 83, 127
2, 64280, Note_off_c, 1, 83, 0
2, 64360, Note_off_c, 1, 59, 0
2, 64360, Note_on_c, 1, 65, 127
2, 64360, Note_off_c, 1, 67, 0
2, 64360, Note_on_c, 1, 68, 127
2, 64920, Note_off_c, 1, 52, 0
2, 64920, Note_off_c, 1, 65, 0
2, 64920, Note_off_c, 1, 68, 0
2, 64960, Note_on_c, 1, 58, 127
2, 64960, Note_on_c, 1, 62, 127
2, 64960, Note_on_c, 1, 65, 127
2, 64960, Note_on_c, 1, 70, 127
2, 64960, Note_on_c, 1, 74, 127
2, 64960, Note_on_c, 1, 79, 127
2, 65360, Note_off_c, 1, 58, 0
2, 65360, Note_off_c, 1, 62, 0
2, 65360, Note_off_c, 1, 65, 0
2, 65360, Note_off_c, 1, 70, 0
2, 65360, Note_off_c, 1, 74, 0
2, 65360, Note_off_c, 1, 79, 0
2, 65400, Note_on_c, 1, 58, 127
2, 65400, Note_on_c, 1, 62, 127
2, 65400, Note_on_c, 1, 65, 127
2, 65400, Note_on_c, 1, 70, 127
2, 65400, Note_on_c, 1, 74, 127
2, 65400, Note_on_c, 1, 79, 127
2, 65560, Note_off_c, 1, 58, 0
2, 65560, Note_off_c, 1, 65, 0
2, 65560, Note_off_c, 1, 70, 0
2, 65560, Note_off_c, 1, 74, 0
2, 65560, Note_on_c, 1, 88, 127
2, 65600, Note_on_c, 1, 58, 127
2, 65600, Note_on_c, 1, 65, 127
2, 65600, Note_on_c, 1, 70, 127
2, 65600, Note_on_c, 1, 74, 127
2, 65600, Note_off_c, 1, 88, 0
2, 66120, Note_on_c, 1, 55, 127
2, 66120, Note_off_c, 1, 62, 0
2, 66120, Note_on_c, 1, 63, 127
2, 66120, Note_off_c, 1, 65, 0
2, 66120, Note_on_c, 1, 67, 127
2, 66120, Note_off_c, 1, 70, 0
2, 66120, Note_off_c, 1, 74, 0
2, 66120, Note_on_c, 1, 75, 127
2, 66160, Note_off_c, 1, 58, 0
2, 66160, Note_on_c, 1, 59, 127
2, 66160, Note_off_c, 1, 63, 0
2, 66160, Note_off_c, 1, 75, 0
2, 66160, Note_on_c, 1, 76, 127
2, 66160, Note_off_c, 1, 79, 0
2, 66200, Note_on_c, 1, 53, 127
2, 66200, Note_off_c, 1, 55, 0
2, 66200, Note_off_c, 1, 59, 0
2, 66200, Note_on_c, 1, 60, 127
2, 66200, Note_off_c, 1, 67, 0
2, 66200, Note_off_c, 1, 76, 0
2, 66200, Note_on_c, 1, 77, 127
2, 66200, Note_on_c, 1, 82, 127
2, 66760, Note_off_c, 1, 53, 0
2, 66760, Note_off_c, 1, 77, 0
2, 66760, Note_off_c, 1, 82, 0
2, 66800, Note_on_c, 1, 51, 127
2, 66800, Note_on_c, 1, 58, 127
2, 66800, Note_off_c, 1, 60, 0
2, 66800, Note_on_c, 1, 67, 127
2, 66800, Note_on_c, 1, 79, 127
2, 67360, Note_off_c, 1, 58, 0
2, 67400, Note_off_c, 1, 51, 0
2, 67400, Note_off_c, 1, 67, 0
2, 67400, Note_off_c, 1, 79, 0
2, 67440, Note_on_c, 1, 51, 127
2, 67440, Note_on_c, 1, 67, 127
2, 67440, Note_on_c, 1, 79, 127
2, 68000, Note_off_c, 1, 67, 0
2, 68040, Note_on_c, 1, 67, 127
2, 69200, Note_off_c, 1, 51, 0
2, 69200, Note_off_c, 1, 67, 0
2, 69200, Note_off_c, 1, 79, 0
2, 69240, Note_on_c, 1, 59, 127
2, 69240, Note_on_c, 1, 63, 127
2, 69240, Note_on_c, 1, 67, 127
2, 69240, Note_on_c, 1, 71, 127
2, 69240, Note_on_c, 1, 75, 127
2, 69240, Note_on_c, 1, 82, 127
2, 69640, Note_off_c, 1, 59, 0
2, 69640, Note_off_c, 1, 63, 0
2, 69640, Note_off_c, 1, 67, 0
2, 69640, Note_off_c, 1, 71, 0
2, 69640, Note_off_c, 1, 75, 0
2, 69640, Note_off_c, 1, 82, 0
2, 69680, Note_on_c, 1, 59, 127
2, 69680, Note_on_c, 1, 63, 127
2, 69680, Note_on_c, 1, 67, 127
2, 69680, Note_on_c, 1, 71, 127
2, 69680, Note_on_c, 1, 75, 127
2, 69680, Note_on_c, 1, 82, 127
2, 70440, Note_on_c, 1, 53, 127
2, 70440, Note_on_c, 1, 61, 127
2, 70440, Note_off_c, 1, 63, 0
2, 70440, Note_off_c, 1, 67, 0
2, 70440, Note_off_c, 1, 71, 0
2, 70440, Note_off_c, 1, 75, 0
2, 70440, Note_on_c, 1, 77, 127
2, 70440, Note_off_c, 1, 82, 0
2, 70480, Note_off_c, 1, 53, 0
2, 70480, Note_on_c, 1, 54, 127
2, 70480, Note_off_c, 1, 59, 0
2, 70480, Note_off_c, 1, 61, 0
2, 70480, Note_on_c, 1, 64, 127
2, 70480, Note_on_c, 1, 67, 127
2, 70480, Note_on_c, 1, 70, 127
2, 70480, Note_on_c, 1, 74, 127
2, 70480, Note_off_c, 1, 77, 0
2, 71040, Note_off_c, 1, 64, 0
2, 71040, Note_on_c, 1, 66, 127
2, 71040, Note_off_c, 1, 67, 0
2, 71040, Note_off_c, 1, 70, 0
2, 71040, Note_off_c, 1, 74, 0
2, 71080, Note_on_c, 1, 61, 127
2, 71080, Note_on_c, 1, 64, 127
2, 71080, Note_off_c, 1, 66, 0
2, 71080, Note_on_c, 1, 70, 127
2, 71080, Note_on_c, 1, 85, 127
2, 71280, Note_off_c, 1, 85, 0
2, 71360, Note_on_c, 1, 85, 127
2, 71400, Note_on_c, 1, 78, 127
2, 71400, Note_off_c, 1, 85, 0
2, 71440, Note_off_c, 1, 78, 0
2, 71440, Note_on_c, 1, 85, 127
2, 71520, Note_on_c, 1, 78, 127
2, 71520, Note_off_c, 1, 85, 0
2, 71600, Note_off_c, 1, 78, 0
2, 71680, Note_on_c, 1, 78, 127
2, 71880, Note_off_c, 1, 54, 0
2, 71880, Note_off_c, 1, 61, 0
2, 71880, Note_off_c, 1, 64, 0
2, 71880, Note_off_c, 1, 70, 0
2, 71880, Note_off_c, 1, 78, 0
2, 71920, Note_on_c, 1, 54, 127
2, 71920, Note_on_c, 1, 61, 127
2, 71920, Note_on_c, 1, 64, 127
2, 71920, Note_on_c, 1, 70, 127
2, 71920, Note_on_c, 1, 78, 127
2, 72280, Note_off_c, 1, 54, 0
2, 72280, Note_off_c, 1, 61, 0
2, 72280, Note_off_c, 1, 64, 0
2, 72280, Note_off_c, 1, 70, 0
2, 72280, Note_off_c, 1, 78, 0
2, 72320, Note_on_c, 1, 47, 127
2, 72320, Note_on_c, 1, 78, 127
2, 72920, Note_on_c, 1, 41, 127
2, 72920, Note_off_c, 1, 47, 0
2, 72920, Note_on_c, 1, 76, 127
2, 72920, Note_off_c, 1, 78, 0
2, 72920, Note_on_c, 1, 81, 127
2, 73480, Note_off_c, 1, 41, 0
2, 73480, Note_off_c, 1, 76, 0
2, 73480, Note_off_c, 1, 81, 0
2, 73520, Note_on_c, 1, 54, 127
2, 73520, Note_on_c, 1, 61, 127
2, 73520, Note_on_c, 1, 64, 127
2, 73520, Note_on_c, 1, 79, 127
2, 73560, Note_on_c, 1, 76, 127
2, 73560, Note_off_c, 1, 79, 0
2, 73600, Note_off_c, 1, 76, 0
2, 73600, Note_on_c, 1, 79, 127
2, 73640, Note_on_c, 1, 76, 127
2, 73640, Note_off_c, 1, 79, 0
2, 73920, Note_off_c, 1, 54, 0
2, 73920, Note_off_c, 1, 61, 0
2, 73920, Note_off_c, 1, 64, 0
2, 73920, Note_off_c, 1, 76, 0
2, 73960, Note_on_c, 1, 54, 127
2, 73960, Note_on_c, 1, 61, 127
2, 73960, Note_on_c, 1, 64, 127
2, 73960, Note_on_c, 1, 76, 127
2, 74120, Note_off_c, 1, 76, 0
2, 74160, Note_on_c, 1, 76, 127
2, 74720, Note_off_c, 1, 54, 0
2, 74720, Note_on_c, 1, 55, 127
2, 74720, Note_on_c, 1, 58, 127
2, 74720, Note_off_c, 1, 61, 0
2, 74720, Note_on_c, 1, 62, 127
2, 74720, Note_off_c, 1, 64, 0
2, 74720, Note_on_c, 1, 67, 127
2, 74720, Note_on_c, 1, 70, 127
2, 74720, Note_off_c, 1, 76, 0
2, 74760, Note_off_c, 1, 58, 0
2, 74760, Note_off_c, 1, 67, 0
2, 74760, Note_off_c, 1, 70, 0
2, 74760, Note_on_c, 1, 74, 127
2, 74760, Note_on_c, 1, 79, 127
2, 74760, Note_on_c, 1, 83, 127
2, 74760, Note_on_c, 1, 86, 127
2, 75280, Note_off_c, 1, 74, 0
2, 75280, Note_off_c, 1, 79, 0
2, 75280, Note_off_c, 1, 83, 0
2, 75280, Note_off_c, 1, 86, 0
2, 75320, Note_off_c, 1, 55, 0
2, 75320, Note_off_c, 1, 62, 0
2, 75360, Note_on_c, 1, 42, 127
2, 75360, Note_on_c, 1, 73, 127
2, 76120, Note_off_c, 1, 42, 0
2, 76120, Note_off_c, 1, 73, 0
2, 76160, Note_on_c, 1, 42, 127
2, 76160, Note_on_c, 1, 73, 127
2, 76560, Note_off_c, 1, 42, 0
2, 76600, Note_on_c, 1, 50, 127
2, 76600, Note_on_c, 1, 54, 127
2, 76600, Note_on_c, 1, 57, 127
2, 76600, Note_off_c, 1, 73, 0
2, 76600, Note_on_c, 1, 74, 127
2, 76600, Note_on_c, 1, 78, 127
2, 76640, Note_on_c, 1, 44, 127
2, 76640, Note_on_c, 1, 49, 127
2, 76640, Note_off_c, 1, 50, 0
2, 76640, Note_off_c, 1, 54, 0
2, 76640, Note_off_c, 1, 57, 0
2, 76640, Note_on_c, 1, 59, 127
2, 76640, Note_on_c, 1, 71, 127
2, 76640, Note_off_c, 1, 74, 0
2, 76640, Note_off_c, 1, 78, 0
2, 76680, Note_off_c, 1, 44, 0
2, 76680, Note_off_c, 1, 49, 0
2, 76680, Note_off_c, 1, 59, 0
2, 76680, Note_on_c, 1, 60, 127
2, 76680, Note_on_c, 1, 66, 127
2, 76680, Note_off_c, 1, 71, 0
2, 76680, Note_on_c, 1, 75, 127
2, 76680, Note_on_c, 1, 79, 127
2, 76720, Note_on_c, 1, 44, 127
2, 76720, Note_on_c, 1, 49, 127
2, 76720, Note_on_c, 1, 59, 127
2, 76720, Note_off_c, 1, 60, 0
2, 76720, Note_off_c, 1, 66, 0
2, 76720, Note_on_c, 1, 71, 127
2, 76720, Note_off_c, 1, 75, 0
2, 76720, Note_off_c, 1, 79, 0
2, 77160, Note_off_c, 1, 44, 0
2, 77160, Note_off_c, 1, 49, 0
2, 77160, Note_off_c, 1, 71, 0
2, 77160, Note_on_c, 1, 80, 127
2, 77160, Note_on_c, 1, 87, 127
2, 77160, Note_on_c, 1, 92, 127
2, 77200, Note_on_c, 1, 27, 127
2, 77200, Note_on_c, 1, 39, 127
2, 77200, Note_on_c, 1, 58, 127
2, 77200, Note_off_c, 1, 59, 0
2, 77200, Note_on_c, 1, 67, 127
2, 77200, Note_off_c, 1, 80, 0
2, 77200, Note_off_c, 1, 87, 0
2, 77200, Note_off_c, 1, 92, 0
2, 77560, Note_off_c, 1, 27, 0
2, 77560, Note_off_c, 1, 39, 0
2, 77560, Note_off_c, 1, 67, 0
2, 77600, Note_on_c, 1, 48, 127
2, 77600, Note_on_c, 1, 52, 127
2, 77600, Note_off_c, 1, 58, 0
2, 77600, Note_on_c, 1, 60, 127
2, 77600, Note_on_c, 1, 71, 127
2, 77600, Note_on_c, 1, 76, 127
2, 77920, Note_off_c, 1, 60, 0
2, 77960, Note_on_c, 1, 46, 127
2, 77960, Note_off_c, 1, 48, 0
2, 77960, Note_on_c, 1, 49, 127
2, 77960, Note_off_c, 1, 71, 0
2, 77960, Note_off_c, 1, 76, 0
2, 78000, Note_off_c, 1, 46, 0
2, 78000, Note_on_c, 1, 48, 127
2, 78000, Note_off_c, 1, 49, 0
2, 78000, Note_on_c, 1, 79, 127
2, 78000, Note_on_c, 1, 83, 127
2, 78040, Note_off_c, 1, 48, 0
2, 78040, Note_on_c, 1, 50, 127
2, 78040, Note_off_c, 1, 52, 0
2, 78040, Note_on_c, 1, 57, 127
2, 78040, Note_on_c, 1, 65, 127
2, 78040, Note_on_c, 1, 69, 127
2, 78040, Note_on_c, 1, 74, 127
2, 78040, Note_on_c, 1, 77, 127
2, 78040, Note_off_c, 1, 79, 0
2, 78040, Note_off_c, 1, 83, 0
2, 78320, Note_off_c, 1, 50, 0
2, 78320, Note_off_c, 1, 57, 0
2, 78320, Note_off_c, 1, 65, 0
2, 78320, Note_off_c, 1, 69, 0
2, 78320, Note_off_c, 1, 74, 0
2, 78320, Note_off_c, 1, 77, 0
2, 78360, Note_on_c, 1, 50, 127
2, 78360, Note_on_c, 1, 57, 127
2, 78360, Note_on_c, 1, 65, 127
2, 78360, Note_on_c, 1, 69, 127
2, 78360, Note_on_c, 1, 74, 127
2, 78360, Note_on_c, 1, 77, 127
2, 78600, Note_on_c, 1, 49, 127
2, 78600, Note_off_c, 1, 50, 0
2, 78600, Note_on_c, 1, 53, 127
2, 78600, Note_off_c, 1, 57, 0
2, 78600, Note_on_c, 1, 59, 127
2, 78600, Note_off_c, 1, 65, 0
2, 78600, Note_on_c, 1, 68, 127
2, 78600, Note_off_c, 1, 69, 0
2, 78600, Note_on_c, 1, 73, 127
2, 78600, Note_off_c, 1, 74, 0
2, 78600, Note_off_c, 1, 77, 0
2, 78640, Note_on_c, 1, 29, 127
2, 78640, Note_off_c, 1, 49, 0
2, 78640, Note_off_c, 1, 53, 0
2, 78640, Note_off_c, 1, 59, 0
2, 78640, Note_off_c, 1, 68, 0
2, 78640, Note_on_c, 1, 77, 127
2, 78680, Note_off_c, 1, 29, 0
2, 78680, Note_on_c, 1, 54, 127
2, 78680, Note_off_c, 1, 73, 0
2, 78680, Note_off_c, 1, 77, 0
2, 78680, Note_on_c, 1, 83, 127
2, 78680, Note_on_c, 1, 90, 127
2, 78680, Note_on_c, 1, 93, 127
2, 78680, Note_on_c, 1, 95, 127
2, 79200, Note_off_c, 1, 54, 0
2, 79200, Note_on_c, 1, 63, 127
2, 79200, Note_on_c, 1, 75, 127
2, 79200, Note_on_c, 1, 81, 127
2, 79200, Note_off_c, 1, 83, 0
2, 79200, Note_on_c, 1, 84, 127
2, 79200, Note_off_c, 1, 90, 0
2, 79200, Note_off_c, 1, 93, 0
2, 79200, Note_off_c, 1, 95, 0
2, 79240, Note_on_c, 1, 54, 127
2, 79240, Note_off_c, 1, 63, 0
2, 79240, Note_off_c, 1, 75, 0
2, 79240, Note_off_c, 1, 81, 0
2, 79240, Note_on_c, 1, 83, 127
2, 79240, Note_off_c, 1, 84, 0
2, 79240, Note_on_c, 1, 90, 127
2, 79240, Note_on_c, 1, 93, 127
2, 79240, Note_on_c, 1, 95, 127
2, 79760, Note_on_c, 1, 36, 127
2, 79760, Note_on_c, 1, 43, 127
2, 79760, Note_off_c, 1, 54, 0
2, 79760, Note_on_c, 1, 75, 127
2, 79760, Note_on_c, 1, 78, 127
2, 79760, Note_off_c, 1, 90, 0
2, 79760, Note_off_c, 1, 93, 0
2, 79760, Note_off_c, 1, 95, 0
2, 79800, Note_off_c, 1, 36, 0
2, 79800, Note_off_c, 1, 43, 0
2, 79800, Note_on_c, 1, 54, 127
2, 79800, Note_on_c, 1, 66, 127
2, 79800, Note_off_c, 1, 75, 0
2, 79800, Note_on_c, 1, 77, 127
2, 79800, Note_off_c, 1, 78, 0
2, 79800, Note_off_c, 1, 83, 0
2, 79840, Note_on_c, 1, 38, 127
2, 79840, Note_on_c, 1, 50, 127
2, 79840, Note_off_c, 1, 54, 0
2, 79840, Note_on_c, 1, 57, 127
2, 79840, Note_on_c, 1, 69, 127
2, 79840, Note_off_c, 1, 77, 0
2, 80400, Note_off_c, 1, 38, 0
2, 80400, Note_off_c, 1, 50, 0
2, 80400, Note_off_c, 1, 57, 0
2, 80400, Note_off_c, 1, 66, 0
2, 80400, Note_off_c, 1, 69, 0
2, 80480, Note_on_c, 1, 46, 127
2, 80480, Note_on_c, 1, 72, 127
2, 80480, Note_on_c, 1, 75, 127
2, 80480, Note_on_c, 1, 80, 127
2, 80640, Note_on_c, 1, 44, 127
2, 80640, Note_off_c, 1, 46, 0
2, 80680, Note_off_c, 1, 44, 0
2, 80680, Note_on_c, 1, 46, 127
2, 80760, Note_on_c, 1, 44, 127
2, 80760, Note_off_c, 1, 46, 0
2, 80800, Note_off_c, 1, 44, 0
2, 80800, Note_on_c, 1, 46, 127
2, 80840, Note_on_c, 1, 44, 127
2, 80840, Note_off_c, 1, 46, 0
2, 81040, Note_off_c, 1, 72, 0
2, 81040, Note_off_c, 1, 75, 0
2, 81040, Note_off_c, 1, 80, 0
2, 81080, Note_off_c, 1, 44, 0
2, 81080, Note_on_c, 1, 46, 127
2, 81080, Note_on_c, 1, 72, 127
2, 81080, Note_on_c, 1, 75, 127
2, 81080, Note_on_c, 1, 80, 127
2, 81240, Note_on_c, 1, 44, 127
2, 81240, Note_off_c, 1, 46, 0
2, 81640, Note_off_c, 1, 72, 0
2, 81640, Note_off_c, 1, 75, 0
2, 81640, Note_off_c, 1, 80, 0
2, 81680, Note_off_c, 1, 44, 0
2, 81680, Note_on_c, 1, 46, 127
2, 81680, Note_on_c, 1, 72, 127
2, 81680, Note_on_c, 1, 75, 127
2, 81680, Note_on_c, 1, 80, 127
2, 82240, Note_off_c, 1, 46, 0
2, 82240, Note_on_c, 1, 51, 127
2, 82240, Note_off_c, 1, 72, 0
2, 82240, Note_off_c, 1, 75, 0
2, 82240, Note_off_c, 1, 80, 0
2, 82280, Note_on_c, 1, 80, 127
2, 82280, Note_on_c, 1, 92, 127
2, 82680, Note_off_c, 1, 51, 0
2, 82680, Note_off_c, 1, 80, 0
2, 82680, Note_off_c, 1, 92, 0
2, 82720, Note_on_c, 1, 51, 127
2, 82720, Note_on_c, 1, 80, 127
2, 82720, Note_on_c, 1, 92, 127
2, 82880, Note_off_c, 1, 51, 0
2, 82920, Note_on_c, 1, 52, 127
2, 83480, Note_off_c, 1, 52, 0
2, 83480, Note_off_c, 1, 80, 0
2, 83480, Note_off_c, 1, 92, 0
2, 83520, Note_on_c, 1, 58, 127
2, 83520, Note_on_c, 1, 80, 127
2, 83520, Note_on_c, 1, 92, 127
2, 84040, Note_off_c, 1, 80, 0
2, 84040, Note_off_c, 1, 92, 0
2, 84080, Note_on_c, 1, 39, 127
2, 84080, Note_on_c, 1, 51, 127
2, 84080, Note_off_c, 1, 58, 0
2, 84080, Note_on_c, 1, 81, 127
2, 84080, Note_on_c, 1, 93, 127
2, 84640, Note_on_c, 1, 35, 127
2, 84640, Note_off_c, 1, 39, 0
2, 84640, Note_on_c, 1, 47, 127
2, 84640, Note_off_c, 1, 51, 0
2, 84640, Note_off_c, 1, 81, 0
2, 84640, Note_off_c, 1, 93, 0
2, 84680, Note_off_c, 1, 35, 0
2, 84680, Note_off_c, 1, 47, 0
2, 84720, Note_on_c, 1, 44, 127
2, 84720, Note_on_c, 1, 83, 127
2, 84720, Note_on_c, 1, 95, 127
2, 85280, Note_off_c, 1, 44, 0
2, 85880, Note_off_c, 1, 83, 0
2, 85880, Note_off_c, 1, 95, 0
2, 85920, Note_on_c, 1, 32, 127
2, 85920, Note_on_c, 1, 37, 127
2, 85920, Note_on_c, 1, 44, 127
2, 85920, Note_on_c, 1, 64, 127
2, 86280, Note_on_c, 1, 56, 127
2, 86280, Note_off_c, 1, 64, 0
2, 86320, Note_off_c, 1, 56, 0
2, 86320, Note_on_c, 1, 64, 127
2, 86520, Note_on_c, 1, 56, 127
2, 86520, Note_off_c, 1, 64, 0
2, 86720, Note_off_c, 1, 32, 0
2, 86720, Note_off_c, 1, 37, 0
2, 86720, Note_on_c, 1, 43, 127
2, 86720, Note_off_c, 1, 44, 0
2, 86720, Note_off_c, 1, 56, 0
2, 86720, Note_on_c, 1, 84, 127
2, 86720, Note_on_c, 1, 87, 127
2, 86760, Note_on_c, 1, 32, 127
2, 86760, Note_on_c, 1, 37, 127
2, 86760, Note_off_c, 1, 43, 0
2, 86760, Note_on_c, 1, 44, 127
2, 86760, Note_on_c, 1, 64, 127
2, 86760, Note_off_c, 1, 84, 0
2, 86760, Note_off_c, 1, 87, 0
2, 86800, Note_on_c, 1, 56, 127
2, 86800, Note_off_c, 1, 64, 0
2, 86880, Note_off_c, 1, 32, 0
2, 86880, Note_off_c, 1, 37, 0
2, 86880, Note_on_c, 1, 38, 127
2, 86880, Note_off_c, 1, 44, 0
2, 86880, Note_on_c, 1, 52, 127
2, 86880, Note_off_c, 1, 56, 0
2, 86880, Note_on_c, 1, 57, 127
2, 86880, Note_on_c, 1, 76, 127
2, 86920, Note_off_c, 1, 38, 0
2, 86920, Note_off_c, 1, 52, 0
2, 86920, Note_off_c, 1, 57, 0
2, 86920, Note_off_c, 1, 76, 0
2, 86960, Note_on_c, 1, 32, 127
2, 86960, Note_on_c, 1, 37, 127
2, 86960, Note_on_c, 1, 44, 127
2, 86960, Note_on_c, 1, 56, 127
2, 87000, Note_off_c, 1, 32, 0
2, 87000, Note_off_c, 1, 37, 0
2, 87000, Note_off_c, 1, 44, 0
2, 87000, Note_off_c, 1, 56, 0
2, 87000, Note_on_c, 1, 67, 127
2, 87000, Note_on_c, 1, 72, 127
2, 87000, Note_on_c, 1, 76, 127
2, 87000, Note_on_c, 1, 88, 127
2, 87000, Note_on_c, 1, 96, 127
2, 87000, Note_on_c, 1, 100, 127
2, 87040, Note_on_c, 1, 32, 127
2, 87040, Note_on_c, 1, 37, 127
2, 87040, Note_on_c, 1, 44, 127
2, 87040, Note_on_c, 1, 56, 127
2, 87040, Note_off_c, 1, 67, 0
2, 87040, Note_off_c, 1, 72, 0
2, 87040, Note_off_c, 1, 76, 0
2, 87040, Note_off_c, 1, 88, 0
2, 87040, Note_off_c, 1, 96, 0
2, 87040, Note_off_c, 1, 100, 0
2, 87080, Note_off_c, 1, 32, 0
2, 87080, Note_on_c, 1, 35, 127
2, 87080, Note_off_c, 1, 37, 0
2, 87080, Note_on_c, 1, 42, 127
2, 87080, Note_off_c, 1, 44, 0
2, 87080, Note_off_c, 1, 56, 0
2, 87080, Note_on_c, 1, 64, 127
2, 87080, Note_on_c, 1, 67, 127
2, 87080, Note_on_c, 1, 70, 127
2, 87080, Note_on_c, 1, 73, 127
2, 87120, Note_off_c, 1, 35, 0
2, 87120, Note_off_c, 1, 42, 0
2, 87120, Note_on_c, 1, 51, 127
2, 87120, Note_on_c, 1, 55, 127
2, 87120, Note_on_c, 1, 58, 127
2, 87120, Note_on_c, 1, 63, 127
2, 87120, Note_off_c, 1, 64, 0
2, 87120, Note_off_c, 1, 67, 0
2, 87120, Note_off_c, 1, 70, 0
2, 87120, Note_off_c, 1, 73, 0
2, 87120, Note_on_c, 1, 75, 127
2, 87120, Note_on_c, 1, 87, 127
2, 87160, Note_on_c, 1, 45, 127
2, 87160, Note_off_c, 1, 51, 0
2, 87160, Note_on_c, 1, 53, 127
2, 87160, Note_off_c, 1, 55, 0
2, 87160, Note_on_c, 1, 57, 127
2, 87160, Note_off_c, 1, 58, 0
2, 87160, Note_on_c, 1, 61, 127
2, 87160, Note_off_c, 1, 63, 0
2, 87160, Note_on_c, 1, 65, 127
2, 87160, Note_on_c, 1, 73, 127
2, 87160, Note_off_c, 1, 75, 0
2, 87160, Note_off_c, 1, 87, 0
2, 87680, Note_off_c, 1, 45, 0
2, 87680, Note_off_c, 1, 53, 0
2, 87680, Note_off_c, 1, 57, 0
2, 87680, Note_off_c, 1, 61, 0
2, 87680, Note_off_c, 1, 65, 0
2, 87680, Note_off_c, 1, 73, 0
2, 87760, Note_on_c, 1, 38, 127
2, 87760, Note_on_c, 1, 42, 127
2, 87760, Note_on_c, 1, 50, 127
2, 87760, Note_on_c, 1, 78, 127
2, 87760, Note_on_c, 1, 81, 127
2, 87760, Note_on_c, 1, 86, 127
2, 87760, Note_on_c, 1, 90, 127
2, 88920, Note_off_c, 1, 38, 0
2, 88920, Note_off_c, 1, 42, 0
2, 88920, Note_off_c, 1, 50, 0
2, 88920, Note_off_c, 1, 78, 0
2, 88920, Note_off_c, 1, 81, 0
2, 88920, Note_off_c, 1, 86, 0
2, 88920, Note_off_c, 1, 90, 0
2, 89000, Note_on_c, 1, 54, 127
2, 89000, Note_on_c, 1, 79, 127
2, 89000, Note_on_c, 1, 86, 127
2, 89000, Note_on_c, 1, 89, 127
2, 89000, Note_on_c, 1, 91, 127
2, 89040, Note_on_c, 1, 32, 127
2, 89040, Note_on_c, 1, 44, 127
2, 89040, Note_on_c, 1, 52, 127
2, 89040, Note_off_c, 1, 54, 0
2, 89040, Note_off_c, 1, 79, 0
2, 89040, Note_off_c, 1, 86, 0
2, 89040, Note_off_c, 1, 89, 0
2, 89040, Note_off_c, 1, 91, 0
2, 89560, Note_off_c, 1, 52, 0
2, 89600, Note_on_c, 1, 63, 127
2, 89600, Note_on_c, 1, 68, 127
2, 89600, Note_on_c, 1, 71, 127
2, 90160, Note_off_c, 1, 63, 0
2, 90160, Note_off_c, 1, 68, 0
2, 90160, Note_off_c, 1, 71, 0
2, 90200, Note_on_c, 1, 63, 127
2, 90200, Note_on_c, 1, 68, 127
2, 90200, Note_on_c, 1, 71, 127
2, 91000, Note_off_c, 1, 32, 0
2, 91000, Note_off_c, 1, 44, 0
2, 91000, Note_off_c, 1, 63, 0
2, 91000, Note_off_c, 1, 68, 0
2, 91000, Note_off_c, 1, 71, 0
2, 91040, Note_on_c, 1, 32, 127
2, 91040, Note_on_c, 1, 44, 127
2, 91040, Note_on_c, 1, 63, 127
2, 91040, Note_on_c, 1, 68, 127
2, 91040, Note_on_c, 1, 71, 127
2, 91400, Note_off_c, 1, 32, 0
2, 91400, Note_off_c, 1, 44, 0
2, 91400, Note_off_c, 1, 63, 0
2, 91400, Note_off_c, 1, 68, 0
2, 91400, Note_off_c, 1, 71, 0
2, 91440, Note_on_c, 1, 44, 127
2, 91440, Note_on_c, 1, 56, 127
2, 91440, Note_on_c, 1, 76, 127
2, 91440, Note_on_c, 1, 88, 127
2, 91440, Note_on_c, 1, 100, 127
2, 91960, Note_on_c, 1, 83, 127
2, 91960, Note_off_c, 1, 88, 0
2, 91960, Note_on_c, 1, 95, 127
2, 91960, Note_off_c, 1, 100, 0
2, 92000, Note_off_c, 1, 44, 0
2, 92000, Note_on_c, 1, 45, 127
2, 92000, Note_off_c, 1, 56, 0
2, 92000, Note_on_c, 1, 57, 127
2, 92000, Note_off_c, 1, 83, 0
2, 92000, Note_off_c, 1, 95, 0
2, 92040, Note_on_c, 1, 66, 127
2, 92040, Note_off_c, 1, 76, 0
2, 92040, Note_on_c, 1, 78, 127
2, 92600, Note_on_c, 1, 42, 127
2, 92600, Note_off_c, 1, 45, 0
2, 92600, Note_on_c, 1, 54, 127
2, 92600, Note_off_c, 1, 57, 0
2, 93040, Note_off_c, 1, 42, 0
2, 93040, Note_off_c, 1, 54, 0
2, 93040, Note_off_c, 1, 66, 0
2, 93040, Note_off_c, 1, 78, 0
2, 93080, Note_on_c, 1, 42, 127
2, 93080, Note_on_c, 1, 54, 127
2, 93080, Note_on_c, 1, 66, 127
2, 93080, Note_on_c, 1, 78, 127
2, 93840, Note_off_c, 1, 42, 0
2, 93840, Note_off_c, 1, 54, 0
2, 93840, Note_off_c, 1, 66, 0
2, 93840, Note_off_c, 1, 78, 0
2, 93880, Note_on_c, 1, 51, 127
2, 93880, Note_on_c, 1, 54, 127
2, 93880, Note_on_c, 1, 63, 127
2, 93880, Note_on_c, 1, 66, 127
2, 95040, Note_off_c, 1, 51, 0
2, 95040, Note_off_c, 1, 54, 0
2, 95040, Note_on_c, 1, 58, 127
2, 95040, Note_off_c, 1, 63, 0
2, 95040, Note_off_c, 1, 66, 0
2, 95080, Note_off_c, 1, 58, 0
2, 95120, Note_on_c, 1, 62, 127
2, 95120, Note_on_c, 1, 68, 127
2, 95120, Note_on_c, 1, 80, 127
2, 95680, Note_off_c, 1, 62, 0
2, 95720, Note_on_c, 1, 56, 127
2, 96280, Note_off_c, 1, 68, 0
2, 96320, Note_off_c, 1, 56, 0
2, 96320, Note_on_c, 1, 59, 127
2, 96320, Note_on_c, 1, 63, 127
2, 96880, Note_off_c, 1, 63, 0
2, 96880, Note_off_c, 1, 80, 0
2, 96920, Note_on_c, 1, 75, 127
2, 96920, Note_on_c, 1, 83, 127
2, 97320, Note_off_c, 1, 59, 0
2, 97320, Note_off_c, 1, 75, 0
2, 97320, Note_off_c, 1, 83, 0
2, 97360, Note_on_c, 1, 59, 127
2, 97360, Note_on_c, 1, 75, 127
2, 97360, Note_on_c, 1, 83, 127
2, 97520, Note_off_c, 1, 75, 0
2, 97520, Note_off_c, 1, 83, 0
2, 97560, Note_on_c, 1, 54, 127
2, 97560, Note_off_c, 1, 59, 0
2, 97560, Note_on_c, 1, 78, 127
2, 97560, Note_on_c, 1, 90, 127
2, 97560, Note_on_c, 1, 93, 127
2, 97600, Note_on_c, 1, 46, 127
2, 97600, Note_off_c, 1, 54, 0
2, 97600, Note_on_c, 1, 58, 127
2, 97600, Note_off_c, 1, 78, 0
2, 97600, Note_on_c, 1, 86, 127
2, 97600, Note_off_c, 1, 90, 0
2, 97600, Note_on_c, 1, 92, 127
2, 97600, Note_off_c, 1, 93, 0
2, 97640, Note_off_c, 1, 46, 0
2, 97640, Note_on_c, 1, 54, 127
2, 97640, Note_off_c, 1, 58, 0
2, 97640, Note_on_c, 1, 78, 127
2, 97640, Note_off_c, 1, 86, 0
2, 97640, Note_on_c, 1, 90, 127
2, 97640, Note_off_c, 1, 92, 0
2, 97640, Note_on_c, 1, 93, 127
2, 97680, Note_on_c, 1, 46, 127
2, 97680, Note_off_c, 1, 54, 0
2, 97680, Note_on_c, 1, 58, 127
2, 97680, Note_off_c, 1, 78, 0
2, 97680, Note_on_c, 1, 86, 127
2, 97680, Note_off_c, 1, 90, 0
2, 97680, Note_on_c, 1, 92, 127
2, 97680, Note_off_c, 1, 93, 0
2, 97720, Note_off_c, 1, 46, 0
2, 97720, Note_on_c, 1, 54, 127
2, 97720, Note_off_c, 1, 58, 0
2, 97720, Note_on_c, 1, 78, 127
2, 97720, Note_off_c, 1, 86, 0
2, 97720, Note_on_c, 1, 90, 127
2, 97720, Note_off_c, 1, 92, 0
2, 97720, Note_on_c, 1, 93, 127
2, 98120, Note_off_c, 1, 54, 0
2, 98120, Note_on_c, 1, 58, 127
2, 98120, Note_off_c, 1, 90, 0
2, 98120, Note_off_c, 1, 93, 0
2, 98160, Note_on_c, 1, 54, 127
2, 98160, Note_off_c, 1, 58, 0
2, 98160, Note_on_c, 1, 88, 127
2, 98160, Note_on_c, 1, 91, 127
2, 98720, Note_on_c, 1, 45, 127
2, 98720, Note_on_c, 1, 47, 127
2, 98720, Note_on_c, 1, 51, 127
2, 98720, Note_on_c, 1, 59, 127
2, 98720, Note_off_c, 1, 78, 0
2, 98720, Note_off_c, 1, 88, 0
2, 98720, Note_off_c, 1, 91, 0
2, 98760, Note_off_c, 1, 45, 0
2, 98760, Note_on_c, 1, 46, 127
2, 98760, Note_off_c, 1, 47, 0
2, 98760, Note_off_c, 1, 51, 0
2, 98760, Note_off_c, 1, 54, 0
2, 98760, Note_on_c, 1, 58, 127
2, 98760, Note_off_c, 1, 59, 0
2, 98760, Note_on_c, 1, 67, 127
2, 98760, Note_on_c, 1, 78, 127
2, 99000, Note_on_c, 1, 29, 127
2, 99000, Note_on_c, 1, 41, 127
2, 99000, Note_off_c, 1, 46, 0
2, 99000, Note_on_c, 1, 53, 127
2, 99000, Note_on_c, 1, 57, 127
2, 99000, Note_off_c, 1, 58, 0
2, 99000, Note_on_c, 1, 63, 127
2, 99000, Note_on_c, 1, 65, 127
2, 99000, Note_off_c, 1, 67, 0
2, 99000, Note_off_c, 1, 78, 0
2, 99040, Note_off_c, 1, 29, 0
2, 99040, Note_off_c, 1, 41, 0
2, 99040, Note_on_c, 1, 46, 127
2, 99040, Note_off_c, 1, 53, 0
2, 99040, Note_off_c, 1, 57, 0
2, 99040, Note_on_c, 1, 58, 127
2, 99040, Note_off_c, 1, 63, 0
2, 99040, Note_off_c, 1, 65, 0
2, 99040, Note_on_c, 1, 67, 127
2, 99040, Note_on_c, 1, 78, 127
2, 99280, Note_off_c, 1, 46, 0
2, 99280, Note_off_c, 1, 58, 0
2, 99280, Note_off_c, 1, 67, 0
2, 99320, Note_off_c, 1, 78, 0
2, 99360, Note_on_c, 1, 40, 127
2, 99360, Note_on_c, 1, 52, 127
2, 99360, Note_on_c, 1, 69, 127
2, 99360, Note_on_c, 1, 76, 127
2, 99360, Note_on_c, 1, 81, 127
2, 99400, Note_off_c, 1, 40, 0
2, 99400, Note_off_c, 1, 52, 0
2, 99400, Note_off_c, 1, 69, 0
2, 99400, Note_off_c, 1, 76, 0
2, 99400, Note_off_c, 1, 81, 0
2, 99440, Note_on_c, 1, 40, 127
2, 99440, Note_on_c, 1, 52, 127
2, 99440, Note_on_c, 1, 73, 127
2, 99440, Note_on_c, 1, 82, 127
2, 99480, Note_on_c, 1, 80, 127
2, 99480, Note_off_c, 1, 82, 0
2, 99520, Note_off_c, 1, 80, 0
2, 99520, Note_on_c, 1, 82, 127
2, 99920, Note_off_c, 1, 73, 0
2, 99960, Note_on_c, 1, 73, 127
2, 99960, Note_off_c, 1, 82, 0
2, 100000, Note_on_c, 1, 80, 127
2, 100240, Note_off_c, 1, 80, 0
2, 100280, Note_on_c, 1, 80, 127
2, 100520, Note_off_c, 1, 80, 0
2, 100560, Note_off_c, 1, 40, 0
2, 100560, Note_off_c, 1, 52, 0
2, 100560, Note_off_c, 1, 73, 0
2, 100600, Note_on_c, 1, 39, 127
2, 100600, Note_on_c, 1, 51, 127
2, 100600, Note_on_c, 1, 58, 127
2, 100600, Note_on_c, 1, 64, 127
2, 100640, Note_on_c, 1, 38, 127
2, 100640, Note_off_c, 1, 39, 0
2, 100640, Note_off_c, 1, 51, 0
2, 100640, Note_off_c, 1, 58, 0
2, 100640, Note_off_c, 1, 64, 0
2, 100640, Note_on_c, 1, 82, 127
2, 100640, Note_on_c, 1, 89, 127
2, 100640, Note_on_c, 1, 94, 127
2, 101360, Note_off_c, 1, 38, 0
2, 101360, Note_off_c, 1, 82, 0
2, 101360, Note_off_c, 1, 89, 0
2, 101360, Note_off_c, 1, 94, 0
2, 101400, Note_on_c, 1, 38, 127
2, 101400, Note_on_c, 1, 82, 127
2, 101400, Note_on_c, 1, 89, 127
2, 101400, Note_on_c, 1, 94, 127
2, 101560, Note_off_c, 1, 38, 0
2, 101560, Note_off_c, 1, 82, 0
2, 101560, Note_off_c, 1, 89, 0
2, 101560, Note_off_c, 1, 94, 0
2, 101600, Note_on_c, 1, 58, 127
2, 101600, Note_on_c, 1, 60, 127
2, 101600, Note_on_c, 1, 65, 127
2, 101600, Note_on_c, 1, 72, 127
2, 101600, Note_on_c, 1, 75, 127
2, 102160, Note_off_c, 1, 58, 0
2, 102160, Note_off_c, 1, 60, 0
2, 102160, Note_off_c, 1, 65, 0
2, 102160, Note_off_c, 1, 72, 0
2, 102160, Note_off_c, 1, 75, 0
2, 102200, Note_on_c, 1, 45, 127
2, 102200, Note_on_c, 1, 84, 127
2, 102200, Note_on_c, 1, 93, 127
2, 102200, Note_on_c, 1, 96, 127
2, 102240, Note_off_c, 1, 45, 0
2, 102800, Note_on_c, 1, 44, 127
2, 102800, Note_on_c, 1, 46, 127
2, 102800, Note_on_c, 1, 58, 127
2, 102800, Note_on_c, 1, 89, 127
2, 102800, Note_off_c, 1, 93, 0
2, 103360, Note_off_c, 1, 44, 0
2, 103360, Note_off_c, 1, 46, 0
2, 103360, Note_off_c, 1, 58, 0
2, 103360, Note_off_c, 1, 84, 0
2, 103360, Note_off_c, 1, 89, 0
2, 103360, Note_off_c, 1, 96, 0
2, 103400, Note_on_c, 1, 39, 127
2, 103400, Note_on_c, 1, 51, 127
2, 103400, Note_on_c, 1, 78, 127
2, 103400, Note_on_c, 1, 90, 127
2, 103600, Note_off_c, 1, 39, 0
2, 103600, Note_off_c, 1, 51, 0
2, 103600, Note_off_c, 1, 78, 0
2, 103600, Note_off_c, 1, 90, 0
2, 103640, Note_on_c, 1, 39, 127
2, 103640, Note_on_c, 1, 51, 127
2, 103640, Note_on_c, 1, 78, 127
2, 103640, Note_on_c, 1, 90, 127
2, 104600, Note_off_c, 1, 39, 0
2, 104600, Note_off_c, 1, 51, 0
2, 104600, Note_off_c, 1, 78, 0
2, 104600, Note_off_c, 1, 90, 0
2, 104640, Note_on_c, 1, 39, 127
2, 104640, Note_on_c, 1, 51, 127
2, 104640, Note_on_c, 1, 78, 127
2, 104640, Note_on_c, 1, 90, 127
2, 105800, Note_off_c, 1, 39, 0
2, 105800, Note_off_c, 1, 51, 0
2, 105800, Note_off_c, 1, 78, 0
2, 105800, Note_off_c, 1, 90, 0
2, 105880, Note_on_c, 1, 46, 127
2, 105880, Note_on_c, 1, 86, 127
2, 105880, Note_on_c, 1, 91, 127
2, 105920, Note_off_c, 1, 91, 0
2, 106440, Note_off_c, 1, 46, 0
2, 106480, Note_on_c, 1, 58, 127
2, 107040, Note_off_c, 1, 58, 0
2, 107040, Note_off_c, 1, 86, 0
2, 107080, Note_on_c, 1, 62, 127
2, 107080, Note_on_c, 1, 86, 127
2, 107680, Note_on_c, 1, 59, 127
2, 107680, Note_on_c, 1, 79, 127
2, 107680, Note_off_c, 1, 86, 0
2, 107680, Note_on_c, 1, 91, 127
2, 107880, Note_off_c, 1, 59, 0
2, 107880, Note_off_c, 1, 62, 0
2, 107880, Note_off_c, 1, 79, 0
2, 107880, Note_off_c, 1, 91, 0
2, 107920, Note_on_c, 1, 59, 127
2, 107920, Note_on_c, 1, 62, 127
2, 107920, Note_on_c, 1, 79, 127
2, 107920, Note_on_c, 1, 91, 127
2, 108240, Note_off_c, 1, 59, 0
2, 108240, Note_off_c, 1, 62, 0
2, 108240, Note_on_c, 1, 63, 127
2, 108280, Note_off_c, 1, 63, 0
2, 108280, Note_on_c, 1, 67, 127
2, 108280, Note_off_c, 1, 79, 0
2, 108280, Note_off_c, 1, 91, 0
2, 108320, Note_on_c, 1, 36, 127
2, 108320, Note_on_c, 1, 60, 127
2, 108320, Note_off_c, 1, 67, 0
2, 108320, Note_on_c, 1, 88, 127
2, 108320, Note_on_c, 1, 91, 127
2, 108360, Note_off_c, 1, 36, 0
2, 108360, Note_on_c, 1, 58, 127
2, 108360, Note_off_c, 1, 60, 0
2, 108360, Note_on_c, 1, 62, 127
2, 108360, Note_on_c, 1, 66, 127
2, 108360, Note_on_c, 1, 86, 127
2, 108360, Note_off_c, 1, 88, 0
2, 108360, Note_off_c, 1, 91, 0
2, 108840, Note_off_c, 1, 86, 0
2, 108880, Note_off_c, 1, 58, 0
2, 108880, Note_off_c, 1, 62, 0
2, 108880, Note_off_c, 1, 66, 0
2, 108920, Note_on_c, 1, 55, 127
2, 108920, Note_on_c, 1, 58, 127
2, 108920, Note_on_c, 1, 63, 127
2, 109520, Note_on_c, 1, 82, 127
2, 110040, Note_off_c, 1, 82, 0
2, 110080, Note_off_c, 1, 55, 0
2, 110080, Note_off_c, 1, 58, 0
2, 110080, Note_off_c, 1, 63, 0
2, 110080, Note_on_c, 1, 74, 127
2, 110120, Note_off_c, 1, 74, 0
2, 110160, Note_on_c, 1, 55, 127
2, 110160, Note_on_c, 1, 58, 127
2, 110160, Note_on_c, 1, 63, 127
2, 110160, Note_on_c, 1, 87, 127
2, 110560, Note_off_c, 1, 87, 0
2, 110600, Note_on_c, 1, 87, 127
2, 110720, Note_off_c, 1, 87, 0
2, 110760, Note_on_c, 1, 87, 127
2, 111320, Note_off_c, 1, 87, 0
2, 111360, Note_on_c, 1, 87, 127
2, 111920, Note_off_c, 1, 87, 0
2, 111960, Note_on_c, 1, 87, 127
2, 112200, Note_on_c, 1, 86, 127
2, 112200, Note_off_c, 1, 87, 0
2, 112240, Note_off_c, 1, 86, 0
2, 112240, Note_on_c, 1, 87, 127
2, 112360, Note_off_c, 1, 87, 0
2, 112400, Note_on_c, 1, 82, 127
2, 112520, Note_off_c, 1, 55, 0
2, 112520, Note_off_c, 1, 58, 0
2, 112520, Note_off_c, 1, 63, 0
2, 112520, Note_off_c, 1, 82, 0
2, 112600, Note_on_c, 1, 55, 127
2, 112600, Note_on_c, 1, 58, 127
2, 112600, Note_on_c, 1, 63, 127
2, 113760, Note_off_c, 1, 55, 0
2, 113760, Note_off_c, 1, 58, 0
2, 113760, Note_off_c, 1, 63, 0
2, 113800, Note_on_c, 1, 34, 127
2, 113800, Note_on_c, 1, 46, 127
2, 114360, Note_off_c, 1, 34, 0
2, 114360, Note_off_c, 1, 46, 0
2, 114400, Note_on_c, 1, 39, 127
2, 114800, Note_off_c, 1, 39, 0
2, 114840, Note_on_c, 1, 39, 127
2, 115600, Note_off_c, 1, 39, 0
2, 115640, Note_on_c, 1, 39, 127
2, 116240, Note_on_c, 1, 38, 127
2, 116240, Note_off_c, 1, 39, 0
2, 116240, Note_on_c, 1, 46, 127
2, 116240, Note_on_c, 1, 62, 127
2, 116240, Note_on_c, 1, 74, 127
2, 116280, Note_off_c, 1, 46, 0
2, 116280, Note_off_c, 1, 62, 0
2, 116280, Note_off_c, 1, 74, 0
2, 116840, Note_on_c, 1, 55, 127
2, 116840, Note_on_c, 1, 58, 127
2, 116840, Note_on_c, 1, 63, 127
2, 117040, Note_off_c, 1, 38, 0
2, 117040, Note_off_c, 1, 55, 0
2, 117040, Note_off_c, 1, 58, 0
2, 117040, Note_off_c, 1, 63, 0
2, 117080, Note_on_c, 1, 38, 127
2, 117080, Note_on_c, 1, 55, 127
2, 117080, Note_on_c, 1, 58, 127
2, 117080, Note_on_c, 1, 63, 127
2, 117440, Note_off_c, 1, 38, 0
2, 117440, Note_on_c, 1, 39, 127
2, 117440, Note_off_c, 1, 55, 0
2, 117440, Note_off_c, 1, 58, 0
2, 117440, Note_off_c, 1, 63, 0
2, 118040, Note_off_c, 1, 39, 0
2, 118080, Note_on_c, 1, 39, 127
2, 118680, Note_off_c, 1, 39, 0
2, 118680, Note_on_c, 1, 52, 127
2, 118680, Note_on_c, 1, 61, 127
2, 118680, Note_on_c, 1, 64, 127
2, 118680, Note_on_c, 1, 67, 127
2, 118680, Note_on_c, 1, 72, 127
2, 119080, Note_off_c, 1, 52, 0
2, 119080, Note_off_c, 1, 61, 0
2, 119080, Note_off_c, 1, 64, 0
2, 119080, Note_off_c, 1, 67, 0
2, 119080, Note_off_c, 1, 72, 0
2, 119120, Note_on_c, 1, 52, 127
2, 119120, Note_on_c, 1, 61, 127
2, 119120, Note_on_c, 1, 64, 127
2, 119120, Note_on_c, 1, 67, 127
2, 119120, Note_on_c, 1, 72, 127
2, 119280, Note_off_c, 1, 52, 0
2, 119280, Note_off_c, 1, 61, 0
2, 119280, Note_off_c, 1, 64, 0
2, 119280, Note_off_c, 1, 67, 0
2, 119280, Note_off_c, 1, 72, 0
2, 119320, Note_on_c, 1, 35, 127
2, 119920, Note_off_c, 1, 35, 0
2, 119920, Note_on_c, 1, 43, 127
2, 119920, Note_on_c, 1, 50, 127
2, 119920, Note_on_c, 1, 55, 127
2, 119920, Note_on_c, 1, 58, 127
2, 119920, Note_on_c, 1, 62, 127
2, 119920, Note_on_c, 1, 67, 127
2, 119920, Note_on_c, 1, 70, 127
2, 120000, Note_off_c, 1, 43, 0
2, 120000, Note_off_c, 1, 50, 0
2, 120000, Note_off_c, 1, 55, 0
2, 120000, Note_off_c, 1, 58, 0
2, 120000, Note_off_c, 1, 62, 0
2, 120000, Note_off_c, 1, 67, 0
2, 120000, Note_off_c, 1, 70, 0
2, 120040, End_track
3, 0, Start_track
3, 0, Title_t, "MIDI"
3, 1536, End_track
0, 0, End_of_file
