0, 0, Header, 1, 3, 192
1, 0, Start_track
1, 0, Time_signature, 4, 2, 24, 8
1, 0, Tempo, 500000
1, 120040, End_track
2, 0, Start_track
2, 0, Text_t, "random instrument: random person i dunno whatev"
2, 0, Title_t, "Track 1"
2, 0, Note_on_c, 1, 40, 127
2, 0, Note_on_c, 1, 48, 127
2, 0, Note_on_c, 1, 56, 127
2, 0, Note_on_c, 1, 60, 127
2, 40, Note_off_c, 1, 40, 0
2, 40, Note_on_c, 1, 42, 127
2, 40, Note_off_c, 1, 48, 0
2, 40, Note_on_c, 1, 49, 127
2, 40, Note_on_c, 1, 54, 127
2, 40, Note_off_c, 1, 56, 0
2, 40, Note_off_c, 1, 60, 0
2, 40, Note_on_c, 1, 82, 127
2, 40, Note_on_c, 1, 88, 127
2, 40, Note_on_c, 1, 94, 127
2, 80, Note_off_c, 1, 42, 0
2, 80, Note_off_c, 1, 49, 0
2, 80, Note_on_c, 1, 52, 127
2, 80, Note_off_c, 1, 54, 0
2, 80, Note_on_c, 1, 57, 127
2, 80, Note_on_c, 1, 61, 127
2, 80, Note_on_c, 1, 64, 127
2, 80, Note_on_c, 1, 69, 127
2, 80, Note_on_c, 1, 73, 127
2, 80, Note_on_c, 1, 78, 127
2, 80, Note_off_c, 1, 82, 0
2, 80, Note_off_c, 1, 88, 0
2, 80, Note_off_c, 1, 94, 0
2, 120, Note_off_c, 1, 52, 0
2, 120, Note_off_c, 1, 57, 0
2, 120, Note_off_c, 1, 61, 0
2, 120, Note_off_c, 1, 64, 0
2, 120, Note_off_c, 1, 69, 0
2, 120, Note_off_c, 1, 73, 0
2, 120, Note_off_c, 1, 78, 0
2, 1280, Note_on_c, 1, 38, 127
2, 1280, Note_on_c, 1, 54, 127
2, 1280, Note_on_c, 1, 62, 127
2, 1520, Note_off_c, 1, 38, 0
2, 1520, Note_on_c, 1, 39, 127
2, 1520, Note_on_c, 1, 45, 127
2, 1520, Note_off_c, 1, 54, 0
2, 1520, Note_on_c, 1, 60, 127
2, 1520, Note_off_c, 1, 62, 0
2, 1520, Note_on_c, 1, 66, 127
2, 1520, Note_on_c, 1, 69, 127
2, 1560, Note_on_c, 1, 37, 127
2, 1560, Note_off_c, 1, 39, 0
2, 1560, Note_off_c, 1, 45, 0
2, 1560, Note_off_c, 1, 60, 0
2, 1560, Note_on_c, 1, 64, 127
2, 1560, Note_off_c, 1, 66, 0
2, 1560, Note_on_c, 1, 67, 127
2, 1560, Note_off_c, 1, 69, 0
2, 1560, Note_on_c, 1, 73, 127
2, 1720, Note_off_c, 1, 64, 0
2, 1720, Note_off_c, 1, 67, 0
2, 1720, Note_off_c, 1, 73, 0
2, 1840, Note_on_c, 1, 34, 127
2, 1840, Note_off_c, 1, 37, 0
2, 1840, Note_on_c, 1, 46, 127
2, 1840, Note_on_c, 1, 61, 127
2, 1840, Note_on_c, 1, 66, 127
2, 1840, Note_on_c, 1, 73, 127
2, 2000, Note_off_c, 1, 34, 0
2, 2000, Note_off_c, 1, 46, 0
2, 2000, Note_off_c, 1, 61, 0
2, 2000, Note_off_c, 1, 66, 0
2, 2000, Note_off_c, 1, 73, 0
2, 2040, Note_on_c, 1, 34, 127
2, 2040, Note_on_c, 1, 46, 127
2, 2040, Note_on_c, 1, 61, 127
2, 2040, Note_on_c, 1, 66, 127
2, 2040, Note_on_c, 1, 73, 127
2, 2400, Note_off_c, 1, 34, 0
2, 2400, Note_on_c, 1, 35, 127
2, 2400, Note_off_c, 1, 46, 0
2, 2400, Note_on_c, 1, 47, 127
2, 2400, Note_off_c, 1, 61, 0
2, 2400, Note_on_c, 1, 63, 127
2, 2400, Note_off_c, 1, 73, 0
2, 2400, Note_on_c, 1, 75, 127
2, 2440, Note_on_c, 1, 34, 127
2, 2440, Note_off_c, 1, 35, 0
2, 2440, Note_on_c, 1, 46, 127
2, 2440, Note_off_c, 1, 47, 0
2, 2440, Note_on_c, 1, 61, 127
2, 2440, Note_off_c, 1, 63, 0
2, 2440, Note_on_c, 1, 73, 127
2, 2440, Note_off_c, 1, 75, 0
2, 2480, Note_off_c, 1, 34, 0
2, 2480, Note_on_c, 1, 35, 127
2, 2480, Note_off_c, 1, 46, 0
2, 2480, Note_on_c, 1, 47, 127
2, 2480, Note_off_c, 1, 61, 0
2, 2480, Note_on_c, 1, 63, 127
2, 2480, Note_off_c, 1, 73, 0
2, 2480, Note_on_c, 1, 75, 127
2, 2600, Note_off_c, 1, 35, 0
2, 2600, Note_on_c, 1, 42, 127
2, 2600, Note_off_c, 1, 47, 0
2, 2600, Note_off_c, 1, 63, 0
2, 2600, Note_off_c, 1, 66, 0
2, 2600, Note_off_c, 1, 75, 0
2, 2640, Note_on_c, 1, 38, 127
2, 2640, Note_off_c, 1, 42, 0
2, 2640, Note_on_c, 1, 50, 127
2, 2640, Note_on_c, 1, 59, 127
2, 2640, Note_on_c, 1, 66, 127
2, 2800, Note_off_c, 1, 38, 0
2, 2800, Note_off_c, 1, 50, 0
2, 2800, Note_off_c, 1, 59, 0
2, 2800, Note_off_c, 1, 66, 0
2, 2840, Note_on_c, 1, 35, 127
2, 2840, Note_on_c, 1, 47, 127
2, 2840, Note_on_c, 1, 59, 127
2, 2840, Note_on_c, 1, 71, 127
2, 3200, Note_off_c, 1, 35, 0
2, 3200, Note_off_c, 1, 47, 0
2, 3200, Note_off_c, 1, 59, 0
2, 3200, Note_off_c, 1, 71, 0
2, 3240, Note_on_c, 1, 49, 127
2, 3240, Note_on_c, 1, 59, 127
2, 3240, Note_on_c, 1, 64, 127
2, 4000, Note_off_c, 1, 49, 0
2, 4000, Note_off_c, 1, 59, 0
2, 4000, Note_off_c, 1, 64, 0
2, 4040, Note_on_c, 1, 59, 127
2, 4080, Note_on_c, 1, 47, 127
2, 4080, Note_on_c, 1, 63, 127
2, 4080, Note_on_c, 1, 66, 127
2, 4440, Note_off_c, 1, 59, 0
2, 4440, Note_off_c, 1, 63, 0
2, 4440, Note_off_c, 1, 66, 0
2, 4480, Note_on_c, 1, 59, 127
2, 4480, Note_on_c, 1, 63, 127
2, 4480, Note_on_c, 1, 66, 127
2, 4640, Note_off_c, 1, 59, 0
2, 4640, Note_off_c, 1, 63, 0
2, 4680, Note_on_c, 1, 59, 127
2, 4680, Note_on_c, 1, 63, 127
2, 4840, Note_off_c, 1, 47, 0
2, 4840, Note_off_c, 1, 59, 0
2, 4840, Note_off_c, 1, 63, 0
2, 4840, Note_off_c, 1, 66, 0
2, 4880, Note_on_c, 1, 52, 127
2, 4880, Note_on_c, 1, 59, 127
2, 4880, Note_on_c, 1, 64, 127
2, 4880, Note_on_c, 1, 68, 127
2, 5040, Note_off_c, 1, 68, 0
2, 5080, Note_on_c, 1, 71, 127
2, 5240, Note_off_c, 1, 52, 0
2, 5240, Note_off_c, 1, 59, 0
2, 5240, Note_off_c, 1, 64, 0
2, 5240, Note_off_c, 1, 71, 0
2, 5280, Note_on_c, 1, 53, 127
2, 5280, Note_on_c, 1, 59, 127
2, 5280, Note_on_c, 1, 62, 127
2, 5280, Note_on_c, 1, 68, 127
2, 5280, Note_on_c, 1, 71, 127
2, 5640, Note_off_c, 1, 53, 0
2, 5640, Note_off_c, 1, 59, 0
2, 5640, Note_off_c, 1, 62, 0
2, 5640, Note_off_c, 1, 68, 0
2, 5640, Note_off_c, 1, 71, 0
2, 5680, Note_on_c, 1, 53, 127
2, 5680, Note_on_c, 1, 59, 127
2, 5680, Note_on_c, 1, 62, 127
2, 5680, Note_on_c, 1, 68, 127
2, 5680, Note_on_c, 1, 71, 127
2, 6040, Note_off_c, 1, 53, 0
2, 6040, Note_on_c, 1, 54, 127
2, 6040, Note_off_c, 1, 59, 0
2, 6040, Note_off_c, 1, 62, 0
2, 6040, Note_off_c, 1, 68, 0
2, 6040, Note_off_c, 1, 71, 0
2, 6080, Note_on_c, 1, 53, 127
2, 6080, Note_off_c, 1, 54, 0
2, 6080, Note_on_c, 1, 59, 127
2, 6080, Note_on_c, 1, 62, 127
2, 6080, Note_on_c, 1, 68, 127
2, 6080, Note_on_c, 1, 71, 127
2, 6240, Note_off_c, 1, 53, 0
2, 6240, Note_off_c, 1, 59, 0
2, 6240, Note_off_c, 1, 62, 0
2, 6240, Note_off_c, 1, 68, 0
2, 6240, Note_off_c, 1, 71, 0
2, 6280, Note_on_c, 1, 53, 127
2, 6280, Note_on_c, 1, 59, 127
2, 6280, Note_on_c, 1, 62, 127
2, 6280, Note_on_c, 1, 68, 127
2, 6280, Note_on_c, 1, 71, 127
2, 6480, Note_off_c, 1, 53, 0
2, 6480, Note_off_c, 1, 59, 0
2, 6480, Note_off_c, 1, 62, 0
2, 6480, Note_off_c, 1, 68, 0
2, 6480, Note_off_c, 1, 71, 0
2, 6520, Note_on_c, 1, 53, 127
2, 6520, Note_on_c, 1, 59, 127
2, 6520, Note_on_c, 1, 62, 127
2, 6520, Note_on_c, 1, 68, 127
2, 6520, Note_on_c, 1, 71, 127
2, 6880, Note_off_c, 1, 53, 0
2, 6880, Note_off_c, 1, 59, 0
2, 6880, Note_off_c, 1, 62, 0
2, 6880, Note_off_c, 1, 68, 0
2, 6880, Note_off_c, 1, 71, 0
2, 6920, Note_on_c, 1, 53, 127
2, 6920, Note_on_c, 1, 59, 127
2, 6920, Note_on_c, 1, 62, 127
2, 6920, Note_on_c, 1, 68, 127
2, 6920, Note_on_c, 1, 71, 127
2, 7280, Note_off_c, 1, 53, 0
2, 7280, Note_on_c, 1, 54, 127
2, 7280, Note_off_c, 1, 59, 0
2, 7280, Note_off_c, 1, 62, 0
2, 7280, Note_off_c, 1, 68, 0
2, 7280, Note_off_c, 1, 71, 0
2, 7320, Note_on_c, 1, 53, 127
2, 7320, Note_off_c, 1, 54, 0
2, 7320, Note_on_c, 1, 59, 127
2, 7320, Note_on_c, 1, 62, 127
2, 7320, Note_on_c, 1, 68, 127
2, 7320, Note_on_c, 1, 71, 127
2, 7680, Note_off_c, 1, 53, 0
2, 7680, Note_off_c, 1, 59, 0
2, 7680, Note_off_c, 1, 62, 0
2, 7680, Note_off_c, 1, 68, 0
2, 7680, Note_off_c, 1, 71, 0
2, 7720, Note_on_c, 1, 53, 127
2, 7720, Note_on_c, 1, 59, 127
2, 7720, Note_on_c, 1, 62, 127
2, 7720, Note_on_c, 1, 68, 127
2, 7720, Note_on_c, 1, 71, 127
2, 8080, Note_off_c, 1, 53, 0
2, 8080, Note_off_c, 1, 59, 0
2, 8080, Note_off_c, 1, 62, 0
2, 8080, Note_off_c, 1, 68, 0
2, 8080, Note_off_c, 1, 71, 0
2, 8120, Note_on_c, 1, 53, 127
2, 8120, Note_on_c, 1, 59, 127
2, 8120, Note_on_c, 1, 62, 127
2, 8120, Note_on_c, 1, 68, 127
2, 8120, Note_on_c, 1, 71, 127
2, 8360, Note_off_c, 1, 53, 0
2, 8360, Note_off_c, 1, 59, 0
2, 8360, Note_off_c, 1, 62, 0
2, 8360, Note_off_c, 1, 68, 0
2, 8360, Note_off_c, 1, 71, 0
2, 8400, Note_on_c, 1, 53, 127
2, 8400, Note_on_c, 1, 59, 127
2, 8400, Note_on_c, 1, 62, 127
2, 8400, Note_on_c, 1, 68, 127
2, 8400, Note_on_c, 1, 71, 127
2, 8520, Note_off_c, 1, 53, 0
2, 8520, Note_off_c, 1, 59, 0
2, 8520, Note_off_c, 1, 62, 0
2, 8520, Note_off_c, 1, 68, 0
2, 8520, Note_off_c, 1, 71, 0
2, 8560, Note_on_c, 1, 53, 127
2, 8560, Note_on_c, 1, 59, 127
2, 8560, Note_on_c, 1, 62, 127
2, 8560, Note_on_c, 1, 68, 127
2, 8560, Note_on_c, 1, 71, 127
2, 8920, Note_off_c, 1, 53, 0
2, 8920, Note_off_c, 1, 59, 0
2, 8920, Note_off_c, 1, 62, 0
2, 8920, Note_off_c, 1, 68, 0
2, 8920, Note_off_c, 1, 71, 0
2, 8960, Note_on_c, 1, 53, 127
2, 8960, Note_on_c, 1, 59, 127
2, 8960, Note_on_c, 1, 62, 127
2, 8960, Note_on_c, 1, 68, 127
2, 8960, Note_on_c, 1, 71, 127
2, 9320, Note_off_c, 1, 53, 0
2, 9320, Note_on_c, 1, 54, 127
2, 9320, Note_off_c, 1, 59, 0
2, 9320, Note_off_c, 1, 62, 0
2, 9320, Note_off_c, 1, 68, 0
2, 9320, Note_off_c, 1, 71, 0
2, 9360, Note_on_c, 1, 53, 127
2, 9360, Note_off_c, 1, 54, 0
2, 9360, Note_on_c, 1, 59, 127
2, 9360, Note_on_c, 1, 62, 127
2, 9360, Note_on_c, 1, 68, 127
2, 9360, Note_on_c, 1, 71, 127
2, 9720, Note_off_c, 1, 53, 0
2, 9720, Note_off_c, 1, 59, 0
2, 9720, Note_off_c, 1, 62, 0
2, 9720, Note_off_c, 1, 68, 0
2, 9720, Note_off_c, 1, 71, 0
2, 9760, Note_on_c, 1, 53, 127
2, 9760, Note_on_c, 1, 59, 127
2, 9760, Note_on_c, 1, 62, 127
2, 9760, Note_on_c, 1, 68, 127
2, 9760, Note_on_c, 1, 71, 127
2, 10120, Note_off_c, 1, 53, 0
2, 10120, Note_off_c, 1, 59, 0
2, 10120, Note_off_c, 1, 62, 0
2, 10120, Note_off_c, 1, 68, 0
2, 10120, Note_off_c, 1, 71, 0
2, 10160, Note_on_c, 1, 53, 127
2, 10160, Note_on_c, 1, 59, 127
2, 10160, Note_on_c, 1, 62, 127
2, 10160, Note_on_c, 1, 68, 127
2, 10160, Note_on_c, 1, 71, 127
2, 10520, Note_off_c, 1, 53, 0
2, 10520, Note_on_c, 1, 54, 127
2, 10520, Note_off_c, 1, 59, 0
2, 10520, Note_off_c, 1, 62, 0
2, 10520, Note_off_c, 1, 68, 0
2, 10520, Note_off_c, 1, 71, 0
2, 10560, Note_off_c, 1, 54, 0
2, 10600, Note_on_c, 1, 53, 127
2, 10600, Note_on_c, 1, 59, 127
2, 10600, Note_on_c, 1, 62, 127
2, 10600, Note_on_c, 1, 68, 127
2, 10600, Note_on_c, 1, 71, 127
2, 10960, Note_off_c, 1, 53, 0
2, 10960, Note_on_c, 1, 54, 127
2, 10960, Note_off_c, 1, 59, 0
2, 10960, Note_off_c, 1, 62, 0
2, 10960, Note_off_c, 1, 68, 0
2, 10960, Note_off_c, 1, 71, 0
2, 11000, Note_on_c, 1, 53, 127
2, 11000, Note_off_c, 1, 54, 0
2, 11000, Note_on_c, 1, 59, 127
2, 11000, Note_on_c, 1, 62, 127
2, 11000, Note_on_c, 1, 68, 127
2, 11000, Note_on_c, 1, 71, 127
2, 11360, Note_off_c, 1, 53, 0
2, 11360, Note_off_c, 1, 59, 0
2, 11360, Note_off_c, 1, 62, 0
2, 11360, Note_off_c, 1, 68, 0
2, 11360, Note_off_c, 1, 71, 0
2, 11400, Note_on_c, 1, 53, 127
2, 11400, Note_on_c, 1, 59, 127
2, 11400, Note_on_c, 1, 62, 127
2, 11400, Note_on_c, 1, 68, 127
2, 11400, Note_on_c, 1, 71, 127
2, 11760, Note_off_c, 1, 53, 0
2, 11760, Note_on_c, 1, 54, 127
2, 11760, Note_off_c, 1, 59, 0
2, 11760, Note_off_c, 1, 62, 0
2, 11760, Note_off_c, 1, 68, 0
2, 11760, Note_off_c, 1, 71, 0
2, 11800, Note_on_c, 1, 53, 127
2, 11800, Note_off_c, 1, 54, 0
2, 11800, Note_on_c, 1, 59, 127
2, 11800, Note_on_c, 1, 62, 127
2, 11800, Note_on_c, 1, 68, 127
2, 11800, Note_on_c, 1, 71, 127
2, 12160, Note_off_c, 1, 53, 0
2, 12160, Note_off_c, 1, 59, 0
2, 12160, Note_off_c, 1, 62, 0
2, 12160, Note_off_c, 1, 68, 0
2, 12160, Note_off_c, 1, 71, 0
2, 12200, Note_on_c, 1, 53, 127
2, 12200, Note_on_c, 1, 59, 127
2, 12200, Note_on_c, 1, 62, 127
2, 12200, Note_on_c, 1, 68, 127
2, 12200, Note_on_c, 1, 71, 127
2, 12560, Note_off_c, 1, 53, 0
2, 12560, Note_off_c, 1, 59, 0
2, 12560, Note_off_c, 1, 62, 0
2, 12560, Note_off_c, 1, 68, 0
2, 12560, Note_off_c, 1, 71, 0
2, 12640, Note_on_c, 1, 53, 127
2, 12640, Note_on_c, 1, 59, 127
2, 12640, Note_on_c, 1, 62, 127
2, 12640, Note_on_c, 1, 68, 127
2, 12640, Note_on_c, 1, 71, 127
2, 13000, Note_off_c, 1, 53, 0
2, 13000, Note_on_c, 1, 54, 127
2, 13000, Note_off_c, 1, 59, 0
2, 13000, Note_off_c, 1, 62, 0
2, 13000, Note_off_c, 1, 68, 0
2, 13000, Note_off_c, 1, 71, 0
2, 13040, Note_on_c, 1, 53, 127
2, 13040, Note_off_c, 1, 54, 0
2, 13040, Note_on_c, 1, 59, 127
2, 13040, Note_on_c, 1, 62, 127
2, 13040, Note_on_c, 1, 68, 127
2, 13040, Note_on_c, 1, 71, 127
2, 13400, Note_off_c, 1, 53, 0
2, 13400, Note_off_c, 1, 59, 0
2, 13400, Note_off_c, 1, 62, 0
2, 13400, Note_off_c, 1, 68, 0
2, 13400, Note_off_c, 1, 71, 0
2, 13440, Note_on_c, 1, 53, 127
2, 13440, Note_on_c, 1, 59, 127
2, 13440, Note_on_c, 1, 62, 127
2, 13440, Note_on_c, 1, 68, 127
2, 13440, Note_on_c, 1, 71, 127
2, 13800, Note_off_c, 1, 53, 0
2, 13800, Note_off_c, 1, 62, 0
2, 13800, Note_off_c, 1, 68, 0
2, 13800, Note_off_c, 1, 71, 0
2, 13840, Note_on_c, 1, 53, 127
2, 13840, Note_on_c, 1, 62, 127
2, 13840, Note_on_c, 1, 68, 127
2, 13840, Note_on_c, 1, 71, 127
2, 14200, Note_off_c, 1, 53, 0
2, 14200, Note_off_c, 1, 59, 0
2, 14200, Note_off_c, 1, 62, 0
2, 14200, Note_off_c, 1, 68, 0
2, 14200, Note_off_c, 1, 71, 0
2, 14240, Note_on_c, 1, 53, 127
2, 14240, Note_on_c, 1, 59, 127
2, 14240, Note_on_c, 1, 62, 127
2, 14240, Note_on_c, 1, 68, 127
2, 14240, Note_on_c, 1, 71, 127
2, 14600, Note_off_c, 1, 53, 0
2, 14600, Note_on_c, 1, 54, 127
2, 14600, Note_off_c, 1, 59, 0
2, 14600, Note_off_c, 1, 62, 0
2, 14600, Note_off_c, 1, 68, 0
2, 14600, Note_off_c, 1, 71, 0
2, 14640, Note_off_c, 1, 54, 0
2, 14680, Note_on_c, 1, 53, 127
2, 14680, Note_on_c, 1, 59, 127
2, 14680, Note_on_c, 1, 62, 127
2, 14680, Note_on_c, 1, 68, 127
2, 14680, Note_on_c, 1, 71, 127
2, 15040, Note_off_c, 1, 53, 0
2, 15040, Note_off_c, 1, 59, 0
2, 15040, Note_off_c, 1, 62, 0
2, 15040, Note_off_c, 1, 68, 0
2, 15040, Note_off_c, 1, 71, 0
2, 15080, Note_on_c, 1, 53, 127
2, 15080, Note_on_c, 1, 59, 127
2, 15080, Note_on_c, 1, 62, 127
2, 15080, Note_on_c, 1, 68, 127
2, 15080, Note_on_c, 1, 71, 127
2, 15440, Note_off_c, 1, 53, 0
2, 15440, Note_on_c, 1, 54, 127
2, 15440, Note_off_c, 1, 59, 0
2, 15440, Note_off_c, 1, 62, 0
2, 15440, Note_off_c, 1, 68, 0
2, 15440, Note_off_c, 1, 71, 0
2, 15480, Note_on_c, 1, 53, 127
2, 15480, Note_off_c, 1, 54, 0
2, 15480, Note_on_c, 1, 59, 127
2, 15480, Note_on_c, 1, 62, 127
2, 15480, Note_on_c, 1, 68, 127
2, 15480, Note_on_c, 1, 71, 127
2, 15840, Note_off_c, 1, 53, 0
2, 15840, Note_off_c, 1, 59, 0
2, 15840, Note_off_c, 1, 62, 0
2, 15840, Note_off_c, 1, 68, 0
2, 15840, Note_off_c, 1, 71, 0
2, 15880, Note_on_c, 1, 59, 127
2, 15880, Note_on_c, 1, 64, 127
2, 15880, Note_on_c, 1, 68, 127
2, 15880, Note_on_c, 1, 71, 127
2, 16240, Note_off_c, 1, 59, 0
2, 16240, Note_off_c, 1, 64, 0
2, 16240, Note_off_c, 1, 68, 0
2, 16240, Note_off_c, 1, 71, 0
2, 16280, Note_on_c, 1, 63, 127
2, 16280, Note_on_c, 1, 66, 127
2, 16280, Note_on_c, 1, 71, 127
2, 16280, Note_on_c, 1, 75, 127
2, 16640, Note_on_c, 1, 54, 127
2, 16640, Note_off_c, 1, 63, 0
2, 16640, Note_off_c, 1, 66, 0
2, 16640, Note_off_c, 1, 71, 0
2, 16640, Note_off_c, 1, 75, 0
2, 16680, Note_off_c, 1, 54, 0
2, 16720, Note_on_c, 1, 54, 127
2, 16720, Note_on_c, 1, 61, 127
2, 16720, Note_on_c, 1, 66, 127
2, 16720, Note_on_c, 1, 70, 127
2, 17080, Note_off_c, 1, 54, 0
2, 17080, Note_off_c, 1, 61, 0
2, 17080, Note_off_c, 1, 66, 0
2, 17080, Note_off_c, 1, 70, 0
2, 17120, Note_on_c, 1, 59, 127
2, 17120, Note_on_c, 1, 63, 127
2, 17120, Note_on_c, 1, 68, 127
2, 17120, Note_on_c, 1, 82, 127
2, 17280, Note_off_c, 1, 82, 0
2, 17320, Note_on_c, 1, 80, 127
2, 17480, Note_off_c, 1, 59, 0
2, 17480, Note_off_c, 1, 63, 0
2, 17480, Note_off_c, 1, 68, 0
2, 17480, Note_off_c, 1, 80, 0
2, 17520, Note_on_c, 1, 52, 127
2, 17520, Note_on_c, 1, 82, 127
2, 17880, Note_off_c, 1, 52, 0
2, 17920, Note_on_c, 1, 59, 127
2, 17920, Note_on_c, 1, 63, 127
2, 17920, Note_on_c, 1, 66, 127
2, 17920, Note_on_c, 1, 81, 127
2, 17920, Note_off_c, 1, 82, 0
2, 18240, Note_off_c, 1, 81, 0
2, 18280, Note_off_c, 1, 59, 0
2, 18280, Note_off_c, 1, 63, 0
2, 18280, Note_off_c, 1, 66, 0
2, 18320, Note_on_c, 1, 59, 127
2, 18320, Note_on_c, 1, 63, 127
2, 18320, Note_on_c, 1, 66, 127
2, 18320, Note_on_c, 1, 90, 127
2, 18680, Note_on_c, 1, 51, 127
2, 18680, Note_off_c, 1, 59, 0
2, 18680, Note_off_c, 1, 66, 0
2, 18680, Note_off_c, 1, 90, 0
2, 18720, Note_off_c, 1, 51, 0
2, 18720, Note_off_c, 1, 63, 0
2, 18760, Note_on_c, 1, 42, 127
2, 18760, Note_on_c, 1, 54, 127
2, 18760, Note_on_c, 1, 61, 127
2, 18760, Note_on_c, 1, 76, 127
2, 18760, Note_on_c, 1, 88, 127
2, 19080, Note_off_c, 1, 42, 0
2, 19080, Note_off_c, 1, 54, 0
2, 19080, Note_off_c, 1, 61, 0
2, 19080, Note_off_c, 1, 76, 0
2, 19080, Note_off_c, 1, 88, 0
2, 19120, Note_on_c, 1, 59, 127
2, 19120, Note_on_c, 1, 63, 127
2, 19120, Note_on_c, 1, 71, 127
2, 19920, Note_off_c, 1, 63, 0
2, 19960, Note_on_c, 1, 63, 127
2, 20320, Note_off_c, 1, 59, 0
2, 20320, Note_off_c, 1, 63, 0
2, 20320, Note_off_c, 1, 71, 0
2, 20360, Note_on_c, 1, 47, 127
2, 20520, Note_off_c, 1, 47, 0
2, 21600, Note_on_c, 1, 52, 127
2, 21600, Note_on_c, 1, 64, 127
2, 22720, Note_off_c, 1, 52, 0
2, 22720, Note_off_c, 1, 64, 0
2, 22760, Note_on_c, 1, 49, 127
2, 22760, Note_on_c, 1, 61, 127
2, 22960, Note_off_c, 1, 49, 0
2, 22960, Note_off_c, 1, 61, 0
2, 23000, Note_on_c, 1, 49, 127
2, 23000, Note_on_c, 1, 61, 127
2, 23520, Note_off_c, 1, 49, 0
2, 23520, Note_off_c, 1, 61, 0
2, 23560, Note_on_c, 1, 39, 127
2, 23560, Note_on_c, 1, 51, 127
2, 23560, Note_on_c, 1, 63, 127
2, 23920, Note_off_c, 1, 39, 0
2, 23960, Note_on_c, 1, 39, 127
2, 24320, Note_off_c, 1, 39, 0
2, 24320, Note_off_c, 1, 51, 0
2, 24320, Note_off_c, 1, 63, 0
2, 24360, Note_on_c, 1, 57, 127
2, 24720, Note_off_c, 1, 57, 0
2, 24760, Note_on_c, 1, 51, 127
2, 25280, Note_off_c, 1, 51, 0
2, 25320, Note_on_c, 1, 51, 127
2, 25360, Note_off_c, 1, 51, 0
2, 25400, Note_on_c, 1, 49, 127
2, 25760, Note_off_c, 1, 49, 0
2, 25800, Note_on_c, 1, 51, 127
2, 25960, Note_off_c, 1, 51, 0
2, 26000, Note_on_c, 1, 54, 127
2, 26160, Note_off_c, 1, 54, 0
2, 26200, Note_on_c, 1, 57, 127
2, 26360, Note_off_c, 1, 57, 0
2, 26400, Note_on_c, 1, 49, 127
2, 26560, Note_off_c, 1, 49, 0
2, 26600, Note_on_c, 1, 39, 127
2, 26760, Note_off_c, 1, 39, 0
2, 26800, Note_on_c, 1, 37, 127
2, 26960, Note_off_c, 1, 37, 0
2, 27000, Note_on_c, 1, 45, 127
2, 27320, Note_off_c, 1, 45, 0
2, 27360, Note_on_c, 1, 43, 127
2, 27360, Note_on_c, 1, 72, 127
2, 27560, Note_off_c, 1, 43, 0
2, 27560, Note_off_c, 1, 72, 0
2, 27600, Note_on_c, 1, 43, 127
2, 27600, Note_on_c, 1, 72, 127
2, 27760, Note_off_c, 1, 72, 0
2, 27800, Note_off_c, 1, 43, 0
2, 27800, Note_on_c, 1, 45, 127
2, 27800, Note_on_c, 1, 52, 127
2, 27800, Note_on_c, 1, 64, 127
2, 27800, Note_on_c, 1, 71, 127
2, 28920, Note_off_c, 1, 45, 0
2, 28920, Note_off_c, 1, 52, 0
2, 28920, Note_off_c, 1, 64, 0
2, 28920, Note_off_c, 1, 71, 0
2, 28960, Note_on_c, 1, 52, 127
2, 28960, Note_on_c, 1, 72, 127
2, 29680, Note_off_c, 1, 52, 0
2, 29680, Note_off_c, 1, 72, 0
2, 29720, Note_on_c, 1, 60, 127
2, 29720, Note_on_c, 1, 74, 127
2, 29720, Note_on_c, 1, 79, 127
2, 29720, Note_on_c, 1, 86, 127
2, 29800, Note_off_c, 1, 60, 0
2, 29800, Note_off_c, 1, 74, 0
2, 29800, Note_off_c, 1, 79, 0
2, 29800, Note_off_c, 1, 86, 0
2, 29840, Note_on_c, 1, 59, 127
2, 29840, Note_on_c, 1, 74, 127
2, 29840, Note_on_c, 1, 79, 127
2, 29840, Note_on_c, 1, 86, 127
2, 29880, Note_off_c, 1, 59, 0
2, 29880, Note_on_c, 1, 60, 127
2, 30120, Note_off_c, 1, 60, 0
2, 30160, Note_on_c, 1, 59, 127
2, 30520, Note_off_c, 1, 59, 0
2, 30560, Note_on_c, 1, 59, 127
2, 30920, Note_off_c, 1, 59, 0
2, 30960, Note_on_c, 1, 59, 127
2, 31320, Note_off_c, 1, 59, 0
2, 31360, Note_on_c, 1, 43, 127
2, 31360, Note_off_c, 1, 74, 0
2, 31360, Note_on_c, 1, 82, 127
2, 31360, Note_off_c, 1, 86, 0
2, 31720, Note_off_c, 1, 43, 0
2, 31720, Note_off_c, 1, 79, 0
2, 31720, Note_off_c, 1, 82, 0
2, 31760, Note_on_c, 1, 52, 127
2, 31760, Note_on_c, 1, 67, 127
2, 31760, Note_on_c, 1, 71, 127
2, 31760, Note_on_c, 1, 76, 127
2, 32120, Note_off_c, 1, 52, 0
2, 32120, Note_on_c, 1, 59, 127
2, 32120, Note_off_c, 1, 67, 0
2, 32120, Note_off_c, 1, 71, 0
2, 32120, Note_off_c, 1, 76, 0
2, 32160, Note_off_c, 1, 59, 0
2, 32200, Note_on_c, 1, 52, 127
2, 32200, Note_on_c, 1, 67, 127
2, 32200, Note_on_c, 1, 71, 127
2, 32200, Note_on_c, 1, 76, 127
2, 32560, Note_off_c, 1, 52, 0
2, 32560, Note_on_c, 1, 55, 127
2, 32560, Note_off_c, 1, 67, 0
2, 32560, Note_off_c, 1, 71, 0
2, 32560, Note_off_c, 1, 76, 0
2, 32600, Note_on_c, 1, 52, 127
2, 32600, Note_off_c, 1, 55, 0
2, 32600, Note_on_c, 1, 67, 127
2, 32600, Note_on_c, 1, 71, 127
2, 32600, Note_on_c, 1, 76, 127
2, 32960, Note_off_c, 1, 52, 0
2, 32960, Note_off_c, 1, 67, 0
2, 32960, Note_off_c, 1, 71, 0
2, 32960, Note_off_c, 1, 76, 0
2, 33000, Note_on_c, 1, 52, 127
2, 33000, Note_on_c, 1, 67, 127
2, 33000, Note_on_c, 1, 71, 127
2, 33000, Note_on_c, 1, 76, 127
2, 33360, Note_off_c, 1, 67, 0
2, 33360, Note_off_c, 1, 71, 0
2, 33360, Note_off_c, 1, 76, 0
2, 33400, Note_on_c, 1, 67, 127
2, 33400, Note_on_c, 1, 71, 127
2, 33400, Note_on_c, 1, 76, 127
2, 33760, Note_off_c, 1, 52, 0
2, 33760, Note_off_c, 1, 67, 0
2, 33760, Note_off_c, 1, 71, 0
2, 33760, Note_off_c, 1, 76, 0
2, 33800, Note_on_c, 1, 35, 127
2, 33800, Note_on_c, 1, 42, 127
2, 33800, Note_on_c, 1, 52, 127
2, 33800, Note_on_c, 1, 54, 127
2, 33840, Note_off_c, 1, 35, 0
2, 33840, Note_off_c, 1, 42, 0
2, 33840, Note_off_c, 1, 52, 0
2, 33840, Note_off_c, 1, 54, 0
2, 33840, Note_on_c, 1, 67, 127
2, 33840, Note_on_c, 1, 70, 127
2, 33840, Note_on_c, 1, 73, 127
2, 33840, Note_on_c, 1, 75, 127
2, 33840, Note_on_c, 1, 83, 127
2, 33960, Note_off_c, 1, 83, 0
2, 34000, Note_on_c, 1, 83, 127
2, 34160, Note_off_c, 1, 67, 0
2, 34160, Note_off_c, 1, 70, 0
2, 34160, Note_off_c, 1, 73, 0
2, 34160, Note_off_c, 1, 75, 0
2, 34160, Note_off_c, 1, 83, 0
2, 34200, Note_on_c, 1, 68, 127
2, 34200, Note_on_c, 1, 71, 127
2, 34200, Note_on_c, 1, 76, 127
2, 34240, Note_on_c, 1, 55, 127
2, 34240, Note_off_c, 1, 68, 0
2, 34240, Note_off_c, 1, 71, 0
2, 34240, Note_off_c, 1, 76, 0
2, 34240, Note_on_c, 1, 79, 127
2, 34240, Note_on_c, 1, 90, 127
2, 34240, Note_on_c, 1, 91, 127
2, 34280, Note_on_c, 1, 48, 127
2, 34280, Note_on_c, 1, 59, 127
2, 34280, Note_on_c, 1, 74, 127
2, 34280, Note_on_c, 1, 77, 127
2, 34280, Note_off_c, 1, 79, 0
2, 34280, Note_off_c, 1, 90, 0
2, 34280, Note_off_c, 1, 91, 0
2, 34320, Note_off_c, 1, 48, 0
2, 34320, Note_on_c, 1, 50, 127
2, 34320, Note_on_c, 1, 57, 127
2, 34320, Note_off_c, 1, 59, 0
2, 34320, Note_on_c, 1, 61, 127
2, 34320, Note_off_c, 1, 74, 0
2, 34320, Note_off_c, 1, 77, 0
2, 34320, Note_on_c, 1, 81, 127
2, 34360, Note_on_c, 1, 34, 127
2, 34360, Note_on_c, 1, 41, 127
2, 34360, Note_off_c, 1, 50, 0
2, 34360, Note_off_c, 1, 55, 0
2, 34360, Note_off_c, 1, 57, 0
2, 34360, Note_off_c, 1, 61, 0
2, 34360, Note_on_c, 1, 65, 127
2, 34360, Note_on_c, 1, 69, 127
2, 34360, Note_on_c, 1, 74, 127
2, 34360, Note_on_c, 1, 77, 127
2, 34360, Note_off_c, 1, 81, 0
2, 34400, Note_off_c, 1, 34, 0
2, 34400, Note_off_c, 1, 41, 0
2, 34400, Note_off_c, 1, 65, 0
2, 34400, Note_off_c, 1, 69, 0
2, 34400, Note_off_c, 1, 74, 0
2, 34400, Note_on_c, 1, 80, 127
2, 34400, Note_on_c, 1, 86, 127
2, 34400, Note_on_c, 1, 101, 127
2, 34440, Note_on_c, 1, 50, 127
2, 34440, Note_on_c, 1, 55, 127
2, 34440, Note_on_c, 1, 57, 127
2, 34440, Note_on_c, 1, 61, 127
2, 34440, Note_on_c, 1, 64, 127
2, 34440, Note_on_c, 1, 69, 127
2, 34440, Note_off_c, 1, 77, 0
2, 34440, Note_off_c, 1, 80, 0
2, 34440, Note_off_c, 1, 86, 0
2, 34440, Note_off_c, 1, 101, 0
2, 34480, Note_on_c, 1, 47, 127
2, 34480, Note_off_c, 1, 50, 0
2, 34480, Note_off_c, 1, 55, 0
2, 34480, Note_off_c, 1, 57, 0
2, 34480, Note_off_c, 1, 61, 0
2, 34480, Note_off_c, 1, 64, 0
2, 34480, Note_off_c, 1, 69, 0
2, 34480, Note_on_c, 1, 77, 127
2, 34480, Note_on_c, 1, 91, 127
2, 34520, Note_on_c, 1, 35, 127
2, 34520, Note_off_c, 1, 47, 0
2, 34520, Note_on_c, 1, 54, 127
2, 34520, Note_on_c, 1, 59, 127
2, 34520, Note_on_c, 1, 64, 127
2, 34520, Note_on_c, 1, 68, 127
2, 34520, Note_on_c, 1, 71, 127
2, 34520, Note_off_c, 1, 77, 0
2, 34520, Note_off_c, 1, 91, 0
2, 34560, Note_off_c, 1, 35, 0
2, 34560, Note_on_c, 1, 44, 127
2, 34560, Note_on_c, 1, 48, 127
2, 34560, Note_off_c, 1, 54, 0
2, 34560, Note_off_c, 1, 59, 0
2, 34560, Note_off_c, 1, 64, 0
2, 34560, Note_off_c, 1, 68, 0
2, 34560, Note_off_c, 1, 71, 0
2, 34560, Note_on_c, 1, 72, 127
2, 34560, Note_on_c, 1, 74, 127
2, 34560, Note_on_c, 1, 84, 127
2, 34600, Note_off_c, 1, 44, 0
2, 34600, Note_off_c, 1, 48, 0
2, 34600, Note_off_c, 1, 72, 0
2, 34600, Note_off_c, 1, 74, 0
2, 34600, Note_off_c, 1, 84, 0
2, 34640, Note_on_c, 1, 64, 127
2, 34640, Note_on_c, 1, 69, 127
2, 34640, Note_on_c, 1, 72, 127
2, 34640, Note_on_c, 1, 77, 127
2, 34640, Note_on_c, 1, 84, 127
2, 35000, Note_off_c, 1, 64, 0
2, 35000, Note_off_c, 1, 69, 0
2, 35000, Note_off_c, 1, 72, 0
2, 35000, Note_off_c, 1, 77, 0
2, 35000, Note_off_c, 1, 84, 0
2, 35040, Note_on_c, 1, 46, 127
2, 35040, Note_on_c, 1, 58, 127
2, 35040, Note_on_c, 1, 61, 127
2, 35040, Note_on_c, 1, 66, 127
2, 35040, Note_on_c, 1, 73, 127
2, 35400, Note_off_c, 1, 46, 0
2, 35400, Note_off_c, 1, 58, 0
2, 35400, Note_off_c, 1, 61, 0
2, 35400, Note_off_c, 1, 66, 0
2, 35400, Note_off_c, 1, 73, 0
2, 35440, Note_on_c, 1, 37, 127
2, 35440, Note_on_c, 1, 49, 127
2, 35440, Note_on_c, 1, 64, 127
2, 35440, Note_on_c, 1, 66, 127
2, 35440, Note_on_c, 1, 73, 127
2, 35480, Note_on_c, 1, 35, 127
2, 35480, Note_off_c, 1, 37, 0
2, 35480, Note_off_c, 1, 49, 0
2, 35520, Note_off_c, 1, 35, 0
2, 35840, Note_on_c, 1, 56, 127
2, 35840, Note_off_c, 1, 64, 0
2, 35840, Note_on_c, 1, 65, 127
2, 35840, Note_off_c, 1, 66, 0
2, 35840, Note_on_c, 1, 71, 127
2, 35840, Note_off_c, 1, 73, 0
2, 35840, Note_on_c, 1, 76, 127
2, 36200, Note_off_c, 1, 65, 0
2, 36200, Note_off_c, 1, 76, 0
2, 36240, Note_off_c, 1, 56, 0
2, 36240, Note_off_c, 1, 71, 0
2, 36280, Note_on_c, 1, 56, 127
2, 36280, Note_on_c, 1, 65, 127
2, 36280, Note_on_c, 1, 71, 127
2, 36280, Note_on_c, 1, 74, 127
2, 36600, Note_off_c, 1, 56, 0
2, 36600, Note_on_c, 1, 59, 127
2, 36600, Note_off_c, 1, 65, 0
2, 36600, Note_off_c, 1, 71, 0
2, 36640, Note_on_c, 1, 54, 127
2, 36640, Note_off_c, 1, 59, 0
2, 36640, Note_off_c, 1, 74, 0
2, 37080, Note_on_c, 1, 61, 127
2, 37080, Note_on_c, 1, 68, 127
2, 37080, Note_on_c, 1, 70, 127
2, 37080, Note_on_c, 1, 76, 127
2, 37400, Note_off_c, 1, 54, 0
2, 37400, Note_off_c, 1, 61, 0
2, 37400, Note_off_c, 1, 68, 0
2, 37400, Note_off_c, 1, 70, 0
2, 37400, Note_off_c, 1, 76, 0
2, 37440, Note_on_c, 1, 40, 127
2, 37440, Note_on_c, 1, 52, 127
2, 37440, Note_on_c, 1, 71, 127
2, 37440, Note_on_c, 1, 76, 127
2, 37440, Note_on_c, 1, 80, 127
2, 38320, Note_off_c, 1, 40, 0
2, 38320, Note_off_c, 1, 52, 0
2, 38320, Note_off_c, 1, 71, 0
2, 38320, Note_off_c, 1, 76, 0
2, 38320, Note_off_c, 1, 80, 0
2, 38360, Note_on_c, 1, 40, 127
2, 38360, Note_on_c, 1, 52, 127
2, 38360, Note_on_c, 1, 71, 127
2, 38360, Note_on_c, 1, 76, 127
2, 38360, Note_on_c, 1, 80, 127
2, 38640, Note_off_c, 1, 40, 0
2, 38640, Note_off_c, 1, 52, 0
2, 38640, Note_off_c, 1, 71, 0
2, 38640, Note_off_c, 1, 76, 0
2, 38640, Note_off_c, 1, 80, 0
2, 38680, Note_on_c, 1, 40, 127
2, 38680, Note_on_c, 1, 52, 127
2, 38680, Note_on_c, 1, 56, 127
2, 38680, Note_on_c, 1, 59, 127
2, 38680, Note_on_c, 1, 64, 127
2, 39400, Note_off_c, 1, 56, 0
2, 39400, Note_off_c, 1, 59, 0
2, 39400, Note_off_c, 1, 64, 0
2, 39840, Note_on_c, 1, 63, 127
2, 39840, Note_on_c, 1, 66, 127
2, 39840, Note_on_c, 1, 69, 127
2, 40640, Note_off_c, 1, 40, 0
2, 40640, Note_off_c, 1, 52, 0
2, 40640, Note_off_c, 1, 63, 0
2, 40640, Note_off_c, 1, 66, 0
2, 40640, Note_off_c, 1, 69, 0
2, 40680, Note_on_c, 1, 40, 127
2, 40680, Note_on_c, 1, 52, 127
2, 40680, Note_on_c, 1, 63, 127
2, 40680, Note_on_c, 1, 66, 127
2, 40680, Note_on_c, 1, 69, 127
2, 41000, Note_off_c, 1, 40, 0
2, 41000, Note_off_c, 1, 63, 0
2, 41000, Note_on_c, 1, 64, 127
2, 41000, Note_off_c, 1, 66, 0
2, 41000, Note_off_c, 1, 69, 0
2, 41040, Note_on_c, 1, 37, 127
2, 41040, Note_on_c, 1, 49, 127
2, 41040, Note_off_c, 1, 52, 0
2, 41040, Note_off_c, 1, 64, 0
2, 41040, Note_on_c, 1, 93, 127
2, 41800, Note_off_c, 1, 37, 0
2, 41800, Note_off_c, 1, 49, 0
2, 41800, Note_off_c, 1, 93, 0
2, 41840, Note_on_c, 1, 48, 127
2, 41840, Note_on_c, 1, 54, 127
2, 41840, Note_on_c, 1, 58, 127
2, 41840, Note_on_c, 1, 65, 127
2, 41880, Note_on_c, 1, 29, 127
2, 41880, Note_on_c, 1, 41, 127
2, 41880, Note_off_c, 1, 48, 0
2, 41880, Note_off_c, 1, 54, 0
2, 41880, Note_off_c, 1, 58, 0
2, 41880, Note_on_c, 1, 61, 127
2, 41880, Note_off_c, 1, 65, 0
2, 41880, Note_on_c, 1, 70, 127
2, 41920, Note_on_c, 1, 57, 127
2, 41920, Note_off_c, 1, 61, 0
2, 41920, Note_off_c, 1, 70, 0
2, 41920, Note_on_c, 1, 72, 127
2, 41960, Note_on_c, 1, 56, 127
2, 41960, Note_off_c, 1, 57, 0
2, 41960, Note_off_c, 1, 72, 0
2, 42000, Note_off_c, 1, 56, 0
2, 42240, Note_on_c, 1, 84, 127
2, 42560, Note_off_c, 1, 84, 0
2, 42600, Note_on_c, 1, 84, 127
2, 42760, Note_off_c, 1, 84, 0
2, 42800, Note_on_c, 1, 84, 127
2, 42960, Note_on_c, 1, 77, 127
2, 42960, Note_off_c, 1, 84, 0
2, 43000, Note_off_c, 1, 29, 0
2, 43000, Note_off_c, 1, 41, 0
2, 43000, Note_off_c, 1, 77, 0
2, 43080, Note_on_c, 1, 55, 127
2, 43080, Note_on_c, 1, 59, 127
2, 43080, Note_on_c, 1, 62, 127
2, 43080, Note_on_c, 1, 92, 127
2, 43120, Note_off_c, 1, 55, 0
2, 43120, Note_off_c, 1, 59, 0
2, 43120, Note_off_c, 1, 62, 0
2, 43120, Note_on_c, 1, 63, 127
2, 43120, Note_on_c, 1, 66, 127
2, 43120, Note_on_c, 1, 73, 127
2, 43120, Note_on_c, 1, 78, 127
2, 43120, Note_on_c, 1, 83, 127
2, 43120, Note_on_c, 1, 87, 127
2, 43120, Note_on_c, 1, 90, 127
2, 43120, Note_off_c, 1, 92, 0
2, 43160, Note_off_c, 1, 63, 0
2, 43160, Note_off_c, 1, 66, 0
2, 43160, Note_on_c, 1, 70, 127
2, 43160, Note_off_c, 1, 73, 0
2, 43160, Note_off_c, 1, 83, 0
2, 43160, Note_on_c, 1, 84, 127
2, 43160, Note_off_c, 1, 87, 0
2, 43200, Note_on_c, 1, 63, 127
2, 43200, Note_on_c, 1, 66, 127
2, 43200, Note_off_c, 1, 70, 0
2, 43200, Note_on_c, 1, 73, 127
2, 43200, Note_on_c, 1, 83, 127
2, 43200, Note_off_c, 1, 84, 0
2, 43200, Note_on_c, 1, 87, 127
2, 43440, Note_off_c, 1, 63, 0
2, 43440, Note_off_c, 1, 66, 0
2, 43440, Note_off_c, 1, 73, 0
2, 43480, Note_on_c, 1, 45, 127
2, 43480, Note_off_c, 1, 78, 0
2, 43480, Note_on_c, 1, 79, 127
2, 43480, Note_off_c, 1, 83, 0
2, 43480, Note_off_c, 1, 87, 0
2, 43480, Note_on_c, 1, 88, 127
2, 43480, Note_off_c, 1, 90, 0
2, 43480, Note_on_c, 1, 91, 127
2, 43800, Note_off_c, 1, 45, 0
2, 43800, Note_off_c, 1, 79, 0
2, 43800, Note_off_c, 1, 88, 0
2, 43800, Note_off_c, 1, 91, 0
2, 43840, Note_on_c, 1, 57, 127
2, 43840, Note_on_c, 1, 64, 127
2, 43840, Note_on_c, 1, 67, 127
2, 43840, Note_on_c, 1, 69, 127
2, 43840, Note_on_c, 1, 73, 127
2, 43840, Note_on_c, 1, 85, 127
2, 44200, Note_off_c, 1, 57, 0
2, 44200, Note_off_c, 1, 64, 0
2, 44200, Note_off_c, 1, 67, 0
2, 44200, Note_off_c, 1, 69, 0
2, 44200, Note_off_c, 1, 73, 0
2, 44200, Note_off_c, 1, 85, 0
2, 44240, Note_on_c, 1, 57, 127
2, 44240, Note_on_c, 1, 64, 127
2, 44240, Note_on_c, 1, 68, 127
2, 44240, Note_on_c, 1, 71, 127
2, 44600, Note_off_c, 1, 57, 0
2, 44640, Note_on_c, 1, 58, 127
2, 44640, Note_on_c, 1, 63, 127
2, 44640, Note_off_c, 1, 64, 0
2, 44640, Note_off_c, 1, 68, 0
2, 44640, Note_off_c, 1, 71, 0
2, 44640, Note_on_c, 1, 73, 127
2, 44640, Note_on_c, 1, 91, 127
2, 44680, Note_on_c, 1, 41, 127
2, 44680, Note_off_c, 1, 58, 0
2, 44680, Note_off_c, 1, 63, 0
2, 44680, Note_off_c, 1, 73, 0
2, 44680, Note_on_c, 1, 74, 127
2, 44680, Note_on_c, 1, 77, 127
2, 44680, Note_on_c, 1, 82, 127
2, 44680, Note_on_c, 1, 86, 127
2, 44680, Note_off_c, 1, 91, 0
2, 45000, Note_off_c, 1, 41, 0
2, 45040, Note_off_c, 1, 74, 0
2, 45040, Note_off_c, 1, 77, 0
2, 45040, Note_off_c, 1, 82, 0
2, 45040, Note_off_c, 1, 86, 0
2, 45080, Note_on_c, 1, 41, 127
2, 45080, Note_on_c, 1, 74, 127
2, 45080, Note_on_c, 1, 77, 127
2, 45080, Note_on_c, 1, 82, 127
2, 45080, Note_on_c, 1, 86, 127
2, 45440, Note_off_c, 1, 41, 0
2, 45480, Note_on_c, 1, 53, 127
2, 45800, Note_off_c, 1, 53, 0
2, 45840, Note_off_c, 1, 74, 0
2, 45840, Note_off_c, 1, 77, 0
2, 45840, Note_off_c, 1, 82, 0
2, 45840, Note_off_c, 1, 86, 0
2, 45880, Note_on_c, 1, 45, 127
2, 45880, Note_on_c, 1, 79, 127
2, 45880, Note_on_c, 1, 82, 127
2, 46240, Note_off_c, 1, 45, 0
2, 46680, Note_on_c, 1, 62, 127
2, 46680, Note_off_c, 1, 79, 0
2, 46680, Note_on_c, 1, 81, 127
2, 46680, Note_off_c, 1, 82, 0
2, 46680, Note_on_c, 1, 84, 127
2, 47040, Note_off_c, 1, 62, 0
2, 47040, Note_off_c, 1, 81, 0
2, 47040, Note_off_c, 1, 84, 0
2, 47080, Note_on_c, 1, 79, 127
2, 47080, Note_on_c, 1, 82, 127
2, 47120, Note_on_c, 1, 64, 127
2, 47120, Note_on_c, 1, 67, 127
2, 47120, Note_off_c, 1, 79, 0
2, 47120, Note_off_c, 1, 82, 0
2, 47120, Note_on_c, 1, 88, 127
2, 47120, Note_on_c, 1, 91, 127
2, 47160, Note_off_c, 1, 67, 0
2, 47440, Note_off_c, 1, 64, 0
2, 47480, Note_on_c, 1, 67, 127
2, 47840, Note_off_c, 1, 67, 0
2, 47840, Note_off_c, 1, 88, 0
2, 47840, Note_off_c, 1, 91, 0
2, 47880, Note_on_c, 1, 72, 127
2, 47880, Note_on_c, 1, 75, 127
2, 47880, Note_on_c, 1, 81, 127
2, 47880, Note_on_c, 1, 87, 127
2, 47880, Note_on_c, 1, 89, 127
2, 48240, Note_off_c, 1, 72, 0
2, 48240, Note_off_c, 1, 75, 0
2, 48240, Note_off_c, 1, 81, 0
2, 48240, Note_off_c, 1, 87, 0
2, 48240, Note_off_c, 1, 89, 0
2, 48280, Note_on_c, 1, 39, 127
2, 48280, Note_on_c, 1, 51, 127
2, 48280, Note_on_c, 1, 65, 127
2, 48280, Note_on_c, 1, 77, 127
2, 48280, Note_on_c, 1, 89, 127
2, 48640, Note_off_c, 1, 39, 0
2, 48640, Note_off_c, 1, 51, 0
2, 48640, Note_off_c, 1, 65, 0
2, 48640, Note_off_c, 1, 77, 0
2, 48640, Note_off_c, 1, 89, 0
2, 48680, Note_on_c, 1, 39, 127
2, 48680, Note_on_c, 1, 51, 127
2, 48680, Note_on_c, 1, 65, 127
2, 48680, Note_on_c, 1, 77, 127
2, 48680, Note_on_c, 1, 89, 127
2, 49040, Note_off_c, 1, 39, 0
2, 49040, Note_off_c, 1, 51, 0
2, 49040, Note_off_c, 1, 65, 0
2, 49040, Note_off_c, 1, 77, 0
2, 49040, Note_off_c, 1, 89, 0
2, 49120, Note_on_c, 1, 39, 127
2, 49120, Note_on_c, 1, 51, 127
2, 49120, Note_on_c, 1, 65, 127
2, 49120, Note_on_c, 1, 77, 127
2, 49120, Note_on_c, 1, 89, 127
2, 49480, Note_off_c, 1, 39, 0
2, 49480, Note_off_c, 1, 51, 0
2, 49480, Note_off_c, 1, 65, 0
2, 49480, Note_off_c, 1, 77, 0
2, 49480, Note_off_c, 1, 89, 0
2, 49520, Note_on_c, 1, 39, 127
2, 49520, Note_on_c, 1, 51, 127
2, 49520, Note_on_c, 1, 65, 127
2, 49520, Note_on_c, 1, 77, 127
2, 49520, Note_on_c, 1, 89, 127
2, 49880, Note_off_c, 1, 39, 0
2, 49880, Note_off_c, 1, 51, 0
2, 49880, Note_off_c, 1, 65, 0
2, 49880, Note_off_c, 1, 77, 0
2, 49880, Note_off_c, 1, 89, 0
2, 49920, Note_on_c, 1, 39, 127
2, 49920, Note_on_c, 1, 51, 127
2, 49920, Note_on_c, 1, 65, 127
2, 49920, Note_on_c, 1, 77, 127
2, 49920, Note_on_c, 1, 89, 127
2, 50280, Note_off_c, 1, 39, 0
2, 50280, Note_off_c, 1, 51, 0
2, 50280, Note_off_c, 1, 65, 0
2, 50280, Note_off_c, 1, 77, 0
2, 50280, Note_off_c, 1, 89, 0
2, 50320, Note_on_c, 1, 60, 127
2, 50320, Note_on_c, 1, 63, 127
2, 50320, Note_on_c, 1, 79, 127
2, 50320, Note_on_c, 1, 84, 127
2, 50320, Note_on_c, 1, 87, 127
2, 50640, Note_off_c, 1, 60, 0
2, 50640, Note_off_c, 1, 63, 0
2, 50680, Note_off_c, 1, 79, 0
2, 50680, Note_off_c, 1, 84, 0
2, 50680, Note_off_c, 1, 87, 0
2, 50720, Note_on_c, 1, 60, 127
2, 50720, Note_on_c, 1, 63, 127
2, 50720, Note_on_c, 1, 79, 127
2, 50720, Note_on_c, 1, 84, 127
2, 50720, Note_on_c, 1, 87, 127
2, 51080, Note_off_c, 1, 60, 0
2, 51080, Note_off_c, 1, 63, 0
2, 51080, Note_off_c, 1, 79, 0
2, 51080, Note_off_c, 1, 84, 0
2, 51080, Note_off_c, 1, 87, 0
2, 51160, Note_on_c, 1, 55, 127
2, 51160, Note_on_c, 1, 79, 127
2, 51160, Note_on_c, 1, 81, 127
2, 51200, Note_off_c, 1, 81, 0
2, 51520, Note_off_c, 1, 55, 0
2, 51560, Note_on_c, 1, 60, 127
2, 51560, Note_on_c, 1, 63, 127
2, 51560, Note_on_c, 1, 84, 127
2, 51560, Note_on_c, 1, 87, 127
2, 51920, Note_off_c, 1, 60, 0
2, 51920, Note_on_c, 1, 62, 127
2, 51920, Note_off_c, 1, 63, 0
2, 51920, Note_off_c, 1, 79, 0
2, 51960, Note_on_c, 1, 58, 127
2, 51960, Note_on_c, 1, 79, 127
2, 51960, Note_on_c, 1, 82, 127
2, 51960, Note_off_c, 1, 84, 0
2, 51960, Note_on_c, 1, 86, 127
2, 51960, Note_off_c, 1, 87, 0
2, 52120, Note_on_c, 1, 55, 127
2, 52120, Note_off_c, 1, 58, 0
2, 52120, Note_off_c, 1, 62, 0
2, 52320, Note_off_c, 1, 55, 0
2, 52320, Note_off_c, 1, 79, 0
2, 52320, Note_off_c, 1, 82, 0
2, 52320, Note_off_c, 1, 86, 0
2, 52360, Note_on_c, 1, 55, 127
2, 52360, Note_on_c, 1, 79, 127
2, 52360, Note_on_c, 1, 82, 127
2, 52360, Note_on_c, 1, 86, 127
2, 52720, Note_off_c, 1, 79, 0
2, 52720, Note_off_c, 1, 82, 0
2, 52720, Note_off_c, 1, 86, 0
2, 52760, Note_on_c, 1, 79, 127
2, 52760, Note_on_c, 1, 82, 127
2, 52760, Note_on_c, 1, 86, 127
2, 53120, Note_off_c, 1, 55, 0
2, 53120, Note_off_c, 1, 82, 0
2, 53120, Note_off_c, 1, 86, 0
2, 53160, Note_on_c, 1, 59, 127
2, 53160, Note_on_c, 1, 63, 127
2, 53160, Note_on_c, 1, 69, 127
2, 53160, Note_on_c, 1, 71, 127
2, 53280, Note_off_c, 1, 59, 0
2, 53280, Note_off_c, 1, 63, 0
2, 53280, Note_off_c, 1, 69, 0
2, 53280, Note_off_c, 1, 71, 0
2, 53280, Note_off_c, 1, 79, 0
2, 53320, Note_on_c, 1, 59, 127
2, 53320, Note_on_c, 1, 63, 127
2, 53320, Note_on_c, 1, 69, 127
2, 53320, Note_on_c, 1, 71, 127
2, 53320, Note_on_c, 1, 79, 127
2, 53360, Note_off_c, 1, 59, 0
2, 53360, Note_off_c, 1, 63, 0
2, 53360, Note_off_c, 1, 69, 0
2, 53360, Note_off_c, 1, 71, 0
2, 53360, Note_on_c, 1, 74, 127
2, 53400, Note_on_c, 1, 59, 127
2, 53400, Note_on_c, 1, 63, 127
2, 53400, Note_on_c, 1, 69, 127
2, 53400, Note_on_c, 1, 71, 127
2, 53400, Note_off_c, 1, 74, 0
2, 53560, Note_off_c, 1, 59, 0
2, 53560, Note_off_c, 1, 63, 0
2, 53560, Note_off_c, 1, 69, 0
2, 53560, Note_off_c, 1, 71, 0
2, 53600, Note_on_c, 1, 58, 127
2, 53600, Note_on_c, 1, 67, 127
2, 53600, Note_on_c, 1, 70, 127
2, 53600, Note_on_c, 1, 74, 127
2, 53760, Note_off_c, 1, 67, 0
2, 53760, Note_off_c, 1, 70, 0
2, 53760, Note_off_c, 1, 74, 0
2, 53800, Note_on_c, 1, 55, 127
2, 53800, Note_off_c, 1, 58, 0
2, 53800, Note_on_c, 1, 60, 127
2, 53800, Note_on_c, 1, 86, 127
2, 53800, Note_on_c, 1, 91, 127
2, 53960, Note_off_c, 1, 55, 0
2, 53960, Note_off_c, 1, 60, 0
2, 53960, Note_off_c, 1, 79, 0
2, 53960, Note_off_c, 1, 86, 0
2, 53960, Note_off_c, 1, 91, 0
2, 54000, Note_on_c, 1, 55, 127
2, 54000, Note_on_c, 1, 59, 127
2, 54000, Note_on_c, 1, 86, 127
2, 54000, Note_on_c, 1, 98, 127
2, 54160, Note_off_c, 1, 55, 0
2, 54160, Note_off_c, 1, 59, 0
2, 54200, Note_on_c, 1, 62, 127
2, 54360, Note_off_c, 1, 62, 0
2, 54360, Note_off_c, 1, 86, 0
2, 54360, Note_off_c, 1, 98, 0
2, 54400, Note_on_c, 1, 52, 127
2, 54400, Note_on_c, 1, 86, 127
2, 54400, Note_on_c, 1, 98, 127
2, 54560, Note_off_c, 1, 52, 0
2, 54600, Note_on_c, 1, 62, 127
2, 54760, Note_off_c, 1, 62, 0
2, 54760, Note_off_c, 1, 86, 0
2, 54760, Note_off_c, 1, 98, 0
2, 54800, Note_on_c, 1, 59, 127
2, 54800, Note_on_c, 1, 86, 127
2, 54800, Note_on_c, 1, 98, 127
2, 54960, Note_off_c, 1, 59, 0
2, 55000, Note_on_c, 1, 62, 127
2, 55000, Note_off_c, 1, 86, 0
2, 55000, Note_off_c, 1, 98, 0
2, 55000, Note_on_c, 1, 100, 127
2, 55160, Note_off_c, 1, 62, 0
2, 55160, Note_off_c, 1, 100, 0
2, 55200, Note_on_c, 1, 67, 127
2, 55200, Note_on_c, 1, 83, 127
2, 55200, Note_on_c, 1, 95, 127
2, 55360, Note_off_c, 1, 67, 0
2, 55400, Note_on_c, 1, 62, 127
2, 55560, Note_off_c, 1, 62, 0
2, 55560, Note_off_c, 1, 83, 0
2, 55560, Note_off_c, 1, 95, 0
2, 55640, Note_on_c, 1, 60, 127
2, 55640, Note_on_c, 1, 88, 127
2, 55640, Note_on_c, 1, 91, 127
2, 55800, Note_off_c, 1, 60, 0
2, 55800, Note_off_c, 1, 88, 0
2, 55800, Note_off_c, 1, 91, 0
2, 55840, Note_on_c, 1, 62, 127
2, 56000, Note_off_c, 1, 62, 0
2, 56040, Note_on_c, 1, 58, 127
2, 56200, Note_off_c, 1, 58, 0
2, 56240, Note_on_c, 1, 57, 127
2, 56400, Note_off_c, 1, 57, 0
2, 56440, Note_on_c, 1, 52, 127
2, 56440, Note_on_c, 1, 83, 127
2, 56440, Note_on_c, 1, 95, 127
2, 56600, Note_off_c, 1, 52, 0
2, 56600, Note_off_c, 1, 83, 0
2, 56600, Note_off_c, 1, 95, 0
2, 56640, Note_on_c, 1, 62, 127
2, 56800, Note_off_c, 1, 62, 0
2, 56840, Note_on_c, 1, 53, 127
2, 56840, Note_on_c, 1, 57, 127
2, 56840, Note_on_c, 1, 84, 127
2, 57000, Note_off_c, 1, 53, 0
2, 57000, Note_off_c, 1, 57, 0
2, 57000, Note_off_c, 1, 84, 0
2, 57040, Note_on_c, 1, 58, 127
2, 57200, Note_off_c, 1, 58, 0
2, 57240, Note_on_c, 1, 60, 127
2, 57240, Note_on_c, 1, 76, 127
2, 57240, Note_on_c, 1, 88, 127
2, 57400, Note_off_c, 1, 60, 0
2, 57400, Note_off_c, 1, 76, 0
2, 57400, Note_off_c, 1, 88, 0
2, 57440, Note_on_c, 1, 62, 127
2, 57600, Note_off_c, 1, 62, 0
2, 57640, Note_on_c, 1, 60, 127
2, 57640, Note_on_c, 1, 76, 127
2, 57640, Note_on_c, 1, 88, 127
2, 57800, Note_off_c, 1, 60, 0
2, 57800, Note_off_c, 1, 76, 0
2, 57800, Note_off_c, 1, 88, 0
2, 57840, Note_on_c, 1, 64, 127
2, 57840, Note_on_c, 1, 74, 127
2, 57840, Note_on_c, 1, 86, 127
2, 58000, Note_off_c, 1, 64, 0
2, 58000, Note_off_c, 1, 74, 0
2, 58000, Note_off_c, 1, 86, 0
2, 58080, Note_on_c, 1, 62, 127
2, 58080, Note_on_c, 1, 76, 127
2, 58080, Note_on_c, 1, 88, 127
2, 58160, Note_off_c, 1, 62, 0
2, 58160, Note_on_c, 1, 64, 127
2, 58200, Note_on_c, 1, 62, 127
2, 58200, Note_off_c, 1, 64, 0
2, 58240, Note_off_c, 1, 62, 0
2, 58240, Note_off_c, 1, 76, 0
2, 58240, Note_off_c, 1, 88, 0
2, 58280, Note_on_c, 1, 57, 127
2, 58440, Note_off_c, 1, 57, 0
2, 58480, Note_on_c, 1, 45, 127
2, 58480, Note_on_c, 1, 79, 127
2, 58480, Note_on_c, 1, 91, 127
2, 58640, Note_off_c, 1, 45, 0
2, 58680, Note_on_c, 1, 64, 127
2, 58840, Note_off_c, 1, 64, 0
2, 58840, Note_off_c, 1, 79, 0
2, 58840, Note_off_c, 1, 91, 0
2, 58880, Note_on_c, 1, 62, 127
2, 58880, Note_on_c, 1, 78, 127
2, 58880, Note_on_c, 1, 90, 127
2, 59040, Note_off_c, 1, 62, 0
2, 59040, Note_off_c, 1, 78, 0
2, 59040, Note_off_c, 1, 90, 0
2, 59080, Note_on_c, 1, 62, 127
2, 59240, Note_off_c, 1, 62, 0
2, 59280, Note_on_c, 1, 55, 127
2, 59280, Note_on_c, 1, 73, 127
2, 59280, Note_on_c, 1, 85, 127
2, 59440, Note_off_c, 1, 55, 0
2, 59440, Note_off_c, 1, 73, 0
2, 59440, Note_off_c, 1, 85, 0
2, 59480, Note_on_c, 1, 62, 127
2, 59640, Note_off_c, 1, 62, 0
2, 59680, Note_on_c, 1, 54, 127
2, 59680, Note_on_c, 1, 75, 127
2, 59680, Note_on_c, 1, 87, 127
2, 59840, Note_off_c, 1, 54, 0
2, 59840, Note_off_c, 1, 75, 0
2, 59840, Note_off_c, 1, 87, 0
2, 59880, Note_on_c, 1, 58, 127
2, 60040, Note_off_c, 1, 58, 0
2, 60120, Note_on_c, 1, 53, 127
2, 60120, Note_on_c, 1, 74, 127
2, 60120, Note_on_c, 1, 86, 127
2, 60280, Note_off_c, 1, 53, 0
2, 60280, Note_off_c, 1, 74, 0
2, 60280, Note_off_c, 1, 86, 0
2, 60320, Note_on_c, 1, 60, 127
2, 60480, Note_off_c, 1, 60, 0
2, 60520, Note_on_c, 1, 58, 127
2, 60520, Note_on_c, 1, 74, 127
2, 60520, Note_on_c, 1, 86, 127
2, 60680, Note_off_c, 1, 58, 0
2, 60680, Note_off_c, 1, 74, 0
2, 60680, Note_off_c, 1, 86, 0
2, 60720, Note_on_c, 1, 57, 127
2, 60880, Note_off_c, 1, 57, 0
2, 60920, Note_on_c, 1, 57, 127
2, 60920, Note_on_c, 1, 74, 127
2, 60920, Note_on_c, 1, 86, 127
2, 61080, Note_off_c, 1, 57, 0
2, 61080, Note_off_c, 1, 74, 0
2, 61080, Note_off_c, 1, 86, 0
2, 61120, Note_on_c, 1, 55, 127
2, 61280, Note_off_c, 1, 55, 0
2, 61320, Note_on_c, 1, 54, 127
2, 61320, Note_on_c, 1, 73, 127
2, 61320, Note_on_c, 1, 85, 127
2, 61480, Note_off_c, 1, 54, 0
2, 61480, Note_off_c, 1, 73, 0
2, 61480, Note_off_c, 1, 85, 0
2, 61520, Note_on_c, 1, 55, 127
2, 61680, Note_off_c, 1, 55, 0
2, 61720, Note_on_c, 1, 71, 127
2, 61720, Note_on_c, 1, 74, 127
2, 61720, Note_on_c, 1, 86, 127
2, 61880, Note_off_c, 1, 71, 0
2, 61880, Note_off_c, 1, 74, 0
2, 61880, Note_off_c, 1, 86, 0
2, 61920, Note_on_c, 1, 54, 127
2, 61920, Note_on_c, 1, 72, 127
2, 61920, Note_on_c, 1, 84, 127
2, 62080, Note_off_c, 1, 54, 0
2, 62080, Note_off_c, 1, 72, 0
2, 62080, Note_off_c, 1, 84, 0
2, 62160, Note_on_c, 1, 60, 127
2, 62320, Note_off_c, 1, 60, 0
2, 62360, Note_on_c, 1, 69, 127
2, 62360, Note_on_c, 1, 81, 127
2, 62520, Note_off_c, 1, 69, 0
2, 62520, Note_off_c, 1, 81, 0
2, 62560, Note_on_c, 1, 48, 127
2, 62720, Note_off_c, 1, 48, 0
2, 62760, Note_on_c, 1, 62, 127
2, 62920, Note_off_c, 1, 62, 0
2, 62960, Note_on_c, 1, 39, 127
2, 62960, Note_on_c, 1, 51, 127
2, 62960, Note_on_c, 1, 58, 127
2, 63120, Note_off_c, 1, 39, 0
2, 63120, Note_off_c, 1, 51, 0
2, 63120, Note_off_c, 1, 58, 0
2, 63160, Note_on_c, 1, 62, 127
2, 63320, Note_off_c, 1, 62, 0
2, 63360, Note_on_c, 1, 64, 127
2, 63360, Note_on_c, 1, 83, 127
2, 63360, Note_on_c, 1, 95, 127
2, 63520, Note_off_c, 1, 64, 0
2, 63520, Note_off_c, 1, 83, 0
2, 63520, Note_off_c, 1, 95, 0
2, 63560, Note_on_c, 1, 62, 127
2, 63720, Note_off_c, 1, 62, 0
2, 63760, Note_on_c, 1, 60, 127
2, 63760, Note_on_c, 1, 76, 127
2, 63760, Note_on_c, 1, 88, 127
2, 63920, Note_off_c, 1, 60, 0
2, 63920, Note_off_c, 1, 76, 0
2, 63920, Note_off_c, 1, 88, 0
2, 63960, Note_on_c, 1, 67, 127
2, 64120, Note_off_c, 1, 67, 0
2, 64160, Note_on_c, 1, 62, 127
2, 64160, Note_on_c, 1, 78, 127
2, 64160, Note_on_c, 1, 90, 127
2, 64280, Note_off_c, 1, 62, 0
2, 64280, Note_off_c, 1, 78, 0
2, 64280, Note_off_c, 1, 90, 0
2, 64320, Note_on_c, 1, 62, 127
2, 64320, Note_on_c, 1, 78, 127
2, 64320, Note_on_c, 1, 90, 127
2, 64360, Note_off_c, 1, 62, 0
2, 64360, Note_off_c, 1, 78, 0
2, 64360, Note_off_c, 1, 90, 0
2, 64400, Note_on_c, 1, 67, 127
2, 64560, Note_off_c, 1, 67, 0
2, 64600, Note_on_c, 1, 57, 127
2, 64600, Note_on_c, 1, 76, 127
2, 64600, Note_on_c, 1, 88, 127
2, 64760, Note_off_c, 1, 57, 0
2, 64760, Note_off_c, 1, 76, 0
2, 64760, Note_off_c, 1, 88, 0
2, 64800, Note_on_c, 1, 62, 127
2, 64960, Note_off_c, 1, 62, 0
2, 65000, Note_on_c, 1, 60, 127
2, 65000, Note_on_c, 1, 76, 127
2, 65000, Note_on_c, 1, 88, 127
2, 65160, Note_off_c, 1, 60, 0
2, 65160, Note_off_c, 1, 76, 0
2, 65160, Note_off_c, 1, 88, 0
2, 65200, Note_on_c, 1, 67, 127
2, 65360, Note_off_c, 1, 67, 0
2, 65400, Note_on_c, 1, 64, 127
2, 65400, Note_on_c, 1, 74, 127
2, 65400, Note_on_c, 1, 86, 127
2, 65560, Note_off_c, 1, 64, 0
2, 65560, Note_off_c, 1, 74, 0
2, 65560, Note_off_c, 1, 86, 0
2, 65600, Note_on_c, 1, 67, 127
2, 65760, Note_off_c, 1, 67, 0
2, 65800, Note_on_c, 1, 62, 127
2, 65800, Note_on_c, 1, 71, 127
2, 65800, Note_on_c, 1, 74, 127
2, 65960, Note_off_c, 1, 62, 0
2, 65960, Note_off_c, 1, 71, 0
2, 65960, Note_off_c, 1, 74, 0
2, 66000, Note_on_c, 1, 67, 127
2, 66160, Note_off_c, 1, 67, 0
2, 66200, Note_on_c, 1, 62, 127
2, 66200, Note_on_c, 1, 77, 127
2, 66200, Note_on_c, 1, 89, 127
2, 66360, Note_off_c, 1, 62, 0
2, 66400, Note_on_c, 1, 65, 127
2, 66560, Note_off_c, 1, 65, 0
2, 66560, Note_off_c, 1, 77, 0
2, 66560, Note_off_c, 1, 89, 0
2, 66640, Note_on_c, 1, 60, 127
2, 66640, Note_on_c, 1, 76, 127
2, 66640, Note_on_c, 1, 88, 127
2, 66800, Note_off_c, 1, 60, 0
2, 66800, Note_off_c, 1, 76, 0
2, 66800, Note_off_c, 1, 88, 0
2, 66840, Note_on_c, 1, 62, 127
2, 67000, Note_off_c, 1, 62, 0
2, 67040, Note_on_c, 1, 60, 127
2, 67040, Note_on_c, 1, 76, 127
2, 67040, Note_on_c, 1, 88, 127
2, 67200, Note_on_c, 1, 52, 127
2, 67200, Note_off_c, 1, 60, 0
2, 67200, Note_off_c, 1, 76, 0
2, 67200, Note_off_c, 1, 88, 0
2, 67240, Note_on_c, 1, 50, 127
2, 67240, Note_off_c, 1, 52, 0
2, 67240, Note_on_c, 1, 59, 127
2, 67240, Note_on_c, 1, 67, 127
2, 67400, Note_off_c, 1, 50, 0
2, 67400, Note_off_c, 1, 59, 0
2, 67400, Note_off_c, 1, 67, 0
2, 67440, Note_on_c, 1, 62, 127
2, 67440, Note_on_c, 1, 65, 127
2, 67440, Note_on_c, 1, 77, 127
2, 67600, Note_off_c, 1, 62, 0
2, 67600, Note_off_c, 1, 65, 0
2, 67600, Note_off_c, 1, 77, 0
2, 67640, Note_on_c, 1, 69, 127
2, 67800, Note_off_c, 1, 69, 0
2, 67840, Note_on_c, 1, 67, 127
2, 67840, Note_on_c, 1, 76, 127
2, 67840, Note_on_c, 1, 88, 127
2, 68000, Note_off_c, 1, 67, 0
2, 68000, Note_off_c, 1, 76, 0
2, 68000, Note_off_c, 1, 88, 0
2, 68040, Note_on_c, 1, 67, 127
2, 68200, Note_off_c, 1, 67, 0
2, 68240, Note_on_c, 1, 69, 127
2, 68240, Note_on_c, 1, 72, 127
2, 68240, Note_on_c, 1, 84, 127
2, 68400, Note_off_c, 1, 69, 0
2, 68400, Note_off_c, 1, 72, 0
2, 68400, Note_off_c, 1, 84, 0
2, 68440, Note_on_c, 1, 67, 127
2, 68600, Note_off_c, 1, 67, 0
2, 68680, Note_on_c, 1, 67, 127
2, 68680, Note_on_c, 1, 73, 127
2, 68680, Note_on_c, 1, 85, 127
2, 68840, Note_off_c, 1, 67, 0
2, 68840, Note_off_c, 1, 73, 0
2, 68840, Note_off_c, 1, 85, 0
2, 68880, Note_on_c, 1, 67, 127
2, 69040, Note_off_c, 1, 67, 0
2, 69080, Note_on_c, 1, 64, 127
2, 69080, Note_on_c, 1, 79, 127
2, 69080, Note_on_c, 1, 91, 127
2, 69240, Note_off_c, 1, 64, 0
2, 69240, Note_off_c, 1, 79, 0
2, 69240, Note_off_c, 1, 91, 0
2, 69280, Note_on_c, 1, 64, 127
2, 69440, Note_off_c, 1, 64, 0
2, 69480, Note_on_c, 1, 60, 127
2, 69480, Note_on_c, 1, 76, 127
2, 69480, Note_on_c, 1, 88, 127
2, 69640, Note_off_c, 1, 60, 0
2, 69640, Note_off_c, 1, 76, 0
2, 69640, Note_off_c, 1, 88, 0
2, 69680, Note_on_c, 1, 62, 127
2, 69840, Note_off_c, 1, 62, 0
2, 69880, Note_on_c, 1, 61, 127
2, 69880, Note_on_c, 1, 76, 127
2, 69880, Note_on_c, 1, 88, 127
2, 70040, Note_off_c, 1, 61, 0
2, 70040, Note_off_c, 1, 76, 0
2, 70040, Note_off_c, 1, 88, 0
2, 70080, Note_on_c, 1, 59, 127
2, 70240, Note_off_c, 1, 59, 0
2, 70280, Note_on_c, 1, 69, 127
2, 70280, Note_on_c, 1, 76, 127
2, 70280, Note_on_c, 1, 88, 127
2, 70440, Note_off_c, 1, 69, 0
2, 70440, Note_off_c, 1, 76, 0
2, 70440, Note_off_c, 1, 88, 0
2, 70480, Note_on_c, 1, 62, 127
2, 70640, Note_off_c, 1, 62, 0
2, 70680, Note_on_c, 1, 67, 127
2, 70680, Note_on_c, 1, 76, 127
2, 70680, Note_on_c, 1, 88, 127
2, 70760, Note_off_c, 1, 67, 0
2, 70760, Note_off_c, 1, 76, 0
2, 70760, Note_off_c, 1, 88, 0
2, 70800, Note_on_c, 1, 67, 127
2, 70800, Note_on_c, 1, 76, 127
2, 70800, Note_on_c, 1, 88, 127
2, 70880, Note_off_c, 1, 67, 0
2, 70880, Note_off_c, 1, 76, 0
2, 70880, Note_off_c, 1, 88, 0
2, 70920, Note_on_c, 1, 62, 127
2, 71080, Note_off_c, 1, 62, 0
2, 71120, Note_on_c, 1, 72, 127
2, 71120, Note_on_c, 1, 76, 127
2, 71120, Note_on_c, 1, 88, 127
2, 71280, Note_off_c, 1, 72, 0
2, 71280, Note_off_c, 1, 76, 0
2, 71280, Note_off_c, 1, 88, 0
2, 71320, Note_on_c, 1, 64, 127
2, 71480, Note_off_c, 1, 64, 0
2, 71520, Note_on_c, 1, 67, 127
2, 71520, Note_on_c, 1, 76, 127
2, 71520, Note_on_c, 1, 88, 127
2, 71680, Note_off_c, 1, 67, 0
2, 71680, Note_off_c, 1, 76, 0
2, 71680, Note_off_c, 1, 88, 0
2, 71720, Note_on_c, 1, 62, 127
2, 71880, Note_off_c, 1, 62, 0
2, 71920, Note_on_c, 1, 65, 127
2, 71920, Note_on_c, 1, 74, 127
2, 71920, Note_on_c, 1, 86, 127
2, 72080, Note_off_c, 1, 65, 0
2, 72080, Note_off_c, 1, 74, 0
2, 72080, Note_off_c, 1, 86, 0
2, 72120, Note_on_c, 1, 71, 127
2, 72280, Note_off_c, 1, 71, 0
2, 72320, Note_on_c, 1, 65, 127
2, 72320, Note_on_c, 1, 71, 127
2, 72320, Note_on_c, 1, 83, 127
2, 72480, Note_off_c, 1, 65, 0
2, 72480, Note_off_c, 1, 71, 0
2, 72480, Note_off_c, 1, 83, 0
2, 72520, Note_on_c, 1, 67, 127
2, 72680, Note_off_c, 1, 67, 0
2, 72720, Note_on_c, 1, 69, 127
2, 72720, Note_on_c, 1, 81, 127
2, 72880, Note_off_c, 1, 69, 0
2, 72880, Note_off_c, 1, 81, 0
2, 72960, Note_on_c, 1, 67, 127
2, 72960, Note_on_c, 1, 79, 127
2, 73120, Note_off_c, 1, 67, 0
2, 73120, Note_off_c, 1, 79, 0
2, 73160, Note_on_c, 1, 67, 127
2, 73160, Note_on_c, 1, 79, 127
2, 73320, Note_off_c, 1, 67, 0
2, 73320, Note_off_c, 1, 79, 0
2, 73360, Note_on_c, 1, 72, 127
2, 73360, Note_on_c, 1, 84, 127
2, 73520, Note_off_c, 1, 72, 0
2, 73520, Note_off_c, 1, 84, 0
2, 73560, Note_on_c, 1, 67, 127
2, 73560, Note_on_c, 1, 79, 127
2, 73720, Note_off_c, 1, 67, 0
2, 73720, Note_off_c, 1, 79, 0
2, 73760, Note_on_c, 1, 62, 127
2, 73760, Note_on_c, 1, 78, 127
2, 73920, Note_off_c, 1, 62, 0
2, 73920, Note_off_c, 1, 78, 0
2, 73960, Note_on_c, 1, 67, 127
2, 73960, Note_on_c, 1, 79, 127
2, 74120, Note_off_c, 1, 67, 0
2, 74120, Note_off_c, 1, 79, 0
2, 74160, Note_on_c, 1, 77, 127
2, 74320, Note_off_c, 1, 77, 0
2, 74360, Note_on_c, 1, 60, 127
2, 74360, Note_on_c, 1, 76, 127
2, 74520, Note_off_c, 1, 60, 0
2, 74520, Note_off_c, 1, 76, 0
2, 74560, Note_on_c, 1, 60, 127
2, 74560, Note_on_c, 1, 77, 127
2, 74720, Note_on_c, 1, 55, 127
2, 74720, Note_on_c, 1, 58, 127
2, 74720, Note_off_c, 1, 60, 0
2, 74720, Note_on_c, 1, 62, 127
2, 74720, Note_on_c, 1, 67, 127
2, 74720, Note_on_c, 1, 70, 127
2, 74720, Note_off_c, 1, 77, 0
2, 74760, Note_off_c, 1, 55, 0
2, 74760, Note_off_c, 1, 58, 0
2, 74760, Note_off_c, 1, 67, 0
2, 74760, Note_on_c, 1, 69, 127
2, 74760, Note_off_c, 1, 70, 0
2, 74760, Note_on_c, 1, 72, 127
2, 74760, Note_on_c, 1, 83, 127
2, 74920, Note_off_c, 1, 62, 0
2, 74920, Note_off_c, 1, 69, 0
2, 74920, Note_off_c, 1, 72, 0
2, 74920, Note_off_c, 1, 83, 0
2, 74960, Note_on_c, 1, 86, 127
2, 75040, Note_off_c, 1, 86, 0
2, 75080, Note_on_c, 1, 86, 127
2, 75160, Note_off_c, 1, 86, 0
2, 75200, Note_on_c, 1, 91, 127
2, 75360, Note_off_c, 1, 91, 0
2, 75400, Note_on_c, 1, 91, 127
2, 75560, Note_off_c, 1, 91, 0
2, 75600, Note_on_c, 1, 64, 127
2, 75600, Note_on_c, 1, 67, 127
2, 75600, Note_on_c, 1, 72, 127
2, 75760, Note_off_c, 1, 64, 0
2, 75760, Note_off_c, 1, 67, 0
2, 75760, Note_off_c, 1, 72, 0
2, 75760, Note_on_c, 1, 84, 127
2, 75960, Note_off_c, 1, 84, 0
2, 76000, Note_on_c, 1, 64, 127
2, 76000, Note_on_c, 1, 67, 127
2, 76000, Note_on_c, 1, 82, 127
2, 76160, Note_off_c, 1, 64, 0
2, 76160, Note_off_c, 1, 67, 0
2, 76160, Note_off_c, 1, 82, 0
2, 76200, Note_on_c, 1, 88, 127
2, 76360, Note_off_c, 1, 88, 0
2, 76400, Note_on_c, 1, 65, 127
2, 76400, Note_on_c, 1, 69, 127
2, 76400, Note_on_c, 1, 81, 127
2, 76560, Note_off_c, 1, 65, 0
2, 76560, Note_off_c, 1, 69, 0
2, 76560, Note_off_c, 1, 81, 0
2, 76600, Note_on_c, 1, 89, 127
2, 76760, Note_off_c, 1, 89, 0
2, 76800, Note_on_c, 1, 69, 127
2, 76800, Note_on_c, 1, 72, 127
2, 76800, Note_on_c, 1, 84, 127
2, 76960, Note_off_c, 1, 69, 0
2, 76960, Note_off_c, 1, 72, 0
2, 76960, Note_off_c, 1, 84, 0
2, 77000, Note_on_c, 1, 86, 127
2, 77160, Note_off_c, 1, 86, 0
2, 77240, Note_on_c, 1, 70, 127
2, 77240, Note_on_c, 1, 86, 127
2, 77400, Note_off_c, 1, 70, 0
2, 77400, Note_off_c, 1, 86, 0
2, 77440, Note_on_c, 1, 86, 127
2, 77600, Note_off_c, 1, 86, 0
2, 77640, Note_on_c, 1, 38, 127
2, 77640, Note_on_c, 1, 50, 127
2, 77640, Note_on_c, 1, 59, 127
2, 77640, Note_on_c, 1, 62, 127
2, 77640, Note_on_c, 1, 67, 127
2, 77640, Note_on_c, 1, 71, 127
2, 77800, Note_off_c, 1, 38, 0
2, 77800, Note_off_c, 1, 50, 0
2, 77800, Note_off_c, 1, 59, 0
2, 77800, Note_off_c, 1, 62, 0
2, 77800, Note_off_c, 1, 67, 0
2, 77800, Note_off_c, 1, 71, 0
2, 77840, Note_on_c, 1, 86, 127
2, 78000, Note_off_c, 1, 86, 0
2, 78040, Note_on_c, 1, 69, 127
2, 78040, Note_on_c, 1, 84, 127
2, 78200, Note_off_c, 1, 69, 0
2, 78200, Note_off_c, 1, 84, 0
2, 78240, Note_on_c, 1, 81, 127
2, 78400, Note_off_c, 1, 81, 0
2, 78440, Note_on_c, 1, 64, 127
2, 78440, Note_on_c, 1, 71, 127
2, 78440, Note_on_c, 1, 83, 127
2, 78440, Note_on_c, 1, 90, 127
2, 78480, Note_on_c, 1, 32, 127
2, 78480, Note_on_c, 1, 44, 127
2, 78480, Note_off_c, 1, 64, 0
2, 78480, Note_off_c, 1, 71, 0
2, 78480, Note_on_c, 1, 78, 127
2, 78480, Note_off_c, 1, 83, 0
2, 78480, Note_on_c, 1, 84, 127
2, 78480, Note_on_c, 1, 87, 127
2, 78520, Note_off_c, 1, 32, 0
2, 78520, Note_off_c, 1, 44, 0
2, 78520, Note_on_c, 1, 59, 127
2, 78520, Note_on_c, 1, 62, 127
2, 78520, Note_on_c, 1, 67, 127
2, 78520, Note_off_c, 1, 78, 0
2, 78520, Note_on_c, 1, 79, 127
2, 78520, Note_off_c, 1, 84, 0
2, 78520, Note_on_c, 1, 86, 127
2, 78520, Note_off_c, 1, 87, 0
2, 78520, Note_on_c, 1, 89, 127
2, 78520, Note_off_c, 1, 90, 0
2, 78520, Note_on_c, 1, 91, 127
2, 78560, Note_on_c, 1, 32, 127
2, 78560, Note_on_c, 1, 44, 127
2, 78560, Note_off_c, 1, 59, 0
2, 78560, Note_off_c, 1, 62, 0
2, 78560, Note_off_c, 1, 67, 0
2, 78560, Note_on_c, 1, 78, 127
2, 78560, Note_off_c, 1, 79, 0
2, 78560, Note_on_c, 1, 84, 127
2, 78560, Note_off_c, 1, 86, 0
2, 78560, Note_on_c, 1, 87, 127
2, 78560, Note_off_c, 1, 89, 0
2, 78560, Note_on_c, 1, 90, 127
2, 78560, Note_off_c, 1, 91, 0
2, 78600, Note_off_c, 1, 32, 0
2, 78600, Note_off_c, 1, 44, 0
2, 78600, Note_off_c, 1, 78, 0
2, 78600, Note_off_c, 1, 84, 0
2, 78600, Note_off_c, 1, 87, 0
2, 78600, Note_off_c, 1, 90, 0
2, 78640, Note_on_c, 1, 93, 127
2, 78800, Note_off_c, 1, 93, 0
2, 78840, Note_on_c, 1, 64, 127
2, 78840, Note_on_c, 1, 96, 127
2, 79000, Note_off_c, 1, 64, 0
2, 79000, Note_off_c, 1, 96, 0
2, 79040, Note_on_c, 1, 67, 127
2, 79040, Note_on_c, 1, 91, 127
2, 79200, Note_off_c, 1, 67, 0
2, 79200, Note_off_c, 1, 91, 0
2, 79240, Note_on_c, 1, 72, 127
2, 79240, Note_on_c, 1, 91, 127
2, 79400, Note_off_c, 1, 72, 0
2, 79400, Note_off_c, 1, 91, 0
2, 79480, Note_on_c, 1, 74, 127
2, 79480, Note_on_c, 1, 86, 127
2, 79640, Note_off_c, 1, 74, 0
2, 79640, Note_off_c, 1, 86, 0
2, 79680, Note_on_c, 1, 76, 127
2, 79680, Note_on_c, 1, 84, 127
2, 79840, Note_off_c, 1, 76, 0
2, 79840, Note_off_c, 1, 84, 0
2, 79880, Note_on_c, 1, 71, 127
2, 79880, Note_on_c, 1, 86, 127
2, 80040, Note_off_c, 1, 71, 0
2, 80040, Note_off_c, 1, 86, 0
2, 80080, Note_on_c, 1, 69, 127
2, 80080, Note_on_c, 1, 84, 127
2, 80240, Note_off_c, 1, 69, 0
2, 80240, Note_off_c, 1, 84, 0
2, 80280, Note_on_c, 1, 74, 127
2, 80280, Note_on_c, 1, 83, 127
2, 80480, Note_off_c, 1, 74, 0
2, 80480, Note_off_c, 1, 83, 0
2, 80520, Note_on_c, 1, 74, 127
2, 80520, Note_on_c, 1, 83, 127
2, 80680, Note_off_c, 1, 74, 0
2, 80680, Note_off_c, 1, 83, 0
2, 80720, Note_on_c, 1, 73, 127
2, 80720, Note_on_c, 1, 81, 127
2, 80880, Note_off_c, 1, 73, 0
2, 80880, Note_off_c, 1, 81, 0
2, 80920, Note_on_c, 1, 71, 127
2, 80920, Note_on_c, 1, 79, 127
2, 81080, Note_off_c, 1, 71, 0
2, 81080, Note_off_c, 1, 79, 0
2, 81120, Note_on_c, 1, 71, 127
2, 81120, Note_on_c, 1, 79, 127
2, 81280, Note_off_c, 1, 71, 0
2, 81280, Note_off_c, 1, 79, 0
2, 81320, Note_on_c, 1, 72, 127
2, 81320, Note_on_c, 1, 79, 127
2, 81480, Note_off_c, 1, 72, 0
2, 81480, Note_off_c, 1, 79, 0
2, 81520, Note_on_c, 1, 69, 127
2, 81520, Note_on_c, 1, 81, 127
2, 81680, Note_off_c, 1, 69, 0
2, 81680, Note_off_c, 1, 81, 0
2, 81760, Note_on_c, 1, 76, 127
2, 81760, Note_on_c, 1, 79, 127
2, 82160, Note_off_c, 1, 76, 0
2, 82160, Note_off_c, 1, 79, 0
2, 82200, Note_on_c, 1, 83, 127
2, 82200, Note_on_c, 1, 86, 127
2, 82360, Note_off_c, 1, 83, 0
2, 82360, Note_off_c, 1, 86, 0
2, 82400, Note_on_c, 1, 81, 127
2, 82400, Note_on_c, 1, 84, 127
2, 82560, Note_off_c, 1, 81, 0
2, 82560, Note_off_c, 1, 84, 0
2, 82600, Note_on_c, 1, 79, 127
2, 82600, Note_on_c, 1, 83, 127
2, 82760, Note_off_c, 1, 79, 0
2, 82760, Note_off_c, 1, 83, 0
2, 82800, Note_on_c, 1, 79, 127
2, 82800, Note_on_c, 1, 83, 127
2, 82960, Note_off_c, 1, 79, 0
2, 82960, Note_off_c, 1, 83, 0
2, 83000, Note_on_c, 1, 81, 127
2, 83000, Note_on_c, 1, 84, 127
2, 83160, Note_off_c, 1, 81, 0
2, 83160, Note_off_c, 1, 84, 0
2, 83200, Note_on_c, 1, 79, 127
2, 83200, Note_on_c, 1, 83, 127
2, 83360, Note_off_c, 1, 79, 0
2, 83360, Note_off_c, 1, 83, 0
2, 83400, Note_on_c, 1, 74, 127
2, 83400, Note_on_c, 1, 81, 127
2, 83560, Note_off_c, 1, 74, 0
2, 83560, Note_off_c, 1, 81, 0
2, 83600, Note_on_c, 1, 71, 127
2, 83600, Note_on_c, 1, 74, 127
2, 83760, Note_off_c, 1, 71, 0
2, 83760, Note_off_c, 1, 74, 0
2, 83800, Note_on_c, 1, 72, 127
2, 83800, Note_on_c, 1, 76, 127
2, 83960, Note_off_c, 1, 72, 0
2, 83960, Note_off_c, 1, 76, 0
2, 84000, Note_on_c, 1, 71, 127
2, 84000, Note_on_c, 1, 74, 127
2, 84080, Note_off_c, 1, 71, 0
2, 84080, Note_off_c, 1, 74, 0
2, 84120, Note_on_c, 1, 71, 127
2, 84120, Note_on_c, 1, 74, 127
2, 84200, Note_off_c, 1, 71, 0
2, 84200, Note_off_c, 1, 74, 0
2, 84240, Note_on_c, 1, 69, 127
2, 84240, Note_on_c, 1, 72, 127
2, 84400, Note_off_c, 1, 69, 0
2, 84400, Note_off_c, 1, 72, 0
2, 84440, Note_on_c, 1, 67, 127
2, 84440, Note_on_c, 1, 71, 127
2, 84600, Note_off_c, 1, 67, 0
2, 84600, Note_off_c, 1, 71, 0
2, 84640, Note_on_c, 1, 69, 127
2, 84640, Note_on_c, 1, 72, 127
2, 84800, Note_off_c, 1, 69, 0
2, 84800, Note_off_c, 1, 72, 0
2, 84840, Note_on_c, 1, 71, 127
2, 84840, Note_on_c, 1, 74, 127
2, 85000, Note_off_c, 1, 71, 0
2, 85000, Note_off_c, 1, 74, 0
2, 85040, Note_on_c, 1, 73, 127
2, 85040, Note_on_c, 1, 76, 127
2, 85400, Note_off_c, 1, 73, 0
2, 85400, Note_off_c, 1, 76, 0
2, 85440, Note_on_c, 1, 69, 127
2, 85440, Note_on_c, 1, 72, 127
2, 85600, Note_off_c, 1, 69, 0
2, 85600, Note_off_c, 1, 72, 0
2, 85640, Note_on_c, 1, 67, 127
2, 85640, Note_on_c, 1, 71, 127
2, 86040, Note_on_c, 1, 64, 127
2, 86200, Note_off_c, 1, 64, 0
2, 86200, Note_off_c, 1, 67, 0
2, 86200, Note_off_c, 1, 71, 0
2, 86240, Note_on_c, 1, 43, 127
2, 86240, Note_on_c, 1, 74, 127
2, 86240, Note_on_c, 1, 79, 127
2, 86240, Note_on_c, 1, 83, 127
2, 86280, Note_off_c, 1, 74, 0
2, 86280, Note_off_c, 1, 79, 0
2, 86280, Note_off_c, 1, 83, 0
2, 86320, Note_off_c, 1, 43, 0
2, 86360, Note_on_c, 1, 43, 127
2, 86640, Note_off_c, 1, 43, 0
2, 86680, Note_on_c, 1, 33, 127
2, 86680, Note_on_c, 1, 45, 127
2, 86680, Note_on_c, 1, 65, 127
2, 86680, Note_on_c, 1, 69, 127
2, 86680, Note_on_c, 1, 72, 127
2, 86680, Note_on_c, 1, 77, 127
2, 86840, Note_off_c, 1, 65, 0
2, 86840, Note_off_c, 1, 69, 0
2, 86840, Note_off_c, 1, 72, 0
2, 86840, Note_off_c, 1, 77, 0
2, 86880, Note_on_c, 1, 82, 127
2, 87040, Note_off_c, 1, 33, 0
2, 87040, Note_off_c, 1, 45, 0
2, 87040, Note_off_c, 1, 82, 0
2, 87080, Note_on_c, 1, 35, 127
2, 87080, Note_on_c, 1, 42, 127
2, 87080, Note_on_c, 1, 64, 127
2, 87080, Note_on_c, 1, 67, 127
2, 87080, Note_on_c, 1, 70, 127
2, 87080, Note_on_c, 1, 73, 127
2, 87240, Note_off_c, 1, 64, 0
2, 87240, Note_off_c, 1, 67, 0
2, 87240, Note_off_c, 1, 70, 0
2, 87240, Note_off_c, 1, 73, 0
2, 87280, Note_off_c, 1, 35, 0
2, 87280, Note_on_c, 1, 40, 127
2, 87280, Note_off_c, 1, 42, 0
2, 87280, Note_on_c, 1, 47, 127
2, 87280, Note_on_c, 1, 74, 127
2, 87440, Note_off_c, 1, 40, 0
2, 87440, Note_off_c, 1, 47, 0
2, 87440, Note_off_c, 1, 74, 0
2, 87480, Note_on_c, 1, 38, 127
2, 87480, Note_on_c, 1, 55, 127
2, 87480, Note_on_c, 1, 59, 127
2, 87480, Note_on_c, 1, 67, 127
2, 87840, Note_off_c, 1, 38, 0
2, 87840, Note_off_c, 1, 55, 0
2, 87840, Note_off_c, 1, 59, 0
2, 87840, Note_off_c, 1, 67, 0
2, 87880, Note_on_c, 1, 47, 127
2, 87880, Note_on_c, 1, 54, 127
2, 87880, Note_on_c, 1, 59, 127
2, 87880, Note_on_c, 1, 62, 127
2, 87880, Note_on_c, 1, 66, 127
2, 87880, Note_on_c, 1, 71, 127
2, 88240, Note_off_c, 1, 47, 0
2, 88240, Note_off_c, 1, 54, 0
2, 88240, Note_off_c, 1, 59, 0
2, 88240, Note_off_c, 1, 62, 0
2, 88240, Note_off_c, 1, 66, 0
2, 88240, Note_off_c, 1, 71, 0
2, 88280, Note_on_c, 1, 43, 127
2, 88280, Note_on_c, 1, 66, 127
2, 88280, Note_on_c, 1, 69, 127
2, 88440, Note_off_c, 1, 43, 0
2, 88440, Note_off_c, 1, 66, 0
2, 88440, Note_off_c, 1, 69, 0
2, 88480, Note_on_c, 1, 67, 127
2, 88480, Note_on_c, 1, 71, 127
2, 88520, Note_on_c, 1, 43, 127
2, 88520, Note_on_c, 1, 55, 127
2, 88520, Note_on_c, 1, 65, 127
2, 88520, Note_off_c, 1, 71, 0
2, 88520, Note_on_c, 1, 74, 127
2, 88680, Note_off_c, 1, 43, 0
2, 88680, Note_off_c, 1, 55, 0
2, 88680, Note_off_c, 1, 65, 0
2, 88680, Note_off_c, 1, 67, 0
2, 88680, Note_off_c, 1, 74, 0
2, 88720, Note_on_c, 1, 67, 127
2, 88720, Note_on_c, 1, 71, 127
2, 88880, Note_off_c, 1, 67, 0
2, 88880, Note_off_c, 1, 71, 0
2, 88920, Note_on_c, 1, 71, 127
2, 88920, Note_on_c, 1, 74, 127
2, 89080, Note_off_c, 1, 71, 0
2, 89080, Note_off_c, 1, 74, 0
2, 89120, Note_on_c, 1, 66, 127
2, 89120, Note_on_c, 1, 69, 127
2, 89120, Note_on_c, 1, 78, 127
2, 89120, Note_on_c, 1, 81, 127
2, 89800, Note_off_c, 1, 66, 0
2, 89800, Note_off_c, 1, 69, 0
2, 89800, Note_off_c, 1, 78, 0
2, 89800, Note_off_c, 1, 81, 0
2, 89840, Note_on_c, 1, 69, 127
2, 89840, Note_on_c, 1, 72, 127
2, 89880, Note_off_c, 1, 69, 0
2, 89880, Note_off_c, 1, 72, 0
2, 89920, Note_on_c, 1, 55, 127
2, 89920, Note_on_c, 1, 58, 127
2, 89920, Note_on_c, 1, 70, 127
2, 89920, Note_on_c, 1, 73, 127
2, 89920, Note_on_c, 1, 82, 127
2, 89960, Note_off_c, 1, 55, 0
2, 89960, Note_on_c, 1, 56, 127
2, 89960, Note_off_c, 1, 58, 0
2, 89960, Note_off_c, 1, 70, 0
2, 89960, Note_off_c, 1, 73, 0
2, 89960, Note_off_c, 1, 82, 0
2, 89960, Note_on_c, 1, 85, 127
2, 89960, Note_on_c, 1, 92, 127
2, 89960, Note_on_c, 1, 95, 127
2, 89960, Note_on_c, 1, 97, 127
2, 90280, Note_off_c, 1, 56, 0
2, 90280, Note_on_c, 1, 60, 127
2, 90280, Note_on_c, 1, 63, 127
2, 90280, Note_on_c, 1, 66, 127
2, 90280, Note_on_c, 1, 74, 127
2, 90280, Note_on_c, 1, 78, 127
2, 90280, Note_off_c, 1, 85, 0
2, 90280, Note_off_c, 1, 92, 0
2, 90280, Note_off_c, 1, 95, 0
2, 90280, Note_off_c, 1, 97, 0
2, 90320, Note_on_c, 1, 57, 127
2, 90320, Note_off_c, 1, 60, 0
2, 90320, Note_off_c, 1, 63, 0
2, 90320, Note_on_c, 1, 69, 127
2, 90320, Note_off_c, 1, 74, 0
2, 90320, Note_off_c, 1, 78, 0
2, 90320, Note_on_c, 1, 83, 127
2, 90320, Note_on_c, 1, 86, 127
2, 90360, Note_on_c, 1, 50, 127
2, 90360, Note_on_c, 1, 56, 127
2, 90360, Note_off_c, 1, 57, 0
2, 90360, Note_on_c, 1, 59, 127
2, 90360, Note_on_c, 1, 62, 127
2, 90360, Note_off_c, 1, 66, 0
2, 90360, Note_off_c, 1, 69, 0
2, 90360, Note_on_c, 1, 71, 127
2, 90360, Note_off_c, 1, 83, 0
2, 90360, Note_off_c, 1, 86, 0
2, 90400, Note_off_c, 1, 50, 0
2, 90400, Note_off_c, 1, 56, 0
2, 90400, Note_off_c, 1, 59, 0
2, 90400, Note_off_c, 1, 62, 0
2, 90400, Note_off_c, 1, 71, 0
2, 90440, Note_on_c, 1, 46, 127
2, 90440, Note_on_c, 1, 53, 127
2, 90440, Note_on_c, 1, 75, 127
2, 90440, Note_on_c, 1, 89, 127
2, 90480, Note_on_c, 1, 41, 127
2, 90480, Note_off_c, 1, 46, 0
2, 90480, Note_on_c, 1, 50, 127
2, 90480, Note_off_c, 1, 53, 0
2, 90480, Note_on_c, 1, 56, 127
2, 90480, Note_on_c, 1, 61, 127
2, 90480, Note_off_c, 1, 75, 0
2, 90480, Note_off_c, 1, 89, 0
2, 90520, Note_on_c, 1, 35, 127
2, 90520, Note_off_c, 1, 41, 0
2, 90520, Note_off_c, 1, 50, 0
2, 90520, Note_off_c, 1, 56, 0
2, 90520, Note_off_c, 1, 61, 0
2, 90520, Note_on_c, 1, 80, 127
2, 90520, Note_on_c, 1, 86, 127
2, 90560, Note_off_c, 1, 35, 0
2, 90560, Note_on_c, 1, 47, 127
2, 90560, Note_on_c, 1, 52, 127
2, 90560, Note_on_c, 1, 55, 127
2, 90560, Note_on_c, 1, 60, 127
2, 90560, Note_on_c, 1, 64, 127
2, 90560, Note_on_c, 1, 67, 127
2, 90560, Note_on_c, 1, 72, 127
2, 90560, Note_off_c, 1, 80, 0
2, 90560, Note_off_c, 1, 86, 0
2, 90600, Note_on_c, 1, 41, 127
2, 90600, Note_off_c, 1, 47, 0
2, 90600, Note_off_c, 1, 52, 0
2, 90600, Note_off_c, 1, 55, 0
2, 90600, Note_off_c, 1, 60, 0
2, 90600, Note_off_c, 1, 64, 0
2, 90600, Note_off_c, 1, 67, 0
2, 90600, Note_off_c, 1, 72, 0
2, 90600, Note_on_c, 1, 75, 127
2, 90600, Note_on_c, 1, 81, 127
2, 90600, Note_on_c, 1, 84, 127
2, 90640, Note_off_c, 1, 41, 0
2, 90640, Note_on_c, 1, 47, 127
2, 90640, Note_on_c, 1, 52, 127
2, 90640, Note_on_c, 1, 55, 127
2, 90640, Note_on_c, 1, 60, 127
2, 90640, Note_on_c, 1, 64, 127
2, 90640, Note_on_c, 1, 67, 127
2, 90640, Note_on_c, 1, 72, 127
2, 90640, Note_off_c, 1, 75, 0
2, 90640, Note_off_c, 1, 81, 0
2, 90640, Note_off_c, 1, 84, 0
2, 91160, Note_off_c, 1, 52, 0
2, 91160, Note_off_c, 1, 60, 0
2, 91960, Note_off_c, 1, 47, 0
2, 91960, Note_off_c, 1, 55, 0
2, 91960, Note_off_c, 1, 64, 0
2, 91960, Note_off_c, 1, 67, 0
2, 91960, Note_off_c, 1, 72, 0
2, 92000, Note_on_c, 1, 72, 127
2, 92000, Note_on_c, 1, 76, 127
2, 92000, Note_on_c, 1, 79, 127
2, 92000, Note_on_c, 1, 91, 127
2, 92360, Note_on_c, 1, 69, 127
2, 92360, Note_off_c, 1, 72, 0
2, 92360, Note_on_c, 1, 75, 127
2, 92360, Note_off_c, 1, 76, 0
2, 92360, Note_on_c, 1, 78, 127
2, 92360, Note_off_c, 1, 79, 0
2, 92360, Note_on_c, 1, 87, 127
2, 92360, Note_on_c, 1, 90, 127
2, 92360, Note_off_c, 1, 91, 0
2, 92400, Note_off_c, 1, 69, 0
2, 92400, Note_off_c, 1, 75, 0
2, 92400, Note_off_c, 1, 78, 0
2, 92400, Note_off_c, 1, 87, 0
2, 92400, Note_off_c, 1, 90, 0
2, 92440, Note_on_c, 1, 49, 127
2, 92440, Note_on_c, 1, 53, 127
2, 92440, Note_on_c, 1, 58, 127
2, 92440, Note_on_c, 1, 61, 127
2, 92440, Note_on_c, 1, 103, 127
2, 92480, Note_on_c, 1, 43, 127
2, 92480, Note_off_c, 1, 49, 0
2, 92480, Note_on_c, 1, 50, 127
2, 92480, Note_off_c, 1, 53, 0
2, 92480, Note_on_c, 1, 55, 127
2, 92480, Note_off_c, 1, 58, 0
2, 92480, Note_off_c, 1, 61, 0
2, 92480, Note_on_c, 1, 65, 127
2, 92480, Note_on_c, 1, 71, 127
2, 92480, Note_on_c, 1, 79, 127
2, 92480, Note_off_c, 1, 103, 0
2, 92520, Note_off_c, 1, 43, 0
2, 92520, Note_off_c, 1, 50, 0
2, 92520, Note_on_c, 1, 53, 127
2, 92520, Note_off_c, 1, 55, 0
2, 92520, Note_off_c, 1, 71, 0
2, 92520, Note_off_c, 1, 79, 0
2, 92520, Note_on_c, 1, 80, 127
2, 92520, Note_on_c, 1, 84, 127
2, 92520, Note_on_c, 1, 89, 127
2, 92520, Note_on_c, 1, 92, 127
2, 92560, Note_off_c, 1, 53, 0
2, 92560, Note_off_c, 1, 65, 0
2, 92560, Note_off_c, 1, 80, 0
2, 92560, Note_off_c, 1, 84, 0
2, 92560, Note_off_c, 1, 89, 0
2, 92560, Note_off_c, 1, 92, 0
2, 92560, Note_on_c, 1, 95, 127
2, 92560, Note_on_c, 1, 100, 127
2, 92560, Note_on_c, 1, 102, 127
2, 92600, Note_on_c, 1, 49, 127
2, 92600, Note_on_c, 1, 53, 127
2, 92600, Note_on_c, 1, 58, 127
2, 92600, Note_on_c, 1, 61, 127
2, 92600, Note_off_c, 1, 95, 0
2, 92600, Note_off_c, 1, 100, 0
2, 92600, Note_off_c, 1, 102, 0
2, 92600, Note_on_c, 1, 103, 127
2, 92640, Note_off_c, 1, 49, 0
2, 92640, Note_off_c, 1, 53, 0
2, 92640, Note_on_c, 1, 56, 127
2, 92640, Note_off_c, 1, 58, 0
2, 92640, Note_off_c, 1, 61, 0
2, 92640, Note_on_c, 1, 67, 127
2, 92640, Note_on_c, 1, 73, 127
2, 92640, Note_on_c, 1, 78, 127
2, 92640, Note_on_c, 1, 81, 127
2, 92640, Note_off_c, 1, 103, 0
2, 92680, Note_off_c, 1, 56, 0
2, 92680, Note_on_c, 1, 58, 127
2, 92680, Note_on_c, 1, 61, 127
2, 92680, Note_on_c, 1, 66, 127
2, 92680, Note_off_c, 1, 67, 0
2, 92680, Note_off_c, 1, 73, 0
2, 92680, Note_off_c, 1, 78, 0
2, 92680, Note_off_c, 1, 81, 0
2, 92680, Note_on_c, 1, 85, 127
2, 92680, Note_on_c, 1, 97, 127
2, 92720, Note_on_c, 1, 45, 127
2, 92720, Note_on_c, 1, 50, 127
2, 92720, Note_off_c, 1, 58, 0
2, 92720, Note_off_c, 1, 61, 0
2, 92720, Note_on_c, 1, 62, 127
2, 92720, Note_off_c, 1, 66, 0
2, 92720, Note_on_c, 1, 81, 127
2, 92720, Note_off_c, 1, 85, 0
2, 92720, Note_on_c, 1, 90, 127
2, 92720, Note_on_c, 1, 93, 127
2, 92720, Note_off_c, 1, 97, 0
2, 92760, Note_on_c, 1, 43, 127
2, 92760, Note_off_c, 1, 45, 0
2, 92760, Note_off_c, 1, 50, 0
2, 92760, Note_on_c, 1, 55, 127
2, 92760, Note_off_c, 1, 62, 0
2, 92760, Note_off_c, 1, 81, 0
2, 92760, Note_on_c, 1, 88, 127
2, 92760, Note_off_c, 1, 90, 0
2, 92760, Note_off_c, 1, 93, 0
2, 92800, Note_off_c, 1, 43, 0
2, 92800, Note_on_c, 1, 53, 127
2, 92800, Note_off_c, 1, 55, 0
2, 92800, Note_on_c, 1, 58, 127
2, 92800, Note_on_c, 1, 60, 127
2, 92800, Note_on_c, 1, 64, 127
2, 92800, Note_on_c, 1, 84, 127
2, 92800, Note_off_c, 1, 88, 0
2, 92880, Note_off_c, 1, 84, 0
2, 93560, Note_off_c, 1, 53, 0
2, 93560, Note_off_c, 1, 58, 0
2, 93560, Note_off_c, 1, 60, 0
2, 93560, Note_off_c, 1, 64, 0
2, 95040, Note_on_c, 1, 58, 127
2, 95200, Note_off_c, 1, 58, 0
2, 95240, Note_on_c, 1, 65, 127
2, 95400, Note_off_c, 1, 65, 0
2, 95440, Note_on_c, 1, 70, 127
2, 95600, Note_off_c, 1, 70, 0
2, 95640, Note_on_c, 1, 44, 127
2, 95800, Note_off_c, 1, 44, 0
2, 95840, Note_on_c, 1, 46, 127
2, 96000, Note_off_c, 1, 46, 0
2, 96040, Note_on_c, 1, 53, 127
2, 96200, Note_off_c, 1, 53, 0
2, 96240, Note_on_c, 1, 46, 127
2, 96400, Note_off_c, 1, 46, 0
2, 96440, Note_on_c, 1, 48, 127
2, 96600, Note_off_c, 1, 48, 0
2, 96640, Note_on_c, 1, 48, 127
2, 96800, Note_off_c, 1, 48, 0
2, 96840, Note_on_c, 1, 55, 127
2, 96840, Note_on_c, 1, 79, 127
2, 96840, Note_on_c, 1, 91, 127
2, 97000, Note_off_c, 1, 55, 0
2, 97000, Note_off_c, 1, 79, 0
2, 97000, Note_off_c, 1, 91, 0
2, 97040, Note_on_c, 1, 79, 127
2, 97040, Note_on_c, 1, 91, 127
2, 97080, Note_on_c, 1, 58, 127
2, 97240, Note_off_c, 1, 58, 0
2, 97280, Note_on_c, 1, 64, 127
2, 97440, Note_off_c, 1, 64, 0
2, 97480, Note_on_c, 1, 46, 127
2, 97480, Note_on_c, 1, 75, 127
2, 97480, Note_off_c, 1, 79, 0
2, 97480, Note_on_c, 1, 87, 127
2, 97480, Note_off_c, 1, 91, 0
2, 97840, Note_off_c, 1, 46, 0
2, 97880, Note_on_c, 1, 46, 127
2, 98240, Note_off_c, 1, 46, 0
2, 98280, Note_on_c, 1, 44, 127
2, 98280, Note_on_c, 1, 51, 127
2, 98280, Note_on_c, 1, 56, 127
2, 98280, Note_on_c, 1, 71, 127
2, 98280, Note_off_c, 1, 87, 0
2, 98640, Note_off_c, 1, 44, 0
2, 98640, Note_off_c, 1, 56, 0
2, 98640, Note_on_c, 1, 58, 127
2, 98640, Note_on_c, 1, 61, 127
2, 98640, Note_off_c, 1, 71, 0
2, 98640, Note_off_c, 1, 75, 0
2, 98640, Note_on_c, 1, 85, 127
2, 98680, Note_on_c, 1, 49, 127
2, 98680, Note_off_c, 1, 51, 0
2, 98680, Note_off_c, 1, 58, 0
2, 98680, Note_off_c, 1, 61, 0
2, 98680, Note_on_c, 1, 64, 127
2, 98680, Note_off_c, 1, 85, 0
2, 98680, Note_on_c, 1, 91, 127
2, 98840, Note_off_c, 1, 49, 0
2, 98840, Note_off_c, 1, 64, 0
2, 98880, Note_on_c, 1, 54, 127
2, 98880, Note_on_c, 1, 78, 127
2, 98880, Note_on_c, 1, 80, 127
2, 98880, Note_off_c, 1, 91, 0
2, 98960, Note_off_c, 1, 80, 0
2, 99040, Note_off_c, 1, 54, 0
2, 99080, Note_off_c, 1, 78, 0
2, 99120, Note_on_c, 1, 56, 127
2, 99120, Note_on_c, 1, 75, 127
2, 99120, Note_on_c, 1, 83, 127
2, 99280, Note_off_c, 1, 75, 0
2, 99280, Note_off_c, 1, 83, 0
2, 99320, Note_on_c, 1, 75, 127
2, 99320, Note_on_c, 1, 83, 127
2, 99680, Note_off_c, 1, 75, 0
2, 99680, Note_off_c, 1, 83, 0
2, 99720, Note_on_c, 1, 80, 127
2, 99720, Note_on_c, 1, 83, 127
2, 99880, Note_off_c, 1, 56, 0
2, 99880, Note_off_c, 1, 80, 0
2, 99880, Note_off_c, 1, 83, 0
2, 99920, Note_on_c, 1, 37, 127
2, 99920, Note_on_c, 1, 72, 127
2, 99920, Note_on_c, 1, 80, 127
2, 100040, Note_off_c, 1, 37, 0
2, 100320, Note_on_c, 1, 55, 127
2, 100480, Note_off_c, 1, 55, 0
2, 100680, Note_off_c, 1, 80, 0
2, 100720, Note_on_c, 1, 41, 127
2, 100720, Note_off_c, 1, 72, 0
2, 100920, Note_off_c, 1, 41, 0
2, 100920, Note_on_c, 1, 73, 127
2, 100920, Note_on_c, 1, 77, 127
2, 101120, Note_on_c, 1, 44, 127
2, 101280, Note_off_c, 1, 44, 0
2, 101280, Note_off_c, 1, 73, 0
2, 101280, Note_off_c, 1, 77, 0
2, 101320, Note_on_c, 1, 44, 127
2, 101320, Note_on_c, 1, 73, 127
2, 101320, Note_on_c, 1, 77, 127
2, 101520, Note_off_c, 1, 44, 0
2, 101560, Note_on_c, 1, 37, 127
2, 101920, Note_off_c, 1, 37, 0
2, 101920, Note_off_c, 1, 73, 0
2, 101920, Note_off_c, 1, 77, 0
2, 101960, Note_on_c, 1, 68, 127
2, 101960, Note_on_c, 1, 71, 127
2, 102360, Note_on_c, 1, 37, 127
2, 102360, Note_on_c, 1, 65, 127
2, 102360, Note_off_c, 1, 68, 0
2, 102680, Note_off_c, 1, 37, 0
2, 102720, Note_on_c, 1, 49, 127
2, 103080, Note_off_c, 1, 49, 0
2, 103080, Note_off_c, 1, 65, 0
2, 103080, Note_off_c, 1, 71, 0
2, 103120, Note_on_c, 1, 42, 127
2, 103120, Note_on_c, 1, 63, 127
2, 103440, Note_off_c, 1, 42, 0
2, 103440, Note_off_c, 1, 63, 0
2, 103480, Note_on_c, 1, 42, 127
2, 103480, Note_on_c, 1, 63, 127
2, 103520, Note_off_c, 1, 42, 0
2, 103520, Note_off_c, 1, 63, 0
2, 103560, Note_on_c, 1, 49, 127
2, 103560, Note_on_c, 1, 58, 127
2, 103920, Note_off_c, 1, 49, 0
2, 103920, Note_off_c, 1, 58, 0
2, 103960, Note_on_c, 1, 49, 127
2, 103960, Note_on_c, 1, 58, 127
2, 104320, Note_off_c, 1, 49, 0
2, 104320, Note_off_c, 1, 58, 0
2, 104360, Note_on_c, 1, 57, 127
2, 104360, Note_on_c, 1, 62, 127
2, 104360, Note_on_c, 1, 69, 127
2, 104360, Note_on_c, 1, 72, 127
2, 104360, Note_on_c, 1, 84, 127
2, 104400, Note_on_c, 1, 41, 127
2, 104400, Note_off_c, 1, 57, 0
2, 104400, Note_on_c, 1, 58, 127
2, 104400, Note_off_c, 1, 62, 0
2, 104400, Note_on_c, 1, 65, 127
2, 104400, Note_on_c, 1, 67, 127
2, 104400, Note_off_c, 1, 69, 0
2, 104400, Note_off_c, 1, 72, 0
2, 104400, Note_off_c, 1, 84, 0
2, 104520, Note_off_c, 1, 41, 0
2, 104520, Note_off_c, 1, 58, 0
2, 104520, Note_off_c, 1, 65, 0
2, 104520, Note_off_c, 1, 67, 0
2, 104520, Note_on_c, 1, 71, 127
2, 104520, Note_on_c, 1, 74, 127
2, 104520, Note_on_c, 1, 77, 127
2, 104520, Note_on_c, 1, 79, 127
2, 104560, Note_on_c, 1, 67, 127
2, 104560, Note_off_c, 1, 71, 0
2, 104560, Note_on_c, 1, 73, 127
2, 104560, Note_off_c, 1, 74, 0
2, 104560, Note_on_c, 1, 75, 127
2, 104560, Note_off_c, 1, 77, 0
2, 104560, Note_off_c, 1, 79, 0
2, 104560, Note_on_c, 1, 80, 127
2, 104600, Note_on_c, 1, 46, 127
2, 104600, Note_on_c, 1, 50, 127
2, 104600, Note_on_c, 1, 54, 127
2, 104600, Note_on_c, 1, 66, 127
2, 104600, Note_off_c, 1, 67, 0
2, 104600, Note_off_c, 1, 73, 0
2, 104600, Note_on_c, 1, 74, 127
2, 104600, Note_off_c, 1, 75, 0
2, 104600, Note_on_c, 1, 78, 127
2, 104600, Note_off_c, 1, 80, 0
2, 104640, Note_off_c, 1, 46, 0
2, 104640, Note_off_c, 1, 50, 0
2, 104640, Note_off_c, 1, 54, 0
2, 104640, Note_off_c, 1, 66, 0
2, 104640, Note_on_c, 1, 67, 127
2, 104640, Note_on_c, 1, 73, 127
2, 104640, Note_off_c, 1, 74, 0
2, 104640, Note_on_c, 1, 75, 127
2, 104640, Note_off_c, 1, 78, 0
2, 104640, Note_on_c, 1, 80, 127
2, 104680, Note_on_c, 1, 38, 127
2, 104680, Note_on_c, 1, 59, 127
2, 104680, Note_off_c, 1, 67, 0
2, 104680, Note_off_c, 1, 73, 0
2, 104680, Note_off_c, 1, 75, 0
2, 104680, Note_on_c, 1, 76, 127
2, 104680, Note_off_c, 1, 80, 0
2, 104720, Note_off_c, 1, 38, 0
2, 104720, Note_off_c, 1, 59, 0
2, 104720, Note_off_c, 1, 76, 0
2, 104760, Note_on_c, 1, 56, 127
2, 104760, Note_on_c, 1, 62, 127
2, 104760, Note_on_c, 1, 68, 127
2, 104760, Note_on_c, 1, 73, 127
2, 104880, Note_on_c, 1, 50, 127
2, 104880, Note_on_c, 1, 55, 127
2, 104880, Note_off_c, 1, 56, 0
2, 104880, Note_off_c, 1, 62, 0
2, 104880, Note_on_c, 1, 64, 127
2, 104880, Note_off_c, 1, 68, 0
2, 104880, Note_on_c, 1, 69, 127
2, 104880, Note_off_c, 1, 73, 0
2, 104920, Note_off_c, 1, 50, 0
2, 104920, Note_off_c, 1, 55, 0
2, 104920, Note_on_c, 1, 57, 127
2, 104920, Note_on_c, 1, 61, 127
2, 104920, Note_off_c, 1, 64, 0
2, 104920, Note_on_c, 1, 66, 127
2, 104920, Note_off_c, 1, 69, 0
2, 104960, Note_on_c, 1, 35, 127
2, 104960, Note_on_c, 1, 40, 127
2, 104960, Note_on_c, 1, 47, 127
2, 104960, Note_off_c, 1, 57, 0
2, 104960, Note_on_c, 1, 59, 127
2, 104960, Note_off_c, 1, 61, 0
2, 104960, Note_off_c, 1, 66, 0
2, 104960, Note_on_c, 1, 68, 127
2, 104960, Note_on_c, 1, 71, 127
2, 104960, Note_on_c, 1, 83, 127
2, 104960, Note_on_c, 1, 88, 127
2, 104960, Note_on_c, 1, 92, 127
2, 105000, Note_off_c, 1, 35, 0
2, 105000, Note_off_c, 1, 40, 0
2, 105000, Note_off_c, 1, 47, 0
2, 105000, Note_off_c, 1, 59, 0
2, 105000, Note_off_c, 1, 68, 0
2, 105000, Note_off_c, 1, 71, 0
2, 105000, Note_off_c, 1, 83, 0
2, 105000, Note_on_c, 1, 87, 127
2, 105000, Note_off_c, 1, 88, 0
2, 105000, Note_off_c, 1, 92, 0
2, 105000, Note_on_c, 1, 96, 127
2, 105000, Note_on_c, 1, 103, 127
2, 105040, Note_on_c, 1, 52, 127
2, 105040, Note_on_c, 1, 54, 127
2, 105040, Note_on_c, 1, 57, 127
2, 105040, Note_on_c, 1, 60, 127
2, 105040, Note_on_c, 1, 84, 127
2, 105040, Note_off_c, 1, 87, 0
2, 105040, Note_off_c, 1, 96, 0
2, 105040, Note_off_c, 1, 103, 0
2, 105080, Note_off_c, 1, 52, 0
2, 105080, Note_off_c, 1, 54, 0
2, 105080, Note_off_c, 1, 57, 0
2, 105080, Note_off_c, 1, 60, 0
2, 105080, Note_on_c, 1, 65, 127
2, 105080, Note_on_c, 1, 77, 127
2, 105080, Note_on_c, 1, 87, 127
2, 105080, Note_on_c, 1, 89, 127
2, 105120, Note_off_c, 1, 65, 0
2, 105120, Note_off_c, 1, 77, 0
2, 105120, Note_off_c, 1, 84, 0
2, 105120, Note_off_c, 1, 87, 0
2, 105120, Note_off_c, 1, 89, 0
2, 105160, Note_on_c, 1, 47, 127
2, 105160, Note_on_c, 1, 83, 127
2, 105320, Note_off_c, 1, 47, 0
2, 105320, Note_off_c, 1, 83, 0
2, 105600, Note_on_c, 1, 54, 127
2, 105600, Note_on_c, 1, 70, 127
2, 105760, Note_off_c, 1, 54, 0
2, 105760, Note_off_c, 1, 70, 0
2, 106000, Note_on_c, 1, 54, 127
2, 106000, Note_on_c, 1, 78, 127
2, 106160, Note_off_c, 1, 54, 0
2, 106160, Note_off_c, 1, 78, 0
2, 106400, Note_on_c, 1, 66, 127
2, 106400, Note_on_c, 1, 70, 127
2, 106400, Note_on_c, 1, 78, 127
2, 106560, Note_off_c, 1, 66, 0
2, 106560, Note_off_c, 1, 70, 0
2, 106560, Note_off_c, 1, 78, 0
2, 106800, Note_on_c, 1, 61, 127
2, 106800, Note_on_c, 1, 70, 127
2, 106800, Note_on_c, 1, 78, 127
2, 106960, Note_off_c, 1, 70, 0
2, 106960, Note_off_c, 1, 78, 0
2, 107160, Note_off_c, 1, 61, 0
2, 107200, Note_on_c, 1, 60, 127
2, 107200, Note_on_c, 1, 66, 127
2, 107200, Note_on_c, 1, 75, 127
2, 107560, Note_off_c, 1, 66, 0
2, 107560, Note_off_c, 1, 75, 0
2, 107600, Note_off_c, 1, 60, 0
2, 107640, Note_on_c, 1, 60, 127
2, 107640, Note_on_c, 1, 66, 127
2, 107640, Note_on_c, 1, 75, 127
2, 108000, Note_off_c, 1, 60, 0
2, 108000, Note_off_c, 1, 66, 0
2, 108000, Note_off_c, 1, 75, 0
2, 108040, Note_on_c, 1, 61, 127
2, 108040, Note_on_c, 1, 78, 127
2, 108200, Note_off_c, 1, 61, 0
2, 108400, Note_off_c, 1, 78, 0
2, 108440, Note_on_c, 1, 56, 127
2, 108440, Note_on_c, 1, 77, 127
2, 108800, Note_off_c, 1, 77, 0
2, 108840, Note_on_c, 1, 63, 127
2, 108840, Note_on_c, 1, 66, 127
2, 108840, Note_on_c, 1, 78, 127
2, 109080, Note_on_c, 1, 75, 127
2, 109080, Note_off_c, 1, 78, 0
2, 109120, Note_off_c, 1, 75, 0
2, 109160, Note_on_c, 1, 78, 127
2, 109200, Note_off_c, 1, 56, 0
2, 109200, Note_off_c, 1, 63, 0
2, 109200, Note_off_c, 1, 66, 0
2, 109200, Note_off_c, 1, 78, 0
2, 109240, Note_on_c, 1, 49, 127
2, 109240, Note_on_c, 1, 78, 127
2, 109400, Note_off_c, 1, 49, 0
2, 109400, Note_off_c, 1, 78, 0
2, 109440, Note_on_c, 1, 77, 127
2, 109600, Note_off_c, 1, 77, 0
2, 109640, Note_on_c, 1, 49, 127
2, 109640, Note_on_c, 1, 58, 127
2, 109640, Note_on_c, 1, 65, 127
2, 109640, Note_on_c, 1, 73, 127
2, 109760, Note_off_c, 1, 49, 0
2, 109760, Note_off_c, 1, 58, 0
2, 109760, Note_off_c, 1, 65, 0
2, 109760, Note_off_c, 1, 73, 0
2, 109800, Note_on_c, 1, 49, 127
2, 109800, Note_on_c, 1, 58, 127
2, 109800, Note_on_c, 1, 65, 127
2, 109800, Note_on_c, 1, 73, 127
2, 109840, Note_off_c, 1, 49, 0
2, 109840, Note_off_c, 1, 58, 0
2, 109880, Note_on_c, 1, 51, 127
2, 110040, Note_off_c, 1, 51, 0
2, 110040, Note_off_c, 1, 65, 0
2, 110040, Note_off_c, 1, 73, 0
2, 110080, Note_on_c, 1, 74, 127
2, 110440, Note_off_c, 1, 74, 0
2, 110480, Note_on_c, 1, 53, 127
2, 110480, Note_on_c, 1, 63, 127
2, 110480, Note_on_c, 1, 71, 127
2, 110840, Note_off_c, 1, 53, 0
2, 110880, Note_on_c, 1, 53, 127
2, 110880, Note_off_c, 1, 71, 0
2, 110880, Note_on_c, 1, 72, 127
2, 111240, Note_off_c, 1, 53, 0
2, 111240, Note_off_c, 1, 63, 0
2, 111240, Note_off_c, 1, 72, 0
2, 111280, Note_on_c, 1, 49, 127
2, 111280, Note_on_c, 1, 58, 127
2, 111280, Note_on_c, 1, 65, 127
2, 111640, Note_off_c, 1, 49, 0
2, 111640, Note_off_c, 1, 65, 0
2, 111680, Note_on_c, 1, 64, 127
2, 111680, Note_on_c, 1, 78, 127
2, 111840, Note_off_c, 1, 78, 0
2, 112040, Note_off_c, 1, 58, 0
2, 112040, Note_off_c, 1, 64, 0
2, 112120, Note_on_c, 1, 80, 127
2, 112280, Note_off_c, 1, 80, 0
2, 112320, Note_on_c, 1, 78, 127
2, 112480, Note_off_c, 1, 78, 0
2, 112520, Note_on_c, 1, 58, 127
2, 112520, Note_on_c, 1, 62, 127
2, 112520, Note_on_c, 1, 77, 127
2, 112880, Note_off_c, 1, 77, 0
2, 112920, Note_on_c, 1, 79, 127
2, 113080, Note_off_c, 1, 79, 0
2, 113120, Note_on_c, 1, 77, 127
2, 113280, Note_off_c, 1, 58, 0
2, 113280, Note_off_c, 1, 62, 0
2, 113280, Note_off_c, 1, 77, 0
2, 113320, Note_on_c, 1, 79, 127
2, 113680, Note_off_c, 1, 79, 0
2, 113720, Note_on_c, 1, 58, 127
2, 113720, Note_on_c, 1, 62, 127
2, 113720, Note_on_c, 1, 77, 127
2, 114080, Note_off_c, 1, 77, 0
2, 114120, Note_on_c, 1, 74, 127
2, 114400, Note_off_c, 1, 58, 0
2, 114400, Note_off_c, 1, 62, 0
2, 114400, Note_off_c, 1, 74, 0
2, 114440, Note_on_c, 1, 58, 127
2, 114440, Note_on_c, 1, 62, 127
2, 114440, Note_on_c, 1, 74, 127
2, 114520, Note_off_c, 1, 58, 0
2, 114520, Note_off_c, 1, 62, 0
2, 114520, Note_off_c, 1, 74, 0
2, 114560, Note_on_c, 1, 67, 127
2, 114560, Note_on_c, 1, 72, 127
2, 114960, Note_on_c, 1, 62, 127
2, 115280, Note_off_c, 1, 72, 0
2, 115320, Note_on_c, 1, 61, 127
2, 115320, Note_off_c, 1, 62, 0
2, 115320, Note_on_c, 1, 72, 127
2, 115680, Note_off_c, 1, 61, 0
2, 115680, Note_off_c, 1, 67, 0
2, 115680, Note_off_c, 1, 72, 0
2, 115720, Note_on_c, 1, 58, 127
2, 115720, Note_on_c, 1, 62, 127
2, 115720, Note_on_c, 1, 70, 127
2, 115720, Note_on_c, 1, 82, 127
2, 116080, Note_off_c, 1, 58, 0
2, 116080, Note_off_c, 1, 62, 0
2, 116120, Note_on_c, 1, 58, 127
2, 116120, Note_on_c, 1, 63, 127
2, 116120, Note_off_c, 1, 70, 0
2, 116120, Note_on_c, 1, 81, 127
2, 116120, Note_off_c, 1, 82, 0
2, 116200, Note_on_c, 1, 79, 127
2, 116200, Note_off_c, 1, 81, 0
2, 116480, Note_off_c, 1, 58, 0
2, 116480, Note_off_c, 1, 63, 0
2, 116480, Note_off_c, 1, 79, 0
2, 116520, Note_on_c, 1, 61, 127
2, 116520, Note_on_c, 1, 65, 127
2, 116520, Note_on_c, 1, 77, 127
2, 116760, Note_off_c, 1, 61, 0
2, 116760, Note_off_c, 1, 65, 0
2, 116760, Note_off_c, 1, 77, 0
2, 116800, Note_on_c, 1, 61, 127
2, 116800, Note_on_c, 1, 65, 127
2, 116800, Note_on_c, 1, 77, 127
2, 116920, Note_off_c, 1, 61, 0
2, 116920, Note_off_c, 1, 65, 0
2, 116920, Note_off_c, 1, 77, 0
2, 116960, Note_on_c, 1, 60, 127
2, 116960, Note_on_c, 1, 65, 127
2, 116960, Note_on_c, 1, 69, 127
2, 116960, Note_on_c, 1, 77, 127
2, 117320, Note_off_c, 1, 60, 0
2, 117320, Note_off_c, 1, 65, 0
2, 117320, Note_off_c, 1, 69, 0
2, 117360, Note_on_c, 1, 60, 127
2, 117360, Note_on_c, 1, 65, 127
2, 117360, Note_on_c, 1, 69, 127
2, 117360, Note_on_c, 1, 75, 127
2, 117360, Note_off_c, 1, 77, 0
2, 117720, Note_off_c, 1, 60, 0
2, 117720, Note_off_c, 1, 65, 0
2, 117720, Note_off_c, 1, 69, 0
2, 117720, Note_off_c, 1, 75, 0
2, 117760, Note_on_c, 1, 61, 127
2, 117760, Note_on_c, 1, 65, 127
2, 117760, Note_on_c, 1, 70, 127
2, 118120, Note_off_c, 1, 61, 0
2, 118160, Note_on_c, 1, 61, 127
2, 118520, Note_off_c, 1, 61, 0
2, 118520, Note_off_c, 1, 65, 0
2, 118520, Note_off_c, 1, 70, 0
2, 118560, Note_on_c, 1, 61, 127
2, 118560, Note_on_c, 1, 67, 127
2, 118560, Note_on_c, 1, 70, 127
2, 118560, Note_on_c, 1, 77, 127
2, 118920, Note_off_c, 1, 61, 0
2, 118920, Note_off_c, 1, 67, 0
2, 118920, Note_off_c, 1, 70, 0
2, 118920, Note_off_c, 1, 77, 0
2, 119000, Note_on_c, 1, 56, 127
2, 119000, Note_on_c, 1, 72, 127
2, 119400, Note_on_c, 1, 60, 127
2, 119400, Note_on_c, 1, 63, 127
2, 119400, Note_on_c, 1, 68, 127
2, 119400, Note_off_c, 1, 72, 0
2, 119800, Note_off_c, 1, 56, 0
2, 119800, Note_off_c, 1, 60, 0
2, 119800, Note_off_c, 1, 63, 0
2, 119800, Note_off_c, 1, 68, 0
2, 119800, Note_on_c, 1, 72, 127
2, 119800, Note_on_c, 1, 77, 127
2, 119800, Note_on_c, 1, 89, 127
2, 119800, Note_on_c, 1, 93, 127
2, 120000, Note_off_c, 1, 72, 0
2, 120000, Note_off_c, 1, 77, 0
2, 120000, Note_off_c, 1, 89, 0
2, 120000, Note_off_c, 1, 93, 0
2, 120040, End_track
3, 0, Start_track
3, 0, Title_t, "MIDI"
3, 1536, End_track
0, 0, End_of_file
