0, 0, Header, 1, 3, 192
1, 0, Start_track
1, 0, Time_signature, 4, 2, 24, 8
1, 0, Tempo, 500000
1, 120040, End_track
2, 0, Start_track
2, 0, Text_t, "random instrument: random person i dunno whatev"
2, 0, Title_t, "Track 1"
2, 0, Note_on_c, 1, 40, 127
2, 0, Note_on_c, 1, 48, 127
2, 0, Note_on_c, 1, 56, 127
2, 0, Note_on_c, 1, 60, 127
2, 280, Note_off_c, 1, 40, 0
2, 280, Note_off_c, 1, 48, 0
2, 280, Note_off_c, 1, 56, 0
2, 280, Note_off_c, 1, 60, 0
2, 360, Note_on_c, 1, 57, 127
2, 360, Note_on_c, 1, 62, 127
2, 360, Note_on_c, 1, 65, 127
2, 360, Note_on_c, 1, 69, 127
2, 360, Note_on_c, 1, 88, 127
2, 720, Note_off_c, 1, 57, 0
2, 720, Note_on_c, 1, 59, 127
2, 720, Note_on_c, 1, 67, 127
2, 720, Note_off_c, 1, 69, 0
2, 720, Note_off_c, 1, 88, 0
2, 760, Note_on_c, 1, 52, 127
2, 760, Note_on_c, 1, 56, 127
2, 760, Note_off_c, 1, 59, 0
2, 760, Note_off_c, 1, 65, 0
2, 760, Note_off_c, 1, 67, 0
2, 760, Note_on_c, 1, 78, 127
2, 800, Note_on_c, 1, 50, 127
2, 800, Note_off_c, 1, 52, 0
2, 800, Note_off_c, 1, 56, 0
2, 800, Note_on_c, 1, 71, 127
2, 800, Note_on_c, 1, 74, 127
2, 800, Note_off_c, 1, 78, 0
2, 800, Note_on_c, 1, 83, 127
2, 840, Note_off_c, 1, 50, 0
2, 840, Note_on_c, 1, 54, 127
2, 840, Note_on_c, 1, 58, 127
2, 840, Note_off_c, 1, 62, 0
2, 840, Note_on_c, 1, 64, 127
2, 840, Note_on_c, 1, 66, 127
2, 840, Note_off_c, 1, 71, 0
2, 840, Note_off_c, 1, 74, 0
2, 840, Note_on_c, 1, 82, 127
2, 840, Note_off_c, 1, 83, 0
2, 880, Note_on_c, 1, 34, 127
2, 880, Note_off_c, 1, 54, 0
2, 880, Note_off_c, 1, 58, 0
2, 880, Note_on_c, 1, 60, 127
2, 880, Note_on_c, 1, 62, 127
2, 880, Note_off_c, 1, 64, 0
2, 880, Note_off_c, 1, 66, 0
2, 880, Note_on_c, 1, 67, 127
2, 880, Note_off_c, 1, 82, 0
2, 920, Note_off_c, 1, 34, 0
2, 920, Note_off_c, 1, 60, 0
2, 920, Note_off_c, 1, 62, 0
2, 920, Note_off_c, 1, 67, 0
2, 920, Note_on_c, 1, 76, 127
2, 920, Note_on_c, 1, 77, 127
2, 960, Note_on_c, 1, 40, 127
2, 960, Note_on_c, 1, 52, 127
2, 960, Note_on_c, 1, 59, 127
2, 960, Note_on_c, 1, 62, 127
2, 960, Note_on_c, 1, 68, 127
2, 960, Note_off_c, 1, 76, 0
2, 960, Note_off_c, 1, 77, 0
2, 960, Note_on_c, 1, 83, 127
2, 960, Note_on_c, 1, 86, 127
2, 1160, Note_on_c, 1, 80, 127
2, 1160, Note_off_c, 1, 86, 0
2, 1280, Note_off_c, 1, 80, 0
2, 1280, Note_on_c, 1, 86, 127
2, 1320, Note_on_c, 1, 80, 127
2, 1320, Note_off_c, 1, 86, 0
2, 1680, Note_off_c, 1, 80, 0
2, 1680, Note_off_c, 1, 83, 0
2, 1720, Note_on_c, 1, 77, 127
2, 1720, Note_on_c, 1, 80, 127
2, 1760, Note_off_c, 1, 77, 0
2, 1760, Note_off_c, 1, 80, 0
2, 1760, Note_on_c, 1, 83, 127
2, 1760, Note_on_c, 1, 86, 127
2, 1800, Note_on_c, 1, 80, 127
2, 1800, Note_off_c, 1, 86, 0
2, 1840, Note_on_c, 1, 77, 127
2, 1840, Note_off_c, 1, 83, 0
2, 2040, Note_off_c, 1, 77, 0
2, 2040, Note_off_c, 1, 80, 0
2, 2080, Note_on_c, 1, 77, 127
2, 2080, Note_on_c, 1, 80, 127
2, 2200, Note_off_c, 1, 77, 0
2, 2200, Note_off_c, 1, 80, 0
2, 2240, Note_on_c, 1, 74, 127
2, 2240, Note_on_c, 1, 77, 127
2, 2320, Note_off_c, 1, 40, 0
2, 2320, Note_off_c, 1, 52, 0
2, 2320, Note_off_c, 1, 59, 0
2, 2320, Note_off_c, 1, 62, 0
2, 2320, Note_off_c, 1, 68, 0
2, 2320, Note_off_c, 1, 74, 0
2, 2320, Note_off_c, 1, 77, 0
2, 2360, Note_on_c, 1, 40, 127
2, 2360, Note_on_c, 1, 52, 127
2, 2360, Note_on_c, 1, 59, 127
2, 2360, Note_on_c, 1, 62, 127
2, 2360, Note_on_c, 1, 68, 127
2, 2360, Note_on_c, 1, 74, 127
2, 2360, Note_on_c, 1, 77, 127
2, 3040, Note_off_c, 1, 40, 0
2, 3040, Note_off_c, 1, 52, 0
2, 3040, Note_off_c, 1, 59, 0
2, 3040, Note_off_c, 1, 62, 0
2, 3040, Note_off_c, 1, 68, 0
2, 3040, Note_off_c, 1, 74, 0
2, 3040, Note_off_c, 1, 77, 0
2, 3080, Note_on_c, 1, 57, 127
2, 3080, Note_on_c, 1, 64, 127
2, 3080, Note_on_c, 1, 67, 127
2, 3080, Note_on_c, 1, 69, 127
2, 3080, Note_on_c, 1, 73, 127
2, 4080, Note_off_c, 1, 69, 0
2, 4080, Note_off_c, 1, 73, 0
2, 4120, Note_on_c, 1, 69, 127
2, 4120, Note_on_c, 1, 73, 127
2, 4520, Note_off_c, 1, 57, 0
2, 4520, Note_off_c, 1, 64, 0
2, 4520, Note_off_c, 1, 67, 0
2, 4520, Note_off_c, 1, 69, 0
2, 4520, Note_off_c, 1, 73, 0
2, 4560, Note_on_c, 1, 57, 127
2, 4560, Note_on_c, 1, 64, 127
2, 4560, Note_on_c, 1, 67, 127
2, 4560, Note_on_c, 1, 69, 127
2, 4560, Note_on_c, 1, 73, 127
2, 4680, Note_off_c, 1, 57, 0
2, 4680, Note_off_c, 1, 64, 0
2, 4680, Note_off_c, 1, 73, 0
2, 4720, Note_on_c, 1, 57, 127
2, 4720, Note_on_c, 1, 64, 127
2, 6720, Note_off_c, 1, 57, 0
2, 6720, Note_off_c, 1, 64, 0
2, 6720, Note_off_c, 1, 67, 0
2, 6720, Note_off_c, 1, 69, 0
2, 6760, Note_on_c, 1, 62, 127
2, 6760, Note_on_c, 1, 66, 127
2, 6760, Note_on_c, 1, 69, 127
2, 6760, Note_on_c, 1, 74, 127
2, 7040, Note_off_c, 1, 62, 0
2, 7040, Note_off_c, 1, 66, 0
2, 7040, Note_off_c, 1, 69, 0
2, 7040, Note_off_c, 1, 74, 0
2, 7080, Note_on_c, 1, 62, 127
2, 7080, Note_on_c, 1, 66, 127
2, 7080, Note_on_c, 1, 69, 127
2, 7080, Note_on_c, 1, 74, 127
2, 8400, Note_on_c, 1, 48, 127
2, 8400, Note_off_c, 1, 62, 0
2, 8400, Note_on_c, 1, 64, 127
2, 8400, Note_off_c, 1, 66, 0
2, 8400, Note_on_c, 1, 73, 127
2, 8400, Note_off_c, 1, 74, 0
2, 8440, Note_off_c, 1, 48, 0
2, 8440, Note_off_c, 1, 64, 0
2, 8440, Note_off_c, 1, 69, 0
2, 8440, Note_off_c, 1, 73, 0
2, 8440, Note_on_c, 1, 81, 127
2, 8440, Note_on_c, 1, 84, 127
2, 8440, Note_on_c, 1, 88, 127
2, 8480, Note_off_c, 1, 81, 0
2, 8480, Note_off_c, 1, 84, 0
2, 8480, Note_off_c, 1, 88, 0
2, 8520, Note_on_c, 1, 43, 127
2, 8520, Note_on_c, 1, 67, 127
2, 8520, Note_on_c, 1, 71, 127
2, 8520, Note_on_c, 1, 74, 127
2, 9240, Note_off_c, 1, 43, 0
2, 9280, Note_off_c, 1, 67, 0
2, 9280, Note_off_c, 1, 71, 0
2, 9280, Note_off_c, 1, 74, 0
2, 9320, Note_on_c, 1, 52, 127
2, 9320, Note_on_c, 1, 67, 127
2, 9320, Note_on_c, 1, 71, 127
2, 9600, Note_off_c, 1, 52, 0
2, 9600, Note_off_c, 1, 67, 0
2, 9600, Note_off_c, 1, 71, 0
2, 9640, Note_on_c, 1, 52, 127
2, 9640, Note_on_c, 1, 67, 127
2, 9640, Note_on_c, 1, 71, 127
2, 10120, Note_off_c, 1, 52, 0
2, 10120, Note_off_c, 1, 67, 0
2, 10120, Note_off_c, 1, 71, 0
2, 10160, Note_on_c, 1, 55, 127
2, 10160, Note_on_c, 1, 61, 127
2, 10160, Note_on_c, 1, 67, 127
2, 10160, Note_on_c, 1, 69, 127
2, 10720, Note_off_c, 1, 55, 0
2, 10720, Note_off_c, 1, 61, 0
2, 10720, Note_off_c, 1, 67, 0
2, 10720, Note_off_c, 1, 69, 0
2, 10760, Note_on_c, 1, 52, 127
2, 10760, Note_on_c, 1, 57, 127
2, 10760, Note_on_c, 1, 69, 127
2, 11360, Note_off_c, 1, 52, 0
2, 11360, Note_off_c, 1, 57, 0
2, 11360, Note_off_c, 1, 69, 0
2, 11400, Note_on_c, 1, 57, 127
2, 11400, Note_on_c, 1, 60, 127
2, 11400, Note_on_c, 1, 69, 127
2, 11400, Note_on_c, 1, 72, 127
2, 11800, Note_off_c, 1, 57, 0
2, 11840, Note_off_c, 1, 60, 0
2, 11840, Note_off_c, 1, 69, 0
2, 11840, Note_off_c, 1, 72, 0
2, 11880, Note_on_c, 1, 47, 127
2, 11880, Note_on_c, 1, 55, 127
2, 11880, Note_on_c, 1, 65, 127
2, 11880, Note_on_c, 1, 67, 127
2, 11880, Note_on_c, 1, 74, 127
2, 12240, Note_off_c, 1, 47, 0
2, 12240, Note_off_c, 1, 55, 0
2, 12240, Note_off_c, 1, 65, 0
2, 12240, Note_off_c, 1, 67, 0
2, 12240, Note_off_c, 1, 74, 0
2, 12280, Note_on_c, 1, 48, 127
2, 12280, Note_on_c, 1, 55, 127
2, 12280, Note_on_c, 1, 64, 127
2, 12280, Note_on_c, 1, 67, 127
2, 12280, Note_on_c, 1, 76, 127
2, 12840, Note_off_c, 1, 64, 0
2, 12840, Note_off_c, 1, 67, 0
2, 12840, Note_on_c, 1, 84, 127
2, 12880, Note_on_c, 1, 64, 127
2, 12880, Note_on_c, 1, 67, 127
2, 12880, Note_off_c, 1, 84, 0
2, 13080, Note_off_c, 1, 48, 0
2, 13080, Note_off_c, 1, 55, 0
2, 13080, Note_off_c, 1, 64, 0
2, 13080, Note_off_c, 1, 67, 0
2, 13080, Note_off_c, 1, 76, 0
2, 13120, Note_on_c, 1, 45, 127
2, 13120, Note_on_c, 1, 57, 127
2, 13120, Note_on_c, 1, 61, 127
2, 13120, Note_on_c, 1, 64, 127
2, 13120, Note_on_c, 1, 69, 127
2, 13840, Note_off_c, 1, 45, 0
2, 13840, Note_off_c, 1, 57, 0
2, 13840, Note_off_c, 1, 61, 0
2, 13840, Note_off_c, 1, 64, 0
2, 13840, Note_off_c, 1, 69, 0
2, 13880, Note_on_c, 1, 38, 127
2, 13880, Note_on_c, 1, 50, 127
2, 13880, Note_on_c, 1, 55, 127
2, 13880, Note_on_c, 1, 67, 127
2, 14040, Note_off_c, 1, 38, 0
2, 14040, Note_off_c, 1, 50, 0
2, 14040, Note_off_c, 1, 55, 0
2, 14040, Note_off_c, 1, 67, 0
2, 14080, Note_on_c, 1, 38, 127
2, 14080, Note_on_c, 1, 50, 127
2, 14080, Note_on_c, 1, 55, 127
2, 14080, Note_on_c, 1, 67, 127
2, 14680, Note_off_c, 1, 38, 0
2, 14680, Note_off_c, 1, 50, 0
2, 14720, Note_on_c, 1, 38, 127
2, 14720, Note_on_c, 1, 50, 127
2, 15240, Note_off_c, 1, 38, 0
2, 15240, Note_off_c, 1, 50, 0
2, 15240, Note_off_c, 1, 55, 0
2, 15240, Note_off_c, 1, 67, 0
2, 16080, Note_on_c, 1, 57, 127
2, 16080, Note_on_c, 1, 60, 127
2, 16080, Note_on_c, 1, 63, 127
2, 16080, Note_on_c, 1, 72, 127
2, 16080, Note_on_c, 1, 78, 127
2, 16080, Note_on_c, 1, 83, 127
2, 16160, Note_off_c, 1, 63, 0
2, 16160, Note_off_c, 1, 72, 0
2, 16160, Note_off_c, 1, 78, 0
2, 16160, Note_off_c, 1, 83, 0
2, 16200, Note_on_c, 1, 88, 127
2, 16240, Note_on_c, 1, 76, 127
2, 16240, Note_off_c, 1, 88, 0
2, 16280, Note_off_c, 1, 76, 0
2, 16320, Note_on_c, 1, 74, 127
2, 16440, Note_off_c, 1, 74, 0
2, 16480, Note_off_c, 1, 57, 0
2, 16480, Note_off_c, 1, 60, 0
2, 16520, Note_on_c, 1, 57, 127
2, 16520, Note_on_c, 1, 60, 127
2, 16520, Note_on_c, 1, 74, 127
2, 16880, Note_off_c, 1, 74, 0
2, 16920, Note_on_c, 1, 74, 127
2, 17240, Note_off_c, 1, 60, 0
2, 17280, Note_on_c, 1, 64, 127
2, 17280, Note_off_c, 1, 74, 0
2, 17280, Note_on_c, 1, 76, 127
2, 18040, Note_off_c, 1, 57, 0
2, 18040, Note_off_c, 1, 64, 0
2, 18040, Note_off_c, 1, 76, 0
2, 18080, Note_on_c, 1, 52, 127
2, 18080, Note_on_c, 1, 55, 127
2, 18080, Note_on_c, 1, 76, 127
2, 18080, Note_on_c, 1, 79, 127
2, 18840, Note_off_c, 1, 52, 0
2, 18840, Note_off_c, 1, 55, 0
2, 18840, Note_off_c, 1, 76, 0
2, 18840, Note_off_c, 1, 79, 0
2, 18880, Note_on_c, 1, 52, 127
2, 18920, Note_on_c, 1, 55, 127
2, 18920, Note_on_c, 1, 76, 127
2, 18920, Note_on_c, 1, 79, 127
2, 19080, Note_off_c, 1, 76, 0
2, 19080, Note_off_c, 1, 79, 0
2, 19120, Note_on_c, 1, 79, 127
2, 19280, Note_off_c, 1, 79, 0
2, 19320, Note_off_c, 1, 55, 0
2, 19320, Note_on_c, 1, 58, 127
2, 19320, Note_on_c, 1, 72, 127
2, 19480, Note_off_c, 1, 58, 0
2, 19520, Note_on_c, 1, 60, 127
2, 19680, Note_off_c, 1, 52, 0
2, 19680, Note_off_c, 1, 60, 0
2, 19680, Note_off_c, 1, 72, 0
2, 19720, Note_on_c, 1, 52, 127
2, 19720, Note_on_c, 1, 69, 127
2, 19720, Note_on_c, 1, 72, 127
2, 20080, Note_off_c, 1, 69, 0
2, 20080, Note_off_c, 1, 72, 0
2, 20120, Note_on_c, 1, 67, 127
2, 20120, Note_on_c, 1, 71, 127
2, 20480, Note_off_c, 1, 52, 0
2, 20480, Note_off_c, 1, 67, 0
2, 20480, Note_off_c, 1, 71, 0
2, 20520, Note_on_c, 1, 57, 127
2, 20520, Note_on_c, 1, 66, 127
2, 20520, Note_on_c, 1, 74, 127
2, 21040, Note_off_c, 1, 57, 0
2, 21040, Note_off_c, 1, 66, 0
2, 21040, Note_off_c, 1, 74, 0
2, 21080, Note_on_c, 1, 57, 127
2, 21080, Note_on_c, 1, 66, 127
2, 21080, Note_on_c, 1, 74, 127
2, 21280, Note_off_c, 1, 66, 0
2, 21320, Note_on_c, 1, 72, 127
2, 21480, Note_off_c, 1, 74, 0
2, 21520, Note_on_c, 1, 66, 127
2, 21880, Note_off_c, 1, 66, 0
2, 21920, Note_on_c, 1, 65, 127
2, 22080, Note_off_c, 1, 65, 0
2, 22080, Note_off_c, 1, 72, 0
2, 22120, Note_on_c, 1, 66, 127
2, 22120, Note_on_c, 1, 72, 127
2, 23080, Note_off_c, 1, 66, 0
2, 23120, Note_off_c, 1, 57, 0
2, 23120, Note_off_c, 1, 72, 0
2, 23160, Note_on_c, 1, 57, 127
2, 23160, Note_on_c, 1, 64, 127
2, 23160, Note_on_c, 1, 72, 127
2, 25360, Note_off_c, 1, 57, 0
2, 25360, Note_off_c, 1, 64, 0
2, 25360, Note_off_c, 1, 72, 0
2, 25400, Note_on_c, 1, 57, 127
2, 25400, Note_on_c, 1, 64, 127
2, 25400, Note_on_c, 1, 72, 127
2, 25720, Note_off_c, 1, 64, 0
2, 25760, Note_on_c, 1, 64, 127
2, 26520, Note_off_c, 1, 57, 0
2, 26520, Note_off_c, 1, 64, 0
2, 26520, Note_off_c, 1, 72, 0
2, 26560, Note_on_c, 1, 64, 127
2, 26560, Note_on_c, 1, 66, 127
2, 27320, Note_off_c, 1, 64, 0
2, 27320, Note_off_c, 1, 66, 0
2, 27360, Note_on_c, 1, 43, 127
2, 27360, Note_on_c, 1, 72, 127
2, 27760, Note_off_c, 1, 43, 0
2, 27760, Note_off_c, 1, 72, 0
2, 27800, Note_on_c, 1, 43, 127
2, 27800, Note_on_c, 1, 72, 127
2, 28520, Note_off_c, 1, 43, 0
2, 28560, Note_on_c, 1, 43, 127
2, 28560, Note_on_c, 1, 63, 127
2, 29280, Note_off_c, 1, 43, 0
2, 30120, Note_off_c, 1, 63, 0
2, 30120, Note_off_c, 1, 72, 0
2, 30160, Note_on_c, 1, 63, 127
2, 30160, Note_on_c, 1, 72, 127
2, 30480, Note_off_c, 1, 63, 0
2, 30480, Note_off_c, 1, 72, 0
2, 30520, Note_on_c, 1, 67, 127
2, 30520, Note_on_c, 1, 71, 127
2, 31680, Note_off_c, 1, 67, 0
2, 31680, Note_off_c, 1, 71, 0
2, 31720, Note_on_c, 1, 55, 127
2, 31720, Note_on_c, 1, 67, 127
2, 31720, Note_on_c, 1, 71, 127
2, 32400, Note_off_c, 1, 55, 0
2, 32400, Note_off_c, 1, 67, 0
2, 32400, Note_off_c, 1, 71, 0
2, 32440, Note_on_c, 1, 55, 127
2, 32440, Note_on_c, 1, 67, 127
2, 32440, Note_on_c, 1, 71, 127
2, 33280, Note_off_c, 1, 55, 0
2, 33280, Note_off_c, 1, 67, 0
2, 33280, Note_off_c, 1, 71, 0
2, 33320, Note_on_c, 1, 59, 127
2, 33320, Note_on_c, 1, 67, 127
2, 33320, Note_on_c, 1, 74, 127
2, 34480, Note_off_c, 1, 59, 0
2, 34480, Note_off_c, 1, 67, 0
2, 34480, Note_off_c, 1, 74, 0
2, 34520, Note_on_c, 1, 59, 127
2, 34520, Note_on_c, 1, 67, 127
2, 34520, Note_on_c, 1, 74, 127
2, 34880, Note_off_c, 1, 74, 0
2, 34880, Note_on_c, 1, 75, 127
2, 35640, Note_off_c, 1, 67, 0
2, 35640, Note_off_c, 1, 75, 0
2, 35680, Note_on_c, 1, 67, 127
2, 36240, Note_off_c, 1, 59, 0
2, 36240, Note_off_c, 1, 67, 0
2, 36280, Note_on_c, 1, 62, 127
2, 36280, Note_on_c, 1, 66, 127
2, 36280, Note_on_c, 1, 78, 127
2, 36680, Note_off_c, 1, 62, 0
2, 36680, Note_off_c, 1, 66, 0
2, 36680, Note_off_c, 1, 78, 0
2, 36720, Note_on_c, 1, 62, 127
2, 36720, Note_on_c, 1, 66, 127
2, 36720, Note_on_c, 1, 78, 127
2, 36880, Note_off_c, 1, 78, 0
2, 36920, Note_on_c, 1, 74, 127
2, 38840, Note_off_c, 1, 62, 0
2, 38840, Note_off_c, 1, 66, 0
2, 38840, Note_off_c, 1, 74, 0
2, 38880, Note_on_c, 1, 62, 127
2, 38880, Note_on_c, 1, 66, 127
2, 38880, Note_on_c, 1, 74, 127
2, 40760, Note_off_c, 1, 66, 0
2, 41160, Note_off_c, 1, 62, 0
2, 41160, Note_off_c, 1, 74, 0
2, 41200, Note_on_c, 1, 62, 127
2, 41200, Note_on_c, 1, 74, 127
2, 43240, Note_off_c, 1, 62, 0
2, 43240, Note_off_c, 1, 74, 0
2, 43280, Note_on_c, 1, 63, 127
2, 43280, Note_on_c, 1, 75, 127
2, 43680, Note_off_c, 1, 63, 0
2, 43680, Note_off_c, 1, 75, 0
2, 43720, Note_on_c, 1, 63, 127
2, 43720, Note_on_c, 1, 75, 127
2, 44640, Note_off_c, 1, 63, 0
2, 44640, Note_off_c, 1, 75, 0
2, 44680, Note_on_c, 1, 62, 127
2, 44680, Note_on_c, 1, 74, 127
2, 45200, Note_off_c, 1, 62, 0
2, 45200, Note_on_c, 1, 63, 127
2, 45200, Note_off_c, 1, 74, 0
2, 45200, Note_on_c, 1, 75, 127
2, 45240, Note_off_c, 1, 63, 0
2, 45240, Note_off_c, 1, 75, 0
2, 45280, Note_on_c, 1, 64, 127
2, 45280, Note_on_c, 1, 76, 127
2, 45800, Note_off_c, 1, 64, 0
2, 45800, Note_off_c, 1, 76, 0
2, 45840, Note_on_c, 1, 65, 127
2, 45840, Note_on_c, 1, 77, 127
2, 46040, Note_off_c, 1, 65, 0
2, 46040, Note_off_c, 1, 77, 0
2, 46080, Note_on_c, 1, 65, 127
2, 46080, Note_on_c, 1, 77, 127
2, 46400, Note_off_c, 1, 65, 0
2, 46400, Note_off_c, 1, 77, 0
2, 46440, Note_on_c, 1, 62, 127
2, 46440, Note_on_c, 1, 74, 127
2, 48160, Note_off_c, 1, 62, 0
2, 48160, Note_off_c, 1, 74, 0
2, 48200, Note_on_c, 1, 64, 127
2, 48200, Note_on_c, 1, 76, 127
2, 48400, Note_off_c, 1, 64, 0
2, 48400, Note_off_c, 1, 76, 0
2, 48440, Note_on_c, 1, 64, 127
2, 48440, Note_on_c, 1, 76, 127
2, 48760, Note_off_c, 1, 64, 0
2, 48760, Note_off_c, 1, 76, 0
2, 48800, Note_on_c, 1, 62, 127
2, 48800, Note_on_c, 1, 74, 127
2, 50800, Note_off_c, 1, 62, 0
2, 50800, Note_off_c, 1, 74, 0
2, 50840, Note_on_c, 1, 62, 127
2, 50840, Note_on_c, 1, 74, 127
2, 51160, Note_off_c, 1, 62, 0
2, 51160, Note_off_c, 1, 74, 0
2, 51200, Note_on_c, 1, 60, 127
2, 51200, Note_on_c, 1, 72, 127
2, 51720, Note_off_c, 1, 60, 0
2, 51720, Note_off_c, 1, 72, 0
2, 51760, Note_on_c, 1, 45, 127
2, 51760, Note_on_c, 1, 69, 127
2, 52320, Note_off_c, 1, 45, 0
2, 52360, Note_on_c, 1, 52, 127
2, 52880, Note_off_c, 1, 52, 0
2, 52880, Note_off_c, 1, 69, 0
2, 52920, Note_on_c, 1, 52, 127
2, 52920, Note_on_c, 1, 69, 127
2, 52960, Note_off_c, 1, 52, 0
2, 53520, Note_off_c, 1, 69, 0
2, 53560, Note_on_c, 1, 79, 127
2, 54680, Note_off_c, 1, 79, 0
2, 54720, Note_on_c, 1, 77, 127
2, 54920, Note_off_c, 1, 77, 0
2, 54960, Note_on_c, 1, 77, 127
2, 55320, Note_off_c, 1, 77, 0
2, 55360, Note_on_c, 1, 76, 127
2, 55880, Note_off_c, 1, 76, 0
2, 55920, Note_on_c, 1, 48, 127
2, 56840, Note_off_c, 1, 48, 0
2, 56880, Note_on_c, 1, 57, 127
2, 57040, Note_off_c, 1, 57, 0
2, 57040, Note_on_c, 1, 58, 127
2, 57080, Note_off_c, 1, 58, 0
2, 57120, Note_on_c, 1, 58, 127
2, 57840, Note_on_c, 1, 57, 127
2, 57840, Note_off_c, 1, 58, 0
2, 59040, Note_on_c, 1, 55, 127
2, 59040, Note_off_c, 1, 57, 0
2, 59160, Note_off_c, 1, 55, 0
2, 59200, Note_on_c, 1, 55, 127
2, 61480, Note_off_c, 1, 55, 0
2, 61560, Note_on_c, 1, 55, 127
2, 62560, Note_on_c, 1, 48, 127
2, 62560, Note_off_c, 1, 55, 0
2, 63160, Note_on_c, 1, 50, 127
2, 63880, Note_off_c, 1, 48, 0
2, 63880, Note_off_c, 1, 50, 0
2, 63920, Note_on_c, 1, 48, 127
2, 63920, Note_on_c, 1, 50, 127
2, 64000, Note_off_c, 1, 50, 0
2, 64240, Note_off_c, 1, 48, 0
2, 66160, Note_on_c, 1, 55, 127
2, 66160, Note_on_c, 1, 59, 127
2, 66160, Note_on_c, 1, 67, 127
2, 66160, Note_on_c, 1, 76, 127
2, 66720, Note_off_c, 1, 55, 0
2, 66720, Note_off_c, 1, 59, 0
2, 66720, Note_off_c, 1, 67, 0
2, 66720, Note_off_c, 1, 76, 0
2, 66760, Note_on_c, 1, 74, 127
2, 67320, Note_off_c, 1, 74, 0
2, 67360, Note_on_c, 1, 59, 127
2, 67360, Note_on_c, 1, 62, 127
2, 67360, Note_on_c, 1, 67, 127
2, 67880, Note_off_c, 1, 59, 0
2, 67880, Note_off_c, 1, 62, 0
2, 67880, Note_off_c, 1, 67, 0
2, 67880, Note_on_c, 1, 69, 127
2, 68320, Note_off_c, 1, 69, 0
2, 68360, Note_on_c, 1, 69, 127
2, 69120, Note_on_c, 1, 71, 127
2, 69720, Note_on_c, 1, 67, 127
2, 69720, Note_off_c, 1, 71, 0
2, 69720, Note_on_c, 1, 72, 127
2, 70200, Note_off_c, 1, 67, 0
2, 70200, Note_off_c, 1, 69, 0
2, 70200, Note_off_c, 1, 72, 0
2, 70280, Note_on_c, 1, 76, 127
2, 70840, Note_off_c, 1, 76, 0
2, 70920, Note_on_c, 1, 50, 127
2, 70920, Note_on_c, 1, 60, 127
2, 70920, Note_on_c, 1, 66, 127
2, 70920, Note_on_c, 1, 71, 127
2, 71480, Note_off_c, 1, 71, 0
2, 71520, Note_on_c, 1, 69, 127
2, 72040, Note_off_c, 1, 50, 0
2, 72040, Note_off_c, 1, 60, 0
2, 72040, Note_off_c, 1, 66, 0
2, 72080, Note_on_c, 1, 54, 127
2, 72080, Note_on_c, 1, 62, 127
2, 72600, Note_off_c, 1, 69, 0
2, 72640, Note_on_c, 1, 69, 127
2, 73200, Note_off_c, 1, 54, 0
2, 73200, Note_off_c, 1, 62, 0
2, 73240, Note_off_c, 1, 69, 0
2, 73280, Note_on_c, 1, 55, 127
2, 73280, Note_on_c, 1, 59, 127
2, 73280, Note_on_c, 1, 72, 127
2, 73320, Note_off_c, 1, 72, 0
2, 73320, Note_on_c, 1, 74, 127
2, 74400, Note_off_c, 1, 55, 0
2, 74400, Note_off_c, 1, 59, 0
2, 74400, Note_off_c, 1, 74, 0
2, 74440, Note_on_c, 1, 67, 127
2, 75560, Note_off_c, 1, 67, 0
2, 75600, Note_on_c, 1, 67, 127
2, 76040, Note_on_c, 1, 64, 127
2, 76040, Note_off_c, 1, 67, 0
2, 76200, Note_off_c, 1, 64, 0
2, 76200, Note_on_c, 1, 65, 127
2, 77000, Note_off_c, 1, 65, 0
2, 77600, Note_on_c, 1, 67, 127
2, 77800, Note_off_c, 1, 67, 0
2, 77840, Note_on_c, 1, 67, 127
2, 78160, Note_off_c, 1, 67, 0
2, 78240, Note_on_c, 1, 48, 127
2, 78960, Note_off_c, 1, 48, 0
2, 79000, Note_on_c, 1, 50, 127
2, 79520, Note_off_c, 1, 50, 0
2, 79560, Note_on_c, 1, 48, 127
2, 80040, Note_off_c, 1, 48, 0
2, 80080, Note_on_c, 1, 48, 127
2, 80520, Note_off_c, 1, 48, 0
2, 80560, Note_on_c, 1, 43, 127
2, 81080, Note_off_c, 1, 43, 0
2, 81120, Note_on_c, 1, 41, 127
2, 81480, Note_off_c, 1, 41, 0
2, 81520, Note_on_c, 1, 44, 127
2, 81840, Note_off_c, 1, 44, 0
2, 81880, Note_on_c, 1, 43, 127
2, 82440, Note_off_c, 1, 43, 0
2, 82480, Note_on_c, 1, 43, 127
2, 82840, Note_off_c, 1, 43, 0
2, 82880, Note_on_c, 1, 36, 127
2, 84800, Note_off_c, 1, 36, 0
2, 84840, Note_on_c, 1, 36, 127
2, 87160, Note_off_c, 1, 36, 0
2, 87200, Note_on_c, 1, 36, 127
2, 89360, Note_off_c, 1, 36, 0
2, 89400, Note_on_c, 1, 36, 127
2, 91320, Note_off_c, 1, 36, 0
2, 91760, Note_on_c, 1, 36, 127
2, 93800, Note_off_c, 1, 36, 0
2, 93840, Note_on_c, 1, 36, 127
2, 96160, Note_off_c, 1, 36, 0
2, 96200, Note_on_c, 1, 36, 127
2, 98560, Note_on_c, 1, 79, 127
2, 98640, Note_off_c, 1, 36, 0
2, 98640, Note_off_c, 1, 79, 0
2, 98680, Note_on_c, 1, 36, 127
2, 98680, Note_on_c, 1, 79, 127
2, 99760, Note_off_c, 1, 79, 0
2, 99800, Note_on_c, 1, 77, 127
2, 99960, Note_off_c, 1, 77, 0
2, 100000, Note_on_c, 1, 77, 127
2, 100360, Note_off_c, 1, 77, 0
2, 100400, Note_on_c, 1, 79, 127
2, 100760, Note_off_c, 1, 79, 0
2, 100800, Note_off_c, 1, 36, 0
2, 100840, Note_on_c, 1, 36, 127
2, 100840, Note_on_c, 1, 79, 127
2, 101160, Note_off_c, 1, 79, 0
2, 101200, Note_on_c, 1, 76, 127
2, 101960, Note_off_c, 1, 76, 0
2, 102360, Note_off_c, 1, 36, 0
2, 102400, Note_on_c, 1, 36, 127
2, 103120, Note_off_c, 1, 36, 0
2, 103160, Note_on_c, 1, 36, 127
2, 105560, Note_off_c, 1, 36, 0
2, 105600, Note_on_c, 1, 36, 127
2, 108080, Note_off_c, 1, 36, 0
2, 108120, Note_on_c, 1, 36, 127
2, 109800, Note_off_c, 1, 36, 0
2, 115200, Note_on_c, 1, 70, 127
2, 115200, Note_on_c, 1, 74, 127
2, 115200, Note_on_c, 1, 79, 127
2, 115200, Note_on_c, 1, 82, 127
2, 115200, Note_on_c, 1, 86, 127
2, 115200, Note_on_c, 1, 91, 127
2, 115440, Note_off_c, 1, 70, 0
2, 115440, Note_off_c, 1, 74, 0
2, 115440, Note_off_c, 1, 79, 0
2, 115440, Note_off_c, 1, 82, 0
2, 115440, Note_off_c, 1, 86, 0
2, 115440, Note_off_c, 1, 91, 0
2, 115480, Note_on_c, 1, 70, 127
2, 115480, Note_on_c, 1, 74, 127
2, 115480, Note_on_c, 1, 79, 127
2, 115480, Note_on_c, 1, 82, 127
2, 115480, Note_on_c, 1, 86, 127
2, 115480, Note_on_c, 1, 91, 127
2, 115560, Note_on_c, 1, 69, 127
2, 115560, Note_off_c, 1, 70, 0
2, 115560, Note_off_c, 1, 74, 0
2, 115560, Note_off_c, 1, 79, 0
2, 115560, Note_on_c, 1, 81, 127
2, 115560, Note_off_c, 1, 82, 0
2, 115560, Note_off_c, 1, 86, 0
2, 115560, Note_off_c, 1, 91, 0
2, 118200, Note_off_c, 1, 69, 0
2, 118200, Note_off_c, 1, 81, 0
2, 118240, Note_on_c, 1, 69, 127
2, 118240, Note_on_c, 1, 81, 127
2, 119080, Note_off_c, 1, 69, 0
2, 119080, Note_off_c, 1, 81, 0
2, 119120, Note_on_c, 1, 62, 127
2, 119120, Note_on_c, 1, 74, 127
2, 120000, Note_off_c, 1, 62, 0
2, 120000, Note_off_c, 1, 74, 0
2, 120040, End_track
3, 0, Start_track
3, 0, Title_t, "MIDI"
3, 1536, End_track
0, 0, End_of_file
