0, 0, Header, 1, 3, 192
1, 0, Start_track
1, 0, Time_signature, 4, 2, 24, 8
1, 0, Tempo, 500000
1, 120040, End_track
2, 0, Start_track
2, 0, Text_t, "random instrument: random person i dunno whatev"
2, 0, Title_t, "Track 1"
2, 0, Note_on_c, 1, 40, 127
2, 0, Note_on_c, 1, 48, 127
2, 0, Note_on_c, 1, 56, 127
2, 0, Note_on_c, 1, 60, 127
2, 440, Note_off_c, 1, 40, 0
2, 440, Note_off_c, 1, 48, 0
2, 440, Note_off_c, 1, 56, 0
2, 440, Note_off_c, 1, 60, 0
2, 480, Note_on_c, 1, 40, 127
2, 480, Note_on_c, 1, 48, 127
2, 480, Note_on_c, 1, 56, 127
2, 480, Note_on_c, 1, 60, 127
2, 520, Note_off_c, 1, 40, 0
2, 520, Note_off_c, 1, 48, 0
2, 520, Note_off_c, 1, 56, 0
2, 520, Note_off_c, 1, 60, 0
2, 560, Note_on_c, 1, 79, 127
2, 2000, Note_off_c, 1, 79, 0
2, 2040, Note_on_c, 1, 78, 127
2, 2280, Note_off_c, 1, 78, 0
2, 2320, Note_on_c, 1, 79, 127
2, 2480, Note_off_c, 1, 79, 0
2, 2520, Note_on_c, 1, 79, 127
2, 3920, Note_off_c, 1, 79, 0
2, 3960, Note_on_c, 1, 80, 127
2, 4720, Note_off_c, 1, 80, 0
2, 4760, Note_on_c, 1, 80, 127
2, 4920, Note_off_c, 1, 80, 0
2, 4960, Note_on_c, 1, 78, 127
2, 5640, Note_off_c, 1, 78, 0
2, 5680, Note_on_c, 1, 79, 127
2, 6040, Note_off_c, 1, 79, 0
2, 6080, Note_on_c, 1, 81, 127
2, 6760, Note_off_c, 1, 81, 0
2, 6800, Note_on_c, 1, 79, 127
2, 6920, Note_off_c, 1, 79, 0
2, 6960, Note_on_c, 1, 79, 127
2, 7200, Note_off_c, 1, 79, 0
2, 7240, Note_on_c, 1, 92, 127
2, 7400, Note_on_c, 1, 80, 127
2, 7400, Note_off_c, 1, 92, 0
2, 7440, Note_off_c, 1, 80, 0
2, 7440, Note_on_c, 1, 92, 127
2, 7760, Note_off_c, 1, 92, 0
2, 7800, Note_on_c, 1, 91, 127
2, 8160, Note_off_c, 1, 91, 0
2, 13400, Note_on_c, 1, 37, 127
2, 13400, Note_on_c, 1, 49, 127
2, 15240, Note_off_c, 1, 37, 0
2, 15240, Note_off_c, 1, 49, 0
2, 18240, Note_on_c, 1, 40, 127
2, 18240, Note_on_c, 1, 52, 127
2, 18240, Note_on_c, 1, 64, 127
2, 22560, Note_off_c, 1, 40, 0
2, 22560, Note_off_c, 1, 52, 0
2, 22560, Note_off_c, 1, 64, 0
2, 23560, Note_on_c, 1, 39, 127
2, 23560, Note_on_c, 1, 51, 127
2, 23560, Note_on_c, 1, 63, 127
2, 26160, Note_off_c, 1, 39, 0
2, 26160, Note_off_c, 1, 51, 0
2, 26160, Note_off_c, 1, 63, 0
2, 26200, Note_on_c, 1, 39, 127
2, 26200, Note_on_c, 1, 51, 127
2, 26200, Note_on_c, 1, 63, 127
2, 30680, Note_off_c, 1, 39, 0
2, 30680, Note_on_c, 1, 41, 127
2, 30680, Note_off_c, 1, 51, 0
2, 30680, Note_on_c, 1, 53, 127
2, 30680, Note_off_c, 1, 63, 0
2, 30680, Note_on_c, 1, 65, 127
2, 30720, Note_on_c, 1, 39, 127
2, 30720, Note_off_c, 1, 41, 0
2, 30720, Note_on_c, 1, 51, 127
2, 30720, Note_off_c, 1, 53, 0
2, 30720, Note_on_c, 1, 63, 127
2, 30720, Note_off_c, 1, 65, 0
2, 31600, Note_off_c, 1, 39, 0
2, 31600, Note_off_c, 1, 51, 0
2, 31600, Note_off_c, 1, 63, 0
2, 35640, Note_on_c, 1, 59, 127
2, 35880, Note_off_c, 1, 59, 0
2, 35920, Note_on_c, 1, 72, 127
2, 36240, Note_off_c, 1, 72, 0
2, 36280, Note_on_c, 1, 69, 127
2, 36520, Note_off_c, 1, 69, 0
2, 36560, Note_on_c, 1, 66, 127
2, 37080, Note_off_c, 1, 66, 0
2, 37120, Note_on_c, 1, 66, 127
2, 37400, Note_off_c, 1, 66, 0
2, 37440, Note_on_c, 1, 66, 127
2, 40360, Note_on_c, 1, 54, 127
2, 41160, Note_off_c, 1, 54, 0
2, 41160, Note_off_c, 1, 66, 0
2, 41200, Note_on_c, 1, 54, 127
2, 41200, Note_on_c, 1, 66, 127
2, 43240, Note_off_c, 1, 54, 0
2, 43240, Note_off_c, 1, 66, 0
2, 47680, Note_on_c, 1, 47, 127
2, 47680, Note_on_c, 1, 57, 127
2, 47680, Note_on_c, 1, 62, 127
2, 47680, Note_on_c, 1, 68, 127
2, 47680, Note_on_c, 1, 71, 127
2, 47800, Note_on_c, 1, 45, 127
2, 47800, Note_off_c, 1, 47, 0
2, 47800, Note_on_c, 1, 60, 127
2, 47800, Note_off_c, 1, 62, 0
2, 47800, Note_off_c, 1, 68, 0
2, 47800, Note_on_c, 1, 69, 127
2, 47800, Note_off_c, 1, 71, 0
2, 47800, Note_on_c, 1, 72, 127
2, 48440, Note_off_c, 1, 60, 0
2, 48440, Note_off_c, 1, 69, 0
2, 48440, Note_off_c, 1, 72, 0
2, 48800, Note_off_c, 1, 45, 0
2, 48800, Note_off_c, 1, 57, 0
2, 48880, Note_on_c, 1, 50, 127
2, 48880, Note_on_c, 1, 62, 127
2, 51080, Note_off_c, 1, 50, 0
2, 51160, Note_off_c, 1, 62, 0
2, 51360, Note_on_c, 1, 60, 127
2, 51360, Note_on_c, 1, 72, 127
2, 51720, Note_off_c, 1, 60, 0
2, 51720, Note_off_c, 1, 72, 0
2, 51760, Note_on_c, 1, 62, 127
2, 51760, Note_on_c, 1, 74, 127
2, 52480, Note_off_c, 1, 62, 0
2, 52480, Note_off_c, 1, 74, 0
2, 52520, Note_on_c, 1, 60, 127
2, 52520, Note_on_c, 1, 72, 127
2, 53240, Note_off_c, 1, 60, 0
2, 53240, Note_off_c, 1, 72, 0
2, 53280, Note_on_c, 1, 62, 127
2, 53280, Note_on_c, 1, 74, 127
2, 53720, Note_off_c, 1, 62, 0
2, 53720, Note_off_c, 1, 74, 0
2, 53760, Note_on_c, 1, 62, 127
2, 53760, Note_on_c, 1, 74, 127
2, 54080, Note_off_c, 1, 62, 0
2, 54080, Note_off_c, 1, 74, 0
2, 54120, Note_on_c, 1, 64, 127
2, 54120, Note_on_c, 1, 76, 127
2, 55240, Note_off_c, 1, 64, 0
2, 55240, Note_off_c, 1, 76, 0
2, 55280, Note_on_c, 1, 64, 127
2, 55280, Note_on_c, 1, 76, 127
2, 55640, Note_off_c, 1, 64, 0
2, 55640, Note_off_c, 1, 76, 0
2, 55680, Note_on_c, 1, 62, 127
2, 55680, Note_on_c, 1, 74, 127
2, 56160, Note_off_c, 1, 62, 0
2, 56160, Note_off_c, 1, 74, 0
2, 56200, Note_on_c, 1, 62, 127
2, 56200, Note_on_c, 1, 74, 127
2, 56480, Note_off_c, 1, 62, 0
2, 56480, Note_off_c, 1, 74, 0
2, 56520, Note_on_c, 1, 63, 127
2, 56520, Note_on_c, 1, 75, 127
2, 57240, Note_off_c, 1, 63, 0
2, 57240, Note_off_c, 1, 75, 0
2, 57280, Note_on_c, 1, 64, 127
2, 57280, Note_on_c, 1, 76, 127
2, 58440, Note_off_c, 1, 64, 0
2, 58440, Note_off_c, 1, 76, 0
2, 58520, Note_on_c, 1, 55, 127
2, 58520, Note_on_c, 1, 67, 127
2, 60400, Note_off_c, 1, 55, 0
2, 60400, Note_off_c, 1, 67, 0
2, 60440, Note_on_c, 1, 62, 127
2, 60440, Note_on_c, 1, 74, 127
2, 60800, Note_off_c, 1, 62, 0
2, 60800, Note_off_c, 1, 74, 0
2, 60880, Note_on_c, 1, 62, 127
2, 60880, Note_on_c, 1, 74, 127
2, 61640, Note_off_c, 1, 62, 0
2, 61640, Note_off_c, 1, 74, 0
2, 61680, Note_on_c, 1, 59, 127
2, 61680, Note_on_c, 1, 71, 127
2, 62840, Note_off_c, 1, 59, 0
2, 62840, Note_off_c, 1, 71, 0
2, 62920, Note_on_c, 1, 55, 127
2, 62920, Note_on_c, 1, 67, 127
2, 64000, Note_off_c, 1, 55, 0
2, 64000, Note_off_c, 1, 67, 0
2, 64440, Note_on_c, 1, 64, 127
2, 65040, Note_off_c, 1, 64, 0
2, 66160, Note_on_c, 1, 55, 127
2, 66160, Note_on_c, 1, 59, 127
2, 66160, Note_on_c, 1, 67, 127
2, 66160, Note_on_c, 1, 76, 127
2, 67120, Note_off_c, 1, 55, 0
2, 67120, Note_off_c, 1, 59, 0
2, 67120, Note_off_c, 1, 67, 0
2, 67120, Note_off_c, 1, 76, 0
2, 67200, Note_on_c, 1, 52, 127
2, 67400, Note_off_c, 1, 52, 0
2, 67440, Note_on_c, 1, 52, 127
2, 69000, Note_off_c, 1, 52, 0
2, 69040, Note_on_c, 1, 52, 127
2, 69760, Note_off_c, 1, 52, 0
2, 74720, Note_on_c, 1, 55, 127
2, 74720, Note_on_c, 1, 58, 127
2, 74720, Note_on_c, 1, 62, 127
2, 74720, Note_on_c, 1, 67, 127
2, 74720, Note_on_c, 1, 70, 127
2, 75440, Note_off_c, 1, 55, 0
2, 75440, Note_off_c, 1, 58, 0
2, 75440, Note_off_c, 1, 62, 0
2, 75440, Note_off_c, 1, 67, 0
2, 75440, Note_off_c, 1, 70, 0
2, 78120, Note_on_c, 1, 34, 127
2, 78120, Note_on_c, 1, 46, 127
2, 78120, Note_on_c, 1, 58, 127
2, 80040, Note_off_c, 1, 34, 0
2, 80040, Note_off_c, 1, 46, 0
2, 80040, Note_off_c, 1, 58, 0
2, 80080, Note_on_c, 1, 34, 127
2, 80080, Note_on_c, 1, 46, 127
2, 80080, Note_on_c, 1, 58, 127
2, 80520, Note_off_c, 1, 34, 0
2, 80520, Note_off_c, 1, 46, 0
2, 80520, Note_off_c, 1, 58, 0
2, 80560, Note_on_c, 1, 43, 127
2, 82080, Note_off_c, 1, 43, 0
2, 82120, Note_on_c, 1, 42, 127
2, 82440, Note_off_c, 1, 42, 0
2, 82480, Note_on_c, 1, 42, 127
2, 82920, Note_off_c, 1, 42, 0
2, 82960, Note_on_c, 1, 49, 127
2, 83320, Note_off_c, 1, 49, 0
2, 83360, Note_on_c, 1, 55, 127
2, 84120, Note_off_c, 1, 55, 0
2, 84160, Note_on_c, 1, 58, 127
2, 84520, Note_off_c, 1, 58, 0
2, 84560, Note_on_c, 1, 58, 127
2, 84840, Note_off_c, 1, 58, 0
2, 84880, Note_on_c, 1, 58, 127
2, 84960, Note_off_c, 1, 58, 0
2, 85000, Note_on_c, 1, 58, 127
2, 85360, Note_off_c, 1, 58, 0
2, 85400, Note_on_c, 1, 57, 127
2, 85760, Note_off_c, 1, 57, 0
2, 85800, Note_on_c, 1, 58, 127
2, 86160, Note_off_c, 1, 58, 0
2, 86200, Note_on_c, 1, 64, 127
2, 86560, Note_off_c, 1, 64, 0
2, 86600, Note_on_c, 1, 58, 127
2, 86960, Note_off_c, 1, 58, 0
2, 87000, Note_on_c, 1, 55, 127
2, 87160, Note_off_c, 1, 55, 0
2, 87200, Note_on_c, 1, 55, 127
2, 87400, Note_off_c, 1, 55, 0
2, 87440, Note_on_c, 1, 58, 127
2, 87800, Note_off_c, 1, 58, 0
2, 87840, Note_on_c, 1, 52, 127
2, 88200, Note_off_c, 1, 52, 0
2, 88240, Note_on_c, 1, 46, 127
2, 88600, Note_off_c, 1, 46, 0
2, 88640, Note_on_c, 1, 50, 127
2, 89000, Note_off_c, 1, 50, 0
2, 89040, Note_on_c, 1, 46, 127
2, 89400, Note_off_c, 1, 46, 0
2, 89440, Note_on_c, 1, 47, 127
2, 89560, Note_off_c, 1, 47, 0
2, 89600, Note_on_c, 1, 47, 127
2, 89800, Note_off_c, 1, 47, 0
2, 89840, Note_on_c, 1, 50, 127
2, 90200, Note_off_c, 1, 50, 0
2, 90240, Note_on_c, 1, 36, 127
2, 90600, Note_off_c, 1, 36, 0
2, 90640, Note_on_c, 1, 34, 127
2, 91000, Note_off_c, 1, 34, 0
2, 91040, Note_on_c, 1, 34, 127
2, 91760, Note_off_c, 1, 34, 0
2, 91760, Note_on_c, 1, 36, 127
2, 91800, Note_off_c, 1, 36, 0
2, 91880, Note_on_c, 1, 46, 127
2, 92240, Note_off_c, 1, 46, 0
2, 92280, Note_on_c, 1, 45, 127
2, 92640, Note_off_c, 1, 45, 0
2, 92680, Note_on_c, 1, 54, 127
2, 93040, Note_off_c, 1, 54, 0
2, 93080, Note_on_c, 1, 53, 127
2, 93400, Note_off_c, 1, 53, 0
2, 93480, Note_on_c, 1, 86, 127
2, 93840, Note_off_c, 1, 86, 0
2, 93880, Note_on_c, 1, 84, 127
2, 94160, Note_off_c, 1, 84, 0
2, 94200, Note_on_c, 1, 84, 127
2, 94480, Note_off_c, 1, 84, 0
2, 94520, Note_on_c, 1, 78, 127
2, 94680, Note_off_c, 1, 78, 0
2, 94720, Note_on_c, 1, 77, 127
2, 95040, Note_off_c, 1, 77, 0
2, 95080, Note_on_c, 1, 75, 127
2, 95440, Note_off_c, 1, 75, 0
2, 95480, Note_on_c, 1, 57, 127
2, 95480, Note_on_c, 1, 73, 127
2, 95840, Note_off_c, 1, 57, 0
2, 95880, Note_on_c, 1, 61, 127
2, 96240, Note_off_c, 1, 61, 0
2, 96240, Note_off_c, 1, 73, 0
2, 96320, Note_on_c, 1, 61, 127
2, 96680, Note_off_c, 1, 61, 0
2, 96720, Note_on_c, 1, 65, 127
2, 97080, Note_off_c, 1, 65, 0
2, 97120, Note_on_c, 1, 69, 127
2, 97120, Note_on_c, 1, 85, 127
2, 97480, Note_off_c, 1, 69, 0
2, 97480, Note_off_c, 1, 85, 0
2, 97480, Note_on_c, 1, 86, 127
2, 97520, Note_on_c, 1, 66, 127
2, 97880, Note_off_c, 1, 66, 0
2, 97920, Note_on_c, 1, 69, 127
2, 98240, Note_off_c, 1, 69, 0
2, 98280, Note_off_c, 1, 86, 0
2, 98360, Note_on_c, 1, 69, 127
2, 98360, Note_on_c, 1, 85, 127
2, 98720, Note_off_c, 1, 69, 0
2, 98760, Note_on_c, 1, 57, 127
2, 99120, Note_off_c, 1, 57, 0
2, 99160, Note_on_c, 1, 68, 127
2, 99520, Note_off_c, 1, 68, 0
2, 99560, Note_on_c, 1, 58, 127
2, 99920, Note_off_c, 1, 58, 0
2, 99960, Note_on_c, 1, 66, 127
2, 100320, Note_off_c, 1, 85, 0
2, 100360, Note_on_c, 1, 84, 127
2, 100560, Note_off_c, 1, 66, 0
2, 100560, Note_off_c, 1, 84, 0
2, 100600, Note_on_c, 1, 66, 127
2, 100600, Note_on_c, 1, 84, 127
2, 100720, Note_off_c, 1, 66, 0
2, 100760, Note_on_c, 1, 63, 127
2, 101120, Note_off_c, 1, 63, 0
2, 101120, Note_off_c, 1, 84, 0
2, 101160, Note_on_c, 1, 64, 127
2, 101160, Note_on_c, 1, 85, 127
2, 101520, Note_off_c, 1, 64, 0
2, 101560, Note_on_c, 1, 63, 127
2, 101920, Note_off_c, 1, 63, 0
2, 101920, Note_off_c, 1, 85, 0
2, 101960, Note_on_c, 1, 57, 127
2, 101960, Note_on_c, 1, 84, 127
2, 102320, Note_off_c, 1, 57, 0
2, 102360, Note_on_c, 1, 63, 127
2, 102720, Note_off_c, 1, 63, 0
2, 102760, Note_on_c, 1, 68, 127
2, 102960, Note_off_c, 1, 68, 0
2, 102960, Note_off_c, 1, 84, 0
2, 103000, Note_on_c, 1, 68, 127
2, 103000, Note_on_c, 1, 84, 127
2, 103160, Note_off_c, 1, 68, 0
2, 103160, Note_off_c, 1, 84, 0
2, 103200, Note_on_c, 1, 63, 127
2, 103200, Note_on_c, 1, 83, 127
2, 103560, Note_off_c, 1, 63, 0
2, 103560, Note_off_c, 1, 83, 0
2, 103600, Note_on_c, 1, 64, 127
2, 103600, Note_on_c, 1, 81, 127
2, 103960, Note_off_c, 1, 64, 0
2, 103960, Note_off_c, 1, 81, 0
2, 104000, Note_on_c, 1, 63, 127
2, 104000, Note_on_c, 1, 80, 127
2, 104360, Note_off_c, 1, 63, 0
2, 104360, Note_off_c, 1, 80, 0
2, 104400, Note_on_c, 1, 69, 127
2, 104400, Note_on_c, 1, 80, 127
2, 104760, Note_off_c, 1, 69, 0
2, 104760, Note_off_c, 1, 80, 0
2, 104800, Note_on_c, 1, 60, 127
2, 104800, Note_on_c, 1, 78, 127
2, 105160, Note_off_c, 1, 60, 0
2, 105200, Note_off_c, 1, 78, 0
2, 105240, Note_on_c, 1, 64, 127
2, 105240, Note_on_c, 1, 78, 127
2, 105560, Note_off_c, 1, 64, 0
2, 105560, Note_off_c, 1, 78, 0
2, 105600, Note_on_c, 1, 66, 127
2, 105600, Note_on_c, 1, 76, 127
2, 105960, Note_off_c, 1, 66, 0
2, 106000, Note_on_c, 1, 64, 127
2, 106360, Note_off_c, 1, 64, 0
2, 106360, Note_off_c, 1, 76, 0
2, 106400, Note_on_c, 1, 68, 127
2, 106400, Note_on_c, 1, 75, 127
2, 106760, Note_off_c, 1, 68, 0
2, 106760, Note_off_c, 1, 75, 0
2, 106800, Note_on_c, 1, 58, 127
2, 106800, Note_on_c, 1, 79, 127
2, 107160, Note_off_c, 1, 58, 0
2, 107160, Note_off_c, 1, 79, 0
2, 107200, Note_on_c, 1, 66, 127
2, 107200, Note_on_c, 1, 80, 127
2, 107400, Note_off_c, 1, 66, 0
2, 107400, Note_off_c, 1, 80, 0
2, 107440, Note_on_c, 1, 66, 127
2, 107440, Note_on_c, 1, 80, 127
2, 107560, Note_off_c, 1, 66, 0
2, 107560, Note_off_c, 1, 80, 0
2, 107600, Note_on_c, 1, 78, 127
2, 108000, Note_on_c, 1, 56, 127
2, 108360, Note_off_c, 1, 56, 0
2, 108360, Note_off_c, 1, 78, 0
2, 108400, Note_on_c, 1, 59, 127
2, 108400, Note_on_c, 1, 80, 127
2, 108400, Note_on_c, 1, 81, 127
2, 108440, Note_off_c, 1, 81, 0
2, 108760, Note_off_c, 1, 59, 0
2, 108800, Note_on_c, 1, 63, 127
2, 108800, Note_on_c, 1, 78, 127
2, 108800, Note_off_c, 1, 80, 0
2, 109160, Note_off_c, 1, 63, 0
2, 109200, Note_on_c, 1, 66, 127
2, 109560, Note_off_c, 1, 66, 0
2, 109600, Note_off_c, 1, 78, 0
2, 109640, Note_on_c, 1, 64, 127
2, 109640, Note_on_c, 1, 78, 127
2, 109960, Note_off_c, 1, 64, 0
2, 110000, Note_on_c, 1, 63, 127
2, 110360, Note_off_c, 1, 63, 0
2, 110360, Note_off_c, 1, 78, 0
2, 110400, Note_on_c, 1, 66, 127
2, 110400, Note_on_c, 1, 76, 127
2, 110760, Note_off_c, 1, 66, 0
2, 110760, Note_off_c, 1, 76, 0
2, 110800, Note_on_c, 1, 59, 127
2, 110800, Note_on_c, 1, 76, 127
2, 111120, Note_off_c, 1, 59, 0
2, 111160, Note_on_c, 1, 64, 127
2, 111520, Note_off_c, 1, 64, 0
2, 111560, Note_on_c, 1, 67, 127
2, 111840, Note_off_c, 1, 67, 0
2, 111840, Note_off_c, 1, 76, 0
2, 111880, Note_on_c, 1, 67, 127
2, 111880, Note_on_c, 1, 76, 127
2, 111920, Note_off_c, 1, 76, 0
2, 111960, Note_on_c, 1, 64, 127
2, 111960, Note_off_c, 1, 67, 0
2, 111960, Note_on_c, 1, 76, 127
2, 112320, Note_off_c, 1, 64, 0
2, 112320, Note_off_c, 1, 76, 0
2, 112360, Note_on_c, 1, 67, 127
2, 112360, Note_on_c, 1, 75, 127
2, 112720, Note_off_c, 1, 67, 0
2, 112760, Note_on_c, 1, 58, 127
2, 113120, Note_off_c, 1, 58, 0
2, 113120, Note_off_c, 1, 75, 0
2, 113160, Note_on_c, 1, 63, 127
2, 113160, Note_on_c, 1, 75, 127
2, 113520, Note_off_c, 1, 63, 0
2, 113560, Note_on_c, 1, 67, 127
2, 113920, Note_off_c, 1, 67, 0
2, 113920, Note_off_c, 1, 75, 0
2, 114000, Note_on_c, 1, 57, 127
2, 114320, Note_off_c, 1, 57, 0
2, 114360, Note_on_c, 1, 68, 127
2, 114360, Note_on_c, 1, 75, 127
2, 114440, Note_off_c, 1, 75, 0
2, 114760, Note_on_c, 1, 75, 127
2, 115120, Note_off_c, 1, 68, 0
2, 115160, Note_on_c, 1, 63, 127
2, 115520, Note_off_c, 1, 63, 0
2, 115520, Note_off_c, 1, 75, 0
2, 115560, Note_on_c, 1, 59, 127
2, 115560, Note_on_c, 1, 69, 127
2, 116160, Note_off_c, 1, 59, 0
2, 116160, Note_off_c, 1, 69, 0
2, 116200, Note_on_c, 1, 59, 127
2, 116200, Note_on_c, 1, 69, 127
2, 116320, Note_off_c, 1, 59, 0
2, 116320, Note_off_c, 1, 69, 0
2, 116360, Note_on_c, 1, 63, 127
2, 116360, Note_on_c, 1, 69, 127
2, 116720, Note_off_c, 1, 63, 0
2, 116760, Note_on_c, 1, 57, 127
2, 117120, Note_off_c, 1, 57, 0
2, 117160, Note_on_c, 1, 63, 127
2, 117520, Note_off_c, 1, 69, 0
2, 117560, Note_on_c, 1, 66, 127
2, 117880, Note_off_c, 1, 63, 0
2, 117920, Note_off_c, 1, 66, 0
2, 117960, Note_on_c, 1, 52, 127
2, 117960, Note_on_c, 1, 68, 127
2, 118320, Note_off_c, 1, 52, 0
2, 118360, Note_off_c, 1, 68, 0
2, 118400, Note_on_c, 1, 57, 127
2, 118400, Note_on_c, 1, 68, 127
2, 118720, Note_off_c, 1, 57, 0
2, 118760, Note_on_c, 1, 59, 127
2, 119120, Note_off_c, 1, 59, 0
2, 119160, Note_on_c, 1, 52, 127
2, 119520, Note_off_c, 1, 52, 0
2, 119520, Note_off_c, 1, 68, 0
2, 119560, Note_on_c, 1, 81, 127
2, 119920, Note_off_c, 1, 81, 0
2, 119960, Note_on_c, 1, 80, 127
2, 120000, Note_off_c, 1, 80, 0
2, 120040, End_track
3, 0, Start_track
3, 0, Title_t, "MIDI"
3, 1536, End_track
0, 0, End_of_file
