0, 0, Header, 1, 3, 192
1, 0, Start_track
1, 0, Time_signature, 4, 2, 24, 8
1, 0, Tempo, 500000
1, 120040, End_track
2, 0, Start_track
2, 0, Text_t, "random instrument: random person i dunno whatev"
2, 0, Title_t, "Track 1"
2, 0, Note_on_c, 1, 40, 127
2, 0, Note_on_c, 1, 48, 127
2, 0, Note_on_c, 1, 56, 127
2, 0, Note_on_c, 1, 60, 127
2, 40, Note_off_c, 1, 40, 0
2, 40, Note_on_c, 1, 42, 127
2, 40, Note_off_c, 1, 48, 0
2, 40, Note_on_c, 1, 49, 127
2, 40, Note_on_c, 1, 54, 127
2, 40, Note_off_c, 1, 56, 0
2, 40, Note_off_c, 1, 60, 0
2, 40, Note_on_c, 1, 82, 127
2, 40, Note_on_c, 1, 88, 127
2, 40, Note_on_c, 1, 94, 127
2, 80, Note_off_c, 1, 42, 0
2, 80, Note_off_c, 1, 49, 0
2, 80, Note_on_c, 1, 52, 127
2, 80, Note_off_c, 1, 54, 0
2, 80, Note_on_c, 1, 57, 127
2, 80, Note_on_c, 1, 61, 127
2, 80, Note_on_c, 1, 64, 127
2, 80, Note_on_c, 1, 69, 127
2, 80, Note_on_c, 1, 73, 127
2, 80, Note_on_c, 1, 78, 127
2, 80, Note_off_c, 1, 82, 0
2, 80, Note_off_c, 1, 88, 0
2, 80, Note_off_c, 1, 94, 0
2, 120, Note_off_c, 1, 52, 0
2, 120, Note_off_c, 1, 57, 0
2, 120, Note_off_c, 1, 61, 0
2, 120, Note_off_c, 1, 64, 0
2, 120, Note_off_c, 1, 69, 0
2, 120, Note_off_c, 1, 73, 0
2, 120, Note_off_c, 1, 78, 0
2, 1280, Note_on_c, 1, 38, 127
2, 1280, Note_on_c, 1, 54, 127
2, 1280, Note_on_c, 1, 62, 127
2, 1520, Note_off_c, 1, 38, 0
2, 1520, Note_on_c, 1, 39, 127
2, 1520, Note_on_c, 1, 45, 127
2, 1520, Note_off_c, 1, 54, 0
2, 1520, Note_on_c, 1, 60, 127
2, 1520, Note_off_c, 1, 62, 0
2, 1520, Note_on_c, 1, 66, 127
2, 1520, Note_on_c, 1, 69, 127
2, 1560, Note_on_c, 1, 37, 127
2, 1560, Note_off_c, 1, 39, 0
2, 1560, Note_off_c, 1, 45, 0
2, 1560, Note_off_c, 1, 60, 0
2, 1560, Note_on_c, 1, 64, 127
2, 1560, Note_off_c, 1, 66, 0
2, 1560, Note_on_c, 1, 67, 127
2, 1560, Note_off_c, 1, 69, 0
2, 1560, Note_on_c, 1, 73, 127
2, 1720, Note_off_c, 1, 64, 0
2, 1720, Note_off_c, 1, 67, 0
2, 1720, Note_off_c, 1, 73, 0
2, 1840, Note_on_c, 1, 34, 127
2, 1840, Note_off_c, 1, 37, 0
2, 1840, Note_on_c, 1, 46, 127
2, 1840, Note_on_c, 1, 61, 127
2, 1840, Note_on_c, 1, 66, 127
2, 1840, Note_on_c, 1, 73, 127
2, 2000, Note_off_c, 1, 34, 0
2, 2000, Note_off_c, 1, 46, 0
2, 2000, Note_off_c, 1, 61, 0
2, 2000, Note_off_c, 1, 66, 0
2, 2000, Note_off_c, 1, 73, 0
2, 2040, Note_on_c, 1, 34, 127
2, 2040, Note_on_c, 1, 46, 127
2, 2040, Note_on_c, 1, 61, 127
2, 2040, Note_on_c, 1, 66, 127
2, 2040, Note_on_c, 1, 73, 127
2, 2400, Note_off_c, 1, 34, 0
2, 2400, Note_on_c, 1, 35, 127
2, 2400, Note_off_c, 1, 46, 0
2, 2400, Note_on_c, 1, 47, 127
2, 2400, Note_off_c, 1, 61, 0
2, 2400, Note_on_c, 1, 63, 127
2, 2400, Note_off_c, 1, 73, 0
2, 2400, Note_on_c, 1, 75, 127
2, 2440, Note_on_c, 1, 34, 127
2, 2440, Note_off_c, 1, 35, 0
2, 2440, Note_on_c, 1, 46, 127
2, 2440, Note_off_c, 1, 47, 0
2, 2440, Note_on_c, 1, 61, 127
2, 2440, Note_off_c, 1, 63, 0
2, 2440, Note_on_c, 1, 73, 127
2, 2440, Note_off_c, 1, 75, 0
2, 2480, Note_off_c, 1, 34, 0
2, 2480, Note_on_c, 1, 35, 127
2, 2480, Note_off_c, 1, 46, 0
2, 2480, Note_on_c, 1, 47, 127
2, 2480, Note_off_c, 1, 61, 0
2, 2480, Note_on_c, 1, 63, 127
2, 2480, Note_off_c, 1, 73, 0
2, 2480, Note_on_c, 1, 75, 127
2, 2600, Note_off_c, 1, 35, 0
2, 2600, Note_on_c, 1, 42, 127
2, 2600, Note_off_c, 1, 47, 0
2, 2600, Note_off_c, 1, 63, 0
2, 2600, Note_off_c, 1, 66, 0
2, 2600, Note_off_c, 1, 75, 0
2, 2640, Note_on_c, 1, 38, 127
2, 2640, Note_off_c, 1, 42, 0
2, 2640, Note_on_c, 1, 50, 127
2, 2640, Note_on_c, 1, 59, 127
2, 2640, Note_on_c, 1, 66, 127
2, 2800, Note_off_c, 1, 38, 0
2, 2800, Note_off_c, 1, 50, 0
2, 2800, Note_off_c, 1, 59, 0
2, 2800, Note_off_c, 1, 66, 0
2, 2840, Note_on_c, 1, 35, 127
2, 2840, Note_on_c, 1, 47, 127
2, 2840, Note_on_c, 1, 59, 127
2, 2840, Note_on_c, 1, 71, 127
2, 3200, Note_off_c, 1, 35, 0
2, 3200, Note_off_c, 1, 47, 0
2, 3200, Note_off_c, 1, 59, 0
2, 3200, Note_off_c, 1, 71, 0
2, 3240, Note_on_c, 1, 49, 127
2, 3240, Note_on_c, 1, 59, 127
2, 3240, Note_on_c, 1, 64, 127
2, 4000, Note_off_c, 1, 49, 0
2, 4000, Note_off_c, 1, 59, 0
2, 4000, Note_off_c, 1, 64, 0
2, 4040, Note_on_c, 1, 59, 127
2, 4080, Note_on_c, 1, 47, 127
2, 4080, Note_on_c, 1, 63, 127
2, 4080, Note_on_c, 1, 66, 127
2, 4440, Note_off_c, 1, 59, 0
2, 4440, Note_off_c, 1, 63, 0
2, 4440, Note_off_c, 1, 66, 0
2, 4480, Note_on_c, 1, 59, 127
2, 4480, Note_on_c, 1, 63, 127
2, 4480, Note_on_c, 1, 66, 127
2, 4640, Note_off_c, 1, 59, 0
2, 4640, Note_off_c, 1, 63, 0
2, 4680, Note_on_c, 1, 59, 127
2, 4680, Note_on_c, 1, 63, 127
2, 4840, Note_off_c, 1, 47, 0
2, 4840, Note_off_c, 1, 59, 0
2, 4840, Note_off_c, 1, 63, 0
2, 4840, Note_off_c, 1, 66, 0
2, 4880, Note_on_c, 1, 52, 127
2, 4880, Note_on_c, 1, 59, 127
2, 4880, Note_on_c, 1, 64, 127
2, 4880, Note_on_c, 1, 68, 127
2, 5040, Note_off_c, 1, 68, 0
2, 5080, Note_on_c, 1, 71, 127
2, 5240, Note_off_c, 1, 52, 0
2, 5240, Note_off_c, 1, 59, 0
2, 5240, Note_off_c, 1, 64, 0
2, 5240, Note_off_c, 1, 71, 0
2, 5280, Note_on_c, 1, 53, 127
2, 5280, Note_on_c, 1, 59, 127
2, 5280, Note_on_c, 1, 62, 127
2, 5280, Note_on_c, 1, 68, 127
2, 5280, Note_on_c, 1, 71, 127
2, 5640, Note_off_c, 1, 53, 0
2, 5640, Note_off_c, 1, 59, 0
2, 5640, Note_off_c, 1, 62, 0
2, 5640, Note_off_c, 1, 68, 0
2, 5640, Note_off_c, 1, 71, 0
2, 5680, Note_on_c, 1, 53, 127
2, 5680, Note_on_c, 1, 59, 127
2, 5680, Note_on_c, 1, 62, 127
2, 5680, Note_on_c, 1, 68, 127
2, 5680, Note_on_c, 1, 71, 127
2, 6040, Note_off_c, 1, 53, 0
2, 6040, Note_on_c, 1, 54, 127
2, 6040, Note_off_c, 1, 59, 0
2, 6040, Note_off_c, 1, 62, 0
2, 6040, Note_off_c, 1, 68, 0
2, 6040, Note_off_c, 1, 71, 0
2, 6080, Note_on_c, 1, 53, 127
2, 6080, Note_off_c, 1, 54, 0
2, 6080, Note_on_c, 1, 59, 127
2, 6080, Note_on_c, 1, 62, 127
2, 6080, Note_on_c, 1, 68, 127
2, 6080, Note_on_c, 1, 71, 127
2, 6240, Note_off_c, 1, 53, 0
2, 6240, Note_off_c, 1, 59, 0
2, 6240, Note_off_c, 1, 62, 0
2, 6240, Note_off_c, 1, 68, 0
2, 6240, Note_off_c, 1, 71, 0
2, 6280, Note_on_c, 1, 53, 127
2, 6280, Note_on_c, 1, 59, 127
2, 6280, Note_on_c, 1, 62, 127
2, 6280, Note_on_c, 1, 68, 127
2, 6280, Note_on_c, 1, 71, 127
2, 6480, Note_off_c, 1, 53, 0
2, 6480, Note_off_c, 1, 59, 0
2, 6480, Note_off_c, 1, 62, 0
2, 6480, Note_off_c, 1, 68, 0
2, 6480, Note_off_c, 1, 71, 0
2, 6520, Note_on_c, 1, 53, 127
2, 6520, Note_on_c, 1, 59, 127
2, 6520, Note_on_c, 1, 62, 127
2, 6520, Note_on_c, 1, 68, 127
2, 6520, Note_on_c, 1, 71, 127
2, 6880, Note_off_c, 1, 53, 0
2, 6880, Note_off_c, 1, 59, 0
2, 6880, Note_off_c, 1, 62, 0
2, 6880, Note_off_c, 1, 68, 0
2, 6880, Note_off_c, 1, 71, 0
2, 6920, Note_on_c, 1, 53, 127
2, 6920, Note_on_c, 1, 59, 127
2, 6920, Note_on_c, 1, 62, 127
2, 6920, Note_on_c, 1, 68, 127
2, 6920, Note_on_c, 1, 71, 127
2, 7280, Note_off_c, 1, 53, 0
2, 7280, Note_on_c, 1, 54, 127
2, 7280, Note_off_c, 1, 59, 0
2, 7280, Note_off_c, 1, 62, 0
2, 7280, Note_off_c, 1, 68, 0
2, 7280, Note_off_c, 1, 71, 0
2, 7320, Note_on_c, 1, 53, 127
2, 7320, Note_off_c, 1, 54, 0
2, 7320, Note_on_c, 1, 59, 127
2, 7320, Note_on_c, 1, 62, 127
2, 7320, Note_on_c, 1, 68, 127
2, 7320, Note_on_c, 1, 71, 127
2, 7680, Note_off_c, 1, 53, 0
2, 7680, Note_off_c, 1, 59, 0
2, 7680, Note_off_c, 1, 62, 0
2, 7680, Note_off_c, 1, 68, 0
2, 7680, Note_off_c, 1, 71, 0
2, 7720, Note_on_c, 1, 53, 127
2, 7720, Note_on_c, 1, 59, 127
2, 7720, Note_on_c, 1, 62, 127
2, 7720, Note_on_c, 1, 68, 127
2, 7720, Note_on_c, 1, 71, 127
2, 8080, Note_off_c, 1, 53, 0
2, 8080, Note_off_c, 1, 59, 0
2, 8080, Note_off_c, 1, 62, 0
2, 8080, Note_off_c, 1, 68, 0
2, 8080, Note_off_c, 1, 71, 0
2, 8120, Note_on_c, 1, 53, 127
2, 8120, Note_on_c, 1, 59, 127
2, 8120, Note_on_c, 1, 62, 127
2, 8120, Note_on_c, 1, 68, 127
2, 8120, Note_on_c, 1, 71, 127
2, 8360, Note_off_c, 1, 53, 0
2, 8360, Note_off_c, 1, 59, 0
2, 8360, Note_off_c, 1, 62, 0
2, 8360, Note_off_c, 1, 68, 0
2, 8360, Note_off_c, 1, 71, 0
2, 8400, Note_on_c, 1, 53, 127
2, 8400, Note_on_c, 1, 59, 127
2, 8400, Note_on_c, 1, 62, 127
2, 8400, Note_on_c, 1, 68, 127
2, 8400, Note_on_c, 1, 71, 127
2, 8520, Note_off_c, 1, 53, 0
2, 8520, Note_off_c, 1, 59, 0
2, 8520, Note_off_c, 1, 62, 0
2, 8520, Note_off_c, 1, 68, 0
2, 8520, Note_off_c, 1, 71, 0
2, 8560, Note_on_c, 1, 53, 127
2, 8560, Note_on_c, 1, 59, 127
2, 8560, Note_on_c, 1, 62, 127
2, 8560, Note_on_c, 1, 68, 127
2, 8560, Note_on_c, 1, 71, 127
2, 8920, Note_off_c, 1, 53, 0
2, 8920, Note_off_c, 1, 59, 0
2, 8920, Note_off_c, 1, 62, 0
2, 8920, Note_off_c, 1, 68, 0
2, 8920, Note_off_c, 1, 71, 0
2, 8960, Note_on_c, 1, 53, 127
2, 8960, Note_on_c, 1, 59, 127
2, 8960, Note_on_c, 1, 62, 127
2, 8960, Note_on_c, 1, 68, 127
2, 8960, Note_on_c, 1, 71, 127
2, 9320, Note_off_c, 1, 53, 0
2, 9320, Note_on_c, 1, 54, 127
2, 9320, Note_off_c, 1, 59, 0
2, 9320, Note_off_c, 1, 62, 0
2, 9320, Note_off_c, 1, 68, 0
2, 9320, Note_off_c, 1, 71, 0
2, 9360, Note_on_c, 1, 53, 127
2, 9360, Note_off_c, 1, 54, 0
2, 9360, Note_on_c, 1, 59, 127
2, 9360, Note_on_c, 1, 62, 127
2, 9360, Note_on_c, 1, 68, 127
2, 9360, Note_on_c, 1, 71, 127
2, 9720, Note_off_c, 1, 53, 0
2, 9720, Note_off_c, 1, 59, 0
2, 9720, Note_off_c, 1, 62, 0
2, 9720, Note_off_c, 1, 68, 0
2, 9720, Note_off_c, 1, 71, 0
2, 9760, Note_on_c, 1, 53, 127
2, 9760, Note_on_c, 1, 59, 127
2, 9760, Note_on_c, 1, 62, 127
2, 9760, Note_on_c, 1, 68, 127
2, 9760, Note_on_c, 1, 71, 127
2, 10120, Note_off_c, 1, 53, 0
2, 10120, Note_off_c, 1, 59, 0
2, 10120, Note_off_c, 1, 62, 0
2, 10120, Note_off_c, 1, 68, 0
2, 10120, Note_off_c, 1, 71, 0
2, 10160, Note_on_c, 1, 53, 127
2, 10160, Note_on_c, 1, 59, 127
2, 10160, Note_on_c, 1, 62, 127
2, 10160, Note_on_c, 1, 68, 127
2, 10160, Note_on_c, 1, 71, 127
2, 10520, Note_off_c, 1, 53, 0
2, 10520, Note_on_c, 1, 54, 127
2, 10520, Note_off_c, 1, 59, 0
2, 10520, Note_off_c, 1, 62, 0
2, 10520, Note_off_c, 1, 68, 0
2, 10520, Note_off_c, 1, 71, 0
2, 10560, Note_off_c, 1, 54, 0
2, 10600, Note_on_c, 1, 53, 127
2, 10600, Note_on_c, 1, 59, 127
2, 10600, Note_on_c, 1, 62, 127
2, 10600, Note_on_c, 1, 68, 127
2, 10600, Note_on_c, 1, 71, 127
2, 10960, Note_off_c, 1, 53, 0
2, 10960, Note_on_c, 1, 54, 127
2, 10960, Note_off_c, 1, 59, 0
2, 10960, Note_off_c, 1, 62, 0
2, 10960, Note_off_c, 1, 68, 0
2, 10960, Note_off_c, 1, 71, 0
2, 11000, Note_on_c, 1, 53, 127
2, 11000, Note_off_c, 1, 54, 0
2, 11000, Note_on_c, 1, 59, 127
2, 11000, Note_on_c, 1, 62, 127
2, 11000, Note_on_c, 1, 68, 127
2, 11000, Note_on_c, 1, 71, 127
2, 11360, Note_off_c, 1, 53, 0
2, 11360, Note_off_c, 1, 59, 0
2, 11360, Note_off_c, 1, 62, 0
2, 11360, Note_off_c, 1, 68, 0
2, 11360, Note_off_c, 1, 71, 0
2, 11400, Note_on_c, 1, 53, 127
2, 11400, Note_on_c, 1, 59, 127
2, 11400, Note_on_c, 1, 62, 127
2, 11400, Note_on_c, 1, 68, 127
2, 11400, Note_on_c, 1, 71, 127
2, 11760, Note_off_c, 1, 53, 0
2, 11760, Note_on_c, 1, 54, 127
2, 11760, Note_off_c, 1, 59, 0
2, 11760, Note_off_c, 1, 62, 0
2, 11760, Note_off_c, 1, 68, 0
2, 11760, Note_off_c, 1, 71, 0
2, 11800, Note_on_c, 1, 53, 127
2, 11800, Note_off_c, 1, 54, 0
2, 11800, Note_on_c, 1, 59, 127
2, 11800, Note_on_c, 1, 62, 127
2, 11800, Note_on_c, 1, 68, 127
2, 11800, Note_on_c, 1, 71, 127
2, 12160, Note_off_c, 1, 53, 0
2, 12160, Note_off_c, 1, 59, 0
2, 12160, Note_off_c, 1, 62, 0
2, 12160, Note_off_c, 1, 68, 0
2, 12160, Note_off_c, 1, 71, 0
2, 12200, Note_on_c, 1, 53, 127
2, 12200, Note_on_c, 1, 59, 127
2, 12200, Note_on_c, 1, 62, 127
2, 12200, Note_on_c, 1, 68, 127
2, 12200, Note_on_c, 1, 71, 127
2, 12560, Note_off_c, 1, 53, 0
2, 12560, Note_off_c, 1, 59, 0
2, 12560, Note_off_c, 1, 62, 0
2, 12560, Note_off_c, 1, 68, 0
2, 12560, Note_off_c, 1, 71, 0
2, 12640, Note_on_c, 1, 53, 127
2, 12640, Note_on_c, 1, 59, 127
2, 12640, Note_on_c, 1, 62, 127
2, 12640, Note_on_c, 1, 68, 127
2, 12640, Note_on_c, 1, 71, 127
2, 13000, Note_off_c, 1, 53, 0
2, 13000, Note_on_c, 1, 54, 127
2, 13000, Note_off_c, 1, 59, 0
2, 13000, Note_off_c, 1, 62, 0
2, 13000, Note_off_c, 1, 68, 0
2, 13000, Note_off_c, 1, 71, 0
2, 13040, Note_on_c, 1, 53, 127
2, 13040, Note_off_c, 1, 54, 0
2, 13040, Note_on_c, 1, 59, 127
2, 13040, Note_on_c, 1, 62, 127
2, 13040, Note_on_c, 1, 68, 127
2, 13040, Note_on_c, 1, 71, 127
2, 13400, Note_off_c, 1, 53, 0
2, 13400, Note_off_c, 1, 59, 0
2, 13400, Note_off_c, 1, 62, 0
2, 13400, Note_off_c, 1, 68, 0
2, 13400, Note_off_c, 1, 71, 0
2, 13440, Note_on_c, 1, 53, 127
2, 13440, Note_on_c, 1, 59, 127
2, 13440, Note_on_c, 1, 62, 127
2, 13440, Note_on_c, 1, 68, 127
2, 13440, Note_on_c, 1, 71, 127
2, 13800, Note_off_c, 1, 53, 0
2, 13800, Note_off_c, 1, 62, 0
2, 13800, Note_off_c, 1, 68, 0
2, 13800, Note_off_c, 1, 71, 0
2, 13840, Note_on_c, 1, 53, 127
2, 13840, Note_on_c, 1, 62, 127
2, 13840, Note_on_c, 1, 68, 127
2, 13840, Note_on_c, 1, 71, 127
2, 14200, Note_off_c, 1, 53, 0
2, 14200, Note_off_c, 1, 59, 0
2, 14200, Note_off_c, 1, 62, 0
2, 14200, Note_off_c, 1, 68, 0
2, 14200, Note_off_c, 1, 71, 0
2, 14240, Note_on_c, 1, 53, 127
2, 14240, Note_on_c, 1, 59, 127
2, 14240, Note_on_c, 1, 62, 127
2, 14240, Note_on_c, 1, 68, 127
2, 14240, Note_on_c, 1, 71, 127
2, 14600, Note_off_c, 1, 53, 0
2, 14600, Note_on_c, 1, 54, 127
2, 14600, Note_off_c, 1, 59, 0
2, 14600, Note_off_c, 1, 62, 0
2, 14600, Note_off_c, 1, 68, 0
2, 14600, Note_off_c, 1, 71, 0
2, 14640, Note_off_c, 1, 54, 0
2, 14680, Note_on_c, 1, 53, 127
2, 14680, Note_on_c, 1, 59, 127
2, 14680, Note_on_c, 1, 62, 127
2, 14680, Note_on_c, 1, 68, 127
2, 14680, Note_on_c, 1, 71, 127
2, 15040, Note_off_c, 1, 53, 0
2, 15040, Note_off_c, 1, 59, 0
2, 15040, Note_off_c, 1, 62, 0
2, 15040, Note_off_c, 1, 68, 0
2, 15040, Note_off_c, 1, 71, 0
2, 15080, Note_on_c, 1, 53, 127
2, 15080, Note_on_c, 1, 59, 127
2, 15080, Note_on_c, 1, 62, 127
2, 15080, Note_on_c, 1, 68, 127
2, 15080, Note_on_c, 1, 71, 127
2, 15440, Note_off_c, 1, 53, 0
2, 15440, Note_on_c, 1, 54, 127
2, 15440, Note_off_c, 1, 59, 0
2, 15440, Note_off_c, 1, 62, 0
2, 15440, Note_off_c, 1, 68, 0
2, 15440, Note_off_c, 1, 71, 0
2, 15480, Note_on_c, 1, 53, 127
2, 15480, Note_off_c, 1, 54, 0
2, 15480, Note_on_c, 1, 59, 127
2, 15480, Note_on_c, 1, 62, 127
2, 15480, Note_on_c, 1, 68, 127
2, 15480, Note_on_c, 1, 71, 127
2, 15840, Note_off_c, 1, 53, 0
2, 15840, Note_off_c, 1, 59, 0
2, 15840, Note_off_c, 1, 62, 0
2, 15840, Note_off_c, 1, 68, 0
2, 15840, Note_off_c, 1, 71, 0
2, 15880, Note_on_c, 1, 59, 127
2, 15880, Note_on_c, 1, 64, 127
2, 15880, Note_on_c, 1, 68, 127
2, 15880, Note_on_c, 1, 71, 127
2, 16240, Note_off_c, 1, 59, 0
2, 16240, Note_off_c, 1, 64, 0
2, 16240, Note_off_c, 1, 68, 0
2, 16240, Note_off_c, 1, 71, 0
2, 16280, Note_on_c, 1, 63, 127
2, 16280, Note_on_c, 1, 66, 127
2, 16280, Note_on_c, 1, 71, 127
2, 16280, Note_on_c, 1, 75, 127
2, 16640, Note_on_c, 1, 54, 127
2, 16640, Note_off_c, 1, 63, 0
2, 16640, Note_off_c, 1, 66, 0
2, 16640, Note_off_c, 1, 71, 0
2, 16640, Note_off_c, 1, 75, 0
2, 16680, Note_off_c, 1, 54, 0
2, 16720, Note_on_c, 1, 54, 127
2, 16720, Note_on_c, 1, 61, 127
2, 16720, Note_on_c, 1, 66, 127
2, 16720, Note_on_c, 1, 70, 127
2, 17080, Note_off_c, 1, 54, 0
2, 17080, Note_off_c, 1, 61, 0
2, 17080, Note_off_c, 1, 66, 0
2, 17080, Note_off_c, 1, 70, 0
2, 17120, Note_on_c, 1, 59, 127
2, 17120, Note_on_c, 1, 63, 127
2, 17120, Note_on_c, 1, 68, 127
2, 17120, Note_on_c, 1, 82, 127
2, 17280, Note_off_c, 1, 82, 0
2, 17320, Note_on_c, 1, 80, 127
2, 17480, Note_off_c, 1, 59, 0
2, 17480, Note_off_c, 1, 63, 0
2, 17480, Note_off_c, 1, 68, 0
2, 17480, Note_off_c, 1, 80, 0
2, 17520, Note_on_c, 1, 52, 127
2, 17520, Note_on_c, 1, 82, 127
2, 17880, Note_off_c, 1, 52, 0
2, 17920, Note_on_c, 1, 59, 127
2, 17920, Note_on_c, 1, 63, 127
2, 17920, Note_on_c, 1, 66, 127
2, 17920, Note_on_c, 1, 81, 127
2, 17920, Note_off_c, 1, 82, 0
2, 18240, Note_off_c, 1, 81, 0
2, 18280, Note_off_c, 1, 59, 0
2, 18280, Note_off_c, 1, 63, 0
2, 18280, Note_off_c, 1, 66, 0
2, 18320, Note_on_c, 1, 59, 127
2, 18320, Note_on_c, 1, 63, 127
2, 18320, Note_on_c, 1, 66, 127
2, 18320, Note_on_c, 1, 90, 127
2, 18680, Note_on_c, 1, 51, 127
2, 18680, Note_off_c, 1, 59, 0
2, 18680, Note_off_c, 1, 66, 0
2, 18680, Note_off_c, 1, 90, 0
2, 18720, Note_off_c, 1, 51, 0
2, 18720, Note_off_c, 1, 63, 0
2, 18760, Note_on_c, 1, 42, 127
2, 18760, Note_on_c, 1, 54, 127
2, 18760, Note_on_c, 1, 61, 127
2, 18760, Note_on_c, 1, 76, 127
2, 18760, Note_on_c, 1, 88, 127
2, 19080, Note_off_c, 1, 42, 0
2, 19080, Note_off_c, 1, 54, 0
2, 19080, Note_off_c, 1, 61, 0
2, 19080, Note_off_c, 1, 76, 0
2, 19080, Note_off_c, 1, 88, 0
2, 19120, Note_on_c, 1, 59, 127
2, 19120, Note_on_c, 1, 63, 127
2, 19120, Note_on_c, 1, 71, 127
2, 19920, Note_off_c, 1, 63, 0
2, 19960, Note_on_c, 1, 63, 127
2, 20320, Note_off_c, 1, 59, 0
2, 20320, Note_off_c, 1, 63, 0
2, 20320, Note_off_c, 1, 71, 0
2, 20360, Note_on_c, 1, 47, 127
2, 20520, Note_off_c, 1, 47, 0
2, 21600, Note_on_c, 1, 52, 127
2, 21600, Note_on_c, 1, 64, 127
2, 22720, Note_off_c, 1, 52, 0
2, 22720, Note_off_c, 1, 64, 0
2, 22760, Note_on_c, 1, 49, 127
2, 22760, Note_on_c, 1, 61, 127
2, 22960, Note_off_c, 1, 49, 0
2, 22960, Note_off_c, 1, 61, 0
2, 23000, Note_on_c, 1, 49, 127
2, 23000, Note_on_c, 1, 61, 127
2, 23520, Note_off_c, 1, 49, 0
2, 23520, Note_off_c, 1, 61, 0
2, 23560, Note_on_c, 1, 39, 127
2, 23560, Note_on_c, 1, 51, 127
2, 23560, Note_on_c, 1, 63, 127
2, 23920, Note_off_c, 1, 39, 0
2, 23960, Note_on_c, 1, 39, 127
2, 24320, Note_off_c, 1, 39, 0
2, 24320, Note_off_c, 1, 51, 0
2, 24320, Note_off_c, 1, 63, 0
2, 24360, Note_on_c, 1, 57, 127
2, 24720, Note_off_c, 1, 57, 0
2, 24760, Note_on_c, 1, 51, 127
2, 25280, Note_off_c, 1, 51, 0
2, 25320, Note_on_c, 1, 51, 127
2, 25360, Note_off_c, 1, 51, 0
2, 25400, Note_on_c, 1, 49, 127
2, 25760, Note_off_c, 1, 49, 0
2, 25800, Note_on_c, 1, 51, 127
2, 25960, Note_off_c, 1, 51, 0
2, 26000, Note_on_c, 1, 54, 127
2, 26160, Note_off_c, 1, 54, 0
2, 26200, Note_on_c, 1, 57, 127
2, 26360, Note_off_c, 1, 57, 0
2, 26400, Note_on_c, 1, 49, 127
2, 26560, Note_off_c, 1, 49, 0
2, 26600, Note_on_c, 1, 39, 127
2, 26760, Note_off_c, 1, 39, 0
2, 26800, Note_on_c, 1, 37, 127
2, 26960, Note_off_c, 1, 37, 0
2, 27000, Note_on_c, 1, 45, 127
2, 27320, Note_off_c, 1, 45, 0
2, 27360, Note_on_c, 1, 43, 127
2, 27360, Note_on_c, 1, 72, 127
2, 27560, Note_off_c, 1, 43, 0
2, 27560, Note_off_c, 1, 72, 0
2, 27600, Note_on_c, 1, 43, 127
2, 27600, Note_on_c, 1, 72, 127
2, 27760, Note_off_c, 1, 72, 0
2, 27800, Note_off_c, 1, 43, 0
2, 27800, Note_on_c, 1, 45, 127
2, 27800, Note_on_c, 1, 52, 127
2, 27800, Note_on_c, 1, 64, 127
2, 27800, Note_on_c, 1, 71, 127
2, 28920, Note_off_c, 1, 45, 0
2, 28920, Note_off_c, 1, 52, 0
2, 28920, Note_off_c, 1, 64, 0
2, 28920, Note_off_c, 1, 71, 0
2, 28960, Note_on_c, 1, 52, 127
2, 28960, Note_on_c, 1, 72, 127
2, 29680, Note_off_c, 1, 52, 0
2, 29680, Note_off_c, 1, 72, 0
2, 29720, Note_on_c, 1, 60, 127
2, 29720, Note_on_c, 1, 74, 127
2, 29720, Note_on_c, 1, 79, 127
2, 29720, Note_on_c, 1, 86, 127
2, 29800, Note_off_c, 1, 60, 0
2, 29800, Note_off_c, 1, 74, 0
2, 29800, Note_off_c, 1, 79, 0
2, 29800, Note_off_c, 1, 86, 0
2, 29840, Note_on_c, 1, 59, 127
2, 29840, Note_on_c, 1, 74, 127
2, 29840, Note_on_c, 1, 79, 127
2, 29840, Note_on_c, 1, 86, 127
2, 29880, Note_off_c, 1, 59, 0
2, 29880, Note_on_c, 1, 60, 127
2, 30120, Note_off_c, 1, 60, 0
2, 30160, Note_on_c, 1, 59, 127
2, 30520, Note_off_c, 1, 59, 0
2, 30560, Note_on_c, 1, 59, 127
2, 30920, Note_off_c, 1, 59, 0
2, 30960, Note_on_c, 1, 59, 127
2, 31320, Note_off_c, 1, 59, 0
2, 31360, Note_on_c, 1, 43, 127
2, 31360, Note_off_c, 1, 74, 0
2, 31360, Note_on_c, 1, 82, 127
2, 31360, Note_off_c, 1, 86, 0
2, 31720, Note_off_c, 1, 43, 0
2, 31720, Note_off_c, 1, 79, 0
2, 31720, Note_off_c, 1, 82, 0
2, 31760, Note_on_c, 1, 52, 127
2, 31760, Note_on_c, 1, 67, 127
2, 31760, Note_on_c, 1, 71, 127
2, 31760, Note_on_c, 1, 76, 127
2, 32120, Note_off_c, 1, 52, 0
2, 32120, Note_on_c, 1, 59, 127
2, 32120, Note_off_c, 1, 67, 0
2, 32120, Note_off_c, 1, 71, 0
2, 32120, Note_off_c, 1, 76, 0
2, 32160, Note_off_c, 1, 59, 0
2, 32200, Note_on_c, 1, 52, 127
2, 32200, Note_on_c, 1, 67, 127
2, 32200, Note_on_c, 1, 71, 127
2, 32200, Note_on_c, 1, 76, 127
2, 32560, Note_off_c, 1, 52, 0
2, 32560, Note_on_c, 1, 55, 127
2, 32560, Note_off_c, 1, 67, 0
2, 32560, Note_off_c, 1, 71, 0
2, 32560, Note_off_c, 1, 76, 0
2, 32600, Note_on_c, 1, 52, 127
2, 32600, Note_off_c, 1, 55, 0
2, 32600, Note_on_c, 1, 67, 127
2, 32600, Note_on_c, 1, 71, 127
2, 32600, Note_on_c, 1, 76, 127
2, 32960, Note_off_c, 1, 52, 0
2, 32960, Note_off_c, 1, 67, 0
2, 32960, Note_off_c, 1, 71, 0
2, 32960, Note_off_c, 1, 76, 0
2, 33000, Note_on_c, 1, 52, 127
2, 33000, Note_on_c, 1, 67, 127
2, 33000, Note_on_c, 1, 71, 127
2, 33000, Note_on_c, 1, 76, 127
2, 33360, Note_off_c, 1, 67, 0
2, 33360, Note_off_c, 1, 71, 0
2, 33360, Note_off_c, 1, 76, 0
2, 33400, Note_on_c, 1, 67, 127
2, 33400, Note_on_c, 1, 71, 127
2, 33400, Note_on_c, 1, 76, 127
2, 33760, Note_off_c, 1, 52, 0
2, 33760, Note_off_c, 1, 67, 0
2, 33760, Note_off_c, 1, 71, 0
2, 33760, Note_off_c, 1, 76, 0
2, 33800, Note_on_c, 1, 35, 127
2, 33800, Note_on_c, 1, 42, 127
2, 33800, Note_on_c, 1, 52, 127
2, 33800, Note_on_c, 1, 54, 127
2, 33840, Note_off_c, 1, 35, 0
2, 33840, Note_off_c, 1, 42, 0
2, 33840, Note_off_c, 1, 52, 0
2, 33840, Note_off_c, 1, 54, 0
2, 33840, Note_on_c, 1, 67, 127
2, 33840, Note_on_c, 1, 70, 127
2, 33840, Note_on_c, 1, 73, 127
2, 33840, Note_on_c, 1, 75, 127
2, 33840, Note_on_c, 1, 83, 127
2, 33960, Note_off_c, 1, 83, 0
2, 34000, Note_on_c, 1, 83, 127
2, 34160, Note_off_c, 1, 67, 0
2, 34160, Note_off_c, 1, 70, 0
2, 34160, Note_off_c, 1, 73, 0
2, 34160, Note_off_c, 1, 75, 0
2, 34160, Note_off_c, 1, 83, 0
2, 34200, Note_on_c, 1, 68, 127
2, 34200, Note_on_c, 1, 71, 127
2, 34200, Note_on_c, 1, 76, 127
2, 34240, Note_on_c, 1, 55, 127
2, 34240, Note_off_c, 1, 68, 0
2, 34240, Note_off_c, 1, 71, 0
2, 34240, Note_off_c, 1, 76, 0
2, 34240, Note_on_c, 1, 79, 127
2, 34240, Note_on_c, 1, 90, 127
2, 34240, Note_on_c, 1, 91, 127
2, 34280, Note_on_c, 1, 48, 127
2, 34280, Note_on_c, 1, 59, 127
2, 34280, Note_on_c, 1, 74, 127
2, 34280, Note_on_c, 1, 77, 127
2, 34280, Note_off_c, 1, 79, 0
2, 34280, Note_off_c, 1, 90, 0
2, 34280, Note_off_c, 1, 91, 0
2, 34320, Note_on_c, 1, 67, 127
2, 34320, Note_off_c, 1, 74, 0
2, 34360, Note_off_c, 1, 67, 0
2, 34400, Note_on_c, 1, 67, 127
2, 34560, Note_on_c, 1, 44, 127
2, 34560, Note_off_c, 1, 55, 0
2, 34560, Note_off_c, 1, 59, 0
2, 34560, Note_off_c, 1, 67, 0
2, 34560, Note_on_c, 1, 72, 127
2, 34560, Note_on_c, 1, 74, 127
2, 34560, Note_off_c, 1, 77, 0
2, 34560, Note_on_c, 1, 84, 127
2, 34600, Note_off_c, 1, 44, 0
2, 34600, Note_off_c, 1, 48, 0
2, 34600, Note_off_c, 1, 72, 0
2, 34600, Note_off_c, 1, 74, 0
2, 34600, Note_off_c, 1, 84, 0
2, 34640, Note_on_c, 1, 64, 127
2, 34640, Note_on_c, 1, 69, 127
2, 34640, Note_on_c, 1, 72, 127
2, 34640, Note_on_c, 1, 77, 127
2, 34640, Note_on_c, 1, 84, 127
2, 35000, Note_off_c, 1, 64, 0
2, 35000, Note_off_c, 1, 69, 0
2, 35000, Note_off_c, 1, 72, 0
2, 35000, Note_off_c, 1, 77, 0
2, 35000, Note_off_c, 1, 84, 0
2, 35040, Note_on_c, 1, 65, 127
2, 35040, Note_on_c, 1, 71, 127
2, 35040, Note_on_c, 1, 74, 127
2, 35040, Note_on_c, 1, 79, 127
2, 35400, Note_off_c, 1, 65, 0
2, 35400, Note_off_c, 1, 71, 0
2, 35400, Note_off_c, 1, 74, 0
2, 35400, Note_off_c, 1, 79, 0
2, 35440, Note_on_c, 1, 39, 127
2, 35440, Note_on_c, 1, 46, 127
2, 35440, Note_on_c, 1, 58, 127
2, 35440, Note_on_c, 1, 63, 127
2, 35440, Note_on_c, 1, 67, 127
2, 36240, Note_off_c, 1, 39, 0
2, 36240, Note_off_c, 1, 46, 0
2, 36240, Note_off_c, 1, 58, 0
2, 36240, Note_off_c, 1, 63, 0
2, 36240, Note_off_c, 1, 67, 0
2, 36280, Note_on_c, 1, 39, 127
2, 36280, Note_on_c, 1, 46, 127
2, 36280, Note_on_c, 1, 58, 127
2, 36280, Note_on_c, 1, 63, 127
2, 36280, Note_on_c, 1, 67, 127
2, 38480, Note_off_c, 1, 39, 0
2, 38480, Note_off_c, 1, 46, 0
2, 38480, Note_off_c, 1, 58, 0
2, 38480, Note_off_c, 1, 63, 0
2, 38480, Note_off_c, 1, 67, 0
2, 38520, Note_on_c, 1, 39, 127
2, 38520, Note_on_c, 1, 46, 127
2, 38520, Note_on_c, 1, 58, 127
2, 38520, Note_on_c, 1, 63, 127
2, 38520, Note_on_c, 1, 67, 127
2, 40560, Note_off_c, 1, 39, 0
2, 40560, Note_off_c, 1, 46, 0
2, 40560, Note_off_c, 1, 58, 0
2, 40560, Note_off_c, 1, 63, 0
2, 40560, Note_off_c, 1, 67, 0
2, 40600, Note_on_c, 1, 39, 127
2, 40600, Note_on_c, 1, 46, 127
2, 40600, Note_on_c, 1, 58, 127
2, 40600, Note_on_c, 1, 63, 127
2, 40600, Note_on_c, 1, 67, 127
2, 41040, Note_off_c, 1, 39, 0
2, 41040, Note_off_c, 1, 46, 0
2, 41040, Note_off_c, 1, 58, 0
2, 41040, Note_on_c, 1, 60, 127
2, 41040, Note_off_c, 1, 63, 0
2, 41040, Note_off_c, 1, 67, 0
2, 41040, Note_on_c, 1, 68, 127
2, 41040, Note_on_c, 1, 74, 127
2, 41080, Note_on_c, 1, 31, 127
2, 41080, Note_on_c, 1, 43, 127
2, 41080, Note_off_c, 1, 60, 0
2, 41080, Note_on_c, 1, 67, 127
2, 41080, Note_off_c, 1, 68, 0
2, 41080, Note_on_c, 1, 70, 127
2, 41440, Note_off_c, 1, 31, 0
2, 41440, Note_off_c, 1, 43, 0
2, 41440, Note_on_c, 1, 47, 127
2, 41440, Note_off_c, 1, 67, 0
2, 41440, Note_off_c, 1, 70, 0
2, 41440, Note_on_c, 1, 71, 127
2, 41800, Note_on_c, 1, 66, 127
2, 41840, Note_off_c, 1, 66, 0
2, 41880, Note_on_c, 1, 59, 127
2, 42240, Note_off_c, 1, 47, 0
2, 42240, Note_off_c, 1, 59, 0
2, 42280, Note_on_c, 1, 42, 127
2, 42280, Note_on_c, 1, 47, 127
2, 42280, Note_on_c, 1, 54, 127
2, 42280, Note_on_c, 1, 59, 127
2, 42280, Note_on_c, 1, 63, 127
2, 42280, Note_off_c, 1, 71, 0
2, 42280, Note_off_c, 1, 74, 0
2, 42640, Note_off_c, 1, 42, 0
2, 42640, Note_off_c, 1, 47, 0
2, 42640, Note_off_c, 1, 54, 0
2, 42640, Note_off_c, 1, 59, 0
2, 42640, Note_off_c, 1, 63, 0
2, 42720, Note_on_c, 1, 43, 127
2, 42720, Note_on_c, 1, 51, 127
2, 42720, Note_on_c, 1, 55, 127
2, 42720, Note_on_c, 1, 75, 127
2, 42720, Note_on_c, 1, 82, 127
2, 42720, Note_on_c, 1, 87, 127
2, 42760, Note_on_c, 1, 47, 127
2, 42760, Note_off_c, 1, 51, 0
2, 42760, Note_on_c, 1, 53, 127
2, 42760, Note_off_c, 1, 55, 0
2, 42760, Note_off_c, 1, 75, 0
2, 42760, Note_on_c, 1, 77, 127
2, 42760, Note_off_c, 1, 82, 0
2, 42760, Note_off_c, 1, 87, 0
2, 42760, Note_on_c, 1, 89, 127
2, 42800, Note_off_c, 1, 43, 0
2, 42800, Note_on_c, 1, 46, 127
2, 42800, Note_off_c, 1, 47, 0
2, 42800, Note_on_c, 1, 67, 127
2, 42800, Note_on_c, 1, 75, 127
2, 42800, Note_off_c, 1, 77, 0
2, 42800, Note_off_c, 1, 89, 0
2, 42840, Note_off_c, 1, 46, 0
2, 42840, Note_off_c, 1, 53, 0
2, 42840, Note_off_c, 1, 67, 0
2, 42840, Note_on_c, 1, 82, 127
2, 42840, Note_on_c, 1, 87, 127
2, 43120, Note_on_c, 1, 54, 127
2, 43120, Note_on_c, 1, 58, 127
2, 43120, Note_on_c, 1, 63, 127
2, 43280, Note_off_c, 1, 54, 0
2, 43280, Note_off_c, 1, 58, 0
2, 43280, Note_off_c, 1, 63, 0
2, 43320, Note_on_c, 1, 54, 127
2, 43320, Note_on_c, 1, 58, 127
2, 43320, Note_on_c, 1, 63, 127
2, 43400, Note_off_c, 1, 54, 0
2, 43400, Note_off_c, 1, 58, 0
2, 43400, Note_off_c, 1, 63, 0
2, 43480, Note_off_c, 1, 75, 0
2, 43480, Note_off_c, 1, 82, 0
2, 43480, Note_off_c, 1, 87, 0
2, 43520, Note_on_c, 1, 44, 127
2, 43520, Note_on_c, 1, 51, 127
2, 43520, Note_on_c, 1, 76, 127
2, 43520, Note_on_c, 1, 80, 127
2, 43560, Note_off_c, 1, 44, 0
2, 43560, Note_on_c, 1, 46, 127
2, 43560, Note_off_c, 1, 51, 0
2, 43560, Note_on_c, 1, 52, 127
2, 43560, Note_on_c, 1, 54, 127
2, 43560, Note_on_c, 1, 67, 127
2, 43560, Note_off_c, 1, 76, 0
2, 43560, Note_on_c, 1, 79, 127
2, 43560, Note_off_c, 1, 80, 0
2, 43600, Note_on_c, 1, 42, 127
2, 43600, Note_off_c, 1, 46, 0
2, 43600, Note_off_c, 1, 52, 0
2, 43600, Note_off_c, 1, 54, 0
2, 43600, Note_on_c, 1, 59, 127
2, 43640, Note_off_c, 1, 42, 0
2, 43640, Note_on_c, 1, 46, 127
2, 43640, Note_on_c, 1, 52, 127
2, 43640, Note_off_c, 1, 59, 0
2, 43640, Note_off_c, 1, 67, 0
2, 43640, Note_on_c, 1, 70, 127
2, 43640, Note_off_c, 1, 79, 0
2, 43640, Note_on_c, 1, 82, 127
2, 43720, Note_on_c, 1, 42, 127
2, 43720, Note_off_c, 1, 46, 0
2, 43720, Note_off_c, 1, 52, 0
2, 43720, Note_on_c, 1, 59, 127
2, 43720, Note_on_c, 1, 67, 127
2, 43720, Note_off_c, 1, 70, 0
2, 43720, Note_on_c, 1, 79, 127
2, 43720, Note_off_c, 1, 82, 0
2, 44240, Note_off_c, 1, 42, 0
2, 44240, Note_on_c, 1, 56, 127
2, 44240, Note_off_c, 1, 59, 0
2, 44240, Note_off_c, 1, 67, 0
2, 44240, Note_off_c, 1, 79, 0
2, 44280, Note_on_c, 1, 42, 127
2, 44280, Note_off_c, 1, 56, 0
2, 44280, Note_on_c, 1, 59, 127
2, 44280, Note_on_c, 1, 67, 127
2, 44280, Note_on_c, 1, 79, 127
2, 44640, Note_off_c, 1, 42, 0
2, 44640, Note_off_c, 1, 59, 0
2, 44640, Note_off_c, 1, 67, 0
2, 44640, Note_off_c, 1, 79, 0
2, 44720, Note_on_c, 1, 42, 127
2, 44720, Note_on_c, 1, 59, 127
2, 44720, Note_on_c, 1, 67, 127
2, 44720, Note_on_c, 1, 79, 127
2, 45440, Note_off_c, 1, 59, 0
2, 45440, Note_off_c, 1, 67, 0
2, 45440, Note_off_c, 1, 79, 0
2, 45480, Note_off_c, 1, 42, 0
2, 45480, Note_on_c, 1, 44, 127
2, 46320, Note_off_c, 1, 44, 0
2, 46320, Note_on_c, 1, 57, 127
2, 46320, Note_on_c, 1, 66, 127
2, 46320, Note_on_c, 1, 90, 127
2, 46320, Note_on_c, 1, 93, 127
2, 46360, Note_on_c, 1, 61, 127
2, 46360, Note_off_c, 1, 66, 0
2, 46360, Note_on_c, 1, 78, 127
2, 46360, Note_on_c, 1, 81, 127
2, 46360, Note_on_c, 1, 85, 127
2, 46360, Note_off_c, 1, 90, 0
2, 46360, Note_off_c, 1, 93, 0
2, 46400, Note_on_c, 1, 55, 127
2, 46400, Note_off_c, 1, 57, 0
2, 46400, Note_on_c, 1, 64, 127
2, 46400, Note_on_c, 1, 70, 127
2, 46400, Note_on_c, 1, 73, 127
2, 46400, Note_off_c, 1, 78, 0
2, 46400, Note_off_c, 1, 81, 0
2, 46440, Note_off_c, 1, 55, 0
2, 46440, Note_off_c, 1, 61, 0
2, 46440, Note_on_c, 1, 63, 127
2, 46440, Note_off_c, 1, 64, 0
2, 46440, Note_off_c, 1, 70, 0
2, 46440, Note_off_c, 1, 73, 0
2, 46440, Note_on_c, 1, 75, 127
2, 46440, Note_on_c, 1, 78, 127
2, 46440, Note_on_c, 1, 80, 127
2, 46440, Note_off_c, 1, 85, 0
2, 46480, Note_on_c, 1, 33, 127
2, 46480, Note_on_c, 1, 38, 127
2, 46480, Note_on_c, 1, 42, 127
2, 46480, Note_on_c, 1, 45, 127
2, 46480, Note_off_c, 1, 63, 0
2, 46480, Note_off_c, 1, 75, 0
2, 46480, Note_off_c, 1, 78, 0
2, 46480, Note_off_c, 1, 80, 0
2, 46480, Note_on_c, 1, 81, 127
2, 46480, Note_on_c, 1, 86, 127
2, 46480, Note_on_c, 1, 90, 127
2, 46480, Note_on_c, 1, 93, 127
2, 46520, Note_off_c, 1, 33, 0
2, 46520, Note_off_c, 1, 38, 0
2, 46520, Note_off_c, 1, 42, 0
2, 46520, Note_off_c, 1, 45, 0
2, 46520, Note_on_c, 1, 60, 127
2, 46520, Note_on_c, 1, 72, 127
2, 46520, Note_on_c, 1, 77, 127
2, 46520, Note_off_c, 1, 81, 0
2, 46520, Note_off_c, 1, 86, 0
2, 46520, Note_on_c, 1, 87, 127
2, 46520, Note_off_c, 1, 90, 0
2, 46520, Note_off_c, 1, 93, 0
2, 46560, Note_on_c, 1, 48, 127
2, 46560, Note_on_c, 1, 53, 127
2, 46560, Note_on_c, 1, 63, 127
2, 46560, Note_on_c, 1, 65, 127
2, 46560, Note_on_c, 1, 70, 127
2, 46560, Note_off_c, 1, 72, 0
2, 46560, Note_off_c, 1, 77, 0
2, 46560, Note_off_c, 1, 87, 0
2, 46600, Note_off_c, 1, 48, 0
2, 46600, Note_off_c, 1, 53, 0
2, 46600, Note_off_c, 1, 60, 0
2, 46600, Note_off_c, 1, 63, 0
2, 46600, Note_off_c, 1, 65, 0
2, 46600, Note_off_c, 1, 70, 0
2, 46640, Note_on_c, 1, 57, 127
2, 46640, Note_on_c, 1, 62, 127
2, 46640, Note_on_c, 1, 66, 127
2, 46640, Note_on_c, 1, 74, 127
2, 46640, Note_on_c, 1, 84, 127
2, 46680, Note_on_c, 1, 49, 127
2, 46680, Note_on_c, 1, 52, 127
2, 46680, Note_on_c, 1, 56, 127
2, 46680, Note_off_c, 1, 57, 0
2, 46680, Note_off_c, 1, 62, 0
2, 46680, Note_off_c, 1, 66, 0
2, 46680, Note_on_c, 1, 69, 127
2, 46680, Note_off_c, 1, 74, 0
2, 46680, Note_on_c, 1, 76, 127
2, 46680, Note_on_c, 1, 79, 127
2, 46680, Note_on_c, 1, 81, 127
2, 46680, Note_off_c, 1, 84, 0
2, 46720, Note_on_c, 1, 41, 127
2, 46720, Note_on_c, 1, 46, 127
2, 46720, Note_off_c, 1, 49, 0
2, 46720, Note_off_c, 1, 52, 0
2, 46720, Note_off_c, 1, 56, 0
2, 46720, Note_on_c, 1, 58, 127
2, 46720, Note_on_c, 1, 62, 127
2, 46720, Note_off_c, 1, 69, 0
2, 46720, Note_on_c, 1, 70, 127
2, 46720, Note_off_c, 1, 76, 0
2, 46720, Note_off_c, 1, 79, 0
2, 46720, Note_off_c, 1, 81, 0
2, 46760, Note_off_c, 1, 41, 0
2, 46760, Note_off_c, 1, 46, 0
2, 46760, Note_on_c, 1, 56, 127
2, 46760, Note_off_c, 1, 58, 0
2, 46760, Note_off_c, 1, 62, 0
2, 46760, Note_on_c, 1, 68, 127
2, 46760, Note_off_c, 1, 70, 0
2, 46760, Note_on_c, 1, 74, 127
2, 46760, Note_on_c, 1, 78, 127
2, 46760, Note_on_c, 1, 86, 127
2, 46800, Note_on_c, 1, 42, 127
2, 46800, Note_off_c, 1, 56, 0
2, 46800, Note_on_c, 1, 62, 127
2, 46800, Note_off_c, 1, 68, 0
2, 46800, Note_on_c, 1, 71, 127
2, 46800, Note_off_c, 1, 74, 0
2, 46800, Note_off_c, 1, 78, 0
2, 46800, Note_on_c, 1, 83, 127
2, 46800, Note_off_c, 1, 86, 0
2, 47120, Note_off_c, 1, 62, 0
2, 47120, Note_off_c, 1, 71, 0
2, 47120, Note_off_c, 1, 83, 0
2, 47160, Note_on_c, 1, 60, 127
2, 47160, Note_on_c, 1, 69, 127
2, 47160, Note_on_c, 1, 81, 127
2, 47520, Note_off_c, 1, 42, 0
2, 47520, Note_on_c, 1, 48, 127
2, 47520, Note_off_c, 1, 69, 0
2, 47520, Note_on_c, 1, 78, 127
2, 47520, Note_on_c, 1, 87, 127
2, 47520, Note_on_c, 1, 90, 127
2, 47560, Note_on_c, 1, 39, 127
2, 47560, Note_on_c, 1, 43, 127
2, 47560, Note_off_c, 1, 48, 0
2, 47560, Note_on_c, 1, 51, 127
2, 47560, Note_on_c, 1, 55, 127
2, 47560, Note_off_c, 1, 60, 0
2, 47560, Note_on_c, 1, 61, 127
2, 47560, Note_off_c, 1, 78, 0
2, 47560, Note_off_c, 1, 81, 0
2, 47560, Note_off_c, 1, 87, 0
2, 47560, Note_off_c, 1, 90, 0
2, 47920, Note_off_c, 1, 39, 0
2, 47920, Note_off_c, 1, 43, 0
2, 47920, Note_off_c, 1, 51, 0
2, 47920, Note_off_c, 1, 55, 0
2, 47920, Note_off_c, 1, 61, 0
2, 47960, Note_on_c, 1, 57, 127
2, 47960, Note_on_c, 1, 67, 127
2, 47960, Note_on_c, 1, 72, 127
2, 47960, Note_on_c, 1, 76, 127
2, 48320, Note_on_c, 1, 55, 127
2, 48320, Note_off_c, 1, 57, 0
2, 48320, Note_off_c, 1, 67, 0
2, 48320, Note_off_c, 1, 72, 0
2, 48320, Note_off_c, 1, 76, 0
2, 48320, Note_on_c, 1, 78, 127
2, 48360, Note_on_c, 1, 54, 127
2, 48360, Note_off_c, 1, 55, 0
2, 48360, Note_on_c, 1, 58, 127
2, 48360, Note_on_c, 1, 73, 127
2, 48720, Note_off_c, 1, 58, 0
2, 48720, Note_off_c, 1, 73, 0
2, 48720, Note_off_c, 1, 78, 0
2, 48760, Note_off_c, 1, 54, 0
2, 48800, Note_on_c, 1, 55, 127
2, 48800, Note_on_c, 1, 62, 127
2, 48800, Note_on_c, 1, 70, 127
2, 48800, Note_on_c, 1, 79, 127
2, 49160, Note_off_c, 1, 70, 0
2, 49160, Note_off_c, 1, 79, 0
2, 49200, Note_on_c, 1, 39, 127
2, 49200, Note_on_c, 1, 49, 127
2, 49200, Note_on_c, 1, 51, 127
2, 49200, Note_off_c, 1, 55, 0
2, 49200, Note_off_c, 1, 62, 0
2, 49200, Note_on_c, 1, 70, 127
2, 49200, Note_on_c, 1, 73, 127
2, 49200, Note_on_c, 1, 75, 127
2, 49240, Note_off_c, 1, 39, 0
2, 49240, Note_on_c, 1, 41, 127
2, 49240, Note_on_c, 1, 46, 127
2, 49240, Note_off_c, 1, 49, 0
2, 49240, Note_off_c, 1, 51, 0
2, 49240, Note_on_c, 1, 53, 127
2, 49240, Note_off_c, 1, 70, 0
2, 49240, Note_off_c, 1, 73, 0
2, 49240, Note_off_c, 1, 75, 0
2, 49240, Note_on_c, 1, 87, 127
2, 49560, Note_off_c, 1, 41, 0
2, 49560, Note_on_c, 1, 43, 127
2, 49560, Note_off_c, 1, 46, 0
2, 49560, Note_off_c, 1, 53, 0
2, 49560, Note_on_c, 1, 55, 127
2, 49560, Note_on_c, 1, 75, 127
2, 49560, Note_on_c, 1, 82, 127
2, 49600, Note_on_c, 1, 35, 127
2, 49600, Note_off_c, 1, 43, 0
2, 49600, Note_on_c, 1, 51, 127
2, 49600, Note_off_c, 1, 75, 0
2, 49600, Note_off_c, 1, 82, 0
2, 49600, Note_off_c, 1, 87, 0
2, 49960, Note_off_c, 1, 35, 0
2, 49960, Note_off_c, 1, 51, 0
2, 49960, Note_off_c, 1, 55, 0
2, 50000, Note_on_c, 1, 56, 127
2, 50000, Note_on_c, 1, 68, 127
2, 50000, Note_on_c, 1, 76, 127
2, 50000, Note_on_c, 1, 83, 127
2, 50000, Note_on_c, 1, 88, 127
2, 50760, Note_off_c, 1, 56, 0
2, 50760, Note_off_c, 1, 68, 0
2, 50760, Note_off_c, 1, 76, 0
2, 50760, Note_off_c, 1, 83, 0
2, 50760, Note_off_c, 1, 88, 0
2, 50840, Note_on_c, 1, 32, 127
2, 50840, Note_on_c, 1, 44, 127
2, 50840, Note_on_c, 1, 82, 127
2, 50840, Note_on_c, 1, 87, 127
2, 50840, Note_on_c, 1, 94, 127
2, 50880, Note_off_c, 1, 32, 0
2, 50880, Note_off_c, 1, 44, 0
2, 50880, Note_on_c, 1, 61, 127
2, 50880, Note_on_c, 1, 65, 127
2, 50880, Note_on_c, 1, 70, 127
2, 50880, Note_on_c, 1, 77, 127
2, 50880, Note_on_c, 1, 80, 127
2, 50880, Note_off_c, 1, 87, 0
2, 50880, Note_off_c, 1, 94, 0
2, 51200, Note_off_c, 1, 61, 0
2, 51200, Note_off_c, 1, 65, 0
2, 51200, Note_off_c, 1, 70, 0
2, 51200, Note_off_c, 1, 77, 0
2, 51200, Note_off_c, 1, 80, 0
2, 51200, Note_off_c, 1, 82, 0
2, 51240, Note_on_c, 1, 61, 127
2, 51240, Note_on_c, 1, 65, 127
2, 51240, Note_on_c, 1, 70, 127
2, 51240, Note_on_c, 1, 77, 127
2, 51240, Note_on_c, 1, 80, 127
2, 51240, Note_on_c, 1, 82, 127
2, 51600, Note_off_c, 1, 61, 0
2, 51600, Note_off_c, 1, 65, 0
2, 51600, Note_off_c, 1, 70, 0
2, 51600, Note_off_c, 1, 77, 0
2, 51600, Note_off_c, 1, 80, 0
2, 51600, Note_off_c, 1, 82, 0
2, 51640, Note_on_c, 1, 44, 127
2, 51640, Note_on_c, 1, 66, 127
2, 51640, Note_on_c, 1, 70, 127
2, 51640, Note_on_c, 1, 73, 127
2, 51640, Note_on_c, 1, 77, 127
2, 52400, Note_off_c, 1, 44, 0
2, 52400, Note_on_c, 1, 56, 127
2, 52400, Note_off_c, 1, 66, 0
2, 52400, Note_off_c, 1, 70, 0
2, 52400, Note_off_c, 1, 73, 0
2, 52400, Note_on_c, 1, 75, 127
2, 52400, Note_off_c, 1, 77, 0
2, 52400, Note_on_c, 1, 82, 127
2, 52400, Note_on_c, 1, 85, 127
2, 52440, Note_on_c, 1, 44, 127
2, 52440, Note_on_c, 1, 53, 127
2, 52440, Note_off_c, 1, 56, 0
2, 52440, Note_on_c, 1, 59, 127
2, 52440, Note_on_c, 1, 63, 127
2, 52440, Note_on_c, 1, 68, 127
2, 52440, Note_off_c, 1, 82, 0
2, 52440, Note_off_c, 1, 85, 0
2, 52800, Note_off_c, 1, 44, 0
2, 52800, Note_off_c, 1, 53, 0
2, 52800, Note_off_c, 1, 59, 0
2, 52800, Note_off_c, 1, 63, 0
2, 52800, Note_off_c, 1, 68, 0
2, 52800, Note_off_c, 1, 75, 0
2, 52880, Note_on_c, 1, 44, 127
2, 52880, Note_on_c, 1, 48, 127
2, 52880, Note_on_c, 1, 60, 127
2, 52880, Note_on_c, 1, 65, 127
2, 52880, Note_on_c, 1, 72, 127
2, 53240, Note_off_c, 1, 48, 0
2, 53240, Note_on_c, 1, 49, 127
2, 54040, Note_on_c, 1, 48, 127
2, 54040, Note_off_c, 1, 49, 0
2, 54400, Note_off_c, 1, 44, 0
2, 54400, Note_off_c, 1, 48, 0
2, 54400, Note_off_c, 1, 60, 0
2, 54400, Note_off_c, 1, 65, 0
2, 54400, Note_off_c, 1, 72, 0
2, 54440, Note_on_c, 1, 48, 127
2, 54440, Note_on_c, 1, 55, 127
2, 54440, Note_on_c, 1, 64, 127
2, 54440, Note_on_c, 1, 67, 127
2, 55360, Note_off_c, 1, 48, 0
2, 55360, Note_off_c, 1, 55, 0
2, 55360, Note_off_c, 1, 64, 0
2, 55360, Note_off_c, 1, 67, 0
2, 55400, Note_on_c, 1, 48, 127
2, 55400, Note_on_c, 1, 55, 127
2, 55400, Note_on_c, 1, 64, 127
2, 55400, Note_on_c, 1, 67, 127
2, 55640, Note_off_c, 1, 48, 0
2, 55640, Note_off_c, 1, 55, 0
2, 55640, Note_off_c, 1, 64, 0
2, 55640, Note_off_c, 1, 67, 0
2, 55680, Note_on_c, 1, 61, 127
2, 55680, Note_on_c, 1, 70, 127
2, 55680, Note_on_c, 1, 72, 127
2, 55720, Note_on_c, 1, 60, 127
2, 55720, Note_off_c, 1, 61, 0
2, 55720, Note_off_c, 1, 72, 0
2, 55720, Note_on_c, 1, 75, 127
2, 56040, Note_off_c, 1, 75, 0
2, 56080, Note_on_c, 1, 75, 127
2, 56440, Note_off_c, 1, 60, 0
2, 56440, Note_off_c, 1, 75, 0
2, 56480, Note_on_c, 1, 62, 127
2, 56480, Note_on_c, 1, 77, 127
2, 57640, Note_off_c, 1, 62, 0
2, 57640, Note_off_c, 1, 70, 0
2, 57640, Note_off_c, 1, 77, 0
2, 57680, Note_on_c, 1, 62, 127
2, 57680, Note_on_c, 1, 70, 127
2, 58440, Note_off_c, 1, 62, 0
2, 58440, Note_off_c, 1, 70, 0
2, 58480, Note_on_c, 1, 54, 127
2, 58480, Note_on_c, 1, 61, 127
2, 58480, Note_on_c, 1, 70, 127
2, 59240, Note_off_c, 1, 61, 0
2, 59280, Note_on_c, 1, 61, 127
2, 60000, Note_off_c, 1, 54, 0
2, 60000, Note_off_c, 1, 61, 0
2, 60000, Note_off_c, 1, 70, 0
2, 60040, Note_on_c, 1, 54, 127
2, 60040, Note_on_c, 1, 61, 127
2, 60040, Note_on_c, 1, 70, 127
2, 60080, Note_off_c, 1, 54, 0
2, 60080, Note_off_c, 1, 61, 0
2, 60080, Note_off_c, 1, 70, 0
2, 60120, Note_on_c, 1, 55, 127
2, 60120, Note_on_c, 1, 57, 127
2, 60120, Note_on_c, 1, 73, 127
2, 60440, Note_off_c, 1, 57, 0
2, 60480, Note_on_c, 1, 63, 127
2, 60840, Note_off_c, 1, 63, 0
2, 60880, Note_off_c, 1, 55, 0
2, 60880, Note_on_c, 1, 58, 127
2, 60880, Note_on_c, 1, 74, 127
2, 60960, Note_on_c, 1, 46, 127
2, 60960, Note_on_c, 1, 52, 127
2, 60960, Note_off_c, 1, 58, 0
2, 60960, Note_off_c, 1, 74, 0
2, 61000, Note_on_c, 1, 64, 127
2, 61040, Note_off_c, 1, 64, 0
2, 61160, Note_on_c, 1, 64, 127
2, 61240, Note_off_c, 1, 46, 0
2, 61240, Note_off_c, 1, 52, 0
2, 61240, Note_on_c, 1, 71, 127
2, 61280, Note_on_c, 1, 40, 127
2, 61280, Note_on_c, 1, 47, 127
2, 61280, Note_on_c, 1, 52, 127
2, 61280, Note_off_c, 1, 64, 0
2, 61280, Note_off_c, 1, 71, 0
2, 61280, Note_off_c, 1, 73, 0
2, 61280, Note_on_c, 1, 76, 127
2, 61280, Note_on_c, 1, 79, 127
2, 61280, Note_on_c, 1, 83, 127
2, 61600, Note_on_c, 1, 59, 127
2, 61600, Note_off_c, 1, 76, 0
2, 61600, Note_off_c, 1, 79, 0
2, 61600, Note_off_c, 1, 83, 0
2, 61640, Note_off_c, 1, 40, 0
2, 61640, Note_off_c, 1, 47, 0
2, 61640, Note_off_c, 1, 52, 0
2, 61640, Note_off_c, 1, 59, 0
2, 61640, Note_on_c, 1, 61, 127
2, 61680, Note_on_c, 1, 54, 127
2, 61680, Note_on_c, 1, 58, 127
2, 61680, Note_off_c, 1, 61, 0
2, 61680, Note_on_c, 1, 66, 127
2, 61680, Note_on_c, 1, 73, 127
2, 62400, Note_off_c, 1, 54, 0
2, 62400, Note_off_c, 1, 58, 0
2, 62400, Note_off_c, 1, 66, 0
2, 62400, Note_off_c, 1, 73, 0
2, 62440, Note_on_c, 1, 54, 127
2, 62440, Note_on_c, 1, 58, 127
2, 62440, Note_on_c, 1, 66, 127
2, 62440, Note_on_c, 1, 73, 127
2, 62480, Note_off_c, 1, 66, 0
2, 62520, Note_on_c, 1, 66, 127
2, 62880, Note_off_c, 1, 58, 0
2, 62880, Note_off_c, 1, 66, 0
2, 62880, Note_off_c, 1, 73, 0
2, 62920, Note_on_c, 1, 58, 127
2, 62920, Note_on_c, 1, 66, 127
2, 62920, Note_on_c, 1, 73, 127
2, 63240, Note_off_c, 1, 73, 0
2, 63640, Note_off_c, 1, 58, 0
2, 63680, Note_off_c, 1, 54, 0
2, 63680, Note_on_c, 1, 55, 127
2, 63680, Note_on_c, 1, 57, 127
2, 63680, Note_on_c, 1, 64, 127
2, 63680, Note_off_c, 1, 66, 0
2, 63680, Note_on_c, 1, 83, 127
2, 63720, Note_on_c, 1, 47, 127
2, 63720, Note_on_c, 1, 50, 127
2, 63720, Note_on_c, 1, 54, 127
2, 63720, Note_off_c, 1, 55, 0
2, 63720, Note_off_c, 1, 57, 0
2, 63720, Note_off_c, 1, 64, 0
2, 63720, Note_on_c, 1, 78, 127
2, 63720, Note_off_c, 1, 83, 0
2, 63760, Note_off_c, 1, 47, 0
2, 63760, Note_off_c, 1, 50, 0
2, 63760, Note_off_c, 1, 54, 0
2, 63760, Note_on_c, 1, 60, 127
2, 63760, Note_on_c, 1, 63, 127
2, 63760, Note_on_c, 1, 69, 127
2, 63760, Note_on_c, 1, 72, 127
2, 63760, Note_off_c, 1, 78, 0
2, 63760, Note_on_c, 1, 87, 127
2, 63800, Note_on_c, 1, 43, 127
2, 63800, Note_off_c, 1, 60, 0
2, 63800, Note_off_c, 1, 63, 0
2, 63800, Note_off_c, 1, 69, 0
2, 63800, Note_off_c, 1, 72, 0
2, 63800, Note_on_c, 1, 81, 127
2, 63800, Note_on_c, 1, 83, 127
2, 63800, Note_on_c, 1, 86, 127
2, 63800, Note_off_c, 1, 87, 0
2, 63800, Note_on_c, 1, 93, 127
2, 63960, Note_off_c, 1, 43, 0
2, 63960, Note_on_c, 1, 58, 127
2, 63960, Note_on_c, 1, 64, 127
2, 63960, Note_on_c, 1, 79, 127
2, 63960, Note_off_c, 1, 81, 0
2, 63960, Note_off_c, 1, 83, 0
2, 63960, Note_on_c, 1, 85, 127
2, 63960, Note_off_c, 1, 86, 0
2, 63960, Note_off_c, 1, 93, 0
2, 64000, Note_on_c, 1, 47, 127
2, 64000, Note_on_c, 1, 51, 127
2, 64000, Note_off_c, 1, 58, 0
2, 64000, Note_on_c, 1, 59, 127
2, 64000, Note_off_c, 1, 64, 0
2, 64000, Note_on_c, 1, 67, 127
2, 64000, Note_off_c, 1, 79, 0
2, 64000, Note_off_c, 1, 85, 0
2, 64040, Note_off_c, 1, 47, 0
2, 64040, Note_off_c, 1, 51, 0
2, 64040, Note_on_c, 1, 57, 127
2, 64040, Note_off_c, 1, 59, 0
2, 64040, Note_off_c, 1, 67, 0
2, 64040, Note_on_c, 1, 84, 127
2, 64040, Note_on_c, 1, 87, 127
2, 64040, Note_on_c, 1, 90, 127
2, 64040, Note_on_c, 1, 96, 127
2, 64080, Note_on_c, 1, 50, 127
2, 64080, Note_on_c, 1, 54, 127
2, 64080, Note_off_c, 1, 57, 0
2, 64080, Note_on_c, 1, 62, 127
2, 64080, Note_on_c, 1, 73, 127
2, 64080, Note_on_c, 1, 81, 127
2, 64080, Note_off_c, 1, 84, 0
2, 64080, Note_off_c, 1, 87, 0
2, 64080, Note_off_c, 1, 90, 0
2, 64080, Note_off_c, 1, 96, 0
2, 64200, Note_on_c, 1, 61, 127
2, 64200, Note_off_c, 1, 62, 0
2, 64240, Note_on_c, 1, 31, 127
2, 64240, Note_on_c, 1, 37, 127
2, 64240, Note_on_c, 1, 43, 127
2, 64240, Note_off_c, 1, 50, 0
2, 64240, Note_off_c, 1, 54, 0
2, 64240, Note_off_c, 1, 61, 0
2, 64240, Note_on_c, 1, 64, 127
2, 64240, Note_off_c, 1, 73, 0
2, 64240, Note_off_c, 1, 81, 0
2, 64280, Note_off_c, 1, 31, 0
2, 64280, Note_off_c, 1, 37, 0
2, 64280, Note_on_c, 1, 38, 127
2, 64280, Note_on_c, 1, 41, 127
2, 64280, Note_off_c, 1, 43, 0
2, 64280, Note_on_c, 1, 50, 127
2, 64280, Note_off_c, 1, 64, 0
2, 64280, Note_on_c, 1, 69, 127
2, 64280, Note_on_c, 1, 81, 127
2, 64320, Note_off_c, 1, 38, 0
2, 64320, Note_off_c, 1, 41, 0
2, 64320, Note_off_c, 1, 50, 0
2, 64320, Note_on_c, 1, 58, 127
2, 64320, Note_on_c, 1, 64, 127
2, 64320, Note_on_c, 1, 66, 127
2, 64320, Note_off_c, 1, 69, 0
2, 64320, Note_on_c, 1, 73, 127
2, 64320, Note_on_c, 1, 76, 127
2, 64320, Note_on_c, 1, 78, 127
2, 64320, Note_off_c, 1, 81, 0
2, 64320, Note_on_c, 1, 82, 127
2, 64320, Note_on_c, 1, 85, 127
2, 64360, Note_on_c, 1, 38, 127
2, 64360, Note_on_c, 1, 41, 127
2, 64360, Note_on_c, 1, 50, 127
2, 64360, Note_off_c, 1, 58, 0
2, 64360, Note_off_c, 1, 64, 0
2, 64360, Note_off_c, 1, 66, 0
2, 64360, Note_on_c, 1, 69, 127
2, 64360, Note_off_c, 1, 73, 0
2, 64360, Note_off_c, 1, 76, 0
2, 64360, Note_off_c, 1, 78, 0
2, 64360, Note_on_c, 1, 81, 127
2, 64360, Note_off_c, 1, 82, 0
2, 64360, Note_off_c, 1, 85, 0
2, 64400, Note_off_c, 1, 38, 0
2, 64400, Note_off_c, 1, 41, 0
2, 64400, Note_off_c, 1, 50, 0
2, 64400, Note_on_c, 1, 59, 127
2, 64400, Note_off_c, 1, 69, 0
2, 64400, Note_on_c, 1, 70, 127
2, 64400, Note_on_c, 1, 73, 127
2, 64400, Note_on_c, 1, 78, 127
2, 64400, Note_off_c, 1, 81, 0
2, 64440, Note_off_c, 1, 59, 0
2, 64440, Note_on_c, 1, 64, 127
2, 64440, Note_off_c, 1, 70, 0
2, 64440, Note_off_c, 1, 73, 0
2, 64440, Note_off_c, 1, 78, 0
2, 64480, Note_off_c, 1, 64, 0
2, 64520, Note_on_c, 1, 52, 127
2, 64520, Note_on_c, 1, 57, 127
2, 64520, Note_on_c, 1, 65, 127
2, 64520, Note_on_c, 1, 69, 127
2, 64520, Note_on_c, 1, 76, 127
2, 64720, Note_off_c, 1, 76, 0
2, 64880, Note_off_c, 1, 52, 0
2, 64880, Note_off_c, 1, 57, 0
2, 64880, Note_off_c, 1, 65, 0
2, 64880, Note_off_c, 1, 69, 0
2, 64920, Note_on_c, 1, 30, 127
2, 64920, Note_on_c, 1, 42, 127
2, 64920, Note_on_c, 1, 68, 127
2, 64920, Note_on_c, 1, 71, 127
2, 65080, Note_off_c, 1, 68, 0
2, 65280, Note_off_c, 1, 30, 0
2, 65280, Note_off_c, 1, 42, 0
2, 65280, Note_off_c, 1, 71, 0
2, 65320, Note_on_c, 1, 52, 127
2, 65320, Note_on_c, 1, 55, 127
2, 65320, Note_on_c, 1, 58, 127
2, 65320, Note_on_c, 1, 64, 127
2, 65320, Note_on_c, 1, 76, 127
2, 65320, Note_on_c, 1, 79, 127
2, 65320, Note_on_c, 1, 82, 127
2, 65320, Note_on_c, 1, 88, 127
2, 65360, Note_on_c, 1, 51, 127
2, 65360, Note_off_c, 1, 52, 0
2, 65360, Note_off_c, 1, 55, 0
2, 65360, Note_off_c, 1, 58, 0
2, 65360, Note_on_c, 1, 59, 127
2, 65360, Note_on_c, 1, 62, 127
2, 65360, Note_off_c, 1, 64, 0
2, 65360, Note_on_c, 1, 67, 127
2, 65360, Note_on_c, 1, 71, 127
2, 65360, Note_off_c, 1, 76, 0
2, 65360, Note_off_c, 1, 79, 0
2, 65360, Note_off_c, 1, 82, 0
2, 65360, Note_off_c, 1, 88, 0
2, 65640, Note_on_c, 1, 43, 127
2, 65640, Note_off_c, 1, 51, 0
2, 65640, Note_on_c, 1, 55, 127
2, 65640, Note_off_c, 1, 59, 0
2, 65640, Note_off_c, 1, 62, 0
2, 65640, Note_on_c, 1, 65, 127
2, 65640, Note_off_c, 1, 67, 0
2, 65640, Note_on_c, 1, 73, 127
2, 65680, Note_off_c, 1, 43, 0
2, 65680, Note_off_c, 1, 55, 0
2, 65680, Note_off_c, 1, 65, 0
2, 65680, Note_off_c, 1, 71, 0
2, 65680, Note_on_c, 1, 72, 127
2, 65680, Note_off_c, 1, 73, 0
2, 65680, Note_on_c, 1, 80, 127
2, 65680, Note_on_c, 1, 84, 127
2, 65680, Note_on_c, 1, 87, 127
2, 65680, Note_on_c, 1, 96, 127
2, 65800, Note_on_c, 1, 79, 127
2, 65800, Note_off_c, 1, 80, 0
2, 65840, Note_off_c, 1, 79, 0
2, 65840, Note_on_c, 1, 80, 127
2, 66080, Note_on_c, 1, 79, 127
2, 66080, Note_off_c, 1, 80, 0
2, 66440, Note_on_c, 1, 39, 127
2, 66440, Note_on_c, 1, 51, 127
2, 66440, Note_off_c, 1, 72, 0
2, 66440, Note_off_c, 1, 79, 0
2, 66440, Note_off_c, 1, 84, 0
2, 66440, Note_off_c, 1, 87, 0
2, 66440, Note_off_c, 1, 96, 0
2, 66480, Note_on_c, 1, 33, 127
2, 66480, Note_off_c, 1, 39, 0
2, 66480, Note_on_c, 1, 45, 127
2, 66480, Note_off_c, 1, 51, 0
2, 66480, Note_on_c, 1, 57, 127
2, 66480, Note_on_c, 1, 64, 127
2, 66480, Note_on_c, 1, 67, 127
2, 66480, Note_on_c, 1, 69, 127
2, 66680, Note_off_c, 1, 33, 0
2, 66680, Note_off_c, 1, 45, 0
2, 66680, Note_off_c, 1, 57, 0
2, 66680, Note_off_c, 1, 64, 0
2, 66680, Note_off_c, 1, 67, 0
2, 66680, Note_off_c, 1, 69, 0
2, 66720, Note_on_c, 1, 33, 127
2, 66720, Note_on_c, 1, 45, 127
2, 66720, Note_on_c, 1, 57, 127
2, 66720, Note_on_c, 1, 64, 127
2, 66720, Note_on_c, 1, 67, 127
2, 66720, Note_on_c, 1, 69, 127
2, 67280, Note_off_c, 1, 33, 0
2, 67280, Note_off_c, 1, 45, 0
2, 67280, Note_off_c, 1, 57, 0
2, 67280, Note_off_c, 1, 64, 0
2, 67280, Note_off_c, 1, 67, 0
2, 67280, Note_off_c, 1, 69, 0
2, 67320, Note_on_c, 1, 83, 127
2, 67320, Note_on_c, 1, 84, 127
2, 67320, Note_on_c, 1, 88, 127
2, 67360, Note_on_c, 1, 52, 127
2, 67360, Note_on_c, 1, 64, 127
2, 67360, Note_on_c, 1, 80, 127
2, 67360, Note_off_c, 1, 83, 0
2, 67360, Note_off_c, 1, 84, 0
2, 67360, Note_on_c, 1, 87, 127
2, 67360, Note_off_c, 1, 88, 0
2, 67360, Note_on_c, 1, 92, 127
2, 68080, Note_off_c, 1, 52, 0
2, 68080, Note_off_c, 1, 64, 0
2, 68080, Note_off_c, 1, 80, 0
2, 68080, Note_off_c, 1, 87, 0
2, 68080, Note_off_c, 1, 92, 0
2, 68120, Note_on_c, 1, 41, 127
2, 68120, Note_on_c, 1, 46, 127
2, 68120, Note_on_c, 1, 61, 127
2, 68120, Note_on_c, 1, 70, 127
2, 68160, Note_on_c, 1, 38, 127
2, 68160, Note_off_c, 1, 41, 0
2, 68160, Note_off_c, 1, 46, 0
2, 68160, Note_on_c, 1, 50, 127
2, 68160, Note_off_c, 1, 61, 0
2, 68160, Note_on_c, 1, 64, 127
2, 68160, Note_on_c, 1, 68, 127
2, 68160, Note_off_c, 1, 70, 0
2, 68160, Note_on_c, 1, 73, 127
2, 68160, Note_on_c, 1, 78, 127
2, 68840, Note_off_c, 1, 38, 0
2, 68840, Note_off_c, 1, 50, 0
2, 68840, Note_off_c, 1, 64, 0
2, 68840, Note_off_c, 1, 68, 0
2, 68840, Note_off_c, 1, 73, 0
2, 68840, Note_off_c, 1, 78, 0
2, 68880, Note_on_c, 1, 38, 127
2, 68880, Note_on_c, 1, 50, 127
2, 68880, Note_on_c, 1, 64, 127
2, 68880, Note_on_c, 1, 68, 127
2, 68880, Note_on_c, 1, 73, 127
2, 68880, Note_on_c, 1, 78, 127
2, 68920, Note_off_c, 1, 38, 0
2, 68920, Note_off_c, 1, 50, 0
2, 68920, Note_off_c, 1, 64, 0
2, 68920, Note_off_c, 1, 68, 0
2, 68920, Note_off_c, 1, 73, 0
2, 68920, Note_off_c, 1, 78, 0
2, 68960, Note_on_c, 1, 46, 127
2, 68960, Note_on_c, 1, 54, 127
2, 68960, Note_on_c, 1, 65, 127
2, 68960, Note_on_c, 1, 73, 127
2, 68960, Note_on_c, 1, 77, 127
2, 69320, Note_on_c, 1, 41, 127
2, 69320, Note_off_c, 1, 46, 0
2, 69320, Note_on_c, 1, 50, 127
2, 69320, Note_on_c, 1, 53, 127
2, 69320, Note_off_c, 1, 54, 0
2, 69320, Note_on_c, 1, 58, 127
2, 69320, Note_on_c, 1, 62, 127
2, 69320, Note_off_c, 1, 65, 0
2, 69320, Note_off_c, 1, 73, 0
2, 69320, Note_off_c, 1, 77, 0
2, 69360, Note_off_c, 1, 41, 0
2, 69360, Note_on_c, 1, 46, 127
2, 69360, Note_off_c, 1, 50, 0
2, 69360, Note_off_c, 1, 53, 0
2, 69360, Note_on_c, 1, 54, 127
2, 69360, Note_off_c, 1, 58, 0
2, 69360, Note_off_c, 1, 62, 0
2, 69360, Note_on_c, 1, 65, 127
2, 69360, Note_on_c, 1, 73, 127
2, 69360, Note_on_c, 1, 77, 127
2, 69720, Note_off_c, 1, 46, 0
2, 69720, Note_off_c, 1, 54, 0
2, 69720, Note_off_c, 1, 65, 0
2, 69720, Note_off_c, 1, 73, 0
2, 69720, Note_off_c, 1, 77, 0
2, 69760, Note_on_c, 1, 28, 127
2, 69760, Note_on_c, 1, 40, 127
2, 69760, Note_on_c, 1, 51, 127
2, 69760, Note_on_c, 1, 63, 127
2, 69800, Note_off_c, 1, 28, 0
2, 69800, Note_on_c, 1, 29, 127
2, 69800, Note_off_c, 1, 40, 0
2, 69800, Note_on_c, 1, 41, 127
2, 70520, Note_off_c, 1, 29, 0
2, 70520, Note_off_c, 1, 41, 0
2, 70520, Note_off_c, 1, 51, 0
2, 70520, Note_off_c, 1, 63, 0
2, 70560, Note_on_c, 1, 33, 127
2, 70560, Note_on_c, 1, 45, 127
2, 70560, Note_on_c, 1, 67, 127
2, 70560, Note_on_c, 1, 73, 127
2, 70840, Note_off_c, 1, 33, 0
2, 70840, Note_off_c, 1, 45, 0
2, 70840, Note_off_c, 1, 67, 0
2, 70840, Note_off_c, 1, 73, 0
2, 70880, Note_on_c, 1, 33, 127
2, 70880, Note_on_c, 1, 45, 127
2, 70880, Note_on_c, 1, 67, 127
2, 70880, Note_on_c, 1, 73, 127
2, 71720, Note_off_c, 1, 33, 0
2, 71720, Note_off_c, 1, 45, 0
2, 71720, Note_off_c, 1, 67, 0
2, 71720, Note_off_c, 1, 73, 0
2, 71760, Note_on_c, 1, 33, 127
2, 71760, Note_on_c, 1, 45, 127
2, 71760, Note_on_c, 1, 67, 127
2, 71760, Note_on_c, 1, 73, 127
2, 72120, Note_off_c, 1, 33, 0
2, 72120, Note_on_c, 1, 37, 127
2, 72120, Note_on_c, 1, 41, 127
2, 72120, Note_off_c, 1, 45, 0
2, 72120, Note_on_c, 1, 49, 127
2, 72120, Note_off_c, 1, 67, 0
2, 72120, Note_off_c, 1, 73, 0
2, 72160, Note_on_c, 1, 33, 127
2, 72160, Note_off_c, 1, 37, 0
2, 72160, Note_off_c, 1, 41, 0
2, 72160, Note_on_c, 1, 45, 127
2, 72160, Note_off_c, 1, 49, 0
2, 72160, Note_on_c, 1, 67, 127
2, 72160, Note_on_c, 1, 73, 127
2, 72880, Note_off_c, 1, 33, 0
2, 72880, Note_on_c, 1, 41, 127
2, 72880, Note_off_c, 1, 45, 0
2, 72880, Note_on_c, 1, 48, 127
2, 72880, Note_on_c, 1, 60, 127
2, 72880, Note_off_c, 1, 67, 0
2, 72880, Note_on_c, 1, 68, 127
2, 72880, Note_on_c, 1, 72, 127
2, 72880, Note_off_c, 1, 73, 0
2, 72920, Note_off_c, 1, 41, 0
2, 72920, Note_off_c, 1, 48, 0
2, 72920, Note_off_c, 1, 60, 0
2, 72920, Note_off_c, 1, 68, 0
2, 72920, Note_off_c, 1, 72, 0
2, 73000, Note_on_c, 1, 51, 127
2, 73000, Note_on_c, 1, 54, 127
2, 73000, Note_on_c, 1, 63, 127
2, 73000, Note_on_c, 1, 70, 127
2, 73000, Note_on_c, 1, 75, 127
2, 74120, Note_off_c, 1, 51, 0
2, 74120, Note_off_c, 1, 54, 0
2, 74120, Note_on_c, 1, 58, 127
2, 74120, Note_off_c, 1, 63, 0
2, 74120, Note_on_c, 1, 64, 127
2, 74120, Note_on_c, 1, 67, 127
2, 74120, Note_off_c, 1, 70, 0
2, 74120, Note_on_c, 1, 73, 127
2, 74120, Note_off_c, 1, 75, 0
2, 74160, Note_off_c, 1, 58, 0
2, 74160, Note_off_c, 1, 64, 0
2, 74160, Note_off_c, 1, 67, 0
2, 74160, Note_off_c, 1, 73, 0
2, 74200, Note_on_c, 1, 41, 127
2, 74200, Note_on_c, 1, 49, 127
2, 74200, Note_on_c, 1, 53, 127
2, 75200, Note_off_c, 1, 41, 0
2, 75200, Note_off_c, 1, 49, 0
2, 75200, Note_off_c, 1, 53, 0
2, 75240, Note_on_c, 1, 41, 127
2, 75240, Note_on_c, 1, 49, 127
2, 75240, Note_on_c, 1, 53, 127
2, 75800, Note_off_c, 1, 41, 0
2, 75800, Note_off_c, 1, 49, 0
2, 75800, Note_off_c, 1, 53, 0
2, 75840, Note_on_c, 1, 41, 127
2, 75840, Note_on_c, 1, 49, 127
2, 75840, Note_on_c, 1, 53, 127
2, 77400, Note_off_c, 1, 41, 0
2, 77400, Note_off_c, 1, 49, 0
2, 77400, Note_off_c, 1, 53, 0
2, 77480, Note_on_c, 1, 41, 127
2, 77480, Note_on_c, 1, 49, 127
2, 77480, Note_on_c, 1, 53, 127
2, 79040, Note_off_c, 1, 41, 0
2, 79040, Note_off_c, 1, 49, 0
2, 79040, Note_off_c, 1, 53, 0
2, 79080, Note_on_c, 1, 41, 127
2, 79080, Note_on_c, 1, 49, 127
2, 79080, Note_on_c, 1, 53, 127
2, 79680, Note_off_c, 1, 41, 0
2, 79680, Note_off_c, 1, 49, 0
2, 79680, Note_off_c, 1, 53, 0
2, 79720, Note_on_c, 1, 41, 127
2, 79720, Note_on_c, 1, 49, 127
2, 79720, Note_on_c, 1, 53, 127
2, 80240, Note_off_c, 1, 41, 0
2, 80240, Note_off_c, 1, 49, 0
2, 80240, Note_off_c, 1, 53, 0
2, 80280, Note_on_c, 1, 37, 127
2, 80280, Note_on_c, 1, 49, 127
2, 80280, Note_on_c, 1, 61, 127
2, 82280, Note_off_c, 1, 37, 0
2, 82280, Note_off_c, 1, 49, 0
2, 82280, Note_off_c, 1, 61, 0
2, 82320, Note_on_c, 1, 37, 127
2, 82320, Note_on_c, 1, 49, 127
2, 82320, Note_on_c, 1, 61, 127
2, 83880, Note_off_c, 1, 37, 0
2, 83880, Note_off_c, 1, 49, 0
2, 83880, Note_off_c, 1, 61, 0
2, 85760, Note_on_c, 1, 60, 127
2, 85760, Note_on_c, 1, 64, 127
2, 85760, Note_on_c, 1, 67, 127
2, 85760, Note_on_c, 1, 76, 127
2, 86920, Note_off_c, 1, 60, 0
2, 86920, Note_off_c, 1, 64, 0
2, 86920, Note_off_c, 1, 67, 0
2, 86920, Note_off_c, 1, 76, 0
2, 86960, Note_on_c, 1, 60, 127
2, 86960, Note_on_c, 1, 64, 127
2, 86960, Note_on_c, 1, 67, 127
2, 86960, Note_on_c, 1, 76, 127
2, 87760, Note_off_c, 1, 60, 0
2, 87760, Note_off_c, 1, 64, 0
2, 87760, Note_off_c, 1, 67, 0
2, 87760, Note_off_c, 1, 76, 0
2, 87800, Note_on_c, 1, 60, 127
2, 87800, Note_on_c, 1, 64, 127
2, 87800, Note_on_c, 1, 67, 127
2, 87800, Note_on_c, 1, 76, 127
2, 88160, Note_off_c, 1, 60, 0
2, 88160, Note_off_c, 1, 64, 0
2, 88160, Note_off_c, 1, 67, 0
2, 88160, Note_off_c, 1, 76, 0
2, 88200, Note_on_c, 1, 55, 127
2, 88200, Note_on_c, 1, 62, 127
2, 88200, Note_on_c, 1, 71, 127
2, 88200, Note_on_c, 1, 74, 127
2, 89360, Note_off_c, 1, 55, 0
2, 89360, Note_off_c, 1, 62, 0
2, 89360, Note_off_c, 1, 71, 0
2, 89360, Note_off_c, 1, 74, 0
2, 89440, Note_on_c, 1, 49, 127
2, 89440, Note_on_c, 1, 57, 127
2, 89440, Note_on_c, 1, 64, 127
2, 89440, Note_on_c, 1, 69, 127
2, 89800, Note_off_c, 1, 49, 0
2, 89800, Note_off_c, 1, 57, 0
2, 89800, Note_off_c, 1, 64, 0
2, 89800, Note_off_c, 1, 69, 0
2, 89880, Note_on_c, 1, 49, 127
2, 89880, Note_on_c, 1, 57, 127
2, 89880, Note_on_c, 1, 64, 127
2, 89880, Note_on_c, 1, 69, 127
2, 90240, Note_off_c, 1, 49, 0
2, 90240, Note_off_c, 1, 57, 0
2, 90240, Note_off_c, 1, 64, 0
2, 90240, Note_off_c, 1, 69, 0
2, 90280, Note_on_c, 1, 60, 127
2, 90280, Note_on_c, 1, 63, 127
2, 90280, Note_on_c, 1, 66, 127
2, 90280, Note_on_c, 1, 74, 127
2, 90280, Note_on_c, 1, 78, 127
2, 90320, Note_on_c, 1, 50, 127
2, 90320, Note_off_c, 1, 60, 0
2, 90320, Note_on_c, 1, 62, 127
2, 90320, Note_off_c, 1, 63, 0
2, 90320, Note_off_c, 1, 66, 0
2, 90320, Note_on_c, 1, 72, 127
2, 90320, Note_on_c, 1, 81, 127
2, 91040, Note_off_c, 1, 50, 0
2, 91040, Note_off_c, 1, 62, 0
2, 91040, Note_off_c, 1, 72, 0
2, 91040, Note_off_c, 1, 74, 0
2, 91040, Note_off_c, 1, 78, 0
2, 91040, Note_off_c, 1, 81, 0
2, 91080, Note_on_c, 1, 55, 127
2, 91080, Note_on_c, 1, 62, 127
2, 91080, Note_on_c, 1, 71, 127
2, 91080, Note_on_c, 1, 74, 127
2, 91080, Note_on_c, 1, 79, 127
2, 92000, Note_off_c, 1, 55, 0
2, 92000, Note_off_c, 1, 62, 0
2, 92000, Note_off_c, 1, 71, 0
2, 92000, Note_off_c, 1, 74, 0
2, 92000, Note_off_c, 1, 79, 0
2, 92040, Note_on_c, 1, 55, 127
2, 92040, Note_on_c, 1, 62, 127
2, 92040, Note_on_c, 1, 71, 127
2, 92040, Note_on_c, 1, 74, 127
2, 92040, Note_on_c, 1, 79, 127
2, 92680, Note_on_c, 1, 54, 127
2, 92680, Note_off_c, 1, 55, 0
2, 92680, Note_off_c, 1, 62, 0
2, 92680, Note_off_c, 1, 71, 0
2, 92680, Note_off_c, 1, 74, 0
2, 92680, Note_off_c, 1, 79, 0
2, 92720, Note_off_c, 1, 54, 0
2, 92720, Note_on_c, 1, 55, 127
2, 92720, Note_on_c, 1, 62, 127
2, 92720, Note_on_c, 1, 71, 127
2, 92720, Note_on_c, 1, 74, 127
2, 92720, Note_on_c, 1, 79, 127
2, 94280, Note_off_c, 1, 55, 0
2, 94280, Note_off_c, 1, 62, 0
2, 94280, Note_on_c, 1, 63, 127
2, 94280, Note_on_c, 1, 69, 127
2, 94280, Note_off_c, 1, 71, 0
2, 94280, Note_on_c, 1, 73, 127
2, 94280, Note_off_c, 1, 74, 0
2, 94280, Note_on_c, 1, 76, 127
2, 94280, Note_off_c, 1, 79, 0
2, 94280, Note_on_c, 1, 80, 127
2, 94320, Note_off_c, 1, 63, 0
2, 94320, Note_off_c, 1, 69, 0
2, 94320, Note_off_c, 1, 73, 0
2, 94320, Note_off_c, 1, 76, 0
2, 94320, Note_off_c, 1, 80, 0
2, 94360, Note_on_c, 1, 55, 127
2, 94360, Note_on_c, 1, 76, 127
2, 94360, Note_on_c, 1, 81, 127
2, 94400, Note_off_c, 1, 55, 0
2, 94400, Note_on_c, 1, 57, 127
2, 94400, Note_on_c, 1, 64, 127
2, 94400, Note_on_c, 1, 69, 127
2, 94400, Note_on_c, 1, 72, 127
2, 94400, Note_off_c, 1, 76, 0
2, 94400, Note_on_c, 1, 78, 127
2, 94400, Note_off_c, 1, 81, 0
2, 94440, Note_on_c, 1, 53, 127
2, 94440, Note_off_c, 1, 57, 0
2, 94440, Note_on_c, 1, 58, 127
2, 94440, Note_off_c, 1, 64, 0
2, 94440, Note_on_c, 1, 67, 127
2, 94440, Note_off_c, 1, 69, 0
2, 94440, Note_off_c, 1, 72, 0
2, 94440, Note_off_c, 1, 78, 0
2, 94440, Note_on_c, 1, 85, 127
2, 94480, Note_off_c, 1, 53, 0
2, 94480, Note_on_c, 1, 57, 127
2, 94480, Note_off_c, 1, 58, 0
2, 94480, Note_on_c, 1, 66, 127
2, 94480, Note_off_c, 1, 67, 0
2, 94480, Note_on_c, 1, 72, 127
2, 94480, Note_on_c, 1, 76, 127
2, 94480, Note_off_c, 1, 85, 0
2, 94520, Note_off_c, 1, 57, 0
2, 94520, Note_off_c, 1, 66, 0
2, 94520, Note_off_c, 1, 72, 0
2, 94520, Note_off_c, 1, 76, 0
2, 96440, Note_on_c, 1, 48, 127
2, 97000, Note_off_c, 1, 48, 0
2, 97280, Note_on_c, 1, 33, 127
2, 97280, Note_on_c, 1, 40, 127
2, 97280, Note_on_c, 1, 45, 127
2, 97280, Note_on_c, 1, 57, 127
2, 97280, Note_on_c, 1, 60, 127
2, 97280, Note_on_c, 1, 64, 127
2, 97280, Note_on_c, 1, 69, 127
2, 98040, Note_off_c, 1, 33, 0
2, 98040, Note_off_c, 1, 40, 0
2, 98040, Note_off_c, 1, 45, 0
2, 98040, Note_off_c, 1, 57, 0
2, 98040, Note_off_c, 1, 60, 0
2, 98040, Note_off_c, 1, 64, 0
2, 98040, Note_off_c, 1, 69, 0
2, 98080, Note_on_c, 1, 25, 127
2, 98080, Note_on_c, 1, 37, 127
2, 98080, Note_on_c, 1, 66, 127
2, 98080, Note_on_c, 1, 73, 127
2, 99200, Note_off_c, 1, 25, 0
2, 99200, Note_off_c, 1, 37, 0
2, 99200, Note_off_c, 1, 66, 0
2, 99200, Note_off_c, 1, 73, 0
2, 99240, Note_on_c, 1, 25, 127
2, 99240, Note_on_c, 1, 37, 127
2, 99240, Note_on_c, 1, 66, 127
2, 99240, Note_on_c, 1, 73, 127
2, 99680, Note_off_c, 1, 25, 0
2, 99680, Note_off_c, 1, 37, 0
2, 99680, Note_off_c, 1, 66, 0
2, 99680, Note_off_c, 1, 73, 0
2, 99720, Note_on_c, 1, 31, 127
2, 99720, Note_on_c, 1, 38, 127
2, 99720, Note_on_c, 1, 43, 127
2, 99720, Note_on_c, 1, 79, 127
2, 99720, Note_on_c, 1, 84, 127
2, 99720, Note_on_c, 1, 86, 127
2, 99720, Note_on_c, 1, 91, 127
2, 100640, Note_off_c, 1, 31, 0
2, 100640, Note_off_c, 1, 38, 0
2, 100640, Note_off_c, 1, 43, 0
2, 100640, Note_on_c, 1, 57, 127
2, 100640, Note_on_c, 1, 60, 127
2, 100640, Note_on_c, 1, 66, 127
2, 100640, Note_on_c, 1, 78, 127
2, 100640, Note_off_c, 1, 84, 0
2, 100640, Note_off_c, 1, 86, 0
2, 100640, Note_off_c, 1, 91, 0
2, 100680, Note_on_c, 1, 31, 127
2, 100680, Note_on_c, 1, 38, 127
2, 100680, Note_on_c, 1, 43, 127
2, 100680, Note_off_c, 1, 57, 0
2, 100680, Note_off_c, 1, 60, 0
2, 100680, Note_off_c, 1, 66, 0
2, 100680, Note_off_c, 1, 78, 0
2, 100680, Note_on_c, 1, 84, 127
2, 100680, Note_on_c, 1, 86, 127
2, 100680, Note_on_c, 1, 91, 127
2, 100840, Note_off_c, 1, 31, 0
2, 100840, Note_off_c, 1, 38, 0
2, 100840, Note_off_c, 1, 43, 0
2, 100840, Note_off_c, 1, 79, 0
2, 100840, Note_off_c, 1, 84, 0
2, 100840, Note_off_c, 1, 86, 0
2, 100840, Note_off_c, 1, 91, 0
2, 100880, Note_on_c, 1, 34, 127
2, 100880, Note_on_c, 1, 41, 127
2, 100880, Note_on_c, 1, 50, 127
2, 100880, Note_on_c, 1, 53, 127
2, 100880, Note_on_c, 1, 58, 127
2, 101280, Note_off_c, 1, 34, 0
2, 101280, Note_off_c, 1, 41, 0
2, 101280, Note_off_c, 1, 50, 0
2, 101280, Note_off_c, 1, 53, 0
2, 101280, Note_off_c, 1, 58, 0
2, 101320, Note_on_c, 1, 34, 127
2, 101320, Note_on_c, 1, 41, 127
2, 101320, Note_on_c, 1, 50, 127
2, 101320, Note_on_c, 1, 53, 127
2, 101320, Note_on_c, 1, 58, 127
2, 102000, Note_off_c, 1, 34, 0
2, 102000, Note_off_c, 1, 41, 0
2, 102000, Note_off_c, 1, 50, 0
2, 102000, Note_off_c, 1, 53, 0
2, 102000, Note_off_c, 1, 58, 0
2, 102040, Note_on_c, 1, 46, 127
2, 102040, Note_on_c, 1, 53, 127
2, 102040, Note_on_c, 1, 57, 127
2, 102040, Note_on_c, 1, 65, 127
2, 102040, Note_on_c, 1, 75, 127
2, 102120, Note_on_c, 1, 63, 127
2, 102120, Note_off_c, 1, 65, 0
2, 102200, Note_off_c, 1, 63, 0
2, 102200, Note_on_c, 1, 65, 127
2, 102240, Note_on_c, 1, 63, 127
2, 102240, Note_off_c, 1, 65, 0
2, 102280, Note_off_c, 1, 63, 0
2, 102280, Note_on_c, 1, 65, 127
2, 102440, Note_off_c, 1, 46, 0
2, 102440, Note_off_c, 1, 53, 0
2, 102440, Note_on_c, 1, 55, 127
2, 102440, Note_off_c, 1, 57, 0
2, 102440, Note_on_c, 1, 58, 127
2, 102440, Note_off_c, 1, 65, 0
2, 102440, Note_on_c, 1, 73, 127
2, 102440, Note_off_c, 1, 75, 0
2, 102440, Note_on_c, 1, 79, 127
2, 102440, Note_on_c, 1, 85, 127
2, 102480, Note_on_c, 1, 46, 127
2, 102480, Note_on_c, 1, 53, 127
2, 102480, Note_off_c, 1, 55, 0
2, 102480, Note_on_c, 1, 57, 127
2, 102480, Note_off_c, 1, 58, 0
2, 102480, Note_on_c, 1, 65, 127
2, 102480, Note_off_c, 1, 73, 0
2, 102480, Note_on_c, 1, 75, 127
2, 102480, Note_off_c, 1, 79, 0
2, 102480, Note_off_c, 1, 85, 0
2, 102520, Note_on_c, 1, 63, 127
2, 102520, Note_off_c, 1, 65, 0
2, 102560, Note_off_c, 1, 63, 0
2, 102560, Note_on_c, 1, 65, 127
2, 102600, Note_on_c, 1, 44, 127
2, 102600, Note_off_c, 1, 46, 0
2, 102600, Note_off_c, 1, 53, 0
2, 102600, Note_on_c, 1, 56, 127
2, 102600, Note_off_c, 1, 57, 0
2, 102600, Note_off_c, 1, 65, 0
2, 102600, Note_on_c, 1, 74, 127
2, 102600, Note_off_c, 1, 75, 0
2, 102600, Note_on_c, 1, 80, 127
2, 102600, Note_on_c, 1, 82, 127
2, 102640, Note_off_c, 1, 44, 0
2, 102640, Note_on_c, 1, 46, 127
2, 102640, Note_on_c, 1, 53, 127
2, 102640, Note_off_c, 1, 56, 0
2, 102640, Note_on_c, 1, 57, 127
2, 102640, Note_off_c, 1, 74, 0
2, 102640, Note_on_c, 1, 75, 127
2, 102640, Note_off_c, 1, 80, 0
2, 102640, Note_off_c, 1, 82, 0
2, 102680, Note_on_c, 1, 65, 127
2, 102760, Note_on_c, 1, 63, 127
2, 102760, Note_off_c, 1, 65, 0
2, 102800, Note_off_c, 1, 63, 0
2, 102800, Note_on_c, 1, 65, 127
2, 103120, Note_off_c, 1, 65, 0
2, 103160, Note_on_c, 1, 65, 127
2, 103320, Note_off_c, 1, 46, 0
2, 103320, Note_off_c, 1, 53, 0
2, 103320, Note_off_c, 1, 57, 0
2, 103320, Note_off_c, 1, 65, 0
2, 103320, Note_off_c, 1, 75, 0
2, 103360, Note_on_c, 1, 46, 127
2, 103360, Note_on_c, 1, 53, 127
2, 103360, Note_on_c, 1, 57, 127
2, 103360, Note_on_c, 1, 65, 127
2, 103360, Note_on_c, 1, 75, 127
2, 103520, Note_off_c, 1, 46, 0
2, 103520, Note_off_c, 1, 53, 0
2, 103520, Note_off_c, 1, 57, 0
2, 103520, Note_off_c, 1, 65, 0
2, 103520, Note_off_c, 1, 75, 0
2, 103560, Note_on_c, 1, 41, 127
2, 103560, Note_on_c, 1, 50, 127
2, 104120, Note_off_c, 1, 41, 0
2, 104120, Note_off_c, 1, 50, 0
2, 104160, Note_on_c, 1, 46, 127
2, 104160, Note_on_c, 1, 52, 127
2, 104720, Note_off_c, 1, 46, 0
2, 104720, Note_off_c, 1, 52, 0
2, 104760, Note_on_c, 1, 56, 127
2, 104760, Note_on_c, 1, 62, 127
2, 104760, Note_on_c, 1, 68, 127
2, 104760, Note_on_c, 1, 73, 127
2, 105040, Note_on_c, 1, 34, 127
2, 105040, Note_off_c, 1, 56, 0
2, 105040, Note_on_c, 1, 61, 127
2, 105040, Note_off_c, 1, 62, 0
2, 105040, Note_on_c, 1, 79, 127
2, 105080, Note_off_c, 1, 34, 0
2, 105080, Note_on_c, 1, 38, 127
2, 105080, Note_on_c, 1, 45, 127
2, 105080, Note_off_c, 1, 61, 0
2, 105080, Note_off_c, 1, 68, 0
2, 105080, Note_off_c, 1, 73, 0
2, 105080, Note_on_c, 1, 78, 127
2, 105080, Note_off_c, 1, 79, 0
2, 105080, Note_on_c, 1, 81, 127
2, 105080, Note_on_c, 1, 85, 127
2, 105120, Note_off_c, 1, 38, 0
2, 105120, Note_off_c, 1, 45, 0
2, 105120, Note_off_c, 1, 78, 0
2, 105120, Note_off_c, 1, 81, 0
2, 105120, Note_off_c, 1, 85, 0
2, 105160, Note_on_c, 1, 45, 127
2, 105160, Note_on_c, 1, 55, 127
2, 105160, Note_on_c, 1, 61, 127
2, 105160, Note_on_c, 1, 66, 127
2, 105560, Note_off_c, 1, 55, 0
2, 105560, Note_on_c, 1, 57, 127
2, 105560, Note_off_c, 1, 61, 0
2, 105560, Note_off_c, 1, 66, 0
2, 105600, Note_off_c, 1, 45, 0
2, 105600, Note_off_c, 1, 57, 0
2, 105640, Note_on_c, 1, 45, 127
2, 105640, Note_on_c, 1, 52, 127
2, 105640, Note_on_c, 1, 57, 127
2, 105640, Note_on_c, 1, 61, 127
2, 105640, Note_on_c, 1, 69, 127
2, 105640, Note_on_c, 1, 73, 127
2, 106000, Note_off_c, 1, 45, 0
2, 106000, Note_off_c, 1, 52, 0
2, 106000, Note_off_c, 1, 57, 0
2, 106000, Note_off_c, 1, 61, 0
2, 106000, Note_off_c, 1, 69, 0
2, 106000, Note_off_c, 1, 73, 0
2, 106040, Note_on_c, 1, 47, 127
2, 106040, Note_on_c, 1, 54, 127
2, 106040, Note_on_c, 1, 75, 127
2, 106040, Note_on_c, 1, 78, 127
2, 106040, Note_on_c, 1, 87, 127
2, 106840, Note_off_c, 1, 47, 0
2, 106840, Note_off_c, 1, 54, 0
2, 106840, Note_off_c, 1, 75, 0
2, 106840, Note_off_c, 1, 78, 0
2, 106840, Note_off_c, 1, 87, 0
2, 106880, Note_on_c, 1, 47, 127
2, 106880, Note_on_c, 1, 71, 127
2, 106880, Note_on_c, 1, 83, 127
2, 107680, Note_off_c, 1, 47, 0
2, 107680, Note_on_c, 1, 59, 127
2, 107680, Note_on_c, 1, 62, 127
2, 107680, Note_off_c, 1, 71, 0
2, 107680, Note_on_c, 1, 79, 127
2, 107680, Note_off_c, 1, 83, 0
2, 107680, Note_on_c, 1, 91, 127
2, 107720, Note_off_c, 1, 59, 0
2, 107720, Note_off_c, 1, 62, 0
2, 107720, Note_off_c, 1, 79, 0
2, 107720, Note_off_c, 1, 91, 0
2, 107760, Note_on_c, 1, 59, 127
2, 107760, Note_on_c, 1, 62, 127
2, 107760, Note_on_c, 1, 79, 127
2, 107760, Note_on_c, 1, 91, 127
2, 107840, Note_off_c, 1, 59, 0
2, 107840, Note_off_c, 1, 62, 0
2, 108120, Note_on_c, 1, 50, 127
2, 108480, Note_off_c, 1, 50, 0
2, 108520, Note_on_c, 1, 46, 127
2, 108880, Note_off_c, 1, 46, 0
2, 108920, Note_on_c, 1, 61, 127
2, 109280, Note_off_c, 1, 61, 0
2, 109280, Note_off_c, 1, 79, 0
2, 109280, Note_off_c, 1, 91, 0
2, 109320, Note_on_c, 1, 61, 127
2, 109320, Note_on_c, 1, 76, 127
2, 109320, Note_on_c, 1, 88, 127
2, 109680, Note_off_c, 1, 61, 0
2, 109720, Note_on_c, 1, 47, 127
2, 109720, Note_on_c, 1, 51, 127
2, 109720, Note_on_c, 1, 54, 127
2, 109720, Note_on_c, 1, 59, 127
2, 109720, Note_off_c, 1, 76, 0
2, 109720, Note_on_c, 1, 79, 127
2, 109720, Note_off_c, 1, 88, 0
2, 109760, Note_on_c, 1, 40, 127
2, 109760, Note_off_c, 1, 47, 0
2, 109760, Note_off_c, 1, 51, 0
2, 109760, Note_off_c, 1, 59, 0
2, 109760, Note_on_c, 1, 61, 127
2, 109760, Note_on_c, 1, 69, 127
2, 109760, Note_on_c, 1, 73, 127
2, 109760, Note_off_c, 1, 79, 0
2, 109800, Note_on_c, 1, 35, 127
2, 109800, Note_off_c, 1, 40, 0
2, 109800, Note_on_c, 1, 51, 127
2, 109800, Note_off_c, 1, 54, 0
2, 109800, Note_off_c, 1, 61, 0
2, 109800, Note_on_c, 1, 68, 127
2, 109800, Note_off_c, 1, 69, 0
2, 109800, Note_off_c, 1, 73, 0
2, 109840, Note_off_c, 1, 35, 0
2, 109840, Note_on_c, 1, 40, 127
2, 109840, Note_off_c, 1, 51, 0
2, 109840, Note_on_c, 1, 54, 127
2, 109840, Note_on_c, 1, 61, 127
2, 109840, Note_off_c, 1, 68, 0
2, 109840, Note_on_c, 1, 69, 127
2, 109840, Note_on_c, 1, 73, 127
2, 110040, Note_off_c, 1, 40, 0
2, 110040, Note_off_c, 1, 54, 0
2, 110040, Note_off_c, 1, 61, 0
2, 110040, Note_off_c, 1, 69, 0
2, 110040, Note_off_c, 1, 73, 0
2, 110080, Note_on_c, 1, 40, 127
2, 110080, Note_on_c, 1, 54, 127
2, 110080, Note_on_c, 1, 61, 127
2, 110080, Note_on_c, 1, 69, 127
2, 110080, Note_on_c, 1, 73, 127
2, 110160, Note_off_c, 1, 40, 0
2, 110160, Note_off_c, 1, 54, 0
2, 110160, Note_off_c, 1, 61, 0
2, 110160, Note_off_c, 1, 69, 0
2, 110160, Note_off_c, 1, 73, 0
2, 110200, Note_on_c, 1, 39, 127
2, 110200, Note_on_c, 1, 51, 127
2, 110200, Note_on_c, 1, 68, 127
2, 110200, Note_on_c, 1, 72, 127
2, 110200, Note_on_c, 1, 80, 127
2, 110560, Note_off_c, 1, 39, 0
2, 110560, Note_off_c, 1, 51, 0
2, 110560, Note_off_c, 1, 68, 0
2, 110560, Note_off_c, 1, 72, 0
2, 110560, Note_off_c, 1, 80, 0
2, 110600, Note_on_c, 1, 48, 127
2, 110600, Note_on_c, 1, 82, 127
2, 110600, Note_on_c, 1, 86, 127
2, 110600, Note_on_c, 1, 94, 127
2, 110640, Note_off_c, 1, 48, 0
2, 110640, Note_on_c, 1, 53, 127
2, 110720, Note_off_c, 1, 53, 0
2, 111000, Note_on_c, 1, 53, 127
2, 111000, Note_on_c, 1, 60, 127
2, 111000, Note_on_c, 1, 72, 127
2, 111000, Note_on_c, 1, 78, 127
2, 111000, Note_off_c, 1, 82, 0
2, 111000, Note_off_c, 1, 86, 0
2, 111000, Note_off_c, 1, 94, 0
2, 111760, Note_on_c, 1, 38, 127
2, 111760, Note_on_c, 1, 50, 127
2, 111760, Note_off_c, 1, 53, 0
2, 111760, Note_on_c, 1, 57, 127
2, 111760, Note_off_c, 1, 72, 0
2, 111760, Note_off_c, 1, 78, 0
2, 111800, Note_off_c, 1, 38, 0
2, 111800, Note_off_c, 1, 50, 0
2, 111800, Note_on_c, 1, 53, 127
2, 111800, Note_off_c, 1, 57, 0
2, 111800, Note_on_c, 1, 72, 127
2, 111800, Note_on_c, 1, 78, 127
2, 112200, Note_off_c, 1, 53, 0
2, 112200, Note_off_c, 1, 60, 0
2, 112200, Note_on_c, 1, 68, 127
2, 112200, Note_off_c, 1, 72, 0
2, 112200, Note_off_c, 1, 78, 0
2, 112200, Note_on_c, 1, 80, 127
2, 112200, Note_on_c, 1, 89, 127
2, 112240, Note_off_c, 1, 68, 0
2, 112240, Note_off_c, 1, 80, 0
2, 112240, Note_off_c, 1, 89, 0
2, 112280, Note_on_c, 1, 60, 127
2, 112280, Note_on_c, 1, 68, 127
2, 112280, Note_on_c, 1, 82, 127
2, 112440, Note_off_c, 1, 60, 0
2, 112440, Note_off_c, 1, 68, 0
2, 112440, Note_off_c, 1, 82, 0
2, 112480, Note_on_c, 1, 93, 127
2, 112680, Note_off_c, 1, 93, 0
2, 112720, Note_on_c, 1, 93, 127
2, 113320, Note_off_c, 1, 93, 0
2, 113360, Note_on_c, 1, 93, 127
2, 113520, Note_off_c, 1, 93, 0
2, 113520, Note_on_c, 1, 95, 127
2, 113560, Note_on_c, 1, 91, 127
2, 113560, Note_off_c, 1, 95, 0
2, 113720, Note_off_c, 1, 91, 0
2, 113760, Note_on_c, 1, 93, 127
2, 113920, Note_off_c, 1, 93, 0
2, 114120, Note_on_c, 1, 93, 127
2, 114160, Note_on_c, 1, 88, 127
2, 114160, Note_off_c, 1, 93, 0
2, 114200, Note_off_c, 1, 88, 0
2, 114240, Note_on_c, 1, 89, 127
2, 114360, Note_off_c, 1, 89, 0
2, 114440, Note_on_c, 1, 88, 127
2, 114600, Note_off_c, 1, 88, 0
2, 114640, Note_on_c, 1, 86, 127
2, 114800, Note_off_c, 1, 86, 0
2, 114840, Note_on_c, 1, 84, 127
2, 115000, Note_off_c, 1, 84, 0
2, 115040, Note_on_c, 1, 82, 127
2, 116600, Note_off_c, 1, 82, 0
2, 116640, Note_on_c, 1, 82, 127
2, 117400, Note_off_c, 1, 82, 0
2, 117440, Note_on_c, 1, 81, 127
2, 118000, Note_off_c, 1, 81, 0
2, 118040, Note_on_c, 1, 79, 127
2, 118200, Note_off_c, 1, 79, 0
2, 118240, Note_on_c, 1, 77, 127
2, 118440, Note_off_c, 1, 77, 0
2, 118480, Note_on_c, 1, 75, 127
2, 118640, Note_off_c, 1, 75, 0
2, 118680, Note_on_c, 1, 79, 127
2, 118840, Note_off_c, 1, 79, 0
2, 118920, Note_on_c, 1, 77, 127
2, 119080, Note_off_c, 1, 77, 0
2, 119120, Note_on_c, 1, 79, 127
2, 119480, Note_off_c, 1, 79, 0
2, 119520, Note_on_c, 1, 77, 127
2, 119680, Note_off_c, 1, 77, 0
2, 119720, Note_on_c, 1, 77, 127
2, 119920, Note_off_c, 1, 77, 0
2, 119920, Note_on_c, 1, 78, 127
2, 120000, Note_off_c, 1, 78, 0
2, 120040, End_track
3, 0, Start_track
3, 0, Title_t, "MIDI"
3, 1536, End_track
0, 0, End_of_file
