0, 0, Header, 1, 3, 192
1, 0, Start_track
1, 0, Time_signature, 4, 2, 24, 8
1, 0, Tempo, 500000
1, 120040, End_track
2, 0, Start_track
2, 0, Text_t, "random instrument: random person i dunno whatev"
2, 0, Title_t, "Track 1"
2, 0, Note_on_c, 1, 40, 127
2, 0, Note_on_c, 1, 48, 127
2, 0, Note_on_c, 1, 56, 127
2, 0, Note_on_c, 1, 60, 127
2, 360, Note_off_c, 1, 40, 0
2, 360, Note_off_c, 1, 48, 0
2, 360, Note_off_c, 1, 56, 0
2, 360, Note_on_c, 1, 57, 127
2, 360, Note_off_c, 1, 60, 0
2, 360, Note_on_c, 1, 62, 127
2, 360, Note_on_c, 1, 65, 127
2, 360, Note_on_c, 1, 69, 127
2, 360, Note_on_c, 1, 88, 127
2, 400, Note_off_c, 1, 57, 0
2, 400, Note_off_c, 1, 62, 0
2, 400, Note_off_c, 1, 65, 0
2, 400, Note_off_c, 1, 69, 0
2, 400, Note_off_c, 1, 88, 0
2, 440, Note_on_c, 1, 40, 127
2, 440, Note_on_c, 1, 48, 127
2, 440, Note_on_c, 1, 56, 127
2, 440, Note_on_c, 1, 60, 127
2, 520, Note_off_c, 1, 40, 0
2, 520, Note_off_c, 1, 48, 0
2, 520, Note_off_c, 1, 56, 0
2, 520, Note_off_c, 1, 60, 0
2, 560, Note_on_c, 1, 50, 127
2, 560, Note_on_c, 1, 59, 127
2, 560, Note_on_c, 1, 67, 127
2, 560, Note_on_c, 1, 79, 127
2, 920, Note_off_c, 1, 50, 0
2, 920, Note_off_c, 1, 59, 0
2, 920, Note_off_c, 1, 67, 0
2, 920, Note_off_c, 1, 79, 0
2, 960, Note_on_c, 1, 50, 127
2, 960, Note_on_c, 1, 60, 127
2, 960, Note_on_c, 1, 66, 127
2, 960, Note_on_c, 1, 69, 127
2, 1320, Note_off_c, 1, 60, 0
2, 1320, Note_off_c, 1, 69, 0
2, 1360, Note_on_c, 1, 60, 127
2, 1360, Note_on_c, 1, 72, 127
2, 1600, Note_off_c, 1, 72, 0
2, 1640, Note_on_c, 1, 70, 127
2, 1720, Note_off_c, 1, 50, 0
2, 1720, Note_off_c, 1, 60, 0
2, 1720, Note_off_c, 1, 66, 0
2, 1720, Note_off_c, 1, 70, 0
2, 1760, Note_on_c, 1, 43, 127
2, 1760, Note_on_c, 1, 59, 127
2, 1760, Note_on_c, 1, 67, 127
2, 2520, Note_off_c, 1, 43, 0
2, 2520, Note_off_c, 1, 59, 0
2, 2520, Note_off_c, 1, 67, 0
2, 2600, Note_on_c, 1, 43, 127
2, 2600, Note_on_c, 1, 59, 127
2, 2600, Note_on_c, 1, 65, 127
2, 2600, Note_on_c, 1, 71, 127
2, 2960, Note_off_c, 1, 43, 0
2, 2960, Note_off_c, 1, 59, 0
2, 2960, Note_off_c, 1, 65, 0
2, 2960, Note_off_c, 1, 71, 0
2, 3000, Note_on_c, 1, 43, 127
2, 3000, Note_on_c, 1, 59, 127
2, 3000, Note_on_c, 1, 67, 127
2, 3360, Note_off_c, 1, 59, 0
2, 3400, Note_on_c, 1, 59, 127
2, 3760, Note_off_c, 1, 43, 0
2, 3760, Note_off_c, 1, 59, 0
2, 3760, Note_off_c, 1, 67, 0
2, 3800, Note_on_c, 1, 55, 127
2, 3800, Note_on_c, 1, 59, 127
2, 3800, Note_on_c, 1, 67, 127
2, 4160, Note_off_c, 1, 59, 0
2, 4160, Note_off_c, 1, 67, 0
2, 4200, Note_on_c, 1, 62, 127
2, 4200, Note_on_c, 1, 71, 127
2, 4560, Note_off_c, 1, 55, 0
2, 4560, Note_off_c, 1, 62, 0
2, 4560, Note_off_c, 1, 71, 0
2, 4600, Note_on_c, 1, 55, 127
2, 4600, Note_on_c, 1, 74, 127
2, 4640, Note_on_c, 1, 62, 127
2, 4880, Note_off_c, 1, 74, 0
2, 4920, Note_on_c, 1, 74, 127
2, 5000, Note_off_c, 1, 55, 0
2, 5000, Note_off_c, 1, 62, 0
2, 5000, Note_off_c, 1, 74, 0
2, 5040, Note_on_c, 1, 57, 127
2, 5040, Note_on_c, 1, 62, 127
2, 5040, Note_on_c, 1, 66, 127
2, 5040, Note_on_c, 1, 74, 127
2, 5800, Note_off_c, 1, 57, 0
2, 5800, Note_off_c, 1, 62, 0
2, 5800, Note_off_c, 1, 66, 0
2, 5800, Note_off_c, 1, 74, 0
2, 5840, Note_on_c, 1, 50, 127
2, 5840, Note_on_c, 1, 62, 127
2, 5840, Note_on_c, 1, 66, 127
2, 5840, Note_on_c, 1, 74, 127
2, 6640, Note_off_c, 1, 50, 0
2, 6640, Note_off_c, 1, 62, 0
2, 6640, Note_off_c, 1, 66, 0
2, 6640, Note_off_c, 1, 74, 0
2, 6680, Note_on_c, 1, 50, 127
2, 6680, Note_on_c, 1, 62, 127
2, 6680, Note_on_c, 1, 66, 127
2, 6680, Note_on_c, 1, 74, 127
2, 7040, Note_off_c, 1, 50, 0
2, 7040, Note_off_c, 1, 62, 0
2, 7040, Note_off_c, 1, 66, 0
2, 7040, Note_off_c, 1, 74, 0
2, 7080, Note_on_c, 1, 50, 127
2, 7080, Note_on_c, 1, 57, 127
2, 7080, Note_on_c, 1, 60, 127
2, 7080, Note_on_c, 1, 66, 127
2, 7440, Note_off_c, 1, 50, 0
2, 7440, Note_off_c, 1, 57, 0
2, 7440, Note_off_c, 1, 60, 0
2, 7440, Note_off_c, 1, 66, 0
2, 7480, Note_on_c, 1, 50, 127
2, 7480, Note_on_c, 1, 57, 127
2, 7480, Note_on_c, 1, 60, 127
2, 7480, Note_on_c, 1, 66, 127
2, 7840, Note_off_c, 1, 50, 0
2, 7840, Note_off_c, 1, 57, 0
2, 7840, Note_off_c, 1, 60, 0
2, 7840, Note_off_c, 1, 66, 0
2, 7880, Note_on_c, 1, 55, 127
2, 7880, Note_on_c, 1, 59, 127
2, 7880, Note_on_c, 1, 62, 127
2, 7880, Note_on_c, 1, 67, 127
2, 8640, Note_off_c, 1, 55, 0
2, 8640, Note_off_c, 1, 59, 0
2, 8640, Note_off_c, 1, 62, 0
2, 8640, Note_off_c, 1, 67, 0
2, 8720, Note_on_c, 1, 48, 127
2, 8720, Note_on_c, 1, 54, 127
2, 8720, Note_on_c, 1, 63, 127
2, 8720, Note_on_c, 1, 66, 127
2, 9080, Note_off_c, 1, 48, 0
2, 9080, Note_off_c, 1, 54, 0
2, 9080, Note_off_c, 1, 63, 0
2, 9080, Note_off_c, 1, 66, 0
2, 13400, Note_on_c, 1, 37, 127
2, 13400, Note_on_c, 1, 49, 127
2, 15240, Note_off_c, 1, 37, 0
2, 15240, Note_off_c, 1, 49, 0
2, 15280, Note_on_c, 1, 37, 127
2, 15280, Note_on_c, 1, 49, 127
2, 19840, Note_on_c, 1, 36, 127
2, 19840, Note_off_c, 1, 37, 0
2, 19840, Note_on_c, 1, 48, 127
2, 19840, Note_off_c, 1, 49, 0
2, 19880, Note_off_c, 1, 36, 0
2, 19880, Note_on_c, 1, 37, 127
2, 19880, Note_off_c, 1, 48, 0
2, 19880, Note_on_c, 1, 49, 127
2, 21120, Note_off_c, 1, 37, 0
2, 21120, Note_off_c, 1, 49, 0
2, 21160, Note_on_c, 1, 37, 127
2, 21160, Note_on_c, 1, 49, 127
2, 21280, Note_off_c, 1, 37, 0
2, 21280, Note_off_c, 1, 49, 0
2, 28720, Note_on_c, 1, 58, 127
2, 28800, Note_off_c, 1, 58, 0
2, 30640, Note_on_c, 1, 43, 127
2, 32280, Note_on_c, 1, 50, 127
2, 33640, Note_off_c, 1, 43, 0
2, 33640, Note_off_c, 1, 50, 0
2, 33680, Note_on_c, 1, 43, 127
2, 33680, Note_on_c, 1, 50, 127
2, 34120, Note_off_c, 1, 43, 0
2, 34120, Note_off_c, 1, 50, 0
2, 34200, Note_on_c, 1, 43, 127
2, 34200, Note_on_c, 1, 50, 127
2, 35880, Note_off_c, 1, 43, 0
2, 35880, Note_off_c, 1, 50, 0
2, 35920, Note_on_c, 1, 43, 127
2, 35920, Note_on_c, 1, 50, 127
2, 36880, Note_off_c, 1, 43, 0
2, 36880, Note_on_c, 1, 59, 127
2, 37120, Note_off_c, 1, 50, 0
2, 37120, Note_off_c, 1, 59, 0
2, 37200, Note_on_c, 1, 36, 127
2, 37200, Note_on_c, 1, 62, 127
2, 37640, Note_off_c, 1, 36, 0
2, 37640, Note_off_c, 1, 62, 0
2, 37680, Note_on_c, 1, 35, 127
2, 37680, Note_on_c, 1, 47, 127
2, 37680, Note_on_c, 1, 51, 127
2, 37680, Note_on_c, 1, 59, 127
2, 38640, Note_off_c, 1, 35, 0
2, 38640, Note_off_c, 1, 47, 0
2, 38640, Note_off_c, 1, 51, 0
2, 38640, Note_off_c, 1, 59, 0
2, 42880, Note_on_c, 1, 77, 127
2, 43240, Note_off_c, 1, 77, 0
2, 43280, Note_on_c, 1, 51, 127
2, 43280, Note_on_c, 1, 75, 127
2, 43320, Note_off_c, 1, 51, 0
2, 43360, Note_on_c, 1, 55, 127
2, 43400, Note_off_c, 1, 55, 0
2, 43440, Note_on_c, 1, 58, 127
2, 43480, Note_off_c, 1, 58, 0
2, 43520, Note_on_c, 1, 58, 127
2, 43560, Note_off_c, 1, 58, 0
2, 43600, Note_on_c, 1, 60, 127
2, 43640, Note_off_c, 1, 60, 0
2, 43640, Note_off_c, 1, 75, 0
2, 43680, Note_on_c, 1, 58, 127
2, 43680, Note_on_c, 1, 77, 127
2, 43720, Note_off_c, 1, 58, 0
2, 43760, Note_on_c, 1, 62, 127
2, 43840, Note_off_c, 1, 62, 0
2, 43880, Note_on_c, 1, 60, 127
2, 43920, Note_off_c, 1, 60, 0
2, 43960, Note_on_c, 1, 60, 127
2, 44000, Note_off_c, 1, 60, 0
2, 44040, Note_on_c, 1, 65, 127
2, 44120, Note_off_c, 1, 65, 0
2, 44160, Note_on_c, 1, 58, 127
2, 44200, Note_off_c, 1, 58, 0
2, 44240, Note_on_c, 1, 62, 127
2, 44280, Note_off_c, 1, 62, 0
2, 44320, Note_on_c, 1, 58, 127
2, 44400, Note_off_c, 1, 58, 0
2, 44400, Note_off_c, 1, 77, 0
2, 44480, Note_on_c, 1, 58, 127
2, 44480, Note_on_c, 1, 75, 127
2, 44520, Note_off_c, 1, 58, 0
2, 44560, Note_on_c, 1, 60, 127
2, 44600, Note_off_c, 1, 60, 0
2, 44640, Note_on_c, 1, 63, 127
2, 44680, Note_off_c, 1, 63, 0
2, 44720, Note_on_c, 1, 58, 127
2, 44800, Note_off_c, 1, 58, 0
2, 44800, Note_off_c, 1, 75, 0
2, 44840, Note_on_c, 1, 48, 127
2, 44840, Note_on_c, 1, 80, 127
2, 44880, Note_off_c, 1, 48, 0
2, 44920, Note_on_c, 1, 55, 127
2, 45000, Note_off_c, 1, 55, 0
2, 45040, Note_on_c, 1, 59, 127
2, 45080, Note_off_c, 1, 59, 0
2, 45120, Note_on_c, 1, 58, 127
2, 45160, Note_off_c, 1, 58, 0
2, 45160, Note_off_c, 1, 80, 0
2, 45200, Note_on_c, 1, 55, 127
2, 45200, Note_on_c, 1, 79, 127
2, 45280, Note_off_c, 1, 55, 0
2, 45320, Note_on_c, 1, 58, 127
2, 45360, Note_off_c, 1, 58, 0
2, 45360, Note_off_c, 1, 79, 0
2, 45400, Note_on_c, 1, 62, 127
2, 45400, Note_on_c, 1, 77, 127
2, 45440, Note_off_c, 1, 62, 0
2, 45480, Note_on_c, 1, 58, 127
2, 45560, Note_off_c, 1, 58, 0
2, 45560, Note_off_c, 1, 77, 0
2, 45600, Note_on_c, 1, 62, 127
2, 45600, Note_on_c, 1, 75, 127
2, 45640, Note_off_c, 1, 62, 0
2, 45680, Note_on_c, 1, 58, 127
2, 45760, Note_off_c, 1, 58, 0
2, 45760, Note_off_c, 1, 75, 0
2, 45800, Note_on_c, 1, 58, 127
2, 45800, Note_on_c, 1, 74, 127
2, 45840, Note_off_c, 1, 58, 0
2, 45880, Note_on_c, 1, 58, 127
2, 45880, Note_on_c, 1, 70, 127
2, 45880, Note_off_c, 1, 74, 0
2, 45920, Note_off_c, 1, 58, 0
2, 45920, Note_off_c, 1, 70, 0
2, 45960, Note_on_c, 1, 51, 127
2, 45960, Note_on_c, 1, 72, 127
2, 46000, Note_off_c, 1, 51, 0
2, 46040, Note_on_c, 1, 53, 127
2, 46120, Note_off_c, 1, 53, 0
2, 46120, Note_off_c, 1, 72, 0
2, 46160, Note_on_c, 1, 58, 127
2, 46160, Note_on_c, 1, 75, 127
2, 46200, Note_off_c, 1, 58, 0
2, 46240, Note_on_c, 1, 55, 127
2, 46320, Note_off_c, 1, 55, 0
2, 46320, Note_off_c, 1, 75, 0
2, 46360, Note_on_c, 1, 58, 127
2, 46360, Note_on_c, 1, 74, 127
2, 46400, Note_off_c, 1, 58, 0
2, 46440, Note_on_c, 1, 62, 127
2, 46480, Note_off_c, 1, 62, 0
2, 46520, Note_on_c, 1, 58, 127
2, 46600, Note_off_c, 1, 58, 0
2, 46640, Note_on_c, 1, 58, 127
2, 46680, Note_off_c, 1, 58, 0
2, 46680, Note_off_c, 1, 74, 0
2, 46720, Note_on_c, 1, 51, 127
2, 46720, Note_on_c, 1, 72, 127
2, 46760, Note_off_c, 1, 51, 0
2, 46800, Note_on_c, 1, 57, 127
2, 46880, Note_off_c, 1, 57, 0
2, 46880, Note_off_c, 1, 72, 0
2, 46920, Note_on_c, 1, 58, 127
2, 46920, Note_on_c, 1, 74, 127
2, 46960, Note_off_c, 1, 58, 0
2, 47000, Note_on_c, 1, 62, 127
2, 47040, Note_off_c, 1, 62, 0
2, 47040, Note_off_c, 1, 74, 0
2, 47080, Note_on_c, 1, 74, 127
2, 47120, Note_on_c, 1, 58, 127
2, 47120, Note_off_c, 1, 74, 0
2, 47120, Note_on_c, 1, 75, 127
2, 47200, Note_off_c, 1, 58, 0
2, 47200, Note_off_c, 1, 75, 0
2, 47240, Note_on_c, 1, 62, 127
2, 47240, Note_on_c, 1, 79, 127
2, 47280, Note_off_c, 1, 62, 0
2, 47280, Note_off_c, 1, 79, 0
2, 47320, Note_on_c, 1, 58, 127
2, 47320, Note_on_c, 1, 79, 127
2, 47360, Note_off_c, 1, 58, 0
2, 47400, Note_on_c, 1, 62, 127
2, 47480, Note_off_c, 1, 62, 0
2, 47480, Note_off_c, 1, 79, 0
2, 47520, Note_on_c, 1, 55, 127
2, 47520, Note_on_c, 1, 79, 127
2, 47560, Note_off_c, 1, 55, 0
2, 47600, Note_on_c, 1, 63, 127
2, 47640, Note_off_c, 1, 63, 0
2, 47640, Note_off_c, 1, 79, 0
2, 47680, Note_on_c, 1, 58, 127
2, 47680, Note_on_c, 1, 77, 127
2, 47760, Note_off_c, 1, 58, 0
2, 47800, Note_on_c, 1, 62, 127
2, 47840, Note_off_c, 1, 62, 0
2, 47880, Note_on_c, 1, 58, 127
2, 47920, Note_off_c, 1, 58, 0
2, 47960, Note_on_c, 1, 62, 127
2, 48040, Note_off_c, 1, 62, 0
2, 48080, Note_on_c, 1, 53, 127
2, 48120, Note_off_c, 1, 53, 0
2, 48160, Note_on_c, 1, 62, 127
2, 48240, Note_off_c, 1, 62, 0
2, 48240, Note_off_c, 1, 77, 0
2, 48280, Note_on_c, 1, 51, 127
2, 48280, Note_on_c, 1, 77, 127
2, 48320, Note_off_c, 1, 51, 0
2, 48360, Note_on_c, 1, 62, 127
2, 48440, Note_off_c, 1, 62, 0
2, 48480, Note_on_c, 1, 58, 127
2, 48520, Note_off_c, 1, 58, 0
2, 48560, Note_on_c, 1, 62, 127
2, 48600, Note_off_c, 1, 62, 0
2, 48640, Note_on_c, 1, 58, 127
2, 48680, Note_off_c, 1, 77, 0
2, 48720, Note_off_c, 1, 58, 0
2, 48720, Note_on_c, 1, 77, 127
2, 48760, Note_on_c, 1, 62, 127
2, 48800, Note_off_c, 1, 62, 0
2, 48800, Note_off_c, 1, 77, 0
2, 48840, Note_on_c, 1, 51, 127
2, 48840, Note_on_c, 1, 75, 127
2, 48880, Note_off_c, 1, 51, 0
2, 48920, Note_on_c, 1, 60, 127
2, 49000, Note_off_c, 1, 60, 0
2, 49040, Note_on_c, 1, 60, 127
2, 49080, Note_off_c, 1, 60, 0
2, 49120, Note_on_c, 1, 58, 127
2, 49200, Note_off_c, 1, 58, 0
2, 49200, Note_off_c, 1, 75, 0
2, 49280, Note_on_c, 1, 56, 127
2, 49280, Note_on_c, 1, 75, 127
2, 49320, Note_off_c, 1, 56, 0
2, 49360, Note_on_c, 1, 55, 127
2, 49400, Note_off_c, 1, 55, 0
2, 49440, Note_on_c, 1, 60, 127
2, 49520, Note_off_c, 1, 60, 0
2, 49560, Note_on_c, 1, 58, 127
2, 49600, Note_off_c, 1, 58, 0
2, 49640, Note_on_c, 1, 51, 127
2, 49680, Note_off_c, 1, 51, 0
2, 49720, Note_on_c, 1, 55, 127
2, 49800, Note_off_c, 1, 55, 0
2, 49840, Note_on_c, 1, 63, 127
2, 49880, Note_off_c, 1, 63, 0
2, 49920, Note_on_c, 1, 58, 127
2, 50000, Note_off_c, 1, 58, 0
2, 50000, Note_off_c, 1, 75, 0
2, 50040, Note_on_c, 1, 46, 127
2, 50040, Note_on_c, 1, 74, 127
2, 50080, Note_off_c, 1, 46, 0
2, 50120, Note_on_c, 1, 55, 127
2, 50160, Note_off_c, 1, 55, 0
2, 50200, Note_on_c, 1, 58, 127
2, 50280, Note_off_c, 1, 58, 0
2, 50320, Note_on_c, 1, 53, 127
2, 50360, Note_off_c, 1, 53, 0
2, 50360, Note_off_c, 1, 74, 0
2, 50400, Note_on_c, 1, 58, 127
2, 50400, Note_on_c, 1, 74, 127
2, 50480, Note_off_c, 1, 58, 0
2, 50520, Note_on_c, 1, 58, 127
2, 50560, Note_off_c, 1, 58, 0
2, 50600, Note_on_c, 1, 58, 127
2, 50640, Note_off_c, 1, 58, 0
2, 50680, Note_on_c, 1, 62, 127
2, 50760, Note_off_c, 1, 62, 0
2, 50760, Note_off_c, 1, 74, 0
2, 50800, Note_on_c, 1, 53, 127
2, 50800, Note_on_c, 1, 82, 127
2, 50840, Note_off_c, 1, 53, 0
2, 50880, Note_on_c, 1, 62, 127
2, 50960, Note_off_c, 1, 62, 0
2, 51000, Note_on_c, 1, 58, 127
2, 51040, Note_off_c, 1, 58, 0
2, 51080, Note_on_c, 1, 62, 127
2, 51080, Note_off_c, 1, 82, 0
2, 51120, Note_on_c, 1, 82, 127
2, 51160, Note_off_c, 1, 62, 0
2, 51160, Note_off_c, 1, 82, 0
2, 51200, Note_on_c, 1, 53, 127
2, 51200, Note_on_c, 1, 82, 127
2, 51240, Note_off_c, 1, 53, 0
2, 51280, Note_on_c, 1, 62, 127
2, 51360, Note_off_c, 1, 62, 0
2, 51400, Note_on_c, 1, 58, 127
2, 51440, Note_off_c, 1, 58, 0
2, 51440, Note_off_c, 1, 82, 0
2, 51480, Note_on_c, 1, 82, 127
2, 51520, Note_on_c, 1, 62, 127
2, 51560, Note_off_c, 1, 62, 0
2, 51600, Note_on_c, 1, 58, 127
2, 51760, Note_off_c, 1, 58, 0
2, 51800, Note_on_c, 1, 62, 127
2, 51960, Note_off_c, 1, 62, 0
2, 51960, Note_off_c, 1, 82, 0
2, 52000, Note_on_c, 1, 51, 127
2, 52000, Note_on_c, 1, 79, 127
2, 52160, Note_off_c, 1, 51, 0
2, 52160, Note_off_c, 1, 79, 0
2, 52200, Note_on_c, 1, 62, 127
2, 52360, Note_off_c, 1, 62, 0
2, 52400, Note_on_c, 1, 58, 127
2, 52400, Note_on_c, 1, 78, 127
2, 52560, Note_off_c, 1, 58, 0
2, 52600, Note_on_c, 1, 57, 127
2, 52720, Note_off_c, 1, 57, 0
2, 52760, Note_on_c, 1, 62, 127
2, 52920, Note_off_c, 1, 62, 0
2, 52920, Note_off_c, 1, 78, 0
2, 52960, Note_on_c, 1, 58, 127
2, 52960, Note_on_c, 1, 79, 127
2, 53120, Note_off_c, 1, 58, 0
2, 53160, Note_on_c, 1, 62, 127
2, 53320, Note_off_c, 1, 62, 0
2, 53320, Note_off_c, 1, 79, 0
2, 53360, Note_on_c, 1, 62, 127
2, 53360, Note_on_c, 1, 77, 127
2, 53480, Note_off_c, 1, 62, 0
2, 53480, Note_off_c, 1, 77, 0
2, 53520, Note_on_c, 1, 62, 127
2, 53520, Note_on_c, 1, 77, 127
2, 53560, Note_off_c, 1, 62, 0
2, 53600, Note_on_c, 1, 58, 127
2, 53720, Note_off_c, 1, 77, 0
2, 53760, Note_on_c, 1, 79, 127
2, 53920, Note_off_c, 1, 58, 0
2, 53920, Note_off_c, 1, 79, 0
2, 53960, Note_on_c, 1, 57, 127
2, 53960, Note_on_c, 1, 77, 127
2, 54120, Note_off_c, 1, 57, 0
2, 54120, Note_off_c, 1, 77, 0
2, 54160, Note_on_c, 1, 62, 127
2, 54160, Note_on_c, 1, 79, 127
2, 54280, Note_off_c, 1, 79, 0
2, 54320, Note_on_c, 1, 58, 127
2, 54320, Note_off_c, 1, 62, 0
2, 54320, Note_on_c, 1, 77, 127
2, 54480, Note_off_c, 1, 58, 0
2, 54520, Note_on_c, 1, 58, 127
2, 54680, Note_off_c, 1, 58, 0
2, 54720, Note_on_c, 1, 62, 127
2, 54880, Note_off_c, 1, 62, 0
2, 54880, Note_off_c, 1, 77, 0
2, 54920, Note_on_c, 1, 58, 127
2, 54920, Note_on_c, 1, 75, 127
2, 55080, Note_off_c, 1, 58, 0
2, 55080, Note_off_c, 1, 75, 0
2, 55120, Note_on_c, 1, 58, 127
2, 55120, Note_on_c, 1, 74, 127
2, 55280, Note_off_c, 1, 58, 0
2, 55320, Note_on_c, 1, 62, 127
2, 55480, Note_off_c, 1, 62, 0
2, 55480, Note_off_c, 1, 74, 0
2, 55520, Note_on_c, 1, 58, 127
2, 55520, Note_on_c, 1, 82, 127
2, 55640, Note_off_c, 1, 58, 0
2, 55640, Note_off_c, 1, 82, 0
2, 55680, Note_on_c, 1, 58, 127
2, 55680, Note_on_c, 1, 82, 127
2, 55880, Note_off_c, 1, 58, 0
2, 55880, Note_off_c, 1, 82, 0
2, 55920, Note_on_c, 1, 63, 127
2, 55920, Note_on_c, 1, 84, 127
2, 56000, Note_off_c, 1, 84, 0
2, 56080, Note_off_c, 1, 63, 0
2, 56120, Note_on_c, 1, 60, 127
2, 56120, Note_on_c, 1, 82, 127
2, 56280, Note_off_c, 1, 60, 0
2, 56320, Note_on_c, 1, 62, 127
2, 56480, Note_off_c, 1, 62, 0
2, 56480, Note_off_c, 1, 82, 0
2, 56520, Note_on_c, 1, 60, 127
2, 56520, Note_on_c, 1, 82, 127
2, 56680, Note_off_c, 1, 60, 0
2, 56680, Note_on_c, 1, 81, 127
2, 56680, Note_off_c, 1, 82, 0
2, 56720, Note_on_c, 1, 63, 127
2, 56840, Note_off_c, 1, 81, 0
2, 56880, Note_off_c, 1, 63, 0
2, 56880, Note_on_c, 1, 82, 127
2, 56920, Note_on_c, 1, 58, 127
2, 57040, Note_off_c, 1, 82, 0
2, 57080, Note_on_c, 1, 82, 127
2, 57240, Note_off_c, 1, 58, 0
2, 57240, Note_off_c, 1, 82, 0
2, 57280, Note_on_c, 1, 62, 127
2, 57280, Note_on_c, 1, 77, 127
2, 57640, Note_off_c, 1, 62, 0
2, 57640, Note_off_c, 1, 77, 0
2, 57680, Note_on_c, 1, 55, 127
2, 57680, Note_on_c, 1, 79, 127
2, 57760, Note_off_c, 1, 55, 0
2, 57760, Note_off_c, 1, 79, 0
2, 57800, Note_on_c, 1, 55, 127
2, 57800, Note_on_c, 1, 79, 127
2, 57880, Note_off_c, 1, 55, 0
2, 57880, Note_off_c, 1, 79, 0
2, 57920, Note_on_c, 1, 59, 127
2, 57920, Note_on_c, 1, 74, 127
2, 58080, Note_off_c, 1, 59, 0
2, 58080, Note_off_c, 1, 74, 0
2, 58120, Note_on_c, 1, 62, 127
2, 58120, Note_on_c, 1, 77, 127
2, 58280, Note_off_c, 1, 62, 0
2, 58280, Note_off_c, 1, 77, 0
2, 58320, Note_on_c, 1, 55, 127
2, 58320, Note_on_c, 1, 75, 127
2, 58480, Note_off_c, 1, 55, 0
2, 58480, Note_off_c, 1, 75, 0
2, 58520, Note_on_c, 1, 50, 127
2, 58520, Note_on_c, 1, 79, 127
2, 58680, Note_off_c, 1, 50, 0
2, 58680, Note_off_c, 1, 79, 0
2, 58720, Note_on_c, 1, 53, 127
2, 58720, Note_on_c, 1, 77, 127
2, 58840, Note_off_c, 1, 53, 0
2, 58840, Note_off_c, 1, 77, 0
2, 58880, Note_on_c, 1, 58, 127
2, 58880, Note_on_c, 1, 76, 127
2, 59040, Note_off_c, 1, 58, 0
2, 59040, Note_off_c, 1, 76, 0
2, 59080, Note_on_c, 1, 62, 127
2, 59240, Note_off_c, 1, 62, 0
2, 59280, Note_on_c, 1, 58, 127
2, 59280, Note_on_c, 1, 77, 127
2, 59440, Note_off_c, 1, 58, 0
2, 59440, Note_off_c, 1, 77, 0
2, 59480, Note_on_c, 1, 62, 127
2, 59640, Note_off_c, 1, 62, 0
2, 59680, Note_on_c, 1, 53, 127
2, 59680, Note_on_c, 1, 77, 127
2, 59840, Note_off_c, 1, 53, 0
2, 59840, Note_off_c, 1, 77, 0
2, 59920, Note_on_c, 1, 58, 127
2, 59920, Note_on_c, 1, 74, 127
2, 60080, Note_off_c, 1, 58, 0
2, 60080, Note_off_c, 1, 74, 0
2, 60120, Note_on_c, 1, 53, 127
2, 60120, Note_on_c, 1, 75, 127
2, 60240, Note_off_c, 1, 53, 0
2, 60240, Note_off_c, 1, 75, 0
2, 60280, Note_on_c, 1, 62, 127
2, 60440, Note_off_c, 1, 62, 0
2, 60480, Note_on_c, 1, 58, 127
2, 60480, Note_on_c, 1, 78, 127
2, 60640, Note_off_c, 1, 58, 0
2, 60640, Note_off_c, 1, 78, 0
2, 60680, Note_on_c, 1, 62, 127
2, 60840, Note_off_c, 1, 62, 0
2, 60880, Note_on_c, 1, 58, 127
2, 60880, Note_on_c, 1, 77, 127
2, 61040, Note_off_c, 1, 58, 0
2, 61040, Note_off_c, 1, 77, 0
2, 61080, Note_on_c, 1, 62, 127
2, 61240, Note_off_c, 1, 62, 0
2, 61280, Note_on_c, 1, 58, 127
2, 61280, Note_on_c, 1, 74, 127
2, 61400, Note_off_c, 1, 58, 0
2, 61400, Note_off_c, 1, 74, 0
2, 61440, Note_on_c, 1, 63, 127
2, 61440, Note_on_c, 1, 90, 127
2, 61600, Note_off_c, 1, 63, 0
2, 61600, Note_off_c, 1, 90, 0
2, 61640, Note_on_c, 1, 62, 127
2, 61800, Note_off_c, 1, 62, 0
2, 61840, Note_on_c, 1, 54, 127
2, 61840, Note_on_c, 1, 87, 127
2, 62000, Note_off_c, 1, 54, 0
2, 62000, Note_off_c, 1, 87, 0
2, 62080, Note_on_c, 1, 62, 127
2, 62240, Note_off_c, 1, 62, 0
2, 62280, Note_on_c, 1, 58, 127
2, 62280, Note_on_c, 1, 82, 127
2, 62440, Note_off_c, 1, 58, 0
2, 62440, Note_off_c, 1, 82, 0
2, 62480, Note_on_c, 1, 62, 127
2, 62640, Note_off_c, 1, 62, 0
2, 62680, Note_on_c, 1, 58, 127
2, 62680, Note_on_c, 1, 87, 127
2, 62800, Note_off_c, 1, 58, 0
2, 62800, Note_off_c, 1, 87, 0
2, 62840, Note_on_c, 1, 62, 127
2, 63000, Note_off_c, 1, 62, 0
2, 63040, Note_on_c, 1, 55, 127
2, 63040, Note_on_c, 1, 79, 127
2, 63200, Note_off_c, 1, 55, 0
2, 63200, Note_off_c, 1, 79, 0
2, 63240, Note_on_c, 1, 59, 127
2, 63400, Note_off_c, 1, 59, 0
2, 63440, Note_on_c, 1, 55, 127
2, 63440, Note_on_c, 1, 77, 127
2, 63600, Note_off_c, 1, 55, 0
2, 63600, Note_off_c, 1, 77, 0
2, 63640, Note_on_c, 1, 63, 127
2, 63640, Note_on_c, 1, 78, 127
2, 63800, Note_off_c, 1, 63, 0
2, 63800, Note_off_c, 1, 78, 0
2, 63840, Note_on_c, 1, 60, 127
2, 63840, Note_on_c, 1, 79, 127
2, 63960, Note_off_c, 1, 60, 0
2, 63960, Note_off_c, 1, 79, 0
2, 64000, Note_on_c, 1, 63, 127
2, 64000, Note_on_c, 1, 82, 127
2, 64120, Note_off_c, 1, 63, 0
2, 64120, Note_off_c, 1, 82, 0
2, 64160, Note_on_c, 1, 63, 127
2, 64160, Note_on_c, 1, 82, 127
2, 64200, Note_off_c, 1, 63, 0
2, 64200, Note_off_c, 1, 82, 0
2, 64240, Note_on_c, 1, 59, 127
2, 64240, Note_on_c, 1, 80, 127
2, 64400, Note_off_c, 1, 59, 0
2, 64400, Note_off_c, 1, 80, 0
2, 64440, Note_on_c, 1, 63, 127
2, 64440, Note_on_c, 1, 79, 127
2, 64600, Note_off_c, 1, 63, 0
2, 64600, Note_off_c, 1, 79, 0
2, 64640, Note_on_c, 1, 60, 127
2, 64640, Note_on_c, 1, 81, 127
2, 64760, Note_off_c, 1, 60, 0
2, 64760, Note_off_c, 1, 81, 0
2, 64800, Note_on_c, 1, 63, 127
2, 64800, Note_on_c, 1, 79, 127
2, 64960, Note_off_c, 1, 63, 0
2, 64960, Note_off_c, 1, 79, 0
2, 65000, Note_on_c, 1, 58, 127
2, 65000, Note_on_c, 1, 85, 127
2, 65160, Note_off_c, 1, 58, 0
2, 65200, Note_on_c, 1, 62, 127
2, 65360, Note_off_c, 1, 62, 0
2, 65360, Note_off_c, 1, 85, 0
2, 65400, Note_on_c, 1, 57, 127
2, 65400, Note_on_c, 1, 84, 127
2, 65560, Note_off_c, 1, 57, 0
2, 65600, Note_on_c, 1, 62, 127
2, 65760, Note_off_c, 1, 62, 0
2, 65760, Note_off_c, 1, 84, 0
2, 65800, Note_on_c, 1, 57, 127
2, 65800, Note_on_c, 1, 84, 127
2, 65960, Note_off_c, 1, 57, 0
2, 66000, Note_on_c, 1, 62, 127
2, 66120, Note_off_c, 1, 62, 0
2, 66160, Note_on_c, 1, 57, 127
2, 66320, Note_off_c, 1, 57, 0
2, 66320, Note_off_c, 1, 84, 0
2, 66360, Note_on_c, 1, 84, 127
2, 66400, Note_on_c, 1, 60, 127
2, 66560, Note_off_c, 1, 60, 0
2, 66560, Note_off_c, 1, 84, 0
2, 66600, Note_on_c, 1, 57, 127
2, 66600, Note_on_c, 1, 84, 127
2, 66760, Note_off_c, 1, 57, 0
2, 66800, Note_on_c, 1, 60, 127
2, 66920, Note_on_c, 1, 55, 127
2, 66920, Note_off_c, 1, 60, 0
2, 66960, Note_off_c, 1, 55, 0
2, 67000, Note_on_c, 1, 57, 127
2, 67120, Note_off_c, 1, 57, 0
2, 67160, Note_on_c, 1, 65, 127
2, 67320, Note_off_c, 1, 65, 0
2, 67360, Note_on_c, 1, 64, 127
2, 67520, Note_off_c, 1, 64, 0
2, 67560, Note_on_c, 1, 60, 127
2, 67720, Note_off_c, 1, 60, 0
2, 67720, Note_off_c, 1, 84, 0
2, 67760, Note_on_c, 1, 57, 127
2, 67760, Note_on_c, 1, 84, 127
2, 67920, Note_off_c, 1, 57, 0
2, 67960, Note_on_c, 1, 60, 127
2, 67960, Note_on_c, 1, 82, 127
2, 67960, Note_off_c, 1, 84, 0
2, 68120, Note_off_c, 1, 60, 0
2, 68120, Note_off_c, 1, 82, 0
2, 68160, Note_on_c, 1, 63, 127
2, 68160, Note_on_c, 1, 81, 127
2, 68320, Note_off_c, 1, 63, 0
2, 68360, Note_on_c, 1, 57, 127
2, 68480, Note_off_c, 1, 57, 0
2, 68480, Note_off_c, 1, 81, 0
2, 68520, Note_on_c, 1, 57, 127
2, 68520, Note_on_c, 1, 81, 127
2, 68560, Note_off_c, 1, 57, 0
2, 68600, Note_on_c, 1, 60, 127
2, 68720, Note_off_c, 1, 60, 0
2, 68760, Note_on_c, 1, 62, 127
2, 68920, Note_off_c, 1, 62, 0
2, 68960, Note_on_c, 1, 53, 127
2, 69120, Note_off_c, 1, 53, 0
2, 69160, Note_on_c, 1, 62, 127
2, 69320, Note_off_c, 1, 62, 0
2, 69360, Note_on_c, 1, 60, 127
2, 69520, Note_off_c, 1, 60, 0
2, 69560, Note_on_c, 1, 60, 127
2, 69720, Note_off_c, 1, 60, 0
2, 69720, Note_off_c, 1, 81, 0
2, 69760, Note_on_c, 1, 58, 127
2, 69760, Note_on_c, 1, 79, 127
2, 69920, Note_off_c, 1, 58, 0
2, 69920, Note_off_c, 1, 79, 0
2, 69960, Note_on_c, 1, 62, 127
2, 69960, Note_on_c, 1, 77, 127
2, 70120, Note_off_c, 1, 62, 0
2, 70120, Note_off_c, 1, 77, 0
2, 70160, Note_on_c, 1, 58, 127
2, 70160, Note_on_c, 1, 79, 127
2, 70280, Note_off_c, 1, 58, 0
2, 70320, Note_on_c, 1, 67, 127
2, 70520, Note_off_c, 1, 67, 0
2, 70560, Note_on_c, 1, 58, 127
2, 70680, Note_off_c, 1, 58, 0
2, 70680, Note_off_c, 1, 79, 0
2, 70760, Note_on_c, 1, 62, 127
2, 70760, Note_on_c, 1, 79, 127
2, 70920, Note_off_c, 1, 62, 0
2, 70960, Note_on_c, 1, 55, 127
2, 71120, Note_off_c, 1, 55, 0
2, 71120, Note_off_c, 1, 79, 0
2, 71160, Note_on_c, 1, 62, 127
2, 71160, Note_on_c, 1, 77, 127
2, 71320, Note_off_c, 1, 62, 0
2, 71360, Note_on_c, 1, 58, 127
2, 71520, Note_off_c, 1, 58, 0
2, 71520, Note_off_c, 1, 77, 0
2, 71560, Note_on_c, 1, 62, 127
2, 71560, Note_on_c, 1, 77, 127
2, 71720, Note_off_c, 1, 62, 0
2, 71720, Note_off_c, 1, 77, 0
2, 71760, Note_on_c, 1, 53, 127
2, 71760, Note_on_c, 1, 81, 127
2, 71920, Note_off_c, 1, 53, 0
2, 71920, Note_off_c, 1, 81, 0
2, 71960, Note_on_c, 1, 63, 127
2, 71960, Note_on_c, 1, 79, 127
2, 72120, Note_off_c, 1, 63, 0
2, 72120, Note_off_c, 1, 79, 0
2, 72160, Note_on_c, 1, 53, 127
2, 72160, Note_on_c, 1, 77, 127
2, 72320, Note_off_c, 1, 53, 0
2, 72320, Note_off_c, 1, 77, 0
2, 72360, Note_on_c, 1, 60, 127
2, 72360, Note_on_c, 1, 79, 127
2, 72480, Note_off_c, 1, 60, 0
2, 72480, Note_off_c, 1, 79, 0
2, 72520, Note_on_c, 1, 58, 127
2, 72520, Note_on_c, 1, 77, 127
2, 72680, Note_off_c, 1, 58, 0
2, 72720, Note_on_c, 1, 63, 127
2, 72720, Note_on_c, 1, 75, 127
2, 72720, Note_off_c, 1, 77, 0
2, 72880, Note_off_c, 1, 63, 0
2, 72880, Note_off_c, 1, 75, 0
2, 72920, Note_on_c, 1, 55, 127
2, 72920, Note_on_c, 1, 74, 127
2, 73040, Note_off_c, 1, 55, 0
2, 73040, Note_off_c, 1, 74, 0
2, 73080, Note_on_c, 1, 55, 127
2, 73080, Note_on_c, 1, 74, 127
2, 73120, Note_off_c, 1, 55, 0
2, 73160, Note_on_c, 1, 58, 127
2, 73320, Note_off_c, 1, 58, 0
2, 73320, Note_off_c, 1, 74, 0
2, 73360, Note_on_c, 1, 63, 127
2, 73360, Note_on_c, 1, 75, 127
2, 73520, Note_off_c, 1, 63, 0
2, 73560, Note_on_c, 1, 65, 127
2, 73680, Note_off_c, 1, 65, 0
2, 73680, Note_off_c, 1, 75, 0
2, 73720, Note_on_c, 1, 70, 127
2, 73720, Note_on_c, 1, 74, 127
2, 73920, Note_on_c, 1, 63, 127
2, 73920, Note_off_c, 1, 70, 0
2, 74120, Note_off_c, 1, 63, 0
2, 74120, Note_off_c, 1, 74, 0
2, 74160, Note_on_c, 1, 58, 127
2, 74160, Note_on_c, 1, 75, 127
2, 74320, Note_off_c, 1, 58, 0
2, 74320, Note_off_c, 1, 75, 0
2, 74360, Note_on_c, 1, 62, 127
2, 74360, Note_on_c, 1, 71, 127
2, 74520, Note_off_c, 1, 62, 0
2, 74520, Note_off_c, 1, 71, 0
2, 74560, Note_on_c, 1, 60, 127
2, 74560, Note_on_c, 1, 77, 127
2, 74720, Note_on_c, 1, 55, 127
2, 74720, Note_on_c, 1, 58, 127
2, 74720, Note_off_c, 1, 60, 0
2, 74720, Note_on_c, 1, 62, 127
2, 74720, Note_on_c, 1, 67, 127
2, 74720, Note_on_c, 1, 70, 127
2, 74720, Note_off_c, 1, 77, 0
2, 74880, Note_off_c, 1, 55, 0
2, 74880, Note_off_c, 1, 58, 0
2, 74880, Note_off_c, 1, 62, 0
2, 74880, Note_off_c, 1, 67, 0
2, 74880, Note_off_c, 1, 70, 0
2, 74920, Note_on_c, 1, 65, 127
2, 74920, Note_on_c, 1, 70, 127
2, 75080, Note_off_c, 1, 65, 0
2, 75080, Note_off_c, 1, 70, 0
2, 75120, Note_on_c, 1, 62, 127
2, 75280, Note_off_c, 1, 62, 0
2, 75360, Note_on_c, 1, 57, 127
2, 75360, Note_on_c, 1, 84, 127
2, 75520, Note_off_c, 1, 57, 0
2, 75560, Note_on_c, 1, 62, 127
2, 75720, Note_off_c, 1, 62, 0
2, 75720, Note_off_c, 1, 84, 0
2, 75760, Note_on_c, 1, 58, 127
2, 75760, Note_on_c, 1, 82, 127
2, 75920, Note_off_c, 1, 58, 0
2, 75920, Note_off_c, 1, 82, 0
2, 75960, Note_on_c, 1, 63, 127
2, 75960, Note_on_c, 1, 82, 127
2, 76120, Note_off_c, 1, 63, 0
2, 76120, Note_off_c, 1, 82, 0
2, 76160, Note_on_c, 1, 58, 127
2, 76160, Note_on_c, 1, 81, 127
2, 76280, Note_off_c, 1, 58, 0
2, 76280, Note_off_c, 1, 81, 0
2, 76320, Note_on_c, 1, 63, 127
2, 76320, Note_on_c, 1, 82, 127
2, 76480, Note_off_c, 1, 63, 0
2, 76480, Note_off_c, 1, 82, 0
2, 76520, Note_on_c, 1, 57, 127
2, 76520, Note_on_c, 1, 84, 127
2, 76680, Note_off_c, 1, 57, 0
2, 76720, Note_on_c, 1, 63, 127
2, 76880, Note_off_c, 1, 63, 0
2, 76880, Note_off_c, 1, 84, 0
2, 76920, Note_on_c, 1, 58, 127
2, 76920, Note_on_c, 1, 78, 127
2, 77040, Note_off_c, 1, 58, 0
2, 77080, Note_on_c, 1, 62, 127
2, 77240, Note_off_c, 1, 62, 0
2, 77240, Note_off_c, 1, 78, 0
2, 77280, Note_on_c, 1, 53, 127
2, 77440, Note_off_c, 1, 53, 0
2, 77520, Note_on_c, 1, 58, 127
2, 77680, Note_off_c, 1, 58, 0
2, 77720, Note_on_c, 1, 55, 127
2, 77720, Note_on_c, 1, 75, 127
2, 77880, Note_off_c, 1, 55, 0
2, 77880, Note_off_c, 1, 75, 0
2, 77920, Note_on_c, 1, 62, 127
2, 77920, Note_on_c, 1, 77, 127
2, 78080, Note_off_c, 1, 62, 0
2, 78080, Note_off_c, 1, 77, 0
2, 78120, Note_on_c, 1, 58, 127
2, 78120, Note_on_c, 1, 75, 127
2, 78280, Note_off_c, 1, 58, 0
2, 78280, Note_off_c, 1, 75, 0
2, 78320, Note_on_c, 1, 62, 127
2, 78320, Note_on_c, 1, 74, 127
2, 78440, Note_off_c, 1, 62, 0
2, 78440, Note_off_c, 1, 74, 0
2, 78480, Note_on_c, 1, 57, 127
2, 78480, Note_on_c, 1, 84, 127
2, 78640, Note_off_c, 1, 57, 0
2, 78640, Note_off_c, 1, 84, 0
2, 78680, Note_on_c, 1, 63, 127
2, 78840, Note_off_c, 1, 63, 0
2, 78880, Note_on_c, 1, 60, 127
2, 78880, Note_on_c, 1, 81, 127
2, 79040, Note_off_c, 1, 60, 0
2, 79040, Note_off_c, 1, 81, 0
2, 79080, Note_on_c, 1, 63, 127
2, 79080, Note_on_c, 1, 79, 127
2, 79240, Note_off_c, 1, 63, 0
2, 79240, Note_off_c, 1, 79, 0
2, 79280, Note_on_c, 1, 57, 127
2, 79280, Note_on_c, 1, 77, 127
2, 79440, Note_off_c, 1, 57, 0
2, 79440, Note_off_c, 1, 77, 0
2, 79480, Note_on_c, 1, 75, 127
2, 79640, Note_off_c, 1, 75, 0
2, 79720, Note_on_c, 1, 55, 127
2, 79720, Note_on_c, 1, 83, 127
2, 79880, Note_off_c, 1, 55, 0
2, 79920, Note_on_c, 1, 62, 127
2, 80040, Note_off_c, 1, 62, 0
2, 80080, Note_on_c, 1, 63, 127
2, 80240, Note_off_c, 1, 63, 0
2, 80280, Note_on_c, 1, 59, 127
2, 80440, Note_off_c, 1, 59, 0
2, 80480, Note_on_c, 1, 62, 127
2, 80640, Note_off_c, 1, 62, 0
2, 80640, Note_off_c, 1, 83, 0
2, 80680, Note_on_c, 1, 60, 127
2, 80680, Note_on_c, 1, 84, 127
2, 80840, Note_off_c, 1, 60, 0
2, 80880, Note_on_c, 1, 63, 127
2, 81040, Note_off_c, 1, 63, 0
2, 81040, Note_off_c, 1, 84, 0
2, 81080, Note_on_c, 1, 53, 127
2, 81080, Note_on_c, 1, 82, 127
2, 81240, Note_off_c, 1, 53, 0
2, 81240, Note_off_c, 1, 82, 0
2, 81280, Note_on_c, 1, 59, 127
2, 81280, Note_on_c, 1, 79, 127
2, 81440, Note_off_c, 1, 59, 0
2, 81440, Note_off_c, 1, 79, 0
2, 81480, Note_on_c, 1, 62, 127
2, 81480, Note_on_c, 1, 81, 127
2, 81640, Note_off_c, 1, 62, 0
2, 81640, Note_off_c, 1, 81, 0
2, 81680, Note_on_c, 1, 50, 127
2, 81680, Note_on_c, 1, 79, 127
2, 81840, Note_off_c, 1, 50, 0
2, 81840, Note_off_c, 1, 79, 0
2, 81920, Note_on_c, 1, 60, 127
2, 81920, Note_on_c, 1, 75, 127
2, 82040, Note_off_c, 1, 60, 0
2, 82040, Note_off_c, 1, 75, 0
2, 82080, Note_on_c, 1, 51, 127
2, 82080, Note_on_c, 1, 79, 127
2, 82240, Note_off_c, 1, 51, 0
2, 82280, Note_on_c, 1, 63, 127
2, 82440, Note_off_c, 1, 63, 0
2, 82480, Note_on_c, 1, 55, 127
2, 82640, Note_off_c, 1, 55, 0
2, 82680, Note_on_c, 1, 63, 127
2, 82840, Note_off_c, 1, 63, 0
2, 82840, Note_off_c, 1, 79, 0
2, 82880, Note_on_c, 1, 55, 127
2, 82880, Note_on_c, 1, 76, 127
2, 83040, Note_off_c, 1, 55, 0
2, 83080, Note_on_c, 1, 64, 127
2, 83240, Note_off_c, 1, 64, 0
2, 83280, Note_on_c, 1, 58, 127
2, 83440, Note_off_c, 1, 58, 0
2, 83480, Note_on_c, 1, 64, 127
2, 83640, Note_off_c, 1, 64, 0
2, 83680, Note_on_c, 1, 60, 127
2, 83840, Note_off_c, 1, 60, 0
2, 83840, Note_off_c, 1, 76, 0
2, 83920, Note_on_c, 1, 55, 127
2, 83920, Note_on_c, 1, 76, 127
2, 84040, Note_off_c, 1, 55, 0
2, 84080, Note_on_c, 1, 60, 127
2, 84240, Note_off_c, 1, 60, 0
2, 84280, Note_on_c, 1, 58, 127
2, 84440, Note_off_c, 1, 58, 0
2, 84440, Note_off_c, 1, 76, 0
2, 84480, Note_on_c, 1, 60, 127
2, 84480, Note_on_c, 1, 77, 127
2, 84640, Note_off_c, 1, 60, 0
2, 84680, Note_on_c, 1, 65, 127
2, 84840, Note_off_c, 1, 65, 0
2, 84840, Note_off_c, 1, 77, 0
2, 84880, Note_on_c, 1, 58, 127
2, 84880, Note_on_c, 1, 76, 127
2, 85040, Note_off_c, 1, 58, 0
2, 85040, Note_off_c, 1, 76, 0
2, 85080, Note_on_c, 1, 62, 127
2, 85080, Note_on_c, 1, 77, 127
2, 85240, Note_off_c, 1, 62, 0
2, 85240, Note_off_c, 1, 77, 0
2, 85280, Note_on_c, 1, 60, 127
2, 85280, Note_on_c, 1, 77, 127
2, 85400, Note_off_c, 1, 60, 0
2, 85440, Note_on_c, 1, 64, 127
2, 85600, Note_off_c, 1, 64, 0
2, 85600, Note_off_c, 1, 77, 0
2, 85640, Note_on_c, 1, 56, 127
2, 85640, Note_on_c, 1, 77, 127
2, 85800, Note_off_c, 1, 56, 0
2, 85840, Note_on_c, 1, 60, 127
2, 85960, Note_off_c, 1, 60, 0
2, 85960, Note_off_c, 1, 77, 0
2, 86000, Note_on_c, 1, 60, 127
2, 86000, Note_on_c, 1, 77, 127
2, 86040, Note_off_c, 1, 60, 0
2, 86080, Note_on_c, 1, 65, 127
2, 86240, Note_off_c, 1, 65, 0
2, 86280, Note_on_c, 1, 60, 127
2, 86400, Note_off_c, 1, 60, 0
2, 86440, Note_on_c, 1, 65, 127
2, 86600, Note_off_c, 1, 65, 0
2, 86640, Note_on_c, 1, 55, 127
2, 86800, Note_off_c, 1, 55, 0
2, 86840, Note_on_c, 1, 56, 127
2, 87000, Note_off_c, 1, 56, 0
2, 87040, Note_on_c, 1, 60, 127
2, 87200, Note_off_c, 1, 60, 0
2, 87240, Note_on_c, 1, 65, 127
2, 87440, Note_off_c, 1, 65, 0
2, 87440, Note_off_c, 1, 77, 0
2, 87480, Note_on_c, 1, 59, 127
2, 87480, Note_on_c, 1, 76, 127
2, 87640, Note_off_c, 1, 59, 0
2, 87680, Note_on_c, 1, 64, 127
2, 87840, Note_off_c, 1, 64, 0
2, 87840, Note_off_c, 1, 76, 0
2, 87880, Note_on_c, 1, 59, 127
2, 87880, Note_on_c, 1, 71, 127
2, 88040, Note_off_c, 1, 59, 0
2, 88080, Note_on_c, 1, 68, 127
2, 88240, Note_off_c, 1, 68, 0
2, 88240, Note_off_c, 1, 71, 0
2, 88280, Note_on_c, 1, 71, 127
2, 88320, Note_on_c, 1, 59, 127
2, 88440, Note_off_c, 1, 59, 0
2, 88480, Note_on_c, 1, 67, 127
2, 88640, Note_off_c, 1, 67, 0
2, 88640, Note_off_c, 1, 71, 0
2, 88680, Note_on_c, 1, 47, 127
2, 88840, Note_off_c, 1, 47, 0
2, 88880, Note_on_c, 1, 61, 127
2, 89040, Note_off_c, 1, 61, 0
2, 89080, Note_on_c, 1, 64, 127
2, 89240, Note_off_c, 1, 64, 0
2, 89280, Note_on_c, 1, 59, 127
2, 89440, Note_off_c, 1, 59, 0
2, 89480, Note_on_c, 1, 64, 127
2, 89480, Note_on_c, 1, 72, 127
2, 89600, Note_off_c, 1, 72, 0
2, 89640, Note_on_c, 1, 76, 127
2, 89800, Note_off_c, 1, 64, 0
2, 89800, Note_off_c, 1, 76, 0
2, 89840, Note_on_c, 1, 56, 127
2, 89840, Note_on_c, 1, 76, 127
2, 90000, Note_off_c, 1, 56, 0
2, 90000, Note_off_c, 1, 76, 0
2, 90040, Note_on_c, 1, 62, 127
2, 90040, Note_on_c, 1, 74, 127
2, 90200, Note_off_c, 1, 62, 0
2, 90200, Note_off_c, 1, 74, 0
2, 90240, Note_on_c, 1, 60, 127
2, 90240, Note_on_c, 1, 64, 127
2, 90240, Note_on_c, 1, 72, 127
2, 90400, Note_off_c, 1, 60, 0
2, 90400, Note_off_c, 1, 64, 0
2, 90400, Note_off_c, 1, 72, 0
2, 90680, Note_on_c, 1, 60, 127
2, 90800, Note_off_c, 1, 60, 0
2, 90840, Note_on_c, 1, 64, 127
2, 91000, Note_off_c, 1, 64, 0
2, 91040, Note_on_c, 1, 60, 127
2, 91200, Note_off_c, 1, 60, 0
2, 91240, Note_on_c, 1, 64, 127
2, 91360, Note_off_c, 1, 64, 0
2, 91400, Note_on_c, 1, 48, 127
2, 91400, Note_on_c, 1, 73, 127
2, 91400, Note_on_c, 1, 75, 127
2, 91440, Note_off_c, 1, 75, 0
2, 91560, Note_off_c, 1, 48, 0
2, 91560, Note_off_c, 1, 73, 0
2, 91600, Note_on_c, 1, 64, 127
2, 91760, Note_off_c, 1, 64, 0
2, 91800, Note_on_c, 1, 41, 127
2, 91800, Note_on_c, 1, 74, 127
2, 91960, Note_off_c, 1, 41, 0
2, 91960, Note_off_c, 1, 74, 0
2, 92000, Note_on_c, 1, 64, 127
2, 92160, Note_off_c, 1, 64, 0
2, 92200, Note_on_c, 1, 48, 127
2, 92200, Note_on_c, 1, 77, 127
2, 92320, Note_off_c, 1, 48, 0
2, 92360, Note_on_c, 1, 57, 127
2, 92360, Note_off_c, 1, 77, 0
2, 92360, Note_on_c, 1, 78, 127
2, 92520, Note_off_c, 1, 57, 0
2, 92520, Note_off_c, 1, 78, 0
2, 92560, Note_on_c, 1, 64, 127
2, 92560, Note_on_c, 1, 76, 127
2, 92720, Note_off_c, 1, 64, 0
2, 92720, Note_off_c, 1, 76, 0
2, 92800, Note_on_c, 1, 53, 127
2, 92800, Note_on_c, 1, 74, 127
2, 92960, Note_off_c, 1, 53, 0
2, 92960, Note_off_c, 1, 74, 0
2, 93000, Note_on_c, 1, 57, 127
2, 93000, Note_on_c, 1, 72, 127
2, 93160, Note_off_c, 1, 57, 0
2, 93160, Note_off_c, 1, 72, 0
2, 93200, Note_on_c, 1, 69, 127
2, 93360, Note_off_c, 1, 69, 0
2, 93400, Note_on_c, 1, 60, 127
2, 93400, Note_on_c, 1, 79, 127
2, 93520, Note_off_c, 1, 60, 0
2, 93520, Note_off_c, 1, 79, 0
2, 93560, Note_on_c, 1, 62, 127
2, 93560, Note_on_c, 1, 79, 127
2, 93720, Note_off_c, 1, 62, 0
2, 93720, Note_off_c, 1, 79, 0
2, 93760, Note_on_c, 1, 60, 127
2, 93760, Note_on_c, 1, 69, 127
2, 93920, Note_off_c, 1, 60, 0
2, 93920, Note_off_c, 1, 69, 0
2, 93960, Note_on_c, 1, 67, 127
2, 93960, Note_on_c, 1, 76, 127
2, 94120, Note_off_c, 1, 67, 0
2, 94120, Note_off_c, 1, 76, 0
2, 94160, Note_on_c, 1, 57, 127
2, 94320, Note_off_c, 1, 57, 0
2, 94360, Note_on_c, 1, 71, 127
2, 94480, Note_off_c, 1, 71, 0
2, 94520, Note_on_c, 1, 57, 127
2, 94520, Note_on_c, 1, 79, 127
2, 94680, Note_off_c, 1, 57, 0
2, 94680, Note_off_c, 1, 79, 0
2, 94720, Note_on_c, 1, 63, 127
2, 94720, Note_on_c, 1, 72, 127
2, 94880, Note_off_c, 1, 63, 0
2, 94880, Note_off_c, 1, 72, 0
2, 94960, Note_on_c, 1, 55, 127
2, 94960, Note_on_c, 1, 78, 127
2, 95120, Note_off_c, 1, 55, 0
2, 95120, Note_off_c, 1, 78, 0
2, 95160, Note_on_c, 1, 60, 127
2, 95320, Note_off_c, 1, 60, 0
2, 95360, Note_on_c, 1, 64, 127
2, 95360, Note_on_c, 1, 78, 127
2, 95520, Note_off_c, 1, 64, 0
2, 95520, Note_off_c, 1, 78, 0
2, 95560, Note_on_c, 1, 67, 127
2, 95560, Note_on_c, 1, 76, 127
2, 95680, Note_off_c, 1, 76, 0
2, 95720, Note_off_c, 1, 67, 0
2, 95760, Note_on_c, 1, 53, 127
2, 95760, Note_on_c, 1, 76, 127
2, 95920, Note_off_c, 1, 53, 0
2, 95920, Note_off_c, 1, 76, 0
2, 95960, Note_on_c, 1, 65, 127
2, 95960, Note_on_c, 1, 76, 127
2, 96120, Note_off_c, 1, 65, 0
2, 96120, Note_off_c, 1, 76, 0
2, 96160, Note_on_c, 1, 57, 127
2, 96160, Note_on_c, 1, 74, 127
2, 96280, Note_off_c, 1, 57, 0
2, 96280, Note_off_c, 1, 74, 0
2, 96320, Note_on_c, 1, 64, 127
2, 96320, Note_on_c, 1, 72, 127
2, 96480, Note_off_c, 1, 64, 0
2, 96480, Note_off_c, 1, 72, 0
2, 96520, Note_on_c, 1, 53, 127
2, 96520, Note_on_c, 1, 71, 127
2, 96680, Note_off_c, 1, 53, 0
2, 96720, Note_on_c, 1, 65, 127
2, 96880, Note_off_c, 1, 65, 0
2, 96880, Note_off_c, 1, 71, 0
2, 96920, Note_on_c, 1, 62, 127
2, 96920, Note_on_c, 1, 74, 127
2, 97080, Note_off_c, 1, 62, 0
2, 97080, Note_off_c, 1, 74, 0
2, 97120, Note_on_c, 1, 74, 127
2, 97160, Note_on_c, 1, 55, 127
2, 97320, Note_off_c, 1, 55, 0
2, 97320, Note_off_c, 1, 74, 0
2, 97360, Note_on_c, 1, 58, 127
2, 97360, Note_on_c, 1, 74, 127
2, 97520, Note_off_c, 1, 58, 0
2, 97560, Note_on_c, 1, 65, 127
2, 97680, Note_off_c, 1, 65, 0
2, 97680, Note_off_c, 1, 74, 0
2, 97720, Note_on_c, 1, 63, 127
2, 97720, Note_on_c, 1, 72, 127
2, 97880, Note_off_c, 1, 63, 0
2, 97880, Note_off_c, 1, 72, 0
2, 97920, Note_on_c, 1, 57, 127
2, 97920, Note_on_c, 1, 74, 127
2, 98080, Note_off_c, 1, 57, 0
2, 98120, Note_on_c, 1, 62, 127
2, 98280, Note_off_c, 1, 62, 0
2, 98280, Note_off_c, 1, 74, 0
2, 98320, Note_on_c, 1, 53, 127
2, 98320, Note_on_c, 1, 75, 127
2, 98480, Note_off_c, 1, 53, 0
2, 98480, Note_off_c, 1, 75, 0
2, 98520, Note_on_c, 1, 62, 127
2, 98520, Note_on_c, 1, 76, 127
2, 98640, Note_off_c, 1, 62, 0
2, 98680, Note_on_c, 1, 65, 127
2, 98840, Note_off_c, 1, 65, 0
2, 98840, Note_off_c, 1, 76, 0
2, 98880, Note_on_c, 1, 57, 127
2, 98880, Note_on_c, 1, 74, 127
2, 99040, Note_off_c, 1, 57, 0
2, 99080, Note_on_c, 1, 65, 127
2, 99240, Note_off_c, 1, 65, 0
2, 99240, Note_off_c, 1, 74, 0
2, 99320, Note_on_c, 1, 52, 127
2, 99480, Note_off_c, 1, 52, 0
2, 99520, Note_on_c, 1, 62, 127
2, 99680, Note_off_c, 1, 62, 0
2, 99720, Note_on_c, 1, 53, 127
2, 99880, Note_off_c, 1, 53, 0
2, 99920, Note_on_c, 1, 62, 127
2, 100040, Note_off_c, 1, 62, 0
2, 100080, Note_on_c, 1, 53, 127
2, 100080, Note_on_c, 1, 72, 127
2, 100240, Note_off_c, 1, 53, 0
2, 100280, Note_on_c, 1, 57, 127
2, 100440, Note_off_c, 1, 57, 0
2, 100480, Note_on_c, 1, 60, 127
2, 100640, Note_off_c, 1, 60, 0
2, 100680, Note_on_c, 1, 65, 127
2, 100840, Note_off_c, 1, 65, 0
2, 100840, Note_off_c, 1, 72, 0
2, 100880, Note_on_c, 1, 57, 127
2, 100880, Note_on_c, 1, 77, 127
2, 101040, Note_off_c, 1, 57, 0
2, 101080, Note_on_c, 1, 60, 127
2, 101240, Note_off_c, 1, 60, 0
2, 101240, Note_off_c, 1, 77, 0
2, 101280, Note_on_c, 1, 65, 127
2, 101280, Note_on_c, 1, 76, 127
2, 101400, Note_off_c, 1, 76, 0
2, 101440, Note_on_c, 1, 74, 127
2, 101520, Note_off_c, 1, 65, 0
2, 101520, Note_off_c, 1, 74, 0
2, 101560, Note_on_c, 1, 65, 127
2, 101560, Note_on_c, 1, 74, 127
2, 101640, Note_off_c, 1, 65, 0
2, 101640, Note_off_c, 1, 74, 0
2, 101680, Note_on_c, 1, 53, 127
2, 101680, Note_on_c, 1, 69, 127
2, 101840, Note_off_c, 1, 53, 0
2, 101880, Note_on_c, 1, 60, 127
2, 102040, Note_off_c, 1, 60, 0
2, 102040, Note_off_c, 1, 69, 0
2, 102080, Note_on_c, 1, 48, 127
2, 102080, Note_on_c, 1, 70, 127
2, 102240, Note_off_c, 1, 48, 0
2, 102240, Note_on_c, 1, 69, 127
2, 102240, Note_off_c, 1, 70, 0
2, 102280, Note_on_c, 1, 57, 127
2, 102400, Note_off_c, 1, 57, 0
2, 102400, Note_off_c, 1, 69, 0
2, 102440, Note_on_c, 1, 48, 127
2, 102440, Note_on_c, 1, 67, 127
2, 102600, Note_off_c, 1, 48, 0
2, 102640, Note_on_c, 1, 55, 127
2, 102800, Note_off_c, 1, 55, 0
2, 102800, Note_off_c, 1, 67, 0
2, 102840, Note_on_c, 1, 58, 127
2, 102840, Note_on_c, 1, 67, 127
2, 103000, Note_off_c, 1, 58, 0
2, 103040, Note_on_c, 1, 55, 127
2, 103200, Note_off_c, 1, 55, 0
2, 103240, Note_on_c, 1, 60, 127
2, 103360, Note_off_c, 1, 60, 0
2, 103400, Note_on_c, 1, 55, 127
2, 103560, Note_off_c, 1, 55, 0
2, 103600, Note_on_c, 1, 60, 127
2, 103720, Note_off_c, 1, 60, 0
2, 103720, Note_off_c, 1, 67, 0
2, 103760, Note_on_c, 1, 60, 127
2, 103760, Note_on_c, 1, 67, 127
2, 103800, Note_off_c, 1, 60, 0
2, 103800, Note_off_c, 1, 67, 0
2, 103840, Note_on_c, 1, 53, 127
2, 103840, Note_on_c, 1, 69, 127
2, 104000, Note_off_c, 1, 53, 0
2, 104040, Note_on_c, 1, 63, 127
2, 104200, Note_off_c, 1, 63, 0
2, 104200, Note_off_c, 1, 69, 0
2, 104240, Note_on_c, 1, 53, 127
2, 104240, Note_on_c, 1, 69, 127
2, 104400, Note_off_c, 1, 53, 0
2, 104440, Note_on_c, 1, 63, 127
2, 104600, Note_off_c, 1, 63, 0
2, 104600, Note_off_c, 1, 69, 0
2, 104640, Note_on_c, 1, 58, 127
2, 104960, Note_off_c, 1, 58, 0
2, 105000, Note_on_c, 1, 67, 127
2, 105160, Note_off_c, 1, 67, 0
2, 105200, Note_on_c, 1, 63, 127
2, 105360, Note_off_c, 1, 63, 0
2, 105400, Note_on_c, 1, 53, 127
2, 105560, Note_off_c, 1, 53, 0
2, 105600, Note_on_c, 1, 58, 127
2, 105760, Note_off_c, 1, 58, 0
2, 105840, Note_on_c, 1, 55, 127
2, 105840, Note_on_c, 1, 72, 127
2, 105960, Note_off_c, 1, 72, 0
2, 106000, Note_on_c, 1, 70, 127
2, 106160, Note_off_c, 1, 55, 0
2, 106160, Note_off_c, 1, 70, 0
2, 106200, Note_on_c, 1, 55, 127
2, 106200, Note_on_c, 1, 74, 127
2, 106360, Note_off_c, 1, 55, 0
2, 106360, Note_off_c, 1, 74, 0
2, 106400, Note_on_c, 1, 70, 127
2, 106560, Note_off_c, 1, 70, 0
2, 106600, Note_on_c, 1, 76, 127
2, 106760, Note_off_c, 1, 76, 0
2, 106800, Note_on_c, 1, 77, 127
2, 106960, Note_off_c, 1, 77, 0
2, 107000, Note_on_c, 1, 50, 127
2, 107000, Note_on_c, 1, 70, 127
2, 107120, Note_off_c, 1, 70, 0
2, 107160, Note_off_c, 1, 50, 0
2, 107200, Note_on_c, 1, 67, 127
2, 107320, Note_off_c, 1, 67, 0
2, 107360, Note_on_c, 1, 57, 127
2, 107360, Note_on_c, 1, 72, 127
2, 107520, Note_off_c, 1, 57, 0
2, 107560, Note_on_c, 1, 65, 127
2, 107720, Note_off_c, 1, 65, 0
2, 107720, Note_off_c, 1, 72, 0
2, 107760, Note_on_c, 1, 61, 127
2, 107760, Note_on_c, 1, 70, 127
2, 107920, Note_off_c, 1, 61, 0
2, 107960, Note_off_c, 1, 70, 0
2, 108000, Note_on_c, 1, 62, 127
2, 108000, Note_on_c, 1, 70, 127
2, 108120, Note_off_c, 1, 62, 0
2, 108160, Note_on_c, 1, 60, 127
2, 108320, Note_off_c, 1, 60, 0
2, 108360, Note_on_c, 1, 58, 127
2, 108520, Note_off_c, 1, 58, 0
2, 108560, Note_on_c, 1, 62, 127
2, 108720, Note_off_c, 1, 62, 0
2, 108720, Note_off_c, 1, 70, 0
2, 108760, Note_on_c, 1, 74, 127
2, 108960, Note_on_c, 1, 58, 127
2, 109080, Note_off_c, 1, 58, 0
2, 109120, Note_on_c, 1, 62, 127
2, 109280, Note_off_c, 1, 62, 0
2, 109280, Note_off_c, 1, 74, 0
2, 109320, Note_on_c, 1, 65, 127
2, 109320, Note_on_c, 1, 70, 127
2, 109480, Note_off_c, 1, 65, 0
2, 109520, Note_on_c, 1, 62, 127
2, 109680, Note_off_c, 1, 62, 0
2, 109680, Note_off_c, 1, 70, 0
2, 109720, Note_on_c, 1, 59, 127
2, 109720, Note_on_c, 1, 77, 127
2, 109880, Note_off_c, 1, 59, 0
2, 109880, Note_off_c, 1, 77, 0
2, 109920, Note_on_c, 1, 55, 127
2, 109920, Note_on_c, 1, 76, 127
2, 110080, Note_off_c, 1, 55, 0
2, 110080, Note_off_c, 1, 76, 0
2, 110120, Note_on_c, 1, 59, 127
2, 110120, Note_on_c, 1, 79, 127
2, 110200, Note_off_c, 1, 59, 0
2, 110200, Note_off_c, 1, 79, 0
2, 110240, Note_on_c, 1, 59, 127
2, 110240, Note_on_c, 1, 79, 127
2, 110280, Note_off_c, 1, 59, 0
2, 110280, Note_off_c, 1, 79, 0
2, 110320, Note_on_c, 1, 60, 127
2, 110480, Note_off_c, 1, 60, 0
2, 110520, Note_on_c, 1, 64, 127
2, 110680, Note_off_c, 1, 64, 0
2, 110720, Note_on_c, 1, 60, 127
2, 110720, Note_on_c, 1, 89, 127
2, 110880, Note_off_c, 1, 60, 0
2, 110880, Note_off_c, 1, 89, 0
2, 110920, Note_on_c, 1, 63, 127
2, 110920, Note_on_c, 1, 75, 127
2, 111080, Note_off_c, 1, 63, 0
2, 111080, Note_off_c, 1, 75, 0
2, 111120, Note_on_c, 1, 57, 127
2, 111120, Note_on_c, 1, 84, 127
2, 111240, Note_off_c, 1, 57, 0
2, 111280, Note_on_c, 1, 63, 127
2, 111440, Note_off_c, 1, 63, 0
2, 111440, Note_off_c, 1, 84, 0
2, 111480, Note_on_c, 1, 53, 127
2, 111480, Note_on_c, 1, 69, 127
2, 111640, Note_off_c, 1, 53, 0
2, 111640, Note_off_c, 1, 69, 0
2, 111680, Note_on_c, 1, 62, 127
2, 111680, Note_on_c, 1, 77, 127
2, 111840, Note_off_c, 1, 62, 0
2, 111840, Note_off_c, 1, 77, 0
2, 111880, Note_on_c, 1, 58, 127
2, 111880, Note_on_c, 1, 81, 127
2, 112000, Note_off_c, 1, 58, 0
2, 112000, Note_off_c, 1, 81, 0
2, 112040, Note_on_c, 1, 57, 127
2, 112200, Note_off_c, 1, 57, 0
2, 112240, Note_on_c, 1, 54, 127
2, 112240, Note_on_c, 1, 84, 127
2, 112320, Note_off_c, 1, 54, 0
2, 112320, Note_off_c, 1, 84, 0
2, 112360, Note_on_c, 1, 54, 127
2, 112360, Note_on_c, 1, 84, 127
2, 112440, Note_off_c, 1, 54, 0
2, 112440, Note_off_c, 1, 84, 0
2, 112480, Note_on_c, 1, 57, 127
2, 112640, Note_off_c, 1, 57, 0
2, 112680, Note_on_c, 1, 58, 127
2, 112680, Note_on_c, 1, 86, 127
2, 112800, Note_off_c, 1, 58, 0
2, 112800, Note_off_c, 1, 86, 0
2, 112840, Note_on_c, 1, 62, 127
2, 112840, Note_on_c, 1, 85, 127
2, 113000, Note_off_c, 1, 62, 0
2, 113000, Note_off_c, 1, 85, 0
2, 113040, Note_on_c, 1, 55, 127
2, 113040, Note_on_c, 1, 83, 127
2, 113200, Note_off_c, 1, 55, 0
2, 113200, Note_off_c, 1, 83, 0
2, 113240, Note_on_c, 1, 58, 127
2, 113400, Note_off_c, 1, 58, 0
2, 113440, Note_on_c, 1, 55, 127
2, 113440, Note_on_c, 1, 86, 127
2, 113560, Note_off_c, 1, 55, 0
2, 113560, Note_off_c, 1, 86, 0
2, 113600, Note_on_c, 1, 58, 127
2, 113760, Note_off_c, 1, 58, 0
2, 113800, Note_on_c, 1, 59, 127
2, 113800, Note_on_c, 1, 86, 127
2, 113960, Note_off_c, 1, 59, 0
2, 113960, Note_off_c, 1, 86, 0
2, 114000, Note_on_c, 1, 57, 127
2, 114160, Note_off_c, 1, 57, 0
2, 114200, Note_on_c, 1, 48, 127
2, 114200, Note_on_c, 1, 84, 127
2, 114320, Note_off_c, 1, 48, 0
2, 114320, Note_off_c, 1, 84, 0
2, 114400, Note_on_c, 1, 58, 127
2, 114560, Note_off_c, 1, 58, 0
2, 114600, Note_on_c, 1, 57, 127
2, 114600, Note_on_c, 1, 84, 127
2, 114760, Note_off_c, 1, 57, 0
2, 114760, Note_off_c, 1, 84, 0
2, 114800, Note_on_c, 1, 60, 127
2, 114800, Note_on_c, 1, 84, 127
2, 114960, Note_off_c, 1, 60, 0
2, 114960, Note_off_c, 1, 84, 0
2, 115000, Note_on_c, 1, 58, 127
2, 115000, Note_on_c, 1, 76, 127
2, 115120, Note_off_c, 1, 58, 0
2, 115120, Note_off_c, 1, 76, 0
2, 115160, Note_on_c, 1, 60, 127
2, 115320, Note_off_c, 1, 60, 0
2, 115360, Note_on_c, 1, 58, 127
2, 115360, Note_on_c, 1, 76, 127
2, 115520, Note_off_c, 1, 58, 0
2, 115520, Note_off_c, 1, 76, 0
2, 115560, Note_on_c, 1, 60, 127
2, 115720, Note_off_c, 1, 60, 0
2, 115760, Note_on_c, 1, 57, 127
2, 115760, Note_on_c, 1, 76, 127
2, 115880, Note_off_c, 1, 57, 0
2, 115880, Note_off_c, 1, 76, 0
2, 115920, Note_on_c, 1, 60, 127
2, 116080, Note_off_c, 1, 60, 0
2, 116120, Note_on_c, 1, 57, 127
2, 116120, Note_on_c, 1, 81, 127
2, 116280, Note_off_c, 1, 57, 0
2, 116280, Note_off_c, 1, 81, 0
2, 116320, Note_on_c, 1, 60, 127
2, 116480, Note_off_c, 1, 60, 0
2, 116560, Note_on_c, 1, 52, 127
2, 116560, Note_on_c, 1, 82, 127
2, 116720, Note_off_c, 1, 52, 0
2, 116720, Note_off_c, 1, 82, 0
2, 116760, Note_on_c, 1, 60, 127
2, 116920, Note_off_c, 1, 60, 0
2, 116960, Note_on_c, 1, 52, 127
2, 116960, Note_on_c, 1, 82, 127
2, 117080, Note_off_c, 1, 52, 0
2, 117080, Note_off_c, 1, 82, 0
2, 117120, Note_on_c, 1, 60, 127
2, 117280, Note_off_c, 1, 60, 0
2, 117320, Note_on_c, 1, 52, 127
2, 117320, Note_on_c, 1, 82, 127
2, 117480, Note_off_c, 1, 52, 0
2, 117480, Note_off_c, 1, 82, 0
2, 117520, Note_on_c, 1, 60, 127
2, 117680, Note_off_c, 1, 60, 0
2, 117720, Note_on_c, 1, 53, 127
2, 117720, Note_on_c, 1, 81, 127
2, 117880, Note_off_c, 1, 53, 0
2, 117880, Note_off_c, 1, 81, 0
2, 117920, Note_on_c, 1, 60, 127
2, 118080, Note_off_c, 1, 60, 0
2, 118120, Note_on_c, 1, 57, 127
2, 118120, Note_on_c, 1, 84, 127
2, 118240, Note_off_c, 1, 57, 0
2, 118240, Note_off_c, 1, 84, 0
2, 118280, Note_on_c, 1, 60, 127
2, 118440, Note_off_c, 1, 60, 0
2, 118480, Note_on_c, 1, 57, 127
2, 118480, Note_on_c, 1, 84, 127
2, 118640, Note_off_c, 1, 57, 0
2, 118640, Note_off_c, 1, 84, 0
2, 118720, Note_on_c, 1, 60, 127
2, 118880, Note_off_c, 1, 60, 0
2, 118920, Note_on_c, 1, 53, 127
2, 118920, Note_on_c, 1, 83, 127
2, 119040, Note_off_c, 1, 53, 0
2, 119080, Note_on_c, 1, 61, 127
2, 119240, Note_off_c, 1, 61, 0
2, 119240, Note_off_c, 1, 83, 0
2, 119280, Note_on_c, 1, 55, 127
2, 119280, Note_on_c, 1, 79, 127
2, 119440, Note_off_c, 1, 55, 0
2, 119440, Note_off_c, 1, 79, 0
2, 119480, Note_on_c, 1, 60, 127
2, 119640, Note_off_c, 1, 60, 0
2, 119680, Note_on_c, 1, 55, 127
2, 119680, Note_on_c, 1, 76, 127
2, 119760, Note_off_c, 1, 76, 0
2, 119800, Note_on_c, 1, 74, 127
2, 119840, Note_off_c, 1, 55, 0
2, 119840, Note_off_c, 1, 74, 0
2, 119880, Note_on_c, 1, 60, 127
2, 119880, Note_on_c, 1, 77, 127
2, 119920, Note_off_c, 1, 77, 0
2, 119960, Note_on_c, 1, 77, 127
2, 120000, Note_off_c, 1, 60, 0
2, 120000, Note_off_c, 1, 77, 0
2, 120040, End_track
3, 0, Start_track
3, 0, Title_t, "MIDI"
3, 1536, End_track
0, 0, End_of_file
