0, 0, Header, 1, 3, 192
1, 0, Start_track
1, 0, Time_signature, 4, 2, 24, 8
1, 0, Tempo, 500000
1, 120040, End_track
2, 0, Start_track
2, 0, Text_t, "random instrument: random person i dunno whatev"
2, 0, Title_t, "Track 1"
2, 0, Note_on_c, 1, 40, 127
2, 0, Note_on_c, 1, 48, 127
2, 0, Note_on_c, 1, 56, 127
2, 0, Note_on_c, 1, 60, 127
2, 40, Note_off_c, 1, 40, 0
2, 40, Note_on_c, 1, 42, 127
2, 40, Note_off_c, 1, 48, 0
2, 40, Note_on_c, 1, 49, 127
2, 40, Note_on_c, 1, 54, 127
2, 40, Note_off_c, 1, 56, 0
2, 40, Note_off_c, 1, 60, 0
2, 40, Note_on_c, 1, 82, 127
2, 40, Note_on_c, 1, 88, 127
2, 40, Note_on_c, 1, 94, 127
2, 80, Note_off_c, 1, 42, 0
2, 80, Note_off_c, 1, 49, 0
2, 80, Note_on_c, 1, 52, 127
2, 80, Note_off_c, 1, 54, 0
2, 80, Note_on_c, 1, 57, 127
2, 80, Note_on_c, 1, 61, 127
2, 80, Note_on_c, 1, 64, 127
2, 80, Note_on_c, 1, 69, 127
2, 80, Note_on_c, 1, 73, 127
2, 80, Note_on_c, 1, 78, 127
2, 80, Note_off_c, 1, 82, 0
2, 80, Note_off_c, 1, 88, 0
2, 80, Note_off_c, 1, 94, 0
2, 120, Note_off_c, 1, 52, 0
2, 120, Note_off_c, 1, 57, 0
2, 120, Note_off_c, 1, 61, 0
2, 120, Note_off_c, 1, 64, 0
2, 120, Note_off_c, 1, 69, 0
2, 120, Note_off_c, 1, 73, 0
2, 120, Note_off_c, 1, 78, 0
2, 600, Note_on_c, 1, 28, 127
2, 600, Note_on_c, 1, 40, 127
2, 600, Note_on_c, 1, 59, 127
2, 600, Note_on_c, 1, 68, 127
2, 600, Note_on_c, 1, 71, 127
2, 920, Note_off_c, 1, 28, 0
2, 920, Note_off_c, 1, 40, 0
2, 920, Note_off_c, 1, 59, 0
2, 920, Note_off_c, 1, 68, 0
2, 920, Note_off_c, 1, 71, 0
2, 960, Note_on_c, 1, 41, 127
2, 960, Note_on_c, 1, 53, 127
2, 960, Note_on_c, 1, 68, 127
2, 960, Note_on_c, 1, 71, 127
2, 960, Note_on_c, 1, 74, 127
2, 960, Note_on_c, 1, 80, 127
2, 1000, Note_off_c, 1, 53, 0
2, 1280, Note_on_c, 1, 53, 127
2, 1280, Note_off_c, 1, 68, 0
2, 1280, Note_off_c, 1, 71, 0
2, 1280, Note_off_c, 1, 74, 0
2, 1280, Note_off_c, 1, 80, 0
2, 1320, Note_on_c, 1, 35, 127
2, 1320, Note_off_c, 1, 41, 0
2, 1320, Note_on_c, 1, 47, 127
2, 1320, Note_off_c, 1, 53, 0
2, 1320, Note_on_c, 1, 54, 127
2, 1320, Note_on_c, 1, 59, 127
2, 1320, Note_on_c, 1, 62, 127
2, 1680, Note_on_c, 1, 42, 127
2, 1680, Note_off_c, 1, 59, 0
2, 1680, Note_off_c, 1, 62, 0
2, 1720, Note_off_c, 1, 42, 0
2, 1720, Note_on_c, 1, 59, 127
2, 1720, Note_on_c, 1, 62, 127
2, 2040, Note_off_c, 1, 35, 0
2, 2040, Note_off_c, 1, 47, 0
2, 2040, Note_off_c, 1, 54, 0
2, 2040, Note_off_c, 1, 59, 0
2, 2040, Note_off_c, 1, 62, 0
2, 2080, Note_on_c, 1, 30, 127
2, 2080, Note_on_c, 1, 42, 127
2, 2080, Note_on_c, 1, 51, 127
2, 2080, Note_on_c, 1, 59, 127
2, 2440, Note_off_c, 1, 30, 0
2, 2440, Note_off_c, 1, 42, 0
2, 2440, Note_off_c, 1, 51, 0
2, 2440, Note_off_c, 1, 59, 0
2, 2520, Note_on_c, 1, 35, 127
2, 2520, Note_on_c, 1, 42, 127
2, 2520, Note_on_c, 1, 54, 127
2, 2520, Note_on_c, 1, 74, 127
2, 2520, Note_on_c, 1, 77, 127
2, 2520, Note_on_c, 1, 83, 127
2, 2560, Note_off_c, 1, 35, 0
2, 2560, Note_off_c, 1, 42, 0
2, 2560, Note_on_c, 1, 49, 127
2, 2560, Note_on_c, 1, 52, 127
2, 2560, Note_off_c, 1, 54, 0
2, 2560, Note_on_c, 1, 73, 127
2, 2560, Note_off_c, 1, 74, 0
2, 2560, Note_off_c, 1, 77, 0
2, 2560, Note_off_c, 1, 83, 0
2, 2560, Note_on_c, 1, 85, 127
2, 2840, Note_off_c, 1, 49, 0
2, 2840, Note_off_c, 1, 52, 0
2, 2840, Note_off_c, 1, 73, 0
2, 2840, Note_off_c, 1, 85, 0
2, 2880, Note_on_c, 1, 35, 127
2, 2880, Note_on_c, 1, 47, 127
2, 2880, Note_on_c, 1, 54, 127
2, 3080, Note_on_c, 1, 57, 127
2, 3080, Note_on_c, 1, 63, 127
2, 3240, Note_off_c, 1, 35, 0
2, 3240, Note_off_c, 1, 47, 0
2, 3240, Note_off_c, 1, 54, 0
2, 3240, Note_off_c, 1, 57, 0
2, 3240, Note_off_c, 1, 63, 0
2, 3280, Note_on_c, 1, 52, 127
2, 3280, Note_on_c, 1, 74, 127
2, 3280, Note_on_c, 1, 84, 127
2, 3640, Note_off_c, 1, 52, 0
2, 3640, Note_on_c, 1, 71, 127
2, 3640, Note_off_c, 1, 74, 0
2, 3640, Note_off_c, 1, 84, 0
2, 3680, Note_on_c, 1, 49, 127
2, 3680, Note_on_c, 1, 58, 127
2, 3680, Note_off_c, 1, 71, 0
2, 3680, Note_on_c, 1, 73, 127
2, 3680, Note_on_c, 1, 78, 127
2, 4000, Note_off_c, 1, 58, 0
2, 4000, Note_off_c, 1, 73, 0
2, 4000, Note_off_c, 1, 78, 0
2, 4040, Note_on_c, 1, 59, 127
2, 4040, Note_on_c, 1, 74, 127
2, 4040, Note_on_c, 1, 77, 127
2, 4400, Note_off_c, 1, 49, 0
2, 4400, Note_off_c, 1, 59, 0
2, 4400, Note_off_c, 1, 74, 0
2, 4400, Note_off_c, 1, 77, 0
2, 4440, Note_on_c, 1, 47, 127
2, 4440, Note_on_c, 1, 54, 127
2, 4440, Note_on_c, 1, 57, 127
2, 4440, Note_on_c, 1, 69, 127
2, 4440, Note_on_c, 1, 73, 127
2, 4560, Note_off_c, 1, 47, 0
2, 4560, Note_off_c, 1, 54, 0
2, 4560, Note_off_c, 1, 57, 0
2, 4560, Note_off_c, 1, 69, 0
2, 4560, Note_off_c, 1, 73, 0
2, 4600, Note_on_c, 1, 47, 127
2, 4600, Note_on_c, 1, 54, 127
2, 4600, Note_on_c, 1, 57, 127
2, 4600, Note_on_c, 1, 69, 127
2, 4600, Note_on_c, 1, 73, 127
2, 4640, Note_off_c, 1, 47, 0
2, 4640, Note_off_c, 1, 54, 0
2, 4640, Note_off_c, 1, 57, 0
2, 4640, Note_off_c, 1, 69, 0
2, 4640, Note_off_c, 1, 73, 0
2, 4680, Note_on_c, 1, 42, 127
2, 4680, Note_on_c, 1, 50, 127
2, 4680, Note_on_c, 1, 54, 127
2, 4680, Note_on_c, 1, 59, 127
2, 4880, Note_off_c, 1, 59, 0
2, 4920, Note_off_c, 1, 42, 0
2, 4920, Note_off_c, 1, 50, 0
2, 4920, Note_on_c, 1, 58, 127
2, 4920, Note_on_c, 1, 61, 127
2, 4920, Note_on_c, 1, 78, 127
2, 4920, Note_on_c, 1, 82, 127
2, 4920, Note_on_c, 1, 85, 127
2, 4920, Note_on_c, 1, 90, 127
2, 5040, Note_on_c, 1, 50, 127
2, 5040, Note_on_c, 1, 57, 127
2, 5040, Note_off_c, 1, 58, 0
2, 5040, Note_off_c, 1, 61, 0
2, 5040, Note_on_c, 1, 62, 127
2, 5040, Note_on_c, 1, 81, 127
2, 5040, Note_off_c, 1, 82, 0
2, 5040, Note_off_c, 1, 85, 0
2, 5040, Note_on_c, 1, 86, 127
2, 5080, Note_off_c, 1, 50, 0
2, 5080, Note_off_c, 1, 54, 0
2, 5080, Note_off_c, 1, 57, 0
2, 5080, Note_off_c, 1, 62, 0
2, 5080, Note_off_c, 1, 78, 0
2, 5080, Note_off_c, 1, 81, 0
2, 5080, Note_off_c, 1, 86, 0
2, 5080, Note_off_c, 1, 90, 0
2, 5120, Note_on_c, 1, 47, 127
2, 5120, Note_on_c, 1, 57, 127
2, 5120, Note_on_c, 1, 59, 127
2, 5120, Note_on_c, 1, 62, 127
2, 5120, Note_on_c, 1, 69, 127
2, 5120, Note_on_c, 1, 74, 127
2, 5480, Note_off_c, 1, 47, 0
2, 5480, Note_off_c, 1, 57, 0
2, 5480, Note_off_c, 1, 59, 0
2, 5480, Note_off_c, 1, 62, 0
2, 5480, Note_off_c, 1, 69, 0
2, 5480, Note_off_c, 1, 74, 0
2, 5520, Note_on_c, 1, 40, 127
2, 5520, Note_on_c, 1, 52, 127
2, 5520, Note_on_c, 1, 67, 127
2, 5520, Note_on_c, 1, 79, 127
2, 5880, Note_off_c, 1, 40, 0
2, 5880, Note_off_c, 1, 52, 0
2, 5880, Note_off_c, 1, 67, 0
2, 5880, Note_off_c, 1, 79, 0
2, 5920, Note_on_c, 1, 48, 127
2, 5920, Note_on_c, 1, 76, 127
2, 5920, Note_on_c, 1, 79, 127
2, 6160, Note_off_c, 1, 48, 0
2, 6200, Note_on_c, 1, 42, 127
2, 6200, Note_on_c, 1, 52, 127
2, 6200, Note_on_c, 1, 59, 127
2, 6200, Note_on_c, 1, 64, 127
2, 6200, Note_off_c, 1, 76, 0
2, 6200, Note_off_c, 1, 79, 0
2, 6240, Note_off_c, 1, 42, 0
2, 6240, Note_off_c, 1, 52, 0
2, 6240, Note_off_c, 1, 59, 0
2, 6240, Note_off_c, 1, 64, 0
2, 6240, Note_on_c, 1, 67, 127
2, 6240, Note_on_c, 1, 70, 127
2, 6240, Note_on_c, 1, 84, 127
2, 6240, Note_on_c, 1, 87, 127
2, 6240, Note_on_c, 1, 93, 127
2, 6280, Note_on_c, 1, 55, 127
2, 6280, Note_on_c, 1, 61, 127
2, 6280, Note_on_c, 1, 64, 127
2, 6280, Note_off_c, 1, 67, 0
2, 6280, Note_on_c, 1, 69, 127
2, 6280, Note_off_c, 1, 70, 0
2, 6280, Note_off_c, 1, 84, 0
2, 6280, Note_on_c, 1, 85, 127
2, 6280, Note_off_c, 1, 87, 0
2, 6280, Note_off_c, 1, 93, 0
2, 6320, Note_on_c, 1, 39, 127
2, 6320, Note_on_c, 1, 44, 127
2, 6320, Note_on_c, 1, 51, 127
2, 6320, Note_off_c, 1, 55, 0
2, 6320, Note_on_c, 1, 60, 127
2, 6320, Note_off_c, 1, 61, 0
2, 6320, Note_on_c, 1, 63, 127
2, 6320, Note_off_c, 1, 64, 0
2, 6320, Note_on_c, 1, 68, 127
2, 6320, Note_off_c, 1, 69, 0
2, 6320, Note_off_c, 1, 85, 0
2, 6560, Note_off_c, 1, 68, 0
2, 6600, Note_off_c, 1, 39, 0
2, 6600, Note_on_c, 1, 41, 127
2, 6600, Note_off_c, 1, 44, 0
2, 6600, Note_off_c, 1, 51, 0
2, 6600, Note_on_c, 1, 53, 127
2, 6600, Note_on_c, 1, 56, 127
2, 6600, Note_off_c, 1, 60, 0
2, 6600, Note_off_c, 1, 63, 0
2, 6600, Note_on_c, 1, 73, 127
2, 6600, Note_on_c, 1, 80, 127
2, 6640, Note_off_c, 1, 41, 0
2, 6640, Note_off_c, 1, 53, 0
2, 6640, Note_off_c, 1, 56, 0
2, 6640, Note_off_c, 1, 73, 0
2, 6640, Note_off_c, 1, 80, 0
2, 6720, Note_on_c, 1, 32, 127
2, 6720, Note_on_c, 1, 39, 127
2, 6720, Note_on_c, 1, 44, 127
2, 6720, Note_on_c, 1, 63, 127
2, 6720, Note_on_c, 1, 75, 127
2, 7040, Note_off_c, 1, 32, 0
2, 7040, Note_off_c, 1, 39, 0
2, 7040, Note_off_c, 1, 44, 0
2, 7040, Note_off_c, 1, 63, 0
2, 7040, Note_off_c, 1, 75, 0
2, 7080, Note_on_c, 1, 32, 127
2, 7080, Note_on_c, 1, 39, 127
2, 7080, Note_on_c, 1, 44, 127
2, 7080, Note_on_c, 1, 63, 127
2, 7080, Note_on_c, 1, 75, 127
2, 7400, Note_off_c, 1, 32, 0
2, 7400, Note_off_c, 1, 39, 0
2, 7400, Note_off_c, 1, 44, 0
2, 7400, Note_off_c, 1, 63, 0
2, 7400, Note_off_c, 1, 75, 0
2, 7440, Note_on_c, 1, 32, 127
2, 7440, Note_on_c, 1, 39, 127
2, 7440, Note_on_c, 1, 44, 127
2, 7440, Note_on_c, 1, 63, 127
2, 7440, Note_on_c, 1, 75, 127
2, 7800, Note_off_c, 1, 32, 0
2, 7800, Note_off_c, 1, 39, 0
2, 7800, Note_off_c, 1, 44, 0
2, 7800, Note_off_c, 1, 63, 0
2, 7800, Note_off_c, 1, 75, 0
2, 7840, Note_on_c, 1, 32, 127
2, 7840, Note_on_c, 1, 39, 127
2, 7840, Note_on_c, 1, 44, 127
2, 7840, Note_on_c, 1, 63, 127
2, 7840, Note_on_c, 1, 75, 127
2, 8160, Note_off_c, 1, 32, 0
2, 8160, Note_off_c, 1, 39, 0
2, 8160, Note_off_c, 1, 44, 0
2, 8160, Note_off_c, 1, 63, 0
2, 8160, Note_off_c, 1, 75, 0
2, 8200, Note_on_c, 1, 32, 127
2, 8200, Note_on_c, 1, 39, 127
2, 8200, Note_on_c, 1, 44, 127
2, 8200, Note_on_c, 1, 63, 127
2, 8200, Note_on_c, 1, 75, 127
2, 8520, Note_off_c, 1, 32, 0
2, 8520, Note_off_c, 1, 39, 0
2, 8520, Note_off_c, 1, 44, 0
2, 8520, Note_off_c, 1, 63, 0
2, 8520, Note_off_c, 1, 75, 0
2, 8560, Note_on_c, 1, 32, 127
2, 8560, Note_on_c, 1, 39, 127
2, 8560, Note_on_c, 1, 44, 127
2, 8560, Note_on_c, 1, 63, 127
2, 8560, Note_on_c, 1, 75, 127
2, 8840, Note_off_c, 1, 32, 0
2, 8840, Note_off_c, 1, 39, 0
2, 8840, Note_off_c, 1, 44, 0
2, 8840, Note_off_c, 1, 63, 0
2, 8840, Note_off_c, 1, 75, 0
2, 8880, Note_on_c, 1, 32, 127
2, 8880, Note_on_c, 1, 39, 127
2, 8880, Note_on_c, 1, 44, 127
2, 8880, Note_on_c, 1, 63, 127
2, 8880, Note_on_c, 1, 75, 127
2, 8920, Note_off_c, 1, 32, 0
2, 8920, Note_off_c, 1, 39, 0
2, 8920, Note_off_c, 1, 44, 0
2, 8920, Note_off_c, 1, 63, 0
2, 8920, Note_off_c, 1, 75, 0
2, 8960, Note_on_c, 1, 32, 127
2, 8960, Note_on_c, 1, 39, 127
2, 8960, Note_on_c, 1, 44, 127
2, 8960, Note_on_c, 1, 63, 127
2, 8960, Note_on_c, 1, 75, 127
2, 9120, Note_off_c, 1, 32, 0
2, 9120, Note_off_c, 1, 39, 0
2, 9120, Note_off_c, 1, 44, 0
2, 9120, Note_off_c, 1, 63, 0
2, 9120, Note_off_c, 1, 75, 0
2, 9160, Note_on_c, 1, 32, 127
2, 9160, Note_on_c, 1, 39, 127
2, 9160, Note_on_c, 1, 44, 127
2, 9160, Note_on_c, 1, 63, 127
2, 9160, Note_on_c, 1, 75, 127
2, 9320, Note_off_c, 1, 32, 0
2, 9320, Note_off_c, 1, 39, 0
2, 9320, Note_off_c, 1, 44, 0
2, 9320, Note_off_c, 1, 63, 0
2, 9320, Note_off_c, 1, 75, 0
2, 9360, Note_on_c, 1, 32, 127
2, 9360, Note_on_c, 1, 39, 127
2, 9360, Note_on_c, 1, 44, 127
2, 9360, Note_on_c, 1, 63, 127
2, 9360, Note_on_c, 1, 75, 127
2, 9680, Note_off_c, 1, 32, 0
2, 9680, Note_off_c, 1, 39, 0
2, 9680, Note_off_c, 1, 44, 0
2, 9680, Note_off_c, 1, 63, 0
2, 9680, Note_off_c, 1, 75, 0
2, 9720, Note_on_c, 1, 32, 127
2, 9720, Note_on_c, 1, 39, 127
2, 9720, Note_on_c, 1, 44, 127
2, 9720, Note_on_c, 1, 63, 127
2, 9720, Note_on_c, 1, 75, 127
2, 10040, Note_off_c, 1, 32, 0
2, 10040, Note_off_c, 1, 39, 0
2, 10040, Note_off_c, 1, 44, 0
2, 10040, Note_off_c, 1, 63, 0
2, 10040, Note_off_c, 1, 75, 0
2, 10080, Note_on_c, 1, 32, 127
2, 10080, Note_on_c, 1, 39, 127
2, 10080, Note_on_c, 1, 44, 127
2, 10080, Note_on_c, 1, 63, 127
2, 10080, Note_on_c, 1, 75, 127
2, 10400, Note_off_c, 1, 32, 0
2, 10400, Note_off_c, 1, 39, 0
2, 10400, Note_off_c, 1, 44, 0
2, 10400, Note_off_c, 1, 63, 0
2, 10400, Note_off_c, 1, 75, 0
2, 10440, Note_on_c, 1, 40, 127
2, 10440, Note_on_c, 1, 47, 127
2, 10440, Note_on_c, 1, 52, 127
2, 10440, Note_on_c, 1, 79, 127
2, 10440, Note_on_c, 1, 83, 127
2, 10440, Note_on_c, 1, 88, 127
2, 10440, Note_on_c, 1, 91, 127
2, 10760, Note_off_c, 1, 47, 0
2, 10760, Note_off_c, 1, 52, 0
2, 10760, Note_off_c, 1, 79, 0
2, 10760, Note_off_c, 1, 83, 0
2, 10760, Note_off_c, 1, 88, 0
2, 10760, Note_off_c, 1, 91, 0
2, 10800, Note_off_c, 1, 40, 0
2, 10800, Note_on_c, 1, 41, 127
2, 10800, Note_on_c, 1, 49, 127
2, 10800, Note_on_c, 1, 53, 127
2, 10800, Note_on_c, 1, 59, 127
2, 10800, Note_on_c, 1, 65, 127
2, 10800, Note_on_c, 1, 71, 127
2, 11040, Note_off_c, 1, 41, 0
2, 11040, Note_off_c, 1, 49, 0
2, 11040, Note_off_c, 1, 53, 0
2, 11040, Note_off_c, 1, 59, 0
2, 11040, Note_off_c, 1, 65, 0
2, 11040, Note_off_c, 1, 71, 0
2, 11080, Note_on_c, 1, 41, 127
2, 11080, Note_on_c, 1, 49, 127
2, 11080, Note_on_c, 1, 53, 127
2, 11080, Note_on_c, 1, 59, 127
2, 11080, Note_on_c, 1, 65, 127
2, 11080, Note_on_c, 1, 71, 127
2, 11200, Note_off_c, 1, 41, 0
2, 11200, Note_off_c, 1, 49, 0
2, 11200, Note_off_c, 1, 53, 0
2, 11200, Note_off_c, 1, 59, 0
2, 11200, Note_off_c, 1, 65, 0
2, 11200, Note_off_c, 1, 71, 0
2, 11240, Note_on_c, 1, 33, 127
2, 11240, Note_on_c, 1, 65, 127
2, 11240, Note_on_c, 1, 77, 127
2, 11560, Note_off_c, 1, 33, 0
2, 11560, Note_off_c, 1, 65, 0
2, 11600, Note_on_c, 1, 58, 127
2, 11600, Note_on_c, 1, 70, 127
2, 11600, Note_on_c, 1, 75, 127
2, 11600, Note_off_c, 1, 77, 0
2, 11600, Note_on_c, 1, 79, 127
2, 11600, Note_on_c, 1, 85, 127
2, 11640, Note_off_c, 1, 58, 0
2, 11640, Note_on_c, 1, 67, 127
2, 11640, Note_off_c, 1, 70, 0
2, 11640, Note_off_c, 1, 75, 0
2, 11640, Note_off_c, 1, 79, 0
2, 11640, Note_on_c, 1, 83, 127
2, 11640, Note_off_c, 1, 85, 0
2, 11640, Note_on_c, 1, 89, 127
2, 11640, Note_on_c, 1, 91, 127
2, 11680, Note_on_c, 1, 46, 127
2, 11680, Note_on_c, 1, 58, 127
2, 11680, Note_off_c, 1, 67, 0
2, 11680, Note_off_c, 1, 83, 0
2, 11680, Note_on_c, 1, 86, 127
2, 11680, Note_off_c, 1, 89, 0
2, 11680, Note_off_c, 1, 91, 0
2, 11680, Note_on_c, 1, 92, 127
2, 11720, Note_off_c, 1, 46, 0
2, 11720, Note_on_c, 1, 51, 127
2, 11720, Note_on_c, 1, 56, 127
2, 11720, Note_off_c, 1, 58, 0
2, 11720, Note_on_c, 1, 62, 127
2, 11720, Note_on_c, 1, 82, 127
2, 11720, Note_off_c, 1, 86, 0
2, 11720, Note_off_c, 1, 92, 0
2, 11760, Note_off_c, 1, 51, 0
2, 11760, Note_off_c, 1, 56, 0
2, 11760, Note_on_c, 1, 58, 127
2, 11760, Note_off_c, 1, 62, 0
2, 11760, Note_on_c, 1, 70, 127
2, 11760, Note_on_c, 1, 77, 127
2, 11760, Note_on_c, 1, 85, 127
2, 11760, Note_on_c, 1, 89, 127
2, 11800, Note_off_c, 1, 58, 0
2, 11800, Note_on_c, 1, 59, 127
2, 11800, Note_on_c, 1, 63, 127
2, 11800, Note_on_c, 1, 66, 127
2, 11800, Note_off_c, 1, 70, 0
2, 11800, Note_on_c, 1, 75, 127
2, 11800, Note_off_c, 1, 77, 0
2, 11800, Note_off_c, 1, 82, 0
2, 11800, Note_on_c, 1, 83, 127
2, 11800, Note_off_c, 1, 85, 0
2, 11800, Note_off_c, 1, 89, 0
2, 11840, Note_on_c, 1, 28, 127
2, 11840, Note_on_c, 1, 58, 127
2, 11840, Note_off_c, 1, 59, 0
2, 11840, Note_off_c, 1, 63, 0
2, 11840, Note_off_c, 1, 66, 0
2, 11840, Note_off_c, 1, 75, 0
2, 11840, Note_off_c, 1, 83, 0
2, 11880, Note_off_c, 1, 28, 0
2, 11880, Note_off_c, 1, 58, 0
2, 11880, Note_on_c, 1, 74, 127
2, 11880, Note_on_c, 1, 89, 127
2, 11880, Note_on_c, 1, 92, 127
2, 11920, Note_on_c, 1, 50, 127
2, 11920, Note_on_c, 1, 55, 127
2, 11920, Note_on_c, 1, 69, 127
2, 11920, Note_on_c, 1, 72, 127
2, 11920, Note_off_c, 1, 74, 0
2, 11920, Note_off_c, 1, 89, 0
2, 11920, Note_off_c, 1, 92, 0
2, 11960, Note_off_c, 1, 50, 0
2, 11960, Note_off_c, 1, 55, 0
2, 11960, Note_off_c, 1, 69, 0
2, 11960, Note_off_c, 1, 72, 0
2, 12000, Note_on_c, 1, 62, 127
2, 12000, Note_on_c, 1, 84, 127
2, 12000, Note_on_c, 1, 94, 127
2, 12040, Note_off_c, 1, 62, 0
2, 12040, Note_on_c, 1, 74, 127
2, 12040, Note_on_c, 1, 82, 127
2, 12040, Note_off_c, 1, 84, 0
2, 12120, Note_off_c, 1, 74, 0
2, 12160, Note_on_c, 1, 74, 127
2, 12280, Note_off_c, 1, 74, 0
2, 12320, Note_off_c, 1, 82, 0
2, 12320, Note_off_c, 1, 94, 0
2, 12360, Note_on_c, 1, 41, 127
2, 12360, Note_on_c, 1, 50, 127
2, 12360, Note_on_c, 1, 55, 127
2, 12360, Note_on_c, 1, 59, 127
2, 12680, Note_off_c, 1, 41, 0
2, 12680, Note_off_c, 1, 50, 0
2, 12680, Note_off_c, 1, 55, 0
2, 12680, Note_off_c, 1, 59, 0
2, 12680, Note_on_c, 1, 62, 127
2, 12720, Note_on_c, 1, 52, 127
2, 12720, Note_on_c, 1, 55, 127
2, 12720, Note_on_c, 1, 57, 127
2, 12720, Note_on_c, 1, 69, 127
2, 12720, Note_on_c, 1, 74, 127
2, 13040, Note_off_c, 1, 52, 0
2, 13040, Note_off_c, 1, 55, 0
2, 13040, Note_off_c, 1, 57, 0
2, 13040, Note_off_c, 1, 62, 0
2, 13040, Note_off_c, 1, 69, 0
2, 13040, Note_off_c, 1, 74, 0
2, 13120, Note_on_c, 1, 52, 127
2, 13120, Note_on_c, 1, 55, 127
2, 13120, Note_on_c, 1, 57, 127
2, 13120, Note_on_c, 1, 62, 127
2, 13120, Note_on_c, 1, 69, 127
2, 13120, Note_on_c, 1, 74, 127
2, 13440, Note_off_c, 1, 52, 0
2, 13440, Note_off_c, 1, 55, 0
2, 13440, Note_off_c, 1, 57, 0
2, 13440, Note_off_c, 1, 62, 0
2, 13440, Note_off_c, 1, 74, 0
2, 13480, Note_on_c, 1, 43, 127
2, 13480, Note_on_c, 1, 59, 127
2, 13480, Note_on_c, 1, 62, 127
2, 13800, Note_off_c, 1, 69, 0
2, 13840, Note_off_c, 1, 43, 0
2, 13840, Note_off_c, 1, 59, 0
2, 13840, Note_off_c, 1, 62, 0
2, 13880, Note_on_c, 1, 38, 127
2, 13880, Note_on_c, 1, 50, 127
2, 13880, Note_on_c, 1, 55, 127
2, 13880, Note_on_c, 1, 67, 127
2, 14200, Note_off_c, 1, 38, 0
2, 14200, Note_off_c, 1, 50, 0
2, 14200, Note_off_c, 1, 55, 0
2, 14200, Note_off_c, 1, 67, 0
2, 14240, Note_on_c, 1, 40, 127
2, 14240, Note_on_c, 1, 41, 127
2, 14240, Note_on_c, 1, 48, 127
2, 14240, Note_on_c, 1, 52, 127
2, 14240, Note_on_c, 1, 58, 127
2, 14240, Note_on_c, 1, 60, 127
2, 14280, Note_on_c, 1, 38, 127
2, 14280, Note_off_c, 1, 40, 0
2, 14280, Note_off_c, 1, 41, 0
2, 14280, Note_off_c, 1, 48, 0
2, 14280, Note_on_c, 1, 50, 127
2, 14280, Note_off_c, 1, 52, 0
2, 14280, Note_off_c, 1, 58, 0
2, 14280, Note_off_c, 1, 60, 0
2, 14280, Note_on_c, 1, 67, 127
2, 14280, Note_on_c, 1, 70, 127
2, 14280, Note_on_c, 1, 82, 127
2, 14280, Note_on_c, 1, 94, 127
2, 14560, Note_off_c, 1, 38, 0
2, 14560, Note_off_c, 1, 50, 0
2, 14560, Note_off_c, 1, 67, 0
2, 14560, Note_off_c, 1, 70, 0
2, 14560, Note_off_c, 1, 82, 0
2, 14560, Note_off_c, 1, 94, 0
2, 14600, Note_on_c, 1, 43, 127
2, 14600, Note_on_c, 1, 50, 127
2, 14600, Note_on_c, 1, 55, 127
2, 14600, Note_on_c, 1, 70, 127
2, 14920, Note_off_c, 1, 43, 0
2, 14920, Note_off_c, 1, 50, 0
2, 14920, Note_off_c, 1, 55, 0
2, 14920, Note_off_c, 1, 70, 0
2, 14960, Note_on_c, 1, 36, 127
2, 14960, Note_on_c, 1, 48, 127
2, 14960, Note_on_c, 1, 91, 127
2, 15160, Note_off_c, 1, 36, 0
2, 15160, Note_off_c, 1, 48, 0
2, 15160, Note_off_c, 1, 91, 0
2, 15200, Note_on_c, 1, 36, 127
2, 15200, Note_on_c, 1, 48, 127
2, 15200, Note_on_c, 1, 91, 127
2, 15320, Note_off_c, 1, 91, 0
2, 15360, Note_on_c, 1, 91, 127
2, 15600, Note_on_c, 1, 79, 127
2, 15600, Note_off_c, 1, 91, 0
2, 15640, Note_off_c, 1, 79, 0
2, 15640, Note_on_c, 1, 91, 127
2, 15680, Note_off_c, 1, 36, 0
2, 15680, Note_off_c, 1, 48, 0
2, 15680, Note_off_c, 1, 91, 0
2, 15720, Note_on_c, 1, 33, 127
2, 15720, Note_on_c, 1, 45, 127
2, 15720, Note_on_c, 1, 100, 127
2, 15760, Note_on_c, 1, 88, 127
2, 15760, Note_off_c, 1, 100, 0
2, 16040, Note_off_c, 1, 88, 0
2, 16080, Note_off_c, 1, 33, 0
2, 16080, Note_off_c, 1, 45, 0
2, 16080, Note_on_c, 1, 57, 127
2, 16080, Note_on_c, 1, 60, 127
2, 16080, Note_on_c, 1, 63, 127
2, 16080, Note_on_c, 1, 72, 127
2, 16080, Note_on_c, 1, 78, 127
2, 16080, Note_on_c, 1, 83, 127
2, 16120, Note_off_c, 1, 57, 0
2, 16120, Note_on_c, 1, 58, 127
2, 16120, Note_off_c, 1, 63, 0
2, 16120, Note_on_c, 1, 64, 127
2, 16120, Note_off_c, 1, 72, 0
2, 16120, Note_off_c, 1, 78, 0
2, 16120, Note_off_c, 1, 83, 0
2, 16120, Note_on_c, 1, 88, 127
2, 16160, Note_off_c, 1, 64, 0
2, 16160, Note_on_c, 1, 67, 127
2, 16160, Note_on_c, 1, 80, 127
2, 16160, Note_off_c, 1, 88, 0
2, 16200, Note_on_c, 1, 64, 127
2, 16200, Note_off_c, 1, 67, 0
2, 16200, Note_on_c, 1, 69, 127
2, 16200, Note_off_c, 1, 80, 0
2, 16240, Note_off_c, 1, 69, 0
2, 16280, Note_on_c, 1, 48, 127
2, 16280, Note_off_c, 1, 58, 0
2, 16280, Note_off_c, 1, 64, 0
2, 16280, Note_on_c, 1, 79, 127
2, 16400, Note_off_c, 1, 48, 0
2, 16400, Note_off_c, 1, 60, 0
2, 16400, Note_off_c, 1, 79, 0
2, 16440, Note_on_c, 1, 39, 127
2, 16440, Note_on_c, 1, 61, 127
2, 16440, Note_on_c, 1, 67, 127
2, 16440, Note_on_c, 1, 69, 127
2, 16440, Note_on_c, 1, 73, 127
2, 16480, Note_off_c, 1, 39, 0
2, 16480, Note_on_c, 1, 51, 127
2, 16480, Note_on_c, 1, 53, 127
2, 16480, Note_on_c, 1, 56, 127
2, 16480, Note_on_c, 1, 58, 127
2, 16480, Note_off_c, 1, 61, 0
2, 16480, Note_on_c, 1, 62, 127
2, 16480, Note_off_c, 1, 67, 0
2, 16480, Note_on_c, 1, 68, 127
2, 16480, Note_off_c, 1, 69, 0
2, 16480, Note_off_c, 1, 73, 0
2, 16520, Note_off_c, 1, 53, 0
2, 16520, Note_off_c, 1, 56, 0
2, 16520, Note_off_c, 1, 58, 0
2, 16520, Note_on_c, 1, 60, 127
2, 16520, Note_off_c, 1, 62, 0
2, 16520, Note_on_c, 1, 72, 127
2, 16520, Note_on_c, 1, 75, 127
2, 16560, Note_on_c, 1, 53, 127
2, 16560, Note_on_c, 1, 56, 127
2, 16560, Note_on_c, 1, 58, 127
2, 16560, Note_off_c, 1, 60, 0
2, 16560, Note_on_c, 1, 62, 127
2, 16560, Note_on_c, 1, 67, 127
2, 16560, Note_off_c, 1, 68, 0
2, 16560, Note_off_c, 1, 72, 0
2, 16560, Note_off_c, 1, 75, 0
2, 16600, Note_on_c, 1, 44, 127
2, 16600, Note_off_c, 1, 51, 0
2, 16600, Note_off_c, 1, 53, 0
2, 16600, Note_on_c, 1, 55, 127
2, 16600, Note_off_c, 1, 56, 0
2, 16600, Note_off_c, 1, 58, 0
2, 16600, Note_off_c, 1, 62, 0
2, 16600, Note_off_c, 1, 67, 0
2, 16600, Note_on_c, 1, 73, 127
2, 16640, Note_off_c, 1, 44, 0
2, 16640, Note_off_c, 1, 55, 0
2, 16640, Note_off_c, 1, 73, 0
2, 16640, Note_on_c, 1, 74, 127
2, 16640, Note_on_c, 1, 76, 127
2, 16640, Note_on_c, 1, 79, 127
2, 16640, Note_on_c, 1, 86, 127
2, 16680, Note_on_c, 1, 43, 127
2, 16680, Note_on_c, 1, 50, 127
2, 16680, Note_on_c, 1, 55, 127
2, 16680, Note_on_c, 1, 59, 127
2, 16680, Note_on_c, 1, 62, 127
2, 16680, Note_on_c, 1, 63, 127
2, 16680, Note_off_c, 1, 74, 0
2, 16680, Note_off_c, 1, 76, 0
2, 16680, Note_off_c, 1, 79, 0
2, 16680, Note_off_c, 1, 86, 0
2, 16720, Note_off_c, 1, 43, 0
2, 16720, Note_off_c, 1, 55, 0
2, 16720, Note_on_c, 1, 57, 127
2, 16720, Note_off_c, 1, 59, 0
2, 16720, Note_off_c, 1, 62, 0
2, 16720, Note_off_c, 1, 63, 0
2, 16720, Note_on_c, 1, 71, 127
2, 16720, Note_on_c, 1, 74, 127
2, 16760, Note_off_c, 1, 50, 0
2, 16760, Note_off_c, 1, 57, 0
2, 16760, Note_off_c, 1, 71, 0
2, 16760, Note_off_c, 1, 74, 0
2, 16800, Note_on_c, 1, 58, 127
2, 16800, Note_on_c, 1, 60, 127
2, 16800, Note_on_c, 1, 64, 127
2, 16800, Note_on_c, 1, 70, 127
2, 16800, Note_on_c, 1, 76, 127
2, 16960, Note_off_c, 1, 58, 0
2, 16960, Note_off_c, 1, 60, 0
2, 16960, Note_off_c, 1, 64, 0
2, 16960, Note_off_c, 1, 70, 0
2, 16960, Note_off_c, 1, 76, 0
2, 16960, Note_on_c, 1, 80, 127
2, 16960, Note_on_c, 1, 86, 127
2, 16960, Note_on_c, 1, 89, 127
2, 16960, Note_on_c, 1, 92, 127
2, 17000, Note_on_c, 1, 38, 127
2, 17000, Note_off_c, 1, 80, 0
2, 17000, Note_on_c, 1, 81, 127
2, 17000, Note_on_c, 1, 84, 127
2, 17000, Note_off_c, 1, 86, 0
2, 17000, Note_off_c, 1, 89, 0
2, 17000, Note_off_c, 1, 92, 0
2, 17000, Note_on_c, 1, 93, 127
2, 17120, Note_off_c, 1, 38, 0
2, 17160, Note_on_c, 1, 32, 127
2, 17160, Note_on_c, 1, 76, 127
2, 17160, Note_on_c, 1, 79, 127
2, 17160, Note_off_c, 1, 81, 0
2, 17160, Note_off_c, 1, 84, 0
2, 17160, Note_off_c, 1, 93, 0
2, 17200, Note_off_c, 1, 32, 0
2, 17200, Note_off_c, 1, 76, 0
2, 17200, Note_off_c, 1, 79, 0
2, 17240, Note_on_c, 1, 43, 127
2, 17240, Note_on_c, 1, 50, 127
2, 17240, Note_on_c, 1, 74, 127
2, 17240, Note_on_c, 1, 79, 127
2, 17240, Note_on_c, 1, 82, 127
2, 17280, Note_on_c, 1, 35, 127
2, 17280, Note_off_c, 1, 43, 0
2, 17280, Note_off_c, 1, 50, 0
2, 17280, Note_off_c, 1, 74, 0
2, 17280, Note_off_c, 1, 79, 0
2, 17280, Note_off_c, 1, 82, 0
2, 17280, Note_on_c, 1, 83, 127
2, 17280, Note_on_c, 1, 91, 127
2, 17280, Note_on_c, 1, 95, 127
2, 17360, Note_off_c, 1, 35, 0
2, 17360, Note_on_c, 1, 55, 127
2, 17360, Note_on_c, 1, 58, 127
2, 17360, Note_on_c, 1, 77, 127
2, 17360, Note_on_c, 1, 80, 127
2, 17360, Note_off_c, 1, 83, 0
2, 17360, Note_off_c, 1, 91, 0
2, 17360, Note_off_c, 1, 95, 0
2, 17400, Note_on_c, 1, 43, 127
2, 17400, Note_off_c, 1, 58, 0
2, 17400, Note_on_c, 1, 62, 127
2, 17400, Note_on_c, 1, 69, 127
2, 17400, Note_on_c, 1, 72, 127
2, 17400, Note_off_c, 1, 77, 0
2, 17400, Note_off_c, 1, 80, 0
2, 17520, Note_off_c, 1, 43, 0
2, 17520, Note_off_c, 1, 55, 0
2, 17520, Note_off_c, 1, 62, 0
2, 17520, Note_off_c, 1, 69, 0
2, 17520, Note_off_c, 1, 72, 0
2, 17560, Note_on_c, 1, 62, 127
2, 17560, Note_on_c, 1, 72, 127
2, 17560, Note_on_c, 1, 75, 127
2, 17560, Note_on_c, 1, 82, 127
2, 17880, Note_off_c, 1, 62, 0
2, 17880, Note_off_c, 1, 72, 0
2, 17880, Note_off_c, 1, 75, 0
2, 17920, Note_on_c, 1, 58, 127
2, 17920, Note_on_c, 1, 62, 127
2, 17920, Note_on_c, 1, 65, 127
2, 17920, Note_on_c, 1, 70, 127
2, 17920, Note_on_c, 1, 74, 127
2, 17920, Note_on_c, 1, 79, 127
2, 17920, Note_off_c, 1, 82, 0
2, 18240, Note_off_c, 1, 58, 0
2, 18240, Note_off_c, 1, 62, 0
2, 18240, Note_off_c, 1, 65, 0
2, 18240, Note_off_c, 1, 70, 0
2, 18240, Note_off_c, 1, 74, 0
2, 18240, Note_off_c, 1, 79, 0
2, 18280, Note_on_c, 1, 74, 127
2, 18280, Note_on_c, 1, 77, 127
2, 18280, Note_on_c, 1, 80, 127
2, 18280, Note_on_c, 1, 83, 127
2, 18280, Note_on_c, 1, 94, 127
2, 18320, Note_off_c, 1, 74, 0
2, 18320, Note_on_c, 1, 76, 127
2, 18320, Note_off_c, 1, 77, 0
2, 18320, Note_off_c, 1, 80, 0
2, 18320, Note_off_c, 1, 83, 0
2, 18320, Note_on_c, 1, 88, 127
2, 18320, Note_off_c, 1, 94, 0
2, 18320, Note_on_c, 1, 98, 127
2, 18360, Note_on_c, 1, 61, 127
2, 18360, Note_on_c, 1, 67, 127
2, 18360, Note_off_c, 1, 76, 0
2, 18360, Note_on_c, 1, 81, 127
2, 18360, Note_off_c, 1, 98, 0
2, 18400, Note_on_c, 1, 41, 127
2, 18400, Note_on_c, 1, 48, 127
2, 18400, Note_on_c, 1, 53, 127
2, 18400, Note_off_c, 1, 61, 0
2, 18400, Note_off_c, 1, 67, 0
2, 18400, Note_on_c, 1, 72, 127
2, 18400, Note_on_c, 1, 80, 127
2, 18400, Note_off_c, 1, 81, 0
2, 18400, Note_off_c, 1, 88, 0
2, 18440, Note_on_c, 1, 45, 127
2, 18440, Note_off_c, 1, 48, 0
2, 18440, Note_off_c, 1, 53, 0
2, 18440, Note_on_c, 1, 57, 127
2, 18440, Note_on_c, 1, 65, 127
2, 18440, Note_on_c, 1, 69, 127
2, 18440, Note_off_c, 1, 72, 0
2, 18440, Note_off_c, 1, 80, 0
2, 18480, Note_off_c, 1, 41, 0
2, 18480, Note_off_c, 1, 45, 0
2, 18480, Note_on_c, 1, 51, 127
2, 18480, Note_on_c, 1, 55, 127
2, 18480, Note_off_c, 1, 57, 0
2, 18480, Note_off_c, 1, 65, 0
2, 18480, Note_on_c, 1, 68, 127
2, 18480, Note_off_c, 1, 69, 0
2, 18480, Note_on_c, 1, 80, 127
2, 18520, Note_on_c, 1, 47, 127
2, 18520, Note_off_c, 1, 51, 0
2, 18520, Note_off_c, 1, 55, 0
2, 18520, Note_on_c, 1, 59, 127
2, 18520, Note_off_c, 1, 68, 0
2, 18520, Note_on_c, 1, 79, 127
2, 18520, Note_off_c, 1, 80, 0
2, 18520, Note_on_c, 1, 83, 127
2, 18520, Note_on_c, 1, 91, 127
2, 18560, Note_on_c, 1, 34, 127
2, 18560, Note_on_c, 1, 41, 127
2, 18560, Note_on_c, 1, 46, 127
2, 18560, Note_off_c, 1, 47, 0
2, 18560, Note_off_c, 1, 59, 0
2, 18560, Note_off_c, 1, 79, 0
2, 18560, Note_off_c, 1, 83, 0
2, 18560, Note_on_c, 1, 89, 127
2, 18560, Note_off_c, 1, 91, 0
2, 18560, Note_on_c, 1, 94, 127
2, 18560, Note_on_c, 1, 101, 127
2, 18600, Note_off_c, 1, 34, 0
2, 18600, Note_off_c, 1, 41, 0
2, 18600, Note_off_c, 1, 46, 0
2, 18600, Note_off_c, 1, 89, 0
2, 18600, Note_off_c, 1, 94, 0
2, 18600, Note_off_c, 1, 101, 0
2, 18640, Note_on_c, 1, 47, 127
2, 18640, Note_on_c, 1, 50, 127
2, 18640, Note_on_c, 1, 79, 127
2, 18640, Note_on_c, 1, 91, 127
2, 18960, Note_off_c, 1, 47, 0
2, 18960, Note_off_c, 1, 50, 0
2, 18960, Note_off_c, 1, 79, 0
2, 18960, Note_off_c, 1, 91, 0
2, 19000, Note_on_c, 1, 35, 127
2, 19000, Note_on_c, 1, 73, 127
2, 19000, Note_on_c, 1, 75, 127
2, 19040, Note_off_c, 1, 35, 0
2, 19040, Note_on_c, 1, 61, 127
2, 19040, Note_off_c, 1, 75, 0
2, 19040, Note_on_c, 1, 88, 127
2, 19040, Note_on_c, 1, 91, 127
2, 19280, Note_off_c, 1, 61, 0
2, 19280, Note_off_c, 1, 73, 0
2, 19280, Note_off_c, 1, 88, 0
2, 19280, Note_off_c, 1, 91, 0
2, 19320, Note_on_c, 1, 54, 127
2, 19320, Note_on_c, 1, 59, 127
2, 19320, Note_on_c, 1, 62, 127
2, 19320, Note_on_c, 1, 74, 127
2, 19320, Note_on_c, 1, 86, 127
2, 19360, Note_off_c, 1, 54, 0
2, 19360, Note_off_c, 1, 59, 0
2, 19360, Note_off_c, 1, 62, 0
2, 19360, Note_off_c, 1, 74, 0
2, 19360, Note_off_c, 1, 86, 0
2, 19400, Note_on_c, 1, 46, 127
2, 19400, Note_on_c, 1, 58, 127
2, 19400, Note_on_c, 1, 78, 127
2, 19400, Note_on_c, 1, 82, 127
2, 19400, Note_on_c, 1, 90, 127
2, 19720, Note_off_c, 1, 46, 0
2, 19720, Note_off_c, 1, 58, 0
2, 19720, Note_off_c, 1, 78, 0
2, 19720, Note_off_c, 1, 82, 0
2, 19720, Note_off_c, 1, 90, 0
2, 19760, Note_on_c, 1, 49, 127
2, 19760, Note_on_c, 1, 93, 127
2, 19760, Note_on_c, 1, 97, 127
2, 19840, Note_off_c, 1, 49, 0
2, 19840, Note_on_c, 1, 61, 127
2, 19840, Note_on_c, 1, 90, 127
2, 19840, Note_off_c, 1, 97, 0
2, 19880, Note_off_c, 1, 61, 0
2, 19880, Note_off_c, 1, 90, 0
2, 19880, Note_on_c, 1, 92, 127
2, 19880, Note_off_c, 1, 93, 0
2, 19880, Note_on_c, 1, 95, 127
2, 19920, Note_on_c, 1, 61, 127
2, 19920, Note_on_c, 1, 90, 127
2, 19920, Note_off_c, 1, 92, 0
2, 19920, Note_on_c, 1, 93, 127
2, 19920, Note_off_c, 1, 95, 0
2, 20080, Note_off_c, 1, 61, 0
2, 20080, Note_off_c, 1, 90, 0
2, 20080, Note_off_c, 1, 93, 0
2, 20120, Note_on_c, 1, 61, 127
2, 20120, Note_on_c, 1, 90, 127
2, 20120, Note_on_c, 1, 93, 127
2, 20240, Note_off_c, 1, 61, 0
2, 20280, Note_on_c, 1, 57, 127
2, 20280, Note_on_c, 1, 69, 127
2, 20280, Note_on_c, 1, 85, 127
2, 20280, Note_on_c, 1, 88, 127
2, 20280, Note_off_c, 1, 90, 0
2, 20280, Note_off_c, 1, 93, 0
2, 20440, Note_off_c, 1, 57, 0
2, 20440, Note_off_c, 1, 69, 0
2, 20440, Note_on_c, 1, 81, 127
2, 20440, Note_off_c, 1, 85, 0
2, 20440, Note_off_c, 1, 88, 0
2, 20480, Note_on_c, 1, 55, 127
2, 20480, Note_on_c, 1, 69, 127
2, 20480, Note_on_c, 1, 73, 127
2, 20480, Note_on_c, 1, 76, 127
2, 20480, Note_off_c, 1, 81, 0
2, 20520, Note_off_c, 1, 55, 0
2, 20520, Note_on_c, 1, 61, 127
2, 20520, Note_on_c, 1, 67, 127
2, 20520, Note_off_c, 1, 73, 0
2, 20520, Note_off_c, 1, 76, 0
2, 20520, Note_on_c, 1, 93, 127
2, 20600, Note_off_c, 1, 61, 0
2, 20600, Note_off_c, 1, 67, 0
2, 20600, Note_off_c, 1, 93, 0
2, 20640, Note_on_c, 1, 60, 127
2, 20640, Note_on_c, 1, 64, 127
2, 20640, Note_off_c, 1, 69, 0
2, 20640, Note_on_c, 1, 84, 127
2, 20640, Note_on_c, 1, 88, 127
2, 20800, Note_off_c, 1, 60, 0
2, 20800, Note_off_c, 1, 64, 0
2, 20800, Note_off_c, 1, 84, 0
2, 20800, Note_off_c, 1, 88, 0
2, 20840, Note_on_c, 1, 48, 127
2, 20840, Note_on_c, 1, 60, 127
2, 20840, Note_on_c, 1, 76, 127
2, 20840, Note_on_c, 1, 81, 127
2, 20840, Note_on_c, 1, 88, 127
2, 21160, Note_off_c, 1, 48, 0
2, 21160, Note_off_c, 1, 60, 0
2, 21160, Note_off_c, 1, 76, 0
2, 21160, Note_off_c, 1, 81, 0
2, 21160, Note_off_c, 1, 88, 0
2, 21200, Note_on_c, 1, 45, 127
2, 21200, Note_on_c, 1, 66, 127
2, 21200, Note_on_c, 1, 69, 127
2, 21200, Note_on_c, 1, 73, 127
2, 21200, Note_on_c, 1, 76, 127
2, 21480, Note_off_c, 1, 45, 0
2, 21480, Note_off_c, 1, 66, 0
2, 21480, Note_off_c, 1, 69, 0
2, 21480, Note_off_c, 1, 73, 0
2, 21480, Note_off_c, 1, 76, 0
2, 21520, Note_on_c, 1, 45, 127
2, 21520, Note_on_c, 1, 66, 127
2, 21520, Note_on_c, 1, 69, 127
2, 21520, Note_on_c, 1, 73, 127
2, 21520, Note_on_c, 1, 76, 127
2, 21560, Note_off_c, 1, 45, 0
2, 21560, Note_off_c, 1, 66, 0
2, 21560, Note_off_c, 1, 69, 0
2, 21560, Note_off_c, 1, 73, 0
2, 21560, Note_off_c, 1, 76, 0
2, 21600, Note_on_c, 1, 45, 127
2, 21600, Note_on_c, 1, 66, 127
2, 21600, Note_on_c, 1, 69, 127
2, 21600, Note_on_c, 1, 73, 127
2, 21600, Note_on_c, 1, 76, 127
2, 21920, Note_on_c, 1, 31, 127
2, 21920, Note_on_c, 1, 43, 127
2, 21920, Note_off_c, 1, 45, 0
2, 21920, Note_off_c, 1, 66, 0
2, 21920, Note_off_c, 1, 69, 0
2, 21920, Note_on_c, 1, 71, 127
2, 21920, Note_off_c, 1, 73, 0
2, 21920, Note_off_c, 1, 76, 0
2, 21960, Note_off_c, 1, 31, 0
2, 21960, Note_off_c, 1, 43, 0
2, 21960, Note_on_c, 1, 47, 127
2, 21960, Note_on_c, 1, 58, 127
2, 21960, Note_on_c, 1, 66, 127
2, 21960, Note_on_c, 1, 70, 127
2, 21960, Note_off_c, 1, 71, 0
2, 21960, Note_on_c, 1, 73, 127
2, 22280, Note_off_c, 1, 47, 0
2, 22280, Note_off_c, 1, 58, 0
2, 22280, Note_off_c, 1, 66, 0
2, 22280, Note_off_c, 1, 70, 0
2, 22280, Note_off_c, 1, 73, 0
2, 22320, Note_on_c, 1, 46, 127
2, 22320, Note_on_c, 1, 58, 127
2, 22320, Note_on_c, 1, 65, 127
2, 22320, Note_on_c, 1, 70, 127
2, 22320, Note_on_c, 1, 74, 127
2, 22640, Note_off_c, 1, 65, 0
2, 22640, Note_off_c, 1, 70, 0
2, 22640, Note_off_c, 1, 74, 0
2, 22680, Note_off_c, 1, 46, 0
2, 22680, Note_on_c, 1, 55, 127
2, 22680, Note_off_c, 1, 58, 0
2, 22680, Note_on_c, 1, 62, 127
2, 22680, Note_on_c, 1, 90, 127
2, 22720, Note_on_c, 1, 48, 127
2, 22720, Note_on_c, 1, 52, 127
2, 22720, Note_off_c, 1, 55, 0
2, 22720, Note_off_c, 1, 62, 0
2, 22720, Note_on_c, 1, 64, 127
2, 22720, Note_on_c, 1, 68, 127
2, 22720, Note_off_c, 1, 90, 0
2, 22760, Note_off_c, 1, 48, 0
2, 22760, Note_off_c, 1, 52, 0
2, 22760, Note_on_c, 1, 55, 127
2, 22760, Note_on_c, 1, 63, 127
2, 22760, Note_off_c, 1, 64, 0
2, 22760, Note_off_c, 1, 68, 0
2, 22760, Note_on_c, 1, 78, 127
2, 22760, Note_on_c, 1, 90, 127
2, 22800, Note_on_c, 1, 48, 127
2, 22800, Note_on_c, 1, 52, 127
2, 22800, Note_off_c, 1, 55, 0
2, 22800, Note_off_c, 1, 63, 0
2, 22800, Note_on_c, 1, 64, 127
2, 22800, Note_on_c, 1, 68, 127
2, 22800, Note_off_c, 1, 78, 0
2, 22800, Note_off_c, 1, 90, 0
2, 23000, Note_off_c, 1, 48, 0
2, 23000, Note_off_c, 1, 52, 0
2, 23000, Note_off_c, 1, 64, 0
2, 23000, Note_off_c, 1, 68, 0
2, 23040, Note_on_c, 1, 60, 127
2, 23040, Note_on_c, 1, 69, 127
2, 23040, Note_on_c, 1, 72, 127
2, 23040, Note_on_c, 1, 96, 127
2, 23040, Note_on_c, 1, 98, 127
2, 23080, Note_on_c, 1, 42, 127
2, 23080, Note_on_c, 1, 54, 127
2, 23080, Note_off_c, 1, 60, 0
2, 23080, Note_off_c, 1, 69, 0
2, 23080, Note_off_c, 1, 72, 0
2, 23080, Note_on_c, 1, 85, 127
2, 23080, Note_on_c, 1, 88, 127
2, 23080, Note_off_c, 1, 96, 0
2, 23080, Note_on_c, 1, 97, 127
2, 23080, Note_off_c, 1, 98, 0
2, 23120, Note_off_c, 1, 42, 0
2, 23120, Note_on_c, 1, 47, 127
2, 23120, Note_off_c, 1, 54, 0
2, 23120, Note_on_c, 1, 56, 127
2, 23120, Note_off_c, 1, 85, 0
2, 23120, Note_on_c, 1, 87, 127
2, 23120, Note_off_c, 1, 88, 0
2, 23120, Note_off_c, 1, 97, 0
2, 23160, Note_off_c, 1, 47, 0
2, 23160, Note_on_c, 1, 53, 127
2, 23160, Note_off_c, 1, 56, 0
2, 23160, Note_on_c, 1, 58, 127
2, 23160, Note_on_c, 1, 62, 127
2, 23160, Note_on_c, 1, 65, 127
2, 23160, Note_on_c, 1, 70, 127
2, 23160, Note_on_c, 1, 76, 127
2, 23160, Note_off_c, 1, 87, 0
2, 23200, Note_off_c, 1, 53, 0
2, 23200, Note_off_c, 1, 58, 0
2, 23200, Note_on_c, 1, 60, 127
2, 23200, Note_off_c, 1, 62, 0
2, 23200, Note_off_c, 1, 65, 0
2, 23200, Note_off_c, 1, 70, 0
2, 23200, Note_off_c, 1, 76, 0
2, 23200, Note_on_c, 1, 83, 127
2, 23200, Note_on_c, 1, 86, 127
2, 23200, Note_on_c, 1, 89, 127
2, 23200, Note_on_c, 1, 95, 127
2, 23360, Note_off_c, 1, 60, 0
2, 23360, Note_off_c, 1, 83, 0
2, 23360, Note_on_c, 1, 84, 127
2, 23360, Note_off_c, 1, 86, 0
2, 23360, Note_off_c, 1, 89, 0
2, 23360, Note_off_c, 1, 95, 0
2, 23400, Note_on_c, 1, 55, 127
2, 23400, Note_on_c, 1, 58, 127
2, 23400, Note_on_c, 1, 67, 127
2, 23400, Note_on_c, 1, 79, 127
2, 23400, Note_on_c, 1, 82, 127
2, 23400, Note_off_c, 1, 84, 0
2, 23440, Note_on_c, 1, 38, 127
2, 23440, Note_on_c, 1, 44, 127
2, 23440, Note_on_c, 1, 46, 127
2, 23440, Note_on_c, 1, 50, 127
2, 23440, Note_on_c, 1, 57, 127
2, 23440, Note_off_c, 1, 58, 0
2, 23440, Note_on_c, 1, 62, 127
2, 23440, Note_off_c, 1, 79, 0
2, 23440, Note_off_c, 1, 82, 0
2, 23480, Note_off_c, 1, 38, 0
2, 23480, Note_off_c, 1, 44, 0
2, 23480, Note_off_c, 1, 46, 0
2, 23480, Note_off_c, 1, 50, 0
2, 23480, Note_off_c, 1, 55, 0
2, 23480, Note_off_c, 1, 57, 0
2, 23480, Note_on_c, 1, 59, 127
2, 23480, Note_off_c, 1, 62, 0
2, 23480, Note_off_c, 1, 67, 0
2, 23480, Note_on_c, 1, 100, 127
2, 23520, Note_off_c, 1, 59, 0
2, 23520, Note_off_c, 1, 100, 0
2, 23560, Note_on_c, 1, 57, 127
2, 23560, Note_on_c, 1, 66, 127
2, 23560, Note_on_c, 1, 69, 127
2, 23560, Note_on_c, 1, 71, 127
2, 23600, Note_on_c, 1, 44, 127
2, 23600, Note_off_c, 1, 57, 0
2, 23600, Note_off_c, 1, 66, 0
2, 23600, Note_off_c, 1, 69, 0
2, 23600, Note_off_c, 1, 71, 0
2, 23600, Note_on_c, 1, 80, 127
2, 23600, Note_on_c, 1, 88, 127
2, 23600, Note_on_c, 1, 92, 127
2, 23640, Note_off_c, 1, 44, 0
2, 23640, Note_on_c, 1, 57, 127
2, 23640, Note_on_c, 1, 69, 127
2, 23640, Note_off_c, 1, 80, 0
2, 23640, Note_off_c, 1, 88, 0
2, 23640, Note_on_c, 1, 91, 127
2, 23640, Note_off_c, 1, 92, 0
2, 23640, Note_on_c, 1, 100, 127
2, 23680, Note_on_c, 1, 40, 127
2, 23680, Note_on_c, 1, 52, 127
2, 23680, Note_off_c, 1, 57, 0
2, 23680, Note_on_c, 1, 64, 127
2, 23680, Note_off_c, 1, 69, 0
2, 23680, Note_on_c, 1, 76, 127
2, 23680, Note_on_c, 1, 84, 127
2, 23680, Note_off_c, 1, 91, 0
2, 23680, Note_on_c, 1, 96, 127
2, 23680, Note_off_c, 1, 100, 0
2, 23720, Note_off_c, 1, 40, 0
2, 23720, Note_off_c, 1, 52, 0
2, 23720, Note_on_c, 1, 57, 127
2, 23720, Note_off_c, 1, 64, 0
2, 23720, Note_on_c, 1, 70, 127
2, 23720, Note_off_c, 1, 76, 0
2, 23720, Note_on_c, 1, 78, 127
2, 23720, Note_off_c, 1, 84, 0
2, 23720, Note_off_c, 1, 96, 0
2, 23760, Note_off_c, 1, 57, 0
2, 23760, Note_off_c, 1, 70, 0
2, 23760, Note_off_c, 1, 78, 0
2, 23760, Note_on_c, 1, 92, 127
2, 23760, Note_on_c, 1, 102, 127
2, 23800, Note_on_c, 1, 36, 127
2, 23800, Note_on_c, 1, 48, 127
2, 23800, Note_on_c, 1, 57, 127
2, 23800, Note_on_c, 1, 81, 127
2, 23800, Note_on_c, 1, 87, 127
2, 23800, Note_off_c, 1, 92, 0
2, 23800, Note_on_c, 1, 93, 127
2, 23800, Note_off_c, 1, 102, 0
2, 24120, Note_off_c, 1, 36, 0
2, 24120, Note_off_c, 1, 48, 0
2, 24120, Note_on_c, 1, 55, 127
2, 24120, Note_off_c, 1, 57, 0
2, 24120, Note_on_c, 1, 61, 127
2, 24120, Note_on_c, 1, 67, 127
2, 24120, Note_on_c, 1, 71, 127
2, 24120, Note_on_c, 1, 75, 127
2, 24120, Note_off_c, 1, 81, 0
2, 24120, Note_off_c, 1, 87, 0
2, 24120, Note_off_c, 1, 93, 0
2, 24160, Note_on_c, 1, 36, 127
2, 24160, Note_on_c, 1, 48, 127
2, 24160, Note_off_c, 1, 55, 0
2, 24160, Note_on_c, 1, 57, 127
2, 24160, Note_off_c, 1, 61, 0
2, 24160, Note_off_c, 1, 67, 0
2, 24160, Note_off_c, 1, 71, 0
2, 24160, Note_off_c, 1, 75, 0
2, 24160, Note_on_c, 1, 81, 127
2, 24160, Note_on_c, 1, 87, 127
2, 24160, Note_on_c, 1, 93, 127
2, 24440, Note_off_c, 1, 36, 0
2, 24440, Note_on_c, 1, 41, 127
2, 24440, Note_off_c, 1, 48, 0
2, 24440, Note_on_c, 1, 69, 127
2, 24440, Note_on_c, 1, 74, 127
2, 24440, Note_off_c, 1, 81, 0
2, 24440, Note_off_c, 1, 87, 0
2, 24440, Note_off_c, 1, 93, 0
2, 24480, Note_off_c, 1, 41, 0
2, 24480, Note_on_c, 1, 54, 127
2, 24480, Note_off_c, 1, 57, 0
2, 24480, Note_on_c, 1, 61, 127
2, 24480, Note_on_c, 1, 64, 127
2, 24480, Note_off_c, 1, 69, 0
2, 24480, Note_on_c, 1, 70, 127
2, 24480, Note_off_c, 1, 74, 0
2, 24480, Note_on_c, 1, 76, 127
2, 24520, Note_on_c, 1, 36, 127
2, 24520, Note_on_c, 1, 48, 127
2, 24520, Note_off_c, 1, 54, 0
2, 24520, Note_on_c, 1, 57, 127
2, 24520, Note_off_c, 1, 61, 0
2, 24520, Note_off_c, 1, 64, 0
2, 24520, Note_off_c, 1, 70, 0
2, 24520, Note_off_c, 1, 76, 0
2, 24520, Note_on_c, 1, 81, 127
2, 24520, Note_on_c, 1, 87, 127
2, 24520, Note_on_c, 1, 93, 127
2, 24800, Note_off_c, 1, 36, 0
2, 24800, Note_off_c, 1, 48, 0
2, 24800, Note_on_c, 1, 50, 127
2, 24800, Note_on_c, 1, 53, 127
2, 24800, Note_on_c, 1, 56, 127
2, 24800, Note_off_c, 1, 57, 0
2, 24800, Note_on_c, 1, 58, 127
2, 24800, Note_on_c, 1, 79, 127
2, 24800, Note_off_c, 1, 81, 0
2, 24800, Note_off_c, 1, 87, 0
2, 24800, Note_off_c, 1, 93, 0
2, 24840, Note_on_c, 1, 28, 127
2, 24840, Note_on_c, 1, 47, 127
2, 24840, Note_off_c, 1, 50, 0
2, 24840, Note_on_c, 1, 52, 127
2, 24840, Note_off_c, 1, 53, 0
2, 24840, Note_on_c, 1, 55, 127
2, 24840, Note_off_c, 1, 56, 0
2, 24840, Note_off_c, 1, 58, 0
2, 24840, Note_on_c, 1, 60, 127
2, 24840, Note_off_c, 1, 79, 0
2, 24880, Note_off_c, 1, 28, 0
2, 24880, Note_off_c, 1, 47, 0
2, 24880, Note_on_c, 1, 51, 127
2, 24880, Note_off_c, 1, 52, 0
2, 24880, Note_on_c, 1, 54, 127
2, 24880, Note_off_c, 1, 55, 0
2, 24880, Note_on_c, 1, 57, 127
2, 24880, Note_off_c, 1, 60, 0
2, 24880, Note_on_c, 1, 83, 127
2, 25040, Note_on_c, 1, 49, 127
2, 25040, Note_off_c, 1, 51, 0
2, 25040, Note_off_c, 1, 54, 0
2, 25040, Note_on_c, 1, 55, 127
2, 25040, Note_on_c, 1, 61, 127
2, 25040, Note_on_c, 1, 64, 127
2, 25040, Note_on_c, 1, 69, 127
2, 25040, Note_off_c, 1, 83, 0
2, 25080, Note_off_c, 1, 49, 0
2, 25080, Note_on_c, 1, 51, 127
2, 25080, Note_on_c, 1, 54, 127
2, 25080, Note_off_c, 1, 55, 0
2, 25080, Note_off_c, 1, 61, 0
2, 25080, Note_off_c, 1, 64, 0
2, 25080, Note_off_c, 1, 69, 0
2, 25080, Note_on_c, 1, 83, 127
2, 25120, Note_on_c, 1, 82, 127
2, 25120, Note_off_c, 1, 83, 0
2, 25160, Note_off_c, 1, 51, 0
2, 25160, Note_off_c, 1, 54, 0
2, 25160, Note_off_c, 1, 57, 0
2, 25160, Note_off_c, 1, 82, 0
2, 25200, Note_on_c, 1, 48, 127
2, 25200, Note_on_c, 1, 65, 127
2, 25200, Note_on_c, 1, 74, 127
2, 25200, Note_on_c, 1, 81, 127
2, 25520, Note_off_c, 1, 48, 0
2, 25520, Note_off_c, 1, 65, 0
2, 25520, Note_off_c, 1, 74, 0
2, 25520, Note_off_c, 1, 81, 0
2, 25560, Note_on_c, 1, 58, 127
2, 25560, Note_on_c, 1, 62, 127
2, 25560, Note_on_c, 1, 68, 127
2, 25560, Note_on_c, 1, 74, 127
2, 25560, Note_on_c, 1, 86, 127
2, 25600, Note_off_c, 1, 58, 0
2, 25600, Note_off_c, 1, 62, 0
2, 25600, Note_off_c, 1, 68, 0
2, 25640, Note_on_c, 1, 57, 127
2, 25640, Note_on_c, 1, 69, 127
2, 25640, Note_on_c, 1, 81, 127
2, 25640, Note_off_c, 1, 86, 0
2, 25680, Note_off_c, 1, 57, 0
2, 25680, Note_off_c, 1, 69, 0
2, 25680, Note_off_c, 1, 74, 0
2, 25680, Note_off_c, 1, 81, 0
2, 25720, Note_on_c, 1, 45, 127
2, 25720, Note_on_c, 1, 74, 127
2, 25720, Note_on_c, 1, 86, 127
2, 25760, Note_off_c, 1, 45, 0
2, 25800, Note_on_c, 1, 54, 127
2, 25800, Note_off_c, 1, 74, 0
2, 25800, Note_on_c, 1, 98, 127
2, 25840, Note_off_c, 1, 54, 0
2, 25840, Note_on_c, 1, 74, 127
2, 25840, Note_off_c, 1, 98, 0
2, 25960, Note_on_c, 1, 65, 127
2, 26280, Note_on_c, 1, 59, 127
2, 26280, Note_off_c, 1, 65, 0
2, 26280, Note_off_c, 1, 74, 0
2, 26320, Note_on_c, 1, 39, 127
2, 26320, Note_on_c, 1, 51, 127
2, 26320, Note_off_c, 1, 59, 0
2, 26320, Note_on_c, 1, 63, 127
2, 26320, Note_on_c, 1, 71, 127
2, 26320, Note_on_c, 1, 75, 127
2, 26320, Note_off_c, 1, 86, 0
2, 26360, Note_on_c, 1, 38, 127
2, 26360, Note_off_c, 1, 39, 0
2, 26360, Note_on_c, 1, 50, 127
2, 26360, Note_off_c, 1, 51, 0
2, 26360, Note_off_c, 1, 63, 0
2, 26360, Note_off_c, 1, 75, 0
2, 26360, Note_on_c, 1, 77, 127
2, 26360, Note_on_c, 1, 83, 127
2, 26400, Note_off_c, 1, 38, 0
2, 26400, Note_off_c, 1, 50, 0
2, 26400, Note_on_c, 1, 66, 127
2, 26400, Note_off_c, 1, 71, 0
2, 26400, Note_on_c, 1, 73, 127
2, 26400, Note_on_c, 1, 75, 127
2, 26400, Note_off_c, 1, 77, 0
2, 26400, Note_on_c, 1, 80, 127
2, 26400, Note_off_c, 1, 83, 0
2, 26440, Note_on_c, 1, 38, 127
2, 26440, Note_on_c, 1, 50, 127
2, 26440, Note_off_c, 1, 66, 0
2, 26440, Note_on_c, 1, 71, 127
2, 26440, Note_off_c, 1, 73, 0
2, 26440, Note_off_c, 1, 75, 0
2, 26440, Note_on_c, 1, 77, 127
2, 26440, Note_off_c, 1, 80, 0
2, 26440, Note_on_c, 1, 83, 127
2, 26640, Note_off_c, 1, 38, 0
2, 26640, Note_off_c, 1, 50, 0
2, 26640, Note_off_c, 1, 71, 0
2, 26640, Note_off_c, 1, 77, 0
2, 26640, Note_off_c, 1, 83, 0
2, 26680, Note_on_c, 1, 46, 127
2, 26680, Note_on_c, 1, 49, 127
2, 26680, Note_on_c, 1, 52, 127
2, 26680, Note_on_c, 1, 58, 127
2, 26680, Note_on_c, 1, 85, 127
2, 26680, Note_on_c, 1, 88, 127
2, 26680, Note_on_c, 1, 91, 127
2, 26680, Note_on_c, 1, 97, 127
2, 26720, Note_off_c, 1, 46, 0
2, 26720, Note_off_c, 1, 49, 0
2, 26720, Note_off_c, 1, 52, 0
2, 26720, Note_off_c, 1, 58, 0
2, 26720, Note_on_c, 1, 64, 127
2, 26720, Note_on_c, 1, 67, 127
2, 26720, Note_on_c, 1, 70, 127
2, 26720, Note_on_c, 1, 72, 127
2, 26720, Note_off_c, 1, 85, 0
2, 26720, Note_off_c, 1, 88, 0
2, 26720, Note_off_c, 1, 97, 0
2, 27000, Note_off_c, 1, 64, 0
2, 27000, Note_off_c, 1, 67, 0
2, 27000, Note_off_c, 1, 70, 0
2, 27000, Note_off_c, 1, 72, 0
2, 27000, Note_on_c, 1, 75, 127
2, 27000, Note_on_c, 1, 81, 127
2, 27000, Note_on_c, 1, 87, 127
2, 27000, Note_on_c, 1, 90, 127
2, 27000, Note_off_c, 1, 91, 0
2, 27000, Note_on_c, 1, 93, 127
2, 27040, Note_on_c, 1, 61, 127
2, 27040, Note_on_c, 1, 64, 127
2, 27040, Note_on_c, 1, 73, 127
2, 27040, Note_off_c, 1, 75, 0
2, 27040, Note_on_c, 1, 76, 127
2, 27040, Note_off_c, 1, 81, 0
2, 27040, Note_off_c, 1, 87, 0
2, 27040, Note_on_c, 1, 88, 127
2, 27040, Note_off_c, 1, 90, 0
2, 27040, Note_off_c, 1, 93, 0
2, 27360, Note_off_c, 1, 61, 0
2, 27360, Note_off_c, 1, 64, 0
2, 27360, Note_off_c, 1, 73, 0
2, 27360, Note_off_c, 1, 76, 0
2, 27360, Note_off_c, 1, 88, 0
2, 27400, Note_on_c, 1, 51, 127
2, 27400, Note_on_c, 1, 54, 127
2, 27400, Note_on_c, 1, 63, 127
2, 27400, Note_on_c, 1, 79, 127
2, 27400, Note_on_c, 1, 83, 127
2, 27440, Note_on_c, 1, 36, 127
2, 27440, Note_on_c, 1, 48, 127
2, 27440, Note_off_c, 1, 51, 0
2, 27440, Note_off_c, 1, 54, 0
2, 27440, Note_on_c, 1, 58, 127
2, 27440, Note_off_c, 1, 63, 0
2, 27440, Note_off_c, 1, 79, 0
2, 27440, Note_on_c, 1, 82, 127
2, 27440, Note_off_c, 1, 83, 0
2, 27440, Note_on_c, 1, 88, 127
2, 27440, Note_on_c, 1, 94, 127
2, 27720, Note_off_c, 1, 36, 0
2, 27720, Note_off_c, 1, 48, 0
2, 27720, Note_off_c, 1, 58, 0
2, 27720, Note_off_c, 1, 82, 0
2, 27720, Note_off_c, 1, 88, 0
2, 27720, Note_off_c, 1, 94, 0
2, 27760, Note_on_c, 1, 49, 127
2, 27760, Note_on_c, 1, 75, 127
2, 27760, Note_on_c, 1, 82, 127
2, 27880, Note_off_c, 1, 49, 0
2, 27880, Note_off_c, 1, 75, 0
2, 27880, Note_off_c, 1, 82, 0
2, 27920, Note_on_c, 1, 49, 127
2, 27920, Note_on_c, 1, 75, 127
2, 27920, Note_on_c, 1, 82, 127
2, 28120, Note_off_c, 1, 49, 0
2, 28120, Note_off_c, 1, 75, 0
2, 28120, Note_off_c, 1, 82, 0
2, 28160, Note_on_c, 1, 63, 127
2, 28160, Note_on_c, 1, 66, 127
2, 28160, Note_on_c, 1, 70, 127
2, 28160, Note_on_c, 1, 72, 127
2, 28160, Note_on_c, 1, 78, 127
2, 28160, Note_on_c, 1, 87, 127
2, 28480, Note_off_c, 1, 63, 0
2, 28480, Note_off_c, 1, 66, 0
2, 28480, Note_off_c, 1, 70, 0
2, 28480, Note_off_c, 1, 72, 0
2, 28520, Note_on_c, 1, 63, 127
2, 28520, Note_on_c, 1, 66, 127
2, 28520, Note_on_c, 1, 70, 127
2, 28520, Note_on_c, 1, 72, 127
2, 28840, Note_off_c, 1, 63, 0
2, 28840, Note_off_c, 1, 66, 0
2, 28840, Note_off_c, 1, 70, 0
2, 28840, Note_off_c, 1, 72, 0
2, 28880, Note_on_c, 1, 63, 127
2, 28880, Note_on_c, 1, 66, 127
2, 28880, Note_on_c, 1, 70, 127
2, 28880, Note_on_c, 1, 72, 127
2, 29200, Note_off_c, 1, 63, 0
2, 29200, Note_off_c, 1, 66, 0
2, 29200, Note_off_c, 1, 70, 0
2, 29200, Note_off_c, 1, 72, 0
2, 29240, Note_on_c, 1, 63, 127
2, 29240, Note_on_c, 1, 66, 127
2, 29240, Note_on_c, 1, 69, 127
2, 29240, Note_on_c, 1, 72, 127
2, 29560, Note_off_c, 1, 63, 0
2, 29560, Note_off_c, 1, 66, 0
2, 29560, Note_off_c, 1, 69, 0
2, 29560, Note_off_c, 1, 72, 0
2, 29560, Note_off_c, 1, 78, 0
2, 29560, Note_off_c, 1, 87, 0
2, 29600, Note_on_c, 1, 63, 127
2, 29600, Note_on_c, 1, 66, 127
2, 29600, Note_on_c, 1, 69, 127
2, 29600, Note_on_c, 1, 72, 127
2, 29600, Note_on_c, 1, 78, 127
2, 29600, Note_on_c, 1, 87, 127
2, 29920, Note_off_c, 1, 63, 0
2, 29920, Note_off_c, 1, 66, 0
2, 29920, Note_off_c, 1, 69, 0
2, 29920, Note_off_c, 1, 72, 0
2, 29920, Note_off_c, 1, 78, 0
2, 29920, Note_off_c, 1, 87, 0
2, 29960, Note_on_c, 1, 37, 127
2, 29960, Note_on_c, 1, 49, 127
2, 29960, Note_on_c, 1, 78, 127
2, 29960, Note_on_c, 1, 90, 127
2, 30200, Note_off_c, 1, 37, 0
2, 30200, Note_off_c, 1, 49, 0
2, 30200, Note_off_c, 1, 78, 0
2, 30200, Note_off_c, 1, 90, 0
2, 30240, Note_on_c, 1, 37, 127
2, 30240, Note_on_c, 1, 49, 127
2, 30240, Note_on_c, 1, 78, 127
2, 30240, Note_on_c, 1, 90, 127
2, 30720, Note_off_c, 1, 37, 0
2, 30720, Note_off_c, 1, 49, 0
2, 30720, Note_off_c, 1, 78, 0
2, 30720, Note_off_c, 1, 90, 0
2, 30760, Note_on_c, 1, 44, 127
2, 30760, Note_on_c, 1, 56, 127
2, 30760, Note_on_c, 1, 78, 127
2, 30760, Note_on_c, 1, 80, 127
2, 30760, Note_on_c, 1, 84, 127
2, 30760, Note_on_c, 1, 87, 127
2, 31080, Note_off_c, 1, 44, 0
2, 31080, Note_off_c, 1, 56, 0
2, 31080, Note_off_c, 1, 78, 0
2, 31080, Note_off_c, 1, 80, 0
2, 31080, Note_off_c, 1, 84, 0
2, 31080, Note_off_c, 1, 87, 0
2, 31120, Note_on_c, 1, 62, 127
2, 31120, Note_on_c, 1, 66, 127
2, 31120, Note_on_c, 1, 71, 127
2, 31120, Note_on_c, 1, 74, 127
2, 31120, Note_on_c, 1, 81, 127
2, 31160, Note_on_c, 1, 50, 127
2, 31160, Note_off_c, 1, 66, 0
2, 31160, Note_off_c, 1, 71, 0
2, 31160, Note_on_c, 1, 78, 127
2, 31200, Note_off_c, 1, 50, 0
2, 31200, Note_on_c, 1, 66, 127
2, 31200, Note_on_c, 1, 70, 127
2, 31200, Note_on_c, 1, 73, 127
2, 31200, Note_off_c, 1, 74, 0
2, 31200, Note_on_c, 1, 76, 127
2, 31200, Note_off_c, 1, 81, 0
2, 31200, Note_on_c, 1, 85, 127
2, 31240, Note_off_c, 1, 62, 0
2, 31240, Note_off_c, 1, 66, 0
2, 31240, Note_off_c, 1, 70, 0
2, 31240, Note_off_c, 1, 73, 0
2, 31240, Note_on_c, 1, 75, 127
2, 31240, Note_off_c, 1, 76, 0
2, 31240, Note_off_c, 1, 78, 0
2, 31240, Note_on_c, 1, 84, 127
2, 31240, Note_off_c, 1, 85, 0
2, 31240, Note_on_c, 1, 96, 127
2, 31240, Note_on_c, 1, 104, 127
2, 31280, Note_on_c, 1, 36, 127
2, 31280, Note_on_c, 1, 41, 127
2, 31280, Note_on_c, 1, 45, 127
2, 31280, Note_on_c, 1, 48, 127
2, 31280, Note_off_c, 1, 75, 0
2, 31280, Note_off_c, 1, 84, 0
2, 31280, Note_off_c, 1, 96, 0
2, 31280, Note_off_c, 1, 104, 0
2, 31320, Note_off_c, 1, 36, 0
2, 31320, Note_off_c, 1, 41, 0
2, 31320, Note_off_c, 1, 45, 0
2, 31320, Note_off_c, 1, 48, 0
2, 31320, Note_on_c, 1, 59, 127
2, 31320, Note_on_c, 1, 68, 127
2, 31320, Note_on_c, 1, 77, 127
2, 31320, Note_on_c, 1, 89, 127
2, 31360, Note_on_c, 1, 45, 127
2, 31360, Note_off_c, 1, 59, 0
2, 31360, Note_on_c, 1, 62, 127
2, 31360, Note_off_c, 1, 68, 0
2, 31360, Note_on_c, 1, 71, 127
2, 31360, Note_off_c, 1, 77, 0
2, 31360, Note_on_c, 1, 78, 127
2, 31360, Note_off_c, 1, 89, 0
2, 31400, Note_on_c, 1, 31, 127
2, 31400, Note_on_c, 1, 43, 127
2, 31400, Note_off_c, 1, 45, 0
2, 31400, Note_on_c, 1, 55, 127
2, 31400, Note_on_c, 1, 58, 127
2, 31400, Note_on_c, 1, 61, 127
2, 31400, Note_off_c, 1, 62, 0
2, 31400, Note_on_c, 1, 65, 127
2, 31400, Note_on_c, 1, 70, 127
2, 31400, Note_off_c, 1, 71, 0
2, 31400, Note_on_c, 1, 73, 127
2, 31400, Note_on_c, 1, 77, 127
2, 31400, Note_off_c, 1, 78, 0
2, 31400, Note_on_c, 1, 82, 127
2, 31440, Note_off_c, 1, 31, 0
2, 31440, Note_off_c, 1, 43, 0
2, 31440, Note_off_c, 1, 55, 0
2, 31440, Note_off_c, 1, 58, 0
2, 31440, Note_off_c, 1, 61, 0
2, 31440, Note_off_c, 1, 65, 0
2, 31440, Note_off_c, 1, 70, 0
2, 31440, Note_off_c, 1, 73, 0
2, 31440, Note_off_c, 1, 77, 0
2, 31440, Note_off_c, 1, 82, 0
2, 31480, Note_on_c, 1, 47, 127
2, 31480, Note_on_c, 1, 57, 127
2, 31480, Note_on_c, 1, 66, 127
2, 31480, Note_on_c, 1, 75, 127
2, 31480, Note_on_c, 1, 78, 127
2, 31800, Note_off_c, 1, 47, 0
2, 31800, Note_off_c, 1, 57, 0
2, 31840, Note_on_c, 1, 47, 127
2, 31840, Note_on_c, 1, 57, 127
2, 32160, Note_off_c, 1, 47, 0
2, 32160, Note_off_c, 1, 57, 0
2, 32160, Note_off_c, 1, 66, 0
2, 32160, Note_off_c, 1, 75, 0
2, 32160, Note_off_c, 1, 78, 0
2, 32200, Note_on_c, 1, 47, 127
2, 32200, Note_on_c, 1, 57, 127
2, 32200, Note_on_c, 1, 61, 127
2, 32200, Note_on_c, 1, 64, 127
2, 32200, Note_on_c, 1, 73, 127
2, 32360, Note_off_c, 1, 61, 0
2, 32360, Note_off_c, 1, 64, 0
2, 32360, Note_off_c, 1, 73, 0
2, 32400, Note_off_c, 1, 47, 0
2, 32400, Note_off_c, 1, 57, 0
2, 32440, Note_on_c, 1, 47, 127
2, 32440, Note_on_c, 1, 61, 127
2, 32440, Note_on_c, 1, 64, 127
2, 32440, Note_on_c, 1, 70, 127
2, 32560, Note_off_c, 1, 47, 0
2, 32560, Note_off_c, 1, 61, 0
2, 32560, Note_off_c, 1, 64, 0
2, 32560, Note_off_c, 1, 70, 0
2, 32600, Note_on_c, 1, 35, 127
2, 32600, Note_on_c, 1, 47, 127
2, 32600, Note_on_c, 1, 66, 127
2, 32600, Note_on_c, 1, 71, 127
2, 32600, Note_on_c, 1, 75, 127
2, 32600, Note_on_c, 1, 78, 127
2, 32920, Note_off_c, 1, 35, 0
2, 32920, Note_off_c, 1, 47, 0
2, 32920, Note_off_c, 1, 66, 0
2, 32920, Note_off_c, 1, 71, 0
2, 32920, Note_off_c, 1, 75, 0
2, 32920, Note_off_c, 1, 78, 0
2, 32960, Note_on_c, 1, 32, 127
2, 32960, Note_on_c, 1, 44, 127
2, 32960, Note_on_c, 1, 60, 127
2, 32960, Note_on_c, 1, 72, 127
2, 33280, Note_off_c, 1, 32, 0
2, 33280, Note_off_c, 1, 44, 0
2, 33280, Note_off_c, 1, 60, 0
2, 33280, Note_off_c, 1, 72, 0
2, 33320, Note_on_c, 1, 47, 127
2, 33320, Note_on_c, 1, 56, 127
2, 33320, Note_on_c, 1, 59, 127
2, 33320, Note_on_c, 1, 71, 127
2, 33640, Note_off_c, 1, 47, 0
2, 33640, Note_off_c, 1, 56, 0
2, 33640, Note_off_c, 1, 59, 0
2, 33640, Note_off_c, 1, 71, 0
2, 33680, Note_on_c, 1, 55, 127
2, 33680, Note_on_c, 1, 59, 127
2, 33680, Note_on_c, 1, 66, 127
2, 33680, Note_on_c, 1, 71, 127
2, 33680, Note_on_c, 1, 78, 127
2, 33720, Note_on_c, 1, 47, 127
2, 33720, Note_off_c, 1, 55, 0
2, 34000, Note_off_c, 1, 47, 0
2, 34000, Note_off_c, 1, 59, 0
2, 34000, Note_off_c, 1, 66, 0
2, 34000, Note_off_c, 1, 71, 0
2, 34000, Note_off_c, 1, 78, 0
2, 34040, Note_on_c, 1, 66, 127
2, 34040, Note_on_c, 1, 73, 127
2, 34040, Note_on_c, 1, 76, 127
2, 34040, Note_on_c, 1, 81, 127
2, 34200, Note_off_c, 1, 73, 0
2, 34200, Note_off_c, 1, 76, 0
2, 34200, Note_off_c, 1, 81, 0
2, 34240, Note_on_c, 1, 42, 127
2, 34240, Note_on_c, 1, 53, 127
2, 34240, Note_on_c, 1, 58, 127
2, 34240, Note_on_c, 1, 61, 127
2, 34240, Note_off_c, 1, 66, 0
2, 34240, Note_on_c, 1, 68, 127
2, 34240, Note_on_c, 1, 73, 127
2, 34400, Note_off_c, 1, 42, 0
2, 34400, Note_off_c, 1, 53, 0
2, 34400, Note_off_c, 1, 58, 0
2, 34400, Note_off_c, 1, 61, 0
2, 34400, Note_off_c, 1, 68, 0
2, 34400, Note_off_c, 1, 73, 0
2, 34480, Note_on_c, 1, 47, 127
2, 34480, Note_on_c, 1, 77, 127
2, 34480, Note_on_c, 1, 91, 127
2, 34800, Note_off_c, 1, 47, 0
2, 34800, Note_off_c, 1, 77, 0
2, 34800, Note_off_c, 1, 91, 0
2, 34840, Note_on_c, 1, 57, 127
2, 34840, Note_on_c, 1, 64, 127
2, 34840, Note_on_c, 1, 69, 127
2, 34840, Note_on_c, 1, 72, 127
2, 34840, Note_on_c, 1, 84, 127
2, 35160, Note_off_c, 1, 57, 0
2, 35160, Note_off_c, 1, 64, 0
2, 35160, Note_off_c, 1, 69, 0
2, 35160, Note_off_c, 1, 72, 0
2, 35160, Note_off_c, 1, 84, 0
2, 35200, Note_on_c, 1, 54, 127
2, 35200, Note_on_c, 1, 64, 127
2, 35200, Note_on_c, 1, 66, 127
2, 35200, Note_on_c, 1, 81, 127
2, 35200, Note_on_c, 1, 85, 127
2, 35360, Note_off_c, 1, 81, 0
2, 35360, Note_off_c, 1, 85, 0
2, 35400, Note_on_c, 1, 61, 127
2, 35400, Note_off_c, 1, 64, 0
2, 35400, Note_off_c, 1, 66, 0
2, 35400, Note_on_c, 1, 71, 127
2, 35400, Note_on_c, 1, 76, 127
2, 35400, Note_on_c, 1, 79, 127
2, 35520, Note_off_c, 1, 54, 0
2, 35520, Note_off_c, 1, 61, 0
2, 35520, Note_off_c, 1, 71, 0
2, 35520, Note_off_c, 1, 76, 0
2, 35520, Note_off_c, 1, 79, 0
2, 35560, Note_on_c, 1, 55, 127
2, 35560, Note_on_c, 1, 64, 127
2, 35560, Note_on_c, 1, 67, 127
2, 35560, Note_on_c, 1, 85, 127
2, 35560, Note_on_c, 1, 88, 127
2, 35720, Note_on_c, 1, 83, 127
2, 35720, Note_off_c, 1, 85, 0
2, 35720, Note_on_c, 1, 86, 127
2, 35720, Note_off_c, 1, 88, 0
2, 35800, Note_off_c, 1, 83, 0
2, 35800, Note_off_c, 1, 86, 0
2, 35840, Note_on_c, 1, 83, 127
2, 35840, Note_on_c, 1, 86, 127
2, 35880, Note_off_c, 1, 55, 0
2, 35880, Note_off_c, 1, 64, 0
2, 35880, Note_off_c, 1, 67, 0
2, 35880, Note_off_c, 1, 83, 0
2, 35880, Note_off_c, 1, 86, 0
2, 35920, Note_on_c, 1, 55, 127
2, 35920, Note_on_c, 1, 64, 127
2, 35920, Note_on_c, 1, 67, 127
2, 35920, Note_on_c, 1, 81, 127
2, 35920, Note_on_c, 1, 85, 127
2, 36240, Note_off_c, 1, 55, 0
2, 36240, Note_off_c, 1, 64, 0
2, 36240, Note_off_c, 1, 67, 0
2, 36240, Note_off_c, 1, 81, 0
2, 36240, Note_off_c, 1, 85, 0
2, 36280, Note_on_c, 1, 55, 127
2, 36280, Note_on_c, 1, 64, 127
2, 36280, Note_on_c, 1, 67, 127
2, 36280, Note_on_c, 1, 81, 127
2, 36280, Note_on_c, 1, 85, 127
2, 36440, Note_off_c, 1, 55, 0
2, 36440, Note_off_c, 1, 64, 0
2, 36440, Note_off_c, 1, 67, 0
2, 36440, Note_off_c, 1, 81, 0
2, 36440, Note_off_c, 1, 85, 0
2, 36520, Note_on_c, 1, 55, 127
2, 36520, Note_on_c, 1, 64, 127
2, 36520, Note_on_c, 1, 67, 127
2, 36520, Note_on_c, 1, 81, 127
2, 36520, Note_on_c, 1, 85, 127
2, 36640, Note_off_c, 1, 55, 0
2, 36640, Note_off_c, 1, 64, 0
2, 36640, Note_off_c, 1, 67, 0
2, 36640, Note_off_c, 1, 81, 0
2, 36640, Note_off_c, 1, 85, 0
2, 36680, Note_on_c, 1, 56, 127
2, 36680, Note_on_c, 1, 64, 127
2, 36680, Note_on_c, 1, 68, 127
2, 36680, Note_on_c, 1, 76, 127
2, 36680, Note_on_c, 1, 83, 127
2, 37000, Note_off_c, 1, 56, 0
2, 37000, Note_off_c, 1, 64, 0
2, 37000, Note_off_c, 1, 68, 0
2, 37000, Note_off_c, 1, 76, 0
2, 37000, Note_off_c, 1, 83, 0
2, 37040, Note_on_c, 1, 70, 127
2, 37040, Note_on_c, 1, 72, 127
2, 37040, Note_on_c, 1, 78, 127
2, 37040, Note_on_c, 1, 87, 127
2, 37040, Note_on_c, 1, 89, 127
2, 37040, Note_on_c, 1, 93, 127
2, 37400, Note_on_c, 1, 57, 127
2, 37400, Note_on_c, 1, 63, 127
2, 37400, Note_on_c, 1, 65, 127
2, 37400, Note_off_c, 1, 70, 0
2, 37400, Note_on_c, 1, 75, 127
2, 37400, Note_on_c, 1, 77, 127
2, 37400, Note_off_c, 1, 78, 0
2, 37400, Note_on_c, 1, 81, 127
2, 37400, Note_on_c, 1, 84, 127
2, 37400, Note_off_c, 1, 87, 0
2, 37400, Note_off_c, 1, 89, 0
2, 37400, Note_off_c, 1, 93, 0
2, 37440, Note_off_c, 1, 57, 0
2, 37440, Note_off_c, 1, 63, 0
2, 37440, Note_off_c, 1, 65, 0
2, 37440, Note_on_c, 1, 67, 127
2, 37440, Note_off_c, 1, 72, 0
2, 37440, Note_off_c, 1, 75, 0
2, 37440, Note_off_c, 1, 77, 0
2, 37440, Note_off_c, 1, 81, 0
2, 37440, Note_off_c, 1, 84, 0
2, 37440, Note_on_c, 1, 89, 127
2, 37440, Note_on_c, 1, 92, 127
2, 37440, Note_on_c, 1, 96, 127
2, 37440, Note_on_c, 1, 101, 127
2, 37480, Note_on_c, 1, 57, 127
2, 37480, Note_on_c, 1, 63, 127
2, 37480, Note_on_c, 1, 65, 127
2, 37480, Note_off_c, 1, 67, 0
2, 37480, Note_on_c, 1, 72, 127
2, 37480, Note_on_c, 1, 75, 127
2, 37480, Note_on_c, 1, 77, 127
2, 37480, Note_on_c, 1, 81, 127
2, 37480, Note_on_c, 1, 84, 127
2, 37480, Note_off_c, 1, 89, 0
2, 37480, Note_off_c, 1, 92, 0
2, 37480, Note_off_c, 1, 96, 0
2, 37480, Note_off_c, 1, 101, 0
2, 37720, Note_off_c, 1, 57, 0
2, 37720, Note_off_c, 1, 63, 0
2, 37720, Note_off_c, 1, 65, 0
2, 37720, Note_off_c, 1, 72, 0
2, 37720, Note_off_c, 1, 75, 0
2, 37720, Note_off_c, 1, 77, 0
2, 37720, Note_off_c, 1, 81, 0
2, 37720, Note_off_c, 1, 84, 0
2, 37760, Note_on_c, 1, 52, 127
2, 37760, Note_on_c, 1, 57, 127
2, 37760, Note_on_c, 1, 60, 127
2, 37760, Note_on_c, 1, 64, 127
2, 37760, Note_on_c, 1, 76, 127
2, 38080, Note_off_c, 1, 52, 0
2, 38080, Note_on_c, 1, 54, 127
2, 38080, Note_off_c, 1, 57, 0
2, 38080, Note_off_c, 1, 60, 0
2, 38080, Note_off_c, 1, 64, 0
2, 38080, Note_on_c, 1, 66, 127
2, 38080, Note_off_c, 1, 76, 0
2, 38120, Note_on_c, 1, 52, 127
2, 38120, Note_off_c, 1, 54, 0
2, 38120, Note_on_c, 1, 57, 127
2, 38120, Note_on_c, 1, 61, 127
2, 38120, Note_off_c, 1, 66, 0
2, 38120, Note_on_c, 1, 69, 127
2, 38120, Note_on_c, 1, 81, 127
2, 38360, Note_off_c, 1, 52, 0
2, 38360, Note_off_c, 1, 57, 0
2, 38360, Note_off_c, 1, 61, 0
2, 38400, Note_on_c, 1, 50, 127
2, 38400, Note_on_c, 1, 53, 127
2, 38400, Note_on_c, 1, 56, 127
2, 38400, Note_on_c, 1, 62, 127
2, 38400, Note_off_c, 1, 81, 0
2, 38440, Note_off_c, 1, 50, 0
2, 38440, Note_off_c, 1, 53, 0
2, 38440, Note_off_c, 1, 56, 0
2, 38440, Note_off_c, 1, 62, 0
2, 38440, Note_on_c, 1, 76, 127
2, 38440, Note_on_c, 1, 81, 127
2, 38440, Note_on_c, 1, 84, 127
2, 38440, Note_on_c, 1, 88, 127
2, 38440, Note_on_c, 1, 96, 127
2, 38480, Note_off_c, 1, 69, 0
2, 38480, Note_off_c, 1, 76, 0
2, 38480, Note_off_c, 1, 81, 0
2, 38480, Note_off_c, 1, 84, 0
2, 38480, Note_off_c, 1, 88, 0
2, 38480, Note_off_c, 1, 96, 0
2, 38560, Note_on_c, 1, 38, 127
2, 38560, Note_on_c, 1, 74, 127
2, 38560, Note_on_c, 1, 77, 127
2, 38560, Note_on_c, 1, 81, 127
2, 38760, Note_off_c, 1, 74, 0
2, 38760, Note_off_c, 1, 77, 0
2, 38760, Note_off_c, 1, 81, 0
2, 38800, Note_off_c, 1, 38, 0
2, 38800, Note_on_c, 1, 57, 127
2, 38800, Note_on_c, 1, 63, 127
2, 38800, Note_on_c, 1, 69, 127
2, 38800, Note_on_c, 1, 72, 127
2, 38800, Note_on_c, 1, 78, 127
2, 38880, Note_off_c, 1, 57, 0
2, 38880, Note_off_c, 1, 63, 0
2, 38880, Note_off_c, 1, 69, 0
2, 38880, Note_off_c, 1, 72, 0
2, 38880, Note_off_c, 1, 78, 0
2, 38920, Note_on_c, 1, 57, 127
2, 38920, Note_on_c, 1, 69, 127
2, 38920, Note_on_c, 1, 88, 127
2, 38920, Note_on_c, 1, 93, 127
2, 39160, Note_off_c, 1, 57, 0
2, 39160, Note_off_c, 1, 69, 0
2, 39160, Note_on_c, 1, 74, 127
2, 39160, Note_off_c, 1, 88, 0
2, 39160, Note_off_c, 1, 93, 0
2, 39200, Note_on_c, 1, 57, 127
2, 39200, Note_on_c, 1, 69, 127
2, 39200, Note_off_c, 1, 74, 0
2, 39200, Note_on_c, 1, 88, 127
2, 39200, Note_on_c, 1, 93, 127
2, 39240, Note_off_c, 1, 88, 0
2, 39280, Note_off_c, 1, 57, 0
2, 39280, Note_off_c, 1, 69, 0
2, 39280, Note_off_c, 1, 93, 0
2, 39320, Note_on_c, 1, 53, 127
2, 39320, Note_on_c, 1, 57, 127
2, 39320, Note_on_c, 1, 62, 127
2, 39320, Note_on_c, 1, 65, 127
2, 39320, Note_on_c, 1, 81, 127
2, 39320, Note_on_c, 1, 86, 127
2, 39360, Note_off_c, 1, 53, 0
2, 39360, Note_off_c, 1, 57, 0
2, 39360, Note_off_c, 1, 62, 0
2, 39360, Note_off_c, 1, 65, 0
2, 39360, Note_off_c, 1, 81, 0
2, 39360, Note_off_c, 1, 86, 0
2, 39360, Note_on_c, 1, 89, 127
2, 39360, Note_on_c, 1, 93, 127
2, 39360, Note_on_c, 1, 96, 127
2, 39360, Note_on_c, 1, 101, 127
2, 39600, Note_on_c, 1, 76, 127
2, 39600, Note_on_c, 1, 81, 127
2, 39600, Note_off_c, 1, 89, 0
2, 39600, Note_on_c, 1, 91, 127
2, 39600, Note_off_c, 1, 93, 0
2, 39600, Note_off_c, 1, 96, 0
2, 39600, Note_off_c, 1, 101, 0
2, 39600, Note_on_c, 1, 103, 127
2, 39640, Note_off_c, 1, 76, 0
2, 39640, Note_off_c, 1, 81, 0
2, 39640, Note_off_c, 1, 91, 0
2, 39640, Note_off_c, 1, 103, 0
2, 39680, Note_on_c, 1, 41, 127
2, 39680, Note_on_c, 1, 50, 127
2, 39680, Note_on_c, 1, 71, 127
2, 39680, Note_on_c, 1, 83, 127
2, 39720, Note_off_c, 1, 41, 0
2, 39720, Note_off_c, 1, 50, 0
2, 39720, Note_on_c, 1, 54, 127
2, 39720, Note_on_c, 1, 59, 127
2, 39720, Note_on_c, 1, 66, 127
2, 39720, Note_off_c, 1, 71, 0
2, 39720, Note_off_c, 1, 83, 0
2, 39720, Note_on_c, 1, 85, 127
2, 39760, Note_off_c, 1, 54, 0
2, 39760, Note_off_c, 1, 66, 0
2, 39760, Note_on_c, 1, 81, 127
2, 39760, Note_on_c, 1, 83, 127
2, 39760, Note_off_c, 1, 85, 0
2, 39800, Note_on_c, 1, 71, 127
2, 39800, Note_off_c, 1, 81, 0
2, 39840, Note_off_c, 1, 59, 0
2, 39840, Note_on_c, 1, 64, 127
2, 39840, Note_off_c, 1, 71, 0
2, 39840, Note_off_c, 1, 83, 0
2, 39840, Note_on_c, 1, 87, 127
2, 39840, Note_on_c, 1, 88, 127
2, 39840, Note_on_c, 1, 92, 127
2, 39880, Note_on_c, 1, 40, 127
2, 39880, Note_on_c, 1, 52, 127
2, 39880, Note_on_c, 1, 59, 127
2, 39880, Note_off_c, 1, 64, 0
2, 39880, Note_on_c, 1, 80, 127
2, 39880, Note_on_c, 1, 84, 127
2, 39880, Note_off_c, 1, 87, 0
2, 39880, Note_off_c, 1, 88, 0
2, 39880, Note_off_c, 1, 92, 0
2, 39880, Note_on_c, 1, 96, 127
2, 39920, Note_off_c, 1, 40, 0
2, 39920, Note_off_c, 1, 52, 0
2, 39920, Note_off_c, 1, 59, 0
2, 39920, Note_off_c, 1, 80, 0
2, 39920, Note_off_c, 1, 84, 0
2, 39920, Note_on_c, 1, 86, 127
2, 39920, Note_on_c, 1, 91, 127
2, 39920, Note_on_c, 1, 94, 127
2, 39920, Note_off_c, 1, 96, 0
2, 39920, Note_on_c, 1, 98, 127
2, 39960, Note_on_c, 1, 29, 127
2, 39960, Note_on_c, 1, 53, 127
2, 39960, Note_on_c, 1, 56, 127
2, 39960, Note_on_c, 1, 63, 127
2, 39960, Note_on_c, 1, 75, 127
2, 39960, Note_off_c, 1, 86, 0
2, 39960, Note_off_c, 1, 91, 0
2, 39960, Note_off_c, 1, 94, 0
2, 39960, Note_off_c, 1, 98, 0
2, 40000, Note_off_c, 1, 29, 0
2, 40000, Note_off_c, 1, 53, 0
2, 40000, Note_off_c, 1, 56, 0
2, 40000, Note_off_c, 1, 63, 0
2, 40000, Note_on_c, 1, 71, 127
2, 40000, Note_off_c, 1, 75, 0
2, 40000, Note_on_c, 1, 85, 127
2, 40040, Note_on_c, 1, 64, 127
2, 40040, Note_on_c, 1, 67, 127
2, 40040, Note_off_c, 1, 71, 0
2, 40040, Note_on_c, 1, 83, 127
2, 40040, Note_off_c, 1, 85, 0
2, 40040, Note_on_c, 1, 88, 127
2, 40040, Note_on_c, 1, 91, 127
2, 40200, Note_off_c, 1, 64, 0
2, 40200, Note_off_c, 1, 67, 0
2, 40240, Note_on_c, 1, 59, 127
2, 40400, Note_off_c, 1, 59, 0
2, 40400, Note_off_c, 1, 83, 0
2, 40400, Note_off_c, 1, 88, 0
2, 40400, Note_off_c, 1, 91, 0
2, 40440, Note_on_c, 1, 62, 127
2, 40440, Note_on_c, 1, 66, 127
2, 40440, Note_on_c, 1, 90, 127
2, 40440, Note_on_c, 1, 93, 127
2, 40640, Note_off_c, 1, 62, 0
2, 40640, Note_off_c, 1, 66, 0
2, 40640, Note_off_c, 1, 90, 0
2, 40640, Note_off_c, 1, 93, 0
2, 40680, Note_on_c, 1, 62, 127
2, 40680, Note_on_c, 1, 66, 127
2, 40680, Note_on_c, 1, 90, 127
2, 40680, Note_on_c, 1, 93, 127
2, 40800, Note_on_c, 1, 33, 127
2, 40800, Note_on_c, 1, 40, 127
2, 40800, Note_on_c, 1, 45, 127
2, 40800, Note_off_c, 1, 62, 0
2, 40800, Note_off_c, 1, 66, 0
2, 40800, Note_off_c, 1, 90, 0
2, 40800, Note_off_c, 1, 93, 0
2, 40840, Note_off_c, 1, 33, 0
2, 40840, Note_off_c, 1, 40, 0
2, 40840, Note_off_c, 1, 45, 0
2, 40840, Note_on_c, 1, 66, 127
2, 40840, Note_on_c, 1, 73, 127
2, 40840, Note_on_c, 1, 79, 127
2, 41160, Note_off_c, 1, 73, 0
2, 41200, Note_on_c, 1, 74, 127
2, 41200, Note_off_c, 1, 79, 0
2, 41200, Note_on_c, 1, 80, 127
2, 41560, Note_off_c, 1, 66, 0
2, 41560, Note_on_c, 1, 69, 127
2, 41560, Note_off_c, 1, 74, 0
2, 41560, Note_off_c, 1, 80, 0
2, 41600, Note_on_c, 1, 56, 127
2, 41600, Note_on_c, 1, 57, 127
2, 41600, Note_off_c, 1, 69, 0
2, 41600, Note_on_c, 1, 72, 127
2, 41600, Note_on_c, 1, 77, 127
2, 41920, Note_off_c, 1, 56, 0
2, 41920, Note_off_c, 1, 57, 0
2, 41920, Note_off_c, 1, 72, 0
2, 41960, Note_on_c, 1, 61, 127
2, 41960, Note_on_c, 1, 64, 127
2, 41960, Note_on_c, 1, 76, 127
2, 41960, Note_off_c, 1, 77, 0
2, 41960, Note_on_c, 1, 80, 127
2, 42280, Note_on_c, 1, 56, 127
2, 42280, Note_off_c, 1, 61, 0
2, 42280, Note_on_c, 1, 73, 127
2, 42280, Note_off_c, 1, 80, 0
2, 42320, Note_off_c, 1, 56, 0
2, 42320, Note_off_c, 1, 64, 0
2, 42320, Note_on_c, 1, 71, 127
2, 42320, Note_off_c, 1, 73, 0
2, 42320, Note_on_c, 1, 80, 127
2, 42360, Note_on_c, 1, 51, 127
2, 42360, Note_on_c, 1, 60, 127
2, 42360, Note_on_c, 1, 63, 127
2, 42360, Note_on_c, 1, 69, 127
2, 42360, Note_off_c, 1, 71, 0
2, 42360, Note_on_c, 1, 75, 127
2, 42360, Note_off_c, 1, 76, 0
2, 42360, Note_off_c, 1, 80, 0
2, 42720, Note_off_c, 1, 51, 0
2, 42720, Note_off_c, 1, 60, 0
2, 42720, Note_off_c, 1, 63, 0
2, 42720, Note_off_c, 1, 69, 0
2, 42720, Note_off_c, 1, 75, 0
2, 42800, Note_on_c, 1, 28, 127
2, 42800, Note_on_c, 1, 40, 127
2, 42800, Note_on_c, 1, 64, 127
2, 42800, Note_on_c, 1, 68, 127
2, 42800, Note_on_c, 1, 76, 127
2, 43160, Note_off_c, 1, 28, 0
2, 43160, Note_on_c, 1, 33, 127
2, 43160, Note_off_c, 1, 40, 0
2, 43160, Note_on_c, 1, 45, 127
2, 43160, Note_on_c, 1, 57, 127
2, 43160, Note_on_c, 1, 60, 127
2, 43160, Note_off_c, 1, 68, 0
2, 43160, Note_off_c, 1, 76, 0
2, 43200, Note_off_c, 1, 33, 0
2, 43200, Note_off_c, 1, 45, 0
2, 43200, Note_off_c, 1, 57, 0
2, 43200, Note_on_c, 1, 74, 127
2, 43200, Note_on_c, 1, 82, 127
2, 43440, Note_off_c, 1, 60, 0
2, 43480, Note_on_c, 1, 60, 127
2, 43520, Note_off_c, 1, 60, 0
2, 43520, Note_off_c, 1, 64, 0
2, 43520, Note_off_c, 1, 74, 0
2, 43520, Note_off_c, 1, 82, 0
2, 43560, Note_on_c, 1, 59, 127
2, 43560, Note_on_c, 1, 63, 127
2, 43560, Note_on_c, 1, 66, 127
2, 43560, Note_on_c, 1, 69, 127
2, 43560, Note_on_c, 1, 75, 127
2, 43560, Note_on_c, 1, 78, 127
2, 43880, Note_off_c, 1, 59, 0
2, 43880, Note_off_c, 1, 63, 0
2, 43880, Note_off_c, 1, 66, 0
2, 43880, Note_off_c, 1, 69, 0
2, 43880, Note_off_c, 1, 75, 0
2, 43880, Note_off_c, 1, 78, 0
2, 43920, Note_on_c, 1, 33, 127
2, 43920, Note_on_c, 1, 45, 127
2, 43920, Note_on_c, 1, 54, 127
2, 43920, Note_on_c, 1, 61, 127
2, 43920, Note_on_c, 1, 66, 127
2, 44280, Note_off_c, 1, 33, 0
2, 44280, Note_off_c, 1, 45, 0
2, 44280, Note_off_c, 1, 54, 0
2, 44280, Note_off_c, 1, 61, 0
2, 44280, Note_off_c, 1, 66, 0
2, 44320, Note_on_c, 1, 43, 127
2, 44320, Note_on_c, 1, 50, 127
2, 44320, Note_on_c, 1, 60, 127
2, 44320, Note_on_c, 1, 67, 127
2, 44640, Note_off_c, 1, 43, 0
2, 44640, Note_off_c, 1, 50, 0
2, 44640, Note_off_c, 1, 60, 0
2, 44640, Note_off_c, 1, 67, 0
2, 44720, Note_on_c, 1, 39, 127
2, 44720, Note_on_c, 1, 51, 127
2, 44720, Note_on_c, 1, 55, 127
2, 44720, Note_on_c, 1, 58, 127
2, 44720, Note_on_c, 1, 63, 127
2, 45040, Note_off_c, 1, 39, 0
2, 45040, Note_off_c, 1, 55, 0
2, 45040, Note_off_c, 1, 58, 0
2, 45080, Note_on_c, 1, 49, 127
2, 45080, Note_off_c, 1, 51, 0
2, 45080, Note_on_c, 1, 61, 127
2, 45080, Note_off_c, 1, 63, 0
2, 45080, Note_on_c, 1, 76, 127
2, 45080, Note_on_c, 1, 83, 127
2, 45080, Note_on_c, 1, 88, 127
2, 45400, Note_off_c, 1, 49, 0
2, 45400, Note_off_c, 1, 61, 0
2, 45400, Note_off_c, 1, 76, 0
2, 45400, Note_off_c, 1, 83, 0
2, 45400, Note_off_c, 1, 88, 0
2, 45440, Note_on_c, 1, 58, 127
2, 45440, Note_on_c, 1, 61, 127
2, 45440, Note_on_c, 1, 88, 127
2, 45440, Note_on_c, 1, 100, 127
2, 45640, Note_off_c, 1, 58, 0
2, 45640, Note_off_c, 1, 61, 0
2, 45680, Note_on_c, 1, 64, 127
2, 45760, Note_off_c, 1, 64, 0
2, 45760, Note_off_c, 1, 88, 0
2, 45760, Note_off_c, 1, 100, 0
2, 45800, Note_on_c, 1, 55, 127
2, 45800, Note_on_c, 1, 58, 127
2, 45800, Note_on_c, 1, 62, 127
2, 45800, Note_on_c, 1, 67, 127
2, 45800, Note_on_c, 1, 70, 127
2, 45800, Note_on_c, 1, 74, 127
2, 45800, Note_on_c, 1, 79, 127
2, 45800, Note_on_c, 1, 82, 127
2, 46120, Note_on_c, 1, 48, 127
2, 46120, Note_off_c, 1, 58, 0
2, 46120, Note_on_c, 1, 60, 127
2, 46120, Note_off_c, 1, 62, 0
2, 46120, Note_off_c, 1, 67, 0
2, 46120, Note_off_c, 1, 70, 0
2, 46120, Note_off_c, 1, 74, 0
2, 46120, Note_off_c, 1, 79, 0
2, 46120, Note_off_c, 1, 82, 0
2, 46160, Note_on_c, 1, 64, 127
2, 46160, Note_on_c, 1, 67, 127
2, 46160, Note_on_c, 1, 72, 127
2, 46520, Note_off_c, 1, 48, 0
2, 46520, Note_off_c, 1, 55, 0
2, 46520, Note_off_c, 1, 60, 0
2, 46520, Note_off_c, 1, 64, 0
2, 46520, Note_off_c, 1, 67, 0
2, 46520, Note_off_c, 1, 72, 0
2, 46560, Note_on_c, 1, 38, 127
2, 46560, Note_on_c, 1, 52, 127
2, 46560, Note_on_c, 1, 70, 127
2, 46600, Note_off_c, 1, 38, 0
2, 46600, Note_on_c, 1, 43, 127
2, 46600, Note_on_c, 1, 50, 127
2, 46600, Note_off_c, 1, 52, 0
2, 46600, Note_on_c, 1, 59, 127
2, 46600, Note_off_c, 1, 70, 0
2, 46760, Note_on_c, 1, 62, 127
2, 46800, Note_off_c, 1, 50, 0
2, 46800, Note_on_c, 1, 51, 127
2, 46800, Note_off_c, 1, 62, 0
2, 46800, Note_on_c, 1, 63, 127
2, 46840, Note_on_c, 1, 50, 127
2, 46840, Note_off_c, 1, 51, 0
2, 46840, Note_off_c, 1, 63, 0
2, 46840, Note_on_c, 1, 74, 127
2, 46880, Note_off_c, 1, 59, 0
2, 46880, Note_off_c, 1, 74, 0
2, 46920, Note_off_c, 1, 43, 0
2, 46920, Note_off_c, 1, 50, 0
2, 46960, Note_on_c, 1, 50, 127
2, 46960, Note_on_c, 1, 65, 127
2, 46960, Note_on_c, 1, 67, 127
2, 46960, Note_on_c, 1, 71, 127
2, 47280, Note_off_c, 1, 50, 0
2, 47280, Note_off_c, 1, 65, 0
2, 47280, Note_off_c, 1, 67, 0
2, 47280, Note_off_c, 1, 71, 0
2, 47320, Note_on_c, 1, 48, 127
2, 47320, Note_on_c, 1, 60, 127
2, 47320, Note_on_c, 1, 64, 127
2, 47560, Note_off_c, 1, 64, 0
2, 47560, Note_on_c, 1, 65, 127
2, 47560, Note_on_c, 1, 69, 127
2, 47600, Note_on_c, 1, 64, 127
2, 47600, Note_off_c, 1, 65, 0
2, 47600, Note_off_c, 1, 69, 0
2, 47680, Note_on_c, 1, 47, 127
2, 47680, Note_off_c, 1, 48, 0
2, 47680, Note_on_c, 1, 57, 127
2, 47680, Note_off_c, 1, 60, 0
2, 47680, Note_on_c, 1, 62, 127
2, 47680, Note_off_c, 1, 64, 0
2, 47680, Note_on_c, 1, 68, 127
2, 47680, Note_on_c, 1, 71, 127
2, 47720, Note_off_c, 1, 47, 0
2, 47720, Note_on_c, 1, 49, 127
2, 47720, Note_on_c, 1, 55, 127
2, 47720, Note_off_c, 1, 57, 0
2, 47720, Note_on_c, 1, 59, 127
2, 47720, Note_off_c, 1, 62, 0
2, 47720, Note_on_c, 1, 67, 127
2, 47720, Note_off_c, 1, 68, 0
2, 47720, Note_off_c, 1, 71, 0
2, 47760, Note_on_c, 1, 36, 127
2, 47760, Note_on_c, 1, 48, 127
2, 47760, Note_off_c, 1, 49, 0
2, 47760, Note_on_c, 1, 54, 127
2, 47760, Note_off_c, 1, 55, 0
2, 47760, Note_on_c, 1, 57, 127
2, 47760, Note_off_c, 1, 59, 0
2, 47760, Note_on_c, 1, 64, 127
2, 47760, Note_on_c, 1, 66, 127
2, 47760, Note_off_c, 1, 67, 0
2, 47800, Note_off_c, 1, 36, 0
2, 47800, Note_off_c, 1, 48, 0
2, 47800, Note_off_c, 1, 54, 0
2, 47800, Note_on_c, 1, 55, 127
2, 47800, Note_off_c, 1, 57, 0
2, 47800, Note_on_c, 1, 61, 127
2, 47800, Note_off_c, 1, 64, 0
2, 47800, Note_off_c, 1, 66, 0
2, 47800, Note_on_c, 1, 70, 127
2, 47800, Note_on_c, 1, 79, 127
2, 47800, Note_on_c, 1, 82, 127
2, 47840, Note_on_c, 1, 37, 127
2, 47840, Note_off_c, 1, 55, 0
2, 47840, Note_off_c, 1, 61, 0
2, 47840, Note_on_c, 1, 64, 127
2, 47840, Note_on_c, 1, 68, 127
2, 47840, Note_off_c, 1, 70, 0
2, 47840, Note_on_c, 1, 71, 127
2, 47840, Note_off_c, 1, 79, 0
2, 47840, Note_off_c, 1, 82, 0
2, 47880, Note_off_c, 1, 37, 0
2, 47880, Note_on_c, 1, 52, 127
2, 47880, Note_off_c, 1, 64, 0
2, 47880, Note_on_c, 1, 66, 127
2, 47880, Note_off_c, 1, 68, 0
2, 47880, Note_off_c, 1, 71, 0
2, 47880, Note_on_c, 1, 73, 127
2, 47880, Note_on_c, 1, 82, 127
2, 47880, Note_on_c, 1, 85, 127
2, 47920, Note_on_c, 1, 37, 127
2, 47920, Note_off_c, 1, 52, 0
2, 47920, Note_on_c, 1, 64, 127
2, 47920, Note_off_c, 1, 66, 0
2, 47920, Note_on_c, 1, 68, 127
2, 47920, Note_on_c, 1, 71, 127
2, 47920, Note_off_c, 1, 73, 0
2, 47920, Note_off_c, 1, 82, 0
2, 47920, Note_off_c, 1, 85, 0
2, 48040, Note_off_c, 1, 37, 0
2, 48040, Note_off_c, 1, 64, 0
2, 48040, Note_off_c, 1, 68, 0
2, 48040, Note_off_c, 1, 71, 0
2, 48080, Note_on_c, 1, 47, 127
2, 48080, Note_on_c, 1, 61, 127
2, 48080, Note_on_c, 1, 64, 127
2, 48080, Note_on_c, 1, 69, 127
2, 48400, Note_off_c, 1, 61, 0
2, 48400, Note_off_c, 1, 64, 0
2, 48400, Note_off_c, 1, 69, 0
2, 48440, Note_off_c, 1, 47, 0
2, 48440, Note_on_c, 1, 50, 127
2, 48440, Note_on_c, 1, 57, 127
2, 48440, Note_on_c, 1, 60, 127
2, 48440, Note_on_c, 1, 66, 127
2, 48760, Note_off_c, 1, 50, 0
2, 48760, Note_off_c, 1, 57, 0
2, 48760, Note_off_c, 1, 60, 0
2, 48760, Note_off_c, 1, 66, 0
2, 48800, Note_on_c, 1, 35, 127
2, 48800, Note_on_c, 1, 47, 127
2, 48800, Note_on_c, 1, 49, 127
2, 48800, Note_on_c, 1, 52, 127
2, 48800, Note_on_c, 1, 59, 127
2, 48840, Note_on_c, 1, 34, 127
2, 48840, Note_off_c, 1, 35, 0
2, 48840, Note_on_c, 1, 37, 127
2, 48840, Note_on_c, 1, 42, 127
2, 48840, Note_on_c, 1, 46, 127
2, 48840, Note_off_c, 1, 47, 0
2, 48840, Note_off_c, 1, 49, 0
2, 48840, Note_off_c, 1, 52, 0
2, 48840, Note_off_c, 1, 59, 0
2, 48840, Note_on_c, 1, 73, 127
2, 48840, Note_on_c, 1, 78, 127
2, 48840, Note_on_c, 1, 82, 127
2, 48840, Note_on_c, 1, 85, 127
2, 48880, Note_off_c, 1, 34, 0
2, 48880, Note_off_c, 1, 37, 0
2, 48880, Note_off_c, 1, 42, 0
2, 48880, Note_off_c, 1, 46, 0
2, 48880, Note_on_c, 1, 61, 127
2, 48880, Note_on_c, 1, 65, 127
2, 48880, Note_on_c, 1, 67, 127
2, 48880, Note_off_c, 1, 73, 0
2, 48880, Note_on_c, 1, 76, 127
2, 48880, Note_off_c, 1, 78, 0
2, 48880, Note_off_c, 1, 82, 0
2, 48880, Note_off_c, 1, 85, 0
2, 48920, Note_on_c, 1, 50, 127
2, 48920, Note_on_c, 1, 54, 127
2, 48920, Note_on_c, 1, 57, 127
2, 48920, Note_off_c, 1, 61, 0
2, 48920, Note_on_c, 1, 62, 127
2, 48920, Note_off_c, 1, 65, 0
2, 48920, Note_off_c, 1, 67, 0
2, 48920, Note_off_c, 1, 76, 0
2, 48920, Note_on_c, 1, 91, 127
2, 48960, Note_off_c, 1, 50, 0
2, 48960, Note_off_c, 1, 57, 0
2, 48960, Note_on_c, 1, 60, 127
2, 48960, Note_off_c, 1, 62, 0
2, 48960, Note_on_c, 1, 66, 127
2, 48960, Note_on_c, 1, 69, 127
2, 48960, Note_off_c, 1, 91, 0
2, 49000, Note_on_c, 1, 51, 127
2, 49000, Note_off_c, 1, 54, 0
2, 49000, Note_off_c, 1, 60, 0
2, 49000, Note_on_c, 1, 65, 127
2, 49000, Note_off_c, 1, 66, 0
2, 49000, Note_on_c, 1, 67, 127
2, 49000, Note_off_c, 1, 69, 0
2, 49080, Note_on_c, 1, 43, 127
2, 49080, Note_on_c, 1, 46, 127
2, 49080, Note_off_c, 1, 51, 0
2, 49080, Note_on_c, 1, 55, 127
2, 49080, Note_off_c, 1, 65, 0
2, 49080, Note_off_c, 1, 67, 0
2, 49080, Note_on_c, 1, 86, 127
2, 49120, Note_off_c, 1, 43, 0
2, 49120, Note_off_c, 1, 46, 0
2, 49120, Note_off_c, 1, 55, 0
2, 49120, Note_off_c, 1, 86, 0
2, 49160, Note_on_c, 1, 46, 127
2, 49160, Note_on_c, 1, 58, 127
2, 49160, Note_on_c, 1, 88, 127
2, 49160, Note_on_c, 1, 94, 127
2, 49160, Note_on_c, 1, 97, 127
2, 49160, Note_on_c, 1, 100, 127
2, 49200, Note_off_c, 1, 46, 0
2, 49200, Note_off_c, 1, 58, 0
2, 49200, Note_off_c, 1, 88, 0
2, 49200, Note_off_c, 1, 94, 0
2, 49200, Note_off_c, 1, 97, 0
2, 49200, Note_off_c, 1, 100, 0
2, 49240, Note_on_c, 1, 41, 127
2, 49240, Note_on_c, 1, 46, 127
2, 49240, Note_on_c, 1, 53, 127
2, 49240, Note_on_c, 1, 87, 127
2, 49560, Note_off_c, 1, 41, 0
2, 49560, Note_off_c, 1, 46, 0
2, 49560, Note_off_c, 1, 53, 0
2, 49560, Note_off_c, 1, 87, 0
2, 49600, Note_on_c, 1, 42, 127
2, 49600, Note_on_c, 1, 51, 127
2, 49600, Note_on_c, 1, 58, 127
2, 49600, Note_on_c, 1, 63, 127
2, 49600, Note_on_c, 1, 70, 127
2, 49600, Note_on_c, 1, 75, 127
2, 49960, Note_off_c, 1, 42, 0
2, 49960, Note_off_c, 1, 51, 0
2, 49960, Note_off_c, 1, 58, 0
2, 49960, Note_off_c, 1, 63, 0
2, 49960, Note_off_c, 1, 70, 0
2, 49960, Note_off_c, 1, 75, 0
2, 50000, Note_on_c, 1, 56, 127
2, 50000, Note_on_c, 1, 68, 127
2, 50000, Note_on_c, 1, 76, 127
2, 50000, Note_on_c, 1, 83, 127
2, 50000, Note_on_c, 1, 88, 127
2, 50320, Note_off_c, 1, 56, 0
2, 50320, Note_off_c, 1, 68, 0
2, 50320, Note_off_c, 1, 76, 0
2, 50320, Note_off_c, 1, 83, 0
2, 50320, Note_off_c, 1, 88, 0
2, 50360, Note_on_c, 1, 56, 127
2, 50360, Note_on_c, 1, 68, 127
2, 50360, Note_on_c, 1, 76, 127
2, 50360, Note_on_c, 1, 83, 127
2, 50360, Note_on_c, 1, 88, 127
2, 50680, Note_off_c, 1, 56, 0
2, 50680, Note_off_c, 1, 68, 0
2, 50680, Note_off_c, 1, 76, 0
2, 50680, Note_off_c, 1, 83, 0
2, 50680, Note_off_c, 1, 88, 0
2, 50720, Note_on_c, 1, 56, 127
2, 50720, Note_on_c, 1, 68, 127
2, 50720, Note_on_c, 1, 76, 127
2, 50720, Note_on_c, 1, 83, 127
2, 50720, Note_on_c, 1, 88, 127
2, 51080, Note_off_c, 1, 56, 0
2, 51080, Note_off_c, 1, 68, 0
2, 51080, Note_off_c, 1, 76, 0
2, 51080, Note_off_c, 1, 83, 0
2, 51080, Note_off_c, 1, 88, 0
2, 51120, Note_on_c, 1, 56, 127
2, 51120, Note_on_c, 1, 68, 127
2, 51120, Note_on_c, 1, 76, 127
2, 51120, Note_on_c, 1, 83, 127
2, 51120, Note_on_c, 1, 88, 127
2, 51280, Note_on_c, 1, 52, 127
2, 51280, Note_off_c, 1, 56, 0
2, 51280, Note_on_c, 1, 64, 127
2, 51280, Note_off_c, 1, 68, 0
2, 51280, Note_off_c, 1, 76, 0
2, 51280, Note_on_c, 1, 80, 127
2, 51280, Note_on_c, 1, 82, 127
2, 51280, Note_off_c, 1, 83, 0
2, 51280, Note_on_c, 1, 85, 127
2, 51280, Note_off_c, 1, 88, 0
2, 51280, Note_on_c, 1, 92, 127
2, 51320, Note_off_c, 1, 52, 0
2, 51320, Note_off_c, 1, 64, 0
2, 51320, Note_off_c, 1, 80, 0
2, 51320, Note_off_c, 1, 82, 0
2, 51320, Note_off_c, 1, 85, 0
2, 51320, Note_off_c, 1, 92, 0
2, 51360, Note_on_c, 1, 56, 127
2, 51360, Note_on_c, 1, 68, 127
2, 51360, Note_on_c, 1, 76, 127
2, 51360, Note_on_c, 1, 83, 127
2, 51360, Note_on_c, 1, 88, 127
2, 51400, Note_on_c, 1, 52, 127
2, 51400, Note_off_c, 1, 56, 0
2, 51400, Note_on_c, 1, 64, 127
2, 51400, Note_off_c, 1, 68, 0
2, 51400, Note_off_c, 1, 76, 0
2, 51400, Note_on_c, 1, 80, 127
2, 51400, Note_on_c, 1, 82, 127
2, 51400, Note_off_c, 1, 83, 0
2, 51400, Note_on_c, 1, 85, 127
2, 51400, Note_off_c, 1, 88, 0
2, 51400, Note_on_c, 1, 92, 127
2, 51480, Note_off_c, 1, 52, 0
2, 51480, Note_off_c, 1, 64, 0
2, 51480, Note_off_c, 1, 80, 0
2, 51480, Note_off_c, 1, 82, 0
2, 51480, Note_off_c, 1, 85, 0
2, 51480, Note_off_c, 1, 92, 0
2, 51520, Note_on_c, 1, 48, 127
2, 51520, Note_on_c, 1, 52, 127
2, 51520, Note_on_c, 1, 64, 127
2, 51520, Note_on_c, 1, 69, 127
2, 51520, Note_on_c, 1, 76, 127
2, 51840, Note_off_c, 1, 52, 0
2, 51840, Note_on_c, 1, 53, 127
2, 51880, Note_on_c, 1, 52, 127
2, 51880, Note_off_c, 1, 53, 0
2, 52240, Note_off_c, 1, 48, 0
2, 52240, Note_off_c, 1, 52, 0
2, 52240, Note_off_c, 1, 64, 0
2, 52240, Note_off_c, 1, 69, 0
2, 52240, Note_off_c, 1, 76, 0
2, 52280, Note_on_c, 1, 45, 127
2, 52280, Note_on_c, 1, 57, 127
2, 52280, Note_on_c, 1, 64, 127
2, 52280, Note_on_c, 1, 69, 127
2, 52280, Note_on_c, 1, 73, 127
2, 52600, Note_off_c, 1, 45, 0
2, 52600, Note_off_c, 1, 57, 0
2, 52600, Note_off_c, 1, 64, 0
2, 52600, Note_off_c, 1, 69, 0
2, 52600, Note_off_c, 1, 73, 0
2, 52640, Note_on_c, 1, 48, 127
2, 52640, Note_on_c, 1, 50, 127
2, 52640, Note_on_c, 1, 53, 127
2, 52640, Note_on_c, 1, 55, 127
2, 52640, Note_on_c, 1, 77, 127
2, 52680, Note_off_c, 1, 50, 0
2, 52680, Note_off_c, 1, 53, 0
2, 52680, Note_off_c, 1, 55, 0
2, 52680, Note_on_c, 1, 67, 127
2, 52680, Note_on_c, 1, 84, 127
2, 53000, Note_off_c, 1, 48, 0
2, 53000, Note_off_c, 1, 67, 0
2, 53000, Note_off_c, 1, 77, 0
2, 53000, Note_off_c, 1, 84, 0
2, 53040, Note_on_c, 1, 44, 127
2, 53040, Note_on_c, 1, 63, 127
2, 53040, Note_on_c, 1, 78, 127
2, 53080, Note_off_c, 1, 44, 0
2, 53080, Note_on_c, 1, 60, 127
2, 53080, Note_off_c, 1, 63, 0
2, 53080, Note_on_c, 1, 74, 127
2, 53080, Note_on_c, 1, 75, 127
2, 53240, Note_off_c, 1, 60, 0
2, 53240, Note_off_c, 1, 75, 0
2, 53240, Note_off_c, 1, 78, 0
2, 53240, Note_on_c, 1, 89, 127
2, 53240, Note_on_c, 1, 92, 127
2, 53280, Note_on_c, 1, 65, 127
2, 53280, Note_off_c, 1, 74, 0
2, 53280, Note_on_c, 1, 77, 127
2, 53280, Note_off_c, 1, 89, 0
2, 53280, Note_off_c, 1, 92, 0
2, 53280, Note_on_c, 1, 93, 127
2, 53320, Note_on_c, 1, 31, 127
2, 53320, Note_on_c, 1, 59, 127
2, 53320, Note_on_c, 1, 64, 127
2, 53320, Note_off_c, 1, 65, 0
2, 53320, Note_on_c, 1, 68, 127
2, 53320, Note_on_c, 1, 71, 127
2, 53320, Note_off_c, 1, 77, 0
2, 53320, Note_off_c, 1, 93, 0
2, 53360, Note_on_c, 1, 43, 127
2, 53360, Note_on_c, 1, 50, 127
2, 53360, Note_off_c, 1, 59, 0
2, 53360, Note_on_c, 1, 62, 127
2, 53360, Note_off_c, 1, 64, 0
2, 53360, Note_off_c, 1, 68, 0
2, 53360, Note_on_c, 1, 83, 127
2, 53400, Note_off_c, 1, 31, 0
2, 53400, Note_off_c, 1, 43, 0
2, 53400, Note_off_c, 1, 50, 0
2, 53400, Note_off_c, 1, 62, 0
2, 53400, Note_off_c, 1, 71, 0
2, 53400, Note_off_c, 1, 83, 0
2, 53480, Note_on_c, 1, 50, 127
2, 53480, Note_on_c, 1, 55, 127
2, 53480, Note_on_c, 1, 59, 127
2, 53480, Note_on_c, 1, 95, 127
2, 53520, Note_on_c, 1, 46, 127
2, 53520, Note_off_c, 1, 50, 0
2, 53520, Note_off_c, 1, 55, 0
2, 53520, Note_on_c, 1, 57, 127
2, 53520, Note_off_c, 1, 59, 0
2, 53520, Note_on_c, 1, 77, 127
2, 53520, Note_on_c, 1, 84, 127
2, 53520, Note_off_c, 1, 95, 0
2, 53560, Note_off_c, 1, 46, 0
2, 53560, Note_on_c, 1, 49, 127
2, 53560, Note_on_c, 1, 67, 127
2, 53560, Note_on_c, 1, 69, 127
2, 53560, Note_off_c, 1, 77, 0
2, 53560, Note_on_c, 1, 79, 127
2, 53560, Note_off_c, 1, 84, 0
2, 53600, Note_off_c, 1, 49, 0
2, 53600, Note_off_c, 1, 57, 0
2, 53600, Note_on_c, 1, 59, 127
2, 53600, Note_on_c, 1, 64, 127
2, 53600, Note_off_c, 1, 69, 0
2, 53600, Note_on_c, 1, 71, 127
2, 53600, Note_off_c, 1, 79, 0
2, 53600, Note_on_c, 1, 91, 127
2, 53600, Note_on_c, 1, 93, 127
2, 53640, Note_off_c, 1, 59, 0
2, 53640, Note_on_c, 1, 62, 127
2, 53640, Note_off_c, 1, 64, 0
2, 53640, Note_off_c, 1, 67, 0
2, 53640, Note_off_c, 1, 71, 0
2, 53640, Note_on_c, 1, 76, 127
2, 53640, Note_on_c, 1, 79, 127
2, 53640, Note_on_c, 1, 81, 127
2, 53640, Note_on_c, 1, 88, 127
2, 53640, Note_off_c, 1, 91, 0
2, 53640, Note_off_c, 1, 93, 0
2, 53680, Note_on_c, 1, 49, 127
2, 53680, Note_on_c, 1, 51, 127
2, 53680, Note_on_c, 1, 54, 127
2, 53680, Note_on_c, 1, 57, 127
2, 53680, Note_on_c, 1, 61, 127
2, 53680, Note_off_c, 1, 62, 0
2, 53680, Note_on_c, 1, 73, 127
2, 53680, Note_off_c, 1, 76, 0
2, 53680, Note_off_c, 1, 79, 0
2, 53680, Note_off_c, 1, 81, 0
2, 53680, Note_off_c, 1, 88, 0
2, 53720, Note_off_c, 1, 61, 0
2, 53720, Note_on_c, 1, 69, 127
2, 53800, Note_off_c, 1, 49, 0
2, 53800, Note_off_c, 1, 51, 0
2, 53800, Note_off_c, 1, 54, 0
2, 53800, Note_off_c, 1, 57, 0
2, 53800, Note_off_c, 1, 69, 0
2, 53800, Note_off_c, 1, 73, 0
2, 53840, Note_on_c, 1, 40, 127
2, 53840, Note_on_c, 1, 52, 127
2, 53840, Note_on_c, 1, 67, 127
2, 53840, Note_on_c, 1, 71, 127
2, 53840, Note_on_c, 1, 76, 127
2, 54160, Note_off_c, 1, 40, 0
2, 54160, Note_off_c, 1, 52, 0
2, 54160, Note_off_c, 1, 67, 0
2, 54160, Note_off_c, 1, 71, 0
2, 54160, Note_off_c, 1, 76, 0
2, 54200, Note_on_c, 1, 40, 127
2, 54200, Note_on_c, 1, 52, 127
2, 54200, Note_on_c, 1, 55, 127
2, 54200, Note_on_c, 1, 61, 127
2, 54200, Note_on_c, 1, 67, 127
2, 54200, Note_on_c, 1, 73, 127
2, 54560, Note_off_c, 1, 40, 0
2, 54560, Note_off_c, 1, 52, 0
2, 54560, Note_off_c, 1, 55, 0
2, 54560, Note_off_c, 1, 61, 0
2, 54560, Note_off_c, 1, 67, 0
2, 54560, Note_off_c, 1, 73, 0
2, 54600, Note_on_c, 1, 36, 127
2, 54600, Note_on_c, 1, 48, 127
2, 54600, Note_on_c, 1, 70, 127
2, 54600, Note_on_c, 1, 76, 127
2, 54960, Note_off_c, 1, 36, 0
2, 54960, Note_off_c, 1, 48, 0
2, 54960, Note_off_c, 1, 70, 0
2, 54960, Note_off_c, 1, 76, 0
2, 55000, Note_on_c, 1, 38, 127
2, 55000, Note_on_c, 1, 50, 127
2, 55000, Note_on_c, 1, 65, 127
2, 55000, Note_on_c, 1, 69, 127
2, 55000, Note_on_c, 1, 72, 127
2, 55120, Note_off_c, 1, 65, 0
2, 55160, Note_on_c, 1, 66, 127
2, 55320, Note_off_c, 1, 38, 0
2, 55320, Note_off_c, 1, 50, 0
2, 55320, Note_off_c, 1, 66, 0
2, 55320, Note_off_c, 1, 69, 0
2, 55320, Note_off_c, 1, 72, 0
2, 55360, Note_on_c, 1, 44, 127
2, 55360, Note_on_c, 1, 66, 127
2, 55360, Note_on_c, 1, 73, 127
2, 55680, Note_off_c, 1, 44, 0
2, 55680, Note_off_c, 1, 66, 0
2, 55720, Note_off_c, 1, 73, 0
2, 55760, Note_on_c, 1, 44, 127
2, 55760, Note_on_c, 1, 66, 127
2, 55760, Note_on_c, 1, 73, 127
2, 56120, Note_off_c, 1, 44, 0
2, 56120, Note_on_c, 1, 49, 127
2, 56120, Note_off_c, 1, 66, 0
2, 56160, Note_on_c, 1, 44, 127
2, 56160, Note_off_c, 1, 49, 0
2, 56160, Note_on_c, 1, 66, 127
2, 56480, Note_off_c, 1, 44, 0
2, 56480, Note_off_c, 1, 66, 0
2, 56480, Note_off_c, 1, 73, 0
2, 56520, Note_on_c, 1, 52, 127
2, 56520, Note_on_c, 1, 68, 127
2, 56520, Note_on_c, 1, 72, 127
2, 56840, Note_off_c, 1, 52, 0
2, 56840, Note_on_c, 1, 60, 127
2, 56840, Note_off_c, 1, 68, 0
2, 56840, Note_on_c, 1, 69, 127
2, 56840, Note_off_c, 1, 72, 0
2, 56880, Note_off_c, 1, 60, 0
2, 56880, Note_on_c, 1, 61, 127
2, 56880, Note_off_c, 1, 69, 0
2, 56880, Note_on_c, 1, 76, 127
2, 56880, Note_on_c, 1, 82, 127
2, 56880, Note_on_c, 1, 88, 127
2, 57200, Note_on_c, 1, 55, 127
2, 57200, Note_off_c, 1, 61, 0
2, 57200, Note_off_c, 1, 76, 0
2, 57200, Note_off_c, 1, 82, 0
2, 57200, Note_off_c, 1, 88, 0
2, 57240, Note_off_c, 1, 55, 0
2, 57240, Note_on_c, 1, 60, 127
2, 57240, Note_on_c, 1, 62, 127
2, 57240, Note_on_c, 1, 69, 127
2, 57240, Note_on_c, 1, 90, 127
2, 57600, Note_off_c, 1, 60, 0
2, 57600, Note_off_c, 1, 62, 0
2, 57600, Note_off_c, 1, 69, 0
2, 57600, Note_off_c, 1, 90, 0
2, 57640, Note_on_c, 1, 40, 127
2, 57640, Note_on_c, 1, 72, 127
2, 57640, Note_on_c, 1, 79, 127
2, 57640, Note_on_c, 1, 84, 127
2, 57680, Note_off_c, 1, 40, 0
2, 57680, Note_on_c, 1, 52, 127
2, 57720, Note_on_c, 1, 40, 127
2, 57720, Note_off_c, 1, 52, 0
2, 57760, Note_off_c, 1, 40, 0
2, 57760, Note_on_c, 1, 52, 127
2, 57800, Note_on_c, 1, 40, 127
2, 57800, Note_off_c, 1, 52, 0
2, 57960, Note_off_c, 1, 40, 0
2, 57960, Note_off_c, 1, 72, 0
2, 57960, Note_off_c, 1, 79, 0
2, 57960, Note_off_c, 1, 84, 0
2, 58040, Note_on_c, 1, 51, 127
2, 58040, Note_on_c, 1, 53, 127
2, 58040, Note_on_c, 1, 75, 127
2, 58240, Note_off_c, 1, 53, 0
2, 58240, Note_on_c, 1, 55, 127
2, 58360, Note_off_c, 1, 51, 0
2, 58360, Note_off_c, 1, 55, 0
2, 58400, Note_on_c, 1, 42, 127
2, 58400, Note_on_c, 1, 54, 127
2, 58400, Note_on_c, 1, 70, 127
2, 58400, Note_off_c, 1, 75, 0
2, 58400, Note_on_c, 1, 77, 127
2, 58400, Note_on_c, 1, 80, 127
2, 58400, Note_on_c, 1, 82, 127
2, 58560, Note_on_c, 1, 38, 127
2, 58560, Note_off_c, 1, 42, 0
2, 58560, Note_on_c, 1, 50, 127
2, 58560, Note_off_c, 1, 54, 0
2, 58720, Note_off_c, 1, 38, 0
2, 58720, Note_off_c, 1, 50, 0
2, 58720, Note_off_c, 1, 70, 0
2, 58720, Note_off_c, 1, 77, 0
2, 58720, Note_off_c, 1, 80, 0
2, 58720, Note_off_c, 1, 82, 0
2, 58760, Note_on_c, 1, 48, 127
2, 58760, Note_on_c, 1, 55, 127
2, 58760, Note_on_c, 1, 60, 127
2, 58760, Note_on_c, 1, 76, 127
2, 58760, Note_on_c, 1, 79, 127
2, 58760, Note_on_c, 1, 88, 127
2, 59080, Note_off_c, 1, 48, 0
2, 59080, Note_off_c, 1, 55, 0
2, 59080, Note_off_c, 1, 60, 0
2, 59080, Note_off_c, 1, 76, 0
2, 59080, Note_off_c, 1, 79, 0
2, 59080, Note_off_c, 1, 88, 0
2, 59120, Note_on_c, 1, 47, 127
2, 59120, Note_on_c, 1, 55, 127
2, 59120, Note_on_c, 1, 59, 127
2, 59120, Note_on_c, 1, 74, 127
2, 59120, Note_on_c, 1, 79, 127
2, 59120, Note_on_c, 1, 86, 127
2, 59840, Note_off_c, 1, 47, 0
2, 59840, Note_off_c, 1, 55, 0
2, 59840, Note_off_c, 1, 59, 0
2, 59840, Note_off_c, 1, 74, 0
2, 59840, Note_off_c, 1, 79, 0
2, 59840, Note_off_c, 1, 86, 0
2, 59880, Note_on_c, 1, 48, 127
2, 59880, Note_on_c, 1, 55, 127
2, 59880, Note_on_c, 1, 60, 127
2, 59880, Note_on_c, 1, 76, 127
2, 59880, Note_on_c, 1, 79, 127
2, 59880, Note_on_c, 1, 88, 127
2, 60240, Note_off_c, 1, 48, 0
2, 60240, Note_off_c, 1, 55, 0
2, 60240, Note_off_c, 1, 60, 0
2, 60240, Note_off_c, 1, 76, 0
2, 60240, Note_off_c, 1, 79, 0
2, 60240, Note_off_c, 1, 88, 0
2, 60320, Note_on_c, 1, 45, 127
2, 60320, Note_on_c, 1, 55, 127
2, 60320, Note_on_c, 1, 57, 127
2, 60320, Note_on_c, 1, 72, 127
2, 60320, Note_on_c, 1, 79, 127
2, 60320, Note_on_c, 1, 84, 127
2, 60640, Note_off_c, 1, 45, 0
2, 60640, Note_off_c, 1, 55, 0
2, 60640, Note_off_c, 1, 57, 0
2, 60640, Note_off_c, 1, 72, 0
2, 60640, Note_off_c, 1, 79, 0
2, 60640, Note_off_c, 1, 84, 0
2, 60680, Note_on_c, 1, 47, 127
2, 60680, Note_on_c, 1, 55, 127
2, 60680, Note_on_c, 1, 59, 127
2, 60680, Note_on_c, 1, 74, 127
2, 60680, Note_on_c, 1, 79, 127
2, 60680, Note_on_c, 1, 86, 127
2, 61000, Note_off_c, 1, 47, 0
2, 61000, Note_off_c, 1, 55, 0
2, 61000, Note_off_c, 1, 59, 0
2, 61000, Note_on_c, 1, 67, 127
2, 61000, Note_on_c, 1, 71, 127
2, 61000, Note_off_c, 1, 74, 0
2, 61000, Note_off_c, 1, 79, 0
2, 61000, Note_off_c, 1, 86, 0
2, 61000, Note_on_c, 1, 88, 127
2, 61040, Note_on_c, 1, 43, 127
2, 61040, Note_on_c, 1, 54, 127
2, 61040, Note_off_c, 1, 67, 0
2, 61040, Note_on_c, 1, 69, 127
2, 61040, Note_off_c, 1, 71, 0
2, 61040, Note_on_c, 1, 72, 127
2, 61040, Note_off_c, 1, 88, 0
2, 61080, Note_on_c, 1, 38, 127
2, 61080, Note_off_c, 1, 43, 0
2, 61080, Note_on_c, 1, 45, 127
2, 61080, Note_off_c, 1, 54, 0
2, 61080, Note_on_c, 1, 64, 127
2, 61080, Note_on_c, 1, 66, 127
2, 61080, Note_off_c, 1, 69, 0
2, 61080, Note_off_c, 1, 72, 0
2, 61080, Note_on_c, 1, 76, 127
2, 61360, Note_off_c, 1, 38, 0
2, 61360, Note_off_c, 1, 45, 0
2, 61360, Note_off_c, 1, 64, 0
2, 61360, Note_off_c, 1, 66, 0
2, 61360, Note_on_c, 1, 67, 127
2, 61360, Note_on_c, 1, 69, 127
2, 61360, Note_on_c, 1, 75, 127
2, 61360, Note_off_c, 1, 76, 0
2, 61360, Note_on_c, 1, 79, 127
2, 61360, Note_on_c, 1, 81, 127
2, 61360, Note_on_c, 1, 87, 127
2, 61400, Note_off_c, 1, 67, 0
2, 61400, Note_off_c, 1, 69, 0
2, 61400, Note_off_c, 1, 75, 0
2, 61400, Note_off_c, 1, 79, 0
2, 61400, Note_off_c, 1, 81, 0
2, 61400, Note_off_c, 1, 87, 0
2, 61440, Note_on_c, 1, 52, 127
2, 61440, Note_on_c, 1, 64, 127
2, 61440, Note_on_c, 1, 68, 127
2, 61440, Note_on_c, 1, 71, 127
2, 61440, Note_on_c, 1, 76, 127
2, 62120, Note_off_c, 1, 52, 0
2, 62160, Note_on_c, 1, 52, 127
2, 62520, Note_off_c, 1, 52, 0
2, 62520, Note_off_c, 1, 64, 0
2, 62520, Note_off_c, 1, 68, 0
2, 62520, Note_off_c, 1, 71, 0
2, 62520, Note_off_c, 1, 76, 0
2, 62600, Note_on_c, 1, 33, 127
2, 62600, Note_on_c, 1, 45, 127
2, 62600, Note_on_c, 1, 57, 127
2, 62600, Note_on_c, 1, 60, 127
2, 62600, Note_on_c, 1, 63, 127
2, 62600, Note_on_c, 1, 64, 127
2, 62640, Note_off_c, 1, 63, 0
2, 62920, Note_off_c, 1, 33, 0
2, 62920, Note_off_c, 1, 45, 0
2, 62920, Note_off_c, 1, 57, 0
2, 62920, Note_off_c, 1, 60, 0
2, 62920, Note_off_c, 1, 64, 0
2, 62960, Note_on_c, 1, 40, 127
2, 62960, Note_on_c, 1, 52, 127
2, 62960, Note_on_c, 1, 71, 127
2, 62960, Note_on_c, 1, 76, 127
2, 62960, Note_on_c, 1, 80, 127
2, 62960, Note_on_c, 1, 83, 127
2, 63320, Note_off_c, 1, 80, 0
2, 63320, Note_off_c, 1, 83, 0
2, 63360, Note_on_c, 1, 80, 127
2, 63360, Note_on_c, 1, 83, 127
2, 63520, Note_on_c, 1, 68, 127
2, 63520, Note_off_c, 1, 80, 0
2, 63520, Note_off_c, 1, 83, 0
2, 63680, Note_off_c, 1, 40, 0
2, 63680, Note_off_c, 1, 52, 0
2, 63680, Note_off_c, 1, 68, 0
2, 63680, Note_off_c, 1, 71, 0
2, 63680, Note_off_c, 1, 76, 0
2, 63720, Note_on_c, 1, 39, 127
2, 63720, Note_on_c, 1, 51, 127
2, 63720, Note_on_c, 1, 76, 127
2, 64440, Note_off_c, 1, 39, 0
2, 64440, Note_off_c, 1, 51, 0
2, 64440, Note_off_c, 1, 76, 0
2, 64480, Note_on_c, 1, 43, 127
2, 64480, Note_on_c, 1, 55, 127
2, 64480, Note_on_c, 1, 71, 127
2, 64480, Note_on_c, 1, 74, 127
2, 64480, Note_on_c, 1, 79, 127
2, 64480, Note_on_c, 1, 83, 127
2, 64800, Note_off_c, 1, 43, 0
2, 64800, Note_off_c, 1, 55, 0
2, 64800, Note_off_c, 1, 71, 0
2, 64800, Note_off_c, 1, 74, 0
2, 64800, Note_off_c, 1, 79, 0
2, 64800, Note_off_c, 1, 83, 0
2, 64880, Note_on_c, 1, 43, 127
2, 64880, Note_on_c, 1, 55, 127
2, 64880, Note_on_c, 1, 71, 127
2, 64880, Note_on_c, 1, 74, 127
2, 64880, Note_on_c, 1, 79, 127
2, 64880, Note_on_c, 1, 83, 127
2, 65200, Note_off_c, 1, 43, 0
2, 65200, Note_off_c, 1, 55, 0
2, 65200, Note_off_c, 1, 71, 0
2, 65200, Note_off_c, 1, 74, 0
2, 65200, Note_off_c, 1, 79, 0
2, 65200, Note_off_c, 1, 83, 0
2, 65240, Note_on_c, 1, 43, 127
2, 65240, Note_on_c, 1, 55, 127
2, 65240, Note_on_c, 1, 71, 127
2, 65240, Note_on_c, 1, 74, 127
2, 65240, Note_on_c, 1, 79, 127
2, 65240, Note_on_c, 1, 83, 127
2, 65600, Note_off_c, 1, 43, 0
2, 65600, Note_off_c, 1, 55, 0
2, 65600, Note_off_c, 1, 71, 0
2, 65600, Note_off_c, 1, 74, 0
2, 65600, Note_off_c, 1, 79, 0
2, 65600, Note_off_c, 1, 83, 0
2, 65640, Note_on_c, 1, 54, 127
2, 65640, Note_on_c, 1, 63, 127
2, 65640, Note_on_c, 1, 84, 127
2, 65640, Note_on_c, 1, 87, 127
2, 65680, Note_off_c, 1, 54, 0
2, 65680, Note_off_c, 1, 63, 0
2, 65680, Note_on_c, 1, 70, 127
2, 65680, Note_on_c, 1, 73, 127
2, 65680, Note_on_c, 1, 79, 127
2, 65680, Note_off_c, 1, 84, 0
2, 65680, Note_off_c, 1, 87, 0
2, 65680, Note_on_c, 1, 89, 127
2, 65720, Note_on_c, 1, 55, 127
2, 65720, Note_on_c, 1, 67, 127
2, 65720, Note_off_c, 1, 73, 0
2, 65720, Note_on_c, 1, 76, 127
2, 65720, Note_off_c, 1, 89, 0
2, 65760, Note_on_c, 1, 52, 127
2, 65760, Note_off_c, 1, 55, 0
2, 65760, Note_on_c, 1, 63, 127
2, 65760, Note_off_c, 1, 67, 0
2, 65760, Note_on_c, 1, 69, 127
2, 65760, Note_off_c, 1, 70, 0
2, 65760, Note_on_c, 1, 72, 127
2, 65760, Note_off_c, 1, 76, 0
2, 65760, Note_on_c, 1, 78, 127
2, 65760, Note_off_c, 1, 79, 0
2, 65800, Note_off_c, 1, 52, 0
2, 65800, Note_on_c, 1, 61, 127
2, 65800, Note_off_c, 1, 63, 0
2, 65800, Note_on_c, 1, 64, 127
2, 65800, Note_on_c, 1, 67, 127
2, 65800, Note_off_c, 1, 69, 0
2, 65800, Note_off_c, 1, 72, 0
2, 65800, Note_off_c, 1, 78, 0
2, 65800, Note_on_c, 1, 79, 127
2, 65800, Note_on_c, 1, 82, 127
2, 65840, Note_on_c, 1, 49, 127
2, 65840, Note_on_c, 1, 56, 127
2, 65840, Note_off_c, 1, 61, 0
2, 65840, Note_on_c, 1, 63, 127
2, 65840, Note_off_c, 1, 64, 0
2, 65840, Note_off_c, 1, 67, 0
2, 65840, Note_on_c, 1, 71, 127
2, 65840, Note_off_c, 1, 79, 0
2, 65840, Note_on_c, 1, 80, 127
2, 65840, Note_off_c, 1, 82, 0
2, 65880, Note_on_c, 1, 30, 127
2, 65880, Note_on_c, 1, 42, 127
2, 65880, Note_off_c, 1, 49, 0
2, 65880, Note_off_c, 1, 56, 0
2, 65880, Note_off_c, 1, 63, 0
2, 65880, Note_off_c, 1, 71, 0
2, 65880, Note_on_c, 1, 89, 127
2, 65880, Note_on_c, 1, 92, 127
2, 65920, Note_off_c, 1, 30, 0
2, 65920, Note_off_c, 1, 42, 0
2, 65920, Note_off_c, 1, 80, 0
2, 65920, Note_off_c, 1, 89, 0
2, 65920, Note_off_c, 1, 92, 0
2, 65960, Note_on_c, 1, 66, 127
2, 65960, Note_on_c, 1, 70, 127
2, 65960, Note_on_c, 1, 89, 127
2, 65960, Note_on_c, 1, 101, 127
2, 65960, Note_on_c, 1, 102, 127
2, 66000, Note_on_c, 1, 39, 127
2, 66000, Note_on_c, 1, 48, 127
2, 66000, Note_on_c, 1, 51, 127
2, 66000, Note_off_c, 1, 66, 0
2, 66000, Note_off_c, 1, 70, 0
2, 66000, Note_on_c, 1, 81, 127
2, 66000, Note_off_c, 1, 89, 0
2, 66000, Note_on_c, 1, 93, 127
2, 66000, Note_off_c, 1, 101, 0
2, 66000, Note_off_c, 1, 102, 0
2, 66040, Note_off_c, 1, 39, 0
2, 66040, Note_on_c, 1, 45, 127
2, 66040, Note_off_c, 1, 48, 0
2, 66040, Note_on_c, 1, 50, 127
2, 66040, Note_off_c, 1, 51, 0
2, 66040, Note_on_c, 1, 56, 127
2, 66040, Note_on_c, 1, 62, 127
2, 66040, Note_off_c, 1, 81, 0
2, 66040, Note_off_c, 1, 93, 0
2, 66080, Note_off_c, 1, 50, 0
2, 66080, Note_off_c, 1, 56, 0
2, 66080, Note_on_c, 1, 86, 127
2, 66120, Note_off_c, 1, 45, 0
2, 66120, Note_on_c, 1, 47, 127
2, 66120, Note_on_c, 1, 54, 127
2, 66120, Note_on_c, 1, 70, 127
2, 66120, Note_off_c, 1, 86, 0
2, 66160, Note_on_c, 1, 45, 127
2, 66160, Note_off_c, 1, 47, 0
2, 66160, Note_off_c, 1, 54, 0
2, 66160, Note_on_c, 1, 57, 127
2, 66160, Note_on_c, 1, 60, 127
2, 66160, Note_off_c, 1, 62, 0
2, 66160, Note_on_c, 1, 63, 127
2, 66160, Note_on_c, 1, 66, 127
2, 66160, Note_off_c, 1, 70, 0
2, 66160, Note_on_c, 1, 72, 127
2, 66200, Note_off_c, 1, 45, 0
2, 66200, Note_off_c, 1, 57, 0
2, 66200, Note_off_c, 1, 63, 0
2, 66200, Note_off_c, 1, 66, 0
2, 66200, Note_on_c, 1, 69, 127
2, 66200, Note_on_c, 1, 78, 127
2, 66200, Note_on_c, 1, 81, 127
2, 66200, Note_on_c, 1, 90, 127
2, 66240, Note_off_c, 1, 60, 0
2, 66240, Note_off_c, 1, 69, 0
2, 66240, Note_off_c, 1, 72, 0
2, 66240, Note_on_c, 1, 73, 127
2, 66240, Note_off_c, 1, 78, 0
2, 66240, Note_off_c, 1, 81, 0
2, 66240, Note_on_c, 1, 85, 127
2, 66240, Note_on_c, 1, 88, 127
2, 66240, Note_off_c, 1, 90, 0
2, 66240, Note_on_c, 1, 93, 127
2, 66240, Note_on_c, 1, 97, 127
2, 66280, Note_off_c, 1, 73, 0
2, 66280, Note_off_c, 1, 85, 0
2, 66280, Note_off_c, 1, 88, 0
2, 66280, Note_off_c, 1, 93, 0
2, 66280, Note_off_c, 1, 97, 0
2, 66320, Note_on_c, 1, 38, 127
2, 66320, Note_on_c, 1, 50, 127
2, 66320, Note_on_c, 1, 69, 127
2, 66320, Note_on_c, 1, 74, 127
2, 66320, Note_on_c, 1, 81, 127
2, 66680, Note_off_c, 1, 38, 0
2, 66680, Note_off_c, 1, 50, 0
2, 66720, Note_on_c, 1, 38, 127
2, 66720, Note_on_c, 1, 50, 127
2, 66720, Note_on_c, 1, 62, 127
2, 66720, Note_on_c, 1, 66, 127
2, 66720, Note_off_c, 1, 74, 0
2, 66720, Note_off_c, 1, 81, 0
2, 66920, Note_off_c, 1, 38, 0
2, 66920, Note_off_c, 1, 50, 0
2, 66920, Note_off_c, 1, 62, 0
2, 66920, Note_off_c, 1, 66, 0
2, 66920, Note_off_c, 1, 69, 0
2, 66960, Note_on_c, 1, 38, 127
2, 66960, Note_on_c, 1, 50, 127
2, 66960, Note_on_c, 1, 62, 127
2, 66960, Note_on_c, 1, 66, 127
2, 66960, Note_on_c, 1, 69, 127
2, 67080, Note_off_c, 1, 38, 0
2, 67080, Note_off_c, 1, 50, 0
2, 67080, Note_off_c, 1, 62, 0
2, 67080, Note_off_c, 1, 66, 0
2, 67080, Note_off_c, 1, 69, 0
2, 67120, Note_on_c, 1, 38, 127
2, 67120, Note_on_c, 1, 50, 127
2, 67120, Note_on_c, 1, 57, 127
2, 67120, Note_on_c, 1, 66, 127
2, 67120, Note_on_c, 1, 69, 127
2, 67800, Note_off_c, 1, 38, 0
2, 67800, Note_off_c, 1, 50, 0
2, 67800, Note_off_c, 1, 57, 0
2, 67800, Note_off_c, 1, 66, 0
2, 67800, Note_off_c, 1, 69, 0
2, 67840, Note_on_c, 1, 37, 127
2, 67840, Note_on_c, 1, 49, 127
2, 67840, Note_on_c, 1, 61, 127
2, 67840, Note_on_c, 1, 68, 127
2, 67840, Note_on_c, 1, 73, 127
2, 67880, Note_on_c, 1, 34, 127
2, 67880, Note_off_c, 1, 37, 0
2, 67880, Note_on_c, 1, 46, 127
2, 67880, Note_off_c, 1, 49, 0
2, 68160, Note_off_c, 1, 34, 0
2, 68160, Note_off_c, 1, 46, 0
2, 68160, Note_off_c, 1, 61, 0
2, 68160, Note_off_c, 1, 68, 0
2, 68160, Note_off_c, 1, 73, 0
2, 68200, Note_on_c, 1, 40, 127
2, 68200, Note_on_c, 1, 52, 127
2, 68200, Note_on_c, 1, 64, 127
2, 68200, Note_on_c, 1, 68, 127
2, 68480, Note_on_c, 1, 59, 127
2, 68480, Note_off_c, 1, 64, 0
2, 68520, Note_off_c, 1, 59, 0
2, 68520, Note_on_c, 1, 64, 127
2, 68560, Note_off_c, 1, 40, 0
2, 68560, Note_off_c, 1, 52, 0
2, 68560, Note_off_c, 1, 64, 0
2, 68560, Note_off_c, 1, 68, 0
2, 68600, Note_on_c, 1, 35, 127
2, 68600, Note_on_c, 1, 47, 127
2, 68600, Note_on_c, 1, 63, 127
2, 68600, Note_on_c, 1, 66, 127
2, 69080, Note_off_c, 1, 35, 0
2, 69080, Note_off_c, 1, 47, 0
2, 69080, Note_off_c, 1, 63, 0
2, 69080, Note_off_c, 1, 66, 0
2, 69120, Note_on_c, 1, 35, 127
2, 69120, Note_on_c, 1, 47, 127
2, 69120, Note_on_c, 1, 63, 127
2, 69120, Note_on_c, 1, 66, 127
2, 69320, Note_off_c, 1, 35, 0
2, 69320, Note_off_c, 1, 47, 0
2, 69320, Note_off_c, 1, 63, 0
2, 69320, Note_off_c, 1, 66, 0
2, 69360, Note_on_c, 1, 55, 127
2, 69360, Note_on_c, 1, 57, 127
2, 69360, Note_on_c, 1, 61, 127
2, 69360, Note_on_c, 1, 64, 127
2, 69360, Note_on_c, 1, 69, 127
2, 69360, Note_on_c, 1, 76, 127
2, 69680, Note_on_c, 1, 52, 127
2, 69680, Note_off_c, 1, 55, 0
2, 69680, Note_off_c, 1, 57, 0
2, 69680, Note_off_c, 1, 61, 0
2, 69680, Note_off_c, 1, 64, 0
2, 69680, Note_on_c, 1, 66, 127
2, 69680, Note_off_c, 1, 69, 0
2, 69680, Note_on_c, 1, 74, 127
2, 69680, Note_off_c, 1, 76, 0
2, 69680, Note_on_c, 1, 81, 127
2, 69720, Note_off_c, 1, 52, 0
2, 69720, Note_off_c, 1, 66, 0
2, 69720, Note_off_c, 1, 74, 0
2, 69720, Note_off_c, 1, 81, 0
2, 69760, Note_on_c, 1, 37, 127
2, 69760, Note_on_c, 1, 44, 127
2, 69760, Note_on_c, 1, 63, 127
2, 69760, Note_on_c, 1, 68, 127
2, 70080, Note_off_c, 1, 44, 0
2, 70080, Note_on_c, 1, 49, 127
2, 70080, Note_off_c, 1, 63, 0
2, 70080, Note_off_c, 1, 68, 0
2, 70120, Note_off_c, 1, 49, 0
2, 70120, Note_on_c, 1, 58, 127
2, 70120, Note_on_c, 1, 63, 127
2, 70120, Note_on_c, 1, 66, 127
2, 70280, Note_on_c, 1, 73, 127
2, 70320, Note_off_c, 1, 73, 0
2, 70360, Note_on_c, 1, 49, 127
2, 70360, Note_on_c, 1, 56, 127
2, 70360, Note_off_c, 1, 58, 0
2, 70360, Note_off_c, 1, 63, 0
2, 70400, Note_off_c, 1, 49, 0
2, 70400, Note_off_c, 1, 56, 0
2, 70400, Note_on_c, 1, 58, 127
2, 70400, Note_on_c, 1, 63, 127
2, 70440, Note_off_c, 1, 37, 0
2, 70440, Note_off_c, 1, 58, 0
2, 70440, Note_off_c, 1, 63, 0
2, 70440, Note_off_c, 1, 66, 0
2, 70480, Note_on_c, 1, 30, 127
2, 70480, Note_on_c, 1, 42, 127
2, 70480, Note_on_c, 1, 68, 127
2, 70480, Note_on_c, 1, 71, 127
2, 70720, Note_off_c, 1, 68, 0
2, 70760, Note_on_c, 1, 66, 127
2, 70840, Note_off_c, 1, 30, 0
2, 70840, Note_off_c, 1, 42, 0
2, 70840, Note_off_c, 1, 66, 0
2, 70840, Note_off_c, 1, 71, 0
2, 70880, Note_on_c, 1, 31, 127
2, 70880, Note_on_c, 1, 43, 127
2, 70880, Note_on_c, 1, 69, 127
2, 70880, Note_on_c, 1, 72, 127
2, 71000, Note_off_c, 1, 69, 0
2, 71040, Note_on_c, 1, 69, 127
2, 71120, Note_off_c, 1, 31, 0
2, 71120, Note_off_c, 1, 43, 0
2, 71120, Note_off_c, 1, 69, 0
2, 71120, Note_off_c, 1, 72, 0
2, 71160, Note_on_c, 1, 31, 127
2, 71160, Note_on_c, 1, 43, 127
2, 71160, Note_on_c, 1, 67, 127
2, 71160, Note_on_c, 1, 72, 127
2, 71240, Note_off_c, 1, 31, 0
2, 71240, Note_off_c, 1, 43, 0
2, 71240, Note_off_c, 1, 67, 0
2, 71240, Note_off_c, 1, 72, 0
2, 71280, Note_on_c, 1, 33, 127
2, 71280, Note_on_c, 1, 45, 127
2, 71280, Note_on_c, 1, 77, 127
2, 71480, Note_on_c, 1, 69, 127
2, 71600, Note_off_c, 1, 33, 0
2, 71600, Note_off_c, 1, 45, 0
2, 71600, Note_off_c, 1, 69, 0
2, 71600, Note_off_c, 1, 77, 0
2, 71640, Note_on_c, 1, 33, 127
2, 71640, Note_on_c, 1, 45, 127
2, 71640, Note_on_c, 1, 60, 127
2, 71640, Note_on_c, 1, 67, 127
2, 71640, Note_on_c, 1, 72, 127
2, 71960, Note_off_c, 1, 33, 0
2, 71960, Note_off_c, 1, 45, 0
2, 71960, Note_off_c, 1, 60, 0
2, 71960, Note_off_c, 1, 67, 0
2, 71960, Note_off_c, 1, 72, 0
2, 72000, Note_on_c, 1, 35, 127
2, 72000, Note_on_c, 1, 47, 127
2, 72000, Note_on_c, 1, 56, 127
2, 72000, Note_on_c, 1, 68, 127
2, 72320, Note_off_c, 1, 35, 0
2, 72320, Note_off_c, 1, 47, 0
2, 72320, Note_off_c, 1, 56, 0
2, 72320, Note_off_c, 1, 68, 0
2, 72360, Note_on_c, 1, 44, 127
2, 72360, Note_on_c, 1, 56, 127
2, 72360, Note_on_c, 1, 64, 127
2, 72720, Note_off_c, 1, 44, 0
2, 72720, Note_off_c, 1, 56, 0
2, 72720, Note_off_c, 1, 64, 0
2, 72760, Note_on_c, 1, 39, 127
2, 72760, Note_on_c, 1, 51, 127
2, 72760, Note_on_c, 1, 66, 127
2, 72760, Note_on_c, 1, 70, 127
2, 72760, Note_on_c, 1, 78, 127
2, 73080, Note_off_c, 1, 39, 0
2, 73080, Note_off_c, 1, 51, 0
2, 73080, Note_off_c, 1, 70, 0
2, 73080, Note_off_c, 1, 78, 0
2, 73120, Note_off_c, 1, 66, 0
2, 73160, Note_on_c, 1, 39, 127
2, 73160, Note_on_c, 1, 51, 127
2, 73160, Note_on_c, 1, 66, 127
2, 73160, Note_on_c, 1, 70, 127
2, 73160, Note_on_c, 1, 78, 127
2, 73360, Note_on_c, 1, 73, 127
2, 73360, Note_off_c, 1, 78, 0
2, 73400, Note_off_c, 1, 73, 0
2, 73400, Note_on_c, 1, 78, 127
2, 73480, Note_off_c, 1, 39, 0
2, 73480, Note_off_c, 1, 51, 0
2, 73480, Note_off_c, 1, 66, 0
2, 73480, Note_off_c, 1, 70, 0
2, 73480, Note_off_c, 1, 78, 0
2, 73520, Note_on_c, 1, 44, 127
2, 73520, Note_on_c, 1, 66, 127
2, 73520, Note_on_c, 1, 72, 127
2, 73520, Note_on_c, 1, 77, 127
2, 73840, Note_off_c, 1, 44, 0
2, 73840, Note_off_c, 1, 66, 0
2, 73840, Note_off_c, 1, 72, 0
2, 73840, Note_off_c, 1, 77, 0
2, 73880, Note_on_c, 1, 46, 127
2, 73880, Note_on_c, 1, 58, 127
2, 73880, Note_on_c, 1, 65, 127
2, 73880, Note_on_c, 1, 70, 127
2, 73880, Note_on_c, 1, 74, 127
2, 74200, Note_off_c, 1, 65, 0
2, 74200, Note_on_c, 1, 66, 127
2, 74200, Note_off_c, 1, 70, 0
2, 74200, Note_off_c, 1, 74, 0
2, 74240, Note_off_c, 1, 46, 0
2, 74240, Note_off_c, 1, 58, 0
2, 74240, Note_off_c, 1, 66, 0
2, 74280, Note_on_c, 1, 46, 127
2, 74280, Note_on_c, 1, 58, 127
2, 74280, Note_on_c, 1, 65, 127
2, 74280, Note_on_c, 1, 70, 127
2, 74280, Note_on_c, 1, 74, 127
2, 74600, Note_off_c, 1, 46, 0
2, 74600, Note_off_c, 1, 58, 0
2, 74600, Note_off_c, 1, 65, 0
2, 74600, Note_off_c, 1, 70, 0
2, 74600, Note_off_c, 1, 74, 0
2, 74640, Note_on_c, 1, 39, 127
2, 74640, Note_on_c, 1, 51, 127
2, 74640, Note_on_c, 1, 60, 127
2, 74640, Note_on_c, 1, 65, 127
2, 74640, Note_on_c, 1, 68, 127
2, 74960, Note_off_c, 1, 60, 0
2, 74960, Note_off_c, 1, 65, 0
2, 74960, Note_off_c, 1, 68, 0
2, 75000, Note_off_c, 1, 39, 0
2, 75000, Note_off_c, 1, 51, 0
2, 75000, Note_on_c, 1, 64, 127
2, 75000, Note_on_c, 1, 67, 127
2, 75000, Note_on_c, 1, 73, 127
2, 75000, Note_on_c, 1, 82, 127
2, 75000, Note_on_c, 1, 85, 127
2, 75000, Note_on_c, 1, 94, 127
2, 75040, Note_off_c, 1, 64, 0
2, 75040, Note_off_c, 1, 67, 0
2, 75040, Note_off_c, 1, 73, 0
2, 75040, Note_off_c, 1, 82, 0
2, 75040, Note_off_c, 1, 85, 0
2, 75040, Note_off_c, 1, 94, 0
2, 75080, Note_on_c, 1, 38, 127
2, 75080, Note_on_c, 1, 43, 127
2, 75080, Note_on_c, 1, 50, 127
2, 75080, Note_on_c, 1, 55, 127
2, 75080, Note_on_c, 1, 66, 127
2, 75120, Note_off_c, 1, 38, 0
2, 75120, Note_off_c, 1, 43, 0
2, 75120, Note_off_c, 1, 50, 0
2, 75120, Note_off_c, 1, 55, 0
2, 75120, Note_on_c, 1, 61, 127
2, 75120, Note_on_c, 1, 69, 127
2, 75120, Note_on_c, 1, 73, 127
2, 75120, Note_on_c, 1, 83, 127
2, 75160, Note_off_c, 1, 61, 0
2, 75160, Note_on_c, 1, 64, 127
2, 75160, Note_off_c, 1, 66, 0
2, 75160, Note_off_c, 1, 69, 0
2, 75160, Note_off_c, 1, 73, 0
2, 75160, Note_on_c, 1, 81, 127
2, 75160, Note_off_c, 1, 83, 0
2, 75160, Note_on_c, 1, 84, 127
2, 75160, Note_on_c, 1, 88, 127
2, 75160, Note_on_c, 1, 93, 127
2, 75200, Note_on_c, 1, 61, 127
2, 75200, Note_off_c, 1, 64, 0
2, 75200, Note_on_c, 1, 66, 127
2, 75200, Note_on_c, 1, 69, 127
2, 75200, Note_on_c, 1, 73, 127
2, 75200, Note_off_c, 1, 81, 0
2, 75200, Note_on_c, 1, 83, 127
2, 75200, Note_off_c, 1, 84, 0
2, 75200, Note_off_c, 1, 88, 0
2, 75200, Note_off_c, 1, 93, 0
2, 75360, Note_off_c, 1, 61, 0
2, 75360, Note_off_c, 1, 66, 0
2, 75360, Note_off_c, 1, 69, 0
2, 75360, Note_off_c, 1, 73, 0
2, 75360, Note_off_c, 1, 83, 0
2, 75400, Note_on_c, 1, 42, 127
2, 75400, Note_on_c, 1, 54, 127
2, 75400, Note_on_c, 1, 57, 127
2, 75400, Note_on_c, 1, 61, 127
2, 75400, Note_on_c, 1, 66, 127
2, 76120, Note_off_c, 1, 42, 0
2, 76120, Note_off_c, 1, 54, 0
2, 76120, Note_off_c, 1, 57, 0
2, 76120, Note_off_c, 1, 61, 0
2, 76120, Note_off_c, 1, 66, 0
2, 76160, Note_on_c, 1, 37, 127
2, 76160, Note_on_c, 1, 78, 127
2, 76160, Note_on_c, 1, 82, 127
2, 76160, Note_on_c, 1, 90, 127
2, 76840, Note_off_c, 1, 37, 0
2, 76840, Note_on_c, 1, 42, 127
2, 76840, Note_on_c, 1, 49, 127
2, 76840, Note_on_c, 1, 54, 127
2, 76840, Note_off_c, 1, 78, 0
2, 76840, Note_off_c, 1, 82, 0
2, 76840, Note_off_c, 1, 90, 0
2, 76880, Note_on_c, 1, 37, 127
2, 76880, Note_off_c, 1, 42, 0
2, 76880, Note_off_c, 1, 49, 0
2, 76880, Note_off_c, 1, 54, 0
2, 76880, Note_on_c, 1, 78, 127
2, 76880, Note_on_c, 1, 82, 127
2, 76880, Note_on_c, 1, 90, 127
2, 77240, Note_off_c, 1, 37, 0
2, 77240, Note_off_c, 1, 78, 0
2, 77240, Note_off_c, 1, 82, 0
2, 77240, Note_off_c, 1, 90, 0
2, 77320, Note_on_c, 1, 42, 127
2, 77320, Note_on_c, 1, 54, 127
2, 77320, Note_on_c, 1, 61, 127
2, 77320, Note_on_c, 1, 66, 127
2, 77320, Note_on_c, 1, 70, 127
2, 77640, Note_off_c, 1, 42, 0
2, 77640, Note_off_c, 1, 54, 0
2, 77640, Note_off_c, 1, 61, 0
2, 77640, Note_off_c, 1, 66, 0
2, 77640, Note_off_c, 1, 70, 0
2, 77680, Note_on_c, 1, 42, 127
2, 77680, Note_on_c, 1, 54, 127
2, 77680, Note_on_c, 1, 69, 127
2, 77680, Note_on_c, 1, 74, 127
2, 77680, Note_on_c, 1, 81, 127
2, 78040, Note_off_c, 1, 42, 0
2, 78040, Note_off_c, 1, 54, 0
2, 78040, Note_off_c, 1, 69, 0
2, 78040, Note_off_c, 1, 74, 0
2, 78040, Note_off_c, 1, 81, 0
2, 78080, Note_on_c, 1, 42, 127
2, 78080, Note_on_c, 1, 54, 127
2, 78080, Note_on_c, 1, 69, 127
2, 78080, Note_on_c, 1, 74, 127
2, 78080, Note_on_c, 1, 81, 127
2, 78400, Note_off_c, 1, 42, 0
2, 78400, Note_off_c, 1, 54, 0
2, 78400, Note_off_c, 1, 69, 0
2, 78400, Note_off_c, 1, 74, 0
2, 78400, Note_off_c, 1, 81, 0
2, 78440, Note_on_c, 1, 64, 127
2, 78440, Note_on_c, 1, 71, 127
2, 78440, Note_on_c, 1, 83, 127
2, 78440, Note_on_c, 1, 90, 127
2, 78480, Note_on_c, 1, 32, 127
2, 78480, Note_on_c, 1, 44, 127
2, 78480, Note_off_c, 1, 64, 0
2, 78480, Note_off_c, 1, 71, 0
2, 78480, Note_on_c, 1, 78, 127
2, 78480, Note_off_c, 1, 83, 0
2, 78480, Note_on_c, 1, 84, 127
2, 78480, Note_on_c, 1, 87, 127
2, 78680, Note_off_c, 1, 32, 0
2, 78680, Note_on_c, 1, 56, 127
2, 78720, Note_off_c, 1, 44, 0
2, 78720, Note_off_c, 1, 56, 0
2, 78800, Note_on_c, 1, 39, 127
2, 78800, Note_on_c, 1, 51, 127
2, 78800, Note_on_c, 1, 60, 127
2, 78800, Note_on_c, 1, 68, 127
2, 78800, Note_off_c, 1, 78, 0
2, 78800, Note_off_c, 1, 84, 0
2, 78800, Note_off_c, 1, 87, 0
2, 78800, Note_off_c, 1, 90, 0
2, 79160, Note_off_c, 1, 39, 0
2, 79160, Note_off_c, 1, 51, 0
2, 79160, Note_off_c, 1, 60, 0
2, 79160, Note_off_c, 1, 68, 0
2, 79240, Note_on_c, 1, 41, 127
2, 79240, Note_on_c, 1, 53, 127
2, 79240, Note_on_c, 1, 68, 127
2, 79240, Note_on_c, 1, 73, 127
2, 79360, Note_off_c, 1, 68, 0
2, 79400, Note_on_c, 1, 61, 127
2, 79560, Note_off_c, 1, 41, 0
2, 79560, Note_off_c, 1, 53, 0
2, 79560, Note_off_c, 1, 61, 0
2, 79560, Note_off_c, 1, 73, 0
2, 79600, Note_on_c, 1, 52, 127
2, 79600, Note_on_c, 1, 55, 127
2, 79600, Note_on_c, 1, 60, 127
2, 79600, Note_on_c, 1, 64, 127
2, 79600, Note_on_c, 1, 72, 127
2, 79600, Note_on_c, 1, 76, 127
2, 79600, Note_on_c, 1, 79, 127
2, 79600, Note_on_c, 1, 84, 127
2, 79920, Note_off_c, 1, 52, 0
2, 79920, Note_off_c, 1, 55, 0
2, 79920, Note_off_c, 1, 60, 0
2, 79920, Note_off_c, 1, 64, 0
2, 79920, Note_off_c, 1, 72, 0
2, 79920, Note_off_c, 1, 76, 0
2, 79920, Note_off_c, 1, 79, 0
2, 79920, Note_off_c, 1, 84, 0
2, 79960, Note_on_c, 1, 32, 127
2, 79960, Note_on_c, 1, 44, 127
2, 79960, Note_on_c, 1, 51, 127
2, 79960, Note_on_c, 1, 55, 127
2, 79960, Note_on_c, 1, 58, 127
2, 80000, Note_off_c, 1, 55, 0
2, 80000, Note_on_c, 1, 56, 127
2, 80000, Note_off_c, 1, 58, 0
2, 80000, Note_on_c, 1, 60, 127
2, 80320, Note_off_c, 1, 32, 0
2, 80320, Note_off_c, 1, 44, 0
2, 80320, Note_off_c, 1, 51, 0
2, 80320, Note_off_c, 1, 56, 0
2, 80320, Note_off_c, 1, 60, 0
2, 80360, Note_on_c, 1, 60, 127
2, 80360, Note_on_c, 1, 70, 127
2, 80360, Note_on_c, 1, 73, 127
2, 80400, Note_off_c, 1, 60, 0
2, 80400, Note_on_c, 1, 61, 127
2, 80400, Note_off_c, 1, 70, 0
2, 80400, Note_on_c, 1, 78, 127
2, 80520, Note_on_c, 1, 42, 127
2, 80520, Note_off_c, 1, 61, 0
2, 80520, Note_on_c, 1, 70, 127
2, 80520, Note_off_c, 1, 78, 0
2, 80560, Note_off_c, 1, 42, 0
2, 80560, Note_on_c, 1, 61, 127
2, 80560, Note_off_c, 1, 70, 0
2, 80560, Note_on_c, 1, 78, 127
2, 80680, Note_off_c, 1, 73, 0
2, 80720, Note_on_c, 1, 54, 127
2, 80720, Note_off_c, 1, 61, 0
2, 80720, Note_on_c, 1, 71, 127
2, 81040, Note_off_c, 1, 54, 0
2, 81040, Note_off_c, 1, 71, 0
2, 81040, Note_off_c, 1, 78, 0
2, 81080, Note_on_c, 1, 63, 127
2, 81080, Note_on_c, 1, 79, 127
2, 81080, Note_on_c, 1, 82, 127
2, 81240, Note_off_c, 1, 63, 0
2, 81280, Note_on_c, 1, 46, 127
2, 81360, Note_off_c, 1, 46, 0
2, 81360, Note_on_c, 1, 52, 127
2, 81360, Note_on_c, 1, 81, 127
2, 81360, Note_off_c, 1, 82, 0
2, 81400, Note_off_c, 1, 52, 0
2, 81400, Note_off_c, 1, 79, 0
2, 81400, Note_off_c, 1, 81, 0
2, 81440, Note_on_c, 1, 79, 127
2, 81440, Note_on_c, 1, 82, 127
2, 81480, Note_off_c, 1, 79, 0
2, 81480, Note_off_c, 1, 82, 0
2, 81520, Note_on_c, 1, 51, 127
2, 81520, Note_on_c, 1, 77, 127
2, 81520, Note_on_c, 1, 80, 127
2, 81640, Note_off_c, 1, 51, 0
2, 81680, Note_on_c, 1, 53, 127
2, 81840, Note_off_c, 1, 53, 0
2, 81840, Note_off_c, 1, 77, 0
2, 81840, Note_off_c, 1, 80, 0
2, 81880, Note_on_c, 1, 49, 127
2, 81880, Note_on_c, 1, 75, 127
2, 81880, Note_on_c, 1, 78, 127
2, 82040, Note_off_c, 1, 49, 0
2, 82080, Note_on_c, 1, 51, 127
2, 82200, Note_off_c, 1, 51, 0
2, 82200, Note_off_c, 1, 75, 0
2, 82200, Note_off_c, 1, 78, 0
2, 82240, Note_on_c, 1, 58, 127
2, 82240, Note_on_c, 1, 74, 127
2, 82240, Note_on_c, 1, 77, 127
2, 82400, Note_off_c, 1, 58, 0
2, 82440, Note_on_c, 1, 58, 127
2, 82440, Note_off_c, 1, 77, 0
2, 82440, Note_on_c, 1, 80, 127
2, 82560, Note_off_c, 1, 58, 0
2, 82560, Note_off_c, 1, 74, 0
2, 82560, Note_off_c, 1, 80, 0
2, 82600, Note_on_c, 1, 46, 127
2, 82600, Note_on_c, 1, 72, 127
2, 82600, Note_on_c, 1, 75, 127
2, 82760, Note_off_c, 1, 46, 0
2, 82800, Note_on_c, 1, 58, 127
2, 82920, Note_off_c, 1, 58, 0
2, 82920, Note_off_c, 1, 72, 0
2, 82920, Note_off_c, 1, 75, 0
2, 82960, Note_on_c, 1, 57, 127
2, 82960, Note_on_c, 1, 84, 127
2, 82960, Note_on_c, 1, 87, 127
2, 83120, Note_off_c, 1, 84, 0
2, 83120, Note_off_c, 1, 87, 0
2, 83160, Note_on_c, 1, 84, 127
2, 83160, Note_on_c, 1, 87, 127
2, 83280, Note_off_c, 1, 84, 0
2, 83280, Note_off_c, 1, 87, 0
2, 83320, Note_on_c, 1, 84, 127
2, 83320, Note_on_c, 1, 87, 127
2, 83480, Note_off_c, 1, 84, 0
2, 83480, Note_off_c, 1, 87, 0
2, 83520, Note_on_c, 1, 78, 127
2, 83520, Note_on_c, 1, 81, 127
2, 83680, Note_off_c, 1, 57, 0
2, 83680, Note_off_c, 1, 78, 0
2, 83680, Note_off_c, 1, 81, 0
2, 83720, Note_on_c, 1, 43, 127
2, 83720, Note_on_c, 1, 55, 127
2, 83720, Note_on_c, 1, 70, 127
2, 83720, Note_on_c, 1, 74, 127
2, 83720, Note_on_c, 1, 76, 127
2, 83720, Note_on_c, 1, 82, 127
2, 83760, Note_off_c, 1, 43, 0
2, 83760, Note_off_c, 1, 55, 0
2, 83760, Note_off_c, 1, 70, 0
2, 83760, Note_off_c, 1, 74, 0
2, 83760, Note_off_c, 1, 76, 0
2, 83760, Note_off_c, 1, 82, 0
2, 83800, Note_on_c, 1, 43, 127
2, 83800, Note_on_c, 1, 55, 127
2, 83800, Note_on_c, 1, 67, 127
2, 83800, Note_on_c, 1, 74, 127
2, 83800, Note_on_c, 1, 76, 127
2, 83800, Note_on_c, 1, 79, 127
2, 83880, Note_off_c, 1, 43, 0
2, 83880, Note_on_c, 1, 48, 127
2, 83880, Note_off_c, 1, 55, 0
2, 83880, Note_off_c, 1, 67, 0
2, 83880, Note_off_c, 1, 74, 0
2, 83880, Note_off_c, 1, 76, 0
2, 83880, Note_on_c, 1, 78, 127
2, 83880, Note_off_c, 1, 79, 0
2, 83880, Note_on_c, 1, 81, 127
2, 83880, Note_on_c, 1, 87, 127
2, 83880, Note_on_c, 1, 90, 127
2, 83920, Note_off_c, 1, 48, 0
2, 83960, Note_on_c, 1, 58, 127
2, 83960, Note_on_c, 1, 61, 127
2, 83960, Note_on_c, 1, 67, 127
2, 83960, Note_off_c, 1, 78, 0
2, 83960, Note_on_c, 1, 79, 127
2, 83960, Note_off_c, 1, 81, 0
2, 83960, Note_off_c, 1, 87, 0
2, 83960, Note_off_c, 1, 90, 0
2, 83960, Note_on_c, 1, 91, 127
2, 84080, Note_off_c, 1, 58, 0
2, 84080, Note_off_c, 1, 61, 0
2, 84080, Note_off_c, 1, 67, 0
2, 84080, Note_off_c, 1, 79, 0
2, 84080, Note_off_c, 1, 91, 0
2, 84120, Note_on_c, 1, 55, 127
2, 84120, Note_on_c, 1, 91, 127
2, 84120, Note_on_c, 1, 103, 127
2, 84280, Note_off_c, 1, 55, 0
2, 84280, Note_on_c, 1, 90, 127
2, 84280, Note_off_c, 1, 91, 0
2, 84280, Note_off_c, 1, 103, 0
2, 84320, Note_on_c, 1, 68, 127
2, 84320, Note_on_c, 1, 85, 127
2, 84320, Note_off_c, 1, 90, 0
2, 84320, Note_on_c, 1, 97, 127
2, 84440, Note_off_c, 1, 68, 0
2, 84480, Note_on_c, 1, 46, 127
2, 84480, Note_on_c, 1, 55, 127
2, 84480, Note_on_c, 1, 58, 127
2, 84480, Note_on_c, 1, 63, 127
2, 84480, Note_on_c, 1, 70, 127
2, 84480, Note_off_c, 1, 85, 0
2, 84480, Note_off_c, 1, 97, 0
2, 84840, Note_off_c, 1, 46, 0
2, 84840, Note_off_c, 1, 55, 0
2, 84840, Note_off_c, 1, 58, 0
2, 84840, Note_off_c, 1, 63, 0
2, 84840, Note_off_c, 1, 70, 0
2, 84880, Note_on_c, 1, 44, 127
2, 84880, Note_on_c, 1, 56, 127
2, 84880, Note_on_c, 1, 80, 127
2, 84880, Note_on_c, 1, 84, 127
2, 84920, Note_off_c, 1, 44, 0
2, 84920, Note_on_c, 1, 51, 127
2, 84920, Note_off_c, 1, 56, 0
2, 84920, Note_on_c, 1, 83, 127
2, 84920, Note_off_c, 1, 84, 0
2, 84920, Note_on_c, 1, 87, 127
2, 84920, Note_on_c, 1, 92, 127
2, 85040, Note_on_c, 1, 47, 127
2, 85040, Note_off_c, 1, 51, 0
2, 85200, Note_off_c, 1, 47, 0
2, 85200, Note_off_c, 1, 80, 0
2, 85200, Note_off_c, 1, 83, 0
2, 85200, Note_off_c, 1, 87, 0
2, 85200, Note_off_c, 1, 92, 0
2, 85240, Note_on_c, 1, 36, 127
2, 85240, Note_on_c, 1, 39, 127
2, 85240, Note_on_c, 1, 48, 127
2, 85240, Note_on_c, 1, 60, 127
2, 85600, Note_off_c, 1, 36, 0
2, 85600, Note_off_c, 1, 39, 0
2, 85600, Note_off_c, 1, 48, 0
2, 85600, Note_off_c, 1, 60, 0
2, 85640, Note_on_c, 1, 50, 127
2, 85640, Note_on_c, 1, 53, 127
2, 85640, Note_on_c, 1, 60, 127
2, 85640, Note_on_c, 1, 68, 127
2, 86040, Note_off_c, 1, 50, 0
2, 86040, Note_off_c, 1, 53, 0
2, 86040, Note_off_c, 1, 60, 0
2, 86040, Note_off_c, 1, 68, 0
2, 86080, Note_on_c, 1, 50, 127
2, 86080, Note_on_c, 1, 53, 127
2, 86080, Note_on_c, 1, 60, 127
2, 86080, Note_on_c, 1, 68, 127
2, 87160, Note_off_c, 1, 50, 0
2, 87160, Note_off_c, 1, 53, 0
2, 87160, Note_off_c, 1, 60, 0
2, 87160, Note_off_c, 1, 68, 0
2, 87200, Note_on_c, 1, 55, 127
2, 87280, Note_on_c, 1, 60, 127
2, 87560, Note_off_c, 1, 60, 0
2, 87600, Note_on_c, 1, 60, 127
2, 87600, Note_on_c, 1, 63, 127
2, 87920, Note_off_c, 1, 55, 0
2, 87960, Note_on_c, 1, 51, 127
2, 87960, Note_on_c, 1, 56, 127
2, 88200, Note_off_c, 1, 51, 0
2, 88200, Note_off_c, 1, 56, 0
2, 88200, Note_off_c, 1, 60, 0
2, 88200, Note_off_c, 1, 63, 0
2, 88240, Note_on_c, 1, 51, 127
2, 88240, Note_on_c, 1, 56, 127
2, 88240, Note_on_c, 1, 60, 127
2, 88240, Note_on_c, 1, 63, 127
2, 88360, Note_off_c, 1, 56, 0
2, 88360, Note_off_c, 1, 60, 0
2, 88360, Note_off_c, 1, 63, 0
2, 88400, Note_on_c, 1, 39, 127
2, 88400, Note_off_c, 1, 51, 0
2, 88400, Note_on_c, 1, 61, 127
2, 88400, Note_on_c, 1, 67, 127
2, 88720, Note_off_c, 1, 61, 0
2, 88720, Note_off_c, 1, 67, 0
2, 88760, Note_off_c, 1, 39, 0
2, 88760, Note_on_c, 1, 44, 127
2, 88760, Note_on_c, 1, 51, 127
2, 88760, Note_on_c, 1, 60, 127
2, 88760, Note_on_c, 1, 63, 127
2, 88760, Note_on_c, 1, 72, 127
2, 89120, Note_off_c, 1, 51, 0
2, 89120, Note_off_c, 1, 60, 0
2, 89120, Note_off_c, 1, 63, 0
2, 89160, Note_on_c, 1, 51, 127
2, 89160, Note_on_c, 1, 60, 127
2, 89160, Note_on_c, 1, 63, 127
2, 89480, Note_off_c, 1, 51, 0
2, 89480, Note_on_c, 1, 52, 127
2, 89480, Note_on_c, 1, 59, 127
2, 89480, Note_off_c, 1, 60, 0
2, 89480, Note_off_c, 1, 63, 0
2, 89480, Note_off_c, 1, 72, 0
2, 89520, Note_off_c, 1, 44, 0
2, 89520, Note_off_c, 1, 52, 0
2, 89520, Note_off_c, 1, 59, 0
2, 89520, Note_on_c, 1, 65, 127
2, 89520, Note_on_c, 1, 68, 127
2, 89520, Note_on_c, 1, 89, 127
2, 89520, Note_on_c, 1, 97, 127
2, 89560, Note_on_c, 1, 34, 127
2, 89560, Note_on_c, 1, 38, 127
2, 89560, Note_on_c, 1, 46, 127
2, 89560, Note_off_c, 1, 65, 0
2, 89560, Note_on_c, 1, 67, 127
2, 89560, Note_off_c, 1, 68, 0
2, 89560, Note_on_c, 1, 79, 127
2, 89560, Note_off_c, 1, 89, 0
2, 89560, Note_off_c, 1, 97, 0
2, 89880, Note_off_c, 1, 34, 0
2, 89880, Note_off_c, 1, 38, 0
2, 89880, Note_off_c, 1, 46, 0
2, 89880, Note_off_c, 1, 67, 0
2, 89880, Note_off_c, 1, 79, 0
2, 89920, Note_on_c, 1, 55, 127
2, 89920, Note_on_c, 1, 58, 127
2, 89920, Note_on_c, 1, 70, 127
2, 89920, Note_on_c, 1, 73, 127
2, 89920, Note_on_c, 1, 82, 127
2, 89960, Note_on_c, 1, 44, 127
2, 89960, Note_on_c, 1, 51, 127
2, 89960, Note_off_c, 1, 55, 0
2, 89960, Note_off_c, 1, 58, 0
2, 89960, Note_off_c, 1, 70, 0
2, 89960, Note_off_c, 1, 73, 0
2, 89960, Note_off_c, 1, 82, 0
2, 89960, Note_on_c, 1, 83, 127
2, 89960, Note_on_c, 1, 87, 127
2, 89960, Note_on_c, 1, 92, 127
2, 90240, Note_off_c, 1, 51, 0
2, 90240, Note_off_c, 1, 83, 0
2, 90240, Note_off_c, 1, 87, 0
2, 90240, Note_off_c, 1, 92, 0
2, 90280, Note_off_c, 1, 44, 0
2, 90280, Note_on_c, 1, 60, 127
2, 90280, Note_on_c, 1, 63, 127
2, 90280, Note_on_c, 1, 66, 127
2, 90280, Note_on_c, 1, 74, 127
2, 90280, Note_on_c, 1, 78, 127
2, 90320, Note_off_c, 1, 60, 0
2, 90320, Note_off_c, 1, 63, 0
2, 90320, Note_off_c, 1, 66, 0
2, 90320, Note_off_c, 1, 74, 0
2, 90320, Note_off_c, 1, 78, 0
2, 90360, Note_on_c, 1, 50, 127
2, 90360, Note_on_c, 1, 56, 127
2, 90360, Note_on_c, 1, 59, 127
2, 90360, Note_on_c, 1, 62, 127
2, 90360, Note_on_c, 1, 71, 127
2, 90400, Note_on_c, 1, 44, 127
2, 90400, Note_off_c, 1, 50, 0
2, 90400, Note_off_c, 1, 56, 0
2, 90400, Note_off_c, 1, 62, 0
2, 90400, Note_off_c, 1, 71, 0
2, 90400, Note_on_c, 1, 75, 127
2, 90400, Note_on_c, 1, 78, 127
2, 90400, Note_on_c, 1, 81, 127
2, 90440, Note_on_c, 1, 38, 127
2, 90440, Note_off_c, 1, 44, 0
2, 90440, Note_on_c, 1, 50, 127
2, 90440, Note_off_c, 1, 59, 0
2, 90440, Note_on_c, 1, 60, 127
2, 90440, Note_on_c, 1, 72, 127
2, 90440, Note_off_c, 1, 75, 0
2, 90440, Note_off_c, 1, 78, 0
2, 90440, Note_off_c, 1, 81, 0
2, 90440, Note_on_c, 1, 82, 127
2, 90440, Note_on_c, 1, 94, 127
2, 90480, Note_off_c, 1, 38, 0
2, 90480, Note_on_c, 1, 40, 127
2, 90480, Note_off_c, 1, 50, 0
2, 90480, Note_on_c, 1, 52, 127
2, 90480, Note_on_c, 1, 57, 127
2, 90480, Note_off_c, 1, 60, 0
2, 90480, Note_off_c, 1, 72, 0
2, 90480, Note_on_c, 1, 73, 127
2, 90480, Note_on_c, 1, 79, 127
2, 90480, Note_off_c, 1, 82, 0
2, 90480, Note_on_c, 1, 83, 127
2, 90480, Note_off_c, 1, 94, 0
2, 90520, Note_on_c, 1, 39, 127
2, 90520, Note_off_c, 1, 40, 0
2, 90520, Note_off_c, 1, 52, 0
2, 90520, Note_on_c, 1, 54, 127
2, 90520, Note_off_c, 1, 57, 0
2, 90520, Note_on_c, 1, 66, 127
2, 90520, Note_off_c, 1, 79, 0
2, 90520, Note_off_c, 1, 83, 0
2, 90560, Note_off_c, 1, 39, 0
2, 90560, Note_on_c, 1, 47, 127
2, 90560, Note_on_c, 1, 52, 127
2, 90560, Note_off_c, 1, 54, 0
2, 90560, Note_on_c, 1, 55, 127
2, 90560, Note_on_c, 1, 60, 127
2, 90560, Note_on_c, 1, 64, 127
2, 90560, Note_off_c, 1, 66, 0
2, 90560, Note_on_c, 1, 67, 127
2, 90560, Note_on_c, 1, 72, 127
2, 90560, Note_off_c, 1, 73, 0
2, 90600, Note_on_c, 1, 39, 127
2, 90600, Note_off_c, 1, 47, 0
2, 90600, Note_off_c, 1, 52, 0
2, 90600, Note_on_c, 1, 54, 127
2, 90600, Note_off_c, 1, 55, 0
2, 90600, Note_off_c, 1, 60, 0
2, 90600, Note_off_c, 1, 64, 0
2, 90600, Note_on_c, 1, 66, 127
2, 90600, Note_off_c, 1, 67, 0
2, 90600, Note_off_c, 1, 72, 0
2, 90600, Note_on_c, 1, 73, 127
2, 90680, Note_off_c, 1, 39, 0
2, 90680, Note_on_c, 1, 51, 127
2, 90680, Note_off_c, 1, 54, 0
2, 90680, Note_on_c, 1, 57, 127
2, 90680, Note_on_c, 1, 62, 127
2, 90680, Note_off_c, 1, 66, 0
2, 90680, Note_off_c, 1, 73, 0
2, 90720, Note_off_c, 1, 51, 0
2, 90720, Note_off_c, 1, 62, 0
2, 90720, Note_on_c, 1, 81, 127
2, 90720, Note_on_c, 1, 91, 127
2, 90720, Note_on_c, 1, 94, 127
2, 90880, Note_on_c, 1, 84, 127
2, 90880, Note_on_c, 1, 88, 127
2, 90880, Note_off_c, 1, 91, 0
2, 90880, Note_off_c, 1, 94, 0
2, 90920, Note_off_c, 1, 84, 0
2, 90920, Note_off_c, 1, 88, 0
2, 90920, Note_on_c, 1, 91, 127
2, 90920, Note_on_c, 1, 94, 127
2, 91040, Note_off_c, 1, 57, 0
2, 91040, Note_off_c, 1, 81, 0
2, 91040, Note_off_c, 1, 91, 0
2, 91040, Note_off_c, 1, 94, 0
2, 91080, Note_on_c, 1, 62, 127
2, 91080, Note_on_c, 1, 67, 127
2, 91080, Note_on_c, 1, 70, 127
2, 91080, Note_on_c, 1, 91, 127
2, 91120, Note_off_c, 1, 62, 0
2, 91120, Note_on_c, 1, 64, 127
2, 91120, Note_on_c, 1, 82, 127
2, 91120, Note_on_c, 1, 88, 127
2, 91120, Note_on_c, 1, 94, 127
2, 91160, Note_on_c, 1, 60, 127
2, 91160, Note_on_c, 1, 62, 127
2, 91160, Note_off_c, 1, 64, 0
2, 91160, Note_off_c, 1, 67, 0
2, 91160, Note_on_c, 1, 69, 127
2, 91160, Note_off_c, 1, 70, 0
2, 91160, Note_on_c, 1, 78, 127
2, 91160, Note_on_c, 1, 81, 127
2, 91160, Note_off_c, 1, 82, 0
2, 91160, Note_off_c, 1, 88, 0
2, 91160, Note_off_c, 1, 91, 0
2, 91160, Note_off_c, 1, 94, 0
2, 91200, Note_on_c, 1, 52, 127
2, 91200, Note_on_c, 1, 56, 127
2, 91200, Note_off_c, 1, 60, 0
2, 91200, Note_off_c, 1, 62, 0
2, 91200, Note_on_c, 1, 63, 127
2, 91200, Note_off_c, 1, 69, 0
2, 91200, Note_off_c, 1, 78, 0
2, 91200, Note_off_c, 1, 81, 0
2, 91200, Note_on_c, 1, 88, 127
2, 91240, Note_on_c, 1, 48, 127
2, 91240, Note_off_c, 1, 52, 0
2, 91240, Note_off_c, 1, 56, 0
2, 91240, Note_on_c, 1, 62, 127
2, 91240, Note_off_c, 1, 63, 0
2, 91240, Note_on_c, 1, 68, 127
2, 91240, Note_off_c, 1, 88, 0
2, 91280, Note_on_c, 1, 38, 127
2, 91280, Note_off_c, 1, 48, 0
2, 91280, Note_on_c, 1, 50, 127
2, 91280, Note_on_c, 1, 60, 127
2, 91280, Note_off_c, 1, 62, 0
2, 91280, Note_on_c, 1, 67, 127
2, 91280, Note_off_c, 1, 68, 0
2, 91280, Note_on_c, 1, 72, 127
2, 91320, Note_off_c, 1, 38, 0
2, 91320, Note_on_c, 1, 46, 127
2, 91320, Note_off_c, 1, 50, 0
2, 91320, Note_off_c, 1, 60, 0
2, 91320, Note_on_c, 1, 61, 127
2, 91320, Note_off_c, 1, 67, 0
2, 91320, Note_off_c, 1, 72, 0
2, 91320, Note_on_c, 1, 77, 127
2, 91320, Note_on_c, 1, 82, 127
2, 91320, Note_on_c, 1, 85, 127
2, 91360, Note_on_c, 1, 44, 127
2, 91360, Note_off_c, 1, 46, 0
2, 91360, Note_off_c, 1, 61, 0
2, 91360, Note_on_c, 1, 74, 127
2, 91360, Note_on_c, 1, 80, 127
2, 91360, Note_off_c, 1, 82, 0
2, 91360, Note_off_c, 1, 85, 0
2, 91360, Note_on_c, 1, 86, 127
2, 91400, Note_off_c, 1, 44, 0
2, 91400, Note_on_c, 1, 48, 127
2, 91400, Note_on_c, 1, 55, 127
2, 91400, Note_on_c, 1, 63, 127
2, 91400, Note_on_c, 1, 72, 127
2, 91400, Note_off_c, 1, 77, 0
2, 91400, Note_on_c, 1, 79, 127
2, 91400, Note_off_c, 1, 80, 0
2, 91400, Note_off_c, 1, 86, 0
2, 91440, Note_off_c, 1, 48, 0
2, 91440, Note_off_c, 1, 55, 0
2, 91440, Note_off_c, 1, 63, 0
2, 91440, Note_off_c, 1, 72, 0
2, 91440, Note_off_c, 1, 74, 0
2, 91440, Note_on_c, 1, 77, 127
2, 91440, Note_off_c, 1, 79, 0
2, 91480, Note_on_c, 1, 61, 127
2, 91480, Note_on_c, 1, 76, 127
2, 91480, Note_off_c, 1, 77, 0
2, 91480, Note_on_c, 1, 82, 127
2, 91480, Note_on_c, 1, 85, 127
2, 91480, Note_on_c, 1, 88, 127
2, 91800, Note_off_c, 1, 61, 0
2, 91800, Note_off_c, 1, 76, 0
2, 91800, Note_off_c, 1, 82, 0
2, 91800, Note_off_c, 1, 85, 0
2, 91800, Note_off_c, 1, 88, 0
2, 91840, Note_on_c, 1, 39, 127
2, 91840, Note_on_c, 1, 46, 127
2, 91840, Note_on_c, 1, 51, 127
2, 91840, Note_on_c, 1, 79, 127
2, 91840, Note_on_c, 1, 82, 127
2, 92000, Note_off_c, 1, 79, 0
2, 92000, Note_off_c, 1, 82, 0
2, 92040, Note_on_c, 1, 87, 127
2, 92040, Note_on_c, 1, 91, 127
2, 92200, Note_off_c, 1, 87, 0
2, 92200, Note_off_c, 1, 91, 0
2, 92240, Note_on_c, 1, 79, 127
2, 92240, Note_on_c, 1, 82, 127
2, 92280, Note_off_c, 1, 79, 0
2, 92280, Note_off_c, 1, 82, 0
2, 92280, Note_on_c, 1, 87, 127
2, 92280, Note_on_c, 1, 91, 127
2, 92360, Note_off_c, 1, 87, 0
2, 92360, Note_off_c, 1, 91, 0
2, 92400, Note_on_c, 1, 87, 127
2, 92400, Note_on_c, 1, 91, 127
2, 92560, Note_off_c, 1, 87, 0
2, 92560, Note_off_c, 1, 91, 0
2, 92600, Note_off_c, 1, 39, 0
2, 92600, Note_off_c, 1, 46, 0
2, 92600, Note_off_c, 1, 51, 0
2, 92640, Note_on_c, 1, 39, 127
2, 92640, Note_on_c, 1, 46, 127
2, 92640, Note_on_c, 1, 51, 127
2, 92640, Note_on_c, 1, 87, 127
2, 92640, Note_on_c, 1, 91, 127
2, 92880, Note_on_c, 1, 79, 127
2, 92880, Note_on_c, 1, 82, 127
2, 92880, Note_off_c, 1, 87, 0
2, 92880, Note_off_c, 1, 91, 0
2, 92920, Note_off_c, 1, 79, 0
2, 92920, Note_off_c, 1, 82, 0
2, 92960, Note_on_c, 1, 79, 127
2, 92960, Note_on_c, 1, 82, 127
2, 93000, Note_off_c, 1, 79, 0
2, 93000, Note_off_c, 1, 82, 0
2, 93000, Note_on_c, 1, 87, 127
2, 93000, Note_on_c, 1, 91, 127
2, 93040, Note_on_c, 1, 79, 127
2, 93040, Note_on_c, 1, 82, 127
2, 93040, Note_off_c, 1, 87, 0
2, 93040, Note_off_c, 1, 91, 0
2, 93080, Note_off_c, 1, 79, 0
2, 93080, Note_off_c, 1, 82, 0
2, 93080, Note_on_c, 1, 87, 127
2, 93080, Note_on_c, 1, 91, 127
2, 93120, Note_off_c, 1, 87, 0
2, 93120, Note_off_c, 1, 91, 0
2, 93160, Note_on_c, 1, 79, 127
2, 93160, Note_on_c, 1, 82, 127
2, 93280, Note_off_c, 1, 79, 0
2, 93280, Note_off_c, 1, 82, 0
2, 93320, Note_on_c, 1, 79, 127
2, 93320, Note_on_c, 1, 82, 127
2, 93440, Note_off_c, 1, 79, 0
2, 93440, Note_off_c, 1, 82, 0
2, 93440, Note_on_c, 1, 87, 127
2, 93440, Note_on_c, 1, 91, 127
2, 93480, Note_off_c, 1, 87, 0
2, 93480, Note_off_c, 1, 91, 0
2, 93520, Note_on_c, 1, 87, 127
2, 93520, Note_on_c, 1, 91, 127
2, 93640, Note_off_c, 1, 87, 0
2, 93640, Note_off_c, 1, 91, 0
2, 93680, Note_on_c, 1, 79, 127
2, 93680, Note_on_c, 1, 82, 127
2, 93720, Note_off_c, 1, 79, 0
2, 93720, Note_off_c, 1, 82, 0
2, 93720, Note_on_c, 1, 87, 127
2, 93720, Note_on_c, 1, 91, 127
2, 93840, Note_off_c, 1, 87, 0
2, 93840, Note_off_c, 1, 91, 0
2, 93880, Note_on_c, 1, 36, 127
2, 93880, Note_off_c, 1, 39, 0
2, 93880, Note_off_c, 1, 46, 0
2, 93880, Note_off_c, 1, 51, 0
2, 93880, Note_on_c, 1, 60, 127
2, 93880, Note_on_c, 1, 76, 127
2, 93880, Note_on_c, 1, 79, 127
2, 94000, Note_off_c, 1, 36, 0
2, 94000, Note_off_c, 1, 60, 0
2, 94000, Note_off_c, 1, 76, 0
2, 94000, Note_off_c, 1, 79, 0
2, 94040, Note_on_c, 1, 45, 127
2, 94040, Note_on_c, 1, 48, 127
2, 94040, Note_on_c, 1, 51, 127
2, 94040, Note_on_c, 1, 60, 127
2, 94080, Note_on_c, 1, 38, 127
2, 94080, Note_off_c, 1, 45, 0
2, 94080, Note_off_c, 1, 48, 0
2, 94080, Note_on_c, 1, 50, 127
2, 94080, Note_off_c, 1, 51, 0
2, 94080, Note_on_c, 1, 57, 127
2, 94120, Note_off_c, 1, 38, 0
2, 94120, Note_on_c, 1, 45, 127
2, 94120, Note_on_c, 1, 48, 127
2, 94120, Note_off_c, 1, 50, 0
2, 94120, Note_on_c, 1, 51, 127
2, 94120, Note_off_c, 1, 57, 0
2, 94160, Note_off_c, 1, 45, 0
2, 94160, Note_off_c, 1, 48, 0
2, 94160, Note_off_c, 1, 51, 0
2, 94240, Note_off_c, 1, 60, 0
2, 94240, Note_on_c, 1, 70, 127
2, 94240, Note_on_c, 1, 75, 127
2, 94240, Note_on_c, 1, 79, 127
2, 94240, Note_on_c, 1, 91, 127
2, 94280, Note_on_c, 1, 63, 127
2, 94280, Note_on_c, 1, 69, 127
2, 94280, Note_off_c, 1, 70, 0
2, 94280, Note_on_c, 1, 73, 127
2, 94280, Note_off_c, 1, 75, 0
2, 94280, Note_on_c, 1, 76, 127
2, 94280, Note_off_c, 1, 79, 0
2, 94280, Note_on_c, 1, 80, 127
2, 94280, Note_off_c, 1, 91, 0
2, 94320, Note_on_c, 1, 48, 127
2, 94320, Note_on_c, 1, 57, 127
2, 94320, Note_on_c, 1, 60, 127
2, 94320, Note_on_c, 1, 62, 127
2, 94320, Note_off_c, 1, 63, 0
2, 94320, Note_on_c, 1, 65, 127
2, 94320, Note_off_c, 1, 69, 0
2, 94320, Note_off_c, 1, 73, 0
2, 94320, Note_off_c, 1, 76, 0
2, 94320, Note_off_c, 1, 80, 0
2, 94360, Note_off_c, 1, 48, 0
2, 94360, Note_off_c, 1, 57, 0
2, 94360, Note_off_c, 1, 60, 0
2, 94360, Note_off_c, 1, 62, 0
2, 94360, Note_off_c, 1, 65, 0
2, 94360, Note_on_c, 1, 79, 127
2, 94360, Note_on_c, 1, 91, 127
2, 94400, Note_on_c, 1, 57, 127
2, 94400, Note_on_c, 1, 64, 127
2, 94400, Note_on_c, 1, 69, 127
2, 94400, Note_on_c, 1, 72, 127
2, 94400, Note_on_c, 1, 78, 127
2, 94400, Note_off_c, 1, 79, 0
2, 94400, Note_off_c, 1, 91, 0
2, 94440, Note_on_c, 1, 53, 127
2, 94440, Note_off_c, 1, 57, 0
2, 94440, Note_on_c, 1, 58, 127
2, 94440, Note_off_c, 1, 64, 0
2, 94440, Note_on_c, 1, 67, 127
2, 94440, Note_off_c, 1, 69, 0
2, 94440, Note_off_c, 1, 72, 0
2, 94440, Note_off_c, 1, 78, 0
2, 94440, Note_on_c, 1, 85, 127
2, 94480, Note_on_c, 1, 40, 127
2, 94480, Note_on_c, 1, 50, 127
2, 94480, Note_off_c, 1, 53, 0
2, 94480, Note_on_c, 1, 55, 127
2, 94480, Note_off_c, 1, 58, 0
2, 94480, Note_off_c, 1, 67, 0
2, 94480, Note_off_c, 1, 85, 0
2, 94520, Note_off_c, 1, 40, 0
2, 94520, Note_off_c, 1, 50, 0
2, 94520, Note_on_c, 1, 53, 127
2, 94520, Note_off_c, 1, 55, 0
2, 94520, Note_on_c, 1, 58, 127
2, 94520, Note_on_c, 1, 67, 127
2, 94560, Note_on_c, 1, 36, 127
2, 94560, Note_on_c, 1, 39, 127
2, 94560, Note_on_c, 1, 51, 127
2, 94560, Note_off_c, 1, 53, 0
2, 94560, Note_on_c, 1, 54, 127
2, 94560, Note_on_c, 1, 57, 127
2, 94560, Note_off_c, 1, 58, 0
2, 94560, Note_on_c, 1, 60, 127
2, 94560, Note_off_c, 1, 67, 0
2, 94600, Note_off_c, 1, 36, 0
2, 94600, Note_off_c, 1, 39, 0
2, 94600, Note_on_c, 1, 45, 127
2, 94600, Note_off_c, 1, 51, 0
2, 94600, Note_off_c, 1, 54, 0
2, 94600, Note_off_c, 1, 60, 0
2, 94600, Note_on_c, 1, 85, 127
2, 94600, Note_on_c, 1, 88, 127
2, 94600, Note_on_c, 1, 97, 127
2, 94640, Note_off_c, 1, 45, 0
2, 94640, Note_on_c, 1, 49, 127
2, 94640, Note_on_c, 1, 52, 127
2, 94640, Note_on_c, 1, 55, 127
2, 94640, Note_off_c, 1, 57, 0
2, 94640, Note_on_c, 1, 81, 127
2, 94640, Note_off_c, 1, 85, 0
2, 94640, Note_off_c, 1, 88, 0
2, 94640, Note_off_c, 1, 97, 0
2, 94680, Note_off_c, 1, 49, 0
2, 94680, Note_off_c, 1, 52, 0
2, 94680, Note_on_c, 1, 85, 127
2, 94720, Note_off_c, 1, 55, 0
2, 94720, Note_on_c, 1, 62, 127
2, 94720, Note_on_c, 1, 68, 127
2, 94720, Note_on_c, 1, 71, 127
2, 94720, Note_on_c, 1, 76, 127
2, 94720, Note_off_c, 1, 81, 0
2, 94720, Note_off_c, 1, 85, 0
2, 94720, Note_on_c, 1, 88, 127
2, 94760, Note_off_c, 1, 62, 0
2, 94760, Note_off_c, 1, 68, 0
2, 94760, Note_off_c, 1, 71, 0
2, 94760, Note_off_c, 1, 76, 0
2, 94760, Note_off_c, 1, 88, 0
2, 94840, Note_on_c, 1, 60, 127
2, 94840, Note_on_c, 1, 65, 127
2, 94840, Note_on_c, 1, 70, 127
2, 94840, Note_on_c, 1, 79, 127
2, 95160, Note_off_c, 1, 60, 0
2, 95160, Note_off_c, 1, 65, 0
2, 95160, Note_off_c, 1, 70, 0
2, 95160, Note_off_c, 1, 79, 0
2, 95200, Note_on_c, 1, 60, 127
2, 95200, Note_on_c, 1, 70, 127
2, 95200, Note_on_c, 1, 72, 127
2, 95200, Note_on_c, 1, 85, 127
2, 95240, Note_off_c, 1, 70, 0
2, 95240, Note_on_c, 1, 79, 127
2, 95240, Note_on_c, 1, 82, 127
2, 95240, Note_off_c, 1, 85, 0
2, 95240, Note_on_c, 1, 88, 127
2, 95280, Note_on_c, 1, 70, 127
2, 95280, Note_off_c, 1, 79, 0
2, 95280, Note_off_c, 1, 82, 0
2, 95280, Note_on_c, 1, 85, 127
2, 95280, Note_off_c, 1, 88, 0
2, 95320, Note_off_c, 1, 60, 0
2, 95320, Note_off_c, 1, 70, 0
2, 95320, Note_off_c, 1, 72, 0
2, 95320, Note_off_c, 1, 85, 0
2, 95360, Note_on_c, 1, 60, 127
2, 95360, Note_on_c, 1, 70, 127
2, 95360, Note_on_c, 1, 72, 127
2, 95360, Note_on_c, 1, 85, 127
2, 95400, Note_on_c, 1, 59, 127
2, 95400, Note_off_c, 1, 60, 0
2, 95400, Note_on_c, 1, 65, 127
2, 95400, Note_on_c, 1, 67, 127
2, 95400, Note_off_c, 1, 70, 0
2, 95400, Note_off_c, 1, 72, 0
2, 95400, Note_on_c, 1, 74, 127
2, 95400, Note_on_c, 1, 79, 127
2, 95400, Note_off_c, 1, 85, 0
2, 95480, Note_off_c, 1, 67, 0
2, 95480, Note_on_c, 1, 71, 127
2, 95480, Note_off_c, 1, 74, 0
2, 95480, Note_off_c, 1, 79, 0
2, 95480, Note_on_c, 1, 80, 127
2, 95520, Note_off_c, 1, 59, 0
2, 95520, Note_off_c, 1, 65, 0
2, 95520, Note_off_c, 1, 71, 0
2, 95520, Note_off_c, 1, 80, 0
2, 95560, Note_on_c, 1, 59, 127
2, 95560, Note_on_c, 1, 65, 127
2, 95560, Note_on_c, 1, 67, 127
2, 95560, Note_on_c, 1, 74, 127
2, 95560, Note_on_c, 1, 79, 127
2, 95880, Note_off_c, 1, 74, 0
2, 95920, Note_on_c, 1, 74, 127
2, 96080, Note_off_c, 1, 74, 0
2, 96120, Note_on_c, 1, 74, 127
2, 96240, Note_off_c, 1, 74, 0
2, 96280, Note_on_c, 1, 74, 127
2, 96520, Note_off_c, 1, 74, 0
2, 96560, Note_on_c, 1, 74, 127
2, 96600, Note_off_c, 1, 74, 0
2, 96640, Note_off_c, 1, 59, 0
2, 96640, Note_off_c, 1, 65, 0
2, 96640, Note_off_c, 1, 67, 0
2, 96640, Note_off_c, 1, 79, 0
2, 96680, Note_on_c, 1, 59, 127
2, 96680, Note_on_c, 1, 65, 127
2, 96680, Note_on_c, 1, 67, 127
2, 96680, Note_on_c, 1, 77, 127
2, 96680, Note_on_c, 1, 79, 127
2, 96720, Note_off_c, 1, 77, 0
2, 96760, Note_on_c, 1, 74, 127
2, 96800, Note_off_c, 1, 74, 0
2, 96840, Note_on_c, 1, 74, 127
2, 96880, Note_off_c, 1, 74, 0
2, 96920, Note_on_c, 1, 74, 127
2, 96960, Note_off_c, 1, 74, 0
2, 97040, Note_off_c, 1, 59, 0
2, 97040, Note_off_c, 1, 65, 0
2, 97040, Note_off_c, 1, 67, 0
2, 97040, Note_off_c, 1, 79, 0
2, 97080, Note_on_c, 1, 59, 127
2, 97080, Note_on_c, 1, 65, 127
2, 97080, Note_on_c, 1, 67, 127
2, 97080, Note_on_c, 1, 74, 127
2, 97080, Note_on_c, 1, 79, 127
2, 97200, Note_off_c, 1, 74, 0
2, 97240, Note_on_c, 1, 74, 127
2, 97320, Note_off_c, 1, 74, 0
2, 97360, Note_on_c, 1, 74, 127
2, 97400, Note_off_c, 1, 59, 0
2, 97400, Note_off_c, 1, 65, 0
2, 97400, Note_off_c, 1, 67, 0
2, 97400, Note_off_c, 1, 74, 0
2, 97400, Note_off_c, 1, 79, 0
2, 97440, Note_on_c, 1, 59, 127
2, 97440, Note_on_c, 1, 64, 127
2, 97440, Note_on_c, 1, 74, 127
2, 97440, Note_on_c, 1, 86, 127
2, 97480, Note_on_c, 1, 41, 127
2, 97480, Note_on_c, 1, 48, 127
2, 97480, Note_on_c, 1, 58, 127
2, 97480, Note_off_c, 1, 59, 0
2, 97480, Note_on_c, 1, 60, 127
2, 97480, Note_on_c, 1, 63, 127
2, 97480, Note_off_c, 1, 64, 0
2, 97480, Note_on_c, 1, 67, 127
2, 97480, Note_off_c, 1, 74, 0
2, 97480, Note_off_c, 1, 86, 0
2, 97520, Note_on_c, 1, 29, 127
2, 97520, Note_off_c, 1, 41, 0
2, 97520, Note_off_c, 1, 48, 0
2, 97520, Note_on_c, 1, 49, 127
2, 97520, Note_off_c, 1, 58, 0
2, 97520, Note_off_c, 1, 60, 0
2, 97520, Note_off_c, 1, 63, 0
2, 97520, Note_off_c, 1, 67, 0
2, 97560, Note_off_c, 1, 29, 0
2, 97560, Note_off_c, 1, 49, 0
2, 97560, Note_on_c, 1, 54, 127
2, 97560, Note_on_c, 1, 78, 127
2, 97560, Note_on_c, 1, 90, 127
2, 97560, Note_on_c, 1, 93, 127
2, 97600, Note_off_c, 1, 54, 0
2, 97600, Note_on_c, 1, 59, 127
2, 97600, Note_on_c, 1, 62, 127
2, 97600, Note_on_c, 1, 77, 127
2, 97600, Note_off_c, 1, 78, 0
2, 97600, Note_on_c, 1, 86, 127
2, 97600, Note_off_c, 1, 90, 0
2, 97600, Note_off_c, 1, 93, 0
2, 97640, Note_on_c, 1, 41, 127
2, 97640, Note_on_c, 1, 46, 127
2, 97640, Note_on_c, 1, 53, 127
2, 97640, Note_off_c, 1, 59, 0
2, 97640, Note_off_c, 1, 62, 0
2, 97640, Note_on_c, 1, 74, 127
2, 97640, Note_off_c, 1, 77, 0
2, 97640, Note_on_c, 1, 80, 127
2, 97640, Note_on_c, 1, 82, 127
2, 97680, Note_on_c, 1, 38, 127
2, 97680, Note_off_c, 1, 41, 0
2, 97680, Note_off_c, 1, 46, 0
2, 97680, Note_on_c, 1, 58, 127
2, 97680, Note_on_c, 1, 62, 127
2, 97680, Note_on_c, 1, 65, 127
2, 97680, Note_off_c, 1, 74, 0
2, 97680, Note_off_c, 1, 80, 0
2, 97680, Note_off_c, 1, 82, 0
2, 97680, Note_off_c, 1, 86, 0
2, 97720, Note_off_c, 1, 38, 0
2, 97720, Note_on_c, 1, 51, 127
2, 97720, Note_off_c, 1, 53, 0
2, 97720, Note_off_c, 1, 58, 0
2, 97720, Note_off_c, 1, 62, 0
2, 97720, Note_off_c, 1, 65, 0
2, 97720, Note_on_c, 1, 82, 127
2, 97720, Note_on_c, 1, 84, 127
2, 97720, Note_on_c, 1, 87, 127
2, 97720, Note_on_c, 1, 94, 127
2, 97760, Note_on_c, 1, 30, 127
2, 97760, Note_on_c, 1, 42, 127
2, 97760, Note_off_c, 1, 51, 0
2, 97760, Note_on_c, 1, 71, 127
2, 97760, Note_on_c, 1, 77, 127
2, 97760, Note_on_c, 1, 80, 127
2, 97760, Note_off_c, 1, 82, 0
2, 97760, Note_off_c, 1, 84, 0
2, 97760, Note_on_c, 1, 86, 127
2, 97760, Note_off_c, 1, 87, 0
2, 97760, Note_off_c, 1, 94, 0
2, 97800, Note_off_c, 1, 30, 0
2, 97800, Note_off_c, 1, 42, 0
2, 97800, Note_on_c, 1, 65, 127
2, 97800, Note_off_c, 1, 71, 0
2, 97800, Note_on_c, 1, 72, 127
2, 97800, Note_off_c, 1, 77, 0
2, 97800, Note_off_c, 1, 80, 0
2, 97800, Note_off_c, 1, 86, 0
2, 97800, Note_on_c, 1, 97, 127
2, 97840, Note_on_c, 1, 38, 127
2, 97840, Note_on_c, 1, 54, 127
2, 97840, Note_off_c, 1, 65, 0
2, 97840, Note_on_c, 1, 66, 127
2, 97840, Note_on_c, 1, 70, 127
2, 97840, Note_off_c, 1, 72, 0
2, 97840, Note_off_c, 1, 97, 0
2, 98000, Note_on_c, 1, 64, 127
2, 98000, Note_off_c, 1, 66, 0
2, 98040, Note_off_c, 1, 64, 0
2, 98160, Note_off_c, 1, 38, 0
2, 98160, Note_off_c, 1, 54, 0
2, 98160, Note_off_c, 1, 70, 0
2, 98200, Note_on_c, 1, 36, 127
2, 98200, Note_on_c, 1, 58, 127
2, 98200, Note_on_c, 1, 61, 127
2, 98200, Note_on_c, 1, 67, 127
2, 98240, Note_off_c, 1, 36, 0
2, 98240, Note_off_c, 1, 58, 0
2, 98240, Note_off_c, 1, 61, 0
2, 98240, Note_off_c, 1, 67, 0
2, 98240, Note_on_c, 1, 75, 127
2, 98240, Note_on_c, 1, 83, 127
2, 98240, Note_on_c, 1, 85, 127
2, 98240, Note_on_c, 1, 90, 127
2, 98280, Note_on_c, 1, 44, 127
2, 98280, Note_on_c, 1, 51, 127
2, 98280, Note_on_c, 1, 56, 127
2, 98280, Note_on_c, 1, 71, 127
2, 98280, Note_off_c, 1, 83, 0
2, 98280, Note_off_c, 1, 85, 0
2, 98280, Note_off_c, 1, 90, 0
2, 98320, Note_off_c, 1, 44, 0
2, 98320, Note_off_c, 1, 51, 0
2, 98320, Note_off_c, 1, 56, 0
2, 98320, Note_on_c, 1, 58, 127
2, 98320, Note_on_c, 1, 61, 127
2, 98320, Note_on_c, 1, 64, 127
2, 98320, Note_off_c, 1, 71, 0
2, 98320, Note_off_c, 1, 75, 0
2, 98320, Note_on_c, 1, 84, 127
2, 98360, Note_on_c, 1, 48, 127
2, 98360, Note_on_c, 1, 53, 127
2, 98360, Note_on_c, 1, 55, 127
2, 98360, Note_off_c, 1, 58, 0
2, 98360, Note_off_c, 1, 61, 0
2, 98360, Note_on_c, 1, 62, 127
2, 98360, Note_off_c, 1, 64, 0
2, 98360, Note_on_c, 1, 67, 127
2, 98360, Note_off_c, 1, 84, 0
2, 98400, Note_on_c, 1, 43, 127
2, 98400, Note_off_c, 1, 48, 0
2, 98400, Note_off_c, 1, 53, 0
2, 98400, Note_off_c, 1, 55, 0
2, 98400, Note_on_c, 1, 58, 127
2, 98400, Note_off_c, 1, 62, 0
2, 98400, Note_off_c, 1, 67, 0
2, 98400, Note_on_c, 1, 74, 127
2, 98400, Note_on_c, 1, 82, 127
2, 98440, Note_off_c, 1, 43, 0
2, 98440, Note_off_c, 1, 58, 0
2, 98440, Note_on_c, 1, 60, 127
2, 98440, Note_on_c, 1, 63, 127
2, 98440, Note_on_c, 1, 66, 127
2, 98440, Note_on_c, 1, 69, 127
2, 98440, Note_off_c, 1, 74, 0
2, 98440, Note_on_c, 1, 78, 127
2, 98440, Note_off_c, 1, 82, 0
2, 98440, Note_on_c, 1, 87, 127
2, 98480, Note_on_c, 1, 38, 127
2, 98480, Note_on_c, 1, 45, 127
2, 98480, Note_on_c, 1, 55, 127
2, 98480, Note_off_c, 1, 63, 0
2, 98480, Note_on_c, 1, 64, 127
2, 98480, Note_off_c, 1, 66, 0
2, 98480, Note_off_c, 1, 69, 0
2, 98480, Note_off_c, 1, 78, 0
2, 98480, Note_off_c, 1, 87, 0
2, 98520, Note_off_c, 1, 38, 0
2, 98520, Note_off_c, 1, 45, 0
2, 98520, Note_off_c, 1, 55, 0
2, 98520, Note_off_c, 1, 60, 0
2, 98520, Note_off_c, 1, 64, 0
2, 98520, Note_on_c, 1, 67, 127
2, 98560, Note_on_c, 1, 39, 127
2, 98560, Note_on_c, 1, 51, 127
2, 98560, Note_off_c, 1, 67, 0
2, 98560, Note_on_c, 1, 73, 127
2, 98560, Note_on_c, 1, 75, 127
2, 98560, Note_on_c, 1, 79, 127
2, 98560, Note_on_c, 1, 82, 127
2, 98600, Note_off_c, 1, 39, 0
2, 98600, Note_on_c, 1, 50, 127
2, 98600, Note_off_c, 1, 51, 0
2, 98600, Note_on_c, 1, 57, 127
2, 98600, Note_on_c, 1, 60, 127
2, 98600, Note_on_c, 1, 66, 127
2, 98600, Note_on_c, 1, 72, 127
2, 98600, Note_off_c, 1, 73, 0
2, 98600, Note_off_c, 1, 75, 0
2, 98600, Note_off_c, 1, 79, 0
2, 98600, Note_off_c, 1, 82, 0
2, 98600, Note_on_c, 1, 83, 127
2, 98640, Note_on_c, 1, 56, 127
2, 98640, Note_off_c, 1, 57, 0
2, 98640, Note_off_c, 1, 60, 0
2, 98640, Note_off_c, 1, 66, 0
2, 98640, Note_off_c, 1, 72, 0
2, 98640, Note_on_c, 1, 75, 127
2, 98640, Note_off_c, 1, 83, 0
2, 98680, Note_on_c, 1, 44, 127
2, 98680, Note_on_c, 1, 49, 127
2, 98680, Note_off_c, 1, 50, 0
2, 98680, Note_on_c, 1, 52, 127
2, 98680, Note_off_c, 1, 56, 0
2, 98680, Note_on_c, 1, 57, 127
2, 98680, Note_on_c, 1, 64, 127
2, 98680, Note_on_c, 1, 69, 127
2, 98680, Note_off_c, 1, 75, 0
2, 98680, Note_on_c, 1, 81, 127
2, 98720, Note_on_c, 1, 31, 127
2, 98720, Note_off_c, 1, 44, 0
2, 98720, Note_off_c, 1, 49, 0
2, 98720, Note_off_c, 1, 52, 0
2, 98720, Note_off_c, 1, 57, 0
2, 98720, Note_off_c, 1, 64, 0
2, 98720, Note_off_c, 1, 69, 0
2, 98720, Note_off_c, 1, 81, 0
2, 98720, Note_on_c, 1, 82, 127
2, 98720, Note_on_c, 1, 86, 127
2, 98720, Note_on_c, 1, 91, 127
2, 98760, Note_off_c, 1, 31, 0
2, 98760, Note_on_c, 1, 50, 127
2, 98760, Note_on_c, 1, 57, 127
2, 98760, Note_on_c, 1, 60, 127
2, 98760, Note_on_c, 1, 66, 127
2, 98760, Note_off_c, 1, 82, 0
2, 98760, Note_off_c, 1, 91, 0
2, 98800, Note_on_c, 1, 72, 127
2, 98800, Note_off_c, 1, 86, 0
2, 98840, Note_off_c, 1, 50, 0
2, 98840, Note_off_c, 1, 57, 0
2, 98840, Note_off_c, 1, 60, 0
2, 98840, Note_off_c, 1, 66, 0
2, 98840, Note_off_c, 1, 72, 0
2, 98840, Note_on_c, 1, 79, 127
2, 98840, Note_on_c, 1, 80, 127
2, 98840, Note_on_c, 1, 82, 127
2, 98840, Note_on_c, 1, 83, 127
2, 98840, Note_on_c, 1, 87, 127
2, 98840, Note_on_c, 1, 88, 127
2, 98840, Note_on_c, 1, 91, 127
2, 98840, Note_on_c, 1, 92, 127
2, 98840, Note_on_c, 1, 99, 127
2, 98840, Note_on_c, 1, 100, 127
2, 98880, Note_on_c, 1, 41, 127
2, 98880, Note_on_c, 1, 49, 127
2, 98880, Note_on_c, 1, 59, 127
2, 98880, Note_on_c, 1, 73, 127
2, 98880, Note_off_c, 1, 79, 0
2, 98880, Note_off_c, 1, 80, 0
2, 98880, Note_off_c, 1, 82, 0
2, 98880, Note_off_c, 1, 83, 0
2, 98880, Note_off_c, 1, 87, 0
2, 98880, Note_off_c, 1, 88, 0
2, 98880, Note_off_c, 1, 91, 0
2, 98880, Note_off_c, 1, 92, 0
2, 98880, Note_off_c, 1, 99, 0
2, 98880, Note_off_c, 1, 100, 0
2, 98920, Note_off_c, 1, 41, 0
2, 98920, Note_off_c, 1, 49, 0
2, 98920, Note_off_c, 1, 59, 0
2, 98920, Note_off_c, 1, 73, 0
2, 98920, Note_on_c, 1, 79, 127
2, 98960, Note_on_c, 1, 56, 127
2, 98960, Note_on_c, 1, 62, 127
2, 98960, Note_off_c, 1, 79, 0
2, 98960, Note_on_c, 1, 86, 127
2, 98960, Note_on_c, 1, 88, 127
2, 99000, Note_on_c, 1, 52, 127
2, 99000, Note_on_c, 1, 55, 127
2, 99000, Note_off_c, 1, 56, 0
2, 99000, Note_on_c, 1, 57, 127
2, 99000, Note_off_c, 1, 62, 0
2, 99000, Note_on_c, 1, 69, 127
2, 99000, Note_on_c, 1, 77, 127
2, 99000, Note_off_c, 1, 86, 0
2, 99000, Note_off_c, 1, 88, 0
2, 99040, Note_on_c, 1, 38, 127
2, 99040, Note_off_c, 1, 52, 0
2, 99040, Note_on_c, 1, 53, 127
2, 99040, Note_off_c, 1, 55, 0
2, 99040, Note_off_c, 1, 57, 0
2, 99040, Note_off_c, 1, 69, 0
2, 99040, Note_off_c, 1, 77, 0
2, 99040, Note_on_c, 1, 89, 127
2, 99040, Note_on_c, 1, 92, 127
2, 99080, Note_off_c, 1, 38, 0
2, 99080, Note_on_c, 1, 40, 127
2, 99080, Note_on_c, 1, 43, 127
2, 99080, Note_on_c, 1, 48, 127
2, 99080, Note_on_c, 1, 52, 127
2, 99080, Note_off_c, 1, 53, 0
2, 99080, Note_on_c, 1, 84, 127
2, 99080, Note_on_c, 1, 88, 127
2, 99080, Note_off_c, 1, 89, 0
2, 99080, Note_on_c, 1, 91, 127
2, 99080, Note_off_c, 1, 92, 0
2, 99080, Note_on_c, 1, 96, 127
2, 99120, Note_off_c, 1, 40, 0
2, 99120, Note_off_c, 1, 43, 0
2, 99120, Note_off_c, 1, 48, 0
2, 99120, Note_off_c, 1, 52, 0
2, 99120, Note_on_c, 1, 56, 127
2, 99120, Note_on_c, 1, 75, 127
2, 99120, Note_on_c, 1, 83, 127
2, 99120, Note_off_c, 1, 84, 0
2, 99120, Note_off_c, 1, 88, 0
2, 99120, Note_off_c, 1, 91, 0
2, 99120, Note_off_c, 1, 96, 0
2, 99160, Note_on_c, 1, 39, 127
2, 99160, Note_on_c, 1, 42, 127
2, 99160, Note_on_c, 1, 48, 127
2, 99160, Note_off_c, 1, 56, 0
2, 99160, Note_on_c, 1, 60, 127
2, 99160, Note_on_c, 1, 69, 127
2, 99160, Note_on_c, 1, 71, 127
2, 99160, Note_off_c, 1, 75, 0
2, 99160, Note_off_c, 1, 83, 0
2, 99200, Note_off_c, 1, 39, 0
2, 99200, Note_off_c, 1, 42, 0
2, 99200, Note_off_c, 1, 48, 0
2, 99200, Note_on_c, 1, 49, 127
2, 99200, Note_on_c, 1, 53, 127
2, 99200, Note_on_c, 1, 56, 127
2, 99200, Note_off_c, 1, 60, 0
2, 99200, Note_on_c, 1, 61, 127
2, 99200, Note_off_c, 1, 69, 0
2, 99200, Note_off_c, 1, 71, 0
2, 99200, Note_on_c, 1, 80, 127
2, 99200, Note_on_c, 1, 85, 127
2, 99200, Note_on_c, 1, 89, 127
2, 99200, Note_on_c, 1, 92, 127
2, 99240, Note_off_c, 1, 49, 0
2, 99240, Note_off_c, 1, 53, 0
2, 99240, Note_off_c, 1, 56, 0
2, 99240, Note_off_c, 1, 61, 0
2, 99240, Note_off_c, 1, 80, 0
2, 99240, Note_off_c, 1, 85, 0
2, 99240, Note_off_c, 1, 89, 0
2, 99240, Note_off_c, 1, 92, 0
2, 99280, Note_on_c, 1, 39, 127
2, 99280, Note_on_c, 1, 61, 127
2, 99280, Note_on_c, 1, 68, 127
2, 99280, Note_on_c, 1, 73, 127
2, 99320, Note_off_c, 1, 39, 0
2, 99320, Note_on_c, 1, 42, 127
2, 99320, Note_on_c, 1, 48, 127
2, 99320, Note_on_c, 1, 60, 127
2, 99320, Note_off_c, 1, 61, 0
2, 99320, Note_on_c, 1, 64, 127
2, 99320, Note_off_c, 1, 68, 0
2, 99320, Note_on_c, 1, 69, 127
2, 99320, Note_off_c, 1, 73, 0
2, 99360, Note_off_c, 1, 42, 0
2, 99360, Note_off_c, 1, 48, 0
2, 99360, Note_on_c, 1, 53, 127
2, 99360, Note_off_c, 1, 60, 0
2, 99360, Note_off_c, 1, 64, 0
2, 99360, Note_off_c, 1, 69, 0
2, 99360, Note_on_c, 1, 73, 127
2, 99360, Note_on_c, 1, 74, 127
2, 99360, Note_on_c, 1, 83, 127
2, 99400, Note_off_c, 1, 53, 0
2, 99400, Note_on_c, 1, 61, 127
2, 99400, Note_on_c, 1, 67, 127
2, 99400, Note_off_c, 1, 73, 0
2, 99400, Note_off_c, 1, 74, 0
2, 99400, Note_on_c, 1, 82, 127
2, 99400, Note_off_c, 1, 83, 0
2, 99400, Note_on_c, 1, 84, 127
2, 99440, Note_on_c, 1, 55, 127
2, 99440, Note_on_c, 1, 58, 127
2, 99440, Note_off_c, 1, 67, 0
2, 99440, Note_on_c, 1, 74, 127
2, 99440, Note_off_c, 1, 82, 0
2, 99440, Note_off_c, 1, 84, 0
2, 99440, Note_on_c, 1, 86, 127
2, 99480, Note_on_c, 1, 50, 127
2, 99480, Note_off_c, 1, 55, 0
2, 99480, Note_off_c, 1, 58, 0
2, 99480, Note_off_c, 1, 61, 0
2, 99480, Note_on_c, 1, 62, 127
2, 99480, Note_off_c, 1, 74, 0
2, 99480, Note_on_c, 1, 79, 127
2, 99480, Note_on_c, 1, 83, 127
2, 99520, Note_on_c, 1, 48, 127
2, 99520, Note_off_c, 1, 50, 0
2, 99520, Note_on_c, 1, 55, 127
2, 99520, Note_on_c, 1, 58, 127
2, 99520, Note_off_c, 1, 62, 0
2, 99520, Note_on_c, 1, 64, 127
2, 99520, Note_on_c, 1, 76, 127
2, 99520, Note_off_c, 1, 83, 0
2, 99520, Note_on_c, 1, 85, 127
2, 99520, Note_off_c, 1, 86, 0
2, 99560, Note_on_c, 1, 34, 127
2, 99560, Note_on_c, 1, 46, 127
2, 99560, Note_off_c, 1, 48, 0
2, 99560, Note_off_c, 1, 58, 0
2, 99560, Note_on_c, 1, 62, 127
2, 99560, Note_off_c, 1, 64, 0
2, 99560, Note_off_c, 1, 76, 0
2, 99560, Note_off_c, 1, 79, 0
2, 99560, Note_off_c, 1, 85, 0
2, 99600, Note_off_c, 1, 34, 0
2, 99600, Note_on_c, 1, 45, 127
2, 99600, Note_off_c, 1, 46, 0
2, 99600, Note_off_c, 1, 55, 0
2, 99600, Note_on_c, 1, 57, 127
2, 99600, Note_off_c, 1, 62, 0
2, 99600, Note_on_c, 1, 89, 127
2, 99600, Note_on_c, 1, 98, 127
2, 99640, Note_on_c, 1, 34, 127
2, 99640, Note_on_c, 1, 41, 127
2, 99640, Note_off_c, 1, 45, 0
2, 99640, Note_on_c, 1, 46, 127
2, 99640, Note_off_c, 1, 57, 0
2, 99640, Note_on_c, 1, 77, 127
2, 99640, Note_on_c, 1, 82, 127
2, 99640, Note_off_c, 1, 89, 0
2, 99640, Note_off_c, 1, 98, 0
2, 99680, Note_off_c, 1, 34, 0
2, 99680, Note_off_c, 1, 41, 0
2, 99680, Note_on_c, 1, 42, 127
2, 99680, Note_on_c, 1, 54, 127
2, 99680, Note_off_c, 1, 77, 0
2, 99680, Note_off_c, 1, 82, 0
2, 99680, Note_on_c, 1, 88, 127
2, 99720, Note_off_c, 1, 42, 0
2, 99720, Note_off_c, 1, 46, 0
2, 99720, Note_off_c, 1, 54, 0
2, 99720, Note_off_c, 1, 88, 0
2, 99760, Note_on_c, 1, 59, 127
2, 99760, Note_on_c, 1, 64, 127
2, 99760, Note_on_c, 1, 80, 127
2, 99760, Note_on_c, 1, 83, 127
2, 100640, Note_on_c, 1, 55, 127
2, 100640, Note_on_c, 1, 62, 127
2, 100640, Note_off_c, 1, 64, 0
2, 100640, Note_on_c, 1, 67, 127
2, 100640, Note_on_c, 1, 71, 127
2, 100640, Note_on_c, 1, 74, 127
2, 100640, Note_on_c, 1, 79, 127
2, 100640, Note_off_c, 1, 80, 0
2, 100640, Note_off_c, 1, 83, 0
2, 100680, Note_on_c, 1, 57, 127
2, 100680, Note_off_c, 1, 59, 0
2, 100680, Note_off_c, 1, 62, 0
2, 100680, Note_off_c, 1, 67, 0
2, 100680, Note_off_c, 1, 71, 0
2, 100680, Note_off_c, 1, 74, 0
2, 100680, Note_off_c, 1, 79, 0
2, 100680, Note_on_c, 1, 84, 127
2, 100720, Note_off_c, 1, 55, 0
2, 100720, Note_off_c, 1, 84, 0
2, 100760, Note_on_c, 1, 55, 127
2, 100760, Note_off_c, 1, 57, 0
2, 100760, Note_on_c, 1, 65, 127
2, 100760, Note_on_c, 1, 71, 127
2, 100760, Note_on_c, 1, 81, 127
2, 100840, Note_off_c, 1, 65, 0
2, 100840, Note_off_c, 1, 71, 0
2, 100880, Note_on_c, 1, 65, 127
2, 100880, Note_on_c, 1, 71, 127
2, 101080, Note_off_c, 1, 65, 0
2, 101080, Note_off_c, 1, 71, 0
2, 101080, Note_on_c, 1, 76, 127
2, 101080, Note_on_c, 1, 79, 127
2, 101080, Note_off_c, 1, 81, 0
2, 101120, Note_on_c, 1, 65, 127
2, 101120, Note_on_c, 1, 71, 127
2, 101120, Note_off_c, 1, 76, 0
2, 101120, Note_off_c, 1, 79, 0
2, 101120, Note_on_c, 1, 81, 127
2, 101280, Note_off_c, 1, 55, 0
2, 101280, Note_off_c, 1, 65, 0
2, 101280, Note_off_c, 1, 71, 0
2, 101280, Note_off_c, 1, 81, 0
2, 101320, Note_on_c, 1, 55, 127
2, 101320, Note_on_c, 1, 65, 127
2, 101320, Note_on_c, 1, 71, 127
2, 101320, Note_on_c, 1, 81, 127
2, 101400, Note_off_c, 1, 55, 0
2, 101400, Note_off_c, 1, 65, 0
2, 101400, Note_off_c, 1, 71, 0
2, 101400, Note_off_c, 1, 81, 0
2, 101440, Note_on_c, 1, 64, 127
2, 101440, Note_on_c, 1, 79, 127
2, 102120, Note_off_c, 1, 64, 0
2, 102120, Note_off_c, 1, 79, 0
2, 102160, Note_on_c, 1, 64, 127
2, 102160, Note_on_c, 1, 79, 127
2, 102880, Note_off_c, 1, 64, 0
2, 102880, Note_off_c, 1, 79, 0
2, 102920, Note_on_c, 1, 54, 127
2, 102920, Note_on_c, 1, 66, 127
2, 103440, Note_off_c, 1, 54, 0
2, 103480, Note_on_c, 1, 78, 127
2, 103560, Note_off_c, 1, 78, 0
2, 103560, Note_on_c, 1, 82, 127
2, 103600, Note_off_c, 1, 82, 0
2, 103640, Note_off_c, 1, 66, 0
2, 103680, Note_on_c, 1, 66, 127
2, 103760, Note_on_c, 1, 81, 127
2, 104120, Note_off_c, 1, 66, 0
2, 104120, Note_off_c, 1, 81, 0
2, 104160, Note_on_c, 1, 62, 127
2, 104160, Note_on_c, 1, 77, 127
2, 104840, Note_off_c, 1, 62, 0
2, 104840, Note_off_c, 1, 77, 0
2, 104880, Note_on_c, 1, 62, 127
2, 104880, Note_on_c, 1, 91, 127
2, 105240, Note_on_c, 1, 79, 127
2, 105240, Note_off_c, 1, 91, 0
2, 105600, Note_off_c, 1, 62, 0
2, 105600, Note_off_c, 1, 79, 0
2, 105640, Note_on_c, 1, 52, 127
2, 105640, Note_on_c, 1, 84, 127
2, 105880, Note_on_c, 1, 46, 127
2, 105880, Note_off_c, 1, 52, 0
2, 105880, Note_off_c, 1, 84, 0
2, 105880, Note_on_c, 1, 86, 127
2, 105880, Note_on_c, 1, 91, 127
2, 105920, Note_on_c, 1, 45, 127
2, 105920, Note_off_c, 1, 46, 0
2, 105920, Note_on_c, 1, 47, 127
2, 105920, Note_on_c, 1, 57, 127
2, 105920, Note_on_c, 1, 63, 127
2, 105920, Note_on_c, 1, 66, 127
2, 105920, Note_on_c, 1, 71, 127
2, 105920, Note_on_c, 1, 75, 127
2, 105920, Note_off_c, 1, 86, 0
2, 105920, Note_off_c, 1, 91, 0
2, 105960, Note_off_c, 1, 45, 0
2, 105960, Note_off_c, 1, 47, 0
2, 105960, Note_off_c, 1, 57, 0
2, 105960, Note_off_c, 1, 63, 0
2, 105960, Note_off_c, 1, 66, 0
2, 105960, Note_off_c, 1, 71, 0
2, 105960, Note_off_c, 1, 75, 0
2, 106000, Note_on_c, 1, 41, 127
2, 106000, Note_on_c, 1, 45, 127
2, 106000, Note_on_c, 1, 61, 127
2, 106000, Note_on_c, 1, 64, 127
2, 106000, Note_on_c, 1, 67, 127
2, 106000, Note_on_c, 1, 69, 127
2, 106040, Note_off_c, 1, 41, 0
2, 106040, Note_off_c, 1, 45, 0
2, 106040, Note_off_c, 1, 61, 0
2, 106040, Note_off_c, 1, 64, 0
2, 106040, Note_off_c, 1, 69, 0
2, 106040, Note_on_c, 1, 78, 127
2, 106040, Note_on_c, 1, 82, 127
2, 106040, Note_on_c, 1, 85, 127
2, 106040, Note_on_c, 1, 90, 127
2, 106080, Note_on_c, 1, 47, 127
2, 106080, Note_on_c, 1, 57, 127
2, 106080, Note_off_c, 1, 67, 0
2, 106080, Note_off_c, 1, 78, 0
2, 106080, Note_off_c, 1, 82, 0
2, 106080, Note_off_c, 1, 85, 0
2, 106080, Note_on_c, 1, 87, 127
2, 106080, Note_off_c, 1, 90, 0
2, 106120, Note_off_c, 1, 47, 0
2, 106120, Note_on_c, 1, 48, 127
2, 106120, Note_off_c, 1, 57, 0
2, 106120, Note_on_c, 1, 76, 127
2, 106120, Note_on_c, 1, 86, 127
2, 106120, Note_off_c, 1, 87, 0
2, 106120, Note_on_c, 1, 89, 127
2, 106160, Note_off_c, 1, 48, 0
2, 106160, Note_on_c, 1, 52, 127
2, 106160, Note_on_c, 1, 60, 127
2, 106160, Note_on_c, 1, 68, 127
2, 106160, Note_off_c, 1, 76, 0
2, 106160, Note_on_c, 1, 80, 127
2, 106160, Note_off_c, 1, 86, 0
2, 106160, Note_off_c, 1, 89, 0
2, 106200, Note_on_c, 1, 48, 127
2, 106200, Note_off_c, 1, 52, 0
2, 106200, Note_off_c, 1, 60, 0
2, 106200, Note_off_c, 1, 68, 0
2, 106200, Note_on_c, 1, 76, 127
2, 106200, Note_off_c, 1, 80, 0
2, 106200, Note_on_c, 1, 86, 127
2, 106200, Note_on_c, 1, 89, 127
2, 106240, Note_on_c, 1, 44, 127
2, 106240, Note_off_c, 1, 48, 0
2, 106240, Note_on_c, 1, 49, 127
2, 106240, Note_on_c, 1, 71, 127
2, 106240, Note_on_c, 1, 83, 127
2, 106240, Note_off_c, 1, 86, 0
2, 106240, Note_off_c, 1, 89, 0
2, 106280, Note_off_c, 1, 44, 0
2, 106280, Note_off_c, 1, 49, 0
2, 106280, Note_on_c, 1, 56, 127
2, 106280, Note_on_c, 1, 61, 127
2, 106280, Note_on_c, 1, 64, 127
2, 106280, Note_off_c, 1, 71, 0
2, 106280, Note_on_c, 1, 73, 127
2, 106280, Note_on_c, 1, 80, 127
2, 106280, Note_off_c, 1, 83, 0
2, 106280, Note_on_c, 1, 85, 127
2, 106320, Note_on_c, 1, 48, 127
2, 106320, Note_off_c, 1, 56, 0
2, 106320, Note_off_c, 1, 61, 0
2, 106320, Note_off_c, 1, 64, 0
2, 106320, Note_off_c, 1, 73, 0
2, 106320, Note_off_c, 1, 80, 0
2, 106320, Note_off_c, 1, 85, 0
2, 106320, Note_on_c, 1, 86, 127
2, 106320, Note_on_c, 1, 89, 127
2, 106360, Note_off_c, 1, 48, 0
2, 106360, Note_off_c, 1, 76, 0
2, 106360, Note_off_c, 1, 86, 0
2, 106360, Note_off_c, 1, 89, 0
2, 106400, Note_on_c, 1, 64, 127
2, 106400, Note_on_c, 1, 84, 127
2, 107080, Note_on_c, 1, 57, 127
2, 107080, Note_on_c, 1, 73, 127
2, 107080, Note_off_c, 1, 84, 0
2, 107120, Note_on_c, 1, 34, 127
2, 107120, Note_on_c, 1, 41, 127
2, 107120, Note_on_c, 1, 55, 127
2, 107120, Note_off_c, 1, 57, 0
2, 107120, Note_on_c, 1, 58, 127
2, 107120, Note_on_c, 1, 60, 127
2, 107120, Note_off_c, 1, 64, 0
2, 107120, Note_off_c, 1, 73, 0
2, 107120, Note_on_c, 1, 82, 127
2, 107120, Note_on_c, 1, 86, 127
2, 107160, Note_off_c, 1, 34, 0
2, 107160, Note_off_c, 1, 41, 0
2, 107160, Note_on_c, 1, 43, 127
2, 107160, Note_off_c, 1, 55, 0
2, 107160, Note_off_c, 1, 58, 0
2, 107160, Note_off_c, 1, 60, 0
2, 107160, Note_on_c, 1, 65, 127
2, 107160, Note_on_c, 1, 74, 127
2, 107160, Note_on_c, 1, 80, 127
2, 107160, Note_off_c, 1, 82, 0
2, 107160, Note_off_c, 1, 86, 0
2, 107200, Note_off_c, 1, 43, 0
2, 107200, Note_off_c, 1, 65, 0
2, 107200, Note_off_c, 1, 74, 0
2, 107200, Note_off_c, 1, 80, 0
2, 107200, Note_on_c, 1, 83, 127
2, 107200, Note_on_c, 1, 89, 127
2, 107200, Note_on_c, 1, 101, 127
2, 107240, Note_on_c, 1, 43, 127
2, 107240, Note_on_c, 1, 65, 127
2, 107240, Note_on_c, 1, 74, 127
2, 107240, Note_on_c, 1, 80, 127
2, 107240, Note_off_c, 1, 83, 0
2, 107240, Note_off_c, 1, 89, 0
2, 107240, Note_off_c, 1, 101, 0
2, 107480, Note_off_c, 1, 43, 0
2, 107480, Note_off_c, 1, 65, 0
2, 107480, Note_off_c, 1, 74, 0
2, 107480, Note_off_c, 1, 80, 0
2, 107520, Note_on_c, 1, 36, 127
2, 107520, Note_on_c, 1, 39, 127
2, 107520, Note_on_c, 1, 44, 127
2, 107520, Note_on_c, 1, 60, 127
2, 107520, Note_on_c, 1, 72, 127
2, 107560, Note_on_c, 1, 28, 127
2, 107560, Note_off_c, 1, 36, 0
2, 107560, Note_off_c, 1, 39, 0
2, 107560, Note_on_c, 1, 40, 127
2, 107560, Note_off_c, 1, 44, 0
2, 107560, Note_off_c, 1, 60, 0
2, 107560, Note_on_c, 1, 77, 127
2, 107560, Note_on_c, 1, 89, 127
2, 107600, Note_off_c, 1, 28, 0
2, 107600, Note_off_c, 1, 40, 0
2, 107600, Note_on_c, 1, 48, 127
2, 107600, Note_on_c, 1, 64, 127
2, 107600, Note_off_c, 1, 77, 0
2, 107600, Note_on_c, 1, 79, 127
2, 107600, Note_off_c, 1, 89, 0
2, 107640, Note_off_c, 1, 48, 0
2, 107640, Note_on_c, 1, 55, 127
2, 107640, Note_off_c, 1, 64, 0
2, 107640, Note_off_c, 1, 72, 0
2, 107640, Note_on_c, 1, 75, 127
2, 107640, Note_off_c, 1, 79, 0
2, 107640, Note_on_c, 1, 82, 127
2, 107640, Note_on_c, 1, 85, 127
2, 107680, Note_on_c, 1, 28, 127
2, 107680, Note_on_c, 1, 40, 127
2, 107680, Note_off_c, 1, 55, 0
2, 107680, Note_on_c, 1, 72, 127
2, 107680, Note_off_c, 1, 75, 0
2, 107680, Note_on_c, 1, 77, 127
2, 107680, Note_off_c, 1, 82, 0
2, 107680, Note_off_c, 1, 85, 0
2, 107680, Note_on_c, 1, 89, 127
2, 107880, Note_off_c, 1, 28, 0
2, 107880, Note_off_c, 1, 40, 0
2, 107880, Note_off_c, 1, 77, 0
2, 107880, Note_off_c, 1, 89, 0
2, 108160, Note_off_c, 1, 72, 0
2, 108200, Note_on_c, 1, 72, 127
2, 108280, Note_off_c, 1, 72, 0
2, 108320, Note_on_c, 1, 44, 127
2, 108320, Note_on_c, 1, 68, 127
2, 108680, Note_off_c, 1, 44, 0
2, 108720, Note_on_c, 1, 44, 127
2, 109040, Note_off_c, 1, 44, 0
2, 109080, Note_on_c, 1, 53, 127
2, 109400, Note_off_c, 1, 53, 0
2, 109440, Note_on_c, 1, 53, 127
2, 109800, Note_off_c, 1, 53, 0
2, 109800, Note_off_c, 1, 68, 0
2, 109840, Note_on_c, 1, 60, 127
2, 109840, Note_on_c, 1, 74, 127
2, 109840, Note_on_c, 1, 78, 127
2, 109840, Note_on_c, 1, 81, 127
2, 109840, Note_on_c, 1, 86, 127
2, 109880, Note_on_c, 1, 48, 127
2, 109880, Note_off_c, 1, 60, 0
2, 109880, Note_on_c, 1, 67, 127
2, 109880, Note_on_c, 1, 71, 127
2, 109880, Note_off_c, 1, 74, 0
2, 109880, Note_on_c, 1, 76, 127
2, 109880, Note_off_c, 1, 78, 0
2, 109880, Note_off_c, 1, 81, 0
2, 109880, Note_off_c, 1, 86, 0
2, 109880, Note_on_c, 1, 88, 127
2, 109920, Note_on_c, 1, 32, 127
2, 109920, Note_on_c, 1, 44, 127
2, 109920, Note_off_c, 1, 48, 0
2, 109920, Note_on_c, 1, 60, 127
2, 109920, Note_on_c, 1, 66, 127
2, 109920, Note_off_c, 1, 67, 0
2, 109920, Note_on_c, 1, 68, 127
2, 109920, Note_off_c, 1, 71, 0
2, 109920, Note_off_c, 1, 76, 0
2, 109920, Note_off_c, 1, 88, 0
2, 109960, Note_off_c, 1, 32, 0
2, 109960, Note_off_c, 1, 44, 0
2, 109960, Note_on_c, 1, 48, 127
2, 109960, Note_off_c, 1, 60, 0
2, 109960, Note_off_c, 1, 66, 0
2, 109960, Note_on_c, 1, 67, 127
2, 109960, Note_off_c, 1, 68, 0
2, 109960, Note_on_c, 1, 71, 127
2, 109960, Note_on_c, 1, 76, 127
2, 109960, Note_on_c, 1, 88, 127
2, 110000, Note_on_c, 1, 32, 127
2, 110000, Note_on_c, 1, 44, 127
2, 110000, Note_off_c, 1, 48, 0
2, 110000, Note_on_c, 1, 60, 127
2, 110000, Note_on_c, 1, 66, 127
2, 110000, Note_off_c, 1, 67, 0
2, 110000, Note_on_c, 1, 68, 127
2, 110000, Note_off_c, 1, 71, 0
2, 110000, Note_off_c, 1, 76, 0
2, 110000, Note_off_c, 1, 88, 0
2, 110160, Note_off_c, 1, 32, 0
2, 110160, Note_off_c, 1, 44, 0
2, 110160, Note_off_c, 1, 60, 0
2, 110160, Note_off_c, 1, 66, 0
2, 110160, Note_off_c, 1, 68, 0
2, 110240, Note_on_c, 1, 62, 127
2, 110240, Note_on_c, 1, 66, 127
2, 110240, Note_on_c, 1, 68, 127
2, 110240, Note_on_c, 1, 71, 127
2, 110240, Note_on_c, 1, 78, 127
2, 110240, Note_on_c, 1, 80, 127
2, 110920, Note_off_c, 1, 62, 0
2, 110920, Note_off_c, 1, 66, 0
2, 110920, Note_off_c, 1, 68, 0
2, 110920, Note_off_c, 1, 71, 0
2, 110920, Note_off_c, 1, 78, 0
2, 110920, Note_off_c, 1, 80, 0
2, 110960, Note_on_c, 1, 54, 127
2, 110960, Note_on_c, 1, 61, 127
2, 110960, Note_on_c, 1, 70, 127
2, 110960, Note_on_c, 1, 82, 127
2, 111280, Note_off_c, 1, 61, 0
2, 111320, Note_on_c, 1, 61, 127
2, 111640, Note_off_c, 1, 70, 0
2, 111640, Note_off_c, 1, 82, 0
2, 111680, Note_on_c, 1, 51, 127
2, 111680, Note_off_c, 1, 54, 0
2, 111680, Note_on_c, 1, 56, 127
2, 111680, Note_off_c, 1, 61, 0
2, 111680, Note_on_c, 1, 66, 127
2, 111680, Note_on_c, 1, 72, 127
2, 112040, Note_off_c, 1, 51, 0
2, 112040, Note_off_c, 1, 56, 0
2, 112040, Note_off_c, 1, 66, 0
2, 112040, Note_off_c, 1, 72, 0
2, 112080, Note_on_c, 1, 54, 127
2, 112080, Note_on_c, 1, 61, 127
2, 112080, Note_on_c, 1, 70, 127
2, 112080, Note_on_c, 1, 75, 127
2, 112280, Note_off_c, 1, 54, 0
2, 112280, Note_off_c, 1, 61, 0
2, 112280, Note_off_c, 1, 70, 0
2, 112280, Note_off_c, 1, 75, 0
2, 112320, Note_on_c, 1, 54, 127
2, 112320, Note_on_c, 1, 61, 127
2, 112320, Note_on_c, 1, 70, 127
2, 112320, Note_on_c, 1, 75, 127
2, 113600, Note_off_c, 1, 54, 0
2, 113600, Note_off_c, 1, 61, 0
2, 113600, Note_off_c, 1, 70, 0
2, 113600, Note_off_c, 1, 75, 0
2, 113640, Note_on_c, 1, 54, 127
2, 113640, Note_on_c, 1, 61, 127
2, 113640, Note_on_c, 1, 70, 127
2, 113640, Note_on_c, 1, 82, 127
2, 114360, Note_off_c, 1, 54, 0
2, 114360, Note_off_c, 1, 61, 0
2, 114360, Note_off_c, 1, 70, 0
2, 114360, Note_off_c, 1, 82, 0
2, 114440, Note_on_c, 1, 52, 127
2, 114440, Note_on_c, 1, 59, 127
2, 114440, Note_on_c, 1, 66, 127
2, 114440, Note_on_c, 1, 71, 127
2, 115520, Note_off_c, 1, 52, 0
2, 115520, Note_off_c, 1, 59, 0
2, 115520, Note_on_c, 1, 64, 127
2, 115520, Note_off_c, 1, 66, 0
2, 115520, Note_on_c, 1, 69, 127
2, 115520, Note_off_c, 1, 71, 0
2, 115520, Note_on_c, 1, 73, 127
2, 115560, Note_on_c, 1, 68, 127
2, 115560, Note_off_c, 1, 69, 0
2, 115560, Note_on_c, 1, 71, 127
2, 115560, Note_off_c, 1, 73, 0
2, 115560, Note_on_c, 1, 76, 127
2, 115560, Note_on_c, 1, 83, 127
2, 116240, Note_off_c, 1, 64, 0
2, 116240, Note_off_c, 1, 68, 0
2, 116240, Note_off_c, 1, 71, 0
2, 116240, Note_off_c, 1, 76, 0
2, 116600, Note_off_c, 1, 83, 0
2, 116680, Note_on_c, 1, 61, 127
2, 116680, Note_on_c, 1, 66, 127
2, 116680, Note_on_c, 1, 73, 127
2, 116680, Note_on_c, 1, 82, 127
2, 117400, Note_off_c, 1, 61, 0
2, 117400, Note_off_c, 1, 66, 0
2, 117400, Note_on_c, 1, 69, 127
2, 117400, Note_on_c, 1, 81, 127
2, 117400, Note_off_c, 1, 82, 0
2, 117440, Note_on_c, 1, 61, 127
2, 117440, Note_off_c, 1, 69, 0
2, 117440, Note_on_c, 1, 77, 127
2, 117440, Note_on_c, 1, 79, 127
2, 117440, Note_off_c, 1, 81, 0
2, 117440, Note_on_c, 1, 85, 127
2, 117480, Note_on_c, 1, 49, 127
2, 117480, Note_on_c, 1, 59, 127
2, 117480, Note_off_c, 1, 61, 0
2, 117480, Note_off_c, 1, 73, 0
2, 117480, Note_off_c, 1, 77, 0
2, 117480, Note_off_c, 1, 79, 0
2, 117480, Note_on_c, 1, 80, 127
2, 117480, Note_on_c, 1, 83, 127
2, 117480, Note_off_c, 1, 85, 0
2, 117760, Note_on_c, 1, 37, 127
2, 117760, Note_off_c, 1, 49, 0
2, 117760, Note_off_c, 1, 59, 0
2, 117760, Note_off_c, 1, 80, 0
2, 117760, Note_off_c, 1, 83, 0
2, 117760, Note_on_c, 1, 97, 127
2, 117800, Note_off_c, 1, 37, 0
2, 117800, Note_on_c, 1, 47, 127
2, 117800, Note_on_c, 1, 49, 127
2, 117800, Note_on_c, 1, 52, 127
2, 117800, Note_on_c, 1, 54, 127
2, 117800, Note_on_c, 1, 58, 127
2, 117800, Note_on_c, 1, 76, 127
2, 117800, Note_off_c, 1, 97, 0
2, 117840, Note_off_c, 1, 47, 0
2, 117840, Note_off_c, 1, 49, 0
2, 117840, Note_off_c, 1, 52, 0
2, 117840, Note_off_c, 1, 54, 0
2, 117840, Note_on_c, 1, 56, 127
2, 117840, Note_off_c, 1, 58, 0
2, 117840, Note_on_c, 1, 66, 127
2, 117840, Note_on_c, 1, 72, 127
2, 117840, Note_off_c, 1, 76, 0
2, 117840, Note_on_c, 1, 80, 127
2, 117840, Note_on_c, 1, 84, 127
2, 117880, Note_off_c, 1, 56, 0
2, 117880, Note_on_c, 1, 59, 127
2, 117880, Note_off_c, 1, 66, 0
2, 117880, Note_on_c, 1, 71, 127
2, 117880, Note_off_c, 1, 72, 0
2, 117880, Note_on_c, 1, 73, 127
2, 117880, Note_on_c, 1, 78, 127
2, 117880, Note_off_c, 1, 80, 0
2, 117880, Note_off_c, 1, 84, 0
2, 117920, Note_on_c, 1, 54, 127
2, 117920, Note_off_c, 1, 59, 0
2, 117920, Note_off_c, 1, 71, 0
2, 117920, Note_off_c, 1, 73, 0
2, 117920, Note_on_c, 1, 85, 127
2, 117960, Note_off_c, 1, 54, 0
2, 117960, Note_on_c, 1, 69, 127
2, 117960, Note_off_c, 1, 78, 0
2, 117960, Note_on_c, 1, 90, 127
2, 118000, Note_on_c, 1, 32, 127
2, 118000, Note_on_c, 1, 44, 127
2, 118000, Note_on_c, 1, 64, 127
2, 118000, Note_off_c, 1, 69, 0
2, 118000, Note_on_c, 1, 72, 127
2, 118000, Note_off_c, 1, 85, 0
2, 118000, Note_off_c, 1, 90, 0
2, 118040, Note_off_c, 1, 32, 0
2, 118040, Note_on_c, 1, 34, 127
2, 118040, Note_on_c, 1, 42, 127
2, 118040, Note_off_c, 1, 44, 0
2, 118040, Note_on_c, 1, 46, 127
2, 118040, Note_on_c, 1, 58, 127
2, 118040, Note_on_c, 1, 60, 127
2, 118040, Note_on_c, 1, 63, 127
2, 118040, Note_off_c, 1, 64, 0
2, 118040, Note_on_c, 1, 70, 127
2, 118040, Note_off_c, 1, 72, 0
2, 118080, Note_off_c, 1, 34, 0
2, 118080, Note_off_c, 1, 42, 0
2, 118080, Note_off_c, 1, 46, 0
2, 118080, Note_on_c, 1, 52, 127
2, 118080, Note_on_c, 1, 54, 127
2, 118080, Note_off_c, 1, 58, 0
2, 118080, Note_off_c, 1, 60, 0
2, 118080, Note_off_c, 1, 63, 0
2, 118080, Note_on_c, 1, 64, 127
2, 118080, Note_on_c, 1, 66, 127
2, 118080, Note_off_c, 1, 70, 0
2, 118080, Note_on_c, 1, 78, 127
2, 118120, Note_off_c, 1, 52, 0
2, 118120, Note_off_c, 1, 54, 0
2, 118120, Note_on_c, 1, 56, 127
2, 118120, Note_on_c, 1, 61, 127
2, 118120, Note_off_c, 1, 66, 0
2, 118120, Note_on_c, 1, 70, 127
2, 118120, Note_on_c, 1, 76, 127
2, 118120, Note_off_c, 1, 78, 0
2, 118120, Note_on_c, 1, 79, 127
2, 118120, Note_on_c, 1, 85, 127
2, 118160, Note_off_c, 1, 56, 0
2, 118160, Note_off_c, 1, 61, 0
2, 118160, Note_off_c, 1, 64, 0
2, 118160, Note_off_c, 1, 70, 0
2, 118160, Note_off_c, 1, 76, 0
2, 118160, Note_off_c, 1, 79, 0
2, 118160, Note_off_c, 1, 85, 0
2, 118200, Note_on_c, 1, 55, 127
2, 118200, Note_on_c, 1, 67, 127
2, 118200, Note_on_c, 1, 73, 127
2, 118200, Note_on_c, 1, 82, 127
2, 118200, Note_on_c, 1, 85, 127
2, 118520, Note_on_c, 1, 41, 127
2, 118520, Note_on_c, 1, 53, 127
2, 118520, Note_off_c, 1, 55, 0
2, 118520, Note_off_c, 1, 67, 0
2, 118520, Note_off_c, 1, 73, 0
2, 118520, Note_on_c, 1, 74, 127
2, 118520, Note_off_c, 1, 82, 0
2, 118520, Note_on_c, 1, 83, 127
2, 118520, Note_off_c, 1, 85, 0
2, 118520, Note_on_c, 1, 86, 127
2, 118560, Note_on_c, 1, 40, 127
2, 118560, Note_off_c, 1, 41, 0
2, 118560, Note_on_c, 1, 52, 127
2, 118560, Note_off_c, 1, 53, 0
2, 118560, Note_on_c, 1, 73, 127
2, 118560, Note_off_c, 1, 74, 0
2, 118560, Note_on_c, 1, 82, 127
2, 118560, Note_off_c, 1, 83, 0
2, 118560, Note_on_c, 1, 85, 127
2, 118560, Note_off_c, 1, 86, 0
2, 118600, Note_off_c, 1, 40, 0
2, 118600, Note_off_c, 1, 52, 0
2, 118600, Note_on_c, 1, 53, 127
2, 118600, Note_on_c, 1, 79, 127
2, 118600, Note_off_c, 1, 85, 0
2, 118720, Note_off_c, 1, 53, 0
2, 118720, Note_off_c, 1, 73, 0
2, 118720, Note_off_c, 1, 79, 0
2, 118720, Note_off_c, 1, 82, 0
2, 118760, Note_on_c, 1, 53, 127
2, 118760, Note_on_c, 1, 73, 127
2, 118760, Note_on_c, 1, 79, 127
2, 118760, Note_on_c, 1, 82, 127
2, 118960, Note_off_c, 1, 53, 0
2, 119000, Note_on_c, 1, 56, 127
2, 119000, Note_on_c, 1, 60, 127
2, 119000, Note_off_c, 1, 73, 0
2, 119000, Note_off_c, 1, 79, 0
2, 119360, Note_off_c, 1, 60, 0
2, 119360, Note_off_c, 1, 82, 0
2, 119400, Note_on_c, 1, 52, 127
2, 119400, Note_off_c, 1, 56, 0
2, 119400, Note_on_c, 1, 59, 127
2, 119400, Note_on_c, 1, 80, 127
2, 119400, Note_on_c, 1, 81, 127
2, 119440, Note_off_c, 1, 52, 0
2, 119440, Note_on_c, 1, 63, 127
2, 119440, Note_on_c, 1, 69, 127
2, 119440, Note_on_c, 1, 72, 127
2, 119440, Note_on_c, 1, 78, 127
2, 119440, Note_off_c, 1, 80, 0
2, 119440, Note_off_c, 1, 81, 0
2, 119720, Note_on_c, 1, 52, 127
2, 119720, Note_off_c, 1, 59, 0
2, 119720, Note_off_c, 1, 63, 0
2, 119720, Note_off_c, 1, 69, 0
2, 119720, Note_off_c, 1, 72, 0
2, 119720, Note_off_c, 1, 78, 0
2, 119720, Note_on_c, 1, 81, 127
2, 119720, Note_on_c, 1, 84, 127
2, 119760, Note_off_c, 1, 52, 0
2, 119760, Note_on_c, 1, 61, 127
2, 119760, Note_on_c, 1, 70, 127
2, 119760, Note_off_c, 1, 81, 0
2, 119760, Note_off_c, 1, 84, 0
2, 119760, Note_on_c, 1, 92, 127
2, 119760, Note_on_c, 1, 97, 127
2, 119800, Note_off_c, 1, 61, 0
2, 119800, Note_off_c, 1, 70, 0
2, 119800, Note_on_c, 1, 72, 127
2, 119800, Note_on_c, 1, 77, 127
2, 119800, Note_on_c, 1, 89, 127
2, 119800, Note_off_c, 1, 92, 0
2, 119800, Note_on_c, 1, 93, 127
2, 119800, Note_off_c, 1, 97, 0
2, 119840, Note_on_c, 1, 61, 127
2, 119840, Note_on_c, 1, 70, 127
2, 119840, Note_off_c, 1, 72, 0
2, 119840, Note_off_c, 1, 77, 0
2, 119840, Note_off_c, 1, 89, 0
2, 119840, Note_on_c, 1, 92, 127
2, 119840, Note_off_c, 1, 93, 0
2, 119840, Note_on_c, 1, 97, 127
2, 120000, Note_off_c, 1, 61, 0
2, 120000, Note_off_c, 1, 70, 0
2, 120000, Note_off_c, 1, 92, 0
2, 120000, Note_off_c, 1, 97, 0
2, 120040, End_track
3, 0, Start_track
3, 0, Title_t, "MIDI"
3, 1536, End_track
0, 0, End_of_file
