0, 0, Header, 1, 3, 192
1, 0, Start_track
1, 0, Time_signature, 4, 2, 24, 8
1, 0, Tempo, 500000
1, 120040, End_track
2, 0, Start_track
2, 0, Text_t, "random instrument: random person i dunno whatev"
2, 0, Title_t, "Track 1"
2, 0, Note_on_c, 1, 40, 127
2, 0, Note_on_c, 1, 48, 127
2, 0, Note_on_c, 1, 56, 127
2, 0, Note_on_c, 1, 60, 127
2, 280, Note_off_c, 1, 40, 0
2, 280, Note_off_c, 1, 48, 0
2, 280, Note_off_c, 1, 56, 0
2, 280, Note_off_c, 1, 60, 0
2, 360, Note_on_c, 1, 57, 127
2, 360, Note_on_c, 1, 62, 127
2, 360, Note_on_c, 1, 65, 127
2, 360, Note_on_c, 1, 69, 127
2, 360, Note_on_c, 1, 88, 127
2, 720, Note_off_c, 1, 57, 0
2, 720, Note_on_c, 1, 59, 127
2, 720, Note_on_c, 1, 67, 127
2, 720, Note_off_c, 1, 69, 0
2, 720, Note_off_c, 1, 88, 0
2, 760, Note_on_c, 1, 52, 127
2, 760, Note_on_c, 1, 56, 127
2, 760, Note_off_c, 1, 59, 0
2, 760, Note_off_c, 1, 65, 0
2, 760, Note_off_c, 1, 67, 0
2, 760, Note_on_c, 1, 78, 127
2, 800, Note_on_c, 1, 50, 127
2, 800, Note_off_c, 1, 52, 0
2, 800, Note_off_c, 1, 56, 0
2, 800, Note_on_c, 1, 71, 127
2, 800, Note_on_c, 1, 74, 127
2, 800, Note_off_c, 1, 78, 0
2, 800, Note_on_c, 1, 83, 127
2, 840, Note_off_c, 1, 50, 0
2, 840, Note_on_c, 1, 54, 127
2, 840, Note_on_c, 1, 58, 127
2, 840, Note_off_c, 1, 62, 0
2, 840, Note_on_c, 1, 64, 127
2, 840, Note_on_c, 1, 66, 127
2, 840, Note_off_c, 1, 71, 0
2, 840, Note_off_c, 1, 74, 0
2, 840, Note_on_c, 1, 82, 127
2, 840, Note_off_c, 1, 83, 0
2, 880, Note_on_c, 1, 34, 127
2, 880, Note_off_c, 1, 54, 0
2, 880, Note_off_c, 1, 58, 0
2, 880, Note_on_c, 1, 60, 127
2, 880, Note_on_c, 1, 62, 127
2, 880, Note_off_c, 1, 64, 0
2, 880, Note_off_c, 1, 66, 0
2, 880, Note_on_c, 1, 67, 127
2, 880, Note_off_c, 1, 82, 0
2, 920, Note_off_c, 1, 34, 0
2, 920, Note_off_c, 1, 60, 0
2, 920, Note_off_c, 1, 62, 0
2, 920, Note_off_c, 1, 67, 0
2, 920, Note_on_c, 1, 76, 127
2, 920, Note_on_c, 1, 77, 127
2, 960, Note_on_c, 1, 40, 127
2, 960, Note_on_c, 1, 52, 127
2, 960, Note_on_c, 1, 59, 127
2, 960, Note_on_c, 1, 62, 127
2, 960, Note_on_c, 1, 68, 127
2, 960, Note_off_c, 1, 76, 0
2, 960, Note_off_c, 1, 77, 0
2, 960, Note_on_c, 1, 83, 127
2, 960, Note_on_c, 1, 86, 127
2, 1160, Note_on_c, 1, 80, 127
2, 1160, Note_off_c, 1, 86, 0
2, 1280, Note_off_c, 1, 80, 0
2, 1280, Note_on_c, 1, 86, 127
2, 1320, Note_on_c, 1, 80, 127
2, 1320, Note_off_c, 1, 86, 0
2, 1680, Note_off_c, 1, 80, 0
2, 1680, Note_off_c, 1, 83, 0
2, 1720, Note_on_c, 1, 77, 127
2, 1720, Note_on_c, 1, 80, 127
2, 1760, Note_off_c, 1, 77, 0
2, 1760, Note_off_c, 1, 80, 0
2, 1760, Note_on_c, 1, 83, 127
2, 1760, Note_on_c, 1, 86, 127
2, 1800, Note_on_c, 1, 80, 127
2, 1800, Note_off_c, 1, 86, 0
2, 1840, Note_on_c, 1, 77, 127
2, 1840, Note_off_c, 1, 83, 0
2, 2040, Note_off_c, 1, 77, 0
2, 2040, Note_off_c, 1, 80, 0
2, 2080, Note_on_c, 1, 77, 127
2, 2080, Note_on_c, 1, 80, 127
2, 2200, Note_off_c, 1, 77, 0
2, 2200, Note_off_c, 1, 80, 0
2, 2240, Note_on_c, 1, 74, 127
2, 2240, Note_on_c, 1, 77, 127
2, 2320, Note_off_c, 1, 40, 0
2, 2320, Note_off_c, 1, 52, 0
2, 2320, Note_off_c, 1, 59, 0
2, 2320, Note_off_c, 1, 62, 0
2, 2320, Note_off_c, 1, 68, 0
2, 2320, Note_off_c, 1, 74, 0
2, 2320, Note_off_c, 1, 77, 0
2, 2360, Note_on_c, 1, 40, 127
2, 2360, Note_on_c, 1, 52, 127
2, 2360, Note_on_c, 1, 59, 127
2, 2360, Note_on_c, 1, 62, 127
2, 2360, Note_on_c, 1, 68, 127
2, 2360, Note_on_c, 1, 74, 127
2, 2360, Note_on_c, 1, 77, 127
2, 3040, Note_off_c, 1, 40, 0
2, 3040, Note_off_c, 1, 52, 0
2, 3040, Note_off_c, 1, 59, 0
2, 3040, Note_off_c, 1, 62, 0
2, 3040, Note_off_c, 1, 68, 0
2, 3040, Note_off_c, 1, 74, 0
2, 3040, Note_off_c, 1, 77, 0
2, 3080, Note_on_c, 1, 57, 127
2, 3080, Note_on_c, 1, 64, 127
2, 3080, Note_on_c, 1, 67, 127
2, 3080, Note_on_c, 1, 69, 127
2, 3080, Note_on_c, 1, 73, 127
2, 4080, Note_off_c, 1, 69, 0
2, 4080, Note_off_c, 1, 73, 0
2, 4120, Note_on_c, 1, 69, 127
2, 4120, Note_on_c, 1, 73, 127
2, 4520, Note_off_c, 1, 57, 0
2, 4520, Note_off_c, 1, 64, 0
2, 4520, Note_off_c, 1, 67, 0
2, 4520, Note_off_c, 1, 69, 0
2, 4520, Note_off_c, 1, 73, 0
2, 4560, Note_on_c, 1, 57, 127
2, 4560, Note_on_c, 1, 64, 127
2, 4560, Note_on_c, 1, 67, 127
2, 4560, Note_on_c, 1, 69, 127
2, 4560, Note_on_c, 1, 73, 127
2, 4680, Note_off_c, 1, 57, 0
2, 4680, Note_off_c, 1, 64, 0
2, 4680, Note_off_c, 1, 73, 0
2, 4720, Note_on_c, 1, 57, 127
2, 4720, Note_on_c, 1, 64, 127
2, 6720, Note_off_c, 1, 57, 0
2, 6720, Note_off_c, 1, 64, 0
2, 6720, Note_off_c, 1, 67, 0
2, 6720, Note_off_c, 1, 69, 0
2, 6760, Note_on_c, 1, 62, 127
2, 6760, Note_on_c, 1, 66, 127
2, 6760, Note_on_c, 1, 69, 127
2, 6760, Note_on_c, 1, 74, 127
2, 7040, Note_off_c, 1, 62, 0
2, 7040, Note_off_c, 1, 66, 0
2, 7040, Note_off_c, 1, 69, 0
2, 7040, Note_off_c, 1, 74, 0
2, 7080, Note_on_c, 1, 62, 127
2, 7080, Note_on_c, 1, 66, 127
2, 7080, Note_on_c, 1, 69, 127
2, 7080, Note_on_c, 1, 74, 127
2, 8400, Note_on_c, 1, 48, 127
2, 8400, Note_off_c, 1, 62, 0
2, 8400, Note_on_c, 1, 64, 127
2, 8400, Note_off_c, 1, 66, 0
2, 8400, Note_on_c, 1, 73, 127
2, 8400, Note_off_c, 1, 74, 0
2, 8440, Note_off_c, 1, 48, 0
2, 8440, Note_off_c, 1, 64, 0
2, 8440, Note_off_c, 1, 69, 0
2, 8440, Note_off_c, 1, 73, 0
2, 8440, Note_on_c, 1, 81, 127
2, 8440, Note_on_c, 1, 84, 127
2, 8440, Note_on_c, 1, 88, 127
2, 8480, Note_off_c, 1, 81, 0
2, 8480, Note_off_c, 1, 84, 0
2, 8480, Note_off_c, 1, 88, 0
2, 8520, Note_on_c, 1, 43, 127
2, 8520, Note_on_c, 1, 67, 127
2, 8520, Note_on_c, 1, 71, 127
2, 8520, Note_on_c, 1, 74, 127
2, 9240, Note_off_c, 1, 43, 0
2, 9280, Note_off_c, 1, 67, 0
2, 9280, Note_off_c, 1, 71, 0
2, 9280, Note_off_c, 1, 74, 0
2, 9320, Note_on_c, 1, 52, 127
2, 9320, Note_on_c, 1, 67, 127
2, 9320, Note_on_c, 1, 71, 127
2, 9600, Note_off_c, 1, 52, 0
2, 9600, Note_off_c, 1, 67, 0
2, 9600, Note_off_c, 1, 71, 0
2, 9640, Note_on_c, 1, 52, 127
2, 9640, Note_on_c, 1, 67, 127
2, 9640, Note_on_c, 1, 71, 127
2, 10120, Note_off_c, 1, 52, 0
2, 10120, Note_off_c, 1, 67, 0
2, 10120, Note_off_c, 1, 71, 0
2, 10160, Note_on_c, 1, 55, 127
2, 10160, Note_on_c, 1, 61, 127
2, 10160, Note_on_c, 1, 67, 127
2, 10160, Note_on_c, 1, 69, 127
2, 10720, Note_off_c, 1, 55, 0
2, 10720, Note_off_c, 1, 61, 0
2, 10720, Note_off_c, 1, 67, 0
2, 10720, Note_off_c, 1, 69, 0
2, 10760, Note_on_c, 1, 52, 127
2, 10760, Note_on_c, 1, 57, 127
2, 10760, Note_on_c, 1, 69, 127
2, 11360, Note_off_c, 1, 52, 0
2, 11360, Note_off_c, 1, 57, 0
2, 11360, Note_off_c, 1, 69, 0
2, 11400, Note_on_c, 1, 57, 127
2, 11400, Note_on_c, 1, 60, 127
2, 11400, Note_on_c, 1, 69, 127
2, 11400, Note_on_c, 1, 72, 127
2, 11800, Note_off_c, 1, 57, 0
2, 11840, Note_off_c, 1, 60, 0
2, 11840, Note_off_c, 1, 69, 0
2, 11840, Note_off_c, 1, 72, 0
2, 11880, Note_on_c, 1, 47, 127
2, 11880, Note_on_c, 1, 55, 127
2, 11880, Note_on_c, 1, 65, 127
2, 11880, Note_on_c, 1, 67, 127
2, 11880, Note_on_c, 1, 74, 127
2, 12240, Note_off_c, 1, 47, 0
2, 12240, Note_off_c, 1, 55, 0
2, 12240, Note_off_c, 1, 65, 0
2, 12240, Note_off_c, 1, 67, 0
2, 12240, Note_off_c, 1, 74, 0
2, 12280, Note_on_c, 1, 48, 127
2, 12280, Note_on_c, 1, 55, 127
2, 12280, Note_on_c, 1, 64, 127
2, 12280, Note_on_c, 1, 67, 127
2, 12280, Note_on_c, 1, 76, 127
2, 12840, Note_off_c, 1, 64, 0
2, 12840, Note_off_c, 1, 67, 0
2, 12840, Note_on_c, 1, 84, 127
2, 12880, Note_on_c, 1, 64, 127
2, 12880, Note_on_c, 1, 67, 127
2, 12880, Note_off_c, 1, 84, 0
2, 13080, Note_off_c, 1, 48, 0
2, 13080, Note_off_c, 1, 55, 0
2, 13080, Note_off_c, 1, 64, 0
2, 13080, Note_off_c, 1, 67, 0
2, 13080, Note_off_c, 1, 76, 0
2, 13120, Note_on_c, 1, 45, 127
2, 13120, Note_on_c, 1, 57, 127
2, 13120, Note_on_c, 1, 61, 127
2, 13120, Note_on_c, 1, 64, 127
2, 13120, Note_on_c, 1, 69, 127
2, 13840, Note_off_c, 1, 45, 0
2, 13840, Note_off_c, 1, 57, 0
2, 13840, Note_off_c, 1, 61, 0
2, 13840, Note_off_c, 1, 64, 0
2, 13840, Note_off_c, 1, 69, 0
2, 13880, Note_on_c, 1, 38, 127
2, 13880, Note_on_c, 1, 50, 127
2, 13880, Note_on_c, 1, 55, 127
2, 13880, Note_on_c, 1, 67, 127
2, 14040, Note_off_c, 1, 38, 0
2, 14040, Note_off_c, 1, 50, 0
2, 14040, Note_off_c, 1, 55, 0
2, 14040, Note_off_c, 1, 67, 0
2, 14080, Note_on_c, 1, 38, 127
2, 14080, Note_on_c, 1, 50, 127
2, 14080, Note_on_c, 1, 55, 127
2, 14080, Note_on_c, 1, 67, 127
2, 14680, Note_off_c, 1, 38, 0
2, 14680, Note_off_c, 1, 50, 0
2, 14720, Note_on_c, 1, 38, 127
2, 14720, Note_on_c, 1, 50, 127
2, 15240, Note_off_c, 1, 38, 0
2, 15240, Note_off_c, 1, 50, 0
2, 15240, Note_off_c, 1, 55, 0
2, 15240, Note_off_c, 1, 67, 0
2, 16080, Note_on_c, 1, 57, 127
2, 16080, Note_on_c, 1, 60, 127
2, 16080, Note_on_c, 1, 63, 127
2, 16080, Note_on_c, 1, 72, 127
2, 16080, Note_on_c, 1, 78, 127
2, 16080, Note_on_c, 1, 83, 127
2, 16160, Note_off_c, 1, 63, 0
2, 16160, Note_off_c, 1, 72, 0
2, 16160, Note_off_c, 1, 78, 0
2, 16160, Note_off_c, 1, 83, 0
2, 16200, Note_on_c, 1, 88, 127
2, 16240, Note_on_c, 1, 76, 127
2, 16240, Note_off_c, 1, 88, 0
2, 16280, Note_off_c, 1, 76, 0
2, 16320, Note_on_c, 1, 74, 127
2, 16440, Note_off_c, 1, 74, 0
2, 16480, Note_off_c, 1, 57, 0
2, 16480, Note_off_c, 1, 60, 0
2, 16520, Note_on_c, 1, 57, 127
2, 16520, Note_on_c, 1, 60, 127
2, 16520, Note_on_c, 1, 74, 127
2, 16880, Note_off_c, 1, 74, 0
2, 16920, Note_on_c, 1, 74, 127
2, 17240, Note_off_c, 1, 60, 0
2, 17280, Note_on_c, 1, 64, 127
2, 17280, Note_off_c, 1, 74, 0
2, 17280, Note_on_c, 1, 76, 127
2, 18040, Note_off_c, 1, 57, 0
2, 18040, Note_off_c, 1, 64, 0
2, 18040, Note_off_c, 1, 76, 0
2, 18080, Note_on_c, 1, 52, 127
2, 18080, Note_on_c, 1, 55, 127
2, 18080, Note_on_c, 1, 76, 127
2, 18080, Note_on_c, 1, 79, 127
2, 18840, Note_off_c, 1, 52, 0
2, 18840, Note_off_c, 1, 55, 0
2, 18840, Note_off_c, 1, 76, 0
2, 18840, Note_off_c, 1, 79, 0
2, 18880, Note_on_c, 1, 52, 127
2, 18920, Note_on_c, 1, 55, 127
2, 18920, Note_on_c, 1, 76, 127
2, 18920, Note_on_c, 1, 79, 127
2, 19080, Note_off_c, 1, 76, 0
2, 19080, Note_off_c, 1, 79, 0
2, 19120, Note_on_c, 1, 79, 127
2, 19280, Note_off_c, 1, 79, 0
2, 19320, Note_off_c, 1, 55, 0
2, 19320, Note_on_c, 1, 58, 127
2, 19320, Note_on_c, 1, 72, 127
2, 19480, Note_off_c, 1, 58, 0
2, 19520, Note_on_c, 1, 60, 127
2, 19680, Note_off_c, 1, 52, 0
2, 19680, Note_off_c, 1, 60, 0
2, 19680, Note_off_c, 1, 72, 0
2, 19720, Note_on_c, 1, 52, 127
2, 19720, Note_on_c, 1, 69, 127
2, 19720, Note_on_c, 1, 72, 127
2, 20080, Note_off_c, 1, 69, 0
2, 20080, Note_off_c, 1, 72, 0
2, 20120, Note_on_c, 1, 67, 127
2, 20120, Note_on_c, 1, 71, 127
2, 20480, Note_off_c, 1, 52, 0
2, 20480, Note_off_c, 1, 67, 0
2, 20480, Note_off_c, 1, 71, 0
2, 20520, Note_on_c, 1, 57, 127
2, 20520, Note_on_c, 1, 66, 127
2, 20520, Note_on_c, 1, 74, 127
2, 21040, Note_off_c, 1, 57, 0
2, 21040, Note_off_c, 1, 66, 0
2, 21040, Note_off_c, 1, 74, 0
2, 21080, Note_on_c, 1, 57, 127
2, 21080, Note_on_c, 1, 66, 127
2, 21080, Note_on_c, 1, 74, 127
2, 21280, Note_off_c, 1, 66, 0
2, 21320, Note_on_c, 1, 72, 127
2, 21480, Note_off_c, 1, 74, 0
2, 21520, Note_on_c, 1, 66, 127
2, 21880, Note_off_c, 1, 66, 0
2, 21920, Note_on_c, 1, 65, 127
2, 22080, Note_off_c, 1, 65, 0
2, 22080, Note_off_c, 1, 72, 0
2, 22120, Note_on_c, 1, 66, 127
2, 22120, Note_on_c, 1, 72, 127
2, 23080, Note_off_c, 1, 66, 0
2, 23120, Note_off_c, 1, 57, 0
2, 23120, Note_off_c, 1, 72, 0
2, 23160, Note_on_c, 1, 57, 127
2, 23160, Note_on_c, 1, 64, 127
2, 23160, Note_on_c, 1, 72, 127
2, 25360, Note_off_c, 1, 57, 0
2, 25360, Note_off_c, 1, 64, 0
2, 25360, Note_off_c, 1, 72, 0
2, 25400, Note_on_c, 1, 57, 127
2, 25400, Note_on_c, 1, 64, 127
2, 25400, Note_on_c, 1, 72, 127
2, 25720, Note_off_c, 1, 64, 0
2, 25760, Note_on_c, 1, 64, 127
2, 26520, Note_off_c, 1, 57, 0
2, 26520, Note_off_c, 1, 64, 0
2, 26520, Note_off_c, 1, 72, 0
2, 26560, Note_on_c, 1, 64, 127
2, 26560, Note_on_c, 1, 66, 127
2, 27320, Note_off_c, 1, 64, 0
2, 27320, Note_off_c, 1, 66, 0
2, 27360, Note_on_c, 1, 43, 127
2, 27360, Note_on_c, 1, 72, 127
2, 27760, Note_off_c, 1, 43, 0
2, 27760, Note_off_c, 1, 72, 0
2, 27800, Note_on_c, 1, 43, 127
2, 27800, Note_on_c, 1, 72, 127
2, 28520, Note_off_c, 1, 43, 0
2, 28560, Note_on_c, 1, 43, 127
2, 28560, Note_on_c, 1, 63, 127
2, 29280, Note_off_c, 1, 43, 0
2, 30120, Note_off_c, 1, 63, 0
2, 30120, Note_off_c, 1, 72, 0
2, 30160, Note_on_c, 1, 63, 127
2, 30160, Note_on_c, 1, 72, 127
2, 30480, Note_off_c, 1, 63, 0
2, 30480, Note_off_c, 1, 72, 0
2, 30520, Note_on_c, 1, 67, 127
2, 30520, Note_on_c, 1, 71, 127
2, 31680, Note_off_c, 1, 67, 0
2, 31680, Note_off_c, 1, 71, 0
2, 31720, Note_on_c, 1, 55, 127
2, 31720, Note_on_c, 1, 67, 127
2, 31720, Note_on_c, 1, 71, 127
2, 32400, Note_off_c, 1, 55, 0
2, 32400, Note_off_c, 1, 67, 0
2, 32400, Note_off_c, 1, 71, 0
2, 32440, Note_on_c, 1, 55, 127
2, 32440, Note_on_c, 1, 67, 127
2, 32440, Note_on_c, 1, 71, 127
2, 33280, Note_off_c, 1, 55, 0
2, 33280, Note_off_c, 1, 67, 0
2, 33280, Note_off_c, 1, 71, 0
2, 33320, Note_on_c, 1, 59, 127
2, 33320, Note_on_c, 1, 67, 127
2, 33320, Note_on_c, 1, 74, 127
2, 34480, Note_off_c, 1, 59, 0
2, 34480, Note_off_c, 1, 67, 0
2, 34480, Note_off_c, 1, 74, 0
2, 34520, Note_on_c, 1, 59, 127
2, 34520, Note_on_c, 1, 67, 127
2, 34520, Note_on_c, 1, 74, 127
2, 34880, Note_off_c, 1, 74, 0
2, 34880, Note_on_c, 1, 75, 127
2, 35640, Note_off_c, 1, 67, 0
2, 35640, Note_off_c, 1, 75, 0
2, 35680, Note_on_c, 1, 67, 127
2, 36240, Note_off_c, 1, 59, 0
2, 36240, Note_off_c, 1, 67, 0
2, 36280, Note_on_c, 1, 62, 127
2, 36280, Note_on_c, 1, 66, 127
2, 36280, Note_on_c, 1, 78, 127
2, 36680, Note_off_c, 1, 62, 0
2, 36680, Note_off_c, 1, 66, 0
2, 36680, Note_off_c, 1, 78, 0
2, 36720, Note_on_c, 1, 62, 127
2, 36720, Note_on_c, 1, 66, 127
2, 36720, Note_on_c, 1, 78, 127
2, 36880, Note_off_c, 1, 78, 0
2, 36920, Note_on_c, 1, 74, 127
2, 38840, Note_off_c, 1, 62, 0
2, 38840, Note_off_c, 1, 66, 0
2, 38840, Note_off_c, 1, 74, 0
2, 38880, Note_on_c, 1, 62, 127
2, 38880, Note_on_c, 1, 66, 127
2, 38880, Note_on_c, 1, 74, 127
2, 40760, Note_off_c, 1, 66, 0
2, 41160, Note_off_c, 1, 62, 0
2, 41160, Note_off_c, 1, 74, 0
2, 41200, Note_on_c, 1, 62, 127
2, 41200, Note_on_c, 1, 74, 127
2, 43240, Note_off_c, 1, 62, 0
2, 43240, Note_off_c, 1, 74, 0
2, 43280, Note_on_c, 1, 63, 127
2, 43280, Note_on_c, 1, 75, 127
2, 43680, Note_off_c, 1, 63, 0
2, 43680, Note_off_c, 1, 75, 0
2, 43720, Note_on_c, 1, 63, 127
2, 43720, Note_on_c, 1, 75, 127
2, 44640, Note_off_c, 1, 63, 0
2, 44640, Note_off_c, 1, 75, 0
2, 44680, Note_on_c, 1, 62, 127
2, 44680, Note_on_c, 1, 74, 127
2, 45200, Note_off_c, 1, 62, 0
2, 45200, Note_on_c, 1, 63, 127
2, 45200, Note_off_c, 1, 74, 0
2, 45200, Note_on_c, 1, 75, 127
2, 45240, Note_off_c, 1, 63, 0
2, 45240, Note_off_c, 1, 75, 0
2, 45280, Note_on_c, 1, 64, 127
2, 45280, Note_on_c, 1, 76, 127
2, 45800, Note_off_c, 1, 64, 0
2, 45800, Note_off_c, 1, 76, 0
2, 45840, Note_on_c, 1, 65, 127
2, 45840, Note_on_c, 1, 77, 127
2, 46040, Note_off_c, 1, 65, 0
2, 46040, Note_off_c, 1, 77, 0
2, 46080, Note_on_c, 1, 65, 127
2, 46080, Note_on_c, 1, 77, 127
2, 46400, Note_off_c, 1, 65, 0
2, 46400, Note_off_c, 1, 77, 0
2, 46440, Note_on_c, 1, 62, 127
2, 46440, Note_on_c, 1, 74, 127
2, 48160, Note_off_c, 1, 62, 0
2, 48160, Note_off_c, 1, 74, 0
2, 48200, Note_on_c, 1, 64, 127
2, 48200, Note_on_c, 1, 76, 127
2, 48400, Note_off_c, 1, 64, 0
2, 48400, Note_off_c, 1, 76, 0
2, 48440, Note_on_c, 1, 64, 127
2, 48440, Note_on_c, 1, 76, 127
2, 48760, Note_off_c, 1, 64, 0
2, 48760, Note_off_c, 1, 76, 0
2, 48800, Note_on_c, 1, 62, 127
2, 48800, Note_on_c, 1, 74, 127
2, 50800, Note_off_c, 1, 62, 0
2, 50800, Note_off_c, 1, 74, 0
2, 50840, Note_on_c, 1, 62, 127
2, 50840, Note_on_c, 1, 74, 127
2, 51160, Note_off_c, 1, 62, 0
2, 51160, Note_off_c, 1, 74, 0
2, 51200, Note_on_c, 1, 60, 127
2, 51200, Note_on_c, 1, 72, 127
2, 51720, Note_off_c, 1, 60, 0
2, 51720, Note_off_c, 1, 72, 0
2, 51760, Note_on_c, 1, 45, 127
2, 51760, Note_on_c, 1, 69, 127
2, 52320, Note_off_c, 1, 45, 0
2, 52360, Note_on_c, 1, 52, 127
2, 52880, Note_off_c, 1, 52, 0
2, 52880, Note_off_c, 1, 69, 0
2, 52920, Note_on_c, 1, 52, 127
2, 52920, Note_on_c, 1, 69, 127
2, 52960, Note_off_c, 1, 52, 0
2, 53520, Note_off_c, 1, 69, 0
2, 53560, Note_on_c, 1, 79, 127
2, 54680, Note_off_c, 1, 79, 0
2, 54720, Note_on_c, 1, 77, 127
2, 54920, Note_off_c, 1, 77, 0
2, 54960, Note_on_c, 1, 77, 127
2, 55320, Note_off_c, 1, 77, 0
2, 55360, Note_on_c, 1, 76, 127
2, 55880, Note_off_c, 1, 76, 0
2, 55920, Note_on_c, 1, 48, 127
2, 56840, Note_off_c, 1, 48, 0
2, 56880, Note_on_c, 1, 57, 127
2, 57040, Note_off_c, 1, 57, 0
2, 57040, Note_on_c, 1, 58, 127
2, 57080, Note_off_c, 1, 58, 0
2, 57120, Note_on_c, 1, 58, 127
2, 57840, Note_on_c, 1, 57, 127
2, 57840, Note_off_c, 1, 58, 0
2, 59040, Note_on_c, 1, 55, 127
2, 59040, Note_off_c, 1, 57, 0
2, 59160, Note_off_c, 1, 55, 0
2, 59200, Note_on_c, 1, 55, 127
2, 61480, Note_off_c, 1, 55, 0
2, 61560, Note_on_c, 1, 55, 127
2, 62560, Note_on_c, 1, 48, 127
2, 62560, Note_off_c, 1, 55, 0
2, 63160, Note_on_c, 1, 50, 127
2, 63880, Note_off_c, 1, 48, 0
2, 63880, Note_off_c, 1, 50, 0
2, 63920, Note_on_c, 1, 48, 127
2, 63920, Note_on_c, 1, 50, 127
2, 64000, Note_off_c, 1, 50, 0
2, 64240, Note_off_c, 1, 48, 0
2, 66160, Note_on_c, 1, 55, 127
2, 66160, Note_on_c, 1, 59, 127
2, 66160, Note_on_c, 1, 67, 127
2, 66160, Note_on_c, 1, 76, 127
2, 66720, Note_off_c, 1, 55, 0
2, 66720, Note_off_c, 1, 59, 0
2, 66720, Note_off_c, 1, 67, 0
2, 66720, Note_off_c, 1, 76, 0
2, 66760, Note_on_c, 1, 74, 127
2, 67320, Note_off_c, 1, 74, 0
2, 67360, Note_on_c, 1, 59, 127
2, 67360, Note_on_c, 1, 62, 127
2, 67360, Note_on_c, 1, 67, 127
2, 67880, Note_off_c, 1, 59, 0
2, 67880, Note_off_c, 1, 62, 0
2, 67880, Note_off_c, 1, 67, 0
2, 67880, Note_on_c, 1, 69, 127
2, 68320, Note_off_c, 1, 69, 0
2, 68360, Note_on_c, 1, 69, 127
2, 69480, Note_off_c, 1, 69, 0
2, 69520, Note_on_c, 1, 71, 127
2, 70080, Note_off_c, 1, 71, 0
2, 70120, Note_on_c, 1, 71, 127
2, 70200, Note_off_c, 1, 71, 0
2, 70400, Note_on_c, 1, 68, 127
2, 70680, Note_off_c, 1, 68, 0
2, 70760, Note_on_c, 1, 59, 127
2, 70760, Note_on_c, 1, 62, 127
2, 70760, Note_on_c, 1, 69, 127
2, 71280, Note_off_c, 1, 59, 0
2, 71280, Note_off_c, 1, 62, 0
2, 71320, Note_on_c, 1, 45, 127
2, 71840, Note_off_c, 1, 45, 0
2, 71840, Note_off_c, 1, 69, 0
2, 73080, Note_on_c, 1, 66, 127
2, 73640, Note_on_c, 1, 74, 127
2, 74240, Note_on_c, 1, 47, 127
2, 74720, Note_off_c, 1, 47, 0
2, 74720, Note_on_c, 1, 55, 127
2, 74720, Note_on_c, 1, 58, 127
2, 74720, Note_on_c, 1, 62, 127
2, 74720, Note_off_c, 1, 66, 0
2, 74720, Note_on_c, 1, 67, 127
2, 74720, Note_on_c, 1, 70, 127
2, 74720, Note_off_c, 1, 74, 0
2, 74760, Note_on_c, 1, 47, 127
2, 74760, Note_off_c, 1, 55, 0
2, 74760, Note_off_c, 1, 58, 0
2, 74760, Note_off_c, 1, 62, 0
2, 74760, Note_on_c, 1, 66, 127
2, 74760, Note_off_c, 1, 67, 0
2, 74760, Note_off_c, 1, 70, 0
2, 74760, Note_on_c, 1, 74, 127
2, 74800, Note_off_c, 1, 47, 0
2, 74800, Note_on_c, 1, 52, 127
2, 75360, Note_off_c, 1, 52, 0
2, 75560, Note_off_c, 1, 66, 0
2, 75560, Note_off_c, 1, 74, 0
2, 75600, Note_on_c, 1, 66, 127
2, 75600, Note_on_c, 1, 74, 127
2, 75680, Note_off_c, 1, 66, 0
2, 75680, Note_off_c, 1, 74, 0
2, 75720, Note_on_c, 1, 73, 127
2, 75960, Note_off_c, 1, 73, 0
2, 76000, Note_on_c, 1, 62, 127
2, 76000, Note_on_c, 1, 74, 127
2, 76520, Note_off_c, 1, 62, 0
2, 76520, Note_off_c, 1, 74, 0
2, 76560, Note_on_c, 1, 73, 127
2, 77120, Note_off_c, 1, 73, 0
2, 77160, Note_on_c, 1, 62, 127
2, 77160, Note_on_c, 1, 71, 127
2, 77920, Note_off_c, 1, 62, 0
2, 77920, Note_off_c, 1, 71, 0
2, 77960, Note_on_c, 1, 62, 127
2, 77960, Note_on_c, 1, 71, 127
2, 78280, Note_off_c, 1, 62, 0
2, 78280, Note_off_c, 1, 71, 0
2, 78320, Note_on_c, 1, 59, 127
2, 78320, Note_on_c, 1, 71, 127
2, 78880, Note_off_c, 1, 59, 0
2, 78880, Note_off_c, 1, 71, 0
2, 78920, Note_on_c, 1, 50, 127
2, 78920, Note_on_c, 1, 78, 127
2, 79440, Note_off_c, 1, 50, 0
2, 79440, Note_off_c, 1, 78, 0
2, 79480, Note_on_c, 1, 55, 127
2, 79480, Note_on_c, 1, 76, 127
2, 79920, Note_off_c, 1, 76, 0
2, 79960, Note_on_c, 1, 78, 127
2, 80000, Note_on_c, 1, 76, 127
2, 80000, Note_off_c, 1, 78, 0
2, 80040, Note_off_c, 1, 55, 0
2, 80040, Note_off_c, 1, 76, 0
2, 80080, Note_on_c, 1, 76, 127
2, 80120, Note_on_c, 1, 61, 127
2, 80120, Note_on_c, 1, 78, 127
2, 80160, Note_off_c, 1, 78, 0
2, 80640, Note_off_c, 1, 61, 0
2, 80640, Note_off_c, 1, 76, 0
2, 80680, Note_on_c, 1, 59, 127
2, 80680, Note_on_c, 1, 74, 127
2, 81240, Note_off_c, 1, 59, 0
2, 81240, Note_off_c, 1, 74, 0
2, 81280, Note_on_c, 1, 62, 127
2, 81280, Note_on_c, 1, 76, 127
2, 81800, Note_off_c, 1, 62, 0
2, 81800, Note_off_c, 1, 76, 0
2, 81840, Note_on_c, 1, 64, 127
2, 81840, Note_on_c, 1, 76, 127
2, 82240, Note_off_c, 1, 64, 0
2, 82240, Note_off_c, 1, 76, 0
2, 82280, Note_on_c, 1, 64, 127
2, 82280, Note_on_c, 1, 76, 127
2, 82440, Note_off_c, 1, 64, 0
2, 82480, Note_on_c, 1, 59, 127
2, 83000, Note_off_c, 1, 76, 0
2, 83040, Note_off_c, 1, 59, 0
2, 83080, Note_on_c, 1, 50, 127
2, 83080, Note_on_c, 1, 74, 127
2, 83640, Note_off_c, 1, 50, 0
2, 83680, Note_on_c, 1, 57, 127
2, 84240, Note_off_c, 1, 57, 0
2, 84280, Note_on_c, 1, 45, 127
2, 84480, Note_off_c, 1, 45, 0
2, 84480, Note_off_c, 1, 74, 0
2, 84520, Note_on_c, 1, 45, 127
2, 84520, Note_on_c, 1, 74, 127
2, 84880, Note_off_c, 1, 45, 0
2, 84880, Note_off_c, 1, 74, 0
2, 84920, Note_on_c, 1, 35, 127
2, 84920, Note_on_c, 1, 74, 127
2, 85480, Note_off_c, 1, 35, 0
2, 85480, Note_off_c, 1, 74, 0
2, 85520, Note_on_c, 1, 45, 127
2, 85520, Note_on_c, 1, 74, 127
2, 86080, Note_off_c, 1, 45, 0
2, 86120, Note_on_c, 1, 52, 127
2, 86680, Note_off_c, 1, 52, 0
2, 86680, Note_off_c, 1, 74, 0
2, 86760, Note_on_c, 1, 57, 127
2, 86760, Note_on_c, 1, 72, 127
2, 87080, Note_off_c, 1, 57, 0
2, 87120, Note_on_c, 1, 60, 127
2, 87440, Note_off_c, 1, 60, 0
2, 87480, Note_on_c, 1, 42, 127
2, 87840, Note_off_c, 1, 42, 0
2, 88040, Note_off_c, 1, 72, 0
2, 88080, Note_on_c, 1, 71, 127
2, 88640, Note_off_c, 1, 71, 0
2, 88680, Note_on_c, 1, 47, 127
2, 89000, Note_off_c, 1, 47, 0
2, 89040, Note_on_c, 1, 47, 127
2, 89280, Note_off_c, 1, 47, 0
2, 89320, Note_on_c, 1, 45, 127
2, 89680, Note_off_c, 1, 45, 0
2, 89720, Note_on_c, 1, 50, 127
2, 90080, Note_off_c, 1, 50, 0
2, 90120, Note_on_c, 1, 54, 127
2, 90480, Note_off_c, 1, 54, 0
2, 90520, Note_on_c, 1, 55, 127
2, 91040, Note_off_c, 1, 55, 0
2, 91080, Note_on_c, 1, 54, 127
2, 91280, Note_off_c, 1, 54, 0
2, 91320, Note_on_c, 1, 54, 127
2, 91680, Note_off_c, 1, 54, 0
2, 91720, Note_on_c, 1, 54, 127
2, 92080, Note_off_c, 1, 54, 0
2, 92120, Note_on_c, 1, 50, 127
2, 92480, Note_off_c, 1, 50, 0
2, 92520, Note_on_c, 1, 59, 127
2, 93280, Note_on_c, 1, 54, 127
2, 93280, Note_off_c, 1, 59, 0
2, 93320, Note_on_c, 1, 51, 127
2, 93320, Note_off_c, 1, 54, 0
2, 93400, Note_off_c, 1, 51, 0
2, 93440, Note_on_c, 1, 51, 127
2, 93480, Note_off_c, 1, 51, 0
2, 93520, Note_on_c, 1, 55, 127
2, 94440, Note_off_c, 1, 55, 0
2, 94480, Note_on_c, 1, 59, 127
2, 95040, Note_on_c, 1, 58, 127
2, 95040, Note_off_c, 1, 59, 0
2, 95240, Note_off_c, 1, 58, 0
2, 95240, Note_on_c, 1, 59, 127
2, 95400, Note_off_c, 1, 59, 0
2, 95440, Note_on_c, 1, 59, 127
2, 96440, Note_on_c, 1, 48, 127
2, 96440, Note_off_c, 1, 59, 0
2, 97040, Note_on_c, 1, 47, 127
2, 97040, Note_off_c, 1, 48, 0
2, 97200, Note_off_c, 1, 47, 0
2, 97240, Note_on_c, 1, 47, 127
2, 97560, Note_off_c, 1, 47, 0
2, 97600, Note_on_c, 1, 47, 127
2, 97840, Note_off_c, 1, 47, 0
2, 97880, Note_on_c, 1, 38, 127
2, 98440, Note_off_c, 1, 38, 0
2, 98480, Note_on_c, 1, 47, 127
2, 99000, Note_off_c, 1, 47, 0
2, 99040, Note_on_c, 1, 52, 127
2, 99600, Note_off_c, 1, 52, 0
2, 99640, Note_on_c, 1, 57, 127
2, 99840, Note_off_c, 1, 57, 0
2, 99880, Note_on_c, 1, 57, 127
2, 100200, Note_off_c, 1, 57, 0
2, 100240, Note_on_c, 1, 55, 127
2, 100800, Note_off_c, 1, 55, 0
2, 100840, Note_on_c, 1, 57, 127
2, 101760, Note_off_c, 1, 57, 0
2, 101800, Note_on_c, 1, 50, 127
2, 102040, Note_off_c, 1, 50, 0
2, 102080, Note_on_c, 1, 50, 127
2, 102360, Note_off_c, 1, 50, 0
2, 102400, Note_on_c, 1, 50, 127
2, 102960, Note_off_c, 1, 50, 0
2, 103000, Note_on_c, 1, 54, 127
2, 103520, Note_off_c, 1, 54, 0
2, 103560, Note_on_c, 1, 55, 127
2, 104120, Note_off_c, 1, 55, 0
2, 104200, Note_on_c, 1, 54, 127
2, 104560, Note_off_c, 1, 54, 0
2, 104600, Note_on_c, 1, 55, 127
2, 104960, Note_off_c, 1, 55, 0
2, 105000, Note_on_c, 1, 50, 127
2, 105360, Note_off_c, 1, 50, 0
2, 105400, Note_on_c, 1, 53, 127
2, 105760, Note_off_c, 1, 53, 0
2, 105800, Note_on_c, 1, 52, 127
2, 106160, Note_off_c, 1, 52, 0
2, 106200, Note_on_c, 1, 50, 127
2, 106360, Note_off_c, 1, 50, 0
2, 106440, Note_on_c, 1, 50, 127
2, 106760, Note_off_c, 1, 50, 0
2, 106800, Note_on_c, 1, 40, 127
2, 106800, Note_on_c, 1, 67, 127
2, 108520, Note_off_c, 1, 67, 0
2, 108560, Note_off_c, 1, 40, 0
2, 108600, Note_on_c, 1, 40, 127
2, 108920, Note_off_c, 1, 40, 0
2, 108920, Note_on_c, 1, 41, 127
2, 109720, Note_off_c, 1, 41, 0
2, 109760, Note_on_c, 1, 40, 127
2, 110280, Note_off_c, 1, 40, 0
2, 110320, Note_on_c, 1, 52, 127
2, 110720, Note_off_c, 1, 52, 0
2, 110760, Note_on_c, 1, 52, 127
2, 111080, Note_off_c, 1, 52, 0
2, 111120, Note_on_c, 1, 52, 127
2, 111880, Note_off_c, 1, 52, 0
2, 111920, Note_on_c, 1, 60, 127
2, 112480, Note_off_c, 1, 60, 0
2, 112520, Note_on_c, 1, 57, 127
2, 113040, Note_off_c, 1, 57, 0
2, 113120, Note_on_c, 1, 59, 127
2, 113640, Note_off_c, 1, 59, 0
2, 113680, Note_on_c, 1, 57, 127
2, 114200, Note_off_c, 1, 57, 0
2, 114240, Note_on_c, 1, 60, 127
2, 114800, Note_off_c, 1, 60, 0
2, 114840, Note_on_c, 1, 59, 127
2, 115400, Note_off_c, 1, 59, 0
2, 115480, Note_on_c, 1, 60, 127
2, 115800, Note_off_c, 1, 60, 0
2, 115800, Note_on_c, 1, 61, 127
2, 115840, Note_on_c, 1, 60, 127
2, 115840, Note_off_c, 1, 61, 0
2, 116200, Note_off_c, 1, 60, 0
2, 116240, Note_on_c, 1, 59, 127
2, 116800, Note_off_c, 1, 59, 0
2, 116840, Note_on_c, 1, 56, 127
2, 117400, Note_off_c, 1, 56, 0
2, 117440, Note_on_c, 1, 48, 127
2, 117640, Note_off_c, 1, 48, 0
2, 117680, Note_on_c, 1, 48, 127
2, 118200, Note_off_c, 1, 48, 0
2, 118240, Note_on_c, 1, 43, 127
2, 119160, Note_off_c, 1, 43, 0
2, 119200, Note_on_c, 1, 43, 127
2, 120000, Note_off_c, 1, 43, 0
2, 120040, End_track
3, 0, Start_track
3, 0, Title_t, "MIDI"
3, 1536, End_track
0, 0, End_of_file
