0, 0, Header, 1, 3, 192
1, 0, Start_track
1, 0, Time_signature, 4, 2, 24, 8
1, 0, Tempo, 500000
1, 120040, End_track
2, 0, Start_track
2, 0, Text_t, "random instrument: random person i dunno whatev"
2, 0, Title_t, "Track 1"
2, 0, Note_on_c, 1, 40, 127
2, 0, Note_on_c, 1, 48, 127
2, 0, Note_on_c, 1, 56, 127
2, 0, Note_on_c, 1, 60, 127
2, 280, Note_off_c, 1, 40, 0
2, 280, Note_off_c, 1, 48, 0
2, 280, Note_off_c, 1, 56, 0
2, 280, Note_off_c, 1, 60, 0
2, 320, Note_on_c, 1, 45, 127
2, 320, Note_on_c, 1, 71, 127
2, 320, Note_on_c, 1, 79, 127
2, 480, Note_off_c, 1, 45, 0
2, 480, Note_off_c, 1, 71, 0
2, 480, Note_on_c, 1, 76, 127
2, 480, Note_off_c, 1, 79, 0
2, 520, Note_off_c, 1, 76, 0
2, 560, Note_on_c, 1, 45, 127
2, 560, Note_on_c, 1, 71, 127
2, 560, Note_on_c, 1, 79, 127
2, 680, Note_off_c, 1, 45, 0
2, 680, Note_off_c, 1, 71, 0
2, 680, Note_off_c, 1, 79, 0
2, 720, Note_on_c, 1, 33, 127
2, 720, Note_on_c, 1, 69, 127
2, 720, Note_on_c, 1, 81, 127
2, 1080, Note_off_c, 1, 33, 0
2, 1080, Note_off_c, 1, 69, 0
2, 1080, Note_off_c, 1, 81, 0
2, 1120, Note_on_c, 1, 45, 127
2, 1120, Note_on_c, 1, 76, 127
2, 1120, Note_on_c, 1, 79, 127
2, 1440, Note_off_c, 1, 45, 0
2, 1480, Note_on_c, 1, 45, 127
2, 1640, Note_off_c, 1, 45, 0
2, 1840, Note_off_c, 1, 76, 0
2, 1840, Note_off_c, 1, 79, 0
2, 1880, Note_on_c, 1, 45, 127
2, 1880, Note_on_c, 1, 76, 127
2, 1880, Note_on_c, 1, 79, 127
2, 2200, Note_off_c, 1, 45, 0
2, 2200, Note_off_c, 1, 76, 0
2, 2200, Note_off_c, 1, 79, 0
2, 2240, Note_on_c, 1, 45, 127
2, 2240, Note_on_c, 1, 78, 127
2, 2240, Note_on_c, 1, 81, 127
2, 2400, Note_off_c, 1, 78, 0
2, 2400, Note_off_c, 1, 81, 0
2, 2440, Note_on_c, 1, 78, 127
2, 2440, Note_on_c, 1, 81, 127
2, 2520, Note_off_c, 1, 78, 0
2, 2520, Note_off_c, 1, 81, 0
2, 2640, Note_off_c, 1, 45, 0
2, 2680, Note_on_c, 1, 45, 127
2, 2680, Note_on_c, 1, 78, 127
2, 2680, Note_on_c, 1, 81, 127
2, 2800, Note_off_c, 1, 78, 0
2, 2800, Note_off_c, 1, 81, 0
2, 2840, Note_on_c, 1, 78, 127
2, 2840, Note_on_c, 1, 81, 127
2, 3000, Note_off_c, 1, 78, 0
2, 3000, Note_off_c, 1, 81, 0
2, 3040, Note_on_c, 1, 52, 127
2, 3040, Note_on_c, 1, 69, 127
2, 3040, Note_on_c, 1, 72, 127
2, 3200, Note_off_c, 1, 69, 0
2, 3200, Note_off_c, 1, 72, 0
2, 3240, Note_on_c, 1, 71, 127
2, 3240, Note_on_c, 1, 74, 127
2, 3360, Note_off_c, 1, 45, 0
2, 3360, Note_off_c, 1, 52, 0
2, 3360, Note_off_c, 1, 71, 0
2, 3360, Note_off_c, 1, 74, 0
2, 3400, Note_on_c, 1, 45, 127
2, 3400, Note_on_c, 1, 52, 127
2, 3400, Note_on_c, 1, 71, 127
2, 3400, Note_on_c, 1, 74, 127
2, 3560, Note_off_c, 1, 71, 0
2, 3560, Note_off_c, 1, 74, 0
2, 3600, Note_on_c, 1, 71, 127
2, 3600, Note_on_c, 1, 74, 127
2, 3720, Note_off_c, 1, 45, 0
2, 3720, Note_on_c, 1, 47, 127
2, 3720, Note_off_c, 1, 52, 0
2, 3720, Note_off_c, 1, 71, 0
2, 3720, Note_off_c, 1, 74, 0
2, 3760, Note_on_c, 1, 40, 127
2, 3760, Note_on_c, 1, 73, 127
2, 3920, Note_off_c, 1, 73, 0
2, 3960, Note_on_c, 1, 73, 127
2, 4080, Note_off_c, 1, 73, 0
2, 4160, Note_on_c, 1, 73, 127
2, 4280, Note_off_c, 1, 73, 0
2, 4320, Note_on_c, 1, 73, 127
2, 4480, Note_off_c, 1, 40, 0
2, 4480, Note_off_c, 1, 47, 0
2, 4480, Note_off_c, 1, 73, 0
2, 4520, Note_on_c, 1, 47, 127
2, 4520, Note_on_c, 1, 62, 127
2, 4520, Note_on_c, 1, 78, 127
2, 4560, Note_on_c, 1, 71, 127
2, 4680, Note_off_c, 1, 62, 0
2, 4680, Note_off_c, 1, 71, 0
2, 4680, Note_off_c, 1, 78, 0
2, 4720, Note_off_c, 1, 47, 0
2, 4760, Note_on_c, 1, 47, 127
2, 4760, Note_on_c, 1, 62, 127
2, 4760, Note_on_c, 1, 71, 127
2, 4760, Note_on_c, 1, 78, 127
2, 4880, Note_off_c, 1, 62, 0
2, 4880, Note_off_c, 1, 71, 0
2, 4880, Note_off_c, 1, 78, 0
2, 4920, Note_on_c, 1, 64, 127
2, 4920, Note_on_c, 1, 79, 127
2, 4960, Note_on_c, 1, 62, 127
2, 4960, Note_off_c, 1, 64, 0
2, 4960, Note_on_c, 1, 71, 127
2, 4960, Note_on_c, 1, 78, 127
2, 4960, Note_off_c, 1, 79, 0
2, 5040, Note_off_c, 1, 62, 0
2, 5040, Note_off_c, 1, 71, 0
2, 5040, Note_off_c, 1, 78, 0
2, 5080, Note_on_c, 1, 64, 127
2, 5080, Note_on_c, 1, 79, 127
2, 5120, Note_on_c, 1, 62, 127
2, 5120, Note_off_c, 1, 64, 0
2, 5120, Note_on_c, 1, 71, 127
2, 5120, Note_on_c, 1, 78, 127
2, 5120, Note_off_c, 1, 79, 0
2, 5160, Note_off_c, 1, 62, 0
2, 5160, Note_on_c, 1, 64, 127
2, 5160, Note_off_c, 1, 78, 0
2, 5160, Note_on_c, 1, 79, 127
2, 5200, Note_on_c, 1, 62, 127
2, 5200, Note_off_c, 1, 64, 0
2, 5200, Note_on_c, 1, 78, 127
2, 5200, Note_off_c, 1, 79, 0
2, 5240, Note_off_c, 1, 62, 0
2, 5240, Note_off_c, 1, 71, 0
2, 5240, Note_off_c, 1, 78, 0
2, 5280, Note_on_c, 1, 62, 127
2, 5280, Note_on_c, 1, 78, 127
2, 5400, Note_off_c, 1, 62, 0
2, 5400, Note_on_c, 1, 71, 127
2, 5400, Note_off_c, 1, 78, 0
2, 5440, Note_on_c, 1, 64, 127
2, 5440, Note_off_c, 1, 71, 0
2, 5440, Note_on_c, 1, 79, 127
2, 5480, Note_on_c, 1, 62, 127
2, 5480, Note_off_c, 1, 64, 0
2, 5480, Note_on_c, 1, 71, 127
2, 5480, Note_on_c, 1, 78, 127
2, 5480, Note_off_c, 1, 79, 0
2, 5600, Note_off_c, 1, 62, 0
2, 5600, Note_off_c, 1, 71, 0
2, 5600, Note_off_c, 1, 78, 0
2, 5640, Note_on_c, 1, 64, 127
2, 5640, Note_on_c, 1, 71, 127
2, 5640, Note_on_c, 1, 76, 127
2, 5960, Note_off_c, 1, 47, 0
2, 5960, Note_off_c, 1, 64, 0
2, 5960, Note_off_c, 1, 71, 0
2, 5960, Note_off_c, 1, 76, 0
2, 6000, Note_on_c, 1, 35, 127
2, 6200, Note_on_c, 1, 71, 127
2, 6680, Note_off_c, 1, 35, 0
2, 6720, Note_on_c, 1, 35, 127
2, 6920, Note_off_c, 1, 35, 0
2, 6920, Note_off_c, 1, 71, 0
2, 6960, Note_on_c, 1, 35, 127
2, 6960, Note_on_c, 1, 71, 127
2, 7480, Note_off_c, 1, 35, 0
2, 7480, Note_off_c, 1, 71, 0
2, 7520, Note_on_c, 1, 47, 127
2, 7840, Note_off_c, 1, 47, 0
2, 7880, Note_on_c, 1, 71, 127
2, 8200, Note_off_c, 1, 71, 0
2, 8240, Note_on_c, 1, 76, 127
2, 8560, Note_off_c, 1, 76, 0
2, 8600, Note_on_c, 1, 75, 127
2, 8920, Note_off_c, 1, 75, 0
2, 8960, Note_on_c, 1, 47, 127
2, 9040, Note_off_c, 1, 47, 0
2, 9080, Note_on_c, 1, 47, 127
2, 9120, Note_off_c, 1, 47, 0
2, 9160, Note_on_c, 1, 78, 127
2, 9320, Note_off_c, 1, 78, 0
2, 9360, Note_on_c, 1, 76, 127
2, 9680, Note_off_c, 1, 76, 0
2, 9720, Note_on_c, 1, 59, 127
2, 9720, Note_on_c, 1, 75, 127
2, 10040, Note_off_c, 1, 59, 0
2, 10040, Note_off_c, 1, 75, 0
2, 10080, Note_on_c, 1, 63, 127
2, 10080, Note_on_c, 1, 75, 127
2, 10400, Note_off_c, 1, 63, 0
2, 10400, Note_off_c, 1, 75, 0
2, 10440, Note_on_c, 1, 69, 127
2, 10440, Note_on_c, 1, 76, 127
2, 10760, Note_off_c, 1, 69, 0
2, 10760, Note_off_c, 1, 76, 0
2, 10800, Note_on_c, 1, 59, 127
2, 10800, Note_on_c, 1, 75, 127
2, 11120, Note_off_c, 1, 59, 0
2, 11120, Note_off_c, 1, 75, 0
2, 11160, Note_on_c, 1, 44, 127
2, 11160, Note_on_c, 1, 72, 127
2, 11160, Note_on_c, 1, 75, 127
2, 11360, Note_off_c, 1, 44, 0
2, 11360, Note_off_c, 1, 72, 0
2, 11360, Note_off_c, 1, 75, 0
2, 11400, Note_on_c, 1, 44, 127
2, 11400, Note_on_c, 1, 72, 127
2, 11400, Note_on_c, 1, 75, 127
2, 11520, Note_off_c, 1, 44, 0
2, 11560, Note_on_c, 1, 56, 127
2, 11880, Note_off_c, 1, 56, 0
2, 11880, Note_off_c, 1, 72, 0
2, 11880, Note_off_c, 1, 75, 0
2, 11920, Note_on_c, 1, 61, 127
2, 11920, Note_on_c, 1, 73, 127
2, 11920, Note_on_c, 1, 76, 127
2, 12240, Note_off_c, 1, 61, 0
2, 12240, Note_off_c, 1, 73, 0
2, 12240, Note_off_c, 1, 76, 0
2, 12280, Note_on_c, 1, 54, 127
2, 12280, Note_on_c, 1, 73, 127
2, 12280, Note_on_c, 1, 76, 127
2, 12600, Note_off_c, 1, 54, 0
2, 12600, Note_off_c, 1, 73, 0
2, 12600, Note_off_c, 1, 76, 0
2, 12640, Note_on_c, 1, 56, 127
2, 12640, Note_on_c, 1, 72, 127
2, 12640, Note_on_c, 1, 75, 127
2, 12960, Note_off_c, 1, 56, 0
2, 12960, Note_off_c, 1, 72, 0
2, 12960, Note_off_c, 1, 75, 0
2, 13000, Note_on_c, 1, 75, 127
2, 13000, Note_on_c, 1, 78, 127
2, 13360, Note_off_c, 1, 75, 0
2, 13360, Note_off_c, 1, 78, 0
2, 13400, Note_on_c, 1, 37, 127
2, 13400, Note_on_c, 1, 49, 127
2, 13640, Note_off_c, 1, 37, 0
2, 13640, Note_off_c, 1, 49, 0
2, 13680, Note_on_c, 1, 37, 127
2, 13680, Note_on_c, 1, 49, 127
2, 13800, Note_on_c, 1, 71, 127
2, 14120, Note_off_c, 1, 37, 0
2, 14120, Note_off_c, 1, 49, 0
2, 14120, Note_off_c, 1, 71, 0
2, 14160, Note_on_c, 1, 38, 127
2, 14160, Note_on_c, 1, 50, 127
2, 14160, Note_on_c, 1, 78, 127
2, 14480, Note_off_c, 1, 38, 0
2, 14480, Note_off_c, 1, 50, 0
2, 14480, Note_off_c, 1, 78, 0
2, 14520, Note_on_c, 1, 38, 127
2, 14520, Note_on_c, 1, 50, 127
2, 14520, Note_on_c, 1, 74, 127
2, 14840, Note_off_c, 1, 38, 0
2, 14840, Note_off_c, 1, 50, 0
2, 14840, Note_off_c, 1, 74, 0
2, 14880, Note_on_c, 1, 38, 127
2, 14880, Note_on_c, 1, 50, 127
2, 15240, Note_off_c, 1, 38, 0
2, 15240, Note_off_c, 1, 50, 0
2, 15280, Note_on_c, 1, 37, 127
2, 15280, Note_on_c, 1, 49, 127
2, 15600, Note_off_c, 1, 37, 0
2, 15600, Note_off_c, 1, 49, 0
2, 15640, Note_on_c, 1, 68, 127
2, 15640, Note_on_c, 1, 74, 127
2, 15640, Note_on_c, 1, 76, 127
2, 15960, Note_off_c, 1, 68, 0
2, 15960, Note_off_c, 1, 74, 0
2, 15960, Note_off_c, 1, 76, 0
2, 16040, Note_on_c, 1, 61, 127
2, 16040, Note_on_c, 1, 70, 127
2, 16040, Note_on_c, 1, 76, 127
2, 16360, Note_off_c, 1, 61, 0
2, 16360, Note_off_c, 1, 70, 0
2, 16360, Note_off_c, 1, 76, 0
2, 16400, Note_on_c, 1, 59, 127
2, 16400, Note_on_c, 1, 66, 127
2, 16400, Note_on_c, 1, 75, 127
2, 16720, Note_off_c, 1, 59, 0
2, 16720, Note_off_c, 1, 66, 0
2, 16720, Note_off_c, 1, 75, 0
2, 16760, Note_on_c, 1, 55, 127
2, 16760, Note_on_c, 1, 67, 127
2, 16760, Note_on_c, 1, 83, 127
2, 17080, Note_off_c, 1, 55, 0
2, 17080, Note_off_c, 1, 67, 0
2, 17080, Note_off_c, 1, 83, 0
2, 17120, Note_on_c, 1, 54, 127
2, 17120, Note_on_c, 1, 66, 127
2, 17120, Note_on_c, 1, 81, 127
2, 17280, Note_off_c, 1, 81, 0
2, 17320, Note_on_c, 1, 77, 127
2, 17440, Note_off_c, 1, 54, 0
2, 17440, Note_off_c, 1, 66, 0
2, 17440, Note_off_c, 1, 77, 0
2, 17480, Note_on_c, 1, 52, 127
2, 17480, Note_on_c, 1, 64, 127
2, 17480, Note_on_c, 1, 66, 127
2, 17480, Note_on_c, 1, 68, 127
2, 17520, Note_off_c, 1, 52, 0
2, 17520, Note_on_c, 1, 57, 127
2, 17520, Note_off_c, 1, 64, 0
2, 17520, Note_off_c, 1, 68, 0
2, 17520, Note_on_c, 1, 88, 127
2, 17840, Note_off_c, 1, 57, 0
2, 17840, Note_off_c, 1, 66, 0
2, 17840, Note_off_c, 1, 88, 0
2, 17880, Note_on_c, 1, 59, 127
2, 17880, Note_on_c, 1, 69, 127
2, 17880, Note_on_c, 1, 75, 127
2, 18200, Note_off_c, 1, 59, 0
2, 18200, Note_off_c, 1, 69, 0
2, 18200, Note_off_c, 1, 75, 0
2, 18280, Note_on_c, 1, 59, 127
2, 18280, Note_on_c, 1, 69, 127
2, 18280, Note_on_c, 1, 78, 127
2, 18600, Note_off_c, 1, 59, 0
2, 18600, Note_off_c, 1, 69, 0
2, 18600, Note_off_c, 1, 78, 0
2, 18640, Note_on_c, 1, 64, 127
2, 18640, Note_on_c, 1, 69, 127
2, 18640, Note_on_c, 1, 75, 127
2, 18640, Note_on_c, 1, 78, 127
2, 19320, Note_off_c, 1, 64, 0
2, 19320, Note_off_c, 1, 69, 0
2, 19320, Note_off_c, 1, 75, 0
2, 19320, Note_off_c, 1, 78, 0
2, 19360, Note_on_c, 1, 66, 127
2, 19360, Note_on_c, 1, 70, 127
2, 19360, Note_on_c, 1, 78, 127
2, 19680, Note_off_c, 1, 66, 0
2, 19680, Note_off_c, 1, 70, 0
2, 19680, Note_off_c, 1, 78, 0
2, 19720, Note_on_c, 1, 47, 127
2, 19720, Note_on_c, 1, 66, 127
2, 19720, Note_on_c, 1, 75, 127
2, 20040, Note_off_c, 1, 66, 0
2, 20040, Note_off_c, 1, 75, 0
2, 20080, Note_on_c, 1, 51, 127
2, 20080, Note_on_c, 1, 75, 127
2, 20440, Note_off_c, 1, 51, 0
2, 20480, Note_off_c, 1, 47, 0
2, 20480, Note_off_c, 1, 75, 0
2, 20520, Note_on_c, 1, 47, 127
2, 20520, Note_on_c, 1, 51, 127
2, 20520, Note_on_c, 1, 56, 127
2, 20520, Note_on_c, 1, 75, 127
2, 20840, Note_off_c, 1, 47, 0
2, 20840, Note_off_c, 1, 51, 0
2, 20840, Note_off_c, 1, 56, 0
2, 20840, Note_off_c, 1, 75, 0
2, 20880, Note_on_c, 1, 59, 127
2, 20880, Note_on_c, 1, 75, 127
2, 21200, Note_off_c, 1, 59, 0
2, 21200, Note_off_c, 1, 75, 0
2, 21240, Note_on_c, 1, 52, 127
2, 21240, Note_on_c, 1, 61, 127
2, 21240, Note_on_c, 1, 71, 127
2, 21560, Note_off_c, 1, 61, 0
2, 21560, Note_off_c, 1, 71, 0
2, 21600, Note_on_c, 1, 64, 127
2, 21920, Note_off_c, 1, 64, 0
2, 21960, Note_on_c, 1, 64, 127
2, 22280, Note_off_c, 1, 52, 0
2, 22280, Note_off_c, 1, 64, 0
2, 22320, Note_on_c, 1, 48, 127
2, 22320, Note_on_c, 1, 69, 127
2, 22640, Note_off_c, 1, 48, 0
2, 22680, Note_on_c, 1, 52, 127
2, 22880, Note_off_c, 1, 52, 0
2, 22880, Note_off_c, 1, 69, 0
2, 22920, Note_on_c, 1, 52, 127
2, 22920, Note_on_c, 1, 69, 127
2, 23040, Note_off_c, 1, 69, 0
2, 23080, Note_on_c, 1, 67, 127
2, 23400, Note_off_c, 1, 52, 0
2, 23440, Note_on_c, 1, 52, 127
2, 23760, Note_off_c, 1, 52, 0
2, 23760, Note_off_c, 1, 67, 0
2, 23800, Note_on_c, 1, 54, 127
2, 23800, Note_on_c, 1, 70, 127
2, 24120, Note_off_c, 1, 54, 0
2, 24120, Note_off_c, 1, 70, 0
2, 24160, Note_on_c, 1, 55, 127
2, 24160, Note_on_c, 1, 83, 127
2, 24480, Note_off_c, 1, 55, 0
2, 24520, Note_on_c, 1, 59, 127
2, 24840, Note_off_c, 1, 59, 0
2, 24840, Note_off_c, 1, 83, 0
2, 24880, Note_on_c, 1, 55, 127
2, 24880, Note_on_c, 1, 83, 127
2, 25200, Note_off_c, 1, 83, 0
2, 25240, Note_off_c, 1, 55, 0
2, 25320, Note_on_c, 1, 57, 127
2, 25320, Note_on_c, 1, 81, 127
2, 25640, Note_off_c, 1, 57, 0
2, 25640, Note_off_c, 1, 81, 0
2, 25680, Note_on_c, 1, 52, 127
2, 25680, Note_on_c, 1, 79, 127
2, 26000, Note_off_c, 1, 52, 0
2, 26000, Note_off_c, 1, 79, 0
2, 26040, Note_on_c, 1, 47, 127
2, 26040, Note_on_c, 1, 78, 127
2, 26360, Note_off_c, 1, 47, 0
2, 26360, Note_off_c, 1, 78, 0
2, 26400, Note_on_c, 1, 54, 127
2, 26400, Note_on_c, 1, 83, 127
2, 26760, Note_off_c, 1, 54, 0
2, 26800, Note_on_c, 1, 54, 127
2, 27120, Note_off_c, 1, 54, 0
2, 27120, Note_off_c, 1, 83, 0
2, 27160, Note_on_c, 1, 40, 127
2, 27160, Note_on_c, 1, 78, 127
2, 27480, Note_off_c, 1, 40, 0
2, 27480, Note_off_c, 1, 78, 0
2, 27520, Note_on_c, 1, 40, 127
2, 27520, Note_on_c, 1, 76, 127
2, 27720, Note_off_c, 1, 40, 0
2, 27720, Note_off_c, 1, 76, 0
2, 27760, Note_on_c, 1, 40, 127
2, 27760, Note_on_c, 1, 76, 127
2, 27880, Note_off_c, 1, 40, 0
2, 27920, Note_on_c, 1, 47, 127
2, 28240, Note_off_c, 1, 47, 0
2, 28280, Note_on_c, 1, 40, 127
2, 28600, Note_off_c, 1, 40, 0
2, 28640, Note_on_c, 1, 47, 127
2, 29000, Note_off_c, 1, 47, 0
2, 29040, Note_on_c, 1, 59, 127
2, 29360, Note_off_c, 1, 76, 0
2, 29400, Note_on_c, 1, 47, 127
2, 29400, Note_off_c, 1, 59, 0
2, 29400, Note_on_c, 1, 75, 127
2, 29720, Note_off_c, 1, 47, 0
2, 29720, Note_off_c, 1, 75, 0
2, 29760, Note_on_c, 1, 47, 127
2, 29760, Note_on_c, 1, 76, 127
2, 30080, Note_off_c, 1, 47, 0
2, 30080, Note_off_c, 1, 76, 0
2, 30160, Note_on_c, 1, 47, 127
2, 30160, Note_on_c, 1, 76, 127
2, 30480, Note_off_c, 1, 47, 0
2, 30480, Note_off_c, 1, 76, 0
2, 30520, Note_on_c, 1, 42, 127
2, 30520, Note_on_c, 1, 75, 127
2, 30840, Note_off_c, 1, 42, 0
2, 30840, Note_off_c, 1, 75, 0
2, 30880, Note_on_c, 1, 47, 127
2, 30880, Note_on_c, 1, 76, 127
2, 31200, Note_off_c, 1, 47, 0
2, 31240, Note_on_c, 1, 47, 127
2, 31600, Note_off_c, 1, 47, 0
2, 31600, Note_off_c, 1, 76, 0
2, 31640, Note_on_c, 1, 55, 127
2, 31640, Note_on_c, 1, 78, 127
2, 31960, Note_off_c, 1, 55, 0
2, 31960, Note_off_c, 1, 78, 0
2, 32000, Note_on_c, 1, 64, 127
2, 32000, Note_on_c, 1, 76, 127
2, 32320, Note_off_c, 1, 64, 0
2, 32320, Note_off_c, 1, 76, 0
2, 32400, Note_on_c, 1, 59, 127
2, 32400, Note_on_c, 1, 76, 127
2, 32720, Note_off_c, 1, 59, 0
2, 32720, Note_off_c, 1, 76, 0
2, 32760, Note_on_c, 1, 59, 127
2, 32760, Note_on_c, 1, 74, 127
2, 33080, Note_off_c, 1, 59, 0
2, 33080, Note_off_c, 1, 74, 0
2, 33120, Note_on_c, 1, 45, 127
2, 33120, Note_on_c, 1, 76, 127
2, 33440, Note_off_c, 1, 45, 0
2, 33480, Note_on_c, 1, 47, 127
2, 33840, Note_off_c, 1, 47, 0
2, 33880, Note_on_c, 1, 64, 127
2, 34200, Note_off_c, 1, 64, 0
2, 34240, Note_on_c, 1, 55, 127
2, 34560, Note_off_c, 1, 55, 0
2, 34560, Note_off_c, 1, 76, 0
2, 34640, Note_on_c, 1, 47, 127
2, 34640, Note_on_c, 1, 76, 127
2, 34960, Note_off_c, 1, 47, 0
2, 34960, Note_off_c, 1, 76, 0
2, 35000, Note_on_c, 1, 47, 127
2, 35000, Note_on_c, 1, 74, 127
2, 35320, Note_off_c, 1, 47, 0
2, 35320, Note_off_c, 1, 74, 0
2, 35360, Note_on_c, 1, 47, 127
2, 35360, Note_on_c, 1, 74, 127
2, 35680, Note_off_c, 1, 47, 0
2, 35720, Note_on_c, 1, 52, 127
2, 36040, Note_off_c, 1, 52, 0
2, 36080, Note_on_c, 1, 57, 127
2, 36400, Note_off_c, 1, 57, 0
2, 36440, Note_on_c, 1, 66, 127
2, 36760, Note_off_c, 1, 66, 0
2, 36760, Note_off_c, 1, 74, 0
2, 36800, Note_on_c, 1, 66, 127
2, 36800, Note_on_c, 1, 74, 127
2, 36840, Note_off_c, 1, 66, 0
2, 36880, Note_on_c, 1, 59, 127
2, 37200, Note_off_c, 1, 59, 0
2, 37240, Note_on_c, 1, 38, 127
2, 37560, Note_off_c, 1, 38, 0
2, 37560, Note_off_c, 1, 74, 0
2, 37600, Note_on_c, 1, 50, 127
2, 37600, Note_on_c, 1, 86, 127
2, 37920, Note_off_c, 1, 50, 0
2, 37960, Note_on_c, 1, 66, 127
2, 37960, Note_off_c, 1, 86, 0
2, 37960, Note_on_c, 1, 88, 127
2, 38280, Note_off_c, 1, 66, 0
2, 38280, Note_off_c, 1, 88, 0
2, 38320, Note_on_c, 1, 62, 127
2, 38320, Note_on_c, 1, 85, 127
2, 38640, Note_off_c, 1, 62, 0
2, 38640, Note_off_c, 1, 85, 0
2, 38680, Note_on_c, 1, 66, 127
2, 38680, Note_on_c, 1, 81, 127
2, 38840, Note_off_c, 1, 66, 0
2, 38840, Note_off_c, 1, 81, 0
2, 38880, Note_on_c, 1, 66, 127
2, 38880, Note_on_c, 1, 81, 127
2, 39080, Note_off_c, 1, 66, 0
2, 39120, Note_on_c, 1, 50, 127
2, 39120, Note_on_c, 1, 83, 127
2, 39160, Note_off_c, 1, 83, 0
2, 39440, Note_off_c, 1, 50, 0
2, 39480, Note_on_c, 1, 64, 127
2, 39800, Note_off_c, 1, 81, 0
2, 39840, Note_on_c, 1, 57, 127
2, 39840, Note_off_c, 1, 64, 0
2, 39840, Note_on_c, 1, 84, 127
2, 40000, Note_off_c, 1, 57, 0
2, 40000, Note_on_c, 1, 66, 127
2, 40160, Note_off_c, 1, 66, 0
2, 40160, Note_off_c, 1, 84, 0
2, 40200, Note_on_c, 1, 55, 127
2, 40200, Note_on_c, 1, 83, 127
2, 40520, Note_off_c, 1, 55, 0
2, 40520, Note_off_c, 1, 83, 0
2, 40560, Note_on_c, 1, 66, 127
2, 40560, Note_on_c, 1, 81, 127
2, 40880, Note_off_c, 1, 66, 0
2, 40880, Note_off_c, 1, 81, 0
2, 40920, Note_on_c, 1, 59, 127
2, 40920, Note_on_c, 1, 79, 127
2, 41120, Note_off_c, 1, 59, 0
2, 41120, Note_off_c, 1, 79, 0
2, 41160, Note_on_c, 1, 59, 127
2, 41160, Note_on_c, 1, 79, 127
2, 41280, Note_off_c, 1, 59, 0
2, 41280, Note_off_c, 1, 79, 0
2, 41320, Note_on_c, 1, 62, 127
2, 41320, Note_on_c, 1, 79, 127
2, 41640, Note_off_c, 1, 62, 0
2, 41680, Note_on_c, 1, 67, 127
2, 42040, Note_on_c, 1, 64, 127
2, 42040, Note_off_c, 1, 67, 0
2, 42360, Note_off_c, 1, 64, 0
2, 42360, Note_off_c, 1, 79, 0
2, 42400, Note_on_c, 1, 62, 127
2, 42400, Note_on_c, 1, 78, 127
2, 42720, Note_off_c, 1, 62, 0
2, 42720, Note_off_c, 1, 78, 0
2, 42760, Note_on_c, 1, 67, 127
2, 42760, Note_on_c, 1, 79, 127
2, 43080, Note_off_c, 1, 67, 0
2, 43080, Note_off_c, 1, 79, 0
2, 43120, Note_on_c, 1, 59, 127
2, 43120, Note_on_c, 1, 76, 127
2, 43320, Note_off_c, 1, 59, 0
2, 43320, Note_off_c, 1, 76, 0
2, 43360, Note_on_c, 1, 59, 127
2, 43360, Note_on_c, 1, 76, 127
2, 43480, Note_off_c, 1, 59, 0
2, 43480, Note_off_c, 1, 76, 0
2, 43520, Note_on_c, 1, 65, 127
2, 43520, Note_on_c, 1, 76, 127
2, 43840, Note_off_c, 1, 65, 0
2, 43840, Note_off_c, 1, 76, 0
2, 43880, Note_on_c, 1, 48, 127
2, 43880, Note_on_c, 1, 76, 127
2, 44200, Note_off_c, 1, 48, 0
2, 44240, Note_on_c, 1, 64, 127
2, 44920, Note_off_c, 1, 64, 0
2, 44920, Note_off_c, 1, 76, 0
2, 44960, Note_on_c, 1, 56, 127
2, 44960, Note_on_c, 1, 74, 127
2, 45280, Note_off_c, 1, 56, 0
2, 45320, Note_on_c, 1, 64, 127
2, 45640, Note_off_c, 1, 64, 0
2, 45640, Note_off_c, 1, 74, 0
2, 45680, Note_on_c, 1, 74, 127
2, 45720, Note_on_c, 1, 52, 127
2, 46040, Note_off_c, 1, 52, 0
2, 46040, Note_off_c, 1, 74, 0
2, 46080, Note_on_c, 1, 60, 127
2, 46080, Note_on_c, 1, 72, 127
2, 46400, Note_off_c, 1, 60, 0
2, 46400, Note_off_c, 1, 72, 0
2, 46440, Note_on_c, 1, 64, 127
2, 46440, Note_on_c, 1, 71, 127
2, 46760, Note_off_c, 1, 64, 0
2, 46760, Note_off_c, 1, 71, 0
2, 46800, Note_on_c, 1, 57, 127
2, 46800, Note_on_c, 1, 74, 127
2, 47120, Note_off_c, 1, 57, 0
2, 47120, Note_off_c, 1, 74, 0
2, 47160, Note_on_c, 1, 64, 127
2, 47160, Note_on_c, 1, 72, 127
2, 47480, Note_off_c, 1, 64, 0
2, 47480, Note_off_c, 1, 72, 0
2, 47520, Note_on_c, 1, 48, 127
2, 47520, Note_on_c, 1, 60, 127
2, 47520, Note_on_c, 1, 78, 127
2, 47520, Note_on_c, 1, 81, 127
2, 47520, Note_on_c, 1, 87, 127
2, 47520, Note_on_c, 1, 90, 127
2, 47880, Note_off_c, 1, 48, 0
2, 47880, Note_off_c, 1, 60, 0
2, 47880, Note_off_c, 1, 78, 0
2, 47880, Note_off_c, 1, 81, 0
2, 47880, Note_off_c, 1, 87, 0
2, 47880, Note_off_c, 1, 90, 0
2, 47960, Note_on_c, 1, 64, 127
2, 47960, Note_on_c, 1, 76, 127
2, 48280, Note_off_c, 1, 64, 0
2, 48280, Note_off_c, 1, 76, 0
2, 48320, Note_on_c, 1, 55, 127
2, 48320, Note_on_c, 1, 78, 127
2, 48640, Note_off_c, 1, 55, 0
2, 48640, Note_off_c, 1, 78, 0
2, 48680, Note_on_c, 1, 64, 127
2, 48680, Note_on_c, 1, 78, 127
2, 49000, Note_off_c, 1, 64, 0
2, 49000, Note_off_c, 1, 78, 0
2, 49040, Note_on_c, 1, 52, 127
2, 49040, Note_on_c, 1, 78, 127
2, 49360, Note_off_c, 1, 52, 0
2, 49360, Note_off_c, 1, 78, 0
2, 49400, Note_on_c, 1, 50, 127
2, 49400, Note_on_c, 1, 76, 127
2, 49720, Note_off_c, 1, 50, 0
2, 49720, Note_off_c, 1, 76, 0
2, 49760, Note_on_c, 1, 79, 127
2, 50120, Note_off_c, 1, 79, 0
2, 50160, Note_on_c, 1, 64, 127
2, 50160, Note_on_c, 1, 79, 127
2, 50480, Note_off_c, 1, 64, 0
2, 50480, Note_off_c, 1, 79, 0
2, 50520, Note_on_c, 1, 58, 127
2, 50520, Note_on_c, 1, 79, 127
2, 50840, Note_off_c, 1, 58, 0
2, 50840, Note_off_c, 1, 79, 0
2, 50880, Note_on_c, 1, 57, 127
2, 50880, Note_on_c, 1, 78, 127
2, 51200, Note_off_c, 1, 57, 0
2, 51200, Note_off_c, 1, 78, 0
2, 51240, Note_on_c, 1, 64, 127
2, 51240, Note_on_c, 1, 86, 127
2, 51560, Note_off_c, 1, 64, 0
2, 51560, Note_off_c, 1, 86, 0
2, 51600, Note_on_c, 1, 55, 127
2, 51600, Note_on_c, 1, 88, 127
2, 51920, Note_off_c, 1, 55, 0
2, 52320, Note_off_c, 1, 88, 0
2, 52360, Note_on_c, 1, 60, 127
2, 52360, Note_on_c, 1, 88, 127
2, 52680, Note_off_c, 1, 60, 0
2, 52680, Note_off_c, 1, 88, 0
2, 52720, Note_on_c, 1, 62, 127
2, 52720, Note_on_c, 1, 88, 127
2, 53040, Note_off_c, 1, 62, 0
2, 53040, Note_off_c, 1, 88, 0
2, 53080, Note_on_c, 1, 64, 127
2, 53080, Note_on_c, 1, 86, 127
2, 53400, Note_off_c, 1, 64, 0
2, 53400, Note_off_c, 1, 86, 0
2, 53440, Note_on_c, 1, 59, 127
2, 53440, Note_on_c, 1, 86, 127
2, 53760, Note_off_c, 1, 59, 0
2, 53800, Note_on_c, 1, 64, 127
2, 54120, Note_off_c, 1, 64, 0
2, 54160, Note_on_c, 1, 54, 127
2, 54520, Note_off_c, 1, 54, 0
2, 54560, Note_on_c, 1, 62, 127
2, 54640, Note_off_c, 1, 62, 0
2, 54640, Note_off_c, 1, 86, 0
2, 54680, Note_on_c, 1, 62, 127
2, 54680, Note_on_c, 1, 86, 127
2, 54720, Note_off_c, 1, 86, 0
2, 54760, Note_on_c, 1, 86, 127
2, 54920, Note_off_c, 1, 62, 0
2, 54920, Note_off_c, 1, 86, 0
2, 54960, Note_on_c, 1, 50, 127
2, 54960, Note_on_c, 1, 88, 127
2, 55080, Note_on_c, 1, 83, 127
2, 55080, Note_off_c, 1, 88, 0
2, 55120, Note_off_c, 1, 50, 0
2, 55120, Note_on_c, 1, 54, 127
2, 55120, Note_off_c, 1, 83, 0
2, 55120, Note_on_c, 1, 84, 127
2, 55280, Note_off_c, 1, 54, 0
2, 55320, Note_on_c, 1, 62, 127
2, 55640, Note_off_c, 1, 62, 0
2, 55640, Note_off_c, 1, 84, 0
2, 55680, Note_on_c, 1, 59, 127
2, 55680, Note_on_c, 1, 86, 127
2, 56000, Note_off_c, 1, 59, 0
2, 56040, Note_on_c, 1, 57, 127
2, 56360, Note_off_c, 1, 57, 0
2, 56400, Note_on_c, 1, 55, 127
2, 56720, Note_off_c, 1, 55, 0
2, 56760, Note_off_c, 1, 86, 0
2, 56800, Note_on_c, 1, 54, 127
2, 56800, Note_on_c, 1, 88, 127
2, 56960, Note_off_c, 1, 88, 0
2, 57000, Note_on_c, 1, 86, 127
2, 57120, Note_off_c, 1, 54, 0
2, 57120, Note_off_c, 1, 86, 0
2, 57160, Note_on_c, 1, 59, 127
2, 57160, Note_on_c, 1, 86, 127
2, 57480, Note_off_c, 1, 59, 0
2, 57520, Note_on_c, 1, 62, 127
2, 57840, Note_off_c, 1, 62, 0
2, 57840, Note_off_c, 1, 86, 0
2, 57880, Note_on_c, 1, 62, 127
2, 57880, Note_on_c, 1, 85, 127
2, 58200, Note_off_c, 1, 62, 0
2, 58200, Note_off_c, 1, 85, 0
2, 58200, Note_on_c, 1, 86, 127
2, 58240, Note_on_c, 1, 54, 127
2, 58240, Note_on_c, 1, 81, 127
2, 58240, Note_off_c, 1, 86, 0
2, 58560, Note_off_c, 1, 54, 0
2, 58600, Note_on_c, 1, 59, 127
2, 58880, Note_off_c, 1, 59, 0
2, 58880, Note_off_c, 1, 81, 0
2, 58920, Note_on_c, 1, 59, 127
2, 58920, Note_on_c, 1, 81, 127
2, 58960, Note_off_c, 1, 59, 0
2, 59000, Note_on_c, 1, 64, 127
2, 59360, Note_off_c, 1, 64, 0
2, 59400, Note_on_c, 1, 57, 127
2, 59720, Note_off_c, 1, 57, 0
2, 59720, Note_off_c, 1, 81, 0
2, 59760, Note_on_c, 1, 62, 127
2, 59760, Note_on_c, 1, 83, 127
2, 60080, Note_off_c, 1, 62, 0
2, 60080, Note_off_c, 1, 83, 0
2, 60120, Note_on_c, 1, 57, 127
2, 60120, Note_on_c, 1, 81, 127
2, 60440, Note_off_c, 1, 57, 0
2, 60480, Note_on_c, 1, 67, 127
2, 60800, Note_off_c, 1, 67, 0
2, 60800, Note_off_c, 1, 81, 0
2, 60840, Note_on_c, 1, 59, 127
2, 60840, Note_on_c, 1, 80, 127
2, 61160, Note_off_c, 1, 59, 0
2, 61160, Note_off_c, 1, 80, 0
2, 61240, Note_on_c, 1, 59, 127
2, 61240, Note_on_c, 1, 77, 127
2, 61560, Note_off_c, 1, 59, 0
2, 61560, Note_off_c, 1, 77, 0
2, 61600, Note_on_c, 1, 64, 127
2, 61600, Note_on_c, 1, 81, 127
2, 61920, Note_off_c, 1, 64, 0
2, 61920, Note_off_c, 1, 81, 0
2, 61960, Note_on_c, 1, 52, 127
2, 61960, Note_on_c, 1, 78, 127
2, 62280, Note_off_c, 1, 52, 0
2, 62280, Note_off_c, 1, 78, 0
2, 62320, Note_on_c, 1, 64, 127
2, 62320, Note_on_c, 1, 76, 127
2, 62640, Note_off_c, 1, 64, 0
2, 62640, Note_off_c, 1, 76, 0
2, 62680, Note_on_c, 1, 53, 127
2, 62680, Note_on_c, 1, 74, 127
2, 63000, Note_off_c, 1, 53, 0
2, 63040, Note_on_c, 1, 59, 127
2, 63360, Note_off_c, 1, 59, 0
2, 63360, Note_off_c, 1, 74, 0
2, 63400, Note_on_c, 1, 64, 127
2, 63480, Note_off_c, 1, 64, 0
2, 63520, Note_on_c, 1, 64, 127
2, 63760, Note_off_c, 1, 64, 0
2, 63800, Note_on_c, 1, 59, 127
2, 63800, Note_on_c, 1, 76, 127
2, 64120, Note_off_c, 1, 59, 0
2, 64120, Note_off_c, 1, 76, 0
2, 64160, Note_on_c, 1, 57, 127
2, 64160, Note_on_c, 1, 74, 127
2, 64480, Note_off_c, 1, 57, 0
2, 64480, Note_off_c, 1, 74, 0
2, 64520, Note_on_c, 1, 63, 127
2, 64520, Note_on_c, 1, 74, 127
2, 64840, Note_off_c, 1, 63, 0
2, 64840, Note_off_c, 1, 74, 0
2, 64880, Note_on_c, 1, 59, 127
2, 64880, Note_on_c, 1, 74, 127
2, 65200, Note_off_c, 1, 59, 0
2, 65240, Note_on_c, 1, 56, 127
2, 65560, Note_off_c, 1, 56, 0
2, 65560, Note_off_c, 1, 74, 0
2, 65600, Note_on_c, 1, 60, 127
2, 65600, Note_on_c, 1, 75, 127
2, 65720, Note_off_c, 1, 75, 0
2, 65760, Note_off_c, 1, 60, 0
2, 65800, Note_on_c, 1, 60, 127
2, 65960, Note_off_c, 1, 60, 0
2, 66000, Note_on_c, 1, 52, 127
2, 66000, Note_on_c, 1, 72, 127
2, 66320, Note_off_c, 1, 52, 0
2, 66320, Note_off_c, 1, 72, 0
2, 66360, Note_on_c, 1, 62, 127
2, 66360, Note_on_c, 1, 71, 127
2, 66680, Note_off_c, 1, 62, 0
2, 66680, Note_off_c, 1, 71, 0
2, 66720, Note_on_c, 1, 57, 127
2, 66720, Note_on_c, 1, 69, 127
2, 67040, Note_off_c, 1, 57, 0
2, 67040, Note_off_c, 1, 69, 0
2, 67080, Note_on_c, 1, 62, 127
2, 67080, Note_on_c, 1, 71, 127
2, 67400, Note_off_c, 1, 71, 0
2, 67440, Note_on_c, 1, 60, 127
2, 67440, Note_off_c, 1, 62, 0
2, 67440, Note_on_c, 1, 69, 127
2, 67760, Note_off_c, 1, 60, 0
2, 67760, Note_off_c, 1, 69, 0
2, 67800, Note_on_c, 1, 57, 127
2, 68120, Note_off_c, 1, 57, 0
2, 68200, Note_on_c, 1, 62, 127
2, 68520, Note_off_c, 1, 62, 0
2, 68560, Note_on_c, 1, 57, 127
2, 68880, Note_off_c, 1, 57, 0
2, 68920, Note_on_c, 1, 61, 127
2, 68920, Note_on_c, 1, 69, 127
2, 69080, Note_off_c, 1, 69, 0
2, 69120, Note_on_c, 1, 72, 127
2, 69240, Note_off_c, 1, 61, 0
2, 69240, Note_off_c, 1, 72, 0
2, 69280, Note_on_c, 1, 57, 127
2, 69280, Note_on_c, 1, 72, 127
2, 69440, Note_off_c, 1, 72, 0
2, 69480, Note_on_c, 1, 72, 127
2, 69600, Note_off_c, 1, 57, 0
2, 69600, Note_off_c, 1, 72, 0
2, 69640, Note_on_c, 1, 61, 127
2, 69640, Note_on_c, 1, 69, 127
2, 69800, Note_off_c, 1, 69, 0
2, 69840, Note_on_c, 1, 69, 127
2, 69960, Note_off_c, 1, 61, 0
2, 69960, Note_off_c, 1, 69, 0
2, 70000, Note_on_c, 1, 58, 127
2, 70000, Note_on_c, 1, 73, 127
2, 70160, Note_off_c, 1, 73, 0
2, 70200, Note_off_c, 1, 58, 0
2, 70360, Note_on_c, 1, 57, 127
2, 70520, Note_off_c, 1, 57, 0
2, 70560, Note_on_c, 1, 57, 127
2, 70720, Note_off_c, 1, 57, 0
2, 70760, Note_on_c, 1, 62, 127
2, 70760, Note_on_c, 1, 79, 127
2, 71080, Note_off_c, 1, 62, 0
2, 71080, Note_off_c, 1, 79, 0
2, 71120, Note_on_c, 1, 66, 127
2, 71120, Note_on_c, 1, 79, 127
2, 71440, Note_off_c, 1, 66, 0
2, 71440, Note_off_c, 1, 79, 0
2, 71480, Note_on_c, 1, 57, 127
2, 71480, Note_on_c, 1, 77, 127
2, 71800, Note_off_c, 1, 57, 0
2, 71800, Note_off_c, 1, 77, 0
2, 71840, Note_on_c, 1, 62, 127
2, 71840, Note_on_c, 1, 77, 127
2, 72160, Note_off_c, 1, 62, 0
2, 72160, Note_off_c, 1, 77, 0
2, 72200, Note_on_c, 1, 69, 127
2, 72520, Note_off_c, 1, 69, 0
2, 72560, Note_on_c, 1, 60, 127
2, 72560, Note_on_c, 1, 75, 127
2, 72800, Note_off_c, 1, 60, 0
2, 72800, Note_off_c, 1, 75, 0
2, 72840, Note_on_c, 1, 60, 127
2, 72840, Note_on_c, 1, 75, 127
2, 72920, Note_off_c, 1, 60, 0
2, 72920, Note_off_c, 1, 75, 0
2, 72960, Note_on_c, 1, 64, 127
2, 73280, Note_off_c, 1, 64, 0
2, 73320, Note_on_c, 1, 60, 127
2, 73320, Note_on_c, 1, 79, 127
2, 73640, Note_off_c, 1, 60, 0
2, 73680, Note_on_c, 1, 64, 127
2, 74000, Note_off_c, 1, 64, 0
2, 74000, Note_off_c, 1, 79, 0
2, 74040, Note_on_c, 1, 62, 127
2, 74040, Note_on_c, 1, 77, 127
2, 74360, Note_off_c, 1, 62, 0
2, 74360, Note_off_c, 1, 77, 0
2, 74400, Note_on_c, 1, 60, 127
2, 74400, Note_on_c, 1, 77, 127
2, 74720, Note_on_c, 1, 55, 127
2, 74720, Note_on_c, 1, 58, 127
2, 74720, Note_off_c, 1, 60, 0
2, 74720, Note_on_c, 1, 62, 127
2, 74720, Note_on_c, 1, 67, 127
2, 74720, Note_on_c, 1, 70, 127
2, 74720, Note_off_c, 1, 77, 0
2, 74760, Note_off_c, 1, 55, 0
2, 74760, Note_off_c, 1, 58, 0
2, 74760, Note_off_c, 1, 62, 0
2, 74760, Note_off_c, 1, 67, 0
2, 74760, Note_off_c, 1, 70, 0
2, 74840, Note_on_c, 1, 70, 127
2, 74840, Note_on_c, 1, 78, 127
2, 75160, Note_off_c, 1, 70, 0
2, 75160, Note_off_c, 1, 78, 0
2, 75200, Note_on_c, 1, 62, 127
2, 75200, Note_on_c, 1, 79, 127
2, 75520, Note_off_c, 1, 62, 0
2, 75520, Note_off_c, 1, 79, 0
2, 75560, Note_on_c, 1, 67, 127
2, 75560, Note_on_c, 1, 77, 127
2, 75880, Note_off_c, 1, 67, 0
2, 75880, Note_off_c, 1, 77, 0
2, 75920, Note_on_c, 1, 59, 127
2, 75920, Note_on_c, 1, 76, 127
2, 76240, Note_off_c, 1, 59, 0
2, 76240, Note_off_c, 1, 76, 0
2, 76280, Note_on_c, 1, 67, 127
2, 76280, Note_on_c, 1, 74, 127
2, 76600, Note_off_c, 1, 67, 0
2, 76600, Note_off_c, 1, 74, 0
2, 76640, Note_on_c, 1, 57, 127
2, 76640, Note_on_c, 1, 77, 127
2, 76960, Note_off_c, 1, 57, 0
2, 76960, Note_off_c, 1, 77, 0
2, 77000, Note_on_c, 1, 65, 127
2, 77000, Note_on_c, 1, 81, 127
2, 77200, Note_off_c, 1, 65, 0
2, 77200, Note_off_c, 1, 81, 0
2, 77240, Note_on_c, 1, 65, 127
2, 77240, Note_on_c, 1, 81, 127
2, 77360, Note_off_c, 1, 65, 0
2, 77360, Note_off_c, 1, 81, 0
2, 77400, Note_on_c, 1, 64, 127
2, 77400, Note_on_c, 1, 79, 127
2, 77720, Note_off_c, 1, 64, 0
2, 77720, Note_off_c, 1, 79, 0
2, 77760, Note_on_c, 1, 60, 127
2, 77760, Note_on_c, 1, 81, 127
2, 78080, Note_off_c, 1, 60, 0
2, 78080, Note_off_c, 1, 81, 0
2, 78120, Note_on_c, 1, 64, 127
2, 78120, Note_on_c, 1, 79, 127
2, 78440, Note_off_c, 1, 64, 0
2, 78440, Note_off_c, 1, 79, 0
2, 78480, Note_on_c, 1, 57, 127
2, 78480, Note_on_c, 1, 84, 127
2, 78800, Note_off_c, 1, 57, 0
2, 78800, Note_off_c, 1, 84, 0
2, 78840, Note_on_c, 1, 61, 127
2, 78840, Note_on_c, 1, 82, 127
2, 79160, Note_off_c, 1, 61, 0
2, 79160, Note_off_c, 1, 82, 0
2, 79200, Note_on_c, 1, 63, 127
2, 79200, Note_on_c, 1, 81, 127
2, 79400, Note_off_c, 1, 63, 0
2, 79400, Note_off_c, 1, 81, 0
2, 79440, Note_on_c, 1, 63, 127
2, 79440, Note_on_c, 1, 81, 127
2, 79560, Note_off_c, 1, 63, 0
2, 79560, Note_off_c, 1, 81, 0
2, 79600, Note_on_c, 1, 65, 127
2, 79600, Note_on_c, 1, 81, 127
2, 79920, Note_off_c, 1, 65, 0
2, 79920, Note_off_c, 1, 81, 0
2, 79960, Note_on_c, 1, 53, 127
2, 79960, Note_on_c, 1, 84, 127
2, 80280, Note_off_c, 1, 53, 0
2, 80320, Note_on_c, 1, 62, 127
2, 80640, Note_off_c, 1, 62, 0
2, 80640, Note_off_c, 1, 84, 0
2, 80680, Note_on_c, 1, 60, 127
2, 80680, Note_on_c, 1, 84, 127
2, 81000, Note_off_c, 1, 60, 0
2, 81040, Note_on_c, 1, 56, 127
2, 81360, Note_off_c, 1, 56, 0
2, 81400, Note_on_c, 1, 55, 127
2, 81720, Note_off_c, 1, 55, 0
2, 81760, Note_off_c, 1, 84, 0
2, 81800, Note_on_c, 1, 67, 127
2, 81800, Note_on_c, 1, 84, 127
2, 82160, Note_off_c, 1, 67, 0
2, 82160, Note_off_c, 1, 84, 0
2, 82200, Note_on_c, 1, 60, 127
2, 82200, Note_on_c, 1, 83, 127
2, 82520, Note_off_c, 1, 60, 0
2, 82520, Note_off_c, 1, 83, 0
2, 82560, Note_on_c, 1, 64, 127
2, 82560, Note_on_c, 1, 82, 127
2, 82880, Note_off_c, 1, 64, 0
2, 82880, Note_off_c, 1, 82, 0
2, 82920, Note_on_c, 1, 67, 127
2, 82920, Note_on_c, 1, 84, 127
2, 83240, Note_off_c, 1, 67, 0
2, 83280, Note_on_c, 1, 64, 127
2, 83600, Note_off_c, 1, 64, 0
2, 83640, Note_on_c, 1, 60, 127
2, 83880, Note_off_c, 1, 60, 0
2, 83880, Note_off_c, 1, 84, 0
2, 83920, Note_on_c, 1, 60, 127
2, 83920, Note_on_c, 1, 84, 127
2, 84000, Note_off_c, 1, 60, 0
2, 84040, Note_on_c, 1, 65, 127
2, 84360, Note_off_c, 1, 65, 0
2, 84360, Note_off_c, 1, 84, 0
2, 84400, Note_on_c, 1, 60, 127
2, 84400, Note_on_c, 1, 73, 127
2, 84720, Note_off_c, 1, 60, 0
2, 84720, Note_on_c, 1, 72, 127
2, 84720, Note_off_c, 1, 73, 0
2, 84760, Note_on_c, 1, 65, 127
2, 85080, Note_off_c, 1, 65, 0
2, 85120, Note_on_c, 1, 55, 127
2, 85440, Note_off_c, 1, 55, 0
2, 85480, Note_on_c, 1, 57, 127
2, 85800, Note_off_c, 1, 57, 0
2, 85800, Note_off_c, 1, 72, 0
2, 85840, Note_on_c, 1, 65, 127
2, 85840, Note_on_c, 1, 68, 127
2, 86160, Note_off_c, 1, 65, 0
2, 86160, Note_off_c, 1, 68, 0
2, 86200, Note_on_c, 1, 68, 127
2, 86240, Note_on_c, 1, 56, 127
2, 86560, Note_off_c, 1, 56, 0
2, 86560, Note_off_c, 1, 68, 0
2, 86600, Note_on_c, 1, 64, 127
2, 86600, Note_on_c, 1, 84, 127
2, 86920, Note_off_c, 1, 64, 0
2, 86920, Note_off_c, 1, 84, 0
2, 86960, Note_on_c, 1, 60, 127
2, 86960, Note_on_c, 1, 82, 127
2, 87280, Note_off_c, 1, 60, 0
2, 87280, Note_off_c, 1, 82, 0
2, 87320, Note_on_c, 1, 64, 127
2, 87320, Note_on_c, 1, 81, 127
2, 87360, Note_off_c, 1, 81, 0
2, 87520, Note_on_c, 1, 81, 127
2, 87560, Note_off_c, 1, 81, 0
2, 87600, Note_on_c, 1, 81, 127
2, 87640, Note_off_c, 1, 81, 0
2, 87680, Note_off_c, 1, 64, 0
2, 87720, Note_on_c, 1, 56, 127
2, 87720, Note_on_c, 1, 77, 127
2, 88040, Note_off_c, 1, 56, 0
2, 88080, Note_on_c, 1, 60, 127
2, 88280, Note_off_c, 1, 60, 0
2, 88280, Note_off_c, 1, 77, 0
2, 88320, Note_on_c, 1, 60, 127
2, 88320, Note_on_c, 1, 77, 127
2, 88440, Note_off_c, 1, 60, 0
2, 88480, Note_on_c, 1, 65, 127
2, 88800, Note_off_c, 1, 65, 0
2, 88800, Note_off_c, 1, 77, 0
2, 88840, Note_on_c, 1, 60, 127
2, 88840, Note_on_c, 1, 79, 127
2, 89160, Note_off_c, 1, 60, 0
2, 89160, Note_off_c, 1, 79, 0
2, 89200, Note_on_c, 1, 65, 127
2, 89200, Note_on_c, 1, 77, 127
2, 89520, Note_off_c, 1, 65, 0
2, 89560, Note_on_c, 1, 56, 127
2, 89880, Note_off_c, 1, 56, 0
2, 89920, Note_on_c, 1, 60, 127
2, 90240, Note_off_c, 1, 60, 0
2, 90240, Note_off_c, 1, 77, 0
2, 90280, Note_on_c, 1, 60, 127
2, 90280, Note_on_c, 1, 63, 127
2, 90280, Note_on_c, 1, 66, 127
2, 90280, Note_on_c, 1, 74, 127
2, 90280, Note_on_c, 1, 78, 127
2, 90320, Note_off_c, 1, 60, 0
2, 90320, Note_off_c, 1, 63, 0
2, 90320, Note_off_c, 1, 66, 0
2, 90320, Note_off_c, 1, 74, 0
2, 90320, Note_off_c, 1, 78, 0
2, 90360, Note_on_c, 1, 50, 127
2, 90360, Note_on_c, 1, 56, 127
2, 90360, Note_on_c, 1, 59, 127
2, 90360, Note_on_c, 1, 62, 127
2, 90360, Note_on_c, 1, 71, 127
2, 90400, Note_off_c, 1, 50, 0
2, 90400, Note_off_c, 1, 56, 0
2, 90400, Note_off_c, 1, 59, 0
2, 90400, Note_off_c, 1, 62, 0
2, 90400, Note_on_c, 1, 68, 127
2, 90400, Note_off_c, 1, 71, 0
2, 90400, Note_on_c, 1, 72, 127
2, 90400, Note_on_c, 1, 78, 127
2, 90400, Note_on_c, 1, 90, 127
2, 90400, Note_on_c, 1, 101, 127
2, 90440, Note_on_c, 1, 48, 127
2, 90440, Note_on_c, 1, 58, 127
2, 90440, Note_on_c, 1, 61, 127
2, 90440, Note_on_c, 1, 64, 127
2, 90440, Note_off_c, 1, 68, 0
2, 90440, Note_on_c, 1, 70, 127
2, 90440, Note_off_c, 1, 72, 0
2, 90440, Note_off_c, 1, 78, 0
2, 90440, Note_off_c, 1, 90, 0
2, 90440, Note_off_c, 1, 101, 0
2, 90680, Note_on_c, 1, 68, 127
2, 90680, Note_off_c, 1, 70, 0
2, 90800, Note_off_c, 1, 68, 0
2, 90840, Note_on_c, 1, 68, 127
2, 91000, Note_off_c, 1, 48, 0
2, 91000, Note_off_c, 1, 58, 0
2, 91000, Note_off_c, 1, 61, 0
2, 91000, Note_off_c, 1, 64, 0
2, 91000, Note_off_c, 1, 68, 0
2, 91040, Note_on_c, 1, 77, 127
2, 91360, Note_off_c, 1, 77, 0
2, 91400, Note_on_c, 1, 76, 127
2, 91720, Note_off_c, 1, 76, 0
2, 91760, Note_on_c, 1, 36, 127
2, 92080, Note_off_c, 1, 36, 0
2, 92120, Note_on_c, 1, 48, 127
2, 92440, Note_off_c, 1, 48, 0
2, 92480, Note_on_c, 1, 60, 127
2, 92480, Note_on_c, 1, 64, 127
2, 92640, Note_on_c, 1, 72, 127
2, 92680, Note_off_c, 1, 60, 0
2, 92680, Note_off_c, 1, 64, 0
2, 92680, Note_off_c, 1, 72, 0
2, 92720, Note_on_c, 1, 60, 127
2, 92720, Note_on_c, 1, 64, 127
2, 92720, Note_on_c, 1, 72, 127
2, 92760, Note_off_c, 1, 72, 0
2, 92880, Note_on_c, 1, 69, 127
2, 93040, Note_off_c, 1, 69, 0
2, 93080, Note_on_c, 1, 72, 127
2, 93200, Note_off_c, 1, 72, 0
2, 93240, Note_on_c, 1, 69, 127
2, 93400, Note_off_c, 1, 69, 0
2, 93440, Note_on_c, 1, 76, 127
2, 93560, Note_off_c, 1, 76, 0
2, 93600, Note_on_c, 1, 69, 127
2, 93760, Note_off_c, 1, 69, 0
2, 93800, Note_on_c, 1, 72, 127
2, 93920, Note_off_c, 1, 72, 0
2, 93960, Note_on_c, 1, 69, 127
2, 94120, Note_off_c, 1, 69, 0
2, 94160, Note_on_c, 1, 69, 127
2, 94320, Note_off_c, 1, 60, 0
2, 94320, Note_off_c, 1, 64, 0
2, 94320, Note_off_c, 1, 69, 0
2, 94360, Note_on_c, 1, 71, 127
2, 94480, Note_off_c, 1, 71, 0
2, 94720, Note_on_c, 1, 68, 127
2, 94840, Note_off_c, 1, 68, 0
2, 95120, Note_on_c, 1, 62, 127
2, 95120, Note_on_c, 1, 68, 127
2, 95120, Note_on_c, 1, 80, 127
2, 95400, Note_off_c, 1, 68, 0
2, 95400, Note_off_c, 1, 80, 0
2, 95440, Note_on_c, 1, 70, 127
2, 95440, Note_on_c, 1, 79, 127
2, 95760, Note_off_c, 1, 70, 0
2, 95760, Note_off_c, 1, 79, 0
2, 95800, Note_on_c, 1, 70, 127
2, 95800, Note_on_c, 1, 77, 127
2, 96120, Note_off_c, 1, 62, 0
2, 96120, Note_off_c, 1, 70, 0
2, 96120, Note_off_c, 1, 77, 0
2, 96160, Note_on_c, 1, 64, 127
2, 96880, Note_off_c, 1, 64, 0
2, 96920, Note_on_c, 1, 81, 127
2, 97240, Note_off_c, 1, 81, 0
2, 97320, Note_on_c, 1, 77, 127
2, 98000, Note_off_c, 1, 77, 0
2, 98040, Note_on_c, 1, 77, 127
2, 98360, Note_off_c, 1, 77, 0
2, 98400, Note_on_c, 1, 76, 127
2, 98720, Note_off_c, 1, 76, 0
2, 98760, Note_on_c, 1, 74, 127
2, 99080, Note_off_c, 1, 74, 0
2, 99120, Note_on_c, 1, 76, 127
2, 99440, Note_off_c, 1, 76, 0
2, 99520, Note_on_c, 1, 80, 127
2, 100200, Note_off_c, 1, 80, 0
2, 100240, Note_on_c, 1, 79, 127
2, 100920, Note_off_c, 1, 79, 0
2, 100960, Note_on_c, 1, 79, 127
2, 101640, Note_off_c, 1, 79, 0
2, 101680, Note_on_c, 1, 79, 127
2, 102040, Note_off_c, 1, 79, 0
2, 102080, Note_on_c, 1, 81, 127
2, 102800, Note_on_c, 1, 79, 127
2, 102800, Note_off_c, 1, 81, 0
2, 103120, Note_off_c, 1, 79, 0
2, 103160, Note_on_c, 1, 77, 127
2, 103480, Note_off_c, 1, 77, 0
2, 103520, Note_on_c, 1, 76, 127
2, 103840, Note_off_c, 1, 76, 0
2, 103880, Note_on_c, 1, 77, 127
2, 103960, Note_off_c, 1, 77, 0
2, 104000, Note_on_c, 1, 77, 127
2, 104600, Note_off_c, 1, 77, 0
2, 104640, Note_on_c, 1, 76, 127
2, 104960, Note_off_c, 1, 76, 0
2, 105000, Note_on_c, 1, 77, 127
2, 105320, Note_off_c, 1, 77, 0
2, 105360, Note_on_c, 1, 76, 127
2, 105680, Note_off_c, 1, 76, 0
2, 105720, Note_on_c, 1, 77, 127
2, 106040, Note_off_c, 1, 77, 0
2, 106080, Note_on_c, 1, 77, 127
2, 106280, Note_off_c, 1, 77, 0
2, 106320, Note_on_c, 1, 77, 127
2, 106440, Note_off_c, 1, 77, 0
2, 106480, Note_on_c, 1, 76, 127
2, 106800, Note_off_c, 1, 76, 0
2, 106840, Note_on_c, 1, 74, 127
2, 107160, Note_off_c, 1, 74, 0
2, 107200, Note_on_c, 1, 88, 127
2, 107920, Note_off_c, 1, 88, 0
2, 107920, Note_on_c, 1, 89, 127
2, 108080, Note_off_c, 1, 89, 0
2, 108120, Note_on_c, 1, 88, 127
2, 108280, Note_off_c, 1, 88, 0
2, 108360, Note_on_c, 1, 88, 127
2, 108680, Note_off_c, 1, 88, 0
2, 108720, Note_on_c, 1, 87, 127
2, 109040, Note_off_c, 1, 87, 0
2, 109080, Note_on_c, 1, 88, 127
2, 109400, Note_off_c, 1, 88, 0
2, 109440, Note_on_c, 1, 84, 127
2, 109800, Note_off_c, 1, 84, 0
2, 109840, Note_on_c, 1, 78, 127
2, 110160, Note_off_c, 1, 78, 0
2, 110200, Note_on_c, 1, 76, 127
2, 110520, Note_off_c, 1, 76, 0
2, 110600, Note_on_c, 1, 76, 127
2, 110920, Note_off_c, 1, 76, 0
2, 110960, Note_on_c, 1, 77, 127
2, 111280, Note_off_c, 1, 77, 0
2, 111320, Note_on_c, 1, 81, 127
2, 112000, Note_off_c, 1, 81, 0
2, 112040, Note_on_c, 1, 79, 127
2, 112360, Note_off_c, 1, 79, 0
2, 112400, Note_on_c, 1, 81, 127
2, 112720, Note_off_c, 1, 81, 0
2, 112800, Note_on_c, 1, 79, 127
2, 113120, Note_off_c, 1, 79, 0
2, 113160, Note_on_c, 1, 62, 127
2, 113160, Note_on_c, 1, 77, 127
2, 113480, Note_off_c, 1, 62, 0
2, 113520, Note_on_c, 1, 62, 127
2, 113840, Note_off_c, 1, 62, 0
2, 113840, Note_off_c, 1, 77, 0
2, 113880, Note_on_c, 1, 64, 127
2, 113880, Note_on_c, 1, 76, 127
2, 114200, Note_off_c, 1, 64, 0
2, 114200, Note_off_c, 1, 76, 0
2, 114240, Note_on_c, 1, 67, 127
2, 114240, Note_on_c, 1, 74, 127
2, 114560, Note_off_c, 1, 67, 0
2, 114560, Note_off_c, 1, 74, 0
2, 114600, Note_on_c, 1, 60, 127
2, 114600, Note_on_c, 1, 76, 127
2, 114920, Note_off_c, 1, 60, 0
2, 114920, Note_off_c, 1, 76, 0
2, 114960, Note_on_c, 1, 66, 127
2, 114960, Note_on_c, 1, 76, 127
2, 115040, Note_off_c, 1, 66, 0
2, 115040, Note_off_c, 1, 76, 0
2, 115080, Note_on_c, 1, 66, 127
2, 115080, Note_on_c, 1, 76, 127
2, 115320, Note_off_c, 1, 66, 0
2, 115320, Note_off_c, 1, 76, 0
2, 115360, Note_on_c, 1, 62, 127
2, 115360, Note_on_c, 1, 79, 127
2, 115680, Note_off_c, 1, 62, 0
2, 115680, Note_off_c, 1, 79, 0
2, 115720, Note_on_c, 1, 66, 127
2, 115720, Note_on_c, 1, 77, 127
2, 116040, Note_off_c, 1, 66, 0
2, 116040, Note_off_c, 1, 77, 0
2, 116080, Note_on_c, 1, 60, 127
2, 116080, Note_on_c, 1, 76, 127
2, 116400, Note_off_c, 1, 60, 0
2, 116400, Note_off_c, 1, 76, 0
2, 116440, Note_on_c, 1, 67, 127
2, 116760, Note_off_c, 1, 67, 0
2, 116800, Note_on_c, 1, 60, 127
2, 116800, Note_on_c, 1, 77, 127
2, 117120, Note_off_c, 1, 60, 0
2, 117120, Note_off_c, 1, 77, 0
2, 117160, Note_on_c, 1, 67, 127
2, 117160, Note_on_c, 1, 77, 127
2, 117280, Note_off_c, 1, 67, 0
2, 117280, Note_off_c, 1, 77, 0
2, 117320, Note_on_c, 1, 67, 127
2, 117320, Note_on_c, 1, 77, 127
2, 117520, Note_off_c, 1, 67, 0
2, 117520, Note_off_c, 1, 77, 0
2, 117560, Note_on_c, 1, 67, 127
2, 117560, Note_on_c, 1, 76, 127
2, 117880, Note_off_c, 1, 67, 0
2, 117920, Note_on_c, 1, 64, 127
2, 118240, Note_off_c, 1, 64, 0
2, 118240, Note_off_c, 1, 76, 0
2, 118280, Note_on_c, 1, 67, 127
2, 118280, Note_on_c, 1, 77, 127
2, 118600, Note_off_c, 1, 67, 0
2, 118600, Note_off_c, 1, 77, 0
2, 118640, Note_on_c, 1, 60, 127
2, 118640, Note_on_c, 1, 76, 127
2, 118960, Note_off_c, 1, 60, 0
2, 118960, Note_off_c, 1, 76, 0
2, 119000, Note_on_c, 1, 67, 127
2, 119000, Note_on_c, 1, 79, 127
2, 119520, Note_off_c, 1, 67, 0
2, 119520, Note_off_c, 1, 79, 0
2, 119560, Note_on_c, 1, 67, 127
2, 119560, Note_on_c, 1, 79, 127
2, 119720, Note_off_c, 1, 67, 0
2, 119720, Note_off_c, 1, 79, 0
2, 119760, Note_on_c, 1, 62, 127
2, 119760, Note_on_c, 1, 77, 127
2, 120000, Note_off_c, 1, 62, 0
2, 120000, Note_off_c, 1, 77, 0
2, 120040, End_track
3, 0, Start_track
3, 0, Title_t, "MIDI"
3, 1536, End_track
0, 0, End_of_file
