0, 0, Header, 1, 3, 192
1, 0, Start_track
1, 0, Time_signature, 4, 2, 24, 8
1, 0, Tempo, 500000
1, 120040, End_track
2, 0, Start_track
2, 0, Text_t, "random instrument: random person i dunno whatev"
2, 0, Title_t, "Track 1"
2, 0, Note_on_c, 1, 40, 127
2, 0, Note_on_c, 1, 48, 127
2, 0, Note_on_c, 1, 56, 127
2, 0, Note_on_c, 1, 60, 127
2, 440, Note_off_c, 1, 40, 0
2, 440, Note_off_c, 1, 48, 0
2, 440, Note_off_c, 1, 56, 0
2, 440, Note_off_c, 1, 60, 0
2, 480, Note_on_c, 1, 40, 127
2, 480, Note_on_c, 1, 48, 127
2, 480, Note_on_c, 1, 56, 127
2, 480, Note_on_c, 1, 60, 127
2, 520, Note_off_c, 1, 40, 0
2, 520, Note_off_c, 1, 48, 0
2, 520, Note_off_c, 1, 56, 0
2, 520, Note_off_c, 1, 60, 0
2, 560, Note_on_c, 1, 79, 127
2, 2000, Note_off_c, 1, 79, 0
2, 2040, Note_on_c, 1, 78, 127
2, 2280, Note_off_c, 1, 78, 0
2, 2320, Note_on_c, 1, 79, 127
2, 2480, Note_off_c, 1, 79, 0
2, 2520, Note_on_c, 1, 79, 127
2, 3920, Note_off_c, 1, 79, 0
2, 3960, Note_on_c, 1, 80, 127
2, 4720, Note_off_c, 1, 80, 0
2, 4760, Note_on_c, 1, 80, 127
2, 4920, Note_off_c, 1, 80, 0
2, 4960, Note_on_c, 1, 78, 127
2, 5640, Note_off_c, 1, 78, 0
2, 5680, Note_on_c, 1, 79, 127
2, 6040, Note_off_c, 1, 79, 0
2, 6080, Note_on_c, 1, 81, 127
2, 6760, Note_off_c, 1, 81, 0
2, 6800, Note_on_c, 1, 79, 127
2, 6920, Note_off_c, 1, 79, 0
2, 6960, Note_on_c, 1, 79, 127
2, 7200, Note_off_c, 1, 79, 0
2, 7240, Note_on_c, 1, 92, 127
2, 7400, Note_on_c, 1, 80, 127
2, 7400, Note_off_c, 1, 92, 0
2, 7440, Note_off_c, 1, 80, 0
2, 7440, Note_on_c, 1, 92, 127
2, 7760, Note_off_c, 1, 92, 0
2, 7800, Note_on_c, 1, 91, 127
2, 8160, Note_off_c, 1, 91, 0
2, 13400, Note_on_c, 1, 37, 127
2, 13400, Note_on_c, 1, 49, 127
2, 15240, Note_off_c, 1, 37, 0
2, 15240, Note_off_c, 1, 49, 0
2, 18240, Note_on_c, 1, 40, 127
2, 18240, Note_on_c, 1, 52, 127
2, 18240, Note_on_c, 1, 64, 127
2, 22560, Note_off_c, 1, 40, 0
2, 22560, Note_off_c, 1, 52, 0
2, 22560, Note_off_c, 1, 64, 0
2, 23560, Note_on_c, 1, 39, 127
2, 23560, Note_on_c, 1, 51, 127
2, 23560, Note_on_c, 1, 63, 127
2, 26160, Note_off_c, 1, 39, 0
2, 26160, Note_off_c, 1, 51, 0
2, 26160, Note_off_c, 1, 63, 0
2, 26200, Note_on_c, 1, 39, 127
2, 26200, Note_on_c, 1, 51, 127
2, 26200, Note_on_c, 1, 63, 127
2, 30680, Note_off_c, 1, 39, 0
2, 30680, Note_on_c, 1, 41, 127
2, 30680, Note_off_c, 1, 51, 0
2, 30680, Note_on_c, 1, 53, 127
2, 30680, Note_off_c, 1, 63, 0
2, 30680, Note_on_c, 1, 65, 127
2, 30720, Note_on_c, 1, 39, 127
2, 30720, Note_off_c, 1, 41, 0
2, 30720, Note_on_c, 1, 51, 127
2, 30720, Note_off_c, 1, 53, 0
2, 30720, Note_on_c, 1, 63, 127
2, 30720, Note_off_c, 1, 65, 0
2, 31360, Note_off_c, 1, 39, 0
2, 31360, Note_off_c, 1, 51, 0
2, 31360, Note_off_c, 1, 63, 0
2, 31400, Note_on_c, 1, 39, 127
2, 31400, Note_on_c, 1, 51, 127
2, 31400, Note_on_c, 1, 63, 127
2, 33640, Note_off_c, 1, 39, 0
2, 33640, Note_off_c, 1, 51, 0
2, 33640, Note_off_c, 1, 63, 0
2, 35640, Note_on_c, 1, 59, 127
2, 35880, Note_off_c, 1, 59, 0
2, 35920, Note_on_c, 1, 72, 127
2, 36240, Note_off_c, 1, 72, 0
2, 36280, Note_on_c, 1, 69, 127
2, 36520, Note_off_c, 1, 69, 0
2, 36560, Note_on_c, 1, 66, 127
2, 37080, Note_off_c, 1, 66, 0
2, 37120, Note_on_c, 1, 66, 127
2, 37400, Note_off_c, 1, 66, 0
2, 37440, Note_on_c, 1, 66, 127
2, 40360, Note_on_c, 1, 54, 127
2, 41160, Note_off_c, 1, 54, 0
2, 41160, Note_off_c, 1, 66, 0
2, 41200, Note_on_c, 1, 54, 127
2, 41200, Note_on_c, 1, 66, 127
2, 41720, Note_off_c, 1, 54, 0
2, 41720, Note_off_c, 1, 66, 0
2, 41760, Note_on_c, 1, 54, 127
2, 41760, Note_on_c, 1, 66, 127
2, 43240, Note_off_c, 1, 54, 0
2, 43240, Note_off_c, 1, 66, 0
2, 46440, Note_on_c, 1, 45, 127
2, 46960, Note_off_c, 1, 45, 0
2, 47000, Note_on_c, 1, 50, 127
2, 47360, Note_off_c, 1, 50, 0
2, 51120, Note_on_c, 1, 41, 127
2, 51440, Note_off_c, 1, 41, 0
2, 51480, Note_on_c, 1, 41, 127
2, 51880, Note_off_c, 1, 41, 0
2, 51920, Note_on_c, 1, 41, 127
2, 52280, Note_off_c, 1, 41, 0
2, 52320, Note_on_c, 1, 58, 127
2, 52680, Note_off_c, 1, 58, 0
2, 52720, Note_on_c, 1, 55, 127
2, 53080, Note_off_c, 1, 55, 0
2, 53120, Note_on_c, 1, 52, 127
2, 53480, Note_off_c, 1, 52, 0
2, 53520, Note_on_c, 1, 53, 127
2, 53840, Note_off_c, 1, 53, 0
2, 53880, Note_on_c, 1, 65, 127
2, 54120, Note_off_c, 1, 65, 0
2, 54160, Note_on_c, 1, 65, 127
2, 55440, Note_off_c, 1, 65, 0
2, 66160, Note_on_c, 1, 55, 127
2, 66160, Note_on_c, 1, 59, 127
2, 66160, Note_on_c, 1, 67, 127
2, 66160, Note_on_c, 1, 76, 127
2, 66320, Note_off_c, 1, 55, 0
2, 66320, Note_off_c, 1, 59, 0
2, 66320, Note_off_c, 1, 67, 0
2, 66320, Note_off_c, 1, 76, 0
2, 67200, Note_on_c, 1, 52, 127
2, 67360, Note_off_c, 1, 52, 0
2, 67400, Note_on_c, 1, 62, 127
2, 67560, Note_off_c, 1, 62, 0
2, 67600, Note_on_c, 1, 57, 127
2, 67760, Note_off_c, 1, 57, 0
2, 67800, Note_on_c, 1, 57, 127
2, 67960, Note_off_c, 1, 57, 0
2, 68000, Note_on_c, 1, 62, 127
2, 68160, Note_off_c, 1, 62, 0
2, 68200, Note_on_c, 1, 62, 127
2, 68360, Note_off_c, 1, 62, 0
2, 68400, Note_on_c, 1, 65, 127
2, 68560, Note_off_c, 1, 65, 0
2, 68600, Note_on_c, 1, 69, 127
2, 68760, Note_off_c, 1, 69, 0
2, 68800, Note_on_c, 1, 62, 127
2, 68960, Note_off_c, 1, 62, 0
2, 69000, Note_on_c, 1, 60, 127
2, 69160, Note_off_c, 1, 60, 0
2, 69200, Note_on_c, 1, 57, 127
2, 69360, Note_off_c, 1, 57, 0
2, 69400, Note_on_c, 1, 57, 127
2, 69560, Note_off_c, 1, 57, 0
2, 69600, Note_on_c, 1, 52, 127
2, 69760, Note_off_c, 1, 52, 0
2, 69840, Note_on_c, 1, 57, 127
2, 70000, Note_off_c, 1, 57, 0
2, 70040, Note_on_c, 1, 59, 127
2, 70200, Note_off_c, 1, 59, 0
2, 70240, Note_on_c, 1, 57, 127
2, 70400, Note_off_c, 1, 57, 0
2, 70440, Note_on_c, 1, 52, 127
2, 70600, Note_off_c, 1, 52, 0
2, 70640, Note_on_c, 1, 64, 127
2, 70800, Note_off_c, 1, 64, 0
2, 70840, Note_on_c, 1, 67, 127
2, 71000, Note_off_c, 1, 67, 0
2, 71040, Note_on_c, 1, 69, 127
2, 71200, Note_off_c, 1, 69, 0
2, 71240, Note_on_c, 1, 67, 127
2, 71400, Note_off_c, 1, 67, 0
2, 71440, Note_on_c, 1, 64, 127
2, 71600, Note_off_c, 1, 64, 0
2, 71640, Note_on_c, 1, 62, 127
2, 71800, Note_off_c, 1, 62, 0
2, 71840, Note_on_c, 1, 72, 127
2, 72000, Note_off_c, 1, 72, 0
2, 72040, Note_on_c, 1, 69, 127
2, 72200, Note_off_c, 1, 69, 0
2, 72280, Note_on_c, 1, 74, 127
2, 72440, Note_off_c, 1, 74, 0
2, 72480, Note_on_c, 1, 67, 127
2, 72640, Note_off_c, 1, 67, 0
2, 72680, Note_on_c, 1, 69, 127
2, 72840, Note_off_c, 1, 69, 0
2, 72880, Note_on_c, 1, 64, 127
2, 73040, Note_off_c, 1, 64, 0
2, 73080, Note_on_c, 1, 66, 127
2, 73240, Note_off_c, 1, 66, 0
2, 73280, Note_on_c, 1, 63, 127
2, 73440, Note_off_c, 1, 63, 0
2, 73480, Note_on_c, 1, 64, 127
2, 73640, Note_off_c, 1, 64, 0
2, 73680, Note_on_c, 1, 67, 127
2, 73840, Note_off_c, 1, 67, 0
2, 73880, Note_on_c, 1, 66, 127
2, 74040, Note_off_c, 1, 66, 0
2, 74080, Note_on_c, 1, 65, 127
2, 74240, Note_off_c, 1, 65, 0
2, 74280, Note_on_c, 1, 64, 127
2, 74440, Note_off_c, 1, 64, 0
2, 74480, Note_on_c, 1, 59, 127
2, 74640, Note_off_c, 1, 59, 0
2, 74720, Note_on_c, 1, 55, 127
2, 74720, Note_on_c, 1, 58, 127
2, 74720, Note_on_c, 1, 62, 127
2, 74720, Note_on_c, 1, 67, 127
2, 74720, Note_on_c, 1, 70, 127
2, 74880, Note_off_c, 1, 55, 0
2, 74880, Note_off_c, 1, 58, 0
2, 74880, Note_off_c, 1, 62, 0
2, 74880, Note_off_c, 1, 67, 0
2, 74880, Note_off_c, 1, 70, 0
2, 74920, Note_on_c, 1, 51, 127
2, 74920, Note_on_c, 1, 55, 127
2, 74920, Note_on_c, 1, 67, 127
2, 75280, Note_off_c, 1, 55, 0
2, 75280, Note_off_c, 1, 67, 0
2, 75320, Note_on_c, 1, 32, 127
2, 75320, Note_on_c, 1, 56, 127
2, 76080, Note_off_c, 1, 51, 0
2, 76440, Note_off_c, 1, 56, 0
2, 76480, Note_off_c, 1, 32, 0
2, 78120, Note_on_c, 1, 34, 127
2, 78120, Note_on_c, 1, 46, 127
2, 78120, Note_on_c, 1, 58, 127
2, 79720, Note_off_c, 1, 34, 0
2, 79720, Note_off_c, 1, 46, 0
2, 79720, Note_off_c, 1, 58, 0
2, 79760, Note_on_c, 1, 34, 127
2, 79760, Note_on_c, 1, 46, 127
2, 79760, Note_on_c, 1, 58, 127
2, 80120, Note_off_c, 1, 34, 0
2, 80120, Note_off_c, 1, 46, 0
2, 80120, Note_off_c, 1, 58, 0
2, 80160, Note_on_c, 1, 34, 127
2, 80160, Note_on_c, 1, 46, 127
2, 80160, Note_on_c, 1, 58, 127
2, 81720, Note_off_c, 1, 34, 0
2, 81720, Note_off_c, 1, 46, 0
2, 81720, Note_off_c, 1, 58, 0
2, 81760, Note_on_c, 1, 34, 127
2, 81760, Note_on_c, 1, 46, 127
2, 81760, Note_on_c, 1, 58, 127
2, 82080, Note_off_c, 1, 34, 0
2, 82080, Note_off_c, 1, 46, 0
2, 82080, Note_off_c, 1, 58, 0
2, 82120, Note_on_c, 1, 34, 127
2, 82120, Note_on_c, 1, 46, 127
2, 82120, Note_on_c, 1, 58, 127
2, 82960, Note_off_c, 1, 34, 0
2, 82960, Note_off_c, 1, 46, 0
2, 82960, Note_off_c, 1, 58, 0
2, 83000, Note_on_c, 1, 34, 127
2, 83000, Note_on_c, 1, 46, 127
2, 83000, Note_on_c, 1, 58, 127
2, 83760, Note_off_c, 1, 34, 0
2, 83760, Note_off_c, 1, 46, 0
2, 83760, Note_off_c, 1, 58, 0
2, 83800, Note_on_c, 1, 39, 127
2, 83800, Note_on_c, 1, 51, 127
2, 83800, Note_on_c, 1, 63, 127
2, 84560, Note_off_c, 1, 39, 0
2, 84560, Note_off_c, 1, 51, 0
2, 84560, Note_off_c, 1, 63, 0
2, 84600, Note_on_c, 1, 39, 127
2, 84600, Note_on_c, 1, 51, 127
2, 84600, Note_on_c, 1, 63, 127
2, 87160, Note_off_c, 1, 39, 0
2, 87160, Note_off_c, 1, 51, 0
2, 87160, Note_off_c, 1, 63, 0
2, 87200, Note_on_c, 1, 39, 127
2, 87200, Note_on_c, 1, 51, 127
2, 87200, Note_on_c, 1, 63, 127
2, 88240, Note_on_c, 1, 55, 127
2, 88240, Note_on_c, 1, 58, 127
2, 88640, Note_off_c, 1, 39, 0
2, 88640, Note_off_c, 1, 51, 0
2, 88640, Note_off_c, 1, 55, 0
2, 88640, Note_off_c, 1, 58, 0
2, 88640, Note_off_c, 1, 63, 0
2, 88680, Note_on_c, 1, 51, 127
2, 88680, Note_on_c, 1, 55, 127
2, 88680, Note_on_c, 1, 58, 127
2, 89800, Note_off_c, 1, 51, 0
2, 89800, Note_off_c, 1, 55, 0
2, 89800, Note_off_c, 1, 58, 0
2, 91600, Note_on_c, 1, 31, 127
2, 91600, Note_on_c, 1, 43, 127
2, 91600, Note_on_c, 1, 55, 127
2, 91840, Note_off_c, 1, 55, 0
2, 91840, Note_on_c, 1, 59, 127
2, 91880, Note_on_c, 1, 55, 127
2, 91880, Note_off_c, 1, 59, 0
2, 93400, Note_off_c, 1, 31, 0
2, 93400, Note_off_c, 1, 43, 0
2, 93400, Note_off_c, 1, 55, 0
2, 96440, Note_on_c, 1, 48, 127
2, 96800, Note_off_c, 1, 48, 0
2, 96840, Note_on_c, 1, 55, 127
2, 96840, Note_on_c, 1, 79, 127
2, 96840, Note_on_c, 1, 91, 127
2, 97160, Note_off_c, 1, 79, 0
2, 97160, Note_off_c, 1, 91, 0
2, 97240, Note_on_c, 1, 79, 127
2, 97240, Note_on_c, 1, 91, 127
2, 97560, Note_off_c, 1, 79, 0
2, 97560, Note_off_c, 1, 91, 0
2, 97640, Note_off_c, 1, 55, 0
2, 97680, Note_on_c, 1, 55, 127
2, 97680, Note_on_c, 1, 79, 127
2, 97680, Note_on_c, 1, 91, 127
2, 98000, Note_off_c, 1, 79, 0
2, 98000, Note_off_c, 1, 91, 0
2, 98080, Note_on_c, 1, 79, 127
2, 98080, Note_on_c, 1, 91, 127
2, 98360, Note_off_c, 1, 79, 0
2, 98360, Note_off_c, 1, 91, 0
2, 98480, Note_on_c, 1, 79, 127
2, 98480, Note_on_c, 1, 91, 127
2, 98760, Note_off_c, 1, 79, 0
2, 98760, Note_off_c, 1, 91, 0
2, 98880, Note_on_c, 1, 67, 127
2, 98880, Note_on_c, 1, 79, 127
2, 100520, Note_off_c, 1, 55, 0
2, 100520, Note_off_c, 1, 67, 0
2, 100520, Note_off_c, 1, 79, 0
2, 100560, Note_on_c, 1, 55, 127
2, 100560, Note_on_c, 1, 67, 127
2, 100560, Note_on_c, 1, 79, 127
2, 101280, Note_off_c, 1, 79, 0
2, 101320, Note_on_c, 1, 79, 127
2, 102480, Note_off_c, 1, 79, 0
2, 102520, Note_on_c, 1, 79, 127
2, 102920, Note_on_c, 1, 54, 127
2, 102920, Note_off_c, 1, 55, 0
2, 102920, Note_on_c, 1, 66, 127
2, 102920, Note_off_c, 1, 67, 0
2, 102920, Note_off_c, 1, 79, 0
2, 102960, Note_off_c, 1, 54, 0
2, 102960, Note_off_c, 1, 66, 0
2, 103000, Note_on_c, 1, 55, 127
2, 103000, Note_on_c, 1, 67, 127
2, 103000, Note_on_c, 1, 79, 127
2, 104360, Note_off_c, 1, 79, 0
2, 104360, Note_on_c, 1, 83, 127
2, 104600, Note_on_c, 1, 79, 127
2, 104600, Note_off_c, 1, 83, 0
2, 104960, Note_off_c, 1, 79, 0
2, 105000, Note_on_c, 1, 79, 127
2, 105760, Note_off_c, 1, 55, 0
2, 105760, Note_off_c, 1, 67, 0
2, 105760, Note_off_c, 1, 79, 0
2, 120040, End_track
3, 0, Start_track
3, 0, Title_t, "MIDI"
3, 1536, End_track
0, 0, End_of_file
