0, 0, Header, 1, 3, 192
1, 0, Start_track
1, 0, Time_signature, 4, 2, 24, 8
1, 0, Tempo, 500000
1, 120040, End_track
2, 0, Start_track
2, 0, Text_t, "random instrument: random person i dunno whatev"
2, 0, Title_t, "Track 1"
2, 0, Note_on_c, 1, 40, 127
2, 0, Note_on_c, 1, 48, 127
2, 0, Note_on_c, 1, 56, 127
2, 0, Note_on_c, 1, 60, 127
2, 440, Note_off_c, 1, 40, 0
2, 440, Note_off_c, 1, 48, 0
2, 440, Note_off_c, 1, 56, 0
2, 440, Note_off_c, 1, 60, 0
2, 480, Note_on_c, 1, 40, 127
2, 480, Note_on_c, 1, 48, 127
2, 480, Note_on_c, 1, 56, 127
2, 480, Note_on_c, 1, 60, 127
2, 520, Note_off_c, 1, 40, 0
2, 520, Note_off_c, 1, 48, 0
2, 520, Note_off_c, 1, 56, 0
2, 520, Note_off_c, 1, 60, 0
2, 560, Note_on_c, 1, 79, 127
2, 2000, Note_off_c, 1, 79, 0
2, 2040, Note_on_c, 1, 78, 127
2, 2280, Note_off_c, 1, 78, 0
2, 2320, Note_on_c, 1, 79, 127
2, 2480, Note_off_c, 1, 79, 0
2, 2520, Note_on_c, 1, 79, 127
2, 3920, Note_off_c, 1, 79, 0
2, 3960, Note_on_c, 1, 80, 127
2, 4720, Note_off_c, 1, 80, 0
2, 4760, Note_on_c, 1, 80, 127
2, 4920, Note_off_c, 1, 80, 0
2, 4960, Note_on_c, 1, 78, 127
2, 5640, Note_off_c, 1, 78, 0
2, 5680, Note_on_c, 1, 79, 127
2, 6040, Note_off_c, 1, 79, 0
2, 6080, Note_on_c, 1, 78, 127
2, 6920, Note_off_c, 1, 78, 0
2, 6960, Note_on_c, 1, 78, 127
2, 7200, Note_off_c, 1, 78, 0
2, 7240, Note_on_c, 1, 92, 127
2, 7400, Note_on_c, 1, 80, 127
2, 7400, Note_off_c, 1, 92, 0
2, 7440, Note_off_c, 1, 80, 0
2, 7440, Note_on_c, 1, 92, 127
2, 8160, Note_off_c, 1, 92, 0
2, 13400, Note_on_c, 1, 37, 127
2, 13400, Note_on_c, 1, 49, 127
2, 15240, Note_off_c, 1, 37, 0
2, 15240, Note_off_c, 1, 49, 0
2, 18240, Note_on_c, 1, 40, 127
2, 18240, Note_on_c, 1, 52, 127
2, 18240, Note_on_c, 1, 64, 127
2, 22560, Note_off_c, 1, 40, 0
2, 22560, Note_off_c, 1, 52, 0
2, 22560, Note_off_c, 1, 64, 0
2, 23560, Note_on_c, 1, 39, 127
2, 23560, Note_on_c, 1, 51, 127
2, 23560, Note_on_c, 1, 63, 127
2, 26160, Note_off_c, 1, 39, 0
2, 26160, Note_off_c, 1, 51, 0
2, 26160, Note_off_c, 1, 63, 0
2, 26200, Note_on_c, 1, 39, 127
2, 26200, Note_on_c, 1, 51, 127
2, 26200, Note_on_c, 1, 63, 127
2, 32080, Note_off_c, 1, 39, 0
2, 32080, Note_off_c, 1, 51, 0
2, 32080, Note_off_c, 1, 63, 0
2, 32120, Note_on_c, 1, 39, 127
2, 32120, Note_on_c, 1, 51, 127
2, 32120, Note_on_c, 1, 63, 127
2, 35200, Note_off_c, 1, 39, 0
2, 35200, Note_off_c, 1, 51, 0
2, 35200, Note_off_c, 1, 63, 0
2, 35240, Note_on_c, 1, 39, 127
2, 35240, Note_on_c, 1, 51, 127
2, 35240, Note_on_c, 1, 63, 127
2, 35880, Note_off_c, 1, 39, 0
2, 35880, Note_off_c, 1, 51, 0
2, 35880, Note_off_c, 1, 63, 0
2, 35920, Note_on_c, 1, 72, 127
2, 37400, Note_off_c, 1, 72, 0
2, 37480, Note_on_c, 1, 75, 127
2, 39480, Note_off_c, 1, 75, 0
2, 39520, Note_on_c, 1, 76, 127
2, 39720, Note_off_c, 1, 76, 0
2, 39760, Note_on_c, 1, 76, 127
2, 41960, Note_off_c, 1, 76, 0
2, 42000, Note_on_c, 1, 76, 127
2, 43240, Note_off_c, 1, 76, 0
2, 43280, Note_on_c, 1, 51, 127
2, 43280, Note_on_c, 1, 75, 127
2, 44240, Note_off_c, 1, 51, 0
2, 44240, Note_off_c, 1, 75, 0
2, 44280, Note_on_c, 1, 51, 127
2, 44280, Note_on_c, 1, 75, 127
2, 44600, Note_off_c, 1, 75, 0
2, 46360, Note_off_c, 1, 51, 0
2, 54920, Note_on_c, 1, 52, 127
2, 55480, Note_off_c, 1, 52, 0
2, 67200, Note_on_c, 1, 52, 127
2, 67560, Note_off_c, 1, 52, 0
2, 67600, Note_on_c, 1, 57, 127
2, 67960, Note_off_c, 1, 57, 0
2, 68000, Note_on_c, 1, 57, 127
2, 68360, Note_off_c, 1, 57, 0
2, 68400, Note_on_c, 1, 65, 127
2, 68760, Note_off_c, 1, 65, 0
2, 68800, Note_on_c, 1, 57, 127
2, 69080, Note_off_c, 1, 57, 0
2, 69120, Note_on_c, 1, 57, 127
2, 69200, Note_off_c, 1, 57, 0
2, 69240, Note_on_c, 1, 62, 127
2, 69600, Note_off_c, 1, 62, 0
2, 69640, Note_on_c, 1, 57, 127
2, 70000, Note_off_c, 1, 57, 0
2, 70040, Note_on_c, 1, 53, 127
2, 70200, Note_off_c, 1, 53, 0
2, 70440, Note_on_c, 1, 52, 127
2, 70800, Note_off_c, 1, 52, 0
2, 70840, Note_on_c, 1, 50, 127
2, 71200, Note_off_c, 1, 50, 0
2, 71240, Note_on_c, 1, 57, 127
2, 71600, Note_off_c, 1, 57, 0
2, 71640, Note_on_c, 1, 53, 127
2, 72000, Note_off_c, 1, 53, 0
2, 72040, Note_on_c, 1, 57, 127
2, 72360, Note_off_c, 1, 57, 0
2, 72400, Note_on_c, 1, 62, 127
2, 72760, Note_off_c, 1, 62, 0
2, 72840, Note_on_c, 1, 57, 127
2, 73200, Note_off_c, 1, 57, 0
2, 73240, Note_on_c, 1, 53, 127
2, 73600, Note_off_c, 1, 53, 0
2, 73640, Note_on_c, 1, 53, 127
2, 74000, Note_off_c, 1, 53, 0
2, 74040, Note_on_c, 1, 52, 127
2, 74400, Note_off_c, 1, 52, 0
2, 74440, Note_on_c, 1, 53, 127
2, 74800, Note_off_c, 1, 53, 0
2, 74840, Note_on_c, 1, 52, 127
2, 75200, Note_off_c, 1, 52, 0
2, 75280, Note_on_c, 1, 65, 127
2, 75440, Note_off_c, 1, 65, 0
2, 76040, Note_on_c, 1, 64, 127
2, 76400, Note_off_c, 1, 64, 0
2, 76440, Note_on_c, 1, 62, 127
2, 76800, Note_off_c, 1, 62, 0
2, 76840, Note_on_c, 1, 56, 127
2, 77200, Note_off_c, 1, 56, 0
2, 77240, Note_on_c, 1, 50, 127
2, 77560, Note_off_c, 1, 50, 0
2, 77600, Note_on_c, 1, 50, 127
2, 77640, Note_off_c, 1, 50, 0
2, 77680, Note_on_c, 1, 45, 127
2, 78040, Note_off_c, 1, 45, 0
2, 78080, Note_on_c, 1, 52, 127
2, 78440, Note_off_c, 1, 52, 0
2, 78480, Note_on_c, 1, 45, 127
2, 78800, Note_off_c, 1, 45, 0
2, 78880, Note_on_c, 1, 48, 127
2, 79200, Note_off_c, 1, 48, 0
2, 79280, Note_on_c, 1, 48, 127
2, 79600, Note_off_c, 1, 48, 0
2, 79720, Note_on_c, 1, 48, 127
2, 80080, Note_off_c, 1, 48, 0
2, 80120, Note_on_c, 1, 48, 127
2, 80480, Note_off_c, 1, 48, 0
2, 80520, Note_on_c, 1, 50, 127
2, 80880, Note_off_c, 1, 50, 0
2, 80920, Note_on_c, 1, 52, 127
2, 81240, Note_off_c, 1, 52, 0
2, 81320, Note_on_c, 1, 53, 127
2, 81480, Note_off_c, 1, 53, 0
2, 81720, Note_on_c, 1, 52, 127
2, 82040, Note_off_c, 1, 52, 0
2, 82080, Note_on_c, 1, 52, 127
2, 82120, Note_off_c, 1, 52, 0
2, 82160, Note_on_c, 1, 50, 127
2, 82520, Note_off_c, 1, 50, 0
2, 82560, Note_on_c, 1, 52, 127
2, 82920, Note_off_c, 1, 52, 0
2, 82960, Note_on_c, 1, 49, 127
2, 83320, Note_off_c, 1, 49, 0
2, 83360, Note_on_c, 1, 55, 127
2, 84120, Note_off_c, 1, 55, 0
2, 84160, Note_on_c, 1, 60, 127
2, 84360, Note_off_c, 1, 60, 0
2, 84400, Note_on_c, 1, 60, 127
2, 84560, Note_off_c, 1, 60, 0
2, 84600, Note_on_c, 1, 52, 127
2, 84960, Note_off_c, 1, 52, 0
2, 85000, Note_on_c, 1, 58, 127
2, 85360, Note_off_c, 1, 58, 0
2, 85400, Note_on_c, 1, 57, 127
2, 85760, Note_off_c, 1, 57, 0
2, 85800, Note_on_c, 1, 60, 127
2, 86160, Note_off_c, 1, 60, 0
2, 86200, Note_on_c, 1, 64, 127
2, 86560, Note_off_c, 1, 64, 0
2, 86640, Note_on_c, 1, 60, 127
2, 87000, Note_off_c, 1, 60, 0
2, 87040, Note_on_c, 1, 64, 127
2, 87400, Note_off_c, 1, 64, 0
2, 87440, Note_on_c, 1, 64, 127
2, 87800, Note_off_c, 1, 64, 0
2, 87840, Note_on_c, 1, 64, 127
2, 88200, Note_off_c, 1, 64, 0
2, 88240, Note_on_c, 1, 67, 127
2, 88760, Note_off_c, 1, 67, 0
2, 88800, Note_on_c, 1, 67, 127
2, 88840, Note_off_c, 1, 67, 0
2, 88880, Note_on_c, 1, 61, 127
2, 89040, Note_off_c, 1, 61, 0
2, 89080, Note_on_c, 1, 64, 127
2, 89440, Note_off_c, 1, 64, 0
2, 89480, Note_on_c, 1, 65, 127
2, 89800, Note_off_c, 1, 65, 0
2, 89840, Note_on_c, 1, 63, 127
2, 90600, Note_off_c, 1, 63, 0
2, 90640, Note_on_c, 1, 69, 127
2, 91000, Note_off_c, 1, 69, 0
2, 91080, Note_on_c, 1, 67, 127
2, 91440, Note_off_c, 1, 67, 0
2, 91480, Note_on_c, 1, 70, 127
2, 91840, Note_off_c, 1, 70, 0
2, 91880, Note_on_c, 1, 72, 127
2, 92640, Note_off_c, 1, 72, 0
2, 92680, Note_on_c, 1, 54, 127
2, 93040, Note_off_c, 1, 54, 0
2, 93080, Note_on_c, 1, 60, 127
2, 93440, Note_off_c, 1, 60, 0
2, 93520, Note_on_c, 1, 62, 127
2, 93840, Note_off_c, 1, 62, 0
2, 93880, Note_on_c, 1, 60, 127
2, 94240, Note_off_c, 1, 60, 0
2, 94280, Note_on_c, 1, 63, 127
2, 94640, Note_off_c, 1, 63, 0
2, 94680, Note_on_c, 1, 61, 127
2, 95040, Note_on_c, 1, 58, 127
2, 95040, Note_off_c, 1, 61, 0
2, 95440, Note_off_c, 1, 58, 0
2, 95480, Note_on_c, 1, 57, 127
2, 95680, Note_off_c, 1, 57, 0
2, 95720, Note_on_c, 1, 57, 127
2, 96240, Note_off_c, 1, 57, 0
2, 96280, Note_on_c, 1, 46, 127
2, 96640, Note_off_c, 1, 46, 0
2, 96680, Note_on_c, 1, 50, 127
2, 97040, Note_off_c, 1, 50, 0
2, 97080, Note_on_c, 1, 58, 127
2, 97440, Note_off_c, 1, 58, 0
2, 97480, Note_on_c, 1, 57, 127
2, 97840, Note_off_c, 1, 57, 0
2, 97920, Note_on_c, 1, 50, 127
2, 98280, Note_off_c, 1, 50, 0
2, 98320, Note_on_c, 1, 39, 127
2, 98680, Note_off_c, 1, 39, 0
2, 98720, Note_on_c, 1, 36, 127
2, 99040, Note_off_c, 1, 36, 0
2, 99080, Note_on_c, 1, 39, 127
2, 99440, Note_off_c, 1, 39, 0
2, 99480, Note_on_c, 1, 39, 127
2, 99840, Note_off_c, 1, 39, 0
2, 99880, Note_on_c, 1, 45, 127
2, 100200, Note_off_c, 1, 45, 0
2, 100240, Note_on_c, 1, 45, 127
2, 100280, Note_off_c, 1, 45, 0
2, 100320, Note_on_c, 1, 43, 127
2, 100680, Note_off_c, 1, 43, 0
2, 100720, Note_on_c, 1, 41, 127
2, 101440, Note_off_c, 1, 41, 0
2, 101480, Note_on_c, 1, 38, 127
2, 101840, Note_off_c, 1, 38, 0
2, 101880, Note_on_c, 1, 39, 127
2, 102240, Note_off_c, 1, 39, 0
2, 102280, Note_on_c, 1, 38, 127
2, 102600, Note_off_c, 1, 38, 0
2, 102640, Note_on_c, 1, 38, 127
2, 102680, Note_off_c, 1, 38, 0
2, 102720, Note_on_c, 1, 43, 127
2, 103440, Note_off_c, 1, 43, 0
2, 103480, Note_on_c, 1, 46, 127
2, 103840, Note_off_c, 1, 46, 0
2, 103880, Note_on_c, 1, 43, 127
2, 104240, Note_off_c, 1, 43, 0
2, 104280, Note_on_c, 1, 46, 127
2, 104640, Note_off_c, 1, 46, 0
2, 104680, Note_on_c, 1, 48, 127
2, 105040, Note_off_c, 1, 48, 0
2, 105120, Note_on_c, 1, 48, 127
2, 105440, Note_off_c, 1, 48, 0
2, 105480, Note_on_c, 1, 54, 127
2, 105840, Note_off_c, 1, 54, 0
2, 105880, Note_on_c, 1, 50, 127
2, 106240, Note_off_c, 1, 50, 0
2, 106280, Note_on_c, 1, 51, 127
2, 106640, Note_off_c, 1, 51, 0
2, 106680, Note_on_c, 1, 41, 127
2, 107040, Note_off_c, 1, 41, 0
2, 107080, Note_on_c, 1, 48, 127
2, 107440, Note_off_c, 1, 48, 0
2, 107520, Note_on_c, 1, 51, 127
2, 107840, Note_off_c, 1, 51, 0
2, 107880, Note_on_c, 1, 48, 127
2, 108240, Note_off_c, 1, 48, 0
2, 108280, Note_on_c, 1, 54, 127
2, 108640, Note_off_c, 1, 54, 0
2, 108640, Note_on_c, 1, 55, 127
2, 109040, Note_off_c, 1, 55, 0
2, 109080, Note_on_c, 1, 53, 127
2, 109440, Note_off_c, 1, 53, 0
2, 109480, Note_on_c, 1, 57, 127
2, 109680, Note_off_c, 1, 57, 0
2, 109720, Note_on_c, 1, 57, 127
2, 109840, Note_off_c, 1, 57, 0
2, 109880, Note_on_c, 1, 60, 127
2, 110240, Note_off_c, 1, 60, 0
2, 110280, Note_on_c, 1, 57, 127
2, 110640, Note_off_c, 1, 57, 0
2, 110680, Note_on_c, 1, 62, 127
2, 111040, Note_off_c, 1, 62, 0
2, 111080, Note_on_c, 1, 65, 127
2, 111440, Note_off_c, 1, 65, 0
2, 111480, Note_on_c, 1, 66, 127
2, 111840, Note_off_c, 1, 66, 0
2, 111920, Note_on_c, 1, 60, 127
2, 112280, Note_off_c, 1, 60, 0
2, 112320, Note_on_c, 1, 58, 127
2, 112680, Note_off_c, 1, 58, 0
2, 112720, Note_on_c, 1, 57, 127
2, 113080, Note_off_c, 1, 57, 0
2, 113120, Note_on_c, 1, 53, 127
2, 113840, Note_off_c, 1, 53, 0
2, 113880, Note_on_c, 1, 58, 127
2, 114200, Note_off_c, 1, 58, 0
2, 114240, Note_on_c, 1, 58, 127
2, 114280, Note_off_c, 1, 58, 0
2, 114320, Note_on_c, 1, 58, 127
2, 114680, Note_off_c, 1, 58, 0
2, 114720, Note_on_c, 1, 52, 127
2, 115080, Note_off_c, 1, 52, 0
2, 115120, Note_on_c, 1, 54, 127
2, 115480, Note_off_c, 1, 54, 0
2, 115520, Note_on_c, 1, 57, 127
2, 115880, Note_off_c, 1, 57, 0
2, 115920, Note_on_c, 1, 58, 127
2, 116240, Note_off_c, 1, 58, 0
2, 116320, Note_on_c, 1, 58, 127
2, 116680, Note_off_c, 1, 58, 0
2, 116720, Note_on_c, 1, 58, 127
2, 117040, Note_off_c, 1, 58, 0
2, 117080, Note_on_c, 1, 58, 127
2, 117440, Note_off_c, 1, 58, 0
2, 117480, Note_on_c, 1, 55, 127
2, 117840, Note_off_c, 1, 55, 0
2, 117880, Note_on_c, 1, 59, 127
2, 118240, Note_off_c, 1, 59, 0
2, 118280, Note_on_c, 1, 57, 127
2, 118640, Note_off_c, 1, 57, 0
2, 118720, Note_on_c, 1, 53, 127
2, 119080, Note_off_c, 1, 53, 0
2, 119120, Note_on_c, 1, 60, 127
2, 119480, Note_off_c, 1, 60, 0
2, 119520, Note_on_c, 1, 58, 127
2, 119840, Note_off_c, 1, 58, 0
2, 119880, Note_on_c, 1, 62, 127
2, 120000, Note_off_c, 1, 62, 0
2, 120040, End_track
3, 0, Start_track
3, 0, Title_t, "MIDI"
3, 1536, End_track
0, 0, End_of_file
