0, 0, Header, 1, 3, 192
1, 0, Start_track
1, 0, Time_signature, 4, 2, 24, 8
1, 0, Tempo, 500000
1, 120040, End_track
2, 0, Start_track
2, 0, Text_t, "random instrument: random person i dunno whatev"
2, 0, Title_t, "Track 1"
2, 0, Note_on_c, 1, 40, 127
2, 0, Note_on_c, 1, 48, 127
2, 0, Note_on_c, 1, 56, 127
2, 0, Note_on_c, 1, 60, 127
2, 40, Note_off_c, 1, 40, 0
2, 40, Note_on_c, 1, 42, 127
2, 40, Note_off_c, 1, 48, 0
2, 40, Note_on_c, 1, 49, 127
2, 40, Note_on_c, 1, 54, 127
2, 40, Note_off_c, 1, 56, 0
2, 40, Note_off_c, 1, 60, 0
2, 40, Note_on_c, 1, 82, 127
2, 40, Note_on_c, 1, 88, 127
2, 40, Note_on_c, 1, 94, 127
2, 80, Note_off_c, 1, 42, 0
2, 80, Note_off_c, 1, 49, 0
2, 80, Note_off_c, 1, 54, 0
2, 80, Note_off_c, 1, 82, 0
2, 80, Note_off_c, 1, 88, 0
2, 80, Note_off_c, 1, 94, 0
2, 120, Note_on_c, 1, 40, 127
2, 120, Note_on_c, 1, 48, 127
2, 120, Note_on_c, 1, 56, 127
2, 120, Note_on_c, 1, 60, 127
2, 360, Note_off_c, 1, 40, 0
2, 360, Note_off_c, 1, 48, 0
2, 360, Note_off_c, 1, 56, 0
2, 360, Note_on_c, 1, 57, 127
2, 360, Note_off_c, 1, 60, 0
2, 360, Note_on_c, 1, 62, 127
2, 360, Note_on_c, 1, 65, 127
2, 360, Note_on_c, 1, 69, 127
2, 360, Note_on_c, 1, 88, 127
2, 400, Note_on_c, 1, 38, 127
2, 400, Note_off_c, 1, 57, 0
2, 400, Note_off_c, 1, 62, 0
2, 400, Note_off_c, 1, 65, 0
2, 400, Note_on_c, 1, 66, 127
2, 400, Note_off_c, 1, 69, 0
2, 400, Note_on_c, 1, 74, 127
2, 400, Note_on_c, 1, 81, 127
2, 400, Note_off_c, 1, 88, 0
2, 440, Note_off_c, 1, 38, 0
2, 440, Note_off_c, 1, 66, 0
2, 440, Note_off_c, 1, 74, 0
2, 480, Note_on_c, 1, 76, 127
2, 480, Note_off_c, 1, 81, 0
2, 520, Note_on_c, 1, 57, 127
2, 520, Note_on_c, 1, 74, 127
2, 520, Note_off_c, 1, 76, 0
2, 680, Note_off_c, 1, 57, 0
2, 680, Note_off_c, 1, 74, 0
2, 720, Note_on_c, 1, 60, 127
2, 1280, Note_on_c, 1, 38, 127
2, 1280, Note_on_c, 1, 54, 127
2, 1280, Note_off_c, 1, 60, 0
2, 1280, Note_on_c, 1, 62, 127
2, 2000, Note_off_c, 1, 38, 0
2, 2000, Note_off_c, 1, 54, 0
2, 2000, Note_off_c, 1, 62, 0
2, 2040, Note_on_c, 1, 50, 127
2, 2120, Note_off_c, 1, 50, 0
2, 2160, Note_on_c, 1, 50, 127
2, 2480, Note_on_c, 1, 62, 127
2, 2480, Note_on_c, 1, 66, 127
2, 2480, Note_on_c, 1, 69, 127
2, 2840, Note_off_c, 1, 50, 0
2, 2840, Note_off_c, 1, 62, 0
2, 2840, Note_off_c, 1, 66, 0
2, 2840, Note_off_c, 1, 69, 0
2, 2880, Note_on_c, 1, 43, 127
2, 2880, Note_on_c, 1, 50, 127
2, 2880, Note_on_c, 1, 59, 127
2, 2880, Note_on_c, 1, 64, 127
2, 3760, Note_on_c, 1, 62, 127
2, 3760, Note_off_c, 1, 64, 0
2, 3800, Note_off_c, 1, 62, 0
2, 3800, Note_on_c, 1, 64, 127
2, 3840, Note_off_c, 1, 59, 0
2, 3840, Note_off_c, 1, 64, 0
2, 4040, Note_on_c, 1, 59, 127
2, 4040, Note_on_c, 1, 62, 127
2, 4680, Note_off_c, 1, 43, 0
2, 4680, Note_off_c, 1, 50, 0
2, 4680, Note_off_c, 1, 59, 0
2, 4680, Note_off_c, 1, 62, 0
2, 4720, Note_on_c, 1, 43, 127
2, 4720, Note_on_c, 1, 50, 127
2, 4720, Note_on_c, 1, 59, 127
2, 4760, Note_on_c, 1, 62, 127
2, 5240, Note_off_c, 1, 59, 0
2, 5240, Note_on_c, 1, 60, 127
2, 5240, Note_on_c, 1, 69, 127
2, 5280, Note_on_c, 1, 59, 127
2, 5280, Note_off_c, 1, 60, 0
2, 5280, Note_off_c, 1, 69, 0
2, 5640, Note_off_c, 1, 43, 0
2, 5640, Note_off_c, 1, 50, 0
2, 5640, Note_off_c, 1, 59, 0
2, 5640, Note_off_c, 1, 62, 0
2, 5680, Note_on_c, 1, 43, 127
2, 5680, Note_on_c, 1, 50, 127
2, 5680, Note_on_c, 1, 59, 127
2, 5680, Note_on_c, 1, 62, 127
2, 6040, Note_off_c, 1, 59, 0
2, 6040, Note_off_c, 1, 62, 0
2, 6080, Note_on_c, 1, 59, 127
2, 6080, Note_on_c, 1, 62, 127
2, 6880, Note_off_c, 1, 43, 0
2, 6880, Note_off_c, 1, 50, 0
2, 6880, Note_off_c, 1, 59, 0
2, 6880, Note_off_c, 1, 62, 0
2, 6960, Note_on_c, 1, 43, 127
2, 6960, Note_on_c, 1, 50, 127
2, 6960, Note_on_c, 1, 59, 127
2, 6960, Note_on_c, 1, 71, 127
2, 8520, Note_off_c, 1, 59, 0
2, 8520, Note_on_c, 1, 67, 127
2, 8840, Note_off_c, 1, 43, 0
2, 8840, Note_off_c, 1, 50, 0
2, 8840, Note_off_c, 1, 67, 0
2, 8840, Note_off_c, 1, 71, 0
2, 8880, Note_on_c, 1, 43, 127
2, 8880, Note_on_c, 1, 50, 127
2, 8880, Note_on_c, 1, 67, 127
2, 8880, Note_on_c, 1, 71, 127
2, 8960, Note_off_c, 1, 43, 0
2, 8960, Note_off_c, 1, 50, 0
2, 8960, Note_off_c, 1, 67, 0
2, 8960, Note_off_c, 1, 71, 0
2, 10360, Note_on_c, 1, 62, 127
2, 10720, Note_off_c, 1, 62, 0
2, 10760, Note_on_c, 1, 60, 127
2, 10760, Note_on_c, 1, 67, 127
2, 10760, Note_on_c, 1, 70, 127
2, 10760, Note_on_c, 1, 82, 127
2, 10800, Note_on_c, 1, 79, 127
2, 10800, Note_off_c, 1, 82, 0
2, 10880, Note_on_c, 1, 76, 127
2, 10880, Note_off_c, 1, 79, 0
2, 10920, Note_off_c, 1, 76, 0
2, 10920, Note_on_c, 1, 79, 127
2, 11080, Note_off_c, 1, 79, 0
2, 11160, Note_on_c, 1, 76, 127
2, 11480, Note_off_c, 1, 60, 0
2, 11480, Note_off_c, 1, 67, 0
2, 11480, Note_off_c, 1, 70, 0
2, 11480, Note_off_c, 1, 76, 0
2, 11480, Note_on_c, 1, 77, 127
2, 11520, Note_on_c, 1, 65, 127
2, 11520, Note_on_c, 1, 69, 127
2, 12240, Note_off_c, 1, 65, 0
2, 12240, Note_off_c, 1, 69, 0
2, 12240, Note_off_c, 1, 77, 0
2, 12280, Note_on_c, 1, 82, 127
2, 12440, Note_off_c, 1, 82, 0
2, 12480, Note_on_c, 1, 82, 127
2, 12680, Note_off_c, 1, 82, 0
2, 12720, Note_on_c, 1, 64, 127
2, 12720, Note_on_c, 1, 70, 127
2, 12720, Note_on_c, 1, 79, 127
2, 13480, Note_off_c, 1, 64, 0
2, 13480, Note_off_c, 1, 70, 0
2, 13520, Note_on_c, 1, 64, 127
2, 13520, Note_on_c, 1, 70, 127
2, 14040, Note_off_c, 1, 79, 0
2, 14080, Note_on_c, 1, 82, 127
2, 14240, Note_off_c, 1, 64, 0
2, 14240, Note_off_c, 1, 70, 0
2, 14240, Note_off_c, 1, 82, 0
2, 14280, Note_on_c, 1, 81, 127
2, 14640, Note_on_c, 1, 62, 127
2, 14640, Note_on_c, 1, 65, 127
2, 14800, Note_off_c, 1, 81, 0
2, 14840, Note_off_c, 1, 62, 0
2, 14840, Note_off_c, 1, 65, 0
2, 14880, Note_on_c, 1, 62, 127
2, 14880, Note_on_c, 1, 65, 127
2, 14880, Note_on_c, 1, 82, 127
2, 15000, Note_off_c, 1, 82, 0
2, 15040, Note_on_c, 1, 54, 127
2, 15040, Note_off_c, 1, 65, 0
2, 15040, Note_on_c, 1, 78, 127
2, 15400, Note_off_c, 1, 54, 0
2, 15400, Note_off_c, 1, 62, 0
2, 15400, Note_off_c, 1, 78, 0
2, 15440, Note_on_c, 1, 79, 127
2, 16200, Note_on_c, 1, 46, 127
2, 16200, Note_on_c, 1, 58, 127
2, 16200, Note_off_c, 1, 79, 0
2, 16200, Note_on_c, 1, 82, 127
2, 16520, Note_off_c, 1, 82, 0
2, 16560, Note_on_c, 1, 81, 127
2, 16880, Note_on_c, 1, 77, 127
2, 16880, Note_off_c, 1, 81, 0
2, 16920, Note_off_c, 1, 77, 0
2, 16960, Note_off_c, 1, 46, 0
2, 16960, Note_off_c, 1, 58, 0
2, 17000, Note_on_c, 1, 46, 127
2, 17000, Note_on_c, 1, 58, 127
2, 17000, Note_on_c, 1, 77, 127
2, 17720, Note_off_c, 1, 46, 0
2, 17720, Note_off_c, 1, 58, 0
2, 17720, Note_off_c, 1, 77, 0
2, 17760, Note_on_c, 1, 77, 127
2, 19080, Note_off_c, 1, 77, 0
2, 19120, Note_on_c, 1, 77, 127
2, 19680, Note_off_c, 1, 77, 0
2, 19720, Note_on_c, 1, 81, 127
2, 20640, Note_off_c, 1, 81, 0
2, 20640, Note_on_c, 1, 82, 127
2, 20680, Note_on_c, 1, 81, 127
2, 20680, Note_off_c, 1, 82, 0
2, 20840, Note_off_c, 1, 81, 0
2, 20880, Note_on_c, 1, 79, 127
2, 21120, Note_off_c, 1, 79, 0
2, 21160, Note_on_c, 1, 79, 127
2, 21280, Note_off_c, 1, 79, 0
2, 21320, Note_on_c, 1, 74, 127
2, 23120, Note_off_c, 1, 74, 0
2, 23160, Note_on_c, 1, 74, 127
2, 23240, Note_off_c, 1, 74, 0
2, 23240, Note_on_c, 1, 77, 127
2, 23280, Note_on_c, 1, 58, 127
2, 23600, Note_off_c, 1, 58, 0
2, 23600, Note_off_c, 1, 77, 0
2, 23640, Note_on_c, 1, 62, 127
2, 23640, Note_on_c, 1, 79, 127
2, 24000, Note_off_c, 1, 62, 0
2, 24040, Note_on_c, 1, 67, 127
2, 24040, Note_on_c, 1, 77, 127
2, 24040, Note_off_c, 1, 79, 0
2, 24360, Note_off_c, 1, 67, 0
2, 24400, Note_on_c, 1, 65, 127
2, 24720, Note_off_c, 1, 65, 0
2, 24720, Note_off_c, 1, 77, 0
2, 24760, Note_on_c, 1, 74, 127
2, 24760, Note_on_c, 1, 79, 127
2, 25120, Note_off_c, 1, 79, 0
2, 25160, Note_on_c, 1, 62, 127
2, 25360, Note_off_c, 1, 62, 0
2, 25360, Note_off_c, 1, 74, 0
2, 25400, Note_on_c, 1, 62, 127
2, 25400, Note_on_c, 1, 74, 127
2, 25520, Note_off_c, 1, 62, 0
2, 25560, Note_on_c, 1, 65, 127
2, 25920, Note_off_c, 1, 65, 0
2, 25960, Note_on_c, 1, 69, 127
2, 26280, Note_off_c, 1, 69, 0
2, 26280, Note_off_c, 1, 74, 0
2, 26320, Note_on_c, 1, 39, 127
2, 26320, Note_on_c, 1, 51, 127
2, 26320, Note_on_c, 1, 63, 127
2, 26320, Note_on_c, 1, 71, 127
2, 26320, Note_on_c, 1, 75, 127
2, 26360, Note_on_c, 1, 38, 127
2, 26360, Note_off_c, 1, 39, 0
2, 26360, Note_on_c, 1, 50, 127
2, 26360, Note_off_c, 1, 51, 0
2, 26360, Note_off_c, 1, 63, 0
2, 26360, Note_off_c, 1, 75, 0
2, 26360, Note_on_c, 1, 77, 127
2, 26360, Note_on_c, 1, 83, 127
2, 26400, Note_off_c, 1, 38, 0
2, 26400, Note_off_c, 1, 50, 0
2, 26400, Note_on_c, 1, 66, 127
2, 26400, Note_off_c, 1, 71, 0
2, 26400, Note_on_c, 1, 73, 127
2, 26400, Note_on_c, 1, 75, 127
2, 26400, Note_off_c, 1, 77, 0
2, 26400, Note_on_c, 1, 80, 127
2, 26400, Note_off_c, 1, 83, 0
2, 26440, Note_on_c, 1, 38, 127
2, 26440, Note_on_c, 1, 50, 127
2, 26440, Note_off_c, 1, 66, 0
2, 26440, Note_on_c, 1, 71, 127
2, 26440, Note_off_c, 1, 73, 0
2, 26440, Note_off_c, 1, 75, 0
2, 26440, Note_on_c, 1, 77, 127
2, 26440, Note_off_c, 1, 80, 0
2, 26440, Note_on_c, 1, 83, 127
2, 26480, Note_on_c, 1, 36, 127
2, 26480, Note_off_c, 1, 38, 0
2, 26480, Note_on_c, 1, 48, 127
2, 26480, Note_off_c, 1, 50, 0
2, 26480, Note_off_c, 1, 71, 0
2, 26480, Note_on_c, 1, 72, 127
2, 26480, Note_on_c, 1, 76, 127
2, 26480, Note_off_c, 1, 77, 0
2, 26480, Note_off_c, 1, 83, 0
2, 26480, Note_on_c, 1, 84, 127
2, 26840, Note_off_c, 1, 36, 0
2, 26840, Note_off_c, 1, 48, 0
2, 26840, Note_off_c, 1, 72, 0
2, 26840, Note_off_c, 1, 76, 0
2, 26840, Note_off_c, 1, 84, 0
2, 27080, Note_on_c, 1, 72, 127
2, 27240, Note_off_c, 1, 72, 0
2, 27280, Note_on_c, 1, 79, 127
2, 27440, Note_off_c, 1, 79, 0
2, 27480, Note_on_c, 1, 74, 127
2, 27600, Note_off_c, 1, 74, 0
2, 27640, Note_on_c, 1, 74, 127
2, 27680, Note_off_c, 1, 74, 0
2, 27720, Note_on_c, 1, 74, 127
2, 27840, Note_off_c, 1, 74, 0
2, 27840, Note_on_c, 1, 75, 127
2, 27880, Note_off_c, 1, 75, 0
2, 27920, Note_on_c, 1, 74, 127
2, 28280, Note_off_c, 1, 74, 0
2, 28320, Note_on_c, 1, 74, 127
2, 29400, Note_off_c, 1, 74, 0
2, 29440, Note_on_c, 1, 76, 127
2, 29800, Note_off_c, 1, 76, 0
2, 29880, Note_on_c, 1, 74, 127
2, 30600, Note_off_c, 1, 74, 0
2, 30640, Note_on_c, 1, 43, 127
2, 31400, Note_off_c, 1, 43, 0
2, 31440, Note_on_c, 1, 42, 127
2, 31760, Note_off_c, 1, 42, 0
2, 31800, Note_on_c, 1, 43, 127
2, 32080, Note_off_c, 1, 43, 0
2, 32120, Note_on_c, 1, 43, 127
2, 32160, Note_off_c, 1, 43, 0
2, 32200, Note_on_c, 1, 45, 127
2, 32560, Note_off_c, 1, 45, 0
2, 32600, Note_on_c, 1, 57, 127
2, 32600, Note_on_c, 1, 73, 127
2, 32920, Note_off_c, 1, 57, 0
2, 32960, Note_on_c, 1, 59, 127
2, 33320, Note_off_c, 1, 59, 0
2, 33320, Note_off_c, 1, 73, 0
2, 33360, Note_on_c, 1, 51, 127
2, 33360, Note_on_c, 1, 71, 127
2, 33680, Note_off_c, 1, 51, 0
2, 33720, Note_on_c, 1, 54, 127
2, 33720, Note_off_c, 1, 71, 0
2, 33720, Note_on_c, 1, 72, 127
2, 34080, Note_off_c, 1, 54, 0
2, 34120, Note_on_c, 1, 57, 127
2, 34240, Note_off_c, 1, 57, 0
2, 34240, Note_off_c, 1, 72, 0
2, 34280, Note_on_c, 1, 57, 127
2, 34280, Note_on_c, 1, 72, 127
2, 34480, Note_off_c, 1, 57, 0
2, 34480, Note_off_c, 1, 72, 0
2, 34520, Note_on_c, 1, 43, 127
2, 34520, Note_on_c, 1, 74, 127
2, 34880, Note_off_c, 1, 43, 0
2, 34920, Note_on_c, 1, 57, 127
2, 35240, Note_off_c, 1, 57, 0
2, 35240, Note_off_c, 1, 74, 0
2, 35280, Note_on_c, 1, 48, 127
2, 35280, Note_on_c, 1, 81, 127
2, 35640, Note_off_c, 1, 48, 0
2, 35680, Note_on_c, 1, 55, 127
2, 36000, Note_off_c, 1, 55, 0
2, 36040, Note_on_c, 1, 50, 127
2, 36400, Note_off_c, 1, 50, 0
2, 36440, Note_off_c, 1, 81, 0
2, 36480, Note_on_c, 1, 50, 127
2, 36480, Note_on_c, 1, 81, 127
2, 36800, Note_off_c, 1, 50, 0
2, 36840, Note_on_c, 1, 50, 127
2, 36840, Note_off_c, 1, 81, 0
2, 36840, Note_on_c, 1, 83, 127
2, 37200, Note_off_c, 1, 50, 0
2, 37240, Note_on_c, 1, 54, 127
2, 37560, Note_off_c, 1, 54, 0
2, 37600, Note_on_c, 1, 55, 127
2, 37960, Note_off_c, 1, 55, 0
2, 38000, Note_on_c, 1, 54, 127
2, 38320, Note_off_c, 1, 54, 0
2, 38360, Note_on_c, 1, 55, 127
2, 38360, Note_on_c, 1, 81, 127
2, 38360, Note_off_c, 1, 83, 0
2, 38520, Note_off_c, 1, 81, 0
2, 38560, Note_on_c, 1, 81, 127
2, 38720, Note_off_c, 1, 55, 0
2, 38760, Note_off_c, 1, 81, 0
2, 38800, Note_on_c, 1, 55, 127
2, 38800, Note_on_c, 1, 81, 127
2, 39120, Note_off_c, 1, 55, 0
2, 39120, Note_off_c, 1, 81, 0
2, 39160, Note_on_c, 1, 63, 127
2, 39160, Note_on_c, 1, 66, 127
2, 39160, Note_on_c, 1, 81, 127
2, 39520, Note_off_c, 1, 63, 0
2, 39520, Note_off_c, 1, 66, 0
2, 39520, Note_off_c, 1, 81, 0
2, 39560, Note_on_c, 1, 65, 127
2, 39560, Note_on_c, 1, 69, 127
2, 39560, Note_on_c, 1, 81, 127
2, 39880, Note_off_c, 1, 65, 0
2, 39880, Note_off_c, 1, 69, 0
2, 39920, Note_on_c, 1, 55, 127
2, 40280, Note_off_c, 1, 55, 0
2, 40280, Note_off_c, 1, 81, 0
2, 40320, Note_on_c, 1, 48, 127
2, 40320, Note_on_c, 1, 75, 127
2, 40320, Note_on_c, 1, 79, 127
2, 40640, Note_off_c, 1, 48, 0
2, 40680, Note_on_c, 1, 43, 127
2, 40680, Note_on_c, 1, 74, 127
2, 40680, Note_off_c, 1, 75, 0
2, 40680, Note_on_c, 1, 77, 127
2, 40680, Note_off_c, 1, 79, 0
2, 40960, Note_off_c, 1, 43, 0
2, 40960, Note_off_c, 1, 74, 0
2, 40960, Note_off_c, 1, 77, 0
2, 41000, Note_on_c, 1, 43, 127
2, 41000, Note_on_c, 1, 74, 127
2, 41000, Note_on_c, 1, 77, 127
2, 41080, Note_off_c, 1, 43, 0
2, 41080, Note_off_c, 1, 74, 0
2, 41080, Note_off_c, 1, 77, 0
2, 41120, Note_on_c, 1, 47, 127
2, 41120, Note_on_c, 1, 55, 127
2, 41120, Note_on_c, 1, 74, 127
2, 41120, Note_on_c, 1, 77, 127
2, 41480, Note_off_c, 1, 55, 0
2, 41480, Note_off_c, 1, 74, 0
2, 41520, Note_on_c, 1, 55, 127
2, 41520, Note_on_c, 1, 74, 127
2, 41840, Note_off_c, 1, 47, 0
2, 41840, Note_off_c, 1, 55, 0
2, 41840, Note_off_c, 1, 74, 0
2, 41840, Note_off_c, 1, 77, 0
2, 41880, Note_on_c, 1, 55, 127
2, 41880, Note_on_c, 1, 59, 127
2, 41880, Note_on_c, 1, 71, 127
2, 41880, Note_on_c, 1, 74, 127
2, 42240, Note_off_c, 1, 59, 0
2, 42240, Note_off_c, 1, 71, 0
2, 42280, Note_on_c, 1, 64, 127
2, 42600, Note_off_c, 1, 55, 0
2, 42600, Note_off_c, 1, 64, 0
2, 42640, Note_on_c, 1, 55, 127
2, 43000, Note_off_c, 1, 55, 0
2, 43040, Note_on_c, 1, 55, 127
2, 43240, Note_off_c, 1, 55, 0
2, 43240, Note_off_c, 1, 74, 0
2, 43280, Note_on_c, 1, 55, 127
2, 43280, Note_on_c, 1, 74, 127
2, 43400, Note_off_c, 1, 55, 0
2, 43400, Note_off_c, 1, 74, 0
2, 43440, Note_on_c, 1, 57, 127
2, 43440, Note_on_c, 1, 72, 127
2, 43800, Note_off_c, 1, 57, 0
2, 43840, Note_on_c, 1, 50, 127
2, 44160, Note_off_c, 1, 50, 0
2, 44200, Note_on_c, 1, 54, 127
2, 44560, Note_off_c, 1, 54, 0
2, 44560, Note_off_c, 1, 72, 0
2, 44600, Note_on_c, 1, 57, 127
2, 44600, Note_on_c, 1, 72, 127
2, 44920, Note_off_c, 1, 72, 0
2, 44960, Note_on_c, 1, 54, 127
2, 44960, Note_off_c, 1, 57, 0
2, 44960, Note_on_c, 1, 72, 127
2, 45320, Note_off_c, 1, 54, 0
2, 45320, Note_off_c, 1, 72, 0
2, 45360, Note_on_c, 1, 51, 127
2, 45360, Note_on_c, 1, 69, 127
2, 45640, Note_off_c, 1, 51, 0
2, 45640, Note_off_c, 1, 69, 0
2, 45680, Note_on_c, 1, 51, 127
2, 45680, Note_on_c, 1, 69, 127
2, 45720, Note_off_c, 1, 69, 0
2, 45760, Note_on_c, 1, 72, 127
2, 46120, Note_off_c, 1, 51, 0
2, 46120, Note_off_c, 1, 72, 0
2, 46160, Note_on_c, 1, 55, 127
2, 46160, Note_on_c, 1, 71, 127
2, 46520, Note_off_c, 1, 55, 0
2, 46520, Note_off_c, 1, 71, 0
2, 46560, Note_on_c, 1, 60, 127
2, 46560, Note_on_c, 1, 69, 127
2, 46920, Note_off_c, 1, 60, 0
2, 46920, Note_off_c, 1, 69, 0
2, 46960, Note_on_c, 1, 59, 127
2, 46960, Note_on_c, 1, 67, 127
2, 47280, Note_off_c, 1, 59, 0
2, 47280, Note_off_c, 1, 67, 0
2, 47320, Note_on_c, 1, 55, 127
2, 47320, Note_on_c, 1, 67, 127
2, 47680, Note_on_c, 1, 47, 127
2, 47680, Note_off_c, 1, 55, 0
2, 47680, Note_on_c, 1, 57, 127
2, 47680, Note_on_c, 1, 62, 127
2, 47680, Note_off_c, 1, 67, 0
2, 47680, Note_on_c, 1, 68, 127
2, 47680, Note_on_c, 1, 71, 127
2, 47720, Note_off_c, 1, 47, 0
2, 47720, Note_on_c, 1, 49, 127
2, 47720, Note_on_c, 1, 55, 127
2, 47720, Note_off_c, 1, 57, 0
2, 47720, Note_on_c, 1, 59, 127
2, 47720, Note_off_c, 1, 62, 0
2, 47720, Note_on_c, 1, 67, 127
2, 47720, Note_off_c, 1, 68, 0
2, 47720, Note_off_c, 1, 71, 0
2, 47760, Note_off_c, 1, 49, 0
2, 47760, Note_off_c, 1, 55, 0
2, 47760, Note_off_c, 1, 59, 0
2, 47760, Note_off_c, 1, 67, 0
2, 47800, Note_on_c, 1, 55, 127
2, 47800, Note_on_c, 1, 61, 127
2, 47800, Note_on_c, 1, 70, 127
2, 47800, Note_on_c, 1, 79, 127
2, 47800, Note_on_c, 1, 82, 127
2, 47840, Note_on_c, 1, 51, 127
2, 47840, Note_on_c, 1, 59, 127
2, 47840, Note_off_c, 1, 61, 0
2, 47840, Note_on_c, 1, 67, 127
2, 47840, Note_off_c, 1, 70, 0
2, 47840, Note_off_c, 1, 79, 0
2, 47840, Note_off_c, 1, 82, 0
2, 47880, Note_off_c, 1, 51, 0
2, 47880, Note_on_c, 1, 52, 127
2, 47880, Note_off_c, 1, 55, 0
2, 47880, Note_off_c, 1, 59, 0
2, 47880, Note_on_c, 1, 66, 127
2, 47880, Note_off_c, 1, 67, 0
2, 47880, Note_on_c, 1, 73, 127
2, 47880, Note_on_c, 1, 82, 127
2, 47880, Note_on_c, 1, 85, 127
2, 47920, Note_off_c, 1, 52, 0
2, 47920, Note_on_c, 1, 56, 127
2, 47920, Note_on_c, 1, 59, 127
2, 47920, Note_on_c, 1, 65, 127
2, 47920, Note_off_c, 1, 66, 0
2, 47920, Note_on_c, 1, 68, 127
2, 47920, Note_on_c, 1, 71, 127
2, 47920, Note_off_c, 1, 73, 0
2, 47920, Note_on_c, 1, 74, 127
2, 47920, Note_off_c, 1, 82, 0
2, 47920, Note_off_c, 1, 85, 0
2, 47960, Note_off_c, 1, 59, 0
2, 47960, Note_on_c, 1, 62, 127
2, 47960, Note_off_c, 1, 65, 0
2, 47960, Note_off_c, 1, 71, 0
2, 47960, Note_off_c, 1, 74, 0
2, 47960, Note_on_c, 1, 80, 127
2, 47960, Note_on_c, 1, 86, 127
2, 48000, Note_on_c, 1, 51, 127
2, 48000, Note_on_c, 1, 55, 127
2, 48000, Note_off_c, 1, 56, 0
2, 48000, Note_on_c, 1, 59, 127
2, 48000, Note_off_c, 1, 62, 0
2, 48000, Note_on_c, 1, 67, 127
2, 48000, Note_off_c, 1, 68, 0
2, 48000, Note_off_c, 1, 80, 0
2, 48000, Note_off_c, 1, 86, 0
2, 48080, Note_off_c, 1, 59, 0
2, 48480, Note_off_c, 1, 51, 0
2, 48480, Note_off_c, 1, 55, 0
2, 48480, Note_off_c, 1, 67, 0
2, 48520, Note_on_c, 1, 50, 127
2, 48520, Note_on_c, 1, 54, 127
2, 48520, Note_on_c, 1, 74, 127
2, 49160, Note_off_c, 1, 74, 0
2, 49200, Note_on_c, 1, 74, 127
2, 49240, Note_off_c, 1, 74, 0
2, 49280, Note_on_c, 1, 74, 127
2, 49640, Note_off_c, 1, 74, 0
2, 49680, Note_on_c, 1, 69, 127
2, 50000, Note_off_c, 1, 69, 0
2, 50040, Note_on_c, 1, 74, 127
2, 50120, Note_off_c, 1, 50, 0
2, 50120, Note_off_c, 1, 54, 0
2, 50120, Note_off_c, 1, 74, 0
2, 50160, Note_on_c, 1, 50, 127
2, 50160, Note_on_c, 1, 54, 127
2, 50160, Note_on_c, 1, 74, 127
2, 50400, Note_off_c, 1, 74, 0
2, 50440, Note_off_c, 1, 54, 0
2, 50840, Note_on_c, 1, 57, 127
2, 51960, Note_off_c, 1, 50, 0
2, 51960, Note_off_c, 1, 57, 0
2, 52040, Note_on_c, 1, 38, 127
2, 52040, Note_on_c, 1, 50, 127
2, 52360, Note_off_c, 1, 38, 0
2, 52360, Note_off_c, 1, 50, 0
2, 52400, Note_on_c, 1, 38, 127
2, 52400, Note_on_c, 1, 50, 127
2, 52720, Note_off_c, 1, 38, 0
2, 52720, Note_off_c, 1, 50, 0
2, 54920, Note_on_c, 1, 65, 127
2, 54920, Note_on_c, 1, 72, 127
2, 54920, Note_on_c, 1, 81, 127
2, 54920, Note_on_c, 1, 89, 127
2, 55640, Note_off_c, 1, 65, 0
2, 55640, Note_off_c, 1, 72, 0
2, 55640, Note_off_c, 1, 81, 0
2, 55640, Note_off_c, 1, 89, 0
2, 55720, Note_on_c, 1, 65, 127
2, 55720, Note_on_c, 1, 72, 127
2, 55720, Note_on_c, 1, 81, 127
2, 55720, Note_on_c, 1, 89, 127
2, 56160, Note_off_c, 1, 65, 0
2, 56160, Note_off_c, 1, 72, 0
2, 56160, Note_off_c, 1, 81, 0
2, 56160, Note_off_c, 1, 89, 0
2, 56200, Note_on_c, 1, 65, 127
2, 56200, Note_on_c, 1, 72, 127
2, 56200, Note_on_c, 1, 81, 127
2, 56200, Note_on_c, 1, 89, 127
2, 56880, Note_on_c, 1, 29, 127
2, 56880, Note_on_c, 1, 41, 127
2, 56880, Note_off_c, 1, 65, 0
2, 56880, Note_off_c, 1, 72, 0
2, 56880, Note_off_c, 1, 81, 0
2, 56880, Note_off_c, 1, 89, 0
2, 56920, Note_off_c, 1, 29, 0
2, 56920, Note_off_c, 1, 41, 0
2, 56920, Note_on_c, 1, 65, 127
2, 56920, Note_on_c, 1, 72, 127
2, 56920, Note_on_c, 1, 81, 127
2, 56920, Note_on_c, 1, 84, 127
2, 57440, Note_on_c, 1, 77, 127
2, 57440, Note_off_c, 1, 84, 0
2, 57480, Note_off_c, 1, 77, 0
2, 57480, Note_on_c, 1, 84, 127
2, 58040, Note_on_c, 1, 77, 127
2, 58040, Note_off_c, 1, 84, 0
2, 58080, Note_off_c, 1, 77, 0
2, 58080, Note_on_c, 1, 84, 127
2, 58480, Note_off_c, 1, 65, 0
2, 58480, Note_off_c, 1, 72, 0
2, 58480, Note_off_c, 1, 81, 0
2, 58480, Note_off_c, 1, 84, 0
2, 58960, Note_on_c, 1, 81, 127
2, 59520, Note_on_c, 1, 79, 127
2, 59520, Note_off_c, 1, 81, 0
2, 59720, Note_off_c, 1, 79, 0
2, 59760, Note_on_c, 1, 77, 127
2, 60880, Note_off_c, 1, 77, 0
2, 60960, Note_on_c, 1, 77, 127
2, 61480, Note_off_c, 1, 77, 0
2, 61520, Note_on_c, 1, 81, 127
2, 61840, Note_off_c, 1, 81, 0
2, 61880, Note_on_c, 1, 81, 127
2, 62240, Note_off_c, 1, 81, 0
2, 62280, Note_on_c, 1, 82, 127
2, 63040, Note_off_c, 1, 82, 0
2, 63080, Note_on_c, 1, 80, 127
2, 63240, Note_off_c, 1, 80, 0
2, 63280, Note_on_c, 1, 80, 127
2, 63840, Note_off_c, 1, 80, 0
2, 63880, Note_on_c, 1, 81, 127
2, 64040, Note_off_c, 1, 81, 0
2, 64080, Note_on_c, 1, 82, 127
2, 64240, Note_off_c, 1, 82, 0
2, 64280, Note_on_c, 1, 81, 127
2, 64440, Note_off_c, 1, 81, 0
2, 64480, Note_on_c, 1, 79, 127
2, 64640, Note_off_c, 1, 79, 0
2, 64680, Note_on_c, 1, 79, 127
2, 64840, Note_off_c, 1, 79, 0
2, 64880, Note_on_c, 1, 77, 127
2, 65000, Note_off_c, 1, 77, 0
2, 65240, Note_on_c, 1, 74, 127
2, 65360, Note_off_c, 1, 74, 0
2, 65400, Note_on_c, 1, 74, 127
2, 65440, Note_off_c, 1, 74, 0
2, 65640, Note_on_c, 1, 72, 127
2, 65840, Note_off_c, 1, 72, 0
2, 66040, Note_on_c, 1, 77, 127
2, 66200, Note_off_c, 1, 77, 0
2, 66440, Note_on_c, 1, 74, 127
2, 66560, Note_off_c, 1, 74, 0
2, 66800, Note_on_c, 1, 70, 127
2, 67120, Note_off_c, 1, 70, 0
2, 67160, Note_on_c, 1, 69, 127
2, 67560, Note_off_c, 1, 69, 0
2, 67640, Note_on_c, 1, 69, 127
2, 67960, Note_off_c, 1, 69, 0
2, 68000, Note_on_c, 1, 65, 127
2, 68720, Note_off_c, 1, 65, 0
2, 68760, Note_on_c, 1, 64, 127
2, 69480, Note_off_c, 1, 64, 0
2, 69520, Note_on_c, 1, 65, 127
2, 69880, Note_off_c, 1, 65, 0
2, 70000, Note_on_c, 1, 69, 127
2, 70200, Note_off_c, 1, 69, 0
2, 70400, Note_on_c, 1, 68, 127
2, 70680, Note_off_c, 1, 68, 0
2, 70760, Note_on_c, 1, 69, 127
2, 71120, Note_off_c, 1, 69, 0
2, 71160, Note_on_c, 1, 79, 127
2, 71520, Note_off_c, 1, 79, 0
2, 71560, Note_on_c, 1, 60, 127
2, 71880, Note_off_c, 1, 60, 0
2, 71920, Note_on_c, 1, 64, 127
2, 72280, Note_off_c, 1, 64, 0
2, 72360, Note_on_c, 1, 64, 127
2, 73080, Note_off_c, 1, 64, 0
2, 73120, Note_on_c, 1, 65, 127
2, 73120, Note_on_c, 1, 77, 127
2, 73840, Note_off_c, 1, 65, 0
2, 73840, Note_off_c, 1, 77, 0
2, 73880, Note_on_c, 1, 64, 127
2, 73880, Note_on_c, 1, 76, 127
2, 74240, Note_off_c, 1, 64, 0
2, 74240, Note_off_c, 1, 76, 0
2, 74280, Note_on_c, 1, 65, 127
2, 74280, Note_on_c, 1, 77, 127
2, 74680, Note_off_c, 1, 65, 0
2, 74680, Note_off_c, 1, 77, 0
2, 74720, Note_on_c, 1, 55, 127
2, 74720, Note_on_c, 1, 58, 127
2, 74720, Note_on_c, 1, 62, 127
2, 74720, Note_on_c, 1, 67, 127
2, 74720, Note_on_c, 1, 70, 127
2, 75040, Note_off_c, 1, 58, 0
2, 75040, Note_off_c, 1, 67, 0
2, 75040, Note_off_c, 1, 70, 0
2, 75080, Note_on_c, 1, 71, 127
2, 75080, Note_on_c, 1, 79, 127
2, 75440, Note_off_c, 1, 55, 0
2, 75440, Note_off_c, 1, 62, 0
2, 75440, Note_off_c, 1, 71, 0
2, 75440, Note_off_c, 1, 79, 0
2, 75480, Note_on_c, 1, 35, 127
2, 75480, Note_on_c, 1, 42, 127
2, 75480, Note_on_c, 1, 47, 127
2, 75480, Note_on_c, 1, 50, 127
2, 75480, Note_on_c, 1, 54, 127
2, 75480, Note_on_c, 1, 61, 127
2, 75520, Note_off_c, 1, 35, 0
2, 75520, Note_off_c, 1, 42, 0
2, 75520, Note_off_c, 1, 47, 0
2, 75520, Note_off_c, 1, 50, 0
2, 75520, Note_off_c, 1, 54, 0
2, 75520, Note_off_c, 1, 61, 0
2, 75520, Note_on_c, 1, 69, 127
2, 75520, Note_on_c, 1, 76, 127
2, 75520, Note_on_c, 1, 79, 127
2, 75520, Note_on_c, 1, 85, 127
2, 75520, Note_on_c, 1, 88, 127
2, 75760, Note_off_c, 1, 69, 0
2, 76160, Note_off_c, 1, 76, 0
2, 76160, Note_off_c, 1, 79, 0
2, 76160, Note_off_c, 1, 85, 0
2, 76160, Note_off_c, 1, 88, 0
2, 76160, Note_on_c, 1, 89, 127
2, 76160, Note_on_c, 1, 93, 127
2, 76200, Note_off_c, 1, 89, 0
2, 76200, Note_off_c, 1, 93, 0
2, 76240, Note_on_c, 1, 36, 127
2, 76240, Note_on_c, 1, 48, 127
2, 76240, Note_on_c, 1, 84, 127
2, 76240, Note_on_c, 1, 87, 127
2, 76240, Note_on_c, 1, 92, 127
2, 76240, Note_on_c, 1, 96, 127
2, 76600, Note_off_c, 1, 36, 0
2, 76600, Note_off_c, 1, 48, 0
2, 76600, Note_on_c, 1, 83, 127
2, 76600, Note_off_c, 1, 84, 0
2, 76600, Note_on_c, 1, 86, 127
2, 76600, Note_off_c, 1, 87, 0
2, 76600, Note_off_c, 1, 92, 0
2, 76600, Note_on_c, 1, 95, 127
2, 76600, Note_off_c, 1, 96, 0
2, 76640, Note_on_c, 1, 44, 127
2, 76640, Note_on_c, 1, 49, 127
2, 76640, Note_on_c, 1, 59, 127
2, 76640, Note_on_c, 1, 71, 127
2, 76640, Note_off_c, 1, 83, 0
2, 76640, Note_off_c, 1, 86, 0
2, 76640, Note_off_c, 1, 95, 0
2, 76840, Note_off_c, 1, 44, 0
2, 76840, Note_off_c, 1, 49, 0
2, 76840, Note_off_c, 1, 59, 0
2, 76840, Note_off_c, 1, 71, 0
2, 76880, Note_on_c, 1, 44, 127
2, 76880, Note_on_c, 1, 49, 127
2, 76880, Note_on_c, 1, 59, 127
2, 76880, Note_on_c, 1, 71, 127
2, 77000, Note_off_c, 1, 44, 0
2, 77000, Note_off_c, 1, 49, 0
2, 77000, Note_off_c, 1, 59, 0
2, 77000, Note_off_c, 1, 71, 0
2, 77040, Note_on_c, 1, 38, 127
2, 77040, Note_on_c, 1, 50, 127
2, 77040, Note_on_c, 1, 73, 127
2, 77040, Note_on_c, 1, 79, 127
2, 77040, Note_on_c, 1, 81, 127
2, 77080, Note_on_c, 1, 33, 127
2, 77080, Note_off_c, 1, 38, 0
2, 77080, Note_off_c, 1, 50, 0
2, 77080, Note_off_c, 1, 73, 0
2, 77080, Note_on_c, 1, 76, 127
2, 77080, Note_off_c, 1, 81, 0
2, 77080, Note_on_c, 1, 82, 127
2, 77400, Note_off_c, 1, 33, 0
2, 77400, Note_off_c, 1, 76, 0
2, 77400, Note_off_c, 1, 79, 0
2, 77400, Note_off_c, 1, 82, 0
2, 77440, Note_on_c, 1, 35, 127
2, 77440, Note_on_c, 1, 42, 127
2, 77440, Note_on_c, 1, 47, 127
2, 77440, Note_on_c, 1, 51, 127
2, 77440, Note_on_c, 1, 57, 127
2, 77440, Note_on_c, 1, 63, 127
2, 77760, Note_off_c, 1, 35, 0
2, 77760, Note_off_c, 1, 42, 0
2, 77760, Note_off_c, 1, 47, 0
2, 77760, Note_off_c, 1, 51, 0
2, 77760, Note_off_c, 1, 57, 0
2, 77760, Note_off_c, 1, 63, 0
2, 78600, Note_on_c, 1, 49, 127
2, 78600, Note_on_c, 1, 53, 127
2, 78600, Note_on_c, 1, 59, 127
2, 78600, Note_on_c, 1, 68, 127
2, 78600, Note_on_c, 1, 73, 127
2, 78640, Note_off_c, 1, 49, 0
2, 78640, Note_off_c, 1, 53, 0
2, 78640, Note_on_c, 1, 54, 127
2, 78640, Note_off_c, 1, 59, 0
2, 78640, Note_on_c, 1, 61, 127
2, 78640, Note_off_c, 1, 68, 0
2, 78640, Note_on_c, 1, 70, 127
2, 78640, Note_off_c, 1, 73, 0
2, 78640, Note_on_c, 1, 76, 127
2, 78640, Note_on_c, 1, 78, 127
2, 79000, Note_off_c, 1, 54, 0
2, 79000, Note_off_c, 1, 61, 0
2, 79000, Note_off_c, 1, 70, 0
2, 79000, Note_off_c, 1, 76, 0
2, 79000, Note_off_c, 1, 78, 0
2, 79040, Note_on_c, 1, 54, 127
2, 79040, Note_on_c, 1, 61, 127
2, 79040, Note_on_c, 1, 70, 127
2, 79040, Note_on_c, 1, 76, 127
2, 79040, Note_on_c, 1, 78, 127
2, 79360, Note_off_c, 1, 54, 0
2, 79360, Note_off_c, 1, 61, 0
2, 79360, Note_on_c, 1, 62, 127
2, 79360, Note_off_c, 1, 70, 0
2, 79360, Note_off_c, 1, 76, 0
2, 79360, Note_off_c, 1, 78, 0
2, 79400, Note_on_c, 1, 35, 127
2, 79400, Note_on_c, 1, 42, 127
2, 79400, Note_on_c, 1, 47, 127
2, 79400, Note_off_c, 1, 62, 0
2, 79400, Note_on_c, 1, 75, 127
2, 79400, Note_on_c, 1, 83, 127
2, 79760, Note_off_c, 1, 35, 0
2, 79760, Note_off_c, 1, 42, 0
2, 79760, Note_off_c, 1, 47, 0
2, 79760, Note_off_c, 1, 75, 0
2, 79760, Note_off_c, 1, 83, 0
2, 79800, Note_on_c, 1, 69, 127
2, 79800, Note_on_c, 1, 81, 127
2, 81160, Note_off_c, 1, 69, 0
2, 81160, Note_off_c, 1, 81, 0
2, 81360, Note_on_c, 1, 31, 127
2, 81360, Note_on_c, 1, 38, 127
2, 81360, Note_on_c, 1, 47, 127
2, 81360, Note_on_c, 1, 71, 127
2, 81360, Note_on_c, 1, 79, 127
2, 81360, Note_on_c, 1, 86, 127
2, 83120, Note_off_c, 1, 31, 0
2, 83120, Note_off_c, 1, 38, 0
2, 83120, Note_off_c, 1, 47, 0
2, 83120, Note_off_c, 1, 71, 0
2, 83120, Note_off_c, 1, 79, 0
2, 83120, Note_off_c, 1, 86, 0
2, 84720, Note_on_c, 1, 46, 127
2, 84720, Note_on_c, 1, 54, 127
2, 84720, Note_on_c, 1, 61, 127
2, 84720, Note_on_c, 1, 64, 127
2, 84720, Note_on_c, 1, 66, 127
2, 86560, Note_off_c, 1, 46, 0
2, 86560, Note_off_c, 1, 54, 0
2, 86560, Note_off_c, 1, 61, 0
2, 86560, Note_off_c, 1, 64, 0
2, 86560, Note_off_c, 1, 66, 0
2, 86600, Note_on_c, 1, 46, 127
2, 86600, Note_on_c, 1, 54, 127
2, 86600, Note_on_c, 1, 61, 127
2, 86600, Note_on_c, 1, 64, 127
2, 86600, Note_on_c, 1, 66, 127
2, 89400, Note_off_c, 1, 46, 0
2, 89400, Note_off_c, 1, 54, 0
2, 89400, Note_off_c, 1, 61, 0
2, 89400, Note_off_c, 1, 64, 0
2, 89400, Note_off_c, 1, 66, 0
2, 89440, Note_on_c, 1, 49, 127
2, 89440, Note_on_c, 1, 57, 127
2, 89440, Note_on_c, 1, 64, 127
2, 89440, Note_on_c, 1, 69, 127
2, 89520, Note_off_c, 1, 49, 0
2, 89520, Note_off_c, 1, 57, 0
2, 89520, Note_off_c, 1, 64, 0
2, 89520, Note_off_c, 1, 69, 0
2, 89560, Note_on_c, 1, 49, 127
2, 89560, Note_on_c, 1, 57, 127
2, 89560, Note_on_c, 1, 64, 127
2, 89560, Note_on_c, 1, 69, 127
2, 90040, Note_off_c, 1, 57, 0
2, 90080, Note_on_c, 1, 57, 127
2, 90280, Note_off_c, 1, 49, 0
2, 90280, Note_off_c, 1, 57, 0
2, 90280, Note_on_c, 1, 60, 127
2, 90280, Note_on_c, 1, 63, 127
2, 90280, Note_off_c, 1, 64, 0
2, 90280, Note_on_c, 1, 66, 127
2, 90280, Note_off_c, 1, 69, 0
2, 90280, Note_on_c, 1, 74, 127
2, 90280, Note_on_c, 1, 78, 127
2, 90320, Note_on_c, 1, 51, 127
2, 90320, Note_on_c, 1, 59, 127
2, 90320, Note_off_c, 1, 60, 0
2, 90320, Note_off_c, 1, 63, 0
2, 90320, Note_on_c, 1, 73, 127
2, 90320, Note_off_c, 1, 74, 0
2, 90320, Note_off_c, 1, 78, 0
2, 90480, Note_off_c, 1, 73, 0
2, 90520, Note_on_c, 1, 71, 127
2, 90640, Note_off_c, 1, 71, 0
2, 91640, Note_off_c, 1, 51, 0
2, 91640, Note_off_c, 1, 59, 0
2, 91640, Note_off_c, 1, 66, 0
2, 91680, Note_on_c, 1, 51, 127
2, 91680, Note_on_c, 1, 59, 127
2, 91680, Note_on_c, 1, 66, 127
2, 92120, Note_on_c, 1, 47, 127
2, 92120, Note_off_c, 1, 51, 0
2, 92120, Note_on_c, 1, 58, 127
2, 92120, Note_off_c, 1, 59, 0
2, 92120, Note_on_c, 1, 64, 127
2, 92120, Note_off_c, 1, 66, 0
2, 92160, Note_on_c, 1, 44, 127
2, 92160, Note_on_c, 1, 56, 127
2, 92160, Note_off_c, 1, 58, 0
2, 92160, Note_on_c, 1, 59, 127
2, 92160, Note_on_c, 1, 63, 127
2, 92160, Note_off_c, 1, 64, 0
2, 92200, Note_off_c, 1, 44, 0
2, 92200, Note_off_c, 1, 56, 0
2, 93680, Note_off_c, 1, 63, 0
2, 93720, Note_on_c, 1, 63, 127
2, 94160, Note_off_c, 1, 47, 0
2, 94160, Note_off_c, 1, 59, 0
2, 94160, Note_off_c, 1, 63, 0
2, 94200, Note_on_c, 1, 47, 127
2, 94200, Note_on_c, 1, 59, 127
2, 94200, Note_on_c, 1, 63, 127
2, 94520, Note_off_c, 1, 59, 0
2, 95120, Note_off_c, 1, 47, 0
2, 95160, Note_on_c, 1, 48, 127
2, 95160, Note_on_c, 1, 56, 127
2, 95160, Note_off_c, 1, 63, 0
2, 95160, Note_on_c, 1, 78, 127
2, 95720, Note_off_c, 1, 56, 0
2, 95760, Note_on_c, 1, 56, 127
2, 96320, Note_off_c, 1, 48, 0
2, 96320, Note_off_c, 1, 56, 0
2, 96320, Note_off_c, 1, 78, 0
2, 96360, Note_on_c, 1, 54, 127
2, 96360, Note_on_c, 1, 63, 127
2, 96360, Note_on_c, 1, 69, 127
2, 96680, Note_off_c, 1, 54, 0
2, 96680, Note_off_c, 1, 63, 0
2, 96680, Note_off_c, 1, 69, 0
2, 96720, Note_on_c, 1, 54, 127
2, 96720, Note_on_c, 1, 63, 127
2, 96720, Note_on_c, 1, 69, 127
2, 97400, Note_on_c, 1, 60, 127
2, 97400, Note_off_c, 1, 63, 0
2, 97440, Note_off_c, 1, 60, 0
2, 97440, Note_on_c, 1, 63, 127
2, 97520, Note_off_c, 1, 63, 0
2, 97560, Note_off_c, 1, 69, 0
2, 97560, Note_on_c, 1, 78, 127
2, 97560, Note_on_c, 1, 90, 127
2, 97560, Note_on_c, 1, 93, 127
2, 97600, Note_on_c, 1, 46, 127
2, 97600, Note_off_c, 1, 54, 0
2, 97600, Note_on_c, 1, 58, 127
2, 97600, Note_off_c, 1, 78, 0
2, 97600, Note_on_c, 1, 86, 127
2, 97600, Note_off_c, 1, 90, 0
2, 97600, Note_on_c, 1, 92, 127
2, 97600, Note_off_c, 1, 93, 0
2, 97640, Note_off_c, 1, 46, 0
2, 97640, Note_on_c, 1, 54, 127
2, 97640, Note_off_c, 1, 58, 0
2, 97640, Note_on_c, 1, 78, 127
2, 97640, Note_off_c, 1, 86, 0
2, 97640, Note_on_c, 1, 90, 127
2, 97640, Note_off_c, 1, 92, 0
2, 97640, Note_on_c, 1, 93, 127
2, 97920, Note_on_c, 1, 61, 127
2, 97920, Note_on_c, 1, 64, 127
2, 97920, Note_on_c, 1, 73, 127
2, 97920, Note_off_c, 1, 90, 0
2, 97920, Note_off_c, 1, 93, 0
2, 97960, Note_off_c, 1, 61, 0
2, 97960, Note_off_c, 1, 64, 0
2, 97960, Note_off_c, 1, 73, 0
2, 97960, Note_on_c, 1, 90, 127
2, 97960, Note_on_c, 1, 93, 127
2, 98280, Note_on_c, 1, 44, 127
2, 98280, Note_on_c, 1, 51, 127
2, 98280, Note_off_c, 1, 54, 0
2, 98280, Note_on_c, 1, 56, 127
2, 98280, Note_on_c, 1, 71, 127
2, 98280, Note_on_c, 1, 75, 127
2, 98280, Note_off_c, 1, 78, 0
2, 98280, Note_off_c, 1, 90, 0
2, 98280, Note_off_c, 1, 93, 0
2, 98320, Note_off_c, 1, 44, 0
2, 98320, Note_off_c, 1, 51, 0
2, 98320, Note_off_c, 1, 56, 0
2, 98320, Note_off_c, 1, 71, 0
2, 98320, Note_off_c, 1, 75, 0
2, 98320, Note_on_c, 1, 78, 127
2, 98360, Note_on_c, 1, 54, 127
2, 98360, Note_on_c, 1, 61, 127
2, 98360, Note_on_c, 1, 64, 127
2, 98360, Note_on_c, 1, 66, 127
2, 98360, Note_on_c, 1, 70, 127
2, 98360, Note_on_c, 1, 76, 127
2, 98360, Note_on_c, 1, 82, 127
2, 98440, Note_off_c, 1, 82, 0
2, 98480, Note_on_c, 1, 82, 127
2, 98520, Note_off_c, 1, 82, 0
2, 98560, Note_on_c, 1, 82, 127
2, 98600, Note_off_c, 1, 82, 0
2, 98640, Note_on_c, 1, 82, 127
2, 98680, Note_off_c, 1, 82, 0
2, 98760, Note_on_c, 1, 82, 127
2, 98800, Note_off_c, 1, 82, 0
2, 98840, Note_on_c, 1, 82, 127
2, 98880, Note_off_c, 1, 82, 0
2, 98960, Note_on_c, 1, 82, 127
2, 99000, Note_off_c, 1, 82, 0
2, 99040, Note_on_c, 1, 82, 127
2, 99080, Note_off_c, 1, 82, 0
2, 99120, Note_off_c, 1, 54, 0
2, 99120, Note_on_c, 1, 56, 127
2, 99120, Note_off_c, 1, 61, 0
2, 99120, Note_off_c, 1, 64, 0
2, 99120, Note_off_c, 1, 66, 0
2, 99120, Note_off_c, 1, 70, 0
2, 99120, Note_on_c, 1, 75, 127
2, 99120, Note_off_c, 1, 76, 0
2, 99120, Note_off_c, 1, 78, 0
2, 99120, Note_on_c, 1, 83, 127
2, 99160, Note_off_c, 1, 56, 0
2, 99160, Note_off_c, 1, 75, 0
2, 99160, Note_off_c, 1, 83, 0
2, 99200, Note_on_c, 1, 54, 127
2, 99200, Note_on_c, 1, 61, 127
2, 99200, Note_on_c, 1, 64, 127
2, 99200, Note_on_c, 1, 66, 127
2, 99200, Note_on_c, 1, 70, 127
2, 99200, Note_on_c, 1, 76, 127
2, 99200, Note_on_c, 1, 78, 127
2, 99200, Note_on_c, 1, 82, 127
2, 99240, Note_off_c, 1, 82, 0
2, 99280, Note_on_c, 1, 82, 127
2, 99320, Note_off_c, 1, 82, 0
2, 99360, Note_on_c, 1, 82, 127
2, 99400, Note_off_c, 1, 82, 0
2, 99440, Note_on_c, 1, 82, 127
2, 99480, Note_off_c, 1, 82, 0
2, 99560, Note_on_c, 1, 82, 127
2, 99600, Note_off_c, 1, 82, 0
2, 99640, Note_on_c, 1, 82, 127
2, 99680, Note_off_c, 1, 82, 0
2, 99720, Note_on_c, 1, 82, 127
2, 99760, Note_off_c, 1, 82, 0
2, 99800, Note_on_c, 1, 82, 127
2, 99840, Note_off_c, 1, 82, 0
2, 99920, Note_on_c, 1, 82, 127
2, 99960, Note_off_c, 1, 82, 0
2, 100000, Note_on_c, 1, 82, 127
2, 100040, Note_off_c, 1, 82, 0
2, 100080, Note_on_c, 1, 82, 127
2, 100120, Note_off_c, 1, 82, 0
2, 100160, Note_on_c, 1, 82, 127
2, 100200, Note_off_c, 1, 82, 0
2, 100240, Note_on_c, 1, 82, 127
2, 100320, Note_off_c, 1, 82, 0
2, 100360, Note_on_c, 1, 82, 127
2, 100400, Note_off_c, 1, 82, 0
2, 100440, Note_on_c, 1, 82, 127
2, 100480, Note_off_c, 1, 82, 0
2, 100520, Note_on_c, 1, 82, 127
2, 100560, Note_off_c, 1, 82, 0
2, 100600, Note_off_c, 1, 66, 0
2, 100600, Note_off_c, 1, 76, 0
2, 100600, Note_off_c, 1, 78, 0
2, 100640, Note_off_c, 1, 54, 0
2, 100640, Note_on_c, 1, 57, 127
2, 100640, Note_on_c, 1, 60, 127
2, 100640, Note_off_c, 1, 61, 0
2, 100640, Note_off_c, 1, 64, 0
2, 100640, Note_on_c, 1, 66, 127
2, 100640, Note_off_c, 1, 70, 0
2, 100640, Note_on_c, 1, 78, 127
2, 100640, Note_on_c, 1, 79, 127
2, 100680, Note_on_c, 1, 54, 127
2, 100680, Note_off_c, 1, 57, 0
2, 100680, Note_off_c, 1, 60, 0
2, 100680, Note_on_c, 1, 61, 127
2, 100680, Note_on_c, 1, 64, 127
2, 100680, Note_on_c, 1, 70, 127
2, 100680, Note_on_c, 1, 76, 127
2, 100680, Note_off_c, 1, 79, 0
2, 100720, Note_on_c, 1, 82, 127
2, 100760, Note_off_c, 1, 82, 0
2, 100800, Note_on_c, 1, 82, 127
2, 100840, Note_off_c, 1, 82, 0
2, 100880, Note_on_c, 1, 82, 127
2, 100920, Note_off_c, 1, 82, 0
2, 100960, Note_on_c, 1, 82, 127
2, 101000, Note_off_c, 1, 82, 0
2, 101080, Note_on_c, 1, 82, 127
2, 101120, Note_off_c, 1, 82, 0
2, 101160, Note_on_c, 1, 82, 127
2, 101200, Note_off_c, 1, 82, 0
2, 101240, Note_on_c, 1, 82, 127
2, 101280, Note_off_c, 1, 82, 0
2, 101320, Note_on_c, 1, 82, 127
2, 101360, Note_off_c, 1, 82, 0
2, 101520, Note_on_c, 1, 82, 127
2, 101560, Note_off_c, 1, 54, 0
2, 101560, Note_off_c, 1, 61, 0
2, 101560, Note_off_c, 1, 64, 0
2, 101560, Note_off_c, 1, 66, 0
2, 101560, Note_off_c, 1, 70, 0
2, 101560, Note_off_c, 1, 76, 0
2, 101560, Note_off_c, 1, 78, 0
2, 101560, Note_off_c, 1, 82, 0
2, 101600, Note_on_c, 1, 54, 127
2, 101600, Note_on_c, 1, 61, 127
2, 101600, Note_on_c, 1, 64, 127
2, 101600, Note_on_c, 1, 66, 127
2, 101600, Note_on_c, 1, 70, 127
2, 101600, Note_on_c, 1, 76, 127
2, 101600, Note_on_c, 1, 78, 127
2, 101640, Note_on_c, 1, 82, 127
2, 101680, Note_off_c, 1, 82, 0
2, 101720, Note_on_c, 1, 82, 127
2, 101760, Note_off_c, 1, 82, 0
2, 101800, Note_on_c, 1, 82, 127
2, 101880, Note_off_c, 1, 82, 0
2, 101920, Note_on_c, 1, 82, 127
2, 101960, Note_off_c, 1, 82, 0
2, 102000, Note_on_c, 1, 82, 127
2, 102040, Note_off_c, 1, 82, 0
2, 102080, Note_on_c, 1, 82, 127
2, 102120, Note_off_c, 1, 82, 0
2, 102160, Note_on_c, 1, 82, 127
2, 102200, Note_off_c, 1, 82, 0
2, 102280, Note_on_c, 1, 82, 127
2, 102320, Note_off_c, 1, 82, 0
2, 102360, Note_on_c, 1, 82, 127
2, 102400, Note_off_c, 1, 82, 0
2, 102440, Note_on_c, 1, 82, 127
2, 102480, Note_off_c, 1, 82, 0
2, 102520, Note_on_c, 1, 82, 127
2, 102560, Note_off_c, 1, 82, 0
2, 102600, Note_on_c, 1, 82, 127
2, 102640, Note_off_c, 1, 82, 0
2, 102720, Note_on_c, 1, 82, 127
2, 102760, Note_off_c, 1, 82, 0
2, 102800, Note_on_c, 1, 82, 127
2, 102840, Note_off_c, 1, 82, 0
2, 102880, Note_on_c, 1, 82, 127
2, 102920, Note_off_c, 1, 82, 0
2, 102960, Note_on_c, 1, 82, 127
2, 103000, Note_off_c, 1, 82, 0
2, 103040, Note_on_c, 1, 82, 127
2, 103080, Note_off_c, 1, 82, 0
2, 103120, Note_off_c, 1, 66, 0
2, 103120, Note_off_c, 1, 76, 0
2, 103120, Note_off_c, 1, 78, 0
2, 103160, Note_on_c, 1, 66, 127
2, 103160, Note_on_c, 1, 76, 127
2, 103160, Note_on_c, 1, 78, 127
2, 103160, Note_on_c, 1, 82, 127
2, 103200, Note_off_c, 1, 82, 0
2, 103240, Note_on_c, 1, 82, 127
2, 103280, Note_off_c, 1, 82, 0
2, 103320, Note_on_c, 1, 82, 127
2, 103360, Note_off_c, 1, 82, 0
2, 103400, Note_on_c, 1, 82, 127
2, 103440, Note_off_c, 1, 82, 0
2, 103520, Note_on_c, 1, 82, 127
2, 103560, Note_off_c, 1, 82, 0
2, 103600, Note_on_c, 1, 82, 127
2, 103640, Note_off_c, 1, 82, 0
2, 103680, Note_on_c, 1, 82, 127
2, 103720, Note_off_c, 1, 82, 0
2, 103760, Note_on_c, 1, 82, 127
2, 103800, Note_off_c, 1, 82, 0
2, 103840, Note_off_c, 1, 54, 0
2, 103840, Note_off_c, 1, 61, 0
2, 103840, Note_off_c, 1, 64, 0
2, 103840, Note_off_c, 1, 66, 0
2, 103840, Note_off_c, 1, 70, 0
2, 103840, Note_off_c, 1, 76, 0
2, 103840, Note_off_c, 1, 78, 0
2, 103880, Note_on_c, 1, 54, 127
2, 103880, Note_on_c, 1, 61, 127
2, 103880, Note_on_c, 1, 64, 127
2, 103880, Note_on_c, 1, 66, 127
2, 103880, Note_on_c, 1, 70, 127
2, 103880, Note_on_c, 1, 76, 127
2, 103880, Note_on_c, 1, 78, 127
2, 103880, Note_on_c, 1, 82, 127
2, 103920, Note_off_c, 1, 82, 0
2, 104000, Note_on_c, 1, 82, 127
2, 104040, Note_off_c, 1, 82, 0
2, 104080, Note_on_c, 1, 82, 127
2, 104120, Note_off_c, 1, 82, 0
2, 104160, Note_on_c, 1, 82, 127
2, 104200, Note_off_c, 1, 82, 0
2, 104240, Note_on_c, 1, 82, 127
2, 104280, Note_off_c, 1, 82, 0
2, 104320, Note_on_c, 1, 82, 127
2, 104360, Note_off_c, 1, 82, 0
2, 104440, Note_on_c, 1, 82, 127
2, 104480, Note_off_c, 1, 82, 0
2, 104520, Note_on_c, 1, 82, 127
2, 104560, Note_off_c, 1, 82, 0
2, 104600, Note_on_c, 1, 82, 127
2, 104640, Note_off_c, 1, 82, 0
2, 104680, Note_on_c, 1, 82, 127
2, 104720, Note_off_c, 1, 82, 0
2, 104760, Note_on_c, 1, 82, 127
2, 104800, Note_off_c, 1, 82, 0
2, 104880, Note_on_c, 1, 82, 127
2, 104920, Note_off_c, 1, 82, 0
2, 104960, Note_on_c, 1, 82, 127
2, 105000, Note_off_c, 1, 82, 0
2, 105040, Note_on_c, 1, 82, 127
2, 105080, Note_off_c, 1, 82, 0
2, 105120, Note_on_c, 1, 82, 127
2, 105160, Note_off_c, 1, 82, 0
2, 105200, Note_on_c, 1, 82, 127
2, 105240, Note_off_c, 1, 82, 0
2, 105280, Note_off_c, 1, 66, 0
2, 105280, Note_off_c, 1, 70, 0
2, 105280, Note_off_c, 1, 76, 0
2, 105280, Note_off_c, 1, 78, 0
2, 105320, Note_off_c, 1, 64, 0
2, 105320, Note_on_c, 1, 70, 127
2, 105320, Note_on_c, 1, 77, 127
2, 105440, Note_off_c, 1, 77, 0
2, 105480, Note_on_c, 1, 77, 127
2, 105600, Note_off_c, 1, 61, 0
2, 105600, Note_off_c, 1, 77, 0
2, 105640, Note_on_c, 1, 63, 127
2, 105640, Note_on_c, 1, 78, 127
2, 105720, Note_off_c, 1, 54, 0
2, 105720, Note_off_c, 1, 63, 0
2, 105920, Note_on_c, 1, 45, 127
2, 105920, Note_on_c, 1, 47, 127
2, 105920, Note_on_c, 1, 57, 127
2, 105920, Note_on_c, 1, 63, 127
2, 105920, Note_on_c, 1, 66, 127
2, 105920, Note_off_c, 1, 70, 0
2, 105920, Note_on_c, 1, 71, 127
2, 105920, Note_on_c, 1, 75, 127
2, 105920, Note_off_c, 1, 78, 0
2, 105960, Note_off_c, 1, 45, 0
2, 105960, Note_off_c, 1, 47, 0
2, 105960, Note_off_c, 1, 57, 0
2, 105960, Note_off_c, 1, 63, 0
2, 105960, Note_off_c, 1, 66, 0
2, 105960, Note_off_c, 1, 71, 0
2, 105960, Note_off_c, 1, 75, 0
2, 106000, Note_on_c, 1, 45, 127
2, 106000, Note_on_c, 1, 47, 127
2, 106000, Note_on_c, 1, 57, 127
2, 106000, Note_on_c, 1, 63, 127
2, 106000, Note_on_c, 1, 66, 127
2, 106000, Note_on_c, 1, 71, 127
2, 106000, Note_on_c, 1, 75, 127
2, 106360, Note_off_c, 1, 45, 0
2, 106360, Note_off_c, 1, 47, 0
2, 106360, Note_off_c, 1, 57, 0
2, 106360, Note_off_c, 1, 63, 0
2, 106360, Note_off_c, 1, 66, 0
2, 106360, Note_off_c, 1, 71, 0
2, 106360, Note_off_c, 1, 75, 0
2, 106400, Note_on_c, 1, 66, 127
2, 106400, Note_on_c, 1, 70, 127
2, 106400, Note_on_c, 1, 78, 127
2, 107480, Note_off_c, 1, 66, 0
2, 107480, Note_off_c, 1, 70, 0
2, 107480, Note_off_c, 1, 78, 0
2, 107520, Note_on_c, 1, 76, 127
2, 107600, Note_off_c, 1, 76, 0
2, 107600, Note_on_c, 1, 78, 127
2, 107640, Note_on_c, 1, 76, 127
2, 107640, Note_off_c, 1, 78, 0
2, 108160, Note_off_c, 1, 76, 0
2, 108200, Note_on_c, 1, 76, 127
2, 108280, Note_off_c, 1, 76, 0
2, 108320, Note_on_c, 1, 77, 127
2, 108560, Note_off_c, 1, 77, 0
2, 108600, Note_on_c, 1, 78, 127
2, 108800, Note_on_c, 1, 63, 127
2, 108840, Note_off_c, 1, 63, 0
2, 109800, Note_off_c, 1, 78, 0
2, 109840, Note_on_c, 1, 78, 127
2, 110160, Note_off_c, 1, 78, 0
2, 110200, Note_on_c, 1, 76, 127
2, 110440, Note_off_c, 1, 76, 0
2, 110520, Note_on_c, 1, 73, 127
2, 111080, Note_off_c, 1, 73, 0
2, 111120, Note_on_c, 1, 76, 127
2, 111160, Note_off_c, 1, 76, 0
2, 111200, Note_on_c, 1, 78, 127
2, 111280, Note_off_c, 1, 78, 0
2, 111320, Note_on_c, 1, 81, 127
2, 111360, Note_off_c, 1, 81, 0
2, 111400, Note_on_c, 1, 78, 127
2, 112120, Note_off_c, 1, 78, 0
2, 112120, Note_on_c, 1, 80, 127
2, 112160, Note_off_c, 1, 80, 0
2, 112200, Note_on_c, 1, 78, 127
2, 112280, Note_off_c, 1, 78, 0
2, 112360, Note_on_c, 1, 76, 127
2, 112440, Note_off_c, 1, 76, 0
2, 112480, Note_on_c, 1, 79, 127
2, 112680, Note_off_c, 1, 79, 0
2, 112720, Note_on_c, 1, 85, 127
2, 113040, Note_off_c, 1, 85, 0
2, 113120, Note_on_c, 1, 83, 127
2, 113600, Note_off_c, 1, 83, 0
2, 113640, Note_on_c, 1, 82, 127
2, 113920, Note_off_c, 1, 82, 0
2, 113960, Note_on_c, 1, 84, 127
2, 115440, Note_off_c, 1, 84, 0
2, 115480, Note_on_c, 1, 84, 127
2, 116240, Note_on_c, 1, 68, 127
2, 116600, Note_off_c, 1, 84, 0
2, 116640, Note_on_c, 1, 84, 127
2, 117320, Note_off_c, 1, 68, 0
2, 117360, Note_on_c, 1, 60, 127
2, 117480, Note_off_c, 1, 60, 0
2, 117480, Note_off_c, 1, 84, 0
2, 117520, Note_on_c, 1, 60, 127
2, 117520, Note_on_c, 1, 84, 127
2, 118040, Note_off_c, 1, 60, 0
2, 118040, Note_off_c, 1, 84, 0
2, 118080, Note_on_c, 1, 60, 127
2, 118080, Note_on_c, 1, 84, 127
2, 119080, Note_off_c, 1, 60, 0
2, 119080, Note_off_c, 1, 84, 0
2, 119120, Note_on_c, 1, 64, 127
2, 119120, Note_on_c, 1, 88, 127
2, 120000, Note_off_c, 1, 64, 0
2, 120000, Note_off_c, 1, 88, 0
2, 120040, End_track
3, 0, Start_track
3, 0, Title_t, "MIDI"
3, 1536, End_track
0, 0, End_of_file
