0, 0, Header, 1, 3, 192
1, 0, Start_track
1, 0, Time_signature, 4, 2, 24, 8
1, 0, Tempo, 500000
1, 120040, End_track
2, 0, Start_track
2, 0, Text_t, "random instrument: random person i dunno whatev"
2, 0, Title_t, "Track 1"
2, 0, Note_on_c, 1, 40, 127
2, 0, Note_on_c, 1, 48, 127
2, 0, Note_on_c, 1, 56, 127
2, 0, Note_on_c, 1, 60, 127
2, 40, Note_off_c, 1, 40, 0
2, 40, Note_on_c, 1, 42, 127
2, 40, Note_off_c, 1, 48, 0
2, 40, Note_on_c, 1, 49, 127
2, 40, Note_on_c, 1, 54, 127
2, 40, Note_off_c, 1, 56, 0
2, 40, Note_off_c, 1, 60, 0
2, 40, Note_on_c, 1, 82, 127
2, 40, Note_on_c, 1, 88, 127
2, 40, Note_on_c, 1, 94, 127
2, 80, Note_off_c, 1, 42, 0
2, 80, Note_off_c, 1, 49, 0
2, 80, Note_on_c, 1, 52, 127
2, 80, Note_off_c, 1, 54, 0
2, 80, Note_on_c, 1, 57, 127
2, 80, Note_on_c, 1, 61, 127
2, 80, Note_on_c, 1, 64, 127
2, 80, Note_on_c, 1, 69, 127
2, 80, Note_on_c, 1, 73, 127
2, 80, Note_on_c, 1, 78, 127
2, 80, Note_off_c, 1, 82, 0
2, 80, Note_off_c, 1, 88, 0
2, 80, Note_off_c, 1, 94, 0
2, 120, Note_off_c, 1, 52, 0
2, 120, Note_off_c, 1, 57, 0
2, 120, Note_off_c, 1, 61, 0
2, 120, Note_off_c, 1, 64, 0
2, 120, Note_off_c, 1, 69, 0
2, 120, Note_off_c, 1, 73, 0
2, 120, Note_off_c, 1, 78, 0
2, 1280, Note_on_c, 1, 38, 127
2, 1280, Note_on_c, 1, 54, 127
2, 1280, Note_on_c, 1, 62, 127
2, 1520, Note_off_c, 1, 38, 0
2, 1520, Note_on_c, 1, 39, 127
2, 1520, Note_on_c, 1, 45, 127
2, 1520, Note_off_c, 1, 54, 0
2, 1520, Note_on_c, 1, 60, 127
2, 1520, Note_off_c, 1, 62, 0
2, 1520, Note_on_c, 1, 66, 127
2, 1520, Note_on_c, 1, 69, 127
2, 1560, Note_on_c, 1, 37, 127
2, 1560, Note_off_c, 1, 39, 0
2, 1560, Note_off_c, 1, 45, 0
2, 1560, Note_off_c, 1, 60, 0
2, 1560, Note_on_c, 1, 64, 127
2, 1560, Note_off_c, 1, 66, 0
2, 1560, Note_on_c, 1, 67, 127
2, 1560, Note_off_c, 1, 69, 0
2, 1560, Note_on_c, 1, 73, 127
2, 1720, Note_off_c, 1, 64, 0
2, 1720, Note_off_c, 1, 67, 0
2, 1720, Note_off_c, 1, 73, 0
2, 1840, Note_off_c, 1, 37, 0
2, 1840, Note_on_c, 1, 42, 127
2, 1840, Note_on_c, 1, 46, 127
2, 1840, Note_on_c, 1, 49, 127
2, 1840, Note_on_c, 1, 52, 127
2, 1840, Note_on_c, 1, 88, 127
2, 1880, Note_on_c, 1, 34, 127
2, 1880, Note_off_c, 1, 42, 0
2, 1880, Note_off_c, 1, 46, 0
2, 1880, Note_off_c, 1, 49, 0
2, 1880, Note_off_c, 1, 52, 0
2, 1880, Note_on_c, 1, 81, 127
2, 1880, Note_on_c, 1, 82, 127
2, 1880, Note_off_c, 1, 88, 0
2, 1920, Note_off_c, 1, 34, 0
2, 1920, Note_on_c, 1, 38, 127
2, 1920, Note_on_c, 1, 45, 127
2, 1920, Note_on_c, 1, 52, 127
2, 1920, Note_on_c, 1, 55, 127
2, 1920, Note_on_c, 1, 59, 127
2, 1920, Note_off_c, 1, 81, 0
2, 1920, Note_off_c, 1, 82, 0
2, 1960, Note_on_c, 1, 32, 127
2, 1960, Note_off_c, 1, 38, 0
2, 1960, Note_off_c, 1, 45, 0
2, 1960, Note_on_c, 1, 48, 127
2, 1960, Note_off_c, 1, 52, 0
2, 1960, Note_off_c, 1, 55, 0
2, 1960, Note_off_c, 1, 59, 0
2, 1960, Note_on_c, 1, 60, 127
2, 1960, Note_on_c, 1, 68, 127
2, 2000, Note_off_c, 1, 32, 0
2, 2000, Note_off_c, 1, 48, 0
2, 2000, Note_off_c, 1, 60, 0
2, 2000, Note_off_c, 1, 68, 0
2, 2240, Note_on_c, 1, 56, 127
2, 2240, Note_on_c, 1, 68, 127
2, 2240, Note_on_c, 1, 73, 127
2, 2240, Note_on_c, 1, 76, 127
2, 2240, Note_on_c, 1, 80, 127
2, 2240, Note_on_c, 1, 85, 127
2, 2280, Note_off_c, 1, 56, 0
2, 2280, Note_on_c, 1, 60, 127
2, 2280, Note_off_c, 1, 73, 0
2, 2280, Note_off_c, 1, 76, 0
2, 2280, Note_off_c, 1, 85, 0
2, 2280, Note_on_c, 1, 87, 127
2, 2320, Note_off_c, 1, 60, 0
2, 2320, Note_on_c, 1, 64, 127
2, 2320, Note_on_c, 1, 67, 127
2, 2320, Note_off_c, 1, 68, 0
2, 2320, Note_on_c, 1, 71, 127
2, 2320, Note_on_c, 1, 79, 127
2, 2320, Note_off_c, 1, 80, 0
2, 2320, Note_on_c, 1, 83, 127
2, 2320, Note_off_c, 1, 87, 0
2, 2320, Note_on_c, 1, 88, 127
2, 2360, Note_on_c, 1, 60, 127
2, 2360, Note_off_c, 1, 64, 0
2, 2360, Note_off_c, 1, 67, 0
2, 2360, Note_on_c, 1, 68, 127
2, 2360, Note_off_c, 1, 71, 0
2, 2360, Note_off_c, 1, 79, 0
2, 2360, Note_on_c, 1, 80, 127
2, 2360, Note_off_c, 1, 83, 0
2, 2360, Note_on_c, 1, 87, 127
2, 2360, Note_off_c, 1, 88, 0
2, 2440, Note_on_c, 1, 52, 127
2, 2440, Note_off_c, 1, 60, 0
2, 2440, Note_on_c, 1, 62, 127
2, 2440, Note_on_c, 1, 64, 127
2, 2440, Note_on_c, 1, 74, 127
2, 2440, Note_off_c, 1, 80, 0
2, 2440, Note_off_c, 1, 87, 0
2, 2480, Note_on_c, 1, 31, 127
2, 2480, Note_on_c, 1, 47, 127
2, 2480, Note_on_c, 1, 50, 127
2, 2480, Note_off_c, 1, 52, 0
2, 2480, Note_off_c, 1, 62, 0
2, 2480, Note_off_c, 1, 64, 0
2, 2480, Note_on_c, 1, 67, 127
2, 2480, Note_off_c, 1, 68, 0
2, 2480, Note_off_c, 1, 74, 0
2, 2520, Note_off_c, 1, 31, 0
2, 2520, Note_on_c, 1, 35, 127
2, 2520, Note_on_c, 1, 42, 127
2, 2520, Note_off_c, 1, 47, 0
2, 2520, Note_off_c, 1, 50, 0
2, 2520, Note_on_c, 1, 54, 127
2, 2520, Note_off_c, 1, 67, 0
2, 2520, Note_on_c, 1, 74, 127
2, 2520, Note_on_c, 1, 77, 127
2, 2520, Note_on_c, 1, 83, 127
2, 2560, Note_off_c, 1, 35, 0
2, 2560, Note_off_c, 1, 42, 0
2, 2560, Note_off_c, 1, 54, 0
2, 2560, Note_on_c, 1, 65, 127
2, 2560, Note_off_c, 1, 74, 0
2, 2560, Note_on_c, 1, 75, 127
2, 2560, Note_off_c, 1, 77, 0
2, 2560, Note_on_c, 1, 78, 127
2, 2560, Note_on_c, 1, 82, 127
2, 2560, Note_off_c, 1, 83, 0
2, 2560, Note_on_c, 1, 87, 127
2, 2600, Note_off_c, 1, 65, 0
2, 2600, Note_off_c, 1, 75, 0
2, 2600, Note_off_c, 1, 78, 0
2, 2600, Note_off_c, 1, 82, 0
2, 2600, Note_off_c, 1, 87, 0
2, 2640, Note_on_c, 1, 38, 127
2, 2640, Note_on_c, 1, 45, 127
2, 2640, Note_on_c, 1, 50, 127
2, 2640, Note_on_c, 1, 54, 127
2, 2640, Note_on_c, 1, 57, 127
2, 2640, Note_on_c, 1, 62, 127
2, 4560, Note_off_c, 1, 38, 0
2, 4560, Note_off_c, 1, 45, 0
2, 4560, Note_off_c, 1, 50, 0
2, 4560, Note_off_c, 1, 54, 0
2, 4560, Note_off_c, 1, 57, 0
2, 4560, Note_off_c, 1, 62, 0
2, 4600, Note_on_c, 1, 38, 127
2, 4600, Note_on_c, 1, 45, 127
2, 4600, Note_on_c, 1, 50, 127
2, 4600, Note_on_c, 1, 54, 127
2, 4600, Note_on_c, 1, 57, 127
2, 4600, Note_on_c, 1, 62, 127
2, 5240, Note_off_c, 1, 38, 0
2, 5240, Note_on_c, 1, 43, 127
2, 5240, Note_off_c, 1, 45, 0
2, 5240, Note_off_c, 1, 54, 0
2, 5240, Note_off_c, 1, 57, 0
2, 5240, Note_on_c, 1, 60, 127
2, 5240, Note_on_c, 1, 69, 127
2, 5280, Note_on_c, 1, 35, 127
2, 5280, Note_off_c, 1, 43, 0
2, 5280, Note_off_c, 1, 50, 0
2, 5280, Note_on_c, 1, 56, 127
2, 5280, Note_on_c, 1, 59, 127
2, 5280, Note_off_c, 1, 60, 0
2, 5280, Note_off_c, 1, 62, 0
2, 5280, Note_off_c, 1, 69, 0
2, 5320, Note_off_c, 1, 35, 0
2, 5320, Note_off_c, 1, 56, 0
2, 5320, Note_off_c, 1, 59, 0
2, 6120, Note_on_c, 1, 47, 127
2, 6120, Note_on_c, 1, 56, 127
2, 6120, Note_on_c, 1, 64, 127
2, 6120, Note_on_c, 1, 70, 127
2, 6160, Note_off_c, 1, 47, 0
2, 6160, Note_on_c, 1, 50, 127
2, 6160, Note_off_c, 1, 56, 0
2, 6160, Note_on_c, 1, 57, 127
2, 6160, Note_on_c, 1, 62, 127
2, 6160, Note_off_c, 1, 64, 0
2, 6160, Note_off_c, 1, 70, 0
2, 6160, Note_on_c, 1, 74, 127
2, 6160, Note_on_c, 1, 77, 127
2, 6160, Note_on_c, 1, 86, 127
2, 6200, Note_on_c, 1, 42, 127
2, 6200, Note_off_c, 1, 50, 0
2, 6200, Note_on_c, 1, 52, 127
2, 6200, Note_off_c, 1, 57, 0
2, 6200, Note_on_c, 1, 59, 127
2, 6200, Note_off_c, 1, 62, 0
2, 6200, Note_on_c, 1, 64, 127
2, 6200, Note_off_c, 1, 74, 0
2, 6200, Note_off_c, 1, 77, 0
2, 6200, Note_off_c, 1, 86, 0
2, 6240, Note_off_c, 1, 42, 0
2, 6240, Note_on_c, 1, 50, 127
2, 6240, Note_off_c, 1, 52, 0
2, 6240, Note_on_c, 1, 57, 127
2, 6240, Note_off_c, 1, 59, 0
2, 6240, Note_on_c, 1, 62, 127
2, 6240, Note_off_c, 1, 64, 0
2, 6240, Note_on_c, 1, 74, 127
2, 6240, Note_on_c, 1, 77, 127
2, 6240, Note_on_c, 1, 86, 127
2, 6720, Note_off_c, 1, 50, 0
2, 6720, Note_off_c, 1, 57, 0
2, 6720, Note_off_c, 1, 62, 0
2, 6720, Note_off_c, 1, 74, 0
2, 6720, Note_off_c, 1, 77, 0
2, 6720, Note_off_c, 1, 86, 0
2, 6760, Note_on_c, 1, 49, 127
2, 6760, Note_on_c, 1, 52, 127
2, 6760, Note_on_c, 1, 57, 127
2, 6760, Note_on_c, 1, 61, 127
2, 6760, Note_on_c, 1, 63, 127
2, 7120, Note_off_c, 1, 63, 0
2, 7160, Note_on_c, 1, 46, 127
2, 7160, Note_off_c, 1, 49, 0
2, 7160, Note_off_c, 1, 52, 0
2, 7160, Note_off_c, 1, 57, 0
2, 7160, Note_on_c, 1, 58, 127
2, 7160, Note_off_c, 1, 61, 0
2, 7160, Note_on_c, 1, 84, 127
2, 7160, Note_on_c, 1, 88, 127
2, 7160, Note_on_c, 1, 96, 127
2, 7320, Note_off_c, 1, 46, 0
2, 7320, Note_off_c, 1, 58, 0
2, 7320, Note_off_c, 1, 84, 0
2, 7320, Note_off_c, 1, 88, 0
2, 7320, Note_off_c, 1, 96, 0
2, 7360, Note_on_c, 1, 69, 127
2, 7360, Note_on_c, 1, 93, 127
2, 7360, Note_on_c, 1, 96, 127
2, 7920, Note_off_c, 1, 69, 0
2, 7920, Note_off_c, 1, 93, 0
2, 7920, Note_off_c, 1, 96, 0
2, 7960, Note_on_c, 1, 69, 127
2, 7960, Note_on_c, 1, 93, 127
2, 7960, Note_on_c, 1, 96, 127
2, 8120, Note_off_c, 1, 69, 0
2, 8120, Note_off_c, 1, 93, 0
2, 8120, Note_off_c, 1, 96, 0
2, 9640, Note_on_c, 1, 53, 127
2, 9640, Note_on_c, 1, 57, 127
2, 9640, Note_on_c, 1, 59, 127
2, 9640, Note_on_c, 1, 62, 127
2, 9920, Note_off_c, 1, 53, 0
2, 9920, Note_off_c, 1, 57, 0
2, 9920, Note_off_c, 1, 59, 0
2, 9920, Note_off_c, 1, 62, 0
2, 9960, Note_on_c, 1, 52, 127
2, 9960, Note_on_c, 1, 56, 127
2, 9960, Note_on_c, 1, 59, 127
2, 9960, Note_on_c, 1, 64, 127
2, 10120, Note_off_c, 1, 52, 0
2, 10120, Note_off_c, 1, 56, 0
2, 10120, Note_off_c, 1, 59, 0
2, 10120, Note_off_c, 1, 64, 0
2, 10160, Note_on_c, 1, 30, 127
2, 10160, Note_on_c, 1, 42, 127
2, 10160, Note_on_c, 1, 80, 127
2, 10160, Note_on_c, 1, 92, 127
2, 10280, Note_off_c, 1, 30, 0
2, 10280, Note_off_c, 1, 42, 0
2, 10280, Note_off_c, 1, 80, 0
2, 10280, Note_off_c, 1, 92, 0
2, 10400, Note_on_c, 1, 29, 127
2, 10400, Note_on_c, 1, 41, 127
2, 10400, Note_on_c, 1, 77, 127
2, 10400, Note_on_c, 1, 81, 127
2, 10400, Note_on_c, 1, 89, 127
2, 10680, Note_off_c, 1, 29, 0
2, 10680, Note_off_c, 1, 41, 0
2, 10680, Note_off_c, 1, 77, 0
2, 10680, Note_off_c, 1, 81, 0
2, 10680, Note_off_c, 1, 89, 0
2, 10800, Note_on_c, 1, 52, 127
2, 10800, Note_on_c, 1, 61, 127
2, 10800, Note_on_c, 1, 64, 127
2, 10800, Note_on_c, 1, 81, 127
2, 10800, Note_on_c, 1, 93, 127
2, 10880, Note_off_c, 1, 52, 0
2, 10880, Note_off_c, 1, 61, 0
2, 10880, Note_off_c, 1, 64, 0
2, 10880, Note_off_c, 1, 81, 0
2, 10880, Note_off_c, 1, 93, 0
2, 11560, Note_on_c, 1, 40, 127
2, 11560, Note_on_c, 1, 52, 127
2, 11560, Note_on_c, 1, 64, 127
2, 13880, Note_on_c, 1, 38, 127
2, 13880, Note_off_c, 1, 40, 0
2, 13880, Note_on_c, 1, 50, 127
2, 13880, Note_off_c, 1, 52, 0
2, 13880, Note_on_c, 1, 55, 127
2, 13880, Note_off_c, 1, 64, 0
2, 13880, Note_on_c, 1, 67, 127
2, 13920, Note_off_c, 1, 38, 0
2, 13920, Note_on_c, 1, 40, 127
2, 13920, Note_off_c, 1, 50, 0
2, 13920, Note_on_c, 1, 52, 127
2, 13920, Note_off_c, 1, 55, 0
2, 13920, Note_on_c, 1, 64, 127
2, 13920, Note_off_c, 1, 67, 0
2, 14040, Note_off_c, 1, 40, 0
2, 14040, Note_off_c, 1, 52, 0
2, 14040, Note_off_c, 1, 64, 0
2, 14080, Note_on_c, 1, 40, 127
2, 14080, Note_on_c, 1, 52, 127
2, 14080, Note_on_c, 1, 64, 127
2, 14760, Note_off_c, 1, 40, 0
2, 14760, Note_on_c, 1, 41, 127
2, 14760, Note_off_c, 1, 52, 0
2, 14760, Note_on_c, 1, 53, 127
2, 14760, Note_off_c, 1, 64, 0
2, 14760, Note_on_c, 1, 65, 127
2, 14800, Note_on_c, 1, 40, 127
2, 14800, Note_off_c, 1, 41, 0
2, 14800, Note_on_c, 1, 52, 127
2, 14800, Note_off_c, 1, 53, 0
2, 14800, Note_on_c, 1, 64, 127
2, 14800, Note_off_c, 1, 65, 0
2, 15120, Note_off_c, 1, 40, 0
2, 15120, Note_off_c, 1, 52, 0
2, 15120, Note_off_c, 1, 64, 0
2, 15200, Note_on_c, 1, 40, 127
2, 15200, Note_on_c, 1, 52, 127
2, 15200, Note_on_c, 1, 64, 127
2, 15240, Note_off_c, 1, 40, 0
2, 15240, Note_off_c, 1, 52, 0
2, 15240, Note_off_c, 1, 64, 0
2, 15360, Note_on_c, 1, 43, 127
2, 15360, Note_on_c, 1, 55, 127
2, 15360, Note_on_c, 1, 67, 127
2, 15400, Note_off_c, 1, 43, 0
2, 15400, Note_on_c, 1, 44, 127
2, 15400, Note_off_c, 1, 55, 0
2, 15400, Note_on_c, 1, 56, 127
2, 15400, Note_off_c, 1, 67, 0
2, 15400, Note_on_c, 1, 68, 127
2, 15440, Note_on_c, 1, 40, 127
2, 15440, Note_off_c, 1, 44, 0
2, 15440, Note_on_c, 1, 52, 127
2, 15440, Note_off_c, 1, 56, 0
2, 15440, Note_on_c, 1, 64, 127
2, 15440, Note_off_c, 1, 68, 0
2, 16000, Note_off_c, 1, 40, 0
2, 16000, Note_off_c, 1, 52, 0
2, 16000, Note_off_c, 1, 64, 0
2, 16040, Note_on_c, 1, 36, 127
2, 16040, Note_on_c, 1, 48, 127
2, 16040, Note_on_c, 1, 57, 127
2, 16040, Note_on_c, 1, 69, 127
2, 16080, Note_off_c, 1, 36, 0
2, 16080, Note_off_c, 1, 48, 0
2, 16080, Note_on_c, 1, 60, 127
2, 16080, Note_on_c, 1, 63, 127
2, 16080, Note_off_c, 1, 69, 0
2, 16080, Note_on_c, 1, 72, 127
2, 16080, Note_on_c, 1, 78, 127
2, 16080, Note_on_c, 1, 83, 127
2, 16120, Note_off_c, 1, 57, 0
2, 16120, Note_off_c, 1, 60, 0
2, 16120, Note_off_c, 1, 63, 0
2, 16120, Note_off_c, 1, 72, 0
2, 16120, Note_off_c, 1, 78, 0
2, 16120, Note_off_c, 1, 83, 0
2, 16160, Note_on_c, 1, 36, 127
2, 16160, Note_on_c, 1, 48, 127
2, 16160, Note_on_c, 1, 57, 127
2, 16160, Note_on_c, 1, 69, 127
2, 16200, Note_off_c, 1, 36, 0
2, 16200, Note_on_c, 1, 47, 127
2, 16200, Note_off_c, 1, 48, 0
2, 16200, Note_on_c, 1, 60, 127
2, 16200, Note_off_c, 1, 69, 0
2, 16240, Note_off_c, 1, 47, 0
2, 16240, Note_on_c, 1, 76, 127
2, 16280, Note_on_c, 1, 48, 127
2, 16280, Note_on_c, 1, 55, 127
2, 16280, Note_off_c, 1, 57, 0
2, 16280, Note_off_c, 1, 60, 0
2, 16280, Note_on_c, 1, 67, 127
2, 16280, Note_on_c, 1, 72, 127
2, 16280, Note_off_c, 1, 76, 0
2, 16280, Note_on_c, 1, 79, 127
2, 16320, Note_off_c, 1, 48, 0
2, 16320, Note_off_c, 1, 55, 0
2, 16320, Note_on_c, 1, 57, 127
2, 16320, Note_on_c, 1, 60, 127
2, 16320, Note_off_c, 1, 67, 0
2, 16320, Note_off_c, 1, 72, 0
2, 16320, Note_on_c, 1, 74, 127
2, 16320, Note_off_c, 1, 79, 0
2, 16360, Note_on_c, 1, 48, 127
2, 16360, Note_on_c, 1, 55, 127
2, 16360, Note_off_c, 1, 57, 0
2, 16360, Note_off_c, 1, 60, 0
2, 16360, Note_on_c, 1, 67, 127
2, 16360, Note_on_c, 1, 72, 127
2, 16360, Note_off_c, 1, 74, 0
2, 16360, Note_on_c, 1, 79, 127
2, 16400, Note_on_c, 1, 38, 127
2, 16400, Note_off_c, 1, 48, 0
2, 16400, Note_off_c, 1, 55, 0
2, 16400, Note_on_c, 1, 57, 127
2, 16400, Note_on_c, 1, 60, 127
2, 16400, Note_on_c, 1, 62, 127
2, 16400, Note_on_c, 1, 66, 127
2, 16400, Note_off_c, 1, 67, 0
2, 16400, Note_off_c, 1, 72, 0
2, 16400, Note_off_c, 1, 79, 0
2, 16440, Note_off_c, 1, 38, 0
2, 16440, Note_on_c, 1, 48, 127
2, 16440, Note_on_c, 1, 55, 127
2, 16440, Note_off_c, 1, 57, 0
2, 16440, Note_off_c, 1, 60, 0
2, 16440, Note_off_c, 1, 62, 0
2, 16440, Note_off_c, 1, 66, 0
2, 16440, Note_on_c, 1, 67, 127
2, 16440, Note_on_c, 1, 72, 127
2, 16440, Note_on_c, 1, 79, 127
2, 16480, Note_off_c, 1, 48, 0
2, 16480, Note_off_c, 1, 55, 0
2, 16480, Note_on_c, 1, 60, 127
2, 16480, Note_on_c, 1, 63, 127
2, 16480, Note_off_c, 1, 67, 0
2, 16480, Note_on_c, 1, 69, 127
2, 16480, Note_off_c, 1, 72, 0
2, 16480, Note_off_c, 1, 79, 0
2, 16480, Note_on_c, 1, 99, 127
2, 16520, Note_on_c, 1, 48, 127
2, 16520, Note_on_c, 1, 55, 127
2, 16520, Note_off_c, 1, 60, 0
2, 16520, Note_off_c, 1, 63, 0
2, 16520, Note_on_c, 1, 67, 127
2, 16520, Note_off_c, 1, 69, 0
2, 16520, Note_on_c, 1, 72, 127
2, 16520, Note_on_c, 1, 79, 127
2, 16520, Note_off_c, 1, 99, 0
2, 16840, Note_off_c, 1, 48, 0
2, 16840, Note_off_c, 1, 55, 0
2, 16840, Note_off_c, 1, 67, 0
2, 16840, Note_off_c, 1, 72, 0
2, 16840, Note_off_c, 1, 79, 0
2, 16880, Note_on_c, 1, 55, 127
2, 16880, Note_on_c, 1, 59, 127
2, 16880, Note_on_c, 1, 62, 127
2, 16880, Note_on_c, 1, 67, 127
2, 18360, Note_off_c, 1, 55, 0
2, 18360, Note_off_c, 1, 59, 0
2, 18360, Note_off_c, 1, 62, 0
2, 18360, Note_off_c, 1, 67, 0
2, 18400, Note_on_c, 1, 55, 127
2, 18400, Note_on_c, 1, 59, 127
2, 18400, Note_on_c, 1, 62, 127
2, 18400, Note_on_c, 1, 67, 127
2, 18600, Note_off_c, 1, 55, 0
2, 18600, Note_off_c, 1, 59, 0
2, 18600, Note_off_c, 1, 62, 0
2, 18600, Note_off_c, 1, 67, 0
2, 19840, Note_on_c, 1, 36, 127
2, 19840, Note_on_c, 1, 48, 127
2, 20440, Note_off_c, 1, 36, 0
2, 20440, Note_off_c, 1, 48, 0
2, 20440, Note_on_c, 1, 55, 127
2, 20440, Note_on_c, 1, 60, 127
2, 20440, Note_on_c, 1, 63, 127
2, 21120, Note_off_c, 1, 55, 0
2, 21120, Note_off_c, 1, 60, 0
2, 21120, Note_off_c, 1, 63, 0
2, 21160, Note_on_c, 1, 55, 127
2, 21160, Note_on_c, 1, 60, 127
2, 21160, Note_on_c, 1, 63, 127
2, 21240, Note_off_c, 1, 63, 0
2, 21520, Note_off_c, 1, 60, 0
2, 21560, Note_on_c, 1, 60, 127
2, 21600, Note_on_c, 1, 36, 127
2, 21840, Note_off_c, 1, 36, 0
2, 23640, Note_off_c, 1, 55, 0
2, 23640, Note_off_c, 1, 60, 0
2, 23680, Note_on_c, 1, 55, 127
2, 23680, Note_on_c, 1, 60, 127
2, 25200, Note_off_c, 1, 60, 0
2, 25240, Note_on_c, 1, 64, 127
2, 25240, Note_on_c, 1, 67, 127
2, 25600, Note_off_c, 1, 64, 0
2, 25600, Note_off_c, 1, 67, 0
2, 25640, Note_on_c, 1, 64, 127
2, 25640, Note_on_c, 1, 67, 127
2, 26120, Note_off_c, 1, 64, 0
2, 26120, Note_off_c, 1, 67, 0
2, 26160, Note_off_c, 1, 55, 0
2, 26200, Note_on_c, 1, 55, 127
2, 26200, Note_on_c, 1, 64, 127
2, 26200, Note_on_c, 1, 67, 127
2, 26480, Note_on_c, 1, 62, 127
2, 26480, Note_off_c, 1, 64, 0
2, 26480, Note_on_c, 1, 65, 127
2, 26480, Note_off_c, 1, 67, 0
2, 26480, Note_on_c, 1, 74, 127
2, 26480, Note_on_c, 1, 77, 127
2, 26520, Note_off_c, 1, 62, 0
2, 26520, Note_off_c, 1, 65, 0
2, 26520, Note_off_c, 1, 74, 0
2, 26520, Note_off_c, 1, 77, 0
2, 26560, Note_off_c, 1, 55, 0
2, 26560, Note_on_c, 1, 62, 127
2, 26560, Note_on_c, 1, 65, 127
2, 26560, Note_on_c, 1, 71, 127
2, 27320, Note_off_c, 1, 62, 0
2, 27320, Note_off_c, 1, 65, 0
2, 27320, Note_off_c, 1, 71, 0
2, 27360, Note_on_c, 1, 43, 127
2, 27360, Note_on_c, 1, 72, 127
2, 28480, Note_on_c, 1, 50, 127
2, 28480, Note_on_c, 1, 67, 127
2, 28480, Note_off_c, 1, 72, 0
2, 28480, Note_on_c, 1, 76, 127
2, 28520, Note_off_c, 1, 43, 0
2, 28520, Note_on_c, 1, 44, 127
2, 28520, Note_off_c, 1, 50, 0
2, 28520, Note_on_c, 1, 52, 127
2, 28520, Note_off_c, 1, 67, 0
2, 28520, Note_on_c, 1, 71, 127
2, 28520, Note_on_c, 1, 74, 127
2, 28520, Note_off_c, 1, 76, 0
2, 28560, Note_off_c, 1, 44, 0
2, 28560, Note_off_c, 1, 52, 0
2, 28560, Note_off_c, 1, 71, 0
2, 28560, Note_off_c, 1, 74, 0
2, 28600, Note_on_c, 1, 44, 127
2, 28600, Note_on_c, 1, 52, 127
2, 28600, Note_on_c, 1, 71, 127
2, 28600, Note_on_c, 1, 74, 127
2, 28880, Note_off_c, 1, 52, 0
2, 28880, Note_off_c, 1, 71, 0
2, 28920, Note_off_c, 1, 44, 0
2, 28920, Note_on_c, 1, 50, 127
2, 28920, Note_on_c, 1, 55, 127
2, 28920, Note_on_c, 1, 58, 127
2, 28920, Note_on_c, 1, 67, 127
2, 28920, Note_on_c, 1, 70, 127
2, 28920, Note_off_c, 1, 74, 0
2, 28920, Note_on_c, 1, 79, 127
2, 28960, Note_on_c, 1, 39, 127
2, 28960, Note_on_c, 1, 48, 127
2, 28960, Note_off_c, 1, 50, 0
2, 28960, Note_off_c, 1, 55, 0
2, 28960, Note_off_c, 1, 58, 0
2, 28960, Note_off_c, 1, 67, 0
2, 28960, Note_off_c, 1, 70, 0
2, 28960, Note_on_c, 1, 75, 127
2, 28960, Note_off_c, 1, 79, 0
2, 28960, Note_on_c, 1, 84, 127
2, 29000, Note_off_c, 1, 39, 0
2, 29000, Note_off_c, 1, 48, 0
2, 29000, Note_on_c, 1, 50, 127
2, 29000, Note_on_c, 1, 53, 127
2, 29000, Note_on_c, 1, 56, 127
2, 29000, Note_on_c, 1, 62, 127
2, 29000, Note_on_c, 1, 74, 127
2, 29000, Note_off_c, 1, 75, 0
2, 29000, Note_on_c, 1, 77, 127
2, 29000, Note_on_c, 1, 80, 127
2, 29000, Note_off_c, 1, 84, 0
2, 29000, Note_on_c, 1, 86, 127
2, 29040, Note_on_c, 1, 39, 127
2, 29040, Note_on_c, 1, 48, 127
2, 29040, Note_off_c, 1, 50, 0
2, 29040, Note_off_c, 1, 53, 0
2, 29040, Note_off_c, 1, 56, 0
2, 29040, Note_off_c, 1, 62, 0
2, 29040, Note_off_c, 1, 74, 0
2, 29040, Note_on_c, 1, 75, 127
2, 29040, Note_off_c, 1, 77, 0
2, 29040, Note_off_c, 1, 80, 0
2, 29040, Note_on_c, 1, 84, 127
2, 29040, Note_off_c, 1, 86, 0
2, 29280, Note_off_c, 1, 48, 0
2, 29280, Note_off_c, 1, 75, 0
2, 29280, Note_off_c, 1, 84, 0
2, 30000, Note_on_c, 1, 58, 127
2, 30040, Note_off_c, 1, 58, 0
2, 30040, Note_on_c, 1, 63, 127
2, 30080, Note_off_c, 1, 63, 0
2, 30120, Note_on_c, 1, 58, 127
2, 30440, Note_off_c, 1, 58, 0
2, 30480, Note_on_c, 1, 58, 127
2, 30720, Note_off_c, 1, 58, 0
2, 30760, Note_off_c, 1, 39, 0
2, 30800, Note_on_c, 1, 39, 127
2, 30920, Note_on_c, 1, 58, 127
2, 30920, Note_on_c, 1, 65, 127
2, 31280, Note_off_c, 1, 58, 0
2, 31280, Note_off_c, 1, 65, 0
2, 31280, Note_on_c, 1, 67, 127
2, 31320, Note_on_c, 1, 63, 127
2, 31840, Note_off_c, 1, 39, 0
2, 31880, Note_on_c, 1, 39, 127
2, 31880, Note_off_c, 1, 63, 0
2, 31880, Note_off_c, 1, 67, 0
2, 32520, Note_on_c, 1, 41, 127
2, 32560, Note_off_c, 1, 41, 0
2, 32880, Note_off_c, 1, 39, 0
2, 32920, Note_on_c, 1, 39, 127
2, 33760, Note_on_c, 1, 48, 127
2, 33760, Note_on_c, 1, 51, 127
2, 34040, Note_off_c, 1, 48, 0
2, 34160, Note_off_c, 1, 39, 0
2, 34160, Note_off_c, 1, 51, 0
2, 34160, Note_on_c, 1, 58, 127
2, 34160, Note_on_c, 1, 63, 127
2, 34160, Note_on_c, 1, 67, 127
2, 34160, Note_on_c, 1, 93, 127
2, 34520, Note_off_c, 1, 63, 0
2, 34520, Note_on_c, 1, 70, 127
2, 34520, Note_off_c, 1, 93, 0
2, 34560, Note_on_c, 1, 44, 127
2, 34560, Note_on_c, 1, 48, 127
2, 34560, Note_off_c, 1, 58, 0
2, 34560, Note_off_c, 1, 67, 0
2, 34560, Note_off_c, 1, 70, 0
2, 34560, Note_on_c, 1, 72, 127
2, 34560, Note_on_c, 1, 74, 127
2, 34560, Note_on_c, 1, 84, 127
2, 34600, Note_on_c, 1, 32, 127
2, 34600, Note_on_c, 1, 37, 127
2, 34600, Note_off_c, 1, 48, 0
2, 34600, Note_on_c, 1, 61, 127
2, 34600, Note_off_c, 1, 72, 0
2, 34600, Note_off_c, 1, 74, 0
2, 34600, Note_off_c, 1, 84, 0
2, 34640, Note_off_c, 1, 32, 0
2, 34640, Note_off_c, 1, 37, 0
2, 34640, Note_on_c, 1, 48, 127
2, 34640, Note_off_c, 1, 61, 0
2, 34640, Note_on_c, 1, 72, 127
2, 34640, Note_on_c, 1, 74, 127
2, 34640, Note_on_c, 1, 84, 127
2, 34720, Note_off_c, 1, 44, 0
2, 34720, Note_off_c, 1, 48, 0
2, 34960, Note_on_c, 1, 55, 127
2, 34960, Note_on_c, 1, 60, 127
2, 34960, Note_on_c, 1, 63, 127
2, 34960, Note_off_c, 1, 72, 0
2, 34960, Note_off_c, 1, 74, 0
2, 34960, Note_off_c, 1, 84, 0
2, 34960, Note_on_c, 1, 87, 127
2, 34960, Note_on_c, 1, 89, 127
2, 35000, Note_off_c, 1, 55, 0
2, 35000, Note_off_c, 1, 60, 0
2, 35000, Note_off_c, 1, 63, 0
2, 35000, Note_on_c, 1, 72, 127
2, 35000, Note_on_c, 1, 77, 127
2, 35000, Note_on_c, 1, 79, 127
2, 35000, Note_on_c, 1, 86, 127
2, 35000, Note_off_c, 1, 87, 0
2, 35000, Note_off_c, 1, 89, 0
2, 35000, Note_on_c, 1, 91, 127
2, 35040, Note_on_c, 1, 31, 127
2, 35040, Note_on_c, 1, 43, 127
2, 35040, Note_on_c, 1, 59, 127
2, 35040, Note_on_c, 1, 67, 127
2, 35040, Note_off_c, 1, 72, 0
2, 35040, Note_on_c, 1, 74, 127
2, 35040, Note_off_c, 1, 77, 0
2, 35040, Note_off_c, 1, 79, 0
2, 35040, Note_off_c, 1, 86, 0
2, 35040, Note_off_c, 1, 91, 0
2, 35080, Note_off_c, 1, 31, 0
2, 35080, Note_off_c, 1, 43, 0
2, 35080, Note_off_c, 1, 59, 0
2, 35080, Note_off_c, 1, 67, 0
2, 35080, Note_off_c, 1, 74, 0
2, 35120, Note_on_c, 1, 74, 127
2, 35120, Note_on_c, 1, 77, 127
2, 35120, Note_on_c, 1, 94, 127
2, 35160, Note_on_c, 1, 45, 127
2, 35160, Note_on_c, 1, 51, 127
2, 35160, Note_on_c, 1, 53, 127
2, 35160, Note_on_c, 1, 57, 127
2, 35160, Note_on_c, 1, 60, 127
2, 35160, Note_on_c, 1, 65, 127
2, 35160, Note_off_c, 1, 74, 0
2, 35160, Note_off_c, 1, 77, 0
2, 35160, Note_off_c, 1, 94, 0
2, 35200, Note_off_c, 1, 45, 0
2, 35200, Note_off_c, 1, 51, 0
2, 35200, Note_off_c, 1, 53, 0
2, 35200, Note_off_c, 1, 57, 0
2, 35200, Note_on_c, 1, 58, 127
2, 35200, Note_on_c, 1, 64, 127
2, 35200, Note_off_c, 1, 65, 0
2, 35200, Note_on_c, 1, 67, 127
2, 35200, Note_on_c, 1, 84, 127
2, 35240, Note_on_c, 1, 41, 127
2, 35240, Note_on_c, 1, 48, 127
2, 35240, Note_off_c, 1, 58, 0
2, 35240, Note_on_c, 1, 59, 127
2, 35240, Note_off_c, 1, 60, 0
2, 35240, Note_off_c, 1, 64, 0
2, 35240, Note_off_c, 1, 67, 0
2, 35240, Note_on_c, 1, 71, 127
2, 35240, Note_off_c, 1, 84, 0
2, 35360, Note_off_c, 1, 41, 0
2, 35360, Note_off_c, 1, 48, 0
2, 35360, Note_off_c, 1, 59, 0
2, 35360, Note_off_c, 1, 71, 0
2, 35360, Note_on_c, 1, 85, 127
2, 35360, Note_on_c, 1, 91, 127
2, 35400, Note_on_c, 1, 44, 127
2, 35400, Note_on_c, 1, 72, 127
2, 35400, Note_on_c, 1, 75, 127
2, 35400, Note_on_c, 1, 80, 127
2, 35400, Note_off_c, 1, 85, 0
2, 35400, Note_off_c, 1, 91, 0
2, 35760, Note_off_c, 1, 72, 0
2, 35760, Note_off_c, 1, 75, 0
2, 35760, Note_off_c, 1, 80, 0
2, 35800, Note_on_c, 1, 47, 127
2, 35800, Note_on_c, 1, 56, 127
2, 35800, Note_on_c, 1, 68, 127
2, 36160, Note_off_c, 1, 68, 0
2, 36200, Note_on_c, 1, 69, 127
2, 36280, Note_off_c, 1, 69, 0
2, 36280, Note_on_c, 1, 70, 127
2, 36320, Note_on_c, 1, 69, 127
2, 36320, Note_off_c, 1, 70, 0
2, 36440, Note_off_c, 1, 69, 0
2, 37000, Note_on_c, 1, 43, 127
2, 37000, Note_off_c, 1, 44, 0
2, 37000, Note_off_c, 1, 47, 0
2, 37000, Note_off_c, 1, 56, 0
2, 37000, Note_on_c, 1, 71, 127
2, 37000, Note_on_c, 1, 77, 127
2, 37000, Note_on_c, 1, 83, 127
2, 37360, Note_off_c, 1, 43, 0
2, 37400, Note_off_c, 1, 71, 0
2, 37400, Note_off_c, 1, 77, 0
2, 37400, Note_off_c, 1, 83, 0
2, 37440, Note_on_c, 1, 71, 127
2, 37440, Note_on_c, 1, 77, 127
2, 37440, Note_on_c, 1, 83, 127
2, 37760, Note_on_c, 1, 52, 127
2, 37760, Note_on_c, 1, 57, 127
2, 37760, Note_on_c, 1, 60, 127
2, 37760, Note_on_c, 1, 64, 127
2, 37760, Note_off_c, 1, 71, 0
2, 37760, Note_on_c, 1, 76, 127
2, 37760, Note_off_c, 1, 77, 0
2, 37760, Note_off_c, 1, 83, 0
2, 37800, Note_on_c, 1, 31, 127
2, 37800, Note_on_c, 1, 43, 127
2, 37800, Note_off_c, 1, 52, 0
2, 37800, Note_off_c, 1, 57, 0
2, 37800, Note_off_c, 1, 60, 0
2, 37800, Note_off_c, 1, 64, 0
2, 37800, Note_on_c, 1, 68, 127
2, 37800, Note_on_c, 1, 71, 127
2, 37800, Note_off_c, 1, 76, 0
2, 37800, Note_on_c, 1, 80, 127
2, 37840, Note_off_c, 1, 31, 0
2, 37840, Note_on_c, 1, 36, 127
2, 37840, Note_on_c, 1, 46, 127
2, 37840, Note_on_c, 1, 58, 127
2, 37840, Note_on_c, 1, 67, 127
2, 37840, Note_off_c, 1, 68, 0
2, 37840, Note_on_c, 1, 70, 127
2, 37840, Note_off_c, 1, 71, 0
2, 37840, Note_off_c, 1, 80, 0
2, 38200, Note_off_c, 1, 43, 0
2, 38200, Note_off_c, 1, 46, 0
2, 38200, Note_off_c, 1, 58, 0
2, 38200, Note_off_c, 1, 67, 0
2, 38200, Note_off_c, 1, 70, 0
2, 38240, Note_off_c, 1, 36, 0
2, 38240, Note_on_c, 1, 41, 127
2, 38240, Note_on_c, 1, 63, 127
2, 38240, Note_on_c, 1, 65, 127
2, 38240, Note_on_c, 1, 69, 127
2, 38240, Note_on_c, 1, 74, 127
2, 38240, Note_on_c, 1, 77, 127
2, 39400, Note_off_c, 1, 41, 0
2, 39400, Note_off_c, 1, 63, 0
2, 39400, Note_off_c, 1, 65, 0
2, 39400, Note_off_c, 1, 69, 0
2, 39400, Note_off_c, 1, 74, 0
2, 39400, Note_off_c, 1, 77, 0
2, 39440, Note_on_c, 1, 36, 127
2, 39440, Note_on_c, 1, 48, 127
2, 39440, Note_on_c, 1, 70, 127
2, 39440, Note_on_c, 1, 77, 127
2, 39440, Note_on_c, 1, 81, 127
2, 39520, Note_off_c, 1, 36, 0
2, 39520, Note_on_c, 1, 47, 127
2, 39520, Note_off_c, 1, 48, 0
2, 39520, Note_on_c, 1, 56, 127
2, 39520, Note_on_c, 1, 65, 127
2, 39520, Note_on_c, 1, 68, 127
2, 39520, Note_off_c, 1, 70, 0
2, 39520, Note_off_c, 1, 81, 0
2, 39560, Note_on_c, 1, 36, 127
2, 39560, Note_off_c, 1, 47, 0
2, 39560, Note_on_c, 1, 48, 127
2, 39560, Note_off_c, 1, 56, 0
2, 39560, Note_off_c, 1, 65, 0
2, 39560, Note_off_c, 1, 68, 0
2, 39560, Note_on_c, 1, 70, 127
2, 39560, Note_on_c, 1, 81, 127
2, 39640, Note_off_c, 1, 36, 0
2, 39640, Note_off_c, 1, 48, 0
2, 39640, Note_off_c, 1, 70, 0
2, 39640, Note_off_c, 1, 77, 0
2, 39640, Note_off_c, 1, 81, 0
2, 39680, Note_on_c, 1, 36, 127
2, 39680, Note_on_c, 1, 48, 127
2, 39680, Note_on_c, 1, 70, 127
2, 39680, Note_on_c, 1, 77, 127
2, 39680, Note_on_c, 1, 81, 127
2, 40200, Note_off_c, 1, 36, 0
2, 40200, Note_off_c, 1, 48, 0
2, 40200, Note_off_c, 1, 70, 0
2, 40200, Note_off_c, 1, 77, 0
2, 40200, Note_off_c, 1, 81, 0
2, 40240, Note_on_c, 1, 67, 127
2, 40240, Note_on_c, 1, 74, 127
2, 40240, Note_on_c, 1, 76, 127
2, 40240, Note_on_c, 1, 79, 127
2, 40600, Note_off_c, 1, 67, 0
2, 40600, Note_off_c, 1, 74, 0
2, 40600, Note_off_c, 1, 76, 0
2, 40600, Note_off_c, 1, 79, 0
2, 40640, Note_on_c, 1, 62, 127
2, 40640, Note_on_c, 1, 65, 127
2, 40640, Note_on_c, 1, 70, 127
2, 40640, Note_on_c, 1, 82, 127
2, 40640, Note_on_c, 1, 89, 127
2, 40680, Note_off_c, 1, 62, 0
2, 40680, Note_on_c, 1, 63, 127
2, 40680, Note_on_c, 1, 69, 127
2, 40680, Note_off_c, 1, 70, 0
2, 40680, Note_on_c, 1, 81, 127
2, 40680, Note_off_c, 1, 82, 0
2, 40680, Note_off_c, 1, 89, 0
2, 40720, Note_off_c, 1, 63, 0
2, 40720, Note_off_c, 1, 65, 0
2, 40720, Note_on_c, 1, 67, 127
2, 40720, Note_off_c, 1, 69, 0
2, 40720, Note_on_c, 1, 70, 127
2, 40720, Note_on_c, 1, 75, 127
2, 40720, Note_off_c, 1, 81, 0
2, 40720, Note_on_c, 1, 87, 127
2, 40720, Note_on_c, 1, 94, 127
2, 40720, Note_on_c, 1, 99, 127
2, 40760, Note_on_c, 1, 63, 127
2, 40760, Note_on_c, 1, 65, 127
2, 40760, Note_off_c, 1, 67, 0
2, 40760, Note_on_c, 1, 69, 127
2, 40760, Note_off_c, 1, 70, 0
2, 40760, Note_off_c, 1, 75, 0
2, 40760, Note_on_c, 1, 81, 127
2, 40760, Note_off_c, 1, 87, 0
2, 40760, Note_off_c, 1, 94, 0
2, 40760, Note_off_c, 1, 99, 0
2, 41040, Note_off_c, 1, 63, 0
2, 41040, Note_off_c, 1, 65, 0
2, 41040, Note_off_c, 1, 69, 0
2, 41040, Note_off_c, 1, 81, 0
2, 41040, Note_on_c, 1, 82, 127
2, 41040, Note_on_c, 1, 85, 127
2, 41080, Note_on_c, 1, 56, 127
2, 41080, Note_on_c, 1, 58, 127
2, 41080, Note_on_c, 1, 65, 127
2, 41080, Note_on_c, 1, 79, 127
2, 41080, Note_off_c, 1, 82, 0
2, 41080, Note_off_c, 1, 85, 0
2, 41840, Note_off_c, 1, 56, 0
2, 41840, Note_off_c, 1, 58, 0
2, 41840, Note_off_c, 1, 65, 0
2, 41840, Note_off_c, 1, 79, 0
2, 41920, Note_on_c, 1, 48, 127
2, 41920, Note_on_c, 1, 55, 127
2, 41920, Note_on_c, 1, 63, 127
2, 41920, Note_on_c, 1, 72, 127
2, 43480, Note_off_c, 1, 48, 0
2, 43480, Note_off_c, 1, 55, 0
2, 43480, Note_off_c, 1, 63, 0
2, 43480, Note_off_c, 1, 72, 0
2, 43520, Note_on_c, 1, 71, 127
2, 43520, Note_on_c, 1, 73, 127
2, 43520, Note_on_c, 1, 76, 127
2, 43520, Note_on_c, 1, 88, 127
2, 43560, Note_on_c, 1, 26, 127
2, 43560, Note_on_c, 1, 38, 127
2, 43560, Note_on_c, 1, 44, 127
2, 43560, Note_on_c, 1, 56, 127
2, 43560, Note_on_c, 1, 68, 127
2, 43560, Note_off_c, 1, 73, 0
2, 43560, Note_off_c, 1, 76, 0
2, 43560, Note_on_c, 1, 77, 127
2, 43560, Note_on_c, 1, 80, 127
2, 43560, Note_off_c, 1, 88, 0
2, 43880, Note_off_c, 1, 26, 0
2, 43880, Note_off_c, 1, 38, 0
2, 43880, Note_off_c, 1, 44, 0
2, 43880, Note_off_c, 1, 56, 0
2, 43880, Note_off_c, 1, 68, 0
2, 43880, Note_off_c, 1, 71, 0
2, 43880, Note_off_c, 1, 77, 0
2, 43880, Note_off_c, 1, 80, 0
2, 43920, Note_on_c, 1, 26, 127
2, 43920, Note_on_c, 1, 38, 127
2, 43920, Note_on_c, 1, 44, 127
2, 43920, Note_on_c, 1, 56, 127
2, 43920, Note_on_c, 1, 68, 127
2, 43920, Note_on_c, 1, 71, 127
2, 43920, Note_on_c, 1, 77, 127
2, 43920, Note_on_c, 1, 80, 127
2, 44280, Note_off_c, 1, 26, 0
2, 44280, Note_off_c, 1, 38, 0
2, 44280, Note_off_c, 1, 44, 0
2, 44280, Note_off_c, 1, 56, 0
2, 44280, Note_off_c, 1, 68, 0
2, 44280, Note_off_c, 1, 71, 0
2, 44280, Note_on_c, 1, 74, 127
2, 44280, Note_off_c, 1, 80, 0
2, 44320, Note_on_c, 1, 45, 127
2, 44320, Note_on_c, 1, 62, 127
2, 44320, Note_on_c, 1, 66, 127
2, 44320, Note_off_c, 1, 77, 0
2, 44320, Note_on_c, 1, 78, 127
2, 44720, Note_off_c, 1, 45, 0
2, 44720, Note_off_c, 1, 62, 0
2, 44720, Note_off_c, 1, 66, 0
2, 44720, Note_off_c, 1, 74, 0
2, 44720, Note_off_c, 1, 78, 0
2, 44760, Note_on_c, 1, 71, 127
2, 44760, Note_on_c, 1, 75, 127
2, 44760, Note_on_c, 1, 78, 127
2, 44760, Note_on_c, 1, 83, 127
2, 44760, Note_on_c, 1, 87, 127
2, 45520, Note_off_c, 1, 71, 0
2, 45520, Note_off_c, 1, 75, 0
2, 45520, Note_off_c, 1, 78, 0
2, 45520, Note_off_c, 1, 83, 0
2, 45520, Note_off_c, 1, 87, 0
2, 45560, Note_on_c, 1, 57, 127
2, 45560, Note_on_c, 1, 61, 127
2, 45560, Note_on_c, 1, 64, 127
2, 45560, Note_on_c, 1, 69, 127
2, 45560, Note_on_c, 1, 102, 127
2, 45560, Note_on_c, 1, 103, 127
2, 45600, Note_on_c, 1, 47, 127
2, 45600, Note_off_c, 1, 57, 0
2, 45600, Note_on_c, 1, 59, 127
2, 45600, Note_off_c, 1, 61, 0
2, 45600, Note_off_c, 1, 64, 0
2, 45600, Note_on_c, 1, 67, 127
2, 45600, Note_off_c, 1, 69, 0
2, 45600, Note_on_c, 1, 71, 127
2, 45600, Note_on_c, 1, 76, 127
2, 45600, Note_off_c, 1, 102, 0
2, 45600, Note_off_c, 1, 103, 0
2, 45960, Note_off_c, 1, 47, 0
2, 45960, Note_off_c, 1, 59, 0
2, 45960, Note_off_c, 1, 67, 0
2, 45960, Note_off_c, 1, 71, 0
2, 45960, Note_off_c, 1, 76, 0
2, 46000, Note_on_c, 1, 47, 127
2, 46000, Note_on_c, 1, 59, 127
2, 46000, Note_on_c, 1, 67, 127
2, 46000, Note_on_c, 1, 71, 127
2, 46000, Note_on_c, 1, 76, 127
2, 47520, Note_off_c, 1, 47, 0
2, 47520, Note_on_c, 1, 48, 127
2, 47520, Note_off_c, 1, 59, 0
2, 47520, Note_on_c, 1, 60, 127
2, 47520, Note_off_c, 1, 67, 0
2, 47520, Note_off_c, 1, 71, 0
2, 47520, Note_off_c, 1, 76, 0
2, 47520, Note_on_c, 1, 78, 127
2, 47520, Note_on_c, 1, 81, 127
2, 47520, Note_on_c, 1, 87, 127
2, 47520, Note_on_c, 1, 90, 127
2, 47560, Note_on_c, 1, 47, 127
2, 47560, Note_off_c, 1, 48, 0
2, 47560, Note_on_c, 1, 59, 127
2, 47560, Note_off_c, 1, 60, 0
2, 47560, Note_on_c, 1, 67, 127
2, 47560, Note_on_c, 1, 71, 127
2, 47560, Note_on_c, 1, 76, 127
2, 47560, Note_off_c, 1, 78, 0
2, 47560, Note_off_c, 1, 81, 0
2, 47560, Note_off_c, 1, 87, 0
2, 47560, Note_off_c, 1, 90, 0
2, 48280, Note_off_c, 1, 47, 0
2, 48280, Note_off_c, 1, 59, 0
2, 48280, Note_off_c, 1, 67, 0
2, 48280, Note_off_c, 1, 71, 0
2, 48280, Note_off_c, 1, 76, 0
2, 48320, Note_on_c, 1, 47, 127
2, 48320, Note_on_c, 1, 59, 127
2, 48320, Note_on_c, 1, 67, 127
2, 48320, Note_on_c, 1, 71, 127
2, 48320, Note_on_c, 1, 76, 127
2, 48800, Note_off_c, 1, 47, 0
2, 48800, Note_off_c, 1, 59, 0
2, 48800, Note_off_c, 1, 67, 0
2, 48800, Note_off_c, 1, 71, 0
2, 48800, Note_off_c, 1, 76, 0
2, 48840, Note_on_c, 1, 51, 127
2, 48840, Note_on_c, 1, 63, 127
2, 48840, Note_on_c, 1, 67, 127
2, 48840, Note_on_c, 1, 70, 127
2, 48840, Note_on_c, 1, 75, 127
2, 48840, Note_on_c, 1, 79, 127
2, 50400, Note_off_c, 1, 51, 0
2, 50400, Note_off_c, 1, 63, 0
2, 50400, Note_off_c, 1, 67, 0
2, 50400, Note_off_c, 1, 70, 0
2, 50400, Note_off_c, 1, 75, 0
2, 50400, Note_off_c, 1, 79, 0
2, 50480, Note_on_c, 1, 58, 127
2, 50480, Note_on_c, 1, 65, 127
2, 50480, Note_on_c, 1, 70, 127
2, 50480, Note_on_c, 1, 74, 127
2, 50480, Note_on_c, 1, 80, 127
2, 52680, Note_off_c, 1, 58, 0
2, 52680, Note_off_c, 1, 65, 0
2, 52680, Note_off_c, 1, 70, 0
2, 52680, Note_off_c, 1, 74, 0
2, 52680, Note_off_c, 1, 80, 0
2, 52760, Note_on_c, 1, 39, 127
2, 52760, Note_on_c, 1, 63, 127
2, 52840, Note_off_c, 1, 63, 0
2, 52880, Note_on_c, 1, 46, 127
2, 52880, Note_on_c, 1, 58, 127
2, 54040, Note_off_c, 1, 58, 0
2, 54080, Note_on_c, 1, 58, 127
2, 54640, Note_off_c, 1, 39, 0
2, 54640, Note_off_c, 1, 46, 0
2, 54640, Note_on_c, 1, 62, 127
2, 54680, Note_on_c, 1, 65, 127
2, 55240, Note_on_c, 1, 70, 127
2, 55280, Note_off_c, 1, 58, 0
2, 55280, Note_off_c, 1, 62, 0
2, 55280, Note_off_c, 1, 65, 0
2, 55280, Note_off_c, 1, 70, 0
2, 55320, Note_on_c, 1, 58, 127
2, 55320, Note_on_c, 1, 62, 127
2, 55320, Note_on_c, 1, 65, 127
2, 55320, Note_on_c, 1, 70, 127
2, 55880, Note_off_c, 1, 70, 0
2, 55880, Note_on_c, 1, 77, 127
2, 56080, Note_on_c, 1, 76, 127
2, 56080, Note_off_c, 1, 77, 0
2, 56120, Note_off_c, 1, 76, 0
2, 56120, Note_on_c, 1, 77, 127
2, 56280, Note_off_c, 1, 77, 0
2, 56320, Note_on_c, 1, 82, 127
2, 56680, Note_off_c, 1, 82, 0
2, 56720, Note_on_c, 1, 82, 127
2, 56840, Note_off_c, 1, 82, 0
2, 56880, Note_off_c, 1, 58, 0
2, 56880, Note_on_c, 1, 61, 127
2, 56880, Note_off_c, 1, 62, 0
2, 56880, Note_off_c, 1, 65, 0
2, 56880, Note_on_c, 1, 76, 127
2, 56880, Note_on_c, 1, 82, 127
2, 56880, Note_on_c, 1, 88, 127
2, 57400, Note_off_c, 1, 61, 0
2, 57400, Note_off_c, 1, 76, 0
2, 57400, Note_off_c, 1, 82, 0
2, 57400, Note_off_c, 1, 88, 0
2, 57440, Note_on_c, 1, 61, 127
2, 57440, Note_on_c, 1, 76, 127
2, 57440, Note_on_c, 1, 82, 127
2, 57440, Note_on_c, 1, 88, 127
2, 57480, Note_off_c, 1, 61, 0
2, 57480, Note_off_c, 1, 76, 0
2, 57480, Note_off_c, 1, 82, 0
2, 57480, Note_off_c, 1, 88, 0
2, 57520, Note_on_c, 1, 58, 127
2, 57520, Note_on_c, 1, 65, 127
2, 58080, Note_off_c, 1, 65, 0
2, 58120, Note_on_c, 1, 70, 127
2, 59240, Note_off_c, 1, 58, 0
2, 59240, Note_off_c, 1, 70, 0
2, 59320, Note_on_c, 1, 60, 127
2, 59320, Note_on_c, 1, 69, 127
2, 59320, Note_on_c, 1, 77, 127
2, 59920, Note_off_c, 1, 60, 0
2, 59920, Note_off_c, 1, 69, 0
2, 59920, Note_off_c, 1, 77, 0
2, 59960, Note_on_c, 1, 60, 127
2, 59960, Note_on_c, 1, 69, 127
2, 59960, Note_on_c, 1, 77, 127
2, 61080, Note_off_c, 1, 77, 0
2, 61120, Note_on_c, 1, 77, 127
2, 62280, Note_off_c, 1, 60, 0
2, 62280, Note_off_c, 1, 69, 0
2, 62280, Note_off_c, 1, 77, 0
2, 62320, Note_on_c, 1, 56, 127
2, 62320, Note_on_c, 1, 60, 127
2, 62320, Note_on_c, 1, 77, 127
2, 62440, Note_off_c, 1, 77, 0
2, 62440, Note_on_c, 1, 80, 127
2, 62480, Note_on_c, 1, 77, 127
2, 62480, Note_off_c, 1, 80, 0
2, 62520, Note_off_c, 1, 56, 0
2, 62520, Note_off_c, 1, 60, 0
2, 62520, Note_off_c, 1, 77, 0
2, 62560, Note_on_c, 1, 56, 127
2, 62560, Note_on_c, 1, 60, 127
2, 62560, Note_on_c, 1, 77, 127
2, 62920, Note_off_c, 1, 60, 0
2, 62960, Note_on_c, 1, 65, 127
2, 63480, Note_off_c, 1, 56, 0
2, 63480, Note_off_c, 1, 65, 0
2, 63480, Note_off_c, 1, 77, 0
2, 63520, Note_on_c, 1, 58, 127
2, 63520, Note_on_c, 1, 68, 127
2, 63520, Note_on_c, 1, 74, 127
2, 63920, Note_off_c, 1, 74, 0
2, 63960, Note_on_c, 1, 77, 127
2, 64040, Note_off_c, 1, 77, 0
2, 64080, Note_off_c, 1, 58, 0
2, 64080, Note_off_c, 1, 68, 0
2, 64120, Note_on_c, 1, 77, 127
2, 64720, Note_on_c, 1, 62, 127
2, 64720, Note_on_c, 1, 67, 127
2, 64720, Note_on_c, 1, 70, 127
2, 64720, Note_off_c, 1, 77, 0
2, 64920, Note_off_c, 1, 62, 0
2, 64920, Note_off_c, 1, 67, 0
2, 64920, Note_off_c, 1, 70, 0
2, 64960, Note_on_c, 1, 62, 127
2, 64960, Note_on_c, 1, 67, 127
2, 64960, Note_on_c, 1, 70, 127
2, 65280, Note_off_c, 1, 62, 0
2, 65320, Note_on_c, 1, 62, 127
2, 65320, Note_on_c, 1, 74, 127
2, 65320, Note_on_c, 1, 79, 127
2, 65880, Note_off_c, 1, 62, 0
2, 65880, Note_off_c, 1, 67, 0
2, 65880, Note_off_c, 1, 70, 0
2, 65880, Note_off_c, 1, 74, 0
2, 65920, Note_on_c, 1, 55, 127
2, 65920, Note_on_c, 1, 70, 127
2, 66440, Note_off_c, 1, 55, 0
2, 66480, Note_on_c, 1, 68, 127
2, 67040, Note_off_c, 1, 68, 0
2, 67040, Note_off_c, 1, 70, 0
2, 67040, Note_off_c, 1, 79, 0
2, 67080, Note_on_c, 1, 63, 127
2, 67080, Note_on_c, 1, 67, 127
2, 67080, Note_on_c, 1, 70, 127
2, 67280, Note_off_c, 1, 63, 0
2, 67280, Note_off_c, 1, 67, 0
2, 67280, Note_off_c, 1, 70, 0
2, 67320, Note_on_c, 1, 63, 127
2, 67320, Note_on_c, 1, 67, 127
2, 67320, Note_on_c, 1, 70, 127
2, 68280, Note_off_c, 1, 63, 0
2, 68280, Note_off_c, 1, 67, 0
2, 68280, Note_off_c, 1, 70, 0
2, 68320, Note_on_c, 1, 81, 127
2, 68360, Note_off_c, 1, 81, 0
2, 68360, Note_on_c, 1, 82, 127
2, 68920, Note_on_c, 1, 35, 127
2, 68920, Note_on_c, 1, 44, 127
2, 68920, Note_on_c, 1, 80, 127
2, 68920, Note_off_c, 1, 82, 0
2, 68960, Note_off_c, 1, 80, 0
2, 69480, Note_off_c, 1, 35, 0
2, 69480, Note_off_c, 1, 44, 0
2, 69560, Note_on_c, 1, 46, 127
2, 69560, Note_on_c, 1, 54, 127
2, 69560, Note_on_c, 1, 58, 127
2, 70120, Note_on_c, 1, 64, 127
2, 70120, Note_on_c, 1, 66, 127
2, 70120, Note_on_c, 1, 73, 127
2, 70480, Note_off_c, 1, 64, 0
2, 70480, Note_off_c, 1, 66, 0
2, 70480, Note_off_c, 1, 73, 0
2, 70520, Note_on_c, 1, 64, 127
2, 70520, Note_on_c, 1, 66, 127
2, 70520, Note_on_c, 1, 73, 127
2, 70640, Note_off_c, 1, 64, 0
2, 70640, Note_off_c, 1, 66, 0
2, 70640, Note_off_c, 1, 73, 0
2, 70680, Note_off_c, 1, 46, 0
2, 70680, Note_off_c, 1, 54, 0
2, 70680, Note_off_c, 1, 58, 0
2, 70720, Note_on_c, 1, 80, 127
2, 70720, Note_on_c, 1, 82, 127
2, 71240, Note_off_c, 1, 82, 0
2, 71280, Note_off_c, 1, 80, 0
2, 71320, Note_on_c, 1, 77, 127
2, 71720, Note_off_c, 1, 77, 0
2, 71760, Note_on_c, 1, 77, 127
2, 71920, Note_off_c, 1, 77, 0
2, 71960, Note_on_c, 1, 59, 127
2, 71960, Note_on_c, 1, 77, 127
2, 71960, Note_on_c, 1, 78, 127
2, 72000, Note_on_c, 1, 75, 127
2, 72000, Note_off_c, 1, 77, 0
2, 72000, Note_off_c, 1, 78, 0
2, 72520, Note_off_c, 1, 59, 0
2, 72520, Note_off_c, 1, 75, 0
2, 72560, Note_on_c, 1, 62, 127
2, 73120, Note_off_c, 1, 62, 0
2, 73160, Note_on_c, 1, 63, 127
2, 73720, Note_off_c, 1, 63, 0
2, 73760, Note_on_c, 1, 77, 127
2, 73960, Note_off_c, 1, 77, 0
2, 74000, Note_on_c, 1, 77, 127
2, 74320, Note_off_c, 1, 77, 0
2, 74360, Note_on_c, 1, 46, 127
2, 74360, Note_on_c, 1, 82, 127
2, 74720, Note_off_c, 1, 46, 0
2, 74720, Note_on_c, 1, 55, 127
2, 74720, Note_on_c, 1, 58, 127
2, 74720, Note_on_c, 1, 62, 127
2, 74720, Note_on_c, 1, 67, 127
2, 74720, Note_on_c, 1, 70, 127
2, 74720, Note_off_c, 1, 82, 0
2, 74760, Note_on_c, 1, 46, 127
2, 74760, Note_off_c, 1, 55, 0
2, 74760, Note_off_c, 1, 58, 0
2, 74760, Note_off_c, 1, 62, 0
2, 74760, Note_off_c, 1, 67, 0
2, 74760, Note_off_c, 1, 70, 0
2, 74760, Note_on_c, 1, 82, 127
2, 74920, Note_off_c, 1, 46, 0
2, 74960, Note_on_c, 1, 39, 127
2, 75520, Note_off_c, 1, 39, 0
2, 75520, Note_off_c, 1, 82, 0
2, 75560, Note_on_c, 1, 39, 127
2, 75560, Note_on_c, 1, 80, 127
2, 76120, Note_off_c, 1, 39, 0
2, 76120, Note_off_c, 1, 80, 0
2, 76160, Note_on_c, 1, 47, 127
2, 76160, Note_on_c, 1, 80, 127
2, 76360, Note_off_c, 1, 47, 0
2, 76360, Note_off_c, 1, 80, 0
2, 76400, Note_on_c, 1, 47, 127
2, 76400, Note_on_c, 1, 80, 127
2, 76720, Note_off_c, 1, 47, 0
2, 76760, Note_on_c, 1, 47, 127
2, 77320, Note_off_c, 1, 47, 0
2, 77360, Note_on_c, 1, 52, 127
2, 77920, Note_off_c, 1, 52, 0
2, 77960, Note_on_c, 1, 47, 127
2, 78520, Note_off_c, 1, 47, 0
2, 78560, Note_off_c, 1, 80, 0
2, 78600, Note_on_c, 1, 47, 127
2, 78600, Note_on_c, 1, 80, 127
2, 78960, Note_off_c, 1, 47, 0
2, 79000, Note_on_c, 1, 47, 127
2, 79360, Note_off_c, 1, 47, 0
2, 79400, Note_on_c, 1, 59, 127
2, 79760, Note_off_c, 1, 59, 0
2, 79800, Note_on_c, 1, 47, 127
2, 80160, Note_off_c, 1, 47, 0
2, 80200, Note_on_c, 1, 56, 127
2, 80200, Note_on_c, 1, 76, 127
2, 80200, Note_off_c, 1, 80, 0
2, 80560, Note_off_c, 1, 56, 0
2, 80560, Note_off_c, 1, 76, 0
2, 80560, Note_on_c, 1, 77, 127
2, 80600, Note_off_c, 1, 77, 0
2, 80640, Note_on_c, 1, 43, 127
2, 80640, Note_on_c, 1, 77, 127
2, 80960, Note_off_c, 1, 43, 0
2, 80960, Note_off_c, 1, 77, 0
2, 81000, Note_on_c, 1, 44, 127
2, 81000, Note_on_c, 1, 70, 127
2, 81560, Note_off_c, 1, 44, 0
2, 81560, Note_on_c, 1, 68, 127
2, 81560, Note_off_c, 1, 70, 0
2, 81600, Note_on_c, 1, 61, 127
2, 82120, Note_off_c, 1, 61, 0
2, 82160, Note_off_c, 1, 68, 0
2, 82200, Note_on_c, 1, 51, 127
2, 82200, Note_on_c, 1, 67, 127
2, 82560, Note_off_c, 1, 51, 0
2, 82600, Note_on_c, 1, 50, 127
2, 82800, Note_off_c, 1, 50, 0
2, 82800, Note_off_c, 1, 67, 0
2, 82840, Note_on_c, 1, 50, 127
2, 82840, Note_on_c, 1, 67, 127
2, 83000, Note_off_c, 1, 50, 0
2, 83040, Note_on_c, 1, 51, 127
2, 83400, Note_off_c, 1, 51, 0
2, 83400, Note_off_c, 1, 67, 0
2, 83440, Note_on_c, 1, 48, 127
2, 83440, Note_on_c, 1, 75, 127
2, 83800, Note_off_c, 1, 48, 0
2, 83840, Note_on_c, 1, 47, 127
2, 84200, Note_off_c, 1, 47, 0
2, 84240, Note_on_c, 1, 53, 127
2, 84600, Note_off_c, 1, 53, 0
2, 84640, Note_on_c, 1, 58, 127
2, 85000, Note_off_c, 1, 58, 0
2, 85040, Note_off_c, 1, 75, 0
2, 85080, Note_on_c, 1, 55, 127
2, 85080, Note_on_c, 1, 70, 127
2, 85080, Note_on_c, 1, 73, 127
2, 85440, Note_off_c, 1, 55, 0
2, 85440, Note_off_c, 1, 70, 0
2, 85480, Note_on_c, 1, 48, 127
2, 85800, Note_off_c, 1, 48, 0
2, 85800, Note_off_c, 1, 73, 0
2, 85840, Note_on_c, 1, 51, 127
2, 85840, Note_on_c, 1, 58, 127
2, 85840, Note_on_c, 1, 67, 127
2, 85840, Note_on_c, 1, 75, 127
2, 87000, Note_off_c, 1, 75, 0
2, 87040, Note_on_c, 1, 75, 127
2, 87440, Note_off_c, 1, 51, 0
2, 87440, Note_off_c, 1, 58, 0
2, 87440, Note_off_c, 1, 67, 0
2, 87440, Note_off_c, 1, 75, 0
2, 87480, Note_on_c, 1, 51, 127
2, 87480, Note_on_c, 1, 58, 127
2, 87480, Note_on_c, 1, 67, 127
2, 87480, Note_on_c, 1, 75, 127
2, 89400, Note_on_c, 1, 39, 127
2, 89400, Note_off_c, 1, 58, 0
2, 89400, Note_on_c, 1, 63, 127
2, 89400, Note_on_c, 1, 70, 127
2, 89400, Note_off_c, 1, 75, 0
2, 89440, Note_off_c, 1, 39, 0
2, 89440, Note_on_c, 1, 58, 127
2, 89440, Note_off_c, 1, 63, 0
2, 89440, Note_off_c, 1, 70, 0
2, 89440, Note_on_c, 1, 75, 127
2, 89800, Note_off_c, 1, 51, 0
2, 89800, Note_off_c, 1, 58, 0
2, 89800, Note_off_c, 1, 67, 0
2, 89800, Note_off_c, 1, 75, 0
2, 89840, Note_on_c, 1, 51, 127
2, 89840, Note_on_c, 1, 58, 127
2, 89840, Note_on_c, 1, 67, 127
2, 89840, Note_on_c, 1, 75, 127
2, 90040, Note_off_c, 1, 51, 0
2, 90040, Note_off_c, 1, 58, 0
2, 90040, Note_off_c, 1, 67, 0
2, 90040, Note_off_c, 1, 75, 0
2, 90080, Note_on_c, 1, 51, 127
2, 90080, Note_on_c, 1, 58, 127
2, 90080, Note_on_c, 1, 67, 127
2, 90080, Note_on_c, 1, 75, 127
2, 92480, Note_off_c, 1, 51, 0
2, 92480, Note_off_c, 1, 58, 0
2, 92480, Note_off_c, 1, 67, 0
2, 92480, Note_off_c, 1, 75, 0
2, 92520, Note_on_c, 1, 51, 127
2, 92520, Note_on_c, 1, 58, 127
2, 92520, Note_on_c, 1, 67, 127
2, 92520, Note_on_c, 1, 75, 127
2, 94960, Note_off_c, 1, 51, 0
2, 94960, Note_off_c, 1, 58, 0
2, 94960, Note_off_c, 1, 67, 0
2, 94960, Note_off_c, 1, 75, 0
2, 95000, Note_on_c, 1, 51, 127
2, 95000, Note_on_c, 1, 58, 127
2, 95000, Note_on_c, 1, 67, 127
2, 95000, Note_on_c, 1, 75, 127
2, 97320, Note_on_c, 1, 47, 127
2, 97320, Note_off_c, 1, 51, 0
2, 97320, Note_on_c, 1, 54, 127
2, 97320, Note_off_c, 1, 58, 0
2, 97320, Note_on_c, 1, 63, 127
2, 97320, Note_off_c, 1, 67, 0
2, 97360, Note_off_c, 1, 47, 0
2, 97360, Note_off_c, 1, 54, 0
2, 97360, Note_off_c, 1, 63, 0
2, 97360, Note_off_c, 1, 75, 0
2, 97400, Note_on_c, 1, 51, 127
2, 97400, Note_on_c, 1, 58, 127
2, 97400, Note_on_c, 1, 67, 127
2, 97400, Note_on_c, 1, 75, 127
2, 99800, Note_off_c, 1, 51, 0
2, 99800, Note_off_c, 1, 58, 0
2, 99800, Note_off_c, 1, 67, 0
2, 99800, Note_off_c, 1, 75, 0
2, 99840, Note_on_c, 1, 51, 127
2, 99840, Note_on_c, 1, 58, 127
2, 99840, Note_on_c, 1, 67, 127
2, 99840, Note_on_c, 1, 75, 127
2, 102720, Note_off_c, 1, 51, 0
2, 102720, Note_off_c, 1, 58, 0
2, 102720, Note_off_c, 1, 67, 0
2, 102720, Note_off_c, 1, 75, 0
2, 102760, Note_on_c, 1, 51, 127
2, 102760, Note_on_c, 1, 58, 127
2, 102760, Note_on_c, 1, 67, 127
2, 102760, Note_on_c, 1, 75, 127
2, 105480, Note_off_c, 1, 51, 0
2, 105480, Note_off_c, 1, 58, 0
2, 105480, Note_off_c, 1, 67, 0
2, 105480, Note_off_c, 1, 75, 0
2, 105520, Note_on_c, 1, 51, 127
2, 105520, Note_on_c, 1, 58, 127
2, 105520, Note_on_c, 1, 67, 127
2, 105520, Note_on_c, 1, 75, 127
2, 106280, Note_off_c, 1, 51, 0
2, 106280, Note_off_c, 1, 58, 0
2, 106280, Note_off_c, 1, 67, 0
2, 106280, Note_off_c, 1, 75, 0
2, 106320, Note_on_c, 1, 51, 127
2, 106320, Note_on_c, 1, 58, 127
2, 106320, Note_on_c, 1, 67, 127
2, 106320, Note_on_c, 1, 75, 127
2, 107920, Note_off_c, 1, 51, 0
2, 107920, Note_off_c, 1, 58, 0
2, 107920, Note_off_c, 1, 67, 0
2, 107920, Note_off_c, 1, 75, 0
2, 107960, Note_on_c, 1, 51, 127
2, 107960, Note_on_c, 1, 58, 127
2, 107960, Note_on_c, 1, 67, 127
2, 107960, Note_on_c, 1, 75, 127
2, 110160, Note_off_c, 1, 51, 0
2, 110160, Note_off_c, 1, 58, 0
2, 110160, Note_off_c, 1, 67, 0
2, 110160, Note_off_c, 1, 75, 0
2, 110240, Note_on_c, 1, 51, 127
2, 110240, Note_on_c, 1, 58, 127
2, 110240, Note_on_c, 1, 63, 127
2, 110240, Note_on_c, 1, 67, 127
2, 110240, Note_on_c, 1, 70, 127
2, 112600, Note_off_c, 1, 51, 0
2, 112600, Note_off_c, 1, 58, 0
2, 112600, Note_off_c, 1, 63, 0
2, 112600, Note_off_c, 1, 67, 0
2, 112600, Note_off_c, 1, 70, 0
2, 112640, Note_on_c, 1, 51, 127
2, 112640, Note_on_c, 1, 58, 127
2, 112640, Note_on_c, 1, 63, 127
2, 112640, Note_on_c, 1, 67, 127
2, 112640, Note_on_c, 1, 70, 127
2, 114360, Note_off_c, 1, 51, 0
2, 114360, Note_off_c, 1, 58, 0
2, 114360, Note_off_c, 1, 63, 0
2, 114360, Note_off_c, 1, 67, 0
2, 114360, Note_off_c, 1, 70, 0
2, 114400, Note_on_c, 1, 43, 127
2, 114400, Note_on_c, 1, 55, 127
2, 114400, Note_on_c, 1, 64, 127
2, 114400, Note_on_c, 1, 69, 127
2, 114760, Note_off_c, 1, 43, 0
2, 114760, Note_off_c, 1, 55, 0
2, 114760, Note_off_c, 1, 64, 0
2, 114760, Note_off_c, 1, 69, 0
2, 114800, Note_on_c, 1, 43, 127
2, 114800, Note_on_c, 1, 55, 127
2, 114800, Note_on_c, 1, 64, 127
2, 114800, Note_on_c, 1, 69, 127
2, 114960, Note_off_c, 1, 64, 0
2, 115200, Note_off_c, 1, 55, 0
2, 115200, Note_off_c, 1, 69, 0
2, 115200, Note_on_c, 1, 71, 127
2, 115200, Note_on_c, 1, 75, 127
2, 115240, Note_off_c, 1, 43, 0
2, 115240, Note_off_c, 1, 71, 0
2, 115240, Note_off_c, 1, 75, 0
2, 115280, Note_on_c, 1, 60, 127
2, 115280, Note_on_c, 1, 66, 127
2, 115280, Note_on_c, 1, 74, 127
2, 115280, Note_on_c, 1, 81, 127
2, 115840, Note_on_c, 1, 50, 127
2, 115840, Note_off_c, 1, 60, 0
2, 115840, Note_off_c, 1, 66, 0
2, 115840, Note_off_c, 1, 81, 0
2, 115880, Note_on_c, 1, 43, 127
2, 115880, Note_off_c, 1, 50, 0
2, 115880, Note_off_c, 1, 74, 0
2, 115880, Note_on_c, 1, 75, 127
2, 115880, Note_on_c, 1, 79, 127
2, 116840, Note_off_c, 1, 43, 0
2, 116840, Note_off_c, 1, 75, 0
2, 116840, Note_off_c, 1, 79, 0
2, 116880, Note_on_c, 1, 43, 127
2, 116880, Note_on_c, 1, 75, 127
2, 116880, Note_on_c, 1, 79, 127
2, 117120, Note_off_c, 1, 43, 0
2, 117120, Note_off_c, 1, 75, 0
2, 117120, Note_off_c, 1, 79, 0
2, 117160, Note_on_c, 1, 55, 127
2, 117160, Note_on_c, 1, 69, 127
2, 117160, Note_on_c, 1, 75, 127
2, 117160, Note_on_c, 1, 77, 127
2, 117160, Note_on_c, 1, 81, 127
2, 117200, Note_off_c, 1, 55, 0
2, 117200, Note_on_c, 1, 56, 127
2, 117200, Note_on_c, 1, 66, 127
2, 117200, Note_on_c, 1, 68, 127
2, 117200, Note_off_c, 1, 69, 0
2, 117200, Note_on_c, 1, 71, 127
2, 117200, Note_off_c, 1, 75, 0
2, 117200, Note_off_c, 1, 77, 0
2, 117200, Note_on_c, 1, 78, 127
2, 117200, Note_off_c, 1, 81, 0
2, 117200, Note_on_c, 1, 83, 127
2, 117520, Note_on_c, 1, 39, 127
2, 117520, Note_on_c, 1, 45, 127
2, 117520, Note_on_c, 1, 47, 127
2, 117520, Note_on_c, 1, 54, 127
2, 117520, Note_off_c, 1, 56, 0
2, 117520, Note_off_c, 1, 66, 0
2, 117520, Note_off_c, 1, 68, 0
2, 117520, Note_off_c, 1, 71, 0
2, 117520, Note_on_c, 1, 75, 127
2, 117520, Note_off_c, 1, 78, 0
2, 117520, Note_on_c, 1, 87, 127
2, 117560, Note_off_c, 1, 39, 0
2, 117560, Note_off_c, 1, 45, 0
2, 117560, Note_off_c, 1, 47, 0
2, 117560, Note_off_c, 1, 54, 0
2, 117560, Note_on_c, 1, 55, 127
2, 117560, Note_on_c, 1, 58, 127
2, 117560, Note_on_c, 1, 72, 127
2, 117560, Note_off_c, 1, 75, 0
2, 117560, Note_on_c, 1, 79, 127
2, 117560, Note_off_c, 1, 83, 0
2, 117560, Note_on_c, 1, 84, 127
2, 117560, Note_off_c, 1, 87, 0
2, 117600, Note_off_c, 1, 55, 0
2, 117600, Note_off_c, 1, 58, 0
2, 117600, Note_on_c, 1, 63, 127
2, 117600, Note_off_c, 1, 72, 0
2, 117600, Note_on_c, 1, 77, 127
2, 117600, Note_off_c, 1, 79, 0
2, 117600, Note_on_c, 1, 82, 127
2, 117600, Note_off_c, 1, 84, 0
2, 117600, Note_on_c, 1, 86, 127
2, 117640, Note_on_c, 1, 50, 127
2, 117640, Note_off_c, 1, 63, 0
2, 117640, Note_on_c, 1, 71, 127
2, 117640, Note_off_c, 1, 77, 0
2, 117640, Note_off_c, 1, 82, 0
2, 117640, Note_on_c, 1, 88, 127
2, 117720, Note_on_c, 1, 46, 127
2, 117720, Note_off_c, 1, 50, 0
2, 117720, Note_on_c, 1, 58, 127
2, 117720, Note_off_c, 1, 71, 0
2, 117720, Note_on_c, 1, 80, 127
2, 117720, Note_off_c, 1, 88, 0
2, 117720, Note_on_c, 1, 92, 127
2, 117760, Note_on_c, 1, 31, 127
2, 117760, Note_on_c, 1, 43, 127
2, 117760, Note_off_c, 1, 46, 0
2, 117760, Note_on_c, 1, 62, 127
2, 117760, Note_on_c, 1, 70, 127
2, 117760, Note_off_c, 1, 80, 0
2, 117760, Note_off_c, 1, 86, 0
2, 117760, Note_off_c, 1, 92, 0
2, 119080, Note_off_c, 1, 31, 0
2, 119080, Note_off_c, 1, 43, 0
2, 119080, Note_off_c, 1, 58, 0
2, 119080, Note_off_c, 1, 62, 0
2, 119080, Note_off_c, 1, 70, 0
2, 119160, Note_on_c, 1, 50, 127
2, 119160, Note_on_c, 1, 55, 127
2, 119160, Note_on_c, 1, 58, 127
2, 119160, Note_on_c, 1, 70, 127
2, 119160, Note_on_c, 1, 74, 127
2, 119160, Note_on_c, 1, 76, 127
2, 119240, Note_off_c, 1, 58, 0
2, 119240, Note_off_c, 1, 70, 0
2, 119240, Note_off_c, 1, 74, 0
2, 119720, Note_off_c, 1, 76, 0
2, 119760, Note_on_c, 1, 76, 127
2, 120000, Note_off_c, 1, 50, 0
2, 120000, Note_off_c, 1, 55, 0
2, 120000, Note_off_c, 1, 76, 0
2, 120040, End_track
3, 0, Start_track
3, 0, Title_t, "MIDI"
3, 1536, End_track
0, 0, End_of_file
