0, 0, Header, 1, 3, 192
1, 0, Start_track
1, 0, Time_signature, 4, 2, 24, 8
1, 0, Tempo, 500000
1, 120040, End_track
2, 0, Start_track
2, 0, Text_t, "random instrument: random person i dunno whatev"
2, 0, Title_t, "Track 1"
2, 0, Note_on_c, 1, 40, 127
2, 0, Note_on_c, 1, 48, 127
2, 0, Note_on_c, 1, 56, 127
2, 0, Note_on_c, 1, 60, 127
2, 440, Note_off_c, 1, 40, 0
2, 440, Note_off_c, 1, 48, 0
2, 440, Note_off_c, 1, 56, 0
2, 440, Note_off_c, 1, 60, 0
2, 480, Note_on_c, 1, 40, 127
2, 480, Note_on_c, 1, 48, 127
2, 480, Note_on_c, 1, 56, 127
2, 480, Note_on_c, 1, 60, 127
2, 520, Note_off_c, 1, 40, 0
2, 520, Note_off_c, 1, 48, 0
2, 520, Note_off_c, 1, 56, 0
2, 520, Note_off_c, 1, 60, 0
2, 560, Note_on_c, 1, 79, 127
2, 2000, Note_off_c, 1, 79, 0
2, 2040, Note_on_c, 1, 78, 127
2, 2280, Note_off_c, 1, 78, 0
2, 2320, Note_on_c, 1, 79, 127
2, 2480, Note_off_c, 1, 79, 0
2, 2520, Note_on_c, 1, 79, 127
2, 3920, Note_off_c, 1, 79, 0
2, 3960, Note_on_c, 1, 80, 127
2, 4720, Note_off_c, 1, 80, 0
2, 4760, Note_on_c, 1, 80, 127
2, 4920, Note_off_c, 1, 80, 0
2, 4960, Note_on_c, 1, 78, 127
2, 5640, Note_off_c, 1, 78, 0
2, 5680, Note_on_c, 1, 79, 127
2, 6040, Note_off_c, 1, 79, 0
2, 6080, Note_on_c, 1, 78, 127
2, 7040, Note_off_c, 1, 78, 0
2, 7080, Note_on_c, 1, 78, 127
2, 7200, Note_off_c, 1, 78, 0
2, 7240, Note_on_c, 1, 92, 127
2, 7400, Note_on_c, 1, 80, 127
2, 7400, Note_off_c, 1, 92, 0
2, 7440, Note_off_c, 1, 80, 0
2, 7440, Note_on_c, 1, 92, 127
2, 8640, Note_off_c, 1, 92, 0
2, 18240, Note_on_c, 1, 40, 127
2, 18240, Note_on_c, 1, 52, 127
2, 18240, Note_on_c, 1, 64, 127
2, 18600, Note_off_c, 1, 40, 0
2, 18600, Note_off_c, 1, 52, 0
2, 18600, Note_off_c, 1, 64, 0
2, 18640, Note_on_c, 1, 40, 127
2, 18640, Note_on_c, 1, 52, 127
2, 18640, Note_on_c, 1, 64, 127
2, 23560, Note_on_c, 1, 39, 127
2, 23560, Note_off_c, 1, 40, 0
2, 23560, Note_on_c, 1, 51, 127
2, 23560, Note_off_c, 1, 52, 0
2, 23560, Note_on_c, 1, 63, 127
2, 23560, Note_off_c, 1, 64, 0
2, 23600, Note_off_c, 1, 39, 0
2, 23600, Note_on_c, 1, 40, 127
2, 23600, Note_off_c, 1, 51, 0
2, 23600, Note_on_c, 1, 52, 127
2, 23600, Note_off_c, 1, 63, 0
2, 23600, Note_on_c, 1, 64, 127
2, 26160, Note_off_c, 1, 40, 0
2, 26160, Note_off_c, 1, 52, 0
2, 26160, Note_off_c, 1, 64, 0
2, 26200, Note_on_c, 1, 40, 127
2, 26200, Note_on_c, 1, 52, 127
2, 26200, Note_on_c, 1, 64, 127
2, 29480, Note_off_c, 1, 40, 0
2, 29480, Note_off_c, 1, 52, 0
2, 29480, Note_off_c, 1, 64, 0
2, 29520, Note_on_c, 1, 40, 127
2, 29520, Note_on_c, 1, 52, 127
2, 29520, Note_on_c, 1, 64, 127
2, 32400, Note_off_c, 1, 40, 0
2, 32400, Note_off_c, 1, 52, 0
2, 32400, Note_off_c, 1, 64, 0
2, 32440, Note_on_c, 1, 40, 127
2, 32440, Note_on_c, 1, 52, 127
2, 32440, Note_on_c, 1, 64, 127
2, 34720, Note_off_c, 1, 40, 0
2, 34720, Note_off_c, 1, 52, 0
2, 34720, Note_off_c, 1, 64, 0
2, 34760, Note_on_c, 1, 40, 127
2, 34760, Note_on_c, 1, 52, 127
2, 34760, Note_on_c, 1, 64, 127
2, 37240, Note_off_c, 1, 40, 0
2, 37240, Note_off_c, 1, 52, 0
2, 37240, Note_off_c, 1, 64, 0
2, 37280, Note_on_c, 1, 40, 127
2, 37280, Note_on_c, 1, 52, 127
2, 37280, Note_on_c, 1, 64, 127
2, 39960, Note_off_c, 1, 40, 0
2, 39960, Note_off_c, 1, 52, 0
2, 39960, Note_off_c, 1, 64, 0
2, 40000, Note_on_c, 1, 40, 127
2, 40000, Note_on_c, 1, 52, 127
2, 40000, Note_on_c, 1, 64, 127
2, 42680, Note_off_c, 1, 40, 0
2, 42680, Note_off_c, 1, 52, 0
2, 42680, Note_off_c, 1, 64, 0
2, 42720, Note_on_c, 1, 40, 127
2, 42720, Note_on_c, 1, 52, 127
2, 42720, Note_on_c, 1, 64, 127
2, 45200, Note_off_c, 1, 40, 0
2, 45200, Note_off_c, 1, 52, 0
2, 45200, Note_off_c, 1, 64, 0
2, 45240, Note_on_c, 1, 40, 127
2, 45240, Note_on_c, 1, 52, 127
2, 45240, Note_on_c, 1, 64, 127
2, 47640, Note_off_c, 1, 40, 0
2, 47640, Note_off_c, 1, 52, 0
2, 47640, Note_off_c, 1, 64, 0
2, 47680, Note_on_c, 1, 40, 127
2, 47680, Note_on_c, 1, 52, 127
2, 47680, Note_on_c, 1, 64, 127
2, 49960, Note_off_c, 1, 40, 0
2, 49960, Note_off_c, 1, 52, 0
2, 49960, Note_off_c, 1, 64, 0
2, 50000, Note_on_c, 1, 40, 127
2, 50000, Note_on_c, 1, 52, 127
2, 50000, Note_on_c, 1, 64, 127
2, 50040, Note_off_c, 1, 40, 0
2, 50040, Note_off_c, 1, 52, 0
2, 50040, Note_off_c, 1, 64, 0
2, 50080, Note_on_c, 1, 50, 127
2, 50080, Note_on_c, 1, 62, 127
2, 51960, Note_off_c, 1, 50, 0
2, 51960, Note_off_c, 1, 62, 0
2, 67200, Note_on_c, 1, 52, 127
2, 67560, Note_off_c, 1, 52, 0
2, 67600, Note_on_c, 1, 57, 127
2, 67960, Note_off_c, 1, 57, 0
2, 68000, Note_on_c, 1, 57, 127
2, 68360, Note_off_c, 1, 57, 0
2, 68400, Note_on_c, 1, 65, 127
2, 68760, Note_off_c, 1, 65, 0
2, 68800, Note_on_c, 1, 57, 127
2, 69080, Note_off_c, 1, 57, 0
2, 69120, Note_on_c, 1, 57, 127
2, 69200, Note_off_c, 1, 57, 0
2, 69240, Note_on_c, 1, 62, 127
2, 69600, Note_off_c, 1, 62, 0
2, 69640, Note_on_c, 1, 57, 127
2, 70000, Note_off_c, 1, 57, 0
2, 70040, Note_on_c, 1, 53, 127
2, 70200, Note_off_c, 1, 53, 0
2, 70440, Note_on_c, 1, 52, 127
2, 70800, Note_off_c, 1, 52, 0
2, 70840, Note_on_c, 1, 50, 127
2, 71200, Note_off_c, 1, 50, 0
2, 71240, Note_on_c, 1, 57, 127
2, 71560, Note_off_c, 1, 57, 0
2, 71600, Note_on_c, 1, 48, 127
2, 71960, Note_off_c, 1, 48, 0
2, 72000, Note_on_c, 1, 42, 127
2, 72360, Note_off_c, 1, 42, 0
2, 72400, Note_on_c, 1, 45, 127
2, 72720, Note_off_c, 1, 45, 0
2, 72760, Note_on_c, 1, 45, 127
2, 72800, Note_off_c, 1, 45, 0
2, 72840, Note_on_c, 1, 45, 127
2, 73200, Note_off_c, 1, 45, 0
2, 73240, Note_on_c, 1, 45, 127
2, 73560, Note_off_c, 1, 45, 0
2, 73640, Note_on_c, 1, 45, 127
2, 73960, Note_off_c, 1, 45, 0
2, 74040, Note_on_c, 1, 45, 127
2, 74400, Note_off_c, 1, 45, 0
2, 74440, Note_on_c, 1, 43, 127
2, 74800, Note_off_c, 1, 43, 0
2, 74840, Note_on_c, 1, 45, 127
2, 75040, Note_off_c, 1, 45, 0
2, 75080, Note_on_c, 1, 45, 127
2, 75200, Note_off_c, 1, 45, 0
2, 75240, Note_on_c, 1, 45, 127
2, 75600, Note_off_c, 1, 45, 0
2, 75640, Note_on_c, 1, 45, 127
2, 76000, Note_off_c, 1, 45, 0
2, 76040, Note_on_c, 1, 45, 127
2, 76360, Note_off_c, 1, 45, 0
2, 76440, Note_on_c, 1, 45, 127
2, 76800, Note_off_c, 1, 45, 0
2, 76840, Note_on_c, 1, 45, 127
2, 77160, Note_off_c, 1, 45, 0
2, 77200, Note_on_c, 1, 45, 127
2, 77240, Note_off_c, 1, 45, 0
2, 77280, Note_on_c, 1, 53, 127
2, 77640, Note_off_c, 1, 53, 0
2, 77680, Note_on_c, 1, 45, 127
2, 78040, Note_off_c, 1, 45, 0
2, 78080, Note_on_c, 1, 45, 127
2, 78400, Note_off_c, 1, 45, 0
2, 78480, Note_on_c, 1, 45, 127
2, 78800, Note_off_c, 1, 45, 0
2, 78880, Note_on_c, 1, 46, 127
2, 79200, Note_off_c, 1, 46, 0
2, 79320, Note_on_c, 1, 46, 127
2, 79680, Note_off_c, 1, 46, 0
2, 79720, Note_on_c, 1, 48, 127
2, 80080, Note_off_c, 1, 48, 0
2, 80120, Note_on_c, 1, 46, 127
2, 80480, Note_off_c, 1, 46, 0
2, 80520, Note_on_c, 1, 45, 127
2, 80880, Note_off_c, 1, 45, 0
2, 80920, Note_on_c, 1, 46, 127
2, 81240, Note_off_c, 1, 46, 0
2, 81320, Note_on_c, 1, 45, 127
2, 81480, Note_off_c, 1, 45, 0
2, 81560, Note_on_c, 1, 45, 127
2, 81680, Note_off_c, 1, 45, 0
2, 81760, Note_on_c, 1, 46, 127
2, 82080, Note_off_c, 1, 46, 0
2, 82160, Note_on_c, 1, 45, 127
2, 82480, Note_off_c, 1, 45, 0
2, 82560, Note_on_c, 1, 45, 127
2, 82880, Note_off_c, 1, 45, 0
2, 82960, Note_on_c, 1, 46, 127
2, 83280, Note_off_c, 1, 46, 0
2, 83360, Note_on_c, 1, 45, 127
2, 83720, Note_off_c, 1, 45, 0
2, 83800, Note_on_c, 1, 45, 127
2, 84120, Note_off_c, 1, 45, 0
2, 84200, Note_on_c, 1, 50, 127
2, 84520, Note_off_c, 1, 50, 0
2, 84600, Note_on_c, 1, 50, 127
2, 84920, Note_off_c, 1, 50, 0
2, 85000, Note_on_c, 1, 58, 127
2, 85320, Note_off_c, 1, 58, 0
2, 85400, Note_on_c, 1, 57, 127
2, 85760, Note_off_c, 1, 57, 0
2, 85800, Note_on_c, 1, 58, 127
2, 86120, Note_off_c, 1, 58, 0
2, 86240, Note_on_c, 1, 58, 127
2, 86560, Note_off_c, 1, 58, 0
2, 86640, Note_on_c, 1, 57, 127
2, 86960, Note_off_c, 1, 57, 0
2, 87040, Note_on_c, 1, 58, 127
2, 87400, Note_off_c, 1, 58, 0
2, 87440, Note_on_c, 1, 57, 127
2, 87800, Note_off_c, 1, 57, 0
2, 87840, Note_on_c, 1, 52, 127
2, 88200, Note_off_c, 1, 52, 0
2, 88240, Note_on_c, 1, 46, 127
2, 88560, Note_off_c, 1, 46, 0
2, 88600, Note_on_c, 1, 46, 127
2, 88640, Note_off_c, 1, 46, 0
2, 88680, Note_on_c, 1, 47, 127
2, 89040, Note_off_c, 1, 47, 0
2, 89080, Note_on_c, 1, 50, 127
2, 89400, Note_off_c, 1, 50, 0
2, 89480, Note_on_c, 1, 53, 127
2, 89800, Note_off_c, 1, 53, 0
2, 89880, Note_on_c, 1, 46, 127
2, 90200, Note_off_c, 1, 46, 0
2, 90280, Note_on_c, 1, 49, 127
2, 90600, Note_off_c, 1, 49, 0
2, 90680, Note_on_c, 1, 50, 127
2, 91000, Note_off_c, 1, 50, 0
2, 91120, Note_on_c, 1, 46, 127
2, 91440, Note_off_c, 1, 46, 0
2, 91520, Note_on_c, 1, 46, 127
2, 91840, Note_off_c, 1, 46, 0
2, 91880, Note_on_c, 1, 46, 127
2, 92240, Note_off_c, 1, 46, 0
2, 92280, Note_on_c, 1, 45, 127
2, 92640, Note_off_c, 1, 45, 0
2, 92680, Note_on_c, 1, 54, 127
2, 93040, Note_off_c, 1, 54, 0
2, 93080, Note_on_c, 1, 50, 127
2, 93440, Note_off_c, 1, 50, 0
2, 93520, Note_on_c, 1, 46, 127
2, 93840, Note_off_c, 1, 46, 0
2, 93880, Note_on_c, 1, 47, 127
2, 94240, Note_off_c, 1, 47, 0
2, 94280, Note_on_c, 1, 46, 127
2, 94640, Note_off_c, 1, 46, 0
2, 94680, Note_on_c, 1, 46, 127
2, 95000, Note_off_c, 1, 46, 0
2, 95040, Note_on_c, 1, 58, 127
2, 95400, Note_off_c, 1, 58, 0
2, 95440, Note_on_c, 1, 57, 127
2, 95800, Note_off_c, 1, 57, 0
2, 95880, Note_on_c, 1, 57, 127
2, 96200, Note_off_c, 1, 57, 0
2, 96240, Note_on_c, 1, 46, 127
2, 96600, Note_off_c, 1, 46, 0
2, 96640, Note_on_c, 1, 50, 127
2, 97400, Note_off_c, 1, 50, 0
2, 97440, Note_on_c, 1, 61, 127
2, 97800, Note_off_c, 1, 61, 0
2, 97840, Note_on_c, 1, 54, 127
2, 98160, Note_off_c, 1, 54, 0
2, 98200, Note_on_c, 1, 54, 127
2, 98240, Note_off_c, 1, 54, 0
2, 98280, Note_on_c, 1, 58, 127
2, 98640, Note_off_c, 1, 58, 0
2, 98680, Note_on_c, 1, 59, 127
2, 99040, Note_off_c, 1, 59, 0
2, 99080, Note_on_c, 1, 58, 127
2, 99400, Note_off_c, 1, 58, 0
2, 99440, Note_on_c, 1, 59, 127
2, 99800, Note_off_c, 1, 59, 0
2, 99840, Note_on_c, 1, 50, 127
2, 100160, Note_off_c, 1, 50, 0
2, 100200, Note_on_c, 1, 51, 127
2, 100560, Note_off_c, 1, 51, 0
2, 100640, Note_on_c, 1, 51, 127
2, 101000, Note_off_c, 1, 51, 0
2, 101040, Note_on_c, 1, 45, 127
2, 101400, Note_off_c, 1, 45, 0
2, 101440, Note_on_c, 1, 46, 127
2, 101760, Note_off_c, 1, 46, 0
2, 101800, Note_on_c, 1, 47, 127
2, 102160, Note_off_c, 1, 47, 0
2, 102200, Note_on_c, 1, 37, 127
2, 102200, Note_on_c, 1, 61, 127
2, 102560, Note_off_c, 1, 37, 0
2, 102960, Note_off_c, 1, 61, 0
2, 103040, Note_on_c, 1, 61, 127
2, 103400, Note_off_c, 1, 61, 0
2, 103440, Note_on_c, 1, 66, 127
2, 103760, Note_off_c, 1, 66, 0
2, 103800, Note_on_c, 1, 70, 127
2, 104560, Note_off_c, 1, 70, 0
2, 104600, Note_on_c, 1, 66, 127
2, 104960, Note_off_c, 1, 66, 0
2, 105000, Note_on_c, 1, 66, 127
2, 105360, Note_off_c, 1, 66, 0
2, 105440, Note_on_c, 1, 66, 127
2, 106160, Note_off_c, 1, 66, 0
2, 106200, Note_on_c, 1, 63, 127
2, 106560, Note_off_c, 1, 63, 0
2, 106600, Note_on_c, 1, 70, 127
2, 106960, Note_off_c, 1, 70, 0
2, 107000, Note_on_c, 1, 66, 127
2, 107360, Note_off_c, 1, 66, 0
2, 107400, Note_on_c, 1, 66, 127
2, 107720, Note_off_c, 1, 66, 0
2, 107760, Note_on_c, 1, 66, 127
2, 107800, Note_off_c, 1, 66, 0
2, 107840, Note_on_c, 1, 63, 127
2, 108200, Note_off_c, 1, 63, 0
2, 108240, Note_on_c, 1, 66, 127
2, 108560, Note_off_c, 1, 66, 0
2, 108600, Note_on_c, 1, 60, 127
2, 108960, Note_off_c, 1, 60, 0
2, 109000, Note_on_c, 1, 54, 127
2, 109360, Note_off_c, 1, 54, 0
2, 109400, Note_on_c, 1, 46, 127
2, 109720, Note_off_c, 1, 46, 0
2, 120040, End_track
3, 0, Start_track
3, 0, Title_t, "MIDI"
3, 1536, End_track
0, 0, End_of_file
