0, 0, Header, 1, 3, 192
1, 0, Start_track
1, 0, Time_signature, 4, 2, 24, 8
1, 0, Tempo, 500000
1, 120040, End_track
2, 0, Start_track
2, 0, Text_t, "random instrument: random person i dunno whatev"
2, 0, Title_t, "Track 1"
2, 0, Note_on_c, 1, 40, 127
2, 0, Note_on_c, 1, 48, 127
2, 0, Note_on_c, 1, 56, 127
2, 0, Note_on_c, 1, 60, 127
2, 280, Note_off_c, 1, 40, 0
2, 280, Note_off_c, 1, 48, 0
2, 280, Note_off_c, 1, 56, 0
2, 280, Note_off_c, 1, 60, 0
2, 360, Note_on_c, 1, 57, 127
2, 360, Note_on_c, 1, 62, 127
2, 360, Note_on_c, 1, 65, 127
2, 360, Note_on_c, 1, 69, 127
2, 360, Note_on_c, 1, 88, 127
2, 720, Note_off_c, 1, 57, 0
2, 720, Note_on_c, 1, 59, 127
2, 720, Note_on_c, 1, 67, 127
2, 720, Note_off_c, 1, 69, 0
2, 720, Note_off_c, 1, 88, 0
2, 760, Note_on_c, 1, 50, 127
2, 760, Note_on_c, 1, 54, 127
2, 760, Note_off_c, 1, 59, 0
2, 760, Note_on_c, 1, 60, 127
2, 760, Note_off_c, 1, 62, 0
2, 760, Note_off_c, 1, 65, 0
2, 760, Note_off_c, 1, 67, 0
2, 760, Note_on_c, 1, 69, 127
2, 840, Note_off_c, 1, 69, 0
2, 840, Note_on_c, 1, 70, 127
2, 920, Note_on_c, 1, 69, 127
2, 920, Note_off_c, 1, 70, 0
2, 960, Note_off_c, 1, 69, 0
2, 960, Note_on_c, 1, 70, 127
2, 1080, Note_off_c, 1, 70, 0
2, 1120, Note_on_c, 1, 70, 127
2, 1200, Note_on_c, 1, 69, 127
2, 1200, Note_off_c, 1, 70, 0
2, 1240, Note_off_c, 1, 69, 0
2, 1240, Note_on_c, 1, 70, 127
2, 1280, Note_on_c, 1, 69, 127
2, 1280, Note_off_c, 1, 70, 0
2, 1320, Note_off_c, 1, 69, 0
2, 1320, Note_on_c, 1, 70, 127
2, 1440, Note_on_c, 1, 69, 127
2, 1440, Note_off_c, 1, 70, 0
2, 1480, Note_off_c, 1, 50, 0
2, 1480, Note_off_c, 1, 54, 0
2, 1480, Note_off_c, 1, 60, 0
2, 1480, Note_off_c, 1, 69, 0
2, 1520, Note_on_c, 1, 39, 127
2, 1520, Note_on_c, 1, 45, 127
2, 1520, Note_on_c, 1, 60, 127
2, 1520, Note_on_c, 1, 66, 127
2, 1520, Note_on_c, 1, 69, 127
2, 1760, Note_off_c, 1, 39, 0
2, 1760, Note_off_c, 1, 45, 0
2, 1800, Note_on_c, 1, 39, 127
2, 1800, Note_on_c, 1, 45, 127
2, 1880, Note_off_c, 1, 39, 0
2, 1880, Note_off_c, 1, 45, 0
2, 1920, Note_on_c, 1, 39, 127
2, 1920, Note_on_c, 1, 45, 127
2, 2080, Note_off_c, 1, 39, 0
2, 2080, Note_off_c, 1, 45, 0
2, 2120, Note_on_c, 1, 39, 127
2, 2120, Note_on_c, 1, 45, 127
2, 2240, Note_off_c, 1, 39, 0
2, 2240, Note_off_c, 1, 45, 0
2, 2280, Note_on_c, 1, 39, 127
2, 2280, Note_on_c, 1, 45, 127
2, 2440, Note_off_c, 1, 39, 0
2, 2440, Note_off_c, 1, 45, 0
2, 2440, Note_off_c, 1, 60, 0
2, 2440, Note_off_c, 1, 66, 0
2, 2440, Note_off_c, 1, 69, 0
2, 2480, Note_on_c, 1, 60, 127
2, 2480, Note_on_c, 1, 66, 127
2, 2480, Note_on_c, 1, 69, 127
2, 2520, Note_on_c, 1, 39, 127
2, 2520, Note_on_c, 1, 45, 127
2, 2640, Note_off_c, 1, 39, 0
2, 2640, Note_off_c, 1, 45, 0
2, 2680, Note_on_c, 1, 39, 127
2, 2680, Note_on_c, 1, 45, 127
2, 2840, Note_off_c, 1, 39, 0
2, 2840, Note_off_c, 1, 45, 0
2, 2880, Note_on_c, 1, 39, 127
2, 2880, Note_on_c, 1, 45, 127
2, 3000, Note_off_c, 1, 39, 0
2, 3000, Note_off_c, 1, 45, 0
2, 3040, Note_on_c, 1, 39, 127
2, 3040, Note_on_c, 1, 45, 127
2, 3200, Note_off_c, 1, 39, 0
2, 3200, Note_off_c, 1, 45, 0
2, 3240, Note_on_c, 1, 39, 127
2, 3240, Note_on_c, 1, 45, 127
2, 3360, Note_off_c, 1, 39, 0
2, 3360, Note_off_c, 1, 45, 0
2, 3400, Note_on_c, 1, 39, 127
2, 3400, Note_on_c, 1, 45, 127
2, 3560, Note_off_c, 1, 39, 0
2, 3560, Note_off_c, 1, 45, 0
2, 3600, Note_on_c, 1, 39, 127
2, 3600, Note_on_c, 1, 45, 127
2, 3720, Note_off_c, 1, 39, 0
2, 3720, Note_off_c, 1, 45, 0
2, 3760, Note_on_c, 1, 39, 127
2, 3760, Note_on_c, 1, 45, 127
2, 3920, Note_off_c, 1, 39, 0
2, 3920, Note_off_c, 1, 45, 0
2, 3960, Note_on_c, 1, 39, 127
2, 3960, Note_on_c, 1, 45, 127
2, 4080, Note_off_c, 1, 39, 0
2, 4080, Note_off_c, 1, 45, 0
2, 4120, Note_on_c, 1, 51, 127
2, 4120, Note_on_c, 1, 55, 127
2, 4120, Note_off_c, 1, 60, 0
2, 4120, Note_off_c, 1, 66, 0
2, 4120, Note_on_c, 1, 67, 127
2, 4120, Note_off_c, 1, 69, 0
2, 4120, Note_on_c, 1, 70, 127
2, 4120, Note_on_c, 1, 75, 127
2, 4280, Note_off_c, 1, 51, 0
2, 4280, Note_off_c, 1, 55, 0
2, 4280, Note_off_c, 1, 75, 0
2, 4480, Note_off_c, 1, 67, 0
2, 4480, Note_off_c, 1, 70, 0
2, 4560, Note_on_c, 1, 64, 127
2, 4560, Note_on_c, 1, 67, 127
2, 4560, Note_on_c, 1, 70, 127
2, 4560, Note_on_c, 1, 72, 127
2, 5240, Note_on_c, 1, 43, 127
2, 5240, Note_on_c, 1, 50, 127
2, 5240, Note_on_c, 1, 60, 127
2, 5240, Note_on_c, 1, 62, 127
2, 5240, Note_off_c, 1, 64, 0
2, 5240, Note_off_c, 1, 67, 0
2, 5240, Note_on_c, 1, 69, 127
2, 5240, Note_off_c, 1, 70, 0
2, 5240, Note_off_c, 1, 72, 0
2, 5560, Note_off_c, 1, 43, 0
2, 5560, Note_off_c, 1, 50, 0
2, 5560, Note_off_c, 1, 60, 0
2, 5560, Note_off_c, 1, 62, 0
2, 5560, Note_off_c, 1, 69, 0
2, 5640, Note_on_c, 1, 40, 127
2, 5640, Note_on_c, 1, 52, 127
2, 5640, Note_on_c, 1, 55, 127
2, 5640, Note_on_c, 1, 64, 127
2, 6720, Note_off_c, 1, 40, 0
2, 6720, Note_off_c, 1, 52, 0
2, 6720, Note_off_c, 1, 55, 0
2, 6720, Note_off_c, 1, 64, 0
2, 7560, Note_on_c, 1, 51, 127
2, 7560, Note_on_c, 1, 54, 127
2, 7560, Note_on_c, 1, 59, 127
2, 8280, Note_off_c, 1, 51, 0
2, 8280, Note_off_c, 1, 54, 0
2, 8280, Note_off_c, 1, 59, 0
2, 8320, Note_on_c, 1, 54, 127
2, 8320, Note_on_c, 1, 63, 127
2, 8320, Note_on_c, 1, 71, 127
2, 9000, Note_off_c, 1, 63, 0
2, 9040, Note_on_c, 1, 63, 127
2, 9400, Note_off_c, 1, 71, 0
2, 9440, Note_on_c, 1, 71, 127
2, 9760, Note_off_c, 1, 71, 0
2, 9800, Note_off_c, 1, 54, 0
2, 9800, Note_off_c, 1, 63, 0
2, 9840, Note_on_c, 1, 54, 127
2, 9840, Note_on_c, 1, 63, 127
2, 9840, Note_on_c, 1, 66, 127
2, 10560, Note_off_c, 1, 54, 0
2, 10560, Note_off_c, 1, 63, 0
2, 10560, Note_off_c, 1, 66, 0
2, 10600, Note_on_c, 1, 47, 127
2, 10600, Note_on_c, 1, 54, 127
2, 10600, Note_on_c, 1, 63, 127
2, 10600, Note_on_c, 1, 69, 127
2, 12160, Note_off_c, 1, 47, 0
2, 12160, Note_off_c, 1, 54, 0
2, 12160, Note_off_c, 1, 63, 0
2, 12160, Note_off_c, 1, 69, 0
2, 12200, Note_on_c, 1, 47, 127
2, 12200, Note_on_c, 1, 54, 127
2, 12200, Note_on_c, 1, 63, 127
2, 12200, Note_on_c, 1, 69, 127
2, 12480, Note_off_c, 1, 47, 0
2, 12480, Note_off_c, 1, 54, 0
2, 12480, Note_off_c, 1, 63, 0
2, 12480, Note_off_c, 1, 69, 0
2, 12560, Note_on_c, 1, 47, 127
2, 12560, Note_on_c, 1, 54, 127
2, 12560, Note_on_c, 1, 59, 127
2, 12560, Note_on_c, 1, 63, 127
2, 14240, Note_off_c, 1, 54, 0
2, 14240, Note_off_c, 1, 59, 0
2, 14240, Note_off_c, 1, 63, 0
2, 14280, Note_off_c, 1, 47, 0
2, 14320, Note_on_c, 1, 47, 127
2, 14320, Note_on_c, 1, 54, 127
2, 14320, Note_on_c, 1, 59, 127
2, 14320, Note_on_c, 1, 63, 127
2, 15240, Note_off_c, 1, 47, 0
2, 15240, Note_off_c, 1, 54, 0
2, 15240, Note_off_c, 1, 59, 0
2, 15240, Note_off_c, 1, 63, 0
2, 18240, Note_on_c, 1, 40, 127
2, 18240, Note_on_c, 1, 52, 127
2, 18240, Note_on_c, 1, 64, 127
2, 18600, Note_off_c, 1, 40, 0
2, 18600, Note_off_c, 1, 52, 0
2, 18600, Note_off_c, 1, 64, 0
2, 18640, Note_on_c, 1, 40, 127
2, 18640, Note_on_c, 1, 52, 127
2, 18640, Note_on_c, 1, 64, 127
2, 19760, Note_off_c, 1, 40, 0
2, 19760, Note_off_c, 1, 52, 0
2, 19760, Note_off_c, 1, 64, 0
2, 19840, Note_on_c, 1, 36, 127
2, 19840, Note_on_c, 1, 48, 127
2, 20960, Note_off_c, 1, 36, 0
2, 20960, Note_off_c, 1, 48, 0
2, 21000, Note_on_c, 1, 36, 127
2, 21000, Note_on_c, 1, 48, 127
2, 21000, Note_on_c, 1, 60, 127
2, 22560, Note_off_c, 1, 36, 0
2, 22560, Note_off_c, 1, 48, 0
2, 22560, Note_off_c, 1, 60, 0
2, 22640, Note_on_c, 1, 34, 127
2, 22640, Note_on_c, 1, 46, 127
2, 22640, Note_on_c, 1, 58, 127
2, 24600, Note_off_c, 1, 34, 0
2, 24600, Note_off_c, 1, 46, 0
2, 24600, Note_off_c, 1, 58, 0
2, 24680, Note_on_c, 1, 34, 127
2, 24680, Note_on_c, 1, 46, 127
2, 24680, Note_on_c, 1, 58, 127
2, 26680, Note_off_c, 1, 34, 0
2, 26680, Note_off_c, 1, 46, 0
2, 26680, Note_off_c, 1, 58, 0
2, 26720, Note_on_c, 1, 34, 127
2, 26720, Note_on_c, 1, 46, 127
2, 26720, Note_on_c, 1, 58, 127
2, 27080, Note_off_c, 1, 34, 0
2, 27080, Note_off_c, 1, 46, 0
2, 27080, Note_off_c, 1, 58, 0
2, 27120, Note_on_c, 1, 34, 127
2, 27120, Note_on_c, 1, 46, 127
2, 27120, Note_on_c, 1, 58, 127
2, 28280, Note_off_c, 1, 34, 0
2, 28280, Note_off_c, 1, 46, 0
2, 28280, Note_off_c, 1, 58, 0
2, 28320, Note_on_c, 1, 34, 127
2, 28320, Note_on_c, 1, 46, 127
2, 28320, Note_on_c, 1, 58, 127
2, 28920, Note_off_c, 1, 34, 0
2, 28920, Note_off_c, 1, 46, 0
2, 28920, Note_off_c, 1, 58, 0
2, 28960, Note_on_c, 1, 34, 127
2, 28960, Note_on_c, 1, 46, 127
2, 28960, Note_on_c, 1, 58, 127
2, 29520, Note_off_c, 1, 34, 0
2, 29520, Note_off_c, 1, 46, 0
2, 29520, Note_off_c, 1, 58, 0
2, 29560, Note_on_c, 1, 34, 127
2, 29560, Note_on_c, 1, 46, 127
2, 29560, Note_on_c, 1, 58, 127
2, 31120, Note_off_c, 1, 58, 0
2, 31120, Note_on_c, 1, 66, 127
2, 31120, Note_on_c, 1, 75, 127
2, 31160, Note_off_c, 1, 34, 0
2, 31160, Note_off_c, 1, 46, 0
2, 31160, Note_off_c, 1, 66, 0
2, 31160, Note_off_c, 1, 75, 0
2, 31200, Note_on_c, 1, 34, 127
2, 31200, Note_on_c, 1, 46, 127
2, 31200, Note_on_c, 1, 66, 127
2, 31200, Note_on_c, 1, 75, 127
2, 31560, Note_off_c, 1, 34, 0
2, 31560, Note_off_c, 1, 46, 0
2, 31560, Note_off_c, 1, 66, 0
2, 31560, Note_off_c, 1, 75, 0
2, 31600, Note_on_c, 1, 34, 127
2, 31600, Note_on_c, 1, 46, 127
2, 31600, Note_on_c, 1, 58, 127
2, 33200, Note_off_c, 1, 34, 0
2, 33200, Note_off_c, 1, 46, 0
2, 33200, Note_off_c, 1, 58, 0
2, 33240, Note_on_c, 1, 34, 127
2, 33240, Note_on_c, 1, 46, 127
2, 33240, Note_on_c, 1, 58, 127
2, 33600, Note_off_c, 1, 34, 0
2, 33600, Note_off_c, 1, 46, 0
2, 33600, Note_off_c, 1, 58, 0
2, 35640, Note_on_c, 1, 59, 127
2, 35880, Note_off_c, 1, 59, 0
2, 35920, Note_on_c, 1, 72, 127
2, 36240, Note_off_c, 1, 72, 0
2, 36280, Note_on_c, 1, 69, 127
2, 36520, Note_off_c, 1, 69, 0
2, 36560, Note_on_c, 1, 66, 127
2, 37080, Note_off_c, 1, 66, 0
2, 37120, Note_on_c, 1, 66, 127
2, 37400, Note_off_c, 1, 66, 0
2, 37440, Note_on_c, 1, 66, 127
2, 38640, Note_on_c, 1, 51, 127
2, 38800, Note_off_c, 1, 51, 0
2, 38840, Note_on_c, 1, 61, 127
2, 39000, Note_off_c, 1, 61, 0
2, 39040, Note_on_c, 1, 63, 127
2, 39040, Note_off_c, 1, 66, 0
2, 39400, Note_off_c, 1, 63, 0
2, 39440, Note_on_c, 1, 57, 127
2, 39440, Note_on_c, 1, 61, 127
2, 39440, Note_on_c, 1, 69, 127
2, 40000, Note_off_c, 1, 57, 0
2, 40000, Note_off_c, 1, 61, 0
2, 40000, Note_off_c, 1, 69, 0
2, 40040, Note_on_c, 1, 57, 127
2, 40040, Note_on_c, 1, 61, 127
2, 40040, Note_on_c, 1, 69, 127
2, 40440, Note_off_c, 1, 69, 0
2, 40480, Note_on_c, 1, 73, 127
2, 41040, Note_off_c, 1, 61, 0
2, 41040, Note_off_c, 1, 73, 0
2, 41080, Note_on_c, 1, 52, 127
2, 41080, Note_on_c, 1, 64, 127
2, 42440, Note_off_c, 1, 52, 0
2, 42440, Note_off_c, 1, 57, 0
2, 42440, Note_off_c, 1, 64, 0
2, 42480, Note_on_c, 1, 52, 127
2, 42480, Note_on_c, 1, 57, 127
2, 42480, Note_on_c, 1, 64, 127
2, 45000, Note_off_c, 1, 52, 0
2, 45000, Note_off_c, 1, 57, 0
2, 45000, Note_off_c, 1, 64, 0
2, 45040, Note_on_c, 1, 52, 127
2, 45040, Note_on_c, 1, 57, 127
2, 45040, Note_on_c, 1, 64, 127
2, 47640, Note_off_c, 1, 52, 0
2, 47640, Note_off_c, 1, 57, 0
2, 47640, Note_off_c, 1, 64, 0
2, 47680, Note_on_c, 1, 52, 127
2, 47680, Note_on_c, 1, 57, 127
2, 47680, Note_on_c, 1, 64, 127
2, 50920, Note_off_c, 1, 52, 0
2, 50920, Note_off_c, 1, 57, 0
2, 50920, Note_off_c, 1, 64, 0
2, 50960, Note_on_c, 1, 52, 127
2, 50960, Note_on_c, 1, 57, 127
2, 50960, Note_on_c, 1, 64, 127
2, 54200, Note_off_c, 1, 52, 0
2, 54200, Note_off_c, 1, 57, 0
2, 54200, Note_off_c, 1, 64, 0
2, 54240, Note_on_c, 1, 52, 127
2, 54240, Note_on_c, 1, 57, 127
2, 54240, Note_on_c, 1, 64, 127
2, 56760, Note_off_c, 1, 52, 0
2, 56760, Note_off_c, 1, 57, 0
2, 56760, Note_off_c, 1, 64, 0
2, 56800, Note_on_c, 1, 52, 127
2, 56800, Note_on_c, 1, 57, 127
2, 56800, Note_on_c, 1, 64, 127
2, 59240, Note_off_c, 1, 52, 0
2, 59240, Note_off_c, 1, 57, 0
2, 59240, Note_off_c, 1, 64, 0
2, 59280, Note_on_c, 1, 52, 127
2, 59280, Note_on_c, 1, 57, 127
2, 59280, Note_on_c, 1, 64, 127
2, 62000, Note_off_c, 1, 52, 0
2, 62000, Note_off_c, 1, 57, 0
2, 62000, Note_off_c, 1, 64, 0
2, 62040, Note_on_c, 1, 52, 127
2, 62040, Note_on_c, 1, 57, 127
2, 62040, Note_on_c, 1, 64, 127
2, 64960, Note_off_c, 1, 52, 0
2, 64960, Note_off_c, 1, 57, 0
2, 64960, Note_off_c, 1, 64, 0
2, 65000, Note_on_c, 1, 52, 127
2, 65000, Note_on_c, 1, 57, 127
2, 65000, Note_on_c, 1, 64, 127
2, 67200, Note_off_c, 1, 57, 0
2, 67200, Note_off_c, 1, 64, 0
2, 67240, Note_on_c, 1, 57, 127
2, 67240, Note_on_c, 1, 64, 127
2, 67840, Note_off_c, 1, 52, 0
2, 67840, Note_off_c, 1, 57, 0
2, 67840, Note_off_c, 1, 64, 0
2, 67880, Note_on_c, 1, 52, 127
2, 67880, Note_on_c, 1, 57, 127
2, 67880, Note_on_c, 1, 64, 127
2, 68240, Note_off_c, 1, 64, 0
2, 68280, Note_on_c, 1, 64, 127
2, 70200, Note_off_c, 1, 52, 0
2, 70200, Note_off_c, 1, 57, 0
2, 70200, Note_off_c, 1, 64, 0
2, 70280, Note_on_c, 1, 52, 127
2, 70280, Note_on_c, 1, 57, 127
2, 70280, Note_on_c, 1, 61, 127
2, 70280, Note_on_c, 1, 64, 127
2, 71600, Note_off_c, 1, 52, 0
2, 71600, Note_off_c, 1, 57, 0
2, 71600, Note_off_c, 1, 61, 0
2, 71600, Note_off_c, 1, 64, 0
2, 71640, Note_on_c, 1, 33, 127
2, 71640, Note_on_c, 1, 45, 127
2, 71640, Note_on_c, 1, 60, 127
2, 71640, Note_on_c, 1, 67, 127
2, 71640, Note_on_c, 1, 72, 127
2, 72320, Note_off_c, 1, 33, 0
2, 72320, Note_off_c, 1, 45, 0
2, 72320, Note_off_c, 1, 60, 0
2, 72320, Note_off_c, 1, 67, 0
2, 72320, Note_off_c, 1, 72, 0
2, 72360, Note_on_c, 1, 33, 127
2, 72360, Note_on_c, 1, 45, 127
2, 72360, Note_on_c, 1, 60, 127
2, 72360, Note_on_c, 1, 67, 127
2, 72360, Note_on_c, 1, 72, 127
2, 72440, Note_off_c, 1, 33, 0
2, 72440, Note_off_c, 1, 45, 0
2, 72440, Note_off_c, 1, 60, 0
2, 72440, Note_off_c, 1, 67, 0
2, 72440, Note_off_c, 1, 72, 0
2, 72480, Note_on_c, 1, 55, 127
2, 72480, Note_on_c, 1, 64, 127
2, 72480, Note_on_c, 1, 65, 127
2, 72840, Note_off_c, 1, 65, 0
2, 72880, Note_on_c, 1, 48, 127
2, 72880, Note_off_c, 1, 55, 0
2, 72880, Note_on_c, 1, 57, 127
2, 72880, Note_on_c, 1, 60, 127
2, 73240, Note_off_c, 1, 48, 0
2, 73240, Note_off_c, 1, 57, 0
2, 73240, Note_off_c, 1, 60, 0
2, 73240, Note_off_c, 1, 64, 0
2, 73280, Note_on_c, 1, 52, 127
2, 73280, Note_on_c, 1, 56, 127
2, 73280, Note_on_c, 1, 64, 127
2, 74040, Note_off_c, 1, 56, 0
2, 74040, Note_off_c, 1, 64, 0
2, 74080, Note_on_c, 1, 57, 127
2, 74080, Note_on_c, 1, 60, 127
2, 74440, Note_off_c, 1, 57, 0
2, 74440, Note_off_c, 1, 60, 0
2, 74480, Note_off_c, 1, 52, 0
2, 74520, Note_on_c, 1, 52, 127
2, 74520, Note_on_c, 1, 56, 127
2, 74520, Note_on_c, 1, 64, 127
2, 75280, Note_off_c, 1, 52, 0
2, 75280, Note_off_c, 1, 56, 0
2, 75280, Note_off_c, 1, 64, 0
2, 75320, Note_on_c, 1, 52, 127
2, 75680, Note_off_c, 1, 52, 0
2, 75720, Note_on_c, 1, 52, 127
2, 76480, Note_off_c, 1, 52, 0
2, 76520, Note_on_c, 1, 47, 127
2, 76720, Note_off_c, 1, 47, 0
2, 76760, Note_on_c, 1, 47, 127
2, 76880, Note_off_c, 1, 47, 0
2, 76920, Note_on_c, 1, 45, 127
2, 77280, Note_off_c, 1, 45, 0
2, 77320, Note_on_c, 1, 45, 127
2, 77680, Note_off_c, 1, 45, 0
2, 77720, Note_on_c, 1, 47, 127
2, 78080, Note_off_c, 1, 47, 0
2, 78120, Note_on_c, 1, 45, 127
2, 78480, Note_off_c, 1, 45, 0
2, 78520, Note_on_c, 1, 53, 127
2, 78880, Note_off_c, 1, 53, 0
2, 78960, Note_on_c, 1, 54, 127
2, 79320, Note_off_c, 1, 54, 0
2, 79360, Note_on_c, 1, 62, 127
2, 79720, Note_off_c, 1, 62, 0
2, 79760, Note_on_c, 1, 62, 127
2, 80120, Note_off_c, 1, 62, 0
2, 80160, Note_on_c, 1, 61, 127
2, 80520, Note_off_c, 1, 61, 0
2, 80560, Note_on_c, 1, 57, 127
2, 80920, Note_off_c, 1, 57, 0
2, 80960, Note_on_c, 1, 59, 127
2, 81040, Note_off_c, 1, 59, 0
2, 81080, Note_on_c, 1, 59, 127
2, 81360, Note_off_c, 1, 59, 0
2, 81400, Note_on_c, 1, 54, 127
2, 81760, Note_off_c, 1, 54, 0
2, 81800, Note_on_c, 1, 35, 127
2, 82160, Note_off_c, 1, 35, 0
2, 82200, Note_on_c, 1, 37, 127
2, 82520, Note_off_c, 1, 37, 0
2, 82560, Note_on_c, 1, 35, 127
2, 82560, Note_on_c, 1, 78, 127
2, 82920, Note_off_c, 1, 35, 0
2, 82960, Note_on_c, 1, 47, 127
2, 83280, Note_off_c, 1, 47, 0
2, 83280, Note_off_c, 1, 78, 0
2, 83320, Note_on_c, 1, 47, 127
2, 83320, Note_on_c, 1, 78, 127
2, 83360, Note_off_c, 1, 47, 0
2, 83400, Note_on_c, 1, 47, 127
2, 83760, Note_off_c, 1, 47, 0
2, 83760, Note_off_c, 1, 78, 0
2, 83800, Note_on_c, 1, 47, 127
2, 83800, Note_on_c, 1, 83, 127
2, 84120, Note_off_c, 1, 47, 0
2, 84160, Note_on_c, 1, 40, 127
2, 84520, Note_off_c, 1, 40, 0
2, 84520, Note_off_c, 1, 83, 0
2, 84560, Note_on_c, 1, 40, 127
2, 84560, Note_on_c, 1, 81, 127
2, 84920, Note_off_c, 1, 40, 0
2, 84920, Note_off_c, 1, 81, 0
2, 84960, Note_on_c, 1, 47, 127
2, 84960, Note_on_c, 1, 83, 127
2, 85320, Note_off_c, 1, 47, 0
2, 85360, Note_on_c, 1, 47, 127
2, 85640, Note_off_c, 1, 47, 0
2, 85640, Note_off_c, 1, 83, 0
2, 85680, Note_on_c, 1, 47, 127
2, 85680, Note_on_c, 1, 83, 127
2, 85760, Note_off_c, 1, 47, 0
2, 85800, Note_on_c, 1, 47, 127
2, 86120, Note_off_c, 1, 47, 0
2, 86120, Note_off_c, 1, 83, 0
2, 86160, Note_on_c, 1, 40, 127
2, 86520, Note_off_c, 1, 40, 0
2, 86560, Note_on_c, 1, 47, 127
2, 86920, Note_off_c, 1, 47, 0
2, 86960, Note_on_c, 1, 52, 127
2, 87280, Note_off_c, 1, 52, 0
2, 87320, Note_on_c, 1, 47, 127
2, 87680, Note_off_c, 1, 47, 0
2, 87720, Note_on_c, 1, 52, 127
2, 87920, Note_off_c, 1, 52, 0
2, 87960, Note_on_c, 1, 52, 127
2, 88080, Note_off_c, 1, 52, 0
2, 88120, Note_on_c, 1, 52, 127
2, 88480, Note_off_c, 1, 52, 0
2, 88520, Note_on_c, 1, 59, 127
2, 88840, Note_off_c, 1, 59, 0
2, 88880, Note_on_c, 1, 61, 127
2, 89240, Note_off_c, 1, 61, 0
2, 89280, Note_on_c, 1, 59, 127
2, 89640, Note_off_c, 1, 59, 0
2, 89680, Note_on_c, 1, 52, 127
2, 89960, Note_on_c, 1, 64, 127
2, 90000, Note_off_c, 1, 52, 0
2, 90000, Note_off_c, 1, 64, 0
2, 90080, Note_on_c, 1, 47, 127
2, 90440, Note_off_c, 1, 47, 0
2, 90480, Note_on_c, 1, 50, 127
2, 90840, Note_off_c, 1, 50, 0
2, 90880, Note_on_c, 1, 47, 127
2, 91200, Note_off_c, 1, 47, 0
2, 91240, Note_on_c, 1, 40, 127
2, 91600, Note_off_c, 1, 40, 0
2, 91640, Note_on_c, 1, 47, 127
2, 92000, Note_off_c, 1, 47, 0
2, 92040, Note_on_c, 1, 47, 127
2, 92360, Note_off_c, 1, 47, 0
2, 92400, Note_on_c, 1, 38, 127
2, 92560, Note_off_c, 1, 38, 0
2, 92600, Note_on_c, 1, 38, 127
2, 92800, Note_off_c, 1, 38, 0
2, 92840, Note_on_c, 1, 35, 127
2, 93160, Note_off_c, 1, 35, 0
2, 93200, Note_on_c, 1, 47, 127
2, 93560, Note_off_c, 1, 47, 0
2, 93600, Note_on_c, 1, 52, 127
2, 94320, Note_off_c, 1, 52, 0
2, 94360, Note_on_c, 1, 71, 127
2, 94720, Note_off_c, 1, 71, 0
2, 94760, Note_on_c, 1, 70, 127
2, 94960, Note_off_c, 1, 70, 0
2, 95000, Note_on_c, 1, 70, 127
2, 95520, Note_off_c, 1, 70, 0
2, 95560, Note_on_c, 1, 71, 127
2, 95920, Note_off_c, 1, 71, 0
2, 95960, Note_on_c, 1, 71, 127
2, 96320, Note_off_c, 1, 71, 0
2, 96360, Note_on_c, 1, 64, 127
2, 96720, Note_off_c, 1, 64, 0
2, 96760, Note_on_c, 1, 66, 127
2, 97080, Note_off_c, 1, 66, 0
2, 97120, Note_on_c, 1, 69, 127
2, 97120, Note_on_c, 1, 85, 127
2, 97240, Note_off_c, 1, 69, 0
2, 97240, Note_off_c, 1, 85, 0
2, 97280, Note_on_c, 1, 69, 127
2, 97280, Note_on_c, 1, 85, 127
2, 97520, Note_off_c, 1, 85, 0
2, 97560, Note_on_c, 1, 85, 127
2, 97880, Note_off_c, 1, 85, 0
2, 97920, Note_on_c, 1, 90, 127
2, 98280, Note_off_c, 1, 69, 0
2, 98280, Note_off_c, 1, 90, 0
2, 98320, Note_on_c, 1, 71, 127
2, 98320, Note_on_c, 1, 95, 127
2, 98680, Note_off_c, 1, 95, 0
2, 98720, Note_on_c, 1, 95, 127
2, 99080, Note_off_c, 1, 71, 0
2, 99080, Note_on_c, 1, 83, 127
2, 99080, Note_on_c, 1, 86, 127
2, 99080, Note_off_c, 1, 95, 0
2, 99120, Note_on_c, 1, 56, 127
2, 99120, Note_on_c, 1, 75, 127
2, 99120, Note_off_c, 1, 86, 0
2, 99320, Note_off_c, 1, 56, 0
2, 99320, Note_off_c, 1, 75, 0
2, 99320, Note_off_c, 1, 83, 0
2, 99360, Note_on_c, 1, 56, 127
2, 99360, Note_on_c, 1, 75, 127
2, 99360, Note_on_c, 1, 83, 127
2, 99680, Note_off_c, 1, 56, 0
2, 99680, Note_off_c, 1, 83, 0
2, 99720, Note_on_c, 1, 56, 127
2, 99720, Note_off_c, 1, 75, 0
2, 99720, Note_on_c, 1, 80, 127
2, 99720, Note_on_c, 1, 83, 127
2, 100080, Note_off_c, 1, 56, 0
2, 100120, Note_on_c, 1, 56, 127
2, 100440, Note_off_c, 1, 56, 0
2, 100840, Note_off_c, 1, 80, 0
2, 100840, Note_off_c, 1, 83, 0
2, 100880, Note_on_c, 1, 61, 127
2, 100880, Note_on_c, 1, 81, 127
2, 101240, Note_off_c, 1, 61, 0
2, 101240, Note_off_c, 1, 81, 0
2, 101280, Note_on_c, 1, 64, 127
2, 101280, Note_on_c, 1, 80, 127
2, 101640, Note_off_c, 1, 64, 0
2, 101640, Note_off_c, 1, 80, 0
2, 101720, Note_on_c, 1, 64, 127
2, 101720, Note_on_c, 1, 76, 127
2, 102040, Note_off_c, 1, 64, 0
2, 102080, Note_on_c, 1, 80, 127
2, 102440, Note_off_c, 1, 76, 0
2, 102440, Note_off_c, 1, 80, 0
2, 102480, Note_on_c, 1, 64, 127
2, 102480, Note_on_c, 1, 78, 127
2, 102840, Note_off_c, 1, 64, 0
2, 102840, Note_off_c, 1, 78, 0
2, 102880, Note_on_c, 1, 68, 127
2, 102880, Note_on_c, 1, 76, 127
2, 103240, Note_off_c, 1, 68, 0
2, 103280, Note_on_c, 1, 59, 127
2, 103640, Note_off_c, 1, 59, 0
2, 103640, Note_off_c, 1, 76, 0
2, 103720, Note_on_c, 1, 68, 127
2, 103720, Note_on_c, 1, 76, 127
2, 104040, Note_off_c, 1, 76, 0
2, 104080, Note_on_c, 1, 71, 127
2, 104440, Note_off_c, 1, 68, 0
2, 104440, Note_off_c, 1, 71, 0
2, 104480, Note_on_c, 1, 64, 127
2, 104480, Note_on_c, 1, 78, 127
2, 104840, Note_off_c, 1, 64, 0
2, 104840, Note_off_c, 1, 78, 0
2, 104880, Note_on_c, 1, 61, 127
2, 104880, Note_on_c, 1, 64, 127
2, 104880, Note_on_c, 1, 69, 127
2, 104880, Note_on_c, 1, 76, 127
2, 105240, Note_off_c, 1, 61, 0
2, 105240, Note_off_c, 1, 64, 0
2, 105240, Note_off_c, 1, 69, 0
2, 105240, Note_off_c, 1, 76, 0
2, 105280, Note_on_c, 1, 59, 127
2, 105280, Note_on_c, 1, 63, 127
2, 105280, Note_on_c, 1, 69, 127
2, 105280, Note_on_c, 1, 71, 127
2, 105680, Note_off_c, 1, 59, 0
2, 105680, Note_off_c, 1, 63, 0
2, 105680, Note_off_c, 1, 69, 0
2, 105680, Note_off_c, 1, 71, 0
2, 105720, Note_on_c, 1, 59, 127
2, 105720, Note_on_c, 1, 63, 127
2, 105720, Note_on_c, 1, 69, 127
2, 105720, Note_on_c, 1, 71, 127
2, 106000, Note_off_c, 1, 71, 0
2, 106000, Note_on_c, 1, 75, 127
2, 106040, Note_on_c, 1, 71, 127
2, 106040, Note_off_c, 1, 75, 0
2, 106440, Note_off_c, 1, 59, 0
2, 106440, Note_off_c, 1, 63, 0
2, 106440, Note_off_c, 1, 69, 0
2, 106440, Note_off_c, 1, 71, 0
2, 106480, Note_on_c, 1, 66, 127
2, 106480, Note_on_c, 1, 69, 127
2, 107200, Note_off_c, 1, 66, 0
2, 107200, Note_off_c, 1, 69, 0
2, 107240, Note_on_c, 1, 68, 127
2, 107240, Note_on_c, 1, 71, 127
2, 107960, Note_on_c, 1, 80, 127
2, 108000, Note_off_c, 1, 80, 0
2, 108040, Note_off_c, 1, 68, 0
2, 108040, Note_off_c, 1, 71, 0
2, 108080, Note_on_c, 1, 68, 127
2, 108080, Note_on_c, 1, 71, 127
2, 108080, Note_on_c, 1, 80, 127
2, 108800, Note_off_c, 1, 80, 0
2, 108840, Note_on_c, 1, 60, 127
2, 108840, Note_off_c, 1, 68, 0
2, 108840, Note_on_c, 1, 70, 127
2, 108840, Note_off_c, 1, 71, 0
2, 108840, Note_on_c, 1, 73, 127
2, 108840, Note_on_c, 1, 76, 127
2, 109160, Note_off_c, 1, 60, 0
2, 109200, Note_on_c, 1, 63, 127
2, 109200, Note_off_c, 1, 70, 0
2, 109200, Note_on_c, 1, 71, 127
2, 109200, Note_off_c, 1, 73, 0
2, 109200, Note_on_c, 1, 74, 127
2, 109200, Note_off_c, 1, 76, 0
2, 109360, Note_off_c, 1, 63, 0
2, 109360, Note_off_c, 1, 71, 0
2, 109360, Note_on_c, 1, 72, 127
2, 109360, Note_off_c, 1, 74, 0
2, 109360, Note_on_c, 1, 75, 127
2, 109400, Note_on_c, 1, 63, 127
2, 109560, Note_off_c, 1, 63, 0
2, 109560, Note_off_c, 1, 72, 0
2, 109560, Note_off_c, 1, 75, 0
2, 109600, Note_on_c, 1, 70, 127
2, 109600, Note_on_c, 1, 73, 127
2, 110160, Note_off_c, 1, 70, 0
2, 110160, Note_off_c, 1, 73, 0
2, 110240, Note_on_c, 1, 70, 127
2, 110240, Note_on_c, 1, 73, 127
2, 110960, Note_off_c, 1, 70, 0
2, 110960, Note_off_c, 1, 73, 0
2, 111000, Note_on_c, 1, 68, 127
2, 111000, Note_on_c, 1, 71, 127
2, 111760, Note_off_c, 1, 68, 0
2, 111800, Note_on_c, 1, 54, 127
2, 111800, Note_on_c, 1, 64, 127
2, 111800, Note_on_c, 1, 66, 127
2, 111800, Note_off_c, 1, 71, 0
2, 112160, Note_off_c, 1, 54, 0
2, 112160, Note_off_c, 1, 64, 0
2, 112160, Note_off_c, 1, 66, 0
2, 112160, Note_on_c, 1, 71, 127
2, 112200, Note_on_c, 1, 63, 127
2, 112400, Note_off_c, 1, 63, 0
2, 112400, Note_off_c, 1, 71, 0
2, 112440, Note_on_c, 1, 63, 127
2, 112440, Note_on_c, 1, 71, 127
2, 112560, Note_off_c, 1, 63, 0
2, 112600, Note_on_c, 1, 66, 127
2, 112960, Note_off_c, 1, 66, 0
2, 112960, Note_off_c, 1, 71, 0
2, 113000, Note_on_c, 1, 67, 127
2, 113000, Note_on_c, 1, 71, 127
2, 114520, Note_off_c, 1, 67, 0
2, 114520, Note_off_c, 1, 71, 0
2, 114600, Note_on_c, 1, 58, 127
2, 114600, Note_on_c, 1, 61, 127
2, 115320, Note_off_c, 1, 58, 0
2, 115320, Note_off_c, 1, 61, 0
2, 115360, Note_on_c, 1, 71, 127
2, 115720, Note_off_c, 1, 71, 0
2, 115760, Note_on_c, 1, 65, 127
2, 116120, Note_off_c, 1, 65, 0
2, 116160, Note_on_c, 1, 66, 127
2, 116920, Note_off_c, 1, 66, 0
2, 116960, Note_on_c, 1, 66, 127
2, 117320, Note_off_c, 1, 66, 0
2, 117360, Note_on_c, 1, 63, 127
2, 117720, Note_off_c, 1, 63, 0
2, 117760, Note_on_c, 1, 61, 127
2, 118480, Note_off_c, 1, 61, 0
2, 118520, Note_on_c, 1, 54, 127
2, 118880, Note_off_c, 1, 54, 0
2, 118920, Note_on_c, 1, 59, 127
2, 119280, Note_off_c, 1, 59, 0
2, 119360, Note_on_c, 1, 59, 127
2, 119680, Note_off_c, 1, 59, 0
2, 119720, Note_on_c, 1, 54, 127
2, 120000, Note_off_c, 1, 54, 0
2, 120040, End_track
3, 0, Start_track
3, 0, Title_t, "MIDI"
3, 1536, End_track
0, 0, End_of_file
