0, 0, Header, 1, 3, 192
1, 0, Start_track
1, 0, Time_signature, 4, 2, 24, 8
1, 0, Tempo, 500000
1, 120040, End_track
2, 0, Start_track
2, 0, Text_t, "random instrument: random person i dunno whatev"
2, 0, Title_t, "Track 1"
2, 0, Note_on_c, 1, 40, 127
2, 0, Note_on_c, 1, 48, 127
2, 0, Note_on_c, 1, 56, 127
2, 0, Note_on_c, 1, 60, 127
2, 40, Note_off_c, 1, 40, 0
2, 40, Note_on_c, 1, 42, 127
2, 40, Note_off_c, 1, 48, 0
2, 40, Note_on_c, 1, 49, 127
2, 40, Note_on_c, 1, 54, 127
2, 40, Note_off_c, 1, 56, 0
2, 40, Note_off_c, 1, 60, 0
2, 40, Note_on_c, 1, 82, 127
2, 40, Note_on_c, 1, 88, 127
2, 40, Note_on_c, 1, 94, 127
2, 80, Note_off_c, 1, 42, 0
2, 80, Note_off_c, 1, 49, 0
2, 80, Note_on_c, 1, 52, 127
2, 80, Note_off_c, 1, 54, 0
2, 80, Note_on_c, 1, 57, 127
2, 80, Note_on_c, 1, 61, 127
2, 80, Note_on_c, 1, 64, 127
2, 80, Note_on_c, 1, 69, 127
2, 80, Note_on_c, 1, 73, 127
2, 80, Note_on_c, 1, 78, 127
2, 80, Note_off_c, 1, 82, 0
2, 80, Note_off_c, 1, 88, 0
2, 80, Note_off_c, 1, 94, 0
2, 120, Note_off_c, 1, 52, 0
2, 120, Note_off_c, 1, 57, 0
2, 120, Note_off_c, 1, 61, 0
2, 120, Note_off_c, 1, 64, 0
2, 120, Note_off_c, 1, 69, 0
2, 120, Note_off_c, 1, 73, 0
2, 120, Note_off_c, 1, 78, 0
2, 1280, Note_on_c, 1, 38, 127
2, 1280, Note_on_c, 1, 54, 127
2, 1280, Note_on_c, 1, 62, 127
2, 1520, Note_off_c, 1, 38, 0
2, 1520, Note_on_c, 1, 39, 127
2, 1520, Note_on_c, 1, 45, 127
2, 1520, Note_off_c, 1, 54, 0
2, 1520, Note_on_c, 1, 60, 127
2, 1520, Note_off_c, 1, 62, 0
2, 1520, Note_on_c, 1, 66, 127
2, 1520, Note_on_c, 1, 69, 127
2, 1560, Note_on_c, 1, 37, 127
2, 1560, Note_off_c, 1, 39, 0
2, 1560, Note_off_c, 1, 45, 0
2, 1560, Note_off_c, 1, 60, 0
2, 1560, Note_on_c, 1, 64, 127
2, 1560, Note_off_c, 1, 66, 0
2, 1560, Note_on_c, 1, 67, 127
2, 1560, Note_off_c, 1, 69, 0
2, 1560, Note_on_c, 1, 73, 127
2, 1720, Note_off_c, 1, 64, 0
2, 1720, Note_off_c, 1, 67, 0
2, 1720, Note_off_c, 1, 73, 0
2, 1840, Note_off_c, 1, 37, 0
2, 1840, Note_on_c, 1, 42, 127
2, 1840, Note_on_c, 1, 46, 127
2, 1840, Note_on_c, 1, 49, 127
2, 1840, Note_on_c, 1, 52, 127
2, 1840, Note_on_c, 1, 88, 127
2, 1880, Note_on_c, 1, 34, 127
2, 1880, Note_off_c, 1, 42, 0
2, 1880, Note_off_c, 1, 46, 0
2, 1880, Note_off_c, 1, 49, 0
2, 1880, Note_off_c, 1, 52, 0
2, 1880, Note_on_c, 1, 81, 127
2, 1880, Note_on_c, 1, 82, 127
2, 1880, Note_off_c, 1, 88, 0
2, 1920, Note_off_c, 1, 34, 0
2, 1920, Note_on_c, 1, 38, 127
2, 1920, Note_on_c, 1, 45, 127
2, 1920, Note_on_c, 1, 52, 127
2, 1920, Note_on_c, 1, 55, 127
2, 1920, Note_on_c, 1, 59, 127
2, 1920, Note_off_c, 1, 81, 0
2, 1920, Note_off_c, 1, 82, 0
2, 1960, Note_on_c, 1, 32, 127
2, 1960, Note_off_c, 1, 38, 0
2, 1960, Note_off_c, 1, 45, 0
2, 1960, Note_on_c, 1, 48, 127
2, 1960, Note_off_c, 1, 52, 0
2, 1960, Note_off_c, 1, 55, 0
2, 1960, Note_off_c, 1, 59, 0
2, 1960, Note_on_c, 1, 60, 127
2, 1960, Note_on_c, 1, 68, 127
2, 2000, Note_off_c, 1, 32, 0
2, 2000, Note_off_c, 1, 48, 0
2, 2000, Note_off_c, 1, 60, 0
2, 2000, Note_off_c, 1, 68, 0
2, 2240, Note_on_c, 1, 56, 127
2, 2240, Note_on_c, 1, 68, 127
2, 2240, Note_on_c, 1, 73, 127
2, 2240, Note_on_c, 1, 76, 127
2, 2240, Note_on_c, 1, 80, 127
2, 2240, Note_on_c, 1, 85, 127
2, 2280, Note_off_c, 1, 56, 0
2, 2280, Note_on_c, 1, 60, 127
2, 2280, Note_off_c, 1, 73, 0
2, 2280, Note_off_c, 1, 76, 0
2, 2280, Note_off_c, 1, 85, 0
2, 2280, Note_on_c, 1, 87, 127
2, 2320, Note_off_c, 1, 60, 0
2, 2320, Note_on_c, 1, 64, 127
2, 2320, Note_on_c, 1, 67, 127
2, 2320, Note_off_c, 1, 68, 0
2, 2320, Note_on_c, 1, 71, 127
2, 2320, Note_on_c, 1, 79, 127
2, 2320, Note_off_c, 1, 80, 0
2, 2320, Note_on_c, 1, 83, 127
2, 2320, Note_off_c, 1, 87, 0
2, 2320, Note_on_c, 1, 88, 127
2, 2360, Note_on_c, 1, 60, 127
2, 2360, Note_off_c, 1, 64, 0
2, 2360, Note_off_c, 1, 67, 0
2, 2360, Note_on_c, 1, 68, 127
2, 2360, Note_off_c, 1, 71, 0
2, 2360, Note_off_c, 1, 79, 0
2, 2360, Note_on_c, 1, 80, 127
2, 2360, Note_off_c, 1, 83, 0
2, 2360, Note_on_c, 1, 87, 127
2, 2360, Note_off_c, 1, 88, 0
2, 2440, Note_on_c, 1, 52, 127
2, 2440, Note_off_c, 1, 60, 0
2, 2440, Note_on_c, 1, 62, 127
2, 2440, Note_on_c, 1, 64, 127
2, 2440, Note_on_c, 1, 74, 127
2, 2440, Note_off_c, 1, 80, 0
2, 2440, Note_off_c, 1, 87, 0
2, 2480, Note_on_c, 1, 31, 127
2, 2480, Note_on_c, 1, 47, 127
2, 2480, Note_on_c, 1, 50, 127
2, 2480, Note_off_c, 1, 52, 0
2, 2480, Note_off_c, 1, 62, 0
2, 2480, Note_off_c, 1, 64, 0
2, 2480, Note_on_c, 1, 67, 127
2, 2480, Note_off_c, 1, 68, 0
2, 2480, Note_off_c, 1, 74, 0
2, 2520, Note_off_c, 1, 31, 0
2, 2520, Note_on_c, 1, 35, 127
2, 2520, Note_on_c, 1, 42, 127
2, 2520, Note_off_c, 1, 47, 0
2, 2520, Note_off_c, 1, 50, 0
2, 2520, Note_on_c, 1, 54, 127
2, 2520, Note_off_c, 1, 67, 0
2, 2520, Note_on_c, 1, 74, 127
2, 2520, Note_on_c, 1, 77, 127
2, 2520, Note_on_c, 1, 83, 127
2, 2560, Note_off_c, 1, 35, 0
2, 2560, Note_off_c, 1, 42, 0
2, 2560, Note_off_c, 1, 54, 0
2, 2560, Note_on_c, 1, 65, 127
2, 2560, Note_off_c, 1, 74, 0
2, 2560, Note_on_c, 1, 75, 127
2, 2560, Note_off_c, 1, 77, 0
2, 2560, Note_on_c, 1, 78, 127
2, 2560, Note_on_c, 1, 82, 127
2, 2560, Note_off_c, 1, 83, 0
2, 2560, Note_on_c, 1, 87, 127
2, 2600, Note_on_c, 1, 41, 127
2, 2600, Note_on_c, 1, 45, 127
2, 2600, Note_on_c, 1, 50, 127
2, 2600, Note_on_c, 1, 53, 127
2, 2600, Note_off_c, 1, 65, 0
2, 2600, Note_off_c, 1, 75, 0
2, 2600, Note_off_c, 1, 78, 0
2, 2600, Note_off_c, 1, 82, 0
2, 2600, Note_on_c, 1, 86, 127
2, 2600, Note_off_c, 1, 87, 0
2, 2640, Note_off_c, 1, 41, 0
2, 2640, Note_off_c, 1, 45, 0
2, 2640, Note_off_c, 1, 50, 0
2, 2640, Note_off_c, 1, 53, 0
2, 2640, Note_on_c, 1, 59, 127
2, 2640, Note_on_c, 1, 68, 127
2, 2640, Note_on_c, 1, 71, 127
2, 2640, Note_on_c, 1, 83, 127
2, 2640, Note_off_c, 1, 86, 0
2, 2640, Note_on_c, 1, 88, 127
2, 2680, Note_on_c, 1, 31, 127
2, 2680, Note_on_c, 1, 47, 127
2, 2680, Note_off_c, 1, 59, 0
2, 2680, Note_on_c, 1, 65, 127
2, 2680, Note_on_c, 1, 67, 127
2, 2680, Note_off_c, 1, 68, 0
2, 2680, Note_off_c, 1, 71, 0
2, 2680, Note_off_c, 1, 83, 0
2, 2680, Note_off_c, 1, 88, 0
2, 2720, Note_off_c, 1, 31, 0
2, 2720, Note_off_c, 1, 47, 0
2, 2720, Note_on_c, 1, 50, 127
2, 2720, Note_on_c, 1, 56, 127
2, 2720, Note_on_c, 1, 58, 127
2, 2720, Note_off_c, 1, 65, 0
2, 2720, Note_off_c, 1, 67, 0
2, 2720, Note_on_c, 1, 82, 127
2, 2720, Note_on_c, 1, 85, 127
2, 2720, Note_on_c, 1, 94, 127
2, 2760, Note_on_c, 1, 42, 127
2, 2760, Note_on_c, 1, 48, 127
2, 2760, Note_off_c, 1, 50, 0
2, 2760, Note_on_c, 1, 51, 127
2, 2760, Note_off_c, 1, 56, 0
2, 2760, Note_off_c, 1, 58, 0
2, 2760, Note_on_c, 1, 69, 127
2, 2760, Note_off_c, 1, 82, 0
2, 2760, Note_off_c, 1, 85, 0
2, 2760, Note_off_c, 1, 94, 0
2, 2800, Note_on_c, 1, 37, 127
2, 2800, Note_on_c, 1, 41, 127
2, 2800, Note_off_c, 1, 42, 0
2, 2800, Note_off_c, 1, 48, 0
2, 2800, Note_off_c, 1, 51, 0
2, 2800, Note_off_c, 1, 69, 0
2, 2800, Note_on_c, 1, 89, 127
2, 2800, Note_on_c, 1, 97, 127
2, 2800, Note_on_c, 1, 101, 127
2, 2840, Note_on_c, 1, 31, 127
2, 2840, Note_off_c, 1, 37, 0
2, 2840, Note_off_c, 1, 41, 0
2, 2840, Note_on_c, 1, 47, 127
2, 2840, Note_on_c, 1, 60, 127
2, 2840, Note_on_c, 1, 67, 127
2, 2840, Note_off_c, 1, 89, 0
2, 2840, Note_off_c, 1, 97, 0
2, 2840, Note_off_c, 1, 101, 0
2, 2880, Note_off_c, 1, 31, 0
2, 2880, Note_off_c, 1, 47, 0
2, 2880, Note_off_c, 1, 60, 0
2, 2880, Note_on_c, 1, 65, 127
2, 2880, Note_off_c, 1, 67, 0
2, 2880, Note_on_c, 1, 74, 127
2, 2880, Note_on_c, 1, 86, 127
2, 2880, Note_on_c, 1, 89, 127
2, 2920, Note_on_c, 1, 45, 127
2, 2920, Note_on_c, 1, 57, 127
2, 2920, Note_off_c, 1, 65, 0
2, 2920, Note_off_c, 1, 74, 0
2, 2920, Note_off_c, 1, 86, 0
2, 2920, Note_off_c, 1, 89, 0
2, 2920, Note_on_c, 1, 102, 127
2, 2960, Note_off_c, 1, 45, 0
2, 2960, Note_on_c, 1, 46, 127
2, 2960, Note_on_c, 1, 49, 127
2, 2960, Note_on_c, 1, 52, 127
2, 2960, Note_on_c, 1, 55, 127
2, 2960, Note_off_c, 1, 57, 0
2, 2960, Note_on_c, 1, 58, 127
2, 2960, Note_on_c, 1, 61, 127
2, 2960, Note_on_c, 1, 64, 127
2, 2960, Note_on_c, 1, 67, 127
2, 2960, Note_off_c, 1, 102, 0
2, 3000, Note_off_c, 1, 46, 0
2, 3000, Note_off_c, 1, 49, 0
2, 3000, Note_off_c, 1, 52, 0
2, 3000, Note_off_c, 1, 55, 0
2, 3000, Note_off_c, 1, 58, 0
2, 3000, Note_off_c, 1, 61, 0
2, 3000, Note_off_c, 1, 64, 0
2, 3000, Note_off_c, 1, 67, 0
2, 3320, Note_on_c, 1, 26, 127
2, 3320, Note_on_c, 1, 38, 127
2, 4920, Note_off_c, 1, 26, 0
2, 4920, Note_off_c, 1, 38, 0
2, 4960, Note_on_c, 1, 38, 127
2, 4960, Note_on_c, 1, 45, 127
2, 4960, Note_on_c, 1, 50, 127
2, 4960, Note_on_c, 1, 74, 127
2, 4960, Note_on_c, 1, 81, 127
2, 4960, Note_on_c, 1, 86, 127
2, 5000, Note_off_c, 1, 38, 0
2, 5000, Note_off_c, 1, 45, 0
2, 5000, Note_off_c, 1, 50, 0
2, 5000, Note_off_c, 1, 74, 0
2, 5000, Note_off_c, 1, 81, 0
2, 5000, Note_off_c, 1, 86, 0
2, 5120, Note_on_c, 1, 50, 127
2, 5120, Note_on_c, 1, 54, 127
2, 5120, Note_on_c, 1, 57, 127
2, 5120, Note_on_c, 1, 62, 127
2, 5120, Note_on_c, 1, 66, 127
2, 5120, Note_on_c, 1, 69, 127
2, 5120, Note_on_c, 1, 74, 127
2, 5400, Note_off_c, 1, 50, 0
2, 5400, Note_off_c, 1, 54, 0
2, 5400, Note_off_c, 1, 57, 0
2, 5400, Note_off_c, 1, 62, 0
2, 5400, Note_off_c, 1, 66, 0
2, 5400, Note_off_c, 1, 69, 0
2, 5400, Note_off_c, 1, 74, 0
2, 5840, Note_on_c, 1, 50, 127
2, 5840, Note_on_c, 1, 53, 127
2, 5840, Note_on_c, 1, 71, 127
2, 5840, Note_on_c, 1, 80, 127
2, 6200, Note_on_c, 1, 42, 127
2, 6200, Note_off_c, 1, 50, 0
2, 6200, Note_on_c, 1, 52, 127
2, 6200, Note_off_c, 1, 53, 0
2, 6200, Note_on_c, 1, 59, 127
2, 6200, Note_on_c, 1, 64, 127
2, 6200, Note_off_c, 1, 71, 0
2, 6200, Note_off_c, 1, 80, 0
2, 6240, Note_off_c, 1, 42, 0
2, 6240, Note_on_c, 1, 50, 127
2, 6240, Note_off_c, 1, 52, 0
2, 6240, Note_on_c, 1, 53, 127
2, 6240, Note_off_c, 1, 59, 0
2, 6240, Note_off_c, 1, 64, 0
2, 6240, Note_on_c, 1, 71, 127
2, 6240, Note_on_c, 1, 80, 127
2, 6520, Note_off_c, 1, 50, 0
2, 6520, Note_off_c, 1, 53, 0
2, 6520, Note_off_c, 1, 71, 0
2, 6520, Note_off_c, 1, 80, 0
2, 6560, Note_on_c, 1, 51, 127
2, 6560, Note_on_c, 1, 55, 127
2, 6560, Note_on_c, 1, 63, 127
2, 6560, Note_on_c, 1, 75, 127
2, 6560, Note_on_c, 1, 87, 127
2, 7200, Note_off_c, 1, 51, 0
2, 7200, Note_off_c, 1, 55, 0
2, 7200, Note_off_c, 1, 63, 0
2, 7200, Note_off_c, 1, 75, 0
2, 7200, Note_off_c, 1, 87, 0
2, 7240, Note_on_c, 1, 56, 127
2, 7240, Note_on_c, 1, 63, 127
2, 7240, Note_on_c, 1, 78, 127
2, 7240, Note_on_c, 1, 84, 127
2, 7280, Note_on_c, 1, 50, 127
2, 7280, Note_off_c, 1, 56, 0
2, 7280, Note_on_c, 1, 57, 127
2, 7280, Note_on_c, 1, 61, 127
2, 7280, Note_off_c, 1, 63, 0
2, 7280, Note_on_c, 1, 67, 127
2, 7280, Note_on_c, 1, 69, 127
2, 7280, Note_off_c, 1, 78, 0
2, 7280, Note_off_c, 1, 84, 0
2, 7520, Note_off_c, 1, 50, 0
2, 7520, Note_off_c, 1, 57, 0
2, 7520, Note_off_c, 1, 61, 0
2, 7520, Note_off_c, 1, 67, 0
2, 7560, Note_on_c, 1, 44, 127
2, 7560, Note_on_c, 1, 55, 127
2, 7560, Note_on_c, 1, 61, 127
2, 7560, Note_on_c, 1, 67, 127
2, 7560, Note_off_c, 1, 69, 0
2, 7560, Note_on_c, 1, 70, 127
2, 7560, Note_on_c, 1, 73, 127
2, 8080, Note_off_c, 1, 44, 0
2, 8080, Note_off_c, 1, 55, 0
2, 8080, Note_off_c, 1, 61, 0
2, 8080, Note_off_c, 1, 67, 0
2, 8080, Note_off_c, 1, 70, 0
2, 8080, Note_off_c, 1, 73, 0
2, 8120, Note_on_c, 1, 44, 127
2, 8120, Note_on_c, 1, 55, 127
2, 8120, Note_on_c, 1, 61, 127
2, 8120, Note_on_c, 1, 67, 127
2, 8120, Note_on_c, 1, 70, 127
2, 8120, Note_on_c, 1, 73, 127
2, 8520, Note_off_c, 1, 44, 0
2, 8520, Note_off_c, 1, 61, 0
2, 8520, Note_off_c, 1, 73, 0
2, 8560, Note_off_c, 1, 70, 0
2, 9040, Note_off_c, 1, 55, 0
2, 9040, Note_off_c, 1, 67, 0
2, 9080, Note_on_c, 1, 64, 127
2, 9080, Note_on_c, 1, 67, 127
2, 9080, Note_on_c, 1, 71, 127
2, 9080, Note_on_c, 1, 91, 127
2, 9440, Note_off_c, 1, 64, 0
2, 9440, Note_off_c, 1, 67, 0
2, 9440, Note_off_c, 1, 71, 0
2, 9440, Note_off_c, 1, 91, 0
2, 9480, Note_on_c, 1, 60, 127
2, 9480, Note_on_c, 1, 64, 127
2, 9480, Note_on_c, 1, 84, 127
2, 9480, Note_on_c, 1, 88, 127
2, 9880, Note_off_c, 1, 60, 0
2, 9880, Note_off_c, 1, 64, 0
2, 9880, Note_off_c, 1, 84, 0
2, 9880, Note_off_c, 1, 88, 0
2, 9920, Note_on_c, 1, 62, 127
2, 9920, Note_on_c, 1, 64, 127
2, 9920, Note_on_c, 1, 90, 127
2, 10320, Note_off_c, 1, 62, 0
2, 10320, Note_off_c, 1, 64, 0
2, 10320, Note_off_c, 1, 90, 0
2, 10360, Note_on_c, 1, 62, 127
2, 10360, Note_on_c, 1, 64, 127
2, 10360, Note_on_c, 1, 90, 127
2, 10520, Note_on_c, 1, 83, 127
2, 10520, Note_off_c, 1, 90, 0
2, 10720, Note_off_c, 1, 62, 0
2, 10720, Note_off_c, 1, 64, 0
2, 10720, Note_off_c, 1, 83, 0
2, 10760, Note_on_c, 1, 60, 127
2, 10760, Note_on_c, 1, 67, 127
2, 10760, Note_on_c, 1, 70, 127
2, 10760, Note_on_c, 1, 82, 127
2, 10800, Note_off_c, 1, 82, 0
2, 10800, Note_on_c, 1, 84, 127
2, 10840, Note_off_c, 1, 84, 0
2, 10880, Note_on_c, 1, 76, 127
2, 10920, Note_off_c, 1, 76, 0
2, 10960, Note_on_c, 1, 76, 127
2, 11000, Note_off_c, 1, 76, 0
2, 11040, Note_on_c, 1, 76, 127
2, 11120, Note_off_c, 1, 76, 0
2, 11160, Note_on_c, 1, 76, 127
2, 11520, Note_off_c, 1, 76, 0
2, 11560, Note_on_c, 1, 77, 127
2, 11920, Note_off_c, 1, 60, 0
2, 11920, Note_off_c, 1, 67, 0
2, 11920, Note_off_c, 1, 70, 0
2, 11960, Note_on_c, 1, 59, 127
2, 11960, Note_on_c, 1, 65, 127
2, 11960, Note_on_c, 1, 67, 127
2, 11960, Note_off_c, 1, 77, 0
2, 12000, Note_off_c, 1, 59, 0
2, 12000, Note_on_c, 1, 60, 127
2, 12000, Note_off_c, 1, 67, 0
2, 12000, Note_on_c, 1, 75, 127
2, 12040, Note_on_c, 1, 59, 127
2, 12040, Note_off_c, 1, 60, 0
2, 12040, Note_on_c, 1, 67, 127
2, 12040, Note_off_c, 1, 75, 0
2, 12240, Note_off_c, 1, 59, 0
2, 12240, Note_off_c, 1, 65, 0
2, 12240, Note_off_c, 1, 67, 0
2, 12280, Note_on_c, 1, 49, 127
2, 12280, Note_on_c, 1, 59, 127
2, 12280, Note_on_c, 1, 67, 127
2, 12280, Note_on_c, 1, 71, 127
2, 12320, Note_off_c, 1, 49, 0
2, 12320, Note_off_c, 1, 59, 0
2, 12320, Note_off_c, 1, 67, 0
2, 12320, Note_off_c, 1, 71, 0
2, 12360, Note_on_c, 1, 41, 127
2, 12360, Note_on_c, 1, 50, 127
2, 12360, Note_on_c, 1, 55, 127
2, 12360, Note_on_c, 1, 59, 127
2, 12520, Note_off_c, 1, 41, 0
2, 12520, Note_off_c, 1, 50, 0
2, 12520, Note_off_c, 1, 55, 0
2, 12520, Note_off_c, 1, 59, 0
2, 12560, Note_on_c, 1, 41, 127
2, 12560, Note_on_c, 1, 50, 127
2, 12560, Note_on_c, 1, 55, 127
2, 12560, Note_on_c, 1, 59, 127
2, 12760, Note_off_c, 1, 41, 0
2, 12760, Note_off_c, 1, 50, 0
2, 12760, Note_off_c, 1, 55, 0
2, 12760, Note_off_c, 1, 59, 0
2, 12760, Note_on_c, 1, 62, 127
2, 12800, Note_on_c, 1, 64, 127
2, 12800, Note_on_c, 1, 68, 127
2, 12800, Note_on_c, 1, 80, 127
2, 12960, Note_off_c, 1, 62, 0
2, 12960, Note_off_c, 1, 64, 0
2, 12960, Note_off_c, 1, 68, 0
2, 12960, Note_off_c, 1, 80, 0
2, 13000, Note_on_c, 1, 57, 127
2, 13000, Note_on_c, 1, 64, 127
2, 13000, Note_on_c, 1, 69, 127
2, 13000, Note_on_c, 1, 87, 127
2, 13120, Note_off_c, 1, 87, 0
2, 13120, Note_on_c, 1, 90, 127
2, 13160, Note_off_c, 1, 57, 0
2, 13160, Note_off_c, 1, 64, 0
2, 13160, Note_off_c, 1, 69, 0
2, 13160, Note_off_c, 1, 90, 0
2, 13200, Note_on_c, 1, 57, 127
2, 13200, Note_on_c, 1, 65, 127
2, 13200, Note_on_c, 1, 69, 127
2, 13200, Note_on_c, 1, 76, 127
2, 13360, Note_on_c, 1, 36, 127
2, 13360, Note_on_c, 1, 46, 127
2, 13360, Note_off_c, 1, 57, 0
2, 13360, Note_on_c, 1, 62, 127
2, 13360, Note_off_c, 1, 65, 0
2, 13360, Note_off_c, 1, 69, 0
2, 13360, Note_off_c, 1, 76, 0
2, 13400, Note_off_c, 1, 36, 0
2, 13400, Note_off_c, 1, 46, 0
2, 13400, Note_on_c, 1, 57, 127
2, 13400, Note_off_c, 1, 62, 0
2, 13400, Note_on_c, 1, 65, 127
2, 13400, Note_on_c, 1, 69, 127
2, 13400, Note_on_c, 1, 76, 127
2, 13560, Note_off_c, 1, 65, 0
2, 13560, Note_off_c, 1, 69, 0
2, 13560, Note_on_c, 1, 74, 127
2, 13560, Note_off_c, 1, 76, 0
2, 13600, Note_on_c, 1, 65, 127
2, 13600, Note_on_c, 1, 69, 127
2, 13880, Note_off_c, 1, 57, 0
2, 13920, Note_on_c, 1, 62, 127
2, 13960, Note_on_c, 1, 57, 127
2, 13960, Note_off_c, 1, 62, 0
2, 13960, Note_off_c, 1, 65, 0
2, 13960, Note_off_c, 1, 69, 0
2, 13960, Note_off_c, 1, 74, 0
2, 14000, Note_off_c, 1, 57, 0
2, 14000, Note_on_c, 1, 61, 127
2, 14000, Note_on_c, 1, 65, 127
2, 14000, Note_on_c, 1, 73, 127
2, 14000, Note_on_c, 1, 79, 127
2, 14360, Note_off_c, 1, 61, 0
2, 14360, Note_off_c, 1, 65, 0
2, 14360, Note_off_c, 1, 73, 0
2, 14360, Note_off_c, 1, 79, 0
2, 14360, Note_on_c, 1, 80, 127
2, 14400, Note_on_c, 1, 61, 127
2, 14400, Note_on_c, 1, 68, 127
2, 14400, Note_on_c, 1, 78, 127
2, 14400, Note_off_c, 1, 80, 0
2, 14400, Note_on_c, 1, 82, 127
2, 14400, Note_on_c, 1, 90, 127
2, 14640, Note_off_c, 1, 61, 0
2, 14640, Note_off_c, 1, 68, 0
2, 14640, Note_off_c, 1, 78, 0
2, 14640, Note_off_c, 1, 82, 0
2, 14640, Note_off_c, 1, 90, 0
2, 14680, Note_on_c, 1, 61, 127
2, 14680, Note_on_c, 1, 68, 127
2, 14680, Note_on_c, 1, 78, 127
2, 14680, Note_on_c, 1, 82, 127
2, 14680, Note_on_c, 1, 90, 127
2, 14800, Note_off_c, 1, 61, 0
2, 14800, Note_off_c, 1, 68, 0
2, 14800, Note_off_c, 1, 78, 0
2, 14800, Note_off_c, 1, 82, 0
2, 14800, Note_off_c, 1, 90, 0
2, 14840, Note_on_c, 1, 45, 127
2, 14840, Note_on_c, 1, 57, 127
2, 14840, Note_on_c, 1, 64, 127
2, 14840, Note_on_c, 1, 67, 127
2, 14840, Note_on_c, 1, 71, 127
2, 15240, Note_off_c, 1, 45, 0
2, 15240, Note_off_c, 1, 57, 0
2, 15240, Note_off_c, 1, 64, 0
2, 15240, Note_off_c, 1, 67, 0
2, 15240, Note_off_c, 1, 71, 0
2, 15280, Note_on_c, 1, 45, 127
2, 15280, Note_on_c, 1, 57, 127
2, 15280, Note_on_c, 1, 64, 127
2, 15280, Note_on_c, 1, 67, 127
2, 15280, Note_on_c, 1, 71, 127
2, 15640, Note_off_c, 1, 45, 0
2, 15640, Note_off_c, 1, 57, 0
2, 15640, Note_off_c, 1, 64, 0
2, 15640, Note_off_c, 1, 67, 0
2, 15640, Note_off_c, 1, 71, 0
2, 15680, Note_on_c, 1, 45, 127
2, 15680, Note_on_c, 1, 57, 127
2, 15680, Note_on_c, 1, 74, 127
2, 15680, Note_on_c, 1, 78, 127
2, 16040, Note_off_c, 1, 45, 0
2, 16040, Note_off_c, 1, 57, 0
2, 16040, Note_off_c, 1, 74, 0
2, 16040, Note_off_c, 1, 78, 0
2, 16080, Note_on_c, 1, 57, 127
2, 16080, Note_on_c, 1, 60, 127
2, 16080, Note_on_c, 1, 63, 127
2, 16080, Note_on_c, 1, 72, 127
2, 16080, Note_on_c, 1, 78, 127
2, 16080, Note_on_c, 1, 83, 127
2, 16160, Note_off_c, 1, 63, 0
2, 16160, Note_off_c, 1, 72, 0
2, 16160, Note_off_c, 1, 78, 0
2, 16160, Note_off_c, 1, 83, 0
2, 16200, Note_on_c, 1, 84, 127
2, 16240, Note_on_c, 1, 76, 127
2, 16240, Note_off_c, 1, 84, 0
2, 16280, Note_off_c, 1, 76, 0
2, 16320, Note_on_c, 1, 74, 127
2, 16440, Note_off_c, 1, 57, 0
2, 16440, Note_off_c, 1, 60, 0
2, 16440, Note_on_c, 1, 62, 127
2, 16440, Note_on_c, 1, 72, 127
2, 16440, Note_off_c, 1, 74, 0
2, 16480, Note_on_c, 1, 60, 127
2, 16480, Note_off_c, 1, 62, 0
2, 16480, Note_on_c, 1, 63, 127
2, 16480, Note_on_c, 1, 69, 127
2, 16480, Note_off_c, 1, 72, 0
2, 16480, Note_on_c, 1, 99, 127
2, 16680, Note_off_c, 1, 99, 0
2, 16720, Note_on_c, 1, 99, 127
2, 16880, Note_off_c, 1, 60, 0
2, 16880, Note_off_c, 1, 63, 0
2, 16880, Note_off_c, 1, 69, 0
2, 16880, Note_off_c, 1, 99, 0
2, 16960, Note_on_c, 1, 57, 127
2, 16960, Note_on_c, 1, 65, 127
2, 16960, Note_on_c, 1, 72, 127
2, 16960, Note_on_c, 1, 79, 127
2, 17000, Note_off_c, 1, 57, 0
2, 17000, Note_on_c, 1, 62, 127
2, 17000, Note_off_c, 1, 65, 0
2, 17000, Note_on_c, 1, 67, 127
2, 17000, Note_on_c, 1, 71, 127
2, 17000, Note_off_c, 1, 72, 0
2, 17000, Note_off_c, 1, 79, 0
2, 17000, Note_on_c, 1, 83, 127
2, 17000, Note_on_c, 1, 91, 127
2, 17000, Note_on_c, 1, 95, 127
2, 17320, Note_off_c, 1, 62, 0
2, 17320, Note_off_c, 1, 67, 0
2, 17320, Note_off_c, 1, 71, 0
2, 17320, Note_off_c, 1, 83, 0
2, 17320, Note_off_c, 1, 91, 0
2, 17320, Note_off_c, 1, 95, 0
2, 17360, Note_on_c, 1, 55, 127
2, 17360, Note_on_c, 1, 58, 127
2, 17360, Note_on_c, 1, 77, 127
2, 17360, Note_on_c, 1, 80, 127
2, 17400, Note_off_c, 1, 77, 0
2, 17400, Note_off_c, 1, 80, 0
2, 17440, Note_on_c, 1, 28, 127
2, 17440, Note_on_c, 1, 40, 127
2, 17440, Note_off_c, 1, 55, 0
2, 17440, Note_off_c, 1, 58, 0
2, 17440, Note_on_c, 1, 59, 127
2, 17440, Note_on_c, 1, 64, 127
2, 17440, Note_on_c, 1, 68, 127
2, 17720, Note_off_c, 1, 28, 0
2, 17720, Note_off_c, 1, 40, 0
2, 17720, Note_off_c, 1, 59, 0
2, 17720, Note_on_c, 1, 62, 127
2, 17720, Note_off_c, 1, 64, 0
2, 17720, Note_off_c, 1, 68, 0
2, 17760, Note_on_c, 1, 44, 127
2, 17760, Note_on_c, 1, 56, 127
2, 17760, Note_off_c, 1, 62, 0
2, 17760, Note_on_c, 1, 67, 127
2, 17760, Note_on_c, 1, 72, 127
2, 17760, Note_on_c, 1, 79, 127
2, 18120, Note_off_c, 1, 44, 0
2, 18120, Note_off_c, 1, 56, 0
2, 18120, Note_off_c, 1, 67, 0
2, 18120, Note_off_c, 1, 72, 0
2, 18120, Note_off_c, 1, 79, 0
2, 18160, Note_on_c, 1, 44, 127
2, 18160, Note_on_c, 1, 56, 127
2, 18160, Note_on_c, 1, 69, 127
2, 18160, Note_on_c, 1, 81, 127
2, 18240, Note_off_c, 1, 69, 0
2, 18240, Note_off_c, 1, 81, 0
2, 18280, Note_on_c, 1, 69, 127
2, 18280, Note_on_c, 1, 81, 127
2, 18360, Note_off_c, 1, 69, 0
2, 18360, Note_off_c, 1, 81, 0
2, 18400, Note_on_c, 1, 71, 127
2, 18400, Note_on_c, 1, 83, 127
2, 18520, Note_off_c, 1, 44, 0
2, 18520, Note_off_c, 1, 56, 0
2, 18520, Note_off_c, 1, 71, 0
2, 18520, Note_off_c, 1, 83, 0
2, 18560, Note_on_c, 1, 43, 127
2, 18560, Note_on_c, 1, 55, 127
2, 18560, Note_on_c, 1, 75, 127
2, 18560, Note_on_c, 1, 79, 127
2, 18760, Note_off_c, 1, 79, 0
2, 18800, Note_on_c, 1, 80, 127
2, 18920, Note_off_c, 1, 80, 0
2, 18960, Note_off_c, 1, 43, 0
2, 18960, Note_off_c, 1, 55, 0
2, 18960, Note_off_c, 1, 75, 0
2, 19000, Note_on_c, 1, 43, 127
2, 19000, Note_on_c, 1, 55, 127
2, 19000, Note_on_c, 1, 73, 127
2, 19000, Note_on_c, 1, 75, 127
2, 19400, Note_off_c, 1, 73, 0
2, 19440, Note_off_c, 1, 43, 0
2, 19440, Note_on_c, 1, 53, 127
2, 19440, Note_off_c, 1, 55, 0
2, 19440, Note_on_c, 1, 66, 127
2, 19440, Note_on_c, 1, 69, 127
2, 19440, Note_on_c, 1, 72, 127
2, 19440, Note_on_c, 1, 74, 127
2, 19440, Note_off_c, 1, 75, 0
2, 19640, Note_on_c, 1, 73, 127
2, 19640, Note_off_c, 1, 74, 0
2, 19800, Note_off_c, 1, 53, 0
2, 19800, Note_off_c, 1, 66, 0
2, 19800, Note_off_c, 1, 69, 0
2, 19800, Note_off_c, 1, 72, 0
2, 19800, Note_off_c, 1, 73, 0
2, 19840, Note_on_c, 1, 39, 127
2, 19840, Note_on_c, 1, 51, 127
2, 19840, Note_on_c, 1, 58, 127
2, 19840, Note_on_c, 1, 70, 127
2, 20000, Note_off_c, 1, 58, 0
2, 20040, Note_on_c, 1, 63, 127
2, 20240, Note_off_c, 1, 63, 0
2, 20280, Note_on_c, 1, 67, 127
2, 20640, Note_off_c, 1, 39, 0
2, 20640, Note_off_c, 1, 51, 0
2, 20640, Note_off_c, 1, 67, 0
2, 20640, Note_off_c, 1, 70, 0
2, 20680, Note_on_c, 1, 39, 127
2, 20680, Note_on_c, 1, 51, 127
2, 20680, Note_on_c, 1, 67, 127
2, 20680, Note_on_c, 1, 70, 127
2, 21080, Note_off_c, 1, 39, 0
2, 21080, Note_off_c, 1, 51, 0
2, 21080, Note_off_c, 1, 67, 0
2, 21080, Note_off_c, 1, 70, 0
2, 21160, Note_on_c, 1, 43, 127
2, 21160, Note_on_c, 1, 55, 127
2, 21160, Note_on_c, 1, 67, 127
2, 21160, Note_on_c, 1, 70, 127
2, 21320, Note_off_c, 1, 67, 0
2, 21360, Note_on_c, 1, 67, 127
2, 21400, Note_off_c, 1, 67, 0
2, 21440, Note_on_c, 1, 62, 127
2, 21480, Note_off_c, 1, 62, 0
2, 21520, Note_off_c, 1, 43, 0
2, 21520, Note_off_c, 1, 55, 0
2, 21520, Note_off_c, 1, 70, 0
2, 21560, Note_on_c, 1, 53, 127
2, 21560, Note_on_c, 1, 69, 127
2, 21560, Note_on_c, 1, 72, 127
2, 21920, Note_off_c, 1, 53, 0
2, 21920, Note_off_c, 1, 69, 0
2, 21920, Note_on_c, 1, 77, 127
2, 21960, Note_on_c, 1, 50, 127
2, 21960, Note_off_c, 1, 72, 0
2, 21960, Note_on_c, 1, 74, 127
2, 22320, Note_off_c, 1, 50, 0
2, 22320, Note_off_c, 1, 74, 0
2, 22320, Note_off_c, 1, 77, 0
2, 22360, Note_on_c, 1, 53, 127
2, 22360, Note_on_c, 1, 60, 127
2, 22360, Note_on_c, 1, 72, 127
2, 22760, Note_off_c, 1, 53, 0
2, 22760, Note_off_c, 1, 60, 0
2, 22760, Note_on_c, 1, 74, 127
2, 22800, Note_on_c, 1, 36, 127
2, 22800, Note_on_c, 1, 48, 127
2, 22800, Note_on_c, 1, 55, 127
2, 22800, Note_on_c, 1, 64, 127
2, 22800, Note_off_c, 1, 72, 0
2, 22800, Note_off_c, 1, 74, 0
2, 23160, Note_off_c, 1, 36, 0
2, 23160, Note_off_c, 1, 48, 0
2, 23160, Note_off_c, 1, 55, 0
2, 23160, Note_off_c, 1, 64, 0
2, 23240, Note_on_c, 1, 36, 127
2, 23240, Note_on_c, 1, 48, 127
2, 23240, Note_on_c, 1, 72, 127
2, 23600, Note_off_c, 1, 36, 0
2, 23600, Note_off_c, 1, 48, 0
2, 23600, Note_off_c, 1, 72, 0
2, 23640, Note_on_c, 1, 48, 127
2, 23640, Note_on_c, 1, 67, 127
2, 24040, Note_off_c, 1, 48, 0
2, 24080, Note_on_c, 1, 48, 127
2, 24080, Note_on_c, 1, 60, 127
2, 24840, Note_off_c, 1, 48, 0
2, 24840, Note_off_c, 1, 60, 0
2, 24880, Note_on_c, 1, 53, 127
2, 24880, Note_on_c, 1, 60, 127
2, 24880, Note_on_c, 1, 65, 127
2, 24880, Note_off_c, 1, 67, 0
2, 25240, Note_off_c, 1, 60, 0
2, 25480, Note_off_c, 1, 53, 0
2, 25480, Note_off_c, 1, 65, 0
2, 25520, Note_on_c, 1, 53, 127
2, 25520, Note_on_c, 1, 65, 127
2, 25680, Note_off_c, 1, 53, 0
2, 25680, Note_off_c, 1, 65, 0
2, 25720, Note_on_c, 1, 62, 127
2, 25720, Note_on_c, 1, 69, 127
2, 25720, Note_on_c, 1, 81, 127
2, 25720, Note_on_c, 1, 85, 127
2, 25760, Note_on_c, 1, 51, 127
2, 25760, Note_on_c, 1, 59, 127
2, 25760, Note_off_c, 1, 62, 0
2, 25760, Note_off_c, 1, 69, 0
2, 25760, Note_off_c, 1, 81, 0
2, 25760, Note_off_c, 1, 85, 0
2, 25760, Note_on_c, 1, 92, 127
2, 25800, Note_on_c, 1, 46, 127
2, 25800, Note_on_c, 1, 49, 127
2, 25800, Note_off_c, 1, 51, 0
2, 25800, Note_off_c, 1, 59, 0
2, 25800, Note_on_c, 1, 61, 127
2, 25800, Note_on_c, 1, 66, 127
2, 25800, Note_off_c, 1, 92, 0
2, 25840, Note_off_c, 1, 46, 0
2, 25840, Note_off_c, 1, 66, 0
2, 25840, Note_on_c, 1, 89, 127
2, 25840, Note_on_c, 1, 97, 127
2, 25840, Note_on_c, 1, 101, 127
2, 25880, Note_off_c, 1, 49, 0
2, 25880, Note_off_c, 1, 61, 0
2, 25880, Note_on_c, 1, 66, 127
2, 25880, Note_on_c, 1, 69, 127
2, 25880, Note_on_c, 1, 73, 127
2, 25880, Note_on_c, 1, 81, 127
2, 25880, Note_on_c, 1, 85, 127
2, 25880, Note_off_c, 1, 89, 0
2, 25880, Note_on_c, 1, 90, 127
2, 25880, Note_off_c, 1, 97, 0
2, 25880, Note_off_c, 1, 101, 0
2, 25920, Note_on_c, 1, 51, 127
2, 25920, Note_on_c, 1, 59, 127
2, 25920, Note_off_c, 1, 66, 0
2, 25920, Note_off_c, 1, 69, 0
2, 25920, Note_off_c, 1, 73, 0
2, 25920, Note_off_c, 1, 81, 0
2, 25920, Note_off_c, 1, 85, 0
2, 25920, Note_off_c, 1, 90, 0
2, 25920, Note_on_c, 1, 92, 127
2, 25960, Note_on_c, 1, 49, 127
2, 25960, Note_off_c, 1, 51, 0
2, 25960, Note_off_c, 1, 59, 0
2, 25960, Note_on_c, 1, 68, 127
2, 25960, Note_on_c, 1, 70, 127
2, 25960, Note_on_c, 1, 79, 127
2, 25960, Note_off_c, 1, 92, 0
2, 26000, Note_off_c, 1, 49, 0
2, 26000, Note_on_c, 1, 51, 127
2, 26000, Note_on_c, 1, 59, 127
2, 26000, Note_off_c, 1, 68, 0
2, 26000, Note_off_c, 1, 70, 0
2, 26000, Note_off_c, 1, 79, 0
2, 26000, Note_on_c, 1, 92, 127
2, 26080, Note_off_c, 1, 51, 0
2, 26080, Note_off_c, 1, 59, 0
2, 26080, Note_off_c, 1, 92, 0
2, 26120, Note_on_c, 1, 57, 127
2, 26120, Note_on_c, 1, 63, 127
2, 26120, Note_on_c, 1, 69, 127
2, 26120, Note_on_c, 1, 81, 127
2, 26120, Note_on_c, 1, 87, 127
2, 26160, Note_on_c, 1, 44, 127
2, 26160, Note_on_c, 1, 51, 127
2, 26160, Note_on_c, 1, 56, 127
2, 26160, Note_off_c, 1, 57, 0
2, 26160, Note_off_c, 1, 63, 0
2, 26160, Note_off_c, 1, 69, 0
2, 26160, Note_off_c, 1, 81, 0
2, 26160, Note_off_c, 1, 87, 0
2, 26160, Note_on_c, 1, 92, 127
2, 26160, Note_on_c, 1, 96, 127
2, 26200, Note_off_c, 1, 44, 0
2, 26200, Note_off_c, 1, 51, 0
2, 26200, Note_off_c, 1, 56, 0
2, 26200, Note_on_c, 1, 57, 127
2, 26200, Note_on_c, 1, 60, 127
2, 26200, Note_on_c, 1, 69, 127
2, 26200, Note_on_c, 1, 81, 127
2, 26200, Note_on_c, 1, 89, 127
2, 26200, Note_off_c, 1, 92, 0
2, 26200, Note_off_c, 1, 96, 0
2, 26240, Note_on_c, 1, 54, 127
2, 26240, Note_on_c, 1, 59, 127
2, 26240, Note_off_c, 1, 60, 0
2, 26240, Note_on_c, 1, 63, 127
2, 26240, Note_off_c, 1, 69, 0
2, 26240, Note_off_c, 1, 81, 0
2, 26240, Note_off_c, 1, 89, 0
2, 26240, Note_on_c, 1, 92, 127
2, 26240, Note_on_c, 1, 93, 127
2, 26280, Note_off_c, 1, 54, 0
2, 26280, Note_off_c, 1, 59, 0
2, 26280, Note_on_c, 1, 69, 127
2, 26280, Note_on_c, 1, 81, 127
2, 26280, Note_on_c, 1, 89, 127
2, 26280, Note_off_c, 1, 92, 0
2, 26280, Note_off_c, 1, 93, 0
2, 26320, Note_on_c, 1, 39, 127
2, 26320, Note_on_c, 1, 51, 127
2, 26320, Note_off_c, 1, 57, 0
2, 26320, Note_off_c, 1, 69, 0
2, 26320, Note_on_c, 1, 71, 127
2, 26320, Note_on_c, 1, 75, 127
2, 26320, Note_off_c, 1, 81, 0
2, 26320, Note_off_c, 1, 89, 0
2, 26360, Note_on_c, 1, 38, 127
2, 26360, Note_off_c, 1, 39, 0
2, 26360, Note_on_c, 1, 50, 127
2, 26360, Note_off_c, 1, 51, 0
2, 26360, Note_off_c, 1, 63, 0
2, 26360, Note_off_c, 1, 75, 0
2, 26360, Note_on_c, 1, 77, 127
2, 26360, Note_on_c, 1, 83, 127
2, 26400, Note_off_c, 1, 38, 0
2, 26400, Note_off_c, 1, 50, 0
2, 26400, Note_on_c, 1, 53, 127
2, 26400, Note_on_c, 1, 58, 127
2, 26400, Note_off_c, 1, 71, 0
2, 26400, Note_on_c, 1, 72, 127
2, 26400, Note_off_c, 1, 77, 0
2, 26400, Note_on_c, 1, 80, 127
2, 26400, Note_off_c, 1, 83, 0
2, 26440, Note_off_c, 1, 53, 0
2, 26440, Note_off_c, 1, 58, 0
2, 26440, Note_on_c, 1, 69, 127
2, 26440, Note_on_c, 1, 71, 127
2, 26440, Note_off_c, 1, 72, 0
2, 26440, Note_on_c, 1, 74, 127
2, 26440, Note_off_c, 1, 80, 0
2, 26440, Note_on_c, 1, 85, 127
2, 26480, Note_on_c, 1, 55, 127
2, 26480, Note_on_c, 1, 62, 127
2, 26480, Note_on_c, 1, 65, 127
2, 26480, Note_off_c, 1, 69, 0
2, 26480, Note_off_c, 1, 71, 0
2, 26480, Note_on_c, 1, 77, 127
2, 26480, Note_off_c, 1, 85, 0
2, 26520, Note_off_c, 1, 55, 0
2, 26520, Note_off_c, 1, 62, 0
2, 26520, Note_off_c, 1, 65, 0
2, 26520, Note_off_c, 1, 74, 0
2, 26520, Note_off_c, 1, 77, 0
2, 26560, Note_on_c, 1, 62, 127
2, 26560, Note_on_c, 1, 65, 127
2, 26560, Note_on_c, 1, 70, 127
2, 26560, Note_on_c, 1, 74, 127
2, 26560, Note_on_c, 1, 86, 127
2, 26800, Note_on_c, 1, 82, 127
2, 26800, Note_off_c, 1, 86, 0
2, 26920, Note_off_c, 1, 62, 0
2, 26920, Note_off_c, 1, 65, 0
2, 26920, Note_off_c, 1, 70, 0
2, 26920, Note_off_c, 1, 74, 0
2, 26920, Note_off_c, 1, 82, 0
2, 26960, Note_on_c, 1, 61, 127
2, 26960, Note_on_c, 1, 68, 127
2, 26960, Note_on_c, 1, 75, 127
2, 26960, Note_on_c, 1, 77, 127
2, 26960, Note_on_c, 1, 80, 127
2, 27000, Note_on_c, 1, 46, 127
2, 27000, Note_on_c, 1, 53, 127
2, 27000, Note_off_c, 1, 68, 0
2, 27000, Note_on_c, 1, 69, 127
2, 27000, Note_off_c, 1, 75, 0
2, 27000, Note_off_c, 1, 77, 0
2, 27000, Note_off_c, 1, 80, 0
2, 27040, Note_off_c, 1, 46, 0
2, 27040, Note_off_c, 1, 53, 0
2, 27040, Note_off_c, 1, 69, 0
2, 27040, Note_on_c, 1, 70, 127
2, 27040, Note_on_c, 1, 78, 127
2, 27040, Note_on_c, 1, 82, 127
2, 27120, Note_off_c, 1, 78, 0
2, 27120, Note_off_c, 1, 82, 0
2, 27200, Note_on_c, 1, 87, 127
2, 27320, Note_off_c, 1, 61, 0
2, 27320, Note_off_c, 1, 70, 0
2, 27320, Note_off_c, 1, 87, 0
2, 27360, Note_on_c, 1, 68, 127
2, 27360, Note_on_c, 1, 71, 127
2, 27360, Note_on_c, 1, 85, 127
2, 27600, Note_on_c, 1, 82, 127
2, 27600, Note_off_c, 1, 85, 0
2, 27640, Note_off_c, 1, 82, 0
2, 27640, Note_on_c, 1, 85, 127
2, 27720, Note_off_c, 1, 68, 0
2, 27720, Note_off_c, 1, 71, 0
2, 27720, Note_off_c, 1, 85, 0
2, 27760, Note_on_c, 1, 68, 127
2, 27760, Note_on_c, 1, 71, 127
2, 27800, Note_on_c, 1, 82, 127
2, 28160, Note_off_c, 1, 68, 0
2, 28160, Note_off_c, 1, 71, 0
2, 28160, Note_off_c, 1, 82, 0
2, 28200, Note_on_c, 1, 68, 127
2, 28200, Note_on_c, 1, 71, 127
2, 28200, Note_on_c, 1, 79, 127
2, 28560, Note_off_c, 1, 79, 0
2, 28560, Note_on_c, 1, 80, 127
2, 29000, Note_on_c, 1, 51, 127
2, 29000, Note_on_c, 1, 55, 127
2, 29000, Note_on_c, 1, 58, 127
2, 29000, Note_on_c, 1, 61, 127
2, 29000, Note_on_c, 1, 63, 127
2, 29000, Note_on_c, 1, 67, 127
2, 29000, Note_off_c, 1, 68, 0
2, 29000, Note_off_c, 1, 71, 0
2, 29000, Note_off_c, 1, 80, 0
2, 29040, Note_off_c, 1, 51, 0
2, 29040, Note_off_c, 1, 55, 0
2, 29040, Note_off_c, 1, 58, 0
2, 29040, Note_off_c, 1, 61, 0
2, 29040, Note_off_c, 1, 63, 0
2, 29040, Note_on_c, 1, 64, 127
2, 29040, Note_off_c, 1, 67, 0
2, 29040, Note_on_c, 1, 79, 127
2, 29040, Note_on_c, 1, 85, 127
2, 29040, Note_on_c, 1, 88, 127
2, 29040, Note_on_c, 1, 91, 127
2, 29080, Note_on_c, 1, 60, 127
2, 29080, Note_off_c, 1, 64, 0
2, 29080, Note_on_c, 1, 67, 127
2, 29080, Note_off_c, 1, 79, 0
2, 29080, Note_off_c, 1, 85, 0
2, 29080, Note_on_c, 1, 86, 127
2, 29080, Note_off_c, 1, 91, 0
2, 29120, Note_off_c, 1, 60, 0
2, 29120, Note_on_c, 1, 64, 127
2, 29120, Note_off_c, 1, 67, 0
2, 29120, Note_on_c, 1, 79, 127
2, 29120, Note_on_c, 1, 85, 127
2, 29120, Note_off_c, 1, 86, 0
2, 29120, Note_on_c, 1, 91, 127
2, 29160, Note_on_c, 1, 52, 127
2, 29160, Note_on_c, 1, 59, 127
2, 29160, Note_off_c, 1, 64, 0
2, 29160, Note_on_c, 1, 69, 127
2, 29160, Note_on_c, 1, 75, 127
2, 29160, Note_on_c, 1, 78, 127
2, 29160, Note_off_c, 1, 79, 0
2, 29160, Note_off_c, 1, 85, 0
2, 29160, Note_off_c, 1, 88, 0
2, 29160, Note_off_c, 1, 91, 0
2, 29200, Note_off_c, 1, 52, 0
2, 29200, Note_off_c, 1, 59, 0
2, 29200, Note_on_c, 1, 65, 127
2, 29200, Note_off_c, 1, 69, 0
2, 29200, Note_on_c, 1, 71, 127
2, 29200, Note_on_c, 1, 74, 127
2, 29200, Note_off_c, 1, 75, 0
2, 29200, Note_off_c, 1, 78, 0
2, 29200, Note_on_c, 1, 93, 127
2, 29240, Note_on_c, 1, 56, 127
2, 29240, Note_off_c, 1, 65, 0
2, 29240, Note_on_c, 1, 66, 127
2, 29240, Note_off_c, 1, 71, 0
2, 29240, Note_off_c, 1, 74, 0
2, 29240, Note_on_c, 1, 78, 127
2, 29240, Note_on_c, 1, 81, 127
2, 29240, Note_off_c, 1, 93, 0
2, 29280, Note_off_c, 1, 56, 0
2, 29280, Note_on_c, 1, 65, 127
2, 29280, Note_off_c, 1, 66, 0
2, 29280, Note_on_c, 1, 75, 127
2, 29280, Note_off_c, 1, 78, 0
2, 29280, Note_off_c, 1, 81, 0
2, 29280, Note_on_c, 1, 92, 127
2, 29320, Note_on_c, 1, 40, 127
2, 29320, Note_on_c, 1, 52, 127
2, 29320, Note_off_c, 1, 65, 0
2, 29320, Note_off_c, 1, 75, 0
2, 29320, Note_on_c, 1, 82, 127
2, 29320, Note_on_c, 1, 85, 127
2, 29320, Note_off_c, 1, 92, 0
2, 29320, Note_on_c, 1, 94, 127
2, 29360, Note_off_c, 1, 40, 0
2, 29360, Note_off_c, 1, 52, 0
2, 29360, Note_on_c, 1, 59, 127
2, 29360, Note_off_c, 1, 82, 0
2, 29360, Note_off_c, 1, 85, 0
2, 29360, Note_off_c, 1, 94, 0
2, 29400, Note_on_c, 1, 47, 127
2, 29400, Note_on_c, 1, 74, 127
2, 29400, Note_on_c, 1, 77, 127
2, 29400, Note_on_c, 1, 79, 127
2, 29440, Note_off_c, 1, 47, 0
2, 29440, Note_off_c, 1, 59, 0
2, 29440, Note_on_c, 1, 68, 127
2, 29440, Note_off_c, 1, 74, 0
2, 29440, Note_off_c, 1, 77, 0
2, 29440, Note_off_c, 1, 79, 0
2, 29440, Note_on_c, 1, 80, 127
2, 29440, Note_on_c, 1, 83, 127
2, 29440, Note_on_c, 1, 92, 127
2, 29760, Note_on_c, 1, 59, 127
2, 29760, Note_off_c, 1, 68, 0
2, 29760, Note_off_c, 1, 80, 0
2, 29760, Note_off_c, 1, 83, 0
2, 29760, Note_off_c, 1, 92, 0
2, 29800, Note_on_c, 1, 47, 127
2, 29800, Note_on_c, 1, 55, 127
2, 29800, Note_off_c, 1, 59, 0
2, 29800, Note_on_c, 1, 62, 127
2, 29800, Note_on_c, 1, 75, 127
2, 30000, Note_off_c, 1, 47, 0
2, 30000, Note_off_c, 1, 55, 0
2, 30000, Note_off_c, 1, 62, 0
2, 30000, Note_off_c, 1, 75, 0
2, 30040, Note_on_c, 1, 47, 127
2, 30040, Note_on_c, 1, 55, 127
2, 30040, Note_on_c, 1, 62, 127
2, 30040, Note_on_c, 1, 75, 127
2, 30240, Note_off_c, 1, 62, 0
2, 30240, Note_on_c, 1, 65, 127
2, 30240, Note_on_c, 1, 67, 127
2, 30240, Note_off_c, 1, 75, 0
2, 30280, Note_on_c, 1, 62, 127
2, 30280, Note_off_c, 1, 65, 0
2, 30280, Note_off_c, 1, 67, 0
2, 30280, Note_on_c, 1, 75, 127
2, 30640, Note_on_c, 1, 43, 127
2, 30640, Note_off_c, 1, 47, 0
2, 30640, Note_off_c, 1, 55, 0
2, 30640, Note_off_c, 1, 62, 0
2, 30640, Note_off_c, 1, 75, 0
2, 30680, Note_on_c, 1, 30, 127
2, 30680, Note_on_c, 1, 31, 127
2, 30680, Note_on_c, 1, 32, 127
2, 30680, Note_off_c, 1, 43, 0
2, 30720, Note_off_c, 1, 30, 0
2, 30720, Note_off_c, 1, 31, 0
2, 30720, Note_off_c, 1, 32, 0
2, 30720, Note_on_c, 1, 66, 127
2, 30720, Note_on_c, 1, 76, 127
2, 30720, Note_on_c, 1, 92, 127
2, 30760, Note_on_c, 1, 47, 127
2, 30760, Note_on_c, 1, 53, 127
2, 30760, Note_on_c, 1, 55, 127
2, 30760, Note_on_c, 1, 62, 127
2, 30760, Note_off_c, 1, 66, 0
2, 30760, Note_off_c, 1, 76, 0
2, 30760, Note_off_c, 1, 92, 0
2, 30800, Note_off_c, 1, 47, 0
2, 30800, Note_off_c, 1, 53, 0
2, 30800, Note_off_c, 1, 55, 0
2, 30800, Note_off_c, 1, 62, 0
2, 30800, Note_on_c, 1, 69, 127
2, 30800, Note_on_c, 1, 72, 127
2, 30800, Note_on_c, 1, 76, 127
2, 30800, Note_on_c, 1, 90, 127
2, 30800, Note_on_c, 1, 93, 127
2, 30800, Note_on_c, 1, 96, 127
2, 30840, Note_on_c, 1, 46, 127
2, 30840, Note_on_c, 1, 53, 127
2, 30840, Note_off_c, 1, 69, 0
2, 30840, Note_on_c, 1, 70, 127
2, 30840, Note_off_c, 1, 72, 0
2, 30840, Note_off_c, 1, 90, 0
2, 30840, Note_off_c, 1, 93, 0
2, 30840, Note_off_c, 1, 96, 0
2, 30880, Note_on_c, 1, 50, 127
2, 30880, Note_off_c, 1, 53, 0
2, 30880, Note_on_c, 1, 58, 127
2, 30880, Note_on_c, 1, 65, 127
2, 30880, Note_on_c, 1, 68, 127
2, 30880, Note_off_c, 1, 76, 0
2, 30920, Note_off_c, 1, 46, 0
2, 30920, Note_off_c, 1, 50, 0
2, 30920, Note_on_c, 1, 53, 127
2, 30920, Note_off_c, 1, 58, 0
2, 30920, Note_on_c, 1, 60, 127
2, 30920, Note_off_c, 1, 65, 0
2, 30920, Note_off_c, 1, 68, 0
2, 30920, Note_on_c, 1, 69, 127
2, 30920, Note_off_c, 1, 70, 0
2, 30920, Note_on_c, 1, 76, 127
2, 30920, Note_on_c, 1, 84, 127
2, 30920, Note_on_c, 1, 89, 127
2, 30960, Note_off_c, 1, 53, 0
2, 30960, Note_on_c, 1, 58, 127
2, 30960, Note_off_c, 1, 60, 0
2, 30960, Note_on_c, 1, 64, 127
2, 30960, Note_on_c, 1, 68, 127
2, 30960, Note_off_c, 1, 69, 0
2, 30960, Note_on_c, 1, 71, 127
2, 30960, Note_off_c, 1, 76, 0
2, 30960, Note_off_c, 1, 84, 0
2, 30960, Note_off_c, 1, 89, 0
2, 31000, Note_on_c, 1, 57, 127
2, 31000, Note_off_c, 1, 58, 0
2, 31000, Note_on_c, 1, 63, 127
2, 31000, Note_off_c, 1, 64, 0
2, 31000, Note_off_c, 1, 68, 0
2, 31000, Note_on_c, 1, 69, 127
2, 31000, Note_off_c, 1, 71, 0
2, 31000, Note_on_c, 1, 78, 127
2, 31000, Note_on_c, 1, 85, 127
2, 31040, Note_off_c, 1, 57, 0
2, 31040, Note_off_c, 1, 63, 0
2, 31040, Note_off_c, 1, 69, 0
2, 31040, Note_off_c, 1, 78, 0
2, 31040, Note_off_c, 1, 85, 0
2, 31080, Note_on_c, 1, 57, 127
2, 31080, Note_on_c, 1, 64, 127
2, 31080, Note_on_c, 1, 69, 127
2, 31080, Note_on_c, 1, 73, 127
2, 31840, Note_off_c, 1, 57, 0
2, 31840, Note_off_c, 1, 64, 0
2, 31840, Note_off_c, 1, 69, 0
2, 31840, Note_off_c, 1, 73, 0
2, 32320, Note_on_c, 1, 39, 127
2, 32320, Note_on_c, 1, 46, 127
2, 32320, Note_on_c, 1, 53, 127
2, 32320, Note_on_c, 1, 65, 127
2, 32320, Note_on_c, 1, 68, 127
2, 32320, Note_on_c, 1, 77, 127
2, 32680, Note_off_c, 1, 39, 0
2, 32680, Note_off_c, 1, 46, 0
2, 32680, Note_off_c, 1, 53, 0
2, 32680, Note_off_c, 1, 65, 0
2, 32680, Note_off_c, 1, 68, 0
2, 32680, Note_off_c, 1, 77, 0
2, 32760, Note_on_c, 1, 39, 127
2, 32760, Note_on_c, 1, 46, 127
2, 32760, Note_on_c, 1, 53, 127
2, 32760, Note_on_c, 1, 65, 127
2, 32760, Note_on_c, 1, 68, 127
2, 32760, Note_on_c, 1, 77, 127
2, 33120, Note_off_c, 1, 39, 0
2, 33120, Note_off_c, 1, 46, 0
2, 33120, Note_off_c, 1, 53, 0
2, 33120, Note_off_c, 1, 65, 0
2, 33120, Note_off_c, 1, 68, 0
2, 33120, Note_off_c, 1, 77, 0
2, 33160, Note_on_c, 1, 39, 127
2, 33160, Note_on_c, 1, 46, 127
2, 33160, Note_on_c, 1, 53, 127
2, 33160, Note_on_c, 1, 65, 127
2, 33160, Note_on_c, 1, 68, 127
2, 33160, Note_on_c, 1, 77, 127
2, 33520, Note_off_c, 1, 39, 0
2, 33520, Note_off_c, 1, 46, 0
2, 33520, Note_off_c, 1, 53, 0
2, 33520, Note_off_c, 1, 65, 0
2, 33520, Note_off_c, 1, 68, 0
2, 33520, Note_off_c, 1, 77, 0
2, 33560, Note_on_c, 1, 39, 127
2, 33560, Note_on_c, 1, 46, 127
2, 33560, Note_on_c, 1, 53, 127
2, 33560, Note_on_c, 1, 65, 127
2, 33560, Note_on_c, 1, 68, 127
2, 33560, Note_on_c, 1, 77, 127
2, 33920, Note_off_c, 1, 39, 0
2, 33920, Note_off_c, 1, 46, 0
2, 33920, Note_off_c, 1, 53, 0
2, 33920, Note_off_c, 1, 65, 0
2, 33920, Note_off_c, 1, 68, 0
2, 33920, Note_off_c, 1, 77, 0
2, 33960, Note_on_c, 1, 54, 127
2, 33960, Note_on_c, 1, 58, 127
2, 33960, Note_on_c, 1, 66, 127
2, 33960, Note_on_c, 1, 70, 127
2, 33960, Note_on_c, 1, 73, 127
2, 34320, Note_off_c, 1, 54, 0
2, 34320, Note_off_c, 1, 58, 0
2, 34320, Note_off_c, 1, 66, 0
2, 34320, Note_off_c, 1, 70, 0
2, 34320, Note_off_c, 1, 73, 0
2, 34360, Note_on_c, 1, 34, 127
2, 34360, Note_on_c, 1, 41, 127
2, 34360, Note_on_c, 1, 65, 127
2, 34360, Note_on_c, 1, 69, 127
2, 34360, Note_on_c, 1, 74, 127
2, 34360, Note_on_c, 1, 77, 127
2, 34400, Note_off_c, 1, 34, 0
2, 34400, Note_off_c, 1, 41, 0
2, 34400, Note_on_c, 1, 48, 127
2, 34400, Note_on_c, 1, 56, 127
2, 34400, Note_off_c, 1, 65, 0
2, 34400, Note_on_c, 1, 68, 127
2, 34400, Note_off_c, 1, 69, 0
2, 34400, Note_on_c, 1, 72, 127
2, 34400, Note_off_c, 1, 74, 0
2, 34400, Note_off_c, 1, 77, 0
2, 34400, Note_on_c, 1, 79, 127
2, 34440, Note_off_c, 1, 48, 0
2, 34440, Note_off_c, 1, 56, 0
2, 34440, Note_off_c, 1, 68, 0
2, 34440, Note_off_c, 1, 72, 0
2, 34440, Note_off_c, 1, 79, 0
2, 34480, Note_on_c, 1, 47, 127
2, 34480, Note_on_c, 1, 77, 127
2, 34480, Note_on_c, 1, 91, 127
2, 34520, Note_off_c, 1, 47, 0
2, 34520, Note_on_c, 1, 49, 127
2, 34520, Note_on_c, 1, 54, 127
2, 34520, Note_on_c, 1, 61, 127
2, 34520, Note_on_c, 1, 76, 127
2, 34520, Note_off_c, 1, 77, 0
2, 34520, Note_off_c, 1, 91, 0
2, 34560, Note_on_c, 1, 44, 127
2, 34560, Note_on_c, 1, 48, 127
2, 34560, Note_off_c, 1, 49, 0
2, 34560, Note_off_c, 1, 54, 0
2, 34560, Note_off_c, 1, 61, 0
2, 34560, Note_on_c, 1, 72, 127
2, 34560, Note_on_c, 1, 74, 127
2, 34560, Note_off_c, 1, 76, 0
2, 34560, Note_on_c, 1, 84, 127
2, 34600, Note_on_c, 1, 41, 127
2, 34600, Note_off_c, 1, 44, 0
2, 34600, Note_off_c, 1, 48, 0
2, 34600, Note_on_c, 1, 56, 127
2, 34600, Note_on_c, 1, 68, 127
2, 34600, Note_off_c, 1, 72, 0
2, 34600, Note_off_c, 1, 84, 0
2, 34640, Note_off_c, 1, 41, 0
2, 34640, Note_off_c, 1, 56, 0
2, 34640, Note_on_c, 1, 61, 127
2, 34640, Note_off_c, 1, 68, 0
2, 34640, Note_off_c, 1, 74, 0
2, 34640, Note_on_c, 1, 84, 127
2, 34640, Note_on_c, 1, 89, 127
2, 34640, Note_on_c, 1, 96, 127
2, 34680, Note_on_c, 1, 48, 127
2, 34680, Note_on_c, 1, 57, 127
2, 34680, Note_on_c, 1, 60, 127
2, 34680, Note_off_c, 1, 61, 0
2, 34680, Note_on_c, 1, 74, 127
2, 34680, Note_off_c, 1, 84, 0
2, 34680, Note_off_c, 1, 89, 0
2, 34680, Note_off_c, 1, 96, 0
2, 34720, Note_on_c, 1, 45, 127
2, 34720, Note_off_c, 1, 48, 0
2, 34720, Note_on_c, 1, 49, 127
2, 34720, Note_on_c, 1, 51, 127
2, 34720, Note_off_c, 1, 57, 0
2, 34720, Note_off_c, 1, 60, 0
2, 34720, Note_on_c, 1, 63, 127
2, 34720, Note_off_c, 1, 74, 0
2, 34720, Note_on_c, 1, 75, 127
2, 34760, Note_off_c, 1, 45, 0
2, 34760, Note_off_c, 1, 49, 0
2, 34760, Note_off_c, 1, 51, 0
2, 34760, Note_off_c, 1, 63, 0
2, 34760, Note_off_c, 1, 75, 0
2, 34800, Note_on_c, 1, 48, 127
2, 34800, Note_on_c, 1, 53, 127
2, 34800, Note_on_c, 1, 55, 127
2, 34800, Note_on_c, 1, 59, 127
2, 34800, Note_on_c, 1, 81, 127
2, 34840, Note_on_c, 1, 47, 127
2, 34840, Note_off_c, 1, 48, 0
2, 34840, Note_on_c, 1, 50, 127
2, 34840, Note_off_c, 1, 53, 0
2, 34840, Note_off_c, 1, 81, 0
2, 34840, Note_on_c, 1, 86, 127
2, 34880, Note_off_c, 1, 47, 0
2, 34880, Note_off_c, 1, 50, 0
2, 34880, Note_on_c, 1, 61, 127
2, 34880, Note_on_c, 1, 64, 127
2, 34880, Note_on_c, 1, 67, 127
2, 34880, Note_on_c, 1, 71, 127
2, 34880, Note_on_c, 1, 73, 127
2, 34880, Note_on_c, 1, 76, 127
2, 34880, Note_on_c, 1, 83, 127
2, 34880, Note_off_c, 1, 86, 0
2, 34920, Note_on_c, 1, 47, 127
2, 34920, Note_on_c, 1, 50, 127
2, 34920, Note_off_c, 1, 61, 0
2, 34920, Note_off_c, 1, 64, 0
2, 34920, Note_off_c, 1, 67, 0
2, 34920, Note_off_c, 1, 71, 0
2, 34920, Note_off_c, 1, 73, 0
2, 34920, Note_off_c, 1, 76, 0
2, 34920, Note_off_c, 1, 83, 0
2, 34920, Note_on_c, 1, 86, 127
2, 34960, Note_on_c, 1, 74, 127
2, 34960, Note_off_c, 1, 86, 0
2, 35000, Note_on_c, 1, 46, 127
2, 35000, Note_off_c, 1, 47, 0
2, 35000, Note_off_c, 1, 50, 0
2, 35000, Note_on_c, 1, 51, 127
2, 35000, Note_off_c, 1, 55, 0
2, 35000, Note_on_c, 1, 58, 127
2, 35000, Note_off_c, 1, 59, 0
2, 35000, Note_on_c, 1, 73, 127
2, 35000, Note_off_c, 1, 74, 0
2, 35000, Note_on_c, 1, 79, 127
2, 35000, Note_on_c, 1, 82, 127
2, 35040, Note_off_c, 1, 46, 0
2, 35040, Note_on_c, 1, 47, 127
2, 35040, Note_on_c, 1, 50, 127
2, 35040, Note_off_c, 1, 51, 0
2, 35040, Note_on_c, 1, 55, 127
2, 35040, Note_off_c, 1, 58, 0
2, 35040, Note_on_c, 1, 59, 127
2, 35040, Note_off_c, 1, 73, 0
2, 35040, Note_off_c, 1, 79, 0
2, 35040, Note_off_c, 1, 82, 0
2, 35040, Note_on_c, 1, 86, 127
2, 35200, Note_off_c, 1, 47, 0
2, 35200, Note_off_c, 1, 50, 0
2, 35200, Note_off_c, 1, 55, 0
2, 35200, Note_off_c, 1, 59, 0
2, 35200, Note_off_c, 1, 86, 0
2, 35240, Note_on_c, 1, 40, 127
2, 35240, Note_on_c, 1, 52, 127
2, 35240, Note_on_c, 1, 67, 127
2, 35240, Note_on_c, 1, 72, 127
2, 35600, Note_off_c, 1, 67, 0
2, 35640, Note_off_c, 1, 40, 0
2, 35640, Note_off_c, 1, 52, 0
2, 35640, Note_on_c, 1, 66, 127
2, 35640, Note_on_c, 1, 70, 127
2, 35640, Note_off_c, 1, 72, 0
2, 35640, Note_on_c, 1, 76, 127
2, 35640, Note_on_c, 1, 88, 127
2, 35640, Note_on_c, 1, 99, 127
2, 35680, Note_on_c, 1, 60, 127
2, 35680, Note_off_c, 1, 66, 0
2, 35680, Note_on_c, 1, 69, 127
2, 35680, Note_off_c, 1, 70, 0
2, 35680, Note_off_c, 1, 76, 0
2, 35680, Note_on_c, 1, 81, 127
2, 35680, Note_off_c, 1, 88, 0
2, 35680, Note_on_c, 1, 93, 127
2, 35680, Note_off_c, 1, 99, 0
2, 36000, Note_off_c, 1, 60, 0
2, 36000, Note_off_c, 1, 81, 0
2, 36000, Note_off_c, 1, 93, 0
2, 36040, Note_on_c, 1, 50, 127
2, 36040, Note_on_c, 1, 57, 127
2, 36040, Note_on_c, 1, 65, 127
2, 36040, Note_off_c, 1, 69, 0
2, 36040, Note_on_c, 1, 77, 127
2, 36440, Note_off_c, 1, 50, 0
2, 36440, Note_off_c, 1, 65, 0
2, 36440, Note_off_c, 1, 77, 0
2, 36480, Note_on_c, 1, 60, 127
2, 36480, Note_on_c, 1, 64, 127
2, 36480, Note_on_c, 1, 88, 127
2, 36680, Note_off_c, 1, 57, 0
2, 36680, Note_off_c, 1, 60, 0
2, 36680, Note_off_c, 1, 64, 0
2, 36680, Note_off_c, 1, 88, 0
2, 36720, Note_on_c, 1, 57, 127
2, 36720, Note_on_c, 1, 60, 127
2, 36720, Note_on_c, 1, 64, 127
2, 36720, Note_on_c, 1, 88, 127
2, 36880, Note_off_c, 1, 88, 0
2, 36920, Note_on_c, 1, 46, 127
2, 36920, Note_off_c, 1, 60, 0
2, 36920, Note_on_c, 1, 63, 127
2, 36920, Note_off_c, 1, 64, 0
2, 36920, Note_on_c, 1, 72, 127
2, 37280, Note_off_c, 1, 46, 0
2, 37280, Note_off_c, 1, 57, 0
2, 37280, Note_off_c, 1, 63, 0
2, 37280, Note_off_c, 1, 72, 0
2, 37320, Note_on_c, 1, 45, 127
2, 37320, Note_on_c, 1, 57, 127
2, 37320, Note_on_c, 1, 62, 127
2, 37320, Note_on_c, 1, 65, 127
2, 37720, Note_off_c, 1, 45, 0
2, 37720, Note_off_c, 1, 57, 0
2, 37720, Note_off_c, 1, 62, 0
2, 37720, Note_off_c, 1, 65, 0
2, 37760, Note_on_c, 1, 52, 127
2, 37760, Note_on_c, 1, 57, 127
2, 37760, Note_on_c, 1, 60, 127
2, 37760, Note_on_c, 1, 64, 127
2, 37760, Note_on_c, 1, 76, 127
2, 38120, Note_off_c, 1, 64, 0
2, 38120, Note_off_c, 1, 76, 0
2, 38160, Note_on_c, 1, 36, 127
2, 38160, Note_on_c, 1, 48, 127
2, 38160, Note_off_c, 1, 57, 0
2, 38160, Note_off_c, 1, 60, 0
2, 38160, Note_on_c, 1, 61, 127
2, 38520, Note_off_c, 1, 36, 0
2, 38520, Note_off_c, 1, 48, 0
2, 38520, Note_off_c, 1, 52, 0
2, 38520, Note_off_c, 1, 61, 0
2, 38560, Note_on_c, 1, 36, 127
2, 38560, Note_on_c, 1, 43, 127
2, 38560, Note_on_c, 1, 52, 127
2, 38560, Note_on_c, 1, 60, 127
2, 38720, Note_off_c, 1, 60, 0
2, 38760, Note_on_c, 1, 60, 127
2, 38840, Note_off_c, 1, 36, 0
2, 38840, Note_off_c, 1, 43, 0
2, 38840, Note_off_c, 1, 52, 0
2, 38840, Note_off_c, 1, 60, 0
2, 38880, Note_on_c, 1, 36, 127
2, 38880, Note_on_c, 1, 43, 127
2, 38880, Note_on_c, 1, 52, 127
2, 38880, Note_on_c, 1, 60, 127
2, 38920, Note_off_c, 1, 60, 0
2, 38960, Note_on_c, 1, 60, 127
2, 39000, Note_off_c, 1, 60, 0
2, 39040, Note_on_c, 1, 60, 127
2, 39120, Note_off_c, 1, 60, 0
2, 39400, Note_off_c, 1, 36, 0
2, 39400, Note_off_c, 1, 43, 0
2, 39400, Note_off_c, 1, 52, 0
2, 39440, Note_on_c, 1, 36, 127
2, 39440, Note_on_c, 1, 43, 127
2, 39440, Note_on_c, 1, 52, 127
2, 39440, Note_on_c, 1, 60, 127
2, 40000, Note_off_c, 1, 60, 0
2, 40200, Note_off_c, 1, 36, 0
2, 40200, Note_off_c, 1, 43, 0
2, 40200, Note_off_c, 1, 52, 0
2, 40240, Note_on_c, 1, 36, 127
2, 40240, Note_on_c, 1, 43, 127
2, 40240, Note_on_c, 1, 52, 127
2, 40240, Note_on_c, 1, 60, 127
2, 40480, Note_off_c, 1, 60, 0
2, 40520, Note_on_c, 1, 60, 127
2, 40560, Note_off_c, 1, 60, 0
2, 40640, Note_on_c, 1, 60, 127
2, 40680, Note_off_c, 1, 36, 0
2, 40680, Note_off_c, 1, 43, 0
2, 40680, Note_on_c, 1, 44, 127
2, 40680, Note_off_c, 1, 52, 0
2, 40680, Note_on_c, 1, 53, 127
2, 40680, Note_on_c, 1, 56, 127
2, 40680, Note_on_c, 1, 59, 127
2, 40680, Note_off_c, 1, 60, 0
2, 40680, Note_on_c, 1, 64, 127
2, 40960, Note_off_c, 1, 44, 0
2, 40960, Note_off_c, 1, 53, 0
2, 40960, Note_off_c, 1, 56, 0
2, 40960, Note_off_c, 1, 59, 0
2, 40960, Note_off_c, 1, 64, 0
2, 41000, Note_on_c, 1, 44, 127
2, 41000, Note_on_c, 1, 53, 127
2, 41000, Note_on_c, 1, 56, 127
2, 41000, Note_on_c, 1, 59, 127
2, 41000, Note_on_c, 1, 64, 127
2, 41040, Note_off_c, 1, 44, 0
2, 41040, Note_off_c, 1, 53, 0
2, 41040, Note_off_c, 1, 56, 0
2, 41040, Note_off_c, 1, 59, 0
2, 41040, Note_off_c, 1, 64, 0
2, 41080, Note_on_c, 1, 36, 127
2, 41080, Note_on_c, 1, 43, 127
2, 41080, Note_on_c, 1, 52, 127
2, 41080, Note_on_c, 1, 60, 127
2, 41240, Note_off_c, 1, 60, 0
2, 41280, Note_on_c, 1, 59, 127
2, 41320, Note_off_c, 1, 59, 0
2, 41360, Note_on_c, 1, 60, 127
2, 41400, Note_off_c, 1, 60, 0
2, 41440, Note_off_c, 1, 36, 0
2, 41440, Note_off_c, 1, 43, 0
2, 41440, Note_off_c, 1, 52, 0
2, 41440, Note_on_c, 1, 74, 127
2, 41480, Note_on_c, 1, 34, 127
2, 41480, Note_on_c, 1, 41, 127
2, 41480, Note_on_c, 1, 61, 127
2, 41480, Note_on_c, 1, 70, 127
2, 41480, Note_off_c, 1, 74, 0
2, 41520, Note_off_c, 1, 61, 0
2, 41520, Note_off_c, 1, 70, 0
2, 41600, Note_off_c, 1, 34, 0
2, 41600, Note_off_c, 1, 41, 0
2, 41600, Note_on_c, 1, 46, 127
2, 41600, Note_on_c, 1, 57, 127
2, 41600, Note_on_c, 1, 65, 127
2, 41600, Note_on_c, 1, 70, 127
2, 41640, Note_off_c, 1, 57, 0
2, 41640, Note_off_c, 1, 65, 0
2, 41640, Note_off_c, 1, 70, 0
2, 41640, Note_on_c, 1, 74, 127
2, 41640, Note_on_c, 1, 76, 127
2, 41680, Note_on_c, 1, 40, 127
2, 41680, Note_on_c, 1, 44, 127
2, 41680, Note_off_c, 1, 46, 0
2, 41680, Note_on_c, 1, 47, 127
2, 41680, Note_on_c, 1, 52, 127
2, 41680, Note_on_c, 1, 71, 127
2, 41680, Note_off_c, 1, 74, 0
2, 41680, Note_on_c, 1, 80, 127
2, 41680, Note_on_c, 1, 83, 127
2, 41720, Note_off_c, 1, 40, 0
2, 41720, Note_off_c, 1, 44, 0
2, 41720, Note_on_c, 1, 46, 127
2, 41720, Note_off_c, 1, 47, 0
2, 41720, Note_off_c, 1, 52, 0
2, 41720, Note_on_c, 1, 57, 127
2, 41720, Note_on_c, 1, 65, 127
2, 41720, Note_on_c, 1, 70, 127
2, 41720, Note_off_c, 1, 71, 0
2, 41720, Note_off_c, 1, 76, 0
2, 41720, Note_off_c, 1, 80, 0
2, 41720, Note_off_c, 1, 83, 0
2, 41760, Note_on_c, 1, 40, 127
2, 41760, Note_on_c, 1, 44, 127
2, 41760, Note_off_c, 1, 46, 0
2, 41760, Note_on_c, 1, 47, 127
2, 41760, Note_on_c, 1, 52, 127
2, 41760, Note_off_c, 1, 57, 0
2, 41760, Note_off_c, 1, 65, 0
2, 41760, Note_off_c, 1, 70, 0
2, 41760, Note_on_c, 1, 71, 127
2, 41760, Note_on_c, 1, 76, 127
2, 41760, Note_on_c, 1, 80, 127
2, 41760, Note_on_c, 1, 83, 127
2, 42080, Note_off_c, 1, 40, 0
2, 42080, Note_off_c, 1, 44, 0
2, 42080, Note_off_c, 1, 47, 0
2, 42080, Note_off_c, 1, 52, 0
2, 42080, Note_off_c, 1, 71, 0
2, 42080, Note_off_c, 1, 76, 0
2, 42080, Note_off_c, 1, 80, 0
2, 42080, Note_off_c, 1, 83, 0
2, 42120, Note_on_c, 1, 41, 127
2, 42120, Note_on_c, 1, 82, 127
2, 42120, Note_on_c, 1, 91, 127
2, 42120, Note_on_c, 1, 94, 127
2, 42480, Note_off_c, 1, 41, 0
2, 42480, Note_off_c, 1, 82, 0
2, 42480, Note_off_c, 1, 91, 0
2, 42480, Note_off_c, 1, 94, 0
2, 42520, Note_on_c, 1, 35, 127
2, 42520, Note_on_c, 1, 64, 127
2, 42520, Note_on_c, 1, 69, 127
2, 42520, Note_on_c, 1, 73, 127
2, 42760, Note_off_c, 1, 64, 0
2, 42800, Note_on_c, 1, 64, 127
2, 42840, Note_off_c, 1, 35, 0
2, 42840, Note_on_c, 1, 40, 127
2, 42840, Note_on_c, 1, 50, 127
2, 42840, Note_off_c, 1, 64, 0
2, 42840, Note_off_c, 1, 69, 0
2, 42840, Note_on_c, 1, 71, 127
2, 42840, Note_off_c, 1, 73, 0
2, 42880, Note_off_c, 1, 40, 0
2, 42880, Note_off_c, 1, 50, 0
2, 42880, Note_off_c, 1, 71, 0
2, 42920, Note_on_c, 1, 38, 127
2, 42920, Note_on_c, 1, 43, 127
2, 42920, Note_on_c, 1, 50, 127
2, 42920, Note_on_c, 1, 67, 127
2, 42920, Note_on_c, 1, 74, 127
2, 42920, Note_on_c, 1, 79, 127
2, 43240, Note_off_c, 1, 38, 0
2, 43240, Note_off_c, 1, 43, 0
2, 43240, Note_off_c, 1, 50, 0
2, 43240, Note_off_c, 1, 67, 0
2, 43240, Note_off_c, 1, 74, 0
2, 43240, Note_off_c, 1, 79, 0
2, 43320, Note_on_c, 1, 41, 127
2, 43320, Note_on_c, 1, 46, 127
2, 43320, Note_on_c, 1, 53, 127
2, 43320, Note_on_c, 1, 58, 127
2, 43320, Note_on_c, 1, 65, 127
2, 43680, Note_off_c, 1, 65, 0
2, 43720, Note_on_c, 1, 64, 127
2, 43760, Note_off_c, 1, 64, 0
2, 43760, Note_on_c, 1, 65, 127
2, 44000, Note_on_c, 1, 64, 127
2, 44000, Note_off_c, 1, 65, 0
2, 44080, Note_off_c, 1, 64, 0
2, 44120, Note_off_c, 1, 41, 0
2, 44120, Note_off_c, 1, 46, 0
2, 44120, Note_off_c, 1, 53, 0
2, 44120, Note_off_c, 1, 58, 0
2, 44160, Note_on_c, 1, 38, 127
2, 44160, Note_on_c, 1, 45, 127
2, 44160, Note_on_c, 1, 50, 127
2, 44160, Note_on_c, 1, 57, 127
2, 44160, Note_on_c, 1, 64, 127
2, 44440, Note_off_c, 1, 64, 0
2, 44560, Note_on_c, 1, 64, 127
2, 44920, Note_off_c, 1, 64, 0
2, 44960, Note_off_c, 1, 38, 0
2, 44960, Note_off_c, 1, 45, 0
2, 44960, Note_off_c, 1, 50, 0
2, 44960, Note_off_c, 1, 57, 0
2, 45000, Note_on_c, 1, 41, 127
2, 45000, Note_on_c, 1, 46, 127
2, 45000, Note_on_c, 1, 53, 127
2, 45000, Note_on_c, 1, 58, 127
2, 45000, Note_on_c, 1, 62, 127
2, 45000, Note_on_c, 1, 65, 127
2, 45360, Note_off_c, 1, 41, 0
2, 45360, Note_off_c, 1, 46, 0
2, 45360, Note_off_c, 1, 53, 0
2, 45360, Note_off_c, 1, 58, 0
2, 45360, Note_off_c, 1, 62, 0
2, 45360, Note_off_c, 1, 65, 0
2, 45400, Note_on_c, 1, 38, 127
2, 45400, Note_on_c, 1, 45, 127
2, 45400, Note_on_c, 1, 50, 127
2, 45400, Note_on_c, 1, 57, 127
2, 45400, Note_on_c, 1, 62, 127
2, 45600, Note_off_c, 1, 38, 0
2, 45600, Note_off_c, 1, 45, 0
2, 45600, Note_off_c, 1, 50, 0
2, 45600, Note_off_c, 1, 57, 0
2, 45600, Note_off_c, 1, 62, 0
2, 45640, Note_on_c, 1, 38, 127
2, 45640, Note_on_c, 1, 45, 127
2, 45640, Note_on_c, 1, 50, 127
2, 45640, Note_on_c, 1, 57, 127
2, 45640, Note_on_c, 1, 62, 127
2, 45800, Note_off_c, 1, 38, 0
2, 45800, Note_off_c, 1, 45, 0
2, 45800, Note_off_c, 1, 50, 0
2, 45800, Note_off_c, 1, 57, 0
2, 45800, Note_off_c, 1, 62, 0
2, 45840, Note_on_c, 1, 41, 127
2, 45840, Note_on_c, 1, 46, 127
2, 45840, Note_on_c, 1, 53, 127
2, 45840, Note_on_c, 1, 58, 127
2, 45840, Note_on_c, 1, 62, 127
2, 46240, Note_off_c, 1, 41, 0
2, 46240, Note_off_c, 1, 46, 0
2, 46240, Note_off_c, 1, 53, 0
2, 46240, Note_off_c, 1, 58, 0
2, 46240, Note_off_c, 1, 62, 0
2, 46280, Note_on_c, 1, 36, 127
2, 46280, Note_on_c, 1, 43, 127
2, 46280, Note_on_c, 1, 48, 127
2, 46280, Note_on_c, 1, 60, 127
2, 46280, Note_on_c, 1, 63, 127
2, 46280, Note_on_c, 1, 72, 127
2, 46640, Note_off_c, 1, 36, 0
2, 46640, Note_off_c, 1, 43, 0
2, 46640, Note_off_c, 1, 48, 0
2, 46640, Note_off_c, 1, 60, 0
2, 46640, Note_off_c, 1, 63, 0
2, 46640, Note_on_c, 1, 70, 127
2, 46640, Note_off_c, 1, 72, 0
2, 46680, Note_on_c, 1, 39, 127
2, 46680, Note_on_c, 1, 53, 127
2, 46680, Note_off_c, 1, 70, 0
2, 46680, Note_on_c, 1, 74, 127
2, 46960, Note_off_c, 1, 39, 0
2, 46960, Note_on_c, 1, 50, 127
2, 46960, Note_off_c, 1, 53, 0
2, 46960, Note_on_c, 1, 65, 127
2, 46960, Note_on_c, 1, 67, 127
2, 46960, Note_on_c, 1, 71, 127
2, 46960, Note_off_c, 1, 74, 0
2, 47000, Note_on_c, 1, 39, 127
2, 47000, Note_off_c, 1, 50, 0
2, 47000, Note_on_c, 1, 53, 127
2, 47000, Note_off_c, 1, 65, 0
2, 47000, Note_off_c, 1, 67, 0
2, 47000, Note_off_c, 1, 71, 0
2, 47000, Note_on_c, 1, 74, 127
2, 47040, Note_off_c, 1, 39, 0
2, 47040, Note_off_c, 1, 53, 0
2, 47040, Note_on_c, 1, 67, 127
2, 47040, Note_off_c, 1, 74, 0
2, 47080, Note_on_c, 1, 63, 127
2, 47080, Note_on_c, 1, 65, 127
2, 47080, Note_off_c, 1, 67, 0
2, 47080, Note_on_c, 1, 71, 127
2, 47080, Note_on_c, 1, 79, 127
2, 47320, Note_off_c, 1, 63, 0
2, 47480, Note_off_c, 1, 65, 0
2, 47480, Note_off_c, 1, 71, 0
2, 47480, Note_off_c, 1, 79, 0
2, 47520, Note_on_c, 1, 48, 127
2, 47520, Note_on_c, 1, 60, 127
2, 47520, Note_on_c, 1, 78, 127
2, 47520, Note_on_c, 1, 81, 127
2, 47520, Note_on_c, 1, 87, 127
2, 47520, Note_on_c, 1, 90, 127
2, 47880, Note_off_c, 1, 48, 0
2, 47880, Note_on_c, 1, 52, 127
2, 47880, Note_off_c, 1, 60, 0
2, 47880, Note_on_c, 1, 66, 127
2, 47880, Note_on_c, 1, 73, 127
2, 47880, Note_off_c, 1, 78, 0
2, 47880, Note_off_c, 1, 81, 0
2, 47880, Note_on_c, 1, 82, 127
2, 47880, Note_on_c, 1, 85, 127
2, 47880, Note_off_c, 1, 87, 0
2, 47880, Note_off_c, 1, 90, 0
2, 47920, Note_off_c, 1, 52, 0
2, 47920, Note_off_c, 1, 66, 0
2, 47920, Note_off_c, 1, 73, 0
2, 47920, Note_off_c, 1, 82, 0
2, 47920, Note_off_c, 1, 85, 0
2, 48000, Note_on_c, 1, 60, 127
2, 48000, Note_on_c, 1, 67, 127
2, 48000, Note_on_c, 1, 70, 127
2, 48000, Note_on_c, 1, 72, 127
2, 48000, Note_on_c, 1, 76, 127
2, 48000, Note_on_c, 1, 84, 127
2, 48360, Note_off_c, 1, 60, 0
2, 48360, Note_off_c, 1, 67, 0
2, 48360, Note_off_c, 1, 70, 0
2, 48360, Note_off_c, 1, 72, 0
2, 48360, Note_off_c, 1, 76, 0
2, 48360, Note_off_c, 1, 84, 0
2, 48400, Note_on_c, 1, 40, 127
2, 48400, Note_on_c, 1, 45, 127
2, 48400, Note_on_c, 1, 49, 127
2, 48400, Note_on_c, 1, 52, 127
2, 48400, Note_on_c, 1, 64, 127
2, 48400, Note_on_c, 1, 76, 127
2, 48440, Note_on_c, 1, 37, 127
2, 48440, Note_off_c, 1, 40, 0
2, 48440, Note_off_c, 1, 45, 0
2, 48440, Note_on_c, 1, 46, 127
2, 48440, Note_off_c, 1, 52, 0
2, 48440, Note_off_c, 1, 64, 0
2, 48440, Note_on_c, 1, 66, 127
2, 48440, Note_on_c, 1, 73, 127
2, 48440, Note_off_c, 1, 76, 0
2, 48440, Note_on_c, 1, 78, 127
2, 48480, Note_off_c, 1, 37, 0
2, 48480, Note_on_c, 1, 40, 127
2, 48480, Note_on_c, 1, 45, 127
2, 48480, Note_off_c, 1, 46, 0
2, 48480, Note_on_c, 1, 52, 127
2, 48480, Note_on_c, 1, 64, 127
2, 48480, Note_off_c, 1, 66, 0
2, 48480, Note_off_c, 1, 73, 0
2, 48480, Note_on_c, 1, 76, 127
2, 48480, Note_off_c, 1, 78, 0
2, 48520, Note_on_c, 1, 36, 127
2, 48520, Note_on_c, 1, 39, 127
2, 48520, Note_off_c, 1, 40, 0
2, 48520, Note_off_c, 1, 45, 0
2, 48520, Note_on_c, 1, 48, 127
2, 48520, Note_off_c, 1, 49, 0
2, 48520, Note_off_c, 1, 52, 0
2, 48520, Note_off_c, 1, 64, 0
2, 48520, Note_on_c, 1, 69, 127
2, 48520, Note_on_c, 1, 72, 127
2, 48520, Note_on_c, 1, 75, 127
2, 48520, Note_off_c, 1, 76, 0
2, 48520, Note_on_c, 1, 81, 127
2, 48560, Note_off_c, 1, 36, 0
2, 48560, Note_off_c, 1, 39, 0
2, 48560, Note_on_c, 1, 40, 127
2, 48560, Note_on_c, 1, 45, 127
2, 48560, Note_off_c, 1, 48, 0
2, 48560, Note_on_c, 1, 49, 127
2, 48560, Note_on_c, 1, 52, 127
2, 48560, Note_on_c, 1, 64, 127
2, 48560, Note_off_c, 1, 69, 0
2, 48560, Note_off_c, 1, 72, 0
2, 48560, Note_off_c, 1, 75, 0
2, 48560, Note_on_c, 1, 76, 127
2, 48560, Note_off_c, 1, 81, 0
2, 48600, Note_off_c, 1, 40, 0
2, 48600, Note_on_c, 1, 42, 127
2, 48600, Note_off_c, 1, 45, 0
2, 48600, Note_off_c, 1, 49, 0
2, 48600, Note_on_c, 1, 50, 127
2, 48600, Note_off_c, 1, 52, 0
2, 48600, Note_on_c, 1, 57, 127
2, 48600, Note_on_c, 1, 62, 127
2, 48600, Note_off_c, 1, 64, 0
2, 48600, Note_on_c, 1, 66, 127
2, 48600, Note_off_c, 1, 76, 0
2, 48640, Note_off_c, 1, 50, 0
2, 48640, Note_off_c, 1, 57, 0
2, 48640, Note_on_c, 1, 61, 127
2, 48640, Note_off_c, 1, 62, 0
2, 48640, Note_on_c, 1, 64, 127
2, 48640, Note_off_c, 1, 66, 0
2, 48640, Note_on_c, 1, 70, 127
2, 48640, Note_on_c, 1, 78, 127
2, 48680, Note_off_c, 1, 42, 0
2, 48680, Note_on_c, 1, 57, 127
2, 48680, Note_on_c, 1, 59, 127
2, 48680, Note_off_c, 1, 61, 0
2, 48680, Note_on_c, 1, 63, 127
2, 48680, Note_off_c, 1, 64, 0
2, 48680, Note_on_c, 1, 66, 127
2, 48680, Note_on_c, 1, 69, 127
2, 48680, Note_off_c, 1, 70, 0
2, 48680, Note_on_c, 1, 71, 127
2, 48680, Note_on_c, 1, 75, 127
2, 48680, Note_on_c, 1, 83, 127
2, 48720, Note_on_c, 1, 40, 127
2, 48720, Note_on_c, 1, 45, 127
2, 48720, Note_on_c, 1, 49, 127
2, 48720, Note_on_c, 1, 52, 127
2, 48720, Note_off_c, 1, 57, 0
2, 48720, Note_off_c, 1, 59, 0
2, 48720, Note_off_c, 1, 63, 0
2, 48720, Note_off_c, 1, 66, 0
2, 48720, Note_off_c, 1, 69, 0
2, 48720, Note_off_c, 1, 71, 0
2, 48720, Note_off_c, 1, 75, 0
2, 48720, Note_on_c, 1, 76, 127
2, 48720, Note_off_c, 1, 78, 0
2, 48720, Note_off_c, 1, 83, 0
2, 48760, Note_off_c, 1, 40, 0
2, 48760, Note_off_c, 1, 45, 0
2, 48760, Note_off_c, 1, 49, 0
2, 48760, Note_off_c, 1, 52, 0
2, 48760, Note_off_c, 1, 76, 0
2, 48800, Note_on_c, 1, 42, 127
2, 48800, Note_on_c, 1, 48, 127
2, 48800, Note_on_c, 1, 70, 127
2, 48800, Note_on_c, 1, 75, 127
2, 49200, Note_off_c, 1, 42, 0
2, 49200, Note_off_c, 1, 48, 0
2, 49200, Note_off_c, 1, 70, 0
2, 49200, Note_off_c, 1, 75, 0
2, 49240, Note_on_c, 1, 41, 127
2, 49240, Note_on_c, 1, 46, 127
2, 49240, Note_on_c, 1, 53, 127
2, 49240, Note_on_c, 1, 87, 127
2, 49600, Note_off_c, 1, 41, 0
2, 49600, Note_off_c, 1, 46, 0
2, 49600, Note_off_c, 1, 53, 0
2, 49600, Note_on_c, 1, 56, 127
2, 49600, Note_on_c, 1, 59, 127
2, 49600, Note_on_c, 1, 64, 127
2, 49600, Note_off_c, 1, 87, 0
2, 49640, Note_on_c, 1, 40, 127
2, 49640, Note_on_c, 1, 55, 127
2, 49640, Note_off_c, 1, 56, 0
2, 49640, Note_off_c, 1, 59, 0
2, 49640, Note_off_c, 1, 64, 0
2, 49640, Note_on_c, 1, 71, 127
2, 49640, Note_on_c, 1, 79, 127
2, 49640, Note_on_c, 1, 83, 127
2, 49680, Note_on_c, 1, 47, 127
2, 49680, Note_off_c, 1, 55, 0
2, 50000, Note_off_c, 1, 40, 0
2, 50000, Note_off_c, 1, 47, 0
2, 50000, Note_on_c, 1, 67, 127
2, 50000, Note_off_c, 1, 79, 0
2, 50000, Note_off_c, 1, 83, 0
2, 50040, Note_on_c, 1, 34, 127
2, 50040, Note_on_c, 1, 46, 127
2, 50040, Note_on_c, 1, 50, 127
2, 50040, Note_on_c, 1, 53, 127
2, 50040, Note_on_c, 1, 58, 127
2, 50040, Note_on_c, 1, 65, 127
2, 50040, Note_off_c, 1, 67, 0
2, 50040, Note_on_c, 1, 70, 127
2, 50040, Note_off_c, 1, 71, 0
2, 50040, Note_on_c, 1, 72, 127
2, 50040, Note_on_c, 1, 74, 127
2, 50040, Note_on_c, 1, 77, 127
2, 50080, Note_off_c, 1, 34, 0
2, 50080, Note_off_c, 1, 46, 0
2, 50080, Note_off_c, 1, 50, 0
2, 50080, Note_off_c, 1, 53, 0
2, 50080, Note_off_c, 1, 58, 0
2, 50080, Note_off_c, 1, 65, 0
2, 50080, Note_off_c, 1, 70, 0
2, 50080, Note_off_c, 1, 72, 0
2, 50080, Note_off_c, 1, 74, 0
2, 50080, Note_off_c, 1, 77, 0
2, 50120, Note_on_c, 1, 37, 127
2, 50120, Note_on_c, 1, 45, 127
2, 50120, Note_on_c, 1, 86, 127
2, 50160, Note_off_c, 1, 37, 0
2, 50160, Note_off_c, 1, 45, 0
2, 50160, Note_on_c, 1, 52, 127
2, 50160, Note_on_c, 1, 66, 127
2, 50160, Note_on_c, 1, 69, 127
2, 50160, Note_on_c, 1, 73, 127
2, 50160, Note_on_c, 1, 77, 127
2, 50160, Note_off_c, 1, 86, 0
2, 50200, Note_off_c, 1, 52, 0
2, 50200, Note_on_c, 1, 62, 127
2, 50200, Note_off_c, 1, 73, 0
2, 50200, Note_off_c, 1, 77, 0
2, 50200, Note_on_c, 1, 97, 127
2, 50240, Note_on_c, 1, 43, 127
2, 50240, Note_on_c, 1, 49, 127
2, 50240, Note_off_c, 1, 62, 0
2, 50240, Note_off_c, 1, 66, 0
2, 50240, Note_off_c, 1, 69, 0
2, 50240, Note_on_c, 1, 73, 127
2, 50240, Note_off_c, 1, 97, 0
2, 50280, Note_off_c, 1, 43, 0
2, 50280, Note_off_c, 1, 49, 0
2, 50280, Note_on_c, 1, 59, 127
2, 50280, Note_on_c, 1, 64, 127
2, 50280, Note_off_c, 1, 73, 0
2, 50280, Note_on_c, 1, 74, 127
2, 50280, Note_on_c, 1, 86, 127
2, 50320, Note_on_c, 1, 35, 127
2, 50320, Note_on_c, 1, 39, 127
2, 50320, Note_on_c, 1, 44, 127
2, 50320, Note_on_c, 1, 56, 127
2, 50320, Note_off_c, 1, 59, 0
2, 50320, Note_on_c, 1, 63, 127
2, 50320, Note_off_c, 1, 64, 0
2, 50320, Note_off_c, 1, 74, 0
2, 50320, Note_off_c, 1, 86, 0
2, 50360, Note_off_c, 1, 35, 0
2, 50360, Note_off_c, 1, 39, 0
2, 50360, Note_off_c, 1, 44, 0
2, 50360, Note_on_c, 1, 55, 127
2, 50360, Note_off_c, 1, 56, 0
2, 50360, Note_on_c, 1, 60, 127
2, 50360, Note_off_c, 1, 63, 0
2, 50360, Note_on_c, 1, 70, 127
2, 50360, Note_on_c, 1, 76, 127
2, 50360, Note_on_c, 1, 82, 127
2, 50400, Note_on_c, 1, 46, 127
2, 50400, Note_on_c, 1, 49, 127
2, 50400, Note_on_c, 1, 54, 127
2, 50400, Note_off_c, 1, 55, 0
2, 50400, Note_on_c, 1, 58, 127
2, 50400, Note_off_c, 1, 60, 0
2, 50400, Note_on_c, 1, 65, 127
2, 50400, Note_off_c, 1, 70, 0
2, 50400, Note_off_c, 1, 76, 0
2, 50400, Note_on_c, 1, 77, 127
2, 50400, Note_off_c, 1, 82, 0
2, 50440, Note_off_c, 1, 46, 0
2, 50440, Note_off_c, 1, 49, 0
2, 50440, Note_off_c, 1, 54, 0
2, 50440, Note_off_c, 1, 58, 0
2, 50440, Note_off_c, 1, 65, 0
2, 50440, Note_off_c, 1, 77, 0
2, 50480, Note_on_c, 1, 50, 127
2, 50480, Note_on_c, 1, 65, 127
2, 50480, Note_on_c, 1, 69, 127
2, 50480, Note_on_c, 1, 81, 127
2, 50880, Note_off_c, 1, 50, 0
2, 50880, Note_off_c, 1, 81, 0
2, 50920, Note_on_c, 1, 50, 127
2, 50920, Note_on_c, 1, 81, 127
2, 51280, Note_off_c, 1, 50, 0
2, 51280, Note_off_c, 1, 65, 0
2, 51280, Note_off_c, 1, 69, 0
2, 51280, Note_off_c, 1, 81, 0
2, 51320, Note_on_c, 1, 50, 127
2, 51320, Note_on_c, 1, 65, 127
2, 51320, Note_on_c, 1, 69, 127
2, 51320, Note_on_c, 1, 81, 127
2, 51680, Note_off_c, 1, 50, 0
2, 51680, Note_off_c, 1, 81, 0
2, 51720, Note_on_c, 1, 81, 127
2, 52080, Note_off_c, 1, 65, 0
2, 52080, Note_off_c, 1, 69, 0
2, 52080, Note_off_c, 1, 81, 0
2, 52120, Note_on_c, 1, 65, 127
2, 52120, Note_on_c, 1, 75, 127
2, 52120, Note_on_c, 1, 81, 127
2, 52120, Note_on_c, 1, 86, 127
2, 52240, Note_off_c, 1, 86, 0
2, 52280, Note_on_c, 1, 86, 127
2, 52320, Note_off_c, 1, 65, 0
2, 52320, Note_off_c, 1, 75, 0
2, 52320, Note_off_c, 1, 81, 0
2, 52320, Note_off_c, 1, 86, 0
2, 52360, Note_on_c, 1, 65, 127
2, 52360, Note_on_c, 1, 75, 127
2, 52360, Note_on_c, 1, 81, 127
2, 52360, Note_on_c, 1, 86, 127
2, 52520, Note_off_c, 1, 65, 0
2, 52520, Note_off_c, 1, 75, 0
2, 52520, Note_off_c, 1, 86, 0
2, 52560, Note_on_c, 1, 69, 127
2, 52560, Note_on_c, 1, 72, 127
2, 52560, Note_on_c, 1, 77, 127
2, 52560, Note_off_c, 1, 81, 0
2, 52560, Note_on_c, 1, 89, 127
2, 52920, Note_on_c, 1, 84, 127
2, 52920, Note_off_c, 1, 89, 0
2, 52960, Note_off_c, 1, 84, 0
2, 52960, Note_on_c, 1, 89, 127
2, 53360, Note_on_c, 1, 31, 127
2, 53360, Note_on_c, 1, 43, 127
2, 53360, Note_on_c, 1, 50, 127
2, 53360, Note_on_c, 1, 62, 127
2, 53360, Note_off_c, 1, 69, 0
2, 53360, Note_on_c, 1, 71, 127
2, 53360, Note_off_c, 1, 72, 0
2, 53360, Note_off_c, 1, 77, 0
2, 53360, Note_on_c, 1, 83, 127
2, 53360, Note_off_c, 1, 89, 0
2, 53400, Note_off_c, 1, 31, 0
2, 53400, Note_off_c, 1, 43, 0
2, 53400, Note_off_c, 1, 50, 0
2, 53400, Note_off_c, 1, 62, 0
2, 53400, Note_on_c, 1, 67, 127
2, 53400, Note_on_c, 1, 76, 127
2, 53400, Note_off_c, 1, 83, 0
2, 53400, Note_on_c, 1, 88, 127
2, 53720, Note_off_c, 1, 67, 0
2, 53720, Note_off_c, 1, 71, 0
2, 53720, Note_off_c, 1, 76, 0
2, 53720, Note_off_c, 1, 88, 0
2, 53760, Note_on_c, 1, 36, 127
2, 53760, Note_on_c, 1, 59, 127
2, 53760, Note_on_c, 1, 74, 127
2, 54160, Note_on_c, 1, 57, 127
2, 54160, Note_off_c, 1, 59, 0
2, 54160, Note_on_c, 1, 72, 127
2, 54360, Note_on_c, 1, 32, 127
2, 54360, Note_off_c, 1, 36, 0
2, 54360, Note_off_c, 1, 57, 0
2, 54360, Note_off_c, 1, 72, 0
2, 54360, Note_off_c, 1, 74, 0
2, 54360, Note_on_c, 1, 75, 127
2, 54400, Note_off_c, 1, 32, 0
2, 54400, Note_off_c, 1, 75, 0
2, 54440, Note_on_c, 1, 36, 127
2, 54440, Note_on_c, 1, 57, 127
2, 54440, Note_on_c, 1, 72, 127
2, 54440, Note_on_c, 1, 74, 127
2, 54600, Note_off_c, 1, 36, 0
2, 54600, Note_off_c, 1, 57, 0
2, 54600, Note_off_c, 1, 72, 0
2, 54600, Note_off_c, 1, 74, 0
2, 54640, Note_on_c, 1, 66, 127
2, 54640, Note_on_c, 1, 69, 127
2, 54640, Note_on_c, 1, 72, 127
2, 54640, Note_on_c, 1, 75, 127
2, 54640, Note_on_c, 1, 78, 127
2, 55000, Note_off_c, 1, 66, 0
2, 55000, Note_off_c, 1, 69, 0
2, 55000, Note_off_c, 1, 72, 0
2, 55000, Note_off_c, 1, 75, 0
2, 55000, Note_off_c, 1, 78, 0
2, 55040, Note_on_c, 1, 59, 127
2, 55040, Note_on_c, 1, 64, 127
2, 55040, Note_on_c, 1, 67, 127
2, 55040, Note_on_c, 1, 71, 127
2, 55800, Note_off_c, 1, 59, 0
2, 55800, Note_off_c, 1, 64, 0
2, 55800, Note_off_c, 1, 67, 0
2, 55800, Note_off_c, 1, 71, 0
2, 55840, Note_on_c, 1, 64, 127
2, 55840, Note_on_c, 1, 67, 127
2, 55840, Note_on_c, 1, 71, 127
2, 56440, Note_on_c, 1, 70, 127
2, 56440, Note_off_c, 1, 71, 0
2, 56480, Note_off_c, 1, 64, 0
2, 56480, Note_off_c, 1, 67, 0
2, 56480, Note_off_c, 1, 70, 0
2, 56520, Note_on_c, 1, 64, 127
2, 56520, Note_on_c, 1, 67, 127
2, 56520, Note_on_c, 1, 70, 127
2, 57080, Note_off_c, 1, 70, 0
2, 57120, Note_on_c, 1, 70, 127
2, 57480, Note_off_c, 1, 64, 0
2, 57480, Note_off_c, 1, 67, 0
2, 57480, Note_off_c, 1, 70, 0
2, 57520, Note_on_c, 1, 58, 127
2, 57520, Note_on_c, 1, 64, 127
2, 57520, Note_on_c, 1, 67, 127
2, 58280, Note_off_c, 1, 58, 0
2, 58320, Note_on_c, 1, 58, 127
2, 58720, Note_off_c, 1, 58, 0
2, 58720, Note_off_c, 1, 64, 0
2, 58720, Note_off_c, 1, 67, 0
2, 58760, Note_on_c, 1, 58, 127
2, 58760, Note_on_c, 1, 64, 127
2, 58760, Note_on_c, 1, 67, 127
2, 59120, Note_off_c, 1, 67, 0
2, 59520, Note_off_c, 1, 58, 0
2, 59520, Note_off_c, 1, 64, 0
2, 59560, Note_on_c, 1, 54, 127
2, 59560, Note_on_c, 1, 59, 127
2, 59560, Note_on_c, 1, 68, 127
2, 59560, Note_on_c, 1, 85, 127
2, 59920, Note_off_c, 1, 54, 0
2, 59920, Note_on_c, 1, 56, 127
2, 59920, Note_off_c, 1, 59, 0
2, 59920, Note_on_c, 1, 62, 127
2, 59920, Note_off_c, 1, 68, 0
2, 59920, Note_on_c, 1, 84, 127
2, 59920, Note_off_c, 1, 85, 0
2, 59960, Note_off_c, 1, 56, 0
2, 59960, Note_on_c, 1, 57, 127
2, 59960, Note_on_c, 1, 60, 127
2, 59960, Note_off_c, 1, 62, 0
2, 59960, Note_on_c, 1, 64, 127
2, 59960, Note_on_c, 1, 83, 127
2, 59960, Note_off_c, 1, 84, 0
2, 60320, Note_off_c, 1, 83, 0
2, 60360, Note_on_c, 1, 83, 127
2, 60720, Note_off_c, 1, 57, 0
2, 60720, Note_off_c, 1, 60, 0
2, 60720, Note_on_c, 1, 77, 127
2, 60720, Note_on_c, 1, 81, 127
2, 60720, Note_off_c, 1, 83, 0
2, 60760, Note_on_c, 1, 57, 127
2, 60760, Note_on_c, 1, 60, 127
2, 60760, Note_off_c, 1, 77, 0
2, 60760, Note_off_c, 1, 81, 0
2, 60760, Note_on_c, 1, 83, 127
2, 61000, Note_off_c, 1, 57, 0
2, 61000, Note_off_c, 1, 60, 0
2, 61000, Note_on_c, 1, 63, 127
2, 61000, Note_off_c, 1, 64, 0
2, 61000, Note_on_c, 1, 66, 127
2, 61000, Note_on_c, 1, 69, 127
2, 61000, Note_on_c, 1, 72, 127
2, 61000, Note_on_c, 1, 81, 127
2, 61000, Note_off_c, 1, 83, 0
2, 61040, Note_off_c, 1, 63, 0
2, 61040, Note_off_c, 1, 66, 0
2, 61040, Note_off_c, 1, 69, 0
2, 61040, Note_off_c, 1, 72, 0
2, 61040, Note_off_c, 1, 81, 0
2, 61080, Note_on_c, 1, 57, 127
2, 61080, Note_on_c, 1, 60, 127
2, 61080, Note_on_c, 1, 64, 127
2, 61080, Note_on_c, 1, 83, 127
2, 61760, Note_off_c, 1, 83, 0
2, 61800, Note_on_c, 1, 76, 127
2, 61960, Note_off_c, 1, 57, 0
2, 61960, Note_off_c, 1, 60, 0
2, 61960, Note_off_c, 1, 64, 0
2, 61960, Note_off_c, 1, 76, 0
2, 62000, Note_on_c, 1, 81, 127
2, 62360, Note_off_c, 1, 81, 0
2, 62400, Note_on_c, 1, 39, 127
2, 62400, Note_on_c, 1, 51, 127
2, 62400, Note_on_c, 1, 70, 127
2, 62400, Note_on_c, 1, 79, 127
2, 62400, Note_on_c, 1, 82, 127
2, 62960, Note_on_c, 1, 58, 127
2, 62960, Note_off_c, 1, 70, 0
2, 62960, Note_off_c, 1, 79, 0
2, 62960, Note_off_c, 1, 82, 0
2, 63000, Note_off_c, 1, 58, 0
2, 63000, Note_on_c, 1, 70, 127
2, 63000, Note_on_c, 1, 79, 127
2, 63000, Note_on_c, 1, 82, 127
2, 63160, Note_off_c, 1, 39, 0
2, 63160, Note_off_c, 1, 51, 0
2, 63160, Note_off_c, 1, 70, 0
2, 63160, Note_off_c, 1, 79, 0
2, 63160, Note_off_c, 1, 82, 0
2, 63240, Note_on_c, 1, 36, 127
2, 63240, Note_on_c, 1, 48, 127
2, 63240, Note_on_c, 1, 70, 127
2, 64000, Note_off_c, 1, 36, 0
2, 64000, Note_off_c, 1, 48, 0
2, 64000, Note_off_c, 1, 70, 0
2, 64040, Note_on_c, 1, 34, 127
2, 64040, Note_on_c, 1, 75, 127
2, 64400, Note_off_c, 1, 34, 0
2, 64400, Note_on_c, 1, 36, 127
2, 64400, Note_on_c, 1, 48, 127
2, 64400, Note_off_c, 1, 75, 0
2, 64440, Note_off_c, 1, 36, 0
2, 64440, Note_on_c, 1, 55, 127
2, 64440, Note_on_c, 1, 64, 127
2, 64440, Note_on_c, 1, 70, 127
2, 64440, Note_on_c, 1, 76, 127
2, 64800, Note_off_c, 1, 48, 0
2, 64800, Note_off_c, 1, 55, 0
2, 64800, Note_off_c, 1, 64, 0
2, 64800, Note_off_c, 1, 70, 0
2, 64800, Note_off_c, 1, 76, 0
2, 64840, Note_on_c, 1, 48, 127
2, 64840, Note_on_c, 1, 56, 127
2, 64840, Note_on_c, 1, 60, 127
2, 64840, Note_on_c, 1, 76, 127
2, 64840, Note_on_c, 1, 80, 127
2, 64840, Note_on_c, 1, 88, 127
2, 65040, Note_off_c, 1, 56, 0
2, 65040, Note_on_c, 1, 57, 127
2, 65040, Note_off_c, 1, 80, 0
2, 65040, Note_on_c, 1, 81, 127
2, 65080, Note_on_c, 1, 56, 127
2, 65080, Note_off_c, 1, 57, 0
2, 65080, Note_on_c, 1, 80, 127
2, 65080, Note_off_c, 1, 81, 0
2, 65320, Note_off_c, 1, 56, 0
2, 65320, Note_off_c, 1, 80, 0
2, 65360, Note_off_c, 1, 48, 0
2, 65360, Note_off_c, 1, 60, 0
2, 65360, Note_off_c, 1, 76, 0
2, 65360, Note_off_c, 1, 88, 0
2, 65400, Note_on_c, 1, 48, 127
2, 65400, Note_on_c, 1, 60, 127
2, 65400, Note_on_c, 1, 76, 127
2, 65400, Note_on_c, 1, 88, 127
2, 65600, Note_off_c, 1, 60, 0
2, 65600, Note_off_c, 1, 76, 0
2, 65600, Note_on_c, 1, 83, 127
2, 65600, Note_off_c, 1, 88, 0
2, 65640, Note_off_c, 1, 48, 0
2, 65640, Note_off_c, 1, 83, 0
2, 65640, Note_on_c, 1, 84, 127
2, 65680, Note_on_c, 1, 72, 127
2, 65680, Note_on_c, 1, 80, 127
2, 65680, Note_on_c, 1, 87, 127
2, 65680, Note_on_c, 1, 96, 127
2, 65800, Note_on_c, 1, 79, 127
2, 65800, Note_off_c, 1, 80, 0
2, 65840, Note_off_c, 1, 79, 0
2, 65840, Note_on_c, 1, 80, 127
2, 65920, Note_on_c, 1, 79, 127
2, 65920, Note_off_c, 1, 80, 0
2, 65960, Note_off_c, 1, 79, 0
2, 65960, Note_on_c, 1, 80, 127
2, 66080, Note_on_c, 1, 79, 127
2, 66080, Note_off_c, 1, 80, 0
2, 66440, Note_off_c, 1, 79, 0
2, 66440, Note_on_c, 1, 80, 127
2, 66480, Note_on_c, 1, 79, 127
2, 66480, Note_off_c, 1, 80, 0
2, 66880, Note_off_c, 1, 79, 0
2, 66880, Note_on_c, 1, 80, 127
2, 66960, Note_on_c, 1, 79, 127
2, 66960, Note_off_c, 1, 80, 0
2, 67200, Note_on_c, 1, 52, 127
2, 67200, Note_off_c, 1, 72, 0
2, 67200, Note_off_c, 1, 79, 0
2, 67200, Note_off_c, 1, 84, 0
2, 67200, Note_off_c, 1, 87, 0
2, 67200, Note_off_c, 1, 96, 0
2, 67240, Note_off_c, 1, 52, 0
2, 67240, Note_on_c, 1, 67, 127
2, 67240, Note_on_c, 1, 71, 127
2, 67240, Note_on_c, 1, 74, 127
2, 67240, Note_on_c, 1, 79, 127
2, 67240, Note_on_c, 1, 83, 127
2, 67480, Note_off_c, 1, 67, 0
2, 67480, Note_off_c, 1, 71, 0
2, 67480, Note_off_c, 1, 74, 0
2, 67480, Note_off_c, 1, 79, 0
2, 67480, Note_off_c, 1, 83, 0
2, 67520, Note_on_c, 1, 67, 127
2, 67520, Note_on_c, 1, 71, 127
2, 67520, Note_on_c, 1, 74, 127
2, 67520, Note_on_c, 1, 79, 127
2, 67520, Note_on_c, 1, 83, 127
2, 68440, Note_off_c, 1, 67, 0
2, 68440, Note_off_c, 1, 71, 0
2, 68440, Note_off_c, 1, 74, 0
2, 68440, Note_on_c, 1, 86, 127
2, 68440, Note_on_c, 1, 91, 127
2, 68440, Note_on_c, 1, 95, 127
2, 68480, Note_on_c, 1, 67, 127
2, 68480, Note_on_c, 1, 71, 127
2, 68480, Note_on_c, 1, 74, 127
2, 68480, Note_off_c, 1, 86, 0
2, 68480, Note_off_c, 1, 91, 0
2, 68480, Note_off_c, 1, 95, 0
2, 68840, Note_off_c, 1, 67, 0
2, 68840, Note_off_c, 1, 71, 0
2, 68840, Note_off_c, 1, 74, 0
2, 68840, Note_off_c, 1, 79, 0
2, 68840, Note_off_c, 1, 83, 0
2, 68880, Note_on_c, 1, 48, 127
2, 68880, Note_on_c, 1, 55, 127
2, 68880, Note_on_c, 1, 60, 127
2, 68880, Note_on_c, 1, 64, 127
2, 68880, Note_on_c, 1, 67, 127
2, 68880, Note_on_c, 1, 72, 127
2, 69680, Note_off_c, 1, 48, 0
2, 69680, Note_off_c, 1, 55, 0
2, 69680, Note_off_c, 1, 60, 0
2, 69680, Note_off_c, 1, 64, 0
2, 69680, Note_off_c, 1, 67, 0
2, 69680, Note_off_c, 1, 72, 0
2, 69720, Note_on_c, 1, 48, 127
2, 69720, Note_on_c, 1, 55, 127
2, 69720, Note_on_c, 1, 60, 127
2, 69720, Note_on_c, 1, 64, 127
2, 69720, Note_on_c, 1, 67, 127
2, 69720, Note_on_c, 1, 72, 127
2, 70200, Note_off_c, 1, 48, 0
2, 70200, Note_off_c, 1, 55, 0
2, 70200, Note_off_c, 1, 60, 0
2, 70200, Note_off_c, 1, 64, 0
2, 70200, Note_off_c, 1, 67, 0
2, 70200, Note_off_c, 1, 72, 0
2, 71000, Note_on_c, 1, 43, 127
2, 71000, Note_on_c, 1, 55, 127
2, 71000, Note_on_c, 1, 62, 127
2, 71000, Note_on_c, 1, 67, 127
2, 71000, Note_on_c, 1, 70, 127
2, 71000, Note_on_c, 1, 74, 127
2, 71920, Note_off_c, 1, 62, 0
2, 71920, Note_off_c, 1, 67, 0
2, 71920, Note_off_c, 1, 70, 0
2, 71920, Note_off_c, 1, 74, 0
2, 71960, Note_on_c, 1, 67, 127
2, 71960, Note_on_c, 1, 70, 127
2, 71960, Note_on_c, 1, 74, 127
2, 72480, Note_off_c, 1, 43, 0
2, 72480, Note_off_c, 1, 55, 0
2, 72480, Note_off_c, 1, 67, 0
2, 72480, Note_off_c, 1, 70, 0
2, 72480, Note_off_c, 1, 74, 0
2, 72520, Note_on_c, 1, 43, 127
2, 72520, Note_on_c, 1, 55, 127
2, 72520, Note_on_c, 1, 67, 127
2, 72520, Note_on_c, 1, 70, 127
2, 72520, Note_on_c, 1, 74, 127
2, 72560, Note_off_c, 1, 43, 0
2, 72560, Note_off_c, 1, 55, 0
2, 72560, Note_off_c, 1, 67, 0
2, 72560, Note_off_c, 1, 70, 0
2, 72560, Note_off_c, 1, 74, 0
2, 72600, Note_on_c, 1, 41, 127
2, 72600, Note_on_c, 1, 53, 127
2, 72600, Note_on_c, 1, 69, 127
2, 72600, Note_on_c, 1, 72, 127
2, 72600, Note_on_c, 1, 77, 127
2, 72880, Note_on_c, 1, 48, 127
2, 72880, Note_off_c, 1, 53, 0
2, 72880, Note_on_c, 1, 60, 127
2, 72880, Note_on_c, 1, 68, 127
2, 72880, Note_off_c, 1, 69, 0
2, 72880, Note_off_c, 1, 77, 0
2, 72920, Note_off_c, 1, 41, 0
2, 72920, Note_off_c, 1, 48, 0
2, 72920, Note_off_c, 1, 60, 0
2, 72920, Note_off_c, 1, 68, 0
2, 72920, Note_off_c, 1, 72, 0
2, 73000, Note_on_c, 1, 58, 127
2, 73000, Note_on_c, 1, 65, 127
2, 73000, Note_on_c, 1, 67, 127
2, 73000, Note_on_c, 1, 73, 127
2, 73760, Note_off_c, 1, 58, 0
2, 73760, Note_off_c, 1, 65, 0
2, 73760, Note_off_c, 1, 67, 0
2, 73760, Note_off_c, 1, 73, 0
2, 73800, Note_on_c, 1, 62, 127
2, 73800, Note_on_c, 1, 65, 127
2, 73800, Note_on_c, 1, 70, 127
2, 73800, Note_on_c, 1, 77, 127
2, 74720, Note_on_c, 1, 55, 127
2, 74720, Note_on_c, 1, 58, 127
2, 74720, Note_off_c, 1, 65, 0
2, 74720, Note_on_c, 1, 67, 127
2, 74720, Note_off_c, 1, 77, 0
2, 74760, Note_off_c, 1, 55, 0
2, 74760, Note_off_c, 1, 58, 0
2, 74760, Note_off_c, 1, 62, 0
2, 74760, Note_off_c, 1, 67, 0
2, 74760, Note_off_c, 1, 70, 0
2, 74800, Note_on_c, 1, 62, 127
2, 74800, Note_on_c, 1, 65, 127
2, 74800, Note_on_c, 1, 70, 127
2, 74800, Note_on_c, 1, 77, 127
2, 75760, Note_off_c, 1, 62, 0
2, 75800, Note_off_c, 1, 65, 0
2, 75800, Note_off_c, 1, 70, 0
2, 75800, Note_off_c, 1, 77, 0
2, 75840, Note_on_c, 1, 62, 127
2, 75840, Note_on_c, 1, 65, 127
2, 75840, Note_on_c, 1, 70, 127
2, 75840, Note_on_c, 1, 77, 127
2, 77000, Note_off_c, 1, 62, 0
2, 77000, Note_off_c, 1, 65, 0
2, 77000, Note_off_c, 1, 70, 0
2, 77000, Note_off_c, 1, 77, 0
2, 77080, Note_on_c, 1, 58, 127
2, 77080, Note_on_c, 1, 65, 127
2, 77080, Note_on_c, 1, 70, 127
2, 77080, Note_on_c, 1, 77, 127
2, 77080, Note_on_c, 1, 82, 127
2, 77360, Note_off_c, 1, 58, 0
2, 77360, Note_on_c, 1, 63, 127
2, 77360, Note_off_c, 1, 65, 0
2, 77360, Note_on_c, 1, 67, 127
2, 77360, Note_off_c, 1, 77, 0
2, 77360, Note_on_c, 1, 78, 127
2, 77360, Note_off_c, 1, 82, 0
2, 77400, Note_off_c, 1, 63, 0
2, 77400, Note_off_c, 1, 67, 0
2, 77400, Note_off_c, 1, 70, 0
2, 77400, Note_off_c, 1, 78, 0
2, 77400, Note_on_c, 1, 82, 127
2, 77440, Note_on_c, 1, 62, 127
2, 77440, Note_on_c, 1, 66, 127
2, 77440, Note_on_c, 1, 69, 127
2, 77440, Note_on_c, 1, 74, 127
2, 77440, Note_on_c, 1, 81, 127
2, 77440, Note_off_c, 1, 82, 0
2, 78200, Note_off_c, 1, 62, 0
2, 78200, Note_off_c, 1, 66, 0
2, 78200, Note_off_c, 1, 69, 0
2, 78200, Note_off_c, 1, 74, 0
2, 78200, Note_off_c, 1, 81, 0
2, 78240, Note_on_c, 1, 57, 127
2, 78240, Note_on_c, 1, 60, 127
2, 78240, Note_on_c, 1, 79, 127
2, 78240, Note_on_c, 1, 83, 127
2, 78560, Note_off_c, 1, 57, 0
2, 78560, Note_off_c, 1, 60, 0
2, 78560, Note_off_c, 1, 83, 0
2, 78640, Note_on_c, 1, 55, 127
2, 78640, Note_on_c, 1, 64, 127
2, 78640, Note_on_c, 1, 67, 127
2, 78640, Note_on_c, 1, 72, 127
2, 79280, Note_off_c, 1, 64, 0
2, 79280, Note_off_c, 1, 67, 0
2, 79320, Note_on_c, 1, 64, 127
2, 79320, Note_on_c, 1, 67, 127
2, 79440, Note_off_c, 1, 55, 0
2, 79440, Note_off_c, 1, 64, 0
2, 79440, Note_off_c, 1, 67, 0
2, 79440, Note_off_c, 1, 72, 0
2, 79440, Note_off_c, 1, 79, 0
2, 79480, Note_on_c, 1, 55, 127
2, 79480, Note_on_c, 1, 64, 127
2, 79480, Note_on_c, 1, 67, 127
2, 79480, Note_on_c, 1, 72, 127
2, 79480, Note_on_c, 1, 79, 127
2, 81040, Note_off_c, 1, 55, 0
2, 81040, Note_off_c, 1, 64, 0
2, 81040, Note_off_c, 1, 67, 0
2, 81040, Note_off_c, 1, 72, 0
2, 81040, Note_off_c, 1, 79, 0
2, 82120, Note_on_c, 1, 53, 127
2, 82120, Note_on_c, 1, 58, 127
2, 82120, Note_on_c, 1, 62, 127
2, 82120, Note_on_c, 1, 68, 127
2, 82480, Note_off_c, 1, 53, 0
2, 82480, Note_off_c, 1, 58, 0
2, 82480, Note_off_c, 1, 62, 0
2, 82480, Note_off_c, 1, 68, 0
2, 82520, Note_on_c, 1, 46, 127
2, 82520, Note_on_c, 1, 53, 127
2, 82520, Note_on_c, 1, 70, 127
2, 82520, Note_on_c, 1, 74, 127
2, 82880, Note_off_c, 1, 46, 0
2, 82880, Note_off_c, 1, 53, 0
2, 82880, Note_off_c, 1, 70, 0
2, 82880, Note_off_c, 1, 74, 0
2, 82920, Note_on_c, 1, 46, 127
2, 82920, Note_on_c, 1, 50, 127
2, 82920, Note_on_c, 1, 70, 127
2, 82920, Note_on_c, 1, 74, 127
2, 83480, Note_off_c, 1, 46, 0
2, 83480, Note_off_c, 1, 50, 0
2, 83680, Note_off_c, 1, 70, 0
2, 83680, Note_off_c, 1, 74, 0
2, 83720, Note_on_c, 1, 43, 127
2, 83720, Note_on_c, 1, 55, 127
2, 83720, Note_on_c, 1, 70, 127
2, 83720, Note_on_c, 1, 74, 127
2, 83720, Note_on_c, 1, 76, 127
2, 83720, Note_on_c, 1, 82, 127
2, 83760, Note_off_c, 1, 43, 0
2, 83760, Note_off_c, 1, 55, 0
2, 83760, Note_on_c, 1, 62, 127
2, 83760, Note_on_c, 1, 65, 127
2, 83760, Note_off_c, 1, 70, 0
2, 83760, Note_off_c, 1, 74, 0
2, 83760, Note_off_c, 1, 76, 0
2, 83760, Note_off_c, 1, 82, 0
2, 83760, Note_on_c, 1, 94, 127
2, 83760, Note_on_c, 1, 98, 127
2, 83800, Note_on_c, 1, 59, 127
2, 83800, Note_off_c, 1, 62, 0
2, 83800, Note_off_c, 1, 65, 0
2, 83800, Note_on_c, 1, 74, 127
2, 83800, Note_on_c, 1, 76, 127
2, 83800, Note_on_c, 1, 81, 127
2, 83800, Note_off_c, 1, 94, 0
2, 83800, Note_off_c, 1, 98, 0
2, 83840, Note_off_c, 1, 59, 0
2, 83840, Note_off_c, 1, 74, 0
2, 83840, Note_off_c, 1, 76, 0
2, 83840, Note_off_c, 1, 81, 0
2, 83880, Note_on_c, 1, 31, 127
2, 83880, Note_on_c, 1, 43, 127
2, 83880, Note_on_c, 1, 81, 127
2, 83920, Note_off_c, 1, 31, 0
2, 83920, Note_off_c, 1, 43, 0
2, 83920, Note_on_c, 1, 65, 127
2, 83920, Note_on_c, 1, 72, 127
2, 83920, Note_on_c, 1, 77, 127
2, 83920, Note_off_c, 1, 81, 0
2, 83920, Note_on_c, 1, 89, 127
2, 83960, Note_on_c, 1, 37, 127
2, 83960, Note_on_c, 1, 63, 127
2, 83960, Note_off_c, 1, 65, 0
2, 83960, Note_on_c, 1, 66, 127
2, 83960, Note_on_c, 1, 70, 127
2, 83960, Note_off_c, 1, 72, 0
2, 83960, Note_on_c, 1, 73, 127
2, 83960, Note_off_c, 1, 77, 0
2, 83960, Note_off_c, 1, 89, 0
2, 84000, Note_off_c, 1, 37, 0
2, 84000, Note_off_c, 1, 63, 0
2, 84000, Note_on_c, 1, 65, 127
2, 84000, Note_off_c, 1, 66, 0
2, 84000, Note_off_c, 1, 70, 0
2, 84000, Note_on_c, 1, 72, 127
2, 84000, Note_off_c, 1, 73, 0
2, 84000, Note_on_c, 1, 77, 127
2, 84000, Note_on_c, 1, 89, 127
2, 84080, Note_off_c, 1, 65, 0
2, 84080, Note_off_c, 1, 72, 0
2, 84080, Note_off_c, 1, 77, 0
2, 84080, Note_off_c, 1, 89, 0
2, 84120, Note_on_c, 1, 74, 127
2, 84120, Note_on_c, 1, 84, 127
2, 84120, Note_on_c, 1, 86, 127
2, 84480, Note_off_c, 1, 74, 0
2, 84480, Note_off_c, 1, 84, 0
2, 84480, Note_off_c, 1, 86, 0
2, 84520, Note_on_c, 1, 52, 127
2, 84520, Note_on_c, 1, 56, 127
2, 84520, Note_on_c, 1, 59, 127
2, 84520, Note_on_c, 1, 73, 127
2, 84520, Note_on_c, 1, 76, 127
2, 84520, Note_on_c, 1, 80, 127
2, 84640, Note_off_c, 1, 59, 0
2, 84640, Note_on_c, 1, 61, 127
2, 84640, Note_on_c, 1, 71, 127
2, 84640, Note_off_c, 1, 73, 0
2, 84680, Note_on_c, 1, 59, 127
2, 84680, Note_off_c, 1, 61, 0
2, 84680, Note_off_c, 1, 71, 0
2, 84680, Note_on_c, 1, 73, 127
2, 84840, Note_off_c, 1, 52, 0
2, 84840, Note_off_c, 1, 56, 0
2, 84840, Note_off_c, 1, 76, 0
2, 84840, Note_off_c, 1, 80, 0
2, 84880, Note_off_c, 1, 59, 0
2, 84880, Note_off_c, 1, 73, 0
2, 84920, Note_on_c, 1, 49, 127
2, 84920, Note_on_c, 1, 56, 127
2, 84920, Note_on_c, 1, 61, 127
2, 84920, Note_on_c, 1, 76, 127
2, 84920, Note_on_c, 1, 80, 127
2, 84920, Note_on_c, 1, 88, 127
2, 85680, Note_off_c, 1, 49, 0
2, 85680, Note_off_c, 1, 56, 0
2, 85680, Note_off_c, 1, 61, 0
2, 85680, Note_off_c, 1, 76, 0
2, 85680, Note_off_c, 1, 80, 0
2, 85680, Note_off_c, 1, 88, 0
2, 85720, Note_on_c, 1, 52, 127
2, 85720, Note_on_c, 1, 63, 127
2, 85720, Note_on_c, 1, 66, 127
2, 85720, Note_on_c, 1, 69, 127
2, 86040, Note_off_c, 1, 52, 0
2, 86040, Note_off_c, 1, 63, 0
2, 86040, Note_off_c, 1, 66, 0
2, 86040, Note_off_c, 1, 69, 0
2, 86080, Note_on_c, 1, 52, 127
2, 86080, Note_on_c, 1, 63, 127
2, 86080, Note_on_c, 1, 66, 127
2, 86080, Note_on_c, 1, 69, 127
2, 86120, Note_off_c, 1, 52, 0
2, 86120, Note_off_c, 1, 63, 0
2, 86120, Note_off_c, 1, 66, 0
2, 86120, Note_off_c, 1, 69, 0
2, 86160, Note_on_c, 1, 49, 127
2, 86160, Note_on_c, 1, 59, 127
2, 86160, Note_on_c, 1, 66, 127
2, 86160, Note_on_c, 1, 70, 127
2, 86440, Note_off_c, 1, 66, 0
2, 86440, Note_off_c, 1, 70, 0
2, 86480, Note_off_c, 1, 49, 0
2, 86480, Note_on_c, 1, 50, 127
2, 86480, Note_on_c, 1, 68, 127
2, 86480, Note_on_c, 1, 71, 127
2, 86520, Note_on_c, 1, 49, 127
2, 86520, Note_off_c, 1, 50, 0
2, 86520, Note_off_c, 1, 68, 0
2, 86520, Note_off_c, 1, 71, 0
2, 86560, Note_on_c, 1, 65, 127
2, 86560, Note_on_c, 1, 70, 127
2, 86920, Note_off_c, 1, 70, 0
2, 86960, Note_on_c, 1, 70, 127
2, 87320, Note_off_c, 1, 70, 0
2, 87360, Note_on_c, 1, 68, 127
2, 87680, Note_off_c, 1, 49, 0
2, 87680, Note_off_c, 1, 59, 0
2, 87680, Note_off_c, 1, 68, 0
2, 87680, Note_on_c, 1, 71, 127
2, 87720, Note_off_c, 1, 65, 0
2, 87720, Note_off_c, 1, 71, 0
2, 87760, Note_on_c, 1, 37, 127
2, 87760, Note_on_c, 1, 59, 127
2, 87760, Note_on_c, 1, 65, 127
2, 87760, Note_on_c, 1, 68, 127
2, 88120, Note_off_c, 1, 37, 0
2, 88160, Note_off_c, 1, 59, 0
2, 88160, Note_off_c, 1, 65, 0
2, 88160, Note_off_c, 1, 68, 0
2, 88200, Note_on_c, 1, 43, 127
2, 88200, Note_on_c, 1, 51, 127
2, 88200, Note_on_c, 1, 59, 127
2, 88200, Note_on_c, 1, 66, 127
2, 88280, Note_off_c, 1, 66, 0
2, 88280, Note_on_c, 1, 67, 127
2, 88560, Note_off_c, 1, 43, 0
2, 88560, Note_off_c, 1, 51, 0
2, 88560, Note_off_c, 1, 59, 0
2, 88560, Note_off_c, 1, 67, 0
2, 88600, Note_on_c, 1, 43, 127
2, 88600, Note_on_c, 1, 52, 127
2, 88600, Note_on_c, 1, 59, 127
2, 88600, Note_on_c, 1, 64, 127
2, 89360, Note_off_c, 1, 43, 0
2, 89360, Note_off_c, 1, 52, 0
2, 89360, Note_off_c, 1, 59, 0
2, 89360, Note_off_c, 1, 64, 0
2, 89400, Note_on_c, 1, 37, 127
2, 89400, Note_on_c, 1, 52, 127
2, 89400, Note_on_c, 1, 56, 127
2, 89400, Note_on_c, 1, 61, 127
2, 89400, Note_on_c, 1, 64, 127
2, 89760, Note_off_c, 1, 37, 0
2, 89800, Note_on_c, 1, 36, 127
2, 90160, Note_off_c, 1, 36, 0
2, 90200, Note_off_c, 1, 52, 0
2, 90200, Note_off_c, 1, 56, 0
2, 90200, Note_off_c, 1, 61, 0
2, 90200, Note_off_c, 1, 64, 0
2, 90240, Note_on_c, 1, 37, 127
2, 90240, Note_on_c, 1, 52, 127
2, 90240, Note_on_c, 1, 56, 127
2, 90240, Note_on_c, 1, 61, 127
2, 90240, Note_on_c, 1, 64, 127
2, 90400, Note_off_c, 1, 37, 0
2, 90440, Note_on_c, 1, 36, 127
2, 90600, Note_off_c, 1, 36, 0
2, 90640, Note_on_c, 1, 37, 127
2, 90800, Note_off_c, 1, 37, 0
2, 90840, Note_on_c, 1, 36, 127
2, 91000, Note_off_c, 1, 36, 0
2, 91040, Note_on_c, 1, 37, 127
2, 91200, Note_off_c, 1, 37, 0
2, 91240, Note_on_c, 1, 36, 127
2, 91400, Note_off_c, 1, 36, 0
2, 91440, Note_on_c, 1, 37, 127
2, 91600, Note_off_c, 1, 37, 0
2, 91640, Note_on_c, 1, 36, 127
2, 91800, Note_off_c, 1, 36, 0
2, 91840, Note_on_c, 1, 37, 127
2, 92000, Note_off_c, 1, 37, 0
2, 92040, Note_on_c, 1, 36, 127
2, 92200, Note_off_c, 1, 36, 0
2, 92240, Note_off_c, 1, 52, 0
2, 92240, Note_off_c, 1, 56, 0
2, 92240, Note_off_c, 1, 61, 0
2, 92240, Note_off_c, 1, 64, 0
2, 92280, Note_on_c, 1, 37, 127
2, 92280, Note_on_c, 1, 52, 127
2, 92280, Note_on_c, 1, 56, 127
2, 92280, Note_on_c, 1, 61, 127
2, 92280, Note_on_c, 1, 64, 127
2, 92480, Note_on_c, 1, 36, 127
2, 92480, Note_off_c, 1, 37, 0
2, 92640, Note_off_c, 1, 36, 0
2, 92680, Note_on_c, 1, 37, 127
2, 92840, Note_off_c, 1, 37, 0
2, 92880, Note_on_c, 1, 36, 127
2, 93040, Note_off_c, 1, 36, 0
2, 93080, Note_on_c, 1, 37, 127
2, 93240, Note_off_c, 1, 37, 0
2, 93280, Note_on_c, 1, 36, 127
2, 93440, Note_off_c, 1, 36, 0
2, 93480, Note_on_c, 1, 37, 127
2, 93640, Note_off_c, 1, 37, 0
2, 93680, Note_on_c, 1, 36, 127
2, 93840, Note_off_c, 1, 36, 0
2, 93880, Note_on_c, 1, 37, 127
2, 94040, Note_off_c, 1, 37, 0
2, 94080, Note_on_c, 1, 36, 127
2, 94240, Note_off_c, 1, 36, 0
2, 94280, Note_off_c, 1, 52, 0
2, 94280, Note_off_c, 1, 56, 0
2, 94280, Note_off_c, 1, 61, 0
2, 94280, Note_off_c, 1, 64, 0
2, 94320, Note_on_c, 1, 37, 127
2, 94320, Note_on_c, 1, 52, 127
2, 94320, Note_on_c, 1, 56, 127
2, 94320, Note_on_c, 1, 61, 127
2, 94320, Note_on_c, 1, 64, 127
2, 94480, Note_off_c, 1, 37, 0
2, 94520, Note_on_c, 1, 36, 127
2, 94680, Note_off_c, 1, 36, 0
2, 94720, Note_on_c, 1, 37, 127
2, 94880, Note_off_c, 1, 37, 0
2, 94920, Note_on_c, 1, 36, 127
2, 95080, Note_off_c, 1, 36, 0
2, 95120, Note_on_c, 1, 37, 127
2, 95280, Note_off_c, 1, 37, 0
2, 95320, Note_on_c, 1, 36, 127
2, 95480, Note_off_c, 1, 36, 0
2, 95520, Note_on_c, 1, 37, 127
2, 95680, Note_off_c, 1, 37, 0
2, 95720, Note_on_c, 1, 36, 127
2, 95880, Note_off_c, 1, 36, 0
2, 95920, Note_on_c, 1, 37, 127
2, 96080, Note_off_c, 1, 37, 0
2, 96120, Note_on_c, 1, 36, 127
2, 96280, Note_off_c, 1, 36, 0
2, 96320, Note_off_c, 1, 52, 0
2, 96320, Note_off_c, 1, 56, 0
2, 96320, Note_off_c, 1, 61, 0
2, 96320, Note_off_c, 1, 64, 0
2, 96360, Note_on_c, 1, 37, 127
2, 96360, Note_on_c, 1, 52, 127
2, 96360, Note_on_c, 1, 56, 127
2, 96360, Note_on_c, 1, 61, 127
2, 96360, Note_on_c, 1, 64, 127
2, 96520, Note_off_c, 1, 37, 0
2, 96560, Note_on_c, 1, 36, 127
2, 96720, Note_off_c, 1, 36, 0
2, 96760, Note_on_c, 1, 37, 127
2, 96920, Note_off_c, 1, 37, 0
2, 96960, Note_on_c, 1, 36, 127
2, 97120, Note_off_c, 1, 36, 0
2, 97160, Note_on_c, 1, 37, 127
2, 97320, Note_off_c, 1, 37, 0
2, 97360, Note_on_c, 1, 36, 127
2, 97520, Note_off_c, 1, 36, 0
2, 97560, Note_on_c, 1, 37, 127
2, 97720, Note_off_c, 1, 37, 0
2, 97760, Note_on_c, 1, 36, 127
2, 97920, Note_off_c, 1, 36, 0
2, 97960, Note_on_c, 1, 37, 127
2, 98120, Note_off_c, 1, 37, 0
2, 98160, Note_on_c, 1, 36, 127
2, 98320, Note_off_c, 1, 36, 0
2, 98360, Note_off_c, 1, 52, 0
2, 98360, Note_off_c, 1, 56, 0
2, 98360, Note_off_c, 1, 61, 0
2, 98360, Note_off_c, 1, 64, 0
2, 98400, Note_on_c, 1, 37, 127
2, 98400, Note_on_c, 1, 52, 127
2, 98400, Note_on_c, 1, 56, 127
2, 98400, Note_on_c, 1, 61, 127
2, 98400, Note_on_c, 1, 64, 127
2, 98560, Note_off_c, 1, 37, 0
2, 98600, Note_on_c, 1, 36, 127
2, 98760, Note_off_c, 1, 36, 0
2, 98800, Note_on_c, 1, 37, 127
2, 98960, Note_off_c, 1, 37, 0
2, 99000, Note_on_c, 1, 36, 127
2, 99160, Note_off_c, 1, 36, 0
2, 99200, Note_on_c, 1, 37, 127
2, 99360, Note_off_c, 1, 37, 0
2, 99400, Note_on_c, 1, 36, 127
2, 99560, Note_off_c, 1, 36, 0
2, 99600, Note_on_c, 1, 37, 127
2, 99760, Note_off_c, 1, 37, 0
2, 99800, Note_on_c, 1, 36, 127
2, 99960, Note_off_c, 1, 36, 0
2, 100000, Note_on_c, 1, 37, 127
2, 100160, Note_off_c, 1, 37, 0
2, 100200, Note_on_c, 1, 36, 127
2, 100360, Note_off_c, 1, 36, 0
2, 100400, Note_off_c, 1, 52, 0
2, 100400, Note_off_c, 1, 56, 0
2, 100400, Note_off_c, 1, 61, 0
2, 100400, Note_off_c, 1, 64, 0
2, 100440, Note_on_c, 1, 37, 127
2, 100440, Note_on_c, 1, 52, 127
2, 100440, Note_on_c, 1, 56, 127
2, 100440, Note_on_c, 1, 61, 127
2, 100440, Note_on_c, 1, 64, 127
2, 100600, Note_off_c, 1, 37, 0
2, 100640, Note_off_c, 1, 52, 0
2, 100640, Note_off_c, 1, 56, 0
2, 100640, Note_on_c, 1, 57, 127
2, 100640, Note_on_c, 1, 60, 127
2, 100640, Note_off_c, 1, 61, 0
2, 100640, Note_off_c, 1, 64, 0
2, 100640, Note_on_c, 1, 66, 127
2, 100640, Note_on_c, 1, 78, 127
2, 100640, Note_on_c, 1, 79, 127
2, 100680, Note_off_c, 1, 57, 0
2, 100680, Note_off_c, 1, 60, 0
2, 100680, Note_on_c, 1, 72, 127
2, 100680, Note_off_c, 1, 79, 0
2, 100680, Note_on_c, 1, 84, 127
2, 100800, Note_off_c, 1, 66, 0
2, 100800, Note_off_c, 1, 72, 0
2, 100800, Note_off_c, 1, 78, 0
2, 100800, Note_off_c, 1, 84, 0
2, 100840, Note_on_c, 1, 37, 127
2, 100840, Note_on_c, 1, 49, 127
2, 100840, Note_on_c, 1, 69, 127
2, 100840, Note_on_c, 1, 76, 127
2, 100840, Note_on_c, 1, 81, 127
2, 101040, Note_off_c, 1, 37, 0
2, 101040, Note_on_c, 1, 61, 127
2, 101200, Note_off_c, 1, 49, 0
2, 101200, Note_off_c, 1, 61, 0
2, 101240, Note_on_c, 1, 49, 127
2, 101240, Note_on_c, 1, 61, 127
2, 101600, Note_off_c, 1, 49, 0
2, 101600, Note_off_c, 1, 61, 0
2, 101600, Note_off_c, 1, 69, 0
2, 101600, Note_off_c, 1, 76, 0
2, 101600, Note_off_c, 1, 81, 0
2, 101640, Note_on_c, 1, 49, 127
2, 101640, Note_on_c, 1, 61, 127
2, 101640, Note_on_c, 1, 69, 127
2, 101640, Note_on_c, 1, 76, 127
2, 101640, Note_on_c, 1, 81, 127
2, 102000, Note_off_c, 1, 49, 0
2, 102000, Note_off_c, 1, 61, 0
2, 102000, Note_off_c, 1, 69, 0
2, 102000, Note_off_c, 1, 76, 0
2, 102000, Note_off_c, 1, 81, 0
2, 102040, Note_on_c, 1, 46, 127
2, 102040, Note_on_c, 1, 53, 127
2, 102040, Note_on_c, 1, 57, 127
2, 102040, Note_on_c, 1, 65, 127
2, 102040, Note_on_c, 1, 75, 127
2, 102120, Note_on_c, 1, 63, 127
2, 102120, Note_off_c, 1, 65, 0
2, 102200, Note_off_c, 1, 63, 0
2, 102200, Note_on_c, 1, 65, 127
2, 102240, Note_on_c, 1, 63, 127
2, 102240, Note_off_c, 1, 65, 0
2, 102400, Note_off_c, 1, 46, 0
2, 102400, Note_off_c, 1, 53, 0
2, 102400, Note_off_c, 1, 57, 0
2, 102400, Note_off_c, 1, 63, 0
2, 102400, Note_off_c, 1, 75, 0
2, 102480, Note_on_c, 1, 43, 127
2, 102480, Note_on_c, 1, 55, 127
2, 102480, Note_on_c, 1, 67, 127
2, 102480, Note_on_c, 1, 70, 127
2, 102480, Note_on_c, 1, 75, 127
2, 102480, Note_on_c, 1, 79, 127
2, 102840, Note_off_c, 1, 43, 0
2, 102840, Note_off_c, 1, 55, 0
2, 102840, Note_off_c, 1, 67, 0
2, 102840, Note_off_c, 1, 70, 0
2, 102840, Note_off_c, 1, 75, 0
2, 102840, Note_off_c, 1, 79, 0
2, 102880, Note_on_c, 1, 71, 127
2, 102880, Note_on_c, 1, 75, 127
2, 102880, Note_on_c, 1, 92, 127
2, 103040, Note_off_c, 1, 92, 0
2, 103080, Note_on_c, 1, 35, 127
2, 103080, Note_on_c, 1, 42, 127
2, 103080, Note_on_c, 1, 47, 127
2, 103080, Note_off_c, 1, 71, 0
2, 103080, Note_on_c, 1, 78, 127
2, 103080, Note_on_c, 1, 83, 127
2, 103080, Note_on_c, 1, 87, 127
2, 103440, Note_off_c, 1, 35, 0
2, 103440, Note_off_c, 1, 42, 0
2, 103440, Note_off_c, 1, 47, 0
2, 103440, Note_off_c, 1, 75, 0
2, 103440, Note_off_c, 1, 78, 0
2, 103440, Note_off_c, 1, 83, 0
2, 103440, Note_off_c, 1, 87, 0
2, 103480, Note_on_c, 1, 35, 127
2, 103480, Note_on_c, 1, 42, 127
2, 103480, Note_on_c, 1, 47, 127
2, 103480, Note_on_c, 1, 75, 127
2, 103480, Note_on_c, 1, 78, 127
2, 103480, Note_on_c, 1, 83, 127
2, 103480, Note_on_c, 1, 87, 127
2, 103640, Note_off_c, 1, 35, 0
2, 103640, Note_off_c, 1, 42, 0
2, 103640, Note_off_c, 1, 47, 0
2, 103640, Note_off_c, 1, 75, 0
2, 103640, Note_off_c, 1, 78, 0
2, 103640, Note_off_c, 1, 83, 0
2, 103640, Note_off_c, 1, 87, 0
2, 103680, Note_on_c, 1, 35, 127
2, 103680, Note_on_c, 1, 42, 127
2, 103680, Note_on_c, 1, 47, 127
2, 103680, Note_on_c, 1, 75, 127
2, 103680, Note_on_c, 1, 78, 127
2, 103680, Note_on_c, 1, 83, 127
2, 103680, Note_on_c, 1, 87, 127
2, 104040, Note_off_c, 1, 35, 0
2, 104040, Note_off_c, 1, 42, 0
2, 104040, Note_off_c, 1, 47, 0
2, 104040, Note_off_c, 1, 75, 0
2, 104040, Note_off_c, 1, 78, 0
2, 104040, Note_off_c, 1, 83, 0
2, 104040, Note_off_c, 1, 87, 0
2, 104080, Note_on_c, 1, 35, 127
2, 104080, Note_on_c, 1, 42, 127
2, 104080, Note_on_c, 1, 47, 127
2, 104080, Note_on_c, 1, 75, 127
2, 104080, Note_on_c, 1, 78, 127
2, 104080, Note_on_c, 1, 83, 127
2, 104080, Note_on_c, 1, 87, 127
2, 104440, Note_off_c, 1, 35, 0
2, 104440, Note_off_c, 1, 42, 0
2, 104440, Note_off_c, 1, 47, 0
2, 104440, Note_off_c, 1, 75, 0
2, 104440, Note_off_c, 1, 78, 0
2, 104440, Note_off_c, 1, 83, 0
2, 104440, Note_off_c, 1, 87, 0
2, 104480, Note_on_c, 1, 53, 127
2, 104480, Note_on_c, 1, 58, 127
2, 104480, Note_on_c, 1, 70, 127
2, 104480, Note_on_c, 1, 74, 127
2, 104480, Note_on_c, 1, 80, 127
2, 104480, Note_on_c, 1, 82, 127
2, 104640, Note_off_c, 1, 53, 0
2, 104640, Note_off_c, 1, 58, 0
2, 104640, Note_off_c, 1, 70, 0
2, 104640, Note_off_c, 1, 74, 0
2, 104640, Note_off_c, 1, 80, 0
2, 104640, Note_off_c, 1, 82, 0
2, 104680, Note_on_c, 1, 53, 127
2, 104680, Note_on_c, 1, 58, 127
2, 104680, Note_on_c, 1, 70, 127
2, 104680, Note_on_c, 1, 74, 127
2, 104680, Note_on_c, 1, 80, 127
2, 104680, Note_on_c, 1, 82, 127
2, 104880, Note_off_c, 1, 53, 0
2, 104880, Note_off_c, 1, 58, 0
2, 104880, Note_off_c, 1, 70, 0
2, 104880, Note_off_c, 1, 74, 0
2, 104880, Note_off_c, 1, 80, 0
2, 104880, Note_off_c, 1, 82, 0
2, 104920, Note_on_c, 1, 57, 127
2, 104920, Note_on_c, 1, 60, 127
2, 104920, Note_on_c, 1, 63, 127
2, 104920, Note_on_c, 1, 66, 127
2, 104920, Note_on_c, 1, 69, 127
2, 104920, Note_on_c, 1, 72, 127
2, 104920, Note_on_c, 1, 75, 127
2, 104920, Note_on_c, 1, 78, 127
2, 105280, Note_off_c, 1, 57, 0
2, 105280, Note_off_c, 1, 60, 0
2, 105280, Note_off_c, 1, 63, 0
2, 105280, Note_off_c, 1, 66, 0
2, 105280, Note_off_c, 1, 69, 0
2, 105280, Note_off_c, 1, 72, 0
2, 105280, Note_off_c, 1, 75, 0
2, 105280, Note_off_c, 1, 78, 0
2, 105320, Note_on_c, 1, 57, 127
2, 105320, Note_on_c, 1, 60, 127
2, 105320, Note_on_c, 1, 63, 127
2, 105320, Note_on_c, 1, 66, 127
2, 105320, Note_on_c, 1, 69, 127
2, 105320, Note_on_c, 1, 72, 127
2, 105320, Note_on_c, 1, 75, 127
2, 105320, Note_on_c, 1, 78, 127
2, 105680, Note_off_c, 1, 57, 0
2, 105680, Note_off_c, 1, 60, 0
2, 105680, Note_off_c, 1, 63, 0
2, 105680, Note_off_c, 1, 66, 0
2, 105680, Note_off_c, 1, 69, 0
2, 105680, Note_off_c, 1, 72, 0
2, 105680, Note_off_c, 1, 75, 0
2, 105680, Note_off_c, 1, 78, 0
2, 105720, Note_on_c, 1, 52, 127
2, 105720, Note_on_c, 1, 59, 127
2, 105720, Note_on_c, 1, 64, 127
2, 105720, Note_on_c, 1, 68, 127
2, 105720, Note_on_c, 1, 71, 127
2, 105720, Note_on_c, 1, 80, 127
2, 105880, Note_off_c, 1, 52, 0
2, 105880, Note_off_c, 1, 59, 0
2, 105880, Note_off_c, 1, 64, 0
2, 105880, Note_off_c, 1, 68, 0
2, 105880, Note_off_c, 1, 71, 0
2, 105880, Note_off_c, 1, 80, 0
2, 105920, Note_on_c, 1, 45, 127
2, 105920, Note_on_c, 1, 47, 127
2, 105920, Note_on_c, 1, 57, 127
2, 105920, Note_on_c, 1, 63, 127
2, 105920, Note_on_c, 1, 66, 127
2, 105920, Note_on_c, 1, 71, 127
2, 105920, Note_on_c, 1, 75, 127
2, 106080, Note_off_c, 1, 45, 0
2, 106080, Note_off_c, 1, 47, 0
2, 106080, Note_off_c, 1, 57, 0
2, 106080, Note_off_c, 1, 63, 0
2, 106080, Note_off_c, 1, 66, 0
2, 106080, Note_off_c, 1, 71, 0
2, 106080, Note_off_c, 1, 75, 0
2, 106120, Note_on_c, 1, 31, 127
2, 106120, Note_on_c, 1, 43, 127
2, 106120, Note_on_c, 1, 79, 127
2, 106120, Note_on_c, 1, 84, 127
2, 106120, Note_on_c, 1, 88, 127
2, 106120, Note_on_c, 1, 91, 127
2, 106280, Note_off_c, 1, 31, 0
2, 106280, Note_off_c, 1, 43, 0
2, 106280, Note_off_c, 1, 79, 0
2, 106280, Note_off_c, 1, 84, 0
2, 106280, Note_off_c, 1, 88, 0
2, 106280, Note_off_c, 1, 91, 0
2, 106320, Note_on_c, 1, 31, 127
2, 106320, Note_on_c, 1, 43, 127
2, 106320, Note_on_c, 1, 79, 127
2, 106320, Note_on_c, 1, 84, 127
2, 106320, Note_on_c, 1, 88, 127
2, 106320, Note_on_c, 1, 91, 127
2, 106480, Note_off_c, 1, 31, 0
2, 106480, Note_off_c, 1, 43, 0
2, 106480, Note_off_c, 1, 79, 0
2, 106480, Note_off_c, 1, 84, 0
2, 106480, Note_off_c, 1, 88, 0
2, 106480, Note_off_c, 1, 91, 0
2, 106520, Note_on_c, 1, 39, 127
2, 106520, Note_on_c, 1, 51, 127
2, 106520, Note_on_c, 1, 70, 127
2, 106520, Note_on_c, 1, 76, 127
2, 106520, Note_on_c, 1, 80, 127
2, 106680, Note_off_c, 1, 39, 0
2, 106680, Note_off_c, 1, 51, 0
2, 106680, Note_off_c, 1, 70, 0
2, 106680, Note_off_c, 1, 76, 0
2, 106680, Note_off_c, 1, 80, 0
2, 106720, Note_on_c, 1, 35, 127
2, 106720, Note_on_c, 1, 47, 127
2, 106720, Note_on_c, 1, 74, 127
2, 106720, Note_on_c, 1, 78, 127
2, 106720, Note_on_c, 1, 83, 127
2, 106720, Note_on_c, 1, 86, 127
2, 106880, Note_off_c, 1, 35, 0
2, 106880, Note_off_c, 1, 47, 0
2, 106880, Note_off_c, 1, 74, 0
2, 106880, Note_off_c, 1, 78, 0
2, 106880, Note_off_c, 1, 83, 0
2, 106880, Note_off_c, 1, 86, 0
2, 106960, Note_on_c, 1, 35, 127
2, 106960, Note_on_c, 1, 52, 127
2, 106960, Note_on_c, 1, 64, 127
2, 107120, Note_off_c, 1, 35, 0
2, 107120, Note_off_c, 1, 52, 0
2, 107120, Note_off_c, 1, 64, 0
2, 107160, Note_on_c, 1, 54, 127
2, 107160, Note_on_c, 1, 58, 127
2, 107160, Note_on_c, 1, 61, 127
2, 107160, Note_on_c, 1, 66, 127
2, 107160, Note_on_c, 1, 82, 127
2, 107160, Note_on_c, 1, 85, 127
2, 107160, Note_on_c, 1, 90, 127
2, 107160, Note_on_c, 1, 94, 127
2, 107320, Note_off_c, 1, 54, 0
2, 107320, Note_off_c, 1, 58, 0
2, 107320, Note_off_c, 1, 61, 0
2, 107320, Note_off_c, 1, 66, 0
2, 107320, Note_off_c, 1, 82, 0
2, 107320, Note_off_c, 1, 85, 0
2, 107320, Note_off_c, 1, 90, 0
2, 107320, Note_off_c, 1, 94, 0
2, 107360, Note_on_c, 1, 39, 127
2, 107360, Note_on_c, 1, 51, 127
2, 107360, Note_on_c, 1, 70, 127
2, 107360, Note_on_c, 1, 78, 127
2, 107360, Note_on_c, 1, 82, 127
2, 107520, Note_off_c, 1, 39, 0
2, 107520, Note_off_c, 1, 51, 0
2, 107520, Note_off_c, 1, 70, 0
2, 107520, Note_off_c, 1, 78, 0
2, 107520, Note_off_c, 1, 82, 0
2, 107560, Note_on_c, 1, 47, 127
2, 107560, Note_on_c, 1, 55, 127
2, 107560, Note_on_c, 1, 59, 127
2, 107560, Note_on_c, 1, 64, 127
2, 107560, Note_on_c, 1, 71, 127
2, 107560, Note_on_c, 1, 76, 127
2, 107720, Note_off_c, 1, 47, 0
2, 107720, Note_off_c, 1, 55, 0
2, 107720, Note_off_c, 1, 59, 0
2, 107720, Note_off_c, 1, 64, 0
2, 107720, Note_off_c, 1, 71, 0
2, 107720, Note_off_c, 1, 76, 0
2, 107760, Note_on_c, 1, 47, 127
2, 107760, Note_on_c, 1, 54, 127
2, 107760, Note_on_c, 1, 59, 127
2, 107760, Note_on_c, 1, 63, 127
2, 107760, Note_on_c, 1, 71, 127
2, 107760, Note_on_c, 1, 75, 127
2, 107920, Note_off_c, 1, 47, 0
2, 107920, Note_off_c, 1, 54, 0
2, 107920, Note_off_c, 1, 59, 0
2, 107920, Note_off_c, 1, 63, 0
2, 107920, Note_off_c, 1, 71, 0
2, 107920, Note_off_c, 1, 75, 0
2, 107960, Note_on_c, 1, 52, 127
2, 107960, Note_on_c, 1, 54, 127
2, 107960, Note_on_c, 1, 58, 127
2, 107960, Note_on_c, 1, 64, 127
2, 108120, Note_off_c, 1, 52, 0
2, 108120, Note_off_c, 1, 54, 0
2, 108120, Note_off_c, 1, 58, 0
2, 108120, Note_off_c, 1, 64, 0
2, 108160, Note_on_c, 1, 52, 127
2, 108160, Note_on_c, 1, 54, 127
2, 108160, Note_on_c, 1, 58, 127
2, 108160, Note_on_c, 1, 61, 127
2, 108520, Note_off_c, 1, 52, 0
2, 108520, Note_off_c, 1, 54, 0
2, 108520, Note_off_c, 1, 58, 0
2, 108520, Note_off_c, 1, 61, 0
2, 108560, Note_on_c, 1, 61, 127
2, 108560, Note_on_c, 1, 70, 127
2, 108560, Note_on_c, 1, 73, 127
2, 108560, Note_on_c, 1, 78, 127
2, 108720, Note_off_c, 1, 61, 0
2, 108720, Note_off_c, 1, 70, 0
2, 108720, Note_off_c, 1, 73, 0
2, 108720, Note_off_c, 1, 78, 0
2, 108760, Note_on_c, 1, 56, 127
2, 108760, Note_on_c, 1, 59, 127
2, 108760, Note_on_c, 1, 71, 127
2, 108760, Note_on_c, 1, 75, 127
2, 108920, Note_off_c, 1, 56, 0
2, 108920, Note_off_c, 1, 59, 0
2, 108920, Note_off_c, 1, 71, 0
2, 108920, Note_off_c, 1, 75, 0
2, 109000, Note_on_c, 1, 56, 127
2, 109000, Note_on_c, 1, 59, 127
2, 109000, Note_on_c, 1, 71, 127
2, 109000, Note_on_c, 1, 75, 127
2, 109160, Note_off_c, 1, 56, 0
2, 109160, Note_off_c, 1, 59, 0
2, 109160, Note_off_c, 1, 71, 0
2, 109160, Note_off_c, 1, 75, 0
2, 109200, Note_on_c, 1, 44, 127
2, 109200, Note_on_c, 1, 68, 127
2, 109200, Note_on_c, 1, 73, 127
2, 109200, Note_on_c, 1, 77, 127
2, 109200, Note_on_c, 1, 80, 127
2, 109360, Note_off_c, 1, 44, 0
2, 109360, Note_off_c, 1, 68, 0
2, 109360, Note_off_c, 1, 73, 0
2, 109360, Note_off_c, 1, 77, 0
2, 109360, Note_off_c, 1, 80, 0
2, 109400, Note_on_c, 1, 44, 127
2, 109400, Note_on_c, 1, 68, 127
2, 109400, Note_on_c, 1, 73, 127
2, 109400, Note_on_c, 1, 77, 127
2, 109400, Note_on_c, 1, 80, 127
2, 109760, Note_off_c, 1, 44, 0
2, 109760, Note_off_c, 1, 68, 0
2, 109760, Note_off_c, 1, 73, 0
2, 109760, Note_off_c, 1, 77, 0
2, 109760, Note_off_c, 1, 80, 0
2, 109800, Note_on_c, 1, 29, 127
2, 109800, Note_on_c, 1, 41, 127
2, 109800, Note_on_c, 1, 58, 127
2, 109800, Note_on_c, 1, 70, 127
2, 109960, Note_off_c, 1, 29, 0
2, 109960, Note_off_c, 1, 41, 0
2, 109960, Note_off_c, 1, 58, 0
2, 110000, Note_on_c, 1, 29, 127
2, 110000, Note_on_c, 1, 41, 127
2, 110000, Note_on_c, 1, 58, 127
2, 110160, Note_off_c, 1, 29, 0
2, 110160, Note_off_c, 1, 41, 0
2, 110160, Note_off_c, 1, 58, 0
2, 110160, Note_off_c, 1, 70, 0
2, 110200, Note_on_c, 1, 36, 127
2, 110200, Note_on_c, 1, 48, 127
2, 110200, Note_on_c, 1, 80, 127
2, 110200, Note_on_c, 1, 92, 127
2, 110560, Note_off_c, 1, 36, 0
2, 110560, Note_off_c, 1, 48, 0
2, 110560, Note_off_c, 1, 80, 0
2, 110560, Note_off_c, 1, 92, 0
2, 110600, Note_on_c, 1, 48, 127
2, 110600, Note_on_c, 1, 82, 127
2, 110600, Note_on_c, 1, 86, 127
2, 110600, Note_on_c, 1, 94, 127
2, 110640, Note_off_c, 1, 48, 0
2, 110800, Note_on_c, 1, 55, 127
2, 110920, Note_on_c, 1, 52, 127
2, 110920, Note_off_c, 1, 55, 0
2, 110920, Note_on_c, 1, 59, 127
2, 110920, Note_on_c, 1, 61, 127
2, 110920, Note_on_c, 1, 69, 127
2, 110920, Note_off_c, 1, 82, 0
2, 110920, Note_off_c, 1, 86, 0
2, 110920, Note_off_c, 1, 94, 0
2, 110960, Note_off_c, 1, 52, 0
2, 110960, Note_off_c, 1, 59, 0
2, 110960, Note_off_c, 1, 61, 0
2, 110960, Note_off_c, 1, 69, 0
2, 111040, Note_on_c, 1, 46, 127
2, 111040, Note_on_c, 1, 58, 127
2, 111040, Note_on_c, 1, 74, 127
2, 111040, Note_on_c, 1, 89, 127
2, 111200, Note_off_c, 1, 46, 0
2, 111200, Note_off_c, 1, 58, 0
2, 111200, Note_on_c, 1, 65, 127
2, 111200, Note_on_c, 1, 70, 127
2, 111200, Note_off_c, 1, 74, 0
2, 111200, Note_on_c, 1, 85, 127
2, 111200, Note_off_c, 1, 89, 0
2, 111200, Note_on_c, 1, 92, 127
2, 111240, Note_off_c, 1, 65, 0
2, 111240, Note_on_c, 1, 80, 127
2, 111240, Note_off_c, 1, 85, 0
2, 111240, Note_off_c, 1, 92, 0
2, 111240, Note_on_c, 1, 96, 127
2, 111280, Note_on_c, 1, 59, 127
2, 111280, Note_on_c, 1, 63, 127
2, 111280, Note_on_c, 1, 78, 127
2, 111280, Note_off_c, 1, 80, 0
2, 111280, Note_off_c, 1, 96, 0
2, 111320, Note_off_c, 1, 59, 0
2, 111320, Note_off_c, 1, 63, 0
2, 111320, Note_off_c, 1, 78, 0
2, 111360, Note_on_c, 1, 62, 127
2, 111360, Note_off_c, 1, 70, 0
2, 111360, Note_on_c, 1, 71, 127
2, 111360, Note_on_c, 1, 90, 127
2, 111360, Note_on_c, 1, 96, 127
2, 111400, Note_off_c, 1, 62, 0
2, 111400, Note_off_c, 1, 71, 0
2, 111400, Note_off_c, 1, 90, 0
2, 111400, Note_off_c, 1, 96, 0
2, 111440, Note_on_c, 1, 51, 127
2, 111440, Note_on_c, 1, 70, 127
2, 111440, Note_on_c, 1, 79, 127
2, 111440, Note_on_c, 1, 82, 127
2, 111600, Note_off_c, 1, 51, 0
2, 111600, Note_off_c, 1, 70, 0
2, 111640, Note_on_c, 1, 66, 127
2, 111640, Note_on_c, 1, 75, 127
2, 111640, Note_off_c, 1, 79, 0
2, 111640, Note_on_c, 1, 80, 127
2, 111640, Note_off_c, 1, 82, 0
2, 111640, Note_on_c, 1, 84, 127
2, 111800, Note_off_c, 1, 66, 0
2, 111800, Note_off_c, 1, 75, 0
2, 111800, Note_off_c, 1, 80, 0
2, 111800, Note_off_c, 1, 84, 0
2, 111840, Note_on_c, 1, 66, 127
2, 111840, Note_on_c, 1, 75, 127
2, 111840, Note_on_c, 1, 80, 127
2, 111840, Note_on_c, 1, 84, 127
2, 112000, Note_off_c, 1, 66, 0
2, 112040, Note_on_c, 1, 66, 127
2, 112200, Note_off_c, 1, 66, 0
2, 112200, Note_off_c, 1, 75, 0
2, 112200, Note_off_c, 1, 80, 0
2, 112200, Note_off_c, 1, 84, 0
2, 112240, Note_on_c, 1, 50, 127
2, 112240, Note_on_c, 1, 77, 127
2, 112240, Note_on_c, 1, 82, 127
2, 112240, Note_on_c, 1, 89, 127
2, 112400, Note_off_c, 1, 50, 0
2, 112440, Note_on_c, 1, 50, 127
2, 112560, Note_on_c, 1, 48, 127
2, 112560, Note_off_c, 1, 50, 0
2, 112600, Note_off_c, 1, 48, 0
2, 112640, Note_on_c, 1, 48, 127
2, 112760, Note_off_c, 1, 48, 0
2, 112840, Note_on_c, 1, 50, 127
2, 113000, Note_off_c, 1, 50, 0
2, 113000, Note_off_c, 1, 77, 0
2, 113000, Note_off_c, 1, 82, 0
2, 113000, Note_off_c, 1, 89, 0
2, 113080, Note_on_c, 1, 59, 127
2, 113080, Note_on_c, 1, 63, 127
2, 113080, Note_on_c, 1, 65, 127
2, 113080, Note_on_c, 1, 83, 127
2, 113080, Note_on_c, 1, 87, 127
2, 113120, Note_on_c, 1, 77, 127
2, 113120, Note_off_c, 1, 83, 0
2, 113120, Note_off_c, 1, 87, 0
2, 113240, Note_off_c, 1, 59, 0
2, 113240, Note_off_c, 1, 63, 0
2, 113240, Note_off_c, 1, 65, 0
2, 113240, Note_off_c, 1, 77, 0
2, 113280, Note_on_c, 1, 59, 127
2, 113280, Note_on_c, 1, 77, 127
2, 113440, Note_off_c, 1, 59, 0
2, 113440, Note_off_c, 1, 77, 0
2, 113480, Note_on_c, 1, 43, 127
2, 113480, Note_on_c, 1, 55, 127
2, 113480, Note_on_c, 1, 69, 127
2, 113480, Note_on_c, 1, 75, 127
2, 113520, Note_off_c, 1, 43, 0
2, 113520, Note_on_c, 1, 44, 127
2, 113520, Note_off_c, 1, 55, 0
2, 113520, Note_on_c, 1, 56, 127
2, 113520, Note_on_c, 1, 68, 127
2, 113520, Note_off_c, 1, 69, 0
2, 113520, Note_on_c, 1, 77, 127
2, 113520, Note_on_c, 1, 80, 127
2, 113560, Note_off_c, 1, 44, 0
2, 113560, Note_on_c, 1, 54, 127
2, 113560, Note_off_c, 1, 56, 0
2, 113560, Note_off_c, 1, 68, 0
2, 113560, Note_on_c, 1, 70, 127
2, 113560, Note_on_c, 1, 74, 127
2, 113560, Note_off_c, 1, 75, 0
2, 113560, Note_off_c, 1, 77, 0
2, 113560, Note_on_c, 1, 79, 127
2, 113560, Note_off_c, 1, 80, 0
2, 113600, Note_on_c, 1, 40, 127
2, 113600, Note_off_c, 1, 54, 0
2, 113600, Note_on_c, 1, 56, 127
2, 113600, Note_on_c, 1, 61, 127
2, 113600, Note_on_c, 1, 69, 127
2, 113600, Note_off_c, 1, 70, 0
2, 113600, Note_off_c, 1, 74, 0
2, 113600, Note_off_c, 1, 79, 0
2, 113640, Note_off_c, 1, 40, 0
2, 113640, Note_on_c, 1, 53, 127
2, 113640, Note_off_c, 1, 56, 0
2, 113640, Note_off_c, 1, 61, 0
2, 113640, Note_on_c, 1, 65, 127
2, 113640, Note_off_c, 1, 69, 0
2, 113680, Note_off_c, 1, 53, 0
2, 113680, Note_off_c, 1, 65, 0
2, 113680, Note_on_c, 1, 71, 127
2, 113680, Note_on_c, 1, 75, 127
2, 113680, Note_on_c, 1, 83, 127
2, 113680, Note_on_c, 1, 85, 127
2, 113720, Note_on_c, 1, 66, 127
2, 113720, Note_on_c, 1, 69, 127
2, 113720, Note_off_c, 1, 71, 0
2, 113720, Note_on_c, 1, 73, 127
2, 113720, Note_on_c, 1, 81, 127
2, 113720, Note_off_c, 1, 83, 0
2, 113720, Note_off_c, 1, 85, 0
2, 113720, Note_on_c, 1, 90, 127
2, 113760, Note_on_c, 1, 54, 127
2, 113760, Note_off_c, 1, 69, 0
2, 113760, Note_off_c, 1, 73, 0
2, 113760, Note_off_c, 1, 75, 0
2, 113760, Note_off_c, 1, 81, 0
2, 113760, Note_on_c, 1, 85, 127
2, 113760, Note_off_c, 1, 90, 0
2, 113760, Note_on_c, 1, 94, 127
2, 113800, Note_off_c, 1, 54, 0
2, 113800, Note_on_c, 1, 69, 127
2, 113800, Note_on_c, 1, 73, 127
2, 113800, Note_on_c, 1, 75, 127
2, 113800, Note_on_c, 1, 81, 127
2, 113800, Note_off_c, 1, 85, 0
2, 113800, Note_on_c, 1, 90, 127
2, 113800, Note_off_c, 1, 94, 0
2, 113840, Note_off_c, 1, 66, 0
2, 113840, Note_off_c, 1, 69, 0
2, 113840, Note_off_c, 1, 73, 0
2, 113840, Note_off_c, 1, 75, 0
2, 113840, Note_off_c, 1, 81, 0
2, 113840, Note_off_c, 1, 90, 0
2, 113880, Note_on_c, 1, 63, 127
2, 113880, Note_on_c, 1, 66, 127
2, 113880, Note_on_c, 1, 82, 127
2, 113880, Note_on_c, 1, 87, 127
2, 113880, Note_on_c, 1, 90, 127
2, 114040, Note_off_c, 1, 63, 0
2, 114040, Note_off_c, 1, 66, 0
2, 114040, Note_on_c, 1, 80, 127
2, 114040, Note_off_c, 1, 82, 0
2, 114080, Note_on_c, 1, 63, 127
2, 114080, Note_on_c, 1, 66, 127
2, 114080, Note_off_c, 1, 80, 0
2, 114080, Note_on_c, 1, 82, 127
2, 114240, Note_on_c, 1, 38, 127
2, 114240, Note_on_c, 1, 46, 127
2, 114240, Note_on_c, 1, 55, 127
2, 114240, Note_on_c, 1, 58, 127
2, 114240, Note_off_c, 1, 63, 0
2, 114240, Note_off_c, 1, 66, 0
2, 114240, Note_off_c, 1, 82, 0
2, 114240, Note_off_c, 1, 87, 0
2, 114240, Note_off_c, 1, 90, 0
2, 114280, Note_off_c, 1, 38, 0
2, 114280, Note_off_c, 1, 46, 0
2, 114280, Note_off_c, 1, 55, 0
2, 114280, Note_off_c, 1, 58, 0
2, 114280, Note_on_c, 1, 65, 127
2, 114280, Note_on_c, 1, 84, 127
2, 114280, Note_on_c, 1, 89, 127
2, 114280, Note_on_c, 1, 96, 127
2, 114440, Note_off_c, 1, 65, 0
2, 114480, Note_on_c, 1, 69, 127
2, 114480, Note_on_c, 1, 79, 127
2, 114480, Note_on_c, 1, 86, 127
2, 114480, Note_off_c, 1, 89, 0
2, 114480, Note_on_c, 1, 91, 127
2, 114480, Note_off_c, 1, 96, 0
2, 114640, Note_off_c, 1, 69, 0
2, 114640, Note_off_c, 1, 79, 0
2, 114640, Note_off_c, 1, 84, 0
2, 114640, Note_off_c, 1, 86, 0
2, 114640, Note_off_c, 1, 91, 0
2, 114680, Note_on_c, 1, 53, 127
2, 114680, Note_on_c, 1, 60, 127
2, 114680, Note_on_c, 1, 65, 127
2, 114680, Note_on_c, 1, 82, 127
2, 114680, Note_on_c, 1, 85, 127
2, 114720, Note_off_c, 1, 53, 0
2, 114720, Note_off_c, 1, 60, 0
2, 114720, Note_on_c, 1, 61, 127
2, 114720, Note_off_c, 1, 65, 0
2, 114720, Note_on_c, 1, 68, 127
2, 114720, Note_on_c, 1, 72, 127
2, 114720, Note_on_c, 1, 80, 127
2, 114720, Note_off_c, 1, 82, 0
2, 114720, Note_off_c, 1, 85, 0
2, 114760, Note_on_c, 1, 48, 127
2, 114760, Note_off_c, 1, 61, 0
2, 114760, Note_off_c, 1, 68, 0
2, 114760, Note_off_c, 1, 72, 0
2, 114760, Note_on_c, 1, 77, 127
2, 114760, Note_off_c, 1, 80, 0
2, 114760, Note_on_c, 1, 82, 127
2, 114800, Note_off_c, 1, 48, 0
2, 114800, Note_on_c, 1, 52, 127
2, 114800, Note_on_c, 1, 55, 127
2, 114800, Note_on_c, 1, 58, 127
2, 114800, Note_on_c, 1, 60, 127
2, 114800, Note_off_c, 1, 77, 0
2, 114800, Note_on_c, 1, 86, 127
2, 114840, Note_off_c, 1, 52, 0
2, 114840, Note_off_c, 1, 55, 0
2, 114840, Note_off_c, 1, 58, 0
2, 114840, Note_off_c, 1, 60, 0
2, 114840, Note_on_c, 1, 77, 127
2, 114840, Note_on_c, 1, 80, 127
2, 114840, Note_off_c, 1, 82, 0
2, 114840, Note_off_c, 1, 86, 0
2, 114880, Note_on_c, 1, 65, 127
2, 114880, Note_on_c, 1, 68, 127
2, 114880, Note_off_c, 1, 77, 0
2, 114880, Note_on_c, 1, 85, 127
2, 115040, Note_off_c, 1, 65, 0
2, 115040, Note_off_c, 1, 68, 0
2, 115040, Note_off_c, 1, 80, 0
2, 115040, Note_off_c, 1, 85, 0
2, 115080, Note_on_c, 1, 64, 127
2, 115080, Note_on_c, 1, 73, 127
2, 115080, Note_on_c, 1, 81, 127
2, 115080, Note_on_c, 1, 85, 127
2, 115240, Note_off_c, 1, 64, 0
2, 115240, Note_off_c, 1, 73, 0
2, 115240, Note_off_c, 1, 81, 0
2, 115240, Note_off_c, 1, 85, 0
2, 115280, Note_on_c, 1, 64, 127
2, 115280, Note_on_c, 1, 73, 127
2, 115280, Note_on_c, 1, 81, 127
2, 115280, Note_on_c, 1, 85, 127
2, 115880, Note_off_c, 1, 64, 0
2, 115880, Note_off_c, 1, 73, 0
2, 115880, Note_off_c, 1, 81, 0
2, 115880, Note_off_c, 1, 85, 0
2, 115920, Note_on_c, 1, 64, 127
2, 115920, Note_on_c, 1, 68, 127
2, 115920, Note_on_c, 1, 73, 127
2, 115920, Note_on_c, 1, 76, 127
2, 115920, Note_on_c, 1, 80, 127
2, 116080, Note_off_c, 1, 64, 0
2, 116120, Note_on_c, 1, 64, 127
2, 116280, Note_off_c, 1, 64, 0
2, 116280, Note_off_c, 1, 68, 0
2, 116320, Note_on_c, 1, 56, 127
2, 116320, Note_on_c, 1, 61, 127
2, 116320, Note_on_c, 1, 64, 127
2, 116320, Note_off_c, 1, 80, 0
2, 116480, Note_on_c, 1, 68, 127
2, 116480, Note_off_c, 1, 73, 0
2, 116480, Note_off_c, 1, 76, 0
2, 116520, Note_off_c, 1, 68, 0
2, 116520, Note_on_c, 1, 73, 127
2, 116520, Note_on_c, 1, 76, 127
2, 116680, Note_off_c, 1, 61, 0
2, 116680, Note_off_c, 1, 64, 0
2, 116680, Note_off_c, 1, 73, 0
2, 116680, Note_off_c, 1, 76, 0
2, 116720, Note_on_c, 1, 61, 127
2, 116720, Note_on_c, 1, 68, 127
2, 116720, Note_on_c, 1, 73, 127
2, 117080, Note_off_c, 1, 56, 0
2, 117080, Note_off_c, 1, 68, 0
2, 117120, Note_on_c, 1, 56, 127
2, 117120, Note_on_c, 1, 68, 127
2, 117480, Note_off_c, 1, 56, 0
2, 117480, Note_off_c, 1, 61, 0
2, 117480, Note_off_c, 1, 68, 0
2, 117480, Note_off_c, 1, 73, 0
2, 117520, Note_on_c, 1, 53, 127
2, 117520, Note_on_c, 1, 60, 127
2, 117520, Note_on_c, 1, 63, 127
2, 117520, Note_on_c, 1, 69, 127
2, 117520, Note_on_c, 1, 75, 127
2, 117520, Note_on_c, 1, 81, 127
2, 117560, Note_off_c, 1, 53, 0
2, 117560, Note_off_c, 1, 60, 0
2, 117560, Note_off_c, 1, 63, 0
2, 117560, Note_off_c, 1, 69, 0
2, 117560, Note_off_c, 1, 75, 0
2, 117560, Note_off_c, 1, 81, 0
2, 117600, Note_on_c, 1, 54, 127
2, 117600, Note_on_c, 1, 57, 127
2, 117600, Note_on_c, 1, 61, 127
2, 117600, Note_on_c, 1, 66, 127
2, 117600, Note_on_c, 1, 69, 127
2, 117600, Note_on_c, 1, 73, 127
2, 117760, Note_off_c, 1, 61, 0
2, 117760, Note_off_c, 1, 66, 0
2, 117760, Note_off_c, 1, 69, 0
2, 117760, Note_off_c, 1, 73, 0
2, 117800, Note_on_c, 1, 61, 127
2, 117800, Note_on_c, 1, 66, 127
2, 117800, Note_on_c, 1, 69, 127
2, 117800, Note_on_c, 1, 73, 127
2, 117960, Note_off_c, 1, 54, 0
2, 117960, Note_off_c, 1, 57, 0
2, 117960, Note_off_c, 1, 61, 0
2, 117960, Note_off_c, 1, 66, 0
2, 117960, Note_off_c, 1, 69, 0
2, 117960, Note_off_c, 1, 73, 0
2, 118000, Note_on_c, 1, 72, 127
2, 118000, Note_on_c, 1, 86, 127
2, 118000, Note_on_c, 1, 98, 127
2, 118000, Note_on_c, 1, 99, 127
2, 118040, Note_on_c, 1, 37, 127
2, 118040, Note_on_c, 1, 49, 127
2, 118040, Note_on_c, 1, 67, 127
2, 118040, Note_on_c, 1, 71, 127
2, 118040, Note_off_c, 1, 72, 0
2, 118040, Note_on_c, 1, 77, 127
2, 118040, Note_off_c, 1, 86, 0
2, 118040, Note_off_c, 1, 98, 0
2, 118040, Note_off_c, 1, 99, 0
2, 118360, Note_off_c, 1, 37, 0
2, 118360, Note_off_c, 1, 49, 0
2, 118360, Note_off_c, 1, 67, 0
2, 118360, Note_off_c, 1, 71, 0
2, 118360, Note_off_c, 1, 77, 0
2, 118400, Note_on_c, 1, 55, 127
2, 118400, Note_on_c, 1, 60, 127
2, 118400, Note_on_c, 1, 63, 127
2, 118400, Note_on_c, 1, 66, 127
2, 118400, Note_on_c, 1, 93, 127
2, 118440, Note_on_c, 1, 94, 127
2, 118600, Note_on_c, 1, 92, 127
2, 118600, Note_off_c, 1, 94, 0
2, 118640, Note_on_c, 1, 81, 127
2, 118640, Note_off_c, 1, 92, 0
2, 118640, Note_off_c, 1, 93, 0
2, 118680, Note_on_c, 1, 82, 127
2, 118960, Note_off_c, 1, 55, 0
2, 118960, Note_off_c, 1, 60, 0
2, 118960, Note_off_c, 1, 63, 0
2, 118960, Note_off_c, 1, 66, 0
2, 118960, Note_on_c, 1, 69, 127
2, 118960, Note_on_c, 1, 72, 127
2, 118960, Note_on_c, 1, 77, 127
2, 118960, Note_off_c, 1, 82, 0
2, 118960, Note_on_c, 1, 87, 127
2, 118960, Note_on_c, 1, 96, 127
2, 118960, Note_on_c, 1, 99, 127
2, 119000, Note_on_c, 1, 55, 127
2, 119000, Note_on_c, 1, 60, 127
2, 119000, Note_on_c, 1, 63, 127
2, 119000, Note_on_c, 1, 66, 127
2, 119000, Note_off_c, 1, 69, 0
2, 119000, Note_off_c, 1, 72, 0
2, 119000, Note_off_c, 1, 77, 0
2, 119000, Note_on_c, 1, 82, 127
2, 119000, Note_off_c, 1, 87, 0
2, 119000, Note_off_c, 1, 96, 0
2, 119000, Note_off_c, 1, 99, 0
2, 119120, Note_on_c, 1, 80, 127
2, 119160, Note_on_c, 1, 48, 127
2, 119160, Note_on_c, 1, 53, 127
2, 119160, Note_off_c, 1, 55, 0
2, 119160, Note_on_c, 1, 57, 127
2, 119160, Note_off_c, 1, 63, 0
2, 119160, Note_off_c, 1, 66, 0
2, 119160, Note_on_c, 1, 77, 127
2, 119160, Note_off_c, 1, 80, 0
2, 119160, Note_off_c, 1, 82, 0
2, 119160, Note_on_c, 1, 84, 127
2, 119200, Note_off_c, 1, 48, 0
2, 119200, Note_off_c, 1, 53, 0
2, 119200, Note_off_c, 1, 57, 0
2, 119200, Note_off_c, 1, 60, 0
2, 119200, Note_off_c, 1, 77, 0
2, 119200, Note_on_c, 1, 78, 127
2, 119200, Note_off_c, 1, 84, 0
2, 119240, Note_on_c, 1, 55, 127
2, 119240, Note_on_c, 1, 60, 127
2, 119240, Note_on_c, 1, 63, 127
2, 119240, Note_on_c, 1, 66, 127
2, 119240, Note_off_c, 1, 78, 0
2, 119240, Note_on_c, 1, 82, 127
2, 119400, Note_off_c, 1, 55, 0
2, 119400, Note_off_c, 1, 60, 0
2, 119400, Note_off_c, 1, 63, 0
2, 119400, Note_off_c, 1, 66, 0
2, 119400, Note_on_c, 1, 73, 127
2, 119400, Note_on_c, 1, 76, 127
2, 119400, Note_on_c, 1, 79, 127
2, 119400, Note_off_c, 1, 81, 0
2, 119400, Note_off_c, 1, 82, 0
2, 119400, Note_on_c, 1, 83, 127
2, 119440, Note_on_c, 1, 59, 127
2, 119440, Note_on_c, 1, 63, 127
2, 119440, Note_on_c, 1, 69, 127
2, 119440, Note_on_c, 1, 72, 127
2, 119440, Note_off_c, 1, 73, 0
2, 119440, Note_off_c, 1, 76, 0
2, 119440, Note_on_c, 1, 78, 127
2, 119440, Note_off_c, 1, 79, 0
2, 119440, Note_off_c, 1, 83, 0
2, 119480, Note_off_c, 1, 59, 0
2, 119480, Note_off_c, 1, 63, 0
2, 119480, Note_off_c, 1, 69, 0
2, 119480, Note_off_c, 1, 72, 0
2, 119480, Note_off_c, 1, 78, 0
2, 119520, Note_on_c, 1, 57, 127
2, 119520, Note_on_c, 1, 66, 127
2, 119520, Note_on_c, 1, 69, 127
2, 119520, Note_on_c, 1, 81, 127
2, 119560, Note_off_c, 1, 57, 0
2, 119560, Note_off_c, 1, 66, 0
2, 119560, Note_off_c, 1, 69, 0
2, 119680, Note_on_c, 1, 50, 127
2, 119680, Note_on_c, 1, 57, 127
2, 119680, Note_on_c, 1, 60, 127
2, 119680, Note_on_c, 1, 65, 127
2, 119680, Note_on_c, 1, 69, 127
2, 119680, Note_on_c, 1, 72, 127
2, 119680, Note_on_c, 1, 77, 127
2, 119680, Note_off_c, 1, 81, 0
2, 119720, Note_off_c, 1, 50, 0
2, 119720, Note_off_c, 1, 65, 0
2, 119720, Note_off_c, 1, 69, 0
2, 119720, Note_off_c, 1, 72, 0
2, 119720, Note_on_c, 1, 75, 127
2, 119720, Note_off_c, 1, 77, 0
2, 119720, Note_on_c, 1, 83, 127
2, 119800, Note_off_c, 1, 57, 0
2, 119800, Note_off_c, 1, 60, 0
2, 119800, Note_on_c, 1, 72, 127
2, 119800, Note_off_c, 1, 75, 0
2, 119800, Note_on_c, 1, 77, 127
2, 119800, Note_off_c, 1, 83, 0
2, 119800, Note_on_c, 1, 89, 127
2, 119800, Note_on_c, 1, 93, 127
2, 119840, Note_on_c, 1, 57, 127
2, 119840, Note_on_c, 1, 60, 127
2, 119840, Note_off_c, 1, 72, 0
2, 119840, Note_on_c, 1, 75, 127
2, 119840, Note_off_c, 1, 77, 0
2, 119840, Note_on_c, 1, 83, 127
2, 119840, Note_off_c, 1, 89, 0
2, 119840, Note_off_c, 1, 93, 0
2, 120000, Note_off_c, 1, 57, 0
2, 120000, Note_off_c, 1, 60, 0
2, 120000, Note_off_c, 1, 75, 0
2, 120000, Note_off_c, 1, 83, 0
2, 120040, End_track
3, 0, Start_track
3, 0, Title_t, "MIDI"
3, 1536, End_track
0, 0, End_of_file
