0, 0, Header, 1, 3, 192
1, 0, Start_track
1, 0, Time_signature, 4, 2, 24, 8
1, 0, Tempo, 500000
1, 120040, End_track
2, 0, Start_track
2, 0, Text_t, "random instrument: random person i dunno whatev"
2, 0, Title_t, "Track 1"
2, 0, Note_on_c, 1, 40, 127
2, 0, Note_on_c, 1, 48, 127
2, 0, Note_on_c, 1, 56, 127
2, 0, Note_on_c, 1, 60, 127
2, 40, Note_off_c, 1, 40, 0
2, 40, Note_on_c, 1, 42, 127
2, 40, Note_off_c, 1, 48, 0
2, 40, Note_on_c, 1, 49, 127
2, 40, Note_on_c, 1, 54, 127
2, 40, Note_off_c, 1, 56, 0
2, 40, Note_off_c, 1, 60, 0
2, 40, Note_on_c, 1, 82, 127
2, 40, Note_on_c, 1, 88, 127
2, 40, Note_on_c, 1, 94, 127
2, 80, Note_off_c, 1, 42, 0
2, 80, Note_off_c, 1, 49, 0
2, 80, Note_off_c, 1, 54, 0
2, 80, Note_off_c, 1, 82, 0
2, 80, Note_off_c, 1, 88, 0
2, 80, Note_off_c, 1, 94, 0
2, 120, Note_on_c, 1, 40, 127
2, 120, Note_on_c, 1, 48, 127
2, 120, Note_on_c, 1, 56, 127
2, 120, Note_on_c, 1, 60, 127
2, 360, Note_off_c, 1, 40, 0
2, 360, Note_off_c, 1, 48, 0
2, 360, Note_off_c, 1, 56, 0
2, 360, Note_on_c, 1, 57, 127
2, 360, Note_off_c, 1, 60, 0
2, 360, Note_on_c, 1, 62, 127
2, 360, Note_on_c, 1, 65, 127
2, 360, Note_on_c, 1, 69, 127
2, 360, Note_on_c, 1, 88, 127
2, 400, Note_on_c, 1, 38, 127
2, 400, Note_off_c, 1, 57, 0
2, 400, Note_off_c, 1, 62, 0
2, 400, Note_off_c, 1, 65, 0
2, 400, Note_on_c, 1, 66, 127
2, 400, Note_off_c, 1, 69, 0
2, 400, Note_on_c, 1, 74, 127
2, 400, Note_on_c, 1, 81, 127
2, 400, Note_off_c, 1, 88, 0
2, 440, Note_off_c, 1, 38, 0
2, 440, Note_off_c, 1, 66, 0
2, 440, Note_off_c, 1, 74, 0
2, 480, Note_on_c, 1, 76, 127
2, 480, Note_off_c, 1, 81, 0
2, 520, Note_on_c, 1, 57, 127
2, 520, Note_on_c, 1, 74, 127
2, 520, Note_off_c, 1, 76, 0
2, 680, Note_off_c, 1, 57, 0
2, 680, Note_off_c, 1, 74, 0
2, 720, Note_on_c, 1, 60, 127
2, 1280, Note_on_c, 1, 38, 127
2, 1280, Note_on_c, 1, 54, 127
2, 1280, Note_off_c, 1, 60, 0
2, 1280, Note_on_c, 1, 62, 127
2, 2000, Note_off_c, 1, 38, 0
2, 2000, Note_off_c, 1, 54, 0
2, 2000, Note_off_c, 1, 62, 0
2, 2040, Note_on_c, 1, 50, 127
2, 2120, Note_off_c, 1, 50, 0
2, 2160, Note_on_c, 1, 50, 127
2, 2480, Note_on_c, 1, 62, 127
2, 2480, Note_on_c, 1, 66, 127
2, 2480, Note_on_c, 1, 69, 127
2, 2840, Note_off_c, 1, 50, 0
2, 2840, Note_off_c, 1, 62, 0
2, 2840, Note_off_c, 1, 66, 0
2, 2840, Note_off_c, 1, 69, 0
2, 2880, Note_on_c, 1, 43, 127
2, 2880, Note_on_c, 1, 50, 127
2, 2880, Note_on_c, 1, 59, 127
2, 2880, Note_on_c, 1, 64, 127
2, 3760, Note_on_c, 1, 62, 127
2, 3760, Note_off_c, 1, 64, 0
2, 3800, Note_off_c, 1, 62, 0
2, 3800, Note_on_c, 1, 64, 127
2, 3840, Note_off_c, 1, 59, 0
2, 3840, Note_off_c, 1, 64, 0
2, 4040, Note_on_c, 1, 59, 127
2, 4040, Note_on_c, 1, 62, 127
2, 4680, Note_off_c, 1, 43, 0
2, 4680, Note_off_c, 1, 50, 0
2, 4680, Note_off_c, 1, 59, 0
2, 4680, Note_off_c, 1, 62, 0
2, 4720, Note_on_c, 1, 43, 127
2, 4720, Note_on_c, 1, 50, 127
2, 4720, Note_on_c, 1, 59, 127
2, 4760, Note_on_c, 1, 55, 127
2, 4760, Note_on_c, 1, 62, 127
2, 4760, Note_on_c, 1, 66, 127
2, 4840, Note_off_c, 1, 66, 0
2, 4880, Note_on_c, 1, 66, 127
2, 5240, Note_off_c, 1, 55, 0
2, 5240, Note_off_c, 1, 59, 0
2, 5240, Note_on_c, 1, 60, 127
2, 5240, Note_off_c, 1, 66, 0
2, 5240, Note_on_c, 1, 69, 127
2, 5280, Note_on_c, 1, 55, 127
2, 5280, Note_on_c, 1, 59, 127
2, 5280, Note_off_c, 1, 60, 0
2, 5280, Note_on_c, 1, 66, 127
2, 5280, Note_off_c, 1, 69, 0
2, 5640, Note_off_c, 1, 66, 0
2, 5680, Note_on_c, 1, 67, 127
2, 6040, Note_off_c, 1, 67, 0
2, 6080, Note_on_c, 1, 66, 127
2, 6440, Note_off_c, 1, 66, 0
2, 6480, Note_on_c, 1, 67, 127
2, 6840, Note_off_c, 1, 67, 0
2, 6880, Note_on_c, 1, 71, 127
2, 7040, Note_off_c, 1, 43, 0
2, 7040, Note_off_c, 1, 50, 0
2, 7040, Note_off_c, 1, 55, 0
2, 7040, Note_off_c, 1, 59, 0
2, 7040, Note_off_c, 1, 62, 0
2, 7040, Note_off_c, 1, 71, 0
2, 7080, Note_on_c, 1, 43, 127
2, 7080, Note_on_c, 1, 50, 127
2, 7080, Note_on_c, 1, 55, 127
2, 7080, Note_on_c, 1, 59, 127
2, 7080, Note_on_c, 1, 62, 127
2, 7080, Note_on_c, 1, 71, 127
2, 7680, Note_off_c, 1, 43, 0
2, 7680, Note_off_c, 1, 50, 0
2, 7680, Note_off_c, 1, 55, 0
2, 7680, Note_off_c, 1, 59, 0
2, 7680, Note_off_c, 1, 62, 0
2, 7680, Note_off_c, 1, 71, 0
2, 7720, Note_on_c, 1, 43, 127
2, 7720, Note_on_c, 1, 50, 127
2, 7720, Note_on_c, 1, 55, 127
2, 7720, Note_on_c, 1, 59, 127
2, 7720, Note_on_c, 1, 62, 127
2, 7720, Note_on_c, 1, 67, 127
2, 8920, Note_off_c, 1, 67, 0
2, 8960, Note_on_c, 1, 66, 127
2, 9480, Note_off_c, 1, 43, 0
2, 9480, Note_off_c, 1, 50, 0
2, 9480, Note_off_c, 1, 55, 0
2, 9480, Note_off_c, 1, 59, 0
2, 9480, Note_off_c, 1, 62, 0
2, 9480, Note_off_c, 1, 66, 0
2, 9520, Note_on_c, 1, 43, 127
2, 9520, Note_on_c, 1, 50, 127
2, 9520, Note_on_c, 1, 55, 127
2, 9520, Note_on_c, 1, 59, 127
2, 9520, Note_on_c, 1, 62, 127
2, 9520, Note_on_c, 1, 66, 127
2, 9760, Note_off_c, 1, 66, 0
2, 9800, Note_on_c, 1, 67, 127
2, 10320, Note_off_c, 1, 67, 0
2, 10800, Note_on_c, 1, 67, 127
2, 10920, Note_off_c, 1, 67, 0
2, 10960, Note_on_c, 1, 66, 127
2, 11000, Note_off_c, 1, 66, 0
2, 11040, Note_on_c, 1, 66, 127
2, 11440, Note_off_c, 1, 43, 0
2, 11440, Note_off_c, 1, 50, 0
2, 11440, Note_off_c, 1, 55, 0
2, 11440, Note_off_c, 1, 59, 0
2, 11440, Note_off_c, 1, 62, 0
2, 11440, Note_off_c, 1, 66, 0
2, 11480, Note_on_c, 1, 43, 127
2, 11480, Note_on_c, 1, 50, 127
2, 11480, Note_on_c, 1, 55, 127
2, 11480, Note_on_c, 1, 59, 127
2, 11480, Note_on_c, 1, 62, 127
2, 11480, Note_on_c, 1, 67, 127
2, 12000, Note_off_c, 1, 43, 0
2, 12000, Note_off_c, 1, 50, 0
2, 12000, Note_off_c, 1, 55, 0
2, 12000, Note_off_c, 1, 59, 0
2, 12000, Note_off_c, 1, 62, 0
2, 12000, Note_off_c, 1, 67, 0
2, 12040, Note_on_c, 1, 43, 127
2, 12040, Note_on_c, 1, 50, 127
2, 12040, Note_on_c, 1, 55, 127
2, 12040, Note_on_c, 1, 59, 127
2, 12040, Note_on_c, 1, 62, 127
2, 12040, Note_on_c, 1, 67, 127
2, 12280, Note_off_c, 1, 67, 0
2, 12320, Note_on_c, 1, 66, 127
2, 12720, Note_off_c, 1, 66, 0
2, 12760, Note_on_c, 1, 67, 127
2, 13120, Note_off_c, 1, 67, 0
2, 13160, Note_on_c, 1, 66, 127
2, 13520, Note_off_c, 1, 66, 0
2, 13560, Note_on_c, 1, 66, 127
2, 13960, Note_off_c, 1, 43, 0
2, 13960, Note_off_c, 1, 50, 0
2, 13960, Note_off_c, 1, 55, 0
2, 13960, Note_off_c, 1, 59, 0
2, 13960, Note_off_c, 1, 62, 0
2, 13960, Note_off_c, 1, 66, 0
2, 14000, Note_on_c, 1, 43, 127
2, 14000, Note_on_c, 1, 50, 127
2, 14000, Note_on_c, 1, 59, 127
2, 14000, Note_on_c, 1, 67, 127
2, 14280, Note_off_c, 1, 43, 0
2, 14280, Note_off_c, 1, 50, 0
2, 14280, Note_off_c, 1, 59, 0
2, 14280, Note_off_c, 1, 67, 0
2, 14320, Note_on_c, 1, 43, 127
2, 14320, Note_on_c, 1, 50, 127
2, 14320, Note_on_c, 1, 59, 127
2, 14320, Note_on_c, 1, 67, 127
2, 15240, Note_off_c, 1, 43, 0
2, 15240, Note_off_c, 1, 50, 0
2, 15240, Note_off_c, 1, 59, 0
2, 15240, Note_off_c, 1, 67, 0
2, 16080, Note_on_c, 1, 57, 127
2, 16080, Note_on_c, 1, 60, 127
2, 16080, Note_on_c, 1, 63, 127
2, 16080, Note_on_c, 1, 72, 127
2, 16080, Note_on_c, 1, 78, 127
2, 16080, Note_on_c, 1, 83, 127
2, 16160, Note_off_c, 1, 63, 0
2, 16160, Note_off_c, 1, 72, 0
2, 16160, Note_off_c, 1, 78, 0
2, 16160, Note_off_c, 1, 83, 0
2, 16200, Note_on_c, 1, 88, 127
2, 16240, Note_on_c, 1, 76, 127
2, 16240, Note_off_c, 1, 88, 0
2, 16280, Note_off_c, 1, 76, 0
2, 16320, Note_on_c, 1, 74, 127
2, 16480, Note_off_c, 1, 60, 0
2, 16520, Note_on_c, 1, 60, 127
2, 16880, Note_off_c, 1, 74, 0
2, 16920, Note_on_c, 1, 74, 127
2, 17520, Note_off_c, 1, 57, 0
2, 17520, Note_off_c, 1, 60, 0
2, 17520, Note_off_c, 1, 74, 0
2, 17560, Note_on_c, 1, 57, 127
2, 17560, Note_on_c, 1, 60, 127
2, 17560, Note_on_c, 1, 74, 127
2, 17760, Note_off_c, 1, 57, 0
2, 17760, Note_off_c, 1, 74, 0
2, 17800, Note_on_c, 1, 55, 127
2, 17800, Note_on_c, 1, 59, 127
2, 17800, Note_off_c, 1, 60, 0
2, 17800, Note_on_c, 1, 67, 127
2, 17800, Note_on_c, 1, 79, 127
2, 18600, Note_off_c, 1, 55, 0
2, 18600, Note_off_c, 1, 59, 0
2, 18600, Note_off_c, 1, 67, 0
2, 18600, Note_off_c, 1, 79, 0
2, 18640, Note_on_c, 1, 50, 127
2, 18640, Note_on_c, 1, 66, 127
2, 18640, Note_on_c, 1, 69, 127
2, 18640, Note_on_c, 1, 74, 127
2, 19440, Note_off_c, 1, 66, 0
2, 19440, Note_off_c, 1, 69, 0
2, 19440, Note_off_c, 1, 74, 0
2, 19680, Note_on_c, 1, 77, 127
2, 19720, Note_off_c, 1, 77, 0
2, 19760, Note_off_c, 1, 50, 0
2, 19800, Note_on_c, 1, 50, 127
2, 19920, Note_on_c, 1, 64, 127
2, 20280, Note_off_c, 1, 50, 0
2, 20320, Note_on_c, 1, 50, 127
2, 21080, Note_off_c, 1, 50, 0
2, 21080, Note_off_c, 1, 64, 0
2, 21120, Note_on_c, 1, 50, 127
2, 21120, Note_on_c, 1, 57, 127
2, 21720, Note_off_c, 1, 50, 0
2, 21760, Note_on_c, 1, 50, 127
2, 21880, Note_off_c, 1, 50, 0
2, 21880, Note_off_c, 1, 57, 0
2, 21920, Note_on_c, 1, 31, 127
2, 21920, Note_on_c, 1, 43, 127
2, 21920, Note_on_c, 1, 71, 127
2, 22080, Note_off_c, 1, 31, 0
2, 22080, Note_off_c, 1, 43, 0
2, 22080, Note_off_c, 1, 71, 0
2, 22120, Note_on_c, 1, 31, 127
2, 22120, Note_on_c, 1, 43, 127
2, 22120, Note_on_c, 1, 71, 127
2, 22360, Note_on_c, 1, 67, 127
2, 22360, Note_off_c, 1, 71, 0
2, 22760, Note_off_c, 1, 67, 0
2, 22800, Note_off_c, 1, 31, 0
2, 22800, Note_on_c, 1, 36, 127
2, 22800, Note_off_c, 1, 43, 0
2, 22800, Note_on_c, 1, 48, 127
2, 22800, Note_on_c, 1, 55, 127
2, 22800, Note_on_c, 1, 64, 127
2, 23760, Note_off_c, 1, 55, 0
2, 23760, Note_on_c, 1, 60, 127
2, 23800, Note_off_c, 1, 60, 0
2, 23840, Note_on_c, 1, 55, 127
2, 24000, Note_off_c, 1, 55, 0
2, 24040, Note_on_c, 1, 60, 127
2, 24360, Note_off_c, 1, 36, 0
2, 24360, Note_off_c, 1, 48, 0
2, 24360, Note_off_c, 1, 60, 0
2, 24360, Note_off_c, 1, 64, 0
2, 24400, Note_on_c, 1, 36, 127
2, 24400, Note_on_c, 1, 48, 127
2, 24400, Note_on_c, 1, 60, 127
2, 24400, Note_on_c, 1, 64, 127
2, 24880, Note_off_c, 1, 60, 0
2, 25320, Note_off_c, 1, 36, 0
2, 25320, Note_on_c, 1, 40, 127
2, 25320, Note_off_c, 1, 48, 0
2, 25320, Note_on_c, 1, 52, 127
2, 25320, Note_off_c, 1, 64, 0
2, 25360, Note_on_c, 1, 64, 127
2, 26160, Note_off_c, 1, 40, 0
2, 26160, Note_off_c, 1, 52, 0
2, 26160, Note_off_c, 1, 64, 0
2, 26200, Note_on_c, 1, 40, 127
2, 26200, Note_on_c, 1, 52, 127
2, 26200, Note_on_c, 1, 64, 127
2, 28280, Note_off_c, 1, 40, 0
2, 28280, Note_off_c, 1, 52, 0
2, 28280, Note_off_c, 1, 64, 0
2, 28360, Note_on_c, 1, 45, 127
2, 28360, Note_on_c, 1, 57, 127
2, 28360, Note_on_c, 1, 73, 127
2, 28360, Note_on_c, 1, 76, 127
2, 28360, Note_on_c, 1, 81, 127
2, 28360, Note_on_c, 1, 85, 127
2, 29160, Note_off_c, 1, 45, 0
2, 29160, Note_off_c, 1, 57, 0
2, 29160, Note_off_c, 1, 73, 0
2, 29160, Note_off_c, 1, 76, 0
2, 29160, Note_off_c, 1, 81, 0
2, 29160, Note_off_c, 1, 85, 0
2, 29200, Note_on_c, 1, 45, 127
2, 29200, Note_on_c, 1, 57, 127
2, 29200, Note_on_c, 1, 64, 127
2, 29200, Note_on_c, 1, 69, 127
2, 29200, Note_on_c, 1, 73, 127
2, 29960, Note_off_c, 1, 45, 0
2, 29960, Note_off_c, 1, 57, 0
2, 29960, Note_off_c, 1, 64, 0
2, 29960, Note_off_c, 1, 69, 0
2, 29960, Note_off_c, 1, 73, 0
2, 30000, Note_on_c, 1, 38, 127
2, 30000, Note_on_c, 1, 50, 127
2, 30000, Note_on_c, 1, 65, 127
2, 30000, Note_on_c, 1, 74, 127
2, 30720, Note_off_c, 1, 38, 0
2, 30720, Note_off_c, 1, 50, 0
2, 30720, Note_off_c, 1, 65, 0
2, 30720, Note_off_c, 1, 74, 0
2, 30760, Note_on_c, 1, 38, 127
2, 30760, Note_on_c, 1, 50, 127
2, 30760, Note_on_c, 1, 65, 127
2, 30760, Note_on_c, 1, 74, 127
2, 31240, Note_off_c, 1, 65, 0
2, 31280, Note_on_c, 1, 65, 127
2, 31680, Note_off_c, 1, 38, 0
2, 31680, Note_off_c, 1, 50, 0
2, 31680, Note_off_c, 1, 65, 0
2, 31680, Note_off_c, 1, 74, 0
2, 31720, Note_on_c, 1, 44, 127
2, 31720, Note_on_c, 1, 51, 127
2, 31720, Note_on_c, 1, 73, 127
2, 31720, Note_on_c, 1, 78, 127
2, 32080, Note_off_c, 1, 44, 0
2, 32080, Note_off_c, 1, 51, 0
2, 32080, Note_on_c, 1, 52, 127
2, 32080, Note_on_c, 1, 56, 127
2, 32080, Note_on_c, 1, 63, 127
2, 32080, Note_off_c, 1, 73, 0
2, 32080, Note_off_c, 1, 78, 0
2, 32120, Note_on_c, 1, 44, 127
2, 32120, Note_on_c, 1, 51, 127
2, 32120, Note_off_c, 1, 52, 0
2, 32120, Note_off_c, 1, 56, 0
2, 32120, Note_off_c, 1, 63, 0
2, 32120, Note_on_c, 1, 73, 127
2, 32120, Note_on_c, 1, 78, 127
2, 32480, Note_on_c, 1, 42, 127
2, 32480, Note_off_c, 1, 44, 0
2, 32480, Note_on_c, 1, 60, 127
2, 32480, Note_on_c, 1, 72, 127
2, 32480, Note_off_c, 1, 73, 0
2, 32480, Note_off_c, 1, 78, 0
2, 32520, Note_off_c, 1, 42, 0
2, 32520, Note_off_c, 1, 51, 0
2, 32520, Note_on_c, 1, 56, 127
2, 32520, Note_on_c, 1, 59, 127
2, 32520, Note_off_c, 1, 60, 0
2, 32520, Note_on_c, 1, 63, 127
2, 32520, Note_off_c, 1, 72, 0
2, 32520, Note_on_c, 1, 75, 127
2, 32520, Note_on_c, 1, 80, 127
2, 32560, Note_on_c, 1, 33, 127
2, 32560, Note_on_c, 1, 45, 127
2, 32560, Note_on_c, 1, 52, 127
2, 32560, Note_on_c, 1, 55, 127
2, 32560, Note_off_c, 1, 56, 0
2, 32560, Note_on_c, 1, 57, 127
2, 32560, Note_off_c, 1, 59, 0
2, 32560, Note_off_c, 1, 63, 0
2, 32560, Note_on_c, 1, 69, 127
2, 32560, Note_off_c, 1, 75, 0
2, 32560, Note_off_c, 1, 80, 0
2, 32600, Note_off_c, 1, 33, 0
2, 32600, Note_off_c, 1, 45, 0
2, 32600, Note_off_c, 1, 52, 0
2, 32600, Note_on_c, 1, 54, 127
2, 32600, Note_off_c, 1, 55, 0
2, 32600, Note_on_c, 1, 61, 127
2, 32600, Note_off_c, 1, 69, 0
2, 32600, Note_on_c, 1, 73, 127
2, 32600, Note_on_c, 1, 78, 127
2, 32600, Note_on_c, 1, 81, 127
2, 32600, Note_on_c, 1, 85, 127
2, 32640, Note_on_c, 1, 35, 127
2, 32640, Note_on_c, 1, 47, 127
2, 32640, Note_off_c, 1, 54, 0
2, 32640, Note_off_c, 1, 57, 0
2, 32640, Note_on_c, 1, 59, 127
2, 32640, Note_off_c, 1, 61, 0
2, 32640, Note_on_c, 1, 66, 127
2, 32640, Note_on_c, 1, 71, 127
2, 32640, Note_off_c, 1, 73, 0
2, 32640, Note_on_c, 1, 75, 127
2, 32640, Note_off_c, 1, 78, 0
2, 32640, Note_off_c, 1, 81, 0
2, 32640, Note_off_c, 1, 85, 0
2, 32680, Note_off_c, 1, 35, 0
2, 32680, Note_off_c, 1, 47, 0
2, 32680, Note_on_c, 1, 53, 127
2, 32680, Note_off_c, 1, 59, 0
2, 32680, Note_on_c, 1, 60, 127
2, 32680, Note_off_c, 1, 66, 0
2, 32680, Note_on_c, 1, 67, 127
2, 32680, Note_off_c, 1, 71, 0
2, 32680, Note_off_c, 1, 75, 0
2, 32680, Note_on_c, 1, 79, 127
2, 32720, Note_on_c, 1, 35, 127
2, 32720, Note_on_c, 1, 47, 127
2, 32720, Note_off_c, 1, 53, 0
2, 32720, Note_on_c, 1, 55, 127
2, 32720, Note_on_c, 1, 59, 127
2, 32720, Note_off_c, 1, 60, 0
2, 32720, Note_on_c, 1, 62, 127
2, 32720, Note_on_c, 1, 74, 127
2, 32760, Note_off_c, 1, 35, 0
2, 32760, Note_off_c, 1, 47, 0
2, 32760, Note_off_c, 1, 67, 0
2, 32760, Note_off_c, 1, 74, 0
2, 32760, Note_off_c, 1, 79, 0
2, 32760, Note_on_c, 1, 98, 127
2, 32800, Note_on_c, 1, 33, 127
2, 32800, Note_on_c, 1, 37, 127
2, 32800, Note_on_c, 1, 40, 127
2, 32800, Note_on_c, 1, 45, 127
2, 32800, Note_off_c, 1, 55, 0
2, 32800, Note_off_c, 1, 59, 0
2, 32800, Note_off_c, 1, 62, 0
2, 32800, Note_off_c, 1, 98, 0
2, 32840, Note_off_c, 1, 33, 0
2, 32840, Note_off_c, 1, 37, 0
2, 32840, Note_off_c, 1, 40, 0
2, 32840, Note_off_c, 1, 45, 0
2, 32880, Note_on_c, 1, 41, 127
2, 32880, Note_on_c, 1, 50, 127
2, 32880, Note_on_c, 1, 59, 127
2, 32880, Note_on_c, 1, 65, 127
2, 32880, Note_on_c, 1, 71, 127
2, 32920, Note_off_c, 1, 41, 0
2, 32920, Note_off_c, 1, 50, 0
2, 32920, Note_off_c, 1, 59, 0
2, 32920, Note_off_c, 1, 65, 0
2, 32920, Note_off_c, 1, 71, 0
2, 32960, Note_on_c, 1, 39, 127
2, 32960, Note_on_c, 1, 41, 127
2, 32960, Note_on_c, 1, 51, 127
2, 32960, Note_on_c, 1, 53, 127
2, 33000, Note_off_c, 1, 39, 0
2, 33000, Note_on_c, 1, 40, 127
2, 33000, Note_off_c, 1, 51, 0
2, 33000, Note_on_c, 1, 52, 127
2, 33120, Note_on_c, 1, 37, 127
2, 33120, Note_on_c, 1, 38, 127
2, 33120, Note_off_c, 1, 40, 0
2, 33120, Note_off_c, 1, 41, 0
2, 33120, Note_on_c, 1, 49, 127
2, 33120, Note_on_c, 1, 50, 127
2, 33120, Note_off_c, 1, 52, 0
2, 33120, Note_off_c, 1, 53, 0
2, 33160, Note_off_c, 1, 37, 0
2, 33160, Note_off_c, 1, 38, 0
2, 33160, Note_on_c, 1, 39, 127
2, 33160, Note_on_c, 1, 40, 127
2, 33160, Note_off_c, 1, 49, 0
2, 33160, Note_off_c, 1, 50, 0
2, 33160, Note_on_c, 1, 51, 127
2, 33160, Note_on_c, 1, 52, 127
2, 33200, Note_off_c, 1, 39, 0
2, 33200, Note_on_c, 1, 41, 127
2, 33200, Note_off_c, 1, 51, 0
2, 33200, Note_on_c, 1, 53, 127
2, 33280, Note_off_c, 1, 40, 0
2, 33280, Note_off_c, 1, 41, 0
2, 33280, Note_on_c, 1, 42, 127
2, 33280, Note_on_c, 1, 43, 127
2, 33280, Note_off_c, 1, 52, 0
2, 33280, Note_off_c, 1, 53, 0
2, 33280, Note_on_c, 1, 54, 127
2, 33280, Note_on_c, 1, 55, 127
2, 33320, Note_off_c, 1, 42, 0
2, 33320, Note_off_c, 1, 43, 0
2, 33320, Note_on_c, 1, 47, 127
2, 33320, Note_off_c, 1, 54, 0
2, 33320, Note_off_c, 1, 55, 0
2, 33320, Note_on_c, 1, 56, 127
2, 33320, Note_on_c, 1, 59, 127
2, 33320, Note_on_c, 1, 71, 127
2, 33360, Note_on_c, 1, 43, 127
2, 33360, Note_on_c, 1, 44, 127
2, 33360, Note_off_c, 1, 47, 0
2, 33360, Note_on_c, 1, 55, 127
2, 33360, Note_off_c, 1, 59, 0
2, 33360, Note_off_c, 1, 71, 0
2, 33400, Note_on_c, 1, 38, 127
2, 33400, Note_on_c, 1, 39, 127
2, 33400, Note_off_c, 1, 43, 0
2, 33400, Note_off_c, 1, 44, 0
2, 33400, Note_on_c, 1, 50, 127
2, 33400, Note_on_c, 1, 51, 127
2, 33400, Note_off_c, 1, 55, 0
2, 33400, Note_off_c, 1, 56, 0
2, 33440, Note_off_c, 1, 38, 0
2, 33440, Note_on_c, 1, 40, 127
2, 33440, Note_off_c, 1, 50, 0
2, 33440, Note_on_c, 1, 52, 127
2, 33760, Note_off_c, 1, 40, 0
2, 33760, Note_on_c, 1, 48, 127
2, 33760, Note_off_c, 1, 52, 0
2, 34000, Note_off_c, 1, 48, 0
2, 34160, Note_off_c, 1, 39, 0
2, 34160, Note_off_c, 1, 51, 0
2, 34160, Note_on_c, 1, 58, 127
2, 34160, Note_on_c, 1, 63, 127
2, 34160, Note_on_c, 1, 67, 127
2, 34160, Note_on_c, 1, 93, 127
2, 34720, Note_on_c, 1, 81, 127
2, 34720, Note_off_c, 1, 93, 0
2, 34760, Note_off_c, 1, 81, 0
2, 34800, Note_on_c, 1, 86, 127
2, 34920, Note_off_c, 1, 86, 0
2, 34960, Note_off_c, 1, 58, 0
2, 34960, Note_off_c, 1, 63, 0
2, 34960, Note_off_c, 1, 67, 0
2, 35000, Note_on_c, 1, 45, 127
2, 35000, Note_on_c, 1, 54, 127
2, 35000, Note_on_c, 1, 57, 127
2, 35000, Note_on_c, 1, 69, 127
2, 35000, Note_on_c, 1, 72, 127
2, 35000, Note_on_c, 1, 75, 127
2, 35760, Note_off_c, 1, 45, 0
2, 35760, Note_off_c, 1, 54, 0
2, 35760, Note_off_c, 1, 57, 0
2, 35760, Note_off_c, 1, 69, 0
2, 35760, Note_off_c, 1, 72, 0
2, 35760, Note_off_c, 1, 75, 0
2, 35840, Note_on_c, 1, 59, 127
2, 35840, Note_on_c, 1, 67, 127
2, 35840, Note_on_c, 1, 77, 127
2, 35840, Note_on_c, 1, 80, 127
2, 35880, Note_off_c, 1, 59, 0
2, 35880, Note_off_c, 1, 67, 0
2, 35880, Note_off_c, 1, 77, 0
2, 35880, Note_off_c, 1, 80, 0
2, 35920, Note_on_c, 1, 57, 127
2, 35920, Note_on_c, 1, 73, 127
2, 35920, Note_on_c, 1, 77, 127
2, 35920, Note_on_c, 1, 81, 127
2, 36080, Note_off_c, 1, 57, 0
2, 36520, Note_off_c, 1, 73, 0
2, 36520, Note_off_c, 1, 77, 0
2, 36520, Note_off_c, 1, 81, 0
2, 36560, Note_on_c, 1, 33, 127
2, 36560, Note_on_c, 1, 45, 127
2, 36560, Note_on_c, 1, 69, 127
2, 36560, Note_on_c, 1, 72, 127
2, 36560, Note_on_c, 1, 77, 127
2, 36560, Note_on_c, 1, 81, 127
2, 36920, Note_off_c, 1, 69, 0
2, 36920, Note_off_c, 1, 72, 0
2, 36920, Note_off_c, 1, 77, 0
2, 36920, Note_off_c, 1, 81, 0
2, 36960, Note_on_c, 1, 32, 127
2, 36960, Note_off_c, 1, 33, 0
2, 36960, Note_on_c, 1, 38, 127
2, 36960, Note_on_c, 1, 44, 127
2, 36960, Note_off_c, 1, 45, 0
2, 36960, Note_on_c, 1, 71, 127
2, 37000, Note_off_c, 1, 32, 0
2, 37000, Note_off_c, 1, 44, 0
2, 37000, Note_on_c, 1, 54, 127
2, 37000, Note_on_c, 1, 60, 127
2, 37000, Note_on_c, 1, 64, 127
2, 37200, Note_off_c, 1, 38, 0
2, 37200, Note_off_c, 1, 54, 0
2, 37200, Note_off_c, 1, 60, 0
2, 37200, Note_off_c, 1, 64, 0
2, 37200, Note_off_c, 1, 71, 0
2, 37240, Note_on_c, 1, 38, 127
2, 37240, Note_on_c, 1, 54, 127
2, 37240, Note_on_c, 1, 60, 127
2, 37240, Note_on_c, 1, 64, 127
2, 37240, Note_on_c, 1, 71, 127
2, 37400, Note_off_c, 1, 38, 0
2, 37400, Note_off_c, 1, 54, 0
2, 37400, Note_off_c, 1, 60, 0
2, 37400, Note_off_c, 1, 64, 0
2, 37400, Note_off_c, 1, 71, 0
2, 37440, Note_on_c, 1, 44, 127
2, 37440, Note_on_c, 1, 56, 127
2, 37440, Note_on_c, 1, 74, 127
2, 37440, Note_on_c, 1, 77, 127
2, 39280, Note_off_c, 1, 44, 0
2, 39280, Note_off_c, 1, 56, 0
2, 39280, Note_off_c, 1, 74, 0
2, 39280, Note_off_c, 1, 77, 0
2, 39320, Note_on_c, 1, 43, 127
2, 39320, Note_on_c, 1, 55, 127
2, 39320, Note_on_c, 1, 75, 127
2, 39320, Note_on_c, 1, 82, 127
2, 39320, Note_on_c, 1, 87, 127
2, 39560, Note_off_c, 1, 43, 0
2, 39560, Note_off_c, 1, 55, 0
2, 39560, Note_off_c, 1, 75, 0
2, 39560, Note_off_c, 1, 82, 0
2, 39560, Note_off_c, 1, 87, 0
2, 39600, Note_on_c, 1, 43, 127
2, 39600, Note_on_c, 1, 55, 127
2, 39600, Note_on_c, 1, 75, 127
2, 39600, Note_on_c, 1, 82, 127
2, 39600, Note_on_c, 1, 87, 127
2, 40080, Note_off_c, 1, 75, 0
2, 40080, Note_off_c, 1, 82, 0
2, 40080, Note_off_c, 1, 87, 0
2, 40120, Note_on_c, 1, 75, 127
2, 40120, Note_on_c, 1, 82, 127
2, 40120, Note_on_c, 1, 87, 127
2, 40360, Note_off_c, 1, 75, 0
2, 40360, Note_off_c, 1, 82, 0
2, 40360, Note_off_c, 1, 87, 0
2, 40400, Note_off_c, 1, 43, 0
2, 40400, Note_on_c, 1, 67, 127
2, 40400, Note_on_c, 1, 75, 127
2, 40400, Note_on_c, 1, 82, 127
2, 40400, Note_on_c, 1, 87, 127
2, 40800, Note_off_c, 1, 55, 0
2, 40800, Note_off_c, 1, 67, 0
2, 40840, Note_on_c, 1, 55, 127
2, 40840, Note_on_c, 1, 67, 127
2, 41000, Note_off_c, 1, 55, 0
2, 41000, Note_off_c, 1, 67, 0
2, 41000, Note_off_c, 1, 75, 0
2, 41000, Note_off_c, 1, 82, 0
2, 41000, Note_off_c, 1, 87, 0
2, 41040, Note_on_c, 1, 37, 127
2, 41040, Note_on_c, 1, 49, 127
2, 41040, Note_on_c, 1, 93, 127
2, 41440, Note_off_c, 1, 93, 0
2, 41480, Note_on_c, 1, 93, 127
2, 41560, Note_on_c, 1, 81, 127
2, 41560, Note_off_c, 1, 93, 0
2, 41600, Note_off_c, 1, 37, 0
2, 41600, Note_off_c, 1, 49, 0
2, 41600, Note_off_c, 1, 81, 0
2, 41640, Note_on_c, 1, 37, 127
2, 41640, Note_on_c, 1, 49, 127
2, 41640, Note_on_c, 1, 93, 127
2, 42080, Note_off_c, 1, 93, 0
2, 42120, Note_on_c, 1, 93, 127
2, 42520, Note_off_c, 1, 93, 0
2, 42560, Note_on_c, 1, 93, 127
2, 43560, Note_on_c, 1, 66, 127
2, 43560, Note_on_c, 1, 78, 127
2, 43560, Note_off_c, 1, 93, 0
2, 43600, Note_off_c, 1, 66, 0
2, 43600, Note_off_c, 1, 78, 0
2, 43600, Note_on_c, 1, 93, 127
2, 43760, Note_off_c, 1, 37, 0
2, 43760, Note_off_c, 1, 49, 0
2, 43760, Note_off_c, 1, 93, 0
2, 43840, Note_on_c, 1, 74, 127
2, 43840, Note_on_c, 1, 78, 127
2, 43840, Note_on_c, 1, 81, 127
2, 43840, Note_on_c, 1, 84, 127
2, 44040, Note_on_c, 1, 69, 127
2, 44080, Note_off_c, 1, 69, 0
2, 44160, Note_on_c, 1, 69, 127
2, 44200, Note_off_c, 1, 69, 0
2, 44240, Note_on_c, 1, 66, 127
2, 44400, Note_off_c, 1, 66, 0
2, 44440, Note_on_c, 1, 57, 127
2, 44480, Note_off_c, 1, 57, 0
2, 44480, Note_on_c, 1, 66, 127
2, 44520, Note_on_c, 1, 57, 127
2, 44520, Note_off_c, 1, 66, 0
2, 44560, Note_off_c, 1, 57, 0
2, 44640, Note_off_c, 1, 74, 0
2, 44640, Note_off_c, 1, 78, 0
2, 44640, Note_off_c, 1, 81, 0
2, 44640, Note_off_c, 1, 84, 0
2, 44680, Note_on_c, 1, 57, 127
2, 44680, Note_on_c, 1, 86, 127
2, 45040, Note_off_c, 1, 57, 0
2, 45040, Note_off_c, 1, 86, 0
2, 45040, Note_on_c, 1, 87, 127
2, 45080, Note_on_c, 1, 81, 127
2, 45080, Note_on_c, 1, 82, 127
2, 45080, Note_off_c, 1, 87, 0
2, 45120, Note_off_c, 1, 82, 0
2, 45680, Note_off_c, 1, 81, 0
2, 45720, Note_on_c, 1, 82, 127
2, 45880, Note_off_c, 1, 82, 0
2, 45960, Note_on_c, 1, 79, 127
2, 46320, Note_off_c, 1, 79, 0
2, 47160, Note_on_c, 1, 72, 127
2, 47160, Note_on_c, 1, 75, 127
2, 48520, Note_off_c, 1, 72, 0
2, 48520, Note_off_c, 1, 75, 0
2, 48560, Note_on_c, 1, 72, 127
2, 48560, Note_on_c, 1, 75, 127
2, 48800, Note_off_c, 1, 72, 0
2, 48800, Note_off_c, 1, 75, 0
2, 48840, Note_on_c, 1, 65, 127
2, 48840, Note_on_c, 1, 68, 127
2, 48840, Note_on_c, 1, 73, 127
2, 49240, Note_on_c, 1, 80, 127
2, 49400, Note_off_c, 1, 80, 0
2, 49720, Note_off_c, 1, 73, 0
2, 49840, Note_off_c, 1, 65, 0
2, 49840, Note_off_c, 1, 68, 0
2, 51120, Note_on_c, 1, 41, 127
2, 51480, Note_off_c, 1, 41, 0
2, 51520, Note_on_c, 1, 70, 127
2, 51880, Note_off_c, 1, 70, 0
2, 51920, Note_on_c, 1, 82, 127
2, 52720, Note_off_c, 1, 82, 0
2, 52760, Note_on_c, 1, 60, 127
2, 52760, Note_on_c, 1, 63, 127
2, 52760, Note_on_c, 1, 67, 127
2, 52760, Note_on_c, 1, 80, 127
2, 53080, Note_off_c, 1, 60, 0
2, 53080, Note_off_c, 1, 63, 0
2, 53080, Note_off_c, 1, 67, 0
2, 53080, Note_off_c, 1, 80, 0
2, 53120, Note_on_c, 1, 60, 127
2, 53120, Note_on_c, 1, 63, 127
2, 53120, Note_on_c, 1, 67, 127
2, 53120, Note_on_c, 1, 80, 127
2, 53160, Note_off_c, 1, 60, 0
2, 53160, Note_off_c, 1, 63, 0
2, 53160, Note_off_c, 1, 67, 0
2, 53160, Note_off_c, 1, 80, 0
2, 53200, Note_on_c, 1, 62, 127
2, 53200, Note_on_c, 1, 65, 127
2, 53200, Note_on_c, 1, 79, 127
2, 53560, Note_off_c, 1, 79, 0
2, 53600, Note_on_c, 1, 77, 127
2, 53800, Note_off_c, 1, 77, 0
2, 54000, Note_off_c, 1, 62, 0
2, 54000, Note_off_c, 1, 65, 0
2, 54040, Note_on_c, 1, 62, 127
2, 54040, Note_on_c, 1, 65, 127
2, 54040, Note_on_c, 1, 82, 127
2, 54400, Note_off_c, 1, 82, 0
2, 54440, Note_on_c, 1, 82, 127
2, 54800, Note_off_c, 1, 62, 0
2, 54800, Note_off_c, 1, 65, 0
2, 54800, Note_off_c, 1, 82, 0
2, 54840, Note_on_c, 1, 82, 127
2, 55200, Note_off_c, 1, 82, 0
2, 55280, Note_on_c, 1, 63, 127
2, 55280, Note_on_c, 1, 67, 127
2, 55280, Note_on_c, 1, 70, 127
2, 55280, Note_on_c, 1, 74, 127
2, 56480, Note_off_c, 1, 74, 0
2, 56520, Note_off_c, 1, 63, 0
2, 56520, Note_on_c, 1, 76, 127
2, 56520, Note_on_c, 1, 82, 127
2, 56880, Note_off_c, 1, 67, 0
2, 56880, Note_off_c, 1, 70, 0
2, 56880, Note_off_c, 1, 76, 0
2, 56920, Note_on_c, 1, 77, 127
2, 56920, Note_on_c, 1, 86, 127
2, 56920, Note_on_c, 1, 89, 127
2, 57360, Note_off_c, 1, 77, 0
2, 57360, Note_off_c, 1, 82, 0
2, 57360, Note_off_c, 1, 86, 0
2, 57360, Note_off_c, 1, 89, 0
2, 57400, Note_on_c, 1, 77, 127
2, 57400, Note_on_c, 1, 82, 127
2, 57400, Note_on_c, 1, 86, 127
2, 57400, Note_on_c, 1, 89, 127
2, 57720, Note_off_c, 1, 82, 0
2, 57720, Note_off_c, 1, 86, 0
2, 57720, Note_off_c, 1, 89, 0
2, 57800, Note_on_c, 1, 82, 127
2, 57800, Note_on_c, 1, 86, 127
2, 57800, Note_on_c, 1, 89, 127
2, 58640, Note_on_c, 1, 62, 127
2, 58640, Note_on_c, 1, 68, 127
2, 58640, Note_on_c, 1, 70, 127
2, 58800, Note_off_c, 1, 77, 0
2, 58800, Note_off_c, 1, 82, 0
2, 58800, Note_off_c, 1, 86, 0
2, 58800, Note_off_c, 1, 89, 0
2, 59000, Note_off_c, 1, 62, 0
2, 59000, Note_off_c, 1, 68, 0
2, 59000, Note_off_c, 1, 70, 0
2, 59040, Note_on_c, 1, 51, 127
2, 59040, Note_on_c, 1, 58, 127
2, 59040, Note_on_c, 1, 63, 127
2, 59040, Note_on_c, 1, 67, 127
2, 59040, Note_on_c, 1, 72, 127
2, 59160, Note_off_c, 1, 51, 0
2, 59160, Note_off_c, 1, 58, 0
2, 59160, Note_off_c, 1, 63, 0
2, 59160, Note_off_c, 1, 67, 0
2, 59160, Note_off_c, 1, 72, 0
2, 59200, Note_on_c, 1, 51, 127
2, 59200, Note_on_c, 1, 58, 127
2, 59200, Note_on_c, 1, 63, 127
2, 59200, Note_on_c, 1, 67, 127
2, 59200, Note_on_c, 1, 72, 127
2, 59680, Note_off_c, 1, 72, 0
2, 59680, Note_on_c, 1, 74, 127
2, 59840, Note_off_c, 1, 51, 0
2, 59840, Note_off_c, 1, 58, 0
2, 59840, Note_off_c, 1, 63, 0
2, 59840, Note_off_c, 1, 67, 0
2, 59840, Note_off_c, 1, 74, 0
2, 59880, Note_on_c, 1, 58, 127
2, 59880, Note_on_c, 1, 63, 127
2, 59880, Note_on_c, 1, 67, 127
2, 59880, Note_on_c, 1, 72, 127
2, 60640, Note_off_c, 1, 63, 0
2, 60640, Note_off_c, 1, 67, 0
2, 60640, Note_off_c, 1, 72, 0
2, 60680, Note_off_c, 1, 58, 0
2, 60720, Note_on_c, 1, 57, 127
2, 60720, Note_on_c, 1, 63, 127
2, 60720, Note_on_c, 1, 67, 127
2, 60720, Note_on_c, 1, 72, 127
2, 61120, Note_off_c, 1, 57, 0
2, 61120, Note_off_c, 1, 63, 0
2, 61120, Note_off_c, 1, 67, 0
2, 61120, Note_off_c, 1, 72, 0
2, 61160, Note_on_c, 1, 57, 127
2, 61160, Note_on_c, 1, 63, 127
2, 61160, Note_on_c, 1, 67, 127
2, 61160, Note_on_c, 1, 72, 127
2, 61920, Note_off_c, 1, 57, 0
2, 61920, Note_off_c, 1, 63, 0
2, 61920, Note_off_c, 1, 67, 0
2, 61920, Note_off_c, 1, 72, 0
2, 61960, Note_on_c, 1, 63, 127
2, 61960, Note_on_c, 1, 67, 127
2, 61960, Note_on_c, 1, 72, 127
2, 62680, Note_off_c, 1, 63, 0
2, 63080, Note_off_c, 1, 72, 0
2, 63160, Note_on_c, 1, 55, 127
2, 63200, Note_off_c, 1, 55, 0
2, 63200, Note_off_c, 1, 67, 0
2, 63240, Note_on_c, 1, 55, 127
2, 63240, Note_on_c, 1, 67, 127
2, 63960, Note_off_c, 1, 55, 0
2, 64440, Note_on_c, 1, 64, 127
2, 64440, Note_off_c, 1, 67, 0
2, 65040, Note_off_c, 1, 64, 0
2, 65720, Note_on_c, 1, 60, 127
2, 66920, Note_off_c, 1, 60, 0
2, 66960, Note_on_c, 1, 57, 127
2, 67200, Note_on_c, 1, 52, 127
2, 67200, Note_off_c, 1, 57, 0
2, 67240, Note_off_c, 1, 52, 0
2, 67240, Note_on_c, 1, 57, 127
2, 67720, Note_off_c, 1, 57, 0
2, 67760, Note_on_c, 1, 56, 127
2, 67760, Note_on_c, 1, 68, 127
2, 67760, Note_on_c, 1, 73, 127
2, 67760, Note_on_c, 1, 76, 127
2, 67760, Note_on_c, 1, 80, 127
2, 67760, Note_on_c, 1, 85, 127
2, 67800, Note_on_c, 1, 55, 127
2, 67800, Note_off_c, 1, 56, 0
2, 67800, Note_on_c, 1, 67, 127
2, 67800, Note_off_c, 1, 68, 0
2, 67800, Note_off_c, 1, 73, 0
2, 67800, Note_off_c, 1, 76, 0
2, 67800, Note_off_c, 1, 80, 0
2, 67800, Note_off_c, 1, 85, 0
2, 67840, Note_off_c, 1, 55, 0
2, 67840, Note_off_c, 1, 67, 0
2, 67880, Note_on_c, 1, 55, 127
2, 67880, Note_on_c, 1, 67, 127
2, 69880, Note_off_c, 1, 55, 0
2, 69880, Note_off_c, 1, 67, 0
2, 70400, Note_on_c, 1, 51, 127
2, 70400, Note_on_c, 1, 58, 127
2, 70400, Note_on_c, 1, 63, 127
2, 70400, Note_on_c, 1, 67, 127
2, 70400, Note_on_c, 1, 70, 127
2, 70400, Note_on_c, 1, 79, 127
2, 71640, Note_on_c, 1, 33, 127
2, 71640, Note_on_c, 1, 45, 127
2, 71640, Note_off_c, 1, 51, 0
2, 71640, Note_off_c, 1, 58, 0
2, 71640, Note_on_c, 1, 60, 127
2, 71640, Note_off_c, 1, 63, 0
2, 71640, Note_off_c, 1, 70, 0
2, 71640, Note_on_c, 1, 72, 127
2, 71640, Note_off_c, 1, 79, 0
2, 71960, Note_off_c, 1, 33, 0
2, 71960, Note_off_c, 1, 45, 0
2, 71960, Note_on_c, 1, 55, 127
2, 71960, Note_off_c, 1, 60, 0
2, 71960, Note_off_c, 1, 72, 0
2, 72320, Note_off_c, 1, 55, 0
2, 72320, Note_off_c, 1, 67, 0
2, 72400, Note_on_c, 1, 55, 127
2, 72400, Note_on_c, 1, 67, 127
2, 72600, Note_off_c, 1, 55, 0
2, 72600, Note_off_c, 1, 67, 0
2, 72640, Note_on_c, 1, 55, 127
2, 72640, Note_on_c, 1, 67, 127
2, 73560, Note_off_c, 1, 55, 0
2, 73560, Note_on_c, 1, 79, 127
2, 73600, Note_off_c, 1, 67, 0
2, 73600, Note_off_c, 1, 79, 0
2, 73640, Note_on_c, 1, 55, 127
2, 73640, Note_on_c, 1, 67, 127
2, 74720, Note_on_c, 1, 58, 127
2, 74720, Note_on_c, 1, 62, 127
2, 74720, Note_on_c, 1, 70, 127
2, 74760, Note_off_c, 1, 55, 0
2, 74760, Note_off_c, 1, 58, 0
2, 74760, Note_off_c, 1, 62, 0
2, 74760, Note_off_c, 1, 67, 0
2, 74760, Note_off_c, 1, 70, 0
2, 74840, Note_on_c, 1, 31, 127
2, 74840, Note_on_c, 1, 43, 127
2, 74840, Note_on_c, 1, 55, 127
2, 75040, Note_off_c, 1, 31, 0
2, 75040, Note_off_c, 1, 43, 0
2, 75040, Note_off_c, 1, 55, 0
2, 75080, Note_on_c, 1, 31, 127
2, 75080, Note_on_c, 1, 43, 127
2, 75080, Note_on_c, 1, 55, 127
2, 75440, Note_off_c, 1, 31, 0
2, 75440, Note_off_c, 1, 43, 0
2, 75440, Note_off_c, 1, 55, 0
2, 75480, Note_on_c, 1, 31, 127
2, 75480, Note_on_c, 1, 43, 127
2, 75480, Note_on_c, 1, 55, 127
2, 76040, Note_off_c, 1, 31, 0
2, 76040, Note_off_c, 1, 43, 0
2, 76040, Note_off_c, 1, 55, 0
2, 76080, Note_on_c, 1, 31, 127
2, 76080, Note_on_c, 1, 43, 127
2, 76080, Note_on_c, 1, 55, 127
2, 76880, Note_off_c, 1, 31, 0
2, 76880, Note_off_c, 1, 43, 0
2, 76880, Note_off_c, 1, 55, 0
2, 78120, Note_on_c, 1, 34, 127
2, 78120, Note_on_c, 1, 46, 127
2, 78120, Note_on_c, 1, 58, 127
2, 79720, Note_off_c, 1, 34, 0
2, 79720, Note_off_c, 1, 46, 0
2, 79720, Note_off_c, 1, 58, 0
2, 79760, Note_on_c, 1, 34, 127
2, 79760, Note_on_c, 1, 46, 127
2, 79760, Note_on_c, 1, 58, 127
2, 80520, Note_on_c, 1, 50, 127
2, 80520, Note_off_c, 1, 58, 0
2, 80560, Note_off_c, 1, 50, 0
2, 80560, Note_on_c, 1, 58, 127
2, 81080, Note_off_c, 1, 34, 0
2, 81080, Note_off_c, 1, 46, 0
2, 81080, Note_off_c, 1, 58, 0
2, 82360, Note_on_c, 1, 46, 127
2, 82360, Note_on_c, 1, 70, 127
2, 82920, Note_off_c, 1, 46, 0
2, 82920, Note_off_c, 1, 70, 0
2, 83560, Note_on_c, 1, 46, 127
2, 83560, Note_on_c, 1, 70, 127
2, 84120, Note_off_c, 1, 46, 0
2, 84160, Note_on_c, 1, 58, 127
2, 84360, Note_off_c, 1, 58, 0
2, 84360, Note_off_c, 1, 70, 0
2, 84400, Note_on_c, 1, 58, 127
2, 84400, Note_on_c, 1, 70, 127
2, 84560, Note_off_c, 1, 58, 0
2, 84600, Note_on_c, 1, 49, 127
2, 84760, Note_off_c, 1, 49, 0
2, 84800, Note_on_c, 1, 54, 127
2, 85160, Note_off_c, 1, 54, 0
2, 85200, Note_on_c, 1, 58, 127
2, 85360, Note_off_c, 1, 58, 0
2, 85400, Note_on_c, 1, 65, 127
2, 85760, Note_off_c, 1, 65, 0
2, 85960, Note_off_c, 1, 70, 0
2, 86000, Note_on_c, 1, 70, 127
2, 86360, Note_off_c, 1, 70, 0
2, 86400, Note_on_c, 1, 39, 127
2, 86400, Note_on_c, 1, 70, 127
2, 86560, Note_off_c, 1, 39, 0
2, 86560, Note_off_c, 1, 70, 0
2, 86600, Note_on_c, 1, 39, 127
2, 86600, Note_on_c, 1, 70, 127
2, 86800, Note_off_c, 1, 39, 0
2, 86840, Note_on_c, 1, 51, 127
2, 87200, Note_off_c, 1, 51, 0
2, 87240, Note_on_c, 1, 58, 127
2, 87400, Note_off_c, 1, 58, 0
2, 87440, Note_on_c, 1, 63, 127
2, 87600, Note_off_c, 1, 63, 0
2, 87640, Note_on_c, 1, 67, 127
2, 87800, Note_off_c, 1, 67, 0
2, 87840, Note_on_c, 1, 49, 127
2, 88000, Note_off_c, 1, 49, 0
2, 88040, Note_on_c, 1, 55, 127
2, 88200, Note_off_c, 1, 55, 0
2, 88240, Note_on_c, 1, 58, 127
2, 88400, Note_off_c, 1, 58, 0
2, 88400, Note_off_c, 1, 70, 0
2, 88440, Note_on_c, 1, 67, 127
2, 88800, Note_off_c, 1, 67, 0
2, 88880, Note_on_c, 1, 61, 127
2, 89040, Note_off_c, 1, 61, 0
2, 89280, Note_on_c, 1, 82, 127
2, 89640, Note_off_c, 1, 82, 0
2, 89680, Note_on_c, 1, 41, 127
2, 89680, Note_on_c, 1, 80, 127
2, 90040, Note_off_c, 1, 41, 0
2, 90080, Note_on_c, 1, 48, 127
2, 90440, Note_off_c, 1, 48, 0
2, 90480, Note_on_c, 1, 56, 127
2, 90840, Note_off_c, 1, 56, 0
2, 90880, Note_off_c, 1, 80, 0
2, 90920, Note_on_c, 1, 51, 127
2, 90920, Note_on_c, 1, 80, 127
2, 91280, Note_off_c, 1, 51, 0
2, 91280, Note_off_c, 1, 80, 0
2, 91320, Note_on_c, 1, 73, 127
2, 91320, Note_on_c, 1, 77, 127
2, 92480, Note_off_c, 1, 73, 0
2, 92480, Note_off_c, 1, 77, 0
2, 92520, Note_on_c, 1, 39, 127
2, 92520, Note_on_c, 1, 75, 127
2, 92880, Note_off_c, 1, 39, 0
2, 92920, Note_off_c, 1, 75, 0
2, 92960, Note_on_c, 1, 44, 127
2, 92960, Note_on_c, 1, 75, 127
2, 93320, Note_off_c, 1, 44, 0
2, 93360, Note_on_c, 1, 56, 127
2, 93720, Note_off_c, 1, 56, 0
2, 93720, Note_off_c, 1, 75, 0
2, 93760, Note_on_c, 1, 66, 127
2, 93760, Note_on_c, 1, 73, 127
2, 94120, Note_off_c, 1, 66, 0
2, 94160, Note_on_c, 1, 56, 127
2, 94520, Note_off_c, 1, 56, 0
2, 94520, Note_off_c, 1, 73, 0
2, 94560, Note_on_c, 1, 63, 127
2, 94560, Note_on_c, 1, 66, 127
2, 94560, Note_on_c, 1, 72, 127
2, 94960, Note_off_c, 1, 63, 0
2, 94960, Note_off_c, 1, 66, 0
2, 94960, Note_off_c, 1, 72, 0
2, 95000, Note_on_c, 1, 63, 127
2, 95000, Note_on_c, 1, 66, 127
2, 95000, Note_on_c, 1, 72, 127
2, 95360, Note_off_c, 1, 63, 0
2, 95360, Note_off_c, 1, 66, 0
2, 95400, Note_on_c, 1, 63, 127
2, 95400, Note_on_c, 1, 66, 127
2, 95760, Note_off_c, 1, 63, 0
2, 95760, Note_off_c, 1, 66, 0
2, 95800, Note_on_c, 1, 56, 127
2, 96160, Note_off_c, 1, 56, 0
2, 96200, Note_on_c, 1, 56, 127
2, 96560, Note_off_c, 1, 56, 0
2, 96560, Note_off_c, 1, 72, 0
2, 96600, Note_on_c, 1, 68, 127
2, 97320, Note_off_c, 1, 68, 0
2, 97360, Note_on_c, 1, 68, 127
2, 97400, Note_off_c, 1, 68, 0
2, 97440, Note_on_c, 1, 61, 127
2, 97800, Note_off_c, 1, 61, 0
2, 97840, Note_on_c, 1, 38, 127
2, 97840, Note_on_c, 1, 54, 127
2, 97840, Note_on_c, 1, 66, 127
2, 97840, Note_on_c, 1, 70, 127
2, 98320, Note_off_c, 1, 66, 0
2, 98360, Note_on_c, 1, 66, 127
2, 98400, Note_off_c, 1, 66, 0
2, 98440, Note_on_c, 1, 66, 127
2, 98720, Note_on_c, 1, 64, 127
2, 98720, Note_off_c, 1, 66, 0
2, 99000, Note_off_c, 1, 38, 0
2, 99000, Note_off_c, 1, 54, 0
2, 99000, Note_off_c, 1, 64, 0
2, 99000, Note_off_c, 1, 70, 0
2, 99040, Note_on_c, 1, 44, 127
2, 99040, Note_on_c, 1, 51, 127
2, 99040, Note_on_c, 1, 60, 127
2, 99040, Note_on_c, 1, 65, 127
2, 99440, Note_off_c, 1, 44, 0
2, 99440, Note_off_c, 1, 51, 0
2, 99440, Note_off_c, 1, 60, 0
2, 99440, Note_off_c, 1, 65, 0
2, 99480, Note_on_c, 1, 44, 127
2, 99480, Note_on_c, 1, 51, 127
2, 99480, Note_on_c, 1, 60, 127
2, 99480, Note_on_c, 1, 65, 127
2, 100160, Note_off_c, 1, 44, 0
2, 100160, Note_off_c, 1, 51, 0
2, 100160, Note_off_c, 1, 60, 0
2, 100160, Note_off_c, 1, 65, 0
2, 100280, Note_on_c, 1, 44, 127
2, 100280, Note_on_c, 1, 51, 127
2, 100280, Note_on_c, 1, 60, 127
2, 100280, Note_on_c, 1, 65, 127
2, 101360, Note_off_c, 1, 44, 0
2, 101360, Note_off_c, 1, 51, 0
2, 101360, Note_off_c, 1, 60, 0
2, 101360, Note_off_c, 1, 65, 0
2, 101520, Note_on_c, 1, 44, 127
2, 101520, Note_on_c, 1, 51, 127
2, 101520, Note_on_c, 1, 60, 127
2, 101520, Note_on_c, 1, 63, 127
2, 102040, Note_off_c, 1, 44, 0
2, 102040, Note_off_c, 1, 51, 0
2, 102040, Note_off_c, 1, 60, 0
2, 102040, Note_off_c, 1, 63, 0
2, 102120, Note_on_c, 1, 44, 127
2, 102120, Note_on_c, 1, 51, 127
2, 102120, Note_on_c, 1, 60, 127
2, 102120, Note_on_c, 1, 72, 127
2, 102640, Note_off_c, 1, 44, 0
2, 102640, Note_off_c, 1, 51, 0
2, 102640, Note_off_c, 1, 60, 0
2, 102640, Note_off_c, 1, 72, 0
2, 102720, Note_on_c, 1, 44, 127
2, 102720, Note_on_c, 1, 51, 127
2, 102720, Note_on_c, 1, 60, 127
2, 102720, Note_on_c, 1, 72, 127
2, 103240, Note_off_c, 1, 44, 0
2, 103240, Note_off_c, 1, 51, 0
2, 103240, Note_off_c, 1, 60, 0
2, 103240, Note_off_c, 1, 72, 0
2, 103320, Note_on_c, 1, 44, 127
2, 103320, Note_on_c, 1, 51, 127
2, 103320, Note_on_c, 1, 60, 127
2, 103320, Note_on_c, 1, 72, 127
2, 103720, Note_off_c, 1, 44, 0
2, 103720, Note_off_c, 1, 51, 0
2, 103720, Note_off_c, 1, 60, 0
2, 103720, Note_off_c, 1, 72, 0
2, 103760, Note_on_c, 1, 44, 127
2, 103760, Note_on_c, 1, 51, 127
2, 103760, Note_on_c, 1, 60, 127
2, 103760, Note_on_c, 1, 72, 127
2, 103880, Note_off_c, 1, 44, 0
2, 103880, Note_off_c, 1, 51, 0
2, 103880, Note_off_c, 1, 60, 0
2, 103880, Note_off_c, 1, 72, 0
2, 103960, Note_on_c, 1, 44, 127
2, 103960, Note_on_c, 1, 51, 127
2, 103960, Note_on_c, 1, 60, 127
2, 103960, Note_on_c, 1, 72, 127
2, 104480, Note_off_c, 1, 44, 0
2, 104480, Note_off_c, 1, 51, 0
2, 104480, Note_off_c, 1, 60, 0
2, 104480, Note_off_c, 1, 72, 0
2, 104560, Note_on_c, 1, 36, 127
2, 104560, Note_on_c, 1, 48, 127
2, 104560, Note_on_c, 1, 55, 127
2, 104560, Note_on_c, 1, 60, 127
2, 104560, Note_on_c, 1, 64, 127
2, 104840, Note_off_c, 1, 36, 0
2, 104840, Note_off_c, 1, 48, 0
2, 104840, Note_off_c, 1, 55, 0
2, 104840, Note_off_c, 1, 60, 0
2, 104840, Note_off_c, 1, 64, 0
2, 104960, Note_on_c, 1, 36, 127
2, 104960, Note_on_c, 1, 48, 127
2, 104960, Note_on_c, 1, 55, 127
2, 104960, Note_on_c, 1, 60, 127
2, 104960, Note_on_c, 1, 64, 127
2, 105240, Note_off_c, 1, 36, 0
2, 105240, Note_off_c, 1, 48, 0
2, 105240, Note_off_c, 1, 55, 0
2, 105240, Note_off_c, 1, 60, 0
2, 105240, Note_off_c, 1, 64, 0
2, 105360, Note_on_c, 1, 36, 127
2, 105360, Note_on_c, 1, 48, 127
2, 105360, Note_on_c, 1, 55, 127
2, 105360, Note_on_c, 1, 60, 127
2, 105360, Note_on_c, 1, 64, 127
2, 105640, Note_off_c, 1, 36, 0
2, 105640, Note_off_c, 1, 48, 0
2, 105640, Note_off_c, 1, 55, 0
2, 105640, Note_off_c, 1, 60, 0
2, 105640, Note_off_c, 1, 64, 0
2, 105760, Note_on_c, 1, 36, 127
2, 105760, Note_on_c, 1, 48, 127
2, 105760, Note_on_c, 1, 55, 127
2, 105760, Note_on_c, 1, 60, 127
2, 105760, Note_on_c, 1, 64, 127
2, 106040, Note_off_c, 1, 36, 0
2, 106040, Note_off_c, 1, 48, 0
2, 106040, Note_off_c, 1, 55, 0
2, 106040, Note_off_c, 1, 60, 0
2, 106040, Note_off_c, 1, 64, 0
2, 106200, Note_on_c, 1, 36, 127
2, 106200, Note_on_c, 1, 48, 127
2, 106200, Note_on_c, 1, 55, 127
2, 106200, Note_on_c, 1, 60, 127
2, 106200, Note_on_c, 1, 64, 127
2, 106480, Note_off_c, 1, 36, 0
2, 106480, Note_off_c, 1, 48, 0
2, 106480, Note_off_c, 1, 55, 0
2, 106480, Note_off_c, 1, 60, 0
2, 106480, Note_off_c, 1, 64, 0
2, 106600, Note_on_c, 1, 36, 127
2, 106600, Note_on_c, 1, 48, 127
2, 106600, Note_on_c, 1, 55, 127
2, 106600, Note_on_c, 1, 60, 127
2, 106600, Note_on_c, 1, 64, 127
2, 106880, Note_off_c, 1, 36, 0
2, 106880, Note_off_c, 1, 48, 0
2, 106880, Note_off_c, 1, 55, 0
2, 106880, Note_off_c, 1, 60, 0
2, 106880, Note_off_c, 1, 64, 0
2, 107000, Note_on_c, 1, 36, 127
2, 107000, Note_on_c, 1, 48, 127
2, 107000, Note_on_c, 1, 55, 127
2, 107000, Note_on_c, 1, 60, 127
2, 107000, Note_on_c, 1, 64, 127
2, 107280, Note_off_c, 1, 36, 0
2, 107280, Note_off_c, 1, 48, 0
2, 107280, Note_off_c, 1, 55, 0
2, 107280, Note_off_c, 1, 60, 0
2, 107280, Note_off_c, 1, 64, 0
2, 107400, Note_on_c, 1, 36, 127
2, 107400, Note_on_c, 1, 48, 127
2, 107400, Note_on_c, 1, 55, 127
2, 107400, Note_on_c, 1, 60, 127
2, 107400, Note_on_c, 1, 64, 127
2, 107680, Note_off_c, 1, 36, 0
2, 107680, Note_off_c, 1, 48, 0
2, 107680, Note_off_c, 1, 55, 0
2, 107680, Note_off_c, 1, 60, 0
2, 107680, Note_off_c, 1, 64, 0
2, 107800, Note_on_c, 1, 36, 127
2, 107800, Note_on_c, 1, 48, 127
2, 107800, Note_on_c, 1, 55, 127
2, 107800, Note_on_c, 1, 60, 127
2, 107800, Note_on_c, 1, 64, 127
2, 108080, Note_off_c, 1, 36, 0
2, 108080, Note_off_c, 1, 48, 0
2, 108080, Note_off_c, 1, 55, 0
2, 108080, Note_off_c, 1, 60, 0
2, 108080, Note_off_c, 1, 64, 0
2, 108200, Note_on_c, 1, 36, 127
2, 108200, Note_on_c, 1, 48, 127
2, 108200, Note_on_c, 1, 55, 127
2, 108200, Note_on_c, 1, 60, 127
2, 108200, Note_on_c, 1, 64, 127
2, 108480, Note_off_c, 1, 36, 0
2, 108480, Note_off_c, 1, 48, 0
2, 108480, Note_off_c, 1, 55, 0
2, 108480, Note_off_c, 1, 60, 0
2, 108480, Note_off_c, 1, 64, 0
2, 108640, Note_on_c, 1, 55, 127
2, 109200, Note_off_c, 1, 55, 0
2, 109240, Note_on_c, 1, 32, 127
2, 109240, Note_on_c, 1, 60, 127
2, 109240, Note_on_c, 1, 63, 127
2, 109280, Note_off_c, 1, 32, 0
2, 109280, Note_on_c, 1, 44, 127
2, 109320, Note_on_c, 1, 32, 127
2, 109320, Note_off_c, 1, 44, 0
2, 109400, Note_off_c, 1, 32, 0
2, 109400, Note_on_c, 1, 44, 127
2, 109760, Note_off_c, 1, 44, 0
2, 109760, Note_off_c, 1, 60, 0
2, 109760, Note_off_c, 1, 63, 0
2, 109840, Note_on_c, 1, 60, 127
2, 109840, Note_on_c, 1, 74, 127
2, 109840, Note_on_c, 1, 78, 127
2, 109840, Note_on_c, 1, 81, 127
2, 109840, Note_on_c, 1, 86, 127
2, 109880, Note_off_c, 1, 60, 0
2, 109880, Note_on_c, 1, 67, 127
2, 109880, Note_off_c, 1, 74, 0
2, 109880, Note_off_c, 1, 78, 0
2, 109880, Note_off_c, 1, 86, 0
2, 109880, Note_on_c, 1, 88, 127
2, 109880, Note_on_c, 1, 91, 127
2, 109880, Note_on_c, 1, 93, 127
2, 110320, Note_off_c, 1, 81, 0
2, 110320, Note_off_c, 1, 88, 0
2, 110320, Note_off_c, 1, 91, 0
2, 110320, Note_off_c, 1, 93, 0
2, 110440, Note_on_c, 1, 58, 127
2, 110440, Note_on_c, 1, 68, 127
2, 110680, Note_off_c, 1, 58, 0
2, 110720, Note_on_c, 1, 58, 127
2, 110800, Note_off_c, 1, 58, 0
2, 110840, Note_off_c, 1, 67, 0
2, 110840, Note_off_c, 1, 68, 0
2, 110880, Note_on_c, 1, 58, 127
2, 110880, Note_on_c, 1, 67, 127
2, 110880, Note_on_c, 1, 68, 127
2, 110960, Note_off_c, 1, 58, 0
2, 111000, Note_off_c, 1, 68, 0
2, 111040, Note_on_c, 1, 58, 127
2, 111080, Note_off_c, 1, 58, 0
2, 111080, Note_on_c, 1, 62, 127
2, 111600, Note_off_c, 1, 62, 0
2, 111600, Note_off_c, 1, 67, 0
2, 111640, Note_on_c, 1, 39, 127
2, 111640, Note_on_c, 1, 63, 127
2, 111640, Note_on_c, 1, 67, 127
2, 112200, Note_off_c, 1, 39, 0
2, 112240, Note_on_c, 1, 44, 127
2, 112800, Note_off_c, 1, 44, 0
2, 112800, Note_on_c, 1, 60, 127
2, 112800, Note_off_c, 1, 63, 0
2, 112800, Note_off_c, 1, 67, 0
2, 112840, Note_on_c, 1, 46, 127
2, 112840, Note_on_c, 1, 56, 127
2, 112840, Note_off_c, 1, 60, 0
2, 112840, Note_on_c, 1, 65, 127
2, 113040, Note_off_c, 1, 46, 0
2, 113040, Note_off_c, 1, 56, 0
2, 113040, Note_off_c, 1, 65, 0
2, 113080, Note_on_c, 1, 46, 127
2, 113080, Note_on_c, 1, 56, 127
2, 113080, Note_on_c, 1, 65, 127
2, 113440, Note_off_c, 1, 56, 0
2, 113440, Note_on_c, 1, 57, 127
2, 113440, Note_off_c, 1, 65, 0
2, 113480, Note_on_c, 1, 56, 127
2, 113480, Note_off_c, 1, 57, 0
2, 113480, Note_on_c, 1, 65, 127
2, 114040, Note_off_c, 1, 46, 0
2, 114040, Note_off_c, 1, 56, 0
2, 114040, Note_on_c, 1, 62, 127
2, 114040, Note_off_c, 1, 65, 0
2, 114080, Note_on_c, 1, 68, 127
2, 114640, Note_off_c, 1, 68, 0
2, 114680, Note_on_c, 1, 65, 127
2, 115200, Note_off_c, 1, 62, 0
2, 115240, Note_off_c, 1, 65, 0
2, 115320, Note_on_c, 1, 63, 127
2, 115320, Note_on_c, 1, 67, 127
2, 116440, Note_off_c, 1, 67, 0
2, 116480, Note_off_c, 1, 63, 0
2, 116520, Note_on_c, 1, 63, 127
2, 116520, Note_on_c, 1, 67, 127
2, 117640, Note_off_c, 1, 63, 0
2, 117640, Note_off_c, 1, 67, 0
2, 117760, Note_on_c, 1, 62, 127
2, 117760, Note_on_c, 1, 68, 127
2, 118280, Note_off_c, 1, 62, 0
2, 118280, Note_off_c, 1, 68, 0
2, 118360, Note_on_c, 1, 63, 127
2, 118360, Note_on_c, 1, 68, 127
2, 118920, Note_off_c, 1, 63, 0
2, 118920, Note_off_c, 1, 68, 0
2, 118960, Note_on_c, 1, 63, 127
2, 118960, Note_on_c, 1, 67, 127
2, 120000, Note_off_c, 1, 63, 0
2, 120000, Note_off_c, 1, 67, 0
2, 120040, End_track
3, 0, Start_track
3, 0, Title_t, "MIDI"
3, 1536, End_track
0, 0, End_of_file
