0, 0, Header, 1, 3, 192
1, 0, Start_track
1, 0, Time_signature, 4, 2, 24, 8
1, 0, Tempo, 500000
1, 120040, End_track
2, 0, Start_track
2, 0, Text_t, "random instrument: random person i dunno whatev"
2, 0, Title_t, "Track 1"
2, 0, Note_on_c, 1, 40, 127
2, 0, Note_on_c, 1, 48, 127
2, 0, Note_on_c, 1, 56, 127
2, 0, Note_on_c, 1, 60, 127
2, 440, Note_off_c, 1, 40, 0
2, 440, Note_off_c, 1, 48, 0
2, 440, Note_off_c, 1, 56, 0
2, 440, Note_off_c, 1, 60, 0
2, 480, Note_on_c, 1, 40, 127
2, 480, Note_on_c, 1, 48, 127
2, 480, Note_on_c, 1, 56, 127
2, 480, Note_on_c, 1, 60, 127
2, 520, Note_off_c, 1, 40, 0
2, 520, Note_off_c, 1, 48, 0
2, 520, Note_off_c, 1, 56, 0
2, 520, Note_off_c, 1, 60, 0
2, 560, Note_on_c, 1, 79, 127
2, 2000, Note_off_c, 1, 79, 0
2, 2040, Note_on_c, 1, 78, 127
2, 2280, Note_off_c, 1, 78, 0
2, 2320, Note_on_c, 1, 79, 127
2, 2480, Note_off_c, 1, 79, 0
2, 2520, Note_on_c, 1, 79, 127
2, 3920, Note_off_c, 1, 79, 0
2, 3960, Note_on_c, 1, 80, 127
2, 4720, Note_off_c, 1, 80, 0
2, 4760, Note_on_c, 1, 80, 127
2, 4920, Note_off_c, 1, 80, 0
2, 4960, Note_on_c, 1, 78, 127
2, 5640, Note_off_c, 1, 78, 0
2, 5680, Note_on_c, 1, 79, 127
2, 6040, Note_off_c, 1, 79, 0
2, 6080, Note_on_c, 1, 78, 127
2, 6920, Note_off_c, 1, 78, 0
2, 6960, Note_on_c, 1, 78, 127
2, 7200, Note_off_c, 1, 78, 0
2, 7240, Note_on_c, 1, 92, 127
2, 7400, Note_on_c, 1, 80, 127
2, 7400, Note_off_c, 1, 92, 0
2, 7440, Note_off_c, 1, 80, 0
2, 7440, Note_on_c, 1, 92, 127
2, 8160, Note_off_c, 1, 92, 0
2, 13400, Note_on_c, 1, 37, 127
2, 13400, Note_on_c, 1, 49, 127
2, 15240, Note_off_c, 1, 37, 0
2, 15240, Note_off_c, 1, 49, 0
2, 18240, Note_on_c, 1, 40, 127
2, 18240, Note_on_c, 1, 52, 127
2, 18240, Note_on_c, 1, 64, 127
2, 21520, Note_off_c, 1, 40, 0
2, 21520, Note_off_c, 1, 52, 0
2, 21520, Note_off_c, 1, 64, 0
2, 21600, Note_on_c, 1, 40, 127
2, 21600, Note_on_c, 1, 52, 127
2, 21600, Note_on_c, 1, 64, 127
2, 23560, Note_on_c, 1, 39, 127
2, 23560, Note_off_c, 1, 40, 0
2, 23560, Note_on_c, 1, 51, 127
2, 23560, Note_off_c, 1, 52, 0
2, 23560, Note_on_c, 1, 63, 127
2, 23560, Note_off_c, 1, 64, 0
2, 23600, Note_off_c, 1, 39, 0
2, 23600, Note_on_c, 1, 40, 127
2, 23600, Note_off_c, 1, 51, 0
2, 23600, Note_on_c, 1, 52, 127
2, 23600, Note_off_c, 1, 63, 0
2, 23600, Note_on_c, 1, 64, 127
2, 25320, Note_off_c, 1, 64, 0
2, 25360, Note_off_c, 1, 40, 0
2, 25360, Note_off_c, 1, 52, 0
2, 25400, Note_on_c, 1, 40, 127
2, 25400, Note_on_c, 1, 52, 127
2, 25400, Note_on_c, 1, 69, 127
2, 25440, Note_on_c, 1, 68, 127
2, 25440, Note_off_c, 1, 69, 0
2, 25720, Note_on_c, 1, 64, 127
2, 25720, Note_off_c, 1, 68, 0
2, 28200, Note_off_c, 1, 40, 0
2, 28200, Note_off_c, 1, 52, 0
2, 28200, Note_off_c, 1, 64, 0
2, 28240, Note_on_c, 1, 40, 127
2, 28240, Note_on_c, 1, 52, 127
2, 28240, Note_on_c, 1, 64, 127
2, 30680, Note_off_c, 1, 40, 0
2, 30680, Note_on_c, 1, 41, 127
2, 30680, Note_off_c, 1, 52, 0
2, 30680, Note_on_c, 1, 53, 127
2, 30680, Note_off_c, 1, 64, 0
2, 30680, Note_on_c, 1, 65, 127
2, 30720, Note_off_c, 1, 41, 0
2, 30720, Note_off_c, 1, 53, 0
2, 30720, Note_off_c, 1, 65, 0
2, 30760, Note_on_c, 1, 40, 127
2, 30760, Note_on_c, 1, 52, 127
2, 30760, Note_on_c, 1, 64, 127
2, 33000, Note_off_c, 1, 40, 0
2, 33000, Note_off_c, 1, 52, 0
2, 33000, Note_off_c, 1, 64, 0
2, 33040, Note_on_c, 1, 40, 127
2, 33040, Note_on_c, 1, 52, 127
2, 33040, Note_on_c, 1, 64, 127
2, 35520, Note_off_c, 1, 40, 0
2, 35520, Note_off_c, 1, 52, 0
2, 35520, Note_off_c, 1, 64, 0
2, 35560, Note_on_c, 1, 40, 127
2, 35560, Note_on_c, 1, 52, 127
2, 35560, Note_on_c, 1, 64, 127
2, 38320, Note_off_c, 1, 40, 0
2, 38320, Note_off_c, 1, 52, 0
2, 38320, Note_off_c, 1, 64, 0
2, 38360, Note_on_c, 1, 40, 127
2, 38360, Note_on_c, 1, 52, 127
2, 38360, Note_on_c, 1, 64, 127
2, 40920, Note_off_c, 1, 40, 0
2, 40920, Note_off_c, 1, 52, 0
2, 40920, Note_off_c, 1, 64, 0
2, 40960, Note_on_c, 1, 40, 127
2, 40960, Note_on_c, 1, 52, 127
2, 40960, Note_on_c, 1, 64, 127
2, 43800, Note_off_c, 1, 40, 0
2, 43800, Note_off_c, 1, 52, 0
2, 43800, Note_off_c, 1, 64, 0
2, 43840, Note_on_c, 1, 40, 127
2, 43840, Note_on_c, 1, 52, 127
2, 43840, Note_on_c, 1, 64, 127
2, 46360, Note_off_c, 1, 40, 0
2, 46360, Note_off_c, 1, 52, 0
2, 46360, Note_off_c, 1, 64, 0
2, 46400, Note_on_c, 1, 40, 127
2, 46400, Note_on_c, 1, 52, 127
2, 46400, Note_on_c, 1, 64, 127
2, 49080, Note_off_c, 1, 40, 0
2, 49080, Note_off_c, 1, 52, 0
2, 49080, Note_off_c, 1, 64, 0
2, 49120, Note_on_c, 1, 40, 127
2, 49120, Note_on_c, 1, 52, 127
2, 49120, Note_on_c, 1, 64, 127
2, 51440, Note_off_c, 1, 40, 0
2, 51440, Note_off_c, 1, 52, 0
2, 51440, Note_off_c, 1, 64, 0
2, 51480, Note_on_c, 1, 40, 127
2, 51480, Note_on_c, 1, 52, 127
2, 51480, Note_on_c, 1, 64, 127
2, 54120, Note_off_c, 1, 40, 0
2, 54120, Note_off_c, 1, 52, 0
2, 54120, Note_off_c, 1, 64, 0
2, 54160, Note_on_c, 1, 40, 127
2, 54160, Note_on_c, 1, 52, 127
2, 54160, Note_on_c, 1, 64, 127
2, 56560, Note_off_c, 1, 40, 0
2, 56560, Note_off_c, 1, 52, 0
2, 56560, Note_off_c, 1, 64, 0
2, 56640, Note_on_c, 1, 40, 127
2, 56640, Note_on_c, 1, 52, 127
2, 56640, Note_on_c, 1, 64, 127
2, 59240, Note_off_c, 1, 40, 0
2, 59240, Note_off_c, 1, 52, 0
2, 59240, Note_off_c, 1, 64, 0
2, 59280, Note_on_c, 1, 40, 127
2, 59280, Note_on_c, 1, 52, 127
2, 59280, Note_on_c, 1, 64, 127
2, 61840, Note_off_c, 1, 40, 0
2, 61840, Note_off_c, 1, 52, 0
2, 61840, Note_off_c, 1, 64, 0
2, 61920, Note_on_c, 1, 41, 127
2, 61920, Note_on_c, 1, 53, 127
2, 61920, Note_on_c, 1, 65, 127
2, 64080, Note_off_c, 1, 41, 0
2, 64080, Note_off_c, 1, 53, 0
2, 64080, Note_off_c, 1, 65, 0
2, 64120, Note_on_c, 1, 33, 127
2, 64120, Note_on_c, 1, 45, 127
2, 64120, Note_on_c, 1, 57, 127
2, 64280, Note_off_c, 1, 33, 0
2, 64280, Note_off_c, 1, 45, 0
2, 64280, Note_off_c, 1, 57, 0
2, 64320, Note_on_c, 1, 33, 127
2, 64320, Note_on_c, 1, 45, 127
2, 64320, Note_on_c, 1, 57, 127
2, 66960, Note_off_c, 1, 33, 0
2, 66960, Note_off_c, 1, 45, 0
2, 66960, Note_off_c, 1, 57, 0
2, 67000, Note_on_c, 1, 33, 127
2, 67000, Note_on_c, 1, 45, 127
2, 67000, Note_on_c, 1, 57, 127
2, 69360, Note_off_c, 1, 33, 0
2, 69360, Note_off_c, 1, 45, 0
2, 69360, Note_off_c, 1, 57, 0
2, 69400, Note_on_c, 1, 33, 127
2, 69400, Note_on_c, 1, 45, 127
2, 69400, Note_on_c, 1, 57, 127
2, 70200, Note_off_c, 1, 33, 0
2, 70200, Note_off_c, 1, 45, 0
2, 70200, Note_off_c, 1, 57, 0
2, 74720, Note_on_c, 1, 55, 127
2, 74720, Note_on_c, 1, 58, 127
2, 74720, Note_on_c, 1, 62, 127
2, 74720, Note_on_c, 1, 67, 127
2, 74720, Note_on_c, 1, 70, 127
2, 75440, Note_off_c, 1, 55, 0
2, 75440, Note_off_c, 1, 58, 0
2, 75440, Note_off_c, 1, 62, 0
2, 75440, Note_off_c, 1, 67, 0
2, 75440, Note_off_c, 1, 70, 0
2, 78120, Note_on_c, 1, 34, 127
2, 78120, Note_on_c, 1, 46, 127
2, 78120, Note_on_c, 1, 58, 127
2, 80040, Note_off_c, 1, 34, 0
2, 80040, Note_off_c, 1, 46, 0
2, 80040, Note_off_c, 1, 58, 0
2, 80080, Note_on_c, 1, 34, 127
2, 80080, Note_on_c, 1, 46, 127
2, 80080, Note_on_c, 1, 58, 127
2, 80960, Note_off_c, 1, 34, 0
2, 80960, Note_off_c, 1, 46, 0
2, 80960, Note_off_c, 1, 58, 0
2, 81000, Note_on_c, 1, 34, 127
2, 81000, Note_on_c, 1, 46, 127
2, 81000, Note_on_c, 1, 58, 127
2, 82120, Note_off_c, 1, 34, 0
2, 82120, Note_off_c, 1, 46, 0
2, 82120, Note_off_c, 1, 58, 0
2, 82160, Note_on_c, 1, 34, 127
2, 82160, Note_on_c, 1, 46, 127
2, 82160, Note_on_c, 1, 58, 127
2, 84240, Note_off_c, 1, 34, 0
2, 84240, Note_off_c, 1, 46, 0
2, 84240, Note_off_c, 1, 58, 0
2, 84280, Note_on_c, 1, 34, 127
2, 84280, Note_on_c, 1, 46, 127
2, 84280, Note_on_c, 1, 58, 127
2, 85080, Note_off_c, 1, 34, 0
2, 85080, Note_off_c, 1, 46, 0
2, 85080, Note_off_c, 1, 58, 0
2, 85120, Note_on_c, 1, 34, 127
2, 85120, Note_on_c, 1, 46, 127
2, 85120, Note_on_c, 1, 58, 127
2, 86360, Note_off_c, 1, 34, 0
2, 86360, Note_off_c, 1, 46, 0
2, 86360, Note_off_c, 1, 58, 0
2, 86400, Note_on_c, 1, 34, 127
2, 86400, Note_on_c, 1, 46, 127
2, 86400, Note_on_c, 1, 58, 127
2, 87960, Note_off_c, 1, 34, 0
2, 87960, Note_off_c, 1, 46, 0
2, 87960, Note_off_c, 1, 58, 0
2, 88000, Note_on_c, 1, 34, 127
2, 88000, Note_on_c, 1, 46, 127
2, 88000, Note_on_c, 1, 58, 127
2, 88560, Note_off_c, 1, 34, 0
2, 88560, Note_off_c, 1, 46, 0
2, 88560, Note_off_c, 1, 58, 0
2, 88600, Note_on_c, 1, 34, 127
2, 88600, Note_on_c, 1, 46, 127
2, 88600, Note_on_c, 1, 58, 127
2, 90760, Note_off_c, 1, 34, 0
2, 90760, Note_off_c, 1, 46, 0
2, 90760, Note_off_c, 1, 58, 0
2, 90800, Note_on_c, 1, 34, 127
2, 90800, Note_on_c, 1, 46, 127
2, 90800, Note_on_c, 1, 58, 127
2, 92920, Note_off_c, 1, 34, 0
2, 92920, Note_off_c, 1, 46, 0
2, 92920, Note_off_c, 1, 58, 0
2, 92960, Note_on_c, 1, 34, 127
2, 92960, Note_on_c, 1, 46, 127
2, 92960, Note_on_c, 1, 58, 127
2, 93320, Note_off_c, 1, 34, 0
2, 93320, Note_off_c, 1, 46, 0
2, 93320, Note_off_c, 1, 58, 0
2, 93360, Note_on_c, 1, 34, 127
2, 93360, Note_on_c, 1, 46, 127
2, 93360, Note_on_c, 1, 58, 127
2, 94960, Note_off_c, 1, 34, 0
2, 94960, Note_off_c, 1, 46, 0
2, 94960, Note_off_c, 1, 58, 0
2, 95000, Note_on_c, 1, 34, 127
2, 95000, Note_on_c, 1, 46, 127
2, 95000, Note_on_c, 1, 58, 127
2, 96560, Note_off_c, 1, 34, 0
2, 96560, Note_off_c, 1, 46, 0
2, 96560, Note_off_c, 1, 58, 0
2, 96600, Note_on_c, 1, 34, 127
2, 96600, Note_on_c, 1, 46, 127
2, 96600, Note_on_c, 1, 58, 127
2, 97000, Note_off_c, 1, 34, 0
2, 97000, Note_off_c, 1, 46, 0
2, 97000, Note_off_c, 1, 58, 0
2, 97040, Note_on_c, 1, 34, 127
2, 97040, Note_on_c, 1, 46, 127
2, 97040, Note_on_c, 1, 58, 127
2, 99200, Note_off_c, 1, 34, 0
2, 99200, Note_off_c, 1, 46, 0
2, 99200, Note_off_c, 1, 58, 0
2, 99240, Note_on_c, 1, 34, 127
2, 99240, Note_on_c, 1, 46, 127
2, 99240, Note_on_c, 1, 58, 127
2, 99480, Note_off_c, 1, 58, 0
2, 99520, Note_on_c, 1, 58, 127
2, 101360, Note_off_c, 1, 34, 0
2, 101360, Note_off_c, 1, 46, 0
2, 101360, Note_off_c, 1, 58, 0
2, 101400, Note_on_c, 1, 34, 127
2, 101400, Note_on_c, 1, 46, 127
2, 101400, Note_on_c, 1, 58, 127
2, 102360, Note_off_c, 1, 34, 0
2, 102360, Note_off_c, 1, 46, 0
2, 102360, Note_off_c, 1, 58, 0
2, 102400, Note_on_c, 1, 34, 127
2, 102400, Note_on_c, 1, 46, 127
2, 102400, Note_on_c, 1, 58, 127
2, 103600, Note_off_c, 1, 34, 0
2, 103600, Note_off_c, 1, 46, 0
2, 103600, Note_off_c, 1, 58, 0
2, 103640, Note_on_c, 1, 34, 127
2, 103640, Note_on_c, 1, 46, 127
2, 103640, Note_on_c, 1, 58, 127
2, 105600, Note_off_c, 1, 34, 0
2, 105600, Note_off_c, 1, 46, 0
2, 105640, Note_off_c, 1, 58, 0
2, 105680, Note_on_c, 1, 34, 127
2, 105680, Note_on_c, 1, 46, 127
2, 105680, Note_on_c, 1, 53, 127
2, 107920, Note_off_c, 1, 34, 0
2, 107920, Note_off_c, 1, 46, 0
2, 107920, Note_off_c, 1, 53, 0
2, 107960, Note_on_c, 1, 34, 127
2, 107960, Note_on_c, 1, 46, 127
2, 107960, Note_on_c, 1, 53, 127
2, 110160, Note_off_c, 1, 34, 0
2, 110160, Note_off_c, 1, 46, 0
2, 110160, Note_off_c, 1, 53, 0
2, 110240, Note_on_c, 1, 51, 127
2, 111400, Note_off_c, 1, 51, 0
2, 111440, Note_on_c, 1, 41, 127
2, 112640, Note_off_c, 1, 41, 0
2, 112680, Note_on_c, 1, 41, 127
2, 113000, Note_off_c, 1, 41, 0
2, 113040, Note_on_c, 1, 39, 127
2, 113840, Note_off_c, 1, 39, 0
2, 113880, Note_on_c, 1, 39, 127
2, 114920, Note_off_c, 1, 39, 0
2, 114920, Note_on_c, 1, 41, 127
2, 114960, Note_on_c, 1, 39, 127
2, 114960, Note_off_c, 1, 41, 0
2, 115080, Note_off_c, 1, 39, 0
2, 115120, Note_on_c, 1, 39, 127
2, 115880, Note_off_c, 1, 39, 0
2, 115920, Note_on_c, 1, 39, 127
2, 117040, Note_off_c, 1, 39, 0
2, 120040, End_track
3, 0, Start_track
3, 0, Title_t, "MIDI"
3, 1536, End_track
0, 0, End_of_file
