0, 0, Header, 1, 3, 192
1, 0, Start_track
1, 0, Time_signature, 4, 2, 24, 8
1, 0, Tempo, 500000
1, 120040, End_track
2, 0, Start_track
2, 0, Text_t, "random instrument: random person i dunno whatev"
2, 0, Title_t, "Track 1"
2, 0, Note_on_c, 1, 40, 127
2, 0, Note_on_c, 1, 48, 127
2, 0, Note_on_c, 1, 56, 127
2, 0, Note_on_c, 1, 60, 127
2, 440, Note_off_c, 1, 40, 0
2, 440, Note_off_c, 1, 48, 0
2, 440, Note_off_c, 1, 56, 0
2, 440, Note_off_c, 1, 60, 0
2, 480, Note_on_c, 1, 40, 127
2, 480, Note_on_c, 1, 48, 127
2, 480, Note_on_c, 1, 56, 127
2, 480, Note_on_c, 1, 60, 127
2, 520, Note_off_c, 1, 40, 0
2, 520, Note_off_c, 1, 48, 0
2, 520, Note_off_c, 1, 56, 0
2, 520, Note_off_c, 1, 60, 0
2, 560, Note_on_c, 1, 79, 127
2, 2000, Note_off_c, 1, 79, 0
2, 2040, Note_on_c, 1, 78, 127
2, 2280, Note_off_c, 1, 78, 0
2, 2320, Note_on_c, 1, 79, 127
2, 2480, Note_off_c, 1, 79, 0
2, 2520, Note_on_c, 1, 79, 127
2, 3920, Note_off_c, 1, 79, 0
2, 3960, Note_on_c, 1, 80, 127
2, 4720, Note_off_c, 1, 80, 0
2, 4760, Note_on_c, 1, 80, 127
2, 4920, Note_off_c, 1, 80, 0
2, 4960, Note_on_c, 1, 78, 127
2, 5640, Note_off_c, 1, 78, 0
2, 5680, Note_on_c, 1, 79, 127
2, 6040, Note_off_c, 1, 79, 0
2, 6080, Note_on_c, 1, 78, 127
2, 7040, Note_off_c, 1, 78, 0
2, 7080, Note_on_c, 1, 78, 127
2, 7200, Note_off_c, 1, 78, 0
2, 7240, Note_on_c, 1, 92, 127
2, 7400, Note_on_c, 1, 80, 127
2, 7400, Note_off_c, 1, 92, 0
2, 7440, Note_off_c, 1, 80, 0
2, 7440, Note_on_c, 1, 92, 127
2, 8160, Note_off_c, 1, 92, 0
2, 13400, Note_on_c, 1, 37, 127
2, 13400, Note_on_c, 1, 49, 127
2, 15240, Note_off_c, 1, 37, 0
2, 15240, Note_off_c, 1, 49, 0
2, 18240, Note_on_c, 1, 40, 127
2, 18240, Note_on_c, 1, 52, 127
2, 18240, Note_on_c, 1, 64, 127
2, 21120, Note_off_c, 1, 40, 0
2, 21120, Note_off_c, 1, 52, 0
2, 21120, Note_off_c, 1, 64, 0
2, 21160, Note_on_c, 1, 40, 127
2, 21160, Note_on_c, 1, 52, 127
2, 21160, Note_on_c, 1, 64, 127
2, 23560, Note_on_c, 1, 39, 127
2, 23560, Note_off_c, 1, 40, 0
2, 23560, Note_on_c, 1, 51, 127
2, 23560, Note_off_c, 1, 52, 0
2, 23560, Note_on_c, 1, 63, 127
2, 23560, Note_off_c, 1, 64, 0
2, 23600, Note_off_c, 1, 39, 0
2, 23600, Note_on_c, 1, 40, 127
2, 23600, Note_off_c, 1, 51, 0
2, 23600, Note_on_c, 1, 52, 127
2, 23600, Note_off_c, 1, 63, 0
2, 23600, Note_on_c, 1, 64, 127
2, 25800, Note_off_c, 1, 40, 0
2, 25800, Note_off_c, 1, 52, 0
2, 25800, Note_off_c, 1, 64, 0
2, 25840, Note_on_c, 1, 40, 127
2, 25840, Note_on_c, 1, 52, 127
2, 25840, Note_on_c, 1, 64, 127
2, 28360, Note_off_c, 1, 40, 0
2, 28360, Note_off_c, 1, 52, 0
2, 28360, Note_off_c, 1, 64, 0
2, 28400, Note_on_c, 1, 40, 127
2, 28400, Note_on_c, 1, 52, 127
2, 28400, Note_on_c, 1, 64, 127
2, 30680, Note_off_c, 1, 40, 0
2, 30680, Note_on_c, 1, 41, 127
2, 30680, Note_off_c, 1, 52, 0
2, 30680, Note_on_c, 1, 53, 127
2, 30680, Note_off_c, 1, 64, 0
2, 30680, Note_on_c, 1, 65, 127
2, 30720, Note_on_c, 1, 40, 127
2, 30720, Note_off_c, 1, 41, 0
2, 30720, Note_on_c, 1, 52, 127
2, 30720, Note_off_c, 1, 53, 0
2, 30720, Note_on_c, 1, 64, 127
2, 30720, Note_off_c, 1, 65, 0
2, 31160, Note_off_c, 1, 40, 0
2, 31160, Note_off_c, 1, 52, 0
2, 31160, Note_off_c, 1, 64, 0
2, 31200, Note_on_c, 1, 40, 127
2, 31200, Note_on_c, 1, 52, 127
2, 31200, Note_on_c, 1, 64, 127
2, 33640, Note_off_c, 1, 40, 0
2, 33640, Note_off_c, 1, 52, 0
2, 33640, Note_off_c, 1, 64, 0
2, 51120, Note_on_c, 1, 41, 127
2, 51880, Note_off_c, 1, 41, 0
2, 51920, Note_on_c, 1, 41, 127
2, 52280, Note_off_c, 1, 41, 0
2, 52320, Note_on_c, 1, 58, 127
2, 52680, Note_off_c, 1, 58, 0
2, 52720, Note_on_c, 1, 55, 127
2, 53080, Note_off_c, 1, 55, 0
2, 53160, Note_on_c, 1, 48, 127
2, 53480, Note_off_c, 1, 48, 0
2, 53560, Note_on_c, 1, 43, 127
2, 53920, Note_off_c, 1, 43, 0
2, 53960, Note_on_c, 1, 46, 127
2, 54280, Note_off_c, 1, 46, 0
2, 54360, Note_on_c, 1, 46, 127
2, 54680, Note_off_c, 1, 46, 0
2, 54760, Note_on_c, 1, 46, 127
2, 55080, Note_off_c, 1, 46, 0
2, 55160, Note_on_c, 1, 46, 127
2, 55480, Note_off_c, 1, 46, 0
2, 55560, Note_on_c, 1, 46, 127
2, 55880, Note_off_c, 1, 46, 0
2, 55920, Note_on_c, 1, 48, 127
2, 56240, Note_off_c, 1, 48, 0
2, 56320, Note_on_c, 1, 46, 127
2, 56640, Note_off_c, 1, 46, 0
2, 56760, Note_on_c, 1, 50, 127
2, 57080, Note_off_c, 1, 50, 0
2, 57160, Note_on_c, 1, 50, 127
2, 57480, Note_off_c, 1, 50, 0
2, 57560, Note_on_c, 1, 50, 127
2, 57880, Note_off_c, 1, 50, 0
2, 57960, Note_on_c, 1, 46, 127
2, 58280, Note_off_c, 1, 46, 0
2, 58360, Note_on_c, 1, 46, 127
2, 58680, Note_off_c, 1, 46, 0
2, 58760, Note_on_c, 1, 46, 127
2, 59080, Note_off_c, 1, 46, 0
2, 59200, Note_on_c, 1, 50, 127
2, 59520, Note_off_c, 1, 50, 0
2, 59560, Note_on_c, 1, 53, 127
2, 59920, Note_off_c, 1, 53, 0
2, 59960, Note_on_c, 1, 46, 127
2, 60320, Note_off_c, 1, 46, 0
2, 60360, Note_on_c, 1, 53, 127
2, 60720, Note_off_c, 1, 53, 0
2, 60760, Note_on_c, 1, 46, 127
2, 61120, Note_off_c, 1, 46, 0
2, 61160, Note_on_c, 1, 50, 127
2, 61480, Note_off_c, 1, 50, 0
2, 61600, Note_on_c, 1, 50, 127
2, 61920, Note_off_c, 1, 50, 0
2, 62000, Note_on_c, 1, 46, 127
2, 62320, Note_off_c, 1, 46, 0
2, 62400, Note_on_c, 1, 46, 127
2, 62720, Note_off_c, 1, 46, 0
2, 62800, Note_on_c, 1, 46, 127
2, 63120, Note_off_c, 1, 46, 0
2, 63200, Note_on_c, 1, 46, 127
2, 63520, Note_off_c, 1, 46, 0
2, 63600, Note_on_c, 1, 46, 127
2, 63920, Note_off_c, 1, 46, 0
2, 63960, Note_on_c, 1, 46, 127
2, 64000, Note_off_c, 1, 46, 0
2, 64040, Note_on_c, 1, 46, 127
2, 64360, Note_off_c, 1, 46, 0
2, 64440, Note_on_c, 1, 46, 127
2, 64760, Note_off_c, 1, 46, 0
2, 64840, Note_on_c, 1, 46, 127
2, 65160, Note_off_c, 1, 46, 0
2, 65240, Note_on_c, 1, 46, 127
2, 65560, Note_off_c, 1, 46, 0
2, 65640, Note_on_c, 1, 46, 127
2, 65960, Note_off_c, 1, 46, 0
2, 66040, Note_on_c, 1, 46, 127
2, 66360, Note_off_c, 1, 46, 0
2, 66480, Note_on_c, 1, 46, 127
2, 66800, Note_off_c, 1, 46, 0
2, 66880, Note_on_c, 1, 46, 127
2, 67200, Note_off_c, 1, 46, 0
2, 67200, Note_on_c, 1, 52, 127
2, 67240, Note_off_c, 1, 52, 0
2, 67280, Note_on_c, 1, 46, 127
2, 67600, Note_off_c, 1, 46, 0
2, 67680, Note_on_c, 1, 46, 127
2, 68000, Note_off_c, 1, 46, 0
2, 68080, Note_on_c, 1, 46, 127
2, 68400, Note_off_c, 1, 46, 0
2, 68480, Note_on_c, 1, 54, 127
2, 68840, Note_off_c, 1, 54, 0
2, 68920, Note_on_c, 1, 46, 127
2, 69240, Note_off_c, 1, 46, 0
2, 69320, Note_on_c, 1, 46, 127
2, 69640, Note_off_c, 1, 46, 0
2, 69720, Note_on_c, 1, 46, 127
2, 70040, Note_off_c, 1, 46, 0
2, 70120, Note_on_c, 1, 46, 127
2, 70440, Note_off_c, 1, 46, 0
2, 70520, Note_on_c, 1, 46, 127
2, 70840, Note_off_c, 1, 46, 0
2, 70920, Note_on_c, 1, 46, 127
2, 71120, Note_off_c, 1, 46, 0
2, 71160, Note_on_c, 1, 46, 127
2, 71280, Note_off_c, 1, 46, 0
2, 71360, Note_on_c, 1, 46, 127
2, 72120, Note_off_c, 1, 46, 0
2, 72160, Note_on_c, 1, 46, 127
2, 72480, Note_off_c, 1, 46, 0
2, 72560, Note_on_c, 1, 46, 127
2, 72920, Note_off_c, 1, 46, 0
2, 72960, Note_on_c, 1, 46, 127
2, 73320, Note_off_c, 1, 46, 0
2, 73400, Note_on_c, 1, 39, 127
2, 73760, Note_off_c, 1, 39, 0
2, 73800, Note_on_c, 1, 39, 127
2, 74120, Note_off_c, 1, 39, 0
2, 74200, Note_on_c, 1, 46, 127
2, 74520, Note_off_c, 1, 46, 0
2, 74560, Note_on_c, 1, 46, 127
2, 74920, Note_off_c, 1, 46, 0
2, 74960, Note_on_c, 1, 51, 127
2, 75320, Note_off_c, 1, 51, 0
2, 75360, Note_on_c, 1, 46, 127
2, 75680, Note_off_c, 1, 46, 0
2, 75800, Note_on_c, 1, 46, 127
2, 76120, Note_off_c, 1, 46, 0
2, 76200, Note_on_c, 1, 46, 127
2, 76520, Note_off_c, 1, 46, 0
2, 76600, Note_on_c, 1, 46, 127
2, 76920, Note_off_c, 1, 46, 0
2, 77000, Note_on_c, 1, 46, 127
2, 77320, Note_off_c, 1, 46, 0
2, 77400, Note_on_c, 1, 46, 127
2, 77720, Note_off_c, 1, 46, 0
2, 77800, Note_on_c, 1, 46, 127
2, 78080, Note_off_c, 1, 46, 0
2, 78120, Note_on_c, 1, 46, 127
2, 78160, Note_off_c, 1, 46, 0
2, 78200, Note_on_c, 1, 46, 127
2, 78560, Note_off_c, 1, 46, 0
2, 78600, Note_on_c, 1, 46, 127
2, 78960, Note_off_c, 1, 46, 0
2, 79000, Note_on_c, 1, 46, 127
2, 79320, Note_off_c, 1, 46, 0
2, 79400, Note_on_c, 1, 46, 127
2, 79720, Note_off_c, 1, 46, 0
2, 79800, Note_on_c, 1, 46, 127
2, 80160, Note_off_c, 1, 46, 0
2, 80200, Note_on_c, 1, 46, 127
2, 80400, Note_off_c, 1, 46, 0
2, 80440, Note_on_c, 1, 46, 127
2, 80560, Note_off_c, 1, 46, 0
2, 80640, Note_on_c, 1, 46, 127
2, 80960, Note_off_c, 1, 46, 0
2, 81000, Note_on_c, 1, 46, 127
2, 81360, Note_off_c, 1, 46, 0
2, 81400, Note_on_c, 1, 46, 127
2, 81760, Note_off_c, 1, 46, 0
2, 81800, Note_on_c, 1, 46, 127
2, 82120, Note_off_c, 1, 46, 0
2, 82200, Note_on_c, 1, 46, 127
2, 82560, Note_off_c, 1, 46, 0
2, 82640, Note_on_c, 1, 46, 127
2, 82960, Note_off_c, 1, 46, 0
2, 83000, Note_on_c, 1, 51, 127
2, 83360, Note_off_c, 1, 51, 0
2, 83400, Note_on_c, 1, 58, 127
2, 83760, Note_off_c, 1, 58, 0
2, 83800, Note_on_c, 1, 63, 127
2, 84160, Note_off_c, 1, 63, 0
2, 84200, Note_on_c, 1, 58, 127
2, 84520, Note_off_c, 1, 58, 0
2, 84560, Note_on_c, 1, 63, 127
2, 84920, Note_off_c, 1, 63, 0
2, 85000, Note_on_c, 1, 58, 127
2, 85320, Note_off_c, 1, 58, 0
2, 85360, Note_on_c, 1, 51, 127
2, 85720, Note_off_c, 1, 51, 0
2, 85760, Note_on_c, 1, 58, 127
2, 86120, Note_off_c, 1, 58, 0
2, 86160, Note_on_c, 1, 62, 127
2, 86520, Note_off_c, 1, 62, 0
2, 86560, Note_on_c, 1, 63, 127
2, 86920, Note_off_c, 1, 63, 0
2, 86960, Note_on_c, 1, 32, 127
2, 86960, Note_on_c, 1, 44, 127
2, 86960, Note_on_c, 1, 63, 127
2, 87280, Note_off_c, 1, 32, 0
2, 87280, Note_off_c, 1, 44, 0
2, 87280, Note_off_c, 1, 63, 0
2, 87320, Note_on_c, 1, 32, 127
2, 87320, Note_on_c, 1, 44, 127
2, 87320, Note_on_c, 1, 63, 127
2, 87360, Note_off_c, 1, 63, 0
2, 87400, Note_on_c, 1, 66, 127
2, 87760, Note_off_c, 1, 66, 0
2, 87800, Note_on_c, 1, 60, 127
2, 88160, Note_off_c, 1, 32, 0
2, 88160, Note_off_c, 1, 44, 0
2, 88160, Note_off_c, 1, 60, 0
2, 88200, Note_on_c, 1, 32, 127
2, 88200, Note_on_c, 1, 44, 127
2, 88200, Note_on_c, 1, 66, 127
2, 88560, Note_off_c, 1, 66, 0
2, 88600, Note_on_c, 1, 69, 127
2, 88960, Note_off_c, 1, 32, 0
2, 88960, Note_off_c, 1, 44, 0
2, 88960, Note_off_c, 1, 69, 0
2, 89000, Note_on_c, 1, 32, 127
2, 89000, Note_on_c, 1, 44, 127
2, 89000, Note_on_c, 1, 69, 127
2, 89360, Note_off_c, 1, 69, 0
2, 89400, Note_off_c, 1, 32, 0
2, 89400, Note_off_c, 1, 44, 0
2, 89440, Note_on_c, 1, 32, 127
2, 89440, Note_on_c, 1, 44, 127
2, 89440, Note_on_c, 1, 69, 127
2, 89760, Note_off_c, 1, 32, 0
2, 89760, Note_off_c, 1, 44, 0
2, 89760, Note_off_c, 1, 69, 0
2, 89840, Note_on_c, 1, 51, 127
2, 89840, Note_on_c, 1, 58, 127
2, 89840, Note_on_c, 1, 67, 127
2, 89840, Note_on_c, 1, 75, 127
2, 90600, Note_off_c, 1, 51, 0
2, 90600, Note_off_c, 1, 58, 0
2, 90600, Note_off_c, 1, 67, 0
2, 90600, Note_off_c, 1, 75, 0
2, 90640, Note_on_c, 1, 51, 127
2, 90640, Note_on_c, 1, 58, 127
2, 90640, Note_on_c, 1, 67, 127
2, 90640, Note_on_c, 1, 75, 127
2, 91000, Note_off_c, 1, 51, 0
2, 91000, Note_off_c, 1, 58, 0
2, 91000, Note_off_c, 1, 67, 0
2, 91000, Note_off_c, 1, 75, 0
2, 91040, Note_on_c, 1, 51, 127
2, 91040, Note_on_c, 1, 58, 127
2, 91040, Note_on_c, 1, 67, 127
2, 91040, Note_on_c, 1, 75, 127
2, 91640, Note_off_c, 1, 51, 0
2, 91640, Note_off_c, 1, 58, 0
2, 91640, Note_off_c, 1, 67, 0
2, 91640, Note_off_c, 1, 75, 0
2, 91680, Note_on_c, 1, 51, 127
2, 91680, Note_on_c, 1, 58, 127
2, 91680, Note_on_c, 1, 67, 127
2, 91680, Note_on_c, 1, 75, 127
2, 92280, Note_off_c, 1, 51, 0
2, 92280, Note_off_c, 1, 58, 0
2, 92280, Note_off_c, 1, 67, 0
2, 92280, Note_off_c, 1, 75, 0
2, 92320, Note_on_c, 1, 51, 127
2, 92320, Note_on_c, 1, 58, 127
2, 92320, Note_on_c, 1, 63, 127
2, 92320, Note_on_c, 1, 67, 127
2, 92320, Note_on_c, 1, 70, 127
2, 92320, Note_on_c, 1, 79, 127
2, 93480, Note_off_c, 1, 51, 0
2, 93480, Note_off_c, 1, 58, 0
2, 93480, Note_off_c, 1, 63, 0
2, 93480, Note_off_c, 1, 67, 0
2, 93480, Note_off_c, 1, 70, 0
2, 93480, Note_off_c, 1, 79, 0
2, 93520, Note_on_c, 1, 51, 127
2, 93520, Note_on_c, 1, 58, 127
2, 93520, Note_on_c, 1, 63, 127
2, 93520, Note_on_c, 1, 67, 127
2, 93520, Note_on_c, 1, 70, 127
2, 93520, Note_on_c, 1, 79, 127
2, 94080, Note_off_c, 1, 51, 0
2, 94080, Note_off_c, 1, 58, 0
2, 94080, Note_off_c, 1, 63, 0
2, 94080, Note_off_c, 1, 67, 0
2, 94080, Note_off_c, 1, 70, 0
2, 94080, Note_off_c, 1, 79, 0
2, 94120, Note_on_c, 1, 51, 127
2, 94120, Note_on_c, 1, 58, 127
2, 94120, Note_on_c, 1, 63, 127
2, 94120, Note_on_c, 1, 67, 127
2, 94120, Note_on_c, 1, 70, 127
2, 94120, Note_on_c, 1, 79, 127
2, 94720, Note_off_c, 1, 51, 0
2, 94720, Note_off_c, 1, 58, 0
2, 94720, Note_off_c, 1, 63, 0
2, 94720, Note_off_c, 1, 67, 0
2, 94720, Note_off_c, 1, 70, 0
2, 94720, Note_off_c, 1, 79, 0
2, 94760, Note_on_c, 1, 50, 127
2, 94760, Note_on_c, 1, 58, 127
2, 94760, Note_on_c, 1, 62, 127
2, 94760, Note_on_c, 1, 65, 127
2, 94760, Note_on_c, 1, 70, 127
2, 94760, Note_on_c, 1, 77, 127
2, 95520, Note_off_c, 1, 50, 0
2, 95520, Note_off_c, 1, 58, 0
2, 95520, Note_off_c, 1, 62, 0
2, 95520, Note_off_c, 1, 65, 0
2, 95520, Note_off_c, 1, 70, 0
2, 95520, Note_off_c, 1, 77, 0
2, 95560, Note_on_c, 1, 51, 127
2, 95560, Note_on_c, 1, 58, 127
2, 95560, Note_on_c, 1, 63, 127
2, 95560, Note_on_c, 1, 67, 127
2, 95560, Note_on_c, 1, 70, 127
2, 95560, Note_on_c, 1, 79, 127
2, 96320, Note_off_c, 1, 51, 0
2, 96320, Note_off_c, 1, 58, 0
2, 96320, Note_off_c, 1, 63, 0
2, 96320, Note_off_c, 1, 67, 0
2, 96320, Note_off_c, 1, 70, 0
2, 96320, Note_off_c, 1, 79, 0
2, 96400, Note_on_c, 1, 51, 127
2, 96400, Note_on_c, 1, 58, 127
2, 96400, Note_on_c, 1, 63, 127
2, 96400, Note_on_c, 1, 67, 127
2, 96400, Note_on_c, 1, 70, 127
2, 96400, Note_on_c, 1, 79, 127
2, 97160, Note_off_c, 1, 51, 0
2, 97160, Note_off_c, 1, 58, 0
2, 97160, Note_off_c, 1, 63, 0
2, 97160, Note_off_c, 1, 67, 0
2, 97160, Note_off_c, 1, 70, 0
2, 97160, Note_off_c, 1, 79, 0
2, 97200, Note_on_c, 1, 51, 127
2, 97200, Note_on_c, 1, 58, 127
2, 97200, Note_on_c, 1, 63, 127
2, 97200, Note_on_c, 1, 67, 127
2, 97200, Note_on_c, 1, 70, 127
2, 97200, Note_on_c, 1, 79, 127
2, 97960, Note_off_c, 1, 51, 0
2, 97960, Note_off_c, 1, 58, 0
2, 97960, Note_off_c, 1, 63, 0
2, 97960, Note_off_c, 1, 67, 0
2, 97960, Note_off_c, 1, 70, 0
2, 97960, Note_off_c, 1, 79, 0
2, 98000, Note_on_c, 1, 51, 127
2, 98000, Note_on_c, 1, 58, 127
2, 98000, Note_on_c, 1, 63, 127
2, 98000, Note_on_c, 1, 67, 127
2, 98000, Note_on_c, 1, 70, 127
2, 98000, Note_on_c, 1, 79, 127
2, 98760, Note_off_c, 1, 51, 0
2, 98760, Note_off_c, 1, 58, 0
2, 98760, Note_off_c, 1, 63, 0
2, 98760, Note_off_c, 1, 67, 0
2, 98760, Note_off_c, 1, 70, 0
2, 98760, Note_off_c, 1, 79, 0
2, 98840, Note_on_c, 1, 51, 127
2, 98840, Note_on_c, 1, 58, 127
2, 98840, Note_on_c, 1, 63, 127
2, 98840, Note_on_c, 1, 67, 127
2, 98840, Note_on_c, 1, 70, 127
2, 98840, Note_on_c, 1, 79, 127
2, 99200, Note_off_c, 1, 51, 0
2, 99200, Note_off_c, 1, 58, 0
2, 99200, Note_off_c, 1, 63, 0
2, 99200, Note_off_c, 1, 67, 0
2, 99200, Note_off_c, 1, 70, 0
2, 99200, Note_off_c, 1, 79, 0
2, 99240, Note_on_c, 1, 51, 127
2, 99240, Note_on_c, 1, 58, 127
2, 99240, Note_on_c, 1, 63, 127
2, 99240, Note_on_c, 1, 67, 127
2, 99240, Note_on_c, 1, 70, 127
2, 99240, Note_on_c, 1, 79, 127
2, 100000, Note_off_c, 1, 51, 0
2, 100000, Note_off_c, 1, 58, 0
2, 100000, Note_off_c, 1, 63, 0
2, 100000, Note_off_c, 1, 67, 0
2, 100000, Note_off_c, 1, 70, 0
2, 100000, Note_off_c, 1, 79, 0
2, 100040, Note_on_c, 1, 51, 127
2, 100040, Note_on_c, 1, 58, 127
2, 100040, Note_on_c, 1, 63, 127
2, 100040, Note_on_c, 1, 67, 127
2, 100040, Note_on_c, 1, 70, 127
2, 100400, Note_off_c, 1, 51, 0
2, 100400, Note_off_c, 1, 58, 0
2, 100400, Note_off_c, 1, 63, 0
2, 100400, Note_off_c, 1, 67, 0
2, 100400, Note_off_c, 1, 70, 0
2, 100440, Note_on_c, 1, 36, 127
2, 100440, Note_on_c, 1, 43, 127
2, 100440, Note_on_c, 1, 48, 127
2, 100440, Note_on_c, 1, 52, 127
2, 100440, Note_on_c, 1, 60, 127
2, 101040, Note_off_c, 1, 36, 0
2, 101040, Note_off_c, 1, 43, 0
2, 101040, Note_off_c, 1, 48, 0
2, 101040, Note_off_c, 1, 52, 0
2, 101040, Note_off_c, 1, 60, 0
2, 101080, Note_on_c, 1, 36, 127
2, 101080, Note_on_c, 1, 43, 127
2, 101080, Note_on_c, 1, 48, 127
2, 101080, Note_on_c, 1, 52, 127
2, 101080, Note_on_c, 1, 60, 127
2, 102000, Note_off_c, 1, 36, 0
2, 102000, Note_off_c, 1, 43, 0
2, 102000, Note_off_c, 1, 48, 0
2, 102000, Note_off_c, 1, 52, 0
2, 102000, Note_off_c, 1, 60, 0
2, 105560, Note_on_c, 1, 45, 127
2, 105560, Note_on_c, 1, 57, 127
2, 105920, Note_off_c, 1, 45, 0
2, 105920, Note_off_c, 1, 57, 0
2, 105960, Note_on_c, 1, 45, 127
2, 105960, Note_on_c, 1, 57, 127
2, 106680, Note_off_c, 1, 45, 0
2, 106680, Note_off_c, 1, 57, 0
2, 106800, Note_on_c, 1, 40, 127
2, 106800, Note_on_c, 1, 67, 127
2, 107120, Note_off_c, 1, 40, 0
2, 107120, Note_off_c, 1, 67, 0
2, 107200, Note_on_c, 1, 40, 127
2, 107200, Note_on_c, 1, 67, 127
2, 107560, Note_off_c, 1, 40, 0
2, 107560, Note_off_c, 1, 67, 0
2, 107600, Note_on_c, 1, 46, 127
2, 107600, Note_on_c, 1, 67, 127
2, 107920, Note_off_c, 1, 46, 0
2, 107920, Note_off_c, 1, 67, 0
2, 108000, Note_on_c, 1, 55, 127
2, 108320, Note_off_c, 1, 55, 0
2, 108400, Note_on_c, 1, 52, 127
2, 108720, Note_off_c, 1, 52, 0
2, 108800, Note_on_c, 1, 51, 127
2, 109120, Note_off_c, 1, 51, 0
2, 109200, Note_on_c, 1, 50, 127
2, 109520, Note_off_c, 1, 50, 0
2, 109560, Note_on_c, 1, 50, 127
2, 109600, Note_off_c, 1, 50, 0
2, 120040, End_track
3, 0, Start_track
3, 0, Title_t, "MIDI"
3, 1536, End_track
0, 0, End_of_file
