0, 0, Header, 1, 3, 192
1, 0, Start_track
1, 0, Time_signature, 4, 2, 24, 8
1, 0, Tempo, 500000
1, 120040, End_track
2, 0, Start_track
2, 0, Text_t, "random instrument: random person i dunno whatev"
2, 0, Title_t, "Track 1"
2, 0, Note_on_c, 1, 40, 127
2, 0, Note_on_c, 1, 48, 127
2, 0, Note_on_c, 1, 56, 127
2, 0, Note_on_c, 1, 60, 127
2, 280, Note_off_c, 1, 40, 0
2, 280, Note_off_c, 1, 48, 0
2, 280, Note_off_c, 1, 56, 0
2, 280, Note_off_c, 1, 60, 0
2, 360, Note_on_c, 1, 57, 127
2, 360, Note_on_c, 1, 62, 127
2, 360, Note_on_c, 1, 65, 127
2, 360, Note_on_c, 1, 69, 127
2, 360, Note_on_c, 1, 88, 127
2, 720, Note_off_c, 1, 88, 0
2, 2480, Note_off_c, 1, 57, 0
2, 2480, Note_off_c, 1, 62, 0
2, 2480, Note_off_c, 1, 65, 0
2, 2480, Note_off_c, 1, 69, 0
2, 2520, Note_on_c, 1, 57, 127
2, 2520, Note_on_c, 1, 62, 127
2, 2520, Note_on_c, 1, 65, 127
2, 2520, Note_on_c, 1, 69, 127
2, 4920, Note_off_c, 1, 57, 0
2, 4920, Note_off_c, 1, 62, 0
2, 4920, Note_off_c, 1, 65, 0
2, 4920, Note_off_c, 1, 69, 0
2, 13400, Note_on_c, 1, 37, 127
2, 13400, Note_on_c, 1, 49, 127
2, 15240, Note_off_c, 1, 37, 0
2, 15240, Note_off_c, 1, 49, 0
2, 18240, Note_on_c, 1, 40, 127
2, 18240, Note_on_c, 1, 52, 127
2, 18240, Note_on_c, 1, 64, 127
2, 23560, Note_on_c, 1, 39, 127
2, 23560, Note_off_c, 1, 40, 0
2, 23560, Note_on_c, 1, 51, 127
2, 23560, Note_off_c, 1, 52, 0
2, 23560, Note_on_c, 1, 63, 127
2, 23560, Note_off_c, 1, 64, 0
2, 23600, Note_off_c, 1, 39, 0
2, 23600, Note_on_c, 1, 40, 127
2, 23600, Note_off_c, 1, 51, 0
2, 23600, Note_on_c, 1, 52, 127
2, 23600, Note_off_c, 1, 63, 0
2, 23600, Note_on_c, 1, 64, 127
2, 24240, Note_off_c, 1, 40, 0
2, 24240, Note_off_c, 1, 52, 0
2, 24240, Note_off_c, 1, 64, 0
2, 24280, Note_on_c, 1, 40, 127
2, 24280, Note_on_c, 1, 52, 127
2, 24280, Note_on_c, 1, 64, 127
2, 25800, Note_off_c, 1, 40, 0
2, 25800, Note_off_c, 1, 52, 0
2, 25800, Note_off_c, 1, 64, 0
2, 30040, Note_on_c, 1, 39, 127
2, 30040, Note_on_c, 1, 63, 127
2, 31600, Note_off_c, 1, 39, 0
2, 31600, Note_off_c, 1, 63, 0
2, 34840, Note_on_c, 1, 45, 127
2, 34840, Note_on_c, 1, 57, 127
2, 34840, Note_on_c, 1, 73, 127
2, 34840, Note_on_c, 1, 79, 127
2, 35880, Note_off_c, 1, 45, 0
2, 35880, Note_off_c, 1, 57, 0
2, 35880, Note_off_c, 1, 73, 0
2, 35880, Note_off_c, 1, 79, 0
2, 35920, Note_on_c, 1, 72, 127
2, 36680, Note_off_c, 1, 72, 0
2, 36720, Note_on_c, 1, 71, 127
2, 37400, Note_off_c, 1, 71, 0
2, 37560, Note_on_c, 1, 47, 127
2, 37560, Note_on_c, 1, 51, 127
2, 37560, Note_on_c, 1, 54, 127
2, 37560, Note_on_c, 1, 59, 127
2, 38520, Note_off_c, 1, 47, 0
2, 38720, Note_on_c, 1, 47, 127
2, 38720, Note_off_c, 1, 51, 0
2, 38720, Note_off_c, 1, 54, 0
2, 38720, Note_off_c, 1, 59, 0
2, 38720, Note_on_c, 1, 63, 127
2, 38720, Note_on_c, 1, 66, 127
2, 39120, Note_off_c, 1, 47, 0
2, 39120, Note_off_c, 1, 63, 0
2, 39120, Note_off_c, 1, 66, 0
2, 39160, Note_on_c, 1, 74, 127
2, 39920, Note_off_c, 1, 74, 0
2, 39960, Note_on_c, 1, 83, 127
2, 40320, Note_off_c, 1, 83, 0
2, 40360, Note_on_c, 1, 83, 127
2, 41120, Note_off_c, 1, 83, 0
2, 41160, Note_on_c, 1, 81, 127
2, 41560, Note_on_c, 1, 69, 127
2, 41560, Note_off_c, 1, 81, 0
2, 41960, Note_on_c, 1, 79, 127
2, 42720, Note_off_c, 1, 69, 0
2, 42720, Note_off_c, 1, 79, 0
2, 42760, Note_on_c, 1, 69, 127
2, 42760, Note_on_c, 1, 78, 127
2, 44640, Note_off_c, 1, 69, 0
2, 44640, Note_off_c, 1, 78, 0
2, 44680, Note_on_c, 1, 81, 127
2, 45080, Note_off_c, 1, 81, 0
2, 45120, Note_on_c, 1, 81, 127
2, 45280, Note_off_c, 1, 81, 0
2, 45320, Note_on_c, 1, 73, 127
2, 46040, Note_off_c, 1, 73, 0
2, 46080, Note_on_c, 1, 69, 127
2, 46960, Note_off_c, 1, 69, 0
2, 47000, Note_on_c, 1, 74, 127
2, 47440, Note_off_c, 1, 74, 0
2, 47480, Note_on_c, 1, 74, 127
2, 47640, Note_off_c, 1, 74, 0
2, 47680, Note_on_c, 1, 47, 127
2, 47680, Note_on_c, 1, 57, 127
2, 47680, Note_on_c, 1, 62, 127
2, 47680, Note_on_c, 1, 68, 127
2, 47680, Note_on_c, 1, 71, 127
2, 47800, Note_on_c, 1, 45, 127
2, 47800, Note_off_c, 1, 47, 0
2, 47800, Note_on_c, 1, 60, 127
2, 47800, Note_off_c, 1, 62, 0
2, 47800, Note_off_c, 1, 68, 0
2, 47800, Note_on_c, 1, 69, 127
2, 47800, Note_off_c, 1, 71, 0
2, 47800, Note_on_c, 1, 72, 127
2, 48440, Note_off_c, 1, 60, 0
2, 48440, Note_off_c, 1, 69, 0
2, 48440, Note_off_c, 1, 72, 0
2, 48480, Note_off_c, 1, 45, 0
2, 48480, Note_off_c, 1, 57, 0
2, 48480, Note_on_c, 1, 64, 127
2, 48480, Note_on_c, 1, 69, 127
2, 48480, Note_on_c, 1, 72, 127
2, 49040, Note_off_c, 1, 64, 0
2, 49040, Note_off_c, 1, 69, 0
2, 49040, Note_off_c, 1, 72, 0
2, 49080, Note_on_c, 1, 66, 127
2, 49080, Note_on_c, 1, 69, 127
2, 49640, Note_off_c, 1, 66, 0
2, 49640, Note_off_c, 1, 69, 0
2, 49720, Note_on_c, 1, 65, 127
2, 49720, Note_on_c, 1, 68, 127
2, 51280, Note_off_c, 1, 65, 0
2, 51280, Note_on_c, 1, 71, 127
2, 52000, Note_off_c, 1, 68, 0
2, 52000, Note_off_c, 1, 71, 0
2, 52040, Note_on_c, 1, 68, 127
2, 52040, Note_on_c, 1, 71, 127
2, 52520, Note_off_c, 1, 68, 0
2, 52520, Note_off_c, 1, 71, 0
2, 52560, Note_on_c, 1, 68, 127
2, 52560, Note_on_c, 1, 71, 127
2, 54120, Note_off_c, 1, 68, 0
2, 54120, Note_on_c, 1, 69, 127
2, 54120, Note_off_c, 1, 71, 0
2, 54120, Note_on_c, 1, 73, 127
2, 54160, Note_off_c, 1, 69, 0
2, 54160, Note_off_c, 1, 73, 0
2, 54240, Note_on_c, 1, 68, 127
2, 54240, Note_on_c, 1, 71, 127
2, 55800, Note_off_c, 1, 68, 0
2, 55800, Note_off_c, 1, 71, 0
2, 55840, Note_on_c, 1, 68, 127
2, 55840, Note_on_c, 1, 71, 127
2, 56520, Note_off_c, 1, 68, 0
2, 56520, Note_off_c, 1, 71, 0
2, 56560, Note_on_c, 1, 68, 127
2, 56560, Note_on_c, 1, 71, 127
2, 57440, Note_off_c, 1, 68, 0
2, 57440, Note_off_c, 1, 71, 0
2, 57480, Note_on_c, 1, 64, 127
2, 57480, Note_on_c, 1, 68, 127
2, 57480, Note_on_c, 1, 71, 127
2, 58680, Note_off_c, 1, 64, 0
2, 58680, Note_off_c, 1, 68, 0
2, 58680, Note_off_c, 1, 71, 0
2, 58760, Note_on_c, 1, 64, 127
2, 58760, Note_on_c, 1, 68, 127
2, 58760, Note_on_c, 1, 71, 127
2, 61000, Note_off_c, 1, 64, 0
2, 61000, Note_on_c, 1, 67, 127
2, 61000, Note_off_c, 1, 68, 0
2, 61000, Note_on_c, 1, 88, 127
2, 61040, Note_off_c, 1, 67, 0
2, 61040, Note_off_c, 1, 71, 0
2, 61040, Note_off_c, 1, 88, 0
2, 61080, Note_on_c, 1, 67, 127
2, 61080, Note_on_c, 1, 71, 127
2, 61080, Note_on_c, 1, 88, 127
2, 61600, Note_off_c, 1, 88, 0
2, 61640, Note_off_c, 1, 67, 0
2, 61640, Note_off_c, 1, 71, 0
2, 61640, Note_on_c, 1, 83, 127
2, 63040, Note_off_c, 1, 83, 0
2, 66160, Note_on_c, 1, 55, 127
2, 66160, Note_on_c, 1, 59, 127
2, 66160, Note_on_c, 1, 67, 127
2, 66160, Note_on_c, 1, 76, 127
2, 66520, Note_off_c, 1, 67, 0
2, 66520, Note_off_c, 1, 76, 0
2, 66560, Note_on_c, 1, 67, 127
2, 66560, Note_on_c, 1, 76, 127
2, 66920, Note_off_c, 1, 55, 0
2, 66920, Note_off_c, 1, 59, 0
2, 66920, Note_off_c, 1, 67, 0
2, 67200, Note_on_c, 1, 52, 127
2, 67200, Note_off_c, 1, 76, 0
2, 67240, Note_off_c, 1, 52, 0
2, 67240, Note_on_c, 1, 76, 127
2, 67560, Note_off_c, 1, 76, 0
2, 67640, Note_on_c, 1, 76, 127
2, 68000, Note_off_c, 1, 76, 0
2, 68040, Note_on_c, 1, 74, 127
2, 68400, Note_off_c, 1, 74, 0
2, 68440, Note_on_c, 1, 76, 127
2, 69160, Note_off_c, 1, 76, 0
2, 69200, Note_on_c, 1, 74, 127
2, 69960, Note_off_c, 1, 74, 0
2, 70000, Note_on_c, 1, 76, 127
2, 70200, Note_off_c, 1, 76, 0
2, 70280, Note_on_c, 1, 76, 127
2, 70600, Note_off_c, 1, 76, 0
2, 70640, Note_on_c, 1, 79, 127
2, 71000, Note_off_c, 1, 79, 0
2, 71040, Note_on_c, 1, 55, 127
2, 71040, Note_on_c, 1, 64, 127
2, 71040, Note_on_c, 1, 67, 127
2, 71040, Note_on_c, 1, 72, 127
2, 71800, Note_off_c, 1, 55, 0
2, 71840, Note_on_c, 1, 55, 127
2, 72520, Note_off_c, 1, 55, 0
2, 72520, Note_off_c, 1, 64, 0
2, 72520, Note_off_c, 1, 67, 0
2, 72520, Note_off_c, 1, 72, 0
2, 72560, Note_on_c, 1, 55, 127
2, 72560, Note_on_c, 1, 64, 127
2, 72560, Note_on_c, 1, 67, 127
2, 72560, Note_on_c, 1, 72, 127
2, 72640, Note_off_c, 1, 64, 0
2, 72640, Note_off_c, 1, 72, 0
2, 72680, Note_on_c, 1, 62, 127
2, 72680, Note_on_c, 1, 71, 127
2, 72680, Note_on_c, 1, 74, 127
2, 73040, Note_off_c, 1, 62, 0
2, 73440, Note_off_c, 1, 55, 0
2, 73440, Note_off_c, 1, 67, 0
2, 73440, Note_off_c, 1, 71, 0
2, 73440, Note_off_c, 1, 74, 0
2, 73480, Note_on_c, 1, 60, 127
2, 73480, Note_on_c, 1, 67, 127
2, 73480, Note_on_c, 1, 72, 127
2, 73480, Note_on_c, 1, 76, 127
2, 74240, Note_off_c, 1, 60, 0
2, 74240, Note_off_c, 1, 67, 0
2, 74240, Note_off_c, 1, 72, 0
2, 74240, Note_off_c, 1, 76, 0
2, 74280, Note_on_c, 1, 74, 127
2, 74640, Note_off_c, 1, 74, 0
2, 74720, Note_on_c, 1, 55, 127
2, 74720, Note_on_c, 1, 58, 127
2, 74720, Note_on_c, 1, 62, 127
2, 74720, Note_on_c, 1, 67, 127
2, 74720, Note_on_c, 1, 70, 127
2, 75440, Note_off_c, 1, 55, 0
2, 75440, Note_off_c, 1, 58, 0
2, 75440, Note_off_c, 1, 62, 0
2, 75440, Note_off_c, 1, 67, 0
2, 75440, Note_off_c, 1, 70, 0
2, 75480, Note_on_c, 1, 60, 127
2, 75480, Note_on_c, 1, 63, 127
2, 75480, Note_on_c, 1, 68, 127
2, 75480, Note_on_c, 1, 70, 127
2, 75840, Note_off_c, 1, 60, 0
2, 75840, Note_off_c, 1, 63, 0
2, 75840, Note_off_c, 1, 70, 0
2, 75880, Note_on_c, 1, 60, 127
2, 75880, Note_on_c, 1, 63, 127
2, 76240, Note_off_c, 1, 60, 0
2, 76240, Note_off_c, 1, 63, 0
2, 76280, Note_off_c, 1, 68, 0
2, 76280, Note_on_c, 1, 75, 127
2, 76280, Note_on_c, 1, 79, 127
2, 76280, Note_on_c, 1, 85, 127
2, 76600, Note_on_c, 1, 87, 127
2, 76640, Note_off_c, 1, 75, 0
2, 76640, Note_off_c, 1, 79, 0
2, 76640, Note_off_c, 1, 85, 0
2, 76640, Note_off_c, 1, 87, 0
2, 76680, Note_on_c, 1, 59, 127
2, 76680, Note_on_c, 1, 66, 127
2, 76680, Note_on_c, 1, 75, 127
2, 76680, Note_on_c, 1, 80, 127
2, 76960, Note_off_c, 1, 59, 0
2, 76960, Note_off_c, 1, 66, 0
2, 76960, Note_off_c, 1, 75, 0
2, 76960, Note_off_c, 1, 80, 0
2, 77000, Note_on_c, 1, 59, 127
2, 77000, Note_on_c, 1, 66, 127
2, 77000, Note_on_c, 1, 75, 127
2, 77000, Note_on_c, 1, 80, 127
2, 77080, Note_off_c, 1, 75, 0
2, 77080, Note_off_c, 1, 80, 0
2, 77120, Note_on_c, 1, 75, 127
2, 77120, Note_on_c, 1, 83, 127
2, 77480, Note_off_c, 1, 75, 0
2, 77480, Note_off_c, 1, 83, 0
2, 77520, Note_on_c, 1, 75, 127
2, 77520, Note_on_c, 1, 83, 127
2, 77880, Note_off_c, 1, 59, 0
2, 77880, Note_off_c, 1, 66, 0
2, 77880, Note_off_c, 1, 75, 0
2, 77880, Note_off_c, 1, 83, 0
2, 77920, Note_on_c, 1, 84, 127
2, 78320, Note_on_c, 1, 64, 127
2, 78320, Note_on_c, 1, 67, 127
2, 78320, Note_on_c, 1, 72, 127
2, 78640, Note_off_c, 1, 64, 0
2, 78640, Note_off_c, 1, 67, 0
2, 78640, Note_off_c, 1, 72, 0
2, 78960, Note_off_c, 1, 84, 0
2, 79000, Note_on_c, 1, 84, 127
2, 79120, Note_on_c, 1, 64, 127
2, 79120, Note_on_c, 1, 67, 127
2, 79120, Note_on_c, 1, 72, 127
2, 79440, Note_off_c, 1, 84, 0
2, 79480, Note_off_c, 1, 64, 0
2, 79480, Note_off_c, 1, 67, 0
2, 79480, Note_off_c, 1, 72, 0
2, 79480, Note_on_c, 1, 84, 127
2, 79520, Note_on_c, 1, 64, 127
2, 79520, Note_on_c, 1, 67, 127
2, 79520, Note_on_c, 1, 72, 127
2, 79840, Note_off_c, 1, 64, 0
2, 79840, Note_off_c, 1, 67, 0
2, 79840, Note_off_c, 1, 72, 0
2, 80280, Note_on_c, 1, 64, 127
2, 80280, Note_on_c, 1, 67, 127
2, 80280, Note_on_c, 1, 72, 127
2, 80280, Note_off_c, 1, 84, 0
2, 80280, Note_on_c, 1, 88, 127
2, 80640, Note_off_c, 1, 64, 0
2, 80640, Note_off_c, 1, 67, 0
2, 80640, Note_off_c, 1, 72, 0
2, 80640, Note_off_c, 1, 88, 0
2, 80680, Note_on_c, 1, 84, 127
2, 81080, Note_off_c, 1, 84, 0
2, 81120, Note_on_c, 1, 64, 127
2, 81120, Note_on_c, 1, 67, 127
2, 81120, Note_on_c, 1, 72, 127
2, 81120, Note_on_c, 1, 84, 127
2, 81440, Note_off_c, 1, 64, 0
2, 81440, Note_off_c, 1, 67, 0
2, 81440, Note_off_c, 1, 72, 0
2, 81480, Note_off_c, 1, 84, 0
2, 81520, Note_on_c, 1, 64, 127
2, 81520, Note_on_c, 1, 67, 127
2, 81520, Note_on_c, 1, 72, 127
2, 81920, Note_on_c, 1, 88, 127
2, 82080, Note_off_c, 1, 88, 0
2, 82280, Note_off_c, 1, 64, 0
2, 82280, Note_off_c, 1, 67, 0
2, 82320, Note_on_c, 1, 65, 127
2, 82320, Note_on_c, 1, 70, 127
2, 82640, Note_off_c, 1, 65, 0
2, 82640, Note_off_c, 1, 70, 0
2, 82680, Note_on_c, 1, 64, 127
2, 82680, Note_on_c, 1, 69, 127
2, 83280, Note_off_c, 1, 64, 0
2, 83280, Note_off_c, 1, 69, 0
2, 83280, Note_off_c, 1, 72, 0
2, 83320, Note_on_c, 1, 64, 127
2, 83320, Note_on_c, 1, 69, 127
2, 83320, Note_on_c, 1, 72, 127
2, 83480, Note_off_c, 1, 64, 0
2, 83480, Note_off_c, 1, 69, 0
2, 83520, Note_on_c, 1, 64, 127
2, 83880, Note_off_c, 1, 64, 0
2, 83880, Note_off_c, 1, 72, 0
2, 83920, Note_on_c, 1, 67, 127
2, 84320, Note_on_c, 1, 69, 127
2, 85400, Note_off_c, 1, 67, 0
2, 85400, Note_off_c, 1, 69, 0
2, 85440, Note_on_c, 1, 67, 127
2, 85440, Note_on_c, 1, 69, 127
2, 85480, Note_off_c, 1, 67, 0
2, 85480, Note_off_c, 1, 69, 0
2, 85520, Note_on_c, 1, 67, 127
2, 85520, Note_on_c, 1, 73, 127
2, 86280, Note_off_c, 1, 67, 0
2, 86280, Note_off_c, 1, 73, 0
2, 86320, Note_on_c, 1, 65, 127
2, 86320, Note_on_c, 1, 71, 127
2, 86320, Note_on_c, 1, 74, 127
2, 87480, Note_off_c, 1, 71, 0
2, 87480, Note_off_c, 1, 74, 0
2, 87520, Note_off_c, 1, 65, 0
2, 87560, Note_on_c, 1, 65, 127
2, 87560, Note_on_c, 1, 71, 127
2, 87560, Note_on_c, 1, 74, 127
2, 89080, Note_off_c, 1, 65, 0
2, 89080, Note_off_c, 1, 71, 0
2, 89080, Note_off_c, 1, 74, 0
2, 89120, Note_on_c, 1, 67, 127
2, 89120, Note_on_c, 1, 71, 127
2, 89120, Note_on_c, 1, 74, 127
2, 89920, Note_off_c, 1, 67, 0
2, 89920, Note_off_c, 1, 71, 0
2, 89920, Note_off_c, 1, 74, 0
2, 89960, Note_on_c, 1, 67, 127
2, 89960, Note_on_c, 1, 71, 127
2, 89960, Note_on_c, 1, 74, 127
2, 91480, Note_off_c, 1, 67, 0
2, 91480, Note_off_c, 1, 71, 0
2, 91480, Note_off_c, 1, 74, 0
2, 91520, Note_on_c, 1, 64, 127
2, 91520, Note_on_c, 1, 72, 127
2, 91880, Note_off_c, 1, 64, 0
2, 91920, Note_on_c, 1, 67, 127
2, 92280, Note_off_c, 1, 72, 0
2, 92320, Note_off_c, 1, 67, 0
2, 92360, Note_on_c, 1, 67, 127
2, 92360, Note_on_c, 1, 72, 127
2, 92720, Note_off_c, 1, 67, 0
2, 92720, Note_off_c, 1, 72, 0
2, 92760, Note_on_c, 1, 64, 127
2, 92760, Note_on_c, 1, 72, 127
2, 92760, Note_on_c, 1, 76, 127
2, 93120, Note_off_c, 1, 64, 0
2, 93160, Note_on_c, 1, 67, 127
2, 93520, Note_off_c, 1, 67, 0
2, 93520, Note_off_c, 1, 72, 0
2, 93520, Note_off_c, 1, 76, 0
2, 93560, Note_on_c, 1, 67, 127
2, 93560, Note_on_c, 1, 71, 127
2, 93560, Note_on_c, 1, 74, 127
2, 94600, Note_off_c, 1, 67, 0
2, 94600, Note_off_c, 1, 71, 0
2, 94600, Note_off_c, 1, 74, 0
2, 94640, Note_on_c, 1, 67, 127
2, 94640, Note_on_c, 1, 71, 127
2, 94640, Note_on_c, 1, 74, 127
2, 95520, Note_off_c, 1, 67, 0
2, 95520, Note_off_c, 1, 71, 0
2, 95520, Note_off_c, 1, 74, 0
2, 95560, Note_on_c, 1, 67, 127
2, 95560, Note_on_c, 1, 71, 127
2, 95560, Note_on_c, 1, 74, 127
2, 96320, Note_off_c, 1, 67, 0
2, 96320, Note_off_c, 1, 71, 0
2, 96320, Note_off_c, 1, 74, 0
2, 96360, Note_on_c, 1, 67, 127
2, 96360, Note_on_c, 1, 71, 127
2, 96760, Note_off_c, 1, 67, 0
2, 96760, Note_off_c, 1, 71, 0
2, 96800, Note_on_c, 1, 67, 127
2, 96800, Note_on_c, 1, 71, 127
2, 97200, Note_on_c, 1, 62, 127
2, 97920, Note_off_c, 1, 62, 0
2, 97920, Note_off_c, 1, 67, 0
2, 97920, Note_off_c, 1, 71, 0
2, 97920, Note_on_c, 1, 79, 127
2, 97920, Note_on_c, 1, 83, 127
2, 97960, Note_on_c, 1, 62, 127
2, 97960, Note_on_c, 1, 69, 127
2, 97960, Note_on_c, 1, 72, 127
2, 97960, Note_off_c, 1, 79, 0
2, 97960, Note_off_c, 1, 83, 0
2, 98320, Note_off_c, 1, 62, 0
2, 98360, Note_on_c, 1, 62, 127
2, 98720, Note_off_c, 1, 62, 0
2, 98760, Note_on_c, 1, 78, 127
2, 99120, Note_off_c, 1, 69, 0
2, 99120, Note_off_c, 1, 72, 0
2, 99120, Note_off_c, 1, 78, 0
2, 99200, Note_on_c, 1, 71, 127
2, 99200, Note_on_c, 1, 74, 127
2, 99600, Note_on_c, 1, 43, 127
2, 99600, Note_on_c, 1, 67, 127
2, 101160, Note_off_c, 1, 43, 0
2, 101200, Note_on_c, 1, 55, 127
2, 101560, Note_off_c, 1, 55, 0
2, 101560, Note_off_c, 1, 67, 0
2, 101560, Note_off_c, 1, 71, 0
2, 101560, Note_off_c, 1, 74, 0
2, 101600, Note_on_c, 1, 55, 127
2, 101600, Note_on_c, 1, 67, 127
2, 101600, Note_on_c, 1, 71, 127
2, 101600, Note_on_c, 1, 74, 127
2, 102000, Note_off_c, 1, 55, 0
2, 102000, Note_off_c, 1, 67, 0
2, 102000, Note_off_c, 1, 71, 0
2, 102000, Note_off_c, 1, 74, 0
2, 102040, Note_on_c, 1, 42, 127
2, 102040, Note_on_c, 1, 51, 127
2, 102040, Note_on_c, 1, 60, 127
2, 102040, Note_on_c, 1, 69, 127
2, 102040, Note_on_c, 1, 72, 127
2, 102440, Note_off_c, 1, 51, 0
2, 102440, Note_on_c, 1, 54, 127
2, 102600, Note_off_c, 1, 54, 0
2, 102640, Note_on_c, 1, 54, 127
2, 102760, Note_off_c, 1, 54, 0
2, 102800, Note_off_c, 1, 42, 0
2, 102800, Note_off_c, 1, 60, 0
2, 102800, Note_off_c, 1, 69, 0
2, 102800, Note_off_c, 1, 72, 0
2, 102840, Note_on_c, 1, 45, 127
2, 102840, Note_on_c, 1, 71, 127
2, 102840, Note_on_c, 1, 74, 127
2, 103200, Note_off_c, 1, 45, 0
2, 103240, Note_on_c, 1, 47, 127
2, 103800, Note_off_c, 1, 47, 0
2, 103800, Note_off_c, 1, 71, 0
2, 103800, Note_off_c, 1, 74, 0
2, 103840, Note_on_c, 1, 47, 127
2, 103840, Note_on_c, 1, 71, 127
2, 103840, Note_on_c, 1, 74, 127
2, 104040, Note_off_c, 1, 71, 0
2, 104080, Note_on_c, 1, 38, 127
2, 104080, Note_off_c, 1, 47, 0
2, 104080, Note_on_c, 1, 60, 127
2, 104080, Note_off_c, 1, 74, 0
2, 104080, Note_on_c, 1, 75, 127
2, 104120, Note_off_c, 1, 38, 0
2, 104120, Note_on_c, 1, 48, 127
2, 104120, Note_on_c, 1, 70, 127
2, 104120, Note_off_c, 1, 75, 0
2, 104120, Note_on_c, 1, 77, 127
2, 104240, Note_on_c, 1, 76, 127
2, 104240, Note_off_c, 1, 77, 0
2, 104440, Note_off_c, 1, 70, 0
2, 104440, Note_off_c, 1, 76, 0
2, 104480, Note_on_c, 1, 70, 127
2, 104480, Note_on_c, 1, 76, 127
2, 104840, Note_off_c, 1, 48, 0
2, 104840, Note_off_c, 1, 70, 0
2, 104840, Note_off_c, 1, 76, 0
2, 104880, Note_on_c, 1, 43, 127
2, 104880, Note_off_c, 1, 60, 0
2, 104880, Note_on_c, 1, 64, 127
2, 104880, Note_on_c, 1, 72, 127
2, 105240, Note_off_c, 1, 43, 0
2, 105280, Note_on_c, 1, 50, 127
2, 106040, Note_off_c, 1, 50, 0
2, 106080, Note_off_c, 1, 64, 0
2, 106080, Note_off_c, 1, 72, 0
2, 106120, Note_on_c, 1, 50, 127
2, 106120, Note_on_c, 1, 64, 127
2, 106120, Note_on_c, 1, 72, 127
2, 106880, Note_off_c, 1, 50, 0
2, 107320, Note_on_c, 1, 55, 127
2, 107680, Note_off_c, 1, 55, 0
2, 107720, Note_on_c, 1, 47, 127
2, 108080, Note_off_c, 1, 47, 0
2, 108120, Note_on_c, 1, 55, 127
2, 108480, Note_off_c, 1, 55, 0
2, 108520, Note_off_c, 1, 64, 0
2, 108520, Note_off_c, 1, 72, 0
2, 108560, Note_on_c, 1, 45, 127
2, 108560, Note_on_c, 1, 64, 127
2, 108560, Note_on_c, 1, 72, 127
2, 108920, Note_off_c, 1, 45, 0
2, 108960, Note_on_c, 1, 55, 127
2, 109320, Note_off_c, 1, 55, 0
2, 109760, Note_on_c, 1, 47, 127
2, 109760, Note_on_c, 1, 52, 127
2, 109760, Note_on_c, 1, 59, 127
2, 109760, Note_off_c, 1, 64, 0
2, 109760, Note_on_c, 1, 68, 127
2, 109760, Note_on_c, 1, 71, 127
2, 109760, Note_off_c, 1, 72, 0
2, 110120, Note_off_c, 1, 47, 0
2, 110120, Note_off_c, 1, 52, 0
2, 110120, Note_off_c, 1, 59, 0
2, 110120, Note_off_c, 1, 68, 0
2, 110160, Note_on_c, 1, 52, 127
2, 110160, Note_on_c, 1, 68, 127
2, 110160, Note_on_c, 1, 69, 127
2, 110200, Note_on_c, 1, 66, 127
2, 110200, Note_off_c, 1, 68, 0
2, 110200, Note_off_c, 1, 69, 0
2, 110440, Note_off_c, 1, 66, 0
2, 110520, Note_off_c, 1, 52, 0
2, 110520, Note_off_c, 1, 71, 0
2, 110560, Note_on_c, 1, 60, 127
2, 110560, Note_on_c, 1, 69, 127
2, 110840, Note_off_c, 1, 60, 0
2, 110840, Note_off_c, 1, 69, 0
2, 110880, Note_on_c, 1, 60, 127
2, 110880, Note_on_c, 1, 69, 127
2, 111760, Note_off_c, 1, 69, 0
2, 111800, Note_on_c, 1, 55, 127
2, 111800, Note_off_c, 1, 60, 0
2, 111800, Note_on_c, 1, 64, 127
2, 113120, Note_off_c, 1, 64, 0
2, 113120, Note_on_c, 1, 67, 127
2, 113160, Note_off_c, 1, 55, 0
2, 113160, Note_off_c, 1, 67, 0
2, 113200, Note_on_c, 1, 55, 127
2, 113200, Note_on_c, 1, 64, 127
2, 113360, Note_off_c, 1, 55, 0
2, 113400, Note_off_c, 1, 64, 0
2, 113440, Note_on_c, 1, 52, 127
2, 113440, Note_on_c, 1, 67, 127
2, 115400, Note_off_c, 1, 52, 0
2, 115400, Note_off_c, 1, 67, 0
2, 115480, Note_on_c, 1, 48, 127
2, 115480, Note_on_c, 1, 79, 127
2, 116240, Note_off_c, 1, 48, 0
2, 116280, Note_on_c, 1, 52, 127
2, 116640, Note_off_c, 1, 52, 0
2, 116680, Note_on_c, 1, 48, 127
2, 117040, Note_off_c, 1, 48, 0
2, 117080, Note_on_c, 1, 48, 127
2, 117440, Note_off_c, 1, 48, 0
2, 117480, Note_on_c, 1, 48, 127
2, 117680, Note_off_c, 1, 48, 0
2, 117680, Note_off_c, 1, 79, 0
2, 117720, Note_on_c, 1, 48, 127
2, 117720, Note_on_c, 1, 79, 127
2, 117880, Note_off_c, 1, 48, 0
2, 117920, Note_on_c, 1, 48, 127
2, 118280, Note_off_c, 1, 48, 0
2, 118320, Note_on_c, 1, 48, 127
2, 118680, Note_off_c, 1, 48, 0
2, 118720, Note_on_c, 1, 40, 127
2, 119080, Note_off_c, 1, 40, 0
2, 119080, Note_off_c, 1, 79, 0
2, 119120, Note_on_c, 1, 38, 127
2, 119120, Note_on_c, 1, 79, 127
2, 119480, Note_off_c, 1, 38, 0
2, 119480, Note_off_c, 1, 79, 0
2, 119520, Note_on_c, 1, 38, 127
2, 119520, Note_on_c, 1, 74, 127
2, 119920, Note_off_c, 1, 38, 0
2, 119920, Note_off_c, 1, 74, 0
2, 119960, Note_on_c, 1, 38, 127
2, 119960, Note_on_c, 1, 74, 127
2, 120000, Note_off_c, 1, 38, 0
2, 120000, Note_off_c, 1, 74, 0
2, 120040, End_track
3, 0, Start_track
3, 0, Title_t, "MIDI"
3, 1536, End_track
0, 0, End_of_file
