0, 0, Header, 1, 3, 192
1, 0, Start_track
1, 0, Time_signature, 4, 2, 24, 8
1, 0, Tempo, 500000
1, 120040, End_track
2, 0, Start_track
2, 0, Text_t, "random instrument: random person i dunno whatev"
2, 0, Title_t, "Track 1"
2, 0, Note_on_c, 1, 40, 127
2, 0, Note_on_c, 1, 48, 127
2, 0, Note_on_c, 1, 56, 127
2, 0, Note_on_c, 1, 60, 127
2, 440, Note_off_c, 1, 40, 0
2, 440, Note_off_c, 1, 48, 0
2, 440, Note_off_c, 1, 56, 0
2, 440, Note_off_c, 1, 60, 0
2, 480, Note_on_c, 1, 40, 127
2, 480, Note_on_c, 1, 48, 127
2, 480, Note_on_c, 1, 56, 127
2, 480, Note_on_c, 1, 60, 127
2, 520, Note_off_c, 1, 40, 0
2, 520, Note_off_c, 1, 48, 0
2, 520, Note_off_c, 1, 56, 0
2, 520, Note_off_c, 1, 60, 0
2, 560, Note_on_c, 1, 79, 127
2, 2000, Note_off_c, 1, 79, 0
2, 2040, Note_on_c, 1, 78, 127
2, 2280, Note_off_c, 1, 78, 0
2, 2320, Note_on_c, 1, 79, 127
2, 2480, Note_off_c, 1, 79, 0
2, 2520, Note_on_c, 1, 79, 127
2, 3920, Note_off_c, 1, 79, 0
2, 3960, Note_on_c, 1, 80, 127
2, 4720, Note_off_c, 1, 80, 0
2, 4760, Note_on_c, 1, 80, 127
2, 4920, Note_off_c, 1, 80, 0
2, 4960, Note_on_c, 1, 78, 127
2, 5640, Note_off_c, 1, 78, 0
2, 5680, Note_on_c, 1, 79, 127
2, 6040, Note_off_c, 1, 79, 0
2, 6080, Note_on_c, 1, 78, 127
2, 7040, Note_off_c, 1, 78, 0
2, 7080, Note_on_c, 1, 78, 127
2, 7200, Note_off_c, 1, 78, 0
2, 7240, Note_on_c, 1, 92, 127
2, 7400, Note_on_c, 1, 80, 127
2, 7400, Note_off_c, 1, 92, 0
2, 7440, Note_off_c, 1, 80, 0
2, 7440, Note_on_c, 1, 92, 127
2, 8640, Note_off_c, 1, 92, 0
2, 18240, Note_on_c, 1, 40, 127
2, 18240, Note_on_c, 1, 52, 127
2, 18240, Note_on_c, 1, 64, 127
2, 18600, Note_off_c, 1, 40, 0
2, 18600, Note_off_c, 1, 52, 0
2, 18600, Note_off_c, 1, 64, 0
2, 18640, Note_on_c, 1, 40, 127
2, 18640, Note_on_c, 1, 52, 127
2, 18640, Note_on_c, 1, 64, 127
2, 23560, Note_on_c, 1, 39, 127
2, 23560, Note_off_c, 1, 40, 0
2, 23560, Note_on_c, 1, 51, 127
2, 23560, Note_off_c, 1, 52, 0
2, 23560, Note_on_c, 1, 63, 127
2, 23560, Note_off_c, 1, 64, 0
2, 23600, Note_off_c, 1, 39, 0
2, 23600, Note_on_c, 1, 40, 127
2, 23600, Note_off_c, 1, 51, 0
2, 23600, Note_on_c, 1, 52, 127
2, 23600, Note_off_c, 1, 63, 0
2, 23600, Note_on_c, 1, 64, 127
2, 26160, Note_off_c, 1, 40, 0
2, 26160, Note_off_c, 1, 52, 0
2, 26160, Note_off_c, 1, 64, 0
2, 26200, Note_on_c, 1, 40, 127
2, 26200, Note_on_c, 1, 52, 127
2, 26200, Note_on_c, 1, 64, 127
2, 29480, Note_off_c, 1, 40, 0
2, 29480, Note_off_c, 1, 52, 0
2, 29480, Note_off_c, 1, 64, 0
2, 29520, Note_on_c, 1, 40, 127
2, 29520, Note_on_c, 1, 52, 127
2, 29520, Note_on_c, 1, 64, 127
2, 32400, Note_off_c, 1, 40, 0
2, 32400, Note_off_c, 1, 52, 0
2, 32400, Note_off_c, 1, 64, 0
2, 32440, Note_on_c, 1, 40, 127
2, 32440, Note_on_c, 1, 52, 127
2, 32440, Note_on_c, 1, 64, 127
2, 34720, Note_off_c, 1, 40, 0
2, 34720, Note_off_c, 1, 52, 0
2, 34720, Note_off_c, 1, 64, 0
2, 34760, Note_on_c, 1, 40, 127
2, 34760, Note_on_c, 1, 52, 127
2, 34760, Note_on_c, 1, 64, 127
2, 37240, Note_off_c, 1, 40, 0
2, 37240, Note_off_c, 1, 52, 0
2, 37240, Note_off_c, 1, 64, 0
2, 37280, Note_on_c, 1, 40, 127
2, 37280, Note_on_c, 1, 52, 127
2, 37280, Note_on_c, 1, 64, 127
2, 39960, Note_off_c, 1, 40, 0
2, 39960, Note_off_c, 1, 52, 0
2, 39960, Note_off_c, 1, 64, 0
2, 40000, Note_on_c, 1, 40, 127
2, 40000, Note_on_c, 1, 52, 127
2, 40000, Note_on_c, 1, 64, 127
2, 42680, Note_off_c, 1, 40, 0
2, 42680, Note_off_c, 1, 52, 0
2, 42680, Note_off_c, 1, 64, 0
2, 42720, Note_on_c, 1, 40, 127
2, 42720, Note_on_c, 1, 52, 127
2, 42720, Note_on_c, 1, 64, 127
2, 45200, Note_off_c, 1, 40, 0
2, 45200, Note_off_c, 1, 52, 0
2, 45200, Note_off_c, 1, 64, 0
2, 45240, Note_on_c, 1, 40, 127
2, 45240, Note_on_c, 1, 52, 127
2, 45240, Note_on_c, 1, 64, 127
2, 47640, Note_off_c, 1, 40, 0
2, 47640, Note_off_c, 1, 52, 0
2, 47640, Note_off_c, 1, 64, 0
2, 47680, Note_on_c, 1, 40, 127
2, 47680, Note_on_c, 1, 52, 127
2, 47680, Note_on_c, 1, 64, 127
2, 49960, Note_off_c, 1, 40, 0
2, 49960, Note_off_c, 1, 52, 0
2, 49960, Note_off_c, 1, 64, 0
2, 50000, Note_on_c, 1, 40, 127
2, 50000, Note_on_c, 1, 52, 127
2, 50000, Note_on_c, 1, 64, 127
2, 50040, Note_off_c, 1, 40, 0
2, 50040, Note_off_c, 1, 52, 0
2, 50040, Note_off_c, 1, 64, 0
2, 50080, Note_on_c, 1, 50, 127
2, 50080, Note_on_c, 1, 62, 127
2, 51960, Note_off_c, 1, 50, 0
2, 51960, Note_off_c, 1, 62, 0
2, 67200, Note_on_c, 1, 52, 127
2, 67560, Note_off_c, 1, 52, 0
2, 67600, Note_on_c, 1, 57, 127
2, 67960, Note_off_c, 1, 57, 0
2, 68000, Note_on_c, 1, 57, 127
2, 68360, Note_off_c, 1, 57, 0
2, 68400, Note_on_c, 1, 65, 127
2, 68760, Note_off_c, 1, 65, 0
2, 68800, Note_on_c, 1, 57, 127
2, 69080, Note_off_c, 1, 57, 0
2, 69120, Note_on_c, 1, 57, 127
2, 69200, Note_off_c, 1, 57, 0
2, 69240, Note_on_c, 1, 62, 127
2, 69600, Note_off_c, 1, 62, 0
2, 69640, Note_on_c, 1, 57, 127
2, 70000, Note_off_c, 1, 57, 0
2, 70040, Note_on_c, 1, 53, 127
2, 70200, Note_off_c, 1, 53, 0
2, 70440, Note_on_c, 1, 52, 127
2, 70800, Note_off_c, 1, 52, 0
2, 70840, Note_on_c, 1, 50, 127
2, 71200, Note_off_c, 1, 50, 0
2, 71240, Note_on_c, 1, 57, 127
2, 71560, Note_off_c, 1, 57, 0
2, 71600, Note_on_c, 1, 48, 127
2, 71960, Note_off_c, 1, 48, 0
2, 72000, Note_on_c, 1, 42, 127
2, 72360, Note_off_c, 1, 42, 0
2, 72400, Note_on_c, 1, 45, 127
2, 72720, Note_off_c, 1, 45, 0
2, 72760, Note_on_c, 1, 45, 127
2, 72800, Note_off_c, 1, 45, 0
2, 72840, Note_on_c, 1, 45, 127
2, 73200, Note_off_c, 1, 45, 0
2, 73240, Note_on_c, 1, 45, 127
2, 73560, Note_off_c, 1, 45, 0
2, 73640, Note_on_c, 1, 45, 127
2, 73960, Note_off_c, 1, 45, 0
2, 74040, Note_on_c, 1, 45, 127
2, 74400, Note_off_c, 1, 45, 0
2, 74440, Note_on_c, 1, 43, 127
2, 74800, Note_off_c, 1, 43, 0
2, 74840, Note_on_c, 1, 45, 127
2, 75040, Note_off_c, 1, 45, 0
2, 75080, Note_on_c, 1, 45, 127
2, 75200, Note_off_c, 1, 45, 0
2, 75240, Note_on_c, 1, 45, 127
2, 75600, Note_off_c, 1, 45, 0
2, 75640, Note_on_c, 1, 45, 127
2, 76000, Note_off_c, 1, 45, 0
2, 76040, Note_on_c, 1, 45, 127
2, 76360, Note_off_c, 1, 45, 0
2, 76440, Note_on_c, 1, 45, 127
2, 76800, Note_off_c, 1, 45, 0
2, 76840, Note_on_c, 1, 45, 127
2, 77160, Note_off_c, 1, 45, 0
2, 77200, Note_on_c, 1, 45, 127
2, 77240, Note_off_c, 1, 45, 0
2, 77280, Note_on_c, 1, 53, 127
2, 77640, Note_off_c, 1, 53, 0
2, 77680, Note_on_c, 1, 45, 127
2, 78040, Note_off_c, 1, 45, 0
2, 78080, Note_on_c, 1, 45, 127
2, 78400, Note_off_c, 1, 45, 0
2, 78480, Note_on_c, 1, 45, 127
2, 78800, Note_off_c, 1, 45, 0
2, 78880, Note_on_c, 1, 46, 127
2, 79200, Note_off_c, 1, 46, 0
2, 79320, Note_on_c, 1, 50, 127
2, 79320, Note_on_c, 1, 53, 127
2, 79320, Note_on_c, 1, 62, 127
2, 81480, Note_off_c, 1, 50, 0
2, 81480, Note_off_c, 1, 53, 0
2, 81480, Note_off_c, 1, 62, 0
2, 96600, Note_on_c, 1, 68, 127
2, 97360, Note_off_c, 1, 68, 0
2, 97400, Note_on_c, 1, 54, 127
2, 97400, Note_on_c, 1, 60, 127
2, 97400, Note_on_c, 1, 69, 127
2, 98160, Note_off_c, 1, 54, 0
2, 98160, Note_off_c, 1, 60, 0
2, 98160, Note_off_c, 1, 69, 0
2, 98200, Note_on_c, 1, 54, 127
2, 98200, Note_on_c, 1, 60, 127
2, 98200, Note_on_c, 1, 69, 127
2, 98600, Note_off_c, 1, 54, 0
2, 98600, Note_off_c, 1, 60, 0
2, 98640, Note_on_c, 1, 54, 127
2, 98640, Note_on_c, 1, 60, 127
2, 99400, Note_off_c, 1, 54, 0
2, 99400, Note_off_c, 1, 60, 0
2, 99400, Note_off_c, 1, 69, 0
2, 99440, Note_on_c, 1, 48, 127
2, 99440, Note_on_c, 1, 60, 127
2, 99440, Note_on_c, 1, 63, 127
2, 99440, Note_on_c, 1, 69, 127
2, 100640, Note_off_c, 1, 48, 0
2, 100640, Note_on_c, 1, 49, 127
2, 100640, Note_off_c, 1, 60, 0
2, 100640, Note_on_c, 1, 61, 127
2, 100640, Note_off_c, 1, 63, 0
2, 100640, Note_on_c, 1, 65, 127
2, 100640, Note_off_c, 1, 69, 0
2, 100640, Note_on_c, 1, 70, 127
2, 100760, Note_off_c, 1, 49, 0
2, 100760, Note_off_c, 1, 61, 0
2, 100760, Note_off_c, 1, 65, 0
2, 100760, Note_off_c, 1, 70, 0
2, 100800, Note_on_c, 1, 49, 127
2, 100800, Note_on_c, 1, 61, 127
2, 100800, Note_on_c, 1, 65, 127
2, 100800, Note_on_c, 1, 70, 127
2, 101040, Note_off_c, 1, 49, 0
2, 101040, Note_off_c, 1, 61, 0
2, 101040, Note_off_c, 1, 65, 0
2, 101040, Note_off_c, 1, 70, 0
2, 101080, Note_on_c, 1, 48, 127
2, 101080, Note_on_c, 1, 64, 127
2, 101080, Note_on_c, 1, 67, 127
2, 101440, Note_off_c, 1, 48, 0
2, 101480, Note_on_c, 1, 48, 127
2, 101840, Note_off_c, 1, 48, 0
2, 101840, Note_off_c, 1, 67, 0
2, 101880, Note_on_c, 1, 43, 127
2, 101880, Note_on_c, 1, 67, 127
2, 102240, Note_off_c, 1, 43, 0
2, 102240, Note_off_c, 1, 67, 0
2, 102280, Note_on_c, 1, 55, 127
2, 102280, Note_on_c, 1, 67, 127
2, 102280, Note_on_c, 1, 70, 127
2, 102640, Note_off_c, 1, 55, 0
2, 102640, Note_off_c, 1, 64, 0
2, 102640, Note_off_c, 1, 67, 0
2, 102640, Note_off_c, 1, 70, 0
2, 102680, Note_on_c, 1, 41, 127
2, 102680, Note_on_c, 1, 69, 127
2, 102680, Note_on_c, 1, 72, 127
2, 103040, Note_off_c, 1, 41, 0
2, 103040, Note_off_c, 1, 69, 0
2, 103040, Note_off_c, 1, 72, 0
2, 103080, Note_on_c, 1, 41, 127
2, 103080, Note_on_c, 1, 69, 127
2, 103080, Note_on_c, 1, 72, 127
2, 103480, Note_off_c, 1, 41, 0
2, 103520, Note_on_c, 1, 60, 127
2, 103880, Note_off_c, 1, 60, 0
2, 103880, Note_off_c, 1, 69, 0
2, 103880, Note_off_c, 1, 72, 0
2, 103920, Note_on_c, 1, 41, 127
2, 103920, Note_on_c, 1, 69, 127
2, 103920, Note_on_c, 1, 72, 127
2, 104280, Note_off_c, 1, 41, 0
2, 104320, Note_on_c, 1, 48, 127
2, 104640, Note_off_c, 1, 48, 0
2, 104680, Note_on_c, 1, 53, 127
2, 105080, Note_off_c, 1, 53, 0
2, 105120, Note_off_c, 1, 69, 0
2, 105120, Note_off_c, 1, 72, 0
2, 105160, Note_on_c, 1, 38, 127
2, 105160, Note_on_c, 1, 69, 127
2, 105160, Note_on_c, 1, 72, 127
2, 105480, Note_off_c, 1, 38, 0
2, 105520, Note_on_c, 1, 48, 127
2, 105880, Note_off_c, 1, 48, 0
2, 105920, Note_on_c, 1, 60, 127
2, 106280, Note_off_c, 1, 60, 0
2, 106280, Note_off_c, 1, 69, 0
2, 106280, Note_off_c, 1, 72, 0
2, 106320, Note_on_c, 1, 53, 127
2, 106320, Note_on_c, 1, 70, 127
2, 106320, Note_on_c, 1, 74, 127
2, 106680, Note_off_c, 1, 53, 0
2, 106720, Note_on_c, 1, 48, 127
2, 107080, Note_off_c, 1, 48, 0
2, 107120, Note_on_c, 1, 50, 127
2, 107480, Note_off_c, 1, 50, 0
2, 107480, Note_off_c, 1, 70, 0
2, 107480, Note_off_c, 1, 74, 0
2, 107520, Note_on_c, 1, 70, 127
2, 107520, Note_on_c, 1, 74, 127
2, 107560, Note_on_c, 1, 50, 127
2, 107920, Note_off_c, 1, 50, 0
2, 107960, Note_on_c, 1, 50, 127
2, 108320, Note_off_c, 1, 50, 0
2, 108360, Note_on_c, 1, 46, 127
2, 108720, Note_off_c, 1, 46, 0
2, 108720, Note_off_c, 1, 70, 0
2, 108720, Note_off_c, 1, 74, 0
2, 108760, Note_on_c, 1, 70, 127
2, 108760, Note_on_c, 1, 74, 127
2, 109160, Note_on_c, 1, 48, 127
2, 109520, Note_off_c, 1, 48, 0
2, 109560, Note_on_c, 1, 46, 127
2, 109840, Note_off_c, 1, 46, 0
2, 109840, Note_off_c, 1, 70, 0
2, 109840, Note_off_c, 1, 74, 0
2, 109880, Note_on_c, 1, 46, 127
2, 109880, Note_on_c, 1, 70, 127
2, 109880, Note_on_c, 1, 74, 127
2, 109960, Note_off_c, 1, 46, 0
2, 110000, Note_on_c, 1, 50, 127
2, 110360, Note_off_c, 1, 50, 0
2, 110400, Note_on_c, 1, 50, 127
2, 110760, Note_off_c, 1, 50, 0
2, 110800, Note_on_c, 1, 50, 127
2, 111160, Note_off_c, 1, 50, 0
2, 111160, Note_off_c, 1, 70, 0
2, 111160, Note_off_c, 1, 74, 0
2, 111200, Note_on_c, 1, 53, 127
2, 111200, Note_on_c, 1, 69, 127
2, 111200, Note_on_c, 1, 72, 127
2, 111960, Note_off_c, 1, 69, 0
2, 111960, Note_off_c, 1, 72, 0
2, 112000, Note_off_c, 1, 53, 0
2, 112040, Note_on_c, 1, 53, 127
2, 112040, Note_on_c, 1, 60, 127
2, 112040, Note_on_c, 1, 69, 127
2, 112400, Note_off_c, 1, 60, 0
2, 112440, Note_on_c, 1, 57, 127
2, 112800, Note_off_c, 1, 57, 0
2, 112840, Note_on_c, 1, 63, 127
2, 113200, Note_off_c, 1, 63, 0
2, 113240, Note_on_c, 1, 60, 127
2, 113600, Note_off_c, 1, 53, 0
2, 113600, Note_off_c, 1, 60, 0
2, 113600, Note_off_c, 1, 69, 0
2, 113640, Note_on_c, 1, 53, 127
2, 113640, Note_on_c, 1, 65, 127
2, 114040, Note_off_c, 1, 53, 0
2, 114040, Note_off_c, 1, 65, 0
2, 114080, Note_on_c, 1, 53, 127
2, 114080, Note_on_c, 1, 65, 127
2, 114400, Note_off_c, 1, 53, 0
2, 114440, Note_on_c, 1, 41, 127
2, 114800, Note_off_c, 1, 41, 0
2, 114840, Note_on_c, 1, 63, 127
2, 115200, Note_off_c, 1, 63, 0
2, 115240, Note_on_c, 1, 41, 127
2, 115600, Note_off_c, 1, 41, 0
2, 116040, Note_on_c, 1, 53, 127
2, 116240, Note_off_c, 1, 53, 0
2, 116240, Note_off_c, 1, 65, 0
2, 116280, Note_on_c, 1, 53, 127
2, 116280, Note_on_c, 1, 65, 127
2, 116400, Note_off_c, 1, 53, 0
2, 116440, Note_on_c, 1, 49, 127
2, 116840, Note_off_c, 1, 49, 0
2, 116840, Note_off_c, 1, 65, 0
2, 116880, Note_on_c, 1, 60, 127
2, 117640, Note_off_c, 1, 60, 0
2, 117680, Note_on_c, 1, 58, 127
2, 118040, Note_off_c, 1, 58, 0
2, 118080, Note_on_c, 1, 53, 127
2, 118440, Note_off_c, 1, 53, 0
2, 118520, Note_on_c, 1, 41, 127
2, 118840, Note_off_c, 1, 41, 0
2, 118880, Note_on_c, 1, 46, 127
2, 119240, Note_off_c, 1, 46, 0
2, 119280, Note_on_c, 1, 53, 127
2, 119640, Note_off_c, 1, 53, 0
2, 119680, Note_on_c, 1, 53, 127
2, 120000, Note_off_c, 1, 53, 0
2, 120040, End_track
3, 0, Start_track
3, 0, Title_t, "MIDI"
3, 1536, End_track
0, 0, End_of_file
